<?xml version="1.0" encoding="utf-8" standalone="no"?>
<!DOCTYPE svg PUBLIC "-//W3C//DTD SVG 1.1//EN"
  "http://www.w3.org/Graphics/SVG/1.1/DTD/svg11.dtd">
<!-- Created with matplotlib (http://matplotlib.org/) -->
<svg height="408pt" version="1.1" viewBox="0 0 512 408" width="512pt" xmlns="http://www.w3.org/2000/svg" xmlns:xlink="http://www.w3.org/1999/xlink">
 <defs>
  <style type="text/css">
*{stroke-linecap:butt;stroke-linejoin:round;}
  </style>
 </defs>
 <g id="figure_1">
  <g id="patch_1">
   <path d="
M0 408.169
L512.306 408.169
L512.306 0
L0 0
z
" style="fill:#ffffff;"/>
  </g>
  <g id="axes_1">
   <g id="patch_2">
    <path d="
M58.7063 368.742
L505.106 368.742
L505.106 23.1417
L58.7063 23.1417
z
" style="fill:#ffffff;"/>
   </g>
   <g id="line2d_1">
    <path clip-path="url(#p550dbe29e8)" d="
M58.7063 186.611
L59.9293 153.948
L61.1523 188.876
L62.3753 170.318
L63.5983 116.375
L66.0443 291.324
L67.2673 200.964
L68.4904 191.04
L69.7134 190.622
L70.9364 215.094
L72.1594 196.74
L73.3824 186.529
L74.6054 186.902
L75.8284 193.489
L77.0515 270.698
L78.2745 249.185
L79.4975 249.261
M90.5046 221.396
L91.7276 245.558
L92.9506 187.233
L94.1736 213.817
L95.3967 197.221
L96.6197 215.335
L97.8427 202.758
L99.0657 200.462
L100.289 199.224
L101.512 195.98
L102.735 197.634
L103.958 203.461
L105.181 205.511
L106.404 195.856
L107.627 192.387
L108.85 195.945
L110.073 210.678
L111.296 193.97
L112.519 217.222
L113.742 206.542
L114.965 204.423
L116.188 198.916
L117.411 216.416
L118.634 219.706
L119.857 208.74
L121.08 12.3961
L121.684 409.169
M123.201 409.169
L123.526 261.623
L124.749 194.589
L125.972 345.119
L127.195 205.652
L128.418 201.071
L129.641 215.02
L130.734 409.169
M132.123 409.169
L133.31 284.497
L134.533 219.288
L135.756 185.475
L136.979 177.245
L138.202 396.337
L139.425 219.882
L141.871 150.395
L143.094 178.823
L144.317 169.006
L145.54 189.648
L146.763 173.327
L147.986 197.588
L149.209 190.28
L150.432 187.762
L151.655 200.524
L152.878 209.123
L154.101 237.889
L155.324 200.725
L156.547 182.294
L157.77 171.225
L158.993 174.205
L160.216 150.532
L161.439 158.533
L162.662 195.834
L163.885 185.793
L165.108 182.114
L166.331 197.246
L167.554 170.635
L168.777 32.3822
L170 313.832
L171.224 197.501
L172.447 158.63
L173.67 157.949
L174.893 219.154
L176.116 398.404
L177.339 186.33
L178.562 161.323
L179.785 153.789
L181.008 125.18
L182.231 151.854
L183.454 181.641
L184.677 186.244
L185.9 166.252
L188.346 192.258
L189.569 168.657
L190.792 188.219
L192.015 182.855
L193.238 139.53
L194.461 163.711
L195.684 138.136
L196.907 139.448
L198.13 164.724
L199.353 143.506
L200.576 96.3634
L201.799 217.186
L204.245 160.51
L205.468 132.683
L206.691 177.406
L207.914 182.036
L209.137 178.893
L210.36 173.408
L211.583 214.078
L212.806 180.989
L214.029 177.718
L215.252 172.631
L216.475 127.453
L217.698 136.029
L218.921 162.697
L220.144 144.099
L221.367 169.407
L222.59 149.473
L223.813 161.364
L225.036 103.672
L226.259 88.8653
L227.482 108.675
L228.705 166.385
L229.928 162.897
L231.151 111.838
L232.374 1.42191
L233.597 162.085
L234.82 180.287
L236.043 189.202
L237.266 186.972
L238.489 152.48
L239.712 178.599
L240.935 142.747
L242.158 118.517
L243.381 113.76
L244.604 141.188
L245.827 116.081
L247.05 154.558
L248.001 -1
M248.506 -1
L249.496 189.257
L250.719 185.006
L251.942 146.268
L253.165 165.564
L254.388 180.306
L255.611 164.511
L256.834 161.424
L258.057 159.529
L259.28 81.2915
L260.504 149.707
L261.727 104.587
L262.95 158.046
L264.173 7.13099
L265.396 77.403
L266.619 169.672
L267.842 164.507
L269.065 107.115
L270.288 75.2682
L271.511 132.425
L272.734 102.774
L273.957 155.477
L275.18 40.41
L276.403 173.456
L277.626 133.164
L278.849 127.683
L280.072 148.677
L281.295 89.9098
L282.518 158.241
L283.741 60.6278
L284.964 163.73
L286.187 148.131
L287.41 146.387
L288.633 142.273
L289.856 112.58
L291.079 114.075
L292.302 148.722
L293.525 144.515
L294.748 146.49
L295.971 134.637
L297.194 128.272
L298.417 159.96
L299.64 139.708
L300.863 122.102
L302.086 136.999
L303.309 135.087
L304.532 135.252
L305.755 112.347
L306.978 142.092
L308.201 132.542
L309.424 151.707
L310.647 160.309
L311.87 130.266
L313.093 131.873
L314.316 120.862
L315.539 159.619
L316.762 133.836
L317.985 131.492
L319.208 120.527
L320.431 87.852
L321.654 119.85
L322.877 139.599
L324.1 143.573
L325.323 154.228
L326.546 139.251
L327.769 149.628
L328.992 154.295
L330.215 147.481
L331.438 139.874
L332.661 165.159
L333.884 152.026
L335.107 133.622
L336.33 123.007
L337.553 109.647
L338.776 49.8636
L339.999 92.015
L341.222 109.154
L342.445 148.891
L343.668 120.436
L344.891 142.068
L346.114 142.343
L347.337 128.945
L348.56 163.582
L349.784 124.746
L351.007 145.415
L352.23 135.244
L353.453 116.137
L354.676 167.647
L355.899 136.672
M360.791 131.236
L362.014 150.277
L363.237 143.093
L364.46 161.624
L366.906 125.108
L368.129 97.0267
L369.352 131.405
L370.575 141.816
L371.798 153.281
L373.021 137.35
L374.244 140.285
L375.467 134.773
L376.69 163.073
L377.913 139.493
L379.136 28.4657
L380.359 148.218
L381.582 163.997
L382.805 135.927
L384.028 142.94
L385.251 167.698
L386.474 144.105
L387.697 163.183
L388.92 168.18
L390.143 152.513
L391.366 162.866
L392.589 135.574
L393.812 152.641
M397.481 169.343
L398.704 184.124
L399.927 185.947
L401.15 175.672
L402.373 167.84
L403.596 170.467
L404.819 175.641
L406.042 176.912
L407.265 159.358
L408.488 136.091
L409.711 170.813
L410.934 116.815
L411.363 -1
M412.841 -1
L413.38 171.485
L414.603 170.394
L415.826 150.414
L417.049 44.731
L418.272 190.429
L419.495 194.044
L420.718 214.957
L421.941 204.738
L423.164 206.867
L424.387 203.59
L425.61 184.42
L426.833 38.2462
L428.056 136.899
L429.279 172.491
L430.502 157.219
L431.725 173.026
L432.948 187.127
L434.171 181.683
L435.394 170.76
L436.617 153.241
L437.84 159.874
L439.064 150.019
L440.287 171.323
L441.51 218.277
L442.733 220.404
L443.956 219.197
L445.179 207.633
L446.402 200.21
L447.625 198.928
L448.848 189.821
L450.071 192.053
L451.294 186.008
L452.517 191.467
L453.74 194.633
L454.963 182.999
L456.186 100.541
L457.409 200.814
L458.632 176.087
L459.855 180.405
L461.078 198.229
L462.301 210.387
L463.524 187.561
L464.747 176.508
L465.97 189.508
L467.193 187.521
L468.416 189.584
L469.639 130.692
L470.862 199.206
L472.085 187.092
L473.308 151.471
L474.531 218.725
L475.754 257.107
L478.2 208.844
M480.646 199.307
L481.869 400.935
L483.092 198.157
L484.315 202.329
M486.761 207.707
L487.984 344.445
L489.207 249.223
L490.43 227.751
L491.653 218.91
L492.876 204.038
L494.099 207.56
L495.322 216.162
L495.813 409.169
M501.437 204.026
L502.66 211.189
L503.883 210.84
L503.883 210.84" style="fill:none;stroke:#0000ff;stroke-linecap:square;"/>
   </g>
   <g id="line2d_2">
    <path clip-path="url(#p550dbe29e8)" d="
M58.7063 223.184
L59.9293 208.637
L61.1523 204.992
L62.3753 199.381
L63.5983 206.797
L64.8213 205.821
L66.0443 223.614
M68.4904 197.667
L69.7134 322.242
M72.1594 213.27
L73.3824 210.577
L74.6054 225.252
L75.8284 213.893
L77.0515 205.561
L78.2745 192.878
L79.4975 193.808
L80.7205 192.601
L81.9435 177.065
L83.1665 188.274
L84.3895 172.543
L85.6126 163.833
L86.8356 196.682
L88.0586 197.935
L89.2816 203.092
L90.5046 261.924
L91.7276 205.573
M95.3967 197.527
L96.6197 197.613
L97.8427 198.341
L99.0657 206.239
L100.289 187.943
L101.512 191.466
L102.735 208.801
L103.958 209.696
L105.181 202.986
L106.404 335.985
L107.627 216.098
L108.85 214.928
L110.073 280.767
L111.296 269.102
L112.519 278.566
L113.742 188.902
L114.965 187.696
L116.188 239.424
L117.411 207.668
L118.634 209.506
L119.857 347.919
L121.08 343.308
L122.303 244.845
L123.526 309.895
L124.749 244.62
L125.972 229.301
L127.195 312.044
L128.418 200.161
L129.641 200.355
L130.864 193.785
L132.087 180.018
L133.31 108.703
L134.533 207.493
L135.756 188.317
L136.979 183.245
L138.202 196.873
L139.425 201.006
L140.648 196.603
L141.871 175.569
L143.094 202.273
L144.317 184.916
L146.763 165.278
L147.986 141.309
L149.209 181.006
L150.052 409.169
M150.882 409.169
L151.655 232.062
L152.878 187.157
L154.101 176.579
L155.324 396.233
L156.547 347.497
L157.77 223.232
L158.993 200.114
L160.216 189.648
L161.439 194.94
L162.662 189.188
L163.885 181.82
L165.108 180.932
L166.331 177.316
L167.554 176.995
L168.777 131.324
L170 94.6826
L171.224 176.724
L172.447 163.636
L173.67 161.109
L174.893 188.56
L176.116 211.829
L177.339 205.167
L178.562 144.269
L179.785 114.516
L181.008 170.366
L182.231 182.821
L183.454 5.99512
L184.677 215.422
L185.9 210.974
L187.123 200.533
L188.346 199.042
L189.569 185.796
L190.792 193.635
L192.015 200.226
L193.238 157.284
L194.461 197.332
L195.684 190.251
L196.907 185.194
L198.13 164.34
L199.353 148.157
L200.576 153.106
L201.799 99.2706
L202.552 -1
M203.287 -1
L204.245 224.843
L205.468 181.413
L206.691 176.426
L207.914 135.178
L209.137 175.659
L210.36 163.122
L211.583 169.52
L212.806 173.825
L214.029 163.751
L215.252 140.051
L216.475 154.253
L217.698 161.719
L218.921 139.262
L220.144 21.8485
L221.367 131.234
L222.59 156.683
L223.813 167.496
L225.036 185.66
L226.259 148.246
L227.482 135.167
L228.705 169.499
L229.928 66.1923
L231.151 113.129
L232.374 165.927
L233.597 163.185
L234.82 145.873
L236.043 162.808
L237.266 175.544
L238.489 173.75
L239.712 171.13
L240.935 159.052
L242.158 132.428
L243.381 164.919
L244.604 121.551
L245.827 122.91
L247.05 136.313
L248.273 144.336
L249.496 150.088
L250.719 78.1459
L251.942 45.6848
L253.165 138.031
L254.388 118.857
L255.611 95.2596
L256.834 147.01
L258.057 107.595
L259.28 164.315
L260.504 163.878
L261.727 163.31
L262.95 140.793
L264.149 -1
M264.205 -1
L265.396 101.336
L266.619 181.184
L267.842 164.795
L269.065 160.095
L270.288 154.709
L271.511 157.182
L272.734 174.616
L273.957 147.18
L275.18 153.882
L276.403 156.303
L277.626 138.212
L278.849 149.407
L280.072 126.408
L281.295 109.871
L282.518 58.0933
L283.741 102.867
L284.964 132.332
L286.187 157.293
L287.41 156.951
L288.633 136.349
L289.856 156.598
L291.079 149.233
L292.302 125.547
L293.525 126.336
L294.748 127.489
L295.971 158.245
L297.194 151.098
L298.417 126.608
L299.64 108.367
L300.863 151.303
L302.086 148.403
L303.309 124.288
L304.532 145.538
L305.755 109.877
L306.978 146.815
L308.201 116.497
L309.424 120.184
L310.647 153.473
L311.87 95.5148
L313.093 140.941
L314.316 145.258
L315.539 152.648
L316.762 146.163
L317.985 90.2449
L319.208 152.384
L320.431 158.472
L321.654 148.814
L322.877 149.309
L324.1 128.539
L325.323 122.981
L326.546 121.774
L327.769 143.949
L328.992 135.717
L330.215 142.045
L331.438 132.057
L332.661 144.849
L333.884 146.605
L335.107 151.682
L336.33 122.668
L337.553 147.298
L338.776 132.467
L339.999 139.811
L341.222 144.088
L342.445 153.37
L343.668 140.767
L344.891 152.655
L346.114 147.167
L347.337 118.726
L348.56 157.419
L349.784 134.737
L351.007 146.168
L352.23 135.965
L353.453 77.5633
L354.676 159.703
L355.899 155.262
L357.122 136.656
L358.345 149.265
L359.568 136.807
L360.791 132.943
L362.014 116.107
L363.237 146.267
L364.46 133.415
L365.683 136.344
L366.906 151.7
L368.129 149.081
L369.352 160.158
L370.575 164.854
L371.798 160.98
L373.021 128.214
L374.244 156.013
L375.467 151.689
L376.69 163.438
L377.913 170.03
L379.136 105.144
L380.359 105.848
L381.582 82.8129
L382.805 99.1609
L384.028 156.383
L385.251 195.175
L386.474 191.92
L387.697 180.475
L388.92 172.071
L390.143 145.577
L391.366 34.5469
L392.589 182.359
L393.812 184.681
L395.035 192.642
L396.258 179.448
L397.481 182.409
L398.704 148.791
L399.927 159.447
L401.15 189.307
L402.373 184.853
L403.596 174.686
L404.819 189.524
L406.042 184.789
L407.265 181.482
L408.488 187.374
L409.711 187.216
L410.934 177.916
L412.157 173.816
L413.38 183.406
L414.603 146.313
L415.826 124.781
L417.049 175.679
L418.272 180.919
L419.495 182.252
L420.718 176.827
L421.941 178.997
L423.164 177.869
L424.387 170.488
L425.61 187.471
L428.056 204.916
L429.279 188.413
L430.502 189.128
L431.725 177.182
M434.171 221.012
L435.394 201.253
L436.617 194.318
L437.84 168.245
L439.064 197.104
L440.287 187.648
L441.51 169.186
L442.733 173.149
L443.956 156.413
L445.179 169.642
L446.402 186.332
L447.625 217.671
L448.848 264.974
L450.071 202.161
L451.294 189.197
L452.517 187.997
L453.74 196.991
L454.963 197.513
L456.186 196.056
L459.855 174.759
L461.078 172.679
L462.301 173.38
L463.524 187.08
L464.747 189.42
L465.97 196.716
L466.512 -1
M469.526 -1
L469.639 228.662
L470.862 207.167
L472.085 207.831
L473.308 222.014
L474.531 216.932
L475.754 281.833
L476.977 263.142
L478.2 210.808
L479.423 205.085
L480.646 201.33
L481.869 211.639
L483.092 201.967
L484.315 176.283
L485.538 187.343
L486.761 180.143
L487.984 186.928
L489.207 222.893
L490.43 296.66
L491.653 237.15
L492.876 210.72
L494.099 267.868
L495.322 209.11
L496.545 187.021
L497.768 187.061
L498.991 176.145
L500.214 204.816
L501.437 225.55
L502.66 189.264
L503.883 209.978
L503.883 209.978" style="fill:none;stroke:#008000;stroke-linecap:square;"/>
   </g>
   <g id="line2d_3">
    <path clip-path="url(#p550dbe29e8)" d="
M58.7063 196.573
L59.9293 193.708
L61.1523 161.885
L62.3753 361.375
L63.5983 286.08
L64.8213 191.079
L66.0443 205.335
L67.2673 207.121
M70.9364 211.492
L71.3339 409.169
M74.6054 192.757
L75.8284 171.965
L77.0515 184.275
L78.2745 170.964
L79.4975 181.842
L80.7205 177.48
L81.9435 183.453
L83.1665 182.439
L84.3895 193.528
L85.6126 193.973
L86.8356 184.303
L88.0586 170.829
L89.2816 172.222
L90.5046 191.91
L91.7276 196.88
L92.9506 155.897
L94.1736 263.681
L95.3967 221.419
L96.6197 232.727
L97.8427 203.465
L99.0657 215.007
L100.289 222.886
L101.512 206.666
L102.735 255.019
L103.958 240.159
L105.181 234.458
L106.404 197.5
L107.627 201.324
L108.85 234.383
L110.073 149.926
L111.296 174.415
L112.519 182.444
L113.742 166.378
L114.965 156.283
L116.188 176.822
L117.411 184.212
L118.634 179.718
L119.857 266.149
L121.08 240.033
L122.303 259.874
L123.526 190.326
L124.749 179.312
L125.972 179.034
L127.195 182.79
L128.418 173.017
L129.641 196.539
L130.864 205.799
L132.087 198.592
L133.31 203.194
L134.533 193.072
L135.756 190.827
L136.871 -1
M137.083 -1
L138.202 197.996
L139.425 184.16
L140.648 177.081
L141.871 176.128
L143.094 194.786
L144.317 192.286
L145.54 179.996
L146.763 179.38
L147.986 179.743
L149.209 150.111
L149.711 -1
M151.057 -1
L151.655 207.075
L152.878 192.156
L154.101 168.536
L155.324 199.071
L156.547 191.875
L157.77 186.665
L158.993 183.211
L160.216 155.99
L161.439 197.022
L162.662 305.504
L163.885 197.356
L165.108 198.8
L166.331 201.028
L167.554 197.804
L168.777 202.534
L170 203.07
L171.224 194.978
L172.447 193.821
L173.67 197.228
L174.893 152.255
L176.116 172.542
L177.339 176.447
L178.562 131.009
L179.785 164.512
L181.008 172.853
L182.231 154.801
L183.454 153.98
L184.677 182.237
L185.9 131.497
L187.123 180.853
L188.346 155.998
L189.569 172.117
L190.792 155.205
L192.015 172.437
L193.238 160.106
L194.461 176.886
L195.684 196.559
L196.907 181.099
L198.13 196.14
L199.353 310.939
L200.576 204.202
L201.799 195.923
L203.022 171.435
L204.245 177.505
L205.468 156.495
L206.691 164.081
L207.914 121.256
L209.137 136.061
L210.36 168.273
L211.583 149.792
L212.806 151.55
L214.029 166.645
L215.252 53.0273
L216.475 186.486
L217.698 111.947
L218.921 140.442
L220.144 111.57
L221.367 117.645
L222.59 111.778
L223.813 138.676
L225.036 132.72
L226.259 138.806
L227.482 156.482
L228.705 127.472
L229.928 107.996
L231.151 114.109
L232.374 106.767
L233.597 115.755
L234.82 142.163
L236.043 114.89
L237.266 118.001
L238.489 118.421
L239.712 144.943
L240.935 123.438
L242.158 109.573
L243.381 101.476
L244.346 -1
M245.102 -1
L245.827 38.9741
L247.05 137.903
L248.273 145.631
L249.496 143.187
L250.719 143.224
L251.942 146.206
L253.165 142.497
L254.388 117.439
L255.611 162.309
L256.834 97.8327
L259.28 170.171
L260.504 172.01
L261.727 160.401
L262.95 182.786
L264.173 181.314
L265.396 165.652
L266.619 153.906
L267.842 151.381
L269.065 154.068
L270.288 158.596
L271.511 147.057
L272.734 160.775
L273.957 132.18
L275.18 137.615
L276.403 162.009
L277.626 147.222
L278.849 157.016
L280.072 143.708
L281.295 128.379
L282.518 150.769
L283.741 153.998
L284.964 131.536
L286.187 149.011
L287.41 111.812
L288.633 125.242
L291.079 141.607
L292.302 144.82
L293.525 117.848
L294.748 150.702
L295.971 114.9
L297.194 106.802
L298.417 137.871
L299.64 145.22
L300.863 120.354
L302.086 124.912
L303.309 138.301
L304.532 157.916
L305.755 159.531
L306.978 113.214
L308.201 118.422
L309.424 142.134
L310.647 157.841
L311.87 148.66
L313.093 146.253
L314.316 137.079
L315.539 150.957
L316.762 142.479
L317.985 151.644
L319.208 153.799
L320.431 143.054
L321.654 148.235
L322.877 140.439
L324.1 146.997
L325.323 159.813
L326.546 163.341
L327.769 148.415
L328.992 157.689
L330.215 138.041
L331.438 137.851
L332.661 156.388
L333.884 167.066
L335.107 162.422
L336.33 147.738
L337.553 158.628
L338.776 152.386
L339.999 141.182
L341.222 153.016
L342.445 157.744
L343.668 165.348
L344.891 164.724
L346.114 168.801
L347.337 175.363
L348.56 162.429
L349.784 160.398
L351.007 158.963
L352.23 151.901
L353.453 128.079
L354.676 166.063
L355.899 162.472
L357.122 154.062
L358.345 105.974
L359.568 174.155
L360.791 169.931
L362.014 158.922
L363.237 154.592
L364.46 156.589
L365.683 90.4559
L366.906 151.567
L368.129 169.361
L369.352 157.274
L370.575 165.771
L371.798 168.297
L373.021 162.02
L374.244 156.789
L375.467 150.245
L376.69 142.003
L377.913 136.197
L379.136 163.37
L380.359 143.537
L381.582 170.552
L382.805 151.541
L384.028 137.479
L385.251 20.9896
L386.474 172.628
L387.697 176.988
L388.92 180.916
L390.143 182.259
L391.366 150.855
L392.589 170.446
L393.812 153.911
L395.035 177.826
L396.258 156.534
L397.481 152.16
L398.704 149.751
L399.927 157.86
L401.15 153.063
L402.373 172.643
L403.596 149.746
L404.819 147.588
L406.042 175.044
L407.265 169.588
L408.488 151.784
L409.711 117.744
L410.934 183.535
L412.157 151.895
L413.38 169.945
L414.603 150.213
L415.826 150.471
L417.049 157.198
L418.272 180.991
L419.495 179.397
L420.718 171.519
L421.941 96.7747
L422.246 -1
M423.897 -1
L424.387 196.853
L425.61 181.117
L426.833 172.897
L428.056 142.088
L429.279 167.683
L430.502 168.37
L431.725 207.257
L432.948 196.942
L434.171 192.926
L435.394 186.324
L436.617 145.605
L437.84 164.119
L439.064 171.643
L440.287 22.5321
L441.51 247.372
L442.733 205.329
L443.956 208.704
L445.179 247.562
L445.193 409.169
M447.606 409.169
L447.625 201.178
L448.848 210.457
L450.071 201.446
L451.294 190.533
L452.517 190.301
L453.74 189.505
L454.963 197.662
L456.186 176.083
M458.632 219.404
L458.969 -1
M460.847 -1
L461.078 133.47
L462.301 162.31
L463.524 164.236
L464.747 38.8879
L465.97 213.628
L467.193 206.659
L468.416 197.39
L469.639 198
L472.085 187.753
L473.308 191.925
L474.531 188.923
L475.754 188.944
L476.977 184.809
L478.2 164.694
L479.423 158.29
L480.646 160.855
M483.092 196.824
L484.315 213.971
L485.538 208.48
L486.761 200.157
L487.984 201.199
L489.207 234.114
L490.43 250.082
L490.621 -1
M494.099 203.055
L495.322 226.926
L495.423 409.169
M497.689 409.169
L497.768 268.246
L498.991 223.472
L500.214 406.291
M502.66 198.939
L503.883 203.153
L503.883 203.153" style="fill:none;stroke:#ff0000;stroke-linecap:square;"/>
   </g>
   <g id="patch_3">
    <path d="
M58.7063 23.1417
L505.106 23.1417" style="fill:none;stroke:#000000;stroke-linecap:square;stroke-linejoin:miter;"/>
   </g>
   <g id="patch_4">
    <path d="
M505.106 368.742
L505.106 23.1417" style="fill:none;stroke:#000000;stroke-linecap:square;stroke-linejoin:miter;"/>
   </g>
   <g id="patch_5">
    <path d="
M58.7063 368.742
L505.106 368.742" style="fill:none;stroke:#000000;stroke-linecap:square;stroke-linejoin:miter;"/>
   </g>
   <g id="patch_6">
    <path d="
M58.7063 368.742
L58.7063 23.1417" style="fill:none;stroke:#000000;stroke-linecap:square;stroke-linejoin:miter;"/>
   </g>
   <g id="matplotlib.axis_1">
    <g id="xtick_1">
     <g id="line2d_4">
      <defs>
       <path d="
M0 0
L0 -4" id="m93b0483c22" style="stroke:#000000;stroke-width:0.5;"/>
      </defs>
      <g>
       <use style="stroke:#000000;stroke-width:0.5;" x="58.70625" xlink:href="#m93b0483c22" y="368.74175"/>
      </g>
     </g>
     <g id="line2d_5">
      <defs>
       <path d="
M0 0
L0 4" id="m741efc42ff" style="stroke:#000000;stroke-width:0.5;"/>
      </defs>
      <g>
       <use style="stroke:#000000;stroke-width:0.5;" x="58.70625" xlink:href="#m741efc42ff" y="23.14175"/>
      </g>
     </g>
     <g id="text_1">
      <!-- 0 -->
      <defs>
       <path d="
M31.7812 66.4062
Q24.1719 66.4062 20.3281 58.9062
Q16.5 51.4219 16.5 36.375
Q16.5 21.3906 20.3281 13.8906
Q24.1719 6.39062 31.7812 6.39062
Q39.4531 6.39062 43.2812 13.8906
Q47.125 21.3906 47.125 36.375
Q47.125 51.4219 43.2812 58.9062
Q39.4531 66.4062 31.7812 66.4062
M31.7812 74.2188
Q44.0469 74.2188 50.5156 64.5156
Q56.9844 54.8281 56.9844 36.375
Q56.9844 17.9688 50.5156 8.26562
Q44.0469 -1.42188 31.7812 -1.42188
Q19.5312 -1.42188 13.0625 8.26562
Q6.59375 17.9688 6.59375 36.375
Q6.59375 54.8281 13.0625 64.5156
Q19.5312 74.2188 31.7812 74.2188" id="BitstreamVeraSans-Roman-30"/>
      </defs>
      <g transform="translate(55.6828125 381.859875)scale(0.12 -0.12)">
       <use xlink:href="#BitstreamVeraSans-Roman-30"/>
      </g>
     </g>
    </g>
    <g id="xtick_2">
     <g id="line2d_6">
      <g>
       <use style="stroke:#000000;stroke-width:0.5;" x="119.856934932" xlink:href="#m93b0483c22" y="368.74175"/>
      </g>
     </g>
     <g id="line2d_7">
      <g>
       <use style="stroke:#000000;stroke-width:0.5;" x="119.856934932" xlink:href="#m741efc42ff" y="23.14175"/>
      </g>
     </g>
     <g id="text_2">
      <!-- 50 -->
      <defs>
       <path d="
M10.7969 72.9062
L49.5156 72.9062
L49.5156 64.5938
L19.8281 64.5938
L19.8281 46.7344
Q21.9688 47.4688 24.1094 47.8281
Q26.2656 48.1875 28.4219 48.1875
Q40.625 48.1875 47.75 41.5
Q54.8906 34.8125 54.8906 23.3906
Q54.8906 11.625 47.5625 5.09375
Q40.2344 -1.42188 26.9062 -1.42188
Q22.3125 -1.42188 17.5469 -0.640625
Q12.7969 0.140625 7.71875 1.70312
L7.71875 11.625
Q12.1094 9.23438 16.7969 8.0625
Q21.4844 6.89062 26.7031 6.89062
Q35.1562 6.89062 40.0781 11.3281
Q45.0156 15.7656 45.0156 23.3906
Q45.0156 31 40.0781 35.4375
Q35.1562 39.8906 26.7031 39.8906
Q22.75 39.8906 18.8125 39.0156
Q14.8906 38.1406 10.7969 36.2812
z
" id="BitstreamVeraSans-Roman-35"/>
      </defs>
      <g transform="translate(113.083497432 381.859875)scale(0.12 -0.12)">
       <use xlink:href="#BitstreamVeraSans-Roman-35"/>
       <use x="63.623046875" xlink:href="#BitstreamVeraSans-Roman-30"/>
      </g>
     </g>
    </g>
    <g id="xtick_3">
     <g id="line2d_8">
      <g>
       <use style="stroke:#000000;stroke-width:0.5;" x="181.007619863" xlink:href="#m93b0483c22" y="368.74175"/>
      </g>
     </g>
     <g id="line2d_9">
      <g>
       <use style="stroke:#000000;stroke-width:0.5;" x="181.007619863" xlink:href="#m741efc42ff" y="23.14175"/>
      </g>
     </g>
     <g id="text_3">
      <!-- 100 -->
      <defs>
       <path d="
M12.4062 8.29688
L28.5156 8.29688
L28.5156 63.9219
L10.9844 60.4062
L10.9844 69.3906
L28.4219 72.9062
L38.2812 72.9062
L38.2812 8.29688
L54.3906 8.29688
L54.3906 0
L12.4062 0
z
" id="BitstreamVeraSans-Roman-31"/>
      </defs>
      <g transform="translate(170.612619863 381.859875)scale(0.12 -0.12)">
       <use xlink:href="#BitstreamVeraSans-Roman-31"/>
       <use x="63.623046875" xlink:href="#BitstreamVeraSans-Roman-30"/>
       <use x="127.24609375" xlink:href="#BitstreamVeraSans-Roman-30"/>
      </g>
     </g>
    </g>
    <g id="xtick_4">
     <g id="line2d_10">
      <g>
       <use style="stroke:#000000;stroke-width:0.5;" x="242.158304795" xlink:href="#m93b0483c22" y="368.74175"/>
      </g>
     </g>
     <g id="line2d_11">
      <g>
       <use style="stroke:#000000;stroke-width:0.5;" x="242.158304795" xlink:href="#m741efc42ff" y="23.14175"/>
      </g>
     </g>
     <g id="text_4">
      <!-- 150 -->
      <g transform="translate(231.763304795 381.859875)scale(0.12 -0.12)">
       <use xlink:href="#BitstreamVeraSans-Roman-31"/>
       <use x="63.623046875" xlink:href="#BitstreamVeraSans-Roman-35"/>
       <use x="127.24609375" xlink:href="#BitstreamVeraSans-Roman-30"/>
      </g>
     </g>
    </g>
    <g id="xtick_5">
     <g id="line2d_12">
      <g>
       <use style="stroke:#000000;stroke-width:0.5;" x="303.308989726" xlink:href="#m93b0483c22" y="368.74175"/>
      </g>
     </g>
     <g id="line2d_13">
      <g>
       <use style="stroke:#000000;stroke-width:0.5;" x="303.308989726" xlink:href="#m741efc42ff" y="23.14175"/>
      </g>
     </g>
     <g id="text_5">
      <!-- 200 -->
      <defs>
       <path d="
M19.1875 8.29688
L53.6094 8.29688
L53.6094 0
L7.32812 0
L7.32812 8.29688
Q12.9375 14.1094 22.625 23.8906
Q32.3281 33.6875 34.8125 36.5312
Q39.5469 41.8438 41.4219 45.5312
Q43.3125 49.2188 43.3125 52.7812
Q43.3125 58.5938 39.2344 62.25
Q35.1562 65.9219 28.6094 65.9219
Q23.9688 65.9219 18.8125 64.3125
Q13.6719 62.7031 7.8125 59.4219
L7.8125 69.3906
Q13.7656 71.7812 18.9375 73
Q24.125 74.2188 28.4219 74.2188
Q39.75 74.2188 46.4844 68.5469
Q53.2188 62.8906 53.2188 53.4219
Q53.2188 48.9219 51.5312 44.8906
Q49.8594 40.875 45.4062 35.4062
Q44.1875 33.9844 37.6406 27.2188
Q31.1094 20.4531 19.1875 8.29688" id="BitstreamVeraSans-Roman-32"/>
      </defs>
      <g transform="translate(292.694614726 381.859875)scale(0.12 -0.12)">
       <use xlink:href="#BitstreamVeraSans-Roman-32"/>
       <use x="63.623046875" xlink:href="#BitstreamVeraSans-Roman-30"/>
       <use x="127.24609375" xlink:href="#BitstreamVeraSans-Roman-30"/>
      </g>
     </g>
    </g>
    <g id="xtick_6">
     <g id="line2d_14">
      <g>
       <use style="stroke:#000000;stroke-width:0.5;" x="364.459674658" xlink:href="#m93b0483c22" y="368.74175"/>
      </g>
     </g>
     <g id="line2d_15">
      <g>
       <use style="stroke:#000000;stroke-width:0.5;" x="364.459674658" xlink:href="#m741efc42ff" y="23.14175"/>
      </g>
     </g>
     <g id="text_6">
      <!-- 250 -->
      <g transform="translate(353.845299658 381.859875)scale(0.12 -0.12)">
       <use xlink:href="#BitstreamVeraSans-Roman-32"/>
       <use x="63.623046875" xlink:href="#BitstreamVeraSans-Roman-35"/>
       <use x="127.24609375" xlink:href="#BitstreamVeraSans-Roman-30"/>
      </g>
     </g>
    </g>
    <g id="xtick_7">
     <g id="line2d_16">
      <g>
       <use style="stroke:#000000;stroke-width:0.5;" x="425.610359589" xlink:href="#m93b0483c22" y="368.74175"/>
      </g>
     </g>
     <g id="line2d_17">
      <g>
       <use style="stroke:#000000;stroke-width:0.5;" x="425.610359589" xlink:href="#m741efc42ff" y="23.14175"/>
      </g>
     </g>
     <g id="text_7">
      <!-- 300 -->
      <defs>
       <path d="
M40.5781 39.3125
Q47.6562 37.7969 51.625 33
Q55.6094 28.2188 55.6094 21.1875
Q55.6094 10.4062 48.1875 4.48438
Q40.7656 -1.42188 27.0938 -1.42188
Q22.5156 -1.42188 17.6562 -0.515625
Q12.7969 0.390625 7.625 2.20312
L7.625 11.7188
Q11.7188 9.32812 16.5938 8.10938
Q21.4844 6.89062 26.8125 6.89062
Q36.0781 6.89062 40.9375 10.5469
Q45.7969 14.2031 45.7969 21.1875
Q45.7969 27.6406 41.2812 31.2656
Q36.7656 34.9062 28.7188 34.9062
L20.2188 34.9062
L20.2188 43.0156
L29.1094 43.0156
Q36.375 43.0156 40.2344 45.9219
Q44.0938 48.8281 44.0938 54.2969
Q44.0938 59.9062 40.1094 62.9062
Q36.1406 65.9219 28.7188 65.9219
Q24.6562 65.9219 20.0156 65.0312
Q15.375 64.1562 9.8125 62.3125
L9.8125 71.0938
Q15.4375 72.6562 20.3438 73.4375
Q25.25 74.2188 29.5938 74.2188
Q40.8281 74.2188 47.3594 69.1094
Q53.9062 64.0156 53.9062 55.3281
Q53.9062 49.2656 50.4375 45.0938
Q46.9688 40.9219 40.5781 39.3125" id="BitstreamVeraSans-Roman-33"/>
      </defs>
      <g transform="translate(415.013797089 381.859875)scale(0.12 -0.12)">
       <use xlink:href="#BitstreamVeraSans-Roman-33"/>
       <use x="63.623046875" xlink:href="#BitstreamVeraSans-Roman-30"/>
       <use x="127.24609375" xlink:href="#BitstreamVeraSans-Roman-30"/>
      </g>
     </g>
    </g>
    <g id="xtick_8">
     <g id="line2d_18">
      <g>
       <use style="stroke:#000000;stroke-width:0.5;" x="486.761044521" xlink:href="#m93b0483c22" y="368.74175"/>
      </g>
     </g>
     <g id="line2d_19">
      <g>
       <use style="stroke:#000000;stroke-width:0.5;" x="486.761044521" xlink:href="#m741efc42ff" y="23.14175"/>
      </g>
     </g>
     <g id="text_8">
      <!-- 350 -->
      <g transform="translate(476.164482021 381.859875)scale(0.12 -0.12)">
       <use xlink:href="#BitstreamVeraSans-Roman-33"/>
       <use x="63.623046875" xlink:href="#BitstreamVeraSans-Roman-35"/>
       <use x="127.24609375" xlink:href="#BitstreamVeraSans-Roman-30"/>
      </g>
     </g>
    </g>
    <g id="text_9">
     <!-- Julian day -->
     <defs>
      <path id="BitstreamVeraSans-Roman-20"/>
      <path d="
M9.8125 72.9062
L19.6719 72.9062
L19.6719 5.07812
Q19.6719 -8.10938 14.6719 -14.0625
Q9.67188 -20.0156 -1.42188 -20.0156
L-5.17188 -20.0156
L-5.17188 -11.7188
L-2.09375 -11.7188
Q4.4375 -11.7188 7.125 -8.04688
Q9.8125 -4.39062 9.8125 5.07812
z
" id="BitstreamVeraSans-Roman-4a"/>
      <path d="
M54.8906 33.0156
L54.8906 0
L45.9062 0
L45.9062 32.7188
Q45.9062 40.4844 42.875 44.3281
Q39.8438 48.1875 33.7969 48.1875
Q26.5156 48.1875 22.3125 43.5469
Q18.1094 38.9219 18.1094 30.9062
L18.1094 0
L9.07812 0
L9.07812 54.6875
L18.1094 54.6875
L18.1094 46.1875
Q21.3438 51.125 25.7031 53.5625
Q30.0781 56 35.7969 56
Q45.2188 56 50.0469 50.1719
Q54.8906 44.3438 54.8906 33.0156" id="BitstreamVeraSans-Roman-6e"/>
      <path d="
M9.42188 75.9844
L18.4062 75.9844
L18.4062 0
L9.42188 0
z
" id="BitstreamVeraSans-Roman-6c"/>
      <path d="
M9.42188 54.6875
L18.4062 54.6875
L18.4062 0
L9.42188 0
z

M9.42188 75.9844
L18.4062 75.9844
L18.4062 64.5938
L9.42188 64.5938
z
" id="BitstreamVeraSans-Roman-69"/>
      <path d="
M32.1719 -5.07812
Q28.375 -14.8438 24.75 -17.8125
Q21.1406 -20.7969 15.0938 -20.7969
L7.90625 -20.7969
L7.90625 -13.2812
L13.1875 -13.2812
Q16.8906 -13.2812 18.9375 -11.5156
Q21 -9.76562 23.4844 -3.21875
L25.0938 0.875
L2.98438 54.6875
L12.5 54.6875
L29.5938 11.9219
L46.6875 54.6875
L56.2031 54.6875
z
" id="BitstreamVeraSans-Roman-79"/>
      <path d="
M45.4062 46.3906
L45.4062 75.9844
L54.3906 75.9844
L54.3906 0
L45.4062 0
L45.4062 8.20312
Q42.5781 3.32812 38.25 0.953125
Q33.9375 -1.42188 27.875 -1.42188
Q17.9688 -1.42188 11.7344 6.48438
Q5.51562 14.4062 5.51562 27.2969
Q5.51562 40.1875 11.7344 48.0938
Q17.9688 56 27.875 56
Q33.9375 56 38.25 53.625
Q42.5781 51.2656 45.4062 46.3906
M14.7969 27.2969
Q14.7969 17.3906 18.875 11.75
Q22.9531 6.10938 30.0781 6.10938
Q37.2031 6.10938 41.2969 11.75
Q45.4062 17.3906 45.4062 27.2969
Q45.4062 37.2031 41.2969 42.8438
Q37.2031 48.4844 30.0781 48.4844
Q22.9531 48.4844 18.875 42.8438
Q14.7969 37.2031 14.7969 27.2969" id="BitstreamVeraSans-Roman-64"/>
      <path d="
M8.5 21.5781
L8.5 54.6875
L17.4844 54.6875
L17.4844 21.9219
Q17.4844 14.1562 20.5 10.2656
Q23.5312 6.39062 29.5938 6.39062
Q36.8594 6.39062 41.0781 11.0312
Q45.3125 15.6719 45.3125 23.6875
L45.3125 54.6875
L54.2969 54.6875
L54.2969 0
L45.3125 0
L45.3125 8.40625
Q42.0469 3.42188 37.7188 1
Q33.4062 -1.42188 27.6875 -1.42188
Q18.2656 -1.42188 13.375 4.4375
Q8.5 10.2969 8.5 21.5781" id="BitstreamVeraSans-Roman-75"/>
      <path d="
M34.2812 27.4844
Q23.3906 27.4844 19.1875 25
Q14.9844 22.5156 14.9844 16.5
Q14.9844 11.7188 18.1406 8.90625
Q21.2969 6.10938 26.7031 6.10938
Q34.1875 6.10938 38.7031 11.4062
Q43.2188 16.7031 43.2188 25.4844
L43.2188 27.4844
z

M52.2031 31.2031
L52.2031 0
L43.2188 0
L43.2188 8.29688
Q40.1406 3.32812 35.5469 0.953125
Q30.9531 -1.42188 24.3125 -1.42188
Q15.9219 -1.42188 10.9531 3.29688
Q6 8.01562 6 15.9219
Q6 25.1406 12.1719 29.8281
Q18.3594 34.5156 30.6094 34.5156
L43.2188 34.5156
L43.2188 35.4062
Q43.2188 41.6094 39.1406 45
Q35.0625 48.3906 27.6875 48.3906
Q23 48.3906 18.5469 47.2656
Q14.1094 46.1406 10.0156 43.8906
L10.0156 52.2031
Q14.9375 54.1094 19.5781 55.0469
Q24.2188 56 28.6094 56
Q40.4844 56 46.3438 49.8438
Q52.2031 43.7031 52.2031 31.2031" id="BitstreamVeraSans-Roman-61"/>
     </defs>
     <g transform="translate(252.4453125 398.473625)scale(0.12 -0.12)">
      <use xlink:href="#BitstreamVeraSans-Roman-4a"/>
      <use x="29.4921875" xlink:href="#BitstreamVeraSans-Roman-75"/>
      <use x="92.87109375" xlink:href="#BitstreamVeraSans-Roman-6c"/>
      <use x="120.654296875" xlink:href="#BitstreamVeraSans-Roman-69"/>
      <use x="148.4375" xlink:href="#BitstreamVeraSans-Roman-61"/>
      <use x="209.716796875" xlink:href="#BitstreamVeraSans-Roman-6e"/>
      <use x="273.095703125" xlink:href="#BitstreamVeraSans-Roman-20"/>
      <use x="304.8828125" xlink:href="#BitstreamVeraSans-Roman-64"/>
      <use x="368.359375" xlink:href="#BitstreamVeraSans-Roman-61"/>
      <use x="429.638671875" xlink:href="#BitstreamVeraSans-Roman-79"/>
     </g>
    </g>
   </g>
   <g id="matplotlib.axis_2">
    <g id="ytick_1">
     <g id="line2d_20">
      <defs>
       <path d="
M0 0
L4 0" id="m728421d6d4" style="stroke:#000000;stroke-width:0.5;"/>
      </defs>
      <g>
       <use style="stroke:#000000;stroke-width:0.5;" x="58.70625" xlink:href="#m728421d6d4" y="368.74175"/>
      </g>
     </g>
     <g id="line2d_21">
      <defs>
       <path d="
M0 0
L-4 0" id="mcb0005524f" style="stroke:#000000;stroke-width:0.5;"/>
      </defs>
      <g>
       <use style="stroke:#000000;stroke-width:0.5;" x="505.10625" xlink:href="#mcb0005524f" y="368.74175"/>
      </g>
     </g>
     <g id="text_10">
      <!-- −100 -->
      <defs>
       <path d="
M10.5938 35.5
L73.1875 35.5
L73.1875 27.2031
L10.5938 27.2031
z
" id="BitstreamVeraSans-Roman-2212"/>
      </defs>
      <g transform="translate(23.81375 372.053)scale(0.12 -0.12)">
       <use xlink:href="#BitstreamVeraSans-Roman-2212"/>
       <use x="83.7890625" xlink:href="#BitstreamVeraSans-Roman-31"/>
       <use x="147.412109375" xlink:href="#BitstreamVeraSans-Roman-30"/>
       <use x="211.03515625" xlink:href="#BitstreamVeraSans-Roman-30"/>
      </g>
     </g>
    </g>
    <g id="ytick_2">
     <g id="line2d_22">
      <g>
       <use style="stroke:#000000;stroke-width:0.5;" x="58.70625" xlink:href="#m728421d6d4" y="282.34175"/>
      </g>
     </g>
     <g id="line2d_23">
      <g>
       <use style="stroke:#000000;stroke-width:0.5;" x="505.10625" xlink:href="#mcb0005524f" y="282.34175"/>
      </g>
     </g>
     <g id="text_11">
      <!-- −50 -->
      <g transform="translate(31.44875 285.653)scale(0.12 -0.12)">
       <use xlink:href="#BitstreamVeraSans-Roman-2212"/>
       <use x="83.7890625" xlink:href="#BitstreamVeraSans-Roman-35"/>
       <use x="147.412109375" xlink:href="#BitstreamVeraSans-Roman-30"/>
      </g>
     </g>
    </g>
    <g id="ytick_3">
     <g id="line2d_24">
      <g>
       <use style="stroke:#000000;stroke-width:0.5;" x="58.70625" xlink:href="#m728421d6d4" y="195.94175"/>
      </g>
     </g>
     <g id="line2d_25">
      <g>
       <use style="stroke:#000000;stroke-width:0.5;" x="505.10625" xlink:href="#mcb0005524f" y="195.94175"/>
      </g>
     </g>
     <g id="text_12">
      <!-- 0 -->
      <g transform="translate(48.659375 199.253)scale(0.12 -0.12)">
       <use xlink:href="#BitstreamVeraSans-Roman-30"/>
      </g>
     </g>
    </g>
    <g id="ytick_4">
     <g id="line2d_26">
      <g>
       <use style="stroke:#000000;stroke-width:0.5;" x="58.70625" xlink:href="#m728421d6d4" y="109.54175"/>
      </g>
     </g>
     <g id="line2d_27">
      <g>
       <use style="stroke:#000000;stroke-width:0.5;" x="505.10625" xlink:href="#mcb0005524f" y="109.54175"/>
      </g>
     </g>
     <g id="text_13">
      <!-- 50 -->
      <g transform="translate(41.159375 112.853)scale(0.12 -0.12)">
       <use xlink:href="#BitstreamVeraSans-Roman-35"/>
       <use x="63.623046875" xlink:href="#BitstreamVeraSans-Roman-30"/>
      </g>
     </g>
    </g>
    <g id="ytick_5">
     <g id="line2d_28">
      <g>
       <use style="stroke:#000000;stroke-width:0.5;" x="58.70625" xlink:href="#m728421d6d4" y="23.14175"/>
      </g>
     </g>
     <g id="line2d_29">
      <g>
       <use style="stroke:#000000;stroke-width:0.5;" x="505.10625" xlink:href="#mcb0005524f" y="23.14175"/>
      </g>
     </g>
     <g id="text_14">
      <!-- 100 -->
      <g transform="translate(33.91625 26.453)scale(0.12 -0.12)">
       <use xlink:href="#BitstreamVeraSans-Roman-31"/>
       <use x="63.623046875" xlink:href="#BitstreamVeraSans-Roman-30"/>
       <use x="127.24609375" xlink:href="#BitstreamVeraSans-Roman-30"/>
      </g>
     </g>
    </g>
    <g id="text_15">
     <!-- PET (mm/day) -->
     <defs>
      <path d="
M52 44.1875
Q55.375 50.25 60.0625 53.125
Q64.75 56 71.0938 56
Q79.6406 56 84.2812 50.0156
Q88.9219 44.0469 88.9219 33.0156
L88.9219 0
L79.8906 0
L79.8906 32.7188
Q79.8906 40.5781 77.0938 44.375
Q74.3125 48.1875 68.6094 48.1875
Q61.625 48.1875 57.5625 43.5469
Q53.5156 38.9219 53.5156 30.9062
L53.5156 0
L44.4844 0
L44.4844 32.7188
Q44.4844 40.625 41.7031 44.4062
Q38.9219 48.1875 33.1094 48.1875
Q26.2188 48.1875 22.1562 43.5312
Q18.1094 38.875 18.1094 30.9062
L18.1094 0
L9.07812 0
L9.07812 54.6875
L18.1094 54.6875
L18.1094 46.1875
Q21.1875 51.2188 25.4844 53.6094
Q29.7812 56 35.6875 56
Q41.6562 56 45.8281 52.9688
Q50 49.9531 52 44.1875" id="BitstreamVeraSans-Roman-6d"/>
      <path d="
M8.01562 75.875
L15.8281 75.875
Q23.1406 64.3594 26.7812 53.3125
Q30.4219 42.2812 30.4219 31.3906
Q30.4219 20.4531 26.7812 9.375
Q23.1406 -1.70312 15.8281 -13.1875
L8.01562 -13.1875
Q14.5 -2 17.7031 9.0625
Q20.9062 20.125 20.9062 31.3906
Q20.9062 42.6719 17.7031 53.6562
Q14.5 64.6562 8.01562 75.875" id="BitstreamVeraSans-Roman-29"/>
      <path d="
M31 75.875
Q24.4688 64.6562 21.2812 53.6562
Q18.1094 42.6719 18.1094 31.3906
Q18.1094 20.125 21.3125 9.0625
Q24.5156 -2 31 -13.1875
L23.1875 -13.1875
Q15.875 -1.70312 12.2344 9.375
Q8.59375 20.4531 8.59375 31.3906
Q8.59375 42.2812 12.2031 53.3125
Q15.8281 64.3594 23.1875 75.875
z
" id="BitstreamVeraSans-Roman-28"/>
      <path d="
M19.6719 64.7969
L19.6719 37.4062
L32.0781 37.4062
Q38.9688 37.4062 42.7188 40.9688
Q46.4844 44.5312 46.4844 51.125
Q46.4844 57.6719 42.7188 61.2344
Q38.9688 64.7969 32.0781 64.7969
z

M9.8125 72.9062
L32.0781 72.9062
Q44.3438 72.9062 50.6094 67.3594
Q56.8906 61.8125 56.8906 51.125
Q56.8906 40.3281 50.6094 34.8125
Q44.3438 29.2969 32.0781 29.2969
L19.6719 29.2969
L19.6719 0
L9.8125 0
z
" id="BitstreamVeraSans-Roman-50"/>
      <path d="
M9.8125 72.9062
L55.9062 72.9062
L55.9062 64.5938
L19.6719 64.5938
L19.6719 43.0156
L54.3906 43.0156
L54.3906 34.7188
L19.6719 34.7188
L19.6719 8.29688
L56.7812 8.29688
L56.7812 0
L9.8125 0
z
" id="BitstreamVeraSans-Roman-45"/>
      <path d="
M-0.296875 72.9062
L61.375 72.9062
L61.375 64.5938
L35.5 64.5938
L35.5 0
L25.5938 0
L25.5938 64.5938
L-0.296875 64.5938
z
" id="BitstreamVeraSans-Roman-54"/>
      <path d="
M25.3906 72.9062
L33.6875 72.9062
L8.29688 -9.28125
L0 -9.28125
z
" id="BitstreamVeraSans-Roman-2f"/>
     </defs>
     <g transform="translate(16.318125 237.8358125)rotate(-90.0)scale(0.12 -0.12)">
      <use xlink:href="#BitstreamVeraSans-Roman-50"/>
      <use x="60.302734375" xlink:href="#BitstreamVeraSans-Roman-45"/>
      <use x="123.486328125" xlink:href="#BitstreamVeraSans-Roman-54"/>
      <use x="184.5703125" xlink:href="#BitstreamVeraSans-Roman-20"/>
      <use x="216.357421875" xlink:href="#BitstreamVeraSans-Roman-28"/>
      <use x="255.37109375" xlink:href="#BitstreamVeraSans-Roman-6d"/>
      <use x="352.783203125" xlink:href="#BitstreamVeraSans-Roman-6d"/>
      <use x="450.1953125" xlink:href="#BitstreamVeraSans-Roman-2f"/>
      <use x="483.88671875" xlink:href="#BitstreamVeraSans-Roman-64"/>
      <use x="547.36328125" xlink:href="#BitstreamVeraSans-Roman-61"/>
      <use x="608.642578125" xlink:href="#BitstreamVeraSans-Roman-79"/>
      <use x="667.822265625" xlink:href="#BitstreamVeraSans-Roman-29"/>
     </g>
    </g>
   </g>
   <g id="text_16">
    <!-- daily bare PET at BRWtemp -->
    <defs>
     <path d="
M44.3906 34.1875
Q47.5625 33.1094 50.5625 29.5938
Q53.5625 26.0781 56.5938 19.9219
L66.6094 0
L56 0
L46.6875 18.7031
Q43.0625 26.0312 39.6719 28.4219
Q36.2812 30.8125 30.4219 30.8125
L19.6719 30.8125
L19.6719 0
L9.8125 0
L9.8125 72.9062
L32.0781 72.9062
Q44.5781 72.9062 50.7344 67.6719
Q56.8906 62.4531 56.8906 51.9062
Q56.8906 45.0156 53.6875 40.4688
Q50.4844 35.9375 44.3906 34.1875
M19.6719 64.7969
L19.6719 38.9219
L32.0781 38.9219
Q39.2031 38.9219 42.8438 42.2188
Q46.4844 45.5156 46.4844 51.9062
Q46.4844 58.2969 42.8438 61.5469
Q39.2031 64.7969 32.0781 64.7969
z
" id="BitstreamVeraSans-Roman-52"/>
     <path d="
M19.6719 34.8125
L19.6719 8.10938
L35.5 8.10938
Q43.4531 8.10938 47.2812 11.4062
Q51.125 14.7031 51.125 21.4844
Q51.125 28.3281 47.2812 31.5625
Q43.4531 34.8125 35.5 34.8125
z

M19.6719 64.7969
L19.6719 42.8281
L34.2812 42.8281
Q41.5 42.8281 45.0312 45.5312
Q48.5781 48.25 48.5781 53.8125
Q48.5781 59.3281 45.0312 62.0625
Q41.5 64.7969 34.2812 64.7969
z

M9.8125 72.9062
L35.0156 72.9062
Q46.2969 72.9062 52.3906 68.2188
Q58.5 63.5312 58.5 54.8906
Q58.5 48.1875 55.375 44.2344
Q52.25 40.2812 46.1875 39.3125
Q53.4688 37.75 57.5 32.7812
Q61.5312 27.8281 61.5312 20.4062
Q61.5312 10.6406 54.8906 5.3125
Q48.25 0 35.9844 0
L9.8125 0
z
" id="BitstreamVeraSans-Roman-42"/>
     <path d="
M3.32812 72.9062
L13.2812 72.9062
L28.6094 11.2812
L43.8906 72.9062
L54.9844 72.9062
L70.3125 11.2812
L85.5938 72.9062
L95.6094 72.9062
L77.2969 0
L64.8906 0
L49.5156 63.2812
L33.9844 0
L21.5781 0
z
" id="BitstreamVeraSans-Roman-57"/>
     <path d="
M56.2031 29.5938
L56.2031 25.2031
L14.8906 25.2031
Q15.4844 15.9219 20.4844 11.0625
Q25.4844 6.20312 34.4219 6.20312
Q39.5938 6.20312 44.4531 7.46875
Q49.3125 8.73438 54.1094 11.2812
L54.1094 2.78125
Q49.2656 0.734375 44.1875 -0.34375
Q39.1094 -1.42188 33.8906 -1.42188
Q20.7969 -1.42188 13.1562 6.1875
Q5.51562 13.8125 5.51562 26.8125
Q5.51562 40.2344 12.7656 48.1094
Q20.0156 56 32.3281 56
Q43.3594 56 49.7812 48.8906
Q56.2031 41.7969 56.2031 29.5938
M47.2188 32.2344
Q47.125 39.5938 43.0938 43.9844
Q39.0625 48.3906 32.4219 48.3906
Q24.9062 48.3906 20.3906 44.1406
Q15.875 39.8906 15.1875 32.1719
z
" id="BitstreamVeraSans-Roman-65"/>
     <path d="
M18.3125 70.2188
L18.3125 54.6875
L36.8125 54.6875
L36.8125 47.7031
L18.3125 47.7031
L18.3125 18.0156
Q18.3125 11.3281 20.1406 9.42188
Q21.9688 7.51562 27.5938 7.51562
L36.8125 7.51562
L36.8125 0
L27.5938 0
Q17.1875 0 13.2344 3.875
Q9.28125 7.76562 9.28125 18.0156
L9.28125 47.7031
L2.6875 47.7031
L2.6875 54.6875
L9.28125 54.6875
L9.28125 70.2188
z
" id="BitstreamVeraSans-Roman-74"/>
     <path d="
M41.1094 46.2969
Q39.5938 47.1719 37.8125 47.5781
Q36.0312 48 33.8906 48
Q26.2656 48 22.1875 43.0469
Q18.1094 38.0938 18.1094 28.8125
L18.1094 0
L9.07812 0
L9.07812 54.6875
L18.1094 54.6875
L18.1094 46.1875
Q20.9531 51.1719 25.4844 53.5781
Q30.0312 56 36.5312 56
Q37.4531 56 38.5781 55.875
Q39.7031 55.7656 41.0625 55.5156
z
" id="BitstreamVeraSans-Roman-72"/>
     <path d="
M18.1094 8.20312
L18.1094 -20.7969
L9.07812 -20.7969
L9.07812 54.6875
L18.1094 54.6875
L18.1094 46.3906
Q20.9531 51.2656 25.2656 53.625
Q29.5938 56 35.5938 56
Q45.5625 56 51.7812 48.0938
Q58.0156 40.1875 58.0156 27.2969
Q58.0156 14.4062 51.7812 6.48438
Q45.5625 -1.42188 35.5938 -1.42188
Q29.5938 -1.42188 25.2656 0.953125
Q20.9531 3.32812 18.1094 8.20312
M48.6875 27.2969
Q48.6875 37.2031 44.6094 42.8438
Q40.5312 48.4844 33.4062 48.4844
Q26.2656 48.4844 22.1875 42.8438
Q18.1094 37.2031 18.1094 27.2969
Q18.1094 17.3906 22.1875 11.75
Q26.2656 6.10938 33.4062 6.10938
Q40.5312 6.10938 44.6094 11.75
Q48.6875 17.3906 48.6875 27.2969" id="BitstreamVeraSans-Roman-70"/>
     <path d="
M48.6875 27.2969
Q48.6875 37.2031 44.6094 42.8438
Q40.5312 48.4844 33.4062 48.4844
Q26.2656 48.4844 22.1875 42.8438
Q18.1094 37.2031 18.1094 27.2969
Q18.1094 17.3906 22.1875 11.75
Q26.2656 6.10938 33.4062 6.10938
Q40.5312 6.10938 44.6094 11.75
Q48.6875 17.3906 48.6875 27.2969
M18.1094 46.3906
Q20.9531 51.2656 25.2656 53.625
Q29.5938 56 35.5938 56
Q45.5625 56 51.7812 48.0938
Q58.0156 40.1875 58.0156 27.2969
Q58.0156 14.4062 51.7812 6.48438
Q45.5625 -1.42188 35.5938 -1.42188
Q29.5938 -1.42188 25.2656 0.953125
Q20.9531 3.32812 18.1094 8.20312
L18.1094 0
L9.07812 0
L9.07812 75.9844
L18.1094 75.9844
z
" id="BitstreamVeraSans-Roman-62"/>
    </defs>
    <g transform="translate(183.5565 18.14175)scale(0.144 -0.144)">
     <use xlink:href="#BitstreamVeraSans-Roman-64"/>
     <use x="63.4765625" xlink:href="#BitstreamVeraSans-Roman-61"/>
     <use x="124.755859375" xlink:href="#BitstreamVeraSans-Roman-69"/>
     <use x="152.5390625" xlink:href="#BitstreamVeraSans-Roman-6c"/>
     <use x="180.322265625" xlink:href="#BitstreamVeraSans-Roman-79"/>
     <use x="239.501953125" xlink:href="#BitstreamVeraSans-Roman-20"/>
     <use x="271.2890625" xlink:href="#BitstreamVeraSans-Roman-62"/>
     <use x="334.765625" xlink:href="#BitstreamVeraSans-Roman-61"/>
     <use x="396.044921875" xlink:href="#BitstreamVeraSans-Roman-72"/>
     <use x="434.908203125" xlink:href="#BitstreamVeraSans-Roman-65"/>
     <use x="496.431640625" xlink:href="#BitstreamVeraSans-Roman-20"/>
     <use x="528.21875" xlink:href="#BitstreamVeraSans-Roman-50"/>
     <use x="588.521484375" xlink:href="#BitstreamVeraSans-Roman-45"/>
     <use x="651.705078125" xlink:href="#BitstreamVeraSans-Roman-54"/>
     <use x="712.7890625" xlink:href="#BitstreamVeraSans-Roman-20"/>
     <use x="744.576171875" xlink:href="#BitstreamVeraSans-Roman-61"/>
     <use x="805.85546875" xlink:href="#BitstreamVeraSans-Roman-74"/>
     <use x="845.064453125" xlink:href="#BitstreamVeraSans-Roman-20"/>
     <use x="876.8515625" xlink:href="#BitstreamVeraSans-Roman-42"/>
     <use x="945.455078125" xlink:href="#BitstreamVeraSans-Roman-52"/>
     <use x="1010.9375" xlink:href="#BitstreamVeraSans-Roman-57"/>
     <use x="1109.81445312" xlink:href="#BitstreamVeraSans-Roman-74"/>
     <use x="1149.0234375" xlink:href="#BitstreamVeraSans-Roman-65"/>
     <use x="1210.546875" xlink:href="#BitstreamVeraSans-Roman-6d"/>
     <use x="1307.95898438" xlink:href="#BitstreamVeraSans-Roman-70"/>
    </g>
   </g>
   <g id="legend_1">
    <g id="patch_7">
     <path d="
M411.281 98.0712
L497.906 98.0712
L497.906 30.3417
L411.281 30.3417
z
" style="fill:#ffffff;stroke:#000000;stroke-linejoin:miter;"/>
    </g>
    <g id="line2d_30">
     <path d="
M421.361 42.0035
L441.521 42.0035" style="fill:none;stroke:#0000ff;stroke-linecap:square;"/>
    </g>
    <g id="line2d_31"/>
    <g id="text_17">
     <!-- 2012 -->
     <g transform="translate(457.36125 47.0435)scale(0.144 -0.144)">
      <use xlink:href="#BitstreamVeraSans-Roman-32"/>
      <use x="63.623046875" xlink:href="#BitstreamVeraSans-Roman-30"/>
      <use x="127.24609375" xlink:href="#BitstreamVeraSans-Roman-31"/>
      <use x="190.869140625" xlink:href="#BitstreamVeraSans-Roman-32"/>
     </g>
    </g>
    <g id="line2d_32">
     <path d="
M421.361 63.14
L441.521 63.14" style="fill:none;stroke:#008000;stroke-linecap:square;"/>
    </g>
    <g id="line2d_33"/>
    <g id="text_18">
     <!-- 2013 -->
     <g transform="translate(457.36125 68.18)scale(0.144 -0.144)">
      <use xlink:href="#BitstreamVeraSans-Roman-32"/>
      <use x="63.623046875" xlink:href="#BitstreamVeraSans-Roman-30"/>
      <use x="127.24609375" xlink:href="#BitstreamVeraSans-Roman-31"/>
      <use x="190.869140625" xlink:href="#BitstreamVeraSans-Roman-33"/>
     </g>
    </g>
    <g id="line2d_34">
     <path d="
M421.361 84.2765
L441.521 84.2765" style="fill:none;stroke:#ff0000;stroke-linecap:square;"/>
    </g>
    <g id="line2d_35"/>
    <g id="text_19">
     <!-- 2014 -->
     <defs>
      <path d="
M37.7969 64.3125
L12.8906 25.3906
L37.7969 25.3906
z

M35.2031 72.9062
L47.6094 72.9062
L47.6094 25.3906
L58.0156 25.3906
L58.0156 17.1875
L47.6094 17.1875
L47.6094 0
L37.7969 0
L37.7969 17.1875
L4.89062 17.1875
L4.89062 26.7031
z
" id="BitstreamVeraSans-Roman-34"/>
     </defs>
     <g transform="translate(457.36125 89.3165)scale(0.144 -0.144)">
      <use xlink:href="#BitstreamVeraSans-Roman-32"/>
      <use x="63.623046875" xlink:href="#BitstreamVeraSans-Roman-30"/>
      <use x="127.24609375" xlink:href="#BitstreamVeraSans-Roman-31"/>
      <use x="190.869140625" xlink:href="#BitstreamVeraSans-Roman-34"/>
     </g>
    </g>
   </g>
  </g>
 </g>
 <defs>
  <clipPath id="p550dbe29e8">
   <rect height="345.6" width="446.4" x="58.70625" y="23.14175"/>
  </clipPath>
 </defs>
</svg>
