<?xml version="1.0" encoding="utf-8" standalone="no"?>
<!DOCTYPE svg PUBLIC "-//W3C//DTD SVG 1.1//EN"
  "http://www.w3.org/Graphics/SVG/1.1/DTD/svg11.dtd">
<!-- Created with matplotlib (http://matplotlib.org/) -->
<svg height="408pt" version="1.1" viewBox="0 0 512 408" width="512pt" xmlns="http://www.w3.org/2000/svg" xmlns:xlink="http://www.w3.org/1999/xlink">
 <defs>
  <style type="text/css">
*{stroke-linecap:butt;stroke-linejoin:round;}
  </style>
 </defs>
 <g id="figure_1">
  <g id="patch_1">
   <path d="
M0 408.169
L512.306 408.169
L512.306 0
L0 0
z
" style="fill:#ffffff;"/>
  </g>
  <g id="axes_1">
   <g id="patch_2">
    <path d="
M58.7063 368.742
L505.106 368.742
L505.106 23.1417
L58.7063 23.1417
z
" style="fill:#ffffff;"/>
   </g>
   <g id="line2d_1">
    <path clip-path="url(#p550dbe29e8)" d="
M58.7063 186.574
L59.9293 153.862
L61.1523 188.791
L62.3753 170.239
L63.5983 116.318
L66.0443 291.285
L67.2673 200.903
L68.4904 190.943
L69.7134 190.568
L70.9364 214.969
L72.1594 196.63
L73.3824 186.454
L74.6054 186.827
L75.8284 193.401
L77.0515 270.658
L78.2745 249.155
L79.4975 249.258
M90.5046 221.226
L91.7276 245.479
L92.9506 187.203
L94.1736 213.779
L95.3967 197.124
L96.6197 215.32
L97.8427 202.66
L99.0657 200.345
L100.289 199.112
L101.512 195.861
L102.735 197.527
L103.958 203.379
L105.181 205.502
L106.404 195.859
L107.627 192.354
L108.85 195.937
L110.073 210.75
L111.296 193.998
L112.519 217.195
L113.742 206.484
L114.965 204.375
L116.188 198.919
L117.411 216.374
L118.634 219.659
L119.857 208.71
L121.08 12.4015
L121.684 409.169
M123.201 409.169
L123.526 261.622
L124.749 194.552
L125.972 345.118
L127.195 205.647
L128.418 201.014
L129.641 214.987
L130.734 409.169
M132.123 409.169
L133.31 284.516
L134.533 219.272
L135.756 185.427
L136.979 177.219
L138.202 396.305
L139.425 219.832
L141.871 150.352
L143.094 178.788
L144.317 168.993
L145.54 189.644
L146.763 173.314
L147.986 197.598
L149.209 190.306
L150.432 187.78
L151.655 200.519
L152.878 209.08
L154.101 237.875
L155.324 200.725
L156.547 182.318
L157.77 171.256
L158.993 174.169
L160.216 150.511
L161.439 158.537
L162.662 195.825
L163.885 185.792
L165.108 182.1
L166.331 197.241
L167.554 170.648
L168.777 32.405
L170 313.853
L171.224 197.506
L172.447 158.627
L173.67 157.935
L174.893 219.132
L176.116 398.368
L177.339 186.346
L178.562 161.365
L179.785 153.783
L181.008 125.209
L182.231 151.864
L183.454 181.736
L184.677 186.243
L185.9 166.265
L188.346 192.267
L189.569 168.766
L190.792 188.283
L192.015 182.901
L193.238 139.668
L194.461 163.794
L195.684 138.223
L196.907 139.536
L198.13 164.806
L199.353 143.587
L200.576 96.3766
L201.799 217.205
L204.245 160.595
L205.468 132.693
L206.691 177.514
L207.914 182.151
L209.137 178.91
L210.36 173.419
L211.583 214.09
L212.806 181.051
L214.029 177.834
L215.252 172.762
L216.475 127.597
L217.698 136.233
L218.921 162.908
L220.144 144.29
L221.367 169.61
L222.59 149.634
L223.813 161.418
L225.036 103.835
L226.259 88.9645
L227.482 108.9
L228.705 166.612
L229.928 163.116
L231.151 111.906
L232.374 1.5736
L233.597 162.23
L234.82 180.499
L236.043 189.343
L237.266 187.041
L238.489 152.658
L239.712 178.77
L240.935 142.984
L242.158 118.728
L243.381 113.934
L244.604 141.412
L245.827 116.254
L247.05 154.761
L248.002 -1
M248.505 -1
L249.496 189.356
L250.719 185.371
L251.942 146.479
L253.165 165.742
L254.388 180.355
L255.611 164.802
L256.834 161.695
L258.057 159.714
L259.28 81.5196
L260.504 149.931
L261.727 104.793
L262.95 158.223
L264.173 7.28281
L265.396 77.6055
L266.619 169.893
L267.842 164.769
L269.065 107.292
L270.288 75.4498
L271.511 132.65
L272.734 102.98
L273.957 155.7
L275.18 40.5775
L276.403 173.68
L277.626 133.351
L278.849 127.855
L280.072 148.87
L281.295 90.0658
L282.518 158.453
L283.741 60.8236
L284.964 163.958
L286.187 148.321
L287.41 146.588
L288.633 142.449
L289.856 112.707
L291.079 114.202
L292.302 148.892
L293.525 144.662
L294.748 146.641
L295.971 134.698
L297.194 128.391
L298.417 160.149
L299.64 139.788
L300.863 122.279
L302.086 137.173
L303.309 135.229
L304.532 135.434
L305.755 112.511
L306.978 142.249
L308.201 132.692
L309.424 151.889
L310.647 160.461
L311.87 130.404
L313.093 132.002
L314.316 121.003
L315.539 159.773
L316.762 133.972
L317.985 131.626
L319.208 120.664
L320.431 87.987
L321.654 119.997
L322.877 139.735
L324.1 143.702
L325.323 154.384
L326.546 139.366
L327.769 149.712
L328.992 154.421
L330.215 147.548
L331.438 139.993
L332.661 165.245
L333.884 152.118
L335.107 133.704
L336.33 123.11
L337.553 109.751
L338.776 49.9436
L339.999 92.1058
L341.222 109.212
L342.445 148.999
L343.668 120.509
L344.891 142.164
L346.114 142.438
L347.337 129.047
L348.56 163.674
L349.784 124.831
L351.007 145.522
L352.23 135.321
L353.453 116.225
L354.676 167.754
L355.899 136.734
M360.791 131.313
L362.014 150.353
L363.237 143.088
L364.46 161.7
L366.906 125.178
L368.129 97.099
L369.352 131.482
L370.575 141.878
L371.798 153.331
L373.021 137.385
L374.244 140.35
L375.467 134.831
L376.69 163.142
L377.913 139.549
L379.136 28.4929
L380.359 148.23
L381.582 163.994
L382.805 135.961
L384.028 142.939
L385.251 167.819
L386.474 144.17
L387.697 163.233
L388.92 168.234
L390.143 152.549
L391.366 162.922
L392.589 135.629
L393.812 152.73
M397.481 169.179
L398.704 184.17
L399.927 186.002
L401.15 175.72
L402.373 167.875
L403.596 170.504
L404.819 175.688
L406.042 176.957
L407.265 159.402
L408.488 136.16
L409.711 170.935
L410.934 116.857
L411.363 -1
M412.841 -1
L413.38 171.538
L414.603 170.438
L415.826 150.405
L417.049 44.781
L418.272 190.493
L419.495 193.997
L420.718 214.912
L421.941 204.691
L423.164 206.85
L424.387 203.554
L425.61 184.423
L426.833 38.2654
L428.056 136.949
L429.279 172.53
L430.502 157.212
L431.725 173.056
L432.948 187.14
L434.171 181.688
L435.394 170.778
L436.617 153.237
L437.84 159.859
L439.064 149.994
L440.287 171.312
L441.51 218.273
L442.733 220.396
L443.956 219.125
L445.179 207.633
L446.402 200.218
L447.625 198.907
L448.848 189.801
L450.071 192.046
L451.294 185.987
L452.517 191.452
L453.74 194.619
L454.963 182.982
L456.186 100.511
L457.409 200.76
L458.632 176.046
L459.855 180.408
L461.078 198.258
L462.301 210.405
L463.524 187.486
L464.747 176.464
L465.97 189.489
L467.193 187.518
L468.416 189.583
L469.639 130.68
L470.862 199.172
L472.085 187.095
L473.308 151.457
L474.531 218.7
L475.754 257.107
L478.2 208.894
M480.646 199.336
L481.869 400.947
L483.092 198.196
L484.315 202.339
M486.761 207.714
L487.984 344.447
L489.207 249.194
L490.43 227.74
L491.653 218.883
L492.876 204.017
L494.099 207.533
L495.322 216.139
L495.813 409.169
M501.437 203.97
L502.66 211.18
L503.883 210.825
L503.883 210.825" style="fill:none;stroke:#0000ff;stroke-linecap:square;"/>
   </g>
   <g id="line2d_2">
    <path clip-path="url(#p550dbe29e8)" d="
M58.7063 223.071
L59.9293 208.52
L61.1523 204.877
L62.3753 199.265
L63.5983 206.711
L64.8213 205.77
L66.0443 223.576
M68.4904 197.639
L69.7134 322.246
M72.1594 213.349
L73.3824 210.536
L74.6054 225.255
L75.8284 213.869
L77.0515 205.454
L78.2745 192.772
L79.4975 193.708
L80.7205 192.49
L81.9435 176.953
L83.1665 188.142
L84.3895 172.407
L85.6126 163.778
L86.8356 196.704
L88.0586 197.933
L89.2816 203.1
L90.5046 261.953
L91.7276 205.581
M95.3967 197.526
L96.6197 197.62
L97.8427 198.235
L99.0657 206.15
L100.289 187.929
L101.512 191.402
L102.735 208.744
L103.958 209.65
L105.181 202.995
L106.404 335.884
L107.627 216.011
L108.85 214.873
L110.073 280.735
L111.296 269.099
L112.519 278.518
L113.742 188.847
L114.965 187.67
L116.188 239.396
L117.411 207.604
L118.634 209.488
L119.857 347.835
L121.08 343.265
L122.303 244.856
L123.526 309.904
L124.749 244.613
L125.972 229.269
L127.195 312.099
L128.418 200.138
L129.641 200.361
L130.864 193.801
L132.087 179.99
L133.31 108.688
L134.533 207.423
L135.756 188.274
L136.979 183.231
L138.202 196.827
L139.425 200.972
L140.648 196.553
L141.871 175.546
L143.094 202.291
L144.317 184.886
L145.54 175.515
L146.763 165.255
L147.986 141.298
L149.209 181.01
L150.052 409.169
M150.882 409.169
L151.655 232.06
L152.878 187.139
L154.101 176.595
L155.324 396.255
L156.547 347.503
L157.77 223.164
L158.993 200.075
L160.216 189.661
L161.439 194.959
L162.662 189.199
L163.885 181.845
L165.108 180.973
L166.331 177.345
L167.554 177.017
L168.777 131.378
L170 94.7142
L171.224 176.765
L172.447 163.662
L173.67 161.139
L174.893 188.586
L176.116 211.82
L177.339 205.147
L178.562 144.262
L179.785 114.503
L181.008 170.375
L182.231 182.856
L183.454 6.01487
L184.677 215.388
L185.9 210.947
L187.123 200.551
L188.346 199.054
L189.569 185.848
L190.792 193.647
L192.015 200.246
L193.238 157.298
L194.461 197.369
L195.684 190.253
L196.907 185.237
L198.13 164.401
L199.353 148.24
L200.576 153.172
L201.799 99.3944
L202.553 -1
M203.287 -1
L204.245 224.923
L205.468 181.574
L206.691 176.602
L207.914 135.341
L209.137 175.819
L210.36 163.302
L211.583 169.643
L212.806 173.99
L214.029 163.887
L215.252 140.187
L216.475 154.405
L217.698 161.893
L218.921 139.412
L220.144 21.9766
L221.367 131.435
L222.59 156.844
L223.813 167.601
L225.036 185.795
L226.259 148.496
L227.482 135.28
L228.705 169.753
L229.928 66.2817
L231.151 113.343
L232.374 166.177
L233.597 163.446
L234.82 146.135
L236.043 162.973
L237.266 175.739
L238.489 173.854
L239.712 171.286
L240.935 159.207
L242.158 132.684
L243.381 165.156
L244.604 121.761
L245.827 123.142
L247.05 136.505
L248.273 144.55
L249.496 150.265
L250.719 78.3298
L251.942 45.8647
L253.165 138.228
L254.388 119.002
L255.611 95.4215
L256.834 147.23
L258.057 107.774
L259.28 164.57
L260.504 164.103
L261.727 163.482
L262.95 140.98
L264.15 -1
M264.203 -1
L265.396 101.404
L266.619 181.416
L267.842 164.984
L269.065 160.314
L270.288 154.879
L271.511 157.321
L272.734 174.709
L273.957 147.421
L275.18 154.098
L276.403 156.495
L277.626 138.363
L278.849 149.576
L280.072 126.567
L281.295 110.014
L282.518 58.2019
L283.741 103.015
L284.964 132.499
L286.187 157.478
L287.41 157.142
L288.633 136.503
L289.856 156.779
L291.079 149.391
L292.302 125.628
L293.525 126.521
L294.748 127.677
L295.971 158.433
L297.194 151.263
L298.417 126.723
L299.64 108.537
L300.863 151.471
L302.086 148.555
L303.309 124.432
L304.532 145.689
L305.755 110.011
L306.978 146.939
L308.201 116.577
L309.424 120.319
L310.647 153.581
L311.87 95.6318
L313.093 141.078
L314.316 145.378
L315.539 152.799
L316.762 146.253
L317.985 90.3802
L319.208 152.541
L320.431 158.637
L321.654 148.952
L322.877 149.443
L324.1 128.666
L325.323 123.105
L326.546 121.892
L327.769 144.091
L328.992 135.839
L330.215 142.133
L331.438 132.138
L332.661 144.971
L333.884 146.715
L335.107 151.776
L336.33 122.769
L337.553 147.382
L338.776 132.579
L339.999 139.902
L341.222 144.191
L342.445 153.455
L343.668 140.846
L344.891 152.77
L346.114 147.239
L347.337 118.818
L348.56 157.529
L349.784 134.836
L351.007 146.285
L352.23 136.059
L353.453 77.6395
L354.676 159.792
L355.899 155.334
L357.122 136.7
L358.345 149.332
L359.568 136.903
L360.791 133.019
L362.014 116.219
L363.237 146.36
L364.46 133.504
L365.683 136.431
L366.906 151.785
L368.129 149.164
L369.352 160.219
L370.575 164.965
L371.798 161.106
L373.021 128.314
L374.244 156.109
L375.467 151.715
L376.69 163.494
L377.913 170.127
L379.136 105.205
L380.359 105.88
L381.582 82.8446
L382.805 99.2599
L384.028 156.391
L385.251 195.226
L386.474 192.029
L387.697 180.58
L388.92 172.156
L390.143 145.583
L391.366 34.6012
L392.589 182.409
L393.812 184.766
L395.035 192.661
L396.258 179.531
L397.481 182.492
L398.704 148.842
L399.927 159.492
L401.15 189.376
L402.373 184.929
L403.596 174.704
L404.819 189.593
L406.042 184.889
L407.265 181.556
L408.488 187.447
L409.711 187.257
L410.934 177.96
L412.157 173.873
L413.38 183.459
L414.603 146.346
L415.826 124.816
L417.049 175.718
L418.272 180.952
L419.495 182.278
L420.718 176.844
L421.941 179.012
L423.164 177.881
L424.387 170.495
L425.61 187.513
L428.056 204.963
L429.279 188.447
L430.502 189.157
L431.725 177.163
M434.171 221.059
L435.394 201.255
L436.617 194.358
L437.84 168.267
L439.064 197.105
L440.287 187.659
L441.51 169.193
L442.733 173.111
L443.956 156.4
L445.179 169.646
L446.402 186.298
L447.625 217.686
L448.848 264.968
L450.071 202.135
L451.294 189.144
L452.517 187.999
L453.74 197.004
L454.963 197.592
L456.186 195.964
L459.855 174.682
L461.078 172.609
L462.301 173.31
L463.524 187.009
L464.747 189.351
L465.97 196.706
L466.512 -1
M469.526 -1
L469.639 228.591
L470.862 207.167
L472.085 207.842
L473.308 222.012
L474.531 216.897
L475.754 281.747
L476.977 262.983
L478.2 210.763
L479.423 205.039
L480.646 201.247
L481.869 211.648
L483.092 201.951
L484.315 176.227
L485.538 187.256
L486.761 180.074
L487.984 186.874
L489.207 222.838
L490.43 296.612
L491.653 237.147
L492.876 210.728
L494.099 267.875
L495.322 209.103
L496.545 186.922
L497.768 186.984
L498.991 176.07
L500.214 204.726
L501.437 225.465
L502.66 189.227
L503.883 209.972
L503.883 209.972" style="fill:none;stroke:#008000;stroke-linecap:square;"/>
   </g>
   <g id="line2d_3">
    <path clip-path="url(#p550dbe29e8)" d="
M58.7063 196.494
L59.9293 193.645
L61.1523 161.838
L62.3753 361.275
L63.5983 285.992
L64.8213 191.012
L66.0443 205.34
L67.2673 207.128
M70.9364 211.48
L71.3339 409.169
M74.6054 192.785
L75.8284 171.88
L77.0515 184.185
L78.2745 170.882
L79.4975 181.754
L80.7205 177.389
L81.9435 183.37
L83.1665 182.35
L84.3895 193.444
L85.6126 193.869
L86.8356 184.199
L88.0586 170.748
L89.2816 172.163
L90.5046 191.84
L91.7276 196.841
L92.9506 155.896
L94.1736 263.657
L95.3967 221.379
L96.6197 232.715
L97.8427 203.442
L99.0657 214.998
L100.289 222.877
L101.512 206.637
L102.735 254.994
L103.958 240.163
L105.181 234.462
L106.404 197.484
L107.627 201.289
L108.85 234.368
L110.073 149.929
L111.296 174.399
L112.519 182.445
L113.742 166.373
L114.965 156.267
L116.188 176.813
L117.411 184.212
L118.634 179.712
L119.857 266.146
L121.08 240.067
L122.303 259.885
L123.526 190.335
L124.749 179.325
L125.972 179.058
L127.195 182.763
L128.418 173.002
L129.641 196.573
L130.864 205.808
L132.087 198.592
L133.31 203.159
L134.533 193.092
L135.756 190.82
L136.871 -1
M137.083 -1
L138.202 198.008
L139.425 184.138
L140.648 177.092
L141.871 176.134
L143.094 194.928
L144.317 192.309
L145.54 179.946
L146.763 179.335
L147.986 179.704
L149.209 150.091
L149.711 -1
M151.057 -1
L151.655 207.012
L152.878 192.129
L154.101 168.519
L155.324 199.03
L156.547 191.838
L157.77 186.652
L158.993 183.203
L160.216 155.967
L161.439 197.038
L162.662 305.509
L163.885 197.36
L165.108 198.787
L166.331 201.009
L167.554 197.788
L168.777 202.482
L170 203.06
L171.224 194.977
L172.447 193.8
L173.67 197.223
L174.893 152.268
L176.116 172.549
L177.339 176.459
L178.562 131.021
L179.785 164.525
L181.008 172.874
L182.231 154.818
L183.454 153.996
L184.677 182.263
L185.9 131.531
L187.123 180.894
L188.346 156.071
L189.569 172.223
L190.792 155.268
L192.015 172.495
L193.238 160.152
L194.461 176.838
L195.684 196.507
L196.907 181.134
L198.13 196.132
L199.353 310.971
L200.576 204.201
L201.799 195.95
L203.022 171.449
L204.245 177.548
L205.468 156.541
L206.691 164.158
L207.914 121.306
L209.137 136.163
L210.36 168.324
L211.583 149.887
L212.806 151.661
L214.029 166.743
L215.252 53.1324
L216.475 186.59
L217.698 112.112
L218.921 140.588
L220.144 111.701
L221.367 117.764
L222.59 111.915
L223.813 138.794
L225.036 132.908
L226.259 138.966
L227.482 156.702
L228.705 127.585
L229.928 108.073
L231.151 114.299
L232.374 106.925
L233.597 115.909
L234.82 142.294
L236.043 115.076
L237.266 118.174
L238.489 118.607
L239.712 145.15
L240.935 123.578
L242.158 109.762
L243.381 101.645
L244.348 -1
M245.099 -1
L245.827 39.148
L247.05 138.112
L248.273 145.84
L249.496 143.4
L250.719 143.379
L251.942 146.415
L253.165 142.688
L254.388 117.641
L255.611 162.522
L256.834 97.9959
L259.28 170.407
L260.504 172.166
L261.727 160.566
L262.95 182.945
L264.173 181.458
L265.396 165.917
L266.619 154.128
L267.842 151.599
L269.065 154.278
L270.288 158.8
L271.511 147.23
L272.734 160.854
L273.957 132.365
L275.18 137.764
L276.403 162.232
L277.626 147.449
L278.849 157.232
L280.072 143.889
L281.295 128.488
L282.518 150.927
L283.741 154.144
L284.964 131.701
L286.187 149.176
L287.41 111.965
L288.633 125.374
L291.079 141.788
L292.302 144.968
L293.525 118.015
L294.748 150.854
L295.971 115.05
L297.194 106.959
L298.417 138.019
L299.64 145.331
L300.863 120.502
L302.086 125.063
L303.309 138.46
L304.532 158.027
L305.755 159.688
L306.978 113.385
L308.201 118.611
L309.424 142.304
L310.647 157.998
L311.87 148.792
L313.093 146.365
L314.316 137.19
L315.539 151.079
L316.762 142.626
L317.985 151.796
L319.208 153.933
L320.431 143.181
L321.654 148.367
L322.877 140.559
L324.1 147.12
L325.323 159.982
L326.546 163.464
L327.769 148.558
L328.992 157.804
L330.215 138.147
L331.438 137.983
L332.661 156.477
L333.884 167.229
L335.107 162.58
L336.33 147.877
L337.553 158.777
L338.776 152.509
L339.999 141.274
L341.222 153.132
L342.445 157.874
L343.668 165.46
L344.891 164.88
L346.114 168.938
L347.337 175.486
L348.56 162.497
L349.784 160.52
L351.007 159.055
L352.23 152.004
L353.453 128.2
L354.676 166.237
L355.899 162.603
L357.122 154.168
L358.345 106.093
L359.568 174.28
L360.791 170.04
L362.014 159.006
L363.237 154.667
L364.46 156.654
L365.683 90.5388
L366.906 151.665
L368.129 169.458
L369.352 157.37
L370.575 165.84
L371.798 168.368
L373.021 162.082
L374.244 156.88
L375.467 150.291
L376.69 142.034
L377.913 136.286
L379.136 163.447
L380.359 143.571
L381.582 170.626
L382.805 151.59
L384.028 137.537
L385.251 21.0546
L386.474 172.716
L388.92 180.993
L390.143 182.327
L391.366 150.94
L392.589 170.509
L393.812 153.98
L395.035 177.918
L396.258 156.604
L397.481 152.226
L398.704 149.809
L399.927 157.908
L401.15 153.108
L402.373 172.696
L403.596 149.793
L404.819 147.651
L406.042 175.159
L407.265 169.659
L408.488 151.798
L409.711 117.72
L410.934 183.554
L412.157 151.95
L413.38 169.997
L414.603 150.248
L415.826 150.52
L417.049 157.18
L418.272 181.03
L419.495 179.434
L420.718 171.603
L421.941 96.7516
L422.246 -1
M423.897 -1
L424.387 196.857
L425.61 181.187
L426.833 172.951
L428.056 142.11
L429.279 167.656
L430.502 168.347
L431.725 207.234
L432.948 196.922
L434.171 192.941
L435.394 186.367
L436.617 145.643
L437.84 164.133
L439.064 171.656
L440.287 22.5313
L441.51 247.369
L442.733 205.256
L443.956 208.703
L445.179 247.551
L445.193 409.169
M447.606 409.169
L447.625 201.192
L448.848 210.39
L450.071 201.38
L451.294 190.448
L452.517 190.24
L453.74 189.485
L454.963 197.662
L456.186 176.089
M458.632 219.423
L458.969 -1
M460.847 -1
L461.078 133.457
L462.301 162.296
L463.524 164.209
L464.747 38.8617
L465.97 213.513
L467.193 206.659
L468.416 197.375
L469.639 198.002
L472.085 187.8
L473.308 191.928
L474.531 188.99
L475.754 188.91
L476.977 184.762
L478.2 164.64
L479.423 158.272
L480.646 160.834
M483.092 196.897
L484.315 214.033
L485.538 208.48
L486.761 200.181
L487.984 201.195
L489.207 234.112
L490.43 250.072
L490.621 -1
M494.099 203.057
L495.322 226.893
L495.423 409.169
M497.689 409.169
L497.768 268.181
L498.991 223.428
L500.214 406.291
M502.66 198.926
L503.883 203.161
L503.883 203.161" style="fill:none;stroke:#ff0000;stroke-linecap:square;"/>
   </g>
   <g id="patch_3">
    <path d="
M58.7063 23.1417
L505.106 23.1417" style="fill:none;stroke:#000000;stroke-linecap:square;stroke-linejoin:miter;"/>
   </g>
   <g id="patch_4">
    <path d="
M505.106 368.742
L505.106 23.1417" style="fill:none;stroke:#000000;stroke-linecap:square;stroke-linejoin:miter;"/>
   </g>
   <g id="patch_5">
    <path d="
M58.7063 368.742
L505.106 368.742" style="fill:none;stroke:#000000;stroke-linecap:square;stroke-linejoin:miter;"/>
   </g>
   <g id="patch_6">
    <path d="
M58.7063 368.742
L58.7063 23.1417" style="fill:none;stroke:#000000;stroke-linecap:square;stroke-linejoin:miter;"/>
   </g>
   <g id="matplotlib.axis_1">
    <g id="xtick_1">
     <g id="line2d_4">
      <defs>
       <path d="
M0 0
L0 -4" id="m93b0483c22" style="stroke:#000000;stroke-width:0.5;"/>
      </defs>
      <g>
       <use style="stroke:#000000;stroke-width:0.5;" x="58.70625" xlink:href="#m93b0483c22" y="368.74175"/>
      </g>
     </g>
     <g id="line2d_5">
      <defs>
       <path d="
M0 0
L0 4" id="m741efc42ff" style="stroke:#000000;stroke-width:0.5;"/>
      </defs>
      <g>
       <use style="stroke:#000000;stroke-width:0.5;" x="58.70625" xlink:href="#m741efc42ff" y="23.14175"/>
      </g>
     </g>
     <g id="text_1">
      <!-- 0 -->
      <defs>
       <path d="
M31.7812 66.4062
Q24.1719 66.4062 20.3281 58.9062
Q16.5 51.4219 16.5 36.375
Q16.5 21.3906 20.3281 13.8906
Q24.1719 6.39062 31.7812 6.39062
Q39.4531 6.39062 43.2812 13.8906
Q47.125 21.3906 47.125 36.375
Q47.125 51.4219 43.2812 58.9062
Q39.4531 66.4062 31.7812 66.4062
M31.7812 74.2188
Q44.0469 74.2188 50.5156 64.5156
Q56.9844 54.8281 56.9844 36.375
Q56.9844 17.9688 50.5156 8.26562
Q44.0469 -1.42188 31.7812 -1.42188
Q19.5312 -1.42188 13.0625 8.26562
Q6.59375 17.9688 6.59375 36.375
Q6.59375 54.8281 13.0625 64.5156
Q19.5312 74.2188 31.7812 74.2188" id="BitstreamVeraSans-Roman-30"/>
      </defs>
      <g transform="translate(55.6828125 381.859875)scale(0.12 -0.12)">
       <use xlink:href="#BitstreamVeraSans-Roman-30"/>
      </g>
     </g>
    </g>
    <g id="xtick_2">
     <g id="line2d_6">
      <g>
       <use style="stroke:#000000;stroke-width:0.5;" x="119.856934932" xlink:href="#m93b0483c22" y="368.74175"/>
      </g>
     </g>
     <g id="line2d_7">
      <g>
       <use style="stroke:#000000;stroke-width:0.5;" x="119.856934932" xlink:href="#m741efc42ff" y="23.14175"/>
      </g>
     </g>
     <g id="text_2">
      <!-- 50 -->
      <defs>
       <path d="
M10.7969 72.9062
L49.5156 72.9062
L49.5156 64.5938
L19.8281 64.5938
L19.8281 46.7344
Q21.9688 47.4688 24.1094 47.8281
Q26.2656 48.1875 28.4219 48.1875
Q40.625 48.1875 47.75 41.5
Q54.8906 34.8125 54.8906 23.3906
Q54.8906 11.625 47.5625 5.09375
Q40.2344 -1.42188 26.9062 -1.42188
Q22.3125 -1.42188 17.5469 -0.640625
Q12.7969 0.140625 7.71875 1.70312
L7.71875 11.625
Q12.1094 9.23438 16.7969 8.0625
Q21.4844 6.89062 26.7031 6.89062
Q35.1562 6.89062 40.0781 11.3281
Q45.0156 15.7656 45.0156 23.3906
Q45.0156 31 40.0781 35.4375
Q35.1562 39.8906 26.7031 39.8906
Q22.75 39.8906 18.8125 39.0156
Q14.8906 38.1406 10.7969 36.2812
z
" id="BitstreamVeraSans-Roman-35"/>
      </defs>
      <g transform="translate(113.083497432 381.859875)scale(0.12 -0.12)">
       <use xlink:href="#BitstreamVeraSans-Roman-35"/>
       <use x="63.623046875" xlink:href="#BitstreamVeraSans-Roman-30"/>
      </g>
     </g>
    </g>
    <g id="xtick_3">
     <g id="line2d_8">
      <g>
       <use style="stroke:#000000;stroke-width:0.5;" x="181.007619863" xlink:href="#m93b0483c22" y="368.74175"/>
      </g>
     </g>
     <g id="line2d_9">
      <g>
       <use style="stroke:#000000;stroke-width:0.5;" x="181.007619863" xlink:href="#m741efc42ff" y="23.14175"/>
      </g>
     </g>
     <g id="text_3">
      <!-- 100 -->
      <defs>
       <path d="
M12.4062 8.29688
L28.5156 8.29688
L28.5156 63.9219
L10.9844 60.4062
L10.9844 69.3906
L28.4219 72.9062
L38.2812 72.9062
L38.2812 8.29688
L54.3906 8.29688
L54.3906 0
L12.4062 0
z
" id="BitstreamVeraSans-Roman-31"/>
      </defs>
      <g transform="translate(170.612619863 381.859875)scale(0.12 -0.12)">
       <use xlink:href="#BitstreamVeraSans-Roman-31"/>
       <use x="63.623046875" xlink:href="#BitstreamVeraSans-Roman-30"/>
       <use x="127.24609375" xlink:href="#BitstreamVeraSans-Roman-30"/>
      </g>
     </g>
    </g>
    <g id="xtick_4">
     <g id="line2d_10">
      <g>
       <use style="stroke:#000000;stroke-width:0.5;" x="242.158304795" xlink:href="#m93b0483c22" y="368.74175"/>
      </g>
     </g>
     <g id="line2d_11">
      <g>
       <use style="stroke:#000000;stroke-width:0.5;" x="242.158304795" xlink:href="#m741efc42ff" y="23.14175"/>
      </g>
     </g>
     <g id="text_4">
      <!-- 150 -->
      <g transform="translate(231.763304795 381.859875)scale(0.12 -0.12)">
       <use xlink:href="#BitstreamVeraSans-Roman-31"/>
       <use x="63.623046875" xlink:href="#BitstreamVeraSans-Roman-35"/>
       <use x="127.24609375" xlink:href="#BitstreamVeraSans-Roman-30"/>
      </g>
     </g>
    </g>
    <g id="xtick_5">
     <g id="line2d_12">
      <g>
       <use style="stroke:#000000;stroke-width:0.5;" x="303.308989726" xlink:href="#m93b0483c22" y="368.74175"/>
      </g>
     </g>
     <g id="line2d_13">
      <g>
       <use style="stroke:#000000;stroke-width:0.5;" x="303.308989726" xlink:href="#m741efc42ff" y="23.14175"/>
      </g>
     </g>
     <g id="text_5">
      <!-- 200 -->
      <defs>
       <path d="
M19.1875 8.29688
L53.6094 8.29688
L53.6094 0
L7.32812 0
L7.32812 8.29688
Q12.9375 14.1094 22.625 23.8906
Q32.3281 33.6875 34.8125 36.5312
Q39.5469 41.8438 41.4219 45.5312
Q43.3125 49.2188 43.3125 52.7812
Q43.3125 58.5938 39.2344 62.25
Q35.1562 65.9219 28.6094 65.9219
Q23.9688 65.9219 18.8125 64.3125
Q13.6719 62.7031 7.8125 59.4219
L7.8125 69.3906
Q13.7656 71.7812 18.9375 73
Q24.125 74.2188 28.4219 74.2188
Q39.75 74.2188 46.4844 68.5469
Q53.2188 62.8906 53.2188 53.4219
Q53.2188 48.9219 51.5312 44.8906
Q49.8594 40.875 45.4062 35.4062
Q44.1875 33.9844 37.6406 27.2188
Q31.1094 20.4531 19.1875 8.29688" id="BitstreamVeraSans-Roman-32"/>
      </defs>
      <g transform="translate(292.694614726 381.859875)scale(0.12 -0.12)">
       <use xlink:href="#BitstreamVeraSans-Roman-32"/>
       <use x="63.623046875" xlink:href="#BitstreamVeraSans-Roman-30"/>
       <use x="127.24609375" xlink:href="#BitstreamVeraSans-Roman-30"/>
      </g>
     </g>
    </g>
    <g id="xtick_6">
     <g id="line2d_14">
      <g>
       <use style="stroke:#000000;stroke-width:0.5;" x="364.459674658" xlink:href="#m93b0483c22" y="368.74175"/>
      </g>
     </g>
     <g id="line2d_15">
      <g>
       <use style="stroke:#000000;stroke-width:0.5;" x="364.459674658" xlink:href="#m741efc42ff" y="23.14175"/>
      </g>
     </g>
     <g id="text_6">
      <!-- 250 -->
      <g transform="translate(353.845299658 381.859875)scale(0.12 -0.12)">
       <use xlink:href="#BitstreamVeraSans-Roman-32"/>
       <use x="63.623046875" xlink:href="#BitstreamVeraSans-Roman-35"/>
       <use x="127.24609375" xlink:href="#BitstreamVeraSans-Roman-30"/>
      </g>
     </g>
    </g>
    <g id="xtick_7">
     <g id="line2d_16">
      <g>
       <use style="stroke:#000000;stroke-width:0.5;" x="425.610359589" xlink:href="#m93b0483c22" y="368.74175"/>
      </g>
     </g>
     <g id="line2d_17">
      <g>
       <use style="stroke:#000000;stroke-width:0.5;" x="425.610359589" xlink:href="#m741efc42ff" y="23.14175"/>
      </g>
     </g>
     <g id="text_7">
      <!-- 300 -->
      <defs>
       <path d="
M40.5781 39.3125
Q47.6562 37.7969 51.625 33
Q55.6094 28.2188 55.6094 21.1875
Q55.6094 10.4062 48.1875 4.48438
Q40.7656 -1.42188 27.0938 -1.42188
Q22.5156 -1.42188 17.6562 -0.515625
Q12.7969 0.390625 7.625 2.20312
L7.625 11.7188
Q11.7188 9.32812 16.5938 8.10938
Q21.4844 6.89062 26.8125 6.89062
Q36.0781 6.89062 40.9375 10.5469
Q45.7969 14.2031 45.7969 21.1875
Q45.7969 27.6406 41.2812 31.2656
Q36.7656 34.9062 28.7188 34.9062
L20.2188 34.9062
L20.2188 43.0156
L29.1094 43.0156
Q36.375 43.0156 40.2344 45.9219
Q44.0938 48.8281 44.0938 54.2969
Q44.0938 59.9062 40.1094 62.9062
Q36.1406 65.9219 28.7188 65.9219
Q24.6562 65.9219 20.0156 65.0312
Q15.375 64.1562 9.8125 62.3125
L9.8125 71.0938
Q15.4375 72.6562 20.3438 73.4375
Q25.25 74.2188 29.5938 74.2188
Q40.8281 74.2188 47.3594 69.1094
Q53.9062 64.0156 53.9062 55.3281
Q53.9062 49.2656 50.4375 45.0938
Q46.9688 40.9219 40.5781 39.3125" id="BitstreamVeraSans-Roman-33"/>
      </defs>
      <g transform="translate(415.013797089 381.859875)scale(0.12 -0.12)">
       <use xlink:href="#BitstreamVeraSans-Roman-33"/>
       <use x="63.623046875" xlink:href="#BitstreamVeraSans-Roman-30"/>
       <use x="127.24609375" xlink:href="#BitstreamVeraSans-Roman-30"/>
      </g>
     </g>
    </g>
    <g id="xtick_8">
     <g id="line2d_18">
      <g>
       <use style="stroke:#000000;stroke-width:0.5;" x="486.761044521" xlink:href="#m93b0483c22" y="368.74175"/>
      </g>
     </g>
     <g id="line2d_19">
      <g>
       <use style="stroke:#000000;stroke-width:0.5;" x="486.761044521" xlink:href="#m741efc42ff" y="23.14175"/>
      </g>
     </g>
     <g id="text_8">
      <!-- 350 -->
      <g transform="translate(476.164482021 381.859875)scale(0.12 -0.12)">
       <use xlink:href="#BitstreamVeraSans-Roman-33"/>
       <use x="63.623046875" xlink:href="#BitstreamVeraSans-Roman-35"/>
       <use x="127.24609375" xlink:href="#BitstreamVeraSans-Roman-30"/>
      </g>
     </g>
    </g>
    <g id="text_9">
     <!-- Julian day -->
     <defs>
      <path id="BitstreamVeraSans-Roman-20"/>
      <path d="
M9.8125 72.9062
L19.6719 72.9062
L19.6719 5.07812
Q19.6719 -8.10938 14.6719 -14.0625
Q9.67188 -20.0156 -1.42188 -20.0156
L-5.17188 -20.0156
L-5.17188 -11.7188
L-2.09375 -11.7188
Q4.4375 -11.7188 7.125 -8.04688
Q9.8125 -4.39062 9.8125 5.07812
z
" id="BitstreamVeraSans-Roman-4a"/>
      <path d="
M54.8906 33.0156
L54.8906 0
L45.9062 0
L45.9062 32.7188
Q45.9062 40.4844 42.875 44.3281
Q39.8438 48.1875 33.7969 48.1875
Q26.5156 48.1875 22.3125 43.5469
Q18.1094 38.9219 18.1094 30.9062
L18.1094 0
L9.07812 0
L9.07812 54.6875
L18.1094 54.6875
L18.1094 46.1875
Q21.3438 51.125 25.7031 53.5625
Q30.0781 56 35.7969 56
Q45.2188 56 50.0469 50.1719
Q54.8906 44.3438 54.8906 33.0156" id="BitstreamVeraSans-Roman-6e"/>
      <path d="
M9.42188 75.9844
L18.4062 75.9844
L18.4062 0
L9.42188 0
z
" id="BitstreamVeraSans-Roman-6c"/>
      <path d="
M9.42188 54.6875
L18.4062 54.6875
L18.4062 0
L9.42188 0
z

M9.42188 75.9844
L18.4062 75.9844
L18.4062 64.5938
L9.42188 64.5938
z
" id="BitstreamVeraSans-Roman-69"/>
      <path d="
M32.1719 -5.07812
Q28.375 -14.8438 24.75 -17.8125
Q21.1406 -20.7969 15.0938 -20.7969
L7.90625 -20.7969
L7.90625 -13.2812
L13.1875 -13.2812
Q16.8906 -13.2812 18.9375 -11.5156
Q21 -9.76562 23.4844 -3.21875
L25.0938 0.875
L2.98438 54.6875
L12.5 54.6875
L29.5938 11.9219
L46.6875 54.6875
L56.2031 54.6875
z
" id="BitstreamVeraSans-Roman-79"/>
      <path d="
M45.4062 46.3906
L45.4062 75.9844
L54.3906 75.9844
L54.3906 0
L45.4062 0
L45.4062 8.20312
Q42.5781 3.32812 38.25 0.953125
Q33.9375 -1.42188 27.875 -1.42188
Q17.9688 -1.42188 11.7344 6.48438
Q5.51562 14.4062 5.51562 27.2969
Q5.51562 40.1875 11.7344 48.0938
Q17.9688 56 27.875 56
Q33.9375 56 38.25 53.625
Q42.5781 51.2656 45.4062 46.3906
M14.7969 27.2969
Q14.7969 17.3906 18.875 11.75
Q22.9531 6.10938 30.0781 6.10938
Q37.2031 6.10938 41.2969 11.75
Q45.4062 17.3906 45.4062 27.2969
Q45.4062 37.2031 41.2969 42.8438
Q37.2031 48.4844 30.0781 48.4844
Q22.9531 48.4844 18.875 42.8438
Q14.7969 37.2031 14.7969 27.2969" id="BitstreamVeraSans-Roman-64"/>
      <path d="
M8.5 21.5781
L8.5 54.6875
L17.4844 54.6875
L17.4844 21.9219
Q17.4844 14.1562 20.5 10.2656
Q23.5312 6.39062 29.5938 6.39062
Q36.8594 6.39062 41.0781 11.0312
Q45.3125 15.6719 45.3125 23.6875
L45.3125 54.6875
L54.2969 54.6875
L54.2969 0
L45.3125 0
L45.3125 8.40625
Q42.0469 3.42188 37.7188 1
Q33.4062 -1.42188 27.6875 -1.42188
Q18.2656 -1.42188 13.375 4.4375
Q8.5 10.2969 8.5 21.5781" id="BitstreamVeraSans-Roman-75"/>
      <path d="
M34.2812 27.4844
Q23.3906 27.4844 19.1875 25
Q14.9844 22.5156 14.9844 16.5
Q14.9844 11.7188 18.1406 8.90625
Q21.2969 6.10938 26.7031 6.10938
Q34.1875 6.10938 38.7031 11.4062
Q43.2188 16.7031 43.2188 25.4844
L43.2188 27.4844
z

M52.2031 31.2031
L52.2031 0
L43.2188 0
L43.2188 8.29688
Q40.1406 3.32812 35.5469 0.953125
Q30.9531 -1.42188 24.3125 -1.42188
Q15.9219 -1.42188 10.9531 3.29688
Q6 8.01562 6 15.9219
Q6 25.1406 12.1719 29.8281
Q18.3594 34.5156 30.6094 34.5156
L43.2188 34.5156
L43.2188 35.4062
Q43.2188 41.6094 39.1406 45
Q35.0625 48.3906 27.6875 48.3906
Q23 48.3906 18.5469 47.2656
Q14.1094 46.1406 10.0156 43.8906
L10.0156 52.2031
Q14.9375 54.1094 19.5781 55.0469
Q24.2188 56 28.6094 56
Q40.4844 56 46.3438 49.8438
Q52.2031 43.7031 52.2031 31.2031" id="BitstreamVeraSans-Roman-61"/>
     </defs>
     <g transform="translate(252.4453125 398.473625)scale(0.12 -0.12)">
      <use xlink:href="#BitstreamVeraSans-Roman-4a"/>
      <use x="29.4921875" xlink:href="#BitstreamVeraSans-Roman-75"/>
      <use x="92.87109375" xlink:href="#BitstreamVeraSans-Roman-6c"/>
      <use x="120.654296875" xlink:href="#BitstreamVeraSans-Roman-69"/>
      <use x="148.4375" xlink:href="#BitstreamVeraSans-Roman-61"/>
      <use x="209.716796875" xlink:href="#BitstreamVeraSans-Roman-6e"/>
      <use x="273.095703125" xlink:href="#BitstreamVeraSans-Roman-20"/>
      <use x="304.8828125" xlink:href="#BitstreamVeraSans-Roman-64"/>
      <use x="368.359375" xlink:href="#BitstreamVeraSans-Roman-61"/>
      <use x="429.638671875" xlink:href="#BitstreamVeraSans-Roman-79"/>
     </g>
    </g>
   </g>
   <g id="matplotlib.axis_2">
    <g id="ytick_1">
     <g id="line2d_20">
      <defs>
       <path d="
M0 0
L4 0" id="m728421d6d4" style="stroke:#000000;stroke-width:0.5;"/>
      </defs>
      <g>
       <use style="stroke:#000000;stroke-width:0.5;" x="58.70625" xlink:href="#m728421d6d4" y="368.74175"/>
      </g>
     </g>
     <g id="line2d_21">
      <defs>
       <path d="
M0 0
L-4 0" id="mcb0005524f" style="stroke:#000000;stroke-width:0.5;"/>
      </defs>
      <g>
       <use style="stroke:#000000;stroke-width:0.5;" x="505.10625" xlink:href="#mcb0005524f" y="368.74175"/>
      </g>
     </g>
     <g id="text_10">
      <!-- −100 -->
      <defs>
       <path d="
M10.5938 35.5
L73.1875 35.5
L73.1875 27.2031
L10.5938 27.2031
z
" id="BitstreamVeraSans-Roman-2212"/>
      </defs>
      <g transform="translate(23.81375 372.053)scale(0.12 -0.12)">
       <use xlink:href="#BitstreamVeraSans-Roman-2212"/>
       <use x="83.7890625" xlink:href="#BitstreamVeraSans-Roman-31"/>
       <use x="147.412109375" xlink:href="#BitstreamVeraSans-Roman-30"/>
       <use x="211.03515625" xlink:href="#BitstreamVeraSans-Roman-30"/>
      </g>
     </g>
    </g>
    <g id="ytick_2">
     <g id="line2d_22">
      <g>
       <use style="stroke:#000000;stroke-width:0.5;" x="58.70625" xlink:href="#m728421d6d4" y="282.34175"/>
      </g>
     </g>
     <g id="line2d_23">
      <g>
       <use style="stroke:#000000;stroke-width:0.5;" x="505.10625" xlink:href="#mcb0005524f" y="282.34175"/>
      </g>
     </g>
     <g id="text_11">
      <!-- −50 -->
      <g transform="translate(31.44875 285.653)scale(0.12 -0.12)">
       <use xlink:href="#BitstreamVeraSans-Roman-2212"/>
       <use x="83.7890625" xlink:href="#BitstreamVeraSans-Roman-35"/>
       <use x="147.412109375" xlink:href="#BitstreamVeraSans-Roman-30"/>
      </g>
     </g>
    </g>
    <g id="ytick_3">
     <g id="line2d_24">
      <g>
       <use style="stroke:#000000;stroke-width:0.5;" x="58.70625" xlink:href="#m728421d6d4" y="195.94175"/>
      </g>
     </g>
     <g id="line2d_25">
      <g>
       <use style="stroke:#000000;stroke-width:0.5;" x="505.10625" xlink:href="#mcb0005524f" y="195.94175"/>
      </g>
     </g>
     <g id="text_12">
      <!-- 0 -->
      <g transform="translate(48.659375 199.253)scale(0.12 -0.12)">
       <use xlink:href="#BitstreamVeraSans-Roman-30"/>
      </g>
     </g>
    </g>
    <g id="ytick_4">
     <g id="line2d_26">
      <g>
       <use style="stroke:#000000;stroke-width:0.5;" x="58.70625" xlink:href="#m728421d6d4" y="109.54175"/>
      </g>
     </g>
     <g id="line2d_27">
      <g>
       <use style="stroke:#000000;stroke-width:0.5;" x="505.10625" xlink:href="#mcb0005524f" y="109.54175"/>
      </g>
     </g>
     <g id="text_13">
      <!-- 50 -->
      <g transform="translate(41.159375 112.853)scale(0.12 -0.12)">
       <use xlink:href="#BitstreamVeraSans-Roman-35"/>
       <use x="63.623046875" xlink:href="#BitstreamVeraSans-Roman-30"/>
      </g>
     </g>
    </g>
    <g id="ytick_5">
     <g id="line2d_28">
      <g>
       <use style="stroke:#000000;stroke-width:0.5;" x="58.70625" xlink:href="#m728421d6d4" y="23.14175"/>
      </g>
     </g>
     <g id="line2d_29">
      <g>
       <use style="stroke:#000000;stroke-width:0.5;" x="505.10625" xlink:href="#mcb0005524f" y="23.14175"/>
      </g>
     </g>
     <g id="text_14">
      <!-- 100 -->
      <g transform="translate(33.91625 26.453)scale(0.12 -0.12)">
       <use xlink:href="#BitstreamVeraSans-Roman-31"/>
       <use x="63.623046875" xlink:href="#BitstreamVeraSans-Roman-30"/>
       <use x="127.24609375" xlink:href="#BitstreamVeraSans-Roman-30"/>
      </g>
     </g>
    </g>
    <g id="text_15">
     <!-- PET (mm/day) -->
     <defs>
      <path d="
M52 44.1875
Q55.375 50.25 60.0625 53.125
Q64.75 56 71.0938 56
Q79.6406 56 84.2812 50.0156
Q88.9219 44.0469 88.9219 33.0156
L88.9219 0
L79.8906 0
L79.8906 32.7188
Q79.8906 40.5781 77.0938 44.375
Q74.3125 48.1875 68.6094 48.1875
Q61.625 48.1875 57.5625 43.5469
Q53.5156 38.9219 53.5156 30.9062
L53.5156 0
L44.4844 0
L44.4844 32.7188
Q44.4844 40.625 41.7031 44.4062
Q38.9219 48.1875 33.1094 48.1875
Q26.2188 48.1875 22.1562 43.5312
Q18.1094 38.875 18.1094 30.9062
L18.1094 0
L9.07812 0
L9.07812 54.6875
L18.1094 54.6875
L18.1094 46.1875
Q21.1875 51.2188 25.4844 53.6094
Q29.7812 56 35.6875 56
Q41.6562 56 45.8281 52.9688
Q50 49.9531 52 44.1875" id="BitstreamVeraSans-Roman-6d"/>
      <path d="
M8.01562 75.875
L15.8281 75.875
Q23.1406 64.3594 26.7812 53.3125
Q30.4219 42.2812 30.4219 31.3906
Q30.4219 20.4531 26.7812 9.375
Q23.1406 -1.70312 15.8281 -13.1875
L8.01562 -13.1875
Q14.5 -2 17.7031 9.0625
Q20.9062 20.125 20.9062 31.3906
Q20.9062 42.6719 17.7031 53.6562
Q14.5 64.6562 8.01562 75.875" id="BitstreamVeraSans-Roman-29"/>
      <path d="
M31 75.875
Q24.4688 64.6562 21.2812 53.6562
Q18.1094 42.6719 18.1094 31.3906
Q18.1094 20.125 21.3125 9.0625
Q24.5156 -2 31 -13.1875
L23.1875 -13.1875
Q15.875 -1.70312 12.2344 9.375
Q8.59375 20.4531 8.59375 31.3906
Q8.59375 42.2812 12.2031 53.3125
Q15.8281 64.3594 23.1875 75.875
z
" id="BitstreamVeraSans-Roman-28"/>
      <path d="
M19.6719 64.7969
L19.6719 37.4062
L32.0781 37.4062
Q38.9688 37.4062 42.7188 40.9688
Q46.4844 44.5312 46.4844 51.125
Q46.4844 57.6719 42.7188 61.2344
Q38.9688 64.7969 32.0781 64.7969
z

M9.8125 72.9062
L32.0781 72.9062
Q44.3438 72.9062 50.6094 67.3594
Q56.8906 61.8125 56.8906 51.125
Q56.8906 40.3281 50.6094 34.8125
Q44.3438 29.2969 32.0781 29.2969
L19.6719 29.2969
L19.6719 0
L9.8125 0
z
" id="BitstreamVeraSans-Roman-50"/>
      <path d="
M9.8125 72.9062
L55.9062 72.9062
L55.9062 64.5938
L19.6719 64.5938
L19.6719 43.0156
L54.3906 43.0156
L54.3906 34.7188
L19.6719 34.7188
L19.6719 8.29688
L56.7812 8.29688
L56.7812 0
L9.8125 0
z
" id="BitstreamVeraSans-Roman-45"/>
      <path d="
M-0.296875 72.9062
L61.375 72.9062
L61.375 64.5938
L35.5 64.5938
L35.5 0
L25.5938 0
L25.5938 64.5938
L-0.296875 64.5938
z
" id="BitstreamVeraSans-Roman-54"/>
      <path d="
M25.3906 72.9062
L33.6875 72.9062
L8.29688 -9.28125
L0 -9.28125
z
" id="BitstreamVeraSans-Roman-2f"/>
     </defs>
     <g transform="translate(16.318125 237.8358125)rotate(-90.0)scale(0.12 -0.12)">
      <use xlink:href="#BitstreamVeraSans-Roman-50"/>
      <use x="60.302734375" xlink:href="#BitstreamVeraSans-Roman-45"/>
      <use x="123.486328125" xlink:href="#BitstreamVeraSans-Roman-54"/>
      <use x="184.5703125" xlink:href="#BitstreamVeraSans-Roman-20"/>
      <use x="216.357421875" xlink:href="#BitstreamVeraSans-Roman-28"/>
      <use x="255.37109375" xlink:href="#BitstreamVeraSans-Roman-6d"/>
      <use x="352.783203125" xlink:href="#BitstreamVeraSans-Roman-6d"/>
      <use x="450.1953125" xlink:href="#BitstreamVeraSans-Roman-2f"/>
      <use x="483.88671875" xlink:href="#BitstreamVeraSans-Roman-64"/>
      <use x="547.36328125" xlink:href="#BitstreamVeraSans-Roman-61"/>
      <use x="608.642578125" xlink:href="#BitstreamVeraSans-Roman-79"/>
      <use x="667.822265625" xlink:href="#BitstreamVeraSans-Roman-29"/>
     </g>
    </g>
   </g>
   <g id="text_16">
    <!-- daily grass PET at BRWtemp -->
    <defs>
     <path d="
M44.2812 53.0781
L44.2812 44.5781
Q40.4844 46.5312 36.375 47.5
Q32.2812 48.4844 27.875 48.4844
Q21.1875 48.4844 17.8438 46.4375
Q14.5 44.3906 14.5 40.2812
Q14.5 37.1562 16.8906 35.375
Q19.2812 33.5938 26.5156 31.9844
L29.5938 31.2969
Q39.1562 29.25 43.1875 25.5156
Q47.2188 21.7812 47.2188 15.0938
Q47.2188 7.46875 41.1875 3.01562
Q35.1562 -1.42188 24.6094 -1.42188
Q20.2188 -1.42188 15.4531 -0.5625
Q10.6875 0.296875 5.42188 2
L5.42188 11.2812
Q10.4062 8.6875 15.2344 7.39062
Q20.0625 6.10938 24.8125 6.10938
Q31.1562 6.10938 34.5625 8.28125
Q37.9844 10.4531 37.9844 14.4062
Q37.9844 18.0625 35.5156 20.0156
Q33.0625 21.9688 24.7031 23.7812
L21.5781 24.5156
Q13.2344 26.2656 9.51562 29.9062
Q5.8125 33.5469 5.8125 39.8906
Q5.8125 47.6094 11.2812 51.7969
Q16.75 56 26.8125 56
Q31.7812 56 36.1719 55.2656
Q40.5781 54.5469 44.2812 53.0781" id="BitstreamVeraSans-Roman-73"/>
     <path d="
M44.3906 34.1875
Q47.5625 33.1094 50.5625 29.5938
Q53.5625 26.0781 56.5938 19.9219
L66.6094 0
L56 0
L46.6875 18.7031
Q43.0625 26.0312 39.6719 28.4219
Q36.2812 30.8125 30.4219 30.8125
L19.6719 30.8125
L19.6719 0
L9.8125 0
L9.8125 72.9062
L32.0781 72.9062
Q44.5781 72.9062 50.7344 67.6719
Q56.8906 62.4531 56.8906 51.9062
Q56.8906 45.0156 53.6875 40.4688
Q50.4844 35.9375 44.3906 34.1875
M19.6719 64.7969
L19.6719 38.9219
L32.0781 38.9219
Q39.2031 38.9219 42.8438 42.2188
Q46.4844 45.5156 46.4844 51.9062
Q46.4844 58.2969 42.8438 61.5469
Q39.2031 64.7969 32.0781 64.7969
z
" id="BitstreamVeraSans-Roman-52"/>
     <path d="
M19.6719 34.8125
L19.6719 8.10938
L35.5 8.10938
Q43.4531 8.10938 47.2812 11.4062
Q51.125 14.7031 51.125 21.4844
Q51.125 28.3281 47.2812 31.5625
Q43.4531 34.8125 35.5 34.8125
z

M19.6719 64.7969
L19.6719 42.8281
L34.2812 42.8281
Q41.5 42.8281 45.0312 45.5312
Q48.5781 48.25 48.5781 53.8125
Q48.5781 59.3281 45.0312 62.0625
Q41.5 64.7969 34.2812 64.7969
z

M9.8125 72.9062
L35.0156 72.9062
Q46.2969 72.9062 52.3906 68.2188
Q58.5 63.5312 58.5 54.8906
Q58.5 48.1875 55.375 44.2344
Q52.25 40.2812 46.1875 39.3125
Q53.4688 37.75 57.5 32.7812
Q61.5312 27.8281 61.5312 20.4062
Q61.5312 10.6406 54.8906 5.3125
Q48.25 0 35.9844 0
L9.8125 0
z
" id="BitstreamVeraSans-Roman-42"/>
     <path d="
M3.32812 72.9062
L13.2812 72.9062
L28.6094 11.2812
L43.8906 72.9062
L54.9844 72.9062
L70.3125 11.2812
L85.5938 72.9062
L95.6094 72.9062
L77.2969 0
L64.8906 0
L49.5156 63.2812
L33.9844 0
L21.5781 0
z
" id="BitstreamVeraSans-Roman-57"/>
     <path d="
M56.2031 29.5938
L56.2031 25.2031
L14.8906 25.2031
Q15.4844 15.9219 20.4844 11.0625
Q25.4844 6.20312 34.4219 6.20312
Q39.5938 6.20312 44.4531 7.46875
Q49.3125 8.73438 54.1094 11.2812
L54.1094 2.78125
Q49.2656 0.734375 44.1875 -0.34375
Q39.1094 -1.42188 33.8906 -1.42188
Q20.7969 -1.42188 13.1562 6.1875
Q5.51562 13.8125 5.51562 26.8125
Q5.51562 40.2344 12.7656 48.1094
Q20.0156 56 32.3281 56
Q43.3594 56 49.7812 48.8906
Q56.2031 41.7969 56.2031 29.5938
M47.2188 32.2344
Q47.125 39.5938 43.0938 43.9844
Q39.0625 48.3906 32.4219 48.3906
Q24.9062 48.3906 20.3906 44.1406
Q15.875 39.8906 15.1875 32.1719
z
" id="BitstreamVeraSans-Roman-65"/>
     <path d="
M18.3125 70.2188
L18.3125 54.6875
L36.8125 54.6875
L36.8125 47.7031
L18.3125 47.7031
L18.3125 18.0156
Q18.3125 11.3281 20.1406 9.42188
Q21.9688 7.51562 27.5938 7.51562
L36.8125 7.51562
L36.8125 0
L27.5938 0
Q17.1875 0 13.2344 3.875
Q9.28125 7.76562 9.28125 18.0156
L9.28125 47.7031
L2.6875 47.7031
L2.6875 54.6875
L9.28125 54.6875
L9.28125 70.2188
z
" id="BitstreamVeraSans-Roman-74"/>
     <path d="
M41.1094 46.2969
Q39.5938 47.1719 37.8125 47.5781
Q36.0312 48 33.8906 48
Q26.2656 48 22.1875 43.0469
Q18.1094 38.0938 18.1094 28.8125
L18.1094 0
L9.07812 0
L9.07812 54.6875
L18.1094 54.6875
L18.1094 46.1875
Q20.9531 51.1719 25.4844 53.5781
Q30.0312 56 36.5312 56
Q37.4531 56 38.5781 55.875
Q39.7031 55.7656 41.0625 55.5156
z
" id="BitstreamVeraSans-Roman-72"/>
     <path d="
M45.4062 27.9844
Q45.4062 37.75 41.375 43.1094
Q37.3594 48.4844 30.0781 48.4844
Q22.8594 48.4844 18.8281 43.1094
Q14.7969 37.75 14.7969 27.9844
Q14.7969 18.2656 18.8281 12.8906
Q22.8594 7.51562 30.0781 7.51562
Q37.3594 7.51562 41.375 12.8906
Q45.4062 18.2656 45.4062 27.9844
M54.3906 6.78125
Q54.3906 -7.17188 48.1875 -13.9844
Q42 -20.7969 29.2031 -20.7969
Q24.4688 -20.7969 20.2656 -20.0938
Q16.0625 -19.3906 12.1094 -17.9219
L12.1094 -9.1875
Q16.0625 -11.3281 19.9219 -12.3438
Q23.7812 -13.375 27.7812 -13.375
Q36.625 -13.375 41.0156 -8.76562
Q45.4062 -4.15625 45.4062 5.17188
L45.4062 9.625
Q42.625 4.78125 38.2812 2.39062
Q33.9375 0 27.875 0
Q17.8281 0 11.6719 7.65625
Q5.51562 15.3281 5.51562 27.9844
Q5.51562 40.6719 11.6719 48.3281
Q17.8281 56 27.875 56
Q33.9375 56 38.2812 53.6094
Q42.625 51.2188 45.4062 46.3906
L45.4062 54.6875
L54.3906 54.6875
z
" id="BitstreamVeraSans-Roman-67"/>
     <path d="
M18.1094 8.20312
L18.1094 -20.7969
L9.07812 -20.7969
L9.07812 54.6875
L18.1094 54.6875
L18.1094 46.3906
Q20.9531 51.2656 25.2656 53.625
Q29.5938 56 35.5938 56
Q45.5625 56 51.7812 48.0938
Q58.0156 40.1875 58.0156 27.2969
Q58.0156 14.4062 51.7812 6.48438
Q45.5625 -1.42188 35.5938 -1.42188
Q29.5938 -1.42188 25.2656 0.953125
Q20.9531 3.32812 18.1094 8.20312
M48.6875 27.2969
Q48.6875 37.2031 44.6094 42.8438
Q40.5312 48.4844 33.4062 48.4844
Q26.2656 48.4844 22.1875 42.8438
Q18.1094 37.2031 18.1094 27.2969
Q18.1094 17.3906 22.1875 11.75
Q26.2656 6.10938 33.4062 6.10938
Q40.5312 6.10938 44.6094 11.75
Q48.6875 17.3906 48.6875 27.2969" id="BitstreamVeraSans-Roman-70"/>
    </defs>
    <g transform="translate(180.32325 18.14175)scale(0.144 -0.144)">
     <use xlink:href="#BitstreamVeraSans-Roman-64"/>
     <use x="63.4765625" xlink:href="#BitstreamVeraSans-Roman-61"/>
     <use x="124.755859375" xlink:href="#BitstreamVeraSans-Roman-69"/>
     <use x="152.5390625" xlink:href="#BitstreamVeraSans-Roman-6c"/>
     <use x="180.322265625" xlink:href="#BitstreamVeraSans-Roman-79"/>
     <use x="239.501953125" xlink:href="#BitstreamVeraSans-Roman-20"/>
     <use x="271.2890625" xlink:href="#BitstreamVeraSans-Roman-67"/>
     <use x="334.765625" xlink:href="#BitstreamVeraSans-Roman-72"/>
     <use x="375.87890625" xlink:href="#BitstreamVeraSans-Roman-61"/>
     <use x="437.158203125" xlink:href="#BitstreamVeraSans-Roman-73"/>
     <use x="489.2578125" xlink:href="#BitstreamVeraSans-Roman-73"/>
     <use x="541.357421875" xlink:href="#BitstreamVeraSans-Roman-20"/>
     <use x="573.14453125" xlink:href="#BitstreamVeraSans-Roman-50"/>
     <use x="633.447265625" xlink:href="#BitstreamVeraSans-Roman-45"/>
     <use x="696.630859375" xlink:href="#BitstreamVeraSans-Roman-54"/>
     <use x="757.71484375" xlink:href="#BitstreamVeraSans-Roman-20"/>
     <use x="789.501953125" xlink:href="#BitstreamVeraSans-Roman-61"/>
     <use x="850.78125" xlink:href="#BitstreamVeraSans-Roman-74"/>
     <use x="889.990234375" xlink:href="#BitstreamVeraSans-Roman-20"/>
     <use x="921.77734375" xlink:href="#BitstreamVeraSans-Roman-42"/>
     <use x="990.380859375" xlink:href="#BitstreamVeraSans-Roman-52"/>
     <use x="1055.86328125" xlink:href="#BitstreamVeraSans-Roman-57"/>
     <use x="1154.74023438" xlink:href="#BitstreamVeraSans-Roman-74"/>
     <use x="1193.94921875" xlink:href="#BitstreamVeraSans-Roman-65"/>
     <use x="1255.47265625" xlink:href="#BitstreamVeraSans-Roman-6d"/>
     <use x="1352.88476562" xlink:href="#BitstreamVeraSans-Roman-70"/>
    </g>
   </g>
   <g id="legend_1">
    <g id="patch_7">
     <path d="
M411.281 98.0712
L497.906 98.0712
L497.906 30.3417
L411.281 30.3417
z
" style="fill:#ffffff;stroke:#000000;stroke-linejoin:miter;"/>
    </g>
    <g id="line2d_30">
     <path d="
M421.361 42.0035
L441.521 42.0035" style="fill:none;stroke:#0000ff;stroke-linecap:square;"/>
    </g>
    <g id="line2d_31"/>
    <g id="text_17">
     <!-- 2012 -->
     <g transform="translate(457.36125 47.0435)scale(0.144 -0.144)">
      <use xlink:href="#BitstreamVeraSans-Roman-32"/>
      <use x="63.623046875" xlink:href="#BitstreamVeraSans-Roman-30"/>
      <use x="127.24609375" xlink:href="#BitstreamVeraSans-Roman-31"/>
      <use x="190.869140625" xlink:href="#BitstreamVeraSans-Roman-32"/>
     </g>
    </g>
    <g id="line2d_32">
     <path d="
M421.361 63.14
L441.521 63.14" style="fill:none;stroke:#008000;stroke-linecap:square;"/>
    </g>
    <g id="line2d_33"/>
    <g id="text_18">
     <!-- 2013 -->
     <g transform="translate(457.36125 68.18)scale(0.144 -0.144)">
      <use xlink:href="#BitstreamVeraSans-Roman-32"/>
      <use x="63.623046875" xlink:href="#BitstreamVeraSans-Roman-30"/>
      <use x="127.24609375" xlink:href="#BitstreamVeraSans-Roman-31"/>
      <use x="190.869140625" xlink:href="#BitstreamVeraSans-Roman-33"/>
     </g>
    </g>
    <g id="line2d_34">
     <path d="
M421.361 84.2765
L441.521 84.2765" style="fill:none;stroke:#ff0000;stroke-linecap:square;"/>
    </g>
    <g id="line2d_35"/>
    <g id="text_19">
     <!-- 2014 -->
     <defs>
      <path d="
M37.7969 64.3125
L12.8906 25.3906
L37.7969 25.3906
z

M35.2031 72.9062
L47.6094 72.9062
L47.6094 25.3906
L58.0156 25.3906
L58.0156 17.1875
L47.6094 17.1875
L47.6094 0
L37.7969 0
L37.7969 17.1875
L4.89062 17.1875
L4.89062 26.7031
z
" id="BitstreamVeraSans-Roman-34"/>
     </defs>
     <g transform="translate(457.36125 89.3165)scale(0.144 -0.144)">
      <use xlink:href="#BitstreamVeraSans-Roman-32"/>
      <use x="63.623046875" xlink:href="#BitstreamVeraSans-Roman-30"/>
      <use x="127.24609375" xlink:href="#BitstreamVeraSans-Roman-31"/>
      <use x="190.869140625" xlink:href="#BitstreamVeraSans-Roman-34"/>
     </g>
    </g>
   </g>
  </g>
 </g>
 <defs>
  <clipPath id="p550dbe29e8">
   <rect height="345.6" width="446.4" x="58.70625" y="23.14175"/>
  </clipPath>
 </defs>
</svg>
