<?xml version="1.0" encoding="utf-8" standalone="no"?>
<!DOCTYPE svg PUBLIC "-//W3C//DTD SVG 1.1//EN"
  "http://www.w3.org/Graphics/SVG/1.1/DTD/svg11.dtd">
<!-- Created with matplotlib (http://matplotlib.org/) -->
<svg height="408pt" version="1.1" viewBox="0 0 512 408" width="512pt" xmlns="http://www.w3.org/2000/svg" xmlns:xlink="http://www.w3.org/1999/xlink">
 <defs>
  <style type="text/css">
*{stroke-linecap:butt;stroke-linejoin:round;}
  </style>
 </defs>
 <g id="figure_1">
  <g id="patch_1">
   <path d="
M0 408.169
L512.306 408.169
L512.306 0
L0 0
z
" style="fill:#ffffff;"/>
  </g>
  <g id="axes_1">
   <g id="patch_2">
    <path d="
M58.7063 368.742
L505.106 368.742
L505.106 23.1417
L58.7063 23.1417
z
" style="fill:#ffffff;"/>
   </g>
   <g id="line2d_1">
    <path clip-path="url(#p550dbe29e8)" d="
M58.7063 186.629
L59.9293 153.991
L61.1523 188.918
L62.3753 170.358
L63.5983 116.403
L66.0443 291.344
L67.2673 200.995
L68.4904 191.089
L69.7134 190.649
L70.9364 215.156
L72.1594 196.795
L73.3824 186.566
L74.6054 186.939
L75.8284 193.533
L77.0515 270.718
L78.2745 249.2
L79.4975 249.262
M90.5046 221.48
L91.7276 245.598
L92.9506 187.248
L94.1736 213.836
L95.3967 197.269
L96.6197 215.342
L97.8427 202.808
L99.0657 200.521
L100.289 199.281
L101.512 196.04
L102.735 197.687
L103.958 203.502
L105.181 205.515
L106.404 195.855
L107.627 192.404
L108.85 195.948
L110.073 210.642
L111.296 193.956
L112.519 217.236
L113.742 206.571
L114.965 204.446
L116.188 198.915
L117.411 216.437
L118.634 219.729
L119.857 208.754
L121.08 12.3933
L121.684 409.169
M123.201 409.169
L123.526 261.623
L124.749 194.608
L125.972 345.119
L127.195 205.654
L128.418 201.099
L129.641 215.036
L130.734 409.169
M132.123 409.169
L133.31 284.487
L134.533 219.296
L135.756 185.499
L136.979 177.258
L138.202 396.353
L139.425 219.907
L141.871 150.416
L143.094 178.84
L144.317 169.013
L145.54 189.65
L146.763 173.334
L147.986 197.583
L149.209 190.266
L150.432 187.754
L151.655 200.526
L152.878 209.144
L154.101 237.895
L155.324 200.725
L156.547 182.283
L157.77 171.21
L158.993 174.223
L160.216 150.542
L161.439 158.531
L162.662 195.838
L163.885 185.793
L165.108 182.121
L166.331 197.249
L167.554 170.628
L168.777 32.3708
L170 313.821
L171.224 197.498
L172.447 158.631
L173.67 157.956
L174.893 219.166
L176.116 398.422
L177.339 186.323
L178.562 161.302
L179.785 153.792
L181.008 125.165
L182.231 151.849
L183.454 181.594
L184.677 186.244
L185.9 166.246
L188.346 192.254
L189.569 168.603
L190.792 188.188
L192.015 182.833
L193.238 139.461
L194.461 163.669
L195.684 138.093
L196.907 139.404
L198.13 164.683
L199.353 143.466
L200.576 96.3568
L201.799 217.177
L204.245 160.468
L205.468 132.677
L206.691 177.352
L207.914 181.978
L209.137 178.884
L210.36 173.403
L211.583 214.072
L212.806 180.958
L214.029 177.66
L215.252 172.565
L216.475 127.38
L217.698 135.926
L218.921 162.591
L220.144 144.004
L221.367 169.306
L222.59 149.393
L223.813 161.337
L225.036 103.591
L226.259 88.8157
L227.482 108.563
L228.705 166.271
L229.928 162.787
L231.151 111.804
L232.374 1.34607
L233.597 162.012
L234.82 180.181
L236.043 189.131
L237.266 186.938
L238.489 152.392
L239.712 178.513
L240.935 142.628
L242.158 118.411
L243.381 113.673
L244.604 141.076
L245.827 115.994
L247.05 154.457
L248 -1
M248.506 -1
L249.496 189.207
L250.719 184.823
L251.942 146.163
L253.165 165.475
L254.388 180.282
L255.611 164.366
L256.834 161.289
L258.057 159.437
L259.28 81.1775
L260.504 149.596
L261.727 104.484
L262.95 157.957
L264.173 7.05508
L265.396 77.3018
L266.619 169.561
L267.842 164.377
L269.065 107.026
L270.288 75.1775
L271.511 132.312
L272.734 102.672
L273.957 155.365
L275.18 40.3262
L276.403 173.344
L277.626 133.07
L278.849 127.597
L280.072 148.581
L281.295 89.8318
L282.518 158.134
L283.741 60.53
L284.964 163.617
L286.187 148.036
L287.41 146.286
L288.633 142.186
L289.856 112.517
L291.079 114.012
L292.302 148.637
L293.525 144.442
L294.748 146.415
L295.971 134.607
L297.194 128.212
L298.417 159.865
L299.64 139.668
L300.863 122.013
L302.086 136.912
L303.309 135.016
L304.532 135.162
L305.755 112.265
L306.978 142.013
L308.201 132.467
L309.424 151.616
L310.647 160.233
L311.87 130.198
L313.093 131.808
L314.316 120.792
L315.539 159.542
L316.762 133.767
L317.985 131.425
L319.208 120.459
L320.431 87.7845
L321.654 119.776
L322.877 139.531
L324.1 143.509
L325.323 154.149
L326.546 139.193
L327.769 149.585
L328.992 154.232
L330.215 147.447
L331.438 139.815
L332.661 165.116
L333.884 151.979
L335.107 133.581
L336.33 122.956
L337.553 109.595
L338.776 49.8236
L339.999 91.9696
L341.222 109.124
L342.445 148.837
L343.668 120.4
L344.891 142.02
L346.114 142.296
L347.337 128.893
L348.56 163.536
L349.784 124.704
L351.007 145.362
L352.23 135.206
L353.453 116.094
L354.676 167.593
L355.899 136.641
M360.791 131.197
L362.014 150.239
L363.237 143.096
L364.46 161.587
L366.906 125.073
L368.129 96.9905
L369.352 131.366
L370.575 141.785
L371.798 153.256
L373.021 137.332
L374.244 140.253
L375.467 134.744
L376.69 163.039
L377.913 139.465
L379.136 28.4521
L380.359 148.213
L381.582 163.999
L382.805 135.909
L384.028 142.94
L385.251 167.638
L386.474 144.073
L387.697 163.158
L388.92 168.152
L390.143 152.494
L391.366 162.838
L392.589 135.546
L393.812 152.597
M397.481 169.425
L398.704 184.101
L399.927 185.92
L401.15 175.648
L402.373 167.823
L403.596 170.448
L404.819 175.617
L406.042 176.89
L407.265 159.336
L408.488 136.056
L409.711 170.752
L410.934 116.794
L411.363 -1
M412.841 -1
L413.38 171.458
L414.603 170.372
L415.826 150.418
L417.049 44.706
L418.272 190.398
L419.495 194.068
L420.718 214.979
L421.941 204.761
L423.164 206.875
L424.387 203.607
L425.61 184.418
L426.833 38.2366
L428.056 136.874
L429.279 172.471
L430.502 157.222
L431.725 173.011
L432.948 187.121
L434.171 181.68
L435.394 170.75
L436.617 153.243
L437.84 159.882
L439.064 150.031
L440.287 171.328
L441.51 218.279
L442.733 220.408
L443.956 219.233
L445.179 207.633
L446.402 200.207
L447.625 198.938
L448.848 189.831
L450.071 192.056
L451.294 186.018
L452.517 191.474
L453.74 194.64
L454.963 183.007
L456.186 100.555
L457.409 200.841
L458.632 176.107
L459.855 180.404
L461.078 198.214
L462.301 210.378
L463.524 187.598
L464.747 176.531
L465.97 189.517
L467.193 187.523
L468.416 189.584
L469.639 130.698
L470.862 199.223
L472.085 187.09
L473.308 151.479
L474.531 218.737
L475.754 257.107
L478.2 208.819
M480.646 199.292
L481.869 400.929
L483.092 198.137
L484.315 202.323
M486.761 207.703
L487.984 344.444
L489.207 249.238
L490.43 227.757
L491.653 218.924
L492.876 204.048
L494.099 207.573
L495.322 216.173
L495.813 409.169
M501.437 204.053
L502.66 211.194
L503.883 210.848
L503.883 210.848" style="fill:none;stroke:#0000ff;stroke-linecap:square;"/>
   </g>
   <g id="line2d_2">
    <path clip-path="url(#p550dbe29e8)" d="
M58.7063 223.241
L59.9293 208.696
L61.1523 205.049
L62.3753 199.439
L63.5983 206.84
L64.8213 205.847
L66.0443 223.632
M68.4904 197.68
L69.7134 322.239
M72.1594 213.231
L73.3824 210.598
L74.6054 225.251
L75.8284 213.905
L77.0515 205.615
L78.2745 192.931
L79.4975 193.858
L80.7205 192.657
L81.9435 177.122
L83.1665 188.34
L84.3895 172.611
L85.6126 163.861
L86.8356 196.671
L88.0586 197.935
L89.2816 203.088
L90.5046 261.909
L91.7276 205.569
M95.3967 197.528
L96.6197 197.61
L97.8427 198.394
L99.0657 206.284
L100.289 187.95
L101.512 191.499
L102.735 208.83
L103.958 209.72
L105.181 202.982
L106.404 336.035
L107.627 216.141
L108.85 214.956
L110.073 280.783
L111.296 269.104
L112.519 278.59
L113.742 188.93
L114.965 187.71
L116.188 239.437
L117.411 207.7
L118.634 209.515
L119.857 347.96
L121.08 343.33
L122.303 244.839
L123.526 309.891
L124.749 244.623
L125.972 229.317
L127.195 312.017
L128.418 200.173
L129.641 200.353
L130.864 193.777
L132.087 180.032
L133.31 108.71
L134.533 207.529
L135.756 188.339
L136.979 183.251
L138.202 196.896
L139.425 201.023
L140.648 196.627
L141.871 175.58
L143.094 202.264
L144.317 184.932
L146.763 165.289
L147.986 141.314
L149.209 181.004
L150.052 409.169
M150.882 409.169
L151.655 232.063
L152.878 187.167
L154.101 176.57
L155.324 396.222
L156.547 347.494
L157.77 223.266
L158.993 200.134
L160.216 189.642
L161.439 194.93
L162.662 189.183
L163.885 181.807
L165.108 180.911
L166.331 177.301
L167.554 176.984
L168.777 131.298
L170 94.6668
L171.224 176.704
L172.447 163.623
L173.67 161.093
L174.893 188.547
L176.116 211.834
L177.339 205.176
L178.562 144.272
L179.785 114.522
L181.008 170.361
L182.231 182.804
L183.454 5.98525
L184.677 215.439
L185.9 210.987
L187.123 200.523
L188.346 199.036
L189.569 185.771
L190.792 193.629
L192.015 200.216
L193.238 157.277
L194.461 197.313
L195.684 190.25
L196.907 185.173
L198.13 164.31
L199.353 148.116
L200.576 153.074
L201.799 99.2087
L202.552 -1
M203.287 -1
L204.245 224.803
L205.468 181.333
L206.691 176.338
L207.914 135.096
L209.137 175.579
L210.36 163.032
L211.583 169.459
L212.806 173.742
L214.029 163.683
L215.252 139.983
L216.475 154.177
L217.698 161.632
L218.921 139.187
L220.144 21.7845
L221.367 131.133
L222.59 156.602
L223.813 167.443
L225.036 185.592
L226.259 148.122
L227.482 135.11
L228.705 169.372
L229.928 66.1476
L231.151 113.022
L232.374 165.803
L233.597 163.055
L234.82 145.742
L236.043 162.726
L237.266 175.447
L238.489 173.698
L239.712 171.052
L240.935 158.975
L242.158 132.3
L243.381 164.8
L244.604 121.446
L245.827 122.794
L247.05 136.217
L248.273 144.229
L249.496 149.999
L250.719 78.0539
L251.942 45.5949
L253.165 137.933
L254.388 118.784
L255.611 95.1787
L256.834 146.899
L258.057 107.506
L259.28 164.187
L260.504 163.765
L261.727 163.223
L262.95 140.7
L264.148 -1
M264.206 -1
L265.396 101.301
L266.619 181.068
L267.842 164.7
L269.065 159.986
L270.288 154.625
L271.511 157.112
L272.734 174.569
L273.957 147.059
L275.18 153.774
L276.403 156.208
L277.626 138.136
L278.849 149.323
L280.072 126.329
L281.295 109.799
L282.518 58.039
L283.741 102.793
L284.964 132.249
L286.187 157.201
L287.41 156.855
L288.633 136.271
L289.856 156.508
L291.079 149.154
L292.302 125.507
L293.525 126.243
L294.748 127.395
L295.971 158.151
L297.194 151.016
L298.417 126.55
L299.64 108.282
L300.863 151.219
L302.086 148.327
L303.309 124.216
L304.532 145.462
L305.755 109.81
L306.978 146.753
L308.201 116.457
L309.424 120.117
L310.647 153.418
L311.87 95.4563
L313.093 140.872
L314.316 145.198
L315.539 152.573
L316.762 146.117
L317.985 90.1772
L319.208 152.305
L320.431 158.389
L321.654 148.745
L322.877 149.242
L324.1 128.476
L325.323 122.92
L326.546 121.715
L327.769 143.878
L328.992 135.657
L330.215 142.002
L331.438 132.016
L332.661 144.788
L333.884 146.55
L335.107 151.635
L336.33 122.618
L337.553 147.257
L338.776 132.412
L339.999 139.766
L341.222 144.037
L342.445 153.328
L343.668 140.728
L344.891 152.597
L346.114 147.13
L347.337 118.68
L348.56 157.365
L349.784 134.687
L351.007 146.109
L352.23 135.919
L353.453 77.5252
L354.676 159.658
L355.899 155.227
L357.122 136.633
L358.345 149.232
L359.568 136.76
L360.791 132.905
L362.014 116.051
L363.237 146.22
L364.46 133.37
L365.683 136.3
L366.906 151.658
L368.129 149.039
L369.352 160.127
L370.575 164.799
L371.798 160.916
L373.021 128.164
L374.244 155.965
L375.467 151.676
L376.69 163.41
L377.913 169.981
L379.136 105.113
L380.359 105.832
L381.582 82.797
L382.805 99.1114
L384.028 156.379
L385.251 195.15
L386.474 191.866
L387.697 180.422
L388.92 172.028
L390.143 145.574
L391.366 34.5198
L392.589 182.334
L393.812 184.639
L395.035 192.633
L396.258 179.406
L397.481 182.367
L398.704 148.766
L399.927 159.424
L401.15 189.272
L402.373 184.815
L403.596 174.677
L404.819 189.49
L406.042 184.739
L407.265 181.446
L408.488 187.338
L409.711 187.196
L410.934 177.894
L412.157 173.787
L413.38 183.38
L414.603 146.296
L415.826 124.764
L417.049 175.659
L418.272 180.902
L419.495 182.239
L420.718 176.819
L421.941 178.989
L423.164 177.863
L424.387 170.485
L425.61 187.45
L428.056 204.893
L429.279 188.396
L430.502 189.114
L431.725 177.192
M434.171 220.988
L435.394 201.252
L436.617 194.298
L437.84 168.234
L439.064 197.103
L440.287 187.643
L441.51 169.182
L442.733 173.167
L443.956 156.42
L445.179 169.639
L446.402 186.349
L447.625 217.664
L448.848 264.977
L450.071 202.175
L451.294 189.224
L452.517 187.996
L453.74 196.984
L454.963 197.473
L456.186 196.102
L459.855 174.797
L461.078 172.715
L462.301 173.416
L463.524 187.115
L464.747 189.455
L465.97 196.72
L466.512 -1
M469.526 -1
L469.639 228.698
L470.862 207.167
L472.085 207.826
L473.308 222.015
L474.531 216.95
L475.754 281.876
L476.977 263.221
L478.2 210.83
L479.423 205.108
L480.646 201.371
L481.869 211.634
L483.092 201.975
L484.315 176.311
L485.538 187.387
L486.761 180.178
L487.984 186.955
L489.207 222.92
L490.43 296.683
L491.653 237.152
L492.876 210.716
L494.099 267.865
L495.322 209.113
L496.545 187.071
L497.768 187.1
L498.991 176.182
L500.214 204.861
L501.437 225.592
L502.66 189.283
L503.883 209.982
L503.883 209.982" style="fill:none;stroke:#008000;stroke-linecap:square;"/>
   </g>
   <g id="line2d_3">
    <path clip-path="url(#p550dbe29e8)" d="
M58.7063 196.613
L59.9293 193.739
L61.1523 161.908
L62.3753 361.425
L63.5983 286.124
L64.8213 191.112
L66.0443 205.333
L67.2673 207.117
M70.9364 211.498
L71.3339 409.169
M74.6054 192.743
L75.8284 172.008
L77.0515 184.321
L78.2745 171.005
L79.4975 181.887
L80.7205 177.525
L81.9435 183.495
L83.1665 182.484
L84.3895 193.569
L85.6126 194.025
L86.8356 184.355
L88.0586 170.869
L89.2816 172.252
L90.5046 191.945
L91.7276 196.9
L92.9506 155.897
L94.1736 263.693
L95.3967 221.439
L96.6197 232.734
L97.8427 203.477
L99.0657 215.011
L100.289 222.89
L101.512 206.68
L102.735 255.031
L103.958 240.157
L105.181 234.456
L106.404 197.509
L107.627 201.342
L108.85 234.391
L110.073 149.925
L111.296 174.423
L112.519 182.443
L113.742 166.381
L114.965 156.292
L116.188 176.826
L117.411 184.211
L118.634 179.721
L119.857 266.151
L121.08 240.016
L122.303 259.869
L123.526 190.322
L124.749 179.306
L125.972 179.023
L127.195 182.803
L128.418 173.025
L129.641 196.522
L130.864 205.795
L132.087 198.592
L133.31 203.211
L134.533 193.061
L135.756 190.831
L136.871 -1
M137.083 -1
L138.202 197.99
L139.425 184.171
L140.648 177.075
L141.871 176.125
L143.094 194.715
L144.317 192.275
L145.54 180.021
L146.763 179.402
L147.986 179.763
L149.209 150.121
L149.711 -1
M151.057 -1
L151.655 207.107
L152.878 192.169
L154.101 168.545
L155.324 199.092
L156.547 191.894
L157.77 186.672
L158.993 183.215
L160.216 156.002
L161.439 197.014
L162.662 305.501
L163.885 197.354
L165.108 198.807
L166.331 201.038
L167.554 197.812
L168.777 202.56
L170 203.075
L171.224 194.978
L172.447 193.832
L173.67 197.231
L174.893 152.248
L176.116 172.539
L177.339 176.441
L178.562 131.003
L179.785 164.506
L181.008 172.843
L182.231 154.792
L183.454 153.972
L184.677 182.224
L185.9 131.48
L187.123 180.832
L188.346 155.962
L189.569 172.064
L190.792 155.173
L192.015 172.408
L193.238 160.082
L194.461 176.91
L195.684 196.586
L196.907 181.082
L198.13 196.144
L199.353 310.923
L200.576 204.203
L201.799 195.91
L203.022 171.429
L204.245 177.484
L205.468 156.472
L206.691 164.043
L207.914 121.23
L209.137 136.01
L210.36 168.248
L211.583 149.744
L212.806 151.495
L214.029 166.596
L215.252 52.9747
L216.475 186.435
L217.698 111.864
L218.921 140.369
L220.144 111.504
L221.367 117.586
L222.59 111.71
L223.813 138.617
L225.036 132.626
L226.259 138.726
L227.482 156.372
L228.705 127.416
L229.928 107.958
L231.151 114.015
L232.374 106.687
L233.597 115.678
L234.82 142.097
L236.043 114.796
L237.266 117.915
L238.489 118.328
L239.712 144.839
L240.935 123.368
L242.158 109.479
L243.381 101.391
L244.346 -1
M245.103 -1
L245.827 38.8871
L247.05 137.799
L248.273 145.526
L249.496 143.081
L250.719 143.146
L251.942 146.101
L253.165 142.401
L254.388 117.338
L255.611 162.202
L256.834 97.7511
L259.28 170.052
L260.504 171.933
L261.727 160.319
L262.95 182.707
L264.173 181.242
L265.396 165.519
L266.619 153.795
L267.842 151.272
L269.065 153.964
L270.288 158.494
L271.511 146.97
L272.734 160.735
L273.957 132.087
L275.18 137.54
L276.403 161.898
L277.626 147.109
L278.849 156.909
L280.072 143.618
L281.295 128.325
L282.518 150.69
L283.741 153.924
L284.964 131.453
L286.187 148.929
L287.41 111.735
L288.633 125.176
L291.079 141.516
L292.302 144.746
L293.525 117.765
L294.748 150.626
L295.971 114.825
L297.194 106.723
L298.417 137.798
L299.64 145.164
L300.863 120.28
L302.086 124.837
L303.309 138.221
L304.532 157.861
L305.755 159.453
L306.978 113.128
L308.201 118.328
L309.424 142.048
L310.647 157.763
L311.87 148.594
L313.093 146.197
L314.316 137.023
L315.539 150.895
L316.762 142.406
L317.985 151.568
L319.208 153.732
L320.431 142.991
L321.654 148.168
L322.877 140.378
L324.1 146.935
L325.323 159.729
L326.546 163.28
L327.769 148.344
L328.992 157.632
L330.215 137.988
L331.438 137.786
L332.661 156.344
L333.884 166.984
L335.107 162.343
L336.33 147.669
L337.553 158.553
L338.776 152.324
L339.999 141.137
L341.222 152.957
L342.445 157.679
L343.668 165.292
L344.891 164.646
L346.114 168.733
L347.337 175.302
L348.56 162.395
L349.784 160.337
L351.007 158.916
L352.23 151.85
L353.453 128.018
L354.676 165.976
L355.899 162.407
L357.122 154.009
L358.345 105.914
L359.568 174.093
L360.791 169.877
L362.014 158.88
L363.237 154.554
L364.46 156.557
L365.683 90.4145
L366.906 151.519
L368.129 169.313
L369.352 157.225
L370.575 165.736
L371.798 168.261
L373.021 161.988
L374.244 156.743
L375.467 150.222
L376.69 141.987
L377.913 136.153
L379.136 163.332
L380.359 143.519
L381.582 170.515
L382.805 151.516
L384.028 137.449
L385.251 20.9571
L386.474 172.584
L387.697 176.964
L388.92 180.878
L390.143 182.224
L391.366 150.813
L392.589 170.414
L393.812 153.877
L395.035 177.78
L396.258 156.499
L397.481 152.127
L398.704 149.722
L399.927 157.837
L401.15 153.04
L402.373 172.616
L403.596 149.723
L404.819 147.557
L406.042 174.987
L407.265 169.552
L408.488 151.778
L409.711 117.756
L410.934 183.525
L412.157 151.867
L413.38 169.919
L414.603 150.196
L415.826 150.446
L417.049 157.207
L418.272 180.972
L419.495 179.378
L420.718 171.478
L421.941 96.7862
L422.246 -1
M423.897 -1
L424.387 196.851
L425.61 181.082
L426.833 172.869
L428.056 142.077
L429.279 167.697
L430.502 168.382
L431.725 207.269
L432.948 196.953
L434.171 192.919
L435.394 186.302
L436.617 145.586
L437.84 164.112
L439.064 171.637
L440.287 22.5325
L441.51 247.373
L442.733 205.365
L443.956 208.704
L445.179 247.568
L445.193 409.169
M447.606 409.169
L447.625 201.171
L448.848 210.49
L450.071 201.479
L451.294 190.576
L452.517 190.331
L453.74 189.515
L454.963 197.662
L456.186 176.081
M458.632 219.394
L458.969 -1
M460.847 -1
L461.078 133.476
L462.301 162.317
L463.524 164.249
L464.747 38.901
L465.97 213.685
L467.193 206.66
L468.416 197.398
L469.639 197.999
L472.085 187.729
L473.308 191.923
L474.531 188.89
L475.754 188.962
L476.977 184.833
L478.2 164.721
L479.423 158.299
L480.646 160.865
M483.092 196.787
L484.315 213.94
L485.538 208.48
L486.761 200.145
L487.984 201.201
L489.207 234.116
L490.43 250.087
L490.621 -1
M494.099 203.054
L495.322 226.942
L495.423 409.169
M497.689 409.169
L497.768 268.278
L498.991 223.494
L500.214 406.292
M502.66 198.946
L503.883 203.149
L503.883 203.149" style="fill:none;stroke:#ff0000;stroke-linecap:square;"/>
   </g>
   <g id="patch_3">
    <path d="
M58.7063 23.1417
L505.106 23.1417" style="fill:none;stroke:#000000;stroke-linecap:square;stroke-linejoin:miter;"/>
   </g>
   <g id="patch_4">
    <path d="
M505.106 368.742
L505.106 23.1417" style="fill:none;stroke:#000000;stroke-linecap:square;stroke-linejoin:miter;"/>
   </g>
   <g id="patch_5">
    <path d="
M58.7063 368.742
L505.106 368.742" style="fill:none;stroke:#000000;stroke-linecap:square;stroke-linejoin:miter;"/>
   </g>
   <g id="patch_6">
    <path d="
M58.7063 368.742
L58.7063 23.1417" style="fill:none;stroke:#000000;stroke-linecap:square;stroke-linejoin:miter;"/>
   </g>
   <g id="matplotlib.axis_1">
    <g id="xtick_1">
     <g id="line2d_4">
      <defs>
       <path d="
M0 0
L0 -4" id="m93b0483c22" style="stroke:#000000;stroke-width:0.5;"/>
      </defs>
      <g>
       <use style="stroke:#000000;stroke-width:0.5;" x="58.70625" xlink:href="#m93b0483c22" y="368.74175"/>
      </g>
     </g>
     <g id="line2d_5">
      <defs>
       <path d="
M0 0
L0 4" id="m741efc42ff" style="stroke:#000000;stroke-width:0.5;"/>
      </defs>
      <g>
       <use style="stroke:#000000;stroke-width:0.5;" x="58.70625" xlink:href="#m741efc42ff" y="23.14175"/>
      </g>
     </g>
     <g id="text_1">
      <!-- 0 -->
      <defs>
       <path d="
M31.7812 66.4062
Q24.1719 66.4062 20.3281 58.9062
Q16.5 51.4219 16.5 36.375
Q16.5 21.3906 20.3281 13.8906
Q24.1719 6.39062 31.7812 6.39062
Q39.4531 6.39062 43.2812 13.8906
Q47.125 21.3906 47.125 36.375
Q47.125 51.4219 43.2812 58.9062
Q39.4531 66.4062 31.7812 66.4062
M31.7812 74.2188
Q44.0469 74.2188 50.5156 64.5156
Q56.9844 54.8281 56.9844 36.375
Q56.9844 17.9688 50.5156 8.26562
Q44.0469 -1.42188 31.7812 -1.42188
Q19.5312 -1.42188 13.0625 8.26562
Q6.59375 17.9688 6.59375 36.375
Q6.59375 54.8281 13.0625 64.5156
Q19.5312 74.2188 31.7812 74.2188" id="BitstreamVeraSans-Roman-30"/>
      </defs>
      <g transform="translate(55.6828125 381.859875)scale(0.12 -0.12)">
       <use xlink:href="#BitstreamVeraSans-Roman-30"/>
      </g>
     </g>
    </g>
    <g id="xtick_2">
     <g id="line2d_6">
      <g>
       <use style="stroke:#000000;stroke-width:0.5;" x="119.856934932" xlink:href="#m93b0483c22" y="368.74175"/>
      </g>
     </g>
     <g id="line2d_7">
      <g>
       <use style="stroke:#000000;stroke-width:0.5;" x="119.856934932" xlink:href="#m741efc42ff" y="23.14175"/>
      </g>
     </g>
     <g id="text_2">
      <!-- 50 -->
      <defs>
       <path d="
M10.7969 72.9062
L49.5156 72.9062
L49.5156 64.5938
L19.8281 64.5938
L19.8281 46.7344
Q21.9688 47.4688 24.1094 47.8281
Q26.2656 48.1875 28.4219 48.1875
Q40.625 48.1875 47.75 41.5
Q54.8906 34.8125 54.8906 23.3906
Q54.8906 11.625 47.5625 5.09375
Q40.2344 -1.42188 26.9062 -1.42188
Q22.3125 -1.42188 17.5469 -0.640625
Q12.7969 0.140625 7.71875 1.70312
L7.71875 11.625
Q12.1094 9.23438 16.7969 8.0625
Q21.4844 6.89062 26.7031 6.89062
Q35.1562 6.89062 40.0781 11.3281
Q45.0156 15.7656 45.0156 23.3906
Q45.0156 31 40.0781 35.4375
Q35.1562 39.8906 26.7031 39.8906
Q22.75 39.8906 18.8125 39.0156
Q14.8906 38.1406 10.7969 36.2812
z
" id="BitstreamVeraSans-Roman-35"/>
      </defs>
      <g transform="translate(113.083497432 381.859875)scale(0.12 -0.12)">
       <use xlink:href="#BitstreamVeraSans-Roman-35"/>
       <use x="63.623046875" xlink:href="#BitstreamVeraSans-Roman-30"/>
      </g>
     </g>
    </g>
    <g id="xtick_3">
     <g id="line2d_8">
      <g>
       <use style="stroke:#000000;stroke-width:0.5;" x="181.007619863" xlink:href="#m93b0483c22" y="368.74175"/>
      </g>
     </g>
     <g id="line2d_9">
      <g>
       <use style="stroke:#000000;stroke-width:0.5;" x="181.007619863" xlink:href="#m741efc42ff" y="23.14175"/>
      </g>
     </g>
     <g id="text_3">
      <!-- 100 -->
      <defs>
       <path d="
M12.4062 8.29688
L28.5156 8.29688
L28.5156 63.9219
L10.9844 60.4062
L10.9844 69.3906
L28.4219 72.9062
L38.2812 72.9062
L38.2812 8.29688
L54.3906 8.29688
L54.3906 0
L12.4062 0
z
" id="BitstreamVeraSans-Roman-31"/>
      </defs>
      <g transform="translate(170.612619863 381.859875)scale(0.12 -0.12)">
       <use xlink:href="#BitstreamVeraSans-Roman-31"/>
       <use x="63.623046875" xlink:href="#BitstreamVeraSans-Roman-30"/>
       <use x="127.24609375" xlink:href="#BitstreamVeraSans-Roman-30"/>
      </g>
     </g>
    </g>
    <g id="xtick_4">
     <g id="line2d_10">
      <g>
       <use style="stroke:#000000;stroke-width:0.5;" x="242.158304795" xlink:href="#m93b0483c22" y="368.74175"/>
      </g>
     </g>
     <g id="line2d_11">
      <g>
       <use style="stroke:#000000;stroke-width:0.5;" x="242.158304795" xlink:href="#m741efc42ff" y="23.14175"/>
      </g>
     </g>
     <g id="text_4">
      <!-- 150 -->
      <g transform="translate(231.763304795 381.859875)scale(0.12 -0.12)">
       <use xlink:href="#BitstreamVeraSans-Roman-31"/>
       <use x="63.623046875" xlink:href="#BitstreamVeraSans-Roman-35"/>
       <use x="127.24609375" xlink:href="#BitstreamVeraSans-Roman-30"/>
      </g>
     </g>
    </g>
    <g id="xtick_5">
     <g id="line2d_12">
      <g>
       <use style="stroke:#000000;stroke-width:0.5;" x="303.308989726" xlink:href="#m93b0483c22" y="368.74175"/>
      </g>
     </g>
     <g id="line2d_13">
      <g>
       <use style="stroke:#000000;stroke-width:0.5;" x="303.308989726" xlink:href="#m741efc42ff" y="23.14175"/>
      </g>
     </g>
     <g id="text_5">
      <!-- 200 -->
      <defs>
       <path d="
M19.1875 8.29688
L53.6094 8.29688
L53.6094 0
L7.32812 0
L7.32812 8.29688
Q12.9375 14.1094 22.625 23.8906
Q32.3281 33.6875 34.8125 36.5312
Q39.5469 41.8438 41.4219 45.5312
Q43.3125 49.2188 43.3125 52.7812
Q43.3125 58.5938 39.2344 62.25
Q35.1562 65.9219 28.6094 65.9219
Q23.9688 65.9219 18.8125 64.3125
Q13.6719 62.7031 7.8125 59.4219
L7.8125 69.3906
Q13.7656 71.7812 18.9375 73
Q24.125 74.2188 28.4219 74.2188
Q39.75 74.2188 46.4844 68.5469
Q53.2188 62.8906 53.2188 53.4219
Q53.2188 48.9219 51.5312 44.8906
Q49.8594 40.875 45.4062 35.4062
Q44.1875 33.9844 37.6406 27.2188
Q31.1094 20.4531 19.1875 8.29688" id="BitstreamVeraSans-Roman-32"/>
      </defs>
      <g transform="translate(292.694614726 381.859875)scale(0.12 -0.12)">
       <use xlink:href="#BitstreamVeraSans-Roman-32"/>
       <use x="63.623046875" xlink:href="#BitstreamVeraSans-Roman-30"/>
       <use x="127.24609375" xlink:href="#BitstreamVeraSans-Roman-30"/>
      </g>
     </g>
    </g>
    <g id="xtick_6">
     <g id="line2d_14">
      <g>
       <use style="stroke:#000000;stroke-width:0.5;" x="364.459674658" xlink:href="#m93b0483c22" y="368.74175"/>
      </g>
     </g>
     <g id="line2d_15">
      <g>
       <use style="stroke:#000000;stroke-width:0.5;" x="364.459674658" xlink:href="#m741efc42ff" y="23.14175"/>
      </g>
     </g>
     <g id="text_6">
      <!-- 250 -->
      <g transform="translate(353.845299658 381.859875)scale(0.12 -0.12)">
       <use xlink:href="#BitstreamVeraSans-Roman-32"/>
       <use x="63.623046875" xlink:href="#BitstreamVeraSans-Roman-35"/>
       <use x="127.24609375" xlink:href="#BitstreamVeraSans-Roman-30"/>
      </g>
     </g>
    </g>
    <g id="xtick_7">
     <g id="line2d_16">
      <g>
       <use style="stroke:#000000;stroke-width:0.5;" x="425.610359589" xlink:href="#m93b0483c22" y="368.74175"/>
      </g>
     </g>
     <g id="line2d_17">
      <g>
       <use style="stroke:#000000;stroke-width:0.5;" x="425.610359589" xlink:href="#m741efc42ff" y="23.14175"/>
      </g>
     </g>
     <g id="text_7">
      <!-- 300 -->
      <defs>
       <path d="
M40.5781 39.3125
Q47.6562 37.7969 51.625 33
Q55.6094 28.2188 55.6094 21.1875
Q55.6094 10.4062 48.1875 4.48438
Q40.7656 -1.42188 27.0938 -1.42188
Q22.5156 -1.42188 17.6562 -0.515625
Q12.7969 0.390625 7.625 2.20312
L7.625 11.7188
Q11.7188 9.32812 16.5938 8.10938
Q21.4844 6.89062 26.8125 6.89062
Q36.0781 6.89062 40.9375 10.5469
Q45.7969 14.2031 45.7969 21.1875
Q45.7969 27.6406 41.2812 31.2656
Q36.7656 34.9062 28.7188 34.9062
L20.2188 34.9062
L20.2188 43.0156
L29.1094 43.0156
Q36.375 43.0156 40.2344 45.9219
Q44.0938 48.8281 44.0938 54.2969
Q44.0938 59.9062 40.1094 62.9062
Q36.1406 65.9219 28.7188 65.9219
Q24.6562 65.9219 20.0156 65.0312
Q15.375 64.1562 9.8125 62.3125
L9.8125 71.0938
Q15.4375 72.6562 20.3438 73.4375
Q25.25 74.2188 29.5938 74.2188
Q40.8281 74.2188 47.3594 69.1094
Q53.9062 64.0156 53.9062 55.3281
Q53.9062 49.2656 50.4375 45.0938
Q46.9688 40.9219 40.5781 39.3125" id="BitstreamVeraSans-Roman-33"/>
      </defs>
      <g transform="translate(415.013797089 381.859875)scale(0.12 -0.12)">
       <use xlink:href="#BitstreamVeraSans-Roman-33"/>
       <use x="63.623046875" xlink:href="#BitstreamVeraSans-Roman-30"/>
       <use x="127.24609375" xlink:href="#BitstreamVeraSans-Roman-30"/>
      </g>
     </g>
    </g>
    <g id="xtick_8">
     <g id="line2d_18">
      <g>
       <use style="stroke:#000000;stroke-width:0.5;" x="486.761044521" xlink:href="#m93b0483c22" y="368.74175"/>
      </g>
     </g>
     <g id="line2d_19">
      <g>
       <use style="stroke:#000000;stroke-width:0.5;" x="486.761044521" xlink:href="#m741efc42ff" y="23.14175"/>
      </g>
     </g>
     <g id="text_8">
      <!-- 350 -->
      <g transform="translate(476.164482021 381.859875)scale(0.12 -0.12)">
       <use xlink:href="#BitstreamVeraSans-Roman-33"/>
       <use x="63.623046875" xlink:href="#BitstreamVeraSans-Roman-35"/>
       <use x="127.24609375" xlink:href="#BitstreamVeraSans-Roman-30"/>
      </g>
     </g>
    </g>
    <g id="text_9">
     <!-- Julian day -->
     <defs>
      <path id="BitstreamVeraSans-Roman-20"/>
      <path d="
M9.8125 72.9062
L19.6719 72.9062
L19.6719 5.07812
Q19.6719 -8.10938 14.6719 -14.0625
Q9.67188 -20.0156 -1.42188 -20.0156
L-5.17188 -20.0156
L-5.17188 -11.7188
L-2.09375 -11.7188
Q4.4375 -11.7188 7.125 -8.04688
Q9.8125 -4.39062 9.8125 5.07812
z
" id="BitstreamVeraSans-Roman-4a"/>
      <path d="
M54.8906 33.0156
L54.8906 0
L45.9062 0
L45.9062 32.7188
Q45.9062 40.4844 42.875 44.3281
Q39.8438 48.1875 33.7969 48.1875
Q26.5156 48.1875 22.3125 43.5469
Q18.1094 38.9219 18.1094 30.9062
L18.1094 0
L9.07812 0
L9.07812 54.6875
L18.1094 54.6875
L18.1094 46.1875
Q21.3438 51.125 25.7031 53.5625
Q30.0781 56 35.7969 56
Q45.2188 56 50.0469 50.1719
Q54.8906 44.3438 54.8906 33.0156" id="BitstreamVeraSans-Roman-6e"/>
      <path d="
M9.42188 75.9844
L18.4062 75.9844
L18.4062 0
L9.42188 0
z
" id="BitstreamVeraSans-Roman-6c"/>
      <path d="
M9.42188 54.6875
L18.4062 54.6875
L18.4062 0
L9.42188 0
z

M9.42188 75.9844
L18.4062 75.9844
L18.4062 64.5938
L9.42188 64.5938
z
" id="BitstreamVeraSans-Roman-69"/>
      <path d="
M32.1719 -5.07812
Q28.375 -14.8438 24.75 -17.8125
Q21.1406 -20.7969 15.0938 -20.7969
L7.90625 -20.7969
L7.90625 -13.2812
L13.1875 -13.2812
Q16.8906 -13.2812 18.9375 -11.5156
Q21 -9.76562 23.4844 -3.21875
L25.0938 0.875
L2.98438 54.6875
L12.5 54.6875
L29.5938 11.9219
L46.6875 54.6875
L56.2031 54.6875
z
" id="BitstreamVeraSans-Roman-79"/>
      <path d="
M45.4062 46.3906
L45.4062 75.9844
L54.3906 75.9844
L54.3906 0
L45.4062 0
L45.4062 8.20312
Q42.5781 3.32812 38.25 0.953125
Q33.9375 -1.42188 27.875 -1.42188
Q17.9688 -1.42188 11.7344 6.48438
Q5.51562 14.4062 5.51562 27.2969
Q5.51562 40.1875 11.7344 48.0938
Q17.9688 56 27.875 56
Q33.9375 56 38.25 53.625
Q42.5781 51.2656 45.4062 46.3906
M14.7969 27.2969
Q14.7969 17.3906 18.875 11.75
Q22.9531 6.10938 30.0781 6.10938
Q37.2031 6.10938 41.2969 11.75
Q45.4062 17.3906 45.4062 27.2969
Q45.4062 37.2031 41.2969 42.8438
Q37.2031 48.4844 30.0781 48.4844
Q22.9531 48.4844 18.875 42.8438
Q14.7969 37.2031 14.7969 27.2969" id="BitstreamVeraSans-Roman-64"/>
      <path d="
M8.5 21.5781
L8.5 54.6875
L17.4844 54.6875
L17.4844 21.9219
Q17.4844 14.1562 20.5 10.2656
Q23.5312 6.39062 29.5938 6.39062
Q36.8594 6.39062 41.0781 11.0312
Q45.3125 15.6719 45.3125 23.6875
L45.3125 54.6875
L54.2969 54.6875
L54.2969 0
L45.3125 0
L45.3125 8.40625
Q42.0469 3.42188 37.7188 1
Q33.4062 -1.42188 27.6875 -1.42188
Q18.2656 -1.42188 13.375 4.4375
Q8.5 10.2969 8.5 21.5781" id="BitstreamVeraSans-Roman-75"/>
      <path d="
M34.2812 27.4844
Q23.3906 27.4844 19.1875 25
Q14.9844 22.5156 14.9844 16.5
Q14.9844 11.7188 18.1406 8.90625
Q21.2969 6.10938 26.7031 6.10938
Q34.1875 6.10938 38.7031 11.4062
Q43.2188 16.7031 43.2188 25.4844
L43.2188 27.4844
z

M52.2031 31.2031
L52.2031 0
L43.2188 0
L43.2188 8.29688
Q40.1406 3.32812 35.5469 0.953125
Q30.9531 -1.42188 24.3125 -1.42188
Q15.9219 -1.42188 10.9531 3.29688
Q6 8.01562 6 15.9219
Q6 25.1406 12.1719 29.8281
Q18.3594 34.5156 30.6094 34.5156
L43.2188 34.5156
L43.2188 35.4062
Q43.2188 41.6094 39.1406 45
Q35.0625 48.3906 27.6875 48.3906
Q23 48.3906 18.5469 47.2656
Q14.1094 46.1406 10.0156 43.8906
L10.0156 52.2031
Q14.9375 54.1094 19.5781 55.0469
Q24.2188 56 28.6094 56
Q40.4844 56 46.3438 49.8438
Q52.2031 43.7031 52.2031 31.2031" id="BitstreamVeraSans-Roman-61"/>
     </defs>
     <g transform="translate(252.4453125 398.473625)scale(0.12 -0.12)">
      <use xlink:href="#BitstreamVeraSans-Roman-4a"/>
      <use x="29.4921875" xlink:href="#BitstreamVeraSans-Roman-75"/>
      <use x="92.87109375" xlink:href="#BitstreamVeraSans-Roman-6c"/>
      <use x="120.654296875" xlink:href="#BitstreamVeraSans-Roman-69"/>
      <use x="148.4375" xlink:href="#BitstreamVeraSans-Roman-61"/>
      <use x="209.716796875" xlink:href="#BitstreamVeraSans-Roman-6e"/>
      <use x="273.095703125" xlink:href="#BitstreamVeraSans-Roman-20"/>
      <use x="304.8828125" xlink:href="#BitstreamVeraSans-Roman-64"/>
      <use x="368.359375" xlink:href="#BitstreamVeraSans-Roman-61"/>
      <use x="429.638671875" xlink:href="#BitstreamVeraSans-Roman-79"/>
     </g>
    </g>
   </g>
   <g id="matplotlib.axis_2">
    <g id="ytick_1">
     <g id="line2d_20">
      <defs>
       <path d="
M0 0
L4 0" id="m728421d6d4" style="stroke:#000000;stroke-width:0.5;"/>
      </defs>
      <g>
       <use style="stroke:#000000;stroke-width:0.5;" x="58.70625" xlink:href="#m728421d6d4" y="368.74175"/>
      </g>
     </g>
     <g id="line2d_21">
      <defs>
       <path d="
M0 0
L-4 0" id="mcb0005524f" style="stroke:#000000;stroke-width:0.5;"/>
      </defs>
      <g>
       <use style="stroke:#000000;stroke-width:0.5;" x="505.10625" xlink:href="#mcb0005524f" y="368.74175"/>
      </g>
     </g>
     <g id="text_10">
      <!-- −100 -->
      <defs>
       <path d="
M10.5938 35.5
L73.1875 35.5
L73.1875 27.2031
L10.5938 27.2031
z
" id="BitstreamVeraSans-Roman-2212"/>
      </defs>
      <g transform="translate(23.81375 372.053)scale(0.12 -0.12)">
       <use xlink:href="#BitstreamVeraSans-Roman-2212"/>
       <use x="83.7890625" xlink:href="#BitstreamVeraSans-Roman-31"/>
       <use x="147.412109375" xlink:href="#BitstreamVeraSans-Roman-30"/>
       <use x="211.03515625" xlink:href="#BitstreamVeraSans-Roman-30"/>
      </g>
     </g>
    </g>
    <g id="ytick_2">
     <g id="line2d_22">
      <g>
       <use style="stroke:#000000;stroke-width:0.5;" x="58.70625" xlink:href="#m728421d6d4" y="282.34175"/>
      </g>
     </g>
     <g id="line2d_23">
      <g>
       <use style="stroke:#000000;stroke-width:0.5;" x="505.10625" xlink:href="#mcb0005524f" y="282.34175"/>
      </g>
     </g>
     <g id="text_11">
      <!-- −50 -->
      <g transform="translate(31.44875 285.653)scale(0.12 -0.12)">
       <use xlink:href="#BitstreamVeraSans-Roman-2212"/>
       <use x="83.7890625" xlink:href="#BitstreamVeraSans-Roman-35"/>
       <use x="147.412109375" xlink:href="#BitstreamVeraSans-Roman-30"/>
      </g>
     </g>
    </g>
    <g id="ytick_3">
     <g id="line2d_24">
      <g>
       <use style="stroke:#000000;stroke-width:0.5;" x="58.70625" xlink:href="#m728421d6d4" y="195.94175"/>
      </g>
     </g>
     <g id="line2d_25">
      <g>
       <use style="stroke:#000000;stroke-width:0.5;" x="505.10625" xlink:href="#mcb0005524f" y="195.94175"/>
      </g>
     </g>
     <g id="text_12">
      <!-- 0 -->
      <g transform="translate(48.659375 199.253)scale(0.12 -0.12)">
       <use xlink:href="#BitstreamVeraSans-Roman-30"/>
      </g>
     </g>
    </g>
    <g id="ytick_4">
     <g id="line2d_26">
      <g>
       <use style="stroke:#000000;stroke-width:0.5;" x="58.70625" xlink:href="#m728421d6d4" y="109.54175"/>
      </g>
     </g>
     <g id="line2d_27">
      <g>
       <use style="stroke:#000000;stroke-width:0.5;" x="505.10625" xlink:href="#mcb0005524f" y="109.54175"/>
      </g>
     </g>
     <g id="text_13">
      <!-- 50 -->
      <g transform="translate(41.159375 112.853)scale(0.12 -0.12)">
       <use xlink:href="#BitstreamVeraSans-Roman-35"/>
       <use x="63.623046875" xlink:href="#BitstreamVeraSans-Roman-30"/>
      </g>
     </g>
    </g>
    <g id="ytick_5">
     <g id="line2d_28">
      <g>
       <use style="stroke:#000000;stroke-width:0.5;" x="58.70625" xlink:href="#m728421d6d4" y="23.14175"/>
      </g>
     </g>
     <g id="line2d_29">
      <g>
       <use style="stroke:#000000;stroke-width:0.5;" x="505.10625" xlink:href="#mcb0005524f" y="23.14175"/>
      </g>
     </g>
     <g id="text_14">
      <!-- 100 -->
      <g transform="translate(33.91625 26.453)scale(0.12 -0.12)">
       <use xlink:href="#BitstreamVeraSans-Roman-31"/>
       <use x="63.623046875" xlink:href="#BitstreamVeraSans-Roman-30"/>
       <use x="127.24609375" xlink:href="#BitstreamVeraSans-Roman-30"/>
      </g>
     </g>
    </g>
    <g id="text_15">
     <!-- PET (mm/day) -->
     <defs>
      <path d="
M52 44.1875
Q55.375 50.25 60.0625 53.125
Q64.75 56 71.0938 56
Q79.6406 56 84.2812 50.0156
Q88.9219 44.0469 88.9219 33.0156
L88.9219 0
L79.8906 0
L79.8906 32.7188
Q79.8906 40.5781 77.0938 44.375
Q74.3125 48.1875 68.6094 48.1875
Q61.625 48.1875 57.5625 43.5469
Q53.5156 38.9219 53.5156 30.9062
L53.5156 0
L44.4844 0
L44.4844 32.7188
Q44.4844 40.625 41.7031 44.4062
Q38.9219 48.1875 33.1094 48.1875
Q26.2188 48.1875 22.1562 43.5312
Q18.1094 38.875 18.1094 30.9062
L18.1094 0
L9.07812 0
L9.07812 54.6875
L18.1094 54.6875
L18.1094 46.1875
Q21.1875 51.2188 25.4844 53.6094
Q29.7812 56 35.6875 56
Q41.6562 56 45.8281 52.9688
Q50 49.9531 52 44.1875" id="BitstreamVeraSans-Roman-6d"/>
      <path d="
M8.01562 75.875
L15.8281 75.875
Q23.1406 64.3594 26.7812 53.3125
Q30.4219 42.2812 30.4219 31.3906
Q30.4219 20.4531 26.7812 9.375
Q23.1406 -1.70312 15.8281 -13.1875
L8.01562 -13.1875
Q14.5 -2 17.7031 9.0625
Q20.9062 20.125 20.9062 31.3906
Q20.9062 42.6719 17.7031 53.6562
Q14.5 64.6562 8.01562 75.875" id="BitstreamVeraSans-Roman-29"/>
      <path d="
M31 75.875
Q24.4688 64.6562 21.2812 53.6562
Q18.1094 42.6719 18.1094 31.3906
Q18.1094 20.125 21.3125 9.0625
Q24.5156 -2 31 -13.1875
L23.1875 -13.1875
Q15.875 -1.70312 12.2344 9.375
Q8.59375 20.4531 8.59375 31.3906
Q8.59375 42.2812 12.2031 53.3125
Q15.8281 64.3594 23.1875 75.875
z
" id="BitstreamVeraSans-Roman-28"/>
      <path d="
M19.6719 64.7969
L19.6719 37.4062
L32.0781 37.4062
Q38.9688 37.4062 42.7188 40.9688
Q46.4844 44.5312 46.4844 51.125
Q46.4844 57.6719 42.7188 61.2344
Q38.9688 64.7969 32.0781 64.7969
z

M9.8125 72.9062
L32.0781 72.9062
Q44.3438 72.9062 50.6094 67.3594
Q56.8906 61.8125 56.8906 51.125
Q56.8906 40.3281 50.6094 34.8125
Q44.3438 29.2969 32.0781 29.2969
L19.6719 29.2969
L19.6719 0
L9.8125 0
z
" id="BitstreamVeraSans-Roman-50"/>
      <path d="
M9.8125 72.9062
L55.9062 72.9062
L55.9062 64.5938
L19.6719 64.5938
L19.6719 43.0156
L54.3906 43.0156
L54.3906 34.7188
L19.6719 34.7188
L19.6719 8.29688
L56.7812 8.29688
L56.7812 0
L9.8125 0
z
" id="BitstreamVeraSans-Roman-45"/>
      <path d="
M-0.296875 72.9062
L61.375 72.9062
L61.375 64.5938
L35.5 64.5938
L35.5 0
L25.5938 0
L25.5938 64.5938
L-0.296875 64.5938
z
" id="BitstreamVeraSans-Roman-54"/>
      <path d="
M25.3906 72.9062
L33.6875 72.9062
L8.29688 -9.28125
L0 -9.28125
z
" id="BitstreamVeraSans-Roman-2f"/>
     </defs>
     <g transform="translate(16.318125 237.8358125)rotate(-90.0)scale(0.12 -0.12)">
      <use xlink:href="#BitstreamVeraSans-Roman-50"/>
      <use x="60.302734375" xlink:href="#BitstreamVeraSans-Roman-45"/>
      <use x="123.486328125" xlink:href="#BitstreamVeraSans-Roman-54"/>
      <use x="184.5703125" xlink:href="#BitstreamVeraSans-Roman-20"/>
      <use x="216.357421875" xlink:href="#BitstreamVeraSans-Roman-28"/>
      <use x="255.37109375" xlink:href="#BitstreamVeraSans-Roman-6d"/>
      <use x="352.783203125" xlink:href="#BitstreamVeraSans-Roman-6d"/>
      <use x="450.1953125" xlink:href="#BitstreamVeraSans-Roman-2f"/>
      <use x="483.88671875" xlink:href="#BitstreamVeraSans-Roman-64"/>
      <use x="547.36328125" xlink:href="#BitstreamVeraSans-Roman-61"/>
      <use x="608.642578125" xlink:href="#BitstreamVeraSans-Roman-79"/>
      <use x="667.822265625" xlink:href="#BitstreamVeraSans-Roman-29"/>
     </g>
    </g>
   </g>
   <g id="text_16">
    <!-- daily shrub PET at BRWtemp -->
    <defs>
     <path d="
M54.8906 33.0156
L54.8906 0
L45.9062 0
L45.9062 32.7188
Q45.9062 40.4844 42.875 44.3281
Q39.8438 48.1875 33.7969 48.1875
Q26.5156 48.1875 22.3125 43.5469
Q18.1094 38.9219 18.1094 30.9062
L18.1094 0
L9.07812 0
L9.07812 75.9844
L18.1094 75.9844
L18.1094 46.1875
Q21.3438 51.125 25.7031 53.5625
Q30.0781 56 35.7969 56
Q45.2188 56 50.0469 50.1719
Q54.8906 44.3438 54.8906 33.0156" id="BitstreamVeraSans-Roman-68"/>
     <path d="
M44.3906 34.1875
Q47.5625 33.1094 50.5625 29.5938
Q53.5625 26.0781 56.5938 19.9219
L66.6094 0
L56 0
L46.6875 18.7031
Q43.0625 26.0312 39.6719 28.4219
Q36.2812 30.8125 30.4219 30.8125
L19.6719 30.8125
L19.6719 0
L9.8125 0
L9.8125 72.9062
L32.0781 72.9062
Q44.5781 72.9062 50.7344 67.6719
Q56.8906 62.4531 56.8906 51.9062
Q56.8906 45.0156 53.6875 40.4688
Q50.4844 35.9375 44.3906 34.1875
M19.6719 64.7969
L19.6719 38.9219
L32.0781 38.9219
Q39.2031 38.9219 42.8438 42.2188
Q46.4844 45.5156 46.4844 51.9062
Q46.4844 58.2969 42.8438 61.5469
Q39.2031 64.7969 32.0781 64.7969
z
" id="BitstreamVeraSans-Roman-52"/>
     <path d="
M19.6719 34.8125
L19.6719 8.10938
L35.5 8.10938
Q43.4531 8.10938 47.2812 11.4062
Q51.125 14.7031 51.125 21.4844
Q51.125 28.3281 47.2812 31.5625
Q43.4531 34.8125 35.5 34.8125
z

M19.6719 64.7969
L19.6719 42.8281
L34.2812 42.8281
Q41.5 42.8281 45.0312 45.5312
Q48.5781 48.25 48.5781 53.8125
Q48.5781 59.3281 45.0312 62.0625
Q41.5 64.7969 34.2812 64.7969
z

M9.8125 72.9062
L35.0156 72.9062
Q46.2969 72.9062 52.3906 68.2188
Q58.5 63.5312 58.5 54.8906
Q58.5 48.1875 55.375 44.2344
Q52.25 40.2812 46.1875 39.3125
Q53.4688 37.75 57.5 32.7812
Q61.5312 27.8281 61.5312 20.4062
Q61.5312 10.6406 54.8906 5.3125
Q48.25 0 35.9844 0
L9.8125 0
z
" id="BitstreamVeraSans-Roman-42"/>
     <path d="
M3.32812 72.9062
L13.2812 72.9062
L28.6094 11.2812
L43.8906 72.9062
L54.9844 72.9062
L70.3125 11.2812
L85.5938 72.9062
L95.6094 72.9062
L77.2969 0
L64.8906 0
L49.5156 63.2812
L33.9844 0
L21.5781 0
z
" id="BitstreamVeraSans-Roman-57"/>
     <path d="
M56.2031 29.5938
L56.2031 25.2031
L14.8906 25.2031
Q15.4844 15.9219 20.4844 11.0625
Q25.4844 6.20312 34.4219 6.20312
Q39.5938 6.20312 44.4531 7.46875
Q49.3125 8.73438 54.1094 11.2812
L54.1094 2.78125
Q49.2656 0.734375 44.1875 -0.34375
Q39.1094 -1.42188 33.8906 -1.42188
Q20.7969 -1.42188 13.1562 6.1875
Q5.51562 13.8125 5.51562 26.8125
Q5.51562 40.2344 12.7656 48.1094
Q20.0156 56 32.3281 56
Q43.3594 56 49.7812 48.8906
Q56.2031 41.7969 56.2031 29.5938
M47.2188 32.2344
Q47.125 39.5938 43.0938 43.9844
Q39.0625 48.3906 32.4219 48.3906
Q24.9062 48.3906 20.3906 44.1406
Q15.875 39.8906 15.1875 32.1719
z
" id="BitstreamVeraSans-Roman-65"/>
     <path d="
M18.3125 70.2188
L18.3125 54.6875
L36.8125 54.6875
L36.8125 47.7031
L18.3125 47.7031
L18.3125 18.0156
Q18.3125 11.3281 20.1406 9.42188
Q21.9688 7.51562 27.5938 7.51562
L36.8125 7.51562
L36.8125 0
L27.5938 0
Q17.1875 0 13.2344 3.875
Q9.28125 7.76562 9.28125 18.0156
L9.28125 47.7031
L2.6875 47.7031
L2.6875 54.6875
L9.28125 54.6875
L9.28125 70.2188
z
" id="BitstreamVeraSans-Roman-74"/>
     <path d="
M41.1094 46.2969
Q39.5938 47.1719 37.8125 47.5781
Q36.0312 48 33.8906 48
Q26.2656 48 22.1875 43.0469
Q18.1094 38.0938 18.1094 28.8125
L18.1094 0
L9.07812 0
L9.07812 54.6875
L18.1094 54.6875
L18.1094 46.1875
Q20.9531 51.1719 25.4844 53.5781
Q30.0312 56 36.5312 56
Q37.4531 56 38.5781 55.875
Q39.7031 55.7656 41.0625 55.5156
z
" id="BitstreamVeraSans-Roman-72"/>
     <path d="
M44.2812 53.0781
L44.2812 44.5781
Q40.4844 46.5312 36.375 47.5
Q32.2812 48.4844 27.875 48.4844
Q21.1875 48.4844 17.8438 46.4375
Q14.5 44.3906 14.5 40.2812
Q14.5 37.1562 16.8906 35.375
Q19.2812 33.5938 26.5156 31.9844
L29.5938 31.2969
Q39.1562 29.25 43.1875 25.5156
Q47.2188 21.7812 47.2188 15.0938
Q47.2188 7.46875 41.1875 3.01562
Q35.1562 -1.42188 24.6094 -1.42188
Q20.2188 -1.42188 15.4531 -0.5625
Q10.6875 0.296875 5.42188 2
L5.42188 11.2812
Q10.4062 8.6875 15.2344 7.39062
Q20.0625 6.10938 24.8125 6.10938
Q31.1562 6.10938 34.5625 8.28125
Q37.9844 10.4531 37.9844 14.4062
Q37.9844 18.0625 35.5156 20.0156
Q33.0625 21.9688 24.7031 23.7812
L21.5781 24.5156
Q13.2344 26.2656 9.51562 29.9062
Q5.8125 33.5469 5.8125 39.8906
Q5.8125 47.6094 11.2812 51.7969
Q16.75 56 26.8125 56
Q31.7812 56 36.1719 55.2656
Q40.5781 54.5469 44.2812 53.0781" id="BitstreamVeraSans-Roman-73"/>
     <path d="
M18.1094 8.20312
L18.1094 -20.7969
L9.07812 -20.7969
L9.07812 54.6875
L18.1094 54.6875
L18.1094 46.3906
Q20.9531 51.2656 25.2656 53.625
Q29.5938 56 35.5938 56
Q45.5625 56 51.7812 48.0938
Q58.0156 40.1875 58.0156 27.2969
Q58.0156 14.4062 51.7812 6.48438
Q45.5625 -1.42188 35.5938 -1.42188
Q29.5938 -1.42188 25.2656 0.953125
Q20.9531 3.32812 18.1094 8.20312
M48.6875 27.2969
Q48.6875 37.2031 44.6094 42.8438
Q40.5312 48.4844 33.4062 48.4844
Q26.2656 48.4844 22.1875 42.8438
Q18.1094 37.2031 18.1094 27.2969
Q18.1094 17.3906 22.1875 11.75
Q26.2656 6.10938 33.4062 6.10938
Q40.5312 6.10938 44.6094 11.75
Q48.6875 17.3906 48.6875 27.2969" id="BitstreamVeraSans-Roman-70"/>
     <path d="
M48.6875 27.2969
Q48.6875 37.2031 44.6094 42.8438
Q40.5312 48.4844 33.4062 48.4844
Q26.2656 48.4844 22.1875 42.8438
Q18.1094 37.2031 18.1094 27.2969
Q18.1094 17.3906 22.1875 11.75
Q26.2656 6.10938 33.4062 6.10938
Q40.5312 6.10938 44.6094 11.75
Q48.6875 17.3906 48.6875 27.2969
M18.1094 46.3906
Q20.9531 51.2656 25.2656 53.625
Q29.5938 56 35.5938 56
Q45.5625 56 51.7812 48.0938
Q58.0156 40.1875 58.0156 27.2969
Q58.0156 14.4062 51.7812 6.48438
Q45.5625 -1.42188 35.5938 -1.42188
Q29.5938 -1.42188 25.2656 0.953125
Q20.9531 3.32812 18.1094 8.20312
L18.1094 0
L9.07812 0
L9.07812 75.9844
L18.1094 75.9844
z
" id="BitstreamVeraSans-Roman-62"/>
    </defs>
    <g transform="translate(179.36025 18.14175)scale(0.144 -0.144)">
     <use xlink:href="#BitstreamVeraSans-Roman-64"/>
     <use x="63.4765625" xlink:href="#BitstreamVeraSans-Roman-61"/>
     <use x="124.755859375" xlink:href="#BitstreamVeraSans-Roman-69"/>
     <use x="152.5390625" xlink:href="#BitstreamVeraSans-Roman-6c"/>
     <use x="180.322265625" xlink:href="#BitstreamVeraSans-Roman-79"/>
     <use x="239.501953125" xlink:href="#BitstreamVeraSans-Roman-20"/>
     <use x="271.2890625" xlink:href="#BitstreamVeraSans-Roman-73"/>
     <use x="323.388671875" xlink:href="#BitstreamVeraSans-Roman-68"/>
     <use x="386.767578125" xlink:href="#BitstreamVeraSans-Roman-72"/>
     <use x="427.880859375" xlink:href="#BitstreamVeraSans-Roman-75"/>
     <use x="491.259765625" xlink:href="#BitstreamVeraSans-Roman-62"/>
     <use x="554.736328125" xlink:href="#BitstreamVeraSans-Roman-20"/>
     <use x="586.5234375" xlink:href="#BitstreamVeraSans-Roman-50"/>
     <use x="646.826171875" xlink:href="#BitstreamVeraSans-Roman-45"/>
     <use x="710.009765625" xlink:href="#BitstreamVeraSans-Roman-54"/>
     <use x="771.09375" xlink:href="#BitstreamVeraSans-Roman-20"/>
     <use x="802.880859375" xlink:href="#BitstreamVeraSans-Roman-61"/>
     <use x="864.16015625" xlink:href="#BitstreamVeraSans-Roman-74"/>
     <use x="903.369140625" xlink:href="#BitstreamVeraSans-Roman-20"/>
     <use x="935.15625" xlink:href="#BitstreamVeraSans-Roman-42"/>
     <use x="1003.75976562" xlink:href="#BitstreamVeraSans-Roman-52"/>
     <use x="1069.2421875" xlink:href="#BitstreamVeraSans-Roman-57"/>
     <use x="1168.11914062" xlink:href="#BitstreamVeraSans-Roman-74"/>
     <use x="1207.328125" xlink:href="#BitstreamVeraSans-Roman-65"/>
     <use x="1268.8515625" xlink:href="#BitstreamVeraSans-Roman-6d"/>
     <use x="1366.26367188" xlink:href="#BitstreamVeraSans-Roman-70"/>
    </g>
   </g>
   <g id="legend_1">
    <g id="patch_7">
     <path d="
M411.281 98.0712
L497.906 98.0712
L497.906 30.3417
L411.281 30.3417
z
" style="fill:#ffffff;stroke:#000000;stroke-linejoin:miter;"/>
    </g>
    <g id="line2d_30">
     <path d="
M421.361 42.0035
L441.521 42.0035" style="fill:none;stroke:#0000ff;stroke-linecap:square;"/>
    </g>
    <g id="line2d_31"/>
    <g id="text_17">
     <!-- 2012 -->
     <g transform="translate(457.36125 47.0435)scale(0.144 -0.144)">
      <use xlink:href="#BitstreamVeraSans-Roman-32"/>
      <use x="63.623046875" xlink:href="#BitstreamVeraSans-Roman-30"/>
      <use x="127.24609375" xlink:href="#BitstreamVeraSans-Roman-31"/>
      <use x="190.869140625" xlink:href="#BitstreamVeraSans-Roman-32"/>
     </g>
    </g>
    <g id="line2d_32">
     <path d="
M421.361 63.14
L441.521 63.14" style="fill:none;stroke:#008000;stroke-linecap:square;"/>
    </g>
    <g id="line2d_33"/>
    <g id="text_18">
     <!-- 2013 -->
     <g transform="translate(457.36125 68.18)scale(0.144 -0.144)">
      <use xlink:href="#BitstreamVeraSans-Roman-32"/>
      <use x="63.623046875" xlink:href="#BitstreamVeraSans-Roman-30"/>
      <use x="127.24609375" xlink:href="#BitstreamVeraSans-Roman-31"/>
      <use x="190.869140625" xlink:href="#BitstreamVeraSans-Roman-33"/>
     </g>
    </g>
    <g id="line2d_34">
     <path d="
M421.361 84.2765
L441.521 84.2765" style="fill:none;stroke:#ff0000;stroke-linecap:square;"/>
    </g>
    <g id="line2d_35"/>
    <g id="text_19">
     <!-- 2014 -->
     <defs>
      <path d="
M37.7969 64.3125
L12.8906 25.3906
L37.7969 25.3906
z

M35.2031 72.9062
L47.6094 72.9062
L47.6094 25.3906
L58.0156 25.3906
L58.0156 17.1875
L47.6094 17.1875
L47.6094 0
L37.7969 0
L37.7969 17.1875
L4.89062 17.1875
L4.89062 26.7031
z
" id="BitstreamVeraSans-Roman-34"/>
     </defs>
     <g transform="translate(457.36125 89.3165)scale(0.144 -0.144)">
      <use xlink:href="#BitstreamVeraSans-Roman-32"/>
      <use x="63.623046875" xlink:href="#BitstreamVeraSans-Roman-30"/>
      <use x="127.24609375" xlink:href="#BitstreamVeraSans-Roman-31"/>
      <use x="190.869140625" xlink:href="#BitstreamVeraSans-Roman-34"/>
     </g>
    </g>
   </g>
  </g>
 </g>
 <defs>
  <clipPath id="p550dbe29e8">
   <rect height="345.6" width="446.4" x="58.70625" y="23.14175"/>
  </clipPath>
 </defs>
</svg>
