<?xml version="1.0" encoding="utf-8" standalone="no"?>
<!DOCTYPE svg PUBLIC "-//W3C//DTD SVG 1.1//EN"
  "http://www.w3.org/Graphics/SVG/1.1/DTD/svg11.dtd">
<!-- Created with matplotlib (http://matplotlib.org/) -->
<svg height="408pt" version="1.1" viewBox="0 0 512 408" width="512pt" xmlns="http://www.w3.org/2000/svg" xmlns:xlink="http://www.w3.org/1999/xlink">
 <defs>
  <style type="text/css">
*{stroke-linecap:butt;stroke-linejoin:round;}
  </style>
 </defs>
 <g id="figure_1">
  <g id="patch_1">
   <path d="
M0 408.169
L512.306 408.169
L512.306 0
L0 0
z
" style="fill:#ffffff;"/>
  </g>
  <g id="axes_1">
   <g id="patch_2">
    <path d="
M58.7063 368.742
L505.106 368.742
L505.106 23.1417
L58.7063 23.1417
z
" style="fill:#ffffff;"/>
   </g>
   <g id="line2d_1">
    <path clip-path="url(#p550dbe29e8)" d="
M58.7063 186.665
L59.9293 154.077
L61.1523 189.003
L62.3753 170.437
L63.5983 116.459
L66.0443 291.383
L67.2673 201.056
L68.4904 191.187
L69.7134 190.704
L70.9364 215.281
L72.1594 196.905
L73.3824 186.641
L74.6054 187.013
L75.8284 193.621
L77.0515 270.757
L78.2745 249.229
L79.4975 249.264
M90.5046 221.649
L91.7276 245.676
L92.9506 187.278
L94.1736 213.874
L95.3967 197.365
L96.6197 215.357
L97.8427 202.907
L99.0657 200.638
L100.289 199.393
L101.512 196.158
L102.735 197.793
L103.958 203.584
L105.181 205.524
L106.404 195.852
L107.627 192.438
L108.85 195.956
L110.073 210.571
L111.296 193.928
L112.519 217.264
L113.742 206.63
L114.965 204.494
L116.188 198.913
L117.411 216.479
L118.634 219.777
L119.857 208.784
L121.08 12.3879
L121.684 409.169
M123.201 409.169
L123.526 261.624
L124.749 194.645
L125.972 345.12
L127.195 205.66
L128.418 201.156
L129.641 215.069
L130.734 409.169
M132.123 409.169
L133.31 284.467
L134.533 219.312
L135.756 185.546
L136.979 177.284
L138.202 396.385
L139.425 219.958
L141.871 150.458
L143.094 178.875
L144.317 169.026
L145.54 189.654
L146.763 173.347
L147.986 197.573
L149.209 190.24
L150.432 187.736
L151.655 200.531
L152.878 209.187
L154.101 237.909
L155.324 200.726
L156.547 182.259
L157.77 171.179
L158.993 174.258
L160.216 150.563
L161.439 158.527
L162.662 195.847
L163.885 185.794
L165.108 182.136
L166.331 197.254
L167.554 170.615
L168.777 32.3481
L170 313.8
L171.224 197.493
L172.447 158.634
L173.67 157.97
L174.893 219.188
L176.116 398.459
L177.339 186.307
L178.562 161.26
L179.785 153.797
L181.008 125.136
L182.231 151.838
L183.454 181.5
L184.677 186.244
L185.9 166.233
L188.346 192.245
L189.569 168.494
L190.792 188.124
L192.015 182.787
L193.238 139.323
L194.461 163.586
L195.684 138.006
L196.907 139.315
L198.13 164.601
L199.353 143.385
L200.576 96.3435
L201.799 217.158
L204.245 160.383
L205.468 132.667
L206.691 177.244
L207.914 181.863
L209.137 178.867
L210.36 173.391
L211.583 214.059
L212.806 180.895
L214.029 177.544
L215.252 172.434
L216.475 127.236
L217.698 135.722
L218.921 162.38
L220.144 143.813
L221.367 169.103
L222.59 149.232
L223.813 161.283
L225.036 103.428
L226.259 88.7166
L227.482 108.338
L228.705 166.043
L229.928 162.568
L231.151 111.736
L232.374 1.19438
L233.597 161.867
L234.82 179.97
L236.043 188.99
L237.266 186.869
L238.489 152.214
L239.712 178.342
L240.935 142.391
L242.158 118.199
L243.381 113.499
L244.604 140.852
L245.827 115.82
L247.05 154.255
L247.999 -1
M248.507 -1
L249.496 189.108
L250.719 184.458
L251.942 145.952
L253.165 165.297
L254.388 180.233
L255.611 164.075
L256.834 161.018
L258.057 159.252
L259.28 80.9494
L260.504 149.372
L261.727 104.277
L262.95 157.78
L264.173 6.90327
L265.396 77.0994
L266.619 169.34
L267.842 164.115
L269.065 106.848
L270.288 74.9959
L271.511 132.087
L272.734 102.466
L273.957 155.141
L275.18 40.1587
L276.403 173.12
L277.626 132.883
L278.849 127.425
L280.072 148.388
L281.295 89.6757
L282.518 157.922
L283.741 60.3342
L284.964 163.389
L286.187 147.847
L287.41 146.085
L288.633 142.01
L289.856 112.39
L291.079 113.885
L292.302 148.467
L293.525 144.295
L294.748 146.263
L295.971 134.546
L297.194 128.092
L298.417 159.676
L299.64 139.587
L300.863 121.835
L302.086 136.738
L303.309 134.874
L304.532 134.98
L305.755 112.101
L306.978 141.857
L308.201 132.317
L309.424 151.435
L310.647 160.081
L311.87 130.06
L313.093 131.678
L314.316 120.651
L315.539 159.388
L316.762 133.631
L317.985 131.291
L319.208 120.322
L320.431 87.6494
L321.654 119.628
L322.877 139.395
L324.1 143.38
L325.323 153.993
L326.546 139.078
L327.769 149.501
L328.992 154.106
L330.215 147.38
L331.438 139.696
L332.661 165.03
L333.884 151.887
L335.107 133.5
L336.33 122.853
L337.553 109.491
L338.776 49.7436
L339.999 91.8789
L341.222 109.066
L342.445 148.729
L343.668 120.327
L344.891 141.924
L346.114 142.201
L347.337 128.791
L348.56 163.444
L349.784 124.619
L351.007 145.255
L352.23 135.129
L353.453 116.006
L354.676 167.485
L355.899 136.58
M360.791 131.119
L362.014 150.163
L363.237 143.101
L364.46 161.511
L366.906 125.002
L368.129 96.9182
L369.352 131.289
L370.575 141.723
L371.798 153.206
L373.021 137.297
L374.244 140.188
L375.467 134.686
L376.69 162.97
L377.913 139.408
L379.136 28.4249
L380.359 148.201
L381.582 164.002
L382.805 135.875
L384.028 142.94
L385.251 167.517
L386.474 144.009
L387.697 163.108
L388.92 168.097
L390.143 152.458
L391.366 162.782
L392.589 135.492
L393.812 152.508
M397.481 169.589
L398.704 184.054
L399.927 185.866
L401.15 175.599
L402.373 167.789
L403.596 170.41
L404.819 175.57
L406.042 176.846
L407.265 159.292
L408.488 135.987
L409.711 170.631
L410.934 116.752
L411.362 -1
M412.841 -1
L413.38 171.405
L414.603 170.328
L415.826 150.427
L417.049 44.656
L418.272 190.334
L419.495 194.116
L420.718 215.024
L421.941 204.808
L423.164 206.892
L424.387 203.643
L425.61 184.415
L426.833 38.2174
L428.056 136.824
L429.279 172.431
L430.502 157.23
L431.725 172.981
L432.948 187.108
L434.171 181.675
L435.394 170.732
L436.617 153.246
L437.84 159.897
L439.064 150.056
L440.287 171.339
L441.51 218.283
L442.733 220.415
L443.956 219.304
L445.179 207.633
L446.402 200.2
L447.625 198.959
L448.848 189.851
L450.071 192.062
L451.294 186.038
L452.517 191.489
L453.74 194.654
L454.963 183.023
L456.186 100.585
L457.409 200.896
L458.632 176.148
L459.855 180.401
L461.078 198.185
L462.301 210.36
L463.524 187.672
L464.747 176.576
L465.97 189.536
L467.193 187.526
L468.416 189.585
L469.639 130.711
L470.862 199.258
L472.085 187.086
L473.308 151.494
L474.531 218.762
L475.754 257.107
L478.2 208.769
M480.646 199.263
L481.869 400.917
L483.092 198.098
L484.315 202.313
M486.761 207.696
L487.984 344.443
L489.207 249.267
L490.43 227.768
L491.653 218.951
L492.876 204.069
L494.099 207.599
L495.322 216.195
L495.813 409.169
M501.437 204.109
L502.66 211.203
L503.883 210.863
L503.883 210.863" style="fill:none;stroke:#0000ff;stroke-linecap:square;"/>
   </g>
   <g id="line2d_2">
    <path clip-path="url(#p550dbe29e8)" d="
M58.7063 223.354
L59.9293 208.812
L61.1523 205.164
L62.3753 199.554
L63.5983 206.926
L64.8213 205.898
L66.0443 223.67
M68.4904 197.708
L69.7134 322.235
M72.1594 213.153
L73.3824 210.638
L74.6054 225.248
L75.8284 213.929
L77.0515 205.723
L78.2745 193.037
L79.4975 193.958
L80.7205 192.768
L81.9435 177.235
L83.1665 188.472
L84.3895 172.747
L85.6126 163.915
L86.8356 196.648
L88.0586 197.937
L89.2816 203.081
L90.5046 261.88
L91.7276 205.562
M95.3967 197.529
L96.6197 197.603
L97.8427 198.5
L99.0657 206.373
L100.289 187.964
L101.512 191.564
L102.735 208.887
L103.958 209.766
L105.181 202.974
L106.404 336.136
L107.627 216.228
L108.85 215.012
L110.073 280.816
L111.296 269.107
L112.519 278.639
L113.742 188.985
L114.965 187.737
L116.188 239.465
L117.411 207.763
L118.634 209.534
L119.857 348.044
L121.08 343.373
L122.303 244.827
L123.526 309.882
L124.749 244.63
L125.972 229.348
L127.195 311.963
L128.418 200.196
L129.641 200.347
L130.864 193.76
L132.087 180.06
L133.31 108.724
L134.533 207.599
L135.756 188.383
L136.979 183.265
L138.202 196.941
L139.425 201.057
L140.648 196.677
L141.871 175.603
L143.094 202.246
L144.317 184.962
L146.763 165.312
L147.986 141.324
L149.209 180.999
L150.052 409.169
M150.882 409.169
L151.655 232.066
L152.878 187.185
L154.101 176.554
L155.324 396.201
L156.547 347.487
L157.77 223.334
L158.993 200.173
L160.216 189.629
L161.439 194.911
L162.662 189.172
L163.885 181.782
L165.108 180.87
L166.331 177.272
L167.554 176.962
L168.777 131.244
L170 94.6351
L171.224 176.663
L172.447 163.598
L173.67 161.063
L174.893 188.521
L176.116 211.843
L177.339 205.196
L178.562 144.279
L179.785 114.535
L181.008 170.352
L182.231 182.769
L183.454 5.9655
L184.677 215.473
L185.9 211.014
L187.123 200.505
L188.346 199.024
L189.569 185.719
L190.792 193.617
L192.015 200.196
L193.238 157.263
L194.461 197.275
L195.684 190.247
L196.907 185.13
L198.13 164.249
L199.353 148.033
L200.576 153.008
L201.799 99.0849
L202.551 -1
M203.287 -1
L204.245 224.722
L205.468 181.171
L206.691 176.163
L207.914 134.934
L209.137 175.419
L210.36 162.852
L211.583 169.335
L212.806 173.577
L214.029 163.547
L215.252 139.847
L216.475 154.025
L217.698 161.459
L218.921 139.037
L220.144 21.6564
L221.367 130.932
L222.59 156.441
L223.813 167.338
L225.036 185.458
L226.259 147.872
L227.482 134.996
L228.705 169.119
L229.928 66.0582
L231.151 112.808
L232.374 165.553
L233.597 162.795
L234.82 145.479
L236.043 162.561
L237.266 175.252
L238.489 173.594
L239.712 170.895
L240.935 158.821
L242.158 132.043
L243.381 164.562
L244.604 121.235
L245.827 122.562
L247.05 136.025
L248.273 144.015
L249.496 149.822
L250.719 77.8699
L251.942 45.415
L253.165 137.736
L254.388 118.639
L255.611 95.0168
L256.834 146.679
L258.057 107.327
L259.28 163.932
L261.727 163.051
L262.95 140.514
L264.147 -1
M264.208 -1
L265.396 101.233
L266.619 180.836
L267.842 164.511
L269.065 159.767
L270.288 154.455
L271.511 156.973
L272.734 174.475
L273.957 146.818
L275.18 153.558
L276.403 156.016
L277.626 137.985
L278.849 149.154
L280.072 126.171
L281.295 109.656
L282.518 57.9304
L283.741 102.645
L284.964 132.082
L286.187 157.016
L287.41 156.664
L288.633 136.117
L289.856 156.327
L291.079 148.996
L292.302 125.427
L293.525 126.058
L294.748 127.208
L295.971 157.963
L297.194 150.85
L298.417 126.435
L299.64 108.112
L300.863 151.051
L302.086 148.175
L303.309 124.072
L304.532 145.31
L305.755 109.676
L306.978 146.629
L308.201 116.378
L309.424 119.982
L310.647 153.31
L311.87 95.3393
L313.093 140.735
L314.316 145.078
L315.539 152.422
L316.762 146.026
L317.985 90.0419
L319.208 152.148
L320.431 158.224
L321.654 148.607
L322.877 149.108
L324.1 128.35
L325.323 122.796
L326.546 121.597
L327.769 143.736
L328.992 135.535
L330.215 141.915
L331.438 131.935
L332.661 144.666
L333.884 146.44
L335.107 151.541
L336.33 122.518
L337.553 147.173
L338.776 132.3
L339.999 139.675
L341.222 143.934
L342.445 153.244
L343.668 140.648
L344.891 152.481
L346.114 147.058
L347.337 118.589
L348.56 157.255
L349.784 134.588
L351.007 145.992
L352.23 135.825
L353.453 77.4491
L354.676 159.57
L355.899 155.155
L357.122 136.589
L358.345 149.164
L359.568 136.664
L360.791 132.83
L362.014 115.939
L363.237 146.127
L364.46 133.281
L365.683 136.213
L366.906 151.572
L368.129 148.956
L369.352 160.065
L370.575 164.688
L371.798 160.79
L373.021 128.064
L374.244 155.87
L375.467 151.651
L376.69 163.354
L377.913 169.884
L379.136 105.052
L380.359 105.8
L381.582 82.7653
L382.805 99.0125
L384.028 156.37
L385.251 195.099
L386.474 191.757
L387.697 180.317
L388.92 171.943
L390.143 145.568
L391.366 34.4655
L392.589 182.284
L393.812 184.554
L395.035 192.614
L396.258 179.323
L397.481 182.284
L398.704 148.715
L399.927 159.379
L401.15 189.203
L402.373 184.739
L403.596 174.66
L404.819 189.422
L406.042 184.639
L407.265 181.372
L408.488 187.265
L409.711 187.155
L410.934 177.849
L412.157 173.73
L413.38 183.328
L414.603 146.264
L415.826 124.73
L417.049 175.62
L418.272 180.869
L419.495 182.213
L420.718 176.802
L421.941 178.974
L423.164 177.851
L424.387 170.478
L425.61 187.408
L428.056 204.846
L429.279 188.363
L430.502 189.085
L431.725 177.211
M434.171 220.94
L435.394 201.249
L436.617 194.258
L437.84 168.212
L439.064 197.102
L440.287 187.632
L441.51 169.175
L442.733 173.204
L443.956 156.433
L445.179 169.635
L446.402 186.383
L447.625 217.649
L448.848 264.983
L450.071 202.202
L451.294 189.277
L452.517 187.994
L453.74 196.972
L454.963 197.393
L456.186 196.194
L459.855 174.874
L461.078 172.786
L462.301 173.486
L463.524 187.186
L464.747 189.524
L465.97 196.73
L466.512 -1
M469.526 -1
L469.639 228.77
L470.862 207.167
L472.085 207.815
L473.308 222.016
L474.531 216.986
L475.754 281.962
L476.977 263.379
L478.2 210.875
L479.423 205.154
L480.646 201.454
L481.869 211.625
L483.092 201.991
L484.315 176.367
L485.538 187.474
L486.761 180.247
L487.984 187.01
L489.207 222.976
L490.43 296.731
L491.653 237.155
L492.876 210.707
L494.099 267.859
L495.322 209.12
L496.545 187.17
L497.768 187.178
L498.991 176.256
L500.214 204.952
L501.437 225.677
L502.66 189.32
L503.883 209.988
L503.883 209.988" style="fill:none;stroke:#008000;stroke-linecap:square;"/>
   </g>
   <g id="line2d_3">
    <path clip-path="url(#p550dbe29e8)" d="
M58.7063 196.692
L59.9293 193.802
L61.1523 161.956
L62.3753 361.524
L63.5983 286.213
L64.8213 191.179
L66.0443 205.328
L67.2673 207.109
M70.9364 211.509
L71.3339 409.169
M74.6054 192.714
L75.8284 172.093
L77.0515 184.412
L78.2745 171.087
L79.4975 181.975
L80.7205 177.616
L81.9435 183.578
L83.1665 182.574
L84.3895 193.653
L85.6126 194.129
L86.8356 184.459
L88.0586 170.949
L89.2816 172.312
L90.5046 192.014
L91.7276 196.939
L92.9506 155.898
L94.1736 263.717
L95.3967 221.479
L96.6197 232.747
L97.8427 203.501
L99.0657 215.02
L100.289 222.9
L101.512 206.708
L102.735 255.057
L103.958 240.152
L105.181 234.452
L106.404 197.525
L107.627 201.377
L108.85 234.406
L110.073 149.922
L111.296 174.44
L112.519 182.441
L113.742 166.386
L114.965 156.309
L116.188 176.835
L117.411 184.211
L118.634 179.727
L119.857 266.153
L121.08 239.982
L122.303 259.858
L123.526 190.313
L124.749 179.294
L125.972 178.999
L127.195 182.83
L128.418 173.04
L129.641 196.488
L130.864 205.786
L132.087 198.592
L133.31 203.245
L134.533 193.041
L135.756 190.838
L136.871 -1
M137.083 -1
L138.202 197.978
L139.425 184.193
L140.648 177.064
L141.871 176.12
L143.094 194.573
L144.317 192.252
L145.54 180.071
L146.763 179.447
L147.986 179.802
L149.209 150.142
L149.711 -1
M151.057 -1
L151.655 207.169
L152.878 192.196
L154.101 168.562
L155.324 199.133
L156.547 191.931
L157.77 186.685
L158.993 183.223
L160.216 156.025
L161.439 196.998
L162.662 305.495
L163.885 197.35
L165.108 198.82
L166.331 201.057
L167.554 197.828
L168.777 202.613
L170 203.085
L171.224 194.979
L172.447 193.853
L173.67 197.236
L174.893 152.234
L176.116 172.532
L177.339 176.43
L178.562 130.991
L179.785 164.493
L181.008 172.822
L182.231 154.776
L183.454 153.956
L184.677 182.197
L185.9 131.446
L187.123 180.791
L188.346 155.89
L189.569 171.958
L190.792 155.109
L192.015 172.35
L193.238 160.036
L194.461 176.958
L195.684 196.638
L196.907 181.048
L198.13 196.153
L199.353 310.891
L200.576 204.205
L201.799 195.883
L203.022 171.415
L204.245 177.441
L205.468 156.426
L206.691 163.965
L207.914 121.18
L209.137 135.907
L210.36 168.197
L211.583 149.649
L212.806 151.384
L214.029 166.498
L215.252 52.8696
L216.475 186.331
L217.698 111.698
L218.921 140.224
L220.144 111.373
L221.367 117.467
L222.59 111.572
L223.813 138.498
L225.036 132.439
L226.259 138.566
L227.482 156.152
L228.705 127.303
L229.928 107.881
L231.151 113.825
L232.374 106.529
L233.597 115.524
L234.82 141.965
L236.043 114.61
L237.266 117.742
L238.489 118.142
L239.712 144.631
L240.935 123.228
L242.158 109.291
L243.381 101.222
L244.344 -1
M245.106 -1
L245.827 38.7131
L247.05 137.591
L248.273 145.317
L249.496 142.868
L250.719 142.991
L251.942 145.892
L253.165 142.21
L254.388 117.136
L255.611 161.988
L256.834 97.588
L259.28 169.816
L260.504 171.778
L261.727 160.154
L262.95 182.548
L264.173 181.098
L265.396 165.254
L266.619 153.573
L267.842 151.054
L269.065 153.754
L270.288 158.29
L271.511 146.796
L272.734 160.656
L273.957 131.902
L275.18 137.39
L276.403 161.675
L277.626 146.883
L278.849 156.694
L280.072 143.437
L281.295 128.215
L282.518 150.533
L283.741 153.778
L284.964 131.287
L286.187 148.765
L287.41 111.582
L288.633 125.044
L291.079 141.335
L292.302 144.598
L293.525 117.599
L294.748 150.474
L295.971 114.674
L297.194 106.566
L298.417 137.65
L299.64 145.053
L300.863 120.132
L302.086 124.686
L303.309 138.062
L304.532 157.75
L305.755 159.296
L306.978 112.957
L308.201 118.139
L309.424 141.878
L310.647 157.606
L311.87 148.462
L313.093 146.085
L314.316 136.912
L315.539 150.773
L316.762 142.259
L317.985 151.417
L319.208 153.598
L320.431 142.863
L321.654 148.036
L322.877 140.258
L324.1 146.812
L325.323 159.561
L326.546 163.158
L327.769 148.2
L328.992 157.517
L330.215 137.882
L331.438 137.655
L332.661 156.255
L333.884 166.82
L335.107 162.185
L336.33 147.53
L337.553 158.404
L338.776 152.201
L339.999 141.045
L341.222 152.841
L342.445 157.549
L343.668 165.179
L344.891 164.491
L346.114 168.597
L347.337 175.179
L348.56 162.327
L349.784 160.215
L351.007 158.824
L352.23 151.746
L353.453 127.897
L354.676 165.801
L355.899 162.276
L357.122 153.904
L358.345 105.794
L359.568 173.968
L360.791 169.769
L362.014 158.797
L363.237 154.479
L364.46 156.492
L365.683 90.3316
L366.906 151.421
L368.129 169.216
L369.352 157.129
L370.575 165.668
L371.798 168.19
L373.021 161.926
L374.244 156.652
L375.467 150.176
L376.69 141.956
L377.913 136.065
L379.136 163.255
L380.359 143.484
L381.582 170.441
L382.805 151.466
L384.028 137.391
L385.251 20.892
L386.474 172.496
L387.697 176.917
L388.92 180.801
L390.143 182.155
L391.366 150.729
L392.589 170.351
L393.812 153.808
L395.035 177.687
L396.258 156.428
L397.481 152.061
L398.704 149.664
L399.927 157.789
L401.15 152.995
L402.373 172.562
L403.596 149.676
L404.819 147.494
L406.042 174.872
L407.265 169.48
L408.488 151.764
L409.711 117.779
L410.934 183.506
L412.157 151.812
L413.38 169.867
L414.603 150.161
L415.826 150.396
L417.049 157.224
L418.272 180.933
L419.495 179.34
L420.718 171.394
L421.941 96.8093
L422.246 -1
M423.897 -1
L424.387 196.846
L425.61 181.013
L426.833 172.815
L428.056 142.055
L429.279 167.724
L430.502 168.405
L431.725 207.292
L432.948 196.973
L434.171 192.904
L435.394 186.26
L436.617 145.548
L437.84 164.099
L439.064 171.625
L440.287 22.5334
L441.51 247.376
L442.733 205.438
L443.956 208.705
L445.179 247.578
L445.193 409.169
M447.606 409.169
L447.625 201.157
L448.848 210.557
L450.071 201.545
L451.294 190.661
L452.517 190.392
L453.74 189.535
L454.963 197.662
L456.186 176.076
M458.632 219.375
L458.969 -1
M460.847 -1
L461.078 133.489
L462.301 162.331
L463.524 164.276
L464.747 38.9271
L465.97 213.8
L467.193 206.66
L468.416 197.412
L469.639 197.997
L472.085 187.682
L473.308 191.921
L474.531 188.823
L475.754 188.997
L476.977 184.88
L478.2 164.776
L479.423 158.318
L480.646 160.886
M483.092 196.714
L484.315 213.878
L485.538 208.48
L486.761 200.121
L487.984 201.204
L489.207 234.119
L490.43 250.098
L490.621 -1
M494.099 203.053
L495.322 226.974
L495.423 409.169
M497.689 409.169
L497.768 268.343
L498.991 223.539
L500.214 406.293
M502.66 198.959
L503.883 203.141
L503.883 203.141" style="fill:none;stroke:#ff0000;stroke-linecap:square;"/>
   </g>
   <g id="patch_3">
    <path d="
M58.7063 23.1417
L505.106 23.1417" style="fill:none;stroke:#000000;stroke-linecap:square;stroke-linejoin:miter;"/>
   </g>
   <g id="patch_4">
    <path d="
M505.106 368.742
L505.106 23.1417" style="fill:none;stroke:#000000;stroke-linecap:square;stroke-linejoin:miter;"/>
   </g>
   <g id="patch_5">
    <path d="
M58.7063 368.742
L505.106 368.742" style="fill:none;stroke:#000000;stroke-linecap:square;stroke-linejoin:miter;"/>
   </g>
   <g id="patch_6">
    <path d="
M58.7063 368.742
L58.7063 23.1417" style="fill:none;stroke:#000000;stroke-linecap:square;stroke-linejoin:miter;"/>
   </g>
   <g id="matplotlib.axis_1">
    <g id="xtick_1">
     <g id="line2d_4">
      <defs>
       <path d="
M0 0
L0 -4" id="m93b0483c22" style="stroke:#000000;stroke-width:0.5;"/>
      </defs>
      <g>
       <use style="stroke:#000000;stroke-width:0.5;" x="58.70625" xlink:href="#m93b0483c22" y="368.74175"/>
      </g>
     </g>
     <g id="line2d_5">
      <defs>
       <path d="
M0 0
L0 4" id="m741efc42ff" style="stroke:#000000;stroke-width:0.5;"/>
      </defs>
      <g>
       <use style="stroke:#000000;stroke-width:0.5;" x="58.70625" xlink:href="#m741efc42ff" y="23.14175"/>
      </g>
     </g>
     <g id="text_1">
      <!-- 0 -->
      <defs>
       <path d="
M31.7812 66.4062
Q24.1719 66.4062 20.3281 58.9062
Q16.5 51.4219 16.5 36.375
Q16.5 21.3906 20.3281 13.8906
Q24.1719 6.39062 31.7812 6.39062
Q39.4531 6.39062 43.2812 13.8906
Q47.125 21.3906 47.125 36.375
Q47.125 51.4219 43.2812 58.9062
Q39.4531 66.4062 31.7812 66.4062
M31.7812 74.2188
Q44.0469 74.2188 50.5156 64.5156
Q56.9844 54.8281 56.9844 36.375
Q56.9844 17.9688 50.5156 8.26562
Q44.0469 -1.42188 31.7812 -1.42188
Q19.5312 -1.42188 13.0625 8.26562
Q6.59375 17.9688 6.59375 36.375
Q6.59375 54.8281 13.0625 64.5156
Q19.5312 74.2188 31.7812 74.2188" id="BitstreamVeraSans-Roman-30"/>
      </defs>
      <g transform="translate(55.6828125 381.859875)scale(0.12 -0.12)">
       <use xlink:href="#BitstreamVeraSans-Roman-30"/>
      </g>
     </g>
    </g>
    <g id="xtick_2">
     <g id="line2d_6">
      <g>
       <use style="stroke:#000000;stroke-width:0.5;" x="119.856934932" xlink:href="#m93b0483c22" y="368.74175"/>
      </g>
     </g>
     <g id="line2d_7">
      <g>
       <use style="stroke:#000000;stroke-width:0.5;" x="119.856934932" xlink:href="#m741efc42ff" y="23.14175"/>
      </g>
     </g>
     <g id="text_2">
      <!-- 50 -->
      <defs>
       <path d="
M10.7969 72.9062
L49.5156 72.9062
L49.5156 64.5938
L19.8281 64.5938
L19.8281 46.7344
Q21.9688 47.4688 24.1094 47.8281
Q26.2656 48.1875 28.4219 48.1875
Q40.625 48.1875 47.75 41.5
Q54.8906 34.8125 54.8906 23.3906
Q54.8906 11.625 47.5625 5.09375
Q40.2344 -1.42188 26.9062 -1.42188
Q22.3125 -1.42188 17.5469 -0.640625
Q12.7969 0.140625 7.71875 1.70312
L7.71875 11.625
Q12.1094 9.23438 16.7969 8.0625
Q21.4844 6.89062 26.7031 6.89062
Q35.1562 6.89062 40.0781 11.3281
Q45.0156 15.7656 45.0156 23.3906
Q45.0156 31 40.0781 35.4375
Q35.1562 39.8906 26.7031 39.8906
Q22.75 39.8906 18.8125 39.0156
Q14.8906 38.1406 10.7969 36.2812
z
" id="BitstreamVeraSans-Roman-35"/>
      </defs>
      <g transform="translate(113.083497432 381.859875)scale(0.12 -0.12)">
       <use xlink:href="#BitstreamVeraSans-Roman-35"/>
       <use x="63.623046875" xlink:href="#BitstreamVeraSans-Roman-30"/>
      </g>
     </g>
    </g>
    <g id="xtick_3">
     <g id="line2d_8">
      <g>
       <use style="stroke:#000000;stroke-width:0.5;" x="181.007619863" xlink:href="#m93b0483c22" y="368.74175"/>
      </g>
     </g>
     <g id="line2d_9">
      <g>
       <use style="stroke:#000000;stroke-width:0.5;" x="181.007619863" xlink:href="#m741efc42ff" y="23.14175"/>
      </g>
     </g>
     <g id="text_3">
      <!-- 100 -->
      <defs>
       <path d="
M12.4062 8.29688
L28.5156 8.29688
L28.5156 63.9219
L10.9844 60.4062
L10.9844 69.3906
L28.4219 72.9062
L38.2812 72.9062
L38.2812 8.29688
L54.3906 8.29688
L54.3906 0
L12.4062 0
z
" id="BitstreamVeraSans-Roman-31"/>
      </defs>
      <g transform="translate(170.612619863 381.859875)scale(0.12 -0.12)">
       <use xlink:href="#BitstreamVeraSans-Roman-31"/>
       <use x="63.623046875" xlink:href="#BitstreamVeraSans-Roman-30"/>
       <use x="127.24609375" xlink:href="#BitstreamVeraSans-Roman-30"/>
      </g>
     </g>
    </g>
    <g id="xtick_4">
     <g id="line2d_10">
      <g>
       <use style="stroke:#000000;stroke-width:0.5;" x="242.158304795" xlink:href="#m93b0483c22" y="368.74175"/>
      </g>
     </g>
     <g id="line2d_11">
      <g>
       <use style="stroke:#000000;stroke-width:0.5;" x="242.158304795" xlink:href="#m741efc42ff" y="23.14175"/>
      </g>
     </g>
     <g id="text_4">
      <!-- 150 -->
      <g transform="translate(231.763304795 381.859875)scale(0.12 -0.12)">
       <use xlink:href="#BitstreamVeraSans-Roman-31"/>
       <use x="63.623046875" xlink:href="#BitstreamVeraSans-Roman-35"/>
       <use x="127.24609375" xlink:href="#BitstreamVeraSans-Roman-30"/>
      </g>
     </g>
    </g>
    <g id="xtick_5">
     <g id="line2d_12">
      <g>
       <use style="stroke:#000000;stroke-width:0.5;" x="303.308989726" xlink:href="#m93b0483c22" y="368.74175"/>
      </g>
     </g>
     <g id="line2d_13">
      <g>
       <use style="stroke:#000000;stroke-width:0.5;" x="303.308989726" xlink:href="#m741efc42ff" y="23.14175"/>
      </g>
     </g>
     <g id="text_5">
      <!-- 200 -->
      <defs>
       <path d="
M19.1875 8.29688
L53.6094 8.29688
L53.6094 0
L7.32812 0
L7.32812 8.29688
Q12.9375 14.1094 22.625 23.8906
Q32.3281 33.6875 34.8125 36.5312
Q39.5469 41.8438 41.4219 45.5312
Q43.3125 49.2188 43.3125 52.7812
Q43.3125 58.5938 39.2344 62.25
Q35.1562 65.9219 28.6094 65.9219
Q23.9688 65.9219 18.8125 64.3125
Q13.6719 62.7031 7.8125 59.4219
L7.8125 69.3906
Q13.7656 71.7812 18.9375 73
Q24.125 74.2188 28.4219 74.2188
Q39.75 74.2188 46.4844 68.5469
Q53.2188 62.8906 53.2188 53.4219
Q53.2188 48.9219 51.5312 44.8906
Q49.8594 40.875 45.4062 35.4062
Q44.1875 33.9844 37.6406 27.2188
Q31.1094 20.4531 19.1875 8.29688" id="BitstreamVeraSans-Roman-32"/>
      </defs>
      <g transform="translate(292.694614726 381.859875)scale(0.12 -0.12)">
       <use xlink:href="#BitstreamVeraSans-Roman-32"/>
       <use x="63.623046875" xlink:href="#BitstreamVeraSans-Roman-30"/>
       <use x="127.24609375" xlink:href="#BitstreamVeraSans-Roman-30"/>
      </g>
     </g>
    </g>
    <g id="xtick_6">
     <g id="line2d_14">
      <g>
       <use style="stroke:#000000;stroke-width:0.5;" x="364.459674658" xlink:href="#m93b0483c22" y="368.74175"/>
      </g>
     </g>
     <g id="line2d_15">
      <g>
       <use style="stroke:#000000;stroke-width:0.5;" x="364.459674658" xlink:href="#m741efc42ff" y="23.14175"/>
      </g>
     </g>
     <g id="text_6">
      <!-- 250 -->
      <g transform="translate(353.845299658 381.859875)scale(0.12 -0.12)">
       <use xlink:href="#BitstreamVeraSans-Roman-32"/>
       <use x="63.623046875" xlink:href="#BitstreamVeraSans-Roman-35"/>
       <use x="127.24609375" xlink:href="#BitstreamVeraSans-Roman-30"/>
      </g>
     </g>
    </g>
    <g id="xtick_7">
     <g id="line2d_16">
      <g>
       <use style="stroke:#000000;stroke-width:0.5;" x="425.610359589" xlink:href="#m93b0483c22" y="368.74175"/>
      </g>
     </g>
     <g id="line2d_17">
      <g>
       <use style="stroke:#000000;stroke-width:0.5;" x="425.610359589" xlink:href="#m741efc42ff" y="23.14175"/>
      </g>
     </g>
     <g id="text_7">
      <!-- 300 -->
      <defs>
       <path d="
M40.5781 39.3125
Q47.6562 37.7969 51.625 33
Q55.6094 28.2188 55.6094 21.1875
Q55.6094 10.4062 48.1875 4.48438
Q40.7656 -1.42188 27.0938 -1.42188
Q22.5156 -1.42188 17.6562 -0.515625
Q12.7969 0.390625 7.625 2.20312
L7.625 11.7188
Q11.7188 9.32812 16.5938 8.10938
Q21.4844 6.89062 26.8125 6.89062
Q36.0781 6.89062 40.9375 10.5469
Q45.7969 14.2031 45.7969 21.1875
Q45.7969 27.6406 41.2812 31.2656
Q36.7656 34.9062 28.7188 34.9062
L20.2188 34.9062
L20.2188 43.0156
L29.1094 43.0156
Q36.375 43.0156 40.2344 45.9219
Q44.0938 48.8281 44.0938 54.2969
Q44.0938 59.9062 40.1094 62.9062
Q36.1406 65.9219 28.7188 65.9219
Q24.6562 65.9219 20.0156 65.0312
Q15.375 64.1562 9.8125 62.3125
L9.8125 71.0938
Q15.4375 72.6562 20.3438 73.4375
Q25.25 74.2188 29.5938 74.2188
Q40.8281 74.2188 47.3594 69.1094
Q53.9062 64.0156 53.9062 55.3281
Q53.9062 49.2656 50.4375 45.0938
Q46.9688 40.9219 40.5781 39.3125" id="BitstreamVeraSans-Roman-33"/>
      </defs>
      <g transform="translate(415.013797089 381.859875)scale(0.12 -0.12)">
       <use xlink:href="#BitstreamVeraSans-Roman-33"/>
       <use x="63.623046875" xlink:href="#BitstreamVeraSans-Roman-30"/>
       <use x="127.24609375" xlink:href="#BitstreamVeraSans-Roman-30"/>
      </g>
     </g>
    </g>
    <g id="xtick_8">
     <g id="line2d_18">
      <g>
       <use style="stroke:#000000;stroke-width:0.5;" x="486.761044521" xlink:href="#m93b0483c22" y="368.74175"/>
      </g>
     </g>
     <g id="line2d_19">
      <g>
       <use style="stroke:#000000;stroke-width:0.5;" x="486.761044521" xlink:href="#m741efc42ff" y="23.14175"/>
      </g>
     </g>
     <g id="text_8">
      <!-- 350 -->
      <g transform="translate(476.164482021 381.859875)scale(0.12 -0.12)">
       <use xlink:href="#BitstreamVeraSans-Roman-33"/>
       <use x="63.623046875" xlink:href="#BitstreamVeraSans-Roman-35"/>
       <use x="127.24609375" xlink:href="#BitstreamVeraSans-Roman-30"/>
      </g>
     </g>
    </g>
    <g id="text_9">
     <!-- Julian day -->
     <defs>
      <path id="BitstreamVeraSans-Roman-20"/>
      <path d="
M9.8125 72.9062
L19.6719 72.9062
L19.6719 5.07812
Q19.6719 -8.10938 14.6719 -14.0625
Q9.67188 -20.0156 -1.42188 -20.0156
L-5.17188 -20.0156
L-5.17188 -11.7188
L-2.09375 -11.7188
Q4.4375 -11.7188 7.125 -8.04688
Q9.8125 -4.39062 9.8125 5.07812
z
" id="BitstreamVeraSans-Roman-4a"/>
      <path d="
M54.8906 33.0156
L54.8906 0
L45.9062 0
L45.9062 32.7188
Q45.9062 40.4844 42.875 44.3281
Q39.8438 48.1875 33.7969 48.1875
Q26.5156 48.1875 22.3125 43.5469
Q18.1094 38.9219 18.1094 30.9062
L18.1094 0
L9.07812 0
L9.07812 54.6875
L18.1094 54.6875
L18.1094 46.1875
Q21.3438 51.125 25.7031 53.5625
Q30.0781 56 35.7969 56
Q45.2188 56 50.0469 50.1719
Q54.8906 44.3438 54.8906 33.0156" id="BitstreamVeraSans-Roman-6e"/>
      <path d="
M9.42188 75.9844
L18.4062 75.9844
L18.4062 0
L9.42188 0
z
" id="BitstreamVeraSans-Roman-6c"/>
      <path d="
M9.42188 54.6875
L18.4062 54.6875
L18.4062 0
L9.42188 0
z

M9.42188 75.9844
L18.4062 75.9844
L18.4062 64.5938
L9.42188 64.5938
z
" id="BitstreamVeraSans-Roman-69"/>
      <path d="
M32.1719 -5.07812
Q28.375 -14.8438 24.75 -17.8125
Q21.1406 -20.7969 15.0938 -20.7969
L7.90625 -20.7969
L7.90625 -13.2812
L13.1875 -13.2812
Q16.8906 -13.2812 18.9375 -11.5156
Q21 -9.76562 23.4844 -3.21875
L25.0938 0.875
L2.98438 54.6875
L12.5 54.6875
L29.5938 11.9219
L46.6875 54.6875
L56.2031 54.6875
z
" id="BitstreamVeraSans-Roman-79"/>
      <path d="
M45.4062 46.3906
L45.4062 75.9844
L54.3906 75.9844
L54.3906 0
L45.4062 0
L45.4062 8.20312
Q42.5781 3.32812 38.25 0.953125
Q33.9375 -1.42188 27.875 -1.42188
Q17.9688 -1.42188 11.7344 6.48438
Q5.51562 14.4062 5.51562 27.2969
Q5.51562 40.1875 11.7344 48.0938
Q17.9688 56 27.875 56
Q33.9375 56 38.25 53.625
Q42.5781 51.2656 45.4062 46.3906
M14.7969 27.2969
Q14.7969 17.3906 18.875 11.75
Q22.9531 6.10938 30.0781 6.10938
Q37.2031 6.10938 41.2969 11.75
Q45.4062 17.3906 45.4062 27.2969
Q45.4062 37.2031 41.2969 42.8438
Q37.2031 48.4844 30.0781 48.4844
Q22.9531 48.4844 18.875 42.8438
Q14.7969 37.2031 14.7969 27.2969" id="BitstreamVeraSans-Roman-64"/>
      <path d="
M8.5 21.5781
L8.5 54.6875
L17.4844 54.6875
L17.4844 21.9219
Q17.4844 14.1562 20.5 10.2656
Q23.5312 6.39062 29.5938 6.39062
Q36.8594 6.39062 41.0781 11.0312
Q45.3125 15.6719 45.3125 23.6875
L45.3125 54.6875
L54.2969 54.6875
L54.2969 0
L45.3125 0
L45.3125 8.40625
Q42.0469 3.42188 37.7188 1
Q33.4062 -1.42188 27.6875 -1.42188
Q18.2656 -1.42188 13.375 4.4375
Q8.5 10.2969 8.5 21.5781" id="BitstreamVeraSans-Roman-75"/>
      <path d="
M34.2812 27.4844
Q23.3906 27.4844 19.1875 25
Q14.9844 22.5156 14.9844 16.5
Q14.9844 11.7188 18.1406 8.90625
Q21.2969 6.10938 26.7031 6.10938
Q34.1875 6.10938 38.7031 11.4062
Q43.2188 16.7031 43.2188 25.4844
L43.2188 27.4844
z

M52.2031 31.2031
L52.2031 0
L43.2188 0
L43.2188 8.29688
Q40.1406 3.32812 35.5469 0.953125
Q30.9531 -1.42188 24.3125 -1.42188
Q15.9219 -1.42188 10.9531 3.29688
Q6 8.01562 6 15.9219
Q6 25.1406 12.1719 29.8281
Q18.3594 34.5156 30.6094 34.5156
L43.2188 34.5156
L43.2188 35.4062
Q43.2188 41.6094 39.1406 45
Q35.0625 48.3906 27.6875 48.3906
Q23 48.3906 18.5469 47.2656
Q14.1094 46.1406 10.0156 43.8906
L10.0156 52.2031
Q14.9375 54.1094 19.5781 55.0469
Q24.2188 56 28.6094 56
Q40.4844 56 46.3438 49.8438
Q52.2031 43.7031 52.2031 31.2031" id="BitstreamVeraSans-Roman-61"/>
     </defs>
     <g transform="translate(252.4453125 398.473625)scale(0.12 -0.12)">
      <use xlink:href="#BitstreamVeraSans-Roman-4a"/>
      <use x="29.4921875" xlink:href="#BitstreamVeraSans-Roman-75"/>
      <use x="92.87109375" xlink:href="#BitstreamVeraSans-Roman-6c"/>
      <use x="120.654296875" xlink:href="#BitstreamVeraSans-Roman-69"/>
      <use x="148.4375" xlink:href="#BitstreamVeraSans-Roman-61"/>
      <use x="209.716796875" xlink:href="#BitstreamVeraSans-Roman-6e"/>
      <use x="273.095703125" xlink:href="#BitstreamVeraSans-Roman-20"/>
      <use x="304.8828125" xlink:href="#BitstreamVeraSans-Roman-64"/>
      <use x="368.359375" xlink:href="#BitstreamVeraSans-Roman-61"/>
      <use x="429.638671875" xlink:href="#BitstreamVeraSans-Roman-79"/>
     </g>
    </g>
   </g>
   <g id="matplotlib.axis_2">
    <g id="ytick_1">
     <g id="line2d_20">
      <defs>
       <path d="
M0 0
L4 0" id="m728421d6d4" style="stroke:#000000;stroke-width:0.5;"/>
      </defs>
      <g>
       <use style="stroke:#000000;stroke-width:0.5;" x="58.70625" xlink:href="#m728421d6d4" y="368.74175"/>
      </g>
     </g>
     <g id="line2d_21">
      <defs>
       <path d="
M0 0
L-4 0" id="mcb0005524f" style="stroke:#000000;stroke-width:0.5;"/>
      </defs>
      <g>
       <use style="stroke:#000000;stroke-width:0.5;" x="505.10625" xlink:href="#mcb0005524f" y="368.74175"/>
      </g>
     </g>
     <g id="text_10">
      <!-- −100 -->
      <defs>
       <path d="
M10.5938 35.5
L73.1875 35.5
L73.1875 27.2031
L10.5938 27.2031
z
" id="BitstreamVeraSans-Roman-2212"/>
      </defs>
      <g transform="translate(23.81375 372.053)scale(0.12 -0.12)">
       <use xlink:href="#BitstreamVeraSans-Roman-2212"/>
       <use x="83.7890625" xlink:href="#BitstreamVeraSans-Roman-31"/>
       <use x="147.412109375" xlink:href="#BitstreamVeraSans-Roman-30"/>
       <use x="211.03515625" xlink:href="#BitstreamVeraSans-Roman-30"/>
      </g>
     </g>
    </g>
    <g id="ytick_2">
     <g id="line2d_22">
      <g>
       <use style="stroke:#000000;stroke-width:0.5;" x="58.70625" xlink:href="#m728421d6d4" y="282.34175"/>
      </g>
     </g>
     <g id="line2d_23">
      <g>
       <use style="stroke:#000000;stroke-width:0.5;" x="505.10625" xlink:href="#mcb0005524f" y="282.34175"/>
      </g>
     </g>
     <g id="text_11">
      <!-- −50 -->
      <g transform="translate(31.44875 285.653)scale(0.12 -0.12)">
       <use xlink:href="#BitstreamVeraSans-Roman-2212"/>
       <use x="83.7890625" xlink:href="#BitstreamVeraSans-Roman-35"/>
       <use x="147.412109375" xlink:href="#BitstreamVeraSans-Roman-30"/>
      </g>
     </g>
    </g>
    <g id="ytick_3">
     <g id="line2d_24">
      <g>
       <use style="stroke:#000000;stroke-width:0.5;" x="58.70625" xlink:href="#m728421d6d4" y="195.94175"/>
      </g>
     </g>
     <g id="line2d_25">
      <g>
       <use style="stroke:#000000;stroke-width:0.5;" x="505.10625" xlink:href="#mcb0005524f" y="195.94175"/>
      </g>
     </g>
     <g id="text_12">
      <!-- 0 -->
      <g transform="translate(48.659375 199.253)scale(0.12 -0.12)">
       <use xlink:href="#BitstreamVeraSans-Roman-30"/>
      </g>
     </g>
    </g>
    <g id="ytick_4">
     <g id="line2d_26">
      <g>
       <use style="stroke:#000000;stroke-width:0.5;" x="58.70625" xlink:href="#m728421d6d4" y="109.54175"/>
      </g>
     </g>
     <g id="line2d_27">
      <g>
       <use style="stroke:#000000;stroke-width:0.5;" x="505.10625" xlink:href="#mcb0005524f" y="109.54175"/>
      </g>
     </g>
     <g id="text_13">
      <!-- 50 -->
      <g transform="translate(41.159375 112.853)scale(0.12 -0.12)">
       <use xlink:href="#BitstreamVeraSans-Roman-35"/>
       <use x="63.623046875" xlink:href="#BitstreamVeraSans-Roman-30"/>
      </g>
     </g>
    </g>
    <g id="ytick_5">
     <g id="line2d_28">
      <g>
       <use style="stroke:#000000;stroke-width:0.5;" x="58.70625" xlink:href="#m728421d6d4" y="23.14175"/>
      </g>
     </g>
     <g id="line2d_29">
      <g>
       <use style="stroke:#000000;stroke-width:0.5;" x="505.10625" xlink:href="#mcb0005524f" y="23.14175"/>
      </g>
     </g>
     <g id="text_14">
      <!-- 100 -->
      <g transform="translate(33.91625 26.453)scale(0.12 -0.12)">
       <use xlink:href="#BitstreamVeraSans-Roman-31"/>
       <use x="63.623046875" xlink:href="#BitstreamVeraSans-Roman-30"/>
       <use x="127.24609375" xlink:href="#BitstreamVeraSans-Roman-30"/>
      </g>
     </g>
    </g>
    <g id="text_15">
     <!-- PET (mm/day) -->
     <defs>
      <path d="
M52 44.1875
Q55.375 50.25 60.0625 53.125
Q64.75 56 71.0938 56
Q79.6406 56 84.2812 50.0156
Q88.9219 44.0469 88.9219 33.0156
L88.9219 0
L79.8906 0
L79.8906 32.7188
Q79.8906 40.5781 77.0938 44.375
Q74.3125 48.1875 68.6094 48.1875
Q61.625 48.1875 57.5625 43.5469
Q53.5156 38.9219 53.5156 30.9062
L53.5156 0
L44.4844 0
L44.4844 32.7188
Q44.4844 40.625 41.7031 44.4062
Q38.9219 48.1875 33.1094 48.1875
Q26.2188 48.1875 22.1562 43.5312
Q18.1094 38.875 18.1094 30.9062
L18.1094 0
L9.07812 0
L9.07812 54.6875
L18.1094 54.6875
L18.1094 46.1875
Q21.1875 51.2188 25.4844 53.6094
Q29.7812 56 35.6875 56
Q41.6562 56 45.8281 52.9688
Q50 49.9531 52 44.1875" id="BitstreamVeraSans-Roman-6d"/>
      <path d="
M8.01562 75.875
L15.8281 75.875
Q23.1406 64.3594 26.7812 53.3125
Q30.4219 42.2812 30.4219 31.3906
Q30.4219 20.4531 26.7812 9.375
Q23.1406 -1.70312 15.8281 -13.1875
L8.01562 -13.1875
Q14.5 -2 17.7031 9.0625
Q20.9062 20.125 20.9062 31.3906
Q20.9062 42.6719 17.7031 53.6562
Q14.5 64.6562 8.01562 75.875" id="BitstreamVeraSans-Roman-29"/>
      <path d="
M31 75.875
Q24.4688 64.6562 21.2812 53.6562
Q18.1094 42.6719 18.1094 31.3906
Q18.1094 20.125 21.3125 9.0625
Q24.5156 -2 31 -13.1875
L23.1875 -13.1875
Q15.875 -1.70312 12.2344 9.375
Q8.59375 20.4531 8.59375 31.3906
Q8.59375 42.2812 12.2031 53.3125
Q15.8281 64.3594 23.1875 75.875
z
" id="BitstreamVeraSans-Roman-28"/>
      <path d="
M19.6719 64.7969
L19.6719 37.4062
L32.0781 37.4062
Q38.9688 37.4062 42.7188 40.9688
Q46.4844 44.5312 46.4844 51.125
Q46.4844 57.6719 42.7188 61.2344
Q38.9688 64.7969 32.0781 64.7969
z

M9.8125 72.9062
L32.0781 72.9062
Q44.3438 72.9062 50.6094 67.3594
Q56.8906 61.8125 56.8906 51.125
Q56.8906 40.3281 50.6094 34.8125
Q44.3438 29.2969 32.0781 29.2969
L19.6719 29.2969
L19.6719 0
L9.8125 0
z
" id="BitstreamVeraSans-Roman-50"/>
      <path d="
M9.8125 72.9062
L55.9062 72.9062
L55.9062 64.5938
L19.6719 64.5938
L19.6719 43.0156
L54.3906 43.0156
L54.3906 34.7188
L19.6719 34.7188
L19.6719 8.29688
L56.7812 8.29688
L56.7812 0
L9.8125 0
z
" id="BitstreamVeraSans-Roman-45"/>
      <path d="
M-0.296875 72.9062
L61.375 72.9062
L61.375 64.5938
L35.5 64.5938
L35.5 0
L25.5938 0
L25.5938 64.5938
L-0.296875 64.5938
z
" id="BitstreamVeraSans-Roman-54"/>
      <path d="
M25.3906 72.9062
L33.6875 72.9062
L8.29688 -9.28125
L0 -9.28125
z
" id="BitstreamVeraSans-Roman-2f"/>
     </defs>
     <g transform="translate(16.318125 237.8358125)rotate(-90.0)scale(0.12 -0.12)">
      <use xlink:href="#BitstreamVeraSans-Roman-50"/>
      <use x="60.302734375" xlink:href="#BitstreamVeraSans-Roman-45"/>
      <use x="123.486328125" xlink:href="#BitstreamVeraSans-Roman-54"/>
      <use x="184.5703125" xlink:href="#BitstreamVeraSans-Roman-20"/>
      <use x="216.357421875" xlink:href="#BitstreamVeraSans-Roman-28"/>
      <use x="255.37109375" xlink:href="#BitstreamVeraSans-Roman-6d"/>
      <use x="352.783203125" xlink:href="#BitstreamVeraSans-Roman-6d"/>
      <use x="450.1953125" xlink:href="#BitstreamVeraSans-Roman-2f"/>
      <use x="483.88671875" xlink:href="#BitstreamVeraSans-Roman-64"/>
      <use x="547.36328125" xlink:href="#BitstreamVeraSans-Roman-61"/>
      <use x="608.642578125" xlink:href="#BitstreamVeraSans-Roman-79"/>
      <use x="667.822265625" xlink:href="#BitstreamVeraSans-Roman-29"/>
     </g>
    </g>
   </g>
   <g id="text_16">
    <!-- daily tree PET at BRWtemp -->
    <defs>
     <path d="
M44.3906 34.1875
Q47.5625 33.1094 50.5625 29.5938
Q53.5625 26.0781 56.5938 19.9219
L66.6094 0
L56 0
L46.6875 18.7031
Q43.0625 26.0312 39.6719 28.4219
Q36.2812 30.8125 30.4219 30.8125
L19.6719 30.8125
L19.6719 0
L9.8125 0
L9.8125 72.9062
L32.0781 72.9062
Q44.5781 72.9062 50.7344 67.6719
Q56.8906 62.4531 56.8906 51.9062
Q56.8906 45.0156 53.6875 40.4688
Q50.4844 35.9375 44.3906 34.1875
M19.6719 64.7969
L19.6719 38.9219
L32.0781 38.9219
Q39.2031 38.9219 42.8438 42.2188
Q46.4844 45.5156 46.4844 51.9062
Q46.4844 58.2969 42.8438 61.5469
Q39.2031 64.7969 32.0781 64.7969
z
" id="BitstreamVeraSans-Roman-52"/>
     <path d="
M19.6719 34.8125
L19.6719 8.10938
L35.5 8.10938
Q43.4531 8.10938 47.2812 11.4062
Q51.125 14.7031 51.125 21.4844
Q51.125 28.3281 47.2812 31.5625
Q43.4531 34.8125 35.5 34.8125
z

M19.6719 64.7969
L19.6719 42.8281
L34.2812 42.8281
Q41.5 42.8281 45.0312 45.5312
Q48.5781 48.25 48.5781 53.8125
Q48.5781 59.3281 45.0312 62.0625
Q41.5 64.7969 34.2812 64.7969
z

M9.8125 72.9062
L35.0156 72.9062
Q46.2969 72.9062 52.3906 68.2188
Q58.5 63.5312 58.5 54.8906
Q58.5 48.1875 55.375 44.2344
Q52.25 40.2812 46.1875 39.3125
Q53.4688 37.75 57.5 32.7812
Q61.5312 27.8281 61.5312 20.4062
Q61.5312 10.6406 54.8906 5.3125
Q48.25 0 35.9844 0
L9.8125 0
z
" id="BitstreamVeraSans-Roman-42"/>
     <path d="
M3.32812 72.9062
L13.2812 72.9062
L28.6094 11.2812
L43.8906 72.9062
L54.9844 72.9062
L70.3125 11.2812
L85.5938 72.9062
L95.6094 72.9062
L77.2969 0
L64.8906 0
L49.5156 63.2812
L33.9844 0
L21.5781 0
z
" id="BitstreamVeraSans-Roman-57"/>
     <path d="
M56.2031 29.5938
L56.2031 25.2031
L14.8906 25.2031
Q15.4844 15.9219 20.4844 11.0625
Q25.4844 6.20312 34.4219 6.20312
Q39.5938 6.20312 44.4531 7.46875
Q49.3125 8.73438 54.1094 11.2812
L54.1094 2.78125
Q49.2656 0.734375 44.1875 -0.34375
Q39.1094 -1.42188 33.8906 -1.42188
Q20.7969 -1.42188 13.1562 6.1875
Q5.51562 13.8125 5.51562 26.8125
Q5.51562 40.2344 12.7656 48.1094
Q20.0156 56 32.3281 56
Q43.3594 56 49.7812 48.8906
Q56.2031 41.7969 56.2031 29.5938
M47.2188 32.2344
Q47.125 39.5938 43.0938 43.9844
Q39.0625 48.3906 32.4219 48.3906
Q24.9062 48.3906 20.3906 44.1406
Q15.875 39.8906 15.1875 32.1719
z
" id="BitstreamVeraSans-Roman-65"/>
     <path d="
M18.3125 70.2188
L18.3125 54.6875
L36.8125 54.6875
L36.8125 47.7031
L18.3125 47.7031
L18.3125 18.0156
Q18.3125 11.3281 20.1406 9.42188
Q21.9688 7.51562 27.5938 7.51562
L36.8125 7.51562
L36.8125 0
L27.5938 0
Q17.1875 0 13.2344 3.875
Q9.28125 7.76562 9.28125 18.0156
L9.28125 47.7031
L2.6875 47.7031
L2.6875 54.6875
L9.28125 54.6875
L9.28125 70.2188
z
" id="BitstreamVeraSans-Roman-74"/>
     <path d="
M41.1094 46.2969
Q39.5938 47.1719 37.8125 47.5781
Q36.0312 48 33.8906 48
Q26.2656 48 22.1875 43.0469
Q18.1094 38.0938 18.1094 28.8125
L18.1094 0
L9.07812 0
L9.07812 54.6875
L18.1094 54.6875
L18.1094 46.1875
Q20.9531 51.1719 25.4844 53.5781
Q30.0312 56 36.5312 56
Q37.4531 56 38.5781 55.875
Q39.7031 55.7656 41.0625 55.5156
z
" id="BitstreamVeraSans-Roman-72"/>
     <path d="
M18.1094 8.20312
L18.1094 -20.7969
L9.07812 -20.7969
L9.07812 54.6875
L18.1094 54.6875
L18.1094 46.3906
Q20.9531 51.2656 25.2656 53.625
Q29.5938 56 35.5938 56
Q45.5625 56 51.7812 48.0938
Q58.0156 40.1875 58.0156 27.2969
Q58.0156 14.4062 51.7812 6.48438
Q45.5625 -1.42188 35.5938 -1.42188
Q29.5938 -1.42188 25.2656 0.953125
Q20.9531 3.32812 18.1094 8.20312
M48.6875 27.2969
Q48.6875 37.2031 44.6094 42.8438
Q40.5312 48.4844 33.4062 48.4844
Q26.2656 48.4844 22.1875 42.8438
Q18.1094 37.2031 18.1094 27.2969
Q18.1094 17.3906 22.1875 11.75
Q26.2656 6.10938 33.4062 6.10938
Q40.5312 6.10938 44.6094 11.75
Q48.6875 17.3906 48.6875 27.2969" id="BitstreamVeraSans-Roman-70"/>
    </defs>
    <g transform="translate(185.28675 18.14175)scale(0.144 -0.144)">
     <use xlink:href="#BitstreamVeraSans-Roman-64"/>
     <use x="63.4765625" xlink:href="#BitstreamVeraSans-Roman-61"/>
     <use x="124.755859375" xlink:href="#BitstreamVeraSans-Roman-69"/>
     <use x="152.5390625" xlink:href="#BitstreamVeraSans-Roman-6c"/>
     <use x="180.322265625" xlink:href="#BitstreamVeraSans-Roman-79"/>
     <use x="239.501953125" xlink:href="#BitstreamVeraSans-Roman-20"/>
     <use x="271.2890625" xlink:href="#BitstreamVeraSans-Roman-74"/>
     <use x="310.498046875" xlink:href="#BitstreamVeraSans-Roman-72"/>
     <use x="349.361328125" xlink:href="#BitstreamVeraSans-Roman-65"/>
     <use x="410.884765625" xlink:href="#BitstreamVeraSans-Roman-65"/>
     <use x="472.408203125" xlink:href="#BitstreamVeraSans-Roman-20"/>
     <use x="504.1953125" xlink:href="#BitstreamVeraSans-Roman-50"/>
     <use x="564.498046875" xlink:href="#BitstreamVeraSans-Roman-45"/>
     <use x="627.681640625" xlink:href="#BitstreamVeraSans-Roman-54"/>
     <use x="688.765625" xlink:href="#BitstreamVeraSans-Roman-20"/>
     <use x="720.552734375" xlink:href="#BitstreamVeraSans-Roman-61"/>
     <use x="781.83203125" xlink:href="#BitstreamVeraSans-Roman-74"/>
     <use x="821.041015625" xlink:href="#BitstreamVeraSans-Roman-20"/>
     <use x="852.828125" xlink:href="#BitstreamVeraSans-Roman-42"/>
     <use x="921.431640625" xlink:href="#BitstreamVeraSans-Roman-52"/>
     <use x="986.9140625" xlink:href="#BitstreamVeraSans-Roman-57"/>
     <use x="1085.79101562" xlink:href="#BitstreamVeraSans-Roman-74"/>
     <use x="1125.0" xlink:href="#BitstreamVeraSans-Roman-65"/>
     <use x="1186.5234375" xlink:href="#BitstreamVeraSans-Roman-6d"/>
     <use x="1283.93554688" xlink:href="#BitstreamVeraSans-Roman-70"/>
    </g>
   </g>
   <g id="legend_1">
    <g id="patch_7">
     <path d="
M411.281 98.0712
L497.906 98.0712
L497.906 30.3417
L411.281 30.3417
z
" style="fill:#ffffff;stroke:#000000;stroke-linejoin:miter;"/>
    </g>
    <g id="line2d_30">
     <path d="
M421.361 42.0035
L441.521 42.0035" style="fill:none;stroke:#0000ff;stroke-linecap:square;"/>
    </g>
    <g id="line2d_31"/>
    <g id="text_17">
     <!-- 2012 -->
     <g transform="translate(457.36125 47.0435)scale(0.144 -0.144)">
      <use xlink:href="#BitstreamVeraSans-Roman-32"/>
      <use x="63.623046875" xlink:href="#BitstreamVeraSans-Roman-30"/>
      <use x="127.24609375" xlink:href="#BitstreamVeraSans-Roman-31"/>
      <use x="190.869140625" xlink:href="#BitstreamVeraSans-Roman-32"/>
     </g>
    </g>
    <g id="line2d_32">
     <path d="
M421.361 63.14
L441.521 63.14" style="fill:none;stroke:#008000;stroke-linecap:square;"/>
    </g>
    <g id="line2d_33"/>
    <g id="text_18">
     <!-- 2013 -->
     <g transform="translate(457.36125 68.18)scale(0.144 -0.144)">
      <use xlink:href="#BitstreamVeraSans-Roman-32"/>
      <use x="63.623046875" xlink:href="#BitstreamVeraSans-Roman-30"/>
      <use x="127.24609375" xlink:href="#BitstreamVeraSans-Roman-31"/>
      <use x="190.869140625" xlink:href="#BitstreamVeraSans-Roman-33"/>
     </g>
    </g>
    <g id="line2d_34">
     <path d="
M421.361 84.2765
L441.521 84.2765" style="fill:none;stroke:#ff0000;stroke-linecap:square;"/>
    </g>
    <g id="line2d_35"/>
    <g id="text_19">
     <!-- 2014 -->
     <defs>
      <path d="
M37.7969 64.3125
L12.8906 25.3906
L37.7969 25.3906
z

M35.2031 72.9062
L47.6094 72.9062
L47.6094 25.3906
L58.0156 25.3906
L58.0156 17.1875
L47.6094 17.1875
L47.6094 0
L37.7969 0
L37.7969 17.1875
L4.89062 17.1875
L4.89062 26.7031
z
" id="BitstreamVeraSans-Roman-34"/>
     </defs>
     <g transform="translate(457.36125 89.3165)scale(0.144 -0.144)">
      <use xlink:href="#BitstreamVeraSans-Roman-32"/>
      <use x="63.623046875" xlink:href="#BitstreamVeraSans-Roman-30"/>
      <use x="127.24609375" xlink:href="#BitstreamVeraSans-Roman-31"/>
      <use x="190.869140625" xlink:href="#BitstreamVeraSans-Roman-34"/>
     </g>
    </g>
   </g>
  </g>
 </g>
 <defs>
  <clipPath id="p550dbe29e8">
   <rect height="345.6" width="446.4" x="58.70625" y="23.14175"/>
  </clipPath>
 </defs>
</svg>
