<?xml version="1.0" encoding="utf-8" standalone="no"?>
<!DOCTYPE svg PUBLIC "-//W3C//DTD SVG 1.1//EN"
  "http://www.w3.org/Graphics/SVG/1.1/DTD/svg11.dtd">
<!-- Created with matplotlib (http://matplotlib.org/) -->
<svg height="280pt" version="1.1" viewBox="0 0 399 280" width="399pt" xmlns="http://www.w3.org/2000/svg" xmlns:xlink="http://www.w3.org/1999/xlink">
 <defs>
  <style type="text/css">
*{stroke-linecap:butt;stroke-linejoin:round;}
  </style>
 </defs>
 <g id="figure_1">
  <g id="patch_1">
   <path d="
M0 280.074
L399.984 280.074
L399.984 0
L0 0
z
" style="fill:#ffffff;"/>
  </g>
  <g id="axes_1">
   <g id="patch_2">
    <path d="
M57.9844 244.518
L392.784 244.518
L392.784 21.3181
L57.9844 21.3181
z
" style="fill:#ffffff;"/>
   </g>
   <g id="line2d_1">
    <path clip-path="url(#pdf711f5425)" d="
M0 0" style="fill:none;stroke:#0000ff;stroke-linecap:square;"/>
   </g>
   <g id="line2d_2">
    <path clip-path="url(#pdf711f5425)" d="
M57.9844 65.8378
L58.9016 65.4163
L59.8189 65.8674
L60.7362 65.6277
L61.6534 64.9307
L63.4879 67.1904
L64.4052 66.0234
L65.3225 65.8954
L66.2397 65.8898
L67.157 66.2063
L68.9915 65.837
L70.826 65.927
L71.7433 66.924
L72.6605 66.646
L73.5778 66.6468
M81.8331 66.288
L82.7504 66.5995
L83.6677 65.8458
L84.5849 66.1893
L85.5022 65.9753
L86.4194 66.2087
L87.3367 66.0468
L91.0057 65.9807
L92.8403 66.0818
L94.6748 65.9124
L95.592 65.9582
L96.5093 66.148
L97.4266 65.9325
L98.3438 66.2332
L100.178 66.068
L101.096 65.9965
L102.013 66.2229
L102.93 66.2654
L103.847 66.1236
L104.765 63.5873
L105.682 73.97
L106.599 66.8065
L107.516 65.9409
L108.434 67.885
L109.351 66.0836
L110.268 66.0247
L111.185 66.2048
L112.103 69.0103
L113.02 68.7605
L113.937 67.1018
L114.855 66.2598
L115.772 65.8232
L116.689 65.7168
L117.606 68.5468
L118.524 66.2677
L120.358 65.3701
L121.275 65.7372
L122.193 65.6103
L123.11 65.8769
L124.027 65.6661
L124.944 65.9793
L126.779 65.8524
L128.613 66.1287
L129.531 66.5
L130.448 66.0199
L132.282 65.6387
L133.2 65.6776
L134.117 65.3717
L135.034 65.4749
L135.951 65.9568
L137.786 65.7796
L138.703 65.975
L139.621 65.6312
L140.538 63.8453
L141.455 67.4807
L142.372 65.9782
L143.29 65.4762
L144.207 65.4675
L145.124 66.2581
L146.041 68.5735
L146.959 65.8339
L147.876 65.5107
L148.793 65.4137
L149.71 65.0439
L151.545 65.7728
L152.462 65.8329
L153.379 65.5746
L155.214 65.9105
L156.131 65.605
L157.048 65.858
L157.966 65.7888
L158.883 65.2286
L159.8 65.5413
L160.718 65.2109
L161.635 65.2278
L162.552 65.5544
L163.469 65.2803
L164.387 64.6718
L165.304 66.2324
L168.056 65.141
L168.973 65.718
L170.807 65.7378
L171.725 65.667
L172.642 66.1923
L173.559 65.7646
L175.394 65.6562
L176.311 65.0725
L177.228 65.1829
L178.145 65.5273
L179.063 65.2873
L179.98 65.6141
L180.897 65.3569
L181.815 65.5111
L182.732 64.7653
L183.649 64.5744
L184.566 64.8295
L185.484 65.5749
L186.401 65.5299
L187.318 64.8713
L188.235 63.4446
L189.153 65.5199
L190.07 65.7546
L190.987 65.8702
L191.904 65.8418
L192.822 65.3956
L193.739 65.733
L194.656 65.2695
L195.573 64.9567
L196.491 64.8955
L197.408 65.2494
L198.325 64.9255
L199.242 65.4223
L200.16 62.8363
L201.077 65.8711
L201.994 65.8145
L202.911 65.3151
L204.746 65.7559
L205.663 65.5503
L207.498 65.4866
L208.415 64.4758
L209.332 65.3595
L210.25 64.7768
L211.167 65.4675
L212.084 63.5183
L213.001 64.4257
L213.919 65.6174
L214.836 65.5504
L215.753 64.8096
L216.67 64.3983
L217.588 65.1362
L218.505 64.7534
L219.422 65.434
L220.339 63.9481
L221.257 65.6662
L222.174 65.146
L223.091 65.0753
L224.008 65.3464
L224.926 64.5875
L225.843 65.4698
L226.76 64.2091
L227.678 65.5406
L228.595 65.3393
L230.429 65.2638
L231.347 64.8806
L232.264 64.8999
L233.181 65.3471
L236.85 65.0833
L237.767 65.4921
L239.602 65.0032
L240.519 65.1957
L242.354 65.1731
L243.271 64.8773
L244.188 65.2616
L245.105 65.1382
L246.023 65.3856
L246.94 65.4969
L247.857 65.1089
L248.775 65.1297
L249.692 64.9874
L250.609 65.488
L251.526 65.155
L252.444 65.1248
L253.361 64.9831
L254.278 64.5611
L255.195 64.9743
L256.113 65.2295
L257.947 65.4183
L258.864 65.2251
L260.699 65.4194
L262.533 65.2332
L263.451 65.56
L267.12 64.8428
L268.037 64.0708
L268.954 64.6152
L269.871 64.8367
L270.789 65.3497
L271.706 64.9824
L272.623 65.2616
L273.541 65.2652
L274.458 65.0921
L275.375 65.5395
L276.292 65.038
L277.21 65.3048
L278.127 65.1736
L279.044 64.9268
L279.961 65.592
L280.879 65.1922
M284.548 65.1218
L285.465 65.3678
L286.382 65.2755
L287.299 65.5144
L289.134 65.0427
L290.051 64.68
L290.968 65.124
L292.803 65.4068
L293.72 65.2011
L295.555 65.1677
L296.472 65.5331
L297.389 65.2286
L298.307 63.7947
L299.224 65.3416
L300.141 65.5455
L301.058 65.1827
L301.976 65.2735
L302.893 65.5925
L303.81 65.2882
L304.727 65.5347
L305.645 65.5992
L306.562 65.3969
L307.479 65.5305
L308.396 65.178
L309.314 65.3982
M312.065 65.6156
L312.983 65.8052
L313.9 65.8287
L315.735 65.5949
L318.486 65.712
L320.321 65.1846
L321.238 65.6328
L322.155 64.9358
L323.073 60.5919
L323.99 65.6419
L324.907 65.6278
L325.824 65.3701
L326.742 64.0047
L327.659 65.8865
L328.576 65.9339
L329.493 66.204
L330.411 66.072
L332.245 66.0571
L333.162 65.8093
L334.08 63.9211
L334.997 65.1952
L335.914 65.655
L336.831 65.458
L338.666 65.8442
L340.501 65.6327
L341.418 65.4066
L342.335 65.4924
L343.252 65.3651
L344.17 65.6402
L345.087 66.2467
L346.921 66.259
L348.756 66.0132
L351.508 65.9079
L352.425 65.8299
L354.259 65.9413
L355.177 65.791
L356.094 64.7261
L357.011 66.0214
L357.928 65.7019
L358.846 65.7574
L360.68 66.1446
L361.598 65.8503
L362.515 65.7074
L363.432 65.8751
L365.267 65.876
L366.184 65.1154
L367.101 66.0005
L368.018 65.8438
L368.936 65.3838
L369.853 66.2526
L370.77 66.7482
L372.605 66.1245
M374.439 66.0014
L375.356 68.6059
L376.274 65.9865
L377.191 66.0406
M379.025 66.11
L379.943 67.8763
L380.86 66.6465
L381.777 66.3691
L384.529 66.1084
L385.446 66.2194
L386.364 72.4325
M390.033 66.0629
L390.95 66.1551
L391.867 66.1507" style="fill:none;stroke:#008000;stroke-linecap:square;"/>
   </g>
   <g id="line2d_3">
    <path clip-path="url(#pdf711f5425)" d="
M57.9844 66.3107
L58.9016 66.1229
L60.7362 66.0033
L63.4879 66.3158
M65.3225 65.9806
L66.2397 67.5895
M68.0742 66.1814
L68.9915 66.1474
L69.9088 66.3367
L72.6605 65.9192
L74.4951 65.9157
L75.4123 65.715
L76.3296 65.8599
L78.1641 65.5437
L79.0814 65.9675
L80.9159 66.0504
L81.8331 66.8102
L82.7504 66.0825
M85.5022 65.9786
L88.254 66.0917
L89.1712 65.8549
L90.0885 65.9007
L91.0057 66.1246
L92.8403 66.0491
L93.7575 67.7677
L94.6748 66.219
L95.592 66.2037
L96.5093 67.054
L97.4266 66.9031
L98.3438 67.0257
L99.2611 65.8676
L100.178 65.8518
L101.096 66.5199
L102.013 66.11
L102.93 66.1335
L103.847 67.9217
L104.765 67.8619
L105.682 66.5897
L106.599 67.43
L107.516 66.5869
L108.434 66.3892
L109.351 67.4574
L110.268 66.0128
L112.103 65.9302
L113.02 65.7526
L113.937 64.8314
L114.855 66.1078
L115.772 65.8599
L116.689 65.7942
L117.606 65.9704
L119.441 65.967
L120.358 65.6951
L121.275 66.0398
L123.11 65.6943
L124.027 65.5622
L124.944 65.2525
L125.862 65.7652
L126.779 70.0443
L127.696 66.4247
L128.613 65.8448
L129.531 65.7079
L130.448 68.5451
L131.365 67.9157
L132.282 66.3111
L133.2 66.0123
L134.117 65.8767
L135.034 65.9451
L138.703 65.7174
L139.621 65.7133
L141.455 64.65
L142.372 65.7096
L143.29 65.5407
L144.207 65.508
L146.041 66.1634
L146.959 66.0774
L147.876 65.2907
L148.793 64.9065
L149.71 65.6277
L150.628 65.7884
L151.545 63.5045
L152.462 66.21
L155.214 65.9981
L156.131 65.8267
L157.966 66.0133
L158.883 65.4587
L159.8 65.9758
L161.635 65.819
L163.469 65.3404
L164.387 65.4044
L165.304 64.7087
L166.221 62.6061
L167.138 66.3309
L168.056 65.7694
L168.973 65.7049
L169.89 65.1722
L170.807 65.6951
L171.725 65.533
L173.559 65.6714
L174.476 65.5415
L175.394 65.2353
L177.228 65.515
L178.145 65.225
L179.063 63.7086
L179.98 65.121
L180.897 65.45
L182.732 65.8244
L183.649 65.3404
L184.566 65.1724
L185.484 65.6149
L186.401 64.2816
L188.235 65.5688
L189.153 65.5333
L190.07 65.3097
L191.904 65.6934
L193.739 65.6366
L194.656 65.4806
L195.573 65.1361
L196.491 65.5559
L197.408 64.9959
L198.325 65.0133
L200.16 65.2902
L201.077 65.3647
L201.994 64.4354
L202.911 64.0161
L203.829 65.2088
L205.663 64.6566
L206.581 65.3247
L207.498 64.8158
L208.415 65.548
L210.25 65.5355
L211.167 65.2446
L212.084 63.377
L213.001 64.7357
L213.919 65.766
L214.836 65.5546
L217.588 65.4566
L218.505 65.6821
L219.422 65.3267
L221.257 65.4449
L222.174 65.2115
L223.091 65.356
L224.926 64.8454
L225.843 64.1769
L226.76 64.755
L228.595 65.4577
L229.512 65.4533
L230.429 65.1874
L231.347 65.4488
L232.264 65.3538
L233.181 65.0483
L235.016 65.0727
L235.933 65.47
L236.85 65.3778
L238.685 64.8259
L239.602 65.3805
L240.519 65.3431
L241.436 65.0317
L242.354 65.3061
L243.271 64.8456
L244.188 65.3228
L245.105 64.9315
L246.023 64.9787
L246.94 65.4089
L247.857 64.6602
L248.775 65.2468
L251.526 65.3146
L252.444 64.592
L253.361 65.3945
L254.278 65.4731
L255.195 65.3485
L256.113 65.3549
L257.03 65.0867
L258.864 64.9994
L259.782 65.2856
L260.699 65.1794
L261.616 65.2614
L262.533 65.1324
L263.451 65.2974
L265.285 65.3858
L266.202 65.011
L267.12 65.3293
L268.037 65.1375
L270.789 65.4077
L271.706 65.2449
L272.623 65.3983
L273.541 65.3276
L274.458 64.9602
L275.375 65.4598
L276.292 65.1669
L277.21 65.3145
L278.127 65.1828
L279.044 64.4286
L279.961 65.4895
L280.879 65.4322
L281.796 65.1921
L282.713 65.3548
L285.465 64.9262
L286.382 65.3159
L287.299 65.1499
L288.217 65.1878
L289.134 65.3861
L290.051 65.3523
L291.886 65.5559
L292.803 65.5057
L293.72 65.0827
L294.638 65.4418
L295.555 65.3864
L297.389 65.6228
L298.307 64.7849
L299.224 64.7942
L300.141 64.4967
L301.058 64.7074
L301.976 65.4471
L302.893 65.9479
L304.727 65.7577
L305.645 65.6492
L306.562 65.3075
L307.479 63.8731
L308.396 65.7824
L310.231 65.9154
L311.148 65.7445
L312.065 65.7828
L312.983 65.3488
L313.9 65.4864
L314.817 65.872
L316.652 65.6835
L317.569 65.8748
L319.404 65.7709
L321.238 65.8452
L323.073 65.672
L323.99 65.7959
L324.907 65.3169
L325.824 65.0387
L326.742 65.6961
L328.576 65.7811
L330.411 65.7392
L332.245 65.6293
L334.08 65.9644
L334.997 66.0737
L335.914 65.8607
L336.831 65.8699
L337.749 65.7159
M339.583 66.2816
L340.501 66.0267
L341.418 65.9369
L342.335 65.6002
L343.252 65.9731
L344.17 65.8509
L345.087 65.6125
L346.004 65.664
L346.921 65.4476
L348.756 65.8342
L349.673 66.2387
L350.59 66.8498
L351.508 66.0386
L352.425 65.8714
L353.342 65.8555
L355.177 65.9779
L357.011 65.8672
L359.763 65.6581
L360.68 65.6672
L361.598 65.8441
L363.432 65.9682
L364.349 60.2096
L365.267 34.1055
L366.184 66.3812
L367.101 66.1031
L368.018 66.1116
L368.936 66.2949
L369.853 66.2295
L370.77 67.0681
L371.687 66.8271
L372.605 66.1504
L374.439 66.0283
L375.356 66.1608
L376.274 66.0361
L377.191 65.7046
L378.108 65.8476
L379.025 65.7545
L379.943 65.8421
L380.86 66.3066
L381.777 67.2594
L382.695 66.4904
L383.612 66.149
L384.529 66.8871
L385.446 66.1283
L386.364 65.8435
L387.281 65.8439
L388.198 65.7029
L390.033 66.3411
L390.95 65.8721
L391.867 66.1395
L391.867 66.1395" style="fill:none;stroke:#ff0000;stroke-linecap:square;"/>
   </g>
   <g id="line2d_4">
    <path clip-path="url(#pdf711f5425)" d="
M57.9844 65.9668
L58.9016 65.9297
L59.8189 65.5185
L60.7362 68.0956
L61.6534 67.123
L62.5707 65.8957
L63.4879 66.0794
L64.4052 66.1025
M67.157 66.1591
L68.0742 74.014
M69.9088 65.9168
L70.826 65.649
L71.7433 65.808
L72.6605 65.636
L73.5778 65.7766
L74.4951 65.7202
L78.1641 65.9334
L80.9159 65.6521
L81.8331 65.9065
L82.7504 65.9705
L83.6677 65.4409
L84.5849 66.8332
L85.5022 66.2875
L86.4194 66.4334
L87.3367 66.0555
L89.1712 66.3062
L90.0885 66.0968
L91.0057 66.7214
L91.923 66.5292
L92.8403 66.4556
L93.7575 65.9784
L94.6748 66.0279
L95.592 66.4548
L96.5093 65.3637
L97.4266 65.6802
L98.3438 65.7838
L100.178 65.446
L101.096 65.7112
L102.013 65.8066
L102.93 65.7486
L103.847 66.865
L104.765 66.5274
L105.682 66.7839
L106.599 65.8855
L107.516 65.7432
L110.268 65.6621
L111.185 65.9656
L112.103 66.0854
L113.02 65.9924
L113.937 66.052
L115.772 65.8921
L116.689 63.1747
L117.606 65.9846
L119.441 65.7144
L120.358 65.7022
L121.275 65.9423
L122.193 65.9108
L123.11 65.7525
L124.944 65.7491
L125.862 65.3663
L126.779 60.6049
L127.696 66.1023
L129.531 65.6042
L130.448 65.9988
L133.2 65.7937
L134.117 65.4422
L135.034 65.972
L135.951 67.3733
L136.869 65.9764
L141.455 66.0503
L143.29 65.9309
L144.207 65.9748
L145.124 65.3937
L146.041 65.6558
L146.959 65.7062
L147.876 65.1193
L148.793 65.5521
L149.71 65.6598
L150.628 65.4266
L151.545 65.416
L152.462 65.7809
L153.379 65.1255
L154.297 65.763
L155.214 65.4417
L156.131 65.6497
L157.048 65.4315
L157.966 65.6541
L158.883 65.4949
L160.718 65.9664
L161.635 65.7662
L162.552 65.9607
L163.469 67.4433
L164.387 66.0648
L165.304 65.9577
L166.221 65.6415
L167.138 65.7197
L168.056 65.4483
L168.973 65.5461
L169.89 64.9931
L170.807 65.184
L171.725 65.6004
L172.642 65.3614
L173.559 65.384
L174.476 65.5791
L175.394 64.1115
L176.311 65.8353
L177.228 64.8721
L178.145 65.2403
L179.063 64.8675
L179.98 64.946
L180.897 64.8701
L181.815 65.2177
L182.732 65.1403
L183.649 65.2191
L184.566 65.447
L185.484 65.073
L186.401 64.8217
L187.318 64.8999
L188.235 64.8053
L189.153 64.9214
L190.07 65.2626
L190.987 64.91
L192.822 64.9556
L193.739 65.298
L195.573 64.8413
L196.491 64.7368
L197.408 63.0595
L198.325 63.9295
L199.242 65.2071
L200.16 65.3069
L203.829 65.2666
L204.746 64.9428
L205.663 65.5223
L206.581 64.6898
L208.415 65.6237
L209.332 65.648
L210.25 65.498
L211.167 65.7872
L212.084 65.7682
L213.919 65.4137
L215.753 65.4159
L216.67 65.4744
L217.588 65.3256
L218.505 65.5034
L219.422 65.1333
L220.339 65.2038
L221.257 65.5184
L222.174 65.3274
L223.091 65.4539
L224.926 65.0847
L225.843 65.3736
L226.76 65.4154
L227.678 65.1251
L228.595 65.3509
L229.512 64.8705
L231.347 65.1473
L233.181 65.2969
L234.098 64.9483
L235.016 65.3728
L235.933 64.9104
L236.85 64.8057
L237.767 65.2071
L238.685 65.3023
L239.602 64.9808
L240.519 65.0397
L243.271 65.4868
L244.188 64.8885
L245.105 64.9556
L246.94 65.465
L249.692 65.1971
L250.609 65.3763
L251.526 65.2666
L253.361 65.4129
L254.278 65.2742
L255.195 65.3411
L256.113 65.2404
L258.864 65.5362
L259.782 65.3433
L260.699 65.4633
L261.616 65.2096
L262.533 65.2069
L264.368 65.5841
L265.285 65.5241
L266.202 65.3346
L267.12 65.4752
L268.954 65.2502
L270.789 65.4639
L272.623 65.5539
L274.458 65.6915
L275.375 65.5248
L278.127 65.3886
L279.044 65.0808
L279.961 65.5711
L281.796 65.4165
L282.713 64.7953
L283.63 65.6759
L287.299 65.4494
L288.217 64.5951
L289.134 65.3843
L290.051 65.6142
L290.968 65.458
L292.803 65.6006
L297.389 65.1859
L298.307 65.5369
L299.224 65.281
L300.141 65.6297
L301.976 65.2026
L302.893 63.6979
L303.81 65.6564
L306.562 65.7809
L307.479 65.3752
L308.396 65.6284
L309.314 65.4148
L310.231 65.7235
L311.148 65.4487
L312.983 65.3611
L313.9 65.4659
L314.817 65.404
L315.735 65.6568
L316.652 65.3611
L317.569 65.3332
L318.486 65.6875
L319.404 65.6173
L320.321 65.3877
L321.238 64.9482
L322.155 65.7977
L323.073 65.3888
L323.99 65.622
L324.907 65.3672
L326.742 65.4578
L327.659 65.7648
L329.493 65.6421
L330.411 64.6774
L331.328 59.5999
L332.245 65.9699
L334.997 65.2624
L335.914 65.5933
L336.831 65.6021
L337.749 66.1044
L339.583 65.9191
L340.501 65.8336
L341.418 65.3077
L342.335 65.547
L343.252 65.6442
L344.17 63.7183
L345.087 66.6225
L346.004 66.0798
L346.921 66.123
L347.839 66.625
L348.756 241.022
L349.673 66.0257
L350.59 66.146
L353.342 65.8857
L354.259 65.8751
L355.177 65.9803
L356.094 65.7016
M357.928 66.261
L358.846 55.9499
L359.763 65.1513
L360.68 65.5238
L361.598 65.5488
L362.515 63.9297
L363.432 66.1873
L367.101 65.9154
L368.018 65.852
L369.853 65.867
L371.687 65.8146
L372.605 65.5549
L373.522 65.4719
L374.439 65.5051
M376.274 65.969
L377.191 66.1906
L379.943 66.0261
L380.86 66.4512
L381.777 66.6575
L382.695 45.897
M384.529 66.05
L385.446 66.3585
L386.364 94.9545
L387.281 66.8925
L388.198 66.314
L389.115 68.6751
M390.95 65.9969
L391.867 66.0512
L391.867 66.0512" style="fill:none;stroke:#00bfbf;stroke-linecap:square;"/>
   </g>
   <g id="patch_3">
    <path d="
M57.9844 21.3181
L392.784 21.3181" style="fill:none;stroke:#000000;stroke-linecap:square;stroke-linejoin:miter;"/>
   </g>
   <g id="patch_4">
    <path d="
M392.784 244.518
L392.784 21.3181" style="fill:none;stroke:#000000;stroke-linecap:square;stroke-linejoin:miter;"/>
   </g>
   <g id="patch_5">
    <path d="
M57.9844 244.518
L392.784 244.518" style="fill:none;stroke:#000000;stroke-linecap:square;stroke-linejoin:miter;"/>
   </g>
   <g id="patch_6">
    <path d="
M57.9844 244.518
L57.9844 21.3181" style="fill:none;stroke:#000000;stroke-linecap:square;stroke-linejoin:miter;"/>
   </g>
   <g id="matplotlib.axis_1">
    <g id="xtick_1">
     <g id="line2d_5">
      <defs>
       <path d="
M0 0
L0 -4" id="m93b0483c22" style="stroke:#000000;stroke-width:0.5;"/>
      </defs>
      <g>
       <use style="stroke:#000000;stroke-width:0.5;" x="57.984375" xlink:href="#m93b0483c22" y="244.518125"/>
      </g>
     </g>
     <g id="line2d_6">
      <defs>
       <path d="
M0 0
L0 4" id="m741efc42ff" style="stroke:#000000;stroke-width:0.5;"/>
      </defs>
      <g>
       <use style="stroke:#000000;stroke-width:0.5;" x="57.984375" xlink:href="#m741efc42ff" y="21.318125"/>
      </g>
     </g>
     <g id="text_1">
      <!-- 0 -->
      <defs>
       <path d="
M31.7812 66.4062
Q24.1719 66.4062 20.3281 58.9062
Q16.5 51.4219 16.5 36.375
Q16.5 21.3906 20.3281 13.8906
Q24.1719 6.39062 31.7812 6.39062
Q39.4531 6.39062 43.2812 13.8906
Q47.125 21.3906 47.125 36.375
Q47.125 51.4219 43.2812 58.9062
Q39.4531 66.4062 31.7812 66.4062
M31.7812 74.2188
Q44.0469 74.2188 50.5156 64.5156
Q56.9844 54.8281 56.9844 36.375
Q56.9844 17.9688 50.5156 8.26562
Q44.0469 -1.42188 31.7812 -1.42188
Q19.5312 -1.42188 13.0625 8.26562
Q6.59375 17.9688 6.59375 36.375
Q6.59375 54.8281 13.0625 64.5156
Q19.5312 74.2188 31.7812 74.2188" id="BitstreamVeraSans-Roman-30"/>
      </defs>
      <g transform="translate(55.46484375 256.1165625)scale(0.1 -0.1)">
       <use xlink:href="#BitstreamVeraSans-Roman-30"/>
      </g>
     </g>
    </g>
    <g id="xtick_2">
     <g id="line2d_7">
      <g>
       <use style="stroke:#000000;stroke-width:0.5;" x="103.847388699" xlink:href="#m93b0483c22" y="244.518125"/>
      </g>
     </g>
     <g id="line2d_8">
      <g>
       <use style="stroke:#000000;stroke-width:0.5;" x="103.847388699" xlink:href="#m741efc42ff" y="21.318125"/>
      </g>
     </g>
     <g id="text_2">
      <!-- 50 -->
      <defs>
       <path d="
M10.7969 72.9062
L49.5156 72.9062
L49.5156 64.5938
L19.8281 64.5938
L19.8281 46.7344
Q21.9688 47.4688 24.1094 47.8281
Q26.2656 48.1875 28.4219 48.1875
Q40.625 48.1875 47.75 41.5
Q54.8906 34.8125 54.8906 23.3906
Q54.8906 11.625 47.5625 5.09375
Q40.2344 -1.42188 26.9062 -1.42188
Q22.3125 -1.42188 17.5469 -0.640625
Q12.7969 0.140625 7.71875 1.70312
L7.71875 11.625
Q12.1094 9.23438 16.7969 8.0625
Q21.4844 6.89062 26.7031 6.89062
Q35.1562 6.89062 40.0781 11.3281
Q45.0156 15.7656 45.0156 23.3906
Q45.0156 31 40.0781 35.4375
Q35.1562 39.8906 26.7031 39.8906
Q22.75 39.8906 18.8125 39.0156
Q14.8906 38.1406 10.7969 36.2812
z
" id="BitstreamVeraSans-Roman-35"/>
      </defs>
      <g transform="translate(98.2028574486 256.1165625)scale(0.1 -0.1)">
       <use xlink:href="#BitstreamVeraSans-Roman-35"/>
       <use x="63.623046875" xlink:href="#BitstreamVeraSans-Roman-30"/>
      </g>
     </g>
    </g>
    <g id="xtick_3">
     <g id="line2d_9">
      <g>
       <use style="stroke:#000000;stroke-width:0.5;" x="149.710402397" xlink:href="#m93b0483c22" y="244.518125"/>
      </g>
     </g>
     <g id="line2d_10">
      <g>
       <use style="stroke:#000000;stroke-width:0.5;" x="149.710402397" xlink:href="#m741efc42ff" y="21.318125"/>
      </g>
     </g>
     <g id="text_3">
      <!-- 100 -->
      <defs>
       <path d="
M12.4062 8.29688
L28.5156 8.29688
L28.5156 63.9219
L10.9844 60.4062
L10.9844 69.3906
L28.4219 72.9062
L38.2812 72.9062
L38.2812 8.29688
L54.3906 8.29688
L54.3906 0
L12.4062 0
z
" id="BitstreamVeraSans-Roman-31"/>
      </defs>
      <g transform="translate(141.047902397 256.1165625)scale(0.1 -0.1)">
       <use xlink:href="#BitstreamVeraSans-Roman-31"/>
       <use x="63.623046875" xlink:href="#BitstreamVeraSans-Roman-30"/>
       <use x="127.24609375" xlink:href="#BitstreamVeraSans-Roman-30"/>
      </g>
     </g>
    </g>
    <g id="xtick_4">
     <g id="line2d_11">
      <g>
       <use style="stroke:#000000;stroke-width:0.5;" x="195.573416096" xlink:href="#m93b0483c22" y="244.518125"/>
      </g>
     </g>
     <g id="line2d_12">
      <g>
       <use style="stroke:#000000;stroke-width:0.5;" x="195.573416096" xlink:href="#m741efc42ff" y="21.318125"/>
      </g>
     </g>
     <g id="text_4">
      <!-- 150 -->
      <g transform="translate(186.910916096 256.1165625)scale(0.1 -0.1)">
       <use xlink:href="#BitstreamVeraSans-Roman-31"/>
       <use x="63.623046875" xlink:href="#BitstreamVeraSans-Roman-35"/>
       <use x="127.24609375" xlink:href="#BitstreamVeraSans-Roman-30"/>
      </g>
     </g>
    </g>
    <g id="xtick_5">
     <g id="line2d_13">
      <g>
       <use style="stroke:#000000;stroke-width:0.5;" x="241.436429795" xlink:href="#m93b0483c22" y="244.518125"/>
      </g>
     </g>
     <g id="line2d_14">
      <g>
       <use style="stroke:#000000;stroke-width:0.5;" x="241.436429795" xlink:href="#m741efc42ff" y="21.318125"/>
      </g>
     </g>
     <g id="text_5">
      <!-- 200 -->
      <defs>
       <path d="
M19.1875 8.29688
L53.6094 8.29688
L53.6094 0
L7.32812 0
L7.32812 8.29688
Q12.9375 14.1094 22.625 23.8906
Q32.3281 33.6875 34.8125 36.5312
Q39.5469 41.8438 41.4219 45.5312
Q43.3125 49.2188 43.3125 52.7812
Q43.3125 58.5938 39.2344 62.25
Q35.1562 65.9219 28.6094 65.9219
Q23.9688 65.9219 18.8125 64.3125
Q13.6719 62.7031 7.8125 59.4219
L7.8125 69.3906
Q13.7656 71.7812 18.9375 73
Q24.125 74.2188 28.4219 74.2188
Q39.75 74.2188 46.4844 68.5469
Q53.2188 62.8906 53.2188 53.4219
Q53.2188 48.9219 51.5312 44.8906
Q49.8594 40.875 45.4062 35.4062
Q44.1875 33.9844 37.6406 27.2188
Q31.1094 20.4531 19.1875 8.29688" id="BitstreamVeraSans-Roman-32"/>
      </defs>
      <g transform="translate(232.591117295 256.1165625)scale(0.1 -0.1)">
       <use xlink:href="#BitstreamVeraSans-Roman-32"/>
       <use x="63.623046875" xlink:href="#BitstreamVeraSans-Roman-30"/>
       <use x="127.24609375" xlink:href="#BitstreamVeraSans-Roman-30"/>
      </g>
     </g>
    </g>
    <g id="xtick_6">
     <g id="line2d_15">
      <g>
       <use style="stroke:#000000;stroke-width:0.5;" x="287.299443493" xlink:href="#m93b0483c22" y="244.518125"/>
      </g>
     </g>
     <g id="line2d_16">
      <g>
       <use style="stroke:#000000;stroke-width:0.5;" x="287.299443493" xlink:href="#m741efc42ff" y="21.318125"/>
      </g>
     </g>
     <g id="text_6">
      <!-- 250 -->
      <g transform="translate(278.454130993 256.1165625)scale(0.1 -0.1)">
       <use xlink:href="#BitstreamVeraSans-Roman-32"/>
       <use x="63.623046875" xlink:href="#BitstreamVeraSans-Roman-35"/>
       <use x="127.24609375" xlink:href="#BitstreamVeraSans-Roman-30"/>
      </g>
     </g>
    </g>
    <g id="xtick_7">
     <g id="line2d_17">
      <g>
       <use style="stroke:#000000;stroke-width:0.5;" x="333.162457192" xlink:href="#m93b0483c22" y="244.518125"/>
      </g>
     </g>
     <g id="line2d_18">
      <g>
       <use style="stroke:#000000;stroke-width:0.5;" x="333.162457192" xlink:href="#m741efc42ff" y="21.318125"/>
      </g>
     </g>
     <g id="text_7">
      <!-- 300 -->
      <defs>
       <path d="
M40.5781 39.3125
Q47.6562 37.7969 51.625 33
Q55.6094 28.2188 55.6094 21.1875
Q55.6094 10.4062 48.1875 4.48438
Q40.7656 -1.42188 27.0938 -1.42188
Q22.5156 -1.42188 17.6562 -0.515625
Q12.7969 0.390625 7.625 2.20312
L7.625 11.7188
Q11.7188 9.32812 16.5938 8.10938
Q21.4844 6.89062 26.8125 6.89062
Q36.0781 6.89062 40.9375 10.5469
Q45.7969 14.2031 45.7969 21.1875
Q45.7969 27.6406 41.2812 31.2656
Q36.7656 34.9062 28.7188 34.9062
L20.2188 34.9062
L20.2188 43.0156
L29.1094 43.0156
Q36.375 43.0156 40.2344 45.9219
Q44.0938 48.8281 44.0938 54.2969
Q44.0938 59.9062 40.1094 62.9062
Q36.1406 65.9219 28.7188 65.9219
Q24.6562 65.9219 20.0156 65.0312
Q15.375 64.1562 9.8125 62.3125
L9.8125 71.0938
Q15.4375 72.6562 20.3438 73.4375
Q25.25 74.2188 29.5938 74.2188
Q40.8281 74.2188 47.3594 69.1094
Q53.9062 64.0156 53.9062 55.3281
Q53.9062 49.2656 50.4375 45.0938
Q46.9688 40.9219 40.5781 39.3125" id="BitstreamVeraSans-Roman-33"/>
      </defs>
      <g transform="translate(324.331988442 256.1165625)scale(0.1 -0.1)">
       <use xlink:href="#BitstreamVeraSans-Roman-33"/>
       <use x="63.623046875" xlink:href="#BitstreamVeraSans-Roman-30"/>
       <use x="127.24609375" xlink:href="#BitstreamVeraSans-Roman-30"/>
      </g>
     </g>
    </g>
    <g id="xtick_8">
     <g id="line2d_19">
      <g>
       <use style="stroke:#000000;stroke-width:0.5;" x="379.02547089" xlink:href="#m93b0483c22" y="244.518125"/>
      </g>
     </g>
     <g id="line2d_20">
      <g>
       <use style="stroke:#000000;stroke-width:0.5;" x="379.02547089" xlink:href="#m741efc42ff" y="21.318125"/>
      </g>
     </g>
     <g id="text_8">
      <!-- 350 -->
      <g transform="translate(370.19500214 256.1165625)scale(0.1 -0.1)">
       <use xlink:href="#BitstreamVeraSans-Roman-33"/>
       <use x="63.623046875" xlink:href="#BitstreamVeraSans-Roman-35"/>
       <use x="127.24609375" xlink:href="#BitstreamVeraSans-Roman-30"/>
      </g>
     </g>
    </g>
    <g id="text_9">
     <!-- Julian day -->
     <defs>
      <path id="BitstreamVeraSans-Roman-20"/>
      <path d="
M9.8125 72.9062
L19.6719 72.9062
L19.6719 5.07812
Q19.6719 -8.10938 14.6719 -14.0625
Q9.67188 -20.0156 -1.42188 -20.0156
L-5.17188 -20.0156
L-5.17188 -11.7188
L-2.09375 -11.7188
Q4.4375 -11.7188 7.125 -8.04688
Q9.8125 -4.39062 9.8125 5.07812
z
" id="BitstreamVeraSans-Roman-4a"/>
      <path d="
M54.8906 33.0156
L54.8906 0
L45.9062 0
L45.9062 32.7188
Q45.9062 40.4844 42.875 44.3281
Q39.8438 48.1875 33.7969 48.1875
Q26.5156 48.1875 22.3125 43.5469
Q18.1094 38.9219 18.1094 30.9062
L18.1094 0
L9.07812 0
L9.07812 54.6875
L18.1094 54.6875
L18.1094 46.1875
Q21.3438 51.125 25.7031 53.5625
Q30.0781 56 35.7969 56
Q45.2188 56 50.0469 50.1719
Q54.8906 44.3438 54.8906 33.0156" id="BitstreamVeraSans-Roman-6e"/>
      <path d="
M9.42188 75.9844
L18.4062 75.9844
L18.4062 0
L9.42188 0
z
" id="BitstreamVeraSans-Roman-6c"/>
      <path d="
M9.42188 54.6875
L18.4062 54.6875
L18.4062 0
L9.42188 0
z

M9.42188 75.9844
L18.4062 75.9844
L18.4062 64.5938
L9.42188 64.5938
z
" id="BitstreamVeraSans-Roman-69"/>
      <path d="
M32.1719 -5.07812
Q28.375 -14.8438 24.75 -17.8125
Q21.1406 -20.7969 15.0938 -20.7969
L7.90625 -20.7969
L7.90625 -13.2812
L13.1875 -13.2812
Q16.8906 -13.2812 18.9375 -11.5156
Q21 -9.76562 23.4844 -3.21875
L25.0938 0.875
L2.98438 54.6875
L12.5 54.6875
L29.5938 11.9219
L46.6875 54.6875
L56.2031 54.6875
z
" id="BitstreamVeraSans-Roman-79"/>
      <path d="
M45.4062 46.3906
L45.4062 75.9844
L54.3906 75.9844
L54.3906 0
L45.4062 0
L45.4062 8.20312
Q42.5781 3.32812 38.25 0.953125
Q33.9375 -1.42188 27.875 -1.42188
Q17.9688 -1.42188 11.7344 6.48438
Q5.51562 14.4062 5.51562 27.2969
Q5.51562 40.1875 11.7344 48.0938
Q17.9688 56 27.875 56
Q33.9375 56 38.25 53.625
Q42.5781 51.2656 45.4062 46.3906
M14.7969 27.2969
Q14.7969 17.3906 18.875 11.75
Q22.9531 6.10938 30.0781 6.10938
Q37.2031 6.10938 41.2969 11.75
Q45.4062 17.3906 45.4062 27.2969
Q45.4062 37.2031 41.2969 42.8438
Q37.2031 48.4844 30.0781 48.4844
Q22.9531 48.4844 18.875 42.8438
Q14.7969 37.2031 14.7969 27.2969" id="BitstreamVeraSans-Roman-64"/>
      <path d="
M8.5 21.5781
L8.5 54.6875
L17.4844 54.6875
L17.4844 21.9219
Q17.4844 14.1562 20.5 10.2656
Q23.5312 6.39062 29.5938 6.39062
Q36.8594 6.39062 41.0781 11.0312
Q45.3125 15.6719 45.3125 23.6875
L45.3125 54.6875
L54.2969 54.6875
L54.2969 0
L45.3125 0
L45.3125 8.40625
Q42.0469 3.42188 37.7188 1
Q33.4062 -1.42188 27.6875 -1.42188
Q18.2656 -1.42188 13.375 4.4375
Q8.5 10.2969 8.5 21.5781" id="BitstreamVeraSans-Roman-75"/>
      <path d="
M34.2812 27.4844
Q23.3906 27.4844 19.1875 25
Q14.9844 22.5156 14.9844 16.5
Q14.9844 11.7188 18.1406 8.90625
Q21.2969 6.10938 26.7031 6.10938
Q34.1875 6.10938 38.7031 11.4062
Q43.2188 16.7031 43.2188 25.4844
L43.2188 27.4844
z

M52.2031 31.2031
L52.2031 0
L43.2188 0
L43.2188 8.29688
Q40.1406 3.32812 35.5469 0.953125
Q30.9531 -1.42188 24.3125 -1.42188
Q15.9219 -1.42188 10.9531 3.29688
Q6 8.01562 6 15.9219
Q6 25.1406 12.1719 29.8281
Q18.3594 34.5156 30.6094 34.5156
L43.2188 34.5156
L43.2188 35.4062
Q43.2188 41.6094 39.1406 45
Q35.0625 48.3906 27.6875 48.3906
Q23 48.3906 18.5469 47.2656
Q14.1094 46.1406 10.0156 43.8906
L10.0156 52.2031
Q14.9375 54.1094 19.5781 55.0469
Q24.2188 56 28.6094 56
Q40.4844 56 46.3438 49.8438
Q52.2031 43.7031 52.2031 31.2031" id="BitstreamVeraSans-Roman-61"/>
     </defs>
     <g transform="translate(200.83359375 270.7946875)scale(0.1 -0.1)">
      <use xlink:href="#BitstreamVeraSans-Roman-4a"/>
      <use x="29.4921875" xlink:href="#BitstreamVeraSans-Roman-75"/>
      <use x="92.87109375" xlink:href="#BitstreamVeraSans-Roman-6c"/>
      <use x="120.654296875" xlink:href="#BitstreamVeraSans-Roman-69"/>
      <use x="148.4375" xlink:href="#BitstreamVeraSans-Roman-61"/>
      <use x="209.716796875" xlink:href="#BitstreamVeraSans-Roman-6e"/>
      <use x="273.095703125" xlink:href="#BitstreamVeraSans-Roman-20"/>
      <use x="304.8828125" xlink:href="#BitstreamVeraSans-Roman-64"/>
      <use x="368.359375" xlink:href="#BitstreamVeraSans-Roman-61"/>
      <use x="429.638671875" xlink:href="#BitstreamVeraSans-Roman-79"/>
     </g>
    </g>
   </g>
   <g id="matplotlib.axis_2">
    <g id="ytick_1">
     <g id="line2d_21">
      <defs>
       <path d="
M0 0
L4 0" id="m728421d6d4" style="stroke:#000000;stroke-width:0.5;"/>
      </defs>
      <g>
       <use style="stroke:#000000;stroke-width:0.5;" x="57.984375" xlink:href="#m728421d6d4" y="244.518125"/>
      </g>
     </g>
     <g id="line2d_22">
      <defs>
       <path d="
M0 0
L-4 0" id="mcb0005524f" style="stroke:#000000;stroke-width:0.5;"/>
      </defs>
      <g>
       <use style="stroke:#000000;stroke-width:0.5;" x="392.784375" xlink:href="#mcb0005524f" y="244.518125"/>
      </g>
     </g>
     <g id="text_10">
      <!-- −8000 -->
      <defs>
       <path d="
M10.5938 35.5
L73.1875 35.5
L73.1875 27.2031
L10.5938 27.2031
z
" id="BitstreamVeraSans-Roman-2212"/>
       <path d="
M31.7812 34.625
Q24.75 34.625 20.7188 30.8594
Q16.7031 27.0938 16.7031 20.5156
Q16.7031 13.9219 20.7188 10.1562
Q24.75 6.39062 31.7812 6.39062
Q38.8125 6.39062 42.8594 10.1719
Q46.9219 13.9688 46.9219 20.5156
Q46.9219 27.0938 42.8906 30.8594
Q38.875 34.625 31.7812 34.625
M21.9219 38.8125
Q15.5781 40.375 12.0312 44.7188
Q8.5 49.0781 8.5 55.3281
Q8.5 64.0625 14.7188 69.1406
Q20.9531 74.2188 31.7812 74.2188
Q42.6719 74.2188 48.875 69.1406
Q55.0781 64.0625 55.0781 55.3281
Q55.0781 49.0781 51.5312 44.7188
Q48 40.375 41.7031 38.8125
Q48.8281 37.1562 52.7969 32.3125
Q56.7812 27.4844 56.7812 20.5156
Q56.7812 9.90625 50.3125 4.23438
Q43.8438 -1.42188 31.7812 -1.42188
Q19.7344 -1.42188 13.25 4.23438
Q6.78125 9.90625 6.78125 20.5156
Q6.78125 27.4844 10.7812 32.3125
Q14.7969 37.1562 21.9219 38.8125
M18.3125 54.3906
Q18.3125 48.7344 21.8438 45.5625
Q25.3906 42.3906 31.7812 42.3906
Q38.1406 42.3906 41.7188 45.5625
Q45.3125 48.7344 45.3125 54.3906
Q45.3125 60.0625 41.7188 63.2344
Q38.1406 66.4062 31.7812 66.4062
Q25.3906 66.4062 21.8438 63.2344
Q18.3125 60.0625 18.3125 54.3906" id="BitstreamVeraSans-Roman-38"/>
      </defs>
      <g transform="translate(21.878125 247.2775)scale(0.1 -0.1)">
       <use xlink:href="#BitstreamVeraSans-Roman-2212"/>
       <use x="83.7890625" xlink:href="#BitstreamVeraSans-Roman-38"/>
       <use x="147.412109375" xlink:href="#BitstreamVeraSans-Roman-30"/>
       <use x="211.03515625" xlink:href="#BitstreamVeraSans-Roman-30"/>
       <use x="274.658203125" xlink:href="#BitstreamVeraSans-Roman-30"/>
      </g>
     </g>
    </g>
    <g id="ytick_2">
     <g id="line2d_23">
      <g>
       <use style="stroke:#000000;stroke-width:0.5;" x="57.984375" xlink:href="#m728421d6d4" y="199.878125"/>
      </g>
     </g>
     <g id="line2d_24">
      <g>
       <use style="stroke:#000000;stroke-width:0.5;" x="392.784375" xlink:href="#mcb0005524f" y="199.878125"/>
      </g>
     </g>
     <g id="text_11">
      <!-- −6000 -->
      <defs>
       <path d="
M33.0156 40.375
Q26.375 40.375 22.4844 35.8281
Q18.6094 31.2969 18.6094 23.3906
Q18.6094 15.5312 22.4844 10.9531
Q26.375 6.39062 33.0156 6.39062
Q39.6562 6.39062 43.5312 10.9531
Q47.4062 15.5312 47.4062 23.3906
Q47.4062 31.2969 43.5312 35.8281
Q39.6562 40.375 33.0156 40.375
M52.5938 71.2969
L52.5938 62.3125
Q48.875 64.0625 45.0938 64.9844
Q41.3125 65.9219 37.5938 65.9219
Q27.8281 65.9219 22.6719 59.3281
Q17.5312 52.7344 16.7969 39.4062
Q19.6719 43.6562 24.0156 45.9219
Q28.375 48.1875 33.5938 48.1875
Q44.5781 48.1875 50.9531 41.5156
Q57.3281 34.8594 57.3281 23.3906
Q57.3281 12.1562 50.6875 5.35938
Q44.0469 -1.42188 33.0156 -1.42188
Q20.3594 -1.42188 13.6719 8.26562
Q6.98438 17.9688 6.98438 36.375
Q6.98438 53.6562 15.1875 63.9375
Q23.3906 74.2188 37.2031 74.2188
Q40.9219 74.2188 44.7031 73.4844
Q48.4844 72.75 52.5938 71.2969" id="BitstreamVeraSans-Roman-36"/>
      </defs>
      <g transform="translate(21.878125 202.6375)scale(0.1 -0.1)">
       <use xlink:href="#BitstreamVeraSans-Roman-2212"/>
       <use x="83.7890625" xlink:href="#BitstreamVeraSans-Roman-36"/>
       <use x="147.412109375" xlink:href="#BitstreamVeraSans-Roman-30"/>
       <use x="211.03515625" xlink:href="#BitstreamVeraSans-Roman-30"/>
       <use x="274.658203125" xlink:href="#BitstreamVeraSans-Roman-30"/>
      </g>
     </g>
    </g>
    <g id="ytick_3">
     <g id="line2d_25">
      <g>
       <use style="stroke:#000000;stroke-width:0.5;" x="57.984375" xlink:href="#m728421d6d4" y="155.238125"/>
      </g>
     </g>
     <g id="line2d_26">
      <g>
       <use style="stroke:#000000;stroke-width:0.5;" x="392.784375" xlink:href="#mcb0005524f" y="155.238125"/>
      </g>
     </g>
     <g id="text_12">
      <!-- −4000 -->
      <defs>
       <path d="
M37.7969 64.3125
L12.8906 25.3906
L37.7969 25.3906
z

M35.2031 72.9062
L47.6094 72.9062
L47.6094 25.3906
L58.0156 25.3906
L58.0156 17.1875
L47.6094 17.1875
L47.6094 0
L37.7969 0
L37.7969 17.1875
L4.89062 17.1875
L4.89062 26.7031
z
" id="BitstreamVeraSans-Roman-34"/>
      </defs>
      <g transform="translate(21.878125 157.9975)scale(0.1 -0.1)">
       <use xlink:href="#BitstreamVeraSans-Roman-2212"/>
       <use x="83.7890625" xlink:href="#BitstreamVeraSans-Roman-34"/>
       <use x="147.412109375" xlink:href="#BitstreamVeraSans-Roman-30"/>
       <use x="211.03515625" xlink:href="#BitstreamVeraSans-Roman-30"/>
       <use x="274.658203125" xlink:href="#BitstreamVeraSans-Roman-30"/>
      </g>
     </g>
    </g>
    <g id="ytick_4">
     <g id="line2d_27">
      <g>
       <use style="stroke:#000000;stroke-width:0.5;" x="57.984375" xlink:href="#m728421d6d4" y="110.598125"/>
      </g>
     </g>
     <g id="line2d_28">
      <g>
       <use style="stroke:#000000;stroke-width:0.5;" x="392.784375" xlink:href="#mcb0005524f" y="110.598125"/>
      </g>
     </g>
     <g id="text_13">
      <!-- −2000 -->
      <g transform="translate(21.878125 113.3575)scale(0.1 -0.1)">
       <use xlink:href="#BitstreamVeraSans-Roman-2212"/>
       <use x="83.7890625" xlink:href="#BitstreamVeraSans-Roman-32"/>
       <use x="147.412109375" xlink:href="#BitstreamVeraSans-Roman-30"/>
       <use x="211.03515625" xlink:href="#BitstreamVeraSans-Roman-30"/>
       <use x="274.658203125" xlink:href="#BitstreamVeraSans-Roman-30"/>
      </g>
     </g>
    </g>
    <g id="ytick_5">
     <g id="line2d_29">
      <g>
       <use style="stroke:#000000;stroke-width:0.5;" x="57.984375" xlink:href="#m728421d6d4" y="65.958125"/>
      </g>
     </g>
     <g id="line2d_30">
      <g>
       <use style="stroke:#000000;stroke-width:0.5;" x="392.784375" xlink:href="#mcb0005524f" y="65.958125"/>
      </g>
     </g>
     <g id="text_14">
      <!-- 0 -->
      <g transform="translate(48.9453125 68.7175)scale(0.1 -0.1)">
       <use xlink:href="#BitstreamVeraSans-Roman-30"/>
      </g>
     </g>
    </g>
    <g id="ytick_6">
     <g id="line2d_31">
      <g>
       <use style="stroke:#000000;stroke-width:0.5;" x="57.984375" xlink:href="#m728421d6d4" y="21.318125"/>
      </g>
     </g>
     <g id="line2d_32">
      <g>
       <use style="stroke:#000000;stroke-width:0.5;" x="392.784375" xlink:href="#mcb0005524f" y="21.318125"/>
      </g>
     </g>
     <g id="text_15">
      <!-- 2000 -->
      <g transform="translate(29.93125 24.0775)scale(0.1 -0.1)">
       <use xlink:href="#BitstreamVeraSans-Roman-32"/>
       <use x="63.623046875" xlink:href="#BitstreamVeraSans-Roman-30"/>
       <use x="127.24609375" xlink:href="#BitstreamVeraSans-Roman-30"/>
       <use x="190.869140625" xlink:href="#BitstreamVeraSans-Roman-30"/>
      </g>
     </g>
    </g>
    <g id="text_16">
     <!-- PET (mm/day) -->
     <defs>
      <path d="
M52 44.1875
Q55.375 50.25 60.0625 53.125
Q64.75 56 71.0938 56
Q79.6406 56 84.2812 50.0156
Q88.9219 44.0469 88.9219 33.0156
L88.9219 0
L79.8906 0
L79.8906 32.7188
Q79.8906 40.5781 77.0938 44.375
Q74.3125 48.1875 68.6094 48.1875
Q61.625 48.1875 57.5625 43.5469
Q53.5156 38.9219 53.5156 30.9062
L53.5156 0
L44.4844 0
L44.4844 32.7188
Q44.4844 40.625 41.7031 44.4062
Q38.9219 48.1875 33.1094 48.1875
Q26.2188 48.1875 22.1562 43.5312
Q18.1094 38.875 18.1094 30.9062
L18.1094 0
L9.07812 0
L9.07812 54.6875
L18.1094 54.6875
L18.1094 46.1875
Q21.1875 51.2188 25.4844 53.6094
Q29.7812 56 35.6875 56
Q41.6562 56 45.8281 52.9688
Q50 49.9531 52 44.1875" id="BitstreamVeraSans-Roman-6d"/>
      <path d="
M8.01562 75.875
L15.8281 75.875
Q23.1406 64.3594 26.7812 53.3125
Q30.4219 42.2812 30.4219 31.3906
Q30.4219 20.4531 26.7812 9.375
Q23.1406 -1.70312 15.8281 -13.1875
L8.01562 -13.1875
Q14.5 -2 17.7031 9.0625
Q20.9062 20.125 20.9062 31.3906
Q20.9062 42.6719 17.7031 53.6562
Q14.5 64.6562 8.01562 75.875" id="BitstreamVeraSans-Roman-29"/>
      <path d="
M31 75.875
Q24.4688 64.6562 21.2812 53.6562
Q18.1094 42.6719 18.1094 31.3906
Q18.1094 20.125 21.3125 9.0625
Q24.5156 -2 31 -13.1875
L23.1875 -13.1875
Q15.875 -1.70312 12.2344 9.375
Q8.59375 20.4531 8.59375 31.3906
Q8.59375 42.2812 12.2031 53.3125
Q15.8281 64.3594 23.1875 75.875
z
" id="BitstreamVeraSans-Roman-28"/>
      <path d="
M19.6719 64.7969
L19.6719 37.4062
L32.0781 37.4062
Q38.9688 37.4062 42.7188 40.9688
Q46.4844 44.5312 46.4844 51.125
Q46.4844 57.6719 42.7188 61.2344
Q38.9688 64.7969 32.0781 64.7969
z

M9.8125 72.9062
L32.0781 72.9062
Q44.3438 72.9062 50.6094 67.3594
Q56.8906 61.8125 56.8906 51.125
Q56.8906 40.3281 50.6094 34.8125
Q44.3438 29.2969 32.0781 29.2969
L19.6719 29.2969
L19.6719 0
L9.8125 0
z
" id="BitstreamVeraSans-Roman-50"/>
      <path d="
M9.8125 72.9062
L55.9062 72.9062
L55.9062 64.5938
L19.6719 64.5938
L19.6719 43.0156
L54.3906 43.0156
L54.3906 34.7188
L19.6719 34.7188
L19.6719 8.29688
L56.7812 8.29688
L56.7812 0
L9.8125 0
z
" id="BitstreamVeraSans-Roman-45"/>
      <path d="
M-0.296875 72.9062
L61.375 72.9062
L61.375 64.5938
L35.5 64.5938
L35.5 0
L25.5938 0
L25.5938 64.5938
L-0.296875 64.5938
z
" id="BitstreamVeraSans-Roman-54"/>
      <path d="
M25.3906 72.9062
L33.6875 72.9062
L8.29688 -9.28125
L0 -9.28125
z
" id="BitstreamVeraSans-Roman-2f"/>
     </defs>
     <g transform="translate(14.7984375 167.82984375)rotate(-90.0)scale(0.1 -0.1)">
      <use xlink:href="#BitstreamVeraSans-Roman-50"/>
      <use x="60.302734375" xlink:href="#BitstreamVeraSans-Roman-45"/>
      <use x="123.486328125" xlink:href="#BitstreamVeraSans-Roman-54"/>
      <use x="184.5703125" xlink:href="#BitstreamVeraSans-Roman-20"/>
      <use x="216.357421875" xlink:href="#BitstreamVeraSans-Roman-28"/>
      <use x="255.37109375" xlink:href="#BitstreamVeraSans-Roman-6d"/>
      <use x="352.783203125" xlink:href="#BitstreamVeraSans-Roman-6d"/>
      <use x="450.1953125" xlink:href="#BitstreamVeraSans-Roman-2f"/>
      <use x="483.88671875" xlink:href="#BitstreamVeraSans-Roman-64"/>
      <use x="547.36328125" xlink:href="#BitstreamVeraSans-Roman-61"/>
      <use x="608.642578125" xlink:href="#BitstreamVeraSans-Roman-79"/>
      <use x="667.822265625" xlink:href="#BitstreamVeraSans-Roman-29"/>
     </g>
    </g>
   </g>
   <g id="text_17">
    <!-- daily shrub PET at BRWtemp -->
    <defs>
     <path d="
M54.8906 33.0156
L54.8906 0
L45.9062 0
L45.9062 32.7188
Q45.9062 40.4844 42.875 44.3281
Q39.8438 48.1875 33.7969 48.1875
Q26.5156 48.1875 22.3125 43.5469
Q18.1094 38.9219 18.1094 30.9062
L18.1094 0
L9.07812 0
L9.07812 75.9844
L18.1094 75.9844
L18.1094 46.1875
Q21.3438 51.125 25.7031 53.5625
Q30.0781 56 35.7969 56
Q45.2188 56 50.0469 50.1719
Q54.8906 44.3438 54.8906 33.0156" id="BitstreamVeraSans-Roman-68"/>
     <path d="
M44.3906 34.1875
Q47.5625 33.1094 50.5625 29.5938
Q53.5625 26.0781 56.5938 19.9219
L66.6094 0
L56 0
L46.6875 18.7031
Q43.0625 26.0312 39.6719 28.4219
Q36.2812 30.8125 30.4219 30.8125
L19.6719 30.8125
L19.6719 0
L9.8125 0
L9.8125 72.9062
L32.0781 72.9062
Q44.5781 72.9062 50.7344 67.6719
Q56.8906 62.4531 56.8906 51.9062
Q56.8906 45.0156 53.6875 40.4688
Q50.4844 35.9375 44.3906 34.1875
M19.6719 64.7969
L19.6719 38.9219
L32.0781 38.9219
Q39.2031 38.9219 42.8438 42.2188
Q46.4844 45.5156 46.4844 51.9062
Q46.4844 58.2969 42.8438 61.5469
Q39.2031 64.7969 32.0781 64.7969
z
" id="BitstreamVeraSans-Roman-52"/>
     <path d="
M19.6719 34.8125
L19.6719 8.10938
L35.5 8.10938
Q43.4531 8.10938 47.2812 11.4062
Q51.125 14.7031 51.125 21.4844
Q51.125 28.3281 47.2812 31.5625
Q43.4531 34.8125 35.5 34.8125
z

M19.6719 64.7969
L19.6719 42.8281
L34.2812 42.8281
Q41.5 42.8281 45.0312 45.5312
Q48.5781 48.25 48.5781 53.8125
Q48.5781 59.3281 45.0312 62.0625
Q41.5 64.7969 34.2812 64.7969
z

M9.8125 72.9062
L35.0156 72.9062
Q46.2969 72.9062 52.3906 68.2188
Q58.5 63.5312 58.5 54.8906
Q58.5 48.1875 55.375 44.2344
Q52.25 40.2812 46.1875 39.3125
Q53.4688 37.75 57.5 32.7812
Q61.5312 27.8281 61.5312 20.4062
Q61.5312 10.6406 54.8906 5.3125
Q48.25 0 35.9844 0
L9.8125 0
z
" id="BitstreamVeraSans-Roman-42"/>
     <path d="
M3.32812 72.9062
L13.2812 72.9062
L28.6094 11.2812
L43.8906 72.9062
L54.9844 72.9062
L70.3125 11.2812
L85.5938 72.9062
L95.6094 72.9062
L77.2969 0
L64.8906 0
L49.5156 63.2812
L33.9844 0
L21.5781 0
z
" id="BitstreamVeraSans-Roman-57"/>
     <path d="
M56.2031 29.5938
L56.2031 25.2031
L14.8906 25.2031
Q15.4844 15.9219 20.4844 11.0625
Q25.4844 6.20312 34.4219 6.20312
Q39.5938 6.20312 44.4531 7.46875
Q49.3125 8.73438 54.1094 11.2812
L54.1094 2.78125
Q49.2656 0.734375 44.1875 -0.34375
Q39.1094 -1.42188 33.8906 -1.42188
Q20.7969 -1.42188 13.1562 6.1875
Q5.51562 13.8125 5.51562 26.8125
Q5.51562 40.2344 12.7656 48.1094
Q20.0156 56 32.3281 56
Q43.3594 56 49.7812 48.8906
Q56.2031 41.7969 56.2031 29.5938
M47.2188 32.2344
Q47.125 39.5938 43.0938 43.9844
Q39.0625 48.3906 32.4219 48.3906
Q24.9062 48.3906 20.3906 44.1406
Q15.875 39.8906 15.1875 32.1719
z
" id="BitstreamVeraSans-Roman-65"/>
     <path d="
M18.3125 70.2188
L18.3125 54.6875
L36.8125 54.6875
L36.8125 47.7031
L18.3125 47.7031
L18.3125 18.0156
Q18.3125 11.3281 20.1406 9.42188
Q21.9688 7.51562 27.5938 7.51562
L36.8125 7.51562
L36.8125 0
L27.5938 0
Q17.1875 0 13.2344 3.875
Q9.28125 7.76562 9.28125 18.0156
L9.28125 47.7031
L2.6875 47.7031
L2.6875 54.6875
L9.28125 54.6875
L9.28125 70.2188
z
" id="BitstreamVeraSans-Roman-74"/>
     <path d="
M41.1094 46.2969
Q39.5938 47.1719 37.8125 47.5781
Q36.0312 48 33.8906 48
Q26.2656 48 22.1875 43.0469
Q18.1094 38.0938 18.1094 28.8125
L18.1094 0
L9.07812 0
L9.07812 54.6875
L18.1094 54.6875
L18.1094 46.1875
Q20.9531 51.1719 25.4844 53.5781
Q30.0312 56 36.5312 56
Q37.4531 56 38.5781 55.875
Q39.7031 55.7656 41.0625 55.5156
z
" id="BitstreamVeraSans-Roman-72"/>
     <path d="
M44.2812 53.0781
L44.2812 44.5781
Q40.4844 46.5312 36.375 47.5
Q32.2812 48.4844 27.875 48.4844
Q21.1875 48.4844 17.8438 46.4375
Q14.5 44.3906 14.5 40.2812
Q14.5 37.1562 16.8906 35.375
Q19.2812 33.5938 26.5156 31.9844
L29.5938 31.2969
Q39.1562 29.25 43.1875 25.5156
Q47.2188 21.7812 47.2188 15.0938
Q47.2188 7.46875 41.1875 3.01562
Q35.1562 -1.42188 24.6094 -1.42188
Q20.2188 -1.42188 15.4531 -0.5625
Q10.6875 0.296875 5.42188 2
L5.42188 11.2812
Q10.4062 8.6875 15.2344 7.39062
Q20.0625 6.10938 24.8125 6.10938
Q31.1562 6.10938 34.5625 8.28125
Q37.9844 10.4531 37.9844 14.4062
Q37.9844 18.0625 35.5156 20.0156
Q33.0625 21.9688 24.7031 23.7812
L21.5781 24.5156
Q13.2344 26.2656 9.51562 29.9062
Q5.8125 33.5469 5.8125 39.8906
Q5.8125 47.6094 11.2812 51.7969
Q16.75 56 26.8125 56
Q31.7812 56 36.1719 55.2656
Q40.5781 54.5469 44.2812 53.0781" id="BitstreamVeraSans-Roman-73"/>
     <path d="
M18.1094 8.20312
L18.1094 -20.7969
L9.07812 -20.7969
L9.07812 54.6875
L18.1094 54.6875
L18.1094 46.3906
Q20.9531 51.2656 25.2656 53.625
Q29.5938 56 35.5938 56
Q45.5625 56 51.7812 48.0938
Q58.0156 40.1875 58.0156 27.2969
Q58.0156 14.4062 51.7812 6.48438
Q45.5625 -1.42188 35.5938 -1.42188
Q29.5938 -1.42188 25.2656 0.953125
Q20.9531 3.32812 18.1094 8.20312
M48.6875 27.2969
Q48.6875 37.2031 44.6094 42.8438
Q40.5312 48.4844 33.4062 48.4844
Q26.2656 48.4844 22.1875 42.8438
Q18.1094 37.2031 18.1094 27.2969
Q18.1094 17.3906 22.1875 11.75
Q26.2656 6.10938 33.4062 6.10938
Q40.5312 6.10938 44.6094 11.75
Q48.6875 17.3906 48.6875 27.2969" id="BitstreamVeraSans-Roman-70"/>
     <path d="
M48.6875 27.2969
Q48.6875 37.2031 44.6094 42.8438
Q40.5312 48.4844 33.4062 48.4844
Q26.2656 48.4844 22.1875 42.8438
Q18.1094 37.2031 18.1094 27.2969
Q18.1094 17.3906 22.1875 11.75
Q26.2656 6.10938 33.4062 6.10938
Q40.5312 6.10938 44.6094 11.75
Q48.6875 17.3906 48.6875 27.2969
M18.1094 46.3906
Q20.9531 51.2656 25.2656 53.625
Q29.5938 56 35.5938 56
Q45.5625 56 51.7812 48.0938
Q58.0156 40.1875 58.0156 27.2969
Q58.0156 14.4062 51.7812 6.48438
Q45.5625 -1.42188 35.5938 -1.42188
Q29.5938 -1.42188 25.2656 0.953125
Q20.9531 3.32812 18.1094 8.20312
L18.1094 0
L9.07812 0
L9.07812 75.9844
L18.1094 75.9844
z
" id="BitstreamVeraSans-Roman-62"/>
    </defs>
    <g transform="translate(139.929375 16.318125)scale(0.12 -0.12)">
     <use xlink:href="#BitstreamVeraSans-Roman-64"/>
     <use x="63.4765625" xlink:href="#BitstreamVeraSans-Roman-61"/>
     <use x="124.755859375" xlink:href="#BitstreamVeraSans-Roman-69"/>
     <use x="152.5390625" xlink:href="#BitstreamVeraSans-Roman-6c"/>
     <use x="180.322265625" xlink:href="#BitstreamVeraSans-Roman-79"/>
     <use x="239.501953125" xlink:href="#BitstreamVeraSans-Roman-20"/>
     <use x="271.2890625" xlink:href="#BitstreamVeraSans-Roman-73"/>
     <use x="323.388671875" xlink:href="#BitstreamVeraSans-Roman-68"/>
     <use x="386.767578125" xlink:href="#BitstreamVeraSans-Roman-72"/>
     <use x="427.880859375" xlink:href="#BitstreamVeraSans-Roman-75"/>
     <use x="491.259765625" xlink:href="#BitstreamVeraSans-Roman-62"/>
     <use x="554.736328125" xlink:href="#BitstreamVeraSans-Roman-20"/>
     <use x="586.5234375" xlink:href="#BitstreamVeraSans-Roman-50"/>
     <use x="646.826171875" xlink:href="#BitstreamVeraSans-Roman-45"/>
     <use x="710.009765625" xlink:href="#BitstreamVeraSans-Roman-54"/>
     <use x="771.09375" xlink:href="#BitstreamVeraSans-Roman-20"/>
     <use x="802.880859375" xlink:href="#BitstreamVeraSans-Roman-61"/>
     <use x="864.16015625" xlink:href="#BitstreamVeraSans-Roman-74"/>
     <use x="903.369140625" xlink:href="#BitstreamVeraSans-Roman-20"/>
     <use x="935.15625" xlink:href="#BitstreamVeraSans-Roman-42"/>
     <use x="1003.75976562" xlink:href="#BitstreamVeraSans-Roman-52"/>
     <use x="1069.2421875" xlink:href="#BitstreamVeraSans-Roman-57"/>
     <use x="1168.11914062" xlink:href="#BitstreamVeraSans-Roman-74"/>
     <use x="1207.328125" xlink:href="#BitstreamVeraSans-Roman-65"/>
     <use x="1268.8515625" xlink:href="#BitstreamVeraSans-Roman-6d"/>
     <use x="1366.26367188" xlink:href="#BitstreamVeraSans-Roman-70"/>
    </g>
   </g>
   <g id="legend_1">
    <g id="patch_7">
     <path d="
M314.597 101.373
L386.784 101.373
L386.784 27.3181
L314.597 27.3181
z
" style="fill:#ffffff;stroke:#000000;stroke-linejoin:miter;"/>
    </g>
    <g id="line2d_33">
     <path d="
M322.997 37.0363
L339.797 37.0363" style="fill:none;stroke:#0000ff;stroke-linecap:square;"/>
    </g>
    <g id="line2d_34"/>
    <g id="text_18">
     <!-- 2011 -->
     <g transform="translate(352.996875 41.23625)scale(0.12 -0.12)">
      <use xlink:href="#BitstreamVeraSans-Roman-32"/>
      <use x="63.623046875" xlink:href="#BitstreamVeraSans-Roman-30"/>
      <use x="127.24609375" xlink:href="#BitstreamVeraSans-Roman-31"/>
      <use x="190.869140625" xlink:href="#BitstreamVeraSans-Roman-31"/>
     </g>
    </g>
    <g id="line2d_35">
     <path d="
M322.997 54.65
L339.797 54.65" style="fill:none;stroke:#008000;stroke-linecap:square;"/>
    </g>
    <g id="line2d_36"/>
    <g id="text_19">
     <!-- 2012 -->
     <g transform="translate(352.996875 58.85)scale(0.12 -0.12)">
      <use xlink:href="#BitstreamVeraSans-Roman-32"/>
      <use x="63.623046875" xlink:href="#BitstreamVeraSans-Roman-30"/>
      <use x="127.24609375" xlink:href="#BitstreamVeraSans-Roman-31"/>
      <use x="190.869140625" xlink:href="#BitstreamVeraSans-Roman-32"/>
     </g>
    </g>
    <g id="line2d_37">
     <path d="
M322.997 72.2638
L339.797 72.2638" style="fill:none;stroke:#ff0000;stroke-linecap:square;"/>
    </g>
    <g id="line2d_38"/>
    <g id="text_20">
     <!-- 2013 -->
     <g transform="translate(352.996875 76.46375)scale(0.12 -0.12)">
      <use xlink:href="#BitstreamVeraSans-Roman-32"/>
      <use x="63.623046875" xlink:href="#BitstreamVeraSans-Roman-30"/>
      <use x="127.24609375" xlink:href="#BitstreamVeraSans-Roman-31"/>
      <use x="190.869140625" xlink:href="#BitstreamVeraSans-Roman-33"/>
     </g>
    </g>
    <g id="line2d_39">
     <path d="
M322.997 89.8775
L339.797 89.8775" style="fill:none;stroke:#00bfbf;stroke-linecap:square;"/>
    </g>
    <g id="line2d_40"/>
    <g id="text_21">
     <!-- 2014 -->
     <g transform="translate(352.996875 94.0775)scale(0.12 -0.12)">
      <use xlink:href="#BitstreamVeraSans-Roman-32"/>
      <use x="63.623046875" xlink:href="#BitstreamVeraSans-Roman-30"/>
      <use x="127.24609375" xlink:href="#BitstreamVeraSans-Roman-31"/>
      <use x="190.869140625" xlink:href="#BitstreamVeraSans-Roman-34"/>
     </g>
    </g>
   </g>
  </g>
 </g>
 <defs>
  <clipPath id="pdf711f5425">
   <rect height="223.2" width="334.8" x="57.984375" y="21.318125"/>
  </clipPath>
 </defs>
</svg>
