<?xml version="1.0" encoding="utf-8" standalone="no"?>
<!DOCTYPE svg PUBLIC "-//W3C//DTD SVG 1.1//EN"
  "http://www.w3.org/Graphics/SVG/1.1/DTD/svg11.dtd">
<!-- Created with matplotlib (http://matplotlib.org/) -->
<svg height="280pt" version="1.1" viewBox="0 0 399 280" width="399pt" xmlns="http://www.w3.org/2000/svg" xmlns:xlink="http://www.w3.org/1999/xlink">
 <defs>
  <style type="text/css">
*{stroke-linecap:butt;stroke-linejoin:round;}
  </style>
 </defs>
 <g id="figure_1">
  <g id="patch_1">
   <path d="
M0 280.074
L399.984 280.074
L399.984 0
L0 0
z
" style="fill:#ffffff;"/>
  </g>
  <g id="axes_1">
   <g id="patch_2">
    <path d="
M57.9844 244.518
L392.784 244.518
L392.784 21.3181
L57.9844 21.3181
z
" style="fill:#ffffff;"/>
   </g>
   <g id="line2d_1">
    <path clip-path="url(#pdf711f5425)" d="
M0 0" style="fill:none;stroke:#0000ff;stroke-linecap:square;"/>
   </g>
   <g id="line2d_2">
    <path clip-path="url(#pdf711f5425)" d="
M57.9844 65.8371
L58.9016 65.4146
L59.8189 65.8658
L60.7362 65.6261
L61.6534 64.9297
L63.4879 67.1896
L64.4052 66.0222
L65.3225 65.8936
L66.2397 65.8887
L67.157 66.2039
L68.9915 65.8356
L70.826 65.9253
L71.7433 66.9232
L72.6605 66.6455
L73.5778 66.6468
M81.8331 66.2847
L82.7504 66.598
L83.6677 65.8452
L84.5849 66.1885
L85.5022 65.9734
L86.4194 66.2084
L87.3367 66.0449
L91.0057 65.9786
L92.8403 66.0816
L94.6748 65.9118
L95.592 65.9581
L96.5093 66.1494
L97.4266 65.933
L98.3438 66.2326
L100.178 66.0671
L101.096 65.9966
L102.013 66.222
L102.93 66.2645
L103.847 66.1231
L104.765 63.5874
L105.682 73.9698
L106.599 66.8065
L107.516 65.9402
L108.434 67.885
L109.351 66.0835
L110.268 66.0236
L111.185 66.2041
L112.103 69.0102
L113.02 68.7605
L113.937 67.1022
L114.855 66.2595
L115.772 65.8223
L116.689 65.7163
L117.606 68.5461
L118.524 66.2667
L120.358 65.3693
L121.275 65.7366
L122.193 65.61
L123.11 65.8768
L124.027 65.6659
L124.944 65.9795
L126.779 65.8527
L128.613 66.1278
L129.531 66.4998
L130.448 66.0199
L132.282 65.6393
L133.2 65.6769
L134.117 65.3713
L135.034 65.475
L135.951 65.9566
L137.786 65.7793
L138.703 65.9749
L139.621 65.6314
L140.538 63.8458
L141.455 67.4811
L142.372 65.9783
L143.29 65.4761
L144.207 65.4672
L145.124 66.2577
L146.041 68.5728
L146.959 65.8342
L147.876 65.5115
L148.793 65.4136
L149.71 65.0445
L151.545 65.7746
L152.462 65.8329
L153.379 65.5748
L155.214 65.9107
L156.131 65.6071
L157.048 65.8592
L157.966 65.7897
L158.883 65.2313
L159.8 65.5429
L160.718 65.2126
L161.635 65.2295
L162.552 65.556
L163.469 65.2819
L164.387 64.6721
L165.304 66.2328
L168.056 65.1412
L168.973 65.7201
L170.807 65.7381
L171.725 65.6672
L172.642 66.1925
L173.559 65.7658
L175.394 65.6587
L176.311 65.0753
L177.228 65.1869
L178.145 65.5314
L179.063 65.291
L179.98 65.618
L180.897 65.36
L181.815 65.5122
L182.732 64.7684
L183.649 64.5763
L184.566 64.8338
L185.484 65.5793
L186.401 65.5341
L187.318 64.8727
L188.235 63.4475
L189.153 65.5227
L190.07 65.7587
L190.987 65.8729
L191.904 65.8432
L192.822 65.399
L193.739 65.7363
L194.656 65.2741
L195.573 64.9608
L196.491 64.8989
L197.408 65.2538
L198.325 64.9288
L199.242 65.4262
L200.16 62.8399
L201.077 65.8731
L201.994 65.8216
L202.911 65.3192
L204.746 65.7568
L205.663 65.5559
L207.498 65.4902
L208.415 64.4802
L209.332 65.3638
L210.25 64.7808
L211.167 65.4709
L212.084 63.5213
L213.001 64.4296
L213.919 65.6217
L214.836 65.5555
L215.753 64.8131
L216.67 64.4018
L217.588 65.1406
L218.505 64.7574
L219.422 65.4383
L220.339 63.9513
L221.257 65.6706
L222.174 65.1497
L223.091 65.0787
L224.008 65.3501
L224.926 64.5906
L225.843 65.4739
L226.76 64.2128
L227.678 65.545
L228.595 65.343
L230.429 65.2672
L231.347 64.883
L232.264 64.9023
L233.181 65.3504
L236.85 65.0856
L237.767 65.4958
L239.602 65.0067
L240.519 65.199
L242.354 65.1766
L243.271 64.8805
L244.188 65.2646
L245.105 65.1411
L246.023 65.3891
L246.94 65.4998
L247.857 65.1116
L248.775 65.1322
L249.692 64.9902
L250.609 65.4909
L251.526 65.1577
L252.444 65.1274
L253.361 64.9858
L254.278 64.5637
L255.195 64.9772
L256.113 65.2321
L257.947 65.4213
L258.864 65.2274
L260.699 65.4218
L262.533 65.2355
L263.451 65.5616
L267.12 64.8448
L268.037 64.0723
L268.954 64.6169
L269.871 64.8379
L270.789 65.3518
L271.706 64.9838
L272.623 65.2635
L273.541 65.267
L274.458 65.0941
L275.375 65.5413
L276.292 65.0396
L277.21 65.3069
L278.127 65.1751
L279.044 64.9285
L279.961 65.594
L280.879 65.1934
M284.548 65.1233
L285.465 65.3693
L286.382 65.2754
L287.299 65.5158
L289.134 65.0441
L290.051 64.6814
L290.968 65.1255
L292.803 65.4077
L293.72 65.2018
L295.555 65.1688
L296.472 65.5345
L297.389 65.2297
L298.307 63.7952
L299.224 65.3418
L300.141 65.5455
L301.058 65.1834
L301.976 65.2735
L302.893 65.5949
L303.81 65.2894
L304.727 65.5356
L305.645 65.6002
L306.562 65.3976
L307.479 65.5316
L308.396 65.1791
L309.314 65.4
M312.065 65.6124
L312.983 65.8061
L313.9 65.8297
L315.735 65.5956
L318.486 65.7129
L320.321 65.1859
L321.238 65.6351
L322.155 64.9366
L323.073 60.5928
L323.99 65.6429
L324.907 65.6287
L325.824 65.3699
L326.742 64.0056
L327.659 65.8877
L328.576 65.933
L329.493 66.2032
L330.411 66.0711
L332.245 66.0565
L333.162 65.8093
L334.08 63.9215
L334.997 65.1961
L335.914 65.6557
L336.831 65.4579
L338.666 65.8444
L340.501 65.6331
L341.418 65.4065
L342.335 65.4921
L343.252 65.3646
L344.17 65.64
L345.087 66.2466
L346.921 66.2576
L348.756 66.0134
L351.508 65.9078
L352.425 65.8295
L354.259 65.941
L355.177 65.7907
L356.094 64.7255
L357.011 66.0204
L357.928 65.7011
L358.846 65.7575
L360.68 66.1449
L361.598 65.8489
L362.515 65.7065
L363.432 65.8748
L365.267 65.876
L366.184 65.1152
L367.101 65.9998
L368.018 65.8439
L368.936 65.3835
L369.853 66.2521
L370.77 66.7482
L372.605 66.1254
M374.439 66.002
L375.356 68.6061
L376.274 65.9872
L377.191 66.0408
M379.025 66.1102
L379.943 67.8763
L380.86 66.646
L381.777 66.3688
L384.529 66.1078
L385.446 66.219
L386.364 72.4327
M390.033 66.0618
L390.95 66.155
L391.867 66.1504" style="fill:none;stroke:#008000;stroke-linecap:square;"/>
   </g>
   <g id="line2d_3">
    <path clip-path="url(#pdf711f5425)" d="
M57.9844 66.3085
L58.9016 66.1206
L60.7362 66.0011
L63.4879 66.3151
M65.3225 65.9801
L66.2397 67.5896
M68.0742 66.183
L68.9915 66.1466
L69.9088 66.3368
L72.6605 65.9172
L74.4951 65.9135
L75.4123 65.7128
L76.3296 65.8574
L78.1641 65.5427
L79.0814 65.968
L80.9159 66.0506
L81.8331 66.8108
L82.7504 66.0826
M85.5022 65.9786
L88.254 66.09
L89.1712 65.8546
L90.0885 65.8995
L91.0057 66.1235
L92.8403 66.0492
L93.7575 67.7657
L94.6748 66.2174
L95.592 66.2026
L96.5093 67.0534
L97.4266 66.9031
L98.3438 67.0247
L99.2611 65.8665
L100.178 65.8513
L101.096 66.5194
L102.013 66.1088
L102.93 66.1331
L103.847 67.9201
L104.765 67.861
L105.682 66.5899
L106.599 67.4301
L107.516 66.5868
L108.434 66.3886
L109.351 67.4585
L110.268 66.0123
L112.103 65.9305
L113.02 65.7521
L113.937 64.8311
L114.855 66.1064
L115.772 65.8591
L116.689 65.7939
L117.606 65.9696
L119.441 65.966
L120.358 65.6947
L121.275 66.0401
L123.11 65.6943
L124.027 65.5618
L124.944 65.2523
L125.862 65.7653
L126.779 70.0446
L127.696 66.4246
L128.613 65.8444
L129.531 65.7082
L130.448 68.5455
L131.365 67.9158
L132.282 66.3097
L133.2 66.0115
L134.117 65.877
L135.034 65.9454
L138.703 65.7179
L139.621 65.7137
L141.455 64.6506
L142.372 65.7104
L143.29 65.5412
L144.207 65.5086
L146.041 66.1632
L146.959 66.077
L147.876 65.2906
L148.793 64.9062
L149.71 65.6279
L150.628 65.7891
L151.545 63.5049
L152.462 66.2093
L155.214 65.9983
L156.131 65.8277
L157.966 66.0137
L158.883 65.459
L159.8 65.9766
L161.635 65.8199
L163.469 65.342
L164.387 65.4057
L165.304 64.7111
L166.221 62.607
L167.138 66.3325
L168.056 65.7725
L168.973 65.7083
L169.89 65.1754
L170.807 65.6982
L171.725 65.5365
L173.559 65.6746
L174.476 65.5441
L175.394 65.238
L177.228 65.5183
L178.145 65.228
L179.063 63.7111
L179.98 65.1249
L180.897 65.4531
L182.732 65.8271
L183.649 65.3453
L184.566 65.1746
L185.484 65.6199
L186.401 64.2833
L188.235 65.5737
L189.153 65.5384
L190.07 65.3148
L191.904 65.6972
L193.739 65.6397
L194.656 65.4836
L195.573 65.141
L196.491 65.5605
L197.408 65
L198.325 65.0178
L200.16 65.2943
L201.077 65.3681
L201.994 64.439
L202.911 64.0196
L203.829 65.2127
L205.663 64.6597
L206.581 65.3289
L207.498 64.8193
L208.415 65.5529
L210.25 65.5389
L211.167 65.2482
L212.084 63.3803
L213.001 64.737
L213.919 65.7705
L214.836 65.5583
L217.588 65.4593
L218.505 65.6839
L219.422 65.3314
L221.257 65.4486
L222.174 65.2144
L223.091 65.3592
L224.926 64.8482
L225.843 64.179
L226.76 64.7578
L228.595 65.4613
L229.512 65.457
L230.429 65.1904
L231.347 65.4523
L232.264 65.3568
L233.181 65.0499
L235.016 65.0764
L235.933 65.4736
L236.85 65.381
L238.685 64.8291
L239.602 65.3837
L240.519 65.3461
L241.436 65.0345
L242.354 65.309
L243.271 64.8482
L244.188 65.3252
L245.105 64.933
L246.023 64.9813
L246.94 65.411
L247.857 64.6625
L248.775 65.2495
L251.526 65.3163
L252.444 64.5946
L253.361 65.3975
L254.278 65.4763
L255.195 65.3512
L256.113 65.3575
L257.03 65.0891
L258.864 65.0017
L259.782 65.2884
L260.699 65.1818
L261.616 65.2631
L262.533 65.134
L263.451 65.2997
L265.285 65.3877
L266.202 65.013
L267.12 65.3309
L268.037 65.1397
L270.789 65.4093
L271.706 65.2465
L272.623 65.4005
L273.541 65.329
L274.458 64.9619
L275.375 65.462
L276.292 65.1688
L277.21 65.3167
L278.127 65.1846
L279.044 64.4301
L279.961 65.4912
L280.879 65.4336
L281.796 65.1929
L282.713 65.3561
L285.465 64.9284
L286.382 65.3177
L287.299 65.1516
L288.217 65.1894
L289.134 65.3878
L290.051 65.3539
L291.886 65.558
L292.803 65.5082
L293.72 65.0846
L294.638 65.4436
L295.555 65.3869
L297.389 65.6247
L298.307 64.7861
L299.224 64.7948
L300.141 64.4973
L301.058 64.7093
L301.976 65.4473
L302.893 65.9489
L304.727 65.7597
L305.645 65.6509
L306.562 65.3077
L307.479 63.8741
L308.396 65.7833
L310.231 65.9158
L311.148 65.7461
L312.065 65.7844
L312.983 65.3498
L313.9 65.4873
L314.817 65.8733
L316.652 65.6838
L317.569 65.8761
L319.404 65.7723
L321.238 65.8459
L323.073 65.6731
L323.99 65.7969
L324.907 65.3175
L325.824 65.0394
L326.742 65.6969
L328.576 65.7816
L330.411 65.7394
L332.245 65.6294
L334.08 65.9659
L334.997 66.0747
L335.914 65.8613
L336.831 65.8705
L337.749 65.7156
M339.583 66.2826
L340.501 66.0268
L341.418 65.9377
L342.335 65.6007
L343.252 65.9732
L344.17 65.8511
L345.087 65.6126
L346.004 65.6632
L346.921 65.4474
L348.756 65.8336
L349.673 66.239
L350.59 66.8497
L351.508 66.0381
L352.425 65.8703
L353.342 65.8555
L355.177 65.9794
L357.011 65.8651
L359.763 65.6567
L360.68 65.6658
L361.598 65.8427
L363.432 65.968
L364.349 60.2096
L365.267 34.1052
L366.184 66.3798
L367.101 66.1031
L368.018 66.1118
L368.936 66.2949
L369.853 66.2288
L370.77 67.0664
L371.687 66.8241
L372.605 66.1496
L374.439 66.0266
L375.356 66.161
L376.274 66.0358
L377.191 65.7035
L378.108 65.8459
L379.025 65.7532
L379.943 65.841
L380.86 66.3055
L381.777 67.2585
L382.695 66.4904
L383.612 66.1491
L384.529 66.8873
L385.446 66.1281
L386.364 65.8416
L387.281 65.8424
L388.198 65.7015
L390.033 66.3395
L390.95 65.8714
L391.867 66.1393
L391.867 66.1393" style="fill:none;stroke:#ff0000;stroke-linecap:square;"/>
   </g>
   <g id="line2d_4">
    <path clip-path="url(#pdf711f5425)" d="
M57.9844 65.9653
L58.9016 65.9285
L59.8189 65.5176
L60.7362 68.0937
L61.6534 67.1213
L62.5707 65.8944
L63.4879 66.0795
L64.4052 66.1026
M67.157 66.1588
L68.0742 74.0141
M69.9088 65.9174
L70.826 65.6473
L71.7433 65.8063
L72.6605 65.6344
L73.5778 65.7749
L74.4951 65.7185
L78.1641 65.9314
L80.9159 65.651
L81.8331 65.9051
L82.7504 65.9697
L83.6677 65.4409
L84.5849 66.8328
L85.5022 66.2867
L86.4194 66.4331
L87.3367 66.055
L89.1712 66.306
L90.0885 66.0963
L91.0057 66.7209
L91.923 66.5293
L92.8403 66.4557
L93.7575 65.978
L94.6748 66.0272
L95.592 66.4545
L96.5093 65.3638
L97.4266 65.6799
L98.3438 65.7838
L100.178 65.4457
L101.096 65.7111
L102.013 65.8066
L102.93 65.7485
L103.847 66.8649
L104.765 66.5281
L105.682 66.7841
L106.599 65.8857
L107.516 65.7435
L110.268 65.6618
L111.185 65.9663
L112.103 66.0856
L113.02 65.9924
L113.937 66.0514
L115.772 65.892
L116.689 63.1749
L117.606 65.9848
L119.441 65.7146
L120.358 65.7023
L121.275 65.945
L122.193 65.9112
L123.11 65.7515
L124.944 65.7484
L125.862 65.3659
L126.779 60.6048
L127.696 66.1011
L129.531 65.6039
L130.448 65.998
L133.2 65.7936
L134.117 65.4418
L135.034 65.9723
L135.951 67.3734
L136.869 65.9764
L141.455 66.0501
L143.29 65.9305
L144.207 65.9747
L145.124 65.394
L146.041 65.656
L146.959 65.7065
L147.876 65.1196
L148.793 65.5523
L149.71 65.6602
L150.628 65.4269
L151.545 65.4163
L152.462 65.7814
L153.379 65.1262
L154.297 65.7638
L155.214 65.4431
L156.131 65.6518
L157.048 65.4328
L157.966 65.6553
L158.883 65.4958
L160.718 65.9654
L161.635 65.7669
L162.552 65.9606
L163.469 67.4439
L164.387 66.0648
L165.304 65.9582
L166.221 65.6418
L167.138 65.7205
L168.056 65.4492
L168.973 65.5476
L169.89 64.9941
L170.807 65.186
L171.725 65.6014
L172.642 65.3633
L173.559 65.3862
L174.476 65.581
L175.394 64.1135
L176.311 65.8373
L177.228 64.8753
L178.145 65.2431
L179.063 64.87
L179.98 64.9483
L180.897 64.8728
L181.815 65.22
L182.732 65.1439
L183.649 65.2222
L184.566 65.4513
L185.484 65.0752
L186.401 64.8232
L187.318 64.9036
L188.235 64.8083
L189.153 64.9244
L190.07 65.2652
L190.987 64.9136
L192.822 64.9592
L193.739 65.3021
L195.573 64.845
L196.491 64.7401
L197.408 63.0624
L198.325 63.9329
L199.242 65.2112
L200.16 65.311
L203.829 65.2703
L204.746 64.9467
L205.663 65.5265
L206.581 64.693
L208.415 65.6283
L209.332 65.651
L210.25 65.5012
L211.167 65.7902
L212.084 65.771
L213.919 65.418
L215.753 65.42
L216.67 65.4784
L217.588 65.3289
L218.505 65.5049
L219.422 65.1369
L220.339 65.2067
L221.257 65.5227
L222.174 65.3318
L223.091 65.4581
L224.926 65.0869
L225.843 65.3767
L226.76 65.4182
L227.678 65.1284
L228.595 65.3541
L229.512 64.8734
L231.347 65.1488
L233.181 65.2997
L234.098 64.9516
L235.016 65.3757
L235.933 64.9133
L236.85 64.8088
L237.767 65.21
L238.685 65.3044
L239.602 64.9837
L240.519 65.0426
L243.271 65.4898
L244.188 64.8918
L245.105 64.9593
L246.94 65.468
L249.692 65.1992
L250.609 65.3787
L251.526 65.2695
L253.361 65.4155
L254.278 65.2766
L255.195 65.3436
L256.113 65.2428
L258.864 65.5386
L259.782 65.3461
L260.699 65.4655
L261.616 65.2116
L262.533 65.2095
L264.368 65.5873
L265.285 65.5272
L266.202 65.3373
L267.12 65.4781
L268.954 65.252
L270.789 65.4664
L272.623 65.5569
L274.458 65.6939
L275.375 65.5261
L278.127 65.3906
L279.044 65.0831
L279.961 65.5744
L281.796 65.4185
L282.713 64.7976
L283.63 65.6783
L287.299 65.4507
L288.217 64.5967
L289.134 65.3862
L290.051 65.616
L290.968 65.4599
L292.803 65.602
L297.389 65.1876
L298.307 65.5384
L299.224 65.2817
L300.141 65.6311
L301.976 65.2037
L302.893 63.6992
L303.81 65.6581
L306.562 65.7823
L307.479 65.3769
L308.396 65.6296
L309.314 65.4161
L310.231 65.7253
L311.148 65.45
L312.983 65.3622
L313.9 65.4668
L314.817 65.4049
L315.735 65.6579
L316.652 65.362
L317.569 65.3344
L318.486 65.6897
L319.404 65.6186
L320.321 65.3879
L321.238 64.9478
L322.155 65.7981
L323.073 65.3899
L323.99 65.623
L324.907 65.3679
L326.742 65.4575
L327.659 65.7655
L329.493 65.6437
L330.411 64.6769
L331.328 59.6005
L332.245 65.97
L334.997 65.2628
L335.914 65.5928
L336.831 65.6017
L337.749 66.104
L339.583 65.9194
L340.501 65.8344
L341.418 65.3084
L342.335 65.5473
L343.252 65.6444
L344.17 63.7182
L345.087 66.6224
L346.004 66.0784
L346.921 66.123
L347.839 66.6248
L348.756 241.022
L349.673 66.0259
L350.59 66.1447
L353.342 65.8845
L354.259 65.8747
L355.177 65.9803
L356.094 65.7017
M357.928 66.2614
L358.846 55.95
L359.763 65.151
L360.68 65.5235
L361.598 65.5482
L362.515 63.9292
L363.432 66.1851
L368.018 65.853
L369.853 65.8683
L371.687 65.8137
L372.605 65.5538
L373.522 65.4716
L374.439 65.5046
M376.274 65.9705
L377.191 66.1918
L379.943 66.026
L380.86 66.4512
L381.777 66.6573
L382.695 45.897
M384.529 66.05
L385.446 66.3579
L386.364 94.9539
L387.281 66.8912
L388.198 66.3132
L389.115 68.6751
M390.95 65.9967
L391.867 66.0514
L391.867 66.0514" style="fill:none;stroke:#00bfbf;stroke-linecap:square;"/>
   </g>
   <g id="patch_3">
    <path d="
M57.9844 21.3181
L392.784 21.3181" style="fill:none;stroke:#000000;stroke-linecap:square;stroke-linejoin:miter;"/>
   </g>
   <g id="patch_4">
    <path d="
M392.784 244.518
L392.784 21.3181" style="fill:none;stroke:#000000;stroke-linecap:square;stroke-linejoin:miter;"/>
   </g>
   <g id="patch_5">
    <path d="
M57.9844 244.518
L392.784 244.518" style="fill:none;stroke:#000000;stroke-linecap:square;stroke-linejoin:miter;"/>
   </g>
   <g id="patch_6">
    <path d="
M57.9844 244.518
L57.9844 21.3181" style="fill:none;stroke:#000000;stroke-linecap:square;stroke-linejoin:miter;"/>
   </g>
   <g id="matplotlib.axis_1">
    <g id="xtick_1">
     <g id="line2d_5">
      <defs>
       <path d="
M0 0
L0 -4" id="m93b0483c22" style="stroke:#000000;stroke-width:0.5;"/>
      </defs>
      <g>
       <use style="stroke:#000000;stroke-width:0.5;" x="57.984375" xlink:href="#m93b0483c22" y="244.518125"/>
      </g>
     </g>
     <g id="line2d_6">
      <defs>
       <path d="
M0 0
L0 4" id="m741efc42ff" style="stroke:#000000;stroke-width:0.5;"/>
      </defs>
      <g>
       <use style="stroke:#000000;stroke-width:0.5;" x="57.984375" xlink:href="#m741efc42ff" y="21.318125"/>
      </g>
     </g>
     <g id="text_1">
      <!-- 0 -->
      <defs>
       <path d="
M31.7812 66.4062
Q24.1719 66.4062 20.3281 58.9062
Q16.5 51.4219 16.5 36.375
Q16.5 21.3906 20.3281 13.8906
Q24.1719 6.39062 31.7812 6.39062
Q39.4531 6.39062 43.2812 13.8906
Q47.125 21.3906 47.125 36.375
Q47.125 51.4219 43.2812 58.9062
Q39.4531 66.4062 31.7812 66.4062
M31.7812 74.2188
Q44.0469 74.2188 50.5156 64.5156
Q56.9844 54.8281 56.9844 36.375
Q56.9844 17.9688 50.5156 8.26562
Q44.0469 -1.42188 31.7812 -1.42188
Q19.5312 -1.42188 13.0625 8.26562
Q6.59375 17.9688 6.59375 36.375
Q6.59375 54.8281 13.0625 64.5156
Q19.5312 74.2188 31.7812 74.2188" id="BitstreamVeraSans-Roman-30"/>
      </defs>
      <g transform="translate(55.46484375 256.1165625)scale(0.1 -0.1)">
       <use xlink:href="#BitstreamVeraSans-Roman-30"/>
      </g>
     </g>
    </g>
    <g id="xtick_2">
     <g id="line2d_7">
      <g>
       <use style="stroke:#000000;stroke-width:0.5;" x="103.847388699" xlink:href="#m93b0483c22" y="244.518125"/>
      </g>
     </g>
     <g id="line2d_8">
      <g>
       <use style="stroke:#000000;stroke-width:0.5;" x="103.847388699" xlink:href="#m741efc42ff" y="21.318125"/>
      </g>
     </g>
     <g id="text_2">
      <!-- 50 -->
      <defs>
       <path d="
M10.7969 72.9062
L49.5156 72.9062
L49.5156 64.5938
L19.8281 64.5938
L19.8281 46.7344
Q21.9688 47.4688 24.1094 47.8281
Q26.2656 48.1875 28.4219 48.1875
Q40.625 48.1875 47.75 41.5
Q54.8906 34.8125 54.8906 23.3906
Q54.8906 11.625 47.5625 5.09375
Q40.2344 -1.42188 26.9062 -1.42188
Q22.3125 -1.42188 17.5469 -0.640625
Q12.7969 0.140625 7.71875 1.70312
L7.71875 11.625
Q12.1094 9.23438 16.7969 8.0625
Q21.4844 6.89062 26.7031 6.89062
Q35.1562 6.89062 40.0781 11.3281
Q45.0156 15.7656 45.0156 23.3906
Q45.0156 31 40.0781 35.4375
Q35.1562 39.8906 26.7031 39.8906
Q22.75 39.8906 18.8125 39.0156
Q14.8906 38.1406 10.7969 36.2812
z
" id="BitstreamVeraSans-Roman-35"/>
      </defs>
      <g transform="translate(98.2028574486 256.1165625)scale(0.1 -0.1)">
       <use xlink:href="#BitstreamVeraSans-Roman-35"/>
       <use x="63.623046875" xlink:href="#BitstreamVeraSans-Roman-30"/>
      </g>
     </g>
    </g>
    <g id="xtick_3">
     <g id="line2d_9">
      <g>
       <use style="stroke:#000000;stroke-width:0.5;" x="149.710402397" xlink:href="#m93b0483c22" y="244.518125"/>
      </g>
     </g>
     <g id="line2d_10">
      <g>
       <use style="stroke:#000000;stroke-width:0.5;" x="149.710402397" xlink:href="#m741efc42ff" y="21.318125"/>
      </g>
     </g>
     <g id="text_3">
      <!-- 100 -->
      <defs>
       <path d="
M12.4062 8.29688
L28.5156 8.29688
L28.5156 63.9219
L10.9844 60.4062
L10.9844 69.3906
L28.4219 72.9062
L38.2812 72.9062
L38.2812 8.29688
L54.3906 8.29688
L54.3906 0
L12.4062 0
z
" id="BitstreamVeraSans-Roman-31"/>
      </defs>
      <g transform="translate(141.047902397 256.1165625)scale(0.1 -0.1)">
       <use xlink:href="#BitstreamVeraSans-Roman-31"/>
       <use x="63.623046875" xlink:href="#BitstreamVeraSans-Roman-30"/>
       <use x="127.24609375" xlink:href="#BitstreamVeraSans-Roman-30"/>
      </g>
     </g>
    </g>
    <g id="xtick_4">
     <g id="line2d_11">
      <g>
       <use style="stroke:#000000;stroke-width:0.5;" x="195.573416096" xlink:href="#m93b0483c22" y="244.518125"/>
      </g>
     </g>
     <g id="line2d_12">
      <g>
       <use style="stroke:#000000;stroke-width:0.5;" x="195.573416096" xlink:href="#m741efc42ff" y="21.318125"/>
      </g>
     </g>
     <g id="text_4">
      <!-- 150 -->
      <g transform="translate(186.910916096 256.1165625)scale(0.1 -0.1)">
       <use xlink:href="#BitstreamVeraSans-Roman-31"/>
       <use x="63.623046875" xlink:href="#BitstreamVeraSans-Roman-35"/>
       <use x="127.24609375" xlink:href="#BitstreamVeraSans-Roman-30"/>
      </g>
     </g>
    </g>
    <g id="xtick_5">
     <g id="line2d_13">
      <g>
       <use style="stroke:#000000;stroke-width:0.5;" x="241.436429795" xlink:href="#m93b0483c22" y="244.518125"/>
      </g>
     </g>
     <g id="line2d_14">
      <g>
       <use style="stroke:#000000;stroke-width:0.5;" x="241.436429795" xlink:href="#m741efc42ff" y="21.318125"/>
      </g>
     </g>
     <g id="text_5">
      <!-- 200 -->
      <defs>
       <path d="
M19.1875 8.29688
L53.6094 8.29688
L53.6094 0
L7.32812 0
L7.32812 8.29688
Q12.9375 14.1094 22.625 23.8906
Q32.3281 33.6875 34.8125 36.5312
Q39.5469 41.8438 41.4219 45.5312
Q43.3125 49.2188 43.3125 52.7812
Q43.3125 58.5938 39.2344 62.25
Q35.1562 65.9219 28.6094 65.9219
Q23.9688 65.9219 18.8125 64.3125
Q13.6719 62.7031 7.8125 59.4219
L7.8125 69.3906
Q13.7656 71.7812 18.9375 73
Q24.125 74.2188 28.4219 74.2188
Q39.75 74.2188 46.4844 68.5469
Q53.2188 62.8906 53.2188 53.4219
Q53.2188 48.9219 51.5312 44.8906
Q49.8594 40.875 45.4062 35.4062
Q44.1875 33.9844 37.6406 27.2188
Q31.1094 20.4531 19.1875 8.29688" id="BitstreamVeraSans-Roman-32"/>
      </defs>
      <g transform="translate(232.591117295 256.1165625)scale(0.1 -0.1)">
       <use xlink:href="#BitstreamVeraSans-Roman-32"/>
       <use x="63.623046875" xlink:href="#BitstreamVeraSans-Roman-30"/>
       <use x="127.24609375" xlink:href="#BitstreamVeraSans-Roman-30"/>
      </g>
     </g>
    </g>
    <g id="xtick_6">
     <g id="line2d_15">
      <g>
       <use style="stroke:#000000;stroke-width:0.5;" x="287.299443493" xlink:href="#m93b0483c22" y="244.518125"/>
      </g>
     </g>
     <g id="line2d_16">
      <g>
       <use style="stroke:#000000;stroke-width:0.5;" x="287.299443493" xlink:href="#m741efc42ff" y="21.318125"/>
      </g>
     </g>
     <g id="text_6">
      <!-- 250 -->
      <g transform="translate(278.454130993 256.1165625)scale(0.1 -0.1)">
       <use xlink:href="#BitstreamVeraSans-Roman-32"/>
       <use x="63.623046875" xlink:href="#BitstreamVeraSans-Roman-35"/>
       <use x="127.24609375" xlink:href="#BitstreamVeraSans-Roman-30"/>
      </g>
     </g>
    </g>
    <g id="xtick_7">
     <g id="line2d_17">
      <g>
       <use style="stroke:#000000;stroke-width:0.5;" x="333.162457192" xlink:href="#m93b0483c22" y="244.518125"/>
      </g>
     </g>
     <g id="line2d_18">
      <g>
       <use style="stroke:#000000;stroke-width:0.5;" x="333.162457192" xlink:href="#m741efc42ff" y="21.318125"/>
      </g>
     </g>
     <g id="text_7">
      <!-- 300 -->
      <defs>
       <path d="
M40.5781 39.3125
Q47.6562 37.7969 51.625 33
Q55.6094 28.2188 55.6094 21.1875
Q55.6094 10.4062 48.1875 4.48438
Q40.7656 -1.42188 27.0938 -1.42188
Q22.5156 -1.42188 17.6562 -0.515625
Q12.7969 0.390625 7.625 2.20312
L7.625 11.7188
Q11.7188 9.32812 16.5938 8.10938
Q21.4844 6.89062 26.8125 6.89062
Q36.0781 6.89062 40.9375 10.5469
Q45.7969 14.2031 45.7969 21.1875
Q45.7969 27.6406 41.2812 31.2656
Q36.7656 34.9062 28.7188 34.9062
L20.2188 34.9062
L20.2188 43.0156
L29.1094 43.0156
Q36.375 43.0156 40.2344 45.9219
Q44.0938 48.8281 44.0938 54.2969
Q44.0938 59.9062 40.1094 62.9062
Q36.1406 65.9219 28.7188 65.9219
Q24.6562 65.9219 20.0156 65.0312
Q15.375 64.1562 9.8125 62.3125
L9.8125 71.0938
Q15.4375 72.6562 20.3438 73.4375
Q25.25 74.2188 29.5938 74.2188
Q40.8281 74.2188 47.3594 69.1094
Q53.9062 64.0156 53.9062 55.3281
Q53.9062 49.2656 50.4375 45.0938
Q46.9688 40.9219 40.5781 39.3125" id="BitstreamVeraSans-Roman-33"/>
      </defs>
      <g transform="translate(324.331988442 256.1165625)scale(0.1 -0.1)">
       <use xlink:href="#BitstreamVeraSans-Roman-33"/>
       <use x="63.623046875" xlink:href="#BitstreamVeraSans-Roman-30"/>
       <use x="127.24609375" xlink:href="#BitstreamVeraSans-Roman-30"/>
      </g>
     </g>
    </g>
    <g id="xtick_8">
     <g id="line2d_19">
      <g>
       <use style="stroke:#000000;stroke-width:0.5;" x="379.02547089" xlink:href="#m93b0483c22" y="244.518125"/>
      </g>
     </g>
     <g id="line2d_20">
      <g>
       <use style="stroke:#000000;stroke-width:0.5;" x="379.02547089" xlink:href="#m741efc42ff" y="21.318125"/>
      </g>
     </g>
     <g id="text_8">
      <!-- 350 -->
      <g transform="translate(370.19500214 256.1165625)scale(0.1 -0.1)">
       <use xlink:href="#BitstreamVeraSans-Roman-33"/>
       <use x="63.623046875" xlink:href="#BitstreamVeraSans-Roman-35"/>
       <use x="127.24609375" xlink:href="#BitstreamVeraSans-Roman-30"/>
      </g>
     </g>
    </g>
    <g id="text_9">
     <!-- Julian day -->
     <defs>
      <path id="BitstreamVeraSans-Roman-20"/>
      <path d="
M9.8125 72.9062
L19.6719 72.9062
L19.6719 5.07812
Q19.6719 -8.10938 14.6719 -14.0625
Q9.67188 -20.0156 -1.42188 -20.0156
L-5.17188 -20.0156
L-5.17188 -11.7188
L-2.09375 -11.7188
Q4.4375 -11.7188 7.125 -8.04688
Q9.8125 -4.39062 9.8125 5.07812
z
" id="BitstreamVeraSans-Roman-4a"/>
      <path d="
M54.8906 33.0156
L54.8906 0
L45.9062 0
L45.9062 32.7188
Q45.9062 40.4844 42.875 44.3281
Q39.8438 48.1875 33.7969 48.1875
Q26.5156 48.1875 22.3125 43.5469
Q18.1094 38.9219 18.1094 30.9062
L18.1094 0
L9.07812 0
L9.07812 54.6875
L18.1094 54.6875
L18.1094 46.1875
Q21.3438 51.125 25.7031 53.5625
Q30.0781 56 35.7969 56
Q45.2188 56 50.0469 50.1719
Q54.8906 44.3438 54.8906 33.0156" id="BitstreamVeraSans-Roman-6e"/>
      <path d="
M9.42188 75.9844
L18.4062 75.9844
L18.4062 0
L9.42188 0
z
" id="BitstreamVeraSans-Roman-6c"/>
      <path d="
M9.42188 54.6875
L18.4062 54.6875
L18.4062 0
L9.42188 0
z

M9.42188 75.9844
L18.4062 75.9844
L18.4062 64.5938
L9.42188 64.5938
z
" id="BitstreamVeraSans-Roman-69"/>
      <path d="
M32.1719 -5.07812
Q28.375 -14.8438 24.75 -17.8125
Q21.1406 -20.7969 15.0938 -20.7969
L7.90625 -20.7969
L7.90625 -13.2812
L13.1875 -13.2812
Q16.8906 -13.2812 18.9375 -11.5156
Q21 -9.76562 23.4844 -3.21875
L25.0938 0.875
L2.98438 54.6875
L12.5 54.6875
L29.5938 11.9219
L46.6875 54.6875
L56.2031 54.6875
z
" id="BitstreamVeraSans-Roman-79"/>
      <path d="
M45.4062 46.3906
L45.4062 75.9844
L54.3906 75.9844
L54.3906 0
L45.4062 0
L45.4062 8.20312
Q42.5781 3.32812 38.25 0.953125
Q33.9375 -1.42188 27.875 -1.42188
Q17.9688 -1.42188 11.7344 6.48438
Q5.51562 14.4062 5.51562 27.2969
Q5.51562 40.1875 11.7344 48.0938
Q17.9688 56 27.875 56
Q33.9375 56 38.25 53.625
Q42.5781 51.2656 45.4062 46.3906
M14.7969 27.2969
Q14.7969 17.3906 18.875 11.75
Q22.9531 6.10938 30.0781 6.10938
Q37.2031 6.10938 41.2969 11.75
Q45.4062 17.3906 45.4062 27.2969
Q45.4062 37.2031 41.2969 42.8438
Q37.2031 48.4844 30.0781 48.4844
Q22.9531 48.4844 18.875 42.8438
Q14.7969 37.2031 14.7969 27.2969" id="BitstreamVeraSans-Roman-64"/>
      <path d="
M8.5 21.5781
L8.5 54.6875
L17.4844 54.6875
L17.4844 21.9219
Q17.4844 14.1562 20.5 10.2656
Q23.5312 6.39062 29.5938 6.39062
Q36.8594 6.39062 41.0781 11.0312
Q45.3125 15.6719 45.3125 23.6875
L45.3125 54.6875
L54.2969 54.6875
L54.2969 0
L45.3125 0
L45.3125 8.40625
Q42.0469 3.42188 37.7188 1
Q33.4062 -1.42188 27.6875 -1.42188
Q18.2656 -1.42188 13.375 4.4375
Q8.5 10.2969 8.5 21.5781" id="BitstreamVeraSans-Roman-75"/>
      <path d="
M34.2812 27.4844
Q23.3906 27.4844 19.1875 25
Q14.9844 22.5156 14.9844 16.5
Q14.9844 11.7188 18.1406 8.90625
Q21.2969 6.10938 26.7031 6.10938
Q34.1875 6.10938 38.7031 11.4062
Q43.2188 16.7031 43.2188 25.4844
L43.2188 27.4844
z

M52.2031 31.2031
L52.2031 0
L43.2188 0
L43.2188 8.29688
Q40.1406 3.32812 35.5469 0.953125
Q30.9531 -1.42188 24.3125 -1.42188
Q15.9219 -1.42188 10.9531 3.29688
Q6 8.01562 6 15.9219
Q6 25.1406 12.1719 29.8281
Q18.3594 34.5156 30.6094 34.5156
L43.2188 34.5156
L43.2188 35.4062
Q43.2188 41.6094 39.1406 45
Q35.0625 48.3906 27.6875 48.3906
Q23 48.3906 18.5469 47.2656
Q14.1094 46.1406 10.0156 43.8906
L10.0156 52.2031
Q14.9375 54.1094 19.5781 55.0469
Q24.2188 56 28.6094 56
Q40.4844 56 46.3438 49.8438
Q52.2031 43.7031 52.2031 31.2031" id="BitstreamVeraSans-Roman-61"/>
     </defs>
     <g transform="translate(200.83359375 270.7946875)scale(0.1 -0.1)">
      <use xlink:href="#BitstreamVeraSans-Roman-4a"/>
      <use x="29.4921875" xlink:href="#BitstreamVeraSans-Roman-75"/>
      <use x="92.87109375" xlink:href="#BitstreamVeraSans-Roman-6c"/>
      <use x="120.654296875" xlink:href="#BitstreamVeraSans-Roman-69"/>
      <use x="148.4375" xlink:href="#BitstreamVeraSans-Roman-61"/>
      <use x="209.716796875" xlink:href="#BitstreamVeraSans-Roman-6e"/>
      <use x="273.095703125" xlink:href="#BitstreamVeraSans-Roman-20"/>
      <use x="304.8828125" xlink:href="#BitstreamVeraSans-Roman-64"/>
      <use x="368.359375" xlink:href="#BitstreamVeraSans-Roman-61"/>
      <use x="429.638671875" xlink:href="#BitstreamVeraSans-Roman-79"/>
     </g>
    </g>
   </g>
   <g id="matplotlib.axis_2">
    <g id="ytick_1">
     <g id="line2d_21">
      <defs>
       <path d="
M0 0
L4 0" id="m728421d6d4" style="stroke:#000000;stroke-width:0.5;"/>
      </defs>
      <g>
       <use style="stroke:#000000;stroke-width:0.5;" x="57.984375" xlink:href="#m728421d6d4" y="244.518125"/>
      </g>
     </g>
     <g id="line2d_22">
      <defs>
       <path d="
M0 0
L-4 0" id="mcb0005524f" style="stroke:#000000;stroke-width:0.5;"/>
      </defs>
      <g>
       <use style="stroke:#000000;stroke-width:0.5;" x="392.784375" xlink:href="#mcb0005524f" y="244.518125"/>
      </g>
     </g>
     <g id="text_10">
      <!-- −8000 -->
      <defs>
       <path d="
M10.5938 35.5
L73.1875 35.5
L73.1875 27.2031
L10.5938 27.2031
z
" id="BitstreamVeraSans-Roman-2212"/>
       <path d="
M31.7812 34.625
Q24.75 34.625 20.7188 30.8594
Q16.7031 27.0938 16.7031 20.5156
Q16.7031 13.9219 20.7188 10.1562
Q24.75 6.39062 31.7812 6.39062
Q38.8125 6.39062 42.8594 10.1719
Q46.9219 13.9688 46.9219 20.5156
Q46.9219 27.0938 42.8906 30.8594
Q38.875 34.625 31.7812 34.625
M21.9219 38.8125
Q15.5781 40.375 12.0312 44.7188
Q8.5 49.0781 8.5 55.3281
Q8.5 64.0625 14.7188 69.1406
Q20.9531 74.2188 31.7812 74.2188
Q42.6719 74.2188 48.875 69.1406
Q55.0781 64.0625 55.0781 55.3281
Q55.0781 49.0781 51.5312 44.7188
Q48 40.375 41.7031 38.8125
Q48.8281 37.1562 52.7969 32.3125
Q56.7812 27.4844 56.7812 20.5156
Q56.7812 9.90625 50.3125 4.23438
Q43.8438 -1.42188 31.7812 -1.42188
Q19.7344 -1.42188 13.25 4.23438
Q6.78125 9.90625 6.78125 20.5156
Q6.78125 27.4844 10.7812 32.3125
Q14.7969 37.1562 21.9219 38.8125
M18.3125 54.3906
Q18.3125 48.7344 21.8438 45.5625
Q25.3906 42.3906 31.7812 42.3906
Q38.1406 42.3906 41.7188 45.5625
Q45.3125 48.7344 45.3125 54.3906
Q45.3125 60.0625 41.7188 63.2344
Q38.1406 66.4062 31.7812 66.4062
Q25.3906 66.4062 21.8438 63.2344
Q18.3125 60.0625 18.3125 54.3906" id="BitstreamVeraSans-Roman-38"/>
      </defs>
      <g transform="translate(21.878125 247.2775)scale(0.1 -0.1)">
       <use xlink:href="#BitstreamVeraSans-Roman-2212"/>
       <use x="83.7890625" xlink:href="#BitstreamVeraSans-Roman-38"/>
       <use x="147.412109375" xlink:href="#BitstreamVeraSans-Roman-30"/>
       <use x="211.03515625" xlink:href="#BitstreamVeraSans-Roman-30"/>
       <use x="274.658203125" xlink:href="#BitstreamVeraSans-Roman-30"/>
      </g>
     </g>
    </g>
    <g id="ytick_2">
     <g id="line2d_23">
      <g>
       <use style="stroke:#000000;stroke-width:0.5;" x="57.984375" xlink:href="#m728421d6d4" y="199.878125"/>
      </g>
     </g>
     <g id="line2d_24">
      <g>
       <use style="stroke:#000000;stroke-width:0.5;" x="392.784375" xlink:href="#mcb0005524f" y="199.878125"/>
      </g>
     </g>
     <g id="text_11">
      <!-- −6000 -->
      <defs>
       <path d="
M33.0156 40.375
Q26.375 40.375 22.4844 35.8281
Q18.6094 31.2969 18.6094 23.3906
Q18.6094 15.5312 22.4844 10.9531
Q26.375 6.39062 33.0156 6.39062
Q39.6562 6.39062 43.5312 10.9531
Q47.4062 15.5312 47.4062 23.3906
Q47.4062 31.2969 43.5312 35.8281
Q39.6562 40.375 33.0156 40.375
M52.5938 71.2969
L52.5938 62.3125
Q48.875 64.0625 45.0938 64.9844
Q41.3125 65.9219 37.5938 65.9219
Q27.8281 65.9219 22.6719 59.3281
Q17.5312 52.7344 16.7969 39.4062
Q19.6719 43.6562 24.0156 45.9219
Q28.375 48.1875 33.5938 48.1875
Q44.5781 48.1875 50.9531 41.5156
Q57.3281 34.8594 57.3281 23.3906
Q57.3281 12.1562 50.6875 5.35938
Q44.0469 -1.42188 33.0156 -1.42188
Q20.3594 -1.42188 13.6719 8.26562
Q6.98438 17.9688 6.98438 36.375
Q6.98438 53.6562 15.1875 63.9375
Q23.3906 74.2188 37.2031 74.2188
Q40.9219 74.2188 44.7031 73.4844
Q48.4844 72.75 52.5938 71.2969" id="BitstreamVeraSans-Roman-36"/>
      </defs>
      <g transform="translate(21.878125 202.6375)scale(0.1 -0.1)">
       <use xlink:href="#BitstreamVeraSans-Roman-2212"/>
       <use x="83.7890625" xlink:href="#BitstreamVeraSans-Roman-36"/>
       <use x="147.412109375" xlink:href="#BitstreamVeraSans-Roman-30"/>
       <use x="211.03515625" xlink:href="#BitstreamVeraSans-Roman-30"/>
       <use x="274.658203125" xlink:href="#BitstreamVeraSans-Roman-30"/>
      </g>
     </g>
    </g>
    <g id="ytick_3">
     <g id="line2d_25">
      <g>
       <use style="stroke:#000000;stroke-width:0.5;" x="57.984375" xlink:href="#m728421d6d4" y="155.238125"/>
      </g>
     </g>
     <g id="line2d_26">
      <g>
       <use style="stroke:#000000;stroke-width:0.5;" x="392.784375" xlink:href="#mcb0005524f" y="155.238125"/>
      </g>
     </g>
     <g id="text_12">
      <!-- −4000 -->
      <defs>
       <path d="
M37.7969 64.3125
L12.8906 25.3906
L37.7969 25.3906
z

M35.2031 72.9062
L47.6094 72.9062
L47.6094 25.3906
L58.0156 25.3906
L58.0156 17.1875
L47.6094 17.1875
L47.6094 0
L37.7969 0
L37.7969 17.1875
L4.89062 17.1875
L4.89062 26.7031
z
" id="BitstreamVeraSans-Roman-34"/>
      </defs>
      <g transform="translate(21.878125 157.9975)scale(0.1 -0.1)">
       <use xlink:href="#BitstreamVeraSans-Roman-2212"/>
       <use x="83.7890625" xlink:href="#BitstreamVeraSans-Roman-34"/>
       <use x="147.412109375" xlink:href="#BitstreamVeraSans-Roman-30"/>
       <use x="211.03515625" xlink:href="#BitstreamVeraSans-Roman-30"/>
       <use x="274.658203125" xlink:href="#BitstreamVeraSans-Roman-30"/>
      </g>
     </g>
    </g>
    <g id="ytick_4">
     <g id="line2d_27">
      <g>
       <use style="stroke:#000000;stroke-width:0.5;" x="57.984375" xlink:href="#m728421d6d4" y="110.598125"/>
      </g>
     </g>
     <g id="line2d_28">
      <g>
       <use style="stroke:#000000;stroke-width:0.5;" x="392.784375" xlink:href="#mcb0005524f" y="110.598125"/>
      </g>
     </g>
     <g id="text_13">
      <!-- −2000 -->
      <g transform="translate(21.878125 113.3575)scale(0.1 -0.1)">
       <use xlink:href="#BitstreamVeraSans-Roman-2212"/>
       <use x="83.7890625" xlink:href="#BitstreamVeraSans-Roman-32"/>
       <use x="147.412109375" xlink:href="#BitstreamVeraSans-Roman-30"/>
       <use x="211.03515625" xlink:href="#BitstreamVeraSans-Roman-30"/>
       <use x="274.658203125" xlink:href="#BitstreamVeraSans-Roman-30"/>
      </g>
     </g>
    </g>
    <g id="ytick_5">
     <g id="line2d_29">
      <g>
       <use style="stroke:#000000;stroke-width:0.5;" x="57.984375" xlink:href="#m728421d6d4" y="65.958125"/>
      </g>
     </g>
     <g id="line2d_30">
      <g>
       <use style="stroke:#000000;stroke-width:0.5;" x="392.784375" xlink:href="#mcb0005524f" y="65.958125"/>
      </g>
     </g>
     <g id="text_14">
      <!-- 0 -->
      <g transform="translate(48.9453125 68.7175)scale(0.1 -0.1)">
       <use xlink:href="#BitstreamVeraSans-Roman-30"/>
      </g>
     </g>
    </g>
    <g id="ytick_6">
     <g id="line2d_31">
      <g>
       <use style="stroke:#000000;stroke-width:0.5;" x="57.984375" xlink:href="#m728421d6d4" y="21.318125"/>
      </g>
     </g>
     <g id="line2d_32">
      <g>
       <use style="stroke:#000000;stroke-width:0.5;" x="392.784375" xlink:href="#mcb0005524f" y="21.318125"/>
      </g>
     </g>
     <g id="text_15">
      <!-- 2000 -->
      <g transform="translate(29.93125 24.0775)scale(0.1 -0.1)">
       <use xlink:href="#BitstreamVeraSans-Roman-32"/>
       <use x="63.623046875" xlink:href="#BitstreamVeraSans-Roman-30"/>
       <use x="127.24609375" xlink:href="#BitstreamVeraSans-Roman-30"/>
       <use x="190.869140625" xlink:href="#BitstreamVeraSans-Roman-30"/>
      </g>
     </g>
    </g>
    <g id="text_16">
     <!-- PET (mm/day) -->
     <defs>
      <path d="
M52 44.1875
Q55.375 50.25 60.0625 53.125
Q64.75 56 71.0938 56
Q79.6406 56 84.2812 50.0156
Q88.9219 44.0469 88.9219 33.0156
L88.9219 0
L79.8906 0
L79.8906 32.7188
Q79.8906 40.5781 77.0938 44.375
Q74.3125 48.1875 68.6094 48.1875
Q61.625 48.1875 57.5625 43.5469
Q53.5156 38.9219 53.5156 30.9062
L53.5156 0
L44.4844 0
L44.4844 32.7188
Q44.4844 40.625 41.7031 44.4062
Q38.9219 48.1875 33.1094 48.1875
Q26.2188 48.1875 22.1562 43.5312
Q18.1094 38.875 18.1094 30.9062
L18.1094 0
L9.07812 0
L9.07812 54.6875
L18.1094 54.6875
L18.1094 46.1875
Q21.1875 51.2188 25.4844 53.6094
Q29.7812 56 35.6875 56
Q41.6562 56 45.8281 52.9688
Q50 49.9531 52 44.1875" id="BitstreamVeraSans-Roman-6d"/>
      <path d="
M8.01562 75.875
L15.8281 75.875
Q23.1406 64.3594 26.7812 53.3125
Q30.4219 42.2812 30.4219 31.3906
Q30.4219 20.4531 26.7812 9.375
Q23.1406 -1.70312 15.8281 -13.1875
L8.01562 -13.1875
Q14.5 -2 17.7031 9.0625
Q20.9062 20.125 20.9062 31.3906
Q20.9062 42.6719 17.7031 53.6562
Q14.5 64.6562 8.01562 75.875" id="BitstreamVeraSans-Roman-29"/>
      <path d="
M31 75.875
Q24.4688 64.6562 21.2812 53.6562
Q18.1094 42.6719 18.1094 31.3906
Q18.1094 20.125 21.3125 9.0625
Q24.5156 -2 31 -13.1875
L23.1875 -13.1875
Q15.875 -1.70312 12.2344 9.375
Q8.59375 20.4531 8.59375 31.3906
Q8.59375 42.2812 12.2031 53.3125
Q15.8281 64.3594 23.1875 75.875
z
" id="BitstreamVeraSans-Roman-28"/>
      <path d="
M19.6719 64.7969
L19.6719 37.4062
L32.0781 37.4062
Q38.9688 37.4062 42.7188 40.9688
Q46.4844 44.5312 46.4844 51.125
Q46.4844 57.6719 42.7188 61.2344
Q38.9688 64.7969 32.0781 64.7969
z

M9.8125 72.9062
L32.0781 72.9062
Q44.3438 72.9062 50.6094 67.3594
Q56.8906 61.8125 56.8906 51.125
Q56.8906 40.3281 50.6094 34.8125
Q44.3438 29.2969 32.0781 29.2969
L19.6719 29.2969
L19.6719 0
L9.8125 0
z
" id="BitstreamVeraSans-Roman-50"/>
      <path d="
M9.8125 72.9062
L55.9062 72.9062
L55.9062 64.5938
L19.6719 64.5938
L19.6719 43.0156
L54.3906 43.0156
L54.3906 34.7188
L19.6719 34.7188
L19.6719 8.29688
L56.7812 8.29688
L56.7812 0
L9.8125 0
z
" id="BitstreamVeraSans-Roman-45"/>
      <path d="
M-0.296875 72.9062
L61.375 72.9062
L61.375 64.5938
L35.5 64.5938
L35.5 0
L25.5938 0
L25.5938 64.5938
L-0.296875 64.5938
z
" id="BitstreamVeraSans-Roman-54"/>
      <path d="
M25.3906 72.9062
L33.6875 72.9062
L8.29688 -9.28125
L0 -9.28125
z
" id="BitstreamVeraSans-Roman-2f"/>
     </defs>
     <g transform="translate(14.7984375 167.82984375)rotate(-90.0)scale(0.1 -0.1)">
      <use xlink:href="#BitstreamVeraSans-Roman-50"/>
      <use x="60.302734375" xlink:href="#BitstreamVeraSans-Roman-45"/>
      <use x="123.486328125" xlink:href="#BitstreamVeraSans-Roman-54"/>
      <use x="184.5703125" xlink:href="#BitstreamVeraSans-Roman-20"/>
      <use x="216.357421875" xlink:href="#BitstreamVeraSans-Roman-28"/>
      <use x="255.37109375" xlink:href="#BitstreamVeraSans-Roman-6d"/>
      <use x="352.783203125" xlink:href="#BitstreamVeraSans-Roman-6d"/>
      <use x="450.1953125" xlink:href="#BitstreamVeraSans-Roman-2f"/>
      <use x="483.88671875" xlink:href="#BitstreamVeraSans-Roman-64"/>
      <use x="547.36328125" xlink:href="#BitstreamVeraSans-Roman-61"/>
      <use x="608.642578125" xlink:href="#BitstreamVeraSans-Roman-79"/>
      <use x="667.822265625" xlink:href="#BitstreamVeraSans-Roman-29"/>
     </g>
    </g>
   </g>
   <g id="text_17">
    <!-- daily grass PET at BRWtemp -->
    <defs>
     <path d="
M44.2812 53.0781
L44.2812 44.5781
Q40.4844 46.5312 36.375 47.5
Q32.2812 48.4844 27.875 48.4844
Q21.1875 48.4844 17.8438 46.4375
Q14.5 44.3906 14.5 40.2812
Q14.5 37.1562 16.8906 35.375
Q19.2812 33.5938 26.5156 31.9844
L29.5938 31.2969
Q39.1562 29.25 43.1875 25.5156
Q47.2188 21.7812 47.2188 15.0938
Q47.2188 7.46875 41.1875 3.01562
Q35.1562 -1.42188 24.6094 -1.42188
Q20.2188 -1.42188 15.4531 -0.5625
Q10.6875 0.296875 5.42188 2
L5.42188 11.2812
Q10.4062 8.6875 15.2344 7.39062
Q20.0625 6.10938 24.8125 6.10938
Q31.1562 6.10938 34.5625 8.28125
Q37.9844 10.4531 37.9844 14.4062
Q37.9844 18.0625 35.5156 20.0156
Q33.0625 21.9688 24.7031 23.7812
L21.5781 24.5156
Q13.2344 26.2656 9.51562 29.9062
Q5.8125 33.5469 5.8125 39.8906
Q5.8125 47.6094 11.2812 51.7969
Q16.75 56 26.8125 56
Q31.7812 56 36.1719 55.2656
Q40.5781 54.5469 44.2812 53.0781" id="BitstreamVeraSans-Roman-73"/>
     <path d="
M44.3906 34.1875
Q47.5625 33.1094 50.5625 29.5938
Q53.5625 26.0781 56.5938 19.9219
L66.6094 0
L56 0
L46.6875 18.7031
Q43.0625 26.0312 39.6719 28.4219
Q36.2812 30.8125 30.4219 30.8125
L19.6719 30.8125
L19.6719 0
L9.8125 0
L9.8125 72.9062
L32.0781 72.9062
Q44.5781 72.9062 50.7344 67.6719
Q56.8906 62.4531 56.8906 51.9062
Q56.8906 45.0156 53.6875 40.4688
Q50.4844 35.9375 44.3906 34.1875
M19.6719 64.7969
L19.6719 38.9219
L32.0781 38.9219
Q39.2031 38.9219 42.8438 42.2188
Q46.4844 45.5156 46.4844 51.9062
Q46.4844 58.2969 42.8438 61.5469
Q39.2031 64.7969 32.0781 64.7969
z
" id="BitstreamVeraSans-Roman-52"/>
     <path d="
M19.6719 34.8125
L19.6719 8.10938
L35.5 8.10938
Q43.4531 8.10938 47.2812 11.4062
Q51.125 14.7031 51.125 21.4844
Q51.125 28.3281 47.2812 31.5625
Q43.4531 34.8125 35.5 34.8125
z

M19.6719 64.7969
L19.6719 42.8281
L34.2812 42.8281
Q41.5 42.8281 45.0312 45.5312
Q48.5781 48.25 48.5781 53.8125
Q48.5781 59.3281 45.0312 62.0625
Q41.5 64.7969 34.2812 64.7969
z

M9.8125 72.9062
L35.0156 72.9062
Q46.2969 72.9062 52.3906 68.2188
Q58.5 63.5312 58.5 54.8906
Q58.5 48.1875 55.375 44.2344
Q52.25 40.2812 46.1875 39.3125
Q53.4688 37.75 57.5 32.7812
Q61.5312 27.8281 61.5312 20.4062
Q61.5312 10.6406 54.8906 5.3125
Q48.25 0 35.9844 0
L9.8125 0
z
" id="BitstreamVeraSans-Roman-42"/>
     <path d="
M3.32812 72.9062
L13.2812 72.9062
L28.6094 11.2812
L43.8906 72.9062
L54.9844 72.9062
L70.3125 11.2812
L85.5938 72.9062
L95.6094 72.9062
L77.2969 0
L64.8906 0
L49.5156 63.2812
L33.9844 0
L21.5781 0
z
" id="BitstreamVeraSans-Roman-57"/>
     <path d="
M56.2031 29.5938
L56.2031 25.2031
L14.8906 25.2031
Q15.4844 15.9219 20.4844 11.0625
Q25.4844 6.20312 34.4219 6.20312
Q39.5938 6.20312 44.4531 7.46875
Q49.3125 8.73438 54.1094 11.2812
L54.1094 2.78125
Q49.2656 0.734375 44.1875 -0.34375
Q39.1094 -1.42188 33.8906 -1.42188
Q20.7969 -1.42188 13.1562 6.1875
Q5.51562 13.8125 5.51562 26.8125
Q5.51562 40.2344 12.7656 48.1094
Q20.0156 56 32.3281 56
Q43.3594 56 49.7812 48.8906
Q56.2031 41.7969 56.2031 29.5938
M47.2188 32.2344
Q47.125 39.5938 43.0938 43.9844
Q39.0625 48.3906 32.4219 48.3906
Q24.9062 48.3906 20.3906 44.1406
Q15.875 39.8906 15.1875 32.1719
z
" id="BitstreamVeraSans-Roman-65"/>
     <path d="
M18.3125 70.2188
L18.3125 54.6875
L36.8125 54.6875
L36.8125 47.7031
L18.3125 47.7031
L18.3125 18.0156
Q18.3125 11.3281 20.1406 9.42188
Q21.9688 7.51562 27.5938 7.51562
L36.8125 7.51562
L36.8125 0
L27.5938 0
Q17.1875 0 13.2344 3.875
Q9.28125 7.76562 9.28125 18.0156
L9.28125 47.7031
L2.6875 47.7031
L2.6875 54.6875
L9.28125 54.6875
L9.28125 70.2188
z
" id="BitstreamVeraSans-Roman-74"/>
     <path d="
M41.1094 46.2969
Q39.5938 47.1719 37.8125 47.5781
Q36.0312 48 33.8906 48
Q26.2656 48 22.1875 43.0469
Q18.1094 38.0938 18.1094 28.8125
L18.1094 0
L9.07812 0
L9.07812 54.6875
L18.1094 54.6875
L18.1094 46.1875
Q20.9531 51.1719 25.4844 53.5781
Q30.0312 56 36.5312 56
Q37.4531 56 38.5781 55.875
Q39.7031 55.7656 41.0625 55.5156
z
" id="BitstreamVeraSans-Roman-72"/>
     <path d="
M45.4062 27.9844
Q45.4062 37.75 41.375 43.1094
Q37.3594 48.4844 30.0781 48.4844
Q22.8594 48.4844 18.8281 43.1094
Q14.7969 37.75 14.7969 27.9844
Q14.7969 18.2656 18.8281 12.8906
Q22.8594 7.51562 30.0781 7.51562
Q37.3594 7.51562 41.375 12.8906
Q45.4062 18.2656 45.4062 27.9844
M54.3906 6.78125
Q54.3906 -7.17188 48.1875 -13.9844
Q42 -20.7969 29.2031 -20.7969
Q24.4688 -20.7969 20.2656 -20.0938
Q16.0625 -19.3906 12.1094 -17.9219
L12.1094 -9.1875
Q16.0625 -11.3281 19.9219 -12.3438
Q23.7812 -13.375 27.7812 -13.375
Q36.625 -13.375 41.0156 -8.76562
Q45.4062 -4.15625 45.4062 5.17188
L45.4062 9.625
Q42.625 4.78125 38.2812 2.39062
Q33.9375 0 27.875 0
Q17.8281 0 11.6719 7.65625
Q5.51562 15.3281 5.51562 27.9844
Q5.51562 40.6719 11.6719 48.3281
Q17.8281 56 27.875 56
Q33.9375 56 38.2812 53.6094
Q42.625 51.2188 45.4062 46.3906
L45.4062 54.6875
L54.3906 54.6875
z
" id="BitstreamVeraSans-Roman-67"/>
     <path d="
M18.1094 8.20312
L18.1094 -20.7969
L9.07812 -20.7969
L9.07812 54.6875
L18.1094 54.6875
L18.1094 46.3906
Q20.9531 51.2656 25.2656 53.625
Q29.5938 56 35.5938 56
Q45.5625 56 51.7812 48.0938
Q58.0156 40.1875 58.0156 27.2969
Q58.0156 14.4062 51.7812 6.48438
Q45.5625 -1.42188 35.5938 -1.42188
Q29.5938 -1.42188 25.2656 0.953125
Q20.9531 3.32812 18.1094 8.20312
M48.6875 27.2969
Q48.6875 37.2031 44.6094 42.8438
Q40.5312 48.4844 33.4062 48.4844
Q26.2656 48.4844 22.1875 42.8438
Q18.1094 37.2031 18.1094 27.2969
Q18.1094 17.3906 22.1875 11.75
Q26.2656 6.10938 33.4062 6.10938
Q40.5312 6.10938 44.6094 11.75
Q48.6875 17.3906 48.6875 27.2969" id="BitstreamVeraSans-Roman-70"/>
    </defs>
    <g transform="translate(140.731875 16.318125)scale(0.12 -0.12)">
     <use xlink:href="#BitstreamVeraSans-Roman-64"/>
     <use x="63.4765625" xlink:href="#BitstreamVeraSans-Roman-61"/>
     <use x="124.755859375" xlink:href="#BitstreamVeraSans-Roman-69"/>
     <use x="152.5390625" xlink:href="#BitstreamVeraSans-Roman-6c"/>
     <use x="180.322265625" xlink:href="#BitstreamVeraSans-Roman-79"/>
     <use x="239.501953125" xlink:href="#BitstreamVeraSans-Roman-20"/>
     <use x="271.2890625" xlink:href="#BitstreamVeraSans-Roman-67"/>
     <use x="334.765625" xlink:href="#BitstreamVeraSans-Roman-72"/>
     <use x="375.87890625" xlink:href="#BitstreamVeraSans-Roman-61"/>
     <use x="437.158203125" xlink:href="#BitstreamVeraSans-Roman-73"/>
     <use x="489.2578125" xlink:href="#BitstreamVeraSans-Roman-73"/>
     <use x="541.357421875" xlink:href="#BitstreamVeraSans-Roman-20"/>
     <use x="573.14453125" xlink:href="#BitstreamVeraSans-Roman-50"/>
     <use x="633.447265625" xlink:href="#BitstreamVeraSans-Roman-45"/>
     <use x="696.630859375" xlink:href="#BitstreamVeraSans-Roman-54"/>
     <use x="757.71484375" xlink:href="#BitstreamVeraSans-Roman-20"/>
     <use x="789.501953125" xlink:href="#BitstreamVeraSans-Roman-61"/>
     <use x="850.78125" xlink:href="#BitstreamVeraSans-Roman-74"/>
     <use x="889.990234375" xlink:href="#BitstreamVeraSans-Roman-20"/>
     <use x="921.77734375" xlink:href="#BitstreamVeraSans-Roman-42"/>
     <use x="990.380859375" xlink:href="#BitstreamVeraSans-Roman-52"/>
     <use x="1055.86328125" xlink:href="#BitstreamVeraSans-Roman-57"/>
     <use x="1154.74023438" xlink:href="#BitstreamVeraSans-Roman-74"/>
     <use x="1193.94921875" xlink:href="#BitstreamVeraSans-Roman-65"/>
     <use x="1255.47265625" xlink:href="#BitstreamVeraSans-Roman-6d"/>
     <use x="1352.88476562" xlink:href="#BitstreamVeraSans-Roman-70"/>
    </g>
   </g>
   <g id="legend_1">
    <g id="patch_7">
     <path d="
M314.597 101.373
L386.784 101.373
L386.784 27.3181
L314.597 27.3181
z
" style="fill:#ffffff;stroke:#000000;stroke-linejoin:miter;"/>
    </g>
    <g id="line2d_33">
     <path d="
M322.997 37.0363
L339.797 37.0363" style="fill:none;stroke:#0000ff;stroke-linecap:square;"/>
    </g>
    <g id="line2d_34"/>
    <g id="text_18">
     <!-- 2011 -->
     <g transform="translate(352.996875 41.23625)scale(0.12 -0.12)">
      <use xlink:href="#BitstreamVeraSans-Roman-32"/>
      <use x="63.623046875" xlink:href="#BitstreamVeraSans-Roman-30"/>
      <use x="127.24609375" xlink:href="#BitstreamVeraSans-Roman-31"/>
      <use x="190.869140625" xlink:href="#BitstreamVeraSans-Roman-31"/>
     </g>
    </g>
    <g id="line2d_35">
     <path d="
M322.997 54.65
L339.797 54.65" style="fill:none;stroke:#008000;stroke-linecap:square;"/>
    </g>
    <g id="line2d_36"/>
    <g id="text_19">
     <!-- 2012 -->
     <g transform="translate(352.996875 58.85)scale(0.12 -0.12)">
      <use xlink:href="#BitstreamVeraSans-Roman-32"/>
      <use x="63.623046875" xlink:href="#BitstreamVeraSans-Roman-30"/>
      <use x="127.24609375" xlink:href="#BitstreamVeraSans-Roman-31"/>
      <use x="190.869140625" xlink:href="#BitstreamVeraSans-Roman-32"/>
     </g>
    </g>
    <g id="line2d_37">
     <path d="
M322.997 72.2638
L339.797 72.2638" style="fill:none;stroke:#ff0000;stroke-linecap:square;"/>
    </g>
    <g id="line2d_38"/>
    <g id="text_20">
     <!-- 2013 -->
     <g transform="translate(352.996875 76.46375)scale(0.12 -0.12)">
      <use xlink:href="#BitstreamVeraSans-Roman-32"/>
      <use x="63.623046875" xlink:href="#BitstreamVeraSans-Roman-30"/>
      <use x="127.24609375" xlink:href="#BitstreamVeraSans-Roman-31"/>
      <use x="190.869140625" xlink:href="#BitstreamVeraSans-Roman-33"/>
     </g>
    </g>
    <g id="line2d_39">
     <path d="
M322.997 89.8775
L339.797 89.8775" style="fill:none;stroke:#00bfbf;stroke-linecap:square;"/>
    </g>
    <g id="line2d_40"/>
    <g id="text_21">
     <!-- 2014 -->
     <g transform="translate(352.996875 94.0775)scale(0.12 -0.12)">
      <use xlink:href="#BitstreamVeraSans-Roman-32"/>
      <use x="63.623046875" xlink:href="#BitstreamVeraSans-Roman-30"/>
      <use x="127.24609375" xlink:href="#BitstreamVeraSans-Roman-31"/>
      <use x="190.869140625" xlink:href="#BitstreamVeraSans-Roman-34"/>
     </g>
    </g>
   </g>
  </g>
 </g>
 <defs>
  <clipPath id="pdf711f5425">
   <rect height="223.2" width="334.8" x="57.984375" y="21.318125"/>
  </clipPath>
 </defs>
</svg>
