<?xml version="1.0" encoding="utf-8" standalone="no"?>
<!DOCTYPE svg PUBLIC "-//W3C//DTD SVG 1.1//EN"
  "http://www.w3.org/Graphics/SVG/1.1/DTD/svg11.dtd">
<!-- Created with matplotlib (http://matplotlib.org/) -->
<svg height="280pt" version="1.1" viewBox="0 0 393 280" width="393pt" xmlns="http://www.w3.org/2000/svg" xmlns:xlink="http://www.w3.org/1999/xlink">
 <defs>
  <style type="text/css">
*{stroke-linecap:butt;stroke-linejoin:round;}
  </style>
 </defs>
 <g id="figure_1">
  <g id="patch_1">
   <path d="
M0 280.074
L393.622 280.074
L393.622 0
L0 0
z
" style="fill:#ffffff;"/>
  </g>
  <g id="axes_1">
   <g id="patch_2">
    <path d="
M51.6219 244.518
L386.422 244.518
L386.422 21.3181
L51.6219 21.3181
z
" style="fill:#ffffff;"/>
   </g>
   <g id="line2d_1">
    <path clip-path="url(#p867fb51612)" d="
M51.6219 153.105
L52.5391 148.929
L53.4564 147.883
L54.3737 146.272
L55.2909 148.409
L56.2082 148.139
M64.4635 150.464
L65.3808 148.048
L66.298 144.408
L67.2153 144.677
L68.1326 144.327
L69.0498 139.868
L69.9671 143.079
M80.9742 145.976
L81.8915 148.248
L82.8087 143.018
L83.726 144.015
L84.6432 148.993
L85.5605 149.253
M87.395 185.487
L88.3123 151.079
L89.2295 150.752
L90.1468 169.657
L91.0641 166.317
L91.9813 169.02
L92.8986 143.282
L93.8158 142.944
L94.7331 157.791
L95.6504 148.666
L96.5676 149.206
L97.4849 188.917
L98.4021 187.605
M101.154 159.289
L102.071 154.884
M106.657 140.739
L107.575 120.273
L108.492 148.614
L109.409 143.117
L110.327 141.67
L111.244 145.572
L112.161 146.762
L113.078 145.494
L113.996 139.464
L114.913 147.141
L115.83 142.145
L117.665 136.51
L118.582 129.633
L119.499 141.032
L120.416 236.129
L121.334 155.685
L122.251 142.791
L123.168 139.765
M125.003 188.822
L125.92 153.132
L126.837 146.505
L127.754 143.515
L128.672 145.036
L129.589 143.383
L130.506 141.272
L131.424 141.022
L132.341 139.98
L133.258 139.886
L134.175 126.786
L135.093 116.262
L136.01 139.814
L136.927 136.053
M140.596 147.96
L141.513 130.484
L142.431 121.942
L143.348 137.98
L144.265 141.562
L145.182 90.8021
L146.1 150.9
L147.017 149.625
L147.934 146.641
L148.851 146.212
L149.769 142.421
L150.686 144.659
M152.521 134.226
L153.438 145.728
L154.355 143.685
L155.272 142.245
L156.19 136.265
L157.107 131.626
L158.024 133.042
L158.941 117.605
L159.859 70.8477
L160.776 153.637
L161.693 141.194
L162.61 139.767
L163.528 127.923
L164.445 139.542
L165.362 135.949
L166.279 137.769
L167.197 139.017
L168.114 136.117
L169.031 129.314
L169.948 133.396
L170.866 135.545
L171.783 129.092
L172.7 95.3837
L173.617 126.802
L174.535 134.096
L175.452 137.183
L176.369 142.406
L177.287 131.699
L178.204 127.906
L179.121 137.801
L180.038 108.101
L180.956 121.609
L181.873 136.774
L182.79 135.991
L183.707 131.022
L184.625 135.855
L185.542 139.519
M187.376 138.241
L188.294 134.774
L189.211 127.161
L190.128 136.482
L191.045 124.026
L191.963 124.422
L192.88 128.258
L193.797 130.567
L194.714 132.207
L195.632 111.559
L196.549 102.24
L197.466 128.752
L198.384 123.234
L199.301 116.465
L200.218 131.336
L201.135 120.011
L202.053 136.313
L203.887 136.001
L204.804 129.542
L205.722 88.0334
M208.473 136.432
L209.391 135.092
L210.308 133.532
L211.225 134.232
L212.142 139.224
L213.06 131.391
L213.977 133.307
L214.894 133.995
L215.811 128.791
L216.729 132.009
L217.646 125.405
L218.563 120.654
L219.481 105.782
L220.398 118.645
L221.315 127.108
L222.232 134.278
L223.15 134.181
L224.067 128.257
L224.984 134.077
L225.901 131.956
L226.819 125.135
L228.653 125.724
L229.57 134.552
L230.488 132.494
L231.405 125.45
L232.322 120.23
L233.239 132.553
L234.157 131.716
L235.074 124.792
L235.991 130.894
L236.908 120.653
L237.826 131.253
L238.743 122.537
L239.66 123.611
L240.577 133.159
L241.495 116.525
L242.412 129.57
L243.329 130.804
L244.247 132.934
L245.164 131.056
L246.081 115.018
L246.998 132.861
L247.916 134.61
L248.833 131.83
L249.75 131.971
L250.667 126.007
L251.585 124.411
L252.502 124.063
L253.419 130.435
L254.336 128.066
L255.254 129.873
L256.171 127.004
L257.088 130.688
L258.005 131.188
L258.923 132.641
L259.84 124.315
L260.757 131.38
L261.674 127.131
L262.592 129.233
L263.509 130.464
L264.426 133.123
L265.344 129.504
L266.261 132.926
L267.178 131.339
L268.095 123.181
L269.013 134.292
L269.93 127.778
L270.847 131.065
L271.764 128.13
L272.682 111.361
L273.599 134.942
L274.516 133.662
L275.433 128.313
L276.351 131.94
L277.268 128.372
L278.185 127.257
L279.102 122.435
L280.02 131.086
L280.937 127.396
L281.854 128.236
L282.771 132.644
L283.689 131.891
L284.606 135.065
L285.523 136.427
L286.441 135.319
L287.358 125.906
L288.275 133.885
L289.192 132.623
L290.11 136.004
L291.027 137.908
L291.944 119.273
L292.861 119.467
L293.779 112.855
L294.696 117.567
L295.613 133.966
M298.365 140.909
L299.282 138.491
L300.199 130.863
L301.117 99.0074
L302.034 141.434
L302.951 142.11
L303.868 144.376
L304.786 140.608
L305.703 141.458
L306.62 131.799
L307.537 134.856
L308.455 143.434
L309.372 142.157
L310.289 139.222
L311.207 143.496
L312.124 142.146
L313.041 141.189
L313.958 142.88
L314.876 142.825
L315.793 140.157
L316.71 138.984
L317.627 141.735
L318.545 131.082
L319.462 124.902
L320.379 139.513
L321.296 141.016
L322.214 141.396
L323.131 139.836
L324.048 140.459
L324.965 140.134
L325.883 138.014
L326.8 142.899
L328.634 147.908
L329.552 143.167
L330.469 143.371
M335.973 137.374
L336.89 145.652
L337.807 142.941
L338.724 137.64
L339.642 138.765
L340.559 133.968
L341.476 137.77
L342.393 142.55
L343.311 151.56
M345.145 147.096
L346.062 143.367
M348.814 145.792
L349.731 145.324
L352.483 139.216
L353.401 138.621
L354.318 138.822
L355.235 142.754
L356.152 143.426
L357.07 145.538
M360.739 148.54
L361.656 148.734
L362.573 152.801
M364.408 169.947
L365.325 164.562
L366.242 149.572
L367.159 147.929
L368.077 146.841
L368.994 149.826
L369.911 147.043
L370.828 139.659
L371.746 142.825
L372.663 140.763
L373.58 142.715
L374.497 153.038
L375.415 174.214
M379.084 149.096
L380.001 142.729
L380.918 142.747
L381.836 139.614
L382.753 147.839
L383.67 153.792
L384.587 143.391
L385.505 149.345
L385.505 149.345" style="fill:none;stroke:#0000ff;stroke-linecap:square;"/>
   </g>
   <g id="line2d_2">
    <path clip-path="url(#p867fb51612)" d="
M51.6219 145.477
L52.5391 144.659
L53.4564 135.529
L54.3737 192.775
L55.2909 171.166
L56.2082 143.903
L57.1254 148.016
M64.4635 138.411
L65.3808 141.943
L66.298 138.125
L67.2153 141.246
L68.1326 139.993
L69.0498 141.71
L69.9671 141.417
L70.8843 144.601
L71.8016 144.723
L72.7189 141.948
L73.6361 138.087
L74.5534 138.493
L75.4706 144.141
L76.3879 145.576
L77.3052 133.823
L78.2224 164.755
L79.1397 152.62
M80.9742 147.471
L81.8915 150.788
M99.3194 163.672
L100.237 143.709
L101.154 140.548
L102.071 140.472
L102.988 141.535
M106.657 146.079
L107.575 147.39
L108.492 144.5
L109.409 143.848
L110.327 83.4687
L111.244 145.911
L112.161 141.93
L113.078 139.907
M115.83 144.275
L116.747 140.727
L117.665 140.551
L118.582 140.657
L119.499 132.157
L120.416 26.355
L121.334 148.496
L122.251 144.224
L123.168 137.447
L124.085 146.205
L125.003 144.14
L125.92 142.652
L126.837 141.662
L127.754 133.844
L128.672 145.633
M131.424 146.135
L132.341 146.773
L133.258 145.848
L134.175 147.195
L135.093 147.361
L136.01 145.041
L136.927 144.703
L137.844 145.686
M139.679 138.604
L140.596 139.726
L141.513 126.683
L142.431 136.3
L143.348 138.697
L144.265 133.514
L145.182 133.278
L146.1 141.392
L147.017 126.83
L147.934 140.999
L148.851 133.874
L149.769 138.51
L150.686 133.643
L151.603 138.588
L152.521 135.045
M154.355 145.48
L155.272 141.068
M158.024 147.689
L158.941 145.32
L159.859 138.288
L160.776 140.038
L161.693 134.009
L162.61 136.195
L163.528 123.895
L164.445 128.16
L165.362 137.391
L166.279 132.099
L167.197 132.608
L168.114 136.937
L169.031 104.327
L169.948 142.634
L170.866 121.256
L171.783 129.429
L172.7 121.138
L173.617 122.878
L174.535 121.199
L175.452 128.915
L176.369 127.225
L177.287 128.964
L178.204 134.055
L179.121 125.697
L180.038 120.097
L180.956 121.884
L181.873 119.767
L182.79 122.346
L183.707 129.919
L184.625 122.107
L185.542 122.996
L186.459 123.12
L187.376 130.739
L188.294 124.547
L189.211 120.581
L190.128 118.251
L191.045 80.9683
L191.963 100.313
L192.88 128.719
L193.797 130.937
L194.714 130.237
L195.632 130.231
L196.549 131.102
L197.466 130.032
L198.384 122.843
L199.301 135.725
L200.218 117.204
L202.053 137.989
L202.97 138.493
L203.887 135.164
L204.804 141.587
L205.722 141.161
L206.639 136.7
L207.556 133.316
L208.473 132.59
L209.391 133.359
L210.308 134.657
L211.225 131.336
L212.142 135.247
L213.06 127.069
L213.977 128.619
L214.894 135.642
L215.811 131.399
L216.729 134.207
L217.646 130.377
L218.563 125.957
L219.481 132.397
L220.398 133.321
L221.315 126.879
L222.232 131.895
L223.15 121.214
L224.067 125.063
L225.901 129.774
L226.819 130.687
L227.736 122.95
L228.653 132.376
L229.57 122.099
L230.488 119.777
L231.405 128.692
L232.322 130.791
L233.239 123.664
L234.157 124.973
L235.074 128.819
L235.991 134.435
L236.908 134.912
L237.826 121.621
L238.743 123.121
L239.66 129.922
L240.577 134.427
L241.495 131.784
L242.412 131.088
L243.329 128.454
L244.247 132.441
L245.164 130.015
L246.081 132.647
L246.998 133.26
L247.916 130.174
L248.833 131.662
L249.75 129.421
L250.667 131.304
L251.585 134.996
L252.502 135.996
L253.419 131.717
L254.336 134.371
L255.254 128.729
L256.171 128.682
L257.088 133.99
L258.005 137.076
L258.923 135.742
L259.84 131.522
L260.757 134.65
L261.674 132.851
L262.592 129.626
L263.509 133.03
L264.426 134.391
L265.344 136.569
L266.261 136.402
L267.178 137.567
L268.095 139.446
L269.013 135.718
L269.93 135.151
L270.847 134.73
L271.764 132.706
L272.682 125.874
L273.599 136.792
L274.516 135.749
L275.433 133.327
L276.351 119.528
L277.268 139.1
L278.185 137.883
L279.102 134.716
L280.02 133.471
L280.937 134.041
L281.854 115.064
L282.771 132.609
L283.689 137.716
L284.606 134.247
L285.523 136.678
L286.441 137.403
L287.358 135.599
L288.275 134.106
L289.192 132.215
L290.11 129.845
L291.027 128.195
L291.944 135.991
L292.861 130.286
L293.779 138.051
L294.696 132.588
L295.613 128.554
L296.53 95.119
L297.448 138.652
L299.282 141.027
L300.199 141.41
L301.117 132.401
L302.034 138.018
L302.951 133.273
L303.868 140.145
L304.786 134.027
L305.703 132.77
L306.62 132.076
L307.537 134.401
L308.455 133.023
L309.372 138.646
L310.289 132.072
L311.207 131.457
L312.124 139.353
L313.041 137.774
L313.958 132.647
L314.876 122.866
L315.793 141.762
L316.71 132.691
L317.627 137.871
L318.545 132.202
L319.462 132.281
M321.296 141.038
L322.214 140.58
L323.131 138.332
L324.048 116.847
M326.8 141.083
L327.717 138.719
L328.634 129.866
L329.552 137.199
M332.304 145.599
L333.221 144.457
L334.138 142.57
L335.055 130.88
L335.973 136.188
L336.89 138.347
L337.807 95.5429
L338.724 160.08
L339.642 147.992
L340.559 148.981
L341.476 160.132
M344.228 149.465
L345.145 146.879
L346.062 143.741
L346.98 143.682
L347.897 143.465
L348.814 145.812
M354.318 135.66
L355.235 136.21
L356.152 100.23
L357.07 150.362
M359.821 145.91
L360.739 144.377
L361.656 142.981
L362.573 144.166
L363.49 143.323
L364.408 143.3
L365.325 142.109
L366.242 136.333
L367.159 134.505
M370.828 150.511
L371.746 148.917
L372.663 146.535
L373.58 146.826
M380.918 166.053
L381.836 153.208
M385.505 147.39" style="fill:none;stroke:#008000;stroke-linecap:square;"/>
   </g>
   <g id="patch_3">
    <path d="
M51.6219 21.3181
L386.422 21.3181" style="fill:none;stroke:#000000;stroke-linecap:square;stroke-linejoin:miter;"/>
   </g>
   <g id="patch_4">
    <path d="
M386.422 244.518
L386.422 21.3181" style="fill:none;stroke:#000000;stroke-linecap:square;stroke-linejoin:miter;"/>
   </g>
   <g id="patch_5">
    <path d="
M51.6219 244.518
L386.422 244.518" style="fill:none;stroke:#000000;stroke-linecap:square;stroke-linejoin:miter;"/>
   </g>
   <g id="patch_6">
    <path d="
M51.6219 244.518
L51.6219 21.3181" style="fill:none;stroke:#000000;stroke-linecap:square;stroke-linejoin:miter;"/>
   </g>
   <g id="matplotlib.axis_1">
    <g id="xtick_1">
     <g id="line2d_3">
      <defs>
       <path d="
M0 0
L0 -4" id="m93b0483c22" style="stroke:#000000;stroke-width:0.5;"/>
      </defs>
      <g>
       <use style="stroke:#000000;stroke-width:0.5;" x="51.621875" xlink:href="#m93b0483c22" y="244.518125"/>
      </g>
     </g>
     <g id="line2d_4">
      <defs>
       <path d="
M0 0
L0 4" id="m741efc42ff" style="stroke:#000000;stroke-width:0.5;"/>
      </defs>
      <g>
       <use style="stroke:#000000;stroke-width:0.5;" x="51.621875" xlink:href="#m741efc42ff" y="21.318125"/>
      </g>
     </g>
     <g id="text_1">
      <!-- 0 -->
      <defs>
       <path d="
M31.7812 66.4062
Q24.1719 66.4062 20.3281 58.9062
Q16.5 51.4219 16.5 36.375
Q16.5 21.3906 20.3281 13.8906
Q24.1719 6.39062 31.7812 6.39062
Q39.4531 6.39062 43.2812 13.8906
Q47.125 21.3906 47.125 36.375
Q47.125 51.4219 43.2812 58.9062
Q39.4531 66.4062 31.7812 66.4062
M31.7812 74.2188
Q44.0469 74.2188 50.5156 64.5156
Q56.9844 54.8281 56.9844 36.375
Q56.9844 17.9688 50.5156 8.26562
Q44.0469 -1.42188 31.7812 -1.42188
Q19.5312 -1.42188 13.0625 8.26562
Q6.59375 17.9688 6.59375 36.375
Q6.59375 54.8281 13.0625 64.5156
Q19.5312 74.2188 31.7812 74.2188" id="BitstreamVeraSans-Roman-30"/>
      </defs>
      <g transform="translate(49.10234375 256.1165625)scale(0.1 -0.1)">
       <use xlink:href="#BitstreamVeraSans-Roman-30"/>
      </g>
     </g>
    </g>
    <g id="xtick_2">
     <g id="line2d_5">
      <g>
       <use style="stroke:#000000;stroke-width:0.5;" x="97.4848886986" xlink:href="#m93b0483c22" y="244.518125"/>
      </g>
     </g>
     <g id="line2d_6">
      <g>
       <use style="stroke:#000000;stroke-width:0.5;" x="97.4848886986" xlink:href="#m741efc42ff" y="21.318125"/>
      </g>
     </g>
     <g id="text_2">
      <!-- 50 -->
      <defs>
       <path d="
M10.7969 72.9062
L49.5156 72.9062
L49.5156 64.5938
L19.8281 64.5938
L19.8281 46.7344
Q21.9688 47.4688 24.1094 47.8281
Q26.2656 48.1875 28.4219 48.1875
Q40.625 48.1875 47.75 41.5
Q54.8906 34.8125 54.8906 23.3906
Q54.8906 11.625 47.5625 5.09375
Q40.2344 -1.42188 26.9062 -1.42188
Q22.3125 -1.42188 17.5469 -0.640625
Q12.7969 0.140625 7.71875 1.70312
L7.71875 11.625
Q12.1094 9.23438 16.7969 8.0625
Q21.4844 6.89062 26.7031 6.89062
Q35.1562 6.89062 40.0781 11.3281
Q45.0156 15.7656 45.0156 23.3906
Q45.0156 31 40.0781 35.4375
Q35.1562 39.8906 26.7031 39.8906
Q22.75 39.8906 18.8125 39.0156
Q14.8906 38.1406 10.7969 36.2812
z
" id="BitstreamVeraSans-Roman-35"/>
      </defs>
      <g transform="translate(91.8403574486 256.1165625)scale(0.1 -0.1)">
       <use xlink:href="#BitstreamVeraSans-Roman-35"/>
       <use x="63.623046875" xlink:href="#BitstreamVeraSans-Roman-30"/>
      </g>
     </g>
    </g>
    <g id="xtick_3">
     <g id="line2d_7">
      <g>
       <use style="stroke:#000000;stroke-width:0.5;" x="143.347902397" xlink:href="#m93b0483c22" y="244.518125"/>
      </g>
     </g>
     <g id="line2d_8">
      <g>
       <use style="stroke:#000000;stroke-width:0.5;" x="143.347902397" xlink:href="#m741efc42ff" y="21.318125"/>
      </g>
     </g>
     <g id="text_3">
      <!-- 100 -->
      <defs>
       <path d="
M12.4062 8.29688
L28.5156 8.29688
L28.5156 63.9219
L10.9844 60.4062
L10.9844 69.3906
L28.4219 72.9062
L38.2812 72.9062
L38.2812 8.29688
L54.3906 8.29688
L54.3906 0
L12.4062 0
z
" id="BitstreamVeraSans-Roman-31"/>
      </defs>
      <g transform="translate(134.685402397 256.1165625)scale(0.1 -0.1)">
       <use xlink:href="#BitstreamVeraSans-Roman-31"/>
       <use x="63.623046875" xlink:href="#BitstreamVeraSans-Roman-30"/>
       <use x="127.24609375" xlink:href="#BitstreamVeraSans-Roman-30"/>
      </g>
     </g>
    </g>
    <g id="xtick_4">
     <g id="line2d_9">
      <g>
       <use style="stroke:#000000;stroke-width:0.5;" x="189.210916096" xlink:href="#m93b0483c22" y="244.518125"/>
      </g>
     </g>
     <g id="line2d_10">
      <g>
       <use style="stroke:#000000;stroke-width:0.5;" x="189.210916096" xlink:href="#m741efc42ff" y="21.318125"/>
      </g>
     </g>
     <g id="text_4">
      <!-- 150 -->
      <g transform="translate(180.548416096 256.1165625)scale(0.1 -0.1)">
       <use xlink:href="#BitstreamVeraSans-Roman-31"/>
       <use x="63.623046875" xlink:href="#BitstreamVeraSans-Roman-35"/>
       <use x="127.24609375" xlink:href="#BitstreamVeraSans-Roman-30"/>
      </g>
     </g>
    </g>
    <g id="xtick_5">
     <g id="line2d_11">
      <g>
       <use style="stroke:#000000;stroke-width:0.5;" x="235.073929795" xlink:href="#m93b0483c22" y="244.518125"/>
      </g>
     </g>
     <g id="line2d_12">
      <g>
       <use style="stroke:#000000;stroke-width:0.5;" x="235.073929795" xlink:href="#m741efc42ff" y="21.318125"/>
      </g>
     </g>
     <g id="text_5">
      <!-- 200 -->
      <defs>
       <path d="
M19.1875 8.29688
L53.6094 8.29688
L53.6094 0
L7.32812 0
L7.32812 8.29688
Q12.9375 14.1094 22.625 23.8906
Q32.3281 33.6875 34.8125 36.5312
Q39.5469 41.8438 41.4219 45.5312
Q43.3125 49.2188 43.3125 52.7812
Q43.3125 58.5938 39.2344 62.25
Q35.1562 65.9219 28.6094 65.9219
Q23.9688 65.9219 18.8125 64.3125
Q13.6719 62.7031 7.8125 59.4219
L7.8125 69.3906
Q13.7656 71.7812 18.9375 73
Q24.125 74.2188 28.4219 74.2188
Q39.75 74.2188 46.4844 68.5469
Q53.2188 62.8906 53.2188 53.4219
Q53.2188 48.9219 51.5312 44.8906
Q49.8594 40.875 45.4062 35.4062
Q44.1875 33.9844 37.6406 27.2188
Q31.1094 20.4531 19.1875 8.29688" id="BitstreamVeraSans-Roman-32"/>
      </defs>
      <g transform="translate(226.228617295 256.1165625)scale(0.1 -0.1)">
       <use xlink:href="#BitstreamVeraSans-Roman-32"/>
       <use x="63.623046875" xlink:href="#BitstreamVeraSans-Roman-30"/>
       <use x="127.24609375" xlink:href="#BitstreamVeraSans-Roman-30"/>
      </g>
     </g>
    </g>
    <g id="xtick_6">
     <g id="line2d_13">
      <g>
       <use style="stroke:#000000;stroke-width:0.5;" x="280.936943493" xlink:href="#m93b0483c22" y="244.518125"/>
      </g>
     </g>
     <g id="line2d_14">
      <g>
       <use style="stroke:#000000;stroke-width:0.5;" x="280.936943493" xlink:href="#m741efc42ff" y="21.318125"/>
      </g>
     </g>
     <g id="text_6">
      <!-- 250 -->
      <g transform="translate(272.091630993 256.1165625)scale(0.1 -0.1)">
       <use xlink:href="#BitstreamVeraSans-Roman-32"/>
       <use x="63.623046875" xlink:href="#BitstreamVeraSans-Roman-35"/>
       <use x="127.24609375" xlink:href="#BitstreamVeraSans-Roman-30"/>
      </g>
     </g>
    </g>
    <g id="xtick_7">
     <g id="line2d_15">
      <g>
       <use style="stroke:#000000;stroke-width:0.5;" x="326.799957192" xlink:href="#m93b0483c22" y="244.518125"/>
      </g>
     </g>
     <g id="line2d_16">
      <g>
       <use style="stroke:#000000;stroke-width:0.5;" x="326.799957192" xlink:href="#m741efc42ff" y="21.318125"/>
      </g>
     </g>
     <g id="text_7">
      <!-- 300 -->
      <defs>
       <path d="
M40.5781 39.3125
Q47.6562 37.7969 51.625 33
Q55.6094 28.2188 55.6094 21.1875
Q55.6094 10.4062 48.1875 4.48438
Q40.7656 -1.42188 27.0938 -1.42188
Q22.5156 -1.42188 17.6562 -0.515625
Q12.7969 0.390625 7.625 2.20312
L7.625 11.7188
Q11.7188 9.32812 16.5938 8.10938
Q21.4844 6.89062 26.8125 6.89062
Q36.0781 6.89062 40.9375 10.5469
Q45.7969 14.2031 45.7969 21.1875
Q45.7969 27.6406 41.2812 31.2656
Q36.7656 34.9062 28.7188 34.9062
L20.2188 34.9062
L20.2188 43.0156
L29.1094 43.0156
Q36.375 43.0156 40.2344 45.9219
Q44.0938 48.8281 44.0938 54.2969
Q44.0938 59.9062 40.1094 62.9062
Q36.1406 65.9219 28.7188 65.9219
Q24.6562 65.9219 20.0156 65.0312
Q15.375 64.1562 9.8125 62.3125
L9.8125 71.0938
Q15.4375 72.6562 20.3438 73.4375
Q25.25 74.2188 29.5938 74.2188
Q40.8281 74.2188 47.3594 69.1094
Q53.9062 64.0156 53.9062 55.3281
Q53.9062 49.2656 50.4375 45.0938
Q46.9688 40.9219 40.5781 39.3125" id="BitstreamVeraSans-Roman-33"/>
      </defs>
      <g transform="translate(317.969488442 256.1165625)scale(0.1 -0.1)">
       <use xlink:href="#BitstreamVeraSans-Roman-33"/>
       <use x="63.623046875" xlink:href="#BitstreamVeraSans-Roman-30"/>
       <use x="127.24609375" xlink:href="#BitstreamVeraSans-Roman-30"/>
      </g>
     </g>
    </g>
    <g id="xtick_8">
     <g id="line2d_17">
      <g>
       <use style="stroke:#000000;stroke-width:0.5;" x="372.66297089" xlink:href="#m93b0483c22" y="244.518125"/>
      </g>
     </g>
     <g id="line2d_18">
      <g>
       <use style="stroke:#000000;stroke-width:0.5;" x="372.66297089" xlink:href="#m741efc42ff" y="21.318125"/>
      </g>
     </g>
     <g id="text_8">
      <!-- 350 -->
      <g transform="translate(363.83250214 256.1165625)scale(0.1 -0.1)">
       <use xlink:href="#BitstreamVeraSans-Roman-33"/>
       <use x="63.623046875" xlink:href="#BitstreamVeraSans-Roman-35"/>
       <use x="127.24609375" xlink:href="#BitstreamVeraSans-Roman-30"/>
      </g>
     </g>
    </g>
    <g id="text_9">
     <!-- Julian day -->
     <defs>
      <path id="BitstreamVeraSans-Roman-20"/>
      <path d="
M9.8125 72.9062
L19.6719 72.9062
L19.6719 5.07812
Q19.6719 -8.10938 14.6719 -14.0625
Q9.67188 -20.0156 -1.42188 -20.0156
L-5.17188 -20.0156
L-5.17188 -11.7188
L-2.09375 -11.7188
Q4.4375 -11.7188 7.125 -8.04688
Q9.8125 -4.39062 9.8125 5.07812
z
" id="BitstreamVeraSans-Roman-4a"/>
      <path d="
M54.8906 33.0156
L54.8906 0
L45.9062 0
L45.9062 32.7188
Q45.9062 40.4844 42.875 44.3281
Q39.8438 48.1875 33.7969 48.1875
Q26.5156 48.1875 22.3125 43.5469
Q18.1094 38.9219 18.1094 30.9062
L18.1094 0
L9.07812 0
L9.07812 54.6875
L18.1094 54.6875
L18.1094 46.1875
Q21.3438 51.125 25.7031 53.5625
Q30.0781 56 35.7969 56
Q45.2188 56 50.0469 50.1719
Q54.8906 44.3438 54.8906 33.0156" id="BitstreamVeraSans-Roman-6e"/>
      <path d="
M9.42188 75.9844
L18.4062 75.9844
L18.4062 0
L9.42188 0
z
" id="BitstreamVeraSans-Roman-6c"/>
      <path d="
M9.42188 54.6875
L18.4062 54.6875
L18.4062 0
L9.42188 0
z

M9.42188 75.9844
L18.4062 75.9844
L18.4062 64.5938
L9.42188 64.5938
z
" id="BitstreamVeraSans-Roman-69"/>
      <path d="
M32.1719 -5.07812
Q28.375 -14.8438 24.75 -17.8125
Q21.1406 -20.7969 15.0938 -20.7969
L7.90625 -20.7969
L7.90625 -13.2812
L13.1875 -13.2812
Q16.8906 -13.2812 18.9375 -11.5156
Q21 -9.76562 23.4844 -3.21875
L25.0938 0.875
L2.98438 54.6875
L12.5 54.6875
L29.5938 11.9219
L46.6875 54.6875
L56.2031 54.6875
z
" id="BitstreamVeraSans-Roman-79"/>
      <path d="
M45.4062 46.3906
L45.4062 75.9844
L54.3906 75.9844
L54.3906 0
L45.4062 0
L45.4062 8.20312
Q42.5781 3.32812 38.25 0.953125
Q33.9375 -1.42188 27.875 -1.42188
Q17.9688 -1.42188 11.7344 6.48438
Q5.51562 14.4062 5.51562 27.2969
Q5.51562 40.1875 11.7344 48.0938
Q17.9688 56 27.875 56
Q33.9375 56 38.25 53.625
Q42.5781 51.2656 45.4062 46.3906
M14.7969 27.2969
Q14.7969 17.3906 18.875 11.75
Q22.9531 6.10938 30.0781 6.10938
Q37.2031 6.10938 41.2969 11.75
Q45.4062 17.3906 45.4062 27.2969
Q45.4062 37.2031 41.2969 42.8438
Q37.2031 48.4844 30.0781 48.4844
Q22.9531 48.4844 18.875 42.8438
Q14.7969 37.2031 14.7969 27.2969" id="BitstreamVeraSans-Roman-64"/>
      <path d="
M8.5 21.5781
L8.5 54.6875
L17.4844 54.6875
L17.4844 21.9219
Q17.4844 14.1562 20.5 10.2656
Q23.5312 6.39062 29.5938 6.39062
Q36.8594 6.39062 41.0781 11.0312
Q45.3125 15.6719 45.3125 23.6875
L45.3125 54.6875
L54.2969 54.6875
L54.2969 0
L45.3125 0
L45.3125 8.40625
Q42.0469 3.42188 37.7188 1
Q33.4062 -1.42188 27.6875 -1.42188
Q18.2656 -1.42188 13.375 4.4375
Q8.5 10.2969 8.5 21.5781" id="BitstreamVeraSans-Roman-75"/>
      <path d="
M34.2812 27.4844
Q23.3906 27.4844 19.1875 25
Q14.9844 22.5156 14.9844 16.5
Q14.9844 11.7188 18.1406 8.90625
Q21.2969 6.10938 26.7031 6.10938
Q34.1875 6.10938 38.7031 11.4062
Q43.2188 16.7031 43.2188 25.4844
L43.2188 27.4844
z

M52.2031 31.2031
L52.2031 0
L43.2188 0
L43.2188 8.29688
Q40.1406 3.32812 35.5469 0.953125
Q30.9531 -1.42188 24.3125 -1.42188
Q15.9219 -1.42188 10.9531 3.29688
Q6 8.01562 6 15.9219
Q6 25.1406 12.1719 29.8281
Q18.3594 34.5156 30.6094 34.5156
L43.2188 34.5156
L43.2188 35.4062
Q43.2188 41.6094 39.1406 45
Q35.0625 48.3906 27.6875 48.3906
Q23 48.3906 18.5469 47.2656
Q14.1094 46.1406 10.0156 43.8906
L10.0156 52.2031
Q14.9375 54.1094 19.5781 55.0469
Q24.2188 56 28.6094 56
Q40.4844 56 46.3438 49.8438
Q52.2031 43.7031 52.2031 31.2031" id="BitstreamVeraSans-Roman-61"/>
     </defs>
     <g transform="translate(194.47109375 270.7946875)scale(0.1 -0.1)">
      <use xlink:href="#BitstreamVeraSans-Roman-4a"/>
      <use x="29.4921875" xlink:href="#BitstreamVeraSans-Roman-75"/>
      <use x="92.87109375" xlink:href="#BitstreamVeraSans-Roman-6c"/>
      <use x="120.654296875" xlink:href="#BitstreamVeraSans-Roman-69"/>
      <use x="148.4375" xlink:href="#BitstreamVeraSans-Roman-61"/>
      <use x="209.716796875" xlink:href="#BitstreamVeraSans-Roman-6e"/>
      <use x="273.095703125" xlink:href="#BitstreamVeraSans-Roman-20"/>
      <use x="304.8828125" xlink:href="#BitstreamVeraSans-Roman-64"/>
      <use x="368.359375" xlink:href="#BitstreamVeraSans-Roman-61"/>
      <use x="429.638671875" xlink:href="#BitstreamVeraSans-Roman-79"/>
     </g>
    </g>
   </g>
   <g id="matplotlib.axis_2">
    <g id="ytick_1">
     <g id="line2d_19">
      <defs>
       <path d="
M0 0
L4 0" id="m728421d6d4" style="stroke:#000000;stroke-width:0.5;"/>
      </defs>
      <g>
       <use style="stroke:#000000;stroke-width:0.5;" x="51.621875" xlink:href="#m728421d6d4" y="244.518125"/>
      </g>
     </g>
     <g id="line2d_20">
      <defs>
       <path d="
M0 0
L-4 0" id="mcb0005524f" style="stroke:#000000;stroke-width:0.5;"/>
      </defs>
      <g>
       <use style="stroke:#000000;stroke-width:0.5;" x="386.421875" xlink:href="#mcb0005524f" y="244.518125"/>
      </g>
     </g>
     <g id="text_10">
      <!-- −200 -->
      <defs>
       <path d="
M10.5938 35.5
L73.1875 35.5
L73.1875 27.2031
L10.5938 27.2031
z
" id="BitstreamVeraSans-Roman-2212"/>
      </defs>
      <g transform="translate(21.878125 247.2775)scale(0.1 -0.1)">
       <use xlink:href="#BitstreamVeraSans-Roman-2212"/>
       <use x="83.7890625" xlink:href="#BitstreamVeraSans-Roman-32"/>
       <use x="147.412109375" xlink:href="#BitstreamVeraSans-Roman-30"/>
       <use x="211.03515625" xlink:href="#BitstreamVeraSans-Roman-30"/>
      </g>
     </g>
    </g>
    <g id="ytick_2">
     <g id="line2d_21">
      <g>
       <use style="stroke:#000000;stroke-width:0.5;" x="51.621875" xlink:href="#m728421d6d4" y="219.718125"/>
      </g>
     </g>
     <g id="line2d_22">
      <g>
       <use style="stroke:#000000;stroke-width:0.5;" x="386.421875" xlink:href="#mcb0005524f" y="219.718125"/>
      </g>
     </g>
     <g id="text_11">
      <!-- −150 -->
      <g transform="translate(21.878125 222.4775)scale(0.1 -0.1)">
       <use xlink:href="#BitstreamVeraSans-Roman-2212"/>
       <use x="83.7890625" xlink:href="#BitstreamVeraSans-Roman-31"/>
       <use x="147.412109375" xlink:href="#BitstreamVeraSans-Roman-35"/>
       <use x="211.03515625" xlink:href="#BitstreamVeraSans-Roman-30"/>
      </g>
     </g>
    </g>
    <g id="ytick_3">
     <g id="line2d_23">
      <g>
       <use style="stroke:#000000;stroke-width:0.5;" x="51.621875" xlink:href="#m728421d6d4" y="194.918125"/>
      </g>
     </g>
     <g id="line2d_24">
      <g>
       <use style="stroke:#000000;stroke-width:0.5;" x="386.421875" xlink:href="#mcb0005524f" y="194.918125"/>
      </g>
     </g>
     <g id="text_12">
      <!-- −100 -->
      <g transform="translate(21.878125 197.6775)scale(0.1 -0.1)">
       <use xlink:href="#BitstreamVeraSans-Roman-2212"/>
       <use x="83.7890625" xlink:href="#BitstreamVeraSans-Roman-31"/>
       <use x="147.412109375" xlink:href="#BitstreamVeraSans-Roman-30"/>
       <use x="211.03515625" xlink:href="#BitstreamVeraSans-Roman-30"/>
      </g>
     </g>
    </g>
    <g id="ytick_4">
     <g id="line2d_25">
      <g>
       <use style="stroke:#000000;stroke-width:0.5;" x="51.621875" xlink:href="#m728421d6d4" y="170.118125"/>
      </g>
     </g>
     <g id="line2d_26">
      <g>
       <use style="stroke:#000000;stroke-width:0.5;" x="386.421875" xlink:href="#mcb0005524f" y="170.118125"/>
      </g>
     </g>
     <g id="text_13">
      <!-- −50 -->
      <g transform="translate(28.240625 172.8775)scale(0.1 -0.1)">
       <use xlink:href="#BitstreamVeraSans-Roman-2212"/>
       <use x="83.7890625" xlink:href="#BitstreamVeraSans-Roman-35"/>
       <use x="147.412109375" xlink:href="#BitstreamVeraSans-Roman-30"/>
      </g>
     </g>
    </g>
    <g id="ytick_5">
     <g id="line2d_27">
      <g>
       <use style="stroke:#000000;stroke-width:0.5;" x="51.621875" xlink:href="#m728421d6d4" y="145.318125"/>
      </g>
     </g>
     <g id="line2d_28">
      <g>
       <use style="stroke:#000000;stroke-width:0.5;" x="386.421875" xlink:href="#mcb0005524f" y="145.318125"/>
      </g>
     </g>
     <g id="text_14">
      <!-- 0 -->
      <g transform="translate(42.5828125 148.0775)scale(0.1 -0.1)">
       <use xlink:href="#BitstreamVeraSans-Roman-30"/>
      </g>
     </g>
    </g>
    <g id="ytick_6">
     <g id="line2d_29">
      <g>
       <use style="stroke:#000000;stroke-width:0.5;" x="51.621875" xlink:href="#m728421d6d4" y="120.518125"/>
      </g>
     </g>
     <g id="line2d_30">
      <g>
       <use style="stroke:#000000;stroke-width:0.5;" x="386.421875" xlink:href="#mcb0005524f" y="120.518125"/>
      </g>
     </g>
     <g id="text_15">
      <!-- 50 -->
      <g transform="translate(36.3328125 123.2775)scale(0.1 -0.1)">
       <use xlink:href="#BitstreamVeraSans-Roman-35"/>
       <use x="63.623046875" xlink:href="#BitstreamVeraSans-Roman-30"/>
      </g>
     </g>
    </g>
    <g id="ytick_7">
     <g id="line2d_31">
      <g>
       <use style="stroke:#000000;stroke-width:0.5;" x="51.621875" xlink:href="#m728421d6d4" y="95.718125"/>
      </g>
     </g>
     <g id="line2d_32">
      <g>
       <use style="stroke:#000000;stroke-width:0.5;" x="386.421875" xlink:href="#mcb0005524f" y="95.718125"/>
      </g>
     </g>
     <g id="text_16">
      <!-- 100 -->
      <g transform="translate(30.296875 98.4775)scale(0.1 -0.1)">
       <use xlink:href="#BitstreamVeraSans-Roman-31"/>
       <use x="63.623046875" xlink:href="#BitstreamVeraSans-Roman-30"/>
       <use x="127.24609375" xlink:href="#BitstreamVeraSans-Roman-30"/>
      </g>
     </g>
    </g>
    <g id="ytick_8">
     <g id="line2d_33">
      <g>
       <use style="stroke:#000000;stroke-width:0.5;" x="51.621875" xlink:href="#m728421d6d4" y="70.918125"/>
      </g>
     </g>
     <g id="line2d_34">
      <g>
       <use style="stroke:#000000;stroke-width:0.5;" x="386.421875" xlink:href="#mcb0005524f" y="70.918125"/>
      </g>
     </g>
     <g id="text_17">
      <!-- 150 -->
      <g transform="translate(30.296875 73.6775)scale(0.1 -0.1)">
       <use xlink:href="#BitstreamVeraSans-Roman-31"/>
       <use x="63.623046875" xlink:href="#BitstreamVeraSans-Roman-35"/>
       <use x="127.24609375" xlink:href="#BitstreamVeraSans-Roman-30"/>
      </g>
     </g>
    </g>
    <g id="ytick_9">
     <g id="line2d_35">
      <g>
       <use style="stroke:#000000;stroke-width:0.5;" x="51.621875" xlink:href="#m728421d6d4" y="46.118125"/>
      </g>
     </g>
     <g id="line2d_36">
      <g>
       <use style="stroke:#000000;stroke-width:0.5;" x="386.421875" xlink:href="#mcb0005524f" y="46.118125"/>
      </g>
     </g>
     <g id="text_18">
      <!-- 200 -->
      <g transform="translate(29.93125 48.8775)scale(0.1 -0.1)">
       <use xlink:href="#BitstreamVeraSans-Roman-32"/>
       <use x="63.623046875" xlink:href="#BitstreamVeraSans-Roman-30"/>
       <use x="127.24609375" xlink:href="#BitstreamVeraSans-Roman-30"/>
      </g>
     </g>
    </g>
    <g id="ytick_10">
     <g id="line2d_37">
      <g>
       <use style="stroke:#000000;stroke-width:0.5;" x="51.621875" xlink:href="#m728421d6d4" y="21.318125"/>
      </g>
     </g>
     <g id="line2d_38">
      <g>
       <use style="stroke:#000000;stroke-width:0.5;" x="386.421875" xlink:href="#mcb0005524f" y="21.318125"/>
      </g>
     </g>
     <g id="text_19">
      <!-- 250 -->
      <g transform="translate(29.93125 24.0775)scale(0.1 -0.1)">
       <use xlink:href="#BitstreamVeraSans-Roman-32"/>
       <use x="63.623046875" xlink:href="#BitstreamVeraSans-Roman-35"/>
       <use x="127.24609375" xlink:href="#BitstreamVeraSans-Roman-30"/>
      </g>
     </g>
    </g>
    <g id="text_20">
     <!-- PET (mm/day) -->
     <defs>
      <path d="
M52 44.1875
Q55.375 50.25 60.0625 53.125
Q64.75 56 71.0938 56
Q79.6406 56 84.2812 50.0156
Q88.9219 44.0469 88.9219 33.0156
L88.9219 0
L79.8906 0
L79.8906 32.7188
Q79.8906 40.5781 77.0938 44.375
Q74.3125 48.1875 68.6094 48.1875
Q61.625 48.1875 57.5625 43.5469
Q53.5156 38.9219 53.5156 30.9062
L53.5156 0
L44.4844 0
L44.4844 32.7188
Q44.4844 40.625 41.7031 44.4062
Q38.9219 48.1875 33.1094 48.1875
Q26.2188 48.1875 22.1562 43.5312
Q18.1094 38.875 18.1094 30.9062
L18.1094 0
L9.07812 0
L9.07812 54.6875
L18.1094 54.6875
L18.1094 46.1875
Q21.1875 51.2188 25.4844 53.6094
Q29.7812 56 35.6875 56
Q41.6562 56 45.8281 52.9688
Q50 49.9531 52 44.1875" id="BitstreamVeraSans-Roman-6d"/>
      <path d="
M8.01562 75.875
L15.8281 75.875
Q23.1406 64.3594 26.7812 53.3125
Q30.4219 42.2812 30.4219 31.3906
Q30.4219 20.4531 26.7812 9.375
Q23.1406 -1.70312 15.8281 -13.1875
L8.01562 -13.1875
Q14.5 -2 17.7031 9.0625
Q20.9062 20.125 20.9062 31.3906
Q20.9062 42.6719 17.7031 53.6562
Q14.5 64.6562 8.01562 75.875" id="BitstreamVeraSans-Roman-29"/>
      <path d="
M31 75.875
Q24.4688 64.6562 21.2812 53.6562
Q18.1094 42.6719 18.1094 31.3906
Q18.1094 20.125 21.3125 9.0625
Q24.5156 -2 31 -13.1875
L23.1875 -13.1875
Q15.875 -1.70312 12.2344 9.375
Q8.59375 20.4531 8.59375 31.3906
Q8.59375 42.2812 12.2031 53.3125
Q15.8281 64.3594 23.1875 75.875
z
" id="BitstreamVeraSans-Roman-28"/>
      <path d="
M19.6719 64.7969
L19.6719 37.4062
L32.0781 37.4062
Q38.9688 37.4062 42.7188 40.9688
Q46.4844 44.5312 46.4844 51.125
Q46.4844 57.6719 42.7188 61.2344
Q38.9688 64.7969 32.0781 64.7969
z

M9.8125 72.9062
L32.0781 72.9062
Q44.3438 72.9062 50.6094 67.3594
Q56.8906 61.8125 56.8906 51.125
Q56.8906 40.3281 50.6094 34.8125
Q44.3438 29.2969 32.0781 29.2969
L19.6719 29.2969
L19.6719 0
L9.8125 0
z
" id="BitstreamVeraSans-Roman-50"/>
      <path d="
M9.8125 72.9062
L55.9062 72.9062
L55.9062 64.5938
L19.6719 64.5938
L19.6719 43.0156
L54.3906 43.0156
L54.3906 34.7188
L19.6719 34.7188
L19.6719 8.29688
L56.7812 8.29688
L56.7812 0
L9.8125 0
z
" id="BitstreamVeraSans-Roman-45"/>
      <path d="
M-0.296875 72.9062
L61.375 72.9062
L61.375 64.5938
L35.5 64.5938
L35.5 0
L25.5938 0
L25.5938 64.5938
L-0.296875 64.5938
z
" id="BitstreamVeraSans-Roman-54"/>
      <path d="
M25.3906 72.9062
L33.6875 72.9062
L8.29688 -9.28125
L0 -9.28125
z
" id="BitstreamVeraSans-Roman-2f"/>
     </defs>
     <g transform="translate(14.7984375 167.82984375)rotate(-90.0)scale(0.1 -0.1)">
      <use xlink:href="#BitstreamVeraSans-Roman-50"/>
      <use x="60.302734375" xlink:href="#BitstreamVeraSans-Roman-45"/>
      <use x="123.486328125" xlink:href="#BitstreamVeraSans-Roman-54"/>
      <use x="184.5703125" xlink:href="#BitstreamVeraSans-Roman-20"/>
      <use x="216.357421875" xlink:href="#BitstreamVeraSans-Roman-28"/>
      <use x="255.37109375" xlink:href="#BitstreamVeraSans-Roman-6d"/>
      <use x="352.783203125" xlink:href="#BitstreamVeraSans-Roman-6d"/>
      <use x="450.1953125" xlink:href="#BitstreamVeraSans-Roman-2f"/>
      <use x="483.88671875" xlink:href="#BitstreamVeraSans-Roman-64"/>
      <use x="547.36328125" xlink:href="#BitstreamVeraSans-Roman-61"/>
      <use x="608.642578125" xlink:href="#BitstreamVeraSans-Roman-79"/>
      <use x="667.822265625" xlink:href="#BitstreamVeraSans-Roman-29"/>
     </g>
    </g>
   </g>
   <g id="text_21">
    <!-- daily PET at BRWtemp -->
    <defs>
     <path d="
M44.3906 34.1875
Q47.5625 33.1094 50.5625 29.5938
Q53.5625 26.0781 56.5938 19.9219
L66.6094 0
L56 0
L46.6875 18.7031
Q43.0625 26.0312 39.6719 28.4219
Q36.2812 30.8125 30.4219 30.8125
L19.6719 30.8125
L19.6719 0
L9.8125 0
L9.8125 72.9062
L32.0781 72.9062
Q44.5781 72.9062 50.7344 67.6719
Q56.8906 62.4531 56.8906 51.9062
Q56.8906 45.0156 53.6875 40.4688
Q50.4844 35.9375 44.3906 34.1875
M19.6719 64.7969
L19.6719 38.9219
L32.0781 38.9219
Q39.2031 38.9219 42.8438 42.2188
Q46.4844 45.5156 46.4844 51.9062
Q46.4844 58.2969 42.8438 61.5469
Q39.2031 64.7969 32.0781 64.7969
z
" id="BitstreamVeraSans-Roman-52"/>
     <path d="
M19.6719 34.8125
L19.6719 8.10938
L35.5 8.10938
Q43.4531 8.10938 47.2812 11.4062
Q51.125 14.7031 51.125 21.4844
Q51.125 28.3281 47.2812 31.5625
Q43.4531 34.8125 35.5 34.8125
z

M19.6719 64.7969
L19.6719 42.8281
L34.2812 42.8281
Q41.5 42.8281 45.0312 45.5312
Q48.5781 48.25 48.5781 53.8125
Q48.5781 59.3281 45.0312 62.0625
Q41.5 64.7969 34.2812 64.7969
z

M9.8125 72.9062
L35.0156 72.9062
Q46.2969 72.9062 52.3906 68.2188
Q58.5 63.5312 58.5 54.8906
Q58.5 48.1875 55.375 44.2344
Q52.25 40.2812 46.1875 39.3125
Q53.4688 37.75 57.5 32.7812
Q61.5312 27.8281 61.5312 20.4062
Q61.5312 10.6406 54.8906 5.3125
Q48.25 0 35.9844 0
L9.8125 0
z
" id="BitstreamVeraSans-Roman-42"/>
     <path d="
M3.32812 72.9062
L13.2812 72.9062
L28.6094 11.2812
L43.8906 72.9062
L54.9844 72.9062
L70.3125 11.2812
L85.5938 72.9062
L95.6094 72.9062
L77.2969 0
L64.8906 0
L49.5156 63.2812
L33.9844 0
L21.5781 0
z
" id="BitstreamVeraSans-Roman-57"/>
     <path d="
M56.2031 29.5938
L56.2031 25.2031
L14.8906 25.2031
Q15.4844 15.9219 20.4844 11.0625
Q25.4844 6.20312 34.4219 6.20312
Q39.5938 6.20312 44.4531 7.46875
Q49.3125 8.73438 54.1094 11.2812
L54.1094 2.78125
Q49.2656 0.734375 44.1875 -0.34375
Q39.1094 -1.42188 33.8906 -1.42188
Q20.7969 -1.42188 13.1562 6.1875
Q5.51562 13.8125 5.51562 26.8125
Q5.51562 40.2344 12.7656 48.1094
Q20.0156 56 32.3281 56
Q43.3594 56 49.7812 48.8906
Q56.2031 41.7969 56.2031 29.5938
M47.2188 32.2344
Q47.125 39.5938 43.0938 43.9844
Q39.0625 48.3906 32.4219 48.3906
Q24.9062 48.3906 20.3906 44.1406
Q15.875 39.8906 15.1875 32.1719
z
" id="BitstreamVeraSans-Roman-65"/>
     <path d="
M18.3125 70.2188
L18.3125 54.6875
L36.8125 54.6875
L36.8125 47.7031
L18.3125 47.7031
L18.3125 18.0156
Q18.3125 11.3281 20.1406 9.42188
Q21.9688 7.51562 27.5938 7.51562
L36.8125 7.51562
L36.8125 0
L27.5938 0
Q17.1875 0 13.2344 3.875
Q9.28125 7.76562 9.28125 18.0156
L9.28125 47.7031
L2.6875 47.7031
L2.6875 54.6875
L9.28125 54.6875
L9.28125 70.2188
z
" id="BitstreamVeraSans-Roman-74"/>
     <path d="
M18.1094 8.20312
L18.1094 -20.7969
L9.07812 -20.7969
L9.07812 54.6875
L18.1094 54.6875
L18.1094 46.3906
Q20.9531 51.2656 25.2656 53.625
Q29.5938 56 35.5938 56
Q45.5625 56 51.7812 48.0938
Q58.0156 40.1875 58.0156 27.2969
Q58.0156 14.4062 51.7812 6.48438
Q45.5625 -1.42188 35.5938 -1.42188
Q29.5938 -1.42188 25.2656 0.953125
Q20.9531 3.32812 18.1094 8.20312
M48.6875 27.2969
Q48.6875 37.2031 44.6094 42.8438
Q40.5312 48.4844 33.4062 48.4844
Q26.2656 48.4844 22.1875 42.8438
Q18.1094 37.2031 18.1094 27.2969
Q18.1094 17.3906 22.1875 11.75
Q26.2656 6.10938 33.4062 6.10938
Q40.5312 6.10938 44.6094 11.75
Q48.6875 17.3906 48.6875 27.2969" id="BitstreamVeraSans-Roman-70"/>
    </defs>
    <g transform="translate(152.48 16.318125)scale(0.12 -0.12)">
     <use xlink:href="#BitstreamVeraSans-Roman-64"/>
     <use x="63.4765625" xlink:href="#BitstreamVeraSans-Roman-61"/>
     <use x="124.755859375" xlink:href="#BitstreamVeraSans-Roman-69"/>
     <use x="152.5390625" xlink:href="#BitstreamVeraSans-Roman-6c"/>
     <use x="180.322265625" xlink:href="#BitstreamVeraSans-Roman-79"/>
     <use x="239.501953125" xlink:href="#BitstreamVeraSans-Roman-20"/>
     <use x="271.2890625" xlink:href="#BitstreamVeraSans-Roman-50"/>
     <use x="331.591796875" xlink:href="#BitstreamVeraSans-Roman-45"/>
     <use x="394.775390625" xlink:href="#BitstreamVeraSans-Roman-54"/>
     <use x="455.859375" xlink:href="#BitstreamVeraSans-Roman-20"/>
     <use x="487.646484375" xlink:href="#BitstreamVeraSans-Roman-61"/>
     <use x="548.92578125" xlink:href="#BitstreamVeraSans-Roman-74"/>
     <use x="588.134765625" xlink:href="#BitstreamVeraSans-Roman-20"/>
     <use x="619.921875" xlink:href="#BitstreamVeraSans-Roman-42"/>
     <use x="688.525390625" xlink:href="#BitstreamVeraSans-Roman-52"/>
     <use x="754.0078125" xlink:href="#BitstreamVeraSans-Roman-57"/>
     <use x="852.884765625" xlink:href="#BitstreamVeraSans-Roman-74"/>
     <use x="892.09375" xlink:href="#BitstreamVeraSans-Roman-65"/>
     <use x="953.6171875" xlink:href="#BitstreamVeraSans-Roman-6d"/>
     <use x="1051.02929688" xlink:href="#BitstreamVeraSans-Roman-70"/>
    </g>
   </g>
   <g id="legend_1">
    <g id="patch_7">
     <path d="
M308.234 66.1456
L380.422 66.1456
L380.422 27.3181
L308.234 27.3181
z
" style="fill:#ffffff;stroke:#000000;stroke-linejoin:miter;"/>
    </g>
    <g id="line2d_39">
     <path d="
M316.634 37.0363
L333.434 37.0363" style="fill:none;stroke:#0000ff;stroke-linecap:square;"/>
    </g>
    <g id="line2d_40"/>
    <g id="text_22">
     <!-- 2013 -->
     <g transform="translate(346.634375 41.23625)scale(0.12 -0.12)">
      <use xlink:href="#BitstreamVeraSans-Roman-32"/>
      <use x="63.623046875" xlink:href="#BitstreamVeraSans-Roman-30"/>
      <use x="127.24609375" xlink:href="#BitstreamVeraSans-Roman-31"/>
      <use x="190.869140625" xlink:href="#BitstreamVeraSans-Roman-33"/>
     </g>
    </g>
    <g id="line2d_41">
     <path d="
M316.634 54.65
L333.434 54.65" style="fill:none;stroke:#008000;stroke-linecap:square;"/>
    </g>
    <g id="line2d_42"/>
    <g id="text_23">
     <!-- 2014 -->
     <defs>
      <path d="
M37.7969 64.3125
L12.8906 25.3906
L37.7969 25.3906
z

M35.2031 72.9062
L47.6094 72.9062
L47.6094 25.3906
L58.0156 25.3906
L58.0156 17.1875
L47.6094 17.1875
L47.6094 0
L37.7969 0
L37.7969 17.1875
L4.89062 17.1875
L4.89062 26.7031
z
" id="BitstreamVeraSans-Roman-34"/>
     </defs>
     <g transform="translate(346.634375 58.85)scale(0.12 -0.12)">
      <use xlink:href="#BitstreamVeraSans-Roman-32"/>
      <use x="63.623046875" xlink:href="#BitstreamVeraSans-Roman-30"/>
      <use x="127.24609375" xlink:href="#BitstreamVeraSans-Roman-31"/>
      <use x="190.869140625" xlink:href="#BitstreamVeraSans-Roman-34"/>
     </g>
    </g>
   </g>
  </g>
 </g>
 <defs>
  <clipPath id="p867fb51612">
   <rect height="223.2" width="334.8" x="51.621875" y="21.318125"/>
  </clipPath>
 </defs>
</svg>
