<?xml version="1.0" encoding="utf-8" standalone="no"?>
<!DOCTYPE svg PUBLIC "-//W3C//DTD SVG 1.1//EN"
  "http://www.w3.org/Graphics/SVG/1.1/DTD/svg11.dtd">
<!-- Created with matplotlib (http://matplotlib.org/) -->
<svg height="280pt" version="1.1" viewBox="0 0 382 280" width="382pt" xmlns="http://www.w3.org/2000/svg" xmlns:xlink="http://www.w3.org/1999/xlink">
 <defs>
  <style type="text/css">
*{stroke-linecap:butt;stroke-linejoin:round;}
  </style>
 </defs>
 <g id="figure_1">
  <g id="patch_1">
   <path d="
M0 280.074
L382.628 280.074
L382.628 0
L0 0
z
" style="fill:#ffffff;"/>
  </g>
  <g id="axes_1">
   <g id="patch_2">
    <path d="
M40.6281 244.518
L375.428 244.518
L375.428 21.3181
L40.6281 21.3181
z
" style="fill:#ffffff;"/>
   </g>
   <g id="line2d_1">
    <path clip-path="url(#p2d16512a00)" d="
M0 0" style="fill:none;stroke:#0000ff;stroke-linecap:square;"/>
   </g>
   <g id="line2d_2">
    <path clip-path="url(#p2d16512a00)" d="
M40.6281 187.329
L41.5454 173.123
L42.4626 165.29
L43.3799 146.646
L44.2972 189.109
L45.2144 200.816
L46.1317 202.15
L47.0489 213.991
L47.9662 197.02
L48.8835 208.997
L49.8007 178.477
L50.718 113.66
L51.6352 97.5138
L52.5525 117.61
L53.4698 192.931
L54.387 208.055
L55.3043 157.934
L56.2215 186.453
L57.1388 234.235
L58.0561 233.523
L58.9733 231.797
L59.8906 210.441
M64.4769 238.953
L66.3114 140.096
L67.2287 221.049
L68.1459 200.562
L69.0632 203.002
L69.9805 226.57
L70.8977 211.324
L71.815 192.63
L72.7322 186.045
L73.6495 176.884
L74.5668 164.036
L76.4013 226.563
L77.3185 217.691
L78.2358 214.668
L79.1531 192.51
L80.0703 187.184
L80.9876 218.509
L81.9048 199.705
L82.8221 186.668
L83.7394 193.632
L84.6566 230.265
L85.5739 203.57
L86.4911 192.636
L87.4084 232.264
L88.3257 219.53
L90.1602 161.134
L91.0774 191.406
L91.9947 209.071
L92.912 207.858
L93.8292 184.389
L94.7465 194.328
L95.6637 211.998
L96.581 205.457
L97.4983 236.46
L98.4155 213.052
L99.3328 163.771
L100.25 210.322
L101.167 144.864
L102.085 144.133
L103.002 147.777
L103.919 133.652
L104.836 178.839
L105.754 187.475
L106.671 190.847
L107.588 230.887
L108.505 224.438
L109.423 223.667
L111.257 241.246
L112.174 220.3
L113.092 229.665
L114.009 209.756
L114.926 156.105
L115.843 194.003
L116.761 149.31
L118.595 226.402
L119.513 180.631
L120.43 211.297
L121.347 201.826
L122.264 220.292
L123.182 168.418
L124.099 165.827
L125.016 179.168
L125.933 148.358
L126.851 191.826
L127.768 197.132
L128.685 198.334
L129.602 145.017
L130.52 102.02
L131.437 125.009
L132.354 112.648
L133.271 178.705
L134.189 153.385
L135.106 188.535
L136.023 150.776
L136.94 146.698
L137.858 188.325
L138.775 152.807
L139.692 188.193
L140.609 208.565
L141.527 149.423
L142.444 127.605
L143.361 118.502
L144.279 141.647
L145.196 140.214
L146.113 165.388
L147.03 224.55
L147.948 182.238
L148.865 162.591
L149.782 129.813
L150.699 198.007
L151.617 145.52
L152.534 140.524
L153.451 186.87
L154.368 213.544
L155.286 199.79
L156.203 130.012
L157.12 106.029
L158.037 97.7525
L158.955 113.501
L159.872 79.2902
L160.789 52.8459
L161.706 55.7671
L162.624 67.3255
L163.541 89.8661
L164.458 126.855
L165.376 87.7053
L166.293 124.654
L167.21 72.7436
L168.127 53.0699
L169.045 77.4237
L169.962 157.391
L170.879 133.641
L171.796 146.055
L172.714 115.809
L173.631 172.8
L174.548 195.131
L175.465 136.017
L176.383 115.899
L177.3 72.5931
L178.217 68.5761
L179.134 109.368
L180.052 84.1647
L180.969 118.211
L181.886 108.798
L182.803 127.617
L183.721 181.273
L184.638 77.8881
L185.555 100.534
L186.473 119.113
L187.39 171.075
L188.307 102.016
L189.224 59.1528
L190.142 121.321
L191.976 55.2285
L192.893 68.7669
L193.811 90.6966
L194.728 97.2094
L195.645 86.9017
L196.562 99.0915
L197.48 72.7431
L198.397 80.4333
L199.314 93.4293
L200.231 91.3969
L201.149 84.9691
L202.066 77.5506
L202.983 120.416
L203.9 71.8376
L204.818 81.7717
L205.735 97.4395
L206.652 95.2292
L207.569 124.154
L208.487 103.607
L210.321 76.0827
L211.239 102.899
L212.156 112.999
L213.073 108.612
L213.99 145.422
L214.908 130.241
L215.825 112.267
L216.742 120.403
L217.659 117.399
L218.577 160.527
L219.494 165.983
L220.411 138.446
L221.328 148.865
L222.246 109.098
L223.163 97.5632
L224.08 112.827
L224.997 104.206
L225.915 102.894
L226.832 113.917
L227.749 112.613
L228.666 100.282
L229.584 117.564
L230.501 114.875
L231.418 122.46
L232.336 116.631
L233.253 116.845
L234.17 112.282
L235.087 112.483
L236.005 107.91
L236.922 101.77
L237.839 110.412
L238.756 110.158
L239.674 120.805
L240.591 116.568
L241.508 123.688
L242.425 135.673
L243.343 128.661
L244.26 144.671
L245.177 113.356
L246.094 125.702
L247.012 126.116
L247.929 120.91
L248.846 117.689
L249.763 125.827
L250.681 122.837
L251.598 121.079
L252.515 148.099
L253.433 135.75
L254.35 140.938
L255.267 128.325
L256.184 119.371
L257.102 90.8734
L258.019 103.543
L258.936 136.444
L259.853 139.036
L260.771 125.463
L261.688 123.558
L262.605 113.949
L263.522 136.71
M267.191 112.632
L268.109 123.549
L269.026 148.392
L269.943 118.257
L271.778 133.539
L272.695 118.601
L273.612 113.868
L274.529 95.3829
L275.447 114.204
L276.364 125.774
L277.281 117.616
L278.199 123.205
L279.116 115.833
L280.033 119.962
L280.95 125.433
L281.868 137.029
L282.785 140.603
L283.702 133.227
L284.619 188.293
L285.537 148.045
L286.454 166.617
L287.371 148.052
L288.288 135.088
L289.206 139.809
L290.123 137.271
L291.04 137.969
L291.957 116.777
M294.709 180.399
L295.626 89.748
L296.544 87.9872
L297.461 98.0946
L298.378 97.1945
L299.296 116.824
L300.213 124.212
L301.13 126.349
L302.047 123.181
L302.965 163.624
L303.882 142.556
L304.799 180.866
L305.716 165.555
L306.634 122.753
L307.551 108.399
L309.385 188.044
L310.303 138.767
L311.22 222.504
L312.137 235.07
L313.054 243.16
L313.972 232.278
L314.889 233.932
L315.806 210.207
L316.723 207.326
L317.641 175.474
L319.475 142.073
L320.393 181.641
L321.31 179.943
L322.227 180.115
L323.144 177.991
L324.062 204.241
L324.979 178.258
L325.896 189.206
L326.813 207.443
L327.731 222.986
L328.648 216.226
L329.565 237.96
L330.482 216.255
L331.4 231.303
L332.317 235.274
L333.234 212.938
L334.151 201.213
L335.069 225.201
L335.986 221.171
L336.903 234.428
L337.82 212.93
L338.738 213.485
L339.655 195.703
L340.572 148.04
L341.489 191.147
L342.407 208.827
L343.324 195.414
L344.241 204.14
L345.159 206.818
L346.076 214.071
L346.993 216.819
L347.91 220.959
L348.828 221.201
L349.745 220.062
L350.662 214.94
L351.579 238.105
L352.497 232.872
L353.414 205.511
L354.331 216.779
L355.248 197.237
L356.166 222.124
L357.083 221.352
L358 222.522
L358.917 214.754
L359.835 223.424
L360.752 214.76
L361.669 224.278
L362.586 225.723
L363.504 221.534
L364.421 213.363
L365.338 174.081
L366.256 129.15
L367.173 186.844
L368.09 216.716
L369.007 215.261
L369.925 212.596
L370.842 221.396
L371.759 224.723
L372.676 236.222
L373.594 215.44
L374.511 216.531
L374.511 216.531" style="fill:none;stroke:#008000;stroke-linecap:square;"/>
   </g>
   <g id="line2d_3">
    <path clip-path="url(#p2d16512a00)" d="
M40.6281 209.595
L41.5454 176.226
L42.4626 152.255
L43.3799 185.87
L44.2972 224.347
L45.2144 196.348
L46.1317 232.144
L47.0489 232.884
L47.9662 220.905
L48.8835 223.124
L49.8007 199.096
L50.718 165.687
L51.6352 199.181
L52.5525 197.556
L53.4698 204.298
L54.387 181.187
L55.3043 147.386
L56.2215 147.361
L57.1388 152.99
L58.0561 144.642
L58.9733 156.642
L59.8906 155.294
L60.8079 135.602
L62.6424 238.974
L63.5596 230.664
L64.4769 209.568
L65.3942 216.024
L66.3114 220.985
L68.1459 236.717
L69.0632 231.573
M70.8977 232.715
L71.815 198.749
L72.7322 211.486
L73.6495 216.236
L74.5668 210.04
L75.484 193.286
L76.4013 221.288
L77.3185 184.967
L78.2358 180.423
L79.1531 230.046
L80.0703 230.537
L80.9876 218.011
L81.9048 200.084
L82.8221 201.304
L83.7394 215.724
L84.6566 176.831
L85.5739 187.878
L86.4911 193.558
L87.4084 173.264
L88.3257 220.469
L89.2429 219.465
L90.1602 218.732
L91.0774 229.307
L91.9947 188.823
L92.912 175.756
L94.7465 213.148
L95.6637 216.741
L96.581 194.118
L97.4983 143.806
L98.4155 160.519
L99.3328 196.826
L100.25 192.796
L101.167 170.431
L102.085 158.351
L103.002 129.648
L103.919 208.685
L104.836 209.268
L105.754 160.176
L106.671 148.878
L107.588 164.674
L108.505 193.235
L109.423 178.48
L110.34 175.81
L111.257 110.951
L112.174 174.094
L113.092 194.324
L114.009 208.429
L114.926 189.086
L116.761 135.065
L117.678 192.087
L118.595 200.661
L119.513 161.679
L120.43 174.129
L121.347 153.149
L122.264 143.594
L123.182 177.656
L124.099 156.351
L125.016 150.451
L125.933 180.153
L126.851 194.28
L127.768 198.763
L128.685 238.155
L129.602 208.114
L130.52 161.707
L131.437 182.522
L132.354 178.185
L133.271 121.627
L134.189 176.658
L135.106 193.579
L136.023 202.719
L136.94 174.732
L137.858 123.087
L138.775 121.237
L139.692 207.084
L140.609 213.009
L141.527 183.247
L142.444 160.69
L143.361 148.729
L144.279 105.347
L145.196 94.3162
L146.113 120.145
L147.03 123.323
L147.948 100.616
L148.865 149.286
L149.782 126.313
L150.699 70.6232
L151.617 57.7098
L152.534 73.5317
L153.451 109.838
L154.368 97.813
L155.286 130.467
L157.12 150.979
L158.037 117.876
L158.955 111.847
L159.872 99.594
L160.789 106.25
L161.706 111.36
L162.624 91.6631
L163.541 100.973
L164.458 147.137
L165.376 172.342
L166.293 104.201
L167.21 156.251
L168.127 79.1302
L169.045 117.85
L169.962 80.6444
L170.879 27.0592
L171.796 47.7078
L172.714 58.9093
L173.631 130.432
L174.548 137.05
L175.465 189.576
L176.383 154.927
L177.3 136.765
L178.217 78.0291
L179.134 74.6668
L180.052 74.4897
L180.969 71.8079
L181.886 95.3402
L182.803 83.0495
L183.721 104.537
L184.638 96.9935
L185.555 96.9418
L186.473 97.3932
L187.39 108.956
L188.307 109.704
L189.224 85.9219
L190.142 120.242
L191.059 106.161
L191.976 70.8079
L192.893 99.9675
L193.811 92.8816
L194.728 98.8701
L195.645 180.367
L196.562 125.861
L197.48 127.319
L198.397 118.281
L199.314 105.686
L200.231 168.821
L201.149 202.971
L202.066 129.546
L202.983 110.594
L203.9 105.664
L204.818 128.424
L205.735 127.75
L206.652 124.163
L207.569 129.753
L208.487 144.142
L209.404 116.071
L210.321 116.067
L211.239 100.077
L212.156 111.777
L213.073 116.176
L213.99 98.9196
L214.908 111.535
L215.825 141.037
L216.742 106.566
L217.659 87.9721
L219.494 108.962
L220.411 140.965
L221.328 114.052
L222.246 104.571
L223.163 109.047
L224.997 104.269
L225.915 99.8493
L226.832 112.669
L227.749 133.697
L228.666 118.678
L229.584 129.939
L230.501 115.584
L231.418 108.927
L232.336 108.672
L233.253 111.489
L234.17 128.053
L235.087 119.179
L236.005 114.636
L236.922 98.0174
L237.839 106.428
L238.756 112.91
L239.674 114.792
L240.591 118.887
L241.508 120.461
L242.425 120.924
L243.343 117.57
L244.26 135.087
L245.177 133.611
L246.094 122.318
L247.012 119.036
L247.929 127.15
L248.846 123.663
L249.763 134.467
L250.681 130.232
L251.598 133.468
L252.515 128.708
L253.433 135.309
L254.35 156.785
L255.267 139.389
L256.184 147.067
L258.019 125.503
L258.936 138.883
L259.853 150
L260.771 144.158
L261.688 130.027
L262.605 129.362
L263.522 135.932
L265.357 199.417
L266.274 170.637
L267.191 187.825
L269.026 132.656
L269.943 136.062
L270.86 138.358
L271.778 146.653
L272.695 147.308
L273.612 187.525
L274.529 173.802
L275.447 162.294
L276.364 156.648
L277.281 146.801
L278.199 185.2
L279.116 188.251
L280.033 137.092
L280.95 125.781
L281.868 166.915
L282.785 198.046
L283.702 163.683
L284.619 200.523
L285.537 216.893
L287.371 143.753
L288.288 154.415
L289.206 201.524
L290.123 178.076
L291.04 178.344
L291.957 147.68
L292.875 198.669
L293.792 124.346
L294.709 101.399
L295.626 107.486
L296.544 135.644
L297.461 184.615
L298.378 150.601
L299.296 172.322
L300.213 150.17
L301.13 144.475
L302.047 164.094
L302.965 144.192
L303.882 152.209
L304.799 130.82
L305.716 130.736
L306.634 122.098
L307.551 126.505
L308.468 139.542
L309.385 144.434
L310.303 135.489
L311.22 144.217
L312.137 146.501
L313.054 138.965
L313.972 144.295
L314.889 153.051
L315.806 192.336
L316.723 206.944
L317.641 214.64
L318.558 197.037
L319.475 212.234
L320.393 219.674
L321.31 220.063
L322.227 190.264
L323.144 200.892
L324.062 219.707
L324.979 201.836
L325.896 198.556
L326.813 144.183
L327.731 158.342
L328.648 158.377
L329.565 158.238
L330.482 190.164
L331.4 195.311
L332.317 206.083
L333.234 229.338
L334.151 228.901
L335.069 196.822
L335.986 212.139
L336.903 223.246
L337.82 136.843
L338.738 154.999
L339.655 163.109
L340.572 135.624
L341.489 152.066
L342.407 163.145
L343.324 171.733
L344.241 172.324
L346.076 214.316
L346.993 220.783
L347.91 211.945
L348.828 200.098
L349.745 174.827
L350.662 185.66
L351.579 193.159
L352.497 220.35
L353.414 214.306
L354.331 218.184
L355.248 160.607
L356.166 219.964
L357.083 204.248
L358 190.912
L358.917 216.731
L359.835 176.99
L360.752 163.208
L361.669 138.411
L362.586 201.76
L363.504 213.116
L364.421 189.989
L365.338 219.856
L366.256 230.322
L367.173 233.747
L368.09 222.262
L369.007 186.903
L369.925 139.627
L370.842 143.49
L371.759 198.772
L372.676 177.512
L373.594 201.987
L374.511 201.059
L374.511 201.059" style="fill:none;stroke:#ff0000;stroke-linecap:square;"/>
   </g>
   <g id="line2d_4">
    <path clip-path="url(#p2d16512a00)" d="
M40.6281 198.012
L41.5454 176.025
L42.4626 210.199
L43.3799 199.19
L44.2972 140.364
L45.2144 123.461
L46.1317 168.223
L47.0489 229.685
L47.9662 225.721
L48.8835 231.024
L49.8007 238.879
L50.718 225.823
L51.6352 224.074
L53.4698 192.782
L54.387 147.394
L55.3043 142.373
L56.2215 146.166
L57.1388 142.359
L58.0561 168.924
L58.9733 162.432
L59.8906 171.524
L60.8079 190.216
L62.6424 117.319
L63.5596 145.154
L64.4769 155.502
L65.3942 157.555
L66.3114 218.905
L67.2287 234.503
L68.1459 207.6
L69.0632 222.028
L69.9805 209.57
L70.8977 218.548
L71.815 204.858
L72.7322 206.285
L73.6495 216.141
L74.5668 218.325
L75.484 232.756
L76.4013 240.527
L77.3185 244.31
L78.2358 239.292
L79.1531 235.798
L80.0703 214.186
L80.9876 198.712
L81.9048 201.193
L82.8221 206.087
L83.7394 152.229
L84.6566 196.4
L85.5739 197.764
L86.4911 221.716
L87.4084 207.479
L88.3257 210.377
L89.2429 196.757
L90.1602 195.985
L91.0774 199.719
L91.9947 210.933
L92.912 212.589
L93.8292 224.821
L94.7465 232.626
L95.6637 238.217
M97.4983 213.251
L98.4155 221.699
L99.3328 207.315
L100.25 201.149
L101.167 177.521
L102.085 188.825
L103.002 212.873
L103.919 183.089
L104.836 148.16
L105.754 136.506
L106.671 198.628
L108.505 138.076
L109.423 185.956
L110.34 208.544
L111.257 151.862
L112.174 174.081
L113.092 137.882
L114.009 111.557
L114.926 131.204
L115.843 139.866
L116.761 186.098
L117.678 196.673
L118.595 227.976
L119.513 234.102
L120.43 242.822
L122.264 237.115
M124.099 235.404
L125.016 190.27
L125.933 210.263
L126.851 213.476
L127.768 207.925
L128.685 165.892
L129.602 149.827
L130.52 166.76
L131.437 140.363
L132.354 136.615
L133.271 150.005
L134.189 148.447
L135.106 100.721
L136.023 128.747
L136.94 110.566
L137.858 171.213
L138.775 140.483
L139.692 125.389
L140.609 150.584
L141.527 112.896
L142.444 206.415
L143.361 226.55
L144.279 200.973
L145.196 233.898
L146.113 199.803
L147.03 200.241
L147.948 182.53
L148.865 124.324
L149.782 125.507
L150.699 119.66
L151.617 122.553
L152.534 129.357
L153.451 138.336
L154.368 167.506
L155.286 133.774
L156.203 115.441
L157.12 157.386
L158.037 154.755
L158.955 180.303
L159.872 112.565
L160.789 101.685
L161.706 85.5494
L162.624 109.904
L163.541 108.492
L164.458 114.339
L165.376 92.2125
L166.293 134.276
L167.21 110.233
L168.127 146.722
L169.045 159.209
L169.962 88.4586
L170.879 112.046
L171.796 141.174
L172.714 128.813
L173.631 109.658
L174.548 102.898
L175.465 107.111
L176.383 78.6915
L177.3 76.1454
L178.217 76.406
L179.134 93.6233
L180.052 92.0136
L180.969 89.3733
L182.803 74.4671
L183.721 71.0268
L184.638 92.1045
L185.555 82.3453
L186.473 91.4752
L187.39 86.1085
L188.307 75.5596
L189.224 100.043
L190.142 138.304
L191.059 126.004
L191.976 121.671
L192.893 136.572
L193.811 140.063
L194.728 165.944
L195.645 84.3191
L196.562 89.9054
L197.48 88.813
L198.397 78.5315
L199.314 92.3889
L200.231 109.935
L201.149 162.28
L202.066 148.005
L202.983 157.72
L203.9 121.315
L204.818 90.4588
L205.735 88.1057
L206.652 97.4416
L207.569 124.334
L208.487 119.49
L209.404 120.87
L210.321 111.838
L211.239 106.871
L212.156 107.862
L213.073 122.737
L213.99 144.373
L214.908 118.537
L215.825 122.006
L216.742 102.695
L217.659 125.095
L218.577 118.943
L219.494 120.296
L220.411 126.815
L221.328 131.685
L222.246 98.9815
L223.163 111.319
L224.08 133.892
L224.997 162.856
L225.915 140.401
L226.832 122.103
L228.666 93.8229
L229.584 98.619
L230.501 115.642
L231.418 136.243
L232.336 136.7
L233.253 138.549
L235.087 123.869
L236.005 131.517
L236.922 136.533
L237.839 143.298
L238.756 165.678
L239.674 167.329
L240.591 130.96
L241.508 135.491
L242.425 135.038
L243.343 139.343
L244.26 135.272
L245.177 152.283
L246.094 183.938
L247.012 153.979
L247.929 129.462
L248.846 127.253
L249.763 120.289
L250.681 121.744
L251.598 137.123
L252.515 144.84
L253.433 138.956
L254.35 141.367
L255.267 138.018
L256.184 147.469
L257.102 159.55
L258.019 166.075
L258.936 126.009
L259.853 134.007
L260.771 131.41
L261.688 159.798
L263.522 125.043
L264.44 123.284
L265.357 141.118
L266.274 111.309
L267.191 111.324
L268.109 116.701
L269.026 119.953
L269.943 125.211
L270.86 121.993
L271.778 130.215
L273.612 99.2881
L274.529 119.876
L275.447 124.867
L276.364 133.902
L277.281 144.77
L278.199 144.864
L279.116 154.956
L280.033 159.788
L280.95 148.556
L281.868 188.177
L282.785 191.417
L283.702 178.733
L284.619 148.542
L285.537 145.187
L286.454 128.194
L287.371 192.688
L288.288 195.018
L289.206 216.118
L290.123 182.579
L291.04 169.51
L291.957 131.219
L292.875 117.516
L293.792 130.226
L294.709 135.288
L295.626 146.321
L296.544 140.977
L297.461 137.771
L298.378 136.686
L299.296 144.096
L300.213 164.575
L301.13 160.95
L302.047 129.731
L302.965 139.469
L303.882 201.529
L304.799 174.197
L305.716 126.781
L306.634 138.058
L307.551 147.371
L308.468 135.968
L309.385 221.171
L310.303 174.786
L311.22 208.327
L312.137 171.82
L313.054 167.33
L313.972 208.383
L315.806 140.907
L316.723 166.564
L317.641 156.096
L318.558 159.049
L320.393 243.864
M322.227 238.941
L323.144 224.298
L324.062 188.911
L324.979 187.335
L325.896 161.368
L326.813 207.627
L327.731 211.117
L328.648 205.149
L329.565 148.988
L330.482 176.703
L331.4 230.299
L332.317 218.743
L333.234 223.345
L334.151 113.988
L335.069 132.965
L335.986 139.1
L337.82 232.032
L338.738 238.015
L340.572 227.916
L341.489 240.747
L342.407 205.374
L343.324 179.447
L344.241 163.032
L345.159 223.791
L346.076 185.314
L346.993 203.807
M348.828 243.177
L349.745 234.912
L350.662 213.653
L351.579 222.091
L352.497 189.99
L353.414 207.526
L354.331 205.271
L355.248 191.083
L356.166 164.141
L357.083 212.643
L358 234.802
L358.917 210.806
L359.835 198.26
L360.752 236.222
L361.669 232.801
L362.586 244.083
M365.338 243.589
L366.256 238.097
L367.173 236.402
M370.842 241.256
L371.759 229.286
L372.676 223.38
L373.594 227.37
L374.511 211.667
L374.511 211.667" style="fill:none;stroke:#00bfbf;stroke-linecap:square;"/>
   </g>
   <g id="patch_3">
    <path d="
M40.6281 244.518
L40.6281 21.3181" style="fill:none;stroke:#000000;stroke-linecap:square;stroke-linejoin:miter;"/>
   </g>
   <g id="patch_4">
    <path d="
M40.6281 244.518
L375.428 244.518" style="fill:none;stroke:#000000;stroke-linecap:square;stroke-linejoin:miter;"/>
   </g>
   <g id="patch_5">
    <path d="
M40.6281 21.3181
L375.428 21.3181" style="fill:none;stroke:#000000;stroke-linecap:square;stroke-linejoin:miter;"/>
   </g>
   <g id="patch_6">
    <path d="
M375.428 244.518
L375.428 21.3181" style="fill:none;stroke:#000000;stroke-linecap:square;stroke-linejoin:miter;"/>
   </g>
   <g id="matplotlib.axis_1">
    <g id="xtick_1">
     <g id="line2d_5">
      <defs>
       <path d="
M0 0
L0 -4" id="mc7db9fdffb" style="stroke:#000000;stroke-width:0.5;"/>
      </defs>
      <g>
       <use style="stroke:#000000;stroke-width:0.5;" x="40.628125" xlink:href="#mc7db9fdffb" y="244.518125"/>
      </g>
     </g>
     <g id="line2d_6">
      <defs>
       <path d="
M0 0
L0 4" id="m5a7d422ac3" style="stroke:#000000;stroke-width:0.5;"/>
      </defs>
      <g>
       <use style="stroke:#000000;stroke-width:0.5;" x="40.628125" xlink:href="#m5a7d422ac3" y="21.318125"/>
      </g>
     </g>
     <g id="text_1">
      <!-- 0 -->
      <defs>
       <path d="
M31.7812 66.4062
Q24.1719 66.4062 20.3281 58.9062
Q16.5 51.4219 16.5 36.375
Q16.5 21.3906 20.3281 13.8906
Q24.1719 6.39062 31.7812 6.39062
Q39.4531 6.39062 43.2812 13.8906
Q47.125 21.3906 47.125 36.375
Q47.125 51.4219 43.2812 58.9062
Q39.4531 66.4062 31.7812 66.4062
M31.7812 74.2188
Q44.0469 74.2188 50.5156 64.5156
Q56.9844 54.8281 56.9844 36.375
Q56.9844 17.9688 50.5156 8.26562
Q44.0469 -1.42188 31.7812 -1.42188
Q19.5312 -1.42188 13.0625 8.26562
Q6.59375 17.9688 6.59375 36.375
Q6.59375 54.8281 13.0625 64.5156
Q19.5312 74.2188 31.7812 74.2188" id="BitstreamVeraSans-Roman-30"/>
      </defs>
      <g transform="translate(38.10859375 256.1165625)scale(0.1 -0.1)">
       <use xlink:href="#BitstreamVeraSans-Roman-30"/>
      </g>
     </g>
    </g>
    <g id="xtick_2">
     <g id="line2d_7">
      <g>
       <use style="stroke:#000000;stroke-width:0.5;" x="86.4911386986" xlink:href="#mc7db9fdffb" y="244.518125"/>
      </g>
     </g>
     <g id="line2d_8">
      <g>
       <use style="stroke:#000000;stroke-width:0.5;" x="86.4911386986" xlink:href="#m5a7d422ac3" y="21.318125"/>
      </g>
     </g>
     <g id="text_2">
      <!-- 50 -->
      <defs>
       <path d="
M10.7969 72.9062
L49.5156 72.9062
L49.5156 64.5938
L19.8281 64.5938
L19.8281 46.7344
Q21.9688 47.4688 24.1094 47.8281
Q26.2656 48.1875 28.4219 48.1875
Q40.625 48.1875 47.75 41.5
Q54.8906 34.8125 54.8906 23.3906
Q54.8906 11.625 47.5625 5.09375
Q40.2344 -1.42188 26.9062 -1.42188
Q22.3125 -1.42188 17.5469 -0.640625
Q12.7969 0.140625 7.71875 1.70312
L7.71875 11.625
Q12.1094 9.23438 16.7969 8.0625
Q21.4844 6.89062 26.7031 6.89062
Q35.1562 6.89062 40.0781 11.3281
Q45.0156 15.7656 45.0156 23.3906
Q45.0156 31 40.0781 35.4375
Q35.1562 39.8906 26.7031 39.8906
Q22.75 39.8906 18.8125 39.0156
Q14.8906 38.1406 10.7969 36.2812
z
" id="BitstreamVeraSans-Roman-35"/>
      </defs>
      <g transform="translate(80.8466074486 256.1165625)scale(0.1 -0.1)">
       <use xlink:href="#BitstreamVeraSans-Roman-35"/>
       <use x="63.623046875" xlink:href="#BitstreamVeraSans-Roman-30"/>
      </g>
     </g>
    </g>
    <g id="xtick_3">
     <g id="line2d_9">
      <g>
       <use style="stroke:#000000;stroke-width:0.5;" x="132.354152397" xlink:href="#mc7db9fdffb" y="244.518125"/>
      </g>
     </g>
     <g id="line2d_10">
      <g>
       <use style="stroke:#000000;stroke-width:0.5;" x="132.354152397" xlink:href="#m5a7d422ac3" y="21.318125"/>
      </g>
     </g>
     <g id="text_3">
      <!-- 100 -->
      <defs>
       <path d="
M12.4062 8.29688
L28.5156 8.29688
L28.5156 63.9219
L10.9844 60.4062
L10.9844 69.3906
L28.4219 72.9062
L38.2812 72.9062
L38.2812 8.29688
L54.3906 8.29688
L54.3906 0
L12.4062 0
z
" id="BitstreamVeraSans-Roman-31"/>
      </defs>
      <g transform="translate(123.691652397 256.1165625)scale(0.1 -0.1)">
       <use xlink:href="#BitstreamVeraSans-Roman-31"/>
       <use x="63.623046875" xlink:href="#BitstreamVeraSans-Roman-30"/>
       <use x="127.24609375" xlink:href="#BitstreamVeraSans-Roman-30"/>
      </g>
     </g>
    </g>
    <g id="xtick_4">
     <g id="line2d_11">
      <g>
       <use style="stroke:#000000;stroke-width:0.5;" x="178.217166096" xlink:href="#mc7db9fdffb" y="244.518125"/>
      </g>
     </g>
     <g id="line2d_12">
      <g>
       <use style="stroke:#000000;stroke-width:0.5;" x="178.217166096" xlink:href="#m5a7d422ac3" y="21.318125"/>
      </g>
     </g>
     <g id="text_4">
      <!-- 150 -->
      <g transform="translate(169.554666096 256.1165625)scale(0.1 -0.1)">
       <use xlink:href="#BitstreamVeraSans-Roman-31"/>
       <use x="63.623046875" xlink:href="#BitstreamVeraSans-Roman-35"/>
       <use x="127.24609375" xlink:href="#BitstreamVeraSans-Roman-30"/>
      </g>
     </g>
    </g>
    <g id="xtick_5">
     <g id="line2d_13">
      <g>
       <use style="stroke:#000000;stroke-width:0.5;" x="224.080179795" xlink:href="#mc7db9fdffb" y="244.518125"/>
      </g>
     </g>
     <g id="line2d_14">
      <g>
       <use style="stroke:#000000;stroke-width:0.5;" x="224.080179795" xlink:href="#m5a7d422ac3" y="21.318125"/>
      </g>
     </g>
     <g id="text_5">
      <!-- 200 -->
      <defs>
       <path d="
M19.1875 8.29688
L53.6094 8.29688
L53.6094 0
L7.32812 0
L7.32812 8.29688
Q12.9375 14.1094 22.625 23.8906
Q32.3281 33.6875 34.8125 36.5312
Q39.5469 41.8438 41.4219 45.5312
Q43.3125 49.2188 43.3125 52.7812
Q43.3125 58.5938 39.2344 62.25
Q35.1562 65.9219 28.6094 65.9219
Q23.9688 65.9219 18.8125 64.3125
Q13.6719 62.7031 7.8125 59.4219
L7.8125 69.3906
Q13.7656 71.7812 18.9375 73
Q24.125 74.2188 28.4219 74.2188
Q39.75 74.2188 46.4844 68.5469
Q53.2188 62.8906 53.2188 53.4219
Q53.2188 48.9219 51.5312 44.8906
Q49.8594 40.875 45.4062 35.4062
Q44.1875 33.9844 37.6406 27.2188
Q31.1094 20.4531 19.1875 8.29688" id="BitstreamVeraSans-Roman-32"/>
      </defs>
      <g transform="translate(215.234867295 256.1165625)scale(0.1 -0.1)">
       <use xlink:href="#BitstreamVeraSans-Roman-32"/>
       <use x="63.623046875" xlink:href="#BitstreamVeraSans-Roman-30"/>
       <use x="127.24609375" xlink:href="#BitstreamVeraSans-Roman-30"/>
      </g>
     </g>
    </g>
    <g id="xtick_6">
     <g id="line2d_15">
      <g>
       <use style="stroke:#000000;stroke-width:0.5;" x="269.943193493" xlink:href="#mc7db9fdffb" y="244.518125"/>
      </g>
     </g>
     <g id="line2d_16">
      <g>
       <use style="stroke:#000000;stroke-width:0.5;" x="269.943193493" xlink:href="#m5a7d422ac3" y="21.318125"/>
      </g>
     </g>
     <g id="text_6">
      <!-- 250 -->
      <g transform="translate(261.097880993 256.1165625)scale(0.1 -0.1)">
       <use xlink:href="#BitstreamVeraSans-Roman-32"/>
       <use x="63.623046875" xlink:href="#BitstreamVeraSans-Roman-35"/>
       <use x="127.24609375" xlink:href="#BitstreamVeraSans-Roman-30"/>
      </g>
     </g>
    </g>
    <g id="xtick_7">
     <g id="line2d_17">
      <g>
       <use style="stroke:#000000;stroke-width:0.5;" x="315.806207192" xlink:href="#mc7db9fdffb" y="244.518125"/>
      </g>
     </g>
     <g id="line2d_18">
      <g>
       <use style="stroke:#000000;stroke-width:0.5;" x="315.806207192" xlink:href="#m5a7d422ac3" y="21.318125"/>
      </g>
     </g>
     <g id="text_7">
      <!-- 300 -->
      <defs>
       <path d="
M40.5781 39.3125
Q47.6562 37.7969 51.625 33
Q55.6094 28.2188 55.6094 21.1875
Q55.6094 10.4062 48.1875 4.48438
Q40.7656 -1.42188 27.0938 -1.42188
Q22.5156 -1.42188 17.6562 -0.515625
Q12.7969 0.390625 7.625 2.20312
L7.625 11.7188
Q11.7188 9.32812 16.5938 8.10938
Q21.4844 6.89062 26.8125 6.89062
Q36.0781 6.89062 40.9375 10.5469
Q45.7969 14.2031 45.7969 21.1875
Q45.7969 27.6406 41.2812 31.2656
Q36.7656 34.9062 28.7188 34.9062
L20.2188 34.9062
L20.2188 43.0156
L29.1094 43.0156
Q36.375 43.0156 40.2344 45.9219
Q44.0938 48.8281 44.0938 54.2969
Q44.0938 59.9062 40.1094 62.9062
Q36.1406 65.9219 28.7188 65.9219
Q24.6562 65.9219 20.0156 65.0312
Q15.375 64.1562 9.8125 62.3125
L9.8125 71.0938
Q15.4375 72.6562 20.3438 73.4375
Q25.25 74.2188 29.5938 74.2188
Q40.8281 74.2188 47.3594 69.1094
Q53.9062 64.0156 53.9062 55.3281
Q53.9062 49.2656 50.4375 45.0938
Q46.9688 40.9219 40.5781 39.3125" id="BitstreamVeraSans-Roman-33"/>
      </defs>
      <g transform="translate(306.975738442 256.1165625)scale(0.1 -0.1)">
       <use xlink:href="#BitstreamVeraSans-Roman-33"/>
       <use x="63.623046875" xlink:href="#BitstreamVeraSans-Roman-30"/>
       <use x="127.24609375" xlink:href="#BitstreamVeraSans-Roman-30"/>
      </g>
     </g>
    </g>
    <g id="xtick_8">
     <g id="line2d_19">
      <g>
       <use style="stroke:#000000;stroke-width:0.5;" x="361.66922089" xlink:href="#mc7db9fdffb" y="244.518125"/>
      </g>
     </g>
     <g id="line2d_20">
      <g>
       <use style="stroke:#000000;stroke-width:0.5;" x="361.66922089" xlink:href="#m5a7d422ac3" y="21.318125"/>
      </g>
     </g>
     <g id="text_8">
      <!-- 350 -->
      <g transform="translate(352.83875214 256.1165625)scale(0.1 -0.1)">
       <use xlink:href="#BitstreamVeraSans-Roman-33"/>
       <use x="63.623046875" xlink:href="#BitstreamVeraSans-Roman-35"/>
       <use x="127.24609375" xlink:href="#BitstreamVeraSans-Roman-30"/>
      </g>
     </g>
    </g>
    <g id="text_9">
     <!-- Julian day -->
     <defs>
      <path d="
M45.4062 46.3906
L45.4062 75.9844
L54.3906 75.9844
L54.3906 0
L45.4062 0
L45.4062 8.20312
Q42.5781 3.32812 38.25 0.953125
Q33.9375 -1.42188 27.875 -1.42188
Q17.9688 -1.42188 11.7344 6.48438
Q5.51562 14.4062 5.51562 27.2969
Q5.51562 40.1875 11.7344 48.0938
Q17.9688 56 27.875 56
Q33.9375 56 38.25 53.625
Q42.5781 51.2656 45.4062 46.3906
M14.7969 27.2969
Q14.7969 17.3906 18.875 11.75
Q22.9531 6.10938 30.0781 6.10938
Q37.2031 6.10938 41.2969 11.75
Q45.4062 17.3906 45.4062 27.2969
Q45.4062 37.2031 41.2969 42.8438
Q37.2031 48.4844 30.0781 48.4844
Q22.9531 48.4844 18.875 42.8438
Q14.7969 37.2031 14.7969 27.2969" id="BitstreamVeraSans-Roman-64"/>
      <path d="
M8.5 21.5781
L8.5 54.6875
L17.4844 54.6875
L17.4844 21.9219
Q17.4844 14.1562 20.5 10.2656
Q23.5312 6.39062 29.5938 6.39062
Q36.8594 6.39062 41.0781 11.0312
Q45.3125 15.6719 45.3125 23.6875
L45.3125 54.6875
L54.2969 54.6875
L54.2969 0
L45.3125 0
L45.3125 8.40625
Q42.0469 3.42188 37.7188 1
Q33.4062 -1.42188 27.6875 -1.42188
Q18.2656 -1.42188 13.375 4.4375
Q8.5 10.2969 8.5 21.5781" id="BitstreamVeraSans-Roman-75"/>
      <path d="
M54.8906 33.0156
L54.8906 0
L45.9062 0
L45.9062 32.7188
Q45.9062 40.4844 42.875 44.3281
Q39.8438 48.1875 33.7969 48.1875
Q26.5156 48.1875 22.3125 43.5469
Q18.1094 38.9219 18.1094 30.9062
L18.1094 0
L9.07812 0
L9.07812 54.6875
L18.1094 54.6875
L18.1094 46.1875
Q21.3438 51.125 25.7031 53.5625
Q30.0781 56 35.7969 56
Q45.2188 56 50.0469 50.1719
Q54.8906 44.3438 54.8906 33.0156" id="BitstreamVeraSans-Roman-6e"/>
      <path d="
M32.1719 -5.07812
Q28.375 -14.8438 24.75 -17.8125
Q21.1406 -20.7969 15.0938 -20.7969
L7.90625 -20.7969
L7.90625 -13.2812
L13.1875 -13.2812
Q16.8906 -13.2812 18.9375 -11.5156
Q21 -9.76562 23.4844 -3.21875
L25.0938 0.875
L2.98438 54.6875
L12.5 54.6875
L29.5938 11.9219
L46.6875 54.6875
L56.2031 54.6875
z
" id="BitstreamVeraSans-Roman-79"/>
      <path d="
M9.8125 72.9062
L19.6719 72.9062
L19.6719 5.07812
Q19.6719 -8.10938 14.6719 -14.0625
Q9.67188 -20.0156 -1.42188 -20.0156
L-5.17188 -20.0156
L-5.17188 -11.7188
L-2.09375 -11.7188
Q4.4375 -11.7188 7.125 -8.04688
Q9.8125 -4.39062 9.8125 5.07812
z
" id="BitstreamVeraSans-Roman-4a"/>
      <path d="
M9.42188 54.6875
L18.4062 54.6875
L18.4062 0
L9.42188 0
z

M9.42188 75.9844
L18.4062 75.9844
L18.4062 64.5938
L9.42188 64.5938
z
" id="BitstreamVeraSans-Roman-69"/>
      <path d="
M9.42188 75.9844
L18.4062 75.9844
L18.4062 0
L9.42188 0
z
" id="BitstreamVeraSans-Roman-6c"/>
      <path id="BitstreamVeraSans-Roman-20"/>
      <path d="
M34.2812 27.4844
Q23.3906 27.4844 19.1875 25
Q14.9844 22.5156 14.9844 16.5
Q14.9844 11.7188 18.1406 8.90625
Q21.2969 6.10938 26.7031 6.10938
Q34.1875 6.10938 38.7031 11.4062
Q43.2188 16.7031 43.2188 25.4844
L43.2188 27.4844
z

M52.2031 31.2031
L52.2031 0
L43.2188 0
L43.2188 8.29688
Q40.1406 3.32812 35.5469 0.953125
Q30.9531 -1.42188 24.3125 -1.42188
Q15.9219 -1.42188 10.9531 3.29688
Q6 8.01562 6 15.9219
Q6 25.1406 12.1719 29.8281
Q18.3594 34.5156 30.6094 34.5156
L43.2188 34.5156
L43.2188 35.4062
Q43.2188 41.6094 39.1406 45
Q35.0625 48.3906 27.6875 48.3906
Q23 48.3906 18.5469 47.2656
Q14.1094 46.1406 10.0156 43.8906
L10.0156 52.2031
Q14.9375 54.1094 19.5781 55.0469
Q24.2188 56 28.6094 56
Q40.4844 56 46.3438 49.8438
Q52.2031 43.7031 52.2031 31.2031" id="BitstreamVeraSans-Roman-61"/>
     </defs>
     <g transform="translate(183.47734375 270.7946875)scale(0.1 -0.1)">
      <use xlink:href="#BitstreamVeraSans-Roman-4a"/>
      <use x="29.4921875" xlink:href="#BitstreamVeraSans-Roman-75"/>
      <use x="92.87109375" xlink:href="#BitstreamVeraSans-Roman-6c"/>
      <use x="120.654296875" xlink:href="#BitstreamVeraSans-Roman-69"/>
      <use x="148.4375" xlink:href="#BitstreamVeraSans-Roman-61"/>
      <use x="209.716796875" xlink:href="#BitstreamVeraSans-Roman-6e"/>
      <use x="273.095703125" xlink:href="#BitstreamVeraSans-Roman-20"/>
      <use x="304.8828125" xlink:href="#BitstreamVeraSans-Roman-64"/>
      <use x="368.359375" xlink:href="#BitstreamVeraSans-Roman-61"/>
      <use x="429.638671875" xlink:href="#BitstreamVeraSans-Roman-79"/>
     </g>
    </g>
   </g>
   <g id="matplotlib.axis_2">
    <g id="ytick_1">
     <g id="line2d_21">
      <defs>
       <path d="
M0 0
L4 0" id="md7965d1ba0" style="stroke:#000000;stroke-width:0.5;"/>
      </defs>
      <g>
       <use style="stroke:#000000;stroke-width:0.5;" x="40.628125" xlink:href="#md7965d1ba0" y="244.518125"/>
      </g>
     </g>
     <g id="line2d_22">
      <defs>
       <path d="
M0 0
L-4 0" id="md9a1c1a7cd" style="stroke:#000000;stroke-width:0.5;"/>
      </defs>
      <g>
       <use style="stroke:#000000;stroke-width:0.5;" x="375.428125" xlink:href="#md9a1c1a7cd" y="244.518125"/>
      </g>
     </g>
     <g id="text_10">
      <!-- 0.0 -->
      <defs>
       <path d="
M10.6875 12.4062
L21 12.4062
L21 0
L10.6875 0
z
" id="BitstreamVeraSans-Roman-2e"/>
      </defs>
      <g transform="translate(22.0484375 247.2775)scale(0.1 -0.1)">
       <use xlink:href="#BitstreamVeraSans-Roman-30"/>
       <use x="63.623046875" xlink:href="#BitstreamVeraSans-Roman-2e"/>
       <use x="95.41015625" xlink:href="#BitstreamVeraSans-Roman-30"/>
      </g>
     </g>
    </g>
    <g id="ytick_2">
     <g id="line2d_23">
      <g>
       <use style="stroke:#000000;stroke-width:0.5;" x="40.628125" xlink:href="#md7965d1ba0" y="219.718125"/>
      </g>
     </g>
     <g id="line2d_24">
      <g>
       <use style="stroke:#000000;stroke-width:0.5;" x="375.428125" xlink:href="#md9a1c1a7cd" y="219.718125"/>
      </g>
     </g>
     <g id="text_11">
      <!-- 0.5 -->
      <g transform="translate(22.2578125 222.4775)scale(0.1 -0.1)">
       <use xlink:href="#BitstreamVeraSans-Roman-30"/>
       <use x="63.623046875" xlink:href="#BitstreamVeraSans-Roman-2e"/>
       <use x="95.41015625" xlink:href="#BitstreamVeraSans-Roman-35"/>
      </g>
     </g>
    </g>
    <g id="ytick_3">
     <g id="line2d_25">
      <g>
       <use style="stroke:#000000;stroke-width:0.5;" x="40.628125" xlink:href="#md7965d1ba0" y="194.918125"/>
      </g>
     </g>
     <g id="line2d_26">
      <g>
       <use style="stroke:#000000;stroke-width:0.5;" x="375.428125" xlink:href="#md9a1c1a7cd" y="194.918125"/>
      </g>
     </g>
     <g id="text_12">
      <!-- 1.0 -->
      <g transform="translate(22.4875 197.6775)scale(0.1 -0.1)">
       <use xlink:href="#BitstreamVeraSans-Roman-31"/>
       <use x="63.623046875" xlink:href="#BitstreamVeraSans-Roman-2e"/>
       <use x="95.41015625" xlink:href="#BitstreamVeraSans-Roman-30"/>
      </g>
     </g>
    </g>
    <g id="ytick_4">
     <g id="line2d_27">
      <g>
       <use style="stroke:#000000;stroke-width:0.5;" x="40.628125" xlink:href="#md7965d1ba0" y="170.118125"/>
      </g>
     </g>
     <g id="line2d_28">
      <g>
       <use style="stroke:#000000;stroke-width:0.5;" x="375.428125" xlink:href="#md9a1c1a7cd" y="170.118125"/>
      </g>
     </g>
     <g id="text_13">
      <!-- 1.5 -->
      <g transform="translate(22.696875 172.8775)scale(0.1 -0.1)">
       <use xlink:href="#BitstreamVeraSans-Roman-31"/>
       <use x="63.623046875" xlink:href="#BitstreamVeraSans-Roman-2e"/>
       <use x="95.41015625" xlink:href="#BitstreamVeraSans-Roman-35"/>
      </g>
     </g>
    </g>
    <g id="ytick_5">
     <g id="line2d_29">
      <g>
       <use style="stroke:#000000;stroke-width:0.5;" x="40.628125" xlink:href="#md7965d1ba0" y="145.318125"/>
      </g>
     </g>
     <g id="line2d_30">
      <g>
       <use style="stroke:#000000;stroke-width:0.5;" x="375.428125" xlink:href="#md9a1c1a7cd" y="145.318125"/>
      </g>
     </g>
     <g id="text_14">
      <!-- 2.0 -->
      <g transform="translate(22.121875 148.0775)scale(0.1 -0.1)">
       <use xlink:href="#BitstreamVeraSans-Roman-32"/>
       <use x="63.623046875" xlink:href="#BitstreamVeraSans-Roman-2e"/>
       <use x="95.41015625" xlink:href="#BitstreamVeraSans-Roman-30"/>
      </g>
     </g>
    </g>
    <g id="ytick_6">
     <g id="line2d_31">
      <g>
       <use style="stroke:#000000;stroke-width:0.5;" x="40.628125" xlink:href="#md7965d1ba0" y="120.518125"/>
      </g>
     </g>
     <g id="line2d_32">
      <g>
       <use style="stroke:#000000;stroke-width:0.5;" x="375.428125" xlink:href="#md9a1c1a7cd" y="120.518125"/>
      </g>
     </g>
     <g id="text_15">
      <!-- 2.5 -->
      <g transform="translate(22.33125 123.2775)scale(0.1 -0.1)">
       <use xlink:href="#BitstreamVeraSans-Roman-32"/>
       <use x="63.623046875" xlink:href="#BitstreamVeraSans-Roman-2e"/>
       <use x="95.41015625" xlink:href="#BitstreamVeraSans-Roman-35"/>
      </g>
     </g>
    </g>
    <g id="ytick_7">
     <g id="line2d_33">
      <g>
       <use style="stroke:#000000;stroke-width:0.5;" x="40.628125" xlink:href="#md7965d1ba0" y="95.718125"/>
      </g>
     </g>
     <g id="line2d_34">
      <g>
       <use style="stroke:#000000;stroke-width:0.5;" x="375.428125" xlink:href="#md9a1c1a7cd" y="95.718125"/>
      </g>
     </g>
     <g id="text_16">
      <!-- 3.0 -->
      <g transform="translate(22.1515625 98.4775)scale(0.1 -0.1)">
       <use xlink:href="#BitstreamVeraSans-Roman-33"/>
       <use x="63.623046875" xlink:href="#BitstreamVeraSans-Roman-2e"/>
       <use x="95.41015625" xlink:href="#BitstreamVeraSans-Roman-30"/>
      </g>
     </g>
    </g>
    <g id="ytick_8">
     <g id="line2d_35">
      <g>
       <use style="stroke:#000000;stroke-width:0.5;" x="40.628125" xlink:href="#md7965d1ba0" y="70.918125"/>
      </g>
     </g>
     <g id="line2d_36">
      <g>
       <use style="stroke:#000000;stroke-width:0.5;" x="375.428125" xlink:href="#md9a1c1a7cd" y="70.918125"/>
      </g>
     </g>
     <g id="text_17">
      <!-- 3.5 -->
      <g transform="translate(22.3609375 73.6775)scale(0.1 -0.1)">
       <use xlink:href="#BitstreamVeraSans-Roman-33"/>
       <use x="63.623046875" xlink:href="#BitstreamVeraSans-Roman-2e"/>
       <use x="95.41015625" xlink:href="#BitstreamVeraSans-Roman-35"/>
      </g>
     </g>
    </g>
    <g id="ytick_9">
     <g id="line2d_37">
      <g>
       <use style="stroke:#000000;stroke-width:0.5;" x="40.628125" xlink:href="#md7965d1ba0" y="46.118125"/>
      </g>
     </g>
     <g id="line2d_38">
      <g>
       <use style="stroke:#000000;stroke-width:0.5;" x="375.428125" xlink:href="#md9a1c1a7cd" y="46.118125"/>
      </g>
     </g>
     <g id="text_18">
      <!-- 4.0 -->
      <defs>
       <path d="
M37.7969 64.3125
L12.8906 25.3906
L37.7969 25.3906
z

M35.2031 72.9062
L47.6094 72.9062
L47.6094 25.3906
L58.0156 25.3906
L58.0156 17.1875
L47.6094 17.1875
L47.6094 0
L37.7969 0
L37.7969 17.1875
L4.89062 17.1875
L4.89062 26.7031
z
" id="BitstreamVeraSans-Roman-34"/>
      </defs>
      <g transform="translate(21.878125 48.8775)scale(0.1 -0.1)">
       <use xlink:href="#BitstreamVeraSans-Roman-34"/>
       <use x="63.623046875" xlink:href="#BitstreamVeraSans-Roman-2e"/>
       <use x="95.41015625" xlink:href="#BitstreamVeraSans-Roman-30"/>
      </g>
     </g>
    </g>
    <g id="ytick_10">
     <g id="line2d_39">
      <g>
       <use style="stroke:#000000;stroke-width:0.5;" x="40.628125" xlink:href="#md7965d1ba0" y="21.318125"/>
      </g>
     </g>
     <g id="line2d_40">
      <g>
       <use style="stroke:#000000;stroke-width:0.5;" x="375.428125" xlink:href="#md9a1c1a7cd" y="21.318125"/>
      </g>
     </g>
     <g id="text_19">
      <!-- 4.5 -->
      <g transform="translate(22.0875 24.0775)scale(0.1 -0.1)">
       <use xlink:href="#BitstreamVeraSans-Roman-34"/>
       <use x="63.623046875" xlink:href="#BitstreamVeraSans-Roman-2e"/>
       <use x="95.41015625" xlink:href="#BitstreamVeraSans-Roman-35"/>
      </g>
     </g>
    </g>
    <g id="text_20">
     <!-- PET (mm/day) -->
     <defs>
      <path d="
M19.6719 64.7969
L19.6719 37.4062
L32.0781 37.4062
Q38.9688 37.4062 42.7188 40.9688
Q46.4844 44.5312 46.4844 51.125
Q46.4844 57.6719 42.7188 61.2344
Q38.9688 64.7969 32.0781 64.7969
z

M9.8125 72.9062
L32.0781 72.9062
Q44.3438 72.9062 50.6094 67.3594
Q56.8906 61.8125 56.8906 51.125
Q56.8906 40.3281 50.6094 34.8125
Q44.3438 29.2969 32.0781 29.2969
L19.6719 29.2969
L19.6719 0
L9.8125 0
z
" id="BitstreamVeraSans-Roman-50"/>
      <path d="
M25.3906 72.9062
L33.6875 72.9062
L8.29688 -9.28125
L0 -9.28125
z
" id="BitstreamVeraSans-Roman-2f"/>
      <path d="
M52 44.1875
Q55.375 50.25 60.0625 53.125
Q64.75 56 71.0938 56
Q79.6406 56 84.2812 50.0156
Q88.9219 44.0469 88.9219 33.0156
L88.9219 0
L79.8906 0
L79.8906 32.7188
Q79.8906 40.5781 77.0938 44.375
Q74.3125 48.1875 68.6094 48.1875
Q61.625 48.1875 57.5625 43.5469
Q53.5156 38.9219 53.5156 30.9062
L53.5156 0
L44.4844 0
L44.4844 32.7188
Q44.4844 40.625 41.7031 44.4062
Q38.9219 48.1875 33.1094 48.1875
Q26.2188 48.1875 22.1562 43.5312
Q18.1094 38.875 18.1094 30.9062
L18.1094 0
L9.07812 0
L9.07812 54.6875
L18.1094 54.6875
L18.1094 46.1875
Q21.1875 51.2188 25.4844 53.6094
Q29.7812 56 35.6875 56
Q41.6562 56 45.8281 52.9688
Q50 49.9531 52 44.1875" id="BitstreamVeraSans-Roman-6d"/>
      <path d="
M9.8125 72.9062
L55.9062 72.9062
L55.9062 64.5938
L19.6719 64.5938
L19.6719 43.0156
L54.3906 43.0156
L54.3906 34.7188
L19.6719 34.7188
L19.6719 8.29688
L56.7812 8.29688
L56.7812 0
L9.8125 0
z
" id="BitstreamVeraSans-Roman-45"/>
      <path d="
M8.01562 75.875
L15.8281 75.875
Q23.1406 64.3594 26.7812 53.3125
Q30.4219 42.2812 30.4219 31.3906
Q30.4219 20.4531 26.7812 9.375
Q23.1406 -1.70312 15.8281 -13.1875
L8.01562 -13.1875
Q14.5 -2 17.7031 9.0625
Q20.9062 20.125 20.9062 31.3906
Q20.9062 42.6719 17.7031 53.6562
Q14.5 64.6562 8.01562 75.875" id="BitstreamVeraSans-Roman-29"/>
      <path d="
M31 75.875
Q24.4688 64.6562 21.2812 53.6562
Q18.1094 42.6719 18.1094 31.3906
Q18.1094 20.125 21.3125 9.0625
Q24.5156 -2 31 -13.1875
L23.1875 -13.1875
Q15.875 -1.70312 12.2344 9.375
Q8.59375 20.4531 8.59375 31.3906
Q8.59375 42.2812 12.2031 53.3125
Q15.8281 64.3594 23.1875 75.875
z
" id="BitstreamVeraSans-Roman-28"/>
      <path d="
M-0.296875 72.9062
L61.375 72.9062
L61.375 64.5938
L35.5 64.5938
L35.5 0
L25.5938 0
L25.5938 64.5938
L-0.296875 64.5938
z
" id="BitstreamVeraSans-Roman-54"/>
     </defs>
     <g transform="translate(14.7984375 167.82984375)rotate(-90.0)scale(0.1 -0.1)">
      <use xlink:href="#BitstreamVeraSans-Roman-50"/>
      <use x="60.302734375" xlink:href="#BitstreamVeraSans-Roman-45"/>
      <use x="123.486328125" xlink:href="#BitstreamVeraSans-Roman-54"/>
      <use x="184.5703125" xlink:href="#BitstreamVeraSans-Roman-20"/>
      <use x="216.357421875" xlink:href="#BitstreamVeraSans-Roman-28"/>
      <use x="255.37109375" xlink:href="#BitstreamVeraSans-Roman-6d"/>
      <use x="352.783203125" xlink:href="#BitstreamVeraSans-Roman-6d"/>
      <use x="450.1953125" xlink:href="#BitstreamVeraSans-Roman-2f"/>
      <use x="483.88671875" xlink:href="#BitstreamVeraSans-Roman-64"/>
      <use x="547.36328125" xlink:href="#BitstreamVeraSans-Roman-61"/>
      <use x="608.642578125" xlink:href="#BitstreamVeraSans-Roman-79"/>
      <use x="667.822265625" xlink:href="#BitstreamVeraSans-Roman-29"/>
     </g>
    </g>
   </g>
   <g id="text_21">
    <!-- daily grass PET at BRW -->
    <defs>
     <path d="
M41.1094 46.2969
Q39.5938 47.1719 37.8125 47.5781
Q36.0312 48 33.8906 48
Q26.2656 48 22.1875 43.0469
Q18.1094 38.0938 18.1094 28.8125
L18.1094 0
L9.07812 0
L9.07812 54.6875
L18.1094 54.6875
L18.1094 46.1875
Q20.9531 51.1719 25.4844 53.5781
Q30.0312 56 36.5312 56
Q37.4531 56 38.5781 55.875
Q39.7031 55.7656 41.0625 55.5156
z
" id="BitstreamVeraSans-Roman-72"/>
     <path d="
M45.4062 27.9844
Q45.4062 37.75 41.375 43.1094
Q37.3594 48.4844 30.0781 48.4844
Q22.8594 48.4844 18.8281 43.1094
Q14.7969 37.75 14.7969 27.9844
Q14.7969 18.2656 18.8281 12.8906
Q22.8594 7.51562 30.0781 7.51562
Q37.3594 7.51562 41.375 12.8906
Q45.4062 18.2656 45.4062 27.9844
M54.3906 6.78125
Q54.3906 -7.17188 48.1875 -13.9844
Q42 -20.7969 29.2031 -20.7969
Q24.4688 -20.7969 20.2656 -20.0938
Q16.0625 -19.3906 12.1094 -17.9219
L12.1094 -9.1875
Q16.0625 -11.3281 19.9219 -12.3438
Q23.7812 -13.375 27.7812 -13.375
Q36.625 -13.375 41.0156 -8.76562
Q45.4062 -4.15625 45.4062 5.17188
L45.4062 9.625
Q42.625 4.78125 38.2812 2.39062
Q33.9375 0 27.875 0
Q17.8281 0 11.6719 7.65625
Q5.51562 15.3281 5.51562 27.9844
Q5.51562 40.6719 11.6719 48.3281
Q17.8281 56 27.875 56
Q33.9375 56 38.2812 53.6094
Q42.625 51.2188 45.4062 46.3906
L45.4062 54.6875
L54.3906 54.6875
z
" id="BitstreamVeraSans-Roman-67"/>
     <path d="
M44.2812 53.0781
L44.2812 44.5781
Q40.4844 46.5312 36.375 47.5
Q32.2812 48.4844 27.875 48.4844
Q21.1875 48.4844 17.8438 46.4375
Q14.5 44.3906 14.5 40.2812
Q14.5 37.1562 16.8906 35.375
Q19.2812 33.5938 26.5156 31.9844
L29.5938 31.2969
Q39.1562 29.25 43.1875 25.5156
Q47.2188 21.7812 47.2188 15.0938
Q47.2188 7.46875 41.1875 3.01562
Q35.1562 -1.42188 24.6094 -1.42188
Q20.2188 -1.42188 15.4531 -0.5625
Q10.6875 0.296875 5.42188 2
L5.42188 11.2812
Q10.4062 8.6875 15.2344 7.39062
Q20.0625 6.10938 24.8125 6.10938
Q31.1562 6.10938 34.5625 8.28125
Q37.9844 10.4531 37.9844 14.4062
Q37.9844 18.0625 35.5156 20.0156
Q33.0625 21.9688 24.7031 23.7812
L21.5781 24.5156
Q13.2344 26.2656 9.51562 29.9062
Q5.8125 33.5469 5.8125 39.8906
Q5.8125 47.6094 11.2812 51.7969
Q16.75 56 26.8125 56
Q31.7812 56 36.1719 55.2656
Q40.5781 54.5469 44.2812 53.0781" id="BitstreamVeraSans-Roman-73"/>
     <path d="
M44.3906 34.1875
Q47.5625 33.1094 50.5625 29.5938
Q53.5625 26.0781 56.5938 19.9219
L66.6094 0
L56 0
L46.6875 18.7031
Q43.0625 26.0312 39.6719 28.4219
Q36.2812 30.8125 30.4219 30.8125
L19.6719 30.8125
L19.6719 0
L9.8125 0
L9.8125 72.9062
L32.0781 72.9062
Q44.5781 72.9062 50.7344 67.6719
Q56.8906 62.4531 56.8906 51.9062
Q56.8906 45.0156 53.6875 40.4688
Q50.4844 35.9375 44.3906 34.1875
M19.6719 64.7969
L19.6719 38.9219
L32.0781 38.9219
Q39.2031 38.9219 42.8438 42.2188
Q46.4844 45.5156 46.4844 51.9062
Q46.4844 58.2969 42.8438 61.5469
Q39.2031 64.7969 32.0781 64.7969
z
" id="BitstreamVeraSans-Roman-52"/>
     <path d="
M3.32812 72.9062
L13.2812 72.9062
L28.6094 11.2812
L43.8906 72.9062
L54.9844 72.9062
L70.3125 11.2812
L85.5938 72.9062
L95.6094 72.9062
L77.2969 0
L64.8906 0
L49.5156 63.2812
L33.9844 0
L21.5781 0
z
" id="BitstreamVeraSans-Roman-57"/>
     <path d="
M19.6719 34.8125
L19.6719 8.10938
L35.5 8.10938
Q43.4531 8.10938 47.2812 11.4062
Q51.125 14.7031 51.125 21.4844
Q51.125 28.3281 47.2812 31.5625
Q43.4531 34.8125 35.5 34.8125
z

M19.6719 64.7969
L19.6719 42.8281
L34.2812 42.8281
Q41.5 42.8281 45.0312 45.5312
Q48.5781 48.25 48.5781 53.8125
Q48.5781 59.3281 45.0312 62.0625
Q41.5 64.7969 34.2812 64.7969
z

M9.8125 72.9062
L35.0156 72.9062
Q46.2969 72.9062 52.3906 68.2188
Q58.5 63.5312 58.5 54.8906
Q58.5 48.1875 55.375 44.2344
Q52.25 40.2812 46.1875 39.3125
Q53.4688 37.75 57.5 32.7812
Q61.5312 27.8281 61.5312 20.4062
Q61.5312 10.6406 54.8906 5.3125
Q48.25 0 35.9844 0
L9.8125 0
z
" id="BitstreamVeraSans-Roman-42"/>
     <path d="
M18.3125 70.2188
L18.3125 54.6875
L36.8125 54.6875
L36.8125 47.7031
L18.3125 47.7031
L18.3125 18.0156
Q18.3125 11.3281 20.1406 9.42188
Q21.9688 7.51562 27.5938 7.51562
L36.8125 7.51562
L36.8125 0
L27.5938 0
Q17.1875 0 13.2344 3.875
Q9.28125 7.76562 9.28125 18.0156
L9.28125 47.7031
L2.6875 47.7031
L2.6875 54.6875
L9.28125 54.6875
L9.28125 70.2188
z
" id="BitstreamVeraSans-Roman-74"/>
    </defs>
    <g transform="translate(138.9409375 16.318125)scale(0.12 -0.12)">
     <use xlink:href="#BitstreamVeraSans-Roman-64"/>
     <use x="63.4765625" xlink:href="#BitstreamVeraSans-Roman-61"/>
     <use x="124.755859375" xlink:href="#BitstreamVeraSans-Roman-69"/>
     <use x="152.5390625" xlink:href="#BitstreamVeraSans-Roman-6c"/>
     <use x="180.322265625" xlink:href="#BitstreamVeraSans-Roman-79"/>
     <use x="239.501953125" xlink:href="#BitstreamVeraSans-Roman-20"/>
     <use x="271.2890625" xlink:href="#BitstreamVeraSans-Roman-67"/>
     <use x="334.765625" xlink:href="#BitstreamVeraSans-Roman-72"/>
     <use x="375.87890625" xlink:href="#BitstreamVeraSans-Roman-61"/>
     <use x="437.158203125" xlink:href="#BitstreamVeraSans-Roman-73"/>
     <use x="489.2578125" xlink:href="#BitstreamVeraSans-Roman-73"/>
     <use x="541.357421875" xlink:href="#BitstreamVeraSans-Roman-20"/>
     <use x="573.14453125" xlink:href="#BitstreamVeraSans-Roman-50"/>
     <use x="633.447265625" xlink:href="#BitstreamVeraSans-Roman-45"/>
     <use x="696.630859375" xlink:href="#BitstreamVeraSans-Roman-54"/>
     <use x="757.71484375" xlink:href="#BitstreamVeraSans-Roman-20"/>
     <use x="789.501953125" xlink:href="#BitstreamVeraSans-Roman-61"/>
     <use x="850.78125" xlink:href="#BitstreamVeraSans-Roman-74"/>
     <use x="889.990234375" xlink:href="#BitstreamVeraSans-Roman-20"/>
     <use x="921.77734375" xlink:href="#BitstreamVeraSans-Roman-42"/>
     <use x="990.380859375" xlink:href="#BitstreamVeraSans-Roman-52"/>
     <use x="1055.86328125" xlink:href="#BitstreamVeraSans-Roman-57"/>
    </g>
   </g>
   <g id="legend_1">
    <g id="patch_7">
     <path d="
M297.241 101.373
L369.428 101.373
L369.428 27.3181
L297.241 27.3181
z
" style="fill:#ffffff;stroke:#000000;stroke-linejoin:miter;"/>
    </g>
    <g id="line2d_41">
     <path d="
M305.641 37.0363
L322.441 37.0363" style="fill:none;stroke:#0000ff;stroke-linecap:square;"/>
    </g>
    <g id="line2d_42"/>
    <g id="text_22">
     <!-- 2011 -->
     <g transform="translate(335.640625 41.23625)scale(0.12 -0.12)">
      <use xlink:href="#BitstreamVeraSans-Roman-32"/>
      <use x="63.623046875" xlink:href="#BitstreamVeraSans-Roman-30"/>
      <use x="127.24609375" xlink:href="#BitstreamVeraSans-Roman-31"/>
      <use x="190.869140625" xlink:href="#BitstreamVeraSans-Roman-31"/>
     </g>
    </g>
    <g id="line2d_43">
     <path d="
M305.641 54.65
L322.441 54.65" style="fill:none;stroke:#008000;stroke-linecap:square;"/>
    </g>
    <g id="line2d_44"/>
    <g id="text_23">
     <!-- 2012 -->
     <g transform="translate(335.640625 58.85)scale(0.12 -0.12)">
      <use xlink:href="#BitstreamVeraSans-Roman-32"/>
      <use x="63.623046875" xlink:href="#BitstreamVeraSans-Roman-30"/>
      <use x="127.24609375" xlink:href="#BitstreamVeraSans-Roman-31"/>
      <use x="190.869140625" xlink:href="#BitstreamVeraSans-Roman-32"/>
     </g>
    </g>
    <g id="line2d_45">
     <path d="
M305.641 72.2638
L322.441 72.2638" style="fill:none;stroke:#ff0000;stroke-linecap:square;"/>
    </g>
    <g id="line2d_46"/>
    <g id="text_24">
     <!-- 2013 -->
     <g transform="translate(335.640625 76.46375)scale(0.12 -0.12)">
      <use xlink:href="#BitstreamVeraSans-Roman-32"/>
      <use x="63.623046875" xlink:href="#BitstreamVeraSans-Roman-30"/>
      <use x="127.24609375" xlink:href="#BitstreamVeraSans-Roman-31"/>
      <use x="190.869140625" xlink:href="#BitstreamVeraSans-Roman-33"/>
     </g>
    </g>
    <g id="line2d_47">
     <path d="
M305.641 89.8775
L322.441 89.8775" style="fill:none;stroke:#00bfbf;stroke-linecap:square;"/>
    </g>
    <g id="line2d_48"/>
    <g id="text_25">
     <!-- 2014 -->
     <g transform="translate(335.640625 94.0775)scale(0.12 -0.12)">
      <use xlink:href="#BitstreamVeraSans-Roman-32"/>
      <use x="63.623046875" xlink:href="#BitstreamVeraSans-Roman-30"/>
      <use x="127.24609375" xlink:href="#BitstreamVeraSans-Roman-31"/>
      <use x="190.869140625" xlink:href="#BitstreamVeraSans-Roman-34"/>
     </g>
    </g>
   </g>
  </g>
 </g>
 <defs>
  <clipPath id="p2d16512a00">
   <rect height="223.2" width="334.8" x="40.628125" y="21.318125"/>
  </clipPath>
 </defs>
</svg>
