<?xml version="1.0" encoding="utf-8" standalone="no"?>
<!DOCTYPE svg PUBLIC "-//W3C//DTD SVG 1.1//EN"
  "http://www.w3.org/Graphics/SVG/1.1/DTD/svg11.dtd">
<!-- Created with matplotlib (http://matplotlib.org/) -->
<svg height="280pt" version="1.1" viewBox="0 0 382 280" width="382pt" xmlns="http://www.w3.org/2000/svg" xmlns:xlink="http://www.w3.org/1999/xlink">
 <defs>
  <style type="text/css">
*{stroke-linecap:butt;stroke-linejoin:round;}
  </style>
 </defs>
 <g id="figure_1">
  <g id="patch_1">
   <path d="
M0 280.074
L382.628 280.074
L382.628 0
L0 0
z
" style="fill:#ffffff;"/>
  </g>
  <g id="axes_1">
   <g id="patch_2">
    <path d="
M40.6281 244.518
L375.428 244.518
L375.428 21.3181
L40.6281 21.3181
z
" style="fill:#ffffff;"/>
   </g>
   <g id="line2d_1">
    <path clip-path="url(#p2d16512a00)" d="
M40.6281 193.966
L41.5454 184.192
L42.4626 176.143
L43.3799 158.103
L44.2972 197.253
L45.2144 211.01
L46.1317 208.463
L47.0489 220.937
L47.9662 206.896
L48.8835 216.021
L49.8007 192.821
L50.718 129.883
L51.6352 112.681
L52.5525 130.837
L53.4698 203.849
L54.387 214.049
L55.3043 166.614
L56.2215 190.536
L57.1388 234.733
L58.0561 233.806
L58.9733 232.5
L59.8906 211.475
M65.3942 200.197
L66.3114 148.935
L67.2287 225.944
L68.1459 210.285
L69.0632 206.909
L69.9805 234.929
L70.8977 222.124
L71.815 204.839
L72.7322 198.418
L73.6495 189.262
L74.5668 176.185
L75.484 198.271
L76.4013 227.466
L77.3185 221.643
L78.2358 217.076
L79.1531 189.965
L80.0703 188.813
L80.9876 222.429
L81.9048 207.134
L82.8221 194.097
L83.7394 196.742
L84.6566 234.808
L85.5739 210.067
L86.4911 198.384
L87.4084 232.411
L88.3257 222.405
L89.2429 193.104
L90.1602 169.419
L91.0774 195.134
L91.9947 211.999
L92.912 214.361
L93.8292 191.099
L94.7465 198.483
L95.6637 214.343
L96.581 206.541
L97.4983 238.311
L98.4155 218.419
L99.3328 170.552
L100.25 215.839
L101.167 156.306
L102.085 154.003
L103.002 156.769
L103.919 142.46
L104.836 183.989
L105.754 191.416
L106.671 195.255
L107.588 230.969
L108.505 223.727
L109.423 223.531
L110.34 233.943
M112.174 223.071
L113.092 230.692
L114.009 210.013
L114.926 158.844
L115.843 199.874
L116.761 156.39
L118.595 228.232
L119.513 184.617
L120.43 214.5
L121.347 204.915
L122.264 220.685
L123.182 170.738
L124.099 168.976
L125.016 182.996
L125.933 154.334
L126.851 196.305
L127.768 202.135
L128.685 204.891
L129.602 150.095
L130.52 106.833
L131.437 131.844
L132.354 117.277
L133.271 181.634
L134.189 151.42
L135.106 191.993
L136.023 155.334
L136.94 148.933
L137.858 191.105
L138.775 149.74
L139.692 186.81
L140.609 207.223
L141.527 143.848
L142.444 127.92
L143.361 118.477
L144.279 140.449
L145.196 139.96
L146.113 163.663
L147.03 224.571
L147.948 184.724
L148.865 165.046
L149.782 129.784
L150.699 199.811
L151.617 142.929
L152.534 138.038
L153.451 189.012
L154.368 214.541
L155.286 201.646
L156.203 132.205
L157.12 105.785
L158.037 96.8294
L158.955 109.252
L159.872 71.3659
L160.789 47.7954
L161.706 51.5601
L162.624 63.3622
L163.541 86.506
L164.458 128.856
L165.376 82.8666
L166.293 123.074
L167.21 63.6399
L168.127 47.6447
L169.045 71.353
L169.962 156.558
L170.879 126.117
L171.796 139.842
L172.714 108.19
L173.631 167.672
L174.548 192.728
L175.465 127.952
L176.383 111.913
L177.3 64.0595
L178.217 61.4072
L179.134 102.926
L180.052 76.4078
L180.969 111.35
L181.886 101.944
L182.803 118.083
L183.721 177.849
L184.638 62.9945
L185.555 92.895
L186.473 112.838
L187.39 171.538
L188.307 88.6796
L189.224 50.2607
L190.142 115.166
L191.059 77.0361
L191.976 49.2282
L192.893 61.7002
L193.811 86.4227
L194.728 91.8445
L195.645 78.4657
L196.562 91.1941
L197.48 64.2104
L199.314 86.5327
L200.231 82.8638
L201.149 77.2668
L202.066 70.7351
L202.983 113.155
L203.9 66.7432
L204.818 76.3631
L205.735 92.1546
L206.652 89.5478
L207.569 117.919
L208.487 96.8473
L209.404 82.5231
L210.321 69.9422
L211.239 96.8603
L212.156 106.057
L213.073 103.278
L213.99 140.989
L214.908 126.514
L215.825 107.27
L216.742 116.339
L217.659 113.365
L218.577 160.194
L219.494 161.298
L220.411 131.3
L221.328 147.748
L222.246 102.901
L223.163 92.5164
L224.08 109.213
L224.997 98.3215
L225.915 97.6411
L226.832 109.47
L227.749 108.263
L228.666 95.1197
L229.584 113.953
L230.501 111.319
L231.418 119.118
L232.336 112.506
L233.253 113.154
L234.17 108.913
L235.087 109.278
L236.005 104.421
L236.922 98.1733
L237.839 106.092
L238.756 107.176
L239.674 117.952
L240.591 112.464
L241.508 121.45
L242.425 135.057
L243.343 125.985
L244.26 144.709
L245.177 111.336
L246.094 125.804
L247.012 125.401
L248.846 116.139
L249.763 123.674
L250.681 122.095
L251.598 119.852
L252.515 148.243
L253.433 133.663
L254.35 140.47
L255.267 127.164
L256.184 118.696
L257.102 90.9788
L258.019 104.357
L258.936 135.451
L259.853 136.787
L260.771 125.536
L261.688 122.966
L262.605 113.569
L263.522 137.431
M267.191 113.379
L268.109 124.191
L269.026 153.398
L269.943 119.385
L271.778 133.669
L272.695 119.351
L273.612 114.887
L274.529 98.4953
L275.447 117.099
L276.364 128.768
L277.281 119.061
L278.199 124.854
L279.116 117.631
L280.033 121.954
L280.95 128.791
L281.868 141.308
L282.785 145.673
L283.702 135.983
L284.619 191.221
L285.537 144.828
L286.454 165.9
L287.371 149.522
L288.288 136.913
L289.206 142.354
L290.123 138.824
L291.04 139.261
L291.957 116.911
M294.709 197.637
L295.626 95.5657
L296.544 93.3714
L297.461 102.933
L298.378 102.738
L299.296 120.982
L300.213 127.386
L301.13 129.569
L302.047 126.28
L302.965 162.582
L303.882 139.813
L304.799 180.95
L305.716 165.949
L306.634 125.908
L307.551 112.872
L308.468 154.464
L309.385 186.911
L310.303 140.874
L311.22 227.745
L312.137 239.195
M313.972 234.331
L314.889 237.277
L315.806 212.061
L316.723 207.723
L317.641 175.232
L319.475 147.892
L320.393 183.128
L321.31 182.842
L322.227 183.413
L323.144 180.338
L324.062 206.726
L324.979 182.772
L325.896 194.187
L326.813 210.535
L327.731 224.75
L328.648 218.801
L329.565 243.927
L330.482 218.184
L331.4 231.611
L332.317 237.302
L333.234 216.437
L334.151 204.264
L335.069 227.936
L335.986 223.795
L336.903 236.126
L337.82 215.982
L338.738 218.024
L339.655 202.984
L340.572 157.03
L341.489 194.152
L342.407 208.929
L343.324 197.179
L344.241 212.145
L345.159 212.569
L346.076 217.25
L346.993 218.732
L347.91 222.444
L348.828 223.712
L349.745 224.193
L350.662 216.47
L351.579 239.857
L352.497 235.72
L353.414 208.13
L354.331 218.097
L355.248 196.829
L356.166 222.243
L357.083 220.78
L358 222.836
L358.917 214.051
L359.835 224.075
L360.752 215.663
L361.669 225.078
L362.586 226.82
L363.504 225.608
L364.421 216.52
L365.338 181.102
L366.256 138.199
L367.173 192.649
L368.09 220.338
L369.007 216.232
L369.925 214.708
L370.842 223.402
L371.759 227.262
L372.676 240.793
L373.594 218.189
L374.511 219.663
L374.511 219.663" style="fill:none;stroke:#0000ff;stroke-linecap:square;"/>
   </g>
   <g id="line2d_2">
    <path clip-path="url(#p2d16512a00)" d="
M40.6281 223.094
L41.5454 191.997
L42.4626 170.704
L43.3799 199.721
L44.2972 233.487
L45.2144 204.785
L46.1317 236.599
L47.0489 233.74
L47.9662 224.979
L48.8835 224.58
L49.8007 202.97
L50.718 166.672
L51.6352 206.934
L52.5525 201.808
L53.4698 209.946
L54.387 196.445
L55.3043 163.94
L56.2215 164.411
L57.1388 170.592
L58.0561 162.114
L58.9733 173.449
L59.8906 173.81
L60.8079 149.079
L61.7251 188.949
L62.6424 239.537
L63.5596 231.08
L64.4769 209.931
L65.3942 217.944
L66.3114 222.182
L67.2287 229.159
L68.1459 237.448
L69.0632 232.083
M70.8977 241.42
L71.815 203.682
L72.7322 219.523
L73.6495 223.436
L74.5668 216.972
L75.484 196.923
L76.4013 233.437
L77.3185 197.76
L78.2358 190.884
L79.1531 234.388
L80.0703 232.01
L80.9876 225.047
L81.9048 208.337
L82.8221 206.879
L83.7394 220.754
L84.6566 188.094
L85.5739 194.26
L86.4911 206.389
L87.4084 183.824
L88.3257 221.451
L89.2429 220.804
L90.1602 221.646
L91.0774 233.397
L91.9947 188.649
L92.912 183.287
L93.8292 197.751
L94.7465 214.364
L95.6637 221.23
L96.581 199.794
L97.4983 158.784
L98.4155 171.418
L99.3328 201.988
L100.25 200.777
L101.167 179.549
L102.085 170.185
L103.002 140.887
L103.919 209.817
L104.836 214.448
L105.754 166.316
L106.671 157.637
L107.588 171.697
L108.505 196.897
L109.423 182.54
L110.34 181.931
L111.257 123.196
L112.174 178.212
L113.092 196.525
L114.009 211.059
L114.926 199.965
L116.761 143.044
L117.678 194.868
L118.595 203.251
L119.513 165.954
L120.43 176.189
L121.347 157.654
L122.264 149.255
L123.182 177.716
L124.099 159.846
L125.016 154.181
L125.933 182.77
L126.851 195.369
L127.768 200.229
L128.685 239.54
L129.602 213.094
L130.52 169.089
L131.437 188.616
L132.354 182.632
L133.271 128.417
L134.189 180.151
L135.106 200.975
L136.023 208.625
L136.94 178.987
L137.858 132.237
L138.775 126.587
L139.692 208.909
L140.609 213.683
L141.527 186.738
L142.444 163.853
L143.361 156.311
L144.279 112.859
L145.196 100.386
L146.113 122.124
L147.03 126.472
L147.948 99.7189
L148.865 151.802
L149.782 128.483
L150.699 71.0549
L151.617 58.5441
L152.534 71.7847
L153.451 107.564
L154.368 94.442
L155.286 129.318
L156.203 135.837
L157.12 147.095
L158.037 115.461
L158.955 109.2
L159.872 96.6906
L160.789 103.675
L161.706 108.551
L162.624 85.5855
L163.541 98.4775
L164.458 145.714
L165.376 167.589
L166.293 92.7699
L167.21 152.553
L168.127 72.0595
L169.045 118.692
L170.879 23.0261
L171.796 41.5972
L172.714 50.5589
L173.631 125.577
L174.548 129.834
L175.465 184.727
L176.383 148.627
L177.3 131.625
L178.217 68.0343
L179.134 68.9051
L180.052 68.3125
L180.969 64.2024
L181.886 90.0633
L182.803 77.3112
L183.721 100.557
L184.638 90.8143
L185.555 90.7
L186.473 91.8842
L187.39 106.081
L188.307 104.871
L189.224 79.3934
L190.142 113.136
L191.059 96.1074
L191.976 66.4331
L192.893 97.3741
L193.811 88.4429
L194.728 92.8039
L195.645 178.878
L196.562 117.78
L197.48 120.382
L198.397 110.107
L199.314 102.404
L200.231 163.024
L201.149 198.669
L202.066 118.8
L202.983 103.789
L203.9 101.208
L204.818 124.468
L205.735 123.132
L206.652 119.692
L207.569 125.509
L208.487 141.104
L209.404 112.112
L210.321 111.291
L211.239 96.1469
L212.156 106.812
L213.073 112.489
L213.99 95.5028
L214.908 108.49
L215.825 141.283
L216.742 100.993
L217.659 83.2345
L219.494 105.731
L220.411 138.594
L221.328 108.657
L222.246 101.381
L223.163 106.555
L224.08 104.093
L224.997 101.996
L225.915 98.1226
L226.832 111.867
L227.749 134.176
L228.666 116.005
L229.584 129.344
L230.501 114.002
L231.418 107.146
L232.336 108.366
L233.253 109.08
L234.17 128.678
L235.087 115.928
L236.005 111.482
L236.922 95.7452
L237.839 105.162
L238.756 111.437
L239.674 113.137
L240.591 117.186
L241.508 119.051
L242.425 118.297
L243.343 116.324
L244.26 135.379
L245.177 134.279
L246.094 121.066
L247.012 118.822
L247.929 127.641
L248.846 123.265
L249.763 135.168
L250.681 128.873
L251.598 133.568
L252.515 128.311
L253.433 136.038
L254.35 156.463
L255.267 137.579
L256.184 147.943
L258.019 125.305
L258.936 138.054
L259.853 147.404
L260.771 143.349
L261.688 130.815
L262.605 130.36
L263.522 137.547
L264.44 169.639
L265.357 197.242
L266.274 168.088
L267.191 185.583
L268.109 155.875
L269.026 132.912
L269.943 136.063
L270.86 138.48
L271.778 146.658
L272.695 147.321
L273.612 186.745
L274.529 170.445
L275.447 158.575
L276.364 154.525
L277.281 146.143
L278.199 187.215
L279.116 187.659
L280.033 137.554
L280.95 128.622
L281.868 169.528
L282.785 198.455
L283.702 160.569
L284.619 203.096
L285.537 214.579
L287.371 142.447
L288.288 154.356
L289.206 204.164
L290.123 177.606
L291.04 179.417
L291.957 148.742
L292.875 200.635
L293.792 126.921
L294.709 105.94
L295.626 112.976
L296.544 139.725
L297.461 183.623
L298.378 152.121
L299.296 176.379
L300.213 152.36
L301.13 144.706
L302.047 164.344
L302.965 146.213
L303.882 156.238
L304.799 135.94
L305.716 134.548
L306.634 127.378
L307.551 132.322
L308.468 144.071
L309.385 148.733
L310.303 140.875
L311.22 149.436
L312.137 152.096
L313.054 145.256
L313.972 150.508
L314.889 159.15
L315.806 193.125
L317.641 213.142
L318.558 197.873
L319.475 212.484
L320.393 223.267
L321.31 221.623
L322.227 190.896
L324.062 218.63
L324.979 203.237
L325.896 202.229
L326.813 151.177
L327.731 164.028
L328.648 167.394
L329.565 165.417
L330.482 193.949
L331.4 202.058
L332.317 207.995
L333.234 231.214
L334.151 232.485
L335.069 204.82
L336.903 223.958
L337.82 139.942
L338.738 169.349
L339.655 177.525
L340.572 150.839
L341.489 164.891
L342.407 174.974
L343.324 183.099
L344.241 183.105
L345.159 201.696
L346.076 217.51
L346.993 222.731
L347.91 216.069
L348.828 210.354
L349.745 181.537
L350.662 190.524
L351.579 198.305
L352.497 225.695
L353.414 225.141
L354.331 235.07
L355.248 171.859
L356.166 225.845
L357.083 214.781
L358 194.64
L358.917 220.31
L359.835 187.587
L360.752 176.917
L361.669 152.098
L362.586 209.795
L363.504 220.719
L364.421 199.469
L365.338 222.237
L366.256 230.747
L367.173 233.936
L368.09 224.787
L369.007 200.267
L369.925 154.033
L370.842 157.48
L371.759 210.796
L372.676 190.932
L373.594 208.663
L374.511 205.232
L374.511 205.232" style="fill:none;stroke:#008000;stroke-linecap:square;"/>
   </g>
   <g id="line2d_3">
    <path clip-path="url(#p2d16512a00)" d="
M40.6281 212.498
L41.5454 191.302
L42.4626 220.799
L43.3799 218.35
L44.2972 166.636
L45.2144 147.288
L46.1317 178.429
L47.0489 230.942
L47.9662 227.577
L48.8835 232.61
L49.8007 241.189
L50.718 228.003
L51.6352 224.72
L52.5525 210.87
L53.4698 209.98
L54.387 169.182
L55.3043 165.197
L56.2215 167.989
L57.1388 165.237
L58.0561 187.742
L58.9733 182.515
L59.8906 191.253
L60.8079 208.109
L62.6424 142.943
L63.5596 165.681
L64.4769 175.765
L65.3942 173.437
L66.3114 222.559
L67.2287 238.87
L68.1459 217.416
L69.0632 226.77
L69.9805 217.085
L70.8977 223.317
L71.815 211.942
L72.7322 215.1
L73.6495 223.417
L74.5668 221.651
L75.484 233.882
L76.4013 242.701
M78.2358 241.861
L79.1531 236.581
L80.9876 204.788
L81.9048 207.629
L82.8221 213.552
L83.7394 165.985
L84.6566 203.088
L85.5739 205.339
L86.4911 225.376
L87.4084 208.727
L88.3257 213.985
L89.2429 202.311
L90.1602 201.142
L91.0774 203.188
L91.9947 218.122
L92.912 218.666
L93.8292 224.056
L94.7465 233.304
L95.6637 239.081
M97.4983 215.237
L98.4155 225.508
L99.3328 211.107
L100.25 205.829
L101.167 188.84
L102.085 195.025
L103.002 216.586
L103.919 177.927
L104.836 159.194
L105.754 156.371
L106.671 209.917
L108.505 153.917
L109.423 195.277
L110.34 220.519
L111.257 167.349
L112.174 186.094
L113.092 157.483
L114.009 134.368
L114.926 148.118
L115.843 154.538
L116.761 196.267
L117.678 201.52
L118.595 229.594
L119.513 235.128
L120.43 244.474
L121.347 242.642
L122.264 239.722
M124.099 237.783
L125.016 197.924
L125.933 217.169
L126.851 218.354
L127.768 211.15
L128.685 175.437
L129.602 160.538
L130.52 175.38
L131.437 152.72
L132.354 148.407
L133.271 160.597
L134.189 159.615
L135.106 117.22
L136.023 140.172
L136.94 124.269
L137.858 173.088
L138.775 142.436
L139.692 133.999
L140.609 156.785
L141.527 124.798
L142.444 216.448
L143.361 234.223
L144.279 203.212
L145.196 236.187
L146.113 201.671
L147.03 206.616
L147.948 188.175
L148.865 138.873
L149.782 136.581
L150.699 130.362
L151.617 129.972
L152.534 138.062
L153.451 140.667
L154.368 172.132
L155.286 137.529
L156.203 120.157
L157.12 158.652
L158.037 153.054
L158.955 177.109
L159.872 110.327
L160.789 103.973
L161.706 90.8852
L162.624 113.535
L163.541 110.306
L164.458 117.983
L165.376 91.2485
L166.293 130.469
L167.21 104.094
L168.127 146.657
L169.045 161.332
L169.962 87.1986
L171.796 137.043
L172.714 129.528
L173.631 106.017
L174.548 101.94
L175.465 103.563
L176.383 77.7942
L177.3 81.9565
L178.217 76.5203
L179.134 93.5162
L180.052 92.7483
L180.969 87.91
L181.886 80.2298
L182.803 74.166
L183.721 70.5923
L184.638 94.8725
L185.555 81.2345
L186.473 90.8586
L188.307 76.2397
L189.224 99.8465
L190.142 135.051
L191.059 117.55
L191.976 122.401
L192.893 132.625
L193.811 137.697
L194.728 162.048
L195.645 79.6183
L196.562 87.1971
L197.48 86.4375
L198.397 78.364
L199.314 91.716
L200.231 108.956
L201.149 164.551
L202.066 140.156
L202.983 152.486
L203.9 115.013
L204.818 86.4449
L205.735 86.7377
L206.652 97.5422
L207.569 127.454
L208.487 119.43
L209.404 121.872
L210.321 110.938
L211.239 107.618
L212.156 107.883
L213.073 123.629
L213.99 148.111
L214.908 116.021
L215.825 122.272
L216.742 102.351
L217.659 125.112
L218.577 118.107
L219.494 118.417
L221.328 134.148
L222.246 100.856
L223.163 111.691
L224.08 131.593
L224.997 162.064
L225.915 138.469
L226.832 118.944
L227.749 104.84
L228.666 95.0559
L229.584 101.514
L230.501 118.359
L231.418 138.274
L232.336 138.418
L233.253 139.53
L234.17 130.593
L235.087 124.027
L236.005 132.479
L236.922 137.039
L237.839 142.48
L238.756 163.24
L239.674 164.544
L240.591 129.072
L241.508 137.382
L242.425 134.505
L243.343 141.255
L244.26 137.688
L245.177 150.226
L246.094 182.671
L247.012 149.98
L247.929 128.604
L248.846 127.727
L249.763 121.344
L250.681 124.572
L251.598 140.724
L252.515 145.526
L253.433 139.197
L254.35 143.312
L255.267 136.12
L256.184 146.742
L257.102 158.847
L258.019 169.161
L258.936 128.794
L259.853 138.371
L260.771 134.974
L261.688 157.285
L262.605 137.912
L263.522 127.135
L264.44 127.726
L265.357 140.958
L266.274 116.467
L267.191 117.626
L268.109 124.061
L269.026 127.39
L269.943 133.046
L270.86 127.707
L271.778 134.36
L272.695 122.348
L273.612 107.881
L274.529 128.439
L275.447 132.671
L276.364 141.123
L277.281 148.051
L278.199 151.906
L279.116 162.376
L280.033 160.942
L280.95 152.951
L281.868 191.437
L282.785 191.059
L283.702 181.738
L284.619 153.972
L285.537 149.549
L286.454 134.253
L287.371 194.698
L288.288 194.235
L289.206 212.951
L290.123 180.831
L291.04 172.531
L291.957 138.428
L292.875 124.968
L293.792 137.184
L294.709 141.92
L295.626 152.318
L296.544 148.797
L297.461 146.056
L298.378 144.848
L299.296 151.745
L300.213 167.924
L301.13 159.721
L302.047 137.218
L302.965 150.886
L303.882 209.797
L304.799 181.597
L305.716 135.851
L307.551 155.727
L308.468 144.145
L309.385 226.296
L310.303 180.065
L311.22 209.081
L312.137 172.879
L313.054 179.538
L313.972 209.107
L314.889 185.162
L315.806 147.728
L316.723 171
L317.641 164.818
L318.558 172.429
L319.475 210.707
M322.227 238.209
L323.144 222.672
L324.062 191.867
L324.979 193.333
L325.896 170.84
L326.813 212.534
L327.731 216.194
L328.648 218.385
L329.565 163.498
L330.482 188.023
L331.4 232.095
L332.317 221.185
L333.234 233.914
L334.151 139.829
L335.069 156.402
L335.986 159.023
L337.82 233.758
L338.738 238.161
L339.655 234.315
L340.572 228.091
L341.489 240.679
L342.407 212.03
L343.324 189.315
L344.241 176.571
L345.159 230.361
L346.076 206.717
L346.993 209.633
M348.828 243.144
L349.745 234.495
L350.662 212.929
L351.579 224.828
L352.497 190.658
L353.414 216.001
L354.331 215.315
L355.248 204.212
L356.166 176.66
L357.083 219.317
L358 235.314
L358.917 208.613
L359.835 198.216
L360.752 237.388
L361.669 231.996
L362.586 244.491
M365.338 243.612
L366.256 238.93
L367.173 237.414
M371.759 231.619
L372.676 227.066
L373.594 231.231
L374.511 215.781
L374.511 215.781" style="fill:none;stroke:#ff0000;stroke-linecap:square;"/>
   </g>
   <g id="patch_3">
    <path d="
M40.6281 21.3181
L375.428 21.3181" style="fill:none;stroke:#000000;stroke-linecap:square;stroke-linejoin:miter;"/>
   </g>
   <g id="patch_4">
    <path d="
M375.428 244.518
L375.428 21.3181" style="fill:none;stroke:#000000;stroke-linecap:square;stroke-linejoin:miter;"/>
   </g>
   <g id="patch_5">
    <path d="
M40.6281 244.518
L375.428 244.518" style="fill:none;stroke:#000000;stroke-linecap:square;stroke-linejoin:miter;"/>
   </g>
   <g id="patch_6">
    <path d="
M40.6281 244.518
L40.6281 21.3181" style="fill:none;stroke:#000000;stroke-linecap:square;stroke-linejoin:miter;"/>
   </g>
   <g id="matplotlib.axis_1">
    <g id="xtick_1">
     <g id="line2d_4">
      <defs>
       <path d="
M0 0
L0 -4" id="m93b0483c22" style="stroke:#000000;stroke-width:0.5;"/>
      </defs>
      <g>
       <use style="stroke:#000000;stroke-width:0.5;" x="40.628125" xlink:href="#m93b0483c22" y="244.518125"/>
      </g>
     </g>
     <g id="line2d_5">
      <defs>
       <path d="
M0 0
L0 4" id="m741efc42ff" style="stroke:#000000;stroke-width:0.5;"/>
      </defs>
      <g>
       <use style="stroke:#000000;stroke-width:0.5;" x="40.628125" xlink:href="#m741efc42ff" y="21.318125"/>
      </g>
     </g>
     <g id="text_1">
      <!-- 0 -->
      <defs>
       <path d="
M31.7812 66.4062
Q24.1719 66.4062 20.3281 58.9062
Q16.5 51.4219 16.5 36.375
Q16.5 21.3906 20.3281 13.8906
Q24.1719 6.39062 31.7812 6.39062
Q39.4531 6.39062 43.2812 13.8906
Q47.125 21.3906 47.125 36.375
Q47.125 51.4219 43.2812 58.9062
Q39.4531 66.4062 31.7812 66.4062
M31.7812 74.2188
Q44.0469 74.2188 50.5156 64.5156
Q56.9844 54.8281 56.9844 36.375
Q56.9844 17.9688 50.5156 8.26562
Q44.0469 -1.42188 31.7812 -1.42188
Q19.5312 -1.42188 13.0625 8.26562
Q6.59375 17.9688 6.59375 36.375
Q6.59375 54.8281 13.0625 64.5156
Q19.5312 74.2188 31.7812 74.2188" id="BitstreamVeraSans-Roman-30"/>
      </defs>
      <g transform="translate(38.10859375 256.1165625)scale(0.1 -0.1)">
       <use xlink:href="#BitstreamVeraSans-Roman-30"/>
      </g>
     </g>
    </g>
    <g id="xtick_2">
     <g id="line2d_6">
      <g>
       <use style="stroke:#000000;stroke-width:0.5;" x="86.4911386986" xlink:href="#m93b0483c22" y="244.518125"/>
      </g>
     </g>
     <g id="line2d_7">
      <g>
       <use style="stroke:#000000;stroke-width:0.5;" x="86.4911386986" xlink:href="#m741efc42ff" y="21.318125"/>
      </g>
     </g>
     <g id="text_2">
      <!-- 50 -->
      <defs>
       <path d="
M10.7969 72.9062
L49.5156 72.9062
L49.5156 64.5938
L19.8281 64.5938
L19.8281 46.7344
Q21.9688 47.4688 24.1094 47.8281
Q26.2656 48.1875 28.4219 48.1875
Q40.625 48.1875 47.75 41.5
Q54.8906 34.8125 54.8906 23.3906
Q54.8906 11.625 47.5625 5.09375
Q40.2344 -1.42188 26.9062 -1.42188
Q22.3125 -1.42188 17.5469 -0.640625
Q12.7969 0.140625 7.71875 1.70312
L7.71875 11.625
Q12.1094 9.23438 16.7969 8.0625
Q21.4844 6.89062 26.7031 6.89062
Q35.1562 6.89062 40.0781 11.3281
Q45.0156 15.7656 45.0156 23.3906
Q45.0156 31 40.0781 35.4375
Q35.1562 39.8906 26.7031 39.8906
Q22.75 39.8906 18.8125 39.0156
Q14.8906 38.1406 10.7969 36.2812
z
" id="BitstreamVeraSans-Roman-35"/>
      </defs>
      <g transform="translate(80.8466074486 256.1165625)scale(0.1 -0.1)">
       <use xlink:href="#BitstreamVeraSans-Roman-35"/>
       <use x="63.623046875" xlink:href="#BitstreamVeraSans-Roman-30"/>
      </g>
     </g>
    </g>
    <g id="xtick_3">
     <g id="line2d_8">
      <g>
       <use style="stroke:#000000;stroke-width:0.5;" x="132.354152397" xlink:href="#m93b0483c22" y="244.518125"/>
      </g>
     </g>
     <g id="line2d_9">
      <g>
       <use style="stroke:#000000;stroke-width:0.5;" x="132.354152397" xlink:href="#m741efc42ff" y="21.318125"/>
      </g>
     </g>
     <g id="text_3">
      <!-- 100 -->
      <defs>
       <path d="
M12.4062 8.29688
L28.5156 8.29688
L28.5156 63.9219
L10.9844 60.4062
L10.9844 69.3906
L28.4219 72.9062
L38.2812 72.9062
L38.2812 8.29688
L54.3906 8.29688
L54.3906 0
L12.4062 0
z
" id="BitstreamVeraSans-Roman-31"/>
      </defs>
      <g transform="translate(123.691652397 256.1165625)scale(0.1 -0.1)">
       <use xlink:href="#BitstreamVeraSans-Roman-31"/>
       <use x="63.623046875" xlink:href="#BitstreamVeraSans-Roman-30"/>
       <use x="127.24609375" xlink:href="#BitstreamVeraSans-Roman-30"/>
      </g>
     </g>
    </g>
    <g id="xtick_4">
     <g id="line2d_10">
      <g>
       <use style="stroke:#000000;stroke-width:0.5;" x="178.217166096" xlink:href="#m93b0483c22" y="244.518125"/>
      </g>
     </g>
     <g id="line2d_11">
      <g>
       <use style="stroke:#000000;stroke-width:0.5;" x="178.217166096" xlink:href="#m741efc42ff" y="21.318125"/>
      </g>
     </g>
     <g id="text_4">
      <!-- 150 -->
      <g transform="translate(169.554666096 256.1165625)scale(0.1 -0.1)">
       <use xlink:href="#BitstreamVeraSans-Roman-31"/>
       <use x="63.623046875" xlink:href="#BitstreamVeraSans-Roman-35"/>
       <use x="127.24609375" xlink:href="#BitstreamVeraSans-Roman-30"/>
      </g>
     </g>
    </g>
    <g id="xtick_5">
     <g id="line2d_12">
      <g>
       <use style="stroke:#000000;stroke-width:0.5;" x="224.080179795" xlink:href="#m93b0483c22" y="244.518125"/>
      </g>
     </g>
     <g id="line2d_13">
      <g>
       <use style="stroke:#000000;stroke-width:0.5;" x="224.080179795" xlink:href="#m741efc42ff" y="21.318125"/>
      </g>
     </g>
     <g id="text_5">
      <!-- 200 -->
      <defs>
       <path d="
M19.1875 8.29688
L53.6094 8.29688
L53.6094 0
L7.32812 0
L7.32812 8.29688
Q12.9375 14.1094 22.625 23.8906
Q32.3281 33.6875 34.8125 36.5312
Q39.5469 41.8438 41.4219 45.5312
Q43.3125 49.2188 43.3125 52.7812
Q43.3125 58.5938 39.2344 62.25
Q35.1562 65.9219 28.6094 65.9219
Q23.9688 65.9219 18.8125 64.3125
Q13.6719 62.7031 7.8125 59.4219
L7.8125 69.3906
Q13.7656 71.7812 18.9375 73
Q24.125 74.2188 28.4219 74.2188
Q39.75 74.2188 46.4844 68.5469
Q53.2188 62.8906 53.2188 53.4219
Q53.2188 48.9219 51.5312 44.8906
Q49.8594 40.875 45.4062 35.4062
Q44.1875 33.9844 37.6406 27.2188
Q31.1094 20.4531 19.1875 8.29688" id="BitstreamVeraSans-Roman-32"/>
      </defs>
      <g transform="translate(215.234867295 256.1165625)scale(0.1 -0.1)">
       <use xlink:href="#BitstreamVeraSans-Roman-32"/>
       <use x="63.623046875" xlink:href="#BitstreamVeraSans-Roman-30"/>
       <use x="127.24609375" xlink:href="#BitstreamVeraSans-Roman-30"/>
      </g>
     </g>
    </g>
    <g id="xtick_6">
     <g id="line2d_14">
      <g>
       <use style="stroke:#000000;stroke-width:0.5;" x="269.943193493" xlink:href="#m93b0483c22" y="244.518125"/>
      </g>
     </g>
     <g id="line2d_15">
      <g>
       <use style="stroke:#000000;stroke-width:0.5;" x="269.943193493" xlink:href="#m741efc42ff" y="21.318125"/>
      </g>
     </g>
     <g id="text_6">
      <!-- 250 -->
      <g transform="translate(261.097880993 256.1165625)scale(0.1 -0.1)">
       <use xlink:href="#BitstreamVeraSans-Roman-32"/>
       <use x="63.623046875" xlink:href="#BitstreamVeraSans-Roman-35"/>
       <use x="127.24609375" xlink:href="#BitstreamVeraSans-Roman-30"/>
      </g>
     </g>
    </g>
    <g id="xtick_7">
     <g id="line2d_16">
      <g>
       <use style="stroke:#000000;stroke-width:0.5;" x="315.806207192" xlink:href="#m93b0483c22" y="244.518125"/>
      </g>
     </g>
     <g id="line2d_17">
      <g>
       <use style="stroke:#000000;stroke-width:0.5;" x="315.806207192" xlink:href="#m741efc42ff" y="21.318125"/>
      </g>
     </g>
     <g id="text_7">
      <!-- 300 -->
      <defs>
       <path d="
M40.5781 39.3125
Q47.6562 37.7969 51.625 33
Q55.6094 28.2188 55.6094 21.1875
Q55.6094 10.4062 48.1875 4.48438
Q40.7656 -1.42188 27.0938 -1.42188
Q22.5156 -1.42188 17.6562 -0.515625
Q12.7969 0.390625 7.625 2.20312
L7.625 11.7188
Q11.7188 9.32812 16.5938 8.10938
Q21.4844 6.89062 26.8125 6.89062
Q36.0781 6.89062 40.9375 10.5469
Q45.7969 14.2031 45.7969 21.1875
Q45.7969 27.6406 41.2812 31.2656
Q36.7656 34.9062 28.7188 34.9062
L20.2188 34.9062
L20.2188 43.0156
L29.1094 43.0156
Q36.375 43.0156 40.2344 45.9219
Q44.0938 48.8281 44.0938 54.2969
Q44.0938 59.9062 40.1094 62.9062
Q36.1406 65.9219 28.7188 65.9219
Q24.6562 65.9219 20.0156 65.0312
Q15.375 64.1562 9.8125 62.3125
L9.8125 71.0938
Q15.4375 72.6562 20.3438 73.4375
Q25.25 74.2188 29.5938 74.2188
Q40.8281 74.2188 47.3594 69.1094
Q53.9062 64.0156 53.9062 55.3281
Q53.9062 49.2656 50.4375 45.0938
Q46.9688 40.9219 40.5781 39.3125" id="BitstreamVeraSans-Roman-33"/>
      </defs>
      <g transform="translate(306.975738442 256.1165625)scale(0.1 -0.1)">
       <use xlink:href="#BitstreamVeraSans-Roman-33"/>
       <use x="63.623046875" xlink:href="#BitstreamVeraSans-Roman-30"/>
       <use x="127.24609375" xlink:href="#BitstreamVeraSans-Roman-30"/>
      </g>
     </g>
    </g>
    <g id="xtick_8">
     <g id="line2d_18">
      <g>
       <use style="stroke:#000000;stroke-width:0.5;" x="361.66922089" xlink:href="#m93b0483c22" y="244.518125"/>
      </g>
     </g>
     <g id="line2d_19">
      <g>
       <use style="stroke:#000000;stroke-width:0.5;" x="361.66922089" xlink:href="#m741efc42ff" y="21.318125"/>
      </g>
     </g>
     <g id="text_8">
      <!-- 350 -->
      <g transform="translate(352.83875214 256.1165625)scale(0.1 -0.1)">
       <use xlink:href="#BitstreamVeraSans-Roman-33"/>
       <use x="63.623046875" xlink:href="#BitstreamVeraSans-Roman-35"/>
       <use x="127.24609375" xlink:href="#BitstreamVeraSans-Roman-30"/>
      </g>
     </g>
    </g>
    <g id="text_9">
     <!-- Julian day -->
     <defs>
      <path id="BitstreamVeraSans-Roman-20"/>
      <path d="
M9.8125 72.9062
L19.6719 72.9062
L19.6719 5.07812
Q19.6719 -8.10938 14.6719 -14.0625
Q9.67188 -20.0156 -1.42188 -20.0156
L-5.17188 -20.0156
L-5.17188 -11.7188
L-2.09375 -11.7188
Q4.4375 -11.7188 7.125 -8.04688
Q9.8125 -4.39062 9.8125 5.07812
z
" id="BitstreamVeraSans-Roman-4a"/>
      <path d="
M54.8906 33.0156
L54.8906 0
L45.9062 0
L45.9062 32.7188
Q45.9062 40.4844 42.875 44.3281
Q39.8438 48.1875 33.7969 48.1875
Q26.5156 48.1875 22.3125 43.5469
Q18.1094 38.9219 18.1094 30.9062
L18.1094 0
L9.07812 0
L9.07812 54.6875
L18.1094 54.6875
L18.1094 46.1875
Q21.3438 51.125 25.7031 53.5625
Q30.0781 56 35.7969 56
Q45.2188 56 50.0469 50.1719
Q54.8906 44.3438 54.8906 33.0156" id="BitstreamVeraSans-Roman-6e"/>
      <path d="
M9.42188 75.9844
L18.4062 75.9844
L18.4062 0
L9.42188 0
z
" id="BitstreamVeraSans-Roman-6c"/>
      <path d="
M9.42188 54.6875
L18.4062 54.6875
L18.4062 0
L9.42188 0
z

M9.42188 75.9844
L18.4062 75.9844
L18.4062 64.5938
L9.42188 64.5938
z
" id="BitstreamVeraSans-Roman-69"/>
      <path d="
M32.1719 -5.07812
Q28.375 -14.8438 24.75 -17.8125
Q21.1406 -20.7969 15.0938 -20.7969
L7.90625 -20.7969
L7.90625 -13.2812
L13.1875 -13.2812
Q16.8906 -13.2812 18.9375 -11.5156
Q21 -9.76562 23.4844 -3.21875
L25.0938 0.875
L2.98438 54.6875
L12.5 54.6875
L29.5938 11.9219
L46.6875 54.6875
L56.2031 54.6875
z
" id="BitstreamVeraSans-Roman-79"/>
      <path d="
M45.4062 46.3906
L45.4062 75.9844
L54.3906 75.9844
L54.3906 0
L45.4062 0
L45.4062 8.20312
Q42.5781 3.32812 38.25 0.953125
Q33.9375 -1.42188 27.875 -1.42188
Q17.9688 -1.42188 11.7344 6.48438
Q5.51562 14.4062 5.51562 27.2969
Q5.51562 40.1875 11.7344 48.0938
Q17.9688 56 27.875 56
Q33.9375 56 38.25 53.625
Q42.5781 51.2656 45.4062 46.3906
M14.7969 27.2969
Q14.7969 17.3906 18.875 11.75
Q22.9531 6.10938 30.0781 6.10938
Q37.2031 6.10938 41.2969 11.75
Q45.4062 17.3906 45.4062 27.2969
Q45.4062 37.2031 41.2969 42.8438
Q37.2031 48.4844 30.0781 48.4844
Q22.9531 48.4844 18.875 42.8438
Q14.7969 37.2031 14.7969 27.2969" id="BitstreamVeraSans-Roman-64"/>
      <path d="
M8.5 21.5781
L8.5 54.6875
L17.4844 54.6875
L17.4844 21.9219
Q17.4844 14.1562 20.5 10.2656
Q23.5312 6.39062 29.5938 6.39062
Q36.8594 6.39062 41.0781 11.0312
Q45.3125 15.6719 45.3125 23.6875
L45.3125 54.6875
L54.2969 54.6875
L54.2969 0
L45.3125 0
L45.3125 8.40625
Q42.0469 3.42188 37.7188 1
Q33.4062 -1.42188 27.6875 -1.42188
Q18.2656 -1.42188 13.375 4.4375
Q8.5 10.2969 8.5 21.5781" id="BitstreamVeraSans-Roman-75"/>
      <path d="
M34.2812 27.4844
Q23.3906 27.4844 19.1875 25
Q14.9844 22.5156 14.9844 16.5
Q14.9844 11.7188 18.1406 8.90625
Q21.2969 6.10938 26.7031 6.10938
Q34.1875 6.10938 38.7031 11.4062
Q43.2188 16.7031 43.2188 25.4844
L43.2188 27.4844
z

M52.2031 31.2031
L52.2031 0
L43.2188 0
L43.2188 8.29688
Q40.1406 3.32812 35.5469 0.953125
Q30.9531 -1.42188 24.3125 -1.42188
Q15.9219 -1.42188 10.9531 3.29688
Q6 8.01562 6 15.9219
Q6 25.1406 12.1719 29.8281
Q18.3594 34.5156 30.6094 34.5156
L43.2188 34.5156
L43.2188 35.4062
Q43.2188 41.6094 39.1406 45
Q35.0625 48.3906 27.6875 48.3906
Q23 48.3906 18.5469 47.2656
Q14.1094 46.1406 10.0156 43.8906
L10.0156 52.2031
Q14.9375 54.1094 19.5781 55.0469
Q24.2188 56 28.6094 56
Q40.4844 56 46.3438 49.8438
Q52.2031 43.7031 52.2031 31.2031" id="BitstreamVeraSans-Roman-61"/>
     </defs>
     <g transform="translate(183.47734375 270.7946875)scale(0.1 -0.1)">
      <use xlink:href="#BitstreamVeraSans-Roman-4a"/>
      <use x="29.4921875" xlink:href="#BitstreamVeraSans-Roman-75"/>
      <use x="92.87109375" xlink:href="#BitstreamVeraSans-Roman-6c"/>
      <use x="120.654296875" xlink:href="#BitstreamVeraSans-Roman-69"/>
      <use x="148.4375" xlink:href="#BitstreamVeraSans-Roman-61"/>
      <use x="209.716796875" xlink:href="#BitstreamVeraSans-Roman-6e"/>
      <use x="273.095703125" xlink:href="#BitstreamVeraSans-Roman-20"/>
      <use x="304.8828125" xlink:href="#BitstreamVeraSans-Roman-64"/>
      <use x="368.359375" xlink:href="#BitstreamVeraSans-Roman-61"/>
      <use x="429.638671875" xlink:href="#BitstreamVeraSans-Roman-79"/>
     </g>
    </g>
   </g>
   <g id="matplotlib.axis_2">
    <g id="ytick_1">
     <g id="line2d_20">
      <defs>
       <path d="
M0 0
L4 0" id="m728421d6d4" style="stroke:#000000;stroke-width:0.5;"/>
      </defs>
      <g>
       <use style="stroke:#000000;stroke-width:0.5;" x="40.628125" xlink:href="#m728421d6d4" y="244.518125"/>
      </g>
     </g>
     <g id="line2d_21">
      <defs>
       <path d="
M0 0
L-4 0" id="mcb0005524f" style="stroke:#000000;stroke-width:0.5;"/>
      </defs>
      <g>
       <use style="stroke:#000000;stroke-width:0.5;" x="375.428125" xlink:href="#mcb0005524f" y="244.518125"/>
      </g>
     </g>
     <g id="text_10">
      <!-- 0.0 -->
      <defs>
       <path d="
M10.6875 12.4062
L21 12.4062
L21 0
L10.6875 0
z
" id="BitstreamVeraSans-Roman-2e"/>
      </defs>
      <g transform="translate(22.0484375 247.2775)scale(0.1 -0.1)">
       <use xlink:href="#BitstreamVeraSans-Roman-30"/>
       <use x="63.623046875" xlink:href="#BitstreamVeraSans-Roman-2e"/>
       <use x="95.41015625" xlink:href="#BitstreamVeraSans-Roman-30"/>
      </g>
     </g>
    </g>
    <g id="ytick_2">
     <g id="line2d_22">
      <g>
       <use style="stroke:#000000;stroke-width:0.5;" x="40.628125" xlink:href="#m728421d6d4" y="216.618125"/>
      </g>
     </g>
     <g id="line2d_23">
      <g>
       <use style="stroke:#000000;stroke-width:0.5;" x="375.428125" xlink:href="#mcb0005524f" y="216.618125"/>
      </g>
     </g>
     <g id="text_11">
      <!-- 0.5 -->
      <g transform="translate(22.2578125 219.3775)scale(0.1 -0.1)">
       <use xlink:href="#BitstreamVeraSans-Roman-30"/>
       <use x="63.623046875" xlink:href="#BitstreamVeraSans-Roman-2e"/>
       <use x="95.41015625" xlink:href="#BitstreamVeraSans-Roman-35"/>
      </g>
     </g>
    </g>
    <g id="ytick_3">
     <g id="line2d_24">
      <g>
       <use style="stroke:#000000;stroke-width:0.5;" x="40.628125" xlink:href="#m728421d6d4" y="188.718125"/>
      </g>
     </g>
     <g id="line2d_25">
      <g>
       <use style="stroke:#000000;stroke-width:0.5;" x="375.428125" xlink:href="#mcb0005524f" y="188.718125"/>
      </g>
     </g>
     <g id="text_12">
      <!-- 1.0 -->
      <g transform="translate(22.4875 191.4775)scale(0.1 -0.1)">
       <use xlink:href="#BitstreamVeraSans-Roman-31"/>
       <use x="63.623046875" xlink:href="#BitstreamVeraSans-Roman-2e"/>
       <use x="95.41015625" xlink:href="#BitstreamVeraSans-Roman-30"/>
      </g>
     </g>
    </g>
    <g id="ytick_4">
     <g id="line2d_26">
      <g>
       <use style="stroke:#000000;stroke-width:0.5;" x="40.628125" xlink:href="#m728421d6d4" y="160.818125"/>
      </g>
     </g>
     <g id="line2d_27">
      <g>
       <use style="stroke:#000000;stroke-width:0.5;" x="375.428125" xlink:href="#mcb0005524f" y="160.818125"/>
      </g>
     </g>
     <g id="text_13">
      <!-- 1.5 -->
      <g transform="translate(22.696875 163.5775)scale(0.1 -0.1)">
       <use xlink:href="#BitstreamVeraSans-Roman-31"/>
       <use x="63.623046875" xlink:href="#BitstreamVeraSans-Roman-2e"/>
       <use x="95.41015625" xlink:href="#BitstreamVeraSans-Roman-35"/>
      </g>
     </g>
    </g>
    <g id="ytick_5">
     <g id="line2d_28">
      <g>
       <use style="stroke:#000000;stroke-width:0.5;" x="40.628125" xlink:href="#m728421d6d4" y="132.918125"/>
      </g>
     </g>
     <g id="line2d_29">
      <g>
       <use style="stroke:#000000;stroke-width:0.5;" x="375.428125" xlink:href="#mcb0005524f" y="132.918125"/>
      </g>
     </g>
     <g id="text_14">
      <!-- 2.0 -->
      <g transform="translate(22.121875 135.6775)scale(0.1 -0.1)">
       <use xlink:href="#BitstreamVeraSans-Roman-32"/>
       <use x="63.623046875" xlink:href="#BitstreamVeraSans-Roman-2e"/>
       <use x="95.41015625" xlink:href="#BitstreamVeraSans-Roman-30"/>
      </g>
     </g>
    </g>
    <g id="ytick_6">
     <g id="line2d_30">
      <g>
       <use style="stroke:#000000;stroke-width:0.5;" x="40.628125" xlink:href="#m728421d6d4" y="105.018125"/>
      </g>
     </g>
     <g id="line2d_31">
      <g>
       <use style="stroke:#000000;stroke-width:0.5;" x="375.428125" xlink:href="#mcb0005524f" y="105.018125"/>
      </g>
     </g>
     <g id="text_15">
      <!-- 2.5 -->
      <g transform="translate(22.33125 107.7775)scale(0.1 -0.1)">
       <use xlink:href="#BitstreamVeraSans-Roman-32"/>
       <use x="63.623046875" xlink:href="#BitstreamVeraSans-Roman-2e"/>
       <use x="95.41015625" xlink:href="#BitstreamVeraSans-Roman-35"/>
      </g>
     </g>
    </g>
    <g id="ytick_7">
     <g id="line2d_32">
      <g>
       <use style="stroke:#000000;stroke-width:0.5;" x="40.628125" xlink:href="#m728421d6d4" y="77.118125"/>
      </g>
     </g>
     <g id="line2d_33">
      <g>
       <use style="stroke:#000000;stroke-width:0.5;" x="375.428125" xlink:href="#mcb0005524f" y="77.118125"/>
      </g>
     </g>
     <g id="text_16">
      <!-- 3.0 -->
      <g transform="translate(22.1515625 79.8775)scale(0.1 -0.1)">
       <use xlink:href="#BitstreamVeraSans-Roman-33"/>
       <use x="63.623046875" xlink:href="#BitstreamVeraSans-Roman-2e"/>
       <use x="95.41015625" xlink:href="#BitstreamVeraSans-Roman-30"/>
      </g>
     </g>
    </g>
    <g id="ytick_8">
     <g id="line2d_34">
      <g>
       <use style="stroke:#000000;stroke-width:0.5;" x="40.628125" xlink:href="#m728421d6d4" y="49.218125"/>
      </g>
     </g>
     <g id="line2d_35">
      <g>
       <use style="stroke:#000000;stroke-width:0.5;" x="375.428125" xlink:href="#mcb0005524f" y="49.218125"/>
      </g>
     </g>
     <g id="text_17">
      <!-- 3.5 -->
      <g transform="translate(22.3609375 51.9775)scale(0.1 -0.1)">
       <use xlink:href="#BitstreamVeraSans-Roman-33"/>
       <use x="63.623046875" xlink:href="#BitstreamVeraSans-Roman-2e"/>
       <use x="95.41015625" xlink:href="#BitstreamVeraSans-Roman-35"/>
      </g>
     </g>
    </g>
    <g id="ytick_9">
     <g id="line2d_36">
      <g>
       <use style="stroke:#000000;stroke-width:0.5;" x="40.628125" xlink:href="#m728421d6d4" y="21.318125"/>
      </g>
     </g>
     <g id="line2d_37">
      <g>
       <use style="stroke:#000000;stroke-width:0.5;" x="375.428125" xlink:href="#mcb0005524f" y="21.318125"/>
      </g>
     </g>
     <g id="text_18">
      <!-- 4.0 -->
      <defs>
       <path d="
M37.7969 64.3125
L12.8906 25.3906
L37.7969 25.3906
z

M35.2031 72.9062
L47.6094 72.9062
L47.6094 25.3906
L58.0156 25.3906
L58.0156 17.1875
L47.6094 17.1875
L47.6094 0
L37.7969 0
L37.7969 17.1875
L4.89062 17.1875
L4.89062 26.7031
z
" id="BitstreamVeraSans-Roman-34"/>
      </defs>
      <g transform="translate(21.878125 24.0775)scale(0.1 -0.1)">
       <use xlink:href="#BitstreamVeraSans-Roman-34"/>
       <use x="63.623046875" xlink:href="#BitstreamVeraSans-Roman-2e"/>
       <use x="95.41015625" xlink:href="#BitstreamVeraSans-Roman-30"/>
      </g>
     </g>
    </g>
    <g id="text_19">
     <!-- PET (mm/day) -->
     <defs>
      <path d="
M52 44.1875
Q55.375 50.25 60.0625 53.125
Q64.75 56 71.0938 56
Q79.6406 56 84.2812 50.0156
Q88.9219 44.0469 88.9219 33.0156
L88.9219 0
L79.8906 0
L79.8906 32.7188
Q79.8906 40.5781 77.0938 44.375
Q74.3125 48.1875 68.6094 48.1875
Q61.625 48.1875 57.5625 43.5469
Q53.5156 38.9219 53.5156 30.9062
L53.5156 0
L44.4844 0
L44.4844 32.7188
Q44.4844 40.625 41.7031 44.4062
Q38.9219 48.1875 33.1094 48.1875
Q26.2188 48.1875 22.1562 43.5312
Q18.1094 38.875 18.1094 30.9062
L18.1094 0
L9.07812 0
L9.07812 54.6875
L18.1094 54.6875
L18.1094 46.1875
Q21.1875 51.2188 25.4844 53.6094
Q29.7812 56 35.6875 56
Q41.6562 56 45.8281 52.9688
Q50 49.9531 52 44.1875" id="BitstreamVeraSans-Roman-6d"/>
      <path d="
M8.01562 75.875
L15.8281 75.875
Q23.1406 64.3594 26.7812 53.3125
Q30.4219 42.2812 30.4219 31.3906
Q30.4219 20.4531 26.7812 9.375
Q23.1406 -1.70312 15.8281 -13.1875
L8.01562 -13.1875
Q14.5 -2 17.7031 9.0625
Q20.9062 20.125 20.9062 31.3906
Q20.9062 42.6719 17.7031 53.6562
Q14.5 64.6562 8.01562 75.875" id="BitstreamVeraSans-Roman-29"/>
      <path d="
M31 75.875
Q24.4688 64.6562 21.2812 53.6562
Q18.1094 42.6719 18.1094 31.3906
Q18.1094 20.125 21.3125 9.0625
Q24.5156 -2 31 -13.1875
L23.1875 -13.1875
Q15.875 -1.70312 12.2344 9.375
Q8.59375 20.4531 8.59375 31.3906
Q8.59375 42.2812 12.2031 53.3125
Q15.8281 64.3594 23.1875 75.875
z
" id="BitstreamVeraSans-Roman-28"/>
      <path d="
M19.6719 64.7969
L19.6719 37.4062
L32.0781 37.4062
Q38.9688 37.4062 42.7188 40.9688
Q46.4844 44.5312 46.4844 51.125
Q46.4844 57.6719 42.7188 61.2344
Q38.9688 64.7969 32.0781 64.7969
z

M9.8125 72.9062
L32.0781 72.9062
Q44.3438 72.9062 50.6094 67.3594
Q56.8906 61.8125 56.8906 51.125
Q56.8906 40.3281 50.6094 34.8125
Q44.3438 29.2969 32.0781 29.2969
L19.6719 29.2969
L19.6719 0
L9.8125 0
z
" id="BitstreamVeraSans-Roman-50"/>
      <path d="
M9.8125 72.9062
L55.9062 72.9062
L55.9062 64.5938
L19.6719 64.5938
L19.6719 43.0156
L54.3906 43.0156
L54.3906 34.7188
L19.6719 34.7188
L19.6719 8.29688
L56.7812 8.29688
L56.7812 0
L9.8125 0
z
" id="BitstreamVeraSans-Roman-45"/>
      <path d="
M-0.296875 72.9062
L61.375 72.9062
L61.375 64.5938
L35.5 64.5938
L35.5 0
L25.5938 0
L25.5938 64.5938
L-0.296875 64.5938
z
" id="BitstreamVeraSans-Roman-54"/>
      <path d="
M25.3906 72.9062
L33.6875 72.9062
L8.29688 -9.28125
L0 -9.28125
z
" id="BitstreamVeraSans-Roman-2f"/>
     </defs>
     <g transform="translate(14.7984375 167.82984375)rotate(-90.0)scale(0.1 -0.1)">
      <use xlink:href="#BitstreamVeraSans-Roman-50"/>
      <use x="60.302734375" xlink:href="#BitstreamVeraSans-Roman-45"/>
      <use x="123.486328125" xlink:href="#BitstreamVeraSans-Roman-54"/>
      <use x="184.5703125" xlink:href="#BitstreamVeraSans-Roman-20"/>
      <use x="216.357421875" xlink:href="#BitstreamVeraSans-Roman-28"/>
      <use x="255.37109375" xlink:href="#BitstreamVeraSans-Roman-6d"/>
      <use x="352.783203125" xlink:href="#BitstreamVeraSans-Roman-6d"/>
      <use x="450.1953125" xlink:href="#BitstreamVeraSans-Roman-2f"/>
      <use x="483.88671875" xlink:href="#BitstreamVeraSans-Roman-64"/>
      <use x="547.36328125" xlink:href="#BitstreamVeraSans-Roman-61"/>
      <use x="608.642578125" xlink:href="#BitstreamVeraSans-Roman-79"/>
      <use x="667.822265625" xlink:href="#BitstreamVeraSans-Roman-29"/>
     </g>
    </g>
   </g>
   <g id="text_20">
    <!-- daily grass PET at BRW -->
    <defs>
     <path d="
M44.2812 53.0781
L44.2812 44.5781
Q40.4844 46.5312 36.375 47.5
Q32.2812 48.4844 27.875 48.4844
Q21.1875 48.4844 17.8438 46.4375
Q14.5 44.3906 14.5 40.2812
Q14.5 37.1562 16.8906 35.375
Q19.2812 33.5938 26.5156 31.9844
L29.5938 31.2969
Q39.1562 29.25 43.1875 25.5156
Q47.2188 21.7812 47.2188 15.0938
Q47.2188 7.46875 41.1875 3.01562
Q35.1562 -1.42188 24.6094 -1.42188
Q20.2188 -1.42188 15.4531 -0.5625
Q10.6875 0.296875 5.42188 2
L5.42188 11.2812
Q10.4062 8.6875 15.2344 7.39062
Q20.0625 6.10938 24.8125 6.10938
Q31.1562 6.10938 34.5625 8.28125
Q37.9844 10.4531 37.9844 14.4062
Q37.9844 18.0625 35.5156 20.0156
Q33.0625 21.9688 24.7031 23.7812
L21.5781 24.5156
Q13.2344 26.2656 9.51562 29.9062
Q5.8125 33.5469 5.8125 39.8906
Q5.8125 47.6094 11.2812 51.7969
Q16.75 56 26.8125 56
Q31.7812 56 36.1719 55.2656
Q40.5781 54.5469 44.2812 53.0781" id="BitstreamVeraSans-Roman-73"/>
     <path d="
M44.3906 34.1875
Q47.5625 33.1094 50.5625 29.5938
Q53.5625 26.0781 56.5938 19.9219
L66.6094 0
L56 0
L46.6875 18.7031
Q43.0625 26.0312 39.6719 28.4219
Q36.2812 30.8125 30.4219 30.8125
L19.6719 30.8125
L19.6719 0
L9.8125 0
L9.8125 72.9062
L32.0781 72.9062
Q44.5781 72.9062 50.7344 67.6719
Q56.8906 62.4531 56.8906 51.9062
Q56.8906 45.0156 53.6875 40.4688
Q50.4844 35.9375 44.3906 34.1875
M19.6719 64.7969
L19.6719 38.9219
L32.0781 38.9219
Q39.2031 38.9219 42.8438 42.2188
Q46.4844 45.5156 46.4844 51.9062
Q46.4844 58.2969 42.8438 61.5469
Q39.2031 64.7969 32.0781 64.7969
z
" id="BitstreamVeraSans-Roman-52"/>
     <path d="
M19.6719 34.8125
L19.6719 8.10938
L35.5 8.10938
Q43.4531 8.10938 47.2812 11.4062
Q51.125 14.7031 51.125 21.4844
Q51.125 28.3281 47.2812 31.5625
Q43.4531 34.8125 35.5 34.8125
z

M19.6719 64.7969
L19.6719 42.8281
L34.2812 42.8281
Q41.5 42.8281 45.0312 45.5312
Q48.5781 48.25 48.5781 53.8125
Q48.5781 59.3281 45.0312 62.0625
Q41.5 64.7969 34.2812 64.7969
z

M9.8125 72.9062
L35.0156 72.9062
Q46.2969 72.9062 52.3906 68.2188
Q58.5 63.5312 58.5 54.8906
Q58.5 48.1875 55.375 44.2344
Q52.25 40.2812 46.1875 39.3125
Q53.4688 37.75 57.5 32.7812
Q61.5312 27.8281 61.5312 20.4062
Q61.5312 10.6406 54.8906 5.3125
Q48.25 0 35.9844 0
L9.8125 0
z
" id="BitstreamVeraSans-Roman-42"/>
     <path d="
M3.32812 72.9062
L13.2812 72.9062
L28.6094 11.2812
L43.8906 72.9062
L54.9844 72.9062
L70.3125 11.2812
L85.5938 72.9062
L95.6094 72.9062
L77.2969 0
L64.8906 0
L49.5156 63.2812
L33.9844 0
L21.5781 0
z
" id="BitstreamVeraSans-Roman-57"/>
     <path d="
M18.3125 70.2188
L18.3125 54.6875
L36.8125 54.6875
L36.8125 47.7031
L18.3125 47.7031
L18.3125 18.0156
Q18.3125 11.3281 20.1406 9.42188
Q21.9688 7.51562 27.5938 7.51562
L36.8125 7.51562
L36.8125 0
L27.5938 0
Q17.1875 0 13.2344 3.875
Q9.28125 7.76562 9.28125 18.0156
L9.28125 47.7031
L2.6875 47.7031
L2.6875 54.6875
L9.28125 54.6875
L9.28125 70.2188
z
" id="BitstreamVeraSans-Roman-74"/>
     <path d="
M41.1094 46.2969
Q39.5938 47.1719 37.8125 47.5781
Q36.0312 48 33.8906 48
Q26.2656 48 22.1875 43.0469
Q18.1094 38.0938 18.1094 28.8125
L18.1094 0
L9.07812 0
L9.07812 54.6875
L18.1094 54.6875
L18.1094 46.1875
Q20.9531 51.1719 25.4844 53.5781
Q30.0312 56 36.5312 56
Q37.4531 56 38.5781 55.875
Q39.7031 55.7656 41.0625 55.5156
z
" id="BitstreamVeraSans-Roman-72"/>
     <path d="
M45.4062 27.9844
Q45.4062 37.75 41.375 43.1094
Q37.3594 48.4844 30.0781 48.4844
Q22.8594 48.4844 18.8281 43.1094
Q14.7969 37.75 14.7969 27.9844
Q14.7969 18.2656 18.8281 12.8906
Q22.8594 7.51562 30.0781 7.51562
Q37.3594 7.51562 41.375 12.8906
Q45.4062 18.2656 45.4062 27.9844
M54.3906 6.78125
Q54.3906 -7.17188 48.1875 -13.9844
Q42 -20.7969 29.2031 -20.7969
Q24.4688 -20.7969 20.2656 -20.0938
Q16.0625 -19.3906 12.1094 -17.9219
L12.1094 -9.1875
Q16.0625 -11.3281 19.9219 -12.3438
Q23.7812 -13.375 27.7812 -13.375
Q36.625 -13.375 41.0156 -8.76562
Q45.4062 -4.15625 45.4062 5.17188
L45.4062 9.625
Q42.625 4.78125 38.2812 2.39062
Q33.9375 0 27.875 0
Q17.8281 0 11.6719 7.65625
Q5.51562 15.3281 5.51562 27.9844
Q5.51562 40.6719 11.6719 48.3281
Q17.8281 56 27.875 56
Q33.9375 56 38.2812 53.6094
Q42.625 51.2188 45.4062 46.3906
L45.4062 54.6875
L54.3906 54.6875
z
" id="BitstreamVeraSans-Roman-67"/>
    </defs>
    <g transform="translate(138.9409375 16.318125)scale(0.12 -0.12)">
     <use xlink:href="#BitstreamVeraSans-Roman-64"/>
     <use x="63.4765625" xlink:href="#BitstreamVeraSans-Roman-61"/>
     <use x="124.755859375" xlink:href="#BitstreamVeraSans-Roman-69"/>
     <use x="152.5390625" xlink:href="#BitstreamVeraSans-Roman-6c"/>
     <use x="180.322265625" xlink:href="#BitstreamVeraSans-Roman-79"/>
     <use x="239.501953125" xlink:href="#BitstreamVeraSans-Roman-20"/>
     <use x="271.2890625" xlink:href="#BitstreamVeraSans-Roman-67"/>
     <use x="334.765625" xlink:href="#BitstreamVeraSans-Roman-72"/>
     <use x="375.87890625" xlink:href="#BitstreamVeraSans-Roman-61"/>
     <use x="437.158203125" xlink:href="#BitstreamVeraSans-Roman-73"/>
     <use x="489.2578125" xlink:href="#BitstreamVeraSans-Roman-73"/>
     <use x="541.357421875" xlink:href="#BitstreamVeraSans-Roman-20"/>
     <use x="573.14453125" xlink:href="#BitstreamVeraSans-Roman-50"/>
     <use x="633.447265625" xlink:href="#BitstreamVeraSans-Roman-45"/>
     <use x="696.630859375" xlink:href="#BitstreamVeraSans-Roman-54"/>
     <use x="757.71484375" xlink:href="#BitstreamVeraSans-Roman-20"/>
     <use x="789.501953125" xlink:href="#BitstreamVeraSans-Roman-61"/>
     <use x="850.78125" xlink:href="#BitstreamVeraSans-Roman-74"/>
     <use x="889.990234375" xlink:href="#BitstreamVeraSans-Roman-20"/>
     <use x="921.77734375" xlink:href="#BitstreamVeraSans-Roman-42"/>
     <use x="990.380859375" xlink:href="#BitstreamVeraSans-Roman-52"/>
     <use x="1055.86328125" xlink:href="#BitstreamVeraSans-Roman-57"/>
    </g>
   </g>
   <g id="legend_1">
    <g id="patch_7">
     <path d="
M297.241 83.7594
L369.428 83.7594
L369.428 27.3181
L297.241 27.3181
z
" style="fill:#ffffff;stroke:#000000;stroke-linejoin:miter;"/>
    </g>
    <g id="line2d_38">
     <path d="
M305.641 37.0363
L322.441 37.0363" style="fill:none;stroke:#0000ff;stroke-linecap:square;"/>
    </g>
    <g id="line2d_39"/>
    <g id="text_21">
     <!-- 2012 -->
     <g transform="translate(335.640625 41.23625)scale(0.12 -0.12)">
      <use xlink:href="#BitstreamVeraSans-Roman-32"/>
      <use x="63.623046875" xlink:href="#BitstreamVeraSans-Roman-30"/>
      <use x="127.24609375" xlink:href="#BitstreamVeraSans-Roman-31"/>
      <use x="190.869140625" xlink:href="#BitstreamVeraSans-Roman-32"/>
     </g>
    </g>
    <g id="line2d_40">
     <path d="
M305.641 54.65
L322.441 54.65" style="fill:none;stroke:#008000;stroke-linecap:square;"/>
    </g>
    <g id="line2d_41"/>
    <g id="text_22">
     <!-- 2013 -->
     <g transform="translate(335.640625 58.85)scale(0.12 -0.12)">
      <use xlink:href="#BitstreamVeraSans-Roman-32"/>
      <use x="63.623046875" xlink:href="#BitstreamVeraSans-Roman-30"/>
      <use x="127.24609375" xlink:href="#BitstreamVeraSans-Roman-31"/>
      <use x="190.869140625" xlink:href="#BitstreamVeraSans-Roman-33"/>
     </g>
    </g>
    <g id="line2d_42">
     <path d="
M305.641 72.2638
L322.441 72.2638" style="fill:none;stroke:#ff0000;stroke-linecap:square;"/>
    </g>
    <g id="line2d_43"/>
    <g id="text_23">
     <!-- 2014 -->
     <g transform="translate(335.640625 76.46375)scale(0.12 -0.12)">
      <use xlink:href="#BitstreamVeraSans-Roman-32"/>
      <use x="63.623046875" xlink:href="#BitstreamVeraSans-Roman-30"/>
      <use x="127.24609375" xlink:href="#BitstreamVeraSans-Roman-31"/>
      <use x="190.869140625" xlink:href="#BitstreamVeraSans-Roman-34"/>
     </g>
    </g>
   </g>
  </g>
 </g>
 <defs>
  <clipPath id="p2d16512a00">
   <rect height="223.2" width="334.8" x="40.628125" y="21.318125"/>
  </clipPath>
 </defs>
</svg>
