<?xml version="1.0" encoding="utf-8" standalone="no"?>
<!DOCTYPE svg PUBLIC "-//W3C//DTD SVG 1.1//EN"
  "http://www.w3.org/Graphics/SVG/1.1/DTD/svg11.dtd">
<!-- Created with matplotlib (http://matplotlib.org/) -->
<svg height="280pt" version="1.1" viewBox="0 0 382 280" width="382pt" xmlns="http://www.w3.org/2000/svg" xmlns:xlink="http://www.w3.org/1999/xlink">
 <defs>
  <style type="text/css">
*{stroke-linecap:butt;stroke-linejoin:round;}
  </style>
 </defs>
 <g id="figure_1">
  <g id="patch_1">
   <path d="
M0 280.074
L382.628 280.074
L382.628 0
L0 0
z
" style="fill:#ffffff;"/>
  </g>
  <g id="axes_1">
   <g id="patch_2">
    <path d="
M40.6281 244.518
L375.428 244.518
L375.428 21.3181
L40.6281 21.3181
z
" style="fill:#ffffff;"/>
   </g>
   <g id="line2d_1">
    <path clip-path="url(#p2d16512a00)" d="
M0 0" style="fill:none;stroke:#0000ff;stroke-linecap:square;"/>
   </g>
   <g id="line2d_2">
    <path clip-path="url(#p2d16512a00)" d="
M40.6281 201.258
L41.5454 194.928
L42.4626 187.261
L43.3799 171.129
L44.2972 205.283
L45.2144 218.872
L46.1317 214.396
L47.0489 226.403
L47.9662 215.09
L48.8835 221.864
L49.8007 204.141
L50.718 147.079
L51.6352 130.731
L52.5525 146.694
L53.4698 212.495
L54.387 219.243
L55.3043 176.634
L56.2215 196.661
L57.1388 235.734
L58.9733 233.774
L59.8906 214.393
M65.3942 208.928
L66.3114 160.897
L67.2287 229.931
L68.1459 218.024
L69.0632 211.767
L69.9805 240.038
L70.8977 229.489
L71.815 214.276
L72.7322 208.459
L73.6495 199.957
L74.5668 187.723
L75.484 203.789
L76.4013 229.236
L77.3185 225.533
L78.2358 220.437
L79.1531 192.669
L80.0703 193.812
L80.9876 226.103
L82.8221 201.715
L83.7394 201.96
L84.6566 237.921
L85.5739 215.926
L86.4911 204.774
L87.4084 233.4
L88.3257 225.605
L89.2429 198.867
L90.1602 179.391
L91.0774 200.662
L91.9947 215.819
L92.912 219.923
L93.8292 198.481
L94.7465 203.99
L95.6637 217.722
L96.581 209.831
L97.4983 239.757
L98.4155 223.311
L99.3328 179.942
L100.25 220.759
L101.167 168.697
L102.085 166.257
L103.002 168.47
L103.919 155.246
L104.836 191.34
L105.754 197.486
L106.671 201.339
L107.588 232.034
L108.505 224.931
L109.423 225.045
L110.34 235.313
M112.174 226.056
L113.092 232.248
L114.009 212.8
L114.926 167.034
L115.843 206.451
L116.761 167.135
L118.595 230.433
L119.513 191.304
L120.43 218.487
L121.347 209.543
L122.264 222.73
L123.182 177.775
L124.099 176.235
L125.016 189.611
L125.933 164.493
L126.851 202.31
L127.768 207.878
L128.685 211.223
L129.602 159.915
L130.52 120.335
L131.437 144.617
L132.354 130.084
L133.271 188.158
L134.189 157.402
L135.106 197.835
L136.023 164.653
L136.94 157.389
L137.858 196.676
L138.775 155.338
L139.692 190.445
L140.609 209.353
L141.527 148.7
L142.444 137.538
L143.361 128.847
L144.279 148.337
L145.196 148.296
L146.113 169.173
L147.03 226.115
L147.948 190.475
L148.865 172.384
L149.782 138.605
L150.699 204.268
L151.617 149.242
L152.534 144.754
L153.451 194.43
L154.368 217.349
L155.286 205.824
L156.203 141.962
L157.12 116.561
L158.037 108.203
L158.955 117.77
L159.872 80.29
L160.789 60.2695
L161.706 64.5382
L162.624 75.8963
L163.541 97.668
L164.458 139.647
L165.376 93.4031
L166.293 131.812
L167.21 72.7146
L168.127 60.192
L169.045 81.9764
L169.962 163.276
L170.879 131.217
L171.796 144.443
L172.714 114.472
L173.631 170.769
L174.548 195.383
L175.465 132.517
L176.383 120.192
L177.3 73.7526
L178.217 72.0672
L179.134 110.774
L180.052 85.8376
L180.969 118.338
L181.886 109.745
L182.803 123.003
L183.721 181.07
L184.638 68.7423
L185.555 100.631
L186.473 119.664
L187.39 177.31
L188.307 93.4542
L189.224 60.8565
L190.142 122.235
L191.059 84.7067
L191.976 61.5999
L192.893 72.5726
L193.811 96.9897
L194.728 101.371
L195.645 86.9085
L196.562 98.7686
L197.48 73.8755
L198.397 86.3495
L199.314 95.6942
L201.149 86.5877
L202.066 81.1919
L202.983 119.494
L203.9 78.2357
L204.818 87.29
L205.735 101.714
L206.652 99.3041
L207.569 124.795
L208.487 105.276
L209.404 91.2964
L210.321 80.861
L211.239 105.731
L212.156 113.646
L213.073 112.133
L213.99 147.166
L214.908 134.374
L215.825 116.033
L216.742 124.912
L217.659 122.264
L218.577 167.068
L219.494 165.511
L220.411 136.535
L221.328 155.106
L222.246 111.17
L223.163 102.413
L224.08 118.606
L224.997 107.237
L225.915 106.935
L226.832 118.386
L227.749 117.109
L228.666 104.648
L229.584 122.87
L230.501 120.578
L231.418 127.829
L232.336 121.28
L233.253 122.178
L234.17 118.46
L235.087 118.877
L236.005 114.187
L236.922 108.29
L237.839 115.032
L238.756 116.954
L239.674 127.05
L240.591 121.266
L241.508 130.714
L242.425 144.034
L243.343 134.575
L244.26 153.192
L245.177 121.382
L246.094 135.998
L247.012 135.189
L247.929 131.201
L248.846 126.104
L249.763 132.611
L250.681 131.964
L251.598 129.725
L252.515 156.399
L253.433 141.75
L254.35 148.969
L255.267 136.272
L256.184 128.798
L257.102 103.534
L258.019 116.548
L258.936 144.064
L259.853 144.53
L260.771 135.656
L261.688 132.563
L262.605 124.229
L263.522 146.784
M267.191 124.611
L268.109 134.552
L269.026 163.742
L269.943 130.371
L270.86 137.452
L271.778 143.014
L272.695 129.896
L273.612 125.769
L274.529 112.056
L275.447 129.275
L276.364 140.208
L277.281 130.318
L278.199 135.663
L279.116 129.003
L280.033 133.22
L280.95 140.326
L281.868 152.312
L282.785 156.771
L283.702 146.631
L284.619 197.16
L285.537 151.008
L286.454 171.861
L287.371 158.104
L288.288 146.803
L289.206 152.225
L290.123 148.38
L291.04 148.573
L291.957 127.533
M294.709 210.66
L295.626 110.254
L296.544 108.002
L297.461 116.694
L298.378 117.08
L299.296 133.208
L300.213 138.599
L301.13 140.716
L302.047 137.642
L302.965 168.414
L303.882 146.652
L304.799 186.046
L305.716 172.273
L306.634 136.598
L307.551 125.696
L308.468 164.857
L309.385 190.731
L310.303 149.866
L311.22 231.814
L312.137 241.77
M313.972 236.169
L314.889 239.584
L315.806 215.51
L316.723 210.81
L317.641 180.557
L318.558 168.402
L319.475 158.931
L320.393 188.681
L321.31 189.201
L322.227 189.999
L323.144 186.674
L324.062 211.1
L324.979 190.263
L325.896 200.886
L327.731 227.121
L328.648 221.986
M330.482 221.12
L331.4 232.742
L332.317 238.927
L333.234 220.432
L334.151 208.993
L335.069 230.686
L335.986 226.739
L336.903 237.675
L337.82 219.853
L338.738 222.472
L339.655 209.926
L340.572 168.573
L341.489 199.628
L342.407 211.628
L343.324 201.612
L344.241 218.939
L345.159 218.15
L346.076 221.053
L346.993 221.744
L347.91 224.938
L348.828 226.648
L349.745 227.91
L350.662 219.424
L351.579 241.159
L352.497 237.889
L353.414 212.168
L354.331 220.682
L355.248 200.027
L356.166 223.954
L357.083 222.241
L358 224.603
L358.917 215.926
L359.835 225.919
L360.752 218.225
L361.669 226.919
L362.586 228.703
L363.504 229.048
L364.421 220.128
L365.338 189.402
L366.256 150.942
L367.173 199.586
L368.09 224.015
L369.007 218.783
L369.925 217.94
L370.842 225.977
L371.759 229.841
L372.676 243.441
L373.594 221.494
L374.511 223.054
L374.511 223.054" style="fill:none;stroke:#008000;stroke-linecap:square;"/>
   </g>
   <g id="line2d_3">
    <path clip-path="url(#p2d16512a00)" d="
M40.6281 230.824
L41.5454 202.904
L42.4626 184.385
L43.3799 209.319
L44.2972 238.569
L45.2144 211.482
L46.1317 239.235
L47.0489 234.882
L47.9662 228.272
L48.8835 226.566
L49.8007 207.385
L50.718 172.024
L51.6352 212.794
L52.5525 206.437
L53.4698 214.859
L54.387 207
L55.3043 177.456
L56.2215 178.099
L57.1388 184.119
L58.0561 176.345
L58.9733 186.663
L59.8906 187.754
L60.8079 162.283
L61.7251 194.183
L62.6424 240.152
L63.5596 232.201
L64.4769 212.385
L65.3942 220.585
L66.3114 224.232
L67.2287 230.537
L68.1459 238.282
L69.0632 233.177
M71.815 208.849
L72.7322 225.117
L73.6495 228.255
L74.5668 222.123
L75.484 201.856
L76.4013 239.872
L77.3185 206.865
L78.2358 199.345
L79.1531 237.117
L80.9876 229.691
L81.9048 214.795
L82.8221 212.197
L83.7394 224.686
L84.6566 197.161
L85.5739 200.633
L86.4911 214.924
L87.4084 192.75
L88.3257 223.451
L89.2429 222.994
L90.1602 224.514
L91.0774 236.043
L91.9947 192.214
L92.912 191.02
L93.8292 202.687
L94.7465 217.05
L95.6637 225.051
L96.581 205.524
L97.4983 171.518
L98.4155 181.593
L99.3328 207.378
L100.25 207.52
L101.167 188.316
L102.085 180.935
L103.002 153.514
L103.919 212.758
L104.836 219.071
L105.754 175.005
L106.671 168.281
L107.588 180.286
L108.505 201.968
L109.423 188.566
L110.34 188.998
L111.257 137.47
L112.174 184.799
L113.092 200.726
L114.009 214.461
L114.926 207.932
L116.761 153.762
L117.678 199.639
L118.595 207.392
L119.513 173.652
L120.43 182.06
L121.347 166.069
L122.264 158.981
L123.182 182.513
L124.099 167.649
L125.016 162.54
L125.933 188.524
L126.851 199.338
L127.768 204.019
L128.685 240.547
L129.602 217.604
L130.52 177.831
L131.437 195.486
L132.354 189.05
L133.271 139.865
L134.189 186.238
L135.106 207.36
L136.023 213.817
L136.94 185.429
L137.858 144.156
L138.775 137.224
L139.692 212.257
L140.609 216.141
L142.444 170.881
L143.361 166.013
L144.279 125.755
L145.196 113.711
L146.113 132.007
L147.03 136.702
L147.948 109.669
L148.865 159.571
L149.782 137.361
L150.699 83.1794
L151.617 72.3063
L152.534 83.4383
L153.451 116.282
L154.368 103.712
L155.286 137.205
L156.203 141.387
L157.12 152.288
L158.037 123.84
L158.955 118.033
L159.872 106.443
L160.789 113.149
L161.706 117.438
L162.624 94.2413
L163.541 108.024
L164.458 152.138
L165.376 170.729
L166.293 97.9636
L167.21 157.271
L168.127 81.0905
L169.045 128.37
L170.879 36.6674
L171.796 53.1396
L172.714 60.5001
L173.631 131.764
L174.548 134.439
L175.465 186.584
L176.383 152.348
L177.3 137.118
L178.217 75.7552
L179.134 79.0092
L180.052 78.2439
L180.969 73.5377
L181.886 98.8232
L182.803 86.9704
L183.721 109.522
L184.638 99.3634
L185.555 99.1064
L186.473 100.713
L187.39 115.199
L188.307 112.892
L189.224 88.402
L190.142 119.091
L191.059 101.76
L191.976 77.4943
L192.893 107.29
L193.811 98.1065
L194.728 101.128
L195.645 182.794
L196.562 122.811
L197.48 125.85
L198.397 115.764
L199.314 111.382
L200.231 166.081
L201.149 199.865
L202.066 122.751
L202.983 111.095
L203.9 110.141
L204.818 131.843
L205.735 130.268
L206.652 127.26
L207.569 132.706
L208.487 147.566
L209.404 120.281
L210.321 119.036
L211.239 105.516
L212.156 114.902
L213.073 120.769
L213.99 105.31
L214.908 117.589
L215.825 149.294
L216.742 109.099
L217.659 93.0323
L219.494 114.927
L220.411 145.641
L221.328 116.372
L222.246 110.873
L223.163 116.1
L224.08 113.726
L224.997 111.919
L225.915 108.644
L226.832 121.809
L227.749 143.051
L228.666 124.665
L229.584 138.067
L230.501 123.287
L231.418 116.764
L232.336 118.639
L233.253 118.28
L234.17 138.009
L235.087 124.065
L236.005 119.783
L236.922 105.844
L237.839 115.253
L238.756 121.027
L239.674 122.432
L240.591 126.219
L241.508 128.034
L242.425 126.692
L243.343 125.58
L244.26 143.944
L245.177 143.151
L246.094 129.963
L247.012 128.521
L247.929 137.125
L248.846 132.548
L249.763 144.046
L250.681 137.16
L251.598 142.256
L252.515 137.165
L253.433 144.842
L254.35 163.078
L255.267 144.781
L256.184 155.793
L258.019 134.298
L258.936 145.856
L259.853 153.53
L260.771 150.758
L261.688 139.952
L262.605 139.774
L263.522 146.772
L264.44 176.104
L265.357 199.694
L266.274 172.615
L267.191 188.895
L268.109 160.623
L269.026 141.442
L269.943 144.26
L270.86 146.528
L271.778 154.102
L272.695 154.813
L273.612 190.716
L274.529 174.296
L275.447 163.16
L276.364 160.285
L277.281 153.27
L278.199 192.492
L279.116 191.389
L280.033 145.56
L280.95 138.768
L281.868 176.365
L282.785 201.936
L283.702 165.087
L284.619 207.321
L285.537 215.541
L287.371 148.949
L288.288 160.808
L289.206 208.384
L290.123 182.137
L291.04 184.533
L291.957 155.967
L292.875 204.593
L293.792 136.376
L294.709 118.067
L295.626 125.42
L296.544 149.409
L297.461 187.365
L298.378 159.407
L299.296 183.198
L300.213 159.871
L301.13 151.881
L302.047 170.122
L302.965 154.094
L303.882 164.379
L304.799 146.106
L305.716 144.192
L306.634 138.308
L307.551 143.304
L308.468 153.582
L309.385 157.833
L310.303 151.156
L311.22 159.059
L312.137 161.735
L313.054 155.723
L313.972 160.499
L314.889 168.362
L315.806 197.117
L316.723 204.712
L317.641 214.568
L318.558 201.502
L319.475 214.85
L320.393 226.487
L321.31 223.88
L322.227 194.749
L323.144 208.786
L324.062 219.908
L324.979 206.823
L325.896 206.882
L326.813 161.121
L327.731 172.653
L328.648 177.493
L329.565 174.769
L330.482 199.376
L331.4 208.268
L332.317 211.372
L333.234 232.991
L334.151 234.997
L335.069 211.47
L335.986 217.766
L336.903 225.704
L337.82 148.393
L338.738 181.343
L339.655 189.229
L340.572 164.885
L341.489 176.961
L342.407 185.772
L343.324 193.029
L344.241 192.729
L345.159 209.302
L346.076 220.916
L346.993 225.186
L347.91 219.99
L348.828 217.278
L349.745 188.529
L351.579 203.516
L352.497 229.331
L353.414 231.185
L354.331 243.337
L355.248 181.823
L356.166 229.814
L357.083 221.789
L358 199.771
L358.917 223.661
L359.835 196.651
L360.752 188.245
L361.669 165.333
L362.586 216.063
L363.504 225.868
L364.421 206.806
L365.338 224.863
L366.256 231.886
L367.173 234.756
L368.09 227.291
L369.007 209.714
L369.925 167.354
L370.842 170.446
L371.759 218.838
L372.676 200.887
L373.594 214.321
L374.511 209.916
L374.511 209.916" style="fill:none;stroke:#ff0000;stroke-linecap:square;"/>
   </g>
   <g id="line2d_4">
    <path clip-path="url(#p2d16512a00)" d="
M40.6281 219.33
L41.5454 199.675
L42.4626 225.81
L43.3799 226.221
L44.2972 179.768
L45.2144 160.958
L46.1317 185.568
L47.0489 232.116
L47.9662 229.12
L48.8835 233.805
L49.8007 242.188
L50.718 229.632
L51.6352 226.013
L52.5525 213.339
L53.4698 217.97
L54.387 181.314
L55.3043 177.826
L56.2215 180.187
L57.1388 177.94
L58.0561 197.647
L58.9733 193.19
L59.8906 201.152
L60.8079 216.438
L62.6424 157.871
L63.5596 177.322
L64.4769 186.708
L65.3942 182.899
L66.3114 225.053
L67.2287 240.684
L68.1459 222.203
L69.0632 229.319
L69.9805 221.097
L70.8977 226.045
L71.815 215.959
L72.7322 219.507
L73.6495 226.922
L74.5668 223.985
L75.484 234.854
L76.4013 243.564
M78.2358 242.905
L79.1531 237.292
L80.0703 224.126
L80.9876 209.116
L81.9048 211.96
L82.8221 217.833
L83.7394 175.145
L84.6566 207.68
L85.5739 210.002
L86.4911 227.645
L87.4084 211.069
L88.3257 216.85
L89.2429 206.575
L90.1602 205.393
L91.0774 206.748
L91.9947 222.187
L92.912 222.269
L93.8292 224.906
L94.7465 234.154
L95.6637 239.684
M97.4983 217.549
L98.4155 227.925
L99.3328 214.321
L100.25 209.582
L101.167 195.977
L102.085 200.04
L103.002 219.426
L103.919 179.7
L104.836 167.742
L105.754 168.367
L106.671 215.86
L108.505 164.908
L109.423 201.179
L110.34 225.937
L111.257 177.012
L112.174 193.443
L113.092 168.941
L114.009 148.296
L114.926 159.417
L115.843 164.864
L116.761 202.689
L117.678 205.572
L118.595 230.961
L119.513 236.001
M121.347 243.67
L122.264 240.893
M124.099 238.977
L125.016 203.14
L125.933 221.109
L126.851 221.506
L127.768 214.14
L128.685 182.822
L129.602 169.412
L130.52 182.499
L131.437 162.335
L132.354 158.207
L133.271 169.119
L134.189 168.258
L135.106 130.288
L136.023 150.103
L136.94 135.803
L137.858 177.851
L138.775 148.788
L139.692 143.5
L140.609 163.925
L141.527 136.102
L142.444 221.585
L143.361 237.47
L144.279 206.301
L145.196 237.457
L146.113 204.654
L147.03 210.906
L147.948 193.194
L148.865 150.018
L149.782 146.867
L150.699 141.092
L151.617 139.603
L152.534 147.568
L153.451 147.468
L154.368 177.847
L155.286 144.879
L156.203 128.864
L157.12 163.982
L158.037 157.566
L158.955 179.686
L159.872 117.107
L160.789 112.771
L161.706 101.742
L162.624 122.591
L163.541 119.013
L164.458 126.879
L165.376 99.8751
L166.293 135.605
L167.21 109.854
L168.127 152.291
L169.045 166.955
L169.962 96.0465
L171.796 141.826
L172.714 136.562
L173.631 112.844
L174.548 110.073
L175.465 110.396
L176.383 87.0047
L177.3 93.7057
L178.217 86.5339
L179.134 102.395
L180.052 102.193
L180.969 96.7461
L181.886 89.4642
L182.803 84.2586
L183.721 80.7898
L184.638 104.802
L185.555 90.5685
L186.473 99.9377
L187.39 92.3904
L188.307 86.4921
L189.224 108.569
L190.142 140.112
L191.059 121.691
L192.893 137.553
L193.811 142.786
L194.728 165.269
L195.645 87.6586
L196.562 95.7113
L197.48 95.0582
L198.397 88.3446
L199.314 100.766
L200.231 116.847
L201.149 170.166
L202.066 143.352
L202.983 155.925
L203.9 120.297
L204.818 94.3237
L205.735 95.6537
L206.652 106.641
L207.569 135.983
L208.487 127.233
L209.404 129.951
L210.321 118.898
L211.239 116.546
L212.156 116.441
L213.073 131.535
L213.99 155.52
L214.908 123.031
L215.825 130.061
L216.742 111.126
L217.659 132.686
L218.577 125.787
L219.494 125.524
L221.328 142.007
L222.246 110.465
L223.163 120.007
L224.08 137.688
L224.997 166.74
L225.915 144.228
L226.832 125.461
L227.749 111.714
L228.666 104.505
L229.584 111.436
L230.501 127.371
L231.418 145.76
L232.336 145.698
L233.253 146.379
L234.17 137.415
L235.087 131.593
L236.005 139.846
L237.839 148.436
L238.756 167.268
L239.674 168.313
L240.591 135.393
L241.508 144.702
L242.425 141.082
L243.343 148.426
L244.26 145.336
L245.177 155.2
L246.094 185.923
L247.012 154.152
L247.929 135.305
L248.846 135.024
L249.763 129.354
L250.681 133.132
L251.598 148.522
L252.515 151.775
L253.433 145.597
L254.35 150.056
L255.267 141.761
L257.102 163.606
L258.019 174.806
L258.936 136.895
L259.853 146.59
L260.771 143.104
L261.688 161.527
L262.605 142.466
L263.522 134.793
L264.44 136.479
L265.357 146.888
L266.274 125.869
L267.191 127.577
L268.109 134.199
L269.026 137.489
L269.943 142.901
L270.86 136.772
L271.778 142.319
L272.695 131.976
L273.612 119.073
L274.529 138.72
L275.447 142.507
L276.364 150.269
L278.199 160.379
L279.116 170.193
L280.033 166.358
L280.95 160.222
L281.868 195.892
L282.785 194.105
L283.702 186.676
L284.619 161.648
L285.537 156.921
L286.454 142.934
L287.371 198.337
L288.288 196.873
L289.206 213.596
L290.123 183.793
L291.04 177.657
L291.957 147.119
L292.875 134.688
L293.792 146.155
L294.709 150.534
L295.626 160.1
L297.461 155.154
L298.378 153.814
L299.296 160.005
L300.213 173.609
L301.13 164.02
L302.047 146.207
L302.965 160.701
L303.882 214.783
L304.799 187.823
L305.716 145.544
L307.551 164.121
L308.468 153.215
L309.385 229.138
L310.303 185.592
L311.22 211.359
L312.137 177.384
L313.054 187.864
L313.972 211.304
L314.889 191.58
L315.806 155.595
L316.723 176.803
L317.641 172.693
L318.558 181.583
L319.475 215.468
M322.227 238.297
L323.144 223.317
L324.062 195.977
L324.979 198.403
L325.896 178.501
L326.813 216.131
L327.731 219.476
L328.648 224.291
L329.565 172.537
L330.482 194.834
L331.4 233.383
L332.317 223.208
L333.234 238.058
L334.151 154.471
L335.069 169.604
L335.986 170.905
L337.82 234.957
L338.738 238.559
L339.655 235.371
L340.572 229.027
L341.489 240.867
L342.407 216.248
L343.324 196.082
L344.241 185.343
L345.159 233.452
L346.076 216.003
L346.993 213.535
M348.828 243.208
L349.745 234.902
L350.662 214.431
L351.579 226.897
L352.497 193.899
L353.414 220.634
L354.331 220.571
L355.248 211.22
L356.166 185.061
L357.083 223.129
L358 235.985
L358.917 209.755
L359.835 200.643
L360.752 238.175
L361.669 232.389
M365.338 243.67
L366.256 239.521
L367.173 238.143
M371.759 233.096
L372.676 229.224
L373.594 233.212
L374.511 218.646
L374.511 218.646" style="fill:none;stroke:#00bfbf;stroke-linecap:square;"/>
   </g>
   <g id="patch_3">
    <path d="
M40.6281 21.3181
L375.428 21.3181" style="fill:none;stroke:#000000;stroke-linecap:square;stroke-linejoin:miter;"/>
   </g>
   <g id="patch_4">
    <path d="
M375.428 244.518
L375.428 21.3181" style="fill:none;stroke:#000000;stroke-linecap:square;stroke-linejoin:miter;"/>
   </g>
   <g id="patch_5">
    <path d="
M40.6281 244.518
L375.428 244.518" style="fill:none;stroke:#000000;stroke-linecap:square;stroke-linejoin:miter;"/>
   </g>
   <g id="patch_6">
    <path d="
M40.6281 244.518
L40.6281 21.3181" style="fill:none;stroke:#000000;stroke-linecap:square;stroke-linejoin:miter;"/>
   </g>
   <g id="matplotlib.axis_1">
    <g id="xtick_1">
     <g id="line2d_5">
      <defs>
       <path d="
M0 0
L0 -4" id="mc7db9fdffb" style="stroke:#000000;stroke-width:0.5;"/>
      </defs>
      <g>
       <use style="stroke:#000000;stroke-width:0.5;" x="40.628125" xlink:href="#mc7db9fdffb" y="244.518125"/>
      </g>
     </g>
     <g id="line2d_6">
      <defs>
       <path d="
M0 0
L0 4" id="m5a7d422ac3" style="stroke:#000000;stroke-width:0.5;"/>
      </defs>
      <g>
       <use style="stroke:#000000;stroke-width:0.5;" x="40.628125" xlink:href="#m5a7d422ac3" y="21.318125"/>
      </g>
     </g>
     <g id="text_1">
      <!-- 0 -->
      <defs>
       <path d="
M31.7812 66.4062
Q24.1719 66.4062 20.3281 58.9062
Q16.5 51.4219 16.5 36.375
Q16.5 21.3906 20.3281 13.8906
Q24.1719 6.39062 31.7812 6.39062
Q39.4531 6.39062 43.2812 13.8906
Q47.125 21.3906 47.125 36.375
Q47.125 51.4219 43.2812 58.9062
Q39.4531 66.4062 31.7812 66.4062
M31.7812 74.2188
Q44.0469 74.2188 50.5156 64.5156
Q56.9844 54.8281 56.9844 36.375
Q56.9844 17.9688 50.5156 8.26562
Q44.0469 -1.42188 31.7812 -1.42188
Q19.5312 -1.42188 13.0625 8.26562
Q6.59375 17.9688 6.59375 36.375
Q6.59375 54.8281 13.0625 64.5156
Q19.5312 74.2188 31.7812 74.2188" id="BitstreamVeraSans-Roman-30"/>
      </defs>
      <g transform="translate(38.10859375 256.1165625)scale(0.1 -0.1)">
       <use xlink:href="#BitstreamVeraSans-Roman-30"/>
      </g>
     </g>
    </g>
    <g id="xtick_2">
     <g id="line2d_7">
      <g>
       <use style="stroke:#000000;stroke-width:0.5;" x="86.4911386986" xlink:href="#mc7db9fdffb" y="244.518125"/>
      </g>
     </g>
     <g id="line2d_8">
      <g>
       <use style="stroke:#000000;stroke-width:0.5;" x="86.4911386986" xlink:href="#m5a7d422ac3" y="21.318125"/>
      </g>
     </g>
     <g id="text_2">
      <!-- 50 -->
      <defs>
       <path d="
M10.7969 72.9062
L49.5156 72.9062
L49.5156 64.5938
L19.8281 64.5938
L19.8281 46.7344
Q21.9688 47.4688 24.1094 47.8281
Q26.2656 48.1875 28.4219 48.1875
Q40.625 48.1875 47.75 41.5
Q54.8906 34.8125 54.8906 23.3906
Q54.8906 11.625 47.5625 5.09375
Q40.2344 -1.42188 26.9062 -1.42188
Q22.3125 -1.42188 17.5469 -0.640625
Q12.7969 0.140625 7.71875 1.70312
L7.71875 11.625
Q12.1094 9.23438 16.7969 8.0625
Q21.4844 6.89062 26.7031 6.89062
Q35.1562 6.89062 40.0781 11.3281
Q45.0156 15.7656 45.0156 23.3906
Q45.0156 31 40.0781 35.4375
Q35.1562 39.8906 26.7031 39.8906
Q22.75 39.8906 18.8125 39.0156
Q14.8906 38.1406 10.7969 36.2812
z
" id="BitstreamVeraSans-Roman-35"/>
      </defs>
      <g transform="translate(80.8466074486 256.1165625)scale(0.1 -0.1)">
       <use xlink:href="#BitstreamVeraSans-Roman-35"/>
       <use x="63.623046875" xlink:href="#BitstreamVeraSans-Roman-30"/>
      </g>
     </g>
    </g>
    <g id="xtick_3">
     <g id="line2d_9">
      <g>
       <use style="stroke:#000000;stroke-width:0.5;" x="132.354152397" xlink:href="#mc7db9fdffb" y="244.518125"/>
      </g>
     </g>
     <g id="line2d_10">
      <g>
       <use style="stroke:#000000;stroke-width:0.5;" x="132.354152397" xlink:href="#m5a7d422ac3" y="21.318125"/>
      </g>
     </g>
     <g id="text_3">
      <!-- 100 -->
      <defs>
       <path d="
M12.4062 8.29688
L28.5156 8.29688
L28.5156 63.9219
L10.9844 60.4062
L10.9844 69.3906
L28.4219 72.9062
L38.2812 72.9062
L38.2812 8.29688
L54.3906 8.29688
L54.3906 0
L12.4062 0
z
" id="BitstreamVeraSans-Roman-31"/>
      </defs>
      <g transform="translate(123.691652397 256.1165625)scale(0.1 -0.1)">
       <use xlink:href="#BitstreamVeraSans-Roman-31"/>
       <use x="63.623046875" xlink:href="#BitstreamVeraSans-Roman-30"/>
       <use x="127.24609375" xlink:href="#BitstreamVeraSans-Roman-30"/>
      </g>
     </g>
    </g>
    <g id="xtick_4">
     <g id="line2d_11">
      <g>
       <use style="stroke:#000000;stroke-width:0.5;" x="178.217166096" xlink:href="#mc7db9fdffb" y="244.518125"/>
      </g>
     </g>
     <g id="line2d_12">
      <g>
       <use style="stroke:#000000;stroke-width:0.5;" x="178.217166096" xlink:href="#m5a7d422ac3" y="21.318125"/>
      </g>
     </g>
     <g id="text_4">
      <!-- 150 -->
      <g transform="translate(169.554666096 256.1165625)scale(0.1 -0.1)">
       <use xlink:href="#BitstreamVeraSans-Roman-31"/>
       <use x="63.623046875" xlink:href="#BitstreamVeraSans-Roman-35"/>
       <use x="127.24609375" xlink:href="#BitstreamVeraSans-Roman-30"/>
      </g>
     </g>
    </g>
    <g id="xtick_5">
     <g id="line2d_13">
      <g>
       <use style="stroke:#000000;stroke-width:0.5;" x="224.080179795" xlink:href="#mc7db9fdffb" y="244.518125"/>
      </g>
     </g>
     <g id="line2d_14">
      <g>
       <use style="stroke:#000000;stroke-width:0.5;" x="224.080179795" xlink:href="#m5a7d422ac3" y="21.318125"/>
      </g>
     </g>
     <g id="text_5">
      <!-- 200 -->
      <defs>
       <path d="
M19.1875 8.29688
L53.6094 8.29688
L53.6094 0
L7.32812 0
L7.32812 8.29688
Q12.9375 14.1094 22.625 23.8906
Q32.3281 33.6875 34.8125 36.5312
Q39.5469 41.8438 41.4219 45.5312
Q43.3125 49.2188 43.3125 52.7812
Q43.3125 58.5938 39.2344 62.25
Q35.1562 65.9219 28.6094 65.9219
Q23.9688 65.9219 18.8125 64.3125
Q13.6719 62.7031 7.8125 59.4219
L7.8125 69.3906
Q13.7656 71.7812 18.9375 73
Q24.125 74.2188 28.4219 74.2188
Q39.75 74.2188 46.4844 68.5469
Q53.2188 62.8906 53.2188 53.4219
Q53.2188 48.9219 51.5312 44.8906
Q49.8594 40.875 45.4062 35.4062
Q44.1875 33.9844 37.6406 27.2188
Q31.1094 20.4531 19.1875 8.29688" id="BitstreamVeraSans-Roman-32"/>
      </defs>
      <g transform="translate(215.234867295 256.1165625)scale(0.1 -0.1)">
       <use xlink:href="#BitstreamVeraSans-Roman-32"/>
       <use x="63.623046875" xlink:href="#BitstreamVeraSans-Roman-30"/>
       <use x="127.24609375" xlink:href="#BitstreamVeraSans-Roman-30"/>
      </g>
     </g>
    </g>
    <g id="xtick_6">
     <g id="line2d_15">
      <g>
       <use style="stroke:#000000;stroke-width:0.5;" x="269.943193493" xlink:href="#mc7db9fdffb" y="244.518125"/>
      </g>
     </g>
     <g id="line2d_16">
      <g>
       <use style="stroke:#000000;stroke-width:0.5;" x="269.943193493" xlink:href="#m5a7d422ac3" y="21.318125"/>
      </g>
     </g>
     <g id="text_6">
      <!-- 250 -->
      <g transform="translate(261.097880993 256.1165625)scale(0.1 -0.1)">
       <use xlink:href="#BitstreamVeraSans-Roman-32"/>
       <use x="63.623046875" xlink:href="#BitstreamVeraSans-Roman-35"/>
       <use x="127.24609375" xlink:href="#BitstreamVeraSans-Roman-30"/>
      </g>
     </g>
    </g>
    <g id="xtick_7">
     <g id="line2d_17">
      <g>
       <use style="stroke:#000000;stroke-width:0.5;" x="315.806207192" xlink:href="#mc7db9fdffb" y="244.518125"/>
      </g>
     </g>
     <g id="line2d_18">
      <g>
       <use style="stroke:#000000;stroke-width:0.5;" x="315.806207192" xlink:href="#m5a7d422ac3" y="21.318125"/>
      </g>
     </g>
     <g id="text_7">
      <!-- 300 -->
      <defs>
       <path d="
M40.5781 39.3125
Q47.6562 37.7969 51.625 33
Q55.6094 28.2188 55.6094 21.1875
Q55.6094 10.4062 48.1875 4.48438
Q40.7656 -1.42188 27.0938 -1.42188
Q22.5156 -1.42188 17.6562 -0.515625
Q12.7969 0.390625 7.625 2.20312
L7.625 11.7188
Q11.7188 9.32812 16.5938 8.10938
Q21.4844 6.89062 26.8125 6.89062
Q36.0781 6.89062 40.9375 10.5469
Q45.7969 14.2031 45.7969 21.1875
Q45.7969 27.6406 41.2812 31.2656
Q36.7656 34.9062 28.7188 34.9062
L20.2188 34.9062
L20.2188 43.0156
L29.1094 43.0156
Q36.375 43.0156 40.2344 45.9219
Q44.0938 48.8281 44.0938 54.2969
Q44.0938 59.9062 40.1094 62.9062
Q36.1406 65.9219 28.7188 65.9219
Q24.6562 65.9219 20.0156 65.0312
Q15.375 64.1562 9.8125 62.3125
L9.8125 71.0938
Q15.4375 72.6562 20.3438 73.4375
Q25.25 74.2188 29.5938 74.2188
Q40.8281 74.2188 47.3594 69.1094
Q53.9062 64.0156 53.9062 55.3281
Q53.9062 49.2656 50.4375 45.0938
Q46.9688 40.9219 40.5781 39.3125" id="BitstreamVeraSans-Roman-33"/>
      </defs>
      <g transform="translate(306.975738442 256.1165625)scale(0.1 -0.1)">
       <use xlink:href="#BitstreamVeraSans-Roman-33"/>
       <use x="63.623046875" xlink:href="#BitstreamVeraSans-Roman-30"/>
       <use x="127.24609375" xlink:href="#BitstreamVeraSans-Roman-30"/>
      </g>
     </g>
    </g>
    <g id="xtick_8">
     <g id="line2d_19">
      <g>
       <use style="stroke:#000000;stroke-width:0.5;" x="361.66922089" xlink:href="#mc7db9fdffb" y="244.518125"/>
      </g>
     </g>
     <g id="line2d_20">
      <g>
       <use style="stroke:#000000;stroke-width:0.5;" x="361.66922089" xlink:href="#m5a7d422ac3" y="21.318125"/>
      </g>
     </g>
     <g id="text_8">
      <!-- 350 -->
      <g transform="translate(352.83875214 256.1165625)scale(0.1 -0.1)">
       <use xlink:href="#BitstreamVeraSans-Roman-33"/>
       <use x="63.623046875" xlink:href="#BitstreamVeraSans-Roman-35"/>
       <use x="127.24609375" xlink:href="#BitstreamVeraSans-Roman-30"/>
      </g>
     </g>
    </g>
    <g id="text_9">
     <!-- Julian day -->
     <defs>
      <path d="
M32.1719 -5.07812
Q28.375 -14.8438 24.75 -17.8125
Q21.1406 -20.7969 15.0938 -20.7969
L7.90625 -20.7969
L7.90625 -13.2812
L13.1875 -13.2812
Q16.8906 -13.2812 18.9375 -11.5156
Q21 -9.76562 23.4844 -3.21875
L25.0938 0.875
L2.98438 54.6875
L12.5 54.6875
L29.5938 11.9219
L46.6875 54.6875
L56.2031 54.6875
z
" id="BitstreamVeraSans-Roman-79"/>
      <path d="
M8.5 21.5781
L8.5 54.6875
L17.4844 54.6875
L17.4844 21.9219
Q17.4844 14.1562 20.5 10.2656
Q23.5312 6.39062 29.5938 6.39062
Q36.8594 6.39062 41.0781 11.0312
Q45.3125 15.6719 45.3125 23.6875
L45.3125 54.6875
L54.2969 54.6875
L54.2969 0
L45.3125 0
L45.3125 8.40625
Q42.0469 3.42188 37.7188 1
Q33.4062 -1.42188 27.6875 -1.42188
Q18.2656 -1.42188 13.375 4.4375
Q8.5 10.2969 8.5 21.5781" id="BitstreamVeraSans-Roman-75"/>
      <path d="
M9.42188 75.9844
L18.4062 75.9844
L18.4062 0
L9.42188 0
z
" id="BitstreamVeraSans-Roman-6c"/>
      <path id="BitstreamVeraSans-Roman-20"/>
      <path d="
M54.8906 33.0156
L54.8906 0
L45.9062 0
L45.9062 32.7188
Q45.9062 40.4844 42.875 44.3281
Q39.8438 48.1875 33.7969 48.1875
Q26.5156 48.1875 22.3125 43.5469
Q18.1094 38.9219 18.1094 30.9062
L18.1094 0
L9.07812 0
L9.07812 54.6875
L18.1094 54.6875
L18.1094 46.1875
Q21.3438 51.125 25.7031 53.5625
Q30.0781 56 35.7969 56
Q45.2188 56 50.0469 50.1719
Q54.8906 44.3438 54.8906 33.0156" id="BitstreamVeraSans-Roman-6e"/>
      <path d="
M9.42188 54.6875
L18.4062 54.6875
L18.4062 0
L9.42188 0
z

M9.42188 75.9844
L18.4062 75.9844
L18.4062 64.5938
L9.42188 64.5938
z
" id="BitstreamVeraSans-Roman-69"/>
      <path d="
M34.2812 27.4844
Q23.3906 27.4844 19.1875 25
Q14.9844 22.5156 14.9844 16.5
Q14.9844 11.7188 18.1406 8.90625
Q21.2969 6.10938 26.7031 6.10938
Q34.1875 6.10938 38.7031 11.4062
Q43.2188 16.7031 43.2188 25.4844
L43.2188 27.4844
z

M52.2031 31.2031
L52.2031 0
L43.2188 0
L43.2188 8.29688
Q40.1406 3.32812 35.5469 0.953125
Q30.9531 -1.42188 24.3125 -1.42188
Q15.9219 -1.42188 10.9531 3.29688
Q6 8.01562 6 15.9219
Q6 25.1406 12.1719 29.8281
Q18.3594 34.5156 30.6094 34.5156
L43.2188 34.5156
L43.2188 35.4062
Q43.2188 41.6094 39.1406 45
Q35.0625 48.3906 27.6875 48.3906
Q23 48.3906 18.5469 47.2656
Q14.1094 46.1406 10.0156 43.8906
L10.0156 52.2031
Q14.9375 54.1094 19.5781 55.0469
Q24.2188 56 28.6094 56
Q40.4844 56 46.3438 49.8438
Q52.2031 43.7031 52.2031 31.2031" id="BitstreamVeraSans-Roman-61"/>
      <path d="
M45.4062 46.3906
L45.4062 75.9844
L54.3906 75.9844
L54.3906 0
L45.4062 0
L45.4062 8.20312
Q42.5781 3.32812 38.25 0.953125
Q33.9375 -1.42188 27.875 -1.42188
Q17.9688 -1.42188 11.7344 6.48438
Q5.51562 14.4062 5.51562 27.2969
Q5.51562 40.1875 11.7344 48.0938
Q17.9688 56 27.875 56
Q33.9375 56 38.25 53.625
Q42.5781 51.2656 45.4062 46.3906
M14.7969 27.2969
Q14.7969 17.3906 18.875 11.75
Q22.9531 6.10938 30.0781 6.10938
Q37.2031 6.10938 41.2969 11.75
Q45.4062 17.3906 45.4062 27.2969
Q45.4062 37.2031 41.2969 42.8438
Q37.2031 48.4844 30.0781 48.4844
Q22.9531 48.4844 18.875 42.8438
Q14.7969 37.2031 14.7969 27.2969" id="BitstreamVeraSans-Roman-64"/>
      <path d="
M9.8125 72.9062
L19.6719 72.9062
L19.6719 5.07812
Q19.6719 -8.10938 14.6719 -14.0625
Q9.67188 -20.0156 -1.42188 -20.0156
L-5.17188 -20.0156
L-5.17188 -11.7188
L-2.09375 -11.7188
Q4.4375 -11.7188 7.125 -8.04688
Q9.8125 -4.39062 9.8125 5.07812
z
" id="BitstreamVeraSans-Roman-4a"/>
     </defs>
     <g transform="translate(183.47734375 270.7946875)scale(0.1 -0.1)">
      <use xlink:href="#BitstreamVeraSans-Roman-4a"/>
      <use x="29.4921875" xlink:href="#BitstreamVeraSans-Roman-75"/>
      <use x="92.87109375" xlink:href="#BitstreamVeraSans-Roman-6c"/>
      <use x="120.654296875" xlink:href="#BitstreamVeraSans-Roman-69"/>
      <use x="148.4375" xlink:href="#BitstreamVeraSans-Roman-61"/>
      <use x="209.716796875" xlink:href="#BitstreamVeraSans-Roman-6e"/>
      <use x="273.095703125" xlink:href="#BitstreamVeraSans-Roman-20"/>
      <use x="304.8828125" xlink:href="#BitstreamVeraSans-Roman-64"/>
      <use x="368.359375" xlink:href="#BitstreamVeraSans-Roman-61"/>
      <use x="429.638671875" xlink:href="#BitstreamVeraSans-Roman-79"/>
     </g>
    </g>
   </g>
   <g id="matplotlib.axis_2">
    <g id="ytick_1">
     <g id="line2d_21">
      <defs>
       <path d="
M0 0
L4 0" id="md7965d1ba0" style="stroke:#000000;stroke-width:0.5;"/>
      </defs>
      <g>
       <use style="stroke:#000000;stroke-width:0.5;" x="40.628125" xlink:href="#md7965d1ba0" y="244.518125"/>
      </g>
     </g>
     <g id="line2d_22">
      <defs>
       <path d="
M0 0
L-4 0" id="md9a1c1a7cd" style="stroke:#000000;stroke-width:0.5;"/>
      </defs>
      <g>
       <use style="stroke:#000000;stroke-width:0.5;" x="375.428125" xlink:href="#md9a1c1a7cd" y="244.518125"/>
      </g>
     </g>
     <g id="text_10">
      <!-- 0.0 -->
      <defs>
       <path d="
M10.6875 12.4062
L21 12.4062
L21 0
L10.6875 0
z
" id="BitstreamVeraSans-Roman-2e"/>
      </defs>
      <g transform="translate(22.0484375 247.2775)scale(0.1 -0.1)">
       <use xlink:href="#BitstreamVeraSans-Roman-30"/>
       <use x="63.623046875" xlink:href="#BitstreamVeraSans-Roman-2e"/>
       <use x="95.41015625" xlink:href="#BitstreamVeraSans-Roman-30"/>
      </g>
     </g>
    </g>
    <g id="ytick_2">
     <g id="line2d_23">
      <g>
       <use style="stroke:#000000;stroke-width:0.5;" x="40.628125" xlink:href="#md7965d1ba0" y="219.718125"/>
      </g>
     </g>
     <g id="line2d_24">
      <g>
       <use style="stroke:#000000;stroke-width:0.5;" x="375.428125" xlink:href="#md9a1c1a7cd" y="219.718125"/>
      </g>
     </g>
     <g id="text_11">
      <!-- 0.5 -->
      <g transform="translate(22.2578125 222.4775)scale(0.1 -0.1)">
       <use xlink:href="#BitstreamVeraSans-Roman-30"/>
       <use x="63.623046875" xlink:href="#BitstreamVeraSans-Roman-2e"/>
       <use x="95.41015625" xlink:href="#BitstreamVeraSans-Roman-35"/>
      </g>
     </g>
    </g>
    <g id="ytick_3">
     <g id="line2d_25">
      <g>
       <use style="stroke:#000000;stroke-width:0.5;" x="40.628125" xlink:href="#md7965d1ba0" y="194.918125"/>
      </g>
     </g>
     <g id="line2d_26">
      <g>
       <use style="stroke:#000000;stroke-width:0.5;" x="375.428125" xlink:href="#md9a1c1a7cd" y="194.918125"/>
      </g>
     </g>
     <g id="text_12">
      <!-- 1.0 -->
      <g transform="translate(22.4875 197.6775)scale(0.1 -0.1)">
       <use xlink:href="#BitstreamVeraSans-Roman-31"/>
       <use x="63.623046875" xlink:href="#BitstreamVeraSans-Roman-2e"/>
       <use x="95.41015625" xlink:href="#BitstreamVeraSans-Roman-30"/>
      </g>
     </g>
    </g>
    <g id="ytick_4">
     <g id="line2d_27">
      <g>
       <use style="stroke:#000000;stroke-width:0.5;" x="40.628125" xlink:href="#md7965d1ba0" y="170.118125"/>
      </g>
     </g>
     <g id="line2d_28">
      <g>
       <use style="stroke:#000000;stroke-width:0.5;" x="375.428125" xlink:href="#md9a1c1a7cd" y="170.118125"/>
      </g>
     </g>
     <g id="text_13">
      <!-- 1.5 -->
      <g transform="translate(22.696875 172.8775)scale(0.1 -0.1)">
       <use xlink:href="#BitstreamVeraSans-Roman-31"/>
       <use x="63.623046875" xlink:href="#BitstreamVeraSans-Roman-2e"/>
       <use x="95.41015625" xlink:href="#BitstreamVeraSans-Roman-35"/>
      </g>
     </g>
    </g>
    <g id="ytick_5">
     <g id="line2d_29">
      <g>
       <use style="stroke:#000000;stroke-width:0.5;" x="40.628125" xlink:href="#md7965d1ba0" y="145.318125"/>
      </g>
     </g>
     <g id="line2d_30">
      <g>
       <use style="stroke:#000000;stroke-width:0.5;" x="375.428125" xlink:href="#md9a1c1a7cd" y="145.318125"/>
      </g>
     </g>
     <g id="text_14">
      <!-- 2.0 -->
      <g transform="translate(22.121875 148.0775)scale(0.1 -0.1)">
       <use xlink:href="#BitstreamVeraSans-Roman-32"/>
       <use x="63.623046875" xlink:href="#BitstreamVeraSans-Roman-2e"/>
       <use x="95.41015625" xlink:href="#BitstreamVeraSans-Roman-30"/>
      </g>
     </g>
    </g>
    <g id="ytick_6">
     <g id="line2d_31">
      <g>
       <use style="stroke:#000000;stroke-width:0.5;" x="40.628125" xlink:href="#md7965d1ba0" y="120.518125"/>
      </g>
     </g>
     <g id="line2d_32">
      <g>
       <use style="stroke:#000000;stroke-width:0.5;" x="375.428125" xlink:href="#md9a1c1a7cd" y="120.518125"/>
      </g>
     </g>
     <g id="text_15">
      <!-- 2.5 -->
      <g transform="translate(22.33125 123.2775)scale(0.1 -0.1)">
       <use xlink:href="#BitstreamVeraSans-Roman-32"/>
       <use x="63.623046875" xlink:href="#BitstreamVeraSans-Roman-2e"/>
       <use x="95.41015625" xlink:href="#BitstreamVeraSans-Roman-35"/>
      </g>
     </g>
    </g>
    <g id="ytick_7">
     <g id="line2d_33">
      <g>
       <use style="stroke:#000000;stroke-width:0.5;" x="40.628125" xlink:href="#md7965d1ba0" y="95.718125"/>
      </g>
     </g>
     <g id="line2d_34">
      <g>
       <use style="stroke:#000000;stroke-width:0.5;" x="375.428125" xlink:href="#md9a1c1a7cd" y="95.718125"/>
      </g>
     </g>
     <g id="text_16">
      <!-- 3.0 -->
      <g transform="translate(22.1515625 98.4775)scale(0.1 -0.1)">
       <use xlink:href="#BitstreamVeraSans-Roman-33"/>
       <use x="63.623046875" xlink:href="#BitstreamVeraSans-Roman-2e"/>
       <use x="95.41015625" xlink:href="#BitstreamVeraSans-Roman-30"/>
      </g>
     </g>
    </g>
    <g id="ytick_8">
     <g id="line2d_35">
      <g>
       <use style="stroke:#000000;stroke-width:0.5;" x="40.628125" xlink:href="#md7965d1ba0" y="70.918125"/>
      </g>
     </g>
     <g id="line2d_36">
      <g>
       <use style="stroke:#000000;stroke-width:0.5;" x="375.428125" xlink:href="#md9a1c1a7cd" y="70.918125"/>
      </g>
     </g>
     <g id="text_17">
      <!-- 3.5 -->
      <g transform="translate(22.3609375 73.6775)scale(0.1 -0.1)">
       <use xlink:href="#BitstreamVeraSans-Roman-33"/>
       <use x="63.623046875" xlink:href="#BitstreamVeraSans-Roman-2e"/>
       <use x="95.41015625" xlink:href="#BitstreamVeraSans-Roman-35"/>
      </g>
     </g>
    </g>
    <g id="ytick_9">
     <g id="line2d_37">
      <g>
       <use style="stroke:#000000;stroke-width:0.5;" x="40.628125" xlink:href="#md7965d1ba0" y="46.118125"/>
      </g>
     </g>
     <g id="line2d_38">
      <g>
       <use style="stroke:#000000;stroke-width:0.5;" x="375.428125" xlink:href="#md9a1c1a7cd" y="46.118125"/>
      </g>
     </g>
     <g id="text_18">
      <!-- 4.0 -->
      <defs>
       <path d="
M37.7969 64.3125
L12.8906 25.3906
L37.7969 25.3906
z

M35.2031 72.9062
L47.6094 72.9062
L47.6094 25.3906
L58.0156 25.3906
L58.0156 17.1875
L47.6094 17.1875
L47.6094 0
L37.7969 0
L37.7969 17.1875
L4.89062 17.1875
L4.89062 26.7031
z
" id="BitstreamVeraSans-Roman-34"/>
      </defs>
      <g transform="translate(21.878125 48.8775)scale(0.1 -0.1)">
       <use xlink:href="#BitstreamVeraSans-Roman-34"/>
       <use x="63.623046875" xlink:href="#BitstreamVeraSans-Roman-2e"/>
       <use x="95.41015625" xlink:href="#BitstreamVeraSans-Roman-30"/>
      </g>
     </g>
    </g>
    <g id="ytick_10">
     <g id="line2d_39">
      <g>
       <use style="stroke:#000000;stroke-width:0.5;" x="40.628125" xlink:href="#md7965d1ba0" y="21.318125"/>
      </g>
     </g>
     <g id="line2d_40">
      <g>
       <use style="stroke:#000000;stroke-width:0.5;" x="375.428125" xlink:href="#md9a1c1a7cd" y="21.318125"/>
      </g>
     </g>
     <g id="text_19">
      <!-- 4.5 -->
      <g transform="translate(22.0875 24.0775)scale(0.1 -0.1)">
       <use xlink:href="#BitstreamVeraSans-Roman-34"/>
       <use x="63.623046875" xlink:href="#BitstreamVeraSans-Roman-2e"/>
       <use x="95.41015625" xlink:href="#BitstreamVeraSans-Roman-35"/>
      </g>
     </g>
    </g>
    <g id="text_20">
     <!-- PET (mm/day) -->
     <defs>
      <path d="
M8.01562 75.875
L15.8281 75.875
Q23.1406 64.3594 26.7812 53.3125
Q30.4219 42.2812 30.4219 31.3906
Q30.4219 20.4531 26.7812 9.375
Q23.1406 -1.70312 15.8281 -13.1875
L8.01562 -13.1875
Q14.5 -2 17.7031 9.0625
Q20.9062 20.125 20.9062 31.3906
Q20.9062 42.6719 17.7031 53.6562
Q14.5 64.6562 8.01562 75.875" id="BitstreamVeraSans-Roman-29"/>
      <path d="
M52 44.1875
Q55.375 50.25 60.0625 53.125
Q64.75 56 71.0938 56
Q79.6406 56 84.2812 50.0156
Q88.9219 44.0469 88.9219 33.0156
L88.9219 0
L79.8906 0
L79.8906 32.7188
Q79.8906 40.5781 77.0938 44.375
Q74.3125 48.1875 68.6094 48.1875
Q61.625 48.1875 57.5625 43.5469
Q53.5156 38.9219 53.5156 30.9062
L53.5156 0
L44.4844 0
L44.4844 32.7188
Q44.4844 40.625 41.7031 44.4062
Q38.9219 48.1875 33.1094 48.1875
Q26.2188 48.1875 22.1562 43.5312
Q18.1094 38.875 18.1094 30.9062
L18.1094 0
L9.07812 0
L9.07812 54.6875
L18.1094 54.6875
L18.1094 46.1875
Q21.1875 51.2188 25.4844 53.6094
Q29.7812 56 35.6875 56
Q41.6562 56 45.8281 52.9688
Q50 49.9531 52 44.1875" id="BitstreamVeraSans-Roman-6d"/>
      <path d="
M-0.296875 72.9062
L61.375 72.9062
L61.375 64.5938
L35.5 64.5938
L35.5 0
L25.5938 0
L25.5938 64.5938
L-0.296875 64.5938
z
" id="BitstreamVeraSans-Roman-54"/>
      <path d="
M19.6719 64.7969
L19.6719 37.4062
L32.0781 37.4062
Q38.9688 37.4062 42.7188 40.9688
Q46.4844 44.5312 46.4844 51.125
Q46.4844 57.6719 42.7188 61.2344
Q38.9688 64.7969 32.0781 64.7969
z

M9.8125 72.9062
L32.0781 72.9062
Q44.3438 72.9062 50.6094 67.3594
Q56.8906 61.8125 56.8906 51.125
Q56.8906 40.3281 50.6094 34.8125
Q44.3438 29.2969 32.0781 29.2969
L19.6719 29.2969
L19.6719 0
L9.8125 0
z
" id="BitstreamVeraSans-Roman-50"/>
      <path d="
M9.8125 72.9062
L55.9062 72.9062
L55.9062 64.5938
L19.6719 64.5938
L19.6719 43.0156
L54.3906 43.0156
L54.3906 34.7188
L19.6719 34.7188
L19.6719 8.29688
L56.7812 8.29688
L56.7812 0
L9.8125 0
z
" id="BitstreamVeraSans-Roman-45"/>
      <path d="
M31 75.875
Q24.4688 64.6562 21.2812 53.6562
Q18.1094 42.6719 18.1094 31.3906
Q18.1094 20.125 21.3125 9.0625
Q24.5156 -2 31 -13.1875
L23.1875 -13.1875
Q15.875 -1.70312 12.2344 9.375
Q8.59375 20.4531 8.59375 31.3906
Q8.59375 42.2812 12.2031 53.3125
Q15.8281 64.3594 23.1875 75.875
z
" id="BitstreamVeraSans-Roman-28"/>
      <path d="
M25.3906 72.9062
L33.6875 72.9062
L8.29688 -9.28125
L0 -9.28125
z
" id="BitstreamVeraSans-Roman-2f"/>
     </defs>
     <g transform="translate(14.7984375 167.82984375)rotate(-90.0)scale(0.1 -0.1)">
      <use xlink:href="#BitstreamVeraSans-Roman-50"/>
      <use x="60.302734375" xlink:href="#BitstreamVeraSans-Roman-45"/>
      <use x="123.486328125" xlink:href="#BitstreamVeraSans-Roman-54"/>
      <use x="184.5703125" xlink:href="#BitstreamVeraSans-Roman-20"/>
      <use x="216.357421875" xlink:href="#BitstreamVeraSans-Roman-28"/>
      <use x="255.37109375" xlink:href="#BitstreamVeraSans-Roman-6d"/>
      <use x="352.783203125" xlink:href="#BitstreamVeraSans-Roman-6d"/>
      <use x="450.1953125" xlink:href="#BitstreamVeraSans-Roman-2f"/>
      <use x="483.88671875" xlink:href="#BitstreamVeraSans-Roman-64"/>
      <use x="547.36328125" xlink:href="#BitstreamVeraSans-Roman-61"/>
      <use x="608.642578125" xlink:href="#BitstreamVeraSans-Roman-79"/>
      <use x="667.822265625" xlink:href="#BitstreamVeraSans-Roman-29"/>
     </g>
    </g>
   </g>
   <g id="text_21">
    <!-- daily shrub PET at BRW -->
    <defs>
     <path d="
M48.6875 27.2969
Q48.6875 37.2031 44.6094 42.8438
Q40.5312 48.4844 33.4062 48.4844
Q26.2656 48.4844 22.1875 42.8438
Q18.1094 37.2031 18.1094 27.2969
Q18.1094 17.3906 22.1875 11.75
Q26.2656 6.10938 33.4062 6.10938
Q40.5312 6.10938 44.6094 11.75
Q48.6875 17.3906 48.6875 27.2969
M18.1094 46.3906
Q20.9531 51.2656 25.2656 53.625
Q29.5938 56 35.5938 56
Q45.5625 56 51.7812 48.0938
Q58.0156 40.1875 58.0156 27.2969
Q58.0156 14.4062 51.7812 6.48438
Q45.5625 -1.42188 35.5938 -1.42188
Q29.5938 -1.42188 25.2656 0.953125
Q20.9531 3.32812 18.1094 8.20312
L18.1094 0
L9.07812 0
L9.07812 75.9844
L18.1094 75.9844
z
" id="BitstreamVeraSans-Roman-62"/>
     <path d="
M19.6719 34.8125
L19.6719 8.10938
L35.5 8.10938
Q43.4531 8.10938 47.2812 11.4062
Q51.125 14.7031 51.125 21.4844
Q51.125 28.3281 47.2812 31.5625
Q43.4531 34.8125 35.5 34.8125
z

M19.6719 64.7969
L19.6719 42.8281
L34.2812 42.8281
Q41.5 42.8281 45.0312 45.5312
Q48.5781 48.25 48.5781 53.8125
Q48.5781 59.3281 45.0312 62.0625
Q41.5 64.7969 34.2812 64.7969
z

M9.8125 72.9062
L35.0156 72.9062
Q46.2969 72.9062 52.3906 68.2188
Q58.5 63.5312 58.5 54.8906
Q58.5 48.1875 55.375 44.2344
Q52.25 40.2812 46.1875 39.3125
Q53.4688 37.75 57.5 32.7812
Q61.5312 27.8281 61.5312 20.4062
Q61.5312 10.6406 54.8906 5.3125
Q48.25 0 35.9844 0
L9.8125 0
z
" id="BitstreamVeraSans-Roman-42"/>
     <path d="
M54.8906 33.0156
L54.8906 0
L45.9062 0
L45.9062 32.7188
Q45.9062 40.4844 42.875 44.3281
Q39.8438 48.1875 33.7969 48.1875
Q26.5156 48.1875 22.3125 43.5469
Q18.1094 38.9219 18.1094 30.9062
L18.1094 0
L9.07812 0
L9.07812 75.9844
L18.1094 75.9844
L18.1094 46.1875
Q21.3438 51.125 25.7031 53.5625
Q30.0781 56 35.7969 56
Q45.2188 56 50.0469 50.1719
Q54.8906 44.3438 54.8906 33.0156" id="BitstreamVeraSans-Roman-68"/>
     <path d="
M41.1094 46.2969
Q39.5938 47.1719 37.8125 47.5781
Q36.0312 48 33.8906 48
Q26.2656 48 22.1875 43.0469
Q18.1094 38.0938 18.1094 28.8125
L18.1094 0
L9.07812 0
L9.07812 54.6875
L18.1094 54.6875
L18.1094 46.1875
Q20.9531 51.1719 25.4844 53.5781
Q30.0312 56 36.5312 56
Q37.4531 56 38.5781 55.875
Q39.7031 55.7656 41.0625 55.5156
z
" id="BitstreamVeraSans-Roman-72"/>
     <path d="
M18.3125 70.2188
L18.3125 54.6875
L36.8125 54.6875
L36.8125 47.7031
L18.3125 47.7031
L18.3125 18.0156
Q18.3125 11.3281 20.1406 9.42188
Q21.9688 7.51562 27.5938 7.51562
L36.8125 7.51562
L36.8125 0
L27.5938 0
Q17.1875 0 13.2344 3.875
Q9.28125 7.76562 9.28125 18.0156
L9.28125 47.7031
L2.6875 47.7031
L2.6875 54.6875
L9.28125 54.6875
L9.28125 70.2188
z
" id="BitstreamVeraSans-Roman-74"/>
     <path d="
M3.32812 72.9062
L13.2812 72.9062
L28.6094 11.2812
L43.8906 72.9062
L54.9844 72.9062
L70.3125 11.2812
L85.5938 72.9062
L95.6094 72.9062
L77.2969 0
L64.8906 0
L49.5156 63.2812
L33.9844 0
L21.5781 0
z
" id="BitstreamVeraSans-Roman-57"/>
     <path d="
M44.3906 34.1875
Q47.5625 33.1094 50.5625 29.5938
Q53.5625 26.0781 56.5938 19.9219
L66.6094 0
L56 0
L46.6875 18.7031
Q43.0625 26.0312 39.6719 28.4219
Q36.2812 30.8125 30.4219 30.8125
L19.6719 30.8125
L19.6719 0
L9.8125 0
L9.8125 72.9062
L32.0781 72.9062
Q44.5781 72.9062 50.7344 67.6719
Q56.8906 62.4531 56.8906 51.9062
Q56.8906 45.0156 53.6875 40.4688
Q50.4844 35.9375 44.3906 34.1875
M19.6719 64.7969
L19.6719 38.9219
L32.0781 38.9219
Q39.2031 38.9219 42.8438 42.2188
Q46.4844 45.5156 46.4844 51.9062
Q46.4844 58.2969 42.8438 61.5469
Q39.2031 64.7969 32.0781 64.7969
z
" id="BitstreamVeraSans-Roman-52"/>
     <path d="
M44.2812 53.0781
L44.2812 44.5781
Q40.4844 46.5312 36.375 47.5
Q32.2812 48.4844 27.875 48.4844
Q21.1875 48.4844 17.8438 46.4375
Q14.5 44.3906 14.5 40.2812
Q14.5 37.1562 16.8906 35.375
Q19.2812 33.5938 26.5156 31.9844
L29.5938 31.2969
Q39.1562 29.25 43.1875 25.5156
Q47.2188 21.7812 47.2188 15.0938
Q47.2188 7.46875 41.1875 3.01562
Q35.1562 -1.42188 24.6094 -1.42188
Q20.2188 -1.42188 15.4531 -0.5625
Q10.6875 0.296875 5.42188 2
L5.42188 11.2812
Q10.4062 8.6875 15.2344 7.39062
Q20.0625 6.10938 24.8125 6.10938
Q31.1562 6.10938 34.5625 8.28125
Q37.9844 10.4531 37.9844 14.4062
Q37.9844 18.0625 35.5156 20.0156
Q33.0625 21.9688 24.7031 23.7812
L21.5781 24.5156
Q13.2344 26.2656 9.51562 29.9062
Q5.8125 33.5469 5.8125 39.8906
Q5.8125 47.6094 11.2812 51.7969
Q16.75 56 26.8125 56
Q31.7812 56 36.1719 55.2656
Q40.5781 54.5469 44.2812 53.0781" id="BitstreamVeraSans-Roman-73"/>
    </defs>
    <g transform="translate(138.1384375 16.318125)scale(0.12 -0.12)">
     <use xlink:href="#BitstreamVeraSans-Roman-64"/>
     <use x="63.4765625" xlink:href="#BitstreamVeraSans-Roman-61"/>
     <use x="124.755859375" xlink:href="#BitstreamVeraSans-Roman-69"/>
     <use x="152.5390625" xlink:href="#BitstreamVeraSans-Roman-6c"/>
     <use x="180.322265625" xlink:href="#BitstreamVeraSans-Roman-79"/>
     <use x="239.501953125" xlink:href="#BitstreamVeraSans-Roman-20"/>
     <use x="271.2890625" xlink:href="#BitstreamVeraSans-Roman-73"/>
     <use x="323.388671875" xlink:href="#BitstreamVeraSans-Roman-68"/>
     <use x="386.767578125" xlink:href="#BitstreamVeraSans-Roman-72"/>
     <use x="427.880859375" xlink:href="#BitstreamVeraSans-Roman-75"/>
     <use x="491.259765625" xlink:href="#BitstreamVeraSans-Roman-62"/>
     <use x="554.736328125" xlink:href="#BitstreamVeraSans-Roman-20"/>
     <use x="586.5234375" xlink:href="#BitstreamVeraSans-Roman-50"/>
     <use x="646.826171875" xlink:href="#BitstreamVeraSans-Roman-45"/>
     <use x="710.009765625" xlink:href="#BitstreamVeraSans-Roman-54"/>
     <use x="771.09375" xlink:href="#BitstreamVeraSans-Roman-20"/>
     <use x="802.880859375" xlink:href="#BitstreamVeraSans-Roman-61"/>
     <use x="864.16015625" xlink:href="#BitstreamVeraSans-Roman-74"/>
     <use x="903.369140625" xlink:href="#BitstreamVeraSans-Roman-20"/>
     <use x="935.15625" xlink:href="#BitstreamVeraSans-Roman-42"/>
     <use x="1003.759765625" xlink:href="#BitstreamVeraSans-Roman-52"/>
     <use x="1069.2421875" xlink:href="#BitstreamVeraSans-Roman-57"/>
    </g>
   </g>
   <g id="legend_1">
    <g id="patch_7">
     <path d="
M297.241 101.373
L369.428 101.373
L369.428 27.3181
L297.241 27.3181
z
" style="fill:#ffffff;stroke:#000000;stroke-linejoin:miter;"/>
    </g>
    <g id="line2d_41">
     <path d="
M305.641 37.0363
L322.441 37.0363" style="fill:none;stroke:#0000ff;stroke-linecap:square;"/>
    </g>
    <g id="line2d_42"/>
    <g id="text_22">
     <!-- 2011 -->
     <g transform="translate(335.640625 41.23625)scale(0.12 -0.12)">
      <use xlink:href="#BitstreamVeraSans-Roman-32"/>
      <use x="63.623046875" xlink:href="#BitstreamVeraSans-Roman-30"/>
      <use x="127.24609375" xlink:href="#BitstreamVeraSans-Roman-31"/>
      <use x="190.869140625" xlink:href="#BitstreamVeraSans-Roman-31"/>
     </g>
    </g>
    <g id="line2d_43">
     <path d="
M305.641 54.65
L322.441 54.65" style="fill:none;stroke:#008000;stroke-linecap:square;"/>
    </g>
    <g id="line2d_44"/>
    <g id="text_23">
     <!-- 2012 -->
     <g transform="translate(335.640625 58.85)scale(0.12 -0.12)">
      <use xlink:href="#BitstreamVeraSans-Roman-32"/>
      <use x="63.623046875" xlink:href="#BitstreamVeraSans-Roman-30"/>
      <use x="127.24609375" xlink:href="#BitstreamVeraSans-Roman-31"/>
      <use x="190.869140625" xlink:href="#BitstreamVeraSans-Roman-32"/>
     </g>
    </g>
    <g id="line2d_45">
     <path d="
M305.641 72.2638
L322.441 72.2638" style="fill:none;stroke:#ff0000;stroke-linecap:square;"/>
    </g>
    <g id="line2d_46"/>
    <g id="text_24">
     <!-- 2013 -->
     <g transform="translate(335.640625 76.46375)scale(0.12 -0.12)">
      <use xlink:href="#BitstreamVeraSans-Roman-32"/>
      <use x="63.623046875" xlink:href="#BitstreamVeraSans-Roman-30"/>
      <use x="127.24609375" xlink:href="#BitstreamVeraSans-Roman-31"/>
      <use x="190.869140625" xlink:href="#BitstreamVeraSans-Roman-33"/>
     </g>
    </g>
    <g id="line2d_47">
     <path d="
M305.641 89.8775
L322.441 89.8775" style="fill:none;stroke:#00bfbf;stroke-linecap:square;"/>
    </g>
    <g id="line2d_48"/>
    <g id="text_25">
     <!-- 2014 -->
     <g transform="translate(335.640625 94.0775)scale(0.12 -0.12)">
      <use xlink:href="#BitstreamVeraSans-Roman-32"/>
      <use x="63.623046875" xlink:href="#BitstreamVeraSans-Roman-30"/>
      <use x="127.24609375" xlink:href="#BitstreamVeraSans-Roman-31"/>
      <use x="190.869140625" xlink:href="#BitstreamVeraSans-Roman-34"/>
     </g>
    </g>
   </g>
  </g>
 </g>
 <defs>
  <clipPath id="p2d16512a00">
   <rect height="223.2" width="334.8" x="40.628125" y="21.318125"/>
  </clipPath>
 </defs>
</svg>
