<?xml version="1.0" encoding="utf-8" standalone="no"?>
<!DOCTYPE svg PUBLIC "-//W3C//DTD SVG 1.1//EN"
  "http://www.w3.org/Graphics/SVG/1.1/DTD/svg11.dtd">
<!-- Created with matplotlib (http://matplotlib.org/) -->
<svg height="280pt" version="1.1" viewBox="0 0 382 280" width="382pt" xmlns="http://www.w3.org/2000/svg" xmlns:xlink="http://www.w3.org/1999/xlink">
 <defs>
  <style type="text/css">
*{stroke-linecap:butt;stroke-linejoin:round;}
  </style>
 </defs>
 <g id="figure_1">
  <g id="patch_1">
   <path d="
M0 280.074
L382.628 280.074
L382.628 0
L0 0
z
" style="fill:#ffffff;"/>
  </g>
  <g id="axes_1">
   <g id="patch_2">
    <path d="
M40.6281 244.518
L375.428 244.518
L375.428 21.3181
L40.6281 21.3181
z
" style="fill:#ffffff;"/>
   </g>
   <g id="line2d_1">
    <path clip-path="url(#p2d16512a00)" d="
M40.6281 200.699
L42.4626 186.087
L43.3799 169.988
L44.2972 204.357
L45.2144 217.493
L46.1317 213.754
L47.0489 225.454
L47.9662 213.752
L48.8835 220.972
L49.8007 202.282
L50.718 145.593
L51.6352 129.597
L52.5525 145.619
L53.4698 211.119
L54.387 218.64
L55.3043 176.179
L56.2215 196.619
L57.1388 235.763
L58.9733 233.795
L59.8906 214.644
M65.3942 207.659
L66.3114 160.45
L67.2287 229.29
L68.1459 216.712
L69.0632 211.54
L69.9805 238.69
L70.8977 227.864
L71.815 212.6
L72.7322 206.82
L73.6495 198.438
L74.5668 186.408
L75.484 203.663
L76.4013 229.278
L77.3185 225.084
L78.2358 220.333
L79.1531 193.788
L80.0703 194.209
L80.9876 225.696
L82.8221 201.043
L83.7394 201.99
L84.6566 237.243
L85.5739 215.249
L86.4911 204.352
L87.4084 233.519
L88.3257 225.357
L89.2429 198.851
L90.1602 178.849
L91.0774 200.648
L91.9947 215.75
L92.912 219.186
L93.8292 197.999
L94.7465 203.859
L95.6637 217.713
L96.581 210.141
L97.4983 239.505
L98.4155 222.647
L99.3328 179.551
L100.25 220.181
L101.167 167.834
L102.085 165.525
L103.002 167.82
L103.919 154.764
L104.836 191.132
L105.754 197.43
L106.671 201.135
L107.588 232.181
L108.505 225.3
L109.423 225.317
L110.34 235.248
M112.174 225.855
L113.092 232.241
L114.009 213.149
L114.926 167.477
L115.843 205.912
L116.761 166.818
L118.595 230.303
L119.513 191.293
L120.43 218.27
L121.347 209.467
L122.264 222.931
L123.182 178.162
L124.099 176.613
L125.016 189.685
L125.933 164.447
L126.851 202.094
L127.768 207.534
L128.685 210.58
L129.602 160.139
L130.52 120.934
L131.437 144.532
L132.354 130.528
L133.271 188.312
L134.189 158.856
L135.106 197.833
L136.023 164.85
L136.94 158.111
L137.858 196.797
L138.775 156.982
L139.692 191.371
L140.609 210.024
L141.527 150.811
L142.444 138.65
L143.361 130.059
L144.279 149.562
L145.196 149.39
L146.113 170.331
L147.03 226.339
L147.948 190.773
L148.865 172.881
L149.782 139.914
L150.699 204.438
L151.617 150.9
L152.534 146.459
L153.451 194.68
L154.368 217.523
L155.286 206.019
L156.203 142.869
L157.12 118.107
L158.037 109.881
L158.955 119.941
L159.872 83.7283
L160.789 63.3975
L161.706 67.3588
L162.624 78.4277
L163.541 99.7996
L164.458 140.334
L165.376 95.878
L166.293 133.398
L167.21 76.3889
L168.127 63.3012
L169.045 84.8488
L169.962 164.294
L170.879 133.902
L171.796 146.786
L172.714 117.427
L173.631 172.583
L174.548 196.416
L175.465 135.312
L176.383 122.344
L177.3 77.2052
L178.217 75.2957
L179.134 113.402
L180.052 88.9206
L180.969 120.941
L181.886 112.425
L182.803 126.046
L183.721 182.465
L184.638 73.5494
L185.555 103.668
L186.473 122.265
L187.39 178.089
L188.307 97.6345
L189.224 64.5193
L190.142 124.669
L191.059 88.3529
L191.976 64.709
L192.893 75.7195
L193.811 99.3228
L194.728 103.85
L195.645 90.2443
L196.562 101.922
L197.48 77.3319
L198.397 88.9199
L199.314 98.4917
L200.231 94.393
L201.149 89.6752
L202.066 84.1428
L202.983 122.246
L203.9 80.9892
L204.818 89.8756
L205.735 104.171
L206.652 101.792
L207.569 127.192
L208.487 107.936
L209.404 94.3718
L210.321 83.6872
L211.239 108.243
L212.156 116.244
L213.073 114.412
L213.99 148.942
L214.908 136.125
L215.825 118.195
L216.742 126.801
L217.659 124.155
L218.577 167.9
L219.494 167.189
L220.411 138.984
L221.328 156.237
L222.246 113.659
L223.163 104.744
L224.08 120.486
L224.997 109.68
L225.915 109.277
L226.832 120.416
L227.749 119.207
L228.666 107.005
L229.584 124.734
L230.501 122.425
L231.418 129.57
L232.336 123.245
L233.253 124.036
L234.17 120.3
L235.087 120.686
L236.005 116.12
L236.922 110.338
L237.839 117.179
L238.756 118.782
L239.674 128.705
L240.591 123.223
L241.508 132.184
L242.425 145.096
L243.343 136.101
L244.26 154.061
L245.177 122.966
L246.094 136.997
L247.012 136.338
L247.929 132.304
L248.846 127.537
L249.763 134.108
L250.681 133.208
L251.598 131.051
L252.515 157.246
L253.433 143.16
L254.35 149.989
L255.267 137.583
L256.184 130.091
L257.102 105.036
L258.019 117.675
L258.936 145.232
L259.853 145.939
L260.771 136.69
L261.688 133.866
L262.605 125.526
L263.522 147.632
M267.191 125.724
L268.109 135.555
L269.026 163.669
L269.943 131.343
L270.86 138.294
L271.778 144.005
L272.695 131.017
L273.612 126.943
L274.529 112.944
L275.447 129.936
L276.364 140.682
L277.281 131.212
L278.199 136.492
L279.116 129.912
L280.033 134.004
L280.95 140.767
L281.868 152.467
L282.785 156.733
L283.702 147.102
L284.619 197.154
L285.537 152.64
L286.454 172.786
L287.371 158.762
L288.288 147.491
L289.206 152.718
L290.123 149.109
L291.04 149.368
L291.957 128.719
M294.709 208.055
L295.626 110.874
L296.544 108.723
L297.461 117.351
L298.378 117.551
L299.296 133.708
L300.213 139.2
L301.13 141.258
L302.047 138.234
L302.965 169.504
L303.882 148.25
L304.799 186.702
L305.716 173.075
L306.634 137.428
L307.551 126.297
L308.468 164.728
L309.385 191.591
L310.303 150.707
L311.22 231.079
L312.137 241.109
M313.972 235.934
L314.889 239.083
L315.806 215.562
L316.723 211.144
L317.641 181.348
L318.558 168.938
L319.475 158.83
L320.393 189.104
L321.31 189.366
L322.227 190.067
L323.144 186.939
L324.062 211.042
L324.979 190.053
L325.896 200.517
L327.731 227.063
L328.648 221.877
M330.482 221.117
L331.4 232.843
L332.317 238.653
L333.234 220.14
L334.151 208.908
L335.069 230.383
L335.986 226.525
L336.903 237.469
L337.82 219.619
L338.738 221.971
L339.655 209.15
L340.572 167.966
L341.489 199.668
L342.407 212.046
L343.324 201.888
L344.241 217.873
L345.159 217.473
L346.076 220.795
L346.993 221.695
L347.91 224.924
L348.828 226.44
L349.745 227.424
L350.662 219.478
L351.579 240.898
L352.497 237.492
L353.414 212.17
L354.331 220.799
L355.248 200.728
L356.166 224.209
L357.083 222.633
L358 224.817
L358.917 216.43
L359.835 226.061
L360.752 218.44
L361.669 227.026
L362.586 228.731
L363.504 228.602
L364.421 219.963
L365.338 188.984
L366.256 150.632
L367.173 199.195
L368.09 223.685
L369.007 218.98
L369.925 217.967
L370.842 225.9
L371.759 229.62
L372.676 242.696
L373.594 221.367
L374.511 222.844
L374.511 222.844" style="fill:none;stroke:#0000ff;stroke-linecap:square;"/>
   </g>
   <g id="line2d_2">
    <path clip-path="url(#p2d16512a00)" d="
M40.6281 229.041
L41.5454 201.214
L42.4626 182.559
L43.3799 207.779
L44.2972 237.283
L45.2144 210.721
L46.1317 238.649
L47.0489 234.901
L47.9662 227.898
L48.8835 226.642
L49.8007 207.452
L50.718 173.123
L51.6352 212.233
L52.5525 206.476
L53.4698 214.502
L54.387 205.262
L55.3043 175.935
L56.2215 176.503
L57.1388 182.348
L58.0561 174.653
L58.9733 184.89
L59.8906 185.725
L60.8079 161.416
L61.7251 194.497
L62.6424 240.132
L63.5596 232.325
L64.4769 212.848
L65.3942 220.689
L66.3114 224.376
L67.2287 230.646
L68.1459 238.266
L69.0632 233.273
M70.8977 244.433
L71.815 208.639
L72.7322 224.178
L73.6495 227.43
L74.5668 221.426
L75.484 201.974
L76.4013 238.138
L77.3185 205.562
L78.2358 198.511
L79.1531 236.583
L80.0703 233.504
L80.9876 228.864
L81.9048 213.983
L82.8221 211.818
L83.7394 224.255
L84.6566 196.229
L85.5739 200.37
L86.4911 213.491
L87.4084 192.022
L88.3257 223.639
L89.2429 223.142
L90.1602 224.405
L91.0774 235.573
L91.9947 193.095
L92.912 190.71
L93.8292 202.774
L94.7465 217.272
L95.6637 224.64
L96.581 205.27
L97.4983 170.449
L98.4155 180.909
L99.3328 207.157
L100.25 206.892
L101.167 187.8
L102.085 180.105
L103.002 153.143
L103.919 213.063
L104.836 218.643
L105.754 175.005
L106.671 167.951
L107.588 180.12
L108.505 202.042
L109.423 188.853
L110.34 188.96
L111.257 137.206
L112.174 185.059
L113.092 201.103
L114.009 214.566
L114.926 206.926
L116.761 153.947
L117.678 199.888
L118.595 207.54
L119.513 173.996
L120.43 182.633
L121.347 166.481
L122.264 159.267
L123.182 183.388
L124.099 168.184
L125.016 163.1
L125.933 188.893
L126.851 199.836
L127.768 204.396
L128.685 240.396
L129.602 217.265
L130.52 177.711
L131.437 195.267
L132.354 189.203
L133.271 140.349
L134.189 186.593
L135.106 206.844
L136.023 213.416
L136.94 185.709
L137.858 144.342
L138.775 138.046
L139.692 212.46
L140.609 216.464
L142.444 171.526
L143.361 166.046
L144.279 126.333
L145.196 114.607
L146.113 133.246
L147.03 137.664
L147.948 111.715
L148.865 160.415
L149.782 138.699
L150.699 85.5625
L151.617 74.6068
L152.534 85.9513
L153.451 118.448
L154.368 106.181
L155.286 138.843
L156.203 143.562
L157.12 154.165
L158.037 125.827
L158.955 120.101
L159.872 108.667
L160.789 115.207
L161.706 119.512
L162.624 97.2424
L163.541 110.251
L164.458 153.656
L165.376 172.531
L166.293 101.853
L167.21 159.104
L168.127 84.4675
L169.045 129.805
L170.879 40.3237
L171.796 56.8077
L172.714 64.37
L173.631 134.107
L174.548 137.152
L175.465 188.179
L176.383 154.659
L177.3 139.468
L178.217 79.718
L179.134 82.1454
L180.052 81.4596
L180.969 77.1043
L181.886 101.624
L182.803 89.9436
L183.721 111.866
L184.638 102.206
L185.555 102.001
L186.473 103.423
L187.39 117.287
L188.307 115.39
L189.224 91.5149
L190.142 121.972
L191.059 105.373
L191.976 80.403
L192.893 109.435
L193.811 100.666
L194.728 103.972
L195.645 183.92
L196.562 125.828
L197.48 128.625
L198.397 118.856
L199.314 113.653
L200.231 168.08
L201.149 201.164
L202.066 126.09
L202.983 113.872
L203.9 112.471
L204.818 133.831
L205.735 132.385
L206.652 129.36
L207.569 134.715
L208.487 149.242
L209.404 122.462
L210.321 121.388
L211.239 107.888
L212.156 117.306
L213.073 122.899
L213.99 107.56
L214.908 119.594
L215.825 150.447
L216.742 111.713
L217.659 95.7398
L219.494 117.002
L220.411 147.215
L221.328 118.832
L222.246 113.01
L223.163 118.028
L224.08 115.716
L224.997 113.89
L225.915 110.559
L226.832 123.408
L227.749 144.179
L228.666 126.538
L229.584 139.425
L230.501 125.026
L231.418 118.646
L232.336 120.257
L233.253 120.229
L234.17 139.189
L235.087 126.115
L236.005 121.943
L236.922 107.988
L237.839 117.051
L238.756 122.759
L239.674 124.2
L240.591 127.924
L241.508 129.686
L242.425 128.568
L243.343 127.242
L244.26 145.131
L245.177 144.277
L246.094 131.569
L247.012 129.944
L247.929 138.292
L248.846 133.944
L249.763 145.137
L250.681 138.681
L251.598 143.469
L252.515 138.517
L253.433 145.925
L254.35 164.134
L255.267 146.341
L256.184 156.753
L258.019 135.716
L258.936 147.199
L259.853 155.085
L260.771 152.035
L261.688 141.118
L262.605 140.864
L263.522 147.659
L264.44 176.722
L265.357 200.628
L266.274 173.937
L267.191 189.974
L268.109 162.323
L269.026 142.732
L269.943 145.544
L270.86 147.773
L271.778 155.245
L272.695 155.915
L273.612 191.532
L274.529 175.755
L275.447 164.815
L276.364 161.698
L277.281 154.538
L278.199 192.856
L279.116 192.252
L280.033 146.853
L280.95 139.679
L281.868 176.863
L282.785 202.482
L283.702 166.69
L284.619 207.447
L285.537 216.329
L287.371 150.562
L288.288 161.996
L289.206 208.472
L290.123 183.105
L291.04 185.238
L291.957 157.106
L292.875 204.899
L293.792 137.58
L294.709 119.158
L295.626 126.144
L296.544 150.062
L297.461 188.373
L298.378 160.401
L299.296 183.449
L300.213 160.78
L301.13 153.186
L302.047 171.165
L302.965 155.108
L303.882 164.935
L304.799 146.739
L305.716 145.05
L306.634 139.003
L307.551 143.799
L308.468 154.132
L309.385 158.348
L310.303 151.568
L311.22 159.373
L312.137 161.945
L313.054 155.91
L313.972 160.651
L314.889 168.453
L315.806 197.69
L316.723 205.835
L317.641 215.255
L318.558 202.02
L319.475 215.248
L320.393 226.201
L321.31 223.976
L322.227 195.451
L323.144 208.819
L324.062 220.441
L324.979 207.157
L325.896 206.897
L326.813 161.263
L327.731 172.759
L328.648 176.983
L329.565 174.581
L330.482 199.44
L331.4 207.771
L332.317 211.599
L333.234 232.891
L334.151 234.605
L335.069 210.724
L335.986 217.8
L336.903 225.884
L337.82 149.449
L338.738 180.129
L339.655 187.809
L340.572 163.672
L341.489 175.887
L342.407 184.748
L343.324 191.994
L344.241 191.795
L345.159 208.353
L346.076 220.781
L346.993 225.175
L347.91 219.737
L348.828 216.235
L349.745 188.531
L351.579 203.491
L352.497 228.816
L353.414 229.888
L354.331 240.931
L355.248 181.192
L356.166 229.183
L357.083 220.554
L358 199.908
L358.917 223.441
L359.835 195.738
L360.752 186.973
L361.669 164.344
L362.586 215.26
L363.504 225.033
L364.421 206.029
L365.338 224.813
L366.256 232.017
L367.173 234.874
L368.09 227.187
L369.007 208.204
L369.925 166.265
L370.842 169.348
L371.759 217.406
L372.676 199.553
L373.594 213.763
L374.511 209.81
L374.511 209.81" style="fill:none;stroke:#008000;stroke-linecap:square;"/>
   </g>
   <g id="line2d_3">
    <path clip-path="url(#p2d16512a00)" d="
M40.6281 218.239
L41.5454 198.855
L42.4626 225.018
L43.3799 224.567
L44.2972 178.275
L45.2144 160.003
L46.1317 185.636
L47.0489 232.228
L47.9662 229.233
L48.8835 233.848
L49.8007 241.978
L50.718 229.701
L51.6352 226.315
L52.5525 213.762
L53.4698 216.586
L54.387 180.06
L55.3043 176.554
L56.2215 178.955
L57.1388 176.642
L58.0561 196.448
L58.9733 191.928
L59.8906 199.825
L60.8079 215.01
L62.6424 156.657
L63.5596 176.361
L64.4769 185.606
L65.3942 182.377
L66.3114 225.035
L67.2287 240.288
L68.1459 221.611
L69.0632 229.127
L69.9805 220.776
L70.8977 225.921
L71.815 215.827
L72.7322 219.127
L73.6495 226.536
L74.5668 224.054
L75.484 234.924
L76.4013 243.344
M78.2358 242.655
L79.1531 237.349
L80.9876 209.144
L81.9048 211.883
L82.8221 217.553
L83.7394 175
L84.6566 207.684
L85.5739 209.899
L86.4911 227.597
L87.4084 211.614
L88.3257 217.026
L89.2429 206.717
L90.1602 205.582
L91.0774 207.092
L91.9947 221.809
L92.912 222.025
L93.8292 225.381
L94.7465 234.286
L95.6637 239.684
M97.4983 217.863
L98.4155 227.823
L99.3328 214.487
L100.25 209.764
L101.167 195.66
L102.085 200.201
L103.002 219.514
L103.919 181.575
L104.836 168.053
L105.754 167.633
L106.671 215.16
L108.505 164.6
L109.423 201.036
L110.34 225.02
L111.257 176.649
L112.174 193.157
L113.092 168.345
L114.009 147.733
L114.926 159.221
L115.843 164.754
L116.761 202.335
L117.678 205.814
L118.595 231.058
L119.513 236.058
M121.347 243.397
L122.264 240.68
M124.099 238.829
L125.016 203.127
L125.933 220.808
L126.851 221.424
L127.768 214.379
L128.685 182.919
L129.602 169.564
L130.52 182.687
L131.437 162.53
L132.354 158.5
L133.271 169.386
L134.189 168.522
L135.106 130.646
L136.023 150.657
L136.94 136.412
L137.858 178.909
L138.775 150.452
L139.692 144.427
L140.609 164.795
L141.527 136.768
L142.444 220.912
L143.361 236.769
L144.279 206.801
L145.196 237.342
L146.113 205.247
L147.03 210.88
L147.948 193.608
L148.865 150.216
L149.782 147.436
L150.699 141.743
L151.617 140.635
L152.534 148.342
L153.451 149.047
L154.368 178.623
L155.286 146.391
L156.203 130.568
L157.12 165.385
L158.037 159.45
L158.955 181.324
L159.872 119.817
L160.789 115.044
L161.706 103.813
L162.624 124.423
L163.541 121.082
L164.458 128.6
L165.376 102.676
L166.293 138.117
L167.21 113.135
L168.127 154.038
L169.045 168.162
L169.962 98.9239
L171.796 144.212
L172.714 138.476
L173.631 115.698
L174.548 112.642
L175.465 113.339
L176.383 90.1095
L177.3 95.8101
L178.217 89.4181
L179.134 105.028
L180.052 104.666
L180.969 99.601
L181.886 92.4708
L182.803 87.2037
L183.721 83.8324
L184.638 107.034
L185.555 93.5047
L186.473 102.602
L187.39 95.4536
L188.307 89.3072
L189.224 111.02
L190.142 142.479
L191.059 125.013
L191.976 131.845
L192.893 140.054
L193.811 145.046
L194.728 167.25
L195.645 91.0859
L196.562 98.6999
L197.48 98.0395
L198.397 91.1716
L199.314 103.408
L200.231 119.237
L201.149 171.256
L202.066 146.152
L202.983 158.187
L203.9 123.332
L204.818 97.552
L205.735 98.5254
L206.652 109.052
L207.569 137.476
L208.487 129.265
L209.404 131.801
L210.321 121.192
L211.239 118.64
L212.156 118.649
L213.073 133.377
L213.99 156.621
L214.908 125.454
L215.825 131.992
L216.742 113.466
L217.659 134.584
L218.577 127.909
L219.494 127.826
L221.328 143.475
L222.246 112.583
L223.163 122.155
L224.08 139.839
L224.997 168.235
L225.915 146.236
L226.832 127.94
L227.749 114.596
L228.666 106.891
L229.584 113.425
L230.501 129.039
L231.418 147.2
L232.336 147.201
L233.253 147.985
L234.17 139.361
L235.087 133.534
L236.005 141.54
L237.839 150.23
L238.756 168.936
L239.674 170.019
L240.591 137.562
L241.508 146.23
L242.425 142.965
L243.343 149.86
L244.26 146.744
L245.177 157.034
L246.094 187.129
L247.012 156.263
L247.929 137.364
L248.846 136.917
L249.763 131.246
L250.681 134.721
L251.598 149.767
L252.515 153.359
L253.433 147.364
L254.35 151.557
L255.267 143.895
L257.102 165.193
L258.019 175.715
L258.936 138.481
L259.853 147.781
L260.771 144.452
L261.688 163.344
L262.605 144.896
L263.522 136.588
L264.44 137.887
L265.357 148.746
L266.274 127.478
L267.191 128.96
L268.109 135.281
L269.026 138.461
L269.943 143.745
L270.86 138.076
L271.778 143.746
L272.695 133.291
L273.612 120.403
L274.529 139.592
L275.447 143.371
L276.364 151.05
L277.281 156.432
L278.199 160.985
L279.116 170.63
L280.033 167.648
L280.95 161.19
L281.868 196.373
L282.785 195.07
L283.702 187.355
L284.619 162.443
L285.537 157.981
L286.454 144.124
L287.371 198.969
L288.288 197.856
L289.206 214.55
L290.123 185.165
L291.04 178.615
L291.957 148.151
L292.875 135.876
L293.792 147.14
L294.709 151.463
L295.626 160.921
L296.544 158.157
L297.461 155.768
L298.378 154.516
L299.296 160.688
L300.213 174.551
L301.13 165.728
L302.047 147.185
L302.965 160.897
L303.882 214.407
L304.799 188.078
L305.716 146.338
L307.551 164.611
L308.468 153.909
L309.385 228.866
L310.303 186.137
L311.22 211.912
L312.137 178.535
L313.054 187.495
L313.972 211.883
L314.889 191.639
L315.806 156.557
L316.723 177.592
L317.641 173.02
L318.558 181.202
L319.475 215.133
M322.227 238.501
L323.144 223.911
L324.062 196.557
L324.979 198.609
L325.896 178.676
L326.813 216.116
L327.731 219.431
L328.648 223.29
L329.565 172.525
L330.482 194.656
L331.4 233.414
L332.317 223.398
L333.234 237.069
L334.151 153.468
L335.069 168.467
L335.986 170.111
L337.82 234.956
L338.738 238.662
L339.655 235.397
L340.572 229.324
L341.489 240.947
L342.407 216.045
L343.324 195.871
L344.241 184.935
L345.159 232.946
L346.076 214.308
L346.993 213.526
M348.828 243.237
L349.745 235.138
L350.662 215.1
L351.579 226.937
L352.497 194.813
L353.414 220.146
L354.331 219.901
L355.248 210.377
L356.166 184.774
L357.083 222.792
L358 236.102
L358.917 210.704
L359.835 201.549
L360.752 238.177
L361.669 232.721
M365.338 243.684
L366.256 239.531
L367.173 238.163
M371.759 233.082
L372.676 229.151
L373.594 233.044
L374.511 218.756
L374.511 218.756" style="fill:none;stroke:#ff0000;stroke-linecap:square;"/>
   </g>
   <g id="patch_3">
    <path d="
M40.6281 21.3181
L375.428 21.3181" style="fill:none;stroke:#000000;stroke-linecap:square;stroke-linejoin:miter;"/>
   </g>
   <g id="patch_4">
    <path d="
M375.428 244.518
L375.428 21.3181" style="fill:none;stroke:#000000;stroke-linecap:square;stroke-linejoin:miter;"/>
   </g>
   <g id="patch_5">
    <path d="
M40.6281 244.518
L375.428 244.518" style="fill:none;stroke:#000000;stroke-linecap:square;stroke-linejoin:miter;"/>
   </g>
   <g id="patch_6">
    <path d="
M40.6281 244.518
L40.6281 21.3181" style="fill:none;stroke:#000000;stroke-linecap:square;stroke-linejoin:miter;"/>
   </g>
   <g id="matplotlib.axis_1">
    <g id="xtick_1">
     <g id="line2d_4">
      <defs>
       <path d="
M0 0
L0 -4" id="m93b0483c22" style="stroke:#000000;stroke-width:0.5;"/>
      </defs>
      <g>
       <use style="stroke:#000000;stroke-width:0.5;" x="40.628125" xlink:href="#m93b0483c22" y="244.518125"/>
      </g>
     </g>
     <g id="line2d_5">
      <defs>
       <path d="
M0 0
L0 4" id="m741efc42ff" style="stroke:#000000;stroke-width:0.5;"/>
      </defs>
      <g>
       <use style="stroke:#000000;stroke-width:0.5;" x="40.628125" xlink:href="#m741efc42ff" y="21.318125"/>
      </g>
     </g>
     <g id="text_1">
      <!-- 0 -->
      <defs>
       <path d="
M31.7812 66.4062
Q24.1719 66.4062 20.3281 58.9062
Q16.5 51.4219 16.5 36.375
Q16.5 21.3906 20.3281 13.8906
Q24.1719 6.39062 31.7812 6.39062
Q39.4531 6.39062 43.2812 13.8906
Q47.125 21.3906 47.125 36.375
Q47.125 51.4219 43.2812 58.9062
Q39.4531 66.4062 31.7812 66.4062
M31.7812 74.2188
Q44.0469 74.2188 50.5156 64.5156
Q56.9844 54.8281 56.9844 36.375
Q56.9844 17.9688 50.5156 8.26562
Q44.0469 -1.42188 31.7812 -1.42188
Q19.5312 -1.42188 13.0625 8.26562
Q6.59375 17.9688 6.59375 36.375
Q6.59375 54.8281 13.0625 64.5156
Q19.5312 74.2188 31.7812 74.2188" id="BitstreamVeraSans-Roman-30"/>
      </defs>
      <g transform="translate(38.10859375 256.1165625)scale(0.1 -0.1)">
       <use xlink:href="#BitstreamVeraSans-Roman-30"/>
      </g>
     </g>
    </g>
    <g id="xtick_2">
     <g id="line2d_6">
      <g>
       <use style="stroke:#000000;stroke-width:0.5;" x="86.4911386986" xlink:href="#m93b0483c22" y="244.518125"/>
      </g>
     </g>
     <g id="line2d_7">
      <g>
       <use style="stroke:#000000;stroke-width:0.5;" x="86.4911386986" xlink:href="#m741efc42ff" y="21.318125"/>
      </g>
     </g>
     <g id="text_2">
      <!-- 50 -->
      <defs>
       <path d="
M10.7969 72.9062
L49.5156 72.9062
L49.5156 64.5938
L19.8281 64.5938
L19.8281 46.7344
Q21.9688 47.4688 24.1094 47.8281
Q26.2656 48.1875 28.4219 48.1875
Q40.625 48.1875 47.75 41.5
Q54.8906 34.8125 54.8906 23.3906
Q54.8906 11.625 47.5625 5.09375
Q40.2344 -1.42188 26.9062 -1.42188
Q22.3125 -1.42188 17.5469 -0.640625
Q12.7969 0.140625 7.71875 1.70312
L7.71875 11.625
Q12.1094 9.23438 16.7969 8.0625
Q21.4844 6.89062 26.7031 6.89062
Q35.1562 6.89062 40.0781 11.3281
Q45.0156 15.7656 45.0156 23.3906
Q45.0156 31 40.0781 35.4375
Q35.1562 39.8906 26.7031 39.8906
Q22.75 39.8906 18.8125 39.0156
Q14.8906 38.1406 10.7969 36.2812
z
" id="BitstreamVeraSans-Roman-35"/>
      </defs>
      <g transform="translate(80.8466074486 256.1165625)scale(0.1 -0.1)">
       <use xlink:href="#BitstreamVeraSans-Roman-35"/>
       <use x="63.623046875" xlink:href="#BitstreamVeraSans-Roman-30"/>
      </g>
     </g>
    </g>
    <g id="xtick_3">
     <g id="line2d_8">
      <g>
       <use style="stroke:#000000;stroke-width:0.5;" x="132.354152397" xlink:href="#m93b0483c22" y="244.518125"/>
      </g>
     </g>
     <g id="line2d_9">
      <g>
       <use style="stroke:#000000;stroke-width:0.5;" x="132.354152397" xlink:href="#m741efc42ff" y="21.318125"/>
      </g>
     </g>
     <g id="text_3">
      <!-- 100 -->
      <defs>
       <path d="
M12.4062 8.29688
L28.5156 8.29688
L28.5156 63.9219
L10.9844 60.4062
L10.9844 69.3906
L28.4219 72.9062
L38.2812 72.9062
L38.2812 8.29688
L54.3906 8.29688
L54.3906 0
L12.4062 0
z
" id="BitstreamVeraSans-Roman-31"/>
      </defs>
      <g transform="translate(123.691652397 256.1165625)scale(0.1 -0.1)">
       <use xlink:href="#BitstreamVeraSans-Roman-31"/>
       <use x="63.623046875" xlink:href="#BitstreamVeraSans-Roman-30"/>
       <use x="127.24609375" xlink:href="#BitstreamVeraSans-Roman-30"/>
      </g>
     </g>
    </g>
    <g id="xtick_4">
     <g id="line2d_10">
      <g>
       <use style="stroke:#000000;stroke-width:0.5;" x="178.217166096" xlink:href="#m93b0483c22" y="244.518125"/>
      </g>
     </g>
     <g id="line2d_11">
      <g>
       <use style="stroke:#000000;stroke-width:0.5;" x="178.217166096" xlink:href="#m741efc42ff" y="21.318125"/>
      </g>
     </g>
     <g id="text_4">
      <!-- 150 -->
      <g transform="translate(169.554666096 256.1165625)scale(0.1 -0.1)">
       <use xlink:href="#BitstreamVeraSans-Roman-31"/>
       <use x="63.623046875" xlink:href="#BitstreamVeraSans-Roman-35"/>
       <use x="127.24609375" xlink:href="#BitstreamVeraSans-Roman-30"/>
      </g>
     </g>
    </g>
    <g id="xtick_5">
     <g id="line2d_12">
      <g>
       <use style="stroke:#000000;stroke-width:0.5;" x="224.080179795" xlink:href="#m93b0483c22" y="244.518125"/>
      </g>
     </g>
     <g id="line2d_13">
      <g>
       <use style="stroke:#000000;stroke-width:0.5;" x="224.080179795" xlink:href="#m741efc42ff" y="21.318125"/>
      </g>
     </g>
     <g id="text_5">
      <!-- 200 -->
      <defs>
       <path d="
M19.1875 8.29688
L53.6094 8.29688
L53.6094 0
L7.32812 0
L7.32812 8.29688
Q12.9375 14.1094 22.625 23.8906
Q32.3281 33.6875 34.8125 36.5312
Q39.5469 41.8438 41.4219 45.5312
Q43.3125 49.2188 43.3125 52.7812
Q43.3125 58.5938 39.2344 62.25
Q35.1562 65.9219 28.6094 65.9219
Q23.9688 65.9219 18.8125 64.3125
Q13.6719 62.7031 7.8125 59.4219
L7.8125 69.3906
Q13.7656 71.7812 18.9375 73
Q24.125 74.2188 28.4219 74.2188
Q39.75 74.2188 46.4844 68.5469
Q53.2188 62.8906 53.2188 53.4219
Q53.2188 48.9219 51.5312 44.8906
Q49.8594 40.875 45.4062 35.4062
Q44.1875 33.9844 37.6406 27.2188
Q31.1094 20.4531 19.1875 8.29688" id="BitstreamVeraSans-Roman-32"/>
      </defs>
      <g transform="translate(215.234867295 256.1165625)scale(0.1 -0.1)">
       <use xlink:href="#BitstreamVeraSans-Roman-32"/>
       <use x="63.623046875" xlink:href="#BitstreamVeraSans-Roman-30"/>
       <use x="127.24609375" xlink:href="#BitstreamVeraSans-Roman-30"/>
      </g>
     </g>
    </g>
    <g id="xtick_6">
     <g id="line2d_14">
      <g>
       <use style="stroke:#000000;stroke-width:0.5;" x="269.943193493" xlink:href="#m93b0483c22" y="244.518125"/>
      </g>
     </g>
     <g id="line2d_15">
      <g>
       <use style="stroke:#000000;stroke-width:0.5;" x="269.943193493" xlink:href="#m741efc42ff" y="21.318125"/>
      </g>
     </g>
     <g id="text_6">
      <!-- 250 -->
      <g transform="translate(261.097880993 256.1165625)scale(0.1 -0.1)">
       <use xlink:href="#BitstreamVeraSans-Roman-32"/>
       <use x="63.623046875" xlink:href="#BitstreamVeraSans-Roman-35"/>
       <use x="127.24609375" xlink:href="#BitstreamVeraSans-Roman-30"/>
      </g>
     </g>
    </g>
    <g id="xtick_7">
     <g id="line2d_16">
      <g>
       <use style="stroke:#000000;stroke-width:0.5;" x="315.806207192" xlink:href="#m93b0483c22" y="244.518125"/>
      </g>
     </g>
     <g id="line2d_17">
      <g>
       <use style="stroke:#000000;stroke-width:0.5;" x="315.806207192" xlink:href="#m741efc42ff" y="21.318125"/>
      </g>
     </g>
     <g id="text_7">
      <!-- 300 -->
      <defs>
       <path d="
M40.5781 39.3125
Q47.6562 37.7969 51.625 33
Q55.6094 28.2188 55.6094 21.1875
Q55.6094 10.4062 48.1875 4.48438
Q40.7656 -1.42188 27.0938 -1.42188
Q22.5156 -1.42188 17.6562 -0.515625
Q12.7969 0.390625 7.625 2.20312
L7.625 11.7188
Q11.7188 9.32812 16.5938 8.10938
Q21.4844 6.89062 26.8125 6.89062
Q36.0781 6.89062 40.9375 10.5469
Q45.7969 14.2031 45.7969 21.1875
Q45.7969 27.6406 41.2812 31.2656
Q36.7656 34.9062 28.7188 34.9062
L20.2188 34.9062
L20.2188 43.0156
L29.1094 43.0156
Q36.375 43.0156 40.2344 45.9219
Q44.0938 48.8281 44.0938 54.2969
Q44.0938 59.9062 40.1094 62.9062
Q36.1406 65.9219 28.7188 65.9219
Q24.6562 65.9219 20.0156 65.0312
Q15.375 64.1562 9.8125 62.3125
L9.8125 71.0938
Q15.4375 72.6562 20.3438 73.4375
Q25.25 74.2188 29.5938 74.2188
Q40.8281 74.2188 47.3594 69.1094
Q53.9062 64.0156 53.9062 55.3281
Q53.9062 49.2656 50.4375 45.0938
Q46.9688 40.9219 40.5781 39.3125" id="BitstreamVeraSans-Roman-33"/>
      </defs>
      <g transform="translate(306.975738442 256.1165625)scale(0.1 -0.1)">
       <use xlink:href="#BitstreamVeraSans-Roman-33"/>
       <use x="63.623046875" xlink:href="#BitstreamVeraSans-Roman-30"/>
       <use x="127.24609375" xlink:href="#BitstreamVeraSans-Roman-30"/>
      </g>
     </g>
    </g>
    <g id="xtick_8">
     <g id="line2d_18">
      <g>
       <use style="stroke:#000000;stroke-width:0.5;" x="361.66922089" xlink:href="#m93b0483c22" y="244.518125"/>
      </g>
     </g>
     <g id="line2d_19">
      <g>
       <use style="stroke:#000000;stroke-width:0.5;" x="361.66922089" xlink:href="#m741efc42ff" y="21.318125"/>
      </g>
     </g>
     <g id="text_8">
      <!-- 350 -->
      <g transform="translate(352.83875214 256.1165625)scale(0.1 -0.1)">
       <use xlink:href="#BitstreamVeraSans-Roman-33"/>
       <use x="63.623046875" xlink:href="#BitstreamVeraSans-Roman-35"/>
       <use x="127.24609375" xlink:href="#BitstreamVeraSans-Roman-30"/>
      </g>
     </g>
    </g>
    <g id="text_9">
     <!-- Julian day -->
     <defs>
      <path id="BitstreamVeraSans-Roman-20"/>
      <path d="
M9.8125 72.9062
L19.6719 72.9062
L19.6719 5.07812
Q19.6719 -8.10938 14.6719 -14.0625
Q9.67188 -20.0156 -1.42188 -20.0156
L-5.17188 -20.0156
L-5.17188 -11.7188
L-2.09375 -11.7188
Q4.4375 -11.7188 7.125 -8.04688
Q9.8125 -4.39062 9.8125 5.07812
z
" id="BitstreamVeraSans-Roman-4a"/>
      <path d="
M54.8906 33.0156
L54.8906 0
L45.9062 0
L45.9062 32.7188
Q45.9062 40.4844 42.875 44.3281
Q39.8438 48.1875 33.7969 48.1875
Q26.5156 48.1875 22.3125 43.5469
Q18.1094 38.9219 18.1094 30.9062
L18.1094 0
L9.07812 0
L9.07812 54.6875
L18.1094 54.6875
L18.1094 46.1875
Q21.3438 51.125 25.7031 53.5625
Q30.0781 56 35.7969 56
Q45.2188 56 50.0469 50.1719
Q54.8906 44.3438 54.8906 33.0156" id="BitstreamVeraSans-Roman-6e"/>
      <path d="
M9.42188 75.9844
L18.4062 75.9844
L18.4062 0
L9.42188 0
z
" id="BitstreamVeraSans-Roman-6c"/>
      <path d="
M9.42188 54.6875
L18.4062 54.6875
L18.4062 0
L9.42188 0
z

M9.42188 75.9844
L18.4062 75.9844
L18.4062 64.5938
L9.42188 64.5938
z
" id="BitstreamVeraSans-Roman-69"/>
      <path d="
M32.1719 -5.07812
Q28.375 -14.8438 24.75 -17.8125
Q21.1406 -20.7969 15.0938 -20.7969
L7.90625 -20.7969
L7.90625 -13.2812
L13.1875 -13.2812
Q16.8906 -13.2812 18.9375 -11.5156
Q21 -9.76562 23.4844 -3.21875
L25.0938 0.875
L2.98438 54.6875
L12.5 54.6875
L29.5938 11.9219
L46.6875 54.6875
L56.2031 54.6875
z
" id="BitstreamVeraSans-Roman-79"/>
      <path d="
M45.4062 46.3906
L45.4062 75.9844
L54.3906 75.9844
L54.3906 0
L45.4062 0
L45.4062 8.20312
Q42.5781 3.32812 38.25 0.953125
Q33.9375 -1.42188 27.875 -1.42188
Q17.9688 -1.42188 11.7344 6.48438
Q5.51562 14.4062 5.51562 27.2969
Q5.51562 40.1875 11.7344 48.0938
Q17.9688 56 27.875 56
Q33.9375 56 38.25 53.625
Q42.5781 51.2656 45.4062 46.3906
M14.7969 27.2969
Q14.7969 17.3906 18.875 11.75
Q22.9531 6.10938 30.0781 6.10938
Q37.2031 6.10938 41.2969 11.75
Q45.4062 17.3906 45.4062 27.2969
Q45.4062 37.2031 41.2969 42.8438
Q37.2031 48.4844 30.0781 48.4844
Q22.9531 48.4844 18.875 42.8438
Q14.7969 37.2031 14.7969 27.2969" id="BitstreamVeraSans-Roman-64"/>
      <path d="
M8.5 21.5781
L8.5 54.6875
L17.4844 54.6875
L17.4844 21.9219
Q17.4844 14.1562 20.5 10.2656
Q23.5312 6.39062 29.5938 6.39062
Q36.8594 6.39062 41.0781 11.0312
Q45.3125 15.6719 45.3125 23.6875
L45.3125 54.6875
L54.2969 54.6875
L54.2969 0
L45.3125 0
L45.3125 8.40625
Q42.0469 3.42188 37.7188 1
Q33.4062 -1.42188 27.6875 -1.42188
Q18.2656 -1.42188 13.375 4.4375
Q8.5 10.2969 8.5 21.5781" id="BitstreamVeraSans-Roman-75"/>
      <path d="
M34.2812 27.4844
Q23.3906 27.4844 19.1875 25
Q14.9844 22.5156 14.9844 16.5
Q14.9844 11.7188 18.1406 8.90625
Q21.2969 6.10938 26.7031 6.10938
Q34.1875 6.10938 38.7031 11.4062
Q43.2188 16.7031 43.2188 25.4844
L43.2188 27.4844
z

M52.2031 31.2031
L52.2031 0
L43.2188 0
L43.2188 8.29688
Q40.1406 3.32812 35.5469 0.953125
Q30.9531 -1.42188 24.3125 -1.42188
Q15.9219 -1.42188 10.9531 3.29688
Q6 8.01562 6 15.9219
Q6 25.1406 12.1719 29.8281
Q18.3594 34.5156 30.6094 34.5156
L43.2188 34.5156
L43.2188 35.4062
Q43.2188 41.6094 39.1406 45
Q35.0625 48.3906 27.6875 48.3906
Q23 48.3906 18.5469 47.2656
Q14.1094 46.1406 10.0156 43.8906
L10.0156 52.2031
Q14.9375 54.1094 19.5781 55.0469
Q24.2188 56 28.6094 56
Q40.4844 56 46.3438 49.8438
Q52.2031 43.7031 52.2031 31.2031" id="BitstreamVeraSans-Roman-61"/>
     </defs>
     <g transform="translate(183.47734375 270.7946875)scale(0.1 -0.1)">
      <use xlink:href="#BitstreamVeraSans-Roman-4a"/>
      <use x="29.4921875" xlink:href="#BitstreamVeraSans-Roman-75"/>
      <use x="92.87109375" xlink:href="#BitstreamVeraSans-Roman-6c"/>
      <use x="120.654296875" xlink:href="#BitstreamVeraSans-Roman-69"/>
      <use x="148.4375" xlink:href="#BitstreamVeraSans-Roman-61"/>
      <use x="209.716796875" xlink:href="#BitstreamVeraSans-Roman-6e"/>
      <use x="273.095703125" xlink:href="#BitstreamVeraSans-Roman-20"/>
      <use x="304.8828125" xlink:href="#BitstreamVeraSans-Roman-64"/>
      <use x="368.359375" xlink:href="#BitstreamVeraSans-Roman-61"/>
      <use x="429.638671875" xlink:href="#BitstreamVeraSans-Roman-79"/>
     </g>
    </g>
   </g>
   <g id="matplotlib.axis_2">
    <g id="ytick_1">
     <g id="line2d_20">
      <defs>
       <path d="
M0 0
L4 0" id="m728421d6d4" style="stroke:#000000;stroke-width:0.5;"/>
      </defs>
      <g>
       <use style="stroke:#000000;stroke-width:0.5;" x="40.628125" xlink:href="#m728421d6d4" y="244.518125"/>
      </g>
     </g>
     <g id="line2d_21">
      <defs>
       <path d="
M0 0
L-4 0" id="mcb0005524f" style="stroke:#000000;stroke-width:0.5;"/>
      </defs>
      <g>
       <use style="stroke:#000000;stroke-width:0.5;" x="375.428125" xlink:href="#mcb0005524f" y="244.518125"/>
      </g>
     </g>
     <g id="text_10">
      <!-- 0.0 -->
      <defs>
       <path d="
M10.6875 12.4062
L21 12.4062
L21 0
L10.6875 0
z
" id="BitstreamVeraSans-Roman-2e"/>
      </defs>
      <g transform="translate(22.0484375 247.2775)scale(0.1 -0.1)">
       <use xlink:href="#BitstreamVeraSans-Roman-30"/>
       <use x="63.623046875" xlink:href="#BitstreamVeraSans-Roman-2e"/>
       <use x="95.41015625" xlink:href="#BitstreamVeraSans-Roman-30"/>
      </g>
     </g>
    </g>
    <g id="ytick_2">
     <g id="line2d_22">
      <g>
       <use style="stroke:#000000;stroke-width:0.5;" x="40.628125" xlink:href="#m728421d6d4" y="219.718125"/>
      </g>
     </g>
     <g id="line2d_23">
      <g>
       <use style="stroke:#000000;stroke-width:0.5;" x="375.428125" xlink:href="#mcb0005524f" y="219.718125"/>
      </g>
     </g>
     <g id="text_11">
      <!-- 0.5 -->
      <g transform="translate(22.2578125 222.4775)scale(0.1 -0.1)">
       <use xlink:href="#BitstreamVeraSans-Roman-30"/>
       <use x="63.623046875" xlink:href="#BitstreamVeraSans-Roman-2e"/>
       <use x="95.41015625" xlink:href="#BitstreamVeraSans-Roman-35"/>
      </g>
     </g>
    </g>
    <g id="ytick_3">
     <g id="line2d_24">
      <g>
       <use style="stroke:#000000;stroke-width:0.5;" x="40.628125" xlink:href="#m728421d6d4" y="194.918125"/>
      </g>
     </g>
     <g id="line2d_25">
      <g>
       <use style="stroke:#000000;stroke-width:0.5;" x="375.428125" xlink:href="#mcb0005524f" y="194.918125"/>
      </g>
     </g>
     <g id="text_12">
      <!-- 1.0 -->
      <g transform="translate(22.4875 197.6775)scale(0.1 -0.1)">
       <use xlink:href="#BitstreamVeraSans-Roman-31"/>
       <use x="63.623046875" xlink:href="#BitstreamVeraSans-Roman-2e"/>
       <use x="95.41015625" xlink:href="#BitstreamVeraSans-Roman-30"/>
      </g>
     </g>
    </g>
    <g id="ytick_4">
     <g id="line2d_26">
      <g>
       <use style="stroke:#000000;stroke-width:0.5;" x="40.628125" xlink:href="#m728421d6d4" y="170.118125"/>
      </g>
     </g>
     <g id="line2d_27">
      <g>
       <use style="stroke:#000000;stroke-width:0.5;" x="375.428125" xlink:href="#mcb0005524f" y="170.118125"/>
      </g>
     </g>
     <g id="text_13">
      <!-- 1.5 -->
      <g transform="translate(22.696875 172.8775)scale(0.1 -0.1)">
       <use xlink:href="#BitstreamVeraSans-Roman-31"/>
       <use x="63.623046875" xlink:href="#BitstreamVeraSans-Roman-2e"/>
       <use x="95.41015625" xlink:href="#BitstreamVeraSans-Roman-35"/>
      </g>
     </g>
    </g>
    <g id="ytick_5">
     <g id="line2d_28">
      <g>
       <use style="stroke:#000000;stroke-width:0.5;" x="40.628125" xlink:href="#m728421d6d4" y="145.318125"/>
      </g>
     </g>
     <g id="line2d_29">
      <g>
       <use style="stroke:#000000;stroke-width:0.5;" x="375.428125" xlink:href="#mcb0005524f" y="145.318125"/>
      </g>
     </g>
     <g id="text_14">
      <!-- 2.0 -->
      <g transform="translate(22.121875 148.0775)scale(0.1 -0.1)">
       <use xlink:href="#BitstreamVeraSans-Roman-32"/>
       <use x="63.623046875" xlink:href="#BitstreamVeraSans-Roman-2e"/>
       <use x="95.41015625" xlink:href="#BitstreamVeraSans-Roman-30"/>
      </g>
     </g>
    </g>
    <g id="ytick_6">
     <g id="line2d_30">
      <g>
       <use style="stroke:#000000;stroke-width:0.5;" x="40.628125" xlink:href="#m728421d6d4" y="120.518125"/>
      </g>
     </g>
     <g id="line2d_31">
      <g>
       <use style="stroke:#000000;stroke-width:0.5;" x="375.428125" xlink:href="#mcb0005524f" y="120.518125"/>
      </g>
     </g>
     <g id="text_15">
      <!-- 2.5 -->
      <g transform="translate(22.33125 123.2775)scale(0.1 -0.1)">
       <use xlink:href="#BitstreamVeraSans-Roman-32"/>
       <use x="63.623046875" xlink:href="#BitstreamVeraSans-Roman-2e"/>
       <use x="95.41015625" xlink:href="#BitstreamVeraSans-Roman-35"/>
      </g>
     </g>
    </g>
    <g id="ytick_7">
     <g id="line2d_32">
      <g>
       <use style="stroke:#000000;stroke-width:0.5;" x="40.628125" xlink:href="#m728421d6d4" y="95.718125"/>
      </g>
     </g>
     <g id="line2d_33">
      <g>
       <use style="stroke:#000000;stroke-width:0.5;" x="375.428125" xlink:href="#mcb0005524f" y="95.718125"/>
      </g>
     </g>
     <g id="text_16">
      <!-- 3.0 -->
      <g transform="translate(22.1515625 98.4775)scale(0.1 -0.1)">
       <use xlink:href="#BitstreamVeraSans-Roman-33"/>
       <use x="63.623046875" xlink:href="#BitstreamVeraSans-Roman-2e"/>
       <use x="95.41015625" xlink:href="#BitstreamVeraSans-Roman-30"/>
      </g>
     </g>
    </g>
    <g id="ytick_8">
     <g id="line2d_34">
      <g>
       <use style="stroke:#000000;stroke-width:0.5;" x="40.628125" xlink:href="#m728421d6d4" y="70.918125"/>
      </g>
     </g>
     <g id="line2d_35">
      <g>
       <use style="stroke:#000000;stroke-width:0.5;" x="375.428125" xlink:href="#mcb0005524f" y="70.918125"/>
      </g>
     </g>
     <g id="text_17">
      <!-- 3.5 -->
      <g transform="translate(22.3609375 73.6775)scale(0.1 -0.1)">
       <use xlink:href="#BitstreamVeraSans-Roman-33"/>
       <use x="63.623046875" xlink:href="#BitstreamVeraSans-Roman-2e"/>
       <use x="95.41015625" xlink:href="#BitstreamVeraSans-Roman-35"/>
      </g>
     </g>
    </g>
    <g id="ytick_9">
     <g id="line2d_36">
      <g>
       <use style="stroke:#000000;stroke-width:0.5;" x="40.628125" xlink:href="#m728421d6d4" y="46.118125"/>
      </g>
     </g>
     <g id="line2d_37">
      <g>
       <use style="stroke:#000000;stroke-width:0.5;" x="375.428125" xlink:href="#mcb0005524f" y="46.118125"/>
      </g>
     </g>
     <g id="text_18">
      <!-- 4.0 -->
      <defs>
       <path d="
M37.7969 64.3125
L12.8906 25.3906
L37.7969 25.3906
z

M35.2031 72.9062
L47.6094 72.9062
L47.6094 25.3906
L58.0156 25.3906
L58.0156 17.1875
L47.6094 17.1875
L47.6094 0
L37.7969 0
L37.7969 17.1875
L4.89062 17.1875
L4.89062 26.7031
z
" id="BitstreamVeraSans-Roman-34"/>
      </defs>
      <g transform="translate(21.878125 48.8775)scale(0.1 -0.1)">
       <use xlink:href="#BitstreamVeraSans-Roman-34"/>
       <use x="63.623046875" xlink:href="#BitstreamVeraSans-Roman-2e"/>
       <use x="95.41015625" xlink:href="#BitstreamVeraSans-Roman-30"/>
      </g>
     </g>
    </g>
    <g id="ytick_10">
     <g id="line2d_38">
      <g>
       <use style="stroke:#000000;stroke-width:0.5;" x="40.628125" xlink:href="#m728421d6d4" y="21.318125"/>
      </g>
     </g>
     <g id="line2d_39">
      <g>
       <use style="stroke:#000000;stroke-width:0.5;" x="375.428125" xlink:href="#mcb0005524f" y="21.318125"/>
      </g>
     </g>
     <g id="text_19">
      <!-- 4.5 -->
      <g transform="translate(22.0875 24.0775)scale(0.1 -0.1)">
       <use xlink:href="#BitstreamVeraSans-Roman-34"/>
       <use x="63.623046875" xlink:href="#BitstreamVeraSans-Roman-2e"/>
       <use x="95.41015625" xlink:href="#BitstreamVeraSans-Roman-35"/>
      </g>
     </g>
    </g>
    <g id="text_20">
     <!-- PET (mm/day) -->
     <defs>
      <path d="
M52 44.1875
Q55.375 50.25 60.0625 53.125
Q64.75 56 71.0938 56
Q79.6406 56 84.2812 50.0156
Q88.9219 44.0469 88.9219 33.0156
L88.9219 0
L79.8906 0
L79.8906 32.7188
Q79.8906 40.5781 77.0938 44.375
Q74.3125 48.1875 68.6094 48.1875
Q61.625 48.1875 57.5625 43.5469
Q53.5156 38.9219 53.5156 30.9062
L53.5156 0
L44.4844 0
L44.4844 32.7188
Q44.4844 40.625 41.7031 44.4062
Q38.9219 48.1875 33.1094 48.1875
Q26.2188 48.1875 22.1562 43.5312
Q18.1094 38.875 18.1094 30.9062
L18.1094 0
L9.07812 0
L9.07812 54.6875
L18.1094 54.6875
L18.1094 46.1875
Q21.1875 51.2188 25.4844 53.6094
Q29.7812 56 35.6875 56
Q41.6562 56 45.8281 52.9688
Q50 49.9531 52 44.1875" id="BitstreamVeraSans-Roman-6d"/>
      <path d="
M8.01562 75.875
L15.8281 75.875
Q23.1406 64.3594 26.7812 53.3125
Q30.4219 42.2812 30.4219 31.3906
Q30.4219 20.4531 26.7812 9.375
Q23.1406 -1.70312 15.8281 -13.1875
L8.01562 -13.1875
Q14.5 -2 17.7031 9.0625
Q20.9062 20.125 20.9062 31.3906
Q20.9062 42.6719 17.7031 53.6562
Q14.5 64.6562 8.01562 75.875" id="BitstreamVeraSans-Roman-29"/>
      <path d="
M31 75.875
Q24.4688 64.6562 21.2812 53.6562
Q18.1094 42.6719 18.1094 31.3906
Q18.1094 20.125 21.3125 9.0625
Q24.5156 -2 31 -13.1875
L23.1875 -13.1875
Q15.875 -1.70312 12.2344 9.375
Q8.59375 20.4531 8.59375 31.3906
Q8.59375 42.2812 12.2031 53.3125
Q15.8281 64.3594 23.1875 75.875
z
" id="BitstreamVeraSans-Roman-28"/>
      <path d="
M19.6719 64.7969
L19.6719 37.4062
L32.0781 37.4062
Q38.9688 37.4062 42.7188 40.9688
Q46.4844 44.5312 46.4844 51.125
Q46.4844 57.6719 42.7188 61.2344
Q38.9688 64.7969 32.0781 64.7969
z

M9.8125 72.9062
L32.0781 72.9062
Q44.3438 72.9062 50.6094 67.3594
Q56.8906 61.8125 56.8906 51.125
Q56.8906 40.3281 50.6094 34.8125
Q44.3438 29.2969 32.0781 29.2969
L19.6719 29.2969
L19.6719 0
L9.8125 0
z
" id="BitstreamVeraSans-Roman-50"/>
      <path d="
M9.8125 72.9062
L55.9062 72.9062
L55.9062 64.5938
L19.6719 64.5938
L19.6719 43.0156
L54.3906 43.0156
L54.3906 34.7188
L19.6719 34.7188
L19.6719 8.29688
L56.7812 8.29688
L56.7812 0
L9.8125 0
z
" id="BitstreamVeraSans-Roman-45"/>
      <path d="
M-0.296875 72.9062
L61.375 72.9062
L61.375 64.5938
L35.5 64.5938
L35.5 0
L25.5938 0
L25.5938 64.5938
L-0.296875 64.5938
z
" id="BitstreamVeraSans-Roman-54"/>
      <path d="
M25.3906 72.9062
L33.6875 72.9062
L8.29688 -9.28125
L0 -9.28125
z
" id="BitstreamVeraSans-Roman-2f"/>
     </defs>
     <g transform="translate(14.7984375 167.82984375)rotate(-90.0)scale(0.1 -0.1)">
      <use xlink:href="#BitstreamVeraSans-Roman-50"/>
      <use x="60.302734375" xlink:href="#BitstreamVeraSans-Roman-45"/>
      <use x="123.486328125" xlink:href="#BitstreamVeraSans-Roman-54"/>
      <use x="184.5703125" xlink:href="#BitstreamVeraSans-Roman-20"/>
      <use x="216.357421875" xlink:href="#BitstreamVeraSans-Roman-28"/>
      <use x="255.37109375" xlink:href="#BitstreamVeraSans-Roman-6d"/>
      <use x="352.783203125" xlink:href="#BitstreamVeraSans-Roman-6d"/>
      <use x="450.1953125" xlink:href="#BitstreamVeraSans-Roman-2f"/>
      <use x="483.88671875" xlink:href="#BitstreamVeraSans-Roman-64"/>
      <use x="547.36328125" xlink:href="#BitstreamVeraSans-Roman-61"/>
      <use x="608.642578125" xlink:href="#BitstreamVeraSans-Roman-79"/>
      <use x="667.822265625" xlink:href="#BitstreamVeraSans-Roman-29"/>
     </g>
    </g>
   </g>
   <g id="text_21">
    <!-- daily bare PET at BRW -->
    <defs>
     <path d="
M44.3906 34.1875
Q47.5625 33.1094 50.5625 29.5938
Q53.5625 26.0781 56.5938 19.9219
L66.6094 0
L56 0
L46.6875 18.7031
Q43.0625 26.0312 39.6719 28.4219
Q36.2812 30.8125 30.4219 30.8125
L19.6719 30.8125
L19.6719 0
L9.8125 0
L9.8125 72.9062
L32.0781 72.9062
Q44.5781 72.9062 50.7344 67.6719
Q56.8906 62.4531 56.8906 51.9062
Q56.8906 45.0156 53.6875 40.4688
Q50.4844 35.9375 44.3906 34.1875
M19.6719 64.7969
L19.6719 38.9219
L32.0781 38.9219
Q39.2031 38.9219 42.8438 42.2188
Q46.4844 45.5156 46.4844 51.9062
Q46.4844 58.2969 42.8438 61.5469
Q39.2031 64.7969 32.0781 64.7969
z
" id="BitstreamVeraSans-Roman-52"/>
     <path d="
M19.6719 34.8125
L19.6719 8.10938
L35.5 8.10938
Q43.4531 8.10938 47.2812 11.4062
Q51.125 14.7031 51.125 21.4844
Q51.125 28.3281 47.2812 31.5625
Q43.4531 34.8125 35.5 34.8125
z

M19.6719 64.7969
L19.6719 42.8281
L34.2812 42.8281
Q41.5 42.8281 45.0312 45.5312
Q48.5781 48.25 48.5781 53.8125
Q48.5781 59.3281 45.0312 62.0625
Q41.5 64.7969 34.2812 64.7969
z

M9.8125 72.9062
L35.0156 72.9062
Q46.2969 72.9062 52.3906 68.2188
Q58.5 63.5312 58.5 54.8906
Q58.5 48.1875 55.375 44.2344
Q52.25 40.2812 46.1875 39.3125
Q53.4688 37.75 57.5 32.7812
Q61.5312 27.8281 61.5312 20.4062
Q61.5312 10.6406 54.8906 5.3125
Q48.25 0 35.9844 0
L9.8125 0
z
" id="BitstreamVeraSans-Roman-42"/>
     <path d="
M3.32812 72.9062
L13.2812 72.9062
L28.6094 11.2812
L43.8906 72.9062
L54.9844 72.9062
L70.3125 11.2812
L85.5938 72.9062
L95.6094 72.9062
L77.2969 0
L64.8906 0
L49.5156 63.2812
L33.9844 0
L21.5781 0
z
" id="BitstreamVeraSans-Roman-57"/>
     <path d="
M56.2031 29.5938
L56.2031 25.2031
L14.8906 25.2031
Q15.4844 15.9219 20.4844 11.0625
Q25.4844 6.20312 34.4219 6.20312
Q39.5938 6.20312 44.4531 7.46875
Q49.3125 8.73438 54.1094 11.2812
L54.1094 2.78125
Q49.2656 0.734375 44.1875 -0.34375
Q39.1094 -1.42188 33.8906 -1.42188
Q20.7969 -1.42188 13.1562 6.1875
Q5.51562 13.8125 5.51562 26.8125
Q5.51562 40.2344 12.7656 48.1094
Q20.0156 56 32.3281 56
Q43.3594 56 49.7812 48.8906
Q56.2031 41.7969 56.2031 29.5938
M47.2188 32.2344
Q47.125 39.5938 43.0938 43.9844
Q39.0625 48.3906 32.4219 48.3906
Q24.9062 48.3906 20.3906 44.1406
Q15.875 39.8906 15.1875 32.1719
z
" id="BitstreamVeraSans-Roman-65"/>
     <path d="
M18.3125 70.2188
L18.3125 54.6875
L36.8125 54.6875
L36.8125 47.7031
L18.3125 47.7031
L18.3125 18.0156
Q18.3125 11.3281 20.1406 9.42188
Q21.9688 7.51562 27.5938 7.51562
L36.8125 7.51562
L36.8125 0
L27.5938 0
Q17.1875 0 13.2344 3.875
Q9.28125 7.76562 9.28125 18.0156
L9.28125 47.7031
L2.6875 47.7031
L2.6875 54.6875
L9.28125 54.6875
L9.28125 70.2188
z
" id="BitstreamVeraSans-Roman-74"/>
     <path d="
M41.1094 46.2969
Q39.5938 47.1719 37.8125 47.5781
Q36.0312 48 33.8906 48
Q26.2656 48 22.1875 43.0469
Q18.1094 38.0938 18.1094 28.8125
L18.1094 0
L9.07812 0
L9.07812 54.6875
L18.1094 54.6875
L18.1094 46.1875
Q20.9531 51.1719 25.4844 53.5781
Q30.0312 56 36.5312 56
Q37.4531 56 38.5781 55.875
Q39.7031 55.7656 41.0625 55.5156
z
" id="BitstreamVeraSans-Roman-72"/>
     <path d="
M48.6875 27.2969
Q48.6875 37.2031 44.6094 42.8438
Q40.5312 48.4844 33.4062 48.4844
Q26.2656 48.4844 22.1875 42.8438
Q18.1094 37.2031 18.1094 27.2969
Q18.1094 17.3906 22.1875 11.75
Q26.2656 6.10938 33.4062 6.10938
Q40.5312 6.10938 44.6094 11.75
Q48.6875 17.3906 48.6875 27.2969
M18.1094 46.3906
Q20.9531 51.2656 25.2656 53.625
Q29.5938 56 35.5938 56
Q45.5625 56 51.7812 48.0938
Q58.0156 40.1875 58.0156 27.2969
Q58.0156 14.4062 51.7812 6.48438
Q45.5625 -1.42188 35.5938 -1.42188
Q29.5938 -1.42188 25.2656 0.953125
Q20.9531 3.32812 18.1094 8.20312
L18.1094 0
L9.07812 0
L9.07812 75.9844
L18.1094 75.9844
z
" id="BitstreamVeraSans-Roman-62"/>
    </defs>
    <g transform="translate(141.6353125 16.318125)scale(0.12 -0.12)">
     <use xlink:href="#BitstreamVeraSans-Roman-64"/>
     <use x="63.4765625" xlink:href="#BitstreamVeraSans-Roman-61"/>
     <use x="124.755859375" xlink:href="#BitstreamVeraSans-Roman-69"/>
     <use x="152.5390625" xlink:href="#BitstreamVeraSans-Roman-6c"/>
     <use x="180.322265625" xlink:href="#BitstreamVeraSans-Roman-79"/>
     <use x="239.501953125" xlink:href="#BitstreamVeraSans-Roman-20"/>
     <use x="271.2890625" xlink:href="#BitstreamVeraSans-Roman-62"/>
     <use x="334.765625" xlink:href="#BitstreamVeraSans-Roman-61"/>
     <use x="396.044921875" xlink:href="#BitstreamVeraSans-Roman-72"/>
     <use x="434.908203125" xlink:href="#BitstreamVeraSans-Roman-65"/>
     <use x="496.431640625" xlink:href="#BitstreamVeraSans-Roman-20"/>
     <use x="528.21875" xlink:href="#BitstreamVeraSans-Roman-50"/>
     <use x="588.521484375" xlink:href="#BitstreamVeraSans-Roman-45"/>
     <use x="651.705078125" xlink:href="#BitstreamVeraSans-Roman-54"/>
     <use x="712.7890625" xlink:href="#BitstreamVeraSans-Roman-20"/>
     <use x="744.576171875" xlink:href="#BitstreamVeraSans-Roman-61"/>
     <use x="805.85546875" xlink:href="#BitstreamVeraSans-Roman-74"/>
     <use x="845.064453125" xlink:href="#BitstreamVeraSans-Roman-20"/>
     <use x="876.8515625" xlink:href="#BitstreamVeraSans-Roman-42"/>
     <use x="945.455078125" xlink:href="#BitstreamVeraSans-Roman-52"/>
     <use x="1010.9375" xlink:href="#BitstreamVeraSans-Roman-57"/>
    </g>
   </g>
   <g id="legend_1">
    <g id="patch_7">
     <path d="
M297.241 83.7594
L369.428 83.7594
L369.428 27.3181
L297.241 27.3181
z
" style="fill:#ffffff;stroke:#000000;stroke-linejoin:miter;"/>
    </g>
    <g id="line2d_40">
     <path d="
M305.641 37.0363
L322.441 37.0363" style="fill:none;stroke:#0000ff;stroke-linecap:square;"/>
    </g>
    <g id="line2d_41"/>
    <g id="text_22">
     <!-- 2012 -->
     <g transform="translate(335.640625 41.23625)scale(0.12 -0.12)">
      <use xlink:href="#BitstreamVeraSans-Roman-32"/>
      <use x="63.623046875" xlink:href="#BitstreamVeraSans-Roman-30"/>
      <use x="127.24609375" xlink:href="#BitstreamVeraSans-Roman-31"/>
      <use x="190.869140625" xlink:href="#BitstreamVeraSans-Roman-32"/>
     </g>
    </g>
    <g id="line2d_42">
     <path d="
M305.641 54.65
L322.441 54.65" style="fill:none;stroke:#008000;stroke-linecap:square;"/>
    </g>
    <g id="line2d_43"/>
    <g id="text_23">
     <!-- 2013 -->
     <g transform="translate(335.640625 58.85)scale(0.12 -0.12)">
      <use xlink:href="#BitstreamVeraSans-Roman-32"/>
      <use x="63.623046875" xlink:href="#BitstreamVeraSans-Roman-30"/>
      <use x="127.24609375" xlink:href="#BitstreamVeraSans-Roman-31"/>
      <use x="190.869140625" xlink:href="#BitstreamVeraSans-Roman-33"/>
     </g>
    </g>
    <g id="line2d_44">
     <path d="
M305.641 72.2638
L322.441 72.2638" style="fill:none;stroke:#ff0000;stroke-linecap:square;"/>
    </g>
    <g id="line2d_45"/>
    <g id="text_24">
     <!-- 2014 -->
     <g transform="translate(335.640625 76.46375)scale(0.12 -0.12)">
      <use xlink:href="#BitstreamVeraSans-Roman-32"/>
      <use x="63.623046875" xlink:href="#BitstreamVeraSans-Roman-30"/>
      <use x="127.24609375" xlink:href="#BitstreamVeraSans-Roman-31"/>
      <use x="190.869140625" xlink:href="#BitstreamVeraSans-Roman-34"/>
     </g>
    </g>
   </g>
  </g>
 </g>
 <defs>
  <clipPath id="p2d16512a00">
   <rect height="223.2" width="334.8" x="40.628125" y="21.318125"/>
  </clipPath>
 </defs>
</svg>
