<?xml version="1.0" encoding="utf-8" standalone="no"?>
<!DOCTYPE svg PUBLIC "-//W3C//DTD SVG 1.1//EN"
  "http://www.w3.org/Graphics/SVG/1.1/DTD/svg11.dtd">
<!-- Created with matplotlib (http://matplotlib.org/) -->
<svg height="280pt" version="1.1" viewBox="0 0 382 280" width="382pt" xmlns="http://www.w3.org/2000/svg" xmlns:xlink="http://www.w3.org/1999/xlink">
 <defs>
  <style type="text/css">
*{stroke-linecap:butt;stroke-linejoin:round;}
  </style>
 </defs>
 <g id="figure_1">
  <g id="patch_1">
   <path d="
M0 280.074
L382.628 280.074
L382.628 0
L0 0
z
" style="fill:#ffffff;"/>
  </g>
  <g id="axes_1">
   <g id="patch_2">
    <path d="
M40.6281 244.518
L375.428 244.518
L375.428 21.3181
L40.6281 21.3181
z
" style="fill:#ffffff;"/>
   </g>
   <g id="line2d_1">
    <path clip-path="url(#p2d16512a00)" d="
M40.6281 202.375
L41.5454 197.617
L42.4626 189.608
L43.3799 173.412
L44.2972 207.136
L45.2144 221.632
L46.1317 215.681
L47.0489 228.301
L47.9662 217.765
L48.8835 223.649
L49.8007 207.858
L50.718 150.053
L51.6352 132.998
L52.5525 148.844
L53.4698 215.246
L54.387 220.449
L55.3043 177.543
L56.2215 196.746
L57.1388 235.676
L58.0561 234.604
L58.9733 233.734
L59.8906 213.892
M65.3942 211.465
L66.3114 161.791
L67.2287 231.214
L68.1459 220.647
L69.0632 212.22
L69.9805 242.733
L70.8977 232.741
L71.815 217.628
L72.7322 211.738
L73.6495 202.994
L74.5668 190.354
L75.484 204.043
L76.4013 229.153
L77.3185 226.432
L78.2358 220.646
L79.1531 190.431
L80.0703 193.018
L80.9876 226.915
L82.8221 203.059
L83.7394 201.9
L84.6566 239.278
L85.5739 217.28
L86.4911 205.616
L87.4084 233.163
L88.3257 226.1
L89.2429 198.901
L90.1602 180.477
L91.0774 200.69
L91.9947 215.958
L92.912 221.396
L93.8292 199.446
L94.7465 204.252
L95.6637 217.739
L96.581 209.211
L97.4983 240.262
L98.4155 224.64
L99.3328 180.722
L100.25 221.915
L101.167 170.423
L102.085 167.721
L103.002 169.772
L103.919 156.21
L104.836 191.758
L105.754 197.599
L106.671 201.745
L107.588 231.741
L108.505 224.193
L109.423 224.5
L110.34 235.443
M112.174 226.458
L113.092 232.261
L114.009 212.103
L114.926 166.148
L115.843 207.529
L116.761 167.77
L117.678 197.205
L118.595 230.694
L119.513 191.324
L120.43 218.921
L121.347 209.695
L122.264 222.328
L123.182 177.002
L124.099 175.478
L125.016 189.465
L125.933 164.585
L126.851 202.742
L127.768 208.567
L128.685 212.509
L129.602 159.468
L130.52 119.137
L131.437 144.785
L132.354 129.198
L133.271 187.849
L134.189 154.493
L135.106 197.839
L136.023 164.259
L136.94 155.946
L137.858 196.433
L138.775 152.049
L139.692 188.594
L140.609 208.01
L141.527 144.477
L143.361 126.424
L144.279 145.887
L145.196 146.109
L146.113 166.857
L147.03 225.666
L147.948 189.88
L148.865 171.389
L149.782 135.987
L150.699 203.928
L151.617 145.925
L152.534 141.343
L153.451 193.93
L154.368 217.001
L155.286 205.433
L156.203 140.147
L157.12 113.469
L158.037 104.845
L158.955 113.429
L159.872 73.4132
L160.789 54.0135
L161.706 58.8971
L162.624 70.8334
L163.541 93.4046
L164.458 138.273
L165.376 88.4533
L166.293 128.642
L167.21 65.3659
L168.127 53.9737
L169.045 76.2315
L169.962 161.238
L170.879 125.847
L171.796 139.756
L172.714 108.561
L173.631 167.141
L174.548 193.317
L175.465 126.925
L176.383 115.889
L177.3 66.8473
L178.217 65.6101
L179.134 105.517
L180.052 79.6715
L180.969 113.133
L181.886 104.385
L182.803 116.918
L183.721 178.278
L184.638 59.1279
L185.555 94.5567
L186.473 114.46
L187.39 175.751
L188.307 85.0936
L189.224 53.531
L190.142 117.367
L191.059 77.4144
L191.976 55.3818
L192.893 66.2788
L193.811 92.3237
L194.728 96.4129
L195.645 80.2369
L196.562 92.461
L197.48 66.9628
L198.397 81.2085
L199.314 90.0992
L200.231 84.7445
L201.149 80.4126
L202.066 75.2903
L202.983 113.989
L203.9 72.7289
L204.818 82.1186
L205.735 96.8015
L206.652 94.3291
L207.569 120.002
L208.487 99.9566
L209.404 85.1457
L210.321 75.2086
L211.239 100.707
L212.156 108.449
L213.073 107.574
L213.99 143.615
L214.908 130.873
L215.825 111.708
L216.742 121.132
L217.659 118.481
L218.577 165.404
L219.494 162.155
L220.411 131.639
L221.328 152.843
L222.246 106.193
L223.163 97.7514
L224.08 114.845
L224.997 102.351
L225.915 102.252
L226.832 114.327
L227.749 112.914
L228.666 99.9334
L229.584 119.143
L230.501 116.884
L231.418 124.347
L232.336 117.35
L233.253 118.464
L234.17 114.78
L235.087 115.258
L236.005 110.32
L236.922 104.195
L237.839 110.738
L238.756 113.299
L239.674 123.74
L240.591 117.351
L241.508 127.773
L242.425 141.911
L243.343 131.521
L244.26 151.454
L245.177 118.215
L246.094 134.001
L247.012 132.891
L247.929 128.997
L248.846 123.237
L249.763 129.617
L250.681 129.474
L251.598 127.073
L252.515 154.705
L253.433 138.93
L254.35 146.927
L255.267 133.651
L256.184 126.213
L257.102 100.531
L258.019 114.292
L258.936 141.727
L259.853 141.711
L260.771 133.589
L261.688 129.956
L262.605 121.635
L263.522 145.086
M267.191 122.386
L268.109 132.547
L269.026 163.889
L269.943 128.425
L270.86 135.767
L271.778 141.033
L272.695 127.655
L273.612 123.422
L274.529 110.28
L275.447 127.955
L276.364 139.261
L277.281 128.53
L278.199 134.005
L279.116 127.185
L280.033 131.652
L280.95 139.444
L281.868 152.003
L282.785 156.848
L283.702 145.69
L284.619 197.171
L285.537 147.744
L286.454 170.011
L287.371 156.789
L288.288 145.425
L289.206 151.237
L290.123 146.921
L291.04 146.984
L291.957 125.162
M294.709 215.869
L295.626 109.012
L296.544 106.56
L297.461 115.381
L298.378 116.14
L299.296 132.208
L300.213 137.398
L301.13 139.633
L302.047 136.458
L302.965 166.232
L303.882 143.455
L304.799 184.734
L305.716 170.668
L306.634 134.939
L307.551 124.494
L308.468 165.115
L309.385 189.01
L310.303 148.184
L311.22 233.284
L312.137 243.092
M313.972 236.64
L314.889 240.585
L315.806 215.405
L316.723 210.142
L317.641 178.974
L318.558 167.328
L319.475 159.134
L320.393 187.836
L322.227 189.863
L323.144 186.144
L324.062 211.216
L324.979 190.684
L325.896 201.624
L327.731 227.237
L328.648 222.205
M330.482 221.127
L331.4 232.54
L332.317 239.477
L333.234 221.015
L334.151 209.164
L335.069 231.29
L335.986 227.168
L336.903 238.086
L337.82 220.32
L338.738 223.474
L339.655 211.477
L340.572 169.788
L341.489 199.548
L342.407 210.791
L343.324 201.061
L344.241 221.07
L345.159 219.504
L346.076 221.568
L346.993 221.842
L347.91 224.965
L348.828 227.065
L349.745 228.882
L350.662 219.315
L351.579 241.683
L352.497 238.683
L353.414 212.165
L354.331 220.448
L355.248 198.627
L356.166 223.444
L357.083 221.457
L358 224.175
L358.917 214.92
L359.835 225.634
L360.752 217.796
L361.669 226.707
L362.586 228.647
L363.504 229.941
L364.421 220.46
L365.338 190.238
L366.256 151.562
L367.173 200.369
L368.09 224.675
L369.007 218.389
L369.925 217.886
L370.842 226.129
L371.759 230.282
M373.594 221.747
L374.511 223.473
L374.511 223.473" style="fill:none;stroke:#0000ff;stroke-linecap:square;"/>
   </g>
   <g id="line2d_2">
    <path clip-path="url(#p2d16512a00)" d="
M40.6281 234.39
L41.5454 206.286
L42.4626 188.039
L43.3799 212.399
L44.2972 241.14
L45.2144 213.003
L46.1317 240.405
L47.9662 229.019
L48.8835 226.413
L49.8007 207.251
L50.718 169.827
L51.6352 213.917
L52.5525 206.359
L53.4698 215.574
L54.387 210.476
L55.3043 180.499
L56.2215 181.292
L57.1388 187.662
L58.0561 179.728
L58.9733 190.207
L59.8906 191.813
L60.8079 164.016
L61.7251 193.556
L62.6424 240.193
L63.5596 231.954
L64.4769 211.459
L65.3942 220.378
L66.3114 223.944
L67.2287 230.318
L68.1459 238.314
L69.0632 232.985
M71.815 209.269
L72.7322 226.994
L73.6495 229.906
L74.5668 223.517
L75.484 201.619
L76.4013 243.341
L77.3185 209.472
L78.2358 201.012
L79.1531 238.186
L80.0703 233.661
L80.9876 231.345
L81.9048 216.421
L82.8221 212.953
L83.7394 225.547
L84.6566 199.027
L85.5739 201.159
L86.4911 217.789
L87.4084 194.205
L88.3257 223.075
L89.2429 222.697
L90.1602 224.732
L91.0774 236.983
L91.9947 190.452
L92.912 191.64
L93.8292 202.513
L94.7465 216.608
L95.6637 225.873
L96.581 206.031
L97.4983 173.657
L98.4155 182.962
L99.3328 207.821
L100.25 208.775
L101.167 189.347
L102.085 182.596
L103.002 154.255
L103.919 212.149
L104.836 219.925
L105.754 175.005
L106.671 168.941
L107.588 180.618
L108.505 201.822
L109.423 187.993
L110.34 189.073
L111.257 138
L112.174 184.278
L114.009 214.25
L114.926 209.943
L116.761 153.39
L117.678 199.142
L118.595 207.096
L119.513 172.965
L120.43 180.912
L121.347 165.245
L122.264 158.408
L123.182 180.763
L124.099 166.579
L125.016 161.422
L125.933 187.786
L126.851 198.344
L127.768 203.264
L128.685 240.85
L129.602 218.283
L130.52 178.072
L131.437 195.926
L132.354 188.745
L133.271 138.896
L134.189 185.528
L135.106 208.391
L136.023 214.62
L136.94 184.869
L137.858 143.786
L138.775 135.581
L139.692 211.851
L140.609 215.496
L142.444 169.591
L143.361 165.947
L144.279 124.599
L145.196 111.917
L146.113 129.529
L147.03 134.778
L147.948 105.577
L148.865 157.882
L149.782 134.684
L150.699 78.4133
L151.617 67.7052
L152.534 78.4123
L153.451 111.949
L154.368 98.7759
L155.286 133.93
L156.203 137.036
L157.12 148.534
L158.037 119.866
L158.955 113.899
L159.872 101.994
L160.789 109.032
L161.706 113.291
L162.624 88.2391
L163.541 103.57
L164.458 149.101
L165.376 167.123
L166.293 90.1855
L167.21 153.604
L168.127 74.3364
L169.045 125.502
L169.962 72.6649
L170.879 29.3548
L171.796 45.8033
L172.714 52.7602
L173.631 127.078
L174.548 129.014
L175.465 183.393
L176.383 147.726
L177.3 132.418
L178.217 67.8295
L179.134 72.7369
L180.052 71.8126
L180.969 66.4045
L181.886 93.2221
L182.803 81.0242
L183.721 104.835
L184.638 93.6773
L185.555 93.3166
L186.473 95.293
L187.39 111.023
L188.307 107.895
L189.224 82.1762
L190.142 113.329
L191.059 94.5354
L191.976 71.677
L192.893 103.001
L193.811 92.9877
L194.728 95.4385
L195.645 180.542
L196.562 116.778
L197.48 120.3
L198.397 109.579
L199.314 106.841
L200.231 162.082
L201.149 197.266
L202.066 116.072
L202.983 105.541
L203.9 105.481
L204.818 127.867
L205.735 126.035
L206.652 123.059
L207.569 128.689
L208.487 144.213
L209.404 115.919
L210.321 114.33
L211.239 100.772
L212.156 110.095
L213.073 116.509
L213.99 100.811
L214.908 113.579
L215.825 146.988
L216.742 103.871
L217.659 87.6172
L219.494 110.778
L220.411 142.493
L221.328 111.451
L222.246 106.598
L223.163 112.245
L224.08 109.746
L224.997 107.977
L225.915 104.814
L226.832 118.61
L227.749 140.794
L228.666 120.92
L229.584 135.351
L230.501 119.81
L231.418 113
L232.336 115.402
L233.253 114.38
L234.17 135.648
L235.087 119.965
L236.005 115.463
L236.922 101.557
L237.839 111.657
L238.756 117.562
L239.674 118.897
L240.591 122.809
L241.508 124.728
L242.425 122.939
L243.343 122.254
L244.26 141.569
L245.177 140.901
L246.094 126.749
L247.012 125.677
L247.929 134.789
L248.846 129.754
L249.763 141.865
L250.681 134.119
L251.598 139.83
L252.515 134.459
L253.433 142.676
L254.35 160.966
L255.267 141.66
L256.184 153.873
L258.019 131.463
L258.936 143.171
L259.853 150.421
L260.771 148.203
L261.688 137.622
L262.605 137.594
L263.522 144.998
L264.44 174.867
L265.357 197.827
L266.274 169.971
L267.191 186.738
L268.109 157.222
L269.026 138.862
L269.943 141.69
L270.86 144.039
L271.778 151.815
L272.695 152.607
L273.612 189.084
L274.529 171.376
L275.447 159.85
L276.364 157.458
L277.281 150.734
L278.199 191.766
L279.116 189.664
L280.033 142.975
L280.95 136.948
L281.868 175.369
L282.785 200.845
L283.702 161.88
L284.619 207.07
L285.537 213.965
L287.371 145.723
L288.288 158.43
L289.206 208.209
L290.123 180.201
L291.04 183.121
L291.957 153.689
L292.875 203.98
L293.792 133.969
L294.709 115.887
L295.626 123.972
L296.544 148.103
L297.461 185.349
L298.378 157.421
L299.296 182.697
L300.213 158.051
L301.13 149.272
L302.047 168.035
L302.965 152.066
L303.882 163.267
L304.799 144.841
L305.716 142.476
L306.634 136.917
L307.551 142.314
L308.468 152.482
L309.385 156.805
L310.303 150.333
L311.22 158.432
L312.137 161.316
L313.054 155.348
L313.972 160.196
L314.889 168.18
L315.806 195.971
L316.723 202.467
L317.641 213.195
L318.558 200.466
L320.393 227.059
L321.31 223.688
L322.227 193.346
L323.144 208.72
L324.062 218.842
L324.979 206.157
L325.896 206.851
L326.813 160.836
L327.731 172.441
L328.648 178.512
L329.565 175.144
L330.482 199.248
L331.4 209.263
L332.317 210.918
L333.234 233.191
L334.151 235.78
L335.069 212.963
L335.986 217.7
L336.903 225.345
L337.82 146.28
L338.738 183.771
L339.655 192.07
L340.572 167.309
L341.489 179.109
L342.407 187.819
L343.324 195.099
L344.241 194.596
L345.159 211.201
L346.076 221.186
L346.993 225.21
L347.91 220.497
L348.828 219.363
L349.745 188.524
L351.579 203.566
L352.497 230.36
L353.414 233.778
M355.248 183.083
L356.166 231.078
L357.083 224.258
L358 199.497
L358.917 224.102
L359.835 198.476
L360.752 190.79
L361.669 167.31
L362.586 217.67
L363.504 227.539
L364.421 208.361
L365.338 224.963
L366.256 231.626
L367.173 234.518
L368.09 227.498
L369.007 212.734
L369.925 169.531
L370.842 172.643
L371.759 221.701
L372.676 203.554
L373.594 215.438
L374.511 210.13
L374.511 210.13" style="fill:none;stroke:#008000;stroke-linecap:square;"/>
   </g>
   <g id="line2d_3">
    <path clip-path="url(#p2d16512a00)" d="
M40.6281 221.512
L41.5454 201.315
L42.4626 227.393
L43.3799 229.531
L44.2972 182.754
L45.2144 162.87
L46.1317 185.432
L47.0489 231.894
L47.9662 228.894
L48.8835 233.719
L49.8007 242.607
L50.718 229.495
L51.6352 225.409
L52.5525 212.492
L53.4698 220.737
L54.387 183.821
L55.3043 180.37
L56.2215 182.65
L57.1388 180.536
L58.0561 200.046
L58.9733 195.714
L59.8906 203.806
L60.8079 219.294
L62.6424 160.299
L63.5596 179.242
L64.4769 188.91
L65.3942 183.941
L66.3114 225.089
L67.2287 241.474
L68.1459 223.387
L69.0632 229.704
L69.9805 221.739
L70.8977 226.293
L71.815 216.224
L72.7322 220.265
L73.6495 227.696
L74.5668 223.847
L75.484 234.714
L76.4013 244.005
M78.2358 243.405
L79.1531 237.179
L80.0703 224.728
L80.9876 209.058
L81.9048 212.115
L82.8221 218.393
L83.7394 175.434
L84.6566 207.672
L85.5739 210.208
L86.4911 227.74
L87.4084 209.979
L88.3257 216.499
L89.2429 206.292
L90.1602 205.014
L91.0774 206.06
L91.9947 222.941
L92.912 222.756
L93.8292 223.958
L94.7465 233.89
L95.6637 239.684
M97.4983 216.921
L98.4155 228.127
L99.3328 213.988
L100.25 209.218
L101.167 196.611
L102.085 199.717
L103.002 219.251
L103.919 175.949
L104.836 167.12
L105.754 169.835
L106.671 217.258
L108.505 165.524
L109.423 201.467
L110.34 227.772
L111.257 177.738
L112.174 194.015
L113.092 170.132
L114.009 149.422
L114.926 159.809
L115.843 165.082
L116.761 203.396
L117.678 205.089
L118.595 230.766
L119.513 235.886
M121.347 244.216
L122.264 241.319
M124.099 239.275
L125.016 203.166
L125.933 221.709
L126.851 221.669
L127.768 213.662
L128.685 182.629
L129.602 169.107
L130.52 182.123
L131.437 161.945
L132.354 157.622
L133.271 168.584
L134.189 167.73
L135.106 129.57
L136.023 148.995
L136.94 134.585
L137.858 175.735
L138.775 145.461
L139.692 141.648
L140.609 162.187
L141.527 134.77
L142.444 222.93
L143.361 238.873
L144.279 205.302
L145.196 237.686
L146.113 203.469
L147.03 210.959
L147.948 192.366
L148.865 149.622
L149.782 145.73
L150.699 139.789
L151.617 137.538
L152.534 146.02
L153.451 144.308
L154.368 176.294
L155.286 141.854
L156.203 125.457
L157.12 161.174
L158.037 153.799
L158.955 176.411
L159.872 111.688
L160.789 108.226
L161.706 97.5996
L162.624 118.925
L163.541 114.877
L164.458 123.436
L165.376 94.2729
L166.293 130.581
L167.21 103.292
L168.127 148.798
L169.045 164.542
L169.962 90.2918
L171.796 137.054
L172.714 132.733
L173.631 107.135
L174.548 104.933
L175.465 104.511
L176.383 80.7951
L177.3 89.4969
L178.217 80.7653
L179.134 97.1295
L180.052 97.2466
L180.969 91.0363
L181.886 83.451
L182.803 78.3683
L183.721 74.7048
L184.638 100.336
L185.555 84.6961
L186.473 94.6082
L187.39 86.2642
L188.307 80.862
L189.224 103.668
L190.142 135.378
L191.059 115.048
L191.976 125.658
L192.893 132.55
L193.811 138.266
L194.728 161.307
L195.645 80.804
L196.562 89.734
L197.48 89.0957
L198.397 82.6907
L199.314 95.4799
L200.231 112.065
L201.149 167.986
L202.066 137.752
L202.983 151.401
L203.9 114.226
L204.818 87.8671
L205.735 89.9103
L206.652 101.82
L207.569 132.997
L208.487 123.169
L209.404 126.252
L210.321 114.31
L211.239 112.357
L212.156 112.026
L213.073 127.852
L213.99 153.317
L214.908 118.187
L215.825 126.199
L216.742 106.445
L217.659 128.891
L218.577 121.543
L219.494 120.922
L220.411 129.307
L221.328 139.071
L222.246 106.229
L223.163 115.712
L224.08 133.386
L224.997 163.75
L225.915 140.213
L226.832 120.504
L227.749 105.95
L228.666 99.7329
L229.584 107.458
L230.501 124.033
L231.418 142.881
L232.336 142.692
L233.253 143.169
L234.17 133.525
L235.087 127.712
L236.005 136.458
L237.839 144.849
L238.756 163.933
L239.674 164.902
L240.591 131.056
L241.508 141.645
L242.425 137.318
L243.343 145.557
L244.26 142.522
L245.177 151.532
L246.094 183.509
L247.012 149.931
L247.929 131.185
L248.846 131.238
L249.763 125.57
L250.681 129.954
L251.598 146.032
L252.515 148.609
L253.433 142.062
L254.35 147.056
L255.267 137.492
L257.102 160.433
L258.019 172.987
L258.936 133.723
L259.853 144.206
L260.771 140.41
L261.688 157.893
L262.605 137.605
L263.522 131.203
L264.44 133.663
L265.357 143.17
L266.274 122.651
L267.191 124.812
L268.109 132.035
L269.026 135.546
L269.943 141.214
L270.86 134.162
L271.778 139.466
L272.695 129.344
L273.612 116.413
L274.529 136.976
L275.447 140.78
L276.364 148.707
L277.281 152.927
L278.199 159.168
L279.116 169.32
L280.95 158.286
L281.868 194.93
L282.785 192.176
L283.702 185.318
L284.619 160.058
L285.537 154.8
L286.454 140.553
L287.371 197.072
L288.288 194.907
L289.206 211.688
L290.123 181.051
L291.04 175.742
L291.957 145.054
L292.875 132.312
L293.792 144.186
L294.709 148.676
L295.626 158.458
L297.461 153.927
L298.378 152.408
L299.296 158.64
L300.213 171.725
L301.13 160.605
L302.047 144.252
L302.965 160.308
L303.882 215.535
L304.799 187.313
L305.716 143.956
L307.551 163.139
L308.468 151.826
L309.385 229.683
L310.303 184.502
L311.22 210.253
L312.137 175.08
L313.054 188.601
L313.972 210.145
L314.889 191.462
L315.806 153.67
L316.723 175.226
L317.641 172.039
L318.558 182.346
L319.475 216.137
M322.227 237.888
L323.144 222.129
L324.062 194.817
L324.979 197.992
L325.896 178.15
L326.813 216.159
L327.731 219.566
L328.648 226.292
L329.565 172.562
L330.482 195.19
L331.4 233.322
L332.317 222.828
L333.234 240.035
L334.151 156.478
L335.069 171.877
L335.986 172.493
L337.82 234.959
L338.738 238.353
L339.655 235.32
L340.572 228.435
L341.489 240.708
L342.407 216.653
L343.324 196.504
L344.241 186.157
L345.159 234.465
L346.076 219.395
L346.993 213.553
M348.828 243.148
L349.745 234.432
L350.662 213.092
L351.579 226.818
L352.497 192.07
L353.414 221.61
L354.331 221.911
L355.248 212.907
L356.166 185.635
L357.083 223.804
L358 235.751
L358.917 207.856
L359.835 198.832
L360.752 238.172
L361.669 231.723
M365.338 243.641
L366.256 239.501
L367.173 238.102
M371.759 233.126
L372.676 229.37
L373.594 233.548
L374.511 218.428
L374.511 218.428" style="fill:none;stroke:#ff0000;stroke-linecap:square;"/>
   </g>
   <g id="patch_3">
    <path d="
M40.6281 21.3181
L375.428 21.3181" style="fill:none;stroke:#000000;stroke-linecap:square;stroke-linejoin:miter;"/>
   </g>
   <g id="patch_4">
    <path d="
M375.428 244.518
L375.428 21.3181" style="fill:none;stroke:#000000;stroke-linecap:square;stroke-linejoin:miter;"/>
   </g>
   <g id="patch_5">
    <path d="
M40.6281 244.518
L375.428 244.518" style="fill:none;stroke:#000000;stroke-linecap:square;stroke-linejoin:miter;"/>
   </g>
   <g id="patch_6">
    <path d="
M40.6281 244.518
L40.6281 21.3181" style="fill:none;stroke:#000000;stroke-linecap:square;stroke-linejoin:miter;"/>
   </g>
   <g id="matplotlib.axis_1">
    <g id="xtick_1">
     <g id="line2d_4">
      <defs>
       <path d="
M0 0
L0 -4" id="m93b0483c22" style="stroke:#000000;stroke-width:0.5;"/>
      </defs>
      <g>
       <use style="stroke:#000000;stroke-width:0.5;" x="40.628125" xlink:href="#m93b0483c22" y="244.518125"/>
      </g>
     </g>
     <g id="line2d_5">
      <defs>
       <path d="
M0 0
L0 4" id="m741efc42ff" style="stroke:#000000;stroke-width:0.5;"/>
      </defs>
      <g>
       <use style="stroke:#000000;stroke-width:0.5;" x="40.628125" xlink:href="#m741efc42ff" y="21.318125"/>
      </g>
     </g>
     <g id="text_1">
      <!-- 0 -->
      <defs>
       <path d="
M31.7812 66.4062
Q24.1719 66.4062 20.3281 58.9062
Q16.5 51.4219 16.5 36.375
Q16.5 21.3906 20.3281 13.8906
Q24.1719 6.39062 31.7812 6.39062
Q39.4531 6.39062 43.2812 13.8906
Q47.125 21.3906 47.125 36.375
Q47.125 51.4219 43.2812 58.9062
Q39.4531 66.4062 31.7812 66.4062
M31.7812 74.2188
Q44.0469 74.2188 50.5156 64.5156
Q56.9844 54.8281 56.9844 36.375
Q56.9844 17.9688 50.5156 8.26562
Q44.0469 -1.42188 31.7812 -1.42188
Q19.5312 -1.42188 13.0625 8.26562
Q6.59375 17.9688 6.59375 36.375
Q6.59375 54.8281 13.0625 64.5156
Q19.5312 74.2188 31.7812 74.2188" id="BitstreamVeraSans-Roman-30"/>
      </defs>
      <g transform="translate(38.10859375 256.1165625)scale(0.1 -0.1)">
       <use xlink:href="#BitstreamVeraSans-Roman-30"/>
      </g>
     </g>
    </g>
    <g id="xtick_2">
     <g id="line2d_6">
      <g>
       <use style="stroke:#000000;stroke-width:0.5;" x="86.4911386986" xlink:href="#m93b0483c22" y="244.518125"/>
      </g>
     </g>
     <g id="line2d_7">
      <g>
       <use style="stroke:#000000;stroke-width:0.5;" x="86.4911386986" xlink:href="#m741efc42ff" y="21.318125"/>
      </g>
     </g>
     <g id="text_2">
      <!-- 50 -->
      <defs>
       <path d="
M10.7969 72.9062
L49.5156 72.9062
L49.5156 64.5938
L19.8281 64.5938
L19.8281 46.7344
Q21.9688 47.4688 24.1094 47.8281
Q26.2656 48.1875 28.4219 48.1875
Q40.625 48.1875 47.75 41.5
Q54.8906 34.8125 54.8906 23.3906
Q54.8906 11.625 47.5625 5.09375
Q40.2344 -1.42188 26.9062 -1.42188
Q22.3125 -1.42188 17.5469 -0.640625
Q12.7969 0.140625 7.71875 1.70312
L7.71875 11.625
Q12.1094 9.23438 16.7969 8.0625
Q21.4844 6.89062 26.7031 6.89062
Q35.1562 6.89062 40.0781 11.3281
Q45.0156 15.7656 45.0156 23.3906
Q45.0156 31 40.0781 35.4375
Q35.1562 39.8906 26.7031 39.8906
Q22.75 39.8906 18.8125 39.0156
Q14.8906 38.1406 10.7969 36.2812
z
" id="BitstreamVeraSans-Roman-35"/>
      </defs>
      <g transform="translate(80.8466074486 256.1165625)scale(0.1 -0.1)">
       <use xlink:href="#BitstreamVeraSans-Roman-35"/>
       <use x="63.623046875" xlink:href="#BitstreamVeraSans-Roman-30"/>
      </g>
     </g>
    </g>
    <g id="xtick_3">
     <g id="line2d_8">
      <g>
       <use style="stroke:#000000;stroke-width:0.5;" x="132.354152397" xlink:href="#m93b0483c22" y="244.518125"/>
      </g>
     </g>
     <g id="line2d_9">
      <g>
       <use style="stroke:#000000;stroke-width:0.5;" x="132.354152397" xlink:href="#m741efc42ff" y="21.318125"/>
      </g>
     </g>
     <g id="text_3">
      <!-- 100 -->
      <defs>
       <path d="
M12.4062 8.29688
L28.5156 8.29688
L28.5156 63.9219
L10.9844 60.4062
L10.9844 69.3906
L28.4219 72.9062
L38.2812 72.9062
L38.2812 8.29688
L54.3906 8.29688
L54.3906 0
L12.4062 0
z
" id="BitstreamVeraSans-Roman-31"/>
      </defs>
      <g transform="translate(123.691652397 256.1165625)scale(0.1 -0.1)">
       <use xlink:href="#BitstreamVeraSans-Roman-31"/>
       <use x="63.623046875" xlink:href="#BitstreamVeraSans-Roman-30"/>
       <use x="127.24609375" xlink:href="#BitstreamVeraSans-Roman-30"/>
      </g>
     </g>
    </g>
    <g id="xtick_4">
     <g id="line2d_10">
      <g>
       <use style="stroke:#000000;stroke-width:0.5;" x="178.217166096" xlink:href="#m93b0483c22" y="244.518125"/>
      </g>
     </g>
     <g id="line2d_11">
      <g>
       <use style="stroke:#000000;stroke-width:0.5;" x="178.217166096" xlink:href="#m741efc42ff" y="21.318125"/>
      </g>
     </g>
     <g id="text_4">
      <!-- 150 -->
      <g transform="translate(169.554666096 256.1165625)scale(0.1 -0.1)">
       <use xlink:href="#BitstreamVeraSans-Roman-31"/>
       <use x="63.623046875" xlink:href="#BitstreamVeraSans-Roman-35"/>
       <use x="127.24609375" xlink:href="#BitstreamVeraSans-Roman-30"/>
      </g>
     </g>
    </g>
    <g id="xtick_5">
     <g id="line2d_12">
      <g>
       <use style="stroke:#000000;stroke-width:0.5;" x="224.080179795" xlink:href="#m93b0483c22" y="244.518125"/>
      </g>
     </g>
     <g id="line2d_13">
      <g>
       <use style="stroke:#000000;stroke-width:0.5;" x="224.080179795" xlink:href="#m741efc42ff" y="21.318125"/>
      </g>
     </g>
     <g id="text_5">
      <!-- 200 -->
      <defs>
       <path d="
M19.1875 8.29688
L53.6094 8.29688
L53.6094 0
L7.32812 0
L7.32812 8.29688
Q12.9375 14.1094 22.625 23.8906
Q32.3281 33.6875 34.8125 36.5312
Q39.5469 41.8438 41.4219 45.5312
Q43.3125 49.2188 43.3125 52.7812
Q43.3125 58.5938 39.2344 62.25
Q35.1562 65.9219 28.6094 65.9219
Q23.9688 65.9219 18.8125 64.3125
Q13.6719 62.7031 7.8125 59.4219
L7.8125 69.3906
Q13.7656 71.7812 18.9375 73
Q24.125 74.2188 28.4219 74.2188
Q39.75 74.2188 46.4844 68.5469
Q53.2188 62.8906 53.2188 53.4219
Q53.2188 48.9219 51.5312 44.8906
Q49.8594 40.875 45.4062 35.4062
Q44.1875 33.9844 37.6406 27.2188
Q31.1094 20.4531 19.1875 8.29688" id="BitstreamVeraSans-Roman-32"/>
      </defs>
      <g transform="translate(215.234867295 256.1165625)scale(0.1 -0.1)">
       <use xlink:href="#BitstreamVeraSans-Roman-32"/>
       <use x="63.623046875" xlink:href="#BitstreamVeraSans-Roman-30"/>
       <use x="127.24609375" xlink:href="#BitstreamVeraSans-Roman-30"/>
      </g>
     </g>
    </g>
    <g id="xtick_6">
     <g id="line2d_14">
      <g>
       <use style="stroke:#000000;stroke-width:0.5;" x="269.943193493" xlink:href="#m93b0483c22" y="244.518125"/>
      </g>
     </g>
     <g id="line2d_15">
      <g>
       <use style="stroke:#000000;stroke-width:0.5;" x="269.943193493" xlink:href="#m741efc42ff" y="21.318125"/>
      </g>
     </g>
     <g id="text_6">
      <!-- 250 -->
      <g transform="translate(261.097880993 256.1165625)scale(0.1 -0.1)">
       <use xlink:href="#BitstreamVeraSans-Roman-32"/>
       <use x="63.623046875" xlink:href="#BitstreamVeraSans-Roman-35"/>
       <use x="127.24609375" xlink:href="#BitstreamVeraSans-Roman-30"/>
      </g>
     </g>
    </g>
    <g id="xtick_7">
     <g id="line2d_16">
      <g>
       <use style="stroke:#000000;stroke-width:0.5;" x="315.806207192" xlink:href="#m93b0483c22" y="244.518125"/>
      </g>
     </g>
     <g id="line2d_17">
      <g>
       <use style="stroke:#000000;stroke-width:0.5;" x="315.806207192" xlink:href="#m741efc42ff" y="21.318125"/>
      </g>
     </g>
     <g id="text_7">
      <!-- 300 -->
      <defs>
       <path d="
M40.5781 39.3125
Q47.6562 37.7969 51.625 33
Q55.6094 28.2188 55.6094 21.1875
Q55.6094 10.4062 48.1875 4.48438
Q40.7656 -1.42188 27.0938 -1.42188
Q22.5156 -1.42188 17.6562 -0.515625
Q12.7969 0.390625 7.625 2.20312
L7.625 11.7188
Q11.7188 9.32812 16.5938 8.10938
Q21.4844 6.89062 26.8125 6.89062
Q36.0781 6.89062 40.9375 10.5469
Q45.7969 14.2031 45.7969 21.1875
Q45.7969 27.6406 41.2812 31.2656
Q36.7656 34.9062 28.7188 34.9062
L20.2188 34.9062
L20.2188 43.0156
L29.1094 43.0156
Q36.375 43.0156 40.2344 45.9219
Q44.0938 48.8281 44.0938 54.2969
Q44.0938 59.9062 40.1094 62.9062
Q36.1406 65.9219 28.7188 65.9219
Q24.6562 65.9219 20.0156 65.0312
Q15.375 64.1562 9.8125 62.3125
L9.8125 71.0938
Q15.4375 72.6562 20.3438 73.4375
Q25.25 74.2188 29.5938 74.2188
Q40.8281 74.2188 47.3594 69.1094
Q53.9062 64.0156 53.9062 55.3281
Q53.9062 49.2656 50.4375 45.0938
Q46.9688 40.9219 40.5781 39.3125" id="BitstreamVeraSans-Roman-33"/>
      </defs>
      <g transform="translate(306.975738442 256.1165625)scale(0.1 -0.1)">
       <use xlink:href="#BitstreamVeraSans-Roman-33"/>
       <use x="63.623046875" xlink:href="#BitstreamVeraSans-Roman-30"/>
       <use x="127.24609375" xlink:href="#BitstreamVeraSans-Roman-30"/>
      </g>
     </g>
    </g>
    <g id="xtick_8">
     <g id="line2d_18">
      <g>
       <use style="stroke:#000000;stroke-width:0.5;" x="361.66922089" xlink:href="#m93b0483c22" y="244.518125"/>
      </g>
     </g>
     <g id="line2d_19">
      <g>
       <use style="stroke:#000000;stroke-width:0.5;" x="361.66922089" xlink:href="#m741efc42ff" y="21.318125"/>
      </g>
     </g>
     <g id="text_8">
      <!-- 350 -->
      <g transform="translate(352.83875214 256.1165625)scale(0.1 -0.1)">
       <use xlink:href="#BitstreamVeraSans-Roman-33"/>
       <use x="63.623046875" xlink:href="#BitstreamVeraSans-Roman-35"/>
       <use x="127.24609375" xlink:href="#BitstreamVeraSans-Roman-30"/>
      </g>
     </g>
    </g>
    <g id="text_9">
     <!-- Julian day -->
     <defs>
      <path id="BitstreamVeraSans-Roman-20"/>
      <path d="
M9.8125 72.9062
L19.6719 72.9062
L19.6719 5.07812
Q19.6719 -8.10938 14.6719 -14.0625
Q9.67188 -20.0156 -1.42188 -20.0156
L-5.17188 -20.0156
L-5.17188 -11.7188
L-2.09375 -11.7188
Q4.4375 -11.7188 7.125 -8.04688
Q9.8125 -4.39062 9.8125 5.07812
z
" id="BitstreamVeraSans-Roman-4a"/>
      <path d="
M54.8906 33.0156
L54.8906 0
L45.9062 0
L45.9062 32.7188
Q45.9062 40.4844 42.875 44.3281
Q39.8438 48.1875 33.7969 48.1875
Q26.5156 48.1875 22.3125 43.5469
Q18.1094 38.9219 18.1094 30.9062
L18.1094 0
L9.07812 0
L9.07812 54.6875
L18.1094 54.6875
L18.1094 46.1875
Q21.3438 51.125 25.7031 53.5625
Q30.0781 56 35.7969 56
Q45.2188 56 50.0469 50.1719
Q54.8906 44.3438 54.8906 33.0156" id="BitstreamVeraSans-Roman-6e"/>
      <path d="
M9.42188 75.9844
L18.4062 75.9844
L18.4062 0
L9.42188 0
z
" id="BitstreamVeraSans-Roman-6c"/>
      <path d="
M9.42188 54.6875
L18.4062 54.6875
L18.4062 0
L9.42188 0
z

M9.42188 75.9844
L18.4062 75.9844
L18.4062 64.5938
L9.42188 64.5938
z
" id="BitstreamVeraSans-Roman-69"/>
      <path d="
M32.1719 -5.07812
Q28.375 -14.8438 24.75 -17.8125
Q21.1406 -20.7969 15.0938 -20.7969
L7.90625 -20.7969
L7.90625 -13.2812
L13.1875 -13.2812
Q16.8906 -13.2812 18.9375 -11.5156
Q21 -9.76562 23.4844 -3.21875
L25.0938 0.875
L2.98438 54.6875
L12.5 54.6875
L29.5938 11.9219
L46.6875 54.6875
L56.2031 54.6875
z
" id="BitstreamVeraSans-Roman-79"/>
      <path d="
M45.4062 46.3906
L45.4062 75.9844
L54.3906 75.9844
L54.3906 0
L45.4062 0
L45.4062 8.20312
Q42.5781 3.32812 38.25 0.953125
Q33.9375 -1.42188 27.875 -1.42188
Q17.9688 -1.42188 11.7344 6.48438
Q5.51562 14.4062 5.51562 27.2969
Q5.51562 40.1875 11.7344 48.0938
Q17.9688 56 27.875 56
Q33.9375 56 38.25 53.625
Q42.5781 51.2656 45.4062 46.3906
M14.7969 27.2969
Q14.7969 17.3906 18.875 11.75
Q22.9531 6.10938 30.0781 6.10938
Q37.2031 6.10938 41.2969 11.75
Q45.4062 17.3906 45.4062 27.2969
Q45.4062 37.2031 41.2969 42.8438
Q37.2031 48.4844 30.0781 48.4844
Q22.9531 48.4844 18.875 42.8438
Q14.7969 37.2031 14.7969 27.2969" id="BitstreamVeraSans-Roman-64"/>
      <path d="
M8.5 21.5781
L8.5 54.6875
L17.4844 54.6875
L17.4844 21.9219
Q17.4844 14.1562 20.5 10.2656
Q23.5312 6.39062 29.5938 6.39062
Q36.8594 6.39062 41.0781 11.0312
Q45.3125 15.6719 45.3125 23.6875
L45.3125 54.6875
L54.2969 54.6875
L54.2969 0
L45.3125 0
L45.3125 8.40625
Q42.0469 3.42188 37.7188 1
Q33.4062 -1.42188 27.6875 -1.42188
Q18.2656 -1.42188 13.375 4.4375
Q8.5 10.2969 8.5 21.5781" id="BitstreamVeraSans-Roman-75"/>
      <path d="
M34.2812 27.4844
Q23.3906 27.4844 19.1875 25
Q14.9844 22.5156 14.9844 16.5
Q14.9844 11.7188 18.1406 8.90625
Q21.2969 6.10938 26.7031 6.10938
Q34.1875 6.10938 38.7031 11.4062
Q43.2188 16.7031 43.2188 25.4844
L43.2188 27.4844
z

M52.2031 31.2031
L52.2031 0
L43.2188 0
L43.2188 8.29688
Q40.1406 3.32812 35.5469 0.953125
Q30.9531 -1.42188 24.3125 -1.42188
Q15.9219 -1.42188 10.9531 3.29688
Q6 8.01562 6 15.9219
Q6 25.1406 12.1719 29.8281
Q18.3594 34.5156 30.6094 34.5156
L43.2188 34.5156
L43.2188 35.4062
Q43.2188 41.6094 39.1406 45
Q35.0625 48.3906 27.6875 48.3906
Q23 48.3906 18.5469 47.2656
Q14.1094 46.1406 10.0156 43.8906
L10.0156 52.2031
Q14.9375 54.1094 19.5781 55.0469
Q24.2188 56 28.6094 56
Q40.4844 56 46.3438 49.8438
Q52.2031 43.7031 52.2031 31.2031" id="BitstreamVeraSans-Roman-61"/>
     </defs>
     <g transform="translate(183.47734375 270.7946875)scale(0.1 -0.1)">
      <use xlink:href="#BitstreamVeraSans-Roman-4a"/>
      <use x="29.4921875" xlink:href="#BitstreamVeraSans-Roman-75"/>
      <use x="92.87109375" xlink:href="#BitstreamVeraSans-Roman-6c"/>
      <use x="120.654296875" xlink:href="#BitstreamVeraSans-Roman-69"/>
      <use x="148.4375" xlink:href="#BitstreamVeraSans-Roman-61"/>
      <use x="209.716796875" xlink:href="#BitstreamVeraSans-Roman-6e"/>
      <use x="273.095703125" xlink:href="#BitstreamVeraSans-Roman-20"/>
      <use x="304.8828125" xlink:href="#BitstreamVeraSans-Roman-64"/>
      <use x="368.359375" xlink:href="#BitstreamVeraSans-Roman-61"/>
      <use x="429.638671875" xlink:href="#BitstreamVeraSans-Roman-79"/>
     </g>
    </g>
   </g>
   <g id="matplotlib.axis_2">
    <g id="ytick_1">
     <g id="line2d_20">
      <defs>
       <path d="
M0 0
L4 0" id="m728421d6d4" style="stroke:#000000;stroke-width:0.5;"/>
      </defs>
      <g>
       <use style="stroke:#000000;stroke-width:0.5;" x="40.628125" xlink:href="#m728421d6d4" y="244.518125"/>
      </g>
     </g>
     <g id="line2d_21">
      <defs>
       <path d="
M0 0
L-4 0" id="mcb0005524f" style="stroke:#000000;stroke-width:0.5;"/>
      </defs>
      <g>
       <use style="stroke:#000000;stroke-width:0.5;" x="375.428125" xlink:href="#mcb0005524f" y="244.518125"/>
      </g>
     </g>
     <g id="text_10">
      <!-- 0.0 -->
      <defs>
       <path d="
M10.6875 12.4062
L21 12.4062
L21 0
L10.6875 0
z
" id="BitstreamVeraSans-Roman-2e"/>
      </defs>
      <g transform="translate(22.0484375 247.2775)scale(0.1 -0.1)">
       <use xlink:href="#BitstreamVeraSans-Roman-30"/>
       <use x="63.623046875" xlink:href="#BitstreamVeraSans-Roman-2e"/>
       <use x="95.41015625" xlink:href="#BitstreamVeraSans-Roman-30"/>
      </g>
     </g>
    </g>
    <g id="ytick_2">
     <g id="line2d_22">
      <g>
       <use style="stroke:#000000;stroke-width:0.5;" x="40.628125" xlink:href="#m728421d6d4" y="219.718125"/>
      </g>
     </g>
     <g id="line2d_23">
      <g>
       <use style="stroke:#000000;stroke-width:0.5;" x="375.428125" xlink:href="#mcb0005524f" y="219.718125"/>
      </g>
     </g>
     <g id="text_11">
      <!-- 0.5 -->
      <g transform="translate(22.2578125 222.4775)scale(0.1 -0.1)">
       <use xlink:href="#BitstreamVeraSans-Roman-30"/>
       <use x="63.623046875" xlink:href="#BitstreamVeraSans-Roman-2e"/>
       <use x="95.41015625" xlink:href="#BitstreamVeraSans-Roman-35"/>
      </g>
     </g>
    </g>
    <g id="ytick_3">
     <g id="line2d_24">
      <g>
       <use style="stroke:#000000;stroke-width:0.5;" x="40.628125" xlink:href="#m728421d6d4" y="194.918125"/>
      </g>
     </g>
     <g id="line2d_25">
      <g>
       <use style="stroke:#000000;stroke-width:0.5;" x="375.428125" xlink:href="#mcb0005524f" y="194.918125"/>
      </g>
     </g>
     <g id="text_12">
      <!-- 1.0 -->
      <g transform="translate(22.4875 197.6775)scale(0.1 -0.1)">
       <use xlink:href="#BitstreamVeraSans-Roman-31"/>
       <use x="63.623046875" xlink:href="#BitstreamVeraSans-Roman-2e"/>
       <use x="95.41015625" xlink:href="#BitstreamVeraSans-Roman-30"/>
      </g>
     </g>
    </g>
    <g id="ytick_4">
     <g id="line2d_26">
      <g>
       <use style="stroke:#000000;stroke-width:0.5;" x="40.628125" xlink:href="#m728421d6d4" y="170.118125"/>
      </g>
     </g>
     <g id="line2d_27">
      <g>
       <use style="stroke:#000000;stroke-width:0.5;" x="375.428125" xlink:href="#mcb0005524f" y="170.118125"/>
      </g>
     </g>
     <g id="text_13">
      <!-- 1.5 -->
      <g transform="translate(22.696875 172.8775)scale(0.1 -0.1)">
       <use xlink:href="#BitstreamVeraSans-Roman-31"/>
       <use x="63.623046875" xlink:href="#BitstreamVeraSans-Roman-2e"/>
       <use x="95.41015625" xlink:href="#BitstreamVeraSans-Roman-35"/>
      </g>
     </g>
    </g>
    <g id="ytick_5">
     <g id="line2d_28">
      <g>
       <use style="stroke:#000000;stroke-width:0.5;" x="40.628125" xlink:href="#m728421d6d4" y="145.318125"/>
      </g>
     </g>
     <g id="line2d_29">
      <g>
       <use style="stroke:#000000;stroke-width:0.5;" x="375.428125" xlink:href="#mcb0005524f" y="145.318125"/>
      </g>
     </g>
     <g id="text_14">
      <!-- 2.0 -->
      <g transform="translate(22.121875 148.0775)scale(0.1 -0.1)">
       <use xlink:href="#BitstreamVeraSans-Roman-32"/>
       <use x="63.623046875" xlink:href="#BitstreamVeraSans-Roman-2e"/>
       <use x="95.41015625" xlink:href="#BitstreamVeraSans-Roman-30"/>
      </g>
     </g>
    </g>
    <g id="ytick_6">
     <g id="line2d_30">
      <g>
       <use style="stroke:#000000;stroke-width:0.5;" x="40.628125" xlink:href="#m728421d6d4" y="120.518125"/>
      </g>
     </g>
     <g id="line2d_31">
      <g>
       <use style="stroke:#000000;stroke-width:0.5;" x="375.428125" xlink:href="#mcb0005524f" y="120.518125"/>
      </g>
     </g>
     <g id="text_15">
      <!-- 2.5 -->
      <g transform="translate(22.33125 123.2775)scale(0.1 -0.1)">
       <use xlink:href="#BitstreamVeraSans-Roman-32"/>
       <use x="63.623046875" xlink:href="#BitstreamVeraSans-Roman-2e"/>
       <use x="95.41015625" xlink:href="#BitstreamVeraSans-Roman-35"/>
      </g>
     </g>
    </g>
    <g id="ytick_7">
     <g id="line2d_32">
      <g>
       <use style="stroke:#000000;stroke-width:0.5;" x="40.628125" xlink:href="#m728421d6d4" y="95.718125"/>
      </g>
     </g>
     <g id="line2d_33">
      <g>
       <use style="stroke:#000000;stroke-width:0.5;" x="375.428125" xlink:href="#mcb0005524f" y="95.718125"/>
      </g>
     </g>
     <g id="text_16">
      <!-- 3.0 -->
      <g transform="translate(22.1515625 98.4775)scale(0.1 -0.1)">
       <use xlink:href="#BitstreamVeraSans-Roman-33"/>
       <use x="63.623046875" xlink:href="#BitstreamVeraSans-Roman-2e"/>
       <use x="95.41015625" xlink:href="#BitstreamVeraSans-Roman-30"/>
      </g>
     </g>
    </g>
    <g id="ytick_8">
     <g id="line2d_34">
      <g>
       <use style="stroke:#000000;stroke-width:0.5;" x="40.628125" xlink:href="#m728421d6d4" y="70.918125"/>
      </g>
     </g>
     <g id="line2d_35">
      <g>
       <use style="stroke:#000000;stroke-width:0.5;" x="375.428125" xlink:href="#mcb0005524f" y="70.918125"/>
      </g>
     </g>
     <g id="text_17">
      <!-- 3.5 -->
      <g transform="translate(22.3609375 73.6775)scale(0.1 -0.1)">
       <use xlink:href="#BitstreamVeraSans-Roman-33"/>
       <use x="63.623046875" xlink:href="#BitstreamVeraSans-Roman-2e"/>
       <use x="95.41015625" xlink:href="#BitstreamVeraSans-Roman-35"/>
      </g>
     </g>
    </g>
    <g id="ytick_9">
     <g id="line2d_36">
      <g>
       <use style="stroke:#000000;stroke-width:0.5;" x="40.628125" xlink:href="#m728421d6d4" y="46.118125"/>
      </g>
     </g>
     <g id="line2d_37">
      <g>
       <use style="stroke:#000000;stroke-width:0.5;" x="375.428125" xlink:href="#mcb0005524f" y="46.118125"/>
      </g>
     </g>
     <g id="text_18">
      <!-- 4.0 -->
      <defs>
       <path d="
M37.7969 64.3125
L12.8906 25.3906
L37.7969 25.3906
z

M35.2031 72.9062
L47.6094 72.9062
L47.6094 25.3906
L58.0156 25.3906
L58.0156 17.1875
L47.6094 17.1875
L47.6094 0
L37.7969 0
L37.7969 17.1875
L4.89062 17.1875
L4.89062 26.7031
z
" id="BitstreamVeraSans-Roman-34"/>
      </defs>
      <g transform="translate(21.878125 48.8775)scale(0.1 -0.1)">
       <use xlink:href="#BitstreamVeraSans-Roman-34"/>
       <use x="63.623046875" xlink:href="#BitstreamVeraSans-Roman-2e"/>
       <use x="95.41015625" xlink:href="#BitstreamVeraSans-Roman-30"/>
      </g>
     </g>
    </g>
    <g id="ytick_10">
     <g id="line2d_38">
      <g>
       <use style="stroke:#000000;stroke-width:0.5;" x="40.628125" xlink:href="#m728421d6d4" y="21.318125"/>
      </g>
     </g>
     <g id="line2d_39">
      <g>
       <use style="stroke:#000000;stroke-width:0.5;" x="375.428125" xlink:href="#mcb0005524f" y="21.318125"/>
      </g>
     </g>
     <g id="text_19">
      <!-- 4.5 -->
      <g transform="translate(22.0875 24.0775)scale(0.1 -0.1)">
       <use xlink:href="#BitstreamVeraSans-Roman-34"/>
       <use x="63.623046875" xlink:href="#BitstreamVeraSans-Roman-2e"/>
       <use x="95.41015625" xlink:href="#BitstreamVeraSans-Roman-35"/>
      </g>
     </g>
    </g>
    <g id="text_20">
     <!-- PET (mm/day) -->
     <defs>
      <path d="
M52 44.1875
Q55.375 50.25 60.0625 53.125
Q64.75 56 71.0938 56
Q79.6406 56 84.2812 50.0156
Q88.9219 44.0469 88.9219 33.0156
L88.9219 0
L79.8906 0
L79.8906 32.7188
Q79.8906 40.5781 77.0938 44.375
Q74.3125 48.1875 68.6094 48.1875
Q61.625 48.1875 57.5625 43.5469
Q53.5156 38.9219 53.5156 30.9062
L53.5156 0
L44.4844 0
L44.4844 32.7188
Q44.4844 40.625 41.7031 44.4062
Q38.9219 48.1875 33.1094 48.1875
Q26.2188 48.1875 22.1562 43.5312
Q18.1094 38.875 18.1094 30.9062
L18.1094 0
L9.07812 0
L9.07812 54.6875
L18.1094 54.6875
L18.1094 46.1875
Q21.1875 51.2188 25.4844 53.6094
Q29.7812 56 35.6875 56
Q41.6562 56 45.8281 52.9688
Q50 49.9531 52 44.1875" id="BitstreamVeraSans-Roman-6d"/>
      <path d="
M8.01562 75.875
L15.8281 75.875
Q23.1406 64.3594 26.7812 53.3125
Q30.4219 42.2812 30.4219 31.3906
Q30.4219 20.4531 26.7812 9.375
Q23.1406 -1.70312 15.8281 -13.1875
L8.01562 -13.1875
Q14.5 -2 17.7031 9.0625
Q20.9062 20.125 20.9062 31.3906
Q20.9062 42.6719 17.7031 53.6562
Q14.5 64.6562 8.01562 75.875" id="BitstreamVeraSans-Roman-29"/>
      <path d="
M31 75.875
Q24.4688 64.6562 21.2812 53.6562
Q18.1094 42.6719 18.1094 31.3906
Q18.1094 20.125 21.3125 9.0625
Q24.5156 -2 31 -13.1875
L23.1875 -13.1875
Q15.875 -1.70312 12.2344 9.375
Q8.59375 20.4531 8.59375 31.3906
Q8.59375 42.2812 12.2031 53.3125
Q15.8281 64.3594 23.1875 75.875
z
" id="BitstreamVeraSans-Roman-28"/>
      <path d="
M19.6719 64.7969
L19.6719 37.4062
L32.0781 37.4062
Q38.9688 37.4062 42.7188 40.9688
Q46.4844 44.5312 46.4844 51.125
Q46.4844 57.6719 42.7188 61.2344
Q38.9688 64.7969 32.0781 64.7969
z

M9.8125 72.9062
L32.0781 72.9062
Q44.3438 72.9062 50.6094 67.3594
Q56.8906 61.8125 56.8906 51.125
Q56.8906 40.3281 50.6094 34.8125
Q44.3438 29.2969 32.0781 29.2969
L19.6719 29.2969
L19.6719 0
L9.8125 0
z
" id="BitstreamVeraSans-Roman-50"/>
      <path d="
M9.8125 72.9062
L55.9062 72.9062
L55.9062 64.5938
L19.6719 64.5938
L19.6719 43.0156
L54.3906 43.0156
L54.3906 34.7188
L19.6719 34.7188
L19.6719 8.29688
L56.7812 8.29688
L56.7812 0
L9.8125 0
z
" id="BitstreamVeraSans-Roman-45"/>
      <path d="
M-0.296875 72.9062
L61.375 72.9062
L61.375 64.5938
L35.5 64.5938
L35.5 0
L25.5938 0
L25.5938 64.5938
L-0.296875 64.5938
z
" id="BitstreamVeraSans-Roman-54"/>
      <path d="
M25.3906 72.9062
L33.6875 72.9062
L8.29688 -9.28125
L0 -9.28125
z
" id="BitstreamVeraSans-Roman-2f"/>
     </defs>
     <g transform="translate(14.7984375 167.82984375)rotate(-90.0)scale(0.1 -0.1)">
      <use xlink:href="#BitstreamVeraSans-Roman-50"/>
      <use x="60.302734375" xlink:href="#BitstreamVeraSans-Roman-45"/>
      <use x="123.486328125" xlink:href="#BitstreamVeraSans-Roman-54"/>
      <use x="184.5703125" xlink:href="#BitstreamVeraSans-Roman-20"/>
      <use x="216.357421875" xlink:href="#BitstreamVeraSans-Roman-28"/>
      <use x="255.37109375" xlink:href="#BitstreamVeraSans-Roman-6d"/>
      <use x="352.783203125" xlink:href="#BitstreamVeraSans-Roman-6d"/>
      <use x="450.1953125" xlink:href="#BitstreamVeraSans-Roman-2f"/>
      <use x="483.88671875" xlink:href="#BitstreamVeraSans-Roman-64"/>
      <use x="547.36328125" xlink:href="#BitstreamVeraSans-Roman-61"/>
      <use x="608.642578125" xlink:href="#BitstreamVeraSans-Roman-79"/>
      <use x="667.822265625" xlink:href="#BitstreamVeraSans-Roman-29"/>
     </g>
    </g>
   </g>
   <g id="text_21">
    <!-- daily tree PET at BRW -->
    <defs>
     <path d="
M44.3906 34.1875
Q47.5625 33.1094 50.5625 29.5938
Q53.5625 26.0781 56.5938 19.9219
L66.6094 0
L56 0
L46.6875 18.7031
Q43.0625 26.0312 39.6719 28.4219
Q36.2812 30.8125 30.4219 30.8125
L19.6719 30.8125
L19.6719 0
L9.8125 0
L9.8125 72.9062
L32.0781 72.9062
Q44.5781 72.9062 50.7344 67.6719
Q56.8906 62.4531 56.8906 51.9062
Q56.8906 45.0156 53.6875 40.4688
Q50.4844 35.9375 44.3906 34.1875
M19.6719 64.7969
L19.6719 38.9219
L32.0781 38.9219
Q39.2031 38.9219 42.8438 42.2188
Q46.4844 45.5156 46.4844 51.9062
Q46.4844 58.2969 42.8438 61.5469
Q39.2031 64.7969 32.0781 64.7969
z
" id="BitstreamVeraSans-Roman-52"/>
     <path d="
M19.6719 34.8125
L19.6719 8.10938
L35.5 8.10938
Q43.4531 8.10938 47.2812 11.4062
Q51.125 14.7031 51.125 21.4844
Q51.125 28.3281 47.2812 31.5625
Q43.4531 34.8125 35.5 34.8125
z

M19.6719 64.7969
L19.6719 42.8281
L34.2812 42.8281
Q41.5 42.8281 45.0312 45.5312
Q48.5781 48.25 48.5781 53.8125
Q48.5781 59.3281 45.0312 62.0625
Q41.5 64.7969 34.2812 64.7969
z

M9.8125 72.9062
L35.0156 72.9062
Q46.2969 72.9062 52.3906 68.2188
Q58.5 63.5312 58.5 54.8906
Q58.5 48.1875 55.375 44.2344
Q52.25 40.2812 46.1875 39.3125
Q53.4688 37.75 57.5 32.7812
Q61.5312 27.8281 61.5312 20.4062
Q61.5312 10.6406 54.8906 5.3125
Q48.25 0 35.9844 0
L9.8125 0
z
" id="BitstreamVeraSans-Roman-42"/>
     <path d="
M3.32812 72.9062
L13.2812 72.9062
L28.6094 11.2812
L43.8906 72.9062
L54.9844 72.9062
L70.3125 11.2812
L85.5938 72.9062
L95.6094 72.9062
L77.2969 0
L64.8906 0
L49.5156 63.2812
L33.9844 0
L21.5781 0
z
" id="BitstreamVeraSans-Roman-57"/>
     <path d="
M56.2031 29.5938
L56.2031 25.2031
L14.8906 25.2031
Q15.4844 15.9219 20.4844 11.0625
Q25.4844 6.20312 34.4219 6.20312
Q39.5938 6.20312 44.4531 7.46875
Q49.3125 8.73438 54.1094 11.2812
L54.1094 2.78125
Q49.2656 0.734375 44.1875 -0.34375
Q39.1094 -1.42188 33.8906 -1.42188
Q20.7969 -1.42188 13.1562 6.1875
Q5.51562 13.8125 5.51562 26.8125
Q5.51562 40.2344 12.7656 48.1094
Q20.0156 56 32.3281 56
Q43.3594 56 49.7812 48.8906
Q56.2031 41.7969 56.2031 29.5938
M47.2188 32.2344
Q47.125 39.5938 43.0938 43.9844
Q39.0625 48.3906 32.4219 48.3906
Q24.9062 48.3906 20.3906 44.1406
Q15.875 39.8906 15.1875 32.1719
z
" id="BitstreamVeraSans-Roman-65"/>
     <path d="
M18.3125 70.2188
L18.3125 54.6875
L36.8125 54.6875
L36.8125 47.7031
L18.3125 47.7031
L18.3125 18.0156
Q18.3125 11.3281 20.1406 9.42188
Q21.9688 7.51562 27.5938 7.51562
L36.8125 7.51562
L36.8125 0
L27.5938 0
Q17.1875 0 13.2344 3.875
Q9.28125 7.76562 9.28125 18.0156
L9.28125 47.7031
L2.6875 47.7031
L2.6875 54.6875
L9.28125 54.6875
L9.28125 70.2188
z
" id="BitstreamVeraSans-Roman-74"/>
     <path d="
M41.1094 46.2969
Q39.5938 47.1719 37.8125 47.5781
Q36.0312 48 33.8906 48
Q26.2656 48 22.1875 43.0469
Q18.1094 38.0938 18.1094 28.8125
L18.1094 0
L9.07812 0
L9.07812 54.6875
L18.1094 54.6875
L18.1094 46.1875
Q20.9531 51.1719 25.4844 53.5781
Q30.0312 56 36.5312 56
Q37.4531 56 38.5781 55.875
Q39.7031 55.7656 41.0625 55.5156
z
" id="BitstreamVeraSans-Roman-72"/>
    </defs>
    <g transform="translate(143.0771875 16.318125)scale(0.12 -0.12)">
     <use xlink:href="#BitstreamVeraSans-Roman-64"/>
     <use x="63.4765625" xlink:href="#BitstreamVeraSans-Roman-61"/>
     <use x="124.755859375" xlink:href="#BitstreamVeraSans-Roman-69"/>
     <use x="152.5390625" xlink:href="#BitstreamVeraSans-Roman-6c"/>
     <use x="180.322265625" xlink:href="#BitstreamVeraSans-Roman-79"/>
     <use x="239.501953125" xlink:href="#BitstreamVeraSans-Roman-20"/>
     <use x="271.2890625" xlink:href="#BitstreamVeraSans-Roman-74"/>
     <use x="310.498046875" xlink:href="#BitstreamVeraSans-Roman-72"/>
     <use x="349.361328125" xlink:href="#BitstreamVeraSans-Roman-65"/>
     <use x="410.884765625" xlink:href="#BitstreamVeraSans-Roman-65"/>
     <use x="472.408203125" xlink:href="#BitstreamVeraSans-Roman-20"/>
     <use x="504.1953125" xlink:href="#BitstreamVeraSans-Roman-50"/>
     <use x="564.498046875" xlink:href="#BitstreamVeraSans-Roman-45"/>
     <use x="627.681640625" xlink:href="#BitstreamVeraSans-Roman-54"/>
     <use x="688.765625" xlink:href="#BitstreamVeraSans-Roman-20"/>
     <use x="720.552734375" xlink:href="#BitstreamVeraSans-Roman-61"/>
     <use x="781.83203125" xlink:href="#BitstreamVeraSans-Roman-74"/>
     <use x="821.041015625" xlink:href="#BitstreamVeraSans-Roman-20"/>
     <use x="852.828125" xlink:href="#BitstreamVeraSans-Roman-42"/>
     <use x="921.431640625" xlink:href="#BitstreamVeraSans-Roman-52"/>
     <use x="986.9140625" xlink:href="#BitstreamVeraSans-Roman-57"/>
    </g>
   </g>
   <g id="legend_1">
    <g id="patch_7">
     <path d="
M297.241 83.7594
L369.428 83.7594
L369.428 27.3181
L297.241 27.3181
z
" style="fill:#ffffff;stroke:#000000;stroke-linejoin:miter;"/>
    </g>
    <g id="line2d_40">
     <path d="
M305.641 37.0363
L322.441 37.0363" style="fill:none;stroke:#0000ff;stroke-linecap:square;"/>
    </g>
    <g id="line2d_41"/>
    <g id="text_22">
     <!-- 2012 -->
     <g transform="translate(335.640625 41.23625)scale(0.12 -0.12)">
      <use xlink:href="#BitstreamVeraSans-Roman-32"/>
      <use x="63.623046875" xlink:href="#BitstreamVeraSans-Roman-30"/>
      <use x="127.24609375" xlink:href="#BitstreamVeraSans-Roman-31"/>
      <use x="190.869140625" xlink:href="#BitstreamVeraSans-Roman-32"/>
     </g>
    </g>
    <g id="line2d_42">
     <path d="
M305.641 54.65
L322.441 54.65" style="fill:none;stroke:#008000;stroke-linecap:square;"/>
    </g>
    <g id="line2d_43"/>
    <g id="text_23">
     <!-- 2013 -->
     <g transform="translate(335.640625 58.85)scale(0.12 -0.12)">
      <use xlink:href="#BitstreamVeraSans-Roman-32"/>
      <use x="63.623046875" xlink:href="#BitstreamVeraSans-Roman-30"/>
      <use x="127.24609375" xlink:href="#BitstreamVeraSans-Roman-31"/>
      <use x="190.869140625" xlink:href="#BitstreamVeraSans-Roman-33"/>
     </g>
    </g>
    <g id="line2d_44">
     <path d="
M305.641 72.2638
L322.441 72.2638" style="fill:none;stroke:#ff0000;stroke-linecap:square;"/>
    </g>
    <g id="line2d_45"/>
    <g id="text_24">
     <!-- 2014 -->
     <g transform="translate(335.640625 76.46375)scale(0.12 -0.12)">
      <use xlink:href="#BitstreamVeraSans-Roman-32"/>
      <use x="63.623046875" xlink:href="#BitstreamVeraSans-Roman-30"/>
      <use x="127.24609375" xlink:href="#BitstreamVeraSans-Roman-31"/>
      <use x="190.869140625" xlink:href="#BitstreamVeraSans-Roman-34"/>
     </g>
    </g>
   </g>
  </g>
 </g>
 <defs>
  <clipPath id="p2d16512a00">
   <rect height="223.2" width="334.8" x="40.628125" y="21.318125"/>
  </clipPath>
 </defs>
</svg>
