<?xml version="1.0" encoding="utf-8" standalone="no"?>
<!DOCTYPE svg PUBLIC "-//W3C//DTD SVG 1.1//EN"
  "http://www.w3.org/Graphics/SVG/1.1/DTD/svg11.dtd">
<!-- Created with matplotlib (http://matplotlib.org/) -->
<svg height="280pt" version="1.1" viewBox="0 0 397 280" width="397pt" xmlns="http://www.w3.org/2000/svg" xmlns:xlink="http://www.w3.org/1999/xlink">
 <defs>
  <style type="text/css">
*{stroke-linecap:butt;stroke-linejoin:round;}
  </style>
 </defs>
 <g id="figure_1">
  <g id="patch_1">
   <path d="
M0 280.074
L397.04 280.074
L397.04 0
L0 0
z
" style="fill:#ffffff;"/>
  </g>
  <g id="axes_1">
   <g id="patch_2">
    <path d="
M43.8125 244.518
L311.653 244.518
L311.653 21.3181
L43.8125 21.3181
z
" style="fill:#ffffff;"/>
   </g>
   <g id="line2d_1">
    <path clip-path="url(#pf0709b6b74)" d="
M43.8125 244.518
L43.9911 244.146
L44.1101 243.898
L44.1994 243.849
L44.2589 243.601
L44.4077 242.261
L44.5565 242.162
L44.7351 241.964
L45.0029 241.889
L45.1517 241.815
L45.7171 241.716
L45.8957 241.493
L48.336 241.493
L48.6634 239.335
L48.8717 239.285
L49.1098 239.186
L49.2883 238.963
L50.0919 238.889
L50.3597 238.343
L50.8061 236.285
L51.2823 236.012
L51.8477 235.913
L52.2048 235.491
L52.5024 235.392
L52.7107 235.169
L52.9786 234.325
L53.1869 234.102
L53.3952 234.003
L53.4547 233.904
L53.6333 232.937
L53.8416 232.887
L54.169 231.821
L54.3773 231.275
L60.2698 231.225
L60.5376 228.919
L60.865 228.919
L61.0435 228.646
L61.2221 228.621
L61.5197 228.547
L61.6685 226.737
L61.8471 226.662
L61.9661 226.439
L62.0851 226.414
L62.2339 225.993
L62.4125 225.893
L63.3946 225.794
L63.7219 224.033
L64.0791 222.049
L64.2874 222
L64.4957 221.975
L64.9421 220.289
L65.1504 220.239
L65.5373 220.14
L65.8051 220.041
L66.2813 220.016
L66.4003 219.917
L71.0131 219.917
L71.2215 219.173
L77.2925 219.148
L77.5901 218.528
L78.9591 218.528
L79.1079 218.156
L79.1971 218.156
L79.3459 218.007
L80.8042 217.908
L80.953 217.784
L81.1613 217.759
L81.3399 217.486
L81.4589 217.387
L81.5184 217.04
L81.9648 213.543
L83.3933 213.444
L83.5719 212.477
L83.6909 212.452
L83.8099 212.303
L85.5063 212.278
L85.7146 211.311
L85.9229 209.922
L86.5479 209.525
L87.5002 209.476
L87.7085 208.98
L89.881 208.98
L90 208.087
L90.1488 208.037
L93.3629 207.938
L93.5415 207.913
L97.2615 207.889
L97.4995 207.219
L99.553 207.169
L99.6125 206.5
L99.7911 205.334
L99.9399 204.615
L99.9994 204.615
L100.148 202.259
L100.892 202.234
L101.041 202.11
L101.279 202.011
L101.368 201.862
L101.517 201.614
L103.987 201.565
L104.255 200.325
L110.802 200.225
L110.951 200.077
L111.011 200.077
L111.219 199.035
L111.368 198.911
L111.695 198.911
L111.903 198.266
L111.963 198.142
L112.171 197.051
L112.32 197.051
L112.38 196.282
L112.588 192.984
L112.618 192.984
L113.094 190.752
L116.725 190.702
L117.052 190.157
L118.48 190.107
L118.599 189.685
L121.099 189.661
L121.278 188.793
L121.694 184.998
L121.784 184.998
L121.962 184.626
L122.141 184.453
L132.081 184.428
L132.2 184.18
L133.539 184.18
L133.658 184.031
L134.253 184.031
L134.402 183.436
L134.997 183.411
L135.116 182.518
L141.336 182.469
L141.455 181.7
L147.913 181.601
L148.211 180.906
L148.568 180.906
L148.836 179.046
L148.955 178.352
L149.252 176.814
L149.758 176.789
L149.937 175.525
L150.026 175.5
L150.145 175.103
L150.324 175.078
L160.859 175.029
L161.007 174.88
L164.579 174.88
L164.698 174.557
L164.757 174.557
L164.995 173.342
L165.174 173.317
L168.12 173.268
L168.269 172.623
L168.537 172.549
L168.596 172.4
L168.745 171.259
L169.102 171.209
L169.221 170.738
L169.668 167.415
L174.518 167.39
L174.637 167.043
L184.25 166.993
L184.518 166.597
L200.945 166.522
L201.064 166.373
L210.707 166.349
L210.855 165.456
L211.361 165.357
L211.48 161.785
L211.659 161.562
L211.837 161.215
L212.135 161.141
L212.284 161.091
L214.605 160.992
L214.754 160.669
L215.2 160.669
L215.319 160.471
L215.706 160.372
L215.855 160.322
L218.861 160.26
L219.069 159.804
L219.188 158.341
L219.516 158.341
L219.694 157.986
L220.349 157.964
L220.527 157.289
L220.736 157.289
L220.855 157.148
L225.795 157.046
L225.825 157.016
L225.944 156.381
L226.479 156.275
L226.628 155.831
L226.807 155.806
L227.134 155.734
L227.372 155.347
L229.545 155.255
L229.693 155.193
L233.086 155.159
L233.205 154.955
L234.128 154.846
L234.425 152.307
L234.782 152.265
L234.901 151.531
L235.348 148.006
L235.616 147.761
L235.675 147.761
L235.884 147.074
L237.253 147.017
L237.372 146.871
L237.699 146.794
L237.967 145.316
L238.026 145.159
L238.205 144.815
L238.294 144.748
L238.473 141.591
L239.098 141.549
L239.246 141.335
L240.437 141.301
L240.586 141.159
L258.114 141.102
L258.293 140.512
L258.412 140.512
L258.531 139.168
L258.709 137.531
L258.829 137.258
L260.495 137.184
L260.852 136.787
L262.013 136.787
L262.34 135.869
L262.608 135.77
L262.757 135.547
L262.816 135.547
L262.995 135.225
L264.156 135.15
L264.275 134.778
L264.721 133.662
L265.078 133.489
L265.257 133.389
L265.465 133.117
L265.673 132.745
L265.792 132.67
L265.971 132.521
L271.596 132.447
L271.715 131.182
L271.893 130.265
L271.982 129.893
L272.131 129.397
L273.887 129.297
L273.917 129.273
L274.006 128.281
L274.214 125.553
L274.274 125.404
L274.75 121.287
L275.197 121.262
L275.226 121.014
L275.464 114.864
L275.792 114.492
L275.941 113.723
L277.369 113.624
L277.458 113.45
L277.577 113.227
L282.517 113.227
L282.607 112.458
L282.815 109.681
L283.172 109.507
L283.529 109.457
L283.678 109.185
L284.928 109.135
L285.077 109.011
L286.505 108.912
L286.595 108.639
L286.922 107.151
L287.815 107.052
L287.964 106.977
L291.059 106.878
L291.237 106.853
L291.505 106.853
L291.624 106.729
L296.415 106.705
L296.802 105.514
L297.368 105.415
L298.052 104.473
L298.469 104.373
L298.588 104.2
L298.677 104.15
L298.915 103.481
L299.183 103.406
L299.332 103.332
L303.736 103.233
L303.915 103.208
L304.48 103.133
L304.48 103.133" style="fill:none;stroke:#0000ff;stroke-linecap:square;"/>
   </g>
   <g id="line2d_2">
    <path clip-path="url(#pf0709b6b74)" d="
M43.8125 244.518
L48.6039 244.469
L48.7824 244.097
L48.9907 242.41
L49.1395 241.84
L49.4074 241.741
L49.4669 241.691
L49.7943 240.253
L50.1216 240.178
L50.3002 239.93
L50.4787 239.905
L50.6573 239.806
L50.8359 239.781
L50.9847 239.682
L51.2227 239.608
L51.2823 239.583
L51.4608 239.335
L51.7287 239.31
L51.9072 238.814
L52.0858 238.715
L52.3536 237.177
L52.7703 236.954
L53.425 236.954
L53.544 236.805
L63.8112 236.805
L63.9005 236.161
L64.2874 232.217
L64.6743 232.193
L64.8826 231.845
L65.9242 231.746
L66.073 231.622
L67.3527 231.573
L67.6205 229.688
L67.7395 229.365
L69.1978 229.291
L69.3466 228.993
L69.5251 228.969
L70.1799 228.869
L70.537 227.381
L70.7155 227.357
L70.9239 226.34
L71.1024 225.1
L71.1322 225.075
L71.4595 222.818
L71.7869 222.273
L71.9655 222.198
L72.0845 222.099
L72.1738 222.025
L72.3226 221.975
L72.4714 221.975
L72.6202 221.653
L73.3939 221.603
L73.8403 220.785
L73.8701 220.785
L74.0784 219.073
L74.5248 212.526
L74.5546 212.477
L74.7034 211.931
L75.5367 211.931
L75.7152 208.682
L75.864 208.409
L75.8938 208.409
L76.0723 207.07
L76.4295 199.829
L76.7568 199.829
L76.9949 198.961
L78.0663 198.961
L78.1853 198.514
L78.84 198.465
L79.0186 197.869
L79.2864 197.82
L79.4352 197.721
L79.8519 197.621
L80.1792 196.902
L80.3875 196.853
L84.792 196.803
L84.8515 196.406
L85.0896 194.819
L85.2384 194.745
L86.2205 194.67
L86.3395 193.926
L86.4883 193.058
L86.6669 192.984
L86.8752 191.471
L87.0538 190.975
L87.2919 189.809
L87.4407 188.917
L87.5597 188.817
L87.6192 188.52
L88.0954 184.031
L88.1847 184.031
L88.3632 183.138
L89.3155 183.113
L89.5239 182.518
L89.6131 182.245
L89.6727 181.898
L89.8215 180.237
L90.0298 180.212
L90.1488 180.013
L91.8451 179.939
L92.2023 177.409
L92.2618 177.037
L92.4999 173.665
L92.5594 173.615
L92.7677 170.565
L92.9165 169.721
L92.976 169.721
L93.2141 168.333
L97.5293 168.233
L97.7079 166.969
L97.8864 166.745
L97.9459 166.745
L98.065 166.621
L103.749 166.621
L103.868 166.398
L104.434 166.299
L104.463 166.274
L104.612 164.464
L104.791 163.844
L104.969 162.827
L105.118 162.703
L105.565 162.678
L105.743 162.356
L106.07 162.306
L106.13 161.81
L106.338 158.487
L106.636 158.487
L106.963 154.494
L107.082 153.13
L108.273 153.105
L108.421 152.287
L108.66 150.923
L109.314 150.923
L109.433 150.774
L110.534 150.749
L110.653 150.601
L111.725 150.576
L112.022 149.46
L120.117 149.435
L120.296 147.972
L123.272 147.922
L123.301 147.823
L123.599 144.574
L124.075 144.574
L124.254 144.202
L124.7 144.103
L124.879 142.813
L124.909 142.813
L125.028 142.218
L125.057 142.218
L125.176 142.094
L125.355 142.02
L125.414 141.846
L125.801 138.895
L126.843 138.821
L127.23 137.903
L127.289 137.903
L127.438 137.68
L131.962 137.63
L132.081 137.457
L135.086 137.357
L135.384 133.042
L135.503 132.869
L135.592 132.769
L135.711 132.621
L135.89 132.546
L136.307 131.505
L141.901 131.43
L141.931 131.381
L142.05 130.686
L144.223 130.612
L144.401 127.537
L160.978 127.537
L161.156 126.892
L162.495 126.817
L162.704 126.396
L163.805 126.297
L163.894 126.148
L164.102 125.453
L169.429 125.379
L169.757 125.007
L170.471 125.007
L170.62 124.486
L187.256 124.387
L187.375 124.065
L188.773 123.99
L189.041 123.742
L197.255 123.742
L197.374 123.42
L199.279 123.42
L199.398 122.924
L203.445 122.924
L203.594 122.403
L204.1 122.403
L204.249 122.205
L204.278 122.205
L204.457 121.907
L204.487 121.907
L204.636 118.41
L212.403 118.385
L212.522 117.765
L216.54 117.666
L216.659 117.294
L228.146 117.245
L228.295 116.997
L232.074 116.972
L232.193 116.873
L232.312 116.798
L232.521 116.625
L235.973 116.55
L236.181 116.228
L236.509 116.228
L236.687 115.707
L236.747 115.657
L237.014 115.261
L237.133 115.186
L237.253 114.864
L237.58 109.73
L237.848 109.73
L237.997 109.358
L238.205 109.358
L238.324 108.937
L246.478 108.912
L246.597 108.391
L246.716 108.366
L246.835 108.193
L249.157 108.193
L249.305 108.044
L253.115 107.994
L253.442 104.522
L253.501 104.497
L253.621 104.373
L254.454 104.324
L254.692 103.406
L254.751 103.381
L255.079 101.596
L255.257 100.356
L255.317 100.257
L255.614 99.9589
L256.805 99.8845
L256.954 99.7357
L257.281 99.6365
L257.519 99.2893
L258.799 99.2893
L258.918 99.0661
L261.209 99.0165
L261.358 98.5205
L261.656 92.8165
L261.894 92.2709
L262.727 92.1717
L262.846 91.8493
L263.56 91.7501
L263.888 91.4029
L264.096 91.3533
L267.251 91.2789
L267.37 91.0309
L267.489 91.0309
L267.608 90.8077
L269.75 90.7829
L270.733 86.3437
L274.661 86.2941
L275.018 85.4509
L275.821 85.4013
L276.298 79.6725
L276.476 79.6229
L276.595 79.3997
L278.083 79.3005
L278.678 75.1589
L279.065 74.9605
L279.899 74.9605
L280.018 74.8117
L281.268 74.7869
L281.416 74.6133
L282.547 74.6133
L282.845 73.5221
L282.904 73.2493
L283.142 70.4221
L283.291 70.0749
L283.886 70.0005
L284.095 69.2069
L284.244 69.2069
L284.511 67.8181
L284.63 67.7437
L284.839 66.1069
L285.136 66.0821
L285.255 65.8093
L286.148 65.7845
L286.446 64.6685
L286.595 64.6189
L290.701 64.5693
L290.731 64.4701
L290.969 62.0149
L291.148 61.7917
L292.993 61.6925
L293.112 61.4445
L293.261 61.3949
L293.588 60.8741
L294.511 60.7997
L294.719 60.6509
L294.868 60.5517
L295.017 60.4277
L295.285 60.4277
L295.463 59.9813
L295.523 59.9317
L295.85 58.5677
L296.088 58.5677
L296.505 55.4925
L296.683 54.0045
L297.1 45.5229
L297.308 44.7293
L297.576 43.5141
L297.755 43.4893
L297.874 42.9933
L298.201 42.8941
L298.35 42.7701
L298.826 37.4877
L299.153 36.4461
L299.451 33.3213
L299.868 32.5525
L300.552 32.5525
L300.701 32.2549
L300.79 32.2053
L301.296 30.6925
L301.475 29.6261
L301.534 29.5765
L301.742 28.8325
L301.891 28.1877
L301.921 28.1877
L302.129 26.9973
L302.278 26.4517
L302.427 26.3773
L304.48 26.3525
L304.48 26.3525" style="fill:none;stroke:#0000ff;stroke-linecap:square;"/>
   </g>
   <g id="patch_3">
    <path d="
M43.8125 21.3181
L311.653 21.3181" style="fill:none;stroke:#000000;stroke-linecap:square;stroke-linejoin:miter;"/>
   </g>
   <g id="patch_4">
    <path d="
M311.653 244.518
L311.653 21.3181" style="fill:none;stroke:#000000;stroke-linecap:square;stroke-linejoin:miter;"/>
   </g>
   <g id="patch_5">
    <path d="
M43.8125 244.518
L311.653 244.518" style="fill:none;stroke:#000000;stroke-linecap:square;stroke-linejoin:miter;"/>
   </g>
   <g id="patch_6">
    <path d="
M43.8125 244.518
L43.8125 21.3181" style="fill:none;stroke:#000000;stroke-linecap:square;stroke-linejoin:miter;"/>
   </g>
   <g id="matplotlib.axis_1">
    <g id="xtick_1">
     <g id="line2d_3">
      <defs>
       <path d="
M0 0
L0 -4" id="m93b0483c22" style="stroke:#000000;stroke-width:0.5;"/>
      </defs>
      <g>
       <use style="stroke:#000000;stroke-width:0.5;" x="43.8125" xlink:href="#m93b0483c22" y="244.518125"/>
      </g>
     </g>
     <g id="line2d_4">
      <defs>
       <path d="
M0 0
L0 4" id="m741efc42ff" style="stroke:#000000;stroke-width:0.5;"/>
      </defs>
      <g>
       <use style="stroke:#000000;stroke-width:0.5;" x="43.8125" xlink:href="#m741efc42ff" y="21.318125"/>
      </g>
     </g>
     <g id="text_1">
      <!-- 0 -->
      <defs>
       <path d="
M31.7812 66.4062
Q24.1719 66.4062 20.3281 58.9062
Q16.5 51.4219 16.5 36.375
Q16.5 21.3906 20.3281 13.8906
Q24.1719 6.39062 31.7812 6.39062
Q39.4531 6.39062 43.2812 13.8906
Q47.125 21.3906 47.125 36.375
Q47.125 51.4219 43.2812 58.9062
Q39.4531 66.4062 31.7812 66.4062
M31.7812 74.2188
Q44.0469 74.2188 50.5156 64.5156
Q56.9844 54.8281 56.9844 36.375
Q56.9844 17.9688 50.5156 8.26562
Q44.0469 -1.42188 31.7812 -1.42188
Q19.5312 -1.42188 13.0625 8.26562
Q6.59375 17.9688 6.59375 36.375
Q6.59375 54.8281 13.0625 64.5156
Q19.5312 74.2188 31.7812 74.2188" id="BitstreamVeraSans-Roman-30"/>
      </defs>
      <g transform="translate(41.29296875 256.1165625)scale(0.1 -0.1)">
       <use xlink:href="#BitstreamVeraSans-Roman-30"/>
      </g>
     </g>
    </g>
    <g id="xtick_2">
     <g id="line2d_5">
      <g>
       <use style="stroke:#000000;stroke-width:0.5;" x="73.5725" xlink:href="#m93b0483c22" y="244.518125"/>
      </g>
     </g>
     <g id="line2d_6">
      <g>
       <use style="stroke:#000000;stroke-width:0.5;" x="73.5725" xlink:href="#m741efc42ff" y="21.318125"/>
      </g>
     </g>
     <g id="text_2">
      <!-- 1000 -->
      <defs>
       <path d="
M12.4062 8.29688
L28.5156 8.29688
L28.5156 63.9219
L10.9844 60.4062
L10.9844 69.3906
L28.4219 72.9062
L38.2812 72.9062
L38.2812 8.29688
L54.3906 8.29688
L54.3906 0
L12.4062 0
z
" id="BitstreamVeraSans-Roman-31"/>
      </defs>
      <g transform="translate(61.72875 256.1165625)scale(0.1 -0.1)">
       <use xlink:href="#BitstreamVeraSans-Roman-31"/>
       <use x="63.623046875" xlink:href="#BitstreamVeraSans-Roman-30"/>
       <use x="127.24609375" xlink:href="#BitstreamVeraSans-Roman-30"/>
       <use x="190.869140625" xlink:href="#BitstreamVeraSans-Roman-30"/>
      </g>
     </g>
    </g>
    <g id="xtick_3">
     <g id="line2d_7">
      <g>
       <use style="stroke:#000000;stroke-width:0.5;" x="103.3325" xlink:href="#m93b0483c22" y="244.518125"/>
      </g>
     </g>
     <g id="line2d_8">
      <g>
       <use style="stroke:#000000;stroke-width:0.5;" x="103.3325" xlink:href="#m741efc42ff" y="21.318125"/>
      </g>
     </g>
     <g id="text_3">
      <!-- 2000 -->
      <defs>
       <path d="
M19.1875 8.29688
L53.6094 8.29688
L53.6094 0
L7.32812 0
L7.32812 8.29688
Q12.9375 14.1094 22.625 23.8906
Q32.3281 33.6875 34.8125 36.5312
Q39.5469 41.8438 41.4219 45.5312
Q43.3125 49.2188 43.3125 52.7812
Q43.3125 58.5938 39.2344 62.25
Q35.1562 65.9219 28.6094 65.9219
Q23.9688 65.9219 18.8125 64.3125
Q13.6719 62.7031 7.8125 59.4219
L7.8125 69.3906
Q13.7656 71.7812 18.9375 73
Q24.125 74.2188 28.4219 74.2188
Q39.75 74.2188 46.4844 68.5469
Q53.2188 62.8906 53.2188 53.4219
Q53.2188 48.9219 51.5312 44.8906
Q49.8594 40.875 45.4062 35.4062
Q44.1875 33.9844 37.6406 27.2188
Q31.1094 20.4531 19.1875 8.29688" id="BitstreamVeraSans-Roman-32"/>
      </defs>
      <g transform="translate(91.3059375 256.1165625)scale(0.1 -0.1)">
       <use xlink:href="#BitstreamVeraSans-Roman-32"/>
       <use x="63.623046875" xlink:href="#BitstreamVeraSans-Roman-30"/>
       <use x="127.24609375" xlink:href="#BitstreamVeraSans-Roman-30"/>
       <use x="190.869140625" xlink:href="#BitstreamVeraSans-Roman-30"/>
      </g>
     </g>
    </g>
    <g id="xtick_4">
     <g id="line2d_9">
      <g>
       <use style="stroke:#000000;stroke-width:0.5;" x="133.0925" xlink:href="#m93b0483c22" y="244.518125"/>
      </g>
     </g>
     <g id="line2d_10">
      <g>
       <use style="stroke:#000000;stroke-width:0.5;" x="133.0925" xlink:href="#m741efc42ff" y="21.318125"/>
      </g>
     </g>
     <g id="text_4">
      <!-- 3000 -->
      <defs>
       <path d="
M40.5781 39.3125
Q47.6562 37.7969 51.625 33
Q55.6094 28.2188 55.6094 21.1875
Q55.6094 10.4062 48.1875 4.48438
Q40.7656 -1.42188 27.0938 -1.42188
Q22.5156 -1.42188 17.6562 -0.515625
Q12.7969 0.390625 7.625 2.20312
L7.625 11.7188
Q11.7188 9.32812 16.5938 8.10938
Q21.4844 6.89062 26.8125 6.89062
Q36.0781 6.89062 40.9375 10.5469
Q45.7969 14.2031 45.7969 21.1875
Q45.7969 27.6406 41.2812 31.2656
Q36.7656 34.9062 28.7188 34.9062
L20.2188 34.9062
L20.2188 43.0156
L29.1094 43.0156
Q36.375 43.0156 40.2344 45.9219
Q44.0938 48.8281 44.0938 54.2969
Q44.0938 59.9062 40.1094 62.9062
Q36.1406 65.9219 28.7188 65.9219
Q24.6562 65.9219 20.0156 65.0312
Q15.375 64.1562 9.8125 62.3125
L9.8125 71.0938
Q15.4375 72.6562 20.3438 73.4375
Q25.25 74.2188 29.5938 74.2188
Q40.8281 74.2188 47.3594 69.1094
Q53.9062 64.0156 53.9062 55.3281
Q53.9062 49.2656 50.4375 45.0938
Q46.9688 40.9219 40.5781 39.3125" id="BitstreamVeraSans-Roman-33"/>
      </defs>
      <g transform="translate(121.08078125 256.1165625)scale(0.1 -0.1)">
       <use xlink:href="#BitstreamVeraSans-Roman-33"/>
       <use x="63.623046875" xlink:href="#BitstreamVeraSans-Roman-30"/>
       <use x="127.24609375" xlink:href="#BitstreamVeraSans-Roman-30"/>
       <use x="190.869140625" xlink:href="#BitstreamVeraSans-Roman-30"/>
      </g>
     </g>
    </g>
    <g id="xtick_5">
     <g id="line2d_11">
      <g>
       <use style="stroke:#000000;stroke-width:0.5;" x="162.8525" xlink:href="#m93b0483c22" y="244.518125"/>
      </g>
     </g>
     <g id="line2d_12">
      <g>
       <use style="stroke:#000000;stroke-width:0.5;" x="162.8525" xlink:href="#m741efc42ff" y="21.318125"/>
      </g>
     </g>
     <g id="text_5">
      <!-- 4000 -->
      <defs>
       <path d="
M37.7969 64.3125
L12.8906 25.3906
L37.7969 25.3906
z

M35.2031 72.9062
L47.6094 72.9062
L47.6094 25.3906
L58.0156 25.3906
L58.0156 17.1875
L47.6094 17.1875
L47.6094 0
L37.7969 0
L37.7969 17.1875
L4.89062 17.1875
L4.89062 26.7031
z
" id="BitstreamVeraSans-Roman-34"/>
      </defs>
      <g transform="translate(150.7040625 256.1165625)scale(0.1 -0.1)">
       <use xlink:href="#BitstreamVeraSans-Roman-34"/>
       <use x="63.623046875" xlink:href="#BitstreamVeraSans-Roman-30"/>
       <use x="127.24609375" xlink:href="#BitstreamVeraSans-Roman-30"/>
       <use x="190.869140625" xlink:href="#BitstreamVeraSans-Roman-30"/>
      </g>
     </g>
    </g>
    <g id="xtick_6">
     <g id="line2d_13">
      <g>
       <use style="stroke:#000000;stroke-width:0.5;" x="192.6125" xlink:href="#m93b0483c22" y="244.518125"/>
      </g>
     </g>
     <g id="line2d_14">
      <g>
       <use style="stroke:#000000;stroke-width:0.5;" x="192.6125" xlink:href="#m741efc42ff" y="21.318125"/>
      </g>
     </g>
     <g id="text_6">
      <!-- 5000 -->
      <defs>
       <path d="
M10.7969 72.9062
L49.5156 72.9062
L49.5156 64.5938
L19.8281 64.5938
L19.8281 46.7344
Q21.9688 47.4688 24.1094 47.8281
Q26.2656 48.1875 28.4219 48.1875
Q40.625 48.1875 47.75 41.5
Q54.8906 34.8125 54.8906 23.3906
Q54.8906 11.625 47.5625 5.09375
Q40.2344 -1.42188 26.9062 -1.42188
Q22.3125 -1.42188 17.5469 -0.640625
Q12.7969 0.140625 7.71875 1.70312
L7.71875 11.625
Q12.1094 9.23438 16.7969 8.0625
Q21.4844 6.89062 26.7031 6.89062
Q35.1562 6.89062 40.0781 11.3281
Q45.0156 15.7656 45.0156 23.3906
Q45.0156 31 40.0781 35.4375
Q35.1562 39.8906 26.7031 39.8906
Q22.75 39.8906 18.8125 39.0156
Q14.8906 38.1406 10.7969 36.2812
z
" id="BitstreamVeraSans-Roman-35"/>
      </defs>
      <g transform="translate(180.60546875 256.1165625)scale(0.1 -0.1)">
       <use xlink:href="#BitstreamVeraSans-Roman-35"/>
       <use x="63.623046875" xlink:href="#BitstreamVeraSans-Roman-30"/>
       <use x="127.24609375" xlink:href="#BitstreamVeraSans-Roman-30"/>
       <use x="190.869140625" xlink:href="#BitstreamVeraSans-Roman-30"/>
      </g>
     </g>
    </g>
    <g id="xtick_7">
     <g id="line2d_15">
      <g>
       <use style="stroke:#000000;stroke-width:0.5;" x="222.3725" xlink:href="#m93b0483c22" y="244.518125"/>
      </g>
     </g>
     <g id="line2d_16">
      <g>
       <use style="stroke:#000000;stroke-width:0.5;" x="222.3725" xlink:href="#m741efc42ff" y="21.318125"/>
      </g>
     </g>
     <g id="text_7">
      <!-- 6000 -->
      <defs>
       <path d="
M33.0156 40.375
Q26.375 40.375 22.4844 35.8281
Q18.6094 31.2969 18.6094 23.3906
Q18.6094 15.5312 22.4844 10.9531
Q26.375 6.39062 33.0156 6.39062
Q39.6562 6.39062 43.5312 10.9531
Q47.4062 15.5312 47.4062 23.3906
Q47.4062 31.2969 43.5312 35.8281
Q39.6562 40.375 33.0156 40.375
M52.5938 71.2969
L52.5938 62.3125
Q48.875 64.0625 45.0938 64.9844
Q41.3125 65.9219 37.5938 65.9219
Q27.8281 65.9219 22.6719 59.3281
Q17.5312 52.7344 16.7969 39.4062
Q19.6719 43.6562 24.0156 45.9219
Q28.375 48.1875 33.5938 48.1875
Q44.5781 48.1875 50.9531 41.5156
Q57.3281 34.8594 57.3281 23.3906
Q57.3281 12.1562 50.6875 5.35938
Q44.0469 -1.42188 33.0156 -1.42188
Q20.3594 -1.42188 13.6719 8.26562
Q6.98438 17.9688 6.98438 36.375
Q6.98438 53.6562 15.1875 63.9375
Q23.3906 74.2188 37.2031 74.2188
Q40.9219 74.2188 44.7031 73.4844
Q48.4844 72.75 52.5938 71.2969" id="BitstreamVeraSans-Roman-36"/>
      </defs>
      <g transform="translate(210.32875 256.1165625)scale(0.1 -0.1)">
       <use xlink:href="#BitstreamVeraSans-Roman-36"/>
       <use x="63.623046875" xlink:href="#BitstreamVeraSans-Roman-30"/>
       <use x="127.24609375" xlink:href="#BitstreamVeraSans-Roman-30"/>
       <use x="190.869140625" xlink:href="#BitstreamVeraSans-Roman-30"/>
      </g>
     </g>
    </g>
    <g id="xtick_8">
     <g id="line2d_17">
      <g>
       <use style="stroke:#000000;stroke-width:0.5;" x="252.1325" xlink:href="#m93b0483c22" y="244.518125"/>
      </g>
     </g>
     <g id="line2d_18">
      <g>
       <use style="stroke:#000000;stroke-width:0.5;" x="252.1325" xlink:href="#m741efc42ff" y="21.318125"/>
      </g>
     </g>
     <g id="text_8">
      <!-- 7000 -->
      <defs>
       <path d="
M8.20312 72.9062
L55.0781 72.9062
L55.0781 68.7031
L28.6094 0
L18.3125 0
L43.2188 64.5938
L8.20312 64.5938
z
" id="BitstreamVeraSans-Roman-37"/>
      </defs>
      <g transform="translate(240.1496875 256.1165625)scale(0.1 -0.1)">
       <use xlink:href="#BitstreamVeraSans-Roman-37"/>
       <use x="63.623046875" xlink:href="#BitstreamVeraSans-Roman-30"/>
       <use x="127.24609375" xlink:href="#BitstreamVeraSans-Roman-30"/>
       <use x="190.869140625" xlink:href="#BitstreamVeraSans-Roman-30"/>
      </g>
     </g>
    </g>
    <g id="xtick_9">
     <g id="line2d_19">
      <g>
       <use style="stroke:#000000;stroke-width:0.5;" x="281.8925" xlink:href="#m93b0483c22" y="244.518125"/>
      </g>
     </g>
     <g id="line2d_20">
      <g>
       <use style="stroke:#000000;stroke-width:0.5;" x="281.8925" xlink:href="#m741efc42ff" y="21.318125"/>
      </g>
     </g>
     <g id="text_9">
      <!-- 8000 -->
      <defs>
       <path d="
M31.7812 34.625
Q24.75 34.625 20.7188 30.8594
Q16.7031 27.0938 16.7031 20.5156
Q16.7031 13.9219 20.7188 10.1562
Q24.75 6.39062 31.7812 6.39062
Q38.8125 6.39062 42.8594 10.1719
Q46.9219 13.9688 46.9219 20.5156
Q46.9219 27.0938 42.8906 30.8594
Q38.875 34.625 31.7812 34.625
M21.9219 38.8125
Q15.5781 40.375 12.0312 44.7188
Q8.5 49.0781 8.5 55.3281
Q8.5 64.0625 14.7188 69.1406
Q20.9531 74.2188 31.7812 74.2188
Q42.6719 74.2188 48.875 69.1406
Q55.0781 64.0625 55.0781 55.3281
Q55.0781 49.0781 51.5312 44.7188
Q48 40.375 41.7031 38.8125
Q48.8281 37.1562 52.7969 32.3125
Q56.7812 27.4844 56.7812 20.5156
Q56.7812 9.90625 50.3125 4.23438
Q43.8438 -1.42188 31.7812 -1.42188
Q19.7344 -1.42188 13.25 4.23438
Q6.78125 9.90625 6.78125 20.5156
Q6.78125 27.4844 10.7812 32.3125
Q14.7969 37.1562 21.9219 38.8125
M18.3125 54.3906
Q18.3125 48.7344 21.8438 45.5625
Q25.3906 42.3906 31.7812 42.3906
Q38.1406 42.3906 41.7188 45.5625
Q45.3125 48.7344 45.3125 54.3906
Q45.3125 60.0625 41.7188 63.2344
Q38.1406 66.4062 31.7812 66.4062
Q25.3906 66.4062 21.8438 63.2344
Q18.3125 60.0625 18.3125 54.3906" id="BitstreamVeraSans-Roman-38"/>
      </defs>
      <g transform="translate(269.83859375 256.1165625)scale(0.1 -0.1)">
       <use xlink:href="#BitstreamVeraSans-Roman-38"/>
       <use x="63.623046875" xlink:href="#BitstreamVeraSans-Roman-30"/>
       <use x="127.24609375" xlink:href="#BitstreamVeraSans-Roman-30"/>
       <use x="190.869140625" xlink:href="#BitstreamVeraSans-Roman-30"/>
      </g>
     </g>
    </g>
    <g id="xtick_10">
     <g id="line2d_21">
      <g>
       <use style="stroke:#000000;stroke-width:0.5;" x="311.6525" xlink:href="#m93b0483c22" y="244.518125"/>
      </g>
     </g>
     <g id="line2d_22">
      <g>
       <use style="stroke:#000000;stroke-width:0.5;" x="311.6525" xlink:href="#m741efc42ff" y="21.318125"/>
      </g>
     </g>
     <g id="text_10">
      <!-- 9000 -->
      <defs>
       <path d="
M10.9844 1.51562
L10.9844 10.5
Q14.7031 8.73438 18.5 7.8125
Q22.3125 6.89062 25.9844 6.89062
Q35.75 6.89062 40.8906 13.4531
Q46.0469 20.0156 46.7812 33.4062
Q43.9531 29.2031 39.5938 26.9531
Q35.25 24.7031 29.9844 24.7031
Q19.0469 24.7031 12.6719 31.3125
Q6.29688 37.9375 6.29688 49.4219
Q6.29688 60.6406 12.9375 67.4219
Q19.5781 74.2188 30.6094 74.2188
Q43.2656 74.2188 49.9219 64.5156
Q56.5938 54.8281 56.5938 36.375
Q56.5938 19.1406 48.4062 8.85938
Q40.2344 -1.42188 26.4219 -1.42188
Q22.7031 -1.42188 18.8906 -0.6875
Q15.0938 0.046875 10.9844 1.51562
M30.6094 32.4219
Q37.25 32.4219 41.125 36.9531
Q45.0156 41.5 45.0156 49.4219
Q45.0156 57.2812 41.125 61.8438
Q37.25 66.4062 30.6094 66.4062
Q23.9688 66.4062 20.0938 61.8438
Q16.2188 57.2812 16.2188 49.4219
Q16.2188 41.5 20.0938 36.9531
Q23.9688 32.4219 30.6094 32.4219" id="BitstreamVeraSans-Roman-39"/>
      </defs>
      <g transform="translate(299.574375 256.1165625)scale(0.1 -0.1)">
       <use xlink:href="#BitstreamVeraSans-Roman-39"/>
       <use x="63.623046875" xlink:href="#BitstreamVeraSans-Roman-30"/>
       <use x="127.24609375" xlink:href="#BitstreamVeraSans-Roman-30"/>
       <use x="190.869140625" xlink:href="#BitstreamVeraSans-Roman-30"/>
      </g>
     </g>
    </g>
    <g id="text_11">
     <!-- hour in year -->
     <defs>
      <path id="BitstreamVeraSans-Roman-20"/>
      <path d="
M54.8906 33.0156
L54.8906 0
L45.9062 0
L45.9062 32.7188
Q45.9062 40.4844 42.875 44.3281
Q39.8438 48.1875 33.7969 48.1875
Q26.5156 48.1875 22.3125 43.5469
Q18.1094 38.9219 18.1094 30.9062
L18.1094 0
L9.07812 0
L9.07812 54.6875
L18.1094 54.6875
L18.1094 46.1875
Q21.3438 51.125 25.7031 53.5625
Q30.0781 56 35.7969 56
Q45.2188 56 50.0469 50.1719
Q54.8906 44.3438 54.8906 33.0156" id="BitstreamVeraSans-Roman-6e"/>
      <path d="
M34.2812 27.4844
Q23.3906 27.4844 19.1875 25
Q14.9844 22.5156 14.9844 16.5
Q14.9844 11.7188 18.1406 8.90625
Q21.2969 6.10938 26.7031 6.10938
Q34.1875 6.10938 38.7031 11.4062
Q43.2188 16.7031 43.2188 25.4844
L43.2188 27.4844
z

M52.2031 31.2031
L52.2031 0
L43.2188 0
L43.2188 8.29688
Q40.1406 3.32812 35.5469 0.953125
Q30.9531 -1.42188 24.3125 -1.42188
Q15.9219 -1.42188 10.9531 3.29688
Q6 8.01562 6 15.9219
Q6 25.1406 12.1719 29.8281
Q18.3594 34.5156 30.6094 34.5156
L43.2188 34.5156
L43.2188 35.4062
Q43.2188 41.6094 39.1406 45
Q35.0625 48.3906 27.6875 48.3906
Q23 48.3906 18.5469 47.2656
Q14.1094 46.1406 10.0156 43.8906
L10.0156 52.2031
Q14.9375 54.1094 19.5781 55.0469
Q24.2188 56 28.6094 56
Q40.4844 56 46.3438 49.8438
Q52.2031 43.7031 52.2031 31.2031" id="BitstreamVeraSans-Roman-61"/>
      <path d="
M30.6094 48.3906
Q23.3906 48.3906 19.1875 42.75
Q14.9844 37.1094 14.9844 27.2969
Q14.9844 17.4844 19.1562 11.8438
Q23.3438 6.20312 30.6094 6.20312
Q37.7969 6.20312 41.9844 11.8594
Q46.1875 17.5312 46.1875 27.2969
Q46.1875 37.0156 41.9844 42.7031
Q37.7969 48.3906 30.6094 48.3906
M30.6094 56
Q42.3281 56 49.0156 48.375
Q55.7188 40.7656 55.7188 27.2969
Q55.7188 13.875 49.0156 6.21875
Q42.3281 -1.42188 30.6094 -1.42188
Q18.8438 -1.42188 12.1719 6.21875
Q5.51562 13.875 5.51562 27.2969
Q5.51562 40.7656 12.1719 48.375
Q18.8438 56 30.6094 56" id="BitstreamVeraSans-Roman-6f"/>
      <path d="
M9.42188 54.6875
L18.4062 54.6875
L18.4062 0
L9.42188 0
z

M9.42188 75.9844
L18.4062 75.9844
L18.4062 64.5938
L9.42188 64.5938
z
" id="BitstreamVeraSans-Roman-69"/>
      <path d="
M54.8906 33.0156
L54.8906 0
L45.9062 0
L45.9062 32.7188
Q45.9062 40.4844 42.875 44.3281
Q39.8438 48.1875 33.7969 48.1875
Q26.5156 48.1875 22.3125 43.5469
Q18.1094 38.9219 18.1094 30.9062
L18.1094 0
L9.07812 0
L9.07812 75.9844
L18.1094 75.9844
L18.1094 46.1875
Q21.3438 51.125 25.7031 53.5625
Q30.0781 56 35.7969 56
Q45.2188 56 50.0469 50.1719
Q54.8906 44.3438 54.8906 33.0156" id="BitstreamVeraSans-Roman-68"/>
      <path d="
M32.1719 -5.07812
Q28.375 -14.8438 24.75 -17.8125
Q21.1406 -20.7969 15.0938 -20.7969
L7.90625 -20.7969
L7.90625 -13.2812
L13.1875 -13.2812
Q16.8906 -13.2812 18.9375 -11.5156
Q21 -9.76562 23.4844 -3.21875
L25.0938 0.875
L2.98438 54.6875
L12.5 54.6875
L29.5938 11.9219
L46.6875 54.6875
L56.2031 54.6875
z
" id="BitstreamVeraSans-Roman-79"/>
      <path d="
M56.2031 29.5938
L56.2031 25.2031
L14.8906 25.2031
Q15.4844 15.9219 20.4844 11.0625
Q25.4844 6.20312 34.4219 6.20312
Q39.5938 6.20312 44.4531 7.46875
Q49.3125 8.73438 54.1094 11.2812
L54.1094 2.78125
Q49.2656 0.734375 44.1875 -0.34375
Q39.1094 -1.42188 33.8906 -1.42188
Q20.7969 -1.42188 13.1562 6.1875
Q5.51562 13.8125 5.51562 26.8125
Q5.51562 40.2344 12.7656 48.1094
Q20.0156 56 32.3281 56
Q43.3594 56 49.7812 48.8906
Q56.2031 41.7969 56.2031 29.5938
M47.2188 32.2344
Q47.125 39.5938 43.0938 43.9844
Q39.0625 48.3906 32.4219 48.3906
Q24.9062 48.3906 20.3906 44.1406
Q15.875 39.8906 15.1875 32.1719
z
" id="BitstreamVeraSans-Roman-65"/>
      <path d="
M8.5 21.5781
L8.5 54.6875
L17.4844 54.6875
L17.4844 21.9219
Q17.4844 14.1562 20.5 10.2656
Q23.5312 6.39062 29.5938 6.39062
Q36.8594 6.39062 41.0781 11.0312
Q45.3125 15.6719 45.3125 23.6875
L45.3125 54.6875
L54.2969 54.6875
L54.2969 0
L45.3125 0
L45.3125 8.40625
Q42.0469 3.42188 37.7188 1
Q33.4062 -1.42188 27.6875 -1.42188
Q18.2656 -1.42188 13.375 4.4375
Q8.5 10.2969 8.5 21.5781" id="BitstreamVeraSans-Roman-75"/>
      <path d="
M41.1094 46.2969
Q39.5938 47.1719 37.8125 47.5781
Q36.0312 48 33.8906 48
Q26.2656 48 22.1875 43.0469
Q18.1094 38.0938 18.1094 28.8125
L18.1094 0
L9.07812 0
L9.07812 54.6875
L18.1094 54.6875
L18.1094 46.1875
Q20.9531 51.1719 25.4844 53.5781
Q30.0312 56 36.5312 56
Q37.4531 56 38.5781 55.875
Q39.7031 55.7656 41.0625 55.5156
z
" id="BitstreamVeraSans-Roman-72"/>
     </defs>
     <g transform="translate(147.38875 270.7946875)scale(0.1 -0.1)">
      <use xlink:href="#BitstreamVeraSans-Roman-68"/>
      <use x="63.37890625" xlink:href="#BitstreamVeraSans-Roman-6f"/>
      <use x="124.560546875" xlink:href="#BitstreamVeraSans-Roman-75"/>
      <use x="187.939453125" xlink:href="#BitstreamVeraSans-Roman-72"/>
      <use x="229.052734375" xlink:href="#BitstreamVeraSans-Roman-20"/>
      <use x="260.83984375" xlink:href="#BitstreamVeraSans-Roman-69"/>
      <use x="288.623046875" xlink:href="#BitstreamVeraSans-Roman-6e"/>
      <use x="352.001953125" xlink:href="#BitstreamVeraSans-Roman-20"/>
      <use x="383.7890625" xlink:href="#BitstreamVeraSans-Roman-79"/>
      <use x="442.96875" xlink:href="#BitstreamVeraSans-Roman-65"/>
      <use x="504.4921875" xlink:href="#BitstreamVeraSans-Roman-61"/>
      <use x="565.771484375" xlink:href="#BitstreamVeraSans-Roman-72"/>
     </g>
    </g>
   </g>
   <g id="matplotlib.axis_2">
    <g id="ytick_1">
     <g id="line2d_23">
      <defs>
       <path d="
M0 0
L4 0" id="m728421d6d4" style="stroke:#000000;stroke-width:0.5;"/>
      </defs>
      <g>
       <use style="stroke:#000000;stroke-width:0.5;" x="43.8125" xlink:href="#m728421d6d4" y="244.518125"/>
      </g>
     </g>
     <g id="line2d_24">
      <defs>
       <path d="
M0 0
L-4 0" id="mcb0005524f" style="stroke:#000000;stroke-width:0.5;"/>
      </defs>
      <g>
       <use style="stroke:#000000;stroke-width:0.5;" x="311.6525" xlink:href="#mcb0005524f" y="244.518125"/>
      </g>
     </g>
     <g id="text_12">
      <!-- 0 -->
      <g transform="translate(34.7734375 247.2775)scale(0.1 -0.1)">
       <use xlink:href="#BitstreamVeraSans-Roman-30"/>
      </g>
     </g>
    </g>
    <g id="ytick_2">
     <g id="line2d_25">
      <g>
       <use style="stroke:#000000;stroke-width:0.5;" x="43.8125" xlink:href="#m728421d6d4" y="219.718125"/>
      </g>
     </g>
     <g id="line2d_26">
      <g>
       <use style="stroke:#000000;stroke-width:0.5;" x="311.6525" xlink:href="#mcb0005524f" y="219.718125"/>
      </g>
     </g>
     <g id="text_13">
      <!-- 100 -->
      <g transform="translate(22.4875 222.4775)scale(0.1 -0.1)">
       <use xlink:href="#BitstreamVeraSans-Roman-31"/>
       <use x="63.623046875" xlink:href="#BitstreamVeraSans-Roman-30"/>
       <use x="127.24609375" xlink:href="#BitstreamVeraSans-Roman-30"/>
      </g>
     </g>
    </g>
    <g id="ytick_3">
     <g id="line2d_27">
      <g>
       <use style="stroke:#000000;stroke-width:0.5;" x="43.8125" xlink:href="#m728421d6d4" y="194.918125"/>
      </g>
     </g>
     <g id="line2d_28">
      <g>
       <use style="stroke:#000000;stroke-width:0.5;" x="311.6525" xlink:href="#mcb0005524f" y="194.918125"/>
      </g>
     </g>
     <g id="text_14">
      <!-- 200 -->
      <g transform="translate(22.121875 197.6775)scale(0.1 -0.1)">
       <use xlink:href="#BitstreamVeraSans-Roman-32"/>
       <use x="63.623046875" xlink:href="#BitstreamVeraSans-Roman-30"/>
       <use x="127.24609375" xlink:href="#BitstreamVeraSans-Roman-30"/>
      </g>
     </g>
    </g>
    <g id="ytick_4">
     <g id="line2d_29">
      <g>
       <use style="stroke:#000000;stroke-width:0.5;" x="43.8125" xlink:href="#m728421d6d4" y="170.118125"/>
      </g>
     </g>
     <g id="line2d_30">
      <g>
       <use style="stroke:#000000;stroke-width:0.5;" x="311.6525" xlink:href="#mcb0005524f" y="170.118125"/>
      </g>
     </g>
     <g id="text_15">
      <!-- 300 -->
      <g transform="translate(22.1515625 172.8775)scale(0.1 -0.1)">
       <use xlink:href="#BitstreamVeraSans-Roman-33"/>
       <use x="63.623046875" xlink:href="#BitstreamVeraSans-Roman-30"/>
       <use x="127.24609375" xlink:href="#BitstreamVeraSans-Roman-30"/>
      </g>
     </g>
    </g>
    <g id="ytick_5">
     <g id="line2d_31">
      <g>
       <use style="stroke:#000000;stroke-width:0.5;" x="43.8125" xlink:href="#m728421d6d4" y="145.318125"/>
      </g>
     </g>
     <g id="line2d_32">
      <g>
       <use style="stroke:#000000;stroke-width:0.5;" x="311.6525" xlink:href="#mcb0005524f" y="145.318125"/>
      </g>
     </g>
     <g id="text_16">
      <!-- 400 -->
      <g transform="translate(21.878125 148.0775)scale(0.1 -0.1)">
       <use xlink:href="#BitstreamVeraSans-Roman-34"/>
       <use x="63.623046875" xlink:href="#BitstreamVeraSans-Roman-30"/>
       <use x="127.24609375" xlink:href="#BitstreamVeraSans-Roman-30"/>
      </g>
     </g>
    </g>
    <g id="ytick_6">
     <g id="line2d_33">
      <g>
       <use style="stroke:#000000;stroke-width:0.5;" x="43.8125" xlink:href="#m728421d6d4" y="120.518125"/>
      </g>
     </g>
     <g id="line2d_34">
      <g>
       <use style="stroke:#000000;stroke-width:0.5;" x="311.6525" xlink:href="#mcb0005524f" y="120.518125"/>
      </g>
     </g>
     <g id="text_17">
      <!-- 500 -->
      <g transform="translate(22.1609375 123.2775)scale(0.1 -0.1)">
       <use xlink:href="#BitstreamVeraSans-Roman-35"/>
       <use x="63.623046875" xlink:href="#BitstreamVeraSans-Roman-30"/>
       <use x="127.24609375" xlink:href="#BitstreamVeraSans-Roman-30"/>
      </g>
     </g>
    </g>
    <g id="ytick_7">
     <g id="line2d_35">
      <g>
       <use style="stroke:#000000;stroke-width:0.5;" x="43.8125" xlink:href="#m728421d6d4" y="95.718125"/>
      </g>
     </g>
     <g id="line2d_36">
      <g>
       <use style="stroke:#000000;stroke-width:0.5;" x="311.6525" xlink:href="#mcb0005524f" y="95.718125"/>
      </g>
     </g>
     <g id="text_18">
      <!-- 600 -->
      <g transform="translate(22.0875 98.4775)scale(0.1 -0.1)">
       <use xlink:href="#BitstreamVeraSans-Roman-36"/>
       <use x="63.623046875" xlink:href="#BitstreamVeraSans-Roman-30"/>
       <use x="127.24609375" xlink:href="#BitstreamVeraSans-Roman-30"/>
      </g>
     </g>
    </g>
    <g id="ytick_8">
     <g id="line2d_37">
      <g>
       <use style="stroke:#000000;stroke-width:0.5;" x="43.8125" xlink:href="#m728421d6d4" y="70.918125"/>
      </g>
     </g>
     <g id="line2d_38">
      <g>
       <use style="stroke:#000000;stroke-width:0.5;" x="311.6525" xlink:href="#mcb0005524f" y="70.918125"/>
      </g>
     </g>
     <g id="text_19">
      <!-- 700 -->
      <g transform="translate(22.209375 73.6775)scale(0.1 -0.1)">
       <use xlink:href="#BitstreamVeraSans-Roman-37"/>
       <use x="63.623046875" xlink:href="#BitstreamVeraSans-Roman-30"/>
       <use x="127.24609375" xlink:href="#BitstreamVeraSans-Roman-30"/>
      </g>
     </g>
    </g>
    <g id="ytick_9">
     <g id="line2d_39">
      <g>
       <use style="stroke:#000000;stroke-width:0.5;" x="43.8125" xlink:href="#m728421d6d4" y="46.118125"/>
      </g>
     </g>
     <g id="line2d_40">
      <g>
       <use style="stroke:#000000;stroke-width:0.5;" x="311.6525" xlink:href="#mcb0005524f" y="46.118125"/>
      </g>
     </g>
     <g id="text_20">
      <!-- 800 -->
      <g transform="translate(22.0671875 48.8775)scale(0.1 -0.1)">
       <use xlink:href="#BitstreamVeraSans-Roman-38"/>
       <use x="63.623046875" xlink:href="#BitstreamVeraSans-Roman-30"/>
       <use x="127.24609375" xlink:href="#BitstreamVeraSans-Roman-30"/>
      </g>
     </g>
    </g>
    <g id="ytick_10">
     <g id="line2d_41">
      <g>
       <use style="stroke:#000000;stroke-width:0.5;" x="43.8125" xlink:href="#m728421d6d4" y="21.318125"/>
      </g>
     </g>
     <g id="line2d_42">
      <g>
       <use style="stroke:#000000;stroke-width:0.5;" x="311.6525" xlink:href="#mcb0005524f" y="21.318125"/>
      </g>
     </g>
     <g id="text_21">
      <!-- 900 -->
      <g transform="translate(22.01875 24.0775)scale(0.1 -0.1)">
       <use xlink:href="#BitstreamVeraSans-Roman-39"/>
       <use x="63.623046875" xlink:href="#BitstreamVeraSans-Roman-30"/>
       <use x="127.24609375" xlink:href="#BitstreamVeraSans-Roman-30"/>
      </g>
     </g>
    </g>
    <g id="text_22">
     <!-- precip in mm -->
     <defs>
      <path d="
M52 44.1875
Q55.375 50.25 60.0625 53.125
Q64.75 56 71.0938 56
Q79.6406 56 84.2812 50.0156
Q88.9219 44.0469 88.9219 33.0156
L88.9219 0
L79.8906 0
L79.8906 32.7188
Q79.8906 40.5781 77.0938 44.375
Q74.3125 48.1875 68.6094 48.1875
Q61.625 48.1875 57.5625 43.5469
Q53.5156 38.9219 53.5156 30.9062
L53.5156 0
L44.4844 0
L44.4844 32.7188
Q44.4844 40.625 41.7031 44.4062
Q38.9219 48.1875 33.1094 48.1875
Q26.2188 48.1875 22.1562 43.5312
Q18.1094 38.875 18.1094 30.9062
L18.1094 0
L9.07812 0
L9.07812 54.6875
L18.1094 54.6875
L18.1094 46.1875
Q21.1875 51.2188 25.4844 53.6094
Q29.7812 56 35.6875 56
Q41.6562 56 45.8281 52.9688
Q50 49.9531 52 44.1875" id="BitstreamVeraSans-Roman-6d"/>
      <path d="
M48.7812 52.5938
L48.7812 44.1875
Q44.9688 46.2969 41.1406 47.3438
Q37.3125 48.3906 33.4062 48.3906
Q24.6562 48.3906 19.8125 42.8438
Q14.9844 37.3125 14.9844 27.2969
Q14.9844 17.2812 19.8125 11.7344
Q24.6562 6.20312 33.4062 6.20312
Q37.3125 6.20312 41.1406 7.25
Q44.9688 8.29688 48.7812 10.4062
L48.7812 2.09375
Q45.0156 0.34375 40.9844 -0.53125
Q36.9688 -1.42188 32.4219 -1.42188
Q20.0625 -1.42188 12.7812 6.34375
Q5.51562 14.1094 5.51562 27.2969
Q5.51562 40.6719 12.8594 48.3281
Q20.2188 56 33.0156 56
Q37.1562 56 41.1094 55.1406
Q45.0625 54.2969 48.7812 52.5938" id="BitstreamVeraSans-Roman-63"/>
      <path d="
M18.1094 8.20312
L18.1094 -20.7969
L9.07812 -20.7969
L9.07812 54.6875
L18.1094 54.6875
L18.1094 46.3906
Q20.9531 51.2656 25.2656 53.625
Q29.5938 56 35.5938 56
Q45.5625 56 51.7812 48.0938
Q58.0156 40.1875 58.0156 27.2969
Q58.0156 14.4062 51.7812 6.48438
Q45.5625 -1.42188 35.5938 -1.42188
Q29.5938 -1.42188 25.2656 0.953125
Q20.9531 3.32812 18.1094 8.20312
M48.6875 27.2969
Q48.6875 37.2031 44.6094 42.8438
Q40.5312 48.4844 33.4062 48.4844
Q26.2656 48.4844 22.1875 42.8438
Q18.1094 37.2031 18.1094 27.2969
Q18.1094 17.3906 22.1875 11.75
Q26.2656 6.10938 33.4062 6.10938
Q40.5312 6.10938 44.6094 11.75
Q48.6875 17.3906 48.6875 27.2969" id="BitstreamVeraSans-Roman-70"/>
     </defs>
     <g transform="translate(14.7984375 165.47671875)rotate(-90.0)scale(0.1 -0.1)">
      <use xlink:href="#BitstreamVeraSans-Roman-70"/>
      <use x="63.4765625" xlink:href="#BitstreamVeraSans-Roman-72"/>
      <use x="102.33984375" xlink:href="#BitstreamVeraSans-Roman-65"/>
      <use x="163.86328125" xlink:href="#BitstreamVeraSans-Roman-63"/>
      <use x="218.84375" xlink:href="#BitstreamVeraSans-Roman-69"/>
      <use x="246.626953125" xlink:href="#BitstreamVeraSans-Roman-70"/>
      <use x="310.103515625" xlink:href="#BitstreamVeraSans-Roman-20"/>
      <use x="341.890625" xlink:href="#BitstreamVeraSans-Roman-69"/>
      <use x="369.673828125" xlink:href="#BitstreamVeraSans-Roman-6e"/>
      <use x="433.052734375" xlink:href="#BitstreamVeraSans-Roman-20"/>
      <use x="464.83984375" xlink:href="#BitstreamVeraSans-Roman-6d"/>
      <use x="562.251953125" xlink:href="#BitstreamVeraSans-Roman-6d"/>
     </g>
    </g>
   </g>
   <g id="text_23">
    <!-- hourly BRW precipitation -->
    <defs>
     <path d="
M44.3906 34.1875
Q47.5625 33.1094 50.5625 29.5938
Q53.5625 26.0781 56.5938 19.9219
L66.6094 0
L56 0
L46.6875 18.7031
Q43.0625 26.0312 39.6719 28.4219
Q36.2812 30.8125 30.4219 30.8125
L19.6719 30.8125
L19.6719 0
L9.8125 0
L9.8125 72.9062
L32.0781 72.9062
Q44.5781 72.9062 50.7344 67.6719
Q56.8906 62.4531 56.8906 51.9062
Q56.8906 45.0156 53.6875 40.4688
Q50.4844 35.9375 44.3906 34.1875
M19.6719 64.7969
L19.6719 38.9219
L32.0781 38.9219
Q39.2031 38.9219 42.8438 42.2188
Q46.4844 45.5156 46.4844 51.9062
Q46.4844 58.2969 42.8438 61.5469
Q39.2031 64.7969 32.0781 64.7969
z
" id="BitstreamVeraSans-Roman-52"/>
     <path d="
M18.3125 70.2188
L18.3125 54.6875
L36.8125 54.6875
L36.8125 47.7031
L18.3125 47.7031
L18.3125 18.0156
Q18.3125 11.3281 20.1406 9.42188
Q21.9688 7.51562 27.5938 7.51562
L36.8125 7.51562
L36.8125 0
L27.5938 0
Q17.1875 0 13.2344 3.875
Q9.28125 7.76562 9.28125 18.0156
L9.28125 47.7031
L2.6875 47.7031
L2.6875 54.6875
L9.28125 54.6875
L9.28125 70.2188
z
" id="BitstreamVeraSans-Roman-74"/>
     <path d="
M19.6719 34.8125
L19.6719 8.10938
L35.5 8.10938
Q43.4531 8.10938 47.2812 11.4062
Q51.125 14.7031 51.125 21.4844
Q51.125 28.3281 47.2812 31.5625
Q43.4531 34.8125 35.5 34.8125
z

M19.6719 64.7969
L19.6719 42.8281
L34.2812 42.8281
Q41.5 42.8281 45.0312 45.5312
Q48.5781 48.25 48.5781 53.8125
Q48.5781 59.3281 45.0312 62.0625
Q41.5 64.7969 34.2812 64.7969
z

M9.8125 72.9062
L35.0156 72.9062
Q46.2969 72.9062 52.3906 68.2188
Q58.5 63.5312 58.5 54.8906
Q58.5 48.1875 55.375 44.2344
Q52.25 40.2812 46.1875 39.3125
Q53.4688 37.75 57.5 32.7812
Q61.5312 27.8281 61.5312 20.4062
Q61.5312 10.6406 54.8906 5.3125
Q48.25 0 35.9844 0
L9.8125 0
z
" id="BitstreamVeraSans-Roman-42"/>
     <path d="
M9.42188 75.9844
L18.4062 75.9844
L18.4062 0
L9.42188 0
z
" id="BitstreamVeraSans-Roman-6c"/>
     <path d="
M3.32812 72.9062
L13.2812 72.9062
L28.6094 11.2812
L43.8906 72.9062
L54.9844 72.9062
L70.3125 11.2812
L85.5938 72.9062
L95.6094 72.9062
L77.2969 0
L64.8906 0
L49.5156 63.2812
L33.9844 0
L21.5781 0
z
" id="BitstreamVeraSans-Roman-57"/>
    </defs>
    <g transform="translate(103.6925 16.318125)scale(0.12 -0.12)">
     <use xlink:href="#BitstreamVeraSans-Roman-68"/>
     <use x="63.37890625" xlink:href="#BitstreamVeraSans-Roman-6f"/>
     <use x="124.560546875" xlink:href="#BitstreamVeraSans-Roman-75"/>
     <use x="187.939453125" xlink:href="#BitstreamVeraSans-Roman-72"/>
     <use x="229.052734375" xlink:href="#BitstreamVeraSans-Roman-6c"/>
     <use x="256.8359375" xlink:href="#BitstreamVeraSans-Roman-79"/>
     <use x="316.015625" xlink:href="#BitstreamVeraSans-Roman-20"/>
     <use x="347.802734375" xlink:href="#BitstreamVeraSans-Roman-42"/>
     <use x="416.40625" xlink:href="#BitstreamVeraSans-Roman-52"/>
     <use x="481.888671875" xlink:href="#BitstreamVeraSans-Roman-57"/>
     <use x="580.765625" xlink:href="#BitstreamVeraSans-Roman-20"/>
     <use x="612.552734375" xlink:href="#BitstreamVeraSans-Roman-70"/>
     <use x="676.029296875" xlink:href="#BitstreamVeraSans-Roman-72"/>
     <use x="714.892578125" xlink:href="#BitstreamVeraSans-Roman-65"/>
     <use x="776.416015625" xlink:href="#BitstreamVeraSans-Roman-63"/>
     <use x="831.396484375" xlink:href="#BitstreamVeraSans-Roman-69"/>
     <use x="859.1796875" xlink:href="#BitstreamVeraSans-Roman-70"/>
     <use x="922.65625" xlink:href="#BitstreamVeraSans-Roman-69"/>
     <use x="950.439453125" xlink:href="#BitstreamVeraSans-Roman-74"/>
     <use x="989.6484375" xlink:href="#BitstreamVeraSans-Roman-61"/>
     <use x="1050.92773438" xlink:href="#BitstreamVeraSans-Roman-74"/>
     <use x="1090.13671875" xlink:href="#BitstreamVeraSans-Roman-69"/>
     <use x="1117.91992188" xlink:href="#BitstreamVeraSans-Roman-6f"/>
     <use x="1179.1015625" xlink:href="#BitstreamVeraSans-Roman-6e"/>
    </g>
   </g>
   <g id="legend_1">
    <g id="patch_7">
     <path d="
M317.653 152.332
L389.84 152.332
L389.84 113.504
L317.653 113.504
z
" style="fill:#ffffff;stroke:#000000;stroke-linejoin:miter;"/>
    </g>
    <g id="line2d_43">
     <path d="
M326.053 123.223
L342.853 123.223" style="fill:none;stroke:#0000ff;stroke-linecap:square;"/>
    </g>
    <g id="line2d_44"/>
    <g id="text_24">
     <!-- 2013 -->
     <g transform="translate(356.0525 127.4225)scale(0.12 -0.12)">
      <use xlink:href="#BitstreamVeraSans-Roman-32"/>
      <use x="63.623046875" xlink:href="#BitstreamVeraSans-Roman-30"/>
      <use x="127.24609375" xlink:href="#BitstreamVeraSans-Roman-31"/>
      <use x="190.869140625" xlink:href="#BitstreamVeraSans-Roman-33"/>
     </g>
    </g>
    <g id="line2d_45">
     <path d="
M326.053 140.836
L342.853 140.836" style="fill:none;stroke:#0000ff;stroke-linecap:square;"/>
    </g>
    <g id="line2d_46"/>
    <g id="text_25">
     <!-- 2014 -->
     <g transform="translate(356.0525 145.03625)scale(0.12 -0.12)">
      <use xlink:href="#BitstreamVeraSans-Roman-32"/>
      <use x="63.623046875" xlink:href="#BitstreamVeraSans-Roman-30"/>
      <use x="127.24609375" xlink:href="#BitstreamVeraSans-Roman-31"/>
      <use x="190.869140625" xlink:href="#BitstreamVeraSans-Roman-34"/>
     </g>
    </g>
   </g>
  </g>
 </g>
 <defs>
  <clipPath id="pf0709b6b74">
   <rect height="223.2" width="267.84" x="43.8125" y="21.318125"/>
  </clipPath>
 </defs>
</svg>
