<?xml version="1.0" encoding="utf-8" standalone="no"?>
<!DOCTYPE svg PUBLIC "-//W3C//DTD SVG 1.1//EN"
  "http://www.w3.org/Graphics/SVG/1.1/DTD/svg11.dtd">
<!-- Created with matplotlib (http://matplotlib.org/) -->
<svg height="280pt" version="1.1" viewBox="0 0 382 280" width="382pt" xmlns="http://www.w3.org/2000/svg" xmlns:xlink="http://www.w3.org/1999/xlink">
 <defs>
  <style type="text/css">
*{stroke-linecap:butt;stroke-linejoin:round;}
  </style>
 </defs>
 <g id="figure_1">
  <g id="patch_1">
   <path d="
M0 280.074
L382.628 280.074
L382.628 0
L0 0
z
" style="fill:#ffffff;"/>
  </g>
  <g id="axes_1">
   <g id="patch_2">
    <path d="
M40.6281 244.518
L375.428 244.518
L375.428 21.3181
L40.6281 21.3181
z
" style="fill:#ffffff;"/>
   </g>
   <g id="line2d_1">
    <path clip-path="url(#p2d16512a00)" d="
M0 0" style="fill:none;stroke:#0000ff;stroke-linecap:square;"/>
   </g>
   <g id="line2d_2">
    <path clip-path="url(#p2d16512a00)" d="
M40.6281 221.634
L41.5454 189.951
L42.4626 230.726
L43.3799 229.011
L44.2972 194.512
L45.2144 198.473
L46.1317 215.356
L47.9662 235.501
L48.8835 231.053
L49.8007 242.833
M58.9733 223.747
L59.8906 227.894
L60.8079 191.448
L61.7251 217.539
L62.6424 185.932
L63.5596 218.761
L64.4769 233.321
L65.3942 231.531
L66.3114 224.101
L67.2287 229.287
L68.1459 221.321
L69.9805 181.137
L70.8977 181.515
L71.815 204.596
L72.7322 218.196
L73.6495 199.891
L74.5668 229.251
L75.484 223.118
M77.3185 199.859
L78.2358 182.47
L79.1531 170.582
L80.0703 161.061
L80.9876 168.739
L81.9048 168.929
L82.8221 197.699
L83.7394 216.796
L84.6566 226.813
L85.5739 210.607
L86.4911 242.07
L87.4084 239.972
L88.3257 213.638
L89.2429 204.079
L90.1602 200.612
L91.0774 186.856
L91.9947 209.444
L92.912 211.726
L93.8292 184.553
L94.7465 177.013
L95.6637 200.516
L96.581 212.286
L97.4983 218.051
L98.4155 198.077
L99.3328 204.972
L100.25 204.876
L101.167 199.309
L102.085 202.174
L103.002 211.378
L103.919 226.156
L104.836 222.661
L105.754 206.14
L106.671 209.671
L107.588 194.91
L108.505 242.145
L109.423 234.927
L110.34 195.629
L111.257 219.617
L112.174 201.48
L113.092 216.246
L114.009 221.613
L114.926 205.665
L115.843 217.207
L116.761 208.995
L117.678 219.037
L118.595 219.614
L119.513 225.911
L120.43 213.23
L121.347 205.571
L122.264 192.971
L123.182 192.533
L124.099 199.096
L125.016 220.864
L125.933 158.758
L126.851 192.401
L127.768 180.673
L128.685 203.82
L129.602 182.597
L130.52 194.944
L131.437 155.112
L132.354 164.485
L133.271 131.786
L134.189 172.006
L135.106 114.865
L136.023 150.191
L136.94 152.846
L137.858 122.124
L138.775 127.79
L139.692 31.7696
L140.609 134.49
L141.527 223.822
L142.444 101.078
L143.361 40.9353
L144.279 132.528
L145.196 157.113
L146.113 98.5182
L147.03 67.0118
L147.948 183.379
L148.865 96.8208
L149.782 92.1654
L150.699 53.5421
L151.617 117.026
L152.534 68.0808
L153.451 65.3772
L154.368 92.3756
L155.286 162.097
L156.203 129.651
L157.12 142.434
L158.037 107.755
L158.955 81.2178
L159.872 110.473
L160.789 94.3669
L161.706 97.2409
L162.624 141.142
L163.541 177.087
L164.458 221.501
L165.376 142.904
L166.293 136.082
L167.21 59.5614
L168.127 87.0516
L169.045 121.657
L169.962 103.743
L170.879 160.818
L171.796 155.319
L172.714 116.579
L173.631 89.3542
L174.548 159.665
L175.465 169.233
L176.383 177.419
L177.3 122.562
L178.217 113.849
L179.134 119.913
L180.052 165.145
L180.969 103.74
L181.886 89.4253
L182.803 113.066
L183.721 170.188
L184.638 168.326
L185.555 68.5141
L186.473 113.832
L187.39 125.434
L188.307 124.051
L189.224 99.7169
L190.142 135.783
L191.059 69.9941
L191.976 57.5039
L192.893 82.2883
L193.811 65.6983
L194.728 167.17
L195.645 128.746
L196.562 85.154
L197.48 95.2544
L198.397 108.701
L199.314 102.121
L200.231 79.607
L201.149 83.9446
L202.066 78.0416
L202.983 88.0987
L203.9 112.284
L204.818 132.637
L205.735 94.2052
L206.652 82.5114
L207.569 99.8716
L208.487 107.256
L210.321 118.514
L211.239 112.27
L212.156 161.671
L213.073 94.0158
L213.99 89.146
L214.908 111.601
L215.825 118.55
L216.742 116.278
L217.659 127.851
L218.577 111.626
L219.494 108.722
L220.411 123.231
L221.328 109.378
L222.246 114.77
L223.163 106.631
L224.08 100.109
L224.997 103.524
L225.915 104.57
L226.832 106.161
L227.749 128.297
L228.666 118.506
L229.584 116.5
L230.501 109.871
L231.418 110.374
L232.336 120.464
L233.253 143.449
L234.17 161.421
L235.087 135.452
L236.005 131.589
L236.922 131.48
L237.839 167.121
L238.756 123.586
L239.674 128.76
L240.591 131.216
L241.508 128.339
L242.425 122.299
L243.343 122.613
L244.26 115.119
L245.177 122.826
L246.094 140.127
L247.012 134.807
L247.929 113.224
L248.846 121.473
L249.763 131.682
L250.681 131.463
L251.598 125.634
L252.515 140.243
L253.433 141.959
L254.35 141.653
L255.267 135.982
L256.184 145.682
L257.102 143.119
L258.019 148.035
L258.936 168.8
L259.853 150.406
L260.771 142.749
L261.688 138.901
L262.605 125.407
L263.522 120.204
L264.44 119.413
L265.357 126.936
L266.274 132.158
L267.191 135.362
L268.109 143.733
L269.026 145.287
L269.943 146.374
L270.86 154.516
L271.778 147.924
L272.695 161.808
L273.612 146.87
L274.529 150.421
L275.447 140.329
L276.364 189.869
L277.281 141.091
L278.199 126.482
L279.116 125.378
L280.033 141.39
L280.95 136.879
L281.868 140.486
L282.785 148.529
L283.702 150.496
L284.619 151.503
L285.537 158.452
L286.454 144.18
L287.371 147.444
L288.288 146.926
L289.206 142.069
L290.123 159.466
L291.957 149.608
L292.875 157.601
L293.792 206.386
L294.709 217.997
L295.626 227.848
L296.544 226.437
L297.461 174.836
L298.378 152.525
L299.296 207.371
L300.213 166.123
L301.13 154.885
L302.047 133.721
L302.965 147.701
L303.882 167.564
L304.799 226.073
L305.716 144.62
L306.634 144.002
L307.551 155.177
L308.468 146.575
L309.385 154.038
L310.303 171.559
L311.22 164.232
L312.137 198.759
L313.054 152.984
L313.972 114.888
L314.889 128.643
L315.806 135.743
L316.723 136.088
L317.641 162.441
L318.558 182.728
L319.475 159.434
L320.393 126.119
L321.31 145.72
L322.227 193.71
L323.144 183.686
L324.062 216.791
L324.979 204.569
L325.896 196.15
L326.813 168.913
L327.731 150.9
L328.648 166.319
L329.565 205.482
L331.4 184.901
L332.317 183.476
L333.234 177.193
L334.151 201.676
L335.069 216.611
L335.986 208.35
L336.903 196.955
L337.82 194.737
L338.738 208.217
L339.655 180.682
L340.572 187.439
L341.489 177.511
L342.407 147.989
L343.324 133.054
L345.159 213.471
L346.076 221.669
L346.993 166.356
L347.91 161.395
L348.828 182.669
L349.745 181.245
L350.662 180.901
L351.579 158.529
L352.497 164.728
L353.414 166.484
L354.331 157.978
L355.248 168.301
L356.166 175.606
L357.083 174.392
L358 186.184
L358.917 171.377
L359.835 198.833
L360.752 199.237
L361.669 196.652
L362.586 190.418
L363.504 174.619
L364.421 155.895
L365.338 196.514
L366.256 147.569
L367.173 138.482
L368.09 149.37
L369.007 158.766
L369.925 173.39
L370.842 173.077
L371.759 213.641
L372.676 194.015
L373.594 220.247
L374.511 199.103
L374.511 199.103" style="fill:none;stroke:#008000;stroke-linecap:square;"/>
   </g>
   <g id="line2d_3">
    <path clip-path="url(#p2d16512a00)" d="
M40.6281 131.323
L41.5454 170.751
L42.4626 155.367
L43.3799 147.701
L44.2972 163.974
L45.2144 198.906
L46.1317 190.145
L47.0489 174.705
L47.9662 189.806
L48.8835 218.259
L49.8007 191.067
L50.718 190.621
L51.6352 135.855
L52.5525 126.858
L53.4698 161.311
L54.387 182.52
L55.3043 142.689
L57.1388 239.352
L58.0561 231.742
L58.9733 230.465
L59.8906 226.323
L60.8079 233.263
L61.7251 204.404
L62.6424 207.643
L63.5596 230.436
L64.4769 210.345
L65.3942 173.991
L66.3114 131.479
L67.2287 195.606
L69.0632 202.538
L69.9805 217.835
L70.8977 212.486
L71.815 190.731
L73.6495 199.528
L74.5668 180.644
L75.484 191.836
L76.4013 214.691
L77.3185 207.902
L78.2358 216.767
L79.1531 222.436
L80.0703 221.932
L80.9876 223.202
L81.9048 223.523
L83.7394 189.041
L84.6566 209.734
L85.5739 199.728
L86.4911 204.299
L87.4084 225.457
L88.3257 209.608
L89.2429 210.735
L90.1602 166.619
L91.0774 203.295
L91.9947 184.385
L92.912 184.021
L93.8292 191.923
L94.7465 194.933
L95.6637 215.644
L96.581 213.918
L97.4983 206.923
L98.4155 209.525
L99.3328 175.44
L100.25 227.272
L101.167 185.918
L102.085 175.278
L103.002 149.975
L103.919 153.978
L104.836 183.925
L105.754 185.6
L106.671 195.427
L107.588 214.229
L108.505 191.558
L109.423 210.319
L110.34 238.948
M112.174 193.086
L113.092 193.424
L114.009 186.862
L114.926 130.669
L115.843 179.934
L116.761 122.997
L117.678 165.118
L118.595 194.477
L119.513 142.005
L120.43 163.301
L121.347 175.872
L122.264 195.793
L123.182 107.703
L124.099 114.286
L125.016 90.8844
L125.933 83.5057
L126.851 130.81
L127.768 131.363
L128.685 116.477
L129.602 66.167
L130.52 58.6017
L131.437 107.176
L132.354 95.1575
L133.271 164.711
L134.189 95.5265
L135.106 130.812
L136.023 87.3816
L136.94 78.9005
L137.858 154.528
L138.775 105.472
L139.692 118.45
L140.609 145.632
L141.527 104.605
L142.444 91.9787
L143.361 102.654
L144.279 132.157
L145.196 122.192
L146.113 141.522
L147.03 220.094
L147.948 110.423
L148.865 81.3583
L149.782 64.5744
L150.699 171.887
L151.617 70.6182
L152.534 79.9443
L153.451 140.605
L154.368 192.728
L155.286 106.635
L156.203 48.5999
L158.037 71.8954
L158.955 88.9539
L159.872 42.1183
L160.789 48.0472
L161.706 65.1507
L162.624 77.8966
L163.541 99.1949
L164.458 142.219
L165.376 100.909
L166.293 122.309
L167.21 76.0165
L168.127 54.41
L169.045 89.1763
L169.962 147.005
L170.879 112.143
L171.796 119.934
L172.714 78.0796
L173.631 148.445
L174.548 181.847
L175.465 126.852
L176.383 98.482
L177.3 73.6032
L178.217 73.7362
L179.134 214.409
L180.052 104.942
L180.969 106.359
L181.886 104.274
L182.803 128.004
L183.721 187.925
L184.638 61.0818
L185.555 101.551
L186.473 94.8283
L187.39 151.686
L188.307 82.3996
L189.224 69.7055
L190.142 23.887
M197.48 70.1948
L198.397 90.0046
L199.314 94.8777
L200.231 87.638
L201.149 87.3512
L202.983 92.7301
L203.9 83.4253
L204.818 97.8105
L206.652 109.406
L207.569 123.128
L208.487 107.002
L209.404 94.947
L210.321 94.4257
L211.239 108.639
L212.156 115.856
L213.073 118.179
L213.99 148.696
L214.908 132.822
L215.825 120.889
L216.742 128.552
L217.659 130.015
L218.577 155.852
L219.494 156.63
L220.411 129.023
L221.328 143.52
L222.246 113.098
L223.163 119.094
L224.08 125.88
L224.997 112.826
L225.915 117.728
L226.832 128.452
L227.749 118.519
L228.666 111.169
L229.584 123.267
L230.501 127.77
L231.418 128.285
L232.336 126.893
L233.253 127.152
L234.17 124.39
L235.087 124.77
L236.922 110.328
L237.839 111.776
L238.756 117.028
L239.674 131.995
L240.591 125.833
L241.508 134.006
L242.425 148.059
L243.343 140.459
L244.26 151.473
L245.177 128.432
L246.094 143.052
L247.012 144.312
L247.929 139.02
L248.846 128.641
L249.763 132.746
L251.598 136.585
L252.515 159.088
L253.433 138.998
L254.35 145.695
L255.267 133.576
L256.184 127.808
L257.102 102.205
L258.019 124.141
L258.936 139.561
L259.853 142.23
L260.771 131.359
L261.688 126.417
L262.605 122.621
L263.522 155.291
L264.44 128.376
L265.357 106.429
L266.274 115.402
L267.191 117.178
L268.109 126.373
L269.026 149.405
L269.943 121.087
L270.86 129.556
L271.778 139.65
L272.695 121.517
L273.612 114.357
L274.529 108.416
L276.364 135.484
L277.281 125.277
L278.199 132.011
L279.116 126.484
L280.033 128.004
L280.95 139.742
L281.868 147.722
L282.785 151.304
L283.702 144.372
L284.619 193.201
L285.537 164.292
L286.454 152.883
L287.371 148.863
L288.288 141.295
L289.206 148.454
L290.123 143.738
L291.957 138.916
L292.875 133.731
L293.792 110.412
L294.709 106.489
L295.626 103.246
L296.544 106.672
L297.461 113.27
L298.378 112.607
L299.296 125.704
L300.213 133.055
L301.13 135.662
L302.047 133.095
L302.965 187.193
L303.882 156.974
L304.799 163.515
L305.716 155.631
L306.634 126.755
L307.551 127.987
L308.468 157.018
L309.385 173.767
L310.303 133
L311.22 225.29
L312.137 212.739
L313.054 214.644
L313.972 172.922
L314.889 160.897
L315.806 180.315
L316.723 195.238
L317.641 160.39
L318.558 156.172
L319.475 148.125
L320.393 170.748
L321.31 168.174
L322.227 167.535
L323.144 167.732
L324.062 183.411
L324.979 164.697
L325.896 169.833
L327.731 218.685
L328.648 185.721
L329.565 203.215
L330.482 185.87
L331.4 201.148
L332.317 210.693
L333.234 205.035
L334.151 183.251
L335.069 216.117
L335.986 189.334
L336.903 200.517
L337.82 207.962
L338.738 198.85
L339.655 173.795
L340.572 143.135
L341.489 185.668
L342.407 175.6
L343.324 198.666
L344.241 180.554
L345.159 192.261
L346.076 196.452
L346.993 212.77
L347.91 202.381
L348.828 222.694
L349.745 177.94
L350.662 206.777
L351.579 212.123
L352.497 209.612
L353.414 197.318
L354.331 204.361
L355.248 161.813
L356.166 213.896
L357.083 210.439
L358 229.723
L358.917 190.44
L359.835 228.478
L360.752 215.045
L361.669 225.304
L362.586 208.034
L363.504 223.136
L364.421 206.458
L365.338 144.754
L366.256 130.612
L367.173 185.589
L368.09 216.3
L369.007 237.038
L369.925 215.53
L370.842 215.837
L371.759 230.039
L372.676 228.958
L373.594 215.845
L374.511 219.249
L374.511 219.249" style="fill:none;stroke:#ff0000;stroke-linecap:square;"/>
   </g>
   <g id="line2d_4">
    <path clip-path="url(#p2d16512a00)" d="
M40.6281 210.568
L41.5454 186.489
L42.4626 141.561
L43.3799 203.531
L44.2972 197.068
L45.2144 176.684
L46.1317 222.274
L47.0489 232.594
L47.9662 227.386
L48.8835 213.032
L49.8007 234.454
L50.718 216.385
L51.6352 223.538
L52.5525 198.056
L53.4698 196.817
L54.387 189.307
L55.3043 189.945
L56.2215 192.9
L57.1388 181.352
L58.0561 174.385
L58.9733 165.239
L59.8906 179.413
L60.8079 162.235
L61.7251 200.009
L62.6424 225.393
L63.5596 210.74
L64.4769 185.506
L65.3942 213.9
L66.3114 225.105
L67.2287 233.036
L68.1459 235.522
L69.0632 227.314
L69.9805 227.088
L70.8977 235.159
L71.815 200.304
L72.7322 200.421
L73.6495 223.12
L74.5668 212.724
L75.484 225.93
L76.4013 215.206
L77.3185 210.279
L78.2358 192.385
L79.1531 207.389
L80.0703 212.641
L80.9876 200.912
L81.9048 212.413
L82.8221 197.765
L83.7394 225.299
L84.6566 200.327
L85.5739 185.883
L86.4911 185.063
L87.4084 226.561
L89.2429 196.211
L90.1602 199.503
L91.0774 193.444
L91.9947 167.82
L92.912 212.041
L93.8292 196.02
L94.7465 213.087
L95.6637 206.183
L96.581 158.529
L97.4983 140.716
L99.3328 212.311
L100.25 210.79
L101.167 157.296
L102.085 177.25
L103.002 124.328
L103.919 184.802
L104.836 172.856
L105.754 165.519
L106.671 163.664
L107.588 150.294
L108.505 167.765
L109.423 112.69
L110.34 118.143
L111.257 96.7221
L112.174 153.274
L113.092 154.464
L114.009 202.674
L114.926 119.695
L115.843 121.487
L116.761 86.5742
L117.678 163.864
L118.595 148.156
L119.513 126.778
L120.43 125.015
L121.347 118.829
L122.264 120.848
L123.182 135.892
L124.099 119.816
L125.016 120.355
L125.933 166.519
L126.851 141.677
L127.768 163.716
L128.685 178.131
L129.602 108.726
L130.52 84.8222
L131.437 154.825
L132.354 105.336
L133.271 89.4111
L134.189 130.68
L135.106 124.737
L136.023 131.014
L136.94 98.9735
L137.858 53.0689
L138.775 61.4937
L139.692 192.738
L140.609 135.252
L142.444 73.8934
L143.361 76.6367
L144.279 62.5656
L145.196 76.9721
L146.113 96.9509
L147.03 113.625
L147.948 82.01
L148.865 125.505
L149.782 93.9455
L150.699 51.2519
L151.617 66.9463
L152.534 90.703
L153.451 142.027
L154.368 98.8839
L155.286 141.162
L156.203 145.049
L157.12 153.537
L158.037 121.796
L158.955 106.487
L159.872 119.498
L160.789 123.74
L161.706 120.178
L162.624 104.771
L163.541 116.79
L164.458 142.657
L165.376 152.979
L166.293 114.152
L167.21 142.434
L168.127 88.5988
L169.045 132.697
L169.962 89.4373
L170.879 53.9055
L171.796 68.2499
L172.714 73.1258
L173.631 135.205
L174.548 115.262
L175.465 169.229
L176.383 135.328
L177.3 94.2124
L178.217 73.7296
L179.134 88.0844
L180.052 83.4353
L180.969 81.7432
L182.803 98.5038
L183.721 116.945
L184.638 109.722
L185.555 106.214
L186.473 111.366
L187.39 130.688
L189.224 97.2485
L190.142 108.2
L191.059 81.4341
L191.976 91.1159
L192.893 122.234
L193.811 110.937
L194.728 106.389
L195.645 174.823
L196.562 87.554
L197.48 113.362
L198.397 101.219
L199.314 118.688
L200.231 162.612
L201.149 177.04
L202.066 118.361
L202.983 115.327
L203.9 124.202
L204.818 131.233
L205.735 134.721
L206.652 138.936
L207.569 144.63
L208.487 155.19
L209.404 134.906
L210.321 124.611
L211.239 117.553
L212.156 124.877
L213.073 128.379
L213.99 126.516
L214.908 135.483
L215.825 156.663
L216.742 121.894
L217.659 110.655
L219.494 133.128
L220.411 153.137
L221.328 130.985
L222.246 132.197
L223.163 138.7
L224.08 138.6
L224.997 131.338
L225.915 130.502
L226.832 140.461
L227.749 153.949
L228.666 140.827
L229.584 148.633
L230.501 137.322
L231.418 132.225
L232.336 136.673
L233.253 129.439
L234.17 148.295
L235.087 132.349
L236.005 119.955
L236.922 122.555
L237.839 133.724
L238.756 138.362
L239.674 139.323
L240.591 145.479
L241.508 145.926
L242.425 138.168
L244.26 156.116
L245.177 163.443
L246.094 144.344
L247.012 149.986
L247.929 153.85
L248.846 146.663
L249.763 153.51
L250.681 149.22
L251.598 155.879
L252.515 146.862
L253.433 154.721
L254.35 169.643
L255.267 147.535
L256.184 163.38
L257.102 151.806
L258.019 144.771
L259.853 156.684
L260.771 157.279
L261.688 147.444
L262.605 151.163
L263.522 158.184
L264.44 177.134
L265.357 188.792
L266.274 170.213
L267.191 177.293
L268.109 154.178
L269.026 141.017
L269.943 147.697
L270.86 147.075
L271.778 152.556
L272.695 160.67
L273.612 184.482
L274.529 164.909
L275.447 168.314
L276.364 159.451
L277.281 158.799
L278.199 185.126
L279.116 162.945
L280.033 143.803
L280.95 146.609
L281.868 177.056
L282.785 185.615
L283.702 157.37
L284.619 203.435
L285.537 228.663
L286.454 176.516
L287.371 160.327
L288.288 155.37
L289.206 207.52
L290.123 166.799
L291.04 167.453
L291.957 171.683
L292.875 185.906
L293.792 134.432
L295.626 146.361
L296.544 157.905
L297.461 186.843
L298.378 158.486
L299.296 177.114
L300.213 156.703
L301.13 155.882
L302.047 163.2
L302.965 162.929
L303.882 159.281
L304.799 154.637
L305.716 155.667
L306.634 161.487
L307.551 160.394
L308.468 163.795
L309.385 165.854
L310.303 163.584
L311.22 168.118
L312.137 168.556
L313.054 165.536
L313.972 168.242
L314.889 176.288
L316.723 217.025
L317.641 202.906
L318.558 227.478
L319.475 197.967
L320.393 230.189
L321.31 233.752
L322.227 193.73
L323.144 213.011
L324.062 192.603
L324.979 200.903
L325.896 187.427
L326.813 171.615
L327.731 174.01
L328.648 181.754
L329.565 180.041
L331.4 197.66
L332.317 209.374
L333.234 218.345
L334.151 204.029
L335.069 198.387
L335.986 209.1
L336.903 173.66
L337.82 170.768
L338.738 182.895
L340.572 176.47
L341.489 172.312
L342.407 178.35
L343.324 185.452
L344.241 182.916
L345.159 191.223
L346.076 203.119
L346.993 222.746
L347.91 220.889
L348.828 218.076
L349.745 198.562
L350.662 193.052
L351.579 193.866
L352.497 219.095
L353.414 170.795
L354.331 134.645
L355.248 194.887
L356.166 209.292
L357.083 205.603
L358 189.111
L358.917 200.4
L359.835 188.851
L360.752 192.417
L361.669 175.229
L363.504 224.783
L364.421 210.805
L365.338 199.653
L366.256 226.452
L367.173 206.691
L368.09 225.923
L369.925 177.235
L370.842 182.527
L371.759 201.275
L372.676 194.916
L374.511 203.492
L374.511 203.492" style="fill:none;stroke:#00bfbf;stroke-linecap:square;"/>
   </g>
   <g id="patch_3">
    <path d="
M40.6281 244.518
L40.6281 21.3181" style="fill:none;stroke:#000000;stroke-linecap:square;stroke-linejoin:miter;"/>
   </g>
   <g id="patch_4">
    <path d="
M40.6281 244.518
L375.428 244.518" style="fill:none;stroke:#000000;stroke-linecap:square;stroke-linejoin:miter;"/>
   </g>
   <g id="patch_5">
    <path d="
M375.428 244.518
L375.428 21.3181" style="fill:none;stroke:#000000;stroke-linecap:square;stroke-linejoin:miter;"/>
   </g>
   <g id="patch_6">
    <path d="
M40.6281 21.3181
L375.428 21.3181" style="fill:none;stroke:#000000;stroke-linecap:square;stroke-linejoin:miter;"/>
   </g>
   <g id="matplotlib.axis_1">
    <g id="xtick_1">
     <g id="line2d_5">
      <defs>
       <path d="
M0 0
L0 -4" id="mc7db9fdffb" style="stroke:#000000;stroke-width:0.5;"/>
      </defs>
      <g>
       <use style="stroke:#000000;stroke-width:0.5;" x="40.628125" xlink:href="#mc7db9fdffb" y="244.518125"/>
      </g>
     </g>
     <g id="line2d_6">
      <defs>
       <path d="
M0 0
L0 4" id="m5a7d422ac3" style="stroke:#000000;stroke-width:0.5;"/>
      </defs>
      <g>
       <use style="stroke:#000000;stroke-width:0.5;" x="40.628125" xlink:href="#m5a7d422ac3" y="21.318125"/>
      </g>
     </g>
     <g id="text_1">
      <!-- 0 -->
      <defs>
       <path d="
M31.7812 66.4062
Q24.1719 66.4062 20.3281 58.9062
Q16.5 51.4219 16.5 36.375
Q16.5 21.3906 20.3281 13.8906
Q24.1719 6.39062 31.7812 6.39062
Q39.4531 6.39062 43.2812 13.8906
Q47.125 21.3906 47.125 36.375
Q47.125 51.4219 43.2812 58.9062
Q39.4531 66.4062 31.7812 66.4062
M31.7812 74.2188
Q44.0469 74.2188 50.5156 64.5156
Q56.9844 54.8281 56.9844 36.375
Q56.9844 17.9688 50.5156 8.26562
Q44.0469 -1.42188 31.7812 -1.42188
Q19.5312 -1.42188 13.0625 8.26562
Q6.59375 17.9688 6.59375 36.375
Q6.59375 54.8281 13.0625 64.5156
Q19.5312 74.2188 31.7812 74.2188" id="BitstreamVeraSans-Roman-30"/>
      </defs>
      <g transform="translate(38.10859375 256.1165625)scale(0.1 -0.1)">
       <use xlink:href="#BitstreamVeraSans-Roman-30"/>
      </g>
     </g>
    </g>
    <g id="xtick_2">
     <g id="line2d_7">
      <g>
       <use style="stroke:#000000;stroke-width:0.5;" x="86.4911386986" xlink:href="#mc7db9fdffb" y="244.518125"/>
      </g>
     </g>
     <g id="line2d_8">
      <g>
       <use style="stroke:#000000;stroke-width:0.5;" x="86.4911386986" xlink:href="#m5a7d422ac3" y="21.318125"/>
      </g>
     </g>
     <g id="text_2">
      <!-- 50 -->
      <defs>
       <path d="
M10.7969 72.9062
L49.5156 72.9062
L49.5156 64.5938
L19.8281 64.5938
L19.8281 46.7344
Q21.9688 47.4688 24.1094 47.8281
Q26.2656 48.1875 28.4219 48.1875
Q40.625 48.1875 47.75 41.5
Q54.8906 34.8125 54.8906 23.3906
Q54.8906 11.625 47.5625 5.09375
Q40.2344 -1.42188 26.9062 -1.42188
Q22.3125 -1.42188 17.5469 -0.640625
Q12.7969 0.140625 7.71875 1.70312
L7.71875 11.625
Q12.1094 9.23438 16.7969 8.0625
Q21.4844 6.89062 26.7031 6.89062
Q35.1562 6.89062 40.0781 11.3281
Q45.0156 15.7656 45.0156 23.3906
Q45.0156 31 40.0781 35.4375
Q35.1562 39.8906 26.7031 39.8906
Q22.75 39.8906 18.8125 39.0156
Q14.8906 38.1406 10.7969 36.2812
z
" id="BitstreamVeraSans-Roman-35"/>
      </defs>
      <g transform="translate(80.8466074486 256.1165625)scale(0.1 -0.1)">
       <use xlink:href="#BitstreamVeraSans-Roman-35"/>
       <use x="63.623046875" xlink:href="#BitstreamVeraSans-Roman-30"/>
      </g>
     </g>
    </g>
    <g id="xtick_3">
     <g id="line2d_9">
      <g>
       <use style="stroke:#000000;stroke-width:0.5;" x="132.354152397" xlink:href="#mc7db9fdffb" y="244.518125"/>
      </g>
     </g>
     <g id="line2d_10">
      <g>
       <use style="stroke:#000000;stroke-width:0.5;" x="132.354152397" xlink:href="#m5a7d422ac3" y="21.318125"/>
      </g>
     </g>
     <g id="text_3">
      <!-- 100 -->
      <defs>
       <path d="
M12.4062 8.29688
L28.5156 8.29688
L28.5156 63.9219
L10.9844 60.4062
L10.9844 69.3906
L28.4219 72.9062
L38.2812 72.9062
L38.2812 8.29688
L54.3906 8.29688
L54.3906 0
L12.4062 0
z
" id="BitstreamVeraSans-Roman-31"/>
      </defs>
      <g transform="translate(123.691652397 256.1165625)scale(0.1 -0.1)">
       <use xlink:href="#BitstreamVeraSans-Roman-31"/>
       <use x="63.623046875" xlink:href="#BitstreamVeraSans-Roman-30"/>
       <use x="127.24609375" xlink:href="#BitstreamVeraSans-Roman-30"/>
      </g>
     </g>
    </g>
    <g id="xtick_4">
     <g id="line2d_11">
      <g>
       <use style="stroke:#000000;stroke-width:0.5;" x="178.217166096" xlink:href="#mc7db9fdffb" y="244.518125"/>
      </g>
     </g>
     <g id="line2d_12">
      <g>
       <use style="stroke:#000000;stroke-width:0.5;" x="178.217166096" xlink:href="#m5a7d422ac3" y="21.318125"/>
      </g>
     </g>
     <g id="text_4">
      <!-- 150 -->
      <g transform="translate(169.554666096 256.1165625)scale(0.1 -0.1)">
       <use xlink:href="#BitstreamVeraSans-Roman-31"/>
       <use x="63.623046875" xlink:href="#BitstreamVeraSans-Roman-35"/>
       <use x="127.24609375" xlink:href="#BitstreamVeraSans-Roman-30"/>
      </g>
     </g>
    </g>
    <g id="xtick_5">
     <g id="line2d_13">
      <g>
       <use style="stroke:#000000;stroke-width:0.5;" x="224.080179795" xlink:href="#mc7db9fdffb" y="244.518125"/>
      </g>
     </g>
     <g id="line2d_14">
      <g>
       <use style="stroke:#000000;stroke-width:0.5;" x="224.080179795" xlink:href="#m5a7d422ac3" y="21.318125"/>
      </g>
     </g>
     <g id="text_5">
      <!-- 200 -->
      <defs>
       <path d="
M19.1875 8.29688
L53.6094 8.29688
L53.6094 0
L7.32812 0
L7.32812 8.29688
Q12.9375 14.1094 22.625 23.8906
Q32.3281 33.6875 34.8125 36.5312
Q39.5469 41.8438 41.4219 45.5312
Q43.3125 49.2188 43.3125 52.7812
Q43.3125 58.5938 39.2344 62.25
Q35.1562 65.9219 28.6094 65.9219
Q23.9688 65.9219 18.8125 64.3125
Q13.6719 62.7031 7.8125 59.4219
L7.8125 69.3906
Q13.7656 71.7812 18.9375 73
Q24.125 74.2188 28.4219 74.2188
Q39.75 74.2188 46.4844 68.5469
Q53.2188 62.8906 53.2188 53.4219
Q53.2188 48.9219 51.5312 44.8906
Q49.8594 40.875 45.4062 35.4062
Q44.1875 33.9844 37.6406 27.2188
Q31.1094 20.4531 19.1875 8.29688" id="BitstreamVeraSans-Roman-32"/>
      </defs>
      <g transform="translate(215.234867295 256.1165625)scale(0.1 -0.1)">
       <use xlink:href="#BitstreamVeraSans-Roman-32"/>
       <use x="63.623046875" xlink:href="#BitstreamVeraSans-Roman-30"/>
       <use x="127.24609375" xlink:href="#BitstreamVeraSans-Roman-30"/>
      </g>
     </g>
    </g>
    <g id="xtick_6">
     <g id="line2d_15">
      <g>
       <use style="stroke:#000000;stroke-width:0.5;" x="269.943193493" xlink:href="#mc7db9fdffb" y="244.518125"/>
      </g>
     </g>
     <g id="line2d_16">
      <g>
       <use style="stroke:#000000;stroke-width:0.5;" x="269.943193493" xlink:href="#m5a7d422ac3" y="21.318125"/>
      </g>
     </g>
     <g id="text_6">
      <!-- 250 -->
      <g transform="translate(261.097880993 256.1165625)scale(0.1 -0.1)">
       <use xlink:href="#BitstreamVeraSans-Roman-32"/>
       <use x="63.623046875" xlink:href="#BitstreamVeraSans-Roman-35"/>
       <use x="127.24609375" xlink:href="#BitstreamVeraSans-Roman-30"/>
      </g>
     </g>
    </g>
    <g id="xtick_7">
     <g id="line2d_17">
      <g>
       <use style="stroke:#000000;stroke-width:0.5;" x="315.806207192" xlink:href="#mc7db9fdffb" y="244.518125"/>
      </g>
     </g>
     <g id="line2d_18">
      <g>
       <use style="stroke:#000000;stroke-width:0.5;" x="315.806207192" xlink:href="#m5a7d422ac3" y="21.318125"/>
      </g>
     </g>
     <g id="text_7">
      <!-- 300 -->
      <defs>
       <path d="
M40.5781 39.3125
Q47.6562 37.7969 51.625 33
Q55.6094 28.2188 55.6094 21.1875
Q55.6094 10.4062 48.1875 4.48438
Q40.7656 -1.42188 27.0938 -1.42188
Q22.5156 -1.42188 17.6562 -0.515625
Q12.7969 0.390625 7.625 2.20312
L7.625 11.7188
Q11.7188 9.32812 16.5938 8.10938
Q21.4844 6.89062 26.8125 6.89062
Q36.0781 6.89062 40.9375 10.5469
Q45.7969 14.2031 45.7969 21.1875
Q45.7969 27.6406 41.2812 31.2656
Q36.7656 34.9062 28.7188 34.9062
L20.2188 34.9062
L20.2188 43.0156
L29.1094 43.0156
Q36.375 43.0156 40.2344 45.9219
Q44.0938 48.8281 44.0938 54.2969
Q44.0938 59.9062 40.1094 62.9062
Q36.1406 65.9219 28.7188 65.9219
Q24.6562 65.9219 20.0156 65.0312
Q15.375 64.1562 9.8125 62.3125
L9.8125 71.0938
Q15.4375 72.6562 20.3438 73.4375
Q25.25 74.2188 29.5938 74.2188
Q40.8281 74.2188 47.3594 69.1094
Q53.9062 64.0156 53.9062 55.3281
Q53.9062 49.2656 50.4375 45.0938
Q46.9688 40.9219 40.5781 39.3125" id="BitstreamVeraSans-Roman-33"/>
      </defs>
      <g transform="translate(306.975738442 256.1165625)scale(0.1 -0.1)">
       <use xlink:href="#BitstreamVeraSans-Roman-33"/>
       <use x="63.623046875" xlink:href="#BitstreamVeraSans-Roman-30"/>
       <use x="127.24609375" xlink:href="#BitstreamVeraSans-Roman-30"/>
      </g>
     </g>
    </g>
    <g id="xtick_8">
     <g id="line2d_19">
      <g>
       <use style="stroke:#000000;stroke-width:0.5;" x="361.66922089" xlink:href="#mc7db9fdffb" y="244.518125"/>
      </g>
     </g>
     <g id="line2d_20">
      <g>
       <use style="stroke:#000000;stroke-width:0.5;" x="361.66922089" xlink:href="#m5a7d422ac3" y="21.318125"/>
      </g>
     </g>
     <g id="text_8">
      <!-- 350 -->
      <g transform="translate(352.83875214 256.1165625)scale(0.1 -0.1)">
       <use xlink:href="#BitstreamVeraSans-Roman-33"/>
       <use x="63.623046875" xlink:href="#BitstreamVeraSans-Roman-35"/>
       <use x="127.24609375" xlink:href="#BitstreamVeraSans-Roman-30"/>
      </g>
     </g>
    </g>
    <g id="text_9">
     <!-- Julian day -->
     <defs>
      <path d="
M54.8906 33.0156
L54.8906 0
L45.9062 0
L45.9062 32.7188
Q45.9062 40.4844 42.875 44.3281
Q39.8438 48.1875 33.7969 48.1875
Q26.5156 48.1875 22.3125 43.5469
Q18.1094 38.9219 18.1094 30.9062
L18.1094 0
L9.07812 0
L9.07812 54.6875
L18.1094 54.6875
L18.1094 46.1875
Q21.3438 51.125 25.7031 53.5625
Q30.0781 56 35.7969 56
Q45.2188 56 50.0469 50.1719
Q54.8906 44.3438 54.8906 33.0156" id="BitstreamVeraSans-Roman-6e"/>
      <path d="
M8.5 21.5781
L8.5 54.6875
L17.4844 54.6875
L17.4844 21.9219
Q17.4844 14.1562 20.5 10.2656
Q23.5312 6.39062 29.5938 6.39062
Q36.8594 6.39062 41.0781 11.0312
Q45.3125 15.6719 45.3125 23.6875
L45.3125 54.6875
L54.2969 54.6875
L54.2969 0
L45.3125 0
L45.3125 8.40625
Q42.0469 3.42188 37.7188 1
Q33.4062 -1.42188 27.6875 -1.42188
Q18.2656 -1.42188 13.375 4.4375
Q8.5 10.2969 8.5 21.5781" id="BitstreamVeraSans-Roman-75"/>
      <path d="
M9.8125 72.9062
L19.6719 72.9062
L19.6719 5.07812
Q19.6719 -8.10938 14.6719 -14.0625
Q9.67188 -20.0156 -1.42188 -20.0156
L-5.17188 -20.0156
L-5.17188 -11.7188
L-2.09375 -11.7188
Q4.4375 -11.7188 7.125 -8.04688
Q9.8125 -4.39062 9.8125 5.07812
z
" id="BitstreamVeraSans-Roman-4a"/>
      <path d="
M45.4062 46.3906
L45.4062 75.9844
L54.3906 75.9844
L54.3906 0
L45.4062 0
L45.4062 8.20312
Q42.5781 3.32812 38.25 0.953125
Q33.9375 -1.42188 27.875 -1.42188
Q17.9688 -1.42188 11.7344 6.48438
Q5.51562 14.4062 5.51562 27.2969
Q5.51562 40.1875 11.7344 48.0938
Q17.9688 56 27.875 56
Q33.9375 56 38.25 53.625
Q42.5781 51.2656 45.4062 46.3906
M14.7969 27.2969
Q14.7969 17.3906 18.875 11.75
Q22.9531 6.10938 30.0781 6.10938
Q37.2031 6.10938 41.2969 11.75
Q45.4062 17.3906 45.4062 27.2969
Q45.4062 37.2031 41.2969 42.8438
Q37.2031 48.4844 30.0781 48.4844
Q22.9531 48.4844 18.875 42.8438
Q14.7969 37.2031 14.7969 27.2969" id="BitstreamVeraSans-Roman-64"/>
      <path d="
M9.42188 75.9844
L18.4062 75.9844
L18.4062 0
L9.42188 0
z
" id="BitstreamVeraSans-Roman-6c"/>
      <path d="
M32.1719 -5.07812
Q28.375 -14.8438 24.75 -17.8125
Q21.1406 -20.7969 15.0938 -20.7969
L7.90625 -20.7969
L7.90625 -13.2812
L13.1875 -13.2812
Q16.8906 -13.2812 18.9375 -11.5156
Q21 -9.76562 23.4844 -3.21875
L25.0938 0.875
L2.98438 54.6875
L12.5 54.6875
L29.5938 11.9219
L46.6875 54.6875
L56.2031 54.6875
z
" id="BitstreamVeraSans-Roman-79"/>
      <path d="
M34.2812 27.4844
Q23.3906 27.4844 19.1875 25
Q14.9844 22.5156 14.9844 16.5
Q14.9844 11.7188 18.1406 8.90625
Q21.2969 6.10938 26.7031 6.10938
Q34.1875 6.10938 38.7031 11.4062
Q43.2188 16.7031 43.2188 25.4844
L43.2188 27.4844
z

M52.2031 31.2031
L52.2031 0
L43.2188 0
L43.2188 8.29688
Q40.1406 3.32812 35.5469 0.953125
Q30.9531 -1.42188 24.3125 -1.42188
Q15.9219 -1.42188 10.9531 3.29688
Q6 8.01562 6 15.9219
Q6 25.1406 12.1719 29.8281
Q18.3594 34.5156 30.6094 34.5156
L43.2188 34.5156
L43.2188 35.4062
Q43.2188 41.6094 39.1406 45
Q35.0625 48.3906 27.6875 48.3906
Q23 48.3906 18.5469 47.2656
Q14.1094 46.1406 10.0156 43.8906
L10.0156 52.2031
Q14.9375 54.1094 19.5781 55.0469
Q24.2188 56 28.6094 56
Q40.4844 56 46.3438 49.8438
Q52.2031 43.7031 52.2031 31.2031" id="BitstreamVeraSans-Roman-61"/>
      <path d="
M9.42188 54.6875
L18.4062 54.6875
L18.4062 0
L9.42188 0
z

M9.42188 75.9844
L18.4062 75.9844
L18.4062 64.5938
L9.42188 64.5938
z
" id="BitstreamVeraSans-Roman-69"/>
      <path id="BitstreamVeraSans-Roman-20"/>
     </defs>
     <g transform="translate(183.47734375 270.7946875)scale(0.1 -0.1)">
      <use xlink:href="#BitstreamVeraSans-Roman-4a"/>
      <use x="29.4921875" xlink:href="#BitstreamVeraSans-Roman-75"/>
      <use x="92.87109375" xlink:href="#BitstreamVeraSans-Roman-6c"/>
      <use x="120.654296875" xlink:href="#BitstreamVeraSans-Roman-69"/>
      <use x="148.4375" xlink:href="#BitstreamVeraSans-Roman-61"/>
      <use x="209.716796875" xlink:href="#BitstreamVeraSans-Roman-6e"/>
      <use x="273.095703125" xlink:href="#BitstreamVeraSans-Roman-20"/>
      <use x="304.8828125" xlink:href="#BitstreamVeraSans-Roman-64"/>
      <use x="368.359375" xlink:href="#BitstreamVeraSans-Roman-61"/>
      <use x="429.638671875" xlink:href="#BitstreamVeraSans-Roman-79"/>
     </g>
    </g>
   </g>
   <g id="matplotlib.axis_2">
    <g id="ytick_1">
     <g id="line2d_21">
      <defs>
       <path d="
M0 0
L4 0" id="md7965d1ba0" style="stroke:#000000;stroke-width:0.5;"/>
      </defs>
      <g>
       <use style="stroke:#000000;stroke-width:0.5;" x="40.628125" xlink:href="#md7965d1ba0" y="244.518125"/>
      </g>
     </g>
     <g id="line2d_22">
      <defs>
       <path d="
M0 0
L-4 0" id="md9a1c1a7cd" style="stroke:#000000;stroke-width:0.5;"/>
      </defs>
      <g>
       <use style="stroke:#000000;stroke-width:0.5;" x="375.428125" xlink:href="#md9a1c1a7cd" y="244.518125"/>
      </g>
     </g>
     <g id="text_10">
      <!-- 0.0 -->
      <defs>
       <path d="
M10.6875 12.4062
L21 12.4062
L21 0
L10.6875 0
z
" id="BitstreamVeraSans-Roman-2e"/>
      </defs>
      <g transform="translate(22.0484375 247.2775)scale(0.1 -0.1)">
       <use xlink:href="#BitstreamVeraSans-Roman-30"/>
       <use x="63.623046875" xlink:href="#BitstreamVeraSans-Roman-2e"/>
       <use x="95.41015625" xlink:href="#BitstreamVeraSans-Roman-30"/>
      </g>
     </g>
    </g>
    <g id="ytick_2">
     <g id="line2d_23">
      <g>
       <use style="stroke:#000000;stroke-width:0.5;" x="40.628125" xlink:href="#md7965d1ba0" y="216.618125"/>
      </g>
     </g>
     <g id="line2d_24">
      <g>
       <use style="stroke:#000000;stroke-width:0.5;" x="375.428125" xlink:href="#md9a1c1a7cd" y="216.618125"/>
      </g>
     </g>
     <g id="text_11">
      <!-- 0.5 -->
      <g transform="translate(22.2578125 219.3775)scale(0.1 -0.1)">
       <use xlink:href="#BitstreamVeraSans-Roman-30"/>
       <use x="63.623046875" xlink:href="#BitstreamVeraSans-Roman-2e"/>
       <use x="95.41015625" xlink:href="#BitstreamVeraSans-Roman-35"/>
      </g>
     </g>
    </g>
    <g id="ytick_3">
     <g id="line2d_25">
      <g>
       <use style="stroke:#000000;stroke-width:0.5;" x="40.628125" xlink:href="#md7965d1ba0" y="188.718125"/>
      </g>
     </g>
     <g id="line2d_26">
      <g>
       <use style="stroke:#000000;stroke-width:0.5;" x="375.428125" xlink:href="#md9a1c1a7cd" y="188.718125"/>
      </g>
     </g>
     <g id="text_12">
      <!-- 1.0 -->
      <g transform="translate(22.4875 191.4775)scale(0.1 -0.1)">
       <use xlink:href="#BitstreamVeraSans-Roman-31"/>
       <use x="63.623046875" xlink:href="#BitstreamVeraSans-Roman-2e"/>
       <use x="95.41015625" xlink:href="#BitstreamVeraSans-Roman-30"/>
      </g>
     </g>
    </g>
    <g id="ytick_4">
     <g id="line2d_27">
      <g>
       <use style="stroke:#000000;stroke-width:0.5;" x="40.628125" xlink:href="#md7965d1ba0" y="160.818125"/>
      </g>
     </g>
     <g id="line2d_28">
      <g>
       <use style="stroke:#000000;stroke-width:0.5;" x="375.428125" xlink:href="#md9a1c1a7cd" y="160.818125"/>
      </g>
     </g>
     <g id="text_13">
      <!-- 1.5 -->
      <g transform="translate(22.696875 163.5775)scale(0.1 -0.1)">
       <use xlink:href="#BitstreamVeraSans-Roman-31"/>
       <use x="63.623046875" xlink:href="#BitstreamVeraSans-Roman-2e"/>
       <use x="95.41015625" xlink:href="#BitstreamVeraSans-Roman-35"/>
      </g>
     </g>
    </g>
    <g id="ytick_5">
     <g id="line2d_29">
      <g>
       <use style="stroke:#000000;stroke-width:0.5;" x="40.628125" xlink:href="#md7965d1ba0" y="132.918125"/>
      </g>
     </g>
     <g id="line2d_30">
      <g>
       <use style="stroke:#000000;stroke-width:0.5;" x="375.428125" xlink:href="#md9a1c1a7cd" y="132.918125"/>
      </g>
     </g>
     <g id="text_14">
      <!-- 2.0 -->
      <g transform="translate(22.121875 135.6775)scale(0.1 -0.1)">
       <use xlink:href="#BitstreamVeraSans-Roman-32"/>
       <use x="63.623046875" xlink:href="#BitstreamVeraSans-Roman-2e"/>
       <use x="95.41015625" xlink:href="#BitstreamVeraSans-Roman-30"/>
      </g>
     </g>
    </g>
    <g id="ytick_6">
     <g id="line2d_31">
      <g>
       <use style="stroke:#000000;stroke-width:0.5;" x="40.628125" xlink:href="#md7965d1ba0" y="105.018125"/>
      </g>
     </g>
     <g id="line2d_32">
      <g>
       <use style="stroke:#000000;stroke-width:0.5;" x="375.428125" xlink:href="#md9a1c1a7cd" y="105.018125"/>
      </g>
     </g>
     <g id="text_15">
      <!-- 2.5 -->
      <g transform="translate(22.33125 107.7775)scale(0.1 -0.1)">
       <use xlink:href="#BitstreamVeraSans-Roman-32"/>
       <use x="63.623046875" xlink:href="#BitstreamVeraSans-Roman-2e"/>
       <use x="95.41015625" xlink:href="#BitstreamVeraSans-Roman-35"/>
      </g>
     </g>
    </g>
    <g id="ytick_7">
     <g id="line2d_33">
      <g>
       <use style="stroke:#000000;stroke-width:0.5;" x="40.628125" xlink:href="#md7965d1ba0" y="77.118125"/>
      </g>
     </g>
     <g id="line2d_34">
      <g>
       <use style="stroke:#000000;stroke-width:0.5;" x="375.428125" xlink:href="#md9a1c1a7cd" y="77.118125"/>
      </g>
     </g>
     <g id="text_16">
      <!-- 3.0 -->
      <g transform="translate(22.1515625 79.8775)scale(0.1 -0.1)">
       <use xlink:href="#BitstreamVeraSans-Roman-33"/>
       <use x="63.623046875" xlink:href="#BitstreamVeraSans-Roman-2e"/>
       <use x="95.41015625" xlink:href="#BitstreamVeraSans-Roman-30"/>
      </g>
     </g>
    </g>
    <g id="ytick_8">
     <g id="line2d_35">
      <g>
       <use style="stroke:#000000;stroke-width:0.5;" x="40.628125" xlink:href="#md7965d1ba0" y="49.218125"/>
      </g>
     </g>
     <g id="line2d_36">
      <g>
       <use style="stroke:#000000;stroke-width:0.5;" x="375.428125" xlink:href="#md9a1c1a7cd" y="49.218125"/>
      </g>
     </g>
     <g id="text_17">
      <!-- 3.5 -->
      <g transform="translate(22.3609375 51.9775)scale(0.1 -0.1)">
       <use xlink:href="#BitstreamVeraSans-Roman-33"/>
       <use x="63.623046875" xlink:href="#BitstreamVeraSans-Roman-2e"/>
       <use x="95.41015625" xlink:href="#BitstreamVeraSans-Roman-35"/>
      </g>
     </g>
    </g>
    <g id="ytick_9">
     <g id="line2d_37">
      <g>
       <use style="stroke:#000000;stroke-width:0.5;" x="40.628125" xlink:href="#md7965d1ba0" y="21.318125"/>
      </g>
     </g>
     <g id="line2d_38">
      <g>
       <use style="stroke:#000000;stroke-width:0.5;" x="375.428125" xlink:href="#md9a1c1a7cd" y="21.318125"/>
      </g>
     </g>
     <g id="text_18">
      <!-- 4.0 -->
      <defs>
       <path d="
M37.7969 64.3125
L12.8906 25.3906
L37.7969 25.3906
z

M35.2031 72.9062
L47.6094 72.9062
L47.6094 25.3906
L58.0156 25.3906
L58.0156 17.1875
L47.6094 17.1875
L47.6094 0
L37.7969 0
L37.7969 17.1875
L4.89062 17.1875
L4.89062 26.7031
z
" id="BitstreamVeraSans-Roman-34"/>
      </defs>
      <g transform="translate(21.878125 24.0775)scale(0.1 -0.1)">
       <use xlink:href="#BitstreamVeraSans-Roman-34"/>
       <use x="63.623046875" xlink:href="#BitstreamVeraSans-Roman-2e"/>
       <use x="95.41015625" xlink:href="#BitstreamVeraSans-Roman-30"/>
      </g>
     </g>
    </g>
    <g id="text_19">
     <!-- PET (mm/day) -->
     <defs>
      <path d="
M-0.296875 72.9062
L61.375 72.9062
L61.375 64.5938
L35.5 64.5938
L35.5 0
L25.5938 0
L25.5938 64.5938
L-0.296875 64.5938
z
" id="BitstreamVeraSans-Roman-54"/>
      <path d="
M9.8125 72.9062
L55.9062 72.9062
L55.9062 64.5938
L19.6719 64.5938
L19.6719 43.0156
L54.3906 43.0156
L54.3906 34.7188
L19.6719 34.7188
L19.6719 8.29688
L56.7812 8.29688
L56.7812 0
L9.8125 0
z
" id="BitstreamVeraSans-Roman-45"/>
      <path d="
M25.3906 72.9062
L33.6875 72.9062
L8.29688 -9.28125
L0 -9.28125
z
" id="BitstreamVeraSans-Roman-2f"/>
      <path d="
M19.6719 64.7969
L19.6719 37.4062
L32.0781 37.4062
Q38.9688 37.4062 42.7188 40.9688
Q46.4844 44.5312 46.4844 51.125
Q46.4844 57.6719 42.7188 61.2344
Q38.9688 64.7969 32.0781 64.7969
z

M9.8125 72.9062
L32.0781 72.9062
Q44.3438 72.9062 50.6094 67.3594
Q56.8906 61.8125 56.8906 51.125
Q56.8906 40.3281 50.6094 34.8125
Q44.3438 29.2969 32.0781 29.2969
L19.6719 29.2969
L19.6719 0
L9.8125 0
z
" id="BitstreamVeraSans-Roman-50"/>
      <path d="
M31 75.875
Q24.4688 64.6562 21.2812 53.6562
Q18.1094 42.6719 18.1094 31.3906
Q18.1094 20.125 21.3125 9.0625
Q24.5156 -2 31 -13.1875
L23.1875 -13.1875
Q15.875 -1.70312 12.2344 9.375
Q8.59375 20.4531 8.59375 31.3906
Q8.59375 42.2812 12.2031 53.3125
Q15.8281 64.3594 23.1875 75.875
z
" id="BitstreamVeraSans-Roman-28"/>
      <path d="
M52 44.1875
Q55.375 50.25 60.0625 53.125
Q64.75 56 71.0938 56
Q79.6406 56 84.2812 50.0156
Q88.9219 44.0469 88.9219 33.0156
L88.9219 0
L79.8906 0
L79.8906 32.7188
Q79.8906 40.5781 77.0938 44.375
Q74.3125 48.1875 68.6094 48.1875
Q61.625 48.1875 57.5625 43.5469
Q53.5156 38.9219 53.5156 30.9062
L53.5156 0
L44.4844 0
L44.4844 32.7188
Q44.4844 40.625 41.7031 44.4062
Q38.9219 48.1875 33.1094 48.1875
Q26.2188 48.1875 22.1562 43.5312
Q18.1094 38.875 18.1094 30.9062
L18.1094 0
L9.07812 0
L9.07812 54.6875
L18.1094 54.6875
L18.1094 46.1875
Q21.1875 51.2188 25.4844 53.6094
Q29.7812 56 35.6875 56
Q41.6562 56 45.8281 52.9688
Q50 49.9531 52 44.1875" id="BitstreamVeraSans-Roman-6d"/>
      <path d="
M8.01562 75.875
L15.8281 75.875
Q23.1406 64.3594 26.7812 53.3125
Q30.4219 42.2812 30.4219 31.3906
Q30.4219 20.4531 26.7812 9.375
Q23.1406 -1.70312 15.8281 -13.1875
L8.01562 -13.1875
Q14.5 -2 17.7031 9.0625
Q20.9062 20.125 20.9062 31.3906
Q20.9062 42.6719 17.7031 53.6562
Q14.5 64.6562 8.01562 75.875" id="BitstreamVeraSans-Roman-29"/>
     </defs>
     <g transform="translate(14.7984375 167.82984375)rotate(-90.0)scale(0.1 -0.1)">
      <use xlink:href="#BitstreamVeraSans-Roman-50"/>
      <use x="60.302734375" xlink:href="#BitstreamVeraSans-Roman-45"/>
      <use x="123.486328125" xlink:href="#BitstreamVeraSans-Roman-54"/>
      <use x="184.5703125" xlink:href="#BitstreamVeraSans-Roman-20"/>
      <use x="216.357421875" xlink:href="#BitstreamVeraSans-Roman-28"/>
      <use x="255.37109375" xlink:href="#BitstreamVeraSans-Roman-6d"/>
      <use x="352.783203125" xlink:href="#BitstreamVeraSans-Roman-6d"/>
      <use x="450.1953125" xlink:href="#BitstreamVeraSans-Roman-2f"/>
      <use x="483.88671875" xlink:href="#BitstreamVeraSans-Roman-64"/>
      <use x="547.36328125" xlink:href="#BitstreamVeraSans-Roman-61"/>
      <use x="608.642578125" xlink:href="#BitstreamVeraSans-Roman-79"/>
      <use x="667.822265625" xlink:href="#BitstreamVeraSans-Roman-29"/>
     </g>
    </g>
   </g>
   <g id="text_20">
    <!-- daily tree PET at SCR -->
    <defs>
     <path d="
M18.3125 70.2188
L18.3125 54.6875
L36.8125 54.6875
L36.8125 47.7031
L18.3125 47.7031
L18.3125 18.0156
Q18.3125 11.3281 20.1406 9.42188
Q21.9688 7.51562 27.5938 7.51562
L36.8125 7.51562
L36.8125 0
L27.5938 0
Q17.1875 0 13.2344 3.875
Q9.28125 7.76562 9.28125 18.0156
L9.28125 47.7031
L2.6875 47.7031
L2.6875 54.6875
L9.28125 54.6875
L9.28125 70.2188
z
" id="BitstreamVeraSans-Roman-74"/>
     <path d="
M56.2031 29.5938
L56.2031 25.2031
L14.8906 25.2031
Q15.4844 15.9219 20.4844 11.0625
Q25.4844 6.20312 34.4219 6.20312
Q39.5938 6.20312 44.4531 7.46875
Q49.3125 8.73438 54.1094 11.2812
L54.1094 2.78125
Q49.2656 0.734375 44.1875 -0.34375
Q39.1094 -1.42188 33.8906 -1.42188
Q20.7969 -1.42188 13.1562 6.1875
Q5.51562 13.8125 5.51562 26.8125
Q5.51562 40.2344 12.7656 48.1094
Q20.0156 56 32.3281 56
Q43.3594 56 49.7812 48.8906
Q56.2031 41.7969 56.2031 29.5938
M47.2188 32.2344
Q47.125 39.5938 43.0938 43.9844
Q39.0625 48.3906 32.4219 48.3906
Q24.9062 48.3906 20.3906 44.1406
Q15.875 39.8906 15.1875 32.1719
z
" id="BitstreamVeraSans-Roman-65"/>
     <path d="
M53.5156 70.5156
L53.5156 60.8906
Q47.9062 63.5781 42.9219 64.8906
Q37.9375 66.2188 33.2969 66.2188
Q25.25 66.2188 20.875 63.0938
Q16.5 59.9688 16.5 54.2031
Q16.5 49.3594 19.4062 46.8906
Q22.3125 44.4375 30.4219 42.9219
L36.375 41.7031
Q47.4062 39.5938 52.6562 34.2969
Q57.9062 29 57.9062 20.125
Q57.9062 9.51562 50.7969 4.04688
Q43.7031 -1.42188 29.9844 -1.42188
Q24.8125 -1.42188 18.9688 -0.25
Q13.1406 0.921875 6.89062 3.21875
L6.89062 13.375
Q12.8906 10.0156 18.6562 8.29688
Q24.4219 6.59375 29.9844 6.59375
Q38.4219 6.59375 43.0156 9.90625
Q47.6094 13.2344 47.6094 19.3906
Q47.6094 24.75 44.3125 27.7812
Q41.0156 30.8125 33.5 32.3281
L27.4844 33.5
Q16.4531 35.6875 11.5156 40.375
Q6.59375 45.0625 6.59375 53.4219
Q6.59375 63.0938 13.4062 68.6562
Q20.2188 74.2188 32.1719 74.2188
Q37.3125 74.2188 42.625 73.2812
Q47.9531 72.3594 53.5156 70.5156" id="BitstreamVeraSans-Roman-53"/>
     <path d="
M41.1094 46.2969
Q39.5938 47.1719 37.8125 47.5781
Q36.0312 48 33.8906 48
Q26.2656 48 22.1875 43.0469
Q18.1094 38.0938 18.1094 28.8125
L18.1094 0
L9.07812 0
L9.07812 54.6875
L18.1094 54.6875
L18.1094 46.1875
Q20.9531 51.1719 25.4844 53.5781
Q30.0312 56 36.5312 56
Q37.4531 56 38.5781 55.875
Q39.7031 55.7656 41.0625 55.5156
z
" id="BitstreamVeraSans-Roman-72"/>
     <path d="
M44.3906 34.1875
Q47.5625 33.1094 50.5625 29.5938
Q53.5625 26.0781 56.5938 19.9219
L66.6094 0
L56 0
L46.6875 18.7031
Q43.0625 26.0312 39.6719 28.4219
Q36.2812 30.8125 30.4219 30.8125
L19.6719 30.8125
L19.6719 0
L9.8125 0
L9.8125 72.9062
L32.0781 72.9062
Q44.5781 72.9062 50.7344 67.6719
Q56.8906 62.4531 56.8906 51.9062
Q56.8906 45.0156 53.6875 40.4688
Q50.4844 35.9375 44.3906 34.1875
M19.6719 64.7969
L19.6719 38.9219
L32.0781 38.9219
Q39.2031 38.9219 42.8438 42.2188
Q46.4844 45.5156 46.4844 51.9062
Q46.4844 58.2969 42.8438 61.5469
Q39.2031 64.7969 32.0781 64.7969
z
" id="BitstreamVeraSans-Roman-52"/>
     <path d="
M64.4062 67.2812
L64.4062 56.8906
Q59.4219 61.5312 53.7812 63.8125
Q48.1406 66.1094 41.7969 66.1094
Q29.2969 66.1094 22.6562 58.4688
Q16.0156 50.8281 16.0156 36.375
Q16.0156 21.9688 22.6562 14.3281
Q29.2969 6.6875 41.7969 6.6875
Q48.1406 6.6875 53.7812 8.98438
Q59.4219 11.2812 64.4062 15.9219
L64.4062 5.60938
Q59.2344 2.09375 53.4375 0.328125
Q47.6562 -1.42188 41.2188 -1.42188
Q24.6562 -1.42188 15.125 8.70312
Q5.60938 18.8438 5.60938 36.375
Q5.60938 53.9531 15.125 64.0781
Q24.6562 74.2188 41.2188 74.2188
Q47.75 74.2188 53.5312 72.4844
Q59.3281 70.75 64.4062 67.2812" id="BitstreamVeraSans-Roman-43"/>
    </defs>
    <g transform="translate(144.8640625 16.318125)scale(0.12 -0.12)">
     <use xlink:href="#BitstreamVeraSans-Roman-64"/>
     <use x="63.4765625" xlink:href="#BitstreamVeraSans-Roman-61"/>
     <use x="124.755859375" xlink:href="#BitstreamVeraSans-Roman-69"/>
     <use x="152.5390625" xlink:href="#BitstreamVeraSans-Roman-6c"/>
     <use x="180.322265625" xlink:href="#BitstreamVeraSans-Roman-79"/>
     <use x="239.501953125" xlink:href="#BitstreamVeraSans-Roman-20"/>
     <use x="271.2890625" xlink:href="#BitstreamVeraSans-Roman-74"/>
     <use x="310.498046875" xlink:href="#BitstreamVeraSans-Roman-72"/>
     <use x="349.361328125" xlink:href="#BitstreamVeraSans-Roman-65"/>
     <use x="410.884765625" xlink:href="#BitstreamVeraSans-Roman-65"/>
     <use x="472.408203125" xlink:href="#BitstreamVeraSans-Roman-20"/>
     <use x="504.1953125" xlink:href="#BitstreamVeraSans-Roman-50"/>
     <use x="564.498046875" xlink:href="#BitstreamVeraSans-Roman-45"/>
     <use x="627.681640625" xlink:href="#BitstreamVeraSans-Roman-54"/>
     <use x="688.765625" xlink:href="#BitstreamVeraSans-Roman-20"/>
     <use x="720.552734375" xlink:href="#BitstreamVeraSans-Roman-61"/>
     <use x="781.83203125" xlink:href="#BitstreamVeraSans-Roman-74"/>
     <use x="821.041015625" xlink:href="#BitstreamVeraSans-Roman-20"/>
     <use x="852.828125" xlink:href="#BitstreamVeraSans-Roman-53"/>
     <use x="916.3046875" xlink:href="#BitstreamVeraSans-Roman-43"/>
     <use x="986.12890625" xlink:href="#BitstreamVeraSans-Roman-52"/>
    </g>
   </g>
   <g id="legend_1">
    <g id="patch_7">
     <path d="
M297.364 101.373
L369.428 101.373
L369.428 27.3181
L297.364 27.3181
z
" style="fill:#ffffff;stroke:#000000;stroke-linejoin:miter;"/>
    </g>
    <g id="line2d_39">
     <path d="
M305.764 37.0363
L322.564 37.0363" style="fill:none;stroke:#0000ff;stroke-linecap:square;"/>
    </g>
    <g id="line2d_40"/>
    <g id="text_21">
     <!-- 2010 -->
     <g transform="translate(335.764375 41.23625)scale(0.12 -0.12)">
      <use xlink:href="#BitstreamVeraSans-Roman-32"/>
      <use x="63.623046875" xlink:href="#BitstreamVeraSans-Roman-30"/>
      <use x="127.24609375" xlink:href="#BitstreamVeraSans-Roman-31"/>
      <use x="190.869140625" xlink:href="#BitstreamVeraSans-Roman-30"/>
     </g>
    </g>
    <g id="line2d_41">
     <path d="
M305.764 54.65
L322.564 54.65" style="fill:none;stroke:#008000;stroke-linecap:square;"/>
    </g>
    <g id="line2d_42"/>
    <g id="text_22">
     <!-- 2011 -->
     <g transform="translate(335.764375 58.85)scale(0.12 -0.12)">
      <use xlink:href="#BitstreamVeraSans-Roman-32"/>
      <use x="63.623046875" xlink:href="#BitstreamVeraSans-Roman-30"/>
      <use x="127.24609375" xlink:href="#BitstreamVeraSans-Roman-31"/>
      <use x="190.869140625" xlink:href="#BitstreamVeraSans-Roman-31"/>
     </g>
    </g>
    <g id="line2d_43">
     <path d="
M305.764 72.2638
L322.564 72.2638" style="fill:none;stroke:#ff0000;stroke-linecap:square;"/>
    </g>
    <g id="line2d_44"/>
    <g id="text_23">
     <!-- 2012 -->
     <g transform="translate(335.764375 76.46375)scale(0.12 -0.12)">
      <use xlink:href="#BitstreamVeraSans-Roman-32"/>
      <use x="63.623046875" xlink:href="#BitstreamVeraSans-Roman-30"/>
      <use x="127.24609375" xlink:href="#BitstreamVeraSans-Roman-31"/>
      <use x="190.869140625" xlink:href="#BitstreamVeraSans-Roman-32"/>
     </g>
    </g>
    <g id="line2d_45">
     <path d="
M305.764 89.8775
L322.564 89.8775" style="fill:none;stroke:#00bfbf;stroke-linecap:square;"/>
    </g>
    <g id="line2d_46"/>
    <g id="text_24">
     <!-- 2013 -->
     <g transform="translate(335.764375 94.0775)scale(0.12 -0.12)">
      <use xlink:href="#BitstreamVeraSans-Roman-32"/>
      <use x="63.623046875" xlink:href="#BitstreamVeraSans-Roman-30"/>
      <use x="127.24609375" xlink:href="#BitstreamVeraSans-Roman-31"/>
      <use x="190.869140625" xlink:href="#BitstreamVeraSans-Roman-33"/>
     </g>
    </g>
   </g>
  </g>
 </g>
 <defs>
  <clipPath id="p2d16512a00">
   <rect height="223.2" width="334.8" x="40.628125" y="21.318125"/>
  </clipPath>
 </defs>
</svg>
