<?xml version="1.0" encoding="utf-8" standalone="no"?>
<!DOCTYPE svg PUBLIC "-//W3C//DTD SVG 1.1//EN"
  "http://www.w3.org/Graphics/SVG/1.1/DTD/svg11.dtd">
<!-- Created with matplotlib (http://matplotlib.org/) -->
<svg height="280pt" version="1.1" viewBox="0 0 373 280" width="373pt" xmlns="http://www.w3.org/2000/svg" xmlns:xlink="http://www.w3.org/1999/xlink">
 <defs>
  <style type="text/css">
*{stroke-linecap:butt;stroke-linejoin:round;}
  </style>
 </defs>
 <g id="figure_1">
  <g id="patch_1">
   <path d="
M0 280.074
L373.191 280.074
L373.191 0
L0 0
z
" style="fill:#ffffff;"/>
  </g>
  <g id="axes_1">
   <g id="patch_2">
    <path d="
M31.1906 244.518
L365.991 244.518
L365.991 21.3181
L31.1906 21.3181
z
" style="fill:#ffffff;"/>
   </g>
   <g id="line2d_1">
    <path clip-path="url(#pc1a11fcac8)" d="
M0 0" style="fill:none;stroke:#0000ff;stroke-linecap:square;"/>
   </g>
   <g id="line2d_2">
    <path clip-path="url(#pc1a11fcac8)" d="
M31.1906 208.382
L32.1079 187.388
L33.0251 224.456
L33.9424 226.72
L34.8597 192.013
L35.7769 193.891
L36.6942 208.584
L37.6114 218.453
L38.5287 229.711
L39.446 228.806
L40.3632 227.59
M49.5358 223.99
L50.4531 224.037
L51.3704 185.789
L52.2876 216.545
L53.2049 191.869
L54.1221 216.636
L55.0394 230.221
L55.9567 226.829
L56.8739 219.43
L57.7912 226.569
L58.7084 209.574
L59.6257 186.254
L60.543 170.433
L61.4602 176.062
L62.3775 205.186
L63.2947 214.427
L64.212 197.944
L65.1293 224.053
L66.0465 214.976
L66.9638 234.47
L67.881 191.365
L68.7983 177.271
L69.7156 166.231
L70.6328 158.39
L71.5501 164.873
L72.4673 166.374
L73.3846 195.296
L74.3019 213.061
L75.2191 222.735
L76.1364 209.864
L77.0536 240.942
L77.9709 234.926
L78.8882 212.731
L79.8054 200.734
L80.7227 197.801
L81.6399 188.21
L82.5572 198.988
L83.4745 200.505
L84.3917 179.148
L85.309 171.647
L86.2262 197.869
L87.1435 210.815
L88.0608 214.388
L88.978 199.319
L89.8953 208.238
L90.8125 207.513
L91.7298 203.926
L92.6471 204.142
L93.5643 208.372
L94.4816 222.145
L95.3988 218.573
L96.3161 206.006
L97.2334 208.387
L98.1506 197.362
L99.0679 241.677
L99.9851 230.257
L100.902 191.082
L101.82 216.305
L102.737 199.219
L103.654 217.939
L104.571 218.667
L105.489 201.292
L106.406 215.083
L107.323 208.654
L108.24 222.028
L109.158 220.69
L110.075 222.213
L110.992 213.086
L111.91 209.888
L112.827 194.163
L113.744 191.93
L114.661 200.236
L115.579 211.361
L116.496 160.859
L117.413 194.602
L118.33 185.44
L119.248 203.186
L120.165 185.126
L121.082 196.736
L121.999 161.013
L122.917 171.454
L123.834 144.343
L124.751 179.468
L125.668 131.203
L126.586 160.501
L127.503 167.798
L128.42 142.157
L129.337 144.322
L130.255 56.0238
L131.172 145.14
L132.089 218.546
L133.007 116.017
L133.924 65.6006
L134.841 145.41
L135.758 166.869
L136.676 120.947
L137.593 91.9441
L138.51 186.764
L139.427 116.859
L140.345 111.997
L141.262 78.8721
L142.179 132.974
L143.096 92.4165
L144.014 89.2167
L144.931 108.103
L145.848 170.86
L146.765 148.631
L147.683 159.826
L149.517 102.506
L150.434 126.392
L151.352 113.884
L152.269 116.393
L154.104 186.072
L155.021 220.096
L155.938 155.111
L156.855 152.268
L157.773 84.2446
L158.69 107.926
L159.607 139.415
L160.524 127.222
L161.442 170.033
L162.359 166.808
L163.276 136.164
L164.193 117.085
L165.111 173.052
L166.945 189.36
L167.862 142.786
L168.78 128.799
L169.697 139.348
L170.614 177.711
L171.531 123.168
L172.449 106.486
L173.366 127.64
L174.283 178.512
L175.2 180.229
L176.118 99.6698
L177.035 136.002
L177.952 140.495
L178.87 140.652
L179.787 123.82
L180.704 152.593
L181.621 94.6748
L182.539 82.5197
L183.456 103.082
L184.373 88.5879
L185.29 174.498
L186.208 148.966
L187.125 109.744
L188.042 116.06
L188.959 127.246
L189.877 122.824
L190.794 102.715
L191.711 104.341
L192.628 99.4161
L193.546 107.005
L195.38 149.008
L196.297 118.181
L197.215 103.295
L198.132 117.48
L199.049 124.652
L199.967 129.532
L200.884 135.099
L201.801 128.293
L202.718 167.322
L203.636 115.195
L204.553 107.005
L205.47 127.302
L206.387 133.913
L207.305 132.123
L208.222 142.462
L209.139 131.026
L210.056 125.18
L210.974 137.854
L211.891 124.534
L212.808 128.812
L214.643 118.671
L215.56 120.349
L216.477 123.223
L217.394 121.185
L218.312 139.767
L219.229 131.967
L220.146 132.756
L221.064 125.271
L221.981 124.464
L222.898 133.175
L224.733 170.601
L225.65 149.115
L226.567 144.032
L227.484 143.725
L228.402 170.097
L229.319 137.66
L230.236 140.615
L231.153 143.005
L232.071 140.097
L232.988 134.67
L233.905 134.787
L234.822 127.711
L235.74 134.08
L236.657 147.828
L237.574 144.079
L238.491 126.498
L239.409 132.668
L240.326 141.358
L241.243 141.873
L242.16 135.539
L243.078 149.338
L243.995 151.435
L244.912 150.186
L245.83 145.415
L246.747 153.374
L247.664 151.937
L248.581 156.305
L249.499 171.406
L250.416 158.192
L251.333 151.922
L252.25 147.382
L253.168 135.192
L254.085 130.988
L255.002 129.542
L255.919 135.851
L256.837 139.925
L257.754 142.357
L258.671 150.87
L259.588 151.836
L260.506 153.235
L261.423 159.052
L262.34 153.98
L263.257 166.427
L264.175 155.657
L265.092 158.819
L266.009 149.244
L266.927 193.356
L267.844 155.548
L268.761 136.351
L269.678 135.571
L270.596 149.185
L271.513 144.254
L272.43 146.817
L273.347 153.671
L274.265 154.987
L275.182 155.21
L276.099 161.313
L277.016 151.186
L277.934 153.003
L278.851 153.705
L279.768 147.205
L280.685 162.751
L281.603 158.998
L282.52 154.65
L283.437 162.142
L284.354 205.638
L285.272 218.941
L286.189 230.441
L287.106 228.742
L288.024 180.929
L288.941 158.951
L289.858 207.152
L290.775 176.284
L291.693 161.33
L292.61 140.961
L293.527 154.018
L294.444 171.887
L295.362 223.629
L296.279 149.946
L297.196 148.254
L298.113 160.21
L299.031 151.786
L299.948 159.117
L300.865 176.079
L301.782 167.991
L302.7 198.326
L303.617 153.307
L304.534 115.99
L305.451 129.193
L306.369 136.409
L307.286 140.833
L308.203 166.208
L309.12 188.24
L310.955 124.846
L311.872 142.937
L312.79 192.462
L313.707 192.627
L314.624 218.369
L316.459 194.427
L317.376 167.889
L318.293 148.761
L319.21 164.705
L320.128 206.608
L321.045 198.042
L321.962 183.621
L322.879 181.472
L323.797 175.553
L324.714 204.271
L325.631 215.548
L326.548 207.245
L327.466 192.251
L328.383 193.982
L329.3 206
L330.217 174.822
L331.135 185.896
L332.052 180.298
L332.969 144.07
L333.887 131.998
L334.804 175.82
L335.721 211.819
L336.638 217.212
L337.556 159.071
L338.473 156.5
L339.39 176.767
L340.307 179.456
L341.225 175.537
L342.142 155.629
L343.059 161.768
L343.976 161.005
L344.894 153.888
L345.811 163.073
L346.728 170.992
L347.645 170.551
L348.563 183.982
L349.48 170.687
L350.397 194.227
L351.314 198.256
L352.232 194.682
L353.149 188.637
L354.066 168.841
L354.984 153.033
L355.901 192.838
L356.818 138.958
L357.735 131.124
L358.653 144.484
L359.57 152.047
L360.487 169.223
L361.404 178.326
L362.322 214.254
L363.239 197.892
L364.156 220.857
L365.073 194.967
L365.073 194.967" style="fill:none;stroke:#008000;stroke-linecap:square;"/>
   </g>
   <g id="line2d_3">
    <path clip-path="url(#pc1a11fcac8)" d="
M31.1906 108.63
L32.1079 145.795
L33.0251 134.434
L33.9424 126.712
L34.8597 147.349
L35.7769 180.179
L36.6942 181.451
L37.6114 162.452
L38.5287 176.467
L39.446 207.634
L40.3632 171.256
L41.2805 174.077
L42.1977 110.397
L43.115 97.4732
L44.0323 137.003
L44.9495 168.115
L45.8668 116.484
L47.7013 234.228
L49.5358 225.513
L50.4531 212.795
L51.3704 229.24
L52.2876 190.078
L53.2049 202.011
L54.1221 218.135
L55.9567 147.481
L56.8739 103.133
L57.7912 180.776
L58.7084 176.049
L59.6257 191.435
L60.543 202.577
L61.4602 185.603
L62.3775 160.385
L63.2947 168.492
L64.212 171.986
L65.1293 147.495
L66.9638 214.246
L67.881 198.731
L68.7983 214.401
L69.7156 218.431
L70.6328 203.917
L71.5501 210.29
L72.4673 208.758
L73.3846 186.885
L74.3019 174.978
L75.2191 198.017
L76.1364 180.088
L77.0536 191.181
L77.9709 224.454
L78.8882 199.247
L79.8054 190.206
L80.7227 140.71
L81.6399 193.208
L82.5572 169.006
L83.4745 158.312
L84.3917 164.274
L85.309 182.541
L86.2262 203.819
L87.1435 201.922
L88.0608 198.331
L88.978 192.435
L89.8953 154.274
L90.8125 212.341
L91.7298 151.899
L92.6471 150.289
L93.5643 126.778
L94.4816 128.692
L95.3988 171.536
L96.3161 175.58
L97.2334 185.229
L98.1506 215.054
L99.0679 192.781
L99.9851 209.165
L100.902 227.679
L101.82 239.191
L102.737 178.898
L103.654 187.644
L104.571 180.401
L105.489 125.146
L106.406 174.018
L107.323 111.248
L108.24 161.896
L109.158 191.318
L110.075 133.93
L110.992 164.196
L111.91 171.366
L112.827 195.469
L113.744 110.16
L114.661 116.299
L115.579 101.725
L116.496 81.1051
L117.413 131.414
L118.33 135.484
L119.248 118.374
L120.165 66.953
L121.082 55.1049
L121.999 94.9041
L122.917 90.2095
L123.834 159.281
L124.751 105.104
L125.668 131.766
L126.586 90.679
L127.503 85.2621
L128.42 154.398
L129.337 121.371
L130.255 133.484
L131.172 158.679
L132.089 123.322
L133.007 97.5114
L133.924 105.509
L134.841 132.169
L135.758 125.232
L136.676 147.032
L137.593 219.922
L138.51 121.704
L139.427 85.5096
L140.345 73.9481
L141.262 171.115
L142.179 83.7885
L143.096 90.0238
L144.931 193.683
L145.848 120.324
L146.765 62.4236
L148.6 77.3995
L149.517 96.001
L150.434 54.7489
L151.352 54.5044
L152.269 69.8678
L153.186 81.751
L154.104 100.051
L155.021 137.341
L155.938 105.99
L156.855 121.057
L157.773 85.5548
L158.69 57.7024
L159.607 92.0168
L160.524 144.61
L161.442 126.773
L162.359 125.562
L163.276 92.4134
L164.193 159.756
L165.111 185.652
L166.028 138.56
L166.945 104.617
L167.862 82.7223
L168.78 82.3177
L169.697 192.775
L170.614 109.013
L171.531 120.524
L172.449 111.923
L173.366 141.624
L174.283 188.342
L175.2 84.2303
L176.118 108.114
L177.035 104.744
L177.952 154.2
L178.87 104.127
L179.787 79.3862
L180.704 42.7658
M188.042 77.8833
L188.959 92.203
L189.877 101.109
L190.794 98.0709
L191.711 95.9685
L192.628 96.935
L193.546 102.282
L194.463 84.7083
L195.38 101.984
L196.297 106.251
L197.215 114.516
L198.132 130.826
L199.049 112.593
L199.967 101.52
L200.884 99.8603
L201.801 113.943
L202.718 122.378
L203.636 121.039
L204.553 149.971
L205.47 135.428
L206.387 125.262
L207.305 130.951
L208.222 131.239
L209.139 153.343
L210.056 161.819
L210.974 139.042
L211.891 141.33
L212.808 118.156
L213.725 122.066
L214.643 124.701
L215.56 116.544
L216.477 121.055
L217.394 128.505
L218.312 119.448
L219.229 114.161
L220.146 124.422
L221.064 128.669
L221.981 129.602
L222.898 128.557
L223.815 128.046
L224.733 125.145
L225.65 125.848
L226.567 118.275
L227.484 109.674
L229.319 116.786
L230.236 130.789
L231.153 126.933
L232.071 132.092
L232.988 143.273
L233.905 139.627
L234.822 147.701
L235.74 126.851
L236.657 137.347
L237.574 139.74
L238.491 133.665
L239.409 126.083
L240.326 131.642
L241.243 130.923
L242.16 132.064
L243.078 152.788
L243.995 138.039
L244.912 141.469
L245.83 130.629
L246.747 123.693
L247.664 97.6029
L249.499 136.301
L250.416 143.199
L251.333 127.803
L252.25 121.633
L253.168 118.406
L254.085 145.241
L255.002 126.097
L255.919 99.2281
L256.837 108.839
L257.754 112.146
L258.671 121.469
L259.588 137.314
L260.506 115.93
L261.423 123.187
L262.34 134.998
L263.257 115.817
L264.175 109.369
L265.092 98.8122
L266.927 124.976
L267.844 118.013
L268.761 124.915
L269.678 117.827
L270.596 119.73
L271.513 128.435
L272.43 135.861
L273.347 137.436
L274.265 132.654
L275.182 182.464
L276.099 161.275
L277.016 151.884
L277.934 144.364
L278.851 132.751
L279.768 138.078
L280.685 135.657
L281.603 134.563
L282.52 129.765
L283.437 123.616
L284.354 94.0268
L285.272 91.4823
L286.189 86.7379
L287.106 89.353
L288.024 97.4898
L288.941 96.2786
L289.858 112.708
L290.775 121.65
L291.693 123.886
L292.61 122.519
L293.527 182.852
L294.444 151.316
L295.362 161.679
L296.279 153.993
L297.196 114.379
L298.113 115.353
L299.031 141.237
L299.948 173.152
L300.865 123.669
L301.782 213.424
L302.7 202.166
L303.617 206.829
L305.451 152.625
L306.369 176.562
L307.286 194.466
L308.203 156.623
L309.12 148.563
L310.038 132.382
L310.955 165.232
L311.872 158.136
L312.79 158.206
L313.707 160.159
L314.624 177.249
L315.541 153.814
L316.459 155.419
L318.293 216.163
L319.21 182.942
L320.128 190.496
L321.045 176.323
L321.962 199.778
L322.879 207.709
L323.797 197.958
L324.714 177.489
L325.631 207.937
L326.548 189.102
L327.466 194.645
L328.383 197.538
L329.3 192.13
L330.217 164.092
L331.135 122.733
L332.052 178.098
L332.969 179.199
L333.887 186.906
L334.804 162.97
L335.721 180.148
L336.638 189.254
L337.556 204.303
L338.473 193.305
L339.39 214.053
L340.307 167.197
L341.225 200.713
L342.142 210.455
L343.059 201.019
L343.976 189.205
L344.894 199.068
L345.811 153.846
L346.728 214.528
L347.645 199.648
L348.563 225.948
L349.48 184.941
L350.397 224.758
L351.314 209.276
L352.232 223.515
L353.149 201.286
L354.066 204.457
L354.984 191.828
L355.901 120.853
L356.818 102.705
L357.735 167.743
L358.653 209.56
L359.57 230.566
L360.487 199.598
L362.322 224.814
L363.239 218.526
L364.156 203.169
L365.073 217.55
L365.073 217.55" style="fill:none;stroke:#ff0000;stroke-linecap:square;"/>
   </g>
   <g id="line2d_4">
    <path clip-path="url(#pc1a11fcac8)" d="
M31.1906 214.59
L32.1079 194.932
L33.0251 154.071
L33.9424 201.326
L34.8597 196.743
L35.7769 182.131
L36.6942 222.478
L37.6114 233.809
L38.5287 223.706
L39.446 217.086
L40.3632 230.484
L41.2805 212.003
L42.1977 218.748
L43.115 202.847
L44.0323 200.164
L44.9495 192.752
L45.8668 195.274
L46.784 193.129
L47.7013 181.608
L48.6186 176.092
L49.5358 168.042
L50.4531 176.785
L51.3704 161.498
L52.2876 202.066
L53.2049 228.055
L54.1221 215.824
L55.0394 193.183
L55.9567 217.764
L56.8739 227.797
L57.7912 234.073
L58.7084 235.393
L59.6257 227.304
L60.543 225.438
L61.4602 231.162
L62.3775 201.129
L63.2947 201.248
L64.212 220.961
L65.1293 210.739
L66.0465 223.049
L66.9638 209.943
L67.881 203.136
L68.7983 189.358
L69.7156 208.138
L70.6328 214.155
L71.5501 200.839
L72.4673 209.429
L73.3846 201.019
L74.3019 222.2
L75.2191 195.905
L77.0536 183.401
L77.9709 220.339
L78.8882 215.152
L79.8054 202.361
L80.7227 201.525
L81.6399 197.36
L82.5572 175.24
L83.4745 205.801
L84.3917 199.654
L85.309 215.673
L86.2262 206.424
L87.1435 168.228
L88.0608 143.564
L89.8953 210.774
L90.8125 206.933
L91.7298 162.626
L92.6471 176.648
L93.5643 132.663
L94.4816 190.932
L96.3161 171.181
L97.2334 168.014
L98.1506 159.329
L99.0679 176.175
L99.9851 130.646
L100.902 134.155
L101.82 109.16
L102.737 163.63
L103.654 165.049
L104.571 204.818
L105.489 131.046
L106.406 132.473
L107.323 105.073
L108.24 173.866
L109.158 161.201
L110.075 141.661
L110.992 142.041
L111.91 135.654
L112.827 135.902
L113.744 151.644
L114.661 136.874
L115.579 136.062
L116.496 174.388
L117.413 158.346
L118.33 175.47
L119.248 187.661
L120.165 129.008
L121.082 107.121
L121.999 163.931
L122.917 125.053
L123.834 108.134
L124.751 147.154
L125.668 139.377
L126.586 144.956
L127.503 121.2
L128.42 77.1935
L129.337 85.7664
L130.255 198.57
L131.172 153.566
L133.007 100.114
L133.924 97.179
L134.841 84.9605
L135.758 98.3409
L136.676 116.78
L137.593 129.281
L138.51 104.706
L139.427 139.687
L140.345 112.23
L141.262 77.0246
L142.179 88.6748
L143.096 110.111
L144.014 155.358
L144.931 118.912
L145.848 155.064
L146.765 158.836
L147.683 166.625
L148.6 139.473
L149.517 126.622
L150.434 136.284
L151.352 139.442
L152.269 136.772
L153.186 125.578
L154.104 133.403
L155.021 155.46
L155.938 167.951
L156.855 135.391
L157.773 157.355
L158.69 111.896
L159.607 144.377
L160.524 113.899
L161.442 78.6544
L162.359 92.402
L163.276 98.4443
L164.193 151.63
L165.111 138.202
L166.028 182.658
L166.945 155.12
L167.862 120.159
L168.78 101.301
L169.697 110.82
L170.614 107.197
L171.531 106.587
L172.449 114.026
L173.366 119.866
L174.283 134.93
L175.2 129.887
L176.118 127.166
L177.035 130.718
L177.952 146.153
L179.787 119.347
L180.704 129.613
L181.621 110.609
L182.539 112.433
L183.456 138.434
L184.373 130.104
L185.29 126.435
L186.208 184.88
L187.125 115.358
L188.042 134.087
L188.959 124.622
L189.877 135.367
L190.794 176.599
L191.711 189.557
L192.628 141.792
L193.546 135.894
L195.38 147.556
L196.297 151.16
L197.215 154.001
L198.132 158.834
L199.049 166.904
L199.967 149.576
L200.884 141.641
L201.801 135.353
L202.718 141.613
L203.636 144.05
L204.553 141.939
L205.47 149.56
L206.387 165.672
L207.305 139.147
L208.222 128.852
L209.139 137.252
L210.056 147.212
L210.974 165.222
L211.891 147.249
L212.808 146.148
L213.725 151.418
L214.643 151.698
L215.56 144.904
L216.477 143.886
L217.394 152.05
L218.312 163.338
L219.229 153.72
L220.146 159.76
L221.064 150.952
L221.981 146.008
L222.898 148.28
L223.815 143.283
L224.733 158.63
L225.65 146.865
L226.567 136.913
L227.484 137.346
L228.402 146.456
L229.319 150.732
L230.236 151.864
L231.153 156.769
L232.071 157.11
L232.988 151.751
L235.74 170.587
L236.657 155.898
L238.491 163.071
L239.409 157.465
L240.326 162.909
L241.243 160.527
L242.16 165.003
L243.078 158.303
L243.995 163.869
L244.912 178.066
L245.83 160.239
L246.747 171.522
L247.664 162.102
L248.581 155.962
L250.416 168.464
L251.333 167.325
L252.25 157.909
L253.168 160.533
L254.085 166.034
L255.002 183.45
L255.919 197.357
L256.837 181.264
L257.754 187.426
L258.671 168.22
L259.588 152.869
L260.506 159.209
L261.423 158.238
L262.34 162.827
L263.257 169.581
L264.175 192.989
L265.092 176.389
L266.009 178.917
L266.927 170.2
L267.844 168.534
L268.761 189.699
L269.678 173.664
L270.596 154.446
L271.513 154.989
L272.43 182.1
L273.347 192.01
L274.265 168.599
L275.182 206.316
L276.099 230.383
L277.016 188.521
L277.934 170.245
L278.851 165.763
L279.768 209.204
L280.685 177.45
L281.603 176.994
L282.52 179.873
L283.437 192.061
L284.354 145.394
L285.272 150.228
L286.189 154.19
L287.106 163.364
L288.024 192.677
L288.941 167.094
L289.858 183.329
L290.775 165.282
L291.693 165.423
L292.61 171.785
L293.527 170.302
L294.444 166.491
L295.362 161.093
L296.279 162.176
L297.196 167.234
L298.113 165.887
L299.031 168.986
L299.948 171.246
L300.865 168.465
L301.782 172.443
L302.7 172.214
L303.617 169.426
L304.534 171.894
L305.451 177.952
L306.369 201.399
L307.286 220.929
L308.203 206.771
L309.12 226.365
L310.038 201.832
L310.955 227.369
L311.872 230.374
L312.79 197.03
L313.707 211.957
L314.624 201.3
L315.541 203.608
L316.459 190.963
L317.376 175.487
L318.293 176.815
L319.21 181.763
L320.128 180.612
L321.045 192.492
L321.962 197.758
L322.879 210.476
L323.797 218.77
L324.714 204.508
L325.631 196.028
L326.548 211.549
L327.466 182.172
L328.383 170.468
L329.3 180.699
L330.217 177.918
L332.052 173.778
L332.969 178.65
L333.887 184.87
L334.804 184.136
L335.721 191.611
L337.556 223.454
L338.473 219.354
L339.39 213.791
L340.307 201.955
L341.225 196.725
L342.142 197.8
L343.059 220.094
L343.976 176.304
L344.894 143.13
L345.811 195.308
L346.728 209.029
L347.645 202.28
L348.563 194.666
L349.48 203.852
L350.397 187.113
L351.314 190.515
L352.232 173.95
L354.066 222.764
L354.984 208.153
L355.901 204.207
L356.818 228.007
L357.735 210.371
L358.653 220.966
L360.487 176.015
L361.404 179.779
L362.322 197.964
L363.239 192.338
L364.156 199.895
L365.073 205.267
L365.073 205.267" style="fill:none;stroke:#00bfbf;stroke-linecap:square;"/>
   </g>
   <g id="patch_3">
    <path d="
M31.1906 244.518
L31.1906 21.3181" style="fill:none;stroke:#000000;stroke-linecap:square;stroke-linejoin:miter;"/>
   </g>
   <g id="patch_4">
    <path d="
M365.991 244.518
L365.991 21.3181" style="fill:none;stroke:#000000;stroke-linecap:square;stroke-linejoin:miter;"/>
   </g>
   <g id="patch_5">
    <path d="
M31.1906 21.3181
L365.991 21.3181" style="fill:none;stroke:#000000;stroke-linecap:square;stroke-linejoin:miter;"/>
   </g>
   <g id="patch_6">
    <path d="
M31.1906 244.518
L365.991 244.518" style="fill:none;stroke:#000000;stroke-linecap:square;stroke-linejoin:miter;"/>
   </g>
   <g id="matplotlib.axis_1">
    <g id="xtick_1">
     <g id="line2d_5">
      <defs>
       <path d="
M0 0
L0 -4" id="mc7db9fdffb" style="stroke:#000000;stroke-width:0.5;"/>
      </defs>
      <g>
       <use style="stroke:#000000;stroke-width:0.5;" x="31.190625" xlink:href="#mc7db9fdffb" y="244.518125"/>
      </g>
     </g>
     <g id="line2d_6">
      <defs>
       <path d="
M0 0
L0 4" id="m5a7d422ac3" style="stroke:#000000;stroke-width:0.5;"/>
      </defs>
      <g>
       <use style="stroke:#000000;stroke-width:0.5;" x="31.190625" xlink:href="#m5a7d422ac3" y="21.318125"/>
      </g>
     </g>
     <g id="text_1">
      <!-- 0 -->
      <defs>
       <path d="
M31.7812 66.4062
Q24.1719 66.4062 20.3281 58.9062
Q16.5 51.4219 16.5 36.375
Q16.5 21.3906 20.3281 13.8906
Q24.1719 6.39062 31.7812 6.39062
Q39.4531 6.39062 43.2812 13.8906
Q47.125 21.3906 47.125 36.375
Q47.125 51.4219 43.2812 58.9062
Q39.4531 66.4062 31.7812 66.4062
M31.7812 74.2188
Q44.0469 74.2188 50.5156 64.5156
Q56.9844 54.8281 56.9844 36.375
Q56.9844 17.9688 50.5156 8.26562
Q44.0469 -1.42188 31.7812 -1.42188
Q19.5312 -1.42188 13.0625 8.26562
Q6.59375 17.9688 6.59375 36.375
Q6.59375 54.8281 13.0625 64.5156
Q19.5312 74.2188 31.7812 74.2188" id="BitstreamVeraSans-Roman-30"/>
      </defs>
      <g transform="translate(28.67109375 256.1165625)scale(0.1 -0.1)">
       <use xlink:href="#BitstreamVeraSans-Roman-30"/>
      </g>
     </g>
    </g>
    <g id="xtick_2">
     <g id="line2d_7">
      <g>
       <use style="stroke:#000000;stroke-width:0.5;" x="77.0536386986" xlink:href="#mc7db9fdffb" y="244.518125"/>
      </g>
     </g>
     <g id="line2d_8">
      <g>
       <use style="stroke:#000000;stroke-width:0.5;" x="77.0536386986" xlink:href="#m5a7d422ac3" y="21.318125"/>
      </g>
     </g>
     <g id="text_2">
      <!-- 50 -->
      <defs>
       <path d="
M10.7969 72.9062
L49.5156 72.9062
L49.5156 64.5938
L19.8281 64.5938
L19.8281 46.7344
Q21.9688 47.4688 24.1094 47.8281
Q26.2656 48.1875 28.4219 48.1875
Q40.625 48.1875 47.75 41.5
Q54.8906 34.8125 54.8906 23.3906
Q54.8906 11.625 47.5625 5.09375
Q40.2344 -1.42188 26.9062 -1.42188
Q22.3125 -1.42188 17.5469 -0.640625
Q12.7969 0.140625 7.71875 1.70312
L7.71875 11.625
Q12.1094 9.23438 16.7969 8.0625
Q21.4844 6.89062 26.7031 6.89062
Q35.1562 6.89062 40.0781 11.3281
Q45.0156 15.7656 45.0156 23.3906
Q45.0156 31 40.0781 35.4375
Q35.1562 39.8906 26.7031 39.8906
Q22.75 39.8906 18.8125 39.0156
Q14.8906 38.1406 10.7969 36.2812
z
" id="BitstreamVeraSans-Roman-35"/>
      </defs>
      <g transform="translate(71.4091074486 256.1165625)scale(0.1 -0.1)">
       <use xlink:href="#BitstreamVeraSans-Roman-35"/>
       <use x="63.623046875" xlink:href="#BitstreamVeraSans-Roman-30"/>
      </g>
     </g>
    </g>
    <g id="xtick_3">
     <g id="line2d_9">
      <g>
       <use style="stroke:#000000;stroke-width:0.5;" x="122.916652397" xlink:href="#mc7db9fdffb" y="244.518125"/>
      </g>
     </g>
     <g id="line2d_10">
      <g>
       <use style="stroke:#000000;stroke-width:0.5;" x="122.916652397" xlink:href="#m5a7d422ac3" y="21.318125"/>
      </g>
     </g>
     <g id="text_3">
      <!-- 100 -->
      <defs>
       <path d="
M12.4062 8.29688
L28.5156 8.29688
L28.5156 63.9219
L10.9844 60.4062
L10.9844 69.3906
L28.4219 72.9062
L38.2812 72.9062
L38.2812 8.29688
L54.3906 8.29688
L54.3906 0
L12.4062 0
z
" id="BitstreamVeraSans-Roman-31"/>
      </defs>
      <g transform="translate(114.254152397 256.1165625)scale(0.1 -0.1)">
       <use xlink:href="#BitstreamVeraSans-Roman-31"/>
       <use x="63.623046875" xlink:href="#BitstreamVeraSans-Roman-30"/>
       <use x="127.24609375" xlink:href="#BitstreamVeraSans-Roman-30"/>
      </g>
     </g>
    </g>
    <g id="xtick_4">
     <g id="line2d_11">
      <g>
       <use style="stroke:#000000;stroke-width:0.5;" x="168.779666096" xlink:href="#mc7db9fdffb" y="244.518125"/>
      </g>
     </g>
     <g id="line2d_12">
      <g>
       <use style="stroke:#000000;stroke-width:0.5;" x="168.779666096" xlink:href="#m5a7d422ac3" y="21.318125"/>
      </g>
     </g>
     <g id="text_4">
      <!-- 150 -->
      <g transform="translate(160.117166096 256.1165625)scale(0.1 -0.1)">
       <use xlink:href="#BitstreamVeraSans-Roman-31"/>
       <use x="63.623046875" xlink:href="#BitstreamVeraSans-Roman-35"/>
       <use x="127.24609375" xlink:href="#BitstreamVeraSans-Roman-30"/>
      </g>
     </g>
    </g>
    <g id="xtick_5">
     <g id="line2d_13">
      <g>
       <use style="stroke:#000000;stroke-width:0.5;" x="214.642679795" xlink:href="#mc7db9fdffb" y="244.518125"/>
      </g>
     </g>
     <g id="line2d_14">
      <g>
       <use style="stroke:#000000;stroke-width:0.5;" x="214.642679795" xlink:href="#m5a7d422ac3" y="21.318125"/>
      </g>
     </g>
     <g id="text_5">
      <!-- 200 -->
      <defs>
       <path d="
M19.1875 8.29688
L53.6094 8.29688
L53.6094 0
L7.32812 0
L7.32812 8.29688
Q12.9375 14.1094 22.625 23.8906
Q32.3281 33.6875 34.8125 36.5312
Q39.5469 41.8438 41.4219 45.5312
Q43.3125 49.2188 43.3125 52.7812
Q43.3125 58.5938 39.2344 62.25
Q35.1562 65.9219 28.6094 65.9219
Q23.9688 65.9219 18.8125 64.3125
Q13.6719 62.7031 7.8125 59.4219
L7.8125 69.3906
Q13.7656 71.7812 18.9375 73
Q24.125 74.2188 28.4219 74.2188
Q39.75 74.2188 46.4844 68.5469
Q53.2188 62.8906 53.2188 53.4219
Q53.2188 48.9219 51.5312 44.8906
Q49.8594 40.875 45.4062 35.4062
Q44.1875 33.9844 37.6406 27.2188
Q31.1094 20.4531 19.1875 8.29688" id="BitstreamVeraSans-Roman-32"/>
      </defs>
      <g transform="translate(205.797367295 256.1165625)scale(0.1 -0.1)">
       <use xlink:href="#BitstreamVeraSans-Roman-32"/>
       <use x="63.623046875" xlink:href="#BitstreamVeraSans-Roman-30"/>
       <use x="127.24609375" xlink:href="#BitstreamVeraSans-Roman-30"/>
      </g>
     </g>
    </g>
    <g id="xtick_6">
     <g id="line2d_15">
      <g>
       <use style="stroke:#000000;stroke-width:0.5;" x="260.505693493" xlink:href="#mc7db9fdffb" y="244.518125"/>
      </g>
     </g>
     <g id="line2d_16">
      <g>
       <use style="stroke:#000000;stroke-width:0.5;" x="260.505693493" xlink:href="#m5a7d422ac3" y="21.318125"/>
      </g>
     </g>
     <g id="text_6">
      <!-- 250 -->
      <g transform="translate(251.660380993 256.1165625)scale(0.1 -0.1)">
       <use xlink:href="#BitstreamVeraSans-Roman-32"/>
       <use x="63.623046875" xlink:href="#BitstreamVeraSans-Roman-35"/>
       <use x="127.24609375" xlink:href="#BitstreamVeraSans-Roman-30"/>
      </g>
     </g>
    </g>
    <g id="xtick_7">
     <g id="line2d_17">
      <g>
       <use style="stroke:#000000;stroke-width:0.5;" x="306.368707192" xlink:href="#mc7db9fdffb" y="244.518125"/>
      </g>
     </g>
     <g id="line2d_18">
      <g>
       <use style="stroke:#000000;stroke-width:0.5;" x="306.368707192" xlink:href="#m5a7d422ac3" y="21.318125"/>
      </g>
     </g>
     <g id="text_7">
      <!-- 300 -->
      <defs>
       <path d="
M40.5781 39.3125
Q47.6562 37.7969 51.625 33
Q55.6094 28.2188 55.6094 21.1875
Q55.6094 10.4062 48.1875 4.48438
Q40.7656 -1.42188 27.0938 -1.42188
Q22.5156 -1.42188 17.6562 -0.515625
Q12.7969 0.390625 7.625 2.20312
L7.625 11.7188
Q11.7188 9.32812 16.5938 8.10938
Q21.4844 6.89062 26.8125 6.89062
Q36.0781 6.89062 40.9375 10.5469
Q45.7969 14.2031 45.7969 21.1875
Q45.7969 27.6406 41.2812 31.2656
Q36.7656 34.9062 28.7188 34.9062
L20.2188 34.9062
L20.2188 43.0156
L29.1094 43.0156
Q36.375 43.0156 40.2344 45.9219
Q44.0938 48.8281 44.0938 54.2969
Q44.0938 59.9062 40.1094 62.9062
Q36.1406 65.9219 28.7188 65.9219
Q24.6562 65.9219 20.0156 65.0312
Q15.375 64.1562 9.8125 62.3125
L9.8125 71.0938
Q15.4375 72.6562 20.3438 73.4375
Q25.25 74.2188 29.5938 74.2188
Q40.8281 74.2188 47.3594 69.1094
Q53.9062 64.0156 53.9062 55.3281
Q53.9062 49.2656 50.4375 45.0938
Q46.9688 40.9219 40.5781 39.3125" id="BitstreamVeraSans-Roman-33"/>
      </defs>
      <g transform="translate(297.538238442 256.1165625)scale(0.1 -0.1)">
       <use xlink:href="#BitstreamVeraSans-Roman-33"/>
       <use x="63.623046875" xlink:href="#BitstreamVeraSans-Roman-30"/>
       <use x="127.24609375" xlink:href="#BitstreamVeraSans-Roman-30"/>
      </g>
     </g>
    </g>
    <g id="xtick_8">
     <g id="line2d_19">
      <g>
       <use style="stroke:#000000;stroke-width:0.5;" x="352.23172089" xlink:href="#mc7db9fdffb" y="244.518125"/>
      </g>
     </g>
     <g id="line2d_20">
      <g>
       <use style="stroke:#000000;stroke-width:0.5;" x="352.23172089" xlink:href="#m5a7d422ac3" y="21.318125"/>
      </g>
     </g>
     <g id="text_8">
      <!-- 350 -->
      <g transform="translate(343.40125214 256.1165625)scale(0.1 -0.1)">
       <use xlink:href="#BitstreamVeraSans-Roman-33"/>
       <use x="63.623046875" xlink:href="#BitstreamVeraSans-Roman-35"/>
       <use x="127.24609375" xlink:href="#BitstreamVeraSans-Roman-30"/>
      </g>
     </g>
    </g>
    <g id="text_9">
     <!-- Julian day -->
     <defs>
      <path d="
M9.42188 75.9844
L18.4062 75.9844
L18.4062 0
L9.42188 0
z
" id="BitstreamVeraSans-Roman-6c"/>
      <path d="
M54.8906 33.0156
L54.8906 0
L45.9062 0
L45.9062 32.7188
Q45.9062 40.4844 42.875 44.3281
Q39.8438 48.1875 33.7969 48.1875
Q26.5156 48.1875 22.3125 43.5469
Q18.1094 38.9219 18.1094 30.9062
L18.1094 0
L9.07812 0
L9.07812 54.6875
L18.1094 54.6875
L18.1094 46.1875
Q21.3438 51.125 25.7031 53.5625
Q30.0781 56 35.7969 56
Q45.2188 56 50.0469 50.1719
Q54.8906 44.3438 54.8906 33.0156" id="BitstreamVeraSans-Roman-6e"/>
      <path d="
M32.1719 -5.07812
Q28.375 -14.8438 24.75 -17.8125
Q21.1406 -20.7969 15.0938 -20.7969
L7.90625 -20.7969
L7.90625 -13.2812
L13.1875 -13.2812
Q16.8906 -13.2812 18.9375 -11.5156
Q21 -9.76562 23.4844 -3.21875
L25.0938 0.875
L2.98438 54.6875
L12.5 54.6875
L29.5938 11.9219
L46.6875 54.6875
L56.2031 54.6875
z
" id="BitstreamVeraSans-Roman-79"/>
      <path d="
M34.2812 27.4844
Q23.3906 27.4844 19.1875 25
Q14.9844 22.5156 14.9844 16.5
Q14.9844 11.7188 18.1406 8.90625
Q21.2969 6.10938 26.7031 6.10938
Q34.1875 6.10938 38.7031 11.4062
Q43.2188 16.7031 43.2188 25.4844
L43.2188 27.4844
z

M52.2031 31.2031
L52.2031 0
L43.2188 0
L43.2188 8.29688
Q40.1406 3.32812 35.5469 0.953125
Q30.9531 -1.42188 24.3125 -1.42188
Q15.9219 -1.42188 10.9531 3.29688
Q6 8.01562 6 15.9219
Q6 25.1406 12.1719 29.8281
Q18.3594 34.5156 30.6094 34.5156
L43.2188 34.5156
L43.2188 35.4062
Q43.2188 41.6094 39.1406 45
Q35.0625 48.3906 27.6875 48.3906
Q23 48.3906 18.5469 47.2656
Q14.1094 46.1406 10.0156 43.8906
L10.0156 52.2031
Q14.9375 54.1094 19.5781 55.0469
Q24.2188 56 28.6094 56
Q40.4844 56 46.3438 49.8438
Q52.2031 43.7031 52.2031 31.2031" id="BitstreamVeraSans-Roman-61"/>
      <path id="BitstreamVeraSans-Roman-20"/>
      <path d="
M8.5 21.5781
L8.5 54.6875
L17.4844 54.6875
L17.4844 21.9219
Q17.4844 14.1562 20.5 10.2656
Q23.5312 6.39062 29.5938 6.39062
Q36.8594 6.39062 41.0781 11.0312
Q45.3125 15.6719 45.3125 23.6875
L45.3125 54.6875
L54.2969 54.6875
L54.2969 0
L45.3125 0
L45.3125 8.40625
Q42.0469 3.42188 37.7188 1
Q33.4062 -1.42188 27.6875 -1.42188
Q18.2656 -1.42188 13.375 4.4375
Q8.5 10.2969 8.5 21.5781" id="BitstreamVeraSans-Roman-75"/>
      <path d="
M45.4062 46.3906
L45.4062 75.9844
L54.3906 75.9844
L54.3906 0
L45.4062 0
L45.4062 8.20312
Q42.5781 3.32812 38.25 0.953125
Q33.9375 -1.42188 27.875 -1.42188
Q17.9688 -1.42188 11.7344 6.48438
Q5.51562 14.4062 5.51562 27.2969
Q5.51562 40.1875 11.7344 48.0938
Q17.9688 56 27.875 56
Q33.9375 56 38.25 53.625
Q42.5781 51.2656 45.4062 46.3906
M14.7969 27.2969
Q14.7969 17.3906 18.875 11.75
Q22.9531 6.10938 30.0781 6.10938
Q37.2031 6.10938 41.2969 11.75
Q45.4062 17.3906 45.4062 27.2969
Q45.4062 37.2031 41.2969 42.8438
Q37.2031 48.4844 30.0781 48.4844
Q22.9531 48.4844 18.875 42.8438
Q14.7969 37.2031 14.7969 27.2969" id="BitstreamVeraSans-Roman-64"/>
      <path d="
M9.8125 72.9062
L19.6719 72.9062
L19.6719 5.07812
Q19.6719 -8.10938 14.6719 -14.0625
Q9.67188 -20.0156 -1.42188 -20.0156
L-5.17188 -20.0156
L-5.17188 -11.7188
L-2.09375 -11.7188
Q4.4375 -11.7188 7.125 -8.04688
Q9.8125 -4.39062 9.8125 5.07812
z
" id="BitstreamVeraSans-Roman-4a"/>
      <path d="
M9.42188 54.6875
L18.4062 54.6875
L18.4062 0
L9.42188 0
z

M9.42188 75.9844
L18.4062 75.9844
L18.4062 64.5938
L9.42188 64.5938
z
" id="BitstreamVeraSans-Roman-69"/>
     </defs>
     <g transform="translate(174.03984375 270.7946875)scale(0.1 -0.1)">
      <use xlink:href="#BitstreamVeraSans-Roman-4a"/>
      <use x="29.4921875" xlink:href="#BitstreamVeraSans-Roman-75"/>
      <use x="92.87109375" xlink:href="#BitstreamVeraSans-Roman-6c"/>
      <use x="120.654296875" xlink:href="#BitstreamVeraSans-Roman-69"/>
      <use x="148.4375" xlink:href="#BitstreamVeraSans-Roman-61"/>
      <use x="209.716796875" xlink:href="#BitstreamVeraSans-Roman-6e"/>
      <use x="273.095703125" xlink:href="#BitstreamVeraSans-Roman-20"/>
      <use x="304.8828125" xlink:href="#BitstreamVeraSans-Roman-64"/>
      <use x="368.359375" xlink:href="#BitstreamVeraSans-Roman-61"/>
      <use x="429.638671875" xlink:href="#BitstreamVeraSans-Roman-79"/>
     </g>
    </g>
   </g>
   <g id="matplotlib.axis_2">
    <g id="ytick_1">
     <g id="line2d_21">
      <defs>
       <path d="
M0 0
L4 0" id="md7965d1ba0" style="stroke:#000000;stroke-width:0.5;"/>
      </defs>
      <g>
       <use style="stroke:#000000;stroke-width:0.5;" x="31.190625" xlink:href="#md7965d1ba0" y="244.518125"/>
      </g>
     </g>
     <g id="line2d_22">
      <defs>
       <path d="
M0 0
L-4 0" id="md9a1c1a7cd" style="stroke:#000000;stroke-width:0.5;"/>
      </defs>
      <g>
       <use style="stroke:#000000;stroke-width:0.5;" x="365.990625" xlink:href="#md9a1c1a7cd" y="244.518125"/>
      </g>
     </g>
     <g id="text_10">
      <!-- 0 -->
      <g transform="translate(22.1515625 247.2775)scale(0.1 -0.1)">
       <use xlink:href="#BitstreamVeraSans-Roman-30"/>
      </g>
     </g>
    </g>
    <g id="ytick_2">
     <g id="line2d_23">
      <g>
       <use style="stroke:#000000;stroke-width:0.5;" x="31.190625" xlink:href="#md7965d1ba0" y="199.878125"/>
      </g>
     </g>
     <g id="line2d_24">
      <g>
       <use style="stroke:#000000;stroke-width:0.5;" x="365.990625" xlink:href="#md9a1c1a7cd" y="199.878125"/>
      </g>
     </g>
     <g id="text_11">
      <!-- 1 -->
      <g transform="translate(22.85 202.6375)scale(0.1 -0.1)">
       <use xlink:href="#BitstreamVeraSans-Roman-31"/>
      </g>
     </g>
    </g>
    <g id="ytick_3">
     <g id="line2d_25">
      <g>
       <use style="stroke:#000000;stroke-width:0.5;" x="31.190625" xlink:href="#md7965d1ba0" y="155.238125"/>
      </g>
     </g>
     <g id="line2d_26">
      <g>
       <use style="stroke:#000000;stroke-width:0.5;" x="365.990625" xlink:href="#md9a1c1a7cd" y="155.238125"/>
      </g>
     </g>
     <g id="text_12">
      <!-- 2 -->
      <g transform="translate(22.5625 157.9975)scale(0.1 -0.1)">
       <use xlink:href="#BitstreamVeraSans-Roman-32"/>
      </g>
     </g>
    </g>
    <g id="ytick_4">
     <g id="line2d_27">
      <g>
       <use style="stroke:#000000;stroke-width:0.5;" x="31.190625" xlink:href="#md7965d1ba0" y="110.598125"/>
      </g>
     </g>
     <g id="line2d_28">
      <g>
       <use style="stroke:#000000;stroke-width:0.5;" x="365.990625" xlink:href="#md9a1c1a7cd" y="110.598125"/>
      </g>
     </g>
     <g id="text_13">
      <!-- 3 -->
      <g transform="translate(22.3921875 113.3575)scale(0.1 -0.1)">
       <use xlink:href="#BitstreamVeraSans-Roman-33"/>
      </g>
     </g>
    </g>
    <g id="ytick_5">
     <g id="line2d_29">
      <g>
       <use style="stroke:#000000;stroke-width:0.5;" x="31.190625" xlink:href="#md7965d1ba0" y="65.958125"/>
      </g>
     </g>
     <g id="line2d_30">
      <g>
       <use style="stroke:#000000;stroke-width:0.5;" x="365.990625" xlink:href="#md9a1c1a7cd" y="65.958125"/>
      </g>
     </g>
     <g id="text_14">
      <!-- 4 -->
      <defs>
       <path d="
M37.7969 64.3125
L12.8906 25.3906
L37.7969 25.3906
z

M35.2031 72.9062
L47.6094 72.9062
L47.6094 25.3906
L58.0156 25.3906
L58.0156 17.1875
L47.6094 17.1875
L47.6094 0
L37.7969 0
L37.7969 17.1875
L4.89062 17.1875
L4.89062 26.7031
z
" id="BitstreamVeraSans-Roman-34"/>
      </defs>
      <g transform="translate(21.878125 68.7175)scale(0.1 -0.1)">
       <use xlink:href="#BitstreamVeraSans-Roman-34"/>
      </g>
     </g>
    </g>
    <g id="ytick_6">
     <g id="line2d_31">
      <g>
       <use style="stroke:#000000;stroke-width:0.5;" x="31.190625" xlink:href="#md7965d1ba0" y="21.318125"/>
      </g>
     </g>
     <g id="line2d_32">
      <g>
       <use style="stroke:#000000;stroke-width:0.5;" x="365.990625" xlink:href="#md9a1c1a7cd" y="21.318125"/>
      </g>
     </g>
     <g id="text_15">
      <!-- 5 -->
      <g transform="translate(22.4734375 24.0775)scale(0.1 -0.1)">
       <use xlink:href="#BitstreamVeraSans-Roman-35"/>
      </g>
     </g>
    </g>
    <g id="text_16">
     <!-- PET (mm/day) -->
     <defs>
      <path d="
M19.6719 64.7969
L19.6719 37.4062
L32.0781 37.4062
Q38.9688 37.4062 42.7188 40.9688
Q46.4844 44.5312 46.4844 51.125
Q46.4844 57.6719 42.7188 61.2344
Q38.9688 64.7969 32.0781 64.7969
z

M9.8125 72.9062
L32.0781 72.9062
Q44.3438 72.9062 50.6094 67.3594
Q56.8906 61.8125 56.8906 51.125
Q56.8906 40.3281 50.6094 34.8125
Q44.3438 29.2969 32.0781 29.2969
L19.6719 29.2969
L19.6719 0
L9.8125 0
z
" id="BitstreamVeraSans-Roman-50"/>
      <path d="
M9.8125 72.9062
L55.9062 72.9062
L55.9062 64.5938
L19.6719 64.5938
L19.6719 43.0156
L54.3906 43.0156
L54.3906 34.7188
L19.6719 34.7188
L19.6719 8.29688
L56.7812 8.29688
L56.7812 0
L9.8125 0
z
" id="BitstreamVeraSans-Roman-45"/>
      <path d="
M-0.296875 72.9062
L61.375 72.9062
L61.375 64.5938
L35.5 64.5938
L35.5 0
L25.5938 0
L25.5938 64.5938
L-0.296875 64.5938
z
" id="BitstreamVeraSans-Roman-54"/>
      <path d="
M25.3906 72.9062
L33.6875 72.9062
L8.29688 -9.28125
L0 -9.28125
z
" id="BitstreamVeraSans-Roman-2f"/>
      <path d="
M8.01562 75.875
L15.8281 75.875
Q23.1406 64.3594 26.7812 53.3125
Q30.4219 42.2812 30.4219 31.3906
Q30.4219 20.4531 26.7812 9.375
Q23.1406 -1.70312 15.8281 -13.1875
L8.01562 -13.1875
Q14.5 -2 17.7031 9.0625
Q20.9062 20.125 20.9062 31.3906
Q20.9062 42.6719 17.7031 53.6562
Q14.5 64.6562 8.01562 75.875" id="BitstreamVeraSans-Roman-29"/>
      <path d="
M31 75.875
Q24.4688 64.6562 21.2812 53.6562
Q18.1094 42.6719 18.1094 31.3906
Q18.1094 20.125 21.3125 9.0625
Q24.5156 -2 31 -13.1875
L23.1875 -13.1875
Q15.875 -1.70312 12.2344 9.375
Q8.59375 20.4531 8.59375 31.3906
Q8.59375 42.2812 12.2031 53.3125
Q15.8281 64.3594 23.1875 75.875
z
" id="BitstreamVeraSans-Roman-28"/>
      <path d="
M52 44.1875
Q55.375 50.25 60.0625 53.125
Q64.75 56 71.0938 56
Q79.6406 56 84.2812 50.0156
Q88.9219 44.0469 88.9219 33.0156
L88.9219 0
L79.8906 0
L79.8906 32.7188
Q79.8906 40.5781 77.0938 44.375
Q74.3125 48.1875 68.6094 48.1875
Q61.625 48.1875 57.5625 43.5469
Q53.5156 38.9219 53.5156 30.9062
L53.5156 0
L44.4844 0
L44.4844 32.7188
Q44.4844 40.625 41.7031 44.4062
Q38.9219 48.1875 33.1094 48.1875
Q26.2188 48.1875 22.1562 43.5312
Q18.1094 38.875 18.1094 30.9062
L18.1094 0
L9.07812 0
L9.07812 54.6875
L18.1094 54.6875
L18.1094 46.1875
Q21.1875 51.2188 25.4844 53.6094
Q29.7812 56 35.6875 56
Q41.6562 56 45.8281 52.9688
Q50 49.9531 52 44.1875" id="BitstreamVeraSans-Roman-6d"/>
     </defs>
     <g transform="translate(14.7984375 167.82984375)rotate(-90.0)scale(0.1 -0.1)">
      <use xlink:href="#BitstreamVeraSans-Roman-50"/>
      <use x="60.302734375" xlink:href="#BitstreamVeraSans-Roman-45"/>
      <use x="123.486328125" xlink:href="#BitstreamVeraSans-Roman-54"/>
      <use x="184.5703125" xlink:href="#BitstreamVeraSans-Roman-20"/>
      <use x="216.357421875" xlink:href="#BitstreamVeraSans-Roman-28"/>
      <use x="255.37109375" xlink:href="#BitstreamVeraSans-Roman-6d"/>
      <use x="352.783203125" xlink:href="#BitstreamVeraSans-Roman-6d"/>
      <use x="450.1953125" xlink:href="#BitstreamVeraSans-Roman-2f"/>
      <use x="483.88671875" xlink:href="#BitstreamVeraSans-Roman-64"/>
      <use x="547.36328125" xlink:href="#BitstreamVeraSans-Roman-61"/>
      <use x="608.642578125" xlink:href="#BitstreamVeraSans-Roman-79"/>
      <use x="667.822265625" xlink:href="#BitstreamVeraSans-Roman-29"/>
     </g>
    </g>
   </g>
   <g id="text_17">
    <!-- daily tree PET at SCR -->
    <defs>
     <path d="
M44.3906 34.1875
Q47.5625 33.1094 50.5625 29.5938
Q53.5625 26.0781 56.5938 19.9219
L66.6094 0
L56 0
L46.6875 18.7031
Q43.0625 26.0312 39.6719 28.4219
Q36.2812 30.8125 30.4219 30.8125
L19.6719 30.8125
L19.6719 0
L9.8125 0
L9.8125 72.9062
L32.0781 72.9062
Q44.5781 72.9062 50.7344 67.6719
Q56.8906 62.4531 56.8906 51.9062
Q56.8906 45.0156 53.6875 40.4688
Q50.4844 35.9375 44.3906 34.1875
M19.6719 64.7969
L19.6719 38.9219
L32.0781 38.9219
Q39.2031 38.9219 42.8438 42.2188
Q46.4844 45.5156 46.4844 51.9062
Q46.4844 58.2969 42.8438 61.5469
Q39.2031 64.7969 32.0781 64.7969
z
" id="BitstreamVeraSans-Roman-52"/>
     <path d="
M56.2031 29.5938
L56.2031 25.2031
L14.8906 25.2031
Q15.4844 15.9219 20.4844 11.0625
Q25.4844 6.20312 34.4219 6.20312
Q39.5938 6.20312 44.4531 7.46875
Q49.3125 8.73438 54.1094 11.2812
L54.1094 2.78125
Q49.2656 0.734375 44.1875 -0.34375
Q39.1094 -1.42188 33.8906 -1.42188
Q20.7969 -1.42188 13.1562 6.1875
Q5.51562 13.8125 5.51562 26.8125
Q5.51562 40.2344 12.7656 48.1094
Q20.0156 56 32.3281 56
Q43.3594 56 49.7812 48.8906
Q56.2031 41.7969 56.2031 29.5938
M47.2188 32.2344
Q47.125 39.5938 43.0938 43.9844
Q39.0625 48.3906 32.4219 48.3906
Q24.9062 48.3906 20.3906 44.1406
Q15.875 39.8906 15.1875 32.1719
z
" id="BitstreamVeraSans-Roman-65"/>
     <path d="
M64.4062 67.2812
L64.4062 56.8906
Q59.4219 61.5312 53.7812 63.8125
Q48.1406 66.1094 41.7969 66.1094
Q29.2969 66.1094 22.6562 58.4688
Q16.0156 50.8281 16.0156 36.375
Q16.0156 21.9688 22.6562 14.3281
Q29.2969 6.6875 41.7969 6.6875
Q48.1406 6.6875 53.7812 8.98438
Q59.4219 11.2812 64.4062 15.9219
L64.4062 5.60938
Q59.2344 2.09375 53.4375 0.328125
Q47.6562 -1.42188 41.2188 -1.42188
Q24.6562 -1.42188 15.125 8.70312
Q5.60938 18.8438 5.60938 36.375
Q5.60938 53.9531 15.125 64.0781
Q24.6562 74.2188 41.2188 74.2188
Q47.75 74.2188 53.5312 72.4844
Q59.3281 70.75 64.4062 67.2812" id="BitstreamVeraSans-Roman-43"/>
     <path d="
M41.1094 46.2969
Q39.5938 47.1719 37.8125 47.5781
Q36.0312 48 33.8906 48
Q26.2656 48 22.1875 43.0469
Q18.1094 38.0938 18.1094 28.8125
L18.1094 0
L9.07812 0
L9.07812 54.6875
L18.1094 54.6875
L18.1094 46.1875
Q20.9531 51.1719 25.4844 53.5781
Q30.0312 56 36.5312 56
Q37.4531 56 38.5781 55.875
Q39.7031 55.7656 41.0625 55.5156
z
" id="BitstreamVeraSans-Roman-72"/>
     <path d="
M18.3125 70.2188
L18.3125 54.6875
L36.8125 54.6875
L36.8125 47.7031
L18.3125 47.7031
L18.3125 18.0156
Q18.3125 11.3281 20.1406 9.42188
Q21.9688 7.51562 27.5938 7.51562
L36.8125 7.51562
L36.8125 0
L27.5938 0
Q17.1875 0 13.2344 3.875
Q9.28125 7.76562 9.28125 18.0156
L9.28125 47.7031
L2.6875 47.7031
L2.6875 54.6875
L9.28125 54.6875
L9.28125 70.2188
z
" id="BitstreamVeraSans-Roman-74"/>
     <path d="
M53.5156 70.5156
L53.5156 60.8906
Q47.9062 63.5781 42.9219 64.8906
Q37.9375 66.2188 33.2969 66.2188
Q25.25 66.2188 20.875 63.0938
Q16.5 59.9688 16.5 54.2031
Q16.5 49.3594 19.4062 46.8906
Q22.3125 44.4375 30.4219 42.9219
L36.375 41.7031
Q47.4062 39.5938 52.6562 34.2969
Q57.9062 29 57.9062 20.125
Q57.9062 9.51562 50.7969 4.04688
Q43.7031 -1.42188 29.9844 -1.42188
Q24.8125 -1.42188 18.9688 -0.25
Q13.1406 0.921875 6.89062 3.21875
L6.89062 13.375
Q12.8906 10.0156 18.6562 8.29688
Q24.4219 6.59375 29.9844 6.59375
Q38.4219 6.59375 43.0156 9.90625
Q47.6094 13.2344 47.6094 19.3906
Q47.6094 24.75 44.3125 27.7812
Q41.0156 30.8125 33.5 32.3281
L27.4844 33.5
Q16.4531 35.6875 11.5156 40.375
Q6.59375 45.0625 6.59375 53.4219
Q6.59375 63.0938 13.4062 68.6562
Q20.2188 74.2188 32.1719 74.2188
Q37.3125 74.2188 42.625 73.2812
Q47.9531 72.3594 53.5156 70.5156" id="BitstreamVeraSans-Roman-53"/>
    </defs>
    <g transform="translate(135.4265625 16.318125)scale(0.12 -0.12)">
     <use xlink:href="#BitstreamVeraSans-Roman-64"/>
     <use x="63.4765625" xlink:href="#BitstreamVeraSans-Roman-61"/>
     <use x="124.755859375" xlink:href="#BitstreamVeraSans-Roman-69"/>
     <use x="152.5390625" xlink:href="#BitstreamVeraSans-Roman-6c"/>
     <use x="180.322265625" xlink:href="#BitstreamVeraSans-Roman-79"/>
     <use x="239.501953125" xlink:href="#BitstreamVeraSans-Roman-20"/>
     <use x="271.2890625" xlink:href="#BitstreamVeraSans-Roman-74"/>
     <use x="310.498046875" xlink:href="#BitstreamVeraSans-Roman-72"/>
     <use x="349.361328125" xlink:href="#BitstreamVeraSans-Roman-65"/>
     <use x="410.884765625" xlink:href="#BitstreamVeraSans-Roman-65"/>
     <use x="472.408203125" xlink:href="#BitstreamVeraSans-Roman-20"/>
     <use x="504.1953125" xlink:href="#BitstreamVeraSans-Roman-50"/>
     <use x="564.498046875" xlink:href="#BitstreamVeraSans-Roman-45"/>
     <use x="627.681640625" xlink:href="#BitstreamVeraSans-Roman-54"/>
     <use x="688.765625" xlink:href="#BitstreamVeraSans-Roman-20"/>
     <use x="720.552734375" xlink:href="#BitstreamVeraSans-Roman-61"/>
     <use x="781.83203125" xlink:href="#BitstreamVeraSans-Roman-74"/>
     <use x="821.041015625" xlink:href="#BitstreamVeraSans-Roman-20"/>
     <use x="852.828125" xlink:href="#BitstreamVeraSans-Roman-53"/>
     <use x="916.3046875" xlink:href="#BitstreamVeraSans-Roman-43"/>
     <use x="986.12890625" xlink:href="#BitstreamVeraSans-Roman-52"/>
    </g>
   </g>
   <g id="legend_1">
    <g id="patch_7">
     <path d="
M287.927 101.373
L359.991 101.373
L359.991 27.3181
L287.927 27.3181
z
" style="fill:#ffffff;stroke:#000000;stroke-linejoin:miter;"/>
    </g>
    <g id="line2d_33">
     <path d="
M296.327 37.0363
L313.127 37.0363" style="fill:none;stroke:#0000ff;stroke-linecap:square;"/>
    </g>
    <g id="line2d_34"/>
    <g id="text_18">
     <!-- 2010 -->
     <g transform="translate(326.326875 41.23625)scale(0.12 -0.12)">
      <use xlink:href="#BitstreamVeraSans-Roman-32"/>
      <use x="63.623046875" xlink:href="#BitstreamVeraSans-Roman-30"/>
      <use x="127.24609375" xlink:href="#BitstreamVeraSans-Roman-31"/>
      <use x="190.869140625" xlink:href="#BitstreamVeraSans-Roman-30"/>
     </g>
    </g>
    <g id="line2d_35">
     <path d="
M296.327 54.65
L313.127 54.65" style="fill:none;stroke:#008000;stroke-linecap:square;"/>
    </g>
    <g id="line2d_36"/>
    <g id="text_19">
     <!-- 2011 -->
     <g transform="translate(326.326875 58.85)scale(0.12 -0.12)">
      <use xlink:href="#BitstreamVeraSans-Roman-32"/>
      <use x="63.623046875" xlink:href="#BitstreamVeraSans-Roman-30"/>
      <use x="127.24609375" xlink:href="#BitstreamVeraSans-Roman-31"/>
      <use x="190.869140625" xlink:href="#BitstreamVeraSans-Roman-31"/>
     </g>
    </g>
    <g id="line2d_37">
     <path d="
M296.327 72.2638
L313.127 72.2638" style="fill:none;stroke:#ff0000;stroke-linecap:square;"/>
    </g>
    <g id="line2d_38"/>
    <g id="text_20">
     <!-- 2012 -->
     <g transform="translate(326.326875 76.46375)scale(0.12 -0.12)">
      <use xlink:href="#BitstreamVeraSans-Roman-32"/>
      <use x="63.623046875" xlink:href="#BitstreamVeraSans-Roman-30"/>
      <use x="127.24609375" xlink:href="#BitstreamVeraSans-Roman-31"/>
      <use x="190.869140625" xlink:href="#BitstreamVeraSans-Roman-32"/>
     </g>
    </g>
    <g id="line2d_39">
     <path d="
M296.327 89.8775
L313.127 89.8775" style="fill:none;stroke:#00bfbf;stroke-linecap:square;"/>
    </g>
    <g id="line2d_40"/>
    <g id="text_21">
     <!-- 2013 -->
     <g transform="translate(326.326875 94.0775)scale(0.12 -0.12)">
      <use xlink:href="#BitstreamVeraSans-Roman-32"/>
      <use x="63.623046875" xlink:href="#BitstreamVeraSans-Roman-30"/>
      <use x="127.24609375" xlink:href="#BitstreamVeraSans-Roman-31"/>
      <use x="190.869140625" xlink:href="#BitstreamVeraSans-Roman-33"/>
     </g>
    </g>
   </g>
  </g>
 </g>
 <defs>
  <clipPath id="pc1a11fcac8">
   <rect height="223.2" width="334.8" x="31.190625" y="21.318125"/>
  </clipPath>
 </defs>
</svg>
