<?xml version="1.0" encoding="utf-8" standalone="no"?>
<!DOCTYPE svg PUBLIC "-//W3C//DTD SVG 1.1//EN"
  "http://www.w3.org/Graphics/SVG/1.1/DTD/svg11.dtd">
<!-- Created with matplotlib (http://matplotlib.org/) -->
<svg height="280pt" version="1.1" viewBox="0 0 382 280" width="382pt" xmlns="http://www.w3.org/2000/svg" xmlns:xlink="http://www.w3.org/1999/xlink">
 <defs>
  <style type="text/css">
*{stroke-linecap:butt;stroke-linejoin:round;}
  </style>
 </defs>
 <g id="figure_1">
  <g id="patch_1">
   <path d="
M0 280.074
L382.628 280.074
L382.628 0
L0 0
z
" style="fill:#ffffff;"/>
  </g>
  <g id="axes_1">
   <g id="patch_2">
    <path d="
M40.6281 244.518
L375.428 244.518
L375.428 21.3181
L40.6281 21.3181
z
" style="fill:#ffffff;"/>
   </g>
   <g id="line2d_1">
    <path clip-path="url(#p2d16512a00)" d="
M0 0" style="fill:none;stroke:#0000ff;stroke-linecap:square;"/>
   </g>
   <g id="line2d_2">
    <path clip-path="url(#p2d16512a00)" d="
M40.6281 218.762
L41.5454 190.018
L42.4626 229.394
L43.3799 228.638
L44.2972 194.4
L45.2144 197.76
L46.1317 213.94
L47.9662 234.195
L48.8835 230.676
L49.8007 239.159
M58.9733 223.999
L59.8906 227.082
L60.8079 190.502
L61.7251 217.52
L62.6424 187.957
L63.5596 218.458
L64.4769 232.653
L65.3942 230.455
L66.3114 223.105
L67.2287 228.753
L68.1459 218.66
L69.9805 179.291
L70.8977 180.811
L71.815 205.093
L72.7322 217.474
L73.6495 199.816
L74.5668 228.086
L75.484 221.307
L76.4013 243.423
L77.3185 198.208
L78.2358 181.7
L79.1531 170.005
L80.0703 160.987
L80.9876 168.281
L81.9048 168.79
L82.8221 197.532
L83.7394 216.173
L84.6566 225.973
L85.5739 210.749
L86.4911 241.82
L87.4084 238.777
L88.3257 213.754
L89.2429 203.727
L90.1602 200.433
L91.0774 187.876
L91.9947 207.357
L92.912 209.368
L93.8292 183.788
L94.7465 176.228
L95.6637 200.211
L96.581 212.205
L97.4983 217.375
L98.4155 198.817
L99.3328 206.168
L100.25 205.936
L101.167 200.929
L102.085 203.038
L103.002 210.852
L103.919 225.329
L104.836 221.821
L105.754 206.432
L106.671 209.636
L107.588 195.944
L108.505 242.05
L109.423 233.856
L110.34 194.896
L111.257 219.023
L112.174 201.293
L113.092 216.934
L114.009 221.098
L114.926 204.914
L115.843 216.908
L116.761 209.258
L117.678 220.037
L118.595 220.135
L119.513 225.172
L120.43 213.489
L121.347 206.986
L122.264 193.615
L123.182 192.684
L124.099 199.748
L125.016 218.722
L125.933 160.011
L126.851 193.402
L127.768 182.482
L128.685 204.06
L129.602 183.816
L130.52 195.86
L131.437 157.379
L132.354 166.895
L133.271 135.908
L134.189 174.511
L135.106 120.203
L136.023 153.602
L136.94 157.379
L137.858 128.225
L138.775 133.029
L139.692 39.9326
L140.609 138.174
L141.527 222.682
L142.444 106.207
L143.361 48.9382
L144.279 136.715
L145.196 160.364
L146.113 105.545
L147.03 74.7998
L147.948 184.765
L148.865 103.303
L149.782 98.5415
L150.699 61.5532
L151.617 122.049
L152.534 75.7727
L153.451 72.893
L154.368 97.3836
L155.286 164.926
L156.203 135.368
L157.12 147.729
L158.037 114.52
L158.955 87.791
L159.872 115.405
L160.789 100.269
L161.706 102.971
L162.624 144.72
L163.541 179.915
L164.458 221.352
L165.376 146.845
L166.293 141.083
L167.21 67.1018
L168.127 93.4071
L169.045 127.004
L169.962 110.747
L170.879 163.785
L171.796 158.951
L172.714 122.527
L173.631 97.7569
L174.548 163.798
L176.383 181.037
L177.3 128.685
L178.217 118.533
L179.134 125.802
L180.052 169.031
L180.969 109.777
L181.886 94.6942
L182.803 117.444
L183.721 172.777
L184.638 171.926
L185.555 77.8135
L186.473 120.515
L187.39 130.077
L188.307 129.12
L189.224 106.893
L190.142 140.817
L191.059 77.4212
L191.976 65.1674
L192.893 88.7987
L193.811 72.7003
L194.728 169.541
L195.645 134.759
L196.562 92.462
L197.48 101.375
L198.397 114.086
L199.314 108.199
L200.231 86.558
L201.149 90.145
L202.066 84.4814
L202.983 93.6988
L203.9 117.203
L204.818 137.503
L205.735 101.307
L206.652 88.7559
L207.569 105.057
L208.487 112.321
L210.321 123.313
L211.239 116.908
L212.156 163.419
L213.073 100.314
L213.99 94.4702
L214.908 116.219
L215.825 123.023
L216.742 120.889
L217.659 132.206
L218.577 117.364
L219.494 113.612
L220.411 127.552
L221.328 113.801
L222.246 118.848
L223.163 111.701
L224.08 105.7
L224.997 108.526
L225.915 110.135
L226.832 110.634
L227.749 131.602
L228.666 122.409
L229.584 121.342
L230.501 114.486
L231.418 114.566
L232.336 124.179
L233.253 146.017
L234.17 164.096
L235.087 139.434
L236.005 135.215
L236.922 135.047
L237.839 168.109
L238.756 127.73
L239.674 132.226
L240.591 134.679
L241.508 131.785
L242.425 125.963
L243.343 126.226
L244.26 118.939
L245.177 126.187
L246.094 142.43
L247.012 137.538
L247.929 117.285
L248.846 124.873
L249.763 134.545
L250.681 134.549
L251.598 128.604
L252.515 142.927
L253.433 144.687
L254.35 144.126
L255.267 138.755
L256.184 147.899
L257.102 145.672
L258.019 150.402
L258.936 169.607
L259.853 152.675
L260.771 145.489
L261.688 141.436
L262.605 128.493
L263.522 123.674
L264.44 122.64
L265.357 129.777
L266.274 134.581
L267.191 137.495
L268.109 145.884
L269.943 148.455
L270.86 155.939
L271.778 149.774
L272.695 163.257
L273.612 149.535
L274.529 152.961
L275.447 143.023
L276.364 190.999
L277.281 145.462
L278.199 129.736
L279.116 128.619
L280.033 143.876
L280.95 139.261
L281.868 142.531
L282.785 150.158
L283.702 151.876
L284.619 152.649
L285.537 159.481
L286.454 146.484
L287.371 149.233
L288.288 149.132
L289.206 143.746
L290.123 160.512
L291.957 151.314
L292.875 159.097
L293.792 206.415
L294.709 218.444
L295.626 228.656
L296.544 227.175
L297.461 176.901
L298.378 154.792
L299.296 207.565
L300.213 169.281
L301.13 157.164
L302.047 136.237
L302.965 149.819
L303.882 169.058
L304.799 225.547
L305.716 146.676
L306.634 145.713
L307.551 157.011
L308.468 148.488
L309.385 155.887
L310.303 173.168
L311.22 165.633
L312.137 198.965
L313.054 153.858
L313.972 116.298
L314.889 129.708
L315.806 136.674
L316.723 138.038
L317.641 163.923
L318.558 184.606
L319.475 159.781
L320.393 126.883
L321.31 145.781
L322.227 193.902
L323.144 186.571
L324.062 217.478
L324.979 205.397
L325.896 196.193
L326.813 169.322
L327.731 151.084
L328.648 166.492
L329.565 206.151
L330.482 196.636
L331.4 185.117
L332.317 183.564
L333.234 177.457
L334.151 202.695
L335.069 216.63
L335.986 208.486
L336.903 196.273
L337.82 195.012
L338.738 207.958
L339.655 179.608
L340.572 187.466
L341.489 178.849
L342.407 147.918
L343.324 133.59
L345.159 213.302
L346.076 220.764
L346.993 165.248
L347.91 161
L348.828 181.882
L349.745 181.446
L350.662 180.332
L351.579 158.694
L352.497 164.775
L353.414 165.853
L354.331 157.723
L355.248 167.654
L356.166 175.057
L357.083 174.089
L358 186.212
L358.917 171.932
L359.835 198.129
L360.752 199.421
L361.669 196.601
L362.586 190.476
L364.421 155.981
L365.338 196.12
L366.256 146.477
L367.173 137.694
L368.09 149.023
L369.007 157.805
L369.925 173.003
L370.842 175.069
L371.759 214.044
L372.676 195.417
L373.594 220.599
L374.511 198.586
L374.511 198.586" style="fill:none;stroke:#008000;stroke-linecap:square;"/>
   </g>
   <g id="line2d_3">
    <path clip-path="url(#p2d16512a00)" d="
M40.6281 131.782
L41.5454 169.369
L42.4626 155.106
L43.3799 147.587
L44.2972 164.066
L45.2144 197.812
L46.1317 190.756
L47.0489 175.26
L47.9662 189.667
L48.8835 217.629
L49.8007 190.155
L50.718 190.164
L51.6352 135.805
L52.5525 126.318
L53.4698 160.722
L54.387 182.755
L55.3043 142.613
L57.1388 238.798
L58.0561 231.916
L58.9733 230.217
L59.8906 225.078
L60.8079 233.076
L61.7251 203.76
L62.6424 208.013
L63.5596 229.16
L64.4769 207.602
L65.3942 172.646
L66.3114 131.035
L67.2287 195.086
L68.1459 197.405
L69.0632 202.347
L69.9805 216.594
L70.8977 209.787
L71.815 188.206
L73.6495 197.148
L74.5668 178.055
L75.484 191.976
L76.4013 215.582
L77.3185 207.733
L78.2358 217.321
L79.1531 222.59
L80.0703 220.136
L80.9876 222.118
L81.9048 222.174
L83.7394 188.84
L84.6566 209.233
L85.5739 198.544
L86.4911 203.831
L87.4084 225.927
L88.3257 209.246
L89.2429 209.031
L90.1602 165.512
L91.0774 203.275
L91.9947 184.346
L92.912 182.51
L93.8292 189.856
L94.7465 194.876
L95.6637 215.01
L96.581 213.312
L97.4983 206.925
L98.4155 208.147
L99.3328 174.485
L100.25 225.805
L101.167 183.214
L102.085 173.906
L103.002 149.5
L103.919 153.002
L104.836 184.048
L105.754 186.069
L106.671 195.521
L107.588 215.309
L108.505 193.373
L109.423 211.235
L110.34 237.549
M112.174 192.873
L113.092 194.307
L114.009 187.696
L114.926 133.262
L115.843 181.103
L116.761 124.935
L117.678 167.005
L118.595 195.63
L119.513 144.065
L120.43 165.982
L121.347 177.422
L122.264 197.249
L123.182 112.141
L124.099 118.772
L125.016 97.3651
L125.933 88.1281
L126.851 134.503
L127.768 135.653
L128.685 120.963
L129.602 71.9547
L130.52 63.5874
L131.437 109.317
L132.354 98.6457
L133.271 166.282
L134.189 101.572
L135.106 134.515
L136.023 92.6825
L136.94 84.9831
L137.858 157.32
L138.775 112.055
L139.692 124.535
L140.609 150.56
L141.527 111.495
L142.444 97.1337
L143.361 106.981
L144.279 135.24
L145.196 126.112
L146.113 145.312
L147.03 220.821
L147.948 116.33
L148.865 87.0635
L149.782 71.4395
L150.699 173.968
L151.617 77.9262
L152.534 86.5511
L153.451 144.332
L154.368 194.496
L155.286 112.988
L156.203 56.6749
L158.037 77.6979
L158.955 94.4357
L159.872 50.1934
L160.789 54.9617
L161.706 71.108
L162.624 83.1957
L163.541 103.333
L164.458 144.255
L165.376 105.643
L166.293 125.702
L167.21 82.4981
L168.127 60.4997
L169.045 94.0152
L169.962 149.36
L170.879 118.254
L171.796 124.62
L172.714 85.3104
L173.631 153.055
L174.548 184.338
L175.465 132.163
L176.383 103.7
L177.3 79.8928
L178.217 79.9421
L179.134 212.048
L180.052 109.434
L180.969 112.384
L181.886 109.339
L182.803 133.348
L183.721 189.762
L184.638 70.1081
L185.555 106.762
L186.473 100.774
L187.39 154.964
L188.307 90.4922
L189.224 76.2199
L190.142 32.9549
M197.48 76.2394
L198.397 94.5678
L199.314 99.9105
L200.231 93.6652
L201.149 93.0548
L202.066 95.2272
L202.983 98.6272
L203.9 88.2318
L204.818 102.431
L205.735 107.675
L206.652 113.809
L207.569 127.659
L208.487 111.576
L209.404 100.115
L210.321 99.3902
L211.239 113.119
L212.156 120.328
L213.073 121.957
L213.99 151.424
L214.908 136.136
L215.825 124.804
L216.742 131.938
L217.659 133.142
L218.577 157.836
L219.494 159.83
L220.411 133.758
L221.328 145.944
L222.246 117.411
L224.08 128.783
L224.997 116.891
L225.915 121.622
L226.832 131.47
L227.749 122.069
L228.666 115.213
L229.584 126.647
L230.501 130.946
L231.418 131.523
L232.336 130.257
L233.253 130.351
L234.17 127.654
L235.087 128.075
L236.922 113.839
L237.839 115.673
L238.756 120.42
L239.674 134.745
L240.591 129.114
L241.508 136.525
L242.425 149.8
L243.343 143.014
L244.26 153.319
L245.177 131.268
L246.094 144.782
L247.012 146.163
L247.929 140.902
L248.846 131.266
L249.763 135.535
L251.598 138.704
L252.515 160.384
L253.433 141.677
L254.35 147.655
L255.267 136.112
L256.184 130.319
L257.102 105.504
L258.019 126.226
L258.936 141.837
L259.853 145.13
L260.771 133.803
L261.688 128.978
L262.605 125.298
L263.522 156.142
L265.357 109.172
L266.274 117.911
L267.191 119.901
L268.109 128.821
L269.026 150.18
L269.943 123.692
L270.86 131.666
L271.778 141.73
L272.695 124.13
L274.529 110.86
L276.364 136.782
L277.281 127.381
L278.199 134.017
L279.116 128.464
L280.033 129.937
L280.95 140.838
L281.868 148.534
L282.785 151.75
L283.702 145.285
L284.619 193.055
L285.537 166.167
L286.454 155.334
L287.371 150.87
L288.288 142.851
L289.206 149.526
L290.123 145.288
L291.04 143.26
L291.957 140.443
L292.875 135.306
L293.792 112.051
L295.626 105.179
L296.544 108.388
L297.461 114.911
L298.378 114.078
L299.296 127.207
L300.213 134.558
L301.13 136.974
L302.047 134.645
L302.965 188.278
L303.882 158.671
L304.799 165.604
L305.716 158.075
L306.634 128.677
L307.551 129.63
L308.468 157.216
L309.385 175.837
L310.303 135.159
L311.22 224.223
L312.137 212.301
L313.054 214.539
L313.972 176.009
L314.889 162.447
L315.806 181.811
L316.723 196.618
L317.641 162.313
L318.558 157.623
L319.475 148.529
L320.393 172.189
L321.31 169.043
L322.227 168.486
L323.144 168.907
L324.062 184.295
L324.979 165.372
L325.896 169.891
L327.731 219.195
L328.648 187.323
L329.565 202.882
L330.482 186.494
L331.4 202.355
L332.317 211.355
L333.234 205.29
L334.151 184.331
L335.069 215.822
L335.986 191.074
L336.903 201.061
L337.82 207.557
L338.738 199.324
L339.655 174.729
L340.572 143.399
L341.489 186.416
L342.407 178.33
L343.324 198.522
L344.241 180.047
L345.159 192.126
L346.076 196.906
L346.993 212.527
L347.91 202.372
L348.828 222.134
L349.745 178.559
L350.662 207.095
L351.579 212.891
L352.497 209.526
L353.414 197.748
L354.331 204.992
L355.248 163.526
L356.166 214.985
L357.083 210.013
L358 229.681
L358.917 191.434
L359.835 228.494
L360.752 215.242
L361.669 225.696
L362.586 208.283
L363.504 221.353
L364.421 205.796
L365.338 144.735
L366.256 130.344
L367.173 184.981
L368.09 216.3
L369.007 236.403
L369.925 214.347
L370.842 216.231
L371.759 229.811
L372.676 228.062
L373.594 215.108
L374.511 219.901
L374.511 219.901" style="fill:none;stroke:#ff0000;stroke-linecap:square;"/>
   </g>
   <g id="line2d_4">
    <path clip-path="url(#p2d16512a00)" d="
M40.6281 211.866
L41.5454 189.163
L42.4626 145.51
L43.3799 203.029
L44.2972 197.104
L45.2144 178.431
L46.1317 222.376
L47.0489 232.96
L47.9662 226.275
L48.8835 214.29
L49.8007 233.373
L50.718 215.304
L51.6352 222.322
L52.5525 199.643
L53.4698 197.942
L54.387 190.442
L56.2215 193.072
L57.1388 181.487
L58.0561 174.992
L58.9733 166.136
L59.8906 178.64
L60.8079 161.936
L61.7251 200.625
L62.6424 226.18
L63.5596 212.25
L64.4769 187.861
L65.3942 215.099
L66.3114 225.926
L67.2287 233.351
L68.1459 235.486
L69.0632 227.314
L69.9805 226.606
L70.8977 233.986
L71.815 200.537
L72.7322 200.634
L73.6495 222.504
L74.5668 212.159
L75.484 225.097
L76.4013 213.712
L77.3185 208.24
L78.2358 191.596
L79.1531 207.646
L80.0703 213.101
L80.9876 200.918
L81.9048 211.51
L82.8221 198.69
L83.7394 224.425
L84.6566 199.095
L85.5739 187.035
L86.4911 184.679
L87.4084 224.793
L88.3257 212.62
L89.2429 198.101
L90.1602 200.181
L91.0774 194.684
L91.9947 170.152
L92.912 210.245
L93.8292 197.11
L94.7465 213.829
L95.6637 206.19
L96.581 161.427
L97.4983 141.706
L99.3328 211.843
L100.25 209.674
L101.167 158.878
L102.085 177.049
L103.002 126.72
L103.919 186.59
L104.836 175.033
L105.754 166.987
L106.671 164.704
L107.588 152.817
L108.505 170.205
L109.423 118.128
L110.34 122.981
L111.257 100.351
L112.174 156.294
L113.092 157.712
L114.009 203.411
L114.926 123.279
L115.843 124.887
L116.761 92.0891
L117.678 166.81
L118.595 151.94
L119.513 131.009
L120.43 129.893
L121.347 123.604
L122.264 125.029
L123.182 140.395
L124.099 124.648
L125.016 124.744
L125.933 168.661
L126.851 146.541
L127.768 167.155
L128.685 180.943
L129.602 114.739
L130.52 91.3672
L131.437 157.43
L132.354 111.123
L133.271 94.8213
L134.189 135.545
L135.106 129.177
L136.023 135.224
L136.94 105.62
L137.858 60.2922
L138.775 68.6531
L139.692 194.445
L140.609 140.644
L142.444 81.652
L143.361 82.7008
L144.279 69.0334
L145.196 83.0074
L146.113 102.475
L147.03 117.872
L147.948 88.4285
L148.865 129.539
L149.782 99.4107
L150.699 58.8578
L151.617 73.0828
L152.534 96.0965
L153.451 145.802
L154.368 104.503
L155.286 145.026
L156.203 148.903
L157.12 157.211
L158.037 126.688
L158.955 112.016
L159.872 123.993
L160.789 127.872
L161.706 124.616
L162.624 110.596
L163.541 121.344
L164.458 146.251
L165.376 157.314
L166.293 120.296
L167.21 146.735
L168.127 95.2027
L169.045 135.814
L170.879 61.0382
L171.796 75.1202
L172.714 80.2904
L173.631 139.889
L174.548 121.951
L175.465 173.159
L176.383 141.096
L177.3 101.751
L178.217 81.6725
L179.134 94.4252
L180.052 90.0628
L180.969 88.7864
L182.803 104.373
L183.721 121.77
L184.638 115.204
L185.555 111.996
L186.473 116.591
L187.39 134.817
L189.224 103.404
L190.142 114.331
L191.059 89.9086
L191.976 96.9937
L192.893 126.547
L193.811 116.1
L194.728 111.885
L195.645 177.735
L196.562 95.648
L197.48 119.324
L198.397 107.937
L199.314 123.234
L200.231 166.615
L201.149 180.653
L202.066 125.03
L202.983 120.949
L203.9 128.729
L204.818 135.519
L206.652 142.835
L207.569 148.317
L208.487 158.223
L209.404 138.755
L210.321 129.195
L211.239 122.314
L212.156 129.308
L213.073 132.506
L213.99 130.508
L214.908 139.077
L215.825 158.905
L216.742 126.523
L217.659 115.549
L218.577 125.519
L219.494 136.706
L220.411 156.257
L221.328 135.307
L222.246 135.739
L223.163 141.867
L224.08 141.89
L224.997 134.75
L225.915 133.84
L226.832 143.305
L227.749 156.201
L228.666 144.092
L229.584 151.374
L230.501 140.846
L231.418 135.796
L232.336 139.583
L233.253 132.986
L234.17 150.824
L235.087 136.179
L236.005 124.601
L236.922 126.436
L237.839 136.934
L238.756 141.461
L239.674 142.506
L240.591 148.29
L241.508 148.748
L242.425 141.707
L245.177 165.102
L246.094 147.263
L247.012 152.262
L247.929 156.016
L248.846 149.31
L249.763 155.777
L250.681 152.064
L251.598 158.068
L252.515 149.73
L253.433 156.94
L254.35 171.776
L255.267 150.921
L256.184 165.39
L257.102 154.424
L258.019 147.635
L259.853 159.793
L260.771 159.806
L261.688 150.063
L262.605 153.408
L263.522 159.978
L264.44 178.654
L265.357 191.164
L266.274 173.222
L267.191 180.08
L268.109 158.095
L269.026 144.136
L269.943 150.732
L270.86 150.011
L271.778 155.2
L272.695 162.887
L273.612 186.798
L274.529 168.067
L275.447 171.201
L276.364 162.296
L277.281 161.315
L278.199 186.248
L280.033 146.714
L280.95 148.673
L281.868 178.306
L282.785 187.413
L283.702 160.519
L284.619 204.201
L285.537 229.168
L286.454 180.057
L287.371 163.194
L288.288 158.283
L289.206 207.91
L290.123 169.845
L291.04 170.189
L291.957 174.066
L292.875 187.721
L293.792 137.596
L295.626 148.365
L296.544 159.226
L297.461 188.543
L298.378 160.924
L299.296 178.876
L300.213 159.165
L301.13 158.597
L302.047 165.644
L302.965 165.036
L303.882 161.325
L304.799 156.413
L305.716 157.446
L306.634 163.054
L307.551 161.824
L308.468 165.106
L309.385 167.241
L310.303 164.774
L311.22 169.128
L312.137 169.349
L313.054 166.392
L313.972 169.059
L314.889 176.559
L316.723 218.179
L317.641 204.062
L318.558 227.135
L319.475 199.056
L320.393 229.322
L321.31 232.784
L322.227 194.776
L323.144 212.746
L324.062 195.172
L324.979 201.641
L325.896 188.468
L326.813 172.684
L327.731 174.641
L328.648 181.524
L329.565 179.95
L330.482 189.986
L331.4 197.648
L332.317 209.728
L333.234 218.505
L334.151 204.192
L335.069 197.616
L335.986 209.812
L336.903 176.196
L337.82 170.771
L338.738 182.315
L339.655 179.05
L340.572 176.265
L341.489 172.633
L342.407 178.308
L343.324 185.162
L344.241 183.195
L345.159 191.285
L346.076 204.178
L346.993 222.941
L347.91 220.427
L348.828 216.94
L349.745 199.759
L350.662 194.37
L351.579 195.247
L352.497 219.503
L353.414 172.807
L354.331 137.589
L355.248 195.197
L356.166 209.33
L357.083 204.684
L358 190.815
L358.917 201.437
L359.835 188.287
L360.752 191.812
L361.669 174.733
L363.504 224.235
L364.421 210.153
L365.338 201.037
L366.256 226.925
L367.173 207.775
L368.09 224.486
L369.925 176.84
L370.842 181.634
L371.759 200.305
L372.676 194.211
L373.594 199.553
L374.511 204.02
L374.511 204.02" style="fill:none;stroke:#00bfbf;stroke-linecap:square;"/>
   </g>
   <g id="patch_3">
    <path d="
M40.6281 244.518
L40.6281 21.3181" style="fill:none;stroke:#000000;stroke-linecap:square;stroke-linejoin:miter;"/>
   </g>
   <g id="patch_4">
    <path d="
M40.6281 244.518
L375.428 244.518" style="fill:none;stroke:#000000;stroke-linecap:square;stroke-linejoin:miter;"/>
   </g>
   <g id="patch_5">
    <path d="
M375.428 244.518
L375.428 21.3181" style="fill:none;stroke:#000000;stroke-linecap:square;stroke-linejoin:miter;"/>
   </g>
   <g id="patch_6">
    <path d="
M40.6281 21.3181
L375.428 21.3181" style="fill:none;stroke:#000000;stroke-linecap:square;stroke-linejoin:miter;"/>
   </g>
   <g id="matplotlib.axis_1">
    <g id="xtick_1">
     <g id="line2d_5">
      <defs>
       <path d="
M0 0
L0 -4" id="mc7db9fdffb" style="stroke:#000000;stroke-width:0.5;"/>
      </defs>
      <g>
       <use style="stroke:#000000;stroke-width:0.5;" x="40.628125" xlink:href="#mc7db9fdffb" y="244.518125"/>
      </g>
     </g>
     <g id="line2d_6">
      <defs>
       <path d="
M0 0
L0 4" id="m5a7d422ac3" style="stroke:#000000;stroke-width:0.5;"/>
      </defs>
      <g>
       <use style="stroke:#000000;stroke-width:0.5;" x="40.628125" xlink:href="#m5a7d422ac3" y="21.318125"/>
      </g>
     </g>
     <g id="text_1">
      <!-- 0 -->
      <defs>
       <path d="
M31.7812 66.4062
Q24.1719 66.4062 20.3281 58.9062
Q16.5 51.4219 16.5 36.375
Q16.5 21.3906 20.3281 13.8906
Q24.1719 6.39062 31.7812 6.39062
Q39.4531 6.39062 43.2812 13.8906
Q47.125 21.3906 47.125 36.375
Q47.125 51.4219 43.2812 58.9062
Q39.4531 66.4062 31.7812 66.4062
M31.7812 74.2188
Q44.0469 74.2188 50.5156 64.5156
Q56.9844 54.8281 56.9844 36.375
Q56.9844 17.9688 50.5156 8.26562
Q44.0469 -1.42188 31.7812 -1.42188
Q19.5312 -1.42188 13.0625 8.26562
Q6.59375 17.9688 6.59375 36.375
Q6.59375 54.8281 13.0625 64.5156
Q19.5312 74.2188 31.7812 74.2188" id="BitstreamVeraSans-Roman-30"/>
      </defs>
      <g transform="translate(38.10859375 256.1165625)scale(0.1 -0.1)">
       <use xlink:href="#BitstreamVeraSans-Roman-30"/>
      </g>
     </g>
    </g>
    <g id="xtick_2">
     <g id="line2d_7">
      <g>
       <use style="stroke:#000000;stroke-width:0.5;" x="86.4911386986" xlink:href="#mc7db9fdffb" y="244.518125"/>
      </g>
     </g>
     <g id="line2d_8">
      <g>
       <use style="stroke:#000000;stroke-width:0.5;" x="86.4911386986" xlink:href="#m5a7d422ac3" y="21.318125"/>
      </g>
     </g>
     <g id="text_2">
      <!-- 50 -->
      <defs>
       <path d="
M10.7969 72.9062
L49.5156 72.9062
L49.5156 64.5938
L19.8281 64.5938
L19.8281 46.7344
Q21.9688 47.4688 24.1094 47.8281
Q26.2656 48.1875 28.4219 48.1875
Q40.625 48.1875 47.75 41.5
Q54.8906 34.8125 54.8906 23.3906
Q54.8906 11.625 47.5625 5.09375
Q40.2344 -1.42188 26.9062 -1.42188
Q22.3125 -1.42188 17.5469 -0.640625
Q12.7969 0.140625 7.71875 1.70312
L7.71875 11.625
Q12.1094 9.23438 16.7969 8.0625
Q21.4844 6.89062 26.7031 6.89062
Q35.1562 6.89062 40.0781 11.3281
Q45.0156 15.7656 45.0156 23.3906
Q45.0156 31 40.0781 35.4375
Q35.1562 39.8906 26.7031 39.8906
Q22.75 39.8906 18.8125 39.0156
Q14.8906 38.1406 10.7969 36.2812
z
" id="BitstreamVeraSans-Roman-35"/>
      </defs>
      <g transform="translate(80.8466074486 256.1165625)scale(0.1 -0.1)">
       <use xlink:href="#BitstreamVeraSans-Roman-35"/>
       <use x="63.623046875" xlink:href="#BitstreamVeraSans-Roman-30"/>
      </g>
     </g>
    </g>
    <g id="xtick_3">
     <g id="line2d_9">
      <g>
       <use style="stroke:#000000;stroke-width:0.5;" x="132.354152397" xlink:href="#mc7db9fdffb" y="244.518125"/>
      </g>
     </g>
     <g id="line2d_10">
      <g>
       <use style="stroke:#000000;stroke-width:0.5;" x="132.354152397" xlink:href="#m5a7d422ac3" y="21.318125"/>
      </g>
     </g>
     <g id="text_3">
      <!-- 100 -->
      <defs>
       <path d="
M12.4062 8.29688
L28.5156 8.29688
L28.5156 63.9219
L10.9844 60.4062
L10.9844 69.3906
L28.4219 72.9062
L38.2812 72.9062
L38.2812 8.29688
L54.3906 8.29688
L54.3906 0
L12.4062 0
z
" id="BitstreamVeraSans-Roman-31"/>
      </defs>
      <g transform="translate(123.691652397 256.1165625)scale(0.1 -0.1)">
       <use xlink:href="#BitstreamVeraSans-Roman-31"/>
       <use x="63.623046875" xlink:href="#BitstreamVeraSans-Roman-30"/>
       <use x="127.24609375" xlink:href="#BitstreamVeraSans-Roman-30"/>
      </g>
     </g>
    </g>
    <g id="xtick_4">
     <g id="line2d_11">
      <g>
       <use style="stroke:#000000;stroke-width:0.5;" x="178.217166096" xlink:href="#mc7db9fdffb" y="244.518125"/>
      </g>
     </g>
     <g id="line2d_12">
      <g>
       <use style="stroke:#000000;stroke-width:0.5;" x="178.217166096" xlink:href="#m5a7d422ac3" y="21.318125"/>
      </g>
     </g>
     <g id="text_4">
      <!-- 150 -->
      <g transform="translate(169.554666096 256.1165625)scale(0.1 -0.1)">
       <use xlink:href="#BitstreamVeraSans-Roman-31"/>
       <use x="63.623046875" xlink:href="#BitstreamVeraSans-Roman-35"/>
       <use x="127.24609375" xlink:href="#BitstreamVeraSans-Roman-30"/>
      </g>
     </g>
    </g>
    <g id="xtick_5">
     <g id="line2d_13">
      <g>
       <use style="stroke:#000000;stroke-width:0.5;" x="224.080179795" xlink:href="#mc7db9fdffb" y="244.518125"/>
      </g>
     </g>
     <g id="line2d_14">
      <g>
       <use style="stroke:#000000;stroke-width:0.5;" x="224.080179795" xlink:href="#m5a7d422ac3" y="21.318125"/>
      </g>
     </g>
     <g id="text_5">
      <!-- 200 -->
      <defs>
       <path d="
M19.1875 8.29688
L53.6094 8.29688
L53.6094 0
L7.32812 0
L7.32812 8.29688
Q12.9375 14.1094 22.625 23.8906
Q32.3281 33.6875 34.8125 36.5312
Q39.5469 41.8438 41.4219 45.5312
Q43.3125 49.2188 43.3125 52.7812
Q43.3125 58.5938 39.2344 62.25
Q35.1562 65.9219 28.6094 65.9219
Q23.9688 65.9219 18.8125 64.3125
Q13.6719 62.7031 7.8125 59.4219
L7.8125 69.3906
Q13.7656 71.7812 18.9375 73
Q24.125 74.2188 28.4219 74.2188
Q39.75 74.2188 46.4844 68.5469
Q53.2188 62.8906 53.2188 53.4219
Q53.2188 48.9219 51.5312 44.8906
Q49.8594 40.875 45.4062 35.4062
Q44.1875 33.9844 37.6406 27.2188
Q31.1094 20.4531 19.1875 8.29688" id="BitstreamVeraSans-Roman-32"/>
      </defs>
      <g transform="translate(215.234867295 256.1165625)scale(0.1 -0.1)">
       <use xlink:href="#BitstreamVeraSans-Roman-32"/>
       <use x="63.623046875" xlink:href="#BitstreamVeraSans-Roman-30"/>
       <use x="127.24609375" xlink:href="#BitstreamVeraSans-Roman-30"/>
      </g>
     </g>
    </g>
    <g id="xtick_6">
     <g id="line2d_15">
      <g>
       <use style="stroke:#000000;stroke-width:0.5;" x="269.943193493" xlink:href="#mc7db9fdffb" y="244.518125"/>
      </g>
     </g>
     <g id="line2d_16">
      <g>
       <use style="stroke:#000000;stroke-width:0.5;" x="269.943193493" xlink:href="#m5a7d422ac3" y="21.318125"/>
      </g>
     </g>
     <g id="text_6">
      <!-- 250 -->
      <g transform="translate(261.097880993 256.1165625)scale(0.1 -0.1)">
       <use xlink:href="#BitstreamVeraSans-Roman-32"/>
       <use x="63.623046875" xlink:href="#BitstreamVeraSans-Roman-35"/>
       <use x="127.24609375" xlink:href="#BitstreamVeraSans-Roman-30"/>
      </g>
     </g>
    </g>
    <g id="xtick_7">
     <g id="line2d_17">
      <g>
       <use style="stroke:#000000;stroke-width:0.5;" x="315.806207192" xlink:href="#mc7db9fdffb" y="244.518125"/>
      </g>
     </g>
     <g id="line2d_18">
      <g>
       <use style="stroke:#000000;stroke-width:0.5;" x="315.806207192" xlink:href="#m5a7d422ac3" y="21.318125"/>
      </g>
     </g>
     <g id="text_7">
      <!-- 300 -->
      <defs>
       <path d="
M40.5781 39.3125
Q47.6562 37.7969 51.625 33
Q55.6094 28.2188 55.6094 21.1875
Q55.6094 10.4062 48.1875 4.48438
Q40.7656 -1.42188 27.0938 -1.42188
Q22.5156 -1.42188 17.6562 -0.515625
Q12.7969 0.390625 7.625 2.20312
L7.625 11.7188
Q11.7188 9.32812 16.5938 8.10938
Q21.4844 6.89062 26.8125 6.89062
Q36.0781 6.89062 40.9375 10.5469
Q45.7969 14.2031 45.7969 21.1875
Q45.7969 27.6406 41.2812 31.2656
Q36.7656 34.9062 28.7188 34.9062
L20.2188 34.9062
L20.2188 43.0156
L29.1094 43.0156
Q36.375 43.0156 40.2344 45.9219
Q44.0938 48.8281 44.0938 54.2969
Q44.0938 59.9062 40.1094 62.9062
Q36.1406 65.9219 28.7188 65.9219
Q24.6562 65.9219 20.0156 65.0312
Q15.375 64.1562 9.8125 62.3125
L9.8125 71.0938
Q15.4375 72.6562 20.3438 73.4375
Q25.25 74.2188 29.5938 74.2188
Q40.8281 74.2188 47.3594 69.1094
Q53.9062 64.0156 53.9062 55.3281
Q53.9062 49.2656 50.4375 45.0938
Q46.9688 40.9219 40.5781 39.3125" id="BitstreamVeraSans-Roman-33"/>
      </defs>
      <g transform="translate(306.975738442 256.1165625)scale(0.1 -0.1)">
       <use xlink:href="#BitstreamVeraSans-Roman-33"/>
       <use x="63.623046875" xlink:href="#BitstreamVeraSans-Roman-30"/>
       <use x="127.24609375" xlink:href="#BitstreamVeraSans-Roman-30"/>
      </g>
     </g>
    </g>
    <g id="xtick_8">
     <g id="line2d_19">
      <g>
       <use style="stroke:#000000;stroke-width:0.5;" x="361.66922089" xlink:href="#mc7db9fdffb" y="244.518125"/>
      </g>
     </g>
     <g id="line2d_20">
      <g>
       <use style="stroke:#000000;stroke-width:0.5;" x="361.66922089" xlink:href="#m5a7d422ac3" y="21.318125"/>
      </g>
     </g>
     <g id="text_8">
      <!-- 350 -->
      <g transform="translate(352.83875214 256.1165625)scale(0.1 -0.1)">
       <use xlink:href="#BitstreamVeraSans-Roman-33"/>
       <use x="63.623046875" xlink:href="#BitstreamVeraSans-Roman-35"/>
       <use x="127.24609375" xlink:href="#BitstreamVeraSans-Roman-30"/>
      </g>
     </g>
    </g>
    <g id="text_9">
     <!-- Julian day -->
     <defs>
      <path d="
M54.8906 33.0156
L54.8906 0
L45.9062 0
L45.9062 32.7188
Q45.9062 40.4844 42.875 44.3281
Q39.8438 48.1875 33.7969 48.1875
Q26.5156 48.1875 22.3125 43.5469
Q18.1094 38.9219 18.1094 30.9062
L18.1094 0
L9.07812 0
L9.07812 54.6875
L18.1094 54.6875
L18.1094 46.1875
Q21.3438 51.125 25.7031 53.5625
Q30.0781 56 35.7969 56
Q45.2188 56 50.0469 50.1719
Q54.8906 44.3438 54.8906 33.0156" id="BitstreamVeraSans-Roman-6e"/>
      <path d="
M8.5 21.5781
L8.5 54.6875
L17.4844 54.6875
L17.4844 21.9219
Q17.4844 14.1562 20.5 10.2656
Q23.5312 6.39062 29.5938 6.39062
Q36.8594 6.39062 41.0781 11.0312
Q45.3125 15.6719 45.3125 23.6875
L45.3125 54.6875
L54.2969 54.6875
L54.2969 0
L45.3125 0
L45.3125 8.40625
Q42.0469 3.42188 37.7188 1
Q33.4062 -1.42188 27.6875 -1.42188
Q18.2656 -1.42188 13.375 4.4375
Q8.5 10.2969 8.5 21.5781" id="BitstreamVeraSans-Roman-75"/>
      <path d="
M9.8125 72.9062
L19.6719 72.9062
L19.6719 5.07812
Q19.6719 -8.10938 14.6719 -14.0625
Q9.67188 -20.0156 -1.42188 -20.0156
L-5.17188 -20.0156
L-5.17188 -11.7188
L-2.09375 -11.7188
Q4.4375 -11.7188 7.125 -8.04688
Q9.8125 -4.39062 9.8125 5.07812
z
" id="BitstreamVeraSans-Roman-4a"/>
      <path d="
M45.4062 46.3906
L45.4062 75.9844
L54.3906 75.9844
L54.3906 0
L45.4062 0
L45.4062 8.20312
Q42.5781 3.32812 38.25 0.953125
Q33.9375 -1.42188 27.875 -1.42188
Q17.9688 -1.42188 11.7344 6.48438
Q5.51562 14.4062 5.51562 27.2969
Q5.51562 40.1875 11.7344 48.0938
Q17.9688 56 27.875 56
Q33.9375 56 38.25 53.625
Q42.5781 51.2656 45.4062 46.3906
M14.7969 27.2969
Q14.7969 17.3906 18.875 11.75
Q22.9531 6.10938 30.0781 6.10938
Q37.2031 6.10938 41.2969 11.75
Q45.4062 17.3906 45.4062 27.2969
Q45.4062 37.2031 41.2969 42.8438
Q37.2031 48.4844 30.0781 48.4844
Q22.9531 48.4844 18.875 42.8438
Q14.7969 37.2031 14.7969 27.2969" id="BitstreamVeraSans-Roman-64"/>
      <path d="
M9.42188 75.9844
L18.4062 75.9844
L18.4062 0
L9.42188 0
z
" id="BitstreamVeraSans-Roman-6c"/>
      <path d="
M32.1719 -5.07812
Q28.375 -14.8438 24.75 -17.8125
Q21.1406 -20.7969 15.0938 -20.7969
L7.90625 -20.7969
L7.90625 -13.2812
L13.1875 -13.2812
Q16.8906 -13.2812 18.9375 -11.5156
Q21 -9.76562 23.4844 -3.21875
L25.0938 0.875
L2.98438 54.6875
L12.5 54.6875
L29.5938 11.9219
L46.6875 54.6875
L56.2031 54.6875
z
" id="BitstreamVeraSans-Roman-79"/>
      <path d="
M34.2812 27.4844
Q23.3906 27.4844 19.1875 25
Q14.9844 22.5156 14.9844 16.5
Q14.9844 11.7188 18.1406 8.90625
Q21.2969 6.10938 26.7031 6.10938
Q34.1875 6.10938 38.7031 11.4062
Q43.2188 16.7031 43.2188 25.4844
L43.2188 27.4844
z

M52.2031 31.2031
L52.2031 0
L43.2188 0
L43.2188 8.29688
Q40.1406 3.32812 35.5469 0.953125
Q30.9531 -1.42188 24.3125 -1.42188
Q15.9219 -1.42188 10.9531 3.29688
Q6 8.01562 6 15.9219
Q6 25.1406 12.1719 29.8281
Q18.3594 34.5156 30.6094 34.5156
L43.2188 34.5156
L43.2188 35.4062
Q43.2188 41.6094 39.1406 45
Q35.0625 48.3906 27.6875 48.3906
Q23 48.3906 18.5469 47.2656
Q14.1094 46.1406 10.0156 43.8906
L10.0156 52.2031
Q14.9375 54.1094 19.5781 55.0469
Q24.2188 56 28.6094 56
Q40.4844 56 46.3438 49.8438
Q52.2031 43.7031 52.2031 31.2031" id="BitstreamVeraSans-Roman-61"/>
      <path d="
M9.42188 54.6875
L18.4062 54.6875
L18.4062 0
L9.42188 0
z

M9.42188 75.9844
L18.4062 75.9844
L18.4062 64.5938
L9.42188 64.5938
z
" id="BitstreamVeraSans-Roman-69"/>
      <path id="BitstreamVeraSans-Roman-20"/>
     </defs>
     <g transform="translate(183.47734375 270.7946875)scale(0.1 -0.1)">
      <use xlink:href="#BitstreamVeraSans-Roman-4a"/>
      <use x="29.4921875" xlink:href="#BitstreamVeraSans-Roman-75"/>
      <use x="92.87109375" xlink:href="#BitstreamVeraSans-Roman-6c"/>
      <use x="120.654296875" xlink:href="#BitstreamVeraSans-Roman-69"/>
      <use x="148.4375" xlink:href="#BitstreamVeraSans-Roman-61"/>
      <use x="209.716796875" xlink:href="#BitstreamVeraSans-Roman-6e"/>
      <use x="273.095703125" xlink:href="#BitstreamVeraSans-Roman-20"/>
      <use x="304.8828125" xlink:href="#BitstreamVeraSans-Roman-64"/>
      <use x="368.359375" xlink:href="#BitstreamVeraSans-Roman-61"/>
      <use x="429.638671875" xlink:href="#BitstreamVeraSans-Roman-79"/>
     </g>
    </g>
   </g>
   <g id="matplotlib.axis_2">
    <g id="ytick_1">
     <g id="line2d_21">
      <defs>
       <path d="
M0 0
L4 0" id="md7965d1ba0" style="stroke:#000000;stroke-width:0.5;"/>
      </defs>
      <g>
       <use style="stroke:#000000;stroke-width:0.5;" x="40.628125" xlink:href="#md7965d1ba0" y="244.518125"/>
      </g>
     </g>
     <g id="line2d_22">
      <defs>
       <path d="
M0 0
L-4 0" id="md9a1c1a7cd" style="stroke:#000000;stroke-width:0.5;"/>
      </defs>
      <g>
       <use style="stroke:#000000;stroke-width:0.5;" x="375.428125" xlink:href="#md9a1c1a7cd" y="244.518125"/>
      </g>
     </g>
     <g id="text_10">
      <!-- 0.0 -->
      <defs>
       <path d="
M10.6875 12.4062
L21 12.4062
L21 0
L10.6875 0
z
" id="BitstreamVeraSans-Roman-2e"/>
      </defs>
      <g transform="translate(22.0484375 247.2775)scale(0.1 -0.1)">
       <use xlink:href="#BitstreamVeraSans-Roman-30"/>
       <use x="63.623046875" xlink:href="#BitstreamVeraSans-Roman-2e"/>
       <use x="95.41015625" xlink:href="#BitstreamVeraSans-Roman-30"/>
      </g>
     </g>
    </g>
    <g id="ytick_2">
     <g id="line2d_23">
      <g>
       <use style="stroke:#000000;stroke-width:0.5;" x="40.628125" xlink:href="#md7965d1ba0" y="216.618125"/>
      </g>
     </g>
     <g id="line2d_24">
      <g>
       <use style="stroke:#000000;stroke-width:0.5;" x="375.428125" xlink:href="#md9a1c1a7cd" y="216.618125"/>
      </g>
     </g>
     <g id="text_11">
      <!-- 0.5 -->
      <g transform="translate(22.2578125 219.3775)scale(0.1 -0.1)">
       <use xlink:href="#BitstreamVeraSans-Roman-30"/>
       <use x="63.623046875" xlink:href="#BitstreamVeraSans-Roman-2e"/>
       <use x="95.41015625" xlink:href="#BitstreamVeraSans-Roman-35"/>
      </g>
     </g>
    </g>
    <g id="ytick_3">
     <g id="line2d_25">
      <g>
       <use style="stroke:#000000;stroke-width:0.5;" x="40.628125" xlink:href="#md7965d1ba0" y="188.718125"/>
      </g>
     </g>
     <g id="line2d_26">
      <g>
       <use style="stroke:#000000;stroke-width:0.5;" x="375.428125" xlink:href="#md9a1c1a7cd" y="188.718125"/>
      </g>
     </g>
     <g id="text_12">
      <!-- 1.0 -->
      <g transform="translate(22.4875 191.4775)scale(0.1 -0.1)">
       <use xlink:href="#BitstreamVeraSans-Roman-31"/>
       <use x="63.623046875" xlink:href="#BitstreamVeraSans-Roman-2e"/>
       <use x="95.41015625" xlink:href="#BitstreamVeraSans-Roman-30"/>
      </g>
     </g>
    </g>
    <g id="ytick_4">
     <g id="line2d_27">
      <g>
       <use style="stroke:#000000;stroke-width:0.5;" x="40.628125" xlink:href="#md7965d1ba0" y="160.818125"/>
      </g>
     </g>
     <g id="line2d_28">
      <g>
       <use style="stroke:#000000;stroke-width:0.5;" x="375.428125" xlink:href="#md9a1c1a7cd" y="160.818125"/>
      </g>
     </g>
     <g id="text_13">
      <!-- 1.5 -->
      <g transform="translate(22.696875 163.5775)scale(0.1 -0.1)">
       <use xlink:href="#BitstreamVeraSans-Roman-31"/>
       <use x="63.623046875" xlink:href="#BitstreamVeraSans-Roman-2e"/>
       <use x="95.41015625" xlink:href="#BitstreamVeraSans-Roman-35"/>
      </g>
     </g>
    </g>
    <g id="ytick_5">
     <g id="line2d_29">
      <g>
       <use style="stroke:#000000;stroke-width:0.5;" x="40.628125" xlink:href="#md7965d1ba0" y="132.918125"/>
      </g>
     </g>
     <g id="line2d_30">
      <g>
       <use style="stroke:#000000;stroke-width:0.5;" x="375.428125" xlink:href="#md9a1c1a7cd" y="132.918125"/>
      </g>
     </g>
     <g id="text_14">
      <!-- 2.0 -->
      <g transform="translate(22.121875 135.6775)scale(0.1 -0.1)">
       <use xlink:href="#BitstreamVeraSans-Roman-32"/>
       <use x="63.623046875" xlink:href="#BitstreamVeraSans-Roman-2e"/>
       <use x="95.41015625" xlink:href="#BitstreamVeraSans-Roman-30"/>
      </g>
     </g>
    </g>
    <g id="ytick_6">
     <g id="line2d_31">
      <g>
       <use style="stroke:#000000;stroke-width:0.5;" x="40.628125" xlink:href="#md7965d1ba0" y="105.018125"/>
      </g>
     </g>
     <g id="line2d_32">
      <g>
       <use style="stroke:#000000;stroke-width:0.5;" x="375.428125" xlink:href="#md9a1c1a7cd" y="105.018125"/>
      </g>
     </g>
     <g id="text_15">
      <!-- 2.5 -->
      <g transform="translate(22.33125 107.7775)scale(0.1 -0.1)">
       <use xlink:href="#BitstreamVeraSans-Roman-32"/>
       <use x="63.623046875" xlink:href="#BitstreamVeraSans-Roman-2e"/>
       <use x="95.41015625" xlink:href="#BitstreamVeraSans-Roman-35"/>
      </g>
     </g>
    </g>
    <g id="ytick_7">
     <g id="line2d_33">
      <g>
       <use style="stroke:#000000;stroke-width:0.5;" x="40.628125" xlink:href="#md7965d1ba0" y="77.118125"/>
      </g>
     </g>
     <g id="line2d_34">
      <g>
       <use style="stroke:#000000;stroke-width:0.5;" x="375.428125" xlink:href="#md9a1c1a7cd" y="77.118125"/>
      </g>
     </g>
     <g id="text_16">
      <!-- 3.0 -->
      <g transform="translate(22.1515625 79.8775)scale(0.1 -0.1)">
       <use xlink:href="#BitstreamVeraSans-Roman-33"/>
       <use x="63.623046875" xlink:href="#BitstreamVeraSans-Roman-2e"/>
       <use x="95.41015625" xlink:href="#BitstreamVeraSans-Roman-30"/>
      </g>
     </g>
    </g>
    <g id="ytick_8">
     <g id="line2d_35">
      <g>
       <use style="stroke:#000000;stroke-width:0.5;" x="40.628125" xlink:href="#md7965d1ba0" y="49.218125"/>
      </g>
     </g>
     <g id="line2d_36">
      <g>
       <use style="stroke:#000000;stroke-width:0.5;" x="375.428125" xlink:href="#md9a1c1a7cd" y="49.218125"/>
      </g>
     </g>
     <g id="text_17">
      <!-- 3.5 -->
      <g transform="translate(22.3609375 51.9775)scale(0.1 -0.1)">
       <use xlink:href="#BitstreamVeraSans-Roman-33"/>
       <use x="63.623046875" xlink:href="#BitstreamVeraSans-Roman-2e"/>
       <use x="95.41015625" xlink:href="#BitstreamVeraSans-Roman-35"/>
      </g>
     </g>
    </g>
    <g id="ytick_9">
     <g id="line2d_37">
      <g>
       <use style="stroke:#000000;stroke-width:0.5;" x="40.628125" xlink:href="#md7965d1ba0" y="21.318125"/>
      </g>
     </g>
     <g id="line2d_38">
      <g>
       <use style="stroke:#000000;stroke-width:0.5;" x="375.428125" xlink:href="#md9a1c1a7cd" y="21.318125"/>
      </g>
     </g>
     <g id="text_18">
      <!-- 4.0 -->
      <defs>
       <path d="
M37.7969 64.3125
L12.8906 25.3906
L37.7969 25.3906
z

M35.2031 72.9062
L47.6094 72.9062
L47.6094 25.3906
L58.0156 25.3906
L58.0156 17.1875
L47.6094 17.1875
L47.6094 0
L37.7969 0
L37.7969 17.1875
L4.89062 17.1875
L4.89062 26.7031
z
" id="BitstreamVeraSans-Roman-34"/>
      </defs>
      <g transform="translate(21.878125 24.0775)scale(0.1 -0.1)">
       <use xlink:href="#BitstreamVeraSans-Roman-34"/>
       <use x="63.623046875" xlink:href="#BitstreamVeraSans-Roman-2e"/>
       <use x="95.41015625" xlink:href="#BitstreamVeraSans-Roman-30"/>
      </g>
     </g>
    </g>
    <g id="text_19">
     <!-- PET (mm/day) -->
     <defs>
      <path d="
M-0.296875 72.9062
L61.375 72.9062
L61.375 64.5938
L35.5 64.5938
L35.5 0
L25.5938 0
L25.5938 64.5938
L-0.296875 64.5938
z
" id="BitstreamVeraSans-Roman-54"/>
      <path d="
M9.8125 72.9062
L55.9062 72.9062
L55.9062 64.5938
L19.6719 64.5938
L19.6719 43.0156
L54.3906 43.0156
L54.3906 34.7188
L19.6719 34.7188
L19.6719 8.29688
L56.7812 8.29688
L56.7812 0
L9.8125 0
z
" id="BitstreamVeraSans-Roman-45"/>
      <path d="
M25.3906 72.9062
L33.6875 72.9062
L8.29688 -9.28125
L0 -9.28125
z
" id="BitstreamVeraSans-Roman-2f"/>
      <path d="
M19.6719 64.7969
L19.6719 37.4062
L32.0781 37.4062
Q38.9688 37.4062 42.7188 40.9688
Q46.4844 44.5312 46.4844 51.125
Q46.4844 57.6719 42.7188 61.2344
Q38.9688 64.7969 32.0781 64.7969
z

M9.8125 72.9062
L32.0781 72.9062
Q44.3438 72.9062 50.6094 67.3594
Q56.8906 61.8125 56.8906 51.125
Q56.8906 40.3281 50.6094 34.8125
Q44.3438 29.2969 32.0781 29.2969
L19.6719 29.2969
L19.6719 0
L9.8125 0
z
" id="BitstreamVeraSans-Roman-50"/>
      <path d="
M31 75.875
Q24.4688 64.6562 21.2812 53.6562
Q18.1094 42.6719 18.1094 31.3906
Q18.1094 20.125 21.3125 9.0625
Q24.5156 -2 31 -13.1875
L23.1875 -13.1875
Q15.875 -1.70312 12.2344 9.375
Q8.59375 20.4531 8.59375 31.3906
Q8.59375 42.2812 12.2031 53.3125
Q15.8281 64.3594 23.1875 75.875
z
" id="BitstreamVeraSans-Roman-28"/>
      <path d="
M52 44.1875
Q55.375 50.25 60.0625 53.125
Q64.75 56 71.0938 56
Q79.6406 56 84.2812 50.0156
Q88.9219 44.0469 88.9219 33.0156
L88.9219 0
L79.8906 0
L79.8906 32.7188
Q79.8906 40.5781 77.0938 44.375
Q74.3125 48.1875 68.6094 48.1875
Q61.625 48.1875 57.5625 43.5469
Q53.5156 38.9219 53.5156 30.9062
L53.5156 0
L44.4844 0
L44.4844 32.7188
Q44.4844 40.625 41.7031 44.4062
Q38.9219 48.1875 33.1094 48.1875
Q26.2188 48.1875 22.1562 43.5312
Q18.1094 38.875 18.1094 30.9062
L18.1094 0
L9.07812 0
L9.07812 54.6875
L18.1094 54.6875
L18.1094 46.1875
Q21.1875 51.2188 25.4844 53.6094
Q29.7812 56 35.6875 56
Q41.6562 56 45.8281 52.9688
Q50 49.9531 52 44.1875" id="BitstreamVeraSans-Roman-6d"/>
      <path d="
M8.01562 75.875
L15.8281 75.875
Q23.1406 64.3594 26.7812 53.3125
Q30.4219 42.2812 30.4219 31.3906
Q30.4219 20.4531 26.7812 9.375
Q23.1406 -1.70312 15.8281 -13.1875
L8.01562 -13.1875
Q14.5 -2 17.7031 9.0625
Q20.9062 20.125 20.9062 31.3906
Q20.9062 42.6719 17.7031 53.6562
Q14.5 64.6562 8.01562 75.875" id="BitstreamVeraSans-Roman-29"/>
     </defs>
     <g transform="translate(14.7984375 167.82984375)rotate(-90.0)scale(0.1 -0.1)">
      <use xlink:href="#BitstreamVeraSans-Roman-50"/>
      <use x="60.302734375" xlink:href="#BitstreamVeraSans-Roman-45"/>
      <use x="123.486328125" xlink:href="#BitstreamVeraSans-Roman-54"/>
      <use x="184.5703125" xlink:href="#BitstreamVeraSans-Roman-20"/>
      <use x="216.357421875" xlink:href="#BitstreamVeraSans-Roman-28"/>
      <use x="255.37109375" xlink:href="#BitstreamVeraSans-Roman-6d"/>
      <use x="352.783203125" xlink:href="#BitstreamVeraSans-Roman-6d"/>
      <use x="450.1953125" xlink:href="#BitstreamVeraSans-Roman-2f"/>
      <use x="483.88671875" xlink:href="#BitstreamVeraSans-Roman-64"/>
      <use x="547.36328125" xlink:href="#BitstreamVeraSans-Roman-61"/>
      <use x="608.642578125" xlink:href="#BitstreamVeraSans-Roman-79"/>
      <use x="667.822265625" xlink:href="#BitstreamVeraSans-Roman-29"/>
     </g>
    </g>
   </g>
   <g id="text_20">
    <!-- daily shrub PET at SCR -->
    <defs>
     <path d="
M18.3125 70.2188
L18.3125 54.6875
L36.8125 54.6875
L36.8125 47.7031
L18.3125 47.7031
L18.3125 18.0156
Q18.3125 11.3281 20.1406 9.42188
Q21.9688 7.51562 27.5938 7.51562
L36.8125 7.51562
L36.8125 0
L27.5938 0
Q17.1875 0 13.2344 3.875
Q9.28125 7.76562 9.28125 18.0156
L9.28125 47.7031
L2.6875 47.7031
L2.6875 54.6875
L9.28125 54.6875
L9.28125 70.2188
z
" id="BitstreamVeraSans-Roman-74"/>
     <path d="
M64.4062 67.2812
L64.4062 56.8906
Q59.4219 61.5312 53.7812 63.8125
Q48.1406 66.1094 41.7969 66.1094
Q29.2969 66.1094 22.6562 58.4688
Q16.0156 50.8281 16.0156 36.375
Q16.0156 21.9688 22.6562 14.3281
Q29.2969 6.6875 41.7969 6.6875
Q48.1406 6.6875 53.7812 8.98438
Q59.4219 11.2812 64.4062 15.9219
L64.4062 5.60938
Q59.2344 2.09375 53.4375 0.328125
Q47.6562 -1.42188 41.2188 -1.42188
Q24.6562 -1.42188 15.125 8.70312
Q5.60938 18.8438 5.60938 36.375
Q5.60938 53.9531 15.125 64.0781
Q24.6562 74.2188 41.2188 74.2188
Q47.75 74.2188 53.5312 72.4844
Q59.3281 70.75 64.4062 67.2812" id="BitstreamVeraSans-Roman-43"/>
     <path d="
M54.8906 33.0156
L54.8906 0
L45.9062 0
L45.9062 32.7188
Q45.9062 40.4844 42.875 44.3281
Q39.8438 48.1875 33.7969 48.1875
Q26.5156 48.1875 22.3125 43.5469
Q18.1094 38.9219 18.1094 30.9062
L18.1094 0
L9.07812 0
L9.07812 75.9844
L18.1094 75.9844
L18.1094 46.1875
Q21.3438 51.125 25.7031 53.5625
Q30.0781 56 35.7969 56
Q45.2188 56 50.0469 50.1719
Q54.8906 44.3438 54.8906 33.0156" id="BitstreamVeraSans-Roman-68"/>
     <path d="
M53.5156 70.5156
L53.5156 60.8906
Q47.9062 63.5781 42.9219 64.8906
Q37.9375 66.2188 33.2969 66.2188
Q25.25 66.2188 20.875 63.0938
Q16.5 59.9688 16.5 54.2031
Q16.5 49.3594 19.4062 46.8906
Q22.3125 44.4375 30.4219 42.9219
L36.375 41.7031
Q47.4062 39.5938 52.6562 34.2969
Q57.9062 29 57.9062 20.125
Q57.9062 9.51562 50.7969 4.04688
Q43.7031 -1.42188 29.9844 -1.42188
Q24.8125 -1.42188 18.9688 -0.25
Q13.1406 0.921875 6.89062 3.21875
L6.89062 13.375
Q12.8906 10.0156 18.6562 8.29688
Q24.4219 6.59375 29.9844 6.59375
Q38.4219 6.59375 43.0156 9.90625
Q47.6094 13.2344 47.6094 19.3906
Q47.6094 24.75 44.3125 27.7812
Q41.0156 30.8125 33.5 32.3281
L27.4844 33.5
Q16.4531 35.6875 11.5156 40.375
Q6.59375 45.0625 6.59375 53.4219
Q6.59375 63.0938 13.4062 68.6562
Q20.2188 74.2188 32.1719 74.2188
Q37.3125 74.2188 42.625 73.2812
Q47.9531 72.3594 53.5156 70.5156" id="BitstreamVeraSans-Roman-53"/>
     <path d="
M44.2812 53.0781
L44.2812 44.5781
Q40.4844 46.5312 36.375 47.5
Q32.2812 48.4844 27.875 48.4844
Q21.1875 48.4844 17.8438 46.4375
Q14.5 44.3906 14.5 40.2812
Q14.5 37.1562 16.8906 35.375
Q19.2812 33.5938 26.5156 31.9844
L29.5938 31.2969
Q39.1562 29.25 43.1875 25.5156
Q47.2188 21.7812 47.2188 15.0938
Q47.2188 7.46875 41.1875 3.01562
Q35.1562 -1.42188 24.6094 -1.42188
Q20.2188 -1.42188 15.4531 -0.5625
Q10.6875 0.296875 5.42188 2
L5.42188 11.2812
Q10.4062 8.6875 15.2344 7.39062
Q20.0625 6.10938 24.8125 6.10938
Q31.1562 6.10938 34.5625 8.28125
Q37.9844 10.4531 37.9844 14.4062
Q37.9844 18.0625 35.5156 20.0156
Q33.0625 21.9688 24.7031 23.7812
L21.5781 24.5156
Q13.2344 26.2656 9.51562 29.9062
Q5.8125 33.5469 5.8125 39.8906
Q5.8125 47.6094 11.2812 51.7969
Q16.75 56 26.8125 56
Q31.7812 56 36.1719 55.2656
Q40.5781 54.5469 44.2812 53.0781" id="BitstreamVeraSans-Roman-73"/>
     <path d="
M41.1094 46.2969
Q39.5938 47.1719 37.8125 47.5781
Q36.0312 48 33.8906 48
Q26.2656 48 22.1875 43.0469
Q18.1094 38.0938 18.1094 28.8125
L18.1094 0
L9.07812 0
L9.07812 54.6875
L18.1094 54.6875
L18.1094 46.1875
Q20.9531 51.1719 25.4844 53.5781
Q30.0312 56 36.5312 56
Q37.4531 56 38.5781 55.875
Q39.7031 55.7656 41.0625 55.5156
z
" id="BitstreamVeraSans-Roman-72"/>
     <path d="
M44.3906 34.1875
Q47.5625 33.1094 50.5625 29.5938
Q53.5625 26.0781 56.5938 19.9219
L66.6094 0
L56 0
L46.6875 18.7031
Q43.0625 26.0312 39.6719 28.4219
Q36.2812 30.8125 30.4219 30.8125
L19.6719 30.8125
L19.6719 0
L9.8125 0
L9.8125 72.9062
L32.0781 72.9062
Q44.5781 72.9062 50.7344 67.6719
Q56.8906 62.4531 56.8906 51.9062
Q56.8906 45.0156 53.6875 40.4688
Q50.4844 35.9375 44.3906 34.1875
M19.6719 64.7969
L19.6719 38.9219
L32.0781 38.9219
Q39.2031 38.9219 42.8438 42.2188
Q46.4844 45.5156 46.4844 51.9062
Q46.4844 58.2969 42.8438 61.5469
Q39.2031 64.7969 32.0781 64.7969
z
" id="BitstreamVeraSans-Roman-52"/>
     <path d="
M48.6875 27.2969
Q48.6875 37.2031 44.6094 42.8438
Q40.5312 48.4844 33.4062 48.4844
Q26.2656 48.4844 22.1875 42.8438
Q18.1094 37.2031 18.1094 27.2969
Q18.1094 17.3906 22.1875 11.75
Q26.2656 6.10938 33.4062 6.10938
Q40.5312 6.10938 44.6094 11.75
Q48.6875 17.3906 48.6875 27.2969
M18.1094 46.3906
Q20.9531 51.2656 25.2656 53.625
Q29.5938 56 35.5938 56
Q45.5625 56 51.7812 48.0938
Q58.0156 40.1875 58.0156 27.2969
Q58.0156 14.4062 51.7812 6.48438
Q45.5625 -1.42188 35.5938 -1.42188
Q29.5938 -1.42188 25.2656 0.953125
Q20.9531 3.32812 18.1094 8.20312
L18.1094 0
L9.07812 0
L9.07812 75.9844
L18.1094 75.9844
z
" id="BitstreamVeraSans-Roman-62"/>
    </defs>
    <g transform="translate(139.9253125 16.318125)scale(0.12 -0.12)">
     <use xlink:href="#BitstreamVeraSans-Roman-64"/>
     <use x="63.4765625" xlink:href="#BitstreamVeraSans-Roman-61"/>
     <use x="124.755859375" xlink:href="#BitstreamVeraSans-Roman-69"/>
     <use x="152.5390625" xlink:href="#BitstreamVeraSans-Roman-6c"/>
     <use x="180.322265625" xlink:href="#BitstreamVeraSans-Roman-79"/>
     <use x="239.501953125" xlink:href="#BitstreamVeraSans-Roman-20"/>
     <use x="271.2890625" xlink:href="#BitstreamVeraSans-Roman-73"/>
     <use x="323.388671875" xlink:href="#BitstreamVeraSans-Roman-68"/>
     <use x="386.767578125" xlink:href="#BitstreamVeraSans-Roman-72"/>
     <use x="427.880859375" xlink:href="#BitstreamVeraSans-Roman-75"/>
     <use x="491.259765625" xlink:href="#BitstreamVeraSans-Roman-62"/>
     <use x="554.736328125" xlink:href="#BitstreamVeraSans-Roman-20"/>
     <use x="586.5234375" xlink:href="#BitstreamVeraSans-Roman-50"/>
     <use x="646.826171875" xlink:href="#BitstreamVeraSans-Roman-45"/>
     <use x="710.009765625" xlink:href="#BitstreamVeraSans-Roman-54"/>
     <use x="771.09375" xlink:href="#BitstreamVeraSans-Roman-20"/>
     <use x="802.880859375" xlink:href="#BitstreamVeraSans-Roman-61"/>
     <use x="864.16015625" xlink:href="#BitstreamVeraSans-Roman-74"/>
     <use x="903.369140625" xlink:href="#BitstreamVeraSans-Roman-20"/>
     <use x="935.15625" xlink:href="#BitstreamVeraSans-Roman-53"/>
     <use x="998.6328125" xlink:href="#BitstreamVeraSans-Roman-43"/>
     <use x="1068.45703125" xlink:href="#BitstreamVeraSans-Roman-52"/>
    </g>
   </g>
   <g id="legend_1">
    <g id="patch_7">
     <path d="
M297.364 101.373
L369.428 101.373
L369.428 27.3181
L297.364 27.3181
z
" style="fill:#ffffff;stroke:#000000;stroke-linejoin:miter;"/>
    </g>
    <g id="line2d_39">
     <path d="
M305.764 37.0363
L322.564 37.0363" style="fill:none;stroke:#0000ff;stroke-linecap:square;"/>
    </g>
    <g id="line2d_40"/>
    <g id="text_21">
     <!-- 2010 -->
     <g transform="translate(335.764375 41.23625)scale(0.12 -0.12)">
      <use xlink:href="#BitstreamVeraSans-Roman-32"/>
      <use x="63.623046875" xlink:href="#BitstreamVeraSans-Roman-30"/>
      <use x="127.24609375" xlink:href="#BitstreamVeraSans-Roman-31"/>
      <use x="190.869140625" xlink:href="#BitstreamVeraSans-Roman-30"/>
     </g>
    </g>
    <g id="line2d_41">
     <path d="
M305.764 54.65
L322.564 54.65" style="fill:none;stroke:#008000;stroke-linecap:square;"/>
    </g>
    <g id="line2d_42"/>
    <g id="text_22">
     <!-- 2011 -->
     <g transform="translate(335.764375 58.85)scale(0.12 -0.12)">
      <use xlink:href="#BitstreamVeraSans-Roman-32"/>
      <use x="63.623046875" xlink:href="#BitstreamVeraSans-Roman-30"/>
      <use x="127.24609375" xlink:href="#BitstreamVeraSans-Roman-31"/>
      <use x="190.869140625" xlink:href="#BitstreamVeraSans-Roman-31"/>
     </g>
    </g>
    <g id="line2d_43">
     <path d="
M305.764 72.2638
L322.564 72.2638" style="fill:none;stroke:#ff0000;stroke-linecap:square;"/>
    </g>
    <g id="line2d_44"/>
    <g id="text_23">
     <!-- 2012 -->
     <g transform="translate(335.764375 76.46375)scale(0.12 -0.12)">
      <use xlink:href="#BitstreamVeraSans-Roman-32"/>
      <use x="63.623046875" xlink:href="#BitstreamVeraSans-Roman-30"/>
      <use x="127.24609375" xlink:href="#BitstreamVeraSans-Roman-31"/>
      <use x="190.869140625" xlink:href="#BitstreamVeraSans-Roman-32"/>
     </g>
    </g>
    <g id="line2d_45">
     <path d="
M305.764 89.8775
L322.564 89.8775" style="fill:none;stroke:#00bfbf;stroke-linecap:square;"/>
    </g>
    <g id="line2d_46"/>
    <g id="text_24">
     <!-- 2013 -->
     <g transform="translate(335.764375 94.0775)scale(0.12 -0.12)">
      <use xlink:href="#BitstreamVeraSans-Roman-32"/>
      <use x="63.623046875" xlink:href="#BitstreamVeraSans-Roman-30"/>
      <use x="127.24609375" xlink:href="#BitstreamVeraSans-Roman-31"/>
      <use x="190.869140625" xlink:href="#BitstreamVeraSans-Roman-33"/>
     </g>
    </g>
   </g>
  </g>
 </g>
 <defs>
  <clipPath id="p2d16512a00">
   <rect height="223.2" width="334.8" x="40.628125" y="21.318125"/>
  </clipPath>
 </defs>
</svg>
