<?xml version="1.0" encoding="utf-8" standalone="no"?>
<!DOCTYPE svg PUBLIC "-//W3C//DTD SVG 1.1//EN"
  "http://www.w3.org/Graphics/SVG/1.1/DTD/svg11.dtd">
<!-- Created with matplotlib (http://matplotlib.org/) -->
<svg height="280pt" version="1.1" viewBox="0 0 396 280" width="396pt" xmlns="http://www.w3.org/2000/svg" xmlns:xlink="http://www.w3.org/1999/xlink">
 <defs>
  <style type="text/css">
*{stroke-linecap:butt;stroke-linejoin:round;}
  </style>
 </defs>
 <g id="figure_1">
  <g id="patch_1">
   <path d="
M0 280.074
L396.916 280.074
L396.916 0
L0 0
z
" style="fill:#ffffff;"/>
  </g>
  <g id="axes_1">
   <g id="patch_2">
    <path d="
M43.8125 244.518
L311.653 244.518
L311.653 21.3181
L43.8125 21.3181
z
" style="fill:#ffffff;"/>
   </g>
   <g id="line2d_1">
    <path clip-path="url(#pf0709b6b74)" d="
M251.686 244.518
L252.133 244.518
L252.311 244.197
L254.841 244.125
L254.989 243.996
L255.109 243.938
L255.287 242.83
L255.674 233.899
L255.882 231.838
L256.269 231.743
L256.448 231.427
L256.626 231.38
L256.716 230.155
L257.013 228.372
L257.102 228.333
L257.251 228.105
L258.204 228.007
L258.561 227.929
L260.257 227.929
L260.674 225.25
L265.495 225.25
L265.614 222.631
L265.852 218.515
L266.03 218.409
L266.179 218.091
L266.328 217.904
L267.34 217.701
L267.548 217.254
L267.608 217.171
L267.816 216.724
L268.084 215.887
L270.613 215.831
L270.822 214.632
L271.536 214.216
L271.596 214.216
L271.715 213.599
L274.066 213.516
L274.214 213.376
L274.304 213.181
L274.453 213.041
L274.661 212.958
L274.78 212.707
L275.107 211.842
L275.226 211.764
L275.494 211.339
L275.673 210.887
L275.762 210.809
L276 209.286
L276.298 207.93
L276.417 207.746
L276.714 206.25
L277.012 206.25
L277.19 205.271
L279.006 205.174
L279.214 204.839
L279.869 204.747
L280.166 204.448
L280.285 204.448
L280.494 203.72
L280.613 203.541
L280.732 202.916
L281.238 202.916
L281.476 201.856
L281.922 201.761
L282.428 201.139
L282.666 199.951
L282.815 197.362
L283.232 197.261
L283.321 196.55
L283.47 196.05
L283.946 195.941
L284.154 195.922
L284.363 194.965
L284.898 194.772
L285.047 194.636
L285.434 194.613
L285.583 194.329
L285.791 194.259
L285.94 194.081
L286.237 193.796
L286.624 192.247
L287.249 192.153
L288.053 191.815
L288.737 191.731
L289.333 191.131
L289.957 191.062
L290.285 190.281
L290.523 190.183
L291.594 190.13
L291.743 190.002
L291.832 189.974
L291.862 189.862
L292.249 184.522
L294.183 184.413
L294.392 184.394
L294.6 184.321
L295.046 183.808
L295.106 183.752
L295.255 182.887
L295.493 181.654
L295.731 181.241
L295.999 178.507
L299.987 178.403
L300.671 177.712
L301.028 176.763
L301.802 176.582
L301.861 176.534
L302.1 174.274
L302.397 171.758
L302.546 171.456
L302.963 169.21
L304.48 169.21
L304.48 169.21" style="fill:none;stroke:#0000ff;stroke-linecap:square;"/>
   </g>
   <g id="line2d_2">
    <path clip-path="url(#pf0709b6b74)" d="
M43.8125 244.518
L44.1994 244.49
L44.2291 244.351
L44.3482 243.514
L51.0739 243.43
L51.2227 243.388
L51.5501 243.291
L51.7584 243.257
L52.6215 243.154
L52.7107 243.062
L53.0679 241.851
L53.3655 240.754
L53.7821 240.646
L53.9011 240.495
L54.0499 240.495
L54.1987 240.355
L54.5559 240.355
L54.7047 239.407
L54.913 234.72
L55.2403 231.199
L55.4189 230.763
L56.1034 230.685
L56.4605 230.582
L56.52 230.37
L56.8176 229.391
L56.9962 229.349
L58.5139 229.288
L58.8711 227.167
L60.6269 227.075
L60.7757 226.617
L60.9543 226.578
L61.0733 226.442
L70.5667 226.378
L70.6858 226.272
L75.3879 226.174
L75.5962 226.154
L76.9949 226.154
L77.1735 224.932
L77.352 224.907
L77.3818 224.907
L77.5603 223.415
L78.0067 223.398
L78.1555 223.166
L78.5127 223.102
L78.6317 222.22
L78.9888 222.145
L79.1376 222.092
L79.3162 221.755
L79.4947 221.236
L79.6138 221.183
L80.0602 220.061
L80.5661 219.983
L80.7149 219.924
L81.2208 219.824
L81.7267 219.266
L82.5898 219.177
L82.7981 218.197
L83.185 218.175
L83.304 218.008
L86.8752 217.963
L87.024 217.857
L87.0835 217.751
L87.2323 217.528
L87.3514 216.696
L87.5299 216.35
L88.9584 216.286
L89.3453 214.297
L89.7322 213.686
L89.7917 213.669
L89.9703 213.323
L90.1191 213.287
L90.4167 213.178
L90.6547 212.129
L90.8333 211.685
L91.2797 211.685
L91.369 210.91
L91.5178 210.201
L92.857 210.134
L93.0653 207.799
L94.4045 207.779
L94.5831 207.21
L94.9997 207.113
L95.2378 205.69
L95.2675 205.662
L95.4759 204.323
L96.1306 204.239
L96.2496 203.904
L96.3984 202.453
L96.4877 202.453
L96.5175 202.258
L96.7258 198.24
L96.9043 197.794
L96.9639 197.71
L97.0829 196.092
L97.2019 195.478
L97.2317 195.45
L97.4698 194.418
L97.8567 194.418
L97.9757 194.083
L98.928 194
L99.0768 193.218
L99.1661 193.218
L99.2851 192.939
L99.4637 192.911
L100.089 192.828
L100.237 192.66
L100.446 191.237
L100.535 191.07
L100.981 187.806
L101.22 187.806
L101.339 187.666
L102.38 187.61
L102.469 187.471
L102.708 184.96
L102.856 184.904
L103.094 184.904
L103.273 182.644
L103.481 182.644
L103.63 181.556
L103.809 181.556
L103.957 181.361
L104.196 180.384
L104.582 176.032
L104.91 175.865
L104.94 175.865
L105.059 175.753
L105.148 175.753
L105.297 174.274
L106.398 174.246
L106.487 173.828
L106.636 173.409
L106.725 172.684
L106.933 171.345
L107.201 171.317
L107.32 171.205
L109.046 171.205
L109.255 170.564
L110.981 170.536
L111.07 169.81
L111.249 167.941
L111.368 167.857
L112.201 167.774
L112.35 166.769
L113.897 166.685
L114.373 165.988
L116.933 165.932
L116.963 165.876
L117.111 165.318
L117.23 165.207
L118.659 165.179
L118.837 164.9
L118.897 164.9
L119.046 164.147
L119.343 164.147
L119.433 162.752
L119.611 159.989
L119.79 159.962
L120.266 159.962
L120.742 158.232
L122.2 158.176
L122.319 157.339
L122.468 157.199
L122.706 153.21
L122.736 153.182
L122.855 152.903
L125.176 152.903
L125.325 152.456
L125.414 152.456
L125.593 151.368
L125.623 151.201
L125.742 149.694
L125.772 149.694
L125.92 148.941
L127.706 148.885
L127.944 148.244
L128.182 148.244
L128.331 148.104
L129.224 148.076
L129.343 147.909
L130.801 147.909
L130.92 147.407
L133.628 147.379
L133.807 146.095
L133.837 146.067
L134.075 144.617
L134.61 144.533
L134.878 137.558
L134.997 137.363
L138.777 137.307
L138.896 137.223
L139.372 137.139
L139.491 136.637
L139.669 136.609
L139.818 136.609
L139.937 136.414
L139.967 136.414
L140.324 133.373
L140.384 133.261
L140.622 130.081
L140.741 129.969
L141.663 129.941
L141.782 129.802
L142.05 129.802
L142.169 129.244
L144.461 129.244
L144.58 129.132
L145.532 129.132
L145.651 129.02
L147.199 129.02
L147.407 123.552
L147.467 123.524
L147.586 122.715
L147.764 122.715
L147.913 122.492
L148.3 122.408
L148.687 119.06
L149.341 119.004
L149.49 118.781
L149.669 118.753
L149.937 118.725
L150.085 117.665
L150.264 117.47
L152.288 117.386
L152.496 116.103
L152.645 116.047
L152.883 114.959
L155.918 114.931
L155.948 114.596
L156.097 108.57
L156.246 107.984
L156.424 107.956
L157.258 107.956
L157.377 107.063
L157.436 107.063
L157.585 106.645
L160.263 106.645
L160.472 105.919
L160.591 105.78
L160.71 105.752
L160.829 105.668
L164.192 105.668
L164.37 103.994
L164.43 103.994
L164.549 103.297
L167.287 103.297
L167.436 102.097
L171.661 102.097
L171.781 101.957
L171.929 101.957
L172.138 101.539
L177.852 101.483
L177.971 100.423
L224.991 100.367
L225.11 99.028
L225.944 98.9443
L226.212 98.8327
L227.878 98.749
L228.116 97.4377
L235.05 97.3819
L235.199 97.3261
L241.181 97.2703
L241.449 96.6286
L241.657 96.6007
L241.717 96.1264
L242.044 90.8533
L242.074 90.8533
L242.252 88.931
L242.52 88.9115
L242.966 86.5009
L243.591 86.4172
L243.74 86.2944
L245.615 86.2944
L245.645 86.074
L245.883 80.7116
L246.032 79.4757
L246.21 79.4227
L249.752 79.4227
L249.811 78.2425
L249.99 75.0647
L260.197 74.9949
L260.406 73.7506
L262.31 73.6669
L262.489 73.5525
L263.441 73.4911
L263.679 72.629
L263.888 72.3584
L264.781 72.2886
L265.108 71.7251
L268.828 71.7251
L269.096 71.0582
L269.453 70.9494
L269.631 69.9395
L272.488 69.853
L272.667 69.7442
L272.697 69.7218
L273.024 68.3324
L273.441 68.3324
L273.56 68.0088
L273.709 68.0088
L273.828 67.8358
L275.97 67.7381
L276.06 67.5819
L276.179 67.4285
L277.161 67.3196
L277.429 67.289
L278.083 67.2415
L278.262 66.9095
L281.744 66.8649
L281.863 66.5663
L301.088 66.4631
L301.237 66.0614
L301.653 66.0614
L302.367 60.6767
L302.516 60.6264
L302.903 60.5232
L303.052 59.8369
L303.111 59.8145
L303.23 59.2733
L303.409 59.184
L303.439 59.0975
L303.647 56.5447
L303.707 56.5447
L303.855 55.903
L304.48 55.903
L304.48 55.903" style="fill:none;stroke:#0055d4;stroke-linecap:square;"/>
   </g>
   <g id="line2d_3">
    <path clip-path="url(#pf0709b6b74)" d="
M43.8125 244.518
L50.5383 244.434
L50.7763 244.211
L56.1034 244.155
L56.1629 243.095
L56.3712 238.408
L56.4605 236.929
L56.8771 229.396
L56.9367 229.368
L57.0259 227.834
L57.1747 224.681
L57.2045 224.653
L57.4128 218.236
L57.6509 218.236
L57.6807 217.957
L57.7997 209.811
L57.8592 209.811
L57.9783 208.667
L58.3354 202.389
L58.3949 202.389
L58.633 201.803
L59.3175 201.747
L59.8234 200.269
L60.0019 200.241
L60.865 200.157
L61.1923 199.264
L61.8173 199.209
L62.2637 196.586
L64.5552 196.586
L64.704 196.223
L66.2515 196.167
L66.3111 195.972
L66.5491 194.493
L71.1322 194.438
L71.3405 194.159
L71.8762 194.131
L72.025 193.991
L73.1856 193.963
L73.2749 193.405
L73.4237 192.847
L75.8938 192.792
L76.0723 191.285
L78.2746 191.257
L78.6317 190.281
L79.8816 190.225
L80.1792 189.053
L80.2387 188.969
L80.3875 188.076
L80.7744 181.436
L80.9232 181.241
L81.072 180.767
L81.3696 180.711
L81.6077 179.567
L83.1552 179.567
L83.3933 178.702
L85.9229 178.674
L86.0122 177.865
L86.161 177.307
L86.3098 176.861
L86.7264 176.777
L86.8752 176.637
L86.9943 175.41
L87.1431 174.629
L90.2976 174.573
L90.4762 173.959
L94.1962 173.959
L94.345 173.68
L94.4045 173.68
L94.5533 173.401
L95.6247 173.373
L96.0413 171.95
L96.0711 171.894
L96.3687 169.579
L96.3984 169.579
L96.6067 168.379
L96.7258 167.988
L96.8448 167.905
L97.1722 165.477
L97.321 165.394
L97.3507 165.282
L97.4995 163.469
L97.5591 163.441
L97.7674 161.683
L97.8864 161.683
L98.065 160.26
L98.184 160.26
L98.5411 155.517
L98.8685 155.433
L99.1959 154.345
L99.2554 154.345
L99.4339 153.955
L100.505 153.899
L100.595 153.508
L100.862 152.532
L102.708 152.532
L102.827 152.392
L104.374 152.392
L104.463 151.667
L104.612 150.774
L104.701 150.746
L105.059 147.315
L106.011 147.315
L106.338 143.715
L106.844 143.66
L107.023 143.102
L107.172 142.99
L107.261 142.99
L107.797 140.591
L107.826 140.591
L108.124 139.168
L109.017 139.14
L109.314 138.61
L112.141 138.61
L112.261 138.414
L116.397 138.414
L116.516 137.41
L118.004 137.354
L118.123 137.271
L119.849 137.215
L120.236 135.318
L120.802 135.318
L120.891 134.397
L121.04 133.616
L121.784 133.532
L121.813 133.504
L121.992 132.304
L125.176 132.221
L125.295 132.137
L125.712 132.137
L125.831 131.579
L126.456 131.579
L126.605 129.933
L126.724 129.877
L126.873 128.094
L126.932 128.066
L127.141 119.465
L127.17 119.334
L127.319 118.011
L127.736 117.065
L129.759 117.065
L129.878 116.354
L130.027 115.461
L131.872 115.461
L131.962 114.68
L132.081 113.726
L132.11 113.726
L132.289 112.691
L132.735 112.654
L133.033 111.145
L145.354 111.092
L145.592 110.096
L147.526 110.021
L147.675 109.058
L147.794 108.91
L147.913 107.644
L148.181 107.644
L148.717 105.97
L148.806 105.97
L148.955 105.718
L149.252 105.718
L149.371 105.607
L155.561 105.607
L155.829 102.181
L155.948 101.957
L157.317 101.941
L157.436 101.779
L158.24 101.692
L158.418 99.9822
L158.537 99.3628
L179.191 99.3377
L179.578 95.3675
L182.941 95.2587
L184.696 95.2029
L209.308 95.0941
L209.546 94.9741
L209.903 94.8932
L211.093 94.8904
L234.217 94.829
L234.455 94.4887
L248.204 94.4887
L248.383 93.6907
L249.662 93.6907
L249.841 93.3448
L250.198 93.2611
L250.436 89.0063
L250.496 89.0063
L250.615 87.3016
L253.174 87.2151
L253.293 86.9138
L254.781 86.9138
L254.989 84.5228
L255.168 84.3944
L255.317 84.3944
L255.347 84.2801
L255.495 83.3845
L255.674 82.7428
L256.329 82.6591
L256.597 81.9058
L258.501 81.8779
L258.68 81.571
L258.709 81.571
L258.858 81.1804
L258.948 81.1246
L259.067 80.8456
L259.096 80.8456
L259.394 78.9763
L261.775 78.9205
L261.924 78.2788
L267.518 78.2509
L267.697 77.8324
L268.59 77.7487
L268.798 77.6929
L269.929 77.6371
L270.137 77.2744
L270.375 77.0233
L272.637 76.9396
L272.756 76.6327
L273.47 76.6327
L273.798 74.9587
L273.828 74.8471
L273.976 72.6151
L274.453 72.5314
L274.572 72.2524
L275.048 72.2245
L275.197 71.5828
L275.435 71.5828
L275.702 70.9132
L276.208 70.9132
L276.387 70.0762
L278.351 70.0483
L278.619 68.9881
L278.887 66.784
L279.036 66.6724
L281.535 66.5887
L281.714 65.389
L282.517 65.3332
L282.875 63.6592
L283.023 62.1526
L283.857 62.0968
L284.125 61.762
L284.273 59.9485
L285.315 59.9206
L285.345 59.809
L285.493 58.972
L285.702 58.9162
L286.059 55.1497
L286.208 52.9177
L286.297 52.8619
L286.416 52.7224
L288.083 52.7224
L288.291 51.8017
L288.559 51.8017
L288.708 51.4948
L289.094 51.2716
L289.452 51.2437
L289.541 50.7973
L289.69 49.8766
L289.957 49.8487
L290.077 49.7092
L290.91 49.7092
L290.969 49.0675
L291.178 46.5007
L293.737 46.4728
L293.916 45.7195
L294.064 44.7709
L294.213 44.743
L294.481 44.1571
L294.6 44.1571
L294.749 43.4875
L297.011 43.4317
L297.159 43.2922
L297.874 43.2085
L298.052 43.1806
L298.588 43.1248
L298.737 42.5668
L298.856 42.5668
L299.005 41.7577
L299.183 41.7577
L299.243 41.0602
L299.391 39.9163
L299.451 39.8605
L299.659 38.1586
L300.731 38.1586
L300.969 37.2937
L301.415 37.21
L301.564 37.1542
L303.617 37.0705
L303.974 36.373
L305.195 36.373
L305.195 36.373" style="fill:none;stroke:#00aaaa;stroke-linecap:square;"/>
   </g>
   <g id="line2d_4">
    <path clip-path="url(#pf0709b6b74)" d="
M43.8125 244.518
L48.336 244.518
L48.6931 241.784
L49.0503 241.756
L49.3181 241.282
L50.2407 241.254
L50.8954 238.157
L51.3418 237.515
L53.5738 237.432
L53.7226 237.376
L60.2698 237.376
L60.4186 235.785
L60.5674 235.032
L60.7162 234.976
L60.9543 234.893
L61.1328 234.865
L61.5197 234.809
L61.6983 232.772
L61.8471 232.689
L61.9661 232.382
L62.0851 232.382
L62.353 231.573
L63.3648 231.517
L63.7517 228.727
L64.0493 226.551
L64.4957 226.551
L64.7338 225.686
L64.7933 225.63
L65.1504 224.904
L71.0131 224.849
L71.1619 224.374
L77.2925 224.374
L77.5901 223.482
L79.0483 223.398
L79.3459 223.258
L80.8042 223.175
L80.9232 223.091
L81.4589 223.007
L81.4887 222.951
L81.9648 218.627
L82.3517 218.571
L82.4707 218.487
L83.3933 218.487
L83.6016 217.427
L83.6909 217.427
L83.8099 217.148
L85.536 217.065
L85.6551 216.841
L86.0419 214.442
L86.1907 214.358
L87.5299 214.302
L87.7085 213.884
L89.881 213.856
L90 212.796
L97.2912 212.768
L97.4103 212.656
L97.44 212.656
L97.5591 212.517
L99.553 212.489
L99.6125 212.238
L99.7613 211.457
L99.7911 211.457
L99.9399 211.094
L100.029 211.038
L100.208 209.95
L100.892 209.95
L101.101 209.559
L101.22 209.532
L101.428 209.085
L103.987 209.001
L104.166 208.695
L110.921 208.639
L111.1 208.304
L111.249 206.993
L111.695 206.993
L111.874 206.658
L111.963 206.658
L112.112 205.988
L112.35 205.988
L112.618 202.78
L112.677 202.78
L112.856 201.747
L112.885 201.747
L113.064 201.301
L115.088 201.217
L115.237 201.162
L116.814 201.162
L116.992 200.576
L121.129 200.548
L121.337 199.125
L121.635 193.461
L121.843 192.206
L122.022 192.178
L132.11 192.122
L132.17 192.038
L132.289 191.536
L133.539 191.536
L133.658 190.615
L134.283 190.615
L134.432 190.364
L134.997 190.364
L135.116 189.081
L141.336 189.081
L141.455 188.969
L147.794 188.886
L147.943 188.662
L148.032 188.579
L148.211 187.351
L148.568 187.295
L148.806 185.007
L149.193 182.887
L149.758 182.887
L149.907 181.269
L149.937 181.269
L150.145 180.878
L160.829 180.822
L161.007 180.683
L164.579 180.683
L164.698 180.376
L164.757 180.376
L164.876 179.651
L164.906 179.651
L165.055 178.2
L168.12 178.2
L168.269 177.614
L168.477 177.614
L168.626 176.247
L168.745 175.298
L169.162 175.242
L169.668 172.257
L174.518 172.257
L174.637 172.034
L184.369 172.034
L184.488 171.504
L200.945 171.42
L201.064 171.336
L210.707 171.336
L210.826 170.22
L211.034 170.22
L211.183 169.858
L212.135 169.858
L212.284 169.635
L212.849 169.635
L212.968 169.523
L214.694 169.439
L214.873 169.411
L218.95 169.328
L219.039 169.16
L219.218 167.821
L219.516 167.821
L219.664 166.677
L220.349 166.677
L220.498 165.868
L225.676 165.812
L225.795 165.533
L225.825 165.533
L225.973 165.143
L226.479 165.143
L226.598 164.919
L227.134 164.919
L227.253 164.752
L233.086 164.696
L233.235 164.64
L234.128 164.585
L234.425 162.381
L234.782 162.353
L235.14 159.395
L235.229 159.339
L235.437 158.475
L235.675 158.419
L235.854 157.386
L237.699 157.303
L238.116 156.131
L238.294 156.103
L238.532 154.345
L239.098 154.345
L239.246 154.066
L240.437 154.011
L240.556 153.704
L258.114 153.62
L258.263 152.95
L258.412 152.95
L258.471 152.42
L258.739 148.961
L260.644 148.961
L260.882 148.068
L262.043 148.012
L262.072 147.956
L262.221 147.008
L262.578 147.008
L262.727 146.45
L262.965 146.226
L264.185 146.171
L264.423 145.306
L264.572 144.608
L265.346 144.552
L265.703 144.106
L265.792 144.05
L265.941 143.883
L271.596 143.799
L271.655 143.464
L271.953 139.977
L272.25 138.917
L273.947 138.833
L274.066 135.513
L274.244 133.42
L274.274 133.392
L274.482 129.933
L274.839 121.842
L282.517 121.786
L282.607 121.033
L282.815 118.271
L283.529 118.243
L283.708 117.964
L284.601 117.908
L284.72 117.824
L286.535 117.741
L287.071 116.067
L291.505 115.983
L291.684 115.871
L296.415 115.871
L296.832 113.416
L297.546 113.388
L297.814 112.886
L297.993 112.802
L298.231 112.579
L298.737 112.495
L298.856 112.188
L303.736 112.133
L303.885 112.077
L304.48 112.021
L304.48 112.021" style="fill:none;stroke:#0000ff;stroke-linecap:square;"/>
   </g>
   <g id="patch_3">
    <path d="
M311.653 244.518
L311.653 21.3181" style="fill:none;stroke:#000000;stroke-linecap:square;stroke-linejoin:miter;"/>
   </g>
   <g id="patch_4">
    <path d="
M43.8125 244.518
L311.653 244.518" style="fill:none;stroke:#000000;stroke-linecap:square;stroke-linejoin:miter;"/>
   </g>
   <g id="patch_5">
    <path d="
M43.8125 244.518
L43.8125 21.3181" style="fill:none;stroke:#000000;stroke-linecap:square;stroke-linejoin:miter;"/>
   </g>
   <g id="patch_6">
    <path d="
M43.8125 21.3181
L311.653 21.3181" style="fill:none;stroke:#000000;stroke-linecap:square;stroke-linejoin:miter;"/>
   </g>
   <g id="matplotlib.axis_1">
    <g id="xtick_1">
     <g id="line2d_5">
      <defs>
       <path d="
M0 0
L0 -4" id="mc7db9fdffb" style="stroke:#000000;stroke-width:0.5;"/>
      </defs>
      <g>
       <use style="stroke:#000000;stroke-width:0.5;" x="43.8125" xlink:href="#mc7db9fdffb" y="244.518125"/>
      </g>
     </g>
     <g id="line2d_6">
      <defs>
       <path d="
M0 0
L0 4" id="m5a7d422ac3" style="stroke:#000000;stroke-width:0.5;"/>
      </defs>
      <g>
       <use style="stroke:#000000;stroke-width:0.5;" x="43.8125" xlink:href="#m5a7d422ac3" y="21.318125"/>
      </g>
     </g>
     <g id="text_1">
      <!-- 0 -->
      <defs>
       <path d="
M31.7812 66.4062
Q24.1719 66.4062 20.3281 58.9062
Q16.5 51.4219 16.5 36.375
Q16.5 21.3906 20.3281 13.8906
Q24.1719 6.39062 31.7812 6.39062
Q39.4531 6.39062 43.2812 13.8906
Q47.125 21.3906 47.125 36.375
Q47.125 51.4219 43.2812 58.9062
Q39.4531 66.4062 31.7812 66.4062
M31.7812 74.2188
Q44.0469 74.2188 50.5156 64.5156
Q56.9844 54.8281 56.9844 36.375
Q56.9844 17.9688 50.5156 8.26562
Q44.0469 -1.42188 31.7812 -1.42188
Q19.5312 -1.42188 13.0625 8.26562
Q6.59375 17.9688 6.59375 36.375
Q6.59375 54.8281 13.0625 64.5156
Q19.5312 74.2188 31.7812 74.2188" id="BitstreamVeraSans-Roman-30"/>
      </defs>
      <g transform="translate(41.29296875 256.1165625)scale(0.1 -0.1)">
       <use xlink:href="#BitstreamVeraSans-Roman-30"/>
      </g>
     </g>
    </g>
    <g id="xtick_2">
     <g id="line2d_7">
      <g>
       <use style="stroke:#000000;stroke-width:0.5;" x="73.5725" xlink:href="#mc7db9fdffb" y="244.518125"/>
      </g>
     </g>
     <g id="line2d_8">
      <g>
       <use style="stroke:#000000;stroke-width:0.5;" x="73.5725" xlink:href="#m5a7d422ac3" y="21.318125"/>
      </g>
     </g>
     <g id="text_2">
      <!-- 1000 -->
      <defs>
       <path d="
M12.4062 8.29688
L28.5156 8.29688
L28.5156 63.9219
L10.9844 60.4062
L10.9844 69.3906
L28.4219 72.9062
L38.2812 72.9062
L38.2812 8.29688
L54.3906 8.29688
L54.3906 0
L12.4062 0
z
" id="BitstreamVeraSans-Roman-31"/>
      </defs>
      <g transform="translate(61.72875 256.1165625)scale(0.1 -0.1)">
       <use xlink:href="#BitstreamVeraSans-Roman-31"/>
       <use x="63.623046875" xlink:href="#BitstreamVeraSans-Roman-30"/>
       <use x="127.24609375" xlink:href="#BitstreamVeraSans-Roman-30"/>
       <use x="190.869140625" xlink:href="#BitstreamVeraSans-Roman-30"/>
      </g>
     </g>
    </g>
    <g id="xtick_3">
     <g id="line2d_9">
      <g>
       <use style="stroke:#000000;stroke-width:0.5;" x="103.3325" xlink:href="#mc7db9fdffb" y="244.518125"/>
      </g>
     </g>
     <g id="line2d_10">
      <g>
       <use style="stroke:#000000;stroke-width:0.5;" x="103.3325" xlink:href="#m5a7d422ac3" y="21.318125"/>
      </g>
     </g>
     <g id="text_3">
      <!-- 2000 -->
      <defs>
       <path d="
M19.1875 8.29688
L53.6094 8.29688
L53.6094 0
L7.32812 0
L7.32812 8.29688
Q12.9375 14.1094 22.625 23.8906
Q32.3281 33.6875 34.8125 36.5312
Q39.5469 41.8438 41.4219 45.5312
Q43.3125 49.2188 43.3125 52.7812
Q43.3125 58.5938 39.2344 62.25
Q35.1562 65.9219 28.6094 65.9219
Q23.9688 65.9219 18.8125 64.3125
Q13.6719 62.7031 7.8125 59.4219
L7.8125 69.3906
Q13.7656 71.7812 18.9375 73
Q24.125 74.2188 28.4219 74.2188
Q39.75 74.2188 46.4844 68.5469
Q53.2188 62.8906 53.2188 53.4219
Q53.2188 48.9219 51.5312 44.8906
Q49.8594 40.875 45.4062 35.4062
Q44.1875 33.9844 37.6406 27.2188
Q31.1094 20.4531 19.1875 8.29688" id="BitstreamVeraSans-Roman-32"/>
      </defs>
      <g transform="translate(91.3059375 256.1165625)scale(0.1 -0.1)">
       <use xlink:href="#BitstreamVeraSans-Roman-32"/>
       <use x="63.623046875" xlink:href="#BitstreamVeraSans-Roman-30"/>
       <use x="127.24609375" xlink:href="#BitstreamVeraSans-Roman-30"/>
       <use x="190.869140625" xlink:href="#BitstreamVeraSans-Roman-30"/>
      </g>
     </g>
    </g>
    <g id="xtick_4">
     <g id="line2d_11">
      <g>
       <use style="stroke:#000000;stroke-width:0.5;" x="133.0925" xlink:href="#mc7db9fdffb" y="244.518125"/>
      </g>
     </g>
     <g id="line2d_12">
      <g>
       <use style="stroke:#000000;stroke-width:0.5;" x="133.0925" xlink:href="#m5a7d422ac3" y="21.318125"/>
      </g>
     </g>
     <g id="text_4">
      <!-- 3000 -->
      <defs>
       <path d="
M40.5781 39.3125
Q47.6562 37.7969 51.625 33
Q55.6094 28.2188 55.6094 21.1875
Q55.6094 10.4062 48.1875 4.48438
Q40.7656 -1.42188 27.0938 -1.42188
Q22.5156 -1.42188 17.6562 -0.515625
Q12.7969 0.390625 7.625 2.20312
L7.625 11.7188
Q11.7188 9.32812 16.5938 8.10938
Q21.4844 6.89062 26.8125 6.89062
Q36.0781 6.89062 40.9375 10.5469
Q45.7969 14.2031 45.7969 21.1875
Q45.7969 27.6406 41.2812 31.2656
Q36.7656 34.9062 28.7188 34.9062
L20.2188 34.9062
L20.2188 43.0156
L29.1094 43.0156
Q36.375 43.0156 40.2344 45.9219
Q44.0938 48.8281 44.0938 54.2969
Q44.0938 59.9062 40.1094 62.9062
Q36.1406 65.9219 28.7188 65.9219
Q24.6562 65.9219 20.0156 65.0312
Q15.375 64.1562 9.8125 62.3125
L9.8125 71.0938
Q15.4375 72.6562 20.3438 73.4375
Q25.25 74.2188 29.5938 74.2188
Q40.8281 74.2188 47.3594 69.1094
Q53.9062 64.0156 53.9062 55.3281
Q53.9062 49.2656 50.4375 45.0938
Q46.9688 40.9219 40.5781 39.3125" id="BitstreamVeraSans-Roman-33"/>
      </defs>
      <g transform="translate(121.08078125 256.1165625)scale(0.1 -0.1)">
       <use xlink:href="#BitstreamVeraSans-Roman-33"/>
       <use x="63.623046875" xlink:href="#BitstreamVeraSans-Roman-30"/>
       <use x="127.24609375" xlink:href="#BitstreamVeraSans-Roman-30"/>
       <use x="190.869140625" xlink:href="#BitstreamVeraSans-Roman-30"/>
      </g>
     </g>
    </g>
    <g id="xtick_5">
     <g id="line2d_13">
      <g>
       <use style="stroke:#000000;stroke-width:0.5;" x="162.8525" xlink:href="#mc7db9fdffb" y="244.518125"/>
      </g>
     </g>
     <g id="line2d_14">
      <g>
       <use style="stroke:#000000;stroke-width:0.5;" x="162.8525" xlink:href="#m5a7d422ac3" y="21.318125"/>
      </g>
     </g>
     <g id="text_5">
      <!-- 4000 -->
      <defs>
       <path d="
M37.7969 64.3125
L12.8906 25.3906
L37.7969 25.3906
z

M35.2031 72.9062
L47.6094 72.9062
L47.6094 25.3906
L58.0156 25.3906
L58.0156 17.1875
L47.6094 17.1875
L47.6094 0
L37.7969 0
L37.7969 17.1875
L4.89062 17.1875
L4.89062 26.7031
z
" id="BitstreamVeraSans-Roman-34"/>
      </defs>
      <g transform="translate(150.7040625 256.1165625)scale(0.1 -0.1)">
       <use xlink:href="#BitstreamVeraSans-Roman-34"/>
       <use x="63.623046875" xlink:href="#BitstreamVeraSans-Roman-30"/>
       <use x="127.24609375" xlink:href="#BitstreamVeraSans-Roman-30"/>
       <use x="190.869140625" xlink:href="#BitstreamVeraSans-Roman-30"/>
      </g>
     </g>
    </g>
    <g id="xtick_6">
     <g id="line2d_15">
      <g>
       <use style="stroke:#000000;stroke-width:0.5;" x="192.6125" xlink:href="#mc7db9fdffb" y="244.518125"/>
      </g>
     </g>
     <g id="line2d_16">
      <g>
       <use style="stroke:#000000;stroke-width:0.5;" x="192.6125" xlink:href="#m5a7d422ac3" y="21.318125"/>
      </g>
     </g>
     <g id="text_6">
      <!-- 5000 -->
      <defs>
       <path d="
M10.7969 72.9062
L49.5156 72.9062
L49.5156 64.5938
L19.8281 64.5938
L19.8281 46.7344
Q21.9688 47.4688 24.1094 47.8281
Q26.2656 48.1875 28.4219 48.1875
Q40.625 48.1875 47.75 41.5
Q54.8906 34.8125 54.8906 23.3906
Q54.8906 11.625 47.5625 5.09375
Q40.2344 -1.42188 26.9062 -1.42188
Q22.3125 -1.42188 17.5469 -0.640625
Q12.7969 0.140625 7.71875 1.70312
L7.71875 11.625
Q12.1094 9.23438 16.7969 8.0625
Q21.4844 6.89062 26.7031 6.89062
Q35.1562 6.89062 40.0781 11.3281
Q45.0156 15.7656 45.0156 23.3906
Q45.0156 31 40.0781 35.4375
Q35.1562 39.8906 26.7031 39.8906
Q22.75 39.8906 18.8125 39.0156
Q14.8906 38.1406 10.7969 36.2812
z
" id="BitstreamVeraSans-Roman-35"/>
      </defs>
      <g transform="translate(180.60546875 256.1165625)scale(0.1 -0.1)">
       <use xlink:href="#BitstreamVeraSans-Roman-35"/>
       <use x="63.623046875" xlink:href="#BitstreamVeraSans-Roman-30"/>
       <use x="127.24609375" xlink:href="#BitstreamVeraSans-Roman-30"/>
       <use x="190.869140625" xlink:href="#BitstreamVeraSans-Roman-30"/>
      </g>
     </g>
    </g>
    <g id="xtick_7">
     <g id="line2d_17">
      <g>
       <use style="stroke:#000000;stroke-width:0.5;" x="222.3725" xlink:href="#mc7db9fdffb" y="244.518125"/>
      </g>
     </g>
     <g id="line2d_18">
      <g>
       <use style="stroke:#000000;stroke-width:0.5;" x="222.3725" xlink:href="#m5a7d422ac3" y="21.318125"/>
      </g>
     </g>
     <g id="text_7">
      <!-- 6000 -->
      <defs>
       <path d="
M33.0156 40.375
Q26.375 40.375 22.4844 35.8281
Q18.6094 31.2969 18.6094 23.3906
Q18.6094 15.5312 22.4844 10.9531
Q26.375 6.39062 33.0156 6.39062
Q39.6562 6.39062 43.5312 10.9531
Q47.4062 15.5312 47.4062 23.3906
Q47.4062 31.2969 43.5312 35.8281
Q39.6562 40.375 33.0156 40.375
M52.5938 71.2969
L52.5938 62.3125
Q48.875 64.0625 45.0938 64.9844
Q41.3125 65.9219 37.5938 65.9219
Q27.8281 65.9219 22.6719 59.3281
Q17.5312 52.7344 16.7969 39.4062
Q19.6719 43.6562 24.0156 45.9219
Q28.375 48.1875 33.5938 48.1875
Q44.5781 48.1875 50.9531 41.5156
Q57.3281 34.8594 57.3281 23.3906
Q57.3281 12.1562 50.6875 5.35938
Q44.0469 -1.42188 33.0156 -1.42188
Q20.3594 -1.42188 13.6719 8.26562
Q6.98438 17.9688 6.98438 36.375
Q6.98438 53.6562 15.1875 63.9375
Q23.3906 74.2188 37.2031 74.2188
Q40.9219 74.2188 44.7031 73.4844
Q48.4844 72.75 52.5938 71.2969" id="BitstreamVeraSans-Roman-36"/>
      </defs>
      <g transform="translate(210.32875 256.1165625)scale(0.1 -0.1)">
       <use xlink:href="#BitstreamVeraSans-Roman-36"/>
       <use x="63.623046875" xlink:href="#BitstreamVeraSans-Roman-30"/>
       <use x="127.24609375" xlink:href="#BitstreamVeraSans-Roman-30"/>
       <use x="190.869140625" xlink:href="#BitstreamVeraSans-Roman-30"/>
      </g>
     </g>
    </g>
    <g id="xtick_8">
     <g id="line2d_19">
      <g>
       <use style="stroke:#000000;stroke-width:0.5;" x="252.1325" xlink:href="#mc7db9fdffb" y="244.518125"/>
      </g>
     </g>
     <g id="line2d_20">
      <g>
       <use style="stroke:#000000;stroke-width:0.5;" x="252.1325" xlink:href="#m5a7d422ac3" y="21.318125"/>
      </g>
     </g>
     <g id="text_8">
      <!-- 7000 -->
      <defs>
       <path d="
M8.20312 72.9062
L55.0781 72.9062
L55.0781 68.7031
L28.6094 0
L18.3125 0
L43.2188 64.5938
L8.20312 64.5938
z
" id="BitstreamVeraSans-Roman-37"/>
      </defs>
      <g transform="translate(240.1496875 256.1165625)scale(0.1 -0.1)">
       <use xlink:href="#BitstreamVeraSans-Roman-37"/>
       <use x="63.623046875" xlink:href="#BitstreamVeraSans-Roman-30"/>
       <use x="127.24609375" xlink:href="#BitstreamVeraSans-Roman-30"/>
       <use x="190.869140625" xlink:href="#BitstreamVeraSans-Roman-30"/>
      </g>
     </g>
    </g>
    <g id="xtick_9">
     <g id="line2d_21">
      <g>
       <use style="stroke:#000000;stroke-width:0.5;" x="281.8925" xlink:href="#mc7db9fdffb" y="244.518125"/>
      </g>
     </g>
     <g id="line2d_22">
      <g>
       <use style="stroke:#000000;stroke-width:0.5;" x="281.8925" xlink:href="#m5a7d422ac3" y="21.318125"/>
      </g>
     </g>
     <g id="text_9">
      <!-- 8000 -->
      <defs>
       <path d="
M31.7812 34.625
Q24.75 34.625 20.7188 30.8594
Q16.7031 27.0938 16.7031 20.5156
Q16.7031 13.9219 20.7188 10.1562
Q24.75 6.39062 31.7812 6.39062
Q38.8125 6.39062 42.8594 10.1719
Q46.9219 13.9688 46.9219 20.5156
Q46.9219 27.0938 42.8906 30.8594
Q38.875 34.625 31.7812 34.625
M21.9219 38.8125
Q15.5781 40.375 12.0312 44.7188
Q8.5 49.0781 8.5 55.3281
Q8.5 64.0625 14.7188 69.1406
Q20.9531 74.2188 31.7812 74.2188
Q42.6719 74.2188 48.875 69.1406
Q55.0781 64.0625 55.0781 55.3281
Q55.0781 49.0781 51.5312 44.7188
Q48 40.375 41.7031 38.8125
Q48.8281 37.1562 52.7969 32.3125
Q56.7812 27.4844 56.7812 20.5156
Q56.7812 9.90625 50.3125 4.23438
Q43.8438 -1.42188 31.7812 -1.42188
Q19.7344 -1.42188 13.25 4.23438
Q6.78125 9.90625 6.78125 20.5156
Q6.78125 27.4844 10.7812 32.3125
Q14.7969 37.1562 21.9219 38.8125
M18.3125 54.3906
Q18.3125 48.7344 21.8438 45.5625
Q25.3906 42.3906 31.7812 42.3906
Q38.1406 42.3906 41.7188 45.5625
Q45.3125 48.7344 45.3125 54.3906
Q45.3125 60.0625 41.7188 63.2344
Q38.1406 66.4062 31.7812 66.4062
Q25.3906 66.4062 21.8438 63.2344
Q18.3125 60.0625 18.3125 54.3906" id="BitstreamVeraSans-Roman-38"/>
      </defs>
      <g transform="translate(269.83859375 256.1165625)scale(0.1 -0.1)">
       <use xlink:href="#BitstreamVeraSans-Roman-38"/>
       <use x="63.623046875" xlink:href="#BitstreamVeraSans-Roman-30"/>
       <use x="127.24609375" xlink:href="#BitstreamVeraSans-Roman-30"/>
       <use x="190.869140625" xlink:href="#BitstreamVeraSans-Roman-30"/>
      </g>
     </g>
    </g>
    <g id="xtick_10">
     <g id="line2d_23">
      <g>
       <use style="stroke:#000000;stroke-width:0.5;" x="311.6525" xlink:href="#mc7db9fdffb" y="244.518125"/>
      </g>
     </g>
     <g id="line2d_24">
      <g>
       <use style="stroke:#000000;stroke-width:0.5;" x="311.6525" xlink:href="#m5a7d422ac3" y="21.318125"/>
      </g>
     </g>
     <g id="text_10">
      <!-- 9000 -->
      <defs>
       <path d="
M10.9844 1.51562
L10.9844 10.5
Q14.7031 8.73438 18.5 7.8125
Q22.3125 6.89062 25.9844 6.89062
Q35.75 6.89062 40.8906 13.4531
Q46.0469 20.0156 46.7812 33.4062
Q43.9531 29.2031 39.5938 26.9531
Q35.25 24.7031 29.9844 24.7031
Q19.0469 24.7031 12.6719 31.3125
Q6.29688 37.9375 6.29688 49.4219
Q6.29688 60.6406 12.9375 67.4219
Q19.5781 74.2188 30.6094 74.2188
Q43.2656 74.2188 49.9219 64.5156
Q56.5938 54.8281 56.5938 36.375
Q56.5938 19.1406 48.4062 8.85938
Q40.2344 -1.42188 26.4219 -1.42188
Q22.7031 -1.42188 18.8906 -0.6875
Q15.0938 0.046875 10.9844 1.51562
M30.6094 32.4219
Q37.25 32.4219 41.125 36.9531
Q45.0156 41.5 45.0156 49.4219
Q45.0156 57.2812 41.125 61.8438
Q37.25 66.4062 30.6094 66.4062
Q23.9688 66.4062 20.0938 61.8438
Q16.2188 57.2812 16.2188 49.4219
Q16.2188 41.5 20.0938 36.9531
Q23.9688 32.4219 30.6094 32.4219" id="BitstreamVeraSans-Roman-39"/>
      </defs>
      <g transform="translate(299.574375 256.1165625)scale(0.1 -0.1)">
       <use xlink:href="#BitstreamVeraSans-Roman-39"/>
       <use x="63.623046875" xlink:href="#BitstreamVeraSans-Roman-30"/>
       <use x="127.24609375" xlink:href="#BitstreamVeraSans-Roman-30"/>
       <use x="190.869140625" xlink:href="#BitstreamVeraSans-Roman-30"/>
      </g>
     </g>
    </g>
    <g id="text_11">
     <!-- hour in year -->
     <defs>
      <path d="
M30.6094 48.3906
Q23.3906 48.3906 19.1875 42.75
Q14.9844 37.1094 14.9844 27.2969
Q14.9844 17.4844 19.1562 11.8438
Q23.3438 6.20312 30.6094 6.20312
Q37.7969 6.20312 41.9844 11.8594
Q46.1875 17.5312 46.1875 27.2969
Q46.1875 37.0156 41.9844 42.7031
Q37.7969 48.3906 30.6094 48.3906
M30.6094 56
Q42.3281 56 49.0156 48.375
Q55.7188 40.7656 55.7188 27.2969
Q55.7188 13.875 49.0156 6.21875
Q42.3281 -1.42188 30.6094 -1.42188
Q18.8438 -1.42188 12.1719 6.21875
Q5.51562 13.875 5.51562 27.2969
Q5.51562 40.7656 12.1719 48.375
Q18.8438 56 30.6094 56" id="BitstreamVeraSans-Roman-6f"/>
      <path d="
M8.5 21.5781
L8.5 54.6875
L17.4844 54.6875
L17.4844 21.9219
Q17.4844 14.1562 20.5 10.2656
Q23.5312 6.39062 29.5938 6.39062
Q36.8594 6.39062 41.0781 11.0312
Q45.3125 15.6719 45.3125 23.6875
L45.3125 54.6875
L54.2969 54.6875
L54.2969 0
L45.3125 0
L45.3125 8.40625
Q42.0469 3.42188 37.7188 1
Q33.4062 -1.42188 27.6875 -1.42188
Q18.2656 -1.42188 13.375 4.4375
Q8.5 10.2969 8.5 21.5781" id="BitstreamVeraSans-Roman-75"/>
      <path d="
M56.2031 29.5938
L56.2031 25.2031
L14.8906 25.2031
Q15.4844 15.9219 20.4844 11.0625
Q25.4844 6.20312 34.4219 6.20312
Q39.5938 6.20312 44.4531 7.46875
Q49.3125 8.73438 54.1094 11.2812
L54.1094 2.78125
Q49.2656 0.734375 44.1875 -0.34375
Q39.1094 -1.42188 33.8906 -1.42188
Q20.7969 -1.42188 13.1562 6.1875
Q5.51562 13.8125 5.51562 26.8125
Q5.51562 40.2344 12.7656 48.1094
Q20.0156 56 32.3281 56
Q43.3594 56 49.7812 48.8906
Q56.2031 41.7969 56.2031 29.5938
M47.2188 32.2344
Q47.125 39.5938 43.0938 43.9844
Q39.0625 48.3906 32.4219 48.3906
Q24.9062 48.3906 20.3906 44.1406
Q15.875 39.8906 15.1875 32.1719
z
" id="BitstreamVeraSans-Roman-65"/>
      <path d="
M9.42188 54.6875
L18.4062 54.6875
L18.4062 0
L9.42188 0
z

M9.42188 75.9844
L18.4062 75.9844
L18.4062 64.5938
L9.42188 64.5938
z
" id="BitstreamVeraSans-Roman-69"/>
      <path d="
M32.1719 -5.07812
Q28.375 -14.8438 24.75 -17.8125
Q21.1406 -20.7969 15.0938 -20.7969
L7.90625 -20.7969
L7.90625 -13.2812
L13.1875 -13.2812
Q16.8906 -13.2812 18.9375 -11.5156
Q21 -9.76562 23.4844 -3.21875
L25.0938 0.875
L2.98438 54.6875
L12.5 54.6875
L29.5938 11.9219
L46.6875 54.6875
L56.2031 54.6875
z
" id="BitstreamVeraSans-Roman-79"/>
      <path d="
M54.8906 33.0156
L54.8906 0
L45.9062 0
L45.9062 32.7188
Q45.9062 40.4844 42.875 44.3281
Q39.8438 48.1875 33.7969 48.1875
Q26.5156 48.1875 22.3125 43.5469
Q18.1094 38.9219 18.1094 30.9062
L18.1094 0
L9.07812 0
L9.07812 75.9844
L18.1094 75.9844
L18.1094 46.1875
Q21.3438 51.125 25.7031 53.5625
Q30.0781 56 35.7969 56
Q45.2188 56 50.0469 50.1719
Q54.8906 44.3438 54.8906 33.0156" id="BitstreamVeraSans-Roman-68"/>
      <path d="
M41.1094 46.2969
Q39.5938 47.1719 37.8125 47.5781
Q36.0312 48 33.8906 48
Q26.2656 48 22.1875 43.0469
Q18.1094 38.0938 18.1094 28.8125
L18.1094 0
L9.07812 0
L9.07812 54.6875
L18.1094 54.6875
L18.1094 46.1875
Q20.9531 51.1719 25.4844 53.5781
Q30.0312 56 36.5312 56
Q37.4531 56 38.5781 55.875
Q39.7031 55.7656 41.0625 55.5156
z
" id="BitstreamVeraSans-Roman-72"/>
      <path d="
M54.8906 33.0156
L54.8906 0
L45.9062 0
L45.9062 32.7188
Q45.9062 40.4844 42.875 44.3281
Q39.8438 48.1875 33.7969 48.1875
Q26.5156 48.1875 22.3125 43.5469
Q18.1094 38.9219 18.1094 30.9062
L18.1094 0
L9.07812 0
L9.07812 54.6875
L18.1094 54.6875
L18.1094 46.1875
Q21.3438 51.125 25.7031 53.5625
Q30.0781 56 35.7969 56
Q45.2188 56 50.0469 50.1719
Q54.8906 44.3438 54.8906 33.0156" id="BitstreamVeraSans-Roman-6e"/>
      <path d="
M34.2812 27.4844
Q23.3906 27.4844 19.1875 25
Q14.9844 22.5156 14.9844 16.5
Q14.9844 11.7188 18.1406 8.90625
Q21.2969 6.10938 26.7031 6.10938
Q34.1875 6.10938 38.7031 11.4062
Q43.2188 16.7031 43.2188 25.4844
L43.2188 27.4844
z

M52.2031 31.2031
L52.2031 0
L43.2188 0
L43.2188 8.29688
Q40.1406 3.32812 35.5469 0.953125
Q30.9531 -1.42188 24.3125 -1.42188
Q15.9219 -1.42188 10.9531 3.29688
Q6 8.01562 6 15.9219
Q6 25.1406 12.1719 29.8281
Q18.3594 34.5156 30.6094 34.5156
L43.2188 34.5156
L43.2188 35.4062
Q43.2188 41.6094 39.1406 45
Q35.0625 48.3906 27.6875 48.3906
Q23 48.3906 18.5469 47.2656
Q14.1094 46.1406 10.0156 43.8906
L10.0156 52.2031
Q14.9375 54.1094 19.5781 55.0469
Q24.2188 56 28.6094 56
Q40.4844 56 46.3438 49.8438
Q52.2031 43.7031 52.2031 31.2031" id="BitstreamVeraSans-Roman-61"/>
      <path id="BitstreamVeraSans-Roman-20"/>
     </defs>
     <g transform="translate(147.38875 270.7946875)scale(0.1 -0.1)">
      <use xlink:href="#BitstreamVeraSans-Roman-68"/>
      <use x="63.37890625" xlink:href="#BitstreamVeraSans-Roman-6f"/>
      <use x="124.560546875" xlink:href="#BitstreamVeraSans-Roman-75"/>
      <use x="187.939453125" xlink:href="#BitstreamVeraSans-Roman-72"/>
      <use x="229.052734375" xlink:href="#BitstreamVeraSans-Roman-20"/>
      <use x="260.83984375" xlink:href="#BitstreamVeraSans-Roman-69"/>
      <use x="288.623046875" xlink:href="#BitstreamVeraSans-Roman-6e"/>
      <use x="352.001953125" xlink:href="#BitstreamVeraSans-Roman-20"/>
      <use x="383.7890625" xlink:href="#BitstreamVeraSans-Roman-79"/>
      <use x="442.96875" xlink:href="#BitstreamVeraSans-Roman-65"/>
      <use x="504.4921875" xlink:href="#BitstreamVeraSans-Roman-61"/>
      <use x="565.771484375" xlink:href="#BitstreamVeraSans-Roman-72"/>
     </g>
    </g>
   </g>
   <g id="matplotlib.axis_2">
    <g id="ytick_1">
     <g id="line2d_25">
      <defs>
       <path d="
M0 0
L4 0" id="md7965d1ba0" style="stroke:#000000;stroke-width:0.5;"/>
      </defs>
      <g>
       <use style="stroke:#000000;stroke-width:0.5;" x="43.8125" xlink:href="#md7965d1ba0" y="244.518125"/>
      </g>
     </g>
     <g id="line2d_26">
      <defs>
       <path d="
M0 0
L-4 0" id="md9a1c1a7cd" style="stroke:#000000;stroke-width:0.5;"/>
      </defs>
      <g>
       <use style="stroke:#000000;stroke-width:0.5;" x="311.6525" xlink:href="#md9a1c1a7cd" y="244.518125"/>
      </g>
     </g>
     <g id="text_12">
      <!-- 0 -->
      <g transform="translate(34.7734375 247.2775)scale(0.1 -0.1)">
       <use xlink:href="#BitstreamVeraSans-Roman-30"/>
      </g>
     </g>
    </g>
    <g id="ytick_2">
     <g id="line2d_27">
      <g>
       <use style="stroke:#000000;stroke-width:0.5;" x="43.8125" xlink:href="#md7965d1ba0" y="216.618125"/>
      </g>
     </g>
     <g id="line2d_28">
      <g>
       <use style="stroke:#000000;stroke-width:0.5;" x="311.6525" xlink:href="#md9a1c1a7cd" y="216.618125"/>
      </g>
     </g>
     <g id="text_13">
      <!-- 100 -->
      <g transform="translate(22.4875 219.3775)scale(0.1 -0.1)">
       <use xlink:href="#BitstreamVeraSans-Roman-31"/>
       <use x="63.623046875" xlink:href="#BitstreamVeraSans-Roman-30"/>
       <use x="127.24609375" xlink:href="#BitstreamVeraSans-Roman-30"/>
      </g>
     </g>
    </g>
    <g id="ytick_3">
     <g id="line2d_29">
      <g>
       <use style="stroke:#000000;stroke-width:0.5;" x="43.8125" xlink:href="#md7965d1ba0" y="188.718125"/>
      </g>
     </g>
     <g id="line2d_30">
      <g>
       <use style="stroke:#000000;stroke-width:0.5;" x="311.6525" xlink:href="#md9a1c1a7cd" y="188.718125"/>
      </g>
     </g>
     <g id="text_14">
      <!-- 200 -->
      <g transform="translate(22.121875 191.4775)scale(0.1 -0.1)">
       <use xlink:href="#BitstreamVeraSans-Roman-32"/>
       <use x="63.623046875" xlink:href="#BitstreamVeraSans-Roman-30"/>
       <use x="127.24609375" xlink:href="#BitstreamVeraSans-Roman-30"/>
      </g>
     </g>
    </g>
    <g id="ytick_4">
     <g id="line2d_31">
      <g>
       <use style="stroke:#000000;stroke-width:0.5;" x="43.8125" xlink:href="#md7965d1ba0" y="160.818125"/>
      </g>
     </g>
     <g id="line2d_32">
      <g>
       <use style="stroke:#000000;stroke-width:0.5;" x="311.6525" xlink:href="#md9a1c1a7cd" y="160.818125"/>
      </g>
     </g>
     <g id="text_15">
      <!-- 300 -->
      <g transform="translate(22.1515625 163.5775)scale(0.1 -0.1)">
       <use xlink:href="#BitstreamVeraSans-Roman-33"/>
       <use x="63.623046875" xlink:href="#BitstreamVeraSans-Roman-30"/>
       <use x="127.24609375" xlink:href="#BitstreamVeraSans-Roman-30"/>
      </g>
     </g>
    </g>
    <g id="ytick_5">
     <g id="line2d_33">
      <g>
       <use style="stroke:#000000;stroke-width:0.5;" x="43.8125" xlink:href="#md7965d1ba0" y="132.918125"/>
      </g>
     </g>
     <g id="line2d_34">
      <g>
       <use style="stroke:#000000;stroke-width:0.5;" x="311.6525" xlink:href="#md9a1c1a7cd" y="132.918125"/>
      </g>
     </g>
     <g id="text_16">
      <!-- 400 -->
      <g transform="translate(21.878125 135.6775)scale(0.1 -0.1)">
       <use xlink:href="#BitstreamVeraSans-Roman-34"/>
       <use x="63.623046875" xlink:href="#BitstreamVeraSans-Roman-30"/>
       <use x="127.24609375" xlink:href="#BitstreamVeraSans-Roman-30"/>
      </g>
     </g>
    </g>
    <g id="ytick_6">
     <g id="line2d_35">
      <g>
       <use style="stroke:#000000;stroke-width:0.5;" x="43.8125" xlink:href="#md7965d1ba0" y="105.018125"/>
      </g>
     </g>
     <g id="line2d_36">
      <g>
       <use style="stroke:#000000;stroke-width:0.5;" x="311.6525" xlink:href="#md9a1c1a7cd" y="105.018125"/>
      </g>
     </g>
     <g id="text_17">
      <!-- 500 -->
      <g transform="translate(22.1609375 107.7775)scale(0.1 -0.1)">
       <use xlink:href="#BitstreamVeraSans-Roman-35"/>
       <use x="63.623046875" xlink:href="#BitstreamVeraSans-Roman-30"/>
       <use x="127.24609375" xlink:href="#BitstreamVeraSans-Roman-30"/>
      </g>
     </g>
    </g>
    <g id="ytick_7">
     <g id="line2d_37">
      <g>
       <use style="stroke:#000000;stroke-width:0.5;" x="43.8125" xlink:href="#md7965d1ba0" y="77.118125"/>
      </g>
     </g>
     <g id="line2d_38">
      <g>
       <use style="stroke:#000000;stroke-width:0.5;" x="311.6525" xlink:href="#md9a1c1a7cd" y="77.118125"/>
      </g>
     </g>
     <g id="text_18">
      <!-- 600 -->
      <g transform="translate(22.0875 79.8775)scale(0.1 -0.1)">
       <use xlink:href="#BitstreamVeraSans-Roman-36"/>
       <use x="63.623046875" xlink:href="#BitstreamVeraSans-Roman-30"/>
       <use x="127.24609375" xlink:href="#BitstreamVeraSans-Roman-30"/>
      </g>
     </g>
    </g>
    <g id="ytick_8">
     <g id="line2d_39">
      <g>
       <use style="stroke:#000000;stroke-width:0.5;" x="43.8125" xlink:href="#md7965d1ba0" y="49.218125"/>
      </g>
     </g>
     <g id="line2d_40">
      <g>
       <use style="stroke:#000000;stroke-width:0.5;" x="311.6525" xlink:href="#md9a1c1a7cd" y="49.218125"/>
      </g>
     </g>
     <g id="text_19">
      <!-- 700 -->
      <g transform="translate(22.209375 51.9775)scale(0.1 -0.1)">
       <use xlink:href="#BitstreamVeraSans-Roman-37"/>
       <use x="63.623046875" xlink:href="#BitstreamVeraSans-Roman-30"/>
       <use x="127.24609375" xlink:href="#BitstreamVeraSans-Roman-30"/>
      </g>
     </g>
    </g>
    <g id="ytick_9">
     <g id="line2d_41">
      <g>
       <use style="stroke:#000000;stroke-width:0.5;" x="43.8125" xlink:href="#md7965d1ba0" y="21.318125"/>
      </g>
     </g>
     <g id="line2d_42">
      <g>
       <use style="stroke:#000000;stroke-width:0.5;" x="311.6525" xlink:href="#md9a1c1a7cd" y="21.318125"/>
      </g>
     </g>
     <g id="text_20">
      <!-- 800 -->
      <g transform="translate(22.0671875 24.0775)scale(0.1 -0.1)">
       <use xlink:href="#BitstreamVeraSans-Roman-38"/>
       <use x="63.623046875" xlink:href="#BitstreamVeraSans-Roman-30"/>
       <use x="127.24609375" xlink:href="#BitstreamVeraSans-Roman-30"/>
      </g>
     </g>
    </g>
    <g id="text_21">
     <!-- precip in mm -->
     <defs>
      <path d="
M18.1094 8.20312
L18.1094 -20.7969
L9.07812 -20.7969
L9.07812 54.6875
L18.1094 54.6875
L18.1094 46.3906
Q20.9531 51.2656 25.2656 53.625
Q29.5938 56 35.5938 56
Q45.5625 56 51.7812 48.0938
Q58.0156 40.1875 58.0156 27.2969
Q58.0156 14.4062 51.7812 6.48438
Q45.5625 -1.42188 35.5938 -1.42188
Q29.5938 -1.42188 25.2656 0.953125
Q20.9531 3.32812 18.1094 8.20312
M48.6875 27.2969
Q48.6875 37.2031 44.6094 42.8438
Q40.5312 48.4844 33.4062 48.4844
Q26.2656 48.4844 22.1875 42.8438
Q18.1094 37.2031 18.1094 27.2969
Q18.1094 17.3906 22.1875 11.75
Q26.2656 6.10938 33.4062 6.10938
Q40.5312 6.10938 44.6094 11.75
Q48.6875 17.3906 48.6875 27.2969" id="BitstreamVeraSans-Roman-70"/>
      <path d="
M48.7812 52.5938
L48.7812 44.1875
Q44.9688 46.2969 41.1406 47.3438
Q37.3125 48.3906 33.4062 48.3906
Q24.6562 48.3906 19.8125 42.8438
Q14.9844 37.3125 14.9844 27.2969
Q14.9844 17.2812 19.8125 11.7344
Q24.6562 6.20312 33.4062 6.20312
Q37.3125 6.20312 41.1406 7.25
Q44.9688 8.29688 48.7812 10.4062
L48.7812 2.09375
Q45.0156 0.34375 40.9844 -0.53125
Q36.9688 -1.42188 32.4219 -1.42188
Q20.0625 -1.42188 12.7812 6.34375
Q5.51562 14.1094 5.51562 27.2969
Q5.51562 40.6719 12.8594 48.3281
Q20.2188 56 33.0156 56
Q37.1562 56 41.1094 55.1406
Q45.0625 54.2969 48.7812 52.5938" id="BitstreamVeraSans-Roman-63"/>
      <path d="
M52 44.1875
Q55.375 50.25 60.0625 53.125
Q64.75 56 71.0938 56
Q79.6406 56 84.2812 50.0156
Q88.9219 44.0469 88.9219 33.0156
L88.9219 0
L79.8906 0
L79.8906 32.7188
Q79.8906 40.5781 77.0938 44.375
Q74.3125 48.1875 68.6094 48.1875
Q61.625 48.1875 57.5625 43.5469
Q53.5156 38.9219 53.5156 30.9062
L53.5156 0
L44.4844 0
L44.4844 32.7188
Q44.4844 40.625 41.7031 44.4062
Q38.9219 48.1875 33.1094 48.1875
Q26.2188 48.1875 22.1562 43.5312
Q18.1094 38.875 18.1094 30.9062
L18.1094 0
L9.07812 0
L9.07812 54.6875
L18.1094 54.6875
L18.1094 46.1875
Q21.1875 51.2188 25.4844 53.6094
Q29.7812 56 35.6875 56
Q41.6562 56 45.8281 52.9688
Q50 49.9531 52 44.1875" id="BitstreamVeraSans-Roman-6d"/>
     </defs>
     <g transform="translate(14.7984375 165.47671875)rotate(-90.0)scale(0.1 -0.1)">
      <use xlink:href="#BitstreamVeraSans-Roman-70"/>
      <use x="63.4765625" xlink:href="#BitstreamVeraSans-Roman-72"/>
      <use x="102.33984375" xlink:href="#BitstreamVeraSans-Roman-65"/>
      <use x="163.86328125" xlink:href="#BitstreamVeraSans-Roman-63"/>
      <use x="218.84375" xlink:href="#BitstreamVeraSans-Roman-69"/>
      <use x="246.626953125" xlink:href="#BitstreamVeraSans-Roman-70"/>
      <use x="310.103515625" xlink:href="#BitstreamVeraSans-Roman-20"/>
      <use x="341.890625" xlink:href="#BitstreamVeraSans-Roman-69"/>
      <use x="369.673828125" xlink:href="#BitstreamVeraSans-Roman-6e"/>
      <use x="433.052734375" xlink:href="#BitstreamVeraSans-Roman-20"/>
      <use x="464.83984375" xlink:href="#BitstreamVeraSans-Roman-6d"/>
      <use x="562.251953125" xlink:href="#BitstreamVeraSans-Roman-6d"/>
     </g>
    </g>
   </g>
   <g id="text_22">
    <!-- hourly SCR precipitation -->
    <defs>
     <path d="
M64.4062 67.2812
L64.4062 56.8906
Q59.4219 61.5312 53.7812 63.8125
Q48.1406 66.1094 41.7969 66.1094
Q29.2969 66.1094 22.6562 58.4688
Q16.0156 50.8281 16.0156 36.375
Q16.0156 21.9688 22.6562 14.3281
Q29.2969 6.6875 41.7969 6.6875
Q48.1406 6.6875 53.7812 8.98438
Q59.4219 11.2812 64.4062 15.9219
L64.4062 5.60938
Q59.2344 2.09375 53.4375 0.328125
Q47.6562 -1.42188 41.2188 -1.42188
Q24.6562 -1.42188 15.125 8.70312
Q5.60938 18.8438 5.60938 36.375
Q5.60938 53.9531 15.125 64.0781
Q24.6562 74.2188 41.2188 74.2188
Q47.75 74.2188 53.5312 72.4844
Q59.3281 70.75 64.4062 67.2812" id="BitstreamVeraSans-Roman-43"/>
     <path d="
M18.3125 70.2188
L18.3125 54.6875
L36.8125 54.6875
L36.8125 47.7031
L18.3125 47.7031
L18.3125 18.0156
Q18.3125 11.3281 20.1406 9.42188
Q21.9688 7.51562 27.5938 7.51562
L36.8125 7.51562
L36.8125 0
L27.5938 0
Q17.1875 0 13.2344 3.875
Q9.28125 7.76562 9.28125 18.0156
L9.28125 47.7031
L2.6875 47.7031
L2.6875 54.6875
L9.28125 54.6875
L9.28125 70.2188
z
" id="BitstreamVeraSans-Roman-74"/>
     <path d="
M9.42188 75.9844
L18.4062 75.9844
L18.4062 0
L9.42188 0
z
" id="BitstreamVeraSans-Roman-6c"/>
     <path d="
M44.3906 34.1875
Q47.5625 33.1094 50.5625 29.5938
Q53.5625 26.0781 56.5938 19.9219
L66.6094 0
L56 0
L46.6875 18.7031
Q43.0625 26.0312 39.6719 28.4219
Q36.2812 30.8125 30.4219 30.8125
L19.6719 30.8125
L19.6719 0
L9.8125 0
L9.8125 72.9062
L32.0781 72.9062
Q44.5781 72.9062 50.7344 67.6719
Q56.8906 62.4531 56.8906 51.9062
Q56.8906 45.0156 53.6875 40.4688
Q50.4844 35.9375 44.3906 34.1875
M19.6719 64.7969
L19.6719 38.9219
L32.0781 38.9219
Q39.2031 38.9219 42.8438 42.2188
Q46.4844 45.5156 46.4844 51.9062
Q46.4844 58.2969 42.8438 61.5469
Q39.2031 64.7969 32.0781 64.7969
z
" id="BitstreamVeraSans-Roman-52"/>
     <path d="
M53.5156 70.5156
L53.5156 60.8906
Q47.9062 63.5781 42.9219 64.8906
Q37.9375 66.2188 33.2969 66.2188
Q25.25 66.2188 20.875 63.0938
Q16.5 59.9688 16.5 54.2031
Q16.5 49.3594 19.4062 46.8906
Q22.3125 44.4375 30.4219 42.9219
L36.375 41.7031
Q47.4062 39.5938 52.6562 34.2969
Q57.9062 29 57.9062 20.125
Q57.9062 9.51562 50.7969 4.04688
Q43.7031 -1.42188 29.9844 -1.42188
Q24.8125 -1.42188 18.9688 -0.25
Q13.1406 0.921875 6.89062 3.21875
L6.89062 13.375
Q12.8906 10.0156 18.6562 8.29688
Q24.4219 6.59375 29.9844 6.59375
Q38.4219 6.59375 43.0156 9.90625
Q47.6094 13.2344 47.6094 19.3906
Q47.6094 24.75 44.3125 27.7812
Q41.0156 30.8125 33.5 32.3281
L27.4844 33.5
Q16.4531 35.6875 11.5156 40.375
Q6.59375 45.0625 6.59375 53.4219
Q6.59375 63.0938 13.4062 68.6562
Q20.2188 74.2188 32.1719 74.2188
Q37.3125 74.2188 42.625 73.2812
Q47.9531 72.3594 53.5156 70.5156" id="BitstreamVeraSans-Roman-53"/>
    </defs>
    <g transform="translate(105.5028125 16.318125)scale(0.12 -0.12)">
     <use xlink:href="#BitstreamVeraSans-Roman-68"/>
     <use x="63.37890625" xlink:href="#BitstreamVeraSans-Roman-6f"/>
     <use x="124.560546875" xlink:href="#BitstreamVeraSans-Roman-75"/>
     <use x="187.939453125" xlink:href="#BitstreamVeraSans-Roman-72"/>
     <use x="229.052734375" xlink:href="#BitstreamVeraSans-Roman-6c"/>
     <use x="256.8359375" xlink:href="#BitstreamVeraSans-Roman-79"/>
     <use x="316.015625" xlink:href="#BitstreamVeraSans-Roman-20"/>
     <use x="347.802734375" xlink:href="#BitstreamVeraSans-Roman-53"/>
     <use x="411.279296875" xlink:href="#BitstreamVeraSans-Roman-43"/>
     <use x="481.103515625" xlink:href="#BitstreamVeraSans-Roman-52"/>
     <use x="550.5859375" xlink:href="#BitstreamVeraSans-Roman-20"/>
     <use x="582.373046875" xlink:href="#BitstreamVeraSans-Roman-70"/>
     <use x="645.849609375" xlink:href="#BitstreamVeraSans-Roman-72"/>
     <use x="684.712890625" xlink:href="#BitstreamVeraSans-Roman-65"/>
     <use x="746.236328125" xlink:href="#BitstreamVeraSans-Roman-63"/>
     <use x="801.216796875" xlink:href="#BitstreamVeraSans-Roman-69"/>
     <use x="829.0" xlink:href="#BitstreamVeraSans-Roman-70"/>
     <use x="892.4765625" xlink:href="#BitstreamVeraSans-Roman-69"/>
     <use x="920.259765625" xlink:href="#BitstreamVeraSans-Roman-74"/>
     <use x="959.46875" xlink:href="#BitstreamVeraSans-Roman-61"/>
     <use x="1020.748046875" xlink:href="#BitstreamVeraSans-Roman-74"/>
     <use x="1059.95703125" xlink:href="#BitstreamVeraSans-Roman-69"/>
     <use x="1087.740234375" xlink:href="#BitstreamVeraSans-Roman-6f"/>
     <use x="1148.921875" xlink:href="#BitstreamVeraSans-Roman-6e"/>
    </g>
   </g>
   <g id="legend_1">
    <g id="patch_7">
     <path d="
M317.653 169.946
L389.716 169.946
L389.716 95.8906
L317.653 95.8906
z
" style="fill:#ffffff;stroke:#000000;stroke-linejoin:miter;"/>
    </g>
    <g id="line2d_43">
     <path d="
M326.053 105.609
L342.853 105.609" style="fill:none;stroke:#0000ff;stroke-linecap:square;"/>
    </g>
    <g id="line2d_44"/>
    <g id="text_23">
     <!-- 2010 -->
     <g transform="translate(356.0525 109.80875)scale(0.12 -0.12)">
      <use xlink:href="#BitstreamVeraSans-Roman-32"/>
      <use x="63.623046875" xlink:href="#BitstreamVeraSans-Roman-30"/>
      <use x="127.24609375" xlink:href="#BitstreamVeraSans-Roman-31"/>
      <use x="190.869140625" xlink:href="#BitstreamVeraSans-Roman-30"/>
     </g>
    </g>
    <g id="line2d_45">
     <path d="
M326.053 123.223
L342.853 123.223" style="fill:none;stroke:#0055d4;stroke-linecap:square;"/>
    </g>
    <g id="line2d_46"/>
    <g id="text_24">
     <!-- 2011 -->
     <g transform="translate(356.0525 127.4225)scale(0.12 -0.12)">
      <use xlink:href="#BitstreamVeraSans-Roman-32"/>
      <use x="63.623046875" xlink:href="#BitstreamVeraSans-Roman-30"/>
      <use x="127.24609375" xlink:href="#BitstreamVeraSans-Roman-31"/>
      <use x="190.869140625" xlink:href="#BitstreamVeraSans-Roman-31"/>
     </g>
    </g>
    <g id="line2d_47">
     <path d="
M326.053 140.836
L342.853 140.836" style="fill:none;stroke:#00aaaa;stroke-linecap:square;"/>
    </g>
    <g id="line2d_48"/>
    <g id="text_25">
     <!-- 2012 -->
     <g transform="translate(356.0525 145.03625)scale(0.12 -0.12)">
      <use xlink:href="#BitstreamVeraSans-Roman-32"/>
      <use x="63.623046875" xlink:href="#BitstreamVeraSans-Roman-30"/>
      <use x="127.24609375" xlink:href="#BitstreamVeraSans-Roman-31"/>
      <use x="190.869140625" xlink:href="#BitstreamVeraSans-Roman-32"/>
     </g>
    </g>
    <g id="line2d_49">
     <path d="
M326.053 158.45
L342.853 158.45" style="fill:none;stroke:#0000ff;stroke-linecap:square;"/>
    </g>
    <g id="line2d_50"/>
    <g id="text_26">
     <!-- 2013 -->
     <g transform="translate(356.0525 162.65)scale(0.12 -0.12)">
      <use xlink:href="#BitstreamVeraSans-Roman-32"/>
      <use x="63.623046875" xlink:href="#BitstreamVeraSans-Roman-30"/>
      <use x="127.24609375" xlink:href="#BitstreamVeraSans-Roman-31"/>
      <use x="190.869140625" xlink:href="#BitstreamVeraSans-Roman-33"/>
     </g>
    </g>
   </g>
  </g>
 </g>
 <defs>
  <clipPath id="pf0709b6b74">
   <rect height="223.2" width="267.84" x="43.8125" y="21.318125"/>
  </clipPath>
 </defs>
</svg>
