<?xml version="1.0" encoding="utf-8" standalone="no"?>
<!DOCTYPE svg PUBLIC "-//W3C//DTD SVG 1.1//EN"
  "http://www.w3.org/Graphics/SVG/1.1/DTD/svg11.dtd">
<!-- Created with matplotlib (http://matplotlib.org/) -->
<svg height="280pt" version="1.1" viewBox="0 0 399 280" width="399pt" xmlns="http://www.w3.org/2000/svg" xmlns:xlink="http://www.w3.org/1999/xlink">
 <defs>
  <style type="text/css">
*{stroke-linecap:butt;stroke-linejoin:round;}
  </style>
 </defs>
 <g id="figure_1">
  <g id="patch_1">
   <path d="
M0 280.074
L399.984 280.074
L399.984 0
L0 0
z
" style="fill:#ffffff;"/>
  </g>
  <g id="axes_1">
   <g id="patch_2">
    <path d="
M57.9844 244.518
L392.784 244.518
L392.784 21.3181
L57.9844 21.3181
z
" style="fill:#ffffff;"/>
   </g>
   <g id="line2d_1">
    <path clip-path="url(#pdf711f5425)" d="
M57.9844 133.146
L58.9016 132.935
L59.8189 126.413
L59.9814 -1
M61.4877 -1
L61.6534 129.461
L62.5707 132.676
L63.4879 133.75
L64.4052 131.263
L65.3225 132.488
L66.2397 131.519
M69.9088 132.445
L70.826 123.046
L71.7433 134.04
L72.6605 133.151
M77.2468 133.033
L78.1641 132.947
L79.9986 133.112
L80.9159 129.512
L81.1291 -1
M83.6677 133.718
L84.5849 133.36
L85.5022 131.747
L86.4194 132.927
L87.3367 137.65
L88.254 133.602
L89.1712 136.586
L90.0885 133.187
L91.0057 133.71
L91.923 125.467
L92.8403 130.042
L93.7575 129.121
L94.6748 131.713
L95.592 129.379
L96.5093 130.824
L97.1265 -1
M97.7435 -1
L98.3438 120.403
L99.2611 132.362
L100.178 132.136
L101.096 131.56
L102.013 132.528
L102.93 132.267
L103.847 132.6
L104.765 131.672
L105.682 132.817
L106.599 131.461
L107.516 124.242
L108.434 129.475
L109.351 130.827
L110.268 131.953
L111.185 130.26
L112.103 126.238
L113.02 98.9612
L113.937 128.917
L114.855 128.465
L115.772 126.854
L116.689 128.012
L117.606 128.085
L118.524 130.643
L119.441 127.201
L120.358 130.357
L121.275 125.358
L122.193 126.452
L123.11 129.716
L124.027 128.629
L124.944 131.798
L125.862 131.496
L126.779 123.774
L127.696 130.972
L128.613 130.812
L129.531 128.182
L130.448 131.218
L131.365 126.228
L132.282 128.085
L133.2 129.125
L134.117 130.983
L135.034 131.593
L135.951 132.023
L136.869 131.066
L137.786 104.448
L138.703 131.044
L139.621 128.455
L140.538 130.9
L141.455 126.516
L142.372 120.786
L143.29 128.796
L144.207 119.304
L145.124 129.373
L146.041 130.978
L146.959 127.861
L147.876 129.628
L148.793 122.466
L149.71 122.331
L150.628 126.096
L151.545 124.862
L153.379 45.946
L154.297 106.903
L155.214 119.814
L156.131 126.691
L157.048 125.088
L157.966 117.612
L158.883 131.458
L159.8 131.14
L160.718 112.898
L161.635 126.568
L162.552 127.603
L163.469 84.2507
L164.387 125.301
L165.304 124.858
L166.221 125.837
L167.138 56.0311
L168.056 30.4793
L168.973 100.071
L169.89 126.277
L170.807 123.673
L171.725 120.584
L172.642 123.15
L173.559 115.136
L174.476 115.46
L175.394 125.84
L176.281 -1
M176.346 -1
L177.228 107.521
L178.145 84.85
L179.063 98.2498
L179.98 123.822
L180.494 -1
M181.332 -1
L181.815 107.395
L182.732 121.706
L183.649 118.988
L184.566 102.699
L185.484 111.728
L186.401 30.4656
L186.607 -1
M188.479 -1
L189.153 129.574
L190.07 128.772
L190.987 114.901
L191.904 122.048
L192.822 127.832
L193.739 119.441
L194.656 128.267
L195.573 126.412
L196.491 122.128
L197.408 128.75
L198.325 120.959
L199.242 130.089
L200.16 59.6437
L201.077 125.848
L201.994 107.011
L202.911 116.656
L204.746 122.124
L205.663 80.6171
L206.581 118.844
L207.498 112.42
L208.415 112.488
L209.332 110.834
L210.25 117.263
L211.167 120.414
L212.084 105.415
L213.001 111.538
L213.919 119.482
L214.836 104.731
L215.753 63.7685
L216.67 113.507
L217.588 120.802
L218.505 117.541
L219.422 115.214
L220.339 100.789
L221.257 117.266
L222.174 121.606
L223.091 119.501
L224.008 107.085
L224.926 91.139
L225.843 114.223
L226.76 106.504
L227.678 101.778
L228.595 115.048
L229.512 114.22
L230.429 112.857
L231.347 114.413
L232.264 114.948
L233.181 67.09
L234.098 71.1233
L235.016 121.969
L235.933 115.485
L236.85 110.406
L237.767 116.478
L238.685 108.742
L239.602 120.713
L240.519 106.439
L241.436 119.09
L242.354 114.327
L243.271 119.208
L244.188 115.686
L245.105 117.861
L246.023 117.904
L246.94 117.244
L247.857 107.513
L248.775 114.641
L249.692 116.051
L250.609 114.633
L251.526 116.497
L252.444 113.113
L253.361 108.69
L254.278 110.7
L255.195 118.095
L256.113 118.787
L257.03 121.125
L257.947 111.946
L258.864 110.406
L259.782 119.99
L260.699 118.534
L261.616 107.923
L262.533 121.028
L263.451 116.97
L264.368 111.33
L265.285 118.26
L266.202 124.255
L267.12 119.127
L268.037 113.115
L268.954 29.4935
L269.871 120.635
L270.789 121.065
L271.706 84.9966
L272.623 125.916
L273.541 116.621
L274.458 122.482
L275.375 97.4435
L276.292 103.652
L277.21 106.93
L278.127 117.466
L279.044 122.474
L279.961 116.971
L280.879 105.319
L281.796 110.114
L282.713 120.17
L283.63 116.512
L284.548 99.8724
L285.465 123.331
L286.382 120.675
L287.299 116.832
L288.217 123.828
L289.134 123.126
L290.051 76.9508
L290.968 123.655
L291.886 121.67
L292.803 119.135
L293.72 123.437
L294.638 122.749
L295.555 121.012
L296.472 120.088
L297.389 115.858
L298.307 107.712
L299.224 125.132
L300.141 128.087
L301.058 127.224
L301.976 128.25
L302.893 126.591
L303.81 123.01
L304.727 126.929
L305.645 121.281
L306.562 126.358
L307.479 127.111
L308.396 123.217
L309.314 122.166
L310.231 116.68
L311.148 127.498
L312.065 127.364
L312.983 129.73
L313.9 129.653
L314.817 115
L315.735 129.163
L316.652 129.616
L317.569 132.48
L318.486 131.718
L319.404 128.705
L320.321 129.862
L321.238 130.426
L322.155 129.023
L323.073 128.412
L323.99 128.35
L324.907 127.905
L325.824 128.502
L326.742 126.797
L327.659 89.5081
L328.576 130.567
L329.493 130.298
L330.411 130.616
L331.328 126.922
L332.245 129.461
L334.08 129.373
L334.997 126.97
L335.914 128.726
L336.831 78.8309
L337.749 67.7977
L338.666 130.083
L339.583 128.702
L340.501 122.656
L341.418 131.478
L342.335 132.095
L343.252 132.008
L344.17 131.326
L345.087 132.199
L346.004 130.938
L346.921 131.86
L347.839 129.396
L348.756 62.7383
L349.673 130.17
L350.59 131.383
L351.508 131.738
L352.425 131.251
L353.342 131.427
L354.259 131.891
L355.177 129.004
L356.094 131.707
L357.011 132.575
L357.928 132.692
L358.846 132.143
L359.763 132.198
L360.68 132.381
L361.598 132.118
L362.515 131.102
L363.432 115.762
L364.349 131.198
L365.267 131.267
L366.184 125.883
L367.101 131.535
L368.018 132.278
L369.853 132.143
L370.77 131.675
L371.687 131.593
L372.605 132.256
L373.522 132.238
L374.439 132.613
L375.356 132.119
L376.274 132.455
L377.191 133.973
L378.108 137.96
L379.025 134.345
L379.943 133.769
L380.86 134.971
L381.777 133.311
L382.695 134.03
L383.612 123.655
L384.529 132.25
L385.446 133.324
M389.115 132.638
L390.033 129.204
L390.95 70.7772
L391.867 132.096
L391.867 132.096" style="fill:none;stroke:#0000ff;stroke-linecap:square;"/>
   </g>
   <g id="line2d_2">
    <path clip-path="url(#pdf711f5425)" d="
M57.9844 130.558
L58.9016 44.537
L59.8189 133.88
L60.7362 135.241
L61.6534 133.54
L62.5707 132.129
L63.4879 123.404
L64.4052 112.651
L65.3225 131.243
L66.2397 131.169
L67.157 129.065
L68.0742 132.24
L68.9915 128.514
L69.9088 132.14
L70.826 132.995
L71.7433 133.066
L75.4123 132.9
L77.2468 132.94
L79.0814 132.81
L79.9986 133.289
M81.8331 133.827
L82.7504 132.569
L83.6677 132.109
L85.5022 132.999
L86.4194 132.629
L87.3367 132.545
L89.1712 132.191
L90.0885 132.363
L91.0057 131.456
L91.923 132.307
L92.8403 132.474
L93.7575 133.341
L94.6748 133.315
L95.592 132.656
L96.5093 132.937
L97.4266 122.611
L98.3438 132.55
L99.2611 96.6854
L100.178 131.121
L101.096 132.336
L102.013 129.449
L102.93 127.282
L103.847 129.889
L105.682 130.942
L106.599 106.463
L108.434 130.792
L109.351 106.394
L110.268 131.921
L111.185 131.035
L112.103 131.892
L113.02 54.2289
L113.937 126.566
L114.855 132.034
L115.772 133.074
L116.689 133.882
L117.606 130.549
L118.524 132.023
L119.441 134.737
L120.358 134.954
L121.275 132.062
L122.193 132.003
L123.11 128.116
L124.027 128.796
L124.944 112.817
L125.862 125.562
L126.779 128.298
L127.696 127.857
L128.613 127.9
L129.531 123.69
L130.448 121.586
L131.365 100.891
L132.282 109.643
L133.2 128.555
L134.117 124.769
L135.034 121.804
L135.951 129.758
L136.869 128.952
L137.093 -1
M138.485 -1
L138.703 124.693
L139.621 124.578
L140.538 130.932
L141.455 125.8
L142.372 118.832
L143.29 124.974
L144.207 112.535
L145.124 126.75
L146.041 91.7228
L146.959 128.138
L147.876 128.379
L148.793 131.222
L149.71 127.594
L150.628 127.644
L151.545 124.261
L152.462 112.164
L153.379 122.756
L154.297 111.115
L155.214 111.687
L156.131 123.541
L157.048 116.399
L157.966 115.984
L158.883 114.446
L159.8 114.356
L160.718 103.95
L161.635 118.098
L162.552 114.072
L163.469 101.378
L164.387 105.575
L165.304 131.066
L166.221 130.532
L167.138 127.727
L168.056 124.543
L168.973 129.828
L169.89 124.575
L170.807 117.932
L171.725 107.646
L172.642 127.792
L173.559 97.9678
L174.476 124.264
L175.394 125.018
L176.311 126.828
L177.228 121.831
L178.145 40.1515
L179.063 126.35
L179.98 122.653
L180.897 123.447
L181.815 123.955
L182.732 123.017
L183.649 121.798
L184.566 91.308
L185.484 114.066
L186.401 123.172
L187.318 119.839
L188.235 125.506
L189.153 111.858
L190.07 121.669
L190.987 114.335
L191.904 114.173
L192.822 121.513
L193.739 122.024
L194.656 107.821
L195.573 117.935
L196.491 122.736
L197.408 130.317
L198.325 125.818
L199.242 102.496
L200.16 127.274
L201.077 129.171
L201.994 125.496
L202.911 126.898
L203.829 123.798
L204.746 121.262
L205.663 128.459
L206.581 124.203
L207.498 123.952
L208.415 129.286
L209.332 126.966
L210.25 123.336
L211.167 110.357
L212.084 123.49
L213.001 106.947
L213.919 128.648
L214.836 125.692
L215.753 120.122
L216.67 123.7
L217.588 109.994
L218.505 105.52
L219.422 93.3941
L220.339 124.125
L221.257 112.308
L222.174 116.519
L223.091 114.554
L224.008 121.528
L224.926 121.022
L225.843 121.427
L226.76 124.666
L227.678 101.035
L228.595 114.125
L229.512 115.586
L230.429 111.161
L231.347 102.552
L232.264 123.591
L233.181 114.874
L234.098 97.3831
L235.016 120.517
L235.933 116.104
L236.85 107.801
L237.767 112.617
L238.685 115.766
L239.602 113.189
L240.519 100.288
L241.436 119.44
L242.354 114.506
L243.271 118.212
L244.188 117.155
L245.105 118.968
L246.023 115.221
L246.94 90.7383
L247.857 114.947
L248.775 111.669
L249.692 107.736
L250.609 117.891
L251.526 104.051
L252.444 96.2603
L253.361 110.383
L254.278 94.3458
L255.195 114.603
L256.113 122.427
L257.03 99.932
L257.947 130.735
L258.864 124.259
L260.699 121.614
M347.839 125.061
L348.756 132.842
M357.928 132.225
L358.846 132.102
L359.763 132.119
L360.68 131.98
L361.598 128.094
L362.515 132.806
M364.349 128.113
L365.267 132.713
L366.184 132.857
L367.101 132.548
L368.018 132.785
L368.936 133.858
L369.853 133.671
L370.77 134.032
L371.687 134.215
L372.605 133.515
L373.522 133.14
L375.356 132.801
L376.274 131.89
M378.108 131.25
L379.025 131.02
L379.943 132.499
L380.86 132.816
L381.777 132.308
L382.695 129.667
L383.612 132.865
L384.529 132.929
L385.446 132.82
L388.198 132.915
L390.95 132.932
L391.867 132.228
L391.867 132.228" style="fill:none;stroke:#008000;stroke-linecap:square;"/>
   </g>
   <g id="line2d_3">
    <path clip-path="url(#pdf711f5425)" d="
M57.9844 130.539
L58.9016 132.063
L60.7362 132.918
L61.6534 132.641
L65.3225 132.984
L66.2397 132.482
L67.157 132.542
L68.0742 121.017
L68.9915 130.078
L69.9088 131.488
L70.826 125.591
L71.7433 131.627
L72.6605 131.288
L73.3214 -1
M73.8869 -1
L74.4951 99.9784
L75.4123 13.7057
L76.3296 104.103
L77.2468 132.694
L78.1641 132.922
L79.0814 130.977
L79.9986 131.936
L80.9159 132.527
L81.8331 132.787
L82.7504 132.23
L84.5849 132.828
L85.5022 132.829
L86.4194 132.674
L87.3367 132.338
L89.1712 132.65
L90.0885 131.365
L91.0057 132.261
L91.923 131.781
L92.8403 132.545
L93.7575 132.726
L94.6748 132.27
L95.592 131.986
L96.5093 131.182
L97.4266 132.364
L98.3438 131.938
L99.2611 132.653
L100.178 132.197
L101.096 132.527
L102.013 132.088
L102.93 132.211
L104.765 132.718
L105.682 130.388
L106.599 127.401
L107.516 132.12
L108.434 131.231
L109.079 -1
M109.64 -1
L110.268 120.473
L111.185 129.583
L112.103 122.203
L113.02 125.123
L113.937 129.964
L114.855 132.324
L115.772 130.2
L117.606 129.606
L118.524 128.065
L119.441 130.343
L120.358 127.9
L121.275 127.798
L122.026 -1
M122.371 -1
L123.11 117.028
L124.027 131.315
L124.944 122.381
L125.862 104.111
L126.779 124.696
L127.696 100.375
L128.613 124.852
L129.531 117.455
L130.448 126.883
L131.365 127.07
L132.282 129.597
L133.2 115.167
L134.117 124.194
L135.034 129.477
L135.951 129.439
L136.869 91.0039
L137.786 84.5485
L138.703 131.452
L139.621 130.97
L140.538 131.949
L141.455 124.081
L142.372 131.623
L143.29 94.0701
L144.207 127.203
L145.124 125.652
L146.041 130.159
L146.567 -1
M147.349 -1
L147.876 130.922
L148.793 129.339
L149.71 128.77
L150.628 117.177
L151.545 129.225
L152.462 117.541
L153.379 124.458
L155.214 125.863
L156.131 124.127
L157.048 121.528
L157.966 108.224
L158.883 129.961
L159.8 121.896
L160.718 90.2269
L161.635 99.9622
L162.552 126.333
L163.469 116.622
L164.387 97.7628
L165.304 129.147
L166.221 111.554
L167.138 87.8082
L168.056 119.403
L168.973 116.799
L169.89 72.3382
L170.807 76.0385
L171.725 127.455
L172.642 114.698
L173.559 123.466
L174.476 118.518
L175.394 118.738
L176.311 128.571
L177.191 -1
M178.526 -1
L179.063 123.32
L179.98 123.659
L180.897 121.359
L181.815 88.8143
L182.732 73.9913
L183.649 129.873
L184.566 121.61
L185.484 120.056
L186.401 129.185
L187.318 132.434
L188.235 130.122
L189.153 126.99
L190.07 93.3468
L190.987 113.331
L191.904 129.478
L192.822 116.979
L193.739 128.031
L194.656 126.989
L195.573 128.341
L196.491 128.614
L197.408 129.778
L198.325 128.785
L199.242 124.733
L200.16 130.584
L201.077 125.112
L201.994 120.494
L202.911 126.831
L203.829 124.724
L204.746 121.422
L205.663 111.781
L206.581 81.2443
L207.498 115.98
L208.415 125.391
L210.25 117.277
L211.167 126.517
L212.084 122.934
L213.001 125.367
L213.919 115.034
L214.836 124.947
L215.753 117.803
L216.67 104.293
L217.588 120.735
L218.505 120.349
L219.422 111.127
L220.339 114.065
L221.257 90.5122
L222.174 115.769
L224.008 126.182
L224.926 112.961
L225.843 121.89
L226.76 119.626
L227.678 109.979
L228.595 126.8
L229.512 121.529
L230.429 109.071
L231.347 117.906
L232.264 113.707
L233.181 116.354
L234.098 93.2436
L235.016 96.8603
L235.933 124.652
L236.85 114.755
L237.767 103.382
L238.685 112.614
L239.602 98.4207
L240.519 113.581
L241.436 112.473
L242.354 91.5608
L243.271 120.353
L244.188 109.79
L245.105 117.473
L246.023 116.979
L246.94 114.329
L247.857 113.234
L248.775 93.2367
L249.692 123.251
L250.609 121.07
L252.444 109.951
L253.361 117.036
L254.278 116.366
L255.195 114.67
L256.113 104.279
L257.03 120.755
L257.947 110.309
L258.864 117.148
L259.782 122.077
L260.699 101.209
L262.533 119.897
L263.451 99.4865
L264.368 119.273
L265.285 117.459
L266.202 118.701
L267.12 107.868
L268.037 120.549
L268.954 104.812
L269.871 121.066
L270.789 93.1717
L271.706 95.997
L272.623 126.788
L273.541 124.365
L274.458 117.388
L275.375 109.422
L276.292 121.847
L277.21 107.222
L278.127 129.571
L279.044 126.212
L279.961 126.1
L280.879 113.132
L281.796 120.557
L282.713 121.735
L283.63 119.011
L284.548 34.4343
L285.465 123.036
L286.382 117.625
L287.299 127.194
L288.217 127.512
L289.134 126.938
L290.051 120.357
L290.968 117.591
L291.886 120.51
L292.803 114.641
L293.72 122.215
L294.638 113.076
L295.555 116.334
L296.472 118.098
L297.389 118.614
L298.307 124.67
L299.224 121.922
L300.141 124.552
L301.058 119.789
L301.976 121.396
L302.893 120.678
L303.81 119.561
L304.727 122.096
L305.645 122.803
L306.562 125.196
L307.479 122.045
L308.396 123.953
L309.314 124.392
L310.231 115.692
L311.148 130.512
L312.065 131.399
L313.9 125.454
L314.817 129.281
L315.735 127.89
L317.569 121.154
L318.486 130.55
L319.404 127.111
L320.321 126.797
L321.238 126.906
L322.155 129.389
L323.073 130.149
L323.99 128.935
L324.907 130.254
L325.824 127.57
L326.742 128.468
L327.659 120.526
L328.576 129.269
M330.411 128.084
L331.328 129.063
L332.245 118.667
L333.162 94.5391
L334.08 129.758
L334.997 131.069
L335.914 129.628
L336.831 125.231
L337.749 129.175
L338.666 129.722
L339.583 130.511
L340.501 130.759
L341.418 127.661
M343.252 124.326
L344.17 130.917
L345.087 132.661
L346.004 131.915
L346.921 131.403
L347.839 132.233
L348.756 132.147
L349.673 124.712
L350.59 58.1123
L351.508 126.424
L352.425 102.423
L353.342 132.875
L354.259 132.895
L355.177 133.151
L356.094 133.077
L357.011 128.751
L357.928 139.24
L358.846 133.893
L359.763 133.131
L360.68 132.899
L361.598 138.258
L362.515 133.424
L364.349 132.988
L365.267 132.829
L367.101 132.929
L368.018 132.653
L368.936 132.499
L369.853 132.472
L370.77 129.448
L371.687 131.594
L372.605 129.776
L373.522 132.3
L374.439 132.1
L375.356 131.465
L376.274 128.734
L377.191 132.618
L378.108 132.554
L379.025 132.854
L379.943 131.825
L380.86 132.168
L381.777 131.255
L382.695 132.327
L383.612 132.769
L384.529 132.638
L385.446 131.651
L386.364 132.427
L387.281 130.709
L388.198 132.297
M390.95 141.807
L391.867 137.145
L391.867 137.145" style="fill:none;stroke:#ff0000;stroke-linecap:square;"/>
   </g>
   <g id="line2d_4">
    <path clip-path="url(#pdf711f5425)" d="
M57.9844 134.899
L58.9016 133.428
L59.8189 134.205
L61.6534 133.019
L62.5707 133.096
L63.4879 132.862
L64.4052 133.172
L65.3225 133.63
L66.2397 133.381
L67.157 133.27
L68.0742 132.795
L68.9915 131.959
L69.9088 130.891
L70.826 130.348
L71.7433 130.728
L72.6605 127.631
L73.5778 132.037
L74.4951 132.621
L75.4123 132.584
L76.3296 132.764
L77.2468 131.64
L78.1641 131.094
L79.0814 132.569
L80.9159 132.844
L81.8331 132.66
L83.6677 132.63
L84.5849 132.828
L85.5022 132.596
L94.6748 132.496
L95.592 132.285
L96.5093 123.668
L97.4266 128.584
L98.3438 114.033
L99.2611 88.0676
L100.178 126.007
L101.096 131.33
L102.013 127.618
L102.93 132.685
L103.847 134.662
L104.765 132.641
L105.682 132.738
L106.599 133.016
M108.434 133.538
L109.351 133.226
L110.268 132.034
L112.103 121.034
L113.02 93.0608
L113.937 131.113
L114.855 128.813
L115.772 131.858
L116.689 132.005
L117.606 131.312
L118.524 132.583
L119.441 125.43
L120.358 101.818
L121.275 131.835
L122.193 129.301
L123.11 63.5531
L124.027 121.054
L124.944 123.841
L125.862 131.836
L126.779 129.565
L127.696 84.1454
L128.613 130.049
L128.638 -1
M130.431 -1
L130.448 84.882
L131.365 130.678
L132.282 86.0196
L133.2 117.788
L134.117 130.667
L135.034 127.38
L135.951 132.278
L136.869 129.584
L137.786 130.201
L138.703 127.012
L139.621 102.429
L140.538 126.393
L141.455 74.384
L142.372 125.962
L143.29 129.639
L144.207 109.355
L145.124 130.963
L146.041 128.475
L146.959 130.662
L147.876 131.247
L148.793 130.467
L149.71 125.514
L150.628 130.5
L151.545 122.178
L152.462 129.733
L153.379 128.407
L154.297 128.755
L155.214 128.874
L156.131 117.468
L157.048 129.881
L157.966 125.255
L158.883 106.334
L159.8 129.48
L160.718 128.305
L161.635 129.446
L162.552 123.893
L163.469 113.902
L164.387 122.335
L165.304 118.917
L166.221 84.5769
L167.138 101.971
L168.056 125.836
L168.973 75.0109
L169.89 113.859
L170.807 129.374
L171.725 123.224
L173.559 129.229
L174.476 116.316
L174.956 -1
M176.752 -1
L177.228 125.757
L178.145 127.648
L179.063 124.319
L179.98 75.8673
L180.897 104.995
L181.815 129.011
L182.732 128.247
L183.649 124.498
L184.566 17.0203
L185.484 120.297
L186.401 124.164
L187.318 126.66
L188.235 124.864
L189.153 125.081
L189.594 -1
M190.539 -1
L190.987 128.537
L191.904 127.486
L192.822 129.01
L193.739 127.991
L194.656 128.145
L195.573 84.0632
L196.491 110.309
L197.408 129.186
L198.325 128.657
L199.242 124.226
L200.16 125.108
L201.077 121.196
L201.994 127.462
L202.911 120.607
L203.829 124.202
L204.746 123.847
L205.663 125.278
L206.581 127.275
L207.498 121.518
L208.415 120.661
L209.332 87.4171
L210.25 111.251
L211.167 114.467
L212.084 128.117
L213.001 95.0177
L213.919 116.732
L214.836 119.581
L215.753 111.845
L216.67 110.023
L217.588 120.401
L218.505 120.244
L219.422 119.753
L220.339 96.8071
L221.257 93.2092
L222.174 99.5533
L223.091 120.846
L224.008 123.526
L224.926 122.061
L225.843 109.941
L226.76 121.429
L227.678 115.679
L228.595 115.19
L229.512 110.085
L230.429 119.014
L231.347 111.062
L232.264 117.124
L233.181 120.468
L234.098 126.094
L235.016 118.513
L235.933 121.617
L236.85 119.221
M242.354 120.712
L243.271 118.536
L244.188 122.335
L245.105 117.465
L246.023 115.534
L246.94 120.05
L247.857 116.541
L248.775 122.362
L250.609 109.39
L251.526 109.958
L252.444 124.379
L253.361 112.17
L254.278 120.396
L255.195 106.132
L256.113 119.566
L257.03 118.487
L257.947 117.858
L258.864 116.726
L259.782 119.095
L260.699 112.529
L261.616 118.18
L262.533 121.35
L263.451 120.196
L264.368 124.282
L265.285 117.647
L266.202 122.398
L267.12 120.049
L268.037 113.784
L268.954 121.823
L269.871 121.933
L270.789 119.82
L271.706 114.67
L272.623 119.679
L273.541 113.114
L274.458 103.142
L275.375 116.919
L276.292 118.83
L277.21 117.937
L278.127 116.61
L279.044 113.364
L279.961 123.927
L280.879 122.78
L281.796 120.946
L282.713 127.787
L283.63 121.446
L284.548 121.871
L285.465 119.53
L286.382 123.509
L287.299 118.031
L288.217 124.9
L289.134 110.466
L290.051 103.994
L290.968 109.877
L291.886 121.723
L292.803 120.719
L293.72 112.595
L294.638 128.548
L295.555 128.721
L296.472 124.378
L297.389 118.652
L298.307 124.354
L299.224 124.645
L300.141 121.585
L301.058 115.475
L301.976 114.048
L302.893 116.291
L303.81 124.984
L304.727 122.739
L305.645 128.762
L306.562 127.623
L307.479 125.21
L308.396 124.768
L309.314 125.58
L310.231 124.787
L311.148 127.163
L312.065 132.422
L312.983 132.735
L313.9 132.582
L314.817 131.848
L316.652 131.419
L317.569 129.551
L318.486 131.172
L320.321 130.121
L321.238 129.384
L322.155 132.193
L323.073 132.029
L323.99 131.216
L324.907 131.852
L325.824 130.509
L326.742 131.343
L327.659 126.67
L328.576 128.546
L329.493 132.095
L331.328 132.197
L332.245 131.994
L333.162 127.936
L334.08 129.769
L334.997 123.852
L335.914 130.86
L336.831 131.443
L337.749 87.0644
L338.666 131.803
L339.583 132.856
L341.418 132.771
L343.252 132.511
L344.17 132.104
L345.087 132.304
L346.004 130.201
L346.921 132.11
L347.839 131.455
L348.756 127.661
L349.673 132.372
L350.59 130.057
L351.508 132.216
L352.425 132.735
L354.259 132.61
L355.177 126.947
L356.094 93.7231
L357.011 124.749
L357.928 114.603
L358.846 132.45
L359.763 132.333
L360.68 131.696
L361.598 131.772
L362.515 130.811
L363.432 132.258
L364.349 131.237
L365.267 132.514
L366.184 132.173
L367.101 132.602
L368.018 132.731
L368.936 132.621
L369.853 132.72
L373.522 132.55
L375.356 132.752
L376.274 132.371
L377.191 132.677
L378.108 132.299
L379.025 132.396
L379.943 132.669
L380.86 132.424
L381.777 126.171
L382.695 132.554
L383.612 133.014
L384.529 132.785
L385.446 132.807
L386.364 132.516
L387.281 132.544
L388.198 131.267
L389.115 128.431
L390.033 124.714
M391.867 132.67" style="fill:none;stroke:#00bfbf;stroke-linecap:square;"/>
   </g>
   <g id="line2d_5">
    <path clip-path="url(#pdf711f5425)" d="
M57.9844 132.527
L58.9016 131.896
L61.6534 131.685
L62.5707 132.69
L65.3225 132.484
L66.2397 132.83
M73.5778 132.347
L74.4951 132.701
L75.4123 132.433
L76.3296 132.034
L77.2468 132.718
L78.1641 132.824
L79.0814 132.677
L79.9986 131.115
L80.9159 132.565
L81.8331 132.606
L83.6677 132.451
L84.5849 131.546
L85.5022 132.177
L86.4194 131.528
L87.3367 132.338
L88.254 132.435
L89.1712 132.275
L90.0885 132.356
L91.923 131.524
L92.8403 132.298
L93.7575 132.637
L94.6748 132.346
L95.592 132.717
L96.5093 132.593
L97.4266 132.205
L98.3438 132.523
L99.2611 132.689
L100.178 132.403
L101.096 131.999
L102.013 132.022
L102.93 132.563
L103.847 132.758
L104.765 131.862
L105.682 118.718
L106.599 132.351
L107.516 129.251
L108.434 126.91
L109.351 132.53
L111.185 131.979
L112.103 132.133
L113.02 132.95
L113.937 132.638
L114.855 130.731
L115.772 125.588
L116.689 126.783
L117.606 130.249
L118.524 123.402
L119.441 130.377
L120.358 127.13
L121.275 123.266
L122.193 120.685
L123.11 114.435
L124.027 83.1135
L124.944 131.856
L125.862 104.353
L126.779 124.775
L127.696 131.273
L128.613 132.773
L129.531 132.347
L130.448 131.507
L131.365 101.319
L132.282 113.355
L133.2 129.633
L134.117 130.331
L135.034 66.2998
L135.951 132.379
L136.869 123.231
L137.786 127.718
L138.703 129.192
L139.621 110.835
L140.538 47.7824
L141.455 129.253
L142.372 131.762
L143.29 122.645
L144.207 124.723
L145.124 131.312
L146.041 131.853
L146.959 125.408
L147.876 128.865
L148.793 130.118
L149.71 127.118
L150.628 127.678
L151.545 128.787
L152.462 122.167
L153.379 113.87
L154.297 114.829
L155.214 129.395
L156.131 130.432
L157.048 130.063
L157.966 130.515
L158.883 124.445
L159.8 115.947
L160.718 125.135
L161.635 102.816
L162.552 118.681
L163.469 117.526
L164.387 131.203
L165.304 131.903
L166.221 128.414
L167.138 126.569
L168.056 126.452
L168.973 127.12
L169.89 130.421
L170.807 122.611
L171.725 130.326
L172.642 129.461
L173.559 126.322
L174.476 127.516
L175.394 124.699
L176.311 112.616
L177.228 49.9819
L178.145 126.924
L179.063 120.933
L179.98 122.866
L180.897 116.911
L181.815 126.857
L182.732 111.319
L183.649 113.15
L184.566 107.216
L185.484 125.682
L186.401 122.41
L187.318 93.0932
L188.235 111.211
L189.153 103.224
L190.07 130.574
L190.987 128.448
L191.904 128.573
L192.822 112.563
L193.739 121.466
L194.656 119.946
L195.573 109.116
L196.491 121.457
L197.408 119.524
L198.325 93.919
L199.242 123.243
L200.16 103.282
L201.077 131.744
L201.994 130.36
L202.911 54.329
L203.829 116.264
L204.746 127.229
L205.663 127.124
L206.581 123.05
L207.498 110.409
L208.415 90.57
L209.332 122.008
L210.25 110.312
L211.167 124.885
L213.001 34.6856
L213.919 127.447
L214.836 127.636
L215.753 110.005
L216.67 102.301
L217.588 113.658
L218.505 111.118
L220.339 117.88
L221.257 128.052
L222.174 120.892
L223.091 103.961
L224.008 118.023
L224.926 118.607
L225.843 121.295
L226.76 85.6366
L227.678 120.992
L228.595 125.153
L229.512 121.039
L230.429 108.597
L231.347 70.998
L232.264 105.4
L233.181 106.484
L234.098 113.508
L235.016 117.893
L235.933 90.7843
L236.85 115.808
L237.767 116.702
L238.685 102.132
L239.602 113.177
L240.519 121.262
L241.436 117.027
L242.354 113.551
L243.271 119.023
L244.188 120.143
L245.105 115.438
L246.023 120.087
L246.94 118.351
L247.857 114.294
L248.775 120.185
L249.692 118.417
L250.609 121.047
L251.526 113.285
L252.444 118.758
L253.361 108.514
L254.278 107.511
M259.782 115.769
L260.699 122.301
L261.616 123.881
L262.533 122.5
L263.451 119.703
L264.368 118.884
L265.285 119.541
L266.202 112.612
L267.12 117.011
L268.037 116.642
L268.954 121.276
L269.871 121.666
L270.789 114.823
L271.706 105.306
L272.623 115.008
L273.541 111.155
L274.458 117.681
L275.375 126.566
L276.292 114.524
L277.21 119.628
L278.127 120.257
L279.044 121.19
L279.961 121.493
L280.879 123.378
L281.796 115.128
L282.713 124.35
L283.63 122.14
L284.548 115.736
L285.465 122.639
L286.382 123.139
L287.299 118.912
L288.217 120.228
L289.134 95.5548
L290.051 118.822
L290.968 126.182
L291.886 127.068
L292.803 127.502
L293.72 122.916
L295.555 110.658
L296.472 120.758
L297.389 124.051
L298.307 125.426
L299.224 129.054
L300.141 126.581
L301.058 126.899
L301.976 125.089
L302.893 129.417
L303.81 127.675
L304.727 122.358
L305.645 122.311
L306.562 112.631
L307.479 122.262
L308.396 119.024
L309.314 126.754
L310.231 116.524
L311.148 121.103
L312.065 130.745
L312.983 131.727
L313.9 131.712
L315.735 130.717
L317.569 126.931
L319.404 126.985
L320.321 117.177
L322.155 125.911
L323.073 77.6404
L323.99 131.822
L324.907 131.645
L326.742 129.887
L327.659 132.03
L328.576 132.667
L332.245 132.383
L333.162 132.037
L334.997 123.737
L335.914 128.974
L336.831 125.002
L337.749 130.408
L338.666 131.684
L339.583 131.93
L340.501 130.739
L341.418 130.84
L342.335 130.506
L343.252 129.264
L344.17 132.492
L345.087 132.784
L346.004 132.581
L347.839 132.769
L349.673 132.706
L350.59 132.383
L351.508 132.349
L352.425 128.58
L353.342 132.298
L354.259 129.157
L355.177 15.8247
L356.094 128.694
L357.011 132.522
L359.763 132.716
L360.68 132.511
L361.598 132.676
L362.515 132.544
L363.432 123.948
L364.349 97.3592
L365.267 99.2945
L366.184 114.275
L367.101 132.245
L368.018 124.506
L368.936 131.13
M374.439 131.957
L375.356 132.7
L376.274 132.798
L378.108 132.748
L379.025 132.8
L379.943 132.514
L380.86 132.715
L381.777 132.72
L382.695 128.909
L383.612 130.852
L384.529 109.544
L385.446 132.797
L388.198 132.951
L389.115 132.781
L390.95 132.864
L391.867 133.048
L391.867 133.048" style="fill:none;stroke:#bf00bf;stroke-linecap:square;"/>
   </g>
   <g id="line2d_6">
    <path clip-path="url(#pdf711f5425)" d="
M78.1641 177.664
L79.0814 131.26
L79.9986 128.176
L80.9159 107.139
L81.8331 133.836
L82.7504 133.086
L83.6677 140.351
L84.1304 -1
M85.0669 -1
L85.5022 124.344
L87.3367 129.214
L88.254 133.252
L89.1712 133.081
L90.0885 132.209
L91.0057 120.484
L91.923 72.547
L92.8403 93.636
L92.8414 -1
M95.5607 -1
L95.592 87.8332
L96.5093 107.7
L97.4266 93.9473
L98.3438 50.7712
L99.2611 110.236
L100.178 58.7571
L100.849 -1
M102.859 -1
L102.93 104.022
L103.199 -1
M104.665 -1
L104.765 29.7857
L105.682 130.562
L105.692 -1
M107.511 -1
L107.516 65.8051
L108.434 125.967
L110.268 72.6418
L111.185 128.333
L112.103 120.876
L113.02 109.306
L113.023 -1
M117.296 -1
L117.606 113.187
L118.524 80.689
L118.587 -1
M120.309 -1
L120.358 61.0936
L120.459 -1
M122.06 -1
L122.193 83.6067
L123.044 -1
M123.2 -1
L124.027 59.377
L124.457 -1
M125.3 -1
L125.862 107.404
L125.875 -1
M127.69 -1
L127.696 51.9266
L128.613 94.3415
L128.655 -1
M131.363 -1
L131.365 23.0327
L132.282 125.726
L133.2 128.23
L134.117 71.231
L135.034 127.363
L135.951 69.1012
L136.869 93.6606
L137.227 -1
M142.29 -1
L142.372 32.0596
L142.411 -1
M144.206 -1
L144.207 -0.0502189
L145.124 122.442
L145.953 -1
M150.536 -1
L150.628 122
L150.628 122
L150.628 122
L150.628 -1
M152.462 -1
L152.462 113.993
L153.379 74.7485
L153.436 -1
M156.947 -1
L157.048 124.755
L157.195 -1
M160.718 -1
L160.718 68.1128
L161.635 22.1383
L161.646 -1
M180.829 -1
L180.897 57.7318
L181.815 114.361
L182.732 101.649
L182.942 -1
M185.478 -1
L185.484 95.6222
L185.484 95.6222
L185.484 95.6222
L185.484 -1
M191.517 -1
L191.904 101.461
L192.198 -1
M206.575 -1
L206.581 -0.186238
L206.581 -0.186238
L206.581 -0.186238
L206.581 -1
M208.414 -1
L208.415 1.181
L208.415 1.181
L208.415 1.181
L208.431 -1
M213.817 -1
L213.919 64.7378
L214.011 -1
M218.39 -1
L218.505 14.5157
L219.422 41.4912
L219.741 -1
M234.097 -1
L234.098 1.0978
L234.098 1.0978
L234.098 1.0978
L234.108 -1
M270.658 -1
L270.789 90.1223
L270.913 -1
M289.096 -1
L289.134 3.31122
L289.301 -1
M301.001 -1
L301.058 27.2292
L301.976 78.1765
L302.893 119.133
L303.81 56.92
L304.06 -1
M308.664 -1
L309.314 128.705
L309.332 -1
M311.832 -1
L312.065 88.5909
L312.983 84.2172
L313.9 100.782
L314.817 96.4868
L315.735 109.314
L316.652 21.0048
L317.569 112.598
L318.486 110.609
L319.404 68.5397
L321.238 115.081
L322.155 33.8376
L322.239 -1
M323.756 -1
L323.99 118.249
L325.636 -1
M325.912 -1
L326.742 116.891
M333.162 127.832
L334.08 123.203
L334.997 129.151
L335.914 126.602
L336.831 128.098
L337.427 -1
M338.084 -1
L338.666 119.724
L339.583 127.976
L340.501 130.365
L341.418 132.374
L342.335 27.821
L343.252 125.031
L344.17 124.902
L345.087 127.819
L346.004 128.491
L346.921 130.236
L347.839 93.3824
L348.756 124.439
L349.673 130.675
L350.59 101.522
L351.508 91.6367
L352.425 125.18
M360.68 130.399
L361.598 130.236
L362.515 130.68
L363.432 131.944
L364.349 115.651
L364.378 -1
M366.145 -1
L366.184 156.304
L367.101 139.538
L368.018 143.965
L368.297 281.074
M369.581 281.074
L369.853 149.17
L370.77 136.302
L371.687 134.638
L372.605 133.392
L373.522 133.511
L374.439 133.327
L375.356 132.717
L376.274 132.741
L377.191 132.971
L378.108 132.699
L379.025 133.122
L379.943 133.064
L380.86 137.18
L381.777 133.56
L382.695 132.886
L383.612 132.61
L384.529 115.405
L385.446 100.607
L386.364 132.108
L387.281 132.71
L387.281 132.71" style="fill:none;stroke:#bfbf00;stroke-linecap:square;"/>
   </g>
   <g id="line2d_7">
    <path clip-path="url(#pdf711f5425)" d="
M64.4052 132.341
L65.1751 -1
M65.486 -1
L66.2397 116.633
L66.3753 -1
M67.9417 -1
L68.0742 113.525
L68.0901 -1
M69.9039 -1
L69.9088 33.6256
L70.826 79.526
L71.7433 131.606
L72.6605 131.989
L73.5778 132.593
L74.4951 133.013
L81.8331 133.018
L82.7504 133.007
L83.6677 132.392
L84.5849 121.956
L85.5022 131.993
L86.4194 130.988
L87.3367 115.626
L88.254 131.996
L89.1712 136.806
L90.0885 134.931
L91.0057 133.811
L91.923 133.527
L92.8403 128.586
L93.7575 113.564
L94.6748 116.114
L95.592 116.072
L96.5093 110.929
L97.4266 60.4023
L98.3438 101.065
L99.2611 44.3526
L99.2889 -1
M101.054 -1
L101.096 67.5492
L101.485 -1
M103.832 -1
L103.847 131.982
L104.765 73.7318
L105.572 -1
M105.749 -1
L106.599 129.149
L107.516 102.646
L108.434 28.1289
L109.351 126.018
L110.268 128.165
L111.185 115.092
L112.103 124.139
L113.02 49.837
L113.937 69.2721
L114.855 107.959
L114.954 -1
M122.155 -1
L122.193 73.6173
L122.801 -1
M123.373 -1
L124.027 93.0276
L124.262 -1
M125.699 -1
L125.862 57.8627
L125.862 -1
M127.696 -1
L127.696 93.6361
L128.613 84.5526
L128.665 -1
M130.382 -1
L130.448 109.624
L131.365 113.494
L131.595 -1
M133.026 -1
L133.2 79.1073
L133.299 -1
M134.982 -1
L135.034 39.2294
L135.951 131.459
L136.228 -1
M140.291 -1
L140.538 130.43
L141.455 104.499
L142.372 110.505
L143.29 114.475
L144.207 92.2323
L144.219 -1
M146.033 -1
L146.041 62.0008
L146.856 -1
M148.741 -1
L148.793 86.9962
L149.128 -1
M152.462 -1
L152.462 109.223
L152.462 109.223
L152.462 109.223
L152.478 -1
M160.637 -1
L160.718 128.84
L161.635 88.1894
L162.552 124.44
L162.752 -1
M166.539 -1
L167.138 109.867
L168.056 47.8344
L168.973 24.9582
L169.663 -1
M170.036 -1
L170.807 44.0329
L170.888 -1
M174.467 -1
L174.476 106.51
L175.394 18.1232
L175.417 -1
M178.145 -1
L178.145 0.0900117
L178.145 0.0900117
L178.145 0.0900117
L178.151 -1
M184.551 -1
L184.566 9.98156
L185.351 -1
M185.625 -1
L186.401 9.20068
L186.423 -1
M190.031 -1
L190.07 24.874
L190.07 24.874
L190.07 24.874
L190.105 -1
M191.759 -1
L191.904 119.99
L192.087 -1
M196.457 -1
L196.491 18.3698
L197.025 -1
M205.604 -1
L205.663 97.8623
L206.045 -1
M208.411 -1
L208.415 1.3973
L209.332 89.0233
L209.8 -1
M211.732 -1
L212.084 120.124
L212.531 -1
M216.34 -1
L216.67 54.4274
L216.894 -1
M218.282 -1
L218.505 54.0958
L219.422 59.5612
L220.339 110.649
L220.786 -1
M223.194 -1
L224.008 73.3307
L224.926 55.423
L225.843 15.0083
L225.925 -1
M241.654 -1
L242.354 117.062
L243.271 96.337
L244.188 116.48
L245.105 116.836
L246.062 -1
M257.595 -1
L257.947 106.271
L258.329 -1
M259.435 -1
L259.782 90.155
L260.699 122.222
L261.616 116.032
L262.533 102.799
L263.451 124.281
L264.368 127.002
L265.285 124.74
L266.202 116.248
L268.037 123.174
L268.954 115.918
L269.871 125.884
L270.789 125.596
L271.706 123.184
L272.623 118.17
L273.541 126.604
L274.458 124.654
L275.375 125.989
L276.292 118.711
L277.21 117.283
L278.127 123.394
L279.044 122.444
L279.961 123.651
L280.879 126.203
L281.796 122.239
L282.713 94.908
L283.63 127.154
L285.465 124.103
L286.382 121.133
L287.299 117.242
L288.217 118.014
L290.051 127.094
L290.968 125.304
L291.886 123.146
L292.803 123.351
L293.72 124.774
L294.638 112.072
L295.555 126.116
L296.472 119.616
L297.389 125.706
L298.307 127.357
L299.224 123.691
L300.141 129.237
L301.058 128.26
L301.976 122.016
L302.893 84.7881
L303.81 120.386
L304.727 131.066
L305.645 131.602
L306.562 127.793
L307.479 119.86
L308.396 120.414
L309.314 126.102
L310.231 125.852
L311.148 128.195
L312.065 123.472
L312.983 123.082
L313.9 125.607
L314.817 130.392
L315.735 131.91
L318.486 132.151
L319.404 131.89
L320.321 131.882
L322.155 132.176
L325.824 131.84
L326.742 132.302
L327.659 132.186
L328.576 132.393
L329.493 132.065
L330.411 132.034
L331.328 132.36
L332.245 132.435
L333.162 132.192
L334.08 132.324
L334.997 132.037
L335.914 132.201
L336.831 132.594
L337.749 132.61
L338.666 132.33
L339.583 132.512
L340.501 132.169
L341.418 132.048
L342.335 132.235
L344.17 132.36
L346.921 132.629
L347.839 135.061
L347.839 281.074
M354.822 281.074
L354.822 -1
M356.999 -1
L357.011 30.5573
L357.68 -1
M358.007 -1
L358.846 124.302
L359.763 132.289
L360.68 132.351
L361.598 132.23
L363.432 132.735
L364.349 132.755
L367.101 132.458
L368.936 132.472
L371.687 132.556
L372.605 132.324
L373.522 132.377
M375.356 132.646
L376.274 132.592
L377.191 132.628
L378.108 132.774
L379.025 132.571
L380.86 132.742
L383.612 132.727
L384.529 132.519
L385.446 131.223
L386.364 146.931
L387.281 133.745
L388.198 138.37
L388.548 281.074
L388.548 281.074" style="fill:none;stroke:#000000;stroke-linecap:square;"/>
   </g>
   <g id="patch_3">
    <path d="
M57.9844 21.3181
L392.784 21.3181" style="fill:none;stroke:#000000;stroke-linecap:square;stroke-linejoin:miter;"/>
   </g>
   <g id="patch_4">
    <path d="
M392.784 244.518
L392.784 21.3181" style="fill:none;stroke:#000000;stroke-linecap:square;stroke-linejoin:miter;"/>
   </g>
   <g id="patch_5">
    <path d="
M57.9844 244.518
L392.784 244.518" style="fill:none;stroke:#000000;stroke-linecap:square;stroke-linejoin:miter;"/>
   </g>
   <g id="patch_6">
    <path d="
M57.9844 244.518
L57.9844 21.3181" style="fill:none;stroke:#000000;stroke-linecap:square;stroke-linejoin:miter;"/>
   </g>
   <g id="matplotlib.axis_1">
    <g id="xtick_1">
     <g id="line2d_8">
      <defs>
       <path d="
M0 0
L0 -4" id="m93b0483c22" style="stroke:#000000;stroke-width:0.5;"/>
      </defs>
      <g>
       <use style="stroke:#000000;stroke-width:0.5;" x="57.984375" xlink:href="#m93b0483c22" y="244.518125"/>
      </g>
     </g>
     <g id="line2d_9">
      <defs>
       <path d="
M0 0
L0 4" id="m741efc42ff" style="stroke:#000000;stroke-width:0.5;"/>
      </defs>
      <g>
       <use style="stroke:#000000;stroke-width:0.5;" x="57.984375" xlink:href="#m741efc42ff" y="21.318125"/>
      </g>
     </g>
     <g id="text_1">
      <!-- 0 -->
      <defs>
       <path d="
M31.7812 66.4062
Q24.1719 66.4062 20.3281 58.9062
Q16.5 51.4219 16.5 36.375
Q16.5 21.3906 20.3281 13.8906
Q24.1719 6.39062 31.7812 6.39062
Q39.4531 6.39062 43.2812 13.8906
Q47.125 21.3906 47.125 36.375
Q47.125 51.4219 43.2812 58.9062
Q39.4531 66.4062 31.7812 66.4062
M31.7812 74.2188
Q44.0469 74.2188 50.5156 64.5156
Q56.9844 54.8281 56.9844 36.375
Q56.9844 17.9688 50.5156 8.26562
Q44.0469 -1.42188 31.7812 -1.42188
Q19.5312 -1.42188 13.0625 8.26562
Q6.59375 17.9688 6.59375 36.375
Q6.59375 54.8281 13.0625 64.5156
Q19.5312 74.2188 31.7812 74.2188" id="BitstreamVeraSans-Roman-30"/>
      </defs>
      <g transform="translate(55.46484375 256.1165625)scale(0.1 -0.1)">
       <use xlink:href="#BitstreamVeraSans-Roman-30"/>
      </g>
     </g>
    </g>
    <g id="xtick_2">
     <g id="line2d_10">
      <g>
       <use style="stroke:#000000;stroke-width:0.5;" x="103.847388699" xlink:href="#m93b0483c22" y="244.518125"/>
      </g>
     </g>
     <g id="line2d_11">
      <g>
       <use style="stroke:#000000;stroke-width:0.5;" x="103.847388699" xlink:href="#m741efc42ff" y="21.318125"/>
      </g>
     </g>
     <g id="text_2">
      <!-- 50 -->
      <defs>
       <path d="
M10.7969 72.9062
L49.5156 72.9062
L49.5156 64.5938
L19.8281 64.5938
L19.8281 46.7344
Q21.9688 47.4688 24.1094 47.8281
Q26.2656 48.1875 28.4219 48.1875
Q40.625 48.1875 47.75 41.5
Q54.8906 34.8125 54.8906 23.3906
Q54.8906 11.625 47.5625 5.09375
Q40.2344 -1.42188 26.9062 -1.42188
Q22.3125 -1.42188 17.5469 -0.640625
Q12.7969 0.140625 7.71875 1.70312
L7.71875 11.625
Q12.1094 9.23438 16.7969 8.0625
Q21.4844 6.89062 26.7031 6.89062
Q35.1562 6.89062 40.0781 11.3281
Q45.0156 15.7656 45.0156 23.3906
Q45.0156 31 40.0781 35.4375
Q35.1562 39.8906 26.7031 39.8906
Q22.75 39.8906 18.8125 39.0156
Q14.8906 38.1406 10.7969 36.2812
z
" id="BitstreamVeraSans-Roman-35"/>
      </defs>
      <g transform="translate(98.2028574486 256.1165625)scale(0.1 -0.1)">
       <use xlink:href="#BitstreamVeraSans-Roman-35"/>
       <use x="63.623046875" xlink:href="#BitstreamVeraSans-Roman-30"/>
      </g>
     </g>
    </g>
    <g id="xtick_3">
     <g id="line2d_12">
      <g>
       <use style="stroke:#000000;stroke-width:0.5;" x="149.710402397" xlink:href="#m93b0483c22" y="244.518125"/>
      </g>
     </g>
     <g id="line2d_13">
      <g>
       <use style="stroke:#000000;stroke-width:0.5;" x="149.710402397" xlink:href="#m741efc42ff" y="21.318125"/>
      </g>
     </g>
     <g id="text_3">
      <!-- 100 -->
      <defs>
       <path d="
M12.4062 8.29688
L28.5156 8.29688
L28.5156 63.9219
L10.9844 60.4062
L10.9844 69.3906
L28.4219 72.9062
L38.2812 72.9062
L38.2812 8.29688
L54.3906 8.29688
L54.3906 0
L12.4062 0
z
" id="BitstreamVeraSans-Roman-31"/>
      </defs>
      <g transform="translate(141.047902397 256.1165625)scale(0.1 -0.1)">
       <use xlink:href="#BitstreamVeraSans-Roman-31"/>
       <use x="63.623046875" xlink:href="#BitstreamVeraSans-Roman-30"/>
       <use x="127.24609375" xlink:href="#BitstreamVeraSans-Roman-30"/>
      </g>
     </g>
    </g>
    <g id="xtick_4">
     <g id="line2d_14">
      <g>
       <use style="stroke:#000000;stroke-width:0.5;" x="195.573416096" xlink:href="#m93b0483c22" y="244.518125"/>
      </g>
     </g>
     <g id="line2d_15">
      <g>
       <use style="stroke:#000000;stroke-width:0.5;" x="195.573416096" xlink:href="#m741efc42ff" y="21.318125"/>
      </g>
     </g>
     <g id="text_4">
      <!-- 150 -->
      <g transform="translate(186.910916096 256.1165625)scale(0.1 -0.1)">
       <use xlink:href="#BitstreamVeraSans-Roman-31"/>
       <use x="63.623046875" xlink:href="#BitstreamVeraSans-Roman-35"/>
       <use x="127.24609375" xlink:href="#BitstreamVeraSans-Roman-30"/>
      </g>
     </g>
    </g>
    <g id="xtick_5">
     <g id="line2d_16">
      <g>
       <use style="stroke:#000000;stroke-width:0.5;" x="241.436429795" xlink:href="#m93b0483c22" y="244.518125"/>
      </g>
     </g>
     <g id="line2d_17">
      <g>
       <use style="stroke:#000000;stroke-width:0.5;" x="241.436429795" xlink:href="#m741efc42ff" y="21.318125"/>
      </g>
     </g>
     <g id="text_5">
      <!-- 200 -->
      <defs>
       <path d="
M19.1875 8.29688
L53.6094 8.29688
L53.6094 0
L7.32812 0
L7.32812 8.29688
Q12.9375 14.1094 22.625 23.8906
Q32.3281 33.6875 34.8125 36.5312
Q39.5469 41.8438 41.4219 45.5312
Q43.3125 49.2188 43.3125 52.7812
Q43.3125 58.5938 39.2344 62.25
Q35.1562 65.9219 28.6094 65.9219
Q23.9688 65.9219 18.8125 64.3125
Q13.6719 62.7031 7.8125 59.4219
L7.8125 69.3906
Q13.7656 71.7812 18.9375 73
Q24.125 74.2188 28.4219 74.2188
Q39.75 74.2188 46.4844 68.5469
Q53.2188 62.8906 53.2188 53.4219
Q53.2188 48.9219 51.5312 44.8906
Q49.8594 40.875 45.4062 35.4062
Q44.1875 33.9844 37.6406 27.2188
Q31.1094 20.4531 19.1875 8.29688" id="BitstreamVeraSans-Roman-32"/>
      </defs>
      <g transform="translate(232.591117295 256.1165625)scale(0.1 -0.1)">
       <use xlink:href="#BitstreamVeraSans-Roman-32"/>
       <use x="63.623046875" xlink:href="#BitstreamVeraSans-Roman-30"/>
       <use x="127.24609375" xlink:href="#BitstreamVeraSans-Roman-30"/>
      </g>
     </g>
    </g>
    <g id="xtick_6">
     <g id="line2d_18">
      <g>
       <use style="stroke:#000000;stroke-width:0.5;" x="287.299443493" xlink:href="#m93b0483c22" y="244.518125"/>
      </g>
     </g>
     <g id="line2d_19">
      <g>
       <use style="stroke:#000000;stroke-width:0.5;" x="287.299443493" xlink:href="#m741efc42ff" y="21.318125"/>
      </g>
     </g>
     <g id="text_6">
      <!-- 250 -->
      <g transform="translate(278.454130993 256.1165625)scale(0.1 -0.1)">
       <use xlink:href="#BitstreamVeraSans-Roman-32"/>
       <use x="63.623046875" xlink:href="#BitstreamVeraSans-Roman-35"/>
       <use x="127.24609375" xlink:href="#BitstreamVeraSans-Roman-30"/>
      </g>
     </g>
    </g>
    <g id="xtick_7">
     <g id="line2d_20">
      <g>
       <use style="stroke:#000000;stroke-width:0.5;" x="333.162457192" xlink:href="#m93b0483c22" y="244.518125"/>
      </g>
     </g>
     <g id="line2d_21">
      <g>
       <use style="stroke:#000000;stroke-width:0.5;" x="333.162457192" xlink:href="#m741efc42ff" y="21.318125"/>
      </g>
     </g>
     <g id="text_7">
      <!-- 300 -->
      <defs>
       <path d="
M40.5781 39.3125
Q47.6562 37.7969 51.625 33
Q55.6094 28.2188 55.6094 21.1875
Q55.6094 10.4062 48.1875 4.48438
Q40.7656 -1.42188 27.0938 -1.42188
Q22.5156 -1.42188 17.6562 -0.515625
Q12.7969 0.390625 7.625 2.20312
L7.625 11.7188
Q11.7188 9.32812 16.5938 8.10938
Q21.4844 6.89062 26.8125 6.89062
Q36.0781 6.89062 40.9375 10.5469
Q45.7969 14.2031 45.7969 21.1875
Q45.7969 27.6406 41.2812 31.2656
Q36.7656 34.9062 28.7188 34.9062
L20.2188 34.9062
L20.2188 43.0156
L29.1094 43.0156
Q36.375 43.0156 40.2344 45.9219
Q44.0938 48.8281 44.0938 54.2969
Q44.0938 59.9062 40.1094 62.9062
Q36.1406 65.9219 28.7188 65.9219
Q24.6562 65.9219 20.0156 65.0312
Q15.375 64.1562 9.8125 62.3125
L9.8125 71.0938
Q15.4375 72.6562 20.3438 73.4375
Q25.25 74.2188 29.5938 74.2188
Q40.8281 74.2188 47.3594 69.1094
Q53.9062 64.0156 53.9062 55.3281
Q53.9062 49.2656 50.4375 45.0938
Q46.9688 40.9219 40.5781 39.3125" id="BitstreamVeraSans-Roman-33"/>
      </defs>
      <g transform="translate(324.331988442 256.1165625)scale(0.1 -0.1)">
       <use xlink:href="#BitstreamVeraSans-Roman-33"/>
       <use x="63.623046875" xlink:href="#BitstreamVeraSans-Roman-30"/>
       <use x="127.24609375" xlink:href="#BitstreamVeraSans-Roman-30"/>
      </g>
     </g>
    </g>
    <g id="xtick_8">
     <g id="line2d_22">
      <g>
       <use style="stroke:#000000;stroke-width:0.5;" x="379.02547089" xlink:href="#m93b0483c22" y="244.518125"/>
      </g>
     </g>
     <g id="line2d_23">
      <g>
       <use style="stroke:#000000;stroke-width:0.5;" x="379.02547089" xlink:href="#m741efc42ff" y="21.318125"/>
      </g>
     </g>
     <g id="text_8">
      <!-- 350 -->
      <g transform="translate(370.19500214 256.1165625)scale(0.1 -0.1)">
       <use xlink:href="#BitstreamVeraSans-Roman-33"/>
       <use x="63.623046875" xlink:href="#BitstreamVeraSans-Roman-35"/>
       <use x="127.24609375" xlink:href="#BitstreamVeraSans-Roman-30"/>
      </g>
     </g>
    </g>
    <g id="text_9">
     <!-- Julian day -->
     <defs>
      <path id="BitstreamVeraSans-Roman-20"/>
      <path d="
M9.8125 72.9062
L19.6719 72.9062
L19.6719 5.07812
Q19.6719 -8.10938 14.6719 -14.0625
Q9.67188 -20.0156 -1.42188 -20.0156
L-5.17188 -20.0156
L-5.17188 -11.7188
L-2.09375 -11.7188
Q4.4375 -11.7188 7.125 -8.04688
Q9.8125 -4.39062 9.8125 5.07812
z
" id="BitstreamVeraSans-Roman-4a"/>
      <path d="
M54.8906 33.0156
L54.8906 0
L45.9062 0
L45.9062 32.7188
Q45.9062 40.4844 42.875 44.3281
Q39.8438 48.1875 33.7969 48.1875
Q26.5156 48.1875 22.3125 43.5469
Q18.1094 38.9219 18.1094 30.9062
L18.1094 0
L9.07812 0
L9.07812 54.6875
L18.1094 54.6875
L18.1094 46.1875
Q21.3438 51.125 25.7031 53.5625
Q30.0781 56 35.7969 56
Q45.2188 56 50.0469 50.1719
Q54.8906 44.3438 54.8906 33.0156" id="BitstreamVeraSans-Roman-6e"/>
      <path d="
M9.42188 75.9844
L18.4062 75.9844
L18.4062 0
L9.42188 0
z
" id="BitstreamVeraSans-Roman-6c"/>
      <path d="
M9.42188 54.6875
L18.4062 54.6875
L18.4062 0
L9.42188 0
z

M9.42188 75.9844
L18.4062 75.9844
L18.4062 64.5938
L9.42188 64.5938
z
" id="BitstreamVeraSans-Roman-69"/>
      <path d="
M32.1719 -5.07812
Q28.375 -14.8438 24.75 -17.8125
Q21.1406 -20.7969 15.0938 -20.7969
L7.90625 -20.7969
L7.90625 -13.2812
L13.1875 -13.2812
Q16.8906 -13.2812 18.9375 -11.5156
Q21 -9.76562 23.4844 -3.21875
L25.0938 0.875
L2.98438 54.6875
L12.5 54.6875
L29.5938 11.9219
L46.6875 54.6875
L56.2031 54.6875
z
" id="BitstreamVeraSans-Roman-79"/>
      <path d="
M45.4062 46.3906
L45.4062 75.9844
L54.3906 75.9844
L54.3906 0
L45.4062 0
L45.4062 8.20312
Q42.5781 3.32812 38.25 0.953125
Q33.9375 -1.42188 27.875 -1.42188
Q17.9688 -1.42188 11.7344 6.48438
Q5.51562 14.4062 5.51562 27.2969
Q5.51562 40.1875 11.7344 48.0938
Q17.9688 56 27.875 56
Q33.9375 56 38.25 53.625
Q42.5781 51.2656 45.4062 46.3906
M14.7969 27.2969
Q14.7969 17.3906 18.875 11.75
Q22.9531 6.10938 30.0781 6.10938
Q37.2031 6.10938 41.2969 11.75
Q45.4062 17.3906 45.4062 27.2969
Q45.4062 37.2031 41.2969 42.8438
Q37.2031 48.4844 30.0781 48.4844
Q22.9531 48.4844 18.875 42.8438
Q14.7969 37.2031 14.7969 27.2969" id="BitstreamVeraSans-Roman-64"/>
      <path d="
M8.5 21.5781
L8.5 54.6875
L17.4844 54.6875
L17.4844 21.9219
Q17.4844 14.1562 20.5 10.2656
Q23.5312 6.39062 29.5938 6.39062
Q36.8594 6.39062 41.0781 11.0312
Q45.3125 15.6719 45.3125 23.6875
L45.3125 54.6875
L54.2969 54.6875
L54.2969 0
L45.3125 0
L45.3125 8.40625
Q42.0469 3.42188 37.7188 1
Q33.4062 -1.42188 27.6875 -1.42188
Q18.2656 -1.42188 13.375 4.4375
Q8.5 10.2969 8.5 21.5781" id="BitstreamVeraSans-Roman-75"/>
      <path d="
M34.2812 27.4844
Q23.3906 27.4844 19.1875 25
Q14.9844 22.5156 14.9844 16.5
Q14.9844 11.7188 18.1406 8.90625
Q21.2969 6.10938 26.7031 6.10938
Q34.1875 6.10938 38.7031 11.4062
Q43.2188 16.7031 43.2188 25.4844
L43.2188 27.4844
z

M52.2031 31.2031
L52.2031 0
L43.2188 0
L43.2188 8.29688
Q40.1406 3.32812 35.5469 0.953125
Q30.9531 -1.42188 24.3125 -1.42188
Q15.9219 -1.42188 10.9531 3.29688
Q6 8.01562 6 15.9219
Q6 25.1406 12.1719 29.8281
Q18.3594 34.5156 30.6094 34.5156
L43.2188 34.5156
L43.2188 35.4062
Q43.2188 41.6094 39.1406 45
Q35.0625 48.3906 27.6875 48.3906
Q23 48.3906 18.5469 47.2656
Q14.1094 46.1406 10.0156 43.8906
L10.0156 52.2031
Q14.9375 54.1094 19.5781 55.0469
Q24.2188 56 28.6094 56
Q40.4844 56 46.3438 49.8438
Q52.2031 43.7031 52.2031 31.2031" id="BitstreamVeraSans-Roman-61"/>
     </defs>
     <g transform="translate(200.83359375 270.7946875)scale(0.1 -0.1)">
      <use xlink:href="#BitstreamVeraSans-Roman-4a"/>
      <use x="29.4921875" xlink:href="#BitstreamVeraSans-Roman-75"/>
      <use x="92.87109375" xlink:href="#BitstreamVeraSans-Roman-6c"/>
      <use x="120.654296875" xlink:href="#BitstreamVeraSans-Roman-69"/>
      <use x="148.4375" xlink:href="#BitstreamVeraSans-Roman-61"/>
      <use x="209.716796875" xlink:href="#BitstreamVeraSans-Roman-6e"/>
      <use x="273.095703125" xlink:href="#BitstreamVeraSans-Roman-20"/>
      <use x="304.8828125" xlink:href="#BitstreamVeraSans-Roman-64"/>
      <use x="368.359375" xlink:href="#BitstreamVeraSans-Roman-61"/>
      <use x="429.638671875" xlink:href="#BitstreamVeraSans-Roman-79"/>
     </g>
    </g>
   </g>
   <g id="matplotlib.axis_2">
    <g id="ytick_1">
     <g id="line2d_24">
      <defs>
       <path d="
M0 0
L4 0" id="m728421d6d4" style="stroke:#000000;stroke-width:0.5;"/>
      </defs>
      <g>
       <use style="stroke:#000000;stroke-width:0.5;" x="57.984375" xlink:href="#m728421d6d4" y="244.518125"/>
      </g>
     </g>
     <g id="line2d_25">
      <defs>
       <path d="
M0 0
L-4 0" id="mcb0005524f" style="stroke:#000000;stroke-width:0.5;"/>
      </defs>
      <g>
       <use style="stroke:#000000;stroke-width:0.5;" x="392.784375" xlink:href="#mcb0005524f" y="244.518125"/>
      </g>
     </g>
     <g id="text_10">
      <!-- 1000 -->
      <defs>
       <path d="
M10.5938 35.5
L73.1875 35.5
L73.1875 27.2031
L10.5938 27.2031
z
" id="BitstreamVeraSans-Roman-2212"/>
      </defs>
      <g transform="translate(21.878125 247.2775)scale(0.1 -0.1)">
       <use xlink:href="#BitstreamVeraSans-Roman-2212"/>
       <use x="83.7890625" xlink:href="#BitstreamVeraSans-Roman-31"/>
       <use x="147.412109375" xlink:href="#BitstreamVeraSans-Roman-30"/>
       <use x="211.03515625" xlink:href="#BitstreamVeraSans-Roman-30"/>
       <use x="274.658203125" xlink:href="#BitstreamVeraSans-Roman-30"/>
      </g>
     </g>
    </g>
    <g id="ytick_2">
     <g id="line2d_26">
      <g>
       <use style="stroke:#000000;stroke-width:0.5;" x="57.984375" xlink:href="#m728421d6d4" y="188.718125"/>
      </g>
     </g>
     <g id="line2d_27">
      <g>
       <use style="stroke:#000000;stroke-width:0.5;" x="392.784375" xlink:href="#mcb0005524f" y="188.718125"/>
      </g>
     </g>
     <g id="text_11">
      <!-- 500 -->
      <g transform="translate(28.240625 191.4775)scale(0.1 -0.1)">
       <use xlink:href="#BitstreamVeraSans-Roman-2212"/>
       <use x="83.7890625" xlink:href="#BitstreamVeraSans-Roman-35"/>
       <use x="147.412109375" xlink:href="#BitstreamVeraSans-Roman-30"/>
       <use x="211.03515625" xlink:href="#BitstreamVeraSans-Roman-30"/>
      </g>
     </g>
    </g>
    <g id="ytick_3">
     <g id="line2d_28">
      <g>
       <use style="stroke:#000000;stroke-width:0.5;" x="57.984375" xlink:href="#m728421d6d4" y="132.918125"/>
      </g>
     </g>
     <g id="line2d_29">
      <g>
       <use style="stroke:#000000;stroke-width:0.5;" x="392.784375" xlink:href="#mcb0005524f" y="132.918125"/>
      </g>
     </g>
     <g id="text_12">
      <!-- 0 -->
      <g transform="translate(48.9453125 135.6775)scale(0.1 -0.1)">
       <use xlink:href="#BitstreamVeraSans-Roman-30"/>
      </g>
     </g>
    </g>
    <g id="ytick_4">
     <g id="line2d_30">
      <g>
       <use style="stroke:#000000;stroke-width:0.5;" x="57.984375" xlink:href="#m728421d6d4" y="77.118125"/>
      </g>
     </g>
     <g id="line2d_31">
      <g>
       <use style="stroke:#000000;stroke-width:0.5;" x="392.784375" xlink:href="#mcb0005524f" y="77.118125"/>
      </g>
     </g>
     <g id="text_13">
      <!-- 500 -->
      <g transform="translate(36.3328125 79.8775)scale(0.1 -0.1)">
       <use xlink:href="#BitstreamVeraSans-Roman-35"/>
       <use x="63.623046875" xlink:href="#BitstreamVeraSans-Roman-30"/>
       <use x="127.24609375" xlink:href="#BitstreamVeraSans-Roman-30"/>
      </g>
     </g>
    </g>
    <g id="ytick_5">
     <g id="line2d_32">
      <g>
       <use style="stroke:#000000;stroke-width:0.5;" x="57.984375" xlink:href="#m728421d6d4" y="21.318125"/>
      </g>
     </g>
     <g id="line2d_33">
      <g>
       <use style="stroke:#000000;stroke-width:0.5;" x="392.784375" xlink:href="#mcb0005524f" y="21.318125"/>
      </g>
     </g>
     <g id="text_14">
      <!-- 1000 -->
      <g transform="translate(30.296875 24.0775)scale(0.1 -0.1)">
       <use xlink:href="#BitstreamVeraSans-Roman-31"/>
       <use x="63.623046875" xlink:href="#BitstreamVeraSans-Roman-30"/>
       <use x="127.24609375" xlink:href="#BitstreamVeraSans-Roman-30"/>
       <use x="190.869140625" xlink:href="#BitstreamVeraSans-Roman-30"/>
      </g>
     </g>
    </g>
    <g id="text_15">
     <!-- PET (mm/day) -->
     <defs>
      <path d="
M52 44.1875
Q55.375 50.25 60.0625 53.125
Q64.75 56 71.0938 56
Q79.6406 56 84.2812 50.0156
Q88.9219 44.0469 88.9219 33.0156
L88.9219 0
L79.8906 0
L79.8906 32.7188
Q79.8906 40.5781 77.0938 44.375
Q74.3125 48.1875 68.6094 48.1875
Q61.625 48.1875 57.5625 43.5469
Q53.5156 38.9219 53.5156 30.9062
L53.5156 0
L44.4844 0
L44.4844 32.7188
Q44.4844 40.625 41.7031 44.4062
Q38.9219 48.1875 33.1094 48.1875
Q26.2188 48.1875 22.1562 43.5312
Q18.1094 38.875 18.1094 30.9062
L18.1094 0
L9.07812 0
L9.07812 54.6875
L18.1094 54.6875
L18.1094 46.1875
Q21.1875 51.2188 25.4844 53.6094
Q29.7812 56 35.6875 56
Q41.6562 56 45.8281 52.9688
Q50 49.9531 52 44.1875" id="BitstreamVeraSans-Roman-6d"/>
      <path d="
M8.01562 75.875
L15.8281 75.875
Q23.1406 64.3594 26.7812 53.3125
Q30.4219 42.2812 30.4219 31.3906
Q30.4219 20.4531 26.7812 9.375
Q23.1406 -1.70312 15.8281 -13.1875
L8.01562 -13.1875
Q14.5 -2 17.7031 9.0625
Q20.9062 20.125 20.9062 31.3906
Q20.9062 42.6719 17.7031 53.6562
Q14.5 64.6562 8.01562 75.875" id="BitstreamVeraSans-Roman-29"/>
      <path d="
M31 75.875
Q24.4688 64.6562 21.2812 53.6562
Q18.1094 42.6719 18.1094 31.3906
Q18.1094 20.125 21.3125 9.0625
Q24.5156 -2 31 -13.1875
L23.1875 -13.1875
Q15.875 -1.70312 12.2344 9.375
Q8.59375 20.4531 8.59375 31.3906
Q8.59375 42.2812 12.2031 53.3125
Q15.8281 64.3594 23.1875 75.875
z
" id="BitstreamVeraSans-Roman-28"/>
      <path d="
M19.6719 64.7969
L19.6719 37.4062
L32.0781 37.4062
Q38.9688 37.4062 42.7188 40.9688
Q46.4844 44.5312 46.4844 51.125
Q46.4844 57.6719 42.7188 61.2344
Q38.9688 64.7969 32.0781 64.7969
z

M9.8125 72.9062
L32.0781 72.9062
Q44.3438 72.9062 50.6094 67.3594
Q56.8906 61.8125 56.8906 51.125
Q56.8906 40.3281 50.6094 34.8125
Q44.3438 29.2969 32.0781 29.2969
L19.6719 29.2969
L19.6719 0
L9.8125 0
z
" id="BitstreamVeraSans-Roman-50"/>
      <path d="
M9.8125 72.9062
L55.9062 72.9062
L55.9062 64.5938
L19.6719 64.5938
L19.6719 43.0156
L54.3906 43.0156
L54.3906 34.7188
L19.6719 34.7188
L19.6719 8.29688
L56.7812 8.29688
L56.7812 0
L9.8125 0
z
" id="BitstreamVeraSans-Roman-45"/>
      <path d="
M-0.296875 72.9062
L61.375 72.9062
L61.375 64.5938
L35.5 64.5938
L35.5 0
L25.5938 0
L25.5938 64.5938
L-0.296875 64.5938
z
" id="BitstreamVeraSans-Roman-54"/>
      <path d="
M25.3906 72.9062
L33.6875 72.9062
L8.29688 -9.28125
L0 -9.28125
z
" id="BitstreamVeraSans-Roman-2f"/>
     </defs>
     <g transform="translate(14.7984375 167.82984375)rotate(-90.0)scale(0.1 -0.1)">
      <use xlink:href="#BitstreamVeraSans-Roman-50"/>
      <use x="60.302734375" xlink:href="#BitstreamVeraSans-Roman-45"/>
      <use x="123.486328125" xlink:href="#BitstreamVeraSans-Roman-54"/>
      <use x="184.5703125" xlink:href="#BitstreamVeraSans-Roman-20"/>
      <use x="216.357421875" xlink:href="#BitstreamVeraSans-Roman-28"/>
      <use x="255.37109375" xlink:href="#BitstreamVeraSans-Roman-6d"/>
      <use x="352.783203125" xlink:href="#BitstreamVeraSans-Roman-6d"/>
      <use x="450.1953125" xlink:href="#BitstreamVeraSans-Roman-2f"/>
      <use x="483.88671875" xlink:href="#BitstreamVeraSans-Roman-64"/>
      <use x="547.36328125" xlink:href="#BitstreamVeraSans-Roman-61"/>
      <use x="608.642578125" xlink:href="#BitstreamVeraSans-Roman-79"/>
      <use x="667.822265625" xlink:href="#BitstreamVeraSans-Roman-29"/>
     </g>
    </g>
   </g>
   <g id="text_16">
    <!-- daily tree PET at LowerWeather -->
    <defs>
     <path d="
M9.8125 72.9062
L19.6719 72.9062
L19.6719 8.29688
L55.1719 8.29688
L55.1719 0
L9.8125 0
z
" id="BitstreamVeraSans-Roman-4c"/>
     <path d="
M30.6094 48.3906
Q23.3906 48.3906 19.1875 42.75
Q14.9844 37.1094 14.9844 27.2969
Q14.9844 17.4844 19.1562 11.8438
Q23.3438 6.20312 30.6094 6.20312
Q37.7969 6.20312 41.9844 11.8594
Q46.1875 17.5312 46.1875 27.2969
Q46.1875 37.0156 41.9844 42.7031
Q37.7969 48.3906 30.6094 48.3906
M30.6094 56
Q42.3281 56 49.0156 48.375
Q55.7188 40.7656 55.7188 27.2969
Q55.7188 13.875 49.0156 6.21875
Q42.3281 -1.42188 30.6094 -1.42188
Q18.8438 -1.42188 12.1719 6.21875
Q5.51562 13.875 5.51562 27.2969
Q5.51562 40.7656 12.1719 48.375
Q18.8438 56 30.6094 56" id="BitstreamVeraSans-Roman-6f"/>
     <path d="
M54.8906 33.0156
L54.8906 0
L45.9062 0
L45.9062 32.7188
Q45.9062 40.4844 42.875 44.3281
Q39.8438 48.1875 33.7969 48.1875
Q26.5156 48.1875 22.3125 43.5469
Q18.1094 38.9219 18.1094 30.9062
L18.1094 0
L9.07812 0
L9.07812 75.9844
L18.1094 75.9844
L18.1094 46.1875
Q21.3438 51.125 25.7031 53.5625
Q30.0781 56 35.7969 56
Q45.2188 56 50.0469 50.1719
Q54.8906 44.3438 54.8906 33.0156" id="BitstreamVeraSans-Roman-68"/>
     <path d="
M3.32812 72.9062
L13.2812 72.9062
L28.6094 11.2812
L43.8906 72.9062
L54.9844 72.9062
L70.3125 11.2812
L85.5938 72.9062
L95.6094 72.9062
L77.2969 0
L64.8906 0
L49.5156 63.2812
L33.9844 0
L21.5781 0
z
" id="BitstreamVeraSans-Roman-57"/>
     <path d="
M56.2031 29.5938
L56.2031 25.2031
L14.8906 25.2031
Q15.4844 15.9219 20.4844 11.0625
Q25.4844 6.20312 34.4219 6.20312
Q39.5938 6.20312 44.4531 7.46875
Q49.3125 8.73438 54.1094 11.2812
L54.1094 2.78125
Q49.2656 0.734375 44.1875 -0.34375
Q39.1094 -1.42188 33.8906 -1.42188
Q20.7969 -1.42188 13.1562 6.1875
Q5.51562 13.8125 5.51562 26.8125
Q5.51562 40.2344 12.7656 48.1094
Q20.0156 56 32.3281 56
Q43.3594 56 49.7812 48.8906
Q56.2031 41.7969 56.2031 29.5938
M47.2188 32.2344
Q47.125 39.5938 43.0938 43.9844
Q39.0625 48.3906 32.4219 48.3906
Q24.9062 48.3906 20.3906 44.1406
Q15.875 39.8906 15.1875 32.1719
z
" id="BitstreamVeraSans-Roman-65"/>
     <path d="
M4.20312 54.6875
L13.1875 54.6875
L24.4219 12.0156
L35.5938 54.6875
L46.1875 54.6875
L57.4219 12.0156
L68.6094 54.6875
L77.5938 54.6875
L63.2812 0
L52.6875 0
L40.9219 44.8281
L29.1094 0
L18.5 0
z
" id="BitstreamVeraSans-Roman-77"/>
     <path d="
M18.3125 70.2188
L18.3125 54.6875
L36.8125 54.6875
L36.8125 47.7031
L18.3125 47.7031
L18.3125 18.0156
Q18.3125 11.3281 20.1406 9.42188
Q21.9688 7.51562 27.5938 7.51562
L36.8125 7.51562
L36.8125 0
L27.5938 0
Q17.1875 0 13.2344 3.875
Q9.28125 7.76562 9.28125 18.0156
L9.28125 47.7031
L2.6875 47.7031
L2.6875 54.6875
L9.28125 54.6875
L9.28125 70.2188
z
" id="BitstreamVeraSans-Roman-74"/>
     <path d="
M41.1094 46.2969
Q39.5938 47.1719 37.8125 47.5781
Q36.0312 48 33.8906 48
Q26.2656 48 22.1875 43.0469
Q18.1094 38.0938 18.1094 28.8125
L18.1094 0
L9.07812 0
L9.07812 54.6875
L18.1094 54.6875
L18.1094 46.1875
Q20.9531 51.1719 25.4844 53.5781
Q30.0312 56 36.5312 56
Q37.4531 56 38.5781 55.875
Q39.7031 55.7656 41.0625 55.5156
z
" id="BitstreamVeraSans-Roman-72"/>
    </defs>
    <g transform="translate(130.9790625 16.318125)scale(0.12 -0.12)">
     <use xlink:href="#BitstreamVeraSans-Roman-64"/>
     <use x="63.4765625" xlink:href="#BitstreamVeraSans-Roman-61"/>
     <use x="124.755859375" xlink:href="#BitstreamVeraSans-Roman-69"/>
     <use x="152.5390625" xlink:href="#BitstreamVeraSans-Roman-6c"/>
     <use x="180.322265625" xlink:href="#BitstreamVeraSans-Roman-79"/>
     <use x="239.501953125" xlink:href="#BitstreamVeraSans-Roman-20"/>
     <use x="271.2890625" xlink:href="#BitstreamVeraSans-Roman-74"/>
     <use x="310.498046875" xlink:href="#BitstreamVeraSans-Roman-72"/>
     <use x="349.361328125" xlink:href="#BitstreamVeraSans-Roman-65"/>
     <use x="410.884765625" xlink:href="#BitstreamVeraSans-Roman-65"/>
     <use x="472.408203125" xlink:href="#BitstreamVeraSans-Roman-20"/>
     <use x="504.1953125" xlink:href="#BitstreamVeraSans-Roman-50"/>
     <use x="564.498046875" xlink:href="#BitstreamVeraSans-Roman-45"/>
     <use x="627.681640625" xlink:href="#BitstreamVeraSans-Roman-54"/>
     <use x="688.765625" xlink:href="#BitstreamVeraSans-Roman-20"/>
     <use x="720.552734375" xlink:href="#BitstreamVeraSans-Roman-61"/>
     <use x="781.83203125" xlink:href="#BitstreamVeraSans-Roman-74"/>
     <use x="821.041015625" xlink:href="#BitstreamVeraSans-Roman-20"/>
     <use x="852.828125" xlink:href="#BitstreamVeraSans-Roman-4c"/>
     <use x="906.791015625" xlink:href="#BitstreamVeraSans-Roman-6f"/>
     <use x="967.97265625" xlink:href="#BitstreamVeraSans-Roman-77"/>
     <use x="1049.75976562" xlink:href="#BitstreamVeraSans-Roman-65"/>
     <use x="1111.28320312" xlink:href="#BitstreamVeraSans-Roman-72"/>
     <use x="1152.39648438" xlink:href="#BitstreamVeraSans-Roman-57"/>
     <use x="1245.3984375" xlink:href="#BitstreamVeraSans-Roman-65"/>
     <use x="1306.921875" xlink:href="#BitstreamVeraSans-Roman-61"/>
     <use x="1368.20117188" xlink:href="#BitstreamVeraSans-Roman-74"/>
     <use x="1407.41015625" xlink:href="#BitstreamVeraSans-Roman-68"/>
     <use x="1470.7890625" xlink:href="#BitstreamVeraSans-Roman-65"/>
     <use x="1532.3125" xlink:href="#BitstreamVeraSans-Roman-72"/>
    </g>
   </g>
   <g id="legend_1">
    <g id="patch_7">
     <path d="
M314.597 154.214
L386.784 154.214
L386.784 27.3181
L314.597 27.3181
z
" style="fill:#ffffff;stroke:#000000;stroke-linejoin:miter;"/>
    </g>
    <g id="line2d_34">
     <path d="
M322.997 37.0363
L339.797 37.0363" style="fill:none;stroke:#0000ff;stroke-linecap:square;"/>
    </g>
    <g id="line2d_35"/>
    <g id="text_17">
     <!-- 2008 -->
     <defs>
      <path d="
M31.7812 34.625
Q24.75 34.625 20.7188 30.8594
Q16.7031 27.0938 16.7031 20.5156
Q16.7031 13.9219 20.7188 10.1562
Q24.75 6.39062 31.7812 6.39062
Q38.8125 6.39062 42.8594 10.1719
Q46.9219 13.9688 46.9219 20.5156
Q46.9219 27.0938 42.8906 30.8594
Q38.875 34.625 31.7812 34.625
M21.9219 38.8125
Q15.5781 40.375 12.0312 44.7188
Q8.5 49.0781 8.5 55.3281
Q8.5 64.0625 14.7188 69.1406
Q20.9531 74.2188 31.7812 74.2188
Q42.6719 74.2188 48.875 69.1406
Q55.0781 64.0625 55.0781 55.3281
Q55.0781 49.0781 51.5312 44.7188
Q48 40.375 41.7031 38.8125
Q48.8281 37.1562 52.7969 32.3125
Q56.7812 27.4844 56.7812 20.5156
Q56.7812 9.90625 50.3125 4.23438
Q43.8438 -1.42188 31.7812 -1.42188
Q19.7344 -1.42188 13.25 4.23438
Q6.78125 9.90625 6.78125 20.5156
Q6.78125 27.4844 10.7812 32.3125
Q14.7969 37.1562 21.9219 38.8125
M18.3125 54.3906
Q18.3125 48.7344 21.8438 45.5625
Q25.3906 42.3906 31.7812 42.3906
Q38.1406 42.3906 41.7188 45.5625
Q45.3125 48.7344 45.3125 54.3906
Q45.3125 60.0625 41.7188 63.2344
Q38.1406 66.4062 31.7812 66.4062
Q25.3906 66.4062 21.8438 63.2344
Q18.3125 60.0625 18.3125 54.3906" id="BitstreamVeraSans-Roman-38"/>
     </defs>
     <g transform="translate(352.996875 41.23625)scale(0.12 -0.12)">
      <use xlink:href="#BitstreamVeraSans-Roman-32"/>
      <use x="63.623046875" xlink:href="#BitstreamVeraSans-Roman-30"/>
      <use x="127.24609375" xlink:href="#BitstreamVeraSans-Roman-30"/>
      <use x="190.869140625" xlink:href="#BitstreamVeraSans-Roman-38"/>
     </g>
    </g>
    <g id="line2d_36">
     <path d="
M322.997 54.65
L339.797 54.65" style="fill:none;stroke:#008000;stroke-linecap:square;"/>
    </g>
    <g id="line2d_37"/>
    <g id="text_18">
     <!-- 2009 -->
     <defs>
      <path d="
M10.9844 1.51562
L10.9844 10.5
Q14.7031 8.73438 18.5 7.8125
Q22.3125 6.89062 25.9844 6.89062
Q35.75 6.89062 40.8906 13.4531
Q46.0469 20.0156 46.7812 33.4062
Q43.9531 29.2031 39.5938 26.9531
Q35.25 24.7031 29.9844 24.7031
Q19.0469 24.7031 12.6719 31.3125
Q6.29688 37.9375 6.29688 49.4219
Q6.29688 60.6406 12.9375 67.4219
Q19.5781 74.2188 30.6094 74.2188
Q43.2656 74.2188 49.9219 64.5156
Q56.5938 54.8281 56.5938 36.375
Q56.5938 19.1406 48.4062 8.85938
Q40.2344 -1.42188 26.4219 -1.42188
Q22.7031 -1.42188 18.8906 -0.6875
Q15.0938 0.046875 10.9844 1.51562
M30.6094 32.4219
Q37.25 32.4219 41.125 36.9531
Q45.0156 41.5 45.0156 49.4219
Q45.0156 57.2812 41.125 61.8438
Q37.25 66.4062 30.6094 66.4062
Q23.9688 66.4062 20.0938 61.8438
Q16.2188 57.2812 16.2188 49.4219
Q16.2188 41.5 20.0938 36.9531
Q23.9688 32.4219 30.6094 32.4219" id="BitstreamVeraSans-Roman-39"/>
     </defs>
     <g transform="translate(352.996875 58.85)scale(0.12 -0.12)">
      <use xlink:href="#BitstreamVeraSans-Roman-32"/>
      <use x="63.623046875" xlink:href="#BitstreamVeraSans-Roman-30"/>
      <use x="127.24609375" xlink:href="#BitstreamVeraSans-Roman-30"/>
      <use x="190.869140625" xlink:href="#BitstreamVeraSans-Roman-39"/>
     </g>
    </g>
    <g id="line2d_38">
     <path d="
M322.997 72.2638
L339.797 72.2638" style="fill:none;stroke:#ff0000;stroke-linecap:square;"/>
    </g>
    <g id="line2d_39"/>
    <g id="text_19">
     <!-- 2010 -->
     <g transform="translate(352.996875 76.46375)scale(0.12 -0.12)">
      <use xlink:href="#BitstreamVeraSans-Roman-32"/>
      <use x="63.623046875" xlink:href="#BitstreamVeraSans-Roman-30"/>
      <use x="127.24609375" xlink:href="#BitstreamVeraSans-Roman-31"/>
      <use x="190.869140625" xlink:href="#BitstreamVeraSans-Roman-30"/>
     </g>
    </g>
    <g id="line2d_40">
     <path d="
M322.997 89.8775
L339.797 89.8775" style="fill:none;stroke:#00bfbf;stroke-linecap:square;"/>
    </g>
    <g id="line2d_41"/>
    <g id="text_20">
     <!-- 2011 -->
     <g transform="translate(352.996875 94.0775)scale(0.12 -0.12)">
      <use xlink:href="#BitstreamVeraSans-Roman-32"/>
      <use x="63.623046875" xlink:href="#BitstreamVeraSans-Roman-30"/>
      <use x="127.24609375" xlink:href="#BitstreamVeraSans-Roman-31"/>
      <use x="190.869140625" xlink:href="#BitstreamVeraSans-Roman-31"/>
     </g>
    </g>
    <g id="line2d_42">
     <path d="
M322.997 107.491
L339.797 107.491" style="fill:none;stroke:#bf00bf;stroke-linecap:square;"/>
    </g>
    <g id="line2d_43"/>
    <g id="text_21">
     <!-- 2012 -->
     <g transform="translate(352.996875 111.69125)scale(0.12 -0.12)">
      <use xlink:href="#BitstreamVeraSans-Roman-32"/>
      <use x="63.623046875" xlink:href="#BitstreamVeraSans-Roman-30"/>
      <use x="127.24609375" xlink:href="#BitstreamVeraSans-Roman-31"/>
      <use x="190.869140625" xlink:href="#BitstreamVeraSans-Roman-32"/>
     </g>
    </g>
    <g id="line2d_44">
     <path d="
M322.997 125.105
L339.797 125.105" style="fill:none;stroke:#bfbf00;stroke-linecap:square;"/>
    </g>
    <g id="line2d_45"/>
    <g id="text_22">
     <!-- 2013 -->
     <g transform="translate(352.996875 129.305)scale(0.12 -0.12)">
      <use xlink:href="#BitstreamVeraSans-Roman-32"/>
      <use x="63.623046875" xlink:href="#BitstreamVeraSans-Roman-30"/>
      <use x="127.24609375" xlink:href="#BitstreamVeraSans-Roman-31"/>
      <use x="190.869140625" xlink:href="#BitstreamVeraSans-Roman-33"/>
     </g>
    </g>
    <g id="line2d_46">
     <path d="
M322.997 142.719
L339.797 142.719" style="fill:none;stroke:#000000;stroke-linecap:square;"/>
    </g>
    <g id="line2d_47"/>
    <g id="text_23">
     <!-- 2014 -->
     <defs>
      <path d="
M37.7969 64.3125
L12.8906 25.3906
L37.7969 25.3906
z

M35.2031 72.9062
L47.6094 72.9062
L47.6094 25.3906
L58.0156 25.3906
L58.0156 17.1875
L47.6094 17.1875
L47.6094 0
L37.7969 0
L37.7969 17.1875
L4.89062 17.1875
L4.89062 26.7031
z
" id="BitstreamVeraSans-Roman-34"/>
     </defs>
     <g transform="translate(352.996875 146.91875)scale(0.12 -0.12)">
      <use xlink:href="#BitstreamVeraSans-Roman-32"/>
      <use x="63.623046875" xlink:href="#BitstreamVeraSans-Roman-30"/>
      <use x="127.24609375" xlink:href="#BitstreamVeraSans-Roman-31"/>
      <use x="190.869140625" xlink:href="#BitstreamVeraSans-Roman-34"/>
     </g>
    </g>
   </g>
  </g>
 </g>
 <defs>
  <clipPath id="pdf711f5425">
   <rect height="223.2" width="334.8" x="57.984375" y="21.318125"/>
  </clipPath>
 </defs>
</svg>
