<?xml version="1.0" encoding="utf-8" standalone="no"?>
<!DOCTYPE svg PUBLIC "-//W3C//DTD SVG 1.1//EN"
  "http://www.w3.org/Graphics/SVG/1.1/DTD/svg11.dtd">
<!-- Created with matplotlib (http://matplotlib.org/) -->
<svg height="284pt" version="1.1" viewBox="0 0 373 284" width="373pt" xmlns="http://www.w3.org/2000/svg" xmlns:xlink="http://www.w3.org/1999/xlink">
 <defs>
  <style type="text/css">
*{stroke-linecap:butt;stroke-linejoin:round;}
  </style>
 </defs>
 <g id="figure_1">
  <g id="patch_1">
   <path d="
M0 284.711
L373.191 284.711
L373.191 0
L0 0
z
" style="fill:#ffffff;"/>
  </g>
  <g id="axes_1">
   <g id="patch_2">
    <path d="
M31.1906 244.518
L365.991 244.518
L365.991 21.3181
L31.1906 21.3181
z
" style="fill:#ffffff;"/>
   </g>
   <g id="line2d_1">
    <path clip-path="url(#p95a2ee5e18)" d="
M0 0" style="fill:none;stroke:#0000ff;stroke-linecap:square;"/>
   </g>
   <g id="line2d_2">
    <path clip-path="url(#p95a2ee5e18)" d="
M0 0" style="fill:none;stroke:#008000;stroke-linecap:square;"/>
   </g>
   <g id="line2d_3">
    <path clip-path="url(#p95a2ee5e18)" d="
M0 0" style="fill:none;stroke:#ff0000;stroke-linecap:square;"/>
   </g>
   <g id="line2d_4">
    <path clip-path="url(#p95a2ee5e18)" d="
M0 0" style="fill:none;stroke:#00bfbf;stroke-linecap:square;"/>
   </g>
   <g id="line2d_5">
    <path clip-path="url(#p95a2ee5e18)" d="
M0 0" style="fill:none;stroke:#bf00bf;stroke-linecap:square;"/>
   </g>
   <g id="line2d_6">
    <path clip-path="url(#p95a2ee5e18)" d="
M0 0" style="fill:none;stroke:#bfbf00;stroke-linecap:square;"/>
   </g>
   <g id="line2d_7">
    <path clip-path="url(#p95a2ee5e18)" d="
M0 0" style="fill:none;stroke:#000000;stroke-linecap:square;"/>
   </g>
   <g id="line2d_8">
    <path clip-path="url(#p95a2ee5e18)" d="
M0 0" style="fill:none;stroke:#0000ff;stroke-linecap:square;"/>
   </g>
   <g id="line2d_9">
    <path clip-path="url(#p95a2ee5e18)" d="
M0 0" style="fill:none;stroke:#008000;stroke-linecap:square;"/>
   </g>
   <g id="line2d_10">
    <path clip-path="url(#p95a2ee5e18)" d="
M31.1906 139.042
L32.1079 128.09
L33.0251 123.387
L33.9424 159.799
L34.8597 152.249
L35.7769 198.467
L36.6942 187.588
L37.6114 197.727
L38.5287 219.436
L39.446 198.344
L40.3632 241.677
M43.115 155.051
L44.0323 169.99
L44.9495 122.955
L45.8668 140.416
L46.784 191.485
M48.6186 233.964
L49.5358 215.536
L50.4531 172.999
L51.3704 153.666
L52.2876 176.626
L53.2049 238.099
L54.1221 188.944
L55.0394 163.693
L55.9567 204.691
L56.8739 214.112
L57.7912 199.469
L58.7084 195.468
L59.6257 189.013
L60.543 178.985
L61.4602 217.521
L62.3775 186.405
L63.2947 177.353
L65.1293 204.094
L66.0465 148.035
L66.9638 166.132
L67.881 163.073
L68.7983 158.887
L69.7156 163.124
L70.6328 182.811
L71.5501 124.642
L73.3846 166.233
L74.3019 136.337
L75.2191 151.907
L76.1364 160.06
L77.0536 160.98
L77.9709 156.396
L78.8882 212.382
L79.8054 185.566
L80.7227 174.962
L81.6399 191.445
L82.5572 145.342
L83.4745 162.506
L85.309 131.049
L86.2262 174.668
L87.1435 134.091
L88.0608 103.989
L88.978 138.777
L89.8953 122.287
L90.8125 96.1277
L91.7298 108.617
L92.6471 178.526
L93.5643 128.185
L94.4816 115.201
L95.3988 113.42
L96.3161 81.9813
L97.2334 174.936
L98.1506 171.026
L99.0679 147.244
L99.9851 134.463
L100.902 137.441
L101.82 201.361
L102.737 180.596
L103.654 148.482
L104.571 90.8835
L105.489 66.9191
L106.406 110.681
L107.323 169.133
L108.24 177.543
L109.158 194.973
L110.075 103.058
L110.992 138.654
L111.91 91.6884
L112.827 95.2564
L113.744 107.386
L114.661 52.2123
L115.579 68.5332
L116.496 72.3166
L117.413 126.029
L118.33 85.2579
L119.248 127.958
L120.165 142.156
L121.082 89.2188
L121.999 147.354
L122.917 153.875
L123.834 86.066
L124.751 112.634
L125.668 113.236
L126.586 159.578
L127.503 121.979
L128.42 106.696
L129.337 95.045
L130.255 97.1761
L131.172 104.184
L132.089 101.206
L133.007 101.007
L133.924 79.2815
L134.841 157.281
L135.758 152.552
L136.676 81.8802
L137.593 63.1587
L138.51 83.5304
L139.427 88.413
L140.345 148.98
L141.262 119.161
L142.179 85.5281
L143.096 71.0961
L144.014 86.4804
L144.931 109.221
L145.848 103.316
L146.765 115.684
L147.683 131.074
L148.6 110.822
L149.517 85.5808
L150.434 70.4163
L151.352 106.524
L152.269 94.9242
L153.186 92.6227
L154.104 161.51
L155.021 131.542
L155.938 128.166
L156.855 111.195
L157.773 134.085
L158.69 122.344
L159.607 173.307
L160.524 132.709
L161.442 146.279
L162.359 183.186
L163.276 139.118
L164.193 138.483
L165.111 166.649
L166.028 172.434
L166.945 164.168
L167.862 159.649
L168.78 137.048
L169.697 144.778
L170.614 176.458
L171.531 131.089
L172.449 183.395
L173.366 167.083
L174.283 126.836
L175.2 121.254
L176.118 143.99
L177.035 104.267
L177.952 156.409
L178.87 127.538
L179.787 169.949
L181.621 111.105
L182.539 110.687
L183.456 106.371
L184.373 112.677
L185.29 116.749
L186.208 115.666
L187.125 107.939
L188.042 114.357
L188.959 147.232
L189.877 139.708
L190.794 125.443
L191.711 125.65
L192.628 117.544
L195.38 136.751
L196.297 139.03
L197.215 140.579
L198.132 155.19
L199.049 136.801
L199.967 136.201
L200.884 141.138
L201.801 136.416
L202.718 135.894
L203.636 137.003
L204.553 123.092
L205.47 120.646
L206.387 127.717
L207.305 104.191
L208.222 99.6588
L209.139 114.085
L210.056 122.399
L210.974 125.431
L211.891 132.376
L212.808 132.267
L213.725 123.48
L214.643 111.609
L215.56 128.808
L216.477 155.747
L217.394 167.988
L218.312 142.367
L219.229 143.578
L220.146 126.402
L221.064 129.096
L222.898 136.493
L223.815 135.821
L224.733 128.836
L225.65 122.899
L226.567 132.591
L227.484 138.004
L228.402 131.324
L229.319 130.518
L230.236 135.381
L231.153 143.367
L232.071 148.744
L232.988 164.559
L233.905 151.966
L234.822 122.354
L235.74 126.518
L236.657 132.239
L237.574 126.667
L238.491 134.964
L239.409 138.108
L240.326 134.111
L241.243 136.183
L243.078 156.711
L243.995 136.965
L244.912 138.028
L245.83 123.044
L246.747 119.226
L247.664 132.262
L248.581 140.939
L249.499 125.752
L250.416 105.047
L251.333 138.128
L252.25 140.826
L253.168 131.261
L254.085 118.444
L255.002 128.992
L255.919 104.419
L256.837 102.515
L257.754 108.32
L258.671 116.593
L259.588 132.01
L260.506 130.763
L261.423 121.088
L262.34 119.952
L263.257 113.61
L264.175 114.123
L265.092 116.361
L266.009 121.433
L266.927 123.636
L267.844 123.205
L268.761 121.565
L269.678 120.184
L270.596 130.012
L271.513 150.374
L272.43 190.68
L273.347 188.439
L274.265 150.199
L276.099 124.468
L277.016 124.464
L277.934 133.084
L278.851 131.349
L279.768 117.297
L280.685 126.93
L281.603 141.803
L282.52 140.341
L283.437 150.405
L284.354 158.309
L285.272 198.521
L286.189 181.132
L287.106 156.637
L288.941 130.413
L289.858 126.612
L290.775 198.77
L291.693 182.334
L292.61 111.075
L293.527 120.649
L294.444 146.143
L295.362 139.491
L296.279 128.116
L297.196 149.936
L298.113 130.241
L299.031 155.091
L299.948 128.91
L300.865 118.506
L301.782 91.875
L302.7 91.6525
L303.617 101.409
L304.534 115.107
L305.451 113.69
L306.369 106.858
L307.286 115.961
L308.203 121.197
L309.12 120.098
L310.038 137.8
L310.955 183.638
L311.872 207.82
L313.707 182.801
L314.624 147.188
L315.541 172.57
L316.459 186.183
L317.376 205.486
L318.293 227.694
L319.21 198.579
L320.128 205.848
L321.045 196.966
L321.962 174.466
L322.879 134.555
L323.797 141.193
L324.714 167.315
L325.631 163.972
L326.548 149.611
L327.466 166.118
L328.383 164.524
L329.3 128.38
L331.135 221.345
L332.052 181.301
L332.969 166.683
L333.887 190.742
L334.804 180.409
L335.721 156.605
L336.638 196.65
L337.556 206.95
L338.473 201.506
L339.39 189.906
L340.307 191.499
L341.225 182.135
L342.142 166.868
L343.976 153.751
L344.894 204.13
L345.811 134.652
L346.728 148.393
L347.645 165.944
L348.563 206.029
L349.48 206.605
L350.397 201.194
L351.314 185.369
L352.232 204.995
L353.149 152.447
L354.066 155.522
L354.984 193.601
L355.901 158.215
L356.818 194.974
L357.735 211.422
L358.653 217.239
L359.57 186.758
L360.487 209.883
L361.404 183.648
L362.322 226.293
L364.156 171.082
L365.073 109.311
L365.073 109.311" style="fill:none;stroke:#ff0000;stroke-linecap:square;"/>
   </g>
   <g id="line2d_11">
    <path clip-path="url(#p95a2ee5e18)" d="
M31.1906 201.905
L32.1079 137.17
L33.0251 146.928
L33.9424 93.6432
L34.8597 148.386
L35.7769 227.843
L36.6942 181.201
L37.6114 166.573
L38.5287 185.961
L39.446 146.766
L40.3632 159.61
L41.2805 198.884
L42.1977 177.988
L43.115 192.573
L44.0323 232.311
L44.9495 234.231
L45.8668 235.382
L46.784 232.634
L47.7013 230.392
L48.6186 232.428
L49.5358 231.537
L50.4531 233.738
L51.3704 241.953
L52.2876 235.156
M54.1221 204.42
L55.0394 190.978
L55.9567 190.105
L56.8739 169.973
L57.7912 191.24
L58.7084 206.762
L59.6257 184.197
L60.543 167.968
L61.4602 161.654
L62.3775 171.67
L63.2947 187.655
L64.212 182.758
L65.1293 202.423
L66.0465 198.646
L66.9638 230.306
L67.881 174.63
L68.7983 199.066
L69.7156 204.643
L70.6328 147.639
L71.5501 192.876
L72.4673 131.728
L73.3846 161.242
L74.3019 201.787
L75.2191 147.023
L76.1364 128.395
L77.0536 146.575
L77.9709 139.817
L78.8882 170.364
L79.8054 173.993
L80.7227 131.831
L81.6399 162.469
L82.5572 177.406
L83.4745 99.1896
L84.3917 104.218
L85.309 143.697
L86.2262 171.682
L87.1435 177.582
L88.0608 202.648
L88.978 236.085
L89.8953 201.15
L90.8125 151.116
L91.7298 188.009
L92.6471 141.663
L93.5643 153.477
L94.4816 127.498
L95.3988 140.126
L96.3161 135.85
L97.2334 126.757
L98.1506 195.39
L99.0679 184.397
L100.902 123.472
L101.82 142.644
L102.737 127.442
L103.654 176.215
L104.571 177.67
L105.489 121.474
L106.406 144.194
L107.323 195.875
L108.24 115.624
L109.158 118.766
L110.075 167.047
L110.992 199.061
L111.91 103.075
L112.827 187.983
L113.744 131.597
L114.661 192.39
L115.579 181.304
L116.496 97.3073
L117.413 100.052
L118.33 101.562
L119.248 109.213
L120.165 187.717
L121.082 165.422
L121.999 200.594
L122.917 172.725
L123.834 136.415
L124.751 167.958
L125.668 140.74
L126.586 147.244
L127.503 116.492
L128.42 111.861
L129.337 126.527
L130.255 103.563
L131.172 117.262
L132.089 120.061
L133.007 128.64
L133.924 134.082
L134.841 83.3176
L135.758 83.5544
L136.676 137.563
L137.593 106.72
L138.51 188.499
L139.427 139.368
L140.345 144.773
L141.262 134.64
L142.179 177.359
L143.096 196.382
L144.014 164.319
L144.931 160.045
L145.848 173.493
L146.765 132.844
L147.683 111.616
L148.6 101.315
L149.517 103.322
L150.434 108.51
L151.352 115.215
L152.269 93.8787
L153.186 160.35
L154.104 108.199
L155.021 104.698
L155.938 113.173
L156.855 131.418
L157.773 120.42
L158.69 105.951
L159.607 94.164
L160.524 116.17
L162.359 153.25
L163.276 127.338
L164.193 120.639
L165.111 121.37
L166.028 128.361
L166.945 130.963
L167.862 146
L168.78 148.34
L169.697 162.427
L170.614 198.546
L171.531 168.579
L172.449 166.095
L173.366 191.565
L174.283 186.355
L175.2 152.056
L176.118 146.2
L177.035 133.702
L177.952 160.23
L178.87 163.007
L179.787 154.663
L180.704 200.848
L181.621 197.97
L182.539 178.482
L183.456 144.795
L184.373 161.795
L185.29 133.601
L186.208 164.638
L187.125 164.563
L188.042 183.481
L188.959 139.802
L189.877 117.029
L190.794 131.324
L191.711 135.786
L192.628 138.694
L193.546 122.825
L194.463 122.707
L195.38 140.336
L196.297 137.571
L197.215 129.704
L198.132 144.012
L199.049 151.57
L199.967 144
L200.884 158.401
L201.801 135.26
L202.718 127.775
L203.636 129.233
L204.553 125.996
L205.47 128.84
L206.387 151.829
L207.305 168.579
L208.222 151.951
L209.139 132.404
L210.056 129.922
L210.974 142.829
L211.891 143.701
L212.808 150.829
L213.725 145.606
L214.643 132.962
L215.56 137.126
L216.477 144.702
L217.394 159.575
L218.312 145.783
L219.229 141.558
L220.146 147.209
L221.064 156.564
L221.981 153.98
L222.898 150.623
L223.815 150.196
L224.733 144.856
L225.65 146.666
L226.567 147.881
L227.484 147.165
L228.402 152.15
L229.319 145.163
L230.236 206.831
L231.153 221.357
L232.071 177.552
L232.988 154.286
L233.905 143.226
L234.822 143.64
L235.74 148.814
L236.657 157.422
L237.574 154.151
L238.491 133.778
L239.409 129.217
L240.326 136.564
L241.243 140.729
L242.16 147.41
L243.078 156.527
L243.995 149.409
L244.912 151.456
L245.83 164.928
L246.747 154.934
L247.664 148.252
L248.581 147.62
L249.499 146.106
L250.416 154.941
L251.333 150.91
L252.25 162.91
L253.168 150.918
L254.085 148.675
L255.002 148.495
L255.919 143.834
L256.837 144.393
L257.754 152.783
L258.671 140.798
L259.588 125.77
L260.506 118.698
L261.423 122.294
L262.34 134.581
L263.257 141.356
L264.175 142.527
L265.092 146.965
L266.927 162.63
L267.844 158.561
L268.761 151.531
L269.678 170.369
M294.444 164.156
L295.362 174.28
L296.279 164.06
L298.113 200.393
L299.031 179.988
L299.948 182.768
L300.865 190.413
L301.782 187.303
L302.7 167.448
L303.617 128.137
L304.534 173.814
L305.451 174.616
L306.369 135.655
L307.286 190.104
L308.203 221.979
L309.12 181.79
L310.038 185.54
L310.955 161.852
L311.872 167.859
L312.79 146.881
L313.707 145.951
L314.624 180.399
L316.459 150.89
L317.376 121.518
L318.293 141.909
L319.21 193.201
L320.128 190.643
L321.045 199.525
L321.962 205.907
L322.879 142.448
L323.797 145.227
L324.714 128.217
L325.631 187.853
L326.548 123.842
L327.466 143.93
L328.383 149.726
L329.3 182.947
L330.217 161.064
L331.135 170.926
L332.052 176.102
L332.969 194.182
L333.887 206.178
L334.804 186.997
L335.721 157.509
M337.556 154.455
L338.473 139.951
L339.39 130.039
L340.307 147.907
L341.225 129.353
L342.142 142.233
L343.059 212.38
L343.976 155.585
L344.894 136.697
L345.811 145.23
L346.728 157.577
L347.645 206.447
L348.563 221.268
L349.48 191.892
L350.397 203.16
L351.314 219.561
L352.232 197.536
L353.149 218.525
L354.066 233.608
L354.984 218.031
L355.901 181.763
L356.818 243.783
L357.735 220.798
L358.653 170.142
L360.487 219.584
L361.404 194.837
L362.322 201.534
L363.239 189.257
L364.156 217.809
L365.073 188.637
L365.073 188.637" style="fill:none;stroke:#00bfbf;stroke-linecap:square;"/>
   </g>
   <g id="line2d_12">
    <path clip-path="url(#p95a2ee5e18)" d="
M31.1906 210.447
L32.1079 194.974
L33.0251 215.841
L33.9424 217.091
L34.8597 228.038
L35.7769 219.782
L36.6942 177.191
L37.6114 196.528
L38.5287 177.432
L39.446 162.405
L40.3632 198.65
L41.2805 172.754
L42.1977 223.558
L43.115 183.67
L44.0323 136.884
L44.9495 188.752
L45.8668 183.584
L46.784 180.165
L47.7013 179.941
L48.6186 162.758
L49.5358 167.087
L51.3704 235.218
L52.2876 174.817
L53.2049 197.108
L54.1221 228.614
L55.0394 234.601
L55.9567 202.446
L56.8739 202.108
L57.7912 223.572
L58.7084 241.195
L59.6257 233.769
L60.543 197.962
L61.4602 203.865
L62.3775 217.273
L63.2947 203.832
L64.212 217.905
L65.1293 216.775
L66.0465 195.138
L66.9638 202.435
L67.881 152.263
L68.7983 178.74
L69.7156 182.844
L70.6328 223.105
L71.5501 182.625
L72.4673 229.442
L73.3846 210.841
L74.3019 216.231
L75.2191 178.715
L76.1364 167.615
L77.0536 160.718
L77.9709 149.616
L78.8882 106.548
L79.8054 103.736
L80.7227 197.729
L81.6399 174.261
L82.5572 137.913
L84.3917 199.141
L85.309 146.38
L86.2262 172.403
L87.1435 175.316
L88.0608 197.803
L88.978 163.607
L89.8953 147.507
L90.8125 139.886
L91.7298 203.942
L92.6471 133.295
L93.5643 108.263
L94.4816 109.598
L95.3988 126.674
L96.3161 211.18
L97.2334 145.982
L98.1506 116.987
L99.0679 130.619
L99.9851 138.344
L100.902 140.504
L101.82 85.4545
L102.737 93.2974
L103.654 159.228
L104.571 173.167
L105.489 125.68
L106.406 115.721
L107.323 177.921
L108.24 181.307
L109.158 123.324
L110.075 113.126
L111.91 217.009
L112.827 151.039
L113.744 184.295
L114.661 186.943
L115.579 160.717
L116.496 121.715
L117.413 172.115
L118.33 127.951
L119.248 118.647
L120.165 144.979
L121.082 87.1594
L121.999 116.205
L122.917 138.637
L123.834 178.144
L124.751 161.947
L125.668 131.907
L126.586 120.787
L127.503 129.266
L128.42 133.701
L129.337 121.904
L130.255 114.995
L131.172 174.168
L132.089 203.368
L133.007 194.66
L133.924 119.123
L134.841 114.855
L135.758 103.726
L136.676 115.375
L137.593 177.333
L138.51 177.137
L139.427 163.492
L140.345 167.998
L141.262 161.934
L142.179 138.003
L143.096 148.353
L144.014 81.6393
L144.931 134.221
L145.848 130.726
L146.765 78.7203
L147.683 109.689
L148.6 111.31
L149.517 186.829
L150.434 160.305
L151.352 113.98
L152.269 115.726
L153.186 110.206
L154.104 113.077
L155.021 123.644
L155.938 148.76
L156.855 209.699
L157.773 147.303
L158.69 126.821
L159.607 149.049
L160.524 233.406
L161.442 169.157
L162.359 156.392
L163.276 120.921
L164.193 177.3
L165.111 174.349
L166.028 185.57
L166.945 170.528
L167.862 138.713
L168.78 183.187
L169.697 174.891
L170.614 213.462
L171.531 166.078
L172.449 213.803
L173.366 170.822
L174.283 196.854
L175.2 155.552
L176.118 126.267
L177.035 174.213
L177.952 169.894
L179.787 118.06
L180.704 125.857
L181.621 132.104
L182.539 157.902
L183.456 133.108
L184.373 127.758
L185.29 115.329
L186.208 125.881
L187.125 177.79
L188.959 135.23
L189.877 131.486
L190.794 156.687
L191.711 165.728
L192.628 140.019
L193.546 130.516
L194.463 135.578
L195.38 165.595
L196.297 157.034
L197.215 137.254
L198.132 140.783
L199.049 156.688
L199.967 135.346
L200.884 134.555
L201.801 131.179
L202.718 130.038
L203.636 133.591
L204.553 138.697
L205.47 142.1
L206.387 146.654
L207.305 145.311
L208.222 111.182
L209.139 120.74
L210.056 133.212
L210.974 140.169
L211.891 140.719
L212.808 138.603
L213.725 128.254
L214.643 128.35
L215.56 130.465
L216.477 141.307
L217.394 132.909
L218.312 136.596
L219.229 143.492
L220.146 180.031
L221.064 166.903
L221.981 156.729
L222.898 148.837
L223.815 152.703
L224.733 158.136
L226.567 133.635
L227.484 135.789
L229.319 145.109
L230.236 158.515
L231.153 144.984
L232.071 146.968
L232.988 161.553
L233.905 172.42
L234.822 192.926
L236.657 147.825
L237.574 156.183
L238.491 144.384
L239.409 143.711
L240.326 147.366
L241.243 144.126
L242.16 142.688
L243.078 134.367
L243.995 136.632
L244.912 137.619
L245.83 139.93
L246.747 135.245
L247.664 136.898
L248.581 157.377
L249.499 130.844
L250.416 148.819
L251.333 192.262
L252.25 150.965
L253.168 172.58
L254.085 156.133
L255.002 147.198
L255.919 136.174
L256.837 144.487
L257.754 137.829
L258.671 119.28
L259.588 120.784
L260.506 181.286
L261.423 216.443
L262.34 162.823
L263.257 132.159
L264.175 132.089
L265.092 135.484
L266.009 149.228
L266.927 140.577
L267.844 140.253
L268.761 145.488
L269.678 146.251
L270.596 157.475
L271.513 159.012
L272.43 145.764
L273.347 154.198
L274.265 137.078
L275.182 127.712
L276.099 142.015
L277.016 138.654
L277.934 139.435
L278.851 138.121
L279.768 149.421
L280.685 139.109
L281.603 144.724
L282.52 146.327
L283.437 183.666
L284.354 227.825
L285.272 218.165
L287.106 164.521
L288.024 192.104
L288.941 174.468
L289.858 175.519
L290.775 183.246
L291.693 144.563
L292.61 141.923
L293.527 122.313
L294.444 142.886
L295.362 157.761
L296.279 161.399
L297.196 128.812
L298.113 115.38
L299.031 129.364
L299.948 129.668
L300.865 133.235
L301.782 182.185
M304.534 189.058
L305.451 152.359
L306.369 117.2
L308.203 161.749
L309.12 207.798
L310.038 168.467
L310.955 174.866
L311.872 185.31
L312.79 165.636
L313.707 170.392
L314.624 177.573
M317.376 166.918
L318.293 225.075
L319.21 195.404
L320.128 173.509
L321.045 181.341
L321.962 213.311
M323.797 168.131
L324.714 157.783
L325.631 161.248
L326.548 226.335
M328.383 213.009
L329.3 241.051
M331.135 122.981
L332.052 171.333
L332.969 186.049
L333.887 235.084
L334.804 217.227
L335.721 161.989
L336.638 197.5
M340.307 243.88
L341.225 220.788
L342.142 234.618
L343.059 230.885
L343.976 195.946
L344.894 201.719
L345.811 200.26
L346.728 216.113
L347.645 217.316
L348.563 207.323
M351.314 164.092
L352.232 145.522
L353.149 208.069
L354.066 229.785
L354.984 195.886
L355.901 181.124
L356.818 197.474
L357.735 223.866
L358.653 209.082
L359.57 163.769
L360.487 197.041
L361.404 183.018
L362.322 210.494
L363.239 230.569
L364.156 201.231
L365.073 167.55
L365.073 167.55" style="fill:none;stroke:#bf00bf;stroke-linecap:square;"/>
   </g>
   <g id="line2d_13">
    <path clip-path="url(#p95a2ee5e18)" d="
M31.1906 159.961
L32.1079 189.412
L33.0251 184.462
L33.9424 198.818
L34.8597 196.176
L35.7769 198.231
L36.6942 198.623
L37.6114 209.297
L38.5287 204.254
L39.446 221.312
L40.3632 174.375
L42.1977 218.282
L43.115 216.664
L44.0323 205.317
L44.9495 238.994
L45.8668 204.727
L46.784 205.818
L47.7013 194.032
L48.6186 162.524
L49.5358 214.682
L50.4531 205.643
L51.3704 154.306
L52.2876 214.12
L53.2049 232.763
L54.1221 236.492
L55.0394 209.528
L55.9567 218.741
L56.8739 216.39
L57.7912 233.298
L58.7084 167.148
L59.6257 119.892
L60.543 123.465
L61.4602 147.256
L62.3775 180.561
L63.2947 167.088
L64.212 176.819
L65.1293 175.336
L66.0465 159.346
L66.9638 180
L67.881 137.284
L68.7983 150.364
L69.7156 145.322
L70.6328 128.405
L71.5501 137.799
L72.4673 136.942
L73.3846 190.874
L74.3019 192.469
L75.2191 188.903
L76.1364 202.781
L77.0536 234.991
L77.9709 166.357
L78.8882 169.029
L79.8054 162.841
L80.7227 197.097
L81.6399 208.637
L82.5572 155.103
L83.4745 122.725
L84.3917 134.73
L85.309 130.009
L86.2262 177.171
L87.1435 175.406
L88.0608 165.898
L88.978 190.327
L89.8953 161.081
L90.8125 215.974
L91.7298 191.283
L92.6471 125.82
L93.5643 185.376
L94.4816 128.177
L95.3988 126.012
L96.3161 136.25
L97.2334 164.034
L98.1506 206.851
L99.0679 231.884
L99.9851 174.716
L100.902 136.366
L101.82 184.689
L102.737 143.398
L103.654 201.885
L104.571 163.512
L105.489 155.367
L106.406 180.509
L107.323 211.698
L108.24 211.539
L109.158 193.385
L110.075 180.541
L110.992 183.6
L111.91 205.987
L112.827 148.229
L113.744 152.553
L114.661 185.189
L115.579 124.222
L116.496 137.922
L117.413 176.681
L118.33 179.09
L119.248 173.59
L120.165 158.595
L121.082 191.61
L121.999 146.261
L122.917 176.478
L123.834 152.571
L124.751 173.251
L125.668 141.572
L126.586 164.988
L127.503 195.034
L128.42 177.771
L129.337 172.113
L130.255 97.2407
L131.172 164.403
L132.089 161.211
L133.007 104.236
L133.924 103.557
L134.841 159.677
L135.758 181.777
L136.676 139.888
L137.593 116.127
L138.51 197.361
L139.427 157.511
L140.345 144.387
L141.262 116.111
L142.179 146.624
L143.096 140.568
L144.014 125.329
L144.931 124.967
L145.848 178.361
L146.765 182.952
L147.683 194.419
L148.6 169.187
L149.517 128.994
L150.434 136.17
L152.269 153.086
L153.186 160.18
L154.104 198.028
L155.021 202.005
L155.938 130.198
L156.855 198.886
L157.773 137.999
L160.524 168.761
L161.442 181.769
L162.359 178.745
L163.276 174.358
L164.193 161.368
L165.111 197.046
L166.028 202.757
L166.945 206.452
L167.862 183.525
L168.78 147.098
L169.697 148.253
L170.614 185.304
L171.531 146.262
L172.449 129.954
L173.366 148.083
L174.283 183.081
L175.2 203.764
L176.118 146.229
L177.035 182.441
L177.952 167.114
L178.87 162.21
L179.787 162.511
L180.704 180.998
L181.621 136.589
L182.539 124.844
L183.456 147.903
L184.373 125.502
L185.29 198.368
L186.208 187.579
L187.125 144.166
L188.042 151.151
L188.959 148.645
L189.877 153.45
L190.794 141.112
L191.711 132.836
L192.628 128.908
L193.546 131.543
L194.463 149.731
L195.38 181.236
L197.215 139.955
L198.132 136.38
L199.049 144.297
L199.967 147.342
L200.884 151.054
L201.801 148.813
L202.718 176.184
L203.636 155.254
L204.553 122.681
L205.47 146.846
L207.305 155.009
L208.222 158.226
L209.139 172.761
L210.056 133.531
M215.56 132.782
L216.477 146.179
L217.394 135.537
L218.312 146.156
L219.229 151.7
L220.146 160.522
L221.064 146.34
L221.981 139.94
L222.898 140.449
L223.815 159.947
L224.733 170.368
L225.65 165.709
L226.567 158.944
L227.484 154.846
L228.402 172.134
L229.319 154.032
L230.236 154.662
L231.153 158.316
L232.071 153.188
L232.988 145.966
L233.905 146.257
L234.822 140.398
L235.74 145.131
L236.657 157.324
L237.574 155.57
L238.491 142.656
L239.409 142.551
L240.326 144.706
L241.243 147.662
L242.16 138.821
L243.078 150.063
L243.995 158.207
L244.912 153.516
L245.83 154.671
L246.747 147.548
L247.664 157.806
L248.581 160.064
L249.499 172.997
L250.416 162.863
L251.333 164.054
L252.25 150.885
L253.168 144.516
L254.085 140.547
L255.002 141.097
L255.919 139.093
L256.837 143.649
L257.754 138.629
L258.671 151.671
L260.506 155.331
L261.423 158.955
L262.34 153.776
L263.257 156.343
L264.175 159.659
L265.092 165.012
L266.009 164.33
L266.927 202.128
L267.844 183.884
L268.761 152.29
L269.678 144.077
L270.596 152.612
L271.513 153.276
L272.43 148.973
L273.347 151.737
L274.265 150.965
L275.182 152.265
L276.099 154.558
L277.016 157.271
L277.934 152.949
L278.851 175.664
L279.768 148.516
L280.685 157.012
L281.603 161.26
L282.52 157.579
L283.437 156.464
L284.354 202.493
L285.272 226.379
L286.189 241.898
L287.106 211.868
L288.024 167.534
L288.941 153.617
L289.858 184.443
L290.775 169.246
L291.693 146.95
L292.61 134.612
L293.527 159.917
L294.444 165.64
L295.362 199.392
L296.279 164.232
L297.196 137.795
L298.113 159.384
L299.031 149.869
L299.948 170.363
L300.865 176.207
L301.782 173.013
L302.7 183.935
L303.617 155.401
L304.534 140.41
L305.451 132.88
L306.369 126.809
L307.286 149.341
L308.203 162.507
L309.12 187.694
L310.955 112.855
L311.872 133.991
L312.79 204.544
L313.707 221.483
L314.624 200.855
L315.541 188.567
L316.459 126.1
L317.376 132.035
L318.293 127.602
L319.21 105.181
L320.128 151.283
L321.045 171.351
L321.962 135.942
L322.879 163.429
L323.797 138.669
L324.714 213.308
L325.631 216.509
L326.548 193.024
L327.466 174.972
L328.383 175.396
L329.3 189.543
L330.217 145.967
L331.135 167.718
L332.052 171.029
L332.969 130.771
L333.887 136.579
L334.804 177.629
L335.721 203.217
L336.638 192.053
L337.556 144.423
L338.473 136.699
L339.39 133.679
L340.307 176.225
L341.225 167.492
L342.142 147.692
L343.059 163.902
L343.976 164.444
L344.894 166.526
L345.811 174.877
L346.728 177.666
L347.645 186.901
L348.563 192.188
L349.48 166.989
L350.397 175.049
L351.314 188.631
L352.232 191.643
L353.149 193.629
L354.066 185.232
L354.984 153.312
L355.901 157.777
L356.818 126.354
L357.735 124.89
L359.57 153.309
L360.487 154.918
L361.404 201.089
L362.322 214.408
L363.239 192.477
L364.156 222.396
L365.073 171.3
L365.073 171.3" style="fill:none;stroke:#bfbf00;stroke-linecap:square;"/>
   </g>
   <g id="line2d_14">
    <path clip-path="url(#p95a2ee5e18)" d="
M31.1906 170.471
L32.1079 183.428
L33.0251 177.58
L33.9424 177.482
L34.8597 176.239
L35.7769 194.152
M46.784 195.407
L47.7013 232.892
L48.6186 215.491
L49.5358 212.632
L50.4531 195.599
L51.3704 231.337
L52.2876 197.267
L54.1221 217.049
L55.0394 175.796
L55.9567 172.303
L56.8739 161.627
L57.7912 185.99
L58.7084 165.545
L59.6257 202.229
L60.543 183.657
L61.4602 175.433
L62.3775 164.403
L63.2947 168.992
L64.212 158.823
L65.1293 146.05
L66.0465 187.49
L66.9638 221.871
L67.881 211.779
L68.7983 230.183
L69.7156 213.38
L70.6328 178.928
L72.4673 197.429
L73.3846 167.169
L74.3019 164.031
L75.2191 192.456
L76.1364 167.79
L77.0536 195.696
L77.9709 232.899
L78.8882 202.115
L79.8054 152.654
L80.7227 139.252
L81.6399 197.325
L82.5572 136.734
L83.4745 138.055
L84.3917 148.862
L85.309 186.178
L86.2262 209.128
L87.1435 170.596
L88.0608 181.539
L88.978 165.561
L89.8953 155.228
L90.8125 191.397
L91.7298 120.328
L92.6471 139.252
L93.5643 138.934
L94.4816 136.909
L95.3988 176.527
L96.3161 181.492
L97.2334 199.714
L98.1506 234.282
L99.0679 209.349
L99.9851 209.833
L100.902 206.664
L101.82 232.804
L102.737 157.689
L103.654 199.896
L105.489 147.612
L106.406 181.67
L107.323 165.849
L108.24 184.073
L109.158 204.988
L110.075 150.434
L110.992 197.432
L111.91 198.331
L112.827 218.982
L113.744 148.399
L114.661 131.616
L115.579 147.109
L116.496 132.24
L117.413 156.333
L118.33 151.462
L119.248 161.01
L120.165 121.961
L121.082 125.221
L121.999 147.506
L122.917 143.567
L123.834 186.623
L124.751 142.17
L125.668 165.764
L126.586 169.532
L127.503 132.744
L128.42 194.77
L129.337 176.504
L130.255 177.11
L131.172 188.273
L132.089 170.453
L133.007 150.258
L133.924 148.444
L134.841 168.557
L135.758 171.043
L136.676 184.823
L137.593 235.142
L138.51 163.865
L139.427 161.63
L140.345 143.66
L141.262 195.191
L142.179 141.277
L144.014 198.629
L144.931 203.31
L145.848 153.235
L146.765 129.865
L147.683 127.581
L148.6 133.239
L149.517 143.789
L150.434 114.743
L151.352 121.309
L152.269 123.285
L153.186 132.786
L154.104 146.009
L155.021 168.582
L155.938 154.808
L156.855 161.708
L157.773 138.974
L158.69 123.572
L159.607 144.994
L160.524 172.597
L161.442 181.891
L162.359 149.666
L163.276 153.114
L165.111 222.046
L166.028 158.587
L166.945 139.894
L167.862 140.925
L168.78 143.359
L169.697 156.359
L170.614 148.255
L171.531 168.533
L172.449 152.444
L173.366 172.135
L174.283 213.212
L175.2 138.923
L176.118 163.676
L177.035 160.611
L177.952 183.246
L178.87 152.757
L179.787 133.42
L180.704 154.055
L181.621 155.108
L182.539 127.107
L183.456 138.722
L184.373 142.73
L185.29 145.188
L186.208 148.707
L187.125 133.485
L188.042 138.257
L188.959 146.428
L189.877 148.887
L190.794 147.367
L191.711 150.517
L192.628 147.67
L193.546 148.77
L194.463 139.587
L195.38 140.439
L196.297 154.658
L197.215 149.867
L198.132 168.79
L199.049 159.423
L199.967 151.424
L200.884 146.579
L201.801 160.799
L202.718 163.797
L203.636 161.726
L204.553 172.399
L205.47 170.591
L206.387 167.481
L207.305 170.024
L208.222 170.356
L209.139 180.963
L210.056 189.355
L210.974 174.986
L211.891 175.49
L212.808 160.937
L213.725 159.884
L214.643 159.315
L215.56 159.838
L216.477 162.145
L217.394 162.861
L218.312 165.185
L219.229 155.003
L220.146 162.313
L221.064 160.796
L221.981 168.375
L222.898 164.239
L223.815 162.777
L224.733 158.65
L225.65 156.746
L226.567 155.815
L227.484 151.77
M232.988 174.935
L233.905 165.873
L234.822 176.616
L235.74 160.489
L236.657 163.952
L237.574 166.81
L238.491 160.702
L239.409 159.352
L240.326 164.788
L241.243 161.836
L242.16 160.518
L243.078 178.65
L243.995 170.388
L244.912 171.954
L245.83 163.114
L246.747 157.191
L247.664 142.602
L248.581 144.844
L249.499 166.05
L250.416 175.754
L251.333 157.51
L252.25 163.09
L253.168 156.47
L254.085 173.998
L255.002 162.819
L255.919 137.756
L256.837 143.11
L257.754 147.312
L258.671 155.284
L259.588 167.073
L260.506 154.361
L261.423 155.051
L262.34 169.026
L263.257 155.032
L264.175 159.35
L265.092 134.524
L266.009 144.597
L266.927 149.738
L267.844 153.348
L268.761 155.771
L269.678 151.303
L271.513 155.154
L272.43 162.46
L273.347 164.811
L274.265 171.112
L275.182 201.197
L276.099 187.95
L277.016 180.988
L277.934 175.138
L278.851 163.271
L279.768 168.484
L280.685 163.907
L281.603 164.677
L282.52 157.334
L283.437 155.286
L284.354 133.938
L285.272 132.653
L286.189 127.951
L287.106 128.068
L288.024 132.124
L288.941 128.77
L290.775 153.092
L291.693 153.538
L292.61 151.425
L293.527 186.134
L294.444 177.59
L295.362 189.357
L296.279 185.582
L297.196 166.59
L298.113 156.178
L299.031 171.259
L299.948 197.344
L300.865 163.195
L301.782 211.465
L302.7 209.332
L303.617 211.093
L304.534 224.35
L305.451 170.129
L306.369 193.157
L307.286 231.41
L308.203 191.714
L310.038 165.347
L310.955 189.209
L311.872 181.191
L312.79 184.171
L313.707 186.473
L314.624 192.351
L315.541 187.135
L316.459 203.035
L317.376 204.131
L318.293 229.596
L319.21 187.041
L320.128 186.448
L321.045 196.606
L321.962 231.211
L322.879 231.954
L323.797 206.789
L324.714 204.422
L325.631 208.838
L326.548 209.379
L327.466 202.736
L328.383 189.475
L329.3 201.614
L330.217 183.195
L331.135 172.936
L332.052 212.305
L332.969 215.177
L333.887 193.145
L334.804 206.516
L335.721 207.249
L336.638 200.555
L337.556 211.345
L338.473 194.658
L339.39 209.949
L340.307 179.511
L341.225 205.628
M348.563 224.167
L349.48 228.924
L350.397 210.293
L351.314 201.246
L352.232 233.244
L353.149 181.864
L354.066 183.794
L354.984 173.452
L355.901 131.687
L356.818 139.254
L357.735 187.741
L358.653 220.162
L359.57 226.959
L360.487 176.201
L361.404 225.18
L362.322 221.562
L363.239 199.585
L364.156 209.135
L365.073 234.543
L365.073 234.543" style="fill:none;stroke:#000000;stroke-linecap:square;"/>
   </g>
   <g id="patch_3">
    <path d="
M365.991 244.518
L365.991 21.3181" style="fill:none;stroke:#000000;stroke-linecap:square;stroke-linejoin:miter;"/>
   </g>
   <g id="patch_4">
    <path d="
M31.1906 21.3181
L365.991 21.3181" style="fill:none;stroke:#000000;stroke-linecap:square;stroke-linejoin:miter;"/>
   </g>
   <g id="patch_5">
    <path d="
M31.1906 244.518
L31.1906 21.3181" style="fill:none;stroke:#000000;stroke-linecap:square;stroke-linejoin:miter;"/>
   </g>
   <g id="patch_6">
    <path d="
M31.1906 244.518
L365.991 244.518" style="fill:none;stroke:#000000;stroke-linecap:square;stroke-linejoin:miter;"/>
   </g>
   <g id="matplotlib.axis_1">
    <g id="xtick_1">
     <g id="line2d_15">
      <defs>
       <path d="
M0 0
L0 -4" id="mc7db9fdffb" style="stroke:#000000;stroke-width:0.5;"/>
      </defs>
      <g>
       <use style="stroke:#000000;stroke-width:0.5;" x="31.190625" xlink:href="#mc7db9fdffb" y="244.518125"/>
      </g>
     </g>
     <g id="line2d_16">
      <defs>
       <path d="
M0 0
L0 4" id="m5a7d422ac3" style="stroke:#000000;stroke-width:0.5;"/>
      </defs>
      <g>
       <use style="stroke:#000000;stroke-width:0.5;" x="31.190625" xlink:href="#m5a7d422ac3" y="21.318125"/>
      </g>
     </g>
     <g id="text_1">
      <!-- 0 -->
      <defs>
       <path d="
M31.7812 66.4062
Q24.1719 66.4062 20.3281 58.9062
Q16.5 51.4219 16.5 36.375
Q16.5 21.3906 20.3281 13.8906
Q24.1719 6.39062 31.7812 6.39062
Q39.4531 6.39062 43.2812 13.8906
Q47.125 21.3906 47.125 36.375
Q47.125 51.4219 43.2812 58.9062
Q39.4531 66.4062 31.7812 66.4062
M31.7812 74.2188
Q44.0469 74.2188 50.5156 64.5156
Q56.9844 54.8281 56.9844 36.375
Q56.9844 17.9688 50.5156 8.26562
Q44.0469 -1.42188 31.7812 -1.42188
Q19.5312 -1.42188 13.0625 8.26562
Q6.59375 17.9688 6.59375 36.375
Q6.59375 54.8281 13.0625 64.5156
Q19.5312 74.2188 31.7812 74.2188" id="BitstreamVeraSans-Roman-30"/>
      </defs>
      <g transform="translate(28.67109375 256.1165625)scale(0.1 -0.1)">
       <use xlink:href="#BitstreamVeraSans-Roman-30"/>
      </g>
     </g>
    </g>
    <g id="xtick_2">
     <g id="line2d_17">
      <g>
       <use style="stroke:#000000;stroke-width:0.5;" x="77.0536386986" xlink:href="#mc7db9fdffb" y="244.518125"/>
      </g>
     </g>
     <g id="line2d_18">
      <g>
       <use style="stroke:#000000;stroke-width:0.5;" x="77.0536386986" xlink:href="#m5a7d422ac3" y="21.318125"/>
      </g>
     </g>
     <g id="text_2">
      <!-- 50 -->
      <defs>
       <path d="
M10.7969 72.9062
L49.5156 72.9062
L49.5156 64.5938
L19.8281 64.5938
L19.8281 46.7344
Q21.9688 47.4688 24.1094 47.8281
Q26.2656 48.1875 28.4219 48.1875
Q40.625 48.1875 47.75 41.5
Q54.8906 34.8125 54.8906 23.3906
Q54.8906 11.625 47.5625 5.09375
Q40.2344 -1.42188 26.9062 -1.42188
Q22.3125 -1.42188 17.5469 -0.640625
Q12.7969 0.140625 7.71875 1.70312
L7.71875 11.625
Q12.1094 9.23438 16.7969 8.0625
Q21.4844 6.89062 26.7031 6.89062
Q35.1562 6.89062 40.0781 11.3281
Q45.0156 15.7656 45.0156 23.3906
Q45.0156 31 40.0781 35.4375
Q35.1562 39.8906 26.7031 39.8906
Q22.75 39.8906 18.8125 39.0156
Q14.8906 38.1406 10.7969 36.2812
z
" id="BitstreamVeraSans-Roman-35"/>
      </defs>
      <g transform="translate(71.4091074486 256.1165625)scale(0.1 -0.1)">
       <use xlink:href="#BitstreamVeraSans-Roman-35"/>
       <use x="63.623046875" xlink:href="#BitstreamVeraSans-Roman-30"/>
      </g>
     </g>
    </g>
    <g id="xtick_3">
     <g id="line2d_19">
      <g>
       <use style="stroke:#000000;stroke-width:0.5;" x="122.916652397" xlink:href="#mc7db9fdffb" y="244.518125"/>
      </g>
     </g>
     <g id="line2d_20">
      <g>
       <use style="stroke:#000000;stroke-width:0.5;" x="122.916652397" xlink:href="#m5a7d422ac3" y="21.318125"/>
      </g>
     </g>
     <g id="text_3">
      <!-- 100 -->
      <defs>
       <path d="
M12.4062 8.29688
L28.5156 8.29688
L28.5156 63.9219
L10.9844 60.4062
L10.9844 69.3906
L28.4219 72.9062
L38.2812 72.9062
L38.2812 8.29688
L54.3906 8.29688
L54.3906 0
L12.4062 0
z
" id="BitstreamVeraSans-Roman-31"/>
      </defs>
      <g transform="translate(114.254152397 256.1165625)scale(0.1 -0.1)">
       <use xlink:href="#BitstreamVeraSans-Roman-31"/>
       <use x="63.623046875" xlink:href="#BitstreamVeraSans-Roman-30"/>
       <use x="127.24609375" xlink:href="#BitstreamVeraSans-Roman-30"/>
      </g>
     </g>
    </g>
    <g id="xtick_4">
     <g id="line2d_21">
      <g>
       <use style="stroke:#000000;stroke-width:0.5;" x="168.779666096" xlink:href="#mc7db9fdffb" y="244.518125"/>
      </g>
     </g>
     <g id="line2d_22">
      <g>
       <use style="stroke:#000000;stroke-width:0.5;" x="168.779666096" xlink:href="#m5a7d422ac3" y="21.318125"/>
      </g>
     </g>
     <g id="text_4">
      <!-- 150 -->
      <g transform="translate(160.117166096 256.1165625)scale(0.1 -0.1)">
       <use xlink:href="#BitstreamVeraSans-Roman-31"/>
       <use x="63.623046875" xlink:href="#BitstreamVeraSans-Roman-35"/>
       <use x="127.24609375" xlink:href="#BitstreamVeraSans-Roman-30"/>
      </g>
     </g>
    </g>
    <g id="xtick_5">
     <g id="line2d_23">
      <g>
       <use style="stroke:#000000;stroke-width:0.5;" x="214.642679795" xlink:href="#mc7db9fdffb" y="244.518125"/>
      </g>
     </g>
     <g id="line2d_24">
      <g>
       <use style="stroke:#000000;stroke-width:0.5;" x="214.642679795" xlink:href="#m5a7d422ac3" y="21.318125"/>
      </g>
     </g>
     <g id="text_5">
      <!-- 200 -->
      <defs>
       <path d="
M19.1875 8.29688
L53.6094 8.29688
L53.6094 0
L7.32812 0
L7.32812 8.29688
Q12.9375 14.1094 22.625 23.8906
Q32.3281 33.6875 34.8125 36.5312
Q39.5469 41.8438 41.4219 45.5312
Q43.3125 49.2188 43.3125 52.7812
Q43.3125 58.5938 39.2344 62.25
Q35.1562 65.9219 28.6094 65.9219
Q23.9688 65.9219 18.8125 64.3125
Q13.6719 62.7031 7.8125 59.4219
L7.8125 69.3906
Q13.7656 71.7812 18.9375 73
Q24.125 74.2188 28.4219 74.2188
Q39.75 74.2188 46.4844 68.5469
Q53.2188 62.8906 53.2188 53.4219
Q53.2188 48.9219 51.5312 44.8906
Q49.8594 40.875 45.4062 35.4062
Q44.1875 33.9844 37.6406 27.2188
Q31.1094 20.4531 19.1875 8.29688" id="BitstreamVeraSans-Roman-32"/>
      </defs>
      <g transform="translate(205.797367295 256.1165625)scale(0.1 -0.1)">
       <use xlink:href="#BitstreamVeraSans-Roman-32"/>
       <use x="63.623046875" xlink:href="#BitstreamVeraSans-Roman-30"/>
       <use x="127.24609375" xlink:href="#BitstreamVeraSans-Roman-30"/>
      </g>
     </g>
    </g>
    <g id="xtick_6">
     <g id="line2d_25">
      <g>
       <use style="stroke:#000000;stroke-width:0.5;" x="260.505693493" xlink:href="#mc7db9fdffb" y="244.518125"/>
      </g>
     </g>
     <g id="line2d_26">
      <g>
       <use style="stroke:#000000;stroke-width:0.5;" x="260.505693493" xlink:href="#m5a7d422ac3" y="21.318125"/>
      </g>
     </g>
     <g id="text_6">
      <!-- 250 -->
      <g transform="translate(251.660380993 256.1165625)scale(0.1 -0.1)">
       <use xlink:href="#BitstreamVeraSans-Roman-32"/>
       <use x="63.623046875" xlink:href="#BitstreamVeraSans-Roman-35"/>
       <use x="127.24609375" xlink:href="#BitstreamVeraSans-Roman-30"/>
      </g>
     </g>
    </g>
    <g id="xtick_7">
     <g id="line2d_27">
      <g>
       <use style="stroke:#000000;stroke-width:0.5;" x="306.368707192" xlink:href="#mc7db9fdffb" y="244.518125"/>
      </g>
     </g>
     <g id="line2d_28">
      <g>
       <use style="stroke:#000000;stroke-width:0.5;" x="306.368707192" xlink:href="#m5a7d422ac3" y="21.318125"/>
      </g>
     </g>
     <g id="text_7">
      <!-- 300 -->
      <defs>
       <path d="
M40.5781 39.3125
Q47.6562 37.7969 51.625 33
Q55.6094 28.2188 55.6094 21.1875
Q55.6094 10.4062 48.1875 4.48438
Q40.7656 -1.42188 27.0938 -1.42188
Q22.5156 -1.42188 17.6562 -0.515625
Q12.7969 0.390625 7.625 2.20312
L7.625 11.7188
Q11.7188 9.32812 16.5938 8.10938
Q21.4844 6.89062 26.8125 6.89062
Q36.0781 6.89062 40.9375 10.5469
Q45.7969 14.2031 45.7969 21.1875
Q45.7969 27.6406 41.2812 31.2656
Q36.7656 34.9062 28.7188 34.9062
L20.2188 34.9062
L20.2188 43.0156
L29.1094 43.0156
Q36.375 43.0156 40.2344 45.9219
Q44.0938 48.8281 44.0938 54.2969
Q44.0938 59.9062 40.1094 62.9062
Q36.1406 65.9219 28.7188 65.9219
Q24.6562 65.9219 20.0156 65.0312
Q15.375 64.1562 9.8125 62.3125
L9.8125 71.0938
Q15.4375 72.6562 20.3438 73.4375
Q25.25 74.2188 29.5938 74.2188
Q40.8281 74.2188 47.3594 69.1094
Q53.9062 64.0156 53.9062 55.3281
Q53.9062 49.2656 50.4375 45.0938
Q46.9688 40.9219 40.5781 39.3125" id="BitstreamVeraSans-Roman-33"/>
      </defs>
      <g transform="translate(297.538238442 256.1165625)scale(0.1 -0.1)">
       <use xlink:href="#BitstreamVeraSans-Roman-33"/>
       <use x="63.623046875" xlink:href="#BitstreamVeraSans-Roman-30"/>
       <use x="127.24609375" xlink:href="#BitstreamVeraSans-Roman-30"/>
      </g>
     </g>
    </g>
    <g id="xtick_8">
     <g id="line2d_29">
      <g>
       <use style="stroke:#000000;stroke-width:0.5;" x="352.23172089" xlink:href="#mc7db9fdffb" y="244.518125"/>
      </g>
     </g>
     <g id="line2d_30">
      <g>
       <use style="stroke:#000000;stroke-width:0.5;" x="352.23172089" xlink:href="#m5a7d422ac3" y="21.318125"/>
      </g>
     </g>
     <g id="text_8">
      <!-- 350 -->
      <g transform="translate(343.40125214 256.1165625)scale(0.1 -0.1)">
       <use xlink:href="#BitstreamVeraSans-Roman-33"/>
       <use x="63.623046875" xlink:href="#BitstreamVeraSans-Roman-35"/>
       <use x="127.24609375" xlink:href="#BitstreamVeraSans-Roman-30"/>
      </g>
     </g>
    </g>
    <g id="text_9">
     <!-- Julian day -->
     <defs>
      <path d="
M9.42188 75.9844
L18.4062 75.9844
L18.4062 0
L9.42188 0
z
" id="BitstreamVeraSans-Roman-6c"/>
      <path id="BitstreamVeraSans-Roman-20"/>
      <path d="
M45.4062 46.3906
L45.4062 75.9844
L54.3906 75.9844
L54.3906 0
L45.4062 0
L45.4062 8.20312
Q42.5781 3.32812 38.25 0.953125
Q33.9375 -1.42188 27.875 -1.42188
Q17.9688 -1.42188 11.7344 6.48438
Q5.51562 14.4062 5.51562 27.2969
Q5.51562 40.1875 11.7344 48.0938
Q17.9688 56 27.875 56
Q33.9375 56 38.25 53.625
Q42.5781 51.2656 45.4062 46.3906
M14.7969 27.2969
Q14.7969 17.3906 18.875 11.75
Q22.9531 6.10938 30.0781 6.10938
Q37.2031 6.10938 41.2969 11.75
Q45.4062 17.3906 45.4062 27.2969
Q45.4062 37.2031 41.2969 42.8438
Q37.2031 48.4844 30.0781 48.4844
Q22.9531 48.4844 18.875 42.8438
Q14.7969 37.2031 14.7969 27.2969" id="BitstreamVeraSans-Roman-64"/>
      <path d="
M9.42188 54.6875
L18.4062 54.6875
L18.4062 0
L9.42188 0
z

M9.42188 75.9844
L18.4062 75.9844
L18.4062 64.5938
L9.42188 64.5938
z
" id="BitstreamVeraSans-Roman-69"/>
      <path d="
M32.1719 -5.07812
Q28.375 -14.8438 24.75 -17.8125
Q21.1406 -20.7969 15.0938 -20.7969
L7.90625 -20.7969
L7.90625 -13.2812
L13.1875 -13.2812
Q16.8906 -13.2812 18.9375 -11.5156
Q21 -9.76562 23.4844 -3.21875
L25.0938 0.875
L2.98438 54.6875
L12.5 54.6875
L29.5938 11.9219
L46.6875 54.6875
L56.2031 54.6875
z
" id="BitstreamVeraSans-Roman-79"/>
      <path d="
M34.2812 27.4844
Q23.3906 27.4844 19.1875 25
Q14.9844 22.5156 14.9844 16.5
Q14.9844 11.7188 18.1406 8.90625
Q21.2969 6.10938 26.7031 6.10938
Q34.1875 6.10938 38.7031 11.4062
Q43.2188 16.7031 43.2188 25.4844
L43.2188 27.4844
z

M52.2031 31.2031
L52.2031 0
L43.2188 0
L43.2188 8.29688
Q40.1406 3.32812 35.5469 0.953125
Q30.9531 -1.42188 24.3125 -1.42188
Q15.9219 -1.42188 10.9531 3.29688
Q6 8.01562 6 15.9219
Q6 25.1406 12.1719 29.8281
Q18.3594 34.5156 30.6094 34.5156
L43.2188 34.5156
L43.2188 35.4062
Q43.2188 41.6094 39.1406 45
Q35.0625 48.3906 27.6875 48.3906
Q23 48.3906 18.5469 47.2656
Q14.1094 46.1406 10.0156 43.8906
L10.0156 52.2031
Q14.9375 54.1094 19.5781 55.0469
Q24.2188 56 28.6094 56
Q40.4844 56 46.3438 49.8438
Q52.2031 43.7031 52.2031 31.2031" id="BitstreamVeraSans-Roman-61"/>
      <path d="
M54.8906 33.0156
L54.8906 0
L45.9062 0
L45.9062 32.7188
Q45.9062 40.4844 42.875 44.3281
Q39.8438 48.1875 33.7969 48.1875
Q26.5156 48.1875 22.3125 43.5469
Q18.1094 38.9219 18.1094 30.9062
L18.1094 0
L9.07812 0
L9.07812 54.6875
L18.1094 54.6875
L18.1094 46.1875
Q21.3438 51.125 25.7031 53.5625
Q30.0781 56 35.7969 56
Q45.2188 56 50.0469 50.1719
Q54.8906 44.3438 54.8906 33.0156" id="BitstreamVeraSans-Roman-6e"/>
      <path d="
M8.5 21.5781
L8.5 54.6875
L17.4844 54.6875
L17.4844 21.9219
Q17.4844 14.1562 20.5 10.2656
Q23.5312 6.39062 29.5938 6.39062
Q36.8594 6.39062 41.0781 11.0312
Q45.3125 15.6719 45.3125 23.6875
L45.3125 54.6875
L54.2969 54.6875
L54.2969 0
L45.3125 0
L45.3125 8.40625
Q42.0469 3.42188 37.7188 1
Q33.4062 -1.42188 27.6875 -1.42188
Q18.2656 -1.42188 13.375 4.4375
Q8.5 10.2969 8.5 21.5781" id="BitstreamVeraSans-Roman-75"/>
      <path d="
M9.8125 72.9062
L19.6719 72.9062
L19.6719 5.07812
Q19.6719 -8.10938 14.6719 -14.0625
Q9.67188 -20.0156 -1.42188 -20.0156
L-5.17188 -20.0156
L-5.17188 -11.7188
L-2.09375 -11.7188
Q4.4375 -11.7188 7.125 -8.04688
Q9.8125 -4.39062 9.8125 5.07812
z
" id="BitstreamVeraSans-Roman-4a"/>
     </defs>
     <g transform="translate(174.03984375 270.7946875)scale(0.1 -0.1)">
      <use xlink:href="#BitstreamVeraSans-Roman-4a"/>
      <use x="29.4921875" xlink:href="#BitstreamVeraSans-Roman-75"/>
      <use x="92.87109375" xlink:href="#BitstreamVeraSans-Roman-6c"/>
      <use x="120.654296875" xlink:href="#BitstreamVeraSans-Roman-69"/>
      <use x="148.4375" xlink:href="#BitstreamVeraSans-Roman-61"/>
      <use x="209.716796875" xlink:href="#BitstreamVeraSans-Roman-6e"/>
      <use x="273.095703125" xlink:href="#BitstreamVeraSans-Roman-20"/>
      <use x="304.8828125" xlink:href="#BitstreamVeraSans-Roman-64"/>
      <use x="368.359375" xlink:href="#BitstreamVeraSans-Roman-61"/>
      <use x="429.638671875" xlink:href="#BitstreamVeraSans-Roman-79"/>
     </g>
    </g>
   </g>
   <g id="matplotlib.axis_2">
    <g id="ytick_1">
     <g id="line2d_31">
      <defs>
       <path d="
M0 0
L4 0" id="md7965d1ba0" style="stroke:#000000;stroke-width:0.5;"/>
      </defs>
      <g>
       <use style="stroke:#000000;stroke-width:0.5;" x="31.190625" xlink:href="#md7965d1ba0" y="244.518125"/>
      </g>
     </g>
     <g id="line2d_32">
      <defs>
       <path d="
M0 0
L-4 0" id="md9a1c1a7cd" style="stroke:#000000;stroke-width:0.5;"/>
      </defs>
      <g>
       <use style="stroke:#000000;stroke-width:0.5;" x="365.990625" xlink:href="#md9a1c1a7cd" y="244.518125"/>
      </g>
     </g>
     <g id="text_10">
      <!-- 0 -->
      <g transform="translate(22.1515625 247.2775)scale(0.1 -0.1)">
       <use xlink:href="#BitstreamVeraSans-Roman-30"/>
      </g>
     </g>
    </g>
    <g id="ytick_2">
     <g id="line2d_33">
      <g>
       <use style="stroke:#000000;stroke-width:0.5;" x="31.190625" xlink:href="#md7965d1ba0" y="212.632410714"/>
      </g>
     </g>
     <g id="line2d_34">
      <g>
       <use style="stroke:#000000;stroke-width:0.5;" x="365.990625" xlink:href="#md9a1c1a7cd" y="212.632410714"/>
      </g>
     </g>
     <g id="text_11">
      <!-- 1 -->
      <g transform="translate(22.85 215.391785714)scale(0.1 -0.1)">
       <use xlink:href="#BitstreamVeraSans-Roman-31"/>
      </g>
     </g>
    </g>
    <g id="ytick_3">
     <g id="line2d_35">
      <g>
       <use style="stroke:#000000;stroke-width:0.5;" x="31.190625" xlink:href="#md7965d1ba0" y="180.746696429"/>
      </g>
     </g>
     <g id="line2d_36">
      <g>
       <use style="stroke:#000000;stroke-width:0.5;" x="365.990625" xlink:href="#md9a1c1a7cd" y="180.746696429"/>
      </g>
     </g>
     <g id="text_12">
      <!-- 2 -->
      <g transform="translate(22.5625 183.506071429)scale(0.1 -0.1)">
       <use xlink:href="#BitstreamVeraSans-Roman-32"/>
      </g>
     </g>
    </g>
    <g id="ytick_4">
     <g id="line2d_37">
      <g>
       <use style="stroke:#000000;stroke-width:0.5;" x="31.190625" xlink:href="#md7965d1ba0" y="148.860982143"/>
      </g>
     </g>
     <g id="line2d_38">
      <g>
       <use style="stroke:#000000;stroke-width:0.5;" x="365.990625" xlink:href="#md9a1c1a7cd" y="148.860982143"/>
      </g>
     </g>
     <g id="text_13">
      <!-- 3 -->
      <g transform="translate(22.3921875 151.620357143)scale(0.1 -0.1)">
       <use xlink:href="#BitstreamVeraSans-Roman-33"/>
      </g>
     </g>
    </g>
    <g id="ytick_5">
     <g id="line2d_39">
      <g>
       <use style="stroke:#000000;stroke-width:0.5;" x="31.190625" xlink:href="#md7965d1ba0" y="116.975267857"/>
      </g>
     </g>
     <g id="line2d_40">
      <g>
       <use style="stroke:#000000;stroke-width:0.5;" x="365.990625" xlink:href="#md9a1c1a7cd" y="116.975267857"/>
      </g>
     </g>
     <g id="text_14">
      <!-- 4 -->
      <defs>
       <path d="
M37.7969 64.3125
L12.8906 25.3906
L37.7969 25.3906
z

M35.2031 72.9062
L47.6094 72.9062
L47.6094 25.3906
L58.0156 25.3906
L58.0156 17.1875
L47.6094 17.1875
L47.6094 0
L37.7969 0
L37.7969 17.1875
L4.89062 17.1875
L4.89062 26.7031
z
" id="BitstreamVeraSans-Roman-34"/>
      </defs>
      <g transform="translate(21.878125 119.734642857)scale(0.1 -0.1)">
       <use xlink:href="#BitstreamVeraSans-Roman-34"/>
      </g>
     </g>
    </g>
    <g id="ytick_6">
     <g id="line2d_41">
      <g>
       <use style="stroke:#000000;stroke-width:0.5;" x="31.190625" xlink:href="#md7965d1ba0" y="85.0895535714"/>
      </g>
     </g>
     <g id="line2d_42">
      <g>
       <use style="stroke:#000000;stroke-width:0.5;" x="365.990625" xlink:href="#md9a1c1a7cd" y="85.0895535714"/>
      </g>
     </g>
     <g id="text_15">
      <!-- 5 -->
      <g transform="translate(22.4734375 87.8489285714)scale(0.1 -0.1)">
       <use xlink:href="#BitstreamVeraSans-Roman-35"/>
      </g>
     </g>
    </g>
    <g id="ytick_7">
     <g id="line2d_43">
      <g>
       <use style="stroke:#000000;stroke-width:0.5;" x="31.190625" xlink:href="#md7965d1ba0" y="53.2038392857"/>
      </g>
     </g>
     <g id="line2d_44">
      <g>
       <use style="stroke:#000000;stroke-width:0.5;" x="365.990625" xlink:href="#md9a1c1a7cd" y="53.2038392857"/>
      </g>
     </g>
     <g id="text_16">
      <!-- 6 -->
      <defs>
       <path d="
M33.0156 40.375
Q26.375 40.375 22.4844 35.8281
Q18.6094 31.2969 18.6094 23.3906
Q18.6094 15.5312 22.4844 10.9531
Q26.375 6.39062 33.0156 6.39062
Q39.6562 6.39062 43.5312 10.9531
Q47.4062 15.5312 47.4062 23.3906
Q47.4062 31.2969 43.5312 35.8281
Q39.6562 40.375 33.0156 40.375
M52.5938 71.2969
L52.5938 62.3125
Q48.875 64.0625 45.0938 64.9844
Q41.3125 65.9219 37.5938 65.9219
Q27.8281 65.9219 22.6719 59.3281
Q17.5312 52.7344 16.7969 39.4062
Q19.6719 43.6562 24.0156 45.9219
Q28.375 48.1875 33.5938 48.1875
Q44.5781 48.1875 50.9531 41.5156
Q57.3281 34.8594 57.3281 23.3906
Q57.3281 12.1562 50.6875 5.35938
Q44.0469 -1.42188 33.0156 -1.42188
Q20.3594 -1.42188 13.6719 8.26562
Q6.98438 17.9688 6.98438 36.375
Q6.98438 53.6562 15.1875 63.9375
Q23.3906 74.2188 37.2031 74.2188
Q40.9219 74.2188 44.7031 73.4844
Q48.4844 72.75 52.5938 71.2969" id="BitstreamVeraSans-Roman-36"/>
      </defs>
      <g transform="translate(22.15625 55.9632142857)scale(0.1 -0.1)">
       <use xlink:href="#BitstreamVeraSans-Roman-36"/>
      </g>
     </g>
    </g>
    <g id="ytick_8">
     <g id="line2d_45">
      <g>
       <use style="stroke:#000000;stroke-width:0.5;" x="31.190625" xlink:href="#md7965d1ba0" y="21.318125"/>
      </g>
     </g>
     <g id="line2d_46">
      <g>
       <use style="stroke:#000000;stroke-width:0.5;" x="365.990625" xlink:href="#md9a1c1a7cd" y="21.318125"/>
      </g>
     </g>
     <g id="text_17">
      <!-- 7 -->
      <defs>
       <path d="
M8.20312 72.9062
L55.0781 72.9062
L55.0781 68.7031
L28.6094 0
L18.3125 0
L43.2188 64.5938
L8.20312 64.5938
z
" id="BitstreamVeraSans-Roman-37"/>
      </defs>
      <g transform="translate(22.503125 24.0775)scale(0.1 -0.1)">
       <use xlink:href="#BitstreamVeraSans-Roman-37"/>
      </g>
     </g>
    </g>
    <g id="text_18">
     <!-- PET (mm/day) -->
     <defs>
      <path d="
M9.8125 72.9062
L55.9062 72.9062
L55.9062 64.5938
L19.6719 64.5938
L19.6719 43.0156
L54.3906 43.0156
L54.3906 34.7188
L19.6719 34.7188
L19.6719 8.29688
L56.7812 8.29688
L56.7812 0
L9.8125 0
z
" id="BitstreamVeraSans-Roman-45"/>
      <path d="
M31 75.875
Q24.4688 64.6562 21.2812 53.6562
Q18.1094 42.6719 18.1094 31.3906
Q18.1094 20.125 21.3125 9.0625
Q24.5156 -2 31 -13.1875
L23.1875 -13.1875
Q15.875 -1.70312 12.2344 9.375
Q8.59375 20.4531 8.59375 31.3906
Q8.59375 42.2812 12.2031 53.3125
Q15.8281 64.3594 23.1875 75.875
z
" id="BitstreamVeraSans-Roman-28"/>
      <path d="
M-0.296875 72.9062
L61.375 72.9062
L61.375 64.5938
L35.5 64.5938
L35.5 0
L25.5938 0
L25.5938 64.5938
L-0.296875 64.5938
z
" id="BitstreamVeraSans-Roman-54"/>
      <path d="
M19.6719 64.7969
L19.6719 37.4062
L32.0781 37.4062
Q38.9688 37.4062 42.7188 40.9688
Q46.4844 44.5312 46.4844 51.125
Q46.4844 57.6719 42.7188 61.2344
Q38.9688 64.7969 32.0781 64.7969
z

M9.8125 72.9062
L32.0781 72.9062
Q44.3438 72.9062 50.6094 67.3594
Q56.8906 61.8125 56.8906 51.125
Q56.8906 40.3281 50.6094 34.8125
Q44.3438 29.2969 32.0781 29.2969
L19.6719 29.2969
L19.6719 0
L9.8125 0
z
" id="BitstreamVeraSans-Roman-50"/>
      <path d="
M52 44.1875
Q55.375 50.25 60.0625 53.125
Q64.75 56 71.0938 56
Q79.6406 56 84.2812 50.0156
Q88.9219 44.0469 88.9219 33.0156
L88.9219 0
L79.8906 0
L79.8906 32.7188
Q79.8906 40.5781 77.0938 44.375
Q74.3125 48.1875 68.6094 48.1875
Q61.625 48.1875 57.5625 43.5469
Q53.5156 38.9219 53.5156 30.9062
L53.5156 0
L44.4844 0
L44.4844 32.7188
Q44.4844 40.625 41.7031 44.4062
Q38.9219 48.1875 33.1094 48.1875
Q26.2188 48.1875 22.1562 43.5312
Q18.1094 38.875 18.1094 30.9062
L18.1094 0
L9.07812 0
L9.07812 54.6875
L18.1094 54.6875
L18.1094 46.1875
Q21.1875 51.2188 25.4844 53.6094
Q29.7812 56 35.6875 56
Q41.6562 56 45.8281 52.9688
Q50 49.9531 52 44.1875" id="BitstreamVeraSans-Roman-6d"/>
      <path d="
M25.3906 72.9062
L33.6875 72.9062
L8.29688 -9.28125
L0 -9.28125
z
" id="BitstreamVeraSans-Roman-2f"/>
      <path d="
M8.01562 75.875
L15.8281 75.875
Q23.1406 64.3594 26.7812 53.3125
Q30.4219 42.2812 30.4219 31.3906
Q30.4219 20.4531 26.7812 9.375
Q23.1406 -1.70312 15.8281 -13.1875
L8.01562 -13.1875
Q14.5 -2 17.7031 9.0625
Q20.9062 20.125 20.9062 31.3906
Q20.9062 42.6719 17.7031 53.6562
Q14.5 64.6562 8.01562 75.875" id="BitstreamVeraSans-Roman-29"/>
     </defs>
     <g transform="translate(14.7984375 167.82984375)rotate(-90.0)scale(0.1 -0.1)">
      <use xlink:href="#BitstreamVeraSans-Roman-50"/>
      <use x="60.302734375" xlink:href="#BitstreamVeraSans-Roman-45"/>
      <use x="123.486328125" xlink:href="#BitstreamVeraSans-Roman-54"/>
      <use x="184.5703125" xlink:href="#BitstreamVeraSans-Roman-20"/>
      <use x="216.357421875" xlink:href="#BitstreamVeraSans-Roman-28"/>
      <use x="255.37109375" xlink:href="#BitstreamVeraSans-Roman-6d"/>
      <use x="352.783203125" xlink:href="#BitstreamVeraSans-Roman-6d"/>
      <use x="450.1953125" xlink:href="#BitstreamVeraSans-Roman-2f"/>
      <use x="483.88671875" xlink:href="#BitstreamVeraSans-Roman-64"/>
      <use x="547.36328125" xlink:href="#BitstreamVeraSans-Roman-61"/>
      <use x="608.642578125" xlink:href="#BitstreamVeraSans-Roman-79"/>
      <use x="667.822265625" xlink:href="#BitstreamVeraSans-Roman-29"/>
     </g>
    </g>
   </g>
   <g id="text_19">
    <!-- daily shrub PET at LowerWeather -->
    <defs>
     <path d="
M4.20312 54.6875
L13.1875 54.6875
L24.4219 12.0156
L35.5938 54.6875
L46.1875 54.6875
L57.4219 12.0156
L68.6094 54.6875
L77.5938 54.6875
L63.2812 0
L52.6875 0
L40.9219 44.8281
L29.1094 0
L18.5 0
z
" id="BitstreamVeraSans-Roman-77"/>
     <path d="
M3.32812 72.9062
L13.2812 72.9062
L28.6094 11.2812
L43.8906 72.9062
L54.9844 72.9062
L70.3125 11.2812
L85.5938 72.9062
L95.6094 72.9062
L77.2969 0
L64.8906 0
L49.5156 63.2812
L33.9844 0
L21.5781 0
z
" id="BitstreamVeraSans-Roman-57"/>
     <path d="
M54.8906 33.0156
L54.8906 0
L45.9062 0
L45.9062 32.7188
Q45.9062 40.4844 42.875 44.3281
Q39.8438 48.1875 33.7969 48.1875
Q26.5156 48.1875 22.3125 43.5469
Q18.1094 38.9219 18.1094 30.9062
L18.1094 0
L9.07812 0
L9.07812 75.9844
L18.1094 75.9844
L18.1094 46.1875
Q21.3438 51.125 25.7031 53.5625
Q30.0781 56 35.7969 56
Q45.2188 56 50.0469 50.1719
Q54.8906 44.3438 54.8906 33.0156" id="BitstreamVeraSans-Roman-68"/>
     <path d="
M44.2812 53.0781
L44.2812 44.5781
Q40.4844 46.5312 36.375 47.5
Q32.2812 48.4844 27.875 48.4844
Q21.1875 48.4844 17.8438 46.4375
Q14.5 44.3906 14.5 40.2812
Q14.5 37.1562 16.8906 35.375
Q19.2812 33.5938 26.5156 31.9844
L29.5938 31.2969
Q39.1562 29.25 43.1875 25.5156
Q47.2188 21.7812 47.2188 15.0938
Q47.2188 7.46875 41.1875 3.01562
Q35.1562 -1.42188 24.6094 -1.42188
Q20.2188 -1.42188 15.4531 -0.5625
Q10.6875 0.296875 5.42188 2
L5.42188 11.2812
Q10.4062 8.6875 15.2344 7.39062
Q20.0625 6.10938 24.8125 6.10938
Q31.1562 6.10938 34.5625 8.28125
Q37.9844 10.4531 37.9844 14.4062
Q37.9844 18.0625 35.5156 20.0156
Q33.0625 21.9688 24.7031 23.7812
L21.5781 24.5156
Q13.2344 26.2656 9.51562 29.9062
Q5.8125 33.5469 5.8125 39.8906
Q5.8125 47.6094 11.2812 51.7969
Q16.75 56 26.8125 56
Q31.7812 56 36.1719 55.2656
Q40.5781 54.5469 44.2812 53.0781" id="BitstreamVeraSans-Roman-73"/>
     <path d="
M41.1094 46.2969
Q39.5938 47.1719 37.8125 47.5781
Q36.0312 48 33.8906 48
Q26.2656 48 22.1875 43.0469
Q18.1094 38.0938 18.1094 28.8125
L18.1094 0
L9.07812 0
L9.07812 54.6875
L18.1094 54.6875
L18.1094 46.1875
Q20.9531 51.1719 25.4844 53.5781
Q30.0312 56 36.5312 56
Q37.4531 56 38.5781 55.875
Q39.7031 55.7656 41.0625 55.5156
z
" id="BitstreamVeraSans-Roman-72"/>
     <path d="
M18.3125 70.2188
L18.3125 54.6875
L36.8125 54.6875
L36.8125 47.7031
L18.3125 47.7031
L18.3125 18.0156
Q18.3125 11.3281 20.1406 9.42188
Q21.9688 7.51562 27.5938 7.51562
L36.8125 7.51562
L36.8125 0
L27.5938 0
Q17.1875 0 13.2344 3.875
Q9.28125 7.76562 9.28125 18.0156
L9.28125 47.7031
L2.6875 47.7031
L2.6875 54.6875
L9.28125 54.6875
L9.28125 70.2188
z
" id="BitstreamVeraSans-Roman-74"/>
     <path d="
M56.2031 29.5938
L56.2031 25.2031
L14.8906 25.2031
Q15.4844 15.9219 20.4844 11.0625
Q25.4844 6.20312 34.4219 6.20312
Q39.5938 6.20312 44.4531 7.46875
Q49.3125 8.73438 54.1094 11.2812
L54.1094 2.78125
Q49.2656 0.734375 44.1875 -0.34375
Q39.1094 -1.42188 33.8906 -1.42188
Q20.7969 -1.42188 13.1562 6.1875
Q5.51562 13.8125 5.51562 26.8125
Q5.51562 40.2344 12.7656 48.1094
Q20.0156 56 32.3281 56
Q43.3594 56 49.7812 48.8906
Q56.2031 41.7969 56.2031 29.5938
M47.2188 32.2344
Q47.125 39.5938 43.0938 43.9844
Q39.0625 48.3906 32.4219 48.3906
Q24.9062 48.3906 20.3906 44.1406
Q15.875 39.8906 15.1875 32.1719
z
" id="BitstreamVeraSans-Roman-65"/>
     <path d="
M9.8125 72.9062
L19.6719 72.9062
L19.6719 8.29688
L55.1719 8.29688
L55.1719 0
L9.8125 0
z
" id="BitstreamVeraSans-Roman-4c"/>
     <path d="
M48.6875 27.2969
Q48.6875 37.2031 44.6094 42.8438
Q40.5312 48.4844 33.4062 48.4844
Q26.2656 48.4844 22.1875 42.8438
Q18.1094 37.2031 18.1094 27.2969
Q18.1094 17.3906 22.1875 11.75
Q26.2656 6.10938 33.4062 6.10938
Q40.5312 6.10938 44.6094 11.75
Q48.6875 17.3906 48.6875 27.2969
M18.1094 46.3906
Q20.9531 51.2656 25.2656 53.625
Q29.5938 56 35.5938 56
Q45.5625 56 51.7812 48.0938
Q58.0156 40.1875 58.0156 27.2969
Q58.0156 14.4062 51.7812 6.48438
Q45.5625 -1.42188 35.5938 -1.42188
Q29.5938 -1.42188 25.2656 0.953125
Q20.9531 3.32812 18.1094 8.20312
L18.1094 0
L9.07812 0
L9.07812 75.9844
L18.1094 75.9844
z
" id="BitstreamVeraSans-Roman-62"/>
     <path d="
M30.6094 48.3906
Q23.3906 48.3906 19.1875 42.75
Q14.9844 37.1094 14.9844 27.2969
Q14.9844 17.4844 19.1562 11.8438
Q23.3438 6.20312 30.6094 6.20312
Q37.7969 6.20312 41.9844 11.8594
Q46.1875 17.5312 46.1875 27.2969
Q46.1875 37.0156 41.9844 42.7031
Q37.7969 48.3906 30.6094 48.3906
M30.6094 56
Q42.3281 56 49.0156 48.375
Q55.7188 40.7656 55.7188 27.2969
Q55.7188 13.875 49.0156 6.21875
Q42.3281 -1.42188 30.6094 -1.42188
Q18.8438 -1.42188 12.1719 6.21875
Q5.51562 13.875 5.51562 27.2969
Q5.51562 40.7656 12.1719 48.375
Q18.8438 56 30.6094 56" id="BitstreamVeraSans-Roman-6f"/>
    </defs>
    <g transform="translate(99.2465625 16.318125)scale(0.12 -0.12)">
     <use xlink:href="#BitstreamVeraSans-Roman-64"/>
     <use x="63.4765625" xlink:href="#BitstreamVeraSans-Roman-61"/>
     <use x="124.755859375" xlink:href="#BitstreamVeraSans-Roman-69"/>
     <use x="152.5390625" xlink:href="#BitstreamVeraSans-Roman-6c"/>
     <use x="180.322265625" xlink:href="#BitstreamVeraSans-Roman-79"/>
     <use x="239.501953125" xlink:href="#BitstreamVeraSans-Roman-20"/>
     <use x="271.2890625" xlink:href="#BitstreamVeraSans-Roman-73"/>
     <use x="323.388671875" xlink:href="#BitstreamVeraSans-Roman-68"/>
     <use x="386.767578125" xlink:href="#BitstreamVeraSans-Roman-72"/>
     <use x="427.880859375" xlink:href="#BitstreamVeraSans-Roman-75"/>
     <use x="491.259765625" xlink:href="#BitstreamVeraSans-Roman-62"/>
     <use x="554.736328125" xlink:href="#BitstreamVeraSans-Roman-20"/>
     <use x="586.5234375" xlink:href="#BitstreamVeraSans-Roman-50"/>
     <use x="646.826171875" xlink:href="#BitstreamVeraSans-Roman-45"/>
     <use x="710.009765625" xlink:href="#BitstreamVeraSans-Roman-54"/>
     <use x="771.09375" xlink:href="#BitstreamVeraSans-Roman-20"/>
     <use x="802.880859375" xlink:href="#BitstreamVeraSans-Roman-61"/>
     <use x="864.16015625" xlink:href="#BitstreamVeraSans-Roman-74"/>
     <use x="903.369140625" xlink:href="#BitstreamVeraSans-Roman-20"/>
     <use x="935.15625" xlink:href="#BitstreamVeraSans-Roman-4c"/>
     <use x="989.119140625" xlink:href="#BitstreamVeraSans-Roman-6f"/>
     <use x="1050.30078125" xlink:href="#BitstreamVeraSans-Roman-77"/>
     <use x="1132.087890625" xlink:href="#BitstreamVeraSans-Roman-65"/>
     <use x="1193.611328125" xlink:href="#BitstreamVeraSans-Roman-72"/>
     <use x="1234.724609375" xlink:href="#BitstreamVeraSans-Roman-57"/>
     <use x="1327.7265625" xlink:href="#BitstreamVeraSans-Roman-65"/>
     <use x="1389.25" xlink:href="#BitstreamVeraSans-Roman-61"/>
     <use x="1450.529296875" xlink:href="#BitstreamVeraSans-Roman-74"/>
     <use x="1489.73828125" xlink:href="#BitstreamVeraSans-Roman-68"/>
     <use x="1553.1171875" xlink:href="#BitstreamVeraSans-Roman-65"/>
     <use x="1614.640625" xlink:href="#BitstreamVeraSans-Roman-72"/>
    </g>
   </g>
   <g id="legend_1">
    <g id="patch_7">
     <path d="
M287.803 277.511
L359.991 277.511
L359.991 27.3181
L287.803 27.3181
z
" style="fill:#ffffff;stroke:#000000;stroke-linejoin:miter;"/>
    </g>
    <g id="line2d_47">
     <path d="
M296.203 37.0362
L313.003 37.0362" style="fill:none;stroke:#0000ff;stroke-linecap:square;"/>
    </g>
    <g id="line2d_48"/>
    <g id="text_20">
     <!-- 1999 -->
     <defs>
      <path d="
M10.9844 1.51562
L10.9844 10.5
Q14.7031 8.73438 18.5 7.8125
Q22.3125 6.89062 25.9844 6.89062
Q35.75 6.89062 40.8906 13.4531
Q46.0469 20.0156 46.7812 33.4062
Q43.9531 29.2031 39.5938 26.9531
Q35.25 24.7031 29.9844 24.7031
Q19.0469 24.7031 12.6719 31.3125
Q6.29688 37.9375 6.29688 49.4219
Q6.29688 60.6406 12.9375 67.4219
Q19.5781 74.2188 30.6094 74.2188
Q43.2656 74.2188 49.9219 64.5156
Q56.5938 54.8281 56.5938 36.375
Q56.5938 19.1406 48.4062 8.85938
Q40.2344 -1.42188 26.4219 -1.42188
Q22.7031 -1.42188 18.8906 -0.6875
Q15.0938 0.046875 10.9844 1.51562
M30.6094 32.4219
Q37.25 32.4219 41.125 36.9531
Q45.0156 41.5 45.0156 49.4219
Q45.0156 57.2812 41.125 61.8438
Q37.25 66.4062 30.6094 66.4062
Q23.9688 66.4062 20.0938 61.8438
Q16.2188 57.2812 16.2188 49.4219
Q16.2188 41.5 20.0938 36.9531
Q23.9688 32.4219 30.6094 32.4219" id="BitstreamVeraSans-Roman-39"/>
     </defs>
     <g transform="translate(326.203125 41.23625)scale(0.12 -0.12)">
      <use xlink:href="#BitstreamVeraSans-Roman-31"/>
      <use x="63.623046875" xlink:href="#BitstreamVeraSans-Roman-39"/>
      <use x="127.24609375" xlink:href="#BitstreamVeraSans-Roman-39"/>
      <use x="190.869140625" xlink:href="#BitstreamVeraSans-Roman-39"/>
     </g>
    </g>
    <g id="line2d_49">
     <path d="
M296.203 54.65
L313.003 54.65" style="fill:none;stroke:#008000;stroke-linecap:square;"/>
    </g>
    <g id="line2d_50"/>
    <g id="text_21">
     <!-- 2000 -->
     <g transform="translate(326.203125 58.85)scale(0.12 -0.12)">
      <use xlink:href="#BitstreamVeraSans-Roman-32"/>
      <use x="63.623046875" xlink:href="#BitstreamVeraSans-Roman-30"/>
      <use x="127.24609375" xlink:href="#BitstreamVeraSans-Roman-30"/>
      <use x="190.869140625" xlink:href="#BitstreamVeraSans-Roman-30"/>
     </g>
    </g>
    <g id="line2d_51">
     <path d="
M296.203 72.2638
L313.003 72.2638" style="fill:none;stroke:#ff0000;stroke-linecap:square;"/>
    </g>
    <g id="line2d_52"/>
    <g id="text_22">
     <!-- 2001 -->
     <g transform="translate(326.203125 76.46375)scale(0.12 -0.12)">
      <use xlink:href="#BitstreamVeraSans-Roman-32"/>
      <use x="63.623046875" xlink:href="#BitstreamVeraSans-Roman-30"/>
      <use x="127.24609375" xlink:href="#BitstreamVeraSans-Roman-30"/>
      <use x="190.869140625" xlink:href="#BitstreamVeraSans-Roman-31"/>
     </g>
    </g>
    <g id="line2d_53">
     <path d="
M296.203 89.8775
L313.003 89.8775" style="fill:none;stroke:#00bfbf;stroke-linecap:square;"/>
    </g>
    <g id="line2d_54"/>
    <g id="text_23">
     <!-- 2002 -->
     <g transform="translate(326.203125 94.0775)scale(0.12 -0.12)">
      <use xlink:href="#BitstreamVeraSans-Roman-32"/>
      <use x="63.623046875" xlink:href="#BitstreamVeraSans-Roman-30"/>
      <use x="127.24609375" xlink:href="#BitstreamVeraSans-Roman-30"/>
      <use x="190.869140625" xlink:href="#BitstreamVeraSans-Roman-32"/>
     </g>
    </g>
    <g id="line2d_55">
     <path d="
M296.203 107.491
L313.003 107.491" style="fill:none;stroke:#bf00bf;stroke-linecap:square;"/>
    </g>
    <g id="line2d_56"/>
    <g id="text_24">
     <!-- 2003 -->
     <g transform="translate(326.203125 111.69125)scale(0.12 -0.12)">
      <use xlink:href="#BitstreamVeraSans-Roman-32"/>
      <use x="63.623046875" xlink:href="#BitstreamVeraSans-Roman-30"/>
      <use x="127.24609375" xlink:href="#BitstreamVeraSans-Roman-30"/>
      <use x="190.869140625" xlink:href="#BitstreamVeraSans-Roman-33"/>
     </g>
    </g>
    <g id="line2d_57">
     <path d="
M296.203 125.105
L313.003 125.105" style="fill:none;stroke:#bfbf00;stroke-linecap:square;"/>
    </g>
    <g id="line2d_58"/>
    <g id="text_25">
     <!-- 2004 -->
     <g transform="translate(326.203125 129.305)scale(0.12 -0.12)">
      <use xlink:href="#BitstreamVeraSans-Roman-32"/>
      <use x="63.623046875" xlink:href="#BitstreamVeraSans-Roman-30"/>
      <use x="127.24609375" xlink:href="#BitstreamVeraSans-Roman-30"/>
      <use x="190.869140625" xlink:href="#BitstreamVeraSans-Roman-34"/>
     </g>
    </g>
    <g id="line2d_59">
     <path d="
M296.203 142.719
L313.003 142.719" style="fill:none;stroke:#000000;stroke-linecap:square;"/>
    </g>
    <g id="line2d_60"/>
    <g id="text_26">
     <!-- 2005 -->
     <g transform="translate(326.203125 146.91875)scale(0.12 -0.12)">
      <use xlink:href="#BitstreamVeraSans-Roman-32"/>
      <use x="63.623046875" xlink:href="#BitstreamVeraSans-Roman-30"/>
      <use x="127.24609375" xlink:href="#BitstreamVeraSans-Roman-30"/>
      <use x="190.869140625" xlink:href="#BitstreamVeraSans-Roman-35"/>
     </g>
    </g>
    <g id="line2d_61">
     <path d="
M296.203 160.332
L313.003 160.332" style="fill:none;stroke:#0000ff;stroke-linecap:square;"/>
    </g>
    <g id="line2d_62"/>
    <g id="text_27">
     <!-- 2006 -->
     <g transform="translate(326.203125 164.5325)scale(0.12 -0.12)">
      <use xlink:href="#BitstreamVeraSans-Roman-32"/>
      <use x="63.623046875" xlink:href="#BitstreamVeraSans-Roman-30"/>
      <use x="127.24609375" xlink:href="#BitstreamVeraSans-Roman-30"/>
      <use x="190.869140625" xlink:href="#BitstreamVeraSans-Roman-36"/>
     </g>
    </g>
    <g id="line2d_63">
     <path d="
M296.203 177.946
L313.003 177.946" style="fill:none;stroke:#008000;stroke-linecap:square;"/>
    </g>
    <g id="line2d_64"/>
    <g id="text_28">
     <!-- 2007 -->
     <g transform="translate(326.203125 182.14625)scale(0.12 -0.12)">
      <use xlink:href="#BitstreamVeraSans-Roman-32"/>
      <use x="63.623046875" xlink:href="#BitstreamVeraSans-Roman-30"/>
      <use x="127.24609375" xlink:href="#BitstreamVeraSans-Roman-30"/>
      <use x="190.869140625" xlink:href="#BitstreamVeraSans-Roman-37"/>
     </g>
    </g>
    <g id="line2d_65">
     <path d="
M296.203 195.56
L313.003 195.56" style="fill:none;stroke:#ff0000;stroke-linecap:square;"/>
    </g>
    <g id="line2d_66"/>
    <g id="text_29">
     <!-- 2008 -->
     <defs>
      <path d="
M31.7812 34.625
Q24.75 34.625 20.7188 30.8594
Q16.7031 27.0938 16.7031 20.5156
Q16.7031 13.9219 20.7188 10.1562
Q24.75 6.39062 31.7812 6.39062
Q38.8125 6.39062 42.8594 10.1719
Q46.9219 13.9688 46.9219 20.5156
Q46.9219 27.0938 42.8906 30.8594
Q38.875 34.625 31.7812 34.625
M21.9219 38.8125
Q15.5781 40.375 12.0312 44.7188
Q8.5 49.0781 8.5 55.3281
Q8.5 64.0625 14.7188 69.1406
Q20.9531 74.2188 31.7812 74.2188
Q42.6719 74.2188 48.875 69.1406
Q55.0781 64.0625 55.0781 55.3281
Q55.0781 49.0781 51.5312 44.7188
Q48 40.375 41.7031 38.8125
Q48.8281 37.1562 52.7969 32.3125
Q56.7812 27.4844 56.7812 20.5156
Q56.7812 9.90625 50.3125 4.23438
Q43.8438 -1.42188 31.7812 -1.42188
Q19.7344 -1.42188 13.25 4.23438
Q6.78125 9.90625 6.78125 20.5156
Q6.78125 27.4844 10.7812 32.3125
Q14.7969 37.1562 21.9219 38.8125
M18.3125 54.3906
Q18.3125 48.7344 21.8438 45.5625
Q25.3906 42.3906 31.7812 42.3906
Q38.1406 42.3906 41.7188 45.5625
Q45.3125 48.7344 45.3125 54.3906
Q45.3125 60.0625 41.7188 63.2344
Q38.1406 66.4062 31.7812 66.4062
Q25.3906 66.4062 21.8438 63.2344
Q18.3125 60.0625 18.3125 54.3906" id="BitstreamVeraSans-Roman-38"/>
     </defs>
     <g transform="translate(326.203125 199.76)scale(0.12 -0.12)">
      <use xlink:href="#BitstreamVeraSans-Roman-32"/>
      <use x="63.623046875" xlink:href="#BitstreamVeraSans-Roman-30"/>
      <use x="127.24609375" xlink:href="#BitstreamVeraSans-Roman-30"/>
      <use x="190.869140625" xlink:href="#BitstreamVeraSans-Roman-38"/>
     </g>
    </g>
    <g id="line2d_67">
     <path d="
M296.203 213.174
L313.003 213.174" style="fill:none;stroke:#00bfbf;stroke-linecap:square;"/>
    </g>
    <g id="line2d_68"/>
    <g id="text_30">
     <!-- 2009 -->
     <g transform="translate(326.203125 217.37375)scale(0.12 -0.12)">
      <use xlink:href="#BitstreamVeraSans-Roman-32"/>
      <use x="63.623046875" xlink:href="#BitstreamVeraSans-Roman-30"/>
      <use x="127.24609375" xlink:href="#BitstreamVeraSans-Roman-30"/>
      <use x="190.869140625" xlink:href="#BitstreamVeraSans-Roman-39"/>
     </g>
    </g>
    <g id="line2d_69">
     <path d="
M296.203 230.788
L313.003 230.788" style="fill:none;stroke:#bf00bf;stroke-linecap:square;"/>
    </g>
    <g id="line2d_70"/>
    <g id="text_31">
     <!-- 2010 -->
     <g transform="translate(326.203125 234.9875)scale(0.12 -0.12)">
      <use xlink:href="#BitstreamVeraSans-Roman-32"/>
      <use x="63.623046875" xlink:href="#BitstreamVeraSans-Roman-30"/>
      <use x="127.24609375" xlink:href="#BitstreamVeraSans-Roman-31"/>
      <use x="190.869140625" xlink:href="#BitstreamVeraSans-Roman-30"/>
     </g>
    </g>
    <g id="line2d_71">
     <path d="
M296.203 248.401
L313.003 248.401" style="fill:none;stroke:#bfbf00;stroke-linecap:square;"/>
    </g>
    <g id="line2d_72"/>
    <g id="text_32">
     <!-- 2011 -->
     <g transform="translate(326.203125 252.60125)scale(0.12 -0.12)">
      <use xlink:href="#BitstreamVeraSans-Roman-32"/>
      <use x="63.623046875" xlink:href="#BitstreamVeraSans-Roman-30"/>
      <use x="127.24609375" xlink:href="#BitstreamVeraSans-Roman-31"/>
      <use x="190.869140625" xlink:href="#BitstreamVeraSans-Roman-31"/>
     </g>
    </g>
    <g id="line2d_73">
     <path d="
M296.203 266.015
L313.003 266.015" style="fill:none;stroke:#000000;stroke-linecap:square;"/>
    </g>
    <g id="line2d_74"/>
    <g id="text_33">
     <!-- 2012 -->
     <g transform="translate(326.203125 270.215)scale(0.12 -0.12)">
      <use xlink:href="#BitstreamVeraSans-Roman-32"/>
      <use x="63.623046875" xlink:href="#BitstreamVeraSans-Roman-30"/>
      <use x="127.24609375" xlink:href="#BitstreamVeraSans-Roman-31"/>
      <use x="190.869140625" xlink:href="#BitstreamVeraSans-Roman-32"/>
     </g>
    </g>
   </g>
  </g>
 </g>
 <defs>
  <clipPath id="p95a2ee5e18">
   <rect height="223.2" width="334.8" x="31.190625" y="21.318125"/>
  </clipPath>
 </defs>
</svg>
