<?xml version="1.0" encoding="utf-8" standalone="no"?>
<!DOCTYPE svg PUBLIC "-//W3C//DTD SVG 1.1//EN"
  "http://www.w3.org/Graphics/SVG/1.1/DTD/svg11.dtd">
<!-- Created with matplotlib (http://matplotlib.org/) -->
<svg height="280pt" version="1.1" viewBox="0 0 373 280" width="373pt" xmlns="http://www.w3.org/2000/svg" xmlns:xlink="http://www.w3.org/1999/xlink">
 <defs>
  <style type="text/css">
*{stroke-linecap:butt;stroke-linejoin:round;}
  </style>
 </defs>
 <g id="figure_1">
  <g id="patch_1">
   <path d="
M0 280.074
L373.191 280.074
L373.191 0
L0 0
z
" style="fill:#ffffff;"/>
  </g>
  <g id="axes_1">
   <g id="patch_2">
    <path d="
M31.1906 244.518
L365.991 244.518
L365.991 21.3181
L31.1906 21.3181
z
" style="fill:#ffffff;"/>
   </g>
   <g id="line2d_1">
    <path clip-path="url(#pc1a11fcac8)" d="
M0 0" style="fill:none;stroke:#0000ff;stroke-linecap:square;"/>
   </g>
   <g id="line2d_2">
    <path clip-path="url(#pc1a11fcac8)" d="
M31.1906 128.382
L32.1079 116.5
L33.0251 112.123
L33.9424 151.323
L34.8597 143.524
L35.7769 193.317
L36.6942 181.782
L37.6114 192.583
L38.5287 214.404
L39.446 193.442
L40.3632 239.331
M43.115 146.63
L44.0323 161.967
L44.9495 110.446
L45.8668 130.588
L46.784 185.476
M48.6186 231.731
L49.5358 212.119
L50.4531 165.884
L51.3704 144.087
L52.2876 169.772
L53.2049 236.442
L54.1221 183.068
L55.0394 156.187
L55.9567 200.671
L56.8739 210.696
L57.7912 194.299
L58.7084 190.895
L59.6257 182.918
L60.543 173.371
L61.4602 213.972
L62.3775 179.881
L63.2947 170.777
L65.1293 199.718
L66.0465 139.12
L66.9638 159.543
L67.881 155.791
L68.7983 151.439
L69.7156 156.296
L70.6328 177.075
L71.5501 113.437
L73.3846 160.024
L74.3019 126.661
L75.2191 144.317
L76.1364 153.107
L77.0536 153.649
L77.9709 150.057
L78.8882 208.676
L79.8054 181.843
L80.7227 169.589
L81.6399 187.216
L82.5572 138.756
L83.4745 157.314
L84.3917 141.861
L85.309 124.366
L86.2262 169.911
L87.1435 127.307
L88.0608 93.4689
L88.978 130.594
L89.8953 114.297
L90.8125 86.0736
L91.7298 98.7019
L92.6471 174.716
L93.5643 120.444
L94.4816 106.595
L95.3988 103.947
L96.3161 70.9249
L97.2334 168.92
L98.1506 167.26
L99.0679 142.597
L99.9851 128.413
L100.902 130.793
L101.82 197.775
L102.737 175.903
L103.654 143.573
L104.571 81.6815
L105.489 55.4334
L106.406 100.63
L107.323 163.902
L108.24 173.489
L109.158 191.454
L110.075 95.3571
L110.992 132.18
L111.91 82.6112
L112.827 87.3222
L113.744 101.267
L114.661 39.9231
L115.579 57.1461
L116.496 61.6622
L117.413 115.99
L118.33 76.5204
L119.248 120.697
L120.165 135.601
L121.082 78.8125
L121.999 141.809
L122.917 147.591
L123.834 77.0557
L124.751 105.978
L125.668 105.895
L126.586 152.869
L127.503 114.993
L128.42 98.6553
L129.337 86.9283
L130.255 88.923
L131.172 96.4499
L132.089 92.4446
L133.007 92.7257
L133.924 69.2746
L134.841 152.196
L135.758 146.207
L136.676 73.0085
L137.593 52.2264
L138.51 74.0231
L139.427 79.4706
L140.345 142.703
L142.179 76.8352
L143.096 61.031
L144.014 76.6388
L144.931 102.345
L145.848 95.6191
L146.765 108.199
L147.683 124.677
L148.6 103.933
L149.517 76.1765
L150.434 60.3105
L151.352 97.7197
L152.269 86.1191
L153.186 83.7636
L154.104 156.374
L155.021 126.424
L155.938 122.401
L156.855 103.903
L157.773 127.745
L158.69 115.517
L159.607 168.278
L160.524 126.686
L161.442 139.906
L162.359 179.861
L163.276 134.495
L164.193 133.431
L165.111 162.032
L166.028 168.033
L166.945 160.672
L167.862 155.665
L168.78 133.023
L169.697 139.639
L170.614 172.466
L171.531 125.923
L172.449 177.961
L173.366 163.181
L174.283 121.583
L175.2 115.012
L176.118 137.134
L177.035 98.0921
L177.952 152.092
L178.87 122.142
L179.787 167.039
L181.621 104.692
L182.539 104.056
L183.456 99.3552
L184.373 105.903
L185.29 110.172
L186.208 109.172
L187.125 100.725
L188.042 107.2
L188.959 142.182
L189.877 135.026
L190.794 119.607
L191.711 119.42
L192.628 110.726
L195.38 131.566
L196.297 133.713
L197.215 134.685
L198.132 150.095
L199.049 131.405
L199.967 130.386
L200.884 135.441
L201.801 131.34
L202.718 130.113
L203.636 131.525
L204.553 116.571
L205.47 113.852
L206.387 121.355
L207.305 96.041
L208.222 91.2563
L209.139 106.865
L210.056 115.53
L210.974 118.715
L211.891 126.181
L212.808 125.924
L213.725 116.522
L214.643 103.738
L215.56 122.205
L216.477 149.253
L217.394 164.498
L218.312 137.365
L219.229 138.585
L220.146 119.75
L221.064 122.434
L222.898 130.509
L223.815 128.839
L225.65 115.794
L226.567 125.799
L227.484 132.189
L228.402 125.036
L229.319 123.944
L230.236 128.195
L231.153 136.831
L232.071 142.889
L232.988 160.428
L233.905 146.025
L234.822 114.967
L235.74 119.808
L236.657 125.813
L237.574 119.534
L238.491 128.672
L239.409 131.959
L240.326 127.38
L241.243 129.588
L243.078 151.244
L243.995 129.979
L244.912 131.375
L245.83 115.242
L246.747 111.246
L247.664 125.234
L248.581 134.778
L249.499 118.322
L250.416 95.7655
L251.333 131.946
L252.25 134.602
L253.168 124.336
L254.085 110.276
L255.002 120.997
L255.919 94.6649
L256.837 93.0233
L257.754 99.3101
L258.671 108.378
L259.588 124.997
L260.506 123.653
L261.423 113.012
L262.34 111.547
L263.257 104.609
L264.175 105.483
L265.092 107.751
L266.009 113.139
L266.927 115.519
L267.844 114.943
L269.678 111.464
L270.596 122.295
L271.513 144.25
L272.43 187.61
L273.347 184.801
L274.265 145.043
L276.099 116.555
L277.016 115.268
L277.934 125.756
L278.851 123.495
L279.768 108.425
L280.685 118.89
L281.603 134.716
L282.52 133.267
L284.354 152.375
L285.272 194.656
L286.189 176.865
L287.106 151.365
L288.941 122.216
L289.858 117.246
L290.775 194.363
L291.693 175.595
L292.61 100.423
L293.527 112.101
L294.444 139.538
L295.362 131.714
L296.279 119.639
L297.196 143.507
L298.113 121.74
L299.031 148.843
L299.948 119.864
L300.865 108.496
L301.782 79.9009
L302.7 79.3198
L303.617 89.8164
L304.534 105.129
L305.451 103.296
L306.369 96.0312
L307.286 105.725
L308.203 111.355
L309.12 109.8
L310.038 128.194
L310.955 177.386
L311.872 203.935
L313.707 176.323
L314.624 139.72
L315.541 166.394
L316.459 182.676
L317.376 202.14
L318.293 226.228
L319.21 195.492
L320.128 201.814
L321.045 193.618
L321.962 168.65
L322.879 125.131
L323.797 132.685
L324.714 161.171
L325.631 157.48
L326.548 141.74
L327.466 159.392
L328.383 157.994
L329.3 118.079
L331.135 219.393
L332.052 175.924
L332.969 160.355
L333.887 185.887
L334.804 174.925
L335.721 149.438
L336.638 192.622
L337.556 203.956
L338.473 197.8
L339.39 184.803
L340.307 187.137
L341.225 176.415
L342.142 160.153
L343.976 145.79
L344.894 199.5
L345.811 124.764
L346.728 140.547
L347.645 158.395
L348.563 202.65
L349.48 202.613
L350.397 196.341
L351.314 179.017
L352.232 200.492
L353.149 142.913
L354.066 146.613
L354.984 188.191
L355.901 149.448
L356.818 190.227
L357.735 206.896
L358.653 213.561
L359.57 179.148
L360.487 204.565
L361.404 174.12
L362.322 223.441
L364.156 164
L365.073 96.0925
L365.073 96.0925" style="fill:none;stroke:#008000;stroke-linecap:square;"/>
   </g>
   <g id="line2d_3">
    <path clip-path="url(#pc1a11fcac8)" d="
M31.1906 202.434
L32.1079 138.708
L33.0251 148.328
L33.9424 95.855
L34.8597 149.733
L35.7769 227.933
L36.6942 182.098
L37.6114 167.683
L38.5287 186.811
L39.446 148.169
L40.3632 160.886
L41.2805 199.582
L42.1977 178.98
L43.115 193.378
L44.0323 232.583
L44.9495 234.414
L45.8668 235.532
L46.784 232.853
L47.7013 230.663
L48.6186 232.648
L49.5358 231.762
L50.4531 233.996
L51.3704 242.004
L52.2876 235.355
M54.1221 204.708
L55.0394 191.688
L55.9567 190.949
L56.8739 171.123
L57.7912 192.138
L58.7084 207.241
L59.6257 185.099
L60.543 169.28
L61.4602 163.105
L62.3775 172.952
L63.2947 188.473
L64.212 183.865
L65.1293 203.211
L66.0465 199.535
L66.9638 230.48
L67.881 175.778
L68.7983 199.723
L69.7156 205.212
L70.6328 149.198
L71.5501 193.794
L72.4673 133.322
L73.3846 162.624
L74.3019 202.375
L75.2191 148.846
L76.1364 130.368
L77.0536 148.297
L77.9709 141.678
L78.8882 171.541
L79.8054 175.159
L80.7227 133.643
L81.6399 163.711
L82.5572 178.338
L83.4745 101.746
L84.3917 106.624
L85.309 145.233
L86.2262 172.976
L87.1435 178.667
L88.0608 203.288
L88.978 235.999
L89.8953 201.716
L90.8125 152.516
L91.7298 188.737
L92.6471 143.199
L93.5643 154.869
L94.4816 129.307
L95.3988 141.796
L96.3161 137.73
L97.2334 128.645
L98.1506 195.932
L99.0679 185.173
L100.902 125.675
L101.82 144.396
L102.737 129.58
L103.654 177.308
L104.571 178.88
L105.489 123.939
L106.406 145.893
L107.323 196.561
L108.24 118.129
L109.158 120.971
L110.075 168.335
L110.992 199.756
L111.91 105.876
L112.827 188.843
L113.744 133.779
L114.661 193.339
L115.579 182.377
L116.496 100.281
L117.413 102.801
L118.33 104.196
L119.248 111.552
L120.165 188.402
L121.082 166.987
L121.999 201.367
L122.917 174.107
L123.834 138.622
L124.751 169.224
L125.668 142.805
L126.586 148.955
L127.503 119.027
L128.42 114.367
L129.337 128.764
L130.255 106.15
L131.172 119.56
L132.089 122.306
L133.007 130.764
L133.924 136.073
L134.841 86.37
L135.758 86.499
L136.676 139.368
L137.593 109.28
L138.51 189.46
L139.427 141.733
L140.345 146.561
L141.262 136.661
L142.179 178.657
L143.096 197.071
L144.014 165.651
L144.931 161.449
L145.848 174.686
L146.765 135.173
L147.683 114.243
L148.6 104.16
L149.517 105.948
L150.434 111.12
L151.352 117.606
L152.269 96.7806
L153.186 161.761
L154.104 110.858
L155.021 107.321
L155.938 115.577
L156.855 133.464
L157.773 122.635
L158.69 108.629
L159.607 96.9397
L160.524 118.584
L162.359 155.088
L163.276 129.604
L164.193 122.941
L165.111 123.655
L166.028 130.52
L166.945 133.048
L167.862 147.889
L168.78 150.129
L169.697 163.974
L170.614 199.39
L171.531 170.209
L172.449 167.485
L173.366 192.526
L174.283 187.661
L175.2 154.146
L176.118 148.293
L177.035 135.907
L177.952 161.763
L178.87 164.667
L179.787 156.618
L180.704 201.497
L181.621 198.823
L182.539 179.979
L183.456 146.992
L184.373 163.561
L185.29 135.926
L186.208 166.236
L187.125 166.263
L188.042 184.62
L188.959 142.09
L189.877 119.578
L190.794 133.455
L191.711 137.851
L192.628 140.795
L193.546 125.165
L194.463 124.942
L195.38 142.308
L196.297 139.596
L197.215 131.85
L198.132 145.776
L199.049 153.273
L199.967 145.901
L200.884 159.981
L201.801 137.303
L202.718 129.962
L203.636 131.431
L204.553 128.03
L205.47 130.956
L206.387 153.281
L207.305 169.782
L208.222 153.706
L209.139 134.522
L210.056 131.942
L210.974 144.543
L211.891 145.442
L212.808 152.367
L213.725 147.333
L214.643 134.875
L215.56 138.956
L216.477 146.397
L217.394 160.807
L218.312 147.529
L219.229 143.344
L220.146 148.903
L221.064 158.213
L221.981 155.627
L222.898 152.262
L223.815 151.903
L224.733 146.537
L225.65 148.305
L226.567 149.474
L227.484 148.802
L228.402 153.702
L229.319 146.859
L230.236 207.254
L231.153 221.621
L232.071 178.902
L232.988 156.084
L233.905 145.047
L234.822 145.42
L235.74 150.474
L236.657 158.977
L237.574 155.855
L238.491 135.899
L239.409 131.314
L240.326 138.488
L241.243 142.525
L242.16 149.124
L243.078 158.05
L243.995 150.999
L244.912 153.08
L245.83 166.088
L246.747 156.565
L247.664 149.84
L248.581 149.22
L249.499 147.684
L250.416 156.247
L251.333 152.539
L252.25 164.499
L253.168 152.56
L254.085 150.227
L255.002 150.028
L255.919 145.422
L256.837 146.008
L257.754 154.147
L258.671 142.388
L259.588 127.773
L260.506 120.781
L261.423 124.232
L262.34 136.329
L263.257 143.02
L264.175 144.165
L265.092 148.526
L266.927 164.078
L267.844 159.979
L268.761 152.986
L269.678 171.493
M294.444 165.428
L295.362 175.47
L296.279 165.284
L298.113 201.108
L299.031 181.119
L299.948 183.648
L300.865 191.456
L301.782 188.255
L302.7 168.634
L303.617 130.006
L304.534 174.823
L305.451 175.764
L306.369 137.369
L307.286 190.888
L308.203 222.212
L309.12 182.637
L310.038 186.523
L310.955 163.143
L311.872 169.005
L312.79 148.38
L313.707 147.25
L314.624 181.179
L316.459 152.32
L317.376 123.26
L318.293 143.477
L319.21 193.87
L320.128 191.661
L321.045 200.257
L321.962 206.402
L322.879 143.991
L323.797 146.658
L324.714 129.827
L325.631 188.668
L326.548 125.598
L327.466 145.222
L328.383 151.136
L329.3 183.752
L330.217 162.325
L331.135 172.048
L332.052 177.157
L332.969 194.945
L333.887 206.655
L334.804 187.766
L335.721 158.822
M337.556 155.773
L338.473 141.4
L339.39 131.711
L340.307 149.36
L341.225 131.036
L342.142 143.761
L343.059 212.762
L343.976 156.867
L344.894 138.263
L345.811 146.676
L346.728 158.904
L347.645 207.013
L348.563 221.57
L349.48 192.584
L350.397 203.557
L351.314 219.822
L352.232 198.361
L353.149 218.972
L354.066 233.744
L354.984 218.4
L355.901 182.64
L356.818 243.685
L357.735 220.946
L358.653 171.12
L360.487 219.839
L361.404 195.499
L362.322 202.127
L363.239 190.089
L364.156 218.128
L365.073 189.363
L365.073 189.363" style="fill:none;stroke:#ff0000;stroke-linecap:square;"/>
   </g>
   <g id="line2d_4">
    <path clip-path="url(#pc1a11fcac8)" d="
M31.1906 208.056
L32.1079 191.933
L33.0251 213.839
L33.9424 215.175
L34.8597 227.305
L35.7769 218.521
L36.6942 173.161
L37.6114 193.236
L38.5287 173.933
L39.446 158.341
L40.3632 195.961
L41.2805 168.257
L42.1977 221.667
L43.115 180.514
L44.0323 131.01
L44.9495 185.06
L45.8668 180.096
L46.784 176.636
L47.7013 176.366
L48.6186 158.779
L49.5358 163.344
L51.3704 234.229
L52.2876 171.019
L53.2049 195.092
L54.1221 227.366
L55.0394 234.33
L55.9567 199.82
L56.8739 200.145
L57.7912 222.545
L58.7084 240.247
L59.6257 233.574
L60.543 196.563
L61.4602 202.247
L62.3775 216.517
L63.2947 201.587
L64.212 217.198
L65.1293 215.687
L66.0465 192.939
L66.9638 200.42
L67.881 148.537
L68.7983 175.237
L69.7156 180.058
L70.6328 222.13
L71.5501 179.987
L72.4673 228.61
L73.3846 208.994
L74.3019 215.068
L75.2191 176.24
L76.1364 164.637
L77.0536 157.022
L77.9709 144.711
L78.8882 100.177
L79.8054 97.3096
L80.7227 194.83
L81.6399 171.903
L82.5572 132.726
L84.3917 197.514
L85.309 142.863
L86.2262 168.911
L87.1435 172.556
L88.0608 194.9
L88.978 161.3
L89.8953 143.907
L90.8125 136.563
L91.7298 201.659
L92.6471 129.363
L93.5643 102.88
L94.4816 104.17
L95.3988 121.081
L96.3161 208.378
L97.2334 142.304
L98.1506 112.647
L99.0679 126.19
L99.9851 134.799
L100.902 136.894
L101.82 79.0037
L102.737 87.1046
L103.654 155.248
L104.571 170.084
L105.489 121.89
L106.406 110.51
L107.323 174.175
L108.24 178.595
L109.158 119.582
L110.075 106.528
L111.91 214.474
L112.827 147.189
L113.744 181.614
L114.661 183.885
L115.579 158.102
L116.496 118.008
L117.413 169.088
L118.33 123.615
L119.248 115.42
L120.165 140.87
L121.082 82.0199
L121.999 110.983
L122.917 133.668
L123.834 174.813
L124.751 159.303
L125.668 127.932
L126.586 116.863
L127.503 125.518
L128.42 130.385
L129.337 118.395
L130.255 110.874
L131.172 172.045
L132.089 202.034
L133.007 192.965
L133.924 115.231
L134.841 110.826
L135.758 99.7796
L136.676 111.265
L137.593 172.756
L138.51 175.144
L139.427 160.647
L140.345 165.523
L141.262 159.523
L142.179 135.923
L143.096 143.506
L144.014 76.6119
L144.931 131.56
L145.848 128.822
L146.765 74.0458
L147.683 104.914
L148.6 107.823
L149.517 183.852
L150.434 158.466
L151.352 110.202
L152.269 112.717
L153.186 106.669
L154.104 109.566
L155.021 119.449
L155.938 146.173
L156.855 208.025
L157.773 145.984
L158.69 124.497
L159.607 145.805
L160.524 231.704
L161.442 167.859
L162.359 153.689
L163.276 117.966
L164.193 173.802
L165.111 172.682
L166.028 184.225
L166.945 168.078
L167.862 136.315
L168.78 180.574
L169.697 173.069
L170.614 211.909
L171.531 165.095
L172.449 211.737
L173.366 170.281
L174.283 195.044
L175.2 154.531
L176.118 123.313
L177.035 171.724
L177.952 168.071
L179.787 114.859
L180.704 123.329
L181.621 129.826
L182.539 156.41
L183.456 130.216
L184.373 125.869
L185.29 112.394
L186.208 122.941
L187.125 176.454
L188.959 133.299
L189.877 128.466
L190.794 154.089
L191.711 162.982
L192.628 138.107
L193.546 127.832
L194.463 132.863
L195.38 163.172
L196.297 155.778
L197.215 134.837
L198.132 139.066
L199.049 155.621
L199.967 132.932
L200.884 132.154
L201.801 128.643
L202.718 127.132
L203.636 130.575
L204.553 135.76
L205.47 139.179
L206.387 144.365
L207.305 142.735
L208.222 107.003
L209.139 117.413
L210.056 130.059
L210.974 137.008
L211.891 137.703
L212.808 135.387
L213.725 124.664
L214.643 124.67
L215.56 126.781
L216.477 137.953
L217.394 129.493
L218.312 133.299
L219.229 140.253
L220.146 177.058
L221.981 154.289
L222.898 145.925
L223.815 149.744
L224.733 155.513
L226.567 129.903
L227.484 132.034
L229.319 141.814
L230.236 155.149
L231.153 141.829
L232.071 143.728
L232.988 158.237
L233.905 169.759
L234.822 189.948
L235.74 169.69
L236.657 145.049
L237.574 153.812
L238.491 141.012
L239.409 140.259
L240.326 143.982
L241.243 140.415
L242.16 139.146
L243.078 130.257
L243.995 132.437
L244.912 133.756
L245.83 136.601
L246.747 131.319
L247.664 132.697
L248.581 153.932
L249.499 126.779
L250.416 145.364
L251.333 189.97
L252.25 147.596
L253.168 169.819
L254.085 153.251
L255.002 144.004
L255.919 132.078
L256.837 140.91
L257.754 133.871
L258.671 114.38
L259.588 115.6
L260.506 177.765
L261.423 214.265
L262.34 160.46
L263.257 128.065
L264.175 127.627
L265.092 131.014
L266.009 145.265
L266.927 136.459
L267.844 135.972
L268.761 141.426
L269.678 141.813
L270.596 153.25
L271.513 155.959
L272.43 141.729
L273.347 150.606
L274.265 132.576
L275.182 122.845
L276.099 137.718
L277.016 133.905
L277.934 134.897
L278.851 133.366
L279.768 145.385
L280.685 134.307
L281.603 140.241
L282.52 141.935
L283.437 181.17
L284.354 225.831
L285.272 217.202
L287.106 161.295
L288.024 189.35
L288.941 170.903
L289.858 173.127
L290.775 181.255
L291.693 140.076
L292.61 137.192
L293.527 116.457
L294.444 138.054
L295.362 153.42
L296.279 157.545
L297.196 123.224
L298.113 109.07
L299.031 123.721
L299.948 124.05
L300.865 127.807
L301.782 178.193
M304.534 186.643
L305.451 148.536
L306.369 111.175
L308.203 157.302
L309.12 205.263
L310.038 165.054
L310.955 171.785
L311.872 182.701
L312.79 161.757
L313.707 166.559
L314.624 174.026
M317.376 162.866
L318.293 223.431
L319.21 192.789
L320.128 170.343
L321.045 177.853
L321.962 211.242
M323.797 164.051
L324.714 152.551
L325.631 155.913
L326.548 225.16
M328.383 210.381
L329.3 237.672
M331.135 114.149
L332.052 166.8
L332.969 182.505
L333.887 234.267
L334.804 213.898
L335.721 156.156
L336.638 194.689
M340.307 243.533
L341.225 219.465
L342.142 233.21
L343.059 229.747
L343.976 192.86
L344.894 199.203
L345.811 197.645
L346.728 214.143
L347.645 216.327
L348.563 205.353
M351.314 158.914
L352.232 139.182
L353.149 205.905
L354.066 227.875
L354.984 192.493
L355.901 176.698
L356.818 194.109
L357.735 222.277
L358.653 206.524
L359.57 158.299
L360.487 193.709
L361.404 179.213
L362.322 207.333
L363.239 228.323
L364.156 197.659
L365.073 161.362
L365.073 161.362" style="fill:none;stroke:#00bfbf;stroke-linecap:square;"/>
   </g>
   <g id="line2d_5">
    <path clip-path="url(#pc1a11fcac8)" d="
M31.1906 170.128
L32.1079 195.714
L33.0251 191.772
L33.9424 204.37
L34.8597 201.413
L35.7769 203.631
L36.6942 203.751
L37.6114 213.197
L38.5287 208.812
L39.446 224.397
L40.3632 182.651
L42.1977 221.266
L43.115 219.607
L44.0323 208.067
L44.9495 239.51
L45.8668 208.468
L46.784 209.852
L47.7013 199.013
L48.6186 170.74
L49.5358 217.561
L50.4531 209.693
L51.3704 163.139
L52.2876 217.379
L53.2049 233.712
L54.1221 237.353
L55.0394 212.375
L55.9567 221.156
L56.8739 218.775
L57.7912 234.501
L58.7084 175.025
L59.6257 133.164
L60.543 135.899
L61.4602 156.417
L62.3775 186.636
L63.2947 174.328
L64.212 183.287
L65.1293 181.949
L66.0465 167.085
L66.9638 185.931
L67.881 147.578
L68.7983 159.342
L69.7156 154.444
L70.6328 139.511
L71.5501 148.555
L72.4673 147.185
L73.3846 196.726
L74.3019 197.714
L75.2191 194.752
L76.1364 207.028
L77.0536 237.053
L77.9709 174.322
L78.8882 176.871
L79.8054 171.467
L80.7227 203.13
L81.6399 213.069
L82.5572 164.554
L83.4745 135.552
L84.3917 146.678
L85.309 140.504
L86.2262 183.809
L87.1435 181.466
L88.0608 172.351
L88.978 195.26
L89.8953 165.797
L90.8125 219.151
L91.7298 195.499
L92.6471 132.44
L93.5643 191.001
L94.4816 135.661
L95.3988 132.825
L96.3161 142.948
L97.2334 170.252
L98.1506 210.852
L99.0679 233.559
L99.9851 181.087
L100.902 145.786
L101.82 190.244
L102.737 152.197
L103.654 205.765
L104.571 170.148
L105.489 163.025
L106.406 185.8
L107.323 215.288
L108.24 214.2
L109.158 197.718
L110.075 185.498
L110.992 188.96
L111.91 209.292
L112.827 155.221
L113.744 159.219
L114.661 190.464
L115.579 133.527
L116.496 148.233
L117.413 182.359
L118.33 184.191
L119.248 179.006
L120.165 166.15
L121.082 196.442
L121.999 154.085
L122.917 182.759
L123.834 158.5
L124.751 179.911
L125.668 149.497
L126.586 171.885
L127.503 198.681
L128.42 182.537
L129.337 178.152
L130.255 108.877
L131.172 171.731
L132.089 167.645
L133.007 114.545
L133.924 114.448
L134.841 166.094
L135.758 187.792
L136.676 147.736
L137.593 124.883
L138.51 202.518
L139.427 164.416
L140.345 152.451
L141.262 125.481
L142.179 154.373
L143.096 148.252
L144.014 133.82
L144.931 134.051
L145.848 183.529
L146.765 187.105
L147.683 198.18
L148.6 174.921
L149.517 136.981
L150.434 143.475
L151.352 152.356
L152.269 158.781
L153.186 166.585
L154.104 201.964
L155.021 205.895
L155.938 137.817
L156.855 202.09
L157.773 145.552
L160.524 173.263
L161.442 186.626
L162.359 183.402
L163.276 179.269
L164.193 166.52
L165.111 200.777
L166.028 206.069
L166.945 209.478
L167.862 187.802
L168.78 154.76
L169.697 154.85
L170.614 189.623
L171.531 153.227
L172.449 138.738
L173.366 155.237
L174.283 187.495
L175.2 206.574
L176.118 152.091
L177.035 186.571
L177.952 172.766
L178.87 168.074
L179.787 167.698
L180.704 185.394
L181.621 143.866
L182.539 133.318
L183.456 155.321
L184.373 133.978
L185.29 202.428
L186.208 191.243
L187.125 150.573
L188.042 157.275
L188.959 155.01
L189.877 159.458
L190.794 148.096
L191.711 141.051
L192.628 137.122
L193.546 139.555
L194.463 156.409
L195.38 185.9
L197.215 147.138
L198.132 144.076
L199.049 151.398
L199.967 154.107
L200.884 157.519
L201.801 155.568
L202.718 182.094
L203.636 161.017
L204.553 131.821
L205.47 153.839
L207.305 161.304
L208.222 164.025
L209.139 177.192
L210.056 140.853
M215.56 140.634
L216.477 153.227
L217.394 143.731
L218.312 153.483
L219.229 158.756
L220.146 166.353
L221.064 153.738
L221.981 147.879
L222.898 148.426
L223.815 166.751
L224.733 175.357
L225.65 171.151
L226.567 165.331
L227.484 161.536
L228.402 178.653
L229.319 160.611
L230.236 161.441
L231.153 164.843
L232.071 160.048
L232.988 153.453
L233.905 153.883
L234.822 148.517
L235.74 153.001
L236.657 164.733
L237.574 162.623
L238.491 150.572
L239.409 150.482
L240.326 152.617
L241.243 155.185
L242.16 147.266
L243.078 157.395
L243.995 164.752
L244.912 160.655
L245.83 161.676
L246.747 155.225
L247.664 164.463
L248.581 166.618
L249.499 179.444
L250.416 169.246
L251.333 170.326
L252.25 158.421
L253.168 152.726
L254.085 148.99
L255.002 149.579
L255.919 147.689
L256.837 151.923
L257.754 147.433
L258.671 159.28
L260.506 162.676
L261.423 166.234
L262.34 161.189
L263.257 163.455
L264.175 166.411
L265.092 171.518
L266.009 170.77
L266.927 206.169
L267.844 188.327
L268.761 159.857
L269.678 152.193
L270.596 160.162
L271.513 160.745
L272.43 157.013
L273.347 159.56
L274.265 158.882
L275.182 160.095
L276.099 162.635
L277.016 164.476
L277.934 160.698
L278.851 181.177
L279.768 156.702
L280.685 164.502
L281.603 168.484
L282.52 165.207
L283.437 164.033
L284.354 207.628
L285.272 229.058
L286.189 242.834
L287.106 214.96
L288.024 173.325
L288.941 161.252
L289.858 189.467
L290.775 174.226
L291.693 153.872
L292.61 142.937
L293.527 166.821
L294.444 171.493
L295.362 202.292
L296.279 169.872
L297.196 145.649
L298.113 165.426
L299.031 157.011
L299.948 176.678
L300.865 182.118
L301.782 179.179
L302.7 190.078
L303.617 163.924
L304.534 150.189
L305.451 143.671
L306.369 138.123
L307.286 158.054
L308.203 169.887
L309.12 193.012
L310.955 125.953
L311.872 145.302
L312.79 209.064
L313.707 224.344
L314.624 204.4
L315.541 192.758
L316.459 134.349
L317.376 141.451
L318.293 137.005
L319.21 115.503
L320.128 156.976
L321.045 175.97
L321.962 144.856
L322.879 171.561
L323.797 149.364
L324.714 217.034
L325.631 220.02
L326.548 198.44
L327.466 182.084
L328.383 182.264
L329.3 195.649
L330.217 156.402
L331.135 175.881
L332.052 178.415
L332.969 142.395
L333.887 147.351
L334.804 184.064
L335.721 207.502
L336.638 197.578
L337.556 155.132
L338.473 148.026
L339.39 145.541
L340.307 183.316
L341.225 175.873
L342.142 157.863
L343.059 172.389
L343.976 172.993
L344.894 174.74
L345.811 182.222
L346.728 184.794
L347.645 192.968
L348.563 197.579
L349.48 174.956
L350.397 182.626
L351.314 194.457
L352.232 197.185
L353.149 198.685
L354.066 191.701
L354.984 162.956
L355.901 167.21
L356.818 139.349
L357.735 137.934
L359.57 163.138
L360.487 164.364
L361.404 205.123
L362.322 218.204
L363.239 197.852
L364.156 225.709
L365.073 179.344
L365.073 179.344" style="fill:none;stroke:#bf00bf;stroke-linecap:square;"/>
   </g>
   <g id="line2d_6">
    <path clip-path="url(#pc1a11fcac8)" d="
M31.1906 188.128
L32.1079 200.553
L33.0251 193.733
L33.9424 193.975
L34.8597 193.19
L35.7769 208.153
M46.784 209.855
L47.7013 237.124
L48.6186 223.815
L49.5358 222.644
L50.4531 208.323
L51.3704 235.858
L52.2876 209.894
L53.2049 214.916
L54.1221 225.669
L55.0394 193.412
L55.9567 189.479
L56.8739 181.187
L57.7912 199.731
L58.7084 183.564
L59.6257 214.747
L60.543 196.233
L61.4602 190.708
L62.3775 182.773
L63.2947 186.054
L64.212 178.32
L65.1293 168.707
L66.0465 200.626
L66.9638 226.97
L67.881 217.648
L68.7983 233.019
L69.7156 218.769
L70.6328 192.171
L71.5501 200.154
L72.4673 206.544
L73.3846 182.266
L74.3019 179.205
L75.2191 205.469
L76.1364 185.302
L77.0536 208.004
L77.9709 237.392
L78.8882 215.508
L79.8054 172.812
L80.7227 160.902
L81.6399 208.431
L82.5572 157.804
L83.4745 159.298
L84.3917 168.601
L85.309 198.959
L86.2262 218.037
L87.1435 186.391
L88.0608 195.514
L88.978 179.707
L89.8953 174.178
L90.8125 202.649
L91.7298 146.887
L92.6471 159.313
L93.5643 159.567
L94.4816 159.461
L95.3988 192.42
L96.3161 196.309
L97.2334 212.707
L98.1506 236.683
L99.0679 218.296
L99.9851 217.694
L100.902 213.875
L101.82 238.033
L102.737 175.389
L103.654 211.727
L105.489 164.319
L106.406 193.681
L107.323 181.073
L108.24 195.047
L109.158 214.291
L110.075 167.647
L110.992 208.063
L111.91 209.7
L112.827 226.842
L113.744 165.221
L114.661 150.806
L115.579 161.834
L116.496 152.004
L117.413 173.069
L118.33 164.479
L119.248 178.283
L120.165 144.465
L121.082 146.975
L121.999 167.272
L122.917 162.239
L123.834 200.218
L124.751 156.33
L125.668 180.808
L126.586 182.014
L127.503 151.093
L128.42 206.326
L129.337 186.541
L130.255 187.186
L131.172 195.823
L133.007 164.778
L133.924 163.718
L134.841 182.227
L135.758 182.654
L136.676 194.024
L137.593 239.574
L138.51 176.868
L139.427 177.825
L140.345 158.92
L141.262 206.21
L142.179 156.851
L143.096 181.674
L144.014 210.092
L144.931 208.799
L145.848 164.22
L146.765 147.091
L147.683 145.636
L148.6 150.72
L149.517 159.073
L150.434 135.758
L151.352 140.997
L152.269 143.083
L153.186 150.776
L154.104 162.237
L155.021 183.57
L155.938 169.225
L156.855 177.416
L157.773 154.479
L158.69 143.388
L159.607 161.246
L160.524 186.443
L161.442 192.221
L162.359 164.491
L163.276 166.14
L164.193 193.576
L165.111 227.659
L166.028 171.837
L166.945 154.435
L167.862 156.508
L168.78 158.861
L169.697 170.111
L170.614 161.917
L171.531 179.556
L172.449 164.302
L173.366 181.208
L174.283 220.162
L175.2 151.118
L176.118 176.537
L177.035 173.157
L177.952 193.574
L178.87 163.769
L179.787 149.78
L180.704 168.833
L181.621 166.85
L182.539 146.147
L183.456 155.557
L184.373 158.932
L185.29 161.194
L186.208 162.821
L187.125 148.654
L188.042 153.486
L188.959 162.577
L189.877 163.998
L190.794 161.564
L191.711 164.557
L192.628 163.22
L193.546 163.379
L194.463 157.307
L195.38 157.192
L196.297 170.532
L197.215 164.769
L198.132 178.92
L199.049 171.748
L199.967 165.856
L200.884 161.844
L201.801 174.109
L202.718 175.705
L203.636 174.702
L204.553 185.262
L205.47 183.185
L206.387 180.014
L207.305 182.554
L208.222 182.666
L209.139 193.718
L210.056 198.663
L210.974 184
L211.891 188.142
L212.808 173.726
L213.725 173.297
L214.643 174.242
L215.56 173.631
L216.477 175.024
L217.394 176.633
L218.312 178.746
L219.229 169.136
L220.146 176.516
L221.064 174.68
L221.981 181.077
L222.898 177.151
L223.815 176.252
L224.733 173.167
L225.65 171.456
L226.567 170.951
L227.484 168.055
M232.988 188.807
L233.905 179.292
L234.822 189.238
L235.74 175.439
L236.657 179.489
L237.574 181.607
L238.491 176.879
L239.409 174.727
L240.326 178.697
L241.243 177.301
L242.16 176.152
L243.078 191.753
L243.995 183.392
L244.912 186.493
L245.83 177.89
L246.747 173.595
L247.664 161.455
L248.581 164.66
L249.499 181.173
L250.416 187.247
L251.333 173.746
L252.25 178.394
L253.168 172.841
L254.085 189.842
L255.002 177.556
L255.919 158.579
L256.837 162.815
L257.754 165.756
L258.671 172.228
L259.588 184.923
L260.506 171.333
L261.423 172.33
L262.34 183.725
L263.257 172.43
L264.175 175.08
L265.092 157.043
L266.009 164.513
L266.927 169.006
L268.761 173.647
L269.678 170.246
L270.596 171.583
L271.513 174.565
L272.43 180.807
L273.347 183.174
L274.265 187.037
L275.182 213.22
L276.099 197.031
L277.016 193.121
L277.934 188.248
L278.851 179.571
L279.768 185.222
L280.685 180.199
L281.603 180.589
L282.52 175.161
L283.437 173.849
L284.354 158.477
L285.272 157.025
L286.189 153.846
L287.106 153.834
L288.024 156.818
L288.941 154.212
L290.775 172.435
L291.693 172.954
L292.61 171.344
L293.527 196.176
L294.444 190.673
L295.362 200.365
L296.279 197.868
L297.196 182.996
L298.113 174.63
L299.031 189.124
L299.948 207.491
L300.865 180.195
L301.782 222.456
L302.7 220.473
L303.617 221.097
L304.534 230.601
L305.451 187.747
L306.369 205.43
L307.286 236.302
L308.203 202.546
L309.12 192.394
L310.038 184.032
L310.955 201.58
L311.872 194.947
L312.79 198.402
L313.707 198.864
L314.624 203.382
L315.541 199.973
L316.459 213.774
L317.376 212.906
L318.293 234.277
L319.21 199.693
L320.128 201.809
L321.045 208.694
L321.962 233.774
L322.879 233.778
L323.797 214.254
L324.714 214.099
L325.631 220.045
L326.548 218.8
L327.466 214.627
L328.383 204.642
L329.3 214.683
L330.217 198.866
L331.135 190.745
L332.052 220.661
L332.969 222.811
L333.887 205.673
L334.804 216.551
L335.721 216.987
L336.638 212.622
L337.556 221.717
L338.473 208.29
L339.39 220.835
L340.307 194.887
L341.225 218.181
M348.563 229.487
L349.48 232.875
L350.397 217.658
L351.314 211.794
L352.232 237.995
L353.149 197.378
L354.066 200.694
L354.984 192.043
L355.901 161.31
L356.818 167.12
L357.735 203.385
L358.653 228.394
L359.57 232.992
L360.487 195.096
L361.404 230.841
L362.322 227.544
L363.239 211.891
L364.156 218.586
L365.073 238.893
L365.073 238.893" style="fill:none;stroke:#bfbf00;stroke-linecap:square;"/>
   </g>
   <g id="patch_3">
    <path d="
M31.1906 21.3181
L365.991 21.3181" style="fill:none;stroke:#000000;stroke-linecap:square;stroke-linejoin:miter;"/>
   </g>
   <g id="patch_4">
    <path d="
M365.991 244.518
L365.991 21.3181" style="fill:none;stroke:#000000;stroke-linecap:square;stroke-linejoin:miter;"/>
   </g>
   <g id="patch_5">
    <path d="
M31.1906 244.518
L365.991 244.518" style="fill:none;stroke:#000000;stroke-linecap:square;stroke-linejoin:miter;"/>
   </g>
   <g id="patch_6">
    <path d="
M31.1906 244.518
L31.1906 21.3181" style="fill:none;stroke:#000000;stroke-linecap:square;stroke-linejoin:miter;"/>
   </g>
   <g id="matplotlib.axis_1">
    <g id="xtick_1">
     <g id="line2d_7">
      <defs>
       <path d="
M0 0
L0 -4" id="m93b0483c22" style="stroke:#000000;stroke-width:0.5;"/>
      </defs>
      <g>
       <use style="stroke:#000000;stroke-width:0.5;" x="31.190625" xlink:href="#m93b0483c22" y="244.518125"/>
      </g>
     </g>
     <g id="line2d_8">
      <defs>
       <path d="
M0 0
L0 4" id="m741efc42ff" style="stroke:#000000;stroke-width:0.5;"/>
      </defs>
      <g>
       <use style="stroke:#000000;stroke-width:0.5;" x="31.190625" xlink:href="#m741efc42ff" y="21.318125"/>
      </g>
     </g>
     <g id="text_1">
      <!-- 0 -->
      <defs>
       <path d="
M31.7812 66.4062
Q24.1719 66.4062 20.3281 58.9062
Q16.5 51.4219 16.5 36.375
Q16.5 21.3906 20.3281 13.8906
Q24.1719 6.39062 31.7812 6.39062
Q39.4531 6.39062 43.2812 13.8906
Q47.125 21.3906 47.125 36.375
Q47.125 51.4219 43.2812 58.9062
Q39.4531 66.4062 31.7812 66.4062
M31.7812 74.2188
Q44.0469 74.2188 50.5156 64.5156
Q56.9844 54.8281 56.9844 36.375
Q56.9844 17.9688 50.5156 8.26562
Q44.0469 -1.42188 31.7812 -1.42188
Q19.5312 -1.42188 13.0625 8.26562
Q6.59375 17.9688 6.59375 36.375
Q6.59375 54.8281 13.0625 64.5156
Q19.5312 74.2188 31.7812 74.2188" id="BitstreamVeraSans-Roman-30"/>
      </defs>
      <g transform="translate(28.67109375 256.1165625)scale(0.1 -0.1)">
       <use xlink:href="#BitstreamVeraSans-Roman-30"/>
      </g>
     </g>
    </g>
    <g id="xtick_2">
     <g id="line2d_9">
      <g>
       <use style="stroke:#000000;stroke-width:0.5;" x="77.0536386986" xlink:href="#m93b0483c22" y="244.518125"/>
      </g>
     </g>
     <g id="line2d_10">
      <g>
       <use style="stroke:#000000;stroke-width:0.5;" x="77.0536386986" xlink:href="#m741efc42ff" y="21.318125"/>
      </g>
     </g>
     <g id="text_2">
      <!-- 50 -->
      <defs>
       <path d="
M10.7969 72.9062
L49.5156 72.9062
L49.5156 64.5938
L19.8281 64.5938
L19.8281 46.7344
Q21.9688 47.4688 24.1094 47.8281
Q26.2656 48.1875 28.4219 48.1875
Q40.625 48.1875 47.75 41.5
Q54.8906 34.8125 54.8906 23.3906
Q54.8906 11.625 47.5625 5.09375
Q40.2344 -1.42188 26.9062 -1.42188
Q22.3125 -1.42188 17.5469 -0.640625
Q12.7969 0.140625 7.71875 1.70312
L7.71875 11.625
Q12.1094 9.23438 16.7969 8.0625
Q21.4844 6.89062 26.7031 6.89062
Q35.1562 6.89062 40.0781 11.3281
Q45.0156 15.7656 45.0156 23.3906
Q45.0156 31 40.0781 35.4375
Q35.1562 39.8906 26.7031 39.8906
Q22.75 39.8906 18.8125 39.0156
Q14.8906 38.1406 10.7969 36.2812
z
" id="BitstreamVeraSans-Roman-35"/>
      </defs>
      <g transform="translate(71.4091074486 256.1165625)scale(0.1 -0.1)">
       <use xlink:href="#BitstreamVeraSans-Roman-35"/>
       <use x="63.623046875" xlink:href="#BitstreamVeraSans-Roman-30"/>
      </g>
     </g>
    </g>
    <g id="xtick_3">
     <g id="line2d_11">
      <g>
       <use style="stroke:#000000;stroke-width:0.5;" x="122.916652397" xlink:href="#m93b0483c22" y="244.518125"/>
      </g>
     </g>
     <g id="line2d_12">
      <g>
       <use style="stroke:#000000;stroke-width:0.5;" x="122.916652397" xlink:href="#m741efc42ff" y="21.318125"/>
      </g>
     </g>
     <g id="text_3">
      <!-- 100 -->
      <defs>
       <path d="
M12.4062 8.29688
L28.5156 8.29688
L28.5156 63.9219
L10.9844 60.4062
L10.9844 69.3906
L28.4219 72.9062
L38.2812 72.9062
L38.2812 8.29688
L54.3906 8.29688
L54.3906 0
L12.4062 0
z
" id="BitstreamVeraSans-Roman-31"/>
      </defs>
      <g transform="translate(114.254152397 256.1165625)scale(0.1 -0.1)">
       <use xlink:href="#BitstreamVeraSans-Roman-31"/>
       <use x="63.623046875" xlink:href="#BitstreamVeraSans-Roman-30"/>
       <use x="127.24609375" xlink:href="#BitstreamVeraSans-Roman-30"/>
      </g>
     </g>
    </g>
    <g id="xtick_4">
     <g id="line2d_13">
      <g>
       <use style="stroke:#000000;stroke-width:0.5;" x="168.779666096" xlink:href="#m93b0483c22" y="244.518125"/>
      </g>
     </g>
     <g id="line2d_14">
      <g>
       <use style="stroke:#000000;stroke-width:0.5;" x="168.779666096" xlink:href="#m741efc42ff" y="21.318125"/>
      </g>
     </g>
     <g id="text_4">
      <!-- 150 -->
      <g transform="translate(160.117166096 256.1165625)scale(0.1 -0.1)">
       <use xlink:href="#BitstreamVeraSans-Roman-31"/>
       <use x="63.623046875" xlink:href="#BitstreamVeraSans-Roman-35"/>
       <use x="127.24609375" xlink:href="#BitstreamVeraSans-Roman-30"/>
      </g>
     </g>
    </g>
    <g id="xtick_5">
     <g id="line2d_15">
      <g>
       <use style="stroke:#000000;stroke-width:0.5;" x="214.642679795" xlink:href="#m93b0483c22" y="244.518125"/>
      </g>
     </g>
     <g id="line2d_16">
      <g>
       <use style="stroke:#000000;stroke-width:0.5;" x="214.642679795" xlink:href="#m741efc42ff" y="21.318125"/>
      </g>
     </g>
     <g id="text_5">
      <!-- 200 -->
      <defs>
       <path d="
M19.1875 8.29688
L53.6094 8.29688
L53.6094 0
L7.32812 0
L7.32812 8.29688
Q12.9375 14.1094 22.625 23.8906
Q32.3281 33.6875 34.8125 36.5312
Q39.5469 41.8438 41.4219 45.5312
Q43.3125 49.2188 43.3125 52.7812
Q43.3125 58.5938 39.2344 62.25
Q35.1562 65.9219 28.6094 65.9219
Q23.9688 65.9219 18.8125 64.3125
Q13.6719 62.7031 7.8125 59.4219
L7.8125 69.3906
Q13.7656 71.7812 18.9375 73
Q24.125 74.2188 28.4219 74.2188
Q39.75 74.2188 46.4844 68.5469
Q53.2188 62.8906 53.2188 53.4219
Q53.2188 48.9219 51.5312 44.8906
Q49.8594 40.875 45.4062 35.4062
Q44.1875 33.9844 37.6406 27.2188
Q31.1094 20.4531 19.1875 8.29688" id="BitstreamVeraSans-Roman-32"/>
      </defs>
      <g transform="translate(205.797367295 256.1165625)scale(0.1 -0.1)">
       <use xlink:href="#BitstreamVeraSans-Roman-32"/>
       <use x="63.623046875" xlink:href="#BitstreamVeraSans-Roman-30"/>
       <use x="127.24609375" xlink:href="#BitstreamVeraSans-Roman-30"/>
      </g>
     </g>
    </g>
    <g id="xtick_6">
     <g id="line2d_17">
      <g>
       <use style="stroke:#000000;stroke-width:0.5;" x="260.505693493" xlink:href="#m93b0483c22" y="244.518125"/>
      </g>
     </g>
     <g id="line2d_18">
      <g>
       <use style="stroke:#000000;stroke-width:0.5;" x="260.505693493" xlink:href="#m741efc42ff" y="21.318125"/>
      </g>
     </g>
     <g id="text_6">
      <!-- 250 -->
      <g transform="translate(251.660380993 256.1165625)scale(0.1 -0.1)">
       <use xlink:href="#BitstreamVeraSans-Roman-32"/>
       <use x="63.623046875" xlink:href="#BitstreamVeraSans-Roman-35"/>
       <use x="127.24609375" xlink:href="#BitstreamVeraSans-Roman-30"/>
      </g>
     </g>
    </g>
    <g id="xtick_7">
     <g id="line2d_19">
      <g>
       <use style="stroke:#000000;stroke-width:0.5;" x="306.368707192" xlink:href="#m93b0483c22" y="244.518125"/>
      </g>
     </g>
     <g id="line2d_20">
      <g>
       <use style="stroke:#000000;stroke-width:0.5;" x="306.368707192" xlink:href="#m741efc42ff" y="21.318125"/>
      </g>
     </g>
     <g id="text_7">
      <!-- 300 -->
      <defs>
       <path d="
M40.5781 39.3125
Q47.6562 37.7969 51.625 33
Q55.6094 28.2188 55.6094 21.1875
Q55.6094 10.4062 48.1875 4.48438
Q40.7656 -1.42188 27.0938 -1.42188
Q22.5156 -1.42188 17.6562 -0.515625
Q12.7969 0.390625 7.625 2.20312
L7.625 11.7188
Q11.7188 9.32812 16.5938 8.10938
Q21.4844 6.89062 26.8125 6.89062
Q36.0781 6.89062 40.9375 10.5469
Q45.7969 14.2031 45.7969 21.1875
Q45.7969 27.6406 41.2812 31.2656
Q36.7656 34.9062 28.7188 34.9062
L20.2188 34.9062
L20.2188 43.0156
L29.1094 43.0156
Q36.375 43.0156 40.2344 45.9219
Q44.0938 48.8281 44.0938 54.2969
Q44.0938 59.9062 40.1094 62.9062
Q36.1406 65.9219 28.7188 65.9219
Q24.6562 65.9219 20.0156 65.0312
Q15.375 64.1562 9.8125 62.3125
L9.8125 71.0938
Q15.4375 72.6562 20.3438 73.4375
Q25.25 74.2188 29.5938 74.2188
Q40.8281 74.2188 47.3594 69.1094
Q53.9062 64.0156 53.9062 55.3281
Q53.9062 49.2656 50.4375 45.0938
Q46.9688 40.9219 40.5781 39.3125" id="BitstreamVeraSans-Roman-33"/>
      </defs>
      <g transform="translate(297.538238442 256.1165625)scale(0.1 -0.1)">
       <use xlink:href="#BitstreamVeraSans-Roman-33"/>
       <use x="63.623046875" xlink:href="#BitstreamVeraSans-Roman-30"/>
       <use x="127.24609375" xlink:href="#BitstreamVeraSans-Roman-30"/>
      </g>
     </g>
    </g>
    <g id="xtick_8">
     <g id="line2d_21">
      <g>
       <use style="stroke:#000000;stroke-width:0.5;" x="352.23172089" xlink:href="#m93b0483c22" y="244.518125"/>
      </g>
     </g>
     <g id="line2d_22">
      <g>
       <use style="stroke:#000000;stroke-width:0.5;" x="352.23172089" xlink:href="#m741efc42ff" y="21.318125"/>
      </g>
     </g>
     <g id="text_8">
      <!-- 350 -->
      <g transform="translate(343.40125214 256.1165625)scale(0.1 -0.1)">
       <use xlink:href="#BitstreamVeraSans-Roman-33"/>
       <use x="63.623046875" xlink:href="#BitstreamVeraSans-Roman-35"/>
       <use x="127.24609375" xlink:href="#BitstreamVeraSans-Roman-30"/>
      </g>
     </g>
    </g>
    <g id="text_9">
     <!-- Julian day -->
     <defs>
      <path id="BitstreamVeraSans-Roman-20"/>
      <path d="
M9.8125 72.9062
L19.6719 72.9062
L19.6719 5.07812
Q19.6719 -8.10938 14.6719 -14.0625
Q9.67188 -20.0156 -1.42188 -20.0156
L-5.17188 -20.0156
L-5.17188 -11.7188
L-2.09375 -11.7188
Q4.4375 -11.7188 7.125 -8.04688
Q9.8125 -4.39062 9.8125 5.07812
z
" id="BitstreamVeraSans-Roman-4a"/>
      <path d="
M54.8906 33.0156
L54.8906 0
L45.9062 0
L45.9062 32.7188
Q45.9062 40.4844 42.875 44.3281
Q39.8438 48.1875 33.7969 48.1875
Q26.5156 48.1875 22.3125 43.5469
Q18.1094 38.9219 18.1094 30.9062
L18.1094 0
L9.07812 0
L9.07812 54.6875
L18.1094 54.6875
L18.1094 46.1875
Q21.3438 51.125 25.7031 53.5625
Q30.0781 56 35.7969 56
Q45.2188 56 50.0469 50.1719
Q54.8906 44.3438 54.8906 33.0156" id="BitstreamVeraSans-Roman-6e"/>
      <path d="
M9.42188 75.9844
L18.4062 75.9844
L18.4062 0
L9.42188 0
z
" id="BitstreamVeraSans-Roman-6c"/>
      <path d="
M9.42188 54.6875
L18.4062 54.6875
L18.4062 0
L9.42188 0
z

M9.42188 75.9844
L18.4062 75.9844
L18.4062 64.5938
L9.42188 64.5938
z
" id="BitstreamVeraSans-Roman-69"/>
      <path d="
M32.1719 -5.07812
Q28.375 -14.8438 24.75 -17.8125
Q21.1406 -20.7969 15.0938 -20.7969
L7.90625 -20.7969
L7.90625 -13.2812
L13.1875 -13.2812
Q16.8906 -13.2812 18.9375 -11.5156
Q21 -9.76562 23.4844 -3.21875
L25.0938 0.875
L2.98438 54.6875
L12.5 54.6875
L29.5938 11.9219
L46.6875 54.6875
L56.2031 54.6875
z
" id="BitstreamVeraSans-Roman-79"/>
      <path d="
M45.4062 46.3906
L45.4062 75.9844
L54.3906 75.9844
L54.3906 0
L45.4062 0
L45.4062 8.20312
Q42.5781 3.32812 38.25 0.953125
Q33.9375 -1.42188 27.875 -1.42188
Q17.9688 -1.42188 11.7344 6.48438
Q5.51562 14.4062 5.51562 27.2969
Q5.51562 40.1875 11.7344 48.0938
Q17.9688 56 27.875 56
Q33.9375 56 38.25 53.625
Q42.5781 51.2656 45.4062 46.3906
M14.7969 27.2969
Q14.7969 17.3906 18.875 11.75
Q22.9531 6.10938 30.0781 6.10938
Q37.2031 6.10938 41.2969 11.75
Q45.4062 17.3906 45.4062 27.2969
Q45.4062 37.2031 41.2969 42.8438
Q37.2031 48.4844 30.0781 48.4844
Q22.9531 48.4844 18.875 42.8438
Q14.7969 37.2031 14.7969 27.2969" id="BitstreamVeraSans-Roman-64"/>
      <path d="
M8.5 21.5781
L8.5 54.6875
L17.4844 54.6875
L17.4844 21.9219
Q17.4844 14.1562 20.5 10.2656
Q23.5312 6.39062 29.5938 6.39062
Q36.8594 6.39062 41.0781 11.0312
Q45.3125 15.6719 45.3125 23.6875
L45.3125 54.6875
L54.2969 54.6875
L54.2969 0
L45.3125 0
L45.3125 8.40625
Q42.0469 3.42188 37.7188 1
Q33.4062 -1.42188 27.6875 -1.42188
Q18.2656 -1.42188 13.375 4.4375
Q8.5 10.2969 8.5 21.5781" id="BitstreamVeraSans-Roman-75"/>
      <path d="
M34.2812 27.4844
Q23.3906 27.4844 19.1875 25
Q14.9844 22.5156 14.9844 16.5
Q14.9844 11.7188 18.1406 8.90625
Q21.2969 6.10938 26.7031 6.10938
Q34.1875 6.10938 38.7031 11.4062
Q43.2188 16.7031 43.2188 25.4844
L43.2188 27.4844
z

M52.2031 31.2031
L52.2031 0
L43.2188 0
L43.2188 8.29688
Q40.1406 3.32812 35.5469 0.953125
Q30.9531 -1.42188 24.3125 -1.42188
Q15.9219 -1.42188 10.9531 3.29688
Q6 8.01562 6 15.9219
Q6 25.1406 12.1719 29.8281
Q18.3594 34.5156 30.6094 34.5156
L43.2188 34.5156
L43.2188 35.4062
Q43.2188 41.6094 39.1406 45
Q35.0625 48.3906 27.6875 48.3906
Q23 48.3906 18.5469 47.2656
Q14.1094 46.1406 10.0156 43.8906
L10.0156 52.2031
Q14.9375 54.1094 19.5781 55.0469
Q24.2188 56 28.6094 56
Q40.4844 56 46.3438 49.8438
Q52.2031 43.7031 52.2031 31.2031" id="BitstreamVeraSans-Roman-61"/>
     </defs>
     <g transform="translate(174.03984375 270.7946875)scale(0.1 -0.1)">
      <use xlink:href="#BitstreamVeraSans-Roman-4a"/>
      <use x="29.4921875" xlink:href="#BitstreamVeraSans-Roman-75"/>
      <use x="92.87109375" xlink:href="#BitstreamVeraSans-Roman-6c"/>
      <use x="120.654296875" xlink:href="#BitstreamVeraSans-Roman-69"/>
      <use x="148.4375" xlink:href="#BitstreamVeraSans-Roman-61"/>
      <use x="209.716796875" xlink:href="#BitstreamVeraSans-Roman-6e"/>
      <use x="273.095703125" xlink:href="#BitstreamVeraSans-Roman-20"/>
      <use x="304.8828125" xlink:href="#BitstreamVeraSans-Roman-64"/>
      <use x="368.359375" xlink:href="#BitstreamVeraSans-Roman-61"/>
      <use x="429.638671875" xlink:href="#BitstreamVeraSans-Roman-79"/>
     </g>
    </g>
   </g>
   <g id="matplotlib.axis_2">
    <g id="ytick_1">
     <g id="line2d_23">
      <defs>
       <path d="
M0 0
L4 0" id="m728421d6d4" style="stroke:#000000;stroke-width:0.5;"/>
      </defs>
      <g>
       <use style="stroke:#000000;stroke-width:0.5;" x="31.190625" xlink:href="#m728421d6d4" y="244.518125"/>
      </g>
     </g>
     <g id="line2d_24">
      <defs>
       <path d="
M0 0
L-4 0" id="mcb0005524f" style="stroke:#000000;stroke-width:0.5;"/>
      </defs>
      <g>
       <use style="stroke:#000000;stroke-width:0.5;" x="365.990625" xlink:href="#mcb0005524f" y="244.518125"/>
      </g>
     </g>
     <g id="text_10">
      <!-- 0 -->
      <g transform="translate(22.1515625 247.2775)scale(0.1 -0.1)">
       <use xlink:href="#BitstreamVeraSans-Roman-30"/>
      </g>
     </g>
    </g>
    <g id="ytick_2">
     <g id="line2d_25">
      <g>
       <use style="stroke:#000000;stroke-width:0.5;" x="31.190625" xlink:href="#m728421d6d4" y="212.632410714"/>
      </g>
     </g>
     <g id="line2d_26">
      <g>
       <use style="stroke:#000000;stroke-width:0.5;" x="365.990625" xlink:href="#mcb0005524f" y="212.632410714"/>
      </g>
     </g>
     <g id="text_11">
      <!-- 1 -->
      <g transform="translate(22.85 215.391785714)scale(0.1 -0.1)">
       <use xlink:href="#BitstreamVeraSans-Roman-31"/>
      </g>
     </g>
    </g>
    <g id="ytick_3">
     <g id="line2d_27">
      <g>
       <use style="stroke:#000000;stroke-width:0.5;" x="31.190625" xlink:href="#m728421d6d4" y="180.746696429"/>
      </g>
     </g>
     <g id="line2d_28">
      <g>
       <use style="stroke:#000000;stroke-width:0.5;" x="365.990625" xlink:href="#mcb0005524f" y="180.746696429"/>
      </g>
     </g>
     <g id="text_12">
      <!-- 2 -->
      <g transform="translate(22.5625 183.506071429)scale(0.1 -0.1)">
       <use xlink:href="#BitstreamVeraSans-Roman-32"/>
      </g>
     </g>
    </g>
    <g id="ytick_4">
     <g id="line2d_29">
      <g>
       <use style="stroke:#000000;stroke-width:0.5;" x="31.190625" xlink:href="#m728421d6d4" y="148.860982143"/>
      </g>
     </g>
     <g id="line2d_30">
      <g>
       <use style="stroke:#000000;stroke-width:0.5;" x="365.990625" xlink:href="#mcb0005524f" y="148.860982143"/>
      </g>
     </g>
     <g id="text_13">
      <!-- 3 -->
      <g transform="translate(22.3921875 151.620357143)scale(0.1 -0.1)">
       <use xlink:href="#BitstreamVeraSans-Roman-33"/>
      </g>
     </g>
    </g>
    <g id="ytick_5">
     <g id="line2d_31">
      <g>
       <use style="stroke:#000000;stroke-width:0.5;" x="31.190625" xlink:href="#m728421d6d4" y="116.975267857"/>
      </g>
     </g>
     <g id="line2d_32">
      <g>
       <use style="stroke:#000000;stroke-width:0.5;" x="365.990625" xlink:href="#mcb0005524f" y="116.975267857"/>
      </g>
     </g>
     <g id="text_14">
      <!-- 4 -->
      <defs>
       <path d="
M37.7969 64.3125
L12.8906 25.3906
L37.7969 25.3906
z

M35.2031 72.9062
L47.6094 72.9062
L47.6094 25.3906
L58.0156 25.3906
L58.0156 17.1875
L47.6094 17.1875
L47.6094 0
L37.7969 0
L37.7969 17.1875
L4.89062 17.1875
L4.89062 26.7031
z
" id="BitstreamVeraSans-Roman-34"/>
      </defs>
      <g transform="translate(21.878125 119.734642857)scale(0.1 -0.1)">
       <use xlink:href="#BitstreamVeraSans-Roman-34"/>
      </g>
     </g>
    </g>
    <g id="ytick_6">
     <g id="line2d_33">
      <g>
       <use style="stroke:#000000;stroke-width:0.5;" x="31.190625" xlink:href="#m728421d6d4" y="85.0895535714"/>
      </g>
     </g>
     <g id="line2d_34">
      <g>
       <use style="stroke:#000000;stroke-width:0.5;" x="365.990625" xlink:href="#mcb0005524f" y="85.0895535714"/>
      </g>
     </g>
     <g id="text_15">
      <!-- 5 -->
      <g transform="translate(22.4734375 87.8489285714)scale(0.1 -0.1)">
       <use xlink:href="#BitstreamVeraSans-Roman-35"/>
      </g>
     </g>
    </g>
    <g id="ytick_7">
     <g id="line2d_35">
      <g>
       <use style="stroke:#000000;stroke-width:0.5;" x="31.190625" xlink:href="#m728421d6d4" y="53.2038392857"/>
      </g>
     </g>
     <g id="line2d_36">
      <g>
       <use style="stroke:#000000;stroke-width:0.5;" x="365.990625" xlink:href="#mcb0005524f" y="53.2038392857"/>
      </g>
     </g>
     <g id="text_16">
      <!-- 6 -->
      <defs>
       <path d="
M33.0156 40.375
Q26.375 40.375 22.4844 35.8281
Q18.6094 31.2969 18.6094 23.3906
Q18.6094 15.5312 22.4844 10.9531
Q26.375 6.39062 33.0156 6.39062
Q39.6562 6.39062 43.5312 10.9531
Q47.4062 15.5312 47.4062 23.3906
Q47.4062 31.2969 43.5312 35.8281
Q39.6562 40.375 33.0156 40.375
M52.5938 71.2969
L52.5938 62.3125
Q48.875 64.0625 45.0938 64.9844
Q41.3125 65.9219 37.5938 65.9219
Q27.8281 65.9219 22.6719 59.3281
Q17.5312 52.7344 16.7969 39.4062
Q19.6719 43.6562 24.0156 45.9219
Q28.375 48.1875 33.5938 48.1875
Q44.5781 48.1875 50.9531 41.5156
Q57.3281 34.8594 57.3281 23.3906
Q57.3281 12.1562 50.6875 5.35938
Q44.0469 -1.42188 33.0156 -1.42188
Q20.3594 -1.42188 13.6719 8.26562
Q6.98438 17.9688 6.98438 36.375
Q6.98438 53.6562 15.1875 63.9375
Q23.3906 74.2188 37.2031 74.2188
Q40.9219 74.2188 44.7031 73.4844
Q48.4844 72.75 52.5938 71.2969" id="BitstreamVeraSans-Roman-36"/>
      </defs>
      <g transform="translate(22.15625 55.9632142857)scale(0.1 -0.1)">
       <use xlink:href="#BitstreamVeraSans-Roman-36"/>
      </g>
     </g>
    </g>
    <g id="ytick_8">
     <g id="line2d_37">
      <g>
       <use style="stroke:#000000;stroke-width:0.5;" x="31.190625" xlink:href="#m728421d6d4" y="21.318125"/>
      </g>
     </g>
     <g id="line2d_38">
      <g>
       <use style="stroke:#000000;stroke-width:0.5;" x="365.990625" xlink:href="#mcb0005524f" y="21.318125"/>
      </g>
     </g>
     <g id="text_17">
      <!-- 7 -->
      <defs>
       <path d="
M8.20312 72.9062
L55.0781 72.9062
L55.0781 68.7031
L28.6094 0
L18.3125 0
L43.2188 64.5938
L8.20312 64.5938
z
" id="BitstreamVeraSans-Roman-37"/>
      </defs>
      <g transform="translate(22.503125 24.0775)scale(0.1 -0.1)">
       <use xlink:href="#BitstreamVeraSans-Roman-37"/>
      </g>
     </g>
    </g>
    <g id="text_18">
     <!-- PET (mm/day) -->
     <defs>
      <path d="
M52 44.1875
Q55.375 50.25 60.0625 53.125
Q64.75 56 71.0938 56
Q79.6406 56 84.2812 50.0156
Q88.9219 44.0469 88.9219 33.0156
L88.9219 0
L79.8906 0
L79.8906 32.7188
Q79.8906 40.5781 77.0938 44.375
Q74.3125 48.1875 68.6094 48.1875
Q61.625 48.1875 57.5625 43.5469
Q53.5156 38.9219 53.5156 30.9062
L53.5156 0
L44.4844 0
L44.4844 32.7188
Q44.4844 40.625 41.7031 44.4062
Q38.9219 48.1875 33.1094 48.1875
Q26.2188 48.1875 22.1562 43.5312
Q18.1094 38.875 18.1094 30.9062
L18.1094 0
L9.07812 0
L9.07812 54.6875
L18.1094 54.6875
L18.1094 46.1875
Q21.1875 51.2188 25.4844 53.6094
Q29.7812 56 35.6875 56
Q41.6562 56 45.8281 52.9688
Q50 49.9531 52 44.1875" id="BitstreamVeraSans-Roman-6d"/>
      <path d="
M8.01562 75.875
L15.8281 75.875
Q23.1406 64.3594 26.7812 53.3125
Q30.4219 42.2812 30.4219 31.3906
Q30.4219 20.4531 26.7812 9.375
Q23.1406 -1.70312 15.8281 -13.1875
L8.01562 -13.1875
Q14.5 -2 17.7031 9.0625
Q20.9062 20.125 20.9062 31.3906
Q20.9062 42.6719 17.7031 53.6562
Q14.5 64.6562 8.01562 75.875" id="BitstreamVeraSans-Roman-29"/>
      <path d="
M31 75.875
Q24.4688 64.6562 21.2812 53.6562
Q18.1094 42.6719 18.1094 31.3906
Q18.1094 20.125 21.3125 9.0625
Q24.5156 -2 31 -13.1875
L23.1875 -13.1875
Q15.875 -1.70312 12.2344 9.375
Q8.59375 20.4531 8.59375 31.3906
Q8.59375 42.2812 12.2031 53.3125
Q15.8281 64.3594 23.1875 75.875
z
" id="BitstreamVeraSans-Roman-28"/>
      <path d="
M19.6719 64.7969
L19.6719 37.4062
L32.0781 37.4062
Q38.9688 37.4062 42.7188 40.9688
Q46.4844 44.5312 46.4844 51.125
Q46.4844 57.6719 42.7188 61.2344
Q38.9688 64.7969 32.0781 64.7969
z

M9.8125 72.9062
L32.0781 72.9062
Q44.3438 72.9062 50.6094 67.3594
Q56.8906 61.8125 56.8906 51.125
Q56.8906 40.3281 50.6094 34.8125
Q44.3438 29.2969 32.0781 29.2969
L19.6719 29.2969
L19.6719 0
L9.8125 0
z
" id="BitstreamVeraSans-Roman-50"/>
      <path d="
M9.8125 72.9062
L55.9062 72.9062
L55.9062 64.5938
L19.6719 64.5938
L19.6719 43.0156
L54.3906 43.0156
L54.3906 34.7188
L19.6719 34.7188
L19.6719 8.29688
L56.7812 8.29688
L56.7812 0
L9.8125 0
z
" id="BitstreamVeraSans-Roman-45"/>
      <path d="
M-0.296875 72.9062
L61.375 72.9062
L61.375 64.5938
L35.5 64.5938
L35.5 0
L25.5938 0
L25.5938 64.5938
L-0.296875 64.5938
z
" id="BitstreamVeraSans-Roman-54"/>
      <path d="
M25.3906 72.9062
L33.6875 72.9062
L8.29688 -9.28125
L0 -9.28125
z
" id="BitstreamVeraSans-Roman-2f"/>
     </defs>
     <g transform="translate(14.7984375 167.82984375)rotate(-90.0)scale(0.1 -0.1)">
      <use xlink:href="#BitstreamVeraSans-Roman-50"/>
      <use x="60.302734375" xlink:href="#BitstreamVeraSans-Roman-45"/>
      <use x="123.486328125" xlink:href="#BitstreamVeraSans-Roman-54"/>
      <use x="184.5703125" xlink:href="#BitstreamVeraSans-Roman-20"/>
      <use x="216.357421875" xlink:href="#BitstreamVeraSans-Roman-28"/>
      <use x="255.37109375" xlink:href="#BitstreamVeraSans-Roman-6d"/>
      <use x="352.783203125" xlink:href="#BitstreamVeraSans-Roman-6d"/>
      <use x="450.1953125" xlink:href="#BitstreamVeraSans-Roman-2f"/>
      <use x="483.88671875" xlink:href="#BitstreamVeraSans-Roman-64"/>
      <use x="547.36328125" xlink:href="#BitstreamVeraSans-Roman-61"/>
      <use x="608.642578125" xlink:href="#BitstreamVeraSans-Roman-79"/>
      <use x="667.822265625" xlink:href="#BitstreamVeraSans-Roman-29"/>
     </g>
    </g>
   </g>
   <g id="text_19">
    <!-- daily bare PET at LowerWeather -->
    <defs>
     <path d="
M9.8125 72.9062
L19.6719 72.9062
L19.6719 8.29688
L55.1719 8.29688
L55.1719 0
L9.8125 0
z
" id="BitstreamVeraSans-Roman-4c"/>
     <path d="
M30.6094 48.3906
Q23.3906 48.3906 19.1875 42.75
Q14.9844 37.1094 14.9844 27.2969
Q14.9844 17.4844 19.1562 11.8438
Q23.3438 6.20312 30.6094 6.20312
Q37.7969 6.20312 41.9844 11.8594
Q46.1875 17.5312 46.1875 27.2969
Q46.1875 37.0156 41.9844 42.7031
Q37.7969 48.3906 30.6094 48.3906
M30.6094 56
Q42.3281 56 49.0156 48.375
Q55.7188 40.7656 55.7188 27.2969
Q55.7188 13.875 49.0156 6.21875
Q42.3281 -1.42188 30.6094 -1.42188
Q18.8438 -1.42188 12.1719 6.21875
Q5.51562 13.875 5.51562 27.2969
Q5.51562 40.7656 12.1719 48.375
Q18.8438 56 30.6094 56" id="BitstreamVeraSans-Roman-6f"/>
     <path d="
M54.8906 33.0156
L54.8906 0
L45.9062 0
L45.9062 32.7188
Q45.9062 40.4844 42.875 44.3281
Q39.8438 48.1875 33.7969 48.1875
Q26.5156 48.1875 22.3125 43.5469
Q18.1094 38.9219 18.1094 30.9062
L18.1094 0
L9.07812 0
L9.07812 75.9844
L18.1094 75.9844
L18.1094 46.1875
Q21.3438 51.125 25.7031 53.5625
Q30.0781 56 35.7969 56
Q45.2188 56 50.0469 50.1719
Q54.8906 44.3438 54.8906 33.0156" id="BitstreamVeraSans-Roman-68"/>
     <path d="
M3.32812 72.9062
L13.2812 72.9062
L28.6094 11.2812
L43.8906 72.9062
L54.9844 72.9062
L70.3125 11.2812
L85.5938 72.9062
L95.6094 72.9062
L77.2969 0
L64.8906 0
L49.5156 63.2812
L33.9844 0
L21.5781 0
z
" id="BitstreamVeraSans-Roman-57"/>
     <path d="
M56.2031 29.5938
L56.2031 25.2031
L14.8906 25.2031
Q15.4844 15.9219 20.4844 11.0625
Q25.4844 6.20312 34.4219 6.20312
Q39.5938 6.20312 44.4531 7.46875
Q49.3125 8.73438 54.1094 11.2812
L54.1094 2.78125
Q49.2656 0.734375 44.1875 -0.34375
Q39.1094 -1.42188 33.8906 -1.42188
Q20.7969 -1.42188 13.1562 6.1875
Q5.51562 13.8125 5.51562 26.8125
Q5.51562 40.2344 12.7656 48.1094
Q20.0156 56 32.3281 56
Q43.3594 56 49.7812 48.8906
Q56.2031 41.7969 56.2031 29.5938
M47.2188 32.2344
Q47.125 39.5938 43.0938 43.9844
Q39.0625 48.3906 32.4219 48.3906
Q24.9062 48.3906 20.3906 44.1406
Q15.875 39.8906 15.1875 32.1719
z
" id="BitstreamVeraSans-Roman-65"/>
     <path d="
M4.20312 54.6875
L13.1875 54.6875
L24.4219 12.0156
L35.5938 54.6875
L46.1875 54.6875
L57.4219 12.0156
L68.6094 54.6875
L77.5938 54.6875
L63.2812 0
L52.6875 0
L40.9219 44.8281
L29.1094 0
L18.5 0
z
" id="BitstreamVeraSans-Roman-77"/>
     <path d="
M18.3125 70.2188
L18.3125 54.6875
L36.8125 54.6875
L36.8125 47.7031
L18.3125 47.7031
L18.3125 18.0156
Q18.3125 11.3281 20.1406 9.42188
Q21.9688 7.51562 27.5938 7.51562
L36.8125 7.51562
L36.8125 0
L27.5938 0
Q17.1875 0 13.2344 3.875
Q9.28125 7.76562 9.28125 18.0156
L9.28125 47.7031
L2.6875 47.7031
L2.6875 54.6875
L9.28125 54.6875
L9.28125 70.2188
z
" id="BitstreamVeraSans-Roman-74"/>
     <path d="
M41.1094 46.2969
Q39.5938 47.1719 37.8125 47.5781
Q36.0312 48 33.8906 48
Q26.2656 48 22.1875 43.0469
Q18.1094 38.0938 18.1094 28.8125
L18.1094 0
L9.07812 0
L9.07812 54.6875
L18.1094 54.6875
L18.1094 46.1875
Q20.9531 51.1719 25.4844 53.5781
Q30.0312 56 36.5312 56
Q37.4531 56 38.5781 55.875
Q39.7031 55.7656 41.0625 55.5156
z
" id="BitstreamVeraSans-Roman-72"/>
     <path d="
M48.6875 27.2969
Q48.6875 37.2031 44.6094 42.8438
Q40.5312 48.4844 33.4062 48.4844
Q26.2656 48.4844 22.1875 42.8438
Q18.1094 37.2031 18.1094 27.2969
Q18.1094 17.3906 22.1875 11.75
Q26.2656 6.10938 33.4062 6.10938
Q40.5312 6.10938 44.6094 11.75
Q48.6875 17.3906 48.6875 27.2969
M18.1094 46.3906
Q20.9531 51.2656 25.2656 53.625
Q29.5938 56 35.5938 56
Q45.5625 56 51.7812 48.0938
Q58.0156 40.1875 58.0156 27.2969
Q58.0156 14.4062 51.7812 6.48438
Q45.5625 -1.42188 35.5938 -1.42188
Q29.5938 -1.42188 25.2656 0.953125
Q20.9531 3.32812 18.1094 8.20312
L18.1094 0
L9.07812 0
L9.07812 75.9844
L18.1094 75.9844
z
" id="BitstreamVeraSans-Roman-62"/>
    </defs>
    <g transform="translate(102.7434375 16.318125)scale(0.12 -0.12)">
     <use xlink:href="#BitstreamVeraSans-Roman-64"/>
     <use x="63.4765625" xlink:href="#BitstreamVeraSans-Roman-61"/>
     <use x="124.755859375" xlink:href="#BitstreamVeraSans-Roman-69"/>
     <use x="152.5390625" xlink:href="#BitstreamVeraSans-Roman-6c"/>
     <use x="180.322265625" xlink:href="#BitstreamVeraSans-Roman-79"/>
     <use x="239.501953125" xlink:href="#BitstreamVeraSans-Roman-20"/>
     <use x="271.2890625" xlink:href="#BitstreamVeraSans-Roman-62"/>
     <use x="334.765625" xlink:href="#BitstreamVeraSans-Roman-61"/>
     <use x="396.044921875" xlink:href="#BitstreamVeraSans-Roman-72"/>
     <use x="434.908203125" xlink:href="#BitstreamVeraSans-Roman-65"/>
     <use x="496.431640625" xlink:href="#BitstreamVeraSans-Roman-20"/>
     <use x="528.21875" xlink:href="#BitstreamVeraSans-Roman-50"/>
     <use x="588.521484375" xlink:href="#BitstreamVeraSans-Roman-45"/>
     <use x="651.705078125" xlink:href="#BitstreamVeraSans-Roman-54"/>
     <use x="712.7890625" xlink:href="#BitstreamVeraSans-Roman-20"/>
     <use x="744.576171875" xlink:href="#BitstreamVeraSans-Roman-61"/>
     <use x="805.85546875" xlink:href="#BitstreamVeraSans-Roman-74"/>
     <use x="845.064453125" xlink:href="#BitstreamVeraSans-Roman-20"/>
     <use x="876.8515625" xlink:href="#BitstreamVeraSans-Roman-4c"/>
     <use x="930.814453125" xlink:href="#BitstreamVeraSans-Roman-6f"/>
     <use x="991.99609375" xlink:href="#BitstreamVeraSans-Roman-77"/>
     <use x="1073.78320312" xlink:href="#BitstreamVeraSans-Roman-65"/>
     <use x="1135.30664062" xlink:href="#BitstreamVeraSans-Roman-72"/>
     <use x="1176.41992188" xlink:href="#BitstreamVeraSans-Roman-57"/>
     <use x="1269.421875" xlink:href="#BitstreamVeraSans-Roman-65"/>
     <use x="1330.9453125" xlink:href="#BitstreamVeraSans-Roman-61"/>
     <use x="1392.22460938" xlink:href="#BitstreamVeraSans-Roman-74"/>
     <use x="1431.43359375" xlink:href="#BitstreamVeraSans-Roman-68"/>
     <use x="1494.8125" xlink:href="#BitstreamVeraSans-Roman-65"/>
     <use x="1556.3359375" xlink:href="#BitstreamVeraSans-Roman-72"/>
    </g>
   </g>
   <g id="legend_1">
    <g id="patch_7">
     <path d="
M287.927 136.601
L359.991 136.601
L359.991 27.3181
L287.927 27.3181
z
" style="fill:#ffffff;stroke:#000000;stroke-linejoin:miter;"/>
    </g>
    <g id="line2d_39">
     <path d="
M296.327 37.0363
L313.127 37.0363" style="fill:none;stroke:#0000ff;stroke-linecap:square;"/>
    </g>
    <g id="line2d_40"/>
    <g id="text_20">
     <!-- 2007 -->
     <g transform="translate(326.326875 41.23625)scale(0.12 -0.12)">
      <use xlink:href="#BitstreamVeraSans-Roman-32"/>
      <use x="63.623046875" xlink:href="#BitstreamVeraSans-Roman-30"/>
      <use x="127.24609375" xlink:href="#BitstreamVeraSans-Roman-30"/>
      <use x="190.869140625" xlink:href="#BitstreamVeraSans-Roman-37"/>
     </g>
    </g>
    <g id="line2d_41">
     <path d="
M296.327 54.65
L313.127 54.65" style="fill:none;stroke:#008000;stroke-linecap:square;"/>
    </g>
    <g id="line2d_42"/>
    <g id="text_21">
     <!-- 2008 -->
     <defs>
      <path d="
M31.7812 34.625
Q24.75 34.625 20.7188 30.8594
Q16.7031 27.0938 16.7031 20.5156
Q16.7031 13.9219 20.7188 10.1562
Q24.75 6.39062 31.7812 6.39062
Q38.8125 6.39062 42.8594 10.1719
Q46.9219 13.9688 46.9219 20.5156
Q46.9219 27.0938 42.8906 30.8594
Q38.875 34.625 31.7812 34.625
M21.9219 38.8125
Q15.5781 40.375 12.0312 44.7188
Q8.5 49.0781 8.5 55.3281
Q8.5 64.0625 14.7188 69.1406
Q20.9531 74.2188 31.7812 74.2188
Q42.6719 74.2188 48.875 69.1406
Q55.0781 64.0625 55.0781 55.3281
Q55.0781 49.0781 51.5312 44.7188
Q48 40.375 41.7031 38.8125
Q48.8281 37.1562 52.7969 32.3125
Q56.7812 27.4844 56.7812 20.5156
Q56.7812 9.90625 50.3125 4.23438
Q43.8438 -1.42188 31.7812 -1.42188
Q19.7344 -1.42188 13.25 4.23438
Q6.78125 9.90625 6.78125 20.5156
Q6.78125 27.4844 10.7812 32.3125
Q14.7969 37.1562 21.9219 38.8125
M18.3125 54.3906
Q18.3125 48.7344 21.8438 45.5625
Q25.3906 42.3906 31.7812 42.3906
Q38.1406 42.3906 41.7188 45.5625
Q45.3125 48.7344 45.3125 54.3906
Q45.3125 60.0625 41.7188 63.2344
Q38.1406 66.4062 31.7812 66.4062
Q25.3906 66.4062 21.8438 63.2344
Q18.3125 60.0625 18.3125 54.3906" id="BitstreamVeraSans-Roman-38"/>
     </defs>
     <g transform="translate(326.326875 58.85)scale(0.12 -0.12)">
      <use xlink:href="#BitstreamVeraSans-Roman-32"/>
      <use x="63.623046875" xlink:href="#BitstreamVeraSans-Roman-30"/>
      <use x="127.24609375" xlink:href="#BitstreamVeraSans-Roman-30"/>
      <use x="190.869140625" xlink:href="#BitstreamVeraSans-Roman-38"/>
     </g>
    </g>
    <g id="line2d_43">
     <path d="
M296.327 72.2638
L313.127 72.2638" style="fill:none;stroke:#ff0000;stroke-linecap:square;"/>
    </g>
    <g id="line2d_44"/>
    <g id="text_22">
     <!-- 2009 -->
     <defs>
      <path d="
M10.9844 1.51562
L10.9844 10.5
Q14.7031 8.73438 18.5 7.8125
Q22.3125 6.89062 25.9844 6.89062
Q35.75 6.89062 40.8906 13.4531
Q46.0469 20.0156 46.7812 33.4062
Q43.9531 29.2031 39.5938 26.9531
Q35.25 24.7031 29.9844 24.7031
Q19.0469 24.7031 12.6719 31.3125
Q6.29688 37.9375 6.29688 49.4219
Q6.29688 60.6406 12.9375 67.4219
Q19.5781 74.2188 30.6094 74.2188
Q43.2656 74.2188 49.9219 64.5156
Q56.5938 54.8281 56.5938 36.375
Q56.5938 19.1406 48.4062 8.85938
Q40.2344 -1.42188 26.4219 -1.42188
Q22.7031 -1.42188 18.8906 -0.6875
Q15.0938 0.046875 10.9844 1.51562
M30.6094 32.4219
Q37.25 32.4219 41.125 36.9531
Q45.0156 41.5 45.0156 49.4219
Q45.0156 57.2812 41.125 61.8438
Q37.25 66.4062 30.6094 66.4062
Q23.9688 66.4062 20.0938 61.8438
Q16.2188 57.2812 16.2188 49.4219
Q16.2188 41.5 20.0938 36.9531
Q23.9688 32.4219 30.6094 32.4219" id="BitstreamVeraSans-Roman-39"/>
     </defs>
     <g transform="translate(326.326875 76.46375)scale(0.12 -0.12)">
      <use xlink:href="#BitstreamVeraSans-Roman-32"/>
      <use x="63.623046875" xlink:href="#BitstreamVeraSans-Roman-30"/>
      <use x="127.24609375" xlink:href="#BitstreamVeraSans-Roman-30"/>
      <use x="190.869140625" xlink:href="#BitstreamVeraSans-Roman-39"/>
     </g>
    </g>
    <g id="line2d_45">
     <path d="
M296.327 89.8775
L313.127 89.8775" style="fill:none;stroke:#00bfbf;stroke-linecap:square;"/>
    </g>
    <g id="line2d_46"/>
    <g id="text_23">
     <!-- 2010 -->
     <g transform="translate(326.326875 94.0775)scale(0.12 -0.12)">
      <use xlink:href="#BitstreamVeraSans-Roman-32"/>
      <use x="63.623046875" xlink:href="#BitstreamVeraSans-Roman-30"/>
      <use x="127.24609375" xlink:href="#BitstreamVeraSans-Roman-31"/>
      <use x="190.869140625" xlink:href="#BitstreamVeraSans-Roman-30"/>
     </g>
    </g>
    <g id="line2d_47">
     <path d="
M296.327 107.491
L313.127 107.491" style="fill:none;stroke:#bf00bf;stroke-linecap:square;"/>
    </g>
    <g id="line2d_48"/>
    <g id="text_24">
     <!-- 2011 -->
     <g transform="translate(326.326875 111.69125)scale(0.12 -0.12)">
      <use xlink:href="#BitstreamVeraSans-Roman-32"/>
      <use x="63.623046875" xlink:href="#BitstreamVeraSans-Roman-30"/>
      <use x="127.24609375" xlink:href="#BitstreamVeraSans-Roman-31"/>
      <use x="190.869140625" xlink:href="#BitstreamVeraSans-Roman-31"/>
     </g>
    </g>
    <g id="line2d_49">
     <path d="
M296.327 125.105
L313.127 125.105" style="fill:none;stroke:#bfbf00;stroke-linecap:square;"/>
    </g>
    <g id="line2d_50"/>
    <g id="text_25">
     <!-- 2012 -->
     <g transform="translate(326.326875 129.305)scale(0.12 -0.12)">
      <use xlink:href="#BitstreamVeraSans-Roman-32"/>
      <use x="63.623046875" xlink:href="#BitstreamVeraSans-Roman-30"/>
      <use x="127.24609375" xlink:href="#BitstreamVeraSans-Roman-31"/>
      <use x="190.869140625" xlink:href="#BitstreamVeraSans-Roman-32"/>
     </g>
    </g>
   </g>
  </g>
 </g>
 <defs>
  <clipPath id="pc1a11fcac8">
   <rect height="223.2" width="334.8" x="31.190625" y="21.318125"/>
  </clipPath>
 </defs>
</svg>
