<?xml version="1.0" encoding="utf-8" standalone="no"?>
<!DOCTYPE svg PUBLIC "-//W3C//DTD SVG 1.1//EN"
  "http://www.w3.org/Graphics/SVG/1.1/DTD/svg11.dtd">
<!-- Created with matplotlib (http://matplotlib.org/) -->
<svg height="280pt" version="1.1" viewBox="0 0 373 280" width="373pt" xmlns="http://www.w3.org/2000/svg" xmlns:xlink="http://www.w3.org/1999/xlink">
 <defs>
  <style type="text/css">
*{stroke-linecap:butt;stroke-linejoin:round;}
  </style>
 </defs>
 <g id="figure_1">
  <g id="patch_1">
   <path d="
M0 280.074
L373.191 280.074
L373.191 0
L0 0
z
" style="fill:#ffffff;"/>
  </g>
  <g id="axes_1">
   <g id="patch_2">
    <path d="
M31.1906 244.518
L365.991 244.518
L365.991 21.3181
L31.1906 21.3181
z
" style="fill:#ffffff;"/>
   </g>
   <g id="line2d_1">
    <path clip-path="url(#pc1a11fcac8)" d="
M0 0" style="fill:none;stroke:#0000ff;stroke-linecap:square;"/>
   </g>
   <g id="line2d_2">
    <path clip-path="url(#pc1a11fcac8)" d="
M31.1906 128.116
L32.1079 116.24
L33.0251 112.025
L33.9424 150.853
L34.8597 143.378
L35.7769 192.884
L36.6942 181.555
L37.6114 192.19
L38.5287 213.045
L39.446 193.11
L40.3632 238.266
M43.115 146.57
L44.0323 161.48
L44.9495 110.063
L45.8668 130.589
L46.784 184.965
M48.6186 231.114
L49.5358 211.806
L50.4531 165.814
L51.3704 143.781
L52.2876 169.677
L53.2049 235.925
L54.1221 182.725
L55.0394 156.08
L55.9567 200.498
L56.8739 210.413
L57.7912 193.845
L58.7084 190.892
L60.543 173.647
L61.4602 213.449
L62.3775 179.366
L63.2947 170.66
L65.1293 199.388
L66.0465 139.105
L66.9638 159.803
L68.7983 151.609
L69.7156 156.581
L70.6328 177.062
L71.5501 113.399
L73.3846 160.537
L74.3019 126.816
L75.2191 144.85
L76.1364 153.576
L77.0536 153.866
L77.9709 150.966
L78.8882 208.309
L79.8054 182.711
L80.7227 170.054
L81.6399 187.516
L82.5572 140
L83.4745 158.485
L84.3917 143.447
L85.309 126.158
L86.2262 170.718
L87.1435 129.055
L88.0608 94.666
L88.978 131.398
L89.8953 115.969
L90.8125 87.8812
L91.7298 99.9307
L92.6471 175.83
L93.5643 121.874
L94.4816 108.115
L95.3988 105.076
L96.3161 72.7581
L97.2334 169.078
L98.1506 168.785
L99.0679 144.799
L99.9851 130.501
L100.902 132.393
L101.82 197.929
L102.737 176.445
L103.654 145.543
L104.571 84.1661
L105.489 57.8631
L106.406 101.62
L107.323 164.682
L108.24 174.524
L109.158 191.973
L110.075 98.1393
L110.992 133.839
L111.91 85.2589
L112.827 90.3362
L113.744 104.66
L114.661 42.6351
L115.579 59.5273
L116.496 64.1934
L117.413 116.251
L118.33 79.4861
L119.248 122.377
L120.165 137.028
L121.082 80.6959
L121.999 143.536
L122.917 148.605
L123.834 79.753
L124.751 108.547
L125.668 107.941
L126.586 153.165
L127.503 117.168
L128.42 100.981
L129.337 89.5996
L130.255 91.3673
L131.172 99.0372
L132.089 94.7541
L133.007 95.2375
L133.924 71.6967
L134.841 153.604
L135.758 147.239
L136.676 75.9728
L137.593 54.966
L138.51 76.3836
L139.427 81.7596
L140.345 143.797
L142.179 79.7711
L143.096 63.7798
L144.014 78.6818
L144.931 104.881
L145.848 97.9235
L146.765 110.08
L147.683 126.517
L148.6 106.485
L149.517 78.5734
L150.434 62.9409
L151.352 99.3823
L152.269 88.4711
L153.186 86.0869
L154.104 157.438
L155.021 128.764
L155.938 124.508
L156.855 105.892
L157.773 129.218
L158.69 117.29
L159.607 168.783
L160.524 128.724
L161.442 141.103
L162.359 180.936
L163.276 136.838
L164.193 135.581
L165.111 163.146
L166.028 168.991
L166.945 162.481
L167.862 157.438
L168.78 135.783
L169.697 141.412
L170.614 173.45
L171.531 128.356
L172.449 177.916
L173.366 164.704
L174.283 124.204
L175.2 117.404
L176.118 138.188
L177.035 101.254
L177.952 153.8
L178.87 124.743
L179.787 168.977
L181.621 107.272
L182.539 106.523
L183.456 101.787
L184.373 108.138
L185.29 112.337
L186.208 111.496
L187.125 102.996
L188.042 109.105
L188.959 143.751
L189.877 137.187
L190.794 121.802
L191.711 121.424
L192.628 112.729
L195.38 133.529
L196.297 135.429
L197.215 136.027
L198.132 151.288
L199.049 133.232
L199.967 131.945
L200.884 136.923
L201.801 133.432
L202.718 131.813
L203.636 133.356
L204.553 118.437
L205.47 115.654
L206.387 123.07
L207.305 97.944
L208.222 93.2066
L209.139 108.745
L210.056 117.201
L210.974 120.321
L211.891 127.788
L212.808 127.468
L213.725 118.16
L214.643 105.377
L215.56 123.696
L216.477 149.644
L217.394 166.028
L218.312 139.216
L219.229 140.396
L220.146 121.354
L221.064 123.931
L222.898 132.073
L223.815 129.869
L224.733 124.09
L225.65 117.333
L226.567 127.083
L227.484 133.802
L228.402 126.678
L229.319 125.436
L230.236 129.091
L231.153 137.69
L232.071 143.897
L232.988 161.707
L233.905 146.894
L234.822 116.479
L235.74 121.502
L236.657 127.334
L237.574 120.891
L238.491 130.106
L239.409 133.332
L240.326 128.591
L241.243 130.76
L243.078 152.214
L243.995 131.011
L244.912 132.568
L245.83 116.567
L246.747 112.527
L247.664 126.355
L248.581 136.018
L249.499 119.797
L250.416 97.083
L251.333 133.423
L252.25 135.851
L253.168 125.623
L254.085 111.721
L255.002 122.094
L255.919 95.8493
L256.837 94.3904
L257.754 100.67
L258.671 109.788
L259.588 126.313
L260.506 124.969
L261.423 114.263
L262.34 112.608
L263.257 105.721
L264.175 106.812
L265.092 108.935
L266.009 114.233
L266.927 116.596
L267.844 115.936
L269.678 112.318
L270.596 123.224
L271.513 145.123
L272.43 188.442
L273.347 185.463
L274.265 146.668
L276.099 117.752
L277.016 115.744
L277.934 126.897
L278.851 124.413
L279.768 109.438
L280.685 119.871
L281.603 135.485
L282.52 134.086
L284.354 153.127
L285.272 194.738
L286.189 177.556
L287.106 152.603
L288.941 123.246
L289.858 117.938
L290.775 194.273
L291.693 175.083
L292.61 101.176
L293.527 113.441
L294.444 140.646
L295.362 132.506
L296.279 120.523
L297.196 144.403
L298.113 122.412
L299.031 149.615
L299.948 120.339
L300.865 109.169
L301.782 80.8183
L302.7 80.0007
L303.617 90.3908
L304.534 105.833
L305.451 103.862
L306.369 96.6591
L307.286 106.217
L308.203 111.782
L309.12 110.003
L310.038 127.879
L310.955 176.842
L311.872 203.588
L313.707 175.863
L314.624 140.468
L315.541 166.577
L317.376 202.207
L318.293 226.25
L319.21 196.034
L320.128 201.54
L321.045 194.047
L321.962 168.829
L322.879 125.434
L323.797 133.113
L324.714 161.594
L325.631 157.851
L326.548 142.037
L327.466 159.537
L328.383 158.319
L329.3 118.229
L331.135 219.495
L332.052 176.152
L332.969 160.765
L333.887 185.921
L334.804 175.107
L335.721 149.86
L336.638 192.737
L337.556 204.14
L338.473 197.872
L339.39 184.698
L340.307 187.369
L341.225 176.426
L342.142 160.39
L343.059 153.668
L343.976 145.942
L344.894 199.04
L345.811 124.907
L347.645 158.248
L348.563 202.738
L349.48 202.402
L350.397 195.966
L351.314 178.649
L352.232 200.157
L353.149 142.605
L354.066 146.373
L354.984 187.919
L355.901 149.218
L356.818 190.156
L357.735 206.176
L358.653 213.016
L359.57 178.048
L360.487 203.519
L361.404 172.282
L362.322 222.864
L364.156 163.73
L365.073 95.7314
L365.073 95.7314" style="fill:none;stroke:#008000;stroke-linecap:square;"/>
   </g>
   <g id="line2d_3">
    <path clip-path="url(#pc1a11fcac8)" d="
M31.1906 202.193
L32.1079 138.85
L33.0251 148.203
L33.9424 95.8278
L34.8597 149.536
L35.7769 227.4
L36.6942 182.176
L37.6114 167.813
L38.5287 186.865
L39.446 148.229
L40.3632 161.22
L41.2805 199.805
L42.1977 179.216
L43.115 193.615
L44.0323 232.93
L44.9495 234.536
L45.8668 235.594
L46.784 233.016
L47.7013 230.896
L48.6186 232.805
L49.5358 231.888
L50.4531 234.369
L51.3704 242.054
L52.2876 235.591
L53.2049 244.149
L54.1221 203.547
L55.0394 191.373
L55.9567 191.168
L56.8739 171.425
L57.7912 192.619
L58.7084 206.988
L59.6257 185.203
L60.543 170.035
L61.4602 164.067
L62.3775 173.844
L63.2947 188.516
L64.212 184.744
L65.1293 203.907
L66.0465 200.384
L66.9638 230.368
L67.881 176.266
L68.7983 199.731
L69.7156 205.181
L70.6328 149.842
L71.5501 194.442
L72.4673 133.316
L73.3846 163.389
L74.3019 202.315
L75.2191 150.476
L76.1364 131.618
L77.0536 149.541
L77.9709 143.097
L78.8882 172.045
L79.8054 175.885
L80.7227 134.612
L81.6399 164.076
L82.5572 178.273
L83.4745 103.415
L84.3917 108.115
L85.309 145.665
L86.2262 174.075
L87.1435 179.248
L88.0608 203.457
L88.978 235.247
L89.8953 201.495
L90.8125 152.7
L91.7298 188.42
L92.6471 143.311
L93.5643 155.119
L94.4816 129.722
L95.3988 142.405
L96.3161 138.98
L97.2334 129.585
L98.1506 195.437
L99.0679 185.015
L100.902 127.59
L101.82 145.683
L102.737 131.566
L103.654 177.899
L104.571 179.88
L105.489 126.56
L106.406 146.948
L107.323 196.563
L108.24 120.577
L109.158 122.542
L110.075 169.119
L110.992 199.928
L111.91 108.766
L112.827 189.063
L113.744 135.861
L114.661 194.129
L115.579 183.008
L116.496 103.581
L117.413 105.533
L118.33 106.673
L119.248 113.435
L120.165 188.087
L121.082 168.697
L121.999 201.971
L122.917 175.521
L123.834 141.225
L124.751 170.02
L125.668 144.995
L126.586 150.245
L127.503 121.794
L128.42 116.868
L129.337 131.022
L130.255 108.631
L131.172 121.763
L132.089 124.501
L133.007 132.897
L133.924 137.818
L134.841 89.2892
L135.758 89.0889
L136.676 140.524
L137.593 111.711
L138.51 190.12
L139.427 144.971
L140.345 148.024
L141.262 138.511
L142.179 180.027
L143.096 197.189
L144.014 166.481
L144.931 162.424
L145.848 175.519
L146.765 138.029
L147.683 117.097
L148.6 107.366
L149.517 108.542
L151.352 119.819
L152.269 99.745
L153.186 162.764
L154.104 113.754
L155.021 110.027
L155.938 118.026
L156.855 135.572
L157.773 124.755
L159.607 99.6676
L160.524 121.168
L162.359 157.338
L163.276 132.164
L164.193 125.337
L165.111 126.036
L166.028 132.836
L166.945 135.26
L167.862 150.075
L168.78 152.043
L169.697 165.647
L170.614 200.22
L171.531 172.45
L172.449 168.794
L173.366 193.436
L174.283 189.518
L175.2 157.156
L176.118 151.056
L177.035 138.514
L177.952 163.228
L178.87 166.708
L179.787 159.315
L180.704 201.744
L181.621 199.641
L182.539 182.155
L183.456 150.108
L184.373 165.941
L185.29 138.957
L186.208 168.155
L187.125 168.501
L188.042 185.741
L188.959 145.19
L189.877 122.625
L190.794 135.84
L191.711 140.181
L192.628 143.317
L193.546 127.775
L194.463 127.293
L195.38 144.539
L196.297 141.871
L197.215 134.189
L198.132 147.447
L199.049 155.062
L199.967 148.05
L200.884 161.68
L201.801 139.526
L202.718 132.28
L203.636 133.837
L204.553 129.719
L205.47 133.144
L206.387 154.235
L207.305 170.582
L208.222 155.591
L209.139 136.834
L210.056 133.885
L210.974 146.047
L211.891 147.081
L212.808 153.651
L213.725 148.992
L214.643 136.578
L215.56 140.603
L216.477 147.948
L217.394 161.393
L218.312 149.244
L219.229 145.03
L220.146 150.514
L221.064 160.037
L221.981 157.352
L222.898 153.815
L223.815 153.652
L224.733 148.002
L225.65 149.73
L226.567 150.804
L227.484 150.245
L228.402 155.056
L229.319 148.392
L230.236 206.999
L231.153 221.448
L232.071 180.509
L232.988 158.258
L233.905 146.877
L234.822 147.161
L235.74 152
L236.657 160.469
L237.574 157.654
L238.491 138.178
L239.409 133.347
L240.326 140.297
L241.243 144.108
L242.16 150.772
L243.078 159.486
L243.995 152.373
L244.912 154.61
L245.83 166.575
L246.747 158.221
L247.664 151.128
L248.581 150.524
L249.499 148.876
L250.416 156.903
L251.333 154.05
L252.25 166.331
L253.168 154.085
L254.085 151.396
L255.002 151.132
L255.919 146.521
L256.837 147.174
L257.754 154.876
L258.671 143.235
L259.588 129.248
L260.506 122.248
L261.423 125.457
L262.34 137.498
L263.257 144.207
L264.175 145.325
L265.092 149.628
L266.927 165.425
L267.844 161.109
L268.761 153.916
L269.678 172.078
M294.444 166.138
L295.362 176.356
L296.279 165.891
L298.113 201.523
L299.031 182.004
L299.948 183.782
L300.865 192.549
L301.782 188.887
L302.7 169.113
L303.617 130.916
L304.534 174.997
L305.451 176.338
L306.369 137.997
L307.286 190.905
L308.203 221.927
L309.12 182.639
L310.038 187.13
L310.955 163.663
L311.872 169.312
L312.79 148.962
L313.707 147.176
L314.624 180.845
L316.459 152.787
L317.376 123.462
L318.293 144.093
L319.21 193.741
L320.128 192.58
L321.045 200.586
L321.962 206.176
L322.879 144.278
L323.797 146.802
L324.714 130.015
L325.631 188.753
L326.548 125.888
L327.466 144.965
L328.383 151.386
L329.3 183.513
L330.217 162.58
L331.135 172.318
L332.052 177.458
L332.969 195.14
L333.887 206.434
L334.804 187.613
L335.721 159.072
M337.556 155.948
L338.473 141.175
L339.39 131.693
L340.307 149.536
L341.225 131.058
L342.142 143.834
L343.059 212.376
L343.976 156.552
L344.894 137.942
L345.811 146.428
L346.728 158.964
L347.645 207.042
L348.563 221.451
L349.48 192.368
L350.397 202.884
L351.314 219.505
L352.232 198.973
L353.149 219.262
L354.066 233.67
L354.984 218.377
L355.901 182.678
L356.818 243.288
L357.735 220.21
L358.653 170.717
L360.487 219.411
L361.404 195.241
L362.322 201.999
L363.239 190.198
L364.156 217.893
L365.073 189.108
L365.073 189.108" style="fill:none;stroke:#ff0000;stroke-linecap:square;"/>
   </g>
   <g id="line2d_4">
    <path clip-path="url(#pc1a11fcac8)" d="
M31.1906 207.78
L32.1079 191.852
L33.0251 213.64
L33.9424 214.995
L34.8597 227.478
L35.7769 218.67
L36.6942 173.224
L37.6114 193.013
L38.5287 174.333
L39.446 158.921
L40.3632 195.99
L41.2805 168.01
L42.1977 221.2
L43.115 180.816
L44.0323 131.256
L44.9495 184.768
L45.8668 180.161
L46.784 176.772
L47.7013 176.498
L48.6186 159.336
L49.5358 163.89
L51.3704 233.929
L52.2876 171.264
L53.2049 195.631
L54.1221 227.152
L55.0394 234.552
L55.9567 199.729
L56.8739 200.535
L57.7912 222.705
L58.7084 239.73
L59.6257 233.886
L60.543 197.513
L61.4602 202.804
L62.3775 217.117
L63.2947 201.677
L64.212 217.802
L65.1293 216.075
L66.0465 193.456
L66.9638 200.763
L67.881 149.744
L68.7983 175.476
L69.7156 180.611
L70.6328 222.326
L71.5501 180.669
L72.4673 228.648
L73.3846 209.081
L74.3019 215.416
L75.2191 177.224
L76.1364 165.737
L77.0536 157.94
L77.9709 145.285
L78.8882 101.517
L79.8054 98.6164
L80.7227 194.735
L81.6399 173.139
L82.5572 133.41
L84.3917 198.229
L85.309 144.37
L86.2262 169.375
L87.1435 173.422
L88.0608 194.781
L88.978 162.984
L89.8953 145.329
L90.8125 138.476
L91.7298 201.724
L92.6471 131.26
L93.5643 104.788
L94.4816 105.922
L95.3988 121.898
L96.3161 207.811
L97.2334 143.825
L98.1506 114.779
L99.0679 127.588
L99.9851 136.553
L100.902 138.606
L101.82 80.9853
L102.737 88.8611
L103.654 155.861
L104.571 170.845
L105.489 124.111
L106.406 112.048
L107.323 174.254
L108.24 179.302
L109.158 121.899
L110.075 107.115
L111.91 213.844
L112.827 148.353
L113.744 182.25
L114.661 184.142
L115.579 159.751
L116.496 120.469
L117.413 169.944
L118.33 125.363
L119.248 118.289
L120.165 142.025
L121.082 84.9529
L121.999 112.552
L122.917 134.401
L123.834 175.165
L124.751 160.811
L125.668 129.653
L126.586 118.993
L127.503 127.398
L128.42 132.428
L129.337 120.752
L130.255 113.016
L131.172 173.296
L132.089 202.746
L133.007 193.774
L133.924 117.525
L134.841 113.186
L135.758 102.707
L136.676 113.476
L137.593 172.174
L138.51 176.519
L139.427 161.984
L140.345 166.909
L141.262 161.206
L142.179 138.783
L143.096 143.941
L144.014 79.7794
L144.931 134.217
L145.848 132.148
L146.765 77.4501
L147.683 106.946
L148.6 110.705
L149.517 184.103
L150.434 160.544
L151.352 112.723
L152.269 115.725
L153.186 109.46
L154.104 112.218
L155.021 121.126
L155.938 148.059
L156.855 208.233
L157.773 148.901
L158.69 127.596
L159.607 147.39
L160.524 230.978
L161.442 170.032
L162.359 155.361
L163.276 120.793
L164.193 173.992
L165.111 174.319
L166.028 185.651
L166.945 169.336
L167.862 138.822
L168.78 181.145
L169.697 174.531
L170.614 212.033
L171.531 167.503
L172.449 211.48
L173.366 172.808
L174.283 195.624
L175.2 157.305
L176.118 125.842
L177.035 172.709
L177.952 169.763
L178.87 145.748
L179.787 117.521
L180.704 126.172
L181.621 132.576
L182.539 158.76
L183.456 132.644
L184.373 129.234
L185.29 115.389
L186.208 125.465
L187.125 178.158
L188.959 136.221
L189.877 130.657
L190.794 155.608
L191.711 164.072
L192.628 140.811
L193.546 130.321
L194.463 135.074
L195.38 164.461
L196.297 158.286
L197.215 137.273
L198.132 141.937
L199.049 158.35
L199.967 135.498
L200.884 134.759
L201.801 131.278
L202.718 129.479
L203.636 132.661
L204.553 137.688
L205.47 140.974
L206.387 146.459
L207.305 144.69
L208.222 109.225
L209.139 119.896
L210.056 132.072
L210.974 138.681
L211.891 139.472
L212.808 137.102
L213.725 126.574
L214.643 126.483
L215.56 128.486
L216.477 139.507
L217.394 131.347
L218.312 135.067
L219.229 141.74
L220.146 177.359
L222.898 147.478
L223.815 151.083
L224.733 156.915
L225.65 144.982
L226.567 131.453
L227.484 133.473
L229.319 143.187
L230.236 155.986
L231.153 143.38
L232.071 145.145
L232.988 159.033
L233.905 170.634
L234.822 189.854
L235.74 171.232
L236.657 146.795
L237.574 155.538
L238.491 142.415
L239.409 141.628
L240.326 145.225
L241.243 141.575
L242.16 140.497
L243.078 131.512
L243.995 133.504
L244.912 135.161
L245.83 138.357
L246.747 132.741
L247.664 133.758
L248.581 154.705
L249.499 128.34
L250.416 146.678
L251.333 190.439
L252.25 148.915
L253.168 170.709
L254.085 154.65
L255.002 145.517
L255.919 133.297
L256.837 142.179
L257.754 135.292
L258.671 115.886
L259.588 116.715
L260.506 177.751
L261.423 213.849
L262.34 162.044
L263.257 129.522
L264.175 128.783
L265.092 132.019
L266.009 146.115
L266.927 137.519
L267.844 136.938
L268.761 142.318
L269.678 142.414
L270.596 153.603
L271.513 157.177
L272.43 142.735
L273.347 151.623
L274.265 133.607
L275.182 123.938
L276.099 138.592
L277.016 134.555
L277.934 135.676
L278.851 134.035
L279.768 146.161
L280.685 134.917
L281.603 140.84
L282.52 142.533
L284.354 225.072
L285.272 217.571
L287.106 162.158
L288.024 189.5
L288.941 171.155
L289.858 174.131
L290.775 182.301
L291.693 140.945
L292.61 137.92
L293.527 117.094
L294.444 138.602
L295.362 153.752
L296.279 158.113
L297.196 123.898
L298.113 109.778
L299.031 124.299
L299.948 124.603
L300.865 128.375
L301.782 177.871
M304.534 187.234
L306.369 111.994
L308.203 157.506
L309.12 204.961
L310.038 165.681
L310.955 172.384
L311.872 183.221
L312.79 162.161
L313.707 166.793
L314.624 174.151
M317.376 163.251
L318.293 223.093
L319.21 193.006
L320.128 171.048
L321.045 178.04
L321.962 211.074
M323.797 164.287
L324.714 152.395
L325.631 155.515
L326.548 225.101
M328.383 209.886
L329.3 235.489
M331.135 113.457
L332.052 166.867
L332.969 182.556
L333.887 234.098
L334.804 212.753
L335.721 155.642
L336.638 194.729
M340.307 243.32
L341.225 219.53
L342.142 232.641
L343.059 229.522
L343.976 192.696
L344.894 199.194
L345.811 197.636
L346.728 213.943
L347.645 216.744
L348.563 205.483
M351.314 158.692
L352.232 138.982
L353.149 205.913
L354.066 227.158
L354.984 192.149
L355.901 176.249
L356.818 193.73
L357.735 222.027
L358.653 206.207
L359.57 157.83
L360.487 193.343
L361.404 179.114
L362.322 206.543
L363.239 227.351
L364.156 197.062
L365.073 160.485
L365.073 160.485" style="fill:none;stroke:#00bfbf;stroke-linecap:square;"/>
   </g>
   <g id="line2d_5">
    <path clip-path="url(#pc1a11fcac8)" d="
M31.1906 169.569
L32.1079 195.565
L33.0251 191.275
L33.9424 203.993
L34.8597 201.465
L35.7769 203.319
L36.6942 203.62
L37.6114 213.12
L38.5287 208.669
L39.446 223.934
L40.3632 182.152
L42.1977 221.056
L43.115 219.561
L44.0323 209.211
L44.9495 239.556
L45.8668 208.765
L46.784 209.873
L47.7013 199.349
L48.6186 171.216
L49.5358 217.8
L50.4531 209.731
L51.3704 163.69
L52.2876 217.333
L53.2049 233.966
L54.1221 237.347
L55.0394 213.111
L55.9567 221.436
L56.8739 219.296
L57.7912 234.496
L58.7084 175.332
L59.6257 133.519
L60.543 136.628
L61.4602 157.588
L62.3775 187.188
L63.2947 175.017
L64.212 183.86
L65.1293 182.501
L66.0465 168.203
L66.9638 186.784
L67.881 148.565
L68.7983 160.166
L69.7156 155.345
L70.6328 140.11
L71.5501 148.549
L72.4673 147.688
L73.3846 196.514
L74.3019 197.983
L75.2191 194.753
L76.1364 207.189
L77.0536 236.178
L77.9709 174.676
L78.8882 177.038
L79.8054 171.595
L80.7227 202.352
L81.6399 212.617
L82.5572 164.928
L83.4745 135.842
L84.3917 146.279
L85.309 141.677
L86.2262 184.039
L87.1435 182.451
L88.0608 173.883
L88.978 195.881
L89.8953 169.288
L90.8125 219.015
L91.7298 196.735
L92.6471 137.373
L93.5643 191.328
L94.4816 139.751
L95.3988 137.639
L96.3161 146.854
L97.2334 172.059
L98.1506 210.716
L99.0679 233.257
L99.9851 181.934
L100.902 147.29
L101.82 190.852
L102.737 153.62
L103.654 206.241
L104.571 171.773
L105.489 164.411
L106.406 186.959
L107.323 215.174
L108.24 214.889
L109.158 198.629
L110.075 187.034
L110.992 189.823
L111.91 209.843
L112.827 157.605
L113.744 161.507
L114.661 191.173
L115.579 136.437
L116.496 148.8
L117.413 183.506
L118.33 185.719
L119.248 180.768
L120.165 167.401
L121.082 197.05
L121.999 156.132
L122.917 183.322
L123.834 161.615
L124.751 180.494
L125.668 151.934
L126.586 172.989
L127.503 199.884
L128.42 184.333
L129.337 179.431
L130.255 112.191
L131.172 172.559
L132.089 169.596
L133.007 118.354
L133.924 117.641
L134.841 168.077
L135.758 188.2
L136.676 150.397
L137.593 128.743
L138.51 202.274
L139.427 166.351
L140.345 154.479
L141.262 128.854
L142.179 156.276
L143.096 150.899
L144.014 137.12
L144.931 136.603
L145.848 184.865
L146.765 188.929
L147.683 199.394
L148.6 176.679
L149.517 140.18
L150.434 146.603
L152.269 161.786
L153.186 168.243
L154.104 202.681
L155.021 206.357
L155.938 141.417
L156.855 203.381
L157.773 148.3
L160.524 176.031
L161.442 187.959
L162.359 185.218
L163.276 181.176
L164.193 169.518
L165.111 201.796
L166.028 206.963
L166.945 210.275
L167.862 189.504
L168.78 156.553
L169.697 157.618
L170.614 191.185
L171.531 155.867
L172.449 141.008
L173.366 157.269
L174.283 189.008
L175.2 207.721
L176.118 155.707
L177.035 188.498
L177.952 174.634
L178.87 170.18
L179.787 170.371
L180.704 187.105
L181.621 146.943
L182.539 136.452
L183.456 157.422
L184.373 136.985
L185.29 202.912
L186.208 193.064
L187.125 153.733
L188.042 159.962
L188.959 157.597
L189.877 162.02
L190.794 151.047
L191.711 143.616
L192.628 139.983
L193.546 142.178
L194.463 158.575
L195.38 187.279
L197.215 149.95
L198.132 146.573
L199.049 153.691
L199.967 156.453
L200.884 159.819
L201.801 157.756
L202.718 182.668
L203.636 163.73
L204.553 134.257
L205.47 156.046
L207.305 163.393
L208.222 166.384
L209.139 179.549
L210.056 143.984
M215.56 143.355
L216.477 155.549
L217.394 145.838
L218.312 155.28
L219.229 160.336
L220.146 168.493
L221.064 155.666
L221.981 149.843
L222.898 150.203
L223.815 167.806
L224.733 177.214
L225.65 173.05
L226.567 166.891
L227.484 163.188
L228.402 178.977
L229.319 162.508
L230.236 163.065
L231.153 166.409
L232.071 161.731
L232.988 155.228
L233.905 155.513
L234.822 150.3
L235.74 154.506
L236.657 165.526
L237.574 163.882
L238.491 152.394
L239.409 152.219
L240.326 154.077
L241.243 156.791
L242.16 148.808
L243.078 158.93
L243.995 166.232
L244.912 161.98
L245.83 163.097
L246.747 156.567
L247.664 165.836
L248.581 167.9
L249.499 179.715
L250.416 170.449
L251.333 171.614
L252.25 159.693
L253.168 154.133
L254.085 150.663
L255.002 151.059
L255.919 149.255
L256.837 153.278
L257.754 148.656
L258.671 160.437
L260.506 163.719
L261.423 167.058
L262.34 162.3
L263.257 164.605
L264.175 167.642
L265.092 172.529
L266.009 171.912
L266.927 206.186
L267.844 189.729
L268.761 161.313
L269.678 153.744
L270.596 161.433
L271.513 162.047
L272.43 158.165
L273.347 160.563
L274.265 159.784
L275.182 160.905
L276.099 163.107
L277.016 165.699
L277.934 161.699
L278.851 182.336
L279.768 157.756
L280.685 165.28
L281.603 169.091
L282.52 165.931
L283.437 164.86
L284.354 206.746
L285.272 228.316
L286.189 242.253
L287.106 215.177
L288.024 175.112
L288.941 162.609
L289.858 190.374
L290.775 176.526
L291.693 156.501
L292.61 145.317
L293.527 168.151
L294.444 173.239
L295.362 203.757
L296.279 172.13
L297.196 148.267
L298.113 167.713
L299.031 159.117
L299.948 177.699
L300.865 182.964
L301.782 180.052
L302.7 190.087
L303.617 164.586
L304.534 151.134
L305.451 144.335
L306.369 138.785
L307.286 158.831
L308.203 170.67
L309.12 193.417
L310.955 126.466
L311.872 145.209
L312.79 208.827
L313.707 224.009
L314.624 205.335
L315.541 194.259
L316.459 138.015
L317.376 143.478
L318.293 139.423
L319.21 119.105
L320.128 160.505
L321.045 178.587
L321.962 146.892
L322.879 171.858
L323.797 149.765
L324.714 216.561
L325.631 219.538
L326.548 198.508
L327.466 182.348
L328.383 182.59
L329.3 195.214
L330.217 155.862
L331.135 175.573
L332.052 178.655
L332.969 142.69
L333.887 147.781
L334.804 184.467
L335.721 207.508
L336.638 197.552
L337.556 154.969
L338.473 148.115
L339.39 145.536
L340.307 183.433
L341.225 175.87
L342.142 158.111
L343.059 172.577
L343.976 173.064
L344.894 174.845
L345.811 182.309
L346.728 184.814
L347.645 193.066
L348.563 197.793
L349.48 175.179
L350.397 182.462
L351.314 194.559
L352.232 197.266
L353.149 199.018
L354.066 191.577
L354.984 162.989
L355.901 167.054
L356.818 139.191
L357.735 137.812
L359.57 163.102
L360.487 164.416
L361.404 205.567
L362.322 217.584
L363.239 197.797
L364.156 224.775
L365.073 179.134
L365.073 179.134" style="fill:none;stroke:#bf00bf;stroke-linecap:square;"/>
   </g>
   <g id="line2d_6">
    <path clip-path="url(#pc1a11fcac8)" d="
M31.1906 188.598
L32.1079 200.187
L33.0251 194.016
L33.9424 194.174
L34.8597 193.331
L35.7769 207.933
M46.784 209.4
L47.7013 236.776
L48.6186 223.558
L49.5358 222.108
L50.4531 208.344
L51.3704 235.557
L52.2876 209.818
L53.2049 215.331
L54.1221 225.227
L55.0394 193.565
L55.9567 189.988
L56.8739 181.736
L57.7912 200.088
L58.7084 184.227
L59.6257 214.284
L60.543 197.159
L61.4602 191.497
L62.3775 183.478
L63.2947 186.796
L64.212 179.11
L65.1293 169.498
L66.0465 201.067
L66.9638 227.176
L67.881 218.364
L68.7983 233.258
L69.7156 219.519
L70.6328 193.219
L71.5501 200.962
L72.4673 207.455
L73.3846 183.71
L74.3019 180.752
L75.2191 205.586
L76.1364 186.056
L77.0536 208.136
L77.9709 236.965
L78.8882 214.75
L79.8054 173.873
L80.7227 162.436
L81.6399 208.758
L82.5572 159.849
L83.4745 161.172
L84.3917 170.086
L85.309 199.632
L86.2262 218.155
L87.1435 187.41
L88.0608 196.128
L88.978 181.362
L89.8953 175.146
L90.8125 203.398
L91.7298 148.57
L92.6471 161.274
L93.5643 161.231
L94.4816 160.641
L95.3988 192.773
L96.3161 196.642
L97.2334 212.23
L98.1506 236.748
L99.0679 218.246
L99.9851 217.954
L100.902 214.584
L101.82 237.426
L102.737 176.818
L103.654 211.656
L105.489 166.408
L106.406 194.803
L107.323 182.376
L108.24 196.166
L109.158 214.514
L110.075 169.496
L110.992 208.427
L111.91 209.803
L112.827 226.414
L113.744 167.182
L114.661 153.552
L115.579 164.759
L116.496 154.398
L117.413 174.674
L118.33 167.613
L119.248 179.531
L120.165 146.909
L121.082 149.198
L121.999 168.459
L122.917 163.988
L123.834 200.445
L124.751 159.672
L125.668 182.182
L126.586 183.836
L127.503 153.929
L128.42 206.612
L129.337 188.548
L130.255 189.16
L131.172 197.699
L133.007 167.214
L133.924 165.983
L134.841 183.508
L135.758 184.454
L136.676 195.577
L137.593 238.975
L138.51 179.031
L139.427 179.197
L140.345 161.796
L141.262 206.551
L142.179 159.841
L144.014 210.09
L144.931 210.215
L145.848 167.728
L146.765 150.448
L147.683 148.821
L148.6 153.565
L149.517 161.749
L150.434 139.085
L151.352 144.217
L152.269 146.018
L153.186 153.451
L154.104 164.413
L155.021 184.497
L155.938 171.312
L156.855 178.774
L157.773 157.584
L158.69 146.281
L159.607 163.522
L160.524 187.409
L161.442 193.694
L162.359 167.067
L163.276 169.003
L164.193 195.786
L165.111 227.677
L166.028 174.192
L166.945 157.673
L167.862 159.317
L168.78 161.524
L169.697 172.315
L170.614 164.676
L171.531 181.671
L172.449 167.311
L173.366 183.671
L174.283 220.438
L175.2 155.228
L176.118 178.562
L177.035 175.537
L177.952 195.047
L178.87 167.18
L179.787 152.904
L180.704 170.869
L181.621 169.772
L182.539 148.909
L183.456 158.11
L184.373 161.377
L186.208 165.523
L187.125 152.241
L188.042 156.608
L188.959 164.668
L189.877 166.204
L190.794 164.268
L191.711 167.069
L192.628 165.47
L193.546 165.964
L194.463 159.572
L195.38 159.537
L196.297 172.163
L197.215 166.977
L198.132 181.268
L199.049 174.053
L199.967 168.151
L200.884 164.258
L201.801 176.04
L202.718 177.808
L203.636 176.597
L204.553 186.442
L205.47 184.541
L206.387 181.623
L207.305 184.001
L208.222 184.117
L209.139 194.365
L210.056 199.758
L210.974 186.23
L211.891 189.215
L212.808 175.753
L213.725 175.206
L214.643 175.682
L215.56 175.408
L216.477 176.977
L217.394 178.188
L218.312 180.283
L219.229 171.232
L220.146 178.023
L221.064 176.345
L221.981 182.59
L222.898 178.922
L223.815 177.942
L224.733 174.832
L225.65 173.215
L226.567 172.66
L227.484 169.728
M232.988 189.483
L233.905 180.762
L234.822 190.22
L235.74 176.886
L236.657 180.479
L237.574 182.591
L238.491 177.884
L239.409 176.089
L240.326 180.135
L241.243 178.487
L242.16 177.34
L243.078 192.445
L243.995 184.713
L244.912 187.209
L245.83 179.234
L246.747 174.868
L247.664 163.15
L248.581 165.84
L249.499 182.133
L250.416 188.652
L251.333 175.009
L252.25 179.656
L253.168 174.222
L254.085 190.074
L255.002 178.952
L255.919 160.002
L256.837 164.149
L257.754 167.186
L258.671 173.498
L259.588 185.127
L260.506 172.694
L261.423 173.481
L262.34 184.616
L263.257 173.674
L264.175 176.603
L265.092 158.329
L266.009 165.745
L266.927 169.981
L268.761 174.638
L269.678 171.284
L270.596 172.614
L271.513 175.137
L272.43 181.188
L273.347 183.425
L274.265 187.537
L275.182 212.791
L276.099 198.428
L277.934 189.318
L278.851 180.53
L279.768 185.661
L280.685 181.091
L281.603 181.575
L282.52 176.101
L283.437 174.73
L284.354 159.34
L285.272 158.086
L286.189 154.86
L287.106 154.895
L288.024 157.829
L288.941 155.199
L290.775 173.353
L291.693 173.791
L292.61 172.148
L293.527 197.446
L294.444 191.624
L295.362 201.074
L296.279 198.536
L297.196 183.962
L298.113 175.709
L299.031 189.183
L299.948 207.953
L300.865 181.24
L301.782 221.735
L302.7 219.895
L303.617 220.724
L304.534 230.316
L305.451 188.184
L306.369 205.661
L307.286 235.834
L308.203 203.181
L310.038 184.163
L310.955 201.98
L311.872 195.561
L312.79 198.641
L313.707 199.462
L314.624 203.932
L315.541 200.357
L316.459 213.648
L317.376 213.356
L318.293 234.065
L319.21 200.401
L320.128 201.824
L321.045 208.817
L321.962 234.023
L322.879 234.18
L323.797 214.887
L324.714 214.244
L325.631 219.384
L326.548 218.678
L327.466 214.231
L328.383 204.176
L329.3 214.044
L330.217 198.928
L331.135 190.923
L332.052 220.625
L332.969 222.801
L333.887 205.923
L334.804 216.513
L335.721 216.95
L336.638 212.318
L337.556 221.11
L338.473 207.948
L339.39 220.2
L340.307 195.249
L341.225 217.389
M348.563 229.476
L349.48 232.915
L350.397 218.099
L351.314 212.015
L352.232 237.492
L353.149 197.553
L354.066 200.509
L354.984 192.148
L355.901 161.145
L356.818 166.838
L357.735 203.059
L358.653 227.865
L359.57 232.598
L360.487 194.868
L361.404 230.696
L362.322 227.574
L363.239 211.779
L364.156 218.605
L365.073 238.443
L365.073 238.443" style="fill:none;stroke:#bfbf00;stroke-linecap:square;"/>
   </g>
   <g id="patch_3">
    <path d="
M31.1906 21.3181
L365.991 21.3181" style="fill:none;stroke:#000000;stroke-linecap:square;stroke-linejoin:miter;"/>
   </g>
   <g id="patch_4">
    <path d="
M365.991 244.518
L365.991 21.3181" style="fill:none;stroke:#000000;stroke-linecap:square;stroke-linejoin:miter;"/>
   </g>
   <g id="patch_5">
    <path d="
M31.1906 244.518
L365.991 244.518" style="fill:none;stroke:#000000;stroke-linecap:square;stroke-linejoin:miter;"/>
   </g>
   <g id="patch_6">
    <path d="
M31.1906 244.518
L31.1906 21.3181" style="fill:none;stroke:#000000;stroke-linecap:square;stroke-linejoin:miter;"/>
   </g>
   <g id="matplotlib.axis_1">
    <g id="xtick_1">
     <g id="line2d_7">
      <defs>
       <path d="
M0 0
L0 -4" id="m93b0483c22" style="stroke:#000000;stroke-width:0.5;"/>
      </defs>
      <g>
       <use style="stroke:#000000;stroke-width:0.5;" x="31.190625" xlink:href="#m93b0483c22" y="244.518125"/>
      </g>
     </g>
     <g id="line2d_8">
      <defs>
       <path d="
M0 0
L0 4" id="m741efc42ff" style="stroke:#000000;stroke-width:0.5;"/>
      </defs>
      <g>
       <use style="stroke:#000000;stroke-width:0.5;" x="31.190625" xlink:href="#m741efc42ff" y="21.318125"/>
      </g>
     </g>
     <g id="text_1">
      <!-- 0 -->
      <defs>
       <path d="
M31.7812 66.4062
Q24.1719 66.4062 20.3281 58.9062
Q16.5 51.4219 16.5 36.375
Q16.5 21.3906 20.3281 13.8906
Q24.1719 6.39062 31.7812 6.39062
Q39.4531 6.39062 43.2812 13.8906
Q47.125 21.3906 47.125 36.375
Q47.125 51.4219 43.2812 58.9062
Q39.4531 66.4062 31.7812 66.4062
M31.7812 74.2188
Q44.0469 74.2188 50.5156 64.5156
Q56.9844 54.8281 56.9844 36.375
Q56.9844 17.9688 50.5156 8.26562
Q44.0469 -1.42188 31.7812 -1.42188
Q19.5312 -1.42188 13.0625 8.26562
Q6.59375 17.9688 6.59375 36.375
Q6.59375 54.8281 13.0625 64.5156
Q19.5312 74.2188 31.7812 74.2188" id="BitstreamVeraSans-Roman-30"/>
      </defs>
      <g transform="translate(28.67109375 256.1165625)scale(0.1 -0.1)">
       <use xlink:href="#BitstreamVeraSans-Roman-30"/>
      </g>
     </g>
    </g>
    <g id="xtick_2">
     <g id="line2d_9">
      <g>
       <use style="stroke:#000000;stroke-width:0.5;" x="77.0536386986" xlink:href="#m93b0483c22" y="244.518125"/>
      </g>
     </g>
     <g id="line2d_10">
      <g>
       <use style="stroke:#000000;stroke-width:0.5;" x="77.0536386986" xlink:href="#m741efc42ff" y="21.318125"/>
      </g>
     </g>
     <g id="text_2">
      <!-- 50 -->
      <defs>
       <path d="
M10.7969 72.9062
L49.5156 72.9062
L49.5156 64.5938
L19.8281 64.5938
L19.8281 46.7344
Q21.9688 47.4688 24.1094 47.8281
Q26.2656 48.1875 28.4219 48.1875
Q40.625 48.1875 47.75 41.5
Q54.8906 34.8125 54.8906 23.3906
Q54.8906 11.625 47.5625 5.09375
Q40.2344 -1.42188 26.9062 -1.42188
Q22.3125 -1.42188 17.5469 -0.640625
Q12.7969 0.140625 7.71875 1.70312
L7.71875 11.625
Q12.1094 9.23438 16.7969 8.0625
Q21.4844 6.89062 26.7031 6.89062
Q35.1562 6.89062 40.0781 11.3281
Q45.0156 15.7656 45.0156 23.3906
Q45.0156 31 40.0781 35.4375
Q35.1562 39.8906 26.7031 39.8906
Q22.75 39.8906 18.8125 39.0156
Q14.8906 38.1406 10.7969 36.2812
z
" id="BitstreamVeraSans-Roman-35"/>
      </defs>
      <g transform="translate(71.4091074486 256.1165625)scale(0.1 -0.1)">
       <use xlink:href="#BitstreamVeraSans-Roman-35"/>
       <use x="63.623046875" xlink:href="#BitstreamVeraSans-Roman-30"/>
      </g>
     </g>
    </g>
    <g id="xtick_3">
     <g id="line2d_11">
      <g>
       <use style="stroke:#000000;stroke-width:0.5;" x="122.916652397" xlink:href="#m93b0483c22" y="244.518125"/>
      </g>
     </g>
     <g id="line2d_12">
      <g>
       <use style="stroke:#000000;stroke-width:0.5;" x="122.916652397" xlink:href="#m741efc42ff" y="21.318125"/>
      </g>
     </g>
     <g id="text_3">
      <!-- 100 -->
      <defs>
       <path d="
M12.4062 8.29688
L28.5156 8.29688
L28.5156 63.9219
L10.9844 60.4062
L10.9844 69.3906
L28.4219 72.9062
L38.2812 72.9062
L38.2812 8.29688
L54.3906 8.29688
L54.3906 0
L12.4062 0
z
" id="BitstreamVeraSans-Roman-31"/>
      </defs>
      <g transform="translate(114.254152397 256.1165625)scale(0.1 -0.1)">
       <use xlink:href="#BitstreamVeraSans-Roman-31"/>
       <use x="63.623046875" xlink:href="#BitstreamVeraSans-Roman-30"/>
       <use x="127.24609375" xlink:href="#BitstreamVeraSans-Roman-30"/>
      </g>
     </g>
    </g>
    <g id="xtick_4">
     <g id="line2d_13">
      <g>
       <use style="stroke:#000000;stroke-width:0.5;" x="168.779666096" xlink:href="#m93b0483c22" y="244.518125"/>
      </g>
     </g>
     <g id="line2d_14">
      <g>
       <use style="stroke:#000000;stroke-width:0.5;" x="168.779666096" xlink:href="#m741efc42ff" y="21.318125"/>
      </g>
     </g>
     <g id="text_4">
      <!-- 150 -->
      <g transform="translate(160.117166096 256.1165625)scale(0.1 -0.1)">
       <use xlink:href="#BitstreamVeraSans-Roman-31"/>
       <use x="63.623046875" xlink:href="#BitstreamVeraSans-Roman-35"/>
       <use x="127.24609375" xlink:href="#BitstreamVeraSans-Roman-30"/>
      </g>
     </g>
    </g>
    <g id="xtick_5">
     <g id="line2d_15">
      <g>
       <use style="stroke:#000000;stroke-width:0.5;" x="214.642679795" xlink:href="#m93b0483c22" y="244.518125"/>
      </g>
     </g>
     <g id="line2d_16">
      <g>
       <use style="stroke:#000000;stroke-width:0.5;" x="214.642679795" xlink:href="#m741efc42ff" y="21.318125"/>
      </g>
     </g>
     <g id="text_5">
      <!-- 200 -->
      <defs>
       <path d="
M19.1875 8.29688
L53.6094 8.29688
L53.6094 0
L7.32812 0
L7.32812 8.29688
Q12.9375 14.1094 22.625 23.8906
Q32.3281 33.6875 34.8125 36.5312
Q39.5469 41.8438 41.4219 45.5312
Q43.3125 49.2188 43.3125 52.7812
Q43.3125 58.5938 39.2344 62.25
Q35.1562 65.9219 28.6094 65.9219
Q23.9688 65.9219 18.8125 64.3125
Q13.6719 62.7031 7.8125 59.4219
L7.8125 69.3906
Q13.7656 71.7812 18.9375 73
Q24.125 74.2188 28.4219 74.2188
Q39.75 74.2188 46.4844 68.5469
Q53.2188 62.8906 53.2188 53.4219
Q53.2188 48.9219 51.5312 44.8906
Q49.8594 40.875 45.4062 35.4062
Q44.1875 33.9844 37.6406 27.2188
Q31.1094 20.4531 19.1875 8.29688" id="BitstreamVeraSans-Roman-32"/>
      </defs>
      <g transform="translate(205.797367295 256.1165625)scale(0.1 -0.1)">
       <use xlink:href="#BitstreamVeraSans-Roman-32"/>
       <use x="63.623046875" xlink:href="#BitstreamVeraSans-Roman-30"/>
       <use x="127.24609375" xlink:href="#BitstreamVeraSans-Roman-30"/>
      </g>
     </g>
    </g>
    <g id="xtick_6">
     <g id="line2d_17">
      <g>
       <use style="stroke:#000000;stroke-width:0.5;" x="260.505693493" xlink:href="#m93b0483c22" y="244.518125"/>
      </g>
     </g>
     <g id="line2d_18">
      <g>
       <use style="stroke:#000000;stroke-width:0.5;" x="260.505693493" xlink:href="#m741efc42ff" y="21.318125"/>
      </g>
     </g>
     <g id="text_6">
      <!-- 250 -->
      <g transform="translate(251.660380993 256.1165625)scale(0.1 -0.1)">
       <use xlink:href="#BitstreamVeraSans-Roman-32"/>
       <use x="63.623046875" xlink:href="#BitstreamVeraSans-Roman-35"/>
       <use x="127.24609375" xlink:href="#BitstreamVeraSans-Roman-30"/>
      </g>
     </g>
    </g>
    <g id="xtick_7">
     <g id="line2d_19">
      <g>
       <use style="stroke:#000000;stroke-width:0.5;" x="306.368707192" xlink:href="#m93b0483c22" y="244.518125"/>
      </g>
     </g>
     <g id="line2d_20">
      <g>
       <use style="stroke:#000000;stroke-width:0.5;" x="306.368707192" xlink:href="#m741efc42ff" y="21.318125"/>
      </g>
     </g>
     <g id="text_7">
      <!-- 300 -->
      <defs>
       <path d="
M40.5781 39.3125
Q47.6562 37.7969 51.625 33
Q55.6094 28.2188 55.6094 21.1875
Q55.6094 10.4062 48.1875 4.48438
Q40.7656 -1.42188 27.0938 -1.42188
Q22.5156 -1.42188 17.6562 -0.515625
Q12.7969 0.390625 7.625 2.20312
L7.625 11.7188
Q11.7188 9.32812 16.5938 8.10938
Q21.4844 6.89062 26.8125 6.89062
Q36.0781 6.89062 40.9375 10.5469
Q45.7969 14.2031 45.7969 21.1875
Q45.7969 27.6406 41.2812 31.2656
Q36.7656 34.9062 28.7188 34.9062
L20.2188 34.9062
L20.2188 43.0156
L29.1094 43.0156
Q36.375 43.0156 40.2344 45.9219
Q44.0938 48.8281 44.0938 54.2969
Q44.0938 59.9062 40.1094 62.9062
Q36.1406 65.9219 28.7188 65.9219
Q24.6562 65.9219 20.0156 65.0312
Q15.375 64.1562 9.8125 62.3125
L9.8125 71.0938
Q15.4375 72.6562 20.3438 73.4375
Q25.25 74.2188 29.5938 74.2188
Q40.8281 74.2188 47.3594 69.1094
Q53.9062 64.0156 53.9062 55.3281
Q53.9062 49.2656 50.4375 45.0938
Q46.9688 40.9219 40.5781 39.3125" id="BitstreamVeraSans-Roman-33"/>
      </defs>
      <g transform="translate(297.538238442 256.1165625)scale(0.1 -0.1)">
       <use xlink:href="#BitstreamVeraSans-Roman-33"/>
       <use x="63.623046875" xlink:href="#BitstreamVeraSans-Roman-30"/>
       <use x="127.24609375" xlink:href="#BitstreamVeraSans-Roman-30"/>
      </g>
     </g>
    </g>
    <g id="xtick_8">
     <g id="line2d_21">
      <g>
       <use style="stroke:#000000;stroke-width:0.5;" x="352.23172089" xlink:href="#m93b0483c22" y="244.518125"/>
      </g>
     </g>
     <g id="line2d_22">
      <g>
       <use style="stroke:#000000;stroke-width:0.5;" x="352.23172089" xlink:href="#m741efc42ff" y="21.318125"/>
      </g>
     </g>
     <g id="text_8">
      <!-- 350 -->
      <g transform="translate(343.40125214 256.1165625)scale(0.1 -0.1)">
       <use xlink:href="#BitstreamVeraSans-Roman-33"/>
       <use x="63.623046875" xlink:href="#BitstreamVeraSans-Roman-35"/>
       <use x="127.24609375" xlink:href="#BitstreamVeraSans-Roman-30"/>
      </g>
     </g>
    </g>
    <g id="text_9">
     <!-- Julian day -->
     <defs>
      <path id="BitstreamVeraSans-Roman-20"/>
      <path d="
M9.8125 72.9062
L19.6719 72.9062
L19.6719 5.07812
Q19.6719 -8.10938 14.6719 -14.0625
Q9.67188 -20.0156 -1.42188 -20.0156
L-5.17188 -20.0156
L-5.17188 -11.7188
L-2.09375 -11.7188
Q4.4375 -11.7188 7.125 -8.04688
Q9.8125 -4.39062 9.8125 5.07812
z
" id="BitstreamVeraSans-Roman-4a"/>
      <path d="
M54.8906 33.0156
L54.8906 0
L45.9062 0
L45.9062 32.7188
Q45.9062 40.4844 42.875 44.3281
Q39.8438 48.1875 33.7969 48.1875
Q26.5156 48.1875 22.3125 43.5469
Q18.1094 38.9219 18.1094 30.9062
L18.1094 0
L9.07812 0
L9.07812 54.6875
L18.1094 54.6875
L18.1094 46.1875
Q21.3438 51.125 25.7031 53.5625
Q30.0781 56 35.7969 56
Q45.2188 56 50.0469 50.1719
Q54.8906 44.3438 54.8906 33.0156" id="BitstreamVeraSans-Roman-6e"/>
      <path d="
M9.42188 75.9844
L18.4062 75.9844
L18.4062 0
L9.42188 0
z
" id="BitstreamVeraSans-Roman-6c"/>
      <path d="
M9.42188 54.6875
L18.4062 54.6875
L18.4062 0
L9.42188 0
z

M9.42188 75.9844
L18.4062 75.9844
L18.4062 64.5938
L9.42188 64.5938
z
" id="BitstreamVeraSans-Roman-69"/>
      <path d="
M32.1719 -5.07812
Q28.375 -14.8438 24.75 -17.8125
Q21.1406 -20.7969 15.0938 -20.7969
L7.90625 -20.7969
L7.90625 -13.2812
L13.1875 -13.2812
Q16.8906 -13.2812 18.9375 -11.5156
Q21 -9.76562 23.4844 -3.21875
L25.0938 0.875
L2.98438 54.6875
L12.5 54.6875
L29.5938 11.9219
L46.6875 54.6875
L56.2031 54.6875
z
" id="BitstreamVeraSans-Roman-79"/>
      <path d="
M45.4062 46.3906
L45.4062 75.9844
L54.3906 75.9844
L54.3906 0
L45.4062 0
L45.4062 8.20312
Q42.5781 3.32812 38.25 0.953125
Q33.9375 -1.42188 27.875 -1.42188
Q17.9688 -1.42188 11.7344 6.48438
Q5.51562 14.4062 5.51562 27.2969
Q5.51562 40.1875 11.7344 48.0938
Q17.9688 56 27.875 56
Q33.9375 56 38.25 53.625
Q42.5781 51.2656 45.4062 46.3906
M14.7969 27.2969
Q14.7969 17.3906 18.875 11.75
Q22.9531 6.10938 30.0781 6.10938
Q37.2031 6.10938 41.2969 11.75
Q45.4062 17.3906 45.4062 27.2969
Q45.4062 37.2031 41.2969 42.8438
Q37.2031 48.4844 30.0781 48.4844
Q22.9531 48.4844 18.875 42.8438
Q14.7969 37.2031 14.7969 27.2969" id="BitstreamVeraSans-Roman-64"/>
      <path d="
M8.5 21.5781
L8.5 54.6875
L17.4844 54.6875
L17.4844 21.9219
Q17.4844 14.1562 20.5 10.2656
Q23.5312 6.39062 29.5938 6.39062
Q36.8594 6.39062 41.0781 11.0312
Q45.3125 15.6719 45.3125 23.6875
L45.3125 54.6875
L54.2969 54.6875
L54.2969 0
L45.3125 0
L45.3125 8.40625
Q42.0469 3.42188 37.7188 1
Q33.4062 -1.42188 27.6875 -1.42188
Q18.2656 -1.42188 13.375 4.4375
Q8.5 10.2969 8.5 21.5781" id="BitstreamVeraSans-Roman-75"/>
      <path d="
M34.2812 27.4844
Q23.3906 27.4844 19.1875 25
Q14.9844 22.5156 14.9844 16.5
Q14.9844 11.7188 18.1406 8.90625
Q21.2969 6.10938 26.7031 6.10938
Q34.1875 6.10938 38.7031 11.4062
Q43.2188 16.7031 43.2188 25.4844
L43.2188 27.4844
z

M52.2031 31.2031
L52.2031 0
L43.2188 0
L43.2188 8.29688
Q40.1406 3.32812 35.5469 0.953125
Q30.9531 -1.42188 24.3125 -1.42188
Q15.9219 -1.42188 10.9531 3.29688
Q6 8.01562 6 15.9219
Q6 25.1406 12.1719 29.8281
Q18.3594 34.5156 30.6094 34.5156
L43.2188 34.5156
L43.2188 35.4062
Q43.2188 41.6094 39.1406 45
Q35.0625 48.3906 27.6875 48.3906
Q23 48.3906 18.5469 47.2656
Q14.1094 46.1406 10.0156 43.8906
L10.0156 52.2031
Q14.9375 54.1094 19.5781 55.0469
Q24.2188 56 28.6094 56
Q40.4844 56 46.3438 49.8438
Q52.2031 43.7031 52.2031 31.2031" id="BitstreamVeraSans-Roman-61"/>
     </defs>
     <g transform="translate(174.03984375 270.7946875)scale(0.1 -0.1)">
      <use xlink:href="#BitstreamVeraSans-Roman-4a"/>
      <use x="29.4921875" xlink:href="#BitstreamVeraSans-Roman-75"/>
      <use x="92.87109375" xlink:href="#BitstreamVeraSans-Roman-6c"/>
      <use x="120.654296875" xlink:href="#BitstreamVeraSans-Roman-69"/>
      <use x="148.4375" xlink:href="#BitstreamVeraSans-Roman-61"/>
      <use x="209.716796875" xlink:href="#BitstreamVeraSans-Roman-6e"/>
      <use x="273.095703125" xlink:href="#BitstreamVeraSans-Roman-20"/>
      <use x="304.8828125" xlink:href="#BitstreamVeraSans-Roman-64"/>
      <use x="368.359375" xlink:href="#BitstreamVeraSans-Roman-61"/>
      <use x="429.638671875" xlink:href="#BitstreamVeraSans-Roman-79"/>
     </g>
    </g>
   </g>
   <g id="matplotlib.axis_2">
    <g id="ytick_1">
     <g id="line2d_23">
      <defs>
       <path d="
M0 0
L4 0" id="m728421d6d4" style="stroke:#000000;stroke-width:0.5;"/>
      </defs>
      <g>
       <use style="stroke:#000000;stroke-width:0.5;" x="31.190625" xlink:href="#m728421d6d4" y="244.518125"/>
      </g>
     </g>
     <g id="line2d_24">
      <defs>
       <path d="
M0 0
L-4 0" id="mcb0005524f" style="stroke:#000000;stroke-width:0.5;"/>
      </defs>
      <g>
       <use style="stroke:#000000;stroke-width:0.5;" x="365.990625" xlink:href="#mcb0005524f" y="244.518125"/>
      </g>
     </g>
     <g id="text_10">
      <!-- 0 -->
      <g transform="translate(22.1515625 247.2775)scale(0.1 -0.1)">
       <use xlink:href="#BitstreamVeraSans-Roman-30"/>
      </g>
     </g>
    </g>
    <g id="ytick_2">
     <g id="line2d_25">
      <g>
       <use style="stroke:#000000;stroke-width:0.5;" x="31.190625" xlink:href="#m728421d6d4" y="212.632410714"/>
      </g>
     </g>
     <g id="line2d_26">
      <g>
       <use style="stroke:#000000;stroke-width:0.5;" x="365.990625" xlink:href="#mcb0005524f" y="212.632410714"/>
      </g>
     </g>
     <g id="text_11">
      <!-- 1 -->
      <g transform="translate(22.85 215.391785714)scale(0.1 -0.1)">
       <use xlink:href="#BitstreamVeraSans-Roman-31"/>
      </g>
     </g>
    </g>
    <g id="ytick_3">
     <g id="line2d_27">
      <g>
       <use style="stroke:#000000;stroke-width:0.5;" x="31.190625" xlink:href="#m728421d6d4" y="180.746696429"/>
      </g>
     </g>
     <g id="line2d_28">
      <g>
       <use style="stroke:#000000;stroke-width:0.5;" x="365.990625" xlink:href="#mcb0005524f" y="180.746696429"/>
      </g>
     </g>
     <g id="text_12">
      <!-- 2 -->
      <g transform="translate(22.5625 183.506071429)scale(0.1 -0.1)">
       <use xlink:href="#BitstreamVeraSans-Roman-32"/>
      </g>
     </g>
    </g>
    <g id="ytick_4">
     <g id="line2d_29">
      <g>
       <use style="stroke:#000000;stroke-width:0.5;" x="31.190625" xlink:href="#m728421d6d4" y="148.860982143"/>
      </g>
     </g>
     <g id="line2d_30">
      <g>
       <use style="stroke:#000000;stroke-width:0.5;" x="365.990625" xlink:href="#mcb0005524f" y="148.860982143"/>
      </g>
     </g>
     <g id="text_13">
      <!-- 3 -->
      <g transform="translate(22.3921875 151.620357143)scale(0.1 -0.1)">
       <use xlink:href="#BitstreamVeraSans-Roman-33"/>
      </g>
     </g>
    </g>
    <g id="ytick_5">
     <g id="line2d_31">
      <g>
       <use style="stroke:#000000;stroke-width:0.5;" x="31.190625" xlink:href="#m728421d6d4" y="116.975267857"/>
      </g>
     </g>
     <g id="line2d_32">
      <g>
       <use style="stroke:#000000;stroke-width:0.5;" x="365.990625" xlink:href="#mcb0005524f" y="116.975267857"/>
      </g>
     </g>
     <g id="text_14">
      <!-- 4 -->
      <defs>
       <path d="
M37.7969 64.3125
L12.8906 25.3906
L37.7969 25.3906
z

M35.2031 72.9062
L47.6094 72.9062
L47.6094 25.3906
L58.0156 25.3906
L58.0156 17.1875
L47.6094 17.1875
L47.6094 0
L37.7969 0
L37.7969 17.1875
L4.89062 17.1875
L4.89062 26.7031
z
" id="BitstreamVeraSans-Roman-34"/>
      </defs>
      <g transform="translate(21.878125 119.734642857)scale(0.1 -0.1)">
       <use xlink:href="#BitstreamVeraSans-Roman-34"/>
      </g>
     </g>
    </g>
    <g id="ytick_6">
     <g id="line2d_33">
      <g>
       <use style="stroke:#000000;stroke-width:0.5;" x="31.190625" xlink:href="#m728421d6d4" y="85.0895535714"/>
      </g>
     </g>
     <g id="line2d_34">
      <g>
       <use style="stroke:#000000;stroke-width:0.5;" x="365.990625" xlink:href="#mcb0005524f" y="85.0895535714"/>
      </g>
     </g>
     <g id="text_15">
      <!-- 5 -->
      <g transform="translate(22.4734375 87.8489285714)scale(0.1 -0.1)">
       <use xlink:href="#BitstreamVeraSans-Roman-35"/>
      </g>
     </g>
    </g>
    <g id="ytick_7">
     <g id="line2d_35">
      <g>
       <use style="stroke:#000000;stroke-width:0.5;" x="31.190625" xlink:href="#m728421d6d4" y="53.2038392857"/>
      </g>
     </g>
     <g id="line2d_36">
      <g>
       <use style="stroke:#000000;stroke-width:0.5;" x="365.990625" xlink:href="#mcb0005524f" y="53.2038392857"/>
      </g>
     </g>
     <g id="text_16">
      <!-- 6 -->
      <defs>
       <path d="
M33.0156 40.375
Q26.375 40.375 22.4844 35.8281
Q18.6094 31.2969 18.6094 23.3906
Q18.6094 15.5312 22.4844 10.9531
Q26.375 6.39062 33.0156 6.39062
Q39.6562 6.39062 43.5312 10.9531
Q47.4062 15.5312 47.4062 23.3906
Q47.4062 31.2969 43.5312 35.8281
Q39.6562 40.375 33.0156 40.375
M52.5938 71.2969
L52.5938 62.3125
Q48.875 64.0625 45.0938 64.9844
Q41.3125 65.9219 37.5938 65.9219
Q27.8281 65.9219 22.6719 59.3281
Q17.5312 52.7344 16.7969 39.4062
Q19.6719 43.6562 24.0156 45.9219
Q28.375 48.1875 33.5938 48.1875
Q44.5781 48.1875 50.9531 41.5156
Q57.3281 34.8594 57.3281 23.3906
Q57.3281 12.1562 50.6875 5.35938
Q44.0469 -1.42188 33.0156 -1.42188
Q20.3594 -1.42188 13.6719 8.26562
Q6.98438 17.9688 6.98438 36.375
Q6.98438 53.6562 15.1875 63.9375
Q23.3906 74.2188 37.2031 74.2188
Q40.9219 74.2188 44.7031 73.4844
Q48.4844 72.75 52.5938 71.2969" id="BitstreamVeraSans-Roman-36"/>
      </defs>
      <g transform="translate(22.15625 55.9632142857)scale(0.1 -0.1)">
       <use xlink:href="#BitstreamVeraSans-Roman-36"/>
      </g>
     </g>
    </g>
    <g id="ytick_8">
     <g id="line2d_37">
      <g>
       <use style="stroke:#000000;stroke-width:0.5;" x="31.190625" xlink:href="#m728421d6d4" y="21.318125"/>
      </g>
     </g>
     <g id="line2d_38">
      <g>
       <use style="stroke:#000000;stroke-width:0.5;" x="365.990625" xlink:href="#mcb0005524f" y="21.318125"/>
      </g>
     </g>
     <g id="text_17">
      <!-- 7 -->
      <defs>
       <path d="
M8.20312 72.9062
L55.0781 72.9062
L55.0781 68.7031
L28.6094 0
L18.3125 0
L43.2188 64.5938
L8.20312 64.5938
z
" id="BitstreamVeraSans-Roman-37"/>
      </defs>
      <g transform="translate(22.503125 24.0775)scale(0.1 -0.1)">
       <use xlink:href="#BitstreamVeraSans-Roman-37"/>
      </g>
     </g>
    </g>
    <g id="text_18">
     <!-- PET (mm/day) -->
     <defs>
      <path d="
M52 44.1875
Q55.375 50.25 60.0625 53.125
Q64.75 56 71.0938 56
Q79.6406 56 84.2812 50.0156
Q88.9219 44.0469 88.9219 33.0156
L88.9219 0
L79.8906 0
L79.8906 32.7188
Q79.8906 40.5781 77.0938 44.375
Q74.3125 48.1875 68.6094 48.1875
Q61.625 48.1875 57.5625 43.5469
Q53.5156 38.9219 53.5156 30.9062
L53.5156 0
L44.4844 0
L44.4844 32.7188
Q44.4844 40.625 41.7031 44.4062
Q38.9219 48.1875 33.1094 48.1875
Q26.2188 48.1875 22.1562 43.5312
Q18.1094 38.875 18.1094 30.9062
L18.1094 0
L9.07812 0
L9.07812 54.6875
L18.1094 54.6875
L18.1094 46.1875
Q21.1875 51.2188 25.4844 53.6094
Q29.7812 56 35.6875 56
Q41.6562 56 45.8281 52.9688
Q50 49.9531 52 44.1875" id="BitstreamVeraSans-Roman-6d"/>
      <path d="
M8.01562 75.875
L15.8281 75.875
Q23.1406 64.3594 26.7812 53.3125
Q30.4219 42.2812 30.4219 31.3906
Q30.4219 20.4531 26.7812 9.375
Q23.1406 -1.70312 15.8281 -13.1875
L8.01562 -13.1875
Q14.5 -2 17.7031 9.0625
Q20.9062 20.125 20.9062 31.3906
Q20.9062 42.6719 17.7031 53.6562
Q14.5 64.6562 8.01562 75.875" id="BitstreamVeraSans-Roman-29"/>
      <path d="
M31 75.875
Q24.4688 64.6562 21.2812 53.6562
Q18.1094 42.6719 18.1094 31.3906
Q18.1094 20.125 21.3125 9.0625
Q24.5156 -2 31 -13.1875
L23.1875 -13.1875
Q15.875 -1.70312 12.2344 9.375
Q8.59375 20.4531 8.59375 31.3906
Q8.59375 42.2812 12.2031 53.3125
Q15.8281 64.3594 23.1875 75.875
z
" id="BitstreamVeraSans-Roman-28"/>
      <path d="
M19.6719 64.7969
L19.6719 37.4062
L32.0781 37.4062
Q38.9688 37.4062 42.7188 40.9688
Q46.4844 44.5312 46.4844 51.125
Q46.4844 57.6719 42.7188 61.2344
Q38.9688 64.7969 32.0781 64.7969
z

M9.8125 72.9062
L32.0781 72.9062
Q44.3438 72.9062 50.6094 67.3594
Q56.8906 61.8125 56.8906 51.125
Q56.8906 40.3281 50.6094 34.8125
Q44.3438 29.2969 32.0781 29.2969
L19.6719 29.2969
L19.6719 0
L9.8125 0
z
" id="BitstreamVeraSans-Roman-50"/>
      <path d="
M9.8125 72.9062
L55.9062 72.9062
L55.9062 64.5938
L19.6719 64.5938
L19.6719 43.0156
L54.3906 43.0156
L54.3906 34.7188
L19.6719 34.7188
L19.6719 8.29688
L56.7812 8.29688
L56.7812 0
L9.8125 0
z
" id="BitstreamVeraSans-Roman-45"/>
      <path d="
M-0.296875 72.9062
L61.375 72.9062
L61.375 64.5938
L35.5 64.5938
L35.5 0
L25.5938 0
L25.5938 64.5938
L-0.296875 64.5938
z
" id="BitstreamVeraSans-Roman-54"/>
      <path d="
M25.3906 72.9062
L33.6875 72.9062
L8.29688 -9.28125
L0 -9.28125
z
" id="BitstreamVeraSans-Roman-2f"/>
     </defs>
     <g transform="translate(14.7984375 167.82984375)rotate(-90.0)scale(0.1 -0.1)">
      <use xlink:href="#BitstreamVeraSans-Roman-50"/>
      <use x="60.302734375" xlink:href="#BitstreamVeraSans-Roman-45"/>
      <use x="123.486328125" xlink:href="#BitstreamVeraSans-Roman-54"/>
      <use x="184.5703125" xlink:href="#BitstreamVeraSans-Roman-20"/>
      <use x="216.357421875" xlink:href="#BitstreamVeraSans-Roman-28"/>
      <use x="255.37109375" xlink:href="#BitstreamVeraSans-Roman-6d"/>
      <use x="352.783203125" xlink:href="#BitstreamVeraSans-Roman-6d"/>
      <use x="450.1953125" xlink:href="#BitstreamVeraSans-Roman-2f"/>
      <use x="483.88671875" xlink:href="#BitstreamVeraSans-Roman-64"/>
      <use x="547.36328125" xlink:href="#BitstreamVeraSans-Roman-61"/>
      <use x="608.642578125" xlink:href="#BitstreamVeraSans-Roman-79"/>
      <use x="667.822265625" xlink:href="#BitstreamVeraSans-Roman-29"/>
     </g>
    </g>
   </g>
   <g id="text_19">
    <!-- daily grass PET at LowerWeather -->
    <defs>
     <path d="
M9.8125 72.9062
L19.6719 72.9062
L19.6719 8.29688
L55.1719 8.29688
L55.1719 0
L9.8125 0
z
" id="BitstreamVeraSans-Roman-4c"/>
     <path d="
M30.6094 48.3906
Q23.3906 48.3906 19.1875 42.75
Q14.9844 37.1094 14.9844 27.2969
Q14.9844 17.4844 19.1562 11.8438
Q23.3438 6.20312 30.6094 6.20312
Q37.7969 6.20312 41.9844 11.8594
Q46.1875 17.5312 46.1875 27.2969
Q46.1875 37.0156 41.9844 42.7031
Q37.7969 48.3906 30.6094 48.3906
M30.6094 56
Q42.3281 56 49.0156 48.375
Q55.7188 40.7656 55.7188 27.2969
Q55.7188 13.875 49.0156 6.21875
Q42.3281 -1.42188 30.6094 -1.42188
Q18.8438 -1.42188 12.1719 6.21875
Q5.51562 13.875 5.51562 27.2969
Q5.51562 40.7656 12.1719 48.375
Q18.8438 56 30.6094 56" id="BitstreamVeraSans-Roman-6f"/>
     <path d="
M44.2812 53.0781
L44.2812 44.5781
Q40.4844 46.5312 36.375 47.5
Q32.2812 48.4844 27.875 48.4844
Q21.1875 48.4844 17.8438 46.4375
Q14.5 44.3906 14.5 40.2812
Q14.5 37.1562 16.8906 35.375
Q19.2812 33.5938 26.5156 31.9844
L29.5938 31.2969
Q39.1562 29.25 43.1875 25.5156
Q47.2188 21.7812 47.2188 15.0938
Q47.2188 7.46875 41.1875 3.01562
Q35.1562 -1.42188 24.6094 -1.42188
Q20.2188 -1.42188 15.4531 -0.5625
Q10.6875 0.296875 5.42188 2
L5.42188 11.2812
Q10.4062 8.6875 15.2344 7.39062
Q20.0625 6.10938 24.8125 6.10938
Q31.1562 6.10938 34.5625 8.28125
Q37.9844 10.4531 37.9844 14.4062
Q37.9844 18.0625 35.5156 20.0156
Q33.0625 21.9688 24.7031 23.7812
L21.5781 24.5156
Q13.2344 26.2656 9.51562 29.9062
Q5.8125 33.5469 5.8125 39.8906
Q5.8125 47.6094 11.2812 51.7969
Q16.75 56 26.8125 56
Q31.7812 56 36.1719 55.2656
Q40.5781 54.5469 44.2812 53.0781" id="BitstreamVeraSans-Roman-73"/>
     <path d="
M54.8906 33.0156
L54.8906 0
L45.9062 0
L45.9062 32.7188
Q45.9062 40.4844 42.875 44.3281
Q39.8438 48.1875 33.7969 48.1875
Q26.5156 48.1875 22.3125 43.5469
Q18.1094 38.9219 18.1094 30.9062
L18.1094 0
L9.07812 0
L9.07812 75.9844
L18.1094 75.9844
L18.1094 46.1875
Q21.3438 51.125 25.7031 53.5625
Q30.0781 56 35.7969 56
Q45.2188 56 50.0469 50.1719
Q54.8906 44.3438 54.8906 33.0156" id="BitstreamVeraSans-Roman-68"/>
     <path d="
M3.32812 72.9062
L13.2812 72.9062
L28.6094 11.2812
L43.8906 72.9062
L54.9844 72.9062
L70.3125 11.2812
L85.5938 72.9062
L95.6094 72.9062
L77.2969 0
L64.8906 0
L49.5156 63.2812
L33.9844 0
L21.5781 0
z
" id="BitstreamVeraSans-Roman-57"/>
     <path d="
M56.2031 29.5938
L56.2031 25.2031
L14.8906 25.2031
Q15.4844 15.9219 20.4844 11.0625
Q25.4844 6.20312 34.4219 6.20312
Q39.5938 6.20312 44.4531 7.46875
Q49.3125 8.73438 54.1094 11.2812
L54.1094 2.78125
Q49.2656 0.734375 44.1875 -0.34375
Q39.1094 -1.42188 33.8906 -1.42188
Q20.7969 -1.42188 13.1562 6.1875
Q5.51562 13.8125 5.51562 26.8125
Q5.51562 40.2344 12.7656 48.1094
Q20.0156 56 32.3281 56
Q43.3594 56 49.7812 48.8906
Q56.2031 41.7969 56.2031 29.5938
M47.2188 32.2344
Q47.125 39.5938 43.0938 43.9844
Q39.0625 48.3906 32.4219 48.3906
Q24.9062 48.3906 20.3906 44.1406
Q15.875 39.8906 15.1875 32.1719
z
" id="BitstreamVeraSans-Roman-65"/>
     <path d="
M4.20312 54.6875
L13.1875 54.6875
L24.4219 12.0156
L35.5938 54.6875
L46.1875 54.6875
L57.4219 12.0156
L68.6094 54.6875
L77.5938 54.6875
L63.2812 0
L52.6875 0
L40.9219 44.8281
L29.1094 0
L18.5 0
z
" id="BitstreamVeraSans-Roman-77"/>
     <path d="
M18.3125 70.2188
L18.3125 54.6875
L36.8125 54.6875
L36.8125 47.7031
L18.3125 47.7031
L18.3125 18.0156
Q18.3125 11.3281 20.1406 9.42188
Q21.9688 7.51562 27.5938 7.51562
L36.8125 7.51562
L36.8125 0
L27.5938 0
Q17.1875 0 13.2344 3.875
Q9.28125 7.76562 9.28125 18.0156
L9.28125 47.7031
L2.6875 47.7031
L2.6875 54.6875
L9.28125 54.6875
L9.28125 70.2188
z
" id="BitstreamVeraSans-Roman-74"/>
     <path d="
M41.1094 46.2969
Q39.5938 47.1719 37.8125 47.5781
Q36.0312 48 33.8906 48
Q26.2656 48 22.1875 43.0469
Q18.1094 38.0938 18.1094 28.8125
L18.1094 0
L9.07812 0
L9.07812 54.6875
L18.1094 54.6875
L18.1094 46.1875
Q20.9531 51.1719 25.4844 53.5781
Q30.0312 56 36.5312 56
Q37.4531 56 38.5781 55.875
Q39.7031 55.7656 41.0625 55.5156
z
" id="BitstreamVeraSans-Roman-72"/>
     <path d="
M45.4062 27.9844
Q45.4062 37.75 41.375 43.1094
Q37.3594 48.4844 30.0781 48.4844
Q22.8594 48.4844 18.8281 43.1094
Q14.7969 37.75 14.7969 27.9844
Q14.7969 18.2656 18.8281 12.8906
Q22.8594 7.51562 30.0781 7.51562
Q37.3594 7.51562 41.375 12.8906
Q45.4062 18.2656 45.4062 27.9844
M54.3906 6.78125
Q54.3906 -7.17188 48.1875 -13.9844
Q42 -20.7969 29.2031 -20.7969
Q24.4688 -20.7969 20.2656 -20.0938
Q16.0625 -19.3906 12.1094 -17.9219
L12.1094 -9.1875
Q16.0625 -11.3281 19.9219 -12.3438
Q23.7812 -13.375 27.7812 -13.375
Q36.625 -13.375 41.0156 -8.76562
Q45.4062 -4.15625 45.4062 5.17188
L45.4062 9.625
Q42.625 4.78125 38.2812 2.39062
Q33.9375 0 27.875 0
Q17.8281 0 11.6719 7.65625
Q5.51562 15.3281 5.51562 27.9844
Q5.51562 40.6719 11.6719 48.3281
Q17.8281 56 27.875 56
Q33.9375 56 38.2812 53.6094
Q42.625 51.2188 45.4062 46.3906
L45.4062 54.6875
L54.3906 54.6875
z
" id="BitstreamVeraSans-Roman-67"/>
    </defs>
    <g transform="translate(100.0490625 16.318125)scale(0.12 -0.12)">
     <use xlink:href="#BitstreamVeraSans-Roman-64"/>
     <use x="63.4765625" xlink:href="#BitstreamVeraSans-Roman-61"/>
     <use x="124.755859375" xlink:href="#BitstreamVeraSans-Roman-69"/>
     <use x="152.5390625" xlink:href="#BitstreamVeraSans-Roman-6c"/>
     <use x="180.322265625" xlink:href="#BitstreamVeraSans-Roman-79"/>
     <use x="239.501953125" xlink:href="#BitstreamVeraSans-Roman-20"/>
     <use x="271.2890625" xlink:href="#BitstreamVeraSans-Roman-67"/>
     <use x="334.765625" xlink:href="#BitstreamVeraSans-Roman-72"/>
     <use x="375.87890625" xlink:href="#BitstreamVeraSans-Roman-61"/>
     <use x="437.158203125" xlink:href="#BitstreamVeraSans-Roman-73"/>
     <use x="489.2578125" xlink:href="#BitstreamVeraSans-Roman-73"/>
     <use x="541.357421875" xlink:href="#BitstreamVeraSans-Roman-20"/>
     <use x="573.14453125" xlink:href="#BitstreamVeraSans-Roman-50"/>
     <use x="633.447265625" xlink:href="#BitstreamVeraSans-Roman-45"/>
     <use x="696.630859375" xlink:href="#BitstreamVeraSans-Roman-54"/>
     <use x="757.71484375" xlink:href="#BitstreamVeraSans-Roman-20"/>
     <use x="789.501953125" xlink:href="#BitstreamVeraSans-Roman-61"/>
     <use x="850.78125" xlink:href="#BitstreamVeraSans-Roman-74"/>
     <use x="889.990234375" xlink:href="#BitstreamVeraSans-Roman-20"/>
     <use x="921.77734375" xlink:href="#BitstreamVeraSans-Roman-4c"/>
     <use x="975.740234375" xlink:href="#BitstreamVeraSans-Roman-6f"/>
     <use x="1036.921875" xlink:href="#BitstreamVeraSans-Roman-77"/>
     <use x="1118.70898438" xlink:href="#BitstreamVeraSans-Roman-65"/>
     <use x="1180.23242188" xlink:href="#BitstreamVeraSans-Roman-72"/>
     <use x="1221.34570312" xlink:href="#BitstreamVeraSans-Roman-57"/>
     <use x="1314.34765625" xlink:href="#BitstreamVeraSans-Roman-65"/>
     <use x="1375.87109375" xlink:href="#BitstreamVeraSans-Roman-61"/>
     <use x="1437.15039062" xlink:href="#BitstreamVeraSans-Roman-74"/>
     <use x="1476.359375" xlink:href="#BitstreamVeraSans-Roman-68"/>
     <use x="1539.73828125" xlink:href="#BitstreamVeraSans-Roman-65"/>
     <use x="1601.26171875" xlink:href="#BitstreamVeraSans-Roman-72"/>
    </g>
   </g>
   <g id="legend_1">
    <g id="patch_7">
     <path d="
M287.927 136.601
L359.991 136.601
L359.991 27.3181
L287.927 27.3181
z
" style="fill:#ffffff;stroke:#000000;stroke-linejoin:miter;"/>
    </g>
    <g id="line2d_39">
     <path d="
M296.327 37.0363
L313.127 37.0363" style="fill:none;stroke:#0000ff;stroke-linecap:square;"/>
    </g>
    <g id="line2d_40"/>
    <g id="text_20">
     <!-- 2007 -->
     <g transform="translate(326.326875 41.23625)scale(0.12 -0.12)">
      <use xlink:href="#BitstreamVeraSans-Roman-32"/>
      <use x="63.623046875" xlink:href="#BitstreamVeraSans-Roman-30"/>
      <use x="127.24609375" xlink:href="#BitstreamVeraSans-Roman-30"/>
      <use x="190.869140625" xlink:href="#BitstreamVeraSans-Roman-37"/>
     </g>
    </g>
    <g id="line2d_41">
     <path d="
M296.327 54.65
L313.127 54.65" style="fill:none;stroke:#008000;stroke-linecap:square;"/>
    </g>
    <g id="line2d_42"/>
    <g id="text_21">
     <!-- 2008 -->
     <defs>
      <path d="
M31.7812 34.625
Q24.75 34.625 20.7188 30.8594
Q16.7031 27.0938 16.7031 20.5156
Q16.7031 13.9219 20.7188 10.1562
Q24.75 6.39062 31.7812 6.39062
Q38.8125 6.39062 42.8594 10.1719
Q46.9219 13.9688 46.9219 20.5156
Q46.9219 27.0938 42.8906 30.8594
Q38.875 34.625 31.7812 34.625
M21.9219 38.8125
Q15.5781 40.375 12.0312 44.7188
Q8.5 49.0781 8.5 55.3281
Q8.5 64.0625 14.7188 69.1406
Q20.9531 74.2188 31.7812 74.2188
Q42.6719 74.2188 48.875 69.1406
Q55.0781 64.0625 55.0781 55.3281
Q55.0781 49.0781 51.5312 44.7188
Q48 40.375 41.7031 38.8125
Q48.8281 37.1562 52.7969 32.3125
Q56.7812 27.4844 56.7812 20.5156
Q56.7812 9.90625 50.3125 4.23438
Q43.8438 -1.42188 31.7812 -1.42188
Q19.7344 -1.42188 13.25 4.23438
Q6.78125 9.90625 6.78125 20.5156
Q6.78125 27.4844 10.7812 32.3125
Q14.7969 37.1562 21.9219 38.8125
M18.3125 54.3906
Q18.3125 48.7344 21.8438 45.5625
Q25.3906 42.3906 31.7812 42.3906
Q38.1406 42.3906 41.7188 45.5625
Q45.3125 48.7344 45.3125 54.3906
Q45.3125 60.0625 41.7188 63.2344
Q38.1406 66.4062 31.7812 66.4062
Q25.3906 66.4062 21.8438 63.2344
Q18.3125 60.0625 18.3125 54.3906" id="BitstreamVeraSans-Roman-38"/>
     </defs>
     <g transform="translate(326.326875 58.85)scale(0.12 -0.12)">
      <use xlink:href="#BitstreamVeraSans-Roman-32"/>
      <use x="63.623046875" xlink:href="#BitstreamVeraSans-Roman-30"/>
      <use x="127.24609375" xlink:href="#BitstreamVeraSans-Roman-30"/>
      <use x="190.869140625" xlink:href="#BitstreamVeraSans-Roman-38"/>
     </g>
    </g>
    <g id="line2d_43">
     <path d="
M296.327 72.2638
L313.127 72.2638" style="fill:none;stroke:#ff0000;stroke-linecap:square;"/>
    </g>
    <g id="line2d_44"/>
    <g id="text_22">
     <!-- 2009 -->
     <defs>
      <path d="
M10.9844 1.51562
L10.9844 10.5
Q14.7031 8.73438 18.5 7.8125
Q22.3125 6.89062 25.9844 6.89062
Q35.75 6.89062 40.8906 13.4531
Q46.0469 20.0156 46.7812 33.4062
Q43.9531 29.2031 39.5938 26.9531
Q35.25 24.7031 29.9844 24.7031
Q19.0469 24.7031 12.6719 31.3125
Q6.29688 37.9375 6.29688 49.4219
Q6.29688 60.6406 12.9375 67.4219
Q19.5781 74.2188 30.6094 74.2188
Q43.2656 74.2188 49.9219 64.5156
Q56.5938 54.8281 56.5938 36.375
Q56.5938 19.1406 48.4062 8.85938
Q40.2344 -1.42188 26.4219 -1.42188
Q22.7031 -1.42188 18.8906 -0.6875
Q15.0938 0.046875 10.9844 1.51562
M30.6094 32.4219
Q37.25 32.4219 41.125 36.9531
Q45.0156 41.5 45.0156 49.4219
Q45.0156 57.2812 41.125 61.8438
Q37.25 66.4062 30.6094 66.4062
Q23.9688 66.4062 20.0938 61.8438
Q16.2188 57.2812 16.2188 49.4219
Q16.2188 41.5 20.0938 36.9531
Q23.9688 32.4219 30.6094 32.4219" id="BitstreamVeraSans-Roman-39"/>
     </defs>
     <g transform="translate(326.326875 76.46375)scale(0.12 -0.12)">
      <use xlink:href="#BitstreamVeraSans-Roman-32"/>
      <use x="63.623046875" xlink:href="#BitstreamVeraSans-Roman-30"/>
      <use x="127.24609375" xlink:href="#BitstreamVeraSans-Roman-30"/>
      <use x="190.869140625" xlink:href="#BitstreamVeraSans-Roman-39"/>
     </g>
    </g>
    <g id="line2d_45">
     <path d="
M296.327 89.8775
L313.127 89.8775" style="fill:none;stroke:#00bfbf;stroke-linecap:square;"/>
    </g>
    <g id="line2d_46"/>
    <g id="text_23">
     <!-- 2010 -->
     <g transform="translate(326.326875 94.0775)scale(0.12 -0.12)">
      <use xlink:href="#BitstreamVeraSans-Roman-32"/>
      <use x="63.623046875" xlink:href="#BitstreamVeraSans-Roman-30"/>
      <use x="127.24609375" xlink:href="#BitstreamVeraSans-Roman-31"/>
      <use x="190.869140625" xlink:href="#BitstreamVeraSans-Roman-30"/>
     </g>
    </g>
    <g id="line2d_47">
     <path d="
M296.327 107.491
L313.127 107.491" style="fill:none;stroke:#bf00bf;stroke-linecap:square;"/>
    </g>
    <g id="line2d_48"/>
    <g id="text_24">
     <!-- 2011 -->
     <g transform="translate(326.326875 111.69125)scale(0.12 -0.12)">
      <use xlink:href="#BitstreamVeraSans-Roman-32"/>
      <use x="63.623046875" xlink:href="#BitstreamVeraSans-Roman-30"/>
      <use x="127.24609375" xlink:href="#BitstreamVeraSans-Roman-31"/>
      <use x="190.869140625" xlink:href="#BitstreamVeraSans-Roman-31"/>
     </g>
    </g>
    <g id="line2d_49">
     <path d="
M296.327 125.105
L313.127 125.105" style="fill:none;stroke:#bfbf00;stroke-linecap:square;"/>
    </g>
    <g id="line2d_50"/>
    <g id="text_25">
     <!-- 2012 -->
     <g transform="translate(326.326875 129.305)scale(0.12 -0.12)">
      <use xlink:href="#BitstreamVeraSans-Roman-32"/>
      <use x="63.623046875" xlink:href="#BitstreamVeraSans-Roman-30"/>
      <use x="127.24609375" xlink:href="#BitstreamVeraSans-Roman-31"/>
      <use x="190.869140625" xlink:href="#BitstreamVeraSans-Roman-32"/>
     </g>
    </g>
   </g>
  </g>
 </g>
 <defs>
  <clipPath id="pc1a11fcac8">
   <rect height="223.2" width="334.8" x="31.190625" y="21.318125"/>
  </clipPath>
 </defs>
</svg>
