<?xml version="1.0" encoding="utf-8" standalone="no"?>
<!DOCTYPE svg PUBLIC "-//W3C//DTD SVG 1.1//EN"
  "http://www.w3.org/Graphics/SVG/1.1/DTD/svg11.dtd">
<!-- Created with matplotlib (http://matplotlib.org/) -->
<svg height="284pt" version="1.1" viewBox="0 0 373 284" width="373pt" xmlns="http://www.w3.org/2000/svg" xmlns:xlink="http://www.w3.org/1999/xlink">
 <defs>
  <style type="text/css">
*{stroke-linecap:butt;stroke-linejoin:round;}
  </style>
 </defs>
 <g id="figure_1">
  <g id="patch_1">
   <path d="
M0 284.711
L373.191 284.711
L373.191 0
L0 0
z
" style="fill:#ffffff;"/>
  </g>
  <g id="axes_1">
   <g id="patch_2">
    <path d="
M31.1906 244.518
L365.991 244.518
L365.991 21.3181
L31.1906 21.3181
z
" style="fill:#ffffff;"/>
   </g>
   <g id="line2d_1">
    <path clip-path="url(#p95a2ee5e18)" d="
M0 0" style="fill:none;stroke:#0000ff;stroke-linecap:square;"/>
   </g>
   <g id="line2d_2">
    <path clip-path="url(#p95a2ee5e18)" d="
M0 0" style="fill:none;stroke:#008000;stroke-linecap:square;"/>
   </g>
   <g id="line2d_3">
    <path clip-path="url(#p95a2ee5e18)" d="
M0 0" style="fill:none;stroke:#ff0000;stroke-linecap:square;"/>
   </g>
   <g id="line2d_4">
    <path clip-path="url(#p95a2ee5e18)" d="
M0 0" style="fill:none;stroke:#00bfbf;stroke-linecap:square;"/>
   </g>
   <g id="line2d_5">
    <path clip-path="url(#p95a2ee5e18)" d="
M0 0" style="fill:none;stroke:#bf00bf;stroke-linecap:square;"/>
   </g>
   <g id="line2d_6">
    <path clip-path="url(#p95a2ee5e18)" d="
M0 0" style="fill:none;stroke:#bfbf00;stroke-linecap:square;"/>
   </g>
   <g id="line2d_7">
    <path clip-path="url(#p95a2ee5e18)" d="
M0 0" style="fill:none;stroke:#000000;stroke-linecap:square;"/>
   </g>
   <g id="line2d_8">
    <path clip-path="url(#p95a2ee5e18)" d="
M0 0" style="fill:none;stroke:#0000ff;stroke-linecap:square;"/>
   </g>
   <g id="line2d_9">
    <path clip-path="url(#p95a2ee5e18)" d="
M0 0" style="fill:none;stroke:#008000;stroke-linecap:square;"/>
   </g>
   <g id="line2d_10">
    <path clip-path="url(#p95a2ee5e18)" d="
M31.1906 139.311
L32.1079 128.352
L33.0251 123.485
L33.9424 160.274
L34.8597 152.397
L35.7769 198.905
L36.6942 187.817
L37.6114 198.124
L38.5287 220.807
L39.446 198.68
L40.3632 242.751
M43.115 155.112
L44.0323 170.481
L44.9495 123.34
L45.8668 140.415
L46.784 192.001
M48.6186 234.586
L49.5358 215.85
L50.4531 173.07
L51.3704 153.974
L52.2876 176.722
L53.2049 238.62
L54.1221 189.29
L55.0394 163.8
L55.9567 204.866
L56.8739 214.397
L57.7912 199.928
L58.7084 195.47
L59.6257 189.479
L60.543 178.706
L61.4602 218.048
L62.3775 186.924
L63.2947 177.47
L65.1293 204.427
L66.0465 148.05
L66.9638 165.869
L67.881 163.033
L68.7983 158.716
L69.7156 162.835
L70.6328 182.823
L71.5501 124.68
L73.3846 165.715
L74.3019 136.181
L75.2191 151.369
L76.1364 159.587
L77.0536 160.76
L77.9709 155.479
L78.8882 212.752
L79.8054 184.691
L80.7227 174.492
L81.6399 191.142
L82.5572 144.086
L83.4745 161.324
L85.309 129.24
L86.2262 173.853
L87.1435 132.327
L88.0608 102.781
L88.978 137.966
L89.8953 120.601
L90.8125 94.3038
L91.7298 107.377
L92.6471 177.402
L93.5643 126.741
L94.4816 113.666
L95.3988 112.28
L96.3161 80.1306
L97.2334 174.777
L98.1506 169.487
L99.0679 145.022
L99.9851 132.357
L100.902 135.826
L101.82 201.206
L102.737 180.048
L103.654 146.495
L104.571 88.3763
L105.489 64.4673
L106.406 109.681
L107.323 168.346
L108.24 176.499
L109.158 194.449
L110.075 100.252
L110.992 136.98
L111.91 89.0185
L112.827 92.2164
L113.744 103.964
L114.661 49.4756
L115.579 66.1301
L116.496 69.7617
L117.413 125.766
L118.33 82.265
L119.248 126.262
L120.165 140.716
L121.082 87.3178
L121.999 145.611
L122.917 152.851
L123.834 83.343
L124.751 110.038
L125.668 111.168
L126.586 159.279
L127.503 119.784
L128.42 104.349
L129.337 92.3473
L130.255 94.7071
L131.172 101.573
L132.089 98.8765
L133.007 98.4724
L133.924 76.8356
L134.841 155.86
L135.758 151.51
L136.676 78.8877
L137.593 60.3926
L138.51 81.1455
L139.427 86.099
L140.345 147.876
L141.262 117.204
L142.179 82.5648
L143.096 68.3201
L144.014 84.4163
L144.931 106.659
L145.848 100.987
L146.765 113.784
L147.683 129.215
L148.6 108.244
L149.517 83.1598
L150.434 67.7586
L151.352 104.844
L152.269 92.5493
L153.186 90.2758
L154.104 160.434
L155.021 129.176
L155.938 126.035
L156.855 109.183
L157.773 132.594
L158.69 120.551
L159.607 172.796
L160.524 130.651
L161.442 145.07
L162.359 182.1
L163.276 136.75
L164.193 136.31
L165.111 165.523
L166.028 171.466
L166.945 162.34
L167.862 157.857
L168.78 134.26
L169.697 142.985
L170.614 175.464
L171.531 128.63
L172.449 183.44
L173.366 165.545
L174.283 124.189
L175.2 118.839
L176.118 142.926
L177.035 101.073
L177.952 154.682
L178.87 124.911
L179.787 167.992
L181.621 108.496
L182.539 108.193
L183.456 103.913
L184.373 110.416
L185.29 114.559
L186.208 113.316
L187.125 105.643
L188.042 112.431
L188.959 145.644
L189.877 137.522
L190.794 123.224
L191.711 123.623
L192.628 115.519
L193.546 121.735
L194.463 127.188
L195.38 134.766
L196.297 137.293
L197.215 139.22
L198.132 153.983
L199.049 134.953
L199.967 134.623
L200.884 139.64
L201.801 134.3
L202.718 134.175
L203.636 135.151
L204.553 121.205
L205.47 118.823
L206.387 125.982
L207.305 102.267
L208.222 97.6865
L209.139 112.183
L210.056 120.709
L210.974 123.807
L211.891 130.751
L212.808 130.705
L213.725 121.823
L214.643 109.951
L215.56 127.3
L216.477 155.352
L217.394 166.44
L218.312 140.494
L219.229 141.746
L220.146 124.78
L221.064 127.581
L222.898 134.911
L223.815 134.779
L224.733 127.108
L225.65 121.342
L226.567 131.292
L227.484 136.373
L228.402 129.662
L229.319 129.009
L230.236 134.475
L231.153 142.497
L232.071 147.724
L232.988 163.265
L233.905 151.087
L234.822 120.825
L235.74 124.805
L236.657 130.701
L237.574 125.294
L238.491 133.512
L239.409 136.718
L240.326 132.886
L241.243 134.997
L243.078 155.73
L243.995 135.922
L244.912 136.822
L245.83 121.704
L246.747 117.93
L247.664 131.127
L248.581 139.684
L249.499 124.261
L250.416 103.714
L251.333 136.634
L252.25 139.563
L253.168 129.96
L254.085 116.984
L255.002 127.884
L255.919 103.222
L256.837 101.133
L257.754 106.945
L258.671 115.168
L259.588 130.679
L260.506 129.433
L261.423 119.823
L262.34 118.879
L263.257 112.487
L264.175 112.78
L265.092 115.164
L266.009 120.327
L266.927 122.547
L267.844 122.201
L268.761 120.602
L269.678 119.32
L270.596 129.073
L271.513 149.491
L272.43 189.84
L273.347 187.77
L274.265 148.557
L276.099 123.258
L277.016 123.984
L277.934 131.931
L278.851 130.422
L279.768 116.272
L280.685 125.937
L281.603 141.025
L282.52 139.512
L283.437 150.161
L284.354 157.549
L285.272 198.439
L286.189 180.435
L287.106 155.385
L288.024 143.435
L288.941 129.373
L289.858 125.914
L290.775 198.862
L291.693 182.851
L292.61 110.314
L293.527 119.297
L294.444 145.025
L295.362 138.691
L296.279 127.222
L297.196 149.03
L298.113 129.563
L299.031 154.311
L299.948 128.43
L300.865 117.827
L301.782 90.9489
L302.7 90.965
L303.617 100.829
L304.534 114.396
L305.451 113.119
L306.369 106.224
L307.286 115.464
L308.203 120.765
L309.12 119.893
L310.038 138.118
L310.955 184.187
L311.872 208.171
L313.707 183.265
L314.624 146.433
L315.541 172.386
L316.459 185.288
L318.293 227.673
L319.21 198.032
L320.128 206.125
L321.045 196.532
L321.962 174.286
L322.879 134.249
L323.797 140.761
L324.714 166.888
L325.631 163.597
L326.548 149.311
L327.466 165.972
L328.383 164.196
L329.3 128.229
L331.135 221.242
L332.052 181.071
L332.969 166.27
L333.887 190.707
L334.804 180.226
L335.721 156.179
L336.638 196.534
L337.556 206.763
L338.473 201.434
L339.39 190.012
L340.307 191.265
L341.225 182.124
L342.142 166.629
L343.976 153.598
L344.894 204.593
L345.811 134.508
L346.728 147.896
L347.645 166.093
L348.563 205.941
L349.48 206.819
L350.397 201.572
L351.314 185.74
L352.232 205.332
L353.149 152.757
L354.066 155.764
L354.984 193.874
L355.901 158.446
L356.818 195.046
L357.735 212.148
L358.653 217.789
L359.57 187.867
L360.487 210.938
L361.404 185.5
L362.322 226.875
L364.156 171.354
L365.073 109.675
L365.073 109.675" style="fill:none;stroke:#ff0000;stroke-linecap:square;"/>
   </g>
   <g id="line2d_11">
    <path clip-path="url(#p95a2ee5e18)" d="
M31.1906 202.145
L32.1079 137.027
L33.0251 147.053
L33.9424 93.6704
L34.8597 148.583
L35.7769 228.374
L36.6942 181.124
L37.6114 166.444
L38.5287 185.908
L39.446 146.705
L40.3632 159.277
L41.2805 198.662
L42.1977 177.753
L43.115 192.336
L44.0323 231.966
L44.9495 234.109
L45.8668 235.322
L46.784 232.471
L47.7013 230.16
L48.6186 232.272
L49.5358 231.412
L50.4531 233.366
L51.3704 241.903
L52.2876 234.921
M54.1221 205.579
L55.0394 191.291
L55.9567 189.885
L56.8739 169.67
L57.7912 190.76
L58.7084 207.015
L59.6257 184.094
L60.543 167.213
L61.4602 160.694
L62.3775 170.779
L63.2947 187.612
L64.212 181.881
L65.1293 201.727
L66.0465 197.798
L66.9638 230.418
L67.881 174.142
L68.7983 199.058
L69.7156 204.674
L70.6328 146.996
L71.5501 192.229
L72.4673 131.733
L73.3846 160.478
L74.3019 201.848
L75.2191 145.396
L76.1364 127.148
L77.0536 145.333
L77.9709 138.401
L78.8882 169.861
L79.8054 173.268
L80.7227 130.864
L81.6399 162.104
L82.5572 177.471
L83.4745 97.523
L84.3917 102.73
L85.309 143.266
L86.2262 170.584
L87.1435 177.002
L88.0608 202.479
L88.978 236.836
L89.8953 201.371
L90.8125 150.932
L91.7298 188.326
L92.6471 141.551
L93.5643 153.228
L94.4816 127.084
L95.3988 139.518
L96.3161 134.602
L97.2334 125.819
L98.1506 195.885
L99.0679 184.555
L100.902 121.561
L101.82 141.359
L102.737 125.459
L103.654 175.625
L104.571 176.672
L105.489 118.857
L106.406 143.14
L107.323 195.874
L108.24 113.18
L109.158 117.197
L110.075 166.264
L110.992 198.89
L111.91 100.189
L112.827 187.764
L113.744 129.518
L114.661 191.601
L115.579 180.674
L116.496 94.013
L117.413 97.324
L118.33 99.0897
L119.248 107.333
L120.165 188.031
L121.082 163.714
L121.999 199.992
L122.917 171.313
L123.834 133.815
L124.751 167.162
L125.668 138.553
L126.586 145.955
L127.503 113.729
L128.42 109.364
L129.337 124.273
L130.255 101.086
L131.172 115.062
L132.089 117.87
L133.007 126.511
L133.924 132.34
L134.841 80.403
L135.758 80.9686
L136.676 136.408
L137.593 104.294
L138.51 187.841
L139.427 136.136
L140.345 143.313
L141.262 132.792
L142.179 175.992
L143.096 196.265
L144.014 163.49
L144.931 159.072
L145.848 172.661
L146.765 129.992
L147.683 108.767
L148.6 98.1147
L149.517 100.732
L150.434 105.694
L151.352 113.007
L152.269 90.9191
L153.186 159.349
L154.104 105.308
L155.021 101.996
L155.938 110.729
L156.855 129.314
L157.773 118.305
L158.69 103.112
L159.607 91.4409
L160.524 113.592
L162.359 151.005
L163.276 124.783
L164.193 118.248
L165.111 118.993
L166.028 126.048
L166.945 128.756
L167.862 143.818
L168.78 146.429
L169.697 160.757
L170.614 197.718
L171.531 166.341
L172.449 164.789
L173.366 190.656
L174.283 184.502
L175.2 149.051
L176.118 143.442
L177.035 131.099
L177.952 158.768
L178.87 160.969
L179.787 151.971
L180.704 200.601
L181.621 197.153
L182.539 176.31
L183.456 141.684
L184.373 159.419
L185.29 130.575
L186.208 162.723
L187.125 162.329
L188.042 182.361
L188.959 136.707
L189.877 113.987
L190.794 128.943
L191.711 133.461
L192.628 136.177
L193.546 120.22
L194.463 120.361
L195.38 138.109
L196.297 135.3
L197.215 127.37
L198.132 142.344
L199.049 149.784
L199.967 141.855
L200.884 156.705
L201.801 133.041
L202.718 125.46
L203.636 126.831
L204.553 124.31
L205.47 126.656
L206.387 150.876
L207.305 167.78
L208.222 150.068
L209.139 130.097
L210.056 127.983
L210.974 141.328
L211.891 142.065
L212.808 149.547
L213.725 143.95
L214.643 131.262
L215.56 135.482
L216.477 143.154
L217.394 158.991
L218.312 144.072
L219.229 139.875
L220.146 145.601
L221.064 154.743
L221.981 152.259
L222.898 149.073
L223.815 148.45
L224.733 143.394
L225.65 145.244
L226.567 146.553
L227.484 145.724
L228.402 150.798
L229.319 143.633
L230.236 207.086
L231.153 221.53
L232.071 175.948
L232.988 152.116
L233.905 141.399
L234.822 141.903
L235.74 147.29
L236.657 155.932
L237.574 152.356
L238.491 131.502
L239.409 127.188
L240.326 134.758
L241.243 139.149
L242.16 145.765
L243.078 155.093
L243.995 148.037
L244.912 149.929
L245.83 164.441
L246.747 153.282
L247.664 146.966
L248.581 146.318
L249.499 144.917
L250.416 154.287
L251.333 149.401
L252.25 161.082
L253.168 149.395
L254.085 147.508
L255.002 147.393
L255.919 142.736
L256.837 143.23
L257.754 152.055
L258.671 139.953
L259.588 124.299
L260.506 117.233
L261.423 121.071
L262.34 133.414
L263.257 140.171
L264.175 141.37
L265.092 145.865
L266.009 154.414
L266.927 161.285
L267.844 157.434
L268.761 150.603
L269.678 169.785
M294.444 163.447
L295.362 173.395
L296.279 163.454
L298.113 199.978
L299.031 179.105
L299.948 182.635
L300.865 189.322
L301.782 186.672
L302.7 166.969
L303.617 127.228
L304.534 173.64
L305.451 174.043
L306.369 135.028
L307.286 190.087
L308.203 222.264
L309.12 181.788
L310.038 184.934
L310.955 161.332
L311.872 167.553
L312.79 146.3
L313.707 146.024
L314.624 180.733
L315.541 164.126
L316.459 150.424
L317.376 121.316
L318.293 141.294
L319.21 193.329
L320.128 189.725
L321.045 199.196
L321.962 206.134
L322.879 142.161
L323.797 145.082
L324.714 128.029
L325.631 187.769
L326.548 123.553
L327.466 144.186
L328.383 149.477
L329.3 183.186
L330.217 160.81
L331.135 170.656
L332.052 175.801
L332.969 193.987
L333.887 206.4
L334.804 187.15
L335.721 157.259
M337.556 154.28
L338.473 140.175
L339.39 130.057
L340.307 147.731
L341.225 129.332
L342.142 142.161
L343.059 212.765
L343.976 155.899
L344.894 137.017
L345.811 145.478
L346.728 157.518
L347.645 206.418
L348.563 221.387
L349.48 192.109
L350.397 203.832
L351.314 219.877
L352.232 196.925
L353.149 218.236
L354.066 233.682
L354.984 218.054
L355.901 181.724
L356.818 244.18
L357.735 221.533
L358.653 170.545
L360.487 220.012
L361.404 195.094
L362.322 201.662
L363.239 189.149
L364.156 218.044
L365.073 188.892
L365.073 188.892" style="fill:none;stroke:#00bfbf;stroke-linecap:square;"/>
   </g>
   <g id="line2d_12">
    <path clip-path="url(#p95a2ee5e18)" d="
M31.1906 210.725
L32.1079 195.055
L33.0251 216.041
L33.9424 217.273
L34.8597 227.864
L35.7769 219.632
L36.6942 177.128
L37.6114 196.752
L38.5287 177.03
L39.446 161.822
L40.3632 198.621
L41.2805 173.002
L42.1977 224.028
L43.115 183.366
L44.0323 136.637
L44.9495 189.045
L45.8668 183.519
L46.784 180.029
L47.7013 179.808
L48.6186 162.197
L49.5358 166.537
L51.3704 235.52
L52.2876 174.57
L53.2049 196.566
L54.1221 228.829
L55.0394 234.378
L55.9567 202.537
L56.8739 201.715
L57.7912 223.411
L58.7084 241.715
L59.6257 233.456
L60.543 197.006
L61.4602 203.306
L62.3775 216.669
L63.2947 203.742
L64.212 217.298
L65.1293 216.385
L66.0465 194.618
L66.9638 202.09
L67.881 151.05
L68.7983 178.501
L69.7156 182.287
L70.6328 222.908
L71.5501 181.938
L72.4673 229.403
L73.3846 210.754
L74.3019 215.881
L75.2191 177.725
L76.1364 166.508
L77.0536 159.795
L77.9709 149.039
L78.8882 105.201
L79.8054 102.422
L80.7227 197.823
L81.6399 173.018
L82.5572 137.225
L84.3917 198.422
L85.309 144.863
L86.2262 171.936
L87.1435 174.445
L88.0608 197.922
L88.978 161.912
L89.8953 146.076
L90.8125 137.961
L91.7298 203.876
L92.6471 131.387
L93.5643 106.344
L94.4816 107.836
L95.3988 125.852
L96.3161 211.75
L97.2334 144.452
L98.1506 114.841
L99.0679 129.211
L99.9851 136.579
L100.902 138.782
L101.82 83.4606
L102.737 91.5295
L103.654 158.612
L104.571 172.402
L105.489 123.446
L106.406 114.174
L107.323 177.841
L108.24 180.595
L109.158 120.992
L110.075 112.535
L111.91 217.643
L112.827 149.869
L113.744 183.656
L114.661 186.684
L115.579 159.058
L116.496 119.239
L117.413 171.254
L118.33 126.193
L119.248 115.76
L120.165 143.815
L121.082 84.2092
L121.999 114.626
L122.917 137.898
L123.834 177.79
L124.751 160.43
L125.668 130.174
L126.586 118.642
L127.503 127.373
L128.42 131.644
L129.337 119.53
L130.255 112.836
L131.172 172.907
L132.089 202.651
L133.007 193.845
L133.924 116.814
L134.841 112.479
L135.758 100.78
L136.676 113.149
L137.593 177.92
L138.51 175.753
L139.427 162.147
L140.345 166.604
L141.262 160.241
L142.179 135.124
L143.096 147.915
L144.014 78.4524
L144.931 131.547
L145.848 127.379
L146.765 75.2937
L147.683 107.643
L148.6 108.408
L149.517 186.576
L150.434 158.212
L151.352 111.442
L152.269 112.697
L153.186 107.395
L154.104 110.406
L155.021 121.954
L155.938 146.86
L156.855 209.49
L157.773 144.365
L158.69 123.702
L159.607 147.454
L160.524 234.137
L161.442 166.971
L162.359 154.709
L163.276 118.074
L164.193 177.108
L165.111 172.701
L166.028 184.134
L166.945 169.262
L167.862 136.189
L168.78 182.611
L169.697 173.419
L170.614 213.337
L171.531 163.653
L172.449 214.062
L173.366 168.277
L174.283 196.27
L175.2 152.758
L176.118 123.719
L177.035 173.221
L177.952 168.19
L179.787 115.378
L180.704 122.993
L181.621 129.334
L182.539 155.535
L183.456 130.664
L184.373 124.371
L185.29 112.313
L186.208 123.339
L187.125 176.074
L188.959 132.287
L189.877 129.278
L190.794 155.157
L191.711 164.63
L192.628 137.295
L193.546 128.008
L194.463 133.35
L195.38 164.296
L196.297 154.507
L197.215 134.801
L198.132 137.891
L199.049 153.94
L199.967 132.762
L200.884 131.931
L201.801 128.525
L202.718 127.673
L203.636 131.488
L204.553 136.754
L205.47 140.29
L206.387 144.544
L207.305 143.341
L208.222 108.944
L209.139 118.239
L210.056 131.183
L210.974 138.482
L211.891 138.936
L212.808 136.874
L213.725 126.33
L214.643 126.523
L215.56 128.748
L216.477 139.741
L217.394 131.041
L218.312 134.814
L219.229 141.993
L220.146 179.728
L221.064 165.047
L221.981 155.114
L222.898 147.273
L223.815 151.353
L224.733 156.724
L226.567 132.073
L227.484 134.338
L229.319 143.725
L230.236 157.671
L231.153 143.422
L232.071 145.54
L232.988 160.752
L233.905 171.539
L234.822 193.02
L236.657 146.066
L237.574 154.444
L238.491 142.971
L239.409 142.331
L240.326 146.113
L241.243 142.957
L242.16 141.327
L243.078 133.103
L243.995 135.556
L244.912 136.203
L245.83 138.162
L246.747 133.813
L247.664 135.828
L248.581 156.598
L249.499 129.271
L250.416 147.495
L251.333 191.79
L252.25 149.636
L253.168 171.684
L254.085 154.724
L255.002 145.674
L255.919 134.946
L256.837 143.208
L257.754 136.399
L258.671 117.764
L259.588 119.66
L260.506 181.3
L261.423 216.861
L262.34 161.227
L263.257 130.691
L264.175 130.924
L265.092 134.472
L266.009 148.37
L266.927 139.509
L267.844 139.279
L268.761 144.59
L269.678 145.645
L270.596 157.12
L271.513 157.785
L272.43 144.751
L273.347 153.175
L274.265 136.04
L275.182 126.611
L276.099 141.135
L277.016 137.999
L277.934 138.65
L278.851 137.448
L279.768 148.639
L280.685 138.495
L281.603 144.121
L282.52 145.725
L283.437 183.112
L284.354 228.588
L285.272 217.794
L287.106 163.652
L288.024 191.953
L288.941 174.215
L289.858 174.508
L290.775 182.193
L291.693 143.688
L292.61 141.19
L293.527 121.671
L294.444 142.335
L295.362 157.427
L296.279 160.827
L297.196 128.133
L298.113 114.667
L299.031 128.781
L299.948 129.111
L300.865 132.663
L301.782 182.51
M304.534 188.464
L305.451 151.272
L306.369 116.376
L308.203 161.544
L309.12 208.102
L310.038 167.835
L310.955 174.263
L311.872 184.786
L312.79 165.229
L313.707 170.156
L314.624 177.447
M317.376 166.531
L318.293 225.415
L319.21 195.186
L320.128 172.8
L321.045 181.153
L321.962 213.481
M323.797 167.893
L324.714 157.941
L325.631 161.649
L326.548 226.394
M328.383 213.506
L329.3 243.247
M331.135 123.676
L332.052 171.265
L332.969 185.998
L333.887 235.254
L334.804 218.378
L335.721 162.506
L336.638 197.459
M340.307 244.094
L341.225 220.724
L342.142 235.19
L343.059 231.11
L343.976 196.111
L344.894 201.728
L345.811 200.269
L346.728 216.314
L347.645 216.897
L348.563 207.192
M351.314 164.316
L352.232 145.724
L353.149 208.061
L354.066 230.505
L354.984 196.231
L355.901 181.575
L356.818 197.855
L357.735 224.118
L358.653 209.401
L359.57 164.24
L360.487 197.409
L361.404 183.117
L362.322 211.288
L363.239 231.546
L364.156 201.831
L365.073 168.432
L365.073 168.432" style="fill:none;stroke:#bf00bf;stroke-linecap:square;"/>
   </g>
   <g id="line2d_13">
    <path clip-path="url(#p95a2ee5e18)" d="
M31.1906 160.515
L32.1079 189.56
L33.0251 184.955
L33.9424 199.191
L34.8597 196.124
L35.7769 198.539
L36.6942 198.752
L37.6114 209.373
L38.5287 204.395
L39.446 221.771
L40.3632 174.869
L42.1977 218.489
L43.115 216.708
L44.0323 204.188
L44.9495 238.949
L45.8668 204.434
L46.784 205.797
L47.7013 193.7
L48.6186 162.053
L49.5358 214.445
L50.4531 205.605
L51.3704 153.762
L52.2876 214.167
L53.2049 232.512
L54.1221 236.498
L55.0394 208.8
L55.9567 218.463
L56.8739 215.875
L57.7912 233.304
L58.7084 166.844
L59.6257 119.54
L60.543 122.744
L61.4602 146.097
L62.3775 180.015
L63.2947 166.407
L64.212 176.253
L65.1293 174.791
L66.0465 158.24
L66.9638 179.156
L67.881 136.308
L68.7983 149.55
L69.7156 144.433
L70.6328 127.815
L71.5501 137.804
L72.4673 136.445
L73.3846 191.084
L74.3019 192.202
L75.2191 188.902
L76.1364 202.622
L77.0536 235.857
L77.9709 166.007
L78.8882 168.864
L79.8054 162.715
L80.7227 197.867
L81.6399 209.085
L82.5572 154.732
L83.4745 122.438
L84.3917 135.124
L85.309 128.851
L86.2262 176.944
L87.1435 174.432
L88.0608 164.385
L88.978 189.713
L89.8953 157.631
L90.8125 216.108
L91.7298 190.062
L92.6471 120.949
L93.5643 185.053
L94.4816 124.135
L95.3988 121.256
L96.3161 132.392
L97.2334 162.25
L98.1506 206.985
L99.0679 232.183
L99.9851 173.88
L100.902 134.881
L101.82 184.089
L102.737 141.992
L103.654 201.414
L104.571 161.906
L105.489 153.998
L106.406 179.365
L107.323 211.811
L108.24 210.857
L109.158 192.484
L110.075 179.022
L110.992 182.747
L111.91 205.443
L112.827 145.877
L113.744 150.296
L114.661 184.489
L115.579 121.345
L116.496 137.362
L117.413 175.549
L118.33 177.58
L119.248 171.849
L120.165 157.358
L121.082 191.009
L121.999 144.239
L122.917 175.923
L123.834 149.495
L124.751 172.676
L125.668 139.164
L126.586 163.898
L127.503 193.846
L128.42 175.999
L129.337 170.849
L130.255 93.9649
L131.172 163.586
L132.089 159.283
L133.007 100.472
L133.924 100.404
L134.841 157.719
L135.758 181.374
L136.676 137.259
L137.593 112.317
L138.51 197.602
L139.427 155.599
L140.345 142.384
L141.262 112.781
L142.179 144.746
L143.096 137.954
L144.014 122.07
L144.931 122.45
L145.848 177.042
L146.765 181.152
L147.683 193.22
L148.6 167.452
L149.517 125.839
L150.434 133.086
L151.352 142.834
L152.269 150.124
L153.186 158.545
L154.104 197.321
L155.021 201.549
L155.938 126.644
L156.855 197.612
L157.773 135.29
L160.524 166.03
L161.442 180.454
L162.359 176.952
L163.276 172.477
L164.193 158.407
L165.111 196.04
L166.028 201.874
L166.945 205.665
L167.862 181.845
L168.78 145.33
L169.697 145.522
L170.614 183.762
L171.531 143.657
L172.449 127.716
L173.366 146.081
L174.283 181.589
L175.2 202.632
L176.118 142.661
L177.035 180.54
L177.952 165.271
L178.87 160.134
L179.787 159.875
L180.704 179.311
L181.621 133.555
L182.539 121.752
L183.456 145.83
L184.373 122.537
L185.29 197.89
L186.208 185.783
L187.125 141.05
L188.042 148.504
L188.959 146.098
L189.877 150.926
L190.794 138.202
L191.711 130.306
L192.628 126.088
L193.546 128.959
L194.463 147.598
L195.38 179.877
L197.215 137.183
L198.132 133.92
L199.049 142.038
L199.967 145.032
L200.884 148.789
L201.801 146.658
L202.718 175.618
L203.636 152.58
L204.553 120.281
L205.47 144.671
L207.305 152.952
L208.222 155.902
L209.139 170.438
L210.056 130.446
M215.56 130.102
L216.477 143.89
L217.394 133.461
L218.312 144.386
L219.229 150.145
L220.146 158.414
L221.064 144.44
L221.981 138.005
L222.898 138.699
L223.815 158.909
L224.733 168.54
L225.65 163.838
L226.567 157.407
L227.484 153.22
L228.402 171.815
L229.319 152.164
L230.236 153.063
L231.153 156.774
L232.071 151.531
L232.988 144.218
L233.905 144.651
L234.822 138.642
L235.74 143.649
L236.657 156.543
L237.574 154.33
L238.491 140.86
L239.409 140.839
L240.326 143.268
L241.243 146.079
L242.16 137.302
L243.078 148.552
L243.995 156.75
L244.912 152.211
L245.83 153.271
L246.747 146.226
L247.664 156.454
L248.581 158.802
L249.499 172.731
L250.416 161.678
L251.333 162.786
L252.25 149.633
L253.168 143.129
L254.085 138.898
L255.002 139.638
L255.919 137.549
L256.837 142.313
L257.754 137.424
L258.671 150.532
L259.588 152.567
L260.506 154.304
L261.423 158.144
L262.34 152.683
L263.257 155.211
L264.175 158.447
L265.092 164.016
L266.009 163.205
L266.927 202.11
L267.844 182.502
L268.761 150.854
L269.678 142.549
L270.596 151.359
L271.513 151.993
L272.43 147.838
L273.347 150.749
L274.265 150.077
L275.182 151.467
L276.099 154.093
L277.016 156.065
L277.934 151.962
L278.851 174.521
L279.768 147.477
L280.685 156.246
L281.603 160.662
L282.52 156.865
L283.437 155.648
L284.354 203.363
L285.272 227.112
L286.189 242.472
L287.106 211.654
L288.024 165.771
L288.941 152.278
L289.858 183.548
L290.775 166.977
L291.693 144.356
L292.61 132.265
L293.527 158.605
L294.444 163.918
L295.362 197.947
L296.279 162.003
L297.196 135.211
L298.113 157.127
L299.031 147.791
L299.948 169.355
L300.865 175.373
L301.782 172.153
L302.7 183.926
L303.617 154.747
L304.534 139.476
L305.451 132.224
L306.369 126.156
L307.286 148.574
L308.203 161.734
L309.12 187.295
L310.955 112.348
L311.872 134.083
L312.79 204.779
L313.707 221.814
L314.624 199.931
L315.541 187.083
L316.459 122.477
L317.376 130.033
L318.293 125.214
L319.21 101.624
L320.128 147.795
L321.045 168.766
L321.962 133.931
L322.879 163.135
L323.797 138.272
L324.714 213.775
L325.631 216.985
L326.548 192.957
L327.466 174.711
L328.383 175.073
L329.3 189.973
L330.217 146.501
L331.135 168.023
L332.052 170.792
L332.969 130.479
L333.887 136.155
L334.804 177.231
L335.721 203.212
L336.638 192.079
L337.556 144.584
L338.473 136.611
L339.39 133.684
L340.307 176.109
L341.225 167.496
L342.142 147.446
L343.059 163.716
L343.976 164.374
L344.894 166.422
L345.811 174.791
L346.728 177.647
L347.645 186.805
L348.563 191.976
L349.48 166.769
L350.397 175.212
L351.314 188.53
L352.232 191.563
L353.149 193.299
L354.066 185.354
L354.984 153.279
L355.901 157.932
L356.818 126.511
L357.735 125.01
L359.57 153.345
L360.487 154.868
L361.404 200.65
L362.322 215.02
L363.239 192.531
L364.156 223.318
L365.073 171.508
L365.073 171.508" style="fill:none;stroke:#bfbf00;stroke-linecap:square;"/>
   </g>
   <g id="line2d_14">
    <path clip-path="url(#p95a2ee5e18)" d="
M31.1906 170.016
L32.1079 183.782
L33.0251 177.307
L33.9424 177.29
L34.8597 176.103
L35.7769 194.365
M46.784 195.847
L47.7013 233.229
L48.6186 215.74
L49.5358 213.149
L50.4531 195.578
L51.3704 231.63
L52.2876 197.341
L53.2049 206.352
L54.1221 217.476
L55.0394 175.648
L55.9567 171.81
L56.8739 161.096
L57.7912 185.645
L58.7084 164.903
L59.6257 202.676
L60.543 182.76
L61.4602 174.669
L62.3775 163.72
L63.2947 168.274
L64.212 158.057
L65.1293 145.284
L66.0465 187.064
L66.9638 221.671
L67.881 211.087
L68.7983 229.952
L69.7156 212.654
L70.6328 177.914
L72.4673 196.547
L73.3846 165.771
L74.3019 162.536
L75.2191 192.343
L76.1364 167.059
L77.0536 195.568
L77.9709 233.312
L78.8882 202.846
L79.8054 151.626
L80.7227 137.77
L81.6399 197.008
L82.5572 134.751
L83.4745 136.239
L84.3917 147.423
L85.309 185.526
L86.2262 209.014
L87.1435 169.607
L88.0608 180.945
L88.978 163.965
L89.8953 154.295
L90.8125 190.671
L91.7298 118.696
L92.6471 137.358
L93.5643 137.33
L94.4816 135.774
L95.3988 176.187
L96.3161 181.17
L97.2334 200.174
L98.1506 234.219
L99.0679 209.397
L99.9851 209.583
L100.902 205.979
L101.82 233.392
L102.737 156.303
L103.654 199.965
L105.489 145.602
L106.406 180.587
L107.323 164.593
L108.24 182.997
L109.158 204.773
L110.075 148.651
L110.992 197.081
L111.91 198.231
L112.827 219.394
L113.744 146.513
L114.661 128.963
L115.579 144.281
L116.496 129.933
L117.413 154.784
L118.33 148.429
L119.248 159.803
L120.165 119.602
L121.082 123.083
L121.999 146.364
L122.917 141.886
L123.834 186.405
L124.751 138.947
L125.668 164.439
L126.586 167.775
L127.503 130.008
L128.42 194.495
L129.337 174.571
L130.255 175.207
L131.172 186.465
L133.007 147.919
L133.924 146.271
L134.841 167.329
L135.758 169.316
L136.676 183.332
L137.593 235.719
L138.51 161.775
L139.427 160.306
L140.345 140.889
L141.262 194.862
L142.179 138.393
L144.014 198.631
L144.931 201.943
L145.848 149.847
L146.765 126.626
L147.683 124.514
L148.6 130.505
L149.517 141.219
L150.434 111.536
L151.352 118.206
L152.269 120.461
L153.186 130.216
L154.104 143.921
L155.021 167.693
L155.938 152.806
L156.855 160.402
L157.773 135.984
L158.69 120.789
L159.607 142.81
L160.524 171.671
L161.442 180.475
L162.359 147.183
L163.276 150.354
L165.111 222.029
L166.028 156.318
L166.945 136.781
L167.862 138.227
L168.78 140.801
L169.697 154.244
L170.614 145.61
L171.531 166.504
L172.449 149.558
L173.366 169.771
L174.283 212.946
L175.2 134.962
L176.118 161.729
L177.035 158.321
L177.952 181.826
L178.87 149.472
L179.787 130.419
L180.704 152.103
L181.621 152.301
L182.539 124.454
L183.456 136.271
L184.373 140.384
L185.29 143.03
L186.208 146.11
L187.125 130.031
L188.042 135.258
L188.959 144.425
L189.877 146.774
L190.794 144.773
L191.711 148.107
L192.628 145.512
L193.546 146.284
L194.463 137.412
L195.38 138.192
L196.297 153.093
L197.215 147.752
L198.132 166.539
L199.049 157.214
L199.967 149.224
L200.884 144.264
L201.801 158.949
L202.718 161.783
L203.636 159.912
L204.553 171.269
L205.47 169.294
L206.387 165.941
L207.305 168.639
L208.222 168.968
L209.139 180.343
L210.056 188.306
L210.974 172.849
L211.891 174.463
L212.808 158.996
L213.725 158.056
L214.643 157.937
L215.56 158.137
L216.477 160.275
L217.394 161.372
L218.312 163.713
L219.229 152.995
L220.146 160.871
L221.064 159.203
L221.981 166.926
L222.898 162.543
L223.815 161.159
L224.733 157.057
L225.65 155.062
L226.567 154.178
L227.484 150.167
M232.988 174.289
L233.905 164.466
L234.822 175.676
L235.74 159.103
L236.657 163.004
L237.574 165.868
L238.491 159.74
L239.409 158.048
L240.326 163.41
L241.243 160.701
L242.16 159.381
L243.078 177.986
L243.995 169.122
L244.912 171.268
L245.83 161.826
L246.747 155.97
L247.664 140.975
L248.581 143.712
L249.499 165.13
L250.416 174.408
L251.333 156.3
L252.25 161.878
L253.168 155.146
L254.085 173.775
L255.002 161.481
L255.919 136.391
L256.837 141.83
L257.754 145.94
L258.671 154.066
L259.588 166.878
L260.506 153.055
L261.423 153.948
L262.34 168.172
L263.257 153.838
L264.175 157.885
L265.092 133.287
L266.009 143.414
L266.927 148.804
L267.844 152.334
L268.761 154.821
L269.678 150.306
L270.596 152.159
L271.513 154.605
L272.43 162.095
L273.347 164.57
L274.265 170.632
L275.182 201.609
L276.099 186.607
L277.934 174.11
L278.851 162.35
L279.768 168.063
L280.685 163.051
L281.603 163.73
L282.52 156.432
L283.437 154.44
L284.354 133.107
L285.272 131.63
L286.189 126.973
L287.106 127.044
L288.024 131.15
L288.941 127.82
L290.775 152.209
L291.693 152.733
L292.61 150.652
L293.527 184.912
L294.444 176.676
L295.362 188.677
L296.279 184.94
L297.196 165.658
L298.113 155.138
L299.031 171.202
L299.948 196.899
L300.865 162.186
L301.782 212.162
L302.7 209.891
L303.617 211.453
L304.534 224.626
L305.451 169.705
L306.369 192.934
L307.286 231.861
L308.203 191.103
L310.038 165.221
L310.955 188.824
L311.872 180.599
L312.79 183.941
L313.707 185.897
L314.624 191.822
L315.541 186.766
L316.459 203.156
L317.376 203.697
L318.293 229.801
L319.21 186.354
L320.128 186.433
L321.045 196.488
L321.962 230.97
L322.879 231.565
L323.797 206.178
L324.714 204.282
L325.631 209.475
L326.548 209.497
L327.466 203.118
L328.383 189.922
L329.3 202.23
L330.217 183.135
L331.135 172.764
L332.052 212.34
L332.969 215.187
L333.887 192.903
L334.804 206.553
L335.721 207.284
L336.638 200.848
L337.556 211.93
L338.473 194.987
L339.39 210.561
L340.307 179.161
L341.225 206.392
M348.563 224.178
L349.48 228.886
L350.397 209.866
L351.314 201.031
L352.232 233.731
L353.149 181.694
L354.066 183.974
L354.984 173.35
L355.901 131.847
L356.818 139.526
L357.735 188.056
L358.653 220.675
L359.57 227.341
L360.487 176.422
L361.404 225.32
L362.322 221.533
L363.239 199.694
L364.156 209.117
L365.073 234.98
L365.073 234.98" style="fill:none;stroke:#000000;stroke-linecap:square;"/>
   </g>
   <g id="patch_3">
    <path d="
M365.991 244.518
L365.991 21.3181" style="fill:none;stroke:#000000;stroke-linecap:square;stroke-linejoin:miter;"/>
   </g>
   <g id="patch_4">
    <path d="
M31.1906 21.3181
L365.991 21.3181" style="fill:none;stroke:#000000;stroke-linecap:square;stroke-linejoin:miter;"/>
   </g>
   <g id="patch_5">
    <path d="
M31.1906 244.518
L31.1906 21.3181" style="fill:none;stroke:#000000;stroke-linecap:square;stroke-linejoin:miter;"/>
   </g>
   <g id="patch_6">
    <path d="
M31.1906 244.518
L365.991 244.518" style="fill:none;stroke:#000000;stroke-linecap:square;stroke-linejoin:miter;"/>
   </g>
   <g id="matplotlib.axis_1">
    <g id="xtick_1">
     <g id="line2d_15">
      <defs>
       <path d="
M0 0
L0 -4" id="mc7db9fdffb" style="stroke:#000000;stroke-width:0.5;"/>
      </defs>
      <g>
       <use style="stroke:#000000;stroke-width:0.5;" x="31.190625" xlink:href="#mc7db9fdffb" y="244.518125"/>
      </g>
     </g>
     <g id="line2d_16">
      <defs>
       <path d="
M0 0
L0 4" id="m5a7d422ac3" style="stroke:#000000;stroke-width:0.5;"/>
      </defs>
      <g>
       <use style="stroke:#000000;stroke-width:0.5;" x="31.190625" xlink:href="#m5a7d422ac3" y="21.318125"/>
      </g>
     </g>
     <g id="text_1">
      <!-- 0 -->
      <defs>
       <path d="
M31.7812 66.4062
Q24.1719 66.4062 20.3281 58.9062
Q16.5 51.4219 16.5 36.375
Q16.5 21.3906 20.3281 13.8906
Q24.1719 6.39062 31.7812 6.39062
Q39.4531 6.39062 43.2812 13.8906
Q47.125 21.3906 47.125 36.375
Q47.125 51.4219 43.2812 58.9062
Q39.4531 66.4062 31.7812 66.4062
M31.7812 74.2188
Q44.0469 74.2188 50.5156 64.5156
Q56.9844 54.8281 56.9844 36.375
Q56.9844 17.9688 50.5156 8.26562
Q44.0469 -1.42188 31.7812 -1.42188
Q19.5312 -1.42188 13.0625 8.26562
Q6.59375 17.9688 6.59375 36.375
Q6.59375 54.8281 13.0625 64.5156
Q19.5312 74.2188 31.7812 74.2188" id="BitstreamVeraSans-Roman-30"/>
      </defs>
      <g transform="translate(28.67109375 256.1165625)scale(0.1 -0.1)">
       <use xlink:href="#BitstreamVeraSans-Roman-30"/>
      </g>
     </g>
    </g>
    <g id="xtick_2">
     <g id="line2d_17">
      <g>
       <use style="stroke:#000000;stroke-width:0.5;" x="77.0536386986" xlink:href="#mc7db9fdffb" y="244.518125"/>
      </g>
     </g>
     <g id="line2d_18">
      <g>
       <use style="stroke:#000000;stroke-width:0.5;" x="77.0536386986" xlink:href="#m5a7d422ac3" y="21.318125"/>
      </g>
     </g>
     <g id="text_2">
      <!-- 50 -->
      <defs>
       <path d="
M10.7969 72.9062
L49.5156 72.9062
L49.5156 64.5938
L19.8281 64.5938
L19.8281 46.7344
Q21.9688 47.4688 24.1094 47.8281
Q26.2656 48.1875 28.4219 48.1875
Q40.625 48.1875 47.75 41.5
Q54.8906 34.8125 54.8906 23.3906
Q54.8906 11.625 47.5625 5.09375
Q40.2344 -1.42188 26.9062 -1.42188
Q22.3125 -1.42188 17.5469 -0.640625
Q12.7969 0.140625 7.71875 1.70312
L7.71875 11.625
Q12.1094 9.23438 16.7969 8.0625
Q21.4844 6.89062 26.7031 6.89062
Q35.1562 6.89062 40.0781 11.3281
Q45.0156 15.7656 45.0156 23.3906
Q45.0156 31 40.0781 35.4375
Q35.1562 39.8906 26.7031 39.8906
Q22.75 39.8906 18.8125 39.0156
Q14.8906 38.1406 10.7969 36.2812
z
" id="BitstreamVeraSans-Roman-35"/>
      </defs>
      <g transform="translate(71.4091074486 256.1165625)scale(0.1 -0.1)">
       <use xlink:href="#BitstreamVeraSans-Roman-35"/>
       <use x="63.623046875" xlink:href="#BitstreamVeraSans-Roman-30"/>
      </g>
     </g>
    </g>
    <g id="xtick_3">
     <g id="line2d_19">
      <g>
       <use style="stroke:#000000;stroke-width:0.5;" x="122.916652397" xlink:href="#mc7db9fdffb" y="244.518125"/>
      </g>
     </g>
     <g id="line2d_20">
      <g>
       <use style="stroke:#000000;stroke-width:0.5;" x="122.916652397" xlink:href="#m5a7d422ac3" y="21.318125"/>
      </g>
     </g>
     <g id="text_3">
      <!-- 100 -->
      <defs>
       <path d="
M12.4062 8.29688
L28.5156 8.29688
L28.5156 63.9219
L10.9844 60.4062
L10.9844 69.3906
L28.4219 72.9062
L38.2812 72.9062
L38.2812 8.29688
L54.3906 8.29688
L54.3906 0
L12.4062 0
z
" id="BitstreamVeraSans-Roman-31"/>
      </defs>
      <g transform="translate(114.254152397 256.1165625)scale(0.1 -0.1)">
       <use xlink:href="#BitstreamVeraSans-Roman-31"/>
       <use x="63.623046875" xlink:href="#BitstreamVeraSans-Roman-30"/>
       <use x="127.24609375" xlink:href="#BitstreamVeraSans-Roman-30"/>
      </g>
     </g>
    </g>
    <g id="xtick_4">
     <g id="line2d_21">
      <g>
       <use style="stroke:#000000;stroke-width:0.5;" x="168.779666096" xlink:href="#mc7db9fdffb" y="244.518125"/>
      </g>
     </g>
     <g id="line2d_22">
      <g>
       <use style="stroke:#000000;stroke-width:0.5;" x="168.779666096" xlink:href="#m5a7d422ac3" y="21.318125"/>
      </g>
     </g>
     <g id="text_4">
      <!-- 150 -->
      <g transform="translate(160.117166096 256.1165625)scale(0.1 -0.1)">
       <use xlink:href="#BitstreamVeraSans-Roman-31"/>
       <use x="63.623046875" xlink:href="#BitstreamVeraSans-Roman-35"/>
       <use x="127.24609375" xlink:href="#BitstreamVeraSans-Roman-30"/>
      </g>
     </g>
    </g>
    <g id="xtick_5">
     <g id="line2d_23">
      <g>
       <use style="stroke:#000000;stroke-width:0.5;" x="214.642679795" xlink:href="#mc7db9fdffb" y="244.518125"/>
      </g>
     </g>
     <g id="line2d_24">
      <g>
       <use style="stroke:#000000;stroke-width:0.5;" x="214.642679795" xlink:href="#m5a7d422ac3" y="21.318125"/>
      </g>
     </g>
     <g id="text_5">
      <!-- 200 -->
      <defs>
       <path d="
M19.1875 8.29688
L53.6094 8.29688
L53.6094 0
L7.32812 0
L7.32812 8.29688
Q12.9375 14.1094 22.625 23.8906
Q32.3281 33.6875 34.8125 36.5312
Q39.5469 41.8438 41.4219 45.5312
Q43.3125 49.2188 43.3125 52.7812
Q43.3125 58.5938 39.2344 62.25
Q35.1562 65.9219 28.6094 65.9219
Q23.9688 65.9219 18.8125 64.3125
Q13.6719 62.7031 7.8125 59.4219
L7.8125 69.3906
Q13.7656 71.7812 18.9375 73
Q24.125 74.2188 28.4219 74.2188
Q39.75 74.2188 46.4844 68.5469
Q53.2188 62.8906 53.2188 53.4219
Q53.2188 48.9219 51.5312 44.8906
Q49.8594 40.875 45.4062 35.4062
Q44.1875 33.9844 37.6406 27.2188
Q31.1094 20.4531 19.1875 8.29688" id="BitstreamVeraSans-Roman-32"/>
      </defs>
      <g transform="translate(205.797367295 256.1165625)scale(0.1 -0.1)">
       <use xlink:href="#BitstreamVeraSans-Roman-32"/>
       <use x="63.623046875" xlink:href="#BitstreamVeraSans-Roman-30"/>
       <use x="127.24609375" xlink:href="#BitstreamVeraSans-Roman-30"/>
      </g>
     </g>
    </g>
    <g id="xtick_6">
     <g id="line2d_25">
      <g>
       <use style="stroke:#000000;stroke-width:0.5;" x="260.505693493" xlink:href="#mc7db9fdffb" y="244.518125"/>
      </g>
     </g>
     <g id="line2d_26">
      <g>
       <use style="stroke:#000000;stroke-width:0.5;" x="260.505693493" xlink:href="#m5a7d422ac3" y="21.318125"/>
      </g>
     </g>
     <g id="text_6">
      <!-- 250 -->
      <g transform="translate(251.660380993 256.1165625)scale(0.1 -0.1)">
       <use xlink:href="#BitstreamVeraSans-Roman-32"/>
       <use x="63.623046875" xlink:href="#BitstreamVeraSans-Roman-35"/>
       <use x="127.24609375" xlink:href="#BitstreamVeraSans-Roman-30"/>
      </g>
     </g>
    </g>
    <g id="xtick_7">
     <g id="line2d_27">
      <g>
       <use style="stroke:#000000;stroke-width:0.5;" x="306.368707192" xlink:href="#mc7db9fdffb" y="244.518125"/>
      </g>
     </g>
     <g id="line2d_28">
      <g>
       <use style="stroke:#000000;stroke-width:0.5;" x="306.368707192" xlink:href="#m5a7d422ac3" y="21.318125"/>
      </g>
     </g>
     <g id="text_7">
      <!-- 300 -->
      <defs>
       <path d="
M40.5781 39.3125
Q47.6562 37.7969 51.625 33
Q55.6094 28.2188 55.6094 21.1875
Q55.6094 10.4062 48.1875 4.48438
Q40.7656 -1.42188 27.0938 -1.42188
Q22.5156 -1.42188 17.6562 -0.515625
Q12.7969 0.390625 7.625 2.20312
L7.625 11.7188
Q11.7188 9.32812 16.5938 8.10938
Q21.4844 6.89062 26.8125 6.89062
Q36.0781 6.89062 40.9375 10.5469
Q45.7969 14.2031 45.7969 21.1875
Q45.7969 27.6406 41.2812 31.2656
Q36.7656 34.9062 28.7188 34.9062
L20.2188 34.9062
L20.2188 43.0156
L29.1094 43.0156
Q36.375 43.0156 40.2344 45.9219
Q44.0938 48.8281 44.0938 54.2969
Q44.0938 59.9062 40.1094 62.9062
Q36.1406 65.9219 28.7188 65.9219
Q24.6562 65.9219 20.0156 65.0312
Q15.375 64.1562 9.8125 62.3125
L9.8125 71.0938
Q15.4375 72.6562 20.3438 73.4375
Q25.25 74.2188 29.5938 74.2188
Q40.8281 74.2188 47.3594 69.1094
Q53.9062 64.0156 53.9062 55.3281
Q53.9062 49.2656 50.4375 45.0938
Q46.9688 40.9219 40.5781 39.3125" id="BitstreamVeraSans-Roman-33"/>
      </defs>
      <g transform="translate(297.538238442 256.1165625)scale(0.1 -0.1)">
       <use xlink:href="#BitstreamVeraSans-Roman-33"/>
       <use x="63.623046875" xlink:href="#BitstreamVeraSans-Roman-30"/>
       <use x="127.24609375" xlink:href="#BitstreamVeraSans-Roman-30"/>
      </g>
     </g>
    </g>
    <g id="xtick_8">
     <g id="line2d_29">
      <g>
       <use style="stroke:#000000;stroke-width:0.5;" x="352.23172089" xlink:href="#mc7db9fdffb" y="244.518125"/>
      </g>
     </g>
     <g id="line2d_30">
      <g>
       <use style="stroke:#000000;stroke-width:0.5;" x="352.23172089" xlink:href="#m5a7d422ac3" y="21.318125"/>
      </g>
     </g>
     <g id="text_8">
      <!-- 350 -->
      <g transform="translate(343.40125214 256.1165625)scale(0.1 -0.1)">
       <use xlink:href="#BitstreamVeraSans-Roman-33"/>
       <use x="63.623046875" xlink:href="#BitstreamVeraSans-Roman-35"/>
       <use x="127.24609375" xlink:href="#BitstreamVeraSans-Roman-30"/>
      </g>
     </g>
    </g>
    <g id="text_9">
     <!-- Julian day -->
     <defs>
      <path d="
M9.42188 75.9844
L18.4062 75.9844
L18.4062 0
L9.42188 0
z
" id="BitstreamVeraSans-Roman-6c"/>
      <path id="BitstreamVeraSans-Roman-20"/>
      <path d="
M45.4062 46.3906
L45.4062 75.9844
L54.3906 75.9844
L54.3906 0
L45.4062 0
L45.4062 8.20312
Q42.5781 3.32812 38.25 0.953125
Q33.9375 -1.42188 27.875 -1.42188
Q17.9688 -1.42188 11.7344 6.48438
Q5.51562 14.4062 5.51562 27.2969
Q5.51562 40.1875 11.7344 48.0938
Q17.9688 56 27.875 56
Q33.9375 56 38.25 53.625
Q42.5781 51.2656 45.4062 46.3906
M14.7969 27.2969
Q14.7969 17.3906 18.875 11.75
Q22.9531 6.10938 30.0781 6.10938
Q37.2031 6.10938 41.2969 11.75
Q45.4062 17.3906 45.4062 27.2969
Q45.4062 37.2031 41.2969 42.8438
Q37.2031 48.4844 30.0781 48.4844
Q22.9531 48.4844 18.875 42.8438
Q14.7969 37.2031 14.7969 27.2969" id="BitstreamVeraSans-Roman-64"/>
      <path d="
M9.42188 54.6875
L18.4062 54.6875
L18.4062 0
L9.42188 0
z

M9.42188 75.9844
L18.4062 75.9844
L18.4062 64.5938
L9.42188 64.5938
z
" id="BitstreamVeraSans-Roman-69"/>
      <path d="
M32.1719 -5.07812
Q28.375 -14.8438 24.75 -17.8125
Q21.1406 -20.7969 15.0938 -20.7969
L7.90625 -20.7969
L7.90625 -13.2812
L13.1875 -13.2812
Q16.8906 -13.2812 18.9375 -11.5156
Q21 -9.76562 23.4844 -3.21875
L25.0938 0.875
L2.98438 54.6875
L12.5 54.6875
L29.5938 11.9219
L46.6875 54.6875
L56.2031 54.6875
z
" id="BitstreamVeraSans-Roman-79"/>
      <path d="
M34.2812 27.4844
Q23.3906 27.4844 19.1875 25
Q14.9844 22.5156 14.9844 16.5
Q14.9844 11.7188 18.1406 8.90625
Q21.2969 6.10938 26.7031 6.10938
Q34.1875 6.10938 38.7031 11.4062
Q43.2188 16.7031 43.2188 25.4844
L43.2188 27.4844
z

M52.2031 31.2031
L52.2031 0
L43.2188 0
L43.2188 8.29688
Q40.1406 3.32812 35.5469 0.953125
Q30.9531 -1.42188 24.3125 -1.42188
Q15.9219 -1.42188 10.9531 3.29688
Q6 8.01562 6 15.9219
Q6 25.1406 12.1719 29.8281
Q18.3594 34.5156 30.6094 34.5156
L43.2188 34.5156
L43.2188 35.4062
Q43.2188 41.6094 39.1406 45
Q35.0625 48.3906 27.6875 48.3906
Q23 48.3906 18.5469 47.2656
Q14.1094 46.1406 10.0156 43.8906
L10.0156 52.2031
Q14.9375 54.1094 19.5781 55.0469
Q24.2188 56 28.6094 56
Q40.4844 56 46.3438 49.8438
Q52.2031 43.7031 52.2031 31.2031" id="BitstreamVeraSans-Roman-61"/>
      <path d="
M54.8906 33.0156
L54.8906 0
L45.9062 0
L45.9062 32.7188
Q45.9062 40.4844 42.875 44.3281
Q39.8438 48.1875 33.7969 48.1875
Q26.5156 48.1875 22.3125 43.5469
Q18.1094 38.9219 18.1094 30.9062
L18.1094 0
L9.07812 0
L9.07812 54.6875
L18.1094 54.6875
L18.1094 46.1875
Q21.3438 51.125 25.7031 53.5625
Q30.0781 56 35.7969 56
Q45.2188 56 50.0469 50.1719
Q54.8906 44.3438 54.8906 33.0156" id="BitstreamVeraSans-Roman-6e"/>
      <path d="
M8.5 21.5781
L8.5 54.6875
L17.4844 54.6875
L17.4844 21.9219
Q17.4844 14.1562 20.5 10.2656
Q23.5312 6.39062 29.5938 6.39062
Q36.8594 6.39062 41.0781 11.0312
Q45.3125 15.6719 45.3125 23.6875
L45.3125 54.6875
L54.2969 54.6875
L54.2969 0
L45.3125 0
L45.3125 8.40625
Q42.0469 3.42188 37.7188 1
Q33.4062 -1.42188 27.6875 -1.42188
Q18.2656 -1.42188 13.375 4.4375
Q8.5 10.2969 8.5 21.5781" id="BitstreamVeraSans-Roman-75"/>
      <path d="
M9.8125 72.9062
L19.6719 72.9062
L19.6719 5.07812
Q19.6719 -8.10938 14.6719 -14.0625
Q9.67188 -20.0156 -1.42188 -20.0156
L-5.17188 -20.0156
L-5.17188 -11.7188
L-2.09375 -11.7188
Q4.4375 -11.7188 7.125 -8.04688
Q9.8125 -4.39062 9.8125 5.07812
z
" id="BitstreamVeraSans-Roman-4a"/>
     </defs>
     <g transform="translate(174.03984375 270.7946875)scale(0.1 -0.1)">
      <use xlink:href="#BitstreamVeraSans-Roman-4a"/>
      <use x="29.4921875" xlink:href="#BitstreamVeraSans-Roman-75"/>
      <use x="92.87109375" xlink:href="#BitstreamVeraSans-Roman-6c"/>
      <use x="120.654296875" xlink:href="#BitstreamVeraSans-Roman-69"/>
      <use x="148.4375" xlink:href="#BitstreamVeraSans-Roman-61"/>
      <use x="209.716796875" xlink:href="#BitstreamVeraSans-Roman-6e"/>
      <use x="273.095703125" xlink:href="#BitstreamVeraSans-Roman-20"/>
      <use x="304.8828125" xlink:href="#BitstreamVeraSans-Roman-64"/>
      <use x="368.359375" xlink:href="#BitstreamVeraSans-Roman-61"/>
      <use x="429.638671875" xlink:href="#BitstreamVeraSans-Roman-79"/>
     </g>
    </g>
   </g>
   <g id="matplotlib.axis_2">
    <g id="ytick_1">
     <g id="line2d_31">
      <defs>
       <path d="
M0 0
L4 0" id="md7965d1ba0" style="stroke:#000000;stroke-width:0.5;"/>
      </defs>
      <g>
       <use style="stroke:#000000;stroke-width:0.5;" x="31.190625" xlink:href="#md7965d1ba0" y="244.518125"/>
      </g>
     </g>
     <g id="line2d_32">
      <defs>
       <path d="
M0 0
L-4 0" id="md9a1c1a7cd" style="stroke:#000000;stroke-width:0.5;"/>
      </defs>
      <g>
       <use style="stroke:#000000;stroke-width:0.5;" x="365.990625" xlink:href="#md9a1c1a7cd" y="244.518125"/>
      </g>
     </g>
     <g id="text_10">
      <!-- 0 -->
      <g transform="translate(22.1515625 247.2775)scale(0.1 -0.1)">
       <use xlink:href="#BitstreamVeraSans-Roman-30"/>
      </g>
     </g>
    </g>
    <g id="ytick_2">
     <g id="line2d_33">
      <g>
       <use style="stroke:#000000;stroke-width:0.5;" x="31.190625" xlink:href="#md7965d1ba0" y="212.632410714"/>
      </g>
     </g>
     <g id="line2d_34">
      <g>
       <use style="stroke:#000000;stroke-width:0.5;" x="365.990625" xlink:href="#md9a1c1a7cd" y="212.632410714"/>
      </g>
     </g>
     <g id="text_11">
      <!-- 1 -->
      <g transform="translate(22.85 215.391785714)scale(0.1 -0.1)">
       <use xlink:href="#BitstreamVeraSans-Roman-31"/>
      </g>
     </g>
    </g>
    <g id="ytick_3">
     <g id="line2d_35">
      <g>
       <use style="stroke:#000000;stroke-width:0.5;" x="31.190625" xlink:href="#md7965d1ba0" y="180.746696429"/>
      </g>
     </g>
     <g id="line2d_36">
      <g>
       <use style="stroke:#000000;stroke-width:0.5;" x="365.990625" xlink:href="#md9a1c1a7cd" y="180.746696429"/>
      </g>
     </g>
     <g id="text_12">
      <!-- 2 -->
      <g transform="translate(22.5625 183.506071429)scale(0.1 -0.1)">
       <use xlink:href="#BitstreamVeraSans-Roman-32"/>
      </g>
     </g>
    </g>
    <g id="ytick_4">
     <g id="line2d_37">
      <g>
       <use style="stroke:#000000;stroke-width:0.5;" x="31.190625" xlink:href="#md7965d1ba0" y="148.860982143"/>
      </g>
     </g>
     <g id="line2d_38">
      <g>
       <use style="stroke:#000000;stroke-width:0.5;" x="365.990625" xlink:href="#md9a1c1a7cd" y="148.860982143"/>
      </g>
     </g>
     <g id="text_13">
      <!-- 3 -->
      <g transform="translate(22.3921875 151.620357143)scale(0.1 -0.1)">
       <use xlink:href="#BitstreamVeraSans-Roman-33"/>
      </g>
     </g>
    </g>
    <g id="ytick_5">
     <g id="line2d_39">
      <g>
       <use style="stroke:#000000;stroke-width:0.5;" x="31.190625" xlink:href="#md7965d1ba0" y="116.975267857"/>
      </g>
     </g>
     <g id="line2d_40">
      <g>
       <use style="stroke:#000000;stroke-width:0.5;" x="365.990625" xlink:href="#md9a1c1a7cd" y="116.975267857"/>
      </g>
     </g>
     <g id="text_14">
      <!-- 4 -->
      <defs>
       <path d="
M37.7969 64.3125
L12.8906 25.3906
L37.7969 25.3906
z

M35.2031 72.9062
L47.6094 72.9062
L47.6094 25.3906
L58.0156 25.3906
L58.0156 17.1875
L47.6094 17.1875
L47.6094 0
L37.7969 0
L37.7969 17.1875
L4.89062 17.1875
L4.89062 26.7031
z
" id="BitstreamVeraSans-Roman-34"/>
      </defs>
      <g transform="translate(21.878125 119.734642857)scale(0.1 -0.1)">
       <use xlink:href="#BitstreamVeraSans-Roman-34"/>
      </g>
     </g>
    </g>
    <g id="ytick_6">
     <g id="line2d_41">
      <g>
       <use style="stroke:#000000;stroke-width:0.5;" x="31.190625" xlink:href="#md7965d1ba0" y="85.0895535714"/>
      </g>
     </g>
     <g id="line2d_42">
      <g>
       <use style="stroke:#000000;stroke-width:0.5;" x="365.990625" xlink:href="#md9a1c1a7cd" y="85.0895535714"/>
      </g>
     </g>
     <g id="text_15">
      <!-- 5 -->
      <g transform="translate(22.4734375 87.8489285714)scale(0.1 -0.1)">
       <use xlink:href="#BitstreamVeraSans-Roman-35"/>
      </g>
     </g>
    </g>
    <g id="ytick_7">
     <g id="line2d_43">
      <g>
       <use style="stroke:#000000;stroke-width:0.5;" x="31.190625" xlink:href="#md7965d1ba0" y="53.2038392857"/>
      </g>
     </g>
     <g id="line2d_44">
      <g>
       <use style="stroke:#000000;stroke-width:0.5;" x="365.990625" xlink:href="#md9a1c1a7cd" y="53.2038392857"/>
      </g>
     </g>
     <g id="text_16">
      <!-- 6 -->
      <defs>
       <path d="
M33.0156 40.375
Q26.375 40.375 22.4844 35.8281
Q18.6094 31.2969 18.6094 23.3906
Q18.6094 15.5312 22.4844 10.9531
Q26.375 6.39062 33.0156 6.39062
Q39.6562 6.39062 43.5312 10.9531
Q47.4062 15.5312 47.4062 23.3906
Q47.4062 31.2969 43.5312 35.8281
Q39.6562 40.375 33.0156 40.375
M52.5938 71.2969
L52.5938 62.3125
Q48.875 64.0625 45.0938 64.9844
Q41.3125 65.9219 37.5938 65.9219
Q27.8281 65.9219 22.6719 59.3281
Q17.5312 52.7344 16.7969 39.4062
Q19.6719 43.6562 24.0156 45.9219
Q28.375 48.1875 33.5938 48.1875
Q44.5781 48.1875 50.9531 41.5156
Q57.3281 34.8594 57.3281 23.3906
Q57.3281 12.1562 50.6875 5.35938
Q44.0469 -1.42188 33.0156 -1.42188
Q20.3594 -1.42188 13.6719 8.26562
Q6.98438 17.9688 6.98438 36.375
Q6.98438 53.6562 15.1875 63.9375
Q23.3906 74.2188 37.2031 74.2188
Q40.9219 74.2188 44.7031 73.4844
Q48.4844 72.75 52.5938 71.2969" id="BitstreamVeraSans-Roman-36"/>
      </defs>
      <g transform="translate(22.15625 55.9632142857)scale(0.1 -0.1)">
       <use xlink:href="#BitstreamVeraSans-Roman-36"/>
      </g>
     </g>
    </g>
    <g id="ytick_8">
     <g id="line2d_45">
      <g>
       <use style="stroke:#000000;stroke-width:0.5;" x="31.190625" xlink:href="#md7965d1ba0" y="21.318125"/>
      </g>
     </g>
     <g id="line2d_46">
      <g>
       <use style="stroke:#000000;stroke-width:0.5;" x="365.990625" xlink:href="#md9a1c1a7cd" y="21.318125"/>
      </g>
     </g>
     <g id="text_17">
      <!-- 7 -->
      <defs>
       <path d="
M8.20312 72.9062
L55.0781 72.9062
L55.0781 68.7031
L28.6094 0
L18.3125 0
L43.2188 64.5938
L8.20312 64.5938
z
" id="BitstreamVeraSans-Roman-37"/>
      </defs>
      <g transform="translate(22.503125 24.0775)scale(0.1 -0.1)">
       <use xlink:href="#BitstreamVeraSans-Roman-37"/>
      </g>
     </g>
    </g>
    <g id="text_18">
     <!-- PET (mm/day) -->
     <defs>
      <path d="
M9.8125 72.9062
L55.9062 72.9062
L55.9062 64.5938
L19.6719 64.5938
L19.6719 43.0156
L54.3906 43.0156
L54.3906 34.7188
L19.6719 34.7188
L19.6719 8.29688
L56.7812 8.29688
L56.7812 0
L9.8125 0
z
" id="BitstreamVeraSans-Roman-45"/>
      <path d="
M31 75.875
Q24.4688 64.6562 21.2812 53.6562
Q18.1094 42.6719 18.1094 31.3906
Q18.1094 20.125 21.3125 9.0625
Q24.5156 -2 31 -13.1875
L23.1875 -13.1875
Q15.875 -1.70312 12.2344 9.375
Q8.59375 20.4531 8.59375 31.3906
Q8.59375 42.2812 12.2031 53.3125
Q15.8281 64.3594 23.1875 75.875
z
" id="BitstreamVeraSans-Roman-28"/>
      <path d="
M-0.296875 72.9062
L61.375 72.9062
L61.375 64.5938
L35.5 64.5938
L35.5 0
L25.5938 0
L25.5938 64.5938
L-0.296875 64.5938
z
" id="BitstreamVeraSans-Roman-54"/>
      <path d="
M19.6719 64.7969
L19.6719 37.4062
L32.0781 37.4062
Q38.9688 37.4062 42.7188 40.9688
Q46.4844 44.5312 46.4844 51.125
Q46.4844 57.6719 42.7188 61.2344
Q38.9688 64.7969 32.0781 64.7969
z

M9.8125 72.9062
L32.0781 72.9062
Q44.3438 72.9062 50.6094 67.3594
Q56.8906 61.8125 56.8906 51.125
Q56.8906 40.3281 50.6094 34.8125
Q44.3438 29.2969 32.0781 29.2969
L19.6719 29.2969
L19.6719 0
L9.8125 0
z
" id="BitstreamVeraSans-Roman-50"/>
      <path d="
M52 44.1875
Q55.375 50.25 60.0625 53.125
Q64.75 56 71.0938 56
Q79.6406 56 84.2812 50.0156
Q88.9219 44.0469 88.9219 33.0156
L88.9219 0
L79.8906 0
L79.8906 32.7188
Q79.8906 40.5781 77.0938 44.375
Q74.3125 48.1875 68.6094 48.1875
Q61.625 48.1875 57.5625 43.5469
Q53.5156 38.9219 53.5156 30.9062
L53.5156 0
L44.4844 0
L44.4844 32.7188
Q44.4844 40.625 41.7031 44.4062
Q38.9219 48.1875 33.1094 48.1875
Q26.2188 48.1875 22.1562 43.5312
Q18.1094 38.875 18.1094 30.9062
L18.1094 0
L9.07812 0
L9.07812 54.6875
L18.1094 54.6875
L18.1094 46.1875
Q21.1875 51.2188 25.4844 53.6094
Q29.7812 56 35.6875 56
Q41.6562 56 45.8281 52.9688
Q50 49.9531 52 44.1875" id="BitstreamVeraSans-Roman-6d"/>
      <path d="
M25.3906 72.9062
L33.6875 72.9062
L8.29688 -9.28125
L0 -9.28125
z
" id="BitstreamVeraSans-Roman-2f"/>
      <path d="
M8.01562 75.875
L15.8281 75.875
Q23.1406 64.3594 26.7812 53.3125
Q30.4219 42.2812 30.4219 31.3906
Q30.4219 20.4531 26.7812 9.375
Q23.1406 -1.70312 15.8281 -13.1875
L8.01562 -13.1875
Q14.5 -2 17.7031 9.0625
Q20.9062 20.125 20.9062 31.3906
Q20.9062 42.6719 17.7031 53.6562
Q14.5 64.6562 8.01562 75.875" id="BitstreamVeraSans-Roman-29"/>
     </defs>
     <g transform="translate(14.7984375 167.82984375)rotate(-90.0)scale(0.1 -0.1)">
      <use xlink:href="#BitstreamVeraSans-Roman-50"/>
      <use x="60.302734375" xlink:href="#BitstreamVeraSans-Roman-45"/>
      <use x="123.486328125" xlink:href="#BitstreamVeraSans-Roman-54"/>
      <use x="184.5703125" xlink:href="#BitstreamVeraSans-Roman-20"/>
      <use x="216.357421875" xlink:href="#BitstreamVeraSans-Roman-28"/>
      <use x="255.37109375" xlink:href="#BitstreamVeraSans-Roman-6d"/>
      <use x="352.783203125" xlink:href="#BitstreamVeraSans-Roman-6d"/>
      <use x="450.1953125" xlink:href="#BitstreamVeraSans-Roman-2f"/>
      <use x="483.88671875" xlink:href="#BitstreamVeraSans-Roman-64"/>
      <use x="547.36328125" xlink:href="#BitstreamVeraSans-Roman-61"/>
      <use x="608.642578125" xlink:href="#BitstreamVeraSans-Roman-79"/>
      <use x="667.822265625" xlink:href="#BitstreamVeraSans-Roman-29"/>
     </g>
    </g>
   </g>
   <g id="text_19">
    <!-- daily tree PET at LowerWeather -->
    <defs>
     <path d="
M3.32812 72.9062
L13.2812 72.9062
L28.6094 11.2812
L43.8906 72.9062
L54.9844 72.9062
L70.3125 11.2812
L85.5938 72.9062
L95.6094 72.9062
L77.2969 0
L64.8906 0
L49.5156 63.2812
L33.9844 0
L21.5781 0
z
" id="BitstreamVeraSans-Roman-57"/>
     <path d="
M54.8906 33.0156
L54.8906 0
L45.9062 0
L45.9062 32.7188
Q45.9062 40.4844 42.875 44.3281
Q39.8438 48.1875 33.7969 48.1875
Q26.5156 48.1875 22.3125 43.5469
Q18.1094 38.9219 18.1094 30.9062
L18.1094 0
L9.07812 0
L9.07812 75.9844
L18.1094 75.9844
L18.1094 46.1875
Q21.3438 51.125 25.7031 53.5625
Q30.0781 56 35.7969 56
Q45.2188 56 50.0469 50.1719
Q54.8906 44.3438 54.8906 33.0156" id="BitstreamVeraSans-Roman-68"/>
     <path d="
M4.20312 54.6875
L13.1875 54.6875
L24.4219 12.0156
L35.5938 54.6875
L46.1875 54.6875
L57.4219 12.0156
L68.6094 54.6875
L77.5938 54.6875
L63.2812 0
L52.6875 0
L40.9219 44.8281
L29.1094 0
L18.5 0
z
" id="BitstreamVeraSans-Roman-77"/>
     <path d="
M41.1094 46.2969
Q39.5938 47.1719 37.8125 47.5781
Q36.0312 48 33.8906 48
Q26.2656 48 22.1875 43.0469
Q18.1094 38.0938 18.1094 28.8125
L18.1094 0
L9.07812 0
L9.07812 54.6875
L18.1094 54.6875
L18.1094 46.1875
Q20.9531 51.1719 25.4844 53.5781
Q30.0312 56 36.5312 56
Q37.4531 56 38.5781 55.875
Q39.7031 55.7656 41.0625 55.5156
z
" id="BitstreamVeraSans-Roman-72"/>
     <path d="
M18.3125 70.2188
L18.3125 54.6875
L36.8125 54.6875
L36.8125 47.7031
L18.3125 47.7031
L18.3125 18.0156
Q18.3125 11.3281 20.1406 9.42188
Q21.9688 7.51562 27.5938 7.51562
L36.8125 7.51562
L36.8125 0
L27.5938 0
Q17.1875 0 13.2344 3.875
Q9.28125 7.76562 9.28125 18.0156
L9.28125 47.7031
L2.6875 47.7031
L2.6875 54.6875
L9.28125 54.6875
L9.28125 70.2188
z
" id="BitstreamVeraSans-Roman-74"/>
     <path d="
M56.2031 29.5938
L56.2031 25.2031
L14.8906 25.2031
Q15.4844 15.9219 20.4844 11.0625
Q25.4844 6.20312 34.4219 6.20312
Q39.5938 6.20312 44.4531 7.46875
Q49.3125 8.73438 54.1094 11.2812
L54.1094 2.78125
Q49.2656 0.734375 44.1875 -0.34375
Q39.1094 -1.42188 33.8906 -1.42188
Q20.7969 -1.42188 13.1562 6.1875
Q5.51562 13.8125 5.51562 26.8125
Q5.51562 40.2344 12.7656 48.1094
Q20.0156 56 32.3281 56
Q43.3594 56 49.7812 48.8906
Q56.2031 41.7969 56.2031 29.5938
M47.2188 32.2344
Q47.125 39.5938 43.0938 43.9844
Q39.0625 48.3906 32.4219 48.3906
Q24.9062 48.3906 20.3906 44.1406
Q15.875 39.8906 15.1875 32.1719
z
" id="BitstreamVeraSans-Roman-65"/>
     <path d="
M9.8125 72.9062
L19.6719 72.9062
L19.6719 8.29688
L55.1719 8.29688
L55.1719 0
L9.8125 0
z
" id="BitstreamVeraSans-Roman-4c"/>
     <path d="
M30.6094 48.3906
Q23.3906 48.3906 19.1875 42.75
Q14.9844 37.1094 14.9844 27.2969
Q14.9844 17.4844 19.1562 11.8438
Q23.3438 6.20312 30.6094 6.20312
Q37.7969 6.20312 41.9844 11.8594
Q46.1875 17.5312 46.1875 27.2969
Q46.1875 37.0156 41.9844 42.7031
Q37.7969 48.3906 30.6094 48.3906
M30.6094 56
Q42.3281 56 49.0156 48.375
Q55.7188 40.7656 55.7188 27.2969
Q55.7188 13.875 49.0156 6.21875
Q42.3281 -1.42188 30.6094 -1.42188
Q18.8438 -1.42188 12.1719 6.21875
Q5.51562 13.875 5.51562 27.2969
Q5.51562 40.7656 12.1719 48.375
Q18.8438 56 30.6094 56" id="BitstreamVeraSans-Roman-6f"/>
    </defs>
    <g transform="translate(104.1853125 16.318125)scale(0.12 -0.12)">
     <use xlink:href="#BitstreamVeraSans-Roman-64"/>
     <use x="63.4765625" xlink:href="#BitstreamVeraSans-Roman-61"/>
     <use x="124.755859375" xlink:href="#BitstreamVeraSans-Roman-69"/>
     <use x="152.5390625" xlink:href="#BitstreamVeraSans-Roman-6c"/>
     <use x="180.322265625" xlink:href="#BitstreamVeraSans-Roman-79"/>
     <use x="239.501953125" xlink:href="#BitstreamVeraSans-Roman-20"/>
     <use x="271.2890625" xlink:href="#BitstreamVeraSans-Roman-74"/>
     <use x="310.498046875" xlink:href="#BitstreamVeraSans-Roman-72"/>
     <use x="349.361328125" xlink:href="#BitstreamVeraSans-Roman-65"/>
     <use x="410.884765625" xlink:href="#BitstreamVeraSans-Roman-65"/>
     <use x="472.408203125" xlink:href="#BitstreamVeraSans-Roman-20"/>
     <use x="504.1953125" xlink:href="#BitstreamVeraSans-Roman-50"/>
     <use x="564.498046875" xlink:href="#BitstreamVeraSans-Roman-45"/>
     <use x="627.681640625" xlink:href="#BitstreamVeraSans-Roman-54"/>
     <use x="688.765625" xlink:href="#BitstreamVeraSans-Roman-20"/>
     <use x="720.552734375" xlink:href="#BitstreamVeraSans-Roman-61"/>
     <use x="781.83203125" xlink:href="#BitstreamVeraSans-Roman-74"/>
     <use x="821.041015625" xlink:href="#BitstreamVeraSans-Roman-20"/>
     <use x="852.828125" xlink:href="#BitstreamVeraSans-Roman-4c"/>
     <use x="906.791015625" xlink:href="#BitstreamVeraSans-Roman-6f"/>
     <use x="967.97265625" xlink:href="#BitstreamVeraSans-Roman-77"/>
     <use x="1049.759765625" xlink:href="#BitstreamVeraSans-Roman-65"/>
     <use x="1111.283203125" xlink:href="#BitstreamVeraSans-Roman-72"/>
     <use x="1152.396484375" xlink:href="#BitstreamVeraSans-Roman-57"/>
     <use x="1245.3984375" xlink:href="#BitstreamVeraSans-Roman-65"/>
     <use x="1306.921875" xlink:href="#BitstreamVeraSans-Roman-61"/>
     <use x="1368.201171875" xlink:href="#BitstreamVeraSans-Roman-74"/>
     <use x="1407.41015625" xlink:href="#BitstreamVeraSans-Roman-68"/>
     <use x="1470.7890625" xlink:href="#BitstreamVeraSans-Roman-65"/>
     <use x="1532.3125" xlink:href="#BitstreamVeraSans-Roman-72"/>
    </g>
   </g>
   <g id="legend_1">
    <g id="patch_7">
     <path d="
M287.803 277.511
L359.991 277.511
L359.991 27.3181
L287.803 27.3181
z
" style="fill:#ffffff;stroke:#000000;stroke-linejoin:miter;"/>
    </g>
    <g id="line2d_47">
     <path d="
M296.203 37.0362
L313.003 37.0362" style="fill:none;stroke:#0000ff;stroke-linecap:square;"/>
    </g>
    <g id="line2d_48"/>
    <g id="text_20">
     <!-- 1999 -->
     <defs>
      <path d="
M10.9844 1.51562
L10.9844 10.5
Q14.7031 8.73438 18.5 7.8125
Q22.3125 6.89062 25.9844 6.89062
Q35.75 6.89062 40.8906 13.4531
Q46.0469 20.0156 46.7812 33.4062
Q43.9531 29.2031 39.5938 26.9531
Q35.25 24.7031 29.9844 24.7031
Q19.0469 24.7031 12.6719 31.3125
Q6.29688 37.9375 6.29688 49.4219
Q6.29688 60.6406 12.9375 67.4219
Q19.5781 74.2188 30.6094 74.2188
Q43.2656 74.2188 49.9219 64.5156
Q56.5938 54.8281 56.5938 36.375
Q56.5938 19.1406 48.4062 8.85938
Q40.2344 -1.42188 26.4219 -1.42188
Q22.7031 -1.42188 18.8906 -0.6875
Q15.0938 0.046875 10.9844 1.51562
M30.6094 32.4219
Q37.25 32.4219 41.125 36.9531
Q45.0156 41.5 45.0156 49.4219
Q45.0156 57.2812 41.125 61.8438
Q37.25 66.4062 30.6094 66.4062
Q23.9688 66.4062 20.0938 61.8438
Q16.2188 57.2812 16.2188 49.4219
Q16.2188 41.5 20.0938 36.9531
Q23.9688 32.4219 30.6094 32.4219" id="BitstreamVeraSans-Roman-39"/>
     </defs>
     <g transform="translate(326.203125 41.23625)scale(0.12 -0.12)">
      <use xlink:href="#BitstreamVeraSans-Roman-31"/>
      <use x="63.623046875" xlink:href="#BitstreamVeraSans-Roman-39"/>
      <use x="127.24609375" xlink:href="#BitstreamVeraSans-Roman-39"/>
      <use x="190.869140625" xlink:href="#BitstreamVeraSans-Roman-39"/>
     </g>
    </g>
    <g id="line2d_49">
     <path d="
M296.203 54.65
L313.003 54.65" style="fill:none;stroke:#008000;stroke-linecap:square;"/>
    </g>
    <g id="line2d_50"/>
    <g id="text_21">
     <!-- 2000 -->
     <g transform="translate(326.203125 58.85)scale(0.12 -0.12)">
      <use xlink:href="#BitstreamVeraSans-Roman-32"/>
      <use x="63.623046875" xlink:href="#BitstreamVeraSans-Roman-30"/>
      <use x="127.24609375" xlink:href="#BitstreamVeraSans-Roman-30"/>
      <use x="190.869140625" xlink:href="#BitstreamVeraSans-Roman-30"/>
     </g>
    </g>
    <g id="line2d_51">
     <path d="
M296.203 72.2638
L313.003 72.2638" style="fill:none;stroke:#ff0000;stroke-linecap:square;"/>
    </g>
    <g id="line2d_52"/>
    <g id="text_22">
     <!-- 2001 -->
     <g transform="translate(326.203125 76.46375)scale(0.12 -0.12)">
      <use xlink:href="#BitstreamVeraSans-Roman-32"/>
      <use x="63.623046875" xlink:href="#BitstreamVeraSans-Roman-30"/>
      <use x="127.24609375" xlink:href="#BitstreamVeraSans-Roman-30"/>
      <use x="190.869140625" xlink:href="#BitstreamVeraSans-Roman-31"/>
     </g>
    </g>
    <g id="line2d_53">
     <path d="
M296.203 89.8775
L313.003 89.8775" style="fill:none;stroke:#00bfbf;stroke-linecap:square;"/>
    </g>
    <g id="line2d_54"/>
    <g id="text_23">
     <!-- 2002 -->
     <g transform="translate(326.203125 94.0775)scale(0.12 -0.12)">
      <use xlink:href="#BitstreamVeraSans-Roman-32"/>
      <use x="63.623046875" xlink:href="#BitstreamVeraSans-Roman-30"/>
      <use x="127.24609375" xlink:href="#BitstreamVeraSans-Roman-30"/>
      <use x="190.869140625" xlink:href="#BitstreamVeraSans-Roman-32"/>
     </g>
    </g>
    <g id="line2d_55">
     <path d="
M296.203 107.491
L313.003 107.491" style="fill:none;stroke:#bf00bf;stroke-linecap:square;"/>
    </g>
    <g id="line2d_56"/>
    <g id="text_24">
     <!-- 2003 -->
     <g transform="translate(326.203125 111.69125)scale(0.12 -0.12)">
      <use xlink:href="#BitstreamVeraSans-Roman-32"/>
      <use x="63.623046875" xlink:href="#BitstreamVeraSans-Roman-30"/>
      <use x="127.24609375" xlink:href="#BitstreamVeraSans-Roman-30"/>
      <use x="190.869140625" xlink:href="#BitstreamVeraSans-Roman-33"/>
     </g>
    </g>
    <g id="line2d_57">
     <path d="
M296.203 125.105
L313.003 125.105" style="fill:none;stroke:#bfbf00;stroke-linecap:square;"/>
    </g>
    <g id="line2d_58"/>
    <g id="text_25">
     <!-- 2004 -->
     <g transform="translate(326.203125 129.305)scale(0.12 -0.12)">
      <use xlink:href="#BitstreamVeraSans-Roman-32"/>
      <use x="63.623046875" xlink:href="#BitstreamVeraSans-Roman-30"/>
      <use x="127.24609375" xlink:href="#BitstreamVeraSans-Roman-30"/>
      <use x="190.869140625" xlink:href="#BitstreamVeraSans-Roman-34"/>
     </g>
    </g>
    <g id="line2d_59">
     <path d="
M296.203 142.719
L313.003 142.719" style="fill:none;stroke:#000000;stroke-linecap:square;"/>
    </g>
    <g id="line2d_60"/>
    <g id="text_26">
     <!-- 2005 -->
     <g transform="translate(326.203125 146.91875)scale(0.12 -0.12)">
      <use xlink:href="#BitstreamVeraSans-Roman-32"/>
      <use x="63.623046875" xlink:href="#BitstreamVeraSans-Roman-30"/>
      <use x="127.24609375" xlink:href="#BitstreamVeraSans-Roman-30"/>
      <use x="190.869140625" xlink:href="#BitstreamVeraSans-Roman-35"/>
     </g>
    </g>
    <g id="line2d_61">
     <path d="
M296.203 160.332
L313.003 160.332" style="fill:none;stroke:#0000ff;stroke-linecap:square;"/>
    </g>
    <g id="line2d_62"/>
    <g id="text_27">
     <!-- 2006 -->
     <g transform="translate(326.203125 164.5325)scale(0.12 -0.12)">
      <use xlink:href="#BitstreamVeraSans-Roman-32"/>
      <use x="63.623046875" xlink:href="#BitstreamVeraSans-Roman-30"/>
      <use x="127.24609375" xlink:href="#BitstreamVeraSans-Roman-30"/>
      <use x="190.869140625" xlink:href="#BitstreamVeraSans-Roman-36"/>
     </g>
    </g>
    <g id="line2d_63">
     <path d="
M296.203 177.946
L313.003 177.946" style="fill:none;stroke:#008000;stroke-linecap:square;"/>
    </g>
    <g id="line2d_64"/>
    <g id="text_28">
     <!-- 2007 -->
     <g transform="translate(326.203125 182.14625)scale(0.12 -0.12)">
      <use xlink:href="#BitstreamVeraSans-Roman-32"/>
      <use x="63.623046875" xlink:href="#BitstreamVeraSans-Roman-30"/>
      <use x="127.24609375" xlink:href="#BitstreamVeraSans-Roman-30"/>
      <use x="190.869140625" xlink:href="#BitstreamVeraSans-Roman-37"/>
     </g>
    </g>
    <g id="line2d_65">
     <path d="
M296.203 195.56
L313.003 195.56" style="fill:none;stroke:#ff0000;stroke-linecap:square;"/>
    </g>
    <g id="line2d_66"/>
    <g id="text_29">
     <!-- 2008 -->
     <defs>
      <path d="
M31.7812 34.625
Q24.75 34.625 20.7188 30.8594
Q16.7031 27.0938 16.7031 20.5156
Q16.7031 13.9219 20.7188 10.1562
Q24.75 6.39062 31.7812 6.39062
Q38.8125 6.39062 42.8594 10.1719
Q46.9219 13.9688 46.9219 20.5156
Q46.9219 27.0938 42.8906 30.8594
Q38.875 34.625 31.7812 34.625
M21.9219 38.8125
Q15.5781 40.375 12.0312 44.7188
Q8.5 49.0781 8.5 55.3281
Q8.5 64.0625 14.7188 69.1406
Q20.9531 74.2188 31.7812 74.2188
Q42.6719 74.2188 48.875 69.1406
Q55.0781 64.0625 55.0781 55.3281
Q55.0781 49.0781 51.5312 44.7188
Q48 40.375 41.7031 38.8125
Q48.8281 37.1562 52.7969 32.3125
Q56.7812 27.4844 56.7812 20.5156
Q56.7812 9.90625 50.3125 4.23438
Q43.8438 -1.42188 31.7812 -1.42188
Q19.7344 -1.42188 13.25 4.23438
Q6.78125 9.90625 6.78125 20.5156
Q6.78125 27.4844 10.7812 32.3125
Q14.7969 37.1562 21.9219 38.8125
M18.3125 54.3906
Q18.3125 48.7344 21.8438 45.5625
Q25.3906 42.3906 31.7812 42.3906
Q38.1406 42.3906 41.7188 45.5625
Q45.3125 48.7344 45.3125 54.3906
Q45.3125 60.0625 41.7188 63.2344
Q38.1406 66.4062 31.7812 66.4062
Q25.3906 66.4062 21.8438 63.2344
Q18.3125 60.0625 18.3125 54.3906" id="BitstreamVeraSans-Roman-38"/>
     </defs>
     <g transform="translate(326.203125 199.76)scale(0.12 -0.12)">
      <use xlink:href="#BitstreamVeraSans-Roman-32"/>
      <use x="63.623046875" xlink:href="#BitstreamVeraSans-Roman-30"/>
      <use x="127.24609375" xlink:href="#BitstreamVeraSans-Roman-30"/>
      <use x="190.869140625" xlink:href="#BitstreamVeraSans-Roman-38"/>
     </g>
    </g>
    <g id="line2d_67">
     <path d="
M296.203 213.174
L313.003 213.174" style="fill:none;stroke:#00bfbf;stroke-linecap:square;"/>
    </g>
    <g id="line2d_68"/>
    <g id="text_30">
     <!-- 2009 -->
     <g transform="translate(326.203125 217.37375)scale(0.12 -0.12)">
      <use xlink:href="#BitstreamVeraSans-Roman-32"/>
      <use x="63.623046875" xlink:href="#BitstreamVeraSans-Roman-30"/>
      <use x="127.24609375" xlink:href="#BitstreamVeraSans-Roman-30"/>
      <use x="190.869140625" xlink:href="#BitstreamVeraSans-Roman-39"/>
     </g>
    </g>
    <g id="line2d_69">
     <path d="
M296.203 230.788
L313.003 230.788" style="fill:none;stroke:#bf00bf;stroke-linecap:square;"/>
    </g>
    <g id="line2d_70"/>
    <g id="text_31">
     <!-- 2010 -->
     <g transform="translate(326.203125 234.9875)scale(0.12 -0.12)">
      <use xlink:href="#BitstreamVeraSans-Roman-32"/>
      <use x="63.623046875" xlink:href="#BitstreamVeraSans-Roman-30"/>
      <use x="127.24609375" xlink:href="#BitstreamVeraSans-Roman-31"/>
      <use x="190.869140625" xlink:href="#BitstreamVeraSans-Roman-30"/>
     </g>
    </g>
    <g id="line2d_71">
     <path d="
M296.203 248.401
L313.003 248.401" style="fill:none;stroke:#bfbf00;stroke-linecap:square;"/>
    </g>
    <g id="line2d_72"/>
    <g id="text_32">
     <!-- 2011 -->
     <g transform="translate(326.203125 252.60125)scale(0.12 -0.12)">
      <use xlink:href="#BitstreamVeraSans-Roman-32"/>
      <use x="63.623046875" xlink:href="#BitstreamVeraSans-Roman-30"/>
      <use x="127.24609375" xlink:href="#BitstreamVeraSans-Roman-31"/>
      <use x="190.869140625" xlink:href="#BitstreamVeraSans-Roman-31"/>
     </g>
    </g>
    <g id="line2d_73">
     <path d="
M296.203 266.015
L313.003 266.015" style="fill:none;stroke:#000000;stroke-linecap:square;"/>
    </g>
    <g id="line2d_74"/>
    <g id="text_33">
     <!-- 2012 -->
     <g transform="translate(326.203125 270.215)scale(0.12 -0.12)">
      <use xlink:href="#BitstreamVeraSans-Roman-32"/>
      <use x="63.623046875" xlink:href="#BitstreamVeraSans-Roman-30"/>
      <use x="127.24609375" xlink:href="#BitstreamVeraSans-Roman-31"/>
      <use x="190.869140625" xlink:href="#BitstreamVeraSans-Roman-32"/>
     </g>
    </g>
   </g>
  </g>
 </g>
 <defs>
  <clipPath id="p95a2ee5e18">
   <rect height="223.2" width="334.8" x="31.190625" y="21.318125"/>
  </clipPath>
 </defs>
</svg>
