<?xml version="1.0" encoding="utf-8" standalone="no"?>
<!DOCTYPE svg PUBLIC "-//W3C//DTD SVG 1.1//EN"
  "http://www.w3.org/Graphics/SVG/1.1/DTD/svg11.dtd">
<!-- Created with matplotlib (http://matplotlib.org/) -->
<svg height="284pt" version="1.1" viewBox="0 0 373 284" width="373pt" xmlns="http://www.w3.org/2000/svg" xmlns:xlink="http://www.w3.org/1999/xlink">
 <defs>
  <style type="text/css">
*{stroke-linecap:butt;stroke-linejoin:round;}
  </style>
 </defs>
 <g id="figure_1">
  <g id="patch_1">
   <path d="
M0 284.711
L373.191 284.711
L373.191 0
L0 0
z
" style="fill:#ffffff;"/>
  </g>
  <g id="axes_1">
   <g id="patch_2">
    <path d="
M31.1906 244.518
L365.991 244.518
L365.991 21.3181
L31.1906 21.3181
z
" style="fill:#ffffff;"/>
   </g>
   <g id="line2d_1">
    <path clip-path="url(#p95a2ee5e18)" d="
M0 0" style="fill:none;stroke:#0000ff;stroke-linecap:square;"/>
   </g>
   <g id="line2d_2">
    <path clip-path="url(#p95a2ee5e18)" d="
M0 0" style="fill:none;stroke:#008000;stroke-linecap:square;"/>
   </g>
   <g id="line2d_3">
    <path clip-path="url(#p95a2ee5e18)" d="
M0 0" style="fill:none;stroke:#ff0000;stroke-linecap:square;"/>
   </g>
   <g id="line2d_4">
    <path clip-path="url(#p95a2ee5e18)" d="
M0 0" style="fill:none;stroke:#00bfbf;stroke-linecap:square;"/>
   </g>
   <g id="line2d_5">
    <path clip-path="url(#p95a2ee5e18)" d="
M0 0" style="fill:none;stroke:#bf00bf;stroke-linecap:square;"/>
   </g>
   <g id="line2d_6">
    <path clip-path="url(#p95a2ee5e18)" d="
M0 0" style="fill:none;stroke:#bfbf00;stroke-linecap:square;"/>
   </g>
   <g id="line2d_7">
    <path clip-path="url(#p95a2ee5e18)" d="
M0 0" style="fill:none;stroke:#000000;stroke-linecap:square;"/>
   </g>
   <g id="line2d_8">
    <path clip-path="url(#p95a2ee5e18)" d="
M0 0" style="fill:none;stroke:#0000ff;stroke-linecap:square;"/>
   </g>
   <g id="line2d_9">
    <path clip-path="url(#p95a2ee5e18)" d="
M0 0" style="fill:none;stroke:#008000;stroke-linecap:square;"/>
   </g>
   <g id="line2d_10">
    <path clip-path="url(#p95a2ee5e18)" d="
M31.1906 120.993
L32.1079 108.226
L33.0251 103.025
L33.9424 144.849
L34.8597 136.613
L35.7769 190.027
L36.6942 177.7
L37.6114 189.233
L38.5287 212.857
L39.446 190.062
L40.3632 239.324
M43.115 140.033
L44.0323 156.71
L44.9495 102.019
L45.8668 123.068
L46.784 181.744
M48.6186 231.116
L49.5358 210.155
L50.4531 160.956
L51.3704 137.984
L52.2876 165.143
L53.2049 236.116
L54.1221 179.075
L55.0394 150.034
L55.9567 197.747
L56.8739 208.546
L57.7912 191.159
L58.7084 187.288
L59.6257 178.946
L60.543 168.55
L61.4602 212.098
L62.3775 175.811
L63.2947 165.952
L65.1293 196.774
L66.0465 131.928
L66.9638 153.527
L67.881 149.567
L68.7983 144.914
L69.7156 150.062
L70.6328 172.504
L71.5501 104.597
L73.3846 154.091
L74.3019 118.581
L75.2191 137.412
L76.1364 146.812
L77.0536 147.44
L77.9709 143.313
L78.8882 206.378
L79.8054 177.273
L80.7227 164.191
L81.6399 183.129
L82.5572 131.01
L83.4745 150.905
L84.3917 134.216
L85.309 115.304
L86.2262 164.452
L87.1435 118.772
L88.0608 82.6814
L88.978 122.574
L89.8953 104.868
L90.8125 74.5878
L91.7298 88.1377
L92.6471 169.494
L93.5643 111.323
L94.4816 96.3344
L95.3988 93.5654
L96.3161 58.1305
L97.2334 163.619
L98.1506 161.469
L99.0679 134.919
L99.9851 119.806
L100.902 122.422
L101.82 194.439
L102.737 170.9
L103.654 135.955
L104.571 69.6652
L105.489 41.6097
L106.406 90.1247
L107.323 157.946
L108.24 168.208
L109.158 187.631
L110.075 84.3914
L110.992 123.939
L111.91 70.8893
L112.827 75.6996
L113.744 90.5197
L114.661 24.9504
L115.579 43.4077
L116.496 48.0876
L117.413 106.74
L118.33 63.9521
L119.248 111.499
L120.165 127.616
L121.082 66.6623
L121.999 134.209
L122.917 140.56
L123.834 64.4226
L124.751 95.1944
L125.668 94.9737
L126.586 145.944
L127.503 105.397
L128.42 87.8337
L129.337 74.8537
L130.255 76.94
L131.172 85.3646
L132.089 81.3972
L133.007 81.5228
L133.924 56.0225
L134.841 145.228
L135.758 139.047
L136.676 60.0109
L137.593 37.7727
L138.51 60.8726
L139.427 66.4448
L140.345 134.991
L141.262 101.693
L142.179 64.2156
L143.096 47.0505
L144.014 63.753
L144.931 91.1558
L145.848 83.8585
L146.765 97.5388
L147.683 115.419
L148.6 93.051
L149.517 63.3278
L150.434 46.0503
L151.352 86.4652
L152.269 74.1481
L153.186 71.4139
L154.104 149.557
L155.021 116.854
L155.938 112.502
L156.855 92.4953
L157.773 118.287
L158.69 105.12
L159.607 162.331
L160.524 117.677
L161.442 132.021
L162.359 174.863
L163.276 125.694
L164.193 124.613
L165.111 155.64
L166.028 162.115
L166.945 153.976
L167.862 148.641
L168.78 124.017
L169.697 131.291
L170.614 166.856
L171.531 116.487
L172.449 173.13
L173.366 156.87
L174.283 111.855
L175.2 104.937
L176.118 129.099
L177.035 86.4812
L177.952 144.746
L178.87 112.638
L179.787 160.945
L181.621 93.4347
L182.539 92.7467
L183.456 87.65
L184.373 94.6604
L185.29 99.2861
L186.208 98.3027
L187.125 89.1938
L188.042 96.0348
L188.959 133.795
L189.877 126.065
L190.794 109.48
L191.711 109.385
L192.628 99.9268
L195.38 122.265
L196.297 124.488
L197.215 125.633
L198.132 142.414
L199.049 122.082
L199.967 120.909
L200.884 126.531
L201.801 122.102
L202.718 120.799
L203.636 122.325
L204.553 106.157
L205.47 103.191
L206.387 111.287
L207.305 84.1714
L208.222 78.967
L209.139 95.6737
L210.056 105.003
L210.974 108.427
L211.891 116.529
L212.808 116.291
L213.725 106.206
L214.643 92.3591
L215.56 112.163
L216.477 141.643
L217.394 157.941
L218.312 128.618
L219.229 129.96
L220.146 109.555
L221.064 112.511
L222.898 121.258
L223.815 119.529
L225.65 105.354
L226.567 116.21
L227.484 123.106
L228.402 115.365
L229.319 114.159
L230.236 118.778
L231.153 128.031
L232.071 134.567
L232.988 153.496
L233.905 138.078
L234.822 104.669
L235.74 109.848
L236.657 116.219
L237.574 109.427
L238.491 119.244
L239.409 122.804
L240.326 117.855
L241.243 120.202
L243.078 143.794
L243.995 120.866
L244.912 122.391
L245.83 105.143
L246.747 100.612
L247.664 115.537
L248.581 125.872
L249.499 108.567
L250.416 84.1324
L251.333 123.011
L252.25 125.754
L253.168 114.663
L254.085 99.9862
L255.002 111.678
L255.919 83.1644
L256.837 81.2658
L257.754 88.0256
L258.671 97.7667
L259.588 115.588
L260.506 114.131
L261.423 102.73
L262.34 101.071
L263.257 93.7581
L264.175 94.7407
L265.092 97.0951
L266.009 102.855
L266.927 105.395
L267.844 104.744
L269.678 100.974
L270.596 112.571
L271.513 136.228
L272.43 183.179
L273.347 180.263
L274.265 137.353
L276.099 106.577
L277.016 105.296
L277.934 116.531
L278.851 114.11
L279.768 97.8861
L280.685 109.068
L281.603 126.046
L282.52 124.428
L284.354 145.271
L285.272 190.999
L286.189 171.789
L287.106 144.179
L288.941 113.215
L289.858 108.183
L290.775 190.985
L291.693 171.064
L292.61 90.165
L293.527 102.371
L294.444 131.705
L295.362 123.387
L296.279 110.279
L297.196 135.758
L298.113 112.383
L299.031 141.552
L299.948 110.482
L300.865 98.6923
L301.782 68.0552
L302.7 67.3781
L303.617 78.5727
L304.534 94.7829
L305.451 92.8859
L306.369 85.0247
L307.286 95.4056
L308.203 101.399
L309.12 99.7204
L310.038 119.457
L310.955 172.529
L311.872 201.091
L313.707 171.702
L314.624 132.288
L315.541 160.902
L316.459 178.027
L317.376 199.099
L318.293 224.928
L319.21 191.879
L320.128 198.918
L321.045 189.799
L321.962 163.105
L322.879 116.764
L323.797 124.73
L324.714 155.194
L325.631 151.204
L326.548 134.318
L327.466 153.308
L328.383 151.765
L329.3 109.289
L331.135 217.664
L332.052 171.168
L332.969 154.433
L333.887 181.84
L334.804 170.045
L335.721 142.697
L336.638 188.874
L337.556 201.014
L338.473 194.464
L339.39 180.62
L340.307 183.072
L341.225 171.757
L342.142 154.344
L343.976 138.892
L344.894 196.587
L345.811 116.594
L346.728 133.241
L347.645 152.588
L348.563 199.769
L349.48 199.914
L350.397 193.311
L351.314 174.861
L352.232 197.817
L353.149 136.558
L354.066 140.265
L354.984 184.635
L355.901 143.426
L356.818 186.59
L357.735 204.634
L358.653 211.731
L359.57 175.19
L360.487 202.263
L361.404 170.262
L362.322 222.237
L364.156 158.367
L365.073 86.139
L365.073 86.139" style="fill:none;stroke:#ff0000;stroke-linecap:square;"/>
   </g>
   <g id="line2d_11">
    <path clip-path="url(#p95a2ee5e18)" d="
M31.1906 194.382
L32.1079 119.528
L33.0251 130.445
L33.9424 68.4498
L34.8597 132.021
L35.7769 224.133
L36.6942 170.784
L37.6114 153.809
L38.5287 176.295
L39.446 130.58
L40.3632 146.042
L41.2805 191.668
L42.1977 167.312
L43.115 184.329
L44.0323 230.882
L44.9495 232.729
L45.8668 233.966
L46.784 230.939
L47.7013 228.445
L48.6186 230.687
L49.5358 229.593
L50.4531 232.594
L51.3704 241.614
L52.2876 234.008
L53.2049 243.975
L54.1221 195.708
L55.0394 181.505
L55.9567 181.42
L56.8739 158.077
L57.7912 183.203
L58.7084 200.026
L59.6257 174.325
L60.543 156.53
L61.4602 149.523
L62.3775 161.088
L63.2947 178.252
L64.212 174
L65.1293 196.623
L66.0465 192.484
L66.9638 227.741
L67.881 163.837
L68.7983 191.505
L69.7156 197.943
L70.6328 132.618
L71.5501 185.402
L72.4673 112.919
L73.3846 148.699
L74.3019 194.559
L75.2191 133.621
L76.1364 111.225
L77.0536 132.426
L77.9709 124.845
L78.8882 158.886
L79.8054 163.507
L80.7227 114.742
L81.6399 149.433
L82.5572 166.107
L83.4745 77.8847
L84.3917 83.4402
L85.309 127.648
L86.2262 161.463
L87.1435 167.442
L88.0608 195.966
L88.978 233.364
L89.8953 193.535
L90.8125 135.871
L91.7298 178.036
L92.6471 124.716
L93.5643 138.74
L94.4816 108.718
L95.3988 123.792
L96.3161 119.924
L97.2334 108.772
L98.1506 186.336
L99.0679 174.1
L100.902 106.644
L101.82 127.914
L102.737 111.399
L103.654 165.864
L104.571 168.275
L105.489 105.546
L106.406 129.318
L107.323 187.771
L108.24 98.4189
L109.158 100.552
L110.075 155.504
L110.992 191.784
L111.91 84.5512
L112.827 178.945
L113.744 116.415
L114.661 185.083
L115.579 171.872
L116.496 78.5373
L117.413 80.7486
L118.33 82.0639
L119.248 89.9517
L120.165 177.699
L121.082 155.228
L121.999 194.328
L122.917 163.231
L123.834 122.947
L124.751 156.589
L125.668 127.27
L126.586 133.287
L127.503 99.989
L128.42 94.1207
L129.337 110.806
L130.255 84.4055
L131.172 99.9008
L132.089 103.153
L133.007 113.053
L133.924 118.723
L134.841 61.5515
L135.758 61.2521
L136.676 121.757
L137.593 88.0003
L138.51 180.316
L139.427 127.499
L140.345 130.705
L141.262 119.56
L142.179 168.56
L143.096 188.564
L144.014 152.405
L144.931 147.669
L145.848 163.111
L146.765 119.221
L147.683 94.4525
L148.6 83.0489
L149.517 84.322
L151.352 97.5304
L152.269 73.9516
L153.186 148.073
L154.104 90.5399
L155.021 86.1218
L155.938 95.5588
L156.855 116.25
L157.773 103.44
L159.607 73.8704
L160.524 99.2913
L162.359 141.969
L163.276 112.279
L164.193 104.177
L165.111 105.005
L166.028 113.048
L166.945 115.901
L167.862 133.399
L168.78 135.653
L169.697 151.668
L170.614 192.333
L171.531 159.837
L172.449 155.311
L173.366 184.329
L174.283 179.905
L175.2 141.904
L176.118 134.641
L177.035 119.786
L177.952 148.742
L178.87 152.988
L179.787 144.398
L180.704 194.003
L181.621 191.642
L182.539 171.278
L183.456 133.617
L184.373 152.165
L185.29 120.409
L186.208 154.677
L187.125 155.148
L188.042 175.268
L188.959 127.765
L189.877 101.103
L190.794 116.624
L191.711 121.734
L192.628 125.463
L193.546 107.102
L194.463 106.512
L195.38 126.87
L196.297 123.72
L197.215 114.652
L198.132 130.18
L199.049 139.205
L199.967 131
L200.884 147.015
L201.801 120.933
L202.718 112.367
L203.636 114.222
L204.553 109.194
L205.47 113.382
L206.387 138.048
L207.305 157.322
L208.222 139.817
L209.139 117.757
L210.056 114.218
L210.974 128.507
L211.891 129.762
L212.808 137.456
L213.725 132.019
L214.643 117.344
L215.56 122.105
L216.477 130.774
L217.394 146.442
L218.312 132.323
L219.229 127.343
L220.146 133.805
L221.064 145.091
L221.981 141.904
L222.898 137.686
L223.815 137.531
L224.733 130.806
L225.65 132.847
L226.567 134.098
L227.484 133.46
L228.402 139.121
L229.319 131.281
L230.236 200.104
L231.153 217.195
L232.071 169.198
L232.988 143.045
L233.905 129.54
L234.822 129.867
L235.74 135.529
L236.657 145.512
L237.574 142.232
L238.491 119.302
L239.409 113.553
L240.326 121.731
L241.243 126.196
L242.16 134.104
L243.078 144.37
L243.995 135.957
L244.912 138.618
L245.83 152.515
L246.747 142.895
L247.664 134.458
L248.581 133.747
L249.499 131.784
L250.416 141.156
L251.333 137.95
L252.25 152.508
L253.168 137.982
L254.085 134.744
L255.002 134.419
L255.919 128.973
L256.837 129.742
L257.754 138.766
L258.671 124.989
L259.588 108.555
L260.506 100.291
L261.423 104.065
L262.34 118.301
L263.257 126.235
L264.175 127.553
L265.092 132.629
L266.927 151.335
L267.844 146.206
L268.761 137.657
L269.678 159.032
M294.444 152.002
L295.362 164.123
L296.279 151.71
L298.113 193.765
L299.031 170.778
L299.948 172.71
L300.865 183.304
L301.782 178.87
L302.7 155.441
L303.617 110.33
L304.534 162.334
L305.451 163.97
L306.369 118.607
L307.286 181.063
L308.203 217.725
L309.12 171.338
L310.038 176.772
L310.955 148.983
L311.872 155.618
L312.79 131.625
L313.707 129.396
L314.624 169.128
L316.459 136.101
L317.376 101.371
L318.293 125.883
L319.21 184.424
L320.128 183.269
L321.045 192.601
L321.962 199.075
L322.879 125.938
L323.797 128.93
L324.714 109.162
L325.631 178.557
L326.548 104.235
L327.466 126.716
L328.383 134.364
L329.3 172.268
L330.217 147.6
L331.135 159.133
L332.052 165.225
L332.969 186.132
L333.887 199.401
L334.804 177.143
L335.721 143.444
M337.556 139.751
L338.473 122.13
L339.39 110.929
L340.307 132.113
L341.225 110.197
L342.142 125.313
L343.059 206.349
L343.976 140.212
L344.894 118.165
L345.811 128.248
L346.728 143.19
L347.645 200.152
L348.563 217.185
L349.48 182.743
L350.397 195.091
L351.314 214.847
L352.232 190.774
L353.149 214.698
L354.066 231.661
L354.984 213.578
L355.901 171.37
L356.818 242.966
L357.735 215.557
L358.653 157.041
L360.487 214.681
L361.404 186.106
L362.322 194.147
L363.239 180.236
L364.156 212.947
L365.073 178.878
L365.073 178.878" style="fill:none;stroke:#00bfbf;stroke-linecap:square;"/>
   </g>
   <g id="line2d_12">
    <path clip-path="url(#p95a2ee5e18)" d="
M31.1906 204.282
L32.1079 186.573
L33.0251 210.712
L33.9424 212.202
L34.8597 225.595
L35.7769 215.921
L36.6942 166.08
L37.6114 188.138
L38.5287 166.954
L39.446 149.74
L40.3632 191.056
L41.2805 160.359
L42.1977 219.243
L43.115 174.059
L44.0323 119.378
L44.9495 178.944
L45.8668 173.543
L46.784 169.679
L47.7013 169.41
L48.6186 150.112
L49.5358 155.143
L51.3704 233.14
L52.2876 163.633
L53.2049 190.153
L54.1221 225.585
L55.0394 233.337
L55.9567 195.273
L56.8739 195.726
L57.7912 220.362
L58.7084 239.73
L59.6257 232.526
L60.543 191.875
L61.4602 198.07
L62.3775 213.788
L63.2947 197.21
L64.212 214.534
L65.1293 212.835
L66.0465 187.819
L66.9638 196.024
L67.881 139.011
L68.7983 168.197
L69.7156 173.539
L70.6328 219.88
L71.5501 173.511
L72.4673 226.998
L73.3846 205.381
L74.3019 212.128
L75.2191 169.479
L76.1364 156.734
L77.0536 148.366
L77.9709 134.808
L78.8882 85.9112
L79.8054 82.5735
L80.7227 189.765
L81.6399 164.727
L82.5572 121.349
L84.3917 192.835
L85.309 132.679
L86.2262 161.201
L87.1435 165.307
L88.0608 189.808
L88.978 153.088
L89.8953 133.844
L90.8125 125.816
L91.7298 197.295
L92.6471 118.095
L93.5643 88.9115
L94.4816 90.1957
L95.3988 108.472
L96.3161 204.625
L97.2334 132.235
L98.1506 99.4882
L99.0679 114.099
L99.9851 123.739
L100.902 126.183
L101.82 62.4334
L102.737 71.1879
L103.654 146.093
L104.571 162.615
L105.489 109.784
L106.406 96.9626
L107.323 166.96
L108.24 172.017
L109.158 107.205
L110.075 92.2622
L111.91 211.315
L112.827 137.508
L113.744 175.378
L114.661 177.799
L115.579 149.653
L116.496 105.58
L117.413 161.555
L118.33 111.601
L119.248 102.721
L120.165 130.425
L121.082 66.0958
L121.999 97.5828
L122.917 122.281
L123.834 167.702
L124.751 150.841
L125.668 116.171
L126.586 103.919
L127.503 113.37
L128.42 118.831
L129.337 105.624
L130.255 97.1839
L131.172 164.648
L132.089 197.765
L133.007 187.776
L133.924 102.264
L134.841 97.4016
L135.758 85.4172
L136.676 97.7464
L137.593 165.109
L138.51 168.329
L139.427 152.343
L140.345 157.684
L141.262 151.133
L142.179 125.287
L143.096 133.092
L144.014 60.07
L144.931 120.516
L145.848 117.618
L146.765 57.0839
L147.683 90.7959
L148.6 94.1853
L149.517 177.656
L150.434 149.932
L151.352 96.6646
L152.269 99.5603
L153.186 92.739
L154.104 95.8432
L155.021 106.455
L155.938 136.125
L156.855 204.263
L157.773 136.242
L158.69 112.664
L159.607 135.929
L160.524 230.275
L161.442 160.424
L162.359 144.649
L163.276 105.302
L164.193 166.433
L165.111 165.54
L166.028 178.256
L166.945 160.413
L167.862 125.496
L168.78 173.972
L169.697 165.862
L170.614 208.505
L171.531 157.248
L172.449 208.231
L173.366 162.994
L174.283 189.933
L175.2 145.612
L176.118 111.018
L177.035 164.231
L177.952 160.438
L178.87 132.81
L179.787 101.678
L180.704 111.093
L181.621 118.217
L182.539 147.608
L183.456 118.818
L184.373 114.225
L185.29 99.0753
L186.208 110.559
L187.125 169.67
L188.959 122.165
L189.877 116.511
L190.794 144.727
L191.711 154.519
L192.628 127.37
L193.546 115.905
L194.463 121.321
L195.38 154.714
L196.297 146.876
L197.215 123.671
L198.132 128.555
L199.049 146.858
L199.967 121.673
L200.884 120.819
L201.801 116.934
L202.718 115.096
L203.636 118.782
L204.553 124.461
L205.47 128.197
L206.387 134.036
L207.305 132.224
L208.222 92.8773
L209.139 104.487
L210.056 118.212
L210.974 125.73
L211.891 126.54
L212.808 123.975
L213.725 112.244
L214.643 112.187
L215.56 114.463
L216.477 126.845
L217.394 117.577
L218.312 121.728
L219.229 129.277
L220.146 169.814
L221.981 144.923
L222.898 135.629
L223.815 139.762
L224.733 146.211
L226.567 117.887
L227.484 120.207
L229.319 130.962
L230.236 145.658
L231.153 131.129
L232.071 133.209
L232.988 149.128
L233.905 161.946
L234.822 184.162
L235.74 162.114
L236.657 134.787
L237.574 144.504
L238.491 130.169
L239.409 129.323
L240.326 133.366
L241.243 129.44
L242.16 128.098
L243.078 118.22
L243.995 120.534
L244.912 122.279
L245.83 125.593
L246.747 119.54
L247.664 120.832
L248.581 144.217
L249.499 114.651
L250.416 135.185
L251.333 184.38
L252.25 137.698
L253.168 162.159
L254.085 143.87
L255.002 133.644
L255.919 120.266
L256.837 130.053
L257.754 122.551
L258.671 101.06
L259.588 102.127
L260.506 170.723
L261.423 211.031
L262.34 151.999
L263.257 116.001
L264.175 115.389
L265.092 119.083
L266.009 134.846
L266.927 125.124
L267.844 124.578
L268.761 130.554
L269.678 130.933
L270.596 143.59
L271.513 146.909
L272.43 131.077
L273.347 140.936
L274.265 120.988
L275.182 110.17
L276.099 126.472
L277.016 122.155
L277.934 123.294
L278.851 121.567
L279.768 134.94
L280.685 122.616
L281.603 129.148
L282.52 131.015
L283.437 174.492
L284.354 223.705
L285.272 214.424
L287.106 152.707
L288.024 183.633
L288.941 163.236
L289.858 165.788
L290.775 174.877
L291.693 129.434
L292.61 126.107
L293.527 103.068
L294.444 126.912
L295.362 143.887
L296.279 148.546
L297.196 110.715
L298.113 95.1049
L299.031 111.191
L299.948 111.501
L300.865 115.689
L301.782 171.228
M304.534 180.854
L305.451 138.902
L306.369 97.4244
L308.203 148.312
L309.12 201.147
L310.038 156.897
L310.955 164.313
L311.872 176.359
L312.79 153.201
L313.707 158.451
L314.624 166.636
M317.376 154.663
L318.293 221.239
L319.21 187.6
L320.128 162.915
L321.045 171.141
L321.962 207.813
M323.797 155.814
L324.714 143.051
L325.631 146.668
L326.548 223.2
M328.383 206.886
L329.3 236.63
M331.135 101.508
L332.052 159.253
L332.969 176.394
L333.887 233.215
L334.804 210.664
L335.721 147.33
L336.638 189.735
M340.307 243.4
L341.225 216.946
L342.142 231.966
L343.059 228.218
L343.976 187.562
L344.894 194.57
L345.811 192.868
L346.728 211.027
L347.645 213.516
L348.563 201.353
M351.314 150.297
L352.232 128.671
L353.149 202.008
L354.066 226.068
L354.984 187.175
L355.901 169.768
L356.818 188.965
L357.735 219.985
L358.653 202.617
L359.57 149.485
L360.487 188.484
L361.404 172.594
L362.322 203.432
L363.239 226.534
L364.156 192.967
L365.073 153.179
L365.073 153.179" style="fill:none;stroke:#bf00bf;stroke-linecap:square;"/>
   </g>
   <g id="line2d_13">
    <path clip-path="url(#p95a2ee5e18)" d="
M31.1906 144.899
L32.1079 179.968
L33.0251 173.591
L33.9424 190.548
L34.8597 188.209
L35.7769 189.977
L36.6942 190.748
L37.6114 203.293
L38.5287 197.296
L39.446 216.642
L40.3632 161.82
L42.1977 213.546
L43.115 211.943
L44.0323 200.761
L44.9495 238.152
L45.8668 198.609
L46.784 199.405
L47.7013 186.2
L48.6186 149.684
L49.5358 210.123
L50.4531 199.231
L51.3704 140.224
L52.2876 208.974
L53.2049 231.242
L54.1221 235.144
L55.0394 204.971
L55.9567 214.931
L56.8739 212.605
L57.7912 231.419
L58.7084 154.783
L59.6257 99.7358
L60.543 104.552
L61.4602 133.073
L62.3775 170.857
L63.2947 155.375
L64.212 166.528
L65.1293 164.761
L66.0465 147.086
L66.9638 170.724
L67.881 121.119
L68.7983 136.098
L69.7156 130.347
L70.6328 110.087
L71.5501 120.002
L72.4673 119.883
L73.3846 181.566
L74.3019 184.26
L75.2191 179.635
L76.1364 196.105
L77.0536 231.889
L77.9709 153.942
L78.8882 156.735
L79.8054 149.45
L80.7227 187.845
L81.6399 201.874
L82.5572 140.849
L83.4745 102.929
L84.3917 115.743
L85.309 112.95
L86.2262 166.343
L87.1435 165.591
L88.0608 155.444
L88.978 182.371
L89.8953 153.212
L90.8125 210.982
L91.7298 184.549
L92.6471 114.56
L93.5643 176.083
L94.4816 115.859
L95.3988 114.585
L96.3161 124.956
L97.2334 153.742
L98.1506 200.339
L99.0679 229.255
L99.9851 164.546
L100.902 120.94
L101.82 175.769
L102.737 129.005
L103.654 195.604
L104.571 152.821
L105.489 142.905
L106.406 171.843
L107.323 206.031
L108.24 207.235
L109.158 186.438
L110.075 172.535
L110.992 174.94
L111.91 200.516
L112.827 136.298
L113.744 141.176
L114.661 176.526
L115.579 109.207
L116.496 121.137
L117.413 167.356
L118.33 170.828
L119.248 164.816
L120.165 146.437
L121.082 183.843
L121.999 133.424
L122.917 166.111
L123.834 142.629
L124.751 162.38
L125.668 128.628
L126.586 153.64
L127.503 188.864
L128.42 169.749
L129.337 162.256
L130.255 78.427
L131.172 152.482
L132.089 150.699
L133.007 87.4426
L133.924 85.5811
L134.841 148.962
L135.758 172.024
L136.676 127.051
L137.593 101.396
L138.51 189.08
L139.427 146.356
L140.345 131.205
L141.262 100.539
L142.179 133.595
L143.096 127.816
L144.014 111.166
L144.931 109.446
L145.848 169.643
L146.765 175.839
L147.683 188.167
L148.6 159.667
L149.517 115.261
L151.352 132.354
L152.269 143.032
L153.186 148.983
L154.104 191.517
L155.021 195.719
L155.938 117.364
L156.855 193.511
L157.773 124.988
L160.524 160.914
L161.442 173.612
L162.359 170.92
L163.276 165.957
L164.193 152.69
L165.111 190.894
L166.028 197.343
L166.945 201.486
L167.862 176.3
L168.78 133.955
L169.697 136.989
L170.614 178.135
L171.531 134.445
L172.449 114.776
L173.366 135.514
L174.283 175.452
L175.2 198.953
L176.118 136.091
L177.035 175.422
L177.952 157.436
L178.87 152.126
L179.787 153.455
L180.704 173.363
L181.621 123.911
L182.539 110.309
L183.456 135.43
L184.373 110.855
L185.29 191.511
L186.208 181.233
L187.125 132.893
L188.042 140.223
L188.959 137.124
L189.877 142.688
L190.794 128.969
L191.711 118.648
L192.628 114.575
L193.546 117.235
L194.463 137.666
L195.38 173.067
L196.297 151.536
L197.215 127.379
L198.132 122.662
L199.049 131.547
L199.967 135.189
L200.884 139.442
L201.801 136.632
L202.718 165.784
L203.636 145.056
L204.553 106.575
L205.47 134.373
L207.305 143.691
L208.222 147.912
L209.139 164.866
L210.056 120.431
M215.56 118.851
L216.477 133.794
L217.394 121.006
L218.312 132.859
L219.229 138.952
L220.146 150.212
L221.064 133.302
L221.981 125.897
L222.898 126.168
L223.815 147.669
L224.733 161.209
L225.65 155.847
L226.567 147.37
L227.484 142.748
L228.402 160.63
L229.319 142.222
L230.236 142.484
L231.153 146.647
L232.071 140.867
L232.988 132.6
L233.905 132.69
L234.822 126.119
L235.74 131.161
L236.657 144.159
L237.574 142.915
L238.491 128.82
L239.409 128.552
L240.326 130.585
L241.243 134.288
L242.16 123.862
L243.078 136.965
L243.995 146.372
L244.912 140.632
L245.83 142.145
L246.747 133.699
L247.664 145.719
L248.581 148.198
L249.499 161.543
L250.416 151.326
L251.333 152.863
L252.25 137.471
L253.168 130.278
L254.085 126.105
L255.002 126.412
L255.919 124.223
L256.837 129.174
L257.754 123.089
L258.671 138.192
L260.506 142.263
L261.423 146.114
L262.34 140.567
L263.257 143.629
L264.175 147.638
L265.092 153.506
L266.009 152.934
L266.927 195.093
L267.844 176.198
L268.761 139.433
L269.678 130.012
L270.596 139.487
L271.513 140.316
L272.43 135.036
L273.347 138.003
L274.265 136.928
L275.182 138.286
L276.099 140.377
L277.016 144.84
L277.934 139.413
L278.851 166.188
L279.768 134.334
L280.685 143.769
L281.603 148.431
L282.52 144.338
L283.437 143.214
L284.354 193.968
L285.272 222.074
L286.189 240.457
L287.106 206.8
L288.024 157.788
L288.941 140.81
L289.858 175.997
L290.775 160.671
L291.693 135.23
L292.61 120.402
L293.527 148.113
L294.444 155.506
L295.362 194.4
L296.279 154.753
L297.196 124.53
L298.113 149.144
L299.031 137.73
L299.948 159.768
L300.865 166.283
L301.782 162.602
L302.7 173.854
L303.617 141.693
L304.534 124.693
L305.451 115.421
L306.369 108.334
L307.286 134.819
L308.203 150.19
L309.12 178.923
L310.955 91.7974
L311.872 115.41
L312.79 197.471
L313.707 217.065
L314.624 195.196
L315.541 181.839
L316.459 112.704
L317.376 116.792
L318.293 112.295
L319.21 88.1844
L320.128 141.846
L321.045 163.681
L321.962 121.365
L322.879 150.428
L323.797 121.722
L324.714 207.289
L325.631 211.006
L326.548 184.56
L327.466 163.838
L328.383 164.439
L329.3 179.628
L330.217 128.609
L331.135 154.386
L332.052 159.195
L332.969 112.323
L333.887 119.332
L334.804 167.177
L335.721 196.343
L336.638 183.262
L337.556 127.459
L338.473 118.884
L339.39 115.199
L340.307 165.047
L341.225 154.648
L342.142 131.985
L343.059 150.791
L343.976 151.221
L344.894 153.711
L345.811 163.421
L346.728 166.557
L347.645 177.466
L348.563 183.836
L349.48 154.454
L350.397 163.185
L351.314 179.493
L352.232 182.97
L353.149 185.724
L354.066 175.138
L354.984 138.168
L355.901 143.048
L356.818 106.385
L357.735 104.74
L359.57 138.045
L360.487 140.073
L361.404 194.618
L362.322 208.318
L363.239 183.71
L364.156 217.096
L365.073 158.733
L365.073 158.733" style="fill:none;stroke:#bfbf00;stroke-linecap:square;"/>
   </g>
   <g id="line2d_14">
    <path clip-path="url(#p95a2ee5e18)" d="
M31.1906 158.927
L32.1079 172.625
L33.0251 166.901
L33.9424 166.645
L34.8597 165.097
L35.7769 185.384
M46.784 186.452
L47.7013 230.365
L48.6186 210.219
L49.5358 206.412
L50.4531 187.483
L51.3704 228.629
L52.2876 189.263
L54.1221 211.723
L55.0394 164.603
L55.9567 161.13
L56.8739 148.742
L57.7912 176.841
L58.7084 153.505
L59.6257 194.399
L60.543 175.083
L61.4602 165.258
L62.3775 152.245
L63.2947 157.662
L64.212 145.879
L65.1293 130.977
L66.0465 178.731
L66.9638 218.445
L67.881 207.533
L68.7983 228.2
L69.7156 209.461
L70.6328 169.772
L72.4673 191.126
L73.3846 156.725
L74.3019 153.233
L75.2191 183.976
L76.1364 156.281
L77.0536 187.783
L77.9709 230.24
L78.8882 193.769
L79.8054 139.142
L80.7227 124.303
L81.6399 190.013
L82.5572 122.241
L83.4745 123.491
L84.3917 135.439
L85.309 177.596
L86.2262 203.43
L87.1435 160.005
L88.0608 172.08
L88.978 155.195
L89.8953 141.978
L90.8125 183.812
L91.7298 102.484
L92.6471 125.024
L93.5643 124.143
L94.4816 120.96
L95.3988 165.791
L96.3161 171.549
L97.2334 191.442
L98.1506 232.686
L99.0679 203.403
L99.9851 204.49
L100.902 201.553
L101.82 229.822
L102.737 145.641
L103.654 192.337
L105.489 134.979
L106.406 173.091
L107.323 154.936
L109.158 198.777
L110.075 137.872
L110.992 190.197
L111.91 190.807
L112.827 214.004
L113.744 135.679
L114.661 117.441
L115.579 135.823
L116.496 117.564
L117.413 144.346
L118.33 141.262
L119.248 149.205
L120.165 105.663
L121.082 109.08
L121.999 133.335
L122.917 129.684
L123.834 177.355
L124.751 130.752
L125.668 154.956
L126.586 160.107
L127.503 118.903
L128.42 186.96
L129.337 168.551
L130.255 169.205
L131.172 182.061
L132.089 162.338
L133.007 138.64
L133.924 136.233
L134.841 158.046
L135.758 161.821
L136.676 177.484
L137.593 232.569
L138.51 154.081
L139.427 150.133
L140.345 131.701
L141.262 187.545
L142.179 129.116
L144.014 190.979
L144.931 198.833
L145.848 143.951
L146.765 116.424
L147.683 113.458
L148.6 119.478
L149.517 131.499
L150.434 98.7261
L151.352 106.204
L152.269 108.023
L153.186 118.661
L154.104 133.245
L155.021 157.482
L155.938 143.36
L156.855 150.192
L157.773 126.616
L158.69 108.285
L159.607 132.229
L160.524 162.231
L161.442 173.932
L162.359 138.202
L163.276 142.711
L165.111 218.332
L166.028 148.235
L166.945 127.905
L167.862 128.382
L168.78 130.976
L169.697 145.366
L170.614 136.842
L171.531 159.418
L172.449 142.148
L173.366 164.208
L174.283 208.461
L175.2 128.257
L176.118 153.61
L177.035 150.635
L177.952 175.521
L178.87 143.212
L179.787 120.156
L180.704 142.396
L181.621 145.118
L182.539 112.181
L183.456 125.379
L184.373 129.873
L185.29 132.41
L186.208 137.284
L187.125 121.022
L188.042 125.796
L188.959 133.586
L189.877 136.647
L190.794 135.716
L191.711 139.067
L192.628 135.304
L193.546 137.162
L194.463 125.905
L195.38 127.026
L196.297 142.419
L197.215 137.793
L198.132 160.109
L199.049 149.104
L199.967 139.759
L200.884 134.308
L201.801 150.084
L202.718 153.868
L203.636 151.102
L204.553 162.356
L205.47 160.541
L206.387 157.336
L207.305 160.032
L208.222 160.424
L210.056 181.996
L210.974 167.137
L211.891 165.783
L212.808 150.403
L214.643 147.524
L215.56 148.701
L216.477 151.689
L217.394 151.855
L218.312 154.539
L219.229 143.598
L220.146 151.137
L221.064 149.63
L221.981 158.22
L222.898 153.828
L223.815 151.984
L224.733 147.128
L225.65 145.066
L226.567 143.895
L227.484 139.119
M232.988 164.47
L233.905 155.226
L234.822 166.945
L235.74 148.91
L237.574 155.507
L238.491 148.416
L239.409 147.439
L240.326 153.911
L241.243 150.044
L242.16 148.508
L243.078 168.833
L243.995 160.247
L244.912 161.059
L245.83 151.8
L246.747 144.772
L247.664 128.465
L248.581 130.212
L249.499 154.581
L250.416 166.65
L251.333 145.126
L252.25 151.639
L253.168 144.112
L254.085 162.634
L255.002 151.544
L255.919 122.352
L256.837 128.449
L257.754 133.512
L258.671 142.542
L259.588 154.509
L260.506 141.619
L261.423 142.071
L262.34 157.937
L263.257 142.209
L264.175 147.72
L265.092 118.355
L266.009 130.012
L266.927 135.577
L267.844 139.927
L268.761 142.643
L269.678 137.51
L270.596 139.652
L271.513 141.22
L272.43 149.423
L273.347 151.947
L274.265 159.717
L275.182 193.255
L276.099 180.872
L277.016 171.998
L277.934 165.374
L278.851 151.342
L279.768 156.549
L280.685 151.97
L281.603 153.026
L282.52 144.382
L283.437 141.895
L284.354 116.962
L285.272 115.799
L286.189 110.236
L287.106 110.45
L288.024 115.096
L288.941 111.142
L290.775 139.399
L291.693 139.783
L292.61 137.262
L293.527 178.543
L294.444 168.035
L295.362 181.355
L296.279 176.884
L297.196 155.233
L298.113 143.274
L299.031 159.149
L299.948 190.261
L300.865 151.406
L301.782 204.735
L302.7 202.489
L303.617 204.89
L304.534 220.506
L305.451 158.471
L306.369 184.987
L307.286 228.437
L308.203 183.984
L309.12 169.537
L310.038 152.373
L310.955 180.664
L311.872 171.673
L312.79 174.516
L313.707 177.807
L314.624 184.583
L315.541 178.217
L316.459 195.909
L317.376 198.16
L318.293 226.748
L319.21 178.662
L320.128 176.795
L321.045 188.829
L321.962 229.416
L322.879 230.541
L323.797 201.571
L324.714 197.984
L325.631 201.776
L326.548 203.317
L327.466 195.105
L328.383 179.517
L329.3 193.385
L330.217 173.08
L331.135 161.307
L332.052 206.875
L332.969 210.27
L333.887 185.005
L334.804 200.118
L335.721 200.976
L336.638 192.716
L337.556 204.792
L338.473 185.771
L339.39 203.117
L340.307 169.289
L341.225 197.811
M348.563 220.756
L349.48 226.393
L350.397 205.336
L351.314 194.409
L352.232 230.514
L353.149 171.719
L354.066 173.358
L354.984 161.786
L355.901 112.603
L356.818 121.233
L357.735 177.727
L358.653 215.206
L359.57 223.364
L360.487 164.428
L361.404 221.71
L362.322 217.786
L363.239 191.906
L364.156 203.269
L365.073 232.114
L365.073 232.114" style="fill:none;stroke:#000000;stroke-linecap:square;"/>
   </g>
   <g id="patch_3">
    <path d="
M365.991 244.518
L365.991 21.3181" style="fill:none;stroke:#000000;stroke-linecap:square;stroke-linejoin:miter;"/>
   </g>
   <g id="patch_4">
    <path d="
M31.1906 21.3181
L365.991 21.3181" style="fill:none;stroke:#000000;stroke-linecap:square;stroke-linejoin:miter;"/>
   </g>
   <g id="patch_5">
    <path d="
M31.1906 244.518
L31.1906 21.3181" style="fill:none;stroke:#000000;stroke-linecap:square;stroke-linejoin:miter;"/>
   </g>
   <g id="patch_6">
    <path d="
M31.1906 244.518
L365.991 244.518" style="fill:none;stroke:#000000;stroke-linecap:square;stroke-linejoin:miter;"/>
   </g>
   <g id="matplotlib.axis_1">
    <g id="xtick_1">
     <g id="line2d_15">
      <defs>
       <path d="
M0 0
L0 -4" id="mc7db9fdffb" style="stroke:#000000;stroke-width:0.5;"/>
      </defs>
      <g>
       <use style="stroke:#000000;stroke-width:0.5;" x="31.190625" xlink:href="#mc7db9fdffb" y="244.518125"/>
      </g>
     </g>
     <g id="line2d_16">
      <defs>
       <path d="
M0 0
L0 4" id="m5a7d422ac3" style="stroke:#000000;stroke-width:0.5;"/>
      </defs>
      <g>
       <use style="stroke:#000000;stroke-width:0.5;" x="31.190625" xlink:href="#m5a7d422ac3" y="21.318125"/>
      </g>
     </g>
     <g id="text_1">
      <!-- 0 -->
      <defs>
       <path d="
M31.7812 66.4062
Q24.1719 66.4062 20.3281 58.9062
Q16.5 51.4219 16.5 36.375
Q16.5 21.3906 20.3281 13.8906
Q24.1719 6.39062 31.7812 6.39062
Q39.4531 6.39062 43.2812 13.8906
Q47.125 21.3906 47.125 36.375
Q47.125 51.4219 43.2812 58.9062
Q39.4531 66.4062 31.7812 66.4062
M31.7812 74.2188
Q44.0469 74.2188 50.5156 64.5156
Q56.9844 54.8281 56.9844 36.375
Q56.9844 17.9688 50.5156 8.26562
Q44.0469 -1.42188 31.7812 -1.42188
Q19.5312 -1.42188 13.0625 8.26562
Q6.59375 17.9688 6.59375 36.375
Q6.59375 54.8281 13.0625 64.5156
Q19.5312 74.2188 31.7812 74.2188" id="BitstreamVeraSans-Roman-30"/>
      </defs>
      <g transform="translate(28.67109375 256.1165625)scale(0.1 -0.1)">
       <use xlink:href="#BitstreamVeraSans-Roman-30"/>
      </g>
     </g>
    </g>
    <g id="xtick_2">
     <g id="line2d_17">
      <g>
       <use style="stroke:#000000;stroke-width:0.5;" x="77.0536386986" xlink:href="#mc7db9fdffb" y="244.518125"/>
      </g>
     </g>
     <g id="line2d_18">
      <g>
       <use style="stroke:#000000;stroke-width:0.5;" x="77.0536386986" xlink:href="#m5a7d422ac3" y="21.318125"/>
      </g>
     </g>
     <g id="text_2">
      <!-- 50 -->
      <defs>
       <path d="
M10.7969 72.9062
L49.5156 72.9062
L49.5156 64.5938
L19.8281 64.5938
L19.8281 46.7344
Q21.9688 47.4688 24.1094 47.8281
Q26.2656 48.1875 28.4219 48.1875
Q40.625 48.1875 47.75 41.5
Q54.8906 34.8125 54.8906 23.3906
Q54.8906 11.625 47.5625 5.09375
Q40.2344 -1.42188 26.9062 -1.42188
Q22.3125 -1.42188 17.5469 -0.640625
Q12.7969 0.140625 7.71875 1.70312
L7.71875 11.625
Q12.1094 9.23438 16.7969 8.0625
Q21.4844 6.89062 26.7031 6.89062
Q35.1562 6.89062 40.0781 11.3281
Q45.0156 15.7656 45.0156 23.3906
Q45.0156 31 40.0781 35.4375
Q35.1562 39.8906 26.7031 39.8906
Q22.75 39.8906 18.8125 39.0156
Q14.8906 38.1406 10.7969 36.2812
z
" id="BitstreamVeraSans-Roman-35"/>
      </defs>
      <g transform="translate(71.4091074486 256.1165625)scale(0.1 -0.1)">
       <use xlink:href="#BitstreamVeraSans-Roman-35"/>
       <use x="63.623046875" xlink:href="#BitstreamVeraSans-Roman-30"/>
      </g>
     </g>
    </g>
    <g id="xtick_3">
     <g id="line2d_19">
      <g>
       <use style="stroke:#000000;stroke-width:0.5;" x="122.916652397" xlink:href="#mc7db9fdffb" y="244.518125"/>
      </g>
     </g>
     <g id="line2d_20">
      <g>
       <use style="stroke:#000000;stroke-width:0.5;" x="122.916652397" xlink:href="#m5a7d422ac3" y="21.318125"/>
      </g>
     </g>
     <g id="text_3">
      <!-- 100 -->
      <defs>
       <path d="
M12.4062 8.29688
L28.5156 8.29688
L28.5156 63.9219
L10.9844 60.4062
L10.9844 69.3906
L28.4219 72.9062
L38.2812 72.9062
L38.2812 8.29688
L54.3906 8.29688
L54.3906 0
L12.4062 0
z
" id="BitstreamVeraSans-Roman-31"/>
      </defs>
      <g transform="translate(114.254152397 256.1165625)scale(0.1 -0.1)">
       <use xlink:href="#BitstreamVeraSans-Roman-31"/>
       <use x="63.623046875" xlink:href="#BitstreamVeraSans-Roman-30"/>
       <use x="127.24609375" xlink:href="#BitstreamVeraSans-Roman-30"/>
      </g>
     </g>
    </g>
    <g id="xtick_4">
     <g id="line2d_21">
      <g>
       <use style="stroke:#000000;stroke-width:0.5;" x="168.779666096" xlink:href="#mc7db9fdffb" y="244.518125"/>
      </g>
     </g>
     <g id="line2d_22">
      <g>
       <use style="stroke:#000000;stroke-width:0.5;" x="168.779666096" xlink:href="#m5a7d422ac3" y="21.318125"/>
      </g>
     </g>
     <g id="text_4">
      <!-- 150 -->
      <g transform="translate(160.117166096 256.1165625)scale(0.1 -0.1)">
       <use xlink:href="#BitstreamVeraSans-Roman-31"/>
       <use x="63.623046875" xlink:href="#BitstreamVeraSans-Roman-35"/>
       <use x="127.24609375" xlink:href="#BitstreamVeraSans-Roman-30"/>
      </g>
     </g>
    </g>
    <g id="xtick_5">
     <g id="line2d_23">
      <g>
       <use style="stroke:#000000;stroke-width:0.5;" x="214.642679795" xlink:href="#mc7db9fdffb" y="244.518125"/>
      </g>
     </g>
     <g id="line2d_24">
      <g>
       <use style="stroke:#000000;stroke-width:0.5;" x="214.642679795" xlink:href="#m5a7d422ac3" y="21.318125"/>
      </g>
     </g>
     <g id="text_5">
      <!-- 200 -->
      <defs>
       <path d="
M19.1875 8.29688
L53.6094 8.29688
L53.6094 0
L7.32812 0
L7.32812 8.29688
Q12.9375 14.1094 22.625 23.8906
Q32.3281 33.6875 34.8125 36.5312
Q39.5469 41.8438 41.4219 45.5312
Q43.3125 49.2188 43.3125 52.7812
Q43.3125 58.5938 39.2344 62.25
Q35.1562 65.9219 28.6094 65.9219
Q23.9688 65.9219 18.8125 64.3125
Q13.6719 62.7031 7.8125 59.4219
L7.8125 69.3906
Q13.7656 71.7812 18.9375 73
Q24.125 74.2188 28.4219 74.2188
Q39.75 74.2188 46.4844 68.5469
Q53.2188 62.8906 53.2188 53.4219
Q53.2188 48.9219 51.5312 44.8906
Q49.8594 40.875 45.4062 35.4062
Q44.1875 33.9844 37.6406 27.2188
Q31.1094 20.4531 19.1875 8.29688" id="BitstreamVeraSans-Roman-32"/>
      </defs>
      <g transform="translate(205.797367295 256.1165625)scale(0.1 -0.1)">
       <use xlink:href="#BitstreamVeraSans-Roman-32"/>
       <use x="63.623046875" xlink:href="#BitstreamVeraSans-Roman-30"/>
       <use x="127.24609375" xlink:href="#BitstreamVeraSans-Roman-30"/>
      </g>
     </g>
    </g>
    <g id="xtick_6">
     <g id="line2d_25">
      <g>
       <use style="stroke:#000000;stroke-width:0.5;" x="260.505693493" xlink:href="#mc7db9fdffb" y="244.518125"/>
      </g>
     </g>
     <g id="line2d_26">
      <g>
       <use style="stroke:#000000;stroke-width:0.5;" x="260.505693493" xlink:href="#m5a7d422ac3" y="21.318125"/>
      </g>
     </g>
     <g id="text_6">
      <!-- 250 -->
      <g transform="translate(251.660380993 256.1165625)scale(0.1 -0.1)">
       <use xlink:href="#BitstreamVeraSans-Roman-32"/>
       <use x="63.623046875" xlink:href="#BitstreamVeraSans-Roman-35"/>
       <use x="127.24609375" xlink:href="#BitstreamVeraSans-Roman-30"/>
      </g>
     </g>
    </g>
    <g id="xtick_7">
     <g id="line2d_27">
      <g>
       <use style="stroke:#000000;stroke-width:0.5;" x="306.368707192" xlink:href="#mc7db9fdffb" y="244.518125"/>
      </g>
     </g>
     <g id="line2d_28">
      <g>
       <use style="stroke:#000000;stroke-width:0.5;" x="306.368707192" xlink:href="#m5a7d422ac3" y="21.318125"/>
      </g>
     </g>
     <g id="text_7">
      <!-- 300 -->
      <defs>
       <path d="
M40.5781 39.3125
Q47.6562 37.7969 51.625 33
Q55.6094 28.2188 55.6094 21.1875
Q55.6094 10.4062 48.1875 4.48438
Q40.7656 -1.42188 27.0938 -1.42188
Q22.5156 -1.42188 17.6562 -0.515625
Q12.7969 0.390625 7.625 2.20312
L7.625 11.7188
Q11.7188 9.32812 16.5938 8.10938
Q21.4844 6.89062 26.8125 6.89062
Q36.0781 6.89062 40.9375 10.5469
Q45.7969 14.2031 45.7969 21.1875
Q45.7969 27.6406 41.2812 31.2656
Q36.7656 34.9062 28.7188 34.9062
L20.2188 34.9062
L20.2188 43.0156
L29.1094 43.0156
Q36.375 43.0156 40.2344 45.9219
Q44.0938 48.8281 44.0938 54.2969
Q44.0938 59.9062 40.1094 62.9062
Q36.1406 65.9219 28.7188 65.9219
Q24.6562 65.9219 20.0156 65.0312
Q15.375 64.1562 9.8125 62.3125
L9.8125 71.0938
Q15.4375 72.6562 20.3438 73.4375
Q25.25 74.2188 29.5938 74.2188
Q40.8281 74.2188 47.3594 69.1094
Q53.9062 64.0156 53.9062 55.3281
Q53.9062 49.2656 50.4375 45.0938
Q46.9688 40.9219 40.5781 39.3125" id="BitstreamVeraSans-Roman-33"/>
      </defs>
      <g transform="translate(297.538238442 256.1165625)scale(0.1 -0.1)">
       <use xlink:href="#BitstreamVeraSans-Roman-33"/>
       <use x="63.623046875" xlink:href="#BitstreamVeraSans-Roman-30"/>
       <use x="127.24609375" xlink:href="#BitstreamVeraSans-Roman-30"/>
      </g>
     </g>
    </g>
    <g id="xtick_8">
     <g id="line2d_29">
      <g>
       <use style="stroke:#000000;stroke-width:0.5;" x="352.23172089" xlink:href="#mc7db9fdffb" y="244.518125"/>
      </g>
     </g>
     <g id="line2d_30">
      <g>
       <use style="stroke:#000000;stroke-width:0.5;" x="352.23172089" xlink:href="#m5a7d422ac3" y="21.318125"/>
      </g>
     </g>
     <g id="text_8">
      <!-- 350 -->
      <g transform="translate(343.40125214 256.1165625)scale(0.1 -0.1)">
       <use xlink:href="#BitstreamVeraSans-Roman-33"/>
       <use x="63.623046875" xlink:href="#BitstreamVeraSans-Roman-35"/>
       <use x="127.24609375" xlink:href="#BitstreamVeraSans-Roman-30"/>
      </g>
     </g>
    </g>
    <g id="text_9">
     <!-- Julian day -->
     <defs>
      <path d="
M9.42188 75.9844
L18.4062 75.9844
L18.4062 0
L9.42188 0
z
" id="BitstreamVeraSans-Roman-6c"/>
      <path id="BitstreamVeraSans-Roman-20"/>
      <path d="
M45.4062 46.3906
L45.4062 75.9844
L54.3906 75.9844
L54.3906 0
L45.4062 0
L45.4062 8.20312
Q42.5781 3.32812 38.25 0.953125
Q33.9375 -1.42188 27.875 -1.42188
Q17.9688 -1.42188 11.7344 6.48438
Q5.51562 14.4062 5.51562 27.2969
Q5.51562 40.1875 11.7344 48.0938
Q17.9688 56 27.875 56
Q33.9375 56 38.25 53.625
Q42.5781 51.2656 45.4062 46.3906
M14.7969 27.2969
Q14.7969 17.3906 18.875 11.75
Q22.9531 6.10938 30.0781 6.10938
Q37.2031 6.10938 41.2969 11.75
Q45.4062 17.3906 45.4062 27.2969
Q45.4062 37.2031 41.2969 42.8438
Q37.2031 48.4844 30.0781 48.4844
Q22.9531 48.4844 18.875 42.8438
Q14.7969 37.2031 14.7969 27.2969" id="BitstreamVeraSans-Roman-64"/>
      <path d="
M9.42188 54.6875
L18.4062 54.6875
L18.4062 0
L9.42188 0
z

M9.42188 75.9844
L18.4062 75.9844
L18.4062 64.5938
L9.42188 64.5938
z
" id="BitstreamVeraSans-Roman-69"/>
      <path d="
M32.1719 -5.07812
Q28.375 -14.8438 24.75 -17.8125
Q21.1406 -20.7969 15.0938 -20.7969
L7.90625 -20.7969
L7.90625 -13.2812
L13.1875 -13.2812
Q16.8906 -13.2812 18.9375 -11.5156
Q21 -9.76562 23.4844 -3.21875
L25.0938 0.875
L2.98438 54.6875
L12.5 54.6875
L29.5938 11.9219
L46.6875 54.6875
L56.2031 54.6875
z
" id="BitstreamVeraSans-Roman-79"/>
      <path d="
M34.2812 27.4844
Q23.3906 27.4844 19.1875 25
Q14.9844 22.5156 14.9844 16.5
Q14.9844 11.7188 18.1406 8.90625
Q21.2969 6.10938 26.7031 6.10938
Q34.1875 6.10938 38.7031 11.4062
Q43.2188 16.7031 43.2188 25.4844
L43.2188 27.4844
z

M52.2031 31.2031
L52.2031 0
L43.2188 0
L43.2188 8.29688
Q40.1406 3.32812 35.5469 0.953125
Q30.9531 -1.42188 24.3125 -1.42188
Q15.9219 -1.42188 10.9531 3.29688
Q6 8.01562 6 15.9219
Q6 25.1406 12.1719 29.8281
Q18.3594 34.5156 30.6094 34.5156
L43.2188 34.5156
L43.2188 35.4062
Q43.2188 41.6094 39.1406 45
Q35.0625 48.3906 27.6875 48.3906
Q23 48.3906 18.5469 47.2656
Q14.1094 46.1406 10.0156 43.8906
L10.0156 52.2031
Q14.9375 54.1094 19.5781 55.0469
Q24.2188 56 28.6094 56
Q40.4844 56 46.3438 49.8438
Q52.2031 43.7031 52.2031 31.2031" id="BitstreamVeraSans-Roman-61"/>
      <path d="
M54.8906 33.0156
L54.8906 0
L45.9062 0
L45.9062 32.7188
Q45.9062 40.4844 42.875 44.3281
Q39.8438 48.1875 33.7969 48.1875
Q26.5156 48.1875 22.3125 43.5469
Q18.1094 38.9219 18.1094 30.9062
L18.1094 0
L9.07812 0
L9.07812 54.6875
L18.1094 54.6875
L18.1094 46.1875
Q21.3438 51.125 25.7031 53.5625
Q30.0781 56 35.7969 56
Q45.2188 56 50.0469 50.1719
Q54.8906 44.3438 54.8906 33.0156" id="BitstreamVeraSans-Roman-6e"/>
      <path d="
M8.5 21.5781
L8.5 54.6875
L17.4844 54.6875
L17.4844 21.9219
Q17.4844 14.1562 20.5 10.2656
Q23.5312 6.39062 29.5938 6.39062
Q36.8594 6.39062 41.0781 11.0312
Q45.3125 15.6719 45.3125 23.6875
L45.3125 54.6875
L54.2969 54.6875
L54.2969 0
L45.3125 0
L45.3125 8.40625
Q42.0469 3.42188 37.7188 1
Q33.4062 -1.42188 27.6875 -1.42188
Q18.2656 -1.42188 13.375 4.4375
Q8.5 10.2969 8.5 21.5781" id="BitstreamVeraSans-Roman-75"/>
      <path d="
M9.8125 72.9062
L19.6719 72.9062
L19.6719 5.07812
Q19.6719 -8.10938 14.6719 -14.0625
Q9.67188 -20.0156 -1.42188 -20.0156
L-5.17188 -20.0156
L-5.17188 -11.7188
L-2.09375 -11.7188
Q4.4375 -11.7188 7.125 -8.04688
Q9.8125 -4.39062 9.8125 5.07812
z
" id="BitstreamVeraSans-Roman-4a"/>
     </defs>
     <g transform="translate(174.03984375 270.7946875)scale(0.1 -0.1)">
      <use xlink:href="#BitstreamVeraSans-Roman-4a"/>
      <use x="29.4921875" xlink:href="#BitstreamVeraSans-Roman-75"/>
      <use x="92.87109375" xlink:href="#BitstreamVeraSans-Roman-6c"/>
      <use x="120.654296875" xlink:href="#BitstreamVeraSans-Roman-69"/>
      <use x="148.4375" xlink:href="#BitstreamVeraSans-Roman-61"/>
      <use x="209.716796875" xlink:href="#BitstreamVeraSans-Roman-6e"/>
      <use x="273.095703125" xlink:href="#BitstreamVeraSans-Roman-20"/>
      <use x="304.8828125" xlink:href="#BitstreamVeraSans-Roman-64"/>
      <use x="368.359375" xlink:href="#BitstreamVeraSans-Roman-61"/>
      <use x="429.638671875" xlink:href="#BitstreamVeraSans-Roman-79"/>
     </g>
    </g>
   </g>
   <g id="matplotlib.axis_2">
    <g id="ytick_1">
     <g id="line2d_31">
      <defs>
       <path d="
M0 0
L4 0" id="md7965d1ba0" style="stroke:#000000;stroke-width:0.5;"/>
      </defs>
      <g>
       <use style="stroke:#000000;stroke-width:0.5;" x="31.190625" xlink:href="#md7965d1ba0" y="244.518125"/>
      </g>
     </g>
     <g id="line2d_32">
      <defs>
       <path d="
M0 0
L-4 0" id="md9a1c1a7cd" style="stroke:#000000;stroke-width:0.5;"/>
      </defs>
      <g>
       <use style="stroke:#000000;stroke-width:0.5;" x="365.990625" xlink:href="#md9a1c1a7cd" y="244.518125"/>
      </g>
     </g>
     <g id="text_10">
      <!-- 0 -->
      <g transform="translate(22.1515625 247.2775)scale(0.1 -0.1)">
       <use xlink:href="#BitstreamVeraSans-Roman-30"/>
      </g>
     </g>
    </g>
    <g id="ytick_2">
     <g id="line2d_33">
      <g>
       <use style="stroke:#000000;stroke-width:0.5;" x="31.190625" xlink:href="#md7965d1ba0" y="207.318125"/>
      </g>
     </g>
     <g id="line2d_34">
      <g>
       <use style="stroke:#000000;stroke-width:0.5;" x="365.990625" xlink:href="#md9a1c1a7cd" y="207.318125"/>
      </g>
     </g>
     <g id="text_11">
      <!-- 1 -->
      <g transform="translate(22.85 210.0775)scale(0.1 -0.1)">
       <use xlink:href="#BitstreamVeraSans-Roman-31"/>
      </g>
     </g>
    </g>
    <g id="ytick_3">
     <g id="line2d_35">
      <g>
       <use style="stroke:#000000;stroke-width:0.5;" x="31.190625" xlink:href="#md7965d1ba0" y="170.118125"/>
      </g>
     </g>
     <g id="line2d_36">
      <g>
       <use style="stroke:#000000;stroke-width:0.5;" x="365.990625" xlink:href="#md9a1c1a7cd" y="170.118125"/>
      </g>
     </g>
     <g id="text_12">
      <!-- 2 -->
      <g transform="translate(22.5625 172.8775)scale(0.1 -0.1)">
       <use xlink:href="#BitstreamVeraSans-Roman-32"/>
      </g>
     </g>
    </g>
    <g id="ytick_4">
     <g id="line2d_37">
      <g>
       <use style="stroke:#000000;stroke-width:0.5;" x="31.190625" xlink:href="#md7965d1ba0" y="132.918125"/>
      </g>
     </g>
     <g id="line2d_38">
      <g>
       <use style="stroke:#000000;stroke-width:0.5;" x="365.990625" xlink:href="#md9a1c1a7cd" y="132.918125"/>
      </g>
     </g>
     <g id="text_13">
      <!-- 3 -->
      <g transform="translate(22.3921875 135.6775)scale(0.1 -0.1)">
       <use xlink:href="#BitstreamVeraSans-Roman-33"/>
      </g>
     </g>
    </g>
    <g id="ytick_5">
     <g id="line2d_39">
      <g>
       <use style="stroke:#000000;stroke-width:0.5;" x="31.190625" xlink:href="#md7965d1ba0" y="95.718125"/>
      </g>
     </g>
     <g id="line2d_40">
      <g>
       <use style="stroke:#000000;stroke-width:0.5;" x="365.990625" xlink:href="#md9a1c1a7cd" y="95.718125"/>
      </g>
     </g>
     <g id="text_14">
      <!-- 4 -->
      <defs>
       <path d="
M37.7969 64.3125
L12.8906 25.3906
L37.7969 25.3906
z

M35.2031 72.9062
L47.6094 72.9062
L47.6094 25.3906
L58.0156 25.3906
L58.0156 17.1875
L47.6094 17.1875
L47.6094 0
L37.7969 0
L37.7969 17.1875
L4.89062 17.1875
L4.89062 26.7031
z
" id="BitstreamVeraSans-Roman-34"/>
      </defs>
      <g transform="translate(21.878125 98.4775)scale(0.1 -0.1)">
       <use xlink:href="#BitstreamVeraSans-Roman-34"/>
      </g>
     </g>
    </g>
    <g id="ytick_6">
     <g id="line2d_41">
      <g>
       <use style="stroke:#000000;stroke-width:0.5;" x="31.190625" xlink:href="#md7965d1ba0" y="58.518125"/>
      </g>
     </g>
     <g id="line2d_42">
      <g>
       <use style="stroke:#000000;stroke-width:0.5;" x="365.990625" xlink:href="#md9a1c1a7cd" y="58.518125"/>
      </g>
     </g>
     <g id="text_15">
      <!-- 5 -->
      <g transform="translate(22.4734375 61.2775)scale(0.1 -0.1)">
       <use xlink:href="#BitstreamVeraSans-Roman-35"/>
      </g>
     </g>
    </g>
    <g id="ytick_7">
     <g id="line2d_43">
      <g>
       <use style="stroke:#000000;stroke-width:0.5;" x="31.190625" xlink:href="#md7965d1ba0" y="21.318125"/>
      </g>
     </g>
     <g id="line2d_44">
      <g>
       <use style="stroke:#000000;stroke-width:0.5;" x="365.990625" xlink:href="#md9a1c1a7cd" y="21.318125"/>
      </g>
     </g>
     <g id="text_16">
      <!-- 6 -->
      <defs>
       <path d="
M33.0156 40.375
Q26.375 40.375 22.4844 35.8281
Q18.6094 31.2969 18.6094 23.3906
Q18.6094 15.5312 22.4844 10.9531
Q26.375 6.39062 33.0156 6.39062
Q39.6562 6.39062 43.5312 10.9531
Q47.4062 15.5312 47.4062 23.3906
Q47.4062 31.2969 43.5312 35.8281
Q39.6562 40.375 33.0156 40.375
M52.5938 71.2969
L52.5938 62.3125
Q48.875 64.0625 45.0938 64.9844
Q41.3125 65.9219 37.5938 65.9219
Q27.8281 65.9219 22.6719 59.3281
Q17.5312 52.7344 16.7969 39.4062
Q19.6719 43.6562 24.0156 45.9219
Q28.375 48.1875 33.5938 48.1875
Q44.5781 48.1875 50.9531 41.5156
Q57.3281 34.8594 57.3281 23.3906
Q57.3281 12.1562 50.6875 5.35938
Q44.0469 -1.42188 33.0156 -1.42188
Q20.3594 -1.42188 13.6719 8.26562
Q6.98438 17.9688 6.98438 36.375
Q6.98438 53.6562 15.1875 63.9375
Q23.3906 74.2188 37.2031 74.2188
Q40.9219 74.2188 44.7031 73.4844
Q48.4844 72.75 52.5938 71.2969" id="BitstreamVeraSans-Roman-36"/>
      </defs>
      <g transform="translate(22.15625 24.0775)scale(0.1 -0.1)">
       <use xlink:href="#BitstreamVeraSans-Roman-36"/>
      </g>
     </g>
    </g>
    <g id="text_17">
     <!-- PET (mm/day) -->
     <defs>
      <path d="
M9.8125 72.9062
L55.9062 72.9062
L55.9062 64.5938
L19.6719 64.5938
L19.6719 43.0156
L54.3906 43.0156
L54.3906 34.7188
L19.6719 34.7188
L19.6719 8.29688
L56.7812 8.29688
L56.7812 0
L9.8125 0
z
" id="BitstreamVeraSans-Roman-45"/>
      <path d="
M31 75.875
Q24.4688 64.6562 21.2812 53.6562
Q18.1094 42.6719 18.1094 31.3906
Q18.1094 20.125 21.3125 9.0625
Q24.5156 -2 31 -13.1875
L23.1875 -13.1875
Q15.875 -1.70312 12.2344 9.375
Q8.59375 20.4531 8.59375 31.3906
Q8.59375 42.2812 12.2031 53.3125
Q15.8281 64.3594 23.1875 75.875
z
" id="BitstreamVeraSans-Roman-28"/>
      <path d="
M-0.296875 72.9062
L61.375 72.9062
L61.375 64.5938
L35.5 64.5938
L35.5 0
L25.5938 0
L25.5938 64.5938
L-0.296875 64.5938
z
" id="BitstreamVeraSans-Roman-54"/>
      <path d="
M19.6719 64.7969
L19.6719 37.4062
L32.0781 37.4062
Q38.9688 37.4062 42.7188 40.9688
Q46.4844 44.5312 46.4844 51.125
Q46.4844 57.6719 42.7188 61.2344
Q38.9688 64.7969 32.0781 64.7969
z

M9.8125 72.9062
L32.0781 72.9062
Q44.3438 72.9062 50.6094 67.3594
Q56.8906 61.8125 56.8906 51.125
Q56.8906 40.3281 50.6094 34.8125
Q44.3438 29.2969 32.0781 29.2969
L19.6719 29.2969
L19.6719 0
L9.8125 0
z
" id="BitstreamVeraSans-Roman-50"/>
      <path d="
M52 44.1875
Q55.375 50.25 60.0625 53.125
Q64.75 56 71.0938 56
Q79.6406 56 84.2812 50.0156
Q88.9219 44.0469 88.9219 33.0156
L88.9219 0
L79.8906 0
L79.8906 32.7188
Q79.8906 40.5781 77.0938 44.375
Q74.3125 48.1875 68.6094 48.1875
Q61.625 48.1875 57.5625 43.5469
Q53.5156 38.9219 53.5156 30.9062
L53.5156 0
L44.4844 0
L44.4844 32.7188
Q44.4844 40.625 41.7031 44.4062
Q38.9219 48.1875 33.1094 48.1875
Q26.2188 48.1875 22.1562 43.5312
Q18.1094 38.875 18.1094 30.9062
L18.1094 0
L9.07812 0
L9.07812 54.6875
L18.1094 54.6875
L18.1094 46.1875
Q21.1875 51.2188 25.4844 53.6094
Q29.7812 56 35.6875 56
Q41.6562 56 45.8281 52.9688
Q50 49.9531 52 44.1875" id="BitstreamVeraSans-Roman-6d"/>
      <path d="
M25.3906 72.9062
L33.6875 72.9062
L8.29688 -9.28125
L0 -9.28125
z
" id="BitstreamVeraSans-Roman-2f"/>
      <path d="
M8.01562 75.875
L15.8281 75.875
Q23.1406 64.3594 26.7812 53.3125
Q30.4219 42.2812 30.4219 31.3906
Q30.4219 20.4531 26.7812 9.375
Q23.1406 -1.70312 15.8281 -13.1875
L8.01562 -13.1875
Q14.5 -2 17.7031 9.0625
Q20.9062 20.125 20.9062 31.3906
Q20.9062 42.6719 17.7031 53.6562
Q14.5 64.6562 8.01562 75.875" id="BitstreamVeraSans-Roman-29"/>
     </defs>
     <g transform="translate(14.7984375 167.82984375)rotate(-90.0)scale(0.1 -0.1)">
      <use xlink:href="#BitstreamVeraSans-Roman-50"/>
      <use x="60.302734375" xlink:href="#BitstreamVeraSans-Roman-45"/>
      <use x="123.486328125" xlink:href="#BitstreamVeraSans-Roman-54"/>
      <use x="184.5703125" xlink:href="#BitstreamVeraSans-Roman-20"/>
      <use x="216.357421875" xlink:href="#BitstreamVeraSans-Roman-28"/>
      <use x="255.37109375" xlink:href="#BitstreamVeraSans-Roman-6d"/>
      <use x="352.783203125" xlink:href="#BitstreamVeraSans-Roman-6d"/>
      <use x="450.1953125" xlink:href="#BitstreamVeraSans-Roman-2f"/>
      <use x="483.88671875" xlink:href="#BitstreamVeraSans-Roman-64"/>
      <use x="547.36328125" xlink:href="#BitstreamVeraSans-Roman-61"/>
      <use x="608.642578125" xlink:href="#BitstreamVeraSans-Roman-79"/>
      <use x="667.822265625" xlink:href="#BitstreamVeraSans-Roman-29"/>
     </g>
    </g>
   </g>
   <g id="text_18">
    <!-- daily grass PET at LowerWeather -->
    <defs>
     <path d="
M4.20312 54.6875
L13.1875 54.6875
L24.4219 12.0156
L35.5938 54.6875
L46.1875 54.6875
L57.4219 12.0156
L68.6094 54.6875
L77.5938 54.6875
L63.2812 0
L52.6875 0
L40.9219 44.8281
L29.1094 0
L18.5 0
z
" id="BitstreamVeraSans-Roman-77"/>
     <path d="
M3.32812 72.9062
L13.2812 72.9062
L28.6094 11.2812
L43.8906 72.9062
L54.9844 72.9062
L70.3125 11.2812
L85.5938 72.9062
L95.6094 72.9062
L77.2969 0
L64.8906 0
L49.5156 63.2812
L33.9844 0
L21.5781 0
z
" id="BitstreamVeraSans-Roman-57"/>
     <path d="
M45.4062 27.9844
Q45.4062 37.75 41.375 43.1094
Q37.3594 48.4844 30.0781 48.4844
Q22.8594 48.4844 18.8281 43.1094
Q14.7969 37.75 14.7969 27.9844
Q14.7969 18.2656 18.8281 12.8906
Q22.8594 7.51562 30.0781 7.51562
Q37.3594 7.51562 41.375 12.8906
Q45.4062 18.2656 45.4062 27.9844
M54.3906 6.78125
Q54.3906 -7.17188 48.1875 -13.9844
Q42 -20.7969 29.2031 -20.7969
Q24.4688 -20.7969 20.2656 -20.0938
Q16.0625 -19.3906 12.1094 -17.9219
L12.1094 -9.1875
Q16.0625 -11.3281 19.9219 -12.3438
Q23.7812 -13.375 27.7812 -13.375
Q36.625 -13.375 41.0156 -8.76562
Q45.4062 -4.15625 45.4062 5.17188
L45.4062 9.625
Q42.625 4.78125 38.2812 2.39062
Q33.9375 0 27.875 0
Q17.8281 0 11.6719 7.65625
Q5.51562 15.3281 5.51562 27.9844
Q5.51562 40.6719 11.6719 48.3281
Q17.8281 56 27.875 56
Q33.9375 56 38.2812 53.6094
Q42.625 51.2188 45.4062 46.3906
L45.4062 54.6875
L54.3906 54.6875
z
" id="BitstreamVeraSans-Roman-67"/>
     <path d="
M54.8906 33.0156
L54.8906 0
L45.9062 0
L45.9062 32.7188
Q45.9062 40.4844 42.875 44.3281
Q39.8438 48.1875 33.7969 48.1875
Q26.5156 48.1875 22.3125 43.5469
Q18.1094 38.9219 18.1094 30.9062
L18.1094 0
L9.07812 0
L9.07812 75.9844
L18.1094 75.9844
L18.1094 46.1875
Q21.3438 51.125 25.7031 53.5625
Q30.0781 56 35.7969 56
Q45.2188 56 50.0469 50.1719
Q54.8906 44.3438 54.8906 33.0156" id="BitstreamVeraSans-Roman-68"/>
     <path d="
M44.2812 53.0781
L44.2812 44.5781
Q40.4844 46.5312 36.375 47.5
Q32.2812 48.4844 27.875 48.4844
Q21.1875 48.4844 17.8438 46.4375
Q14.5 44.3906 14.5 40.2812
Q14.5 37.1562 16.8906 35.375
Q19.2812 33.5938 26.5156 31.9844
L29.5938 31.2969
Q39.1562 29.25 43.1875 25.5156
Q47.2188 21.7812 47.2188 15.0938
Q47.2188 7.46875 41.1875 3.01562
Q35.1562 -1.42188 24.6094 -1.42188
Q20.2188 -1.42188 15.4531 -0.5625
Q10.6875 0.296875 5.42188 2
L5.42188 11.2812
Q10.4062 8.6875 15.2344 7.39062
Q20.0625 6.10938 24.8125 6.10938
Q31.1562 6.10938 34.5625 8.28125
Q37.9844 10.4531 37.9844 14.4062
Q37.9844 18.0625 35.5156 20.0156
Q33.0625 21.9688 24.7031 23.7812
L21.5781 24.5156
Q13.2344 26.2656 9.51562 29.9062
Q5.8125 33.5469 5.8125 39.8906
Q5.8125 47.6094 11.2812 51.7969
Q16.75 56 26.8125 56
Q31.7812 56 36.1719 55.2656
Q40.5781 54.5469 44.2812 53.0781" id="BitstreamVeraSans-Roman-73"/>
     <path d="
M41.1094 46.2969
Q39.5938 47.1719 37.8125 47.5781
Q36.0312 48 33.8906 48
Q26.2656 48 22.1875 43.0469
Q18.1094 38.0938 18.1094 28.8125
L18.1094 0
L9.07812 0
L9.07812 54.6875
L18.1094 54.6875
L18.1094 46.1875
Q20.9531 51.1719 25.4844 53.5781
Q30.0312 56 36.5312 56
Q37.4531 56 38.5781 55.875
Q39.7031 55.7656 41.0625 55.5156
z
" id="BitstreamVeraSans-Roman-72"/>
     <path d="
M18.3125 70.2188
L18.3125 54.6875
L36.8125 54.6875
L36.8125 47.7031
L18.3125 47.7031
L18.3125 18.0156
Q18.3125 11.3281 20.1406 9.42188
Q21.9688 7.51562 27.5938 7.51562
L36.8125 7.51562
L36.8125 0
L27.5938 0
Q17.1875 0 13.2344 3.875
Q9.28125 7.76562 9.28125 18.0156
L9.28125 47.7031
L2.6875 47.7031
L2.6875 54.6875
L9.28125 54.6875
L9.28125 70.2188
z
" id="BitstreamVeraSans-Roman-74"/>
     <path d="
M56.2031 29.5938
L56.2031 25.2031
L14.8906 25.2031
Q15.4844 15.9219 20.4844 11.0625
Q25.4844 6.20312 34.4219 6.20312
Q39.5938 6.20312 44.4531 7.46875
Q49.3125 8.73438 54.1094 11.2812
L54.1094 2.78125
Q49.2656 0.734375 44.1875 -0.34375
Q39.1094 -1.42188 33.8906 -1.42188
Q20.7969 -1.42188 13.1562 6.1875
Q5.51562 13.8125 5.51562 26.8125
Q5.51562 40.2344 12.7656 48.1094
Q20.0156 56 32.3281 56
Q43.3594 56 49.7812 48.8906
Q56.2031 41.7969 56.2031 29.5938
M47.2188 32.2344
Q47.125 39.5938 43.0938 43.9844
Q39.0625 48.3906 32.4219 48.3906
Q24.9062 48.3906 20.3906 44.1406
Q15.875 39.8906 15.1875 32.1719
z
" id="BitstreamVeraSans-Roman-65"/>
     <path d="
M9.8125 72.9062
L19.6719 72.9062
L19.6719 8.29688
L55.1719 8.29688
L55.1719 0
L9.8125 0
z
" id="BitstreamVeraSans-Roman-4c"/>
     <path d="
M30.6094 48.3906
Q23.3906 48.3906 19.1875 42.75
Q14.9844 37.1094 14.9844 27.2969
Q14.9844 17.4844 19.1562 11.8438
Q23.3438 6.20312 30.6094 6.20312
Q37.7969 6.20312 41.9844 11.8594
Q46.1875 17.5312 46.1875 27.2969
Q46.1875 37.0156 41.9844 42.7031
Q37.7969 48.3906 30.6094 48.3906
M30.6094 56
Q42.3281 56 49.0156 48.375
Q55.7188 40.7656 55.7188 27.2969
Q55.7188 13.875 49.0156 6.21875
Q42.3281 -1.42188 30.6094 -1.42188
Q18.8438 -1.42188 12.1719 6.21875
Q5.51562 13.875 5.51562 27.2969
Q5.51562 40.7656 12.1719 48.375
Q18.8438 56 30.6094 56" id="BitstreamVeraSans-Roman-6f"/>
    </defs>
    <g transform="translate(100.0490625 16.318125)scale(0.12 -0.12)">
     <use xlink:href="#BitstreamVeraSans-Roman-64"/>
     <use x="63.4765625" xlink:href="#BitstreamVeraSans-Roman-61"/>
     <use x="124.755859375" xlink:href="#BitstreamVeraSans-Roman-69"/>
     <use x="152.5390625" xlink:href="#BitstreamVeraSans-Roman-6c"/>
     <use x="180.322265625" xlink:href="#BitstreamVeraSans-Roman-79"/>
     <use x="239.501953125" xlink:href="#BitstreamVeraSans-Roman-20"/>
     <use x="271.2890625" xlink:href="#BitstreamVeraSans-Roman-67"/>
     <use x="334.765625" xlink:href="#BitstreamVeraSans-Roman-72"/>
     <use x="375.87890625" xlink:href="#BitstreamVeraSans-Roman-61"/>
     <use x="437.158203125" xlink:href="#BitstreamVeraSans-Roman-73"/>
     <use x="489.2578125" xlink:href="#BitstreamVeraSans-Roman-73"/>
     <use x="541.357421875" xlink:href="#BitstreamVeraSans-Roman-20"/>
     <use x="573.14453125" xlink:href="#BitstreamVeraSans-Roman-50"/>
     <use x="633.447265625" xlink:href="#BitstreamVeraSans-Roman-45"/>
     <use x="696.630859375" xlink:href="#BitstreamVeraSans-Roman-54"/>
     <use x="757.71484375" xlink:href="#BitstreamVeraSans-Roman-20"/>
     <use x="789.501953125" xlink:href="#BitstreamVeraSans-Roman-61"/>
     <use x="850.78125" xlink:href="#BitstreamVeraSans-Roman-74"/>
     <use x="889.990234375" xlink:href="#BitstreamVeraSans-Roman-20"/>
     <use x="921.77734375" xlink:href="#BitstreamVeraSans-Roman-4c"/>
     <use x="975.740234375" xlink:href="#BitstreamVeraSans-Roman-6f"/>
     <use x="1036.921875" xlink:href="#BitstreamVeraSans-Roman-77"/>
     <use x="1118.708984375" xlink:href="#BitstreamVeraSans-Roman-65"/>
     <use x="1180.232421875" xlink:href="#BitstreamVeraSans-Roman-72"/>
     <use x="1221.345703125" xlink:href="#BitstreamVeraSans-Roman-57"/>
     <use x="1314.34765625" xlink:href="#BitstreamVeraSans-Roman-65"/>
     <use x="1375.87109375" xlink:href="#BitstreamVeraSans-Roman-61"/>
     <use x="1437.150390625" xlink:href="#BitstreamVeraSans-Roman-74"/>
     <use x="1476.359375" xlink:href="#BitstreamVeraSans-Roman-68"/>
     <use x="1539.73828125" xlink:href="#BitstreamVeraSans-Roman-65"/>
     <use x="1601.26171875" xlink:href="#BitstreamVeraSans-Roman-72"/>
    </g>
   </g>
   <g id="legend_1">
    <g id="patch_7">
     <path d="
M287.803 277.511
L359.991 277.511
L359.991 27.3181
L287.803 27.3181
z
" style="fill:#ffffff;stroke:#000000;stroke-linejoin:miter;"/>
    </g>
    <g id="line2d_45">
     <path d="
M296.203 37.0362
L313.003 37.0362" style="fill:none;stroke:#0000ff;stroke-linecap:square;"/>
    </g>
    <g id="line2d_46"/>
    <g id="text_19">
     <!-- 1999 -->
     <defs>
      <path d="
M10.9844 1.51562
L10.9844 10.5
Q14.7031 8.73438 18.5 7.8125
Q22.3125 6.89062 25.9844 6.89062
Q35.75 6.89062 40.8906 13.4531
Q46.0469 20.0156 46.7812 33.4062
Q43.9531 29.2031 39.5938 26.9531
Q35.25 24.7031 29.9844 24.7031
Q19.0469 24.7031 12.6719 31.3125
Q6.29688 37.9375 6.29688 49.4219
Q6.29688 60.6406 12.9375 67.4219
Q19.5781 74.2188 30.6094 74.2188
Q43.2656 74.2188 49.9219 64.5156
Q56.5938 54.8281 56.5938 36.375
Q56.5938 19.1406 48.4062 8.85938
Q40.2344 -1.42188 26.4219 -1.42188
Q22.7031 -1.42188 18.8906 -0.6875
Q15.0938 0.046875 10.9844 1.51562
M30.6094 32.4219
Q37.25 32.4219 41.125 36.9531
Q45.0156 41.5 45.0156 49.4219
Q45.0156 57.2812 41.125 61.8438
Q37.25 66.4062 30.6094 66.4062
Q23.9688 66.4062 20.0938 61.8438
Q16.2188 57.2812 16.2188 49.4219
Q16.2188 41.5 20.0938 36.9531
Q23.9688 32.4219 30.6094 32.4219" id="BitstreamVeraSans-Roman-39"/>
     </defs>
     <g transform="translate(326.203125 41.23625)scale(0.12 -0.12)">
      <use xlink:href="#BitstreamVeraSans-Roman-31"/>
      <use x="63.623046875" xlink:href="#BitstreamVeraSans-Roman-39"/>
      <use x="127.24609375" xlink:href="#BitstreamVeraSans-Roman-39"/>
      <use x="190.869140625" xlink:href="#BitstreamVeraSans-Roman-39"/>
     </g>
    </g>
    <g id="line2d_47">
     <path d="
M296.203 54.65
L313.003 54.65" style="fill:none;stroke:#008000;stroke-linecap:square;"/>
    </g>
    <g id="line2d_48"/>
    <g id="text_20">
     <!-- 2000 -->
     <g transform="translate(326.203125 58.85)scale(0.12 -0.12)">
      <use xlink:href="#BitstreamVeraSans-Roman-32"/>
      <use x="63.623046875" xlink:href="#BitstreamVeraSans-Roman-30"/>
      <use x="127.24609375" xlink:href="#BitstreamVeraSans-Roman-30"/>
      <use x="190.869140625" xlink:href="#BitstreamVeraSans-Roman-30"/>
     </g>
    </g>
    <g id="line2d_49">
     <path d="
M296.203 72.2638
L313.003 72.2638" style="fill:none;stroke:#ff0000;stroke-linecap:square;"/>
    </g>
    <g id="line2d_50"/>
    <g id="text_21">
     <!-- 2001 -->
     <g transform="translate(326.203125 76.46375)scale(0.12 -0.12)">
      <use xlink:href="#BitstreamVeraSans-Roman-32"/>
      <use x="63.623046875" xlink:href="#BitstreamVeraSans-Roman-30"/>
      <use x="127.24609375" xlink:href="#BitstreamVeraSans-Roman-30"/>
      <use x="190.869140625" xlink:href="#BitstreamVeraSans-Roman-31"/>
     </g>
    </g>
    <g id="line2d_51">
     <path d="
M296.203 89.8775
L313.003 89.8775" style="fill:none;stroke:#00bfbf;stroke-linecap:square;"/>
    </g>
    <g id="line2d_52"/>
    <g id="text_22">
     <!-- 2002 -->
     <g transform="translate(326.203125 94.0775)scale(0.12 -0.12)">
      <use xlink:href="#BitstreamVeraSans-Roman-32"/>
      <use x="63.623046875" xlink:href="#BitstreamVeraSans-Roman-30"/>
      <use x="127.24609375" xlink:href="#BitstreamVeraSans-Roman-30"/>
      <use x="190.869140625" xlink:href="#BitstreamVeraSans-Roman-32"/>
     </g>
    </g>
    <g id="line2d_53">
     <path d="
M296.203 107.491
L313.003 107.491" style="fill:none;stroke:#bf00bf;stroke-linecap:square;"/>
    </g>
    <g id="line2d_54"/>
    <g id="text_23">
     <!-- 2003 -->
     <g transform="translate(326.203125 111.69125)scale(0.12 -0.12)">
      <use xlink:href="#BitstreamVeraSans-Roman-32"/>
      <use x="63.623046875" xlink:href="#BitstreamVeraSans-Roman-30"/>
      <use x="127.24609375" xlink:href="#BitstreamVeraSans-Roman-30"/>
      <use x="190.869140625" xlink:href="#BitstreamVeraSans-Roman-33"/>
     </g>
    </g>
    <g id="line2d_55">
     <path d="
M296.203 125.105
L313.003 125.105" style="fill:none;stroke:#bfbf00;stroke-linecap:square;"/>
    </g>
    <g id="line2d_56"/>
    <g id="text_24">
     <!-- 2004 -->
     <g transform="translate(326.203125 129.305)scale(0.12 -0.12)">
      <use xlink:href="#BitstreamVeraSans-Roman-32"/>
      <use x="63.623046875" xlink:href="#BitstreamVeraSans-Roman-30"/>
      <use x="127.24609375" xlink:href="#BitstreamVeraSans-Roman-30"/>
      <use x="190.869140625" xlink:href="#BitstreamVeraSans-Roman-34"/>
     </g>
    </g>
    <g id="line2d_57">
     <path d="
M296.203 142.719
L313.003 142.719" style="fill:none;stroke:#000000;stroke-linecap:square;"/>
    </g>
    <g id="line2d_58"/>
    <g id="text_25">
     <!-- 2005 -->
     <g transform="translate(326.203125 146.91875)scale(0.12 -0.12)">
      <use xlink:href="#BitstreamVeraSans-Roman-32"/>
      <use x="63.623046875" xlink:href="#BitstreamVeraSans-Roman-30"/>
      <use x="127.24609375" xlink:href="#BitstreamVeraSans-Roman-30"/>
      <use x="190.869140625" xlink:href="#BitstreamVeraSans-Roman-35"/>
     </g>
    </g>
    <g id="line2d_59">
     <path d="
M296.203 160.332
L313.003 160.332" style="fill:none;stroke:#0000ff;stroke-linecap:square;"/>
    </g>
    <g id="line2d_60"/>
    <g id="text_26">
     <!-- 2006 -->
     <g transform="translate(326.203125 164.5325)scale(0.12 -0.12)">
      <use xlink:href="#BitstreamVeraSans-Roman-32"/>
      <use x="63.623046875" xlink:href="#BitstreamVeraSans-Roman-30"/>
      <use x="127.24609375" xlink:href="#BitstreamVeraSans-Roman-30"/>
      <use x="190.869140625" xlink:href="#BitstreamVeraSans-Roman-36"/>
     </g>
    </g>
    <g id="line2d_61">
     <path d="
M296.203 177.946
L313.003 177.946" style="fill:none;stroke:#008000;stroke-linecap:square;"/>
    </g>
    <g id="line2d_62"/>
    <g id="text_27">
     <!-- 2007 -->
     <defs>
      <path d="
M8.20312 72.9062
L55.0781 72.9062
L55.0781 68.7031
L28.6094 0
L18.3125 0
L43.2188 64.5938
L8.20312 64.5938
z
" id="BitstreamVeraSans-Roman-37"/>
     </defs>
     <g transform="translate(326.203125 182.14625)scale(0.12 -0.12)">
      <use xlink:href="#BitstreamVeraSans-Roman-32"/>
      <use x="63.623046875" xlink:href="#BitstreamVeraSans-Roman-30"/>
      <use x="127.24609375" xlink:href="#BitstreamVeraSans-Roman-30"/>
      <use x="190.869140625" xlink:href="#BitstreamVeraSans-Roman-37"/>
     </g>
    </g>
    <g id="line2d_63">
     <path d="
M296.203 195.56
L313.003 195.56" style="fill:none;stroke:#ff0000;stroke-linecap:square;"/>
    </g>
    <g id="line2d_64"/>
    <g id="text_28">
     <!-- 2008 -->
     <defs>
      <path d="
M31.7812 34.625
Q24.75 34.625 20.7188 30.8594
Q16.7031 27.0938 16.7031 20.5156
Q16.7031 13.9219 20.7188 10.1562
Q24.75 6.39062 31.7812 6.39062
Q38.8125 6.39062 42.8594 10.1719
Q46.9219 13.9688 46.9219 20.5156
Q46.9219 27.0938 42.8906 30.8594
Q38.875 34.625 31.7812 34.625
M21.9219 38.8125
Q15.5781 40.375 12.0312 44.7188
Q8.5 49.0781 8.5 55.3281
Q8.5 64.0625 14.7188 69.1406
Q20.9531 74.2188 31.7812 74.2188
Q42.6719 74.2188 48.875 69.1406
Q55.0781 64.0625 55.0781 55.3281
Q55.0781 49.0781 51.5312 44.7188
Q48 40.375 41.7031 38.8125
Q48.8281 37.1562 52.7969 32.3125
Q56.7812 27.4844 56.7812 20.5156
Q56.7812 9.90625 50.3125 4.23438
Q43.8438 -1.42188 31.7812 -1.42188
Q19.7344 -1.42188 13.25 4.23438
Q6.78125 9.90625 6.78125 20.5156
Q6.78125 27.4844 10.7812 32.3125
Q14.7969 37.1562 21.9219 38.8125
M18.3125 54.3906
Q18.3125 48.7344 21.8438 45.5625
Q25.3906 42.3906 31.7812 42.3906
Q38.1406 42.3906 41.7188 45.5625
Q45.3125 48.7344 45.3125 54.3906
Q45.3125 60.0625 41.7188 63.2344
Q38.1406 66.4062 31.7812 66.4062
Q25.3906 66.4062 21.8438 63.2344
Q18.3125 60.0625 18.3125 54.3906" id="BitstreamVeraSans-Roman-38"/>
     </defs>
     <g transform="translate(326.203125 199.76)scale(0.12 -0.12)">
      <use xlink:href="#BitstreamVeraSans-Roman-32"/>
      <use x="63.623046875" xlink:href="#BitstreamVeraSans-Roman-30"/>
      <use x="127.24609375" xlink:href="#BitstreamVeraSans-Roman-30"/>
      <use x="190.869140625" xlink:href="#BitstreamVeraSans-Roman-38"/>
     </g>
    </g>
    <g id="line2d_65">
     <path d="
M296.203 213.174
L313.003 213.174" style="fill:none;stroke:#00bfbf;stroke-linecap:square;"/>
    </g>
    <g id="line2d_66"/>
    <g id="text_29">
     <!-- 2009 -->
     <g transform="translate(326.203125 217.37375)scale(0.12 -0.12)">
      <use xlink:href="#BitstreamVeraSans-Roman-32"/>
      <use x="63.623046875" xlink:href="#BitstreamVeraSans-Roman-30"/>
      <use x="127.24609375" xlink:href="#BitstreamVeraSans-Roman-30"/>
      <use x="190.869140625" xlink:href="#BitstreamVeraSans-Roman-39"/>
     </g>
    </g>
    <g id="line2d_67">
     <path d="
M296.203 230.788
L313.003 230.788" style="fill:none;stroke:#bf00bf;stroke-linecap:square;"/>
    </g>
    <g id="line2d_68"/>
    <g id="text_30">
     <!-- 2010 -->
     <g transform="translate(326.203125 234.9875)scale(0.12 -0.12)">
      <use xlink:href="#BitstreamVeraSans-Roman-32"/>
      <use x="63.623046875" xlink:href="#BitstreamVeraSans-Roman-30"/>
      <use x="127.24609375" xlink:href="#BitstreamVeraSans-Roman-31"/>
      <use x="190.869140625" xlink:href="#BitstreamVeraSans-Roman-30"/>
     </g>
    </g>
    <g id="line2d_69">
     <path d="
M296.203 248.401
L313.003 248.401" style="fill:none;stroke:#bfbf00;stroke-linecap:square;"/>
    </g>
    <g id="line2d_70"/>
    <g id="text_31">
     <!-- 2011 -->
     <g transform="translate(326.203125 252.60125)scale(0.12 -0.12)">
      <use xlink:href="#BitstreamVeraSans-Roman-32"/>
      <use x="63.623046875" xlink:href="#BitstreamVeraSans-Roman-30"/>
      <use x="127.24609375" xlink:href="#BitstreamVeraSans-Roman-31"/>
      <use x="190.869140625" xlink:href="#BitstreamVeraSans-Roman-31"/>
     </g>
    </g>
    <g id="line2d_71">
     <path d="
M296.203 266.015
L313.003 266.015" style="fill:none;stroke:#000000;stroke-linecap:square;"/>
    </g>
    <g id="line2d_72"/>
    <g id="text_32">
     <!-- 2012 -->
     <g transform="translate(326.203125 270.215)scale(0.12 -0.12)">
      <use xlink:href="#BitstreamVeraSans-Roman-32"/>
      <use x="63.623046875" xlink:href="#BitstreamVeraSans-Roman-30"/>
      <use x="127.24609375" xlink:href="#BitstreamVeraSans-Roman-31"/>
      <use x="190.869140625" xlink:href="#BitstreamVeraSans-Roman-32"/>
     </g>
    </g>
   </g>
  </g>
 </g>
 <defs>
  <clipPath id="p95a2ee5e18">
   <rect height="223.2" width="334.8" x="31.190625" y="21.318125"/>
  </clipPath>
 </defs>
</svg>
