<?xml version="1.0" encoding="utf-8" standalone="no"?>
<!DOCTYPE svg PUBLIC "-//W3C//DTD SVG 1.1//EN"
  "http://www.w3.org/Graphics/SVG/1.1/DTD/svg11.dtd">
<!-- Created with matplotlib (http://matplotlib.org/) -->
<svg height="284pt" version="1.1" viewBox="0 0 373 284" width="373pt" xmlns="http://www.w3.org/2000/svg" xmlns:xlink="http://www.w3.org/1999/xlink">
 <defs>
  <style type="text/css">
*{stroke-linecap:butt;stroke-linejoin:round;}
  </style>
 </defs>
 <g id="figure_1">
  <g id="patch_1">
   <path d="
M0 284.711
L373.191 284.711
L373.191 0
L0 0
z
" style="fill:#ffffff;"/>
  </g>
  <g id="axes_1">
   <g id="patch_2">
    <path d="
M31.1906 244.518
L365.991 244.518
L365.991 21.3181
L31.1906 21.3181
z
" style="fill:#ffffff;"/>
   </g>
   <g id="line2d_1">
    <path clip-path="url(#p95a2ee5e18)" d="
M0 0" style="fill:none;stroke:#0000ff;stroke-linecap:square;"/>
   </g>
   <g id="line2d_2">
    <path clip-path="url(#p95a2ee5e18)" d="
M0 0" style="fill:none;stroke:#008000;stroke-linecap:square;"/>
   </g>
   <g id="line2d_3">
    <path clip-path="url(#p95a2ee5e18)" d="
M0 0" style="fill:none;stroke:#ff0000;stroke-linecap:square;"/>
   </g>
   <g id="line2d_4">
    <path clip-path="url(#p95a2ee5e18)" d="
M0 0" style="fill:none;stroke:#00bfbf;stroke-linecap:square;"/>
   </g>
   <g id="line2d_5">
    <path clip-path="url(#p95a2ee5e18)" d="
M0 0" style="fill:none;stroke:#bf00bf;stroke-linecap:square;"/>
   </g>
   <g id="line2d_6">
    <path clip-path="url(#p95a2ee5e18)" d="
M0 0" style="fill:none;stroke:#bfbf00;stroke-linecap:square;"/>
   </g>
   <g id="line2d_7">
    <path clip-path="url(#p95a2ee5e18)" d="
M0 0" style="fill:none;stroke:#000000;stroke-linecap:square;"/>
   </g>
   <g id="line2d_8">
    <path clip-path="url(#p95a2ee5e18)" d="
M0 0" style="fill:none;stroke:#0000ff;stroke-linecap:square;"/>
   </g>
   <g id="line2d_9">
    <path clip-path="url(#p95a2ee5e18)" d="
M0 0" style="fill:none;stroke:#008000;stroke-linecap:square;"/>
   </g>
   <g id="line2d_10">
    <path clip-path="url(#p95a2ee5e18)" d="
M31.1906 128.782
L32.1079 116.891
L33.0251 112.27
L33.9424 152.028
L34.8597 143.744
L35.7769 193.968
L36.6942 182.122
L37.6114 193.174
L38.5287 216.443
L39.446 193.941
L40.3632 240.928
M43.115 146.721
L44.0323 162.697
L44.9495 111.02
L45.8668 130.586
L46.784 186.244
M48.6186 232.657
L49.5358 212.587
L50.4531 165.989
L51.3704 144.546
L52.2876 169.915
L53.2049 237.218
L54.1221 183.584
L55.0394 156.347
L55.9567 200.931
L56.8739 211.119
L57.7912 194.981
L58.7084 190.899
L59.6257 183.612
L60.543 172.956
L61.4602 214.756
L62.3775 180.653
L63.2947 170.952
L65.1293 200.213
L66.0465 139.142
L66.9638 159.153
L67.881 155.732
L68.7983 151.185
L69.7156 155.867
L70.6328 177.093
L71.5501 113.493
L73.3846 159.254
L74.3019 126.428
L75.2191 143.517
L76.1364 152.403
L77.0536 153.323
L77.9709 148.694
L78.8882 209.226
L79.8054 180.541
L80.7227 168.891
L81.6399 186.767
L82.5572 136.89
L83.4745 155.558
L85.309 121.679
L86.2262 168.7
L87.1435 124.685
L88.0608 91.6732
L88.978 129.387
L89.8953 111.789
L90.8125 83.3622
L91.7298 96.8588
L92.6471 173.046
L93.5643 118.298
L94.4816 104.315
L95.3988 102.253
L96.3161 68.1751
L97.2334 168.683
L98.1506 164.973
L99.0679 139.294
L99.9851 125.282
L100.902 128.392
L101.82 197.545
L102.737 175.09
L103.654 140.619
L104.571 77.9546
L105.489 51.789
L106.406 99.1442
L107.323 162.733
L108.24 171.937
L109.158 190.677
L110.075 91.1838
L110.992 129.692
L111.91 78.6397
L112.827 82.8012
L113.744 96.1768
L114.661 35.8551
L115.579 53.5743
L116.496 57.8653
L117.413 115.6
L118.33 72.0718
L119.248 118.178
L120.165 133.461
L121.082 75.9874
L121.999 139.218
L122.917 146.069
L123.834 73.0098
L124.751 102.124
L125.668 102.827
L126.586 152.426
L127.503 111.73
L128.42 95.1662
L129.337 82.9214
L130.255 85.2565
L131.172 92.569
L132.089 88.9803
L133.007 88.9581
L133.924 65.6415
L134.841 150.085
L135.758 144.659
L136.676 68.5621
L137.593 48.1169
L138.51 70.4824
L139.427 76.037
L140.345 141.062
L142.179 72.4313
L143.096 56.9078
L144.014 73.5744
L144.931 98.5414
L145.848 92.1625
L146.765 105.378
L147.683 121.918
L148.6 100.104
L149.517 72.5812
L150.434 56.3649
L151.352 95.2257
L152.269 82.5909
L153.186 80.2787
L154.104 154.778
L155.021 122.913
L155.938 119.241
L156.855 100.919
L157.773 125.535
L158.69 112.858
L159.607 167.521
L160.524 123.628
L161.442 138.111
L162.359 178.25
L163.276 130.981
L164.193 130.206
L165.111 160.361
L166.028 166.595
L166.945 157.958
L167.862 153.004
L168.78 128.884
L169.697 136.98
L170.614 170.989
L171.531 122.273
L172.449 178.027
L173.366 160.896
L174.283 117.653
L175.2 111.426
L176.118 135.552
L177.035 93.35
L177.952 149.529
L178.87 118.239
L179.787 164.132
L181.621 100.822
L182.539 100.357
L183.456 95.7075
L184.373 102.549
L185.29 106.923
L186.208 105.685
L187.125 97.3189
L188.042 104.344
L188.959 139.829
L189.877 131.784
L190.794 116.316
L191.711 116.413
L192.628 107.722
L195.38 128.622
L196.297 131.138
L197.215 132.671
L198.132 148.305
L199.049 128.665
L199.967 128.048
L200.884 133.219
L201.801 128.202
L202.718 127.563
L203.636 128.779
L204.553 113.772
L205.47 111.148
L206.387 118.782
L207.305 93.1865
L208.222 88.331
L209.139 104.045
L210.056 113.025
L210.974 116.306
L211.891 123.772
L212.808 123.608
L213.725 114.064
L214.643 101.279
L215.56 119.968
L216.477 148.668
L217.394 162.203
L218.312 134.588
L219.229 135.869
L220.146 117.345
L221.064 120.187
L222.898 128.163
L223.815 127.293
L224.733 119.819
L225.65 113.485
L226.567 123.873
L227.484 129.77
L228.402 122.572
L229.319 121.707
L230.236 126.852
L231.153 135.541
L232.071 141.377
L232.988 158.51
L233.905 144.722
L234.822 112.699
L235.74 117.268
L236.657 123.531
L237.574 117.499
L238.491 126.52
L239.409 129.899
L240.326 125.563
L241.243 127.83
L243.078 149.789
L243.995 128.432
L244.912 129.585
L245.83 113.254
L246.747 109.324
L247.664 123.553
L248.581 132.917
L249.499 116.109
L250.416 93.7892
L251.333 129.729
L252.25 132.729
L253.168 122.406
L254.085 108.109
L255.002 119.351
L255.919 92.8883
L256.837 90.9728
L257.754 97.2704
L258.671 106.263
L259.588 123.022
L260.506 121.68
L261.423 111.135
L262.34 109.954
L263.257 102.942
L264.175 103.49
L265.092 105.976
L266.009 111.497
L266.927 113.903
L267.844 113.453
L268.761 111.693
L269.678 110.182
L270.596 120.903
L271.513 142.941
L272.43 186.362
L273.347 183.808
L274.265 142.604
L276.099 114.759
L277.016 114.556
L277.934 124.044
L278.851 122.119
L279.768 106.905
L280.685 117.417
L281.603 133.562
L282.52 132.038
L283.437 142.607
L284.354 151.247
L285.272 194.534
L286.189 175.829
L287.106 149.507
L288.941 120.672
L289.858 116.209
L290.775 194.5
L291.693 176.364
L292.61 99.2926
L293.527 110.092
L294.444 137.877
L295.362 130.525
L296.279 118.312
L297.196 142.162
L298.113 120.733
L299.031 147.685
L299.948 119.152
L300.865 107.487
L301.782 78.5248
L302.7 78.2984
L303.617 88.9549
L304.534 104.074
L305.451 102.448
L306.369 95.0894
L307.286 104.986
L308.203 110.714
L309.12 109.496
L310.038 128.666
L310.955 178.202
L311.872 204.456
L313.707 177.013
L314.624 138.597
L315.541 166.12
L316.459 181.346
L317.376 202.04
L318.293 226.196
L319.21 194.679
L320.128 202.226
L321.045 192.974
L321.962 168.383
L322.879 124.676
L323.797 132.042
L324.714 160.537
L325.631 156.923
L326.548 141.295
L327.466 159.174
L328.383 157.507
L329.3 117.854
L331.135 219.239
L332.052 175.582
L332.969 159.741
L333.887 185.835
L334.804 174.653
L335.721 148.806
L336.638 192.451
L337.556 203.679
L338.473 197.693
L339.39 184.96
L340.307 186.79
L341.225 176.398
L342.142 159.797
L343.976 145.562
L344.894 200.188
L345.811 124.549
L346.728 139.809
L347.645 158.616
L348.563 202.518
L349.48 202.931
L350.397 196.903
L351.314 179.569
L352.232 200.995
L353.149 143.376
L354.066 146.973
L354.984 188.598
L355.901 149.792
L356.818 190.335
L357.735 207.977
L358.653 214.379
L359.57 180.799
L360.487 206.136
L361.404 176.877
L362.322 224.307
L364.156 164.404
L365.073 96.6342
L365.073 96.6342" style="fill:none;stroke:#ff0000;stroke-linecap:square;"/>
   </g>
   <g id="line2d_11">
    <path clip-path="url(#p95a2ee5e18)" d="
M31.1906 202.795
L32.1079 138.494
L33.0251 148.515
L33.9424 95.8958
L34.8597 150.028
L35.7769 228.731
L36.6942 181.982
L37.6114 167.489
L38.5287 186.731
L39.446 148.078
L40.3632 160.386
L41.2805 199.248
L42.1977 178.626
L43.115 193.023
L44.0323 232.064
L44.9495 234.232
L45.8668 235.441
L46.784 232.608
L47.7013 230.314
L48.6186 232.413
L49.5358 231.574
L50.4531 233.437
L51.3704 241.928
L52.2876 235.001
M54.1221 206.449
L55.0394 192.159
L55.9567 190.619
L56.8739 170.669
L57.7912 191.415
L58.7084 207.621
L59.6257 184.944
L60.543 168.146
L61.4602 161.663
L62.3775 171.613
L63.2947 188.409
L64.212 182.548
L65.1293 202.166
L66.0465 198.262
L66.9638 230.648
L67.881 175.044
L68.7983 199.71
L69.7156 205.259
L70.6328 148.233
L71.5501 192.821
L72.4673 133.331
L73.3846 161.477
L74.3019 202.467
L75.2191 146.402
L76.1364 128.494
L77.0536 146.43
L77.9709 139.551
L78.8882 170.785
L79.8054 174.069
L80.7227 132.19
L81.6399 163.162
L82.5572 178.436
L83.4745 99.2426
L84.3917 104.388
L85.309 144.586
L86.2262 171.327
L87.1435 177.795
L88.0608 203.033
L88.978 237.128
L89.8953 202.048
L90.8125 152.239
L91.7298 189.214
L92.6471 143.031
L93.5643 154.495
L94.4816 128.686
L95.3988 140.882
L96.3161 135.854
L97.2334 127.235
L98.1506 196.676
L99.0679 185.41
L99.9851 152.02
L100.902 122.803
L101.82 142.466
L102.737 126.6
L103.654 176.421
L104.571 177.38
L105.489 120.009
L106.406 144.309
L107.323 196.559
L108.24 114.457
L109.158 118.615
L110.075 167.159
L110.992 199.499
L111.91 101.541
L112.827 188.514
L113.744 130.656
L114.661 192.154
L115.579 181.43
L116.496 95.332
L117.413 98.7017
L118.33 100.481
L119.248 108.727
L120.165 188.875
L121.082 164.42
L121.999 200.462
L122.917 171.985
L123.834 134.716
L124.751 168.029
L125.668 139.52
L126.586 147.018
L127.503 114.876
L128.42 110.616
L129.337 125.377
L130.255 102.428
L131.172 116.255
L132.089 119.014
L133.007 127.564
L133.924 133.457
L134.841 81.9911
L135.758 82.6142
L136.676 137.634
L137.593 105.635
L138.51 188.471
L139.427 136.878
L140.345 144.367
L141.262 133.885
L142.179 176.602
L143.096 196.895
L144.014 164.404
L144.931 159.987
L145.848 173.436
L146.765 130.889
L147.683 109.962
L148.6 99.3515
L149.517 102.056
L150.434 106.889
L151.352 114.288
L152.269 92.3339
L153.186 160.258
L154.104 106.513
L155.021 103.261
L155.938 111.905
L156.855 130.302
L157.773 119.456
L158.69 104.363
L159.607 92.8479
L161.442 134.019
L162.359 151.714
L163.276 125.765
L164.193 119.348
L165.111 120.083
L166.028 127.044
L166.945 129.73
L167.862 144.61
L168.78 147.258
L169.697 161.464
L170.614 198.146
L171.531 166.847
L172.449 165.522
L173.366 191.162
L174.283 184.876
L175.2 149.631
L176.118 144.148
L177.035 131.996
L177.952 159.566
L178.87 161.604
L179.787 152.573
L180.704 201.125
L181.621 197.595
L182.539 176.715
L183.456 142.318
L184.373 159.991
L185.29 131.38
L186.208 163.358
L187.125 162.905
L188.042 182.937
L188.959 137.44
L189.877 115.007
L190.794 129.878
L191.711 134.356
L192.628 137.012
L193.546 121.251
L194.463 121.415
L195.38 138.961
L196.297 136.183
L197.215 128.343
L198.132 143.269
L199.049 150.588
L199.967 142.678
L200.884 157.433
L201.801 133.969
L202.718 126.484
L203.636 127.822
L204.553 125.495
L205.47 127.674
L206.387 151.849
L207.305 168.58
L209.139 131.055
L210.056 129.026
L210.974 142.288
L211.891 142.982
L212.808 150.441
L213.725 144.844
L214.643 132.321
L215.56 136.485
L216.477 144.071
L217.394 159.928
L218.312 144.957
L219.229 140.815
L220.146 146.487
L221.064 155.477
L221.981 153.039
L222.898 149.932
L223.815 149.279
L224.733 144.339
L225.65 146.167
L226.567 147.478
L227.484 146.637
L228.402 151.67
L229.319 144.56
L230.236 207.637
L231.153 221.881
L232.071 176.492
L232.988 152.823
L233.905 142.301
L234.822 142.809
L235.74 148.184
L236.657 156.739
L237.574 153.158
L238.491 132.48
L239.409 128.264
L240.326 135.775
L241.243 140.15
L242.16 146.652
L243.078 155.896
L243.995 148.938
L244.912 150.785
L245.83 165.356
L246.747 154.082
L247.664 147.907
L248.581 147.265
L249.499 145.897
L250.416 155.264
L251.333 150.271
L252.25 161.752
L253.168 150.271
L254.085 148.473
L255.002 148.372
L255.919 143.773
L256.837 144.26
L257.754 153.054
L258.671 141.119
L259.588 125.562
L260.506 118.58
L261.423 122.393
L262.34 134.575
L263.257 141.24
L264.175 142.426
L265.092 146.875
L266.009 155.408
L266.927 162.057
L267.844 158.286
L268.761 151.592
L269.678 170.615
M294.444 164.364
L295.362 174.139
L296.279 164.374
L298.113 200.484
L299.031 179.793
L299.948 183.448
L300.865 189.817
L301.782 187.308
L302.7 167.914
L303.617 128.641
L304.534 174.561
L305.451 174.901
L306.369 136.428
L307.286 190.864
L308.203 222.639
L309.12 182.634
L310.038 185.612
L310.955 162.362
L311.872 168.545
L312.79 147.507
L313.707 147.359
L314.624 181.681
L315.541 165.04
L316.459 151.62
L317.376 122.956
L318.293 142.553
L319.21 194.062
L320.128 190.282
L321.045 199.763
L321.962 206.743
L322.879 143.56
L323.797 146.441
L324.714 129.545
L325.631 188.541
L326.548 125.164
L327.466 145.607
L328.383 150.761
L329.3 184.11
L330.217 161.943
L331.135 171.642
L332.052 176.706
L332.969 194.653
L333.887 206.988
L334.804 187.995
L335.721 158.447
M337.556 155.51
L338.473 141.737
L339.39 131.737
L340.307 149.095
L341.225 131.004
L342.142 143.652
L343.059 213.34
L343.976 157.339
L344.894 138.744
L345.811 147.049
L346.728 158.816
L347.645 206.97
L348.563 221.748
L349.48 192.909
L350.397 204.567
L351.314 220.297
L352.232 197.444
L353.149 218.538
L354.066 233.854
L354.984 218.433
L355.901 182.583
L356.818 244.282
L357.735 222.052
L358.653 171.725
L360.487 220.481
L361.404 195.885
L362.322 202.319
L363.239 189.927
L364.156 218.48
L365.073 189.745
L365.073 189.745" style="fill:none;stroke:#00bfbf;stroke-linecap:square;"/>
   </g>
   <g id="line2d_12">
    <path clip-path="url(#p95a2ee5e18)" d="
M31.1906 208.47
L32.1079 192.055
L33.0251 214.137
L33.9424 215.446
L34.8597 227.047
L35.7769 218.298
L36.6942 173.066
L37.6114 193.57
L38.5287 173.334
L39.446 157.471
L40.3632 195.918
L41.2805 168.627
L42.1977 222.367
L43.115 180.062
L44.0323 130.641
L44.9495 185.498
L45.8668 179.999
L46.784 176.433
L47.7013 176.168
L48.6186 157.943
L49.5358 162.525
L51.3704 234.679
L52.2876 170.65
L53.2049 194.285
L54.1221 227.688
L55.0394 233.998
L55.9567 199.957
L56.8739 199.56
L57.7912 222.305
L58.7084 241.024
L59.6257 233.107
L60.543 195.138
L61.4602 201.413
L62.3775 215.617
L63.2947 201.451
L64.212 216.291
L65.1293 215.105
L66.0465 192.164
L66.9638 199.906
L67.881 146.727
L68.7983 174.88
L69.7156 179.229
L70.6328 221.837
L71.5501 178.963
L72.4673 228.551
L73.3846 208.863
L74.3019 214.547
L75.2191 174.765
L76.1364 162.987
L77.0536 155.646
L77.9709 143.851
L78.8882 98.167
L79.8054 95.3495
L80.7227 194.971
L81.6399 170.05
L82.5572 131.701
L84.3917 196.443
L85.309 140.602
L86.2262 168.215
L87.1435 171.258
L88.0608 195.077
L88.978 158.773
L89.8953 141.774
L90.8125 133.694
L91.7298 201.56
L92.6471 126.518
L93.5643 100.019
L94.4816 101.543
L95.3988 119.856
L96.3161 209.228
L97.2334 140.024
L98.1506 109.448
L99.0679 124.093
L99.9851 132.167
L100.902 134.326
L101.82 76.0313
L102.737 84.4699
L103.654 154.329
L104.571 168.943
L105.489 118.559
L106.406 108.205
L107.323 174.057
L108.24 177.534
L109.158 116.107
L110.075 105.647
L111.91 215.419
L112.827 145.443
L113.744 180.66
L114.661 183.499
L115.579 155.628
L116.496 114.317
L117.413 167.805
L118.33 120.993
L119.248 111.116
L120.165 139.136
L121.082 77.6205
L121.999 108.629
L122.917 132.568
L123.834 174.285
L124.751 157.041
L125.668 125.35
L126.586 113.668
L127.503 122.698
L128.42 127.321
L129.337 114.858
L130.255 107.66
L131.172 170.168
L132.089 200.966
L133.007 191.75
L133.924 111.791
L134.841 107.287
L135.758 95.3883
L136.676 107.95
L137.593 173.63
L138.51 173.08
L139.427 158.641
L140.345 163.445
L141.262 157
L142.179 131.633
L143.096 142.853
L144.014 71.8606
L144.931 127.574
L145.848 123.831
L146.765 68.9393
L147.683 101.867
L148.6 103.501
L149.517 183.476
L150.434 155.348
L151.352 106.422
L152.269 108.205
L153.186 102.482
L154.104 105.59
L155.021 116.933
L155.938 143.344
L156.855 207.712
L157.773 141.607
L158.69 119.849
L159.607 143.427
L160.524 232.794
L161.442 164.599
L162.359 151.18
L163.276 113.726
L164.193 173.516
L165.111 170.225
L166.028 182.086
L166.945 166.19
L167.862 132.555
L168.78 179.716
L169.697 170.877
L170.614 211.722
L171.531 161.483
L172.449 212.123
L173.366 166.49
L174.283 194.173
L175.2 150.372
L176.118 119.519
L177.035 170.246
L177.952 165.532
L179.787 110.865
L180.704 119.063
L181.621 125.7
L182.539 152.885
L183.456 126.573
L184.373 120.822
L185.29 107.903
L186.208 119.155
L187.125 173.899
L188.959 128.916
L189.877 125.179
L190.794 151.811
L191.711 161.346
L192.628 134.051
L193.546 124.098
L194.463 129.546
L195.38 161.239
L196.297 152.015
L197.215 131.184
L198.132 134.758
L199.049 151.529
L199.967 129.083
L200.884 128.247
L201.801 124.69
L202.718 123.612
L203.636 127.445
L204.553 132.868
L205.47 136.486
L206.387 141.225
L207.305 139.803
L208.222 103.669
L209.139 113.689
L210.056 127.038
L210.974 134.497
L211.891 135.049
L212.808 132.815
L213.725 121.8
L214.643 121.949
L215.56 124.224
L216.477 135.622
L217.394 126.711
L218.312 130.646
L219.229 138.022
L220.146 176.607
L221.064 162.569
L221.981 151.886
L222.898 143.596
L223.815 147.735
L224.733 153.412
L226.567 127.578
L227.484 129.874
L229.319 139.755
L230.236 153.893
L231.153 139.504
L232.071 141.602
L232.988 157.045
L233.905 168.447
L234.822 190.089
L236.657 142.431
L237.574 151.223
L238.491 138.908
L239.409 138.206
L240.326 142.118
L241.243 138.675
L242.16 137.121
L243.078 128.376
L243.995 130.835
L244.912 131.648
L245.83 133.968
L246.747 129.186
L247.664 131.105
L248.581 152.773
L249.499 124.437
L250.416 143.392
L251.333 189.266
L252.25 145.616
L253.168 168.483
L254.085 151.151
L255.002 141.736
L255.919 130.25
L256.837 139.006
L257.754 131.74
L258.671 112.121
L259.588 113.927
L260.506 177.786
L261.423 214.889
L262.34 158.082
L263.257 125.879
L264.175 125.893
L265.092 129.508
L266.009 143.988
L266.927 134.868
L267.844 134.523
L268.761 140.09
L269.678 140.911
L270.596 152.722
L271.513 154.131
L272.43 140.221
L273.347 149.082
L274.265 131.03
L275.182 121.206
L276.099 136.407
L277.016 132.931
L277.934 133.728
L278.851 132.364
L279.768 144.221
L280.685 133.393
L281.603 139.343
L282.52 141.039
L283.437 180.346
L284.354 226.969
L285.272 216.648
L287.106 160.002
L288.024 189.125
L288.941 170.526
L289.858 171.622
L290.775 179.686
L291.693 138.773
L292.61 136.1
L293.527 115.501
L294.444 137.233
L295.362 152.922
L296.279 156.694
L297.196 122.213
L298.113 108.008
L299.031 122.852
L299.948 123.22
L300.865 126.955
L301.782 178.677
M304.534 185.758
L305.451 146.915
L306.369 109.946
L308.203 156.997
L309.12 205.716
L310.038 164.113
L310.955 170.887
L311.872 181.92
L312.79 161.151
L313.707 166.207
L314.624 173.838
M317.376 162.288
L318.293 223.939
L319.21 192.463
L320.128 169.286
L321.045 177.572
L321.962 211.495
M323.797 163.698
L324.714 152.787
L325.631 156.511
L326.548 225.249
M328.383 211.124
L329.3 240.948
M331.135 115.187
L332.052 166.7
L332.969 182.428
L333.887 234.52
L334.804 215.615
L335.721 156.928
L336.638 194.628
M340.307 243.852
L341.225 219.369
L342.142 234.064
L343.059 230.083
L343.976 193.106
L344.894 199.217
L345.811 197.659
L346.728 214.442
L347.645 215.702
L348.563 205.157
M351.314 159.247
L352.232 139.482
L353.149 205.894
L354.066 228.95
L354.984 193.009
L355.901 177.372
L356.818 194.678
L357.735 222.652
L358.653 207
L359.57 159.002
L360.487 194.258
L361.404 179.362
L362.322 208.519
L363.239 229.78
L364.156 198.554
L365.073 162.679
L365.073 162.679" style="fill:none;stroke:#bf00bf;stroke-linecap:square;"/>
   </g>
   <g id="line2d_13">
    <path clip-path="url(#p95a2ee5e18)" d="
M31.1906 170.966
L32.1079 195.938
L33.0251 192.518
L33.9424 204.934
L34.8597 201.334
L35.7769 204.098
L36.6942 203.947
L37.6114 213.313
L38.5287 209.025
L39.446 225.092
L40.3632 183.399
L42.1977 221.581
L43.115 219.674
L44.0323 206.351
L44.9495 239.442
L45.8668 208.022
L46.784 209.82
L47.7013 198.508
L48.6186 170.024
L49.5358 217.201
L50.4531 209.635
L51.3704 162.312
L52.2876 217.449
L53.2049 233.332
L54.1221 237.362
L55.0394 211.27
L55.9567 220.734
L56.8739 217.992
L57.7912 234.51
L58.7084 174.565
L59.6257 132.632
L60.543 134.807
L61.4602 154.661
L62.3775 185.807
L63.2947 173.294
L64.212 182.427
L65.1293 181.121
L66.0465 165.406
L66.9638 184.651
L67.881 146.098
L68.7983 158.105
L69.7156 153.092
L70.6328 138.613
L71.5501 148.564
L72.4673 146.429
L73.3846 197.045
L74.3019 197.31
L75.2191 194.751
L76.1364 206.786
L77.0536 238.365
L77.9709 173.791
L78.8882 176.622
L79.8054 171.275
L80.7227 204.298
L81.6399 213.747
L82.5572 163.993
L83.4745 135.117
L84.3917 147.275
L85.309 138.746
L86.2262 183.464
L87.1435 179.988
L88.0608 170.054
L88.978 194.327
L89.8953 160.56
L90.8125 219.354
L91.7298 193.645
L92.6471 125.042
L93.5643 190.511
L94.4816 129.526
L95.3988 125.603
L96.3161 137.087
L97.2334 167.543
L98.1506 211.055
L99.0679 234.013
L99.9851 179.818
L100.902 143.53
L101.82 189.332
L102.737 150.061
L103.654 205.049
L104.571 167.711
L105.489 160.946
L106.406 184.063
L107.323 215.459
L108.24 213.165
L109.158 196.352
L110.075 183.193
L110.992 187.664
L111.91 208.467
L112.827 151.644
L113.744 155.786
L114.661 189.4
L115.579 129.161
L116.496 147.382
L117.413 180.639
L118.33 181.898
L119.248 176.363
L120.165 164.273
L121.082 195.53
L121.999 151.013
L122.917 181.915
L123.834 153.828
L124.751 179.037
L125.668 145.84
L127.503 196.876
L128.42 179.843
L129.337 176.233
L130.255 103.905
L131.172 170.489
L132.089 164.719
L133.007 108.832
L133.924 109.658
L134.841 163.119
L135.758 187.181
L136.676 143.744
L137.593 119.094
L138.51 202.884
L139.427 161.513
L140.345 149.408
L141.262 120.421
L142.179 151.518
L143.096 144.282
L144.014 128.869
L144.931 130.224
L145.848 181.523
L146.765 184.37
L147.683 196.359
L148.6 172.286
L149.517 132.183
L150.434 138.784
L151.352 148.982
L152.269 154.273
L153.186 164.098
L154.104 200.89
L155.021 205.201
L155.938 132.418
L156.855 200.154
L157.773 141.431
L160.524 169.11
L161.442 184.628
L163.276 176.409
L164.193 162.023
L165.111 199.249
L166.028 204.727
L166.945 208.282
L167.862 185.248
L168.78 152.071
L169.697 150.697
L170.614 187.279
L171.531 149.266
L172.449 135.333
L173.366 152.19
L174.283 185.226
L175.2 204.853
L176.118 146.667
L177.035 183.681
L177.952 169.965
L178.87 164.916
L179.787 163.69
L180.704 182.828
L181.621 139.25
L182.539 128.616
L183.456 152.169
L184.373 129.468
L185.29 201.702
L186.208 188.511
L187.125 145.833
L188.042 153.245
L188.959 151.131
L189.877 155.615
L190.794 143.67
L191.711 137.203
L192.628 132.831
L193.546 135.621
L194.463 153.16
L195.38 183.832
L196.297 161.258
L197.215 142.92
L198.132 140.33
L199.049 147.957
L199.967 150.589
L200.884 154.069
L201.801 152.286
L202.718 181.233
L203.636 156.948
L204.553 128.167
L205.47 150.527
L207.305 158.171
L208.222 160.486
L209.139 173.656
L210.056 136.157
M215.56 136.553
L216.477 149.744
L217.394 140.571
L218.312 150.787
L219.229 156.387
L220.146 163.145
L221.064 150.846
L221.981 144.932
L222.898 145.759
L223.815 165.169
L224.733 172.571
L225.65 168.302
L226.567 162.99
L227.484 159.058
L228.402 178.166
L229.319 157.765
L230.236 159.006
L231.153 162.494
L232.071 157.523
L232.988 150.791
L233.905 151.438
L234.822 145.843
L235.74 150.744
L236.657 163.543
L237.574 160.734
L238.491 147.84
L239.409 147.876
L241.243 152.776
L242.16 144.954
L243.078 155.094
L243.995 162.532
L244.912 158.667
L245.83 159.545
L246.747 153.211
L247.664 162.403
L248.581 164.694
L249.499 179.038
L250.416 167.441
L251.333 168.395
L252.25 156.514
L253.168 150.614
L254.085 146.482
L255.002 147.359
L255.919 145.341
L256.837 149.889
L257.754 145.598
L258.671 157.544
L259.588 159.485
L260.506 161.112
L261.423 164.999
L262.34 159.523
L263.257 161.73
L264.175 164.564
L265.092 170
L266.009 169.057
L266.927 206.142
L267.844 186.223
L268.761 157.672
L269.678 149.867
L270.596 158.255
L271.513 158.791
L272.43 155.285
L273.347 158.055
L274.265 157.528
L275.182 158.88
L276.099 161.927
L277.016 162.641
L277.934 159.196
L278.851 179.438
L279.768 155.121
L280.685 163.334
L281.603 167.573
L282.52 164.12
L283.437 162.791
L284.354 208.951
L285.272 230.171
L286.189 243.705
L287.106 214.635
L288.024 170.646
L288.941 159.216
L289.858 188.106
L290.775 170.775
L291.693 149.927
L292.61 139.367
L293.527 164.825
L294.444 168.874
L295.362 200.095
L296.279 166.484
L297.196 141.721
L298.113 161.995
L299.031 153.851
L299.948 175.145
L300.865 180.849
L301.782 177.87
L302.7 190.064
L303.617 162.931
L304.534 148.771
L306.369 137.131
L307.286 156.889
L308.203 168.713
L309.12 192.405
L310.955 125.184
L311.872 145.441
L312.79 209.42
L313.707 224.846
L314.624 202.997
L315.541 190.507
L316.459 128.851
L317.376 138.412
L318.293 133.379
L319.21 110.101
L320.128 151.683
L321.045 172.045
L321.962 141.802
L322.879 171.115
L323.797 148.761
L324.714 217.744
L325.631 220.744
L326.548 198.338
L327.466 181.688
L328.383 181.775
L329.3 196.302
L330.217 157.213
L331.135 176.344
L332.052 178.055
L332.969 141.953
L333.887 146.707
L334.804 183.46
L335.721 207.494
L336.638 197.618
L337.556 155.376
L338.473 147.892
L339.39 145.547
L340.307 183.139
L341.225 175.879
L342.142 157.49
L343.059 172.107
L343.976 172.887
L344.894 174.581
L345.811 182.092
L346.728 184.766
L347.645 192.823
L348.563 197.258
L349.48 174.621
L350.397 182.874
L351.314 194.303
L352.232 197.064
L353.149 198.184
L354.066 191.885
L354.984 162.907
L355.901 167.445
L356.818 139.588
L357.735 138.117
L359.57 163.192
L360.487 164.288
L361.404 204.457
L362.322 219.135
L363.239 197.934
L364.156 227.109
L365.073 179.66
L365.073 179.66" style="fill:none;stroke:#bfbf00;stroke-linecap:square;"/>
   </g>
   <g id="line2d_14">
    <path clip-path="url(#p95a2ee5e18)" d="
M31.1906 187.422
L32.1079 201.103
L33.0251 193.309
L33.9424 193.677
L34.8597 192.979
L35.7769 208.483
M46.784 210.536
L47.7013 237.647
L48.6186 224.201
L49.5358 223.448
L50.4531 208.29
L51.3704 236.311
L52.2876 210.009
L53.2049 214.293
L54.1221 226.332
L55.0394 193.183
L55.9567 188.717
L56.8739 180.363
L57.7912 199.194
L58.7084 182.568
L59.6257 215.44
L60.543 194.844
L61.4602 189.524
L62.3775 181.716
L63.2947 184.941
L64.212 177.134
L65.1293 167.52
L66.0465 199.966
L66.9638 226.66
L67.881 216.574
L68.7983 232.659
L69.7156 217.643
L70.6328 190.598
L71.5501 198.943
L72.4673 205.178
L73.3846 180.102
L74.3019 176.885
L75.2191 205.294
L76.1364 184.171
L77.0536 207.805
L77.9709 238.033
L78.8882 216.644
L79.8054 171.22
L80.7227 158.602
L81.6399 207.94
L82.5572 154.736
L83.4745 156.486
L84.3917 166.372
L85.309 197.948
L86.2262 217.86
L87.1435 184.862
L88.0608 194.593
L88.978 177.224
L89.8953 172.726
L90.8125 201.526
L91.7298 144.363
L92.6471 156.372
L94.4816 157.692
L95.3988 191.89
L96.3161 195.81
L97.2334 213.423
L98.1506 236.586
L99.0679 218.371
L99.9851 217.305
L100.902 212.812
L101.82 238.944
L102.737 173.246
L103.654 211.835
L105.489 161.184
L106.406 191.997
L107.323 179.118
L108.24 193.369
L109.158 213.957
L110.075 164.874
L110.992 207.518
L111.91 209.545
L112.827 227.485
L113.744 162.279
L114.661 146.686
L115.579 157.447
L116.496 148.412
L117.413 170.662
L118.33 159.778
L119.248 176.413
L120.165 140.798
L121.082 143.641
L121.999 165.491
L122.917 159.615
L123.834 199.879
L124.751 151.318
L125.668 178.748
L126.586 179.281
L127.503 146.839
L128.42 205.899
L129.337 183.532
L130.255 184.226
L131.172 193.01
L133.007 161.125
L133.924 160.32
L134.841 180.304
L135.758 179.955
L136.676 191.695
L137.593 240.472
L138.51 173.622
L139.427 175.766
L140.345 154.606
L141.262 205.697
L142.179 152.366
L143.096 178.408
L144.014 210.094
L144.931 206.676
L145.848 158.959
L146.765 142.055
L147.683 140.858
L148.6 146.453
L149.517 155.059
L150.434 130.768
L151.352 136.168
L152.269 138.679
L153.186 146.763
L154.104 158.971
L155.021 182.18
L155.938 166.095
L156.855 175.379
L157.773 149.822
L158.69 139.047
L159.607 157.832
L160.524 184.994
L161.442 190.013
L162.359 160.627
L163.276 161.846
L164.193 190.261
L165.111 227.632
L166.028 168.304
L166.945 149.578
L168.78 154.867
L169.697 166.806
L170.614 157.778
L171.531 176.384
L172.449 159.789
L173.366 177.514
L174.283 219.748
L175.2 144.954
L176.118 173.499
L177.035 169.587
L177.952 191.364
L178.87 158.652
L179.787 145.094
L180.704 165.779
L181.621 162.467
L182.539 142.003
L183.456 151.726
L184.373 155.264
L185.29 157.817
L186.208 158.767
L187.125 143.274
L188.042 148.804
L188.959 159.44
L189.877 160.689
L190.794 157.509
L191.711 160.789
L192.628 159.846
L193.546 159.501
L194.463 153.91
L195.38 153.674
L196.297 168.084
L197.215 161.457
L198.132 175.398
L199.049 168.29
L199.967 162.414
L200.884 158.223
L201.801 171.212
L202.718 172.55
L203.636 171.859
L204.553 183.491
L205.47 181.15
L206.387 177.599
L207.305 180.384
L208.222 180.489
L209.139 192.747
L210.056 197.02
L210.974 180.656
L211.891 186.534
L212.808 170.685
L213.725 170.433
L214.643 172.082
L215.56 170.964
L216.477 172.096
L218.312 176.442
L219.229 165.992
L220.146 174.256
L221.064 172.183
L221.981 178.806
L222.898 174.494
L223.815 173.717
L224.733 170.67
L225.65 168.817
L226.567 168.388
L227.484 165.544
M232.988 187.793
L233.905 177.088
L234.822 187.765
L235.74 173.268
L236.657 178.003
L237.574 180.131
L238.491 175.372
L239.409 172.684
L240.326 176.538
L242.16 174.37
L243.078 190.713
L243.995 181.41
L244.912 185.418
L245.83 175.874
L246.747 171.685
L247.664 158.912
L248.581 162.889
L249.499 179.732
L250.416 185.139
L251.333 171.851
L252.25 176.5
L253.168 170.771
L254.085 189.493
L255.002 175.463
L255.919 156.445
L256.837 160.813
L257.754 163.611
L258.671 170.323
L259.588 184.617
L260.506 169.292
L261.423 170.603
L262.34 182.388
L263.257 170.563
L264.175 172.795
L265.092 155.113
L266.009 162.666
L266.927 167.544
L268.761 172.161
L269.678 168.69
L270.596 170.036
L271.513 173.707
L272.43 180.236
L273.347 182.798
L274.265 186.286
L275.182 213.863
L276.099 194.936
L277.016 191.694
L277.934 186.641
L278.851 178.131
L279.768 184.564
L280.685 178.86
L281.603 179.11
L282.52 173.751
L283.437 172.528
L284.354 157.183
L285.272 155.432
L286.189 152.324
L287.106 152.243
L288.024 155.303
L288.941 152.732
L290.775 171.059
L291.693 171.698
L292.61 170.137
L293.527 194.271
L294.444 189.247
L295.362 199.303
L296.279 196.867
L297.196 181.547
L298.113 173.013
L299.948 206.798
L300.865 178.628
L301.782 223.539
L302.7 221.34
L303.617 221.656
L304.534 231.028
L305.451 187.09
L306.369 205.084
L307.286 237.003
L308.203 201.592
L309.12 191.199
L310.038 183.834
L310.955 200.981
L311.872 194.025
L312.79 198.044
L313.707 197.967
L314.624 202.557
L315.541 199.398
L316.459 213.963
L317.376 212.232
L318.293 234.595
L319.21 198.632
L320.128 201.787
L321.045 208.51
L321.962 233.399
L322.879 233.175
L323.797 213.306
L324.714 213.882
L325.631 221.037
L326.548 218.983
L327.466 215.221
L328.383 205.34
L329.3 215.642
L330.217 198.774
L331.135 190.478
L332.052 220.716
L332.969 222.826
L333.887 205.299
L334.804 216.608
L335.721 217.041
L336.638 213.078
L337.556 222.629
L338.473 208.803
L339.39 221.787
L340.307 194.343
L341.225 219.369
M348.563 229.504
L349.48 232.816
L350.397 216.996
L351.314 211.462
L352.232 238.748
L353.149 197.114
L354.066 200.971
L354.984 191.885
L355.901 161.557
L356.818 167.543
L357.735 203.875
L358.653 229.188
L359.57 233.584
L360.487 195.438
L361.404 231.058
L362.322 227.5
L363.239 212.059
L364.156 218.558
L365.073 239.567
L365.073 239.567" style="fill:none;stroke:#000000;stroke-linecap:square;"/>
   </g>
   <g id="patch_3">
    <path d="
M365.991 244.518
L365.991 21.3181" style="fill:none;stroke:#000000;stroke-linecap:square;stroke-linejoin:miter;"/>
   </g>
   <g id="patch_4">
    <path d="
M31.1906 244.518
L365.991 244.518" style="fill:none;stroke:#000000;stroke-linecap:square;stroke-linejoin:miter;"/>
   </g>
   <g id="patch_5">
    <path d="
M31.1906 244.518
L31.1906 21.3181" style="fill:none;stroke:#000000;stroke-linecap:square;stroke-linejoin:miter;"/>
   </g>
   <g id="patch_6">
    <path d="
M31.1906 21.3181
L365.991 21.3181" style="fill:none;stroke:#000000;stroke-linecap:square;stroke-linejoin:miter;"/>
   </g>
   <g id="matplotlib.axis_1">
    <g id="xtick_1">
     <g id="line2d_15">
      <defs>
       <path d="
M0 0
L0 -4" id="mc7db9fdffb" style="stroke:#000000;stroke-width:0.5;"/>
      </defs>
      <g>
       <use style="stroke:#000000;stroke-width:0.5;" x="31.190625" xlink:href="#mc7db9fdffb" y="244.518125"/>
      </g>
     </g>
     <g id="line2d_16">
      <defs>
       <path d="
M0 0
L0 4" id="m5a7d422ac3" style="stroke:#000000;stroke-width:0.5;"/>
      </defs>
      <g>
       <use style="stroke:#000000;stroke-width:0.5;" x="31.190625" xlink:href="#m5a7d422ac3" y="21.318125"/>
      </g>
     </g>
     <g id="text_1">
      <!-- 0 -->
      <defs>
       <path d="
M31.7812 66.4062
Q24.1719 66.4062 20.3281 58.9062
Q16.5 51.4219 16.5 36.375
Q16.5 21.3906 20.3281 13.8906
Q24.1719 6.39062 31.7812 6.39062
Q39.4531 6.39062 43.2812 13.8906
Q47.125 21.3906 47.125 36.375
Q47.125 51.4219 43.2812 58.9062
Q39.4531 66.4062 31.7812 66.4062
M31.7812 74.2188
Q44.0469 74.2188 50.5156 64.5156
Q56.9844 54.8281 56.9844 36.375
Q56.9844 17.9688 50.5156 8.26562
Q44.0469 -1.42188 31.7812 -1.42188
Q19.5312 -1.42188 13.0625 8.26562
Q6.59375 17.9688 6.59375 36.375
Q6.59375 54.8281 13.0625 64.5156
Q19.5312 74.2188 31.7812 74.2188" id="BitstreamVeraSans-Roman-30"/>
      </defs>
      <g transform="translate(28.67109375 256.1165625)scale(0.1 -0.1)">
       <use xlink:href="#BitstreamVeraSans-Roman-30"/>
      </g>
     </g>
    </g>
    <g id="xtick_2">
     <g id="line2d_17">
      <g>
       <use style="stroke:#000000;stroke-width:0.5;" x="77.0536386986" xlink:href="#mc7db9fdffb" y="244.518125"/>
      </g>
     </g>
     <g id="line2d_18">
      <g>
       <use style="stroke:#000000;stroke-width:0.5;" x="77.0536386986" xlink:href="#m5a7d422ac3" y="21.318125"/>
      </g>
     </g>
     <g id="text_2">
      <!-- 50 -->
      <defs>
       <path d="
M10.7969 72.9062
L49.5156 72.9062
L49.5156 64.5938
L19.8281 64.5938
L19.8281 46.7344
Q21.9688 47.4688 24.1094 47.8281
Q26.2656 48.1875 28.4219 48.1875
Q40.625 48.1875 47.75 41.5
Q54.8906 34.8125 54.8906 23.3906
Q54.8906 11.625 47.5625 5.09375
Q40.2344 -1.42188 26.9062 -1.42188
Q22.3125 -1.42188 17.5469 -0.640625
Q12.7969 0.140625 7.71875 1.70312
L7.71875 11.625
Q12.1094 9.23438 16.7969 8.0625
Q21.4844 6.89062 26.7031 6.89062
Q35.1562 6.89062 40.0781 11.3281
Q45.0156 15.7656 45.0156 23.3906
Q45.0156 31 40.0781 35.4375
Q35.1562 39.8906 26.7031 39.8906
Q22.75 39.8906 18.8125 39.0156
Q14.8906 38.1406 10.7969 36.2812
z
" id="BitstreamVeraSans-Roman-35"/>
      </defs>
      <g transform="translate(71.4091074486 256.1165625)scale(0.1 -0.1)">
       <use xlink:href="#BitstreamVeraSans-Roman-35"/>
       <use x="63.623046875" xlink:href="#BitstreamVeraSans-Roman-30"/>
      </g>
     </g>
    </g>
    <g id="xtick_3">
     <g id="line2d_19">
      <g>
       <use style="stroke:#000000;stroke-width:0.5;" x="122.916652397" xlink:href="#mc7db9fdffb" y="244.518125"/>
      </g>
     </g>
     <g id="line2d_20">
      <g>
       <use style="stroke:#000000;stroke-width:0.5;" x="122.916652397" xlink:href="#m5a7d422ac3" y="21.318125"/>
      </g>
     </g>
     <g id="text_3">
      <!-- 100 -->
      <defs>
       <path d="
M12.4062 8.29688
L28.5156 8.29688
L28.5156 63.9219
L10.9844 60.4062
L10.9844 69.3906
L28.4219 72.9062
L38.2812 72.9062
L38.2812 8.29688
L54.3906 8.29688
L54.3906 0
L12.4062 0
z
" id="BitstreamVeraSans-Roman-31"/>
      </defs>
      <g transform="translate(114.254152397 256.1165625)scale(0.1 -0.1)">
       <use xlink:href="#BitstreamVeraSans-Roman-31"/>
       <use x="63.623046875" xlink:href="#BitstreamVeraSans-Roman-30"/>
       <use x="127.24609375" xlink:href="#BitstreamVeraSans-Roman-30"/>
      </g>
     </g>
    </g>
    <g id="xtick_4">
     <g id="line2d_21">
      <g>
       <use style="stroke:#000000;stroke-width:0.5;" x="168.779666096" xlink:href="#mc7db9fdffb" y="244.518125"/>
      </g>
     </g>
     <g id="line2d_22">
      <g>
       <use style="stroke:#000000;stroke-width:0.5;" x="168.779666096" xlink:href="#m5a7d422ac3" y="21.318125"/>
      </g>
     </g>
     <g id="text_4">
      <!-- 150 -->
      <g transform="translate(160.117166096 256.1165625)scale(0.1 -0.1)">
       <use xlink:href="#BitstreamVeraSans-Roman-31"/>
       <use x="63.623046875" xlink:href="#BitstreamVeraSans-Roman-35"/>
       <use x="127.24609375" xlink:href="#BitstreamVeraSans-Roman-30"/>
      </g>
     </g>
    </g>
    <g id="xtick_5">
     <g id="line2d_23">
      <g>
       <use style="stroke:#000000;stroke-width:0.5;" x="214.642679795" xlink:href="#mc7db9fdffb" y="244.518125"/>
      </g>
     </g>
     <g id="line2d_24">
      <g>
       <use style="stroke:#000000;stroke-width:0.5;" x="214.642679795" xlink:href="#m5a7d422ac3" y="21.318125"/>
      </g>
     </g>
     <g id="text_5">
      <!-- 200 -->
      <defs>
       <path d="
M19.1875 8.29688
L53.6094 8.29688
L53.6094 0
L7.32812 0
L7.32812 8.29688
Q12.9375 14.1094 22.625 23.8906
Q32.3281 33.6875 34.8125 36.5312
Q39.5469 41.8438 41.4219 45.5312
Q43.3125 49.2188 43.3125 52.7812
Q43.3125 58.5938 39.2344 62.25
Q35.1562 65.9219 28.6094 65.9219
Q23.9688 65.9219 18.8125 64.3125
Q13.6719 62.7031 7.8125 59.4219
L7.8125 69.3906
Q13.7656 71.7812 18.9375 73
Q24.125 74.2188 28.4219 74.2188
Q39.75 74.2188 46.4844 68.5469
Q53.2188 62.8906 53.2188 53.4219
Q53.2188 48.9219 51.5312 44.8906
Q49.8594 40.875 45.4062 35.4062
Q44.1875 33.9844 37.6406 27.2188
Q31.1094 20.4531 19.1875 8.29688" id="BitstreamVeraSans-Roman-32"/>
      </defs>
      <g transform="translate(205.797367295 256.1165625)scale(0.1 -0.1)">
       <use xlink:href="#BitstreamVeraSans-Roman-32"/>
       <use x="63.623046875" xlink:href="#BitstreamVeraSans-Roman-30"/>
       <use x="127.24609375" xlink:href="#BitstreamVeraSans-Roman-30"/>
      </g>
     </g>
    </g>
    <g id="xtick_6">
     <g id="line2d_25">
      <g>
       <use style="stroke:#000000;stroke-width:0.5;" x="260.505693493" xlink:href="#mc7db9fdffb" y="244.518125"/>
      </g>
     </g>
     <g id="line2d_26">
      <g>
       <use style="stroke:#000000;stroke-width:0.5;" x="260.505693493" xlink:href="#m5a7d422ac3" y="21.318125"/>
      </g>
     </g>
     <g id="text_6">
      <!-- 250 -->
      <g transform="translate(251.660380993 256.1165625)scale(0.1 -0.1)">
       <use xlink:href="#BitstreamVeraSans-Roman-32"/>
       <use x="63.623046875" xlink:href="#BitstreamVeraSans-Roman-35"/>
       <use x="127.24609375" xlink:href="#BitstreamVeraSans-Roman-30"/>
      </g>
     </g>
    </g>
    <g id="xtick_7">
     <g id="line2d_27">
      <g>
       <use style="stroke:#000000;stroke-width:0.5;" x="306.368707192" xlink:href="#mc7db9fdffb" y="244.518125"/>
      </g>
     </g>
     <g id="line2d_28">
      <g>
       <use style="stroke:#000000;stroke-width:0.5;" x="306.368707192" xlink:href="#m5a7d422ac3" y="21.318125"/>
      </g>
     </g>
     <g id="text_7">
      <!-- 300 -->
      <defs>
       <path d="
M40.5781 39.3125
Q47.6562 37.7969 51.625 33
Q55.6094 28.2188 55.6094 21.1875
Q55.6094 10.4062 48.1875 4.48438
Q40.7656 -1.42188 27.0938 -1.42188
Q22.5156 -1.42188 17.6562 -0.515625
Q12.7969 0.390625 7.625 2.20312
L7.625 11.7188
Q11.7188 9.32812 16.5938 8.10938
Q21.4844 6.89062 26.8125 6.89062
Q36.0781 6.89062 40.9375 10.5469
Q45.7969 14.2031 45.7969 21.1875
Q45.7969 27.6406 41.2812 31.2656
Q36.7656 34.9062 28.7188 34.9062
L20.2188 34.9062
L20.2188 43.0156
L29.1094 43.0156
Q36.375 43.0156 40.2344 45.9219
Q44.0938 48.8281 44.0938 54.2969
Q44.0938 59.9062 40.1094 62.9062
Q36.1406 65.9219 28.7188 65.9219
Q24.6562 65.9219 20.0156 65.0312
Q15.375 64.1562 9.8125 62.3125
L9.8125 71.0938
Q15.4375 72.6562 20.3438 73.4375
Q25.25 74.2188 29.5938 74.2188
Q40.8281 74.2188 47.3594 69.1094
Q53.9062 64.0156 53.9062 55.3281
Q53.9062 49.2656 50.4375 45.0938
Q46.9688 40.9219 40.5781 39.3125" id="BitstreamVeraSans-Roman-33"/>
      </defs>
      <g transform="translate(297.538238442 256.1165625)scale(0.1 -0.1)">
       <use xlink:href="#BitstreamVeraSans-Roman-33"/>
       <use x="63.623046875" xlink:href="#BitstreamVeraSans-Roman-30"/>
       <use x="127.24609375" xlink:href="#BitstreamVeraSans-Roman-30"/>
      </g>
     </g>
    </g>
    <g id="xtick_8">
     <g id="line2d_29">
      <g>
       <use style="stroke:#000000;stroke-width:0.5;" x="352.23172089" xlink:href="#mc7db9fdffb" y="244.518125"/>
      </g>
     </g>
     <g id="line2d_30">
      <g>
       <use style="stroke:#000000;stroke-width:0.5;" x="352.23172089" xlink:href="#m5a7d422ac3" y="21.318125"/>
      </g>
     </g>
     <g id="text_8">
      <!-- 350 -->
      <g transform="translate(343.40125214 256.1165625)scale(0.1 -0.1)">
       <use xlink:href="#BitstreamVeraSans-Roman-33"/>
       <use x="63.623046875" xlink:href="#BitstreamVeraSans-Roman-35"/>
       <use x="127.24609375" xlink:href="#BitstreamVeraSans-Roman-30"/>
      </g>
     </g>
    </g>
    <g id="text_9">
     <!-- Julian day -->
     <defs>
      <path d="
M9.8125 72.9062
L19.6719 72.9062
L19.6719 5.07812
Q19.6719 -8.10938 14.6719 -14.0625
Q9.67188 -20.0156 -1.42188 -20.0156
L-5.17188 -20.0156
L-5.17188 -11.7188
L-2.09375 -11.7188
Q4.4375 -11.7188 7.125 -8.04688
Q9.8125 -4.39062 9.8125 5.07812
z
" id="BitstreamVeraSans-Roman-4a"/>
      <path d="
M45.4062 46.3906
L45.4062 75.9844
L54.3906 75.9844
L54.3906 0
L45.4062 0
L45.4062 8.20312
Q42.5781 3.32812 38.25 0.953125
Q33.9375 -1.42188 27.875 -1.42188
Q17.9688 -1.42188 11.7344 6.48438
Q5.51562 14.4062 5.51562 27.2969
Q5.51562 40.1875 11.7344 48.0938
Q17.9688 56 27.875 56
Q33.9375 56 38.25 53.625
Q42.5781 51.2656 45.4062 46.3906
M14.7969 27.2969
Q14.7969 17.3906 18.875 11.75
Q22.9531 6.10938 30.0781 6.10938
Q37.2031 6.10938 41.2969 11.75
Q45.4062 17.3906 45.4062 27.2969
Q45.4062 37.2031 41.2969 42.8438
Q37.2031 48.4844 30.0781 48.4844
Q22.9531 48.4844 18.875 42.8438
Q14.7969 37.2031 14.7969 27.2969" id="BitstreamVeraSans-Roman-64"/>
      <path d="
M54.8906 33.0156
L54.8906 0
L45.9062 0
L45.9062 32.7188
Q45.9062 40.4844 42.875 44.3281
Q39.8438 48.1875 33.7969 48.1875
Q26.5156 48.1875 22.3125 43.5469
Q18.1094 38.9219 18.1094 30.9062
L18.1094 0
L9.07812 0
L9.07812 54.6875
L18.1094 54.6875
L18.1094 46.1875
Q21.3438 51.125 25.7031 53.5625
Q30.0781 56 35.7969 56
Q45.2188 56 50.0469 50.1719
Q54.8906 44.3438 54.8906 33.0156" id="BitstreamVeraSans-Roman-6e"/>
      <path d="
M34.2812 27.4844
Q23.3906 27.4844 19.1875 25
Q14.9844 22.5156 14.9844 16.5
Q14.9844 11.7188 18.1406 8.90625
Q21.2969 6.10938 26.7031 6.10938
Q34.1875 6.10938 38.7031 11.4062
Q43.2188 16.7031 43.2188 25.4844
L43.2188 27.4844
z

M52.2031 31.2031
L52.2031 0
L43.2188 0
L43.2188 8.29688
Q40.1406 3.32812 35.5469 0.953125
Q30.9531 -1.42188 24.3125 -1.42188
Q15.9219 -1.42188 10.9531 3.29688
Q6 8.01562 6 15.9219
Q6 25.1406 12.1719 29.8281
Q18.3594 34.5156 30.6094 34.5156
L43.2188 34.5156
L43.2188 35.4062
Q43.2188 41.6094 39.1406 45
Q35.0625 48.3906 27.6875 48.3906
Q23 48.3906 18.5469 47.2656
Q14.1094 46.1406 10.0156 43.8906
L10.0156 52.2031
Q14.9375 54.1094 19.5781 55.0469
Q24.2188 56 28.6094 56
Q40.4844 56 46.3438 49.8438
Q52.2031 43.7031 52.2031 31.2031" id="BitstreamVeraSans-Roman-61"/>
      <path d="
M8.5 21.5781
L8.5 54.6875
L17.4844 54.6875
L17.4844 21.9219
Q17.4844 14.1562 20.5 10.2656
Q23.5312 6.39062 29.5938 6.39062
Q36.8594 6.39062 41.0781 11.0312
Q45.3125 15.6719 45.3125 23.6875
L45.3125 54.6875
L54.2969 54.6875
L54.2969 0
L45.3125 0
L45.3125 8.40625
Q42.0469 3.42188 37.7188 1
Q33.4062 -1.42188 27.6875 -1.42188
Q18.2656 -1.42188 13.375 4.4375
Q8.5 10.2969 8.5 21.5781" id="BitstreamVeraSans-Roman-75"/>
      <path d="
M9.42188 54.6875
L18.4062 54.6875
L18.4062 0
L9.42188 0
z

M9.42188 75.9844
L18.4062 75.9844
L18.4062 64.5938
L9.42188 64.5938
z
" id="BitstreamVeraSans-Roman-69"/>
      <path d="
M32.1719 -5.07812
Q28.375 -14.8438 24.75 -17.8125
Q21.1406 -20.7969 15.0938 -20.7969
L7.90625 -20.7969
L7.90625 -13.2812
L13.1875 -13.2812
Q16.8906 -13.2812 18.9375 -11.5156
Q21 -9.76562 23.4844 -3.21875
L25.0938 0.875
L2.98438 54.6875
L12.5 54.6875
L29.5938 11.9219
L46.6875 54.6875
L56.2031 54.6875
z
" id="BitstreamVeraSans-Roman-79"/>
      <path id="BitstreamVeraSans-Roman-20"/>
      <path d="
M9.42188 75.9844
L18.4062 75.9844
L18.4062 0
L9.42188 0
z
" id="BitstreamVeraSans-Roman-6c"/>
     </defs>
     <g transform="translate(174.03984375 270.7946875)scale(0.1 -0.1)">
      <use xlink:href="#BitstreamVeraSans-Roman-4a"/>
      <use x="29.4921875" xlink:href="#BitstreamVeraSans-Roman-75"/>
      <use x="92.87109375" xlink:href="#BitstreamVeraSans-Roman-6c"/>
      <use x="120.654296875" xlink:href="#BitstreamVeraSans-Roman-69"/>
      <use x="148.4375" xlink:href="#BitstreamVeraSans-Roman-61"/>
      <use x="209.716796875" xlink:href="#BitstreamVeraSans-Roman-6e"/>
      <use x="273.095703125" xlink:href="#BitstreamVeraSans-Roman-20"/>
      <use x="304.8828125" xlink:href="#BitstreamVeraSans-Roman-64"/>
      <use x="368.359375" xlink:href="#BitstreamVeraSans-Roman-61"/>
      <use x="429.638671875" xlink:href="#BitstreamVeraSans-Roman-79"/>
     </g>
    </g>
   </g>
   <g id="matplotlib.axis_2">
    <g id="ytick_1">
     <g id="line2d_31">
      <defs>
       <path d="
M0 0
L4 0" id="md7965d1ba0" style="stroke:#000000;stroke-width:0.5;"/>
      </defs>
      <g>
       <use style="stroke:#000000;stroke-width:0.5;" x="31.190625" xlink:href="#md7965d1ba0" y="244.518125"/>
      </g>
     </g>
     <g id="line2d_32">
      <defs>
       <path d="
M0 0
L-4 0" id="md9a1c1a7cd" style="stroke:#000000;stroke-width:0.5;"/>
      </defs>
      <g>
       <use style="stroke:#000000;stroke-width:0.5;" x="365.990625" xlink:href="#md9a1c1a7cd" y="244.518125"/>
      </g>
     </g>
     <g id="text_10">
      <!-- 0 -->
      <g transform="translate(22.1515625 247.2775)scale(0.1 -0.1)">
       <use xlink:href="#BitstreamVeraSans-Roman-30"/>
      </g>
     </g>
    </g>
    <g id="ytick_2">
     <g id="line2d_33">
      <g>
       <use style="stroke:#000000;stroke-width:0.5;" x="31.190625" xlink:href="#md7965d1ba0" y="212.632410714"/>
      </g>
     </g>
     <g id="line2d_34">
      <g>
       <use style="stroke:#000000;stroke-width:0.5;" x="365.990625" xlink:href="#md9a1c1a7cd" y="212.632410714"/>
      </g>
     </g>
     <g id="text_11">
      <!-- 1 -->
      <g transform="translate(22.85 215.391785714)scale(0.1 -0.1)">
       <use xlink:href="#BitstreamVeraSans-Roman-31"/>
      </g>
     </g>
    </g>
    <g id="ytick_3">
     <g id="line2d_35">
      <g>
       <use style="stroke:#000000;stroke-width:0.5;" x="31.190625" xlink:href="#md7965d1ba0" y="180.746696429"/>
      </g>
     </g>
     <g id="line2d_36">
      <g>
       <use style="stroke:#000000;stroke-width:0.5;" x="365.990625" xlink:href="#md9a1c1a7cd" y="180.746696429"/>
      </g>
     </g>
     <g id="text_12">
      <!-- 2 -->
      <g transform="translate(22.5625 183.506071429)scale(0.1 -0.1)">
       <use xlink:href="#BitstreamVeraSans-Roman-32"/>
      </g>
     </g>
    </g>
    <g id="ytick_4">
     <g id="line2d_37">
      <g>
       <use style="stroke:#000000;stroke-width:0.5;" x="31.190625" xlink:href="#md7965d1ba0" y="148.860982143"/>
      </g>
     </g>
     <g id="line2d_38">
      <g>
       <use style="stroke:#000000;stroke-width:0.5;" x="365.990625" xlink:href="#md9a1c1a7cd" y="148.860982143"/>
      </g>
     </g>
     <g id="text_13">
      <!-- 3 -->
      <g transform="translate(22.3921875 151.620357143)scale(0.1 -0.1)">
       <use xlink:href="#BitstreamVeraSans-Roman-33"/>
      </g>
     </g>
    </g>
    <g id="ytick_5">
     <g id="line2d_39">
      <g>
       <use style="stroke:#000000;stroke-width:0.5;" x="31.190625" xlink:href="#md7965d1ba0" y="116.975267857"/>
      </g>
     </g>
     <g id="line2d_40">
      <g>
       <use style="stroke:#000000;stroke-width:0.5;" x="365.990625" xlink:href="#md9a1c1a7cd" y="116.975267857"/>
      </g>
     </g>
     <g id="text_14">
      <!-- 4 -->
      <defs>
       <path d="
M37.7969 64.3125
L12.8906 25.3906
L37.7969 25.3906
z

M35.2031 72.9062
L47.6094 72.9062
L47.6094 25.3906
L58.0156 25.3906
L58.0156 17.1875
L47.6094 17.1875
L47.6094 0
L37.7969 0
L37.7969 17.1875
L4.89062 17.1875
L4.89062 26.7031
z
" id="BitstreamVeraSans-Roman-34"/>
      </defs>
      <g transform="translate(21.878125 119.734642857)scale(0.1 -0.1)">
       <use xlink:href="#BitstreamVeraSans-Roman-34"/>
      </g>
     </g>
    </g>
    <g id="ytick_6">
     <g id="line2d_41">
      <g>
       <use style="stroke:#000000;stroke-width:0.5;" x="31.190625" xlink:href="#md7965d1ba0" y="85.0895535714"/>
      </g>
     </g>
     <g id="line2d_42">
      <g>
       <use style="stroke:#000000;stroke-width:0.5;" x="365.990625" xlink:href="#md9a1c1a7cd" y="85.0895535714"/>
      </g>
     </g>
     <g id="text_15">
      <!-- 5 -->
      <g transform="translate(22.4734375 87.8489285714)scale(0.1 -0.1)">
       <use xlink:href="#BitstreamVeraSans-Roman-35"/>
      </g>
     </g>
    </g>
    <g id="ytick_7">
     <g id="line2d_43">
      <g>
       <use style="stroke:#000000;stroke-width:0.5;" x="31.190625" xlink:href="#md7965d1ba0" y="53.2038392857"/>
      </g>
     </g>
     <g id="line2d_44">
      <g>
       <use style="stroke:#000000;stroke-width:0.5;" x="365.990625" xlink:href="#md9a1c1a7cd" y="53.2038392857"/>
      </g>
     </g>
     <g id="text_16">
      <!-- 6 -->
      <defs>
       <path d="
M33.0156 40.375
Q26.375 40.375 22.4844 35.8281
Q18.6094 31.2969 18.6094 23.3906
Q18.6094 15.5312 22.4844 10.9531
Q26.375 6.39062 33.0156 6.39062
Q39.6562 6.39062 43.5312 10.9531
Q47.4062 15.5312 47.4062 23.3906
Q47.4062 31.2969 43.5312 35.8281
Q39.6562 40.375 33.0156 40.375
M52.5938 71.2969
L52.5938 62.3125
Q48.875 64.0625 45.0938 64.9844
Q41.3125 65.9219 37.5938 65.9219
Q27.8281 65.9219 22.6719 59.3281
Q17.5312 52.7344 16.7969 39.4062
Q19.6719 43.6562 24.0156 45.9219
Q28.375 48.1875 33.5938 48.1875
Q44.5781 48.1875 50.9531 41.5156
Q57.3281 34.8594 57.3281 23.3906
Q57.3281 12.1562 50.6875 5.35938
Q44.0469 -1.42188 33.0156 -1.42188
Q20.3594 -1.42188 13.6719 8.26562
Q6.98438 17.9688 6.98438 36.375
Q6.98438 53.6562 15.1875 63.9375
Q23.3906 74.2188 37.2031 74.2188
Q40.9219 74.2188 44.7031 73.4844
Q48.4844 72.75 52.5938 71.2969" id="BitstreamVeraSans-Roman-36"/>
      </defs>
      <g transform="translate(22.15625 55.9632142857)scale(0.1 -0.1)">
       <use xlink:href="#BitstreamVeraSans-Roman-36"/>
      </g>
     </g>
    </g>
    <g id="ytick_8">
     <g id="line2d_45">
      <g>
       <use style="stroke:#000000;stroke-width:0.5;" x="31.190625" xlink:href="#md7965d1ba0" y="21.318125"/>
      </g>
     </g>
     <g id="line2d_46">
      <g>
       <use style="stroke:#000000;stroke-width:0.5;" x="365.990625" xlink:href="#md9a1c1a7cd" y="21.318125"/>
      </g>
     </g>
     <g id="text_17">
      <!-- 7 -->
      <defs>
       <path d="
M8.20312 72.9062
L55.0781 72.9062
L55.0781 68.7031
L28.6094 0
L18.3125 0
L43.2188 64.5938
L8.20312 64.5938
z
" id="BitstreamVeraSans-Roman-37"/>
      </defs>
      <g transform="translate(22.503125 24.0775)scale(0.1 -0.1)">
       <use xlink:href="#BitstreamVeraSans-Roman-37"/>
      </g>
     </g>
    </g>
    <g id="text_18">
     <!-- PET (mm/day) -->
     <defs>
      <path d="
M25.3906 72.9062
L33.6875 72.9062
L8.29688 -9.28125
L0 -9.28125
z
" id="BitstreamVeraSans-Roman-2f"/>
      <path d="
M8.01562 75.875
L15.8281 75.875
Q23.1406 64.3594 26.7812 53.3125
Q30.4219 42.2812 30.4219 31.3906
Q30.4219 20.4531 26.7812 9.375
Q23.1406 -1.70312 15.8281 -13.1875
L8.01562 -13.1875
Q14.5 -2 17.7031 9.0625
Q20.9062 20.125 20.9062 31.3906
Q20.9062 42.6719 17.7031 53.6562
Q14.5 64.6562 8.01562 75.875" id="BitstreamVeraSans-Roman-29"/>
      <path d="
M9.8125 72.9062
L55.9062 72.9062
L55.9062 64.5938
L19.6719 64.5938
L19.6719 43.0156
L54.3906 43.0156
L54.3906 34.7188
L19.6719 34.7188
L19.6719 8.29688
L56.7812 8.29688
L56.7812 0
L9.8125 0
z
" id="BitstreamVeraSans-Roman-45"/>
      <path d="
M31 75.875
Q24.4688 64.6562 21.2812 53.6562
Q18.1094 42.6719 18.1094 31.3906
Q18.1094 20.125 21.3125 9.0625
Q24.5156 -2 31 -13.1875
L23.1875 -13.1875
Q15.875 -1.70312 12.2344 9.375
Q8.59375 20.4531 8.59375 31.3906
Q8.59375 42.2812 12.2031 53.3125
Q15.8281 64.3594 23.1875 75.875
z
" id="BitstreamVeraSans-Roman-28"/>
      <path d="
M-0.296875 72.9062
L61.375 72.9062
L61.375 64.5938
L35.5 64.5938
L35.5 0
L25.5938 0
L25.5938 64.5938
L-0.296875 64.5938
z
" id="BitstreamVeraSans-Roman-54"/>
      <path d="
M52 44.1875
Q55.375 50.25 60.0625 53.125
Q64.75 56 71.0938 56
Q79.6406 56 84.2812 50.0156
Q88.9219 44.0469 88.9219 33.0156
L88.9219 0
L79.8906 0
L79.8906 32.7188
Q79.8906 40.5781 77.0938 44.375
Q74.3125 48.1875 68.6094 48.1875
Q61.625 48.1875 57.5625 43.5469
Q53.5156 38.9219 53.5156 30.9062
L53.5156 0
L44.4844 0
L44.4844 32.7188
Q44.4844 40.625 41.7031 44.4062
Q38.9219 48.1875 33.1094 48.1875
Q26.2188 48.1875 22.1562 43.5312
Q18.1094 38.875 18.1094 30.9062
L18.1094 0
L9.07812 0
L9.07812 54.6875
L18.1094 54.6875
L18.1094 46.1875
Q21.1875 51.2188 25.4844 53.6094
Q29.7812 56 35.6875 56
Q41.6562 56 45.8281 52.9688
Q50 49.9531 52 44.1875" id="BitstreamVeraSans-Roman-6d"/>
      <path d="
M19.6719 64.7969
L19.6719 37.4062
L32.0781 37.4062
Q38.9688 37.4062 42.7188 40.9688
Q46.4844 44.5312 46.4844 51.125
Q46.4844 57.6719 42.7188 61.2344
Q38.9688 64.7969 32.0781 64.7969
z

M9.8125 72.9062
L32.0781 72.9062
Q44.3438 72.9062 50.6094 67.3594
Q56.8906 61.8125 56.8906 51.125
Q56.8906 40.3281 50.6094 34.8125
Q44.3438 29.2969 32.0781 29.2969
L19.6719 29.2969
L19.6719 0
L9.8125 0
z
" id="BitstreamVeraSans-Roman-50"/>
     </defs>
     <g transform="translate(14.7984375 167.82984375)rotate(-90.0)scale(0.1 -0.1)">
      <use xlink:href="#BitstreamVeraSans-Roman-50"/>
      <use x="60.302734375" xlink:href="#BitstreamVeraSans-Roman-45"/>
      <use x="123.486328125" xlink:href="#BitstreamVeraSans-Roman-54"/>
      <use x="184.5703125" xlink:href="#BitstreamVeraSans-Roman-20"/>
      <use x="216.357421875" xlink:href="#BitstreamVeraSans-Roman-28"/>
      <use x="255.37109375" xlink:href="#BitstreamVeraSans-Roman-6d"/>
      <use x="352.783203125" xlink:href="#BitstreamVeraSans-Roman-6d"/>
      <use x="450.1953125" xlink:href="#BitstreamVeraSans-Roman-2f"/>
      <use x="483.88671875" xlink:href="#BitstreamVeraSans-Roman-64"/>
      <use x="547.36328125" xlink:href="#BitstreamVeraSans-Roman-61"/>
      <use x="608.642578125" xlink:href="#BitstreamVeraSans-Roman-79"/>
      <use x="667.822265625" xlink:href="#BitstreamVeraSans-Roman-29"/>
     </g>
    </g>
   </g>
   <g id="text_19">
    <!-- daily tree PET at LowerWeather -->
    <defs>
     <path d="
M54.8906 33.0156
L54.8906 0
L45.9062 0
L45.9062 32.7188
Q45.9062 40.4844 42.875 44.3281
Q39.8438 48.1875 33.7969 48.1875
Q26.5156 48.1875 22.3125 43.5469
Q18.1094 38.9219 18.1094 30.9062
L18.1094 0
L9.07812 0
L9.07812 75.9844
L18.1094 75.9844
L18.1094 46.1875
Q21.3438 51.125 25.7031 53.5625
Q30.0781 56 35.7969 56
Q45.2188 56 50.0469 50.1719
Q54.8906 44.3438 54.8906 33.0156" id="BitstreamVeraSans-Roman-68"/>
     <path d="
M41.1094 46.2969
Q39.5938 47.1719 37.8125 47.5781
Q36.0312 48 33.8906 48
Q26.2656 48 22.1875 43.0469
Q18.1094 38.0938 18.1094 28.8125
L18.1094 0
L9.07812 0
L9.07812 54.6875
L18.1094 54.6875
L18.1094 46.1875
Q20.9531 51.1719 25.4844 53.5781
Q30.0312 56 36.5312 56
Q37.4531 56 38.5781 55.875
Q39.7031 55.7656 41.0625 55.5156
z
" id="BitstreamVeraSans-Roman-72"/>
     <path d="
M18.3125 70.2188
L18.3125 54.6875
L36.8125 54.6875
L36.8125 47.7031
L18.3125 47.7031
L18.3125 18.0156
Q18.3125 11.3281 20.1406 9.42188
Q21.9688 7.51562 27.5938 7.51562
L36.8125 7.51562
L36.8125 0
L27.5938 0
Q17.1875 0 13.2344 3.875
Q9.28125 7.76562 9.28125 18.0156
L9.28125 47.7031
L2.6875 47.7031
L2.6875 54.6875
L9.28125 54.6875
L9.28125 70.2188
z
" id="BitstreamVeraSans-Roman-74"/>
     <path d="
M30.6094 48.3906
Q23.3906 48.3906 19.1875 42.75
Q14.9844 37.1094 14.9844 27.2969
Q14.9844 17.4844 19.1562 11.8438
Q23.3438 6.20312 30.6094 6.20312
Q37.7969 6.20312 41.9844 11.8594
Q46.1875 17.5312 46.1875 27.2969
Q46.1875 37.0156 41.9844 42.7031
Q37.7969 48.3906 30.6094 48.3906
M30.6094 56
Q42.3281 56 49.0156 48.375
Q55.7188 40.7656 55.7188 27.2969
Q55.7188 13.875 49.0156 6.21875
Q42.3281 -1.42188 30.6094 -1.42188
Q18.8438 -1.42188 12.1719 6.21875
Q5.51562 13.875 5.51562 27.2969
Q5.51562 40.7656 12.1719 48.375
Q18.8438 56 30.6094 56" id="BitstreamVeraSans-Roman-6f"/>
     <path d="
M56.2031 29.5938
L56.2031 25.2031
L14.8906 25.2031
Q15.4844 15.9219 20.4844 11.0625
Q25.4844 6.20312 34.4219 6.20312
Q39.5938 6.20312 44.4531 7.46875
Q49.3125 8.73438 54.1094 11.2812
L54.1094 2.78125
Q49.2656 0.734375 44.1875 -0.34375
Q39.1094 -1.42188 33.8906 -1.42188
Q20.7969 -1.42188 13.1562 6.1875
Q5.51562 13.8125 5.51562 26.8125
Q5.51562 40.2344 12.7656 48.1094
Q20.0156 56 32.3281 56
Q43.3594 56 49.7812 48.8906
Q56.2031 41.7969 56.2031 29.5938
M47.2188 32.2344
Q47.125 39.5938 43.0938 43.9844
Q39.0625 48.3906 32.4219 48.3906
Q24.9062 48.3906 20.3906 44.1406
Q15.875 39.8906 15.1875 32.1719
z
" id="BitstreamVeraSans-Roman-65"/>
     <path d="
M3.32812 72.9062
L13.2812 72.9062
L28.6094 11.2812
L43.8906 72.9062
L54.9844 72.9062
L70.3125 11.2812
L85.5938 72.9062
L95.6094 72.9062
L77.2969 0
L64.8906 0
L49.5156 63.2812
L33.9844 0
L21.5781 0
z
" id="BitstreamVeraSans-Roman-57"/>
     <path d="
M9.8125 72.9062
L19.6719 72.9062
L19.6719 8.29688
L55.1719 8.29688
L55.1719 0
L9.8125 0
z
" id="BitstreamVeraSans-Roman-4c"/>
     <path d="
M4.20312 54.6875
L13.1875 54.6875
L24.4219 12.0156
L35.5938 54.6875
L46.1875 54.6875
L57.4219 12.0156
L68.6094 54.6875
L77.5938 54.6875
L63.2812 0
L52.6875 0
L40.9219 44.8281
L29.1094 0
L18.5 0
z
" id="BitstreamVeraSans-Roman-77"/>
    </defs>
    <g transform="translate(104.1853125 16.318125)scale(0.12 -0.12)">
     <use xlink:href="#BitstreamVeraSans-Roman-64"/>
     <use x="63.4765625" xlink:href="#BitstreamVeraSans-Roman-61"/>
     <use x="124.755859375" xlink:href="#BitstreamVeraSans-Roman-69"/>
     <use x="152.5390625" xlink:href="#BitstreamVeraSans-Roman-6c"/>
     <use x="180.322265625" xlink:href="#BitstreamVeraSans-Roman-79"/>
     <use x="239.501953125" xlink:href="#BitstreamVeraSans-Roman-20"/>
     <use x="271.2890625" xlink:href="#BitstreamVeraSans-Roman-74"/>
     <use x="310.498046875" xlink:href="#BitstreamVeraSans-Roman-72"/>
     <use x="349.361328125" xlink:href="#BitstreamVeraSans-Roman-65"/>
     <use x="410.884765625" xlink:href="#BitstreamVeraSans-Roman-65"/>
     <use x="472.408203125" xlink:href="#BitstreamVeraSans-Roman-20"/>
     <use x="504.1953125" xlink:href="#BitstreamVeraSans-Roman-50"/>
     <use x="564.498046875" xlink:href="#BitstreamVeraSans-Roman-45"/>
     <use x="627.681640625" xlink:href="#BitstreamVeraSans-Roman-54"/>
     <use x="688.765625" xlink:href="#BitstreamVeraSans-Roman-20"/>
     <use x="720.552734375" xlink:href="#BitstreamVeraSans-Roman-61"/>
     <use x="781.83203125" xlink:href="#BitstreamVeraSans-Roman-74"/>
     <use x="821.041015625" xlink:href="#BitstreamVeraSans-Roman-20"/>
     <use x="852.828125" xlink:href="#BitstreamVeraSans-Roman-4c"/>
     <use x="906.791015625" xlink:href="#BitstreamVeraSans-Roman-6f"/>
     <use x="967.97265625" xlink:href="#BitstreamVeraSans-Roman-77"/>
     <use x="1049.759765625" xlink:href="#BitstreamVeraSans-Roman-65"/>
     <use x="1111.283203125" xlink:href="#BitstreamVeraSans-Roman-72"/>
     <use x="1152.396484375" xlink:href="#BitstreamVeraSans-Roman-57"/>
     <use x="1245.3984375" xlink:href="#BitstreamVeraSans-Roman-65"/>
     <use x="1306.921875" xlink:href="#BitstreamVeraSans-Roman-61"/>
     <use x="1368.201171875" xlink:href="#BitstreamVeraSans-Roman-74"/>
     <use x="1407.41015625" xlink:href="#BitstreamVeraSans-Roman-68"/>
     <use x="1470.7890625" xlink:href="#BitstreamVeraSans-Roman-65"/>
     <use x="1532.3125" xlink:href="#BitstreamVeraSans-Roman-72"/>
    </g>
   </g>
   <g id="legend_1">
    <g id="patch_7">
     <path d="
M287.803 277.511
L359.991 277.511
L359.991 27.3181
L287.803 27.3181
z
" style="fill:#ffffff;stroke:#000000;stroke-linejoin:miter;"/>
    </g>
    <g id="line2d_47">
     <path d="
M296.203 37.0362
L313.003 37.0362" style="fill:none;stroke:#0000ff;stroke-linecap:square;"/>
    </g>
    <g id="line2d_48"/>
    <g id="text_20">
     <!-- 1999 -->
     <defs>
      <path d="
M10.9844 1.51562
L10.9844 10.5
Q14.7031 8.73438 18.5 7.8125
Q22.3125 6.89062 25.9844 6.89062
Q35.75 6.89062 40.8906 13.4531
Q46.0469 20.0156 46.7812 33.4062
Q43.9531 29.2031 39.5938 26.9531
Q35.25 24.7031 29.9844 24.7031
Q19.0469 24.7031 12.6719 31.3125
Q6.29688 37.9375 6.29688 49.4219
Q6.29688 60.6406 12.9375 67.4219
Q19.5781 74.2188 30.6094 74.2188
Q43.2656 74.2188 49.9219 64.5156
Q56.5938 54.8281 56.5938 36.375
Q56.5938 19.1406 48.4062 8.85938
Q40.2344 -1.42188 26.4219 -1.42188
Q22.7031 -1.42188 18.8906 -0.6875
Q15.0938 0.046875 10.9844 1.51562
M30.6094 32.4219
Q37.25 32.4219 41.125 36.9531
Q45.0156 41.5 45.0156 49.4219
Q45.0156 57.2812 41.125 61.8438
Q37.25 66.4062 30.6094 66.4062
Q23.9688 66.4062 20.0938 61.8438
Q16.2188 57.2812 16.2188 49.4219
Q16.2188 41.5 20.0938 36.9531
Q23.9688 32.4219 30.6094 32.4219" id="BitstreamVeraSans-Roman-39"/>
     </defs>
     <g transform="translate(326.203125 41.23625)scale(0.12 -0.12)">
      <use xlink:href="#BitstreamVeraSans-Roman-31"/>
      <use x="63.623046875" xlink:href="#BitstreamVeraSans-Roman-39"/>
      <use x="127.24609375" xlink:href="#BitstreamVeraSans-Roman-39"/>
      <use x="190.869140625" xlink:href="#BitstreamVeraSans-Roman-39"/>
     </g>
    </g>
    <g id="line2d_49">
     <path d="
M296.203 54.65
L313.003 54.65" style="fill:none;stroke:#008000;stroke-linecap:square;"/>
    </g>
    <g id="line2d_50"/>
    <g id="text_21">
     <!-- 2000 -->
     <g transform="translate(326.203125 58.85)scale(0.12 -0.12)">
      <use xlink:href="#BitstreamVeraSans-Roman-32"/>
      <use x="63.623046875" xlink:href="#BitstreamVeraSans-Roman-30"/>
      <use x="127.24609375" xlink:href="#BitstreamVeraSans-Roman-30"/>
      <use x="190.869140625" xlink:href="#BitstreamVeraSans-Roman-30"/>
     </g>
    </g>
    <g id="line2d_51">
     <path d="
M296.203 72.2638
L313.003 72.2638" style="fill:none;stroke:#ff0000;stroke-linecap:square;"/>
    </g>
    <g id="line2d_52"/>
    <g id="text_22">
     <!-- 2001 -->
     <g transform="translate(326.203125 76.46375)scale(0.12 -0.12)">
      <use xlink:href="#BitstreamVeraSans-Roman-32"/>
      <use x="63.623046875" xlink:href="#BitstreamVeraSans-Roman-30"/>
      <use x="127.24609375" xlink:href="#BitstreamVeraSans-Roman-30"/>
      <use x="190.869140625" xlink:href="#BitstreamVeraSans-Roman-31"/>
     </g>
    </g>
    <g id="line2d_53">
     <path d="
M296.203 89.8775
L313.003 89.8775" style="fill:none;stroke:#00bfbf;stroke-linecap:square;"/>
    </g>
    <g id="line2d_54"/>
    <g id="text_23">
     <!-- 2002 -->
     <g transform="translate(326.203125 94.0775)scale(0.12 -0.12)">
      <use xlink:href="#BitstreamVeraSans-Roman-32"/>
      <use x="63.623046875" xlink:href="#BitstreamVeraSans-Roman-30"/>
      <use x="127.24609375" xlink:href="#BitstreamVeraSans-Roman-30"/>
      <use x="190.869140625" xlink:href="#BitstreamVeraSans-Roman-32"/>
     </g>
    </g>
    <g id="line2d_55">
     <path d="
M296.203 107.491
L313.003 107.491" style="fill:none;stroke:#bf00bf;stroke-linecap:square;"/>
    </g>
    <g id="line2d_56"/>
    <g id="text_24">
     <!-- 2003 -->
     <g transform="translate(326.203125 111.69125)scale(0.12 -0.12)">
      <use xlink:href="#BitstreamVeraSans-Roman-32"/>
      <use x="63.623046875" xlink:href="#BitstreamVeraSans-Roman-30"/>
      <use x="127.24609375" xlink:href="#BitstreamVeraSans-Roman-30"/>
      <use x="190.869140625" xlink:href="#BitstreamVeraSans-Roman-33"/>
     </g>
    </g>
    <g id="line2d_57">
     <path d="
M296.203 125.105
L313.003 125.105" style="fill:none;stroke:#bfbf00;stroke-linecap:square;"/>
    </g>
    <g id="line2d_58"/>
    <g id="text_25">
     <!-- 2004 -->
     <g transform="translate(326.203125 129.305)scale(0.12 -0.12)">
      <use xlink:href="#BitstreamVeraSans-Roman-32"/>
      <use x="63.623046875" xlink:href="#BitstreamVeraSans-Roman-30"/>
      <use x="127.24609375" xlink:href="#BitstreamVeraSans-Roman-30"/>
      <use x="190.869140625" xlink:href="#BitstreamVeraSans-Roman-34"/>
     </g>
    </g>
    <g id="line2d_59">
     <path d="
M296.203 142.719
L313.003 142.719" style="fill:none;stroke:#000000;stroke-linecap:square;"/>
    </g>
    <g id="line2d_60"/>
    <g id="text_26">
     <!-- 2005 -->
     <g transform="translate(326.203125 146.91875)scale(0.12 -0.12)">
      <use xlink:href="#BitstreamVeraSans-Roman-32"/>
      <use x="63.623046875" xlink:href="#BitstreamVeraSans-Roman-30"/>
      <use x="127.24609375" xlink:href="#BitstreamVeraSans-Roman-30"/>
      <use x="190.869140625" xlink:href="#BitstreamVeraSans-Roman-35"/>
     </g>
    </g>
    <g id="line2d_61">
     <path d="
M296.203 160.332
L313.003 160.332" style="fill:none;stroke:#0000ff;stroke-linecap:square;"/>
    </g>
    <g id="line2d_62"/>
    <g id="text_27">
     <!-- 2006 -->
     <g transform="translate(326.203125 164.5325)scale(0.12 -0.12)">
      <use xlink:href="#BitstreamVeraSans-Roman-32"/>
      <use x="63.623046875" xlink:href="#BitstreamVeraSans-Roman-30"/>
      <use x="127.24609375" xlink:href="#BitstreamVeraSans-Roman-30"/>
      <use x="190.869140625" xlink:href="#BitstreamVeraSans-Roman-36"/>
     </g>
    </g>
    <g id="line2d_63">
     <path d="
M296.203 177.946
L313.003 177.946" style="fill:none;stroke:#008000;stroke-linecap:square;"/>
    </g>
    <g id="line2d_64"/>
    <g id="text_28">
     <!-- 2007 -->
     <g transform="translate(326.203125 182.14625)scale(0.12 -0.12)">
      <use xlink:href="#BitstreamVeraSans-Roman-32"/>
      <use x="63.623046875" xlink:href="#BitstreamVeraSans-Roman-30"/>
      <use x="127.24609375" xlink:href="#BitstreamVeraSans-Roman-30"/>
      <use x="190.869140625" xlink:href="#BitstreamVeraSans-Roman-37"/>
     </g>
    </g>
    <g id="line2d_65">
     <path d="
M296.203 195.56
L313.003 195.56" style="fill:none;stroke:#ff0000;stroke-linecap:square;"/>
    </g>
    <g id="line2d_66"/>
    <g id="text_29">
     <!-- 2008 -->
     <defs>
      <path d="
M31.7812 34.625
Q24.75 34.625 20.7188 30.8594
Q16.7031 27.0938 16.7031 20.5156
Q16.7031 13.9219 20.7188 10.1562
Q24.75 6.39062 31.7812 6.39062
Q38.8125 6.39062 42.8594 10.1719
Q46.9219 13.9688 46.9219 20.5156
Q46.9219 27.0938 42.8906 30.8594
Q38.875 34.625 31.7812 34.625
M21.9219 38.8125
Q15.5781 40.375 12.0312 44.7188
Q8.5 49.0781 8.5 55.3281
Q8.5 64.0625 14.7188 69.1406
Q20.9531 74.2188 31.7812 74.2188
Q42.6719 74.2188 48.875 69.1406
Q55.0781 64.0625 55.0781 55.3281
Q55.0781 49.0781 51.5312 44.7188
Q48 40.375 41.7031 38.8125
Q48.8281 37.1562 52.7969 32.3125
Q56.7812 27.4844 56.7812 20.5156
Q56.7812 9.90625 50.3125 4.23438
Q43.8438 -1.42188 31.7812 -1.42188
Q19.7344 -1.42188 13.25 4.23438
Q6.78125 9.90625 6.78125 20.5156
Q6.78125 27.4844 10.7812 32.3125
Q14.7969 37.1562 21.9219 38.8125
M18.3125 54.3906
Q18.3125 48.7344 21.8438 45.5625
Q25.3906 42.3906 31.7812 42.3906
Q38.1406 42.3906 41.7188 45.5625
Q45.3125 48.7344 45.3125 54.3906
Q45.3125 60.0625 41.7188 63.2344
Q38.1406 66.4062 31.7812 66.4062
Q25.3906 66.4062 21.8438 63.2344
Q18.3125 60.0625 18.3125 54.3906" id="BitstreamVeraSans-Roman-38"/>
     </defs>
     <g transform="translate(326.203125 199.76)scale(0.12 -0.12)">
      <use xlink:href="#BitstreamVeraSans-Roman-32"/>
      <use x="63.623046875" xlink:href="#BitstreamVeraSans-Roman-30"/>
      <use x="127.24609375" xlink:href="#BitstreamVeraSans-Roman-30"/>
      <use x="190.869140625" xlink:href="#BitstreamVeraSans-Roman-38"/>
     </g>
    </g>
    <g id="line2d_67">
     <path d="
M296.203 213.174
L313.003 213.174" style="fill:none;stroke:#00bfbf;stroke-linecap:square;"/>
    </g>
    <g id="line2d_68"/>
    <g id="text_30">
     <!-- 2009 -->
     <g transform="translate(326.203125 217.37375)scale(0.12 -0.12)">
      <use xlink:href="#BitstreamVeraSans-Roman-32"/>
      <use x="63.623046875" xlink:href="#BitstreamVeraSans-Roman-30"/>
      <use x="127.24609375" xlink:href="#BitstreamVeraSans-Roman-30"/>
      <use x="190.869140625" xlink:href="#BitstreamVeraSans-Roman-39"/>
     </g>
    </g>
    <g id="line2d_69">
     <path d="
M296.203 230.788
L313.003 230.788" style="fill:none;stroke:#bf00bf;stroke-linecap:square;"/>
    </g>
    <g id="line2d_70"/>
    <g id="text_31">
     <!-- 2010 -->
     <g transform="translate(326.203125 234.9875)scale(0.12 -0.12)">
      <use xlink:href="#BitstreamVeraSans-Roman-32"/>
      <use x="63.623046875" xlink:href="#BitstreamVeraSans-Roman-30"/>
      <use x="127.24609375" xlink:href="#BitstreamVeraSans-Roman-31"/>
      <use x="190.869140625" xlink:href="#BitstreamVeraSans-Roman-30"/>
     </g>
    </g>
    <g id="line2d_71">
     <path d="
M296.203 248.401
L313.003 248.401" style="fill:none;stroke:#bfbf00;stroke-linecap:square;"/>
    </g>
    <g id="line2d_72"/>
    <g id="text_32">
     <!-- 2011 -->
     <g transform="translate(326.203125 252.60125)scale(0.12 -0.12)">
      <use xlink:href="#BitstreamVeraSans-Roman-32"/>
      <use x="63.623046875" xlink:href="#BitstreamVeraSans-Roman-30"/>
      <use x="127.24609375" xlink:href="#BitstreamVeraSans-Roman-31"/>
      <use x="190.869140625" xlink:href="#BitstreamVeraSans-Roman-31"/>
     </g>
    </g>
    <g id="line2d_73">
     <path d="
M296.203 266.015
L313.003 266.015" style="fill:none;stroke:#000000;stroke-linecap:square;"/>
    </g>
    <g id="line2d_74"/>
    <g id="text_33">
     <!-- 2012 -->
     <g transform="translate(326.203125 270.215)scale(0.12 -0.12)">
      <use xlink:href="#BitstreamVeraSans-Roman-32"/>
      <use x="63.623046875" xlink:href="#BitstreamVeraSans-Roman-30"/>
      <use x="127.24609375" xlink:href="#BitstreamVeraSans-Roman-31"/>
      <use x="190.869140625" xlink:href="#BitstreamVeraSans-Roman-32"/>
     </g>
    </g>
   </g>
  </g>
 </g>
 <defs>
  <clipPath id="p95a2ee5e18">
   <rect height="223.2" width="334.8" x="31.190625" y="21.318125"/>
  </clipPath>
 </defs>
</svg>
