<?xml version="1.0" encoding="utf-8" standalone="no"?>
<!DOCTYPE svg PUBLIC "-//W3C//DTD SVG 1.1//EN"
  "http://www.w3.org/Graphics/SVG/1.1/DTD/svg11.dtd">
<!-- Created with matplotlib (http://matplotlib.org/) -->
<svg height="284pt" version="1.1" viewBox="0 0 373 284" width="373pt" xmlns="http://www.w3.org/2000/svg" xmlns:xlink="http://www.w3.org/1999/xlink">
 <defs>
  <style type="text/css">
*{stroke-linecap:butt;stroke-linejoin:round;}
  </style>
 </defs>
 <g id="figure_1">
  <g id="patch_1">
   <path d="
M0 284.711
L373.191 284.711
L373.191 0
L0 0
z
" style="fill:#ffffff;"/>
  </g>
  <g id="axes_1">
   <g id="patch_2">
    <path d="
M31.1906 244.518
L365.991 244.518
L365.991 21.3181
L31.1906 21.3181
z
" style="fill:#ffffff;"/>
   </g>
   <g id="line2d_1">
    <path clip-path="url(#p95a2ee5e18)" d="
M0 0" style="fill:none;stroke:#0000ff;stroke-linecap:square;"/>
   </g>
   <g id="line2d_2">
    <path clip-path="url(#p95a2ee5e18)" d="
M0 0" style="fill:none;stroke:#008000;stroke-linecap:square;"/>
   </g>
   <g id="line2d_3">
    <path clip-path="url(#p95a2ee5e18)" d="
M0 0" style="fill:none;stroke:#ff0000;stroke-linecap:square;"/>
   </g>
   <g id="line2d_4">
    <path clip-path="url(#p95a2ee5e18)" d="
M0 0" style="fill:none;stroke:#00bfbf;stroke-linecap:square;"/>
   </g>
   <g id="line2d_5">
    <path clip-path="url(#p95a2ee5e18)" d="
M0 0" style="fill:none;stroke:#bf00bf;stroke-linecap:square;"/>
   </g>
   <g id="line2d_6">
    <path clip-path="url(#p95a2ee5e18)" d="
M0 0" style="fill:none;stroke:#bfbf00;stroke-linecap:square;"/>
   </g>
   <g id="line2d_7">
    <path clip-path="url(#p95a2ee5e18)" d="
M0 0" style="fill:none;stroke:#000000;stroke-linecap:square;"/>
   </g>
   <g id="line2d_8">
    <path clip-path="url(#p95a2ee5e18)" d="
M0 0" style="fill:none;stroke:#0000ff;stroke-linecap:square;"/>
   </g>
   <g id="line2d_9">
    <path clip-path="url(#p95a2ee5e18)" d="
M0 0" style="fill:none;stroke:#008000;stroke-linecap:square;"/>
   </g>
   <g id="line2d_10">
    <path clip-path="url(#p95a2ee5e18)" d="
M31.1906 128.516
L32.1079 116.631
L33.0251 112.172
L33.9424 151.558
L34.8597 143.598
L35.7769 193.534
L36.6942 181.895
L37.6114 192.78
L38.5287 215.084
L39.446 193.609
L40.3632 239.863
M43.115 146.661
L44.0323 162.21
L44.9495 110.637
L45.8668 130.587
L46.784 185.732
M48.6186 232.04
L49.5358 212.275
L50.4531 165.919
L51.3704 144.24
L52.2876 169.82
L53.2049 236.701
L54.1221 183.24
L55.0394 156.24
L55.9567 200.758
L56.8739 210.837
L57.7912 194.527
L58.7084 190.896
L59.6257 183.149
L60.543 173.233
L61.4602 214.233
L62.3775 180.138
L63.2947 170.836
L65.1293 199.883
L66.0465 139.127
L66.9638 159.413
L67.881 155.771
L68.7983 151.355
L69.7156 156.153
L70.6328 177.081
L71.5501 113.455
L73.3846 159.767
L74.3019 126.583
L75.2191 144.05
L76.1364 152.872
L77.0536 153.541
L77.9709 149.603
L78.8882 208.86
L79.8054 181.409
L80.7227 169.356
L81.6399 187.066
L82.5572 138.134
L83.4745 156.729
L84.3917 141.068
L85.309 123.47
L86.2262 169.507
L87.1435 126.433
L88.0608 92.8703
L88.978 130.192
L89.8953 113.461
L90.8125 85.1698
L91.7298 98.0875
L92.6471 174.159
L93.5643 119.728
L94.4816 105.835
L95.3988 103.382
L96.3161 70.0083
L97.2334 168.841
L98.1506 166.498
L99.0679 141.496
L99.9851 127.37
L100.902 129.993
L101.82 197.699
L102.737 175.632
L103.654 142.589
L104.571 80.4392
L105.489 54.2186
L106.406 100.135
L107.323 163.513
L108.24 172.972
L109.158 191.195
L110.075 93.966
L110.992 131.351
L111.91 81.2874
L112.827 85.8152
L113.744 99.5701
L114.661 38.5671
L115.579 55.9555
L116.496 60.3966
L117.413 115.86
L118.33 75.0375
L119.248 119.857
L120.165 134.888
L121.082 77.8708
L121.999 140.945
L122.917 147.083
L123.834 75.7071
L124.751 104.694
L125.668 104.872
L126.586 152.721
L127.503 113.905
L128.42 97.4922
L129.337 85.5927
L130.255 87.7008
L131.172 95.1563
L132.089 91.2899
L133.007 91.4699
L133.924 68.0636
L134.841 151.493
L135.758 145.691
L136.676 71.5264
L137.593 50.8566
L138.51 72.8429
L139.427 78.3261
L140.345 142.156
L142.179 75.3672
L143.096 59.6566
L144.014 75.6173
L144.931 101.077
L145.848 94.4669
L146.765 107.259
L147.683 123.757
L148.6 102.657
L149.517 74.9781
L150.434 58.9953
L151.352 96.8883
L152.269 84.943
L153.186 82.6019
L154.104 155.842
L155.021 125.254
L155.938 121.348
L156.855 102.908
L157.773 127.008
L158.69 114.631
L159.607 168.025
L160.524 125.666
L161.442 139.308
L162.359 179.324
L163.276 133.324
L164.193 132.356
L165.111 161.475
L166.028 167.554
L166.945 159.767
L167.862 154.778
L168.78 131.644
L169.697 138.753
L170.614 171.974
L171.531 124.706
L172.449 177.983
L173.366 162.419
L174.283 120.273
L175.2 113.817
L176.118 136.606
L177.035 96.5114
L177.952 151.238
L178.87 120.841
L179.787 166.07
L181.621 103.402
L182.539 102.823
L183.456 98.1393
L184.373 104.785
L185.29 109.089
L186.208 108.01
L187.125 99.5896
L188.042 106.248
L188.959 141.398
L189.877 133.945
L190.794 118.51
L191.711 118.417
L192.628 109.725
L195.38 130.585
L196.297 132.854
L197.215 134.013
L198.132 149.498
L199.049 130.492
L199.967 129.607
L200.884 134.701
L201.801 130.294
L202.718 129.263
L203.636 130.61
L204.553 115.638
L205.47 112.951
L206.387 120.498
L207.305 95.0895
L208.222 90.2812
L209.139 105.925
L210.056 114.695
L210.974 117.912
L211.891 125.378
L212.808 125.152
L213.725 115.703
L214.643 102.918
L215.56 121.459
L216.477 149.058
L217.394 163.733
L218.312 136.439
L219.229 137.68
L220.146 118.949
L221.064 121.685
L222.898 129.727
L223.815 128.324
L225.65 115.024
L226.567 125.157
L227.484 131.383
L228.402 124.215
L229.319 123.199
L230.236 127.748
L231.153 136.401
L232.071 142.385
L232.988 159.789
L233.905 145.59
L234.822 114.211
L235.74 118.961
L236.657 125.052
L237.574 118.856
L238.491 127.954
L239.409 131.272
L240.326 126.774
L241.243 129.002
L243.078 150.759
L243.995 129.463
L244.912 130.778
L245.83 114.579
L246.747 110.605
L247.664 124.674
L248.581 134.158
L249.499 117.584
L250.416 95.1067
L251.333 131.207
L252.25 133.978
L253.168 123.693
L254.085 109.554
L255.002 120.449
L255.919 94.0727
L256.837 92.3398
L257.754 98.6302
L258.671 107.673
L259.588 124.339
L260.506 122.996
L261.423 112.387
L262.34 111.016
L263.257 104.054
L264.175 104.819
L265.092 107.16
L266.009 112.591
L266.927 114.98
L267.844 114.446
L269.678 111.036
L270.596 121.831
L271.513 143.814
L272.43 187.194
L273.347 184.47
L274.265 144.23
L276.099 115.956
L277.016 115.031
L277.934 125.185
L278.851 123.037
L279.768 107.918
L280.685 118.399
L281.603 134.331
L282.52 132.857
L284.354 151.999
L285.272 194.616
L286.189 176.52
L287.106 150.746
L288.941 121.701
L289.858 116.901
L290.775 194.409
L291.693 175.852
L292.61 100.046
L293.527 111.432
L294.444 138.985
L295.362 131.318
L296.279 119.197
L297.196 143.059
L298.113 121.405
L299.031 148.457
L299.948 119.626
L300.865 108.16
L301.782 79.4422
L302.7 78.9793
L303.617 89.5293
L304.534 104.777
L305.451 103.013
L306.369 95.7173
L307.286 105.479
L308.203 111.141
L309.12 109.699
L310.038 128.351
L310.955 177.658
L311.872 204.109
L313.707 176.553
L314.624 139.346
L315.541 166.303
L316.459 182.232
L317.376 202.107
L318.293 226.217
L319.21 195.221
L320.128 201.952
L321.045 193.404
L321.962 168.561
L322.879 124.979
L323.797 132.47
L324.714 160.96
L325.631 157.295
L326.548 141.592
L327.466 159.32
L328.383 157.832
L329.3 118.004
L331.135 219.342
L332.052 175.81
L332.969 160.151
L333.887 185.869
L334.804 174.834
L335.721 149.228
L336.638 192.565
L337.556 203.864
L338.473 197.765
L339.39 184.855
L340.307 187.021
L341.225 176.41
L342.142 160.034
L343.976 145.714
L344.894 199.729
L345.811 124.692
L346.728 140.301
L347.645 158.469
L348.563 202.606
L349.48 202.719
L350.397 196.528
L351.314 179.201
L352.232 200.66
L353.149 143.068
L354.066 146.733
L354.984 188.327
L355.901 149.562
L356.818 190.263
L357.735 207.257
L358.653 213.834
L359.57 179.698
L360.487 205.089
L361.404 175.039
L362.322 223.73
L364.156 164.135
L365.073 96.2731
L365.073 96.2731" style="fill:none;stroke:#ff0000;stroke-linecap:square;"/>
   </g>
   <g id="line2d_11">
    <path clip-path="url(#p95a2ee5e18)" d="
M31.1906 202.554
L32.1079 138.637
L33.0251 148.39
L33.9424 95.8686
L34.8597 149.831
L35.7769 228.199
L36.6942 182.059
L37.6114 167.619
L38.5287 186.785
L39.446 148.139
L40.3632 160.719
L41.2805 199.47
L42.1977 178.862
L43.115 193.259
L44.0323 232.41
L44.9495 234.353
L45.8668 235.502
L46.784 232.771
L47.7013 230.546
L48.6186 232.57
L49.5358 231.7
L50.4531 233.81
L51.3704 241.979
L52.2876 235.237
M54.1221 205.288
L55.0394 191.845
L55.9567 190.839
L56.8739 170.972
L57.7912 191.897
L58.7084 207.368
L59.6257 185.048
L60.543 168.902
L61.4602 162.624
L62.3775 172.505
L63.2947 188.452
L64.212 183.426
L65.1293 202.862
L66.0465 199.111
L66.9638 230.536
L67.881 175.533
L68.7983 199.719
L69.7156 205.228
L70.6328 148.877
L71.5501 193.469
L72.4673 133.325
L73.3846 162.242
L74.3019 202.406
L75.2191 148.032
L76.1364 129.743
L77.0536 147.675
L77.9709 140.969
L78.8882 171.289
L79.8054 174.796
L80.7227 133.159
L81.6399 163.528
L82.5572 178.371
L83.4745 100.911
L84.3917 105.879
L85.309 145.018
L86.2262 172.426
L87.1435 178.376
L88.0608 203.203
L88.978 236.375
L89.8953 201.826
L90.8125 152.423
L91.7298 188.896
L92.6471 143.143
L93.5643 154.745
L94.4816 129.1
L95.3988 141.491
L96.3161 137.105
L97.2334 128.175
L98.1506 196.18
L99.0679 185.252
L100.902 124.718
L101.82 143.753
L102.737 128.587
L103.654 177.012
L104.571 178.38
L105.489 122.629
L106.406 145.365
L107.323 196.56
L108.24 116.905
L109.158 120.185
L110.075 167.943
L110.992 199.671
L111.91 104.431
L112.827 188.734
L113.744 132.738
L114.661 192.944
L115.579 182.061
L116.496 98.6315
L117.413 101.434
L118.33 102.958
L119.248 110.61
L120.165 188.56
L121.082 166.131
L121.999 201.066
L122.917 173.399
L123.834 137.32
L124.751 168.825
L125.668 141.71
L126.586 148.309
L127.503 117.644
L128.42 113.117
L129.337 127.635
L130.255 104.909
L131.172 118.459
L132.089 121.209
L133.007 129.697
L133.924 135.201
L134.841 84.9103
L135.758 85.2041
L136.676 138.79
L137.593 108.065
L138.51 189.13
L139.427 140.115
L140.345 145.83
L141.262 135.735
L142.179 177.972
L143.096 197.013
L144.014 165.235
L144.931 160.962
L145.848 174.269
L146.765 133.745
L147.683 112.816
L148.6 102.557
L149.517 104.65
L150.434 109.709
L151.352 116.5
L152.269 95.2984
L153.186 161.26
L154.104 109.409
L155.021 105.968
L155.938 114.353
L156.855 132.41
L157.773 121.575
L158.69 107.207
L159.607 95.5758
L160.524 117.293
L162.359 153.963
L163.276 128.325
L164.193 121.743
L165.111 122.464
L166.028 129.361
L166.945 131.942
L167.862 146.796
L168.78 149.172
L169.697 163.137
L170.614 198.976
L171.531 169.088
L172.449 166.831
L173.366 192.071
L174.283 186.733
L175.2 152.641
L176.118 146.911
L177.035 134.603
L177.952 161.031
L178.87 163.646
L179.787 155.27
L180.704 201.373
L181.621 198.413
L182.539 178.891
L183.456 145.434
L184.373 162.371
L185.29 134.411
L186.208 165.277
L187.125 165.143
L188.042 184.059
L188.959 140.54
L189.877 118.054
L190.794 132.263
L191.711 136.686
L192.628 139.534
L193.546 123.86
L194.463 123.766
L195.38 141.192
L196.297 138.458
L197.215 130.681
L198.132 144.94
L199.049 152.378
L199.967 144.827
L200.884 159.132
L201.801 136.192
L202.718 128.802
L203.636 130.228
L204.553 127.185
L205.47 129.862
L206.387 152.803
L207.305 169.381
L208.222 152.763
L209.139 133.367
L210.056 130.97
L210.974 143.792
L211.891 144.622
L212.808 151.725
L213.725 146.503
L214.643 134.024
L215.56 138.132
L216.477 145.622
L217.394 160.514
L218.312 146.672
L219.229 142.501
L220.146 148.098
L221.064 157.301
L221.981 154.764
L222.898 151.485
L223.815 151.028
L224.733 145.804
L225.65 147.592
L226.567 148.808
L227.484 148.08
L228.402 153.024
L229.319 146.093
L230.236 207.382
L231.153 221.708
L232.071 178.099
L232.988 154.997
L233.905 144.132
L234.822 144.549
L235.74 149.71
L236.657 158.231
L237.574 154.956
L238.491 134.759
L239.409 130.297
L240.326 137.584
L241.243 141.733
L242.16 148.3
L243.078 157.332
L243.995 150.312
L244.912 152.315
L245.83 165.844
L246.747 155.738
L247.664 149.196
L248.581 148.568
L249.499 147.089
L250.416 155.92
L251.333 151.783
L252.25 163.584
L253.168 151.797
L254.085 149.642
L255.002 149.476
L255.919 144.873
L256.837 145.425
L257.754 153.783
L258.671 141.965
L259.588 127.036
L260.506 120.047
L261.423 123.619
L262.34 135.744
L263.257 142.427
L264.175 143.586
L265.092 147.976
L266.927 163.404
L267.844 159.415
L268.761 152.521
L269.678 171.2
M294.444 165.073
L295.362 175.026
L296.279 164.981
L298.113 200.9
L299.031 180.677
L299.948 183.582
L300.865 190.91
L301.782 187.939
L302.7 168.394
L303.617 129.551
L304.534 174.736
L305.451 175.476
L306.369 137.056
L307.286 190.88
L308.203 222.354
L309.12 182.636
L310.038 186.219
L310.955 162.883
L311.872 168.852
L312.79 148.089
L313.707 147.286
L314.624 181.347
L316.459 152.087
L317.376 123.159
L318.293 143.169
L319.21 193.934
L320.128 191.201
L321.045 200.092
L321.962 206.516
L322.879 143.847
L323.797 146.585
L324.714 129.733
L325.631 188.626
L326.548 125.454
L327.466 145.35
L328.383 151.011
L329.3 183.872
L330.217 162.198
L331.135 171.913
L332.052 177.007
L332.969 194.848
L333.887 206.766
L334.804 187.842
L335.721 158.697
M337.556 155.685
L338.473 141.512
L339.39 131.72
L340.307 149.272
L341.225 131.025
L342.142 143.725
L343.059 212.954
L343.976 157.024
L344.894 138.423
L345.811 146.8
L346.728 158.875
L347.645 206.999
L348.563 221.629
L349.48 192.693
L350.397 203.894
L351.314 219.98
L352.232 198.056
L353.149 218.827
L354.066 233.781
L354.984 218.411
L355.901 182.621
L356.818 243.884
L357.735 221.315
L358.653 171.322
L360.487 220.053
L361.404 195.628
L362.322 202.191
L363.239 190.035
L364.156 218.245
L365.073 189.49
L365.073 189.49" style="fill:none;stroke:#00bfbf;stroke-linecap:square;"/>
   </g>
   <g id="line2d_12">
    <path clip-path="url(#p95a2ee5e18)" d="
M31.1906 208.194
L32.1079 191.973
L33.0251 213.938
L33.9424 215.265
L34.8597 227.219
L35.7769 218.447
L36.6942 173.129
L37.6114 193.347
L38.5287 173.733
L39.446 158.051
L40.3632 195.947
L41.2805 168.38
L42.1977 221.9
L43.115 180.364
L44.0323 130.887
L44.9495 185.206
L45.8668 180.064
L46.784 176.568
L47.7013 176.3
L48.6186 158.5
L49.5358 163.071
L51.3704 234.379
L52.2876 170.896
L53.2049 194.823
L54.1221 227.473
L55.0394 234.22
L55.9567 199.866
L56.8739 199.95
L57.7912 222.465
L58.7084 240.506
L59.6257 233.419
L60.543 196.088
L61.4602 201.969
L62.3775 216.217
L63.2947 201.541
L64.212 216.896
L65.1293 215.493
L66.0465 192.681
L66.9638 200.249
L67.881 147.934
L68.7983 175.118
L69.7156 179.782
L70.6328 222.032
L71.5501 179.646
L72.4673 228.59
L73.3846 208.95
L74.3019 214.895
L75.2191 175.748
L76.1364 164.087
L77.0536 156.564
L77.9709 144.425
L78.8882 99.5068
L79.8054 96.6562
L80.7227 194.877
L81.6399 171.286
L82.5572 132.384
L84.3917 197.157
L85.309 142.109
L86.2262 168.679
L87.1435 172.124
L88.0608 194.959
L88.978 160.458
L89.8953 143.196
L90.8125 135.607
L91.7298 201.626
L92.6471 128.415
L93.5643 101.926
L94.4816 103.294
L95.3988 120.673
L96.3161 208.661
L97.2334 141.544
L98.1506 111.58
L99.0679 125.491
L99.9851 133.921
L100.902 136.038
L101.82 78.0129
L102.737 86.2264
L103.654 154.942
L104.571 169.704
L105.489 120.779
L106.406 109.742
L107.323 174.136
L108.24 178.242
L109.158 118.424
L110.075 106.235
L111.91 214.789
L112.827 146.607
L113.744 181.296
L114.661 183.756
L115.579 157.277
L116.496 116.778
L117.413 168.661
L118.33 122.741
L119.248 113.986
L120.165 140.292
L121.082 80.5535
L121.999 110.198
L122.917 133.301
L123.834 174.637
L124.751 158.549
L125.668 127.072
L126.586 115.798
L127.503 124.578
L128.42 129.363
L129.337 117.216
L130.255 109.802
L131.172 171.419
L132.089 201.678
L133.007 192.56
L133.924 114.085
L134.841 109.646
L135.758 98.3158
L136.676 110.16
L137.593 173.048
L138.51 174.456
L139.427 159.978
L140.345 164.831
L141.262 158.682
L142.179 134.493
L143.096 143.288
L144.014 75.0281
L144.931 130.231
L145.848 127.158
L146.765 72.3436
L147.683 103.899
L148.6 106.383
L149.517 183.727
L150.434 157.426
L151.352 108.942
L152.269 111.213
L153.186 105.273
L154.104 108.241
L155.021 118.61
L155.938 145.23
L156.855 207.921
L157.773 144.525
L158.69 122.948
L159.607 145.012
L160.524 232.067
L161.442 166.773
L162.359 152.853
L163.276 116.553
L164.193 173.706
L165.111 171.863
L166.028 183.512
L166.945 167.449
L167.862 135.062
L168.78 180.288
L169.697 172.339
L170.614 211.846
L171.531 163.891
L172.449 211.865
L173.366 169.017
L174.283 194.754
L175.2 153.145
L176.118 122.048
L177.035 171.231
L177.952 167.224
L179.787 113.527
L180.704 121.907
L181.621 128.45
L182.539 155.235
L183.456 129.002
L184.373 124.187
L185.29 110.897
L186.208 121.679
L187.125 175.602
L188.959 131.838
L189.877 127.37
L190.794 153.33
L191.711 162.436
L192.628 136.755
L193.546 126.587
L194.463 131.757
L195.38 162.528
L196.297 154.524
L197.215 133.619
L198.132 137.63
L199.049 154.257
L199.967 131.649
L200.884 130.852
L201.801 127.325
L202.718 125.959
L203.636 129.532
L204.553 134.796
L205.47 138.281
L206.387 143.319
L207.305 141.758
L208.222 105.892
L209.139 116.172
L210.056 129.052
L210.974 136.171
L211.891 136.818
L212.808 134.53
L213.725 123.709
L214.643 123.763
L215.56 125.929
L216.477 137.176
L217.394 128.566
L218.312 132.415
L219.229 139.509
L220.146 176.908
L221.064 164.411
L221.981 153.488
L222.898 145.149
L223.815 149.075
L224.733 154.813
L226.567 129.128
L227.484 131.314
L229.319 141.128
L230.236 154.73
L231.153 141.054
L232.071 143.019
L232.988 157.84
L233.905 169.322
L234.822 189.995
L235.74 168.919
L236.657 144.177
L237.574 152.949
L238.491 140.311
L239.409 139.575
L240.326 143.36
L241.243 139.835
L242.16 138.471
L243.078 129.63
L243.995 131.903
L244.912 133.053
L245.83 135.723
L246.747 130.608
L247.664 132.166
L248.581 153.546
L249.499 125.998
L250.416 144.706
L251.333 189.735
L252.25 146.936
L253.168 169.374
L254.085 152.551
L255.002 143.248
L255.919 131.469
L256.837 140.275
L257.754 133.161
L258.671 113.627
L259.588 115.043
L260.506 177.772
L261.423 214.473
L262.34 159.667
L263.257 127.336
L264.175 127.049
L265.092 130.512
L266.009 144.839
L266.927 135.928
L267.844 135.489
L268.761 140.981
L269.678 141.512
L270.596 153.074
L271.513 155.349
L272.43 141.226
L273.347 150.098
L274.265 132.061
L275.182 122.299
L276.099 137.281
L277.016 133.581
L277.934 134.507
L278.851 133.032
L279.768 144.997
L280.685 134.002
L281.603 139.942
L282.52 141.637
L283.437 180.896
L284.354 226.21
L285.272 217.017
L287.106 160.864
L288.024 189.275
L288.941 170.778
L289.858 172.626
L290.775 180.732
L291.693 139.642
L292.61 136.828
L293.527 116.139
L294.444 137.781
L295.362 153.254
L296.279 157.261
L297.196 122.887
L298.113 108.716
L299.031 123.431
L299.948 123.773
L300.865 127.523
L301.782 178.355
M304.534 186.348
L305.451 147.996
L306.369 110.765
L308.203 157.201
L309.12 205.414
L310.038 164.74
L310.955 171.486
L311.872 182.441
L312.79 161.555
L313.707 166.441
L314.624 173.963
M317.376 162.673
L318.293 223.6
L319.21 192.68
L320.128 169.991
L321.045 177.759
L321.962 211.327
M323.797 163.933
L324.714 152.63
L325.631 156.113
L326.548 225.19
M328.383 210.629
L329.3 238.764
M331.135 114.495
L332.052 166.767
L332.969 182.479
L333.887 234.352
L334.804 214.47
L335.721 156.414
L336.638 194.669
M340.307 243.639
L341.225 219.433
L342.142 233.495
L343.059 229.859
L343.976 192.942
L344.894 199.208
L345.811 197.65
L346.728 214.243
L347.645 216.118
L348.563 205.287
M351.314 159.025
L352.232 139.282
L353.149 205.901
L354.066 228.233
L354.984 192.665
L355.901 176.923
L356.818 194.299
L357.735 222.402
L358.653 206.683
L359.57 158.533
L360.487 193.892
L361.404 179.263
L362.322 207.728
L363.239 228.808
L364.156 197.958
L365.073 161.801
L365.073 161.801" style="fill:none;stroke:#bf00bf;stroke-linecap:square;"/>
   </g>
   <g id="line2d_13">
    <path clip-path="url(#p95a2ee5e18)" d="
M31.1906 170.408
L32.1079 195.789
L33.0251 192.02
L33.9424 204.558
L34.8597 201.387
L35.7769 203.786
L36.6942 203.816
L37.6114 213.236
L38.5287 208.883
L39.446 224.629
L40.3632 182.9
L42.1977 221.371
L43.115 219.629
L44.0323 207.495
L44.9495 239.487
L45.8668 208.319
L46.784 209.841
L47.7013 198.845
L48.6186 170.501
L49.5358 217.441
L50.4531 209.673
L51.3704 162.863
L52.2876 217.403
L53.2049 233.586
L54.1221 237.356
L55.0394 212.007
L55.9567 221.015
L56.8739 218.514
L57.7912 234.504
L58.7084 174.872
L59.6257 132.987
L60.543 135.535
L61.4602 155.832
L62.3775 186.36
L63.2947 173.983
L64.212 183
L65.1293 181.673
L66.0465 166.525
L66.9638 185.504
L67.881 147.085
L68.7983 158.929
L69.7156 153.993
L70.6328 139.212
L71.5501 148.558
L72.4673 146.933
L73.3846 196.832
L74.3019 197.579
L75.2191 194.752
L76.1364 206.947
L77.0536 237.49
L77.9709 174.145
L78.8882 176.788
L79.8054 171.403
L80.7227 203.519
L81.6399 213.295
L82.5572 164.367
L83.4745 135.407
L84.3917 146.877
L85.309 139.918
L86.2262 183.694
L87.1435 180.973
L88.0608 171.585
L88.978 194.949
L89.8953 164.051
L90.8125 219.219
L91.7298 194.881
L92.6471 129.974
L93.5643 190.838
L94.4816 133.616
L95.3988 130.417
L96.3161 140.994
L97.2334 169.349
L98.1506 210.919
L99.0679 233.71
L99.9851 180.664
L100.902 145.034
L101.82 189.94
L102.737 151.485
L103.654 205.526
L104.571 169.336
L105.489 162.332
L106.406 185.221
L107.323 215.345
L108.24 213.855
L109.158 197.263
L110.075 184.73
L110.992 188.528
L111.91 209.017
L112.827 154.029
L113.744 158.075
L114.661 190.11
L115.579 132.071
L116.496 147.949
L117.413 181.786
L118.33 183.427
L119.248 178.125
L120.165 165.524
L121.082 196.138
L121.999 153.061
L122.917 182.477
L123.834 156.943
L124.751 179.62
L125.668 148.278
L126.586 171.333
L127.503 198.079
L128.42 181.639
L129.337 177.512
L130.255 107.219
L131.172 171.317
L132.089 166.67
L133.007 112.641
L133.924 112.851
L134.841 165.102
L135.758 187.588
L136.676 146.405
L137.593 122.953
L138.51 202.64
L139.427 163.448
L140.345 151.437
L141.262 123.794
L142.179 153.421
L143.096 146.929
L144.014 132.17
L144.931 132.775
L145.848 182.86
L146.765 186.193
L147.683 197.573
L148.6 174.043
L149.517 135.382
L150.434 141.911
L151.352 151.231
L152.269 157.278
L153.186 165.756
L154.104 201.606
L155.021 205.663
L155.938 136.017
L156.855 201.444
L157.773 144.179
L160.524 171.878
L161.442 185.96
L162.359 182.494
L163.276 178.316
L164.193 165.021
L165.111 200.268
L166.028 205.621
L166.945 209.079
L167.862 186.951
L168.78 153.864
L169.697 153.465
L170.614 188.842
L171.531 151.906
L172.449 137.603
L173.366 154.222
L174.283 186.739
L175.2 206
L176.118 150.283
L177.035 185.608
L177.952 171.832
L178.87 167.022
L179.787 166.362
L180.704 184.539
L181.621 142.327
L182.539 131.75
L183.456 154.27
L184.373 132.475
L185.29 202.186
L186.208 190.332
L187.125 148.993
L188.042 155.932
L188.959 153.717
L189.877 158.177
L190.794 146.621
L191.711 139.768
L192.628 135.692
L193.546 138.244
L194.463 155.326
L195.38 185.211
L196.297 164.16
L197.215 145.732
L198.132 142.827
L199.049 150.251
L199.967 152.935
L200.884 156.369
L201.801 154.474
L202.718 181.807
L203.636 159.661
L204.553 130.603
L205.47 152.735
L207.305 160.26
L208.222 162.845
L209.139 176.013
L210.056 139.288
M215.56 139.274
L216.477 152.066
L217.394 142.678
L218.312 152.584
L219.229 157.966
L220.146 165.284
L221.064 152.774
L221.981 146.896
L222.898 147.537
L223.815 166.224
L224.733 174.429
L225.65 170.201
L226.567 164.551
L227.484 160.71
L228.402 178.49
L229.319 159.662
L230.236 160.629
L231.153 164.06
L232.071 159.206
L232.988 152.566
L233.905 153.068
L234.822 147.626
L235.74 152.249
L236.657 164.336
L237.574 161.993
L238.491 149.661
L239.409 149.613
L241.243 154.382
L242.16 146.495
L243.078 156.628
L243.995 164.012
L244.912 159.992
L245.83 160.966
L246.747 154.553
L247.664 163.776
L248.581 165.976
L249.499 179.309
L250.416 168.645
L251.333 169.682
L252.25 157.786
L253.168 152.022
L254.085 148.154
L255.002 148.839
L255.919 146.906
L256.837 151.245
L257.754 146.821
L258.671 158.701
L259.588 160.553
L260.506 162.155
L261.423 165.822
L262.34 160.634
L263.257 162.88
L264.175 165.795
L265.092 171.012
L266.009 170.199
L266.927 206.16
L267.844 187.626
L268.761 159.129
L269.678 151.418
L270.596 159.526
L271.513 160.094
L272.43 156.437
L273.347 159.058
L274.265 158.431
L275.182 159.69
L276.099 162.399
L277.016 163.864
L277.934 160.197
L278.851 180.597
L279.768 156.175
L280.685 164.113
L281.603 168.18
L282.52 164.844
L283.437 163.619
L284.354 208.069
L285.272 229.429
L286.189 243.124
L287.106 214.852
L288.024 172.432
L288.941 160.573
L289.858 189.013
L290.775 173.076
L291.693 152.557
L292.61 141.747
L293.527 166.155
L294.444 170.62
L295.362 201.559
L296.279 168.742
L297.196 144.339
L298.113 164.282
L299.031 155.958
L299.948 176.167
L300.865 181.695
L301.782 178.743
L302.7 190.073
L303.617 163.593
L304.534 149.716
L305.451 143.339
L306.369 137.792
L307.286 157.666
L308.203 169.496
L309.12 192.809
L310.955 125.697
L311.872 145.348
L312.79 209.183
L313.707 224.511
L314.624 203.932
L315.541 192.008
L316.459 132.517
L317.376 140.438
L318.293 135.797
L319.21 113.703
L320.128 155.212
L321.045 174.662
L321.962 143.838
L322.879 171.412
L323.797 149.163
L324.714 217.271
L325.631 220.261
L326.548 198.406
L327.466 181.952
L328.383 182.101
L329.3 195.867
L330.217 156.673
L331.135 176.036
L332.052 178.295
L332.969 142.248
L333.887 147.137
L334.804 183.863
L335.721 207.5
L336.638 197.592
L337.556 155.213
L338.473 147.981
L339.39 145.543
L340.307 183.257
L341.225 175.875
L342.142 157.738
L343.059 172.295
L343.976 172.958
L344.894 174.687
L345.811 182.178
L346.728 184.785
L347.645 192.92
L348.563 197.472
L349.48 174.844
L350.397 182.709
L351.314 194.405
L352.232 197.145
L353.149 198.518
L354.066 191.762
L354.984 162.94
L355.901 167.289
L356.818 139.429
L357.735 137.995
L359.57 163.156
L360.487 164.339
L361.404 204.901
L362.322 218.514
L363.239 197.879
L364.156 226.175
L365.073 179.449
L365.073 179.449" style="fill:none;stroke:#bfbf00;stroke-linecap:square;"/>
   </g>
   <g id="line2d_14">
    <path clip-path="url(#p95a2ee5e18)" d="
M31.1906 187.893
L32.1079 200.736
L33.0251 193.592
L33.9424 193.876
L34.8597 193.12
L35.7769 208.263
M46.784 210.082
L47.7013 237.299
L48.6186 223.944
L49.5358 222.912
L50.4531 208.312
L51.3704 236.009
L52.2876 209.932
L53.2049 214.708
L54.1221 225.89
L55.0394 193.336
L55.9567 189.225
L56.8739 180.912
L57.7912 199.552
L58.7084 183.232
L59.6257 214.978
L60.543 195.77
L61.4602 190.314
L62.3775 182.421
L63.2947 185.683
L64.212 177.925
L65.1293 168.311
L66.0465 200.406
L66.9638 226.867
L67.881 217.29
L68.7983 232.899
L69.7156 218.393
L70.6328 191.646
L71.5501 199.75
L72.4673 206.089
L73.3846 181.545
L74.3019 178.432
L75.2191 205.411
L76.1364 184.925
L77.0536 207.938
L77.9709 237.606
L78.8882 215.886
L79.8054 172.281
L80.7227 160.135
L81.6399 208.267
L82.5572 156.782
L83.4745 158.36
L84.3917 167.858
L85.309 198.622
L86.2262 217.978
L87.1435 185.881
L88.0608 195.207
L88.978 178.879
L89.8953 173.694
L90.8125 202.275
L91.7298 146.046
L92.6471 158.333
L93.5643 158.734
L94.4816 158.872
L95.3988 192.243
L96.3161 196.143
L97.2334 212.946
L98.1506 236.651
L99.0679 218.321
L99.9851 217.565
L100.902 213.521
L101.82 238.337
L102.737 174.675
L103.654 211.763
L105.489 163.274
L106.406 193.12
L107.323 180.421
L108.24 194.488
L109.158 214.179
L110.075 166.723
L110.992 207.881
L111.91 209.648
L112.827 227.056
L113.744 164.24
L114.661 149.432
L115.579 160.372
L116.496 150.806
L117.413 172.267
L118.33 162.912
L119.248 177.66
L120.165 143.243
L121.082 145.864
L121.999 166.678
L122.917 161.364
L123.834 200.105
L124.751 154.66
L125.668 180.122
L126.586 181.103
L127.503 149.675
L128.42 206.184
L129.337 185.538
L130.255 186.2
L131.172 194.885
L133.007 163.561
L133.924 162.585
L134.841 181.586
L135.758 181.755
L136.676 193.248
L137.593 239.873
L138.51 175.786
L139.427 177.139
L140.345 157.482
L141.262 206.039
L142.179 155.356
L143.096 180.585
L144.014 210.092
L144.931 208.091
L145.848 162.467
L146.765 145.412
L147.683 144.043
L148.6 149.298
L149.517 157.735
L150.434 134.095
L151.352 139.388
L152.269 141.615
L153.186 149.438
L154.104 161.148
L155.021 183.107
L155.938 168.182
L156.855 176.737
L157.773 152.927
L158.69 141.941
L159.607 160.108
L160.524 185.96
L161.442 191.485
L162.359 163.203
L163.276 164.709
L164.193 192.471
L165.111 227.65
L166.028 170.659
L166.945 152.816
L168.78 157.53
L169.697 169.01
L170.614 160.537
L171.531 178.499
L172.449 162.798
L173.366 179.977
L174.283 220.024
L175.2 149.063
L176.118 175.524
L177.035 171.967
L177.952 192.837
L178.87 162.063
L179.787 148.218
L180.704 167.815
L181.621 165.389
L182.539 144.765
L183.456 154.28
L184.373 157.709
L185.29 160.069
L186.208 161.469
L187.125 146.86
L188.042 151.925
L188.959 161.531
L189.877 162.895
L190.794 160.212
L191.711 163.301
L192.628 162.095
L193.546 162.086
L194.463 156.174
L195.38 156.019
L196.297 169.716
L197.215 163.665
L198.132 177.746
L199.049 170.595
L199.967 164.709
L200.884 160.637
L201.801 173.143
L202.718 174.653
L203.636 173.754
L204.553 184.672
L205.47 182.506
L206.387 179.209
L207.305 181.83
L208.222 181.94
L209.139 193.394
L210.056 198.115
L210.974 182.886
L211.891 187.606
L212.808 172.712
L213.725 172.342
L214.643 173.522
L215.56 172.742
L216.477 174.048
L217.394 175.855
L218.312 177.978
L219.229 168.088
L220.146 175.763
L221.064 173.848
L221.981 180.32
L222.898 176.265
L223.815 175.407
L224.733 172.335
L225.65 170.576
L226.567 170.097
L227.484 167.218
M232.988 188.469
L233.905 178.558
L234.822 188.747
L235.74 174.715
L236.657 178.994
L237.574 181.115
L238.491 176.377
L239.409 174.046
L240.326 177.977
L242.16 175.558
L243.078 191.406
L243.995 182.731
L244.912 186.135
L245.83 177.218
L246.747 172.958
L247.664 160.608
L248.581 164.069
L249.499 180.692
L250.416 186.544
L251.333 173.114
L252.25 177.762
L253.168 172.151
L254.085 189.726
L255.002 176.859
L255.919 157.868
L256.837 162.147
L257.754 165.041
L258.671 171.593
L259.588 184.821
L260.506 170.653
L261.423 171.754
L262.34 183.279
L263.257 171.808
L264.175 174.318
L265.092 156.4
L266.009 163.897
L266.927 168.519
L268.761 173.152
L269.678 169.727
L270.596 171.067
L271.513 174.279
L272.43 180.617
L273.347 183.049
L274.265 186.787
L275.182 213.434
L276.099 196.332
L277.016 192.645
L277.934 187.712
L278.851 179.091
L279.768 185.003
L280.685 179.753
L281.603 180.096
L282.52 174.691
L283.437 173.409
L284.354 158.046
L285.272 156.494
L286.189 153.338
L287.106 153.304
L288.024 156.313
L288.941 153.719
L290.775 171.976
L291.693 172.535
L292.61 170.942
L293.527 195.541
L294.444 190.198
L295.362 200.011
L296.279 197.534
L297.196 182.513
L298.113 174.091
L299.031 189.094
L299.948 207.26
L300.865 179.673
L301.782 222.817
L302.7 220.762
L303.617 221.283
L304.534 230.743
L305.451 187.528
L306.369 205.315
L307.286 236.536
L308.203 202.228
L309.12 191.996
L310.038 183.966
L310.955 201.38
L311.872 194.64
L312.79 198.283
L313.707 198.565
L314.624 203.107
L315.541 199.782
L316.459 213.837
L317.376 212.682
L318.293 234.383
L319.21 199.34
L320.128 201.802
L321.045 208.633
L321.962 233.649
L322.879 233.577
L323.797 213.938
L324.714 214.027
L325.631 220.376
L326.548 218.861
L327.466 214.825
L328.383 204.874
L329.3 215.003
L330.217 198.835
L331.135 190.656
L332.052 220.68
L332.969 222.816
L333.887 205.548
L334.804 216.57
L335.721 217.005
L336.638 212.774
L337.556 222.021
L338.473 208.461
L339.39 221.152
L340.307 194.706
L341.225 218.577
M348.563 229.493
L349.48 232.856
L350.397 217.437
L351.314 211.683
L352.232 238.246
L353.149 197.29
L354.066 200.786
L354.984 191.99
L355.901 161.392
L356.818 167.261
L357.735 203.548
L358.653 228.659
L359.57 233.189
L360.487 195.21
L361.404 230.913
L362.322 227.529
L363.239 211.947
L364.156 218.577
L365.073 239.118
L365.073 239.118" style="fill:none;stroke:#000000;stroke-linecap:square;"/>
   </g>
   <g id="patch_3">
    <path d="
M31.1906 244.518
L31.1906 21.3181" style="fill:none;stroke:#000000;stroke-linecap:square;stroke-linejoin:miter;"/>
   </g>
   <g id="patch_4">
    <path d="
M365.991 244.518
L365.991 21.3181" style="fill:none;stroke:#000000;stroke-linecap:square;stroke-linejoin:miter;"/>
   </g>
   <g id="patch_5">
    <path d="
M31.1906 21.3181
L365.991 21.3181" style="fill:none;stroke:#000000;stroke-linecap:square;stroke-linejoin:miter;"/>
   </g>
   <g id="patch_6">
    <path d="
M31.1906 244.518
L365.991 244.518" style="fill:none;stroke:#000000;stroke-linecap:square;stroke-linejoin:miter;"/>
   </g>
   <g id="matplotlib.axis_1">
    <g id="xtick_1">
     <g id="line2d_15">
      <defs>
       <path d="
M0 0
L0 -4" id="mc7db9fdffb" style="stroke:#000000;stroke-width:0.5;"/>
      </defs>
      <g>
       <use style="stroke:#000000;stroke-width:0.5;" x="31.190625" xlink:href="#mc7db9fdffb" y="244.518125"/>
      </g>
     </g>
     <g id="line2d_16">
      <defs>
       <path d="
M0 0
L0 4" id="m5a7d422ac3" style="stroke:#000000;stroke-width:0.5;"/>
      </defs>
      <g>
       <use style="stroke:#000000;stroke-width:0.5;" x="31.190625" xlink:href="#m5a7d422ac3" y="21.318125"/>
      </g>
     </g>
     <g id="text_1">
      <!-- 0 -->
      <defs>
       <path d="
M31.7812 66.4062
Q24.1719 66.4062 20.3281 58.9062
Q16.5 51.4219 16.5 36.375
Q16.5 21.3906 20.3281 13.8906
Q24.1719 6.39062 31.7812 6.39062
Q39.4531 6.39062 43.2812 13.8906
Q47.125 21.3906 47.125 36.375
Q47.125 51.4219 43.2812 58.9062
Q39.4531 66.4062 31.7812 66.4062
M31.7812 74.2188
Q44.0469 74.2188 50.5156 64.5156
Q56.9844 54.8281 56.9844 36.375
Q56.9844 17.9688 50.5156 8.26562
Q44.0469 -1.42188 31.7812 -1.42188
Q19.5312 -1.42188 13.0625 8.26562
Q6.59375 17.9688 6.59375 36.375
Q6.59375 54.8281 13.0625 64.5156
Q19.5312 74.2188 31.7812 74.2188" id="BitstreamVeraSans-Roman-30"/>
      </defs>
      <g transform="translate(28.67109375 256.1165625)scale(0.1 -0.1)">
       <use xlink:href="#BitstreamVeraSans-Roman-30"/>
      </g>
     </g>
    </g>
    <g id="xtick_2">
     <g id="line2d_17">
      <g>
       <use style="stroke:#000000;stroke-width:0.5;" x="77.0536386986" xlink:href="#mc7db9fdffb" y="244.518125"/>
      </g>
     </g>
     <g id="line2d_18">
      <g>
       <use style="stroke:#000000;stroke-width:0.5;" x="77.0536386986" xlink:href="#m5a7d422ac3" y="21.318125"/>
      </g>
     </g>
     <g id="text_2">
      <!-- 50 -->
      <defs>
       <path d="
M10.7969 72.9062
L49.5156 72.9062
L49.5156 64.5938
L19.8281 64.5938
L19.8281 46.7344
Q21.9688 47.4688 24.1094 47.8281
Q26.2656 48.1875 28.4219 48.1875
Q40.625 48.1875 47.75 41.5
Q54.8906 34.8125 54.8906 23.3906
Q54.8906 11.625 47.5625 5.09375
Q40.2344 -1.42188 26.9062 -1.42188
Q22.3125 -1.42188 17.5469 -0.640625
Q12.7969 0.140625 7.71875 1.70312
L7.71875 11.625
Q12.1094 9.23438 16.7969 8.0625
Q21.4844 6.89062 26.7031 6.89062
Q35.1562 6.89062 40.0781 11.3281
Q45.0156 15.7656 45.0156 23.3906
Q45.0156 31 40.0781 35.4375
Q35.1562 39.8906 26.7031 39.8906
Q22.75 39.8906 18.8125 39.0156
Q14.8906 38.1406 10.7969 36.2812
z
" id="BitstreamVeraSans-Roman-35"/>
      </defs>
      <g transform="translate(71.4091074486 256.1165625)scale(0.1 -0.1)">
       <use xlink:href="#BitstreamVeraSans-Roman-35"/>
       <use x="63.623046875" xlink:href="#BitstreamVeraSans-Roman-30"/>
      </g>
     </g>
    </g>
    <g id="xtick_3">
     <g id="line2d_19">
      <g>
       <use style="stroke:#000000;stroke-width:0.5;" x="122.916652397" xlink:href="#mc7db9fdffb" y="244.518125"/>
      </g>
     </g>
     <g id="line2d_20">
      <g>
       <use style="stroke:#000000;stroke-width:0.5;" x="122.916652397" xlink:href="#m5a7d422ac3" y="21.318125"/>
      </g>
     </g>
     <g id="text_3">
      <!-- 100 -->
      <defs>
       <path d="
M12.4062 8.29688
L28.5156 8.29688
L28.5156 63.9219
L10.9844 60.4062
L10.9844 69.3906
L28.4219 72.9062
L38.2812 72.9062
L38.2812 8.29688
L54.3906 8.29688
L54.3906 0
L12.4062 0
z
" id="BitstreamVeraSans-Roman-31"/>
      </defs>
      <g transform="translate(114.254152397 256.1165625)scale(0.1 -0.1)">
       <use xlink:href="#BitstreamVeraSans-Roman-31"/>
       <use x="63.623046875" xlink:href="#BitstreamVeraSans-Roman-30"/>
       <use x="127.24609375" xlink:href="#BitstreamVeraSans-Roman-30"/>
      </g>
     </g>
    </g>
    <g id="xtick_4">
     <g id="line2d_21">
      <g>
       <use style="stroke:#000000;stroke-width:0.5;" x="168.779666096" xlink:href="#mc7db9fdffb" y="244.518125"/>
      </g>
     </g>
     <g id="line2d_22">
      <g>
       <use style="stroke:#000000;stroke-width:0.5;" x="168.779666096" xlink:href="#m5a7d422ac3" y="21.318125"/>
      </g>
     </g>
     <g id="text_4">
      <!-- 150 -->
      <g transform="translate(160.117166096 256.1165625)scale(0.1 -0.1)">
       <use xlink:href="#BitstreamVeraSans-Roman-31"/>
       <use x="63.623046875" xlink:href="#BitstreamVeraSans-Roman-35"/>
       <use x="127.24609375" xlink:href="#BitstreamVeraSans-Roman-30"/>
      </g>
     </g>
    </g>
    <g id="xtick_5">
     <g id="line2d_23">
      <g>
       <use style="stroke:#000000;stroke-width:0.5;" x="214.642679795" xlink:href="#mc7db9fdffb" y="244.518125"/>
      </g>
     </g>
     <g id="line2d_24">
      <g>
       <use style="stroke:#000000;stroke-width:0.5;" x="214.642679795" xlink:href="#m5a7d422ac3" y="21.318125"/>
      </g>
     </g>
     <g id="text_5">
      <!-- 200 -->
      <defs>
       <path d="
M19.1875 8.29688
L53.6094 8.29688
L53.6094 0
L7.32812 0
L7.32812 8.29688
Q12.9375 14.1094 22.625 23.8906
Q32.3281 33.6875 34.8125 36.5312
Q39.5469 41.8438 41.4219 45.5312
Q43.3125 49.2188 43.3125 52.7812
Q43.3125 58.5938 39.2344 62.25
Q35.1562 65.9219 28.6094 65.9219
Q23.9688 65.9219 18.8125 64.3125
Q13.6719 62.7031 7.8125 59.4219
L7.8125 69.3906
Q13.7656 71.7812 18.9375 73
Q24.125 74.2188 28.4219 74.2188
Q39.75 74.2188 46.4844 68.5469
Q53.2188 62.8906 53.2188 53.4219
Q53.2188 48.9219 51.5312 44.8906
Q49.8594 40.875 45.4062 35.4062
Q44.1875 33.9844 37.6406 27.2188
Q31.1094 20.4531 19.1875 8.29688" id="BitstreamVeraSans-Roman-32"/>
      </defs>
      <g transform="translate(205.797367295 256.1165625)scale(0.1 -0.1)">
       <use xlink:href="#BitstreamVeraSans-Roman-32"/>
       <use x="63.623046875" xlink:href="#BitstreamVeraSans-Roman-30"/>
       <use x="127.24609375" xlink:href="#BitstreamVeraSans-Roman-30"/>
      </g>
     </g>
    </g>
    <g id="xtick_6">
     <g id="line2d_25">
      <g>
       <use style="stroke:#000000;stroke-width:0.5;" x="260.505693493" xlink:href="#mc7db9fdffb" y="244.518125"/>
      </g>
     </g>
     <g id="line2d_26">
      <g>
       <use style="stroke:#000000;stroke-width:0.5;" x="260.505693493" xlink:href="#m5a7d422ac3" y="21.318125"/>
      </g>
     </g>
     <g id="text_6">
      <!-- 250 -->
      <g transform="translate(251.660380993 256.1165625)scale(0.1 -0.1)">
       <use xlink:href="#BitstreamVeraSans-Roman-32"/>
       <use x="63.623046875" xlink:href="#BitstreamVeraSans-Roman-35"/>
       <use x="127.24609375" xlink:href="#BitstreamVeraSans-Roman-30"/>
      </g>
     </g>
    </g>
    <g id="xtick_7">
     <g id="line2d_27">
      <g>
       <use style="stroke:#000000;stroke-width:0.5;" x="306.368707192" xlink:href="#mc7db9fdffb" y="244.518125"/>
      </g>
     </g>
     <g id="line2d_28">
      <g>
       <use style="stroke:#000000;stroke-width:0.5;" x="306.368707192" xlink:href="#m5a7d422ac3" y="21.318125"/>
      </g>
     </g>
     <g id="text_7">
      <!-- 300 -->
      <defs>
       <path d="
M40.5781 39.3125
Q47.6562 37.7969 51.625 33
Q55.6094 28.2188 55.6094 21.1875
Q55.6094 10.4062 48.1875 4.48438
Q40.7656 -1.42188 27.0938 -1.42188
Q22.5156 -1.42188 17.6562 -0.515625
Q12.7969 0.390625 7.625 2.20312
L7.625 11.7188
Q11.7188 9.32812 16.5938 8.10938
Q21.4844 6.89062 26.8125 6.89062
Q36.0781 6.89062 40.9375 10.5469
Q45.7969 14.2031 45.7969 21.1875
Q45.7969 27.6406 41.2812 31.2656
Q36.7656 34.9062 28.7188 34.9062
L20.2188 34.9062
L20.2188 43.0156
L29.1094 43.0156
Q36.375 43.0156 40.2344 45.9219
Q44.0938 48.8281 44.0938 54.2969
Q44.0938 59.9062 40.1094 62.9062
Q36.1406 65.9219 28.7188 65.9219
Q24.6562 65.9219 20.0156 65.0312
Q15.375 64.1562 9.8125 62.3125
L9.8125 71.0938
Q15.4375 72.6562 20.3438 73.4375
Q25.25 74.2188 29.5938 74.2188
Q40.8281 74.2188 47.3594 69.1094
Q53.9062 64.0156 53.9062 55.3281
Q53.9062 49.2656 50.4375 45.0938
Q46.9688 40.9219 40.5781 39.3125" id="BitstreamVeraSans-Roman-33"/>
      </defs>
      <g transform="translate(297.538238442 256.1165625)scale(0.1 -0.1)">
       <use xlink:href="#BitstreamVeraSans-Roman-33"/>
       <use x="63.623046875" xlink:href="#BitstreamVeraSans-Roman-30"/>
       <use x="127.24609375" xlink:href="#BitstreamVeraSans-Roman-30"/>
      </g>
     </g>
    </g>
    <g id="xtick_8">
     <g id="line2d_29">
      <g>
       <use style="stroke:#000000;stroke-width:0.5;" x="352.23172089" xlink:href="#mc7db9fdffb" y="244.518125"/>
      </g>
     </g>
     <g id="line2d_30">
      <g>
       <use style="stroke:#000000;stroke-width:0.5;" x="352.23172089" xlink:href="#m5a7d422ac3" y="21.318125"/>
      </g>
     </g>
     <g id="text_8">
      <!-- 350 -->
      <g transform="translate(343.40125214 256.1165625)scale(0.1 -0.1)">
       <use xlink:href="#BitstreamVeraSans-Roman-33"/>
       <use x="63.623046875" xlink:href="#BitstreamVeraSans-Roman-35"/>
       <use x="127.24609375" xlink:href="#BitstreamVeraSans-Roman-30"/>
      </g>
     </g>
    </g>
    <g id="text_9">
     <!-- Julian day -->
     <defs>
      <path d="
M9.42188 75.9844
L18.4062 75.9844
L18.4062 0
L9.42188 0
z
" id="BitstreamVeraSans-Roman-6c"/>
      <path d="
M54.8906 33.0156
L54.8906 0
L45.9062 0
L45.9062 32.7188
Q45.9062 40.4844 42.875 44.3281
Q39.8438 48.1875 33.7969 48.1875
Q26.5156 48.1875 22.3125 43.5469
Q18.1094 38.9219 18.1094 30.9062
L18.1094 0
L9.07812 0
L9.07812 54.6875
L18.1094 54.6875
L18.1094 46.1875
Q21.3438 51.125 25.7031 53.5625
Q30.0781 56 35.7969 56
Q45.2188 56 50.0469 50.1719
Q54.8906 44.3438 54.8906 33.0156" id="BitstreamVeraSans-Roman-6e"/>
      <path d="
M32.1719 -5.07812
Q28.375 -14.8438 24.75 -17.8125
Q21.1406 -20.7969 15.0938 -20.7969
L7.90625 -20.7969
L7.90625 -13.2812
L13.1875 -13.2812
Q16.8906 -13.2812 18.9375 -11.5156
Q21 -9.76562 23.4844 -3.21875
L25.0938 0.875
L2.98438 54.6875
L12.5 54.6875
L29.5938 11.9219
L46.6875 54.6875
L56.2031 54.6875
z
" id="BitstreamVeraSans-Roman-79"/>
      <path d="
M34.2812 27.4844
Q23.3906 27.4844 19.1875 25
Q14.9844 22.5156 14.9844 16.5
Q14.9844 11.7188 18.1406 8.90625
Q21.2969 6.10938 26.7031 6.10938
Q34.1875 6.10938 38.7031 11.4062
Q43.2188 16.7031 43.2188 25.4844
L43.2188 27.4844
z

M52.2031 31.2031
L52.2031 0
L43.2188 0
L43.2188 8.29688
Q40.1406 3.32812 35.5469 0.953125
Q30.9531 -1.42188 24.3125 -1.42188
Q15.9219 -1.42188 10.9531 3.29688
Q6 8.01562 6 15.9219
Q6 25.1406 12.1719 29.8281
Q18.3594 34.5156 30.6094 34.5156
L43.2188 34.5156
L43.2188 35.4062
Q43.2188 41.6094 39.1406 45
Q35.0625 48.3906 27.6875 48.3906
Q23 48.3906 18.5469 47.2656
Q14.1094 46.1406 10.0156 43.8906
L10.0156 52.2031
Q14.9375 54.1094 19.5781 55.0469
Q24.2188 56 28.6094 56
Q40.4844 56 46.3438 49.8438
Q52.2031 43.7031 52.2031 31.2031" id="BitstreamVeraSans-Roman-61"/>
      <path id="BitstreamVeraSans-Roman-20"/>
      <path d="
M8.5 21.5781
L8.5 54.6875
L17.4844 54.6875
L17.4844 21.9219
Q17.4844 14.1562 20.5 10.2656
Q23.5312 6.39062 29.5938 6.39062
Q36.8594 6.39062 41.0781 11.0312
Q45.3125 15.6719 45.3125 23.6875
L45.3125 54.6875
L54.2969 54.6875
L54.2969 0
L45.3125 0
L45.3125 8.40625
Q42.0469 3.42188 37.7188 1
Q33.4062 -1.42188 27.6875 -1.42188
Q18.2656 -1.42188 13.375 4.4375
Q8.5 10.2969 8.5 21.5781" id="BitstreamVeraSans-Roman-75"/>
      <path d="
M45.4062 46.3906
L45.4062 75.9844
L54.3906 75.9844
L54.3906 0
L45.4062 0
L45.4062 8.20312
Q42.5781 3.32812 38.25 0.953125
Q33.9375 -1.42188 27.875 -1.42188
Q17.9688 -1.42188 11.7344 6.48438
Q5.51562 14.4062 5.51562 27.2969
Q5.51562 40.1875 11.7344 48.0938
Q17.9688 56 27.875 56
Q33.9375 56 38.25 53.625
Q42.5781 51.2656 45.4062 46.3906
M14.7969 27.2969
Q14.7969 17.3906 18.875 11.75
Q22.9531 6.10938 30.0781 6.10938
Q37.2031 6.10938 41.2969 11.75
Q45.4062 17.3906 45.4062 27.2969
Q45.4062 37.2031 41.2969 42.8438
Q37.2031 48.4844 30.0781 48.4844
Q22.9531 48.4844 18.875 42.8438
Q14.7969 37.2031 14.7969 27.2969" id="BitstreamVeraSans-Roman-64"/>
      <path d="
M9.8125 72.9062
L19.6719 72.9062
L19.6719 5.07812
Q19.6719 -8.10938 14.6719 -14.0625
Q9.67188 -20.0156 -1.42188 -20.0156
L-5.17188 -20.0156
L-5.17188 -11.7188
L-2.09375 -11.7188
Q4.4375 -11.7188 7.125 -8.04688
Q9.8125 -4.39062 9.8125 5.07812
z
" id="BitstreamVeraSans-Roman-4a"/>
      <path d="
M9.42188 54.6875
L18.4062 54.6875
L18.4062 0
L9.42188 0
z

M9.42188 75.9844
L18.4062 75.9844
L18.4062 64.5938
L9.42188 64.5938
z
" id="BitstreamVeraSans-Roman-69"/>
     </defs>
     <g transform="translate(174.03984375 270.7946875)scale(0.1 -0.1)">
      <use xlink:href="#BitstreamVeraSans-Roman-4a"/>
      <use x="29.4921875" xlink:href="#BitstreamVeraSans-Roman-75"/>
      <use x="92.87109375" xlink:href="#BitstreamVeraSans-Roman-6c"/>
      <use x="120.654296875" xlink:href="#BitstreamVeraSans-Roman-69"/>
      <use x="148.4375" xlink:href="#BitstreamVeraSans-Roman-61"/>
      <use x="209.716796875" xlink:href="#BitstreamVeraSans-Roman-6e"/>
      <use x="273.095703125" xlink:href="#BitstreamVeraSans-Roman-20"/>
      <use x="304.8828125" xlink:href="#BitstreamVeraSans-Roman-64"/>
      <use x="368.359375" xlink:href="#BitstreamVeraSans-Roman-61"/>
      <use x="429.638671875" xlink:href="#BitstreamVeraSans-Roman-79"/>
     </g>
    </g>
   </g>
   <g id="matplotlib.axis_2">
    <g id="ytick_1">
     <g id="line2d_31">
      <defs>
       <path d="
M0 0
L4 0" id="md7965d1ba0" style="stroke:#000000;stroke-width:0.5;"/>
      </defs>
      <g>
       <use style="stroke:#000000;stroke-width:0.5;" x="31.190625" xlink:href="#md7965d1ba0" y="244.518125"/>
      </g>
     </g>
     <g id="line2d_32">
      <defs>
       <path d="
M0 0
L-4 0" id="md9a1c1a7cd" style="stroke:#000000;stroke-width:0.5;"/>
      </defs>
      <g>
       <use style="stroke:#000000;stroke-width:0.5;" x="365.990625" xlink:href="#md9a1c1a7cd" y="244.518125"/>
      </g>
     </g>
     <g id="text_10">
      <!-- 0 -->
      <g transform="translate(22.1515625 247.2775)scale(0.1 -0.1)">
       <use xlink:href="#BitstreamVeraSans-Roman-30"/>
      </g>
     </g>
    </g>
    <g id="ytick_2">
     <g id="line2d_33">
      <g>
       <use style="stroke:#000000;stroke-width:0.5;" x="31.190625" xlink:href="#md7965d1ba0" y="212.632410714"/>
      </g>
     </g>
     <g id="line2d_34">
      <g>
       <use style="stroke:#000000;stroke-width:0.5;" x="365.990625" xlink:href="#md9a1c1a7cd" y="212.632410714"/>
      </g>
     </g>
     <g id="text_11">
      <!-- 1 -->
      <g transform="translate(22.85 215.391785714)scale(0.1 -0.1)">
       <use xlink:href="#BitstreamVeraSans-Roman-31"/>
      </g>
     </g>
    </g>
    <g id="ytick_3">
     <g id="line2d_35">
      <g>
       <use style="stroke:#000000;stroke-width:0.5;" x="31.190625" xlink:href="#md7965d1ba0" y="180.746696429"/>
      </g>
     </g>
     <g id="line2d_36">
      <g>
       <use style="stroke:#000000;stroke-width:0.5;" x="365.990625" xlink:href="#md9a1c1a7cd" y="180.746696429"/>
      </g>
     </g>
     <g id="text_12">
      <!-- 2 -->
      <g transform="translate(22.5625 183.506071429)scale(0.1 -0.1)">
       <use xlink:href="#BitstreamVeraSans-Roman-32"/>
      </g>
     </g>
    </g>
    <g id="ytick_4">
     <g id="line2d_37">
      <g>
       <use style="stroke:#000000;stroke-width:0.5;" x="31.190625" xlink:href="#md7965d1ba0" y="148.860982143"/>
      </g>
     </g>
     <g id="line2d_38">
      <g>
       <use style="stroke:#000000;stroke-width:0.5;" x="365.990625" xlink:href="#md9a1c1a7cd" y="148.860982143"/>
      </g>
     </g>
     <g id="text_13">
      <!-- 3 -->
      <g transform="translate(22.3921875 151.620357143)scale(0.1 -0.1)">
       <use xlink:href="#BitstreamVeraSans-Roman-33"/>
      </g>
     </g>
    </g>
    <g id="ytick_5">
     <g id="line2d_39">
      <g>
       <use style="stroke:#000000;stroke-width:0.5;" x="31.190625" xlink:href="#md7965d1ba0" y="116.975267857"/>
      </g>
     </g>
     <g id="line2d_40">
      <g>
       <use style="stroke:#000000;stroke-width:0.5;" x="365.990625" xlink:href="#md9a1c1a7cd" y="116.975267857"/>
      </g>
     </g>
     <g id="text_14">
      <!-- 4 -->
      <defs>
       <path d="
M37.7969 64.3125
L12.8906 25.3906
L37.7969 25.3906
z

M35.2031 72.9062
L47.6094 72.9062
L47.6094 25.3906
L58.0156 25.3906
L58.0156 17.1875
L47.6094 17.1875
L47.6094 0
L37.7969 0
L37.7969 17.1875
L4.89062 17.1875
L4.89062 26.7031
z
" id="BitstreamVeraSans-Roman-34"/>
      </defs>
      <g transform="translate(21.878125 119.734642857)scale(0.1 -0.1)">
       <use xlink:href="#BitstreamVeraSans-Roman-34"/>
      </g>
     </g>
    </g>
    <g id="ytick_6">
     <g id="line2d_41">
      <g>
       <use style="stroke:#000000;stroke-width:0.5;" x="31.190625" xlink:href="#md7965d1ba0" y="85.0895535714"/>
      </g>
     </g>
     <g id="line2d_42">
      <g>
       <use style="stroke:#000000;stroke-width:0.5;" x="365.990625" xlink:href="#md9a1c1a7cd" y="85.0895535714"/>
      </g>
     </g>
     <g id="text_15">
      <!-- 5 -->
      <g transform="translate(22.4734375 87.8489285714)scale(0.1 -0.1)">
       <use xlink:href="#BitstreamVeraSans-Roman-35"/>
      </g>
     </g>
    </g>
    <g id="ytick_7">
     <g id="line2d_43">
      <g>
       <use style="stroke:#000000;stroke-width:0.5;" x="31.190625" xlink:href="#md7965d1ba0" y="53.2038392857"/>
      </g>
     </g>
     <g id="line2d_44">
      <g>
       <use style="stroke:#000000;stroke-width:0.5;" x="365.990625" xlink:href="#md9a1c1a7cd" y="53.2038392857"/>
      </g>
     </g>
     <g id="text_16">
      <!-- 6 -->
      <defs>
       <path d="
M33.0156 40.375
Q26.375 40.375 22.4844 35.8281
Q18.6094 31.2969 18.6094 23.3906
Q18.6094 15.5312 22.4844 10.9531
Q26.375 6.39062 33.0156 6.39062
Q39.6562 6.39062 43.5312 10.9531
Q47.4062 15.5312 47.4062 23.3906
Q47.4062 31.2969 43.5312 35.8281
Q39.6562 40.375 33.0156 40.375
M52.5938 71.2969
L52.5938 62.3125
Q48.875 64.0625 45.0938 64.9844
Q41.3125 65.9219 37.5938 65.9219
Q27.8281 65.9219 22.6719 59.3281
Q17.5312 52.7344 16.7969 39.4062
Q19.6719 43.6562 24.0156 45.9219
Q28.375 48.1875 33.5938 48.1875
Q44.5781 48.1875 50.9531 41.5156
Q57.3281 34.8594 57.3281 23.3906
Q57.3281 12.1562 50.6875 5.35938
Q44.0469 -1.42188 33.0156 -1.42188
Q20.3594 -1.42188 13.6719 8.26562
Q6.98438 17.9688 6.98438 36.375
Q6.98438 53.6562 15.1875 63.9375
Q23.3906 74.2188 37.2031 74.2188
Q40.9219 74.2188 44.7031 73.4844
Q48.4844 72.75 52.5938 71.2969" id="BitstreamVeraSans-Roman-36"/>
      </defs>
      <g transform="translate(22.15625 55.9632142857)scale(0.1 -0.1)">
       <use xlink:href="#BitstreamVeraSans-Roman-36"/>
      </g>
     </g>
    </g>
    <g id="ytick_8">
     <g id="line2d_45">
      <g>
       <use style="stroke:#000000;stroke-width:0.5;" x="31.190625" xlink:href="#md7965d1ba0" y="21.318125"/>
      </g>
     </g>
     <g id="line2d_46">
      <g>
       <use style="stroke:#000000;stroke-width:0.5;" x="365.990625" xlink:href="#md9a1c1a7cd" y="21.318125"/>
      </g>
     </g>
     <g id="text_17">
      <!-- 7 -->
      <defs>
       <path d="
M8.20312 72.9062
L55.0781 72.9062
L55.0781 68.7031
L28.6094 0
L18.3125 0
L43.2188 64.5938
L8.20312 64.5938
z
" id="BitstreamVeraSans-Roman-37"/>
      </defs>
      <g transform="translate(22.503125 24.0775)scale(0.1 -0.1)">
       <use xlink:href="#BitstreamVeraSans-Roman-37"/>
      </g>
     </g>
    </g>
    <g id="text_18">
     <!-- PET (mm/day) -->
     <defs>
      <path d="
M19.6719 64.7969
L19.6719 37.4062
L32.0781 37.4062
Q38.9688 37.4062 42.7188 40.9688
Q46.4844 44.5312 46.4844 51.125
Q46.4844 57.6719 42.7188 61.2344
Q38.9688 64.7969 32.0781 64.7969
z

M9.8125 72.9062
L32.0781 72.9062
Q44.3438 72.9062 50.6094 67.3594
Q56.8906 61.8125 56.8906 51.125
Q56.8906 40.3281 50.6094 34.8125
Q44.3438 29.2969 32.0781 29.2969
L19.6719 29.2969
L19.6719 0
L9.8125 0
z
" id="BitstreamVeraSans-Roman-50"/>
      <path d="
M9.8125 72.9062
L55.9062 72.9062
L55.9062 64.5938
L19.6719 64.5938
L19.6719 43.0156
L54.3906 43.0156
L54.3906 34.7188
L19.6719 34.7188
L19.6719 8.29688
L56.7812 8.29688
L56.7812 0
L9.8125 0
z
" id="BitstreamVeraSans-Roman-45"/>
      <path d="
M-0.296875 72.9062
L61.375 72.9062
L61.375 64.5938
L35.5 64.5938
L35.5 0
L25.5938 0
L25.5938 64.5938
L-0.296875 64.5938
z
" id="BitstreamVeraSans-Roman-54"/>
      <path d="
M25.3906 72.9062
L33.6875 72.9062
L8.29688 -9.28125
L0 -9.28125
z
" id="BitstreamVeraSans-Roman-2f"/>
      <path d="
M8.01562 75.875
L15.8281 75.875
Q23.1406 64.3594 26.7812 53.3125
Q30.4219 42.2812 30.4219 31.3906
Q30.4219 20.4531 26.7812 9.375
Q23.1406 -1.70312 15.8281 -13.1875
L8.01562 -13.1875
Q14.5 -2 17.7031 9.0625
Q20.9062 20.125 20.9062 31.3906
Q20.9062 42.6719 17.7031 53.6562
Q14.5 64.6562 8.01562 75.875" id="BitstreamVeraSans-Roman-29"/>
      <path d="
M31 75.875
Q24.4688 64.6562 21.2812 53.6562
Q18.1094 42.6719 18.1094 31.3906
Q18.1094 20.125 21.3125 9.0625
Q24.5156 -2 31 -13.1875
L23.1875 -13.1875
Q15.875 -1.70312 12.2344 9.375
Q8.59375 20.4531 8.59375 31.3906
Q8.59375 42.2812 12.2031 53.3125
Q15.8281 64.3594 23.1875 75.875
z
" id="BitstreamVeraSans-Roman-28"/>
      <path d="
M52 44.1875
Q55.375 50.25 60.0625 53.125
Q64.75 56 71.0938 56
Q79.6406 56 84.2812 50.0156
Q88.9219 44.0469 88.9219 33.0156
L88.9219 0
L79.8906 0
L79.8906 32.7188
Q79.8906 40.5781 77.0938 44.375
Q74.3125 48.1875 68.6094 48.1875
Q61.625 48.1875 57.5625 43.5469
Q53.5156 38.9219 53.5156 30.9062
L53.5156 0
L44.4844 0
L44.4844 32.7188
Q44.4844 40.625 41.7031 44.4062
Q38.9219 48.1875 33.1094 48.1875
Q26.2188 48.1875 22.1562 43.5312
Q18.1094 38.875 18.1094 30.9062
L18.1094 0
L9.07812 0
L9.07812 54.6875
L18.1094 54.6875
L18.1094 46.1875
Q21.1875 51.2188 25.4844 53.6094
Q29.7812 56 35.6875 56
Q41.6562 56 45.8281 52.9688
Q50 49.9531 52 44.1875" id="BitstreamVeraSans-Roman-6d"/>
     </defs>
     <g transform="translate(14.7984375 167.82984375)rotate(-90.0)scale(0.1 -0.1)">
      <use xlink:href="#BitstreamVeraSans-Roman-50"/>
      <use x="60.302734375" xlink:href="#BitstreamVeraSans-Roman-45"/>
      <use x="123.486328125" xlink:href="#BitstreamVeraSans-Roman-54"/>
      <use x="184.5703125" xlink:href="#BitstreamVeraSans-Roman-20"/>
      <use x="216.357421875" xlink:href="#BitstreamVeraSans-Roman-28"/>
      <use x="255.37109375" xlink:href="#BitstreamVeraSans-Roman-6d"/>
      <use x="352.783203125" xlink:href="#BitstreamVeraSans-Roman-6d"/>
      <use x="450.1953125" xlink:href="#BitstreamVeraSans-Roman-2f"/>
      <use x="483.88671875" xlink:href="#BitstreamVeraSans-Roman-64"/>
      <use x="547.36328125" xlink:href="#BitstreamVeraSans-Roman-61"/>
      <use x="608.642578125" xlink:href="#BitstreamVeraSans-Roman-79"/>
      <use x="667.822265625" xlink:href="#BitstreamVeraSans-Roman-29"/>
     </g>
    </g>
   </g>
   <g id="text_19">
    <!-- daily shrub PET at LowerWeather -->
    <defs>
     <path d="
M44.2812 53.0781
L44.2812 44.5781
Q40.4844 46.5312 36.375 47.5
Q32.2812 48.4844 27.875 48.4844
Q21.1875 48.4844 17.8438 46.4375
Q14.5 44.3906 14.5 40.2812
Q14.5 37.1562 16.8906 35.375
Q19.2812 33.5938 26.5156 31.9844
L29.5938 31.2969
Q39.1562 29.25 43.1875 25.5156
Q47.2188 21.7812 47.2188 15.0938
Q47.2188 7.46875 41.1875 3.01562
Q35.1562 -1.42188 24.6094 -1.42188
Q20.2188 -1.42188 15.4531 -0.5625
Q10.6875 0.296875 5.42188 2
L5.42188 11.2812
Q10.4062 8.6875 15.2344 7.39062
Q20.0625 6.10938 24.8125 6.10938
Q31.1562 6.10938 34.5625 8.28125
Q37.9844 10.4531 37.9844 14.4062
Q37.9844 18.0625 35.5156 20.0156
Q33.0625 21.9688 24.7031 23.7812
L21.5781 24.5156
Q13.2344 26.2656 9.51562 29.9062
Q5.8125 33.5469 5.8125 39.8906
Q5.8125 47.6094 11.2812 51.7969
Q16.75 56 26.8125 56
Q31.7812 56 36.1719 55.2656
Q40.5781 54.5469 44.2812 53.0781" id="BitstreamVeraSans-Roman-73"/>
     <path d="
M54.8906 33.0156
L54.8906 0
L45.9062 0
L45.9062 32.7188
Q45.9062 40.4844 42.875 44.3281
Q39.8438 48.1875 33.7969 48.1875
Q26.5156 48.1875 22.3125 43.5469
Q18.1094 38.9219 18.1094 30.9062
L18.1094 0
L9.07812 0
L9.07812 75.9844
L18.1094 75.9844
L18.1094 46.1875
Q21.3438 51.125 25.7031 53.5625
Q30.0781 56 35.7969 56
Q45.2188 56 50.0469 50.1719
Q54.8906 44.3438 54.8906 33.0156" id="BitstreamVeraSans-Roman-68"/>
     <path d="
M4.20312 54.6875
L13.1875 54.6875
L24.4219 12.0156
L35.5938 54.6875
L46.1875 54.6875
L57.4219 12.0156
L68.6094 54.6875
L77.5938 54.6875
L63.2812 0
L52.6875 0
L40.9219 44.8281
L29.1094 0
L18.5 0
z
" id="BitstreamVeraSans-Roman-77"/>
     <path d="
M56.2031 29.5938
L56.2031 25.2031
L14.8906 25.2031
Q15.4844 15.9219 20.4844 11.0625
Q25.4844 6.20312 34.4219 6.20312
Q39.5938 6.20312 44.4531 7.46875
Q49.3125 8.73438 54.1094 11.2812
L54.1094 2.78125
Q49.2656 0.734375 44.1875 -0.34375
Q39.1094 -1.42188 33.8906 -1.42188
Q20.7969 -1.42188 13.1562 6.1875
Q5.51562 13.8125 5.51562 26.8125
Q5.51562 40.2344 12.7656 48.1094
Q20.0156 56 32.3281 56
Q43.3594 56 49.7812 48.8906
Q56.2031 41.7969 56.2031 29.5938
M47.2188 32.2344
Q47.125 39.5938 43.0938 43.9844
Q39.0625 48.3906 32.4219 48.3906
Q24.9062 48.3906 20.3906 44.1406
Q15.875 39.8906 15.1875 32.1719
z
" id="BitstreamVeraSans-Roman-65"/>
     <path d="
M48.6875 27.2969
Q48.6875 37.2031 44.6094 42.8438
Q40.5312 48.4844 33.4062 48.4844
Q26.2656 48.4844 22.1875 42.8438
Q18.1094 37.2031 18.1094 27.2969
Q18.1094 17.3906 22.1875 11.75
Q26.2656 6.10938 33.4062 6.10938
Q40.5312 6.10938 44.6094 11.75
Q48.6875 17.3906 48.6875 27.2969
M18.1094 46.3906
Q20.9531 51.2656 25.2656 53.625
Q29.5938 56 35.5938 56
Q45.5625 56 51.7812 48.0938
Q58.0156 40.1875 58.0156 27.2969
Q58.0156 14.4062 51.7812 6.48438
Q45.5625 -1.42188 35.5938 -1.42188
Q29.5938 -1.42188 25.2656 0.953125
Q20.9531 3.32812 18.1094 8.20312
L18.1094 0
L9.07812 0
L9.07812 75.9844
L18.1094 75.9844
z
" id="BitstreamVeraSans-Roman-62"/>
     <path d="
M9.8125 72.9062
L19.6719 72.9062
L19.6719 8.29688
L55.1719 8.29688
L55.1719 0
L9.8125 0
z
" id="BitstreamVeraSans-Roman-4c"/>
     <path d="
M41.1094 46.2969
Q39.5938 47.1719 37.8125 47.5781
Q36.0312 48 33.8906 48
Q26.2656 48 22.1875 43.0469
Q18.1094 38.0938 18.1094 28.8125
L18.1094 0
L9.07812 0
L9.07812 54.6875
L18.1094 54.6875
L18.1094 46.1875
Q20.9531 51.1719 25.4844 53.5781
Q30.0312 56 36.5312 56
Q37.4531 56 38.5781 55.875
Q39.7031 55.7656 41.0625 55.5156
z
" id="BitstreamVeraSans-Roman-72"/>
     <path d="
M18.3125 70.2188
L18.3125 54.6875
L36.8125 54.6875
L36.8125 47.7031
L18.3125 47.7031
L18.3125 18.0156
Q18.3125 11.3281 20.1406 9.42188
Q21.9688 7.51562 27.5938 7.51562
L36.8125 7.51562
L36.8125 0
L27.5938 0
Q17.1875 0 13.2344 3.875
Q9.28125 7.76562 9.28125 18.0156
L9.28125 47.7031
L2.6875 47.7031
L2.6875 54.6875
L9.28125 54.6875
L9.28125 70.2188
z
" id="BitstreamVeraSans-Roman-74"/>
     <path d="
M3.32812 72.9062
L13.2812 72.9062
L28.6094 11.2812
L43.8906 72.9062
L54.9844 72.9062
L70.3125 11.2812
L85.5938 72.9062
L95.6094 72.9062
L77.2969 0
L64.8906 0
L49.5156 63.2812
L33.9844 0
L21.5781 0
z
" id="BitstreamVeraSans-Roman-57"/>
     <path d="
M30.6094 48.3906
Q23.3906 48.3906 19.1875 42.75
Q14.9844 37.1094 14.9844 27.2969
Q14.9844 17.4844 19.1562 11.8438
Q23.3438 6.20312 30.6094 6.20312
Q37.7969 6.20312 41.9844 11.8594
Q46.1875 17.5312 46.1875 27.2969
Q46.1875 37.0156 41.9844 42.7031
Q37.7969 48.3906 30.6094 48.3906
M30.6094 56
Q42.3281 56 49.0156 48.375
Q55.7188 40.7656 55.7188 27.2969
Q55.7188 13.875 49.0156 6.21875
Q42.3281 -1.42188 30.6094 -1.42188
Q18.8438 -1.42188 12.1719 6.21875
Q5.51562 13.875 5.51562 27.2969
Q5.51562 40.7656 12.1719 48.375
Q18.8438 56 30.6094 56" id="BitstreamVeraSans-Roman-6f"/>
    </defs>
    <g transform="translate(99.2465625 16.318125)scale(0.12 -0.12)">
     <use xlink:href="#BitstreamVeraSans-Roman-64"/>
     <use x="63.4765625" xlink:href="#BitstreamVeraSans-Roman-61"/>
     <use x="124.755859375" xlink:href="#BitstreamVeraSans-Roman-69"/>
     <use x="152.5390625" xlink:href="#BitstreamVeraSans-Roman-6c"/>
     <use x="180.322265625" xlink:href="#BitstreamVeraSans-Roman-79"/>
     <use x="239.501953125" xlink:href="#BitstreamVeraSans-Roman-20"/>
     <use x="271.2890625" xlink:href="#BitstreamVeraSans-Roman-73"/>
     <use x="323.388671875" xlink:href="#BitstreamVeraSans-Roman-68"/>
     <use x="386.767578125" xlink:href="#BitstreamVeraSans-Roman-72"/>
     <use x="427.880859375" xlink:href="#BitstreamVeraSans-Roman-75"/>
     <use x="491.259765625" xlink:href="#BitstreamVeraSans-Roman-62"/>
     <use x="554.736328125" xlink:href="#BitstreamVeraSans-Roman-20"/>
     <use x="586.5234375" xlink:href="#BitstreamVeraSans-Roman-50"/>
     <use x="646.826171875" xlink:href="#BitstreamVeraSans-Roman-45"/>
     <use x="710.009765625" xlink:href="#BitstreamVeraSans-Roman-54"/>
     <use x="771.09375" xlink:href="#BitstreamVeraSans-Roman-20"/>
     <use x="802.880859375" xlink:href="#BitstreamVeraSans-Roman-61"/>
     <use x="864.16015625" xlink:href="#BitstreamVeraSans-Roman-74"/>
     <use x="903.369140625" xlink:href="#BitstreamVeraSans-Roman-20"/>
     <use x="935.15625" xlink:href="#BitstreamVeraSans-Roman-4c"/>
     <use x="989.119140625" xlink:href="#BitstreamVeraSans-Roman-6f"/>
     <use x="1050.30078125" xlink:href="#BitstreamVeraSans-Roman-77"/>
     <use x="1132.087890625" xlink:href="#BitstreamVeraSans-Roman-65"/>
     <use x="1193.611328125" xlink:href="#BitstreamVeraSans-Roman-72"/>
     <use x="1234.724609375" xlink:href="#BitstreamVeraSans-Roman-57"/>
     <use x="1327.7265625" xlink:href="#BitstreamVeraSans-Roman-65"/>
     <use x="1389.25" xlink:href="#BitstreamVeraSans-Roman-61"/>
     <use x="1450.529296875" xlink:href="#BitstreamVeraSans-Roman-74"/>
     <use x="1489.73828125" xlink:href="#BitstreamVeraSans-Roman-68"/>
     <use x="1553.1171875" xlink:href="#BitstreamVeraSans-Roman-65"/>
     <use x="1614.640625" xlink:href="#BitstreamVeraSans-Roman-72"/>
    </g>
   </g>
   <g id="legend_1">
    <g id="patch_7">
     <path d="
M287.803 277.511
L359.991 277.511
L359.991 27.3181
L287.803 27.3181
z
" style="fill:#ffffff;stroke:#000000;stroke-linejoin:miter;"/>
    </g>
    <g id="line2d_47">
     <path d="
M296.203 37.0362
L313.003 37.0362" style="fill:none;stroke:#0000ff;stroke-linecap:square;"/>
    </g>
    <g id="line2d_48"/>
    <g id="text_20">
     <!-- 1999 -->
     <defs>
      <path d="
M10.9844 1.51562
L10.9844 10.5
Q14.7031 8.73438 18.5 7.8125
Q22.3125 6.89062 25.9844 6.89062
Q35.75 6.89062 40.8906 13.4531
Q46.0469 20.0156 46.7812 33.4062
Q43.9531 29.2031 39.5938 26.9531
Q35.25 24.7031 29.9844 24.7031
Q19.0469 24.7031 12.6719 31.3125
Q6.29688 37.9375 6.29688 49.4219
Q6.29688 60.6406 12.9375 67.4219
Q19.5781 74.2188 30.6094 74.2188
Q43.2656 74.2188 49.9219 64.5156
Q56.5938 54.8281 56.5938 36.375
Q56.5938 19.1406 48.4062 8.85938
Q40.2344 -1.42188 26.4219 -1.42188
Q22.7031 -1.42188 18.8906 -0.6875
Q15.0938 0.046875 10.9844 1.51562
M30.6094 32.4219
Q37.25 32.4219 41.125 36.9531
Q45.0156 41.5 45.0156 49.4219
Q45.0156 57.2812 41.125 61.8438
Q37.25 66.4062 30.6094 66.4062
Q23.9688 66.4062 20.0938 61.8438
Q16.2188 57.2812 16.2188 49.4219
Q16.2188 41.5 20.0938 36.9531
Q23.9688 32.4219 30.6094 32.4219" id="BitstreamVeraSans-Roman-39"/>
     </defs>
     <g transform="translate(326.203125 41.23625)scale(0.12 -0.12)">
      <use xlink:href="#BitstreamVeraSans-Roman-31"/>
      <use x="63.623046875" xlink:href="#BitstreamVeraSans-Roman-39"/>
      <use x="127.24609375" xlink:href="#BitstreamVeraSans-Roman-39"/>
      <use x="190.869140625" xlink:href="#BitstreamVeraSans-Roman-39"/>
     </g>
    </g>
    <g id="line2d_49">
     <path d="
M296.203 54.65
L313.003 54.65" style="fill:none;stroke:#008000;stroke-linecap:square;"/>
    </g>
    <g id="line2d_50"/>
    <g id="text_21">
     <!-- 2000 -->
     <g transform="translate(326.203125 58.85)scale(0.12 -0.12)">
      <use xlink:href="#BitstreamVeraSans-Roman-32"/>
      <use x="63.623046875" xlink:href="#BitstreamVeraSans-Roman-30"/>
      <use x="127.24609375" xlink:href="#BitstreamVeraSans-Roman-30"/>
      <use x="190.869140625" xlink:href="#BitstreamVeraSans-Roman-30"/>
     </g>
    </g>
    <g id="line2d_51">
     <path d="
M296.203 72.2638
L313.003 72.2638" style="fill:none;stroke:#ff0000;stroke-linecap:square;"/>
    </g>
    <g id="line2d_52"/>
    <g id="text_22">
     <!-- 2001 -->
     <g transform="translate(326.203125 76.46375)scale(0.12 -0.12)">
      <use xlink:href="#BitstreamVeraSans-Roman-32"/>
      <use x="63.623046875" xlink:href="#BitstreamVeraSans-Roman-30"/>
      <use x="127.24609375" xlink:href="#BitstreamVeraSans-Roman-30"/>
      <use x="190.869140625" xlink:href="#BitstreamVeraSans-Roman-31"/>
     </g>
    </g>
    <g id="line2d_53">
     <path d="
M296.203 89.8775
L313.003 89.8775" style="fill:none;stroke:#00bfbf;stroke-linecap:square;"/>
    </g>
    <g id="line2d_54"/>
    <g id="text_23">
     <!-- 2002 -->
     <g transform="translate(326.203125 94.0775)scale(0.12 -0.12)">
      <use xlink:href="#BitstreamVeraSans-Roman-32"/>
      <use x="63.623046875" xlink:href="#BitstreamVeraSans-Roman-30"/>
      <use x="127.24609375" xlink:href="#BitstreamVeraSans-Roman-30"/>
      <use x="190.869140625" xlink:href="#BitstreamVeraSans-Roman-32"/>
     </g>
    </g>
    <g id="line2d_55">
     <path d="
M296.203 107.491
L313.003 107.491" style="fill:none;stroke:#bf00bf;stroke-linecap:square;"/>
    </g>
    <g id="line2d_56"/>
    <g id="text_24">
     <!-- 2003 -->
     <g transform="translate(326.203125 111.69125)scale(0.12 -0.12)">
      <use xlink:href="#BitstreamVeraSans-Roman-32"/>
      <use x="63.623046875" xlink:href="#BitstreamVeraSans-Roman-30"/>
      <use x="127.24609375" xlink:href="#BitstreamVeraSans-Roman-30"/>
      <use x="190.869140625" xlink:href="#BitstreamVeraSans-Roman-33"/>
     </g>
    </g>
    <g id="line2d_57">
     <path d="
M296.203 125.105
L313.003 125.105" style="fill:none;stroke:#bfbf00;stroke-linecap:square;"/>
    </g>
    <g id="line2d_58"/>
    <g id="text_25">
     <!-- 2004 -->
     <g transform="translate(326.203125 129.305)scale(0.12 -0.12)">
      <use xlink:href="#BitstreamVeraSans-Roman-32"/>
      <use x="63.623046875" xlink:href="#BitstreamVeraSans-Roman-30"/>
      <use x="127.24609375" xlink:href="#BitstreamVeraSans-Roman-30"/>
      <use x="190.869140625" xlink:href="#BitstreamVeraSans-Roman-34"/>
     </g>
    </g>
    <g id="line2d_59">
     <path d="
M296.203 142.719
L313.003 142.719" style="fill:none;stroke:#000000;stroke-linecap:square;"/>
    </g>
    <g id="line2d_60"/>
    <g id="text_26">
     <!-- 2005 -->
     <g transform="translate(326.203125 146.91875)scale(0.12 -0.12)">
      <use xlink:href="#BitstreamVeraSans-Roman-32"/>
      <use x="63.623046875" xlink:href="#BitstreamVeraSans-Roman-30"/>
      <use x="127.24609375" xlink:href="#BitstreamVeraSans-Roman-30"/>
      <use x="190.869140625" xlink:href="#BitstreamVeraSans-Roman-35"/>
     </g>
    </g>
    <g id="line2d_61">
     <path d="
M296.203 160.332
L313.003 160.332" style="fill:none;stroke:#0000ff;stroke-linecap:square;"/>
    </g>
    <g id="line2d_62"/>
    <g id="text_27">
     <!-- 2006 -->
     <g transform="translate(326.203125 164.5325)scale(0.12 -0.12)">
      <use xlink:href="#BitstreamVeraSans-Roman-32"/>
      <use x="63.623046875" xlink:href="#BitstreamVeraSans-Roman-30"/>
      <use x="127.24609375" xlink:href="#BitstreamVeraSans-Roman-30"/>
      <use x="190.869140625" xlink:href="#BitstreamVeraSans-Roman-36"/>
     </g>
    </g>
    <g id="line2d_63">
     <path d="
M296.203 177.946
L313.003 177.946" style="fill:none;stroke:#008000;stroke-linecap:square;"/>
    </g>
    <g id="line2d_64"/>
    <g id="text_28">
     <!-- 2007 -->
     <g transform="translate(326.203125 182.14625)scale(0.12 -0.12)">
      <use xlink:href="#BitstreamVeraSans-Roman-32"/>
      <use x="63.623046875" xlink:href="#BitstreamVeraSans-Roman-30"/>
      <use x="127.24609375" xlink:href="#BitstreamVeraSans-Roman-30"/>
      <use x="190.869140625" xlink:href="#BitstreamVeraSans-Roman-37"/>
     </g>
    </g>
    <g id="line2d_65">
     <path d="
M296.203 195.56
L313.003 195.56" style="fill:none;stroke:#ff0000;stroke-linecap:square;"/>
    </g>
    <g id="line2d_66"/>
    <g id="text_29">
     <!-- 2008 -->
     <defs>
      <path d="
M31.7812 34.625
Q24.75 34.625 20.7188 30.8594
Q16.7031 27.0938 16.7031 20.5156
Q16.7031 13.9219 20.7188 10.1562
Q24.75 6.39062 31.7812 6.39062
Q38.8125 6.39062 42.8594 10.1719
Q46.9219 13.9688 46.9219 20.5156
Q46.9219 27.0938 42.8906 30.8594
Q38.875 34.625 31.7812 34.625
M21.9219 38.8125
Q15.5781 40.375 12.0312 44.7188
Q8.5 49.0781 8.5 55.3281
Q8.5 64.0625 14.7188 69.1406
Q20.9531 74.2188 31.7812 74.2188
Q42.6719 74.2188 48.875 69.1406
Q55.0781 64.0625 55.0781 55.3281
Q55.0781 49.0781 51.5312 44.7188
Q48 40.375 41.7031 38.8125
Q48.8281 37.1562 52.7969 32.3125
Q56.7812 27.4844 56.7812 20.5156
Q56.7812 9.90625 50.3125 4.23438
Q43.8438 -1.42188 31.7812 -1.42188
Q19.7344 -1.42188 13.25 4.23438
Q6.78125 9.90625 6.78125 20.5156
Q6.78125 27.4844 10.7812 32.3125
Q14.7969 37.1562 21.9219 38.8125
M18.3125 54.3906
Q18.3125 48.7344 21.8438 45.5625
Q25.3906 42.3906 31.7812 42.3906
Q38.1406 42.3906 41.7188 45.5625
Q45.3125 48.7344 45.3125 54.3906
Q45.3125 60.0625 41.7188 63.2344
Q38.1406 66.4062 31.7812 66.4062
Q25.3906 66.4062 21.8438 63.2344
Q18.3125 60.0625 18.3125 54.3906" id="BitstreamVeraSans-Roman-38"/>
     </defs>
     <g transform="translate(326.203125 199.76)scale(0.12 -0.12)">
      <use xlink:href="#BitstreamVeraSans-Roman-32"/>
      <use x="63.623046875" xlink:href="#BitstreamVeraSans-Roman-30"/>
      <use x="127.24609375" xlink:href="#BitstreamVeraSans-Roman-30"/>
      <use x="190.869140625" xlink:href="#BitstreamVeraSans-Roman-38"/>
     </g>
    </g>
    <g id="line2d_67">
     <path d="
M296.203 213.174
L313.003 213.174" style="fill:none;stroke:#00bfbf;stroke-linecap:square;"/>
    </g>
    <g id="line2d_68"/>
    <g id="text_30">
     <!-- 2009 -->
     <g transform="translate(326.203125 217.37375)scale(0.12 -0.12)">
      <use xlink:href="#BitstreamVeraSans-Roman-32"/>
      <use x="63.623046875" xlink:href="#BitstreamVeraSans-Roman-30"/>
      <use x="127.24609375" xlink:href="#BitstreamVeraSans-Roman-30"/>
      <use x="190.869140625" xlink:href="#BitstreamVeraSans-Roman-39"/>
     </g>
    </g>
    <g id="line2d_69">
     <path d="
M296.203 230.788
L313.003 230.788" style="fill:none;stroke:#bf00bf;stroke-linecap:square;"/>
    </g>
    <g id="line2d_70"/>
    <g id="text_31">
     <!-- 2010 -->
     <g transform="translate(326.203125 234.9875)scale(0.12 -0.12)">
      <use xlink:href="#BitstreamVeraSans-Roman-32"/>
      <use x="63.623046875" xlink:href="#BitstreamVeraSans-Roman-30"/>
      <use x="127.24609375" xlink:href="#BitstreamVeraSans-Roman-31"/>
      <use x="190.869140625" xlink:href="#BitstreamVeraSans-Roman-30"/>
     </g>
    </g>
    <g id="line2d_71">
     <path d="
M296.203 248.401
L313.003 248.401" style="fill:none;stroke:#bfbf00;stroke-linecap:square;"/>
    </g>
    <g id="line2d_72"/>
    <g id="text_32">
     <!-- 2011 -->
     <g transform="translate(326.203125 252.60125)scale(0.12 -0.12)">
      <use xlink:href="#BitstreamVeraSans-Roman-32"/>
      <use x="63.623046875" xlink:href="#BitstreamVeraSans-Roman-30"/>
      <use x="127.24609375" xlink:href="#BitstreamVeraSans-Roman-31"/>
      <use x="190.869140625" xlink:href="#BitstreamVeraSans-Roman-31"/>
     </g>
    </g>
    <g id="line2d_73">
     <path d="
M296.203 266.015
L313.003 266.015" style="fill:none;stroke:#000000;stroke-linecap:square;"/>
    </g>
    <g id="line2d_74"/>
    <g id="text_33">
     <!-- 2012 -->
     <g transform="translate(326.203125 270.215)scale(0.12 -0.12)">
      <use xlink:href="#BitstreamVeraSans-Roman-32"/>
      <use x="63.623046875" xlink:href="#BitstreamVeraSans-Roman-30"/>
      <use x="127.24609375" xlink:href="#BitstreamVeraSans-Roman-31"/>
      <use x="190.869140625" xlink:href="#BitstreamVeraSans-Roman-32"/>
     </g>
    </g>
   </g>
  </g>
 </g>
 <defs>
  <clipPath id="p95a2ee5e18">
   <rect height="223.2" width="334.8" x="31.190625" y="21.318125"/>
  </clipPath>
 </defs>
</svg>
