<?xml version="1.0" encoding="utf-8" standalone="no"?>
<!DOCTYPE svg PUBLIC "-//W3C//DTD SVG 1.1//EN"
  "http://www.w3.org/Graphics/SVG/1.1/DTD/svg11.dtd">
<!-- Created with matplotlib (http://matplotlib.org/) -->
<svg height="319pt" version="1.1" viewBox="0 0 378 319" width="378pt" xmlns="http://www.w3.org/2000/svg" xmlns:xlink="http://www.w3.org/1999/xlink">
 <defs>
  <style type="text/css">
*{stroke-linecap:butt;stroke-linejoin:round;}
  </style>
 </defs>
 <g id="figure_1">
  <g id="patch_1">
   <path d="
M0 319.938
L378.841 319.938
L378.841 0
L0 0
z
" style="fill:#ffffff;"/>
  </g>
  <g id="axes_1">
   <g id="patch_2">
    <path d="
M36.8406 244.518
L371.641 244.518
L371.641 21.3181
L36.8406 21.3181
z
" style="fill:#ffffff;"/>
   </g>
   <g id="line2d_1">
    <path clip-path="url(#pd0c402dd48)" d="
M0 0" style="fill:none;stroke:#0000ff;stroke-linecap:square;"/>
   </g>
   <g id="line2d_2">
    <path clip-path="url(#pd0c402dd48)" d="
M0 0" style="fill:none;stroke:#008000;stroke-linecap:square;"/>
   </g>
   <g id="line2d_3">
    <path clip-path="url(#pd0c402dd48)" d="
M0 0" style="fill:none;stroke:#ff0000;stroke-linecap:square;"/>
   </g>
   <g id="line2d_4">
    <path clip-path="url(#pd0c402dd48)" d="
M0 0" style="fill:none;stroke:#00bfbf;stroke-linecap:square;"/>
   </g>
   <g id="line2d_5">
    <path clip-path="url(#pd0c402dd48)" d="
M0 0" style="fill:none;stroke:#bf00bf;stroke-linecap:square;"/>
   </g>
   <g id="line2d_6">
    <path clip-path="url(#pd0c402dd48)" d="
M0 0" style="fill:none;stroke:#bfbf00;stroke-linecap:square;"/>
   </g>
   <g id="line2d_7">
    <path clip-path="url(#pd0c402dd48)" d="
M0 0" style="fill:none;stroke:#000000;stroke-linecap:square;"/>
   </g>
   <g id="line2d_8">
    <path clip-path="url(#pd0c402dd48)" d="
M0 0" style="fill:none;stroke:#0000ff;stroke-linecap:square;"/>
   </g>
   <g id="line2d_9">
    <path clip-path="url(#pd0c402dd48)" d="
M0 0" style="fill:none;stroke:#008000;stroke-linecap:square;"/>
   </g>
   <g id="line2d_10">
    <path clip-path="url(#pd0c402dd48)" d="
M36.8406 198.607
L37.7579 179.602
L38.6751 178.168
L39.5924 220.973
L40.5097 232.154
L42.3442 237.652
L43.2614 235.817
L44.1787 226.919
L45.096 232.152
M46.9305 232.317
L47.8477 232.481
L48.765 222.356
L49.6823 220.465
L50.5995 217.394
L51.5168 220.965
L52.434 222.011
L53.3513 211.979
L54.2686 238.7
L55.1858 239.624
L57.0204 213.919
L57.9376 214.35
L58.8549 226.066
L59.7721 220.961
L60.6894 221.917
L61.6067 231.998
L62.5239 237.484
M64.3584 243.443
L65.2757 236.829
L66.193 233.929
M68.0275 229.47
L68.9447 226.183
L69.862 230.676
L70.7793 240.814
L71.6965 218.786
L72.6138 227.058
L73.531 209.742
L74.4483 217.972
L75.3656 215.457
L76.2828 227.099
L77.2001 211.505
L78.1173 214.388
L79.0346 215.111
L79.9519 199.333
L80.8691 205.811
L81.7864 210.5
L83.6209 225.585
L84.5382 237.182
L85.4554 226.246
L86.3727 229.304
L87.2899 239.428
L88.2072 215.387
L89.1245 218.998
L90.0417 212.057
L90.959 207.939
L91.8762 223.385
L92.7935 229.006
L93.7108 214.399
L94.628 221.947
L95.5453 206.849
L96.4625 196.238
L97.3798 194.423
L98.2971 219.251
L99.2143 208.365
L100.132 204.723
L101.049 194.359
L101.966 186.147
L102.883 226.778
L103.801 232.917
L104.718 221.962
L105.635 221.848
L106.552 210.608
L107.47 239.659
L108.387 232.76
L110.221 199.329
L111.139 191.405
L112.056 189.119
L112.973 218.53
L113.89 222.332
L114.808 236.828
L115.725 211.255
L116.642 224.723
L117.56 213.925
L118.477 207.799
L119.394 214.714
L120.311 178.378
L121.229 178.61
L122.146 175.463
L123.063 208.03
L123.98 204.53
L125.815 224.651
L126.732 196.937
L127.649 211.734
L128.567 215.725
L129.484 191.064
L130.401 178.295
L131.318 178.518
L132.236 203.856
L133.153 216.38
L134.07 211.541
L135.905 169.409
L136.822 192.012
L137.739 208.805
L138.657 206.292
L139.574 178.842
L140.491 206.007
L141.408 210.765
L142.326 181.688
L143.243 160.046
L144.16 146.513
L145.077 147.416
L145.995 206.955
L146.912 194.95
L147.829 197.666
L148.746 165.755
L149.664 146.282
L150.581 151.565
L151.498 161.834
L153.333 204.134
L154.25 189.869
L155.167 183.828
L156.084 167.784
L157.002 178.167
L157.919 178.725
L158.836 185.634
L159.754 210.8
L160.671 174.785
L161.588 167.83
L162.505 159.297
L163.423 179.076
L164.34 185.839
L165.257 220.157
L166.174 221.183
L167.092 218.06
L168.009 222.013
L168.926 181.262
L169.843 200.7
L170.761 214.274
L171.678 215.671
L172.595 203.098
L173.512 205.592
L174.43 199.124
L175.347 193.737
L176.264 214.197
L177.181 184.385
L178.099 223.941
L179.016 210.499
L179.933 188.972
L180.85 183.025
L181.768 196.912
L182.685 167.24
L183.602 183.116
L184.52 201.703
L185.437 211.552
L186.354 187.544
L187.271 150.48
L188.189 145.294
L190.023 171.653
L190.94 175.786
L191.858 180.507
L192.775 184.237
L193.692 183.115
L194.609 195.233
L195.527 188.435
L196.444 187.803
L197.361 191.578
L198.278 176.986
L199.196 184.697
L200.113 184.365
L201.03 183.548
L201.947 178.146
L202.865 188.603
L203.782 203.364
L204.699 193.468
L205.617 189.101
L206.534 191.339
L207.451 196.871
L208.368 195.027
L209.286 190.792
L210.203 183.131
L211.12 183.058
L212.037 179.006
L212.955 184.335
L213.872 185.544
L214.789 184.41
L215.706 172.918
L217.541 189.578
L218.458 189.675
L219.375 188.606
L220.293 185.427
L221.21 182.897
L222.127 195.348
L223.044 213.851
L223.962 198.455
L224.879 191.681
L225.796 175.931
L226.714 183.629
L227.631 186.028
L228.548 194.308
L229.465 201.357
L230.383 192.969
L231.3 185.681
L232.217 190.094
L233.134 185.121
L234.052 190.58
L234.969 188.411
L235.886 190.449
L236.803 195.174
L237.721 197.261
L238.638 209.197
L239.555 200.432
L240.472 196.233
L241.39 195.81
L242.307 190.969
L243.224 182.948
L244.141 182.011
L245.059 190.548
L245.976 190.481
L246.893 190.693
L247.81 195.165
L248.728 205.44
L249.645 202.51
L250.562 210.93
L251.48 191.859
L252.397 186.075
L253.314 177.054
L254.231 187.383
L255.149 203.622
L256.066 198.715
L256.983 199.061
L257.9 177.466
L260.652 211.422
L261.569 199.477
L262.487 174.995
L263.404 170.378
L264.321 185.906
L265.238 191.564
L266.156 187.828
L267.073 186.918
L267.99 186.434
L268.907 189.479
L269.825 192.099
L270.742 191.512
L271.659 185.425
L272.577 182.289
L273.494 185.78
L275.328 189.862
L276.246 193.502
L277.163 206.436
L278.08 227.861
L278.997 233.791
L279.915 218.482
L280.832 193.252
L281.749 172.636
L282.666 177.819
L283.584 179.48
L284.501 192.198
L285.418 190.346
L286.335 188.942
L287.253 194.934
L288.17 194.124
L289.087 211.94
L290.004 217.603
L290.922 238.206
L291.839 228.48
L292.756 208.25
L293.674 200.964
L294.591 189.257
L295.508 201.013
L296.425 238.078
L297.343 227.244
L298.26 202.312
L299.177 183.29
L300.094 187.727
L301.929 189.851
L302.846 196.521
L303.763 191.084
L304.681 200.002
L305.598 203.308
L306.515 214.348
L307.432 194.143
L308.35 189.045
L309.267 179.174
L310.184 189.718
L311.101 191.771
L312.019 184.616
L312.936 191.667
L313.853 194.927
L314.77 197.062
L315.688 212.058
L316.605 228.886
L317.522 238.041
L318.44 239.877
L319.357 239.55
L320.274 227.61
L321.191 229.631
L322.109 220.471
L323.026 218.106
L323.943 237.212
L324.86 234.703
L325.778 241.054
L326.695 226.657
L327.612 218.715
L328.529 198.261
L329.447 201.192
L330.364 197.812
L331.281 185.369
L332.198 189.892
L333.116 206.564
L334.033 220.986
L334.95 217.278
L336.785 230.715
L337.702 198.212
L338.619 199.98
L339.537 209.604
L340.454 208.251
L342.288 235.075
L343.206 229.168
L344.123 208.452
L345.04 229.079
L345.957 239.368
L346.875 215.191
L347.792 206.332
L348.709 194.462
L349.626 216.166
L350.544 232.487
L352.378 201.94
L355.13 242.45
L356.047 242.218
L356.964 232.656
L357.882 231.796
L358.799 225.046
L359.716 217.191
L360.634 237.221
L361.551 224.111
L362.468 234.081
L363.385 239.738
L364.303 235.944
L365.22 233.001
M367.054 233.726
L367.972 241.642
L368.889 241.543
L370.723 204.686
L370.723 204.686" style="fill:none;stroke:#ff0000;stroke-linecap:square;"/>
   </g>
   <g id="line2d_11">
    <path clip-path="url(#pd0c402dd48)" d="
M36.8406 237.396
L37.7579 222.585
L38.6751 224.495
L39.5924 208.617
L40.5097 221.213
L41.4269 241.587
L42.3442 228.105
L43.2614 218.731
L44.1787 232.963
L45.096 215.725
L46.0132 225.082
L46.9305 233.039
L47.8477 223.175
L48.765 204.871
L49.6823 211.936
L50.5995 209.918
L51.5168 223.734
L52.434 219.358
L53.3513 223.422
L54.2686 224.178
L55.1858 207.951
L57.0204 243.843
L57.9376 242.633
M59.7721 241.025
L60.6894 226.471
L61.6067 229.673
L62.5239 226.809
L63.4412 216.272
L64.3584 221.391
L66.193 197.06
L67.1102 208.476
L68.0275 213.828
L68.9447 212.491
L69.862 225.557
L70.7793 234.365
L71.6965 231.581
L72.6138 239.452
L73.531 233.334
L74.4483 230.316
L75.3656 239.767
L76.2828 230.32
L77.2001 240.769
L78.1173 218.916
L79.0346 215.725
L79.9519 236.551
L80.8691 216.891
L81.7864 210.136
L82.7036 213.811
L83.6209 200.477
L84.5382 208.371
L85.4554 226.177
L86.3727 207.205
L87.2899 224.26
L88.2072 226.867
L90.0417 194.009
L90.959 198.994
L91.8762 208.203
L92.7935 227.765
L93.7108 240.731
M95.5453 233.982
L96.4625 225.643
L97.3798 227.14
L98.2971 216.043
L99.2143 218.045
L100.132 204.093
L101.049 205.694
L101.966 202.572
L102.883 205.104
L103.801 240.652
L105.635 215.551
L106.552 195.114
L107.47 201.848
L108.387 188.103
L109.304 219.24
L110.221 230.845
L111.139 214.809
L112.056 215.499
L112.973 237.099
L113.89 217.322
L114.808 194.6
L115.725 222.755
L116.642 227.753
L117.56 203.481
L118.477 236.115
L119.394 221.584
L120.311 238.477
L121.229 235.991
L123.063 185.6
L123.98 173.559
L124.898 164.456
L125.815 218.768
L126.732 207.008
L127.649 230.37
L128.567 216.733
L129.484 191.657
L130.401 209.231
L131.318 201.574
L132.236 208.827
L133.153 185.843
L134.07 180.86
L135.905 159.99
L136.822 163.18
L137.739 169.639
L138.657 178.109
L139.574 201.174
L140.491 191.302
L142.326 204.225
L143.243 189.698
L144.16 227.041
L145.077 190.103
L145.995 195.857
L146.912 202.367
L147.829 207.524
L148.746 235.316
L149.664 210.668
L150.581 207.688
L151.498 215.145
L152.415 201.476
L153.333 183.41
L154.25 174.55
L155.167 175.296
L156.084 171.721
L157.002 190.179
L157.919 185.384
L158.836 201.772
L159.754 186.551
L160.671 160.925
L161.588 153.068
L162.505 165.092
L163.423 174.453
L164.34 188.179
L165.257 187.585
L166.174 192.842
L168.009 188.94
L168.926 180.736
L169.843 186.893
L170.761 186.889
L171.678 175.048
L172.595 185.032
L173.512 190.549
L174.43 198.054
L175.347 209.715
L176.264 234.518
L177.181 209.226
L178.099 209.465
L179.016 223.793
L179.933 224.994
L180.85 202.764
L181.768 201.722
L182.685 190.131
L183.602 203.541
L184.52 203.663
L185.437 203.283
L186.354 225.663
L187.271 225.977
L188.189 225.055
L189.106 198.512
L190.023 211.758
L190.94 182.45
L191.858 192.764
L192.775 207.438
L193.692 219.385
L194.609 206.89
L195.527 179.473
L196.444 171.739
L197.361 165.634
L198.278 172.992
L199.196 176.02
L200.113 183.322
L201.03 187.507
L201.947 181.837
L202.865 179.185
L203.782 194.268
L204.699 201.447
L205.617 190.683
L206.534 196.783
L207.451 190.794
L208.368 192.086
L209.286 195.51
L210.203 196.431
L211.12 183.812
L212.037 191.23
L212.955 201.548
L213.872 204.946
L214.789 187.486
L215.706 187.186
L216.624 185.103
L217.541 173.975
L219.375 188.5
L220.293 194.678
L221.21 193.036
L222.127 197.422
L223.044 203.151
L223.962 189.174
L224.879 192.846
L225.796 198.741
L226.714 203.038
L227.631 202.554
L228.548 202.537
L229.465 197.79
L230.383 187.795
L232.217 192.105
L233.134 192.678
L234.052 194.361
L234.969 202.479
L235.886 235.269
L236.803 240.775
L237.721 226.05
L239.555 179.898
L240.472 166.159
L241.39 177.306
L242.307 200.764
L243.224 202.272
L244.141 208.938
L245.059 199.141
L245.976 191.27
L246.893 187.265
L247.81 180.249
L248.728 184.2
L249.645 185.703
L250.562 190.349
L251.48 213.213
L252.397 205.199
L254.231 197.827
L255.149 190.334
L256.066 198.536
L256.983 203.15
L257.9 210.029
L258.818 204.363
L259.735 202.497
L260.652 192.259
L261.569 187.208
L263.404 205.237
L264.321 205.224
L265.238 206.396
L266.156 199.465
L267.073 197
L267.99 186.902
L268.907 182.439
L269.825 185.902
L271.659 205.225
L272.577 210.6
L273.494 204.238
L275.328 201.942
L276.246 200.176
L277.163 210.729
L278.08 200.786
L278.997 197.548
L279.915 198.26
L280.832 184.676
L281.749 187.128
L283.584 200.495
L284.501 204.378
L285.418 222.804
L286.335 220.184
L287.253 206.887
L288.17 206.602
L289.087 229.503
M291.839 214.007
L292.756 200.114
L293.674 192.934
L294.591 206.173
L295.508 203.108
L296.425 200.505
L297.343 199.635
L298.26 218.818
L299.177 226.772
L300.094 220.074
L301.012 205.269
L301.929 206.103
L302.846 214.32
L303.763 230.883
L304.681 225.693
L305.598 226.95
L306.515 214.858
L307.432 219.357
L308.35 216.229
L309.267 200.166
L311.101 241.832
L312.019 224.144
L313.853 237.79
L314.77 216.865
L315.688 217.032
L317.522 200.802
L318.44 203.012
L319.357 196.764
L320.274 227.26
L321.191 225.743
L323.026 207.054
L323.943 207.134
L324.86 229.798
L325.778 244.359
L326.695 238.301
L327.612 237.399
L328.529 212.147
L329.447 199.557
L330.364 188.997
L331.281 222.648
L332.198 200.572
L333.116 215.5
L334.033 223.874
L334.95 234.71
L335.867 224.863
L336.785 220.455
L337.702 218.794
L338.619 212.457
L339.537 225.098
L340.454 227.68
L341.371 214.466
M343.206 219.653
L344.123 217.272
L345.04 210.712
M346.875 215.35
L347.792 214.45
L348.709 236.016
L349.626 224.422
L351.461 209.565
L352.378 193.992
L353.295 222.222
L354.213 242.611
L355.13 228.74
L356.047 235.229
M357.882 234.265
L358.799 240.058
L359.716 235.119
L360.634 231.136
L361.551 229.434
L362.468 243.538
L363.385 235.16
L364.303 210.891
L365.22 224.55
L366.137 232.954
L367.054 227.35
L367.972 218.973
L368.889 231.134
L369.806 241.764
L370.723 235.974
L370.723 235.974" style="fill:none;stroke:#00bfbf;stroke-linecap:square;"/>
   </g>
   <g id="line2d_12">
    <path clip-path="url(#pd0c402dd48)" d="
M36.8406 241.881
L37.7579 235.884
L38.6751 228.929
L39.5924 220.865
L40.5097 232.07
L41.4269 227.323
L42.3442 236.219
L43.2614 211.996
L44.1787 216.508
L45.096 222.981
L46.0132 204.037
L46.9305 215.712
L47.8477 238.293
L48.765 230.219
L49.6823 203.336
L50.5995 222.354
L51.5168 218.868
L52.434 231.953
L53.3513 233.809
L54.2686 227.474
L55.1858 222.506
L56.1031 226.373
M57.9376 230.431
L58.8549 236.501
L59.7721 241.285
M61.6067 237.884
L63.4412 228.61
M65.2757 234.733
L66.193 222.584
L67.1102 229.708
L68.0275 233.8
L68.9447 236.627
L69.862 229.808
L70.7793 241.711
L71.6965 241.218
L72.6138 233.483
L73.531 219.933
L74.4483 233.679
L75.3656 228.449
L76.2828 237.803
L77.2001 223.883
M79.0346 243.545
L79.9519 242.693
L80.8691 239.038
L81.7864 227.619
L82.7036 224.796
L83.6209 227.287
L84.5382 194.694
L85.4554 194.336
L86.3727 231.751
L87.2899 231.319
L88.2072 206.778
L89.1245 224.059
L90.0417 227.108
L90.959 209.003
L91.8762 204.086
L92.7935 226.418
L93.7108 224.373
L94.628 225.183
L96.4625 203.24
L97.3798 230.944
L99.2143 204.579
L101.049 208.957
L101.966 233.488
L102.883 213.473
L103.801 183.041
L104.718 187.268
L105.635 182.961
L106.552 195.796
L107.47 183.453
L108.387 193.339
L109.304 211.651
L110.221 219.6
L111.139 191.764
L112.056 188.566
L112.973 225.612
L113.89 228.367
L114.808 200.342
L115.725 187.546
L117.56 240.216
L118.477 219.02
L119.394 238.685
L120.311 236.646
L121.229 222.133
L122.146 223.771
L123.063 230.333
L123.98 206.766
L124.898 190.114
L125.815 207.675
L126.732 182.992
L127.649 186.768
L128.567 188.887
L129.484 222.582
L130.401 216.155
L131.318 183.514
L132.236 171.779
L133.153 178.568
L134.07 174.935
L134.987 166.119
L135.905 166.83
L136.822 207.748
L137.739 230.422
L138.657 221.912
L139.574 193.428
L140.491 185.597
L141.408 175.066
L142.326 175.667
L143.243 223.536
L144.16 234.101
L145.077 221.692
L145.995 227.628
L146.912 219.482
L147.829 185.059
L148.746 204.585
L149.664 164.099
L150.581 196.561
L151.498 199.609
L152.415 166.141
L153.333 155.402
L154.25 156.43
L155.167 214.413
L156.084 188.284
L157.002 175.912
L157.919 174.634
L158.836 154.104
L159.754 156.639
L160.671 166.335
L161.588 191.476
L162.505 235.894
L163.423 201.643
L164.34 200.205
L165.257 211.055
M167.092 218.774
L168.009 204.317
L168.926 177.67
L169.843 207.84
L170.761 205.376
L171.678 214.354
L172.595 207.106
L173.512 183.521
L174.43 217.112
L175.347 207.307
L176.264 231.31
L177.181 208.276
L178.099 236.316
L179.016 196.139
L179.933 223.283
L180.85 184.988
L181.768 183.567
L182.685 205.772
L183.602 215.314
L184.52 199.68
L185.437 174.165
L186.354 172.458
L187.271 162.379
L188.189 180.317
L189.106 192.606
L190.023 200.428
L190.94 182.11
L191.858 179.533
L192.775 201.506
L193.692 206.156
L194.609 180.247
L195.527 178.76
L196.444 184.892
L197.361 197.353
L198.278 181.389
L199.196 182.377
L200.113 187.674
L201.03 201.37
L201.947 189.198
L202.865 185.097
L203.782 204.635
L204.699 209.225
L205.617 186.849
L206.534 191.235
L208.368 162.857
L209.286 169.071
L210.203 167.421
L212.037 183.12
L212.955 187.69
L213.872 187.684
L214.789 190.367
L215.706 181.371
L216.624 178.14
L217.541 164.52
L218.458 168.506
L219.375 182.576
L220.293 187.867
L221.21 188.152
L222.127 189.634
L223.044 181.844
L223.962 183.635
L224.879 186.915
L225.796 214.553
L226.714 194.215
L227.631 199.042
L228.548 197.209
L229.465 191.778
L230.383 193.412
L231.3 187.261
L232.217 186.04
L233.134 190.081
L234.052 183.905
L234.969 185.836
L235.886 200.963
L236.803 193.369
L237.721 195.712
L238.638 205.701
L239.555 210.717
L240.472 226.592
L242.307 194.916
L243.224 192.841
L244.141 174.235
L245.059 172.3
L245.976 182.047
L246.893 187.488
L247.81 190.377
L248.728 188.059
L249.645 194.194
L250.562 196.064
L251.48 200.249
L252.397 191.586
L253.314 186.251
L254.231 189.628
L255.149 180.03
L256.066 199.494
L256.983 234.281
L257.9 217.942
L258.818 213.731
L259.735 204.865
L260.652 177.547
L261.569 170.857
L262.487 178.668
L263.404 190.537
L264.321 192.014
L265.238 190.213
L266.156 223.505
L267.073 239.117
L267.99 197.587
L268.907 189.79
L269.825 174.66
L270.742 167.945
L271.659 181.654
L272.577 186.001
L273.494 192.951
L274.411 198.198
L275.328 194.92
L276.246 206.649
L277.163 208.161
L278.08 200.984
L278.997 199.424
L279.915 192.693
L280.832 178.914
L281.749 184.639
L282.666 180.911
L283.584 177.971
L284.501 183.252
L285.418 194.455
L286.335 193.519
L287.253 194.863
L288.17 195.637
L289.087 216.276
L290.004 233.913
L290.922 226.099
L291.839 221.277
L292.756 209.249
L293.674 229.458
L294.591 217.336
L295.508 208.462
L296.425 217.652
L297.343 195.614
L298.26 189.872
L299.177 188.718
L300.094 191.435
L301.012 197.857
L301.929 200.853
L302.846 196.599
L303.763 191.429
L304.681 192.815
L305.598 190.319
L306.515 196.939
L307.432 228.866
L308.35 242.414
L309.267 232.251
L310.184 238.176
L311.101 217.247
L312.019 188.607
L312.936 184.093
L313.853 192.696
L314.77 230.092
L315.688 208.234
L316.605 205.598
L317.522 205.762
L318.44 190.822
L319.357 199.69
L320.274 205.572
L321.191 230.078
L322.109 237.078
L323.026 226.167
L323.943 242.676
L324.86 236.493
L325.778 217.494
L326.695 220.564
L327.612 241.199
L328.529 228.191
L329.447 222.238
L330.364 202.975
L331.281 217.906
M333.116 243.625
L334.033 241.393
M335.867 242.225
L336.785 216.752
L337.702 209.978
L338.619 210.645
L339.537 226.27
L340.454 233.013
L341.371 212.2
L342.288 219.717
M344.123 239.156
L345.04 226.937
L345.957 231.216
L346.875 240.123
L347.792 239.598
L348.709 231.604
L349.626 215.481
L350.544 229.805
L351.461 235.241
L352.378 236.782
L353.295 230.227
L354.213 229.455
L355.13 236.632
L356.047 234.646
L356.964 221.26
L357.882 219.113
L358.799 233.749
L359.716 240.923
L360.634 234.814
L361.551 216.326
L362.468 238.317
L363.385 236.642
L364.303 211.752
L365.22 183.31
L366.137 227.358
L367.054 232.821
L367.972 236.797
M369.806 240.83
L370.723 233.542
L370.723 233.542" style="fill:none;stroke:#bf00bf;stroke-linecap:square;"/>
   </g>
   <g id="line2d_13">
    <path clip-path="url(#pd0c402dd48)" d="
M36.8406 221.494
L37.7579 226.322
L38.6751 232.93
L39.5924 236.765
L40.5097 219.174
L41.4269 220.754
L42.3442 221.844
L43.2614 227.643
L44.1787 236.474
L45.096 243.253
L46.0132 224.544
L46.9305 228.208
M48.765 236.965
L49.6823 235.947
L50.5995 242.973
L51.5168 236.715
L52.434 239.013
L53.3513 241.904
L54.2686 220.031
L55.1858 236.861
L56.1031 236.985
L57.0204 206.306
L57.9376 237.281
L58.8549 239.963
L60.6894 239.115
L61.6067 236.914
L62.5239 237.183
L63.4412 243.55
L64.3584 227.226
L65.2757 216.433
L66.193 209.52
L67.1102 212.689
L68.0275 227.489
L68.9447 224.199
L69.862 223.347
L70.7793 226.244
L71.6965 231.162
L73.531 216.497
L74.4483 207.248
L76.2828 195.07
L77.2001 196.691
L78.1173 204.402
L79.0346 227.323
L79.9519 234.97
L80.8691 238.129
L81.7864 236.947
M83.6209 231.14
L84.5382 231.556
L85.4554 226.115
L86.3727 240.941
L87.2899 242.579
L88.2072 216.714
L89.1245 209.954
L90.0417 211.612
L90.959 190.559
L91.8762 218.338
L92.7935 225.907
L93.7108 230.175
L94.628 236.047
L95.5453 238.868
L96.4625 240.035
M98.2971 232.259
L99.2143 226.8
L100.132 242.561
L101.049 224.908
L101.966 239.894
L102.883 220.452
L103.801 229.717
M105.635 242.457
L106.552 215.352
L107.47 236.068
L108.387 219.487
L109.304 231.02
L110.221 228.75
L111.139 218.223
L112.056 234.56
L112.973 243.751
M115.725 227.212
L116.642 233.308
L117.56 231.585
L118.477 196.667
L119.394 195.911
L120.311 207.484
L121.229 224.769
L122.146 211.399
L123.063 220.187
L123.98 225.921
L124.898 215.235
L126.732 229.404
L127.649 206.664
L128.567 211.043
L129.484 188.925
L130.401 218.668
L131.318 194.658
L132.236 214.761
L133.153 220.027
L134.07 208.227
L134.987 209.847
L135.905 181.848
L136.822 218.579
L137.739 227.165
L138.657 185.705
L139.574 167.898
L140.491 202.768
L141.408 225.225
L142.326 204.128
L143.243 190.69
L144.16 225.8
L145.077 196.487
L145.995 197.215
L146.912 187.241
L147.829 200.486
L148.746 183.932
L149.664 178.459
L150.581 181.115
L151.498 221.238
L152.415 204.904
L153.333 221.412
L154.25 211.217
L155.167 186.226
L157.002 176.247
L157.919 177.133
L159.754 227.774
L160.671 237.013
L161.588 214.394
L162.505 227.561
L163.423 173.922
L164.34 172.946
L165.257 195.654
L166.174 185.554
L167.092 217.923
L168.009 219.25
L169.843 205.185
L170.761 228.326
L171.678 228.07
L172.595 230.65
L173.512 197.722
L175.347 192.587
L176.264 220.369
L177.181 183.563
L178.099 185.295
L179.016 176.913
L179.933 205.389
L180.85 222.049
L181.768 199.439
L182.685 212.185
L183.602 203.675
L184.52 201.733
L185.437 188.064
L186.354 205.382
L187.271 179.973
L188.189 178.187
L189.106 195.513
L190.023 178.546
L190.94 221.487
L191.858 218.972
L192.775 174.141
L193.692 178.833
L194.609 174.875
L195.527 178.704
L196.444 186.139
L197.361 189.172
L198.278 194.442
L199.196 185.743
L200.113 182.788
L201.03 207.988
L201.947 194.035
L202.865 192.304
L203.782 187.422
L204.699 181.607
L205.617 179.968
L206.534 185.12
L207.451 187.913
L208.368 212.835
L209.286 197.454
L210.203 189.921
L211.12 195.264
L212.037 193.302
L212.955 183.901
L213.872 200.715
L214.789 201.614
L215.706 196.251
L216.624 199.106
L217.541 186.48
L218.458 181.861
L219.375 195.544
L220.293 197.259
L221.21 193.474
L222.127 199.537
L223.044 184.847
L223.962 175.873
L225.796 193.359
L226.714 194.417
L227.631 197.594
L228.548 193.699
L229.465 187.762
L230.383 197.348
L231.3 197.12
L232.217 200.11
L233.134 197.522
L234.052 211.36
L234.969 197.182
L235.886 196.758
L236.803 199.906
L237.721 195.119
L238.638 192.312
L239.555 196.655
L240.472 194.74
L241.39 195.439
L242.307 196.785
L243.224 195.159
L244.141 191.861
L245.059 194.429
L246.893 197.095
L247.81 187.344
L248.728 194.404
L249.645 198.372
L250.562 195.253
L251.48 195.531
L252.397 195.133
L253.314 201.944
L254.231 199.548
L255.149 211.29
L256.066 203.921
L256.983 204.111
L258.818 202.383
L259.735 206.874
L260.652 198.726
L261.569 200.168
L262.487 188.933
L263.404 182.476
L264.321 190.849
L265.238 192.409
L266.156 195.737
L267.073 203.334
L267.99 201.337
L268.907 206.909
L269.825 205.457
L270.742 205.05
L271.659 204.823
L272.577 227.861
L273.494 215.473
L274.411 205.053
L275.328 200.655
L276.246 198.583
L277.163 193.185
L278.08 186.473
L278.997 192.154
L279.915 191.199
L280.832 191.758
L281.749 203.618
L282.666 206.707
L283.584 204.558
L284.501 211.823
L285.418 199.116
L286.335 195.625
L287.253 201.589
L288.17 203.711
L289.087 204.961
L290.004 234.812
L290.922 241.326
M292.756 244.428
L293.674 221.041
L294.591 203.065
L295.508 227.238
L296.425 221.147
L297.343 206.093
L298.26 200.671
L299.177 194.338
L300.094 207.347
L301.012 239.667
L301.929 214.171
L302.846 204.569
L303.763 211.398
L304.681 201.957
L305.598 206.083
L306.515 213.325
L307.432 209.432
L308.35 225.107
L310.184 199.001
L311.101 203.248
L312.019 193.815
L312.936 192.109
L313.853 200.303
L314.77 222.061
L316.605 198.271
L317.522 205.357
L318.44 229.379
L319.357 236.083
L320.274 239.498
L321.191 240.538
L322.109 222.889
L323.026 201.824
L323.943 195.579
L324.86 203.217
L325.778 228.37
L326.695 233.059
L327.612 208.711
L328.529 202.662
L329.447 217.604
L330.364 237.667
L331.281 237.857
L332.198 234.265
L333.116 213.893
L334.033 222.35
L334.95 228.922
L335.867 196.547
L336.785 217.456
L337.702 223.536
L338.619 198.598
L339.537 199.037
L340.454 218.119
L341.371 231.864
L342.288 226.31
L343.206 207.292
L344.123 209.907
L345.04 215.814
L345.957 220.652
L346.875 220.753
L347.792 204.57
L348.709 205.891
L349.626 203.692
L350.544 200.661
L351.461 205.981
L352.378 210.113
L353.295 210.159
L354.213 220.186
L355.13 214.549
L356.047 224.283
L356.964 224.587
L357.882 222.091
L358.799 217.726
L359.716 211.736
L360.634 207.61
L361.551 223.34
L362.468 203.038
L363.385 195.303
L364.303 202.275
L365.22 202.685
L366.137 208.335
L367.972 235.566
L368.889 229.311
L369.806 243.187
L370.723 224.851
L370.723 224.851" style="fill:none;stroke:#bfbf00;stroke-linecap:square;"/>
   </g>
   <g id="line2d_14">
    <path clip-path="url(#pd0c402dd48)" d="
M36.8406 201.237
L37.7579 199.384
L38.6751 197.755
L39.5924 182.341
L40.5097 206.475
L41.4269 223.421
L42.3442 229.542
L43.2614 221.38
L44.1787 223.11
L45.096 234.487
L46.0132 213.722
L46.9305 221.254
L47.8477 200.65
L48.765 185.191
L49.6823 207.269
L50.5995 221.197
L51.5168 207.761
L52.434 229.631
M55.1858 241.53
L56.1031 232.351
L57.0204 243.772
L57.9376 234.446
L58.8549 232.686
L59.7721 239.741
L60.6894 214.405
L61.6067 204.21
L62.5239 190.548
L63.4412 222.64
L64.3584 202.01
L65.2757 231.816
L66.193 230.382
L67.1102 212.703
L68.0275 209.822
L68.9447 205.24
L69.862 207.883
L70.7793 194.311
L71.6965 226.826
L72.6138 240.85
L73.531 222.342
L74.4483 235.144
L75.3656 238.941
L76.2828 221.705
L77.2001 231.742
L78.1173 234.852
L79.0346 216.051
L79.9519 213.777
L80.8691 225.524
L81.7864 219.055
L82.7036 230.49
M84.5382 232.569
L85.4554 216.055
L86.3727 191.236
L87.2899 227.665
L88.2072 217.705
L89.1245 205.815
L90.0417 203.931
L90.959 228.779
L91.8762 238.864
L92.7935 218.892
L93.7108 223.718
L94.628 203.183
L95.5453 192.121
L96.4625 219.544
L97.3798 201.641
L99.2143 191.69
L100.132 184.35
L101.049 210.096
L101.966 220.633
L102.883 226.714
M104.718 227.801
L105.635 239.61
L106.552 239.689
M108.387 228.303
L109.304 230.838
L110.221 210.132
L111.139 170.146
L112.056 198.011
L112.973 178.098
L114.808 235.414
L115.725 199.321
L116.642 223.843
L117.56 229.745
L118.477 233.757
L119.394 187.208
L121.229 195.162
L122.146 187.82
L123.063 212.998
L123.98 196.407
L124.898 196.801
L125.815 183.949
L126.732 160.725
L127.649 164.953
L128.567 150.135
L129.484 209.067
L130.401 209.397
L131.318 219.596
L132.236 205.043
L133.153 188.318
L134.07 221.2
L134.987 201.685
L135.905 206.209
L136.822 215.557
L137.739 187.351
L138.657 169.96
L139.574 161.486
L140.491 185.118
L141.408 192.014
L142.326 211.409
L143.243 243.412
L144.16 209.426
L145.077 212.129
L145.995 194.71
L146.912 217.546
L147.829 185.67
L148.746 183.341
L149.664 220.475
L150.581 233.503
L151.498 201.873
L152.415 176.099
L153.333 171.351
L154.25 159.86
L155.167 160.18
L156.084 171.091
L157.002 177.913
L157.919 181.045
L158.836 177.859
L159.754 163.783
L160.671 190.827
L161.588 181.08
L162.505 205.632
L163.423 197.39
L164.34 190.71
L165.257 189.536
L167.092 212.756
L168.009 212.332
L168.926 205.511
L169.843 232.732
L170.761 230.944
L171.678 209.808
L172.595 172.222
L173.512 163.529
L174.43 170.149
L175.347 173.559
L176.264 175.843
L177.181 201.308
L178.099 188.318
L179.016 201.983
L179.933 236.778
L180.85 200.439
L181.768 200.781
L182.685 206.28
L183.602 222.992
L184.52 196.55
L185.437 175.686
L186.354 178.695
L188.189 155.853
L189.106 174.47
L190.023 185.2
L190.94 177.207
L191.858 184.964
L192.775 195.918
L193.692 185.293
L194.609 185.516
L195.527 175.144
L196.444 173.208
L197.361 178.239
L198.278 185.662
L199.196 196.393
L200.113 180.377
L201.03 178.736
L201.947 183.538
L202.865 168.705
L203.782 195.504
L204.699 191.421
L205.617 188.182
L206.534 190.727
L207.451 187.62
L208.368 193.442
L209.286 185.339
L210.203 197.365
L211.12 189.783
L212.037 191.183
L212.955 194.637
L213.872 193.986
L214.789 212.83
L215.706 216.388
L216.624 208.671
L217.541 212.292
L218.458 191.694
L219.375 187.63
L220.293 187.777
L221.21 183.494
L222.127 192.18
L223.044 188.448
L223.962 199.854
L225.796 191.015
L226.714 195.166
L227.631 190.352
L228.548 194.797
L229.465 192.563
L230.383 197.154
L231.3 194.678
L232.217 191.854
L233.134 194.185
L234.052 198.083
L234.969 195.5
L235.886 194.479
L236.803 191.282
L237.721 185.817
L238.638 196.715
L239.555 197.338
L240.472 204.499
L241.39 200.556
L242.307 200.496
L243.224 198.685
L244.141 196.468
L245.059 195.039
L245.976 199.398
L246.893 203.053
L247.81 198.53
L248.728 210.042
L249.645 202.378
L250.562 200.362
L251.48 201.562
L252.397 196.912
L253.314 194.158
L254.231 195.502
L255.149 197.63
L256.066 202.39
L256.983 184.538
L257.9 198.351
L258.818 197.889
L259.735 203.652
L260.652 205.183
L261.569 184.384
L262.487 187.726
L263.404 195.08
L264.321 188.638
L265.238 201.743
L266.156 192.818
L267.073 191.157
L267.99 194.52
L268.907 195.923
L269.825 201.395
L270.742 195.131
L271.659 196.579
L272.577 185.795
L273.494 178.674
L274.411 189.431
L275.328 194.475
L276.246 197.379
L277.163 199.323
L278.08 199.888
L278.997 200.085
L279.915 198.042
L280.832 225.891
L281.749 212.4
L282.666 209.426
L283.584 208.257
L284.501 193.118
L285.418 194.059
L286.335 197.373
L287.253 199.182
L288.17 198.275
L289.087 199.293
L290.004 201.557
L290.922 202.287
L291.839 199.76
L292.756 201.189
L293.674 186.316
L294.591 180.466
L295.508 184.809
L296.425 184.45
L297.343 188.382
L298.26 189.569
L299.177 222.128
L300.094 208.554
L301.012 215.512
L301.929 220.762
L302.846 206.73
L303.763 201.165
L304.681 205.307
L305.598 217.913
L306.515 201.49
L307.432 237.168
L308.35 241.69
L309.267 235.149
L310.184 235.471
L311.101 215.494
L312.019 218.879
L312.936 232.311
L313.853 203.479
L314.77 193.773
L315.688 190.647
L316.605 215.832
L317.522 212.759
L318.44 216.955
L319.357 213.117
L320.274 216.417
L321.191 206.673
L322.109 216.47
L323.943 242.433
L324.86 236.167
L325.778 236.505
L326.695 232.125
L327.612 232.267
L328.529 230.336
L329.447 223.356
L330.364 214.343
L331.281 231.354
L332.198 228.67
L333.116 228.647
L334.033 222.421
L334.95 232.072
L336.785 200.032
L337.702 224.623
L338.619 234.711
L339.537 222.341
L340.454 214.084
L341.371 220.473
L342.288 224.441
L343.206 233.822
L344.123 232.684
L345.04 240.04
L345.957 217.609
L346.875 229.9
L347.792 236.721
L348.709 228.209
L349.626 222.132
L350.544 234.142
L351.461 225.189
L352.378 238.931
L353.295 225.407
L354.213 240.618
L355.13 226.493
L356.047 235.789
L356.964 237.37
M358.799 234.703
L359.716 227.546
L360.634 225.089
L361.551 197.906
L362.468 189.258
L363.385 217.111
L364.303 236.948
L365.22 238.206
L366.137 226.979
L367.054 239.113
L367.972 240.818
L368.889 228.526
L369.806 228.067
L370.723 241.436
L370.723 241.436" style="fill:none;stroke:#000000;stroke-linecap:square;"/>
   </g>
   <g id="line2d_15">
    <path clip-path="url(#pd0c402dd48)" d="
M36.8406 225.407
L37.7579 221.221
L38.6751 187.226
L39.5924 157.561
L40.5097 123.522
L41.4269 155.998
L42.3442 203.268
L43.2614 230.397
L44.1787 146.615
L45.096 216.175
L46.0132 198.548
L46.9305 152.661
L47.8477 182.856
L48.765 208.785
L49.6823 184.427
L50.5995 176.381
L51.5168 171.478
L52.434 95.1534
L53.3513 79.2282
L54.2686 142.401
L55.1858 121.231
L56.1031 47.876
L57.0204 45.2784
L57.9376 171.104
L58.8549 221.497
L59.7721 225.377
L60.6894 218.25
L61.6067 230.038
L62.5239 244.171
L63.4412 240.341
L64.3584 225.165
L65.2757 205.328
L67.1102 172.65
L68.0275 140.7
L68.9447 154.521
L69.862 174.654
L70.7793 155.421
L71.6965 199.893
L72.6138 170.659
L73.531 151.001
L74.4483 104.958
L75.3656 173.812
L76.2828 179.656
L77.2001 153.769
L78.1173 132.805
L79.0346 162.682
L79.9519 200.029
L80.8691 112.855
L81.7864 161.163
L82.7036 198.064
L83.6209 179.975
L84.5382 214.751
L86.3727 182.056
L87.2899 178.471
L88.2072 162.613
L89.1245 103.715
L90.0417 167.964
L90.959 190.173
L91.8762 141.423
L92.7935 136.115
L93.7108 63.276
L94.628 84.8444
L95.5453 172.755
L96.4625 148.342
L97.3798 104.315
L98.2971 95.3318
L99.2143 63.7184
L100.132 169.262
L101.049 144.641
L101.966 87.7068
L102.883 61.5594
L104.718 147.637
L105.635 146.264
L106.552 154.823
L107.47 96.0166
L108.387 161.858
L109.304 161.895
L110.221 179.107
L111.139 110.545
L112.056 95.9235
L112.973 83.794
L113.89 163.807
L114.808 120.543
L115.725 60.4348
L116.642 97.6831
L117.56 91.997
L118.477 73.9338
L119.394 137.776
L120.311 125.655
L121.229 102.995
L122.146 151.41
L123.063 192.894
L123.98 199.617
L124.898 217.078
L125.815 173.124
L126.732 138.009
L127.649 145.868
L128.567 126.847
L129.484 76.1235
L130.401 143.424
L131.318 130.284
L132.236 174.828
L134.07 92.6636
L134.987 69.7347
L135.905 186.798
L136.822 159.341
L137.739 105.086
L138.657 110.332
L139.574 73.5449
L140.491 54.6846
L141.408 43.8089
L142.326 71.362
L143.243 38.1888
L144.16 51.8472
L145.077 114.749
L145.995 121.85
L146.912 124.351
L147.829 91.0353
L148.746 83.6281
L149.664 117.845
L150.581 46.3675
L151.498 78.9747
L152.415 142.44
L153.333 148.248
L154.25 109.496
L155.167 107.079
L156.084 107.304
L157.002 96.5102
L158.836 138.724
L159.754 130.563
L161.588 210.722
L162.505 177.789
L163.423 181.35
L164.34 137.443
L165.257 102.888
L166.174 140.951
L167.092 66.9811
L168.009 68.0769
L168.926 113.437
L169.843 174.326
L170.761 169.569
L171.678 209.986
L172.595 199.65
L173.512 158.024
L174.43 134.175
L175.347 81.4104
L176.264 74.3107
L177.181 100.549
L179.016 74.2363
L179.933 95.5631
L180.85 93.9002
L181.768 105.955
L182.685 94.1153
L183.602 119.822
L184.52 137.621
L185.437 138.824
L187.271 176.862
L188.189 113.452
L189.106 101.657
L190.023 91.5019
L190.94 89.6883
L191.858 191.943
L192.775 177.759
L193.692 174.068
L194.609 166.292
L195.527 124.285
L196.444 190.634
L197.361 211.978
L198.278 161.567
L199.196 91.8743
L200.113 98.7101
L201.03 91.404
L201.947 85.6574
L202.865 132.692
M301.929 111.838
L302.846 114.378
L303.763 90.9915
L304.681 104.394
L305.598 111.602
L306.515 99.2414
L307.432 95.0713
L308.35 96.5608
L309.267 104.22
L310.184 106.192
L311.101 111.51
L312.019 200.895
L312.936 220.145
L313.853 204.752
L314.77 210.843
L315.688 190.587
L316.605 184.487
L317.522 197.981
L318.44 166.352
L319.357 192.047
L320.274 206.377
L321.191 171.855
L322.109 132.237
L323.026 106.147
L323.943 67.7221
L324.86 96.3067
L325.778 95.2582
L326.695 144.55
L327.612 165.7
L328.529 201.607
L329.447 213.02
L330.364 186.568
L331.281 140.735
L332.198 193.673
L333.116 185.826
L334.033 113.881
L334.95 113.261
L335.867 131.525
L336.785 121.279
L337.702 105.771
L338.619 84.6273
L339.537 91.517
L340.454 128.396
L341.371 138.253
L342.288 192.299
L343.206 209.744
L344.123 190.199
L345.04 173.799
L345.957 210.356
L347.792 185.301
L348.709 215.235
L350.544 83.9099
L351.461 130.026
L352.378 163.073
L353.295 117.536
L354.213 150.68
L355.13 163.865
L356.047 63.0004
L356.964 74.6866
L357.882 47.6983
L358.799 142.106
L359.716 200.305
L360.634 174.229
L361.551 215.247
L362.468 221.934
L363.385 193.928
L364.303 147.887
L365.22 87.4332
L366.137 89.9565
L367.054 79.9485
L367.972 143.541
L368.889 120.936
L369.806 157.812
L370.723 179.708
L370.723 179.708" style="fill:none;stroke:#0000ff;stroke-linecap:square;"/>
   </g>
   <g id="line2d_16">
    <path clip-path="url(#pd0c402dd48)" d="
M36.8406 235.476
L37.7579 226.406
L38.6751 223.476
L39.5924 228.607
L40.5097 219.827
L41.4269 214.632
L42.3442 224.312
M44.1787 228.908
L45.096 237.659
L46.0132 235.596
L46.9305 239.569
L47.8477 238.42
L48.765 230.444
L49.6823 216.903
L50.5995 218.332
L51.5168 215.465
L52.434 223.144
L53.3513 216.388
L54.2686 220.863
L55.1858 222.204
L56.1031 226.833
L57.0204 221.973
M72.6138 233.591
L73.531 226.529
L75.3656 237.201
L76.2828 232.763
L77.2001 232.2
L78.1173 227.926
L79.0346 232.478
L79.9519 209.964
L80.8691 232.132
L81.7864 233.525
L82.7036 237.972
L83.6209 228.319
L84.5382 226.892
L86.3727 214.37
L87.2899 212.075
L88.2072 215.67
L89.1245 230.672
L90.0417 222.356
L90.959 235.827
L91.8762 232.764
L92.7935 235.343
L93.7108 209.016
L94.628 224.886
L95.5453 220.203
L96.4625 218.468
L97.3798 200.418
L98.2971 225.523
L99.2143 237.229
L100.132 213.374
L101.049 198.409
L101.966 193.147
L102.883 218.372
L103.801 192.974
L104.718 183.728
L105.635 218.354
L106.552 219.826
L107.47 187.573
L108.387 189.073
L109.304 194.161
L110.221 179.709
L111.139 172.466
L112.056 182.692
L112.973 205.688
L113.89 209.035
M115.725 226.525
L116.642 231.314
L117.56 221.206
L118.477 202.875
L119.394 237.409
L120.311 228.988
L121.229 200.722
L122.146 204.35
L123.063 201.874
L123.98 195.049
L124.898 174.923
L125.815 180.436
L126.732 181.134
L127.649 178.714
L128.567 176.915
L129.484 187.586
L130.401 192.956
L131.318 181.947
L132.236 187.642
L133.153 182.35
L134.07 187.91
L134.987 182.426
L135.905 178.011
L136.822 178.874
L137.739 180.261
L138.657 230.014
L139.574 201.494
L140.491 211.381
L141.408 230.096
L142.326 210.96
L143.243 199.343
L144.16 195.226
L145.077 168.763
L145.995 162.679
L146.912 160.266
L147.829 161.445
L148.746 172.335
L149.664 191.077
L150.581 207.286
L151.498 197.276
L152.415 197.261
L153.333 202.072
L154.25 199.274
L155.167 204.308
L156.084 176.132
L157.002 175.476
L157.919 170.141
L158.836 167.342
L159.754 162.711
L160.671 185.402
L161.588 170.953
L162.505 199.866
L163.423 189.497
L164.34 204.725
L165.257 210.565
L166.174 181.848
L167.092 175.29
L168.009 192.072
L168.926 191.379
L169.843 177.945
L170.761 180.331
L171.678 195.697
L172.595 182.578
L173.512 188.52
L174.43 185.453
L175.347 196.702
L176.264 174.956
L177.181 168.045
L178.099 180.036
L179.016 178.819
L179.933 175.026
L180.85 190.751
L181.768 183.192
L182.685 181.546
L183.602 184.132
L184.52 180.876
L185.437 186.417
L186.354 207.663
L187.271 207.849
L188.189 200.029
L189.106 206.617
L190.023 210
L190.94 216.107
L191.858 166.71
L192.775 175.103
L193.692 169.486
L194.609 161.109
L195.527 161.811
L196.444 185.991
L197.361 219.327
L198.278 208.008
L199.196 209.852
L200.113 193.838
L202.865 172.481
L203.782 187.646
L204.699 187.231
L205.617 182.6
L206.534 180.732
L207.451 186.781
L208.368 194.257
L209.286 199.901
L210.203 212.559
L211.12 194.395
L212.037 196.834
L212.955 193.341
L213.872 194.126
L214.789 192.277
L215.706 195.7
L217.541 206.26
L218.458 200.44
L219.375 204.104
L220.293 198.815
L221.21 216.439
L223.044 195.904
L223.962 196.735
L224.879 194.264
L225.796 186.416
L226.714 189.009
L227.631 198.721
L228.548 190.035
L229.465 199.891
L230.383 196.614
L231.3 204.654
L232.217 205.801
L233.134 202.429
L234.052 202.595
L234.969 210.468
L235.886 209.098
L236.803 204.778
L237.721 206.945
L238.638 204.223
L239.555 194.78
L240.472 199.419
L241.39 198.947
L242.307 219.602
L243.224 205.598
L244.141 201.763
L245.059 203.263
L245.976 193.914
L246.893 191.789
L247.81 202.464
L248.728 207.302
L249.645 204.115
L250.562 207.497
L251.48 213.914
L252.397 207.041
L253.314 214.372
L255.149 192.931
L256.066 190.913
L256.983 192.551
L257.9 209.993
L259.735 203.079
L260.652 201.589
L261.569 207.661
L262.487 195.656
L263.404 188.579
L264.321 192.476
L265.238 197.35
L266.156 190.983
L267.073 196.17
L267.99 203.595
L268.907 205.214
L269.825 203.983
L270.742 208.1
L271.659 199.054
L272.577 196.129
L273.494 197.959
L274.411 204.628
L275.328 213.292
L276.246 211.924
L277.163 210.227
L278.08 223.448
L278.997 217.534
L279.915 221.87
L280.832 203.175
L281.749 210.603
L282.666 213.384
L283.584 228.366
L284.501 232.529
L285.418 237.687
L286.335 220.506
L287.253 209.61
L288.17 200.358
L289.087 199.643
L290.004 196.198
L290.922 196.418
L291.839 199.044
L292.756 202.21
L293.674 204.075
L294.591 208.029
L295.508 213.058
L296.425 221.093
L297.343 226.432
L298.26 211.168
L299.177 214.955
L300.094 228.091
L301.012 220.302
L301.929 202.454
L303.763 219.4
L304.681 209.322
L305.598 227.763
L306.515 219.712
L307.432 233.401
L308.35 221.975
L309.267 225.882
L311.101 221.945
L312.019 209.604
L312.936 221.227
L313.853 216.467
L314.77 220.266
L315.688 235.653
M317.522 232.514
L318.44 234.994
L319.357 227.74
L320.274 218.557
L321.191 220.541
L322.109 218.073
L323.026 226.591
L323.943 232.968
L324.86 230.592
L325.778 216.435
L326.695 232.124
M328.529 242.335
L329.447 233.443
L330.364 230.238
L331.281 227.589
L332.198 223.595
L333.116 221.462
L334.033 225.568
L334.95 235.886
L336.785 226.01
L337.702 236.449
L338.619 224.678
L339.537 224.155
L340.454 216.815
L341.371 232.774
L342.288 229.038
L343.206 237.13
L344.123 234.873
L345.04 231.088
L345.957 228.062
L346.875 223.249
L347.792 233.663
L348.709 226.447
L349.626 236.171
L350.544 228.885
L351.461 226.982
L352.378 223.988
L353.295 238.232
L354.213 242.152
L355.13 229.523
L356.047 231.019
L356.964 237.814
L357.882 234.064
L359.716 241.067
L360.634 242.047
L361.551 241.798
L362.468 244.386
L363.385 233.235
L364.303 240.29
L365.22 243.844
M367.054 239.374
L367.972 244.442
L368.889 244.015
L369.806 244.421
L369.806 244.421" style="fill:none;stroke:#008000;stroke-linecap:square;"/>
   </g>
   <g id="patch_3">
    <path d="
M36.8406 244.518
L36.8406 21.3181" style="fill:none;stroke:#000000;stroke-linecap:square;stroke-linejoin:miter;"/>
   </g>
   <g id="patch_4">
    <path d="
M36.8406 21.3181
L371.641 21.3181" style="fill:none;stroke:#000000;stroke-linecap:square;stroke-linejoin:miter;"/>
   </g>
   <g id="patch_5">
    <path d="
M371.641 244.518
L371.641 21.3181" style="fill:none;stroke:#000000;stroke-linecap:square;stroke-linejoin:miter;"/>
   </g>
   <g id="patch_6">
    <path d="
M36.8406 244.518
L371.641 244.518" style="fill:none;stroke:#000000;stroke-linecap:square;stroke-linejoin:miter;"/>
   </g>
   <g id="matplotlib.axis_1">
    <g id="xtick_1">
     <g id="line2d_17">
      <defs>
       <path d="
M0 0
L0 -4" id="mc7db9fdffb" style="stroke:#000000;stroke-width:0.5;"/>
      </defs>
      <g>
       <use style="stroke:#000000;stroke-width:0.5;" x="36.840625" xlink:href="#mc7db9fdffb" y="244.518125"/>
      </g>
     </g>
     <g id="line2d_18">
      <defs>
       <path d="
M0 0
L0 4" id="m5a7d422ac3" style="stroke:#000000;stroke-width:0.5;"/>
      </defs>
      <g>
       <use style="stroke:#000000;stroke-width:0.5;" x="36.840625" xlink:href="#m5a7d422ac3" y="21.318125"/>
      </g>
     </g>
     <g id="text_1">
      <!-- 0 -->
      <defs>
       <path d="
M31.7812 66.4062
Q24.1719 66.4062 20.3281 58.9062
Q16.5 51.4219 16.5 36.375
Q16.5 21.3906 20.3281 13.8906
Q24.1719 6.39062 31.7812 6.39062
Q39.4531 6.39062 43.2812 13.8906
Q47.125 21.3906 47.125 36.375
Q47.125 51.4219 43.2812 58.9062
Q39.4531 66.4062 31.7812 66.4062
M31.7812 74.2188
Q44.0469 74.2188 50.5156 64.5156
Q56.9844 54.8281 56.9844 36.375
Q56.9844 17.9688 50.5156 8.26562
Q44.0469 -1.42188 31.7812 -1.42188
Q19.5312 -1.42188 13.0625 8.26562
Q6.59375 17.9688 6.59375 36.375
Q6.59375 54.8281 13.0625 64.5156
Q19.5312 74.2188 31.7812 74.2188" id="BitstreamVeraSans-Roman-30"/>
      </defs>
      <g transform="translate(34.32109375 256.1165625)scale(0.1 -0.1)">
       <use xlink:href="#BitstreamVeraSans-Roman-30"/>
      </g>
     </g>
    </g>
    <g id="xtick_2">
     <g id="line2d_19">
      <g>
       <use style="stroke:#000000;stroke-width:0.5;" x="82.7036386986" xlink:href="#mc7db9fdffb" y="244.518125"/>
      </g>
     </g>
     <g id="line2d_20">
      <g>
       <use style="stroke:#000000;stroke-width:0.5;" x="82.7036386986" xlink:href="#m5a7d422ac3" y="21.318125"/>
      </g>
     </g>
     <g id="text_2">
      <!-- 50 -->
      <defs>
       <path d="
M10.7969 72.9062
L49.5156 72.9062
L49.5156 64.5938
L19.8281 64.5938
L19.8281 46.7344
Q21.9688 47.4688 24.1094 47.8281
Q26.2656 48.1875 28.4219 48.1875
Q40.625 48.1875 47.75 41.5
Q54.8906 34.8125 54.8906 23.3906
Q54.8906 11.625 47.5625 5.09375
Q40.2344 -1.42188 26.9062 -1.42188
Q22.3125 -1.42188 17.5469 -0.640625
Q12.7969 0.140625 7.71875 1.70312
L7.71875 11.625
Q12.1094 9.23438 16.7969 8.0625
Q21.4844 6.89062 26.7031 6.89062
Q35.1562 6.89062 40.0781 11.3281
Q45.0156 15.7656 45.0156 23.3906
Q45.0156 31 40.0781 35.4375
Q35.1562 39.8906 26.7031 39.8906
Q22.75 39.8906 18.8125 39.0156
Q14.8906 38.1406 10.7969 36.2812
z
" id="BitstreamVeraSans-Roman-35"/>
      </defs>
      <g transform="translate(77.0591074486 256.1165625)scale(0.1 -0.1)">
       <use xlink:href="#BitstreamVeraSans-Roman-35"/>
       <use x="63.623046875" xlink:href="#BitstreamVeraSans-Roman-30"/>
      </g>
     </g>
    </g>
    <g id="xtick_3">
     <g id="line2d_21">
      <g>
       <use style="stroke:#000000;stroke-width:0.5;" x="128.566652397" xlink:href="#mc7db9fdffb" y="244.518125"/>
      </g>
     </g>
     <g id="line2d_22">
      <g>
       <use style="stroke:#000000;stroke-width:0.5;" x="128.566652397" xlink:href="#m5a7d422ac3" y="21.318125"/>
      </g>
     </g>
     <g id="text_3">
      <!-- 100 -->
      <defs>
       <path d="
M12.4062 8.29688
L28.5156 8.29688
L28.5156 63.9219
L10.9844 60.4062
L10.9844 69.3906
L28.4219 72.9062
L38.2812 72.9062
L38.2812 8.29688
L54.3906 8.29688
L54.3906 0
L12.4062 0
z
" id="BitstreamVeraSans-Roman-31"/>
      </defs>
      <g transform="translate(119.904152397 256.1165625)scale(0.1 -0.1)">
       <use xlink:href="#BitstreamVeraSans-Roman-31"/>
       <use x="63.623046875" xlink:href="#BitstreamVeraSans-Roman-30"/>
       <use x="127.24609375" xlink:href="#BitstreamVeraSans-Roman-30"/>
      </g>
     </g>
    </g>
    <g id="xtick_4">
     <g id="line2d_23">
      <g>
       <use style="stroke:#000000;stroke-width:0.5;" x="174.429666096" xlink:href="#mc7db9fdffb" y="244.518125"/>
      </g>
     </g>
     <g id="line2d_24">
      <g>
       <use style="stroke:#000000;stroke-width:0.5;" x="174.429666096" xlink:href="#m5a7d422ac3" y="21.318125"/>
      </g>
     </g>
     <g id="text_4">
      <!-- 150 -->
      <g transform="translate(165.767166096 256.1165625)scale(0.1 -0.1)">
       <use xlink:href="#BitstreamVeraSans-Roman-31"/>
       <use x="63.623046875" xlink:href="#BitstreamVeraSans-Roman-35"/>
       <use x="127.24609375" xlink:href="#BitstreamVeraSans-Roman-30"/>
      </g>
     </g>
    </g>
    <g id="xtick_5">
     <g id="line2d_25">
      <g>
       <use style="stroke:#000000;stroke-width:0.5;" x="220.292679795" xlink:href="#mc7db9fdffb" y="244.518125"/>
      </g>
     </g>
     <g id="line2d_26">
      <g>
       <use style="stroke:#000000;stroke-width:0.5;" x="220.292679795" xlink:href="#m5a7d422ac3" y="21.318125"/>
      </g>
     </g>
     <g id="text_5">
      <!-- 200 -->
      <defs>
       <path d="
M19.1875 8.29688
L53.6094 8.29688
L53.6094 0
L7.32812 0
L7.32812 8.29688
Q12.9375 14.1094 22.625 23.8906
Q32.3281 33.6875 34.8125 36.5312
Q39.5469 41.8438 41.4219 45.5312
Q43.3125 49.2188 43.3125 52.7812
Q43.3125 58.5938 39.2344 62.25
Q35.1562 65.9219 28.6094 65.9219
Q23.9688 65.9219 18.8125 64.3125
Q13.6719 62.7031 7.8125 59.4219
L7.8125 69.3906
Q13.7656 71.7812 18.9375 73
Q24.125 74.2188 28.4219 74.2188
Q39.75 74.2188 46.4844 68.5469
Q53.2188 62.8906 53.2188 53.4219
Q53.2188 48.9219 51.5312 44.8906
Q49.8594 40.875 45.4062 35.4062
Q44.1875 33.9844 37.6406 27.2188
Q31.1094 20.4531 19.1875 8.29688" id="BitstreamVeraSans-Roman-32"/>
      </defs>
      <g transform="translate(211.447367295 256.1165625)scale(0.1 -0.1)">
       <use xlink:href="#BitstreamVeraSans-Roman-32"/>
       <use x="63.623046875" xlink:href="#BitstreamVeraSans-Roman-30"/>
       <use x="127.24609375" xlink:href="#BitstreamVeraSans-Roman-30"/>
      </g>
     </g>
    </g>
    <g id="xtick_6">
     <g id="line2d_27">
      <g>
       <use style="stroke:#000000;stroke-width:0.5;" x="266.155693493" xlink:href="#mc7db9fdffb" y="244.518125"/>
      </g>
     </g>
     <g id="line2d_28">
      <g>
       <use style="stroke:#000000;stroke-width:0.5;" x="266.155693493" xlink:href="#m5a7d422ac3" y="21.318125"/>
      </g>
     </g>
     <g id="text_6">
      <!-- 250 -->
      <g transform="translate(257.310380993 256.1165625)scale(0.1 -0.1)">
       <use xlink:href="#BitstreamVeraSans-Roman-32"/>
       <use x="63.623046875" xlink:href="#BitstreamVeraSans-Roman-35"/>
       <use x="127.24609375" xlink:href="#BitstreamVeraSans-Roman-30"/>
      </g>
     </g>
    </g>
    <g id="xtick_7">
     <g id="line2d_29">
      <g>
       <use style="stroke:#000000;stroke-width:0.5;" x="312.018707192" xlink:href="#mc7db9fdffb" y="244.518125"/>
      </g>
     </g>
     <g id="line2d_30">
      <g>
       <use style="stroke:#000000;stroke-width:0.5;" x="312.018707192" xlink:href="#m5a7d422ac3" y="21.318125"/>
      </g>
     </g>
     <g id="text_7">
      <!-- 300 -->
      <defs>
       <path d="
M40.5781 39.3125
Q47.6562 37.7969 51.625 33
Q55.6094 28.2188 55.6094 21.1875
Q55.6094 10.4062 48.1875 4.48438
Q40.7656 -1.42188 27.0938 -1.42188
Q22.5156 -1.42188 17.6562 -0.515625
Q12.7969 0.390625 7.625 2.20312
L7.625 11.7188
Q11.7188 9.32812 16.5938 8.10938
Q21.4844 6.89062 26.8125 6.89062
Q36.0781 6.89062 40.9375 10.5469
Q45.7969 14.2031 45.7969 21.1875
Q45.7969 27.6406 41.2812 31.2656
Q36.7656 34.9062 28.7188 34.9062
L20.2188 34.9062
L20.2188 43.0156
L29.1094 43.0156
Q36.375 43.0156 40.2344 45.9219
Q44.0938 48.8281 44.0938 54.2969
Q44.0938 59.9062 40.1094 62.9062
Q36.1406 65.9219 28.7188 65.9219
Q24.6562 65.9219 20.0156 65.0312
Q15.375 64.1562 9.8125 62.3125
L9.8125 71.0938
Q15.4375 72.6562 20.3438 73.4375
Q25.25 74.2188 29.5938 74.2188
Q40.8281 74.2188 47.3594 69.1094
Q53.9062 64.0156 53.9062 55.3281
Q53.9062 49.2656 50.4375 45.0938
Q46.9688 40.9219 40.5781 39.3125" id="BitstreamVeraSans-Roman-33"/>
      </defs>
      <g transform="translate(303.188238442 256.1165625)scale(0.1 -0.1)">
       <use xlink:href="#BitstreamVeraSans-Roman-33"/>
       <use x="63.623046875" xlink:href="#BitstreamVeraSans-Roman-30"/>
       <use x="127.24609375" xlink:href="#BitstreamVeraSans-Roman-30"/>
      </g>
     </g>
    </g>
    <g id="xtick_8">
     <g id="line2d_31">
      <g>
       <use style="stroke:#000000;stroke-width:0.5;" x="357.88172089" xlink:href="#mc7db9fdffb" y="244.518125"/>
      </g>
     </g>
     <g id="line2d_32">
      <g>
       <use style="stroke:#000000;stroke-width:0.5;" x="357.88172089" xlink:href="#m5a7d422ac3" y="21.318125"/>
      </g>
     </g>
     <g id="text_8">
      <!-- 350 -->
      <g transform="translate(349.05125214 256.1165625)scale(0.1 -0.1)">
       <use xlink:href="#BitstreamVeraSans-Roman-33"/>
       <use x="63.623046875" xlink:href="#BitstreamVeraSans-Roman-35"/>
       <use x="127.24609375" xlink:href="#BitstreamVeraSans-Roman-30"/>
      </g>
     </g>
    </g>
    <g id="text_9">
     <!-- Julian day -->
     <defs>
      <path id="BitstreamVeraSans-Roman-20"/>
      <path d="
M34.2812 27.4844
Q23.3906 27.4844 19.1875 25
Q14.9844 22.5156 14.9844 16.5
Q14.9844 11.7188 18.1406 8.90625
Q21.2969 6.10938 26.7031 6.10938
Q34.1875 6.10938 38.7031 11.4062
Q43.2188 16.7031 43.2188 25.4844
L43.2188 27.4844
z

M52.2031 31.2031
L52.2031 0
L43.2188 0
L43.2188 8.29688
Q40.1406 3.32812 35.5469 0.953125
Q30.9531 -1.42188 24.3125 -1.42188
Q15.9219 -1.42188 10.9531 3.29688
Q6 8.01562 6 15.9219
Q6 25.1406 12.1719 29.8281
Q18.3594 34.5156 30.6094 34.5156
L43.2188 34.5156
L43.2188 35.4062
Q43.2188 41.6094 39.1406 45
Q35.0625 48.3906 27.6875 48.3906
Q23 48.3906 18.5469 47.2656
Q14.1094 46.1406 10.0156 43.8906
L10.0156 52.2031
Q14.9375 54.1094 19.5781 55.0469
Q24.2188 56 28.6094 56
Q40.4844 56 46.3438 49.8438
Q52.2031 43.7031 52.2031 31.2031" id="BitstreamVeraSans-Roman-61"/>
      <path d="
M45.4062 46.3906
L45.4062 75.9844
L54.3906 75.9844
L54.3906 0
L45.4062 0
L45.4062 8.20312
Q42.5781 3.32812 38.25 0.953125
Q33.9375 -1.42188 27.875 -1.42188
Q17.9688 -1.42188 11.7344 6.48438
Q5.51562 14.4062 5.51562 27.2969
Q5.51562 40.1875 11.7344 48.0938
Q17.9688 56 27.875 56
Q33.9375 56 38.25 53.625
Q42.5781 51.2656 45.4062 46.3906
M14.7969 27.2969
Q14.7969 17.3906 18.875 11.75
Q22.9531 6.10938 30.0781 6.10938
Q37.2031 6.10938 41.2969 11.75
Q45.4062 17.3906 45.4062 27.2969
Q45.4062 37.2031 41.2969 42.8438
Q37.2031 48.4844 30.0781 48.4844
Q22.9531 48.4844 18.875 42.8438
Q14.7969 37.2031 14.7969 27.2969" id="BitstreamVeraSans-Roman-64"/>
      <path d="
M9.42188 54.6875
L18.4062 54.6875
L18.4062 0
L9.42188 0
z

M9.42188 75.9844
L18.4062 75.9844
L18.4062 64.5938
L9.42188 64.5938
z
" id="BitstreamVeraSans-Roman-69"/>
      <path d="
M9.42188 75.9844
L18.4062 75.9844
L18.4062 0
L9.42188 0
z
" id="BitstreamVeraSans-Roman-6c"/>
      <path d="
M32.1719 -5.07812
Q28.375 -14.8438 24.75 -17.8125
Q21.1406 -20.7969 15.0938 -20.7969
L7.90625 -20.7969
L7.90625 -13.2812
L13.1875 -13.2812
Q16.8906 -13.2812 18.9375 -11.5156
Q21 -9.76562 23.4844 -3.21875
L25.0938 0.875
L2.98438 54.6875
L12.5 54.6875
L29.5938 11.9219
L46.6875 54.6875
L56.2031 54.6875
z
" id="BitstreamVeraSans-Roman-79"/>
      <path d="
M9.8125 72.9062
L19.6719 72.9062
L19.6719 5.07812
Q19.6719 -8.10938 14.6719 -14.0625
Q9.67188 -20.0156 -1.42188 -20.0156
L-5.17188 -20.0156
L-5.17188 -11.7188
L-2.09375 -11.7188
Q4.4375 -11.7188 7.125 -8.04688
Q9.8125 -4.39062 9.8125 5.07812
z
" id="BitstreamVeraSans-Roman-4a"/>
      <path d="
M54.8906 33.0156
L54.8906 0
L45.9062 0
L45.9062 32.7188
Q45.9062 40.4844 42.875 44.3281
Q39.8438 48.1875 33.7969 48.1875
Q26.5156 48.1875 22.3125 43.5469
Q18.1094 38.9219 18.1094 30.9062
L18.1094 0
L9.07812 0
L9.07812 54.6875
L18.1094 54.6875
L18.1094 46.1875
Q21.3438 51.125 25.7031 53.5625
Q30.0781 56 35.7969 56
Q45.2188 56 50.0469 50.1719
Q54.8906 44.3438 54.8906 33.0156" id="BitstreamVeraSans-Roman-6e"/>
      <path d="
M8.5 21.5781
L8.5 54.6875
L17.4844 54.6875
L17.4844 21.9219
Q17.4844 14.1562 20.5 10.2656
Q23.5312 6.39062 29.5938 6.39062
Q36.8594 6.39062 41.0781 11.0312
Q45.3125 15.6719 45.3125 23.6875
L45.3125 54.6875
L54.2969 54.6875
L54.2969 0
L45.3125 0
L45.3125 8.40625
Q42.0469 3.42188 37.7188 1
Q33.4062 -1.42188 27.6875 -1.42188
Q18.2656 -1.42188 13.375 4.4375
Q8.5 10.2969 8.5 21.5781" id="BitstreamVeraSans-Roman-75"/>
     </defs>
     <g transform="translate(179.68984375 270.7946875)scale(0.1 -0.1)">
      <use xlink:href="#BitstreamVeraSans-Roman-4a"/>
      <use x="29.4921875" xlink:href="#BitstreamVeraSans-Roman-75"/>
      <use x="92.87109375" xlink:href="#BitstreamVeraSans-Roman-6c"/>
      <use x="120.654296875" xlink:href="#BitstreamVeraSans-Roman-69"/>
      <use x="148.4375" xlink:href="#BitstreamVeraSans-Roman-61"/>
      <use x="209.716796875" xlink:href="#BitstreamVeraSans-Roman-6e"/>
      <use x="273.095703125" xlink:href="#BitstreamVeraSans-Roman-20"/>
      <use x="304.8828125" xlink:href="#BitstreamVeraSans-Roman-64"/>
      <use x="368.359375" xlink:href="#BitstreamVeraSans-Roman-61"/>
      <use x="429.638671875" xlink:href="#BitstreamVeraSans-Roman-79"/>
     </g>
    </g>
   </g>
   <g id="matplotlib.axis_2">
    <g id="ytick_1">
     <g id="line2d_33">
      <defs>
       <path d="
M0 0
L4 0" id="md7965d1ba0" style="stroke:#000000;stroke-width:0.5;"/>
      </defs>
      <g>
       <use style="stroke:#000000;stroke-width:0.5;" x="36.840625" xlink:href="#md7965d1ba0" y="244.518125"/>
      </g>
     </g>
     <g id="line2d_34">
      <defs>
       <path d="
M0 0
L-4 0" id="md9a1c1a7cd" style="stroke:#000000;stroke-width:0.5;"/>
      </defs>
      <g>
       <use style="stroke:#000000;stroke-width:0.5;" x="371.640625" xlink:href="#md9a1c1a7cd" y="244.518125"/>
      </g>
     </g>
     <g id="text_10">
      <!-- 0 -->
      <g transform="translate(27.8015625 247.2775)scale(0.1 -0.1)">
       <use xlink:href="#BitstreamVeraSans-Roman-30"/>
      </g>
     </g>
    </g>
    <g id="ytick_2">
     <g id="line2d_35">
      <g>
       <use style="stroke:#000000;stroke-width:0.5;" x="36.840625" xlink:href="#md7965d1ba0" y="199.878125"/>
      </g>
     </g>
     <g id="line2d_36">
      <g>
       <use style="stroke:#000000;stroke-width:0.5;" x="371.640625" xlink:href="#md9a1c1a7cd" y="199.878125"/>
      </g>
     </g>
     <g id="text_11">
      <!-- 2 -->
      <g transform="translate(28.2125 202.6375)scale(0.1 -0.1)">
       <use xlink:href="#BitstreamVeraSans-Roman-32"/>
      </g>
     </g>
    </g>
    <g id="ytick_3">
     <g id="line2d_37">
      <g>
       <use style="stroke:#000000;stroke-width:0.5;" x="36.840625" xlink:href="#md7965d1ba0" y="155.238125"/>
      </g>
     </g>
     <g id="line2d_38">
      <g>
       <use style="stroke:#000000;stroke-width:0.5;" x="371.640625" xlink:href="#md9a1c1a7cd" y="155.238125"/>
      </g>
     </g>
     <g id="text_12">
      <!-- 4 -->
      <defs>
       <path d="
M37.7969 64.3125
L12.8906 25.3906
L37.7969 25.3906
z

M35.2031 72.9062
L47.6094 72.9062
L47.6094 25.3906
L58.0156 25.3906
L58.0156 17.1875
L47.6094 17.1875
L47.6094 0
L37.7969 0
L37.7969 17.1875
L4.89062 17.1875
L4.89062 26.7031
z
" id="BitstreamVeraSans-Roman-34"/>
      </defs>
      <g transform="translate(27.528125 157.9975)scale(0.1 -0.1)">
       <use xlink:href="#BitstreamVeraSans-Roman-34"/>
      </g>
     </g>
    </g>
    <g id="ytick_4">
     <g id="line2d_39">
      <g>
       <use style="stroke:#000000;stroke-width:0.5;" x="36.840625" xlink:href="#md7965d1ba0" y="110.598125"/>
      </g>
     </g>
     <g id="line2d_40">
      <g>
       <use style="stroke:#000000;stroke-width:0.5;" x="371.640625" xlink:href="#md9a1c1a7cd" y="110.598125"/>
      </g>
     </g>
     <g id="text_13">
      <!-- 6 -->
      <defs>
       <path d="
M33.0156 40.375
Q26.375 40.375 22.4844 35.8281
Q18.6094 31.2969 18.6094 23.3906
Q18.6094 15.5312 22.4844 10.9531
Q26.375 6.39062 33.0156 6.39062
Q39.6562 6.39062 43.5312 10.9531
Q47.4062 15.5312 47.4062 23.3906
Q47.4062 31.2969 43.5312 35.8281
Q39.6562 40.375 33.0156 40.375
M52.5938 71.2969
L52.5938 62.3125
Q48.875 64.0625 45.0938 64.9844
Q41.3125 65.9219 37.5938 65.9219
Q27.8281 65.9219 22.6719 59.3281
Q17.5312 52.7344 16.7969 39.4062
Q19.6719 43.6562 24.0156 45.9219
Q28.375 48.1875 33.5938 48.1875
Q44.5781 48.1875 50.9531 41.5156
Q57.3281 34.8594 57.3281 23.3906
Q57.3281 12.1562 50.6875 5.35938
Q44.0469 -1.42188 33.0156 -1.42188
Q20.3594 -1.42188 13.6719 8.26562
Q6.98438 17.9688 6.98438 36.375
Q6.98438 53.6562 15.1875 63.9375
Q23.3906 74.2188 37.2031 74.2188
Q40.9219 74.2188 44.7031 73.4844
Q48.4844 72.75 52.5938 71.2969" id="BitstreamVeraSans-Roman-36"/>
      </defs>
      <g transform="translate(27.80625 113.3575)scale(0.1 -0.1)">
       <use xlink:href="#BitstreamVeraSans-Roman-36"/>
      </g>
     </g>
    </g>
    <g id="ytick_5">
     <g id="line2d_41">
      <g>
       <use style="stroke:#000000;stroke-width:0.5;" x="36.840625" xlink:href="#md7965d1ba0" y="65.958125"/>
      </g>
     </g>
     <g id="line2d_42">
      <g>
       <use style="stroke:#000000;stroke-width:0.5;" x="371.640625" xlink:href="#md9a1c1a7cd" y="65.958125"/>
      </g>
     </g>
     <g id="text_14">
      <!-- 8 -->
      <defs>
       <path d="
M31.7812 34.625
Q24.75 34.625 20.7188 30.8594
Q16.7031 27.0938 16.7031 20.5156
Q16.7031 13.9219 20.7188 10.1562
Q24.75 6.39062 31.7812 6.39062
Q38.8125 6.39062 42.8594 10.1719
Q46.9219 13.9688 46.9219 20.5156
Q46.9219 27.0938 42.8906 30.8594
Q38.875 34.625 31.7812 34.625
M21.9219 38.8125
Q15.5781 40.375 12.0312 44.7188
Q8.5 49.0781 8.5 55.3281
Q8.5 64.0625 14.7188 69.1406
Q20.9531 74.2188 31.7812 74.2188
Q42.6719 74.2188 48.875 69.1406
Q55.0781 64.0625 55.0781 55.3281
Q55.0781 49.0781 51.5312 44.7188
Q48 40.375 41.7031 38.8125
Q48.8281 37.1562 52.7969 32.3125
Q56.7812 27.4844 56.7812 20.5156
Q56.7812 9.90625 50.3125 4.23438
Q43.8438 -1.42188 31.7812 -1.42188
Q19.7344 -1.42188 13.25 4.23438
Q6.78125 9.90625 6.78125 20.5156
Q6.78125 27.4844 10.7812 32.3125
Q14.7969 37.1562 21.9219 38.8125
M18.3125 54.3906
Q18.3125 48.7344 21.8438 45.5625
Q25.3906 42.3906 31.7812 42.3906
Q38.1406 42.3906 41.7188 45.5625
Q45.3125 48.7344 45.3125 54.3906
Q45.3125 60.0625 41.7188 63.2344
Q38.1406 66.4062 31.7812 66.4062
Q25.3906 66.4062 21.8438 63.2344
Q18.3125 60.0625 18.3125 54.3906" id="BitstreamVeraSans-Roman-38"/>
      </defs>
      <g transform="translate(27.840625 68.7175)scale(0.1 -0.1)">
       <use xlink:href="#BitstreamVeraSans-Roman-38"/>
      </g>
     </g>
    </g>
    <g id="ytick_6">
     <g id="line2d_43">
      <g>
       <use style="stroke:#000000;stroke-width:0.5;" x="36.840625" xlink:href="#md7965d1ba0" y="21.318125"/>
      </g>
     </g>
     <g id="line2d_44">
      <g>
       <use style="stroke:#000000;stroke-width:0.5;" x="371.640625" xlink:href="#md9a1c1a7cd" y="21.318125"/>
      </g>
     </g>
     <g id="text_15">
      <!-- 10 -->
      <g transform="translate(21.878125 24.0775)scale(0.1 -0.1)">
       <use xlink:href="#BitstreamVeraSans-Roman-31"/>
       <use x="63.623046875" xlink:href="#BitstreamVeraSans-Roman-30"/>
      </g>
     </g>
    </g>
    <g id="text_16">
     <!-- PET (mm/day) -->
     <defs>
      <path d="
M25.3906 72.9062
L33.6875 72.9062
L8.29688 -9.28125
L0 -9.28125
z
" id="BitstreamVeraSans-Roman-2f"/>
      <path d="
M31 75.875
Q24.4688 64.6562 21.2812 53.6562
Q18.1094 42.6719 18.1094 31.3906
Q18.1094 20.125 21.3125 9.0625
Q24.5156 -2 31 -13.1875
L23.1875 -13.1875
Q15.875 -1.70312 12.2344 9.375
Q8.59375 20.4531 8.59375 31.3906
Q8.59375 42.2812 12.2031 53.3125
Q15.8281 64.3594 23.1875 75.875
z
" id="BitstreamVeraSans-Roman-28"/>
      <path d="
M52 44.1875
Q55.375 50.25 60.0625 53.125
Q64.75 56 71.0938 56
Q79.6406 56 84.2812 50.0156
Q88.9219 44.0469 88.9219 33.0156
L88.9219 0
L79.8906 0
L79.8906 32.7188
Q79.8906 40.5781 77.0938 44.375
Q74.3125 48.1875 68.6094 48.1875
Q61.625 48.1875 57.5625 43.5469
Q53.5156 38.9219 53.5156 30.9062
L53.5156 0
L44.4844 0
L44.4844 32.7188
Q44.4844 40.625 41.7031 44.4062
Q38.9219 48.1875 33.1094 48.1875
Q26.2188 48.1875 22.1562 43.5312
Q18.1094 38.875 18.1094 30.9062
L18.1094 0
L9.07812 0
L9.07812 54.6875
L18.1094 54.6875
L18.1094 46.1875
Q21.1875 51.2188 25.4844 53.6094
Q29.7812 56 35.6875 56
Q41.6562 56 45.8281 52.9688
Q50 49.9531 52 44.1875" id="BitstreamVeraSans-Roman-6d"/>
      <path d="
M19.6719 64.7969
L19.6719 37.4062
L32.0781 37.4062
Q38.9688 37.4062 42.7188 40.9688
Q46.4844 44.5312 46.4844 51.125
Q46.4844 57.6719 42.7188 61.2344
Q38.9688 64.7969 32.0781 64.7969
z

M9.8125 72.9062
L32.0781 72.9062
Q44.3438 72.9062 50.6094 67.3594
Q56.8906 61.8125 56.8906 51.125
Q56.8906 40.3281 50.6094 34.8125
Q44.3438 29.2969 32.0781 29.2969
L19.6719 29.2969
L19.6719 0
L9.8125 0
z
" id="BitstreamVeraSans-Roman-50"/>
      <path d="
M8.01562 75.875
L15.8281 75.875
Q23.1406 64.3594 26.7812 53.3125
Q30.4219 42.2812 30.4219 31.3906
Q30.4219 20.4531 26.7812 9.375
Q23.1406 -1.70312 15.8281 -13.1875
L8.01562 -13.1875
Q14.5 -2 17.7031 9.0625
Q20.9062 20.125 20.9062 31.3906
Q20.9062 42.6719 17.7031 53.6562
Q14.5 64.6562 8.01562 75.875" id="BitstreamVeraSans-Roman-29"/>
      <path d="
M-0.296875 72.9062
L61.375 72.9062
L61.375 64.5938
L35.5 64.5938
L35.5 0
L25.5938 0
L25.5938 64.5938
L-0.296875 64.5938
z
" id="BitstreamVeraSans-Roman-54"/>
      <path d="
M9.8125 72.9062
L55.9062 72.9062
L55.9062 64.5938
L19.6719 64.5938
L19.6719 43.0156
L54.3906 43.0156
L54.3906 34.7188
L19.6719 34.7188
L19.6719 8.29688
L56.7812 8.29688
L56.7812 0
L9.8125 0
z
" id="BitstreamVeraSans-Roman-45"/>
     </defs>
     <g transform="translate(14.7984375 167.82984375)rotate(-90.0)scale(0.1 -0.1)">
      <use xlink:href="#BitstreamVeraSans-Roman-50"/>
      <use x="60.302734375" xlink:href="#BitstreamVeraSans-Roman-45"/>
      <use x="123.486328125" xlink:href="#BitstreamVeraSans-Roman-54"/>
      <use x="184.5703125" xlink:href="#BitstreamVeraSans-Roman-20"/>
      <use x="216.357421875" xlink:href="#BitstreamVeraSans-Roman-28"/>
      <use x="255.37109375" xlink:href="#BitstreamVeraSans-Roman-6d"/>
      <use x="352.783203125" xlink:href="#BitstreamVeraSans-Roman-6d"/>
      <use x="450.1953125" xlink:href="#BitstreamVeraSans-Roman-2f"/>
      <use x="483.88671875" xlink:href="#BitstreamVeraSans-Roman-64"/>
      <use x="547.36328125" xlink:href="#BitstreamVeraSans-Roman-61"/>
      <use x="608.642578125" xlink:href="#BitstreamVeraSans-Roman-79"/>
      <use x="667.822265625" xlink:href="#BitstreamVeraSans-Roman-29"/>
     </g>
    </g>
   </g>
   <g id="text_17">
    <!-- daily grass PET at Treeline -->
    <defs>
     <path d="
M56.2031 29.5938
L56.2031 25.2031
L14.8906 25.2031
Q15.4844 15.9219 20.4844 11.0625
Q25.4844 6.20312 34.4219 6.20312
Q39.5938 6.20312 44.4531 7.46875
Q49.3125 8.73438 54.1094 11.2812
L54.1094 2.78125
Q49.2656 0.734375 44.1875 -0.34375
Q39.1094 -1.42188 33.8906 -1.42188
Q20.7969 -1.42188 13.1562 6.1875
Q5.51562 13.8125 5.51562 26.8125
Q5.51562 40.2344 12.7656 48.1094
Q20.0156 56 32.3281 56
Q43.3594 56 49.7812 48.8906
Q56.2031 41.7969 56.2031 29.5938
M47.2188 32.2344
Q47.125 39.5938 43.0938 43.9844
Q39.0625 48.3906 32.4219 48.3906
Q24.9062 48.3906 20.3906 44.1406
Q15.875 39.8906 15.1875 32.1719
z
" id="BitstreamVeraSans-Roman-65"/>
     <path d="
M18.3125 70.2188
L18.3125 54.6875
L36.8125 54.6875
L36.8125 47.7031
L18.3125 47.7031
L18.3125 18.0156
Q18.3125 11.3281 20.1406 9.42188
Q21.9688 7.51562 27.5938 7.51562
L36.8125 7.51562
L36.8125 0
L27.5938 0
Q17.1875 0 13.2344 3.875
Q9.28125 7.76562 9.28125 18.0156
L9.28125 47.7031
L2.6875 47.7031
L2.6875 54.6875
L9.28125 54.6875
L9.28125 70.2188
z
" id="BitstreamVeraSans-Roman-74"/>
     <path d="
M41.1094 46.2969
Q39.5938 47.1719 37.8125 47.5781
Q36.0312 48 33.8906 48
Q26.2656 48 22.1875 43.0469
Q18.1094 38.0938 18.1094 28.8125
L18.1094 0
L9.07812 0
L9.07812 54.6875
L18.1094 54.6875
L18.1094 46.1875
Q20.9531 51.1719 25.4844 53.5781
Q30.0312 56 36.5312 56
Q37.4531 56 38.5781 55.875
Q39.7031 55.7656 41.0625 55.5156
z
" id="BitstreamVeraSans-Roman-72"/>
     <path d="
M45.4062 27.9844
Q45.4062 37.75 41.375 43.1094
Q37.3594 48.4844 30.0781 48.4844
Q22.8594 48.4844 18.8281 43.1094
Q14.7969 37.75 14.7969 27.9844
Q14.7969 18.2656 18.8281 12.8906
Q22.8594 7.51562 30.0781 7.51562
Q37.3594 7.51562 41.375 12.8906
Q45.4062 18.2656 45.4062 27.9844
M54.3906 6.78125
Q54.3906 -7.17188 48.1875 -13.9844
Q42 -20.7969 29.2031 -20.7969
Q24.4688 -20.7969 20.2656 -20.0938
Q16.0625 -19.3906 12.1094 -17.9219
L12.1094 -9.1875
Q16.0625 -11.3281 19.9219 -12.3438
Q23.7812 -13.375 27.7812 -13.375
Q36.625 -13.375 41.0156 -8.76562
Q45.4062 -4.15625 45.4062 5.17188
L45.4062 9.625
Q42.625 4.78125 38.2812 2.39062
Q33.9375 0 27.875 0
Q17.8281 0 11.6719 7.65625
Q5.51562 15.3281 5.51562 27.9844
Q5.51562 40.6719 11.6719 48.3281
Q17.8281 56 27.875 56
Q33.9375 56 38.2812 53.6094
Q42.625 51.2188 45.4062 46.3906
L45.4062 54.6875
L54.3906 54.6875
z
" id="BitstreamVeraSans-Roman-67"/>
     <path d="
M44.2812 53.0781
L44.2812 44.5781
Q40.4844 46.5312 36.375 47.5
Q32.2812 48.4844 27.875 48.4844
Q21.1875 48.4844 17.8438 46.4375
Q14.5 44.3906 14.5 40.2812
Q14.5 37.1562 16.8906 35.375
Q19.2812 33.5938 26.5156 31.9844
L29.5938 31.2969
Q39.1562 29.25 43.1875 25.5156
Q47.2188 21.7812 47.2188 15.0938
Q47.2188 7.46875 41.1875 3.01562
Q35.1562 -1.42188 24.6094 -1.42188
Q20.2188 -1.42188 15.4531 -0.5625
Q10.6875 0.296875 5.42188 2
L5.42188 11.2812
Q10.4062 8.6875 15.2344 7.39062
Q20.0625 6.10938 24.8125 6.10938
Q31.1562 6.10938 34.5625 8.28125
Q37.9844 10.4531 37.9844 14.4062
Q37.9844 18.0625 35.5156 20.0156
Q33.0625 21.9688 24.7031 23.7812
L21.5781 24.5156
Q13.2344 26.2656 9.51562 29.9062
Q5.8125 33.5469 5.8125 39.8906
Q5.8125 47.6094 11.2812 51.7969
Q16.75 56 26.8125 56
Q31.7812 56 36.1719 55.2656
Q40.5781 54.5469 44.2812 53.0781" id="BitstreamVeraSans-Roman-73"/>
    </defs>
    <g transform="translate(125.9321875 16.318125)scale(0.12 -0.12)">
     <use xlink:href="#BitstreamVeraSans-Roman-64"/>
     <use x="63.4765625" xlink:href="#BitstreamVeraSans-Roman-61"/>
     <use x="124.755859375" xlink:href="#BitstreamVeraSans-Roman-69"/>
     <use x="152.5390625" xlink:href="#BitstreamVeraSans-Roman-6c"/>
     <use x="180.322265625" xlink:href="#BitstreamVeraSans-Roman-79"/>
     <use x="239.501953125" xlink:href="#BitstreamVeraSans-Roman-20"/>
     <use x="271.2890625" xlink:href="#BitstreamVeraSans-Roman-67"/>
     <use x="334.765625" xlink:href="#BitstreamVeraSans-Roman-72"/>
     <use x="375.87890625" xlink:href="#BitstreamVeraSans-Roman-61"/>
     <use x="437.158203125" xlink:href="#BitstreamVeraSans-Roman-73"/>
     <use x="489.2578125" xlink:href="#BitstreamVeraSans-Roman-73"/>
     <use x="541.357421875" xlink:href="#BitstreamVeraSans-Roman-20"/>
     <use x="573.14453125" xlink:href="#BitstreamVeraSans-Roman-50"/>
     <use x="633.447265625" xlink:href="#BitstreamVeraSans-Roman-45"/>
     <use x="696.630859375" xlink:href="#BitstreamVeraSans-Roman-54"/>
     <use x="757.71484375" xlink:href="#BitstreamVeraSans-Roman-20"/>
     <use x="789.501953125" xlink:href="#BitstreamVeraSans-Roman-61"/>
     <use x="850.78125" xlink:href="#BitstreamVeraSans-Roman-74"/>
     <use x="889.990234375" xlink:href="#BitstreamVeraSans-Roman-20"/>
     <use x="921.77734375" xlink:href="#BitstreamVeraSans-Roman-54"/>
     <use x="968.111328125" xlink:href="#BitstreamVeraSans-Roman-72"/>
     <use x="1006.974609375" xlink:href="#BitstreamVeraSans-Roman-65"/>
     <use x="1068.498046875" xlink:href="#BitstreamVeraSans-Roman-65"/>
     <use x="1130.021484375" xlink:href="#BitstreamVeraSans-Roman-6c"/>
     <use x="1157.8046875" xlink:href="#BitstreamVeraSans-Roman-69"/>
     <use x="1185.587890625" xlink:href="#BitstreamVeraSans-Roman-6e"/>
     <use x="1248.966796875" xlink:href="#BitstreamVeraSans-Roman-65"/>
    </g>
   </g>
   <g id="legend_1">
    <g id="patch_7">
     <path d="
M293.453 312.738
L365.641 312.738
L365.641 27.3181
L293.453 27.3181
z
" style="fill:#ffffff;stroke:#000000;stroke-linejoin:miter;"/>
    </g>
    <g id="line2d_45">
     <path d="
M301.853 37.0363
L318.653 37.0363" style="fill:none;stroke:#0000ff;stroke-linecap:square;"/>
    </g>
    <g id="line2d_46"/>
    <g id="text_18">
     <!-- 1999 -->
     <defs>
      <path d="
M10.9844 1.51562
L10.9844 10.5
Q14.7031 8.73438 18.5 7.8125
Q22.3125 6.89062 25.9844 6.89062
Q35.75 6.89062 40.8906 13.4531
Q46.0469 20.0156 46.7812 33.4062
Q43.9531 29.2031 39.5938 26.9531
Q35.25 24.7031 29.9844 24.7031
Q19.0469 24.7031 12.6719 31.3125
Q6.29688 37.9375 6.29688 49.4219
Q6.29688 60.6406 12.9375 67.4219
Q19.5781 74.2188 30.6094 74.2188
Q43.2656 74.2188 49.9219 64.5156
Q56.5938 54.8281 56.5938 36.375
Q56.5938 19.1406 48.4062 8.85938
Q40.2344 -1.42188 26.4219 -1.42188
Q22.7031 -1.42188 18.8906 -0.6875
Q15.0938 0.046875 10.9844 1.51562
M30.6094 32.4219
Q37.25 32.4219 41.125 36.9531
Q45.0156 41.5 45.0156 49.4219
Q45.0156 57.2812 41.125 61.8438
Q37.25 66.4062 30.6094 66.4062
Q23.9688 66.4062 20.0938 61.8438
Q16.2188 57.2812 16.2188 49.4219
Q16.2188 41.5 20.0938 36.9531
Q23.9688 32.4219 30.6094 32.4219" id="BitstreamVeraSans-Roman-39"/>
     </defs>
     <g transform="translate(331.853125 41.23625)scale(0.12 -0.12)">
      <use xlink:href="#BitstreamVeraSans-Roman-31"/>
      <use x="63.623046875" xlink:href="#BitstreamVeraSans-Roman-39"/>
      <use x="127.24609375" xlink:href="#BitstreamVeraSans-Roman-39"/>
      <use x="190.869140625" xlink:href="#BitstreamVeraSans-Roman-39"/>
     </g>
    </g>
    <g id="line2d_47">
     <path d="
M301.853 54.65
L318.653 54.65" style="fill:none;stroke:#008000;stroke-linecap:square;"/>
    </g>
    <g id="line2d_48"/>
    <g id="text_19">
     <!-- 2000 -->
     <g transform="translate(331.853125 58.85)scale(0.12 -0.12)">
      <use xlink:href="#BitstreamVeraSans-Roman-32"/>
      <use x="63.623046875" xlink:href="#BitstreamVeraSans-Roman-30"/>
      <use x="127.24609375" xlink:href="#BitstreamVeraSans-Roman-30"/>
      <use x="190.869140625" xlink:href="#BitstreamVeraSans-Roman-30"/>
     </g>
    </g>
    <g id="line2d_49">
     <path d="
M301.853 72.2638
L318.653 72.2638" style="fill:none;stroke:#ff0000;stroke-linecap:square;"/>
    </g>
    <g id="line2d_50"/>
    <g id="text_20">
     <!-- 2001 -->
     <g transform="translate(331.853125 76.46375)scale(0.12 -0.12)">
      <use xlink:href="#BitstreamVeraSans-Roman-32"/>
      <use x="63.623046875" xlink:href="#BitstreamVeraSans-Roman-30"/>
      <use x="127.24609375" xlink:href="#BitstreamVeraSans-Roman-30"/>
      <use x="190.869140625" xlink:href="#BitstreamVeraSans-Roman-31"/>
     </g>
    </g>
    <g id="line2d_51">
     <path d="
M301.853 89.8775
L318.653 89.8775" style="fill:none;stroke:#00bfbf;stroke-linecap:square;"/>
    </g>
    <g id="line2d_52"/>
    <g id="text_21">
     <!-- 2002 -->
     <g transform="translate(331.853125 94.0775)scale(0.12 -0.12)">
      <use xlink:href="#BitstreamVeraSans-Roman-32"/>
      <use x="63.623046875" xlink:href="#BitstreamVeraSans-Roman-30"/>
      <use x="127.24609375" xlink:href="#BitstreamVeraSans-Roman-30"/>
      <use x="190.869140625" xlink:href="#BitstreamVeraSans-Roman-32"/>
     </g>
    </g>
    <g id="line2d_53">
     <path d="
M301.853 107.491
L318.653 107.491" style="fill:none;stroke:#bf00bf;stroke-linecap:square;"/>
    </g>
    <g id="line2d_54"/>
    <g id="text_22">
     <!-- 2003 -->
     <g transform="translate(331.853125 111.69125)scale(0.12 -0.12)">
      <use xlink:href="#BitstreamVeraSans-Roman-32"/>
      <use x="63.623046875" xlink:href="#BitstreamVeraSans-Roman-30"/>
      <use x="127.24609375" xlink:href="#BitstreamVeraSans-Roman-30"/>
      <use x="190.869140625" xlink:href="#BitstreamVeraSans-Roman-33"/>
     </g>
    </g>
    <g id="line2d_55">
     <path d="
M301.853 125.105
L318.653 125.105" style="fill:none;stroke:#bfbf00;stroke-linecap:square;"/>
    </g>
    <g id="line2d_56"/>
    <g id="text_23">
     <!-- 2004 -->
     <g transform="translate(331.853125 129.305)scale(0.12 -0.12)">
      <use xlink:href="#BitstreamVeraSans-Roman-32"/>
      <use x="63.623046875" xlink:href="#BitstreamVeraSans-Roman-30"/>
      <use x="127.24609375" xlink:href="#BitstreamVeraSans-Roman-30"/>
      <use x="190.869140625" xlink:href="#BitstreamVeraSans-Roman-34"/>
     </g>
    </g>
    <g id="line2d_57">
     <path d="
M301.853 142.719
L318.653 142.719" style="fill:none;stroke:#000000;stroke-linecap:square;"/>
    </g>
    <g id="line2d_58"/>
    <g id="text_24">
     <!-- 2005 -->
     <g transform="translate(331.853125 146.91875)scale(0.12 -0.12)">
      <use xlink:href="#BitstreamVeraSans-Roman-32"/>
      <use x="63.623046875" xlink:href="#BitstreamVeraSans-Roman-30"/>
      <use x="127.24609375" xlink:href="#BitstreamVeraSans-Roman-30"/>
      <use x="190.869140625" xlink:href="#BitstreamVeraSans-Roman-35"/>
     </g>
    </g>
    <g id="line2d_59">
     <path d="
M301.853 160.333
L318.653 160.333" style="fill:none;stroke:#0000ff;stroke-linecap:square;"/>
    </g>
    <g id="line2d_60"/>
    <g id="text_25">
     <!-- 2006 -->
     <g transform="translate(331.853125 164.5325)scale(0.12 -0.12)">
      <use xlink:href="#BitstreamVeraSans-Roman-32"/>
      <use x="63.623046875" xlink:href="#BitstreamVeraSans-Roman-30"/>
      <use x="127.24609375" xlink:href="#BitstreamVeraSans-Roman-30"/>
      <use x="190.869140625" xlink:href="#BitstreamVeraSans-Roman-36"/>
     </g>
    </g>
    <g id="line2d_61">
     <path d="
M301.853 177.946
L318.653 177.946" style="fill:none;stroke:#008000;stroke-linecap:square;"/>
    </g>
    <g id="line2d_62"/>
    <g id="text_26">
     <!-- 2007 -->
     <defs>
      <path d="
M8.20312 72.9062
L55.0781 72.9062
L55.0781 68.7031
L28.6094 0
L18.3125 0
L43.2188 64.5938
L8.20312 64.5938
z
" id="BitstreamVeraSans-Roman-37"/>
     </defs>
     <g transform="translate(331.853125 182.14625)scale(0.12 -0.12)">
      <use xlink:href="#BitstreamVeraSans-Roman-32"/>
      <use x="63.623046875" xlink:href="#BitstreamVeraSans-Roman-30"/>
      <use x="127.24609375" xlink:href="#BitstreamVeraSans-Roman-30"/>
      <use x="190.869140625" xlink:href="#BitstreamVeraSans-Roman-37"/>
     </g>
    </g>
    <g id="line2d_63">
     <path d="
M301.853 195.56
L318.653 195.56" style="fill:none;stroke:#ff0000;stroke-linecap:square;"/>
    </g>
    <g id="line2d_64"/>
    <g id="text_27">
     <!-- 2008 -->
     <g transform="translate(331.853125 199.76)scale(0.12 -0.12)">
      <use xlink:href="#BitstreamVeraSans-Roman-32"/>
      <use x="63.623046875" xlink:href="#BitstreamVeraSans-Roman-30"/>
      <use x="127.24609375" xlink:href="#BitstreamVeraSans-Roman-30"/>
      <use x="190.869140625" xlink:href="#BitstreamVeraSans-Roman-38"/>
     </g>
    </g>
    <g id="line2d_65">
     <path d="
M301.853 213.174
L318.653 213.174" style="fill:none;stroke:#00bfbf;stroke-linecap:square;"/>
    </g>
    <g id="line2d_66"/>
    <g id="text_28">
     <!-- 2009 -->
     <g transform="translate(331.853125 217.37375)scale(0.12 -0.12)">
      <use xlink:href="#BitstreamVeraSans-Roman-32"/>
      <use x="63.623046875" xlink:href="#BitstreamVeraSans-Roman-30"/>
      <use x="127.24609375" xlink:href="#BitstreamVeraSans-Roman-30"/>
      <use x="190.869140625" xlink:href="#BitstreamVeraSans-Roman-39"/>
     </g>
    </g>
    <g id="line2d_67">
     <path d="
M301.853 230.788
L318.653 230.788" style="fill:none;stroke:#bf00bf;stroke-linecap:square;"/>
    </g>
    <g id="line2d_68"/>
    <g id="text_29">
     <!-- 2010 -->
     <g transform="translate(331.853125 234.9875)scale(0.12 -0.12)">
      <use xlink:href="#BitstreamVeraSans-Roman-32"/>
      <use x="63.623046875" xlink:href="#BitstreamVeraSans-Roman-30"/>
      <use x="127.24609375" xlink:href="#BitstreamVeraSans-Roman-31"/>
      <use x="190.869140625" xlink:href="#BitstreamVeraSans-Roman-30"/>
     </g>
    </g>
    <g id="line2d_69">
     <path d="
M301.853 248.401
L318.653 248.401" style="fill:none;stroke:#bfbf00;stroke-linecap:square;"/>
    </g>
    <g id="line2d_70"/>
    <g id="text_30">
     <!-- 2011 -->
     <g transform="translate(331.853125 252.60125)scale(0.12 -0.12)">
      <use xlink:href="#BitstreamVeraSans-Roman-32"/>
      <use x="63.623046875" xlink:href="#BitstreamVeraSans-Roman-30"/>
      <use x="127.24609375" xlink:href="#BitstreamVeraSans-Roman-31"/>
      <use x="190.869140625" xlink:href="#BitstreamVeraSans-Roman-31"/>
     </g>
    </g>
    <g id="line2d_71">
     <path d="
M301.853 266.015
L318.653 266.015" style="fill:none;stroke:#000000;stroke-linecap:square;"/>
    </g>
    <g id="line2d_72"/>
    <g id="text_31">
     <!-- 2012 -->
     <g transform="translate(331.853125 270.215)scale(0.12 -0.12)">
      <use xlink:href="#BitstreamVeraSans-Roman-32"/>
      <use x="63.623046875" xlink:href="#BitstreamVeraSans-Roman-30"/>
      <use x="127.24609375" xlink:href="#BitstreamVeraSans-Roman-31"/>
      <use x="190.869140625" xlink:href="#BitstreamVeraSans-Roman-32"/>
     </g>
    </g>
    <g id="line2d_73">
     <path d="
M301.853 283.629
L318.653 283.629" style="fill:none;stroke:#0000ff;stroke-linecap:square;"/>
    </g>
    <g id="line2d_74"/>
    <g id="text_32">
     <!-- 2013 -->
     <g transform="translate(331.853125 287.82875)scale(0.12 -0.12)">
      <use xlink:href="#BitstreamVeraSans-Roman-32"/>
      <use x="63.623046875" xlink:href="#BitstreamVeraSans-Roman-30"/>
      <use x="127.24609375" xlink:href="#BitstreamVeraSans-Roman-31"/>
      <use x="190.869140625" xlink:href="#BitstreamVeraSans-Roman-33"/>
     </g>
    </g>
    <g id="line2d_75">
     <path d="
M301.853 301.243
L318.653 301.243" style="fill:none;stroke:#008000;stroke-linecap:square;"/>
    </g>
    <g id="line2d_76"/>
    <g id="text_33">
     <!-- 2014 -->
     <g transform="translate(331.853125 305.4425)scale(0.12 -0.12)">
      <use xlink:href="#BitstreamVeraSans-Roman-32"/>
      <use x="63.623046875" xlink:href="#BitstreamVeraSans-Roman-30"/>
      <use x="127.24609375" xlink:href="#BitstreamVeraSans-Roman-31"/>
      <use x="190.869140625" xlink:href="#BitstreamVeraSans-Roman-34"/>
     </g>
    </g>
   </g>
  </g>
 </g>
 <defs>
  <clipPath id="pd0c402dd48">
   <rect height="223.2" width="334.8" x="36.840625" y="21.318125"/>
  </clipPath>
 </defs>
</svg>
