<?xml version="1.0" encoding="utf-8" standalone="no"?>
<!DOCTYPE svg PUBLIC "-//W3C//DTD SVG 1.1//EN"
  "http://www.w3.org/Graphics/SVG/1.1/DTD/svg11.dtd">
<!-- Created with matplotlib (http://matplotlib.org/) -->
<svg height="319pt" version="1.1" viewBox="0 0 382 319" width="382pt" xmlns="http://www.w3.org/2000/svg" xmlns:xlink="http://www.w3.org/1999/xlink">
 <defs>
  <style type="text/css">
*{stroke-linecap:butt;stroke-linejoin:round;}
  </style>
 </defs>
 <g id="figure_1">
  <g id="patch_1">
   <path d="
M0 319.938
L382.628 319.938
L382.628 0
L0 0
z
" style="fill:#ffffff;"/>
  </g>
  <g id="axes_1">
   <g id="patch_2">
    <path d="
M40.6281 244.518
L375.428 244.518
L375.428 21.3181
L40.6281 21.3181
z
" style="fill:#ffffff;"/>
   </g>
   <g id="line2d_1">
    <path clip-path="url(#p705cba3da1)" d="
M0 0" style="fill:none;stroke:#0000ff;stroke-linecap:square;"/>
   </g>
   <g id="line2d_2">
    <path clip-path="url(#p705cba3da1)" d="
M0 0" style="fill:none;stroke:#008000;stroke-linecap:square;"/>
   </g>
   <g id="line2d_3">
    <path clip-path="url(#p705cba3da1)" d="
M0 0" style="fill:none;stroke:#ff0000;stroke-linecap:square;"/>
   </g>
   <g id="line2d_4">
    <path clip-path="url(#p705cba3da1)" d="
M0 0" style="fill:none;stroke:#00bfbf;stroke-linecap:square;"/>
   </g>
   <g id="line2d_5">
    <path clip-path="url(#p705cba3da1)" d="
M0 0" style="fill:none;stroke:#bf00bf;stroke-linecap:square;"/>
   </g>
   <g id="line2d_6">
    <path clip-path="url(#p705cba3da1)" d="
M0 0" style="fill:none;stroke:#bfbf00;stroke-linecap:square;"/>
   </g>
   <g id="line2d_7">
    <path clip-path="url(#p705cba3da1)" d="
M0 0" style="fill:none;stroke:#000000;stroke-linecap:square;"/>
   </g>
   <g id="line2d_8">
    <path clip-path="url(#p705cba3da1)" d="
M0 0" style="fill:none;stroke:#0000ff;stroke-linecap:square;"/>
   </g>
   <g id="line2d_9">
    <path clip-path="url(#p705cba3da1)" d="
M0 0" style="fill:none;stroke:#008000;stroke-linecap:square;"/>
   </g>
   <g id="line2d_10">
    <path clip-path="url(#p705cba3da1)" d="
M40.6281 137.181
L41.5454 105.45
L42.4626 121.619
L43.3799 197.041
L44.2972 214.859
L45.2144 219.18
L46.1317 225.372
L47.0489 223.208
L47.9662 202.454
L48.8835 220.055
M50.718 218.206
L51.6352 217.982
L52.5525 198.98
L53.4698 191.794
L54.387 166.951
L55.3043 184
L56.2215 189.589
L57.1388 181.955
L58.0561 232.622
L58.9733 233.085
L59.8906 193.637
L60.8079 167.087
L61.7251 177.279
L62.6424 205.084
L63.5596 196.921
L64.4769 197.159
L65.3942 218.715
L66.3114 225.826
M68.1459 241.321
L69.0632 226.164
L69.9805 219.183
M71.815 209.554
L72.7322 203.411
L73.6495 210.34
L74.5668 237.657
L75.484 190.284
L76.4013 210.855
L77.3185 181.412
L78.2358 186.688
L79.1531 183.258
L80.0703 201.27
L80.9876 161.561
L81.9048 162.857
L82.8221 173.482
L83.7394 144.39
L84.6566 160.361
L85.5739 170.085
L87.4084 200.838
L88.3257 226.247
L89.2429 201.969
L90.1602 209.223
L91.0774 233.606
L91.9947 181.909
L92.912 187.828
L94.7465 164.012
L95.6637 202.5
L96.581 200.653
L97.4983 168.215
L98.4155 178.938
L99.3328 161.558
L100.25 132.079
L101.167 147.306
L102.085 186.969
L103.002 165.557
L103.919 153.935
L104.836 136.175
L105.754 107.488
L106.671 202.413
L107.588 215.503
L108.505 181.739
L109.423 186.183
L110.34 163.302
L111.257 234.459
L112.174 219.838
L113.092 177.414
L114.009 124.623
L114.926 108.702
L115.843 129.787
L116.761 193.013
L117.678 192.072
L118.595 223.765
L119.513 147.368
L120.43 198.827
L121.347 166.301
L122.264 164.594
L123.182 168.576
L124.099 106.867
L125.016 102.58
L125.933 102.982
L126.851 164.105
L127.768 142.934
L128.685 171.109
L129.602 191.775
L130.52 136.144
L132.354 176.224
L133.271 121.031
L134.189 121.665
L135.106 132.973
L136.023 165.946
L136.94 152.91
L137.858 131.794
L138.775 101.009
L139.692 103.062
L140.609 123.364
L141.527 131.696
L142.444 122.895
L143.361 94.1629
L144.279 166.287
L145.196 164.482
L146.113 81.2397
L147.03 43.0703
L147.948 63.6837
L148.865 72.7096
L149.782 163.415
L150.699 75.4313
L151.617 77.7442
L152.534 51.7953
L154.368 72.2948
L155.286 79.653
L156.203 102.337
L157.12 134.9
L158.037 79.3418
L158.955 57.9833
L159.872 63.1301
L160.789 86.0847
L161.706 75.6736
L162.624 97.5041
L163.541 161.699
L164.458 115.903
L165.376 103.06
L166.293 102.119
L167.21 116.72
L168.127 104.104
L169.045 175.553
L169.962 148.253
L170.879 146.522
L171.796 172.577
L172.714 114.95
L173.631 150.421
L174.548 176.213
L175.465 173.392
L176.383 139.597
L177.3 144.111
L178.217 132.965
L179.134 131.526
L180.052 173.902
L180.969 93.1191
L181.886 185.607
L182.803 148.531
L183.721 100.265
L184.638 89.5065
L185.555 128.205
L186.473 62.346
L187.39 122.614
L188.307 139.828
L189.224 149.05
L190.142 91.6532
L191.059 78.5855
L191.976 78.8957
L192.893 87.7983
L193.811 94.3548
L194.728 93.2008
L195.645 86.1374
L196.562 85.5855
L197.48 106.133
L198.397 143.959
L199.314 115.067
L200.231 98.975
L201.149 104.704
L202.066 89.8085
L202.983 99.2787
L203.9 104.158
L204.818 112.989
L205.735 119.757
L206.652 135.384
L207.569 140.989
L208.487 110.764
L209.404 121.703
L210.321 127.619
L211.239 117.677
L212.156 104.966
L213.073 107.872
L213.99 108.122
L214.908 109.861
L215.825 102.007
L216.742 82.4467
L217.659 93.9822
L218.577 103.534
L219.494 107.302
L220.411 110.187
L221.328 116.601
L222.246 111.991
L223.163 100.009
L224.08 101.202
L224.997 114.806
L226.832 162.06
L227.749 116.939
L228.666 112.406
L229.584 116.925
L230.501 115.046
L231.418 114.795
L232.336 115.106
L233.253 138.744
L234.17 106.033
L235.087 108.084
L236.005 121.291
L236.922 113.4
L237.839 113.243
L238.756 115.575
L239.674 138.015
L240.591 148.454
L241.508 140.269
L242.425 153.421
L243.343 123.746
L244.26 104.872
L245.177 111.14
L246.094 118.299
L247.012 120.045
L247.929 124.323
L248.846 124.145
L249.763 119.64
L250.681 125.86
L251.598 141.644
L252.515 143.082
L253.433 127.182
L254.35 137.499
L255.267 103.656
L256.184 114.254
L257.102 127.677
L258.019 134.547
L259.853 101.796
L260.771 119.033
L261.688 127.103
L262.605 129.239
L263.522 121.745
L264.44 134.26
L265.357 113.887
L266.274 97.7568
L267.191 99.1424
L268.109 112.774
L269.026 124.246
L269.943 120.349
L270.86 115.411
L271.778 122.012
L272.695 105.027
L273.612 111.735
L274.529 109.934
L275.447 120.084
L276.364 122.205
L277.281 120.912
L278.199 125.155
L279.116 127.553
L280.033 131.925
L280.95 157.746
L281.868 191.562
L282.785 206.64
L283.702 152.014
L284.619 120.988
L285.537 113.291
L286.454 124.428
L287.371 118.875
L288.288 128.176
L289.206 122.766
L290.123 126.843
L291.04 138.033
L291.957 136.606
L292.875 163.851
L293.792 166.335
L294.709 224.53
L295.626 193.014
L296.544 148.468
L297.461 147.959
L298.378 110.285
L299.296 117.074
L300.213 223.417
L301.13 196.276
L302.047 142.236
L302.965 119.107
L303.882 138.149
L304.799 134.769
L305.716 132.808
L306.634 148.476
L307.551 140.596
L308.468 149.91
L309.385 142.582
L310.303 149.263
L311.22 96.5516
L313.054 116.718
L313.972 136.552
L314.889 132.538
L315.806 119.481
L316.723 132.717
L317.641 133.844
L318.558 139.57
L319.475 169.962
L320.393 204.678
L321.31 226.769
L322.227 230.909
L323.144 232.268
L324.062 195.582
L324.979 207.243
L325.896 195.644
L326.813 194.231
L327.731 228.586
L328.648 217.693
L329.565 235.935
L330.482 204.871
L331.4 186.472
L332.317 138.683
L333.234 138.515
L334.151 147.024
L335.069 134.823
L335.986 142.089
L336.903 159.302
L337.82 185.89
L338.738 155.145
L339.655 185.619
L340.572 201.578
L341.489 143.747
L342.407 149.158
L343.324 171.68
L344.241 161.354
L345.159 183.955
L346.076 222.079
L346.993 209.921
L347.91 172.988
L348.828 213.992
L349.745 231.614
L350.662 159.821
L351.579 143.164
L352.497 142.472
L353.414 182.141
L354.331 211.777
L355.248 165.237
L356.166 147.198
L357.083 182.832
L358.917 241.086
L359.835 239.029
L360.752 212.01
L361.669 208.571
L362.586 198.525
L363.504 182.267
L364.421 228.161
L365.338 196.058
L366.256 221.657
L367.173 236.519
L368.09 226.472
L369.007 214.94
M370.842 218.101
L371.759 238.674
L372.676 238.825
L373.594 204.498
L374.511 156.389
L374.511 156.389" style="fill:none;stroke:#ff0000;stroke-linecap:square;"/>
   </g>
   <g id="line2d_11">
    <path clip-path="url(#p705cba3da1)" d="
M0 0" style="fill:none;stroke:#00bfbf;stroke-linecap:square;"/>
   </g>
   <g id="line2d_12">
    <path clip-path="url(#p705cba3da1)" d="
M40.6281 239.271
L42.4626 213.217
L43.3799 192.444
L44.2972 215.809
L45.2144 205.469
L46.1317 224.401
L47.0489 161.435
L47.9662 176.078
L48.8835 194.199
L49.8007 169.986
L50.718 189.002
L51.6352 231.718
L52.5525 212.462
L53.4698 145.325
L54.387 192.964
L55.3043 184.423
L56.2215 214.906
L57.1388 217.365
L58.0561 201.21
L58.9733 190.206
L59.8906 201.587
M61.7251 212.144
L62.6424 225.837
L63.5596 236.833
M65.3942 230.834
L66.3114 221.6
L67.2287 207.043
M69.0632 221.088
L69.9805 192.555
L70.8977 211.115
L71.815 222.376
L72.7322 227.324
L73.6495 213.096
L74.5668 239.033
L75.484 236.817
L76.4013 216.715
L77.3185 183.274
L78.2358 220.392
L79.1531 212.78
L80.0703 230.983
L80.9876 200.638
M82.8221 241.774
L83.7394 239.968
L84.6566 231.384
L85.5739 204.528
L86.4911 195.856
L87.4084 202.665
L88.3257 120.513
L89.2429 135.12
L90.1602 218.187
L91.0774 216.981
L91.9947 168.167
L92.912 197.487
L93.8292 206.679
L94.7465 169.698
L95.6637 159.552
L96.581 207.849
L97.4983 197.621
L98.4155 197.74
L100.25 150.555
L101.167 213.516
L102.085 167.274
L103.002 132.612
L103.919 143.207
L104.836 165.037
L105.754 222.841
L106.671 176.139
L107.588 115.763
L108.505 127.927
L109.423 123.493
L110.34 134.297
L111.257 88.7317
L112.174 108.82
L113.092 166.777
L114.009 181.083
L114.926 118.718
L115.843 111.796
L116.761 197.55
L117.678 202.352
L118.595 140.408
L119.513 119.671
L121.347 236.179
L122.264 182.476
L123.182 227.268
L124.099 222.386
L125.016 186.872
L125.933 193.979
L126.851 214.251
L127.768 158.066
L128.685 129.554
L129.602 162.531
L130.52 92.1295
L131.437 118.789
L132.354 129.136
L133.271 202.462
L134.189 179.365
L135.106 108.381
L136.023 79.3906
L136.94 119.635
L137.858 111.745
L138.775 84.1522
L139.692 86.4722
L140.609 158.312
L141.527 203.737
L142.444 180.1
L143.361 77.4655
L144.279 71.7428
L145.196 60.5237
L146.113 91.993
L147.03 202.166
L147.948 212.291
L148.865 179.312
L149.782 190.203
L150.699 168.42
L151.617 114.999
L152.534 167.507
L153.451 34.2172
L154.368 127.732
L155.286 122.164
L156.203 47.5842
L157.12 68.2454
L158.037 62.0057
L158.955 174.414
L159.872 107.489
L160.789 75.4557
L161.706 80.3583
L162.624 67.477
L163.541 74.3439
L164.458 99.0111
L165.376 129.92
L166.293 219.273
L167.21 123.215
L168.127 89.5223
L169.045 138.957
M170.879 162.34
L171.796 140.989
L172.714 94.8875
L173.631 177.412
L174.548 155.307
L175.465 171.792
L176.383 138.422
L177.3 97.763
L178.217 182.969
L179.134 165.774
L180.052 214.978
L180.969 153.54
L181.886 226.935
L182.803 130.341
L183.721 198.387
L184.638 108.643
L185.555 112.406
L186.473 153.869
L187.39 164.42
L188.307 125.449
L189.224 73.6286
L190.142 84.7728
L191.059 97.4723
L191.976 106.838
L192.893 92.7091
L193.811 108.248
L194.728 74.4438
L195.645 105.876
L196.562 151.508
L197.48 158.015
L198.397 92.567
L199.314 96.9778
L200.231 136.584
L201.149 155.264
L202.066 106.603
L202.983 96.644
L203.9 121.055
L204.818 154.254
L205.735 114.074
L206.652 103.267
L208.487 127.402
L209.404 92.5712
L210.321 94.4302
L211.239 92.6958
L212.156 94.4029
L213.073 101.196
L214.908 119.231
L215.825 111.456
L216.742 106.355
L217.659 72.5792
L219.494 94.3668
L220.411 109.266
L221.328 103.66
L222.246 104.639
L223.163 91.3576
L224.08 94.6322
L224.997 104.732
L225.915 103.176
L226.832 95.1192
L227.749 104.859
L228.666 122.53
L229.584 177.581
L230.501 132.15
L231.418 135.356
L232.336 124.71
L233.253 136.221
L234.17 129.861
L235.087 110.9
L236.005 107.884
L236.922 113.675
L237.839 112.976
L238.756 125.411
L239.674 141.932
L240.591 112.943
L241.508 117.752
L243.343 154.749
L244.26 192.69
L245.177 145.198
L246.094 122.426
L247.012 120.882
L247.929 120.283
L248.846 117.86
L249.763 121.623
L250.681 123.489
L251.598 115.006
L252.515 109.841
L253.433 120.3
L254.35 110.257
L255.267 110.801
L256.184 106.783
L257.102 118.313
L258.019 152.217
L258.936 102.808
L259.853 119.023
L260.771 203.659
L261.688 147.462
L262.605 160.922
L263.522 153.964
L264.44 122.178
L265.357 116.807
L266.274 132.364
L267.191 103.958
L268.109 96.8441
L269.026 98.2172
L269.943 184.303
L270.86 228.433
L271.778 129.36
L272.695 110.568
L273.612 114.002
L274.529 123.07
L275.447 130.235
L276.364 121.661
L277.281 119.491
L278.199 136.935
L279.116 131.773
L280.033 146.055
L280.95 138.188
L281.868 123.355
L282.785 121.994
L283.702 118.126
L284.619 112.809
L285.537 124.831
L286.454 128.224
L287.371 124.723
L289.206 134.211
L290.123 126.995
L291.04 134.422
L291.957 134.027
L292.875 176.812
L293.792 208.936
L294.709 183.267
L295.626 173.38
L296.544 141.79
L297.461 206.292
L298.378 178.846
L299.296 163.099
L300.213 173.034
L301.13 131.546
L302.047 122.428
L302.965 119.833
L303.882 139.132
L304.799 150.361
L305.716 142.71
L306.634 118.191
L307.551 106.567
L308.468 121.54
L309.385 124.167
L310.303 132.831
L311.22 206.935
L312.137 239.323
L313.054 202.093
L313.972 222.913
L314.889 168.798
L315.806 123.264
L316.723 137.325
L317.641 149.184
L318.558 214.284
L319.475 164.187
L320.393 157.85
L321.31 163.242
L322.227 145.449
L323.144 156.031
L324.062 156.663
L324.979 212.429
L325.896 219
L326.813 180.301
L327.731 237.738
L328.648 218.74
L329.565 182.085
L330.482 186.937
L331.4 238.23
L332.317 208.754
L333.234 194.993
L334.151 160.855
L335.069 189.263
M336.903 242.836
L337.82 233.513
M340.572 164.259
L341.489 153.65
L342.407 165.992
L343.324 198.639
L344.241 219.614
L345.159 175.272
L346.076 182.632
M347.91 234.795
L348.828 208.343
L349.745 216.442
L350.662 234.5
L351.579 235.12
L352.497 215.698
L353.414 187.658
L354.331 213.855
L355.248 224.589
L356.166 226.939
L357.083 214.794
L358 210.615
L358.917 230.493
L359.835 219.754
L360.752 176.606
L361.669 170.931
L362.586 214.026
L363.504 237.143
L364.421 221.167
L365.338 184.637
L366.256 230.346
L367.173 227.697
L369.007 121.738
L369.925 213.377
L370.842 214.612
L371.759 223.49
M373.594 232.392
L374.511 215.456
L374.511 215.456" style="fill:none;stroke:#bf00bf;stroke-linecap:square;"/>
   </g>
   <g id="line2d_13">
    <path clip-path="url(#p705cba3da1)" d="
M40.6281 188.177
L41.5454 194.653
L42.4626 222.426
L43.3799 228.936
L44.2972 190.767
L45.2144 201.169
L46.1317 199.437
L47.0489 207.152
L48.8835 241.269
L49.8007 192.004
L50.718 207.615
M52.5525 230.249
L53.4698 228.109
L54.387 240.585
L55.3043 227.254
L56.2215 232.19
L57.1388 240.131
L58.0561 180.939
L58.9733 225.448
L59.8906 227.064
L60.8079 166.487
L61.7251 228.757
L62.6424 235.037
L63.5596 235.823
L64.4769 230.408
L65.3942 228.63
L66.3114 229.379
L67.2287 242.656
L68.1459 200.918
L69.0632 165.99
L69.9805 145.314
L70.8977 167.811
L71.815 211.546
L72.7322 204.898
L73.6495 201.851
L74.5668 203.018
L75.484 212.773
L76.4013 191.612
L77.3185 175.315
L78.2358 161.939
L79.1531 160.583
L80.0703 150.075
L80.9876 156.966
L81.9048 164.754
L82.8221 206.216
L83.7394 218.908
L84.6566 228.79
L85.5739 223.743
M87.4084 214.355
L88.3257 211.431
L89.2429 197.616
L90.1602 239.935
L91.0774 241.701
L91.9947 174.965
L92.912 163.07
L93.8292 174.321
L94.7465 141.728
L95.6637 196.751
L96.581 204.584
L98.4155 223.814
L99.3328 230.156
L100.25 235.427
M102.085 220.24
L103.002 210.406
L103.919 240.859
L104.836 203.502
L105.754 234.605
L106.671 182.163
L107.588 214.554
M109.423 240.93
L110.34 175.459
L111.257 225.895
L112.174 186.795
L113.092 214.168
L114.009 203.623
L114.926 183.867
L115.843 223.075
M119.513 198.447
L120.43 218.923
L121.347 219.066
L122.264 153.973
L123.182 156.385
L124.099 168.536
L125.016 192.164
L125.933 156.132
L127.768 188.892
L128.685 169.166
L130.52 203.819
L131.437 156.537
L132.354 174.013
L133.271 120.323
L134.189 185.042
L135.106 114.206
L136.023 169.829
L136.94 186.128
L137.858 157.862
L138.775 156.596
L139.692 71.2361
L140.609 171.363
L141.527 195.327
L142.444 93.6705
L143.361 74.25
L144.279 150.983
L145.196 201.203
L146.113 143.472
L147.03 114.269
L147.948 200.427
L148.865 118.27
L149.782 129.872
L150.699 102.53
L151.617 150.242
L152.534 105.636
L153.451 93.7313
L154.368 113.236
L155.286 183.297
L156.203 155.342
L157.12 180.818
L158.955 102.517
L159.872 102.169
L160.789 115.894
L161.706 123.632
L162.624 156.456
L163.541 196.775
L164.458 220.822
L165.376 142.655
L166.293 185.061
L167.21 90.7192
L168.127 108.328
L169.045 144.291
L169.962 117.877
L170.879 171.03
L171.796 169.038
L172.714 157.845
L173.631 121.761
L174.548 199.63
L175.465 198.978
L176.383 199.803
L177.3 136.966
L178.217 146.969
L179.134 132.094
L180.052 182.849
L180.969 94.219
L182.803 124.918
L183.721 174.287
L184.638 189.921
L185.555 110.827
L186.473 136.497
L187.39 143.965
L188.307 146.347
L189.224 118.432
L190.142 161.727
L191.059 95.4054
L191.976 79.5055
L192.893 113.959
L193.811 86.8281
L194.728 186.625
L195.645 180.722
L196.562 99.0192
L198.397 120.27
L199.314 118.775
L200.231 100.463
L201.149 93.7633
L202.066 98.9844
L202.983 108.926
L203.9 124.59
L204.818 159.512
L205.735 116.384
L206.652 104.422
L207.569 105.017
L208.487 119.291
L209.404 124.238
L210.321 127.37
L211.239 121.301
L212.156 168.628
L213.073 107.662
L213.99 101.331
L214.908 122.118
L215.825 130.189
L216.742 121.732
L217.659 136.301
L218.577 125.904
L219.494 118.649
L220.411 133.553
L221.328 124.112
L222.246 121.471
L223.163 126.204
L224.08 113.211
L224.997 109.23
L225.915 114.465
L226.832 109.241
L227.749 123.854
L228.666 122.795
L229.584 126.972
L230.501 119.44
L231.418 116.762
L232.336 123.635
L233.253 136.575
L234.17 147.918
L235.087 137.279
L236.005 138.884
L236.922 127.089
L237.839 162.62
L238.756 128.779
L239.674 129.778
L240.591 134.579
L241.508 135.3
L242.425 122.441
L243.343 124.512
L244.26 115.332
L245.177 122.864
L246.094 139.355
L247.012 135.83
L247.929 115.551
L248.846 120.014
L249.763 128.876
L250.681 129.052
L251.598 126.076
L252.515 138.739
L253.433 141.456
L254.35 138.692
L255.267 135.313
L256.184 136.794
L257.102 144.082
L258.019 142.827
L258.936 169.218
L259.853 147.684
L260.771 138.539
L261.688 135.365
L262.605 121.575
L263.522 119.453
L264.44 120.098
L265.357 123.833
L266.274 123.893
L268.109 138.327
L269.026 141.757
L269.943 140.945
L270.86 148.48
L271.778 145.511
L272.695 155.259
L273.612 147.526
L274.529 147.195
L275.447 145.266
L276.364 201.388
L277.281 155.221
L278.199 124.59
L279.116 122.134
L280.033 135.04
L280.95 137.138
L281.868 130.692
L282.785 139.319
L283.702 140.132
L284.619 145.693
L285.537 152.093
L286.454 139.761
L287.371 139.528
L288.288 144.596
L289.206 136.378
L290.123 151.561
L291.04 150.464
L291.957 152.536
L292.875 152.695
L293.792 216.138
L294.709 235.243
M296.544 243.679
L297.461 183.998
L298.378 153
L299.296 212.459
L300.213 196.052
L301.13 152.331
L302.047 145.854
L302.965 142.964
L303.882 168.245
L304.799 236.626
L305.716 165.671
L306.634 138.11
L307.551 158.291
L308.468 146.905
L310.303 173.015
L311.22 165.726
L312.137 196.136
L313.054 146.434
L313.972 112.725
L314.889 126.098
L315.806 126.421
L316.723 137.993
L317.641 158.075
L318.558 192.042
L319.475 147.617
L320.393 114.206
L321.31 142.113
L322.227 206.625
L323.144 222.258
L324.062 231.575
L324.979 233.669
L326.813 155.682
L327.731 149.535
L328.648 165.628
L329.565 206.405
L330.482 215.865
L331.4 148.48
L332.317 127.764
L334.151 228.719
L335.069 229.668
L335.986 218.718
L336.903 169.698
L338.738 212.814
L339.655 160.115
L340.572 192.766
L341.489 192.582
L342.407 129.098
L343.324 131.286
L344.241 180.158
L345.159 216.943
L346.076 200.22
L346.993 144.062
L347.91 146.745
L349.745 181.062
L350.662 178.133
L351.579 149.193
L352.497 156.067
L353.414 153.397
L354.331 155.615
L356.166 170.147
L357.083 166.789
L358 181.875
L358.917 167.592
L359.835 194.397
L360.752 196.609
L361.669 194.146
L362.586 182.724
L363.504 168.174
L364.421 157.527
L365.338 191.544
L366.256 138.808
L367.173 129.677
L368.09 142.936
L369.007 153.325
L369.925 165.967
L371.759 224.839
L372.676 208.471
L373.594 243.309
L374.511 191.519
L374.511 191.519" style="fill:none;stroke:#bfbf00;stroke-linecap:square;"/>
   </g>
   <g id="line2d_14">
    <path clip-path="url(#p705cba3da1)" d="
M40.6281 138.317
L41.5454 152.105
L42.4626 146.991
L43.3799 135.341
L44.2972 162.091
L45.2144 184.101
L46.1317 198.878
L47.0489 179.808
L47.9662 190.782
L48.8835 224.957
L49.8007 173.848
L50.718 184.259
L51.6352 137.31
L52.5525 121.82
L53.4698 167.093
L54.387 183.49
L55.3043 148.642
L56.2215 204.386
M58.9733 240.121
L59.8906 216.878
L60.8079 243.286
L61.7251 220.93
L62.6424 215.977
L63.5596 236.689
L64.4769 170.341
L65.3942 152.966
L66.3114 127.993
L67.2287 194.057
L68.1459 160.848
L69.0632 215.281
L69.9805 209.09
L70.8977 167.006
L71.815 159.503
L72.7322 157.386
L73.6495 159.246
L74.5668 133.343
L75.484 202.256
L76.4013 235.519
L77.3185 199.433
L78.2358 223.781
L79.1531 231.07
L80.0703 194.251
L80.9876 208.068
L81.9048 219.964
L82.8221 175.013
L83.7394 174.51
L84.6566 205.035
L85.5739 184.635
L86.4911 210.571
M88.3257 217.004
L89.2429 179.752
L90.1602 129.379
L91.0774 207.649
L91.9947 171.359
L92.912 155.784
L93.8292 143.298
L94.7465 198.117
L95.6637 232.452
L96.581 182.233
L97.4983 201.227
L98.4155 166.306
L99.3328 152.822
L100.25 193.899
L101.167 126.104
L102.085 120.758
L103.002 122.424
L103.919 134.543
L104.836 178.422
L105.754 191.992
L106.671 202.969
M108.505 205.358
L109.423 230.871
L110.34 232.016
M112.174 197.93
L113.092 214.178
L114.009 171.347
L114.926 108.873
L115.843 153.105
L116.761 120.587
L117.678 165.524
L118.595 219.775
L119.513 137.872
L120.43 186.988
L121.347 199.307
L122.264 221.442
L123.182 126.318
L124.099 98.8283
L125.016 121.765
L125.933 110.238
L126.851 155.147
L127.768 120.581
L128.685 114.691
L129.602 82.9551
L130.52 79.6009
L131.437 110.493
L132.354 102.564
L133.271 174.656
L134.189 141.604
L135.106 171.041
L136.023 120.891
L136.94 83.0275
L137.858 187.772
L138.775 144.838
L139.692 145.537
L140.609 175.328
L141.527 126.365
L142.444 101.172
L143.361 107.302
L144.279 143.914
L145.196 133.238
L146.113 161.942
L147.03 242.621
L147.948 95.8018
L148.865 132.589
L149.782 90.4623
L150.699 182.684
L151.617 110.494
L152.534 94.5386
L153.451 185.719
L154.368 216.051
L155.286 126.834
L156.203 77.7359
L157.12 79.1464
L158.037 80.7685
L158.955 97.6609
L159.872 60.7493
L160.789 69.5599
L161.706 81.6275
L162.624 87.3366
L163.541 110.305
L164.458 152.111
L165.376 115.006
L166.293 136.844
L167.21 87.3333
L168.127 75.3545
L169.045 99.3258
L169.962 158.334
L170.879 167.286
L171.796 150.511
L172.714 115.031
L173.631 202.537
L174.548 205.85
L175.465 160.889
L176.383 92.0739
L177.3 90.344
L178.217 102.492
L179.134 108.55
L180.052 105.192
L180.969 144.924
L181.886 121.193
L182.803 149.25
L183.721 216.745
L184.638 100.844
L185.555 118.925
L186.473 130.222
L187.39 194.433
L188.307 132.414
L189.224 88.8365
L190.142 119.702
L191.059 99.6079
L191.976 75.3602
L192.893 86.3333
L193.811 103.579
L194.728 111.303
L195.645 84.9248
L196.562 100.362
L197.48 83.9159
L198.397 105.746
L199.314 114.728
L200.231 104.49
L201.149 104.121
L202.066 98.7476
L202.983 98.1297
L203.9 88.597
L204.818 103.823
L205.735 101.226
L206.652 112.348
L207.569 138.619
L208.487 118.58
L209.404 106.443
L210.321 101.451
L211.239 122.275
L212.156 127.588
L213.073 126.74
L213.99 150.687
L214.908 135.179
L215.825 127.772
L216.742 131.588
L217.659 134.209
L218.577 159.845
L219.494 170.014
L220.411 139.685
L221.328 152.774
L222.246 119.39
L223.163 119.886
L224.08 139.264
L224.997 116.872
L225.915 122.33
L226.832 122.386
L227.749 124.935
L228.666 122.735
L229.584 123.239
L230.501 128.279
L231.418 131.908
L232.336 131.125
L233.253 126.842
L234.17 129.956
L235.087 125.22
L236.005 123.9
L236.922 113.504
L237.839 115.627
L238.756 119.124
L239.674 131.764
L240.591 130.4
L241.508 137.2
L242.425 145.328
L243.343 135.82
L244.26 150.242
L245.177 129.307
L246.094 141.594
L247.012 142.036
L247.929 138.687
L248.846 134.036
L249.763 133.065
L250.681 136.767
L251.598 133.789
L252.515 161.921
L253.433 141.59
L254.35 144.519
L255.267 134.221
L256.184 126.972
L257.102 107.626
L258.019 116.68
L258.936 142.397
L259.853 145.147
L260.771 128.031
L261.688 127.022
L262.605 121.965
L263.522 153.845
L264.44 136.738
L265.357 106.814
L267.191 120.822
L268.109 125.842
L269.026 147.118
L269.943 122.296
L270.86 127.325
L271.778 133.686
L272.695 124.675
L273.612 118.89
L274.529 104.37
L275.447 114.868
L276.364 127.716
L277.281 123.689
L278.199 130.823
L279.116 126.953
L280.033 125.212
L280.95 139.801
L281.868 145.394
L282.785 146.944
L283.702 142.462
L284.619 200.028
L285.537 155.175
L286.454 155.452
L287.371 151.275
L288.288 135.588
L289.206 141.625
L290.123 144.022
L291.04 142.238
L291.957 134.195
L292.875 134.228
L293.792 109.535
L294.709 110.336
L295.626 103.478
L296.544 106.647
L297.461 111.714
L298.378 111.638
L299.296 126.052
L300.213 132.471
L301.13 134.086
L302.047 134.123
L302.965 186.503
L303.882 159.042
L304.799 169.332
L305.716 173.297
L306.634 142.869
L307.551 129.214
L309.385 184.454
L310.303 145.52
L311.22 227.148
L312.137 239.663
L313.054 215.343
L313.972 218.72
L314.889 174.482
L315.806 191.365
L316.723 223.333
L317.641 174.757
L318.558 157.247
L319.475 149.597
L320.393 180.549
L321.31 162.602
L322.227 174.024
L323.144 163.066
L324.062 182.202
L324.979 167.495
L325.896 181.404
L326.813 201.846
L327.731 239.029
L328.648 215.147
L329.565 218.661
L330.482 209.5
L331.4 216.838
L332.317 213.613
L333.234 203.299
L334.151 185.207
L335.069 217.294
L335.986 210.788
L336.903 209.538
L337.82 197.557
L338.738 221.705
L339.655 172.454
L340.572 139.891
L341.489 194.116
L342.407 216.281
L343.324 191.673
L344.241 170.704
L345.159 190.341
L346.076 203.713
L346.993 223.458
L347.91 220.453
L348.828 239.459
L349.745 175.824
L350.662 210.148
L351.579 225.51
L352.497 203.161
L353.414 185.897
L354.331 214.218
L355.248 190.802
L356.166 230.564
L357.083 201.875
L358 235.721
L358.917 206.328
L359.835 222.59
L360.752 224.907
M362.586 221.851
L363.504 204.663
L364.421 198.26
L365.338 135.364
L366.256 128.087
L367.173 186.753
L368.09 228.156
L369.007 228.364
L369.925 199.125
L370.842 230.492
L371.759 235.468
L372.676 207.133
L373.594 205.452
L374.511 237.481
L374.511 237.481" style="fill:none;stroke:#000000;stroke-linecap:square;"/>
   </g>
   <g id="line2d_15">
    <path clip-path="url(#p705cba3da1)" d="
M0 0" style="fill:none;stroke:#0000ff;stroke-linecap:square;"/>
   </g>
   <g id="line2d_16">
    <path clip-path="url(#p705cba3da1)" d="
M0 0" style="fill:none;stroke:#008000;stroke-linecap:square;"/>
   </g>
   <g id="patch_3">
    <path d="
M375.428 244.518
L375.428 21.3181" style="fill:none;stroke:#000000;stroke-linecap:square;stroke-linejoin:miter;"/>
   </g>
   <g id="patch_4">
    <path d="
M40.6281 244.518
L375.428 244.518" style="fill:none;stroke:#000000;stroke-linecap:square;stroke-linejoin:miter;"/>
   </g>
   <g id="patch_5">
    <path d="
M40.6281 21.3181
L375.428 21.3181" style="fill:none;stroke:#000000;stroke-linecap:square;stroke-linejoin:miter;"/>
   </g>
   <g id="patch_6">
    <path d="
M40.6281 244.518
L40.6281 21.3181" style="fill:none;stroke:#000000;stroke-linecap:square;stroke-linejoin:miter;"/>
   </g>
   <g id="matplotlib.axis_1">
    <g id="xtick_1">
     <g id="line2d_17">
      <defs>
       <path d="
M0 0
L0 -4" id="mc7db9fdffb" style="stroke:#000000;stroke-width:0.5;"/>
      </defs>
      <g>
       <use style="stroke:#000000;stroke-width:0.5;" x="40.628125" xlink:href="#mc7db9fdffb" y="244.518125"/>
      </g>
     </g>
     <g id="line2d_18">
      <defs>
       <path d="
M0 0
L0 4" id="m5a7d422ac3" style="stroke:#000000;stroke-width:0.5;"/>
      </defs>
      <g>
       <use style="stroke:#000000;stroke-width:0.5;" x="40.628125" xlink:href="#m5a7d422ac3" y="21.318125"/>
      </g>
     </g>
     <g id="text_1">
      <!-- 0 -->
      <defs>
       <path d="
M31.7812 66.4062
Q24.1719 66.4062 20.3281 58.9062
Q16.5 51.4219 16.5 36.375
Q16.5 21.3906 20.3281 13.8906
Q24.1719 6.39062 31.7812 6.39062
Q39.4531 6.39062 43.2812 13.8906
Q47.125 21.3906 47.125 36.375
Q47.125 51.4219 43.2812 58.9062
Q39.4531 66.4062 31.7812 66.4062
M31.7812 74.2188
Q44.0469 74.2188 50.5156 64.5156
Q56.9844 54.8281 56.9844 36.375
Q56.9844 17.9688 50.5156 8.26562
Q44.0469 -1.42188 31.7812 -1.42188
Q19.5312 -1.42188 13.0625 8.26562
Q6.59375 17.9688 6.59375 36.375
Q6.59375 54.8281 13.0625 64.5156
Q19.5312 74.2188 31.7812 74.2188" id="BitstreamVeraSans-Roman-30"/>
      </defs>
      <g transform="translate(38.10859375 256.1165625)scale(0.1 -0.1)">
       <use xlink:href="#BitstreamVeraSans-Roman-30"/>
      </g>
     </g>
    </g>
    <g id="xtick_2">
     <g id="line2d_19">
      <g>
       <use style="stroke:#000000;stroke-width:0.5;" x="86.4911386986" xlink:href="#mc7db9fdffb" y="244.518125"/>
      </g>
     </g>
     <g id="line2d_20">
      <g>
       <use style="stroke:#000000;stroke-width:0.5;" x="86.4911386986" xlink:href="#m5a7d422ac3" y="21.318125"/>
      </g>
     </g>
     <g id="text_2">
      <!-- 50 -->
      <defs>
       <path d="
M10.7969 72.9062
L49.5156 72.9062
L49.5156 64.5938
L19.8281 64.5938
L19.8281 46.7344
Q21.9688 47.4688 24.1094 47.8281
Q26.2656 48.1875 28.4219 48.1875
Q40.625 48.1875 47.75 41.5
Q54.8906 34.8125 54.8906 23.3906
Q54.8906 11.625 47.5625 5.09375
Q40.2344 -1.42188 26.9062 -1.42188
Q22.3125 -1.42188 17.5469 -0.640625
Q12.7969 0.140625 7.71875 1.70312
L7.71875 11.625
Q12.1094 9.23438 16.7969 8.0625
Q21.4844 6.89062 26.7031 6.89062
Q35.1562 6.89062 40.0781 11.3281
Q45.0156 15.7656 45.0156 23.3906
Q45.0156 31 40.0781 35.4375
Q35.1562 39.8906 26.7031 39.8906
Q22.75 39.8906 18.8125 39.0156
Q14.8906 38.1406 10.7969 36.2812
z
" id="BitstreamVeraSans-Roman-35"/>
      </defs>
      <g transform="translate(80.8466074486 256.1165625)scale(0.1 -0.1)">
       <use xlink:href="#BitstreamVeraSans-Roman-35"/>
       <use x="63.623046875" xlink:href="#BitstreamVeraSans-Roman-30"/>
      </g>
     </g>
    </g>
    <g id="xtick_3">
     <g id="line2d_21">
      <g>
       <use style="stroke:#000000;stroke-width:0.5;" x="132.354152397" xlink:href="#mc7db9fdffb" y="244.518125"/>
      </g>
     </g>
     <g id="line2d_22">
      <g>
       <use style="stroke:#000000;stroke-width:0.5;" x="132.354152397" xlink:href="#m5a7d422ac3" y="21.318125"/>
      </g>
     </g>
     <g id="text_3">
      <!-- 100 -->
      <defs>
       <path d="
M12.4062 8.29688
L28.5156 8.29688
L28.5156 63.9219
L10.9844 60.4062
L10.9844 69.3906
L28.4219 72.9062
L38.2812 72.9062
L38.2812 8.29688
L54.3906 8.29688
L54.3906 0
L12.4062 0
z
" id="BitstreamVeraSans-Roman-31"/>
      </defs>
      <g transform="translate(123.691652397 256.1165625)scale(0.1 -0.1)">
       <use xlink:href="#BitstreamVeraSans-Roman-31"/>
       <use x="63.623046875" xlink:href="#BitstreamVeraSans-Roman-30"/>
       <use x="127.24609375" xlink:href="#BitstreamVeraSans-Roman-30"/>
      </g>
     </g>
    </g>
    <g id="xtick_4">
     <g id="line2d_23">
      <g>
       <use style="stroke:#000000;stroke-width:0.5;" x="178.217166096" xlink:href="#mc7db9fdffb" y="244.518125"/>
      </g>
     </g>
     <g id="line2d_24">
      <g>
       <use style="stroke:#000000;stroke-width:0.5;" x="178.217166096" xlink:href="#m5a7d422ac3" y="21.318125"/>
      </g>
     </g>
     <g id="text_4">
      <!-- 150 -->
      <g transform="translate(169.554666096 256.1165625)scale(0.1 -0.1)">
       <use xlink:href="#BitstreamVeraSans-Roman-31"/>
       <use x="63.623046875" xlink:href="#BitstreamVeraSans-Roman-35"/>
       <use x="127.24609375" xlink:href="#BitstreamVeraSans-Roman-30"/>
      </g>
     </g>
    </g>
    <g id="xtick_5">
     <g id="line2d_25">
      <g>
       <use style="stroke:#000000;stroke-width:0.5;" x="224.080179795" xlink:href="#mc7db9fdffb" y="244.518125"/>
      </g>
     </g>
     <g id="line2d_26">
      <g>
       <use style="stroke:#000000;stroke-width:0.5;" x="224.080179795" xlink:href="#m5a7d422ac3" y="21.318125"/>
      </g>
     </g>
     <g id="text_5">
      <!-- 200 -->
      <defs>
       <path d="
M19.1875 8.29688
L53.6094 8.29688
L53.6094 0
L7.32812 0
L7.32812 8.29688
Q12.9375 14.1094 22.625 23.8906
Q32.3281 33.6875 34.8125 36.5312
Q39.5469 41.8438 41.4219 45.5312
Q43.3125 49.2188 43.3125 52.7812
Q43.3125 58.5938 39.2344 62.25
Q35.1562 65.9219 28.6094 65.9219
Q23.9688 65.9219 18.8125 64.3125
Q13.6719 62.7031 7.8125 59.4219
L7.8125 69.3906
Q13.7656 71.7812 18.9375 73
Q24.125 74.2188 28.4219 74.2188
Q39.75 74.2188 46.4844 68.5469
Q53.2188 62.8906 53.2188 53.4219
Q53.2188 48.9219 51.5312 44.8906
Q49.8594 40.875 45.4062 35.4062
Q44.1875 33.9844 37.6406 27.2188
Q31.1094 20.4531 19.1875 8.29688" id="BitstreamVeraSans-Roman-32"/>
      </defs>
      <g transform="translate(215.234867295 256.1165625)scale(0.1 -0.1)">
       <use xlink:href="#BitstreamVeraSans-Roman-32"/>
       <use x="63.623046875" xlink:href="#BitstreamVeraSans-Roman-30"/>
       <use x="127.24609375" xlink:href="#BitstreamVeraSans-Roman-30"/>
      </g>
     </g>
    </g>
    <g id="xtick_6">
     <g id="line2d_27">
      <g>
       <use style="stroke:#000000;stroke-width:0.5;" x="269.943193493" xlink:href="#mc7db9fdffb" y="244.518125"/>
      </g>
     </g>
     <g id="line2d_28">
      <g>
       <use style="stroke:#000000;stroke-width:0.5;" x="269.943193493" xlink:href="#m5a7d422ac3" y="21.318125"/>
      </g>
     </g>
     <g id="text_6">
      <!-- 250 -->
      <g transform="translate(261.097880993 256.1165625)scale(0.1 -0.1)">
       <use xlink:href="#BitstreamVeraSans-Roman-32"/>
       <use x="63.623046875" xlink:href="#BitstreamVeraSans-Roman-35"/>
       <use x="127.24609375" xlink:href="#BitstreamVeraSans-Roman-30"/>
      </g>
     </g>
    </g>
    <g id="xtick_7">
     <g id="line2d_29">
      <g>
       <use style="stroke:#000000;stroke-width:0.5;" x="315.806207192" xlink:href="#mc7db9fdffb" y="244.518125"/>
      </g>
     </g>
     <g id="line2d_30">
      <g>
       <use style="stroke:#000000;stroke-width:0.5;" x="315.806207192" xlink:href="#m5a7d422ac3" y="21.318125"/>
      </g>
     </g>
     <g id="text_7">
      <!-- 300 -->
      <defs>
       <path d="
M40.5781 39.3125
Q47.6562 37.7969 51.625 33
Q55.6094 28.2188 55.6094 21.1875
Q55.6094 10.4062 48.1875 4.48438
Q40.7656 -1.42188 27.0938 -1.42188
Q22.5156 -1.42188 17.6562 -0.515625
Q12.7969 0.390625 7.625 2.20312
L7.625 11.7188
Q11.7188 9.32812 16.5938 8.10938
Q21.4844 6.89062 26.8125 6.89062
Q36.0781 6.89062 40.9375 10.5469
Q45.7969 14.2031 45.7969 21.1875
Q45.7969 27.6406 41.2812 31.2656
Q36.7656 34.9062 28.7188 34.9062
L20.2188 34.9062
L20.2188 43.0156
L29.1094 43.0156
Q36.375 43.0156 40.2344 45.9219
Q44.0938 48.8281 44.0938 54.2969
Q44.0938 59.9062 40.1094 62.9062
Q36.1406 65.9219 28.7188 65.9219
Q24.6562 65.9219 20.0156 65.0312
Q15.375 64.1562 9.8125 62.3125
L9.8125 71.0938
Q15.4375 72.6562 20.3438 73.4375
Q25.25 74.2188 29.5938 74.2188
Q40.8281 74.2188 47.3594 69.1094
Q53.9062 64.0156 53.9062 55.3281
Q53.9062 49.2656 50.4375 45.0938
Q46.9688 40.9219 40.5781 39.3125" id="BitstreamVeraSans-Roman-33"/>
      </defs>
      <g transform="translate(306.975738442 256.1165625)scale(0.1 -0.1)">
       <use xlink:href="#BitstreamVeraSans-Roman-33"/>
       <use x="63.623046875" xlink:href="#BitstreamVeraSans-Roman-30"/>
       <use x="127.24609375" xlink:href="#BitstreamVeraSans-Roman-30"/>
      </g>
     </g>
    </g>
    <g id="xtick_8">
     <g id="line2d_31">
      <g>
       <use style="stroke:#000000;stroke-width:0.5;" x="361.66922089" xlink:href="#mc7db9fdffb" y="244.518125"/>
      </g>
     </g>
     <g id="line2d_32">
      <g>
       <use style="stroke:#000000;stroke-width:0.5;" x="361.66922089" xlink:href="#m5a7d422ac3" y="21.318125"/>
      </g>
     </g>
     <g id="text_8">
      <!-- 350 -->
      <g transform="translate(352.83875214 256.1165625)scale(0.1 -0.1)">
       <use xlink:href="#BitstreamVeraSans-Roman-33"/>
       <use x="63.623046875" xlink:href="#BitstreamVeraSans-Roman-35"/>
       <use x="127.24609375" xlink:href="#BitstreamVeraSans-Roman-30"/>
      </g>
     </g>
    </g>
    <g id="text_9">
     <!-- Julian day -->
     <defs>
      <path d="
M32.1719 -5.07812
Q28.375 -14.8438 24.75 -17.8125
Q21.1406 -20.7969 15.0938 -20.7969
L7.90625 -20.7969
L7.90625 -13.2812
L13.1875 -13.2812
Q16.8906 -13.2812 18.9375 -11.5156
Q21 -9.76562 23.4844 -3.21875
L25.0938 0.875
L2.98438 54.6875
L12.5 54.6875
L29.5938 11.9219
L46.6875 54.6875
L56.2031 54.6875
z
" id="BitstreamVeraSans-Roman-79"/>
      <path d="
M45.4062 46.3906
L45.4062 75.9844
L54.3906 75.9844
L54.3906 0
L45.4062 0
L45.4062 8.20312
Q42.5781 3.32812 38.25 0.953125
Q33.9375 -1.42188 27.875 -1.42188
Q17.9688 -1.42188 11.7344 6.48438
Q5.51562 14.4062 5.51562 27.2969
Q5.51562 40.1875 11.7344 48.0938
Q17.9688 56 27.875 56
Q33.9375 56 38.25 53.625
Q42.5781 51.2656 45.4062 46.3906
M14.7969 27.2969
Q14.7969 17.3906 18.875 11.75
Q22.9531 6.10938 30.0781 6.10938
Q37.2031 6.10938 41.2969 11.75
Q45.4062 17.3906 45.4062 27.2969
Q45.4062 37.2031 41.2969 42.8438
Q37.2031 48.4844 30.0781 48.4844
Q22.9531 48.4844 18.875 42.8438
Q14.7969 37.2031 14.7969 27.2969" id="BitstreamVeraSans-Roman-64"/>
      <path d="
M9.42188 75.9844
L18.4062 75.9844
L18.4062 0
L9.42188 0
z
" id="BitstreamVeraSans-Roman-6c"/>
      <path d="
M8.5 21.5781
L8.5 54.6875
L17.4844 54.6875
L17.4844 21.9219
Q17.4844 14.1562 20.5 10.2656
Q23.5312 6.39062 29.5938 6.39062
Q36.8594 6.39062 41.0781 11.0312
Q45.3125 15.6719 45.3125 23.6875
L45.3125 54.6875
L54.2969 54.6875
L54.2969 0
L45.3125 0
L45.3125 8.40625
Q42.0469 3.42188 37.7188 1
Q33.4062 -1.42188 27.6875 -1.42188
Q18.2656 -1.42188 13.375 4.4375
Q8.5 10.2969 8.5 21.5781" id="BitstreamVeraSans-Roman-75"/>
      <path id="BitstreamVeraSans-Roman-20"/>
      <path d="
M34.2812 27.4844
Q23.3906 27.4844 19.1875 25
Q14.9844 22.5156 14.9844 16.5
Q14.9844 11.7188 18.1406 8.90625
Q21.2969 6.10938 26.7031 6.10938
Q34.1875 6.10938 38.7031 11.4062
Q43.2188 16.7031 43.2188 25.4844
L43.2188 27.4844
z

M52.2031 31.2031
L52.2031 0
L43.2188 0
L43.2188 8.29688
Q40.1406 3.32812 35.5469 0.953125
Q30.9531 -1.42188 24.3125 -1.42188
Q15.9219 -1.42188 10.9531 3.29688
Q6 8.01562 6 15.9219
Q6 25.1406 12.1719 29.8281
Q18.3594 34.5156 30.6094 34.5156
L43.2188 34.5156
L43.2188 35.4062
Q43.2188 41.6094 39.1406 45
Q35.0625 48.3906 27.6875 48.3906
Q23 48.3906 18.5469 47.2656
Q14.1094 46.1406 10.0156 43.8906
L10.0156 52.2031
Q14.9375 54.1094 19.5781 55.0469
Q24.2188 56 28.6094 56
Q40.4844 56 46.3438 49.8438
Q52.2031 43.7031 52.2031 31.2031" id="BitstreamVeraSans-Roman-61"/>
      <path d="
M54.8906 33.0156
L54.8906 0
L45.9062 0
L45.9062 32.7188
Q45.9062 40.4844 42.875 44.3281
Q39.8438 48.1875 33.7969 48.1875
Q26.5156 48.1875 22.3125 43.5469
Q18.1094 38.9219 18.1094 30.9062
L18.1094 0
L9.07812 0
L9.07812 54.6875
L18.1094 54.6875
L18.1094 46.1875
Q21.3438 51.125 25.7031 53.5625
Q30.0781 56 35.7969 56
Q45.2188 56 50.0469 50.1719
Q54.8906 44.3438 54.8906 33.0156" id="BitstreamVeraSans-Roman-6e"/>
      <path d="
M9.8125 72.9062
L19.6719 72.9062
L19.6719 5.07812
Q19.6719 -8.10938 14.6719 -14.0625
Q9.67188 -20.0156 -1.42188 -20.0156
L-5.17188 -20.0156
L-5.17188 -11.7188
L-2.09375 -11.7188
Q4.4375 -11.7188 7.125 -8.04688
Q9.8125 -4.39062 9.8125 5.07812
z
" id="BitstreamVeraSans-Roman-4a"/>
      <path d="
M9.42188 54.6875
L18.4062 54.6875
L18.4062 0
L9.42188 0
z

M9.42188 75.9844
L18.4062 75.9844
L18.4062 64.5938
L9.42188 64.5938
z
" id="BitstreamVeraSans-Roman-69"/>
     </defs>
     <g transform="translate(183.47734375 270.7946875)scale(0.1 -0.1)">
      <use xlink:href="#BitstreamVeraSans-Roman-4a"/>
      <use x="29.4921875" xlink:href="#BitstreamVeraSans-Roman-75"/>
      <use x="92.87109375" xlink:href="#BitstreamVeraSans-Roman-6c"/>
      <use x="120.654296875" xlink:href="#BitstreamVeraSans-Roman-69"/>
      <use x="148.4375" xlink:href="#BitstreamVeraSans-Roman-61"/>
      <use x="209.716796875" xlink:href="#BitstreamVeraSans-Roman-6e"/>
      <use x="273.095703125" xlink:href="#BitstreamVeraSans-Roman-20"/>
      <use x="304.8828125" xlink:href="#BitstreamVeraSans-Roman-64"/>
      <use x="368.359375" xlink:href="#BitstreamVeraSans-Roman-61"/>
      <use x="429.638671875" xlink:href="#BitstreamVeraSans-Roman-79"/>
     </g>
    </g>
   </g>
   <g id="matplotlib.axis_2">
    <g id="ytick_1">
     <g id="line2d_33">
      <defs>
       <path d="
M0 0
L4 0" id="md7965d1ba0" style="stroke:#000000;stroke-width:0.5;"/>
      </defs>
      <g>
       <use style="stroke:#000000;stroke-width:0.5;" x="40.628125" xlink:href="#md7965d1ba0" y="244.518125"/>
      </g>
     </g>
     <g id="line2d_34">
      <defs>
       <path d="
M0 0
L-4 0" id="md9a1c1a7cd" style="stroke:#000000;stroke-width:0.5;"/>
      </defs>
      <g>
       <use style="stroke:#000000;stroke-width:0.5;" x="375.428125" xlink:href="#md9a1c1a7cd" y="244.518125"/>
      </g>
     </g>
     <g id="text_10">
      <!-- 0.0 -->
      <defs>
       <path d="
M10.6875 12.4062
L21 12.4062
L21 0
L10.6875 0
z
" id="BitstreamVeraSans-Roman-2e"/>
      </defs>
      <g transform="translate(22.0484375 247.2775)scale(0.1 -0.1)">
       <use xlink:href="#BitstreamVeraSans-Roman-30"/>
       <use x="63.623046875" xlink:href="#BitstreamVeraSans-Roman-2e"/>
       <use x="95.41015625" xlink:href="#BitstreamVeraSans-Roman-30"/>
      </g>
     </g>
    </g>
    <g id="ytick_2">
     <g id="line2d_35">
      <g>
       <use style="stroke:#000000;stroke-width:0.5;" x="40.628125" xlink:href="#md7965d1ba0" y="216.618125"/>
      </g>
     </g>
     <g id="line2d_36">
      <g>
       <use style="stroke:#000000;stroke-width:0.5;" x="375.428125" xlink:href="#md9a1c1a7cd" y="216.618125"/>
      </g>
     </g>
     <g id="text_11">
      <!-- 0.5 -->
      <g transform="translate(22.2578125 219.3775)scale(0.1 -0.1)">
       <use xlink:href="#BitstreamVeraSans-Roman-30"/>
       <use x="63.623046875" xlink:href="#BitstreamVeraSans-Roman-2e"/>
       <use x="95.41015625" xlink:href="#BitstreamVeraSans-Roman-35"/>
      </g>
     </g>
    </g>
    <g id="ytick_3">
     <g id="line2d_37">
      <g>
       <use style="stroke:#000000;stroke-width:0.5;" x="40.628125" xlink:href="#md7965d1ba0" y="188.718125"/>
      </g>
     </g>
     <g id="line2d_38">
      <g>
       <use style="stroke:#000000;stroke-width:0.5;" x="375.428125" xlink:href="#md9a1c1a7cd" y="188.718125"/>
      </g>
     </g>
     <g id="text_12">
      <!-- 1.0 -->
      <g transform="translate(22.4875 191.4775)scale(0.1 -0.1)">
       <use xlink:href="#BitstreamVeraSans-Roman-31"/>
       <use x="63.623046875" xlink:href="#BitstreamVeraSans-Roman-2e"/>
       <use x="95.41015625" xlink:href="#BitstreamVeraSans-Roman-30"/>
      </g>
     </g>
    </g>
    <g id="ytick_4">
     <g id="line2d_39">
      <g>
       <use style="stroke:#000000;stroke-width:0.5;" x="40.628125" xlink:href="#md7965d1ba0" y="160.818125"/>
      </g>
     </g>
     <g id="line2d_40">
      <g>
       <use style="stroke:#000000;stroke-width:0.5;" x="375.428125" xlink:href="#md9a1c1a7cd" y="160.818125"/>
      </g>
     </g>
     <g id="text_13">
      <!-- 1.5 -->
      <g transform="translate(22.696875 163.5775)scale(0.1 -0.1)">
       <use xlink:href="#BitstreamVeraSans-Roman-31"/>
       <use x="63.623046875" xlink:href="#BitstreamVeraSans-Roman-2e"/>
       <use x="95.41015625" xlink:href="#BitstreamVeraSans-Roman-35"/>
      </g>
     </g>
    </g>
    <g id="ytick_5">
     <g id="line2d_41">
      <g>
       <use style="stroke:#000000;stroke-width:0.5;" x="40.628125" xlink:href="#md7965d1ba0" y="132.918125"/>
      </g>
     </g>
     <g id="line2d_42">
      <g>
       <use style="stroke:#000000;stroke-width:0.5;" x="375.428125" xlink:href="#md9a1c1a7cd" y="132.918125"/>
      </g>
     </g>
     <g id="text_14">
      <!-- 2.0 -->
      <g transform="translate(22.121875 135.6775)scale(0.1 -0.1)">
       <use xlink:href="#BitstreamVeraSans-Roman-32"/>
       <use x="63.623046875" xlink:href="#BitstreamVeraSans-Roman-2e"/>
       <use x="95.41015625" xlink:href="#BitstreamVeraSans-Roman-30"/>
      </g>
     </g>
    </g>
    <g id="ytick_6">
     <g id="line2d_43">
      <g>
       <use style="stroke:#000000;stroke-width:0.5;" x="40.628125" xlink:href="#md7965d1ba0" y="105.018125"/>
      </g>
     </g>
     <g id="line2d_44">
      <g>
       <use style="stroke:#000000;stroke-width:0.5;" x="375.428125" xlink:href="#md9a1c1a7cd" y="105.018125"/>
      </g>
     </g>
     <g id="text_15">
      <!-- 2.5 -->
      <g transform="translate(22.33125 107.7775)scale(0.1 -0.1)">
       <use xlink:href="#BitstreamVeraSans-Roman-32"/>
       <use x="63.623046875" xlink:href="#BitstreamVeraSans-Roman-2e"/>
       <use x="95.41015625" xlink:href="#BitstreamVeraSans-Roman-35"/>
      </g>
     </g>
    </g>
    <g id="ytick_7">
     <g id="line2d_45">
      <g>
       <use style="stroke:#000000;stroke-width:0.5;" x="40.628125" xlink:href="#md7965d1ba0" y="77.118125"/>
      </g>
     </g>
     <g id="line2d_46">
      <g>
       <use style="stroke:#000000;stroke-width:0.5;" x="375.428125" xlink:href="#md9a1c1a7cd" y="77.118125"/>
      </g>
     </g>
     <g id="text_16">
      <!-- 3.0 -->
      <g transform="translate(22.1515625 79.8775)scale(0.1 -0.1)">
       <use xlink:href="#BitstreamVeraSans-Roman-33"/>
       <use x="63.623046875" xlink:href="#BitstreamVeraSans-Roman-2e"/>
       <use x="95.41015625" xlink:href="#BitstreamVeraSans-Roman-30"/>
      </g>
     </g>
    </g>
    <g id="ytick_8">
     <g id="line2d_47">
      <g>
       <use style="stroke:#000000;stroke-width:0.5;" x="40.628125" xlink:href="#md7965d1ba0" y="49.218125"/>
      </g>
     </g>
     <g id="line2d_48">
      <g>
       <use style="stroke:#000000;stroke-width:0.5;" x="375.428125" xlink:href="#md9a1c1a7cd" y="49.218125"/>
      </g>
     </g>
     <g id="text_17">
      <!-- 3.5 -->
      <g transform="translate(22.3609375 51.9775)scale(0.1 -0.1)">
       <use xlink:href="#BitstreamVeraSans-Roman-33"/>
       <use x="63.623046875" xlink:href="#BitstreamVeraSans-Roman-2e"/>
       <use x="95.41015625" xlink:href="#BitstreamVeraSans-Roman-35"/>
      </g>
     </g>
    </g>
    <g id="ytick_9">
     <g id="line2d_49">
      <g>
       <use style="stroke:#000000;stroke-width:0.5;" x="40.628125" xlink:href="#md7965d1ba0" y="21.318125"/>
      </g>
     </g>
     <g id="line2d_50">
      <g>
       <use style="stroke:#000000;stroke-width:0.5;" x="375.428125" xlink:href="#md9a1c1a7cd" y="21.318125"/>
      </g>
     </g>
     <g id="text_18">
      <!-- 4.0 -->
      <defs>
       <path d="
M37.7969 64.3125
L12.8906 25.3906
L37.7969 25.3906
z

M35.2031 72.9062
L47.6094 72.9062
L47.6094 25.3906
L58.0156 25.3906
L58.0156 17.1875
L47.6094 17.1875
L47.6094 0
L37.7969 0
L37.7969 17.1875
L4.89062 17.1875
L4.89062 26.7031
z
" id="BitstreamVeraSans-Roman-34"/>
      </defs>
      <g transform="translate(21.878125 24.0775)scale(0.1 -0.1)">
       <use xlink:href="#BitstreamVeraSans-Roman-34"/>
       <use x="63.623046875" xlink:href="#BitstreamVeraSans-Roman-2e"/>
       <use x="95.41015625" xlink:href="#BitstreamVeraSans-Roman-30"/>
      </g>
     </g>
    </g>
    <g id="text_19">
     <!-- PET (mm/day) -->
     <defs>
      <path d="
M31 75.875
Q24.4688 64.6562 21.2812 53.6562
Q18.1094 42.6719 18.1094 31.3906
Q18.1094 20.125 21.3125 9.0625
Q24.5156 -2 31 -13.1875
L23.1875 -13.1875
Q15.875 -1.70312 12.2344 9.375
Q8.59375 20.4531 8.59375 31.3906
Q8.59375 42.2812 12.2031 53.3125
Q15.8281 64.3594 23.1875 75.875
z
" id="BitstreamVeraSans-Roman-28"/>
      <path d="
M52 44.1875
Q55.375 50.25 60.0625 53.125
Q64.75 56 71.0938 56
Q79.6406 56 84.2812 50.0156
Q88.9219 44.0469 88.9219 33.0156
L88.9219 0
L79.8906 0
L79.8906 32.7188
Q79.8906 40.5781 77.0938 44.375
Q74.3125 48.1875 68.6094 48.1875
Q61.625 48.1875 57.5625 43.5469
Q53.5156 38.9219 53.5156 30.9062
L53.5156 0
L44.4844 0
L44.4844 32.7188
Q44.4844 40.625 41.7031 44.4062
Q38.9219 48.1875 33.1094 48.1875
Q26.2188 48.1875 22.1562 43.5312
Q18.1094 38.875 18.1094 30.9062
L18.1094 0
L9.07812 0
L9.07812 54.6875
L18.1094 54.6875
L18.1094 46.1875
Q21.1875 51.2188 25.4844 53.6094
Q29.7812 56 35.6875 56
Q41.6562 56 45.8281 52.9688
Q50 49.9531 52 44.1875" id="BitstreamVeraSans-Roman-6d"/>
      <path d="
M9.8125 72.9062
L55.9062 72.9062
L55.9062 64.5938
L19.6719 64.5938
L19.6719 43.0156
L54.3906 43.0156
L54.3906 34.7188
L19.6719 34.7188
L19.6719 8.29688
L56.7812 8.29688
L56.7812 0
L9.8125 0
z
" id="BitstreamVeraSans-Roman-45"/>
      <path d="
M-0.296875 72.9062
L61.375 72.9062
L61.375 64.5938
L35.5 64.5938
L35.5 0
L25.5938 0
L25.5938 64.5938
L-0.296875 64.5938
z
" id="BitstreamVeraSans-Roman-54"/>
      <path d="
M19.6719 64.7969
L19.6719 37.4062
L32.0781 37.4062
Q38.9688 37.4062 42.7188 40.9688
Q46.4844 44.5312 46.4844 51.125
Q46.4844 57.6719 42.7188 61.2344
Q38.9688 64.7969 32.0781 64.7969
z

M9.8125 72.9062
L32.0781 72.9062
Q44.3438 72.9062 50.6094 67.3594
Q56.8906 61.8125 56.8906 51.125
Q56.8906 40.3281 50.6094 34.8125
Q44.3438 29.2969 32.0781 29.2969
L19.6719 29.2969
L19.6719 0
L9.8125 0
z
" id="BitstreamVeraSans-Roman-50"/>
      <path d="
M25.3906 72.9062
L33.6875 72.9062
L8.29688 -9.28125
L0 -9.28125
z
" id="BitstreamVeraSans-Roman-2f"/>
      <path d="
M8.01562 75.875
L15.8281 75.875
Q23.1406 64.3594 26.7812 53.3125
Q30.4219 42.2812 30.4219 31.3906
Q30.4219 20.4531 26.7812 9.375
Q23.1406 -1.70312 15.8281 -13.1875
L8.01562 -13.1875
Q14.5 -2 17.7031 9.0625
Q20.9062 20.125 20.9062 31.3906
Q20.9062 42.6719 17.7031 53.6562
Q14.5 64.6562 8.01562 75.875" id="BitstreamVeraSans-Roman-29"/>
     </defs>
     <g transform="translate(14.7984375 167.82984375)rotate(-90.0)scale(0.1 -0.1)">
      <use xlink:href="#BitstreamVeraSans-Roman-50"/>
      <use x="60.302734375" xlink:href="#BitstreamVeraSans-Roman-45"/>
      <use x="123.486328125" xlink:href="#BitstreamVeraSans-Roman-54"/>
      <use x="184.5703125" xlink:href="#BitstreamVeraSans-Roman-20"/>
      <use x="216.357421875" xlink:href="#BitstreamVeraSans-Roman-28"/>
      <use x="255.37109375" xlink:href="#BitstreamVeraSans-Roman-6d"/>
      <use x="352.783203125" xlink:href="#BitstreamVeraSans-Roman-6d"/>
      <use x="450.1953125" xlink:href="#BitstreamVeraSans-Roman-2f"/>
      <use x="483.88671875" xlink:href="#BitstreamVeraSans-Roman-64"/>
      <use x="547.36328125" xlink:href="#BitstreamVeraSans-Roman-61"/>
      <use x="608.642578125" xlink:href="#BitstreamVeraSans-Roman-79"/>
      <use x="667.822265625" xlink:href="#BitstreamVeraSans-Roman-29"/>
     </g>
    </g>
   </g>
   <g id="text_20">
    <!-- daily shrub PET at Treeline -->
    <defs>
     <path d="
M41.1094 46.2969
Q39.5938 47.1719 37.8125 47.5781
Q36.0312 48 33.8906 48
Q26.2656 48 22.1875 43.0469
Q18.1094 38.0938 18.1094 28.8125
L18.1094 0
L9.07812 0
L9.07812 54.6875
L18.1094 54.6875
L18.1094 46.1875
Q20.9531 51.1719 25.4844 53.5781
Q30.0312 56 36.5312 56
Q37.4531 56 38.5781 55.875
Q39.7031 55.7656 41.0625 55.5156
z
" id="BitstreamVeraSans-Roman-72"/>
     <path d="
M56.2031 29.5938
L56.2031 25.2031
L14.8906 25.2031
Q15.4844 15.9219 20.4844 11.0625
Q25.4844 6.20312 34.4219 6.20312
Q39.5938 6.20312 44.4531 7.46875
Q49.3125 8.73438 54.1094 11.2812
L54.1094 2.78125
Q49.2656 0.734375 44.1875 -0.34375
Q39.1094 -1.42188 33.8906 -1.42188
Q20.7969 -1.42188 13.1562 6.1875
Q5.51562 13.8125 5.51562 26.8125
Q5.51562 40.2344 12.7656 48.1094
Q20.0156 56 32.3281 56
Q43.3594 56 49.7812 48.8906
Q56.2031 41.7969 56.2031 29.5938
M47.2188 32.2344
Q47.125 39.5938 43.0938 43.9844
Q39.0625 48.3906 32.4219 48.3906
Q24.9062 48.3906 20.3906 44.1406
Q15.875 39.8906 15.1875 32.1719
z
" id="BitstreamVeraSans-Roman-65"/>
     <path d="
M44.2812 53.0781
L44.2812 44.5781
Q40.4844 46.5312 36.375 47.5
Q32.2812 48.4844 27.875 48.4844
Q21.1875 48.4844 17.8438 46.4375
Q14.5 44.3906 14.5 40.2812
Q14.5 37.1562 16.8906 35.375
Q19.2812 33.5938 26.5156 31.9844
L29.5938 31.2969
Q39.1562 29.25 43.1875 25.5156
Q47.2188 21.7812 47.2188 15.0938
Q47.2188 7.46875 41.1875 3.01562
Q35.1562 -1.42188 24.6094 -1.42188
Q20.2188 -1.42188 15.4531 -0.5625
Q10.6875 0.296875 5.42188 2
L5.42188 11.2812
Q10.4062 8.6875 15.2344 7.39062
Q20.0625 6.10938 24.8125 6.10938
Q31.1562 6.10938 34.5625 8.28125
Q37.9844 10.4531 37.9844 14.4062
Q37.9844 18.0625 35.5156 20.0156
Q33.0625 21.9688 24.7031 23.7812
L21.5781 24.5156
Q13.2344 26.2656 9.51562 29.9062
Q5.8125 33.5469 5.8125 39.8906
Q5.8125 47.6094 11.2812 51.7969
Q16.75 56 26.8125 56
Q31.7812 56 36.1719 55.2656
Q40.5781 54.5469 44.2812 53.0781" id="BitstreamVeraSans-Roman-73"/>
     <path d="
M18.3125 70.2188
L18.3125 54.6875
L36.8125 54.6875
L36.8125 47.7031
L18.3125 47.7031
L18.3125 18.0156
Q18.3125 11.3281 20.1406 9.42188
Q21.9688 7.51562 27.5938 7.51562
L36.8125 7.51562
L36.8125 0
L27.5938 0
Q17.1875 0 13.2344 3.875
Q9.28125 7.76562 9.28125 18.0156
L9.28125 47.7031
L2.6875 47.7031
L2.6875 54.6875
L9.28125 54.6875
L9.28125 70.2188
z
" id="BitstreamVeraSans-Roman-74"/>
     <path d="
M48.6875 27.2969
Q48.6875 37.2031 44.6094 42.8438
Q40.5312 48.4844 33.4062 48.4844
Q26.2656 48.4844 22.1875 42.8438
Q18.1094 37.2031 18.1094 27.2969
Q18.1094 17.3906 22.1875 11.75
Q26.2656 6.10938 33.4062 6.10938
Q40.5312 6.10938 44.6094 11.75
Q48.6875 17.3906 48.6875 27.2969
M18.1094 46.3906
Q20.9531 51.2656 25.2656 53.625
Q29.5938 56 35.5938 56
Q45.5625 56 51.7812 48.0938
Q58.0156 40.1875 58.0156 27.2969
Q58.0156 14.4062 51.7812 6.48438
Q45.5625 -1.42188 35.5938 -1.42188
Q29.5938 -1.42188 25.2656 0.953125
Q20.9531 3.32812 18.1094 8.20312
L18.1094 0
L9.07812 0
L9.07812 75.9844
L18.1094 75.9844
z
" id="BitstreamVeraSans-Roman-62"/>
     <path d="
M54.8906 33.0156
L54.8906 0
L45.9062 0
L45.9062 32.7188
Q45.9062 40.4844 42.875 44.3281
Q39.8438 48.1875 33.7969 48.1875
Q26.5156 48.1875 22.3125 43.5469
Q18.1094 38.9219 18.1094 30.9062
L18.1094 0
L9.07812 0
L9.07812 75.9844
L18.1094 75.9844
L18.1094 46.1875
Q21.3438 51.125 25.7031 53.5625
Q30.0781 56 35.7969 56
Q45.2188 56 50.0469 50.1719
Q54.8906 44.3438 54.8906 33.0156" id="BitstreamVeraSans-Roman-68"/>
    </defs>
    <g transform="translate(128.9171875 16.318125)scale(0.12 -0.12)">
     <use xlink:href="#BitstreamVeraSans-Roman-64"/>
     <use x="63.4765625" xlink:href="#BitstreamVeraSans-Roman-61"/>
     <use x="124.755859375" xlink:href="#BitstreamVeraSans-Roman-69"/>
     <use x="152.5390625" xlink:href="#BitstreamVeraSans-Roman-6c"/>
     <use x="180.322265625" xlink:href="#BitstreamVeraSans-Roman-79"/>
     <use x="239.501953125" xlink:href="#BitstreamVeraSans-Roman-20"/>
     <use x="271.2890625" xlink:href="#BitstreamVeraSans-Roman-73"/>
     <use x="323.388671875" xlink:href="#BitstreamVeraSans-Roman-68"/>
     <use x="386.767578125" xlink:href="#BitstreamVeraSans-Roman-72"/>
     <use x="427.880859375" xlink:href="#BitstreamVeraSans-Roman-75"/>
     <use x="491.259765625" xlink:href="#BitstreamVeraSans-Roman-62"/>
     <use x="554.736328125" xlink:href="#BitstreamVeraSans-Roman-20"/>
     <use x="586.5234375" xlink:href="#BitstreamVeraSans-Roman-50"/>
     <use x="646.826171875" xlink:href="#BitstreamVeraSans-Roman-45"/>
     <use x="710.009765625" xlink:href="#BitstreamVeraSans-Roman-54"/>
     <use x="771.09375" xlink:href="#BitstreamVeraSans-Roman-20"/>
     <use x="802.880859375" xlink:href="#BitstreamVeraSans-Roman-61"/>
     <use x="864.16015625" xlink:href="#BitstreamVeraSans-Roman-74"/>
     <use x="903.369140625" xlink:href="#BitstreamVeraSans-Roman-20"/>
     <use x="935.15625" xlink:href="#BitstreamVeraSans-Roman-54"/>
     <use x="981.490234375" xlink:href="#BitstreamVeraSans-Roman-72"/>
     <use x="1020.353515625" xlink:href="#BitstreamVeraSans-Roman-65"/>
     <use x="1081.876953125" xlink:href="#BitstreamVeraSans-Roman-65"/>
     <use x="1143.400390625" xlink:href="#BitstreamVeraSans-Roman-6c"/>
     <use x="1171.18359375" xlink:href="#BitstreamVeraSans-Roman-69"/>
     <use x="1198.966796875" xlink:href="#BitstreamVeraSans-Roman-6e"/>
     <use x="1262.345703125" xlink:href="#BitstreamVeraSans-Roman-65"/>
    </g>
   </g>
   <g id="legend_1">
    <g id="patch_7">
     <path d="
M297.241 312.738
L369.428 312.738
L369.428 27.3181
L297.241 27.3181
z
" style="fill:#ffffff;stroke:#000000;stroke-linejoin:miter;"/>
    </g>
    <g id="line2d_51">
     <path d="
M305.641 37.0363
L322.441 37.0363" style="fill:none;stroke:#0000ff;stroke-linecap:square;"/>
    </g>
    <g id="line2d_52"/>
    <g id="text_21">
     <!-- 1999 -->
     <defs>
      <path d="
M10.9844 1.51562
L10.9844 10.5
Q14.7031 8.73438 18.5 7.8125
Q22.3125 6.89062 25.9844 6.89062
Q35.75 6.89062 40.8906 13.4531
Q46.0469 20.0156 46.7812 33.4062
Q43.9531 29.2031 39.5938 26.9531
Q35.25 24.7031 29.9844 24.7031
Q19.0469 24.7031 12.6719 31.3125
Q6.29688 37.9375 6.29688 49.4219
Q6.29688 60.6406 12.9375 67.4219
Q19.5781 74.2188 30.6094 74.2188
Q43.2656 74.2188 49.9219 64.5156
Q56.5938 54.8281 56.5938 36.375
Q56.5938 19.1406 48.4062 8.85938
Q40.2344 -1.42188 26.4219 -1.42188
Q22.7031 -1.42188 18.8906 -0.6875
Q15.0938 0.046875 10.9844 1.51562
M30.6094 32.4219
Q37.25 32.4219 41.125 36.9531
Q45.0156 41.5 45.0156 49.4219
Q45.0156 57.2812 41.125 61.8438
Q37.25 66.4062 30.6094 66.4062
Q23.9688 66.4062 20.0938 61.8438
Q16.2188 57.2812 16.2188 49.4219
Q16.2188 41.5 20.0938 36.9531
Q23.9688 32.4219 30.6094 32.4219" id="BitstreamVeraSans-Roman-39"/>
     </defs>
     <g transform="translate(335.640625 41.23625)scale(0.12 -0.12)">
      <use xlink:href="#BitstreamVeraSans-Roman-31"/>
      <use x="63.623046875" xlink:href="#BitstreamVeraSans-Roman-39"/>
      <use x="127.24609375" xlink:href="#BitstreamVeraSans-Roman-39"/>
      <use x="190.869140625" xlink:href="#BitstreamVeraSans-Roman-39"/>
     </g>
    </g>
    <g id="line2d_53">
     <path d="
M305.641 54.65
L322.441 54.65" style="fill:none;stroke:#008000;stroke-linecap:square;"/>
    </g>
    <g id="line2d_54"/>
    <g id="text_22">
     <!-- 2000 -->
     <g transform="translate(335.640625 58.85)scale(0.12 -0.12)">
      <use xlink:href="#BitstreamVeraSans-Roman-32"/>
      <use x="63.623046875" xlink:href="#BitstreamVeraSans-Roman-30"/>
      <use x="127.24609375" xlink:href="#BitstreamVeraSans-Roman-30"/>
      <use x="190.869140625" xlink:href="#BitstreamVeraSans-Roman-30"/>
     </g>
    </g>
    <g id="line2d_55">
     <path d="
M305.641 72.2638
L322.441 72.2638" style="fill:none;stroke:#ff0000;stroke-linecap:square;"/>
    </g>
    <g id="line2d_56"/>
    <g id="text_23">
     <!-- 2001 -->
     <g transform="translate(335.640625 76.46375)scale(0.12 -0.12)">
      <use xlink:href="#BitstreamVeraSans-Roman-32"/>
      <use x="63.623046875" xlink:href="#BitstreamVeraSans-Roman-30"/>
      <use x="127.24609375" xlink:href="#BitstreamVeraSans-Roman-30"/>
      <use x="190.869140625" xlink:href="#BitstreamVeraSans-Roman-31"/>
     </g>
    </g>
    <g id="line2d_57">
     <path d="
M305.641 89.8775
L322.441 89.8775" style="fill:none;stroke:#00bfbf;stroke-linecap:square;"/>
    </g>
    <g id="line2d_58"/>
    <g id="text_24">
     <!-- 2002 -->
     <g transform="translate(335.640625 94.0775)scale(0.12 -0.12)">
      <use xlink:href="#BitstreamVeraSans-Roman-32"/>
      <use x="63.623046875" xlink:href="#BitstreamVeraSans-Roman-30"/>
      <use x="127.24609375" xlink:href="#BitstreamVeraSans-Roman-30"/>
      <use x="190.869140625" xlink:href="#BitstreamVeraSans-Roman-32"/>
     </g>
    </g>
    <g id="line2d_59">
     <path d="
M305.641 107.491
L322.441 107.491" style="fill:none;stroke:#bf00bf;stroke-linecap:square;"/>
    </g>
    <g id="line2d_60"/>
    <g id="text_25">
     <!-- 2003 -->
     <g transform="translate(335.640625 111.69125)scale(0.12 -0.12)">
      <use xlink:href="#BitstreamVeraSans-Roman-32"/>
      <use x="63.623046875" xlink:href="#BitstreamVeraSans-Roman-30"/>
      <use x="127.24609375" xlink:href="#BitstreamVeraSans-Roman-30"/>
      <use x="190.869140625" xlink:href="#BitstreamVeraSans-Roman-33"/>
     </g>
    </g>
    <g id="line2d_61">
     <path d="
M305.641 125.105
L322.441 125.105" style="fill:none;stroke:#bfbf00;stroke-linecap:square;"/>
    </g>
    <g id="line2d_62"/>
    <g id="text_26">
     <!-- 2004 -->
     <g transform="translate(335.640625 129.305)scale(0.12 -0.12)">
      <use xlink:href="#BitstreamVeraSans-Roman-32"/>
      <use x="63.623046875" xlink:href="#BitstreamVeraSans-Roman-30"/>
      <use x="127.24609375" xlink:href="#BitstreamVeraSans-Roman-30"/>
      <use x="190.869140625" xlink:href="#BitstreamVeraSans-Roman-34"/>
     </g>
    </g>
    <g id="line2d_63">
     <path d="
M305.641 142.719
L322.441 142.719" style="fill:none;stroke:#000000;stroke-linecap:square;"/>
    </g>
    <g id="line2d_64"/>
    <g id="text_27">
     <!-- 2005 -->
     <g transform="translate(335.640625 146.91875)scale(0.12 -0.12)">
      <use xlink:href="#BitstreamVeraSans-Roman-32"/>
      <use x="63.623046875" xlink:href="#BitstreamVeraSans-Roman-30"/>
      <use x="127.24609375" xlink:href="#BitstreamVeraSans-Roman-30"/>
      <use x="190.869140625" xlink:href="#BitstreamVeraSans-Roman-35"/>
     </g>
    </g>
    <g id="line2d_65">
     <path d="
M305.641 160.333
L322.441 160.333" style="fill:none;stroke:#0000ff;stroke-linecap:square;"/>
    </g>
    <g id="line2d_66"/>
    <g id="text_28">
     <!-- 2006 -->
     <defs>
      <path d="
M33.0156 40.375
Q26.375 40.375 22.4844 35.8281
Q18.6094 31.2969 18.6094 23.3906
Q18.6094 15.5312 22.4844 10.9531
Q26.375 6.39062 33.0156 6.39062
Q39.6562 6.39062 43.5312 10.9531
Q47.4062 15.5312 47.4062 23.3906
Q47.4062 31.2969 43.5312 35.8281
Q39.6562 40.375 33.0156 40.375
M52.5938 71.2969
L52.5938 62.3125
Q48.875 64.0625 45.0938 64.9844
Q41.3125 65.9219 37.5938 65.9219
Q27.8281 65.9219 22.6719 59.3281
Q17.5312 52.7344 16.7969 39.4062
Q19.6719 43.6562 24.0156 45.9219
Q28.375 48.1875 33.5938 48.1875
Q44.5781 48.1875 50.9531 41.5156
Q57.3281 34.8594 57.3281 23.3906
Q57.3281 12.1562 50.6875 5.35938
Q44.0469 -1.42188 33.0156 -1.42188
Q20.3594 -1.42188 13.6719 8.26562
Q6.98438 17.9688 6.98438 36.375
Q6.98438 53.6562 15.1875 63.9375
Q23.3906 74.2188 37.2031 74.2188
Q40.9219 74.2188 44.7031 73.4844
Q48.4844 72.75 52.5938 71.2969" id="BitstreamVeraSans-Roman-36"/>
     </defs>
     <g transform="translate(335.640625 164.5325)scale(0.12 -0.12)">
      <use xlink:href="#BitstreamVeraSans-Roman-32"/>
      <use x="63.623046875" xlink:href="#BitstreamVeraSans-Roman-30"/>
      <use x="127.24609375" xlink:href="#BitstreamVeraSans-Roman-30"/>
      <use x="190.869140625" xlink:href="#BitstreamVeraSans-Roman-36"/>
     </g>
    </g>
    <g id="line2d_67">
     <path d="
M305.641 177.946
L322.441 177.946" style="fill:none;stroke:#008000;stroke-linecap:square;"/>
    </g>
    <g id="line2d_68"/>
    <g id="text_29">
     <!-- 2007 -->
     <defs>
      <path d="
M8.20312 72.9062
L55.0781 72.9062
L55.0781 68.7031
L28.6094 0
L18.3125 0
L43.2188 64.5938
L8.20312 64.5938
z
" id="BitstreamVeraSans-Roman-37"/>
     </defs>
     <g transform="translate(335.640625 182.14625)scale(0.12 -0.12)">
      <use xlink:href="#BitstreamVeraSans-Roman-32"/>
      <use x="63.623046875" xlink:href="#BitstreamVeraSans-Roman-30"/>
      <use x="127.24609375" xlink:href="#BitstreamVeraSans-Roman-30"/>
      <use x="190.869140625" xlink:href="#BitstreamVeraSans-Roman-37"/>
     </g>
    </g>
    <g id="line2d_69">
     <path d="
M305.641 195.56
L322.441 195.56" style="fill:none;stroke:#ff0000;stroke-linecap:square;"/>
    </g>
    <g id="line2d_70"/>
    <g id="text_30">
     <!-- 2008 -->
     <defs>
      <path d="
M31.7812 34.625
Q24.75 34.625 20.7188 30.8594
Q16.7031 27.0938 16.7031 20.5156
Q16.7031 13.9219 20.7188 10.1562
Q24.75 6.39062 31.7812 6.39062
Q38.8125 6.39062 42.8594 10.1719
Q46.9219 13.9688 46.9219 20.5156
Q46.9219 27.0938 42.8906 30.8594
Q38.875 34.625 31.7812 34.625
M21.9219 38.8125
Q15.5781 40.375 12.0312 44.7188
Q8.5 49.0781 8.5 55.3281
Q8.5 64.0625 14.7188 69.1406
Q20.9531 74.2188 31.7812 74.2188
Q42.6719 74.2188 48.875 69.1406
Q55.0781 64.0625 55.0781 55.3281
Q55.0781 49.0781 51.5312 44.7188
Q48 40.375 41.7031 38.8125
Q48.8281 37.1562 52.7969 32.3125
Q56.7812 27.4844 56.7812 20.5156
Q56.7812 9.90625 50.3125 4.23438
Q43.8438 -1.42188 31.7812 -1.42188
Q19.7344 -1.42188 13.25 4.23438
Q6.78125 9.90625 6.78125 20.5156
Q6.78125 27.4844 10.7812 32.3125
Q14.7969 37.1562 21.9219 38.8125
M18.3125 54.3906
Q18.3125 48.7344 21.8438 45.5625
Q25.3906 42.3906 31.7812 42.3906
Q38.1406 42.3906 41.7188 45.5625
Q45.3125 48.7344 45.3125 54.3906
Q45.3125 60.0625 41.7188 63.2344
Q38.1406 66.4062 31.7812 66.4062
Q25.3906 66.4062 21.8438 63.2344
Q18.3125 60.0625 18.3125 54.3906" id="BitstreamVeraSans-Roman-38"/>
     </defs>
     <g transform="translate(335.640625 199.76)scale(0.12 -0.12)">
      <use xlink:href="#BitstreamVeraSans-Roman-32"/>
      <use x="63.623046875" xlink:href="#BitstreamVeraSans-Roman-30"/>
      <use x="127.24609375" xlink:href="#BitstreamVeraSans-Roman-30"/>
      <use x="190.869140625" xlink:href="#BitstreamVeraSans-Roman-38"/>
     </g>
    </g>
    <g id="line2d_71">
     <path d="
M305.641 213.174
L322.441 213.174" style="fill:none;stroke:#00bfbf;stroke-linecap:square;"/>
    </g>
    <g id="line2d_72"/>
    <g id="text_31">
     <!-- 2009 -->
     <g transform="translate(335.640625 217.37375)scale(0.12 -0.12)">
      <use xlink:href="#BitstreamVeraSans-Roman-32"/>
      <use x="63.623046875" xlink:href="#BitstreamVeraSans-Roman-30"/>
      <use x="127.24609375" xlink:href="#BitstreamVeraSans-Roman-30"/>
      <use x="190.869140625" xlink:href="#BitstreamVeraSans-Roman-39"/>
     </g>
    </g>
    <g id="line2d_73">
     <path d="
M305.641 230.788
L322.441 230.788" style="fill:none;stroke:#bf00bf;stroke-linecap:square;"/>
    </g>
    <g id="line2d_74"/>
    <g id="text_32">
     <!-- 2010 -->
     <g transform="translate(335.640625 234.9875)scale(0.12 -0.12)">
      <use xlink:href="#BitstreamVeraSans-Roman-32"/>
      <use x="63.623046875" xlink:href="#BitstreamVeraSans-Roman-30"/>
      <use x="127.24609375" xlink:href="#BitstreamVeraSans-Roman-31"/>
      <use x="190.869140625" xlink:href="#BitstreamVeraSans-Roman-30"/>
     </g>
    </g>
    <g id="line2d_75">
     <path d="
M305.641 248.401
L322.441 248.401" style="fill:none;stroke:#bfbf00;stroke-linecap:square;"/>
    </g>
    <g id="line2d_76"/>
    <g id="text_33">
     <!-- 2011 -->
     <g transform="translate(335.640625 252.60125)scale(0.12 -0.12)">
      <use xlink:href="#BitstreamVeraSans-Roman-32"/>
      <use x="63.623046875" xlink:href="#BitstreamVeraSans-Roman-30"/>
      <use x="127.24609375" xlink:href="#BitstreamVeraSans-Roman-31"/>
      <use x="190.869140625" xlink:href="#BitstreamVeraSans-Roman-31"/>
     </g>
    </g>
    <g id="line2d_77">
     <path d="
M305.641 266.015
L322.441 266.015" style="fill:none;stroke:#000000;stroke-linecap:square;"/>
    </g>
    <g id="line2d_78"/>
    <g id="text_34">
     <!-- 2012 -->
     <g transform="translate(335.640625 270.215)scale(0.12 -0.12)">
      <use xlink:href="#BitstreamVeraSans-Roman-32"/>
      <use x="63.623046875" xlink:href="#BitstreamVeraSans-Roman-30"/>
      <use x="127.24609375" xlink:href="#BitstreamVeraSans-Roman-31"/>
      <use x="190.869140625" xlink:href="#BitstreamVeraSans-Roman-32"/>
     </g>
    </g>
    <g id="line2d_79">
     <path d="
M305.641 283.629
L322.441 283.629" style="fill:none;stroke:#0000ff;stroke-linecap:square;"/>
    </g>
    <g id="line2d_80"/>
    <g id="text_35">
     <!-- 2013 -->
     <g transform="translate(335.640625 287.82875)scale(0.12 -0.12)">
      <use xlink:href="#BitstreamVeraSans-Roman-32"/>
      <use x="63.623046875" xlink:href="#BitstreamVeraSans-Roman-30"/>
      <use x="127.24609375" xlink:href="#BitstreamVeraSans-Roman-31"/>
      <use x="190.869140625" xlink:href="#BitstreamVeraSans-Roman-33"/>
     </g>
    </g>
    <g id="line2d_81">
     <path d="
M305.641 301.243
L322.441 301.243" style="fill:none;stroke:#008000;stroke-linecap:square;"/>
    </g>
    <g id="line2d_82"/>
    <g id="text_36">
     <!-- 2014 -->
     <g transform="translate(335.640625 305.4425)scale(0.12 -0.12)">
      <use xlink:href="#BitstreamVeraSans-Roman-32"/>
      <use x="63.623046875" xlink:href="#BitstreamVeraSans-Roman-30"/>
      <use x="127.24609375" xlink:href="#BitstreamVeraSans-Roman-31"/>
      <use x="190.869140625" xlink:href="#BitstreamVeraSans-Roman-34"/>
     </g>
    </g>
   </g>
  </g>
 </g>
 <defs>
  <clipPath id="p705cba3da1">
   <rect height="223.2" width="334.8" x="40.628125" y="21.318125"/>
  </clipPath>
 </defs>
</svg>
