<?xml version="1.0" encoding="utf-8" standalone="no"?>
<!DOCTYPE svg PUBLIC "-//W3C//DTD SVG 1.1//EN"
  "http://www.w3.org/Graphics/SVG/1.1/DTD/svg11.dtd">
<!-- Created with matplotlib (http://matplotlib.org/) -->
<svg height="319pt" version="1.1" viewBox="0 0 373 319" width="373pt" xmlns="http://www.w3.org/2000/svg" xmlns:xlink="http://www.w3.org/1999/xlink">
 <defs>
  <style type="text/css">
*{stroke-linecap:butt;stroke-linejoin:round;}
  </style>
 </defs>
 <g id="figure_1">
  <g id="patch_1">
   <path d="
M0 319.938
L373.191 319.938
L373.191 0
L0 0
z
" style="fill:#ffffff;"/>
  </g>
  <g id="axes_1">
   <g id="patch_2">
    <path d="
M31.1906 244.518
L365.991 244.518
L365.991 21.3181
L31.1906 21.3181
z
" style="fill:#ffffff;"/>
   </g>
   <g id="line2d_1">
    <path clip-path="url(#p95a2ee5e18)" d="
M0 0" style="fill:none;stroke:#0000ff;stroke-linecap:square;"/>
   </g>
   <g id="line2d_2">
    <path clip-path="url(#p95a2ee5e18)" d="
M0 0" style="fill:none;stroke:#008000;stroke-linecap:square;"/>
   </g>
   <g id="line2d_3">
    <path clip-path="url(#p95a2ee5e18)" d="
M0 0" style="fill:none;stroke:#ff0000;stroke-linecap:square;"/>
   </g>
   <g id="line2d_4">
    <path clip-path="url(#p95a2ee5e18)" d="
M0 0" style="fill:none;stroke:#00bfbf;stroke-linecap:square;"/>
   </g>
   <g id="line2d_5">
    <path clip-path="url(#p95a2ee5e18)" d="
M0 0" style="fill:none;stroke:#bf00bf;stroke-linecap:square;"/>
   </g>
   <g id="line2d_6">
    <path clip-path="url(#p95a2ee5e18)" d="
M0 0" style="fill:none;stroke:#bfbf00;stroke-linecap:square;"/>
   </g>
   <g id="line2d_7">
    <path clip-path="url(#p95a2ee5e18)" d="
M0 0" style="fill:none;stroke:#000000;stroke-linecap:square;"/>
   </g>
   <g id="line2d_8">
    <path clip-path="url(#p95a2ee5e18)" d="
M0 0" style="fill:none;stroke:#0000ff;stroke-linecap:square;"/>
   </g>
   <g id="line2d_9">
    <path clip-path="url(#p95a2ee5e18)" d="
M0 0" style="fill:none;stroke:#008000;stroke-linecap:square;"/>
   </g>
   <g id="line2d_10">
    <path clip-path="url(#p95a2ee5e18)" d="
M31.1906 170.06
L32.1079 147.265
L33.0251 158.237
L33.9424 211.376
L34.8597 223.996
L35.7769 226.909
L36.6942 231.395
L37.6114 229.771
L38.5287 214.722
L39.446 227.57
M41.2805 226.253
L42.1977 226.058
L43.115 212.98
L44.0323 207.712
L44.9495 190.771
L45.8668 202.36
L46.784 206.145
L47.7013 200.93
L48.6186 236.548
L49.5358 236.87
L50.4531 209.151
L51.3704 190.924
L52.2876 197.904
L53.2049 217.096
L54.1221 211.292
L55.0394 211.444
L55.9567 226.493
L56.8739 231.574
M58.7084 242.332
L59.6257 231.496
L60.543 227.076
M62.3775 220.196
L63.2947 215.855
L64.212 220.476
L65.1293 240.119
L66.0465 206.582
L66.9638 220.957
L67.881 200.32
L68.7983 203.964
L69.7156 201.441
L70.6328 214.079
L71.5501 186.719
L72.4673 187.239
L73.3846 194.636
L74.3019 174.355
L75.2191 185.526
L76.1364 192.285
L77.9709 213.626
L78.8882 232.087
L79.8054 214.387
L80.7227 219.618
L81.6399 237.144
L82.5572 200.555
L83.4745 204.849
L85.309 187.784
L86.2262 215.083
L87.1435 213.891
L88.0608 191.091
L88.978 198.321
L89.8953 186.456
L90.8125 165.436
L91.7298 176.471
L92.6471 204.002
L93.5643 189.031
L94.4816 180.654
L95.3988 167.719
L96.3161 147.726
L97.2334 215.247
L98.1506 224.341
L99.0679 199.91
L99.9851 203.526
L100.902 186.932
L101.82 237.581
L102.737 227.315
L103.654 197.09
L104.571 159.684
L105.489 148.944
L106.406 163.943
L107.323 208.283
L108.24 207.228
L109.158 230.168
L110.075 175.804
L110.992 212.969
L111.91 189.337
L112.827 188.387
L113.744 191.1
L114.661 147.697
L115.579 144.353
L116.496 144.571
L117.413 187.999
L118.33 172.436
L119.248 192.475
L120.165 207.567
L121.082 168.083
L122.917 196.454
L123.834 157.068
L124.751 156.992
L125.668 165.182
L126.586 188.71
L127.503 179.634
L128.42 164.426
L129.337 142.389
L130.255 143.691
L131.172 158.146
L132.089 164.675
L133.007 157.812
L133.924 137.666
L134.841 188.873
L135.758 187.51
L136.676 127.927
L137.593 100.955
L138.51 115.368
L139.427 121.425
L140.345 186.71
L141.262 123.333
L142.179 125.393
L143.096 106.898
L144.931 120.999
L145.848 126.368
L146.765 142.649
L147.683 166.259
L148.6 126.268
L149.517 110.971
L150.434 115.004
L151.352 131.255
L152.269 123.793
L153.186 139.264
L154.104 185.095
L155.021 151.886
L155.938 142.839
L156.855 142.122
L157.773 152.704
L158.69 143.636
L159.607 195.216
L160.524 175.579
L161.442 174.291
L162.359 192.843
L163.276 151.328
L164.193 177.2
L165.111 195.722
L166.028 193.648
L166.945 168.919
L167.862 172.307
L168.78 164.319
L169.697 163.334
L170.614 193.982
L171.531 135.555
L172.449 202.78
L173.366 175.569
L174.283 140.922
L175.2 133.103
L176.118 161.286
L177.035 113.637
L177.952 156.951
L178.87 169.538
L179.787 175.767
L180.704 134.553
L181.621 125.271
L182.539 125.487
L183.456 131.849
L184.373 136.511
L185.29 135.648
L186.208 130.681
L187.125 130.379
L188.042 145.152
L188.959 172.231
L189.877 151.243
L190.794 139.849
L191.711 144.083
L192.628 133.4
L193.546 140.024
L194.463 143.508
L195.38 149.805
L196.297 154.635
L197.215 166.102
L198.132 170.074
L199.049 148.192
L199.967 156.074
L200.884 160.458
L201.801 153.226
L202.718 144.047
L203.636 146.24
L204.553 146.427
L205.47 147.664
L206.387 141.998
L207.305 128.287
L208.222 136.396
L209.139 143.176
L210.056 145.862
L210.974 147.909
L211.891 152.52
L212.808 149.234
L213.725 140.667
L214.643 141.601
L215.56 151.191
L217.394 185.081
L218.312 152.683
L219.229 149.511
L220.146 152.716
L221.064 151.406
L221.981 151.263
L222.898 151.471
L223.815 168.863
L224.733 145.013
L225.65 146.506
L226.567 156.05
L227.484 150.282
L228.402 150.182
L229.319 151.844
L230.236 168.143
L231.153 175.646
L232.071 169.532
L232.988 178.985
L233.905 157.635
L234.822 144.325
L235.74 148.805
L236.657 153.875
L237.574 155.139
L238.491 158.127
L239.409 158.01
L240.326 154.8
L241.243 159.238
L242.16 170.641
L243.078 171.915
L243.995 160.415
L244.912 167.865
L245.83 143.674
L246.747 151.126
L247.664 160.602
L248.581 165.514
L250.416 142.368
L251.333 154.572
L252.25 160.247
L253.168 161.823
L254.085 156.702
L255.002 166.103
L255.919 151.586
L256.837 139.639
L257.754 140.56
L258.671 150.335
L259.588 158.395
L260.506 155.638
L261.423 152.149
L262.34 156.956
L263.257 144.899
L264.175 149.655
L265.092 148.306
L266.009 155.56
L266.927 157.055
L267.844 156.085
L268.761 159.123
L269.678 160.89
L270.596 163.952
L271.513 182.501
L272.43 206.558
L273.347 217.564
L274.265 178.31
L275.182 156.429
L276.099 150.778
L277.016 158.987
L277.934 154.829
L278.851 161.48
L279.768 157.597
L280.685 160.439
L281.603 168.377
L282.52 167.296
L283.437 187.193
L284.354 188.884
L285.272 230.469
L286.189 207.833
L287.106 175.695
L288.024 175.784
L288.941 149.27
L289.858 154.086
L290.775 230.094
L291.693 210.972
L292.61 172.46
L293.527 155.549
L294.444 168.81
L295.362 166.543
L296.279 165.121
L297.196 176.181
L298.113 170.512
L299.031 177.208
L299.948 172.254
L300.865 177.229
L301.782 140.054
L303.617 154.091
L304.534 167.993
L305.451 165.236
L306.369 155.789
L307.286 165.178
L308.203 166.042
L309.12 170.176
L310.038 192.018
L310.955 216.597
L311.872 232.106
L312.79 235.159
L313.707 236.26
L314.624 210.019
L315.541 218.313
L316.459 209.647
L317.376 209.077
L318.293 233.278
L319.21 225.529
L320.128 238.782
L321.045 216.183
L321.962 203.401
L322.879 170.184
L323.797 169.798
L324.714 175.663
L325.631 166.899
L326.548 172.059
L327.466 184.292
L328.383 203.239
L329.3 181.728
L330.217 203.258
L331.135 214.267
L332.052 173.696
L332.969 177.341
L333.887 193.359
L334.804 185.909
L335.721 201.934
L336.638 228.712
L337.556 220.196
L338.473 194.091
L339.39 223.386
L340.307 235.713
L341.225 185.142
L342.142 173.376
L343.059 172.64
L343.976 200.567
L344.894 221.369
L345.811 189.007
L346.728 176.069
L347.645 201.4
L349.48 242.37
L350.397 240.957
L351.314 222.345
L352.232 219.753
L353.149 212.762
L354.066 201.219
L354.984 233.315
L355.901 210.845
L356.818 228.548
L357.735 239.324
L358.653 232.362
L359.57 224.074
M361.404 226.18
L362.322 240.577
L363.239 240.91
L364.156 216.434
L365.073 183.271
L365.073 183.271" style="fill:none;stroke:#ff0000;stroke-linecap:square;"/>
   </g>
   <g id="line2d_11">
    <path clip-path="url(#p95a2ee5e18)" d="
M31.1906 236.259
L32.1079 211.618
L33.0251 218.746
L33.9424 186.655
L34.8597 206.635
L35.7769 240.995
L36.6942 226.077
L37.6114 216.564
L38.5287 231.88
L39.446 205.643
L41.2805 226.836
L42.1977 220.984
L43.115 196.137
L44.0323 202.818
L44.9495 199.062
L45.8668 217.311
L46.784 206.236
L47.7013 216.489
L48.6186 213.541
L49.5358 197.821
L50.4531 218.502
L51.3704 243.324
L52.2876 241.631
M55.0394 221.346
L55.9567 221.704
L56.8739 222.943
L57.7912 216.345
L58.7084 218.366
L59.6257 198.688
L60.543 183.083
L61.4602 193.54
L62.3775 207.578
L63.2947 204.554
L64.212 215.761
L65.1293 230.631
L66.0465 224.793
L66.9638 237.886
L67.881 227.254
L68.7983 223.032
L69.7156 239.333
L70.6328 225.693
L71.5501 242.732
L72.4673 209.293
L73.3846 208.2
L74.3019 234.322
L75.2191 208.361
L76.1364 201.511
L77.0536 203.13
L77.9709 188.25
L78.8882 196.037
L79.8054 218.487
L80.7227 190.831
L81.6399 213.552
L82.5572 217.895
L83.4745 184.755
L84.3917 163.739
L85.309 185.405
L86.2262 199.781
L87.1435 223.897
L88.0608 240.638
M89.8953 220.469
L90.8125 214.83
L91.7298 220.186
L92.6471 202.869
L93.5643 203.559
L94.4816 185.906
L95.3988 188.865
L96.3161 192.401
L97.2334 200.988
L98.1506 243.174
L99.0679 224.104
L99.9851 200.16
L100.902 168.561
L101.82 188.233
L102.737 170.434
L103.654 210.613
L104.571 219.857
L105.489 187.621
L106.406 185.616
L107.323 232.202
L108.24 198.654
L109.158 170.257
L110.075 214.318
L110.992 219.978
L111.91 179.83
L112.827 234.701
L113.744 203.51
L114.661 235.094
L115.579 233.971
L117.413 168.697
L118.33 152.287
L119.248 155.904
L120.165 213.407
L121.082 178.878
L121.999 217.743
L123.834 152.613
L124.751 186.483
L125.668 162.605
L126.586 181.288
L127.503 139.507
L128.42 146.866
L129.337 147.762
L130.255 138.997
L131.172 147.168
L132.089 152.751
L133.007 155.623
L133.924 163.193
L134.841 116.057
L135.758 129.121
L136.676 146.696
L137.593 152.842
L138.51 214.16
L139.427 143.732
L141.262 174.245
L142.179 187.239
L143.096 232.182
L144.014 192.289
L144.931 189.783
L145.848 198.481
L147.683 141.417
L148.6 123.951
L149.517 138.029
L150.434 143.68
L151.352 156.333
L152.269 133.91
L153.186 168.599
L154.104 138.919
L155.021 136.468
L155.938 143.603
L156.855 154.354
L157.773 146.607
L158.69 128.417
L159.607 129.535
L160.524 144.229
L161.442 163.484
L162.359 164.231
L163.276 143.968
L164.193 144.83
L165.111 144.34
L166.028 146.785
L166.945 160.998
L167.862 159.667
L169.697 177.143
L170.614 222.987
L171.531 173.099
L172.449 183.449
L173.366 207.176
L174.283 209.857
L175.2 159.293
L176.118 159.732
L177.035 159.04
L177.952 181.054
L178.87 178.956
L179.787 177.258
L180.704 214.658
L181.621 213.52
L182.539 211.498
L183.456 173.679
L184.373 192.806
L185.29 147.67
L186.208 165.543
L187.125 174.477
L188.042 197.538
L188.959 170.605
L189.877 136.306
L190.794 151.499
L191.711 150.692
L192.628 153.281
L193.546 139.32
L194.463 146.324
L195.38 156.709
L196.297 155.035
L197.215 150.75
L198.132 165.781
L199.049 171.604
L199.967 152.601
L200.884 167.652
L201.801 149.194
L202.718 146.436
L203.636 146.46
L204.553 150.986
L205.47 146.66
L206.387 174.127
L207.305 187.807
L208.222 177.52
L209.139 146.534
L210.056 151.175
L210.974 163.346
L211.891 166.227
L212.808 170.214
L213.725 159.131
L214.643 157.063
L215.56 159.051
L216.477 166.635
L217.394 183.206
L218.312 158.884
L219.229 161.59
L220.146 162.97
L221.064 166.69
L221.981 173.504
L222.898 169.752
L223.815 164.518
L224.733 161.187
L226.567 172.458
L227.484 169.175
L228.402 166.374
L229.319 173.108
L230.236 225.74
L231.153 234.724
L232.988 163.389
L233.905 161.661
L235.74 167.513
L236.657 177.849
L237.574 158
L238.491 163.565
L239.409 154.168
L240.326 155.875
L241.243 168.108
L242.16 168.484
L243.078 171.866
L243.995 171.651
L244.912 169.844
L245.83 194.733
L246.747 169.876
L247.664 169.567
L248.581 168.981
L249.499 172.549
L250.416 190.43
L251.333 173.357
L252.25 175.521
L253.168 163.991
L254.085 169.858
L255.002 170.005
L255.919 170.907
L257.754 185.429
L258.671 169.527
L259.588 161.18
L260.506 154.046
L261.423 161.272
L262.34 166.807
L263.257 170.876
L264.175 172.313
L265.092 175.11
L266.009 175.875
L266.927 183.188
L267.844 179.589
L268.761 177.379
L269.678 182.511
L270.596 183.634
L271.513 174.116
L272.43 159.994
L273.347 165.927
L274.265 172.863
L275.182 177.904
L276.099 181.392
L277.016 175.634
L277.934 171.288
L278.851 182.246
L279.768 203.645
L280.685 184.467
L281.603 161.495
L282.52 160.254
L283.437 214.448
M286.189 189.429
L287.106 177.133
L288.024 174.173
L288.941 192.31
L289.858 179.565
L290.775 170.662
L291.693 175.194
L292.61 211.614
L293.527 224.364
L294.444 211.805
L295.362 194.099
L296.279 196.602
L297.196 202.257
L298.113 219.774
L299.031 210.298
L299.948 212.97
L300.865 190.909
L301.782 207.26
L302.7 199.019
L303.617 173.624
L304.534 211.171
L305.451 241.292
L306.369 210.019
L307.286 223.103
L308.203 233.46
L309.12 214.949
L310.038 207.603
L310.955 201.163
L311.872 186.601
L312.79 186.445
L313.707 185.517
L314.624 221.781
L315.541 212.627
L316.459 193.007
L317.376 181.091
L318.293 189.174
L319.21 225.093
M321.045 233.288
L321.962 229.094
L322.879 189.679
L323.797 186.938
L324.714 181.142
L325.631 217.094
L326.548 188.536
L327.466 204.145
L328.383 203.168
L329.3 229.607
L330.217 213.197
L331.135 206.886
L332.052 207.87
L332.969 206.619
L333.887 220.959
L334.804 222.03
L335.721 209.629
M337.556 202.789
L338.473 203.179
L339.39 191.56
L340.307 187.07
L341.225 200.371
L342.142 197.326
L343.059 234.984
L343.976 210.959
L344.894 199.503
L345.811 194.572
L346.728 180.07
L347.645 218.64
L348.563 242.864
L349.48 226.479
L350.397 230.781
M352.232 232.15
L353.149 238.621
L354.066 233.195
L354.984 226.938
L355.901 223.684
L356.818 244.324
L357.735 232.842
L358.653 192.976
L359.57 216.704
L360.487 229.339
L361.404 222.79
L362.322 207.63
L364.156 239.892
L365.073 234.01
L365.073 234.01" style="fill:none;stroke:#00bfbf;stroke-linecap:square;"/>
   </g>
   <g id="line2d_12">
    <path clip-path="url(#p95a2ee5e18)" d="
M31.1906 242.699
L33.0251 226.809
L33.9424 213.68
L34.8597 228.457
L35.7769 219.64
L36.6942 233.825
L37.6114 194.993
L38.5287 202.243
L39.446 212.868
L40.3632 199.234
L41.2805 210.86
L42.1977 238.118
L43.115 226.517
L44.0323 184.01
L44.9495 213.8
L45.8668 207.704
L46.784 226.355
L47.7013 228.891
L48.6186 218.098
L49.5358 211.36
L50.4531 219.216
M52.2876 225.5
L53.2049 233.41
L54.1221 240.882
M55.9567 237.926
L56.8739 231.963
L57.7912 222.095
M59.6257 232.051
L60.543 212.757
L61.4602 223.448
L62.3775 232.332
L63.2947 234.515
L64.212 226.613
L65.1293 243.055
L66.0465 240.491
L66.9638 227.744
L67.881 206.313
L68.7983 230.382
L69.7156 224.98
L70.6328 236.549
L71.5501 216.885
M73.3846 243.292
L74.3019 241.667
L75.2191 237.241
L76.1364 219.815
L77.0536 214.698
L77.9709 219.866
L78.8882 169.066
L79.8054 178.631
L80.7227 231.392
L81.6399 228.068
L82.5572 198.644
L83.4745 216.025
L84.3917 219.926
L85.309 198.425
L86.2262 191.252
L87.1435 222.632
L88.0608 216.067
L88.978 215.289
L90.8125 184.659
L91.7298 225.427
L92.6471 194.376
L93.5643 173.961
L94.4816 181.7
L95.3988 195.51
L96.3161 231.55
L97.2334 201.559
L98.1506 162.467
L99.0679 170.496
L99.9851 165.354
L100.902 173.172
L101.82 144.988
L102.737 158.566
L103.654 194.62
L104.571 202.311
L105.489 161.345
L106.406 159.238
L107.323 217.118
L108.24 217.118
L109.158 176.285
L110.075 166.388
L111.91 240.77
L112.827 206.37
L113.744 234.769
L114.661 232.581
L115.579 205.57
L116.496 215.295
L117.413 227.514
L118.33 188.302
L119.248 169.528
L120.165 190.85
L121.082 146.273
L121.999 165.369
L122.917 170.74
L123.834 220.053
L124.751 200.709
L125.668 154.709
L126.586 133.969
L127.503 162.22
L128.42 155.626
L129.337 137.165
L130.255 139.19
L131.172 186.446
L132.089 216.457
L133.007 201.401
L133.924 131.849
L134.841 129.103
L135.758 120.484
L136.676 143.588
L137.593 220.6
L138.51 222.844
L139.427 200.487
L140.345 208.404
L141.262 192.543
L142.179 155.701
L143.096 196.746
L144.014 101.049
L144.931 166.682
L145.848 160.146
L146.765 113.57
L147.683 125.38
L148.6 121.135
L149.517 199.737
L150.434 148.919
L151.352 129.686
L152.269 132.828
L153.186 124.921
L154.104 129.638
L155.938 166.343
L156.855 228.312
L157.773 159.661
L158.69 137.14
L159.607 173.716
M161.442 187.874
L162.359 174.882
L163.276 143.472
L164.193 200.947
L165.111 182.499
L166.028 196.377
L167.862 144.093
L168.78 204.486
L169.697 190.666
L170.614 225.345
L171.531 180.944
L172.449 233.677
L173.366 163.442
L174.283 214.152
L175.2 148.91
L176.118 155.527
L177.035 183.916
L177.952 191.001
L178.87 162.756
L179.787 128.415
L180.704 135.475
L181.621 143.971
L182.539 149.686
L183.456 140.351
L184.373 150.35
L185.29 129.757
L186.208 150.984
L187.125 181.246
L188.042 184.698
L188.959 140.737
L189.877 145.254
L190.794 172.43
L191.711 184.872
L192.628 150.227
L193.546 143.649
L194.463 160.759
L195.38 184.103
L196.297 154.341
L197.215 147.891
L199.049 162.362
L199.967 141.014
L200.884 142.049
L201.801 140.641
L202.718 142.251
L203.636 147.425
L205.47 160.184
L206.387 153.802
L207.305 150.497
L208.222 128.909
L209.139 135.161
L210.056 143.235
L210.974 153.037
L211.891 149.189
L212.808 150.04
L213.725 141.391
L214.643 143.776
L215.56 150.259
L216.477 149.171
L217.394 143.872
L218.312 150.506
L219.229 162.769
L220.146 201.755
L221.064 166.626
L221.981 170.624
L222.898 163.719
L223.815 172.213
L224.733 166.884
L225.65 154.42
L226.567 153.007
L227.484 156.704
L228.402 156.266
L229.319 164.681
L230.236 176.731
L231.153 155.782
L232.071 158.83
L233.905 185.14
L234.822 212.535
L235.74 175.846
L236.657 162.397
L237.574 160.824
L238.491 161.289
L239.409 159.775
L240.326 162.355
L241.243 164.02
L242.16 158.062
L243.078 155.014
L243.995 162.196
L244.912 155.414
L245.83 154.8
L246.747 153.067
L247.664 160.94
L248.581 184.336
L249.499 150.535
L250.416 161.63
L251.333 218.191
L252.25 179.788
L253.168 188.446
L254.085 184.621
L255.002 163.22
L255.919 159.886
L256.837 170.567
L257.754 150.964
L258.671 147.315
L259.588 148.503
L260.506 206.985
L261.423 234.537
L262.34 165.585
L263.257 155.768
L264.175 158.824
L266.009 169.794
L266.927 163.715
L267.844 162.327
L268.761 174.604
L269.678 171.173
L270.596 180.402
L272.43 164.567
L273.347 164.603
L274.265 161.921
L275.182 158.332
L276.099 166.358
L277.016 169.101
L277.934 166.261
L279.768 172.38
L280.685 167.967
L281.603 172.787
L282.52 172.597
L283.437 201.541
L284.354 220.095
L285.272 202.895
L286.189 199.453
L287.106 176.598
L288.024 220.582
L288.941 202.582
L289.858 190.821
L290.775 196.703
L291.693 172.208
L292.61 166.216
L293.527 164.669
L294.444 177.653
L295.362 184.405
L296.279 179.961
L297.196 164.685
L298.113 156.979
L299.031 166.29
L299.948 167.695
L300.865 173.48
L301.782 222.848
L302.7 242.342
L303.617 217.876
L304.534 230.368
L305.451 196.12
L306.369 167.848
L307.286 177.291
L308.203 184.735
L309.12 225.537
L310.038 193.329
L310.955 189.121
L311.872 192.586
L312.79 182.093
L313.707 189.248
L314.624 189.338
L315.541 226.124
L316.459 228.839
L317.376 203.377
L318.293 239.946
L319.21 229.041
L320.128 204.947
L321.045 208.946
L321.962 240.694
L322.879 220.397
L323.797 213.622
L324.714 193.499
L325.631 211.597
M331.135 199.48
L332.052 189.816
L332.969 197.956
L333.887 216.696
L334.804 228.939
L335.721 204.531
L336.638 207.459
M338.473 239.427
L339.39 223.596
L340.307 227.928
L341.225 238.767
L342.142 240.853
L343.059 228.558
L343.976 210.537
L344.894 226.326
L345.811 234.38
L346.728 234.489
L347.645 226.102
L348.563 224.315
L349.48 237.56
L350.397 230.664
L351.314 204.821
L352.232 201.871
L353.149 226.253
L354.066 241.256
L354.984 231.341
L355.901 210.597
L356.818 237.628
L357.735 234.782
L358.653 204.67
L359.57 169.932
L360.487 228.334
L361.404 227.087
L362.322 231.883
M364.156 237.033
L365.073 229.844
L365.073 229.844" style="fill:none;stroke:#bf00bf;stroke-linecap:square;"/>
   </g>
   <g id="line2d_13">
    <path clip-path="url(#p95a2ee5e18)" d="
M31.1906 211.145
L32.1079 213.343
L33.0251 232.289
L33.9424 235.874
L34.8597 211.128
L35.7769 218.461
L36.6942 217.31
L37.6114 222.056
L38.5287 232.749
M40.3632 214.649
L41.2805 221.831
M43.115 236.122
L44.0323 233.985
L44.9495 241.218
L45.8668 233.601
L46.784 237.831
M48.6186 205.683
L49.5358 233.225
L50.4531 234.833
L51.3704 195.208
L52.2876 235.912
L53.2049 239.698
L54.1221 240.496
L55.0394 235.516
L55.9567 234.801
L56.8739 235.997
M58.7084 218.31
L59.6257 197.531
L60.543 182.912
L61.4602 196.518
L62.3775 223.598
L63.2947 219.473
L64.212 217.819
L65.1293 217.936
L66.0465 225.428
L66.9638 210.152
L68.7983 192.194
L69.7156 191.968
L70.6328 183.87
L72.4673 193.854
L73.3846 221.163
L75.2191 236.549
L76.1364 232.74
M77.9709 226.168
L78.8882 223.499
L79.8054 215.395
M82.5572 201.768
L83.4745 193.906
L84.3917 201.433
L85.309 177.521
L86.2262 214.364
L87.1435 218.591
L88.0608 226.686
L88.978 232.678
L89.8953 235.647
L90.8125 240.983
M92.6471 229.724
L93.5643 223.465
L94.4816 243.419
L95.3988 217.402
L96.3161 241.068
L97.2334 202.246
L98.1506 225.806
M99.9851 244.375
L100.902 201.023
L101.82 234.105
L102.737 207.657
L103.654 224.063
L104.571 217.525
L105.489 206.069
L106.406 231.591
M110.075 213.86
L110.992 228.629
L111.91 227.428
L112.827 182.144
L113.744 184.595
L114.661 191.736
L115.579 211.719
L116.496 187.639
L117.413 195.271
L118.33 206.949
L119.248 192.531
L120.165 206.637
L121.082 218.125
L121.999 186.175
L122.917 196.513
L123.834 158.491
L124.751 204.755
L125.668 153.94
L126.586 194.236
L127.503 203.615
L128.42 183.449
L129.337 183.38
L130.255 126.066
L131.172 196.243
L132.089 211.898
L133.007 140.575
L133.924 127.716
L134.841 180.282
L135.758 216.141
L136.676 174.357
L137.593 154.717
L138.51 215.744
L139.427 156.472
L140.345 165.734
L141.262 146.839
L142.179 180.298
L143.096 147.967
L144.014 139.326
L144.931 155.65
L145.848 203.116
L146.765 181.003
L147.683 199.762
L149.517 145.032
L150.434 145.268
L151.352 155.142
L152.269 160.329
L153.186 184.146
L154.104 211.468
L155.021 229.58
L155.938 174.175
L156.855 202.372
L157.773 137.426
L158.69 150.034
L159.607 174.388
L160.524 154.463
L161.442 194.245
L162.359 192.253
L163.276 184.142
L164.193 156.709
L165.111 213.283
L166.028 213.137
L166.945 212.609
L167.862 168.358
L168.78 178.942
L169.697 164.888
L170.614 201.433
L171.531 138.356
L172.449 152.177
L173.366 162.679
L174.283 196.169
L175.2 206.003
L176.118 148.974
L177.035 167.86
L177.952 175.42
L178.87 176.431
L179.787 154.696
L180.704 186.21
L181.621 140.454
L182.539 129.811
L183.456 154.788
L184.373 135.435
L185.29 205.952
L186.208 199.835
L187.125 142.207
L188.959 157.602
L189.877 156.524
L190.794 144.19
L191.711 139.997
L192.628 143.57
L193.546 151.121
L194.463 161.15
L195.38 185.732
L196.297 153.897
L197.215 147.016
L198.132 147.848
L199.049 157.42
L199.967 160.757
L200.884 162.872
L201.801 159.063
L202.718 194.453
L203.636 149.207
L204.553 146.091
L205.47 160.069
L206.387 165.268
L207.305 159.302
L208.222 169.134
L209.139 161.04
L210.056 157.169
L210.974 168.018
L211.891 161.265
L212.808 159.794
L213.725 162.818
L214.643 153.178
L215.56 151.11
L216.477 154.058
L217.394 151.581
L218.312 161.318
L219.229 160.574
L220.146 162.758
L221.064 158.326
L221.981 156.816
L222.898 161.422
L223.815 170.441
L224.733 176.819
L225.65 169.703
L226.567 171.668
L227.484 163.466
L228.402 190.378
L229.319 164.312
L230.236 165.604
L231.153 169.023
L232.071 169.799
L232.988 160.583
L233.905 162.309
L234.822 156.29
L235.74 161.267
L236.657 173.175
L237.574 170.598
L238.491 156.336
L239.409 159.436
L240.326 165.619
L241.243 165.66
L242.16 163.973
L243.078 172.646
L243.995 174.065
L244.912 172.377
L245.83 169.974
L246.747 170.781
L247.664 176.049
L248.581 175.048
L249.499 194.921
L250.416 178.596
L251.333 172.006
L252.25 170.288
L253.168 161.089
L254.085 159.286
L255.002 160.289
L255.919 162.82
L256.837 162.931
L257.754 168.064
L258.671 172.507
L259.588 175.084
L260.506 174.276
L261.423 180.081
L262.34 177.866
L263.257 184.389
L264.175 178.633
L265.092 178.23
L266.009 176.996
L266.927 216.417
L267.844 182.205
L268.761 163.184
L269.678 161.154
L270.596 170.246
L271.513 171.87
L272.43 167.896
L273.347 173.721
L274.265 174.274
L275.182 178.377
L276.099 183.248
L277.016 173.775
L277.934 173.904
L278.851 176.975
L279.768 171.9
L280.685 182.553
L281.603 181.521
L282.52 183.476
L283.437 183.032
L284.354 227.682
L285.272 239.314
M287.106 244.389
L288.024 203.435
L288.941 183.287
L289.858 224.408
L290.775 211.803
L291.693 182.641
L292.61 178.48
L293.527 176.309
L294.444 193.769
L295.362 240.887
L296.279 192.164
L297.196 174.182
L298.113 187.291
L299.031 179.398
L299.948 188.827
L300.865 196.744
L301.782 191.952
L302.7 213.457
L303.617 180.866
L304.534 159.248
L305.451 167.951
L306.369 167.903
L307.286 174.136
L308.203 187.338
L309.12 209.583
L310.038 181.388
L310.955 160.734
L311.872 179.907
L312.79 221.656
L313.707 230.415
L314.624 236.978
L315.541 238.719
L317.376 187.365
L318.293 183.311
L319.21 194.297
L320.128 218.978
L321.045 226.233
L321.962 183.886
L322.879 169.286
L324.714 235.07
L325.631 236.174
L326.548 229.177
L327.466 196.471
L328.383 209.475
L329.3 224.945
L330.217 191.862
L331.135 212.425
L332.052 211.347
L332.969 171.153
L333.887 171.946
L334.804 203.257
L335.721 227.505
L336.638 215.824
L337.556 181.616
L338.473 182.64
L339.39 194.647
L340.307 203.046
L341.225 202.564
L342.142 183.914
L343.059 188.227
L343.976 187.388
L344.894 188.212
L346.728 197.751
L347.645 195.391
L348.563 204.378
L349.48 195.353
L350.397 214.176
L351.314 213.783
L352.232 212.092
L354.066 196.838
L354.984 189.935
L355.901 211.504
L356.818 178.891
L357.735 173.347
L360.487 195.643
L361.404 211.52
L362.322 232.628
L363.239 221.171
M365.073 211.08" style="fill:none;stroke:#bfbf00;stroke-linecap:square;"/>
   </g>
   <g id="line2d_14">
    <path clip-path="url(#p95a2ee5e18)" d="
M31.1906 173.979
L32.1079 184.238
L33.0251 179.908
L33.9424 172.222
L35.7769 205.7
L36.6942 213.956
L37.6114 202.04
L38.5287 208.91
L39.446 232.81
L40.3632 198.344
L41.2805 204.719
L42.1977 173.932
L43.115 164.58
L44.0323 194.946
L44.9495 204.919
L45.8668 182.723
L46.784 218.733
M49.5358 242.58
L50.4531 228.211
L51.3704 244.042
L52.2876 230.342
L53.2049 226.211
L54.1221 240.958
L55.0394 197.019
L55.9567 184.778
L56.8739 167.84
L57.7912 211.406
L58.7084 189.203
L59.6257 226.357
L60.543 221.264
L61.4602 193.693
L62.3775 188.777
L63.2947 187.412
L64.212 188.604
L65.1293 171.914
L66.0465 217.364
L66.9638 238.891
L67.881 214.506
L68.7983 230.937
L69.7156 235.994
L70.6328 212.122
L72.4673 229.172
L73.3846 198.64
L74.3019 198.116
L75.2191 218.845
L76.1364 206.134
L77.0536 223.259
M78.8882 227.657
L79.8054 202.149
L80.7227 167.874
L81.6399 220.238
L82.5572 196.326
L84.3917 177.512
L85.309 214.28
L86.2262 238.209
L87.1435 202.458
L88.0608 216.156
L88.978 191.846
L89.8953 183.745
L90.8125 210.376
L91.7298 165.966
L92.6471 161.737
L93.5643 162.919
L94.4816 171.405
L95.3988 201.051
L97.2334 217.819
M99.0679 217.879
L99.9851 235.418
L100.902 236.763
M102.737 214.849
L103.654 225.318
L104.571 194.571
L105.489 150.44
L106.406 182.191
L107.323 160.561
L108.24 190.131
L109.158 228.024
L110.075 172.084
L110.992 204.776
L111.91 214.404
L112.827 229.181
L113.744 162.823
L114.661 142.608
L115.579 158.665
L116.496 153.22
L117.413 183.252
L118.33 157.552
L119.248 154.21
L120.165 133.849
L121.082 131.232
L121.999 153.467
L122.917 146.952
L123.834 197.455
L124.751 173.392
L125.668 195.17
L126.586 159.302
L127.503 132.052
L128.42 206.475
L129.337 174.16
L130.255 174.595
L131.172 195.527
L132.089 160.389
L133.007 144.566
L133.924 148.862
L134.841 174.701
L135.758 167.225
L136.676 186.837
L137.593 243.796
L138.51 138.589
L139.427 166.982
L140.345 136.543
L141.262 202.185
L142.179 151.114
L143.096 139.762
L144.014 204.781
L144.931 224.787
L145.848 161.408
L146.765 127.487
L148.6 130.527
L149.517 141.559
L150.434 116.044
L151.352 122.81
L152.269 131.238
L153.186 134.953
L154.104 151.425
L155.021 181.487
L155.938 153.784
L156.855 170.635
L157.773 134.281
L158.69 127.242
L159.607 143.647
L160.524 185.578
L161.442 190.734
L162.359 179.766
L163.276 153.559
L164.193 215.331
L165.111 218.091
L166.028 185.965
L166.945 137.865
L167.862 136.604
L168.78 145.355
L169.697 149.321
L170.614 146.653
L171.531 175.062
L172.449 157.862
L173.366 176.305
L174.283 225.808
L175.2 142.708
L176.118 156.68
L177.035 164.719
L177.952 210.07
L178.87 165.498
L179.787 135.721
L180.704 157.219
L182.539 126.706
L183.456 133.901
L184.373 146.566
L185.29 151.669
L186.208 132.777
L187.125 143.791
L188.042 132.283
L188.959 148.309
L189.877 153.901
L190.794 146.103
L191.711 146.087
L192.628 142.675
L193.546 141.54
L194.463 136.356
L195.38 146.474
L196.297 144.415
L197.215 152.044
L198.132 170.449
L199.049 156.263
L199.967 147.774
L200.884 144.661
L201.801 159.096
L202.718 162.568
L203.636 162.453
L204.553 179.31
L205.47 168.309
L206.387 162.868
L207.305 165.566
L208.222 167.543
L209.139 186.332
L210.056 192.634
L210.974 170.501
L211.891 181.414
L212.808 156.889
L213.725 157.428
L214.643 171.843
L215.56 155.267
L216.477 159.243
L217.394 159.185
L218.312 161.468
L219.229 159.582
L220.146 159.921
L221.064 163.513
L221.981 166.1
L222.898 165.503
L223.815 162.461
L224.733 164.91
L225.65 161.405
L226.567 160.676
L227.484 153.58
L228.402 154.834
L229.319 157.458
L230.236 166.166
L231.153 165.11
L232.071 170.18
L232.988 176.101
L233.905 168.996
L234.822 179.49
L235.74 164.711
L236.657 173.753
L237.574 173.812
L238.491 171.72
L239.409 168.132
L240.326 167.274
L241.243 170.274
L242.16 168.099
L243.078 188.085
L243.995 173.187
L244.912 175.543
L245.83 168.372
L246.747 163.496
L247.664 150.356
L248.581 156.774
L249.499 174.143
L250.416 175.258
L251.333 164.118
L252.25 163.783
L253.168 160.06
L254.085 183.12
L255.002 169.951
L255.919 150.072
L257.754 159.531
L258.671 162.798
L259.588 178.972
L260.506 160.533
L262.34 167.989
L263.257 162.345
L264.175 158.232
L265.092 148.942
L266.009 155.903
L266.927 164.705
L267.844 161.717
L268.761 166.725
L269.678 164.355
L270.596 162.907
L271.513 173.706
L272.43 177.653
L273.347 178.922
L274.265 175.483
L275.182 216.227
L276.099 182.779
L277.016 182.9
L277.934 180.456
L278.851 170.096
L279.768 174.557
L280.685 176.066
L281.603 174.71
L282.52 169.467
L283.437 169.705
L284.354 153.826
L285.272 154.187
L286.189 149.829
L287.106 152.072
L288.024 155.282
L288.941 155.235
L289.858 164.78
L290.775 168.849
L291.693 170.011
L292.61 169.904
L293.527 205.394
L294.444 186.19
L295.362 193.224
L296.279 196.15
L297.196 176.042
L298.113 166.993
L299.031 186.629
L299.948 203.707
L300.865 178.491
L301.782 234.547
L302.7 243.915
L303.617 225.979
L304.534 227.163
L305.451 198.526
L306.369 208.833
L307.286 231.095
L308.203 197.228
L309.12 185.545
L310.038 181.493
L310.955 201.788
L311.872 189.265
L312.79 197.493
L313.707 189.518
L314.624 202.445
L315.541 192.998
L316.459 203.033
L317.376 215.802
L318.293 242.045
L319.21 226.45
L320.128 229.277
L321.045 222.807
L321.962 226.058
L322.879 223.689
L323.797 216.922
L324.714 205.16
L325.631 227.254
L326.548 221.925
L327.466 221.813
L328.383 214.221
L329.3 230.902
L330.217 197.738
L331.135 175.642
L332.052 211.629
L332.969 226.008
L333.887 209.878
L334.804 195.982
L335.721 209.161
L336.638 218.023
L337.556 231.692
L338.473 229.9
L339.39 243.101
L340.307 198.961
L341.225 222.28
L342.142 232.465
L343.059 217.802
L343.976 205.446
L344.894 224.647
L345.811 209.942
L346.728 235.667
L347.645 217.102
L348.563 239.391
L349.48 219.654
L350.397 230.138
L351.314 232.122
M353.149 230.385
L354.066 220.045
L354.984 215.17
L355.901 173.352
L356.818 168.385
L357.735 207.124
L358.653 234.613
L359.57 234.515
L360.487 216.257
L361.404 236.109
L362.322 239.246
L363.239 220.243
L364.156 219.176
L365.073 240.73
L365.073 240.73" style="fill:none;stroke:#000000;stroke-linecap:square;"/>
   </g>
   <g id="line2d_15">
    <path clip-path="url(#p95a2ee5e18)" d="
M31.1906 229.346
L32.1079 222.551
L33.0251 195.882
L33.9424 173.001
L34.8597 155.333
L35.7769 174.262
L36.6942 219.141
L37.6114 234.967
L38.5287 179.861
L39.446 221.462
L40.3632 202.661
L41.2805 149.17
L43.115 198.518
L44.0323 180.074
L44.9495 193.501
L45.8668 188.442
L46.784 143.467
L47.7013 127.132
L48.6186 160.317
L49.5358 146.275
L50.4531 102.568
L51.3704 92.8469
L52.2876 183.829
L53.2049 225.963
L54.1221 228.981
L55.0394 221.593
L55.9567 234.014
M57.7912 244.227
L58.7084 227
L60.543 205.039
L61.4602 187.489
L62.3775 154.276
L63.2947 169.537
L64.212 175.248
L65.1293 161.539
L66.0465 198.753
L66.9638 168.765
L67.881 147.23
L68.7983 109.074
L69.7156 179.64
L70.6328 187.232
L71.5501 169.061
L72.4673 154.835
L73.3846 179.731
L74.3019 209.159
L75.2191 121.371
L76.1364 163.288
L77.0536 195.738
L77.9709 172.489
L78.8882 218.555
L79.8054 194.358
L80.7227 183.816
L81.6399 190.477
L82.5572 168.848
L83.4745 125.005
L84.3917 183.517
L85.309 203.535
L86.2262 174.744
L87.1435 156.953
L88.0608 72.4854
L88.978 102.473
L89.8953 172.888
L91.7298 112.849
L92.6471 110.075
L93.5643 79.4482
L94.4816 167.97
L95.3988 158.824
L96.3161 124.526
L97.2334 116.635
L98.1506 116.935
L99.0679 145.707
L99.9851 100.511
L100.902 113.137
L101.82 53.1265
L102.737 160.437
L103.654 129.46
L104.571 161.38
L105.489 97.3987
L106.406 65.1365
L107.323 69.1009
L108.24 177.691
L109.158 161.484
L110.075 112.575
L110.992 128.405
L111.91 111.407
L112.827 105.426
L113.744 135.035
L114.661 116.181
L115.579 100.871
L116.496 158.893
L117.413 177.344
L119.248 207.824
L120.165 124.212
L121.082 86.084
L121.999 146.31
L122.917 102.969
L123.834 74.8468
L124.751 151.676
L125.668 100.204
L126.586 151.087
L128.42 51.9723
L129.337 45.0397
L130.255 191.738
L131.172 159.831
L132.089 112.148
L133.007 94.1408
L133.924 63.1552
L134.841 56.037
L135.758 55.8964
L136.676 81.917
L137.593 95.9877
L138.51 73.0922
L139.427 110.29
L140.345 69.5247
L141.262 64.7707
L142.179 47.0944
L143.096 73.8623
L144.014 109.924
L144.931 93.7293
L145.848 120.282
L146.765 139.918
L147.683 144.01
L148.6 116.101
L149.517 105.863
L150.434 112.354
L151.352 112.684
L152.269 120.552
L153.186 110.224
L154.104 105.813
L155.021 140.107
L155.938 183.309
L156.855 121.059
L157.773 158.533
L158.69 101.918
L159.607 110.614
L160.524 99.2875
L161.442 39.1922
L162.359 58.7088
L163.276 87.426
L164.193 157.221
L165.111 170.398
L166.028 201.176
L166.945 187.667
L167.862 117.697
L168.78 101.372
L169.697 89.7392
L170.614 83.8703
L171.531 90.2033
L172.449 93.9039
L173.366 96.4951
L174.283 106.351
L175.2 109.121
L176.118 112.76
L177.035 106.583
L177.952 117.775
L178.87 112.901
L179.787 101.246
L180.704 118.214
L181.621 130.22
L182.539 72.7139
L183.456 105.987
L184.373 100.04
L185.29 108.338
L186.208 190.299
L187.125 147.946
L188.042 130.109
L188.959 116.088
L189.877 109.955
L190.794 194.254
L191.711 212.138
L192.628 161.928
L193.546 121.161
L194.463 123.918
L195.38 131.543
L196.297 130.349
L197.215 159.469
M296.279 102.004
L297.196 110.867
L298.113 108.925
L299.948 123.259
L300.865 113.376
L301.782 115.231
L302.7 112.104
L303.617 113.893
L304.534 113.2
L305.451 117.659
L306.369 188.35
L307.286 205.981
L308.203 187.026
L309.12 205.15
L310.038 176.484
L310.955 194.993
L311.872 196.73
L312.79 159.071
L313.707 189.165
L314.624 194.586
L315.541 176.889
L316.459 143.498
L317.376 128.293
L318.293 123.992
L319.21 130.721
L320.128 121.833
L321.045 157.226
L321.962 166.628
L322.879 182.12
L323.797 202.848
L324.714 158.82
L325.631 140.266
L326.548 193.828
L327.466 183.221
L328.383 124.891
L329.3 110.919
L330.217 123.193
L331.135 123.561
L332.052 125.117
L332.969 122.801
L333.887 124.239
L334.804 143.418
L335.721 144.288
L336.638 188.106
L337.556 208.968
L338.473 190.674
L339.39 153.014
L340.307 190.801
L341.225 176.238
L342.142 155.843
L343.059 214.049
L343.976 150.415
L344.894 99.2845
L345.811 148.004
L346.728 173.914
L347.645 149.442
L348.563 174.647
L349.48 185.131
L350.397 126.62
L351.314 126.552
L352.232 102.054
L353.149 158.132
L354.066 191.982
L354.984 162.199
L355.901 212.693
L356.818 216.215
L358.653 166.702
L359.57 127.276
L360.487 113.522
L361.404 109.395
L362.322 144.144
L363.239 133.557
L364.156 161.78
L365.073 180.963
L365.073 180.963" style="fill:none;stroke:#0000ff;stroke-linecap:square;"/>
   </g>
   <g id="line2d_16">
    <path clip-path="url(#p95a2ee5e18)" d="
M31.1906 228.628
L32.1079 214.6
L33.0251 209.976
L33.9424 215.017
L34.8597 200.738
L35.7769 193.345
L36.6942 209.007
M38.5287 219.724
L39.446 233.68
L40.3632 231.084
L41.2805 235.964
L42.1977 234.756
L43.115 222.838
L44.0323 203.88
L44.9495 205.22
L45.8668 203.798
L46.784 209.893
L47.7013 199.961
L48.6186 204.418
L49.5358 206.45
L50.4531 212.8
L51.3704 204.59
M58.7084 206.071
L59.6257 225.7
L60.543 207.224
M62.3775 234.284
L63.2947 235.953
M66.9638 228.745
L67.881 221.309
L68.7983 226.153
L69.7156 233.424
L70.6328 226.385
L71.5501 224.904
L72.4673 218.884
L73.3846 226.738
L74.3019 189.637
L75.2191 225.009
L77.0536 231.03
L77.9709 215.26
L78.8882 211.583
L79.8054 204.515
L80.7227 198.727
L81.6399 198.188
L82.5572 200.874
L83.4745 224.605
L84.3917 204.805
L85.309 228.18
L86.2262 221.387
L87.1435 227.059
L88.0608 180.956
L88.978 213.102
L90.8125 198.626
L91.7298 171.721
L92.6471 213.917
L93.5643 232.336
L94.4816 181.28
L95.3988 166.53
L96.3161 153.802
L97.2334 196.788
L98.1506 157.092
L99.0679 160.892
L99.9851 198.866
L100.902 194.461
L101.82 138.59
L102.737 136.965
L103.654 129.455
L104.571 128.157
L105.489 132.675
L106.406 147.419
L107.323 188.699
L108.24 184.768
M110.075 210.535
L110.992 218.525
L111.91 191.45
L112.827 169.243
L113.744 234.639
L114.661 214.92
L115.579 167.917
L116.496 177.644
L117.413 167.855
L118.33 163.261
L119.248 142.987
L120.165 155.195
L121.999 138.649
L122.917 137.931
L123.834 137.039
L124.751 124.722
L125.668 119.977
L126.586 137.43
L127.503 118.514
L128.42 147.275
L129.337 132.524
L130.255 138.879
L131.172 128.205
L132.089 146.868
L133.007 217.96
L133.924 159.986
L134.841 172.93
L135.758 214.413
L136.676 165.514
L137.593 151.459
L138.51 150.862
L139.427 111.399
L140.345 123.265
L141.262 132.187
L142.179 143.313
L143.096 151.162
L144.014 153.831
L144.931 170.376
L145.848 135.656
L146.765 129.286
L147.683 152.351
L148.6 148.202
L149.517 157.851
L150.434 115.382
L151.352 121.346
L152.269 115.866
L153.186 131.53
L154.104 144.352
L155.021 165.135
L155.938 129.757
L156.855 158.423
L157.773 126.749
L158.69 159.2
L159.607 173.419
L160.524 131.837
L161.442 143.726
L162.359 157.546
L163.276 157.207
L164.193 133.246
L165.111 133.482
L166.028 134.809
L166.945 117.32
L167.862 139.811
L168.78 134.174
L169.697 149.367
L171.531 131.938
L172.449 132.902
L173.366 130.809
L174.283 127.553
L175.2 143.36
L176.118 132.538
L177.035 140.871
L177.952 133.027
L178.87 129.519
L179.787 153.611
L180.704 167.107
L181.621 155.619
L183.456 162.758
L184.373 154.818
L185.29 187.499
L186.208 127.928
L187.125 140.21
L188.042 138.093
L188.959 137.795
L189.877 140.992
L190.794 153.654
L191.711 195.669
L192.628 169.97
L193.546 171.378
L194.463 139.032
L195.38 128.855
L196.297 133.216
L197.215 143.044
L198.132 172.742
L199.967 161.18
L200.884 152.759
L201.801 155.448
L202.718 155.15
L203.636 168.729
L204.553 185.692
L205.47 155.851
L206.387 160.361
L207.305 154.911
L208.222 161.822
L209.139 164.226
L210.056 157.993
L210.974 162.497
L211.891 180.143
L212.808 157.435
L213.725 163.24
L214.643 163.89
L215.56 188.183
L216.477 166.81
L217.394 157.614
L218.312 140.706
L219.229 142.472
L220.146 152.564
L221.064 160.604
L221.981 174.764
L222.898 171.64
L223.815 176.58
L224.733 162.945
L225.65 170.104
L227.484 174.86
L228.402 170.057
L229.319 178.978
L230.236 172.892
L231.153 164.606
L232.071 170.412
L232.988 171.893
L233.905 165.641
L234.822 179.375
L235.74 165.279
L236.657 196.006
L237.574 165.825
L238.491 158.418
L239.409 160.853
L240.326 161.559
L241.243 165.429
L242.16 181.941
L243.078 177.867
L243.995 167.412
L244.912 166.437
L245.83 170.955
L246.747 162.484
L247.664 184.172
L248.581 171.448
L249.499 163.591
L250.416 173.079
L251.333 171.383
L252.25 186.242
L253.168 166.694
L254.085 159.167
L255.002 162.144
L255.919 159.775
L256.837 157.081
L257.754 160.15
L258.671 167.731
L259.588 171.923
L260.506 171.128
L261.423 164.822
L262.34 164.905
L263.257 156.022
L264.175 155.097
L265.092 176.736
L266.009 176.005
L266.927 179.873
L267.844 185.291
L268.761 191.925
L269.678 194.938
L270.596 180.591
L271.513 180.244
L272.43 204.697
L273.347 186.945
L274.265 204.899
L275.182 184.81
L276.099 181.038
L277.016 181.502
L277.934 211.952
L278.851 218.07
L279.768 226.217
L280.685 187.883
L281.603 174.15
L282.52 165.811
L283.437 169.788
L286.189 183.675
L287.106 185.99
L288.024 184.115
L288.941 182.519
L289.858 186.059
L290.775 197.389
L291.693 201.616
L292.61 177.213
L294.444 216.591
L296.279 182.696
L297.196 188.267
L298.113 201.233
L299.031 192.298
L299.948 212.811
L300.865 196.255
L301.782 222.371
L302.7 200.883
L303.617 212.115
L304.534 206.548
L305.451 199.827
L306.369 182.116
L307.286 202.967
L308.203 196.867
L309.12 212.538
L310.038 233.202
M311.872 220.861
L312.79 223.735
L313.707 210.91
L314.624 206.354
L315.541 209.363
L316.459 203.296
L317.376 218.312
L318.293 219.584
L319.21 211.046
L320.128 177.029
L321.045 219.52
M322.879 244.049
L323.797 226.608
L324.714 222.952
L325.631 216.668
L326.548 212.316
L327.466 209.986
L328.383 216.533
L329.3 231.407
L330.217 222.54
L331.135 212.423
L332.052 231.143
L332.969 214.142
L333.887 216.671
L334.804 207.505
L335.721 226.058
L336.638 215.851
L337.556 229.519
L338.473 224.006
L339.39 216.807
L340.307 216.47
L341.225 215.195
L342.142 228.207
L343.059 216.123
L343.976 232.164
L344.894 220.617
L345.811 218.002
L346.728 216.026
L347.645 235.966
L348.563 239.665
L349.48 212.344
L350.397 216.245
L351.314 230.965
L352.232 225.055
L353.149 233.393
L354.066 238.695
L354.984 240.44
L355.901 240.078
M357.735 227.174
L358.653 239.35
M361.404 237.288" style="fill:none;stroke:#008000;stroke-linecap:square;"/>
   </g>
   <g id="patch_3">
    <path d="
M31.1906 21.3181
L365.991 21.3181" style="fill:none;stroke:#000000;stroke-linecap:square;stroke-linejoin:miter;"/>
   </g>
   <g id="patch_4">
    <path d="
M365.991 244.518
L365.991 21.3181" style="fill:none;stroke:#000000;stroke-linecap:square;stroke-linejoin:miter;"/>
   </g>
   <g id="patch_5">
    <path d="
M31.1906 244.518
L365.991 244.518" style="fill:none;stroke:#000000;stroke-linecap:square;stroke-linejoin:miter;"/>
   </g>
   <g id="patch_6">
    <path d="
M31.1906 244.518
L31.1906 21.3181" style="fill:none;stroke:#000000;stroke-linecap:square;stroke-linejoin:miter;"/>
   </g>
   <g id="matplotlib.axis_1">
    <g id="xtick_1">
     <g id="line2d_17">
      <defs>
       <path d="
M0 0
L0 -4" id="mc7db9fdffb" style="stroke:#000000;stroke-width:0.5;"/>
      </defs>
      <g>
       <use style="stroke:#000000;stroke-width:0.5;" x="31.190625" xlink:href="#mc7db9fdffb" y="244.518125"/>
      </g>
     </g>
     <g id="line2d_18">
      <defs>
       <path d="
M0 0
L0 4" id="m5a7d422ac3" style="stroke:#000000;stroke-width:0.5;"/>
      </defs>
      <g>
       <use style="stroke:#000000;stroke-width:0.5;" x="31.190625" xlink:href="#m5a7d422ac3" y="21.318125"/>
      </g>
     </g>
     <g id="text_1">
      <!-- 0 -->
      <defs>
       <path d="
M31.7812 66.4062
Q24.1719 66.4062 20.3281 58.9062
Q16.5 51.4219 16.5 36.375
Q16.5 21.3906 20.3281 13.8906
Q24.1719 6.39062 31.7812 6.39062
Q39.4531 6.39062 43.2812 13.8906
Q47.125 21.3906 47.125 36.375
Q47.125 51.4219 43.2812 58.9062
Q39.4531 66.4062 31.7812 66.4062
M31.7812 74.2188
Q44.0469 74.2188 50.5156 64.5156
Q56.9844 54.8281 56.9844 36.375
Q56.9844 17.9688 50.5156 8.26562
Q44.0469 -1.42188 31.7812 -1.42188
Q19.5312 -1.42188 13.0625 8.26562
Q6.59375 17.9688 6.59375 36.375
Q6.59375 54.8281 13.0625 64.5156
Q19.5312 74.2188 31.7812 74.2188" id="BitstreamVeraSans-Roman-30"/>
      </defs>
      <g transform="translate(28.67109375 256.1165625)scale(0.1 -0.1)">
       <use xlink:href="#BitstreamVeraSans-Roman-30"/>
      </g>
     </g>
    </g>
    <g id="xtick_2">
     <g id="line2d_19">
      <g>
       <use style="stroke:#000000;stroke-width:0.5;" x="77.0536386986" xlink:href="#mc7db9fdffb" y="244.518125"/>
      </g>
     </g>
     <g id="line2d_20">
      <g>
       <use style="stroke:#000000;stroke-width:0.5;" x="77.0536386986" xlink:href="#m5a7d422ac3" y="21.318125"/>
      </g>
     </g>
     <g id="text_2">
      <!-- 50 -->
      <defs>
       <path d="
M10.7969 72.9062
L49.5156 72.9062
L49.5156 64.5938
L19.8281 64.5938
L19.8281 46.7344
Q21.9688 47.4688 24.1094 47.8281
Q26.2656 48.1875 28.4219 48.1875
Q40.625 48.1875 47.75 41.5
Q54.8906 34.8125 54.8906 23.3906
Q54.8906 11.625 47.5625 5.09375
Q40.2344 -1.42188 26.9062 -1.42188
Q22.3125 -1.42188 17.5469 -0.640625
Q12.7969 0.140625 7.71875 1.70312
L7.71875 11.625
Q12.1094 9.23438 16.7969 8.0625
Q21.4844 6.89062 26.7031 6.89062
Q35.1562 6.89062 40.0781 11.3281
Q45.0156 15.7656 45.0156 23.3906
Q45.0156 31 40.0781 35.4375
Q35.1562 39.8906 26.7031 39.8906
Q22.75 39.8906 18.8125 39.0156
Q14.8906 38.1406 10.7969 36.2812
z
" id="BitstreamVeraSans-Roman-35"/>
      </defs>
      <g transform="translate(71.4091074486 256.1165625)scale(0.1 -0.1)">
       <use xlink:href="#BitstreamVeraSans-Roman-35"/>
       <use x="63.623046875" xlink:href="#BitstreamVeraSans-Roman-30"/>
      </g>
     </g>
    </g>
    <g id="xtick_3">
     <g id="line2d_21">
      <g>
       <use style="stroke:#000000;stroke-width:0.5;" x="122.916652397" xlink:href="#mc7db9fdffb" y="244.518125"/>
      </g>
     </g>
     <g id="line2d_22">
      <g>
       <use style="stroke:#000000;stroke-width:0.5;" x="122.916652397" xlink:href="#m5a7d422ac3" y="21.318125"/>
      </g>
     </g>
     <g id="text_3">
      <!-- 100 -->
      <defs>
       <path d="
M12.4062 8.29688
L28.5156 8.29688
L28.5156 63.9219
L10.9844 60.4062
L10.9844 69.3906
L28.4219 72.9062
L38.2812 72.9062
L38.2812 8.29688
L54.3906 8.29688
L54.3906 0
L12.4062 0
z
" id="BitstreamVeraSans-Roman-31"/>
      </defs>
      <g transform="translate(114.254152397 256.1165625)scale(0.1 -0.1)">
       <use xlink:href="#BitstreamVeraSans-Roman-31"/>
       <use x="63.623046875" xlink:href="#BitstreamVeraSans-Roman-30"/>
       <use x="127.24609375" xlink:href="#BitstreamVeraSans-Roman-30"/>
      </g>
     </g>
    </g>
    <g id="xtick_4">
     <g id="line2d_23">
      <g>
       <use style="stroke:#000000;stroke-width:0.5;" x="168.779666096" xlink:href="#mc7db9fdffb" y="244.518125"/>
      </g>
     </g>
     <g id="line2d_24">
      <g>
       <use style="stroke:#000000;stroke-width:0.5;" x="168.779666096" xlink:href="#m5a7d422ac3" y="21.318125"/>
      </g>
     </g>
     <g id="text_4">
      <!-- 150 -->
      <g transform="translate(160.117166096 256.1165625)scale(0.1 -0.1)">
       <use xlink:href="#BitstreamVeraSans-Roman-31"/>
       <use x="63.623046875" xlink:href="#BitstreamVeraSans-Roman-35"/>
       <use x="127.24609375" xlink:href="#BitstreamVeraSans-Roman-30"/>
      </g>
     </g>
    </g>
    <g id="xtick_5">
     <g id="line2d_25">
      <g>
       <use style="stroke:#000000;stroke-width:0.5;" x="214.642679795" xlink:href="#mc7db9fdffb" y="244.518125"/>
      </g>
     </g>
     <g id="line2d_26">
      <g>
       <use style="stroke:#000000;stroke-width:0.5;" x="214.642679795" xlink:href="#m5a7d422ac3" y="21.318125"/>
      </g>
     </g>
     <g id="text_5">
      <!-- 200 -->
      <defs>
       <path d="
M19.1875 8.29688
L53.6094 8.29688
L53.6094 0
L7.32812 0
L7.32812 8.29688
Q12.9375 14.1094 22.625 23.8906
Q32.3281 33.6875 34.8125 36.5312
Q39.5469 41.8438 41.4219 45.5312
Q43.3125 49.2188 43.3125 52.7812
Q43.3125 58.5938 39.2344 62.25
Q35.1562 65.9219 28.6094 65.9219
Q23.9688 65.9219 18.8125 64.3125
Q13.6719 62.7031 7.8125 59.4219
L7.8125 69.3906
Q13.7656 71.7812 18.9375 73
Q24.125 74.2188 28.4219 74.2188
Q39.75 74.2188 46.4844 68.5469
Q53.2188 62.8906 53.2188 53.4219
Q53.2188 48.9219 51.5312 44.8906
Q49.8594 40.875 45.4062 35.4062
Q44.1875 33.9844 37.6406 27.2188
Q31.1094 20.4531 19.1875 8.29688" id="BitstreamVeraSans-Roman-32"/>
      </defs>
      <g transform="translate(205.797367295 256.1165625)scale(0.1 -0.1)">
       <use xlink:href="#BitstreamVeraSans-Roman-32"/>
       <use x="63.623046875" xlink:href="#BitstreamVeraSans-Roman-30"/>
       <use x="127.24609375" xlink:href="#BitstreamVeraSans-Roman-30"/>
      </g>
     </g>
    </g>
    <g id="xtick_6">
     <g id="line2d_27">
      <g>
       <use style="stroke:#000000;stroke-width:0.5;" x="260.505693493" xlink:href="#mc7db9fdffb" y="244.518125"/>
      </g>
     </g>
     <g id="line2d_28">
      <g>
       <use style="stroke:#000000;stroke-width:0.5;" x="260.505693493" xlink:href="#m5a7d422ac3" y="21.318125"/>
      </g>
     </g>
     <g id="text_6">
      <!-- 250 -->
      <g transform="translate(251.660380993 256.1165625)scale(0.1 -0.1)">
       <use xlink:href="#BitstreamVeraSans-Roman-32"/>
       <use x="63.623046875" xlink:href="#BitstreamVeraSans-Roman-35"/>
       <use x="127.24609375" xlink:href="#BitstreamVeraSans-Roman-30"/>
      </g>
     </g>
    </g>
    <g id="xtick_7">
     <g id="line2d_29">
      <g>
       <use style="stroke:#000000;stroke-width:0.5;" x="306.368707192" xlink:href="#mc7db9fdffb" y="244.518125"/>
      </g>
     </g>
     <g id="line2d_30">
      <g>
       <use style="stroke:#000000;stroke-width:0.5;" x="306.368707192" xlink:href="#m5a7d422ac3" y="21.318125"/>
      </g>
     </g>
     <g id="text_7">
      <!-- 300 -->
      <defs>
       <path d="
M40.5781 39.3125
Q47.6562 37.7969 51.625 33
Q55.6094 28.2188 55.6094 21.1875
Q55.6094 10.4062 48.1875 4.48438
Q40.7656 -1.42188 27.0938 -1.42188
Q22.5156 -1.42188 17.6562 -0.515625
Q12.7969 0.390625 7.625 2.20312
L7.625 11.7188
Q11.7188 9.32812 16.5938 8.10938
Q21.4844 6.89062 26.8125 6.89062
Q36.0781 6.89062 40.9375 10.5469
Q45.7969 14.2031 45.7969 21.1875
Q45.7969 27.6406 41.2812 31.2656
Q36.7656 34.9062 28.7188 34.9062
L20.2188 34.9062
L20.2188 43.0156
L29.1094 43.0156
Q36.375 43.0156 40.2344 45.9219
Q44.0938 48.8281 44.0938 54.2969
Q44.0938 59.9062 40.1094 62.9062
Q36.1406 65.9219 28.7188 65.9219
Q24.6562 65.9219 20.0156 65.0312
Q15.375 64.1562 9.8125 62.3125
L9.8125 71.0938
Q15.4375 72.6562 20.3438 73.4375
Q25.25 74.2188 29.5938 74.2188
Q40.8281 74.2188 47.3594 69.1094
Q53.9062 64.0156 53.9062 55.3281
Q53.9062 49.2656 50.4375 45.0938
Q46.9688 40.9219 40.5781 39.3125" id="BitstreamVeraSans-Roman-33"/>
      </defs>
      <g transform="translate(297.538238442 256.1165625)scale(0.1 -0.1)">
       <use xlink:href="#BitstreamVeraSans-Roman-33"/>
       <use x="63.623046875" xlink:href="#BitstreamVeraSans-Roman-30"/>
       <use x="127.24609375" xlink:href="#BitstreamVeraSans-Roman-30"/>
      </g>
     </g>
    </g>
    <g id="xtick_8">
     <g id="line2d_31">
      <g>
       <use style="stroke:#000000;stroke-width:0.5;" x="352.23172089" xlink:href="#mc7db9fdffb" y="244.518125"/>
      </g>
     </g>
     <g id="line2d_32">
      <g>
       <use style="stroke:#000000;stroke-width:0.5;" x="352.23172089" xlink:href="#m5a7d422ac3" y="21.318125"/>
      </g>
     </g>
     <g id="text_8">
      <!-- 350 -->
      <g transform="translate(343.40125214 256.1165625)scale(0.1 -0.1)">
       <use xlink:href="#BitstreamVeraSans-Roman-33"/>
       <use x="63.623046875" xlink:href="#BitstreamVeraSans-Roman-35"/>
       <use x="127.24609375" xlink:href="#BitstreamVeraSans-Roman-30"/>
      </g>
     </g>
    </g>
    <g id="text_9">
     <!-- Julian day -->
     <defs>
      <path d="
M32.1719 -5.07812
Q28.375 -14.8438 24.75 -17.8125
Q21.1406 -20.7969 15.0938 -20.7969
L7.90625 -20.7969
L7.90625 -13.2812
L13.1875 -13.2812
Q16.8906 -13.2812 18.9375 -11.5156
Q21 -9.76562 23.4844 -3.21875
L25.0938 0.875
L2.98438 54.6875
L12.5 54.6875
L29.5938 11.9219
L46.6875 54.6875
L56.2031 54.6875
z
" id="BitstreamVeraSans-Roman-79"/>
      <path d="
M8.5 21.5781
L8.5 54.6875
L17.4844 54.6875
L17.4844 21.9219
Q17.4844 14.1562 20.5 10.2656
Q23.5312 6.39062 29.5938 6.39062
Q36.8594 6.39062 41.0781 11.0312
Q45.3125 15.6719 45.3125 23.6875
L45.3125 54.6875
L54.2969 54.6875
L54.2969 0
L45.3125 0
L45.3125 8.40625
Q42.0469 3.42188 37.7188 1
Q33.4062 -1.42188 27.6875 -1.42188
Q18.2656 -1.42188 13.375 4.4375
Q8.5 10.2969 8.5 21.5781" id="BitstreamVeraSans-Roman-75"/>
      <path d="
M9.42188 75.9844
L18.4062 75.9844
L18.4062 0
L9.42188 0
z
" id="BitstreamVeraSans-Roman-6c"/>
      <path id="BitstreamVeraSans-Roman-20"/>
      <path d="
M54.8906 33.0156
L54.8906 0
L45.9062 0
L45.9062 32.7188
Q45.9062 40.4844 42.875 44.3281
Q39.8438 48.1875 33.7969 48.1875
Q26.5156 48.1875 22.3125 43.5469
Q18.1094 38.9219 18.1094 30.9062
L18.1094 0
L9.07812 0
L9.07812 54.6875
L18.1094 54.6875
L18.1094 46.1875
Q21.3438 51.125 25.7031 53.5625
Q30.0781 56 35.7969 56
Q45.2188 56 50.0469 50.1719
Q54.8906 44.3438 54.8906 33.0156" id="BitstreamVeraSans-Roman-6e"/>
      <path d="
M9.42188 54.6875
L18.4062 54.6875
L18.4062 0
L9.42188 0
z

M9.42188 75.9844
L18.4062 75.9844
L18.4062 64.5938
L9.42188 64.5938
z
" id="BitstreamVeraSans-Roman-69"/>
      <path d="
M34.2812 27.4844
Q23.3906 27.4844 19.1875 25
Q14.9844 22.5156 14.9844 16.5
Q14.9844 11.7188 18.1406 8.90625
Q21.2969 6.10938 26.7031 6.10938
Q34.1875 6.10938 38.7031 11.4062
Q43.2188 16.7031 43.2188 25.4844
L43.2188 27.4844
z

M52.2031 31.2031
L52.2031 0
L43.2188 0
L43.2188 8.29688
Q40.1406 3.32812 35.5469 0.953125
Q30.9531 -1.42188 24.3125 -1.42188
Q15.9219 -1.42188 10.9531 3.29688
Q6 8.01562 6 15.9219
Q6 25.1406 12.1719 29.8281
Q18.3594 34.5156 30.6094 34.5156
L43.2188 34.5156
L43.2188 35.4062
Q43.2188 41.6094 39.1406 45
Q35.0625 48.3906 27.6875 48.3906
Q23 48.3906 18.5469 47.2656
Q14.1094 46.1406 10.0156 43.8906
L10.0156 52.2031
Q14.9375 54.1094 19.5781 55.0469
Q24.2188 56 28.6094 56
Q40.4844 56 46.3438 49.8438
Q52.2031 43.7031 52.2031 31.2031" id="BitstreamVeraSans-Roman-61"/>
      <path d="
M45.4062 46.3906
L45.4062 75.9844
L54.3906 75.9844
L54.3906 0
L45.4062 0
L45.4062 8.20312
Q42.5781 3.32812 38.25 0.953125
Q33.9375 -1.42188 27.875 -1.42188
Q17.9688 -1.42188 11.7344 6.48438
Q5.51562 14.4062 5.51562 27.2969
Q5.51562 40.1875 11.7344 48.0938
Q17.9688 56 27.875 56
Q33.9375 56 38.25 53.625
Q42.5781 51.2656 45.4062 46.3906
M14.7969 27.2969
Q14.7969 17.3906 18.875 11.75
Q22.9531 6.10938 30.0781 6.10938
Q37.2031 6.10938 41.2969 11.75
Q45.4062 17.3906 45.4062 27.2969
Q45.4062 37.2031 41.2969 42.8438
Q37.2031 48.4844 30.0781 48.4844
Q22.9531 48.4844 18.875 42.8438
Q14.7969 37.2031 14.7969 27.2969" id="BitstreamVeraSans-Roman-64"/>
      <path d="
M9.8125 72.9062
L19.6719 72.9062
L19.6719 5.07812
Q19.6719 -8.10938 14.6719 -14.0625
Q9.67188 -20.0156 -1.42188 -20.0156
L-5.17188 -20.0156
L-5.17188 -11.7188
L-2.09375 -11.7188
Q4.4375 -11.7188 7.125 -8.04688
Q9.8125 -4.39062 9.8125 5.07812
z
" id="BitstreamVeraSans-Roman-4a"/>
     </defs>
     <g transform="translate(174.03984375 270.7946875)scale(0.1 -0.1)">
      <use xlink:href="#BitstreamVeraSans-Roman-4a"/>
      <use x="29.4921875" xlink:href="#BitstreamVeraSans-Roman-75"/>
      <use x="92.87109375" xlink:href="#BitstreamVeraSans-Roman-6c"/>
      <use x="120.654296875" xlink:href="#BitstreamVeraSans-Roman-69"/>
      <use x="148.4375" xlink:href="#BitstreamVeraSans-Roman-61"/>
      <use x="209.716796875" xlink:href="#BitstreamVeraSans-Roman-6e"/>
      <use x="273.095703125" xlink:href="#BitstreamVeraSans-Roman-20"/>
      <use x="304.8828125" xlink:href="#BitstreamVeraSans-Roman-64"/>
      <use x="368.359375" xlink:href="#BitstreamVeraSans-Roman-61"/>
      <use x="429.638671875" xlink:href="#BitstreamVeraSans-Roman-79"/>
     </g>
    </g>
   </g>
   <g id="matplotlib.axis_2">
    <g id="ytick_1">
     <g id="line2d_33">
      <defs>
       <path d="
M0 0
L4 0" id="md7965d1ba0" style="stroke:#000000;stroke-width:0.5;"/>
      </defs>
      <g>
       <use style="stroke:#000000;stroke-width:0.5;" x="31.190625" xlink:href="#md7965d1ba0" y="244.518125"/>
      </g>
     </g>
     <g id="line2d_34">
      <defs>
       <path d="
M0 0
L-4 0" id="md9a1c1a7cd" style="stroke:#000000;stroke-width:0.5;"/>
      </defs>
      <g>
       <use style="stroke:#000000;stroke-width:0.5;" x="365.990625" xlink:href="#md9a1c1a7cd" y="244.518125"/>
      </g>
     </g>
     <g id="text_10">
      <!-- 0 -->
      <g transform="translate(22.1515625 247.2775)scale(0.1 -0.1)">
       <use xlink:href="#BitstreamVeraSans-Roman-30"/>
      </g>
     </g>
    </g>
    <g id="ytick_2">
     <g id="line2d_35">
      <g>
       <use style="stroke:#000000;stroke-width:0.5;" x="31.190625" xlink:href="#md7965d1ba0" y="199.878125"/>
      </g>
     </g>
     <g id="line2d_36">
      <g>
       <use style="stroke:#000000;stroke-width:0.5;" x="365.990625" xlink:href="#md9a1c1a7cd" y="199.878125"/>
      </g>
     </g>
     <g id="text_11">
      <!-- 1 -->
      <g transform="translate(22.85 202.6375)scale(0.1 -0.1)">
       <use xlink:href="#BitstreamVeraSans-Roman-31"/>
      </g>
     </g>
    </g>
    <g id="ytick_3">
     <g id="line2d_37">
      <g>
       <use style="stroke:#000000;stroke-width:0.5;" x="31.190625" xlink:href="#md7965d1ba0" y="155.238125"/>
      </g>
     </g>
     <g id="line2d_38">
      <g>
       <use style="stroke:#000000;stroke-width:0.5;" x="365.990625" xlink:href="#md9a1c1a7cd" y="155.238125"/>
      </g>
     </g>
     <g id="text_12">
      <!-- 2 -->
      <g transform="translate(22.5625 157.9975)scale(0.1 -0.1)">
       <use xlink:href="#BitstreamVeraSans-Roman-32"/>
      </g>
     </g>
    </g>
    <g id="ytick_4">
     <g id="line2d_39">
      <g>
       <use style="stroke:#000000;stroke-width:0.5;" x="31.190625" xlink:href="#md7965d1ba0" y="110.598125"/>
      </g>
     </g>
     <g id="line2d_40">
      <g>
       <use style="stroke:#000000;stroke-width:0.5;" x="365.990625" xlink:href="#md9a1c1a7cd" y="110.598125"/>
      </g>
     </g>
     <g id="text_13">
      <!-- 3 -->
      <g transform="translate(22.3921875 113.3575)scale(0.1 -0.1)">
       <use xlink:href="#BitstreamVeraSans-Roman-33"/>
      </g>
     </g>
    </g>
    <g id="ytick_5">
     <g id="line2d_41">
      <g>
       <use style="stroke:#000000;stroke-width:0.5;" x="31.190625" xlink:href="#md7965d1ba0" y="65.958125"/>
      </g>
     </g>
     <g id="line2d_42">
      <g>
       <use style="stroke:#000000;stroke-width:0.5;" x="365.990625" xlink:href="#md9a1c1a7cd" y="65.958125"/>
      </g>
     </g>
     <g id="text_14">
      <!-- 4 -->
      <defs>
       <path d="
M37.7969 64.3125
L12.8906 25.3906
L37.7969 25.3906
z

M35.2031 72.9062
L47.6094 72.9062
L47.6094 25.3906
L58.0156 25.3906
L58.0156 17.1875
L47.6094 17.1875
L47.6094 0
L37.7969 0
L37.7969 17.1875
L4.89062 17.1875
L4.89062 26.7031
z
" id="BitstreamVeraSans-Roman-34"/>
      </defs>
      <g transform="translate(21.878125 68.7175)scale(0.1 -0.1)">
       <use xlink:href="#BitstreamVeraSans-Roman-34"/>
      </g>
     </g>
    </g>
    <g id="ytick_6">
     <g id="line2d_43">
      <g>
       <use style="stroke:#000000;stroke-width:0.5;" x="31.190625" xlink:href="#md7965d1ba0" y="21.318125"/>
      </g>
     </g>
     <g id="line2d_44">
      <g>
       <use style="stroke:#000000;stroke-width:0.5;" x="365.990625" xlink:href="#md9a1c1a7cd" y="21.318125"/>
      </g>
     </g>
     <g id="text_15">
      <!-- 5 -->
      <g transform="translate(22.4734375 24.0775)scale(0.1 -0.1)">
       <use xlink:href="#BitstreamVeraSans-Roman-35"/>
      </g>
     </g>
    </g>
    <g id="text_16">
     <!-- PET (mm/day) -->
     <defs>
      <path d="
M8.01562 75.875
L15.8281 75.875
Q23.1406 64.3594 26.7812 53.3125
Q30.4219 42.2812 30.4219 31.3906
Q30.4219 20.4531 26.7812 9.375
Q23.1406 -1.70312 15.8281 -13.1875
L8.01562 -13.1875
Q14.5 -2 17.7031 9.0625
Q20.9062 20.125 20.9062 31.3906
Q20.9062 42.6719 17.7031 53.6562
Q14.5 64.6562 8.01562 75.875" id="BitstreamVeraSans-Roman-29"/>
      <path d="
M52 44.1875
Q55.375 50.25 60.0625 53.125
Q64.75 56 71.0938 56
Q79.6406 56 84.2812 50.0156
Q88.9219 44.0469 88.9219 33.0156
L88.9219 0
L79.8906 0
L79.8906 32.7188
Q79.8906 40.5781 77.0938 44.375
Q74.3125 48.1875 68.6094 48.1875
Q61.625 48.1875 57.5625 43.5469
Q53.5156 38.9219 53.5156 30.9062
L53.5156 0
L44.4844 0
L44.4844 32.7188
Q44.4844 40.625 41.7031 44.4062
Q38.9219 48.1875 33.1094 48.1875
Q26.2188 48.1875 22.1562 43.5312
Q18.1094 38.875 18.1094 30.9062
L18.1094 0
L9.07812 0
L9.07812 54.6875
L18.1094 54.6875
L18.1094 46.1875
Q21.1875 51.2188 25.4844 53.6094
Q29.7812 56 35.6875 56
Q41.6562 56 45.8281 52.9688
Q50 49.9531 52 44.1875" id="BitstreamVeraSans-Roman-6d"/>
      <path d="
M-0.296875 72.9062
L61.375 72.9062
L61.375 64.5938
L35.5 64.5938
L35.5 0
L25.5938 0
L25.5938 64.5938
L-0.296875 64.5938
z
" id="BitstreamVeraSans-Roman-54"/>
      <path d="
M19.6719 64.7969
L19.6719 37.4062
L32.0781 37.4062
Q38.9688 37.4062 42.7188 40.9688
Q46.4844 44.5312 46.4844 51.125
Q46.4844 57.6719 42.7188 61.2344
Q38.9688 64.7969 32.0781 64.7969
z

M9.8125 72.9062
L32.0781 72.9062
Q44.3438 72.9062 50.6094 67.3594
Q56.8906 61.8125 56.8906 51.125
Q56.8906 40.3281 50.6094 34.8125
Q44.3438 29.2969 32.0781 29.2969
L19.6719 29.2969
L19.6719 0
L9.8125 0
z
" id="BitstreamVeraSans-Roman-50"/>
      <path d="
M9.8125 72.9062
L55.9062 72.9062
L55.9062 64.5938
L19.6719 64.5938
L19.6719 43.0156
L54.3906 43.0156
L54.3906 34.7188
L19.6719 34.7188
L19.6719 8.29688
L56.7812 8.29688
L56.7812 0
L9.8125 0
z
" id="BitstreamVeraSans-Roman-45"/>
      <path d="
M31 75.875
Q24.4688 64.6562 21.2812 53.6562
Q18.1094 42.6719 18.1094 31.3906
Q18.1094 20.125 21.3125 9.0625
Q24.5156 -2 31 -13.1875
L23.1875 -13.1875
Q15.875 -1.70312 12.2344 9.375
Q8.59375 20.4531 8.59375 31.3906
Q8.59375 42.2812 12.2031 53.3125
Q15.8281 64.3594 23.1875 75.875
z
" id="BitstreamVeraSans-Roman-28"/>
      <path d="
M25.3906 72.9062
L33.6875 72.9062
L8.29688 -9.28125
L0 -9.28125
z
" id="BitstreamVeraSans-Roman-2f"/>
     </defs>
     <g transform="translate(14.7984375 167.82984375)rotate(-90.0)scale(0.1 -0.1)">
      <use xlink:href="#BitstreamVeraSans-Roman-50"/>
      <use x="60.302734375" xlink:href="#BitstreamVeraSans-Roman-45"/>
      <use x="123.486328125" xlink:href="#BitstreamVeraSans-Roman-54"/>
      <use x="184.5703125" xlink:href="#BitstreamVeraSans-Roman-20"/>
      <use x="216.357421875" xlink:href="#BitstreamVeraSans-Roman-28"/>
      <use x="255.37109375" xlink:href="#BitstreamVeraSans-Roman-6d"/>
      <use x="352.783203125" xlink:href="#BitstreamVeraSans-Roman-6d"/>
      <use x="450.1953125" xlink:href="#BitstreamVeraSans-Roman-2f"/>
      <use x="483.88671875" xlink:href="#BitstreamVeraSans-Roman-64"/>
      <use x="547.36328125" xlink:href="#BitstreamVeraSans-Roman-61"/>
      <use x="608.642578125" xlink:href="#BitstreamVeraSans-Roman-79"/>
      <use x="667.822265625" xlink:href="#BitstreamVeraSans-Roman-29"/>
     </g>
    </g>
   </g>
   <g id="text_17">
    <!-- daily grass PET at Treeline -->
    <defs>
     <path d="
M56.2031 29.5938
L56.2031 25.2031
L14.8906 25.2031
Q15.4844 15.9219 20.4844 11.0625
Q25.4844 6.20312 34.4219 6.20312
Q39.5938 6.20312 44.4531 7.46875
Q49.3125 8.73438 54.1094 11.2812
L54.1094 2.78125
Q49.2656 0.734375 44.1875 -0.34375
Q39.1094 -1.42188 33.8906 -1.42188
Q20.7969 -1.42188 13.1562 6.1875
Q5.51562 13.8125 5.51562 26.8125
Q5.51562 40.2344 12.7656 48.1094
Q20.0156 56 32.3281 56
Q43.3594 56 49.7812 48.8906
Q56.2031 41.7969 56.2031 29.5938
M47.2188 32.2344
Q47.125 39.5938 43.0938 43.9844
Q39.0625 48.3906 32.4219 48.3906
Q24.9062 48.3906 20.3906 44.1406
Q15.875 39.8906 15.1875 32.1719
z
" id="BitstreamVeraSans-Roman-65"/>
     <path d="
M18.3125 70.2188
L18.3125 54.6875
L36.8125 54.6875
L36.8125 47.7031
L18.3125 47.7031
L18.3125 18.0156
Q18.3125 11.3281 20.1406 9.42188
Q21.9688 7.51562 27.5938 7.51562
L36.8125 7.51562
L36.8125 0
L27.5938 0
Q17.1875 0 13.2344 3.875
Q9.28125 7.76562 9.28125 18.0156
L9.28125 47.7031
L2.6875 47.7031
L2.6875 54.6875
L9.28125 54.6875
L9.28125 70.2188
z
" id="BitstreamVeraSans-Roman-74"/>
     <path d="
M44.2812 53.0781
L44.2812 44.5781
Q40.4844 46.5312 36.375 47.5
Q32.2812 48.4844 27.875 48.4844
Q21.1875 48.4844 17.8438 46.4375
Q14.5 44.3906 14.5 40.2812
Q14.5 37.1562 16.8906 35.375
Q19.2812 33.5938 26.5156 31.9844
L29.5938 31.2969
Q39.1562 29.25 43.1875 25.5156
Q47.2188 21.7812 47.2188 15.0938
Q47.2188 7.46875 41.1875 3.01562
Q35.1562 -1.42188 24.6094 -1.42188
Q20.2188 -1.42188 15.4531 -0.5625
Q10.6875 0.296875 5.42188 2
L5.42188 11.2812
Q10.4062 8.6875 15.2344 7.39062
Q20.0625 6.10938 24.8125 6.10938
Q31.1562 6.10938 34.5625 8.28125
Q37.9844 10.4531 37.9844 14.4062
Q37.9844 18.0625 35.5156 20.0156
Q33.0625 21.9688 24.7031 23.7812
L21.5781 24.5156
Q13.2344 26.2656 9.51562 29.9062
Q5.8125 33.5469 5.8125 39.8906
Q5.8125 47.6094 11.2812 51.7969
Q16.75 56 26.8125 56
Q31.7812 56 36.1719 55.2656
Q40.5781 54.5469 44.2812 53.0781" id="BitstreamVeraSans-Roman-73"/>
     <path d="
M41.1094 46.2969
Q39.5938 47.1719 37.8125 47.5781
Q36.0312 48 33.8906 48
Q26.2656 48 22.1875 43.0469
Q18.1094 38.0938 18.1094 28.8125
L18.1094 0
L9.07812 0
L9.07812 54.6875
L18.1094 54.6875
L18.1094 46.1875
Q20.9531 51.1719 25.4844 53.5781
Q30.0312 56 36.5312 56
Q37.4531 56 38.5781 55.875
Q39.7031 55.7656 41.0625 55.5156
z
" id="BitstreamVeraSans-Roman-72"/>
     <path d="
M45.4062 27.9844
Q45.4062 37.75 41.375 43.1094
Q37.3594 48.4844 30.0781 48.4844
Q22.8594 48.4844 18.8281 43.1094
Q14.7969 37.75 14.7969 27.9844
Q14.7969 18.2656 18.8281 12.8906
Q22.8594 7.51562 30.0781 7.51562
Q37.3594 7.51562 41.375 12.8906
Q45.4062 18.2656 45.4062 27.9844
M54.3906 6.78125
Q54.3906 -7.17188 48.1875 -13.9844
Q42 -20.7969 29.2031 -20.7969
Q24.4688 -20.7969 20.2656 -20.0938
Q16.0625 -19.3906 12.1094 -17.9219
L12.1094 -9.1875
Q16.0625 -11.3281 19.9219 -12.3438
Q23.7812 -13.375 27.7812 -13.375
Q36.625 -13.375 41.0156 -8.76562
Q45.4062 -4.15625 45.4062 5.17188
L45.4062 9.625
Q42.625 4.78125 38.2812 2.39062
Q33.9375 0 27.875 0
Q17.8281 0 11.6719 7.65625
Q5.51562 15.3281 5.51562 27.9844
Q5.51562 40.6719 11.6719 48.3281
Q17.8281 56 27.875 56
Q33.9375 56 38.2812 53.6094
Q42.625 51.2188 45.4062 46.3906
L45.4062 54.6875
L54.3906 54.6875
z
" id="BitstreamVeraSans-Roman-67"/>
    </defs>
    <g transform="translate(120.2821875 16.318125)scale(0.12 -0.12)">
     <use xlink:href="#BitstreamVeraSans-Roman-64"/>
     <use x="63.4765625" xlink:href="#BitstreamVeraSans-Roman-61"/>
     <use x="124.755859375" xlink:href="#BitstreamVeraSans-Roman-69"/>
     <use x="152.5390625" xlink:href="#BitstreamVeraSans-Roman-6c"/>
     <use x="180.322265625" xlink:href="#BitstreamVeraSans-Roman-79"/>
     <use x="239.501953125" xlink:href="#BitstreamVeraSans-Roman-20"/>
     <use x="271.2890625" xlink:href="#BitstreamVeraSans-Roman-67"/>
     <use x="334.765625" xlink:href="#BitstreamVeraSans-Roman-72"/>
     <use x="375.87890625" xlink:href="#BitstreamVeraSans-Roman-61"/>
     <use x="437.158203125" xlink:href="#BitstreamVeraSans-Roman-73"/>
     <use x="489.2578125" xlink:href="#BitstreamVeraSans-Roman-73"/>
     <use x="541.357421875" xlink:href="#BitstreamVeraSans-Roman-20"/>
     <use x="573.14453125" xlink:href="#BitstreamVeraSans-Roman-50"/>
     <use x="633.447265625" xlink:href="#BitstreamVeraSans-Roman-45"/>
     <use x="696.630859375" xlink:href="#BitstreamVeraSans-Roman-54"/>
     <use x="757.71484375" xlink:href="#BitstreamVeraSans-Roman-20"/>
     <use x="789.501953125" xlink:href="#BitstreamVeraSans-Roman-61"/>
     <use x="850.78125" xlink:href="#BitstreamVeraSans-Roman-74"/>
     <use x="889.990234375" xlink:href="#BitstreamVeraSans-Roman-20"/>
     <use x="921.77734375" xlink:href="#BitstreamVeraSans-Roman-54"/>
     <use x="968.111328125" xlink:href="#BitstreamVeraSans-Roman-72"/>
     <use x="1006.974609375" xlink:href="#BitstreamVeraSans-Roman-65"/>
     <use x="1068.498046875" xlink:href="#BitstreamVeraSans-Roman-65"/>
     <use x="1130.021484375" xlink:href="#BitstreamVeraSans-Roman-6c"/>
     <use x="1157.8046875" xlink:href="#BitstreamVeraSans-Roman-69"/>
     <use x="1185.587890625" xlink:href="#BitstreamVeraSans-Roman-6e"/>
     <use x="1248.966796875" xlink:href="#BitstreamVeraSans-Roman-65"/>
    </g>
   </g>
   <g id="legend_1">
    <g id="patch_7">
     <path d="
M287.803 312.738
L359.991 312.738
L359.991 27.3181
L287.803 27.3181
z
" style="fill:#ffffff;stroke:#000000;stroke-linejoin:miter;"/>
    </g>
    <g id="line2d_45">
     <path d="
M296.203 37.0363
L313.003 37.0363" style="fill:none;stroke:#0000ff;stroke-linecap:square;"/>
    </g>
    <g id="line2d_46"/>
    <g id="text_18">
     <!-- 1999 -->
     <defs>
      <path d="
M10.9844 1.51562
L10.9844 10.5
Q14.7031 8.73438 18.5 7.8125
Q22.3125 6.89062 25.9844 6.89062
Q35.75 6.89062 40.8906 13.4531
Q46.0469 20.0156 46.7812 33.4062
Q43.9531 29.2031 39.5938 26.9531
Q35.25 24.7031 29.9844 24.7031
Q19.0469 24.7031 12.6719 31.3125
Q6.29688 37.9375 6.29688 49.4219
Q6.29688 60.6406 12.9375 67.4219
Q19.5781 74.2188 30.6094 74.2188
Q43.2656 74.2188 49.9219 64.5156
Q56.5938 54.8281 56.5938 36.375
Q56.5938 19.1406 48.4062 8.85938
Q40.2344 -1.42188 26.4219 -1.42188
Q22.7031 -1.42188 18.8906 -0.6875
Q15.0938 0.046875 10.9844 1.51562
M30.6094 32.4219
Q37.25 32.4219 41.125 36.9531
Q45.0156 41.5 45.0156 49.4219
Q45.0156 57.2812 41.125 61.8438
Q37.25 66.4062 30.6094 66.4062
Q23.9688 66.4062 20.0938 61.8438
Q16.2188 57.2812 16.2188 49.4219
Q16.2188 41.5 20.0938 36.9531
Q23.9688 32.4219 30.6094 32.4219" id="BitstreamVeraSans-Roman-39"/>
     </defs>
     <g transform="translate(326.203125 41.23625)scale(0.12 -0.12)">
      <use xlink:href="#BitstreamVeraSans-Roman-31"/>
      <use x="63.623046875" xlink:href="#BitstreamVeraSans-Roman-39"/>
      <use x="127.24609375" xlink:href="#BitstreamVeraSans-Roman-39"/>
      <use x="190.869140625" xlink:href="#BitstreamVeraSans-Roman-39"/>
     </g>
    </g>
    <g id="line2d_47">
     <path d="
M296.203 54.65
L313.003 54.65" style="fill:none;stroke:#008000;stroke-linecap:square;"/>
    </g>
    <g id="line2d_48"/>
    <g id="text_19">
     <!-- 2000 -->
     <g transform="translate(326.203125 58.85)scale(0.12 -0.12)">
      <use xlink:href="#BitstreamVeraSans-Roman-32"/>
      <use x="63.623046875" xlink:href="#BitstreamVeraSans-Roman-30"/>
      <use x="127.24609375" xlink:href="#BitstreamVeraSans-Roman-30"/>
      <use x="190.869140625" xlink:href="#BitstreamVeraSans-Roman-30"/>
     </g>
    </g>
    <g id="line2d_49">
     <path d="
M296.203 72.2638
L313.003 72.2638" style="fill:none;stroke:#ff0000;stroke-linecap:square;"/>
    </g>
    <g id="line2d_50"/>
    <g id="text_20">
     <!-- 2001 -->
     <g transform="translate(326.203125 76.46375)scale(0.12 -0.12)">
      <use xlink:href="#BitstreamVeraSans-Roman-32"/>
      <use x="63.623046875" xlink:href="#BitstreamVeraSans-Roman-30"/>
      <use x="127.24609375" xlink:href="#BitstreamVeraSans-Roman-30"/>
      <use x="190.869140625" xlink:href="#BitstreamVeraSans-Roman-31"/>
     </g>
    </g>
    <g id="line2d_51">
     <path d="
M296.203 89.8775
L313.003 89.8775" style="fill:none;stroke:#00bfbf;stroke-linecap:square;"/>
    </g>
    <g id="line2d_52"/>
    <g id="text_21">
     <!-- 2002 -->
     <g transform="translate(326.203125 94.0775)scale(0.12 -0.12)">
      <use xlink:href="#BitstreamVeraSans-Roman-32"/>
      <use x="63.623046875" xlink:href="#BitstreamVeraSans-Roman-30"/>
      <use x="127.24609375" xlink:href="#BitstreamVeraSans-Roman-30"/>
      <use x="190.869140625" xlink:href="#BitstreamVeraSans-Roman-32"/>
     </g>
    </g>
    <g id="line2d_53">
     <path d="
M296.203 107.491
L313.003 107.491" style="fill:none;stroke:#bf00bf;stroke-linecap:square;"/>
    </g>
    <g id="line2d_54"/>
    <g id="text_22">
     <!-- 2003 -->
     <g transform="translate(326.203125 111.69125)scale(0.12 -0.12)">
      <use xlink:href="#BitstreamVeraSans-Roman-32"/>
      <use x="63.623046875" xlink:href="#BitstreamVeraSans-Roman-30"/>
      <use x="127.24609375" xlink:href="#BitstreamVeraSans-Roman-30"/>
      <use x="190.869140625" xlink:href="#BitstreamVeraSans-Roman-33"/>
     </g>
    </g>
    <g id="line2d_55">
     <path d="
M296.203 125.105
L313.003 125.105" style="fill:none;stroke:#bfbf00;stroke-linecap:square;"/>
    </g>
    <g id="line2d_56"/>
    <g id="text_23">
     <!-- 2004 -->
     <g transform="translate(326.203125 129.305)scale(0.12 -0.12)">
      <use xlink:href="#BitstreamVeraSans-Roman-32"/>
      <use x="63.623046875" xlink:href="#BitstreamVeraSans-Roman-30"/>
      <use x="127.24609375" xlink:href="#BitstreamVeraSans-Roman-30"/>
      <use x="190.869140625" xlink:href="#BitstreamVeraSans-Roman-34"/>
     </g>
    </g>
    <g id="line2d_57">
     <path d="
M296.203 142.719
L313.003 142.719" style="fill:none;stroke:#000000;stroke-linecap:square;"/>
    </g>
    <g id="line2d_58"/>
    <g id="text_24">
     <!-- 2005 -->
     <g transform="translate(326.203125 146.91875)scale(0.12 -0.12)">
      <use xlink:href="#BitstreamVeraSans-Roman-32"/>
      <use x="63.623046875" xlink:href="#BitstreamVeraSans-Roman-30"/>
      <use x="127.24609375" xlink:href="#BitstreamVeraSans-Roman-30"/>
      <use x="190.869140625" xlink:href="#BitstreamVeraSans-Roman-35"/>
     </g>
    </g>
    <g id="line2d_59">
     <path d="
M296.203 160.333
L313.003 160.333" style="fill:none;stroke:#0000ff;stroke-linecap:square;"/>
    </g>
    <g id="line2d_60"/>
    <g id="text_25">
     <!-- 2006 -->
     <defs>
      <path d="
M33.0156 40.375
Q26.375 40.375 22.4844 35.8281
Q18.6094 31.2969 18.6094 23.3906
Q18.6094 15.5312 22.4844 10.9531
Q26.375 6.39062 33.0156 6.39062
Q39.6562 6.39062 43.5312 10.9531
Q47.4062 15.5312 47.4062 23.3906
Q47.4062 31.2969 43.5312 35.8281
Q39.6562 40.375 33.0156 40.375
M52.5938 71.2969
L52.5938 62.3125
Q48.875 64.0625 45.0938 64.9844
Q41.3125 65.9219 37.5938 65.9219
Q27.8281 65.9219 22.6719 59.3281
Q17.5312 52.7344 16.7969 39.4062
Q19.6719 43.6562 24.0156 45.9219
Q28.375 48.1875 33.5938 48.1875
Q44.5781 48.1875 50.9531 41.5156
Q57.3281 34.8594 57.3281 23.3906
Q57.3281 12.1562 50.6875 5.35938
Q44.0469 -1.42188 33.0156 -1.42188
Q20.3594 -1.42188 13.6719 8.26562
Q6.98438 17.9688 6.98438 36.375
Q6.98438 53.6562 15.1875 63.9375
Q23.3906 74.2188 37.2031 74.2188
Q40.9219 74.2188 44.7031 73.4844
Q48.4844 72.75 52.5938 71.2969" id="BitstreamVeraSans-Roman-36"/>
     </defs>
     <g transform="translate(326.203125 164.5325)scale(0.12 -0.12)">
      <use xlink:href="#BitstreamVeraSans-Roman-32"/>
      <use x="63.623046875" xlink:href="#BitstreamVeraSans-Roman-30"/>
      <use x="127.24609375" xlink:href="#BitstreamVeraSans-Roman-30"/>
      <use x="190.869140625" xlink:href="#BitstreamVeraSans-Roman-36"/>
     </g>
    </g>
    <g id="line2d_61">
     <path d="
M296.203 177.946
L313.003 177.946" style="fill:none;stroke:#008000;stroke-linecap:square;"/>
    </g>
    <g id="line2d_62"/>
    <g id="text_26">
     <!-- 2007 -->
     <defs>
      <path d="
M8.20312 72.9062
L55.0781 72.9062
L55.0781 68.7031
L28.6094 0
L18.3125 0
L43.2188 64.5938
L8.20312 64.5938
z
" id="BitstreamVeraSans-Roman-37"/>
     </defs>
     <g transform="translate(326.203125 182.14625)scale(0.12 -0.12)">
      <use xlink:href="#BitstreamVeraSans-Roman-32"/>
      <use x="63.623046875" xlink:href="#BitstreamVeraSans-Roman-30"/>
      <use x="127.24609375" xlink:href="#BitstreamVeraSans-Roman-30"/>
      <use x="190.869140625" xlink:href="#BitstreamVeraSans-Roman-37"/>
     </g>
    </g>
    <g id="line2d_63">
     <path d="
M296.203 195.56
L313.003 195.56" style="fill:none;stroke:#ff0000;stroke-linecap:square;"/>
    </g>
    <g id="line2d_64"/>
    <g id="text_27">
     <!-- 2008 -->
     <defs>
      <path d="
M31.7812 34.625
Q24.75 34.625 20.7188 30.8594
Q16.7031 27.0938 16.7031 20.5156
Q16.7031 13.9219 20.7188 10.1562
Q24.75 6.39062 31.7812 6.39062
Q38.8125 6.39062 42.8594 10.1719
Q46.9219 13.9688 46.9219 20.5156
Q46.9219 27.0938 42.8906 30.8594
Q38.875 34.625 31.7812 34.625
M21.9219 38.8125
Q15.5781 40.375 12.0312 44.7188
Q8.5 49.0781 8.5 55.3281
Q8.5 64.0625 14.7188 69.1406
Q20.9531 74.2188 31.7812 74.2188
Q42.6719 74.2188 48.875 69.1406
Q55.0781 64.0625 55.0781 55.3281
Q55.0781 49.0781 51.5312 44.7188
Q48 40.375 41.7031 38.8125
Q48.8281 37.1562 52.7969 32.3125
Q56.7812 27.4844 56.7812 20.5156
Q56.7812 9.90625 50.3125 4.23438
Q43.8438 -1.42188 31.7812 -1.42188
Q19.7344 -1.42188 13.25 4.23438
Q6.78125 9.90625 6.78125 20.5156
Q6.78125 27.4844 10.7812 32.3125
Q14.7969 37.1562 21.9219 38.8125
M18.3125 54.3906
Q18.3125 48.7344 21.8438 45.5625
Q25.3906 42.3906 31.7812 42.3906
Q38.1406 42.3906 41.7188 45.5625
Q45.3125 48.7344 45.3125 54.3906
Q45.3125 60.0625 41.7188 63.2344
Q38.1406 66.4062 31.7812 66.4062
Q25.3906 66.4062 21.8438 63.2344
Q18.3125 60.0625 18.3125 54.3906" id="BitstreamVeraSans-Roman-38"/>
     </defs>
     <g transform="translate(326.203125 199.76)scale(0.12 -0.12)">
      <use xlink:href="#BitstreamVeraSans-Roman-32"/>
      <use x="63.623046875" xlink:href="#BitstreamVeraSans-Roman-30"/>
      <use x="127.24609375" xlink:href="#BitstreamVeraSans-Roman-30"/>
      <use x="190.869140625" xlink:href="#BitstreamVeraSans-Roman-38"/>
     </g>
    </g>
    <g id="line2d_65">
     <path d="
M296.203 213.174
L313.003 213.174" style="fill:none;stroke:#00bfbf;stroke-linecap:square;"/>
    </g>
    <g id="line2d_66"/>
    <g id="text_28">
     <!-- 2009 -->
     <g transform="translate(326.203125 217.37375)scale(0.12 -0.12)">
      <use xlink:href="#BitstreamVeraSans-Roman-32"/>
      <use x="63.623046875" xlink:href="#BitstreamVeraSans-Roman-30"/>
      <use x="127.24609375" xlink:href="#BitstreamVeraSans-Roman-30"/>
      <use x="190.869140625" xlink:href="#BitstreamVeraSans-Roman-39"/>
     </g>
    </g>
    <g id="line2d_67">
     <path d="
M296.203 230.788
L313.003 230.788" style="fill:none;stroke:#bf00bf;stroke-linecap:square;"/>
    </g>
    <g id="line2d_68"/>
    <g id="text_29">
     <!-- 2010 -->
     <g transform="translate(326.203125 234.9875)scale(0.12 -0.12)">
      <use xlink:href="#BitstreamVeraSans-Roman-32"/>
      <use x="63.623046875" xlink:href="#BitstreamVeraSans-Roman-30"/>
      <use x="127.24609375" xlink:href="#BitstreamVeraSans-Roman-31"/>
      <use x="190.869140625" xlink:href="#BitstreamVeraSans-Roman-30"/>
     </g>
    </g>
    <g id="line2d_69">
     <path d="
M296.203 248.401
L313.003 248.401" style="fill:none;stroke:#bfbf00;stroke-linecap:square;"/>
    </g>
    <g id="line2d_70"/>
    <g id="text_30">
     <!-- 2011 -->
     <g transform="translate(326.203125 252.60125)scale(0.12 -0.12)">
      <use xlink:href="#BitstreamVeraSans-Roman-32"/>
      <use x="63.623046875" xlink:href="#BitstreamVeraSans-Roman-30"/>
      <use x="127.24609375" xlink:href="#BitstreamVeraSans-Roman-31"/>
      <use x="190.869140625" xlink:href="#BitstreamVeraSans-Roman-31"/>
     </g>
    </g>
    <g id="line2d_71">
     <path d="
M296.203 266.015
L313.003 266.015" style="fill:none;stroke:#000000;stroke-linecap:square;"/>
    </g>
    <g id="line2d_72"/>
    <g id="text_31">
     <!-- 2012 -->
     <g transform="translate(326.203125 270.215)scale(0.12 -0.12)">
      <use xlink:href="#BitstreamVeraSans-Roman-32"/>
      <use x="63.623046875" xlink:href="#BitstreamVeraSans-Roman-30"/>
      <use x="127.24609375" xlink:href="#BitstreamVeraSans-Roman-31"/>
      <use x="190.869140625" xlink:href="#BitstreamVeraSans-Roman-32"/>
     </g>
    </g>
    <g id="line2d_73">
     <path d="
M296.203 283.629
L313.003 283.629" style="fill:none;stroke:#0000ff;stroke-linecap:square;"/>
    </g>
    <g id="line2d_74"/>
    <g id="text_32">
     <!-- 2013 -->
     <g transform="translate(326.203125 287.82875)scale(0.12 -0.12)">
      <use xlink:href="#BitstreamVeraSans-Roman-32"/>
      <use x="63.623046875" xlink:href="#BitstreamVeraSans-Roman-30"/>
      <use x="127.24609375" xlink:href="#BitstreamVeraSans-Roman-31"/>
      <use x="190.869140625" xlink:href="#BitstreamVeraSans-Roman-33"/>
     </g>
    </g>
    <g id="line2d_75">
     <path d="
M296.203 301.243
L313.003 301.243" style="fill:none;stroke:#008000;stroke-linecap:square;"/>
    </g>
    <g id="line2d_76"/>
    <g id="text_33">
     <!-- 2014 -->
     <g transform="translate(326.203125 305.4425)scale(0.12 -0.12)">
      <use xlink:href="#BitstreamVeraSans-Roman-32"/>
      <use x="63.623046875" xlink:href="#BitstreamVeraSans-Roman-30"/>
      <use x="127.24609375" xlink:href="#BitstreamVeraSans-Roman-31"/>
      <use x="190.869140625" xlink:href="#BitstreamVeraSans-Roman-34"/>
     </g>
    </g>
   </g>
  </g>
 </g>
 <defs>
  <clipPath id="p95a2ee5e18">
   <rect height="223.2" width="334.8" x="31.190625" y="21.318125"/>
  </clipPath>
 </defs>
</svg>
