<?xml version="1.0" encoding="utf-8" standalone="no"?>
<!DOCTYPE svg PUBLIC "-//W3C//DTD SVG 1.1//EN"
  "http://www.w3.org/Graphics/SVG/1.1/DTD/svg11.dtd">
<!-- Created with matplotlib (http://matplotlib.org/) -->
<svg height="284pt" version="1.1" viewBox="0 0 390 284" width="390pt" xmlns="http://www.w3.org/2000/svg" xmlns:xlink="http://www.w3.org/1999/xlink">
 <defs>
  <style type="text/css">
*{stroke-linecap:butt;stroke-linejoin:round;}
  </style>
 </defs>
 <g id="figure_1">
  <g id="patch_1">
   <path d="
M0 284.711
L390.228 284.711
L390.228 0
L0 0
z
" style="fill:#ffffff;"/>
  </g>
  <g id="axes_1">
   <g id="patch_2">
    <path d="
M48.2281 244.518
L383.028 244.518
L383.028 21.3181
L48.2281 21.3181
z
" style="fill:#ffffff;"/>
   </g>
   <g id="line2d_1">
    <path clip-path="url(#p60c6dbb31d)" d="
M0 0" style="fill:none;stroke:#0000ff;stroke-linecap:square;"/>
   </g>
   <g id="line2d_2">
    <path clip-path="url(#p60c6dbb31d)" d="
M0 0" style="fill:none;stroke:#008000;stroke-linecap:square;"/>
   </g>
   <g id="line2d_3">
    <path clip-path="url(#p60c6dbb31d)" d="
M0 0" style="fill:none;stroke:#ff0000;stroke-linecap:square;"/>
   </g>
   <g id="line2d_4">
    <path clip-path="url(#p60c6dbb31d)" d="
M0 0" style="fill:none;stroke:#00bfbf;stroke-linecap:square;"/>
   </g>
   <g id="line2d_5">
    <path clip-path="url(#p60c6dbb31d)" d="
M0 0" style="fill:none;stroke:#bf00bf;stroke-linecap:square;"/>
   </g>
   <g id="line2d_6">
    <path clip-path="url(#p60c6dbb31d)" d="
M0 0" style="fill:none;stroke:#bfbf00;stroke-linecap:square;"/>
   </g>
   <g id="line2d_7">
    <path clip-path="url(#p60c6dbb31d)" d="
M0 0" style="fill:none;stroke:#000000;stroke-linecap:square;"/>
   </g>
   <g id="line2d_8">
    <path clip-path="url(#p60c6dbb31d)" d="
M0 0" style="fill:none;stroke:#0000ff;stroke-linecap:square;"/>
   </g>
   <g id="line2d_9">
    <path clip-path="url(#p60c6dbb31d)" d="
M0 0" style="fill:none;stroke:#008000;stroke-linecap:square;"/>
   </g>
   <g id="line2d_10">
    <path clip-path="url(#p60c6dbb31d)" d="
M48.2281 123.825
L49.1454 95.8944
L50.0626 110.418
L50.9799 177.294
L51.8972 193.093
L52.8144 197.108
L53.7317 202.449
L54.6489 200.637
L55.5662 182.826
L56.4835 197.784
L57.4007 225.116
L58.318 196.153
L59.2352 196.003
L60.1525 178.891
L61.0698 172.945
L61.987 150.607
L62.9043 165.888
L63.8215 170.878
L64.7388 163.879
L65.6561 208.767
L66.5733 209.228
L67.4906 174.522
L68.4079 150.657
L69.3251 159.747
L70.2424 184.532
L71.1596 177.272
L72.0769 177.474
L72.9942 196.838
L73.9114 203.014
L74.8287 227.365
L75.7459 216.824
L76.6632 203.648
L77.5805 196.954
L78.4977 220.455
L79.415 188.597
L80.3322 183.178
L81.2495 189.572
L82.1668 213.161
L83.084 171.539
L84.0013 189.742
L84.9185 163.467
L85.8358 168.321
L86.7531 165.334
L87.6703 181.523
L88.5876 145.791
L89.5048 147.315
L90.4221 156.739
L91.3394 130.771
L92.2566 145.008
L93.1739 153.7
L94.0911 166.57
L95.0084 181.259
L95.9257 203.058
L96.8429 182.313
L97.7602 188.531
L98.6774 209.687
L99.5947 164.105
L100.512 169.192
L102.346 148.316
L103.264 182.351
L104.181 180.698
L105.098 151.883
L106.016 161.848
L106.933 146.012
L107.85 120.098
L108.767 133.031
L109.685 168.754
L110.602 149.595
L111.519 139.423
L112.436 124.184
L113.354 98.5862
L114.271 182.01
L115.188 193.775
L116.105 164.736
L117.023 168.091
L117.94 148.381
L118.857 210.629
L119.774 197.633
L120.692 160.57
L121.609 114.24
L122.526 99.4944
L123.443 117.661
L124.361 174.017
L125.278 173.728
L126.195 201.063
L127.113 134.391
L128.03 178.64
L128.947 150.884
L129.864 148.991
L130.782 152.686
L131.699 97.8952
L132.616 94.3466
L133.533 94.6374
L134.451 148.245
L135.368 130.566
L136.285 155.17
L137.202 172.864
L138.12 123.931
L139.037 143.36
L139.954 159.3
L140.871 110.87
L141.789 111.706
L142.706 121.245
L143.623 150.297
L144.54 139.222
L145.458 120.898
L146.375 93.6182
L147.292 95.4799
L148.209 113.779
L149.127 120.596
L150.044 113.516
L150.961 87.5548
L151.879 151.077
L152.796 149.694
L153.713 77.0463
L154.63 43.1253
L155.548 61.026
L156.465 69.1077
L157.382 148.488
L158.299 72.7503
L159.217 74.1737
L160.134 50.9073
L161.968 69.2157
L162.886 75.2764
L163.803 95.2401
L164.72 123.611
L165.637 75.4131
L166.555 56.912
L167.472 60.5857
L168.389 80.9345
L169.306 72.2786
L170.224 91.1799
L171.141 147.467
L172.058 107.696
L172.976 95.9005
L173.893 94.9175
L174.81 107.615
L175.727 96.6961
L176.645 159.074
L177.562 135.805
L178.479 134.298
L179.396 157.097
L180.314 106.908
L181.231 137.294
L182.148 159.814
L183.065 157.426
L183.983 128.591
L184.9 132.348
L185.817 122.536
L186.734 121.066
L187.652 157.853
L188.569 87.9683
L189.486 167.676
L190.403 136.224
L191.321 94.0295
L192.238 84.9158
L193.155 118.168
L194.073 61.007
L194.99 113.322
L195.907 128.456
L196.824 136.989
L197.742 86.7394
L198.659 74.7013
L199.576 74.911
L200.493 82.6398
L201.411 88.3166
L202.328 87.403
L203.245 81.2346
L204.162 80.6124
L205.08 98.3034
L205.997 131.565
L206.914 106.8
L207.831 92.43
L208.749 97.3516
L209.666 84.1617
L210.583 92.8097
L211.5 97.0815
L212.418 104.656
L213.335 110.416
L214.252 123.841
L215.169 129.063
L216.087 102.68
L217.004 112.046
L217.921 117.259
L218.839 108.878
L219.756 97.7287
L220.673 100.143
L221.59 100.292
L222.508 101.687
L223.425 94.8336
L224.342 77.6794
L225.259 87.7558
L226.177 96.0984
L227.094 99.3894
L228.011 101.919
L228.928 107.622
L229.846 103.579
L230.763 93.0937
L231.68 93.9315
L232.597 105.906
L233.515 125.298
L234.432 147.83
L235.349 108.201
L236.266 104.066
L237.184 107.833
L238.101 106.191
L239.018 105.976
L239.936 106.311
L240.853 126.394
L241.77 98.5243
L242.687 99.9794
L243.605 111.471
L244.522 104.852
L245.439 104.643
L246.356 106.578
L247.274 125.843
L248.191 134.952
L249.108 128.245
L250.025 139.907
L250.943 113.954
L251.86 97.2554
L253.694 108.983
L254.612 110.379
L255.529 114.222
L256.446 114.117
L257.363 110.077
L258.281 115.455
L259.198 129.192
L260.115 130.418
L261.033 116.645
L261.95 125.795
L262.867 96.0822
L263.784 105.188
L264.702 116.915
L265.619 123.186
L267.453 94.3379
L268.371 109.657
L269.288 116.628
L270.205 118.429
L271.122 112.142
L272.04 122.63
L272.957 104.471
L273.874 90.6802
L274.791 91.9899
L275.709 103.947
L276.626 114.137
L277.543 110.606
L278.46 106.251
L279.378 111.749
L280.295 96.9996
L281.212 103.018
L282.129 101.283
L283.047 110.127
L283.964 111.988
L284.881 110.814
L285.799 114.463
L286.716 116.5
L287.633 120.476
L288.55 143.114
L289.468 173.44
L290.385 186.402
L291.302 138.847
L292.219 111.138
L293.137 104.142
L294.054 113.554
L294.971 108.961
L295.888 117.096
L296.806 112.309
L297.723 115.887
L298.64 125.792
L299.557 124.606
L300.475 148.225
L301.392 150.713
L302.309 201.906
L303.226 174.496
L304.144 135.775
L305.061 134.578
L305.978 101.487
L306.896 107.665
L307.813 200.569
L308.73 176.599
L309.647 129.265
L310.565 109.278
L311.482 126.178
L312.399 123.028
L313.316 121.239
L314.234 134.902
L315.151 127.967
L316.068 136.197
L316.985 129.433
L317.903 135.582
L318.82 88.74
L320.654 106.475
L321.572 124.171
L322.489 120.413
L323.406 108.936
L324.323 120.637
L325.241 121.619
L326.158 126.52
L327.075 153.078
L327.993 184.022
L328.91 203.834
L329.827 207.373
L330.744 208.441
L331.662 176.518
L332.579 186.679
L333.496 176.875
L334.413 175.002
L335.331 205.61
L336.248 196.069
L337.165 211.744
L338.082 185.022
L339 168.479
L339.917 125.754
L340.834 125.692
L341.751 133.215
L342.669 122.385
L343.586 128.712
L344.503 144.09
L345.42 167.611
L346.338 140.47
L347.255 167.309
L348.172 181.767
L349.089 130.211
L350.007 135.141
L350.924 154.924
L351.841 146.021
L352.759 165.999
L353.676 199.822
L354.593 188.934
L355.51 156.152
L356.428 192.199
L357.345 207.956
L358.262 144.506
L359.179 129.774
L360.097 129.165
L361.014 164.47
L361.931 190.907
L362.848 149.265
L363.766 133.383
L364.683 164.72
L366.517 216.396
L367.435 214.549
L368.352 190.296
L369.269 187.491
L370.186 178.575
L371.104 164.264
L372.021 204.986
L372.938 176.611
L373.856 199.405
L374.773 212.167
L376.607 193.237
L377.525 223.806
L378.442 196.195
L379.359 214.368
L380.276 214.194
L381.194 184.133
L382.111 140.956
L382.111 140.956" style="fill:none;stroke:#ff0000;stroke-linecap:square;"/>
   </g>
   <g id="line2d_11">
    <path clip-path="url(#p60c6dbb31d)" d="
M48.2281 205.786
L49.1454 170.382
L50.0626 177.001
L50.9799 130.703
L51.8972 163.106
L52.8144 213.15
L53.7317 192.344
L54.6489 179.624
L55.5662 197.673
L56.4835 160.26
L58.318 195.026
L59.2352 182.451
L60.1525 147.793
L61.0698 157.489
L61.987 152.369
L62.9043 177.81
L63.8215 162.133
L64.7388 177.47
L65.6561 173.286
L66.5733 150.711
L67.4906 181.155
L68.4079 217.337
L69.3251 215.373
L70.2424 224.233
L71.1596 213.407
L72.0769 180.553
L72.9942 186.67
L73.9114 185.827
L74.8287 176.881
L75.7459 177.41
L76.6632 149.265
L77.5805 130.356
L78.4977 146.668
L79.415 165.017
L80.3322 160.532
L81.2495 180.126
L82.1668 196.764
L83.084 190.086
L84.0013 208.584
L84.9185 192.092
L85.8358 188.754
L86.7531 209.756
L87.6703 189.689
L88.5876 212.418
L89.5048 165.896
L90.4221 166.715
L91.3394 203.987
L92.2566 169.057
L93.1739 157.136
L94.0911 159.788
L95.0084 138.362
L95.9257 150.628
L96.8429 183.902
L97.7602 146.462
L98.6774 175.656
L99.5947 180.319
L100.512 133.195
L101.429 104.905
L102.346 135.257
L103.264 160.236
L104.181 190.17
L105.098 211.396
L106.016 229.914
L106.933 187.659
L107.85 174.612
L108.767 183.13
L109.685 158.352
L110.602 162.914
L111.519 135.495
L113.354 144.772
L114.271 156.152
L115.188 213.458
L116.105 190.202
L117.023 160.093
L117.94 117.879
L118.857 141.937
L119.774 120.425
L120.692 172.971
L121.609 186.867
L122.526 143.42
L123.443 140.924
L124.361 200.513
L126.195 118.322
L127.113 177.306
L128.03 187.165
L128.947 133.384
L129.864 200.955
L130.782 163.419
L131.699 205.118
L132.616 201.818
L134.451 116.447
L135.368 96.246
L136.285 100.233
L137.202 174.836
L138.12 137.57
L139.037 184.48
L140.871 103.457
L141.789 144.865
L142.706 116.273
L143.623 137.634
L144.54 86.4
L145.458 92.4745
L146.375 93.3888
L147.292 81.9476
L148.209 93.138
L149.127 100.8
L150.044 104.665
L150.961 112.864
L151.879 52.3748
L152.796 69.9318
L153.713 95.1447
L154.63 99.3728
L155.548 181.062
L156.465 96.281
L157.382 114.024
L158.299 126.815
L159.217 147.815
L160.134 201.348
L161.051 150.174
L161.968 148.623
L162.886 159.077
L164.72 85.9954
L165.637 65.8912
L166.555 81.2602
L167.472 89.2613
L168.389 103.484
L169.306 76.7331
L170.224 121.669
L171.141 84.9016
L172.058 80.093
L172.976 89.9858
L173.893 103.779
L174.81 93.739
L175.727 71.1054
L176.645 70.9708
L177.562 91.0812
L178.479 114.479
L179.396 119.381
L180.314 91.7035
L181.231 91.8077
L182.148 91.4731
L183.065 94.455
L183.983 112.33
L184.9 112.727
L185.817 122.649
L186.734 134.423
L187.652 190.743
L188.569 132.403
L189.486 140.299
L190.403 170.958
L191.321 176.512
L192.238 115.068
L193.155 114.136
L194.073 110.558
L194.99 138.208
L195.907 137.861
L196.824 135.408
L197.742 179.328
L198.659 180.118
L199.576 177.763
L200.493 130.273
L201.411 154.314
L202.328 97.7421
L203.245 120.01
L204.162 132.352
L205.08 159.521
L205.997 127.106
L206.914 82.0871
L207.831 101.045
L208.749 100.623
L209.666 102.356
L210.583 84.7074
L211.5 93.3723
L212.418 108.034
L213.335 106.041
L214.252 100.545
L215.169 117.592
L216.087 126.402
L217.004 103.426
L217.921 121.628
L218.839 98.2386
L219.756 94.5154
L220.673 94.6525
L221.59 98.6629
L222.508 94.415
L223.425 127.221
L224.342 145.135
L225.259 134.579
L226.177 94.8174
L227.094 99.6781
L228.011 115.067
L228.928 118.988
L229.846 123.69
L230.763 110.52
L231.68 106.49
L232.597 109.638
L233.515 119.156
L234.432 138.106
L235.349 109.768
L236.266 113.135
L237.184 115.245
L238.101 121.209
L239.018 128.556
L239.936 123.724
L241.77 112.25
L243.605 125.915
L245.439 119.072
L246.356 126.957
L247.274 192.975
L248.191 206.642
L250.025 117.375
L250.943 113.04
L252.777 119.846
L253.694 132.347
L254.612 109.561
L255.529 114.388
L256.446 102.247
L257.363 105.254
L258.281 119.781
L259.198 121.624
L260.115 125.756
L261.033 125.208
L261.95 122.517
L262.867 152.319
L263.784 123.789
L264.702 122.127
L265.619 121.025
L266.536 125.355
L267.453 146.299
L268.371 127.756
L269.288 132.651
L270.205 116.108
L271.122 122.188
L272.04 122.15
L272.957 123.049
L274.791 139.768
L275.709 120.428
L277.543 99.7382
L279.378 116.909
L280.295 122.167
L281.212 124.413
L282.129 127.808
L283.047 129.28
L283.964 140.522
L284.881 134.937
L285.799 131.477
L286.716 138.043
L287.633 137.79
L288.55 127.143
L289.468 106.028
L291.302 124.054
L292.219 130.612
L293.137 134.711
L294.054 126.706
L294.971 120.787
L295.888 133.339
L296.806 161.963
L297.723 137.636
L298.64 107.85
L299.557 106.396
L301.392 239.415
L302.309 224.615
L303.226 148.441
L304.144 130.698
L305.061 125.317
L305.978 145.88
L306.896 126.792
L307.813 117.728
L308.73 123.797
L309.647 173.438
L310.565 190.555
L311.482 177.088
L312.399 151.751
L313.316 153.89
L314.234 164
L315.151 188.295
L316.068 173.613
L316.985 174.024
L317.903 149.254
L318.82 171.147
L319.737 158.714
L320.654 121.185
L321.572 173.122
L322.489 212.504
L323.406 170.482
L325.241 204.109
L326.158 176.787
L327.075 171.287
L327.993 159.082
L328.91 137.155
L329.827 137.978
L330.744 136.095
L331.662 185.516
L332.579 175.761
L333.496 147.929
L334.413 128.145
L335.331 142.497
L336.248 190.574
L337.165 219.617
L338.082 203.172
L339 198.862
L339.917 140.201
L341.751 130.049
L342.669 181.552
L343.586 138.358
L344.503 160.257
L345.42 162.793
L346.338 194.343
L347.255 173.795
L348.172 165.388
L349.089 167.652
L350.007 164.73
L350.924 184.644
L351.841 184.511
L352.759 160.728
M354.593 161.428
L355.51 157.015
L356.428 139.831
L357.345 134.236
L358.262 152.608
L359.179 148.867
L360.097 201.157
L361.014 167.39
L361.931 151.673
L362.848 144.223
L363.766 124.004
L364.683 181.436
L365.6 215.877
L366.517 192.37
L367.435 199.846
L368.352 224.706
L369.269 200.998
L370.186 210.065
L372.021 192.988
L372.938 188.422
L373.856 218.462
L374.773 197.813
L375.69 140.173
L376.607 176.696
L377.525 193.777
L378.442 186.1
L379.359 166.619
L381.194 213.546
L382.111 202.494
L382.111 202.494" style="fill:none;stroke:#00bfbf;stroke-linecap:square;"/>
   </g>
   <g id="line2d_12">
    <path clip-path="url(#p60c6dbb31d)" d="
M48.2281 214.718
L50.0626 191.573
L50.9799 173.211
L51.8972 193.84
L52.8144 185.268
L53.7317 201.488
L54.6489 145.701
L55.5662 159.061
L56.4835 175.238
L57.4007 153.352
L58.318 170.269
L59.2352 207.993
L60.1525 190.849
L61.0698 131.496
L61.987 173.683
L62.9043 166.304
L63.8215 193.414
L64.7388 195.36
L65.6561 181.232
L66.5733 171.456
L67.4906 181.371
L68.4079 227.189
L69.3251 190.789
L70.2424 203.049
L71.1596 212.635
L72.0769 224.161
L72.9942 207.138
L73.9114 199.01
L74.8287 186.324
L75.7459 227.182
L76.6632 198.463
L77.5805 173.56
L78.4977 190.203
L79.415 199.723
L80.3322 204.317
L81.2495 191.475
L82.1668 214.39
L83.084 212.717
L84.0013 194.981
L84.9185 165.521
L85.8358 198.136
L86.7531 191.541
L87.6703 207.616
L88.5876 180.912
L89.5048 223.488
L90.4221 217.171
L91.3394 215.692
L92.2566 207.872
L93.1739 184.272
L94.0911 176.55
L95.0084 182.368
L95.9257 109.559
L96.8429 122.278
L97.7602 195.613
L98.6774 195.161
L99.5947 151.662
L100.512 177.861
L101.429 186.441
L102.346 153.262
L103.264 144.471
L104.181 186.982
L105.098 177.98
L106.016 178.287
L106.933 156.144
L107.85 136.742
L108.767 192.199
L109.685 151.862
L110.602 120.889
L111.519 129.937
L112.436 149.154
L113.354 200.405
L114.271 159.26
L115.188 106.024
L116.105 116.6
L117.023 113.273
L117.94 122.711
L118.857 82.3058
L119.774 99.7713
L120.692 151.124
L121.609 164.187
L122.526 109.433
L123.443 102.704
L124.361 177.644
L125.278 182.663
L126.195 128.291
L127.113 109.073
L128.947 211.987
L129.864 164.669
L130.782 204.215
L131.699 199.686
L132.616 169.438
L133.533 174.437
L134.451 192.472
L135.368 143.739
L136.285 118.668
L137.202 147.711
L138.12 85.6147
L139.037 108.493
L139.954 117.815
L140.871 182.022
L141.789 162.776
L142.706 100.214
L143.623 75.0481
L144.54 109.913
L145.458 103.378
L146.375 79.1571
L147.292 80.9921
L148.209 144.231
L149.127 184.206
L150.044 163.316
L150.961 73.7135
L151.879 68.3824
L152.796 58.9351
L153.713 85.7948
L154.63 181.522
L155.548 191.572
L156.465 162.809
L157.382 172.163
L158.299 153.419
L159.217 106.924
L160.134 151.365
L161.051 36.5139
L161.968 117.518
L162.886 113.347
L163.803 47.1386
L164.72 65.6575
L165.637 60.2071
L166.555 157.848
L167.472 100.727
L168.389 72.091
L169.306 76.3749
L170.224 64.8227
L171.141 70.7414
L172.058 91.8629
L172.976 119.606
L173.893 197.443
L174.81 114.359
L175.727 84.9527
L176.645 127.369
L177.562 224.752
L178.479 148.234
L179.396 129.207
L180.314 88.8905
L181.231 160.614
L182.148 142.191
L183.065 155.929
L183.983 127.748
L184.9 91.7094
L185.817 165.5
L186.734 151.013
L187.652 193.687
L188.569 140.691
L189.486 204.08
L190.403 120.838
L191.321 179.154
L192.238 101.811
L193.155 104.025
L194.073 140.245
L194.99 149.561
L195.907 115.951
L196.824 70.3474
L197.742 80.1735
L198.659 91.2577
L199.576 99.7101
L200.493 87.4439
L201.411 101.16
L202.328 70.8646
L203.245 98.284
L204.162 138.481
L205.08 144.429
L205.997 87.0322
L206.914 90.3728
L207.831 124.938
L208.749 141.391
L209.666 99.2467
L210.583 90.436
L211.5 111.59
L212.418 140.481
L213.335 106.02
L214.252 96.302
L216.087 118.072
L217.004 86.9556
L217.921 88.658
L218.839 87.1731
L219.756 88.4556
L220.673 94.1832
L222.508 109.812
L223.425 103.322
L224.342 98.8372
L225.259 69.0834
L227.094 88.0996
L228.011 101.139
L228.928 96.2542
L229.846 97.0827
L230.763 85.4507
L231.68 88.235
L232.597 97.1425
L233.515 95.8321
L234.432 88.7751
L235.349 97.2294
L236.266 112.556
L237.184 160.406
L238.101 121.778
L239.018 124.095
L239.936 114.658
L240.853 124.527
L241.77 119.265
L242.687 102.582
L243.605 99.7303
L244.522 104.854
L245.439 104.214
L246.356 115.089
L247.274 129.392
L248.191 104.383
L249.108 108.646
L250.943 140.773
L251.86 173.601
L252.777 133.214
L253.694 112.681
L254.612 111.482
L255.529 110.651
L256.446 108.469
L257.363 111.733
L258.281 113.318
L259.198 105.942
L260.115 101.276
L261.033 110.413
L261.95 101.778
L262.867 102.557
L263.784 98.6538
L264.702 108.608
L265.619 138.172
L266.536 95.2321
L267.453 109.418
L268.371 183.688
L269.288 134.621
L270.205 146.508
L271.122 140.15
L272.04 112.263
L272.957 107.36
L273.874 120.959
L274.791 96.4453
L275.709 89.9263
L276.626 90.9072
L277.543 166.243
L278.46 205.44
L279.378 119.305
L280.295 102.014
L281.212 104.743
L282.129 112.749
L283.047 118.983
L283.964 111.526
L284.881 109.618
L285.799 124.732
L286.716 120.214
L287.633 132.889
L288.55 126.703
L289.468 113.195
L290.385 111.779
L291.302 108.398
L292.219 103.693
L293.137 114.149
L294.054 116.965
L294.971 114.017
L295.888 117.895
L296.806 122.423
L297.723 115.973
L298.64 122.498
L299.557 122.126
L300.475 159.677
L301.392 188.696
L302.309 166.2
L303.226 156.691
L304.144 129.484
L305.061 185.832
L305.978 161.665
L306.896 148.123
L307.813 157.106
L308.73 119.951
L309.647 111.85
L310.565 109.432
L311.482 126.377
L312.399 136.43
L313.316 129.575
L314.234 107.825
L315.151 97.6309
L316.068 110.891
L316.985 113.249
L317.903 120.913
L318.82 185.949
L319.737 214.851
L320.654 182.198
L321.572 200.757
L322.489 152.943
L323.406 112.449
L324.323 124.684
L325.241 135.218
L326.158 192.947
L327.075 148.718
L327.993 143.105
L328.91 147.862
L329.827 131.88
L330.744 141.114
L331.662 141.77
L332.579 190.851
L333.496 197.071
L334.413 163.139
L335.331 213.8
L336.248 196.755
L337.165 164.584
L338.082 168.663
L339 214.124
L339.917 188.468
L340.834 175.843
L341.751 145.302
L342.669 170.37
L343.586 220.574
L344.503 217.905
L345.42 209.452
L346.338 228.661
L347.255 221.564
L348.172 147.764
L349.089 139
L350.007 149.699
L350.924 178.934
L351.841 197.714
L352.759 157.757
L353.676 164.629
L354.593 228.239
L355.51 210.869
L356.428 187.31
L357.345 194.653
L358.262 210.726
L359.179 210.861
L360.097 193.694
L361.014 168.953
L361.931 192.323
L362.848 201.519
L363.766 203.931
L364.683 193.326
L365.6 189.426
L366.517 206.861
L367.435 197.434
L368.352 159.014
L369.269 153.867
L370.186 192.55
L371.104 212.868
L372.021 198.726
L372.938 165.887
L373.856 206.698
L374.773 204.639
L376.607 110.39
L377.525 191.359
L378.442 192.96
L379.359 200.994
L380.276 222.925
L381.194 208.991
L382.111 193.271
L382.111 193.271" style="fill:none;stroke:#bf00bf;stroke-linecap:square;"/>
   </g>
   <g id="line2d_13">
    <path clip-path="url(#p60c6dbb31d)" d="
M48.2281 169.296
L49.1454 175.51
L50.0626 199.712
L50.9799 205.597
L51.8972 171.907
L52.8144 180.909
L53.7317 179.39
L54.6489 186.287
L56.4835 216.266
L57.4007 172.319
L58.318 186.817
L59.2352 220.062
L60.1525 206.874
L61.0698 205.195
L61.987 216.459
L62.9043 204.391
L63.8215 208.471
L64.7388 214.974
L65.6561 162.989
L66.5733 202.584
L67.4906 203.86
L68.4079 150.48
L69.3251 205.345
L70.2424 210.973
L71.1596 211.589
L72.0769 207.231
L72.9942 205.533
L73.9114 205.996
L74.8287 217.713
L75.7459 180.717
L76.6632 149.521
L77.5805 131.59
L78.4977 151.591
L79.415 190.472
L80.3322 184.559
L81.2495 181.792
L82.1668 183.005
L83.084 191.308
L84.0013 173.098
L84.9185 158.262
L85.8358 146.472
L86.7531 144.986
L87.6703 136.083
L88.5876 141.993
L89.5048 148.899
L90.4221 185.501
L91.3394 196.761
L92.2566 205.222
L93.1739 200.916
L94.0911 237.278
L95.0084 192.799
L95.9257 190.434
L96.8429 178.036
L97.7602 214.495
L98.6774 216.191
L99.5947 157.841
L100.512 147.357
L101.429 157.112
L102.346 129.056
L103.264 177.294
L104.181 184.477
L106.016 200.997
L106.933 206.92
L107.85 211.042
L108.767 225.315
L109.685 198.008
L110.602 189.266
L111.519 216.134
L112.436 183.657
L113.354 210.115
L114.271 165.174
L115.188 193.045
L116.105 236.765
L117.023 215.944
L117.94 158.372
L118.857 202.818
L119.774 168.596
L120.692 193.149
L121.609 183.77
L122.526 165.932
L123.443 200.509
L124.361 219.974
L125.278 225.313
L126.195 223.286
L127.113 179.297
L128.03 196.929
L128.947 197.4
L129.864 140.71
L130.782 142.556
L131.699 153.603
L132.616 173.214
L133.533 141.529
L134.451 157.272
L135.368 171.054
L136.285 154.123
L138.12 183.8
L139.037 142.384
L139.954 158.075
L140.871 111.566
L141.789 167.523
L142.706 106.412
L143.623 154.271
L144.54 168.983
L145.458 144.548
L146.375 143.272
L147.292 68.5311
L148.209 155.366
L149.127 176.511
L150.044 88.3192
L150.961 71.1462
L151.879 138.095
L152.796 181.561
L153.713 131.849
L154.63 106.16
L155.548 180.841
L156.465 110.077
L157.382 119.769
L158.299 95.8748
L159.217 137.254
L160.134 98.9167
L161.051 88.6123
L161.968 104.637
L162.886 166.074
L163.803 142.521
L164.72 164.445
L166.555 96.2866
L167.472 95.7668
L168.389 107.592
L169.306 114.364
L170.224 142.688
L171.141 178.136
L172.058 198.68
L172.976 130.951
L173.893 168.222
L174.81 85.7948
L175.727 100.997
L176.645 132.515
L177.562 110.01
L178.479 155.502
L179.396 153.971
L180.314 144.283
L181.231 113.654
L182.148 180.682
L183.065 180.033
L183.983 181.065
L184.9 126.511
L185.817 134.079
L186.734 122.266
L187.652 166.144
L188.569 89.3621
L190.403 115
L191.321 158.38
L192.238 172.341
L193.155 104.075
L194.073 126.156
L194.99 131.88
L195.907 134.147
L196.824 110.512
L197.742 147.81
L198.659 89.8826
L199.576 75.9705
L200.493 105.756
L201.411 82.1423
L202.328 168.788
L203.245 164.259
L204.162 93.2446
L205.997 111.43
L206.914 110.199
L207.831 94.2189
L208.749 88.2309
L209.666 92.7692
L210.583 101.146
L211.5 115.038
L212.418 145.519
L213.335 108.498
L214.252 97.598
L215.169 97.884
L216.087 110.416
L217.004 114.755
L217.921 117.514
L218.839 112.072
L219.756 152.658
L220.673 100.43
L221.59 94.453
L222.508 112.692
L223.425 119.84
L224.342 112.49
L225.259 125.371
L226.177 116.592
L227.094 109.855
L228.011 122.69
L228.928 114.463
L229.846 112.027
L230.763 116.334
L231.68 105.252
L232.597 101.487
L233.515 106.32
L234.432 101.335
L235.349 114.109
L236.266 113.208
L237.184 117.202
L238.101 110.373
L239.018 107.884
L239.936 113.876
L241.77 135.54
L242.687 126.183
L243.605 127.303
L244.522 117
L245.439 147.366
L246.356 118.623
L247.274 119.27
L248.191 123.455
L249.108 123.984
L250.025 112.871
L250.943 114.595
L251.86 106.525
L252.777 113.123
L253.694 127.344
L254.612 124.3
L255.529 106.784
L256.446 110.632
L257.363 118.285
L258.281 118.484
L259.198 115.776
L260.115 126.839
L261.033 129.321
L261.95 126.832
L262.867 123.929
L263.784 125.257
L264.702 131.575
L265.619 130.492
L266.536 153.096
L267.453 134.702
L268.371 126.85
L269.288 123.913
L270.205 111.879
L271.122 110.206
L272.04 110.536
L272.957 113.794
L273.874 113.766
L275.709 126.454
L276.626 129.368
L277.543 128.746
L278.46 135.151
L279.378 132.596
L280.295 141.201
L281.212 134.597
L282.129 134.361
L283.047 132.641
L283.964 181.52
L284.881 141.974
L285.799 114.618
L286.716 112.503
L287.633 123.686
L288.55 125.462
L289.468 119.654
L290.385 127.178
L291.302 127.848
L292.219 132.606
L293.137 138.156
L294.054 127.759
L294.971 127.383
L295.888 132.006
L296.806 124.587
L297.723 137.735
L298.64 136.885
L299.557 138.614
L300.475 138.892
L301.392 194.147
L303.226 228.226
L304.144 218.859
L305.061 166.748
L305.978 139.319
L306.896 191.171
L307.813 177.232
L308.73 138.804
L309.647 133.002
L310.565 130.479
L311.482 152.546
L312.399 212.301
L313.316 150.359
L314.234 125.97
L315.151 143.806
L316.068 133.867
L317.903 156.859
L318.82 150.403
L319.737 176.857
L320.654 133.131
L321.572 103.287
L322.489 115.035
L323.406 115.325
L324.323 125.899
L325.241 143.572
L326.158 173.6
L327.075 134.294
L327.993 104.477
L328.91 128.704
L329.827 185.811
L330.744 200.003
L331.662 208.068
L332.579 209.806
L334.413 141.152
L335.331 135.689
L336.248 149.731
L337.165 186.326
L338.082 194.346
L339 134.469
L339.917 116.562
L341.751 205.536
L342.669 206.261
L343.586 196.594
L344.503 153.596
L346.338 191.434
L347.255 144.474
L348.172 173.563
L349.089 173.744
L350.007 117.432
L350.924 119.381
L351.841 162.716
L352.759 195.113
L353.676 180.62
L354.593 130.445
L355.51 133.045
L357.345 163.844
L358.262 160.926
L359.179 135.313
L360.097 141.406
L361.014 138.776
L361.931 140.877
L363.766 153.664
L364.683 150.768
L365.6 164.33
L366.517 151.651
L367.435 174.892
L368.352 177.351
L369.269 175.205
L370.186 165.218
L371.104 151.835
L372.021 142.416
L372.938 172.644
L373.856 125.705
L374.773 117.483
L375.69 129.5
L376.607 138.475
L377.525 149.812
L379.359 202.087
L380.276 187.867
L381.194 218.335
L382.111 172.742
L382.111 172.742" style="fill:none;stroke:#bfbf00;stroke-linecap:square;"/>
   </g>
   <g id="line2d_14">
    <path clip-path="url(#p60c6dbb31d)" d="
M48.2281 125.767
L49.1454 137.336
L50.0626 133.244
L50.9799 122.826
L51.8972 146.602
L52.8144 165.807
L53.7317 179.496
L54.6489 162.3
L55.5662 172.146
L56.4835 201.922
L57.4007 157.024
L58.318 166.416
L59.2352 124.67
L60.1525 110.443
L61.0698 150.605
L61.987 165.544
L62.9043 134.383
L63.8215 183.919
L64.7388 222.975
L65.6561 222.429
L66.5733 215.441
L67.4906 194.515
L68.4079 218.497
L69.3251 198.3
L70.2424 194.197
L71.1596 212.15
L72.0769 153.544
L72.9942 138.38
L73.9114 116.282
L74.8287 174.915
L75.7459 145.59
L76.6632 193.369
L77.5805 188.298
L78.4977 150.929
L79.415 144.246
L80.3322 142.346
L81.2495 144.036
L82.1668 120.879
L83.084 181.976
L84.0013 211.618
L84.9185 179.822
L85.8358 201.294
L86.7531 207.666
L87.6703 174.863
L88.5876 187.527
L89.5048 197.65
L90.4221 158.182
L91.3394 157.734
L92.2566 184.591
L93.1739 166.295
L94.0911 189.226
L95.0084 225.388
L96.8429 162.243
L97.7602 117.932
L98.6774 187.063
L99.5947 154.982
L100.512 140.879
L101.429 130.178
L102.346 178.496
L103.264 208.42
L104.181 164.974
L105.098 181.261
L106.016 150.71
L106.933 138.389
L107.85 175.211
L108.767 115.102
L109.685 110.385
L110.602 111.692
L111.519 122.202
L112.436 161.012
L113.354 173.115
L114.271 182.578
L115.188 222.369
L116.105 185.275
L117.023 207.65
L117.94 208.445
L118.857 235.586
L119.774 178.082
L120.692 192.532
L121.609 155.421
L122.526 101.028
L123.443 139.399
L124.361 110.471
L125.278 150.413
L126.195 197.846
L127.113 125.915
L128.03 169.391
L128.947 179.74
L129.864 199.274
L130.782 116.158
L131.699 92.858
L132.616 112.808
L133.533 101.572
L134.451 141.359
L135.368 111.951
L136.285 106.537
L137.202 78.0342
L138.12 74.8902
L139.037 101.529
L139.954 94.929
L140.871 158.003
L141.789 129.675
L142.706 154.866
L143.623 111.415
L144.54 78.7674
L145.458 169.597
L146.375 133.059
L147.292 133.715
L148.209 159.632
L149.127 117.189
L150.044 94.3182
L150.961 99.5694
L151.879 131.484
L152.796 122.232
L153.713 147.554
L154.63 217.819
L155.548 90.9614
L156.465 121.882
L157.382 85.4735
L158.299 165.399
L159.217 102.753
L160.134 88.9428
L161.051 167.888
L161.968 194.84
L162.886 117.536
L163.803 74.482
L164.72 75.2942
L165.637 76.4569
L166.555 91.4952
L167.472 59.4838
L168.389 66.8392
L169.306 77.2297
L170.224 82.197
L171.141 102.005
L172.058 138.188
L172.976 106.527
L173.893 125.115
L174.81 82.7143
L175.727 71.595
L176.645 92.54
L177.562 143.788
L178.479 152.226
L179.396 137.372
L180.314 106.989
L181.231 183.054
L182.148 185.766
L183.065 146.821
L183.983 86.6283
L184.9 85.0639
L185.817 95.5833
L186.734 100.934
L187.652 98.0578
L188.569 132.572
L189.486 112.068
L190.403 137.124
L191.321 195.229
L192.238 94.9934
L193.155 110.091
L194.073 119.927
L194.99 175.843
L195.907 122.188
L196.824 83.6928
L197.742 110.611
L198.659 93.5437
L199.576 71.7078
L200.493 81.4726
L201.411 96.2303
L202.328 103.06
L203.245 80.4266
L204.162 93.9135
L205.08 79.4038
L205.997 97.9489
L206.914 106.092
L207.831 97.552
L208.749 97.0778
L209.666 92.1898
L210.583 92.1731
L211.5 83.1028
L212.418 96.4524
L213.335 94.3335
L214.252 104.047
L215.169 127.11
L216.087 109.59
L217.004 99.0713
L217.921 94.5107
L218.839 112.716
L219.756 117.457
L220.673 116.453
L221.59 137.369
L222.508 123.819
L223.425 117.467
L224.342 120.795
L225.259 122.99
L226.177 145.157
L227.094 154.441
L228.011 128.353
L228.928 139.001
L229.846 110.256
L230.763 110.57
L231.68 127.108
L232.597 107.948
L233.515 112.684
L234.432 112.702
L235.349 114.826
L236.266 113.037
L237.184 113.448
L238.101 117.78
L239.018 120.94
L239.936 120.306
L240.853 116.55
L241.77 119.166
L242.687 115.109
L243.605 113.893
L244.522 104.769
L245.439 106.791
L246.356 109.704
L247.274 120.747
L248.191 119.604
L249.108 125.357
L250.025 132.405
L250.943 124.278
L251.86 136.766
L252.777 118.523
L253.694 129.028
L254.612 129.5
L255.529 126.468
L256.446 122.576
L257.363 121.835
L258.281 124.897
L259.198 122.298
L260.115 146.824
L261.033 129.349
L261.95 131.745
L262.867 122.77
L263.784 116.336
L264.702 99.3816
L265.619 107.155
L266.536 129.86
L267.453 132.656
L268.371 117.275
L269.288 116.369
L270.205 111.971
L271.122 139.485
L272.04 125.121
L272.957 98.5078
L274.791 110.872
L275.709 115.33
L276.626 133.437
L277.543 112.176
L278.46 116.506
L279.378 122.284
L280.295 114.279
L281.212 109.361
L282.129 96.2506
L283.047 105.481
L283.964 116.683
L284.881 113.256
L285.799 119.541
L286.716 116.055
L287.633 114.586
L288.55 127.062
L289.468 131.942
L290.385 133.256
L291.302 129.418
L292.219 179.647
L293.137 141.371
L294.054 141.602
L294.971 137.726
L295.888 123.71
L296.806 128.891
L297.723 131.046
L298.64 129.562
L299.557 122.354
L300.475 122.311
L301.392 100.457
L302.309 101.273
L303.226 95.1178
L304.144 97.8789
L305.061 102.363
L305.978 102.215
L306.896 114.961
L307.813 120.718
L308.73 122.075
L309.647 122.134
L310.565 168.502
L311.482 144.455
L312.399 153.525
L313.316 157
L314.234 130.094
L315.151 117.84
L316.985 166.848
L317.903 132.154
L318.82 203.727
L319.737 214.406
L320.654 193.599
L321.572 196.996
L322.489 157.565
L323.406 172.815
L324.323 200.667
L325.241 158.195
L326.158 142.654
L327.075 135.379
L327.993 163.103
L328.91 147.442
L329.827 157.282
L330.744 147.825
L331.662 164.688
L332.579 151.462
L333.496 163.542
L334.413 182.084
L335.331 214.418
L336.248 193.233
L337.165 196.154
L338.082 188.175
L339 195.263
L339.917 192.494
L340.834 183.328
L341.751 167.166
L342.669 195.269
L343.586 189.951
L344.503 188.531
L345.42 177.712
L346.338 198.906
L347.255 155.559
L348.172 126.833
L349.089 174.846
L350.007 194.647
L350.924 172.818
L351.841 154.166
L352.759 171.46
L353.676 183.32
L354.593 200.589
L355.51 197.848
L356.428 214.459
L357.345 158.909
L358.262 189.047
L359.179 202.653
L360.097 182.837
L361.014 167.954
L361.931 192.866
L362.848 171.87
L363.766 207.22
L364.683 181.631
L365.6 211.664
L366.517 185.757
L367.435 200.27
L368.352 202.157
L369.269 220.777
L370.186 199.321
L371.104 183.799
L372.021 178.387
L372.938 122.704
L373.856 116.228
L374.773 168.235
L375.69 204.888
L376.607 205.174
L377.525 178.926
L378.442 206.989
L379.359 211.445
L380.276 186.497
L381.194 185.011
L382.111 213.182
L382.111 213.182" style="fill:none;stroke:#000000;stroke-linecap:square;"/>
   </g>
   <g id="patch_3">
    <path d="
M48.2281 21.3181
L383.028 21.3181" style="fill:none;stroke:#000000;stroke-linecap:square;stroke-linejoin:miter;"/>
   </g>
   <g id="patch_4">
    <path d="
M383.028 244.518
L383.028 21.3181" style="fill:none;stroke:#000000;stroke-linecap:square;stroke-linejoin:miter;"/>
   </g>
   <g id="patch_5">
    <path d="
M48.2281 244.518
L383.028 244.518" style="fill:none;stroke:#000000;stroke-linecap:square;stroke-linejoin:miter;"/>
   </g>
   <g id="patch_6">
    <path d="
M48.2281 244.518
L48.2281 21.3181" style="fill:none;stroke:#000000;stroke-linecap:square;stroke-linejoin:miter;"/>
   </g>
   <g id="matplotlib.axis_1">
    <g id="xtick_1">
     <g id="line2d_15">
      <defs>
       <path d="
M0 0
L0 -4" id="m93b0483c22" style="stroke:#000000;stroke-width:0.5;"/>
      </defs>
      <g>
       <use style="stroke:#000000;stroke-width:0.5;" x="48.228125" xlink:href="#m93b0483c22" y="244.518125"/>
      </g>
     </g>
     <g id="line2d_16">
      <defs>
       <path d="
M0 0
L0 4" id="m741efc42ff" style="stroke:#000000;stroke-width:0.5;"/>
      </defs>
      <g>
       <use style="stroke:#000000;stroke-width:0.5;" x="48.228125" xlink:href="#m741efc42ff" y="21.318125"/>
      </g>
     </g>
     <g id="text_1">
      <!-- 0 -->
      <defs>
       <path d="
M31.7812 66.4062
Q24.1719 66.4062 20.3281 58.9062
Q16.5 51.4219 16.5 36.375
Q16.5 21.3906 20.3281 13.8906
Q24.1719 6.39062 31.7812 6.39062
Q39.4531 6.39062 43.2812 13.8906
Q47.125 21.3906 47.125 36.375
Q47.125 51.4219 43.2812 58.9062
Q39.4531 66.4062 31.7812 66.4062
M31.7812 74.2188
Q44.0469 74.2188 50.5156 64.5156
Q56.9844 54.8281 56.9844 36.375
Q56.9844 17.9688 50.5156 8.26562
Q44.0469 -1.42188 31.7812 -1.42188
Q19.5312 -1.42188 13.0625 8.26562
Q6.59375 17.9688 6.59375 36.375
Q6.59375 54.8281 13.0625 64.5156
Q19.5312 74.2188 31.7812 74.2188" id="BitstreamVeraSans-Roman-30"/>
      </defs>
      <g transform="translate(45.70859375 256.1165625)scale(0.1 -0.1)">
       <use xlink:href="#BitstreamVeraSans-Roman-30"/>
      </g>
     </g>
    </g>
    <g id="xtick_2">
     <g id="line2d_17">
      <g>
       <use style="stroke:#000000;stroke-width:0.5;" x="94.0911386986" xlink:href="#m93b0483c22" y="244.518125"/>
      </g>
     </g>
     <g id="line2d_18">
      <g>
       <use style="stroke:#000000;stroke-width:0.5;" x="94.0911386986" xlink:href="#m741efc42ff" y="21.318125"/>
      </g>
     </g>
     <g id="text_2">
      <!-- 50 -->
      <defs>
       <path d="
M10.7969 72.9062
L49.5156 72.9062
L49.5156 64.5938
L19.8281 64.5938
L19.8281 46.7344
Q21.9688 47.4688 24.1094 47.8281
Q26.2656 48.1875 28.4219 48.1875
Q40.625 48.1875 47.75 41.5
Q54.8906 34.8125 54.8906 23.3906
Q54.8906 11.625 47.5625 5.09375
Q40.2344 -1.42188 26.9062 -1.42188
Q22.3125 -1.42188 17.5469 -0.640625
Q12.7969 0.140625 7.71875 1.70312
L7.71875 11.625
Q12.1094 9.23438 16.7969 8.0625
Q21.4844 6.89062 26.7031 6.89062
Q35.1562 6.89062 40.0781 11.3281
Q45.0156 15.7656 45.0156 23.3906
Q45.0156 31 40.0781 35.4375
Q35.1562 39.8906 26.7031 39.8906
Q22.75 39.8906 18.8125 39.0156
Q14.8906 38.1406 10.7969 36.2812
z
" id="BitstreamVeraSans-Roman-35"/>
      </defs>
      <g transform="translate(88.4466074486 256.1165625)scale(0.1 -0.1)">
       <use xlink:href="#BitstreamVeraSans-Roman-35"/>
       <use x="63.623046875" xlink:href="#BitstreamVeraSans-Roman-30"/>
      </g>
     </g>
    </g>
    <g id="xtick_3">
     <g id="line2d_19">
      <g>
       <use style="stroke:#000000;stroke-width:0.5;" x="139.954152397" xlink:href="#m93b0483c22" y="244.518125"/>
      </g>
     </g>
     <g id="line2d_20">
      <g>
       <use style="stroke:#000000;stroke-width:0.5;" x="139.954152397" xlink:href="#m741efc42ff" y="21.318125"/>
      </g>
     </g>
     <g id="text_3">
      <!-- 100 -->
      <defs>
       <path d="
M12.4062 8.29688
L28.5156 8.29688
L28.5156 63.9219
L10.9844 60.4062
L10.9844 69.3906
L28.4219 72.9062
L38.2812 72.9062
L38.2812 8.29688
L54.3906 8.29688
L54.3906 0
L12.4062 0
z
" id="BitstreamVeraSans-Roman-31"/>
      </defs>
      <g transform="translate(131.291652397 256.1165625)scale(0.1 -0.1)">
       <use xlink:href="#BitstreamVeraSans-Roman-31"/>
       <use x="63.623046875" xlink:href="#BitstreamVeraSans-Roman-30"/>
       <use x="127.24609375" xlink:href="#BitstreamVeraSans-Roman-30"/>
      </g>
     </g>
    </g>
    <g id="xtick_4">
     <g id="line2d_21">
      <g>
       <use style="stroke:#000000;stroke-width:0.5;" x="185.817166096" xlink:href="#m93b0483c22" y="244.518125"/>
      </g>
     </g>
     <g id="line2d_22">
      <g>
       <use style="stroke:#000000;stroke-width:0.5;" x="185.817166096" xlink:href="#m741efc42ff" y="21.318125"/>
      </g>
     </g>
     <g id="text_4">
      <!-- 150 -->
      <g transform="translate(177.154666096 256.1165625)scale(0.1 -0.1)">
       <use xlink:href="#BitstreamVeraSans-Roman-31"/>
       <use x="63.623046875" xlink:href="#BitstreamVeraSans-Roman-35"/>
       <use x="127.24609375" xlink:href="#BitstreamVeraSans-Roman-30"/>
      </g>
     </g>
    </g>
    <g id="xtick_5">
     <g id="line2d_23">
      <g>
       <use style="stroke:#000000;stroke-width:0.5;" x="231.680179795" xlink:href="#m93b0483c22" y="244.518125"/>
      </g>
     </g>
     <g id="line2d_24">
      <g>
       <use style="stroke:#000000;stroke-width:0.5;" x="231.680179795" xlink:href="#m741efc42ff" y="21.318125"/>
      </g>
     </g>
     <g id="text_5">
      <!-- 200 -->
      <defs>
       <path d="
M19.1875 8.29688
L53.6094 8.29688
L53.6094 0
L7.32812 0
L7.32812 8.29688
Q12.9375 14.1094 22.625 23.8906
Q32.3281 33.6875 34.8125 36.5312
Q39.5469 41.8438 41.4219 45.5312
Q43.3125 49.2188 43.3125 52.7812
Q43.3125 58.5938 39.2344 62.25
Q35.1562 65.9219 28.6094 65.9219
Q23.9688 65.9219 18.8125 64.3125
Q13.6719 62.7031 7.8125 59.4219
L7.8125 69.3906
Q13.7656 71.7812 18.9375 73
Q24.125 74.2188 28.4219 74.2188
Q39.75 74.2188 46.4844 68.5469
Q53.2188 62.8906 53.2188 53.4219
Q53.2188 48.9219 51.5312 44.8906
Q49.8594 40.875 45.4062 35.4062
Q44.1875 33.9844 37.6406 27.2188
Q31.1094 20.4531 19.1875 8.29688" id="BitstreamVeraSans-Roman-32"/>
      </defs>
      <g transform="translate(222.834867295 256.1165625)scale(0.1 -0.1)">
       <use xlink:href="#BitstreamVeraSans-Roman-32"/>
       <use x="63.623046875" xlink:href="#BitstreamVeraSans-Roman-30"/>
       <use x="127.24609375" xlink:href="#BitstreamVeraSans-Roman-30"/>
      </g>
     </g>
    </g>
    <g id="xtick_6">
     <g id="line2d_25">
      <g>
       <use style="stroke:#000000;stroke-width:0.5;" x="277.543193493" xlink:href="#m93b0483c22" y="244.518125"/>
      </g>
     </g>
     <g id="line2d_26">
      <g>
       <use style="stroke:#000000;stroke-width:0.5;" x="277.543193493" xlink:href="#m741efc42ff" y="21.318125"/>
      </g>
     </g>
     <g id="text_6">
      <!-- 250 -->
      <g transform="translate(268.697880993 256.1165625)scale(0.1 -0.1)">
       <use xlink:href="#BitstreamVeraSans-Roman-32"/>
       <use x="63.623046875" xlink:href="#BitstreamVeraSans-Roman-35"/>
       <use x="127.24609375" xlink:href="#BitstreamVeraSans-Roman-30"/>
      </g>
     </g>
    </g>
    <g id="xtick_7">
     <g id="line2d_27">
      <g>
       <use style="stroke:#000000;stroke-width:0.5;" x="323.406207192" xlink:href="#m93b0483c22" y="244.518125"/>
      </g>
     </g>
     <g id="line2d_28">
      <g>
       <use style="stroke:#000000;stroke-width:0.5;" x="323.406207192" xlink:href="#m741efc42ff" y="21.318125"/>
      </g>
     </g>
     <g id="text_7">
      <!-- 300 -->
      <defs>
       <path d="
M40.5781 39.3125
Q47.6562 37.7969 51.625 33
Q55.6094 28.2188 55.6094 21.1875
Q55.6094 10.4062 48.1875 4.48438
Q40.7656 -1.42188 27.0938 -1.42188
Q22.5156 -1.42188 17.6562 -0.515625
Q12.7969 0.390625 7.625 2.20312
L7.625 11.7188
Q11.7188 9.32812 16.5938 8.10938
Q21.4844 6.89062 26.8125 6.89062
Q36.0781 6.89062 40.9375 10.5469
Q45.7969 14.2031 45.7969 21.1875
Q45.7969 27.6406 41.2812 31.2656
Q36.7656 34.9062 28.7188 34.9062
L20.2188 34.9062
L20.2188 43.0156
L29.1094 43.0156
Q36.375 43.0156 40.2344 45.9219
Q44.0938 48.8281 44.0938 54.2969
Q44.0938 59.9062 40.1094 62.9062
Q36.1406 65.9219 28.7188 65.9219
Q24.6562 65.9219 20.0156 65.0312
Q15.375 64.1562 9.8125 62.3125
L9.8125 71.0938
Q15.4375 72.6562 20.3438 73.4375
Q25.25 74.2188 29.5938 74.2188
Q40.8281 74.2188 47.3594 69.1094
Q53.9062 64.0156 53.9062 55.3281
Q53.9062 49.2656 50.4375 45.0938
Q46.9688 40.9219 40.5781 39.3125" id="BitstreamVeraSans-Roman-33"/>
      </defs>
      <g transform="translate(314.575738442 256.1165625)scale(0.1 -0.1)">
       <use xlink:href="#BitstreamVeraSans-Roman-33"/>
       <use x="63.623046875" xlink:href="#BitstreamVeraSans-Roman-30"/>
       <use x="127.24609375" xlink:href="#BitstreamVeraSans-Roman-30"/>
      </g>
     </g>
    </g>
    <g id="xtick_8">
     <g id="line2d_29">
      <g>
       <use style="stroke:#000000;stroke-width:0.5;" x="369.26922089" xlink:href="#m93b0483c22" y="244.518125"/>
      </g>
     </g>
     <g id="line2d_30">
      <g>
       <use style="stroke:#000000;stroke-width:0.5;" x="369.26922089" xlink:href="#m741efc42ff" y="21.318125"/>
      </g>
     </g>
     <g id="text_8">
      <!-- 350 -->
      <g transform="translate(360.43875214 256.1165625)scale(0.1 -0.1)">
       <use xlink:href="#BitstreamVeraSans-Roman-33"/>
       <use x="63.623046875" xlink:href="#BitstreamVeraSans-Roman-35"/>
       <use x="127.24609375" xlink:href="#BitstreamVeraSans-Roman-30"/>
      </g>
     </g>
    </g>
    <g id="text_9">
     <!-- Julian day -->
     <defs>
      <path id="BitstreamVeraSans-Roman-20"/>
      <path d="
M9.8125 72.9062
L19.6719 72.9062
L19.6719 5.07812
Q19.6719 -8.10938 14.6719 -14.0625
Q9.67188 -20.0156 -1.42188 -20.0156
L-5.17188 -20.0156
L-5.17188 -11.7188
L-2.09375 -11.7188
Q4.4375 -11.7188 7.125 -8.04688
Q9.8125 -4.39062 9.8125 5.07812
z
" id="BitstreamVeraSans-Roman-4a"/>
      <path d="
M54.8906 33.0156
L54.8906 0
L45.9062 0
L45.9062 32.7188
Q45.9062 40.4844 42.875 44.3281
Q39.8438 48.1875 33.7969 48.1875
Q26.5156 48.1875 22.3125 43.5469
Q18.1094 38.9219 18.1094 30.9062
L18.1094 0
L9.07812 0
L9.07812 54.6875
L18.1094 54.6875
L18.1094 46.1875
Q21.3438 51.125 25.7031 53.5625
Q30.0781 56 35.7969 56
Q45.2188 56 50.0469 50.1719
Q54.8906 44.3438 54.8906 33.0156" id="BitstreamVeraSans-Roman-6e"/>
      <path d="
M9.42188 75.9844
L18.4062 75.9844
L18.4062 0
L9.42188 0
z
" id="BitstreamVeraSans-Roman-6c"/>
      <path d="
M9.42188 54.6875
L18.4062 54.6875
L18.4062 0
L9.42188 0
z

M9.42188 75.9844
L18.4062 75.9844
L18.4062 64.5938
L9.42188 64.5938
z
" id="BitstreamVeraSans-Roman-69"/>
      <path d="
M32.1719 -5.07812
Q28.375 -14.8438 24.75 -17.8125
Q21.1406 -20.7969 15.0938 -20.7969
L7.90625 -20.7969
L7.90625 -13.2812
L13.1875 -13.2812
Q16.8906 -13.2812 18.9375 -11.5156
Q21 -9.76562 23.4844 -3.21875
L25.0938 0.875
L2.98438 54.6875
L12.5 54.6875
L29.5938 11.9219
L46.6875 54.6875
L56.2031 54.6875
z
" id="BitstreamVeraSans-Roman-79"/>
      <path d="
M45.4062 46.3906
L45.4062 75.9844
L54.3906 75.9844
L54.3906 0
L45.4062 0
L45.4062 8.20312
Q42.5781 3.32812 38.25 0.953125
Q33.9375 -1.42188 27.875 -1.42188
Q17.9688 -1.42188 11.7344 6.48438
Q5.51562 14.4062 5.51562 27.2969
Q5.51562 40.1875 11.7344 48.0938
Q17.9688 56 27.875 56
Q33.9375 56 38.25 53.625
Q42.5781 51.2656 45.4062 46.3906
M14.7969 27.2969
Q14.7969 17.3906 18.875 11.75
Q22.9531 6.10938 30.0781 6.10938
Q37.2031 6.10938 41.2969 11.75
Q45.4062 17.3906 45.4062 27.2969
Q45.4062 37.2031 41.2969 42.8438
Q37.2031 48.4844 30.0781 48.4844
Q22.9531 48.4844 18.875 42.8438
Q14.7969 37.2031 14.7969 27.2969" id="BitstreamVeraSans-Roman-64"/>
      <path d="
M8.5 21.5781
L8.5 54.6875
L17.4844 54.6875
L17.4844 21.9219
Q17.4844 14.1562 20.5 10.2656
Q23.5312 6.39062 29.5938 6.39062
Q36.8594 6.39062 41.0781 11.0312
Q45.3125 15.6719 45.3125 23.6875
L45.3125 54.6875
L54.2969 54.6875
L54.2969 0
L45.3125 0
L45.3125 8.40625
Q42.0469 3.42188 37.7188 1
Q33.4062 -1.42188 27.6875 -1.42188
Q18.2656 -1.42188 13.375 4.4375
Q8.5 10.2969 8.5 21.5781" id="BitstreamVeraSans-Roman-75"/>
      <path d="
M34.2812 27.4844
Q23.3906 27.4844 19.1875 25
Q14.9844 22.5156 14.9844 16.5
Q14.9844 11.7188 18.1406 8.90625
Q21.2969 6.10938 26.7031 6.10938
Q34.1875 6.10938 38.7031 11.4062
Q43.2188 16.7031 43.2188 25.4844
L43.2188 27.4844
z

M52.2031 31.2031
L52.2031 0
L43.2188 0
L43.2188 8.29688
Q40.1406 3.32812 35.5469 0.953125
Q30.9531 -1.42188 24.3125 -1.42188
Q15.9219 -1.42188 10.9531 3.29688
Q6 8.01562 6 15.9219
Q6 25.1406 12.1719 29.8281
Q18.3594 34.5156 30.6094 34.5156
L43.2188 34.5156
L43.2188 35.4062
Q43.2188 41.6094 39.1406 45
Q35.0625 48.3906 27.6875 48.3906
Q23 48.3906 18.5469 47.2656
Q14.1094 46.1406 10.0156 43.8906
L10.0156 52.2031
Q14.9375 54.1094 19.5781 55.0469
Q24.2188 56 28.6094 56
Q40.4844 56 46.3438 49.8438
Q52.2031 43.7031 52.2031 31.2031" id="BitstreamVeraSans-Roman-61"/>
     </defs>
     <g transform="translate(191.07734375 270.7946875)scale(0.1 -0.1)">
      <use xlink:href="#BitstreamVeraSans-Roman-4a"/>
      <use x="29.4921875" xlink:href="#BitstreamVeraSans-Roman-75"/>
      <use x="92.87109375" xlink:href="#BitstreamVeraSans-Roman-6c"/>
      <use x="120.654296875" xlink:href="#BitstreamVeraSans-Roman-69"/>
      <use x="148.4375" xlink:href="#BitstreamVeraSans-Roman-61"/>
      <use x="209.716796875" xlink:href="#BitstreamVeraSans-Roman-6e"/>
      <use x="273.095703125" xlink:href="#BitstreamVeraSans-Roman-20"/>
      <use x="304.8828125" xlink:href="#BitstreamVeraSans-Roman-64"/>
      <use x="368.359375" xlink:href="#BitstreamVeraSans-Roman-61"/>
      <use x="429.638671875" xlink:href="#BitstreamVeraSans-Roman-79"/>
     </g>
    </g>
   </g>
   <g id="matplotlib.axis_2">
    <g id="ytick_1">
     <g id="line2d_31">
      <defs>
       <path d="
M0 0
L4 0" id="m728421d6d4" style="stroke:#000000;stroke-width:0.5;"/>
      </defs>
      <g>
       <use style="stroke:#000000;stroke-width:0.5;" x="48.228125" xlink:href="#m728421d6d4" y="244.518125"/>
      </g>
     </g>
     <g id="line2d_32">
      <defs>
       <path d="
M0 0
L-4 0" id="mcb0005524f" style="stroke:#000000;stroke-width:0.5;"/>
      </defs>
      <g>
       <use style="stroke:#000000;stroke-width:0.5;" x="383.028125" xlink:href="#mcb0005524f" y="244.518125"/>
      </g>
     </g>
     <g id="text_10">
      <!-- −0.5 -->
      <defs>
       <path d="
M10.5938 35.5
L73.1875 35.5
L73.1875 27.2031
L10.5938 27.2031
z
" id="BitstreamVeraSans-Roman-2212"/>
       <path d="
M10.6875 12.4062
L21 12.4062
L21 0
L10.6875 0
z
" id="BitstreamVeraSans-Roman-2e"/>
      </defs>
      <g transform="translate(21.878125 247.2775)scale(0.1 -0.1)">
       <use xlink:href="#BitstreamVeraSans-Roman-2212"/>
       <use x="83.7890625" xlink:href="#BitstreamVeraSans-Roman-30"/>
       <use x="147.412109375" xlink:href="#BitstreamVeraSans-Roman-2e"/>
       <use x="179.19921875" xlink:href="#BitstreamVeraSans-Roman-35"/>
      </g>
     </g>
    </g>
    <g id="ytick_2">
     <g id="line2d_33">
      <g>
       <use style="stroke:#000000;stroke-width:0.5;" x="48.228125" xlink:href="#m728421d6d4" y="219.718125"/>
      </g>
     </g>
     <g id="line2d_34">
      <g>
       <use style="stroke:#000000;stroke-width:0.5;" x="383.028125" xlink:href="#mcb0005524f" y="219.718125"/>
      </g>
     </g>
     <g id="text_11">
      <!-- 0.0 -->
      <g transform="translate(29.6484375 222.4775)scale(0.1 -0.1)">
       <use xlink:href="#BitstreamVeraSans-Roman-30"/>
       <use x="63.623046875" xlink:href="#BitstreamVeraSans-Roman-2e"/>
       <use x="95.41015625" xlink:href="#BitstreamVeraSans-Roman-30"/>
      </g>
     </g>
    </g>
    <g id="ytick_3">
     <g id="line2d_35">
      <g>
       <use style="stroke:#000000;stroke-width:0.5;" x="48.228125" xlink:href="#m728421d6d4" y="194.918125"/>
      </g>
     </g>
     <g id="line2d_36">
      <g>
       <use style="stroke:#000000;stroke-width:0.5;" x="383.028125" xlink:href="#mcb0005524f" y="194.918125"/>
      </g>
     </g>
     <g id="text_12">
      <!-- 0.5 -->
      <g transform="translate(29.8578125 197.6775)scale(0.1 -0.1)">
       <use xlink:href="#BitstreamVeraSans-Roman-30"/>
       <use x="63.623046875" xlink:href="#BitstreamVeraSans-Roman-2e"/>
       <use x="95.41015625" xlink:href="#BitstreamVeraSans-Roman-35"/>
      </g>
     </g>
    </g>
    <g id="ytick_4">
     <g id="line2d_37">
      <g>
       <use style="stroke:#000000;stroke-width:0.5;" x="48.228125" xlink:href="#m728421d6d4" y="170.118125"/>
      </g>
     </g>
     <g id="line2d_38">
      <g>
       <use style="stroke:#000000;stroke-width:0.5;" x="383.028125" xlink:href="#mcb0005524f" y="170.118125"/>
      </g>
     </g>
     <g id="text_13">
      <!-- 1.0 -->
      <g transform="translate(30.0875 172.8775)scale(0.1 -0.1)">
       <use xlink:href="#BitstreamVeraSans-Roman-31"/>
       <use x="63.623046875" xlink:href="#BitstreamVeraSans-Roman-2e"/>
       <use x="95.41015625" xlink:href="#BitstreamVeraSans-Roman-30"/>
      </g>
     </g>
    </g>
    <g id="ytick_5">
     <g id="line2d_39">
      <g>
       <use style="stroke:#000000;stroke-width:0.5;" x="48.228125" xlink:href="#m728421d6d4" y="145.318125"/>
      </g>
     </g>
     <g id="line2d_40">
      <g>
       <use style="stroke:#000000;stroke-width:0.5;" x="383.028125" xlink:href="#mcb0005524f" y="145.318125"/>
      </g>
     </g>
     <g id="text_14">
      <!-- 1.5 -->
      <g transform="translate(30.296875 148.0775)scale(0.1 -0.1)">
       <use xlink:href="#BitstreamVeraSans-Roman-31"/>
       <use x="63.623046875" xlink:href="#BitstreamVeraSans-Roman-2e"/>
       <use x="95.41015625" xlink:href="#BitstreamVeraSans-Roman-35"/>
      </g>
     </g>
    </g>
    <g id="ytick_6">
     <g id="line2d_41">
      <g>
       <use style="stroke:#000000;stroke-width:0.5;" x="48.228125" xlink:href="#m728421d6d4" y="120.518125"/>
      </g>
     </g>
     <g id="line2d_42">
      <g>
       <use style="stroke:#000000;stroke-width:0.5;" x="383.028125" xlink:href="#mcb0005524f" y="120.518125"/>
      </g>
     </g>
     <g id="text_15">
      <!-- 2.0 -->
      <g transform="translate(29.721875 123.2775)scale(0.1 -0.1)">
       <use xlink:href="#BitstreamVeraSans-Roman-32"/>
       <use x="63.623046875" xlink:href="#BitstreamVeraSans-Roman-2e"/>
       <use x="95.41015625" xlink:href="#BitstreamVeraSans-Roman-30"/>
      </g>
     </g>
    </g>
    <g id="ytick_7">
     <g id="line2d_43">
      <g>
       <use style="stroke:#000000;stroke-width:0.5;" x="48.228125" xlink:href="#m728421d6d4" y="95.718125"/>
      </g>
     </g>
     <g id="line2d_44">
      <g>
       <use style="stroke:#000000;stroke-width:0.5;" x="383.028125" xlink:href="#mcb0005524f" y="95.718125"/>
      </g>
     </g>
     <g id="text_16">
      <!-- 2.5 -->
      <g transform="translate(29.93125 98.4775)scale(0.1 -0.1)">
       <use xlink:href="#BitstreamVeraSans-Roman-32"/>
       <use x="63.623046875" xlink:href="#BitstreamVeraSans-Roman-2e"/>
       <use x="95.41015625" xlink:href="#BitstreamVeraSans-Roman-35"/>
      </g>
     </g>
    </g>
    <g id="ytick_8">
     <g id="line2d_45">
      <g>
       <use style="stroke:#000000;stroke-width:0.5;" x="48.228125" xlink:href="#m728421d6d4" y="70.918125"/>
      </g>
     </g>
     <g id="line2d_46">
      <g>
       <use style="stroke:#000000;stroke-width:0.5;" x="383.028125" xlink:href="#mcb0005524f" y="70.918125"/>
      </g>
     </g>
     <g id="text_17">
      <!-- 3.0 -->
      <g transform="translate(29.7515625 73.6775)scale(0.1 -0.1)">
       <use xlink:href="#BitstreamVeraSans-Roman-33"/>
       <use x="63.623046875" xlink:href="#BitstreamVeraSans-Roman-2e"/>
       <use x="95.41015625" xlink:href="#BitstreamVeraSans-Roman-30"/>
      </g>
     </g>
    </g>
    <g id="ytick_9">
     <g id="line2d_47">
      <g>
       <use style="stroke:#000000;stroke-width:0.5;" x="48.228125" xlink:href="#m728421d6d4" y="46.118125"/>
      </g>
     </g>
     <g id="line2d_48">
      <g>
       <use style="stroke:#000000;stroke-width:0.5;" x="383.028125" xlink:href="#mcb0005524f" y="46.118125"/>
      </g>
     </g>
     <g id="text_18">
      <!-- 3.5 -->
      <g transform="translate(29.9609375 48.8775)scale(0.1 -0.1)">
       <use xlink:href="#BitstreamVeraSans-Roman-33"/>
       <use x="63.623046875" xlink:href="#BitstreamVeraSans-Roman-2e"/>
       <use x="95.41015625" xlink:href="#BitstreamVeraSans-Roman-35"/>
      </g>
     </g>
    </g>
    <g id="ytick_10">
     <g id="line2d_49">
      <g>
       <use style="stroke:#000000;stroke-width:0.5;" x="48.228125" xlink:href="#m728421d6d4" y="21.318125"/>
      </g>
     </g>
     <g id="line2d_50">
      <g>
       <use style="stroke:#000000;stroke-width:0.5;" x="383.028125" xlink:href="#mcb0005524f" y="21.318125"/>
      </g>
     </g>
     <g id="text_19">
      <!-- 4.0 -->
      <defs>
       <path d="
M37.7969 64.3125
L12.8906 25.3906
L37.7969 25.3906
z

M35.2031 72.9062
L47.6094 72.9062
L47.6094 25.3906
L58.0156 25.3906
L58.0156 17.1875
L47.6094 17.1875
L47.6094 0
L37.7969 0
L37.7969 17.1875
L4.89062 17.1875
L4.89062 26.7031
z
" id="BitstreamVeraSans-Roman-34"/>
      </defs>
      <g transform="translate(29.478125 24.0775)scale(0.1 -0.1)">
       <use xlink:href="#BitstreamVeraSans-Roman-34"/>
       <use x="63.623046875" xlink:href="#BitstreamVeraSans-Roman-2e"/>
       <use x="95.41015625" xlink:href="#BitstreamVeraSans-Roman-30"/>
      </g>
     </g>
    </g>
    <g id="text_20">
     <!-- PET (mm/day) -->
     <defs>
      <path d="
M52 44.1875
Q55.375 50.25 60.0625 53.125
Q64.75 56 71.0938 56
Q79.6406 56 84.2812 50.0156
Q88.9219 44.0469 88.9219 33.0156
L88.9219 0
L79.8906 0
L79.8906 32.7188
Q79.8906 40.5781 77.0938 44.375
Q74.3125 48.1875 68.6094 48.1875
Q61.625 48.1875 57.5625 43.5469
Q53.5156 38.9219 53.5156 30.9062
L53.5156 0
L44.4844 0
L44.4844 32.7188
Q44.4844 40.625 41.7031 44.4062
Q38.9219 48.1875 33.1094 48.1875
Q26.2188 48.1875 22.1562 43.5312
Q18.1094 38.875 18.1094 30.9062
L18.1094 0
L9.07812 0
L9.07812 54.6875
L18.1094 54.6875
L18.1094 46.1875
Q21.1875 51.2188 25.4844 53.6094
Q29.7812 56 35.6875 56
Q41.6562 56 45.8281 52.9688
Q50 49.9531 52 44.1875" id="BitstreamVeraSans-Roman-6d"/>
      <path d="
M8.01562 75.875
L15.8281 75.875
Q23.1406 64.3594 26.7812 53.3125
Q30.4219 42.2812 30.4219 31.3906
Q30.4219 20.4531 26.7812 9.375
Q23.1406 -1.70312 15.8281 -13.1875
L8.01562 -13.1875
Q14.5 -2 17.7031 9.0625
Q20.9062 20.125 20.9062 31.3906
Q20.9062 42.6719 17.7031 53.6562
Q14.5 64.6562 8.01562 75.875" id="BitstreamVeraSans-Roman-29"/>
      <path d="
M31 75.875
Q24.4688 64.6562 21.2812 53.6562
Q18.1094 42.6719 18.1094 31.3906
Q18.1094 20.125 21.3125 9.0625
Q24.5156 -2 31 -13.1875
L23.1875 -13.1875
Q15.875 -1.70312 12.2344 9.375
Q8.59375 20.4531 8.59375 31.3906
Q8.59375 42.2812 12.2031 53.3125
Q15.8281 64.3594 23.1875 75.875
z
" id="BitstreamVeraSans-Roman-28"/>
      <path d="
M19.6719 64.7969
L19.6719 37.4062
L32.0781 37.4062
Q38.9688 37.4062 42.7188 40.9688
Q46.4844 44.5312 46.4844 51.125
Q46.4844 57.6719 42.7188 61.2344
Q38.9688 64.7969 32.0781 64.7969
z

M9.8125 72.9062
L32.0781 72.9062
Q44.3438 72.9062 50.6094 67.3594
Q56.8906 61.8125 56.8906 51.125
Q56.8906 40.3281 50.6094 34.8125
Q44.3438 29.2969 32.0781 29.2969
L19.6719 29.2969
L19.6719 0
L9.8125 0
z
" id="BitstreamVeraSans-Roman-50"/>
      <path d="
M9.8125 72.9062
L55.9062 72.9062
L55.9062 64.5938
L19.6719 64.5938
L19.6719 43.0156
L54.3906 43.0156
L54.3906 34.7188
L19.6719 34.7188
L19.6719 8.29688
L56.7812 8.29688
L56.7812 0
L9.8125 0
z
" id="BitstreamVeraSans-Roman-45"/>
      <path d="
M-0.296875 72.9062
L61.375 72.9062
L61.375 64.5938
L35.5 64.5938
L35.5 0
L25.5938 0
L25.5938 64.5938
L-0.296875 64.5938
z
" id="BitstreamVeraSans-Roman-54"/>
      <path d="
M25.3906 72.9062
L33.6875 72.9062
L8.29688 -9.28125
L0 -9.28125
z
" id="BitstreamVeraSans-Roman-2f"/>
     </defs>
     <g transform="translate(14.7984375 167.82984375)rotate(-90.0)scale(0.1 -0.1)">
      <use xlink:href="#BitstreamVeraSans-Roman-50"/>
      <use x="60.302734375" xlink:href="#BitstreamVeraSans-Roman-45"/>
      <use x="123.486328125" xlink:href="#BitstreamVeraSans-Roman-54"/>
      <use x="184.5703125" xlink:href="#BitstreamVeraSans-Roman-20"/>
      <use x="216.357421875" xlink:href="#BitstreamVeraSans-Roman-28"/>
      <use x="255.37109375" xlink:href="#BitstreamVeraSans-Roman-6d"/>
      <use x="352.783203125" xlink:href="#BitstreamVeraSans-Roman-6d"/>
      <use x="450.1953125" xlink:href="#BitstreamVeraSans-Roman-2f"/>
      <use x="483.88671875" xlink:href="#BitstreamVeraSans-Roman-64"/>
      <use x="547.36328125" xlink:href="#BitstreamVeraSans-Roman-61"/>
      <use x="608.642578125" xlink:href="#BitstreamVeraSans-Roman-79"/>
      <use x="667.822265625" xlink:href="#BitstreamVeraSans-Roman-29"/>
     </g>
    </g>
   </g>
   <g id="text_21">
    <!-- daily bare PET at Treeline -->
    <defs>
     <path d="
M56.2031 29.5938
L56.2031 25.2031
L14.8906 25.2031
Q15.4844 15.9219 20.4844 11.0625
Q25.4844 6.20312 34.4219 6.20312
Q39.5938 6.20312 44.4531 7.46875
Q49.3125 8.73438 54.1094 11.2812
L54.1094 2.78125
Q49.2656 0.734375 44.1875 -0.34375
Q39.1094 -1.42188 33.8906 -1.42188
Q20.7969 -1.42188 13.1562 6.1875
Q5.51562 13.8125 5.51562 26.8125
Q5.51562 40.2344 12.7656 48.1094
Q20.0156 56 32.3281 56
Q43.3594 56 49.7812 48.8906
Q56.2031 41.7969 56.2031 29.5938
M47.2188 32.2344
Q47.125 39.5938 43.0938 43.9844
Q39.0625 48.3906 32.4219 48.3906
Q24.9062 48.3906 20.3906 44.1406
Q15.875 39.8906 15.1875 32.1719
z
" id="BitstreamVeraSans-Roman-65"/>
     <path d="
M18.3125 70.2188
L18.3125 54.6875
L36.8125 54.6875
L36.8125 47.7031
L18.3125 47.7031
L18.3125 18.0156
Q18.3125 11.3281 20.1406 9.42188
Q21.9688 7.51562 27.5938 7.51562
L36.8125 7.51562
L36.8125 0
L27.5938 0
Q17.1875 0 13.2344 3.875
Q9.28125 7.76562 9.28125 18.0156
L9.28125 47.7031
L2.6875 47.7031
L2.6875 54.6875
L9.28125 54.6875
L9.28125 70.2188
z
" id="BitstreamVeraSans-Roman-74"/>
     <path d="
M41.1094 46.2969
Q39.5938 47.1719 37.8125 47.5781
Q36.0312 48 33.8906 48
Q26.2656 48 22.1875 43.0469
Q18.1094 38.0938 18.1094 28.8125
L18.1094 0
L9.07812 0
L9.07812 54.6875
L18.1094 54.6875
L18.1094 46.1875
Q20.9531 51.1719 25.4844 53.5781
Q30.0312 56 36.5312 56
Q37.4531 56 38.5781 55.875
Q39.7031 55.7656 41.0625 55.5156
z
" id="BitstreamVeraSans-Roman-72"/>
     <path d="
M48.6875 27.2969
Q48.6875 37.2031 44.6094 42.8438
Q40.5312 48.4844 33.4062 48.4844
Q26.2656 48.4844 22.1875 42.8438
Q18.1094 37.2031 18.1094 27.2969
Q18.1094 17.3906 22.1875 11.75
Q26.2656 6.10938 33.4062 6.10938
Q40.5312 6.10938 44.6094 11.75
Q48.6875 17.3906 48.6875 27.2969
M18.1094 46.3906
Q20.9531 51.2656 25.2656 53.625
Q29.5938 56 35.5938 56
Q45.5625 56 51.7812 48.0938
Q58.0156 40.1875 58.0156 27.2969
Q58.0156 14.4062 51.7812 6.48438
Q45.5625 -1.42188 35.5938 -1.42188
Q29.5938 -1.42188 25.2656 0.953125
Q20.9531 3.32812 18.1094 8.20312
L18.1094 0
L9.07812 0
L9.07812 75.9844
L18.1094 75.9844
z
" id="BitstreamVeraSans-Roman-62"/>
    </defs>
    <g transform="translate(140.0140625 16.318125)scale(0.12 -0.12)">
     <use xlink:href="#BitstreamVeraSans-Roman-64"/>
     <use x="63.4765625" xlink:href="#BitstreamVeraSans-Roman-61"/>
     <use x="124.755859375" xlink:href="#BitstreamVeraSans-Roman-69"/>
     <use x="152.5390625" xlink:href="#BitstreamVeraSans-Roman-6c"/>
     <use x="180.322265625" xlink:href="#BitstreamVeraSans-Roman-79"/>
     <use x="239.501953125" xlink:href="#BitstreamVeraSans-Roman-20"/>
     <use x="271.2890625" xlink:href="#BitstreamVeraSans-Roman-62"/>
     <use x="334.765625" xlink:href="#BitstreamVeraSans-Roman-61"/>
     <use x="396.044921875" xlink:href="#BitstreamVeraSans-Roman-72"/>
     <use x="434.908203125" xlink:href="#BitstreamVeraSans-Roman-65"/>
     <use x="496.431640625" xlink:href="#BitstreamVeraSans-Roman-20"/>
     <use x="528.21875" xlink:href="#BitstreamVeraSans-Roman-50"/>
     <use x="588.521484375" xlink:href="#BitstreamVeraSans-Roman-45"/>
     <use x="651.705078125" xlink:href="#BitstreamVeraSans-Roman-54"/>
     <use x="712.7890625" xlink:href="#BitstreamVeraSans-Roman-20"/>
     <use x="744.576171875" xlink:href="#BitstreamVeraSans-Roman-61"/>
     <use x="805.85546875" xlink:href="#BitstreamVeraSans-Roman-74"/>
     <use x="845.064453125" xlink:href="#BitstreamVeraSans-Roman-20"/>
     <use x="876.8515625" xlink:href="#BitstreamVeraSans-Roman-54"/>
     <use x="923.185546875" xlink:href="#BitstreamVeraSans-Roman-72"/>
     <use x="962.048828125" xlink:href="#BitstreamVeraSans-Roman-65"/>
     <use x="1023.57226562" xlink:href="#BitstreamVeraSans-Roman-65"/>
     <use x="1085.09570312" xlink:href="#BitstreamVeraSans-Roman-6c"/>
     <use x="1112.87890625" xlink:href="#BitstreamVeraSans-Roman-69"/>
     <use x="1140.66210938" xlink:href="#BitstreamVeraSans-Roman-6e"/>
     <use x="1204.04101562" xlink:href="#BitstreamVeraSans-Roman-65"/>
    </g>
   </g>
   <g id="legend_1">
    <g id="patch_7">
     <path d="
M304.841 277.511
L377.028 277.511
L377.028 27.3181
L304.841 27.3181
z
" style="fill:#ffffff;stroke:#000000;stroke-linejoin:miter;"/>
    </g>
    <g id="line2d_51">
     <path d="
M313.241 37.0362
L330.041 37.0362" style="fill:none;stroke:#0000ff;stroke-linecap:square;"/>
    </g>
    <g id="line2d_52"/>
    <g id="text_22">
     <!-- 1999 -->
     <defs>
      <path d="
M10.9844 1.51562
L10.9844 10.5
Q14.7031 8.73438 18.5 7.8125
Q22.3125 6.89062 25.9844 6.89062
Q35.75 6.89062 40.8906 13.4531
Q46.0469 20.0156 46.7812 33.4062
Q43.9531 29.2031 39.5938 26.9531
Q35.25 24.7031 29.9844 24.7031
Q19.0469 24.7031 12.6719 31.3125
Q6.29688 37.9375 6.29688 49.4219
Q6.29688 60.6406 12.9375 67.4219
Q19.5781 74.2188 30.6094 74.2188
Q43.2656 74.2188 49.9219 64.5156
Q56.5938 54.8281 56.5938 36.375
Q56.5938 19.1406 48.4062 8.85938
Q40.2344 -1.42188 26.4219 -1.42188
Q22.7031 -1.42188 18.8906 -0.6875
Q15.0938 0.046875 10.9844 1.51562
M30.6094 32.4219
Q37.25 32.4219 41.125 36.9531
Q45.0156 41.5 45.0156 49.4219
Q45.0156 57.2812 41.125 61.8438
Q37.25 66.4062 30.6094 66.4062
Q23.9688 66.4062 20.0938 61.8438
Q16.2188 57.2812 16.2188 49.4219
Q16.2188 41.5 20.0938 36.9531
Q23.9688 32.4219 30.6094 32.4219" id="BitstreamVeraSans-Roman-39"/>
     </defs>
     <g transform="translate(343.240625 41.23625)scale(0.12 -0.12)">
      <use xlink:href="#BitstreamVeraSans-Roman-31"/>
      <use x="63.623046875" xlink:href="#BitstreamVeraSans-Roman-39"/>
      <use x="127.24609375" xlink:href="#BitstreamVeraSans-Roman-39"/>
      <use x="190.869140625" xlink:href="#BitstreamVeraSans-Roman-39"/>
     </g>
    </g>
    <g id="line2d_53">
     <path d="
M313.241 54.65
L330.041 54.65" style="fill:none;stroke:#008000;stroke-linecap:square;"/>
    </g>
    <g id="line2d_54"/>
    <g id="text_23">
     <!-- 2000 -->
     <g transform="translate(343.240625 58.85)scale(0.12 -0.12)">
      <use xlink:href="#BitstreamVeraSans-Roman-32"/>
      <use x="63.623046875" xlink:href="#BitstreamVeraSans-Roman-30"/>
      <use x="127.24609375" xlink:href="#BitstreamVeraSans-Roman-30"/>
      <use x="190.869140625" xlink:href="#BitstreamVeraSans-Roman-30"/>
     </g>
    </g>
    <g id="line2d_55">
     <path d="
M313.241 72.2638
L330.041 72.2638" style="fill:none;stroke:#ff0000;stroke-linecap:square;"/>
    </g>
    <g id="line2d_56"/>
    <g id="text_24">
     <!-- 2001 -->
     <g transform="translate(343.240625 76.46375)scale(0.12 -0.12)">
      <use xlink:href="#BitstreamVeraSans-Roman-32"/>
      <use x="63.623046875" xlink:href="#BitstreamVeraSans-Roman-30"/>
      <use x="127.24609375" xlink:href="#BitstreamVeraSans-Roman-30"/>
      <use x="190.869140625" xlink:href="#BitstreamVeraSans-Roman-31"/>
     </g>
    </g>
    <g id="line2d_57">
     <path d="
M313.241 89.8775
L330.041 89.8775" style="fill:none;stroke:#00bfbf;stroke-linecap:square;"/>
    </g>
    <g id="line2d_58"/>
    <g id="text_25">
     <!-- 2002 -->
     <g transform="translate(343.240625 94.0775)scale(0.12 -0.12)">
      <use xlink:href="#BitstreamVeraSans-Roman-32"/>
      <use x="63.623046875" xlink:href="#BitstreamVeraSans-Roman-30"/>
      <use x="127.24609375" xlink:href="#BitstreamVeraSans-Roman-30"/>
      <use x="190.869140625" xlink:href="#BitstreamVeraSans-Roman-32"/>
     </g>
    </g>
    <g id="line2d_59">
     <path d="
M313.241 107.491
L330.041 107.491" style="fill:none;stroke:#bf00bf;stroke-linecap:square;"/>
    </g>
    <g id="line2d_60"/>
    <g id="text_26">
     <!-- 2003 -->
     <g transform="translate(343.240625 111.69125)scale(0.12 -0.12)">
      <use xlink:href="#BitstreamVeraSans-Roman-32"/>
      <use x="63.623046875" xlink:href="#BitstreamVeraSans-Roman-30"/>
      <use x="127.24609375" xlink:href="#BitstreamVeraSans-Roman-30"/>
      <use x="190.869140625" xlink:href="#BitstreamVeraSans-Roman-33"/>
     </g>
    </g>
    <g id="line2d_61">
     <path d="
M313.241 125.105
L330.041 125.105" style="fill:none;stroke:#bfbf00;stroke-linecap:square;"/>
    </g>
    <g id="line2d_62"/>
    <g id="text_27">
     <!-- 2004 -->
     <g transform="translate(343.240625 129.305)scale(0.12 -0.12)">
      <use xlink:href="#BitstreamVeraSans-Roman-32"/>
      <use x="63.623046875" xlink:href="#BitstreamVeraSans-Roman-30"/>
      <use x="127.24609375" xlink:href="#BitstreamVeraSans-Roman-30"/>
      <use x="190.869140625" xlink:href="#BitstreamVeraSans-Roman-34"/>
     </g>
    </g>
    <g id="line2d_63">
     <path d="
M313.241 142.719
L330.041 142.719" style="fill:none;stroke:#000000;stroke-linecap:square;"/>
    </g>
    <g id="line2d_64"/>
    <g id="text_28">
     <!-- 2005 -->
     <g transform="translate(343.240625 146.91875)scale(0.12 -0.12)">
      <use xlink:href="#BitstreamVeraSans-Roman-32"/>
      <use x="63.623046875" xlink:href="#BitstreamVeraSans-Roman-30"/>
      <use x="127.24609375" xlink:href="#BitstreamVeraSans-Roman-30"/>
      <use x="190.869140625" xlink:href="#BitstreamVeraSans-Roman-35"/>
     </g>
    </g>
    <g id="line2d_65">
     <path d="
M313.241 160.332
L330.041 160.332" style="fill:none;stroke:#0000ff;stroke-linecap:square;"/>
    </g>
    <g id="line2d_66"/>
    <g id="text_29">
     <!-- 2006 -->
     <defs>
      <path d="
M33.0156 40.375
Q26.375 40.375 22.4844 35.8281
Q18.6094 31.2969 18.6094 23.3906
Q18.6094 15.5312 22.4844 10.9531
Q26.375 6.39062 33.0156 6.39062
Q39.6562 6.39062 43.5312 10.9531
Q47.4062 15.5312 47.4062 23.3906
Q47.4062 31.2969 43.5312 35.8281
Q39.6562 40.375 33.0156 40.375
M52.5938 71.2969
L52.5938 62.3125
Q48.875 64.0625 45.0938 64.9844
Q41.3125 65.9219 37.5938 65.9219
Q27.8281 65.9219 22.6719 59.3281
Q17.5312 52.7344 16.7969 39.4062
Q19.6719 43.6562 24.0156 45.9219
Q28.375 48.1875 33.5938 48.1875
Q44.5781 48.1875 50.9531 41.5156
Q57.3281 34.8594 57.3281 23.3906
Q57.3281 12.1562 50.6875 5.35938
Q44.0469 -1.42188 33.0156 -1.42188
Q20.3594 -1.42188 13.6719 8.26562
Q6.98438 17.9688 6.98438 36.375
Q6.98438 53.6562 15.1875 63.9375
Q23.3906 74.2188 37.2031 74.2188
Q40.9219 74.2188 44.7031 73.4844
Q48.4844 72.75 52.5938 71.2969" id="BitstreamVeraSans-Roman-36"/>
     </defs>
     <g transform="translate(343.240625 164.5325)scale(0.12 -0.12)">
      <use xlink:href="#BitstreamVeraSans-Roman-32"/>
      <use x="63.623046875" xlink:href="#BitstreamVeraSans-Roman-30"/>
      <use x="127.24609375" xlink:href="#BitstreamVeraSans-Roman-30"/>
      <use x="190.869140625" xlink:href="#BitstreamVeraSans-Roman-36"/>
     </g>
    </g>
    <g id="line2d_67">
     <path d="
M313.241 177.946
L330.041 177.946" style="fill:none;stroke:#008000;stroke-linecap:square;"/>
    </g>
    <g id="line2d_68"/>
    <g id="text_30">
     <!-- 2007 -->
     <defs>
      <path d="
M8.20312 72.9062
L55.0781 72.9062
L55.0781 68.7031
L28.6094 0
L18.3125 0
L43.2188 64.5938
L8.20312 64.5938
z
" id="BitstreamVeraSans-Roman-37"/>
     </defs>
     <g transform="translate(343.240625 182.14625)scale(0.12 -0.12)">
      <use xlink:href="#BitstreamVeraSans-Roman-32"/>
      <use x="63.623046875" xlink:href="#BitstreamVeraSans-Roman-30"/>
      <use x="127.24609375" xlink:href="#BitstreamVeraSans-Roman-30"/>
      <use x="190.869140625" xlink:href="#BitstreamVeraSans-Roman-37"/>
     </g>
    </g>
    <g id="line2d_69">
     <path d="
M313.241 195.56
L330.041 195.56" style="fill:none;stroke:#ff0000;stroke-linecap:square;"/>
    </g>
    <g id="line2d_70"/>
    <g id="text_31">
     <!-- 2008 -->
     <defs>
      <path d="
M31.7812 34.625
Q24.75 34.625 20.7188 30.8594
Q16.7031 27.0938 16.7031 20.5156
Q16.7031 13.9219 20.7188 10.1562
Q24.75 6.39062 31.7812 6.39062
Q38.8125 6.39062 42.8594 10.1719
Q46.9219 13.9688 46.9219 20.5156
Q46.9219 27.0938 42.8906 30.8594
Q38.875 34.625 31.7812 34.625
M21.9219 38.8125
Q15.5781 40.375 12.0312 44.7188
Q8.5 49.0781 8.5 55.3281
Q8.5 64.0625 14.7188 69.1406
Q20.9531 74.2188 31.7812 74.2188
Q42.6719 74.2188 48.875 69.1406
Q55.0781 64.0625 55.0781 55.3281
Q55.0781 49.0781 51.5312 44.7188
Q48 40.375 41.7031 38.8125
Q48.8281 37.1562 52.7969 32.3125
Q56.7812 27.4844 56.7812 20.5156
Q56.7812 9.90625 50.3125 4.23438
Q43.8438 -1.42188 31.7812 -1.42188
Q19.7344 -1.42188 13.25 4.23438
Q6.78125 9.90625 6.78125 20.5156
Q6.78125 27.4844 10.7812 32.3125
Q14.7969 37.1562 21.9219 38.8125
M18.3125 54.3906
Q18.3125 48.7344 21.8438 45.5625
Q25.3906 42.3906 31.7812 42.3906
Q38.1406 42.3906 41.7188 45.5625
Q45.3125 48.7344 45.3125 54.3906
Q45.3125 60.0625 41.7188 63.2344
Q38.1406 66.4062 31.7812 66.4062
Q25.3906 66.4062 21.8438 63.2344
Q18.3125 60.0625 18.3125 54.3906" id="BitstreamVeraSans-Roman-38"/>
     </defs>
     <g transform="translate(343.240625 199.76)scale(0.12 -0.12)">
      <use xlink:href="#BitstreamVeraSans-Roman-32"/>
      <use x="63.623046875" xlink:href="#BitstreamVeraSans-Roman-30"/>
      <use x="127.24609375" xlink:href="#BitstreamVeraSans-Roman-30"/>
      <use x="190.869140625" xlink:href="#BitstreamVeraSans-Roman-38"/>
     </g>
    </g>
    <g id="line2d_71">
     <path d="
M313.241 213.174
L330.041 213.174" style="fill:none;stroke:#00bfbf;stroke-linecap:square;"/>
    </g>
    <g id="line2d_72"/>
    <g id="text_32">
     <!-- 2009 -->
     <g transform="translate(343.240625 217.37375)scale(0.12 -0.12)">
      <use xlink:href="#BitstreamVeraSans-Roman-32"/>
      <use x="63.623046875" xlink:href="#BitstreamVeraSans-Roman-30"/>
      <use x="127.24609375" xlink:href="#BitstreamVeraSans-Roman-30"/>
      <use x="190.869140625" xlink:href="#BitstreamVeraSans-Roman-39"/>
     </g>
    </g>
    <g id="line2d_73">
     <path d="
M313.241 230.788
L330.041 230.788" style="fill:none;stroke:#bf00bf;stroke-linecap:square;"/>
    </g>
    <g id="line2d_74"/>
    <g id="text_33">
     <!-- 2010 -->
     <g transform="translate(343.240625 234.9875)scale(0.12 -0.12)">
      <use xlink:href="#BitstreamVeraSans-Roman-32"/>
      <use x="63.623046875" xlink:href="#BitstreamVeraSans-Roman-30"/>
      <use x="127.24609375" xlink:href="#BitstreamVeraSans-Roman-31"/>
      <use x="190.869140625" xlink:href="#BitstreamVeraSans-Roman-30"/>
     </g>
    </g>
    <g id="line2d_75">
     <path d="
M313.241 248.401
L330.041 248.401" style="fill:none;stroke:#bfbf00;stroke-linecap:square;"/>
    </g>
    <g id="line2d_76"/>
    <g id="text_34">
     <!-- 2011 -->
     <g transform="translate(343.240625 252.60125)scale(0.12 -0.12)">
      <use xlink:href="#BitstreamVeraSans-Roman-32"/>
      <use x="63.623046875" xlink:href="#BitstreamVeraSans-Roman-30"/>
      <use x="127.24609375" xlink:href="#BitstreamVeraSans-Roman-31"/>
      <use x="190.869140625" xlink:href="#BitstreamVeraSans-Roman-31"/>
     </g>
    </g>
    <g id="line2d_77">
     <path d="
M313.241 266.015
L330.041 266.015" style="fill:none;stroke:#000000;stroke-linecap:square;"/>
    </g>
    <g id="line2d_78"/>
    <g id="text_35">
     <!-- 2012 -->
     <g transform="translate(343.240625 270.215)scale(0.12 -0.12)">
      <use xlink:href="#BitstreamVeraSans-Roman-32"/>
      <use x="63.623046875" xlink:href="#BitstreamVeraSans-Roman-30"/>
      <use x="127.24609375" xlink:href="#BitstreamVeraSans-Roman-31"/>
      <use x="190.869140625" xlink:href="#BitstreamVeraSans-Roman-32"/>
     </g>
    </g>
   </g>
  </g>
 </g>
 <defs>
  <clipPath id="p60c6dbb31d">
   <rect height="223.2" width="334.8" x="48.228125" y="21.318125"/>
  </clipPath>
 </defs>
</svg>
