<?xml version="1.0" encoding="utf-8" standalone="no"?>
<!DOCTYPE svg PUBLIC "-//W3C//DTD SVG 1.1//EN"
  "http://www.w3.org/Graphics/SVG/1.1/DTD/svg11.dtd">
<!-- Created with matplotlib (http://matplotlib.org/) -->
<svg height="319pt" version="1.1" viewBox="0 0 378 319" width="378pt" xmlns="http://www.w3.org/2000/svg" xmlns:xlink="http://www.w3.org/1999/xlink">
 <defs>
  <style type="text/css">
*{stroke-linecap:butt;stroke-linejoin:round;}
  </style>
 </defs>
 <g id="figure_1">
  <g id="patch_1">
   <path d="
M0 319.938
L378.841 319.938
L378.841 0
L0 0
z
" style="fill:#ffffff;"/>
  </g>
  <g id="axes_1">
   <g id="patch_2">
    <path d="
M36.8406 244.518
L371.641 244.518
L371.641 21.3181
L36.8406 21.3181
z
" style="fill:#ffffff;"/>
   </g>
   <g id="line2d_1">
    <path clip-path="url(#pd0c402dd48)" d="
M0 0" style="fill:none;stroke:#0000ff;stroke-linecap:square;"/>
   </g>
   <g id="line2d_2">
    <path clip-path="url(#pd0c402dd48)" d="
M0 0" style="fill:none;stroke:#008000;stroke-linecap:square;"/>
   </g>
   <g id="line2d_3">
    <path clip-path="url(#pd0c402dd48)" d="
M0 0" style="fill:none;stroke:#ff0000;stroke-linecap:square;"/>
   </g>
   <g id="line2d_4">
    <path clip-path="url(#pd0c402dd48)" d="
M0 0" style="fill:none;stroke:#00bfbf;stroke-linecap:square;"/>
   </g>
   <g id="line2d_5">
    <path clip-path="url(#pd0c402dd48)" d="
M0 0" style="fill:none;stroke:#bf00bf;stroke-linecap:square;"/>
   </g>
   <g id="line2d_6">
    <path clip-path="url(#pd0c402dd48)" d="
M0 0" style="fill:none;stroke:#bfbf00;stroke-linecap:square;"/>
   </g>
   <g id="line2d_7">
    <path clip-path="url(#pd0c402dd48)" d="
M0 0" style="fill:none;stroke:#000000;stroke-linecap:square;"/>
   </g>
   <g id="line2d_8">
    <path clip-path="url(#pd0c402dd48)" d="
M0 0" style="fill:none;stroke:#0000ff;stroke-linecap:square;"/>
   </g>
   <g id="line2d_9">
    <path clip-path="url(#pd0c402dd48)" d="
M0 0" style="fill:none;stroke:#008000;stroke-linecap:square;"/>
   </g>
   <g id="line2d_10">
    <path clip-path="url(#pd0c402dd48)" d="
M36.8406 197.976
L37.7579 177.533
L38.6751 173.761
L39.5924 214.019
L40.5097 226.495
L41.4269 234.507
L42.3442 236.525
L43.2614 232.887
L44.1787 225.05
L45.096 229.565
M46.9305 227.497
L47.8477 227.887
L48.765 220.808
L49.6823 216.623
L50.5995 213.292
L51.5168 217.993
L52.434 212.124
L53.3513 208.197
L54.2686 234.01
L55.1858 237.992
L57.0204 208.538
L57.9376 205.279
L58.8549 219.666
L59.7721 213.241
L60.6894 210.542
L61.6067 229.248
L62.5239 236.243
M64.3584 242.137
L65.2757 236.546
L66.193 231.003
L67.1102 243.298
L68.0275 228.539
L68.9447 225.432
L69.862 229.422
L70.7793 238.601
L71.6965 215.441
L72.6138 225.502
L73.531 207.322
L74.4483 214.649
L75.3656 214.06
L76.2828 223.59
L77.2001 211.853
L78.1173 212.754
L79.0346 208.691
L79.9519 194.17
L80.8691 202.569
L81.7864 208.65
L83.6209 222.839
L84.5382 231.864
L85.4554 223.79
L86.3727 226.019
L87.2899 237.06
L88.2072 212.192
L89.1245 216.921
L90.0417 212.242
L90.959 204.384
L91.8762 219.303
L92.7935 225.615
L93.7108 211.35
L94.628 216.494
L95.5453 205.725
L96.4625 192.789
L97.3798 194.493
L98.2971 213.482
L99.2143 206.543
L100.132 203.652
L101.049 194.973
L101.966 184.782
L102.883 221.726
L103.801 230.965
L104.718 219.075
L105.635 218.896
L106.552 208.495
L107.47 237.856
L108.387 228.384
L110.221 197.154
L111.139 191.663
L112.056 188.578
L112.973 215.565
L113.89 218.745
L114.808 233.587
L115.725 207.448
L116.642 219.413
L117.56 210.833
L118.477 199.682
L119.394 208.077
L120.311 174.391
L121.229 174.776
L122.146 171.423
L123.063 199.89
L123.98 201.957
L125.815 218.469
L126.732 192.96
L127.649 205.745
L128.567 213.994
L129.484 191.115
L130.401 178.4
L131.318 178.165
L132.236 197.426
L133.153 212.109
L134.07 210.06
L134.987 187.313
L135.905 167.925
L137.739 202.645
L138.657 203.033
L139.574 175.675
L140.491 201.377
L141.408 203.655
L142.326 178.517
L143.243 160.494
L144.16 146.686
L145.077 149.529
L145.995 199.022
L146.912 192.23
L147.829 196.247
L148.746 164.032
L149.664 146.009
L150.581 151.477
L151.498 163.479
L153.333 203.498
L154.25 189.677
L155.167 184.953
L156.084 169.72
L157.002 176.925
L157.919 178.115
L158.836 182.625
L159.754 208.628
L160.671 172.719
L161.588 168.794
L162.505 161.035
L163.423 180.124
L164.34 187.351
L165.257 217.329
L166.174 221.208
L167.092 217.795
L168.009 217.881
L168.926 181.028
L169.843 197.79
L170.761 212.111
L171.678 214.144
L172.595 203.185
L173.512 206.178
L174.43 199.455
L175.347 193.797
L176.264 213.776
L177.181 183.657
L178.099 219.927
L179.016 210.765
L179.933 190.766
L180.85 185.091
L181.768 195.934
L182.685 169.267
L185.437 210.942
L186.354 189.813
L187.271 151.762
L188.189 146.373
L189.106 161.895
L190.023 174.967
L192.775 187.549
L193.692 186.748
L194.609 195.974
L195.527 190.217
L196.444 190.336
L197.361 193.293
L198.278 180.467
L199.196 187.517
L200.113 187.616
L201.03 187.406
L201.947 181.979
L202.865 190.95
L203.782 203.982
L204.699 196.193
L205.617 193.016
L206.534 193.53
L207.451 198.337
L208.368 198.858
L209.286 193.917
L210.203 186.458
L211.12 186.963
L212.037 183.155
L212.955 187.585
L213.872 189.401
L214.789 188.393
L215.706 176.726
L217.541 193.178
L218.458 193.494
L219.375 192.294
L221.21 187.134
L222.127 197.672
L223.044 213.383
L223.962 201.278
L224.879 194.536
L225.796 179.748
L226.714 187.172
L227.631 189.676
L228.548 197.54
L229.465 203.621
L230.383 195.819
L231.3 189.739
L232.217 193.374
L233.134 188.73
L234.052 193.764
L234.969 191.922
L235.886 193.46
L236.803 197.373
L237.721 199.296
L238.638 210.133
L239.555 202.34
L240.472 198.42
L241.39 198.01
L242.307 193.422
L243.224 187.1
L244.141 185.685
L245.059 193.689
L245.976 194.08
L246.893 193.996
L247.81 197.206
L248.728 206.826
L249.645 204.739
L250.562 211.672
L251.48 194.543
L252.397 189.002
L253.314 180.604
L254.231 186.692
L255.149 201.466
L256.066 200.323
L256.983 200.33
L257.9 178.159
L258.818 190.655
L260.652 210.45
L261.569 200.865
L262.487 177.593
L263.404 171.956
L264.321 186.919
L265.238 193.235
L266.156 189.34
L267.073 188.669
L267.99 188.337
L268.907 191.416
L269.825 192.809
L270.742 193.47
L271.659 188.144
L272.577 184.094
L274.411 190.381
L275.328 191.882
L276.246 195.348
L277.163 206.443
L278.08 227.131
L278.997 232.493
L279.915 218.121
L280.832 192.408
L281.749 174.932
L282.666 179.441
L283.584 180.937
L284.501 192.532
L285.418 192.078
L286.335 190.898
L287.253 196.321
L288.17 196.553
L289.087 211.147
L290.004 216.018
L290.922 236.926
L291.839 227.484
L292.756 207.575
L293.674 201.115
L294.591 190.687
L295.508 200.318
L296.425 234.827
L297.343 224.345
L298.26 200.697
L299.177 185.343
L300.094 190.078
L301.012 188.448
L301.929 188.243
L302.846 197.137
L303.763 192.523
L304.681 198.983
L305.598 203.297
L306.515 213.755
L307.432 194.903
L308.35 189.392
L309.267 176.603
L310.184 188.601
L311.101 189.861
L312.019 186.952
L312.936 193.207
L313.853 196.989
L314.77 198.564
L315.688 210.776
L316.605 225.652
L317.522 237.015
L318.44 239.323
L319.357 238.298
L320.274 225.93
L321.191 228.178
L322.109 218.2
L323.026 213.667
L323.943 236.505
L324.86 232.948
L325.778 239.575
L326.695 226.038
L327.612 216.205
L328.529 196.72
L329.447 197.622
L330.364 196.956
L331.281 183.731
L332.198 190.359
L334.033 216.985
L334.95 214.546
L335.867 220.966
L336.785 224.912
L337.702 195.605
L338.619 198.037
L339.537 207.597
L340.454 207.623
L341.371 219.246
L342.288 234.283
L343.206 226.386
L344.123 207.821
L345.04 225.863
L345.957 238.612
L346.875 212.897
L347.792 196.914
L348.709 193.643
L350.544 229.805
L351.461 213.594
L352.378 199.892
L353.295 213.58
L354.213 225.287
L355.13 241.519
L356.047 241.773
L356.964 229.738
L357.882 224.586
L358.799 223.43
L359.716 215.463
L360.634 234.887
L361.551 220.094
L362.468 234.028
L363.385 236.282
L364.303 233.495
L365.22 228.11
M367.054 232.745
L367.972 240.445
L368.889 236.608
L369.806 219.39
L370.723 198.475
L370.723 198.475" style="fill:none;stroke:#ff0000;stroke-linecap:square;"/>
   </g>
   <g id="line2d_11">
    <path clip-path="url(#pd0c402dd48)" d="
M36.8406 234.665
L37.7579 219.407
L38.6751 222.88
L39.5924 207.617
L40.5097 214.112
L41.4269 236.918
L42.3442 224.65
L43.2614 214.02
L44.1787 228.708
L45.096 212.76
L46.9305 231.79
L47.8477 217.868
L48.765 201.789
L49.6823 212.338
L50.5995 210.348
L51.5168 219.06
L52.434 216.411
L53.3513 218.229
L54.2686 218.579
L55.1858 196.637
L57.0204 242.403
L57.9376 241.479
L58.8549 244.095
L59.7721 238.92
L60.6894 224.601
L61.6067 228.363
L62.5239 222.533
L63.4412 211.332
L64.3584 214.402
L65.2757 207.271
L66.193 196.212
L67.1102 203.504
L68.0275 212.006
L68.9447 209.244
L69.862 221.566
L70.7793 230.412
L71.6965 229.181
L72.6138 237.82
L73.531 230.465
L74.4483 228.18
L75.3656 238.471
L76.2828 226.374
L77.2001 237.42
L78.1173 214.248
L79.0346 213.941
L79.9519 235.157
L80.8691 215.955
L81.7864 209.699
L82.7036 212.231
L83.6209 201.627
L84.5382 205.116
L85.4554 224.338
L86.3727 206.953
L87.2899 221.66
L88.2072 224.148
L89.1245 208.319
L90.0417 195.417
L90.959 200.153
L91.8762 198.323
L92.7935 222.722
L93.7108 237.439
M95.5453 232.26
L96.4625 223.107
L97.3798 224.683
L98.2971 217.257
L99.2143 216.185
L100.132 198.97
L101.049 201.287
L101.966 200.157
L102.883 202.068
L103.801 235.463
L104.718 225.729
L106.552 196.03
L107.47 201.044
L108.387 189.923
L109.304 216.389
L110.221 228.998
L111.139 212.979
L112.056 214.377
L112.973 234.264
L113.89 215.343
L114.808 192.999
L115.725 221.484
L116.642 226.345
L117.56 199.358
L118.477 229.9
L119.394 219.848
L120.311 232.693
L121.229 231.834
L122.146 209.349
L123.063 182.953
L124.898 164.942
L125.815 207.499
L126.732 205.895
L127.649 228.298
L128.567 216.171
L129.484 191.508
L130.401 207.56
L131.318 202.018
L132.236 208.645
L133.153 186.647
L134.07 182.146
L134.987 170.28
L135.905 160.066
L136.822 163.82
L138.657 178.793
L139.574 200.243
L140.491 192.249
L141.408 199.123
L142.326 203.212
L143.243 185.487
L144.16 225.169
L145.077 189.618
L145.995 193.842
L146.912 202.598
L147.829 206.561
L148.746 232.144
L149.664 206.628
L150.581 206.764
L151.498 212.924
L152.415 201.299
L153.333 184.577
L154.25 176.996
L155.167 176.935
L156.084 172.838
L157.002 187.87
L157.919 184.488
L158.836 200.315
L159.754 187.12
L160.671 159.531
L161.588 152.739
L162.505 167.446
L163.423 174.562
L164.34 187.961
L165.257 189.733
L166.174 195.238
L167.092 190.627
L168.009 188.361
L168.926 182.264
L169.843 188.884
L170.761 189.376
L171.678 177.329
L172.595 186.867
L173.512 191.988
L174.43 199.199
L175.347 210.166
L176.264 232.904
L177.181 208.76
L178.099 209.182
L179.016 222.223
L179.933 225.322
L180.85 202.823
L181.768 203.04
L182.685 190.87
L183.602 204.349
L184.52 204.539
L185.437 203.943
L186.354 225.201
L187.271 225.455
L188.189 224.344
L189.106 199.138
L190.023 212.413
L190.94 184.724
L191.858 193.187
L192.775 207.393
L193.692 218.334
L194.609 206.569
L195.527 182.877
L197.361 168.602
L198.278 173.981
L199.196 178.014
L200.113 186.806
L201.03 190.745
L201.947 184.754
L202.865 182.185
L203.782 196.207
L204.699 203.495
L205.617 193.93
L206.534 199.77
L207.451 194.092
L208.368 195.572
L209.286 197.822
L210.203 199.064
L211.12 187.908
L212.037 193.3
L212.955 200.308
L213.872 205.541
L214.789 189.95
L215.706 191.306
L216.624 188.861
L217.541 177.57
L218.458 185.187
L220.293 197.88
L221.21 196.814
L222.127 200.846
L223.044 205.381
L223.962 192.668
L224.879 196.635
L225.796 201.552
L226.714 205.419
L227.631 204.614
L228.548 205.207
L229.465 200.386
L230.383 191.443
L231.3 193.178
L232.217 195.272
L233.134 195.705
L234.052 197.565
L234.969 204.694
L235.886 233.612
L236.803 240.449
L237.721 226.29
L239.555 183.226
L240.472 171.398
L241.39 180.143
L242.307 201.474
L243.224 203.973
L244.141 210.595
L245.059 202.093
L245.976 194.805
L246.893 190.756
L247.81 183.358
L248.728 187.381
L249.645 189.251
L250.562 193.624
L251.48 213.047
L252.397 206.308
L253.314 203.877
L254.231 200.641
L255.149 193.494
L256.066 199.793
L256.983 204.771
L257.9 211.413
L258.818 206.676
L259.735 205.352
L260.652 194.993
L261.569 190.444
L263.404 206.491
L264.321 206.137
L265.238 207.588
L266.156 202.038
L267.073 199.798
L267.99 189.93
L268.907 184.529
L269.825 188.172
L271.659 206.294
L272.577 212.133
L273.494 205.823
L274.411 204.892
L276.246 201.558
L277.163 210.562
L278.08 203.041
L278.997 199.879
L279.915 200.708
L280.832 185.878
L281.749 188.799
L282.666 195.911
L283.584 201.597
L284.501 205.862
L285.418 221.293
L286.335 220.085
L287.253 207.931
L288.17 208.005
L289.087 219.646
M291.839 211.252
L292.756 199.821
L293.674 194.498
L294.591 206.751
L295.508 201.324
L296.425 200.772
L297.343 199.535
L298.26 215.332
L299.177 225.594
L300.094 218.456
L301.012 203.458
L301.929 204.805
L302.846 213.094
L303.763 230.39
L304.681 224.782
L305.598 225.989
L306.515 215.017
L307.432 218.166
L308.35 213.629
L309.267 201.564
L310.184 218.414
L311.101 240.433
L312.019 222.799
L312.936 228.082
L313.853 234.256
L314.77 216.067
L315.688 215.924
L316.605 209.065
L317.522 195.65
L318.44 203.825
L319.357 195.871
L320.274 222.939
L321.191 223.918
L322.109 215.23
L323.026 207.914
L323.943 204.897
L324.86 226.155
L325.778 242.595
L326.695 236.857
L327.612 236.419
L328.529 206.864
L330.364 188.531
L331.281 219.945
L332.198 196.299
L333.116 209.964
L334.033 221.01
L334.95 229.472
L335.867 222.192
L336.785 218.047
L337.702 217.068
L338.619 212.552
L339.537 218.598
L340.454 222.172
L341.371 212.826
M343.206 216.674
L344.123 215.85
L345.04 212.291
M346.875 212.368
L347.792 210.465
L348.709 233.432
L349.626 220.36
L350.544 212.208
L351.461 205.345
L352.378 191.869
L354.213 240.235
L355.13 223.874
L356.047 231.185
M357.882 233.701
L358.799 237.174
L359.716 234.856
L360.634 229.785
L361.551 228.533
L362.468 242.785
L363.385 232.95
L364.303 210.74
L365.22 222.991
L366.137 226.244
L367.054 225.943
L367.972 216.873
L368.889 224.865
L369.806 241.003
L370.723 231.811
L370.723 231.811" style="fill:none;stroke:#00bfbf;stroke-linecap:square;"/>
   </g>
   <g id="line2d_12">
    <path clip-path="url(#pd0c402dd48)" d="
M36.8406 238.68
L37.7579 232.565
L38.6751 228.595
L39.5924 216.822
L40.5097 228.701
L41.4269 224.698
L42.3442 233.747
L43.2614 209.003
L44.1787 213.743
L45.096 219.09
L46.0132 201.935
L46.9305 208.67
L47.8477 234.864
L48.765 225.445
L49.6823 202.481
L50.5995 217.207
L51.5168 215.24
L52.434 229.511
L53.3513 230.207
L54.2686 224.936
L55.1858 218.217
L56.1031 222.622
M57.9376 228.212
L58.8549 235.054
L59.7721 238.997
M61.6067 234.149
L62.5239 229.22
L63.4412 226.474
M65.2757 229.625
L66.193 218.617
L67.1102 226.799
L68.9447 234.584
L69.862 226.569
L70.7793 239.127
L71.6965 239.615
L72.6138 232.322
L73.531 217.532
L74.4483 232.245
L75.3656 225.609
L76.2828 236.765
L77.2001 221.553
M79.0346 242.282
L79.9519 242.249
L80.8691 237.137
L81.7864 226.658
L82.7036 223.901
L83.6209 226.166
L84.5382 193.159
L85.4554 194.055
L86.3727 225.55
L87.2899 227.47
L88.2072 203.925
L89.1245 218.801
L90.0417 225.247
L90.959 208.051
L91.8762 205.54
L92.7935 222.481
L93.7108 219.262
L94.628 222.597
L95.5453 214.021
L96.4625 201.384
L97.3798 228.707
L98.2971 213.225
L99.2143 204.283
L100.132 204.208
L101.049 204.972
L101.966 230.916
L102.883 208.237
L103.801 180.583
L104.718 188.907
L105.635 178.88
L106.552 189.288
L107.47 182.59
L108.387 192.497
L109.304 206.298
L110.221 216.753
L111.139 189.666
L112.056 185.705
L112.973 216.43
L113.89 226.802
L114.808 196.474
L115.725 187.272
L116.642 208.345
L117.56 238.586
L118.477 211.737
L119.394 236.611
L120.311 232.445
L121.229 221.128
L122.146 216.838
L123.063 227.186
L123.98 205.024
L124.898 188.478
L125.815 200.718
L126.732 183.173
L127.649 183.512
L128.567 184.584
L129.484 209.522
L130.401 211.87
L131.318 180.073
L132.236 171.869
L133.153 173.512
L134.07 174.179
L134.987 166.54
L135.905 166.967
L136.822 203.603
L137.739 229.236
L138.657 221.345
L139.574 192.732
L140.491 184.893
L141.408 175.832
L142.326 176.535
L143.243 213.967
L144.16 232.615
L145.077 219.21
L145.995 225.174
L146.912 217.456
L147.829 183.501
L148.746 203.2
L149.664 164.159
L150.581 194.233
L151.498 196.188
L152.415 164.345
L153.333 153.07
L154.25 155.772
L155.167 205.581
L156.084 183.564
L157.002 176.195
L157.919 175.509
L158.836 156.309
L159.754 157.603
L160.671 166.929
L161.588 189.035
L162.505 233.285
L163.423 201.227
L164.34 200.343
L165.257 207.858
M167.092 216.17
L168.009 203.214
L168.926 176.781
L169.843 205.979
L170.761 202.999
L171.678 211.103
L172.595 205.769
L173.512 183.934
L174.43 214.406
L175.347 207.382
L176.264 228.503
L177.181 205.86
L178.099 235.751
L179.016 197.856
L179.933 223.526
L180.85 185.43
L181.768 185.967
L182.685 203.71
L183.602 215.541
L184.52 200.313
L185.437 176.293
L186.354 175.625
L187.271 166.204
L189.106 192.524
L190.023 200.331
L190.94 184.771
L191.858 182.393
L192.775 198.95
L193.692 203.792
L194.609 178.799
L196.444 185.027
L197.361 195.977
L198.278 182.792
L199.196 185.558
L200.113 189.915
L201.03 201.543
L201.947 190.657
L202.865 187.875
L203.782 205.197
L204.699 210.034
L205.617 189.16
L206.534 193.592
L207.451 179.388
L208.368 167.215
L209.286 173.512
L210.203 171.656
L211.12 177.98
L212.037 186.1
L212.955 190.736
L213.872 191.937
L214.789 193.676
L215.706 185.4
L216.624 182.734
L217.541 169.491
L218.458 173.159
L219.375 185.953
L220.293 191.828
L221.21 192.015
L222.127 193.159
L223.044 184.741
L223.962 187.055
L224.879 190.641
L225.796 212.218
L226.714 194.018
L227.631 200.201
L228.548 200.254
L229.465 195.075
L230.383 193.555
L231.3 189.862
L232.217 189.664
L233.134 193.76
L234.052 187.701
L234.969 189.48
L235.886 202.741
L236.803 196.689
L237.721 198.414
L238.638 207.01
L239.555 211.46
L240.472 223.861
L241.39 211.692
L242.307 197.43
L243.224 195.39
L244.141 177.475
L245.059 174.58
L245.976 185.233
L247.81 193.02
L248.728 191.792
L249.645 196.397
L250.562 198.505
L251.48 201.121
L252.397 194.036
L253.314 189.758
L254.231 189.975
L255.149 180.052
L256.066 198.218
L256.983 231.986
L257.9 215.748
L258.818 211.407
L259.735 204.773
L260.652 178.886
L261.569 173.369
L262.487 179.961
L263.404 191.762
L264.321 192.371
L265.238 191.982
L266.156 219.957
L267.073 236.303
L267.99 195.642
L268.907 189.382
L269.825 176.862
L270.742 172.549
L271.659 181.766
L272.577 186.768
L273.494 194.249
L274.411 199.68
L275.328 196.535
L276.246 205.066
L277.163 207.423
L278.08 201.819
L278.997 200.732
L279.915 193.14
L280.832 180.623
L281.749 185.042
L282.666 183.684
L283.584 180.339
L284.501 185.633
L285.418 194.265
L286.335 196.322
L287.253 196.886
L288.17 198.028
L289.087 214.08
L290.004 233.546
L290.922 225.533
L291.839 221.506
L292.756 207.495
L293.674 228.59
L294.591 216.191
L295.508 209.356
L296.425 215.178
L297.343 197.173
L298.26 189.846
L299.177 188.96
L300.094 191.106
L301.012 198.677
L301.929 197.836
L302.846 197.774
L303.763 193.641
L304.681 194.481
L305.598 192.959
L306.515 198.577
L307.432 225.841
L308.35 240.99
L309.267 230.955
L310.184 237.348
L311.101 216.325
L312.019 188.377
L312.936 186.615
L313.853 194.047
L314.77 228.172
L315.688 206.214
L316.605 205.703
L317.522 206.742
L318.44 191.517
L320.274 205.534
L321.191 225.916
L322.109 235.696
L323.026 224.906
L323.943 242.51
L324.86 232.744
L325.778 217.051
L326.695 218.213
L327.612 240.39
L328.529 226.998
L329.447 220.042
L330.364 202.644
L331.281 210.395
L332.198 244.155
L333.116 241.991
L334.033 237.372
M335.867 240.163
L336.785 213.671
L337.702 210.359
L338.619 209.323
L339.537 208.704
L340.454 229.437
L341.371 202.797
L342.288 213.264
M344.123 236.968
L345.04 219.774
L346.875 237.792
L347.792 236.389
L348.709 226.36
L349.626 212.539
L350.544 228.05
L351.461 230.938
L352.378 234.633
L353.295 227.345
L354.213 225.948
L355.13 232.222
L356.047 231.481
L356.964 217.541
L357.882 216.827
L358.799 225.908
L359.716 238.065
L360.634 230.718
L361.551 214.982
L362.468 233.513
L363.385 233.467
L365.22 185.344
L366.137 221.358
L367.054 229.92
L367.972 234.744
M369.806 240.031
L370.723 230.256
L370.723 230.256" style="fill:none;stroke:#bf00bf;stroke-linecap:square;"/>
   </g>
   <g id="line2d_13">
    <path clip-path="url(#pd0c402dd48)" d="
M36.8406 220.99
L37.7579 221.612
L38.6751 229.503
L39.5924 233.879
L40.5097 211.362
L41.4269 216.363
L42.3442 213.529
L43.2614 219.807
L44.1787 233.442
L45.096 239.532
L46.0132 217.245
L46.9305 222.061
L47.8477 241.618
L48.765 235.073
L49.6823 233.725
L50.5995 242.811
L51.5168 234.999
L52.434 237.275
L53.3513 238.201
L54.2686 218.872
L55.1858 234.287
L56.1031 234.36
L57.0204 205.125
L57.9376 233.915
L58.8549 238.07
L60.6894 236.659
L61.6067 235.43
L62.5239 234.638
L63.4412 241.6
L64.3584 221.073
L66.193 204.42
L67.1102 211.004
L68.0275 225.865
L68.9447 219.672
L69.862 216.593
L70.7793 221.406
L71.6965 229.355
L72.6138 223
L73.531 215.698
L75.3656 197.552
L76.2828 191.754
L77.2001 192.995
L78.1173 202.896
L79.0346 222.87
L79.9519 232.76
L80.8691 236.547
L81.7864 233.71
M83.6209 226.293
L84.5382 229.949
L85.4554 223.886
L86.3727 237.432
L87.2899 238.039
L88.2072 216.584
L89.1245 208.824
L90.0417 211.048
L90.959 190.371
L91.8762 209.75
L93.7108 226.842
L94.628 231.563
L95.5453 237.16
L96.4625 237.121
L97.3798 242.723
L98.2971 229.444
L99.2143 222.985
L100.132 240.2
L101.049 221.195
L101.966 233.349
L102.883 214.634
L103.801 226.072
M105.635 239.424
L106.552 213.415
L107.47 233.405
L108.387 216.166
L109.304 228.29
L110.221 225.359
L111.139 215.762
L112.056 231.215
L112.973 238.912
M114.808 242.708
L115.725 223.878
L116.642 229.124
L117.56 230.087
L118.477 195.856
L119.394 194.198
L120.311 204.832
L121.229 221.02
L122.146 209.882
L123.063 216.828
L123.98 217.621
L124.898 211.863
L125.815 219.05
L126.732 224.442
L127.649 205.203
L128.567 209.849
L129.484 188.825
L130.401 215.871
L131.318 193.588
L132.236 212.343
L133.153 217.893
L134.07 205.813
L134.987 205.943
L135.905 182.171
L136.822 214.21
L137.739 224.128
L138.657 186.305
L139.574 168.688
L140.491 200.309
L141.408 221.768
L142.326 202.332
L143.243 189.22
L144.16 221.051
L145.077 193.456
L145.995 196.484
L146.912 186.376
L147.829 192.926
L148.746 182.641
L149.664 178.372
L150.581 181.298
L151.498 216.077
L152.415 204.524
L153.333 219.253
L154.25 211.635
L155.167 187.28
L157.002 177.391
L157.919 177.726
L158.836 199.138
L159.754 224.629
L160.671 234.308
L161.588 213.938
L162.505 227.839
L163.423 172.889
L164.34 173.401
L165.257 194.359
L166.174 185.656
L167.092 216.126
L168.009 217.613
L168.926 209.071
L169.843 206.317
L170.761 227.806
L171.678 226.565
L172.595 228.994
L173.512 197.446
L174.43 194.272
L175.347 193
L176.264 219.388
L177.181 184.05
L178.099 186.004
L179.016 177.946
L179.933 204.324
L180.85 219.448
L181.768 200.151
L182.685 212.92
L183.602 205.007
L184.52 201.618
L185.437 187.424
L186.354 203.353
L187.271 182.089
L188.189 181.214
L189.106 196.876
L190.023 181.72
L190.94 217.455
L191.858 217.635
L192.775 177.227
L193.692 181.638
L194.609 178.066
L195.527 182.081
L196.444 187.85
L197.361 190.897
L198.278 197.374
L199.196 189.04
L200.113 185.274
L201.03 209.053
L201.947 195.309
L202.865 193.673
L203.782 190.384
L204.699 185.084
L205.617 183.101
L206.534 188.011
L207.451 190.847
L208.368 213.712
L209.286 199.606
L210.203 193.941
L211.12 198.707
L212.037 196.243
L212.955 187.461
L213.872 202.836
L214.789 204.07
L215.706 199.441
L216.624 201.973
L217.541 189.296
L218.458 185.076
L219.375 196.879
L220.293 199.712
L221.21 197.252
L222.127 200.814
L223.044 188.367
L223.962 179.991
L225.796 195.31
L226.714 196.969
L227.631 200.632
L228.548 197.262
L229.465 191.215
L230.383 198.763
L231.3 199.215
L232.217 202.582
L233.134 200.496
L234.052 210.759
L234.969 199.585
L235.886 199.873
L236.803 202.295
L237.721 198.163
L238.638 195.669
L239.555 199.604
L240.472 197.48
L241.39 198.573
L242.307 199.49
L243.224 197.629
L244.141 194.983
L245.059 197.307
L245.976 199.058
L246.893 200.111
L247.81 190.987
L248.728 196.945
L249.645 201.21
L250.562 198.17
L251.48 198.234
L252.397 198.063
L253.314 204.563
L254.231 202.511
L255.149 211.97
L256.066 206.161
L257.9 205.789
L258.818 204.898
L259.735 208.71
L260.652 201.595
L261.569 202.653
L262.487 191.435
L263.404 184.479
L264.321 193.596
L265.238 195.068
L266.156 198.038
L267.073 205.341
L267.99 203.528
L268.907 208.284
L269.825 207.37
L271.659 207.056
L272.577 225.05
L273.494 214.974
L274.411 206.338
L275.328 203.099
L276.246 200.421
L277.163 195.264
L278.08 188.765
L278.997 193.749
L279.915 193.875
L280.832 193.839
L281.749 204.123
L282.666 207.963
L283.584 206.575
L284.501 212.36
L285.418 200.355
L286.335 196.948
L287.253 203.396
L288.17 205.159
L289.087 205.859
L290.004 232.179
L290.922 239.443
M292.756 243.279
L293.674 219.667
L294.591 202.825
L295.508 226.07
L296.425 220.678
L297.343 203.852
L298.26 201.124
L299.177 196.26
L300.094 208.425
L301.012 235.54
L301.929 211.335
L302.846 204.169
L303.763 211.789
L304.681 201.478
L305.598 205.576
L306.515 213.585
L307.432 210.354
L308.35 223.644
L310.184 198.899
L311.101 202.801
L312.019 191.048
L312.936 190.646
L313.853 199.625
L314.77 220.387
L315.688 208.779
L316.605 199.568
L317.522 204.517
L318.44 222.37
L319.357 234.159
L320.274 237.718
L321.191 238.887
L323.026 198.973
L323.943 194.795
L324.86 201.619
L325.778 225.609
L326.695 229.417
L327.612 204.879
L328.529 200.351
L329.447 209.775
L330.364 233.715
L331.281 236.257
L332.198 232.056
L333.116 212.006
L334.033 222.12
L334.95 223.229
L335.867 194.667
L336.785 213.21
L337.702 221.105
L338.619 196.593
L339.537 200.894
L340.454 213.542
L341.371 230.171
L342.288 221.24
L343.206 205.816
L344.123 208.456
L345.04 214.921
L345.957 217.435
L346.875 215.115
L347.792 202.972
L348.709 204.713
L349.626 200.033
L350.544 197.163
L351.461 204.026
L352.378 209.339
L353.295 208.615
L354.213 218.242
L355.13 210.874
L356.047 220.882
L356.964 222.842
L357.882 220.691
L358.799 216.328
L360.634 204.047
L361.551 218.133
L362.468 199.947
L363.385 196.083
L364.303 200.913
L365.22 198.345
L366.137 206.524
L367.972 231.01
L368.889 224.597
L369.806 240.519
L370.723 219.882
L370.723 219.882" style="fill:none;stroke:#bfbf00;stroke-linecap:square;"/>
   </g>
   <g id="line2d_14">
    <path clip-path="url(#pd0c402dd48)" d="
M36.8406 199.841
L37.7579 198.038
L38.6751 194.664
L39.5924 180.857
L40.5097 199.304
L41.4269 222.237
L42.3442 227.833
L43.2614 220.659
L44.1787 219.906
L45.096 230.448
L46.0132 210.411
L46.9305 218.887
L47.8477 196.909
L48.765 182.407
L50.5995 217.528
L51.5168 204.306
L53.3513 242.718
L54.2686 243.38
L55.1858 238.181
L56.1031 227.714
L57.0204 242.943
L57.9376 232.035
L58.8549 228.219
L59.7721 235.126
L60.6894 210.38
L62.5239 191.396
L63.4412 215.834
L64.3584 200.547
L65.2757 223.058
L66.193 227.926
L67.1102 211.84
L68.0275 207.504
L68.9447 202.224
L69.862 202.755
L70.7793 194.132
L71.6965 222.343
L72.6138 238.89
L73.531 219.55
L74.4483 233.257
L75.3656 237.001
L76.2828 221.394
L77.2001 229.689
L78.1173 232.363
L79.0346 216.642
L79.9519 212.299
L80.8691 222.48
L81.7864 217.607
L82.7036 223.479
L83.6209 243.319
L84.5382 225.895
L85.4554 214.457
L86.3727 193.039
L87.2899 219.879
L88.2072 214.819
L89.1245 206.482
L90.0417 202.106
L90.959 217.553
L91.8762 235.522
L92.7935 216.596
L93.7108 221.269
L94.628 201.9
L95.5453 193.969
L96.4625 214.546
L97.3798 200.213
L98.2971 195.257
L99.2143 193.431
L100.132 171.861
L101.049 198.338
L101.966 214.16
L102.883 222.609
L103.801 244.053
L104.718 224.766
L105.635 235.162
L106.552 233.459
M108.387 225.45
L109.304 226.909
L110.221 208.256
L111.139 171.591
L112.056 192.941
L112.973 173.268
L114.808 232.657
L115.725 199.708
L116.642 219.093
L117.56 223.757
L118.477 231.893
L119.394 183.694
L120.311 187.752
L121.229 194.181
L122.146 188.181
L123.063 204.562
L123.98 194.977
L124.898 192.004
L125.815 181.775
L126.732 156.981
L127.649 162.37
L128.567 149.792
L129.484 197.277
L130.401 206.781
L131.318 217.518
L132.236 204.755
L133.153 187.882
L134.07 215.946
L134.987 198.863
L135.905 204.884
L136.822 214.696
L137.739 187.318
L138.657 169.702
L139.574 162.395
L140.491 183.129
L141.408 191.439
L142.326 208.538
L143.243 241.392
L144.16 208.766
L145.077 212.393
L145.995 196.278
L146.912 211.079
L147.829 182.64
L148.746 181.928
L149.664 214.353
L150.581 231.261
L151.498 200.184
L152.415 177.353
L153.333 173.006
L154.25 158.863
L155.167 159.652
L157.002 179.423
L157.919 181.925
L158.836 179.297
L159.754 163.905
L160.671 188.258
L161.588 181.807
L162.505 203.705
L164.34 193.127
L165.257 191.749
L166.174 199.796
L167.092 209.613
L168.009 210.384
L168.926 205.777
L169.843 230.505
L170.761 229.845
L171.678 208.493
L172.595 172.549
L173.512 165.351
L174.43 171.821
L175.347 175.098
L176.264 177.744
L177.181 201.983
L178.099 189.64
L179.016 200.477
L179.933 234.078
L180.85 201.062
L181.768 200.559
L182.685 199.591
L183.602 219.602
L184.52 194.614
L185.437 178.403
L186.354 179.396
L187.271 166.552
L188.189 158.635
L189.106 177.108
L190.023 187.333
L190.94 179.692
L191.858 187.956
L192.775 197.792
L193.692 188.291
L194.609 188.754
L195.527 176.022
L196.444 175.058
L197.361 179.881
L198.278 188.572
L199.196 195.34
L200.113 182.832
L201.03 182.194
L201.947 186.428
L202.865 171.531
L203.782 194.712
L204.699 194.184
L205.617 190.254
L206.534 194.3
L207.451 190.292
L208.368 195.595
L209.286 188.305
L210.203 197.521
L211.12 193.505
L212.037 194.188
L212.955 197.805
L213.872 196.41
L214.789 212.822
L215.706 215.92
L216.624 208.965
L217.541 212.831
L218.458 194.752
L219.375 191.136
L220.293 190.135
L221.21 188.032
L222.127 195.086
L223.044 192.336
L223.962 202.361
L225.796 194.414
L226.714 198.202
L227.631 193.592
L228.548 197.927
L229.465 195.739
L230.383 200.142
L231.3 197.958
L232.217 195.092
L233.134 197.531
L234.052 200.818
L234.969 198.654
L235.886 197.46
L236.803 194.333
L237.721 189.079
L238.638 198.732
L239.555 200.02
L240.472 205.723
L241.39 202.969
L242.307 202.776
L243.224 201.193
L244.141 199.02
L245.059 197.504
L245.976 202.058
L246.893 205.436
L247.81 201.28
L248.728 211.032
L249.645 203.849
L250.562 202.556
L251.48 203.838
L252.397 199.517
L253.314 196.362
L254.231 198.297
L255.149 199.564
L256.066 202.991
L256.983 187.521
L257.9 199.189
L258.818 200.119
L259.735 203.999
L260.652 205.348
L261.569 187.87
L262.487 190.749
L263.404 197.635
L264.321 190.869
L265.238 202.523
L266.156 194.644
L267.073 193.664
L267.99 196.406
L268.907 198.415
L269.825 202.021
L270.742 196.991
L271.659 198.876
L272.577 187.992
L273.494 181.048
L274.411 191.281
L275.328 196.118
L276.246 199.106
L277.163 201.103
L278.08 201.691
L278.997 201.286
L279.915 199.12
L280.832 223.616
L281.749 213.467
L282.666 210.735
L283.584 208.865
L284.501 193.592
L285.418 194.959
L286.335 198.795
L287.253 199.826
L288.17 199.802
L289.087 200.218
L290.922 203.595
L291.839 201.259
L292.756 202.057
L293.674 185.469
L294.591 180.192
L295.508 185.451
L296.425 184.851
L297.343 189.152
L298.26 190.545
L299.177 218.801
L300.094 208.252
L301.012 214.259
L301.929 218.071
L302.846 205.57
L303.763 201.373
L304.681 205.934
L305.598 214.415
L306.515 199.769
L307.432 233.789
L308.35 240.019
L309.267 230.596
L310.184 233.549
L311.101 213.978
L312.019 217.698
L312.936 231.061
L313.853 204.491
L314.77 193.843
L315.688 190.908
L316.605 212.957
L317.522 213.514
L318.44 216.546
L319.357 213.942
L320.274 214.33
L321.191 204.626
L322.109 215.006
L323.943 240.968
L324.86 234.678
L325.778 234.403
L326.695 227.147
L327.612 230.543
L328.529 228.125
L329.447 219.425
L330.364 213.397
L331.281 228.804
L332.198 227.242
L334.033 221.648
L334.95 230.645
L335.867 210.514
L336.785 197.571
L337.702 222.523
L338.619 229.632
L340.454 212.56
L341.371 217.933
L342.288 220.882
L343.206 229.217
L344.123 230.972
L345.04 236.598
L345.957 216.816
L346.875 226.679
L347.792 234.778
L348.709 225.893
L349.626 220.143
L350.544 231.174
L351.461 223.155
L352.378 236.714
L353.295 222.232
L354.213 238.03
L355.13 223.905
L356.047 234.069
L356.964 235.046
L357.882 243.699
L358.799 232.233
L359.716 226.027
L360.634 223.903
L361.551 194.421
L362.468 187.331
L363.385 208.431
L364.303 232.445
L365.22 234.333
L366.137 225.74
L367.054 236.929
L367.972 239.622
L368.889 225.476
L369.806 226.353
L370.723 240.868
L370.723 240.868" style="fill:none;stroke:#000000;stroke-linecap:square;"/>
   </g>
   <g id="line2d_15">
    <path clip-path="url(#pd0c402dd48)" d="
M36.8406 225.855
L37.7579 219.765
L38.6751 180.078
L39.5924 152.728
L40.5097 120.331
L41.4269 150.302
L42.3442 184.133
L43.2614 213.056
L44.1787 128.571
L45.096 203.386
L46.0132 188.995
L46.9305 141.279
L47.8477 177.701
L48.765 207.906
L49.6823 162.816
L50.5995 168.304
L51.5168 160.036
L52.434 67.3271
L53.3513 62.1717
L54.2686 133.706
L55.1858 101.466
L56.1031 27.4988
L57.0204 31.2195
L57.9376 136.396
L58.8549 213.763
L59.7721 216.968
L60.6894 209.192
L61.6067 222.807
L62.5239 244.002
L63.4412 239.364
L65.2757 198.636
L66.193 181.3
L67.1102 171.035
L68.0275 141.499
L68.9447 150.656
L69.862 167.574
L70.7793 149.712
L71.6965 189.783
L73.531 137.889
L74.4483 102.816
L75.3656 175.724
L76.2828 178.663
L77.2001 150.201
L78.1173 129.218
L79.0346 148.46
L79.9519 195.267
L80.8691 116.365
L81.7864 146.937
L82.7036 187.077
L83.6209 164.496
L84.5382 210.223
L85.4554 194.296
L86.3727 175.788
L87.2899 161.325
L88.2072 149.121
L89.1245 106.341
L90.0417 148.951
L90.959 179.819
L91.8762 144.631
L93.7108 63.6867
L94.628 95.2368
L95.5453 164.15
L96.4625 144.726
L97.3798 95.9522
L98.2971 87.9565
L99.2143 57.7115
L100.132 160.523
L101.049 135.096
L101.966 86.5841
L102.883 62.244
L103.801 97.4163
L104.718 144.967
L105.635 133.715
L106.552 147.035
L107.47 98.8965
L108.387 148.823
L109.304 154.657
L110.221 172.164
L111.139 95.638
L112.056 91.9584
L112.973 82.2756
L113.89 150.243
L114.808 116.242
L115.725 54.5186
L116.642 86.8883
L118.477 77.2987
L119.394 132.938
L120.311 123.845
L121.229 105.22
L122.146 144.961
L123.063 179.146
L123.98 190.894
L124.898 212.832
L125.815 166.274
L126.732 133.263
L127.649 135.559
L128.567 125.746
L129.484 75.2994
L130.401 121.231
L131.318 112.583
L132.236 167.828
L133.153 118.568
L134.07 83.4987
L134.987 56.8287
L135.905 168.017
L136.822 146.907
L137.739 96.5724
L138.657 90.5068
L139.574 66.8609
L140.491 63.2011
L141.408 42.4783
L142.326 72.6085
L143.243 37.1317
L144.16 48.1391
L145.077 106.447
L145.995 116.323
L146.912 120.673
L147.829 95.8629
L148.746 84.6102
L149.664 110.215
L150.581 45.0925
L151.498 65.6171
L152.415 134.825
L153.333 145.376
L154.25 107.758
L155.167 107.977
L156.084 106.22
L157.002 99.5473
L157.919 110.684
L158.836 137.97
L159.754 131.537
L161.588 208.372
L162.505 171.083
L163.423 174.306
L164.34 134.5
L165.257 103.561
L166.174 134.131
L167.092 69.2722
L168.009 70.5266
L168.926 109.163
L169.843 160.67
L170.761 149.562
L171.678 202.202
L172.595 187.674
L173.512 150.422
L174.43 126.365
L175.347 78.3552
L176.264 74.335
L177.181 98.6522
L178.099 87.5749
L179.016 71.7512
L179.933 101.021
L180.85 99.4211
L181.768 102.993
L182.685 100.774
L183.602 123.006
L184.52 141.827
L185.437 142.675
L186.354 151.612
L187.271 170.779
L188.189 118.965
L189.106 107.531
L190.94 86.763
L191.858 172.51
L192.775 165.354
L193.692 173.405
L194.609 164.386
L195.527 127.163
L196.444 177.628
L197.361 205.6
L198.278 153.63
L199.196 89.2329
L200.113 101.711
L201.03 95.6856
L201.947 93.6138
L202.865 129.619
M301.929 114.943
L302.846 118.029
L303.763 93.6686
L304.681 105.761
L305.598 114.174
L306.515 105.566
L307.432 99.6878
L308.35 97.9354
L309.267 111.47
L310.184 109.834
L311.101 113.924
L312.019 195.913
L312.936 219.77
L313.853 204.134
L314.77 206.61
L315.688 186.954
L316.605 178.185
L317.522 192.848
L318.44 164.152
L319.357 186.697
L320.274 202.779
L321.191 160.6
L322.109 127.781
L323.026 103.908
L323.943 68.8715
L324.86 89.9125
L325.778 94.9286
L326.695 140.926
L327.612 153.148
L328.529 199.225
L329.447 208.889
L330.364 186.218
L331.281 137.708
L332.198 184.728
L333.116 178.55
L334.033 116.882
L334.95 103.362
L335.867 127.911
L336.785 114.637
L337.702 97.1835
L338.619 82.6448
L339.537 94.1855
L340.454 127.898
L341.371 133.411
L342.288 187.126
L343.206 202.767
L344.123 182.42
L345.04 168.101
L345.957 209.371
L347.792 184.615
L348.709 206.223
L350.544 77.2567
L352.378 157.025
L353.295 104.722
L354.213 137.136
L355.13 140.23
L356.047 62.3092
L356.964 66.9714
L357.882 44.5663
L358.799 125.679
L359.716 192.118
L360.634 164.096
L361.551 211.157
L362.468 217.382
L363.385 181.229
L364.303 136.537
L365.22 76.7441
L366.137 86.5602
L367.054 82.9272
L367.972 144.523
L368.889 118.23
L369.806 142.848
L370.723 163.404
L370.723 163.404" style="fill:none;stroke:#0000ff;stroke-linecap:square;"/>
   </g>
   <g id="line2d_16">
    <path clip-path="url(#pd0c402dd48)" d="
M36.8406 233.665
L37.7579 226.472
L38.6751 222.83
L39.5924 227.298
L40.5097 217.925
L41.4269 212.99
L42.3442 222.183
L43.2614 243.671
L44.1787 228.535
L45.096 236.389
L46.0132 234.305
L46.9305 238.608
L47.8477 237.016
L48.765 227.749
L49.6823 215.632
L50.5995 216.637
L51.5168 214.811
L52.434 222.663
L53.3513 215.048
L54.2686 220.445
L55.1858 221.371
L56.1031 226.114
L57.0204 221.39
M70.7793 235.514
L71.6965 244.511
L72.6138 232.003
L73.531 225.166
L74.4483 229.653
L75.3656 236.328
L76.2828 231.716
L77.2001 231.011
L78.1173 225.059
L79.0346 231.467
L79.9519 210.552
L80.8691 231.344
L81.7864 232.01
L82.7036 235.916
L83.6209 225.673
L84.5382 226.173
L86.3727 213.302
L87.2899 212.791
L88.2072 216.181
L89.1245 229.065
L90.0417 222.165
L90.959 234.883
L91.8762 232.781
L92.7935 235.097
L93.7108 210.288
L94.628 224.798
L95.5453 219.873
L96.4625 218.491
L97.3798 201.843
L98.2971 223.639
L99.2143 236.616
L100.132 212.853
L101.049 199.037
L101.966 193.73
L102.883 217.024
L103.801 192.122
L104.718 185.417
L105.635 215.911
L106.552 219.045
L107.47 189.398
L108.387 189.711
L109.304 196.763
L110.221 178.576
L111.139 173.654
L112.056 183.421
L112.973 203.599
L113.89 208.273
M115.725 225.45
L116.642 229.003
L117.56 220.345
L118.477 204.038
L119.394 236.622
L120.311 228.357
L121.229 201.567
L122.146 204.703
L123.063 203.011
L123.98 196.162
L124.898 177.42
L125.815 182.867
L126.732 183.239
L127.649 179.874
L128.567 179.923
L129.484 190.14
L130.401 194.912
L131.318 184.351
L132.236 189.286
L133.153 185.548
L134.07 188.074
L134.987 183.206
L135.905 180.25
L136.822 180.489
L137.739 182.395
L138.657 225.007
L139.574 202.79
L140.491 212.823
L141.408 229.786
L142.326 211.694
L143.243 201.389
L144.16 196.234
L145.077 173.004
L145.995 165.682
L146.912 163.025
L147.829 164.546
L148.746 174.56
L150.581 207.842
L151.498 199.66
L152.415 200.097
L153.333 203.238
L154.25 201.002
L155.167 206.994
L156.084 181.083
L157.002 179.72
L157.919 175.12
L158.836 171.468
L159.754 165.914
L160.671 187.08
L161.588 174.961
L162.505 200.288
L163.423 192.68
L164.34 206.931
L165.257 211.814
L166.174 184.913
L167.092 178.048
L168.009 194.616
L168.926 193.714
L169.843 183.023
L170.761 184.239
L171.678 198.283
L172.595 186.178
L173.512 191.098
L174.43 188.134
L175.347 199.192
L176.264 178.502
L177.181 172.735
L178.099 183.949
L179.016 183.976
L179.933 180.536
L180.85 195.3
L181.768 188.068
L182.685 186.39
L183.602 188.598
L184.52 184.93
L185.437 190.249
L186.354 209.375
L187.271 210.049
L188.189 202.577
L190.94 217.788
L191.858 171.02
L192.775 180.486
L194.609 166.692
L195.527 167.525
L196.444 189.635
L197.361 220.273
L198.278 210.44
L199.196 211.873
L200.113 197.181
L201.03 191.175
L201.947 184.047
L202.865 178.12
L203.782 191.233
L204.699 190.881
L205.617 186.82
L206.534 185.775
L208.368 199.404
L209.286 203.735
L210.203 214.655
L211.12 198.898
L212.037 201.379
L212.955 197.967
L213.872 198.721
L214.789 196.526
L215.706 200.433
L217.541 209.306
L218.458 204.346
L219.375 207.507
L220.293 202.379
L221.21 218.254
L223.044 199.732
L223.962 200.491
L224.879 199.834
L225.796 191.465
L226.714 194.235
L227.631 202.495
L228.548 194.123
L229.465 203.206
L230.383 201.416
L231.3 208.05
L232.217 209.394
L233.134 206.026
L234.052 206.603
L234.969 213.687
L235.886 212.518
L236.803 207.848
L237.721 210.439
L238.638 207.106
L239.555 199.489
L240.472 202.813
L241.39 202.915
L242.307 221.18
L243.224 208.626
L244.141 206.005
L245.059 207.459
L245.976 197.793
L246.893 196.137
L247.81 205.027
L248.728 209.806
L249.645 205.918
L250.562 209.908
L251.48 216.369
L252.397 209.958
L253.314 215.815
L255.149 196.761
L256.066 194.392
L256.983 196.463
L257.9 210.843
L258.818 208.168
L259.735 206.019
L260.652 204.864
L261.569 210.19
L262.487 198.742
L263.404 192.18
L264.321 195.392
L265.238 200.44
L266.156 194.046
L267.073 198.587
L267.99 205.877
L268.907 207.473
L269.825 206.727
L270.742 210.163
L271.659 201.56
L272.577 198.719
L273.494 199.274
L274.411 205.375
L275.328 214.054
L276.246 214.147
L277.163 212.739
L278.08 222.905
L278.997 219.431
L279.915 222.387
L280.832 205.115
L281.749 212.074
L282.666 214.765
L283.584 227.901
L285.418 237.783
L286.335 220.692
L288.17 202.352
L289.087 202.071
L290.004 198.658
L290.922 199.016
L291.839 200.741
L293.674 205.421
L294.591 209.65
L295.508 214.518
L296.425 220.95
L297.343 226.229
L298.26 212.47
L299.177 215.883
L300.094 226.541
L301.012 220.034
L301.929 203.765
L303.763 219.889
L304.681 208.166
L305.598 226.981
L306.515 219.704
L307.432 232.706
L308.35 221.264
L309.267 224.662
L310.184 224.194
L311.101 220.991
L312.019 210.779
L312.936 220.777
L313.853 216.398
L314.77 218.886
L315.688 232.818
M317.522 232.683
L318.44 234.466
L319.357 228.328
L320.274 216.897
L321.191 220.917
L322.109 217.726
L323.026 226.223
L323.943 231.973
L324.86 229.773
L325.778 215.856
L326.695 228.756
M328.529 240.674
L329.447 228.986
L330.364 226.121
L331.281 224.712
L333.116 217.052
L334.033 224.138
L334.95 234.607
L335.867 229.599
L336.785 222.156
L337.702 235.559
L338.619 223.205
L339.537 222.072
L340.454 214.887
L341.371 230.617
L342.288 226.421
L343.206 235.194
L344.123 234.25
L345.04 230.846
L346.875 222.703
L347.792 231.076
L348.709 226.462
L349.626 234.97
L350.544 228.833
L351.461 225.611
L352.378 224.255
L353.295 235.834
L354.213 241.921
L355.13 229.271
L356.047 230.116
L356.964 237.557
L357.882 232.423
L358.799 237.278
L359.716 239.869
L360.634 241.57
L361.551 241.661
L362.468 243.477
L363.385 233.003
L364.303 239.299
L365.22 242.983
M367.054 238.113
L367.972 242.91
L368.889 242.89
L369.806 244.179
L370.723 244.468
L370.723 244.468" style="fill:none;stroke:#008000;stroke-linecap:square;"/>
   </g>
   <g id="patch_3">
    <path d="
M36.8406 21.3181
L371.641 21.3181" style="fill:none;stroke:#000000;stroke-linecap:square;stroke-linejoin:miter;"/>
   </g>
   <g id="patch_4">
    <path d="
M371.641 244.518
L371.641 21.3181" style="fill:none;stroke:#000000;stroke-linecap:square;stroke-linejoin:miter;"/>
   </g>
   <g id="patch_5">
    <path d="
M36.8406 244.518
L36.8406 21.3181" style="fill:none;stroke:#000000;stroke-linecap:square;stroke-linejoin:miter;"/>
   </g>
   <g id="patch_6">
    <path d="
M36.8406 244.518
L371.641 244.518" style="fill:none;stroke:#000000;stroke-linecap:square;stroke-linejoin:miter;"/>
   </g>
   <g id="matplotlib.axis_1">
    <g id="xtick_1">
     <g id="line2d_17">
      <defs>
       <path d="
M0 0
L0 -4" id="mc7db9fdffb" style="stroke:#000000;stroke-width:0.5;"/>
      </defs>
      <g>
       <use style="stroke:#000000;stroke-width:0.5;" x="36.840625" xlink:href="#mc7db9fdffb" y="244.518125"/>
      </g>
     </g>
     <g id="line2d_18">
      <defs>
       <path d="
M0 0
L0 4" id="m5a7d422ac3" style="stroke:#000000;stroke-width:0.5;"/>
      </defs>
      <g>
       <use style="stroke:#000000;stroke-width:0.5;" x="36.840625" xlink:href="#m5a7d422ac3" y="21.318125"/>
      </g>
     </g>
     <g id="text_1">
      <!-- 0 -->
      <defs>
       <path d="
M31.7812 66.4062
Q24.1719 66.4062 20.3281 58.9062
Q16.5 51.4219 16.5 36.375
Q16.5 21.3906 20.3281 13.8906
Q24.1719 6.39062 31.7812 6.39062
Q39.4531 6.39062 43.2812 13.8906
Q47.125 21.3906 47.125 36.375
Q47.125 51.4219 43.2812 58.9062
Q39.4531 66.4062 31.7812 66.4062
M31.7812 74.2188
Q44.0469 74.2188 50.5156 64.5156
Q56.9844 54.8281 56.9844 36.375
Q56.9844 17.9688 50.5156 8.26562
Q44.0469 -1.42188 31.7812 -1.42188
Q19.5312 -1.42188 13.0625 8.26562
Q6.59375 17.9688 6.59375 36.375
Q6.59375 54.8281 13.0625 64.5156
Q19.5312 74.2188 31.7812 74.2188" id="BitstreamVeraSans-Roman-30"/>
      </defs>
      <g transform="translate(34.32109375 256.1165625)scale(0.1 -0.1)">
       <use xlink:href="#BitstreamVeraSans-Roman-30"/>
      </g>
     </g>
    </g>
    <g id="xtick_2">
     <g id="line2d_19">
      <g>
       <use style="stroke:#000000;stroke-width:0.5;" x="82.7036386986" xlink:href="#mc7db9fdffb" y="244.518125"/>
      </g>
     </g>
     <g id="line2d_20">
      <g>
       <use style="stroke:#000000;stroke-width:0.5;" x="82.7036386986" xlink:href="#m5a7d422ac3" y="21.318125"/>
      </g>
     </g>
     <g id="text_2">
      <!-- 50 -->
      <defs>
       <path d="
M10.7969 72.9062
L49.5156 72.9062
L49.5156 64.5938
L19.8281 64.5938
L19.8281 46.7344
Q21.9688 47.4688 24.1094 47.8281
Q26.2656 48.1875 28.4219 48.1875
Q40.625 48.1875 47.75 41.5
Q54.8906 34.8125 54.8906 23.3906
Q54.8906 11.625 47.5625 5.09375
Q40.2344 -1.42188 26.9062 -1.42188
Q22.3125 -1.42188 17.5469 -0.640625
Q12.7969 0.140625 7.71875 1.70312
L7.71875 11.625
Q12.1094 9.23438 16.7969 8.0625
Q21.4844 6.89062 26.7031 6.89062
Q35.1562 6.89062 40.0781 11.3281
Q45.0156 15.7656 45.0156 23.3906
Q45.0156 31 40.0781 35.4375
Q35.1562 39.8906 26.7031 39.8906
Q22.75 39.8906 18.8125 39.0156
Q14.8906 38.1406 10.7969 36.2812
z
" id="BitstreamVeraSans-Roman-35"/>
      </defs>
      <g transform="translate(77.0591074486 256.1165625)scale(0.1 -0.1)">
       <use xlink:href="#BitstreamVeraSans-Roman-35"/>
       <use x="63.623046875" xlink:href="#BitstreamVeraSans-Roman-30"/>
      </g>
     </g>
    </g>
    <g id="xtick_3">
     <g id="line2d_21">
      <g>
       <use style="stroke:#000000;stroke-width:0.5;" x="128.566652397" xlink:href="#mc7db9fdffb" y="244.518125"/>
      </g>
     </g>
     <g id="line2d_22">
      <g>
       <use style="stroke:#000000;stroke-width:0.5;" x="128.566652397" xlink:href="#m5a7d422ac3" y="21.318125"/>
      </g>
     </g>
     <g id="text_3">
      <!-- 100 -->
      <defs>
       <path d="
M12.4062 8.29688
L28.5156 8.29688
L28.5156 63.9219
L10.9844 60.4062
L10.9844 69.3906
L28.4219 72.9062
L38.2812 72.9062
L38.2812 8.29688
L54.3906 8.29688
L54.3906 0
L12.4062 0
z
" id="BitstreamVeraSans-Roman-31"/>
      </defs>
      <g transform="translate(119.904152397 256.1165625)scale(0.1 -0.1)">
       <use xlink:href="#BitstreamVeraSans-Roman-31"/>
       <use x="63.623046875" xlink:href="#BitstreamVeraSans-Roman-30"/>
       <use x="127.24609375" xlink:href="#BitstreamVeraSans-Roman-30"/>
      </g>
     </g>
    </g>
    <g id="xtick_4">
     <g id="line2d_23">
      <g>
       <use style="stroke:#000000;stroke-width:0.5;" x="174.429666096" xlink:href="#mc7db9fdffb" y="244.518125"/>
      </g>
     </g>
     <g id="line2d_24">
      <g>
       <use style="stroke:#000000;stroke-width:0.5;" x="174.429666096" xlink:href="#m5a7d422ac3" y="21.318125"/>
      </g>
     </g>
     <g id="text_4">
      <!-- 150 -->
      <g transform="translate(165.767166096 256.1165625)scale(0.1 -0.1)">
       <use xlink:href="#BitstreamVeraSans-Roman-31"/>
       <use x="63.623046875" xlink:href="#BitstreamVeraSans-Roman-35"/>
       <use x="127.24609375" xlink:href="#BitstreamVeraSans-Roman-30"/>
      </g>
     </g>
    </g>
    <g id="xtick_5">
     <g id="line2d_25">
      <g>
       <use style="stroke:#000000;stroke-width:0.5;" x="220.292679795" xlink:href="#mc7db9fdffb" y="244.518125"/>
      </g>
     </g>
     <g id="line2d_26">
      <g>
       <use style="stroke:#000000;stroke-width:0.5;" x="220.292679795" xlink:href="#m5a7d422ac3" y="21.318125"/>
      </g>
     </g>
     <g id="text_5">
      <!-- 200 -->
      <defs>
       <path d="
M19.1875 8.29688
L53.6094 8.29688
L53.6094 0
L7.32812 0
L7.32812 8.29688
Q12.9375 14.1094 22.625 23.8906
Q32.3281 33.6875 34.8125 36.5312
Q39.5469 41.8438 41.4219 45.5312
Q43.3125 49.2188 43.3125 52.7812
Q43.3125 58.5938 39.2344 62.25
Q35.1562 65.9219 28.6094 65.9219
Q23.9688 65.9219 18.8125 64.3125
Q13.6719 62.7031 7.8125 59.4219
L7.8125 69.3906
Q13.7656 71.7812 18.9375 73
Q24.125 74.2188 28.4219 74.2188
Q39.75 74.2188 46.4844 68.5469
Q53.2188 62.8906 53.2188 53.4219
Q53.2188 48.9219 51.5312 44.8906
Q49.8594 40.875 45.4062 35.4062
Q44.1875 33.9844 37.6406 27.2188
Q31.1094 20.4531 19.1875 8.29688" id="BitstreamVeraSans-Roman-32"/>
      </defs>
      <g transform="translate(211.447367295 256.1165625)scale(0.1 -0.1)">
       <use xlink:href="#BitstreamVeraSans-Roman-32"/>
       <use x="63.623046875" xlink:href="#BitstreamVeraSans-Roman-30"/>
       <use x="127.24609375" xlink:href="#BitstreamVeraSans-Roman-30"/>
      </g>
     </g>
    </g>
    <g id="xtick_6">
     <g id="line2d_27">
      <g>
       <use style="stroke:#000000;stroke-width:0.5;" x="266.155693493" xlink:href="#mc7db9fdffb" y="244.518125"/>
      </g>
     </g>
     <g id="line2d_28">
      <g>
       <use style="stroke:#000000;stroke-width:0.5;" x="266.155693493" xlink:href="#m5a7d422ac3" y="21.318125"/>
      </g>
     </g>
     <g id="text_6">
      <!-- 250 -->
      <g transform="translate(257.310380993 256.1165625)scale(0.1 -0.1)">
       <use xlink:href="#BitstreamVeraSans-Roman-32"/>
       <use x="63.623046875" xlink:href="#BitstreamVeraSans-Roman-35"/>
       <use x="127.24609375" xlink:href="#BitstreamVeraSans-Roman-30"/>
      </g>
     </g>
    </g>
    <g id="xtick_7">
     <g id="line2d_29">
      <g>
       <use style="stroke:#000000;stroke-width:0.5;" x="312.018707192" xlink:href="#mc7db9fdffb" y="244.518125"/>
      </g>
     </g>
     <g id="line2d_30">
      <g>
       <use style="stroke:#000000;stroke-width:0.5;" x="312.018707192" xlink:href="#m5a7d422ac3" y="21.318125"/>
      </g>
     </g>
     <g id="text_7">
      <!-- 300 -->
      <defs>
       <path d="
M40.5781 39.3125
Q47.6562 37.7969 51.625 33
Q55.6094 28.2188 55.6094 21.1875
Q55.6094 10.4062 48.1875 4.48438
Q40.7656 -1.42188 27.0938 -1.42188
Q22.5156 -1.42188 17.6562 -0.515625
Q12.7969 0.390625 7.625 2.20312
L7.625 11.7188
Q11.7188 9.32812 16.5938 8.10938
Q21.4844 6.89062 26.8125 6.89062
Q36.0781 6.89062 40.9375 10.5469
Q45.7969 14.2031 45.7969 21.1875
Q45.7969 27.6406 41.2812 31.2656
Q36.7656 34.9062 28.7188 34.9062
L20.2188 34.9062
L20.2188 43.0156
L29.1094 43.0156
Q36.375 43.0156 40.2344 45.9219
Q44.0938 48.8281 44.0938 54.2969
Q44.0938 59.9062 40.1094 62.9062
Q36.1406 65.9219 28.7188 65.9219
Q24.6562 65.9219 20.0156 65.0312
Q15.375 64.1562 9.8125 62.3125
L9.8125 71.0938
Q15.4375 72.6562 20.3438 73.4375
Q25.25 74.2188 29.5938 74.2188
Q40.8281 74.2188 47.3594 69.1094
Q53.9062 64.0156 53.9062 55.3281
Q53.9062 49.2656 50.4375 45.0938
Q46.9688 40.9219 40.5781 39.3125" id="BitstreamVeraSans-Roman-33"/>
      </defs>
      <g transform="translate(303.188238442 256.1165625)scale(0.1 -0.1)">
       <use xlink:href="#BitstreamVeraSans-Roman-33"/>
       <use x="63.623046875" xlink:href="#BitstreamVeraSans-Roman-30"/>
       <use x="127.24609375" xlink:href="#BitstreamVeraSans-Roman-30"/>
      </g>
     </g>
    </g>
    <g id="xtick_8">
     <g id="line2d_31">
      <g>
       <use style="stroke:#000000;stroke-width:0.5;" x="357.88172089" xlink:href="#mc7db9fdffb" y="244.518125"/>
      </g>
     </g>
     <g id="line2d_32">
      <g>
       <use style="stroke:#000000;stroke-width:0.5;" x="357.88172089" xlink:href="#m5a7d422ac3" y="21.318125"/>
      </g>
     </g>
     <g id="text_8">
      <!-- 350 -->
      <g transform="translate(349.05125214 256.1165625)scale(0.1 -0.1)">
       <use xlink:href="#BitstreamVeraSans-Roman-33"/>
       <use x="63.623046875" xlink:href="#BitstreamVeraSans-Roman-35"/>
       <use x="127.24609375" xlink:href="#BitstreamVeraSans-Roman-30"/>
      </g>
     </g>
    </g>
    <g id="text_9">
     <!-- Julian day -->
     <defs>
      <path d="
M9.8125 72.9062
L19.6719 72.9062
L19.6719 5.07812
Q19.6719 -8.10938 14.6719 -14.0625
Q9.67188 -20.0156 -1.42188 -20.0156
L-5.17188 -20.0156
L-5.17188 -11.7188
L-2.09375 -11.7188
Q4.4375 -11.7188 7.125 -8.04688
Q9.8125 -4.39062 9.8125 5.07812
z
" id="BitstreamVeraSans-Roman-4a"/>
      <path d="
M9.42188 54.6875
L18.4062 54.6875
L18.4062 0
L9.42188 0
z

M9.42188 75.9844
L18.4062 75.9844
L18.4062 64.5938
L9.42188 64.5938
z
" id="BitstreamVeraSans-Roman-69"/>
      <path d="
M45.4062 46.3906
L45.4062 75.9844
L54.3906 75.9844
L54.3906 0
L45.4062 0
L45.4062 8.20312
Q42.5781 3.32812 38.25 0.953125
Q33.9375 -1.42188 27.875 -1.42188
Q17.9688 -1.42188 11.7344 6.48438
Q5.51562 14.4062 5.51562 27.2969
Q5.51562 40.1875 11.7344 48.0938
Q17.9688 56 27.875 56
Q33.9375 56 38.25 53.625
Q42.5781 51.2656 45.4062 46.3906
M14.7969 27.2969
Q14.7969 17.3906 18.875 11.75
Q22.9531 6.10938 30.0781 6.10938
Q37.2031 6.10938 41.2969 11.75
Q45.4062 17.3906 45.4062 27.2969
Q45.4062 37.2031 41.2969 42.8438
Q37.2031 48.4844 30.0781 48.4844
Q22.9531 48.4844 18.875 42.8438
Q14.7969 37.2031 14.7969 27.2969" id="BitstreamVeraSans-Roman-64"/>
      <path d="
M34.2812 27.4844
Q23.3906 27.4844 19.1875 25
Q14.9844 22.5156 14.9844 16.5
Q14.9844 11.7188 18.1406 8.90625
Q21.2969 6.10938 26.7031 6.10938
Q34.1875 6.10938 38.7031 11.4062
Q43.2188 16.7031 43.2188 25.4844
L43.2188 27.4844
z

M52.2031 31.2031
L52.2031 0
L43.2188 0
L43.2188 8.29688
Q40.1406 3.32812 35.5469 0.953125
Q30.9531 -1.42188 24.3125 -1.42188
Q15.9219 -1.42188 10.9531 3.29688
Q6 8.01562 6 15.9219
Q6 25.1406 12.1719 29.8281
Q18.3594 34.5156 30.6094 34.5156
L43.2188 34.5156
L43.2188 35.4062
Q43.2188 41.6094 39.1406 45
Q35.0625 48.3906 27.6875 48.3906
Q23 48.3906 18.5469 47.2656
Q14.1094 46.1406 10.0156 43.8906
L10.0156 52.2031
Q14.9375 54.1094 19.5781 55.0469
Q24.2188 56 28.6094 56
Q40.4844 56 46.3438 49.8438
Q52.2031 43.7031 52.2031 31.2031" id="BitstreamVeraSans-Roman-61"/>
      <path id="BitstreamVeraSans-Roman-20"/>
      <path d="
M8.5 21.5781
L8.5 54.6875
L17.4844 54.6875
L17.4844 21.9219
Q17.4844 14.1562 20.5 10.2656
Q23.5312 6.39062 29.5938 6.39062
Q36.8594 6.39062 41.0781 11.0312
Q45.3125 15.6719 45.3125 23.6875
L45.3125 54.6875
L54.2969 54.6875
L54.2969 0
L45.3125 0
L45.3125 8.40625
Q42.0469 3.42188 37.7188 1
Q33.4062 -1.42188 27.6875 -1.42188
Q18.2656 -1.42188 13.375 4.4375
Q8.5 10.2969 8.5 21.5781" id="BitstreamVeraSans-Roman-75"/>
      <path d="
M9.42188 75.9844
L18.4062 75.9844
L18.4062 0
L9.42188 0
z
" id="BitstreamVeraSans-Roman-6c"/>
      <path d="
M54.8906 33.0156
L54.8906 0
L45.9062 0
L45.9062 32.7188
Q45.9062 40.4844 42.875 44.3281
Q39.8438 48.1875 33.7969 48.1875
Q26.5156 48.1875 22.3125 43.5469
Q18.1094 38.9219 18.1094 30.9062
L18.1094 0
L9.07812 0
L9.07812 54.6875
L18.1094 54.6875
L18.1094 46.1875
Q21.3438 51.125 25.7031 53.5625
Q30.0781 56 35.7969 56
Q45.2188 56 50.0469 50.1719
Q54.8906 44.3438 54.8906 33.0156" id="BitstreamVeraSans-Roman-6e"/>
      <path d="
M32.1719 -5.07812
Q28.375 -14.8438 24.75 -17.8125
Q21.1406 -20.7969 15.0938 -20.7969
L7.90625 -20.7969
L7.90625 -13.2812
L13.1875 -13.2812
Q16.8906 -13.2812 18.9375 -11.5156
Q21 -9.76562 23.4844 -3.21875
L25.0938 0.875
L2.98438 54.6875
L12.5 54.6875
L29.5938 11.9219
L46.6875 54.6875
L56.2031 54.6875
z
" id="BitstreamVeraSans-Roman-79"/>
     </defs>
     <g transform="translate(179.68984375 270.7946875)scale(0.1 -0.1)">
      <use xlink:href="#BitstreamVeraSans-Roman-4a"/>
      <use x="29.4921875" xlink:href="#BitstreamVeraSans-Roman-75"/>
      <use x="92.87109375" xlink:href="#BitstreamVeraSans-Roman-6c"/>
      <use x="120.654296875" xlink:href="#BitstreamVeraSans-Roman-69"/>
      <use x="148.4375" xlink:href="#BitstreamVeraSans-Roman-61"/>
      <use x="209.716796875" xlink:href="#BitstreamVeraSans-Roman-6e"/>
      <use x="273.095703125" xlink:href="#BitstreamVeraSans-Roman-20"/>
      <use x="304.8828125" xlink:href="#BitstreamVeraSans-Roman-64"/>
      <use x="368.359375" xlink:href="#BitstreamVeraSans-Roman-61"/>
      <use x="429.638671875" xlink:href="#BitstreamVeraSans-Roman-79"/>
     </g>
    </g>
   </g>
   <g id="matplotlib.axis_2">
    <g id="ytick_1">
     <g id="line2d_33">
      <defs>
       <path d="
M0 0
L4 0" id="md7965d1ba0" style="stroke:#000000;stroke-width:0.5;"/>
      </defs>
      <g>
       <use style="stroke:#000000;stroke-width:0.5;" x="36.840625" xlink:href="#md7965d1ba0" y="244.518125"/>
      </g>
     </g>
     <g id="line2d_34">
      <defs>
       <path d="
M0 0
L-4 0" id="md9a1c1a7cd" style="stroke:#000000;stroke-width:0.5;"/>
      </defs>
      <g>
       <use style="stroke:#000000;stroke-width:0.5;" x="371.640625" xlink:href="#md9a1c1a7cd" y="244.518125"/>
      </g>
     </g>
     <g id="text_10">
      <!-- 0 -->
      <g transform="translate(27.8015625 247.2775)scale(0.1 -0.1)">
       <use xlink:href="#BitstreamVeraSans-Roman-30"/>
      </g>
     </g>
    </g>
    <g id="ytick_2">
     <g id="line2d_35">
      <g>
       <use style="stroke:#000000;stroke-width:0.5;" x="36.840625" xlink:href="#md7965d1ba0" y="199.878125"/>
      </g>
     </g>
     <g id="line2d_36">
      <g>
       <use style="stroke:#000000;stroke-width:0.5;" x="371.640625" xlink:href="#md9a1c1a7cd" y="199.878125"/>
      </g>
     </g>
     <g id="text_11">
      <!-- 2 -->
      <g transform="translate(28.2125 202.6375)scale(0.1 -0.1)">
       <use xlink:href="#BitstreamVeraSans-Roman-32"/>
      </g>
     </g>
    </g>
    <g id="ytick_3">
     <g id="line2d_37">
      <g>
       <use style="stroke:#000000;stroke-width:0.5;" x="36.840625" xlink:href="#md7965d1ba0" y="155.238125"/>
      </g>
     </g>
     <g id="line2d_38">
      <g>
       <use style="stroke:#000000;stroke-width:0.5;" x="371.640625" xlink:href="#md9a1c1a7cd" y="155.238125"/>
      </g>
     </g>
     <g id="text_12">
      <!-- 4 -->
      <defs>
       <path d="
M37.7969 64.3125
L12.8906 25.3906
L37.7969 25.3906
z

M35.2031 72.9062
L47.6094 72.9062
L47.6094 25.3906
L58.0156 25.3906
L58.0156 17.1875
L47.6094 17.1875
L47.6094 0
L37.7969 0
L37.7969 17.1875
L4.89062 17.1875
L4.89062 26.7031
z
" id="BitstreamVeraSans-Roman-34"/>
      </defs>
      <g transform="translate(27.528125 157.9975)scale(0.1 -0.1)">
       <use xlink:href="#BitstreamVeraSans-Roman-34"/>
      </g>
     </g>
    </g>
    <g id="ytick_4">
     <g id="line2d_39">
      <g>
       <use style="stroke:#000000;stroke-width:0.5;" x="36.840625" xlink:href="#md7965d1ba0" y="110.598125"/>
      </g>
     </g>
     <g id="line2d_40">
      <g>
       <use style="stroke:#000000;stroke-width:0.5;" x="371.640625" xlink:href="#md9a1c1a7cd" y="110.598125"/>
      </g>
     </g>
     <g id="text_13">
      <!-- 6 -->
      <defs>
       <path d="
M33.0156 40.375
Q26.375 40.375 22.4844 35.8281
Q18.6094 31.2969 18.6094 23.3906
Q18.6094 15.5312 22.4844 10.9531
Q26.375 6.39062 33.0156 6.39062
Q39.6562 6.39062 43.5312 10.9531
Q47.4062 15.5312 47.4062 23.3906
Q47.4062 31.2969 43.5312 35.8281
Q39.6562 40.375 33.0156 40.375
M52.5938 71.2969
L52.5938 62.3125
Q48.875 64.0625 45.0938 64.9844
Q41.3125 65.9219 37.5938 65.9219
Q27.8281 65.9219 22.6719 59.3281
Q17.5312 52.7344 16.7969 39.4062
Q19.6719 43.6562 24.0156 45.9219
Q28.375 48.1875 33.5938 48.1875
Q44.5781 48.1875 50.9531 41.5156
Q57.3281 34.8594 57.3281 23.3906
Q57.3281 12.1562 50.6875 5.35938
Q44.0469 -1.42188 33.0156 -1.42188
Q20.3594 -1.42188 13.6719 8.26562
Q6.98438 17.9688 6.98438 36.375
Q6.98438 53.6562 15.1875 63.9375
Q23.3906 74.2188 37.2031 74.2188
Q40.9219 74.2188 44.7031 73.4844
Q48.4844 72.75 52.5938 71.2969" id="BitstreamVeraSans-Roman-36"/>
      </defs>
      <g transform="translate(27.80625 113.3575)scale(0.1 -0.1)">
       <use xlink:href="#BitstreamVeraSans-Roman-36"/>
      </g>
     </g>
    </g>
    <g id="ytick_5">
     <g id="line2d_41">
      <g>
       <use style="stroke:#000000;stroke-width:0.5;" x="36.840625" xlink:href="#md7965d1ba0" y="65.958125"/>
      </g>
     </g>
     <g id="line2d_42">
      <g>
       <use style="stroke:#000000;stroke-width:0.5;" x="371.640625" xlink:href="#md9a1c1a7cd" y="65.958125"/>
      </g>
     </g>
     <g id="text_14">
      <!-- 8 -->
      <defs>
       <path d="
M31.7812 34.625
Q24.75 34.625 20.7188 30.8594
Q16.7031 27.0938 16.7031 20.5156
Q16.7031 13.9219 20.7188 10.1562
Q24.75 6.39062 31.7812 6.39062
Q38.8125 6.39062 42.8594 10.1719
Q46.9219 13.9688 46.9219 20.5156
Q46.9219 27.0938 42.8906 30.8594
Q38.875 34.625 31.7812 34.625
M21.9219 38.8125
Q15.5781 40.375 12.0312 44.7188
Q8.5 49.0781 8.5 55.3281
Q8.5 64.0625 14.7188 69.1406
Q20.9531 74.2188 31.7812 74.2188
Q42.6719 74.2188 48.875 69.1406
Q55.0781 64.0625 55.0781 55.3281
Q55.0781 49.0781 51.5312 44.7188
Q48 40.375 41.7031 38.8125
Q48.8281 37.1562 52.7969 32.3125
Q56.7812 27.4844 56.7812 20.5156
Q56.7812 9.90625 50.3125 4.23438
Q43.8438 -1.42188 31.7812 -1.42188
Q19.7344 -1.42188 13.25 4.23438
Q6.78125 9.90625 6.78125 20.5156
Q6.78125 27.4844 10.7812 32.3125
Q14.7969 37.1562 21.9219 38.8125
M18.3125 54.3906
Q18.3125 48.7344 21.8438 45.5625
Q25.3906 42.3906 31.7812 42.3906
Q38.1406 42.3906 41.7188 45.5625
Q45.3125 48.7344 45.3125 54.3906
Q45.3125 60.0625 41.7188 63.2344
Q38.1406 66.4062 31.7812 66.4062
Q25.3906 66.4062 21.8438 63.2344
Q18.3125 60.0625 18.3125 54.3906" id="BitstreamVeraSans-Roman-38"/>
      </defs>
      <g transform="translate(27.840625 68.7175)scale(0.1 -0.1)">
       <use xlink:href="#BitstreamVeraSans-Roman-38"/>
      </g>
     </g>
    </g>
    <g id="ytick_6">
     <g id="line2d_43">
      <g>
       <use style="stroke:#000000;stroke-width:0.5;" x="36.840625" xlink:href="#md7965d1ba0" y="21.318125"/>
      </g>
     </g>
     <g id="line2d_44">
      <g>
       <use style="stroke:#000000;stroke-width:0.5;" x="371.640625" xlink:href="#md9a1c1a7cd" y="21.318125"/>
      </g>
     </g>
     <g id="text_15">
      <!-- 10 -->
      <g transform="translate(21.878125 24.0775)scale(0.1 -0.1)">
       <use xlink:href="#BitstreamVeraSans-Roman-31"/>
       <use x="63.623046875" xlink:href="#BitstreamVeraSans-Roman-30"/>
      </g>
     </g>
    </g>
    <g id="text_16">
     <!-- PET (mm/day) -->
     <defs>
      <path d="
M19.6719 64.7969
L19.6719 37.4062
L32.0781 37.4062
Q38.9688 37.4062 42.7188 40.9688
Q46.4844 44.5312 46.4844 51.125
Q46.4844 57.6719 42.7188 61.2344
Q38.9688 64.7969 32.0781 64.7969
z

M9.8125 72.9062
L32.0781 72.9062
Q44.3438 72.9062 50.6094 67.3594
Q56.8906 61.8125 56.8906 51.125
Q56.8906 40.3281 50.6094 34.8125
Q44.3438 29.2969 32.0781 29.2969
L19.6719 29.2969
L19.6719 0
L9.8125 0
z
" id="BitstreamVeraSans-Roman-50"/>
      <path d="
M-0.296875 72.9062
L61.375 72.9062
L61.375 64.5938
L35.5 64.5938
L35.5 0
L25.5938 0
L25.5938 64.5938
L-0.296875 64.5938
z
" id="BitstreamVeraSans-Roman-54"/>
      <path d="
M31 75.875
Q24.4688 64.6562 21.2812 53.6562
Q18.1094 42.6719 18.1094 31.3906
Q18.1094 20.125 21.3125 9.0625
Q24.5156 -2 31 -13.1875
L23.1875 -13.1875
Q15.875 -1.70312 12.2344 9.375
Q8.59375 20.4531 8.59375 31.3906
Q8.59375 42.2812 12.2031 53.3125
Q15.8281 64.3594 23.1875 75.875
z
" id="BitstreamVeraSans-Roman-28"/>
      <path d="
M52 44.1875
Q55.375 50.25 60.0625 53.125
Q64.75 56 71.0938 56
Q79.6406 56 84.2812 50.0156
Q88.9219 44.0469 88.9219 33.0156
L88.9219 0
L79.8906 0
L79.8906 32.7188
Q79.8906 40.5781 77.0938 44.375
Q74.3125 48.1875 68.6094 48.1875
Q61.625 48.1875 57.5625 43.5469
Q53.5156 38.9219 53.5156 30.9062
L53.5156 0
L44.4844 0
L44.4844 32.7188
Q44.4844 40.625 41.7031 44.4062
Q38.9219 48.1875 33.1094 48.1875
Q26.2188 48.1875 22.1562 43.5312
Q18.1094 38.875 18.1094 30.9062
L18.1094 0
L9.07812 0
L9.07812 54.6875
L18.1094 54.6875
L18.1094 46.1875
Q21.1875 51.2188 25.4844 53.6094
Q29.7812 56 35.6875 56
Q41.6562 56 45.8281 52.9688
Q50 49.9531 52 44.1875" id="BitstreamVeraSans-Roman-6d"/>
      <path d="
M8.01562 75.875
L15.8281 75.875
Q23.1406 64.3594 26.7812 53.3125
Q30.4219 42.2812 30.4219 31.3906
Q30.4219 20.4531 26.7812 9.375
Q23.1406 -1.70312 15.8281 -13.1875
L8.01562 -13.1875
Q14.5 -2 17.7031 9.0625
Q20.9062 20.125 20.9062 31.3906
Q20.9062 42.6719 17.7031 53.6562
Q14.5 64.6562 8.01562 75.875" id="BitstreamVeraSans-Roman-29"/>
      <path d="
M25.3906 72.9062
L33.6875 72.9062
L8.29688 -9.28125
L0 -9.28125
z
" id="BitstreamVeraSans-Roman-2f"/>
      <path d="
M9.8125 72.9062
L55.9062 72.9062
L55.9062 64.5938
L19.6719 64.5938
L19.6719 43.0156
L54.3906 43.0156
L54.3906 34.7188
L19.6719 34.7188
L19.6719 8.29688
L56.7812 8.29688
L56.7812 0
L9.8125 0
z
" id="BitstreamVeraSans-Roman-45"/>
     </defs>
     <g transform="translate(14.7984375 167.82984375)rotate(-90.0)scale(0.1 -0.1)">
      <use xlink:href="#BitstreamVeraSans-Roman-50"/>
      <use x="60.302734375" xlink:href="#BitstreamVeraSans-Roman-45"/>
      <use x="123.486328125" xlink:href="#BitstreamVeraSans-Roman-54"/>
      <use x="184.5703125" xlink:href="#BitstreamVeraSans-Roman-20"/>
      <use x="216.357421875" xlink:href="#BitstreamVeraSans-Roman-28"/>
      <use x="255.37109375" xlink:href="#BitstreamVeraSans-Roman-6d"/>
      <use x="352.783203125" xlink:href="#BitstreamVeraSans-Roman-6d"/>
      <use x="450.1953125" xlink:href="#BitstreamVeraSans-Roman-2f"/>
      <use x="483.88671875" xlink:href="#BitstreamVeraSans-Roman-64"/>
      <use x="547.36328125" xlink:href="#BitstreamVeraSans-Roman-61"/>
      <use x="608.642578125" xlink:href="#BitstreamVeraSans-Roman-79"/>
      <use x="667.822265625" xlink:href="#BitstreamVeraSans-Roman-29"/>
     </g>
    </g>
   </g>
   <g id="text_17">
    <!-- daily grass PET at Treeline -->
    <defs>
     <path d="
M45.4062 27.9844
Q45.4062 37.75 41.375 43.1094
Q37.3594 48.4844 30.0781 48.4844
Q22.8594 48.4844 18.8281 43.1094
Q14.7969 37.75 14.7969 27.9844
Q14.7969 18.2656 18.8281 12.8906
Q22.8594 7.51562 30.0781 7.51562
Q37.3594 7.51562 41.375 12.8906
Q45.4062 18.2656 45.4062 27.9844
M54.3906 6.78125
Q54.3906 -7.17188 48.1875 -13.9844
Q42 -20.7969 29.2031 -20.7969
Q24.4688 -20.7969 20.2656 -20.0938
Q16.0625 -19.3906 12.1094 -17.9219
L12.1094 -9.1875
Q16.0625 -11.3281 19.9219 -12.3438
Q23.7812 -13.375 27.7812 -13.375
Q36.625 -13.375 41.0156 -8.76562
Q45.4062 -4.15625 45.4062 5.17188
L45.4062 9.625
Q42.625 4.78125 38.2812 2.39062
Q33.9375 0 27.875 0
Q17.8281 0 11.6719 7.65625
Q5.51562 15.3281 5.51562 27.9844
Q5.51562 40.6719 11.6719 48.3281
Q17.8281 56 27.875 56
Q33.9375 56 38.2812 53.6094
Q42.625 51.2188 45.4062 46.3906
L45.4062 54.6875
L54.3906 54.6875
z
" id="BitstreamVeraSans-Roman-67"/>
     <path d="
M44.2812 53.0781
L44.2812 44.5781
Q40.4844 46.5312 36.375 47.5
Q32.2812 48.4844 27.875 48.4844
Q21.1875 48.4844 17.8438 46.4375
Q14.5 44.3906 14.5 40.2812
Q14.5 37.1562 16.8906 35.375
Q19.2812 33.5938 26.5156 31.9844
L29.5938 31.2969
Q39.1562 29.25 43.1875 25.5156
Q47.2188 21.7812 47.2188 15.0938
Q47.2188 7.46875 41.1875 3.01562
Q35.1562 -1.42188 24.6094 -1.42188
Q20.2188 -1.42188 15.4531 -0.5625
Q10.6875 0.296875 5.42188 2
L5.42188 11.2812
Q10.4062 8.6875 15.2344 7.39062
Q20.0625 6.10938 24.8125 6.10938
Q31.1562 6.10938 34.5625 8.28125
Q37.9844 10.4531 37.9844 14.4062
Q37.9844 18.0625 35.5156 20.0156
Q33.0625 21.9688 24.7031 23.7812
L21.5781 24.5156
Q13.2344 26.2656 9.51562 29.9062
Q5.8125 33.5469 5.8125 39.8906
Q5.8125 47.6094 11.2812 51.7969
Q16.75 56 26.8125 56
Q31.7812 56 36.1719 55.2656
Q40.5781 54.5469 44.2812 53.0781" id="BitstreamVeraSans-Roman-73"/>
     <path d="
M18.3125 70.2188
L18.3125 54.6875
L36.8125 54.6875
L36.8125 47.7031
L18.3125 47.7031
L18.3125 18.0156
Q18.3125 11.3281 20.1406 9.42188
Q21.9688 7.51562 27.5938 7.51562
L36.8125 7.51562
L36.8125 0
L27.5938 0
Q17.1875 0 13.2344 3.875
Q9.28125 7.76562 9.28125 18.0156
L9.28125 47.7031
L2.6875 47.7031
L2.6875 54.6875
L9.28125 54.6875
L9.28125 70.2188
z
" id="BitstreamVeraSans-Roman-74"/>
     <path d="
M41.1094 46.2969
Q39.5938 47.1719 37.8125 47.5781
Q36.0312 48 33.8906 48
Q26.2656 48 22.1875 43.0469
Q18.1094 38.0938 18.1094 28.8125
L18.1094 0
L9.07812 0
L9.07812 54.6875
L18.1094 54.6875
L18.1094 46.1875
Q20.9531 51.1719 25.4844 53.5781
Q30.0312 56 36.5312 56
Q37.4531 56 38.5781 55.875
Q39.7031 55.7656 41.0625 55.5156
z
" id="BitstreamVeraSans-Roman-72"/>
     <path d="
M56.2031 29.5938
L56.2031 25.2031
L14.8906 25.2031
Q15.4844 15.9219 20.4844 11.0625
Q25.4844 6.20312 34.4219 6.20312
Q39.5938 6.20312 44.4531 7.46875
Q49.3125 8.73438 54.1094 11.2812
L54.1094 2.78125
Q49.2656 0.734375 44.1875 -0.34375
Q39.1094 -1.42188 33.8906 -1.42188
Q20.7969 -1.42188 13.1562 6.1875
Q5.51562 13.8125 5.51562 26.8125
Q5.51562 40.2344 12.7656 48.1094
Q20.0156 56 32.3281 56
Q43.3594 56 49.7812 48.8906
Q56.2031 41.7969 56.2031 29.5938
M47.2188 32.2344
Q47.125 39.5938 43.0938 43.9844
Q39.0625 48.3906 32.4219 48.3906
Q24.9062 48.3906 20.3906 44.1406
Q15.875 39.8906 15.1875 32.1719
z
" id="BitstreamVeraSans-Roman-65"/>
    </defs>
    <g transform="translate(125.9321875 16.318125)scale(0.12 -0.12)">
     <use xlink:href="#BitstreamVeraSans-Roman-64"/>
     <use x="63.4765625" xlink:href="#BitstreamVeraSans-Roman-61"/>
     <use x="124.755859375" xlink:href="#BitstreamVeraSans-Roman-69"/>
     <use x="152.5390625" xlink:href="#BitstreamVeraSans-Roman-6c"/>
     <use x="180.322265625" xlink:href="#BitstreamVeraSans-Roman-79"/>
     <use x="239.501953125" xlink:href="#BitstreamVeraSans-Roman-20"/>
     <use x="271.2890625" xlink:href="#BitstreamVeraSans-Roman-67"/>
     <use x="334.765625" xlink:href="#BitstreamVeraSans-Roman-72"/>
     <use x="375.87890625" xlink:href="#BitstreamVeraSans-Roman-61"/>
     <use x="437.158203125" xlink:href="#BitstreamVeraSans-Roman-73"/>
     <use x="489.2578125" xlink:href="#BitstreamVeraSans-Roman-73"/>
     <use x="541.357421875" xlink:href="#BitstreamVeraSans-Roman-20"/>
     <use x="573.14453125" xlink:href="#BitstreamVeraSans-Roman-50"/>
     <use x="633.447265625" xlink:href="#BitstreamVeraSans-Roman-45"/>
     <use x="696.630859375" xlink:href="#BitstreamVeraSans-Roman-54"/>
     <use x="757.71484375" xlink:href="#BitstreamVeraSans-Roman-20"/>
     <use x="789.501953125" xlink:href="#BitstreamVeraSans-Roman-61"/>
     <use x="850.78125" xlink:href="#BitstreamVeraSans-Roman-74"/>
     <use x="889.990234375" xlink:href="#BitstreamVeraSans-Roman-20"/>
     <use x="921.77734375" xlink:href="#BitstreamVeraSans-Roman-54"/>
     <use x="968.111328125" xlink:href="#BitstreamVeraSans-Roman-72"/>
     <use x="1006.974609375" xlink:href="#BitstreamVeraSans-Roman-65"/>
     <use x="1068.498046875" xlink:href="#BitstreamVeraSans-Roman-65"/>
     <use x="1130.021484375" xlink:href="#BitstreamVeraSans-Roman-6c"/>
     <use x="1157.8046875" xlink:href="#BitstreamVeraSans-Roman-69"/>
     <use x="1185.587890625" xlink:href="#BitstreamVeraSans-Roman-6e"/>
     <use x="1248.966796875" xlink:href="#BitstreamVeraSans-Roman-65"/>
    </g>
   </g>
   <g id="legend_1">
    <g id="patch_7">
     <path d="
M293.453 312.738
L365.641 312.738
L365.641 27.3181
L293.453 27.3181
z
" style="fill:#ffffff;stroke:#000000;stroke-linejoin:miter;"/>
    </g>
    <g id="line2d_45">
     <path d="
M301.853 37.0363
L318.653 37.0363" style="fill:none;stroke:#0000ff;stroke-linecap:square;"/>
    </g>
    <g id="line2d_46"/>
    <g id="text_18">
     <!-- 1999 -->
     <defs>
      <path d="
M10.9844 1.51562
L10.9844 10.5
Q14.7031 8.73438 18.5 7.8125
Q22.3125 6.89062 25.9844 6.89062
Q35.75 6.89062 40.8906 13.4531
Q46.0469 20.0156 46.7812 33.4062
Q43.9531 29.2031 39.5938 26.9531
Q35.25 24.7031 29.9844 24.7031
Q19.0469 24.7031 12.6719 31.3125
Q6.29688 37.9375 6.29688 49.4219
Q6.29688 60.6406 12.9375 67.4219
Q19.5781 74.2188 30.6094 74.2188
Q43.2656 74.2188 49.9219 64.5156
Q56.5938 54.8281 56.5938 36.375
Q56.5938 19.1406 48.4062 8.85938
Q40.2344 -1.42188 26.4219 -1.42188
Q22.7031 -1.42188 18.8906 -0.6875
Q15.0938 0.046875 10.9844 1.51562
M30.6094 32.4219
Q37.25 32.4219 41.125 36.9531
Q45.0156 41.5 45.0156 49.4219
Q45.0156 57.2812 41.125 61.8438
Q37.25 66.4062 30.6094 66.4062
Q23.9688 66.4062 20.0938 61.8438
Q16.2188 57.2812 16.2188 49.4219
Q16.2188 41.5 20.0938 36.9531
Q23.9688 32.4219 30.6094 32.4219" id="BitstreamVeraSans-Roman-39"/>
     </defs>
     <g transform="translate(331.853125 41.23625)scale(0.12 -0.12)">
      <use xlink:href="#BitstreamVeraSans-Roman-31"/>
      <use x="63.623046875" xlink:href="#BitstreamVeraSans-Roman-39"/>
      <use x="127.24609375" xlink:href="#BitstreamVeraSans-Roman-39"/>
      <use x="190.869140625" xlink:href="#BitstreamVeraSans-Roman-39"/>
     </g>
    </g>
    <g id="line2d_47">
     <path d="
M301.853 54.65
L318.653 54.65" style="fill:none;stroke:#008000;stroke-linecap:square;"/>
    </g>
    <g id="line2d_48"/>
    <g id="text_19">
     <!-- 2000 -->
     <g transform="translate(331.853125 58.85)scale(0.12 -0.12)">
      <use xlink:href="#BitstreamVeraSans-Roman-32"/>
      <use x="63.623046875" xlink:href="#BitstreamVeraSans-Roman-30"/>
      <use x="127.24609375" xlink:href="#BitstreamVeraSans-Roman-30"/>
      <use x="190.869140625" xlink:href="#BitstreamVeraSans-Roman-30"/>
     </g>
    </g>
    <g id="line2d_49">
     <path d="
M301.853 72.2638
L318.653 72.2638" style="fill:none;stroke:#ff0000;stroke-linecap:square;"/>
    </g>
    <g id="line2d_50"/>
    <g id="text_20">
     <!-- 2001 -->
     <g transform="translate(331.853125 76.46375)scale(0.12 -0.12)">
      <use xlink:href="#BitstreamVeraSans-Roman-32"/>
      <use x="63.623046875" xlink:href="#BitstreamVeraSans-Roman-30"/>
      <use x="127.24609375" xlink:href="#BitstreamVeraSans-Roman-30"/>
      <use x="190.869140625" xlink:href="#BitstreamVeraSans-Roman-31"/>
     </g>
    </g>
    <g id="line2d_51">
     <path d="
M301.853 89.8775
L318.653 89.8775" style="fill:none;stroke:#00bfbf;stroke-linecap:square;"/>
    </g>
    <g id="line2d_52"/>
    <g id="text_21">
     <!-- 2002 -->
     <g transform="translate(331.853125 94.0775)scale(0.12 -0.12)">
      <use xlink:href="#BitstreamVeraSans-Roman-32"/>
      <use x="63.623046875" xlink:href="#BitstreamVeraSans-Roman-30"/>
      <use x="127.24609375" xlink:href="#BitstreamVeraSans-Roman-30"/>
      <use x="190.869140625" xlink:href="#BitstreamVeraSans-Roman-32"/>
     </g>
    </g>
    <g id="line2d_53">
     <path d="
M301.853 107.491
L318.653 107.491" style="fill:none;stroke:#bf00bf;stroke-linecap:square;"/>
    </g>
    <g id="line2d_54"/>
    <g id="text_22">
     <!-- 2003 -->
     <g transform="translate(331.853125 111.69125)scale(0.12 -0.12)">
      <use xlink:href="#BitstreamVeraSans-Roman-32"/>
      <use x="63.623046875" xlink:href="#BitstreamVeraSans-Roman-30"/>
      <use x="127.24609375" xlink:href="#BitstreamVeraSans-Roman-30"/>
      <use x="190.869140625" xlink:href="#BitstreamVeraSans-Roman-33"/>
     </g>
    </g>
    <g id="line2d_55">
     <path d="
M301.853 125.105
L318.653 125.105" style="fill:none;stroke:#bfbf00;stroke-linecap:square;"/>
    </g>
    <g id="line2d_56"/>
    <g id="text_23">
     <!-- 2004 -->
     <g transform="translate(331.853125 129.305)scale(0.12 -0.12)">
      <use xlink:href="#BitstreamVeraSans-Roman-32"/>
      <use x="63.623046875" xlink:href="#BitstreamVeraSans-Roman-30"/>
      <use x="127.24609375" xlink:href="#BitstreamVeraSans-Roman-30"/>
      <use x="190.869140625" xlink:href="#BitstreamVeraSans-Roman-34"/>
     </g>
    </g>
    <g id="line2d_57">
     <path d="
M301.853 142.719
L318.653 142.719" style="fill:none;stroke:#000000;stroke-linecap:square;"/>
    </g>
    <g id="line2d_58"/>
    <g id="text_24">
     <!-- 2005 -->
     <g transform="translate(331.853125 146.91875)scale(0.12 -0.12)">
      <use xlink:href="#BitstreamVeraSans-Roman-32"/>
      <use x="63.623046875" xlink:href="#BitstreamVeraSans-Roman-30"/>
      <use x="127.24609375" xlink:href="#BitstreamVeraSans-Roman-30"/>
      <use x="190.869140625" xlink:href="#BitstreamVeraSans-Roman-35"/>
     </g>
    </g>
    <g id="line2d_59">
     <path d="
M301.853 160.333
L318.653 160.333" style="fill:none;stroke:#0000ff;stroke-linecap:square;"/>
    </g>
    <g id="line2d_60"/>
    <g id="text_25">
     <!-- 2006 -->
     <g transform="translate(331.853125 164.5325)scale(0.12 -0.12)">
      <use xlink:href="#BitstreamVeraSans-Roman-32"/>
      <use x="63.623046875" xlink:href="#BitstreamVeraSans-Roman-30"/>
      <use x="127.24609375" xlink:href="#BitstreamVeraSans-Roman-30"/>
      <use x="190.869140625" xlink:href="#BitstreamVeraSans-Roman-36"/>
     </g>
    </g>
    <g id="line2d_61">
     <path d="
M301.853 177.946
L318.653 177.946" style="fill:none;stroke:#008000;stroke-linecap:square;"/>
    </g>
    <g id="line2d_62"/>
    <g id="text_26">
     <!-- 2007 -->
     <defs>
      <path d="
M8.20312 72.9062
L55.0781 72.9062
L55.0781 68.7031
L28.6094 0
L18.3125 0
L43.2188 64.5938
L8.20312 64.5938
z
" id="BitstreamVeraSans-Roman-37"/>
     </defs>
     <g transform="translate(331.853125 182.14625)scale(0.12 -0.12)">
      <use xlink:href="#BitstreamVeraSans-Roman-32"/>
      <use x="63.623046875" xlink:href="#BitstreamVeraSans-Roman-30"/>
      <use x="127.24609375" xlink:href="#BitstreamVeraSans-Roman-30"/>
      <use x="190.869140625" xlink:href="#BitstreamVeraSans-Roman-37"/>
     </g>
    </g>
    <g id="line2d_63">
     <path d="
M301.853 195.56
L318.653 195.56" style="fill:none;stroke:#ff0000;stroke-linecap:square;"/>
    </g>
    <g id="line2d_64"/>
    <g id="text_27">
     <!-- 2008 -->
     <g transform="translate(331.853125 199.76)scale(0.12 -0.12)">
      <use xlink:href="#BitstreamVeraSans-Roman-32"/>
      <use x="63.623046875" xlink:href="#BitstreamVeraSans-Roman-30"/>
      <use x="127.24609375" xlink:href="#BitstreamVeraSans-Roman-30"/>
      <use x="190.869140625" xlink:href="#BitstreamVeraSans-Roman-38"/>
     </g>
    </g>
    <g id="line2d_65">
     <path d="
M301.853 213.174
L318.653 213.174" style="fill:none;stroke:#00bfbf;stroke-linecap:square;"/>
    </g>
    <g id="line2d_66"/>
    <g id="text_28">
     <!-- 2009 -->
     <g transform="translate(331.853125 217.37375)scale(0.12 -0.12)">
      <use xlink:href="#BitstreamVeraSans-Roman-32"/>
      <use x="63.623046875" xlink:href="#BitstreamVeraSans-Roman-30"/>
      <use x="127.24609375" xlink:href="#BitstreamVeraSans-Roman-30"/>
      <use x="190.869140625" xlink:href="#BitstreamVeraSans-Roman-39"/>
     </g>
    </g>
    <g id="line2d_67">
     <path d="
M301.853 230.788
L318.653 230.788" style="fill:none;stroke:#bf00bf;stroke-linecap:square;"/>
    </g>
    <g id="line2d_68"/>
    <g id="text_29">
     <!-- 2010 -->
     <g transform="translate(331.853125 234.9875)scale(0.12 -0.12)">
      <use xlink:href="#BitstreamVeraSans-Roman-32"/>
      <use x="63.623046875" xlink:href="#BitstreamVeraSans-Roman-30"/>
      <use x="127.24609375" xlink:href="#BitstreamVeraSans-Roman-31"/>
      <use x="190.869140625" xlink:href="#BitstreamVeraSans-Roman-30"/>
     </g>
    </g>
    <g id="line2d_69">
     <path d="
M301.853 248.401
L318.653 248.401" style="fill:none;stroke:#bfbf00;stroke-linecap:square;"/>
    </g>
    <g id="line2d_70"/>
    <g id="text_30">
     <!-- 2011 -->
     <g transform="translate(331.853125 252.60125)scale(0.12 -0.12)">
      <use xlink:href="#BitstreamVeraSans-Roman-32"/>
      <use x="63.623046875" xlink:href="#BitstreamVeraSans-Roman-30"/>
      <use x="127.24609375" xlink:href="#BitstreamVeraSans-Roman-31"/>
      <use x="190.869140625" xlink:href="#BitstreamVeraSans-Roman-31"/>
     </g>
    </g>
    <g id="line2d_71">
     <path d="
M301.853 266.015
L318.653 266.015" style="fill:none;stroke:#000000;stroke-linecap:square;"/>
    </g>
    <g id="line2d_72"/>
    <g id="text_31">
     <!-- 2012 -->
     <g transform="translate(331.853125 270.215)scale(0.12 -0.12)">
      <use xlink:href="#BitstreamVeraSans-Roman-32"/>
      <use x="63.623046875" xlink:href="#BitstreamVeraSans-Roman-30"/>
      <use x="127.24609375" xlink:href="#BitstreamVeraSans-Roman-31"/>
      <use x="190.869140625" xlink:href="#BitstreamVeraSans-Roman-32"/>
     </g>
    </g>
    <g id="line2d_73">
     <path d="
M301.853 283.629
L318.653 283.629" style="fill:none;stroke:#0000ff;stroke-linecap:square;"/>
    </g>
    <g id="line2d_74"/>
    <g id="text_32">
     <!-- 2013 -->
     <g transform="translate(331.853125 287.82875)scale(0.12 -0.12)">
      <use xlink:href="#BitstreamVeraSans-Roman-32"/>
      <use x="63.623046875" xlink:href="#BitstreamVeraSans-Roman-30"/>
      <use x="127.24609375" xlink:href="#BitstreamVeraSans-Roman-31"/>
      <use x="190.869140625" xlink:href="#BitstreamVeraSans-Roman-33"/>
     </g>
    </g>
    <g id="line2d_75">
     <path d="
M301.853 301.243
L318.653 301.243" style="fill:none;stroke:#008000;stroke-linecap:square;"/>
    </g>
    <g id="line2d_76"/>
    <g id="text_33">
     <!-- 2014 -->
     <g transform="translate(331.853125 305.4425)scale(0.12 -0.12)">
      <use xlink:href="#BitstreamVeraSans-Roman-32"/>
      <use x="63.623046875" xlink:href="#BitstreamVeraSans-Roman-30"/>
      <use x="127.24609375" xlink:href="#BitstreamVeraSans-Roman-31"/>
      <use x="190.869140625" xlink:href="#BitstreamVeraSans-Roman-34"/>
     </g>
    </g>
   </g>
  </g>
 </g>
 <defs>
  <clipPath id="pd0c402dd48">
   <rect height="223.2" width="334.8" x="36.840625" y="21.318125"/>
  </clipPath>
 </defs>
</svg>
