<?xml version="1.0" encoding="utf-8" standalone="no"?>
<!DOCTYPE svg PUBLIC "-//W3C//DTD SVG 1.1//EN"
  "http://www.w3.org/Graphics/SVG/1.1/DTD/svg11.dtd">
<!-- Created with matplotlib (http://matplotlib.org/) -->
<svg height="319pt" version="1.1" viewBox="0 0 373 319" width="373pt" xmlns="http://www.w3.org/2000/svg" xmlns:xlink="http://www.w3.org/1999/xlink">
 <defs>
  <style type="text/css">
*{stroke-linecap:butt;stroke-linejoin:round;}
  </style>
 </defs>
 <g id="figure_1">
  <g id="patch_1">
   <path d="
M0 319.938
L373.191 319.938
L373.191 0
L0 0
z
" style="fill:#ffffff;"/>
  </g>
  <g id="axes_1">
   <g id="patch_2">
    <path d="
M31.1906 244.518
L365.991 244.518
L365.991 21.3181
L31.1906 21.3181
z
" style="fill:#ffffff;"/>
   </g>
   <g id="line2d_1">
    <path clip-path="url(#p95a2ee5e18)" d="
M0 0" style="fill:none;stroke:#0000ff;stroke-linecap:square;"/>
   </g>
   <g id="line2d_2">
    <path clip-path="url(#p95a2ee5e18)" d="
M0 0" style="fill:none;stroke:#008000;stroke-linecap:square;"/>
   </g>
   <g id="line2d_3">
    <path clip-path="url(#p95a2ee5e18)" d="
M0 0" style="fill:none;stroke:#ff0000;stroke-linecap:square;"/>
   </g>
   <g id="line2d_4">
    <path clip-path="url(#p95a2ee5e18)" d="
M0 0" style="fill:none;stroke:#00bfbf;stroke-linecap:square;"/>
   </g>
   <g id="line2d_5">
    <path clip-path="url(#p95a2ee5e18)" d="
M0 0" style="fill:none;stroke:#bf00bf;stroke-linecap:square;"/>
   </g>
   <g id="line2d_6">
    <path clip-path="url(#p95a2ee5e18)" d="
M0 0" style="fill:none;stroke:#bfbf00;stroke-linecap:square;"/>
   </g>
   <g id="line2d_7">
    <path clip-path="url(#p95a2ee5e18)" d="
M0 0" style="fill:none;stroke:#000000;stroke-linecap:square;"/>
   </g>
   <g id="line2d_8">
    <path clip-path="url(#p95a2ee5e18)" d="
M0 0" style="fill:none;stroke:#0000ff;stroke-linecap:square;"/>
   </g>
   <g id="line2d_9">
    <path clip-path="url(#p95a2ee5e18)" d="
M0 0" style="fill:none;stroke:#008000;stroke-linecap:square;"/>
   </g>
   <g id="line2d_10">
    <path clip-path="url(#p95a2ee5e18)" d="
M31.1906 197.853
L32.1079 177.87
L33.0251 178.064
L33.9424 220.461
L34.8597 230.394
L36.6942 236.442
L37.6114 234.874
L38.5287 226.651
L39.446 233.184
M41.2805 231.73
L42.1977 231.474
L43.115 221.99
L44.9495 214.286
L45.8668 220.282
L46.784 220.565
L47.7013 215.437
L48.6186 238.676
L49.5358 239.692
L50.4531 225.157
L51.3704 213.333
L52.2876 216.861
L53.2049 227.634
L54.1221 222.122
L55.0394 222.536
L55.9567 231.78
L56.8739 236.789
M58.7084 243.099
L59.6257 237.001
L60.543 234.52
M62.3775 230.688
L63.2947 228.148
L64.212 231.549
L65.1293 241.305
L66.0465 220.699
L66.9638 228.728
L67.881 211.407
L68.7983 217.956
L69.7156 213.167
L70.6328 224.218
L71.5501 208.908
L72.4673 209.376
L73.3846 213.234
L74.3019 201.809
L75.2191 207.888
L76.1364 211.112
L77.9709 225.301
L78.8882 236.536
L79.8054 226.08
L80.7227 228.672
L81.6399 240.355
L82.5572 214.653
L83.4745 218.111
L84.3917 212.534
L85.309 205.969
L86.2262 224.538
L87.1435 228.987
L88.0608 212.816
L88.978 220.49
L89.8953 210.54
L90.8125 196.259
L91.7298 197.99
L92.6471 219.924
L93.5643 206.957
L94.4816 200.776
L95.3988 192.76
L96.3161 181.092
L97.2334 226.031
L98.1506 232.409
L99.0679 220.492
L99.9851 221.114
L100.902 211.829
L101.82 240.381
L102.737 233.959
L104.571 199.674
L105.489 188.449
L106.406 190.283
L107.323 223.177
L108.24 224.249
L109.158 237.232
L110.075 212.896
L110.992 226.922
L111.91 217.136
L112.827 213.589
L113.744 217.14
L114.661 188.546
L115.579 186.255
L116.496 186.1
L117.413 212.807
L118.33 209.48
L120.165 225.627
L121.082 200.176
L121.999 213.184
L122.917 219.047
L123.834 194.906
L124.751 186.168
L125.668 184.866
L126.586 207.008
L127.503 214.003
L128.42 203.447
L129.337 181.623
L130.255 180.247
L131.172 198.947
L132.089 206.691
L133.007 203.088
L133.924 182.826
L134.841 215.846
L135.758 217.673
L136.676 184.889
L137.593 165.346
L138.51 164.973
L139.427 156.255
L140.345 209.08
L141.262 185.918
L142.179 183.351
L143.096 160.525
L144.014 154.423
L144.931 159.316
L145.848 155.772
L146.765 172.849
L147.683 196.282
L148.6 172.742
L149.517 169.309
L150.434 163.014
L151.352 174.202
L152.269 181.824
L153.186 180.753
L154.104 209.444
L155.021 180.453
L155.938 161.373
L156.855 150.597
L157.773 163.783
L158.69 166.052
L159.607 211.591
L160.524 211.703
L161.442 208.762
L162.359 217.102
L163.276 191.329
L164.193 205.259
L165.111 215.026
L166.028 214.394
L166.945 201.217
L167.862 203.685
L168.78 195.224
L169.697 191.088
L170.614 214.136
L171.531 183.035
L172.449 223.11
L173.366 211.067
L174.283 187.68
L175.2 187.235
L176.118 202.377
L177.035 171.343
L178.87 209.18
L179.787 214.15
L180.704 187.169
L181.621 168.226
L182.539 167.169
L183.456 170.065
L184.373 169.438
L185.29 171.779
L186.208 171.891
L187.125 170.741
L188.042 172.246
L188.959 192.79
L190.794 176.72
L191.711 183.068
L192.628 173.164
L193.546 179.753
L194.463 180.014
L195.38 177.7
L196.297 172.927
L197.215 182.288
L198.132 193.564
L199.049 174.222
L199.967 172.072
L200.884 183.468
L201.801 186.844
L202.718 176.528
L203.636 180.901
L204.553 177.291
L205.47 175.189
L206.387 174.583
L207.305 178.254
L208.222 176.089
L209.139 176.226
L210.056 176.185
L210.974 175.057
L211.891 179.692
L212.808 180.305
L213.725 178.706
L214.643 176.22
L215.56 174.923
L217.394 212.436
L218.312 188.967
L219.229 186.913
L220.146 179.712
L221.064 179.691
L222.898 182.388
L223.815 194.617
L224.733 188.496
L225.65 181.11
L226.567 185.641
L228.402 184.221
L229.319 181.765
L230.236 187.549
L231.153 189.312
L232.071 187.911
L232.988 200.86
L233.905 189.323
L234.822 186.435
L235.74 192.833
L236.657 186.246
L237.574 184.569
L238.491 186.415
L239.409 184.975
L240.326 180.592
L241.243 180.661
L242.16 185.735
L243.078 197.386
L243.995 189.543
L244.912 197.757
L245.83 182.574
L247.664 174.289
L248.581 187.676
L249.499 196.977
L250.416 182.866
L251.333 191.32
L252.25 187.459
L253.168 188.099
L254.085 199.466
L255.002 205.654
L255.919 192.632
L256.837 184.429
L257.754 182.984
L258.671 189.87
L259.588 190.03
L260.506 185.585
L261.423 187.238
L262.34 183.723
L263.257 185.66
L264.175 189.273
L265.092 181.475
L266.009 183.459
L266.927 183.935
L267.844 180.287
L268.761 177.553
L270.596 182.724
L271.513 195.687
L272.43 224.085
L273.347 231.364
L274.265 212.033
L276.099 180.97
L277.016 184.342
L277.934 182.226
L278.851 184.546
L280.685 179.032
L281.603 181.528
L282.52 177.638
L283.437 201.92
L284.354 208.922
L285.272 236.164
L286.189 224.009
L287.106 203.472
L288.024 199.647
L288.941 192.272
L289.858 200.848
L290.775 238.431
L291.693 228.954
L292.61 207.738
L293.527 196.179
L294.444 200.087
L295.362 196.901
L296.279 190.852
L297.196 193.044
L298.113 188.339
L299.031 196.51
L299.948 193.61
L300.865 207.45
L301.782 183.312
L302.7 179.859
L303.617 183.132
L304.534 189.525
L305.451 186.286
L306.369 173.352
L307.286 177.042
L308.203 178.52
L309.12 179.713
L310.955 223.945
L311.872 236.139
L312.79 238.264
L313.707 239.306
L314.624 225.741
L315.541 230.117
L316.459 221.638
L317.376 219.564
L318.293 237.685
L319.21 232.951
L320.128 240.56
L321.045 225.636
L321.962 218.418
L322.879 197.357
L323.797 193.615
L324.714 191.453
L325.631 179.414
L326.548 179.901
L328.383 212.418
L329.3 203.716
L330.217 217.154
L331.135 226.111
L332.052 193.001
L332.969 195.81
L333.887 207.556
L334.804 202.08
L335.721 216.302
L336.638 233.575
L337.556 226.222
L338.473 203.114
L339.39 226.21
L340.307 237.69
L341.225 204.623
L342.142 196.137
L343.059 189.343
L343.976 213.967
L344.894 231.088
L345.811 208.269
L346.728 195.286
L347.645 214.798
L349.48 242.099
L350.397 241.965
L351.314 231.251
L352.232 229.695
L353.149 225.168
L354.066 218.179
L354.984 237.499
L355.901 224.998
L356.818 234.234
L357.735 239.805
L358.653 236.506
L359.57 231.776
M361.404 233.65
L362.322 241.557
L363.239 240.947
L364.156 223.652
L365.073 202.626
L365.073 202.626" style="fill:none;stroke:#ff0000;stroke-linecap:square;"/>
   </g>
   <g id="line2d_11">
    <path clip-path="url(#p95a2ee5e18)" d="
M31.1906 236.61
L32.1079 219.485
L33.0251 223.723
L33.9424 203.782
L34.8597 217.198
L35.7769 240.843
L36.6942 228.507
L37.6114 221.057
L38.5287 233.332
L39.446 212.861
L41.2805 230.792
L42.1977 223.451
L43.115 202.997
L44.0323 209.448
L44.9495 206.044
L45.8668 220.258
L46.784 214.667
L47.7013 219.793
L48.6186 220.012
L49.5358 205.252
L51.3704 243.427
L52.2876 242.36
M54.1221 240.984
L55.0394 226.521
L55.9567 228.883
L56.8739 227.392
L57.7912 219.142
L58.7084 223.011
L59.6257 208.101
L60.543 195.174
L61.4602 202.569
L62.3775 214.082
L63.2947 211.666
L64.212 222.592
L65.1293 232.086
L66.0465 229.375
L66.9638 238.877
L67.881 231.745
L68.7983 229.647
L69.7156 239.908
L70.6328 230.95
L71.5501 241.211
L72.4673 220.103
L73.3846 219.077
L74.3019 237.731
L75.2191 220.579
L76.1364 213.55
L77.0536 214.381
L77.9709 202.717
L78.8882 208.372
L79.8054 225.779
L80.7227 206.252
L81.6399 224.046
L82.5572 226.693
L84.3917 188.68
L85.309 198.852
L86.2262 211.323
L87.1435 229.904
L88.0608 240.704
M89.8953 232.317
L90.8125 225.278
L91.7298 228.51
L92.6471 219.066
L93.5643 222.402
L94.4816 209.381
L95.3988 210.02
L96.3161 210.353
L97.2334 213.394
L98.1506 241.639
L99.0679 230.553
L99.9851 216.611
L100.902 191.009
L101.82 200.524
L102.737 184.367
L103.654 218.386
L104.571 229.095
L105.489 209.228
L106.406 207.643
L107.323 236.929
L108.24 220.088
L109.158 198.978
L110.075 224.591
L110.992 230.518
L111.91 208.907
L112.827 236.746
L113.744 220.732
L114.661 238.098
L115.579 237.057
L117.413 189.516
L118.33 172.265
L119.248 167.604
L120.165 217.109
L121.082 203.296
L121.999 228.378
L122.917 210.047
L123.834 186.355
L124.751 208.106
L125.668 200.356
L126.586 207.895
L127.503 182.469
L128.42 181.502
L129.337 181.439
L130.255 166.197
L131.172 161.35
L132.089 159.137
L133.007 168.388
L133.924 189.885
L134.841 170.923
L135.758 174.922
L136.676 193.898
L137.593 189.022
L138.51 229.29
L139.427 195.314
L140.345 202.176
L141.262 201.851
L142.179 209.978
L143.096 235.576
L144.014 213.163
L144.931 208.68
L145.848 215.536
L146.765 202.346
L148.6 166.244
L149.517 167.201
L150.434 169.752
L151.352 188.462
L152.269 179.354
L153.186 192.43
L154.104 174.479
L155.021 159.658
L155.938 156.319
L156.855 160.423
L157.773 173.493
L158.69 180.92
L159.607 168.553
L160.524 166.444
L161.442 181.812
L162.359 193.953
L163.276 177.126
L164.193 176.814
L165.111 174.485
L166.028 170.092
L166.945 178.542
L167.862 183.031
L168.78 186.465
L169.697 197.527
L170.614 231.253
L171.531 199.446
L172.449 201.094
L173.366 221.377
L174.283 225.333
L175.2 197.308
L176.118 194.404
L177.035 190.7
L177.952 205.613
L178.87 205.44
L179.787 203.426
L180.704 224.579
L181.621 226.048
L182.539 226.12
L183.456 199.166
L184.373 213.5
L185.29 185.735
L187.125 206.109
L188.042 221.4
L188.959 209.439
L189.877 183.224
L190.794 179.74
L191.711 179.303
L192.628 188.591
L193.546 181.145
L194.463 175.108
L195.38 178.991
L196.297 175.737
L197.215 173.702
L199.049 191.767
L199.967 182.135
L200.884 189.976
L201.801 184.037
L202.718 187.564
L203.636 192.871
L204.553 191.093
L205.47 184.662
L207.305 209.012
L208.222 211.248
L209.139 188.607
L210.056 181.469
L210.974 181.538
L211.891 181.961
L212.808 181.545
L213.725 182.831
L214.643 185.405
L215.56 182.743
L216.477 185.51
L217.394 198.853
L218.312 185.659
L219.229 181.155
L220.146 186.49
L221.064 195.239
L221.981 197.86
L222.898 194.891
L223.815 191.052
L224.733 185.015
L225.65 185.778
L226.567 188.339
L227.484 188.581
L228.402 189.162
L229.319 196.007
L230.236 234.433
L231.153 240.382
L232.071 223.949
L232.988 199.971
L233.905 192.07
L234.822 188.298
L235.74 192.078
L236.657 202.966
L237.574 200.816
L238.491 204.176
L239.409 194.437
L240.326 192.408
L241.243 196.002
L242.16 192.993
L243.078 190.488
L243.995 187.175
L244.912 187.889
L245.83 210.176
L246.747 197.787
L247.664 188.998
L249.499 182.173
L250.416 193.734
L251.333 195.737
L252.25 203.52
L253.168 190.484
L254.085 186.114
L255.002 185.418
L255.919 185.695
L256.837 193.053
L257.754 193.829
L258.671 191.056
L259.588 192.607
L260.506 184.791
L261.423 180.984
L262.34 177.863
L263.257 180.068
L264.175 183.299
L266.009 195.425
L266.927 202.125
L267.844 194.064
L268.761 193.199
L269.678 197.494
L270.596 194.193
L271.513 201.25
L272.43 187.962
L273.347 182.726
L274.265 180.039
L275.182 181.002
L276.099 181.253
L277.016 179.921
L277.934 183.796
L278.851 186.418
L279.768 214.803
L280.685 212.792
L281.603 198.108
L282.52 193.212
L283.437 228.707
M286.189 218.067
L287.106 207.134
L288.024 201.931
L288.941 212.635
L289.858 207.149
L290.775 203.362
L291.693 202.371
L292.61 222.864
L293.527 230.98
L294.444 224.315
L295.362 206.416
L296.279 204.103
L297.196 212.683
L298.113 229.674
L299.031 222.174
L299.948 221.981
L300.865 208.593
L301.782 220.595
L302.7 217.261
L303.617 198.18
L305.451 241.489
L306.369 223.119
L307.286 231.07
L308.203 236.725
L309.12 219.676
L310.038 220.391
L310.955 213.779
L311.872 200.051
L312.79 193.877
L313.707 189.929
L314.624 226.304
L315.541 223.482
L317.376 193.059
L318.293 202.08
L319.21 229.498
L320.128 244.461
L321.045 237.424
L321.962 236.293
L322.879 209.282
L323.797 198.607
L324.714 189.476
L325.631 224.745
L326.548 202.046
L327.466 212.069
L328.383 217.773
L329.3 233.305
L330.217 221.822
L331.135 216.316
L332.052 217.323
L332.969 211.425
L333.887 224.246
L334.804 226.284
L335.721 210.074
M337.556 215.03
L338.473 213.534
L339.39 207.845
L340.307 200.892
L341.225 212.41
L342.142 213.391
L343.059 236.258
L343.976 223.359
L344.894 216.975
L345.811 212.235
L346.728 198.301
L347.645 224.902
L348.563 242.803
L349.48 229.526
L350.397 234.402
M352.232 233.185
L353.149 239.306
L354.984 229.523
L355.901 226.143
L356.818 243.547
L357.735 234.298
L358.653 204.953
L359.57 221.547
L360.487 230.665
L361.404 227.902
L362.322 218.809
L364.156 241.632
L365.073 235.49
L365.073 235.49" style="fill:none;stroke:#00bfbf;stroke-linecap:square;"/>
   </g>
   <g id="line2d_12">
    <path clip-path="url(#p95a2ee5e18)" d="
M31.1906 241.63
L32.1079 235.886
L33.0251 229.244
L33.9424 219.736
L34.8597 230.934
L35.7769 226.254
L36.6942 235.425
L37.6114 208.808
L38.5287 214.566
L39.446 221.197
L40.3632 204.564
L41.2805 215.969
L42.1977 237.9
L43.115 228.561
L44.0323 193.088
L44.9495 218.554
L45.8668 214.591
L46.784 230.603
L47.7013 232.68
L48.6186 225.192
L49.5358 219.708
L50.4531 225.295
M52.2876 229.746
L53.2049 235.773
L54.1221 241.301
M55.9567 238.237
L56.8739 233.337
L57.7912 228.578
M59.6257 234.113
L60.543 220.221
L61.4602 229.882
L62.3775 234.995
L63.2947 237.452
L64.212 230.206
L65.1293 242.045
L66.0465 241.497
L66.9638 233.194
L67.881 217.811
L68.7983 233.47
L69.7156 229.265
L70.6328 238.677
L71.5501 223.703
M73.3846 243.526
L74.3019 242.772
L75.2191 238.923
L76.1364 228.525
L77.0536 225.208
L77.9709 227.954
L78.8882 195.046
L79.8054 195.305
L80.7227 234.235
L81.6399 233.842
L82.5572 210.385
L83.4745 224.234
L84.3917 228.591
L85.309 208.696
L86.2262 203.173
L87.1435 227.697
L88.0608 224.034
L88.978 223.717
L90.8125 200.448
L91.7298 232.102
L92.6471 219.026
L93.5643 202.513
L94.4816 203.819
L95.3988 210.71
L96.3161 236.173
L97.2334 218.042
L98.1506 186.663
L99.0679 184.612
L99.9851 186.61
L100.902 199.538
L101.82 182.401
L102.737 183.9
L103.654 210.483
L104.571 221.07
L105.489 192.257
L106.406 184.5
L107.323 225.109
L108.24 230.149
L109.158 202.189
L110.075 186.028
L110.992 217.631
L111.91 242.373
L112.827 221.382
L113.744 238.835
L114.661 237.353
L115.579 225.155
L116.496 224.346
L117.413 233.123
L118.33 210.055
L119.248 195.395
L120.165 212.259
L121.082 187.723
L121.999 190.19
L122.917 190.433
L123.834 223.959
L124.751 219.678
L125.668 184.15
L126.586 162.814
L127.503 173.384
L128.42 175.609
L129.337 157.902
L130.255 150.915
L131.172 197.22
L132.089 228.43
L133.007 217.353
L133.924 176.744
L134.841 171.333
L135.758 176.193
L136.676 172.22
L137.593 224.486
L138.51 234.211
L139.427 222.303
L140.345 224.599
L141.262 216.322
L142.179 195.341
L143.096 210.477
L144.014 171.014
L144.931 204.65
L145.848 203.59
L146.765 160.806
L147.683 163.794
L148.6 165.088
L149.517 219.058
L150.434 190.597
L151.352 176.153
L152.269 178.267
L153.186 165.094
L154.104 162.571
L155.021 168.465
L155.938 191.177
L156.855 235.11
L157.773 190.32
L158.69 186.704
L159.607 205.304
M161.442 218.886
L162.359 209.257
L163.276 183.371
L164.193 219.132
L165.111 213.244
L166.028 219.236
L166.945 208.617
L167.862 185.602
L168.78 220.095
L169.697 212.185
L170.614 233.389
L171.531 208.67
L172.449 237.422
L173.366 199.297
L174.283 226.12
L175.2 191.195
L176.118 186.408
L177.035 208.091
L177.952 215.714
L178.87 200.365
L179.787 170.87
L180.704 174.554
L181.621 175.324
L182.539 189.101
L183.456 193.02
L184.373 200.418
L185.29 175.938
L186.208 180.234
L187.125 210.813
L188.042 214.4
L188.959 182.402
L189.877 171.76
L190.794 190.196
L191.711 205.261
L192.628 186.729
L193.546 179.096
L194.463 183.668
L195.38 202.577
L196.297 189.599
L197.215 180.426
L198.132 197.499
L199.049 204.917
L199.967 185.341
L200.884 186.003
L201.801 183.82
L202.718 177.228
L203.636 174.322
L204.553 176.642
L205.47 181.544
L206.387 182.09
L207.305 181.693
L208.222 176.957
L209.139 182.226
L210.056 177.711
L210.974 176.353
L211.891 172.341
L212.808 175.716
L213.725 176.431
L214.643 174.582
L215.56 175.715
L216.477 179.619
L217.394 181.234
L218.312 179.56
L219.229 181.909
L220.146 216.42
L221.064 198.951
L221.981 197.856
L222.898 188.463
L224.733 193.166
L225.65 185.069
L226.567 178.178
L227.484 180.268
L228.402 178.539
L229.319 182.178
L230.236 197.069
L231.153 187.542
L232.071 190.033
L232.988 198.364
L233.905 208.374
L234.822 227.014
L236.657 192.383
L237.574 192.48
L238.491 185.127
L239.409 182.538
L240.326 183.402
L241.243 190.764
L242.16 186.154
L243.078 178.552
L243.995 185.423
L244.912 193.977
L245.83 197.664
L246.747 185.04
L247.664 178.198
L248.581 192.379
L249.499 185.602
L250.416 195.366
L251.333 231.618
L252.25 208.097
L253.168 214.164
L254.085 206.999
L255.002 189.659
L255.919 177.099
L256.837 189.673
L257.754 194.968
L258.671 190.07
L259.588 178.309
L260.506 220.361
L261.423 239.481
L262.34 200.589
L263.257 183.339
L264.175 176.779
L265.092 180.645
L266.009 183.892
L266.927 177.752
L267.844 177.994
L268.761 186.201
L269.678 187.009
L270.596 198.643
L271.513 201.527
L272.43 187.226
L273.347 188.629
L274.265 188.063
L275.182 181.873
L276.099 179.531
L277.016 178.034
L277.934 175.809
L278.851 178.544
L279.768 182.048
L280.685 174.708
L281.603 176.216
L282.52 170.372
L283.437 206.456
L284.354 230.722
L285.272 219.279
L286.189 211.096
L287.106 197.961
L288.024 229.751
L288.941 215.645
L289.858 204.7
L290.775 216.633
L291.693 194.231
L292.61 184.576
L293.527 173.489
L295.362 193.389
L296.279 193.354
L297.196 180.704
L298.113 176.513
L299.031 178.413
L299.948 174.753
L300.865 185.422
L301.782 228.382
L302.7 242.473
L303.617 229.514
L304.534 237.657
L305.451 216.917
L306.369 190.292
L307.286 188.153
L308.203 196.616
L309.12 231.122
L310.038 203.623
L310.955 196.539
L311.872 200.026
L312.79 186.022
L313.707 189.772
L314.624 192.504
L315.541 226.289
L316.459 234.654
L317.376 219.003
L318.293 242.236
L319.21 234.299
L320.128 218.25
L321.045 221.01
L321.962 241.981
L322.879 229.012
L323.797 222.13
L324.714 202.403
L325.631 216.549
M327.466 244.304
L328.383 241.095
M330.217 243.343
L331.135 217.945
L332.052 211.831
L332.969 212.562
L333.887 225.373
L334.804 235.076
L335.721 214.479
L336.638 220.225
M338.473 239.961
L339.39 228.385
L340.307 232.581
L341.225 239.972
L342.142 239.725
L343.059 230.497
L343.976 214.612
L344.894 228.719
L345.811 234.867
L346.728 236.685
L347.645 228.158
L348.563 226.605
L349.48 235.829
L350.397 234.168
L351.314 215.504
L352.232 214.064
L353.149 230.819
L354.066 241.114
L354.984 234.82
L355.901 216.71
L356.818 238.07
L357.735 236.186
L358.653 210.774
L359.57 176.06
L360.487 225.333
L362.322 235.789
M364.156 239.94
L365.073 232.243
L365.073 232.243" style="fill:none;stroke:#bf00bf;stroke-linecap:square;"/>
   </g>
   <g id="line2d_13">
    <path clip-path="url(#p95a2ee5e18)" d="
M31.1906 219.984
L32.1079 225.319
L33.0251 234.603
L33.9424 237.427
L34.8597 219.505
L35.7769 222.632
L36.6942 221.82
L37.6114 227.364
L38.5287 235.753
L39.446 242.602
L40.3632 221.73
L41.2805 227.357
M43.115 237.443
L44.0323 236.491
L44.9495 242.872
L45.8668 236.1
L47.7013 241.586
L48.6186 216.299
L49.5358 235.876
L50.4531 236.766
L51.3704 206.753
L52.2876 237.097
L53.2049 240.145
L54.1221 239.832
L55.9567 236.93
L56.8739 236.857
L57.7912 243.479
L58.7084 226.692
L59.6257 214.17
L60.543 206.076
L61.4602 211.261
L62.3775 228.236
L63.2947 226.213
L64.212 225.123
L65.1293 225.995
L66.0465 230.549
L66.9638 223.671
L68.7983 205.735
L69.7156 199.902
L70.6328 196.576
L71.5501 197.543
L72.4673 202.489
L73.3846 225.954
L74.3019 234.733
L75.2191 238.111
L76.1364 236.706
M77.9709 232.415
L78.8882 232.416
L79.8054 227.342
L80.7227 242.374
L81.6399 242.603
L82.5572 219.406
L83.4745 213.454
L84.3917 214.864
L85.309 197.414
L86.2262 224.051
L87.1435 228.706
L88.0608 231.714
L88.978 236.453
L89.8953 239.275
L90.8125 241.382
M92.6471 234.149
L93.5643 229.852
L94.4816 243.628
L95.3988 228.614
L96.3161 240.141
L97.2334 219.708
L98.1506 231.883
M99.9851 243.176
L100.902 213.495
L101.82 236.846
L102.737 220.764
L103.654 233.04
L104.571 229.67
L105.489 219.144
L106.406 236.089
M110.075 227.488
L110.992 234.774
L111.91 233.718
L112.827 200.697
L113.744 198.574
L114.661 209.016
L115.579 223.464
L116.496 205.424
L117.413 215.121
L118.33 222.626
L119.248 216.957
L120.165 221.125
L121.082 229.553
L121.999 207.89
L122.917 214.45
L123.834 190.108
L124.751 220.149
L125.668 193.622
L126.586 214.39
L127.503 219.776
L128.42 209.138
L129.337 211.718
L130.255 181.675
L131.172 216.666
L132.089 227.066
L133.007 188.696
L133.924 177.618
L134.841 207.291
L135.758 228.165
L136.676 207.195
L137.593 190.365
L138.51 227.312
L139.427 202.256
L140.345 202.868
L141.262 185.016
L142.179 202.076
L143.096 192.741
L144.931 178.043
L145.848 218.491
L146.765 209.026
L147.683 222.85
L148.6 207.023
L149.517 184.559
L150.434 179.573
L151.352 185.13
L152.269 186.123
L153.186 202.858
L154.104 226.31
L155.021 236.756
L155.938 206.893
L156.855 224.573
L157.773 178.737
L158.69 182.747
L159.607 198.88
L160.524 192.573
L161.442 215.877
L162.359 217.478
L163.276 209.232
L164.193 204.999
L165.111 230.09
L166.028 230.622
L166.945 231.311
L167.862 209.052
L168.78 203.715
L169.697 205.748
L170.614 227.017
L171.531 191.497
L172.449 184.602
L173.366 185.237
L174.283 215.928
L175.2 224.817
L176.118 197.763
L177.035 209.542
L177.952 205.448
L178.87 206.528
L179.787 196.751
L180.704 212.513
L181.621 181.445
L182.539 182.047
L183.456 197.28
L184.373 180.53
L185.29 223.516
L186.208 223.044
L187.125 188.089
L188.042 186.377
L188.959 185.756
L189.877 193.014
L190.794 192.73
L191.711 189.225
L192.628 186.999
L193.546 184.248
L194.463 187.886
L195.38 209.972
L196.297 194.752
L198.132 178.607
L199.049 182.552
L199.967 183.339
L200.884 186.693
L201.801 183.902
L202.718 209.291
L203.636 191.743
L204.553 181.38
L205.47 186.781
L206.387 189.521
L207.305 186.572
L208.222 200.657
L209.139 198.662
L210.056 192.411
L210.974 196.685
L211.891 187.229
L212.808 185.617
L213.725 195.632
L214.643 196.473
L215.56 189.421
L216.477 196.722
L217.394 187.038
L218.312 184.144
L219.229 185.465
L220.146 198.358
L221.064 194.288
L222.898 184.371
L223.815 189.573
L224.733 199.413
L225.65 195.915
L226.567 193.533
L227.484 189.688
L228.402 207.608
L229.319 191.119
L230.236 187.929
L231.153 192.883
L232.988 187.843
L233.905 190.281
L234.822 190.552
L235.74 188.432
L236.657 191.243
L237.574 191.503
L238.491 191.402
L239.409 188.504
L240.326 184.384
L241.243 187.038
L242.16 184.562
L243.078 189.243
L243.995 187.518
L244.912 187.42
L245.83 189.011
L246.747 185.044
L247.664 189.882
L248.581 185.754
L249.499 202.818
L250.416 191.169
L251.333 193.519
L252.25 189.741
L253.168 192.508
L254.085 194.782
L255.002 190.399
L255.919 190.366
L256.837 185.615
L257.754 183.008
L259.588 185.807
L260.506 188.5
L261.423 193.491
L262.34 186.855
L263.257 193.472
L264.175 194.139
L265.092 196.179
L266.009 192.937
L266.927 223.806
L268.761 193.12
L269.678 186.577
L270.596 191.176
L271.513 190.702
L272.43 183.22
L273.347 184.599
L274.265 180.997
L275.182 182.59
L276.099 195.912
L277.016 196.493
L277.934 189.168
L278.851 198.882
L279.768 186.373
L280.685 187.482
L281.603 188.814
L282.52 197.761
L283.437 195.818
L284.354 231.368
L285.272 240.972
M288.024 219.2
L288.941 204.109
L289.858 231.783
L290.775 224.39
L291.693 205.556
L292.61 197.166
L293.527 192.361
L294.444 205.169
L295.362 241.239
L296.279 211.732
L297.196 195.077
L298.113 202.51
L299.031 196.952
L299.948 204.532
L300.865 209.45
L301.782 203.474
L302.7 222.59
L304.534 189.269
L305.451 191.422
L306.369 189.743
L307.286 191.757
L308.203 197.353
L309.12 221.076
L310.955 188.337
L311.872 193.172
L312.79 227.484
L313.707 236.366
L314.624 239.637
L315.541 240.268
L317.376 203.716
L318.293 195.501
L319.21 204.005
L320.128 228.607
L321.045 233.131
L321.962 201.73
L322.879 195.07
L323.797 214.605
L324.714 237.145
L325.631 237.353
L326.548 232.894
L327.466 209.671
L328.383 216.925
L329.3 227.875
L330.217 194.108
L331.135 215.638
L332.052 220.368
L332.969 189.167
L333.887 181.532
L334.804 210.214
L335.721 229.926
L336.638 223.65
L337.556 195.746
L338.473 200.227
L339.39 209.346
L340.307 216.998
L341.225 217.665
L342.142 202.399
L343.059 206.073
L343.976 203.805
L344.894 202.191
L345.811 203.65
L346.728 207.698
L347.645 207.41
L348.563 216.885
L349.48 208.801
L350.397 220.928
L351.314 221.839
L352.232 221.077
L354.066 208.537
L354.984 201.435
L355.901 220.469
L356.818 195.119
L357.735 187.701
L358.653 195.586
L359.57 198.06
L360.487 204.885
L362.322 233.89
L363.239 225.467
L364.156 243.187
L365.073 220.884
L365.073 220.884" style="fill:none;stroke:#bfbf00;stroke-linecap:square;"/>
   </g>
   <g id="line2d_14">
    <path clip-path="url(#p95a2ee5e18)" d="
M31.1906 191.889
L32.1079 189.802
L33.0251 190.14
L33.9424 180.043
L35.7769 216.459
L36.6942 225.504
L37.6114 213.769
L38.5287 217.857
L39.446 234.009
L40.3632 214.276
L41.2805 219.076
L42.1977 193.444
L43.115 178.581
L44.0323 206.644
L44.9495 221.166
L45.8668 204.617
L46.784 226.662
M49.5358 241.993
L50.4531 232.014
L51.3704 243.857
L52.2876 233.604
L53.2049 231.211
L54.1221 240.1
L55.0394 212.518
L55.9567 202.056
L56.8739 183.7
L57.7912 220.872
L58.7084 203.437
L59.6257 231.378
L60.543 229.162
L61.4602 209.317
L62.3775 205.372
L63.2947 203.809
L64.212 206.626
L65.1293 192.331
L66.0465 227.679
L66.9638 240.872
L67.881 222.57
L68.7983 235.633
L69.7156 239.537
L70.6328 221.065
L71.5501 230.053
L72.4673 234.574
L73.3846 216.145
L74.3019 211.611
L75.2191 226.273
L76.1364 219.316
L77.0536 231.597
M78.8882 231.783
L79.8054 218.397
L80.7227 193.349
L81.6399 226.278
L83.4745 207.665
L84.3917 203.045
L85.309 227.745
L86.2262 240.566
L87.1435 222.037
L88.0608 225.347
L88.978 207.588
L89.8953 198.791
L90.8125 223.219
L91.7298 200.87
L92.6471 189.522
L93.5643 183.741
L94.4816 187.715
L95.3988 216.465
L96.3161 223.122
L97.2334 227.408
M99.0679 227.688
L99.9851 239.491
L100.902 239.445
M102.737 227.311
L103.654 231.546
L104.571 210.184
L105.489 176.935
L106.406 205.045
L107.323 179.828
L108.24 203.441
L109.158 234.546
L110.075 195.303
L110.992 219.099
L111.91 225.984
L112.827 234.153
L113.744 183.152
L114.661 189.178
L115.579 196.313
L116.496 181.66
L117.413 206.09
L118.33 200.588
L119.248 199.149
L121.082 160.852
L121.999 172.42
L122.917 162.334
L123.834 210.392
L124.751 202.331
L125.668 214.082
L126.586 192.78
L127.503 180.326
L128.42 221.758
L129.337 203.122
L130.255 205.215
L131.172 216.494
L132.089 189.651
L133.007 169.023
L133.924 161.712
L134.841 185.384
L135.758 183.77
L136.676 200.694
L137.593 243.081
L138.51 190.872
L139.427 201.608
L140.345 186.368
L141.262 219.352
L142.179 194.839
L143.096 187.303
L144.014 219.916
L144.931 233.777
L145.848 202.798
L146.765 178.129
L148.6 165.492
L149.517 169.818
L150.434 175.252
L151.352 171.841
L152.269 170.613
L153.186 163.475
L154.104 168.905
L155.021 190.27
L155.938 175.475
L156.855 197.619
L157.773 181.547
L158.69 167.501
L159.607 168.391
L160.524 199.332
L161.442 215.275
L162.359 212.119
L163.276 200.641
L164.193 231.475
L165.111 232.198
L166.028 215.307
L166.945 181.106
L167.862 176.038
L168.78 181.173
L169.697 180.655
L170.614 175.15
L171.531 196.716
L172.449 182.811
L173.366 199.159
L174.283 236.113
L175.2 195.563
L176.118 193.385
L177.035 201.288
L177.952 229.134
L178.87 205.119
L179.787 177.844
L180.704 182.392
L181.621 182.686
L182.539 165.661
L184.373 175.597
L185.29 177.811
L186.208 184.266
L187.125 196.64
L188.042 180.812
L188.959 179.16
L189.877 184.534
L190.794 186.031
L192.628 177.868
L193.546 192.73
L194.463 181.698
L195.38 176.196
L196.297 174.7
L197.215 172.632
L198.132 196.715
L199.049 182.633
L199.967 184.145
L200.884 182.398
L201.801 186.508
L202.718 188.022
L203.636 185.619
L204.553 197.256
L205.47 182.898
L206.387 182.801
L207.305 183.277
L208.222 182.482
L209.139 202.975
L210.056 211.614
L210.974 200.423
L211.891 202.402
L212.808 181.743
L213.725 180.586
L214.643 186.972
L215.56 182.178
L216.477 187.383
L217.394 181.35
L218.312 191.173
L220.146 183.917
L221.064 183.523
L221.981 186.326
L222.898 190.272
L223.815 184.629
L224.733 185.976
L225.65 182.109
L226.567 183.141
L227.484 182.241
L228.402 188.813
L229.319 183.892
L230.236 185.032
L231.153 185.667
L232.071 183.847
L232.988 191.238
L233.905 187.354
L234.822 196.952
L235.74 186.297
L236.657 188.842
L237.574 187.126
L238.491 185.137
L239.409 184.034
L240.326 184.135
L241.243 185.733
L242.16 181.632
L243.078 200.644
L243.995 194.34
L244.912 191.095
L245.83 189.869
L246.747 185.984
L247.664 186.097
L248.581 182.544
L249.499 190.725
L250.416 196.585
L251.333 185.961
L252.25 192.904
L253.168 187.427
L254.085 199.017
L255.002 198.548
L255.919 182.042
L256.837 182.779
L257.754 188.605
L258.671 186.145
L259.588 198.862
L260.506 184.762
L261.423 181.528
L262.34 182.846
L264.175 193.354
L265.092 184.129
L266.009 185.211
L266.927 182.63
L267.844 181.519
L268.761 188.118
L269.678 189.017
L270.596 181.851
L272.43 190.935
L273.347 193.802
L274.265 188.112
L275.182 222.412
L276.099 205.804
L277.016 203.618
L277.934 197.513
L278.851 185.552
L279.768 186.441
L280.685 185.982
L281.603 188.072
L282.52 183.238
L283.437 184.158
L284.354 185.638
L285.272 186.05
L286.189 185.441
L287.106 187.575
L288.024 181.725
L288.941 177.359
L289.858 179.081
L290.775 181.758
L291.693 180.094
L292.61 180.544
L293.527 220.456
L294.444 201.636
L295.362 208.031
L296.279 215.307
L298.113 188.502
L299.031 197.988
L299.948 216.982
L300.865 202.573
L301.782 237.902
L302.7 242.708
L303.617 234.076
L304.534 235.216
L305.451 215.4
L306.369 220.891
L307.286 233.814
L308.203 208.153
L310.038 186.307
L310.955 210.409
L311.872 201.094
L312.79 205.477
L313.707 197.268
L314.624 208.447
L315.541 197.692
L316.459 210.242
L318.293 242.145
L319.21 233.318
L320.128 234.384
L321.045 231.165
L321.962 233.068
L322.879 231.707
L323.797 225.649
L324.714 215.278
L325.631 230.189
L326.548 227.532
L327.466 226.064
L328.383 217.885
L329.3 230.504
L330.217 211.612
L331.135 190.247
L332.052 219.206
L332.969 231.469
L334.804 208.284
L335.721 217.117
L336.638 223.393
L337.556 233.161
L338.473 230.852
L339.39 239.963
L340.307 210.775
L341.225 225.99
L342.142 234.769
L343.059 223.222
L343.976 216.229
L344.894 230.716
L345.811 220.618
L346.728 238.07
L347.645 223.126
L348.563 240.559
L349.48 225.486
L350.397 234.539
L351.314 236.086
M353.149 233.233
L354.066 226.393
L354.984 225.168
L355.901 192.854
L356.818 182.888
L357.735 216.134
L358.653 236.598
L359.57 237.148
L360.487 224.336
L361.404 238.202
L362.322 240.264
L363.239 227.404
L364.156 227.672
L365.073 241.454
L365.073 241.454" style="fill:none;stroke:#000000;stroke-linecap:square;"/>
   </g>
   <g id="line2d_15">
    <path clip-path="url(#p95a2ee5e18)" d="
M31.1906 225.88
L32.1079 220.857
L33.0251 191.346
L33.9424 170.688
L34.8597 146.595
L35.7769 176.886
L36.6942 211.28
L37.6114 229.193
L38.5287 160.493
L39.446 217.368
L40.3632 201.396
L41.2805 152.719
L43.115 202.696
L44.0323 182.459
L44.9495 192.796
L45.8668 189.14
L46.784 131.222
L47.7013 119.967
L48.6186 156.051
L49.5358 139.348
L50.4531 79.3402
L51.3704 56.1028
L52.2876 170.125
L53.2049 222.612
L54.1221 225.756
L55.0394 218.063
L55.9567 228.186
L56.8739 244.174
L57.7912 240.325
L58.7084 224.863
L59.6257 212.144
L60.543 197.403
L61.4602 180.254
L62.3775 140.096
L63.2947 147.983
L64.212 167.998
L65.1293 151.191
L66.0465 197.616
L66.9638 161.043
L67.881 139.761
L68.7983 106.161
L69.7156 177.105
L70.6328 185.396
L72.4673 141.323
L74.3019 207.27
L75.2191 117.399
L76.1364 168.801
L77.0536 199.232
L77.9709 179.492
L78.8882 221.595
L80.7227 192.077
L81.6399 190.507
L82.5572 176.493
L83.4745 125.867
L84.3917 184.331
L85.309 202.441
L86.2262 160.727
L87.1435 164.075
L88.0608 90.5881
L88.978 103.523
L89.8953 177.135
L91.7298 116.694
L92.6471 122.047
L93.5643 78.1308
L94.4816 170.707
L95.3988 150.261
L96.3161 95.8021
L97.2334 77.8499
L98.1506 108.061
L99.0679 153.067
L99.9851 137.172
L100.902 133.168
L101.82 46.7431
L102.737 152.266
L103.654 161.008
L104.571 190.341
L105.489 128.49
L106.406 94.7005
L107.323 85.6609
L108.24 187.681
L109.158 156.671
L110.075 106.206
L110.992 123.475
L111.91 101.824
L112.827 73.3085
L113.744 121.669
L115.579 73.0613
L116.496 136.227
L117.413 181.663
L118.33 196.362
L119.248 214.415
L121.082 107.771
L121.999 139.043
L122.917 122.996
L123.834 82.0556
L124.751 155.279
L125.668 133.86
L126.586 170.28
L127.503 138.312
L128.42 85.5365
L129.337 71.8954
L130.255 198.689
L131.172 179.027
L132.089 123.737
L133.007 127.895
L133.924 87.2995
L134.841 70.7428
L135.758 56.4224
L136.676 72.9279
L137.593 69.8855
L138.51 72.8749
L139.427 116.246
L140.345 105.792
L141.262 93.0462
L142.179 38.0613
L143.096 58.2174
L144.014 113.279
L144.931 76.248
L145.848 90.4547
L146.765 127.927
L147.683 126.781
L148.6 86.3175
L150.434 61.1375
L151.352 55.3319
L152.269 79.3356
L153.186 106.766
L154.104 80.073
L155.938 191.88
L156.855 145.381
L157.773 166.325
L158.69 106.161
L159.607 88.7733
L160.524 145.549
L161.442 61.5859
L162.359 78.2882
L163.276 107.067
L164.193 167.187
L165.111 186.815
L166.028 214.456
L166.945 198.824
L167.862 154.185
L168.78 125.205
L169.697 75.5183
L170.614 83.7675
L171.531 111.466
L172.449 100.542
L173.366 85.4084
L174.283 81.515
L175.2 84.5691
L176.118 105.609
L177.035 77.6327
L177.952 94.6375
L178.87 96.9939
L179.787 106.843
L180.704 146.706
L181.621 166.044
L182.539 88.359
L183.456 85.3521
L184.373 87.786
L185.29 119.822
L186.208 207.682
L187.125 185.036
L188.042 170.932
L188.959 162.778
L189.877 120.404
L190.794 205.532
L191.711 220.964
L192.628 183.366
L193.546 117.999
L194.463 94.5837
L195.38 113.639
L196.297 115.27
L197.215 135.852
M296.279 106.93
L297.196 103.243
L298.113 94.3664
L299.031 101.666
L299.948 117.079
L300.865 96.5187
L301.782 86.6112
L302.7 67.9316
L303.617 74.5742
L304.534 76.5135
L305.451 76.1054
L306.369 191.875
L307.286 214.28
L308.203 197.549
L309.12 204.831
L310.038 174.507
L310.955 182.972
L311.872 198.883
L312.79 168.885
L313.707 190.765
L314.624 199.665
L315.541 163.098
L317.376 121.322
L318.293 80.5523
L319.21 82.4343
L320.128 58.4716
L321.045 135.538
L321.962 151.163
L322.879 188.293
L323.797 205.376
L324.714 163.205
L325.631 114.958
L326.548 189.433
L327.466 187.661
L328.383 118.058
L329.3 104.971
L330.217 112.516
L331.135 107.325
L332.052 106.917
L332.969 92.1951
L333.887 89.7728
L334.804 117.261
L335.721 118.703
L336.638 179.626
L337.556 197.679
L338.473 173.553
L339.39 157.252
L340.307 203.783
L341.225 188.17
L342.142 168.569
L343.059 211.284
L344.894 110.832
L345.811 153.783
L346.728 179.766
L347.645 140.49
L348.563 174.464
L349.48 174.692
L350.397 76.9264
L351.314 77.1011
L352.232 33.1486
L353.149 132.987
L354.066 193.579
L354.984 156.88
L355.901 208.399
L356.818 214.947
L358.653 152.246
L359.57 97.5682
L360.487 75.9289
L361.404 48.7738
L362.322 110.543
L363.239 99.0084
L364.156 137.685
L365.073 163.948
L365.073 163.948" style="fill:none;stroke:#0000ff;stroke-linecap:square;"/>
   </g>
   <g id="line2d_16">
    <path clip-path="url(#p95a2ee5e18)" d="
M31.1906 233.314
L32.1079 224.08
L33.0251 221.044
L33.9424 225.832
L34.8597 216.135
L35.7769 209.967
L36.6942 221.404
M38.5287 229.154
L39.446 237.224
L40.3632 234.376
L41.2805 239.093
L42.1977 237.856
L43.115 228.642
L44.0323 213.151
L44.9495 213.448
L45.8668 213.229
L46.784 220.157
L47.7013 211.684
L48.6186 215.805
L49.5358 216.669
L50.4531 223.032
L51.3704 219.471
M58.7084 222.403
L59.6257 233.191
L60.543 220.817
M62.3775 237.558
L63.2947 238.951
M66.9638 234.839
L67.881 228.288
L69.7156 237.536
L70.6328 232.542
L71.5501 231.292
L72.4673 226.454
L73.3846 232.424
L74.3019 207.394
L75.2191 231.821
L76.1364 233.16
L77.0536 236.967
L77.9709 226.884
L78.8882 224.845
L79.8054 218.612
L80.7227 213.723
L81.6399 213.057
L82.5572 215.193
L83.4745 231.421
L84.3917 221.02
L85.309 235.02
L86.2262 231.022
L87.1435 234.157
L88.0608 205.322
L88.978 223.592
L89.8953 220.035
L90.8125 217.995
L91.7298 198.82
L92.6471 225.35
L93.5643 237.295
L94.4816 211.882
L95.3988 198.814
L96.3161 189.669
L97.2334 217.311
L98.1506 195.184
L99.0679 186.55
L99.9851 218.94
L100.902 218.157
L101.82 184.188
L102.737 185.476
L104.571 179.325
L105.489 177.119
L106.406 181.111
L107.323 206.241
L108.24 211.39
M110.075 225.078
L110.992 228.847
L111.91 216.51
L112.827 201.233
L113.744 238.25
L114.661 228.484
L115.579 199.566
L116.496 207.002
L118.33 199.67
L119.248 181.02
L120.165 178.588
L121.082 177.449
L121.999 176.887
L122.917 172.851
L123.834 178.047
L124.751 177.859
L125.668 170.821
L126.586 182.125
L127.503 172.225
L128.42 182.515
L129.337 181.468
L130.255 172.433
L131.172 175.248
L132.089 177.384
L133.007 227.675
L133.924 201.112
L134.841 205.185
L135.758 229.008
L136.676 203.463
L137.593 198.689
L138.51 199.685
L139.427 169.24
L140.345 165.984
L141.262 161.138
L142.179 165.15
L143.096 174.534
L144.931 200.289
L145.848 182.273
L146.765 177.889
L147.683 190.031
L148.6 193.769
L149.517 203.766
L150.434 178.383
L151.352 175.358
L152.269 165.793
L153.186 168.572
L154.104 171.911
L155.021 188.77
L155.938 174.261
L156.855 200.035
L157.773 184.27
L158.69 195.19
L159.607 202.121
L160.524 174.712
L161.442 176.457
L162.359 194.419
L163.276 189.062
L164.193 172.307
L165.111 166.699
L166.028 180.513
L166.945 176.03
L167.862 180.775
L168.78 174.245
L169.697 183.633
L170.614 173.053
L171.531 169.872
L172.449 171.996
L173.366 169.851
L174.283 171.165
L175.2 178.444
L176.118 170.966
L177.035 170.071
L177.952 170.287
L178.87 168.163
L179.787 174.252
L180.704 200.806
L181.621 200.69
L182.539 195.589
L183.456 203.646
L184.373 200.991
L185.29 217.132
L186.208 174.473
L188.042 179.486
L188.959 176.954
L189.877 179.1
L190.794 187.544
L191.711 216.294
L192.628 206.288
L193.546 206.707
L194.463 188.087
L195.38 180.098
L196.297 179.848
L197.215 175.312
L198.132 189.948
L199.049 188.821
L199.967 181.725
L200.884 179.455
L201.801 177.685
L202.718 179.308
L203.636 188.842
L204.553 204.064
L205.47 183.953
L206.387 183.297
L207.305 181.836
L208.222 182.546
L209.139 184.979
L210.056 188.322
L210.974 190.529
L211.891 199.243
L212.808 187.906
L213.725 190.414
L214.643 190.037
L215.56 211.233
L216.477 196.95
L217.394 190.788
L218.312 193.431
L219.229 188.443
L220.146 186.429
L221.064 185.766
L221.981 194.763
L222.898 195.7
L223.815 200.781
L224.733 191.336
L225.65 194.412
L226.567 193.695
L227.484 192.682
L228.402 196.673
L229.319 205.756
L230.236 203.648
L231.153 198.513
L232.071 197.807
L232.988 199.242
L233.905 191.484
L234.822 196.936
L235.74 195.274
L236.657 216.336
L237.574 201.224
L238.491 191.861
L239.409 191.638
L240.326 189.673
L241.243 190.214
L242.16 203.163
L243.078 205.35
L243.995 199.708
L244.912 200.607
L245.83 206.934
L246.747 201.406
L247.664 214.122
L249.499 193.83
L250.416 195.957
L251.333 196.158
L252.25 213.96
L253.168 207.133
L254.085 198.671
L255.002 192.057
L255.919 200.528
L256.837 196.547
L257.754 191.762
L258.671 192.269
L259.588 192.229
L260.506 192.515
L262.34 199.586
L263.257 196.28
L264.175 191.082
L265.092 199.686
L266.009 196.709
L266.927 197.378
L267.844 201.37
L268.761 203.5
L269.678 208.68
L270.596 204.812
L271.513 200.105
L272.43 217.211
L273.347 208.272
L274.265 216.329
L275.182 196.963
L276.099 200.57
L277.016 205.864
L277.934 225.979
L278.851 230.039
L279.768 235.163
L280.685 214.862
L282.52 198.076
L283.437 196.945
L284.354 197.002
L285.272 197.181
L286.189 198.737
L287.106 199.33
L288.024 199.276
L288.941 201.396
L289.858 204.612
L290.775 214.098
L291.693 219.407
L292.61 197.408
L293.527 205.313
L294.444 224.495
L295.362 215.71
L296.279 199.761
L297.196 204.2
L298.113 211.065
L299.031 203.425
L299.948 226.408
L300.865 213.435
L301.782 230.81
L302.7 213.889
L304.534 223.259
L305.451 220.205
L306.369 205.318
L307.286 216.885
L308.203 208.832
L309.12 219.174
L310.038 235.883
M311.872 229.805
L312.79 231.74
L313.707 221.003
L314.624 214.998
L315.541 219.793
L316.459 214.91
L317.376 224.23
L318.293 229.867
L319.21 225.286
L320.128 209.3
L321.045 229.782
M322.879 242.46
L323.797 232.945
L324.714 230.795
L326.548 223.486
L327.466 222.905
L328.383 227.325
L329.3 236.583
L330.217 231.484
L331.135 224.797
L332.052 235.559
L332.969 221.562
L333.887 221.987
L334.804 215.412
L335.721 232.184
L336.638 227.069
L337.556 235.531
L338.473 232.18
L339.39 227.264
L340.307 226.149
L341.225 223.762
L342.142 233.248
L343.059 223.7
L343.976 234.58
L344.894 224.737
L346.728 219.492
L347.645 237.12
L348.563 241.633
L349.48 225.204
L350.397 226.597
L351.314 235.318
L352.232 231.122
L353.149 237.024
L354.066 240.606
L354.984 241.957
L355.901 241.612
M357.735 231.654
L358.653 240.188
L359.57 244.243
M361.404 239.063
L362.322 244.235
L363.239 244.089
L364.156 244.428
L364.156 244.428" style="fill:none;stroke:#008000;stroke-linecap:square;"/>
   </g>
   <g id="patch_3">
    <path d="
M365.991 244.518
L365.991 21.3181" style="fill:none;stroke:#000000;stroke-linecap:square;stroke-linejoin:miter;"/>
   </g>
   <g id="patch_4">
    <path d="
M31.1906 21.3181
L365.991 21.3181" style="fill:none;stroke:#000000;stroke-linecap:square;stroke-linejoin:miter;"/>
   </g>
   <g id="patch_5">
    <path d="
M31.1906 244.518
L31.1906 21.3181" style="fill:none;stroke:#000000;stroke-linecap:square;stroke-linejoin:miter;"/>
   </g>
   <g id="patch_6">
    <path d="
M31.1906 244.518
L365.991 244.518" style="fill:none;stroke:#000000;stroke-linecap:square;stroke-linejoin:miter;"/>
   </g>
   <g id="matplotlib.axis_1">
    <g id="xtick_1">
     <g id="line2d_17">
      <defs>
       <path d="
M0 0
L0 -4" id="mc7db9fdffb" style="stroke:#000000;stroke-width:0.5;"/>
      </defs>
      <g>
       <use style="stroke:#000000;stroke-width:0.5;" x="31.190625" xlink:href="#mc7db9fdffb" y="244.518125"/>
      </g>
     </g>
     <g id="line2d_18">
      <defs>
       <path d="
M0 0
L0 4" id="m5a7d422ac3" style="stroke:#000000;stroke-width:0.5;"/>
      </defs>
      <g>
       <use style="stroke:#000000;stroke-width:0.5;" x="31.190625" xlink:href="#m5a7d422ac3" y="21.318125"/>
      </g>
     </g>
     <g id="text_1">
      <!-- 0 -->
      <defs>
       <path d="
M31.7812 66.4062
Q24.1719 66.4062 20.3281 58.9062
Q16.5 51.4219 16.5 36.375
Q16.5 21.3906 20.3281 13.8906
Q24.1719 6.39062 31.7812 6.39062
Q39.4531 6.39062 43.2812 13.8906
Q47.125 21.3906 47.125 36.375
Q47.125 51.4219 43.2812 58.9062
Q39.4531 66.4062 31.7812 66.4062
M31.7812 74.2188
Q44.0469 74.2188 50.5156 64.5156
Q56.9844 54.8281 56.9844 36.375
Q56.9844 17.9688 50.5156 8.26562
Q44.0469 -1.42188 31.7812 -1.42188
Q19.5312 -1.42188 13.0625 8.26562
Q6.59375 17.9688 6.59375 36.375
Q6.59375 54.8281 13.0625 64.5156
Q19.5312 74.2188 31.7812 74.2188" id="BitstreamVeraSans-Roman-30"/>
      </defs>
      <g transform="translate(28.67109375 256.1165625)scale(0.1 -0.1)">
       <use xlink:href="#BitstreamVeraSans-Roman-30"/>
      </g>
     </g>
    </g>
    <g id="xtick_2">
     <g id="line2d_19">
      <g>
       <use style="stroke:#000000;stroke-width:0.5;" x="77.0536386986" xlink:href="#mc7db9fdffb" y="244.518125"/>
      </g>
     </g>
     <g id="line2d_20">
      <g>
       <use style="stroke:#000000;stroke-width:0.5;" x="77.0536386986" xlink:href="#m5a7d422ac3" y="21.318125"/>
      </g>
     </g>
     <g id="text_2">
      <!-- 50 -->
      <defs>
       <path d="
M10.7969 72.9062
L49.5156 72.9062
L49.5156 64.5938
L19.8281 64.5938
L19.8281 46.7344
Q21.9688 47.4688 24.1094 47.8281
Q26.2656 48.1875 28.4219 48.1875
Q40.625 48.1875 47.75 41.5
Q54.8906 34.8125 54.8906 23.3906
Q54.8906 11.625 47.5625 5.09375
Q40.2344 -1.42188 26.9062 -1.42188
Q22.3125 -1.42188 17.5469 -0.640625
Q12.7969 0.140625 7.71875 1.70312
L7.71875 11.625
Q12.1094 9.23438 16.7969 8.0625
Q21.4844 6.89062 26.7031 6.89062
Q35.1562 6.89062 40.0781 11.3281
Q45.0156 15.7656 45.0156 23.3906
Q45.0156 31 40.0781 35.4375
Q35.1562 39.8906 26.7031 39.8906
Q22.75 39.8906 18.8125 39.0156
Q14.8906 38.1406 10.7969 36.2812
z
" id="BitstreamVeraSans-Roman-35"/>
      </defs>
      <g transform="translate(71.4091074486 256.1165625)scale(0.1 -0.1)">
       <use xlink:href="#BitstreamVeraSans-Roman-35"/>
       <use x="63.623046875" xlink:href="#BitstreamVeraSans-Roman-30"/>
      </g>
     </g>
    </g>
    <g id="xtick_3">
     <g id="line2d_21">
      <g>
       <use style="stroke:#000000;stroke-width:0.5;" x="122.916652397" xlink:href="#mc7db9fdffb" y="244.518125"/>
      </g>
     </g>
     <g id="line2d_22">
      <g>
       <use style="stroke:#000000;stroke-width:0.5;" x="122.916652397" xlink:href="#m5a7d422ac3" y="21.318125"/>
      </g>
     </g>
     <g id="text_3">
      <!-- 100 -->
      <defs>
       <path d="
M12.4062 8.29688
L28.5156 8.29688
L28.5156 63.9219
L10.9844 60.4062
L10.9844 69.3906
L28.4219 72.9062
L38.2812 72.9062
L38.2812 8.29688
L54.3906 8.29688
L54.3906 0
L12.4062 0
z
" id="BitstreamVeraSans-Roman-31"/>
      </defs>
      <g transform="translate(114.254152397 256.1165625)scale(0.1 -0.1)">
       <use xlink:href="#BitstreamVeraSans-Roman-31"/>
       <use x="63.623046875" xlink:href="#BitstreamVeraSans-Roman-30"/>
       <use x="127.24609375" xlink:href="#BitstreamVeraSans-Roman-30"/>
      </g>
     </g>
    </g>
    <g id="xtick_4">
     <g id="line2d_23">
      <g>
       <use style="stroke:#000000;stroke-width:0.5;" x="168.779666096" xlink:href="#mc7db9fdffb" y="244.518125"/>
      </g>
     </g>
     <g id="line2d_24">
      <g>
       <use style="stroke:#000000;stroke-width:0.5;" x="168.779666096" xlink:href="#m5a7d422ac3" y="21.318125"/>
      </g>
     </g>
     <g id="text_4">
      <!-- 150 -->
      <g transform="translate(160.117166096 256.1165625)scale(0.1 -0.1)">
       <use xlink:href="#BitstreamVeraSans-Roman-31"/>
       <use x="63.623046875" xlink:href="#BitstreamVeraSans-Roman-35"/>
       <use x="127.24609375" xlink:href="#BitstreamVeraSans-Roman-30"/>
      </g>
     </g>
    </g>
    <g id="xtick_5">
     <g id="line2d_25">
      <g>
       <use style="stroke:#000000;stroke-width:0.5;" x="214.642679795" xlink:href="#mc7db9fdffb" y="244.518125"/>
      </g>
     </g>
     <g id="line2d_26">
      <g>
       <use style="stroke:#000000;stroke-width:0.5;" x="214.642679795" xlink:href="#m5a7d422ac3" y="21.318125"/>
      </g>
     </g>
     <g id="text_5">
      <!-- 200 -->
      <defs>
       <path d="
M19.1875 8.29688
L53.6094 8.29688
L53.6094 0
L7.32812 0
L7.32812 8.29688
Q12.9375 14.1094 22.625 23.8906
Q32.3281 33.6875 34.8125 36.5312
Q39.5469 41.8438 41.4219 45.5312
Q43.3125 49.2188 43.3125 52.7812
Q43.3125 58.5938 39.2344 62.25
Q35.1562 65.9219 28.6094 65.9219
Q23.9688 65.9219 18.8125 64.3125
Q13.6719 62.7031 7.8125 59.4219
L7.8125 69.3906
Q13.7656 71.7812 18.9375 73
Q24.125 74.2188 28.4219 74.2188
Q39.75 74.2188 46.4844 68.5469
Q53.2188 62.8906 53.2188 53.4219
Q53.2188 48.9219 51.5312 44.8906
Q49.8594 40.875 45.4062 35.4062
Q44.1875 33.9844 37.6406 27.2188
Q31.1094 20.4531 19.1875 8.29688" id="BitstreamVeraSans-Roman-32"/>
      </defs>
      <g transform="translate(205.797367295 256.1165625)scale(0.1 -0.1)">
       <use xlink:href="#BitstreamVeraSans-Roman-32"/>
       <use x="63.623046875" xlink:href="#BitstreamVeraSans-Roman-30"/>
       <use x="127.24609375" xlink:href="#BitstreamVeraSans-Roman-30"/>
      </g>
     </g>
    </g>
    <g id="xtick_6">
     <g id="line2d_27">
      <g>
       <use style="stroke:#000000;stroke-width:0.5;" x="260.505693493" xlink:href="#mc7db9fdffb" y="244.518125"/>
      </g>
     </g>
     <g id="line2d_28">
      <g>
       <use style="stroke:#000000;stroke-width:0.5;" x="260.505693493" xlink:href="#m5a7d422ac3" y="21.318125"/>
      </g>
     </g>
     <g id="text_6">
      <!-- 250 -->
      <g transform="translate(251.660380993 256.1165625)scale(0.1 -0.1)">
       <use xlink:href="#BitstreamVeraSans-Roman-32"/>
       <use x="63.623046875" xlink:href="#BitstreamVeraSans-Roman-35"/>
       <use x="127.24609375" xlink:href="#BitstreamVeraSans-Roman-30"/>
      </g>
     </g>
    </g>
    <g id="xtick_7">
     <g id="line2d_29">
      <g>
       <use style="stroke:#000000;stroke-width:0.5;" x="306.368707192" xlink:href="#mc7db9fdffb" y="244.518125"/>
      </g>
     </g>
     <g id="line2d_30">
      <g>
       <use style="stroke:#000000;stroke-width:0.5;" x="306.368707192" xlink:href="#m5a7d422ac3" y="21.318125"/>
      </g>
     </g>
     <g id="text_7">
      <!-- 300 -->
      <defs>
       <path d="
M40.5781 39.3125
Q47.6562 37.7969 51.625 33
Q55.6094 28.2188 55.6094 21.1875
Q55.6094 10.4062 48.1875 4.48438
Q40.7656 -1.42188 27.0938 -1.42188
Q22.5156 -1.42188 17.6562 -0.515625
Q12.7969 0.390625 7.625 2.20312
L7.625 11.7188
Q11.7188 9.32812 16.5938 8.10938
Q21.4844 6.89062 26.8125 6.89062
Q36.0781 6.89062 40.9375 10.5469
Q45.7969 14.2031 45.7969 21.1875
Q45.7969 27.6406 41.2812 31.2656
Q36.7656 34.9062 28.7188 34.9062
L20.2188 34.9062
L20.2188 43.0156
L29.1094 43.0156
Q36.375 43.0156 40.2344 45.9219
Q44.0938 48.8281 44.0938 54.2969
Q44.0938 59.9062 40.1094 62.9062
Q36.1406 65.9219 28.7188 65.9219
Q24.6562 65.9219 20.0156 65.0312
Q15.375 64.1562 9.8125 62.3125
L9.8125 71.0938
Q15.4375 72.6562 20.3438 73.4375
Q25.25 74.2188 29.5938 74.2188
Q40.8281 74.2188 47.3594 69.1094
Q53.9062 64.0156 53.9062 55.3281
Q53.9062 49.2656 50.4375 45.0938
Q46.9688 40.9219 40.5781 39.3125" id="BitstreamVeraSans-Roman-33"/>
      </defs>
      <g transform="translate(297.538238442 256.1165625)scale(0.1 -0.1)">
       <use xlink:href="#BitstreamVeraSans-Roman-33"/>
       <use x="63.623046875" xlink:href="#BitstreamVeraSans-Roman-30"/>
       <use x="127.24609375" xlink:href="#BitstreamVeraSans-Roman-30"/>
      </g>
     </g>
    </g>
    <g id="xtick_8">
     <g id="line2d_31">
      <g>
       <use style="stroke:#000000;stroke-width:0.5;" x="352.23172089" xlink:href="#mc7db9fdffb" y="244.518125"/>
      </g>
     </g>
     <g id="line2d_32">
      <g>
       <use style="stroke:#000000;stroke-width:0.5;" x="352.23172089" xlink:href="#m5a7d422ac3" y="21.318125"/>
      </g>
     </g>
     <g id="text_8">
      <!-- 350 -->
      <g transform="translate(343.40125214 256.1165625)scale(0.1 -0.1)">
       <use xlink:href="#BitstreamVeraSans-Roman-33"/>
       <use x="63.623046875" xlink:href="#BitstreamVeraSans-Roman-35"/>
       <use x="127.24609375" xlink:href="#BitstreamVeraSans-Roman-30"/>
      </g>
     </g>
    </g>
    <g id="text_9">
     <!-- Julian day -->
     <defs>
      <path d="
M45.4062 46.3906
L45.4062 75.9844
L54.3906 75.9844
L54.3906 0
L45.4062 0
L45.4062 8.20312
Q42.5781 3.32812 38.25 0.953125
Q33.9375 -1.42188 27.875 -1.42188
Q17.9688 -1.42188 11.7344 6.48438
Q5.51562 14.4062 5.51562 27.2969
Q5.51562 40.1875 11.7344 48.0938
Q17.9688 56 27.875 56
Q33.9375 56 38.25 53.625
Q42.5781 51.2656 45.4062 46.3906
M14.7969 27.2969
Q14.7969 17.3906 18.875 11.75
Q22.9531 6.10938 30.0781 6.10938
Q37.2031 6.10938 41.2969 11.75
Q45.4062 17.3906 45.4062 27.2969
Q45.4062 37.2031 41.2969 42.8438
Q37.2031 48.4844 30.0781 48.4844
Q22.9531 48.4844 18.875 42.8438
Q14.7969 37.2031 14.7969 27.2969" id="BitstreamVeraSans-Roman-64"/>
      <path d="
M32.1719 -5.07812
Q28.375 -14.8438 24.75 -17.8125
Q21.1406 -20.7969 15.0938 -20.7969
L7.90625 -20.7969
L7.90625 -13.2812
L13.1875 -13.2812
Q16.8906 -13.2812 18.9375 -11.5156
Q21 -9.76562 23.4844 -3.21875
L25.0938 0.875
L2.98438 54.6875
L12.5 54.6875
L29.5938 11.9219
L46.6875 54.6875
L56.2031 54.6875
z
" id="BitstreamVeraSans-Roman-79"/>
      <path d="
M9.42188 54.6875
L18.4062 54.6875
L18.4062 0
L9.42188 0
z

M9.42188 75.9844
L18.4062 75.9844
L18.4062 64.5938
L9.42188 64.5938
z
" id="BitstreamVeraSans-Roman-69"/>
      <path id="BitstreamVeraSans-Roman-20"/>
      <path d="
M54.8906 33.0156
L54.8906 0
L45.9062 0
L45.9062 32.7188
Q45.9062 40.4844 42.875 44.3281
Q39.8438 48.1875 33.7969 48.1875
Q26.5156 48.1875 22.3125 43.5469
Q18.1094 38.9219 18.1094 30.9062
L18.1094 0
L9.07812 0
L9.07812 54.6875
L18.1094 54.6875
L18.1094 46.1875
Q21.3438 51.125 25.7031 53.5625
Q30.0781 56 35.7969 56
Q45.2188 56 50.0469 50.1719
Q54.8906 44.3438 54.8906 33.0156" id="BitstreamVeraSans-Roman-6e"/>
      <path d="
M9.8125 72.9062
L19.6719 72.9062
L19.6719 5.07812
Q19.6719 -8.10938 14.6719 -14.0625
Q9.67188 -20.0156 -1.42188 -20.0156
L-5.17188 -20.0156
L-5.17188 -11.7188
L-2.09375 -11.7188
Q4.4375 -11.7188 7.125 -8.04688
Q9.8125 -4.39062 9.8125 5.07812
z
" id="BitstreamVeraSans-Roman-4a"/>
      <path d="
M34.2812 27.4844
Q23.3906 27.4844 19.1875 25
Q14.9844 22.5156 14.9844 16.5
Q14.9844 11.7188 18.1406 8.90625
Q21.2969 6.10938 26.7031 6.10938
Q34.1875 6.10938 38.7031 11.4062
Q43.2188 16.7031 43.2188 25.4844
L43.2188 27.4844
z

M52.2031 31.2031
L52.2031 0
L43.2188 0
L43.2188 8.29688
Q40.1406 3.32812 35.5469 0.953125
Q30.9531 -1.42188 24.3125 -1.42188
Q15.9219 -1.42188 10.9531 3.29688
Q6 8.01562 6 15.9219
Q6 25.1406 12.1719 29.8281
Q18.3594 34.5156 30.6094 34.5156
L43.2188 34.5156
L43.2188 35.4062
Q43.2188 41.6094 39.1406 45
Q35.0625 48.3906 27.6875 48.3906
Q23 48.3906 18.5469 47.2656
Q14.1094 46.1406 10.0156 43.8906
L10.0156 52.2031
Q14.9375 54.1094 19.5781 55.0469
Q24.2188 56 28.6094 56
Q40.4844 56 46.3438 49.8438
Q52.2031 43.7031 52.2031 31.2031" id="BitstreamVeraSans-Roman-61"/>
      <path d="
M9.42188 75.9844
L18.4062 75.9844
L18.4062 0
L9.42188 0
z
" id="BitstreamVeraSans-Roman-6c"/>
      <path d="
M8.5 21.5781
L8.5 54.6875
L17.4844 54.6875
L17.4844 21.9219
Q17.4844 14.1562 20.5 10.2656
Q23.5312 6.39062 29.5938 6.39062
Q36.8594 6.39062 41.0781 11.0312
Q45.3125 15.6719 45.3125 23.6875
L45.3125 54.6875
L54.2969 54.6875
L54.2969 0
L45.3125 0
L45.3125 8.40625
Q42.0469 3.42188 37.7188 1
Q33.4062 -1.42188 27.6875 -1.42188
Q18.2656 -1.42188 13.375 4.4375
Q8.5 10.2969 8.5 21.5781" id="BitstreamVeraSans-Roman-75"/>
     </defs>
     <g transform="translate(174.03984375 270.7946875)scale(0.1 -0.1)">
      <use xlink:href="#BitstreamVeraSans-Roman-4a"/>
      <use x="29.4921875" xlink:href="#BitstreamVeraSans-Roman-75"/>
      <use x="92.87109375" xlink:href="#BitstreamVeraSans-Roman-6c"/>
      <use x="120.654296875" xlink:href="#BitstreamVeraSans-Roman-69"/>
      <use x="148.4375" xlink:href="#BitstreamVeraSans-Roman-61"/>
      <use x="209.716796875" xlink:href="#BitstreamVeraSans-Roman-6e"/>
      <use x="273.095703125" xlink:href="#BitstreamVeraSans-Roman-20"/>
      <use x="304.8828125" xlink:href="#BitstreamVeraSans-Roman-64"/>
      <use x="368.359375" xlink:href="#BitstreamVeraSans-Roman-61"/>
      <use x="429.638671875" xlink:href="#BitstreamVeraSans-Roman-79"/>
     </g>
    </g>
   </g>
   <g id="matplotlib.axis_2">
    <g id="ytick_1">
     <g id="line2d_33">
      <defs>
       <path d="
M0 0
L4 0" id="md7965d1ba0" style="stroke:#000000;stroke-width:0.5;"/>
      </defs>
      <g>
       <use style="stroke:#000000;stroke-width:0.5;" x="31.190625" xlink:href="#md7965d1ba0" y="244.518125"/>
      </g>
     </g>
     <g id="line2d_34">
      <defs>
       <path d="
M0 0
L-4 0" id="md9a1c1a7cd" style="stroke:#000000;stroke-width:0.5;"/>
      </defs>
      <g>
       <use style="stroke:#000000;stroke-width:0.5;" x="365.990625" xlink:href="#md9a1c1a7cd" y="244.518125"/>
      </g>
     </g>
     <g id="text_10">
      <!-- 0 -->
      <g transform="translate(22.1515625 247.2775)scale(0.1 -0.1)">
       <use xlink:href="#BitstreamVeraSans-Roman-30"/>
      </g>
     </g>
    </g>
    <g id="ytick_2">
     <g id="line2d_35">
      <g>
       <use style="stroke:#000000;stroke-width:0.5;" x="31.190625" xlink:href="#md7965d1ba0" y="216.618125"/>
      </g>
     </g>
     <g id="line2d_36">
      <g>
       <use style="stroke:#000000;stroke-width:0.5;" x="365.990625" xlink:href="#md9a1c1a7cd" y="216.618125"/>
      </g>
     </g>
     <g id="text_11">
      <!-- 1 -->
      <g transform="translate(22.85 219.3775)scale(0.1 -0.1)">
       <use xlink:href="#BitstreamVeraSans-Roman-31"/>
      </g>
     </g>
    </g>
    <g id="ytick_3">
     <g id="line2d_37">
      <g>
       <use style="stroke:#000000;stroke-width:0.5;" x="31.190625" xlink:href="#md7965d1ba0" y="188.718125"/>
      </g>
     </g>
     <g id="line2d_38">
      <g>
       <use style="stroke:#000000;stroke-width:0.5;" x="365.990625" xlink:href="#md9a1c1a7cd" y="188.718125"/>
      </g>
     </g>
     <g id="text_12">
      <!-- 2 -->
      <g transform="translate(22.5625 191.4775)scale(0.1 -0.1)">
       <use xlink:href="#BitstreamVeraSans-Roman-32"/>
      </g>
     </g>
    </g>
    <g id="ytick_4">
     <g id="line2d_39">
      <g>
       <use style="stroke:#000000;stroke-width:0.5;" x="31.190625" xlink:href="#md7965d1ba0" y="160.818125"/>
      </g>
     </g>
     <g id="line2d_40">
      <g>
       <use style="stroke:#000000;stroke-width:0.5;" x="365.990625" xlink:href="#md9a1c1a7cd" y="160.818125"/>
      </g>
     </g>
     <g id="text_13">
      <!-- 3 -->
      <g transform="translate(22.3921875 163.5775)scale(0.1 -0.1)">
       <use xlink:href="#BitstreamVeraSans-Roman-33"/>
      </g>
     </g>
    </g>
    <g id="ytick_5">
     <g id="line2d_41">
      <g>
       <use style="stroke:#000000;stroke-width:0.5;" x="31.190625" xlink:href="#md7965d1ba0" y="132.918125"/>
      </g>
     </g>
     <g id="line2d_42">
      <g>
       <use style="stroke:#000000;stroke-width:0.5;" x="365.990625" xlink:href="#md9a1c1a7cd" y="132.918125"/>
      </g>
     </g>
     <g id="text_14">
      <!-- 4 -->
      <defs>
       <path d="
M37.7969 64.3125
L12.8906 25.3906
L37.7969 25.3906
z

M35.2031 72.9062
L47.6094 72.9062
L47.6094 25.3906
L58.0156 25.3906
L58.0156 17.1875
L47.6094 17.1875
L47.6094 0
L37.7969 0
L37.7969 17.1875
L4.89062 17.1875
L4.89062 26.7031
z
" id="BitstreamVeraSans-Roman-34"/>
      </defs>
      <g transform="translate(21.878125 135.6775)scale(0.1 -0.1)">
       <use xlink:href="#BitstreamVeraSans-Roman-34"/>
      </g>
     </g>
    </g>
    <g id="ytick_6">
     <g id="line2d_43">
      <g>
       <use style="stroke:#000000;stroke-width:0.5;" x="31.190625" xlink:href="#md7965d1ba0" y="105.018125"/>
      </g>
     </g>
     <g id="line2d_44">
      <g>
       <use style="stroke:#000000;stroke-width:0.5;" x="365.990625" xlink:href="#md9a1c1a7cd" y="105.018125"/>
      </g>
     </g>
     <g id="text_15">
      <!-- 5 -->
      <g transform="translate(22.4734375 107.7775)scale(0.1 -0.1)">
       <use xlink:href="#BitstreamVeraSans-Roman-35"/>
      </g>
     </g>
    </g>
    <g id="ytick_7">
     <g id="line2d_45">
      <g>
       <use style="stroke:#000000;stroke-width:0.5;" x="31.190625" xlink:href="#md7965d1ba0" y="77.118125"/>
      </g>
     </g>
     <g id="line2d_46">
      <g>
       <use style="stroke:#000000;stroke-width:0.5;" x="365.990625" xlink:href="#md9a1c1a7cd" y="77.118125"/>
      </g>
     </g>
     <g id="text_16">
      <!-- 6 -->
      <defs>
       <path d="
M33.0156 40.375
Q26.375 40.375 22.4844 35.8281
Q18.6094 31.2969 18.6094 23.3906
Q18.6094 15.5312 22.4844 10.9531
Q26.375 6.39062 33.0156 6.39062
Q39.6562 6.39062 43.5312 10.9531
Q47.4062 15.5312 47.4062 23.3906
Q47.4062 31.2969 43.5312 35.8281
Q39.6562 40.375 33.0156 40.375
M52.5938 71.2969
L52.5938 62.3125
Q48.875 64.0625 45.0938 64.9844
Q41.3125 65.9219 37.5938 65.9219
Q27.8281 65.9219 22.6719 59.3281
Q17.5312 52.7344 16.7969 39.4062
Q19.6719 43.6562 24.0156 45.9219
Q28.375 48.1875 33.5938 48.1875
Q44.5781 48.1875 50.9531 41.5156
Q57.3281 34.8594 57.3281 23.3906
Q57.3281 12.1562 50.6875 5.35938
Q44.0469 -1.42188 33.0156 -1.42188
Q20.3594 -1.42188 13.6719 8.26562
Q6.98438 17.9688 6.98438 36.375
Q6.98438 53.6562 15.1875 63.9375
Q23.3906 74.2188 37.2031 74.2188
Q40.9219 74.2188 44.7031 73.4844
Q48.4844 72.75 52.5938 71.2969" id="BitstreamVeraSans-Roman-36"/>
      </defs>
      <g transform="translate(22.15625 79.8775)scale(0.1 -0.1)">
       <use xlink:href="#BitstreamVeraSans-Roman-36"/>
      </g>
     </g>
    </g>
    <g id="ytick_8">
     <g id="line2d_47">
      <g>
       <use style="stroke:#000000;stroke-width:0.5;" x="31.190625" xlink:href="#md7965d1ba0" y="49.218125"/>
      </g>
     </g>
     <g id="line2d_48">
      <g>
       <use style="stroke:#000000;stroke-width:0.5;" x="365.990625" xlink:href="#md9a1c1a7cd" y="49.218125"/>
      </g>
     </g>
     <g id="text_17">
      <!-- 7 -->
      <defs>
       <path d="
M8.20312 72.9062
L55.0781 72.9062
L55.0781 68.7031
L28.6094 0
L18.3125 0
L43.2188 64.5938
L8.20312 64.5938
z
" id="BitstreamVeraSans-Roman-37"/>
      </defs>
      <g transform="translate(22.503125 51.9775)scale(0.1 -0.1)">
       <use xlink:href="#BitstreamVeraSans-Roman-37"/>
      </g>
     </g>
    </g>
    <g id="ytick_9">
     <g id="line2d_49">
      <g>
       <use style="stroke:#000000;stroke-width:0.5;" x="31.190625" xlink:href="#md7965d1ba0" y="21.318125"/>
      </g>
     </g>
     <g id="line2d_50">
      <g>
       <use style="stroke:#000000;stroke-width:0.5;" x="365.990625" xlink:href="#md9a1c1a7cd" y="21.318125"/>
      </g>
     </g>
     <g id="text_18">
      <!-- 8 -->
      <defs>
       <path d="
M31.7812 34.625
Q24.75 34.625 20.7188 30.8594
Q16.7031 27.0938 16.7031 20.5156
Q16.7031 13.9219 20.7188 10.1562
Q24.75 6.39062 31.7812 6.39062
Q38.8125 6.39062 42.8594 10.1719
Q46.9219 13.9688 46.9219 20.5156
Q46.9219 27.0938 42.8906 30.8594
Q38.875 34.625 31.7812 34.625
M21.9219 38.8125
Q15.5781 40.375 12.0312 44.7188
Q8.5 49.0781 8.5 55.3281
Q8.5 64.0625 14.7188 69.1406
Q20.9531 74.2188 31.7812 74.2188
Q42.6719 74.2188 48.875 69.1406
Q55.0781 64.0625 55.0781 55.3281
Q55.0781 49.0781 51.5312 44.7188
Q48 40.375 41.7031 38.8125
Q48.8281 37.1562 52.7969 32.3125
Q56.7812 27.4844 56.7812 20.5156
Q56.7812 9.90625 50.3125 4.23438
Q43.8438 -1.42188 31.7812 -1.42188
Q19.7344 -1.42188 13.25 4.23438
Q6.78125 9.90625 6.78125 20.5156
Q6.78125 27.4844 10.7812 32.3125
Q14.7969 37.1562 21.9219 38.8125
M18.3125 54.3906
Q18.3125 48.7344 21.8438 45.5625
Q25.3906 42.3906 31.7812 42.3906
Q38.1406 42.3906 41.7188 45.5625
Q45.3125 48.7344 45.3125 54.3906
Q45.3125 60.0625 41.7188 63.2344
Q38.1406 66.4062 31.7812 66.4062
Q25.3906 66.4062 21.8438 63.2344
Q18.3125 60.0625 18.3125 54.3906" id="BitstreamVeraSans-Roman-38"/>
      </defs>
      <g transform="translate(22.190625 24.0775)scale(0.1 -0.1)">
       <use xlink:href="#BitstreamVeraSans-Roman-38"/>
      </g>
     </g>
    </g>
    <g id="text_19">
     <!-- PET (mm/day) -->
     <defs>
      <path d="
M52 44.1875
Q55.375 50.25 60.0625 53.125
Q64.75 56 71.0938 56
Q79.6406 56 84.2812 50.0156
Q88.9219 44.0469 88.9219 33.0156
L88.9219 0
L79.8906 0
L79.8906 32.7188
Q79.8906 40.5781 77.0938 44.375
Q74.3125 48.1875 68.6094 48.1875
Q61.625 48.1875 57.5625 43.5469
Q53.5156 38.9219 53.5156 30.9062
L53.5156 0
L44.4844 0
L44.4844 32.7188
Q44.4844 40.625 41.7031 44.4062
Q38.9219 48.1875 33.1094 48.1875
Q26.2188 48.1875 22.1562 43.5312
Q18.1094 38.875 18.1094 30.9062
L18.1094 0
L9.07812 0
L9.07812 54.6875
L18.1094 54.6875
L18.1094 46.1875
Q21.1875 51.2188 25.4844 53.6094
Q29.7812 56 35.6875 56
Q41.6562 56 45.8281 52.9688
Q50 49.9531 52 44.1875" id="BitstreamVeraSans-Roman-6d"/>
      <path d="
M19.6719 64.7969
L19.6719 37.4062
L32.0781 37.4062
Q38.9688 37.4062 42.7188 40.9688
Q46.4844 44.5312 46.4844 51.125
Q46.4844 57.6719 42.7188 61.2344
Q38.9688 64.7969 32.0781 64.7969
z

M9.8125 72.9062
L32.0781 72.9062
Q44.3438 72.9062 50.6094 67.3594
Q56.8906 61.8125 56.8906 51.125
Q56.8906 40.3281 50.6094 34.8125
Q44.3438 29.2969 32.0781 29.2969
L19.6719 29.2969
L19.6719 0
L9.8125 0
z
" id="BitstreamVeraSans-Roman-50"/>
      <path d="
M25.3906 72.9062
L33.6875 72.9062
L8.29688 -9.28125
L0 -9.28125
z
" id="BitstreamVeraSans-Roman-2f"/>
      <path d="
M-0.296875 72.9062
L61.375 72.9062
L61.375 64.5938
L35.5 64.5938
L35.5 0
L25.5938 0
L25.5938 64.5938
L-0.296875 64.5938
z
" id="BitstreamVeraSans-Roman-54"/>
      <path d="
M8.01562 75.875
L15.8281 75.875
Q23.1406 64.3594 26.7812 53.3125
Q30.4219 42.2812 30.4219 31.3906
Q30.4219 20.4531 26.7812 9.375
Q23.1406 -1.70312 15.8281 -13.1875
L8.01562 -13.1875
Q14.5 -2 17.7031 9.0625
Q20.9062 20.125 20.9062 31.3906
Q20.9062 42.6719 17.7031 53.6562
Q14.5 64.6562 8.01562 75.875" id="BitstreamVeraSans-Roman-29"/>
      <path d="
M31 75.875
Q24.4688 64.6562 21.2812 53.6562
Q18.1094 42.6719 18.1094 31.3906
Q18.1094 20.125 21.3125 9.0625
Q24.5156 -2 31 -13.1875
L23.1875 -13.1875
Q15.875 -1.70312 12.2344 9.375
Q8.59375 20.4531 8.59375 31.3906
Q8.59375 42.2812 12.2031 53.3125
Q15.8281 64.3594 23.1875 75.875
z
" id="BitstreamVeraSans-Roman-28"/>
      <path d="
M9.8125 72.9062
L55.9062 72.9062
L55.9062 64.5938
L19.6719 64.5938
L19.6719 43.0156
L54.3906 43.0156
L54.3906 34.7188
L19.6719 34.7188
L19.6719 8.29688
L56.7812 8.29688
L56.7812 0
L9.8125 0
z
" id="BitstreamVeraSans-Roman-45"/>
     </defs>
     <g transform="translate(14.7984375 167.82984375)rotate(-90.0)scale(0.1 -0.1)">
      <use xlink:href="#BitstreamVeraSans-Roman-50"/>
      <use x="60.302734375" xlink:href="#BitstreamVeraSans-Roman-45"/>
      <use x="123.486328125" xlink:href="#BitstreamVeraSans-Roman-54"/>
      <use x="184.5703125" xlink:href="#BitstreamVeraSans-Roman-20"/>
      <use x="216.357421875" xlink:href="#BitstreamVeraSans-Roman-28"/>
      <use x="255.37109375" xlink:href="#BitstreamVeraSans-Roman-6d"/>
      <use x="352.783203125" xlink:href="#BitstreamVeraSans-Roman-6d"/>
      <use x="450.1953125" xlink:href="#BitstreamVeraSans-Roman-2f"/>
      <use x="483.88671875" xlink:href="#BitstreamVeraSans-Roman-64"/>
      <use x="547.36328125" xlink:href="#BitstreamVeraSans-Roman-61"/>
      <use x="608.642578125" xlink:href="#BitstreamVeraSans-Roman-79"/>
      <use x="667.822265625" xlink:href="#BitstreamVeraSans-Roman-29"/>
     </g>
    </g>
   </g>
   <g id="text_20">
    <!-- daily grass PET at Treeline -->
    <defs>
     <path d="
M45.4062 27.9844
Q45.4062 37.75 41.375 43.1094
Q37.3594 48.4844 30.0781 48.4844
Q22.8594 48.4844 18.8281 43.1094
Q14.7969 37.75 14.7969 27.9844
Q14.7969 18.2656 18.8281 12.8906
Q22.8594 7.51562 30.0781 7.51562
Q37.3594 7.51562 41.375 12.8906
Q45.4062 18.2656 45.4062 27.9844
M54.3906 6.78125
Q54.3906 -7.17188 48.1875 -13.9844
Q42 -20.7969 29.2031 -20.7969
Q24.4688 -20.7969 20.2656 -20.0938
Q16.0625 -19.3906 12.1094 -17.9219
L12.1094 -9.1875
Q16.0625 -11.3281 19.9219 -12.3438
Q23.7812 -13.375 27.7812 -13.375
Q36.625 -13.375 41.0156 -8.76562
Q45.4062 -4.15625 45.4062 5.17188
L45.4062 9.625
Q42.625 4.78125 38.2812 2.39062
Q33.9375 0 27.875 0
Q17.8281 0 11.6719 7.65625
Q5.51562 15.3281 5.51562 27.9844
Q5.51562 40.6719 11.6719 48.3281
Q17.8281 56 27.875 56
Q33.9375 56 38.2812 53.6094
Q42.625 51.2188 45.4062 46.3906
L45.4062 54.6875
L54.3906 54.6875
z
" id="BitstreamVeraSans-Roman-67"/>
     <path d="
M56.2031 29.5938
L56.2031 25.2031
L14.8906 25.2031
Q15.4844 15.9219 20.4844 11.0625
Q25.4844 6.20312 34.4219 6.20312
Q39.5938 6.20312 44.4531 7.46875
Q49.3125 8.73438 54.1094 11.2812
L54.1094 2.78125
Q49.2656 0.734375 44.1875 -0.34375
Q39.1094 -1.42188 33.8906 -1.42188
Q20.7969 -1.42188 13.1562 6.1875
Q5.51562 13.8125 5.51562 26.8125
Q5.51562 40.2344 12.7656 48.1094
Q20.0156 56 32.3281 56
Q43.3594 56 49.7812 48.8906
Q56.2031 41.7969 56.2031 29.5938
M47.2188 32.2344
Q47.125 39.5938 43.0938 43.9844
Q39.0625 48.3906 32.4219 48.3906
Q24.9062 48.3906 20.3906 44.1406
Q15.875 39.8906 15.1875 32.1719
z
" id="BitstreamVeraSans-Roman-65"/>
     <path d="
M41.1094 46.2969
Q39.5938 47.1719 37.8125 47.5781
Q36.0312 48 33.8906 48
Q26.2656 48 22.1875 43.0469
Q18.1094 38.0938 18.1094 28.8125
L18.1094 0
L9.07812 0
L9.07812 54.6875
L18.1094 54.6875
L18.1094 46.1875
Q20.9531 51.1719 25.4844 53.5781
Q30.0312 56 36.5312 56
Q37.4531 56 38.5781 55.875
Q39.7031 55.7656 41.0625 55.5156
z
" id="BitstreamVeraSans-Roman-72"/>
     <path d="
M18.3125 70.2188
L18.3125 54.6875
L36.8125 54.6875
L36.8125 47.7031
L18.3125 47.7031
L18.3125 18.0156
Q18.3125 11.3281 20.1406 9.42188
Q21.9688 7.51562 27.5938 7.51562
L36.8125 7.51562
L36.8125 0
L27.5938 0
Q17.1875 0 13.2344 3.875
Q9.28125 7.76562 9.28125 18.0156
L9.28125 47.7031
L2.6875 47.7031
L2.6875 54.6875
L9.28125 54.6875
L9.28125 70.2188
z
" id="BitstreamVeraSans-Roman-74"/>
     <path d="
M44.2812 53.0781
L44.2812 44.5781
Q40.4844 46.5312 36.375 47.5
Q32.2812 48.4844 27.875 48.4844
Q21.1875 48.4844 17.8438 46.4375
Q14.5 44.3906 14.5 40.2812
Q14.5 37.1562 16.8906 35.375
Q19.2812 33.5938 26.5156 31.9844
L29.5938 31.2969
Q39.1562 29.25 43.1875 25.5156
Q47.2188 21.7812 47.2188 15.0938
Q47.2188 7.46875 41.1875 3.01562
Q35.1562 -1.42188 24.6094 -1.42188
Q20.2188 -1.42188 15.4531 -0.5625
Q10.6875 0.296875 5.42188 2
L5.42188 11.2812
Q10.4062 8.6875 15.2344 7.39062
Q20.0625 6.10938 24.8125 6.10938
Q31.1562 6.10938 34.5625 8.28125
Q37.9844 10.4531 37.9844 14.4062
Q37.9844 18.0625 35.5156 20.0156
Q33.0625 21.9688 24.7031 23.7812
L21.5781 24.5156
Q13.2344 26.2656 9.51562 29.9062
Q5.8125 33.5469 5.8125 39.8906
Q5.8125 47.6094 11.2812 51.7969
Q16.75 56 26.8125 56
Q31.7812 56 36.1719 55.2656
Q40.5781 54.5469 44.2812 53.0781" id="BitstreamVeraSans-Roman-73"/>
    </defs>
    <g transform="translate(120.2821875 16.318125)scale(0.12 -0.12)">
     <use xlink:href="#BitstreamVeraSans-Roman-64"/>
     <use x="63.4765625" xlink:href="#BitstreamVeraSans-Roman-61"/>
     <use x="124.755859375" xlink:href="#BitstreamVeraSans-Roman-69"/>
     <use x="152.5390625" xlink:href="#BitstreamVeraSans-Roman-6c"/>
     <use x="180.322265625" xlink:href="#BitstreamVeraSans-Roman-79"/>
     <use x="239.501953125" xlink:href="#BitstreamVeraSans-Roman-20"/>
     <use x="271.2890625" xlink:href="#BitstreamVeraSans-Roman-67"/>
     <use x="334.765625" xlink:href="#BitstreamVeraSans-Roman-72"/>
     <use x="375.87890625" xlink:href="#BitstreamVeraSans-Roman-61"/>
     <use x="437.158203125" xlink:href="#BitstreamVeraSans-Roman-73"/>
     <use x="489.2578125" xlink:href="#BitstreamVeraSans-Roman-73"/>
     <use x="541.357421875" xlink:href="#BitstreamVeraSans-Roman-20"/>
     <use x="573.14453125" xlink:href="#BitstreamVeraSans-Roman-50"/>
     <use x="633.447265625" xlink:href="#BitstreamVeraSans-Roman-45"/>
     <use x="696.630859375" xlink:href="#BitstreamVeraSans-Roman-54"/>
     <use x="757.71484375" xlink:href="#BitstreamVeraSans-Roman-20"/>
     <use x="789.501953125" xlink:href="#BitstreamVeraSans-Roman-61"/>
     <use x="850.78125" xlink:href="#BitstreamVeraSans-Roman-74"/>
     <use x="889.990234375" xlink:href="#BitstreamVeraSans-Roman-20"/>
     <use x="921.77734375" xlink:href="#BitstreamVeraSans-Roman-54"/>
     <use x="968.111328125" xlink:href="#BitstreamVeraSans-Roman-72"/>
     <use x="1006.974609375" xlink:href="#BitstreamVeraSans-Roman-65"/>
     <use x="1068.498046875" xlink:href="#BitstreamVeraSans-Roman-65"/>
     <use x="1130.021484375" xlink:href="#BitstreamVeraSans-Roman-6c"/>
     <use x="1157.8046875" xlink:href="#BitstreamVeraSans-Roman-69"/>
     <use x="1185.587890625" xlink:href="#BitstreamVeraSans-Roman-6e"/>
     <use x="1248.966796875" xlink:href="#BitstreamVeraSans-Roman-65"/>
    </g>
   </g>
   <g id="legend_1">
    <g id="patch_7">
     <path d="
M287.803 312.738
L359.991 312.738
L359.991 27.3181
L287.803 27.3181
z
" style="fill:#ffffff;stroke:#000000;stroke-linejoin:miter;"/>
    </g>
    <g id="line2d_51">
     <path d="
M296.203 37.0363
L313.003 37.0363" style="fill:none;stroke:#0000ff;stroke-linecap:square;"/>
    </g>
    <g id="line2d_52"/>
    <g id="text_21">
     <!-- 1999 -->
     <defs>
      <path d="
M10.9844 1.51562
L10.9844 10.5
Q14.7031 8.73438 18.5 7.8125
Q22.3125 6.89062 25.9844 6.89062
Q35.75 6.89062 40.8906 13.4531
Q46.0469 20.0156 46.7812 33.4062
Q43.9531 29.2031 39.5938 26.9531
Q35.25 24.7031 29.9844 24.7031
Q19.0469 24.7031 12.6719 31.3125
Q6.29688 37.9375 6.29688 49.4219
Q6.29688 60.6406 12.9375 67.4219
Q19.5781 74.2188 30.6094 74.2188
Q43.2656 74.2188 49.9219 64.5156
Q56.5938 54.8281 56.5938 36.375
Q56.5938 19.1406 48.4062 8.85938
Q40.2344 -1.42188 26.4219 -1.42188
Q22.7031 -1.42188 18.8906 -0.6875
Q15.0938 0.046875 10.9844 1.51562
M30.6094 32.4219
Q37.25 32.4219 41.125 36.9531
Q45.0156 41.5 45.0156 49.4219
Q45.0156 57.2812 41.125 61.8438
Q37.25 66.4062 30.6094 66.4062
Q23.9688 66.4062 20.0938 61.8438
Q16.2188 57.2812 16.2188 49.4219
Q16.2188 41.5 20.0938 36.9531
Q23.9688 32.4219 30.6094 32.4219" id="BitstreamVeraSans-Roman-39"/>
     </defs>
     <g transform="translate(326.203125 41.23625)scale(0.12 -0.12)">
      <use xlink:href="#BitstreamVeraSans-Roman-31"/>
      <use x="63.623046875" xlink:href="#BitstreamVeraSans-Roman-39"/>
      <use x="127.24609375" xlink:href="#BitstreamVeraSans-Roman-39"/>
      <use x="190.869140625" xlink:href="#BitstreamVeraSans-Roman-39"/>
     </g>
    </g>
    <g id="line2d_53">
     <path d="
M296.203 54.65
L313.003 54.65" style="fill:none;stroke:#008000;stroke-linecap:square;"/>
    </g>
    <g id="line2d_54"/>
    <g id="text_22">
     <!-- 2000 -->
     <g transform="translate(326.203125 58.85)scale(0.12 -0.12)">
      <use xlink:href="#BitstreamVeraSans-Roman-32"/>
      <use x="63.623046875" xlink:href="#BitstreamVeraSans-Roman-30"/>
      <use x="127.24609375" xlink:href="#BitstreamVeraSans-Roman-30"/>
      <use x="190.869140625" xlink:href="#BitstreamVeraSans-Roman-30"/>
     </g>
    </g>
    <g id="line2d_55">
     <path d="
M296.203 72.2638
L313.003 72.2638" style="fill:none;stroke:#ff0000;stroke-linecap:square;"/>
    </g>
    <g id="line2d_56"/>
    <g id="text_23">
     <!-- 2001 -->
     <g transform="translate(326.203125 76.46375)scale(0.12 -0.12)">
      <use xlink:href="#BitstreamVeraSans-Roman-32"/>
      <use x="63.623046875" xlink:href="#BitstreamVeraSans-Roman-30"/>
      <use x="127.24609375" xlink:href="#BitstreamVeraSans-Roman-30"/>
      <use x="190.869140625" xlink:href="#BitstreamVeraSans-Roman-31"/>
     </g>
    </g>
    <g id="line2d_57">
     <path d="
M296.203 89.8775
L313.003 89.8775" style="fill:none;stroke:#00bfbf;stroke-linecap:square;"/>
    </g>
    <g id="line2d_58"/>
    <g id="text_24">
     <!-- 2002 -->
     <g transform="translate(326.203125 94.0775)scale(0.12 -0.12)">
      <use xlink:href="#BitstreamVeraSans-Roman-32"/>
      <use x="63.623046875" xlink:href="#BitstreamVeraSans-Roman-30"/>
      <use x="127.24609375" xlink:href="#BitstreamVeraSans-Roman-30"/>
      <use x="190.869140625" xlink:href="#BitstreamVeraSans-Roman-32"/>
     </g>
    </g>
    <g id="line2d_59">
     <path d="
M296.203 107.491
L313.003 107.491" style="fill:none;stroke:#bf00bf;stroke-linecap:square;"/>
    </g>
    <g id="line2d_60"/>
    <g id="text_25">
     <!-- 2003 -->
     <g transform="translate(326.203125 111.69125)scale(0.12 -0.12)">
      <use xlink:href="#BitstreamVeraSans-Roman-32"/>
      <use x="63.623046875" xlink:href="#BitstreamVeraSans-Roman-30"/>
      <use x="127.24609375" xlink:href="#BitstreamVeraSans-Roman-30"/>
      <use x="190.869140625" xlink:href="#BitstreamVeraSans-Roman-33"/>
     </g>
    </g>
    <g id="line2d_61">
     <path d="
M296.203 125.105
L313.003 125.105" style="fill:none;stroke:#bfbf00;stroke-linecap:square;"/>
    </g>
    <g id="line2d_62"/>
    <g id="text_26">
     <!-- 2004 -->
     <g transform="translate(326.203125 129.305)scale(0.12 -0.12)">
      <use xlink:href="#BitstreamVeraSans-Roman-32"/>
      <use x="63.623046875" xlink:href="#BitstreamVeraSans-Roman-30"/>
      <use x="127.24609375" xlink:href="#BitstreamVeraSans-Roman-30"/>
      <use x="190.869140625" xlink:href="#BitstreamVeraSans-Roman-34"/>
     </g>
    </g>
    <g id="line2d_63">
     <path d="
M296.203 142.719
L313.003 142.719" style="fill:none;stroke:#000000;stroke-linecap:square;"/>
    </g>
    <g id="line2d_64"/>
    <g id="text_27">
     <!-- 2005 -->
     <g transform="translate(326.203125 146.91875)scale(0.12 -0.12)">
      <use xlink:href="#BitstreamVeraSans-Roman-32"/>
      <use x="63.623046875" xlink:href="#BitstreamVeraSans-Roman-30"/>
      <use x="127.24609375" xlink:href="#BitstreamVeraSans-Roman-30"/>
      <use x="190.869140625" xlink:href="#BitstreamVeraSans-Roman-35"/>
     </g>
    </g>
    <g id="line2d_65">
     <path d="
M296.203 160.333
L313.003 160.333" style="fill:none;stroke:#0000ff;stroke-linecap:square;"/>
    </g>
    <g id="line2d_66"/>
    <g id="text_28">
     <!-- 2006 -->
     <g transform="translate(326.203125 164.5325)scale(0.12 -0.12)">
      <use xlink:href="#BitstreamVeraSans-Roman-32"/>
      <use x="63.623046875" xlink:href="#BitstreamVeraSans-Roman-30"/>
      <use x="127.24609375" xlink:href="#BitstreamVeraSans-Roman-30"/>
      <use x="190.869140625" xlink:href="#BitstreamVeraSans-Roman-36"/>
     </g>
    </g>
    <g id="line2d_67">
     <path d="
M296.203 177.946
L313.003 177.946" style="fill:none;stroke:#008000;stroke-linecap:square;"/>
    </g>
    <g id="line2d_68"/>
    <g id="text_29">
     <!-- 2007 -->
     <g transform="translate(326.203125 182.14625)scale(0.12 -0.12)">
      <use xlink:href="#BitstreamVeraSans-Roman-32"/>
      <use x="63.623046875" xlink:href="#BitstreamVeraSans-Roman-30"/>
      <use x="127.24609375" xlink:href="#BitstreamVeraSans-Roman-30"/>
      <use x="190.869140625" xlink:href="#BitstreamVeraSans-Roman-37"/>
     </g>
    </g>
    <g id="line2d_69">
     <path d="
M296.203 195.56
L313.003 195.56" style="fill:none;stroke:#ff0000;stroke-linecap:square;"/>
    </g>
    <g id="line2d_70"/>
    <g id="text_30">
     <!-- 2008 -->
     <g transform="translate(326.203125 199.76)scale(0.12 -0.12)">
      <use xlink:href="#BitstreamVeraSans-Roman-32"/>
      <use x="63.623046875" xlink:href="#BitstreamVeraSans-Roman-30"/>
      <use x="127.24609375" xlink:href="#BitstreamVeraSans-Roman-30"/>
      <use x="190.869140625" xlink:href="#BitstreamVeraSans-Roman-38"/>
     </g>
    </g>
    <g id="line2d_71">
     <path d="
M296.203 213.174
L313.003 213.174" style="fill:none;stroke:#00bfbf;stroke-linecap:square;"/>
    </g>
    <g id="line2d_72"/>
    <g id="text_31">
     <!-- 2009 -->
     <g transform="translate(326.203125 217.37375)scale(0.12 -0.12)">
      <use xlink:href="#BitstreamVeraSans-Roman-32"/>
      <use x="63.623046875" xlink:href="#BitstreamVeraSans-Roman-30"/>
      <use x="127.24609375" xlink:href="#BitstreamVeraSans-Roman-30"/>
      <use x="190.869140625" xlink:href="#BitstreamVeraSans-Roman-39"/>
     </g>
    </g>
    <g id="line2d_73">
     <path d="
M296.203 230.788
L313.003 230.788" style="fill:none;stroke:#bf00bf;stroke-linecap:square;"/>
    </g>
    <g id="line2d_74"/>
    <g id="text_32">
     <!-- 2010 -->
     <g transform="translate(326.203125 234.9875)scale(0.12 -0.12)">
      <use xlink:href="#BitstreamVeraSans-Roman-32"/>
      <use x="63.623046875" xlink:href="#BitstreamVeraSans-Roman-30"/>
      <use x="127.24609375" xlink:href="#BitstreamVeraSans-Roman-31"/>
      <use x="190.869140625" xlink:href="#BitstreamVeraSans-Roman-30"/>
     </g>
    </g>
    <g id="line2d_75">
     <path d="
M296.203 248.401
L313.003 248.401" style="fill:none;stroke:#bfbf00;stroke-linecap:square;"/>
    </g>
    <g id="line2d_76"/>
    <g id="text_33">
     <!-- 2011 -->
     <g transform="translate(326.203125 252.60125)scale(0.12 -0.12)">
      <use xlink:href="#BitstreamVeraSans-Roman-32"/>
      <use x="63.623046875" xlink:href="#BitstreamVeraSans-Roman-30"/>
      <use x="127.24609375" xlink:href="#BitstreamVeraSans-Roman-31"/>
      <use x="190.869140625" xlink:href="#BitstreamVeraSans-Roman-31"/>
     </g>
    </g>
    <g id="line2d_77">
     <path d="
M296.203 266.015
L313.003 266.015" style="fill:none;stroke:#000000;stroke-linecap:square;"/>
    </g>
    <g id="line2d_78"/>
    <g id="text_34">
     <!-- 2012 -->
     <g transform="translate(326.203125 270.215)scale(0.12 -0.12)">
      <use xlink:href="#BitstreamVeraSans-Roman-32"/>
      <use x="63.623046875" xlink:href="#BitstreamVeraSans-Roman-30"/>
      <use x="127.24609375" xlink:href="#BitstreamVeraSans-Roman-31"/>
      <use x="190.869140625" xlink:href="#BitstreamVeraSans-Roman-32"/>
     </g>
    </g>
    <g id="line2d_79">
     <path d="
M296.203 283.629
L313.003 283.629" style="fill:none;stroke:#0000ff;stroke-linecap:square;"/>
    </g>
    <g id="line2d_80"/>
    <g id="text_35">
     <!-- 2013 -->
     <g transform="translate(326.203125 287.82875)scale(0.12 -0.12)">
      <use xlink:href="#BitstreamVeraSans-Roman-32"/>
      <use x="63.623046875" xlink:href="#BitstreamVeraSans-Roman-30"/>
      <use x="127.24609375" xlink:href="#BitstreamVeraSans-Roman-31"/>
      <use x="190.869140625" xlink:href="#BitstreamVeraSans-Roman-33"/>
     </g>
    </g>
    <g id="line2d_81">
     <path d="
M296.203 301.243
L313.003 301.243" style="fill:none;stroke:#008000;stroke-linecap:square;"/>
    </g>
    <g id="line2d_82"/>
    <g id="text_36">
     <!-- 2014 -->
     <g transform="translate(326.203125 305.4425)scale(0.12 -0.12)">
      <use xlink:href="#BitstreamVeraSans-Roman-32"/>
      <use x="63.623046875" xlink:href="#BitstreamVeraSans-Roman-30"/>
      <use x="127.24609375" xlink:href="#BitstreamVeraSans-Roman-31"/>
      <use x="190.869140625" xlink:href="#BitstreamVeraSans-Roman-34"/>
     </g>
    </g>
   </g>
  </g>
 </g>
 <defs>
  <clipPath id="p95a2ee5e18">
   <rect height="223.2" width="334.8" x="31.190625" y="21.318125"/>
  </clipPath>
 </defs>
</svg>
