<?xml version="1.0" encoding="utf-8" standalone="no"?>
<!DOCTYPE svg PUBLIC "-//W3C//DTD SVG 1.1//EN"
  "http://www.w3.org/Graphics/SVG/1.1/DTD/svg11.dtd">
<!-- Created with matplotlib (http://matplotlib.org/) -->
<svg height="319pt" version="1.1" viewBox="0 0 373 319" width="373pt" xmlns="http://www.w3.org/2000/svg" xmlns:xlink="http://www.w3.org/1999/xlink">
 <defs>
  <style type="text/css">
*{stroke-linecap:butt;stroke-linejoin:round;}
  </style>
 </defs>
 <g id="figure_1">
  <g id="patch_1">
   <path d="
M0 319.938
L373.191 319.938
L373.191 0
L0 0
z
" style="fill:#ffffff;"/>
  </g>
  <g id="axes_1">
   <g id="patch_2">
    <path d="
M31.1906 244.518
L365.991 244.518
L365.991 21.3181
L31.1906 21.3181
z
" style="fill:#ffffff;"/>
   </g>
   <g id="line2d_1">
    <path clip-path="url(#p95a2ee5e18)" d="
M0 0" style="fill:none;stroke:#0000ff;stroke-linecap:square;"/>
   </g>
   <g id="line2d_2">
    <path clip-path="url(#p95a2ee5e18)" d="
M0 0" style="fill:none;stroke:#008000;stroke-linecap:square;"/>
   </g>
   <g id="line2d_3">
    <path clip-path="url(#p95a2ee5e18)" d="
M0 0" style="fill:none;stroke:#ff0000;stroke-linecap:square;"/>
   </g>
   <g id="line2d_4">
    <path clip-path="url(#p95a2ee5e18)" d="
M0 0" style="fill:none;stroke:#00bfbf;stroke-linecap:square;"/>
   </g>
   <g id="line2d_5">
    <path clip-path="url(#p95a2ee5e18)" d="
M0 0" style="fill:none;stroke:#bf00bf;stroke-linecap:square;"/>
   </g>
   <g id="line2d_6">
    <path clip-path="url(#p95a2ee5e18)" d="
M0 0" style="fill:none;stroke:#bfbf00;stroke-linecap:square;"/>
   </g>
   <g id="line2d_7">
    <path clip-path="url(#p95a2ee5e18)" d="
M0 0" style="fill:none;stroke:#000000;stroke-linecap:square;"/>
   </g>
   <g id="line2d_8">
    <path clip-path="url(#p95a2ee5e18)" d="
M0 0" style="fill:none;stroke:#0000ff;stroke-linecap:square;"/>
   </g>
   <g id="line2d_9">
    <path clip-path="url(#p95a2ee5e18)" d="
M0 0" style="fill:none;stroke:#008000;stroke-linecap:square;"/>
   </g>
   <g id="line2d_10">
    <path clip-path="url(#p95a2ee5e18)" d="
M31.1906 171.38
L32.1079 147.832
L33.0251 158.391
L33.9424 211.986
L34.8597 224.712
L35.7769 227.149
L36.6942 232.079
L37.6114 230.149
L38.5287 213.36
L39.446 228.088
M41.2805 226.734
L42.1977 226.408
L43.115 213.935
L44.0323 207.46
L44.9495 191.214
L45.8668 202.459
L46.784 206.183
L47.7013 201.554
L48.6186 237.577
L49.5358 237.765
L50.4531 209.066
L51.3704 191.56
L52.2876 198.458
L53.2049 217.461
L54.1221 211.669
L55.0394 211.846
L55.9567 226.339
L56.8739 231.819
M58.7084 242.474
L59.6257 230.825
L60.543 227.743
M62.3775 220.309
L63.2947 215.856
L64.212 219.836
L65.1293 241.372
L66.0465 206.501
L66.9638 221.102
L67.881 200.75
L68.7983 203.946
L69.7156 201.249
L70.6328 213.402
L71.5501 187.23
L72.4673 186.734
L73.3846 194.188
L74.3019 174.201
L75.2191 185.262
L76.1364 191.89
L77.9709 212.621
L78.8882 233.235
L79.8054 213.247
L80.7227 219.107
L81.6399 238.052
L82.5572 200.447
L83.4745 205.219
L85.309 187.348
L86.2262 215.131
L87.1435 213.97
L88.0608 191.12
L88.978 197.162
L89.8953 186.356
L90.8125 164.546
L91.7298 177.23
L92.6471 203.48
L93.5643 188.854
L94.4816 180.041
L95.3988 165.605
L96.3161 145.881
L97.2334 216.016
L98.1506 224.756
L99.0679 197.663
L99.9851 202.905
L100.902 184.593
L101.82 237.985
L102.737 227.717
L103.654 195.72
L104.571 156.686
L105.489 147.569
L106.406 164.147
L107.323 208.059
L108.24 205.504
L109.158 230.738
L110.075 172.992
L110.992 214.239
L111.91 187.446
L112.827 187.521
L113.744 189.807
L114.661 146.237
L115.579 142.173
L116.496 142.572
L117.413 187.983
L118.33 169.303
L119.248 190.547
L120.165 207.489
L121.082 166.588
L121.999 179.755
L122.917 195.666
L123.834 154.553
L124.751 153.724
L125.668 163.319
L126.586 187.552
L127.503 177.081
L128.42 160.652
L129.337 138.374
L130.255 139.574
L131.172 153.343
L132.089 161.488
L133.007 152.591
L133.924 133.593
L134.841 186.412
L135.758 184.445
L136.676 121.174
L137.593 94.1769
L138.51 109.739
L139.427 115.63
L140.345 184.344
L141.262 114.213
L142.179 118.001
L143.096 100.043
L144.014 107.942
L145.848 120.582
L146.765 137.414
L147.683 162.606
L148.6 119.359
L149.517 102.736
L150.434 109.235
L151.352 125.638
L152.269 116.544
L153.186 133.387
L154.104 181.346
L155.021 145.56
L155.938 137.55
L156.855 137.232
L157.773 148.588
L158.69 138.709
L159.607 193.406
L160.524 171.04
L161.442 169.662
L162.359 189.203
L163.276 144.843
L164.193 173.856
L165.111 193.494
L166.028 191.091
L166.945 163.054
L167.862 167.143
L168.78 158.892
L169.697 158.427
L170.614 191.497
L171.531 127.79
L172.449 201.891
L173.366 170.556
L174.283 133.959
L175.2 124.912
L176.118 156.241
L177.035 104.798
L177.952 151.558
L178.87 164.613
L179.787 169.925
L180.704 126.588
L181.621 118.455
L182.539 118.852
L183.456 125.72
L184.373 130.795
L185.29 129.624
L186.208 124.357
L187.125 124.417
L188.042 140.763
L188.959 168.838
L189.877 145.33
L190.794 134.116
L191.711 138.823
L192.628 127.998
L193.546 133.99
L194.463 137.654
L195.38 144.704
L196.297 150.236
L197.215 162.987
L198.132 166.299
L199.049 143.085
L199.967 151.95
L200.884 156.462
L201.801 147.976
L202.718 138.386
L203.636 141.044
L204.553 141.432
L205.47 143.083
L206.387 137.063
L207.305 122.719
L208.222 131.312
L209.139 138.498
L210.056 141.343
L210.974 143.485
L211.891 148.092
L212.808 144.657
L213.725 135.637
L214.643 137.182
L215.56 147.092
L217.394 181.21
L218.312 147.491
L219.229 144.609
L220.146 148.5
L221.064 147.114
L221.981 146.948
L222.898 146.996
L223.815 166.943
L224.733 139.775
L225.65 142.276
L226.567 152.503
L227.484 145.649
L228.402 145.74
L229.319 147.781
L230.236 165.955
L231.153 173.927
L232.071 166.249
L232.988 175.78
L233.905 153.261
L234.822 139.74
L235.74 144.062
L236.657 149.86
L237.574 151.551
L238.491 154.424
L239.409 154.161
L240.326 151.05
L241.243 155.903
L242.16 168.113
L243.078 169.535
L243.995 157.041
L244.912 164.554
L245.83 139.344
L246.747 147.655
L247.664 157.695
L248.581 162.154
L249.499 149.343
L250.416 138.287
L251.333 150.498
L252.25 156.726
L253.168 158.571
L254.085 152.429
L255.002 163.579
L256.837 135.745
L257.754 136.452
L258.671 146.666
L259.588 154.744
L260.506 152.172
L261.423 148.589
L262.34 154.411
L263.257 141.399
L264.175 146.001
L265.092 145.019
L266.009 152.762
L266.927 154.324
L267.844 153.423
L268.761 156.796
L269.678 158.825
L270.596 161.638
L271.513 181.051
L272.43 204.377
L273.347 216.597
L274.265 174.593
L275.182 153.065
L276.099 147.835
L277.016 157.383
L277.934 152.282
L278.851 159.297
L279.768 155.354
L280.685 158.324
L281.603 166.374
L282.52 165.067
L283.437 186.614
L284.354 187.534
L285.272 230.592
L286.189 206.298
L287.106 171.757
L288.024 173.888
L288.941 146.289
L289.858 150.714
L290.775 231.167
L291.693 211.621
L292.61 171.19
L293.527 152.707
L294.444 166.037
L295.362 164.17
L296.279 162.872
L297.196 174.658
L298.113 168.798
L299.031 175.628
L299.948 171.361
L300.865 175.761
L301.782 138.552
L303.617 153.114
L304.534 166.832
L305.451 164.599
L306.369 154.795
L307.286 164.357
L308.203 165.28
L309.12 169.933
L310.955 217.373
L311.872 232.4
L312.79 235.839
L313.707 237.324
L314.624 209.201
L315.541 218.053
L316.459 207.999
L317.376 209.12
L318.293 233.13
L319.21 224.993
L320.128 239.725
L321.045 214.685
L321.962 202.42
L322.879 169.878
L323.797 169.251
L324.714 175.228
L325.631 166.424
L326.548 171.942
L327.466 183.963
L328.383 203.222
L329.3 181.195
L330.217 203.409
L331.135 213.67
L332.052 173.51
L332.969 176.827
L333.887 193.496
L334.804 185.287
L335.721 201.62
L336.638 228.578
L337.556 220.283
L338.473 194.046
L339.39 224.44
L340.307 236.512
L341.225 184.938
L342.142 172.968
L343.059 172.215
L343.976 200.022
L344.894 220.569
L345.811 188.956
L346.728 175.598
L347.645 201.856
L349.48 243.11
L350.397 241.75
L351.314 223.781
L352.232 220.5
L353.149 213.473
L354.066 201.547
L354.984 233.84
L355.901 210.928
L356.818 228.525
L357.735 240.53
L358.653 233.614
L359.57 224.591
M361.404 226.293
L362.322 241
L363.239 242.179
L364.156 216.467
L365.073 184.433
L365.073 184.433" style="fill:none;stroke:#ff0000;stroke-linecap:square;"/>
   </g>
   <g id="line2d_11">
    <path clip-path="url(#p95a2ee5e18)" d="
M31.1906 236.978
L32.1079 212.059
L33.0251 220.402
L33.9424 187.797
L34.8597 206.877
L35.7769 241.534
L36.6942 226.273
L37.6114 216.315
L38.5287 233.2
L39.446 206.592
L41.2805 226.405
L42.1977 222.162
L43.115 196.759
L44.0323 203.403
L44.9495 199.427
L45.8668 217.999
L46.784 206.776
L47.7013 216.905
L48.6186 213.887
L49.5358 198.065
L50.4531 218.698
L51.3704 243.565
L52.2876 241.674
M55.0394 223.082
L55.9567 221.5
L56.8739 223.776
L57.7912 216.977
L58.7084 219.884
L59.6257 199.849
L60.543 182.94
L61.4602 193.11
L62.3775 207.979
L63.2947 204.985
L64.212 214.821
L65.1293 231.652
L66.0465 225.062
L66.9638 238.409
L67.881 228.028
L68.7983 222.757
L69.7156 240.2
L70.6328 226.555
L71.5501 244.496
L72.4673 210.054
L73.3846 208.136
L74.3019 234.617
L75.2191 207.488
L76.1364 201.403
L77.0536 202.936
L77.9709 187.99
L78.8882 195.468
L79.8054 217.684
L80.7227 188.915
L81.6399 213.106
L82.5572 217.988
L83.4745 184.101
L84.3917 162.415
L85.309 184.829
L86.2262 197.671
L87.1435 223.701
L88.0608 241.646
M89.8953 219.163
L90.8125 215.328
L91.7298 220.429
L92.6471 202.762
L93.5643 202.107
L94.4816 185.056
L95.3988 187.905
L96.3161 191.89
L97.2334 201.064
M99.0679 224.027
L99.9851 198.153
L100.902 165.174
L101.82 186.74
L102.737 167.367
L103.654 209.677
L104.571 218.612
L105.489 184.861
L106.406 182.736
L107.323 232.63
L108.24 196.222
L109.158 167.446
L110.075 213.705
L110.992 218.608
L111.91 176.493
L112.827 236.366
L113.744 201.966
L114.661 235.402
L115.579 234.877
L116.496 202.597
L117.413 165.928
L118.33 148.286
L119.248 152.62
L120.165 213.3
L121.082 173.603
L121.999 216.267
L123.834 145.824
L124.751 182.751
L125.668 156.223
L126.586 177.262
L127.503 131.825
L128.42 141.211
L129.337 142.286
L130.255 133.285
L131.172 141.893
L132.089 147.709
L133.007 150.574
L133.924 158.8
L134.841 108.177
L135.758 121.956
L136.676 139.587
L137.593 147.79
L138.51 211.946
L139.427 134.496
L141.262 170.59
L142.179 182.776
L143.096 232.36
L144.014 189.773
L144.931 186.562
L145.848 196.082
L147.683 135.022
L148.6 115.687
L149.517 131.94
L150.434 137.702
L151.352 151.603
L152.269 126.843
L153.186 163.887
L154.104 131.749
L155.021 130.124
L155.938 137.677
L156.855 149.212
L157.773 140.759
L158.69 120.618
L159.607 122.76
L160.524 138.104
L161.442 159.118
L162.359 158.099
L163.276 137.344
L164.193 138.724
L165.111 138.128
L166.028 140.929
L166.945 156.189
L167.862 153.811
L168.78 163.828
L169.697 172.494
L170.614 222.17
L171.531 166.866
L172.449 180.163
L173.366 205.158
L174.283 207.084
L175.2 151.848
L176.118 152.986
L177.035 153.443
L177.952 177.021
L178.87 173.84
L179.787 172.16
L180.704 213.606
L182.539 209.209
L183.456 168.683
L184.373 189.16
L185.29 140.657
L186.208 159.938
L187.125 168.962
L188.042 194.428
L188.959 164.843
L189.877 129.027
L190.794 145.698
L191.711 144.565
L192.628 147.839
L193.546 132.869
L194.463 140.694
L195.38 151.165
L196.297 149.299
L197.215 144.724
L198.132 161.624
L199.049 167.17
L199.967 146.458
L200.884 162.894
L201.801 143.118
L202.718 140.148
L203.636 140.003
L204.553 145.602
L205.47 140.679
L206.387 170.94
L207.305 185.203
L208.222 172.948
L209.139 140.219
L210.056 145.824
L210.974 158.932
L211.891 161.925
L212.808 166.371
L213.725 154.058
L214.643 152.381
L215.56 154.346
L216.477 162.535
L217.394 181.009
L218.312 153.966
L219.229 156.936
L220.146 158.178
L221.064 161.49
L221.981 169.362
L222.898 165.382
L223.815 159.57
L224.733 156.595
L226.567 168.977
L227.484 165.114
L228.402 162.049
L229.319 169.468
L230.236 225.639
L231.153 234.28
L232.988 157.683
L233.905 156.899
L235.74 163.465
L236.657 174.598
L237.574 152.198
L238.491 158.967
L239.409 149.169
L240.326 150.749
L241.243 164.323
L242.16 164.273
L243.078 168.041
L243.995 167.973
L244.912 166.146
L245.83 193.275
L246.747 165.456
L247.664 165.793
L248.581 165.377
L249.499 169.365
L250.416 189.156
L251.333 169.429
L252.25 170.662
L253.168 159.248
L254.085 166.253
L255.002 166.552
L255.919 167.616
L257.754 183.78
L258.671 166.189
L259.588 157.079
L260.506 149.983
L261.423 157.974
L262.34 163.564
L263.257 167.865
L264.175 169.243
L265.092 172.268
L266.009 172.692
L266.927 179.676
L267.844 176.383
L268.761 174.295
L269.678 179.725
L270.596 181.691
L271.513 170.524
L272.43 156.783
L273.347 162.93
L274.265 170.219
L275.182 175.585
L276.099 179.475
L277.016 173.564
L277.934 168.944
L278.851 181.328
L279.768 203.23
L280.685 182.293
L281.603 157.957
L282.52 156.731
L283.437 214.15
M286.189 185.894
L287.106 173.637
L288.024 171.103
L288.941 191.479
L289.858 178.756
L290.775 168.347
L291.693 173.279
L292.61 211.068
L293.527 224.375
L294.444 209.928
L295.362 192.235
L296.279 195.443
L297.196 200.216
L298.113 217.995
L299.031 208.881
L299.948 212.969
L300.865 188.045
L301.782 205.116
L302.7 196.979
L303.617 171.789
L304.534 210.478
L305.451 242.232
L306.369 209.442
L307.286 223.515
L308.203 233.263
L309.12 215.048
L310.038 205.54
L310.955 200.218
L311.872 186.057
L312.79 185.667
L313.707 185.056
L314.624 222.241
L315.541 211.627
L316.459 191.707
L317.376 180.905
L318.293 187.961
L319.21 225.445
M321.045 233.291
L321.962 228.367
L322.879 189.228
L323.797 187.266
L324.714 180.39
L325.631 216.34
L326.548 188.388
L327.466 204.473
L328.383 201.698
L329.3 230.922
L330.217 213.143
L331.135 206.566
L332.052 207.258
L332.969 206.593
L333.887 221.246
L334.804 222.921
L335.721 212.72
M337.556 201.672
L338.473 203.844
L339.39 192.143
L340.307 187.423
L341.225 201.013
L342.142 197.561
L343.059 236.538
L343.976 211.679
L344.894 199.67
L345.811 194.922
L346.728 180.209
L347.645 218.728
L348.563 243.403
L349.48 226.786
L350.397 230.667
M352.232 232.412
L353.149 239.02
L354.066 233.822
L354.984 227.368
L355.901 224.048
M357.735 234.57
L358.653 194.304
L359.57 217.443
L360.487 230.638
L361.404 223.343
L362.322 207.137
L363.239 224.703
L364.156 239.646
L365.073 234.676
L365.073 234.676" style="fill:none;stroke:#00bfbf;stroke-linecap:square;"/>
   </g>
   <g id="line2d_12">
    <path clip-path="url(#p95a2ee5e18)" d="
M31.1906 243.632
L33.0251 227.705
L33.9424 214.287
L34.8597 229.455
L35.7769 218.918
L36.6942 234.79
L37.6114 195.452
L38.5287 201.749
L39.446 212.178
L40.3632 199.555
L41.2805 211.142
L42.1977 239.086
L43.115 227.559
L44.0323 184.15
L44.9495 214.383
L45.8668 207.691
L46.784 226.305
L47.7013 229.509
L48.6186 218.07
L49.5358 211.317
L50.4531 219.733
M52.2876 225.924
L54.1221 241.583
M55.9567 239.083
L56.8739 232.896
L57.7912 222.324
M59.6257 233.243
L60.543 212.67
L62.3775 233.204
L63.2947 234.842
L64.212 227.482
L65.1293 244.312
L66.0465 240.922
L66.9638 227.809
L67.881 205.641
L68.7983 230.763
L69.7156 224.885
L70.6328 236.746
L71.5501 216.333
M73.3846 243.591
L74.3019 241.613
L75.2191 237.717
L76.1364 219.535
L77.0536 214.457
L77.9709 220.274
L78.8882 168.879
L79.8054 179.182
L80.7227 233.338
L81.6399 228.29
L82.5572 199.167
L83.4745 216.17
L84.3917 218.93
L85.309 198.283
L86.2262 190.474
L87.1435 223.027
L88.0608 216.21
L88.978 214.874
L90.8125 183.137
L91.7298 225.32
L92.6471 192.143
L93.5643 172.177
L94.4816 180.941
L95.3988 195.271
L96.3161 231.672
L97.2334 200.66
L98.1506 160.361
L99.0679 169.047
L99.9851 162.191
L100.902 170.481
L101.82 142.026
L102.737 156.689
L103.654 193.2
L104.571 199.933
L105.489 157.065
L106.406 156.56
L107.323 218.021
L108.24 215.934
L109.158 173.181
L110.075 165.465
L111.91 241.654
L112.827 206.091
L113.744 235.239
L114.661 233.578
L115.579 202.905
L117.413 228.465
L118.33 185.891
L119.248 166.355
L120.165 188.429
L121.082 142.515
L121.999 163.881
L122.917 168.901
L123.834 220.925
L124.751 198.003
L125.668 150.508
L126.586 128.069
L127.503 158.854
L128.42 150.927
L129.337 131.605
L130.255 134.26
L131.172 183.252
L132.089 214.398
L133.007 199.004
L133.924 124.915
L134.841 122.845
L135.758 112.774
L136.676 138.963
L137.593 222.137
L138.51 221.454
L139.427 197.565
L140.345 206.388
L141.262 188.805
L142.179 149.204
L143.096 196.463
L144.014 90.6839
L144.931 162.205
L145.848 153.511
L146.765 106.676
L147.683 118.049
L148.6 113.536
L149.517 198.497
L150.434 141.072
L151.352 122.286
L152.269 125.627
L153.186 117.996
L154.104 123.224
L155.021 143.806
L155.938 161.432
L156.855 227.851
L157.773 152.766
L158.69 128.751
L159.607 169.58
M161.442 183.524
L162.359 170.661
L163.276 137.39
L164.193 199.425
L165.111 177.555
L166.028 193.988
L166.945 163.399
L167.862 137.273
L168.78 203.11
L169.697 187.061
L170.614 224.712
L171.531 175.797
L172.449 233.703
L173.366 156.139
L174.283 212.918
L175.2 140.876
L176.118 150.653
L177.035 180.827
L177.952 188.096
L178.87 156.967
L179.787 121.328
L180.704 128.607
L181.621 137.668
L182.539 143.04
L183.456 132.909
L184.373 143.179
L185.29 123.252
L186.208 145.927
L187.125 177.224
L188.042 180.218
L188.959 134.068
L189.877 140.197
L190.794 169.17
L191.711 182.039
L192.628 144.283
L193.546 137.582
L194.463 156.213
L195.38 181.301
L196.297 148.024
L197.215 141.882
L198.132 148.023
L199.049 155.495
L199.967 134.568
L200.884 135.465
L201.801 133.896
L202.718 136.153
L203.636 142.193
L205.47 156.081
L206.387 148.516
L207.305 145.074
L208.222 122.746
L209.139 128.872
L210.056 138.04
L210.974 148.409
L211.891 144.287
L212.808 145.255
L213.725 136.127
L214.643 138.863
L215.56 145.541
L216.477 144.252
L217.394 138.663
L218.312 145.863
L219.229 159.19
L220.146 201.229
L221.064 161.17
L221.981 166.662
L222.898 159.683
L223.815 169.195
L224.733 162.769
L225.65 149.825
L226.567 148.888
L227.484 152.653
L228.402 152.266
L229.319 161.183
L230.236 174.31
L231.153 151.232
L232.071 154.31
L233.905 182.757
L234.822 212.667
L235.74 170.862
L236.657 158.217
L237.574 156.158
L238.491 157.455
L239.409 156.02
L240.326 158.827
L241.243 160.701
L242.16 154.282
L243.078 151.442
L243.995 159.073
L244.912 151.481
L245.83 150.045
L246.747 149.232
L247.664 157.926
L248.581 182.933
L249.499 146.394
L250.416 158.128
L251.333 217.386
L252.25 176.503
L253.168 185.377
L254.085 182.034
L255.002 159.599
L255.919 156.618
L256.837 167.946
L257.754 146.297
L258.671 143.194
L259.588 145.043
L260.506 206.848
L261.423 234.483
L262.34 160.136
L263.257 151.949
L264.175 155.908
L266.009 167.409
L266.927 160.87
L267.844 159.422
L268.761 172.797
L269.678 169.17
L270.596 178.459
L271.513 168.547
L272.43 161.27
L273.347 161.883
L274.265 159.043
L275.182 155.389
L276.099 164.057
L277.016 167.359
L277.934 164.06
L278.851 167.628
L279.768 170.259
L280.685 165.945
L281.603 170.978
L282.52 170.846
L283.437 201.143
L284.354 218.399
L285.272 200.3
L286.189 198.872
L287.106 173.578
L288.024 220.323
L288.941 201.682
L289.858 188.642
L290.775 194.106
L291.693 170.383
L292.61 164.38
L293.527 163.141
L294.444 176.712
L295.362 183.264
L296.279 178.971
L297.196 163.571
L298.113 155.481
L299.031 164.929
L299.948 166.269
L300.865 172.159
L301.782 223.859
L302.7 243.038
L303.617 217.346
L304.534 229.693
L305.451 194.641
L306.369 166.419
L307.286 176.598
L308.203 184.061
L309.12 225.248
L310.038 192.198
L310.955 187.931
L311.872 191.498
L312.79 181.466
L313.707 189.104
L314.624 188.932
L315.541 227.082
L316.459 228.741
L317.376 201.979
L318.293 239.645
L319.21 229.176
L320.128 203.94
L321.045 208.59
L321.962 240.707
L322.879 218.892
L323.797 213.213
L324.714 193.635
L325.631 212.246
M331.135 201.165
L332.052 189.668
L332.969 198.559
L333.887 216.705
L334.804 228.572
L335.721 205.662
L336.638 207.677
M338.473 240
L339.39 224.296
L340.307 228.23
L341.225 239.009
L342.142 242.252
L343.059 229.689
L343.976 211.156
L344.894 226.712
L345.811 235.727
L346.728 234.937
L347.645 226.02
L348.563 224.752
L349.48 238.648
L350.397 231.415
L351.314 205.759
L352.232 203.091
L353.149 226.431
L354.066 242.074
L354.984 231.995
L355.901 212.272
L356.818 238.803
L357.735 235.135
L358.653 205.668
L359.57 170.463
L360.487 230.219
L361.404 227.572
L362.322 231.973
M364.156 236.89
L365.073 231.536
L365.073 231.536" style="fill:none;stroke:#bf00bf;stroke-linecap:square;"/>
   </g>
   <g id="line2d_13">
    <path clip-path="url(#p95a2ee5e18)" d="
M31.1906 212.085
L32.1079 213.023
L33.0251 233.304
L33.9424 236.62
L34.8597 211.219
L35.7769 219.229
L36.6942 218.02
L37.6114 222.654
L38.5287 233.263
M40.3632 216.638
L41.2805 222.103
M43.115 236.568
L44.0323 233.813
L44.9495 240.56
L45.8668 233.55
L46.784 238.633
M48.6186 206.279
L49.5358 233.732
L50.4531 235.784
L51.3704 194.867
L52.2876 236.92
L53.2049 240.58
L54.1221 241.605
L55.0394 235.362
L55.9567 234.973
L56.8739 236.732
M58.7084 218.987
L59.6257 198.619
L60.543 182.766
L61.4602 196.362
L62.3775 223.424
L63.2947 219.309
L64.212 217.82
L65.1293 217.448
L66.0465 225.961
L66.9638 209.024
L67.881 201.027
L68.7983 191.755
L69.7156 192.313
L70.6328 182.997
L72.4673 193.626
L73.3846 221.637
L75.2191 237.976
L76.1364 233.668
M77.9709 226.465
L78.8882 223.151
L79.8054 215.372
M82.5572 201.911
L83.4745 193.804
L84.3917 202.013
L85.309 175.56
L86.2262 214.263
L87.1435 217.881
L88.0608 227.303
L88.978 233.56
L89.8953 235.736
L90.8125 242.632
M92.6471 230.084
L93.5643 223.826
L94.4816 244.337
L95.3988 216.298
L96.3161 243.266
L97.2334 199.794
L98.1506 225.911
M100.902 200.914
L101.82 235.066
L102.737 207.136
L103.654 222.929
L104.571 216.409
L105.489 205.718
L106.406 232.003
M110.075 212.389
L110.992 228.734
L111.91 226.578
L112.827 178.03
L113.744 181.309
L114.661 187.776
L115.579 211.626
L116.496 186.593
L117.413 191.893
L118.33 204.783
L119.248 188.695
L120.165 205.606
L121.082 217.406
L121.999 183.755
L122.917 193.654
L123.834 152.254
L124.751 202.886
L125.668 146.929
L126.586 191.613
L127.503 200.365
L128.42 178.283
L129.337 178.645
L130.255 118.187
L131.172 194.368
L132.089 210.461
L133.007 133.12
L133.924 119.997
L134.841 176.056
L135.758 215.182
L136.676 168.949
L137.593 148.545
L138.51 214.868
L139.427 149.324
L140.345 160.298
L141.262 140.252
L142.179 176.576
L143.096 140.607
L144.014 131.185
L144.931 151.148
L145.848 200.96
L146.765 175.236
L147.683 196.012
L148.6 164.31
L149.517 137.252
L150.434 138.063
L151.352 148.979
L152.269 154.457
L154.104 209.088
L155.021 229.511
L155.938 169.233
L156.855 198.608
L157.773 129.653
L158.69 143.512
L159.607 169.116
L160.524 146.486
L161.442 191.164
L162.359 188.507
L163.276 179.661
L164.193 148.227
L165.111 210.88
L166.028 210.929
L166.945 209.574
L167.862 161.694
L168.78 175.954
L169.697 157.979
L170.614 197.98
L171.531 129.325
L172.449 146.913
L173.366 158.223
L174.283 193.13
L175.2 202.788
L176.118 140.079
L177.035 161.024
L177.952 171.117
L178.87 171.709
L179.787 146.688
L180.704 181.511
L181.621 132.889
L182.539 121.638
L183.456 148.967
L184.373 128.196
L185.29 204.472
L186.208 196.354
L187.125 134.221
L188.959 151.562
L189.877 150.22
L190.794 137.07
L191.711 132.966
L192.628 136.823
L193.546 145.65
L194.463 155.761
L195.38 181.928
L196.297 146.42
L197.215 140.281
L198.132 141.78
L199.049 151.785
L199.967 155.283
L200.884 157.472
L201.801 153.791
L202.718 193.339
L203.636 142.604
L204.553 140.457
L205.47 155.099
L206.387 160.368
L207.305 153.934
L208.222 163.971
L209.139 154.584
L210.056 151.513
L210.974 163.515
L211.891 156.297
L212.808 155.071
L213.725 157.824
L214.643 146.886
L215.56 145.441
L216.477 147.892
L217.394 146.364
L218.312 156.695
L219.229 155.838
L220.146 157.249
L221.064 153.19
L221.981 151.979
L222.898 156.91
L223.815 166.597
L224.733 172.085
L225.65 164.689
L226.567 167.514
L227.484 158.801
L228.402 189.127
L229.319 159.315
L230.236 161.278
L231.153 164.93
L232.071 166.018
L232.988 155.917
L233.905 157.967
L234.822 151.703
L235.74 156.945
L236.657 170.08
L237.574 167.25
L238.491 151.57
L239.409 155.001
L240.326 161.806
L241.243 161.728
L242.16 160.221
L243.078 169.431
L243.995 170.661
L244.912 169.06
L245.83 166.379
L246.747 167.152
L247.664 172.871
L248.581 171.777
L249.499 194.047
L250.416 175.625
L251.333 168.262
L252.25 166.869
L253.168 157.051
L254.085 154.659
L255.002 156.335
L255.919 159.038
L256.837 159.374
L257.754 165.052
L258.671 169.345
L259.588 172.301
L260.506 171.212
L261.423 177.838
L262.34 175.389
L263.257 182.078
L264.175 175.567
L265.092 175.003
L266.009 173.781
L266.927 216.026
L267.844 177.652
L268.761 158.99
L269.678 156.766
L270.596 166.661
L271.513 168.534
L272.43 164.776
L273.347 171.003
L274.265 171.703
L275.182 176.324
L276.099 181.585
L277.016 170.538
L277.934 171.133
L278.851 173.876
L279.768 169.12
L280.685 180.744
L281.603 179.363
L282.52 181.636
L283.437 180.808
L284.354 228.641
L285.272 239.828
M288.024 201.138
L288.941 180.639
L289.858 224.55
L290.775 210.147
L291.693 179.772
L292.61 175.73
L293.527 173.428
L294.444 192.019
L295.362 242.006
L296.279 190.14
L297.196 171.85
L298.113 185.244
L299.031 176.841
L299.948 186.806
L300.865 194.794
L301.782 189.936
L302.7 213.053
L303.617 179.203
L304.534 157.253
L305.451 166.341
L306.369 166.282
L307.286 171.714
L308.203 185.406
L309.12 208.114
L310.038 179.418
L310.955 159.092
L311.872 179.871
L312.79 222.278
L314.624 237.378
L315.541 239.462
L317.376 186.256
L318.293 182.197
L319.21 193.914
L320.128 217.63
L321.045 225.965
L321.962 183.56
L322.879 167.55
L324.714 235.455
L325.631 236.886
L326.548 229.703
L327.466 195.406
L328.383 208.731
L329.3 225.23
L330.217 192.473
L331.135 212.849
L332.052 210.818
L332.969 170.295
L333.887 171.073
L334.804 202.684
L335.721 227.768
L336.638 215.051
L337.556 181.556
L338.473 181.984
L339.39 194.405
L340.307 201.576
L341.225 201.965
L342.142 183.002
L343.059 187.365
L343.976 187.239
L344.894 187.704
L345.811 193.074
L346.728 197.602
L347.645 194.995
L348.563 203.562
L349.48 194.488
L350.397 214.934
L352.232 211.366
L353.149 203.162
L354.984 189.869
L355.901 211.465
L356.818 179.024
L357.735 173.774
L358.653 180.492
L360.487 195.873
L361.404 210.354
L362.322 233.015
L363.239 220.64
M365.073 210.709" style="fill:none;stroke:#bfbf00;stroke-linecap:square;"/>
   </g>
   <g id="line2d_14">
    <path clip-path="url(#p95a2ee5e18)" d="
M31.1906 172.737
L32.1079 184.895
L33.0251 179.308
L33.9424 171.795
L35.7769 206.269
L36.6942 213.001
L37.6114 201.757
L38.5287 208.376
L39.446 233.936
L40.3632 198.005
L41.2805 203.997
L42.1977 173.246
L43.115 165.161
L44.0323 195.748
L44.9495 204.718
L45.8668 183.031
L46.784 219.082
M49.5358 243.598
L50.4531 229.957
L51.3704 244.389
L52.2876 231.587
L53.2049 226.629
L54.1221 242.638
L55.0394 197.675
L55.9567 184.663
L56.8739 167.448
L57.7912 211.264
L58.7084 188.526
L59.6257 227.354
L60.543 221.067
L61.4602 193.388
L62.3775 188.509
L63.2947 187.196
L64.212 188.287
L65.1293 171.961
L66.0465 217.851
L66.9638 239.17
L67.881 214.009
L68.7983 230.913
L69.7156 236.265
L70.6328 212.601
L71.5501 219.665
L72.4673 229.838
L73.3846 197.961
L74.3019 197.439
L75.2191 218.929
L76.1364 206.666
L77.0536 224.132
M78.8882 228.918
L79.8054 201.889
L80.7227 166.33
L81.6399 219.916
L82.5572 195.517
L83.4745 186.664
L84.3917 176.317
L85.309 214.214
L86.2262 239.788
L87.1435 200.751
L88.0608 216.088
L88.978 190.426
L89.8953 183.249
L90.8125 209.033
L91.7298 164.202
L92.6471 159.867
L93.5643 161.531
L94.4816 170.742
L95.3988 200.924
L97.2334 218.394
M99.0679 216.868
L99.9851 235.245
L100.902 237.205
M102.737 215.467
L103.654 225.918
L104.571 192.514
L105.489 145.22
L106.406 179.601
L107.323 158.029
L108.24 187.604
L109.158 227.687
L110.075 169.338
L110.992 202.537
L111.91 213.824
L112.827 228.992
L113.744 158.647
L114.661 135.314
L115.579 152.579
L116.496 149.86
L117.413 180.261
L118.33 150.935
L119.248 148.088
L120.165 128.522
L121.082 126.337
L121.999 150.845
L122.917 143.085
L123.834 196.386
L124.751 169.42
L125.668 193.896
L126.586 154.909
L127.503 124.871
L128.42 205.59
L129.337 168.776
L130.255 169.119
L131.172 191.61
L132.089 153.468
L133.007 138.957
L133.924 143.796
L134.841 171.387
L135.758 163.255
L136.676 183.402
L137.593 244.383
L138.51 129.104
L139.427 162.404
L140.345 129.087
L141.262 200.4
L142.179 145.119
L143.096 132.738
L144.014 203.575
L144.931 223.61
L145.848 154.708
L146.765 119.147
L147.683 121.976
L148.6 124.16
L149.517 135.124
L150.434 107.423
L151.352 115.5
L152.269 124.849
L153.186 128.853
L154.104 147.01
L155.021 179.793
L155.938 148.417
L156.855 167.564
L157.773 126.758
L158.69 121.016
L159.607 138.42
L160.524 183.693
L161.442 187.523
L162.359 176.404
L163.276 146.999
L164.193 213.528
L165.111 216.931
L166.028 181.98
L166.945 131.163
L167.862 129.971
L168.78 139.496
L169.697 143.553
L170.614 140.578
L171.531 171.222
L172.449 152.38
L173.366 170.503
L174.283 225.261
L175.2 134.446
L176.118 151.103
L177.035 159.718
L177.952 208.285
L178.87 159.634
L179.787 129.175
L180.704 152.104
L181.621 134.926
L182.539 120.174
L183.456 127.336
L184.373 141.587
L185.29 146.788
L186.208 125.65
L187.125 137.326
L188.042 125.502
L188.959 143.903
L189.877 149.053
L190.794 139.705
L191.711 140.092
L192.628 136.987
L193.546 134.391
L194.463 130.854
L195.38 141.475
L196.297 138.891
L197.215 146.995
L198.132 166.211
L199.049 151.207
L199.967 141.974
L200.884 139.202
L201.801 154.481
L202.718 157.901
L203.636 158.481
L204.553 176.369
L205.47 164.711
L206.387 158.624
L207.305 161.501
L208.222 163.852
L209.139 184.373
L210.056 189.993
L210.974 165.443
L211.891 179.097
L212.808 151.982
L213.725 152.875
L214.643 169.2
L215.56 150.553
L216.477 154.852
L217.394 154.878
L218.312 157.563
L219.229 155.21
L220.146 155.654
L221.064 159.652
L221.981 162.424
L222.898 161.655
L223.815 158.47
L224.733 161.343
L225.65 157.412
L226.567 156.803
L227.484 149.386
L228.402 150.267
L229.319 153.43
L230.236 162.669
L231.153 161.421
L232.988 173.717
L233.905 165.706
L234.822 177.128
L235.74 161.329
L236.657 171.53
L237.574 171.369
L238.491 169.43
L239.409 165.168
L240.326 163.971
L241.243 167.608
L242.16 165.298
L243.078 186.622
L243.995 170.061
L244.912 172.995
L245.83 165.329
L246.747 160.425
L247.664 146.619
L248.581 153.794
L249.499 171.594
L250.416 171.728
L251.333 161.054
L252.25 160.747
L253.168 156.753
L254.085 182.104
L255.002 166.595
L255.919 146.753
L257.754 156.454
L258.671 159.732
L259.588 178.147
L260.506 157.475
L262.34 164.976
L263.257 159.321
L264.175 154.591
L265.092 145.865
L266.009 153.103
L266.927 162.51
L267.844 159.098
L268.761 164.262
L269.678 162.024
L270.596 160.355
L271.513 172.522
L272.43 176.725
L273.347 178.169
L274.265 174.324
L275.182 217.683
L276.099 179.813
L277.016 179.975
L277.934 177.98
L278.851 167.821
L279.768 172.798
L280.685 174.238
L281.603 172.601
L282.52 167.519
L283.437 167.96
L284.354 151.821
L285.272 151.894
L286.189 147.7
L287.106 150.099
L288.024 153.361
L288.941 153.537
L289.858 163.265
L290.775 167.191
L291.693 168.571
L292.61 168.388
L293.527 204.418
L294.444 184.204
L295.362 191.451
L296.279 194.517
L297.196 174.021
L298.113 165.289
L299.031 186.658
L299.948 202.268
L300.865 177.292
L301.782 236.068
M303.617 226.491
L304.534 226.585
L305.451 198.245
L306.369 207.882
L307.286 231.702
L308.203 195.88
L309.12 184.128
L310.038 181.394
L310.955 201.105
L311.872 187.775
L312.79 196.87
L313.707 188.108
L314.624 201.442
L315.541 192.42
L317.376 214.984
L318.293 243.206
L319.21 227.49
L320.128 230.874
L321.045 223.953
L321.962 225.646
L322.879 223.007
L323.797 216.235
L324.714 204.694
L325.631 227.944
L326.548 221.33
L327.466 222.07
L328.383 214.949
L329.3 232.379
L330.217 198.02
L331.135 175.32
L332.052 211.823
L332.969 225.928
L333.887 209.677
L334.804 195.814
L335.721 209.44
L336.638 218.376
L337.556 232.823
L338.473 231.224
M340.307 198.263
L341.225 222.613
L342.142 232.932
L343.976 204.5
L344.894 224.423
L345.811 210.217
L346.728 235.93
L347.645 217.607
L348.563 240.039
L349.48 219.691
L350.397 230.017
L351.314 232.477
M353.149 231.072
L354.066 221.398
L354.984 215.756
L355.901 173.321
L356.818 168.373
L357.735 207.5
L358.653 235.401
L359.57 235.025
L360.487 217.476
L361.404 236.83
L362.322 239.876
L363.239 220.214
L364.156 219.126
L365.073 241.503
L365.073 241.503" style="fill:none;stroke:#000000;stroke-linecap:square;"/>
   </g>
   <g id="line2d_15">
    <path clip-path="url(#p95a2ee5e18)" d="
M31.1906 230.445
L32.1079 223.206
L33.0251 195.638
L33.9424 173.268
L34.8597 155.774
L35.7769 173.695
L36.6942 220.22
L37.6114 235.876
L38.5287 180.473
L39.446 221.332
L40.3632 203.782
L41.2805 150.171
L43.115 198.771
L44.0323 179.622
L44.9495 193.934
L45.8668 188.39
L46.784 144.173
L47.7013 127.267
L48.6186 160.742
L49.5358 146.513
L50.4531 103.127
L51.3704 93.0209
L52.2876 184.434
L53.2049 225.97
L54.1221 229.025
L55.0394 222.629
L55.9567 235.596
M58.7084 227.264
L59.6257 215.482
L60.543 205.445
L61.4602 187.37
L62.3775 152.707
L63.2947 169.81
L64.212 174.63
L65.1293 161.707
L66.0465 198.353
L66.9638 169.329
L67.881 147.221
L68.7983 108.449
L69.7156 179.56
L70.6328 186.53
L71.5501 168.604
L72.4673 154.282
L73.3846 178.817
L74.3019 210.433
L75.2191 121.977
L76.1364 163.282
L77.0536 196.086
L77.9709 172.415
L78.8882 218.717
L79.8054 192.562
L80.7227 183.307
L81.6399 192.012
L82.5572 168.522
L83.4745 124.755
L84.3917 184.014
L85.309 202.869
L86.2262 174.632
L87.1435 155.589
L88.0608 71.0582
L88.978 102.27
L89.8953 172.166
L91.7298 111.065
L92.6471 108.283
L93.5643 77.6249
L94.4816 166.138
L95.3988 157.099
L96.3161 122.462
L97.2334 115.095
L98.1506 113.894
L99.0679 142.752
L99.9851 94.5633
L100.902 109.788
L101.82 49.655
L102.737 160.311
L103.654 125.115
L104.571 157.543
L105.489 94.1853
L106.406 60.5359
L107.323 64.9012
L108.24 176.818
L109.158 160.292
L110.075 108.438
L110.992 124.365
L111.91 107.082
L112.827 101.366
L113.744 130.996
L114.661 111.721
L115.579 96.4532
L116.496 157.947
L118.33 192.698
L119.248 207.003
L120.165 117.826
L121.082 79.7368
L121.999 144.669
L122.917 96.9753
L123.834 69.4197
L124.751 149.836
L125.668 94.91
L126.586 148.369
L128.42 45.7297
L129.337 37.882
L130.255 191.419
L131.172 155.662
L132.089 107.057
L133.007 87.5697
L133.924 57.6429
L134.841 50.0698
L135.758 50.1985
L136.676 76.5691
L137.593 91.9826
L138.51 66.8936
L139.427 106.979
L140.345 64.1413
L141.262 58.1795
L142.179 41.5988
L143.096 68.6865
L144.014 104.509
L144.931 88.717
L145.848 116.548
L146.765 135.697
L147.683 140.606
L148.6 111.539
L149.517 100.792
L150.434 108.639
L151.352 109.009
L152.269 116.946
L153.186 104.767
L154.104 101.521
L155.021 137.598
L155.938 180.89
L156.855 114.47
L157.773 156.281
L158.69 95.8099
L159.607 108.363
L160.524 91.7166
L161.442 33.1301
L162.359 52.0809
L163.276 81.273
L164.193 154.797
L165.111 167.21
L166.028 199.15
L166.945 185.521
L167.862 110.079
L168.78 94.2189
L169.697 83.8414
L170.614 77.6194
L171.531 83.6013
L172.449 87.7721
L173.366 91.064
L174.283 101.668
L175.2 104.171
L176.118 107.529
L177.035 101.648
L177.952 113.792
L178.87 108.978
L179.787 95.5268
L180.704 112.604
L181.621 124.777
L182.539 67.0611
L183.456 102.033
L184.373 95.1413
L185.29 103.466
L186.208 189.377
L187.125 144.043
L188.042 125.449
L188.959 109.495
L189.877 106.393
L190.794 192.737
L191.711 211.229
L192.628 157.007
L193.546 116.056
L194.463 119.622
L195.38 127.81
L196.297 126.082
L197.215 159.121
M296.279 97.5675
L297.196 108.025
L298.113 106.708
L299.948 120.786
L300.865 110.992
L301.782 113.067
L302.7 110.111
L303.617 112.003
L304.534 111.376
L305.451 116.249
L306.369 187.041
L307.286 204.181
L308.203 185.684
L309.12 205.417
L310.038 174.941
L310.955 195.818
L311.872 196.917
L312.79 157.281
L313.707 189.166
L314.624 191.973
L315.541 176.222
L316.459 140.984
L317.376 126.04
L318.293 122.585
L319.21 130.393
L320.128 121.392
L321.045 155.915
L321.962 166.699
L322.879 180.377
L323.797 203.44
L324.714 157.086
L325.631 140.779
L326.548 193.173
L327.466 181.319
L328.383 124.77
L329.3 110.103
L330.217 122.378
L331.135 122.553
L332.052 124.154
L332.969 121.905
L333.887 123.305
L334.804 142.662
L335.721 143.195
L336.638 186.926
L337.556 208.737
L338.473 191.008
L339.39 153.017
L340.307 189.349
L341.225 175.401
L342.142 154.664
L343.059 215.416
L343.976 152.357
L344.894 98.4746
L345.811 147.427
L346.728 172.362
L347.645 148.811
L348.563 172.341
L349.48 184.157
L350.397 126.619
L351.314 126.14
L352.232 101.559
L353.149 157.003
L354.066 190.846
L354.984 162.523
L355.901 212.626
L356.818 215.613
L358.653 167.05
L359.57 127.1
L360.487 112.883
L361.404 109.163
L362.322 144.117
L363.239 133.741
L364.156 161.222
L365.073 180.605
L365.073 180.605" style="fill:none;stroke:#0000ff;stroke-linecap:square;"/>
   </g>
   <g id="line2d_16">
    <path clip-path="url(#p95a2ee5e18)" d="
M31.1906 228.359
L32.1079 213.474
L33.0251 208.889
L33.9424 215.202
L34.8597 200.552
L35.7769 192.356
L36.6942 207.281
M38.5287 217.879
L39.446 233.244
L40.3632 231.185
L41.2805 235.857
L42.1977 234.822
L43.115 222.715
L44.0323 203.588
L44.9495 204.616
L45.8668 203.181
L46.784 209.143
L47.7013 199.194
L48.6186 203.388
L49.5358 205.55
L50.4531 212.306
L51.3704 202.394
M58.7084 203.046
L59.6257 225.181
L60.543 205.994
M62.3775 235.051
L63.2947 236.703
M66.9638 227.916
L67.881 220.749
L68.7983 225.135
L69.7156 232.982
L70.6328 225.983
L71.5501 224.491
L72.4673 217.782
L73.3846 226.218
L74.3019 186.924
L75.2191 224.477
L76.1364 227.829
L77.0536 230.574
L77.9709 214.178
L78.8882 210.379
L79.8054 202.473
L80.7227 195.779
L81.6399 194.619
L82.5572 198.119
L83.4745 223.89
L84.3917 201.349
L85.309 227.307
L86.2262 219.42
L87.1435 225.731
L88.0608 175.117
L88.978 211.382
L89.8953 202.67
L90.8125 195.191
L91.7298 166.597
L92.6471 212.518
L93.5643 231.915
L94.4816 175.604
L96.3161 147.453
L97.2334 194.311
L98.1506 150.349
L99.0679 155.801
L99.9851 195.66
L100.902 191.386
L101.82 130.428
L102.737 128.142
L103.654 120.887
L104.571 119.779
L105.489 124.713
L106.406 140.442
L107.323 185.532
L108.24 179.671
M110.075 207.806
L110.992 216.984
L111.91 186.745
L112.827 163.093
L113.744 235.04
L114.661 212.419
L115.579 162.545
L116.496 171.719
L117.413 160.569
L118.33 155.132
L119.248 134.337
L120.165 148.38
L121.082 138.518
L121.999 130.311
L122.917 129.594
L123.834 128.188
L124.751 114.335
L125.668 110.594
L126.586 129.407
L127.503 108.774
L128.42 138.002
L129.337 122.005
L130.255 130.647
L131.172 118.33
L132.089 140.075
L133.007 217.009
L133.924 152.337
L134.841 165.833
L135.758 211.695
L136.676 158.181
L137.593 142.383
L138.51 142.026
L139.427 100.243
L140.345 113.192
L141.262 122.979
L142.179 135.269
L143.096 144.162
L144.014 145.77
L144.931 164.399
L145.848 125.509
L146.765 118.858
L147.683 143.371
L148.6 138.45
L149.517 148.948
L150.434 102.667
L151.352 110.356
L152.269 105.344
L153.186 122.098
L154.104 136.303
L155.021 159.231
L155.938 119.899
L156.855 150.543
L157.773 115.474
L158.69 152.038
L159.607 167.014
L160.524 121.906
L162.359 149.445
L163.276 150.275
L164.193 123.61
L165.111 123.916
L166.028 125.028
L166.945 106.013
L167.862 132.051
L168.78 124.963
L169.697 141.587
L170.614 132.711
L171.531 122.436
L172.449 123.407
L173.366 121.527
L174.283 118.018
L175.2 135.291
L176.118 123.214
L177.035 132.357
L177.952 123.378
L178.87 120.288
L179.787 146.533
L180.704 160.58
L181.621 147.067
L182.539 152.46
L183.456 155.355
L184.373 147.204
L185.29 181.799
L186.208 117.089
L187.125 131.36
L188.042 128.918
L188.959 129.177
L189.877 132.591
L190.794 146.312
L191.711 192.14
L192.628 162.73
L193.546 164.312
L194.463 129.189
L195.38 118.899
L196.297 123.757
L197.215 134.938
L198.132 167.934
L199.967 154.819
L200.884 145.476
L201.801 148.646
L202.718 148.077
L203.636 163.245
L204.553 182.141
L205.47 148.469
L206.387 153.748
L207.305 147.746
L208.222 155.43
L209.139 158.04
L210.056 150.91
L210.974 156.046
L211.891 175.824
L212.808 151.117
L213.725 157.31
L214.643 157.001
L215.56 183.679
L216.477 160.302
L217.394 150.294
L218.312 131.658
L219.229 134.624
L220.146 145.783
L221.064 154.529
L221.981 169.821
L222.898 166.326
L223.815 171.579
L224.733 156.49
L225.65 164.429
L227.484 169.808
L228.402 164.226
L229.319 173.353
L230.236 166.699
L231.153 157.93
L232.071 164.663
L232.988 166.053
L233.905 159.53
L234.822 175.1
L235.74 158.679
L236.657 191.914
L237.574 158.393
L238.491 151.32
L239.409 154.316
L240.326 155.273
L241.243 159.806
L242.16 177.937
L243.078 172.893
L243.995 161.177
L244.912 160.276
L245.83 164.605
L246.747 155.325
L247.664 179.448
L248.581 165.684
L249.499 157.553
L250.416 168.307
L251.333 166.354
L252.25 181.415
L253.168 159.371
L254.085 152.543
L255.002 156.388
L255.919 152.873
L256.837 150.8
L257.754 154.495
L258.671 162.911
L259.588 167.583
L260.506 166.641
L261.423 159.478
L262.34 158.926
L263.257 149.641
L264.175 149.24
L265.092 173.204
L266.009 171.875
L266.927 176.186
L267.844 181.374
L268.761 189.334
L269.678 192.587
L270.596 175.647
L271.513 175.876
L272.43 202.384
L273.347 182.069
L274.265 202.798
L275.182 181.241
L276.099 176.961
L277.016 177.352
L277.934 209.937
L278.851 215.882
L279.768 224.693
L280.685 182.72
L281.603 168.501
L282.52 160.151
L284.354 169.895
L285.272 175.478
L286.189 180.027
L287.106 182.69
L288.941 179.001
L289.858 182.669
L290.775 194.178
L291.693 198.848
L292.61 173.375
L294.444 215.749
L296.279 179.638
L297.196 185.256
L298.113 199.777
L299.031 189.492
L299.948 210.419
L300.865 193.272
L301.782 220.94
L302.7 197.873
L303.617 211.736
L304.534 203.509
L305.451 197.307
L306.369 178.493
L307.286 200.964
L308.203 194.87
L309.12 212.481
L310.038 233.615
M311.872 219.698
L312.79 222.517
L313.707 208.171
L314.624 204.463
L315.541 207.212
L316.459 200.737
L317.376 217.252
L318.293 218.195
L319.21 209.766
L320.128 174.498
L321.045 219.368
M323.797 227.387
L324.714 223.125
L325.631 216.041
L326.548 211.443
L327.466 207.927
L328.383 214.373
L329.3 230.5
L330.217 221.398
L331.135 211.103
L332.052 230.527
L332.969 212.847
L333.887 216.207
L334.804 206.9
L335.721 226.114
L336.638 215.806
L337.556 229.189
L338.473 222.681
L339.39 214.666
L340.307 214.188
L341.225 213.326
L342.142 227.642
L343.059 215.037
L343.976 232.634
L344.894 220.65
L345.811 218.521
L346.728 216.682
L347.645 236.793
L348.563 239.444
L349.48 210.045
L350.397 215.362
L351.314 230.978
L352.232 224.352
L353.149 233.098
L354.066 238.762
L354.984 240.362
L355.901 239.764
M357.735 227.33
L358.653 240.298
M361.404 237.982" style="fill:none;stroke:#008000;stroke-linecap:square;"/>
   </g>
   <g id="patch_3">
    <path d="
M31.1906 21.3181
L365.991 21.3181" style="fill:none;stroke:#000000;stroke-linecap:square;stroke-linejoin:miter;"/>
   </g>
   <g id="patch_4">
    <path d="
M365.991 244.518
L365.991 21.3181" style="fill:none;stroke:#000000;stroke-linecap:square;stroke-linejoin:miter;"/>
   </g>
   <g id="patch_5">
    <path d="
M31.1906 244.518
L365.991 244.518" style="fill:none;stroke:#000000;stroke-linecap:square;stroke-linejoin:miter;"/>
   </g>
   <g id="patch_6">
    <path d="
M31.1906 244.518
L31.1906 21.3181" style="fill:none;stroke:#000000;stroke-linecap:square;stroke-linejoin:miter;"/>
   </g>
   <g id="matplotlib.axis_1">
    <g id="xtick_1">
     <g id="line2d_17">
      <defs>
       <path d="
M0 0
L0 -4" id="mc7db9fdffb" style="stroke:#000000;stroke-width:0.5;"/>
      </defs>
      <g>
       <use style="stroke:#000000;stroke-width:0.5;" x="31.190625" xlink:href="#mc7db9fdffb" y="244.518125"/>
      </g>
     </g>
     <g id="line2d_18">
      <defs>
       <path d="
M0 0
L0 4" id="m5a7d422ac3" style="stroke:#000000;stroke-width:0.5;"/>
      </defs>
      <g>
       <use style="stroke:#000000;stroke-width:0.5;" x="31.190625" xlink:href="#m5a7d422ac3" y="21.318125"/>
      </g>
     </g>
     <g id="text_1">
      <!-- 0 -->
      <defs>
       <path d="
M31.7812 66.4062
Q24.1719 66.4062 20.3281 58.9062
Q16.5 51.4219 16.5 36.375
Q16.5 21.3906 20.3281 13.8906
Q24.1719 6.39062 31.7812 6.39062
Q39.4531 6.39062 43.2812 13.8906
Q47.125 21.3906 47.125 36.375
Q47.125 51.4219 43.2812 58.9062
Q39.4531 66.4062 31.7812 66.4062
M31.7812 74.2188
Q44.0469 74.2188 50.5156 64.5156
Q56.9844 54.8281 56.9844 36.375
Q56.9844 17.9688 50.5156 8.26562
Q44.0469 -1.42188 31.7812 -1.42188
Q19.5312 -1.42188 13.0625 8.26562
Q6.59375 17.9688 6.59375 36.375
Q6.59375 54.8281 13.0625 64.5156
Q19.5312 74.2188 31.7812 74.2188" id="BitstreamVeraSans-Roman-30"/>
      </defs>
      <g transform="translate(28.67109375 256.1165625)scale(0.1 -0.1)">
       <use xlink:href="#BitstreamVeraSans-Roman-30"/>
      </g>
     </g>
    </g>
    <g id="xtick_2">
     <g id="line2d_19">
      <g>
       <use style="stroke:#000000;stroke-width:0.5;" x="77.0536386986" xlink:href="#mc7db9fdffb" y="244.518125"/>
      </g>
     </g>
     <g id="line2d_20">
      <g>
       <use style="stroke:#000000;stroke-width:0.5;" x="77.0536386986" xlink:href="#m5a7d422ac3" y="21.318125"/>
      </g>
     </g>
     <g id="text_2">
      <!-- 50 -->
      <defs>
       <path d="
M10.7969 72.9062
L49.5156 72.9062
L49.5156 64.5938
L19.8281 64.5938
L19.8281 46.7344
Q21.9688 47.4688 24.1094 47.8281
Q26.2656 48.1875 28.4219 48.1875
Q40.625 48.1875 47.75 41.5
Q54.8906 34.8125 54.8906 23.3906
Q54.8906 11.625 47.5625 5.09375
Q40.2344 -1.42188 26.9062 -1.42188
Q22.3125 -1.42188 17.5469 -0.640625
Q12.7969 0.140625 7.71875 1.70312
L7.71875 11.625
Q12.1094 9.23438 16.7969 8.0625
Q21.4844 6.89062 26.7031 6.89062
Q35.1562 6.89062 40.0781 11.3281
Q45.0156 15.7656 45.0156 23.3906
Q45.0156 31 40.0781 35.4375
Q35.1562 39.8906 26.7031 39.8906
Q22.75 39.8906 18.8125 39.0156
Q14.8906 38.1406 10.7969 36.2812
z
" id="BitstreamVeraSans-Roman-35"/>
      </defs>
      <g transform="translate(71.4091074486 256.1165625)scale(0.1 -0.1)">
       <use xlink:href="#BitstreamVeraSans-Roman-35"/>
       <use x="63.623046875" xlink:href="#BitstreamVeraSans-Roman-30"/>
      </g>
     </g>
    </g>
    <g id="xtick_3">
     <g id="line2d_21">
      <g>
       <use style="stroke:#000000;stroke-width:0.5;" x="122.916652397" xlink:href="#mc7db9fdffb" y="244.518125"/>
      </g>
     </g>
     <g id="line2d_22">
      <g>
       <use style="stroke:#000000;stroke-width:0.5;" x="122.916652397" xlink:href="#m5a7d422ac3" y="21.318125"/>
      </g>
     </g>
     <g id="text_3">
      <!-- 100 -->
      <defs>
       <path d="
M12.4062 8.29688
L28.5156 8.29688
L28.5156 63.9219
L10.9844 60.4062
L10.9844 69.3906
L28.4219 72.9062
L38.2812 72.9062
L38.2812 8.29688
L54.3906 8.29688
L54.3906 0
L12.4062 0
z
" id="BitstreamVeraSans-Roman-31"/>
      </defs>
      <g transform="translate(114.254152397 256.1165625)scale(0.1 -0.1)">
       <use xlink:href="#BitstreamVeraSans-Roman-31"/>
       <use x="63.623046875" xlink:href="#BitstreamVeraSans-Roman-30"/>
       <use x="127.24609375" xlink:href="#BitstreamVeraSans-Roman-30"/>
      </g>
     </g>
    </g>
    <g id="xtick_4">
     <g id="line2d_23">
      <g>
       <use style="stroke:#000000;stroke-width:0.5;" x="168.779666096" xlink:href="#mc7db9fdffb" y="244.518125"/>
      </g>
     </g>
     <g id="line2d_24">
      <g>
       <use style="stroke:#000000;stroke-width:0.5;" x="168.779666096" xlink:href="#m5a7d422ac3" y="21.318125"/>
      </g>
     </g>
     <g id="text_4">
      <!-- 150 -->
      <g transform="translate(160.117166096 256.1165625)scale(0.1 -0.1)">
       <use xlink:href="#BitstreamVeraSans-Roman-31"/>
       <use x="63.623046875" xlink:href="#BitstreamVeraSans-Roman-35"/>
       <use x="127.24609375" xlink:href="#BitstreamVeraSans-Roman-30"/>
      </g>
     </g>
    </g>
    <g id="xtick_5">
     <g id="line2d_25">
      <g>
       <use style="stroke:#000000;stroke-width:0.5;" x="214.642679795" xlink:href="#mc7db9fdffb" y="244.518125"/>
      </g>
     </g>
     <g id="line2d_26">
      <g>
       <use style="stroke:#000000;stroke-width:0.5;" x="214.642679795" xlink:href="#m5a7d422ac3" y="21.318125"/>
      </g>
     </g>
     <g id="text_5">
      <!-- 200 -->
      <defs>
       <path d="
M19.1875 8.29688
L53.6094 8.29688
L53.6094 0
L7.32812 0
L7.32812 8.29688
Q12.9375 14.1094 22.625 23.8906
Q32.3281 33.6875 34.8125 36.5312
Q39.5469 41.8438 41.4219 45.5312
Q43.3125 49.2188 43.3125 52.7812
Q43.3125 58.5938 39.2344 62.25
Q35.1562 65.9219 28.6094 65.9219
Q23.9688 65.9219 18.8125 64.3125
Q13.6719 62.7031 7.8125 59.4219
L7.8125 69.3906
Q13.7656 71.7812 18.9375 73
Q24.125 74.2188 28.4219 74.2188
Q39.75 74.2188 46.4844 68.5469
Q53.2188 62.8906 53.2188 53.4219
Q53.2188 48.9219 51.5312 44.8906
Q49.8594 40.875 45.4062 35.4062
Q44.1875 33.9844 37.6406 27.2188
Q31.1094 20.4531 19.1875 8.29688" id="BitstreamVeraSans-Roman-32"/>
      </defs>
      <g transform="translate(205.797367295 256.1165625)scale(0.1 -0.1)">
       <use xlink:href="#BitstreamVeraSans-Roman-32"/>
       <use x="63.623046875" xlink:href="#BitstreamVeraSans-Roman-30"/>
       <use x="127.24609375" xlink:href="#BitstreamVeraSans-Roman-30"/>
      </g>
     </g>
    </g>
    <g id="xtick_6">
     <g id="line2d_27">
      <g>
       <use style="stroke:#000000;stroke-width:0.5;" x="260.505693493" xlink:href="#mc7db9fdffb" y="244.518125"/>
      </g>
     </g>
     <g id="line2d_28">
      <g>
       <use style="stroke:#000000;stroke-width:0.5;" x="260.505693493" xlink:href="#m5a7d422ac3" y="21.318125"/>
      </g>
     </g>
     <g id="text_6">
      <!-- 250 -->
      <g transform="translate(251.660380993 256.1165625)scale(0.1 -0.1)">
       <use xlink:href="#BitstreamVeraSans-Roman-32"/>
       <use x="63.623046875" xlink:href="#BitstreamVeraSans-Roman-35"/>
       <use x="127.24609375" xlink:href="#BitstreamVeraSans-Roman-30"/>
      </g>
     </g>
    </g>
    <g id="xtick_7">
     <g id="line2d_29">
      <g>
       <use style="stroke:#000000;stroke-width:0.5;" x="306.368707192" xlink:href="#mc7db9fdffb" y="244.518125"/>
      </g>
     </g>
     <g id="line2d_30">
      <g>
       <use style="stroke:#000000;stroke-width:0.5;" x="306.368707192" xlink:href="#m5a7d422ac3" y="21.318125"/>
      </g>
     </g>
     <g id="text_7">
      <!-- 300 -->
      <defs>
       <path d="
M40.5781 39.3125
Q47.6562 37.7969 51.625 33
Q55.6094 28.2188 55.6094 21.1875
Q55.6094 10.4062 48.1875 4.48438
Q40.7656 -1.42188 27.0938 -1.42188
Q22.5156 -1.42188 17.6562 -0.515625
Q12.7969 0.390625 7.625 2.20312
L7.625 11.7188
Q11.7188 9.32812 16.5938 8.10938
Q21.4844 6.89062 26.8125 6.89062
Q36.0781 6.89062 40.9375 10.5469
Q45.7969 14.2031 45.7969 21.1875
Q45.7969 27.6406 41.2812 31.2656
Q36.7656 34.9062 28.7188 34.9062
L20.2188 34.9062
L20.2188 43.0156
L29.1094 43.0156
Q36.375 43.0156 40.2344 45.9219
Q44.0938 48.8281 44.0938 54.2969
Q44.0938 59.9062 40.1094 62.9062
Q36.1406 65.9219 28.7188 65.9219
Q24.6562 65.9219 20.0156 65.0312
Q15.375 64.1562 9.8125 62.3125
L9.8125 71.0938
Q15.4375 72.6562 20.3438 73.4375
Q25.25 74.2188 29.5938 74.2188
Q40.8281 74.2188 47.3594 69.1094
Q53.9062 64.0156 53.9062 55.3281
Q53.9062 49.2656 50.4375 45.0938
Q46.9688 40.9219 40.5781 39.3125" id="BitstreamVeraSans-Roman-33"/>
      </defs>
      <g transform="translate(297.538238442 256.1165625)scale(0.1 -0.1)">
       <use xlink:href="#BitstreamVeraSans-Roman-33"/>
       <use x="63.623046875" xlink:href="#BitstreamVeraSans-Roman-30"/>
       <use x="127.24609375" xlink:href="#BitstreamVeraSans-Roman-30"/>
      </g>
     </g>
    </g>
    <g id="xtick_8">
     <g id="line2d_31">
      <g>
       <use style="stroke:#000000;stroke-width:0.5;" x="352.23172089" xlink:href="#mc7db9fdffb" y="244.518125"/>
      </g>
     </g>
     <g id="line2d_32">
      <g>
       <use style="stroke:#000000;stroke-width:0.5;" x="352.23172089" xlink:href="#m5a7d422ac3" y="21.318125"/>
      </g>
     </g>
     <g id="text_8">
      <!-- 350 -->
      <g transform="translate(343.40125214 256.1165625)scale(0.1 -0.1)">
       <use xlink:href="#BitstreamVeraSans-Roman-33"/>
       <use x="63.623046875" xlink:href="#BitstreamVeraSans-Roman-35"/>
       <use x="127.24609375" xlink:href="#BitstreamVeraSans-Roman-30"/>
      </g>
     </g>
    </g>
    <g id="text_9">
     <!-- Julian day -->
     <defs>
      <path d="
M32.1719 -5.07812
Q28.375 -14.8438 24.75 -17.8125
Q21.1406 -20.7969 15.0938 -20.7969
L7.90625 -20.7969
L7.90625 -13.2812
L13.1875 -13.2812
Q16.8906 -13.2812 18.9375 -11.5156
Q21 -9.76562 23.4844 -3.21875
L25.0938 0.875
L2.98438 54.6875
L12.5 54.6875
L29.5938 11.9219
L46.6875 54.6875
L56.2031 54.6875
z
" id="BitstreamVeraSans-Roman-79"/>
      <path d="
M8.5 21.5781
L8.5 54.6875
L17.4844 54.6875
L17.4844 21.9219
Q17.4844 14.1562 20.5 10.2656
Q23.5312 6.39062 29.5938 6.39062
Q36.8594 6.39062 41.0781 11.0312
Q45.3125 15.6719 45.3125 23.6875
L45.3125 54.6875
L54.2969 54.6875
L54.2969 0
L45.3125 0
L45.3125 8.40625
Q42.0469 3.42188 37.7188 1
Q33.4062 -1.42188 27.6875 -1.42188
Q18.2656 -1.42188 13.375 4.4375
Q8.5 10.2969 8.5 21.5781" id="BitstreamVeraSans-Roman-75"/>
      <path d="
M9.42188 75.9844
L18.4062 75.9844
L18.4062 0
L9.42188 0
z
" id="BitstreamVeraSans-Roman-6c"/>
      <path id="BitstreamVeraSans-Roman-20"/>
      <path d="
M54.8906 33.0156
L54.8906 0
L45.9062 0
L45.9062 32.7188
Q45.9062 40.4844 42.875 44.3281
Q39.8438 48.1875 33.7969 48.1875
Q26.5156 48.1875 22.3125 43.5469
Q18.1094 38.9219 18.1094 30.9062
L18.1094 0
L9.07812 0
L9.07812 54.6875
L18.1094 54.6875
L18.1094 46.1875
Q21.3438 51.125 25.7031 53.5625
Q30.0781 56 35.7969 56
Q45.2188 56 50.0469 50.1719
Q54.8906 44.3438 54.8906 33.0156" id="BitstreamVeraSans-Roman-6e"/>
      <path d="
M9.42188 54.6875
L18.4062 54.6875
L18.4062 0
L9.42188 0
z

M9.42188 75.9844
L18.4062 75.9844
L18.4062 64.5938
L9.42188 64.5938
z
" id="BitstreamVeraSans-Roman-69"/>
      <path d="
M34.2812 27.4844
Q23.3906 27.4844 19.1875 25
Q14.9844 22.5156 14.9844 16.5
Q14.9844 11.7188 18.1406 8.90625
Q21.2969 6.10938 26.7031 6.10938
Q34.1875 6.10938 38.7031 11.4062
Q43.2188 16.7031 43.2188 25.4844
L43.2188 27.4844
z

M52.2031 31.2031
L52.2031 0
L43.2188 0
L43.2188 8.29688
Q40.1406 3.32812 35.5469 0.953125
Q30.9531 -1.42188 24.3125 -1.42188
Q15.9219 -1.42188 10.9531 3.29688
Q6 8.01562 6 15.9219
Q6 25.1406 12.1719 29.8281
Q18.3594 34.5156 30.6094 34.5156
L43.2188 34.5156
L43.2188 35.4062
Q43.2188 41.6094 39.1406 45
Q35.0625 48.3906 27.6875 48.3906
Q23 48.3906 18.5469 47.2656
Q14.1094 46.1406 10.0156 43.8906
L10.0156 52.2031
Q14.9375 54.1094 19.5781 55.0469
Q24.2188 56 28.6094 56
Q40.4844 56 46.3438 49.8438
Q52.2031 43.7031 52.2031 31.2031" id="BitstreamVeraSans-Roman-61"/>
      <path d="
M45.4062 46.3906
L45.4062 75.9844
L54.3906 75.9844
L54.3906 0
L45.4062 0
L45.4062 8.20312
Q42.5781 3.32812 38.25 0.953125
Q33.9375 -1.42188 27.875 -1.42188
Q17.9688 -1.42188 11.7344 6.48438
Q5.51562 14.4062 5.51562 27.2969
Q5.51562 40.1875 11.7344 48.0938
Q17.9688 56 27.875 56
Q33.9375 56 38.25 53.625
Q42.5781 51.2656 45.4062 46.3906
M14.7969 27.2969
Q14.7969 17.3906 18.875 11.75
Q22.9531 6.10938 30.0781 6.10938
Q37.2031 6.10938 41.2969 11.75
Q45.4062 17.3906 45.4062 27.2969
Q45.4062 37.2031 41.2969 42.8438
Q37.2031 48.4844 30.0781 48.4844
Q22.9531 48.4844 18.875 42.8438
Q14.7969 37.2031 14.7969 27.2969" id="BitstreamVeraSans-Roman-64"/>
      <path d="
M9.8125 72.9062
L19.6719 72.9062
L19.6719 5.07812
Q19.6719 -8.10938 14.6719 -14.0625
Q9.67188 -20.0156 -1.42188 -20.0156
L-5.17188 -20.0156
L-5.17188 -11.7188
L-2.09375 -11.7188
Q4.4375 -11.7188 7.125 -8.04688
Q9.8125 -4.39062 9.8125 5.07812
z
" id="BitstreamVeraSans-Roman-4a"/>
     </defs>
     <g transform="translate(174.03984375 270.7946875)scale(0.1 -0.1)">
      <use xlink:href="#BitstreamVeraSans-Roman-4a"/>
      <use x="29.4921875" xlink:href="#BitstreamVeraSans-Roman-75"/>
      <use x="92.87109375" xlink:href="#BitstreamVeraSans-Roman-6c"/>
      <use x="120.654296875" xlink:href="#BitstreamVeraSans-Roman-69"/>
      <use x="148.4375" xlink:href="#BitstreamVeraSans-Roman-61"/>
      <use x="209.716796875" xlink:href="#BitstreamVeraSans-Roman-6e"/>
      <use x="273.095703125" xlink:href="#BitstreamVeraSans-Roman-20"/>
      <use x="304.8828125" xlink:href="#BitstreamVeraSans-Roman-64"/>
      <use x="368.359375" xlink:href="#BitstreamVeraSans-Roman-61"/>
      <use x="429.638671875" xlink:href="#BitstreamVeraSans-Roman-79"/>
     </g>
    </g>
   </g>
   <g id="matplotlib.axis_2">
    <g id="ytick_1">
     <g id="line2d_33">
      <defs>
       <path d="
M0 0
L4 0" id="md7965d1ba0" style="stroke:#000000;stroke-width:0.5;"/>
      </defs>
      <g>
       <use style="stroke:#000000;stroke-width:0.5;" x="31.190625" xlink:href="#md7965d1ba0" y="244.518125"/>
      </g>
     </g>
     <g id="line2d_34">
      <defs>
       <path d="
M0 0
L-4 0" id="md9a1c1a7cd" style="stroke:#000000;stroke-width:0.5;"/>
      </defs>
      <g>
       <use style="stroke:#000000;stroke-width:0.5;" x="365.990625" xlink:href="#md9a1c1a7cd" y="244.518125"/>
      </g>
     </g>
     <g id="text_10">
      <!-- 0 -->
      <g transform="translate(22.1515625 247.2775)scale(0.1 -0.1)">
       <use xlink:href="#BitstreamVeraSans-Roman-30"/>
      </g>
     </g>
    </g>
    <g id="ytick_2">
     <g id="line2d_35">
      <g>
       <use style="stroke:#000000;stroke-width:0.5;" x="31.190625" xlink:href="#md7965d1ba0" y="199.878125"/>
      </g>
     </g>
     <g id="line2d_36">
      <g>
       <use style="stroke:#000000;stroke-width:0.5;" x="365.990625" xlink:href="#md9a1c1a7cd" y="199.878125"/>
      </g>
     </g>
     <g id="text_11">
      <!-- 1 -->
      <g transform="translate(22.85 202.6375)scale(0.1 -0.1)">
       <use xlink:href="#BitstreamVeraSans-Roman-31"/>
      </g>
     </g>
    </g>
    <g id="ytick_3">
     <g id="line2d_37">
      <g>
       <use style="stroke:#000000;stroke-width:0.5;" x="31.190625" xlink:href="#md7965d1ba0" y="155.238125"/>
      </g>
     </g>
     <g id="line2d_38">
      <g>
       <use style="stroke:#000000;stroke-width:0.5;" x="365.990625" xlink:href="#md9a1c1a7cd" y="155.238125"/>
      </g>
     </g>
     <g id="text_12">
      <!-- 2 -->
      <g transform="translate(22.5625 157.9975)scale(0.1 -0.1)">
       <use xlink:href="#BitstreamVeraSans-Roman-32"/>
      </g>
     </g>
    </g>
    <g id="ytick_4">
     <g id="line2d_39">
      <g>
       <use style="stroke:#000000;stroke-width:0.5;" x="31.190625" xlink:href="#md7965d1ba0" y="110.598125"/>
      </g>
     </g>
     <g id="line2d_40">
      <g>
       <use style="stroke:#000000;stroke-width:0.5;" x="365.990625" xlink:href="#md9a1c1a7cd" y="110.598125"/>
      </g>
     </g>
     <g id="text_13">
      <!-- 3 -->
      <g transform="translate(22.3921875 113.3575)scale(0.1 -0.1)">
       <use xlink:href="#BitstreamVeraSans-Roman-33"/>
      </g>
     </g>
    </g>
    <g id="ytick_5">
     <g id="line2d_41">
      <g>
       <use style="stroke:#000000;stroke-width:0.5;" x="31.190625" xlink:href="#md7965d1ba0" y="65.958125"/>
      </g>
     </g>
     <g id="line2d_42">
      <g>
       <use style="stroke:#000000;stroke-width:0.5;" x="365.990625" xlink:href="#md9a1c1a7cd" y="65.958125"/>
      </g>
     </g>
     <g id="text_14">
      <!-- 4 -->
      <defs>
       <path d="
M37.7969 64.3125
L12.8906 25.3906
L37.7969 25.3906
z

M35.2031 72.9062
L47.6094 72.9062
L47.6094 25.3906
L58.0156 25.3906
L58.0156 17.1875
L47.6094 17.1875
L47.6094 0
L37.7969 0
L37.7969 17.1875
L4.89062 17.1875
L4.89062 26.7031
z
" id="BitstreamVeraSans-Roman-34"/>
      </defs>
      <g transform="translate(21.878125 68.7175)scale(0.1 -0.1)">
       <use xlink:href="#BitstreamVeraSans-Roman-34"/>
      </g>
     </g>
    </g>
    <g id="ytick_6">
     <g id="line2d_43">
      <g>
       <use style="stroke:#000000;stroke-width:0.5;" x="31.190625" xlink:href="#md7965d1ba0" y="21.318125"/>
      </g>
     </g>
     <g id="line2d_44">
      <g>
       <use style="stroke:#000000;stroke-width:0.5;" x="365.990625" xlink:href="#md9a1c1a7cd" y="21.318125"/>
      </g>
     </g>
     <g id="text_15">
      <!-- 5 -->
      <g transform="translate(22.4734375 24.0775)scale(0.1 -0.1)">
       <use xlink:href="#BitstreamVeraSans-Roman-35"/>
      </g>
     </g>
    </g>
    <g id="text_16">
     <!-- PET (mm/day) -->
     <defs>
      <path d="
M8.01562 75.875
L15.8281 75.875
Q23.1406 64.3594 26.7812 53.3125
Q30.4219 42.2812 30.4219 31.3906
Q30.4219 20.4531 26.7812 9.375
Q23.1406 -1.70312 15.8281 -13.1875
L8.01562 -13.1875
Q14.5 -2 17.7031 9.0625
Q20.9062 20.125 20.9062 31.3906
Q20.9062 42.6719 17.7031 53.6562
Q14.5 64.6562 8.01562 75.875" id="BitstreamVeraSans-Roman-29"/>
      <path d="
M52 44.1875
Q55.375 50.25 60.0625 53.125
Q64.75 56 71.0938 56
Q79.6406 56 84.2812 50.0156
Q88.9219 44.0469 88.9219 33.0156
L88.9219 0
L79.8906 0
L79.8906 32.7188
Q79.8906 40.5781 77.0938 44.375
Q74.3125 48.1875 68.6094 48.1875
Q61.625 48.1875 57.5625 43.5469
Q53.5156 38.9219 53.5156 30.9062
L53.5156 0
L44.4844 0
L44.4844 32.7188
Q44.4844 40.625 41.7031 44.4062
Q38.9219 48.1875 33.1094 48.1875
Q26.2188 48.1875 22.1562 43.5312
Q18.1094 38.875 18.1094 30.9062
L18.1094 0
L9.07812 0
L9.07812 54.6875
L18.1094 54.6875
L18.1094 46.1875
Q21.1875 51.2188 25.4844 53.6094
Q29.7812 56 35.6875 56
Q41.6562 56 45.8281 52.9688
Q50 49.9531 52 44.1875" id="BitstreamVeraSans-Roman-6d"/>
      <path d="
M-0.296875 72.9062
L61.375 72.9062
L61.375 64.5938
L35.5 64.5938
L35.5 0
L25.5938 0
L25.5938 64.5938
L-0.296875 64.5938
z
" id="BitstreamVeraSans-Roman-54"/>
      <path d="
M19.6719 64.7969
L19.6719 37.4062
L32.0781 37.4062
Q38.9688 37.4062 42.7188 40.9688
Q46.4844 44.5312 46.4844 51.125
Q46.4844 57.6719 42.7188 61.2344
Q38.9688 64.7969 32.0781 64.7969
z

M9.8125 72.9062
L32.0781 72.9062
Q44.3438 72.9062 50.6094 67.3594
Q56.8906 61.8125 56.8906 51.125
Q56.8906 40.3281 50.6094 34.8125
Q44.3438 29.2969 32.0781 29.2969
L19.6719 29.2969
L19.6719 0
L9.8125 0
z
" id="BitstreamVeraSans-Roman-50"/>
      <path d="
M9.8125 72.9062
L55.9062 72.9062
L55.9062 64.5938
L19.6719 64.5938
L19.6719 43.0156
L54.3906 43.0156
L54.3906 34.7188
L19.6719 34.7188
L19.6719 8.29688
L56.7812 8.29688
L56.7812 0
L9.8125 0
z
" id="BitstreamVeraSans-Roman-45"/>
      <path d="
M31 75.875
Q24.4688 64.6562 21.2812 53.6562
Q18.1094 42.6719 18.1094 31.3906
Q18.1094 20.125 21.3125 9.0625
Q24.5156 -2 31 -13.1875
L23.1875 -13.1875
Q15.875 -1.70312 12.2344 9.375
Q8.59375 20.4531 8.59375 31.3906
Q8.59375 42.2812 12.2031 53.3125
Q15.8281 64.3594 23.1875 75.875
z
" id="BitstreamVeraSans-Roman-28"/>
      <path d="
M25.3906 72.9062
L33.6875 72.9062
L8.29688 -9.28125
L0 -9.28125
z
" id="BitstreamVeraSans-Roman-2f"/>
     </defs>
     <g transform="translate(14.7984375 167.82984375)rotate(-90.0)scale(0.1 -0.1)">
      <use xlink:href="#BitstreamVeraSans-Roman-50"/>
      <use x="60.302734375" xlink:href="#BitstreamVeraSans-Roman-45"/>
      <use x="123.486328125" xlink:href="#BitstreamVeraSans-Roman-54"/>
      <use x="184.5703125" xlink:href="#BitstreamVeraSans-Roman-20"/>
      <use x="216.357421875" xlink:href="#BitstreamVeraSans-Roman-28"/>
      <use x="255.37109375" xlink:href="#BitstreamVeraSans-Roman-6d"/>
      <use x="352.783203125" xlink:href="#BitstreamVeraSans-Roman-6d"/>
      <use x="450.1953125" xlink:href="#BitstreamVeraSans-Roman-2f"/>
      <use x="483.88671875" xlink:href="#BitstreamVeraSans-Roman-64"/>
      <use x="547.36328125" xlink:href="#BitstreamVeraSans-Roman-61"/>
      <use x="608.642578125" xlink:href="#BitstreamVeraSans-Roman-79"/>
      <use x="667.822265625" xlink:href="#BitstreamVeraSans-Roman-29"/>
     </g>
    </g>
   </g>
   <g id="text_17">
    <!-- daily shrub PET at Treeline -->
    <defs>
     <path d="
M48.6875 27.2969
Q48.6875 37.2031 44.6094 42.8438
Q40.5312 48.4844 33.4062 48.4844
Q26.2656 48.4844 22.1875 42.8438
Q18.1094 37.2031 18.1094 27.2969
Q18.1094 17.3906 22.1875 11.75
Q26.2656 6.10938 33.4062 6.10938
Q40.5312 6.10938 44.6094 11.75
Q48.6875 17.3906 48.6875 27.2969
M18.1094 46.3906
Q20.9531 51.2656 25.2656 53.625
Q29.5938 56 35.5938 56
Q45.5625 56 51.7812 48.0938
Q58.0156 40.1875 58.0156 27.2969
Q58.0156 14.4062 51.7812 6.48438
Q45.5625 -1.42188 35.5938 -1.42188
Q29.5938 -1.42188 25.2656 0.953125
Q20.9531 3.32812 18.1094 8.20312
L18.1094 0
L9.07812 0
L9.07812 75.9844
L18.1094 75.9844
z
" id="BitstreamVeraSans-Roman-62"/>
     <path d="
M54.8906 33.0156
L54.8906 0
L45.9062 0
L45.9062 32.7188
Q45.9062 40.4844 42.875 44.3281
Q39.8438 48.1875 33.7969 48.1875
Q26.5156 48.1875 22.3125 43.5469
Q18.1094 38.9219 18.1094 30.9062
L18.1094 0
L9.07812 0
L9.07812 75.9844
L18.1094 75.9844
L18.1094 46.1875
Q21.3438 51.125 25.7031 53.5625
Q30.0781 56 35.7969 56
Q45.2188 56 50.0469 50.1719
Q54.8906 44.3438 54.8906 33.0156" id="BitstreamVeraSans-Roman-68"/>
     <path d="
M41.1094 46.2969
Q39.5938 47.1719 37.8125 47.5781
Q36.0312 48 33.8906 48
Q26.2656 48 22.1875 43.0469
Q18.1094 38.0938 18.1094 28.8125
L18.1094 0
L9.07812 0
L9.07812 54.6875
L18.1094 54.6875
L18.1094 46.1875
Q20.9531 51.1719 25.4844 53.5781
Q30.0312 56 36.5312 56
Q37.4531 56 38.5781 55.875
Q39.7031 55.7656 41.0625 55.5156
z
" id="BitstreamVeraSans-Roman-72"/>
     <path d="
M18.3125 70.2188
L18.3125 54.6875
L36.8125 54.6875
L36.8125 47.7031
L18.3125 47.7031
L18.3125 18.0156
Q18.3125 11.3281 20.1406 9.42188
Q21.9688 7.51562 27.5938 7.51562
L36.8125 7.51562
L36.8125 0
L27.5938 0
Q17.1875 0 13.2344 3.875
Q9.28125 7.76562 9.28125 18.0156
L9.28125 47.7031
L2.6875 47.7031
L2.6875 54.6875
L9.28125 54.6875
L9.28125 70.2188
z
" id="BitstreamVeraSans-Roman-74"/>
     <path d="
M56.2031 29.5938
L56.2031 25.2031
L14.8906 25.2031
Q15.4844 15.9219 20.4844 11.0625
Q25.4844 6.20312 34.4219 6.20312
Q39.5938 6.20312 44.4531 7.46875
Q49.3125 8.73438 54.1094 11.2812
L54.1094 2.78125
Q49.2656 0.734375 44.1875 -0.34375
Q39.1094 -1.42188 33.8906 -1.42188
Q20.7969 -1.42188 13.1562 6.1875
Q5.51562 13.8125 5.51562 26.8125
Q5.51562 40.2344 12.7656 48.1094
Q20.0156 56 32.3281 56
Q43.3594 56 49.7812 48.8906
Q56.2031 41.7969 56.2031 29.5938
M47.2188 32.2344
Q47.125 39.5938 43.0938 43.9844
Q39.0625 48.3906 32.4219 48.3906
Q24.9062 48.3906 20.3906 44.1406
Q15.875 39.8906 15.1875 32.1719
z
" id="BitstreamVeraSans-Roman-65"/>
     <path d="
M44.2812 53.0781
L44.2812 44.5781
Q40.4844 46.5312 36.375 47.5
Q32.2812 48.4844 27.875 48.4844
Q21.1875 48.4844 17.8438 46.4375
Q14.5 44.3906 14.5 40.2812
Q14.5 37.1562 16.8906 35.375
Q19.2812 33.5938 26.5156 31.9844
L29.5938 31.2969
Q39.1562 29.25 43.1875 25.5156
Q47.2188 21.7812 47.2188 15.0938
Q47.2188 7.46875 41.1875 3.01562
Q35.1562 -1.42188 24.6094 -1.42188
Q20.2188 -1.42188 15.4531 -0.5625
Q10.6875 0.296875 5.42188 2
L5.42188 11.2812
Q10.4062 8.6875 15.2344 7.39062
Q20.0625 6.10938 24.8125 6.10938
Q31.1562 6.10938 34.5625 8.28125
Q37.9844 10.4531 37.9844 14.4062
Q37.9844 18.0625 35.5156 20.0156
Q33.0625 21.9688 24.7031 23.7812
L21.5781 24.5156
Q13.2344 26.2656 9.51562 29.9062
Q5.8125 33.5469 5.8125 39.8906
Q5.8125 47.6094 11.2812 51.7969
Q16.75 56 26.8125 56
Q31.7812 56 36.1719 55.2656
Q40.5781 54.5469 44.2812 53.0781" id="BitstreamVeraSans-Roman-73"/>
    </defs>
    <g transform="translate(119.4796875 16.318125)scale(0.12 -0.12)">
     <use xlink:href="#BitstreamVeraSans-Roman-64"/>
     <use x="63.4765625" xlink:href="#BitstreamVeraSans-Roman-61"/>
     <use x="124.755859375" xlink:href="#BitstreamVeraSans-Roman-69"/>
     <use x="152.5390625" xlink:href="#BitstreamVeraSans-Roman-6c"/>
     <use x="180.322265625" xlink:href="#BitstreamVeraSans-Roman-79"/>
     <use x="239.501953125" xlink:href="#BitstreamVeraSans-Roman-20"/>
     <use x="271.2890625" xlink:href="#BitstreamVeraSans-Roman-73"/>
     <use x="323.388671875" xlink:href="#BitstreamVeraSans-Roman-68"/>
     <use x="386.767578125" xlink:href="#BitstreamVeraSans-Roman-72"/>
     <use x="427.880859375" xlink:href="#BitstreamVeraSans-Roman-75"/>
     <use x="491.259765625" xlink:href="#BitstreamVeraSans-Roman-62"/>
     <use x="554.736328125" xlink:href="#BitstreamVeraSans-Roman-20"/>
     <use x="586.5234375" xlink:href="#BitstreamVeraSans-Roman-50"/>
     <use x="646.826171875" xlink:href="#BitstreamVeraSans-Roman-45"/>
     <use x="710.009765625" xlink:href="#BitstreamVeraSans-Roman-54"/>
     <use x="771.09375" xlink:href="#BitstreamVeraSans-Roman-20"/>
     <use x="802.880859375" xlink:href="#BitstreamVeraSans-Roman-61"/>
     <use x="864.16015625" xlink:href="#BitstreamVeraSans-Roman-74"/>
     <use x="903.369140625" xlink:href="#BitstreamVeraSans-Roman-20"/>
     <use x="935.15625" xlink:href="#BitstreamVeraSans-Roman-54"/>
     <use x="981.490234375" xlink:href="#BitstreamVeraSans-Roman-72"/>
     <use x="1020.353515625" xlink:href="#BitstreamVeraSans-Roman-65"/>
     <use x="1081.876953125" xlink:href="#BitstreamVeraSans-Roman-65"/>
     <use x="1143.400390625" xlink:href="#BitstreamVeraSans-Roman-6c"/>
     <use x="1171.18359375" xlink:href="#BitstreamVeraSans-Roman-69"/>
     <use x="1198.966796875" xlink:href="#BitstreamVeraSans-Roman-6e"/>
     <use x="1262.345703125" xlink:href="#BitstreamVeraSans-Roman-65"/>
    </g>
   </g>
   <g id="legend_1">
    <g id="patch_7">
     <path d="
M287.803 312.738
L359.991 312.738
L359.991 27.3181
L287.803 27.3181
z
" style="fill:#ffffff;stroke:#000000;stroke-linejoin:miter;"/>
    </g>
    <g id="line2d_45">
     <path d="
M296.203 37.0363
L313.003 37.0363" style="fill:none;stroke:#0000ff;stroke-linecap:square;"/>
    </g>
    <g id="line2d_46"/>
    <g id="text_18">
     <!-- 1999 -->
     <defs>
      <path d="
M10.9844 1.51562
L10.9844 10.5
Q14.7031 8.73438 18.5 7.8125
Q22.3125 6.89062 25.9844 6.89062
Q35.75 6.89062 40.8906 13.4531
Q46.0469 20.0156 46.7812 33.4062
Q43.9531 29.2031 39.5938 26.9531
Q35.25 24.7031 29.9844 24.7031
Q19.0469 24.7031 12.6719 31.3125
Q6.29688 37.9375 6.29688 49.4219
Q6.29688 60.6406 12.9375 67.4219
Q19.5781 74.2188 30.6094 74.2188
Q43.2656 74.2188 49.9219 64.5156
Q56.5938 54.8281 56.5938 36.375
Q56.5938 19.1406 48.4062 8.85938
Q40.2344 -1.42188 26.4219 -1.42188
Q22.7031 -1.42188 18.8906 -0.6875
Q15.0938 0.046875 10.9844 1.51562
M30.6094 32.4219
Q37.25 32.4219 41.125 36.9531
Q45.0156 41.5 45.0156 49.4219
Q45.0156 57.2812 41.125 61.8438
Q37.25 66.4062 30.6094 66.4062
Q23.9688 66.4062 20.0938 61.8438
Q16.2188 57.2812 16.2188 49.4219
Q16.2188 41.5 20.0938 36.9531
Q23.9688 32.4219 30.6094 32.4219" id="BitstreamVeraSans-Roman-39"/>
     </defs>
     <g transform="translate(326.203125 41.23625)scale(0.12 -0.12)">
      <use xlink:href="#BitstreamVeraSans-Roman-31"/>
      <use x="63.623046875" xlink:href="#BitstreamVeraSans-Roman-39"/>
      <use x="127.24609375" xlink:href="#BitstreamVeraSans-Roman-39"/>
      <use x="190.869140625" xlink:href="#BitstreamVeraSans-Roman-39"/>
     </g>
    </g>
    <g id="line2d_47">
     <path d="
M296.203 54.65
L313.003 54.65" style="fill:none;stroke:#008000;stroke-linecap:square;"/>
    </g>
    <g id="line2d_48"/>
    <g id="text_19">
     <!-- 2000 -->
     <g transform="translate(326.203125 58.85)scale(0.12 -0.12)">
      <use xlink:href="#BitstreamVeraSans-Roman-32"/>
      <use x="63.623046875" xlink:href="#BitstreamVeraSans-Roman-30"/>
      <use x="127.24609375" xlink:href="#BitstreamVeraSans-Roman-30"/>
      <use x="190.869140625" xlink:href="#BitstreamVeraSans-Roman-30"/>
     </g>
    </g>
    <g id="line2d_49">
     <path d="
M296.203 72.2638
L313.003 72.2638" style="fill:none;stroke:#ff0000;stroke-linecap:square;"/>
    </g>
    <g id="line2d_50"/>
    <g id="text_20">
     <!-- 2001 -->
     <g transform="translate(326.203125 76.46375)scale(0.12 -0.12)">
      <use xlink:href="#BitstreamVeraSans-Roman-32"/>
      <use x="63.623046875" xlink:href="#BitstreamVeraSans-Roman-30"/>
      <use x="127.24609375" xlink:href="#BitstreamVeraSans-Roman-30"/>
      <use x="190.869140625" xlink:href="#BitstreamVeraSans-Roman-31"/>
     </g>
    </g>
    <g id="line2d_51">
     <path d="
M296.203 89.8775
L313.003 89.8775" style="fill:none;stroke:#00bfbf;stroke-linecap:square;"/>
    </g>
    <g id="line2d_52"/>
    <g id="text_21">
     <!-- 2002 -->
     <g transform="translate(326.203125 94.0775)scale(0.12 -0.12)">
      <use xlink:href="#BitstreamVeraSans-Roman-32"/>
      <use x="63.623046875" xlink:href="#BitstreamVeraSans-Roman-30"/>
      <use x="127.24609375" xlink:href="#BitstreamVeraSans-Roman-30"/>
      <use x="190.869140625" xlink:href="#BitstreamVeraSans-Roman-32"/>
     </g>
    </g>
    <g id="line2d_53">
     <path d="
M296.203 107.491
L313.003 107.491" style="fill:none;stroke:#bf00bf;stroke-linecap:square;"/>
    </g>
    <g id="line2d_54"/>
    <g id="text_22">
     <!-- 2003 -->
     <g transform="translate(326.203125 111.69125)scale(0.12 -0.12)">
      <use xlink:href="#BitstreamVeraSans-Roman-32"/>
      <use x="63.623046875" xlink:href="#BitstreamVeraSans-Roman-30"/>
      <use x="127.24609375" xlink:href="#BitstreamVeraSans-Roman-30"/>
      <use x="190.869140625" xlink:href="#BitstreamVeraSans-Roman-33"/>
     </g>
    </g>
    <g id="line2d_55">
     <path d="
M296.203 125.105
L313.003 125.105" style="fill:none;stroke:#bfbf00;stroke-linecap:square;"/>
    </g>
    <g id="line2d_56"/>
    <g id="text_23">
     <!-- 2004 -->
     <g transform="translate(326.203125 129.305)scale(0.12 -0.12)">
      <use xlink:href="#BitstreamVeraSans-Roman-32"/>
      <use x="63.623046875" xlink:href="#BitstreamVeraSans-Roman-30"/>
      <use x="127.24609375" xlink:href="#BitstreamVeraSans-Roman-30"/>
      <use x="190.869140625" xlink:href="#BitstreamVeraSans-Roman-34"/>
     </g>
    </g>
    <g id="line2d_57">
     <path d="
M296.203 142.719
L313.003 142.719" style="fill:none;stroke:#000000;stroke-linecap:square;"/>
    </g>
    <g id="line2d_58"/>
    <g id="text_24">
     <!-- 2005 -->
     <g transform="translate(326.203125 146.91875)scale(0.12 -0.12)">
      <use xlink:href="#BitstreamVeraSans-Roman-32"/>
      <use x="63.623046875" xlink:href="#BitstreamVeraSans-Roman-30"/>
      <use x="127.24609375" xlink:href="#BitstreamVeraSans-Roman-30"/>
      <use x="190.869140625" xlink:href="#BitstreamVeraSans-Roman-35"/>
     </g>
    </g>
    <g id="line2d_59">
     <path d="
M296.203 160.333
L313.003 160.333" style="fill:none;stroke:#0000ff;stroke-linecap:square;"/>
    </g>
    <g id="line2d_60"/>
    <g id="text_25">
     <!-- 2006 -->
     <defs>
      <path d="
M33.0156 40.375
Q26.375 40.375 22.4844 35.8281
Q18.6094 31.2969 18.6094 23.3906
Q18.6094 15.5312 22.4844 10.9531
Q26.375 6.39062 33.0156 6.39062
Q39.6562 6.39062 43.5312 10.9531
Q47.4062 15.5312 47.4062 23.3906
Q47.4062 31.2969 43.5312 35.8281
Q39.6562 40.375 33.0156 40.375
M52.5938 71.2969
L52.5938 62.3125
Q48.875 64.0625 45.0938 64.9844
Q41.3125 65.9219 37.5938 65.9219
Q27.8281 65.9219 22.6719 59.3281
Q17.5312 52.7344 16.7969 39.4062
Q19.6719 43.6562 24.0156 45.9219
Q28.375 48.1875 33.5938 48.1875
Q44.5781 48.1875 50.9531 41.5156
Q57.3281 34.8594 57.3281 23.3906
Q57.3281 12.1562 50.6875 5.35938
Q44.0469 -1.42188 33.0156 -1.42188
Q20.3594 -1.42188 13.6719 8.26562
Q6.98438 17.9688 6.98438 36.375
Q6.98438 53.6562 15.1875 63.9375
Q23.3906 74.2188 37.2031 74.2188
Q40.9219 74.2188 44.7031 73.4844
Q48.4844 72.75 52.5938 71.2969" id="BitstreamVeraSans-Roman-36"/>
     </defs>
     <g transform="translate(326.203125 164.5325)scale(0.12 -0.12)">
      <use xlink:href="#BitstreamVeraSans-Roman-32"/>
      <use x="63.623046875" xlink:href="#BitstreamVeraSans-Roman-30"/>
      <use x="127.24609375" xlink:href="#BitstreamVeraSans-Roman-30"/>
      <use x="190.869140625" xlink:href="#BitstreamVeraSans-Roman-36"/>
     </g>
    </g>
    <g id="line2d_61">
     <path d="
M296.203 177.946
L313.003 177.946" style="fill:none;stroke:#008000;stroke-linecap:square;"/>
    </g>
    <g id="line2d_62"/>
    <g id="text_26">
     <!-- 2007 -->
     <defs>
      <path d="
M8.20312 72.9062
L55.0781 72.9062
L55.0781 68.7031
L28.6094 0
L18.3125 0
L43.2188 64.5938
L8.20312 64.5938
z
" id="BitstreamVeraSans-Roman-37"/>
     </defs>
     <g transform="translate(326.203125 182.14625)scale(0.12 -0.12)">
      <use xlink:href="#BitstreamVeraSans-Roman-32"/>
      <use x="63.623046875" xlink:href="#BitstreamVeraSans-Roman-30"/>
      <use x="127.24609375" xlink:href="#BitstreamVeraSans-Roman-30"/>
      <use x="190.869140625" xlink:href="#BitstreamVeraSans-Roman-37"/>
     </g>
    </g>
    <g id="line2d_63">
     <path d="
M296.203 195.56
L313.003 195.56" style="fill:none;stroke:#ff0000;stroke-linecap:square;"/>
    </g>
    <g id="line2d_64"/>
    <g id="text_27">
     <!-- 2008 -->
     <defs>
      <path d="
M31.7812 34.625
Q24.75 34.625 20.7188 30.8594
Q16.7031 27.0938 16.7031 20.5156
Q16.7031 13.9219 20.7188 10.1562
Q24.75 6.39062 31.7812 6.39062
Q38.8125 6.39062 42.8594 10.1719
Q46.9219 13.9688 46.9219 20.5156
Q46.9219 27.0938 42.8906 30.8594
Q38.875 34.625 31.7812 34.625
M21.9219 38.8125
Q15.5781 40.375 12.0312 44.7188
Q8.5 49.0781 8.5 55.3281
Q8.5 64.0625 14.7188 69.1406
Q20.9531 74.2188 31.7812 74.2188
Q42.6719 74.2188 48.875 69.1406
Q55.0781 64.0625 55.0781 55.3281
Q55.0781 49.0781 51.5312 44.7188
Q48 40.375 41.7031 38.8125
Q48.8281 37.1562 52.7969 32.3125
Q56.7812 27.4844 56.7812 20.5156
Q56.7812 9.90625 50.3125 4.23438
Q43.8438 -1.42188 31.7812 -1.42188
Q19.7344 -1.42188 13.25 4.23438
Q6.78125 9.90625 6.78125 20.5156
Q6.78125 27.4844 10.7812 32.3125
Q14.7969 37.1562 21.9219 38.8125
M18.3125 54.3906
Q18.3125 48.7344 21.8438 45.5625
Q25.3906 42.3906 31.7812 42.3906
Q38.1406 42.3906 41.7188 45.5625
Q45.3125 48.7344 45.3125 54.3906
Q45.3125 60.0625 41.7188 63.2344
Q38.1406 66.4062 31.7812 66.4062
Q25.3906 66.4062 21.8438 63.2344
Q18.3125 60.0625 18.3125 54.3906" id="BitstreamVeraSans-Roman-38"/>
     </defs>
     <g transform="translate(326.203125 199.76)scale(0.12 -0.12)">
      <use xlink:href="#BitstreamVeraSans-Roman-32"/>
      <use x="63.623046875" xlink:href="#BitstreamVeraSans-Roman-30"/>
      <use x="127.24609375" xlink:href="#BitstreamVeraSans-Roman-30"/>
      <use x="190.869140625" xlink:href="#BitstreamVeraSans-Roman-38"/>
     </g>
    </g>
    <g id="line2d_65">
     <path d="
M296.203 213.174
L313.003 213.174" style="fill:none;stroke:#00bfbf;stroke-linecap:square;"/>
    </g>
    <g id="line2d_66"/>
    <g id="text_28">
     <!-- 2009 -->
     <g transform="translate(326.203125 217.37375)scale(0.12 -0.12)">
      <use xlink:href="#BitstreamVeraSans-Roman-32"/>
      <use x="63.623046875" xlink:href="#BitstreamVeraSans-Roman-30"/>
      <use x="127.24609375" xlink:href="#BitstreamVeraSans-Roman-30"/>
      <use x="190.869140625" xlink:href="#BitstreamVeraSans-Roman-39"/>
     </g>
    </g>
    <g id="line2d_67">
     <path d="
M296.203 230.788
L313.003 230.788" style="fill:none;stroke:#bf00bf;stroke-linecap:square;"/>
    </g>
    <g id="line2d_68"/>
    <g id="text_29">
     <!-- 2010 -->
     <g transform="translate(326.203125 234.9875)scale(0.12 -0.12)">
      <use xlink:href="#BitstreamVeraSans-Roman-32"/>
      <use x="63.623046875" xlink:href="#BitstreamVeraSans-Roman-30"/>
      <use x="127.24609375" xlink:href="#BitstreamVeraSans-Roman-31"/>
      <use x="190.869140625" xlink:href="#BitstreamVeraSans-Roman-30"/>
     </g>
    </g>
    <g id="line2d_69">
     <path d="
M296.203 248.401
L313.003 248.401" style="fill:none;stroke:#bfbf00;stroke-linecap:square;"/>
    </g>
    <g id="line2d_70"/>
    <g id="text_30">
     <!-- 2011 -->
     <g transform="translate(326.203125 252.60125)scale(0.12 -0.12)">
      <use xlink:href="#BitstreamVeraSans-Roman-32"/>
      <use x="63.623046875" xlink:href="#BitstreamVeraSans-Roman-30"/>
      <use x="127.24609375" xlink:href="#BitstreamVeraSans-Roman-31"/>
      <use x="190.869140625" xlink:href="#BitstreamVeraSans-Roman-31"/>
     </g>
    </g>
    <g id="line2d_71">
     <path d="
M296.203 266.015
L313.003 266.015" style="fill:none;stroke:#000000;stroke-linecap:square;"/>
    </g>
    <g id="line2d_72"/>
    <g id="text_31">
     <!-- 2012 -->
     <g transform="translate(326.203125 270.215)scale(0.12 -0.12)">
      <use xlink:href="#BitstreamVeraSans-Roman-32"/>
      <use x="63.623046875" xlink:href="#BitstreamVeraSans-Roman-30"/>
      <use x="127.24609375" xlink:href="#BitstreamVeraSans-Roman-31"/>
      <use x="190.869140625" xlink:href="#BitstreamVeraSans-Roman-32"/>
     </g>
    </g>
    <g id="line2d_73">
     <path d="
M296.203 283.629
L313.003 283.629" style="fill:none;stroke:#0000ff;stroke-linecap:square;"/>
    </g>
    <g id="line2d_74"/>
    <g id="text_32">
     <!-- 2013 -->
     <g transform="translate(326.203125 287.82875)scale(0.12 -0.12)">
      <use xlink:href="#BitstreamVeraSans-Roman-32"/>
      <use x="63.623046875" xlink:href="#BitstreamVeraSans-Roman-30"/>
      <use x="127.24609375" xlink:href="#BitstreamVeraSans-Roman-31"/>
      <use x="190.869140625" xlink:href="#BitstreamVeraSans-Roman-33"/>
     </g>
    </g>
    <g id="line2d_75">
     <path d="
M296.203 301.243
L313.003 301.243" style="fill:none;stroke:#008000;stroke-linecap:square;"/>
    </g>
    <g id="line2d_76"/>
    <g id="text_33">
     <!-- 2014 -->
     <g transform="translate(326.203125 305.4425)scale(0.12 -0.12)">
      <use xlink:href="#BitstreamVeraSans-Roman-32"/>
      <use x="63.623046875" xlink:href="#BitstreamVeraSans-Roman-30"/>
      <use x="127.24609375" xlink:href="#BitstreamVeraSans-Roman-31"/>
      <use x="190.869140625" xlink:href="#BitstreamVeraSans-Roman-34"/>
     </g>
    </g>
   </g>
  </g>
 </g>
 <defs>
  <clipPath id="p95a2ee5e18">
   <rect height="223.2" width="334.8" x="31.190625" y="21.318125"/>
  </clipPath>
 </defs>
</svg>
