<?xml version="1.0" encoding="utf-8" standalone="no"?>
<!DOCTYPE svg PUBLIC "-//W3C//DTD SVG 1.1//EN"
  "http://www.w3.org/Graphics/SVG/1.1/DTD/svg11.dtd">
<!-- Created with matplotlib (http://matplotlib.org/) -->
<svg height="319pt" version="1.1" viewBox="0 0 378 319" width="378pt" xmlns="http://www.w3.org/2000/svg" xmlns:xlink="http://www.w3.org/1999/xlink">
 <defs>
  <style type="text/css">
*{stroke-linecap:butt;stroke-linejoin:round;}
  </style>
 </defs>
 <g id="figure_1">
  <g id="patch_1">
   <path d="
M0 319.938
L378.841 319.938
L378.841 0
L0 0
z
" style="fill:#ffffff;"/>
  </g>
  <g id="axes_1">
   <g id="patch_2">
    <path d="
M36.8406 244.518
L371.641 244.518
L371.641 21.3181
L36.8406 21.3181
z
" style="fill:#ffffff;"/>
   </g>
   <g id="line2d_1">
    <path clip-path="url(#pd0c402dd48)" d="
M0 0" style="fill:none;stroke:#0000ff;stroke-linecap:square;"/>
   </g>
   <g id="line2d_2">
    <path clip-path="url(#pd0c402dd48)" d="
M0 0" style="fill:none;stroke:#008000;stroke-linecap:square;"/>
   </g>
   <g id="line2d_3">
    <path clip-path="url(#pd0c402dd48)" d="
M0 0" style="fill:none;stroke:#ff0000;stroke-linecap:square;"/>
   </g>
   <g id="line2d_4">
    <path clip-path="url(#pd0c402dd48)" d="
M0 0" style="fill:none;stroke:#00bfbf;stroke-linecap:square;"/>
   </g>
   <g id="line2d_5">
    <path clip-path="url(#pd0c402dd48)" d="
M0 0" style="fill:none;stroke:#bf00bf;stroke-linecap:square;"/>
   </g>
   <g id="line2d_6">
    <path clip-path="url(#pd0c402dd48)" d="
M0 0" style="fill:none;stroke:#bfbf00;stroke-linecap:square;"/>
   </g>
   <g id="line2d_7">
    <path clip-path="url(#pd0c402dd48)" d="
M0 0" style="fill:none;stroke:#000000;stroke-linecap:square;"/>
   </g>
   <g id="line2d_8">
    <path clip-path="url(#pd0c402dd48)" d="
M0 0" style="fill:none;stroke:#0000ff;stroke-linecap:square;"/>
   </g>
   <g id="line2d_9">
    <path clip-path="url(#pd0c402dd48)" d="
M0 0" style="fill:none;stroke:#008000;stroke-linecap:square;"/>
   </g>
   <g id="line2d_10">
    <path clip-path="url(#pd0c402dd48)" d="
M36.8406 199.039
L37.7579 178.054
L38.6751 173.923
L39.5924 214.619
L40.5097 227.035
L41.4269 234.673
L42.3442 236.982
L43.2614 233.17
L44.1787 223.933
L45.096 230.047
M46.9305 227.923
L47.8477 228.176
L48.765 221.597
L49.6823 216.446
L50.5995 213.579
L51.5168 218.064
L52.434 212.153
L53.3513 208.825
L54.2686 234.862
L55.1858 238.636
L57.0204 208.987
L57.9376 205.736
L58.8549 220.008
L59.7721 213.613
L60.6894 210.937
L61.6067 229.132
L62.5239 236.414
M64.3584 242.242
L65.2757 235.975
L66.193 231.56
L67.1102 244.341
L68.0275 228.631
L68.9447 225.432
L69.862 228.908
L70.7793 239.746
L71.6965 215.369
L72.6138 225.648
L73.531 207.744
L74.4483 214.633
L75.3656 213.892
L76.2828 223.141
L77.2001 212.236
L78.1173 212.403
L79.0346 208.345
L79.9519 194.037
L80.8691 202.342
L81.7864 208.32
L82.7036 215.748
L83.6209 222.022
L84.5382 232.756
L85.4554 222.873
L86.3727 225.596
L87.2899 237.854
L88.2072 212.099
L89.1245 217.233
L90.0417 211.671
L90.959 204.009
L91.8762 219.341
L92.7935 225.668
L93.7108 211.37
L94.628 215.743
L95.5453 205.638
L96.4625 192.069
L97.3798 195.239
L98.2971 213.023
L99.2143 206.393
L100.132 203.134
L101.966 183.258
L102.883 222.284
L103.801 231.257
L104.718 217.509
L105.635 218.438
L106.552 206.578
L107.47 238.222
L108.387 228.747
L110.221 194.909
L111.139 190.611
L112.056 188.763
L112.973 215.352
L113.89 217.313
L114.808 233.982
L115.725 205.597
L116.642 220.353
L118.477 198.949
L119.394 207.118
L120.311 173.087
L121.229 172.889
L122.146 169.507
L123.063 199.876
L123.98 199.557
L125.815 218.413
L126.732 191.712
L127.649 203.599
L128.567 213.349
L129.484 188.975
L130.401 174.89
L131.318 175.99
L132.236 196.274
L133.153 210.613
L134.07 207.991
L135.905 163.579
L137.739 200.767
L138.657 199.912
L139.574 172.358
L140.491 199.053
L141.408 201.135
L142.326 173.593
L143.243 155.022
L144.16 140.794
L145.077 142.931
L145.995 197.042
L146.912 187.244
L147.829 192.393
L148.746 159.265
L149.664 139.556
L150.581 144.336
L151.498 158.115
L153.333 200.955
L154.25 185.354
L155.167 179.749
L156.084 164.924
L157.002 172.342
L157.919 172.621
L158.836 178.42
L159.754 205.741
L160.671 166.221
L161.588 163.5
L162.505 155.44
L163.423 176.428
L164.34 183.58
L165.257 216.212
L166.174 219.097
L167.092 215.463
L168.009 215.881
L168.926 174.866
L169.843 194.876
L170.761 210.312
L171.678 212.278
L172.595 198.722
L173.512 202.43
L174.43 195.321
L175.347 189.709
L176.264 211.764
L177.181 177.81
L178.099 219.364
L179.016 207.325
L179.933 185.562
L180.85 178.641
L181.768 192.004
L182.685 162.151
L184.52 194.781
L185.437 207.15
L186.354 184.174
L187.271 144.541
L188.189 138.843
L189.106 155.731
L190.023 169.977
L191.858 178.441
L192.775 183.226
L193.692 183.001
L194.609 192.779
L195.527 185.327
L196.444 186.304
L197.361 189.88
L198.278 176.149
L199.196 182.854
L200.113 182.823
L201.03 182.924
L201.947 177.431
L202.865 188.052
L203.782 201.203
L204.699 192.571
L205.617 189.767
L206.534 190.341
L207.451 194.72
L208.368 195.34
L209.286 190.03
L210.203 182.292
L211.12 183.089
L212.037 178.938
L212.955 183.849
L213.872 185.785
L214.789 184.739
L215.706 172.581
L217.541 189.689
L218.458 189.995
L219.375 188.653
L221.21 183.627
L222.127 195.319
L223.044 210.705
L223.962 197.852
L224.879 190.83
L225.796 175.674
L226.714 183.571
L227.631 186.195
L229.465 202.171
L230.383 192.214
L231.3 186.411
L232.217 190.502
L233.134 184.814
L234.052 190.615
L234.969 188.615
L235.886 191.434
L236.803 195.825
L237.721 196.643
L238.638 207.825
L239.555 199.333
L240.472 195.642
L241.39 194.993
L242.307 190.342
L243.224 183.754
L244.141 182.225
L245.059 190.617
L245.976 191.151
L246.893 191.264
L247.81 195.054
L248.728 205.192
L249.645 202.585
L250.562 209.862
L251.48 191.496
L252.397 186.225
L253.314 177.605
L254.231 183.576
L255.149 199.059
L256.066 198.046
L256.983 197.857
L257.9 174.618
L258.818 187.7
L260.652 209.122
L261.569 199.462
L262.487 174.175
L263.404 168.174
L264.321 183.986
L265.238 190.308
L266.156 186.429
L267.073 185.712
L267.99 186.221
L268.907 188.882
L269.825 190.264
L270.742 191.103
L271.659 185.697
L272.577 181.646
L274.411 188.385
L275.328 190.169
L276.246 193.522
L277.163 205.322
L278.08 225.888
L278.997 231.994
L279.915 216.276
L280.832 189.868
L281.749 171.878
L282.666 177.802
L283.584 178.567
L284.501 190.863
L285.418 190.243
L286.335 189.1
L287.253 194.616
L288.17 194.605
L289.087 210.732
L290.004 215.197
L290.922 236.992
L291.839 226.594
L292.756 204.812
L293.674 199.449
L294.591 188.338
L295.508 198.179
L296.425 235.409
L297.343 224.775
L298.26 199.728
L299.177 182.545
L300.094 187.107
L301.012 186.156
L301.929 186.201
L302.846 195.666
L303.763 190.798
L304.681 197.612
L305.598 202.637
L306.515 212.91
L307.432 193.95
L308.35 188.439
L309.267 175.669
L310.184 187.508
L311.101 189.311
L312.019 186.027
L312.936 192.464
L313.853 196.336
L314.77 198.366
L317.522 237.203
L318.44 239.733
L319.357 238.958
L320.274 225.404
L321.191 227.977
L322.109 216.642
L323.026 213.712
L323.943 236.371
L324.86 232.579
L325.778 240.208
L326.695 224.711
L327.612 215.346
L328.529 196.466
L329.447 197.206
L330.364 196.571
L331.281 183.241
L332.198 190.243
L334.033 216.974
L334.95 214.246
L335.867 221.06
L336.785 224.548
L337.702 195.444
L338.619 197.589
L339.537 207.722
L340.454 207.112
L341.371 219.014
L342.288 234.174
L343.206 226.459
L344.123 207.777
L345.04 226.708
L345.957 239.174
L346.875 212.767
L347.792 196.633
L348.709 193.255
L350.544 229.217
L352.378 199.515
L353.295 213.993
L354.213 225.586
L355.13 241.995
L356.047 242.306
L356.964 230.721
L357.882 225.113
L358.799 223.996
L359.716 215.744
L360.634 235.308
L361.551 220.161
L362.468 234.008
L363.385 237.343
L364.303 234.565
L365.22 228.487
M367.054 232.833
L367.972 240.798
L368.889 237.774
L370.723 199.445
L370.723 199.445" style="fill:none;stroke:#ff0000;stroke-linecap:square;"/>
   </g>
   <g id="line2d_11">
    <path clip-path="url(#pd0c402dd48)" d="
M36.8406 235.237
L37.7579 219.734
L38.6751 224.078
L39.5924 208.37
L40.5097 214.276
L41.4269 237.322
L43.2614 213.751
L44.1787 229.838
L45.096 213.512
L46.9305 231.462
L47.8477 218.98
L48.765 202.351
L49.6823 212.843
L50.5995 210.644
L51.5168 219.52
L52.434 216.775
L53.3513 218.516
L54.2686 218.814
L55.1858 196.83
L57.0204 242.575
L57.9376 241.514
M59.7721 240.476
L60.6894 225.805
L61.6067 228.207
L62.5239 223.215
L63.4412 211.985
L64.3584 215.846
L65.2757 208.235
L66.193 196.085
L67.1102 203.156
L68.0275 212.39
L68.9447 209.66
L70.7793 231.143
L71.6965 229.37
L72.6138 238.179
L73.531 230.965
L74.4483 227.982
L75.3656 239.114
L76.2828 227.05
L77.2001 238.918
L78.1173 214.865
L79.0346 213.881
L79.9519 235.416
L80.8691 215.151
L81.7864 209.601
L82.7036 212.066
L83.6209 201.385
L84.5382 204.619
L85.4554 223.642
L86.3727 205.322
L87.2899 221.309
L88.2072 224.212
L89.1245 207.905
L90.0417 194.44
L90.959 199.633
L91.8762 196.163
L92.7935 222.534
L93.7108 238.199
M95.5453 231.539
L96.4625 223.439
L97.3798 224.862
L98.2971 217.172
L99.2143 215.028
L100.132 198.309
L101.049 200.494
L101.966 199.666
L102.883 202.147
L103.801 236.978
L104.718 225.658
L106.552 193.245
L107.47 199.669
L108.387 186.993
L109.304 215.522
L110.221 228.112
L111.139 211.221
L112.056 212.673
L112.973 234.535
L114.808 190.705
L115.725 220.952
L116.642 225.281
L117.56 196.69
L118.477 231.12
L119.394 218.803
L120.311 232.931
L121.229 232.533
L122.146 209.507
L123.063 180.321
L124.898 161.115
L125.815 207.409
L126.732 201.891
L127.649 227.316
L128.567 213.119
L129.484 186.657
L130.401 204.582
L131.318 197.393
L132.236 205.747
L133.153 181.108
L134.07 177.415
L134.987 164.81
L135.905 154.191
L136.822 158.391
L138.657 174.029
L139.574 197.394
L140.491 188.253
L141.408 195.485
L142.326 199.478
L143.243 181.968
L144.16 223.49
L145.077 182.806
L145.995 188.431
L146.912 199.925
L147.829 202.672
L148.746 232.287
L149.664 204.573
L150.581 203.934
L151.498 211.019
L152.415 197.384
L153.333 179.638
L154.25 170.725
L155.167 171.838
L156.084 167.086
L157.002 184.287
L157.919 179.827
L158.836 196.995
L159.754 182.095
L160.671 153.562
L161.588 146.253
L162.505 161.722
L163.423 169.213
L164.34 183.189
L165.257 185.678
L166.174 191.263
L168.009 182.721
L168.926 177.111
L169.843 184.507
L170.761 184.88
L171.678 172.041
L172.595 182.561
L173.512 187.176
L174.43 195.534
L175.347 207.184
L176.264 232.453
L177.181 204.718
L178.099 206.868
L179.016 220.84
L179.933 223.247
L180.85 198.135
L181.768 198.581
L182.685 186.304
L183.602 201.115
L184.52 200.439
L185.437 199.909
L186.354 224.406
L187.271 223.927
L188.189 222.644
L189.106 195.05
L190.023 209.355
L190.94 178.893
L191.858 188.44
L192.775 203.641
L193.692 216.214
L194.609 202.774
L195.527 177.421
L197.361 161.877
L198.278 168.69
L199.196 172.908
L200.113 182.552
L201.03 185.997
L201.947 179.51
L202.865 176.916
L203.782 193.101
L204.699 200.232
L205.617 189.183
L206.534 196.086
L207.451 189.832
L208.368 191.492
L209.286 193.817
L210.203 195.695
L211.12 183.179
L212.955 197.943
L213.872 202.096
L214.789 185.481
L215.706 187.128
L216.624 185.009
L217.541 172.838
L218.458 181.31
L219.375 187.459
L220.293 194.672
L221.21 193.317
L222.127 197.85
L223.044 203.602
L223.962 188.772
L224.879 193.108
L225.796 198.259
L226.714 201.879
L227.631 201.534
L228.548 202.225
L229.465 196.797
L230.383 187.704
L231.3 189.709
L232.217 192.224
L233.134 192.356
L234.052 194.17
L234.969 202.076
L235.886 233.561
L236.803 240.247
L237.721 224.575
L239.555 178.729
L240.472 165.79
L241.39 175.833
L242.307 198.9
L243.224 200.474
L244.141 208.207
L245.059 198.985
L245.976 190.955
L246.893 187.218
L247.81 178.982
L248.728 183.425
L249.645 185.584
L250.562 190.308
L251.48 212.004
L252.397 203.482
L253.314 201.235
L254.231 197.845
L255.149 190.615
L256.066 198.623
L256.983 201.959
L257.9 208.379
L258.818 203.789
L259.735 202.871
L260.652 192.108
L261.569 187.362
L263.404 205.25
L264.321 204.111
L265.238 205.364
L266.156 199.551
L267.073 197.568
L267.99 187.009
L268.907 181.499
L269.825 185.204
L270.742 195.496
L271.659 204.159
L272.577 209.737
L273.494 203.48
L274.411 202.617
L275.328 200.928
L276.246 199.926
L277.163 208.539
L278.08 201.049
L278.997 197.799
L279.915 198.719
L280.832 183.527
L281.749 186.802
L282.666 194.118
L284.501 205.2
L285.418 221.063
L286.335 219.073
L287.253 206.07
L288.17 206.185
L289.087 219.478
M291.839 208.828
L292.756 196.941
L293.674 191.596
L294.591 206.003
L295.508 200.739
L296.425 199.152
L297.343 198.081
L298.26 214.856
L299.177 225.606
L300.094 216.661
L301.012 201.725
L301.929 203.713
L302.846 211.239
L303.763 229.089
L304.681 223.848
L305.598 225.988
L306.515 213.095
L307.432 216.354
L308.35 212.072
L309.267 200.176
L310.184 217.881
L311.101 240.977
L312.019 222.42
L313.853 234.12
L314.77 216.176
L315.688 213.94
L316.605 208.126
L317.522 195.188
L318.44 203.169
L319.357 195.431
L320.274 223.297
L321.191 223.215
L322.109 214.42
L323.026 207.79
L323.943 203.95
L324.86 226.444
L325.778 243.114
L326.695 236.858
L327.612 236
L328.529 206.57
L329.447 197.782
L330.364 187.7
L331.281 219.234
L332.198 196.168
L333.116 210.235
L334.95 230.402
L335.867 222.155
L336.785 217.825
L337.702 216.555
L338.619 212.526
L339.537 218.856
L340.454 222.882
L341.371 215.285
M343.206 215.892
L344.123 216.32
L345.04 212.707
M346.875 212.815
L347.792 210.631
L348.709 234.521
L349.626 220.798
L350.544 212.319
L351.461 205.616
L352.378 191.998
L354.213 240.797
L355.13 224.169
L356.047 231.086
M357.882 233.94
L358.799 237.51
L359.716 235.411
L360.634 230.154
L361.551 228.829
L362.468 243.043
L363.385 234.132
L364.303 211.653
L365.22 223.493
L366.137 227.188
L367.054 226.399
L367.972 216.479
L368.889 224.953
L369.806 240.805
L370.723 232.369
L370.723 232.369" style="fill:none;stroke:#00bfbf;stroke-linecap:square;"/>
   </g>
   <g id="line2d_12">
    <path clip-path="url(#pd0c402dd48)" d="
M36.8406 239.519
L37.7579 233.354
L38.6751 229.403
L39.5924 217.348
L40.5097 229.518
L41.4269 224.101
L42.3442 234.445
L43.2614 209.331
L44.1787 213.376
L45.096 218.557
L46.0132 202.266
L46.9305 208.956
L47.8477 235.726
L48.765 226.283
L49.6823 202.588
L50.5995 217.667
L51.5168 215.23
L52.434 229.47
L53.3513 230.67
L54.2686 224.915
L55.1858 218.184
L56.1031 223.01
M57.9376 228.543
L58.8549 235.195
L59.7721 239.576
M61.6067 235.101
L62.5239 229.972
L63.4412 226.656
M65.2757 230.569
L66.193 218.549
L67.1102 226.385
L68.0275 231.455
L68.9447 234.867
L69.862 227.308
L70.7793 240.138
L71.6965 239.951
L72.6138 232.372
L73.531 217.034
L74.4483 232.562
L75.3656 225.522
L76.2828 236.944
L77.2001 221.064
M79.0346 242.508
L79.9519 242.206
L80.8691 237.488
L81.7864 226.436
L82.7036 223.719
L83.6209 226.464
L84.5382 193.016
L85.4554 194.534
L86.3727 227.27
L87.2899 227.674
L88.2072 204.401
L89.1245 218.919
L90.0417 224.377
L90.959 207.922
L91.8762 204.852
L92.7935 222.822
L93.7108 219.378
L94.628 222.276
L95.5453 213.5
L96.4625 200.166
L97.3798 228.621
L98.2971 211.714
L99.2143 203.082
L100.132 203.685
L101.049 204.775
L101.966 231.019
L102.883 207.482
L103.801 178.708
L104.718 187.539
L105.635 175.742
L106.552 187.045
L107.47 180.457
L108.387 191.185
L109.304 205.189
L110.221 214.947
L111.139 186.293
L112.056 183.634
L112.973 217.062
L113.89 225.899
L114.808 194.001
L115.725 186.494
L116.642 208.532
L117.56 239.328
L118.477 211.54
L119.394 236.906
L120.311 233.082
L121.229 219.079
L122.146 217.574
L123.063 228.008
L123.98 202.986
L124.898 185.507
L125.815 198.649
L126.732 180.189
L127.649 182.228
L128.567 182.919
L129.484 210.217
L130.401 209.554
L131.318 176.57
L132.236 166.922
L133.153 170.389
L134.07 169.385
L134.987 161.424
L135.905 162.725
L136.822 201.16
L137.739 227.86
L138.657 219.781
L139.574 188.835
L140.491 181.155
L141.408 170.102
L142.326 172.546
L143.243 215.227
L144.16 231.729
L145.077 217.217
L145.995 224.052
L146.912 215.192
L147.829 177.658
L148.746 202.924
L149.664 156.372
L150.581 190.74
L151.498 191.636
L152.415 159.465
L153.333 146.094
L154.25 148.732
L155.167 204.553
L156.084 177.676
L157.002 170.537
L157.919 169.662
L158.836 149.392
L159.754 151.723
L160.671 162.951
L161.588 184.741
L162.505 232.994
L163.423 196.697
L164.34 195.91
L165.257 205.46
M167.092 213.619
L168.009 200.073
L168.926 171.724
L169.843 204.431
L170.761 198.786
L171.678 209.183
L172.595 201.493
L173.512 178.549
L174.43 213.223
L175.347 204.02
L176.264 227.952
L177.181 201.936
L178.099 235.772
L179.016 191.849
L179.933 222.435
L180.85 178.637
L181.768 181.703
L182.685 201.289
L183.602 213.521
L184.52 196.206
L185.437 170.973
L186.354 169.84
L187.271 159.324
L189.106 188.028
L190.023 196.067
L190.94 180.414
L191.858 177.933
L192.775 195.524
L193.692 200.147
L194.609 173.812
L196.444 181.764
L197.361 193.252
L198.278 177.845
L199.196 180.914
L200.113 186.107
L201.03 199.148
L201.947 185.705
L202.865 183.195
L203.782 201.434
L204.699 206.28
L205.617 184.64
L206.534 189.255
L207.451 174.134
L208.368 161.296
L209.286 168.543
L210.203 166.757
L212.037 181.72
L212.955 186.712
L214.789 189.964
L215.706 181.462
L216.624 178.687
L217.541 164.465
L218.458 168.618
L219.375 182.228
L220.293 188.512
L221.21 188.538
L222.127 189.62
L223.044 180.812
L223.962 183.467
L224.879 187.654
L225.796 211.803
L226.714 189.599
L227.631 197.284
L228.548 197.485
L229.465 192.473
L230.383 190.383
L231.3 186.402
L232.217 186.598
L233.134 190.794
L234.052 184.499
L234.969 186.382
L235.886 200.956
L236.803 193.491
L237.721 195.364
L238.638 205.079
L239.555 209.922
L240.472 223.94
L242.307 194.415
L243.224 191.887
L244.141 173.527
L245.059 170.898
L245.976 182.047
L247.81 190.247
L248.728 189.117
L249.645 194.185
L250.562 195.94
L251.48 198.279
L252.397 191.455
L253.314 187.35
L254.231 188.485
L255.149 176.818
L256.066 196.029
L256.983 231.633
L257.9 214.274
L258.818 209.384
L259.735 202.77
L260.652 175.224
L261.569 170.04
L262.487 177.204
L263.404 188.591
L264.321 189.796
L265.238 189.871
L266.156 219.875
L267.073 236.267
L267.99 191.632
L268.907 186.826
L269.825 174.14
L270.742 169.2
L271.659 179.478
L272.577 184.441
L273.494 192.162
L274.411 198.316
L275.328 194.953
L276.246 203.736
L277.163 204.827
L278.08 199.812
L278.997 198.97
L279.915 191.111
L280.832 178.075
L281.749 183.02
L282.666 181.932
L283.584 178.174
L284.501 183.886
L285.418 192.679
L286.335 194.745
L287.253 195.479
L288.17 196.645
L290.004 232.616
L290.922 224.105
L291.839 221.16
L292.756 205.759
L293.674 228.4
L294.591 215.514
L295.508 207.559
L296.425 213.389
L297.343 195.684
L298.26 188.358
L299.177 187.775
L300.094 190.24
L301.012 197.631
L301.929 197.087
L302.846 197.011
L303.763 192.549
L304.681 193.439
L305.598 191.757
L306.515 197.527
L307.432 226.561
L308.35 241.429
L309.267 230.67
L310.184 236.962
L311.101 215.315
L312.019 187.179
L312.936 185.883
L313.853 193.334
L314.77 227.912
L315.688 205.288
L316.605 204.715
L317.522 205.761
L318.44 190.88
L319.357 198.712
L320.274 205.198
L321.191 226.573
L322.109 235.644
L323.026 224.183
L323.943 242.347
L324.86 232.821
L325.778 216.215
L326.695 217.935
L327.612 240.401
L328.529 225.618
L329.447 219.698
L330.364 202.767
L331.281 210.934
L332.198 244.348
L333.116 242.581
L334.033 238.203
M335.867 241.567
L336.785 214.727
L337.702 210.252
L338.619 209.82
L339.537 208.711
L340.454 229.085
L341.371 203.739
L342.288 213.436
M344.123 237.535
L345.04 220.397
L346.875 237.994
L347.792 237.512
L348.709 227.343
L349.626 213.132
L350.544 228.375
L351.461 231.977
L352.378 234.971
L353.295 227.275
L354.213 226.315
L355.13 233.1
L356.047 232.023
L356.964 218.088
L357.882 217.575
L358.799 226.029
L359.716 238.758
L360.634 231.246
L361.551 216.452
L362.468 234.477
L363.385 233.762
L365.22 185.85
L366.137 222.878
L367.054 230.272
L367.972 234.81
M369.806 239.949
L370.723 231.317
L370.723 231.317" style="fill:none;stroke:#bf00bf;stroke-linecap:square;"/>
   </g>
   <g id="line2d_13">
    <path clip-path="url(#pd0c402dd48)" d="
M36.8406 221.617
L37.7579 221.394
L38.6751 230.332
L39.5924 234.537
L40.5097 211.446
L41.4269 217.115
L42.3442 214.197
L43.2614 220.308
L44.1787 233.808
L45.096 240.554
L46.0132 218.578
L46.9305 222.29
L47.8477 242.993
L48.765 235.543
L49.6823 233.545
L50.5995 242.203
L51.5168 234.955
L52.434 237.896
L53.3513 239.772
L54.2686 219.281
L55.1858 234.668
L56.1031 235.12
L57.0204 204.815
L57.9376 234.819
L58.8549 238.8
L59.7721 238.314
L60.6894 236.547
L61.6067 235.566
L62.5239 235.206
L63.4412 242.327
L64.3584 221.58
L66.193 204.324
L67.1102 210.881
L68.0275 225.698
L68.9447 219.503
L69.862 216.594
L70.7793 221.002
L71.6965 229.738
L72.6138 222.185
L73.531 215.576
L74.4483 205.747
L76.2828 190.873
L77.2001 192.718
L78.1173 202.687
L79.0346 223.199
L79.9519 233.102
L80.8691 237.485
L81.7864 234.313
M83.6209 226.531
L84.5382 229.682
L85.4554 223.868
L86.3727 240.008
L87.2899 240.147
L88.2072 216.692
L89.1245 208.741
L90.0417 211.584
L90.959 188.352
L91.8762 209.641
L93.7108 227.374
L95.5453 237.226
L96.4625 238.362
L97.3798 244.369
L98.2971 229.751
L99.2143 223.321
L100.132 240.959
L101.049 220.207
L101.966 235.03
L102.883 212.799
L103.801 226.17
M105.635 240.576
L106.552 213.329
L107.47 234.108
L108.387 215.734
L109.304 227.305
L110.221 224.539
L111.139 215.478
L112.056 231.549
L112.973 240.772
M114.808 243.828
L115.725 222.811
L116.642 229.211
L117.56 229.28
L118.477 191.564
L119.394 190.605
L120.311 201.357
L121.229 220.958
L122.146 209.171
L123.063 214.685
L123.98 216.295
L124.898 208.912
L125.815 218.323
L126.732 223.93
L127.649 203.209
L128.567 207.139
L129.484 183.356
L130.401 214.247
L131.318 188.418
L132.236 210.332
L133.153 215.261
L134.07 201.438
L134.987 202.309
L135.905 176.608
L136.822 212.946
L137.739 223.143
L138.657 180.63
L139.574 162.075
L140.491 196.624
L141.408 220.966
L142.326 198.155
L143.243 184.36
L144.16 220.428
L145.077 188.262
L145.995 192.156
L146.912 181.426
L147.829 189.811
L148.746 176.503
L149.664 171.489
L150.581 177.248
L151.498 214.538
L152.415 199.485
L153.333 216.654
L154.25 207.768
L155.167 180.958
L157.002 170.967
L157.919 171.605
L159.754 223.193
L160.671 234.271
L161.588 211.332
L162.505 225.834
L163.423 166.663
L164.34 166.829
L165.257 189.475
L166.174 178.31
L167.092 214.065
L168.009 215.246
L168.926 206.072
L169.843 201.143
L170.761 226.135
L171.678 225.003
L172.595 227.199
L173.512 191.897
L174.43 191.449
L175.347 186.629
L176.264 216.69
L177.181 177.204
L178.099 181.74
L179.016 173.4
L179.933 201.074
L180.85 216.983
L181.768 194.47
L182.685 209.09
L183.602 201.832
L184.52 197.762
L185.437 180.493
L186.354 199.172
L187.271 175.844
L188.189 174.908
L189.106 192.902
L190.023 176.043
L190.94 216.379
L191.858 214.985
L192.775 169.885
L193.692 175.499
L194.609 171.566
L195.527 175.751
L196.444 182.396
L197.361 186.154
L198.278 193.14
L199.196 184.557
L200.113 179.842
L201.03 206
L201.947 189.676
L202.865 189.189
L203.782 185.748
L204.699 179.627
L205.617 177.542
L206.534 182.994
L207.451 186.561
L208.368 212.857
L209.286 195.385
L210.203 190.007
L211.12 195.113
L212.037 192.135
L212.955 182.395
L213.872 199.095
L214.789 199.773
L215.706 195.587
L216.624 198.67
L217.541 184.906
L218.458 180.709
L219.375 193.184
L220.293 195.661
L221.21 193.52
L222.127 196.968
L223.044 184.468
L223.962 175.422
L225.796 190.867
L226.714 193.314
L227.631 197.529
L228.548 193.905
L229.465 187.545
L230.383 194.525
L231.3 195.192
L232.217 199.703
L233.134 197.238
L234.052 209.907
L234.969 195.957
L235.886 196.698
L236.803 199.327
L237.721 195.015
L238.638 192.182
L239.555 196.56
L240.472 194.321
L241.39 195.467
L242.307 197.017
L243.224 194.916
L244.141 191.46
L245.059 194.118
L245.976 196.18
L246.893 197.294
L247.81 187.603
L248.728 194.269
L249.645 198.496
L250.562 195.364
L251.48 195.35
L252.397 195.12
L253.314 202.185
L254.231 199.954
L255.149 211.297
L256.066 203.997
L256.983 203.405
L257.9 203.494
L258.818 202.286
L259.735 206.266
L260.652 198.95
L261.569 200.219
L262.487 188.431
L263.404 181.559
L264.321 190.701
L265.238 192.502
L266.156 195.592
L267.073 203.602
L267.99 201.635
L268.907 206.603
L269.825 205.162
L270.742 204.845
L271.659 204.725
L272.577 224.795
L273.494 212.276
L274.411 203.862
L275.328 200.254
L276.246 197.907
L277.163 192.332
L278.08 185.85
L278.997 191.288
L279.915 191.44
L280.832 191.909
L281.749 202.809
L282.666 205.927
L283.584 204.698
L284.501 210.569
L285.418 198.336
L286.335 195.247
L287.253 201.638
L288.17 203.656
L289.087 204.191
L290.004 232.689
L290.922 239.691
M292.756 243.435
L293.674 218.067
L294.591 200.62
L295.508 226.211
L296.425 219.125
L297.343 201.641
L298.26 198.837
L299.177 193.515
L300.094 206.771
L301.012 236.441
L301.929 209.902
L302.846 202.542
L303.763 210.31
L304.681 199.445
L305.598 203.835
L306.515 211.99
L307.432 208.649
L308.35 223.36
L310.184 197.636
L311.101 201.798
L312.019 189.846
L312.936 188.388
L313.853 197.769
L314.77 219.175
L315.688 207.489
L316.605 198.459
L317.522 204.492
L318.44 222.782
L319.357 234.018
L320.274 238.002
L321.191 239.364
L322.109 219.872
L323.026 197.953
L323.943 193.708
L324.86 201.238
L325.778 224.582
L326.695 229.215
L327.612 204.646
L328.529 199.172
L329.447 209.532
L330.364 234.043
L331.281 236.791
L332.198 232.433
L333.116 211.184
L334.033 221.558
L334.95 223.486
L335.867 195.342
L336.785 213.617
L337.702 220.698
L338.619 195.975
L339.537 200.208
L340.454 213.11
L341.371 230.4
L342.288 220.648
L343.206 205.777
L344.123 208.018
L345.04 214.759
L345.957 216.353
L346.875 214.712
L347.792 202.268
L348.709 203.985
L349.626 199.908
L350.544 196.687
L351.461 203.868
L352.378 209.211
L353.295 208.296
L354.213 217.632
L355.13 210.245
L356.047 221.456
L356.964 222.371
L357.882 220.083
L359.716 210.085
L360.634 203.993
L361.551 218.105
L362.468 200.043
L363.385 196.422
L364.303 200.744
L365.22 198.791
L366.137 206.726
L367.054 218.097
L367.972 231.343
L368.889 224.163
L369.806 241.261
L370.723 219.623
L370.723 219.623" style="fill:none;stroke:#bfbf00;stroke-linecap:square;"/>
   </g>
   <g id="line2d_14">
    <path clip-path="url(#pd0c402dd48)" d="
M36.8406 198.918
L37.7579 198.629
L38.6751 194.16
L39.5924 180.386
L40.5097 198.939
L41.4269 222.598
L42.3442 227.226
L43.2614 220.477
L44.1787 219.541
L45.096 231.392
L46.0132 210.139
L46.9305 218.365
L47.8477 196.381
L48.765 182.919
L49.6823 201.482
L50.5995 217.381
L51.5168 204.513
L53.3513 243.311
M55.1858 239.188
L56.1031 229.091
L57.0204 243.21
L57.9376 232.969
L58.8549 228.562
L59.7721 236.651
L60.6894 210.874
L62.5239 191.065
L63.4412 215.719
L64.3584 199.911
L65.2757 223.882
L66.193 227.786
L67.1102 211.606
L68.0275 207.301
L68.9447 202.046
L69.862 202.496
L70.7793 194.172
L71.6965 222.744
L72.6138 239.121
L73.531 219.096
L74.4483 233.237
L75.3656 237.224
L76.2828 221.787
L77.2001 229.296
L78.1173 232.85
L79.0346 216.095
L79.9519 211.749
L80.8691 222.553
L81.7864 218.033
L82.7036 224.191
L83.6209 244.165
L84.5382 226.976
L85.4554 214.235
L86.3727 191.626
L87.2899 219.654
L88.2072 214.272
L89.1245 206.401
L90.0417 201.229
L90.959 217.506
L91.8762 236.836
L92.7935 215.24
L93.7108 221.209
L94.628 200.428
L95.5453 193.402
L96.4625 213.466
L97.3798 199.005
L98.2971 193.883
L99.2143 192.278
L100.132 171.215
L101.049 198.215
L101.966 213.974
L102.883 223.023
L103.801 244.457
L104.718 223.947
L105.635 235.028
L106.552 233.772
M108.387 225.839
L109.304 227.337
L110.221 206.399
L111.139 165.752
L112.056 190.305
L112.973 170.746
L114.808 232.434
L115.725 197.496
L116.642 217.629
L117.56 223.408
L118.477 231.726
L119.394 179.885
L120.311 182.614
L121.229 189.417
L122.146 185.459
L123.063 202.775
L123.98 189.893
L124.898 187.699
L125.815 178.123
L126.732 152.628
L127.649 159.343
L128.567 144.84
L129.484 196.305
L130.401 204.3
L131.318 216.73
L132.236 202.157
L133.153 183.359
L134.07 215.267
L134.987 194.422
L135.905 200.851
L136.822 211.494
L137.739 180.758
L138.657 164.165
L139.574 156.594
L140.491 179.384
L141.408 187.987
L142.326 206.047
L143.243 241.694
L144.16 204.551
L145.077 209.939
L145.995 191.944
L146.912 209.617
L147.829 177.517
L148.746 176.317
L149.664 213.449
L150.581 230.46
L151.498 195.427
L152.415 170.762
L153.333 166.962
L154.25 152.713
L155.167 152.301
L157.002 174.17
L157.919 177.447
L158.836 174.594
L159.754 158.879
L160.671 186.441
L161.588 176.868
L162.505 201.667
L163.423 193.966
L164.34 189.169
L165.257 188.017
L167.092 207.096
L168.009 208.306
L168.926 202.143
L169.843 229.56
L170.761 229.058
L171.678 205.352
L172.595 166.599
L173.512 158.653
L174.43 165.677
L175.347 169.371
L176.264 172.165
L177.181 198.764
L178.099 184.936
L179.016 195.817
L179.933 233.802
L180.85 196.198
L181.768 197.155
L182.685 196.783
L183.602 218.198
L184.52 189.937
L185.437 173.214
L186.354 174.389
L187.271 159.039
L188.189 152.43
L189.106 171.779
L190.023 183.554
L190.94 175.117
L191.858 182.961
L192.775 193.636
L193.692 183.557
L194.609 185.305
L195.527 171.054
L196.444 168.897
L197.361 174.874
L198.278 184.409
L199.196 191.139
L200.113 178.837
L201.03 178.01
L201.947 182.007
L202.865 166.412
L203.782 191.16
L204.699 190.288
L205.617 185.921
L206.534 190.643
L207.451 186.36
L208.368 192.055
L209.286 184.806
L210.203 194.992
L211.12 190.289
L212.037 190.824
L212.955 194.659
L213.872 193.526
L214.789 211.591
L215.706 214.194
L216.624 205.861
L217.541 211.456
L218.458 191.054
L219.375 187.474
L220.293 187.692
L221.21 183.601
L222.127 191.802
L223.044 188.779
L223.962 199.738
L225.796 191.178
L226.714 195.395
L227.631 190.368
L228.548 194.823
L229.465 192.623
L230.383 197.548
L232.217 192.207
L233.134 194.666
L234.052 197.812
L234.969 195.842
L235.886 194.689
L236.803 191.131
L237.721 186.272
L238.638 196.75
L239.555 197.515
L240.472 203.967
L241.39 200.803
L242.307 201.133
L243.224 199.336
L245.059 195.202
L245.976 199.678
L246.893 203.586
L247.81 199.192
L248.728 209.957
L249.645 201.537
L250.562 200.591
L251.48 201.719
L252.397 197.36
L253.314 193.971
L254.231 196.259
L255.149 197.509
L256.066 200.264
L256.983 184.633
L257.9 197.1
L258.818 197.925
L259.735 203.244
L260.652 203.135
L261.569 185.241
L262.487 188.402
L263.404 195.425
L264.321 188.348
L265.238 201.892
L266.156 192.415
L267.073 191.454
L267.99 194.075
L268.907 196.127
L269.825 199.78
L270.742 195.174
L271.659 197.032
L272.577 186.025
L273.494 178.444
L274.411 189.146
L275.328 194.367
L277.163 200.213
L278.08 200.947
L278.997 200.687
L279.915 198.218
L280.832 224.598
L281.749 211.496
L282.666 208.62
L283.584 207.095
L284.501 191.781
L285.418 193.44
L286.335 197.259
L287.253 198.192
L288.17 198.351
L289.087 198.923
L290.004 200.836
L290.922 202.244
L291.839 200.042
L292.756 200.891
L293.674 184.006
L294.591 178.742
L295.508 184.043
L296.425 183.265
L297.343 187.819
L298.26 189.185
L299.177 218.108
L300.094 206.712
L301.012 212.967
L301.929 217.051
L302.846 204.18
L303.763 200.214
L304.681 205.957
L305.598 213.272
L306.515 198.812
L307.432 234.808
L308.35 241.622
L309.267 230.906
L310.184 233.157
L311.101 213.764
L312.019 216.831
L312.936 231.697
L313.853 202.937
L314.77 192.261
L315.688 190.801
L316.605 212.421
L317.522 212.432
L318.44 216.101
L319.357 212.916
L320.274 213.506
L321.191 204.103
L322.109 215.174
L323.943 241.59
L324.86 235.179
L325.778 235.231
L326.695 227.916
L327.612 230.183
L328.529 227.491
L329.447 218.763
L330.364 212.93
L331.281 229.444
L332.198 226.755
L334.033 222.297
L334.95 231.809
L335.867 210.718
L336.785 197.32
L337.702 222.666
L338.619 229.579
L340.454 212.427
L341.371 218.17
L342.288 221.207
L343.206 230.286
L344.123 232.095
L345.04 238.244
L345.957 216.321
L346.875 226.932
L347.792 235.146
L348.709 226.118
L349.626 219.469
L350.544 231.034
L351.461 223.332
L352.378 236.913
L353.295 222.665
L354.213 238.59
L355.13 223.938
L356.047 233.975
L356.964 235.293
L357.882 244.405
L358.799 232.781
L359.716 227.02
L360.634 224.351
L361.551 194.395
L362.468 187.321
L363.385 208.791
L364.303 233.142
L365.22 234.707
L366.137 226.592
L367.054 237.434
L367.972 240.1
L368.889 225.453
L369.806 226.313
L370.723 241.451
L370.723 241.451" style="fill:none;stroke:#000000;stroke-linecap:square;"/>
   </g>
   <g id="line2d_15">
    <path clip-path="url(#pd0c402dd48)" d="
M36.8406 226.594
L37.7579 220.179
L38.6751 179.899
L39.5924 152.945
L40.5097 120.715
L41.4269 149.794
L42.3442 185.138
L43.2614 213.827
L44.1787 129.2
L45.096 203.29
L46.0132 189.788
L46.9305 141.896
L47.8477 178.119
L48.765 208.041
L49.6823 162.525
L50.5995 168.673
L51.5168 159.991
L52.434 67.9915
L53.3513 62.2992
L54.2686 134.045
L55.1858 101.661
L56.1031 28.0039
L57.0204 31.372
L57.9376 136.909
L58.8549 213.77
L59.7721 217.005
L60.6894 209.909
L61.6067 223.775
L62.5239 244.093
L63.4412 240.005
L65.2757 198.742
L66.193 181.675
L67.1102 170.931
L68.0275 140.126
L68.9447 150.886
L69.862 167.119
L70.7793 149.84
L71.6965 189.491
L73.531 137.883
L74.4483 102.359
L75.3656 175.661
L76.2828 178.066
L77.2001 149.808
L78.1173 128.736
L79.0346 147.602
L79.9519 196.247
L80.8691 116.816
L81.7864 146.932
L82.7036 187.301
L83.6209 164.452
L84.5382 210.352
L86.3727 175.404
L88.2072 148.873
L89.1245 106.132
L90.0417 149.391
L90.959 179.157
L91.8762 144.515
L93.7108 62.627
L94.628 95.071
L95.5453 163.628
L96.4625 144.694
L97.3798 94.6203
L98.2971 86.4922
L99.2143 56.2465
L100.132 159.106
L101.049 133.605
L101.966 84.5252
L102.883 60.6674
L103.801 94.7826
L104.718 142.565
L105.635 130.237
L106.552 145.223
L107.47 96.7712
L108.387 148.738
L109.304 151.998
L110.221 169.467
L111.139 93.4358
L112.056 89.0754
L112.973 79.3984
L113.89 149.445
L114.808 114.949
L115.725 49.9929
L116.642 82.8031
L118.477 73.2419
L119.394 129.753
L120.311 120.455
L121.229 101.739
L122.146 144.228
L123.063 178.076
L123.98 190.759
L124.898 212.337
L125.815 162.816
L126.732 129.703
L127.649 134.347
L128.567 121.281
L129.484 70.7285
L130.401 119.813
L131.318 109.211
L132.236 166.196
L133.153 113.68
L134.07 79.6183
L134.987 51.9373
L135.905 167.75
L136.822 143.262
L137.739 92.1495
L138.657 85.4401
L139.574 62.7372
L140.491 58.0785
L141.408 37.6312
L142.326 67.9306
L143.243 32.7937
L144.16 42.5672
L145.077 103.959
L145.995 113.303
L146.912 117.036
L147.829 92.3614
L148.746 80.6182
L149.664 106.112
L150.581 39.7511
L151.498 62.0876
L152.415 131.575
L153.333 142.823
L154.25 103.888
L155.167 103.876
L156.084 103.261
L157.002 96.2519
L157.919 107.776
L158.836 134.357
L159.754 128.778
L161.588 207.225
L162.505 167.878
L163.423 173.018
L164.34 130.652
L165.257 101.748
L166.174 129.283
L167.092 64.9965
L168.009 65.3109
L168.926 105.008
L169.843 159.177
L170.761 146.942
L171.678 200.804
L172.595 186.288
L173.512 145.582
L174.43 121.574
L175.347 73.3596
L176.264 68.456
L177.181 93.3274
L178.099 82.1141
L179.016 66.8084
L179.933 96.9412
L180.85 94.8923
L181.768 98.4587
L182.685 96.4499
L183.602 119.841
L184.52 139.256
L185.437 139.052
L186.354 148.411
L187.271 168.07
L188.189 115.346
L190.94 82.3065
L191.858 171.899
L192.775 163.194
L193.692 171.036
L194.609 160.825
L195.527 124.713
L196.444 176.391
L197.361 204.878
L198.278 149.188
L199.196 84.1928
L200.113 97.6061
L201.03 91.5664
L201.947 88.3654
L202.865 129.299
M301.929 111.621
L302.846 115.856
L303.763 91.7534
L304.681 103.912
L305.598 112.051
L306.515 103.498
L307.432 97.777
L308.35 96.3208
L309.267 109.883
L310.184 108.401
L311.101 112.88
L312.019 195.117
L312.936 218.752
L313.853 203.391
L314.77 206.767
L315.688 186.008
L316.605 178.824
L317.522 192.974
L318.44 162.882
L319.357 186.698
L320.274 200.962
L321.191 160.091
L322.109 125.587
L323.026 101.815
L323.943 67.3605
L324.86 89.6107
L325.778 94.5409
L326.695 139.788
L327.612 153.198
L328.529 198.246
L329.447 209.207
L330.364 185.288
L331.281 138.063
L332.198 184.238
L333.116 177.055
L334.033 116.786
L334.95 102.778
L335.867 127.349
L336.785 113.884
L337.702 96.3766
L338.619 81.7826
L339.537 93.3064
L340.454 127.259
L341.371 132.567
L342.288 186.263
L343.206 202.605
L344.123 182.65
L345.04 168.103
L345.957 208.618
L347.792 184.023
L348.709 206.933
L349.626 146.131
L350.544 76.6127
L352.378 155.661
L353.295 104.127
L354.213 134.625
L355.13 139.234
L356.047 62.3074
L356.964 66.5535
L357.882 44.0955
L358.799 124.695
L359.716 191.357
L360.634 164.287
L361.551 211.113
L362.468 216.993
L363.385 180.764
L364.303 136.83
L365.22 76.5818
L366.137 86.0221
L367.054 82.7289
L367.972 144.503
L368.889 118.371
L369.806 142.426
L370.723 163.139
L370.723 163.139" style="fill:none;stroke:#0000ff;stroke-linecap:square;"/>
   </g>
   <g id="line2d_16">
    <path clip-path="url(#pd0c402dd48)" d="
M36.8406 233.467
L37.7579 225.522
L38.6751 221.905
L39.5924 227.425
L40.5097 217.793
L41.4269 212.24
L42.3442 220.822
L43.2614 244.491
L44.1787 226.857
L45.096 236.004
L46.0132 234.395
L46.9305 238.525
L47.8477 237.071
L48.765 227.643
L49.6823 215.373
L50.5995 216.122
L51.5168 214.209
L52.434 222.02
L53.3513 214.412
L54.2686 219.644
L55.1858 220.696
L56.1031 225.751
L57.0204 219.705
M72.6138 231.151
L73.531 224.558
L74.4483 228.646
L75.3656 235.908
L76.2828 231.352
L77.2001 230.66
L78.1173 224.129
L79.0346 231.035
L79.9519 208.163
L80.8691 230.904
L81.7864 231.829
L82.7036 235.621
L83.6209 224.871
L84.5382 225.324
L86.3727 210.687
L87.2899 209.121
L88.2072 213.573
L89.1245 228.387
L90.0417 219.375
L90.959 234.243
L91.8762 231.35
L92.7935 234.084
L93.7108 205.565
L94.628 223.279
L95.5453 217.369
L96.4625 215.689
L97.3798 197.248
L98.2971 222.437
L99.2143 236.301
L100.132 208.823
L101.049 194.614
L101.966 188.765
L102.883 215.115
L103.801 186.623
L104.718 180.179
L105.635 213.587
L106.552 217.01
L107.47 182.992
L108.387 183.476
L109.304 191.74
L110.221 172.64
L111.139 166.341
L112.056 177.296
L112.973 200.532
L113.89 203.998
M115.725 223.438
L116.642 227.951
L117.56 217.507
L118.477 199.309
L119.394 236.965
L120.311 226.506
L121.229 197.205
L122.146 199.547
L123.063 197.175
L123.98 188.769
L124.898 168.77
L125.815 175.881
L126.732 175.438
L127.649 172.39
L128.567 172.47
L129.484 183.636
L130.401 188.829
L131.318 177.631
L132.236 183.291
L133.153 178.881
L134.07 180.218
L134.987 174.925
L135.905 173.23
L136.822 172.319
L137.739 176.29
L138.657 224.412
L139.574 197.199
L140.491 208.376
L141.408 227.924
L142.326 207.372
L143.243 195.564
L144.16 189.643
L145.077 164.404
L145.995 155.424
L146.912 152.965
L147.829 154.894
L148.746 166.793
L150.581 203.752
L151.498 193.659
L152.415 194.245
L153.333 197.43
L154.25 194.396
L155.167 201.13
L156.084 171.835
L157.002 171.132
L157.919 166.963
L158.836 162.231
L159.754 156.282
L160.671 181.016
L161.588 166.134
L162.505 194.576
L163.423 185.17
L164.34 202.352
L165.257 207.416
L166.174 177.057
L167.092 169.537
L168.009 187.782
L168.926 187.814
L169.843 175.072
L170.761 176.632
L171.678 192.176
L172.595 178.533
L173.512 185.298
L174.43 181.205
L175.347 193.799
L176.264 170.774
L177.181 163.999
L178.099 176.323
L179.016 176.782
L179.933 172.904
L180.85 189.519
L181.768 180.948
L182.685 179.263
L183.602 181.279
L184.52 177.664
L185.437 184.038
L186.354 205.116
L187.271 205.204
L188.189 197.721
L189.106 203.027
L190.023 209.022
L190.94 213.866
L191.858 160.749
L192.775 172.196
L194.609 157.264
L195.527 158.128
L196.444 183.526
L197.361 217.747
L198.278 205.488
L199.196 207.168
L200.113 190.651
L201.03 184.285
L201.947 176.141
L202.865 170.136
L203.782 185.916
L204.699 184.952
L205.617 180.173
L206.534 179.063
L208.368 194.108
L209.286 199.471
L210.203 212.133
L211.12 193.271
L212.037 196.464
L212.955 192.4
L213.872 193.467
L214.789 190.859
L215.706 195.202
L217.541 206.082
L218.458 200.161
L219.375 203.53
L220.293 197.111
L221.21 215.285
L223.044 194.159
L223.962 194.875
L224.879 195.071
L225.796 185.629
L226.714 188.979
L227.631 198.424
L228.548 188.832
L229.465 198.968
L230.383 196.528
L231.3 204.076
L232.217 205.782
L233.134 202.009
L234.052 202.313
L234.969 209.94
L235.886 208.676
L236.803 203.5
L237.721 206.636
L238.638 202.776
L239.555 194.425
L240.472 198.989
L241.39 197.904
L242.307 218.431
L243.224 203.877
L244.141 201.429
L245.059 203.317
L245.976 192.459
L246.893 191.178
L247.81 201.539
L248.728 206.067
L249.645 201.464
L250.562 206.083
L251.48 212.835
L252.397 205.644
L253.314 212.659
L255.149 191.559
L256.066 189.602
L256.983 191.831
L257.9 206.847
L258.818 203.314
L259.735 201.777
L260.652 200.837
L261.569 206.24
L262.487 194.12
L263.404 187.273
L264.321 191.081
L265.238 196.958
L266.156 189.825
L267.073 194.25
L267.99 201.75
L268.907 203.821
L269.825 203.305
L270.742 207.752
L271.659 197.845
L272.577 195.043
L273.494 195.151
L274.411 202.914
L275.328 212.166
L276.246 210.798
L277.163 209.72
L278.08 221.334
L278.997 216.363
L279.915 220.819
L280.832 201.854
L281.749 209.191
L282.666 212.13
L283.584 226.571
L284.501 231.43
L285.418 237.032
L286.335 217.694
L288.17 197.9
L289.087 197.941
L290.004 194.326
L290.922 194.778
L291.839 196.978
L293.674 202.318
L294.591 206.864
L295.508 212.073
L297.343 224.684
L298.26 209.856
L299.177 214.846
L300.094 225.958
L301.012 218.54
L301.929 200.931
L303.763 218.777
L304.681 205.757
L305.598 225.228
L306.515 217.678
L307.432 231.712
L308.35 219.214
L309.267 224.391
L311.101 219.289
L312.019 207.918
L312.936 219.308
L313.853 214.887
L314.77 218.827
L315.688 233.176
M317.522 231.88
L318.44 233.697
L319.357 226.355
L320.274 215.247
L321.191 218.767
L322.109 215.435
L323.026 225.245
L323.943 231.105
L324.86 229.1
L325.778 214.502
L326.695 228.671
M328.529 241.734
L329.447 229.548
L330.364 226.262
L331.281 224.208
L332.198 220.111
L333.116 215.056
L334.033 221.979
L334.95 233.729
L335.867 228.635
L336.785 221.122
L337.702 235.041
L338.619 222.033
L339.537 221.611
L340.454 214.272
L341.371 230.664
L342.288 226.392
L343.206 234.983
L344.123 233.379
L345.04 229.391
L346.875 220.743
L347.792 230.535
L348.709 225.493
L349.626 235.379
L350.544 228.861
L351.461 226.045
L352.378 224.859
L353.295 236.523
L354.213 241.769
L355.13 227.79
L356.047 229.56
L356.964 237.565
L357.882 231.939
L358.799 237.018
L359.716 239.926
L360.634 241.503
L361.551 241.384
L362.468 244.024
L363.385 233.129
L364.303 240.084
L365.22 244.085
M367.054 238.636
L367.972 243.474
L368.889 243.461
L368.889 243.461" style="fill:none;stroke:#008000;stroke-linecap:square;"/>
   </g>
   <g id="patch_3">
    <path d="
M36.8406 21.3181
L371.641 21.3181" style="fill:none;stroke:#000000;stroke-linecap:square;stroke-linejoin:miter;"/>
   </g>
   <g id="patch_4">
    <path d="
M371.641 244.518
L371.641 21.3181" style="fill:none;stroke:#000000;stroke-linecap:square;stroke-linejoin:miter;"/>
   </g>
   <g id="patch_5">
    <path d="
M36.8406 244.518
L36.8406 21.3181" style="fill:none;stroke:#000000;stroke-linecap:square;stroke-linejoin:miter;"/>
   </g>
   <g id="patch_6">
    <path d="
M36.8406 244.518
L371.641 244.518" style="fill:none;stroke:#000000;stroke-linecap:square;stroke-linejoin:miter;"/>
   </g>
   <g id="matplotlib.axis_1">
    <g id="xtick_1">
     <g id="line2d_17">
      <defs>
       <path d="
M0 0
L0 -4" id="mc7db9fdffb" style="stroke:#000000;stroke-width:0.5;"/>
      </defs>
      <g>
       <use style="stroke:#000000;stroke-width:0.5;" x="36.840625" xlink:href="#mc7db9fdffb" y="244.518125"/>
      </g>
     </g>
     <g id="line2d_18">
      <defs>
       <path d="
M0 0
L0 4" id="m5a7d422ac3" style="stroke:#000000;stroke-width:0.5;"/>
      </defs>
      <g>
       <use style="stroke:#000000;stroke-width:0.5;" x="36.840625" xlink:href="#m5a7d422ac3" y="21.318125"/>
      </g>
     </g>
     <g id="text_1">
      <!-- 0 -->
      <defs>
       <path d="
M31.7812 66.4062
Q24.1719 66.4062 20.3281 58.9062
Q16.5 51.4219 16.5 36.375
Q16.5 21.3906 20.3281 13.8906
Q24.1719 6.39062 31.7812 6.39062
Q39.4531 6.39062 43.2812 13.8906
Q47.125 21.3906 47.125 36.375
Q47.125 51.4219 43.2812 58.9062
Q39.4531 66.4062 31.7812 66.4062
M31.7812 74.2188
Q44.0469 74.2188 50.5156 64.5156
Q56.9844 54.8281 56.9844 36.375
Q56.9844 17.9688 50.5156 8.26562
Q44.0469 -1.42188 31.7812 -1.42188
Q19.5312 -1.42188 13.0625 8.26562
Q6.59375 17.9688 6.59375 36.375
Q6.59375 54.8281 13.0625 64.5156
Q19.5312 74.2188 31.7812 74.2188" id="BitstreamVeraSans-Roman-30"/>
      </defs>
      <g transform="translate(34.32109375 256.1165625)scale(0.1 -0.1)">
       <use xlink:href="#BitstreamVeraSans-Roman-30"/>
      </g>
     </g>
    </g>
    <g id="xtick_2">
     <g id="line2d_19">
      <g>
       <use style="stroke:#000000;stroke-width:0.5;" x="82.7036386986" xlink:href="#mc7db9fdffb" y="244.518125"/>
      </g>
     </g>
     <g id="line2d_20">
      <g>
       <use style="stroke:#000000;stroke-width:0.5;" x="82.7036386986" xlink:href="#m5a7d422ac3" y="21.318125"/>
      </g>
     </g>
     <g id="text_2">
      <!-- 50 -->
      <defs>
       <path d="
M10.7969 72.9062
L49.5156 72.9062
L49.5156 64.5938
L19.8281 64.5938
L19.8281 46.7344
Q21.9688 47.4688 24.1094 47.8281
Q26.2656 48.1875 28.4219 48.1875
Q40.625 48.1875 47.75 41.5
Q54.8906 34.8125 54.8906 23.3906
Q54.8906 11.625 47.5625 5.09375
Q40.2344 -1.42188 26.9062 -1.42188
Q22.3125 -1.42188 17.5469 -0.640625
Q12.7969 0.140625 7.71875 1.70312
L7.71875 11.625
Q12.1094 9.23438 16.7969 8.0625
Q21.4844 6.89062 26.7031 6.89062
Q35.1562 6.89062 40.0781 11.3281
Q45.0156 15.7656 45.0156 23.3906
Q45.0156 31 40.0781 35.4375
Q35.1562 39.8906 26.7031 39.8906
Q22.75 39.8906 18.8125 39.0156
Q14.8906 38.1406 10.7969 36.2812
z
" id="BitstreamVeraSans-Roman-35"/>
      </defs>
      <g transform="translate(77.0591074486 256.1165625)scale(0.1 -0.1)">
       <use xlink:href="#BitstreamVeraSans-Roman-35"/>
       <use x="63.623046875" xlink:href="#BitstreamVeraSans-Roman-30"/>
      </g>
     </g>
    </g>
    <g id="xtick_3">
     <g id="line2d_21">
      <g>
       <use style="stroke:#000000;stroke-width:0.5;" x="128.566652397" xlink:href="#mc7db9fdffb" y="244.518125"/>
      </g>
     </g>
     <g id="line2d_22">
      <g>
       <use style="stroke:#000000;stroke-width:0.5;" x="128.566652397" xlink:href="#m5a7d422ac3" y="21.318125"/>
      </g>
     </g>
     <g id="text_3">
      <!-- 100 -->
      <defs>
       <path d="
M12.4062 8.29688
L28.5156 8.29688
L28.5156 63.9219
L10.9844 60.4062
L10.9844 69.3906
L28.4219 72.9062
L38.2812 72.9062
L38.2812 8.29688
L54.3906 8.29688
L54.3906 0
L12.4062 0
z
" id="BitstreamVeraSans-Roman-31"/>
      </defs>
      <g transform="translate(119.904152397 256.1165625)scale(0.1 -0.1)">
       <use xlink:href="#BitstreamVeraSans-Roman-31"/>
       <use x="63.623046875" xlink:href="#BitstreamVeraSans-Roman-30"/>
       <use x="127.24609375" xlink:href="#BitstreamVeraSans-Roman-30"/>
      </g>
     </g>
    </g>
    <g id="xtick_4">
     <g id="line2d_23">
      <g>
       <use style="stroke:#000000;stroke-width:0.5;" x="174.429666096" xlink:href="#mc7db9fdffb" y="244.518125"/>
      </g>
     </g>
     <g id="line2d_24">
      <g>
       <use style="stroke:#000000;stroke-width:0.5;" x="174.429666096" xlink:href="#m5a7d422ac3" y="21.318125"/>
      </g>
     </g>
     <g id="text_4">
      <!-- 150 -->
      <g transform="translate(165.767166096 256.1165625)scale(0.1 -0.1)">
       <use xlink:href="#BitstreamVeraSans-Roman-31"/>
       <use x="63.623046875" xlink:href="#BitstreamVeraSans-Roman-35"/>
       <use x="127.24609375" xlink:href="#BitstreamVeraSans-Roman-30"/>
      </g>
     </g>
    </g>
    <g id="xtick_5">
     <g id="line2d_25">
      <g>
       <use style="stroke:#000000;stroke-width:0.5;" x="220.292679795" xlink:href="#mc7db9fdffb" y="244.518125"/>
      </g>
     </g>
     <g id="line2d_26">
      <g>
       <use style="stroke:#000000;stroke-width:0.5;" x="220.292679795" xlink:href="#m5a7d422ac3" y="21.318125"/>
      </g>
     </g>
     <g id="text_5">
      <!-- 200 -->
      <defs>
       <path d="
M19.1875 8.29688
L53.6094 8.29688
L53.6094 0
L7.32812 0
L7.32812 8.29688
Q12.9375 14.1094 22.625 23.8906
Q32.3281 33.6875 34.8125 36.5312
Q39.5469 41.8438 41.4219 45.5312
Q43.3125 49.2188 43.3125 52.7812
Q43.3125 58.5938 39.2344 62.25
Q35.1562 65.9219 28.6094 65.9219
Q23.9688 65.9219 18.8125 64.3125
Q13.6719 62.7031 7.8125 59.4219
L7.8125 69.3906
Q13.7656 71.7812 18.9375 73
Q24.125 74.2188 28.4219 74.2188
Q39.75 74.2188 46.4844 68.5469
Q53.2188 62.8906 53.2188 53.4219
Q53.2188 48.9219 51.5312 44.8906
Q49.8594 40.875 45.4062 35.4062
Q44.1875 33.9844 37.6406 27.2188
Q31.1094 20.4531 19.1875 8.29688" id="BitstreamVeraSans-Roman-32"/>
      </defs>
      <g transform="translate(211.447367295 256.1165625)scale(0.1 -0.1)">
       <use xlink:href="#BitstreamVeraSans-Roman-32"/>
       <use x="63.623046875" xlink:href="#BitstreamVeraSans-Roman-30"/>
       <use x="127.24609375" xlink:href="#BitstreamVeraSans-Roman-30"/>
      </g>
     </g>
    </g>
    <g id="xtick_6">
     <g id="line2d_27">
      <g>
       <use style="stroke:#000000;stroke-width:0.5;" x="266.155693493" xlink:href="#mc7db9fdffb" y="244.518125"/>
      </g>
     </g>
     <g id="line2d_28">
      <g>
       <use style="stroke:#000000;stroke-width:0.5;" x="266.155693493" xlink:href="#m5a7d422ac3" y="21.318125"/>
      </g>
     </g>
     <g id="text_6">
      <!-- 250 -->
      <g transform="translate(257.310380993 256.1165625)scale(0.1 -0.1)">
       <use xlink:href="#BitstreamVeraSans-Roman-32"/>
       <use x="63.623046875" xlink:href="#BitstreamVeraSans-Roman-35"/>
       <use x="127.24609375" xlink:href="#BitstreamVeraSans-Roman-30"/>
      </g>
     </g>
    </g>
    <g id="xtick_7">
     <g id="line2d_29">
      <g>
       <use style="stroke:#000000;stroke-width:0.5;" x="312.018707192" xlink:href="#mc7db9fdffb" y="244.518125"/>
      </g>
     </g>
     <g id="line2d_30">
      <g>
       <use style="stroke:#000000;stroke-width:0.5;" x="312.018707192" xlink:href="#m5a7d422ac3" y="21.318125"/>
      </g>
     </g>
     <g id="text_7">
      <!-- 300 -->
      <defs>
       <path d="
M40.5781 39.3125
Q47.6562 37.7969 51.625 33
Q55.6094 28.2188 55.6094 21.1875
Q55.6094 10.4062 48.1875 4.48438
Q40.7656 -1.42188 27.0938 -1.42188
Q22.5156 -1.42188 17.6562 -0.515625
Q12.7969 0.390625 7.625 2.20312
L7.625 11.7188
Q11.7188 9.32812 16.5938 8.10938
Q21.4844 6.89062 26.8125 6.89062
Q36.0781 6.89062 40.9375 10.5469
Q45.7969 14.2031 45.7969 21.1875
Q45.7969 27.6406 41.2812 31.2656
Q36.7656 34.9062 28.7188 34.9062
L20.2188 34.9062
L20.2188 43.0156
L29.1094 43.0156
Q36.375 43.0156 40.2344 45.9219
Q44.0938 48.8281 44.0938 54.2969
Q44.0938 59.9062 40.1094 62.9062
Q36.1406 65.9219 28.7188 65.9219
Q24.6562 65.9219 20.0156 65.0312
Q15.375 64.1562 9.8125 62.3125
L9.8125 71.0938
Q15.4375 72.6562 20.3438 73.4375
Q25.25 74.2188 29.5938 74.2188
Q40.8281 74.2188 47.3594 69.1094
Q53.9062 64.0156 53.9062 55.3281
Q53.9062 49.2656 50.4375 45.0938
Q46.9688 40.9219 40.5781 39.3125" id="BitstreamVeraSans-Roman-33"/>
      </defs>
      <g transform="translate(303.188238442 256.1165625)scale(0.1 -0.1)">
       <use xlink:href="#BitstreamVeraSans-Roman-33"/>
       <use x="63.623046875" xlink:href="#BitstreamVeraSans-Roman-30"/>
       <use x="127.24609375" xlink:href="#BitstreamVeraSans-Roman-30"/>
      </g>
     </g>
    </g>
    <g id="xtick_8">
     <g id="line2d_31">
      <g>
       <use style="stroke:#000000;stroke-width:0.5;" x="357.88172089" xlink:href="#mc7db9fdffb" y="244.518125"/>
      </g>
     </g>
     <g id="line2d_32">
      <g>
       <use style="stroke:#000000;stroke-width:0.5;" x="357.88172089" xlink:href="#m5a7d422ac3" y="21.318125"/>
      </g>
     </g>
     <g id="text_8">
      <!-- 350 -->
      <g transform="translate(349.05125214 256.1165625)scale(0.1 -0.1)">
       <use xlink:href="#BitstreamVeraSans-Roman-33"/>
       <use x="63.623046875" xlink:href="#BitstreamVeraSans-Roman-35"/>
       <use x="127.24609375" xlink:href="#BitstreamVeraSans-Roman-30"/>
      </g>
     </g>
    </g>
    <g id="text_9">
     <!-- Julian day -->
     <defs>
      <path d="
M9.8125 72.9062
L19.6719 72.9062
L19.6719 5.07812
Q19.6719 -8.10938 14.6719 -14.0625
Q9.67188 -20.0156 -1.42188 -20.0156
L-5.17188 -20.0156
L-5.17188 -11.7188
L-2.09375 -11.7188
Q4.4375 -11.7188 7.125 -8.04688
Q9.8125 -4.39062 9.8125 5.07812
z
" id="BitstreamVeraSans-Roman-4a"/>
      <path d="
M9.42188 54.6875
L18.4062 54.6875
L18.4062 0
L9.42188 0
z

M9.42188 75.9844
L18.4062 75.9844
L18.4062 64.5938
L9.42188 64.5938
z
" id="BitstreamVeraSans-Roman-69"/>
      <path d="
M45.4062 46.3906
L45.4062 75.9844
L54.3906 75.9844
L54.3906 0
L45.4062 0
L45.4062 8.20312
Q42.5781 3.32812 38.25 0.953125
Q33.9375 -1.42188 27.875 -1.42188
Q17.9688 -1.42188 11.7344 6.48438
Q5.51562 14.4062 5.51562 27.2969
Q5.51562 40.1875 11.7344 48.0938
Q17.9688 56 27.875 56
Q33.9375 56 38.25 53.625
Q42.5781 51.2656 45.4062 46.3906
M14.7969 27.2969
Q14.7969 17.3906 18.875 11.75
Q22.9531 6.10938 30.0781 6.10938
Q37.2031 6.10938 41.2969 11.75
Q45.4062 17.3906 45.4062 27.2969
Q45.4062 37.2031 41.2969 42.8438
Q37.2031 48.4844 30.0781 48.4844
Q22.9531 48.4844 18.875 42.8438
Q14.7969 37.2031 14.7969 27.2969" id="BitstreamVeraSans-Roman-64"/>
      <path d="
M34.2812 27.4844
Q23.3906 27.4844 19.1875 25
Q14.9844 22.5156 14.9844 16.5
Q14.9844 11.7188 18.1406 8.90625
Q21.2969 6.10938 26.7031 6.10938
Q34.1875 6.10938 38.7031 11.4062
Q43.2188 16.7031 43.2188 25.4844
L43.2188 27.4844
z

M52.2031 31.2031
L52.2031 0
L43.2188 0
L43.2188 8.29688
Q40.1406 3.32812 35.5469 0.953125
Q30.9531 -1.42188 24.3125 -1.42188
Q15.9219 -1.42188 10.9531 3.29688
Q6 8.01562 6 15.9219
Q6 25.1406 12.1719 29.8281
Q18.3594 34.5156 30.6094 34.5156
L43.2188 34.5156
L43.2188 35.4062
Q43.2188 41.6094 39.1406 45
Q35.0625 48.3906 27.6875 48.3906
Q23 48.3906 18.5469 47.2656
Q14.1094 46.1406 10.0156 43.8906
L10.0156 52.2031
Q14.9375 54.1094 19.5781 55.0469
Q24.2188 56 28.6094 56
Q40.4844 56 46.3438 49.8438
Q52.2031 43.7031 52.2031 31.2031" id="BitstreamVeraSans-Roman-61"/>
      <path id="BitstreamVeraSans-Roman-20"/>
      <path d="
M8.5 21.5781
L8.5 54.6875
L17.4844 54.6875
L17.4844 21.9219
Q17.4844 14.1562 20.5 10.2656
Q23.5312 6.39062 29.5938 6.39062
Q36.8594 6.39062 41.0781 11.0312
Q45.3125 15.6719 45.3125 23.6875
L45.3125 54.6875
L54.2969 54.6875
L54.2969 0
L45.3125 0
L45.3125 8.40625
Q42.0469 3.42188 37.7188 1
Q33.4062 -1.42188 27.6875 -1.42188
Q18.2656 -1.42188 13.375 4.4375
Q8.5 10.2969 8.5 21.5781" id="BitstreamVeraSans-Roman-75"/>
      <path d="
M9.42188 75.9844
L18.4062 75.9844
L18.4062 0
L9.42188 0
z
" id="BitstreamVeraSans-Roman-6c"/>
      <path d="
M54.8906 33.0156
L54.8906 0
L45.9062 0
L45.9062 32.7188
Q45.9062 40.4844 42.875 44.3281
Q39.8438 48.1875 33.7969 48.1875
Q26.5156 48.1875 22.3125 43.5469
Q18.1094 38.9219 18.1094 30.9062
L18.1094 0
L9.07812 0
L9.07812 54.6875
L18.1094 54.6875
L18.1094 46.1875
Q21.3438 51.125 25.7031 53.5625
Q30.0781 56 35.7969 56
Q45.2188 56 50.0469 50.1719
Q54.8906 44.3438 54.8906 33.0156" id="BitstreamVeraSans-Roman-6e"/>
      <path d="
M32.1719 -5.07812
Q28.375 -14.8438 24.75 -17.8125
Q21.1406 -20.7969 15.0938 -20.7969
L7.90625 -20.7969
L7.90625 -13.2812
L13.1875 -13.2812
Q16.8906 -13.2812 18.9375 -11.5156
Q21 -9.76562 23.4844 -3.21875
L25.0938 0.875
L2.98438 54.6875
L12.5 54.6875
L29.5938 11.9219
L46.6875 54.6875
L56.2031 54.6875
z
" id="BitstreamVeraSans-Roman-79"/>
     </defs>
     <g transform="translate(179.68984375 270.7946875)scale(0.1 -0.1)">
      <use xlink:href="#BitstreamVeraSans-Roman-4a"/>
      <use x="29.4921875" xlink:href="#BitstreamVeraSans-Roman-75"/>
      <use x="92.87109375" xlink:href="#BitstreamVeraSans-Roman-6c"/>
      <use x="120.654296875" xlink:href="#BitstreamVeraSans-Roman-69"/>
      <use x="148.4375" xlink:href="#BitstreamVeraSans-Roman-61"/>
      <use x="209.716796875" xlink:href="#BitstreamVeraSans-Roman-6e"/>
      <use x="273.095703125" xlink:href="#BitstreamVeraSans-Roman-20"/>
      <use x="304.8828125" xlink:href="#BitstreamVeraSans-Roman-64"/>
      <use x="368.359375" xlink:href="#BitstreamVeraSans-Roman-61"/>
      <use x="429.638671875" xlink:href="#BitstreamVeraSans-Roman-79"/>
     </g>
    </g>
   </g>
   <g id="matplotlib.axis_2">
    <g id="ytick_1">
     <g id="line2d_33">
      <defs>
       <path d="
M0 0
L4 0" id="md7965d1ba0" style="stroke:#000000;stroke-width:0.5;"/>
      </defs>
      <g>
       <use style="stroke:#000000;stroke-width:0.5;" x="36.840625" xlink:href="#md7965d1ba0" y="244.518125"/>
      </g>
     </g>
     <g id="line2d_34">
      <defs>
       <path d="
M0 0
L-4 0" id="md9a1c1a7cd" style="stroke:#000000;stroke-width:0.5;"/>
      </defs>
      <g>
       <use style="stroke:#000000;stroke-width:0.5;" x="371.640625" xlink:href="#md9a1c1a7cd" y="244.518125"/>
      </g>
     </g>
     <g id="text_10">
      <!-- 0 -->
      <g transform="translate(27.8015625 247.2775)scale(0.1 -0.1)">
       <use xlink:href="#BitstreamVeraSans-Roman-30"/>
      </g>
     </g>
    </g>
    <g id="ytick_2">
     <g id="line2d_35">
      <g>
       <use style="stroke:#000000;stroke-width:0.5;" x="36.840625" xlink:href="#md7965d1ba0" y="199.878125"/>
      </g>
     </g>
     <g id="line2d_36">
      <g>
       <use style="stroke:#000000;stroke-width:0.5;" x="371.640625" xlink:href="#md9a1c1a7cd" y="199.878125"/>
      </g>
     </g>
     <g id="text_11">
      <!-- 2 -->
      <g transform="translate(28.2125 202.6375)scale(0.1 -0.1)">
       <use xlink:href="#BitstreamVeraSans-Roman-32"/>
      </g>
     </g>
    </g>
    <g id="ytick_3">
     <g id="line2d_37">
      <g>
       <use style="stroke:#000000;stroke-width:0.5;" x="36.840625" xlink:href="#md7965d1ba0" y="155.238125"/>
      </g>
     </g>
     <g id="line2d_38">
      <g>
       <use style="stroke:#000000;stroke-width:0.5;" x="371.640625" xlink:href="#md9a1c1a7cd" y="155.238125"/>
      </g>
     </g>
     <g id="text_12">
      <!-- 4 -->
      <defs>
       <path d="
M37.7969 64.3125
L12.8906 25.3906
L37.7969 25.3906
z

M35.2031 72.9062
L47.6094 72.9062
L47.6094 25.3906
L58.0156 25.3906
L58.0156 17.1875
L47.6094 17.1875
L47.6094 0
L37.7969 0
L37.7969 17.1875
L4.89062 17.1875
L4.89062 26.7031
z
" id="BitstreamVeraSans-Roman-34"/>
      </defs>
      <g transform="translate(27.528125 157.9975)scale(0.1 -0.1)">
       <use xlink:href="#BitstreamVeraSans-Roman-34"/>
      </g>
     </g>
    </g>
    <g id="ytick_4">
     <g id="line2d_39">
      <g>
       <use style="stroke:#000000;stroke-width:0.5;" x="36.840625" xlink:href="#md7965d1ba0" y="110.598125"/>
      </g>
     </g>
     <g id="line2d_40">
      <g>
       <use style="stroke:#000000;stroke-width:0.5;" x="371.640625" xlink:href="#md9a1c1a7cd" y="110.598125"/>
      </g>
     </g>
     <g id="text_13">
      <!-- 6 -->
      <defs>
       <path d="
M33.0156 40.375
Q26.375 40.375 22.4844 35.8281
Q18.6094 31.2969 18.6094 23.3906
Q18.6094 15.5312 22.4844 10.9531
Q26.375 6.39062 33.0156 6.39062
Q39.6562 6.39062 43.5312 10.9531
Q47.4062 15.5312 47.4062 23.3906
Q47.4062 31.2969 43.5312 35.8281
Q39.6562 40.375 33.0156 40.375
M52.5938 71.2969
L52.5938 62.3125
Q48.875 64.0625 45.0938 64.9844
Q41.3125 65.9219 37.5938 65.9219
Q27.8281 65.9219 22.6719 59.3281
Q17.5312 52.7344 16.7969 39.4062
Q19.6719 43.6562 24.0156 45.9219
Q28.375 48.1875 33.5938 48.1875
Q44.5781 48.1875 50.9531 41.5156
Q57.3281 34.8594 57.3281 23.3906
Q57.3281 12.1562 50.6875 5.35938
Q44.0469 -1.42188 33.0156 -1.42188
Q20.3594 -1.42188 13.6719 8.26562
Q6.98438 17.9688 6.98438 36.375
Q6.98438 53.6562 15.1875 63.9375
Q23.3906 74.2188 37.2031 74.2188
Q40.9219 74.2188 44.7031 73.4844
Q48.4844 72.75 52.5938 71.2969" id="BitstreamVeraSans-Roman-36"/>
      </defs>
      <g transform="translate(27.80625 113.3575)scale(0.1 -0.1)">
       <use xlink:href="#BitstreamVeraSans-Roman-36"/>
      </g>
     </g>
    </g>
    <g id="ytick_5">
     <g id="line2d_41">
      <g>
       <use style="stroke:#000000;stroke-width:0.5;" x="36.840625" xlink:href="#md7965d1ba0" y="65.958125"/>
      </g>
     </g>
     <g id="line2d_42">
      <g>
       <use style="stroke:#000000;stroke-width:0.5;" x="371.640625" xlink:href="#md9a1c1a7cd" y="65.958125"/>
      </g>
     </g>
     <g id="text_14">
      <!-- 8 -->
      <defs>
       <path d="
M31.7812 34.625
Q24.75 34.625 20.7188 30.8594
Q16.7031 27.0938 16.7031 20.5156
Q16.7031 13.9219 20.7188 10.1562
Q24.75 6.39062 31.7812 6.39062
Q38.8125 6.39062 42.8594 10.1719
Q46.9219 13.9688 46.9219 20.5156
Q46.9219 27.0938 42.8906 30.8594
Q38.875 34.625 31.7812 34.625
M21.9219 38.8125
Q15.5781 40.375 12.0312 44.7188
Q8.5 49.0781 8.5 55.3281
Q8.5 64.0625 14.7188 69.1406
Q20.9531 74.2188 31.7812 74.2188
Q42.6719 74.2188 48.875 69.1406
Q55.0781 64.0625 55.0781 55.3281
Q55.0781 49.0781 51.5312 44.7188
Q48 40.375 41.7031 38.8125
Q48.8281 37.1562 52.7969 32.3125
Q56.7812 27.4844 56.7812 20.5156
Q56.7812 9.90625 50.3125 4.23438
Q43.8438 -1.42188 31.7812 -1.42188
Q19.7344 -1.42188 13.25 4.23438
Q6.78125 9.90625 6.78125 20.5156
Q6.78125 27.4844 10.7812 32.3125
Q14.7969 37.1562 21.9219 38.8125
M18.3125 54.3906
Q18.3125 48.7344 21.8438 45.5625
Q25.3906 42.3906 31.7812 42.3906
Q38.1406 42.3906 41.7188 45.5625
Q45.3125 48.7344 45.3125 54.3906
Q45.3125 60.0625 41.7188 63.2344
Q38.1406 66.4062 31.7812 66.4062
Q25.3906 66.4062 21.8438 63.2344
Q18.3125 60.0625 18.3125 54.3906" id="BitstreamVeraSans-Roman-38"/>
      </defs>
      <g transform="translate(27.840625 68.7175)scale(0.1 -0.1)">
       <use xlink:href="#BitstreamVeraSans-Roman-38"/>
      </g>
     </g>
    </g>
    <g id="ytick_6">
     <g id="line2d_43">
      <g>
       <use style="stroke:#000000;stroke-width:0.5;" x="36.840625" xlink:href="#md7965d1ba0" y="21.318125"/>
      </g>
     </g>
     <g id="line2d_44">
      <g>
       <use style="stroke:#000000;stroke-width:0.5;" x="371.640625" xlink:href="#md9a1c1a7cd" y="21.318125"/>
      </g>
     </g>
     <g id="text_15">
      <!-- 10 -->
      <g transform="translate(21.878125 24.0775)scale(0.1 -0.1)">
       <use xlink:href="#BitstreamVeraSans-Roman-31"/>
       <use x="63.623046875" xlink:href="#BitstreamVeraSans-Roman-30"/>
      </g>
     </g>
    </g>
    <g id="text_16">
     <!-- PET (mm/day) -->
     <defs>
      <path d="
M19.6719 64.7969
L19.6719 37.4062
L32.0781 37.4062
Q38.9688 37.4062 42.7188 40.9688
Q46.4844 44.5312 46.4844 51.125
Q46.4844 57.6719 42.7188 61.2344
Q38.9688 64.7969 32.0781 64.7969
z

M9.8125 72.9062
L32.0781 72.9062
Q44.3438 72.9062 50.6094 67.3594
Q56.8906 61.8125 56.8906 51.125
Q56.8906 40.3281 50.6094 34.8125
Q44.3438 29.2969 32.0781 29.2969
L19.6719 29.2969
L19.6719 0
L9.8125 0
z
" id="BitstreamVeraSans-Roman-50"/>
      <path d="
M-0.296875 72.9062
L61.375 72.9062
L61.375 64.5938
L35.5 64.5938
L35.5 0
L25.5938 0
L25.5938 64.5938
L-0.296875 64.5938
z
" id="BitstreamVeraSans-Roman-54"/>
      <path d="
M31 75.875
Q24.4688 64.6562 21.2812 53.6562
Q18.1094 42.6719 18.1094 31.3906
Q18.1094 20.125 21.3125 9.0625
Q24.5156 -2 31 -13.1875
L23.1875 -13.1875
Q15.875 -1.70312 12.2344 9.375
Q8.59375 20.4531 8.59375 31.3906
Q8.59375 42.2812 12.2031 53.3125
Q15.8281 64.3594 23.1875 75.875
z
" id="BitstreamVeraSans-Roman-28"/>
      <path d="
M52 44.1875
Q55.375 50.25 60.0625 53.125
Q64.75 56 71.0938 56
Q79.6406 56 84.2812 50.0156
Q88.9219 44.0469 88.9219 33.0156
L88.9219 0
L79.8906 0
L79.8906 32.7188
Q79.8906 40.5781 77.0938 44.375
Q74.3125 48.1875 68.6094 48.1875
Q61.625 48.1875 57.5625 43.5469
Q53.5156 38.9219 53.5156 30.9062
L53.5156 0
L44.4844 0
L44.4844 32.7188
Q44.4844 40.625 41.7031 44.4062
Q38.9219 48.1875 33.1094 48.1875
Q26.2188 48.1875 22.1562 43.5312
Q18.1094 38.875 18.1094 30.9062
L18.1094 0
L9.07812 0
L9.07812 54.6875
L18.1094 54.6875
L18.1094 46.1875
Q21.1875 51.2188 25.4844 53.6094
Q29.7812 56 35.6875 56
Q41.6562 56 45.8281 52.9688
Q50 49.9531 52 44.1875" id="BitstreamVeraSans-Roman-6d"/>
      <path d="
M8.01562 75.875
L15.8281 75.875
Q23.1406 64.3594 26.7812 53.3125
Q30.4219 42.2812 30.4219 31.3906
Q30.4219 20.4531 26.7812 9.375
Q23.1406 -1.70312 15.8281 -13.1875
L8.01562 -13.1875
Q14.5 -2 17.7031 9.0625
Q20.9062 20.125 20.9062 31.3906
Q20.9062 42.6719 17.7031 53.6562
Q14.5 64.6562 8.01562 75.875" id="BitstreamVeraSans-Roman-29"/>
      <path d="
M25.3906 72.9062
L33.6875 72.9062
L8.29688 -9.28125
L0 -9.28125
z
" id="BitstreamVeraSans-Roman-2f"/>
      <path d="
M9.8125 72.9062
L55.9062 72.9062
L55.9062 64.5938
L19.6719 64.5938
L19.6719 43.0156
L54.3906 43.0156
L54.3906 34.7188
L19.6719 34.7188
L19.6719 8.29688
L56.7812 8.29688
L56.7812 0
L9.8125 0
z
" id="BitstreamVeraSans-Roman-45"/>
     </defs>
     <g transform="translate(14.7984375 167.82984375)rotate(-90.0)scale(0.1 -0.1)">
      <use xlink:href="#BitstreamVeraSans-Roman-50"/>
      <use x="60.302734375" xlink:href="#BitstreamVeraSans-Roman-45"/>
      <use x="123.486328125" xlink:href="#BitstreamVeraSans-Roman-54"/>
      <use x="184.5703125" xlink:href="#BitstreamVeraSans-Roman-20"/>
      <use x="216.357421875" xlink:href="#BitstreamVeraSans-Roman-28"/>
      <use x="255.37109375" xlink:href="#BitstreamVeraSans-Roman-6d"/>
      <use x="352.783203125" xlink:href="#BitstreamVeraSans-Roman-6d"/>
      <use x="450.1953125" xlink:href="#BitstreamVeraSans-Roman-2f"/>
      <use x="483.88671875" xlink:href="#BitstreamVeraSans-Roman-64"/>
      <use x="547.36328125" xlink:href="#BitstreamVeraSans-Roman-61"/>
      <use x="608.642578125" xlink:href="#BitstreamVeraSans-Roman-79"/>
      <use x="667.822265625" xlink:href="#BitstreamVeraSans-Roman-29"/>
     </g>
    </g>
   </g>
   <g id="text_17">
    <!-- daily tree PET at Treeline -->
    <defs>
     <path d="
M18.3125 70.2188
L18.3125 54.6875
L36.8125 54.6875
L36.8125 47.7031
L18.3125 47.7031
L18.3125 18.0156
Q18.3125 11.3281 20.1406 9.42188
Q21.9688 7.51562 27.5938 7.51562
L36.8125 7.51562
L36.8125 0
L27.5938 0
Q17.1875 0 13.2344 3.875
Q9.28125 7.76562 9.28125 18.0156
L9.28125 47.7031
L2.6875 47.7031
L2.6875 54.6875
L9.28125 54.6875
L9.28125 70.2188
z
" id="BitstreamVeraSans-Roman-74"/>
     <path d="
M41.1094 46.2969
Q39.5938 47.1719 37.8125 47.5781
Q36.0312 48 33.8906 48
Q26.2656 48 22.1875 43.0469
Q18.1094 38.0938 18.1094 28.8125
L18.1094 0
L9.07812 0
L9.07812 54.6875
L18.1094 54.6875
L18.1094 46.1875
Q20.9531 51.1719 25.4844 53.5781
Q30.0312 56 36.5312 56
Q37.4531 56 38.5781 55.875
Q39.7031 55.7656 41.0625 55.5156
z
" id="BitstreamVeraSans-Roman-72"/>
     <path d="
M56.2031 29.5938
L56.2031 25.2031
L14.8906 25.2031
Q15.4844 15.9219 20.4844 11.0625
Q25.4844 6.20312 34.4219 6.20312
Q39.5938 6.20312 44.4531 7.46875
Q49.3125 8.73438 54.1094 11.2812
L54.1094 2.78125
Q49.2656 0.734375 44.1875 -0.34375
Q39.1094 -1.42188 33.8906 -1.42188
Q20.7969 -1.42188 13.1562 6.1875
Q5.51562 13.8125 5.51562 26.8125
Q5.51562 40.2344 12.7656 48.1094
Q20.0156 56 32.3281 56
Q43.3594 56 49.7812 48.8906
Q56.2031 41.7969 56.2031 29.5938
M47.2188 32.2344
Q47.125 39.5938 43.0938 43.9844
Q39.0625 48.3906 32.4219 48.3906
Q24.9062 48.3906 20.3906 44.1406
Q15.875 39.8906 15.1875 32.1719
z
" id="BitstreamVeraSans-Roman-65"/>
    </defs>
    <g transform="translate(130.0684375 16.318125)scale(0.12 -0.12)">
     <use xlink:href="#BitstreamVeraSans-Roman-64"/>
     <use x="63.4765625" xlink:href="#BitstreamVeraSans-Roman-61"/>
     <use x="124.755859375" xlink:href="#BitstreamVeraSans-Roman-69"/>
     <use x="152.5390625" xlink:href="#BitstreamVeraSans-Roman-6c"/>
     <use x="180.322265625" xlink:href="#BitstreamVeraSans-Roman-79"/>
     <use x="239.501953125" xlink:href="#BitstreamVeraSans-Roman-20"/>
     <use x="271.2890625" xlink:href="#BitstreamVeraSans-Roman-74"/>
     <use x="310.498046875" xlink:href="#BitstreamVeraSans-Roman-72"/>
     <use x="349.361328125" xlink:href="#BitstreamVeraSans-Roman-65"/>
     <use x="410.884765625" xlink:href="#BitstreamVeraSans-Roman-65"/>
     <use x="472.408203125" xlink:href="#BitstreamVeraSans-Roman-20"/>
     <use x="504.1953125" xlink:href="#BitstreamVeraSans-Roman-50"/>
     <use x="564.498046875" xlink:href="#BitstreamVeraSans-Roman-45"/>
     <use x="627.681640625" xlink:href="#BitstreamVeraSans-Roman-54"/>
     <use x="688.765625" xlink:href="#BitstreamVeraSans-Roman-20"/>
     <use x="720.552734375" xlink:href="#BitstreamVeraSans-Roman-61"/>
     <use x="781.83203125" xlink:href="#BitstreamVeraSans-Roman-74"/>
     <use x="821.041015625" xlink:href="#BitstreamVeraSans-Roman-20"/>
     <use x="852.828125" xlink:href="#BitstreamVeraSans-Roman-54"/>
     <use x="899.162109375" xlink:href="#BitstreamVeraSans-Roman-72"/>
     <use x="938.025390625" xlink:href="#BitstreamVeraSans-Roman-65"/>
     <use x="999.548828125" xlink:href="#BitstreamVeraSans-Roman-65"/>
     <use x="1061.072265625" xlink:href="#BitstreamVeraSans-Roman-6c"/>
     <use x="1088.85546875" xlink:href="#BitstreamVeraSans-Roman-69"/>
     <use x="1116.638671875" xlink:href="#BitstreamVeraSans-Roman-6e"/>
     <use x="1180.017578125" xlink:href="#BitstreamVeraSans-Roman-65"/>
    </g>
   </g>
   <g id="legend_1">
    <g id="patch_7">
     <path d="
M293.453 312.738
L365.641 312.738
L365.641 27.3181
L293.453 27.3181
z
" style="fill:#ffffff;stroke:#000000;stroke-linejoin:miter;"/>
    </g>
    <g id="line2d_45">
     <path d="
M301.853 37.0363
L318.653 37.0363" style="fill:none;stroke:#0000ff;stroke-linecap:square;"/>
    </g>
    <g id="line2d_46"/>
    <g id="text_18">
     <!-- 1999 -->
     <defs>
      <path d="
M10.9844 1.51562
L10.9844 10.5
Q14.7031 8.73438 18.5 7.8125
Q22.3125 6.89062 25.9844 6.89062
Q35.75 6.89062 40.8906 13.4531
Q46.0469 20.0156 46.7812 33.4062
Q43.9531 29.2031 39.5938 26.9531
Q35.25 24.7031 29.9844 24.7031
Q19.0469 24.7031 12.6719 31.3125
Q6.29688 37.9375 6.29688 49.4219
Q6.29688 60.6406 12.9375 67.4219
Q19.5781 74.2188 30.6094 74.2188
Q43.2656 74.2188 49.9219 64.5156
Q56.5938 54.8281 56.5938 36.375
Q56.5938 19.1406 48.4062 8.85938
Q40.2344 -1.42188 26.4219 -1.42188
Q22.7031 -1.42188 18.8906 -0.6875
Q15.0938 0.046875 10.9844 1.51562
M30.6094 32.4219
Q37.25 32.4219 41.125 36.9531
Q45.0156 41.5 45.0156 49.4219
Q45.0156 57.2812 41.125 61.8438
Q37.25 66.4062 30.6094 66.4062
Q23.9688 66.4062 20.0938 61.8438
Q16.2188 57.2812 16.2188 49.4219
Q16.2188 41.5 20.0938 36.9531
Q23.9688 32.4219 30.6094 32.4219" id="BitstreamVeraSans-Roman-39"/>
     </defs>
     <g transform="translate(331.853125 41.23625)scale(0.12 -0.12)">
      <use xlink:href="#BitstreamVeraSans-Roman-31"/>
      <use x="63.623046875" xlink:href="#BitstreamVeraSans-Roman-39"/>
      <use x="127.24609375" xlink:href="#BitstreamVeraSans-Roman-39"/>
      <use x="190.869140625" xlink:href="#BitstreamVeraSans-Roman-39"/>
     </g>
    </g>
    <g id="line2d_47">
     <path d="
M301.853 54.65
L318.653 54.65" style="fill:none;stroke:#008000;stroke-linecap:square;"/>
    </g>
    <g id="line2d_48"/>
    <g id="text_19">
     <!-- 2000 -->
     <g transform="translate(331.853125 58.85)scale(0.12 -0.12)">
      <use xlink:href="#BitstreamVeraSans-Roman-32"/>
      <use x="63.623046875" xlink:href="#BitstreamVeraSans-Roman-30"/>
      <use x="127.24609375" xlink:href="#BitstreamVeraSans-Roman-30"/>
      <use x="190.869140625" xlink:href="#BitstreamVeraSans-Roman-30"/>
     </g>
    </g>
    <g id="line2d_49">
     <path d="
M301.853 72.2638
L318.653 72.2638" style="fill:none;stroke:#ff0000;stroke-linecap:square;"/>
    </g>
    <g id="line2d_50"/>
    <g id="text_20">
     <!-- 2001 -->
     <g transform="translate(331.853125 76.46375)scale(0.12 -0.12)">
      <use xlink:href="#BitstreamVeraSans-Roman-32"/>
      <use x="63.623046875" xlink:href="#BitstreamVeraSans-Roman-30"/>
      <use x="127.24609375" xlink:href="#BitstreamVeraSans-Roman-30"/>
      <use x="190.869140625" xlink:href="#BitstreamVeraSans-Roman-31"/>
     </g>
    </g>
    <g id="line2d_51">
     <path d="
M301.853 89.8775
L318.653 89.8775" style="fill:none;stroke:#00bfbf;stroke-linecap:square;"/>
    </g>
    <g id="line2d_52"/>
    <g id="text_21">
     <!-- 2002 -->
     <g transform="translate(331.853125 94.0775)scale(0.12 -0.12)">
      <use xlink:href="#BitstreamVeraSans-Roman-32"/>
      <use x="63.623046875" xlink:href="#BitstreamVeraSans-Roman-30"/>
      <use x="127.24609375" xlink:href="#BitstreamVeraSans-Roman-30"/>
      <use x="190.869140625" xlink:href="#BitstreamVeraSans-Roman-32"/>
     </g>
    </g>
    <g id="line2d_53">
     <path d="
M301.853 107.491
L318.653 107.491" style="fill:none;stroke:#bf00bf;stroke-linecap:square;"/>
    </g>
    <g id="line2d_54"/>
    <g id="text_22">
     <!-- 2003 -->
     <g transform="translate(331.853125 111.69125)scale(0.12 -0.12)">
      <use xlink:href="#BitstreamVeraSans-Roman-32"/>
      <use x="63.623046875" xlink:href="#BitstreamVeraSans-Roman-30"/>
      <use x="127.24609375" xlink:href="#BitstreamVeraSans-Roman-30"/>
      <use x="190.869140625" xlink:href="#BitstreamVeraSans-Roman-33"/>
     </g>
    </g>
    <g id="line2d_55">
     <path d="
M301.853 125.105
L318.653 125.105" style="fill:none;stroke:#bfbf00;stroke-linecap:square;"/>
    </g>
    <g id="line2d_56"/>
    <g id="text_23">
     <!-- 2004 -->
     <g transform="translate(331.853125 129.305)scale(0.12 -0.12)">
      <use xlink:href="#BitstreamVeraSans-Roman-32"/>
      <use x="63.623046875" xlink:href="#BitstreamVeraSans-Roman-30"/>
      <use x="127.24609375" xlink:href="#BitstreamVeraSans-Roman-30"/>
      <use x="190.869140625" xlink:href="#BitstreamVeraSans-Roman-34"/>
     </g>
    </g>
    <g id="line2d_57">
     <path d="
M301.853 142.719
L318.653 142.719" style="fill:none;stroke:#000000;stroke-linecap:square;"/>
    </g>
    <g id="line2d_58"/>
    <g id="text_24">
     <!-- 2005 -->
     <g transform="translate(331.853125 146.91875)scale(0.12 -0.12)">
      <use xlink:href="#BitstreamVeraSans-Roman-32"/>
      <use x="63.623046875" xlink:href="#BitstreamVeraSans-Roman-30"/>
      <use x="127.24609375" xlink:href="#BitstreamVeraSans-Roman-30"/>
      <use x="190.869140625" xlink:href="#BitstreamVeraSans-Roman-35"/>
     </g>
    </g>
    <g id="line2d_59">
     <path d="
M301.853 160.333
L318.653 160.333" style="fill:none;stroke:#0000ff;stroke-linecap:square;"/>
    </g>
    <g id="line2d_60"/>
    <g id="text_25">
     <!-- 2006 -->
     <g transform="translate(331.853125 164.5325)scale(0.12 -0.12)">
      <use xlink:href="#BitstreamVeraSans-Roman-32"/>
      <use x="63.623046875" xlink:href="#BitstreamVeraSans-Roman-30"/>
      <use x="127.24609375" xlink:href="#BitstreamVeraSans-Roman-30"/>
      <use x="190.869140625" xlink:href="#BitstreamVeraSans-Roman-36"/>
     </g>
    </g>
    <g id="line2d_61">
     <path d="
M301.853 177.946
L318.653 177.946" style="fill:none;stroke:#008000;stroke-linecap:square;"/>
    </g>
    <g id="line2d_62"/>
    <g id="text_26">
     <!-- 2007 -->
     <defs>
      <path d="
M8.20312 72.9062
L55.0781 72.9062
L55.0781 68.7031
L28.6094 0
L18.3125 0
L43.2188 64.5938
L8.20312 64.5938
z
" id="BitstreamVeraSans-Roman-37"/>
     </defs>
     <g transform="translate(331.853125 182.14625)scale(0.12 -0.12)">
      <use xlink:href="#BitstreamVeraSans-Roman-32"/>
      <use x="63.623046875" xlink:href="#BitstreamVeraSans-Roman-30"/>
      <use x="127.24609375" xlink:href="#BitstreamVeraSans-Roman-30"/>
      <use x="190.869140625" xlink:href="#BitstreamVeraSans-Roman-37"/>
     </g>
    </g>
    <g id="line2d_63">
     <path d="
M301.853 195.56
L318.653 195.56" style="fill:none;stroke:#ff0000;stroke-linecap:square;"/>
    </g>
    <g id="line2d_64"/>
    <g id="text_27">
     <!-- 2008 -->
     <g transform="translate(331.853125 199.76)scale(0.12 -0.12)">
      <use xlink:href="#BitstreamVeraSans-Roman-32"/>
      <use x="63.623046875" xlink:href="#BitstreamVeraSans-Roman-30"/>
      <use x="127.24609375" xlink:href="#BitstreamVeraSans-Roman-30"/>
      <use x="190.869140625" xlink:href="#BitstreamVeraSans-Roman-38"/>
     </g>
    </g>
    <g id="line2d_65">
     <path d="
M301.853 213.174
L318.653 213.174" style="fill:none;stroke:#00bfbf;stroke-linecap:square;"/>
    </g>
    <g id="line2d_66"/>
    <g id="text_28">
     <!-- 2009 -->
     <g transform="translate(331.853125 217.37375)scale(0.12 -0.12)">
      <use xlink:href="#BitstreamVeraSans-Roman-32"/>
      <use x="63.623046875" xlink:href="#BitstreamVeraSans-Roman-30"/>
      <use x="127.24609375" xlink:href="#BitstreamVeraSans-Roman-30"/>
      <use x="190.869140625" xlink:href="#BitstreamVeraSans-Roman-39"/>
     </g>
    </g>
    <g id="line2d_67">
     <path d="
M301.853 230.788
L318.653 230.788" style="fill:none;stroke:#bf00bf;stroke-linecap:square;"/>
    </g>
    <g id="line2d_68"/>
    <g id="text_29">
     <!-- 2010 -->
     <g transform="translate(331.853125 234.9875)scale(0.12 -0.12)">
      <use xlink:href="#BitstreamVeraSans-Roman-32"/>
      <use x="63.623046875" xlink:href="#BitstreamVeraSans-Roman-30"/>
      <use x="127.24609375" xlink:href="#BitstreamVeraSans-Roman-31"/>
      <use x="190.869140625" xlink:href="#BitstreamVeraSans-Roman-30"/>
     </g>
    </g>
    <g id="line2d_69">
     <path d="
M301.853 248.401
L318.653 248.401" style="fill:none;stroke:#bfbf00;stroke-linecap:square;"/>
    </g>
    <g id="line2d_70"/>
    <g id="text_30">
     <!-- 2011 -->
     <g transform="translate(331.853125 252.60125)scale(0.12 -0.12)">
      <use xlink:href="#BitstreamVeraSans-Roman-32"/>
      <use x="63.623046875" xlink:href="#BitstreamVeraSans-Roman-30"/>
      <use x="127.24609375" xlink:href="#BitstreamVeraSans-Roman-31"/>
      <use x="190.869140625" xlink:href="#BitstreamVeraSans-Roman-31"/>
     </g>
    </g>
    <g id="line2d_71">
     <path d="
M301.853 266.015
L318.653 266.015" style="fill:none;stroke:#000000;stroke-linecap:square;"/>
    </g>
    <g id="line2d_72"/>
    <g id="text_31">
     <!-- 2012 -->
     <g transform="translate(331.853125 270.215)scale(0.12 -0.12)">
      <use xlink:href="#BitstreamVeraSans-Roman-32"/>
      <use x="63.623046875" xlink:href="#BitstreamVeraSans-Roman-30"/>
      <use x="127.24609375" xlink:href="#BitstreamVeraSans-Roman-31"/>
      <use x="190.869140625" xlink:href="#BitstreamVeraSans-Roman-32"/>
     </g>
    </g>
    <g id="line2d_73">
     <path d="
M301.853 283.629
L318.653 283.629" style="fill:none;stroke:#0000ff;stroke-linecap:square;"/>
    </g>
    <g id="line2d_74"/>
    <g id="text_32">
     <!-- 2013 -->
     <g transform="translate(331.853125 287.82875)scale(0.12 -0.12)">
      <use xlink:href="#BitstreamVeraSans-Roman-32"/>
      <use x="63.623046875" xlink:href="#BitstreamVeraSans-Roman-30"/>
      <use x="127.24609375" xlink:href="#BitstreamVeraSans-Roman-31"/>
      <use x="190.869140625" xlink:href="#BitstreamVeraSans-Roman-33"/>
     </g>
    </g>
    <g id="line2d_75">
     <path d="
M301.853 301.243
L318.653 301.243" style="fill:none;stroke:#008000;stroke-linecap:square;"/>
    </g>
    <g id="line2d_76"/>
    <g id="text_33">
     <!-- 2014 -->
     <g transform="translate(331.853125 305.4425)scale(0.12 -0.12)">
      <use xlink:href="#BitstreamVeraSans-Roman-32"/>
      <use x="63.623046875" xlink:href="#BitstreamVeraSans-Roman-30"/>
      <use x="127.24609375" xlink:href="#BitstreamVeraSans-Roman-31"/>
      <use x="190.869140625" xlink:href="#BitstreamVeraSans-Roman-34"/>
     </g>
    </g>
   </g>
  </g>
 </g>
 <defs>
  <clipPath id="pd0c402dd48">
   <rect height="223.2" width="334.8" x="36.840625" y="21.318125"/>
  </clipPath>
 </defs>
</svg>
