<?xml version="1.0" encoding="utf-8" standalone="no"?>
<!DOCTYPE svg PUBLIC "-//W3C//DTD SVG 1.1//EN"
  "http://www.w3.org/Graphics/SVG/1.1/DTD/svg11.dtd">
<!-- Created with matplotlib (http://matplotlib.org/) -->
<svg height="319pt" version="1.1" viewBox="0 0 382 319" width="382pt" xmlns="http://www.w3.org/2000/svg" xmlns:xlink="http://www.w3.org/1999/xlink">
 <defs>
  <style type="text/css">
*{stroke-linecap:butt;stroke-linejoin:round;}
  </style>
 </defs>
 <g id="figure_1">
  <g id="patch_1">
   <path d="
M0 319.938
L382.628 319.938
L382.628 0
L0 0
z
" style="fill:#ffffff;"/>
  </g>
  <g id="axes_1">
   <g id="patch_2">
    <path d="
M40.6281 244.518
L375.428 244.518
L375.428 21.3181
L40.6281 21.3181
z
" style="fill:#ffffff;"/>
   </g>
   <g id="line2d_1">
    <path clip-path="url(#p705cba3da1)" d="
M0 0" style="fill:none;stroke:#0000ff;stroke-linecap:square;"/>
   </g>
   <g id="line2d_2">
    <path clip-path="url(#p705cba3da1)" d="
M0 0" style="fill:none;stroke:#008000;stroke-linecap:square;"/>
   </g>
   <g id="line2d_3">
    <path clip-path="url(#p705cba3da1)" d="
M0 0" style="fill:none;stroke:#ff0000;stroke-linecap:square;"/>
   </g>
   <g id="line2d_4">
    <path clip-path="url(#p705cba3da1)" d="
M0 0" style="fill:none;stroke:#00bfbf;stroke-linecap:square;"/>
   </g>
   <g id="line2d_5">
    <path clip-path="url(#p705cba3da1)" d="
M0 0" style="fill:none;stroke:#bf00bf;stroke-linecap:square;"/>
   </g>
   <g id="line2d_6">
    <path clip-path="url(#p705cba3da1)" d="
M0 0" style="fill:none;stroke:#bfbf00;stroke-linecap:square;"/>
   </g>
   <g id="line2d_7">
    <path clip-path="url(#p705cba3da1)" d="
M0 0" style="fill:none;stroke:#000000;stroke-linecap:square;"/>
   </g>
   <g id="line2d_8">
    <path clip-path="url(#p705cba3da1)" d="
M0 0" style="fill:none;stroke:#0000ff;stroke-linecap:square;"/>
   </g>
   <g id="line2d_9">
    <path clip-path="url(#p705cba3da1)" d="
M0 0" style="fill:none;stroke:#008000;stroke-linecap:square;"/>
   </g>
   <g id="line2d_10">
    <path clip-path="url(#p705cba3da1)" d="
M40.6281 187.963
L41.5454 166.559
L42.4626 173.923
L43.3799 219.003
L44.2972 229.823
L45.2144 230.919
L46.1317 235.863
L47.0489 233.646
L47.9662 216.47
L48.8835 232.176
M50.718 230.977
L51.6352 230.45
L52.5525 221.552
L53.4698 214.092
L54.387 202.659
L55.3043 210.705
L56.2215 213.416
L57.1388 210.718
L58.0561 240.994
L58.9733 240.943
L59.8906 215.921
L60.8079 203.325
L61.7251 208.552
L62.6424 223.29
L63.5596 218.408
L64.4769 218.562
L65.3942 229.526
L66.3114 234.762
M68.1459 243.151
L69.0632 232.054
L69.9805 232.323
M71.815 225.2
L72.7322 221.327
L73.6495 223.232
L74.5668 244.505
L75.484 213.412
L76.4013 225.611
L77.3185 209.348
L78.2358 211.222
L79.1531 208.535
L80.0703 217.83
L80.9876 198.984
L81.9048 196.39
L82.8221 202.478
L83.7394 186.739
L84.6566 195.596
L85.5739 200.73
L86.4911 209.888
L87.4084 216.431
L88.3257 237.629
L89.2429 216.693
L90.1602 222.664
L91.0774 241.043
L91.9947 208.113
L92.912 212.983
L93.8292 203.118
L94.7465 196.472
L95.6637 220.545
L96.581 219.835
L97.4983 200.926
L98.4155 203.642
L99.3328 196.901
L100.25 177.222
L101.167 190.661
L102.085 209.813
L103.002 198.398
L103.919 190.105
L105.754 159.646
L106.671 222.732
L107.588 229.229
L108.505 201.787
L109.423 209.352
L110.34 190.838
L111.257 239.963
L112.174 231.515
L113.092 201.84
L114.009 166.782
L114.926 162.423
L115.843 178.671
L116.761 214.075
L117.678 209.083
L118.595 234.419
L119.513 180.765
L120.43 222.433
L121.347 194.411
L122.264 196.391
L123.182 197.514
L124.099 161.287
L125.016 156.274
L125.933 156.726
L126.851 197.886
L127.768 176.761
L129.602 214.111
L130.52 177.642
L131.437 185.796
L132.354 203.007
L133.271 165.503
L134.189 162.695
L135.106 173.07
L136.023 194.754
L136.94 184.359
L137.858 168.373
L138.775 148.833
L139.692 149.385
L141.527 170.525
L142.444 159.006
L143.361 144.997
L144.279 191.842
L145.196 189.199
L146.113 129.705
L147.03 107.099
L147.948 121.343
L148.865 125.346
L149.782 189.964
L150.699 119.686
L151.617 126.063
L152.534 111.423
L153.451 118.719
L154.368 121.829
L155.286 129.571
L156.203 144.919
L157.12 169.406
L158.037 127.284
L158.955 111.167
L159.872 120.787
L160.789 134.76
L161.706 124.734
L162.624 140.75
L163.541 184.712
L164.458 149.464
L165.376 144.259
L166.293 144.435
L167.21 155.552
L168.127 145.856
L169.045 198.148
L169.962 175.015
L170.879 173.599
L171.796 191.563
L172.714 148.917
L173.631 179.168
L174.548 197.728
L175.465 195.1
L176.383 165.353
L177.3 170.151
L178.217 162.654
L179.134 163.036
L180.052 195.48
L180.969 132.18
L181.886 207.46
L183.721 139.123
L184.638 129.445
L185.555 161.685
L186.473 111.155
L187.39 156.455
L188.307 168.934
L189.224 171.526
L190.142 130.99
L191.059 125.637
L191.976 126.208
L192.893 132.788
L193.811 137.651
L194.728 136.145
L195.645 131.395
L196.562 132.135
L197.48 148.494
L198.397 174.042
L199.314 149.714
L200.231 140.559
L201.149 145.541
L202.066 135.974
L202.983 139.954
L203.9 143.335
L204.818 150.374
L205.735 156.064
L206.652 169.402
L207.569 171.271
L208.487 148.927
L209.404 158.014
L210.321 162.396
L212.156 144.14
L213.073 147.304
L213.99 147.927
L214.908 149.895
L215.825 144.134
L216.742 131.534
L217.659 139.279
L218.577 145.902
L219.494 148.546
L220.411 150.48
L221.328 154.488
L222.246 151.353
L223.163 142.988
L224.08 145.321
L224.997 153.98
L225.915 171.818
L226.832 183.829
L227.749 152.763
L228.666 150.829
L229.584 155.051
L230.501 153.826
L231.418 153.732
L232.336 153.523
L233.253 175.194
L234.17 146.346
L235.087 149.923
L236.005 159.857
L236.922 152.217
L237.839 152.581
L238.756 154.841
L239.674 173.566
L240.591 181.141
L241.508 171.839
L242.425 180.238
L243.343 159.015
L244.26 147.505
L245.177 151.002
L246.094 156.869
L247.929 161.101
L248.846 160.696
L249.763 158.184
L250.681 162.901
L251.598 174.744
L252.515 176.685
L253.433 164.315
L254.35 171.01
L255.267 147.975
L256.184 156.025
L257.102 165.167
L258.019 168.373
L258.936 156.949
L259.853 147.455
L260.771 157.705
L261.688 163.607
L262.605 165.664
L263.522 159.502
L264.44 172.392
L265.357 160.319
L266.274 145.858
L267.191 146.027
L268.109 155.463
L269.026 162.131
L269.943 160.232
L270.86 157.115
L271.778 163.687
L272.695 151.381
L273.612 155.044
L274.529 154.572
L275.447 161.885
L276.364 163.275
L277.281 162.503
L278.199 165.87
L280.033 170.021
L281.868 206.859
L282.785 219.472
L283.702 179.243
L284.619 161.837
L285.537 157.611
L286.454 168.156
L287.371 162.093
L288.288 168.621
L289.206 165.122
L290.123 167.7
L291.04 174.639
L291.957 173.077
L292.875 194.708
L293.792 194.263
L294.709 233.21
L295.626 209.877
L296.544 176.337
L297.461 181.872
L298.378 157.54
L299.296 160.74
L300.213 235.81
L301.13 219.009
L302.047 181.939
L302.965 163.186
L303.882 174.017
L304.799 173.26
L305.716 172.273
L306.634 183.1
L307.551 177.734
L308.468 183.859
L309.385 181.714
L310.303 185.095
L311.22 154.115
L312.137 159.906
L313.054 166.586
L313.972 177.556
L314.889 176.587
L315.806 167.457
L316.723 175.758
L317.641 176.746
L318.558 181.539
L320.393 223.405
L321.31 235.069
L322.227 238.727
L323.144 240.772
L324.062 214.046
L324.979 222.319
L325.896 211.052
L326.813 215.207
L327.731 234.839
L328.648 227.4
L329.565 242.478
L330.482 216.874
L331.4 207.795
L332.317 182.649
L333.234 181.268
L334.151 186.124
L335.069 178.435
L335.986 183.6
L336.903 193.473
L337.82 210.306
L338.738 191.608
L339.655 211.104
L340.572 218.105
L341.489 185.723
L342.407 187.683
L343.324 202.716
L344.241 194.497
L345.159 208.673
L346.076 231.118
L346.993 224.65
L347.91 202.546
L348.828 230.088
L349.745 239.56
L350.662 195.407
L351.579 185.136
L352.497 184.004
L353.414 206.849
L354.331 223.381
L355.248 199.047
L356.166 186.937
L357.083 210.451
L358 226.561
M359.835 243.917
L360.752 230.728
L361.669 226.718
L362.586 221.005
L363.504 210.421
L364.421 237.009
L365.338 217.68
L367.173 243.749
L368.09 238.294
L369.007 229.475
M370.842 230.089
L371.759 242.533
M373.594 221.524
L374.511 197.958
L374.511 197.958" style="fill:none;stroke:#ff0000;stroke-linecap:square;"/>
   </g>
   <g id="line2d_11">
    <path clip-path="url(#p705cba3da1)" d="
M40.6281 238.788
L41.5454 216.421
L42.4626 225.699
L43.3799 196.543
L44.2972 211.83
L45.2144 242.594
L46.1317 228.583
L47.0489 219.166
L47.9662 236.303
L48.8835 212.285
L50.718 227.899
L51.6352 226.191
L52.5525 202.86
L53.4698 208.777
L54.387 205.07
L55.3043 222.126
L56.2215 211.939
L57.1388 220.726
L58.0561 217.99
L58.9733 203.785
L59.8906 221.938
L60.8079 243.995
L61.7251 242.064
M64.4769 228.191
L65.3942 223.997
L66.3114 227.35
L67.2287 220.983
L68.1459 224.78
L69.9805 189.795
L70.8977 198.269
L71.815 212.537
L72.7322 209.919
L73.6495 216.995
L74.5668 234.477
L75.484 227.703
L76.4013 239.838
L77.3185 231.124
L78.2358 225.039
L79.1531 241.894
L80.0703 229.886
M81.9048 215.194
L82.8221 212.276
L83.7394 236.174
L84.6566 210.635
L85.5739 206.216
L86.4911 207.427
L87.4084 194.032
L88.3257 200.199
L89.2429 219.627
L90.1602 192.643
L91.0774 216.106
L91.9947 221.284
L92.912 190.634
L93.8292 170.201
L94.7465 190.694
L95.6637 200.022
L96.581 225.791
L97.4983 243.316
M99.3328 220.529
L100.25 219.546
L101.167 223.714
L102.085 207.811
L103.002 205.455
L103.919 191.168
L104.836 193.391
L105.754 197.315
L106.671 206.025
M108.505 226.216
L109.423 200.834
L110.34 169.601
L111.257 191.075
L112.174 171.599
L113.092 212.237
L114.009 219.969
L114.926 188.25
L115.843 186.138
L116.761 234.604
L117.678 198.794
L118.595 172.68
L119.513 216.363
L120.43 219.921
L121.347 180.167
L122.264 239.533
L123.182 205.025
L124.099 236.868
L125.016 237.238
L125.933 207.657
L126.851 171.104
L127.768 153.522
L128.685 157.993
L129.602 216.582
L130.52 174.718
L131.437 217.528
L133.271 147.913
L134.189 184.748
L135.106 158.126
L136.023 179.748
L136.94 134.486
L137.858 145.135
L138.775 146.282
L139.692 137.555
L140.609 145.519
L141.527 150.905
L142.444 153.637
L143.361 162.493
L144.279 113.467
L145.196 126.413
L146.113 142.289
L147.03 151.921
L147.948 212.785
L148.865 134.999
L150.699 174.074
L151.617 183.824
L152.534 233.929
L153.451 192.592
L154.368 188.641
L155.286 198.235
L157.12 138.937
L158.037 118.989
L158.955 136.009
L159.872 141.23
L160.789 155.815
L161.706 130.831
L162.624 166.516
L163.541 134.668
L164.458 133.784
L165.376 140.682
L166.293 151.863
L167.21 143.775
L168.127 124.038
L169.045 126.764
L169.962 140.992
L170.879 162.052
L171.796 159.216
L172.714 139.82
L173.631 141.628
L174.548 140.891
L175.465 143.645
L176.383 158.654
L177.3 155.346
L178.217 165.847
L179.134 173.929
L180.052 223.448
L180.969 166.935
L181.886 182.438
L182.803 206.672
L183.721 207.553
L184.638 152.25
L186.473 155.744
L187.39 178.972
L188.307 174.752
L189.224 173.245
L190.142 215.476
L191.059 212.311
L191.976 210.014
L192.893 170.085
L193.811 190.254
L194.728 142.452
L195.645 161.509
L196.562 169.905
L197.48 195.832
L198.397 166.085
L199.314 131.661
L200.231 148.022
L201.149 146.628
L202.066 150.629
L202.983 135.955
L203.9 143.64
L204.818 153.169
L205.735 151.287
L206.652 146.846
L207.569 164.369
L208.487 169.134
L209.404 148.291
L210.321 164.818
L211.239 145.462
L212.156 142.705
L213.073 142.557
L213.99 148.85
L214.908 143.365
L215.825 173.953
L216.742 187.679
L217.659 174.559
L218.577 142.675
L219.494 148.585
L220.411 161.417
L221.328 164.21
L222.246 168.725
L223.163 156.267
L224.08 155.325
L224.997 156.915
L225.915 164.969
L226.832 184.095
L227.749 156.395
L228.666 159.317
L229.584 160.383
L230.501 163.068
L231.418 171.387
L232.336 167.525
L233.253 161.575
L234.17 159.186
L236.005 171.595
L236.922 167.499
L237.839 164.404
L238.756 172.002
L239.674 227.441
L240.591 234.82
L242.425 159.222
L243.343 159.429
L245.177 166.139
L246.094 177.381
L247.012 154.372
L247.929 162.095
L248.846 152.564
L249.763 153.674
L250.681 167.41
L251.598 166.666
L252.515 170.406
L253.433 170.46
L254.35 168.884
L255.267 196.353
L256.184 167.674
L257.102 168.577
L258.019 168.327
L258.936 172.302
L259.853 192.54
L260.771 171.76
L261.688 171.991
L262.605 161.705
L263.522 169.171
L264.44 169.56
L265.357 170.721
L267.191 187.389
L268.109 169.826
L269.026 160.957
L269.943 154.495
L270.86 162.29
L271.778 167.224
L272.695 171.391
L273.612 172.53
L274.529 175.573
L275.447 175.794
L276.364 181.688
L277.281 178.919
L278.199 177.193
L279.116 182.489
L280.033 185.208
L281.868 161.768
L282.785 167.219
L283.702 174.01
L284.619 179.173
L285.537 183.134
L286.454 177.696
L287.371 173.4
L288.288 186.151
L289.206 206.943
L290.123 186.551
L291.04 163.068
L291.957 161.776
L292.875 217.146
M295.626 187.925
L296.544 176.937
L297.461 175.234
L298.378 196.311
L300.213 174.074
L301.13 178.701
L302.047 213.979
L302.965 226.535
L304.799 195.281
L306.634 202.172
L307.551 218.615
L308.468 210.973
L309.385 216.377
L310.303 190.485
L311.22 206.622
L312.137 199.634
L313.054 177.55
L313.972 213.288
L314.889 243.755
L315.806 212.876
L316.723 226.59
L317.641 234.273
L318.558 218.281
L319.475 207.196
L320.393 203.911
L321.31 191.699
L322.227 190.803
L323.144 190.526
L324.062 225.294
L324.979 214.055
L325.896 195.993
L326.813 187.629
L327.731 192.578
L328.648 228.019
M330.482 234.648
L331.4 229.377
L332.317 195.265
L333.234 194.169
L334.151 186.228
L335.069 218.605
L335.986 194.601
L336.903 209.301
L337.82 204.849
L338.738 234.291
L339.655 216.823
L340.572 210.587
L341.489 210.779
L342.407 210.74
L343.324 224.244
L344.241 226.587
L345.159 220.428
M346.993 205.23
L347.91 209.668
L348.828 199.412
L349.745 194.751
L350.662 207.312
L351.579 203.899
L352.497 239.75
L353.414 217.081
L354.331 205.948
L355.248 201.871
L356.166 188.366
L357.083 221.924
L358 244.249
L358.917 229.32
L359.835 232.154
M361.669 234.129
L362.586 240.176
L363.504 235.868
L364.421 229.864
L365.338 226.829
M367.173 238.139
L368.09 202.196
L369.007 221.747
L369.925 234.116
L370.842 226.712
L371.759 211.025
L372.676 227.285
L373.594 239.91
L374.511 236.747
L374.511 236.747" style="fill:none;stroke:#00bfbf;stroke-linecap:square;"/>
   </g>
   <g id="line2d_12">
    <path clip-path="url(#p705cba3da1)" d="
M41.5454 239.085
L42.4626 232.261
L43.3799 220.536
L44.2972 233.838
L45.2144 221.884
L46.1317 238.354
L47.0489 204.99
L47.9662 208.211
L48.8835 216.391
L49.8007 207.455
L50.718 217.095
L51.6352 241.794
L52.5525 232.374
L53.4698 194.38
L54.387 220.428
L55.3043 213.738
L56.2215 229.253
L57.1388 233.211
L58.0561 222.504
L58.9733 216.856
L59.8906 224.977
M61.7251 229.936
L62.6424 235.779
L63.5596 243.4
M65.3942 242.197
L66.3114 236.636
L67.2287 226.575
M69.0632 237.422
L69.9805 217.926
L70.8977 225.697
L71.815 236.766
L72.7322 237.084
L73.6495 231.955
M75.484 242.36
L76.4013 230.822
L77.3185 211.064
L78.2358 233.806
L79.1531 227.976
L80.0703 238.419
L80.9876 219.994
M82.8221 244.311
L83.7394 242.005
L84.6566 239.777
L85.5739 223.312
L86.4911 219.267
L87.4084 225.358
L88.3257 181.681
L89.2429 191.235
L90.1602 238.907
L91.0774 231.453
L91.9947 207.711
L92.912 221.195
L93.8292 221.334
L94.7465 205.572
L95.6637 197.841
L96.581 227.291
L97.4983 221.191
L98.4155 219.009
L100.25 190.333
L101.167 228.329
L102.085 197.06
L103.002 181.34
L103.919 190.315
L104.836 202.951
L105.754 234.128
L106.671 206.435
L107.588 170.195
L108.505 178.302
L109.423 169.451
L110.34 177.771
L111.257 153.61
L112.174 167.569
L113.092 198.808
L114.009 202.99
L114.926 163.659
L115.843 165.993
L116.761 224.096
L117.678 218.601
L118.595 179.236
L119.513 176.465
L120.43 212.325
L121.347 243.815
L122.264 212.137
L123.182 237.746
L124.099 237.358
L125.016 205.094
L125.933 223.014
L126.851 232.99
L127.768 191.33
L128.685 173.396
L129.602 193.258
L130.52 152.914
L131.437 174.422
L132.354 177.523
L133.271 226.44
L134.189 200.696
L135.106 157.891
L136.023 135.455
L136.94 165.798
L137.858 156.868
L138.775 138.812
L139.692 141.879
L140.609 186.763
L141.527 215.453
L142.444 201.881
L143.361 131.504
L144.279 130.789
L145.196 120.081
L146.113 146.978
L147.03 228.481
L147.948 222.778
L148.865 200.071
L149.782 209.03
L150.699 191.154
L151.617 152.853
L152.534 203.668
L153.451 97.336
L154.368 167.703
L155.286 156.499
L156.203 116.31
L157.12 124.768
L158.037 120.465
L158.955 203.741
L159.872 143.306
L160.789 128.163
L161.706 131.154
L162.624 124.849
L163.541 129.917
L164.458 151.268
L165.376 165.107
L166.293 229.67
L167.21 154.502
L168.127 132.034
L169.045 174.133
M170.879 185.552
L171.796 174.928
L172.714 143.188
L173.631 203.777
L174.548 179.228
L175.465 197.762
L176.383 164.551
L177.3 141.634
L178.217 207.048
L179.134 189.436
L180.052 226.643
L180.969 177.171
L181.886 235.429
L182.803 156.55
L183.721 215.514
L184.638 142.251
L185.555 156.042
L186.473 184.982
L187.39 191.768
L189.224 127.278
L190.142 133.66
L191.059 142.158
L191.976 146.517
L192.893 137.126
L193.811 146.301
L194.728 129.975
L195.645 151.46
L196.562 180.37
L197.48 182.158
L198.397 138.805
L199.314 146.386
L200.231 174.254
L201.149 186.187
L202.066 148.502
L202.983 142.36
L203.9 160.705
L204.818 185.424
L205.735 150.994
L206.652 146.16
L207.569 150.56
L208.487 156.943
L209.404 139.588
L210.321 140.183
L211.239 138.446
L212.156 141.134
L213.99 154.21
L214.908 161.332
L215.825 152.885
L216.742 149.781
L217.659 129.979
L218.577 134.928
L220.411 153.643
L221.328 149.671
L222.246 150.789
L223.163 142.475
L224.08 145.281
L224.997 151.224
L225.915 149.938
L226.832 144.796
L227.749 151.701
L228.666 164.712
L229.584 206.415
L230.501 163.519
L231.418 170.793
L232.336 164.545
L233.253 174.37
L234.17 167.097
L235.087 155.245
L236.005 155.099
L236.922 158.417
L237.839 158.102
L238.756 166.557
L239.674 179.93
L240.591 156.55
L241.508 159.233
L242.425 174.367
L243.343 187.563
L244.26 217.753
L245.177 173.103
L246.094 163.359
L247.012 160.807
L247.929 163.065
L248.846 161.866
L249.763 164.58
L250.681 166.769
L251.598 160.448
L252.515 158.283
L253.433 165.624
L254.35 158.333
L255.267 155.85
L256.184 156.265
L257.102 164.67
L258.019 188.878
L258.936 153.686
L259.853 164.918
L260.771 220.234
L261.688 181.095
L262.605 189.008
L263.522 186.844
L264.44 165.743
L265.357 163.344
L266.274 174.233
L267.191 153.132
L268.109 151.475
L269.026 153.627
L269.943 212.369
L270.86 235.987
L271.778 163.426
L272.695 158.937
L273.612 163.572
L275.447 174.426
L276.364 167.942
L277.281 166.65
L278.199 179.878
L279.116 176.498
L280.033 184.757
L280.95 172.708
L281.868 167.908
L282.785 169.537
L283.702 166.786
L284.619 163.373
L285.537 171.539
L286.454 175.203
L287.371 171.55
L288.288 175.154
L289.206 177.065
L290.123 173.518
L291.04 178.079
L291.957 178.046
L292.875 206.654
L293.792 219.383
L294.709 202.419
L295.626 204.688
L296.544 179.045
L297.461 223.687
L298.378 206.675
L299.296 193.136
L300.213 197.334
L301.13 178.759
L302.047 173.34
L302.965 172.483
L303.882 185.219
L304.799 190.475
L305.716 187.196
L306.634 174.03
L307.551 166.529
L308.468 174.617
L309.385 175.507
L310.303 180.94
L311.22 229.022
M313.054 220.946
L313.972 230.953
L314.889 200.244
L315.806 176.317
L316.723 185.959
L317.641 192.373
L318.558 227.844
L319.475 198.386
L320.393 194.476
L321.31 197.659
L322.227 189.889
L323.144 197.146
L324.062 196.589
L324.979 231.607
L325.896 231.242
L326.813 206.617
L327.731 239.912
L328.648 232.053
L329.565 208.885
L330.482 214.042
L331.4 241.365
L332.317 220.3
L333.234 217.638
L334.151 202.283
L335.069 218.736
M340.572 212.8
L341.489 199.471
L342.407 207.816
L343.324 221.538
L344.241 230.715
L345.159 214.814
L346.076 214.613
M347.91 241.827
L348.828 229.104
L349.745 231.615
L350.662 240.391
M352.497 234.258
L353.414 217.741
L354.331 230.379
L355.248 239.748
L356.166 237.415
L357.083 228.826
L358 228.747
L358.917 241.663
L359.835 235.144
L360.752 214.334
L361.669 212.721
L362.586 229.871
L363.504 244.036
L364.421 235.409
L365.338 220.942
L366.256 241.977
L367.173 237.377
L368.09 213.994
L369.007 183.486
L369.925 236.173
L370.842 231.412
L371.759 234.305
M373.594 238.021
L374.511 237.311
L374.511 237.311" style="fill:none;stroke:#bf00bf;stroke-linecap:square;"/>
   </g>
   <g id="line2d_13">
    <path clip-path="url(#p705cba3da1)" d="
M40.6281 216.093
L41.5454 215.621
L42.4626 235.371
L43.3799 238.068
L44.2972 214.124
L45.2144 222.082
L46.1317 220.923
L47.0489 225.115
L47.9662 234.775
M49.8007 221.089
L50.718 224.236
M52.5525 237.611
L53.4698 234.494
L54.387 240.264
L55.3043 234.364
L56.2215 239.869
M58.0561 210.103
L58.9733 235.086
L59.8906 237.406
L60.8079 198.579
L61.7251 238.467
L62.6424 241.722
L63.5596 242.885
L64.4769 235.986
L65.3942 235.919
L66.3114 238.068
M68.1459 221.86
L69.0632 203.93
L69.9805 188.163
L70.8977 200.305
L71.815 224.939
L72.7322 221.188
L73.6495 220.006
L74.5668 219.214
L75.484 228.046
L76.4013 211.012
L77.3185 204.57
L78.2358 195.599
L79.1531 196.571
L80.0703 186.89
L80.9876 192.568
L81.9048 197.24
L82.8221 223.96
L84.6566 239.882
L85.5739 235.452
M87.4084 228.325
L88.3257 224.671
L89.2429 217.922
M91.9947 205.957
L92.912 198.213
L93.8292 206.109
L94.7465 179.237
L95.6637 216.547
L96.581 219.373
L97.4983 229.286
L98.4155 235.277
L99.3328 236.54
L100.25 244.362
M102.085 231.56
L103.002 225.738
M106.671 201.059
L107.588 227.463
M110.34 204.279
L111.257 236.75
L112.174 209.653
L113.092 223.621
L114.009 217.682
L114.926 208.531
L115.843 233.389
M119.513 213.681
L120.43 230.121
L121.347 227.187
L122.264 179.229
L123.182 182.932
L124.099 188.557
L125.016 214.292
L125.933 190.179
L126.851 192.939
L127.768 206.01
L128.685 189.726
L129.602 207.825
L130.52 218.947
L131.437 186.307
L132.354 194.945
L133.271 153.666
L134.189 204.416
L135.106 148.28
L136.023 193.328
L136.94 200.745
L137.858 178.644
L138.775 179.538
L139.692 121.183
L140.609 196.636
L141.527 211.901
L142.444 135.231
L143.361 122.625
L144.279 177.442
L145.196 216.649
L146.113 170.047
L147.03 150.268
L147.948 216.425
L148.865 150.494
L149.782 162.013
L150.699 142.265
L151.617 178.261
L152.534 142.005
L153.451 132.451
L154.368 153.787
L155.286 202.23
L156.203 175.182
L157.12 196.374
L158.037 164.611
L158.955 138.134
L159.872 139.185
L160.789 150.154
L161.706 155.431
L163.541 209.643
L164.458 230.659
L165.376 170.518
L166.293 198.718
L167.21 130.975
L168.127 144.872
L169.045 169.756
L169.962 146.465
L170.879 192.351
L171.796 189.37
L172.714 180.411
L173.631 148.011
L174.548 211.315
L175.465 211.555
L176.383 209.542
L177.3 161.913
L178.217 178.192
L179.134 158.174
L180.052 198.479
L180.969 129.772
L181.886 148.973
L182.803 160.036
L183.721 194.053
L184.638 202.972
L185.555 139.802
L186.473 161.149
L187.39 172.525
L188.307 172.71
L189.224 146.552
L190.142 181.821
L191.059 133.991
L191.976 123.17
L192.893 150.832
L193.811 129.949
L194.728 206.01
L195.645 196.757
L196.562 134.827
L197.48 144.261
L198.397 152.261
L199.314 150.943
L200.231 138.254
L201.149 134.484
L202.066 138.243
L203.9 156.756
L204.818 182.866
L205.735 146.644
L206.652 141.445
L207.569 143.133
L208.487 152.79
L209.404 156.179
L210.321 158.307
L211.239 154.916
L212.156 195.594
L213.073 143.696
L213.99 142.343
L214.908 156.502
L215.825 161.444
L216.742 155.031
L217.659 164.808
L218.577 155.007
L219.494 152.672
L220.411 164.832
L221.328 157.556
L222.246 156.564
L223.163 159.163
L224.08 148.008
L224.997 146.975
L225.915 148.995
L226.832 148.167
L227.749 158.069
L228.666 157.226
L229.584 158.232
L230.501 154.714
L231.418 153.716
L232.336 158.458
L233.253 168.041
L234.17 172.539
L235.087 165.41
L236.005 168.725
L236.922 160.104
L237.839 191.488
L238.756 160.429
L239.674 162.724
L240.591 166.395
L241.508 167.636
L242.425 157.486
L243.343 159.695
L244.26 153.75
L245.177 158.747
L246.094 171.999
L247.012 169.119
L247.929 153.568
L248.846 156.937
L249.763 163.648
L250.681 163.53
L251.598 162.28
L252.515 171.295
L253.433 172.202
L254.35 170.764
L255.267 168.091
L256.184 168.702
L257.102 174.492
L258.019 173.318
L258.936 196.313
L259.853 177.241
L260.771 169.839
L261.688 168.759
L262.605 159.342
L263.522 156.808
L264.44 158.781
L265.357 161.404
L266.274 161.756
L267.191 167.397
L268.109 171.31
L269.026 174.345
L269.943 173.12
L270.86 180.028
L271.778 177.508
L272.695 183.971
L273.612 177.306
L274.529 176.64
L275.447 175.498
L276.364 217.527
L277.281 178.322
L278.199 161.304
L279.116 158.874
L280.033 168.714
L280.95 170.667
L281.868 167.255
L282.785 173.283
L283.702 173.952
L284.619 178.663
L285.537 184.16
L286.454 172.711
L287.371 173.448
L288.288 175.903
L289.206 171.578
L290.123 183.106
L291.04 181.581
L291.957 184.175
L292.875 183.002
L293.792 230.631
L294.709 240.657
M297.461 202.309
L298.378 182.925
L299.296 226.15
L300.213 211.189
L301.13 181.963
L302.047 178.16
L302.965 175.766
L303.882 194.06
L304.799 243.185
L305.716 192.357
L306.634 175.013
L307.551 187.664
L308.468 179.375
L309.385 189.116
L310.303 196.609
L311.22 191.972
L312.137 215.048
L313.054 182.877
L313.972 162.337
L314.889 170.924
L315.806 170.679
L316.723 174.913
L317.641 187.952
L318.558 209.543
L319.475 182.92
L320.393 164.44
L321.31 184.775
L322.227 224.722
L324.062 238.371
L324.979 240.6
L326.813 189.877
L327.731 185.994
L328.648 197.427
L329.565 218.593
L330.482 227.223
L331.4 188.159
L332.317 172.26
L334.151 236.522
L335.069 238.205
L335.986 231.501
L336.903 198.529
L337.82 210.942
L338.738 227.006
L339.655 196.857
L340.572 215.66
L341.489 213.085
L342.407 175.536
L343.324 175.819
L344.241 205.381
L345.159 229.319
L346.076 216.749
L346.993 186.682
L347.91 186.595
L348.828 198.508
L349.745 203.802
L350.662 205.148
L351.579 187.342
L352.497 191.355
L353.414 191.848
L354.331 191.861
L355.248 197.081
L356.166 201.277
L357.083 198.693
L358 206.227
L358.917 197.832
L359.835 218.105
L360.752 215.188
L361.669 213.417
L362.586 205.446
L363.504 200.866
L364.421 194.236
L365.338 214.27
L366.256 184.767
L367.173 180.074
L368.09 185.555
L369.007 193.461
L369.925 200.061
L370.842 212.043
L371.759 234.271
L372.676 222.013
M374.511 213.277" style="fill:none;stroke:#bfbf00;stroke-linecap:square;"/>
   </g>
   <g id="line2d_14">
    <path clip-path="url(#p705cba3da1)" d="
M40.6281 182.778
L41.5454 195.88
L43.3799 182.859
L45.2144 214.159
L46.1317 216.803
L47.0489 208.703
L47.9662 213.605
L48.8835 237.983
L49.8007 205.804
L50.718 209.932
L51.6352 184.397
L52.5525 179.666
L53.4698 206.083
L54.387 211.797
L55.3043 194.971
L56.2215 224.303
M61.7251 236.33
L62.6424 230.484
M64.4769 207.496
L65.3942 195.046
L66.3114 179.825
L67.2287 216.742
L68.1459 196.897
L69.0632 232.28
L69.9805 224.847
L70.8977 201.789
L71.815 197.768
L72.7322 196.745
L73.6495 197.54
L74.5668 184.621
L75.484 223.427
L76.4013 240.631
L77.3185 218.216
L78.2358 233.214
L79.1531 238.234
L80.0703 219.065
L80.9876 222.954
L81.9048 233.765
L82.8221 204.926
L83.7394 204.248
L84.6566 223.586
L85.5739 214.558
L86.4911 229.486
M88.3257 234.005
L89.2429 209.011
L90.1602 176.916
L91.0774 223.693
L91.9947 202.9
L92.912 196.888
L93.8292 186.129
L94.7465 219.514
L95.6637 243.776
L96.581 205.326
L97.4983 220.869
L98.4155 196.718
L99.3328 192.401
L100.25 212.82
L101.167 175.29
L102.085 170.679
L103.002 172.534
L103.919 181.429
L104.836 208.031
L105.754 215.203
L106.671 223.934
M108.505 219.547
L109.423 236.487
L110.34 239.333
M112.174 221.935
L113.092 230.383
L114.009 197.227
L114.926 151.447
L115.843 185.566
L116.761 167.27
L117.678 191.973
L118.595 229.934
L119.513 176.771
L120.43 205.366
L122.264 231.21
L123.182 164.605
L124.099 140.176
L125.016 156.715
L125.933 159.157
L126.851 185.467
L127.768 154.56
L128.685 153.229
L129.602 138.078
L130.52 135.969
L131.437 160.602
L132.354 151.486
L133.271 202.102
L134.189 174.456
L135.106 199.996
L136.023 161.415
L136.94 131.269
L137.858 210.434
L138.775 171.106
L139.692 171.307
L140.609 192.952
L141.527 155.021
L142.444 144.816
L143.361 149.575
L144.279 176.219
L145.196 168.366
L146.113 186.552
M147.948 130.782
L148.865 167.54
L149.782 134.043
L150.699 204.209
L151.617 150.327
L152.534 138.134
L153.451 208.07
L154.368 224.896
L155.286 157.284
L156.203 124.227
L157.12 128.309
L158.037 131.112
L158.955 140.09
L159.872 113.874
L161.706 131.882
L162.624 135.344
L163.541 153.521
L164.458 186.282
L165.376 153.019
L166.293 174.014
L167.21 131.756
L168.127 128.976
L169.045 145.037
L169.962 189.395
L170.879 190.681
L171.796 181.399
L172.714 150.78
L173.631 215.282
L174.548 219.347
L175.465 184.776
L176.383 136.6
L177.3 135.466
L178.217 144.993
L179.134 148.402
L180.052 145.059
L180.969 175.304
L181.886 156.259
L182.803 171.137
L183.721 227.466
L184.638 137.08
L185.555 155.596
L186.473 164.019
L187.39 211.012
L188.307 162.469
L189.224 135.015
L190.142 156.755
L191.059 138.51
L191.976 127.304
L192.893 133.218
L193.811 148.01
L194.728 152.439
L195.645 131.181
L196.562 142.58
L197.48 131.516
L198.397 150.772
L199.314 154.316
L200.231 144.004
L201.149 144.908
L202.066 142.695
L202.983 138.572
L203.9 138.22
L204.818 147.542
L205.735 144.545
L206.652 152.051
L207.569 170.202
L208.487 155.726
L209.404 146.831
L210.321 144.987
L211.239 159.32
L212.156 162.099
L213.073 163.677
L213.99 180.839
L214.908 169.55
L215.825 163.238
L217.659 168.59
L218.577 189.58
L219.494 193.253
L220.411 168.097
L221.328 184.565
L222.246 156.602
L223.163 157.884
L224.08 175.139
L224.997 155.589
L225.915 159.935
L226.832 159.876
L227.749 163.246
L228.666 160.349
L229.584 160.799
L230.501 164.795
L231.418 167.513
L232.336 166.64
L233.253 163.572
L234.17 166.821
L235.087 162.706
L236.005 162.477
L236.922 155.718
L237.839 156.003
L238.756 159.457
L239.674 168.066
L240.591 166.671
L242.425 179.459
L243.343 170.966
L244.26 182.532
L245.177 167.258
L246.094 177.9
L247.012 177.291
L247.929 175.936
L248.846 171.178
L249.763 169.639
L250.681 173.9
L251.598 171.581
L252.515 192.339
L253.433 175.262
L254.35 178.706
L255.267 171.423
L256.184 167.167
L257.102 154.625
L258.019 161.771
L258.936 177.533
L259.853 175.999
L260.771 167.591
L261.688 167.812
L262.605 163.746
L263.522 189.366
L265.357 155.372
L267.191 163.965
L268.109 166.656
L269.026 186.573
L269.943 164.875
L270.86 168.692
L271.778 171.105
L273.612 161.987
L274.529 155.452
L275.447 161.761
L276.364 170.512
L277.281 166.904
L278.199 171.75
L279.116 170.217
L280.033 168.256
L280.95 181.014
L281.868 185.064
L282.785 186.73
L283.702 182.57
L284.619 224.481
L285.537 184.422
L286.454 184.497
L287.371 183.563
L288.288 175.175
L289.206 180.357
L290.123 181.417
L291.04 179.605
L291.957 175.546
L292.875 176.351
L293.792 163.175
L294.709 162.809
L295.626 159.627
L297.461 164.551
L298.378 164.865
L299.296 173.202
L300.213 176.171
L301.13 177.615
L302.047 177.232
L302.965 209.066
L303.882 189.95
L304.799 196.507
L305.716 199.593
L306.634 182.08
L307.551 174.929
L308.468 195.838
L309.385 206.491
L310.303 186.324
L311.22 240.445
M313.054 230.665
L313.972 228.623
L314.889 205.76
L315.806 212.295
L316.723 234.931
L317.641 201.089
L318.558 191.011
L319.475 190.988
L320.393 206.921
L321.31 194.265
L322.227 203.426
L323.144 194.531
L324.062 206.404
L324.979 199.484
L325.896 210.248
L326.813 218.419
M328.648 232.635
L329.565 236.517
L330.482 229.86
L331.4 228.13
L332.317 225.41
L333.234 219.772
L334.151 210.475
L335.069 232.018
L335.986 224.194
L336.903 226.352
L337.82 221.137
L338.738 237.257
L339.655 206.681
L340.572 186.422
L341.489 217.699
L342.407 229.014
L343.324 215.42
L344.241 203.742
L345.159 215.794
L346.076 223.396
L346.993 236.914
L347.91 235.956
M349.745 204.897
L350.662 226.946
L351.579 235.767
L353.414 209.744
L354.331 227.641
L355.248 217.018
L356.166 237.954
L357.083 223.224
L358 242.092
L358.917 224.135
L359.835 232.371
L360.752 235.356
M362.586 234.78
L363.504 228.379
L364.421 222.269
L365.338 185.828
L366.256 181.49
L367.173 214.646
L368.09 238.569
L369.007 237.747
L369.925 224.832
L370.842 239.655
L371.759 241.961
L372.676 224.59
L373.594 223.713
L374.511 243.616
L374.511 243.616" style="fill:none;stroke:#000000;stroke-linecap:square;"/>
   </g>
   <g id="line2d_15">
    <path clip-path="url(#p705cba3da1)" d="
M40.6281 231.571
L41.5454 224.458
L42.4626 197.543
L43.3799 176.289
L44.2972 159.496
L45.2144 176.225
L46.1317 221.599
L47.0489 236.552
L47.9662 182.764
L48.8835 222.179
L49.8007 206.014
L50.718 154.777
L52.5525 200.885
L53.4698 182.041
L54.387 196.157
L55.3043 190.664
L56.2215 148.304
L57.1388 131.743
L58.0561 164.167
L58.9733 150.28
L59.8906 108.322
L60.8079 98.0708
L61.7251 186.707
L62.6424 226.576
L63.5596 229.563
L64.4769 223.904
L65.3942 236.638
M68.1459 227.958
L69.0632 216.515
L69.9805 206.954
L70.8977 189.314
L71.815 155.086
L72.7322 172.307
L73.6495 176.818
L74.5668 164.635
L75.484 199.849
L76.4013 172.366
L77.3185 150.774
L78.2358 113.165
L79.1531 181.821
L80.0703 188.215
L80.9876 171.04
L81.9048 157.036
L82.8221 180.511
L83.7394 212.225
L84.6566 126.63
L85.5739 166.184
L86.4911 198.045
L87.4084 175.101
L88.3257 219.736
L89.2429 193.737
L90.1602 185.382
L91.0774 194.615
L91.9947 171.248
L92.912 128.889
L93.8292 186.263
L94.7465 203.903
L95.6637 176.685
L96.581 158.059
L97.4983 76.7414
L98.4155 106.929
L99.3328 174.238
L101.167 114.785
L102.085 112.146
L103.002 82.1969
L103.919 167.894
L104.836 159.064
L105.754 124.983
L106.671 117.95
L107.588 116.492
L108.505 144.718
L109.423 97.4273
L110.34 113.111
L111.257 54.4542
L112.174 162.9
L113.092 127.631
L114.009 159.227
L114.926 98.4733
L115.843 65.177
L116.761 69.1588
L117.678 178.659
L118.595 162.355
L119.513 110.677
L120.43 126.201
L121.347 109.257
L122.264 103.646
L123.182 132.621
L124.099 113.668
L125.016 98.7295
L125.933 159.893
L127.768 194.221
L128.685 207.89
L129.602 119.456
L130.52 82.5301
L131.437 147.05
L132.354 99.2697
L133.271 72.5824
L134.189 152.17
L135.106 97.9525
L136.023 150.61
L137.858 49.9962
L138.775 41.7299
L139.692 192.983
L140.609 156.805
L141.527 109.178
L142.444 90.0662
L143.361 61.4303
L144.279 53.541
L145.196 53.4069
L146.113 78.9304
L147.03 94.2525
L147.948 69.3518
L148.865 109.684
L149.782 68.0419
L150.699 61.547
L151.617 45.1371
L152.534 71.3536
L153.451 106.321
L154.368 90.8544
L155.286 118.351
L156.203 136.895
L157.12 141.963
L158.037 113.05
L158.955 102.261
L159.872 110.236
L160.789 110.485
L161.706 118.412
L162.624 106.26
L163.541 103.437
L164.458 139.533
L165.376 181.797
L166.293 115.661
L167.21 157.985
L168.127 97.4657
L169.045 110.916
L169.962 93.5892
L170.879 37.0014
L171.796 54.8745
L172.714 83.3046
L173.631 156.32
L174.548 168.226
L175.465 199.725
L176.383 186.404
L177.3 111.055
L178.217 95.7266
L179.134 85.6312
L180.052 79.417
L180.969 85.3873
L181.886 89.376
L182.803 92.6109
L183.721 103.004
L184.638 105.393
L185.555 108.78
L186.473 102.904
L187.39 115.143
L188.307 110.661
L189.224 97.0375
L190.142 114.093
L191.059 126.107
L191.976 69.248
L192.893 103.654
L193.811 96.5428
L194.728 104.912
L195.645 190.651
L196.562 145.456
L198.397 110.674
L199.314 108.333
L200.231 193.517
L201.149 211.773
L202.066 157.321
L202.983 116.911
L203.9 120.424
L204.818 128.636
L205.735 126.777
L206.652 160.488
M305.716 100.123
L306.634 110.943
L307.551 109.692
L309.385 123.249
L310.303 113.65
L311.22 115.68
L312.137 112.806
L313.054 114.7
L313.972 114.183
L314.889 119.163
L315.806 188.322
L316.723 204.772
L317.641 187.121
L318.558 206.783
L319.475 176.442
L320.393 197.644
L321.31 198.732
L322.227 159.693
L323.144 191.165
L324.062 192.614
L324.979 177.99
L325.896 143.361
L326.813 128.84
L327.731 125.416
L328.648 133.329
L329.565 124.408
L330.482 158
L331.4 169.207
L332.317 181.881
L333.234 205.171
L334.151 159.373
L335.069 144.185
L335.986 194.579
L336.903 182.686
L337.82 129.048
L338.738 114.565
L339.655 126.178
L340.572 126.143
L341.489 127.559
L342.407 125.266
L343.324 126.667
L344.241 145.547
L345.159 145.961
L346.076 188.318
L346.993 209.789
L347.91 192.916
L348.828 156.703
L349.745 191.082
L350.662 178.082
L351.579 158.062
L352.497 217.311
L354.331 104.427
L355.248 151.156
L356.166 174.579
L357.083 152.073
L358 173.976
L358.917 185.815
L359.835 130.403
L360.752 129.777
L361.669 105.77
L362.586 159.4
L363.504 192.38
L364.421 165.906
L365.338 213.747
L366.256 216.368
L368.09 169.943
L369.007 131.046
L369.925 117.06
L370.842 113.459
L371.759 147.587
L372.676 137.716
L373.594 163.814
L374.511 182.603
L374.511 182.603" style="fill:none;stroke:#0000ff;stroke-linecap:square;"/>
   </g>
   <g id="line2d_16">
    <path clip-path="url(#p705cba3da1)" d="
M40.6281 230.321
L41.5454 216.19
L42.4626 212.355
L43.3799 220.176
L44.2972 207.087
L45.2144 198.638
L46.1317 209.976
M47.9662 218.809
L48.8835 234.201
L49.8007 233.301
L50.718 237.008
L51.6352 236.388
L52.5525 225.742
L53.4698 209.05
L54.387 209.321
L55.3043 208.108
L56.2215 213.109
L57.1388 204.525
L58.0561 207.708
L58.9733 209.755
L59.8906 216.289
L60.8079 205.039
M68.1459 204.278
L69.0632 227.309
L69.9805 209.85
M71.815 237.945
L72.7322 239.332
M76.4013 228.978
L77.3185 223.326
L78.2358 226.302
L79.1531 233.944
L80.0703 228.025
L80.9876 226.745
L81.9048 219.809
L82.8221 228.071
L83.7394 190.744
L84.6566 226.544
L85.5739 229.983
L86.4911 231.947
L87.4084 216.91
L88.3257 213.52
L90.1602 197.828
L91.0774 195.775
L91.9947 200.153
L92.912 225.678
L93.8292 201.852
L94.7465 228.383
L95.6637 219.806
L96.581 226.246
L97.4983 175.373
L98.4155 213.228
L99.3328 204.03
L100.25 196.676
L101.167 169.192
L102.085 214.714
L103.002 233.065
L103.919 176.302
L104.836 164.515
L105.754 150.76
L106.671 197.389
L107.588 152.65
L108.505 159.551
L109.423 197.573
L110.34 194.247
L111.257 133.444
L112.174 130.551
L113.092 124.982
L114.009 124.198
L114.926 128.702
L115.843 143.493
L116.761 188.45
L117.678 180.609
M119.513 208.634
L120.43 218.417
L121.347 187.428
L122.264 164.724
L123.182 237.149
L124.099 213.014
L125.016 165.437
L125.933 172.359
L126.851 160.582
L127.768 154.425
L128.685 135.33
L129.602 150.063
L130.52 139.205
L131.437 132.469
L132.354 131.613
L133.271 129.806
L134.189 115.81
L135.106 113.939
L136.023 132.369
L136.94 111.928
L137.858 137.405
L138.775 122
L139.692 132.616
L140.609 119.717
L141.527 143.069
L142.444 219.382
L143.361 153.035
L144.279 165.269
L145.196 211.934
L146.113 158.549
L147.03 142.205
L147.948 142.332
L148.865 102.085
L149.782 114.521
L150.699 124.068
L151.617 136.39
L152.534 146.003
L153.451 146.065
L154.368 165.793
L155.286 125.582
L156.203 119.345
L157.12 142.634
L158.037 137.395
L158.955 148.083
L159.872 101.751
L160.789 110.941
L161.706 107.031
L163.541 137.25
L164.458 160.678
L165.376 120.367
L166.293 150.529
L167.21 114.792
L168.127 152.848
L169.045 166.997
L169.962 121.903
L171.796 148.96
L172.714 151.366
L173.631 123.772
L174.548 124.051
L175.465 125.236
L176.383 106.563
L177.3 134.32
L178.217 125.765
L179.134 142.574
L180.052 133.758
L180.969 122.859
L181.886 123.809
L182.803 122.444
L183.721 119.079
L184.638 136.482
L185.555 123.902
L186.473 132.95
L187.39 123.568
L188.307 121.591
L189.224 147.544
L190.142 161.404
L191.059 146.549
L191.976 153.766
L192.893 155.522
L193.811 148.397
L194.728 181.261
L195.645 116.287
L196.562 131.529
L197.48 129.028
L198.397 130.032
L199.314 133.259
L200.231 146.946
L201.149 193.268
L202.066 161.891
L202.983 163.542
L203.9 128.456
L204.818 119.209
L205.735 124.167
L206.652 135.627
L207.569 169.551
L209.404 155.584
L210.321 146.011
L211.239 149.382
L212.156 148.569
L213.073 164.359
L213.99 184.125
L214.908 148.508
L215.825 154.217
L216.742 148.116
L217.659 155.928
L218.577 158.555
L219.494 151.14
L220.411 156.616
L221.328 177.251
L222.246 152.528
L223.163 158.634
L224.08 156.82
L224.997 184.198
L225.915 160.432
L226.832 150.295
L227.749 131.854
L228.666 136.071
L229.584 147.165
L230.501 155.712
L231.418 170.927
L232.336 167.401
L233.253 172.618
L234.17 157.036
L235.087 165.197
L236.005 168.372
L236.922 170.788
L237.839 164.864
L238.756 173.316
L239.674 166.686
L240.591 158.182
L241.508 165.414
L242.425 166.522
L243.343 160.181
L244.26 176.672
L245.177 158.915
L246.094 192.068
L247.012 157.554
L247.929 151.747
L248.846 155.165
L249.763 156.254
L250.681 161.199
L251.598 179.746
L252.515 174.018
L253.433 161.847
L254.35 161.273
L255.267 164.962
L256.184 155.455
L257.102 180.402
L258.019 166.582
L258.936 158.809
L259.853 170.09
L260.771 167.979
L261.688 181.852
L262.605 158.923
L263.522 153.942
L264.44 158.329
L265.357 153.948
L266.274 153.035
L267.191 156.988
L268.109 165.443
L269.026 170.117
L269.943 169.142
L270.86 161.895
L271.778 160.614
L272.695 152.151
L273.612 152.409
L274.529 176.637
L275.447 174.356
L277.281 182.901
L278.199 191.93
L279.116 195.312
L280.033 176.593
L280.95 177.552
L281.868 204.006
L282.785 182.316
L283.702 204.698
L284.619 183.321
L285.537 179.095
L286.454 179.583
L287.371 211.329
L288.288 216.184
L289.206 224.954
L290.123 182.865
L291.04 169.855
L291.957 162.407
L295.626 182.407
L296.544 185.229
L297.461 183.411
L298.378 181.854
L299.296 185.357
L300.213 195.703
L301.13 200.728
L302.047 176.669
L302.965 199.917
L303.882 218.328
L305.716 183.351
L306.634 188.25
L307.551 203.27
L308.468 192.065
L309.385 211.316
L310.303 195.518
L311.22 221.874
L312.137 199.317
L313.054 215.434
L313.972 204.377
L314.889 200.046
L315.806 181.826
L316.723 203.675
L317.641 198.235
L319.475 235.868
M321.31 221.396
L322.227 223.66
L323.144 208.731
L324.062 206.802
L324.979 208.892
L325.896 202.65
L326.813 219.288
L327.731 219.815
L328.648 212.992
L329.565 181.548
L330.482 223.129
M333.234 231.532
L334.151 226.897
L335.069 219.431
L335.986 214.963
L336.903 209.876
L337.82 215.178
L338.738 231.047
L339.655 222.967
L340.572 213.888
L341.489 231.525
L342.407 215.162
L343.324 219.323
L344.241 211.127
L345.159 228.908
L346.076 220.297
L346.993 230.965
L347.91 223.676
L348.828 215.436
L349.745 214.731
L350.662 214.663
L351.579 229.112
L352.497 217.432
L353.414 235.097
L354.331 224.055
L355.248 222.991
L356.166 221.559
L357.083 239.247
L358 239.84
L358.917 211.398
L359.835 218.303
L360.752 233.053
L361.669 226.172
L362.586 234.301
L363.504 239.738
L364.421 240.854
L365.338 239.939
M367.173 230.186
L368.09 242.537
M370.842 240.216" style="fill:none;stroke:#008000;stroke-linecap:square;"/>
   </g>
   <g id="patch_3">
    <path d="
M40.6281 21.3181
L375.428 21.3181" style="fill:none;stroke:#000000;stroke-linecap:square;stroke-linejoin:miter;"/>
   </g>
   <g id="patch_4">
    <path d="
M40.6281 244.518
L375.428 244.518" style="fill:none;stroke:#000000;stroke-linecap:square;stroke-linejoin:miter;"/>
   </g>
   <g id="patch_5">
    <path d="
M40.6281 244.518
L40.6281 21.3181" style="fill:none;stroke:#000000;stroke-linecap:square;stroke-linejoin:miter;"/>
   </g>
   <g id="patch_6">
    <path d="
M375.428 244.518
L375.428 21.3181" style="fill:none;stroke:#000000;stroke-linecap:square;stroke-linejoin:miter;"/>
   </g>
   <g id="matplotlib.axis_1">
    <g id="xtick_1">
     <g id="line2d_17">
      <defs>
       <path d="
M0 0
L0 -4" id="mc7db9fdffb" style="stroke:#000000;stroke-width:0.5;"/>
      </defs>
      <g>
       <use style="stroke:#000000;stroke-width:0.5;" x="40.628125" xlink:href="#mc7db9fdffb" y="244.518125"/>
      </g>
     </g>
     <g id="line2d_18">
      <defs>
       <path d="
M0 0
L0 4" id="m5a7d422ac3" style="stroke:#000000;stroke-width:0.5;"/>
      </defs>
      <g>
       <use style="stroke:#000000;stroke-width:0.5;" x="40.628125" xlink:href="#m5a7d422ac3" y="21.318125"/>
      </g>
     </g>
     <g id="text_1">
      <!-- 0 -->
      <defs>
       <path d="
M31.7812 66.4062
Q24.1719 66.4062 20.3281 58.9062
Q16.5 51.4219 16.5 36.375
Q16.5 21.3906 20.3281 13.8906
Q24.1719 6.39062 31.7812 6.39062
Q39.4531 6.39062 43.2812 13.8906
Q47.125 21.3906 47.125 36.375
Q47.125 51.4219 43.2812 58.9062
Q39.4531 66.4062 31.7812 66.4062
M31.7812 74.2188
Q44.0469 74.2188 50.5156 64.5156
Q56.9844 54.8281 56.9844 36.375
Q56.9844 17.9688 50.5156 8.26562
Q44.0469 -1.42188 31.7812 -1.42188
Q19.5312 -1.42188 13.0625 8.26562
Q6.59375 17.9688 6.59375 36.375
Q6.59375 54.8281 13.0625 64.5156
Q19.5312 74.2188 31.7812 74.2188" id="BitstreamVeraSans-Roman-30"/>
      </defs>
      <g transform="translate(38.10859375 256.1165625)scale(0.1 -0.1)">
       <use xlink:href="#BitstreamVeraSans-Roman-30"/>
      </g>
     </g>
    </g>
    <g id="xtick_2">
     <g id="line2d_19">
      <g>
       <use style="stroke:#000000;stroke-width:0.5;" x="86.4911386986" xlink:href="#mc7db9fdffb" y="244.518125"/>
      </g>
     </g>
     <g id="line2d_20">
      <g>
       <use style="stroke:#000000;stroke-width:0.5;" x="86.4911386986" xlink:href="#m5a7d422ac3" y="21.318125"/>
      </g>
     </g>
     <g id="text_2">
      <!-- 50 -->
      <defs>
       <path d="
M10.7969 72.9062
L49.5156 72.9062
L49.5156 64.5938
L19.8281 64.5938
L19.8281 46.7344
Q21.9688 47.4688 24.1094 47.8281
Q26.2656 48.1875 28.4219 48.1875
Q40.625 48.1875 47.75 41.5
Q54.8906 34.8125 54.8906 23.3906
Q54.8906 11.625 47.5625 5.09375
Q40.2344 -1.42188 26.9062 -1.42188
Q22.3125 -1.42188 17.5469 -0.640625
Q12.7969 0.140625 7.71875 1.70312
L7.71875 11.625
Q12.1094 9.23438 16.7969 8.0625
Q21.4844 6.89062 26.7031 6.89062
Q35.1562 6.89062 40.0781 11.3281
Q45.0156 15.7656 45.0156 23.3906
Q45.0156 31 40.0781 35.4375
Q35.1562 39.8906 26.7031 39.8906
Q22.75 39.8906 18.8125 39.0156
Q14.8906 38.1406 10.7969 36.2812
z
" id="BitstreamVeraSans-Roman-35"/>
      </defs>
      <g transform="translate(80.8466074486 256.1165625)scale(0.1 -0.1)">
       <use xlink:href="#BitstreamVeraSans-Roman-35"/>
       <use x="63.623046875" xlink:href="#BitstreamVeraSans-Roman-30"/>
      </g>
     </g>
    </g>
    <g id="xtick_3">
     <g id="line2d_21">
      <g>
       <use style="stroke:#000000;stroke-width:0.5;" x="132.354152397" xlink:href="#mc7db9fdffb" y="244.518125"/>
      </g>
     </g>
     <g id="line2d_22">
      <g>
       <use style="stroke:#000000;stroke-width:0.5;" x="132.354152397" xlink:href="#m5a7d422ac3" y="21.318125"/>
      </g>
     </g>
     <g id="text_3">
      <!-- 100 -->
      <defs>
       <path d="
M12.4062 8.29688
L28.5156 8.29688
L28.5156 63.9219
L10.9844 60.4062
L10.9844 69.3906
L28.4219 72.9062
L38.2812 72.9062
L38.2812 8.29688
L54.3906 8.29688
L54.3906 0
L12.4062 0
z
" id="BitstreamVeraSans-Roman-31"/>
      </defs>
      <g transform="translate(123.691652397 256.1165625)scale(0.1 -0.1)">
       <use xlink:href="#BitstreamVeraSans-Roman-31"/>
       <use x="63.623046875" xlink:href="#BitstreamVeraSans-Roman-30"/>
       <use x="127.24609375" xlink:href="#BitstreamVeraSans-Roman-30"/>
      </g>
     </g>
    </g>
    <g id="xtick_4">
     <g id="line2d_23">
      <g>
       <use style="stroke:#000000;stroke-width:0.5;" x="178.217166096" xlink:href="#mc7db9fdffb" y="244.518125"/>
      </g>
     </g>
     <g id="line2d_24">
      <g>
       <use style="stroke:#000000;stroke-width:0.5;" x="178.217166096" xlink:href="#m5a7d422ac3" y="21.318125"/>
      </g>
     </g>
     <g id="text_4">
      <!-- 150 -->
      <g transform="translate(169.554666096 256.1165625)scale(0.1 -0.1)">
       <use xlink:href="#BitstreamVeraSans-Roman-31"/>
       <use x="63.623046875" xlink:href="#BitstreamVeraSans-Roman-35"/>
       <use x="127.24609375" xlink:href="#BitstreamVeraSans-Roman-30"/>
      </g>
     </g>
    </g>
    <g id="xtick_5">
     <g id="line2d_25">
      <g>
       <use style="stroke:#000000;stroke-width:0.5;" x="224.080179795" xlink:href="#mc7db9fdffb" y="244.518125"/>
      </g>
     </g>
     <g id="line2d_26">
      <g>
       <use style="stroke:#000000;stroke-width:0.5;" x="224.080179795" xlink:href="#m5a7d422ac3" y="21.318125"/>
      </g>
     </g>
     <g id="text_5">
      <!-- 200 -->
      <defs>
       <path d="
M19.1875 8.29688
L53.6094 8.29688
L53.6094 0
L7.32812 0
L7.32812 8.29688
Q12.9375 14.1094 22.625 23.8906
Q32.3281 33.6875 34.8125 36.5312
Q39.5469 41.8438 41.4219 45.5312
Q43.3125 49.2188 43.3125 52.7812
Q43.3125 58.5938 39.2344 62.25
Q35.1562 65.9219 28.6094 65.9219
Q23.9688 65.9219 18.8125 64.3125
Q13.6719 62.7031 7.8125 59.4219
L7.8125 69.3906
Q13.7656 71.7812 18.9375 73
Q24.125 74.2188 28.4219 74.2188
Q39.75 74.2188 46.4844 68.5469
Q53.2188 62.8906 53.2188 53.4219
Q53.2188 48.9219 51.5312 44.8906
Q49.8594 40.875 45.4062 35.4062
Q44.1875 33.9844 37.6406 27.2188
Q31.1094 20.4531 19.1875 8.29688" id="BitstreamVeraSans-Roman-32"/>
      </defs>
      <g transform="translate(215.234867295 256.1165625)scale(0.1 -0.1)">
       <use xlink:href="#BitstreamVeraSans-Roman-32"/>
       <use x="63.623046875" xlink:href="#BitstreamVeraSans-Roman-30"/>
       <use x="127.24609375" xlink:href="#BitstreamVeraSans-Roman-30"/>
      </g>
     </g>
    </g>
    <g id="xtick_6">
     <g id="line2d_27">
      <g>
       <use style="stroke:#000000;stroke-width:0.5;" x="269.943193493" xlink:href="#mc7db9fdffb" y="244.518125"/>
      </g>
     </g>
     <g id="line2d_28">
      <g>
       <use style="stroke:#000000;stroke-width:0.5;" x="269.943193493" xlink:href="#m5a7d422ac3" y="21.318125"/>
      </g>
     </g>
     <g id="text_6">
      <!-- 250 -->
      <g transform="translate(261.097880993 256.1165625)scale(0.1 -0.1)">
       <use xlink:href="#BitstreamVeraSans-Roman-32"/>
       <use x="63.623046875" xlink:href="#BitstreamVeraSans-Roman-35"/>
       <use x="127.24609375" xlink:href="#BitstreamVeraSans-Roman-30"/>
      </g>
     </g>
    </g>
    <g id="xtick_7">
     <g id="line2d_29">
      <g>
       <use style="stroke:#000000;stroke-width:0.5;" x="315.806207192" xlink:href="#mc7db9fdffb" y="244.518125"/>
      </g>
     </g>
     <g id="line2d_30">
      <g>
       <use style="stroke:#000000;stroke-width:0.5;" x="315.806207192" xlink:href="#m5a7d422ac3" y="21.318125"/>
      </g>
     </g>
     <g id="text_7">
      <!-- 300 -->
      <defs>
       <path d="
M40.5781 39.3125
Q47.6562 37.7969 51.625 33
Q55.6094 28.2188 55.6094 21.1875
Q55.6094 10.4062 48.1875 4.48438
Q40.7656 -1.42188 27.0938 -1.42188
Q22.5156 -1.42188 17.6562 -0.515625
Q12.7969 0.390625 7.625 2.20312
L7.625 11.7188
Q11.7188 9.32812 16.5938 8.10938
Q21.4844 6.89062 26.8125 6.89062
Q36.0781 6.89062 40.9375 10.5469
Q45.7969 14.2031 45.7969 21.1875
Q45.7969 27.6406 41.2812 31.2656
Q36.7656 34.9062 28.7188 34.9062
L20.2188 34.9062
L20.2188 43.0156
L29.1094 43.0156
Q36.375 43.0156 40.2344 45.9219
Q44.0938 48.8281 44.0938 54.2969
Q44.0938 59.9062 40.1094 62.9062
Q36.1406 65.9219 28.7188 65.9219
Q24.6562 65.9219 20.0156 65.0312
Q15.375 64.1562 9.8125 62.3125
L9.8125 71.0938
Q15.4375 72.6562 20.3438 73.4375
Q25.25 74.2188 29.5938 74.2188
Q40.8281 74.2188 47.3594 69.1094
Q53.9062 64.0156 53.9062 55.3281
Q53.9062 49.2656 50.4375 45.0938
Q46.9688 40.9219 40.5781 39.3125" id="BitstreamVeraSans-Roman-33"/>
      </defs>
      <g transform="translate(306.975738442 256.1165625)scale(0.1 -0.1)">
       <use xlink:href="#BitstreamVeraSans-Roman-33"/>
       <use x="63.623046875" xlink:href="#BitstreamVeraSans-Roman-30"/>
       <use x="127.24609375" xlink:href="#BitstreamVeraSans-Roman-30"/>
      </g>
     </g>
    </g>
    <g id="xtick_8">
     <g id="line2d_31">
      <g>
       <use style="stroke:#000000;stroke-width:0.5;" x="361.66922089" xlink:href="#mc7db9fdffb" y="244.518125"/>
      </g>
     </g>
     <g id="line2d_32">
      <g>
       <use style="stroke:#000000;stroke-width:0.5;" x="361.66922089" xlink:href="#m5a7d422ac3" y="21.318125"/>
      </g>
     </g>
     <g id="text_8">
      <!-- 350 -->
      <g transform="translate(352.83875214 256.1165625)scale(0.1 -0.1)">
       <use xlink:href="#BitstreamVeraSans-Roman-33"/>
       <use x="63.623046875" xlink:href="#BitstreamVeraSans-Roman-35"/>
       <use x="127.24609375" xlink:href="#BitstreamVeraSans-Roman-30"/>
      </g>
     </g>
    </g>
    <g id="text_9">
     <!-- Julian day -->
     <defs>
      <path d="
M34.2812 27.4844
Q23.3906 27.4844 19.1875 25
Q14.9844 22.5156 14.9844 16.5
Q14.9844 11.7188 18.1406 8.90625
Q21.2969 6.10938 26.7031 6.10938
Q34.1875 6.10938 38.7031 11.4062
Q43.2188 16.7031 43.2188 25.4844
L43.2188 27.4844
z

M52.2031 31.2031
L52.2031 0
L43.2188 0
L43.2188 8.29688
Q40.1406 3.32812 35.5469 0.953125
Q30.9531 -1.42188 24.3125 -1.42188
Q15.9219 -1.42188 10.9531 3.29688
Q6 8.01562 6 15.9219
Q6 25.1406 12.1719 29.8281
Q18.3594 34.5156 30.6094 34.5156
L43.2188 34.5156
L43.2188 35.4062
Q43.2188 41.6094 39.1406 45
Q35.0625 48.3906 27.6875 48.3906
Q23 48.3906 18.5469 47.2656
Q14.1094 46.1406 10.0156 43.8906
L10.0156 52.2031
Q14.9375 54.1094 19.5781 55.0469
Q24.2188 56 28.6094 56
Q40.4844 56 46.3438 49.8438
Q52.2031 43.7031 52.2031 31.2031" id="BitstreamVeraSans-Roman-61"/>
      <path d="
M9.8125 72.9062
L19.6719 72.9062
L19.6719 5.07812
Q19.6719 -8.10938 14.6719 -14.0625
Q9.67188 -20.0156 -1.42188 -20.0156
L-5.17188 -20.0156
L-5.17188 -11.7188
L-2.09375 -11.7188
Q4.4375 -11.7188 7.125 -8.04688
Q9.8125 -4.39062 9.8125 5.07812
z
" id="BitstreamVeraSans-Roman-4a"/>
      <path d="
M54.8906 33.0156
L54.8906 0
L45.9062 0
L45.9062 32.7188
Q45.9062 40.4844 42.875 44.3281
Q39.8438 48.1875 33.7969 48.1875
Q26.5156 48.1875 22.3125 43.5469
Q18.1094 38.9219 18.1094 30.9062
L18.1094 0
L9.07812 0
L9.07812 54.6875
L18.1094 54.6875
L18.1094 46.1875
Q21.3438 51.125 25.7031 53.5625
Q30.0781 56 35.7969 56
Q45.2188 56 50.0469 50.1719
Q54.8906 44.3438 54.8906 33.0156" id="BitstreamVeraSans-Roman-6e"/>
      <path d="
M8.5 21.5781
L8.5 54.6875
L17.4844 54.6875
L17.4844 21.9219
Q17.4844 14.1562 20.5 10.2656
Q23.5312 6.39062 29.5938 6.39062
Q36.8594 6.39062 41.0781 11.0312
Q45.3125 15.6719 45.3125 23.6875
L45.3125 54.6875
L54.2969 54.6875
L54.2969 0
L45.3125 0
L45.3125 8.40625
Q42.0469 3.42188 37.7188 1
Q33.4062 -1.42188 27.6875 -1.42188
Q18.2656 -1.42188 13.375 4.4375
Q8.5 10.2969 8.5 21.5781" id="BitstreamVeraSans-Roman-75"/>
      <path d="
M9.42188 75.9844
L18.4062 75.9844
L18.4062 0
L9.42188 0
z
" id="BitstreamVeraSans-Roman-6c"/>
      <path d="
M32.1719 -5.07812
Q28.375 -14.8438 24.75 -17.8125
Q21.1406 -20.7969 15.0938 -20.7969
L7.90625 -20.7969
L7.90625 -13.2812
L13.1875 -13.2812
Q16.8906 -13.2812 18.9375 -11.5156
Q21 -9.76562 23.4844 -3.21875
L25.0938 0.875
L2.98438 54.6875
L12.5 54.6875
L29.5938 11.9219
L46.6875 54.6875
L56.2031 54.6875
z
" id="BitstreamVeraSans-Roman-79"/>
      <path d="
M9.42188 54.6875
L18.4062 54.6875
L18.4062 0
L9.42188 0
z

M9.42188 75.9844
L18.4062 75.9844
L18.4062 64.5938
L9.42188 64.5938
z
" id="BitstreamVeraSans-Roman-69"/>
      <path d="
M45.4062 46.3906
L45.4062 75.9844
L54.3906 75.9844
L54.3906 0
L45.4062 0
L45.4062 8.20312
Q42.5781 3.32812 38.25 0.953125
Q33.9375 -1.42188 27.875 -1.42188
Q17.9688 -1.42188 11.7344 6.48438
Q5.51562 14.4062 5.51562 27.2969
Q5.51562 40.1875 11.7344 48.0938
Q17.9688 56 27.875 56
Q33.9375 56 38.25 53.625
Q42.5781 51.2656 45.4062 46.3906
M14.7969 27.2969
Q14.7969 17.3906 18.875 11.75
Q22.9531 6.10938 30.0781 6.10938
Q37.2031 6.10938 41.2969 11.75
Q45.4062 17.3906 45.4062 27.2969
Q45.4062 37.2031 41.2969 42.8438
Q37.2031 48.4844 30.0781 48.4844
Q22.9531 48.4844 18.875 42.8438
Q14.7969 37.2031 14.7969 27.2969" id="BitstreamVeraSans-Roman-64"/>
      <path id="BitstreamVeraSans-Roman-20"/>
     </defs>
     <g transform="translate(183.47734375 270.7946875)scale(0.1 -0.1)">
      <use xlink:href="#BitstreamVeraSans-Roman-4a"/>
      <use x="29.4921875" xlink:href="#BitstreamVeraSans-Roman-75"/>
      <use x="92.87109375" xlink:href="#BitstreamVeraSans-Roman-6c"/>
      <use x="120.654296875" xlink:href="#BitstreamVeraSans-Roman-69"/>
      <use x="148.4375" xlink:href="#BitstreamVeraSans-Roman-61"/>
      <use x="209.716796875" xlink:href="#BitstreamVeraSans-Roman-6e"/>
      <use x="273.095703125" xlink:href="#BitstreamVeraSans-Roman-20"/>
      <use x="304.8828125" xlink:href="#BitstreamVeraSans-Roman-64"/>
      <use x="368.359375" xlink:href="#BitstreamVeraSans-Roman-61"/>
      <use x="429.638671875" xlink:href="#BitstreamVeraSans-Roman-79"/>
     </g>
    </g>
   </g>
   <g id="matplotlib.axis_2">
    <g id="ytick_1">
     <g id="line2d_33">
      <defs>
       <path d="
M0 0
L4 0" id="md7965d1ba0" style="stroke:#000000;stroke-width:0.5;"/>
      </defs>
      <g>
       <use style="stroke:#000000;stroke-width:0.5;" x="40.628125" xlink:href="#md7965d1ba0" y="244.518125"/>
      </g>
     </g>
     <g id="line2d_34">
      <defs>
       <path d="
M0 0
L-4 0" id="md9a1c1a7cd" style="stroke:#000000;stroke-width:0.5;"/>
      </defs>
      <g>
       <use style="stroke:#000000;stroke-width:0.5;" x="375.428125" xlink:href="#md9a1c1a7cd" y="244.518125"/>
      </g>
     </g>
     <g id="text_10">
      <!-- 0.0 -->
      <defs>
       <path d="
M10.6875 12.4062
L21 12.4062
L21 0
L10.6875 0
z
" id="BitstreamVeraSans-Roman-2e"/>
      </defs>
      <g transform="translate(22.0484375 247.2775)scale(0.1 -0.1)">
       <use xlink:href="#BitstreamVeraSans-Roman-30"/>
       <use x="63.623046875" xlink:href="#BitstreamVeraSans-Roman-2e"/>
       <use x="95.41015625" xlink:href="#BitstreamVeraSans-Roman-30"/>
      </g>
     </g>
    </g>
    <g id="ytick_2">
     <g id="line2d_35">
      <g>
       <use style="stroke:#000000;stroke-width:0.5;" x="40.628125" xlink:href="#md7965d1ba0" y="219.718125"/>
      </g>
     </g>
     <g id="line2d_36">
      <g>
       <use style="stroke:#000000;stroke-width:0.5;" x="375.428125" xlink:href="#md9a1c1a7cd" y="219.718125"/>
      </g>
     </g>
     <g id="text_11">
      <!-- 0.5 -->
      <g transform="translate(22.2578125 222.4775)scale(0.1 -0.1)">
       <use xlink:href="#BitstreamVeraSans-Roman-30"/>
       <use x="63.623046875" xlink:href="#BitstreamVeraSans-Roman-2e"/>
       <use x="95.41015625" xlink:href="#BitstreamVeraSans-Roman-35"/>
      </g>
     </g>
    </g>
    <g id="ytick_3">
     <g id="line2d_37">
      <g>
       <use style="stroke:#000000;stroke-width:0.5;" x="40.628125" xlink:href="#md7965d1ba0" y="194.918125"/>
      </g>
     </g>
     <g id="line2d_38">
      <g>
       <use style="stroke:#000000;stroke-width:0.5;" x="375.428125" xlink:href="#md9a1c1a7cd" y="194.918125"/>
      </g>
     </g>
     <g id="text_12">
      <!-- 1.0 -->
      <g transform="translate(22.4875 197.6775)scale(0.1 -0.1)">
       <use xlink:href="#BitstreamVeraSans-Roman-31"/>
       <use x="63.623046875" xlink:href="#BitstreamVeraSans-Roman-2e"/>
       <use x="95.41015625" xlink:href="#BitstreamVeraSans-Roman-30"/>
      </g>
     </g>
    </g>
    <g id="ytick_4">
     <g id="line2d_39">
      <g>
       <use style="stroke:#000000;stroke-width:0.5;" x="40.628125" xlink:href="#md7965d1ba0" y="170.118125"/>
      </g>
     </g>
     <g id="line2d_40">
      <g>
       <use style="stroke:#000000;stroke-width:0.5;" x="375.428125" xlink:href="#md9a1c1a7cd" y="170.118125"/>
      </g>
     </g>
     <g id="text_13">
      <!-- 1.5 -->
      <g transform="translate(22.696875 172.8775)scale(0.1 -0.1)">
       <use xlink:href="#BitstreamVeraSans-Roman-31"/>
       <use x="63.623046875" xlink:href="#BitstreamVeraSans-Roman-2e"/>
       <use x="95.41015625" xlink:href="#BitstreamVeraSans-Roman-35"/>
      </g>
     </g>
    </g>
    <g id="ytick_5">
     <g id="line2d_41">
      <g>
       <use style="stroke:#000000;stroke-width:0.5;" x="40.628125" xlink:href="#md7965d1ba0" y="145.318125"/>
      </g>
     </g>
     <g id="line2d_42">
      <g>
       <use style="stroke:#000000;stroke-width:0.5;" x="375.428125" xlink:href="#md9a1c1a7cd" y="145.318125"/>
      </g>
     </g>
     <g id="text_14">
      <!-- 2.0 -->
      <g transform="translate(22.121875 148.0775)scale(0.1 -0.1)">
       <use xlink:href="#BitstreamVeraSans-Roman-32"/>
       <use x="63.623046875" xlink:href="#BitstreamVeraSans-Roman-2e"/>
       <use x="95.41015625" xlink:href="#BitstreamVeraSans-Roman-30"/>
      </g>
     </g>
    </g>
    <g id="ytick_6">
     <g id="line2d_43">
      <g>
       <use style="stroke:#000000;stroke-width:0.5;" x="40.628125" xlink:href="#md7965d1ba0" y="120.518125"/>
      </g>
     </g>
     <g id="line2d_44">
      <g>
       <use style="stroke:#000000;stroke-width:0.5;" x="375.428125" xlink:href="#md9a1c1a7cd" y="120.518125"/>
      </g>
     </g>
     <g id="text_15">
      <!-- 2.5 -->
      <g transform="translate(22.33125 123.2775)scale(0.1 -0.1)">
       <use xlink:href="#BitstreamVeraSans-Roman-32"/>
       <use x="63.623046875" xlink:href="#BitstreamVeraSans-Roman-2e"/>
       <use x="95.41015625" xlink:href="#BitstreamVeraSans-Roman-35"/>
      </g>
     </g>
    </g>
    <g id="ytick_7">
     <g id="line2d_45">
      <g>
       <use style="stroke:#000000;stroke-width:0.5;" x="40.628125" xlink:href="#md7965d1ba0" y="95.718125"/>
      </g>
     </g>
     <g id="line2d_46">
      <g>
       <use style="stroke:#000000;stroke-width:0.5;" x="375.428125" xlink:href="#md9a1c1a7cd" y="95.718125"/>
      </g>
     </g>
     <g id="text_16">
      <!-- 3.0 -->
      <g transform="translate(22.1515625 98.4775)scale(0.1 -0.1)">
       <use xlink:href="#BitstreamVeraSans-Roman-33"/>
       <use x="63.623046875" xlink:href="#BitstreamVeraSans-Roman-2e"/>
       <use x="95.41015625" xlink:href="#BitstreamVeraSans-Roman-30"/>
      </g>
     </g>
    </g>
    <g id="ytick_8">
     <g id="line2d_47">
      <g>
       <use style="stroke:#000000;stroke-width:0.5;" x="40.628125" xlink:href="#md7965d1ba0" y="70.918125"/>
      </g>
     </g>
     <g id="line2d_48">
      <g>
       <use style="stroke:#000000;stroke-width:0.5;" x="375.428125" xlink:href="#md9a1c1a7cd" y="70.918125"/>
      </g>
     </g>
     <g id="text_17">
      <!-- 3.5 -->
      <g transform="translate(22.3609375 73.6775)scale(0.1 -0.1)">
       <use xlink:href="#BitstreamVeraSans-Roman-33"/>
       <use x="63.623046875" xlink:href="#BitstreamVeraSans-Roman-2e"/>
       <use x="95.41015625" xlink:href="#BitstreamVeraSans-Roman-35"/>
      </g>
     </g>
    </g>
    <g id="ytick_9">
     <g id="line2d_49">
      <g>
       <use style="stroke:#000000;stroke-width:0.5;" x="40.628125" xlink:href="#md7965d1ba0" y="46.118125"/>
      </g>
     </g>
     <g id="line2d_50">
      <g>
       <use style="stroke:#000000;stroke-width:0.5;" x="375.428125" xlink:href="#md9a1c1a7cd" y="46.118125"/>
      </g>
     </g>
     <g id="text_18">
      <!-- 4.0 -->
      <defs>
       <path d="
M37.7969 64.3125
L12.8906 25.3906
L37.7969 25.3906
z

M35.2031 72.9062
L47.6094 72.9062
L47.6094 25.3906
L58.0156 25.3906
L58.0156 17.1875
L47.6094 17.1875
L47.6094 0
L37.7969 0
L37.7969 17.1875
L4.89062 17.1875
L4.89062 26.7031
z
" id="BitstreamVeraSans-Roman-34"/>
      </defs>
      <g transform="translate(21.878125 48.8775)scale(0.1 -0.1)">
       <use xlink:href="#BitstreamVeraSans-Roman-34"/>
       <use x="63.623046875" xlink:href="#BitstreamVeraSans-Roman-2e"/>
       <use x="95.41015625" xlink:href="#BitstreamVeraSans-Roman-30"/>
      </g>
     </g>
    </g>
    <g id="ytick_10">
     <g id="line2d_51">
      <g>
       <use style="stroke:#000000;stroke-width:0.5;" x="40.628125" xlink:href="#md7965d1ba0" y="21.318125"/>
      </g>
     </g>
     <g id="line2d_52">
      <g>
       <use style="stroke:#000000;stroke-width:0.5;" x="375.428125" xlink:href="#md9a1c1a7cd" y="21.318125"/>
      </g>
     </g>
     <g id="text_19">
      <!-- 4.5 -->
      <g transform="translate(22.0875 24.0775)scale(0.1 -0.1)">
       <use xlink:href="#BitstreamVeraSans-Roman-34"/>
       <use x="63.623046875" xlink:href="#BitstreamVeraSans-Roman-2e"/>
       <use x="95.41015625" xlink:href="#BitstreamVeraSans-Roman-35"/>
      </g>
     </g>
    </g>
    <g id="text_20">
     <!-- PET (mm/day) -->
     <defs>
      <path d="
M-0.296875 72.9062
L61.375 72.9062
L61.375 64.5938
L35.5 64.5938
L35.5 0
L25.5938 0
L25.5938 64.5938
L-0.296875 64.5938
z
" id="BitstreamVeraSans-Roman-54"/>
      <path d="
M19.6719 64.7969
L19.6719 37.4062
L32.0781 37.4062
Q38.9688 37.4062 42.7188 40.9688
Q46.4844 44.5312 46.4844 51.125
Q46.4844 57.6719 42.7188 61.2344
Q38.9688 64.7969 32.0781 64.7969
z

M9.8125 72.9062
L32.0781 72.9062
Q44.3438 72.9062 50.6094 67.3594
Q56.8906 61.8125 56.8906 51.125
Q56.8906 40.3281 50.6094 34.8125
Q44.3438 29.2969 32.0781 29.2969
L19.6719 29.2969
L19.6719 0
L9.8125 0
z
" id="BitstreamVeraSans-Roman-50"/>
      <path d="
M52 44.1875
Q55.375 50.25 60.0625 53.125
Q64.75 56 71.0938 56
Q79.6406 56 84.2812 50.0156
Q88.9219 44.0469 88.9219 33.0156
L88.9219 0
L79.8906 0
L79.8906 32.7188
Q79.8906 40.5781 77.0938 44.375
Q74.3125 48.1875 68.6094 48.1875
Q61.625 48.1875 57.5625 43.5469
Q53.5156 38.9219 53.5156 30.9062
L53.5156 0
L44.4844 0
L44.4844 32.7188
Q44.4844 40.625 41.7031 44.4062
Q38.9219 48.1875 33.1094 48.1875
Q26.2188 48.1875 22.1562 43.5312
Q18.1094 38.875 18.1094 30.9062
L18.1094 0
L9.07812 0
L9.07812 54.6875
L18.1094 54.6875
L18.1094 46.1875
Q21.1875 51.2188 25.4844 53.6094
Q29.7812 56 35.6875 56
Q41.6562 56 45.8281 52.9688
Q50 49.9531 52 44.1875" id="BitstreamVeraSans-Roman-6d"/>
      <path d="
M8.01562 75.875
L15.8281 75.875
Q23.1406 64.3594 26.7812 53.3125
Q30.4219 42.2812 30.4219 31.3906
Q30.4219 20.4531 26.7812 9.375
Q23.1406 -1.70312 15.8281 -13.1875
L8.01562 -13.1875
Q14.5 -2 17.7031 9.0625
Q20.9062 20.125 20.9062 31.3906
Q20.9062 42.6719 17.7031 53.6562
Q14.5 64.6562 8.01562 75.875" id="BitstreamVeraSans-Roman-29"/>
      <path d="
M31 75.875
Q24.4688 64.6562 21.2812 53.6562
Q18.1094 42.6719 18.1094 31.3906
Q18.1094 20.125 21.3125 9.0625
Q24.5156 -2 31 -13.1875
L23.1875 -13.1875
Q15.875 -1.70312 12.2344 9.375
Q8.59375 20.4531 8.59375 31.3906
Q8.59375 42.2812 12.2031 53.3125
Q15.8281 64.3594 23.1875 75.875
z
" id="BitstreamVeraSans-Roman-28"/>
      <path d="
M9.8125 72.9062
L55.9062 72.9062
L55.9062 64.5938
L19.6719 64.5938
L19.6719 43.0156
L54.3906 43.0156
L54.3906 34.7188
L19.6719 34.7188
L19.6719 8.29688
L56.7812 8.29688
L56.7812 0
L9.8125 0
z
" id="BitstreamVeraSans-Roman-45"/>
      <path d="
M25.3906 72.9062
L33.6875 72.9062
L8.29688 -9.28125
L0 -9.28125
z
" id="BitstreamVeraSans-Roman-2f"/>
     </defs>
     <g transform="translate(14.7984375 167.82984375)rotate(-90.0)scale(0.1 -0.1)">
      <use xlink:href="#BitstreamVeraSans-Roman-50"/>
      <use x="60.302734375" xlink:href="#BitstreamVeraSans-Roman-45"/>
      <use x="123.486328125" xlink:href="#BitstreamVeraSans-Roman-54"/>
      <use x="184.5703125" xlink:href="#BitstreamVeraSans-Roman-20"/>
      <use x="216.357421875" xlink:href="#BitstreamVeraSans-Roman-28"/>
      <use x="255.37109375" xlink:href="#BitstreamVeraSans-Roman-6d"/>
      <use x="352.783203125" xlink:href="#BitstreamVeraSans-Roman-6d"/>
      <use x="450.1953125" xlink:href="#BitstreamVeraSans-Roman-2f"/>
      <use x="483.88671875" xlink:href="#BitstreamVeraSans-Roman-64"/>
      <use x="547.36328125" xlink:href="#BitstreamVeraSans-Roman-61"/>
      <use x="608.642578125" xlink:href="#BitstreamVeraSans-Roman-79"/>
      <use x="667.822265625" xlink:href="#BitstreamVeraSans-Roman-29"/>
     </g>
    </g>
   </g>
   <g id="text_21">
    <!-- daily grass PET at Treeline -->
    <defs>
     <path d="
M45.4062 27.9844
Q45.4062 37.75 41.375 43.1094
Q37.3594 48.4844 30.0781 48.4844
Q22.8594 48.4844 18.8281 43.1094
Q14.7969 37.75 14.7969 27.9844
Q14.7969 18.2656 18.8281 12.8906
Q22.8594 7.51562 30.0781 7.51562
Q37.3594 7.51562 41.375 12.8906
Q45.4062 18.2656 45.4062 27.9844
M54.3906 6.78125
Q54.3906 -7.17188 48.1875 -13.9844
Q42 -20.7969 29.2031 -20.7969
Q24.4688 -20.7969 20.2656 -20.0938
Q16.0625 -19.3906 12.1094 -17.9219
L12.1094 -9.1875
Q16.0625 -11.3281 19.9219 -12.3438
Q23.7812 -13.375 27.7812 -13.375
Q36.625 -13.375 41.0156 -8.76562
Q45.4062 -4.15625 45.4062 5.17188
L45.4062 9.625
Q42.625 4.78125 38.2812 2.39062
Q33.9375 0 27.875 0
Q17.8281 0 11.6719 7.65625
Q5.51562 15.3281 5.51562 27.9844
Q5.51562 40.6719 11.6719 48.3281
Q17.8281 56 27.875 56
Q33.9375 56 38.2812 53.6094
Q42.625 51.2188 45.4062 46.3906
L45.4062 54.6875
L54.3906 54.6875
z
" id="BitstreamVeraSans-Roman-67"/>
     <path d="
M44.2812 53.0781
L44.2812 44.5781
Q40.4844 46.5312 36.375 47.5
Q32.2812 48.4844 27.875 48.4844
Q21.1875 48.4844 17.8438 46.4375
Q14.5 44.3906 14.5 40.2812
Q14.5 37.1562 16.8906 35.375
Q19.2812 33.5938 26.5156 31.9844
L29.5938 31.2969
Q39.1562 29.25 43.1875 25.5156
Q47.2188 21.7812 47.2188 15.0938
Q47.2188 7.46875 41.1875 3.01562
Q35.1562 -1.42188 24.6094 -1.42188
Q20.2188 -1.42188 15.4531 -0.5625
Q10.6875 0.296875 5.42188 2
L5.42188 11.2812
Q10.4062 8.6875 15.2344 7.39062
Q20.0625 6.10938 24.8125 6.10938
Q31.1562 6.10938 34.5625 8.28125
Q37.9844 10.4531 37.9844 14.4062
Q37.9844 18.0625 35.5156 20.0156
Q33.0625 21.9688 24.7031 23.7812
L21.5781 24.5156
Q13.2344 26.2656 9.51562 29.9062
Q5.8125 33.5469 5.8125 39.8906
Q5.8125 47.6094 11.2812 51.7969
Q16.75 56 26.8125 56
Q31.7812 56 36.1719 55.2656
Q40.5781 54.5469 44.2812 53.0781" id="BitstreamVeraSans-Roman-73"/>
     <path d="
M41.1094 46.2969
Q39.5938 47.1719 37.8125 47.5781
Q36.0312 48 33.8906 48
Q26.2656 48 22.1875 43.0469
Q18.1094 38.0938 18.1094 28.8125
L18.1094 0
L9.07812 0
L9.07812 54.6875
L18.1094 54.6875
L18.1094 46.1875
Q20.9531 51.1719 25.4844 53.5781
Q30.0312 56 36.5312 56
Q37.4531 56 38.5781 55.875
Q39.7031 55.7656 41.0625 55.5156
z
" id="BitstreamVeraSans-Roman-72"/>
     <path d="
M56.2031 29.5938
L56.2031 25.2031
L14.8906 25.2031
Q15.4844 15.9219 20.4844 11.0625
Q25.4844 6.20312 34.4219 6.20312
Q39.5938 6.20312 44.4531 7.46875
Q49.3125 8.73438 54.1094 11.2812
L54.1094 2.78125
Q49.2656 0.734375 44.1875 -0.34375
Q39.1094 -1.42188 33.8906 -1.42188
Q20.7969 -1.42188 13.1562 6.1875
Q5.51562 13.8125 5.51562 26.8125
Q5.51562 40.2344 12.7656 48.1094
Q20.0156 56 32.3281 56
Q43.3594 56 49.7812 48.8906
Q56.2031 41.7969 56.2031 29.5938
M47.2188 32.2344
Q47.125 39.5938 43.0938 43.9844
Q39.0625 48.3906 32.4219 48.3906
Q24.9062 48.3906 20.3906 44.1406
Q15.875 39.8906 15.1875 32.1719
z
" id="BitstreamVeraSans-Roman-65"/>
     <path d="
M18.3125 70.2188
L18.3125 54.6875
L36.8125 54.6875
L36.8125 47.7031
L18.3125 47.7031
L18.3125 18.0156
Q18.3125 11.3281 20.1406 9.42188
Q21.9688 7.51562 27.5938 7.51562
L36.8125 7.51562
L36.8125 0
L27.5938 0
Q17.1875 0 13.2344 3.875
Q9.28125 7.76562 9.28125 18.0156
L9.28125 47.7031
L2.6875 47.7031
L2.6875 54.6875
L9.28125 54.6875
L9.28125 70.2188
z
" id="BitstreamVeraSans-Roman-74"/>
    </defs>
    <g transform="translate(129.7196875 16.318125)scale(0.12 -0.12)">
     <use xlink:href="#BitstreamVeraSans-Roman-64"/>
     <use x="63.4765625" xlink:href="#BitstreamVeraSans-Roman-61"/>
     <use x="124.755859375" xlink:href="#BitstreamVeraSans-Roman-69"/>
     <use x="152.5390625" xlink:href="#BitstreamVeraSans-Roman-6c"/>
     <use x="180.322265625" xlink:href="#BitstreamVeraSans-Roman-79"/>
     <use x="239.501953125" xlink:href="#BitstreamVeraSans-Roman-20"/>
     <use x="271.2890625" xlink:href="#BitstreamVeraSans-Roman-67"/>
     <use x="334.765625" xlink:href="#BitstreamVeraSans-Roman-72"/>
     <use x="375.87890625" xlink:href="#BitstreamVeraSans-Roman-61"/>
     <use x="437.158203125" xlink:href="#BitstreamVeraSans-Roman-73"/>
     <use x="489.2578125" xlink:href="#BitstreamVeraSans-Roman-73"/>
     <use x="541.357421875" xlink:href="#BitstreamVeraSans-Roman-20"/>
     <use x="573.14453125" xlink:href="#BitstreamVeraSans-Roman-50"/>
     <use x="633.447265625" xlink:href="#BitstreamVeraSans-Roman-45"/>
     <use x="696.630859375" xlink:href="#BitstreamVeraSans-Roman-54"/>
     <use x="757.71484375" xlink:href="#BitstreamVeraSans-Roman-20"/>
     <use x="789.501953125" xlink:href="#BitstreamVeraSans-Roman-61"/>
     <use x="850.78125" xlink:href="#BitstreamVeraSans-Roman-74"/>
     <use x="889.990234375" xlink:href="#BitstreamVeraSans-Roman-20"/>
     <use x="921.77734375" xlink:href="#BitstreamVeraSans-Roman-54"/>
     <use x="968.111328125" xlink:href="#BitstreamVeraSans-Roman-72"/>
     <use x="1006.974609375" xlink:href="#BitstreamVeraSans-Roman-65"/>
     <use x="1068.498046875" xlink:href="#BitstreamVeraSans-Roman-65"/>
     <use x="1130.021484375" xlink:href="#BitstreamVeraSans-Roman-6c"/>
     <use x="1157.8046875" xlink:href="#BitstreamVeraSans-Roman-69"/>
     <use x="1185.587890625" xlink:href="#BitstreamVeraSans-Roman-6e"/>
     <use x="1248.966796875" xlink:href="#BitstreamVeraSans-Roman-65"/>
    </g>
   </g>
   <g id="legend_1">
    <g id="patch_7">
     <path d="
M297.241 312.738
L369.428 312.738
L369.428 27.3181
L297.241 27.3181
z
" style="fill:#ffffff;stroke:#000000;stroke-linejoin:miter;"/>
    </g>
    <g id="line2d_53">
     <path d="
M305.641 37.0363
L322.441 37.0363" style="fill:none;stroke:#0000ff;stroke-linecap:square;"/>
    </g>
    <g id="line2d_54"/>
    <g id="text_22">
     <!-- 1999 -->
     <defs>
      <path d="
M10.9844 1.51562
L10.9844 10.5
Q14.7031 8.73438 18.5 7.8125
Q22.3125 6.89062 25.9844 6.89062
Q35.75 6.89062 40.8906 13.4531
Q46.0469 20.0156 46.7812 33.4062
Q43.9531 29.2031 39.5938 26.9531
Q35.25 24.7031 29.9844 24.7031
Q19.0469 24.7031 12.6719 31.3125
Q6.29688 37.9375 6.29688 49.4219
Q6.29688 60.6406 12.9375 67.4219
Q19.5781 74.2188 30.6094 74.2188
Q43.2656 74.2188 49.9219 64.5156
Q56.5938 54.8281 56.5938 36.375
Q56.5938 19.1406 48.4062 8.85938
Q40.2344 -1.42188 26.4219 -1.42188
Q22.7031 -1.42188 18.8906 -0.6875
Q15.0938 0.046875 10.9844 1.51562
M30.6094 32.4219
Q37.25 32.4219 41.125 36.9531
Q45.0156 41.5 45.0156 49.4219
Q45.0156 57.2812 41.125 61.8438
Q37.25 66.4062 30.6094 66.4062
Q23.9688 66.4062 20.0938 61.8438
Q16.2188 57.2812 16.2188 49.4219
Q16.2188 41.5 20.0938 36.9531
Q23.9688 32.4219 30.6094 32.4219" id="BitstreamVeraSans-Roman-39"/>
     </defs>
     <g transform="translate(335.640625 41.23625)scale(0.12 -0.12)">
      <use xlink:href="#BitstreamVeraSans-Roman-31"/>
      <use x="63.623046875" xlink:href="#BitstreamVeraSans-Roman-39"/>
      <use x="127.24609375" xlink:href="#BitstreamVeraSans-Roman-39"/>
      <use x="190.869140625" xlink:href="#BitstreamVeraSans-Roman-39"/>
     </g>
    </g>
    <g id="line2d_55">
     <path d="
M305.641 54.65
L322.441 54.65" style="fill:none;stroke:#008000;stroke-linecap:square;"/>
    </g>
    <g id="line2d_56"/>
    <g id="text_23">
     <!-- 2000 -->
     <g transform="translate(335.640625 58.85)scale(0.12 -0.12)">
      <use xlink:href="#BitstreamVeraSans-Roman-32"/>
      <use x="63.623046875" xlink:href="#BitstreamVeraSans-Roman-30"/>
      <use x="127.24609375" xlink:href="#BitstreamVeraSans-Roman-30"/>
      <use x="190.869140625" xlink:href="#BitstreamVeraSans-Roman-30"/>
     </g>
    </g>
    <g id="line2d_57">
     <path d="
M305.641 72.2638
L322.441 72.2638" style="fill:none;stroke:#ff0000;stroke-linecap:square;"/>
    </g>
    <g id="line2d_58"/>
    <g id="text_24">
     <!-- 2001 -->
     <g transform="translate(335.640625 76.46375)scale(0.12 -0.12)">
      <use xlink:href="#BitstreamVeraSans-Roman-32"/>
      <use x="63.623046875" xlink:href="#BitstreamVeraSans-Roman-30"/>
      <use x="127.24609375" xlink:href="#BitstreamVeraSans-Roman-30"/>
      <use x="190.869140625" xlink:href="#BitstreamVeraSans-Roman-31"/>
     </g>
    </g>
    <g id="line2d_59">
     <path d="
M305.641 89.8775
L322.441 89.8775" style="fill:none;stroke:#00bfbf;stroke-linecap:square;"/>
    </g>
    <g id="line2d_60"/>
    <g id="text_25">
     <!-- 2002 -->
     <g transform="translate(335.640625 94.0775)scale(0.12 -0.12)">
      <use xlink:href="#BitstreamVeraSans-Roman-32"/>
      <use x="63.623046875" xlink:href="#BitstreamVeraSans-Roman-30"/>
      <use x="127.24609375" xlink:href="#BitstreamVeraSans-Roman-30"/>
      <use x="190.869140625" xlink:href="#BitstreamVeraSans-Roman-32"/>
     </g>
    </g>
    <g id="line2d_61">
     <path d="
M305.641 107.491
L322.441 107.491" style="fill:none;stroke:#bf00bf;stroke-linecap:square;"/>
    </g>
    <g id="line2d_62"/>
    <g id="text_26">
     <!-- 2003 -->
     <g transform="translate(335.640625 111.69125)scale(0.12 -0.12)">
      <use xlink:href="#BitstreamVeraSans-Roman-32"/>
      <use x="63.623046875" xlink:href="#BitstreamVeraSans-Roman-30"/>
      <use x="127.24609375" xlink:href="#BitstreamVeraSans-Roman-30"/>
      <use x="190.869140625" xlink:href="#BitstreamVeraSans-Roman-33"/>
     </g>
    </g>
    <g id="line2d_63">
     <path d="
M305.641 125.105
L322.441 125.105" style="fill:none;stroke:#bfbf00;stroke-linecap:square;"/>
    </g>
    <g id="line2d_64"/>
    <g id="text_27">
     <!-- 2004 -->
     <g transform="translate(335.640625 129.305)scale(0.12 -0.12)">
      <use xlink:href="#BitstreamVeraSans-Roman-32"/>
      <use x="63.623046875" xlink:href="#BitstreamVeraSans-Roman-30"/>
      <use x="127.24609375" xlink:href="#BitstreamVeraSans-Roman-30"/>
      <use x="190.869140625" xlink:href="#BitstreamVeraSans-Roman-34"/>
     </g>
    </g>
    <g id="line2d_65">
     <path d="
M305.641 142.719
L322.441 142.719" style="fill:none;stroke:#000000;stroke-linecap:square;"/>
    </g>
    <g id="line2d_66"/>
    <g id="text_28">
     <!-- 2005 -->
     <g transform="translate(335.640625 146.91875)scale(0.12 -0.12)">
      <use xlink:href="#BitstreamVeraSans-Roman-32"/>
      <use x="63.623046875" xlink:href="#BitstreamVeraSans-Roman-30"/>
      <use x="127.24609375" xlink:href="#BitstreamVeraSans-Roman-30"/>
      <use x="190.869140625" xlink:href="#BitstreamVeraSans-Roman-35"/>
     </g>
    </g>
    <g id="line2d_67">
     <path d="
M305.641 160.333
L322.441 160.333" style="fill:none;stroke:#0000ff;stroke-linecap:square;"/>
    </g>
    <g id="line2d_68"/>
    <g id="text_29">
     <!-- 2006 -->
     <defs>
      <path d="
M33.0156 40.375
Q26.375 40.375 22.4844 35.8281
Q18.6094 31.2969 18.6094 23.3906
Q18.6094 15.5312 22.4844 10.9531
Q26.375 6.39062 33.0156 6.39062
Q39.6562 6.39062 43.5312 10.9531
Q47.4062 15.5312 47.4062 23.3906
Q47.4062 31.2969 43.5312 35.8281
Q39.6562 40.375 33.0156 40.375
M52.5938 71.2969
L52.5938 62.3125
Q48.875 64.0625 45.0938 64.9844
Q41.3125 65.9219 37.5938 65.9219
Q27.8281 65.9219 22.6719 59.3281
Q17.5312 52.7344 16.7969 39.4062
Q19.6719 43.6562 24.0156 45.9219
Q28.375 48.1875 33.5938 48.1875
Q44.5781 48.1875 50.9531 41.5156
Q57.3281 34.8594 57.3281 23.3906
Q57.3281 12.1562 50.6875 5.35938
Q44.0469 -1.42188 33.0156 -1.42188
Q20.3594 -1.42188 13.6719 8.26562
Q6.98438 17.9688 6.98438 36.375
Q6.98438 53.6562 15.1875 63.9375
Q23.3906 74.2188 37.2031 74.2188
Q40.9219 74.2188 44.7031 73.4844
Q48.4844 72.75 52.5938 71.2969" id="BitstreamVeraSans-Roman-36"/>
     </defs>
     <g transform="translate(335.640625 164.5325)scale(0.12 -0.12)">
      <use xlink:href="#BitstreamVeraSans-Roman-32"/>
      <use x="63.623046875" xlink:href="#BitstreamVeraSans-Roman-30"/>
      <use x="127.24609375" xlink:href="#BitstreamVeraSans-Roman-30"/>
      <use x="190.869140625" xlink:href="#BitstreamVeraSans-Roman-36"/>
     </g>
    </g>
    <g id="line2d_69">
     <path d="
M305.641 177.946
L322.441 177.946" style="fill:none;stroke:#008000;stroke-linecap:square;"/>
    </g>
    <g id="line2d_70"/>
    <g id="text_30">
     <!-- 2007 -->
     <defs>
      <path d="
M8.20312 72.9062
L55.0781 72.9062
L55.0781 68.7031
L28.6094 0
L18.3125 0
L43.2188 64.5938
L8.20312 64.5938
z
" id="BitstreamVeraSans-Roman-37"/>
     </defs>
     <g transform="translate(335.640625 182.14625)scale(0.12 -0.12)">
      <use xlink:href="#BitstreamVeraSans-Roman-32"/>
      <use x="63.623046875" xlink:href="#BitstreamVeraSans-Roman-30"/>
      <use x="127.24609375" xlink:href="#BitstreamVeraSans-Roman-30"/>
      <use x="190.869140625" xlink:href="#BitstreamVeraSans-Roman-37"/>
     </g>
    </g>
    <g id="line2d_71">
     <path d="
M305.641 195.56
L322.441 195.56" style="fill:none;stroke:#ff0000;stroke-linecap:square;"/>
    </g>
    <g id="line2d_72"/>
    <g id="text_31">
     <!-- 2008 -->
     <defs>
      <path d="
M31.7812 34.625
Q24.75 34.625 20.7188 30.8594
Q16.7031 27.0938 16.7031 20.5156
Q16.7031 13.9219 20.7188 10.1562
Q24.75 6.39062 31.7812 6.39062
Q38.8125 6.39062 42.8594 10.1719
Q46.9219 13.9688 46.9219 20.5156
Q46.9219 27.0938 42.8906 30.8594
Q38.875 34.625 31.7812 34.625
M21.9219 38.8125
Q15.5781 40.375 12.0312 44.7188
Q8.5 49.0781 8.5 55.3281
Q8.5 64.0625 14.7188 69.1406
Q20.9531 74.2188 31.7812 74.2188
Q42.6719 74.2188 48.875 69.1406
Q55.0781 64.0625 55.0781 55.3281
Q55.0781 49.0781 51.5312 44.7188
Q48 40.375 41.7031 38.8125
Q48.8281 37.1562 52.7969 32.3125
Q56.7812 27.4844 56.7812 20.5156
Q56.7812 9.90625 50.3125 4.23438
Q43.8438 -1.42188 31.7812 -1.42188
Q19.7344 -1.42188 13.25 4.23438
Q6.78125 9.90625 6.78125 20.5156
Q6.78125 27.4844 10.7812 32.3125
Q14.7969 37.1562 21.9219 38.8125
M18.3125 54.3906
Q18.3125 48.7344 21.8438 45.5625
Q25.3906 42.3906 31.7812 42.3906
Q38.1406 42.3906 41.7188 45.5625
Q45.3125 48.7344 45.3125 54.3906
Q45.3125 60.0625 41.7188 63.2344
Q38.1406 66.4062 31.7812 66.4062
Q25.3906 66.4062 21.8438 63.2344
Q18.3125 60.0625 18.3125 54.3906" id="BitstreamVeraSans-Roman-38"/>
     </defs>
     <g transform="translate(335.640625 199.76)scale(0.12 -0.12)">
      <use xlink:href="#BitstreamVeraSans-Roman-32"/>
      <use x="63.623046875" xlink:href="#BitstreamVeraSans-Roman-30"/>
      <use x="127.24609375" xlink:href="#BitstreamVeraSans-Roman-30"/>
      <use x="190.869140625" xlink:href="#BitstreamVeraSans-Roman-38"/>
     </g>
    </g>
    <g id="line2d_73">
     <path d="
M305.641 213.174
L322.441 213.174" style="fill:none;stroke:#00bfbf;stroke-linecap:square;"/>
    </g>
    <g id="line2d_74"/>
    <g id="text_32">
     <!-- 2009 -->
     <g transform="translate(335.640625 217.37375)scale(0.12 -0.12)">
      <use xlink:href="#BitstreamVeraSans-Roman-32"/>
      <use x="63.623046875" xlink:href="#BitstreamVeraSans-Roman-30"/>
      <use x="127.24609375" xlink:href="#BitstreamVeraSans-Roman-30"/>
      <use x="190.869140625" xlink:href="#BitstreamVeraSans-Roman-39"/>
     </g>
    </g>
    <g id="line2d_75">
     <path d="
M305.641 230.788
L322.441 230.788" style="fill:none;stroke:#bf00bf;stroke-linecap:square;"/>
    </g>
    <g id="line2d_76"/>
    <g id="text_33">
     <!-- 2010 -->
     <g transform="translate(335.640625 234.9875)scale(0.12 -0.12)">
      <use xlink:href="#BitstreamVeraSans-Roman-32"/>
      <use x="63.623046875" xlink:href="#BitstreamVeraSans-Roman-30"/>
      <use x="127.24609375" xlink:href="#BitstreamVeraSans-Roman-31"/>
      <use x="190.869140625" xlink:href="#BitstreamVeraSans-Roman-30"/>
     </g>
    </g>
    <g id="line2d_77">
     <path d="
M305.641 248.401
L322.441 248.401" style="fill:none;stroke:#bfbf00;stroke-linecap:square;"/>
    </g>
    <g id="line2d_78"/>
    <g id="text_34">
     <!-- 2011 -->
     <g transform="translate(335.640625 252.60125)scale(0.12 -0.12)">
      <use xlink:href="#BitstreamVeraSans-Roman-32"/>
      <use x="63.623046875" xlink:href="#BitstreamVeraSans-Roman-30"/>
      <use x="127.24609375" xlink:href="#BitstreamVeraSans-Roman-31"/>
      <use x="190.869140625" xlink:href="#BitstreamVeraSans-Roman-31"/>
     </g>
    </g>
    <g id="line2d_79">
     <path d="
M305.641 266.015
L322.441 266.015" style="fill:none;stroke:#000000;stroke-linecap:square;"/>
    </g>
    <g id="line2d_80"/>
    <g id="text_35">
     <!-- 2012 -->
     <g transform="translate(335.640625 270.215)scale(0.12 -0.12)">
      <use xlink:href="#BitstreamVeraSans-Roman-32"/>
      <use x="63.623046875" xlink:href="#BitstreamVeraSans-Roman-30"/>
      <use x="127.24609375" xlink:href="#BitstreamVeraSans-Roman-31"/>
      <use x="190.869140625" xlink:href="#BitstreamVeraSans-Roman-32"/>
     </g>
    </g>
    <g id="line2d_81">
     <path d="
M305.641 283.629
L322.441 283.629" style="fill:none;stroke:#0000ff;stroke-linecap:square;"/>
    </g>
    <g id="line2d_82"/>
    <g id="text_36">
     <!-- 2013 -->
     <g transform="translate(335.640625 287.82875)scale(0.12 -0.12)">
      <use xlink:href="#BitstreamVeraSans-Roman-32"/>
      <use x="63.623046875" xlink:href="#BitstreamVeraSans-Roman-30"/>
      <use x="127.24609375" xlink:href="#BitstreamVeraSans-Roman-31"/>
      <use x="190.869140625" xlink:href="#BitstreamVeraSans-Roman-33"/>
     </g>
    </g>
    <g id="line2d_83">
     <path d="
M305.641 301.243
L322.441 301.243" style="fill:none;stroke:#008000;stroke-linecap:square;"/>
    </g>
    <g id="line2d_84"/>
    <g id="text_37">
     <!-- 2014 -->
     <g transform="translate(335.640625 305.4425)scale(0.12 -0.12)">
      <use xlink:href="#BitstreamVeraSans-Roman-32"/>
      <use x="63.623046875" xlink:href="#BitstreamVeraSans-Roman-30"/>
      <use x="127.24609375" xlink:href="#BitstreamVeraSans-Roman-31"/>
      <use x="190.869140625" xlink:href="#BitstreamVeraSans-Roman-34"/>
     </g>
    </g>
   </g>
  </g>
 </g>
 <defs>
  <clipPath id="p705cba3da1">
   <rect height="223.2" width="334.8" x="40.628125" y="21.318125"/>
  </clipPath>
 </defs>
</svg>
