<?xml version="1.0" encoding="utf-8" standalone="no"?>
<!DOCTYPE svg PUBLIC "-//W3C//DTD SVG 1.1//EN"
  "http://www.w3.org/Graphics/SVG/1.1/DTD/svg11.dtd">
<!-- Created with matplotlib (http://matplotlib.org/) -->
<svg height="284pt" version="1.1" viewBox="0 0 390 284" width="390pt" xmlns="http://www.w3.org/2000/svg" xmlns:xlink="http://www.w3.org/1999/xlink">
 <defs>
  <style type="text/css">
*{stroke-linecap:butt;stroke-linejoin:round;}
  </style>
 </defs>
 <g id="figure_1">
  <g id="patch_1">
   <path d="
M0 284.711
L390.228 284.711
L390.228 0
L0 0
z
" style="fill:#ffffff;"/>
  </g>
  <g id="axes_1">
   <g id="patch_2">
    <path d="
M48.2281 244.518
L383.028 244.518
L383.028 21.3181
L48.2281 21.3181
z
" style="fill:#ffffff;"/>
   </g>
   <g id="line2d_1">
    <path clip-path="url(#p60c6dbb31d)" d="
M0 0" style="fill:none;stroke:#0000ff;stroke-linecap:square;"/>
   </g>
   <g id="line2d_2">
    <path clip-path="url(#p60c6dbb31d)" d="
M0 0" style="fill:none;stroke:#008000;stroke-linecap:square;"/>
   </g>
   <g id="line2d_3">
    <path clip-path="url(#p60c6dbb31d)" d="
M0 0" style="fill:none;stroke:#ff0000;stroke-linecap:square;"/>
   </g>
   <g id="line2d_4">
    <path clip-path="url(#p60c6dbb31d)" d="
M0 0" style="fill:none;stroke:#00bfbf;stroke-linecap:square;"/>
   </g>
   <g id="line2d_5">
    <path clip-path="url(#p60c6dbb31d)" d="
M0 0" style="fill:none;stroke:#bf00bf;stroke-linecap:square;"/>
   </g>
   <g id="line2d_6">
    <path clip-path="url(#p60c6dbb31d)" d="
M0 0" style="fill:none;stroke:#bfbf00;stroke-linecap:square;"/>
   </g>
   <g id="line2d_7">
    <path clip-path="url(#p60c6dbb31d)" d="
M0 0" style="fill:none;stroke:#000000;stroke-linecap:square;"/>
   </g>
   <g id="line2d_8">
    <path clip-path="url(#p60c6dbb31d)" d="
M0 0" style="fill:none;stroke:#0000ff;stroke-linecap:square;"/>
   </g>
   <g id="line2d_9">
    <path clip-path="url(#p60c6dbb31d)" d="
M0 0" style="fill:none;stroke:#008000;stroke-linecap:square;"/>
   </g>
   <g id="line2d_10">
    <path clip-path="url(#p60c6dbb31d)" d="
M48.2281 125.273
L49.1454 96.5159
L50.0626 110.587
L50.9799 177.962
L51.8972 193.878
L52.8144 197.371
L53.7317 203.199
L54.6489 201.052
L55.5662 181.332
L56.4835 198.352
L57.4007 226.396
L58.318 196.681
L59.2352 196.386
L60.1525 179.937
L61.0698 172.668
L61.987 151.093
L62.9043 165.996
L63.8215 170.92
L64.7388 164.563
L65.6561 209.896
L66.5733 210.211
L67.4906 174.429
L68.4079 151.356
L69.3251 160.355
L70.2424 184.933
L71.1596 177.685
L72.0769 177.914
L72.9942 196.669
L73.9114 203.282
L74.8287 229.113
L75.7459 216.98
L76.6632 202.913
L77.5805 197.686
L78.4977 221.829
L79.415 188.721
L80.3322 183.179
L81.2495 188.869
L82.1668 214.535
L83.084 171.451
L84.0013 189.902
L84.9185 163.938
L85.8358 168.301
L86.7531 165.124
L87.6703 180.781
L88.5876 146.352
L89.5048 146.762
L90.4221 156.248
L91.3394 130.603
L92.2566 144.719
L93.1739 153.267
L95.0084 180.157
L95.9257 204.316
L96.8429 181.064
L97.7602 187.972
L98.6774 210.681
L99.5947 163.987
L100.512 169.597
L102.346 147.839
L103.264 182.404
L104.181 180.785
L105.098 151.914
L106.016 160.577
L106.933 145.902
L107.85 119.123
L108.767 133.861
L109.685 168.183
L110.602 149.401
L111.519 138.752
L112.436 121.871
L113.354 96.567
L114.271 182.853
L115.188 194.229
L116.105 162.271
L117.023 167.41
L117.94 145.818
L118.857 211.072
L119.774 198.073
L120.692 159.07
L121.609 110.955
L122.526 97.9886
L123.443 117.884
L124.361 173.772
L125.278 171.84
L126.195 201.688
L127.113 131.306
L128.03 180.031
L128.947 148.809
L129.864 148.042
L130.782 151.268
L131.699 96.2949
L132.616 91.9595
L133.533 92.449
L134.451 148.228
L135.368 127.132
L136.285 153.058
L137.202 172.778
L138.12 122.294
L139.954 158.437
L140.871 108.117
L141.789 108.135
L142.706 119.21
L143.623 149.033
L144.54 136.424
L145.458 116.762
L146.375 89.2279
L147.292 90.9796
L148.209 108.518
L149.127 117.101
L150.044 107.794
L150.961 83.0975
L151.879 148.384
L152.796 146.337
L153.713 69.6526
L154.63 35.7095
L155.548 54.8772
L156.465 62.7828
L157.382 145.902
L158.299 62.7556
L159.217 66.0765
L160.134 43.4123
L161.051 53.1078
L162.886 68.9613
L163.803 89.5239
L164.72 119.618
L165.637 67.8581
L166.555 47.9042
L167.472 54.2814
L168.389 74.7962
L169.306 64.3452
L170.224 84.7571
L171.141 143.37
L172.058 100.791
L172.976 90.1329
L173.893 89.5888
L174.81 103.129
L175.727 91.3253
L176.645 157.098
L177.562 130.838
L178.479 129.234
L179.396 153.118
L180.314 99.8243
L181.231 133.64
L182.148 157.38
L183.065 154.633
L183.983 122.183
L184.9 126.705
L185.817 116.608
L186.734 115.709
L187.652 155.14
L188.569 79.487
L189.486 166.705
L190.403 130.741
L191.321 86.4199
L192.238 75.9586
L193.155 112.65
L194.073 51.3481
L194.99 107.433
L195.907 123.068
L196.824 130.595
L197.742 78.0356
L198.659 67.2647
L199.576 67.6726
L200.493 75.9552
L201.411 82.0858
L202.328 80.8354
L203.245 74.3367
L204.162 74.1093
L205.08 93.52
L205.997 127.867
L206.914 100.352
L207.831 86.1795
L208.749 91.6145
L209.666 78.2719
L210.583 86.23
L211.5 90.6987
L212.418 99.0984
L213.335 105.626
L214.252 120.449
L215.169 124.949
L216.087 97.1156
L217.004 107.556
L217.921 112.905
L218.839 103.154
L219.756 91.5581
L220.673 94.4779
L221.59 94.8471
L222.508 96.6951
L223.425 89.4575
L224.342 71.6052
L225.259 82.2137
L226.177 91.0006
L227.094 94.4659
L228.011 97.0996
L228.928 102.797
L229.846 98.591
L230.763 87.6106
L231.68 89.1159
L232.597 101.442
L234.432 143.608
L235.349 102.542
L236.266 98.7233
L237.184 103.241
L238.101 101.514
L239.018 101.273
L239.936 101.434
L240.853 124.302
L241.77 92.8123
L242.687 95.3704
L243.605 107.606
L244.522 99.8016
L245.439 99.801
L246.356 102.15
L247.274 123.46
L248.191 133.08
L249.108 124.669
L250.025 136.415
L250.943 109.187
L251.86 92.2548
L252.777 97.71
L253.694 104.606
L254.612 106.469
L255.529 110.189
L256.446 109.924
L257.363 105.992
L258.281 111.822
L259.198 126.439
L260.115 127.823
L261.033 112.966
L261.95 122.182
L262.867 91.3574
L263.784 101.405
L264.702 113.749
L265.619 119.525
L266.536 103.594
L267.453 89.8859
L268.371 105.212
L269.288 112.79
L270.205 114.885
L271.122 107.474
L272.04 119.872
L272.957 101.862
L273.874 86.4302
L274.791 87.5062
L275.709 99.9422
L276.626 110.154
L277.543 106.825
L278.46 102.367
L279.378 108.974
L280.295 93.1792
L281.212 99.0289
L282.129 97.697
L283.047 107.076
L283.964 109.01
L284.881 107.912
L285.799 111.927
L286.716 114.248
L287.633 117.954
L288.55 141.534
L289.468 171.057
L290.385 185.344
L291.302 134.783
L292.219 107.463
L293.137 100.931
L294.054 111.806
L294.971 106.183
L295.888 114.716
L296.806 109.863
L297.723 113.581
L298.64 123.609
L299.557 122.177
L300.475 147.593
L301.392 149.24
L302.309 202.041
L303.226 172.818
L304.144 131.472
L305.061 132.508
L305.978 98.2255
L306.896 103.974
L307.813 201.746
L308.73 177.311
L309.647 127.873
L310.565 106.169
L311.482 123.147
L312.399 120.434
L313.316 118.781
L314.234 133.239
L315.151 126.096
L316.068 134.472
L316.985 128.458
L317.903 133.975
L318.82 87.0972
L320.654 105.406
L321.572 122.903
L322.489 119.716
L323.406 107.85
L324.323 119.742
L325.241 120.787
L326.158 126.254
L327.993 184.869
L328.91 204.156
L329.827 208.117
L330.744 209.606
L331.662 175.621
L332.579 186.395
L333.496 175.072
L334.413 175.05
L335.331 205.448
L336.248 195.483
L337.165 212.777
L338.082 183.385
L339 167.406
L339.917 125.42
L340.834 125.094
L341.751 132.74
L342.669 121.866
L343.586 128.584
L344.503 143.731
L345.42 167.593
L346.338 139.886
L347.255 167.473
L348.172 181.113
L349.089 130.008
L350.007 134.578
L350.924 155.073
L351.841 145.341
L352.759 165.655
L353.676 199.674
L354.593 189.029
L355.51 156.103
L356.428 193.353
L357.345 208.831
L358.262 144.283
L359.179 129.327
L360.097 128.701
L361.014 163.874
L361.931 190.03
L362.848 149.209
L363.766 132.867
L364.683 165.219
L366.517 217.209
L367.435 215.419
L368.352 191.874
L369.269 188.312
L370.186 179.356
L371.104 164.624
L372.021 205.563
L372.938 176.703
L373.856 199.38
L374.773 213.49
L375.69 204.593
L376.607 193.805
L377.525 224.894
L378.442 196.319
L379.359 214.832
L380.276 215.584
L381.194 184.169
L382.111 142.23
L382.111 142.23" style="fill:none;stroke:#ff0000;stroke-linecap:square;"/>
   </g>
   <g id="line2d_11">
    <path clip-path="url(#p60c6dbb31d)" d="
M48.2281 206.561
L49.1454 170.858
L50.0626 178.796
L50.9799 131.941
L51.8972 163.368
L52.8144 213.731
L53.7317 192.555
L54.6489 179.356
L55.5662 199.098
L56.4835 161.283
L58.318 194.562
L59.2352 183.718
L60.1525 148.462
L61.0698 158.117
L61.987 152.762
L62.9043 178.553
L63.8215 162.716
L64.7388 177.919
L65.6561 173.66
L66.5733 150.974
L67.4906 181.366
L68.4079 217.597
L69.3251 215.42
L70.2424 225.512
L71.1596 216.079
L72.0769 182.436
L72.9942 186.449
L73.9114 186.725
L74.8287 177.562
L75.7459 179.047
L76.6632 150.52
L77.5805 130.202
L78.4977 146.205
L79.415 165.447
L80.3322 160.996
L82.1668 197.863
L83.084 190.376
L84.0013 209.149
L84.9185 192.929
L85.8358 188.456
L86.7531 210.694
L87.6703 190.62
L88.5876 214.324
L89.5048 166.718
L90.4221 166.645
L91.3394 204.305
L92.2566 168.116
L93.1739 157.02
L94.0911 159.579
L95.0084 138.081
L95.9257 150.017
L96.8429 183.039
L97.7602 144.401
L98.6774 175.175
L99.5947 180.419
L100.512 132.488
L101.429 103.477
L102.346 134.637
L103.264 157.973
L104.181 189.96
L105.098 212.484
L106.016 231.406
L106.933 186.245
L107.85 175.151
L108.767 183.393
L109.685 158.235
L110.602 161.341
L111.519 134.576
L113.354 144.22
L114.271 156.233
L115.188 215.257
L116.105 190.12
L117.023 157.933
L117.94 114.238
L118.857 140.334
L119.774 117.138
L120.692 171.967
L121.609 185.525
L122.526 140.441
L123.443 137.82
L124.361 200.975
L126.195 115.294
L127.113 176.647
L128.03 185.683
L128.947 129.782
L129.864 202.752
L130.782 161.751
L131.699 205.451
L132.616 202.796
L134.451 113.47
L135.368 91.9532
L136.285 96.7156
L137.202 174.722
L138.12 131.897
L139.037 182.892
L140.871 96.1671
L141.789 140.856
L142.706 109.392
L143.623 133.297
L144.54 78.1406
L145.458 86.4068
L146.375 87.5143
L147.292 75.8347
L148.209 87.502
L149.127 95.4192
L150.044 99.2711
L150.961 108.148
L151.879 43.8907
L152.796 62.2262
L153.713 87.4921
L154.63 93.946
L155.548 178.68
L156.465 86.3391
L157.382 106.386
L158.299 122.887
L159.217 143.022
L160.134 201.538
L161.051 147.47
L161.968 145.17
L162.886 156.502
L164.72 79.1216
L165.637 57.0275
L166.555 74.7375
L167.472 82.8609
L168.389 98.4003
L169.306 69.1358
L170.224 116.615
L171.141 77.213
L172.058 73.3083
L172.976 83.6644
L173.893 98.301
L174.81 87.4935
L175.727 62.7368
L176.645 63.7205
L177.562 84.5406
L178.479 109.819
L179.396 112.824
L180.314 84.6248
L181.231 85.2863
L182.148 84.8398
L183.065 88.2096
L183.983 107.204
L184.9 106.481
L186.734 129.455
L187.652 189.869
L188.569 125.742
L189.486 136.789
L190.403 168.798
L191.321 173.539
L192.238 107.087
L193.155 106.912
L194.073 104.571
L194.99 133.89
L195.907 132.384
L196.824 129.951
L197.742 178.202
L198.659 177.904
L199.576 175.311
L200.493 124.933
L201.411 150.413
L202.328 90.2419
L203.245 114.017
L204.162 126.446
L205.08 156.186
L205.997 120.923
L206.914 74.3025
L207.831 94.859
L208.749 94.0893
L209.666 96.5443
L210.583 77.8154
L211.5 87.3703
L212.418 102.128
L213.335 99.9274
L214.252 94.1202
L215.169 113.161
L216.087 121.673
L217.004 96.877
L217.921 116.556
L218.839 91.756
L219.756 87.7983
L220.673 87.7463
L221.59 92.9065
L222.508 88.0335
L223.425 123.825
L224.342 142.357
L225.259 129.688
L226.177 88.0738
L227.094 93.9753
L228.011 110.369
L228.928 114.41
L229.846 119.603
L230.763 105.118
L231.68 101.5
L232.597 104.629
L233.515 114.795
L234.432 135.768
L235.349 104.53
L236.266 108.181
L237.184 110.141
L238.101 115.664
L239.018 124.142
L239.936 119.067
L240.853 112.346
L241.77 107.358
L243.605 122.212
L245.439 114.467
L246.356 123.079
L247.274 192.867
L248.191 206.166
L250.025 111.28
L250.943 107.961
L252.777 115.532
L253.694 128.877
L254.612 103.355
L255.529 109.463
L256.446 96.9027
L257.363 99.7791
L258.281 115.742
L259.198 117.137
L260.115 121.683
L261.033 121.293
L261.95 118.578
L262.867 150.764
L263.784 119.073
L265.619 117.186
L266.536 121.966
L267.453 144.943
L268.371 123.567
L269.288 127.459
L270.205 111.045
L271.122 118.347
L272.04 118.471
L272.957 119.544
L274.791 138.011
L275.709 116.861
L277.543 95.3914
L278.46 105.313
L279.378 113.453
L280.295 118.958
L281.212 121.142
L282.129 124.78
L283.047 125.881
L283.964 136.772
L284.881 131.519
L285.799 128.187
L286.716 135.072
L287.633 135.719
L288.55 123.295
L289.468 102.591
L292.219 128.141
L293.137 132.668
L294.054 124.5
L294.971 118.284
L295.888 132.36
L296.806 161.518
L297.723 135.296
L298.64 104.046
L299.557 102.614
L301.392 241.404
L302.309 225.639
L303.226 144.638
L304.144 126.942
L305.061 122.02
L305.978 144.986
L306.896 125.92
L307.813 115.235
L308.73 121.739
L309.647 172.852
L310.565 190.568
L311.482 175.075
L312.399 149.756
L313.316 152.651
L314.234 161.817
L315.151 186.384
L316.068 172.091
L316.985 174.022
L317.903 146.181
L318.82 168.846
L319.737 156.521
L320.654 119.212
L321.572 172.378
L322.489 213.52
L323.406 169.859
L325.241 203.897
L326.158 176.893
L327.075 169.07
L327.993 158.067
L328.91 136.572
L329.827 137.145
L330.744 135.601
L331.662 186.01
L332.579 174.686
L333.496 146.531
L334.413 127.946
L335.331 141.194
L336.248 190.953
L337.165 220.441
L338.082 203.175
L339 198.076
L339.917 139.714
L340.834 135.27
L341.751 129.243
L342.669 180.739
L343.586 138.199
L344.503 160.609
L345.42 161.206
L346.338 195.763
L347.255 173.737
L348.172 165.042
L349.089 166.993
L350.007 164.703
L350.924 184.953
L351.841 185.471
L352.759 164.059
M354.593 160.223
L355.51 157.734
L356.428 140.463
L357.345 134.618
L358.262 153.303
L359.179 149.122
L360.097 202.846
L361.014 168.173
L361.931 151.855
L362.848 144.603
L363.766 124.155
L364.683 181.53
L365.6 216.458
L366.517 192.702
L367.435 199.723
L368.352 225.524
L369.269 201.28
L370.186 210.495
L372.021 193.45
L372.938 188.815
L373.856 218.856
L374.773 199.684
L375.69 141.609
L376.607 177.495
L377.525 195.183
L378.442 186.697
L379.359 166.085
L381.194 213.28
L382.111 203.213
L382.111 203.213" style="fill:none;stroke:#00bfbf;stroke-linecap:square;"/>
   </g>
   <g id="line2d_12">
    <path clip-path="url(#p60c6dbb31d)" d="
M48.2281 215.725
L50.0626 192.54
L50.9799 173.866
L51.8972 194.917
L52.8144 184.489
L53.7317 202.532
L54.6489 146.198
L55.5662 158.527
L56.4835 174.493
L57.4007 153.698
L58.318 170.573
L59.2352 209.036
L60.1525 191.973
L61.0698 131.647
L61.987 174.311
L62.9043 166.291
L63.8215 193.36
L64.7388 196.027
L65.6561 181.201
L66.5733 171.41
L67.4906 181.929
L68.4079 227.843
L69.3251 191.246
L70.2424 203.24
L71.1596 213.391
L72.0769 225.092
L72.9942 208.388
L73.9114 200.018
L74.8287 186.572
L75.7459 228.185
L77.5805 173.466
L78.4977 189.673
L79.415 200.664
L80.3322 204.67
L81.2495 192.411
L82.1668 215.747
L83.084 213.183
L84.0013 195.051
L84.9185 164.795
L85.8358 198.546
L86.7531 191.439
L87.6703 207.828
L88.5876 180.317
L89.5048 223.64
L90.4221 217.495
L91.3394 215.635
L92.2566 208.386
L93.1739 183.969
L94.0911 176.288
L95.0084 182.811
L95.9257 109.356
L96.8429 122.872
L97.7602 197.714
L98.6774 195.4
L99.5947 152.226
L100.512 178.017
L101.429 185.368
L102.346 153.109
L103.264 143.634
L104.181 187.407
L105.098 178.135
L106.016 177.839
L107.85 135.104
L108.767 192.084
L109.685 149.447
L110.602 118.96
L111.519 129.117
L112.436 148.897
L113.354 200.537
L114.271 158.29
L115.188 103.757
L116.105 115.044
L117.023 109.874
L117.94 119.81
L118.857 79.1124
L119.774 97.7505
L120.692 149.597
L121.609 161.621
L122.526 104.819
L123.443 99.8206
L124.361 178.618
L125.278 181.385
L126.195 124.947
L127.113 108.081
L128.947 212.942
L129.864 164.369
L130.782 204.724
L131.699 200.764
L132.616 166.555
L133.533 175.509
L134.451 193.498
L135.368 141.137
L136.285 115.249
L137.202 145.101
L138.12 81.5553
L139.037 106.891
L139.954 115.839
L140.871 182.961
L141.789 159.86
L142.706 95.6958
L143.623 68.718
L144.54 106.306
L145.458 98.3374
L146.375 73.1977
L147.292 75.7143
L148.209 140.81
L149.127 181.992
L150.044 160.74
L150.961 66.2537
L151.879 61.6554
L152.796 50.6326
L153.713 80.831
L154.63 183.173
L155.548 190.072
L156.465 159.653
L157.382 169.988
L158.299 149.387
L159.217 99.9239
L160.134 151.06
L161.051 25.3241
L161.968 112.688
L162.886 106.184
L163.803 39.7201
L164.72 57.7786
L165.637 52.0403
L166.555 156.514
L167.472 92.2875
L168.389 64.1393
L169.306 68.6448
L170.224 57.3992
L171.141 63.8736
L172.058 87.4097
L172.976 114.348
L173.893 196.947
L174.81 106.961
L175.727 75.9268
L176.645 122.919
L177.562 225.916
L178.479 143.545
L179.396 124.662
L180.314 82.3582
L181.231 158.978
L182.148 136.875
L183.065 153.359
L184.9 84.3884
L185.817 164.023
L186.734 147.144
L187.652 193.008
L188.569 135.166
L189.486 204.108
L190.403 113.006
L191.321 177.83
L192.238 93.1989
L193.155 98.8049
L194.073 136.934
L194.99 146.438
L195.907 109.734
L196.824 62.7542
L197.742 72.8199
L198.659 84.5167
L199.576 92.5877
L200.493 79.4427
L201.411 93.4478
L202.328 63.8937
L203.245 92.8742
L204.162 134.165
L205.08 139.619
L205.997 79.8871
L206.914 84.9679
L207.831 121.455
L208.749 138.362
L209.666 92.8887
L210.583 83.9513
L211.5 106.738
L212.418 137.488
L213.335 99.2633
L214.252 89.8794
L216.087 110.7
L217.004 80.0516
L217.921 81.6039
L218.839 79.9488
L219.756 81.9361
L220.673 88.5964
L222.508 105.433
L223.425 97.6783
L224.342 93.045
L225.259 62.4837
L226.177 71.6212
L227.094 82.5516
L228.011 96.2034
L228.928 91.0248
L229.846 91.9777
L230.763 79.8248
L231.68 82.9886
L232.597 92.1065
L233.515 90.5777
L234.432 83.2072
L235.349 92.2723
L236.266 108.741
L237.184 159.844
L238.101 115.95
L239.018 119.865
L239.936 110.35
L240.853 121.308
L241.77 114.872
L242.687 97.675
L243.605 95.335
L244.522 100.531
L245.439 99.9481
L246.356 111.359
L247.274 126.808
L248.191 99.5222
L249.108 103.819
L250.943 138.225
L251.86 173.743
L252.777 127.873
L253.694 108.213
L254.612 106.493
L255.529 106.558
L256.446 104.462
L257.363 107.969
L258.281 109.774
L259.198 101.905
L260.115 97.4635
L261.033 107.079
L261.95 97.5685
L262.867 97.461
L263.784 94.5543
L264.702 105.392
L265.619 136.676
L266.536 90.7978
L267.453 105.666
L268.371 182.822
L269.288 131.096
L270.205 143.215
L271.122 137.378
L272.04 108.388
L272.957 103.871
L273.874 118.16
L274.791 91.4362
L275.709 85.5043
L276.626 87.2043
L277.543 166.096
L278.46 205.381
L279.378 113.455
L280.295 97.9251
L281.212 101.626
L282.129 109.794
L283.047 116.433
L283.964 108.484
L284.881 106.512
L285.799 122.802
L286.716 118.073
L287.633 130.809
L288.55 122.202
L289.468 109.664
L290.385 108.864
L291.302 105.314
L292.219 100.544
L293.137 111.69
L294.054 115.105
L294.971 111.667
L296.806 120.158
L297.723 113.814
L298.64 120.568
L299.557 120.258
L300.475 159.251
L301.392 186.876
L302.309 163.418
L303.226 156.069
L304.144 126.245
L305.061 185.553
L305.978 160.699
L306.896 145.79
L307.813 154.317
L308.73 117.991
L309.647 109.88
L310.565 107.797
L311.482 125.369
L312.399 135.208
L313.316 128.514
L314.234 106.631
L315.151 96.0231
L316.068 109.432
L316.985 111.721
L317.903 119.495
L318.82 187.036
L319.737 215.6
L320.654 181.626
L321.572 200.028
L322.489 151.348
L323.406 110.912
L324.323 123.939
L325.241 134.494
L326.158 192.636
L327.075 147.504
L327.993 141.829
L328.91 146.695
L329.827 131.209
L330.744 140.96
L331.662 141.335
L332.579 191.881
L333.496 196.965
L334.413 161.63
L335.331 213.474
L336.248 196.901
L337.165 163.497
L338.082 168.279
L339 214.138
L339.917 186.848
L340.834 175.403
L341.751 145.448
L342.669 171.068
L343.586 220.885
L344.503 218.857
L345.42 210.904
L346.338 229.181
L347.255 223.751
L348.172 149.6
L349.089 138.84
L350.007 150.352
L350.924 178.943
L351.841 197.317
L352.759 158.984
L353.676 164.866
L354.593 228.908
L355.51 211.487
L356.428 188.067
L357.345 194.98
L358.262 210.988
L359.179 212.37
L360.097 194.912
L361.014 169.62
L361.931 192.739
L362.848 202.973
L363.766 204.415
L364.683 193.238
L365.6 189.895
L366.517 208.033
L367.435 198.247
L368.352 160.029
L369.269 155.188
L370.186 192.742
L371.104 213.751
L372.021 199.433
L372.938 167.695
L373.856 207.966
L374.773 205.019
L376.607 110.961
L377.525 193.393
L378.442 193.484
L379.359 201.091
L380.276 222.727
L382.111 195.112
L382.111 195.112" style="fill:none;stroke:#bf00bf;stroke-linecap:square;"/>
   </g>
   <g id="line2d_13">
    <path clip-path="url(#p60c6dbb31d)" d="
M48.2281 170.32
L49.1454 175.161
L50.0626 200.818
L50.9799 206.408
L51.8972 172.005
L52.8144 181.74
L53.7317 180.159
L54.6489 186.936
L56.4835 217.959
L57.4007 174.479
L58.318 187.112
L59.2352 221.576
L60.1525 207.356
L61.0698 205.008
L61.987 215.749
L62.9043 204.335
L63.8215 209.338
L64.7388 217.508
L65.6561 163.634
L66.5733 203.132
L67.4906 204.889
L68.4079 150.111
L69.3251 206.434
L70.2424 211.926
L71.1596 212.788
L72.0769 207.064
L72.9942 205.719
L73.9114 206.791
L74.8287 218.763
L75.7459 181.452
L76.6632 150.703
L77.5805 131.431
L78.4977 151.421
L79.415 190.284
L80.3322 184.382
L81.2495 181.793
L82.1668 182.478
L83.084 191.885
L84.0013 171.875
L84.9185 158.087
L85.8358 145.998
L86.7531 145.357
L87.6703 135.141
L89.5048 148.653
L90.4221 186.013
L91.3394 197.339
L92.2566 206.767
L93.1739 201.921
L94.0911 238.901
L95.0084 193.122
L95.9257 190.056
L96.8429 178.011
L97.7602 217.943
L98.6774 219.262
L99.5947 157.997
L100.512 147.246
L101.429 157.739
L102.346 126.936
L103.264 177.185
L104.181 183.71
L105.098 193.724
L106.016 201.95
L106.933 207.016
L107.85 212.828
L108.767 227.728
L109.685 198.397
L110.602 189.656
L111.519 217.128
L112.436 182.464
L113.354 212.489
L114.271 162.526
L115.188 193.159
L116.105 238.108
L117.023 217.699
L117.94 158.254
L118.857 203.858
L119.774 168.033
L120.692 191.923
L121.609 182.562
L122.526 165.553
L123.443 200.954
L124.361 222.638
L125.278 226.3
L126.195 224.93
L127.113 177.704
L128.03 197.042
L128.947 196.483
L129.864 136.28
L130.782 139.021
L131.699 149.33
L132.616 173.114
L133.533 140.4
L134.451 153.623
L135.368 168.711
L136.285 149.969
L138.12 183.023
L139.037 139.77
L139.954 154.991
L140.871 104.837
L141.789 165.505
L142.706 98.8325
L143.623 151.44
L144.54 165.481
L145.458 138.976
L146.375 138.153
L147.292 60.0068
L148.209 153.34
L149.127 174.957
L150.044 80.2556
L150.961 62.8136
L151.879 133.537
L152.796 180.525
L153.713 126
L154.63 99.5032
L155.548 179.895
L156.465 102.339
L157.382 113.894
L158.299 88.7687
L159.217 133.244
L160.134 90.9686
L161.051 79.8315
L161.968 99.7957
L162.886 163.752
L163.803 136.311
L164.72 160.396
L166.555 87.9114
L167.472 88.0231
L168.389 100.973
L169.306 108.063
L170.224 138.946
L171.141 175.568
L172.058 198.605
L172.976 125.619
L173.893 164.159
L174.81 77.4343
L175.727 93.987
L176.645 126.85
L177.562 101.427
L178.479 152.183
L179.396 149.931
L180.314 139.458
L181.231 104.493
L182.148 178.087
L183.065 177.648
L183.983 177.786
L184.9 119.327
L185.817 130.866
L186.734 114.825
L187.652 162.415
L188.569 79.6325
L189.486 96.045
L190.403 110.221
L191.321 155.113
L192.238 168.879
L193.155 94.4952
L194.073 118.786
L194.99 127.253
L195.907 129.07
L196.824 101.901
L197.742 142.758
L198.659 81.7553
L199.576 67.1797
L200.493 99.4851
L201.411 74.3631
L202.328 167.196
L203.245 160.512
L204.162 84.6681
L205.997 104.965
L206.914 103.441
L207.831 86.5708
L208.749 80.6796
L209.666 85.5262
L210.583 95.2838
L211.5 109.268
L212.418 141.434
L213.335 100.467
L214.252 90.3697
L215.169 91.3837
L216.087 104.384
L217.004 108.896
L217.921 111.733
L218.839 106.43
L219.756 151.465
L220.673 93.3453
L221.59 88.4147
L222.508 107.37
L223.425 114.595
L224.342 106.745
L225.259 119.834
L226.177 109.666
L227.094 103.793
L228.011 117.867
L228.928 109.145
L229.846 106.974
L230.763 110.982
L231.68 98.4985
L232.597 95.4113
L233.515 99.7057
L234.432 95.7452
L235.349 109.166
L236.266 108.142
L237.184 111.295
L238.101 104.868
L239.018 102.703
L239.936 109.048
L240.853 121.029
L241.77 130.475
L242.687 120.817
L243.605 122.857
L244.522 112.009
L245.439 146.026
L246.356 113.272
L247.274 114.64
L248.191 119.074
L249.108 119.937
L250.025 107.875
L250.943 109.947
L251.86 101.609
L252.777 108.495
L253.694 124.032
L254.612 120.719
L255.529 101.674
L256.446 105.88
L257.363 114.205
L258.281 114.275
L259.198 111.758
L260.115 123.399
L261.033 125.681
L261.95 123.286
L262.867 120.082
L263.784 121.377
L264.702 128.175
L265.619 126.995
L266.536 152.161
L267.453 131.525
L268.371 122.842
L269.288 120.253
L270.205 107.548
L271.122 105.236
L272.04 106.293
L272.957 109.738
L273.874 109.955
L275.709 123.069
L276.626 126.39
L277.543 125.467
L278.46 132.751
L279.378 129.944
L280.295 138.728
L281.212 131.313
L282.129 130.905
L283.047 129.199
L283.964 181.101
L284.881 137.081
L285.799 110.11
L286.716 107.793
L287.633 119.84
L288.55 121.883
L289.468 116.31
L290.385 124.268
L291.302 125.097
L293.137 136.375
L294.054 124.285
L294.971 124.414
L295.888 128.682
L296.806 121.606
L297.723 135.799
L298.64 134.574
L299.557 136.641
L300.475 136.509
L301.392 195.179
L303.226 229.263
L304.144 219.2
L305.061 164.272
L305.978 136.468
L306.896 191.323
L307.813 175.449
L308.73 135.714
L309.647 130.046
L310.565 127.384
L311.482 150.667
L312.399 213.505
L313.316 148.178
L314.234 123.46
L315.151 141.604
L316.068 131.118
L316.985 143.769
L317.903 154.762
L318.82 148.237
L319.737 176.421
L320.654 131.334
L321.572 101.132
L322.489 113.298
L323.406 113.578
L324.323 123.291
L325.241 141.494
L326.158 172.017
L327.075 132.162
L327.993 102.703
L328.91 128.665
L329.827 186.484
L330.744 199.787
L331.662 208.502
L332.579 210.611
L334.413 139.954
L335.331 134.488
L336.248 149.319
L337.165 184.868
L338.082 194.056
L339 134.116
L339.917 114.685
L341.751 205.951
L342.669 207.032
L343.586 197.164
L344.503 152.443
L345.42 170.796
L346.338 191.741
L347.255 145.132
L348.172 174.021
L349.089 173.171
L350.007 116.504
L350.924 118.441
L351.841 162.097
L352.759 195.396
L353.676 179.785
L354.593 130.38
L355.51 132.335
L356.428 148.7
L357.345 162.251
L358.262 160.275
L359.179 134.326
L360.097 140.472
L361.014 138.614
L361.931 140.327
L363.766 153.503
L364.683 150.34
L365.6 163.446
L366.517 150.715
L367.435 175.712
L368.352 176.695
L369.269 174.419
L370.186 163.935
L371.104 151.899
L372.021 142.345
L372.938 172.601
L373.856 125.849
L374.773 117.945
L375.69 129.268
L376.607 139.022
L377.525 150.06
L378.442 174.147
L379.359 202.504
L380.276 187.295
L381.194 219.259
L382.111 172.34
L382.111 172.34" style="fill:none;stroke:#bfbf00;stroke-linecap:square;"/>
   </g>
   <g id="line2d_14">
    <path clip-path="url(#p60c6dbb31d)" d="
M48.2281 124.417
L49.1454 138.048
L50.0626 132.593
L50.9799 122.363
L51.8972 146.145
L52.8144 166.427
L53.7317 178.456
L54.6489 161.993
L55.5662 171.566
L56.4835 203.147
L57.4007 156.654
L58.318 165.63
L59.2352 123.925
L60.1525 111.074
L61.0698 151.479
L61.987 165.324
L62.9043 134.719
L63.8215 184.299
L64.7388 223.794
L65.6561 223.785
L66.5733 216.547
L67.4906 196.416
L68.4079 218.874
L69.3251 199.655
L70.2424 194.65
L71.1596 213.976
L72.0769 154.259
L72.9942 138.255
L73.9114 115.856
L74.8287 174.761
L75.7459 144.854
L76.6632 194.452
L77.5805 188.083
L78.4977 150.598
L79.415 143.955
L80.3322 142.111
L81.2495 143.691
L82.1668 120.93
L83.084 182.505
L84.0013 211.922
L84.9185 179.283
L85.8358 201.268
L86.7531 207.96
L87.6703 175.383
L89.5048 198.375
L90.4221 157.443
L91.3394 156.998
L92.2566 184.683
L93.1739 166.875
L94.0911 190.176
L95.0084 226.557
L95.9257 196.173
L96.8429 161.96
L97.7602 116.254
L98.6774 186.712
L99.5947 154.099
L101.429 128.878
L102.346 178.425
L103.264 210.14
L104.181 163.114
L105.098 181.188
L106.016 149.17
L106.933 137.852
L107.85 173.748
L108.767 113.181
L109.685 108.356
L110.602 110.187
L111.519 121.484
L112.436 160.875
L113.354 172.856
L114.271 183.202
L115.188 223.021
L116.105 184.179
L117.023 207.462
L117.94 208.925
L118.857 238.548
L119.774 178.755
L120.692 193.184
L121.609 153.191
L122.526 95.378
L123.443 136.589
L124.361 107.729
L125.278 147.678
L126.195 197.48
L127.113 122.935
L128.03 166.96
L128.947 179.11
L129.864 199.069
L130.782 111.638
L131.699 84.9323
L132.616 106.197
L133.533 97.9301
L134.451 138.113
L135.368 104.755
L136.285 99.8763
L137.202 72.2513
L138.12 69.5948
L139.037 98.6949
L139.954 90.7529
L140.871 156.847
L141.789 125.367
L142.706 153.483
L143.623 106.653
L144.54 70.9779
L145.458 168.638
L146.375 127.224
L147.292 127.776
L148.209 155.385
L149.127 109.702
L150.044 88.2605
L150.961 94.1048
L151.879 127.909
L152.796 117.944
L153.713 143.842
L154.63 218.456
L155.548 80.6549
L156.465 116.914
L157.382 77.3917
L158.299 163.466
L159.217 96.2515
L160.134 81.3233
L161.051 166.581
L161.968 193.562
L162.886 110.258
L163.803 65.4378
L165.637 69.575
L166.555 84.5447
L167.472 50.1364
L168.389 58.9207
L169.306 70.3199
L170.224 75.6097
L171.141 97.2419
L172.058 136.36
L172.976 100.736
L173.893 121.794
L174.81 74.5662
L175.727 64.8613
L176.645 86.8948
L177.562 141.754
L178.479 148.749
L179.396 133.726
L180.314 99.8765
L181.231 181.098
L182.148 184.508
L183.065 142.501
L183.983 79.3799
L184.9 77.8958
L185.817 89.2511
L186.734 94.7042
L187.652 91.5037
L188.569 128.426
L189.486 106.151
L190.403 130.86
L191.321 194.636
L192.238 86.0356
L193.155 104.057
L194.073 114.512
L194.99 173.907
L195.907 115.835
L196.824 76.6177
L197.742 105.089
L199.576 64.6511
L200.493 74.383
L201.411 90.8558
L202.328 97.795
L203.245 72.7189
L204.162 86.9121
L205.08 72.0742
L205.997 93.1977
L206.914 100.864
L207.831 90.642
L208.749 90.6061
L209.666 86.0533
L210.583 84.439
L211.5 77.1591
L212.418 91.0625
L213.335 88.3749
L214.252 98.6055
L215.169 122.537
L216.087 104.139
L217.004 92.8112
L217.921 88.6212
L218.839 107.741
L219.756 112.427
L220.673 112.174
L221.59 134.2
L222.508 119.945
L223.425 112.897
L224.342 116.417
L225.259 119.016
L226.177 143.046
L227.094 151.593
L228.011 122.894
L228.928 136.502
L229.846 104.967
L230.763 105.663
L231.68 124.261
L232.597 102.869
L233.515 107.951
L234.432 108.064
L235.349 110.616
L236.266 108.324
L237.184 108.849
L238.101 113.623
L239.018 116.981
L239.936 116.16
L240.853 112.251
L241.77 115.324
L242.687 110.808
L243.605 109.72
L244.522 100.247
L245.439 101.863
L246.356 105.362
L247.274 116.981
L248.191 115.631
L249.108 122.258
L250.025 129.838
L250.943 120.736
L251.86 134.221
L252.777 114.878
L253.694 126.634
L254.612 126.869
L255.529 124.002
L256.446 119.383
L257.363 118.276
L258.281 122.025
L259.198 119.281
L260.115 145.247
L261.033 125.98
L261.95 129
L262.867 119.489
L263.784 113.026
L264.702 95.3463
L265.619 103.942
L266.536 127.113
L267.453 128.851
L268.371 113.973
L269.288 113.092
L270.205 108.404
L271.122 138.389
L272.04 121.499
L272.957 94.9266
L274.791 107.553
L275.709 112.023
L276.626 132.546
L277.543 108.876
L278.46 113.627
L279.378 119.036
L280.295 111.014
L281.212 105.424
L282.129 92.9254
L283.047 102.459
L283.964 114.316
L284.881 110.432
L285.799 116.884
L286.716 113.538
L287.633 111.833
L288.55 125.784
L289.468 130.941
L290.385 132.444
L291.302 128.168
L292.219 181.219
L293.137 138.165
L294.054 138.441
L294.971 135.053
L295.888 121.254
L296.806 126.993
L297.723 129.073
L298.64 127.284
L299.557 120.251
L300.475 120.427
L301.392 98.2851
L302.309 98.7882
L303.226 92.8109
L304.144 95.7404
L305.061 100.283
L305.978 100.378
L306.896 113.323
L307.813 118.926
L308.73 120.519
L309.647 120.498
L310.565 167.445
L311.482 142.308
L312.399 151.607
L313.316 155.231
L314.234 127.901
L315.151 115.996
L316.985 165.288
L317.903 130.852
L318.82 205.38
L319.737 217.395
L320.654 194.156
L321.572 196.368
L322.489 157.26
L323.406 171.783
L324.323 201.325
L325.241 156.736
L326.158 141.122
L327.075 135.272
L327.993 162.363
L328.91 145.827
L329.827 156.607
L330.744 146.299
L331.662 163.603
L332.579 150.837
L333.496 163.765
L334.413 181.196
L335.331 215.681
L336.248 194.365
L337.165 197.894
L338.082 189.422
L339 194.815
L339.917 191.753
L340.834 182.582
L341.751 166.661
L342.669 196.018
L343.586 189.305
L344.503 188.81
L345.42 178.5
L346.338 200.508
L347.255 155.866
L348.172 126.483
L349.089 175.057
L350.007 194.56
L350.924 172.599
L351.841 153.984
L352.759 171.762
L353.676 183.702
L354.593 201.816
L355.51 199.284
L356.428 216.745
L357.345 158.151
L358.262 189.408
L359.179 203.16
L360.097 183.196
L361.014 166.925
L361.931 192.622
L362.848 172.17
L363.766 207.505
L364.683 182.179
L365.6 212.369
L366.517 185.798
L367.435 200.139
L368.352 202.544
L369.269 221.777
L370.186 200.069
L371.104 185.275
L372.021 179.026
L372.938 122.67
L373.856 116.215
L374.773 168.644
L375.69 205.746
L376.607 205.73
L377.525 180.255
L378.442 207.774
L379.359 212.13
L380.276 186.465
L381.194 184.957
L382.111 214.025
L382.111 214.025" style="fill:none;stroke:#000000;stroke-linecap:square;"/>
   </g>
   <g id="patch_3">
    <path d="
M48.2281 21.3181
L383.028 21.3181" style="fill:none;stroke:#000000;stroke-linecap:square;stroke-linejoin:miter;"/>
   </g>
   <g id="patch_4">
    <path d="
M383.028 244.518
L383.028 21.3181" style="fill:none;stroke:#000000;stroke-linecap:square;stroke-linejoin:miter;"/>
   </g>
   <g id="patch_5">
    <path d="
M48.2281 244.518
L383.028 244.518" style="fill:none;stroke:#000000;stroke-linecap:square;stroke-linejoin:miter;"/>
   </g>
   <g id="patch_6">
    <path d="
M48.2281 244.518
L48.2281 21.3181" style="fill:none;stroke:#000000;stroke-linecap:square;stroke-linejoin:miter;"/>
   </g>
   <g id="matplotlib.axis_1">
    <g id="xtick_1">
     <g id="line2d_15">
      <defs>
       <path d="
M0 0
L0 -4" id="m93b0483c22" style="stroke:#000000;stroke-width:0.5;"/>
      </defs>
      <g>
       <use style="stroke:#000000;stroke-width:0.5;" x="48.228125" xlink:href="#m93b0483c22" y="244.518125"/>
      </g>
     </g>
     <g id="line2d_16">
      <defs>
       <path d="
M0 0
L0 4" id="m741efc42ff" style="stroke:#000000;stroke-width:0.5;"/>
      </defs>
      <g>
       <use style="stroke:#000000;stroke-width:0.5;" x="48.228125" xlink:href="#m741efc42ff" y="21.318125"/>
      </g>
     </g>
     <g id="text_1">
      <!-- 0 -->
      <defs>
       <path d="
M31.7812 66.4062
Q24.1719 66.4062 20.3281 58.9062
Q16.5 51.4219 16.5 36.375
Q16.5 21.3906 20.3281 13.8906
Q24.1719 6.39062 31.7812 6.39062
Q39.4531 6.39062 43.2812 13.8906
Q47.125 21.3906 47.125 36.375
Q47.125 51.4219 43.2812 58.9062
Q39.4531 66.4062 31.7812 66.4062
M31.7812 74.2188
Q44.0469 74.2188 50.5156 64.5156
Q56.9844 54.8281 56.9844 36.375
Q56.9844 17.9688 50.5156 8.26562
Q44.0469 -1.42188 31.7812 -1.42188
Q19.5312 -1.42188 13.0625 8.26562
Q6.59375 17.9688 6.59375 36.375
Q6.59375 54.8281 13.0625 64.5156
Q19.5312 74.2188 31.7812 74.2188" id="BitstreamVeraSans-Roman-30"/>
      </defs>
      <g transform="translate(45.70859375 256.1165625)scale(0.1 -0.1)">
       <use xlink:href="#BitstreamVeraSans-Roman-30"/>
      </g>
     </g>
    </g>
    <g id="xtick_2">
     <g id="line2d_17">
      <g>
       <use style="stroke:#000000;stroke-width:0.5;" x="94.0911386986" xlink:href="#m93b0483c22" y="244.518125"/>
      </g>
     </g>
     <g id="line2d_18">
      <g>
       <use style="stroke:#000000;stroke-width:0.5;" x="94.0911386986" xlink:href="#m741efc42ff" y="21.318125"/>
      </g>
     </g>
     <g id="text_2">
      <!-- 50 -->
      <defs>
       <path d="
M10.7969 72.9062
L49.5156 72.9062
L49.5156 64.5938
L19.8281 64.5938
L19.8281 46.7344
Q21.9688 47.4688 24.1094 47.8281
Q26.2656 48.1875 28.4219 48.1875
Q40.625 48.1875 47.75 41.5
Q54.8906 34.8125 54.8906 23.3906
Q54.8906 11.625 47.5625 5.09375
Q40.2344 -1.42188 26.9062 -1.42188
Q22.3125 -1.42188 17.5469 -0.640625
Q12.7969 0.140625 7.71875 1.70312
L7.71875 11.625
Q12.1094 9.23438 16.7969 8.0625
Q21.4844 6.89062 26.7031 6.89062
Q35.1562 6.89062 40.0781 11.3281
Q45.0156 15.7656 45.0156 23.3906
Q45.0156 31 40.0781 35.4375
Q35.1562 39.8906 26.7031 39.8906
Q22.75 39.8906 18.8125 39.0156
Q14.8906 38.1406 10.7969 36.2812
z
" id="BitstreamVeraSans-Roman-35"/>
      </defs>
      <g transform="translate(88.4466074486 256.1165625)scale(0.1 -0.1)">
       <use xlink:href="#BitstreamVeraSans-Roman-35"/>
       <use x="63.623046875" xlink:href="#BitstreamVeraSans-Roman-30"/>
      </g>
     </g>
    </g>
    <g id="xtick_3">
     <g id="line2d_19">
      <g>
       <use style="stroke:#000000;stroke-width:0.5;" x="139.954152397" xlink:href="#m93b0483c22" y="244.518125"/>
      </g>
     </g>
     <g id="line2d_20">
      <g>
       <use style="stroke:#000000;stroke-width:0.5;" x="139.954152397" xlink:href="#m741efc42ff" y="21.318125"/>
      </g>
     </g>
     <g id="text_3">
      <!-- 100 -->
      <defs>
       <path d="
M12.4062 8.29688
L28.5156 8.29688
L28.5156 63.9219
L10.9844 60.4062
L10.9844 69.3906
L28.4219 72.9062
L38.2812 72.9062
L38.2812 8.29688
L54.3906 8.29688
L54.3906 0
L12.4062 0
z
" id="BitstreamVeraSans-Roman-31"/>
      </defs>
      <g transform="translate(131.291652397 256.1165625)scale(0.1 -0.1)">
       <use xlink:href="#BitstreamVeraSans-Roman-31"/>
       <use x="63.623046875" xlink:href="#BitstreamVeraSans-Roman-30"/>
       <use x="127.24609375" xlink:href="#BitstreamVeraSans-Roman-30"/>
      </g>
     </g>
    </g>
    <g id="xtick_4">
     <g id="line2d_21">
      <g>
       <use style="stroke:#000000;stroke-width:0.5;" x="185.817166096" xlink:href="#m93b0483c22" y="244.518125"/>
      </g>
     </g>
     <g id="line2d_22">
      <g>
       <use style="stroke:#000000;stroke-width:0.5;" x="185.817166096" xlink:href="#m741efc42ff" y="21.318125"/>
      </g>
     </g>
     <g id="text_4">
      <!-- 150 -->
      <g transform="translate(177.154666096 256.1165625)scale(0.1 -0.1)">
       <use xlink:href="#BitstreamVeraSans-Roman-31"/>
       <use x="63.623046875" xlink:href="#BitstreamVeraSans-Roman-35"/>
       <use x="127.24609375" xlink:href="#BitstreamVeraSans-Roman-30"/>
      </g>
     </g>
    </g>
    <g id="xtick_5">
     <g id="line2d_23">
      <g>
       <use style="stroke:#000000;stroke-width:0.5;" x="231.680179795" xlink:href="#m93b0483c22" y="244.518125"/>
      </g>
     </g>
     <g id="line2d_24">
      <g>
       <use style="stroke:#000000;stroke-width:0.5;" x="231.680179795" xlink:href="#m741efc42ff" y="21.318125"/>
      </g>
     </g>
     <g id="text_5">
      <!-- 200 -->
      <defs>
       <path d="
M19.1875 8.29688
L53.6094 8.29688
L53.6094 0
L7.32812 0
L7.32812 8.29688
Q12.9375 14.1094 22.625 23.8906
Q32.3281 33.6875 34.8125 36.5312
Q39.5469 41.8438 41.4219 45.5312
Q43.3125 49.2188 43.3125 52.7812
Q43.3125 58.5938 39.2344 62.25
Q35.1562 65.9219 28.6094 65.9219
Q23.9688 65.9219 18.8125 64.3125
Q13.6719 62.7031 7.8125 59.4219
L7.8125 69.3906
Q13.7656 71.7812 18.9375 73
Q24.125 74.2188 28.4219 74.2188
Q39.75 74.2188 46.4844 68.5469
Q53.2188 62.8906 53.2188 53.4219
Q53.2188 48.9219 51.5312 44.8906
Q49.8594 40.875 45.4062 35.4062
Q44.1875 33.9844 37.6406 27.2188
Q31.1094 20.4531 19.1875 8.29688" id="BitstreamVeraSans-Roman-32"/>
      </defs>
      <g transform="translate(222.834867295 256.1165625)scale(0.1 -0.1)">
       <use xlink:href="#BitstreamVeraSans-Roman-32"/>
       <use x="63.623046875" xlink:href="#BitstreamVeraSans-Roman-30"/>
       <use x="127.24609375" xlink:href="#BitstreamVeraSans-Roman-30"/>
      </g>
     </g>
    </g>
    <g id="xtick_6">
     <g id="line2d_25">
      <g>
       <use style="stroke:#000000;stroke-width:0.5;" x="277.543193493" xlink:href="#m93b0483c22" y="244.518125"/>
      </g>
     </g>
     <g id="line2d_26">
      <g>
       <use style="stroke:#000000;stroke-width:0.5;" x="277.543193493" xlink:href="#m741efc42ff" y="21.318125"/>
      </g>
     </g>
     <g id="text_6">
      <!-- 250 -->
      <g transform="translate(268.697880993 256.1165625)scale(0.1 -0.1)">
       <use xlink:href="#BitstreamVeraSans-Roman-32"/>
       <use x="63.623046875" xlink:href="#BitstreamVeraSans-Roman-35"/>
       <use x="127.24609375" xlink:href="#BitstreamVeraSans-Roman-30"/>
      </g>
     </g>
    </g>
    <g id="xtick_7">
     <g id="line2d_27">
      <g>
       <use style="stroke:#000000;stroke-width:0.5;" x="323.406207192" xlink:href="#m93b0483c22" y="244.518125"/>
      </g>
     </g>
     <g id="line2d_28">
      <g>
       <use style="stroke:#000000;stroke-width:0.5;" x="323.406207192" xlink:href="#m741efc42ff" y="21.318125"/>
      </g>
     </g>
     <g id="text_7">
      <!-- 300 -->
      <defs>
       <path d="
M40.5781 39.3125
Q47.6562 37.7969 51.625 33
Q55.6094 28.2188 55.6094 21.1875
Q55.6094 10.4062 48.1875 4.48438
Q40.7656 -1.42188 27.0938 -1.42188
Q22.5156 -1.42188 17.6562 -0.515625
Q12.7969 0.390625 7.625 2.20312
L7.625 11.7188
Q11.7188 9.32812 16.5938 8.10938
Q21.4844 6.89062 26.8125 6.89062
Q36.0781 6.89062 40.9375 10.5469
Q45.7969 14.2031 45.7969 21.1875
Q45.7969 27.6406 41.2812 31.2656
Q36.7656 34.9062 28.7188 34.9062
L20.2188 34.9062
L20.2188 43.0156
L29.1094 43.0156
Q36.375 43.0156 40.2344 45.9219
Q44.0938 48.8281 44.0938 54.2969
Q44.0938 59.9062 40.1094 62.9062
Q36.1406 65.9219 28.7188 65.9219
Q24.6562 65.9219 20.0156 65.0312
Q15.375 64.1562 9.8125 62.3125
L9.8125 71.0938
Q15.4375 72.6562 20.3438 73.4375
Q25.25 74.2188 29.5938 74.2188
Q40.8281 74.2188 47.3594 69.1094
Q53.9062 64.0156 53.9062 55.3281
Q53.9062 49.2656 50.4375 45.0938
Q46.9688 40.9219 40.5781 39.3125" id="BitstreamVeraSans-Roman-33"/>
      </defs>
      <g transform="translate(314.575738442 256.1165625)scale(0.1 -0.1)">
       <use xlink:href="#BitstreamVeraSans-Roman-33"/>
       <use x="63.623046875" xlink:href="#BitstreamVeraSans-Roman-30"/>
       <use x="127.24609375" xlink:href="#BitstreamVeraSans-Roman-30"/>
      </g>
     </g>
    </g>
    <g id="xtick_8">
     <g id="line2d_29">
      <g>
       <use style="stroke:#000000;stroke-width:0.5;" x="369.26922089" xlink:href="#m93b0483c22" y="244.518125"/>
      </g>
     </g>
     <g id="line2d_30">
      <g>
       <use style="stroke:#000000;stroke-width:0.5;" x="369.26922089" xlink:href="#m741efc42ff" y="21.318125"/>
      </g>
     </g>
     <g id="text_8">
      <!-- 350 -->
      <g transform="translate(360.43875214 256.1165625)scale(0.1 -0.1)">
       <use xlink:href="#BitstreamVeraSans-Roman-33"/>
       <use x="63.623046875" xlink:href="#BitstreamVeraSans-Roman-35"/>
       <use x="127.24609375" xlink:href="#BitstreamVeraSans-Roman-30"/>
      </g>
     </g>
    </g>
    <g id="text_9">
     <!-- Julian day -->
     <defs>
      <path id="BitstreamVeraSans-Roman-20"/>
      <path d="
M9.8125 72.9062
L19.6719 72.9062
L19.6719 5.07812
Q19.6719 -8.10938 14.6719 -14.0625
Q9.67188 -20.0156 -1.42188 -20.0156
L-5.17188 -20.0156
L-5.17188 -11.7188
L-2.09375 -11.7188
Q4.4375 -11.7188 7.125 -8.04688
Q9.8125 -4.39062 9.8125 5.07812
z
" id="BitstreamVeraSans-Roman-4a"/>
      <path d="
M54.8906 33.0156
L54.8906 0
L45.9062 0
L45.9062 32.7188
Q45.9062 40.4844 42.875 44.3281
Q39.8438 48.1875 33.7969 48.1875
Q26.5156 48.1875 22.3125 43.5469
Q18.1094 38.9219 18.1094 30.9062
L18.1094 0
L9.07812 0
L9.07812 54.6875
L18.1094 54.6875
L18.1094 46.1875
Q21.3438 51.125 25.7031 53.5625
Q30.0781 56 35.7969 56
Q45.2188 56 50.0469 50.1719
Q54.8906 44.3438 54.8906 33.0156" id="BitstreamVeraSans-Roman-6e"/>
      <path d="
M9.42188 75.9844
L18.4062 75.9844
L18.4062 0
L9.42188 0
z
" id="BitstreamVeraSans-Roman-6c"/>
      <path d="
M9.42188 54.6875
L18.4062 54.6875
L18.4062 0
L9.42188 0
z

M9.42188 75.9844
L18.4062 75.9844
L18.4062 64.5938
L9.42188 64.5938
z
" id="BitstreamVeraSans-Roman-69"/>
      <path d="
M32.1719 -5.07812
Q28.375 -14.8438 24.75 -17.8125
Q21.1406 -20.7969 15.0938 -20.7969
L7.90625 -20.7969
L7.90625 -13.2812
L13.1875 -13.2812
Q16.8906 -13.2812 18.9375 -11.5156
Q21 -9.76562 23.4844 -3.21875
L25.0938 0.875
L2.98438 54.6875
L12.5 54.6875
L29.5938 11.9219
L46.6875 54.6875
L56.2031 54.6875
z
" id="BitstreamVeraSans-Roman-79"/>
      <path d="
M45.4062 46.3906
L45.4062 75.9844
L54.3906 75.9844
L54.3906 0
L45.4062 0
L45.4062 8.20312
Q42.5781 3.32812 38.25 0.953125
Q33.9375 -1.42188 27.875 -1.42188
Q17.9688 -1.42188 11.7344 6.48438
Q5.51562 14.4062 5.51562 27.2969
Q5.51562 40.1875 11.7344 48.0938
Q17.9688 56 27.875 56
Q33.9375 56 38.25 53.625
Q42.5781 51.2656 45.4062 46.3906
M14.7969 27.2969
Q14.7969 17.3906 18.875 11.75
Q22.9531 6.10938 30.0781 6.10938
Q37.2031 6.10938 41.2969 11.75
Q45.4062 17.3906 45.4062 27.2969
Q45.4062 37.2031 41.2969 42.8438
Q37.2031 48.4844 30.0781 48.4844
Q22.9531 48.4844 18.875 42.8438
Q14.7969 37.2031 14.7969 27.2969" id="BitstreamVeraSans-Roman-64"/>
      <path d="
M8.5 21.5781
L8.5 54.6875
L17.4844 54.6875
L17.4844 21.9219
Q17.4844 14.1562 20.5 10.2656
Q23.5312 6.39062 29.5938 6.39062
Q36.8594 6.39062 41.0781 11.0312
Q45.3125 15.6719 45.3125 23.6875
L45.3125 54.6875
L54.2969 54.6875
L54.2969 0
L45.3125 0
L45.3125 8.40625
Q42.0469 3.42188 37.7188 1
Q33.4062 -1.42188 27.6875 -1.42188
Q18.2656 -1.42188 13.375 4.4375
Q8.5 10.2969 8.5 21.5781" id="BitstreamVeraSans-Roman-75"/>
      <path d="
M34.2812 27.4844
Q23.3906 27.4844 19.1875 25
Q14.9844 22.5156 14.9844 16.5
Q14.9844 11.7188 18.1406 8.90625
Q21.2969 6.10938 26.7031 6.10938
Q34.1875 6.10938 38.7031 11.4062
Q43.2188 16.7031 43.2188 25.4844
L43.2188 27.4844
z

M52.2031 31.2031
L52.2031 0
L43.2188 0
L43.2188 8.29688
Q40.1406 3.32812 35.5469 0.953125
Q30.9531 -1.42188 24.3125 -1.42188
Q15.9219 -1.42188 10.9531 3.29688
Q6 8.01562 6 15.9219
Q6 25.1406 12.1719 29.8281
Q18.3594 34.5156 30.6094 34.5156
L43.2188 34.5156
L43.2188 35.4062
Q43.2188 41.6094 39.1406 45
Q35.0625 48.3906 27.6875 48.3906
Q23 48.3906 18.5469 47.2656
Q14.1094 46.1406 10.0156 43.8906
L10.0156 52.2031
Q14.9375 54.1094 19.5781 55.0469
Q24.2188 56 28.6094 56
Q40.4844 56 46.3438 49.8438
Q52.2031 43.7031 52.2031 31.2031" id="BitstreamVeraSans-Roman-61"/>
     </defs>
     <g transform="translate(191.07734375 270.7946875)scale(0.1 -0.1)">
      <use xlink:href="#BitstreamVeraSans-Roman-4a"/>
      <use x="29.4921875" xlink:href="#BitstreamVeraSans-Roman-75"/>
      <use x="92.87109375" xlink:href="#BitstreamVeraSans-Roman-6c"/>
      <use x="120.654296875" xlink:href="#BitstreamVeraSans-Roman-69"/>
      <use x="148.4375" xlink:href="#BitstreamVeraSans-Roman-61"/>
      <use x="209.716796875" xlink:href="#BitstreamVeraSans-Roman-6e"/>
      <use x="273.095703125" xlink:href="#BitstreamVeraSans-Roman-20"/>
      <use x="304.8828125" xlink:href="#BitstreamVeraSans-Roman-64"/>
      <use x="368.359375" xlink:href="#BitstreamVeraSans-Roman-61"/>
      <use x="429.638671875" xlink:href="#BitstreamVeraSans-Roman-79"/>
     </g>
    </g>
   </g>
   <g id="matplotlib.axis_2">
    <g id="ytick_1">
     <g id="line2d_31">
      <defs>
       <path d="
M0 0
L4 0" id="m728421d6d4" style="stroke:#000000;stroke-width:0.5;"/>
      </defs>
      <g>
       <use style="stroke:#000000;stroke-width:0.5;" x="48.228125" xlink:href="#m728421d6d4" y="244.518125"/>
      </g>
     </g>
     <g id="line2d_32">
      <defs>
       <path d="
M0 0
L-4 0" id="mcb0005524f" style="stroke:#000000;stroke-width:0.5;"/>
      </defs>
      <g>
       <use style="stroke:#000000;stroke-width:0.5;" x="383.028125" xlink:href="#mcb0005524f" y="244.518125"/>
      </g>
     </g>
     <g id="text_10">
      <!-- −0.5 -->
      <defs>
       <path d="
M10.5938 35.5
L73.1875 35.5
L73.1875 27.2031
L10.5938 27.2031
z
" id="BitstreamVeraSans-Roman-2212"/>
       <path d="
M10.6875 12.4062
L21 12.4062
L21 0
L10.6875 0
z
" id="BitstreamVeraSans-Roman-2e"/>
      </defs>
      <g transform="translate(21.878125 247.2775)scale(0.1 -0.1)">
       <use xlink:href="#BitstreamVeraSans-Roman-2212"/>
       <use x="83.7890625" xlink:href="#BitstreamVeraSans-Roman-30"/>
       <use x="147.412109375" xlink:href="#BitstreamVeraSans-Roman-2e"/>
       <use x="179.19921875" xlink:href="#BitstreamVeraSans-Roman-35"/>
      </g>
     </g>
    </g>
    <g id="ytick_2">
     <g id="line2d_33">
      <g>
       <use style="stroke:#000000;stroke-width:0.5;" x="48.228125" xlink:href="#m728421d6d4" y="219.718125"/>
      </g>
     </g>
     <g id="line2d_34">
      <g>
       <use style="stroke:#000000;stroke-width:0.5;" x="383.028125" xlink:href="#mcb0005524f" y="219.718125"/>
      </g>
     </g>
     <g id="text_11">
      <!-- 0.0 -->
      <g transform="translate(29.6484375 222.4775)scale(0.1 -0.1)">
       <use xlink:href="#BitstreamVeraSans-Roman-30"/>
       <use x="63.623046875" xlink:href="#BitstreamVeraSans-Roman-2e"/>
       <use x="95.41015625" xlink:href="#BitstreamVeraSans-Roman-30"/>
      </g>
     </g>
    </g>
    <g id="ytick_3">
     <g id="line2d_35">
      <g>
       <use style="stroke:#000000;stroke-width:0.5;" x="48.228125" xlink:href="#m728421d6d4" y="194.918125"/>
      </g>
     </g>
     <g id="line2d_36">
      <g>
       <use style="stroke:#000000;stroke-width:0.5;" x="383.028125" xlink:href="#mcb0005524f" y="194.918125"/>
      </g>
     </g>
     <g id="text_12">
      <!-- 0.5 -->
      <g transform="translate(29.8578125 197.6775)scale(0.1 -0.1)">
       <use xlink:href="#BitstreamVeraSans-Roman-30"/>
       <use x="63.623046875" xlink:href="#BitstreamVeraSans-Roman-2e"/>
       <use x="95.41015625" xlink:href="#BitstreamVeraSans-Roman-35"/>
      </g>
     </g>
    </g>
    <g id="ytick_4">
     <g id="line2d_37">
      <g>
       <use style="stroke:#000000;stroke-width:0.5;" x="48.228125" xlink:href="#m728421d6d4" y="170.118125"/>
      </g>
     </g>
     <g id="line2d_38">
      <g>
       <use style="stroke:#000000;stroke-width:0.5;" x="383.028125" xlink:href="#mcb0005524f" y="170.118125"/>
      </g>
     </g>
     <g id="text_13">
      <!-- 1.0 -->
      <g transform="translate(30.0875 172.8775)scale(0.1 -0.1)">
       <use xlink:href="#BitstreamVeraSans-Roman-31"/>
       <use x="63.623046875" xlink:href="#BitstreamVeraSans-Roman-2e"/>
       <use x="95.41015625" xlink:href="#BitstreamVeraSans-Roman-30"/>
      </g>
     </g>
    </g>
    <g id="ytick_5">
     <g id="line2d_39">
      <g>
       <use style="stroke:#000000;stroke-width:0.5;" x="48.228125" xlink:href="#m728421d6d4" y="145.318125"/>
      </g>
     </g>
     <g id="line2d_40">
      <g>
       <use style="stroke:#000000;stroke-width:0.5;" x="383.028125" xlink:href="#mcb0005524f" y="145.318125"/>
      </g>
     </g>
     <g id="text_14">
      <!-- 1.5 -->
      <g transform="translate(30.296875 148.0775)scale(0.1 -0.1)">
       <use xlink:href="#BitstreamVeraSans-Roman-31"/>
       <use x="63.623046875" xlink:href="#BitstreamVeraSans-Roman-2e"/>
       <use x="95.41015625" xlink:href="#BitstreamVeraSans-Roman-35"/>
      </g>
     </g>
    </g>
    <g id="ytick_6">
     <g id="line2d_41">
      <g>
       <use style="stroke:#000000;stroke-width:0.5;" x="48.228125" xlink:href="#m728421d6d4" y="120.518125"/>
      </g>
     </g>
     <g id="line2d_42">
      <g>
       <use style="stroke:#000000;stroke-width:0.5;" x="383.028125" xlink:href="#mcb0005524f" y="120.518125"/>
      </g>
     </g>
     <g id="text_15">
      <!-- 2.0 -->
      <g transform="translate(29.721875 123.2775)scale(0.1 -0.1)">
       <use xlink:href="#BitstreamVeraSans-Roman-32"/>
       <use x="63.623046875" xlink:href="#BitstreamVeraSans-Roman-2e"/>
       <use x="95.41015625" xlink:href="#BitstreamVeraSans-Roman-30"/>
      </g>
     </g>
    </g>
    <g id="ytick_7">
     <g id="line2d_43">
      <g>
       <use style="stroke:#000000;stroke-width:0.5;" x="48.228125" xlink:href="#m728421d6d4" y="95.718125"/>
      </g>
     </g>
     <g id="line2d_44">
      <g>
       <use style="stroke:#000000;stroke-width:0.5;" x="383.028125" xlink:href="#mcb0005524f" y="95.718125"/>
      </g>
     </g>
     <g id="text_16">
      <!-- 2.5 -->
      <g transform="translate(29.93125 98.4775)scale(0.1 -0.1)">
       <use xlink:href="#BitstreamVeraSans-Roman-32"/>
       <use x="63.623046875" xlink:href="#BitstreamVeraSans-Roman-2e"/>
       <use x="95.41015625" xlink:href="#BitstreamVeraSans-Roman-35"/>
      </g>
     </g>
    </g>
    <g id="ytick_8">
     <g id="line2d_45">
      <g>
       <use style="stroke:#000000;stroke-width:0.5;" x="48.228125" xlink:href="#m728421d6d4" y="70.918125"/>
      </g>
     </g>
     <g id="line2d_46">
      <g>
       <use style="stroke:#000000;stroke-width:0.5;" x="383.028125" xlink:href="#mcb0005524f" y="70.918125"/>
      </g>
     </g>
     <g id="text_17">
      <!-- 3.0 -->
      <g transform="translate(29.7515625 73.6775)scale(0.1 -0.1)">
       <use xlink:href="#BitstreamVeraSans-Roman-33"/>
       <use x="63.623046875" xlink:href="#BitstreamVeraSans-Roman-2e"/>
       <use x="95.41015625" xlink:href="#BitstreamVeraSans-Roman-30"/>
      </g>
     </g>
    </g>
    <g id="ytick_9">
     <g id="line2d_47">
      <g>
       <use style="stroke:#000000;stroke-width:0.5;" x="48.228125" xlink:href="#m728421d6d4" y="46.118125"/>
      </g>
     </g>
     <g id="line2d_48">
      <g>
       <use style="stroke:#000000;stroke-width:0.5;" x="383.028125" xlink:href="#mcb0005524f" y="46.118125"/>
      </g>
     </g>
     <g id="text_18">
      <!-- 3.5 -->
      <g transform="translate(29.9609375 48.8775)scale(0.1 -0.1)">
       <use xlink:href="#BitstreamVeraSans-Roman-33"/>
       <use x="63.623046875" xlink:href="#BitstreamVeraSans-Roman-2e"/>
       <use x="95.41015625" xlink:href="#BitstreamVeraSans-Roman-35"/>
      </g>
     </g>
    </g>
    <g id="ytick_10">
     <g id="line2d_49">
      <g>
       <use style="stroke:#000000;stroke-width:0.5;" x="48.228125" xlink:href="#m728421d6d4" y="21.318125"/>
      </g>
     </g>
     <g id="line2d_50">
      <g>
       <use style="stroke:#000000;stroke-width:0.5;" x="383.028125" xlink:href="#mcb0005524f" y="21.318125"/>
      </g>
     </g>
     <g id="text_19">
      <!-- 4.0 -->
      <defs>
       <path d="
M37.7969 64.3125
L12.8906 25.3906
L37.7969 25.3906
z

M35.2031 72.9062
L47.6094 72.9062
L47.6094 25.3906
L58.0156 25.3906
L58.0156 17.1875
L47.6094 17.1875
L47.6094 0
L37.7969 0
L37.7969 17.1875
L4.89062 17.1875
L4.89062 26.7031
z
" id="BitstreamVeraSans-Roman-34"/>
      </defs>
      <g transform="translate(29.478125 24.0775)scale(0.1 -0.1)">
       <use xlink:href="#BitstreamVeraSans-Roman-34"/>
       <use x="63.623046875" xlink:href="#BitstreamVeraSans-Roman-2e"/>
       <use x="95.41015625" xlink:href="#BitstreamVeraSans-Roman-30"/>
      </g>
     </g>
    </g>
    <g id="text_20">
     <!-- PET (mm/day) -->
     <defs>
      <path d="
M52 44.1875
Q55.375 50.25 60.0625 53.125
Q64.75 56 71.0938 56
Q79.6406 56 84.2812 50.0156
Q88.9219 44.0469 88.9219 33.0156
L88.9219 0
L79.8906 0
L79.8906 32.7188
Q79.8906 40.5781 77.0938 44.375
Q74.3125 48.1875 68.6094 48.1875
Q61.625 48.1875 57.5625 43.5469
Q53.5156 38.9219 53.5156 30.9062
L53.5156 0
L44.4844 0
L44.4844 32.7188
Q44.4844 40.625 41.7031 44.4062
Q38.9219 48.1875 33.1094 48.1875
Q26.2188 48.1875 22.1562 43.5312
Q18.1094 38.875 18.1094 30.9062
L18.1094 0
L9.07812 0
L9.07812 54.6875
L18.1094 54.6875
L18.1094 46.1875
Q21.1875 51.2188 25.4844 53.6094
Q29.7812 56 35.6875 56
Q41.6562 56 45.8281 52.9688
Q50 49.9531 52 44.1875" id="BitstreamVeraSans-Roman-6d"/>
      <path d="
M8.01562 75.875
L15.8281 75.875
Q23.1406 64.3594 26.7812 53.3125
Q30.4219 42.2812 30.4219 31.3906
Q30.4219 20.4531 26.7812 9.375
Q23.1406 -1.70312 15.8281 -13.1875
L8.01562 -13.1875
Q14.5 -2 17.7031 9.0625
Q20.9062 20.125 20.9062 31.3906
Q20.9062 42.6719 17.7031 53.6562
Q14.5 64.6562 8.01562 75.875" id="BitstreamVeraSans-Roman-29"/>
      <path d="
M31 75.875
Q24.4688 64.6562 21.2812 53.6562
Q18.1094 42.6719 18.1094 31.3906
Q18.1094 20.125 21.3125 9.0625
Q24.5156 -2 31 -13.1875
L23.1875 -13.1875
Q15.875 -1.70312 12.2344 9.375
Q8.59375 20.4531 8.59375 31.3906
Q8.59375 42.2812 12.2031 53.3125
Q15.8281 64.3594 23.1875 75.875
z
" id="BitstreamVeraSans-Roman-28"/>
      <path d="
M19.6719 64.7969
L19.6719 37.4062
L32.0781 37.4062
Q38.9688 37.4062 42.7188 40.9688
Q46.4844 44.5312 46.4844 51.125
Q46.4844 57.6719 42.7188 61.2344
Q38.9688 64.7969 32.0781 64.7969
z

M9.8125 72.9062
L32.0781 72.9062
Q44.3438 72.9062 50.6094 67.3594
Q56.8906 61.8125 56.8906 51.125
Q56.8906 40.3281 50.6094 34.8125
Q44.3438 29.2969 32.0781 29.2969
L19.6719 29.2969
L19.6719 0
L9.8125 0
z
" id="BitstreamVeraSans-Roman-50"/>
      <path d="
M9.8125 72.9062
L55.9062 72.9062
L55.9062 64.5938
L19.6719 64.5938
L19.6719 43.0156
L54.3906 43.0156
L54.3906 34.7188
L19.6719 34.7188
L19.6719 8.29688
L56.7812 8.29688
L56.7812 0
L9.8125 0
z
" id="BitstreamVeraSans-Roman-45"/>
      <path d="
M-0.296875 72.9062
L61.375 72.9062
L61.375 64.5938
L35.5 64.5938
L35.5 0
L25.5938 0
L25.5938 64.5938
L-0.296875 64.5938
z
" id="BitstreamVeraSans-Roman-54"/>
      <path d="
M25.3906 72.9062
L33.6875 72.9062
L8.29688 -9.28125
L0 -9.28125
z
" id="BitstreamVeraSans-Roman-2f"/>
     </defs>
     <g transform="translate(14.7984375 167.82984375)rotate(-90.0)scale(0.1 -0.1)">
      <use xlink:href="#BitstreamVeraSans-Roman-50"/>
      <use x="60.302734375" xlink:href="#BitstreamVeraSans-Roman-45"/>
      <use x="123.486328125" xlink:href="#BitstreamVeraSans-Roman-54"/>
      <use x="184.5703125" xlink:href="#BitstreamVeraSans-Roman-20"/>
      <use x="216.357421875" xlink:href="#BitstreamVeraSans-Roman-28"/>
      <use x="255.37109375" xlink:href="#BitstreamVeraSans-Roman-6d"/>
      <use x="352.783203125" xlink:href="#BitstreamVeraSans-Roman-6d"/>
      <use x="450.1953125" xlink:href="#BitstreamVeraSans-Roman-2f"/>
      <use x="483.88671875" xlink:href="#BitstreamVeraSans-Roman-64"/>
      <use x="547.36328125" xlink:href="#BitstreamVeraSans-Roman-61"/>
      <use x="608.642578125" xlink:href="#BitstreamVeraSans-Roman-79"/>
      <use x="667.822265625" xlink:href="#BitstreamVeraSans-Roman-29"/>
     </g>
    </g>
   </g>
   <g id="text_21">
    <!-- daily tree PET at Treeline -->
    <defs>
     <path d="
M56.2031 29.5938
L56.2031 25.2031
L14.8906 25.2031
Q15.4844 15.9219 20.4844 11.0625
Q25.4844 6.20312 34.4219 6.20312
Q39.5938 6.20312 44.4531 7.46875
Q49.3125 8.73438 54.1094 11.2812
L54.1094 2.78125
Q49.2656 0.734375 44.1875 -0.34375
Q39.1094 -1.42188 33.8906 -1.42188
Q20.7969 -1.42188 13.1562 6.1875
Q5.51562 13.8125 5.51562 26.8125
Q5.51562 40.2344 12.7656 48.1094
Q20.0156 56 32.3281 56
Q43.3594 56 49.7812 48.8906
Q56.2031 41.7969 56.2031 29.5938
M47.2188 32.2344
Q47.125 39.5938 43.0938 43.9844
Q39.0625 48.3906 32.4219 48.3906
Q24.9062 48.3906 20.3906 44.1406
Q15.875 39.8906 15.1875 32.1719
z
" id="BitstreamVeraSans-Roman-65"/>
     <path d="
M18.3125 70.2188
L18.3125 54.6875
L36.8125 54.6875
L36.8125 47.7031
L18.3125 47.7031
L18.3125 18.0156
Q18.3125 11.3281 20.1406 9.42188
Q21.9688 7.51562 27.5938 7.51562
L36.8125 7.51562
L36.8125 0
L27.5938 0
Q17.1875 0 13.2344 3.875
Q9.28125 7.76562 9.28125 18.0156
L9.28125 47.7031
L2.6875 47.7031
L2.6875 54.6875
L9.28125 54.6875
L9.28125 70.2188
z
" id="BitstreamVeraSans-Roman-74"/>
     <path d="
M41.1094 46.2969
Q39.5938 47.1719 37.8125 47.5781
Q36.0312 48 33.8906 48
Q26.2656 48 22.1875 43.0469
Q18.1094 38.0938 18.1094 28.8125
L18.1094 0
L9.07812 0
L9.07812 54.6875
L18.1094 54.6875
L18.1094 46.1875
Q20.9531 51.1719 25.4844 53.5781
Q30.0312 56 36.5312 56
Q37.4531 56 38.5781 55.875
Q39.7031 55.7656 41.0625 55.5156
z
" id="BitstreamVeraSans-Roman-72"/>
    </defs>
    <g transform="translate(141.4559375 16.318125)scale(0.12 -0.12)">
     <use xlink:href="#BitstreamVeraSans-Roman-64"/>
     <use x="63.4765625" xlink:href="#BitstreamVeraSans-Roman-61"/>
     <use x="124.755859375" xlink:href="#BitstreamVeraSans-Roman-69"/>
     <use x="152.5390625" xlink:href="#BitstreamVeraSans-Roman-6c"/>
     <use x="180.322265625" xlink:href="#BitstreamVeraSans-Roman-79"/>
     <use x="239.501953125" xlink:href="#BitstreamVeraSans-Roman-20"/>
     <use x="271.2890625" xlink:href="#BitstreamVeraSans-Roman-74"/>
     <use x="310.498046875" xlink:href="#BitstreamVeraSans-Roman-72"/>
     <use x="349.361328125" xlink:href="#BitstreamVeraSans-Roman-65"/>
     <use x="410.884765625" xlink:href="#BitstreamVeraSans-Roman-65"/>
     <use x="472.408203125" xlink:href="#BitstreamVeraSans-Roman-20"/>
     <use x="504.1953125" xlink:href="#BitstreamVeraSans-Roman-50"/>
     <use x="564.498046875" xlink:href="#BitstreamVeraSans-Roman-45"/>
     <use x="627.681640625" xlink:href="#BitstreamVeraSans-Roman-54"/>
     <use x="688.765625" xlink:href="#BitstreamVeraSans-Roman-20"/>
     <use x="720.552734375" xlink:href="#BitstreamVeraSans-Roman-61"/>
     <use x="781.83203125" xlink:href="#BitstreamVeraSans-Roman-74"/>
     <use x="821.041015625" xlink:href="#BitstreamVeraSans-Roman-20"/>
     <use x="852.828125" xlink:href="#BitstreamVeraSans-Roman-54"/>
     <use x="899.162109375" xlink:href="#BitstreamVeraSans-Roman-72"/>
     <use x="938.025390625" xlink:href="#BitstreamVeraSans-Roman-65"/>
     <use x="999.548828125" xlink:href="#BitstreamVeraSans-Roman-65"/>
     <use x="1061.07226562" xlink:href="#BitstreamVeraSans-Roman-6c"/>
     <use x="1088.85546875" xlink:href="#BitstreamVeraSans-Roman-69"/>
     <use x="1116.63867188" xlink:href="#BitstreamVeraSans-Roman-6e"/>
     <use x="1180.01757812" xlink:href="#BitstreamVeraSans-Roman-65"/>
    </g>
   </g>
   <g id="legend_1">
    <g id="patch_7">
     <path d="
M304.841 277.511
L377.028 277.511
L377.028 27.3181
L304.841 27.3181
z
" style="fill:#ffffff;stroke:#000000;stroke-linejoin:miter;"/>
    </g>
    <g id="line2d_51">
     <path d="
M313.241 37.0362
L330.041 37.0362" style="fill:none;stroke:#0000ff;stroke-linecap:square;"/>
    </g>
    <g id="line2d_52"/>
    <g id="text_22">
     <!-- 1999 -->
     <defs>
      <path d="
M10.9844 1.51562
L10.9844 10.5
Q14.7031 8.73438 18.5 7.8125
Q22.3125 6.89062 25.9844 6.89062
Q35.75 6.89062 40.8906 13.4531
Q46.0469 20.0156 46.7812 33.4062
Q43.9531 29.2031 39.5938 26.9531
Q35.25 24.7031 29.9844 24.7031
Q19.0469 24.7031 12.6719 31.3125
Q6.29688 37.9375 6.29688 49.4219
Q6.29688 60.6406 12.9375 67.4219
Q19.5781 74.2188 30.6094 74.2188
Q43.2656 74.2188 49.9219 64.5156
Q56.5938 54.8281 56.5938 36.375
Q56.5938 19.1406 48.4062 8.85938
Q40.2344 -1.42188 26.4219 -1.42188
Q22.7031 -1.42188 18.8906 -0.6875
Q15.0938 0.046875 10.9844 1.51562
M30.6094 32.4219
Q37.25 32.4219 41.125 36.9531
Q45.0156 41.5 45.0156 49.4219
Q45.0156 57.2812 41.125 61.8438
Q37.25 66.4062 30.6094 66.4062
Q23.9688 66.4062 20.0938 61.8438
Q16.2188 57.2812 16.2188 49.4219
Q16.2188 41.5 20.0938 36.9531
Q23.9688 32.4219 30.6094 32.4219" id="BitstreamVeraSans-Roman-39"/>
     </defs>
     <g transform="translate(343.240625 41.23625)scale(0.12 -0.12)">
      <use xlink:href="#BitstreamVeraSans-Roman-31"/>
      <use x="63.623046875" xlink:href="#BitstreamVeraSans-Roman-39"/>
      <use x="127.24609375" xlink:href="#BitstreamVeraSans-Roman-39"/>
      <use x="190.869140625" xlink:href="#BitstreamVeraSans-Roman-39"/>
     </g>
    </g>
    <g id="line2d_53">
     <path d="
M313.241 54.65
L330.041 54.65" style="fill:none;stroke:#008000;stroke-linecap:square;"/>
    </g>
    <g id="line2d_54"/>
    <g id="text_23">
     <!-- 2000 -->
     <g transform="translate(343.240625 58.85)scale(0.12 -0.12)">
      <use xlink:href="#BitstreamVeraSans-Roman-32"/>
      <use x="63.623046875" xlink:href="#BitstreamVeraSans-Roman-30"/>
      <use x="127.24609375" xlink:href="#BitstreamVeraSans-Roman-30"/>
      <use x="190.869140625" xlink:href="#BitstreamVeraSans-Roman-30"/>
     </g>
    </g>
    <g id="line2d_55">
     <path d="
M313.241 72.2638
L330.041 72.2638" style="fill:none;stroke:#ff0000;stroke-linecap:square;"/>
    </g>
    <g id="line2d_56"/>
    <g id="text_24">
     <!-- 2001 -->
     <g transform="translate(343.240625 76.46375)scale(0.12 -0.12)">
      <use xlink:href="#BitstreamVeraSans-Roman-32"/>
      <use x="63.623046875" xlink:href="#BitstreamVeraSans-Roman-30"/>
      <use x="127.24609375" xlink:href="#BitstreamVeraSans-Roman-30"/>
      <use x="190.869140625" xlink:href="#BitstreamVeraSans-Roman-31"/>
     </g>
    </g>
    <g id="line2d_57">
     <path d="
M313.241 89.8775
L330.041 89.8775" style="fill:none;stroke:#00bfbf;stroke-linecap:square;"/>
    </g>
    <g id="line2d_58"/>
    <g id="text_25">
     <!-- 2002 -->
     <g transform="translate(343.240625 94.0775)scale(0.12 -0.12)">
      <use xlink:href="#BitstreamVeraSans-Roman-32"/>
      <use x="63.623046875" xlink:href="#BitstreamVeraSans-Roman-30"/>
      <use x="127.24609375" xlink:href="#BitstreamVeraSans-Roman-30"/>
      <use x="190.869140625" xlink:href="#BitstreamVeraSans-Roman-32"/>
     </g>
    </g>
    <g id="line2d_59">
     <path d="
M313.241 107.491
L330.041 107.491" style="fill:none;stroke:#bf00bf;stroke-linecap:square;"/>
    </g>
    <g id="line2d_60"/>
    <g id="text_26">
     <!-- 2003 -->
     <g transform="translate(343.240625 111.69125)scale(0.12 -0.12)">
      <use xlink:href="#BitstreamVeraSans-Roman-32"/>
      <use x="63.623046875" xlink:href="#BitstreamVeraSans-Roman-30"/>
      <use x="127.24609375" xlink:href="#BitstreamVeraSans-Roman-30"/>
      <use x="190.869140625" xlink:href="#BitstreamVeraSans-Roman-33"/>
     </g>
    </g>
    <g id="line2d_61">
     <path d="
M313.241 125.105
L330.041 125.105" style="fill:none;stroke:#bfbf00;stroke-linecap:square;"/>
    </g>
    <g id="line2d_62"/>
    <g id="text_27">
     <!-- 2004 -->
     <g transform="translate(343.240625 129.305)scale(0.12 -0.12)">
      <use xlink:href="#BitstreamVeraSans-Roman-32"/>
      <use x="63.623046875" xlink:href="#BitstreamVeraSans-Roman-30"/>
      <use x="127.24609375" xlink:href="#BitstreamVeraSans-Roman-30"/>
      <use x="190.869140625" xlink:href="#BitstreamVeraSans-Roman-34"/>
     </g>
    </g>
    <g id="line2d_63">
     <path d="
M313.241 142.719
L330.041 142.719" style="fill:none;stroke:#000000;stroke-linecap:square;"/>
    </g>
    <g id="line2d_64"/>
    <g id="text_28">
     <!-- 2005 -->
     <g transform="translate(343.240625 146.91875)scale(0.12 -0.12)">
      <use xlink:href="#BitstreamVeraSans-Roman-32"/>
      <use x="63.623046875" xlink:href="#BitstreamVeraSans-Roman-30"/>
      <use x="127.24609375" xlink:href="#BitstreamVeraSans-Roman-30"/>
      <use x="190.869140625" xlink:href="#BitstreamVeraSans-Roman-35"/>
     </g>
    </g>
    <g id="line2d_65">
     <path d="
M313.241 160.332
L330.041 160.332" style="fill:none;stroke:#0000ff;stroke-linecap:square;"/>
    </g>
    <g id="line2d_66"/>
    <g id="text_29">
     <!-- 2006 -->
     <defs>
      <path d="
M33.0156 40.375
Q26.375 40.375 22.4844 35.8281
Q18.6094 31.2969 18.6094 23.3906
Q18.6094 15.5312 22.4844 10.9531
Q26.375 6.39062 33.0156 6.39062
Q39.6562 6.39062 43.5312 10.9531
Q47.4062 15.5312 47.4062 23.3906
Q47.4062 31.2969 43.5312 35.8281
Q39.6562 40.375 33.0156 40.375
M52.5938 71.2969
L52.5938 62.3125
Q48.875 64.0625 45.0938 64.9844
Q41.3125 65.9219 37.5938 65.9219
Q27.8281 65.9219 22.6719 59.3281
Q17.5312 52.7344 16.7969 39.4062
Q19.6719 43.6562 24.0156 45.9219
Q28.375 48.1875 33.5938 48.1875
Q44.5781 48.1875 50.9531 41.5156
Q57.3281 34.8594 57.3281 23.3906
Q57.3281 12.1562 50.6875 5.35938
Q44.0469 -1.42188 33.0156 -1.42188
Q20.3594 -1.42188 13.6719 8.26562
Q6.98438 17.9688 6.98438 36.375
Q6.98438 53.6562 15.1875 63.9375
Q23.3906 74.2188 37.2031 74.2188
Q40.9219 74.2188 44.7031 73.4844
Q48.4844 72.75 52.5938 71.2969" id="BitstreamVeraSans-Roman-36"/>
     </defs>
     <g transform="translate(343.240625 164.5325)scale(0.12 -0.12)">
      <use xlink:href="#BitstreamVeraSans-Roman-32"/>
      <use x="63.623046875" xlink:href="#BitstreamVeraSans-Roman-30"/>
      <use x="127.24609375" xlink:href="#BitstreamVeraSans-Roman-30"/>
      <use x="190.869140625" xlink:href="#BitstreamVeraSans-Roman-36"/>
     </g>
    </g>
    <g id="line2d_67">
     <path d="
M313.241 177.946
L330.041 177.946" style="fill:none;stroke:#008000;stroke-linecap:square;"/>
    </g>
    <g id="line2d_68"/>
    <g id="text_30">
     <!-- 2007 -->
     <defs>
      <path d="
M8.20312 72.9062
L55.0781 72.9062
L55.0781 68.7031
L28.6094 0
L18.3125 0
L43.2188 64.5938
L8.20312 64.5938
z
" id="BitstreamVeraSans-Roman-37"/>
     </defs>
     <g transform="translate(343.240625 182.14625)scale(0.12 -0.12)">
      <use xlink:href="#BitstreamVeraSans-Roman-32"/>
      <use x="63.623046875" xlink:href="#BitstreamVeraSans-Roman-30"/>
      <use x="127.24609375" xlink:href="#BitstreamVeraSans-Roman-30"/>
      <use x="190.869140625" xlink:href="#BitstreamVeraSans-Roman-37"/>
     </g>
    </g>
    <g id="line2d_69">
     <path d="
M313.241 195.56
L330.041 195.56" style="fill:none;stroke:#ff0000;stroke-linecap:square;"/>
    </g>
    <g id="line2d_70"/>
    <g id="text_31">
     <!-- 2008 -->
     <defs>
      <path d="
M31.7812 34.625
Q24.75 34.625 20.7188 30.8594
Q16.7031 27.0938 16.7031 20.5156
Q16.7031 13.9219 20.7188 10.1562
Q24.75 6.39062 31.7812 6.39062
Q38.8125 6.39062 42.8594 10.1719
Q46.9219 13.9688 46.9219 20.5156
Q46.9219 27.0938 42.8906 30.8594
Q38.875 34.625 31.7812 34.625
M21.9219 38.8125
Q15.5781 40.375 12.0312 44.7188
Q8.5 49.0781 8.5 55.3281
Q8.5 64.0625 14.7188 69.1406
Q20.9531 74.2188 31.7812 74.2188
Q42.6719 74.2188 48.875 69.1406
Q55.0781 64.0625 55.0781 55.3281
Q55.0781 49.0781 51.5312 44.7188
Q48 40.375 41.7031 38.8125
Q48.8281 37.1562 52.7969 32.3125
Q56.7812 27.4844 56.7812 20.5156
Q56.7812 9.90625 50.3125 4.23438
Q43.8438 -1.42188 31.7812 -1.42188
Q19.7344 -1.42188 13.25 4.23438
Q6.78125 9.90625 6.78125 20.5156
Q6.78125 27.4844 10.7812 32.3125
Q14.7969 37.1562 21.9219 38.8125
M18.3125 54.3906
Q18.3125 48.7344 21.8438 45.5625
Q25.3906 42.3906 31.7812 42.3906
Q38.1406 42.3906 41.7188 45.5625
Q45.3125 48.7344 45.3125 54.3906
Q45.3125 60.0625 41.7188 63.2344
Q38.1406 66.4062 31.7812 66.4062
Q25.3906 66.4062 21.8438 63.2344
Q18.3125 60.0625 18.3125 54.3906" id="BitstreamVeraSans-Roman-38"/>
     </defs>
     <g transform="translate(343.240625 199.76)scale(0.12 -0.12)">
      <use xlink:href="#BitstreamVeraSans-Roman-32"/>
      <use x="63.623046875" xlink:href="#BitstreamVeraSans-Roman-30"/>
      <use x="127.24609375" xlink:href="#BitstreamVeraSans-Roman-30"/>
      <use x="190.869140625" xlink:href="#BitstreamVeraSans-Roman-38"/>
     </g>
    </g>
    <g id="line2d_71">
     <path d="
M313.241 213.174
L330.041 213.174" style="fill:none;stroke:#00bfbf;stroke-linecap:square;"/>
    </g>
    <g id="line2d_72"/>
    <g id="text_32">
     <!-- 2009 -->
     <g transform="translate(343.240625 217.37375)scale(0.12 -0.12)">
      <use xlink:href="#BitstreamVeraSans-Roman-32"/>
      <use x="63.623046875" xlink:href="#BitstreamVeraSans-Roman-30"/>
      <use x="127.24609375" xlink:href="#BitstreamVeraSans-Roman-30"/>
      <use x="190.869140625" xlink:href="#BitstreamVeraSans-Roman-39"/>
     </g>
    </g>
    <g id="line2d_73">
     <path d="
M313.241 230.788
L330.041 230.788" style="fill:none;stroke:#bf00bf;stroke-linecap:square;"/>
    </g>
    <g id="line2d_74"/>
    <g id="text_33">
     <!-- 2010 -->
     <g transform="translate(343.240625 234.9875)scale(0.12 -0.12)">
      <use xlink:href="#BitstreamVeraSans-Roman-32"/>
      <use x="63.623046875" xlink:href="#BitstreamVeraSans-Roman-30"/>
      <use x="127.24609375" xlink:href="#BitstreamVeraSans-Roman-31"/>
      <use x="190.869140625" xlink:href="#BitstreamVeraSans-Roman-30"/>
     </g>
    </g>
    <g id="line2d_75">
     <path d="
M313.241 248.401
L330.041 248.401" style="fill:none;stroke:#bfbf00;stroke-linecap:square;"/>
    </g>
    <g id="line2d_76"/>
    <g id="text_34">
     <!-- 2011 -->
     <g transform="translate(343.240625 252.60125)scale(0.12 -0.12)">
      <use xlink:href="#BitstreamVeraSans-Roman-32"/>
      <use x="63.623046875" xlink:href="#BitstreamVeraSans-Roman-30"/>
      <use x="127.24609375" xlink:href="#BitstreamVeraSans-Roman-31"/>
      <use x="190.869140625" xlink:href="#BitstreamVeraSans-Roman-31"/>
     </g>
    </g>
    <g id="line2d_77">
     <path d="
M313.241 266.015
L330.041 266.015" style="fill:none;stroke:#000000;stroke-linecap:square;"/>
    </g>
    <g id="line2d_78"/>
    <g id="text_35">
     <!-- 2012 -->
     <g transform="translate(343.240625 270.215)scale(0.12 -0.12)">
      <use xlink:href="#BitstreamVeraSans-Roman-32"/>
      <use x="63.623046875" xlink:href="#BitstreamVeraSans-Roman-30"/>
      <use x="127.24609375" xlink:href="#BitstreamVeraSans-Roman-31"/>
      <use x="190.869140625" xlink:href="#BitstreamVeraSans-Roman-32"/>
     </g>
    </g>
   </g>
  </g>
 </g>
 <defs>
  <clipPath id="p60c6dbb31d">
   <rect height="223.2" width="334.8" x="48.228125" y="21.318125"/>
  </clipPath>
 </defs>
</svg>
