<?xml version="1.0" encoding="utf-8" standalone="no"?>
<!DOCTYPE svg PUBLIC "-//W3C//DTD SVG 1.1//EN"
  "http://www.w3.org/Graphics/SVG/1.1/DTD/svg11.dtd">
<!-- Created with matplotlib (http://matplotlib.org/) -->
<svg height="284pt" version="1.1" viewBox="0 0 390 284" width="390pt" xmlns="http://www.w3.org/2000/svg" xmlns:xlink="http://www.w3.org/1999/xlink">
 <defs>
  <style type="text/css">
*{stroke-linecap:butt;stroke-linejoin:round;}
  </style>
 </defs>
 <g id="figure_1">
  <g id="patch_1">
   <path d="
M0 284.711
L390.228 284.711
L390.228 0
L0 0
z
" style="fill:#ffffff;"/>
  </g>
  <g id="axes_1">
   <g id="patch_2">
    <path d="
M48.2281 244.518
L383.028 244.518
L383.028 21.3181
L48.2281 21.3181
z
" style="fill:#ffffff;"/>
   </g>
   <g id="line2d_1">
    <path clip-path="url(#p60c6dbb31d)" d="
M0 0" style="fill:none;stroke:#0000ff;stroke-linecap:square;"/>
   </g>
   <g id="line2d_2">
    <path clip-path="url(#p60c6dbb31d)" d="
M0 0" style="fill:none;stroke:#008000;stroke-linecap:square;"/>
   </g>
   <g id="line2d_3">
    <path clip-path="url(#p60c6dbb31d)" d="
M0 0" style="fill:none;stroke:#ff0000;stroke-linecap:square;"/>
   </g>
   <g id="line2d_4">
    <path clip-path="url(#p60c6dbb31d)" d="
M0 0" style="fill:none;stroke:#00bfbf;stroke-linecap:square;"/>
   </g>
   <g id="line2d_5">
    <path clip-path="url(#p60c6dbb31d)" d="
M0 0" style="fill:none;stroke:#bf00bf;stroke-linecap:square;"/>
   </g>
   <g id="line2d_6">
    <path clip-path="url(#p60c6dbb31d)" d="
M0 0" style="fill:none;stroke:#bfbf00;stroke-linecap:square;"/>
   </g>
   <g id="line2d_7">
    <path clip-path="url(#p60c6dbb31d)" d="
M0 0" style="fill:none;stroke:#000000;stroke-linecap:square;"/>
   </g>
   <g id="line2d_8">
    <path clip-path="url(#p60c6dbb31d)" d="
M0 0" style="fill:none;stroke:#0000ff;stroke-linecap:square;"/>
   </g>
   <g id="line2d_9">
    <path clip-path="url(#p60c6dbb31d)" d="
M0 0" style="fill:none;stroke:#008000;stroke-linecap:square;"/>
   </g>
   <g id="line2d_10">
    <path clip-path="url(#p60c6dbb31d)" d="
M48.2281 122.859
L49.1454 95.4801
L50.0626 110.305
L50.9799 176.849
L51.8972 192.57
L52.8144 196.932
L53.7317 201.949
L54.6489 200.361
L55.5662 183.822
L56.4835 197.406
L57.4007 224.263
L58.318 195.801
L59.2352 195.747
L60.1525 178.194
L61.0698 173.13
L61.987 150.283
L62.9043 165.815
L63.8215 170.851
L64.7388 163.423
L65.6561 208.015
L66.5733 208.572
L67.4906 174.583
L68.4079 150.191
L69.3251 159.342
L70.2424 184.265
L71.1596 176.997
L72.0769 177.18
L72.9942 196.952
L73.9114 202.835
L74.8287 226.2
L75.7459 216.72
L76.6632 204.139
L77.5805 196.466
L78.4977 219.539
L79.415 188.515
L80.3322 183.178
L81.2495 190.04
L82.1668 212.245
L83.084 171.598
L84.0013 189.636
L84.9185 163.153
L85.8358 168.334
L86.7531 165.474
L87.6703 182.017
L88.5876 145.417
L89.5048 147.685
L90.4221 157.066
L91.3394 130.884
L92.2566 145.201
L93.1739 153.988
L94.0911 166.673
L95.0084 181.993
L95.9257 202.219
L96.8429 183.146
L97.7602 188.904
L98.6774 209.024
L99.5947 164.184
L100.512 168.922
L101.429 159.684
L102.346 148.635
L103.264 182.316
L104.181 180.641
L105.098 151.862
L106.016 162.695
L106.933 146.086
L107.85 120.747
L108.767 132.477
L109.685 169.135
L110.602 149.724
L111.519 139.87
L112.436 125.727
L113.354 99.9324
L114.271 181.448
L115.188 193.472
L116.105 166.378
L117.023 168.545
L117.94 150.089
L118.857 210.333
L119.774 197.34
L120.692 161.57
L121.609 116.43
L122.526 100.498
L123.443 117.512
L124.361 174.181
L125.278 174.987
L126.195 200.646
L127.113 136.448
L128.03 177.712
L128.947 152.268
L129.864 149.624
L130.782 153.632
L131.699 98.9621
L132.616 95.938
L133.533 96.0963
L134.451 148.257
L135.368 132.855
L136.285 156.578
L137.202 172.921
L138.12 125.023
L139.037 145.489
L139.954 159.875
L140.871 112.706
L141.789 114.086
L142.706 122.601
L143.623 151.14
L144.54 141.087
L145.458 123.655
L146.375 96.545
L147.292 98.4801
L148.209 117.286
L149.127 122.926
L150.044 117.332
L150.961 90.5263
L151.879 152.873
L152.796 151.933
L153.713 81.9754
L154.63 48.0692
L155.548 65.1252
L156.465 73.3243
L157.382 150.212
L158.299 79.4135
L159.217 79.5718
L160.134 55.904
L161.051 64.4809
L161.968 74.3855
L162.886 79.4865
L163.803 99.0508
L164.72 126.274
L165.637 80.4498
L166.555 62.9172
L167.472 64.7887
L168.389 85.0267
L169.306 77.5675
L170.224 95.4618
L171.141 150.199
L172.058 112.299
L172.976 99.7456
L173.893 98.47
L174.81 110.605
L175.727 100.277
L176.645 160.391
L177.562 139.117
L178.479 137.674
L179.396 159.749
L180.314 111.63
L181.231 139.729
L182.148 161.436
L183.065 159.288
L183.983 132.863
L184.9 136.11
L185.817 126.488
L186.734 124.637
L187.652 159.662
L188.569 93.6225
L189.486 168.324
L190.403 139.879
L191.321 99.1026
L192.238 90.8872
L193.155 121.848
L194.073 67.4463
L194.99 117.248
L195.907 132.049
L196.824 141.252
L197.742 92.542
L198.659 79.6591
L199.576 79.7366
L200.493 87.0963
L201.411 92.4705
L202.328 91.7815
L203.245 85.8331
L204.162 84.9478
L205.08 101.492
L205.997 134.03
L206.914 111.098
L207.831 96.5969
L208.749 101.176
L209.666 88.0882
L210.583 97.1961
L211.5 101.337
L212.418 108.362
L213.335 113.609
L214.252 126.103
L215.169 131.807
L216.087 106.39
L217.004 115.04
L217.921 120.162
L218.839 112.695
L219.756 101.842
L220.673 103.92
L221.59 103.922
L222.508 105.014
L223.425 98.4177
L224.342 81.7288
L225.259 91.4505
L226.177 99.497
L227.094 102.672
L228.011 105.133
L228.928 110.839
L229.846 106.905
L230.763 96.7491
L231.68 97.1419
L232.597 108.883
L233.515 127.262
L234.432 150.644
L235.349 111.974
L236.266 107.629
L237.184 110.894
L238.101 109.308
L239.018 109.111
L239.936 109.563
L240.853 127.789
L241.77 102.332
L242.687 103.052
L243.605 114.048
L244.522 108.22
L245.439 107.871
L246.356 109.529
L247.274 127.432
L248.191 136.199
L249.108 130.628
L250.025 142.235
L250.943 117.131
L251.86 100.589
L253.694 111.9
L254.612 112.985
L255.529 116.911
L256.446 116.913
L257.363 112.8
L258.281 117.877
L259.198 131.028
L260.115 132.147
L261.033 119.099
L261.95 128.203
L262.867 99.2321
L263.784 107.711
L264.702 119.025
L265.619 125.627
L267.453 97.3058
L268.371 112.62
L269.288 119.187
L270.205 120.792
L271.122 115.254
L272.04 124.469
L272.957 106.211
L273.874 93.5136
L274.791 94.979
L275.709 106.617
L276.626 116.792
L277.543 113.128
L278.46 108.84
L279.378 113.599
L280.295 99.5465
L281.212 105.677
L282.129 103.674
L283.047 112.162
L283.964 113.973
L284.881 112.749
L285.799 116.153
L286.716 118.001
L287.633 122.158
L288.55 144.168
L289.468 175.029
L290.385 187.107
L291.302 141.556
L292.219 113.588
L293.137 106.283
L294.054 114.72
L294.971 110.814
L295.888 118.683
L296.806 113.94
L297.723 117.424
L298.64 127.247
L299.557 126.226
L300.475 148.647
L301.392 151.696
L302.309 201.817
L303.226 175.615
L304.144 138.643
L305.061 135.958
L305.978 103.661
L306.896 110.126
L307.813 199.784
L308.73 176.124
L309.647 130.193
L310.565 111.351
L311.482 128.199
L312.399 124.757
L313.316 122.878
L314.234 136.01
L315.151 129.214
L316.068 137.347
L316.985 130.083
L317.903 136.653
L318.82 89.8351
L320.654 107.187
L321.572 125.016
L322.489 120.877
L323.406 109.659
L324.323 121.234
L325.241 122.173
L326.158 126.697
L327.075 152.341
L327.993 183.458
L328.91 203.62
L329.827 206.877
L330.744 207.664
L331.662 177.115
L332.579 186.869
L333.496 178.076
L334.413 174.971
L335.331 205.718
L336.248 196.459
L337.165 211.055
L338.082 186.114
L339 169.194
L339.917 125.978
L340.834 126.092
L341.751 133.532
L342.669 122.73
L343.586 128.798
L344.503 144.33
L345.42 167.623
L346.338 140.859
L347.255 167.199
L348.172 182.203
L349.089 130.347
L350.007 135.515
L350.924 154.824
L351.841 146.475
L352.759 166.228
L353.676 199.92
L354.593 188.87
L355.51 156.185
L356.428 191.431
L357.345 207.373
L358.262 144.655
L359.179 130.073
L360.097 129.475
L361.014 164.868
L361.931 191.493
L362.848 149.303
L363.766 133.727
L364.683 164.388
L366.517 215.855
L367.435 213.969
L368.352 189.245
L369.269 186.945
L370.186 178.055
L371.104 164.024
L372.021 204.602
L372.938 176.55
L373.856 199.422
L374.773 211.285
L376.607 192.859
L377.525 223.081
L378.442 196.112
L379.359 214.059
L380.276 213.268
L381.194 184.108
L382.111 140.107
L382.111 140.107" style="fill:none;stroke:#ff0000;stroke-linecap:square;"/>
   </g>
   <g id="line2d_11">
    <path clip-path="url(#p60c6dbb31d)" d="
M48.2281 205.269
L49.1454 170.065
L50.0626 175.805
L50.9799 129.877
L51.8972 162.932
L52.8144 212.762
L53.7317 192.203
L54.6489 179.803
L55.5662 196.723
L56.4835 159.578
L57.4007 176.326
L58.318 195.335
L59.2352 181.606
L60.1525 147.348
L61.0698 157.069
L61.987 152.106
L62.9043 177.314
L63.8215 161.744
L64.7388 177.171
L65.6561 173.038
L66.5733 150.536
L67.4906 181.014
L68.4079 217.163
L69.3251 215.342
L70.2424 223.38
L71.1596 211.625
L72.0769 179.297
L72.9942 186.817
L73.9114 185.227
L74.8287 176.426
L75.7459 176.318
L76.6632 148.429
L77.5805 130.458
L79.415 164.73
L80.3322 160.223
L81.2495 180.8
L82.1668 196.031
L83.084 189.893
L84.0013 208.207
L84.9185 191.533
L85.8358 188.952
L86.7531 209.131
L87.6703 189.067
L88.5876 211.147
L89.5048 165.348
L90.4221 166.761
L91.3394 203.775
L92.2566 169.684
L93.1739 157.213
L94.0911 159.927
L95.0084 138.549
L95.9257 151.036
L96.8429 184.478
L97.7602 147.835
L98.6774 175.977
L99.5947 180.252
L100.512 133.667
L101.429 105.856
L102.346 135.67
L104.181 190.311
L106.016 228.919
L106.933 188.601
L107.85 174.253
L108.767 182.954
L109.685 158.429
L110.602 163.963
L111.519 136.108
L112.436 141.092
L113.354 145.139
L114.271 156.098
L115.188 212.258
L116.105 190.257
L117.023 161.533
L117.94 120.305
L118.857 143.005
L119.774 122.617
L120.692 173.641
L121.609 187.761
L122.526 145.405
L123.443 142.994
L124.361 200.205
L126.195 120.341
L127.113 177.745
L128.03 188.152
L128.947 135.786
L129.864 199.757
L130.782 164.531
L131.699 204.896
L132.616 201.166
L134.451 118.431
L135.368 99.1079
L136.285 102.578
L137.202 174.913
L138.12 141.351
L139.037 185.538
L139.954 149.371
L140.871 108.317
L141.789 147.538
L142.706 120.86
L143.623 140.525
L144.54 91.9063
L145.458 96.5197
L146.375 97.3052
L147.292 86.0229
L148.209 96.8953
L149.127 104.388
L150.044 108.261
L150.961 116.008
L151.879 58.0308
L152.796 75.0688
L153.713 100.247
L154.63 102.991
L155.548 182.651
L156.465 102.909
L157.382 119.117
L158.299 129.434
L159.217 151.011
L160.134 201.221
L161.051 151.977
L161.968 150.925
L162.886 160.793
L164.72 90.5778
L165.637 71.8004
L166.555 85.6086
L167.472 93.5282
L168.389 106.874
L169.306 81.798
L170.224 125.037
L171.141 90.0274
L172.058 84.6162
L172.976 94.2
L173.893 107.431
L174.81 97.9027
L175.727 76.6844
L176.645 75.8043
L177.562 95.4415
L178.479 117.585
L179.396 123.752
L180.314 96.4226
L182.148 95.8952
L183.065 98.6185
L183.983 115.748
L184.9 116.891
L185.817 126.029
L186.734 137.735
L187.652 191.326
L188.569 136.844
L189.486 142.639
L190.403 172.398
L191.321 178.494
L192.238 120.388
L193.155 118.953
L194.073 114.549
L194.99 141.087
L195.907 141.512
L196.824 139.045
L197.742 180.078
L198.659 181.594
L199.576 179.398
L200.493 133.833
L201.411 156.914
L202.328 102.742
L203.245 124.005
L204.162 136.29
L205.08 161.744
L205.997 131.228
L206.914 87.2768
L207.831 105.169
L208.749 104.979
L209.666 106.23
L210.583 89.3021
L211.5 97.3736
L212.418 111.971
L213.335 110.116
L214.252 104.827
L215.169 120.546
L216.087 129.555
L217.004 107.793
L217.921 125.009
L218.839 102.56
L219.756 98.9934
L220.673 99.2567
L221.59 102.501
L222.508 98.6693
L223.425 129.485
L224.342 146.987
L225.259 137.84
L226.177 99.3132
L227.094 103.48
L228.011 118.2
L228.928 122.04
L229.846 126.415
L230.763 114.121
L231.68 109.817
L232.597 112.977
L233.515 122.064
L234.432 139.664
L235.349 113.26
L236.266 116.438
L237.184 118.648
L239.018 131.498
L239.936 126.829
L241.77 115.511
L243.605 128.384
L245.439 122.143
L246.356 129.542
L247.274 193.047
L248.191 206.959
L250.025 121.438
L250.943 116.425
L252.777 122.723
L253.694 134.66
L254.612 113.699
L255.529 117.672
L256.446 105.811
L257.363 108.904
L258.281 122.473
L259.198 124.616
L260.115 128.471
L261.033 127.817
L261.95 125.142
L262.867 153.356
L263.784 126.933
L264.702 124.808
L265.619 123.584
L266.536 127.615
L267.453 147.204
L268.371 130.548
L269.288 136.112
L270.205 119.483
L271.122 124.749
L272.04 124.602
L272.957 125.385
L274.791 140.939
L275.709 122.806
L277.543 102.636
L279.378 119.214
L280.295 124.306
L281.212 126.594
L282.129 129.828
L283.047 131.546
L283.964 143.022
L284.881 137.215
L285.799 133.669
L286.716 140.024
L287.633 139.171
L288.55 129.708
L289.468 108.319
L291.302 125.933
L292.219 132.26
L293.137 136.073
L294.054 128.177
L294.971 122.455
L295.888 133.991
L296.806 162.259
L297.723 139.197
L298.64 110.386
L299.557 108.917
L301.392 238.089
L302.309 223.932
L303.226 150.976
L304.144 133.203
L305.061 127.516
L305.978 146.475
L306.896 127.373
L307.813 119.391
L308.73 125.17
L309.647 173.828
L310.565 190.547
L311.482 178.429
L312.399 153.081
L313.316 154.716
L314.234 165.456
L315.151 189.569
L316.068 174.628
L316.985 174.026
L317.903 151.302
L318.82 172.681
L319.737 160.176
L320.654 122.5
L321.572 173.618
L322.489 211.827
L323.406 170.898
L325.241 204.251
L326.158 176.716
L327.075 172.766
L327.993 159.759
L328.91 137.544
L329.827 138.533
L330.744 136.424
L331.662 185.186
L332.579 176.478
L333.496 148.861
L334.413 128.278
L335.331 143.366
L336.248 190.321
L337.165 219.068
L338.082 203.17
L339 199.387
L339.917 140.525
L340.834 134.682
L341.751 130.586
L342.669 182.093
L343.586 138.464
L344.503 160.023
L345.42 163.851
L346.338 193.397
L347.255 173.834
L348.172 165.618
L349.089 168.092
L350.007 164.749
L350.924 184.439
L351.841 183.871
L352.759 158.508
M354.593 162.232
L355.51 156.536
L356.428 139.411
L357.345 133.982
L358.262 152.144
L359.179 148.697
L360.097 200.031
L361.014 166.868
L361.931 151.552
L362.848 143.97
L363.766 123.903
L364.683 181.373
L365.6 215.49
L366.517 192.149
L367.435 199.928
L368.352 224.16
L369.269 200.811
L370.186 209.779
L372.021 192.68
L372.938 188.161
L373.856 218.199
L374.773 196.566
L375.69 139.216
L376.607 176.163
L377.525 192.841
L378.442 185.701
L379.359 166.974
L381.194 213.723
L382.111 202.015
L382.111 202.015" style="fill:none;stroke:#00bfbf;stroke-linecap:square;"/>
   </g>
   <g id="line2d_12">
    <path clip-path="url(#p60c6dbb31d)" d="
M48.2281 214.047
L50.0626 190.928
L50.9799 172.775
L51.8972 193.123
L52.8144 185.787
L53.7317 200.791
L54.6489 145.37
L55.5662 159.416
L56.4835 175.735
L57.4007 153.121
L58.318 170.067
L59.2352 207.297
L60.1525 190.099
L61.0698 131.396
L61.987 173.264
L62.9043 166.313
L63.8215 193.45
L64.7388 194.915
L65.6561 181.253
L66.5733 171.487
L67.4906 180.998
L68.4079 226.753
L69.3251 190.484
L70.2424 202.922
L71.1596 212.131
L72.0769 223.54
L72.9942 206.305
L73.9114 198.339
L74.8287 186.159
L75.7459 226.513
L76.6632 197.604
L77.5805 173.622
L78.4977 190.556
L79.415 199.095
L80.3322 204.082
L81.2495 190.851
L82.1668 213.485
L83.084 212.407
L84.0013 194.935
L84.9185 166.005
L85.8358 197.862
L86.7531 191.609
L87.6703 207.475
L88.5876 181.309
L89.5048 223.387
L90.4221 216.956
L91.3394 215.731
L92.2566 207.53
L93.1739 184.474
L94.0911 176.724
L95.0084 182.073
L95.9257 109.694
L96.8429 121.881
L97.7602 194.212
L98.6774 195.001
L99.5947 151.287
L100.512 177.756
L101.429 187.157
L102.346 153.364
L103.264 145.029
L104.181 186.699
L105.098 177.877
L106.016 178.585
L106.933 156.62
L107.85 137.834
L108.767 192.276
L109.685 153.473
L110.602 122.174
L111.519 130.483
L112.436 149.326
L113.354 200.317
L114.271 159.907
L115.188 107.536
L116.105 117.638
L117.023 115.54
L117.94 124.644
L118.857 84.4347
L119.774 101.118
L120.692 152.141
L121.609 165.898
L122.526 112.51
L123.443 104.626
L124.361 176.995
L125.278 183.516
L126.195 130.52
L127.113 109.735
L128.947 211.35
L129.864 164.87
L130.782 203.876
L131.699 198.967
L132.616 171.36
L133.533 173.722
L134.451 191.788
L135.368 145.474
L136.285 120.948
L137.202 149.45
L138.12 88.321
L139.037 109.562
L139.954 119.132
L140.871 181.396
L141.789 164.721
L142.706 103.225
L143.623 79.2681
L144.54 112.318
L145.458 106.738
L146.375 83.1301
L147.292 84.5105
L148.209 146.512
L149.127 185.682
L150.044 165.033
L150.961 78.6867
L151.879 72.867
L152.796 64.47
L153.713 89.1041
L154.63 180.421
L155.548 192.573
L156.465 164.913
L157.382 173.613
L158.299 156.106
L159.217 111.59
L160.134 151.568
L161.051 43.9738
L161.968 120.738
L162.886 118.122
L163.803 52.0842
L164.72 70.9102
L165.637 65.6517
L166.555 158.738
L167.472 106.354
L168.389 77.3922
L169.306 81.5283
L170.224 69.7718
L171.141 75.3198
L172.058 94.8318
L172.976 123.112
L173.893 197.774
L174.81 119.29
L175.727 90.97
L176.645 130.337
L177.562 223.976
L178.479 151.359
L179.396 132.237
L180.314 93.2454
L181.231 161.704
L182.148 145.736
L183.065 157.643
L183.983 132.424
L184.9 96.5901
L185.817 166.485
L186.734 153.592
L187.652 194.139
L188.569 144.374
L189.486 204.061
L190.403 126.059
L191.321 180.036
L192.238 107.552
L193.155 107.504
L194.073 142.452
L194.99 151.643
L195.907 120.096
L196.824 75.4095
L199.576 104.458
L200.493 92.778
L201.411 106.301
L202.328 75.5119
L203.245 101.89
L204.162 141.358
L205.08 147.636
L205.997 91.7956
L206.914 93.9761
L207.831 127.26
L208.749 143.411
L209.666 103.485
L210.583 94.7592
L211.5 114.825
L212.418 142.476
L213.335 110.524
L214.252 100.584
L216.087 122.987
L217.004 91.5582
L217.921 93.3607
L218.839 91.9893
L219.756 92.8019
L220.673 97.9077
L222.508 112.731
L223.425 107.084
L224.342 102.699
L225.259 73.4833
L227.094 91.7983
L228.011 104.429
L228.928 99.7405
L229.846 100.486
L230.763 89.2013
L231.68 91.7326
L232.597 100.5
L233.515 99.3349
L234.432 92.4871
L235.349 100.534
L236.266 115.1
L237.184 160.781
L238.101 125.663
L239.018 126.915
L239.936 117.53
L240.853 126.674
L241.77 122.193
L242.687 105.853
L243.605 102.66
L244.522 107.736
L245.439 107.058
L246.356 117.575
L247.274 131.115
L248.191 107.623
L249.108 111.864
L250.943 142.472
L251.86 173.507
L252.777 136.774
L253.694 115.659
L254.612 114.808
L255.529 113.38
L256.446 111.141
L257.363 114.242
L258.281 115.681
L259.198 108.634
L260.115 103.817
L261.033 112.636
L261.95 104.585
L262.867 105.954
L263.784 101.387
L264.702 110.751
L265.619 139.169
L266.536 98.1882
L267.453 111.919
L268.371 184.265
L269.288 136.97
L270.205 148.703
L271.122 141.998
L272.04 114.847
L272.957 109.686
L273.874 122.824
L274.791 99.7848
L275.709 92.8744
L276.626 93.3757
L277.543 166.341
L278.46 205.479
L279.378 123.205
L280.295 104.74
L281.212 106.82
L282.129 114.72
L283.047 120.684
L283.964 113.553
L284.881 111.69
L285.799 126.019
L286.716 121.642
L287.633 134.275
L288.55 129.703
L289.468 115.55
L290.385 113.722
L291.302 110.453
L292.219 105.793
L293.137 115.788
L294.054 118.205
L294.971 115.584
L295.888 119.224
L296.806 123.932
L297.723 117.411
L298.64 123.785
L299.557 123.372
L300.475 159.961
L301.392 189.909
L302.309 168.055
L303.226 157.106
L304.144 131.644
L305.061 186.018
L305.978 162.308
L306.896 149.679
L307.813 158.966
L308.73 121.258
L309.647 113.163
L310.565 110.522
L311.482 127.05
L312.399 137.245
L313.316 130.283
L314.234 108.622
L315.151 98.7027
L316.068 111.863
L316.985 114.267
L317.903 121.858
L318.82 185.224
L319.737 214.352
L320.654 182.579
L321.572 201.243
L322.489 154.007
L323.406 113.474
L325.241 135.7
L326.158 193.155
L327.075 149.527
L327.993 143.956
L328.91 148.64
L329.827 132.328
L330.744 141.217
L331.662 142.06
L332.579 190.165
L333.496 197.141
L334.413 164.146
L335.331 214.016
L336.248 196.658
L337.165 165.309
L338.082 168.919
L339 214.115
L339.917 189.548
L340.834 176.136
L341.751 145.204
L342.669 169.904
L343.586 220.367
L344.503 217.271
L345.42 208.484
L346.338 228.315
L347.255 220.107
L348.172 146.541
L349.089 139.107
L350.007 149.264
L350.924 178.928
L351.841 197.979
L352.759 156.94
L353.676 164.472
L354.593 227.793
L355.51 210.458
L356.428 186.805
L357.345 194.435
L358.262 210.551
L359.179 209.856
L360.097 192.882
L361.014 168.509
L361.931 192.046
L362.848 200.55
L363.766 203.608
L364.683 193.385
L365.6 189.112
L366.517 206.079
L367.435 196.892
L368.352 158.337
L369.269 152.987
L370.186 192.423
L371.104 212.279
L372.021 198.255
L372.938 164.682
L373.856 205.853
L374.773 204.385
L376.607 110.01
L377.525 190.003
L378.442 192.611
L379.359 200.929
L380.276 223.057
L381.194 209.094
L382.111 192.044
L382.111 192.044" style="fill:none;stroke:#bf00bf;stroke-linecap:square;"/>
   </g>
   <g id="line2d_13">
    <path clip-path="url(#p60c6dbb31d)" d="
M48.2281 168.614
L49.1454 175.742
L50.0626 198.975
L50.9799 205.056
L51.8972 171.842
L52.8144 180.354
L53.7317 178.877
L54.6489 185.855
L56.4835 215.138
L57.4007 170.879
L58.318 186.62
L59.2352 219.053
L60.1525 206.553
L61.0698 205.319
L61.987 216.932
L62.9043 204.428
L63.8215 207.893
L64.7388 213.284
L65.6561 162.558
L66.5733 202.218
L67.4906 203.174
L68.4079 150.727
L69.3251 204.619
L70.2424 210.337
L71.1596 210.79
L72.0769 207.343
L72.9942 205.409
L73.9114 205.466
L74.8287 217.014
L75.7459 180.228
L76.6632 148.732
L77.5805 131.696
L78.4977 151.704
L79.415 190.598
L80.3322 184.677
L81.2495 181.791
L82.1668 183.357
L83.084 190.923
L84.9185 158.379
L85.8358 146.788
L86.7531 144.738
L87.6703 136.71
L88.5876 142.19
L89.5048 149.062
L90.4221 185.159
L91.3394 196.375
L92.2566 204.193
L93.1739 200.246
L94.0911 236.196
L95.0084 192.584
L95.9257 190.685
L96.8429 178.053
L97.7602 212.196
L98.6774 214.143
L99.5947 157.737
L100.512 147.431
L101.429 156.693
L102.346 130.469
L103.264 177.367
L106.016 200.361
L106.933 206.855
L107.85 209.851
L108.767 223.706
L109.685 197.749
L110.602 189.006
L111.519 215.471
L112.436 184.453
L113.354 208.532
L114.271 166.94
L115.188 192.97
L116.105 235.869
L117.023 214.774
L117.94 158.45
L118.857 202.124
L119.774 168.972
L120.692 193.966
L121.609 184.575
L122.526 166.185
L123.443 200.213
L124.361 218.197
L125.278 224.654
L126.195 222.189
L127.113 180.359
L128.03 196.853
L128.947 198.012
L129.864 143.663
L130.782 144.913
L131.699 156.453
L132.616 173.281
L133.533 142.281
L134.451 159.704
L135.368 172.616
L136.285 156.892
L137.202 168.896
L138.12 184.319
L139.037 144.126
L139.954 160.131
L140.871 116.051
L141.789 168.869
L142.706 111.465
L143.623 156.159
L144.54 171.318
L145.458 148.262
L146.375 146.684
L147.292 74.2139
L148.209 156.717
L149.127 177.547
L150.044 93.6949
L150.961 76.7012
L151.879 141.133
L152.796 182.252
L153.713 135.748
L154.63 110.598
L155.548 181.473
L156.465 115.236
L157.382 123.686
L158.299 100.612
L159.217 139.927
L160.134 104.215
L161.051 94.4662
L161.968 107.865
L162.886 167.622
L163.803 146.661
L164.72 167.145
L166.555 101.87
L167.472 100.929
L168.389 112.004
L169.306 118.565
L170.224 145.183
L171.141 179.848
L172.058 198.729
L172.976 134.505
L173.893 170.93
L174.81 91.3684
L175.727 105.671
L176.645 136.293
L177.562 115.732
L178.479 157.714
L179.396 156.664
L180.314 147.5
L181.231 119.762
L182.148 182.412
L183.065 181.624
L183.983 183.251
L184.9 131.3
L185.817 136.221
L186.734 127.226
L187.652 168.63
L188.569 95.8484
L189.486 105.464
L190.403 118.185
L191.321 160.557
L192.238 174.649
L193.155 110.462
L194.073 131.07
L194.99 134.966
L195.907 137.532
L196.824 116.252
L197.742 151.178
L198.659 95.3007
L199.576 81.831
L200.493 109.937
L201.411 87.3284
L202.328 169.849
L203.245 166.756
L204.162 98.9622
L205.08 106.796
L205.997 115.741
L206.914 114.703
L207.831 99.3176
L208.749 93.2651
L209.666 97.5978
L210.583 105.054
L211.5 118.885
L212.418 148.242
L213.335 113.853
L214.252 102.417
L215.169 102.218
L216.087 114.438
L217.004 118.661
L217.921 121.367
L218.839 115.833
L219.756 153.454
L220.673 105.153
L221.59 98.4786
L222.508 116.24
L223.425 123.337
L224.342 116.321
L225.259 129.062
L227.094 113.897
L228.011 125.906
L228.928 118.008
L229.846 115.396
L230.763 119.903
L231.68 109.754
L232.597 105.537
L233.515 110.729
L234.432 105.061
L235.349 117.404
L236.266 116.586
L237.184 121.139
L238.101 114.043
L239.018 111.338
L239.936 117.095
L241.77 138.916
L242.687 129.761
L243.605 130.267
L244.522 120.328
L245.439 148.26
L246.356 122.19
L247.274 122.356
L248.191 126.375
L249.108 126.682
L250.025 116.201
L250.943 117.695
L251.86 109.802
L252.777 116.209
L253.694 129.551
L254.612 126.688
L255.529 110.191
L256.446 113.8
L257.363 121.006
L258.281 121.29
L259.198 118.454
L260.115 129.132
L261.033 131.748
L262.867 126.493
L263.784 127.844
L264.702 133.841
L265.619 132.822
L266.536 153.72
L267.453 136.82
L268.371 129.522
L269.288 126.353
L270.205 114.767
L271.122 113.52
L272.04 113.365
L272.957 116.499
L273.874 116.306
L275.709 128.711
L276.626 131.353
L277.543 130.932
L278.46 136.751
L279.378 134.363
L280.295 142.85
L281.212 136.786
L282.129 136.666
L283.047 134.936
L283.964 181.799
L284.881 145.235
L285.799 117.623
L286.716 115.643
L287.633 126.25
L288.55 127.847
L289.468 121.884
L290.385 129.118
L291.302 129.682
L292.219 134.07
L293.137 139.344
L294.054 130.075
L294.971 129.363
L295.888 134.223
L296.806 126.574
L297.723 139.026
L298.64 138.426
L299.557 139.929
L300.475 140.481
L301.392 193.459
L303.226 227.535
L304.144 218.631
L305.061 168.398
L305.978 141.22
L306.896 191.069
L307.813 178.42
L308.73 140.864
L309.647 134.973
L310.565 132.542
L311.482 153.799
L312.399 211.498
L313.316 151.813
L314.234 127.643
L315.151 145.274
L316.068 135.7
L317.903 158.257
L318.82 151.848
L319.737 177.147
L320.654 134.329
L321.572 104.724
L322.489 116.194
L323.406 116.489
L324.323 127.638
L325.241 144.958
L326.158 174.656
L327.075 135.715
L327.993 105.659
L328.91 128.731
L329.827 185.362
L330.744 200.147
L331.662 207.779
L332.579 209.269
L334.413 141.951
L335.331 136.49
L336.248 150.006
L337.165 187.299
L338.082 194.539
L339 134.704
L339.917 117.814
L340.834 158.812
L341.751 205.259
L342.669 205.747
L343.586 196.215
L344.503 154.364
L346.338 191.229
L347.255 144.035
L348.172 173.258
L349.089 174.125
L350.007 118.051
L350.924 120.008
L351.841 163.128
L352.759 194.924
L353.676 181.178
L354.593 130.489
L355.51 133.518
L357.345 164.906
L358.262 161.36
L359.179 135.971
L360.097 142.028
L361.014 138.883
L361.931 141.243
L363.766 153.771
L364.683 151.053
L365.6 164.919
L366.517 152.275
L367.435 174.346
L368.352 177.789
L369.269 175.729
L370.186 166.073
L371.104 151.792
L372.021 142.464
L372.938 172.672
L373.856 125.609
L374.773 117.175
L375.69 129.655
L376.607 138.111
L377.525 149.646
L379.359 201.808
L380.276 188.249
L381.194 217.72
L382.111 173.01
L382.111 173.01" style="fill:none;stroke:#bfbf00;stroke-linecap:square;"/>
   </g>
   <g id="line2d_14">
    <path clip-path="url(#p60c6dbb31d)" d="
M48.2281 126.667
L49.1454 136.861
L50.0626 133.678
L50.9799 123.134
L51.8972 146.907
L52.8144 165.394
L53.7317 180.189
L54.6489 162.505
L55.5662 172.533
L56.4835 201.106
L57.4007 157.27
L58.318 166.941
L59.2352 125.167
L60.1525 110.023
L61.0698 150.023
L61.987 165.69
L62.9043 134.159
L63.8215 183.665
L64.7388 222.429
L65.6561 221.526
L66.5733 214.704
L67.4906 193.249
L68.4079 218.246
L69.3251 197.396
L70.2424 193.894
L71.1596 210.933
L72.0769 153.067
L72.9942 138.463
L73.9114 116.566
L74.8287 175.017
L75.7459 146.08
L76.6632 192.647
L77.5805 188.441
L78.4977 151.15
L79.415 144.44
L80.3322 142.503
L81.2495 144.266
L82.1668 120.844
L83.084 181.623
L84.0013 211.416
L84.9185 180.182
L85.8358 201.311
L86.7531 207.469
L87.6703 174.517
L88.5876 187.947
L89.5048 197.167
L90.4221 158.674
L91.3394 158.224
L92.2566 184.531
L93.1739 165.908
L94.0911 188.593
L95.0084 224.609
L96.8429 162.431
L97.7602 119.05
L98.6774 187.297
L99.5947 155.57
L100.512 140.951
L101.429 131.045
L102.346 178.544
L103.264 207.272
L104.181 166.213
L105.098 181.31
L106.016 151.736
L106.933 138.748
L107.85 176.186
L108.767 116.383
L109.685 111.739
L110.602 112.695
L111.519 122.681
L112.436 161.103
L113.354 173.287
L114.271 182.162
L115.188 221.935
L116.105 186.005
L117.023 207.776
L117.94 208.125
L118.857 233.612
L119.774 177.634
L120.692 192.097
L121.609 156.907
L122.526 104.795
L123.443 141.272
L124.361 112.299
L125.278 152.236
L126.195 198.09
L127.113 127.901
L128.03 171.011
L128.947 180.161
L129.864 199.411
L130.782 119.171
L131.699 98.1418
L132.616 117.216
L133.533 104
L134.451 143.523
L135.368 116.748
L136.285 110.977
L137.202 81.8895
L138.12 78.4204
L139.037 103.419
L139.954 97.713
L140.871 158.774
L141.789 132.546
L142.706 155.788
L143.623 114.59
L144.54 83.9603
L145.458 170.237
L146.375 136.949
L147.292 137.675
L148.209 162.463
L149.127 122.18
L150.044 98.3567
L150.961 103.213
L151.879 133.868
L152.796 125.091
L153.713 150.029
L154.63 217.395
L155.548 97.8323
L156.465 125.194
L157.382 90.8614
L158.299 166.688
L159.217 107.087
L160.134 94.0225
L161.051 168.759
L161.968 195.692
L162.886 122.387
L163.803 80.5114
L164.72 80.4406
L165.637 81.0448
L166.555 96.129
L167.472 65.7154
L168.389 72.1182
L169.306 81.8362
L170.224 86.5886
L171.141 105.18
L172.058 139.406
L172.976 110.387
L173.893 127.33
L174.81 88.1463
L175.727 76.0841
L176.645 96.3035
L177.562 145.145
L178.479 154.543
L179.396 139.803
L180.314 111.731
L181.231 184.357
L182.148 186.605
L183.065 149.7
L183.983 91.4606
L184.9 89.8426
L185.817 99.8048
L186.734 105.087
L187.652 102.427
L188.569 135.335
L189.486 116.013
L190.403 141.3
L191.321 195.624
L192.238 100.965
L193.155 114.114
L194.073 123.536
L194.99 177.134
L195.907 126.423
L196.824 88.4095
L197.742 114.292
L198.659 98.813
L199.576 76.4122
L200.493 86.199
L201.411 99.8133
L202.328 106.57
L203.245 85.565
L204.162 98.5811
L205.08 84.2902
L205.997 101.116
L206.914 109.578
L207.831 102.159
L208.749 101.392
L209.666 96.2809
L210.583 97.3292
L211.5 87.0653
L212.418 100.046
L213.335 98.3058
L214.252 107.675
L215.169 130.158
L216.087 113.224
L217.004 103.245
L217.921 98.4371
L218.839 116.033
L219.756 120.811
L220.673 119.306
L221.59 139.481
L222.508 126.402
L223.425 120.515
L224.342 123.713
L225.259 125.639
L226.177 146.564
L227.094 156.34
L228.011 131.992
L228.928 140.667
L229.846 113.783
L230.763 113.84
L231.68 129.006
L232.597 111.334
L233.515 115.84
L234.432 115.794
L235.349 117.633
L236.266 116.18
L237.184 116.513
L238.101 120.552
L239.018 123.579
L239.936 123.07
L240.853 119.416
L241.77 121.727
L242.687 117.976
L243.605 116.675
L244.522 107.783
L246.356 112.599
L247.274 123.259
L248.191 122.253
L249.108 127.424
L250.025 134.116
L250.943 126.64
L251.86 138.462
L252.777 120.953
L253.694 130.624
L254.612 131.253
L256.446 124.705
L257.363 124.208
L258.281 126.812
L259.198 124.309
L260.115 147.875
L261.033 131.596
L261.95 133.575
L262.867 124.958
L263.784 118.543
L264.702 102.072
L265.619 109.297
L266.536 131.691
L267.453 135.193
L268.371 119.476
L269.288 118.554
L270.205 114.349
L271.122 140.215
L272.04 127.536
L272.957 100.895
L274.791 113.085
L275.709 117.535
L276.626 134.031
L277.543 114.375
L278.46 118.425
L279.378 124.449
L280.295 116.456
L281.212 111.986
L282.129 98.4674
L283.047 107.496
L283.964 118.261
L284.881 115.138
L285.799 121.313
L286.716 117.732
L287.633 116.422
L288.55 127.914
L289.468 132.609
L290.385 133.798
L291.302 130.252
L292.219 178.598
L293.137 143.508
L294.054 143.708
L294.971 139.508
L295.888 125.346
L296.806 130.156
L297.723 132.361
L298.64 131.08
L299.557 123.756
L300.475 123.567
L301.392 101.905
L302.309 102.929
L303.226 96.6557
L304.144 99.3045
L305.061 103.749
L305.978 103.44
L306.896 116.054
L307.813 121.913
L308.73 123.112
L309.647 123.225
L310.565 169.207
L311.482 145.886
L312.399 154.803
L313.316 158.179
L314.234 131.556
L315.151 119.07
L316.068 141.876
L316.985 167.888
L317.903 133.022
L318.82 202.626
L319.737 212.414
L320.654 193.228
L321.572 197.415
L322.489 157.769
L323.406 173.503
L324.323 200.229
L325.241 159.167
L326.158 143.676
L327.075 135.451
L327.993 163.596
L328.91 148.519
L329.827 157.731
L330.744 148.842
L331.662 165.412
L332.579 151.879
L333.496 163.394
L334.413 182.675
L335.331 213.575
L336.248 192.478
L337.165 194.995
L338.082 187.343
L339 195.562
L339.917 192.988
L340.834 183.825
L341.751 167.503
L342.669 194.771
L343.586 190.381
L344.503 188.346
L345.42 177.187
L346.338 197.837
L347.255 155.354
L348.172 127.065
L349.089 174.705
L350.007 194.705
L350.924 172.963
L351.841 154.288
L352.759 171.258
L353.676 183.064
L354.593 199.771
L355.51 196.891
L356.428 212.936
L357.345 159.414
L358.262 188.807
L359.179 202.315
L360.097 182.597
L361.014 168.639
L361.931 193.029
L362.848 171.67
L363.766 207.029
L364.683 181.265
L365.6 211.194
L366.517 185.73
L367.435 200.357
L368.352 201.9
L369.269 220.111
L370.186 198.822
L371.104 182.816
L372.021 177.961
L372.938 122.726
L373.856 116.237
L374.773 167.963
L375.69 204.317
L376.607 204.804
L377.525 178.04
L378.442 206.465
L379.359 210.987
L380.276 186.519
L381.194 185.047
L382.111 212.619
L382.111 212.619" style="fill:none;stroke:#000000;stroke-linecap:square;"/>
   </g>
   <g id="patch_3">
    <path d="
M48.2281 21.3181
L383.028 21.3181" style="fill:none;stroke:#000000;stroke-linecap:square;stroke-linejoin:miter;"/>
   </g>
   <g id="patch_4">
    <path d="
M383.028 244.518
L383.028 21.3181" style="fill:none;stroke:#000000;stroke-linecap:square;stroke-linejoin:miter;"/>
   </g>
   <g id="patch_5">
    <path d="
M48.2281 244.518
L383.028 244.518" style="fill:none;stroke:#000000;stroke-linecap:square;stroke-linejoin:miter;"/>
   </g>
   <g id="patch_6">
    <path d="
M48.2281 244.518
L48.2281 21.3181" style="fill:none;stroke:#000000;stroke-linecap:square;stroke-linejoin:miter;"/>
   </g>
   <g id="matplotlib.axis_1">
    <g id="xtick_1">
     <g id="line2d_15">
      <defs>
       <path d="
M0 0
L0 -4" id="m93b0483c22" style="stroke:#000000;stroke-width:0.5;"/>
      </defs>
      <g>
       <use style="stroke:#000000;stroke-width:0.5;" x="48.228125" xlink:href="#m93b0483c22" y="244.518125"/>
      </g>
     </g>
     <g id="line2d_16">
      <defs>
       <path d="
M0 0
L0 4" id="m741efc42ff" style="stroke:#000000;stroke-width:0.5;"/>
      </defs>
      <g>
       <use style="stroke:#000000;stroke-width:0.5;" x="48.228125" xlink:href="#m741efc42ff" y="21.318125"/>
      </g>
     </g>
     <g id="text_1">
      <!-- 0 -->
      <defs>
       <path d="
M31.7812 66.4062
Q24.1719 66.4062 20.3281 58.9062
Q16.5 51.4219 16.5 36.375
Q16.5 21.3906 20.3281 13.8906
Q24.1719 6.39062 31.7812 6.39062
Q39.4531 6.39062 43.2812 13.8906
Q47.125 21.3906 47.125 36.375
Q47.125 51.4219 43.2812 58.9062
Q39.4531 66.4062 31.7812 66.4062
M31.7812 74.2188
Q44.0469 74.2188 50.5156 64.5156
Q56.9844 54.8281 56.9844 36.375
Q56.9844 17.9688 50.5156 8.26562
Q44.0469 -1.42188 31.7812 -1.42188
Q19.5312 -1.42188 13.0625 8.26562
Q6.59375 17.9688 6.59375 36.375
Q6.59375 54.8281 13.0625 64.5156
Q19.5312 74.2188 31.7812 74.2188" id="BitstreamVeraSans-Roman-30"/>
      </defs>
      <g transform="translate(45.70859375 256.1165625)scale(0.1 -0.1)">
       <use xlink:href="#BitstreamVeraSans-Roman-30"/>
      </g>
     </g>
    </g>
    <g id="xtick_2">
     <g id="line2d_17">
      <g>
       <use style="stroke:#000000;stroke-width:0.5;" x="94.0911386986" xlink:href="#m93b0483c22" y="244.518125"/>
      </g>
     </g>
     <g id="line2d_18">
      <g>
       <use style="stroke:#000000;stroke-width:0.5;" x="94.0911386986" xlink:href="#m741efc42ff" y="21.318125"/>
      </g>
     </g>
     <g id="text_2">
      <!-- 50 -->
      <defs>
       <path d="
M10.7969 72.9062
L49.5156 72.9062
L49.5156 64.5938
L19.8281 64.5938
L19.8281 46.7344
Q21.9688 47.4688 24.1094 47.8281
Q26.2656 48.1875 28.4219 48.1875
Q40.625 48.1875 47.75 41.5
Q54.8906 34.8125 54.8906 23.3906
Q54.8906 11.625 47.5625 5.09375
Q40.2344 -1.42188 26.9062 -1.42188
Q22.3125 -1.42188 17.5469 -0.640625
Q12.7969 0.140625 7.71875 1.70312
L7.71875 11.625
Q12.1094 9.23438 16.7969 8.0625
Q21.4844 6.89062 26.7031 6.89062
Q35.1562 6.89062 40.0781 11.3281
Q45.0156 15.7656 45.0156 23.3906
Q45.0156 31 40.0781 35.4375
Q35.1562 39.8906 26.7031 39.8906
Q22.75 39.8906 18.8125 39.0156
Q14.8906 38.1406 10.7969 36.2812
z
" id="BitstreamVeraSans-Roman-35"/>
      </defs>
      <g transform="translate(88.4466074486 256.1165625)scale(0.1 -0.1)">
       <use xlink:href="#BitstreamVeraSans-Roman-35"/>
       <use x="63.623046875" xlink:href="#BitstreamVeraSans-Roman-30"/>
      </g>
     </g>
    </g>
    <g id="xtick_3">
     <g id="line2d_19">
      <g>
       <use style="stroke:#000000;stroke-width:0.5;" x="139.954152397" xlink:href="#m93b0483c22" y="244.518125"/>
      </g>
     </g>
     <g id="line2d_20">
      <g>
       <use style="stroke:#000000;stroke-width:0.5;" x="139.954152397" xlink:href="#m741efc42ff" y="21.318125"/>
      </g>
     </g>
     <g id="text_3">
      <!-- 100 -->
      <defs>
       <path d="
M12.4062 8.29688
L28.5156 8.29688
L28.5156 63.9219
L10.9844 60.4062
L10.9844 69.3906
L28.4219 72.9062
L38.2812 72.9062
L38.2812 8.29688
L54.3906 8.29688
L54.3906 0
L12.4062 0
z
" id="BitstreamVeraSans-Roman-31"/>
      </defs>
      <g transform="translate(131.291652397 256.1165625)scale(0.1 -0.1)">
       <use xlink:href="#BitstreamVeraSans-Roman-31"/>
       <use x="63.623046875" xlink:href="#BitstreamVeraSans-Roman-30"/>
       <use x="127.24609375" xlink:href="#BitstreamVeraSans-Roman-30"/>
      </g>
     </g>
    </g>
    <g id="xtick_4">
     <g id="line2d_21">
      <g>
       <use style="stroke:#000000;stroke-width:0.5;" x="185.817166096" xlink:href="#m93b0483c22" y="244.518125"/>
      </g>
     </g>
     <g id="line2d_22">
      <g>
       <use style="stroke:#000000;stroke-width:0.5;" x="185.817166096" xlink:href="#m741efc42ff" y="21.318125"/>
      </g>
     </g>
     <g id="text_4">
      <!-- 150 -->
      <g transform="translate(177.154666096 256.1165625)scale(0.1 -0.1)">
       <use xlink:href="#BitstreamVeraSans-Roman-31"/>
       <use x="63.623046875" xlink:href="#BitstreamVeraSans-Roman-35"/>
       <use x="127.24609375" xlink:href="#BitstreamVeraSans-Roman-30"/>
      </g>
     </g>
    </g>
    <g id="xtick_5">
     <g id="line2d_23">
      <g>
       <use style="stroke:#000000;stroke-width:0.5;" x="231.680179795" xlink:href="#m93b0483c22" y="244.518125"/>
      </g>
     </g>
     <g id="line2d_24">
      <g>
       <use style="stroke:#000000;stroke-width:0.5;" x="231.680179795" xlink:href="#m741efc42ff" y="21.318125"/>
      </g>
     </g>
     <g id="text_5">
      <!-- 200 -->
      <defs>
       <path d="
M19.1875 8.29688
L53.6094 8.29688
L53.6094 0
L7.32812 0
L7.32812 8.29688
Q12.9375 14.1094 22.625 23.8906
Q32.3281 33.6875 34.8125 36.5312
Q39.5469 41.8438 41.4219 45.5312
Q43.3125 49.2188 43.3125 52.7812
Q43.3125 58.5938 39.2344 62.25
Q35.1562 65.9219 28.6094 65.9219
Q23.9688 65.9219 18.8125 64.3125
Q13.6719 62.7031 7.8125 59.4219
L7.8125 69.3906
Q13.7656 71.7812 18.9375 73
Q24.125 74.2188 28.4219 74.2188
Q39.75 74.2188 46.4844 68.5469
Q53.2188 62.8906 53.2188 53.4219
Q53.2188 48.9219 51.5312 44.8906
Q49.8594 40.875 45.4062 35.4062
Q44.1875 33.9844 37.6406 27.2188
Q31.1094 20.4531 19.1875 8.29688" id="BitstreamVeraSans-Roman-32"/>
      </defs>
      <g transform="translate(222.834867295 256.1165625)scale(0.1 -0.1)">
       <use xlink:href="#BitstreamVeraSans-Roman-32"/>
       <use x="63.623046875" xlink:href="#BitstreamVeraSans-Roman-30"/>
       <use x="127.24609375" xlink:href="#BitstreamVeraSans-Roman-30"/>
      </g>
     </g>
    </g>
    <g id="xtick_6">
     <g id="line2d_25">
      <g>
       <use style="stroke:#000000;stroke-width:0.5;" x="277.543193493" xlink:href="#m93b0483c22" y="244.518125"/>
      </g>
     </g>
     <g id="line2d_26">
      <g>
       <use style="stroke:#000000;stroke-width:0.5;" x="277.543193493" xlink:href="#m741efc42ff" y="21.318125"/>
      </g>
     </g>
     <g id="text_6">
      <!-- 250 -->
      <g transform="translate(268.697880993 256.1165625)scale(0.1 -0.1)">
       <use xlink:href="#BitstreamVeraSans-Roman-32"/>
       <use x="63.623046875" xlink:href="#BitstreamVeraSans-Roman-35"/>
       <use x="127.24609375" xlink:href="#BitstreamVeraSans-Roman-30"/>
      </g>
     </g>
    </g>
    <g id="xtick_7">
     <g id="line2d_27">
      <g>
       <use style="stroke:#000000;stroke-width:0.5;" x="323.406207192" xlink:href="#m93b0483c22" y="244.518125"/>
      </g>
     </g>
     <g id="line2d_28">
      <g>
       <use style="stroke:#000000;stroke-width:0.5;" x="323.406207192" xlink:href="#m741efc42ff" y="21.318125"/>
      </g>
     </g>
     <g id="text_7">
      <!-- 300 -->
      <defs>
       <path d="
M40.5781 39.3125
Q47.6562 37.7969 51.625 33
Q55.6094 28.2188 55.6094 21.1875
Q55.6094 10.4062 48.1875 4.48438
Q40.7656 -1.42188 27.0938 -1.42188
Q22.5156 -1.42188 17.6562 -0.515625
Q12.7969 0.390625 7.625 2.20312
L7.625 11.7188
Q11.7188 9.32812 16.5938 8.10938
Q21.4844 6.89062 26.8125 6.89062
Q36.0781 6.89062 40.9375 10.5469
Q45.7969 14.2031 45.7969 21.1875
Q45.7969 27.6406 41.2812 31.2656
Q36.7656 34.9062 28.7188 34.9062
L20.2188 34.9062
L20.2188 43.0156
L29.1094 43.0156
Q36.375 43.0156 40.2344 45.9219
Q44.0938 48.8281 44.0938 54.2969
Q44.0938 59.9062 40.1094 62.9062
Q36.1406 65.9219 28.7188 65.9219
Q24.6562 65.9219 20.0156 65.0312
Q15.375 64.1562 9.8125 62.3125
L9.8125 71.0938
Q15.4375 72.6562 20.3438 73.4375
Q25.25 74.2188 29.5938 74.2188
Q40.8281 74.2188 47.3594 69.1094
Q53.9062 64.0156 53.9062 55.3281
Q53.9062 49.2656 50.4375 45.0938
Q46.9688 40.9219 40.5781 39.3125" id="BitstreamVeraSans-Roman-33"/>
      </defs>
      <g transform="translate(314.575738442 256.1165625)scale(0.1 -0.1)">
       <use xlink:href="#BitstreamVeraSans-Roman-33"/>
       <use x="63.623046875" xlink:href="#BitstreamVeraSans-Roman-30"/>
       <use x="127.24609375" xlink:href="#BitstreamVeraSans-Roman-30"/>
      </g>
     </g>
    </g>
    <g id="xtick_8">
     <g id="line2d_29">
      <g>
       <use style="stroke:#000000;stroke-width:0.5;" x="369.26922089" xlink:href="#m93b0483c22" y="244.518125"/>
      </g>
     </g>
     <g id="line2d_30">
      <g>
       <use style="stroke:#000000;stroke-width:0.5;" x="369.26922089" xlink:href="#m741efc42ff" y="21.318125"/>
      </g>
     </g>
     <g id="text_8">
      <!-- 350 -->
      <g transform="translate(360.43875214 256.1165625)scale(0.1 -0.1)">
       <use xlink:href="#BitstreamVeraSans-Roman-33"/>
       <use x="63.623046875" xlink:href="#BitstreamVeraSans-Roman-35"/>
       <use x="127.24609375" xlink:href="#BitstreamVeraSans-Roman-30"/>
      </g>
     </g>
    </g>
    <g id="text_9">
     <!-- Julian day -->
     <defs>
      <path id="BitstreamVeraSans-Roman-20"/>
      <path d="
M9.8125 72.9062
L19.6719 72.9062
L19.6719 5.07812
Q19.6719 -8.10938 14.6719 -14.0625
Q9.67188 -20.0156 -1.42188 -20.0156
L-5.17188 -20.0156
L-5.17188 -11.7188
L-2.09375 -11.7188
Q4.4375 -11.7188 7.125 -8.04688
Q9.8125 -4.39062 9.8125 5.07812
z
" id="BitstreamVeraSans-Roman-4a"/>
      <path d="
M54.8906 33.0156
L54.8906 0
L45.9062 0
L45.9062 32.7188
Q45.9062 40.4844 42.875 44.3281
Q39.8438 48.1875 33.7969 48.1875
Q26.5156 48.1875 22.3125 43.5469
Q18.1094 38.9219 18.1094 30.9062
L18.1094 0
L9.07812 0
L9.07812 54.6875
L18.1094 54.6875
L18.1094 46.1875
Q21.3438 51.125 25.7031 53.5625
Q30.0781 56 35.7969 56
Q45.2188 56 50.0469 50.1719
Q54.8906 44.3438 54.8906 33.0156" id="BitstreamVeraSans-Roman-6e"/>
      <path d="
M9.42188 75.9844
L18.4062 75.9844
L18.4062 0
L9.42188 0
z
" id="BitstreamVeraSans-Roman-6c"/>
      <path d="
M9.42188 54.6875
L18.4062 54.6875
L18.4062 0
L9.42188 0
z

M9.42188 75.9844
L18.4062 75.9844
L18.4062 64.5938
L9.42188 64.5938
z
" id="BitstreamVeraSans-Roman-69"/>
      <path d="
M32.1719 -5.07812
Q28.375 -14.8438 24.75 -17.8125
Q21.1406 -20.7969 15.0938 -20.7969
L7.90625 -20.7969
L7.90625 -13.2812
L13.1875 -13.2812
Q16.8906 -13.2812 18.9375 -11.5156
Q21 -9.76562 23.4844 -3.21875
L25.0938 0.875
L2.98438 54.6875
L12.5 54.6875
L29.5938 11.9219
L46.6875 54.6875
L56.2031 54.6875
z
" id="BitstreamVeraSans-Roman-79"/>
      <path d="
M45.4062 46.3906
L45.4062 75.9844
L54.3906 75.9844
L54.3906 0
L45.4062 0
L45.4062 8.20312
Q42.5781 3.32812 38.25 0.953125
Q33.9375 -1.42188 27.875 -1.42188
Q17.9688 -1.42188 11.7344 6.48438
Q5.51562 14.4062 5.51562 27.2969
Q5.51562 40.1875 11.7344 48.0938
Q17.9688 56 27.875 56
Q33.9375 56 38.25 53.625
Q42.5781 51.2656 45.4062 46.3906
M14.7969 27.2969
Q14.7969 17.3906 18.875 11.75
Q22.9531 6.10938 30.0781 6.10938
Q37.2031 6.10938 41.2969 11.75
Q45.4062 17.3906 45.4062 27.2969
Q45.4062 37.2031 41.2969 42.8438
Q37.2031 48.4844 30.0781 48.4844
Q22.9531 48.4844 18.875 42.8438
Q14.7969 37.2031 14.7969 27.2969" id="BitstreamVeraSans-Roman-64"/>
      <path d="
M8.5 21.5781
L8.5 54.6875
L17.4844 54.6875
L17.4844 21.9219
Q17.4844 14.1562 20.5 10.2656
Q23.5312 6.39062 29.5938 6.39062
Q36.8594 6.39062 41.0781 11.0312
Q45.3125 15.6719 45.3125 23.6875
L45.3125 54.6875
L54.2969 54.6875
L54.2969 0
L45.3125 0
L45.3125 8.40625
Q42.0469 3.42188 37.7188 1
Q33.4062 -1.42188 27.6875 -1.42188
Q18.2656 -1.42188 13.375 4.4375
Q8.5 10.2969 8.5 21.5781" id="BitstreamVeraSans-Roman-75"/>
      <path d="
M34.2812 27.4844
Q23.3906 27.4844 19.1875 25
Q14.9844 22.5156 14.9844 16.5
Q14.9844 11.7188 18.1406 8.90625
Q21.2969 6.10938 26.7031 6.10938
Q34.1875 6.10938 38.7031 11.4062
Q43.2188 16.7031 43.2188 25.4844
L43.2188 27.4844
z

M52.2031 31.2031
L52.2031 0
L43.2188 0
L43.2188 8.29688
Q40.1406 3.32812 35.5469 0.953125
Q30.9531 -1.42188 24.3125 -1.42188
Q15.9219 -1.42188 10.9531 3.29688
Q6 8.01562 6 15.9219
Q6 25.1406 12.1719 29.8281
Q18.3594 34.5156 30.6094 34.5156
L43.2188 34.5156
L43.2188 35.4062
Q43.2188 41.6094 39.1406 45
Q35.0625 48.3906 27.6875 48.3906
Q23 48.3906 18.5469 47.2656
Q14.1094 46.1406 10.0156 43.8906
L10.0156 52.2031
Q14.9375 54.1094 19.5781 55.0469
Q24.2188 56 28.6094 56
Q40.4844 56 46.3438 49.8438
Q52.2031 43.7031 52.2031 31.2031" id="BitstreamVeraSans-Roman-61"/>
     </defs>
     <g transform="translate(191.07734375 270.7946875)scale(0.1 -0.1)">
      <use xlink:href="#BitstreamVeraSans-Roman-4a"/>
      <use x="29.4921875" xlink:href="#BitstreamVeraSans-Roman-75"/>
      <use x="92.87109375" xlink:href="#BitstreamVeraSans-Roman-6c"/>
      <use x="120.654296875" xlink:href="#BitstreamVeraSans-Roman-69"/>
      <use x="148.4375" xlink:href="#BitstreamVeraSans-Roman-61"/>
      <use x="209.716796875" xlink:href="#BitstreamVeraSans-Roman-6e"/>
      <use x="273.095703125" xlink:href="#BitstreamVeraSans-Roman-20"/>
      <use x="304.8828125" xlink:href="#BitstreamVeraSans-Roman-64"/>
      <use x="368.359375" xlink:href="#BitstreamVeraSans-Roman-61"/>
      <use x="429.638671875" xlink:href="#BitstreamVeraSans-Roman-79"/>
     </g>
    </g>
   </g>
   <g id="matplotlib.axis_2">
    <g id="ytick_1">
     <g id="line2d_31">
      <defs>
       <path d="
M0 0
L4 0" id="m728421d6d4" style="stroke:#000000;stroke-width:0.5;"/>
      </defs>
      <g>
       <use style="stroke:#000000;stroke-width:0.5;" x="48.228125" xlink:href="#m728421d6d4" y="244.518125"/>
      </g>
     </g>
     <g id="line2d_32">
      <defs>
       <path d="
M0 0
L-4 0" id="mcb0005524f" style="stroke:#000000;stroke-width:0.5;"/>
      </defs>
      <g>
       <use style="stroke:#000000;stroke-width:0.5;" x="383.028125" xlink:href="#mcb0005524f" y="244.518125"/>
      </g>
     </g>
     <g id="text_10">
      <!-- −0.5 -->
      <defs>
       <path d="
M10.5938 35.5
L73.1875 35.5
L73.1875 27.2031
L10.5938 27.2031
z
" id="BitstreamVeraSans-Roman-2212"/>
       <path d="
M10.6875 12.4062
L21 12.4062
L21 0
L10.6875 0
z
" id="BitstreamVeraSans-Roman-2e"/>
      </defs>
      <g transform="translate(21.878125 247.2775)scale(0.1 -0.1)">
       <use xlink:href="#BitstreamVeraSans-Roman-2212"/>
       <use x="83.7890625" xlink:href="#BitstreamVeraSans-Roman-30"/>
       <use x="147.412109375" xlink:href="#BitstreamVeraSans-Roman-2e"/>
       <use x="179.19921875" xlink:href="#BitstreamVeraSans-Roman-35"/>
      </g>
     </g>
    </g>
    <g id="ytick_2">
     <g id="line2d_33">
      <g>
       <use style="stroke:#000000;stroke-width:0.5;" x="48.228125" xlink:href="#m728421d6d4" y="219.718125"/>
      </g>
     </g>
     <g id="line2d_34">
      <g>
       <use style="stroke:#000000;stroke-width:0.5;" x="383.028125" xlink:href="#mcb0005524f" y="219.718125"/>
      </g>
     </g>
     <g id="text_11">
      <!-- 0.0 -->
      <g transform="translate(29.6484375 222.4775)scale(0.1 -0.1)">
       <use xlink:href="#BitstreamVeraSans-Roman-30"/>
       <use x="63.623046875" xlink:href="#BitstreamVeraSans-Roman-2e"/>
       <use x="95.41015625" xlink:href="#BitstreamVeraSans-Roman-30"/>
      </g>
     </g>
    </g>
    <g id="ytick_3">
     <g id="line2d_35">
      <g>
       <use style="stroke:#000000;stroke-width:0.5;" x="48.228125" xlink:href="#m728421d6d4" y="194.918125"/>
      </g>
     </g>
     <g id="line2d_36">
      <g>
       <use style="stroke:#000000;stroke-width:0.5;" x="383.028125" xlink:href="#mcb0005524f" y="194.918125"/>
      </g>
     </g>
     <g id="text_12">
      <!-- 0.5 -->
      <g transform="translate(29.8578125 197.6775)scale(0.1 -0.1)">
       <use xlink:href="#BitstreamVeraSans-Roman-30"/>
       <use x="63.623046875" xlink:href="#BitstreamVeraSans-Roman-2e"/>
       <use x="95.41015625" xlink:href="#BitstreamVeraSans-Roman-35"/>
      </g>
     </g>
    </g>
    <g id="ytick_4">
     <g id="line2d_37">
      <g>
       <use style="stroke:#000000;stroke-width:0.5;" x="48.228125" xlink:href="#m728421d6d4" y="170.118125"/>
      </g>
     </g>
     <g id="line2d_38">
      <g>
       <use style="stroke:#000000;stroke-width:0.5;" x="383.028125" xlink:href="#mcb0005524f" y="170.118125"/>
      </g>
     </g>
     <g id="text_13">
      <!-- 1.0 -->
      <g transform="translate(30.0875 172.8775)scale(0.1 -0.1)">
       <use xlink:href="#BitstreamVeraSans-Roman-31"/>
       <use x="63.623046875" xlink:href="#BitstreamVeraSans-Roman-2e"/>
       <use x="95.41015625" xlink:href="#BitstreamVeraSans-Roman-30"/>
      </g>
     </g>
    </g>
    <g id="ytick_5">
     <g id="line2d_39">
      <g>
       <use style="stroke:#000000;stroke-width:0.5;" x="48.228125" xlink:href="#m728421d6d4" y="145.318125"/>
      </g>
     </g>
     <g id="line2d_40">
      <g>
       <use style="stroke:#000000;stroke-width:0.5;" x="383.028125" xlink:href="#mcb0005524f" y="145.318125"/>
      </g>
     </g>
     <g id="text_14">
      <!-- 1.5 -->
      <g transform="translate(30.296875 148.0775)scale(0.1 -0.1)">
       <use xlink:href="#BitstreamVeraSans-Roman-31"/>
       <use x="63.623046875" xlink:href="#BitstreamVeraSans-Roman-2e"/>
       <use x="95.41015625" xlink:href="#BitstreamVeraSans-Roman-35"/>
      </g>
     </g>
    </g>
    <g id="ytick_6">
     <g id="line2d_41">
      <g>
       <use style="stroke:#000000;stroke-width:0.5;" x="48.228125" xlink:href="#m728421d6d4" y="120.518125"/>
      </g>
     </g>
     <g id="line2d_42">
      <g>
       <use style="stroke:#000000;stroke-width:0.5;" x="383.028125" xlink:href="#mcb0005524f" y="120.518125"/>
      </g>
     </g>
     <g id="text_15">
      <!-- 2.0 -->
      <g transform="translate(29.721875 123.2775)scale(0.1 -0.1)">
       <use xlink:href="#BitstreamVeraSans-Roman-32"/>
       <use x="63.623046875" xlink:href="#BitstreamVeraSans-Roman-2e"/>
       <use x="95.41015625" xlink:href="#BitstreamVeraSans-Roman-30"/>
      </g>
     </g>
    </g>
    <g id="ytick_7">
     <g id="line2d_43">
      <g>
       <use style="stroke:#000000;stroke-width:0.5;" x="48.228125" xlink:href="#m728421d6d4" y="95.718125"/>
      </g>
     </g>
     <g id="line2d_44">
      <g>
       <use style="stroke:#000000;stroke-width:0.5;" x="383.028125" xlink:href="#mcb0005524f" y="95.718125"/>
      </g>
     </g>
     <g id="text_16">
      <!-- 2.5 -->
      <g transform="translate(29.93125 98.4775)scale(0.1 -0.1)">
       <use xlink:href="#BitstreamVeraSans-Roman-32"/>
       <use x="63.623046875" xlink:href="#BitstreamVeraSans-Roman-2e"/>
       <use x="95.41015625" xlink:href="#BitstreamVeraSans-Roman-35"/>
      </g>
     </g>
    </g>
    <g id="ytick_8">
     <g id="line2d_45">
      <g>
       <use style="stroke:#000000;stroke-width:0.5;" x="48.228125" xlink:href="#m728421d6d4" y="70.918125"/>
      </g>
     </g>
     <g id="line2d_46">
      <g>
       <use style="stroke:#000000;stroke-width:0.5;" x="383.028125" xlink:href="#mcb0005524f" y="70.918125"/>
      </g>
     </g>
     <g id="text_17">
      <!-- 3.0 -->
      <g transform="translate(29.7515625 73.6775)scale(0.1 -0.1)">
       <use xlink:href="#BitstreamVeraSans-Roman-33"/>
       <use x="63.623046875" xlink:href="#BitstreamVeraSans-Roman-2e"/>
       <use x="95.41015625" xlink:href="#BitstreamVeraSans-Roman-30"/>
      </g>
     </g>
    </g>
    <g id="ytick_9">
     <g id="line2d_47">
      <g>
       <use style="stroke:#000000;stroke-width:0.5;" x="48.228125" xlink:href="#m728421d6d4" y="46.118125"/>
      </g>
     </g>
     <g id="line2d_48">
      <g>
       <use style="stroke:#000000;stroke-width:0.5;" x="383.028125" xlink:href="#mcb0005524f" y="46.118125"/>
      </g>
     </g>
     <g id="text_18">
      <!-- 3.5 -->
      <g transform="translate(29.9609375 48.8775)scale(0.1 -0.1)">
       <use xlink:href="#BitstreamVeraSans-Roman-33"/>
       <use x="63.623046875" xlink:href="#BitstreamVeraSans-Roman-2e"/>
       <use x="95.41015625" xlink:href="#BitstreamVeraSans-Roman-35"/>
      </g>
     </g>
    </g>
    <g id="ytick_10">
     <g id="line2d_49">
      <g>
       <use style="stroke:#000000;stroke-width:0.5;" x="48.228125" xlink:href="#m728421d6d4" y="21.318125"/>
      </g>
     </g>
     <g id="line2d_50">
      <g>
       <use style="stroke:#000000;stroke-width:0.5;" x="383.028125" xlink:href="#mcb0005524f" y="21.318125"/>
      </g>
     </g>
     <g id="text_19">
      <!-- 4.0 -->
      <defs>
       <path d="
M37.7969 64.3125
L12.8906 25.3906
L37.7969 25.3906
z

M35.2031 72.9062
L47.6094 72.9062
L47.6094 25.3906
L58.0156 25.3906
L58.0156 17.1875
L47.6094 17.1875
L47.6094 0
L37.7969 0
L37.7969 17.1875
L4.89062 17.1875
L4.89062 26.7031
z
" id="BitstreamVeraSans-Roman-34"/>
      </defs>
      <g transform="translate(29.478125 24.0775)scale(0.1 -0.1)">
       <use xlink:href="#BitstreamVeraSans-Roman-34"/>
       <use x="63.623046875" xlink:href="#BitstreamVeraSans-Roman-2e"/>
       <use x="95.41015625" xlink:href="#BitstreamVeraSans-Roman-30"/>
      </g>
     </g>
    </g>
    <g id="text_20">
     <!-- PET (mm/day) -->
     <defs>
      <path d="
M52 44.1875
Q55.375 50.25 60.0625 53.125
Q64.75 56 71.0938 56
Q79.6406 56 84.2812 50.0156
Q88.9219 44.0469 88.9219 33.0156
L88.9219 0
L79.8906 0
L79.8906 32.7188
Q79.8906 40.5781 77.0938 44.375
Q74.3125 48.1875 68.6094 48.1875
Q61.625 48.1875 57.5625 43.5469
Q53.5156 38.9219 53.5156 30.9062
L53.5156 0
L44.4844 0
L44.4844 32.7188
Q44.4844 40.625 41.7031 44.4062
Q38.9219 48.1875 33.1094 48.1875
Q26.2188 48.1875 22.1562 43.5312
Q18.1094 38.875 18.1094 30.9062
L18.1094 0
L9.07812 0
L9.07812 54.6875
L18.1094 54.6875
L18.1094 46.1875
Q21.1875 51.2188 25.4844 53.6094
Q29.7812 56 35.6875 56
Q41.6562 56 45.8281 52.9688
Q50 49.9531 52 44.1875" id="BitstreamVeraSans-Roman-6d"/>
      <path d="
M8.01562 75.875
L15.8281 75.875
Q23.1406 64.3594 26.7812 53.3125
Q30.4219 42.2812 30.4219 31.3906
Q30.4219 20.4531 26.7812 9.375
Q23.1406 -1.70312 15.8281 -13.1875
L8.01562 -13.1875
Q14.5 -2 17.7031 9.0625
Q20.9062 20.125 20.9062 31.3906
Q20.9062 42.6719 17.7031 53.6562
Q14.5 64.6562 8.01562 75.875" id="BitstreamVeraSans-Roman-29"/>
      <path d="
M31 75.875
Q24.4688 64.6562 21.2812 53.6562
Q18.1094 42.6719 18.1094 31.3906
Q18.1094 20.125 21.3125 9.0625
Q24.5156 -2 31 -13.1875
L23.1875 -13.1875
Q15.875 -1.70312 12.2344 9.375
Q8.59375 20.4531 8.59375 31.3906
Q8.59375 42.2812 12.2031 53.3125
Q15.8281 64.3594 23.1875 75.875
z
" id="BitstreamVeraSans-Roman-28"/>
      <path d="
M19.6719 64.7969
L19.6719 37.4062
L32.0781 37.4062
Q38.9688 37.4062 42.7188 40.9688
Q46.4844 44.5312 46.4844 51.125
Q46.4844 57.6719 42.7188 61.2344
Q38.9688 64.7969 32.0781 64.7969
z

M9.8125 72.9062
L32.0781 72.9062
Q44.3438 72.9062 50.6094 67.3594
Q56.8906 61.8125 56.8906 51.125
Q56.8906 40.3281 50.6094 34.8125
Q44.3438 29.2969 32.0781 29.2969
L19.6719 29.2969
L19.6719 0
L9.8125 0
z
" id="BitstreamVeraSans-Roman-50"/>
      <path d="
M9.8125 72.9062
L55.9062 72.9062
L55.9062 64.5938
L19.6719 64.5938
L19.6719 43.0156
L54.3906 43.0156
L54.3906 34.7188
L19.6719 34.7188
L19.6719 8.29688
L56.7812 8.29688
L56.7812 0
L9.8125 0
z
" id="BitstreamVeraSans-Roman-45"/>
      <path d="
M-0.296875 72.9062
L61.375 72.9062
L61.375 64.5938
L35.5 64.5938
L35.5 0
L25.5938 0
L25.5938 64.5938
L-0.296875 64.5938
z
" id="BitstreamVeraSans-Roman-54"/>
      <path d="
M25.3906 72.9062
L33.6875 72.9062
L8.29688 -9.28125
L0 -9.28125
z
" id="BitstreamVeraSans-Roman-2f"/>
     </defs>
     <g transform="translate(14.7984375 167.82984375)rotate(-90.0)scale(0.1 -0.1)">
      <use xlink:href="#BitstreamVeraSans-Roman-50"/>
      <use x="60.302734375" xlink:href="#BitstreamVeraSans-Roman-45"/>
      <use x="123.486328125" xlink:href="#BitstreamVeraSans-Roman-54"/>
      <use x="184.5703125" xlink:href="#BitstreamVeraSans-Roman-20"/>
      <use x="216.357421875" xlink:href="#BitstreamVeraSans-Roman-28"/>
      <use x="255.37109375" xlink:href="#BitstreamVeraSans-Roman-6d"/>
      <use x="352.783203125" xlink:href="#BitstreamVeraSans-Roman-6d"/>
      <use x="450.1953125" xlink:href="#BitstreamVeraSans-Roman-2f"/>
      <use x="483.88671875" xlink:href="#BitstreamVeraSans-Roman-64"/>
      <use x="547.36328125" xlink:href="#BitstreamVeraSans-Roman-61"/>
      <use x="608.642578125" xlink:href="#BitstreamVeraSans-Roman-79"/>
      <use x="667.822265625" xlink:href="#BitstreamVeraSans-Roman-29"/>
     </g>
    </g>
   </g>
   <g id="text_21">
    <!-- daily grass PET at Treeline -->
    <defs>
     <path d="
M18.3125 70.2188
L18.3125 54.6875
L36.8125 54.6875
L36.8125 47.7031
L18.3125 47.7031
L18.3125 18.0156
Q18.3125 11.3281 20.1406 9.42188
Q21.9688 7.51562 27.5938 7.51562
L36.8125 7.51562
L36.8125 0
L27.5938 0
Q17.1875 0 13.2344 3.875
Q9.28125 7.76562 9.28125 18.0156
L9.28125 47.7031
L2.6875 47.7031
L2.6875 54.6875
L9.28125 54.6875
L9.28125 70.2188
z
" id="BitstreamVeraSans-Roman-74"/>
     <path d="
M56.2031 29.5938
L56.2031 25.2031
L14.8906 25.2031
Q15.4844 15.9219 20.4844 11.0625
Q25.4844 6.20312 34.4219 6.20312
Q39.5938 6.20312 44.4531 7.46875
Q49.3125 8.73438 54.1094 11.2812
L54.1094 2.78125
Q49.2656 0.734375 44.1875 -0.34375
Q39.1094 -1.42188 33.8906 -1.42188
Q20.7969 -1.42188 13.1562 6.1875
Q5.51562 13.8125 5.51562 26.8125
Q5.51562 40.2344 12.7656 48.1094
Q20.0156 56 32.3281 56
Q43.3594 56 49.7812 48.8906
Q56.2031 41.7969 56.2031 29.5938
M47.2188 32.2344
Q47.125 39.5938 43.0938 43.9844
Q39.0625 48.3906 32.4219 48.3906
Q24.9062 48.3906 20.3906 44.1406
Q15.875 39.8906 15.1875 32.1719
z
" id="BitstreamVeraSans-Roman-65"/>
     <path d="
M45.4062 27.9844
Q45.4062 37.75 41.375 43.1094
Q37.3594 48.4844 30.0781 48.4844
Q22.8594 48.4844 18.8281 43.1094
Q14.7969 37.75 14.7969 27.9844
Q14.7969 18.2656 18.8281 12.8906
Q22.8594 7.51562 30.0781 7.51562
Q37.3594 7.51562 41.375 12.8906
Q45.4062 18.2656 45.4062 27.9844
M54.3906 6.78125
Q54.3906 -7.17188 48.1875 -13.9844
Q42 -20.7969 29.2031 -20.7969
Q24.4688 -20.7969 20.2656 -20.0938
Q16.0625 -19.3906 12.1094 -17.9219
L12.1094 -9.1875
Q16.0625 -11.3281 19.9219 -12.3438
Q23.7812 -13.375 27.7812 -13.375
Q36.625 -13.375 41.0156 -8.76562
Q45.4062 -4.15625 45.4062 5.17188
L45.4062 9.625
Q42.625 4.78125 38.2812 2.39062
Q33.9375 0 27.875 0
Q17.8281 0 11.6719 7.65625
Q5.51562 15.3281 5.51562 27.9844
Q5.51562 40.6719 11.6719 48.3281
Q17.8281 56 27.875 56
Q33.9375 56 38.2812 53.6094
Q42.625 51.2188 45.4062 46.3906
L45.4062 54.6875
L54.3906 54.6875
z
" id="BitstreamVeraSans-Roman-67"/>
     <path d="
M41.1094 46.2969
Q39.5938 47.1719 37.8125 47.5781
Q36.0312 48 33.8906 48
Q26.2656 48 22.1875 43.0469
Q18.1094 38.0938 18.1094 28.8125
L18.1094 0
L9.07812 0
L9.07812 54.6875
L18.1094 54.6875
L18.1094 46.1875
Q20.9531 51.1719 25.4844 53.5781
Q30.0312 56 36.5312 56
Q37.4531 56 38.5781 55.875
Q39.7031 55.7656 41.0625 55.5156
z
" id="BitstreamVeraSans-Roman-72"/>
     <path d="
M44.2812 53.0781
L44.2812 44.5781
Q40.4844 46.5312 36.375 47.5
Q32.2812 48.4844 27.875 48.4844
Q21.1875 48.4844 17.8438 46.4375
Q14.5 44.3906 14.5 40.2812
Q14.5 37.1562 16.8906 35.375
Q19.2812 33.5938 26.5156 31.9844
L29.5938 31.2969
Q39.1562 29.25 43.1875 25.5156
Q47.2188 21.7812 47.2188 15.0938
Q47.2188 7.46875 41.1875 3.01562
Q35.1562 -1.42188 24.6094 -1.42188
Q20.2188 -1.42188 15.4531 -0.5625
Q10.6875 0.296875 5.42188 2
L5.42188 11.2812
Q10.4062 8.6875 15.2344 7.39062
Q20.0625 6.10938 24.8125 6.10938
Q31.1562 6.10938 34.5625 8.28125
Q37.9844 10.4531 37.9844 14.4062
Q37.9844 18.0625 35.5156 20.0156
Q33.0625 21.9688 24.7031 23.7812
L21.5781 24.5156
Q13.2344 26.2656 9.51562 29.9062
Q5.8125 33.5469 5.8125 39.8906
Q5.8125 47.6094 11.2812 51.7969
Q16.75 56 26.8125 56
Q31.7812 56 36.1719 55.2656
Q40.5781 54.5469 44.2812 53.0781" id="BitstreamVeraSans-Roman-73"/>
    </defs>
    <g transform="translate(137.3196875 16.318125)scale(0.12 -0.12)">
     <use xlink:href="#BitstreamVeraSans-Roman-64"/>
     <use x="63.4765625" xlink:href="#BitstreamVeraSans-Roman-61"/>
     <use x="124.755859375" xlink:href="#BitstreamVeraSans-Roman-69"/>
     <use x="152.5390625" xlink:href="#BitstreamVeraSans-Roman-6c"/>
     <use x="180.322265625" xlink:href="#BitstreamVeraSans-Roman-79"/>
     <use x="239.501953125" xlink:href="#BitstreamVeraSans-Roman-20"/>
     <use x="271.2890625" xlink:href="#BitstreamVeraSans-Roman-67"/>
     <use x="334.765625" xlink:href="#BitstreamVeraSans-Roman-72"/>
     <use x="375.87890625" xlink:href="#BitstreamVeraSans-Roman-61"/>
     <use x="437.158203125" xlink:href="#BitstreamVeraSans-Roman-73"/>
     <use x="489.2578125" xlink:href="#BitstreamVeraSans-Roman-73"/>
     <use x="541.357421875" xlink:href="#BitstreamVeraSans-Roman-20"/>
     <use x="573.14453125" xlink:href="#BitstreamVeraSans-Roman-50"/>
     <use x="633.447265625" xlink:href="#BitstreamVeraSans-Roman-45"/>
     <use x="696.630859375" xlink:href="#BitstreamVeraSans-Roman-54"/>
     <use x="757.71484375" xlink:href="#BitstreamVeraSans-Roman-20"/>
     <use x="789.501953125" xlink:href="#BitstreamVeraSans-Roman-61"/>
     <use x="850.78125" xlink:href="#BitstreamVeraSans-Roman-74"/>
     <use x="889.990234375" xlink:href="#BitstreamVeraSans-Roman-20"/>
     <use x="921.77734375" xlink:href="#BitstreamVeraSans-Roman-54"/>
     <use x="968.111328125" xlink:href="#BitstreamVeraSans-Roman-72"/>
     <use x="1006.97460938" xlink:href="#BitstreamVeraSans-Roman-65"/>
     <use x="1068.49804688" xlink:href="#BitstreamVeraSans-Roman-65"/>
     <use x="1130.02148438" xlink:href="#BitstreamVeraSans-Roman-6c"/>
     <use x="1157.8046875" xlink:href="#BitstreamVeraSans-Roman-69"/>
     <use x="1185.58789062" xlink:href="#BitstreamVeraSans-Roman-6e"/>
     <use x="1248.96679688" xlink:href="#BitstreamVeraSans-Roman-65"/>
    </g>
   </g>
   <g id="legend_1">
    <g id="patch_7">
     <path d="
M304.841 277.511
L377.028 277.511
L377.028 27.3181
L304.841 27.3181
z
" style="fill:#ffffff;stroke:#000000;stroke-linejoin:miter;"/>
    </g>
    <g id="line2d_51">
     <path d="
M313.241 37.0362
L330.041 37.0362" style="fill:none;stroke:#0000ff;stroke-linecap:square;"/>
    </g>
    <g id="line2d_52"/>
    <g id="text_22">
     <!-- 1999 -->
     <defs>
      <path d="
M10.9844 1.51562
L10.9844 10.5
Q14.7031 8.73438 18.5 7.8125
Q22.3125 6.89062 25.9844 6.89062
Q35.75 6.89062 40.8906 13.4531
Q46.0469 20.0156 46.7812 33.4062
Q43.9531 29.2031 39.5938 26.9531
Q35.25 24.7031 29.9844 24.7031
Q19.0469 24.7031 12.6719 31.3125
Q6.29688 37.9375 6.29688 49.4219
Q6.29688 60.6406 12.9375 67.4219
Q19.5781 74.2188 30.6094 74.2188
Q43.2656 74.2188 49.9219 64.5156
Q56.5938 54.8281 56.5938 36.375
Q56.5938 19.1406 48.4062 8.85938
Q40.2344 -1.42188 26.4219 -1.42188
Q22.7031 -1.42188 18.8906 -0.6875
Q15.0938 0.046875 10.9844 1.51562
M30.6094 32.4219
Q37.25 32.4219 41.125 36.9531
Q45.0156 41.5 45.0156 49.4219
Q45.0156 57.2812 41.125 61.8438
Q37.25 66.4062 30.6094 66.4062
Q23.9688 66.4062 20.0938 61.8438
Q16.2188 57.2812 16.2188 49.4219
Q16.2188 41.5 20.0938 36.9531
Q23.9688 32.4219 30.6094 32.4219" id="BitstreamVeraSans-Roman-39"/>
     </defs>
     <g transform="translate(343.240625 41.23625)scale(0.12 -0.12)">
      <use xlink:href="#BitstreamVeraSans-Roman-31"/>
      <use x="63.623046875" xlink:href="#BitstreamVeraSans-Roman-39"/>
      <use x="127.24609375" xlink:href="#BitstreamVeraSans-Roman-39"/>
      <use x="190.869140625" xlink:href="#BitstreamVeraSans-Roman-39"/>
     </g>
    </g>
    <g id="line2d_53">
     <path d="
M313.241 54.65
L330.041 54.65" style="fill:none;stroke:#008000;stroke-linecap:square;"/>
    </g>
    <g id="line2d_54"/>
    <g id="text_23">
     <!-- 2000 -->
     <g transform="translate(343.240625 58.85)scale(0.12 -0.12)">
      <use xlink:href="#BitstreamVeraSans-Roman-32"/>
      <use x="63.623046875" xlink:href="#BitstreamVeraSans-Roman-30"/>
      <use x="127.24609375" xlink:href="#BitstreamVeraSans-Roman-30"/>
      <use x="190.869140625" xlink:href="#BitstreamVeraSans-Roman-30"/>
     </g>
    </g>
    <g id="line2d_55">
     <path d="
M313.241 72.2638
L330.041 72.2638" style="fill:none;stroke:#ff0000;stroke-linecap:square;"/>
    </g>
    <g id="line2d_56"/>
    <g id="text_24">
     <!-- 2001 -->
     <g transform="translate(343.240625 76.46375)scale(0.12 -0.12)">
      <use xlink:href="#BitstreamVeraSans-Roman-32"/>
      <use x="63.623046875" xlink:href="#BitstreamVeraSans-Roman-30"/>
      <use x="127.24609375" xlink:href="#BitstreamVeraSans-Roman-30"/>
      <use x="190.869140625" xlink:href="#BitstreamVeraSans-Roman-31"/>
     </g>
    </g>
    <g id="line2d_57">
     <path d="
M313.241 89.8775
L330.041 89.8775" style="fill:none;stroke:#00bfbf;stroke-linecap:square;"/>
    </g>
    <g id="line2d_58"/>
    <g id="text_25">
     <!-- 2002 -->
     <g transform="translate(343.240625 94.0775)scale(0.12 -0.12)">
      <use xlink:href="#BitstreamVeraSans-Roman-32"/>
      <use x="63.623046875" xlink:href="#BitstreamVeraSans-Roman-30"/>
      <use x="127.24609375" xlink:href="#BitstreamVeraSans-Roman-30"/>
      <use x="190.869140625" xlink:href="#BitstreamVeraSans-Roman-32"/>
     </g>
    </g>
    <g id="line2d_59">
     <path d="
M313.241 107.491
L330.041 107.491" style="fill:none;stroke:#bf00bf;stroke-linecap:square;"/>
    </g>
    <g id="line2d_60"/>
    <g id="text_26">
     <!-- 2003 -->
     <g transform="translate(343.240625 111.69125)scale(0.12 -0.12)">
      <use xlink:href="#BitstreamVeraSans-Roman-32"/>
      <use x="63.623046875" xlink:href="#BitstreamVeraSans-Roman-30"/>
      <use x="127.24609375" xlink:href="#BitstreamVeraSans-Roman-30"/>
      <use x="190.869140625" xlink:href="#BitstreamVeraSans-Roman-33"/>
     </g>
    </g>
    <g id="line2d_61">
     <path d="
M313.241 125.105
L330.041 125.105" style="fill:none;stroke:#bfbf00;stroke-linecap:square;"/>
    </g>
    <g id="line2d_62"/>
    <g id="text_27">
     <!-- 2004 -->
     <g transform="translate(343.240625 129.305)scale(0.12 -0.12)">
      <use xlink:href="#BitstreamVeraSans-Roman-32"/>
      <use x="63.623046875" xlink:href="#BitstreamVeraSans-Roman-30"/>
      <use x="127.24609375" xlink:href="#BitstreamVeraSans-Roman-30"/>
      <use x="190.869140625" xlink:href="#BitstreamVeraSans-Roman-34"/>
     </g>
    </g>
    <g id="line2d_63">
     <path d="
M313.241 142.719
L330.041 142.719" style="fill:none;stroke:#000000;stroke-linecap:square;"/>
    </g>
    <g id="line2d_64"/>
    <g id="text_28">
     <!-- 2005 -->
     <g transform="translate(343.240625 146.91875)scale(0.12 -0.12)">
      <use xlink:href="#BitstreamVeraSans-Roman-32"/>
      <use x="63.623046875" xlink:href="#BitstreamVeraSans-Roman-30"/>
      <use x="127.24609375" xlink:href="#BitstreamVeraSans-Roman-30"/>
      <use x="190.869140625" xlink:href="#BitstreamVeraSans-Roman-35"/>
     </g>
    </g>
    <g id="line2d_65">
     <path d="
M313.241 160.332
L330.041 160.332" style="fill:none;stroke:#0000ff;stroke-linecap:square;"/>
    </g>
    <g id="line2d_66"/>
    <g id="text_29">
     <!-- 2006 -->
     <defs>
      <path d="
M33.0156 40.375
Q26.375 40.375 22.4844 35.8281
Q18.6094 31.2969 18.6094 23.3906
Q18.6094 15.5312 22.4844 10.9531
Q26.375 6.39062 33.0156 6.39062
Q39.6562 6.39062 43.5312 10.9531
Q47.4062 15.5312 47.4062 23.3906
Q47.4062 31.2969 43.5312 35.8281
Q39.6562 40.375 33.0156 40.375
M52.5938 71.2969
L52.5938 62.3125
Q48.875 64.0625 45.0938 64.9844
Q41.3125 65.9219 37.5938 65.9219
Q27.8281 65.9219 22.6719 59.3281
Q17.5312 52.7344 16.7969 39.4062
Q19.6719 43.6562 24.0156 45.9219
Q28.375 48.1875 33.5938 48.1875
Q44.5781 48.1875 50.9531 41.5156
Q57.3281 34.8594 57.3281 23.3906
Q57.3281 12.1562 50.6875 5.35938
Q44.0469 -1.42188 33.0156 -1.42188
Q20.3594 -1.42188 13.6719 8.26562
Q6.98438 17.9688 6.98438 36.375
Q6.98438 53.6562 15.1875 63.9375
Q23.3906 74.2188 37.2031 74.2188
Q40.9219 74.2188 44.7031 73.4844
Q48.4844 72.75 52.5938 71.2969" id="BitstreamVeraSans-Roman-36"/>
     </defs>
     <g transform="translate(343.240625 164.5325)scale(0.12 -0.12)">
      <use xlink:href="#BitstreamVeraSans-Roman-32"/>
      <use x="63.623046875" xlink:href="#BitstreamVeraSans-Roman-30"/>
      <use x="127.24609375" xlink:href="#BitstreamVeraSans-Roman-30"/>
      <use x="190.869140625" xlink:href="#BitstreamVeraSans-Roman-36"/>
     </g>
    </g>
    <g id="line2d_67">
     <path d="
M313.241 177.946
L330.041 177.946" style="fill:none;stroke:#008000;stroke-linecap:square;"/>
    </g>
    <g id="line2d_68"/>
    <g id="text_30">
     <!-- 2007 -->
     <defs>
      <path d="
M8.20312 72.9062
L55.0781 72.9062
L55.0781 68.7031
L28.6094 0
L18.3125 0
L43.2188 64.5938
L8.20312 64.5938
z
" id="BitstreamVeraSans-Roman-37"/>
     </defs>
     <g transform="translate(343.240625 182.14625)scale(0.12 -0.12)">
      <use xlink:href="#BitstreamVeraSans-Roman-32"/>
      <use x="63.623046875" xlink:href="#BitstreamVeraSans-Roman-30"/>
      <use x="127.24609375" xlink:href="#BitstreamVeraSans-Roman-30"/>
      <use x="190.869140625" xlink:href="#BitstreamVeraSans-Roman-37"/>
     </g>
    </g>
    <g id="line2d_69">
     <path d="
M313.241 195.56
L330.041 195.56" style="fill:none;stroke:#ff0000;stroke-linecap:square;"/>
    </g>
    <g id="line2d_70"/>
    <g id="text_31">
     <!-- 2008 -->
     <defs>
      <path d="
M31.7812 34.625
Q24.75 34.625 20.7188 30.8594
Q16.7031 27.0938 16.7031 20.5156
Q16.7031 13.9219 20.7188 10.1562
Q24.75 6.39062 31.7812 6.39062
Q38.8125 6.39062 42.8594 10.1719
Q46.9219 13.9688 46.9219 20.5156
Q46.9219 27.0938 42.8906 30.8594
Q38.875 34.625 31.7812 34.625
M21.9219 38.8125
Q15.5781 40.375 12.0312 44.7188
Q8.5 49.0781 8.5 55.3281
Q8.5 64.0625 14.7188 69.1406
Q20.9531 74.2188 31.7812 74.2188
Q42.6719 74.2188 48.875 69.1406
Q55.0781 64.0625 55.0781 55.3281
Q55.0781 49.0781 51.5312 44.7188
Q48 40.375 41.7031 38.8125
Q48.8281 37.1562 52.7969 32.3125
Q56.7812 27.4844 56.7812 20.5156
Q56.7812 9.90625 50.3125 4.23438
Q43.8438 -1.42188 31.7812 -1.42188
Q19.7344 -1.42188 13.25 4.23438
Q6.78125 9.90625 6.78125 20.5156
Q6.78125 27.4844 10.7812 32.3125
Q14.7969 37.1562 21.9219 38.8125
M18.3125 54.3906
Q18.3125 48.7344 21.8438 45.5625
Q25.3906 42.3906 31.7812 42.3906
Q38.1406 42.3906 41.7188 45.5625
Q45.3125 48.7344 45.3125 54.3906
Q45.3125 60.0625 41.7188 63.2344
Q38.1406 66.4062 31.7812 66.4062
Q25.3906 66.4062 21.8438 63.2344
Q18.3125 60.0625 18.3125 54.3906" id="BitstreamVeraSans-Roman-38"/>
     </defs>
     <g transform="translate(343.240625 199.76)scale(0.12 -0.12)">
      <use xlink:href="#BitstreamVeraSans-Roman-32"/>
      <use x="63.623046875" xlink:href="#BitstreamVeraSans-Roman-30"/>
      <use x="127.24609375" xlink:href="#BitstreamVeraSans-Roman-30"/>
      <use x="190.869140625" xlink:href="#BitstreamVeraSans-Roman-38"/>
     </g>
    </g>
    <g id="line2d_71">
     <path d="
M313.241 213.174
L330.041 213.174" style="fill:none;stroke:#00bfbf;stroke-linecap:square;"/>
    </g>
    <g id="line2d_72"/>
    <g id="text_32">
     <!-- 2009 -->
     <g transform="translate(343.240625 217.37375)scale(0.12 -0.12)">
      <use xlink:href="#BitstreamVeraSans-Roman-32"/>
      <use x="63.623046875" xlink:href="#BitstreamVeraSans-Roman-30"/>
      <use x="127.24609375" xlink:href="#BitstreamVeraSans-Roman-30"/>
      <use x="190.869140625" xlink:href="#BitstreamVeraSans-Roman-39"/>
     </g>
    </g>
    <g id="line2d_73">
     <path d="
M313.241 230.788
L330.041 230.788" style="fill:none;stroke:#bf00bf;stroke-linecap:square;"/>
    </g>
    <g id="line2d_74"/>
    <g id="text_33">
     <!-- 2010 -->
     <g transform="translate(343.240625 234.9875)scale(0.12 -0.12)">
      <use xlink:href="#BitstreamVeraSans-Roman-32"/>
      <use x="63.623046875" xlink:href="#BitstreamVeraSans-Roman-30"/>
      <use x="127.24609375" xlink:href="#BitstreamVeraSans-Roman-31"/>
      <use x="190.869140625" xlink:href="#BitstreamVeraSans-Roman-30"/>
     </g>
    </g>
    <g id="line2d_75">
     <path d="
M313.241 248.401
L330.041 248.401" style="fill:none;stroke:#bfbf00;stroke-linecap:square;"/>
    </g>
    <g id="line2d_76"/>
    <g id="text_34">
     <!-- 2011 -->
     <g transform="translate(343.240625 252.60125)scale(0.12 -0.12)">
      <use xlink:href="#BitstreamVeraSans-Roman-32"/>
      <use x="63.623046875" xlink:href="#BitstreamVeraSans-Roman-30"/>
      <use x="127.24609375" xlink:href="#BitstreamVeraSans-Roman-31"/>
      <use x="190.869140625" xlink:href="#BitstreamVeraSans-Roman-31"/>
     </g>
    </g>
    <g id="line2d_77">
     <path d="
M313.241 266.015
L330.041 266.015" style="fill:none;stroke:#000000;stroke-linecap:square;"/>
    </g>
    <g id="line2d_78"/>
    <g id="text_35">
     <!-- 2012 -->
     <g transform="translate(343.240625 270.215)scale(0.12 -0.12)">
      <use xlink:href="#BitstreamVeraSans-Roman-32"/>
      <use x="63.623046875" xlink:href="#BitstreamVeraSans-Roman-30"/>
      <use x="127.24609375" xlink:href="#BitstreamVeraSans-Roman-31"/>
      <use x="190.869140625" xlink:href="#BitstreamVeraSans-Roman-32"/>
     </g>
    </g>
   </g>
  </g>
 </g>
 <defs>
  <clipPath id="p60c6dbb31d">
   <rect height="223.2" width="334.8" x="48.228125" y="21.318125"/>
  </clipPath>
 </defs>
</svg>
