<?xml version="1.0" encoding="utf-8" standalone="no"?>
<!DOCTYPE svg PUBLIC "-//W3C//DTD SVG 1.1//EN"
  "http://www.w3.org/Graphics/SVG/1.1/DTD/svg11.dtd">
<!-- Created with matplotlib (http://matplotlib.org/) -->
<svg height="319pt" version="1.1" viewBox="0 0 373 319" width="373pt" xmlns="http://www.w3.org/2000/svg" xmlns:xlink="http://www.w3.org/1999/xlink">
 <defs>
  <style type="text/css">
*{stroke-linecap:butt;stroke-linejoin:round;}
  </style>
 </defs>
 <g id="figure_1">
  <g id="patch_1">
   <path d="
M0 319.938
L373.191 319.938
L373.191 0
L0 0
z
" style="fill:#ffffff;"/>
  </g>
  <g id="axes_1">
   <g id="patch_2">
    <path d="
M31.1906 244.518
L365.991 244.518
L365.991 21.3181
L31.1906 21.3181
z
" style="fill:#ffffff;"/>
   </g>
   <g id="line2d_1">
    <path clip-path="url(#p95a2ee5e18)" d="
M0 0" style="fill:none;stroke:#0000ff;stroke-linecap:square;"/>
   </g>
   <g id="line2d_2">
    <path clip-path="url(#p95a2ee5e18)" d="
M0 0" style="fill:none;stroke:#008000;stroke-linecap:square;"/>
   </g>
   <g id="line2d_3">
    <path clip-path="url(#p95a2ee5e18)" d="
M0 0" style="fill:none;stroke:#ff0000;stroke-linecap:square;"/>
   </g>
   <g id="line2d_4">
    <path clip-path="url(#p95a2ee5e18)" d="
M0 0" style="fill:none;stroke:#00bfbf;stroke-linecap:square;"/>
   </g>
   <g id="line2d_5">
    <path clip-path="url(#p95a2ee5e18)" d="
M0 0" style="fill:none;stroke:#bf00bf;stroke-linecap:square;"/>
   </g>
   <g id="line2d_6">
    <path clip-path="url(#p95a2ee5e18)" d="
M0 0" style="fill:none;stroke:#bfbf00;stroke-linecap:square;"/>
   </g>
   <g id="line2d_7">
    <path clip-path="url(#p95a2ee5e18)" d="
M0 0" style="fill:none;stroke:#000000;stroke-linecap:square;"/>
   </g>
   <g id="line2d_8">
    <path clip-path="url(#p95a2ee5e18)" d="
M0 0" style="fill:none;stroke:#0000ff;stroke-linecap:square;"/>
   </g>
   <g id="line2d_9">
    <path clip-path="url(#p95a2ee5e18)" d="
M0 0" style="fill:none;stroke:#008000;stroke-linecap:square;"/>
   </g>
   <g id="line2d_10">
    <path clip-path="url(#p95a2ee5e18)" d="
M31.1906 190.035
L32.1079 174.634
L33.0251 182.973
L33.9424 220.404
L34.8597 229.247
L35.7769 231.701
L36.6942 234.523
L37.6114 233.63
L38.5287 224.327
L39.446 231.967
M41.2805 231.065
L42.1977 231.034
L43.115 221.161
L44.0323 218.312
L44.9495 205.461
L45.8668 214.198
L46.784 217.03
L47.7013 212.852
L48.6186 237.935
L49.5358 238.248
L50.4531 219.13
L51.3704 205.409
L52.2876 210.556
L53.2049 224.576
L54.1221 220.487
L55.0394 220.591
L55.9567 231.712
L56.8739 235.021
M58.7084 242.832
L59.6257 235.755
L60.543 231.439
L61.4602 244.417
L62.3775 226.966
L63.2947 223.964
L64.212 227.824
L65.1293 240.315
L66.0465 217.451
L66.9638 227.597
L67.881 212.7
L68.7983 215.614
L69.7156 214.006
L70.6328 223.311
L71.5501 202.724
L72.4673 203.999
L73.3846 209.277
L74.3019 194.549
L75.2191 202.603
L76.1364 207.545
L77.0536 214.68
L77.9709 223.298
L78.8882 234.675
L79.8054 223.946
L80.7227 227.185
L81.6399 238.503
L82.5572 213.28
L83.4745 215.945
L84.3917 210.749
L85.309 204.534
L86.2262 223.48
L87.1435 222.537
L88.0608 206.349
L88.978 212.443
L89.8953 203.1
L90.8125 188.847
L91.7298 195.445
L92.6471 216.065
L93.5643 205.146
L94.4816 199.604
L95.3988 191.648
L96.3161 177.139
L97.2334 222.991
L98.1506 229.755
L99.0679 214.515
L99.9851 215.734
L100.902 205.352
L101.82 239.239
L102.737 231.93
L103.654 211.81
L104.571 186.419
L105.489 177.457
L106.406 187.027
L107.323 218.903
L108.24 219.357
L109.158 233.79
L110.075 197.679
L110.992 220.89
L111.91 206.577
L112.827 205.09
L113.744 207.345
L114.661 176.593
L115.579 174.892
L116.496 174.981
L117.413 204.321
L118.33 195.658
L119.248 209.002
L120.165 218.195
L121.082 191.252
L121.999 202.764
L122.917 210.857
L123.834 184.324
L124.751 185.1
L125.668 189.89
L126.586 205.943
L127.503 200.288
L128.42 190.482
L129.337 175.233
L130.255 176.322
L131.172 186.9
L132.089 190.073
L133.007 186.926
L133.924 171.848
L134.841 206.918
L135.758 206.389
L136.676 167.038
L137.593 147.966
L138.51 157.56
L139.427 162.172
L140.345 205.421
L141.262 165.597
L142.179 165.686
L143.096 152.373
L144.014 157.197
L144.931 162.769
L145.848 165.638
L146.765 176.643
L147.683 191.956
L148.6 166.18
L149.517 156.318
L150.434 157.37
L151.352 168.754
L152.269 164.558
L153.186 174.624
L154.104 205.414
L155.021 184.095
L155.938 177.034
L156.855 176.316
L157.773 183.142
L158.69 177.332
L159.607 211.147
L160.524 199.18
L161.442 198.369
L162.359 210.786
L163.276 183.719
L164.193 199.524
L165.111 211.735
L166.028 210.526
L166.945 195.662
L167.862 197.489
L168.78 192.076
L169.697 191.035
L170.614 210.736
L171.531 173.589
L172.449 215.609
L173.366 199.609
L174.283 176.672
L175.2 172.051
L176.118 189.466
L177.035 158.865
L177.952 186.879
L178.87 195.204
L179.787 200.381
L180.704 172.982
L181.621 165.735
L182.539 165.779
L183.456 169.918
L184.373 172.941
L185.29 172.554
L186.208 169.208
L187.125 168.71
L188.042 178.016
L188.959 196.319
L189.877 183.419
L190.794 175.262
L191.711 177.838
L192.628 170.476
L193.546 175.599
L194.463 177.929
L195.38 181.88
L196.297 184.832
L197.215 191.86
L198.132 195.068
L199.049 180.771
L199.967 185.636
L200.884 188.518
L201.801 184.317
L202.718 178.213
L203.636 179.382
L204.553 179.383
L205.47 179.997
L206.387 176.287
L207.305 166.899
L208.222 172.368
L209.139 176.894
L210.056 178.68
L210.974 180.064
L211.891 183.274
L212.808 181.061
L213.725 175.348
L214.643 175.569
L215.56 182.173
L216.477 192.511
L217.394 205.664
L218.312 183.912
L219.229 181.468
L220.146 183.305
L221.064 182.413
L221.981 182.301
L222.898 182.556
L223.815 192.808
L224.733 178.489
L225.65 178.894
L226.567 185.078
L227.484 181.8
L228.402 181.604
L229.319 182.537
L230.236 192.607
L231.153 197.539
L232.071 194.405
L232.988 200.934
L233.905 186.813
L234.822 177.508
L236.657 183.871
L237.574 184.481
L238.491 186.689
L239.409 186.69
L240.326 184.377
L241.243 187.232
L242.16 194.63
L243.078 195.26
L243.995 187.92
L244.912 193.041
L245.83 176.745
L246.747 181.514
L247.664 187.878
L248.581 191.592
L250.416 175.661
L251.333 184.275
L252.25 187.969
L253.168 188.872
L254.085 185.757
L255.002 190.941
L255.919 180.67
L256.837 173.528
L257.754 174.352
L258.671 180.899
L259.588 186.622
L260.506 184.561
L261.423 182.149
L262.34 184.826
L263.257 176.922
L264.175 180.37
L265.092 179.243
L266.009 184.018
L266.927 185.037
L267.844 184.348
L268.761 186.263
L269.678 187.302
L270.596 189.64
L271.513 202.021
L272.43 219.38
L273.347 226.174
L274.265 200.552
L275.182 184.82
L276.099 180.711
L277.016 185.457
L277.934 183.259
L278.851 187.686
L279.768 185.018
L280.685 186.978
L281.603 192.503
L282.52 191.929
L283.437 204.54
L284.354 206.256
L285.272 234.449
L286.189 219.71
L287.106 198.913
L288.024 197.403
L288.941 179.236
L289.858 182.873
L290.775 233.305
L291.693 219.996
L292.61 194.16
L293.527 183.562
L294.444 193.038
L295.362 191.103
L296.279 190.046
L297.196 197.433
L298.113 193.61
L299.031 198.184
L299.948 194.098
L300.865 197.794
L301.782 171.459
L303.617 181.219
L304.534 191.248
L305.451 188.92
L306.369 182.61
L307.286 189.121
L308.203 189.649
L309.12 192.194
L310.038 206.619
L310.955 224.122
L311.872 235.463
L312.79 237.295
L313.707 237.738
L314.624 220.554
L315.541 226.041
L316.459 221.095
L317.376 219.348
L318.293 236.643
L319.21 231.435
L320.128 239.645
L321.045 225.616
L321.962 216.098
L322.879 191.789
L323.797 191.853
L324.714 196.038
L325.631 189.963
L326.548 193.375
L327.466 202.112
L328.383 215.214
L329.3 200.16
L330.217 214.976
L331.135 223.416
L332.052 194.247
L332.969 197.154
L333.887 208.015
L334.804 203.319
L335.721 214.43
L336.638 233.382
L337.556 227.166
L338.473 208.781
L339.39 228.606
L340.307 237.574
L341.225 202.295
L342.142 194.093
L343.059 193.757
L343.976 213.665
L344.894 228.641
L345.811 204.909
L346.728 196.148
L347.645 213.395
L349.48 242.345
L350.397 241.284
L351.314 227.377
L352.232 226.083
L353.149 221.083
L354.066 213.19
L354.984 236.015
L355.901 220.236
L356.818 233.102
L357.735 239.775
L359.57 229.41
M361.404 231.24
L362.322 241.335
L363.239 240.89
L364.156 224.488
L365.073 199.737
L365.073 199.737" style="fill:none;stroke:#ff0000;stroke-linecap:square;"/>
   </g>
   <g id="line2d_11">
    <path clip-path="url(#p95a2ee5e18)" d="
M31.1906 236.391
L32.1079 216.588
L33.0251 219.817
L33.9424 193.982
L34.8597 212.576
L35.7769 240.606
L36.6942 229.041
L37.6114 222.066
L38.5287 231.583
L39.446 210.689
L40.3632 220.11
L41.2805 230.803
L42.1977 223.08
L43.115 203.81
L44.0323 209.278
L44.9495 206.486
L45.8668 220.666
L46.784 211.908
L47.7013 220.585
L48.6186 218.26
L49.5358 205.603
L50.4531 222.747
L51.3704 243.081
L52.2876 242.056
M54.1221 239.966
L55.0394 221.781
L55.9567 226.011
L56.8739 225.117
L57.7912 220.167
L58.7084 220.106
L59.6257 204.418
L60.543 194.31
L62.3775 213.587
L63.2947 211.052
L64.212 222.627
L65.1293 231.194
L66.0465 227.741
L66.9638 238.043
L67.881 228.664
L68.7983 227.212
L69.7156 238.563
L70.6328 227.277
L71.5501 239.697
L72.4673 213.935
L73.3846 214.73
L74.3019 235.55
L75.2191 216.374
L76.1364 209.359
L77.0536 210.885
L77.9709 198.86
L78.8882 205.884
L79.8054 224.696
L80.7227 204.084
L81.6399 219.913
L82.5572 222.318
L83.4745 196.114
L84.3917 180.471
L85.309 197.241
L87.1435 227.976
L88.0608 239.429
M89.8953 227.015
L90.8125 218.944
L91.7298 223.838
L92.6471 210.043
L93.5643 213.156
L94.4816 197.487
L95.3988 200.291
L96.3161 202.567
L97.2334 208.732
L98.1506 240.322
L99.0679 227.946
L99.9851 211.789
L100.902 188.598
L101.82 201.367
L102.737 189.899
L103.654 218.599
L104.571 226.542
L105.489 202.717
L106.406 201.361
L107.323 233.542
L109.158 188.619
L110.075 220.908
L110.992 226.762
L111.91 197.306
L112.827 233.29
L113.744 213.475
L114.661 236.181
L115.579 234.082
L117.413 187.544
L118.33 176.675
L119.248 178.627
L120.165 219.315
L121.082 200.437
L121.999 225.292
L122.917 204.948
L123.834 181.855
L124.751 203.917
L125.668 188.91
L126.586 199.972
L127.503 172.624
L128.42 175.219
L129.337 175.661
L130.255 169.315
L131.172 175.43
L132.089 179.645
L133.007 181.823
L133.924 186.181
L134.841 153.569
L135.758 163.153
L136.676 177.315
L137.593 178.859
L138.51 223.668
L139.427 178.813
L140.345 187.93
L141.262 193.733
L142.179 205.87
L143.096 234.113
L144.014 206.413
L144.931 205.822
L145.848 211.373
L147.683 171.877
L148.6 161.314
L149.517 169.082
L150.434 173.536
L151.352 181.043
L152.269 166.938
L153.186 191.26
L154.104 171.567
L155.021 168.523
L155.938 173.914
L156.855 181.357
L157.773 175.997
L158.69 164.062
L159.607 163.567
L160.524 174.613
L161.442 187.068
L162.359 190.537
L163.276 175.164
L165.111 174.868
L166.028 176.4
L166.945 186.035
L167.862 186.678
L168.78 191.818
L169.697 198.403
L170.614 228.547
L171.531 197.901
L172.449 201.161
L173.366 217.901
L174.283 221.33
L175.2 188.645
L176.118 187.838
L177.035 185.361
L177.952 200.288
L178.87 200.527
L179.787 199.14
L180.704 222.221
L181.621 223.074
L182.539 221.838
L183.456 196.208
L184.373 209.191
L185.29 178.719
L186.208 190.68
L187.125 197.59
L188.042 211.908
L188.959 194.742
L189.877 170.02
L190.794 180.084
L191.711 179.977
L192.628 180.681
L193.546 171.159
L194.463 175.699
L195.38 183.911
L196.297 182.867
L197.215 179.892
L198.132 188.734
L199.049 193.801
L199.967 181.56
L200.884 191.244
L201.801 178.617
L202.718 176.61
L203.636 176.759
L204.553 178.583
L205.47 176.428
L206.387 193.762
L207.305 203.607
L208.222 198.462
L209.139 176.79
L210.056 179.134
L210.974 187.414
L211.891 189.574
L212.808 192.035
L213.725 185.12
L214.643 182.699
L215.56 184.477
L216.477 189.588
L217.394 199.488
L218.312 184.635
L219.229 186.423
L220.146 187.666
L221.981 194.894
L222.898 192.268
L224.733 185.902
L226.567 193.143
L228.402 189.632
L229.319 193.794
L230.236 229.516
L231.153 237.341
L232.988 189.236
L233.905 186.416
L235.74 189.958
L236.657 196.673
L237.574 184.882
L238.491 187.117
L239.409 180.445
L240.326 182.185
L241.243 189.818
L242.16 191.023
L243.078 193.191
L243.995 192.824
L244.912 191.319
L245.83 207.189
L246.747 192.326
L247.664 191.131
L248.581 190.442
L249.499 192.71
L250.416 203.729
L251.333 194.36
L252.25 197.489
L253.168 188.136
L254.085 191.098
L255.002 191.015
L255.919 191.456
L257.754 200.205
L258.671 190.005
L260.506 178.659
L262.34 187.985
L263.257 190.849
L264.175 192.136
L265.092 193.955
L266.009 194.921
L266.927 201.376
L267.844 198.11
L268.761 196.116
L269.678 199.69
L270.596 199.21
L271.513 193.887
L272.43 181.856
L274.265 191.764
L275.182 195.323
L276.099 197.468
L277.016 193.027
L277.934 189.808
L278.851 196.297
L279.768 212.197
L280.685 199.225
L281.603 183.019
L282.52 182.193
L283.437 220.458
M286.189 205.851
L287.106 195.853
L288.024 192.654
L288.941 203.319
L289.858 192.574
L290.775 188.084
L291.693 191.335
L292.61 218.705
L293.527 228.109
L294.444 221.293
L295.362 207.035
L296.279 207.954
L297.196 213.996
L298.113 227.559
L299.031 219.155
L299.948 218.816
L300.865 206.034
L301.782 218.059
L302.7 211.026
L303.617 189.833
L304.534 218.587
L305.451 240.079
L306.369 217.057
L308.203 235.818
L309.12 220.33
L310.038 218.107
L310.955 210.791
L311.872 198.295
L312.79 198.852
L313.707 197.665
L314.624 225.094
L315.541 220.196
L316.459 204.661
L317.376 193.083
L318.293 201.57
L319.21 227.982
L320.128 244.152
L321.045 235.21
L321.962 233.082
L322.879 199.972
L323.797 196.685
L324.714 194.381
L325.631 223.354
L326.548 198.813
L327.466 210.94
L328.383 213.093
L329.3 229.712
L330.217 218.708
L331.135 214.087
L332.052 215.478
L332.969 213.598
L333.887 224.673
L334.804 224.354
L335.721 210.087
M337.556 212.182
L338.473 208.978
L339.39 199.345
L340.307 196.291
L341.225 206.508
L342.142 204.569
L343.059 233.444
L343.976 214.79
L344.894 206.175
L345.811 201.91
L346.728 190.622
L347.645 222.949
L348.563 242.14
L349.48 229.011
L350.397 233.386
M352.232 233.883
L353.149 238.927
L354.984 229.309
L355.901 226.767
L356.818 243.664
L357.735 231.495
L358.653 199.236
L359.57 220.019
L360.487 229.399
L361.404 225.383
L362.322 214.85
L364.156 241.146
L365.073 234.56
L365.073 234.56" style="fill:none;stroke:#00bfbf;stroke-linecap:square;"/>
   </g>
   <g id="line2d_12">
    <path clip-path="url(#p95a2ee5e18)" d="
M31.1906 241.328
L33.0251 228.324
L33.9424 218.113
L34.8597 229.558
L35.7769 225.432
L36.6942 233.872
L37.6114 202.697
L38.5287 210.598
L39.446 219.778
L40.3632 207.057
L41.2805 216.589
L42.1977 237.531
L43.115 227.857
L44.0323 194.837
L44.9495 218.388
L45.8668 214.478
L46.784 229.742
L47.7013 230.566
L48.6186 222.881
L49.5358 217.388
L50.4531 222.738
M52.2876 228.074
L53.2049 235.071
L54.1221 240.25
M55.9567 236.973
L56.8739 232.492
L57.7912 225.641
M59.6257 232.079
L60.543 218.589
L61.4602 228.115
L62.3775 232.918
L63.2947 235.723
L64.212 228.28
L65.1293 241.012
L66.0465 240.405
L66.9638 230.577
L67.881 214.304
L68.7983 232.224
L69.7156 228.707
L70.6328 237.632
L71.5501 222.913
M73.3846 242.964
L74.3019 242.275
L75.2191 237.662
L76.1364 224.694
L77.0536 220.334
L77.9709 223.343
L78.8882 182.63
L79.8054 189.485
L80.7227 230.171
L81.6399 230.615
L82.5572 206.025
L83.4745 220.915
L84.3917 226.202
L85.309 207.194
L86.2262 202.506
L87.1435 225.945
L88.0608 220.982
L88.978 221.381
L89.8953 209.025
L90.8125 198.458
L91.7298 229.082
L92.6471 207.255
L93.5643 189.65
L94.4816 194.323
L95.3988 204.922
L96.3161 233.605
L97.2334 210.875
L98.1506 181.416
L99.0679 187.098
L99.9851 185.918
L100.902 191.039
L101.82 168.421
L102.737 177.806
L103.654 206.506
L104.571 214.244
L105.489 184.213
L106.406 179.779
L107.323 220.487
L108.24 224.154
L109.158 194.344
L110.075 182.653
L111.91 239.811
L112.827 213.666
L113.744 235.607
L114.661 232.846
L115.579 217.316
L116.496 218.645
L117.413 228.807
L118.33 202.756
L119.248 188.96
L120.165 204.993
L121.082 170.607
L121.999 182.555
L122.917 187.938
L123.834 222.962
L124.751 213.582
L125.668 178.991
L126.586 165.515
L127.503 184.106
L128.42 180.967
L129.337 167.687
L130.255 168.464
L131.172 203.339
L132.089 225.373
L133.007 213.758
L133.924 165.188
L134.841 161.914
L135.758 157.191
L136.676 171.048
L137.593 222.413
L138.51 229.249
L139.427 213.69
L140.345 218.584
L141.262 208.736
L142.179 183.696
L143.096 206.184
L144.014 145.662
L144.931 188.842
L145.848 187.37
L146.765 150.224
L147.683 160.814
L148.6 157.856
L149.517 210.217
L150.434 180.751
L151.352 164.46
L152.269 166.786
L153.186 160.173
L154.104 163.294
L155.021 174.27
L155.938 190.177
L156.855 232.174
L157.773 188.028
L158.69 172.097
L159.607 194.241
M161.442 206.066
L162.359 195.31
L163.276 173.377
L164.193 211.885
L165.111 202.903
L166.028 209.601
L166.945 195.415
L167.862 175.259
L168.78 214.575
L169.697 207.322
L170.614 230.13
L171.531 202.137
L172.449 235.711
L173.366 191.835
L174.283 222.197
L175.2 181.425
L176.118 181.398
L177.035 201.056
L177.952 206.226
L178.87 188.481
L179.787 163.345
L182.539 179.684
L183.456 173.114
L184.373 180.721
L185.29 163.402
L186.208 178.24
L187.125 200.44
L188.042 203.972
L188.959 172.562
L189.877 173.788
L190.794 192.51
L191.711 201.595
L192.628 179.137
L193.546 174.229
L194.463 185.516
L195.38 201.07
L196.297 183.096
L197.215 177.505
L199.049 190.107
L199.967 172.428
L200.884 173.442
L201.801 172.671
L202.718 173.128
L203.636 176
L205.47 184.338
L206.387 181.161
L207.305 178.695
L208.222 162.261
L210.056 172.563
L210.974 179.668
L211.891 177.031
L212.808 177.45
L213.725 171.102
L214.643 172.526
L215.56 177.458
L216.477 176.803
L217.394 172.951
L218.312 177.477
L219.229 185.671
L220.146 211.366
L221.064 191.612
L221.981 192.316
L222.898 187.037
L223.815 192.181
L224.733 189.66
L225.65 180.469
L226.567 178.673
L227.484 181.528
L228.402 181.147
L229.319 187.063
L230.236 194.679
L231.153 181.465
L232.071 183.85
L233.905 201.067
L234.822 218.524
L235.74 197.862
L236.657 185.985
L237.574 185.506
L238.491 184.703
L239.409 183.443
L240.326 185.188
L241.243 185.997
L242.16 182.033
L243.078 179.324
L243.995 184.284
L244.912 179.756
L245.83 180.526
L246.747 177.957
L247.664 183.224
L248.581 199.209
L249.499 176.158
L250.416 183.881
L251.333 224.576
L252.25 197.972
L253.168 204.572
L254.085 200.801
L255.002 185.528
L255.919 182.625
L256.837 190.015
L257.754 177.056
L258.671 173.169
L259.588 173.451
L260.506 214.493
L261.423 236.509
L262.34 190.229
L263.257 179.843
L264.175 181.013
L265.092 185.456
L266.009 188.811
L266.927 184.8
L267.844 183.752
L268.761 191.812
L269.678 189.35
L270.596 196.457
L271.513 193.885
L272.43 185.923
L273.347 184.896
L274.265 183.056
L275.182 180.435
L276.099 186.057
L277.016 187.417
L277.934 185.943
L278.851 187.99
L279.768 190.639
L280.685 186.971
L281.603 190.556
L282.52 190.323
L283.437 210.905
L284.354 227.75
L285.272 215.458
L286.189 209.299
L287.106 194.976
L288.024 225.562
L288.941 212.225
L289.858 205.121
L290.775 210.345
L291.693 189.134
L292.61 184.581
L293.527 183.096
L294.444 192.392
L295.362 198.127
L296.279 194.211
L297.196 182.026
L298.113 176.447
L299.031 183.85
L299.948 185.202
L300.865 189.472
L301.782 225.115
L302.7 241.499
L303.617 223.627
L304.534 234.126
L305.451 207.555
L306.369 184.756
L308.203 197.258
L309.12 229.576
L310.038 205.036
L310.955 201.902
L311.872 204.536
L312.79 195.361
L313.707 200.361
L314.624 200.835
L315.541 227.894
L316.459 231.818
L317.376 213.259
L318.293 241.311
L319.21 231.547
L320.128 213.913
L321.045 215.944
L321.962 241.366
L322.879 227.548
L323.797 220.003
L324.714 202.604
L325.631 216.498
M327.466 243.142
L328.383 238.199
M331.135 203.356
L332.052 199.174
L332.969 204.887
L333.887 221.573
L334.804 232.29
L335.721 209.205
L336.638 213.442
M338.473 239.309
L339.39 226.005
L340.307 230.296
L341.225 239.362
L342.142 238.97
L343.059 229.423
L343.976 215.713
L344.894 228.953
L345.811 233.736
L346.728 235.456
L347.645 229.706
L348.563 227.302
L349.48 236.846
L350.397 231.679
L351.314 209.991
L352.232 206.982
L353.149 229.164
L354.066 240.334
L354.984 232.445
L355.901 213.56
L356.818 236.719
L357.735 235.893
L359.57 182.807
L360.487 227.804
L361.404 229.27
L362.322 233.949
M364.156 238.542
L365.073 228.951
L365.073 228.951" style="fill:none;stroke:#bf00bf;stroke-linecap:square;"/>
   </g>
   <g id="line2d_13">
    <path clip-path="url(#p95a2ee5e18)" d="
M31.1906 215.772
L32.1079 219.782
L33.0251 232.85
L33.9424 236.271
L34.8597 217.588
L35.7769 222.376
L36.6942 221.545
L37.6114 225.47
L39.446 241.942
L40.3632 217.046
L41.2805 225.9
L42.1977 244.144
L43.115 237.113
L44.0323 236.418
L44.9495 242.951
L45.8668 235.917
L46.784 237.866
L47.7013 240.899
L48.6186 212.366
L49.5358 234.674
L50.4531 235.212
L51.3704 205.711
L52.2876 236.025
L53.2049 239.241
L54.1221 239.496
L55.0394 237.557
L55.9567 236.469
L56.8739 236.501
L57.7912 242.997
L58.7084 222.305
L59.6257 204.589
L60.543 195.005
L61.4602 206.26
L62.3775 228.138
L63.2947 224.808
L64.212 223.184
L65.1293 224.065
L66.0465 228.321
L67.881 210.015
L68.7983 203.495
L69.7156 202.342
L70.6328 197.826
L71.5501 200.909
L72.4673 204.774
L73.3846 225.078
L74.3019 231.388
L75.2191 235.785
L76.1364 233.565
M77.9709 229.255
L78.8882 228.187
L79.8054 221.082
L80.7227 240.287
L81.6399 241.382
L82.5572 209.654
L83.4745 203.857
L84.3917 209.067
L85.309 194.315
L86.2262 220.696
L88.978 233.63
L89.8953 237.283
L90.8125 238.968
M92.6471 232.16
L93.5643 227.243
L94.4816 242.129
L95.3988 224.681
L96.3161 238.226
L97.2334 214.83
L98.1506 229.472
M99.9851 241.737
L100.902 210.055
L101.82 234.622
L102.737 215.974
L103.654 230.033
L104.571 224.75
L105.489 214.406
L106.406 233.547
L107.323 243.663
M110.075 222.379
L110.992 231.657
L111.91 232.308
L112.827 201.737
L113.744 202.44
L114.661 208.931
L115.579 218.397
L116.496 200.96
L117.413 210.76
L118.33 218.023
L119.248 209.178
L120.165 215.931
L121.082 224.606
L121.999 201.998
L122.917 211
L123.834 186.206
L124.751 215.915
L125.668 183.626
L126.586 208.766
L127.503 217.293
L128.42 204.324
L129.337 203.436
L130.255 162.672
L131.172 209.08
L132.089 220.797
L133.007 173.63
L133.924 164.071
L134.841 200.314
L135.758 223.444
L136.676 197.285
L137.593 183.138
L138.51 223.005
L139.427 185.747
L140.345 190.5
L141.262 177.521
L142.179 199.636
L143.096 179.548
L144.014 174.064
L144.931 181.601
L145.848 215.214
L146.765 203.424
L147.683 214.946
L149.517 178.229
L150.434 177.699
L151.352 183.929
L152.269 187.619
L153.186 202.592
L154.104 222.091
L155.021 232.712
L155.938 196.586
L156.855 217.075
L157.773 172.321
L158.69 180.367
L159.607 197.591
L160.524 186.026
L161.442 209.641
L162.359 209.05
L163.276 203.895
L164.193 188.293
L165.111 223.533
L166.028 223.09
L166.945 224.005
L167.862 194.783
L168.78 197.551
L169.697 192.491
L170.614 215.781
L171.531 174.841
L172.449 180.25
L173.366 187.406
L174.283 211.24
L175.2 219.167
L176.118 183.061
L177.035 194.653
L177.952 196.845
L178.87 198.288
L179.787 186.318
L180.704 205.964
L181.621 174.533
L182.539 166.957
L183.456 182.766
L184.373 170.049
L185.29 216.467
L186.208 214.727
L187.125 176.593
L188.042 181
L188.959 186.031
L189.877 185.447
L190.794 176.793
L191.711 173.388
L192.628 175.825
L193.546 180.019
L194.463 187.8
L195.38 204.313
L196.297 184.969
L197.215 178.536
L198.132 178.424
L199.049 185.298
L199.967 187.673
L200.884 189.196
L201.801 186.083
L202.718 207.244
L203.636 180.075
L204.553 176.321
L205.47 186.312
L206.387 190.303
L207.305 186.357
L208.222 193.524
L210.056 184.994
L210.974 191.749
L211.891 187.306
L212.808 185.837
L213.725 188.372
L214.643 182.663
L215.56 180.292
L216.477 183.212
L217.394 180.023
L218.312 186.967
L219.229 186.506
L220.146 189.068
L221.064 185.076
L221.981 183.554
L222.898 186.792
L224.733 199.067
L225.65 193.917
L226.567 194.202
L227.484 188.611
L228.402 204.323
L229.319 189.659
L230.236 189.752
L231.153 192.013
L232.071 192.186
L232.988 186.29
L233.905 187.13
L234.822 182.69
L235.74 186.294
L236.657 193.799
L237.574 192.189
L238.491 182.909
L239.409 184.939
L240.326 188.992
L241.243 189.153
L242.16 187.557
L243.078 193.563
L243.995 195.035
L245.83 192.079
L246.747 192.839
L247.664 196.212
L248.581 195.639
L249.499 207.394
L250.416 197.888
L251.333 193.783
L252.25 192
L253.168 185.483
L254.085 184.782
L255.002 184.695
L255.919 186.457
L256.837 186.349
L258.671 193.326
L259.588 194.813
L260.506 194.576
L261.423 197.849
L262.34 196.506
L263.257 201.28
L264.175 197.869
L265.092 197.801
L266.009 196.828
L266.927 223.189
L267.844 202.621
L268.761 187.09
L269.678 185.976
L270.596 191.942
L271.513 192.841
L272.43 189.487
L273.347 193.555
L274.265 193.873
L275.182 196.341
L276.099 199.308
L277.016 194.094
L277.934 193.693
L278.851 196.427
L279.768 192.124
L280.685 199.129
L281.603 198.791
L282.52 199.637
L283.437 199.948
L284.354 229.747
L285.272 239.568
M287.106 243.906
L288.024 215.651
L288.941 200.363
L289.858 228.403
L290.775 221.288
L291.693 200.163
L292.61 196.849
L293.527 195.482
L294.444 207.439
L295.362 239.894
L296.279 206.321
L297.196 192.726
L298.113 202.643
L299.031 197.258
L300.865 209.946
L301.782 206.341
L302.7 220.572
L303.617 196.487
L304.534 179.834
L305.451 186.286
L306.369 186.452
L307.286 192.723
L308.203 202.465
L309.12 219.17
L310.038 197.267
L310.955 180.36
L311.872 193.338
L312.79 225.193
L313.707 233.509
L314.624 237.802
L315.541 238.641
L317.376 200.774
L318.293 197.702
L319.21 205.305
L320.128 226.282
L321.045 230.355
L321.962 196.698
L322.879 187.197
L323.797 210.258
L324.714 236.385
L325.631 236.659
L326.548 231.297
L327.466 207.756
L329.3 228.493
L330.217 201.946
L331.135 218.385
L332.052 218.872
L332.969 187.33
L333.887 188.431
L334.804 212.686
L335.721 230.571
L336.638 222.839
L337.556 194.327
L338.473 196.031
L340.307 213.686
L341.225 211.692
L342.142 197.411
L343.059 200.817
L343.976 199.049
L344.894 200.376
L346.728 207.423
L347.645 205.894
L348.563 213.693
L349.48 206.582
L350.397 218.996
L351.314 220.933
L352.232 219.774
L353.149 214.343
L354.066 206.31
L354.984 201.063
L355.901 218.055
L356.818 191.582
L357.735 186.838
L358.653 193.858
L359.57 198.614
L360.487 205.103
L362.322 234.444
L363.239 226.817
L364.156 243.394
L365.073 218.245
L365.073 218.245" style="fill:none;stroke:#bfbf00;stroke-linecap:square;"/>
   </g>
   <g id="line2d_14">
    <path clip-path="url(#p95a2ee5e18)" d="
M31.1906 192.177
L32.1079 197.911
L33.0251 196.121
L33.9424 190.19
L34.8597 203.562
L35.7769 213.961
L36.6942 222.283
L37.6114 212.336
L38.5287 217.976
L39.446 234.049
L40.3632 209.391
L41.2805 214.831
L42.1977 191.333
L43.115 182.815
L44.0323 205.314
L44.9495 214.128
L45.8668 196.391
L46.784 224.238
M49.5358 241.697
L50.4531 229.629
L51.3704 243.69
L52.2876 231.962
L53.2049 229.992
L54.1221 239.577
L55.0394 207.027
L55.9567 198.812
L56.8739 186.495
L57.7912 219.374
L58.7084 203.097
L59.6257 229.29
L60.543 226.925
L61.4602 205.949
L62.3775 202.174
L63.2947 201.085
L64.212 202.076
L65.1293 188.902
L66.0465 223.089
L66.9638 239.848
L67.881 222.279
L68.7983 234.164
L69.7156 237.628
L70.6328 219.092
L71.5501 226.647
L72.4673 231.833
L73.3846 210.181
L74.3019 209.928
L75.2191 224.725
L76.1364 214.25
L77.0536 227.01
M78.8882 229.991
L79.8054 212.294
L80.7227 187.892
L81.6399 226.281
L82.5572 208.435
L83.4745 200.212
L84.3917 194.639
L85.309 221.358
L86.2262 237.517
L87.1435 214.422
L88.0608 222.914
L88.978 206.278
L89.8953 198.972
L90.8125 220.031
L91.7298 186.392
L92.6471 183.78
L93.5643 184.318
L94.4816 189.935
L95.3988 211.547
L96.3161 218.401
L97.2334 223.393
M99.0679 225.555
L99.9851 237.801
L100.902 237.997
M102.737 220.846
L103.654 228.981
L104.571 209.187
L105.489 179.874
L106.406 200.392
L107.323 184.095
L108.24 206.56
L109.158 232.352
L110.075 192.871
L110.992 217.12
L111.91 222.267
L112.827 233.095
L113.744 187.96
L114.661 176.131
L115.579 186.861
L116.496 179.427
L117.413 201.658
L118.33 186.597
L119.248 183.351
L120.165 166.99
L121.082 165.038
L121.999 179.1
L122.917 175.89
L123.834 210.237
L124.751 195.484
L125.668 208.557
L126.586 185.383
L127.503 168.154
L128.42 216.685
L129.337 197.96
L130.255 198.369
L131.172 212.312
L132.089 189.653
L133.007 176.252
L133.924 178.984
L134.841 196.227
L135.758 191.29
L136.676 205.318
L137.593 243.211
L138.51 175.957
L139.427 191.348
L140.345 172.036
L141.262 214.689
L142.179 181.163
L143.096 173.814
L144.014 215.854
L144.931 231.003
L145.848 189.769
L146.765 166.214
L147.683 166.174
L148.6 166.514
L149.517 174.999
L150.434 157.892
L151.352 161.493
L152.269 166.96
L153.186 169.633
L154.104 180.091
L155.021 199.342
L155.938 183.02
L156.855 192.55
L157.773 170.509
L158.69 163.724
L159.607 175.097
L160.524 202.571
L161.442 207.857
L162.359 199.566
L163.276 183.776
L164.193 224.628
L165.111 225.892
L166.028 205.133
L166.945 172.373
L167.862 171.463
L168.78 177.067
L169.697 180.038
L170.614 178.542
L171.531 197.053
L172.449 186.184
L173.366 200.408
L174.283 230.965
L175.2 177.72
L176.118 185.116
L177.035 190.416
L177.952 220.565
L178.87 192.039
L179.787 170.657
L180.704 185.216
L181.621 176.509
L182.539 163.909
L183.456 169.414
L184.373 177.072
L185.29 180.872
L186.208 169.057
L187.125 176.379
L188.042 168.34
L188.959 177.805
L189.877 182.564
L190.794 178.391
L191.711 177.96
L192.628 175.085
L193.546 175.674
L194.463 169.901
L195.38 177.202
L196.297 176.224
L197.215 181.494
L198.132 194.141
L199.049 184.615
L199.967 179.002
L200.884 176.298
L201.801 186.195
L202.718 188.883
L203.636 188.036
L204.553 199.385
L205.47 192.028
L206.387 188.716
L207.305 190.515
L208.222 191.599
L209.139 203.369
L210.056 208.868
L210.974 195.172
L211.891 200.052
L212.808 184.929
L213.725 184.962
L214.643 193.493
L215.56 183.552
L216.477 186.086
L217.394 186.061
L218.312 187.095
L219.229 186.278
L220.146 186.465
L221.064 188.737
L221.981 190.44
L222.898 190.153
L223.815 188.098
L224.733 189.398
L225.65 187.288
L226.567 186.556
L227.484 181.555
L229.319 184.264
L230.236 190.26
L231.153 189.694
L232.071 192.603
L232.988 196.367
L233.905 192.162
L234.822 198.812
L235.74 188.963
L236.657 194.403
L237.574 194.757
L239.409 191.073
L240.326 190.794
L241.243 192.258
L242.16 190.851
L243.078 204.106
L243.995 194.949
L244.912 196.063
L245.83 191.215
L246.747 187.607
L247.664 178.342
L248.581 182.406
L249.499 195.003
L250.416 196.973
L251.333 188.132
L252.25 187.613
L253.168 185.248
L254.085 199.798
L255.002 192.666
L255.919 177.68
L257.754 184.537
L258.671 187.04
L259.588 196.319
L260.506 185.263
L261.423 187.541
L262.34 190.929
L263.257 186.433
L264.175 183.919
L265.092 176.315
L266.009 181.393
L266.927 187.448
L267.844 185.692
L268.761 189.165
L269.678 187.151
L270.596 186.414
L271.513 192.878
L272.43 195.519
L273.347 196.188
L274.265 194.193
L275.182 221.388
L276.099 201.65
L277.016 201.763
L277.934 199.4
L278.851 191.434
L279.768 194.14
L280.685 195.38
L281.603 194.659
L282.52 190.539
L283.437 190.433
L284.354 178.248
L285.272 178.825
L286.189 175.296
L287.106 176.785
L288.024 179.286
L288.941 179.112
L289.858 186.207
L290.775 189.503
L291.693 190.177
L292.61 190.241
L293.527 216.105
L294.444 202.987
L295.362 208.004
L296.279 209.902
L297.196 194.927
L298.113 187.904
L299.031 200.732
L299.948 215.364
L300.865 195.752
L301.782 234.904
L302.7 240.409
L303.617 229.617
L304.534 231.973
L305.451 209.672
L306.369 218.522
L307.286 233.556
L308.203 210.458
L309.12 201.744
L310.038 197.118
L310.955 212.949
L311.872 204.468
L312.79 209.651
L313.707 204.65
L314.624 213.971
L315.541 206.359
L316.459 212.836
L317.376 223.682
L318.293 241.063
L319.21 229.196
L320.128 230.611
L321.045 226.307
L321.962 230.93
L322.879 229.482
L323.797 224.328
L324.714 215.147
L325.631 230.485
L326.548 228.016
L327.466 226.871
L328.383 220.594
L329.3 232.21
L330.217 208.313
L331.135 192.401
L332.052 219.198
L332.969 230.448
L333.887 218.219
L334.804 207.713
L335.721 217.259
L336.638 223.9
L337.556 233.298
L338.473 231.678
L339.39 240.703
L340.307 210.597
L341.225 227.13
L342.142 234.729
L343.059 223.637
L343.976 215.786
L344.894 229.505
L345.811 217.491
L346.728 237.381
L347.645 222.888
L348.563 239.723
L349.48 225.4
L350.397 233.628
L351.314 234.495
M353.149 232.764
L354.066 223.76
L354.984 221.03
L355.901 189.96
L356.818 186.31
L357.735 215.406
L358.653 235.855
L359.57 236.129
L360.487 221.074
L361.404 237.063
L362.322 239.607
L363.239 225.844
L364.156 225.016
L365.073 240.525
L365.073 240.525" style="fill:none;stroke:#000000;stroke-linecap:square;"/>
   </g>
   <g id="line2d_15">
    <path clip-path="url(#p95a2ee5e18)" d="
M31.1906 217.953
L32.1079 211.64
L33.0251 183.052
L33.9424 150.633
L34.8597 127.371
L35.7769 157.856
L36.6942 205.99
L37.6114 227.384
L38.5287 161.212
L39.446 215.779
L40.3632 183.332
L41.2805 113.391
L42.1977 145.914
L43.115 182.733
L44.0323 164.175
L44.9495 176.3
L45.8668 172.379
L46.784 111.663
L47.7013 94.5199
L48.6186 134.467
L49.5358 118.431
L50.4531 63.1881
L51.3704 55.293
L52.2876 165.456
L53.2049 221.489
L54.1221 224.921
L55.0394 209.321
L55.9567 221.782
L56.8739 244.016
L57.7912 239.061
L58.7084 221.164
L60.543 192.853
L61.4602 173.704
L62.3775 141.358
L63.2947 150.345
L64.212 161.167
L65.1293 139.728
L66.0465 189.111
L66.9638 145.195
L67.881 121.596
L68.7983 76.8727
L69.7156 163.467
L70.6328 176.987
L71.5501 152.668
L72.4673 136.247
L73.3846 169.808
L74.3019 192.438
L75.2191 85.8925
L76.1364 142.287
L77.0536 180.587
L77.9709 153.382
L78.8882 210.719
L80.7227 170.394
L81.6399 167.135
L82.5572 150.215
L83.4745 95.7502
L84.3917 165.642
L85.309 197.78
L86.2262 159.752
L87.1435 142.921
L88.0608 35.6201
L88.978 68.9592
L89.8953 159.757
L90.8125 117.044
L91.7298 90.7935
L92.6471 87.0732
L93.5643 50.9391
L94.4816 160.265
L95.3988 149.077
L96.3161 110.991
L97.2334 98.9955
L98.1506 105.924
L99.0679 139.524
L99.9851 97.3516
L100.902 98.84
L101.82 27.6654
L102.737 141.646
L103.654 124.198
L104.571 160.86
L105.489 76.1743
L106.406 45.1076
L107.323 50.103
L108.24 166.668
L109.158 149.475
L110.075 107.136
L110.992 125.753
L111.91 106.909
L112.827 99.0846
L113.744 133.922
L115.579 95.5336
L116.496 146.599
L117.413 171.945
L118.33 182.216
L119.248 203.67
L120.165 130.851
L121.082 83.864
L121.999 133.238
L122.917 103.239
L123.834 66.6602
L124.751 139.827
L125.668 93.6801
L126.586 142.806
L127.503 108.39
L128.42 39.1795
L129.337 37.445
L130.255 181.116
L131.172 163.327
L132.089 110.691
L133.007 94.8436
L133.924 51.1144
L134.841 46.9603
L135.758 47.3212
L136.676 78.2589
L137.593 88.9726
L138.51 71.3707
L139.427 99.2496
L140.345 56.7416
L141.262 58.9829
L142.179 35.491
L143.096 67.4704
L144.014 111.143
L144.931 90.8054
L146.765 142.022
L147.683 142.646
L148.6 116.299
L149.517 107.444
L150.434 108.932
L151.352 109.792
L152.269 117.931
L153.186 113.299
L154.104 102.284
L155.021 132.235
L155.938 183.269
L156.855 130.475
L157.773 152.072
L158.69 105.925
L159.607 96.8021
L160.524 107.285
L161.442 27.2682
L162.359 55.826
L163.276 88.7016
L164.193 152.3
L165.111 171.71
L166.028 202.624
L166.945 187.05
L167.862 131.736
L168.78 109.87
L169.697 91.5418
L170.614 86.5141
L171.531 94.5439
L172.449 97.7679
L173.366 98.3586
L174.283 107.316
L176.118 116.471
L177.035 108.861
L177.952 116.911
L178.87 109.766
L179.787 104.599
L180.704 122.36
L181.621 135.38
L182.539 70.5198
L183.456 102.895
L184.373 101.034
L185.29 109.5
L186.208 183.371
L187.125 148.282
L188.042 131.239
L188.959 125.233
L189.877 104.005
L190.794 192.372
L191.711 210.462
L192.628 172.496
L193.546 127.008
L194.463 127.396
L195.38 133.402
L196.297 134.673
L197.215 148.47
M296.279 95.2577
L297.196 97.0261
L298.113 92.4608
L299.948 111.384
L300.865 99.5716
L301.782 101.031
L302.7 96.6918
L303.617 98.2112
L304.534 96.6267
L305.451 99.2908
L306.369 182.62
L307.286 206.843
L308.203 180.437
L309.12 194.327
L310.038 169.684
L310.955 179.091
L311.872 183.058
L312.79 146.951
L313.707 174.699
L314.624 197.385
L316.459 133.325
L317.376 113.991
L318.293 106.407
L319.21 109.207
L320.128 99.8078
L321.045 145.287
L321.962 147.929
L322.879 176.29
L323.797 188.568
L324.714 147.231
L325.631 113.543
L326.548 185.386
L327.466 178.8
L328.383 94.3033
L329.3 81.0033
L330.217 97.8167
L332.052 102.705
L332.969 100.32
L333.887 101.946
L334.804 124.23
L335.721 126.99
L336.638 181.273
L337.556 201.876
L338.473 175.722
L339.39 126.67
L340.307 183.015
L342.142 135.414
L343.059 196.366
L343.976 107.342
L344.894 59.541
L345.811 123.18
L346.728 162.805
L347.645 127.791
L348.563 169.653
L349.48 175.881
L350.397 98.7519
L351.314 100.948
L352.232 72.2212
L353.149 143.783
L354.066 184.347
L354.984 137.009
L355.901 204.779
L356.818 212.496
L357.735 183.833
L358.653 144.698
L359.57 99.0195
L360.487 84.8599
L361.404 78.4704
L362.322 118.976
L363.239 104.157
L364.156 144.482
L365.073 167.394
L365.073 167.394" style="fill:none;stroke:#0000ff;stroke-linecap:square;"/>
   </g>
   <g id="line2d_16">
    <path clip-path="url(#p95a2ee5e18)" d="
M31.1906 233.113
L32.1079 223.704
L33.0251 220.263
L33.9424 222.483
L34.8597 212.375
L35.7769 207.842
L36.6942 220.186
M38.5287 228.186
L39.446 236.999
L40.3632 234.558
L41.2805 238.321
L42.1977 237.267
L43.115 228.715
L44.0323 215.02
L44.9495 216.367
L45.8668 215.321
L46.784 219.865
L47.7013 212.626
L48.6186 216.147
L49.5358 217.512
L50.4531 221.707
L51.3704 217.423
M58.7084 219.347
L59.6257 231.166
L60.543 218.293
M62.3775 236.084
L63.2947 237.321
M66.9638 233.793
L67.881 228.05
L68.7983 232.081
L69.7156 236.828
L70.6328 231.627
L71.5501 230.546
L72.4673 226.867
L73.3846 231.988
L74.3019 207.086
L75.2191 230.742
L76.1364 232.644
L77.0536 235.048
L77.9709 224.12
L78.8882 221.522
L79.8054 217.285
L80.7227 214.033
L81.6399 214.287
L82.5572 215.407
L83.4745 230.662
L84.3917 218.967
L85.309 233.425
L86.2262 229.579
L87.1435 233.087
L88.0608 203.97
L88.978 223.301
L90.8125 214.393
L91.7298 196.502
L92.6471 223.577
L93.5643 236.01
L94.4816 203.949
L95.3988 192.793
L96.3161 184.638
L97.2334 212.113
L98.1506 187.425
L99.0679 188.729
L99.9851 214.285
L100.902 210.869
L101.82 175.248
L102.737 174.675
L103.654 168.817
L104.571 167.731
L105.489 170.782
L106.406 180.698
L107.323 207.017
L108.24 205.96
M110.075 222.398
L110.992 227.047
L112.827 195.647
L113.744 236.827
L114.661 225.356
L115.579 193.917
L116.496 201.618
L117.413 195.836
L118.33 193.375
L119.248 179.223
L120.165 186.422
L121.082 181.87
L121.999 175.704
L122.917 175.273
L123.834 175.047
L124.751 167.441
L125.668 163.068
L126.586 174.429
L127.503 162.307
L128.42 183.006
L129.337 173.351
L130.255 175.89
L131.172 169.606
L132.089 180.277
L133.007 226.043
L133.924 190.405
L134.841 199.408
L135.758 225.247
L136.676 194.137
L137.593 185.608
L138.51 184.909
L139.427 158.62
L140.345 166.374
L141.262 172.125
L142.179 179.136
L143.096 183.717
L144.014 186.57
L144.931 196.431
L145.848 175.275
L146.765 170.928
L147.683 186.369
L148.6 184.031
L149.517 190.126
L150.434 163.067
L151.352 165.762
L152.269 161.427
L153.186 171.859
L154.104 179.906
L155.021 192.845
L155.938 170.999
L156.855 189.716
L157.773 170.027
L158.69 189.612
L159.607 199.217
L160.524 172.616
L161.442 180.074
L162.359 189.395
L163.276 188.061
L164.193 173.379
L165.111 173.518
L166.028 174.483
L166.945 163.189
L167.862 176.205
L168.78 173.579
L169.697 183.164
L171.531 172.338
L172.449 172.994
L173.366 171.293
L174.283 169.145
L175.2 179.15
L176.118 172.566
L177.035 177.889
L177.952 173.226
L178.87 170.251
L179.787 185.727
L180.704 194.68
L181.621 188.309
L182.539 189.272
L183.456 192.372
L184.373 186.698
L185.29 208.642
L186.208 170.668
L187.125 177.746
L188.042 176.477
L188.959 175.755
L189.877 177.894
L190.794 186.012
L191.711 212.584
L192.628 197.559
L193.546 198.41
L194.463 177.721
L195.38 170.491
L196.297 173.188
L197.215 179.149
L198.132 197.468
L199.049 194.514
L199.967 190.635
L200.884 185.422
L201.801 186.963
L202.718 186.965
L203.636 195.232
L204.553 205.54
L205.47 187.739
L206.387 190.3
L207.305 186.889
L208.222 191.185
L209.139 192.715
L210.056 188.987
L210.974 191.634
L211.891 202.331
L212.808 187.841
L213.725 191.63
L214.643 193.043
L215.56 208.176
L216.477 194.736
L217.394 188.917
L218.312 178.156
L219.229 178.361
L220.146 184.757
L221.064 189.97
L221.981 199.085
L222.898 197.139
L223.815 200.354
L224.733 191.948
L225.65 196.37
L226.567 197.551
L227.484 199.242
L228.402 196.451
L229.319 202.644
L230.236 198.766
L231.153 193.271
L232.071 196.613
L232.988 197.758
L233.905 193.584
L234.822 201.74
L235.74 193.701
L236.657 213.424
L237.574 194.834
L238.491 189.205
L239.409 190.451
L240.326 190.776
L241.243 192.955
L242.16 203.263
L243.078 201.176
L243.995 194.821
L244.912 194.005
L245.83 197.383
L246.747 192.091
L247.664 205.391
L248.581 197.26
L249.499 191.936
L250.416 197.612
L251.333 196.635
L252.25 207.033
L253.168 195.232
L254.085 189.134
L255.002 190.575
L255.919 189.787
L256.837 187.257
L257.754 188.971
L258.671 193.731
L259.588 196.365
L260.506 195.899
L261.423 192.022
L262.34 192.624
L263.257 186.471
L264.175 185.373
L265.092 198.916
L266.009 199.047
L266.927 201.455
L267.844 205.595
L268.761 209.114
L269.678 210.989
L270.596 203.069
L271.513 202.315
L272.43 217.982
L273.347 207.6
L274.265 217.923
L275.182 204.915
L276.099 202.549
L277.016 202.847
L277.934 222.834
L278.851 227.464
L279.768 232.702
L280.685 208.402
L281.603 198.856
L282.52 192.877
L283.437 195.102
L286.189 204.056
L287.106 205.414
L288.024 204.127
L288.941 203.033
L289.858 205.428
L290.775 213.455
L291.693 215.975
L292.61 199.404
L293.527 211.32
L294.444 225.001
L296.279 202.615
L297.196 206.64
L298.113 214.551
L299.031 209.448
L299.948 223.765
L300.865 212.303
L301.782 229.799
L302.7 215.758
L303.617 221.362
L304.534 219.821
L305.451 214.312
L306.369 202.594
L307.286 216.241
L308.203 211.874
L309.12 221.338
L310.038 235.805
M311.872 228.358
L312.79 230.545
L313.707 222.761
L314.624 218.63
L315.541 221.026
L316.459 217.01
L317.376 226.469
L318.293 227.619
L319.21 221.149
L320.128 197.121
L321.045 226.161
M322.879 242.473
L323.797 230.384
L324.714 228.329
L325.631 224.597
L326.548 221.724
L327.466 221.293
L328.383 226.216
L329.3 235.831
L330.217 229.529
L331.135 222.285
L332.052 235.35
L332.969 223.639
L333.887 224.687
L334.804 218.115
L335.721 230.911
L336.638 223.342
L337.556 233.812
L338.473 230.831
L339.39 226.407
L340.307 226.33
L341.225 224.978
L342.142 233.16
L343.059 224.853
L343.976 235
L344.894 227.018
L345.811 224.631
L346.728 223.087
L347.645 237.422
L348.563 241.175
L349.48 223.225
L350.397 224.613
L351.314 234.523
L352.232 230.942
L353.149 236.648
L354.066 240.165
L354.984 241.599
L355.901 241.583
L356.818 244.163
L357.735 231.589
L358.653 239.723
L359.57 243.607
M361.404 238.427
L362.322 243.887
L363.239 243.972
L364.156 244.399
L364.156 244.399" style="fill:none;stroke:#008000;stroke-linecap:square;"/>
   </g>
   <g id="patch_3">
    <path d="
M365.991 244.518
L365.991 21.3181" style="fill:none;stroke:#000000;stroke-linecap:square;stroke-linejoin:miter;"/>
   </g>
   <g id="patch_4">
    <path d="
M31.1906 244.518
L365.991 244.518" style="fill:none;stroke:#000000;stroke-linecap:square;stroke-linejoin:miter;"/>
   </g>
   <g id="patch_5">
    <path d="
M31.1906 244.518
L31.1906 21.3181" style="fill:none;stroke:#000000;stroke-linecap:square;stroke-linejoin:miter;"/>
   </g>
   <g id="patch_6">
    <path d="
M31.1906 21.3181
L365.991 21.3181" style="fill:none;stroke:#000000;stroke-linecap:square;stroke-linejoin:miter;"/>
   </g>
   <g id="matplotlib.axis_1">
    <g id="xtick_1">
     <g id="line2d_17">
      <defs>
       <path d="
M0 0
L0 -4" id="mc7db9fdffb" style="stroke:#000000;stroke-width:0.5;"/>
      </defs>
      <g>
       <use style="stroke:#000000;stroke-width:0.5;" x="31.190625" xlink:href="#mc7db9fdffb" y="244.518125"/>
      </g>
     </g>
     <g id="line2d_18">
      <defs>
       <path d="
M0 0
L0 4" id="m5a7d422ac3" style="stroke:#000000;stroke-width:0.5;"/>
      </defs>
      <g>
       <use style="stroke:#000000;stroke-width:0.5;" x="31.190625" xlink:href="#m5a7d422ac3" y="21.318125"/>
      </g>
     </g>
     <g id="text_1">
      <!-- 0 -->
      <defs>
       <path d="
M31.7812 66.4062
Q24.1719 66.4062 20.3281 58.9062
Q16.5 51.4219 16.5 36.375
Q16.5 21.3906 20.3281 13.8906
Q24.1719 6.39062 31.7812 6.39062
Q39.4531 6.39062 43.2812 13.8906
Q47.125 21.3906 47.125 36.375
Q47.125 51.4219 43.2812 58.9062
Q39.4531 66.4062 31.7812 66.4062
M31.7812 74.2188
Q44.0469 74.2188 50.5156 64.5156
Q56.9844 54.8281 56.9844 36.375
Q56.9844 17.9688 50.5156 8.26562
Q44.0469 -1.42188 31.7812 -1.42188
Q19.5312 -1.42188 13.0625 8.26562
Q6.59375 17.9688 6.59375 36.375
Q6.59375 54.8281 13.0625 64.5156
Q19.5312 74.2188 31.7812 74.2188" id="BitstreamVeraSans-Roman-30"/>
      </defs>
      <g transform="translate(28.67109375 256.1165625)scale(0.1 -0.1)">
       <use xlink:href="#BitstreamVeraSans-Roman-30"/>
      </g>
     </g>
    </g>
    <g id="xtick_2">
     <g id="line2d_19">
      <g>
       <use style="stroke:#000000;stroke-width:0.5;" x="77.0536386986" xlink:href="#mc7db9fdffb" y="244.518125"/>
      </g>
     </g>
     <g id="line2d_20">
      <g>
       <use style="stroke:#000000;stroke-width:0.5;" x="77.0536386986" xlink:href="#m5a7d422ac3" y="21.318125"/>
      </g>
     </g>
     <g id="text_2">
      <!-- 50 -->
      <defs>
       <path d="
M10.7969 72.9062
L49.5156 72.9062
L49.5156 64.5938
L19.8281 64.5938
L19.8281 46.7344
Q21.9688 47.4688 24.1094 47.8281
Q26.2656 48.1875 28.4219 48.1875
Q40.625 48.1875 47.75 41.5
Q54.8906 34.8125 54.8906 23.3906
Q54.8906 11.625 47.5625 5.09375
Q40.2344 -1.42188 26.9062 -1.42188
Q22.3125 -1.42188 17.5469 -0.640625
Q12.7969 0.140625 7.71875 1.70312
L7.71875 11.625
Q12.1094 9.23438 16.7969 8.0625
Q21.4844 6.89062 26.7031 6.89062
Q35.1562 6.89062 40.0781 11.3281
Q45.0156 15.7656 45.0156 23.3906
Q45.0156 31 40.0781 35.4375
Q35.1562 39.8906 26.7031 39.8906
Q22.75 39.8906 18.8125 39.0156
Q14.8906 38.1406 10.7969 36.2812
z
" id="BitstreamVeraSans-Roman-35"/>
      </defs>
      <g transform="translate(71.4091074486 256.1165625)scale(0.1 -0.1)">
       <use xlink:href="#BitstreamVeraSans-Roman-35"/>
       <use x="63.623046875" xlink:href="#BitstreamVeraSans-Roman-30"/>
      </g>
     </g>
    </g>
    <g id="xtick_3">
     <g id="line2d_21">
      <g>
       <use style="stroke:#000000;stroke-width:0.5;" x="122.916652397" xlink:href="#mc7db9fdffb" y="244.518125"/>
      </g>
     </g>
     <g id="line2d_22">
      <g>
       <use style="stroke:#000000;stroke-width:0.5;" x="122.916652397" xlink:href="#m5a7d422ac3" y="21.318125"/>
      </g>
     </g>
     <g id="text_3">
      <!-- 100 -->
      <defs>
       <path d="
M12.4062 8.29688
L28.5156 8.29688
L28.5156 63.9219
L10.9844 60.4062
L10.9844 69.3906
L28.4219 72.9062
L38.2812 72.9062
L38.2812 8.29688
L54.3906 8.29688
L54.3906 0
L12.4062 0
z
" id="BitstreamVeraSans-Roman-31"/>
      </defs>
      <g transform="translate(114.254152397 256.1165625)scale(0.1 -0.1)">
       <use xlink:href="#BitstreamVeraSans-Roman-31"/>
       <use x="63.623046875" xlink:href="#BitstreamVeraSans-Roman-30"/>
       <use x="127.24609375" xlink:href="#BitstreamVeraSans-Roman-30"/>
      </g>
     </g>
    </g>
    <g id="xtick_4">
     <g id="line2d_23">
      <g>
       <use style="stroke:#000000;stroke-width:0.5;" x="168.779666096" xlink:href="#mc7db9fdffb" y="244.518125"/>
      </g>
     </g>
     <g id="line2d_24">
      <g>
       <use style="stroke:#000000;stroke-width:0.5;" x="168.779666096" xlink:href="#m5a7d422ac3" y="21.318125"/>
      </g>
     </g>
     <g id="text_4">
      <!-- 150 -->
      <g transform="translate(160.117166096 256.1165625)scale(0.1 -0.1)">
       <use xlink:href="#BitstreamVeraSans-Roman-31"/>
       <use x="63.623046875" xlink:href="#BitstreamVeraSans-Roman-35"/>
       <use x="127.24609375" xlink:href="#BitstreamVeraSans-Roman-30"/>
      </g>
     </g>
    </g>
    <g id="xtick_5">
     <g id="line2d_25">
      <g>
       <use style="stroke:#000000;stroke-width:0.5;" x="214.642679795" xlink:href="#mc7db9fdffb" y="244.518125"/>
      </g>
     </g>
     <g id="line2d_26">
      <g>
       <use style="stroke:#000000;stroke-width:0.5;" x="214.642679795" xlink:href="#m5a7d422ac3" y="21.318125"/>
      </g>
     </g>
     <g id="text_5">
      <!-- 200 -->
      <defs>
       <path d="
M19.1875 8.29688
L53.6094 8.29688
L53.6094 0
L7.32812 0
L7.32812 8.29688
Q12.9375 14.1094 22.625 23.8906
Q32.3281 33.6875 34.8125 36.5312
Q39.5469 41.8438 41.4219 45.5312
Q43.3125 49.2188 43.3125 52.7812
Q43.3125 58.5938 39.2344 62.25
Q35.1562 65.9219 28.6094 65.9219
Q23.9688 65.9219 18.8125 64.3125
Q13.6719 62.7031 7.8125 59.4219
L7.8125 69.3906
Q13.7656 71.7812 18.9375 73
Q24.125 74.2188 28.4219 74.2188
Q39.75 74.2188 46.4844 68.5469
Q53.2188 62.8906 53.2188 53.4219
Q53.2188 48.9219 51.5312 44.8906
Q49.8594 40.875 45.4062 35.4062
Q44.1875 33.9844 37.6406 27.2188
Q31.1094 20.4531 19.1875 8.29688" id="BitstreamVeraSans-Roman-32"/>
      </defs>
      <g transform="translate(205.797367295 256.1165625)scale(0.1 -0.1)">
       <use xlink:href="#BitstreamVeraSans-Roman-32"/>
       <use x="63.623046875" xlink:href="#BitstreamVeraSans-Roman-30"/>
       <use x="127.24609375" xlink:href="#BitstreamVeraSans-Roman-30"/>
      </g>
     </g>
    </g>
    <g id="xtick_6">
     <g id="line2d_27">
      <g>
       <use style="stroke:#000000;stroke-width:0.5;" x="260.505693493" xlink:href="#mc7db9fdffb" y="244.518125"/>
      </g>
     </g>
     <g id="line2d_28">
      <g>
       <use style="stroke:#000000;stroke-width:0.5;" x="260.505693493" xlink:href="#m5a7d422ac3" y="21.318125"/>
      </g>
     </g>
     <g id="text_6">
      <!-- 250 -->
      <g transform="translate(251.660380993 256.1165625)scale(0.1 -0.1)">
       <use xlink:href="#BitstreamVeraSans-Roman-32"/>
       <use x="63.623046875" xlink:href="#BitstreamVeraSans-Roman-35"/>
       <use x="127.24609375" xlink:href="#BitstreamVeraSans-Roman-30"/>
      </g>
     </g>
    </g>
    <g id="xtick_7">
     <g id="line2d_29">
      <g>
       <use style="stroke:#000000;stroke-width:0.5;" x="306.368707192" xlink:href="#mc7db9fdffb" y="244.518125"/>
      </g>
     </g>
     <g id="line2d_30">
      <g>
       <use style="stroke:#000000;stroke-width:0.5;" x="306.368707192" xlink:href="#m5a7d422ac3" y="21.318125"/>
      </g>
     </g>
     <g id="text_7">
      <!-- 300 -->
      <defs>
       <path d="
M40.5781 39.3125
Q47.6562 37.7969 51.625 33
Q55.6094 28.2188 55.6094 21.1875
Q55.6094 10.4062 48.1875 4.48438
Q40.7656 -1.42188 27.0938 -1.42188
Q22.5156 -1.42188 17.6562 -0.515625
Q12.7969 0.390625 7.625 2.20312
L7.625 11.7188
Q11.7188 9.32812 16.5938 8.10938
Q21.4844 6.89062 26.8125 6.89062
Q36.0781 6.89062 40.9375 10.5469
Q45.7969 14.2031 45.7969 21.1875
Q45.7969 27.6406 41.2812 31.2656
Q36.7656 34.9062 28.7188 34.9062
L20.2188 34.9062
L20.2188 43.0156
L29.1094 43.0156
Q36.375 43.0156 40.2344 45.9219
Q44.0938 48.8281 44.0938 54.2969
Q44.0938 59.9062 40.1094 62.9062
Q36.1406 65.9219 28.7188 65.9219
Q24.6562 65.9219 20.0156 65.0312
Q15.375 64.1562 9.8125 62.3125
L9.8125 71.0938
Q15.4375 72.6562 20.3438 73.4375
Q25.25 74.2188 29.5938 74.2188
Q40.8281 74.2188 47.3594 69.1094
Q53.9062 64.0156 53.9062 55.3281
Q53.9062 49.2656 50.4375 45.0938
Q46.9688 40.9219 40.5781 39.3125" id="BitstreamVeraSans-Roman-33"/>
      </defs>
      <g transform="translate(297.538238442 256.1165625)scale(0.1 -0.1)">
       <use xlink:href="#BitstreamVeraSans-Roman-33"/>
       <use x="63.623046875" xlink:href="#BitstreamVeraSans-Roman-30"/>
       <use x="127.24609375" xlink:href="#BitstreamVeraSans-Roman-30"/>
      </g>
     </g>
    </g>
    <g id="xtick_8">
     <g id="line2d_31">
      <g>
       <use style="stroke:#000000;stroke-width:0.5;" x="352.23172089" xlink:href="#mc7db9fdffb" y="244.518125"/>
      </g>
     </g>
     <g id="line2d_32">
      <g>
       <use style="stroke:#000000;stroke-width:0.5;" x="352.23172089" xlink:href="#m5a7d422ac3" y="21.318125"/>
      </g>
     </g>
     <g id="text_8">
      <!-- 350 -->
      <g transform="translate(343.40125214 256.1165625)scale(0.1 -0.1)">
       <use xlink:href="#BitstreamVeraSans-Roman-33"/>
       <use x="63.623046875" xlink:href="#BitstreamVeraSans-Roman-35"/>
       <use x="127.24609375" xlink:href="#BitstreamVeraSans-Roman-30"/>
      </g>
     </g>
    </g>
    <g id="text_9">
     <!-- Julian day -->
     <defs>
      <path d="
M9.8125 72.9062
L19.6719 72.9062
L19.6719 5.07812
Q19.6719 -8.10938 14.6719 -14.0625
Q9.67188 -20.0156 -1.42188 -20.0156
L-5.17188 -20.0156
L-5.17188 -11.7188
L-2.09375 -11.7188
Q4.4375 -11.7188 7.125 -8.04688
Q9.8125 -4.39062 9.8125 5.07812
z
" id="BitstreamVeraSans-Roman-4a"/>
      <path d="
M45.4062 46.3906
L45.4062 75.9844
L54.3906 75.9844
L54.3906 0
L45.4062 0
L45.4062 8.20312
Q42.5781 3.32812 38.25 0.953125
Q33.9375 -1.42188 27.875 -1.42188
Q17.9688 -1.42188 11.7344 6.48438
Q5.51562 14.4062 5.51562 27.2969
Q5.51562 40.1875 11.7344 48.0938
Q17.9688 56 27.875 56
Q33.9375 56 38.25 53.625
Q42.5781 51.2656 45.4062 46.3906
M14.7969 27.2969
Q14.7969 17.3906 18.875 11.75
Q22.9531 6.10938 30.0781 6.10938
Q37.2031 6.10938 41.2969 11.75
Q45.4062 17.3906 45.4062 27.2969
Q45.4062 37.2031 41.2969 42.8438
Q37.2031 48.4844 30.0781 48.4844
Q22.9531 48.4844 18.875 42.8438
Q14.7969 37.2031 14.7969 27.2969" id="BitstreamVeraSans-Roman-64"/>
      <path d="
M54.8906 33.0156
L54.8906 0
L45.9062 0
L45.9062 32.7188
Q45.9062 40.4844 42.875 44.3281
Q39.8438 48.1875 33.7969 48.1875
Q26.5156 48.1875 22.3125 43.5469
Q18.1094 38.9219 18.1094 30.9062
L18.1094 0
L9.07812 0
L9.07812 54.6875
L18.1094 54.6875
L18.1094 46.1875
Q21.3438 51.125 25.7031 53.5625
Q30.0781 56 35.7969 56
Q45.2188 56 50.0469 50.1719
Q54.8906 44.3438 54.8906 33.0156" id="BitstreamVeraSans-Roman-6e"/>
      <path d="
M34.2812 27.4844
Q23.3906 27.4844 19.1875 25
Q14.9844 22.5156 14.9844 16.5
Q14.9844 11.7188 18.1406 8.90625
Q21.2969 6.10938 26.7031 6.10938
Q34.1875 6.10938 38.7031 11.4062
Q43.2188 16.7031 43.2188 25.4844
L43.2188 27.4844
z

M52.2031 31.2031
L52.2031 0
L43.2188 0
L43.2188 8.29688
Q40.1406 3.32812 35.5469 0.953125
Q30.9531 -1.42188 24.3125 -1.42188
Q15.9219 -1.42188 10.9531 3.29688
Q6 8.01562 6 15.9219
Q6 25.1406 12.1719 29.8281
Q18.3594 34.5156 30.6094 34.5156
L43.2188 34.5156
L43.2188 35.4062
Q43.2188 41.6094 39.1406 45
Q35.0625 48.3906 27.6875 48.3906
Q23 48.3906 18.5469 47.2656
Q14.1094 46.1406 10.0156 43.8906
L10.0156 52.2031
Q14.9375 54.1094 19.5781 55.0469
Q24.2188 56 28.6094 56
Q40.4844 56 46.3438 49.8438
Q52.2031 43.7031 52.2031 31.2031" id="BitstreamVeraSans-Roman-61"/>
      <path d="
M8.5 21.5781
L8.5 54.6875
L17.4844 54.6875
L17.4844 21.9219
Q17.4844 14.1562 20.5 10.2656
Q23.5312 6.39062 29.5938 6.39062
Q36.8594 6.39062 41.0781 11.0312
Q45.3125 15.6719 45.3125 23.6875
L45.3125 54.6875
L54.2969 54.6875
L54.2969 0
L45.3125 0
L45.3125 8.40625
Q42.0469 3.42188 37.7188 1
Q33.4062 -1.42188 27.6875 -1.42188
Q18.2656 -1.42188 13.375 4.4375
Q8.5 10.2969 8.5 21.5781" id="BitstreamVeraSans-Roman-75"/>
      <path d="
M9.42188 54.6875
L18.4062 54.6875
L18.4062 0
L9.42188 0
z

M9.42188 75.9844
L18.4062 75.9844
L18.4062 64.5938
L9.42188 64.5938
z
" id="BitstreamVeraSans-Roman-69"/>
      <path d="
M32.1719 -5.07812
Q28.375 -14.8438 24.75 -17.8125
Q21.1406 -20.7969 15.0938 -20.7969
L7.90625 -20.7969
L7.90625 -13.2812
L13.1875 -13.2812
Q16.8906 -13.2812 18.9375 -11.5156
Q21 -9.76562 23.4844 -3.21875
L25.0938 0.875
L2.98438 54.6875
L12.5 54.6875
L29.5938 11.9219
L46.6875 54.6875
L56.2031 54.6875
z
" id="BitstreamVeraSans-Roman-79"/>
      <path id="BitstreamVeraSans-Roman-20"/>
      <path d="
M9.42188 75.9844
L18.4062 75.9844
L18.4062 0
L9.42188 0
z
" id="BitstreamVeraSans-Roman-6c"/>
     </defs>
     <g transform="translate(174.03984375 270.7946875)scale(0.1 -0.1)">
      <use xlink:href="#BitstreamVeraSans-Roman-4a"/>
      <use x="29.4921875" xlink:href="#BitstreamVeraSans-Roman-75"/>
      <use x="92.87109375" xlink:href="#BitstreamVeraSans-Roman-6c"/>
      <use x="120.654296875" xlink:href="#BitstreamVeraSans-Roman-69"/>
      <use x="148.4375" xlink:href="#BitstreamVeraSans-Roman-61"/>
      <use x="209.716796875" xlink:href="#BitstreamVeraSans-Roman-6e"/>
      <use x="273.095703125" xlink:href="#BitstreamVeraSans-Roman-20"/>
      <use x="304.8828125" xlink:href="#BitstreamVeraSans-Roman-64"/>
      <use x="368.359375" xlink:href="#BitstreamVeraSans-Roman-61"/>
      <use x="429.638671875" xlink:href="#BitstreamVeraSans-Roman-79"/>
     </g>
    </g>
   </g>
   <g id="matplotlib.axis_2">
    <g id="ytick_1">
     <g id="line2d_33">
      <defs>
       <path d="
M0 0
L4 0" id="md7965d1ba0" style="stroke:#000000;stroke-width:0.5;"/>
      </defs>
      <g>
       <use style="stroke:#000000;stroke-width:0.5;" x="31.190625" xlink:href="#md7965d1ba0" y="244.518125"/>
      </g>
     </g>
     <g id="line2d_34">
      <defs>
       <path d="
M0 0
L-4 0" id="md9a1c1a7cd" style="stroke:#000000;stroke-width:0.5;"/>
      </defs>
      <g>
       <use style="stroke:#000000;stroke-width:0.5;" x="365.990625" xlink:href="#md9a1c1a7cd" y="244.518125"/>
      </g>
     </g>
     <g id="text_10">
      <!-- 0 -->
      <g transform="translate(22.1515625 247.2775)scale(0.1 -0.1)">
       <use xlink:href="#BitstreamVeraSans-Roman-30"/>
      </g>
     </g>
    </g>
    <g id="ytick_2">
     <g id="line2d_35">
      <g>
       <use style="stroke:#000000;stroke-width:0.5;" x="31.190625" xlink:href="#md7965d1ba0" y="216.618125"/>
      </g>
     </g>
     <g id="line2d_36">
      <g>
       <use style="stroke:#000000;stroke-width:0.5;" x="365.990625" xlink:href="#md9a1c1a7cd" y="216.618125"/>
      </g>
     </g>
     <g id="text_11">
      <!-- 1 -->
      <g transform="translate(22.85 219.3775)scale(0.1 -0.1)">
       <use xlink:href="#BitstreamVeraSans-Roman-31"/>
      </g>
     </g>
    </g>
    <g id="ytick_3">
     <g id="line2d_37">
      <g>
       <use style="stroke:#000000;stroke-width:0.5;" x="31.190625" xlink:href="#md7965d1ba0" y="188.718125"/>
      </g>
     </g>
     <g id="line2d_38">
      <g>
       <use style="stroke:#000000;stroke-width:0.5;" x="365.990625" xlink:href="#md9a1c1a7cd" y="188.718125"/>
      </g>
     </g>
     <g id="text_12">
      <!-- 2 -->
      <g transform="translate(22.5625 191.4775)scale(0.1 -0.1)">
       <use xlink:href="#BitstreamVeraSans-Roman-32"/>
      </g>
     </g>
    </g>
    <g id="ytick_4">
     <g id="line2d_39">
      <g>
       <use style="stroke:#000000;stroke-width:0.5;" x="31.190625" xlink:href="#md7965d1ba0" y="160.818125"/>
      </g>
     </g>
     <g id="line2d_40">
      <g>
       <use style="stroke:#000000;stroke-width:0.5;" x="365.990625" xlink:href="#md9a1c1a7cd" y="160.818125"/>
      </g>
     </g>
     <g id="text_13">
      <!-- 3 -->
      <g transform="translate(22.3921875 163.5775)scale(0.1 -0.1)">
       <use xlink:href="#BitstreamVeraSans-Roman-33"/>
      </g>
     </g>
    </g>
    <g id="ytick_5">
     <g id="line2d_41">
      <g>
       <use style="stroke:#000000;stroke-width:0.5;" x="31.190625" xlink:href="#md7965d1ba0" y="132.918125"/>
      </g>
     </g>
     <g id="line2d_42">
      <g>
       <use style="stroke:#000000;stroke-width:0.5;" x="365.990625" xlink:href="#md9a1c1a7cd" y="132.918125"/>
      </g>
     </g>
     <g id="text_14">
      <!-- 4 -->
      <defs>
       <path d="
M37.7969 64.3125
L12.8906 25.3906
L37.7969 25.3906
z

M35.2031 72.9062
L47.6094 72.9062
L47.6094 25.3906
L58.0156 25.3906
L58.0156 17.1875
L47.6094 17.1875
L47.6094 0
L37.7969 0
L37.7969 17.1875
L4.89062 17.1875
L4.89062 26.7031
z
" id="BitstreamVeraSans-Roman-34"/>
      </defs>
      <g transform="translate(21.878125 135.6775)scale(0.1 -0.1)">
       <use xlink:href="#BitstreamVeraSans-Roman-34"/>
      </g>
     </g>
    </g>
    <g id="ytick_6">
     <g id="line2d_43">
      <g>
       <use style="stroke:#000000;stroke-width:0.5;" x="31.190625" xlink:href="#md7965d1ba0" y="105.018125"/>
      </g>
     </g>
     <g id="line2d_44">
      <g>
       <use style="stroke:#000000;stroke-width:0.5;" x="365.990625" xlink:href="#md9a1c1a7cd" y="105.018125"/>
      </g>
     </g>
     <g id="text_15">
      <!-- 5 -->
      <g transform="translate(22.4734375 107.7775)scale(0.1 -0.1)">
       <use xlink:href="#BitstreamVeraSans-Roman-35"/>
      </g>
     </g>
    </g>
    <g id="ytick_7">
     <g id="line2d_45">
      <g>
       <use style="stroke:#000000;stroke-width:0.5;" x="31.190625" xlink:href="#md7965d1ba0" y="77.118125"/>
      </g>
     </g>
     <g id="line2d_46">
      <g>
       <use style="stroke:#000000;stroke-width:0.5;" x="365.990625" xlink:href="#md9a1c1a7cd" y="77.118125"/>
      </g>
     </g>
     <g id="text_16">
      <!-- 6 -->
      <defs>
       <path d="
M33.0156 40.375
Q26.375 40.375 22.4844 35.8281
Q18.6094 31.2969 18.6094 23.3906
Q18.6094 15.5312 22.4844 10.9531
Q26.375 6.39062 33.0156 6.39062
Q39.6562 6.39062 43.5312 10.9531
Q47.4062 15.5312 47.4062 23.3906
Q47.4062 31.2969 43.5312 35.8281
Q39.6562 40.375 33.0156 40.375
M52.5938 71.2969
L52.5938 62.3125
Q48.875 64.0625 45.0938 64.9844
Q41.3125 65.9219 37.5938 65.9219
Q27.8281 65.9219 22.6719 59.3281
Q17.5312 52.7344 16.7969 39.4062
Q19.6719 43.6562 24.0156 45.9219
Q28.375 48.1875 33.5938 48.1875
Q44.5781 48.1875 50.9531 41.5156
Q57.3281 34.8594 57.3281 23.3906
Q57.3281 12.1562 50.6875 5.35938
Q44.0469 -1.42188 33.0156 -1.42188
Q20.3594 -1.42188 13.6719 8.26562
Q6.98438 17.9688 6.98438 36.375
Q6.98438 53.6562 15.1875 63.9375
Q23.3906 74.2188 37.2031 74.2188
Q40.9219 74.2188 44.7031 73.4844
Q48.4844 72.75 52.5938 71.2969" id="BitstreamVeraSans-Roman-36"/>
      </defs>
      <g transform="translate(22.15625 79.8775)scale(0.1 -0.1)">
       <use xlink:href="#BitstreamVeraSans-Roman-36"/>
      </g>
     </g>
    </g>
    <g id="ytick_8">
     <g id="line2d_47">
      <g>
       <use style="stroke:#000000;stroke-width:0.5;" x="31.190625" xlink:href="#md7965d1ba0" y="49.218125"/>
      </g>
     </g>
     <g id="line2d_48">
      <g>
       <use style="stroke:#000000;stroke-width:0.5;" x="365.990625" xlink:href="#md9a1c1a7cd" y="49.218125"/>
      </g>
     </g>
     <g id="text_17">
      <!-- 7 -->
      <defs>
       <path d="
M8.20312 72.9062
L55.0781 72.9062
L55.0781 68.7031
L28.6094 0
L18.3125 0
L43.2188 64.5938
L8.20312 64.5938
z
" id="BitstreamVeraSans-Roman-37"/>
      </defs>
      <g transform="translate(22.503125 51.9775)scale(0.1 -0.1)">
       <use xlink:href="#BitstreamVeraSans-Roman-37"/>
      </g>
     </g>
    </g>
    <g id="ytick_9">
     <g id="line2d_49">
      <g>
       <use style="stroke:#000000;stroke-width:0.5;" x="31.190625" xlink:href="#md7965d1ba0" y="21.318125"/>
      </g>
     </g>
     <g id="line2d_50">
      <g>
       <use style="stroke:#000000;stroke-width:0.5;" x="365.990625" xlink:href="#md9a1c1a7cd" y="21.318125"/>
      </g>
     </g>
     <g id="text_18">
      <!-- 8 -->
      <defs>
       <path d="
M31.7812 34.625
Q24.75 34.625 20.7188 30.8594
Q16.7031 27.0938 16.7031 20.5156
Q16.7031 13.9219 20.7188 10.1562
Q24.75 6.39062 31.7812 6.39062
Q38.8125 6.39062 42.8594 10.1719
Q46.9219 13.9688 46.9219 20.5156
Q46.9219 27.0938 42.8906 30.8594
Q38.875 34.625 31.7812 34.625
M21.9219 38.8125
Q15.5781 40.375 12.0312 44.7188
Q8.5 49.0781 8.5 55.3281
Q8.5 64.0625 14.7188 69.1406
Q20.9531 74.2188 31.7812 74.2188
Q42.6719 74.2188 48.875 69.1406
Q55.0781 64.0625 55.0781 55.3281
Q55.0781 49.0781 51.5312 44.7188
Q48 40.375 41.7031 38.8125
Q48.8281 37.1562 52.7969 32.3125
Q56.7812 27.4844 56.7812 20.5156
Q56.7812 9.90625 50.3125 4.23438
Q43.8438 -1.42188 31.7812 -1.42188
Q19.7344 -1.42188 13.25 4.23438
Q6.78125 9.90625 6.78125 20.5156
Q6.78125 27.4844 10.7812 32.3125
Q14.7969 37.1562 21.9219 38.8125
M18.3125 54.3906
Q18.3125 48.7344 21.8438 45.5625
Q25.3906 42.3906 31.7812 42.3906
Q38.1406 42.3906 41.7188 45.5625
Q45.3125 48.7344 45.3125 54.3906
Q45.3125 60.0625 41.7188 63.2344
Q38.1406 66.4062 31.7812 66.4062
Q25.3906 66.4062 21.8438 63.2344
Q18.3125 60.0625 18.3125 54.3906" id="BitstreamVeraSans-Roman-38"/>
      </defs>
      <g transform="translate(22.190625 24.0775)scale(0.1 -0.1)">
       <use xlink:href="#BitstreamVeraSans-Roman-38"/>
      </g>
     </g>
    </g>
    <g id="text_19">
     <!-- PET (mm/day) -->
     <defs>
      <path d="
M25.3906 72.9062
L33.6875 72.9062
L8.29688 -9.28125
L0 -9.28125
z
" id="BitstreamVeraSans-Roman-2f"/>
      <path d="
M8.01562 75.875
L15.8281 75.875
Q23.1406 64.3594 26.7812 53.3125
Q30.4219 42.2812 30.4219 31.3906
Q30.4219 20.4531 26.7812 9.375
Q23.1406 -1.70312 15.8281 -13.1875
L8.01562 -13.1875
Q14.5 -2 17.7031 9.0625
Q20.9062 20.125 20.9062 31.3906
Q20.9062 42.6719 17.7031 53.6562
Q14.5 64.6562 8.01562 75.875" id="BitstreamVeraSans-Roman-29"/>
      <path d="
M9.8125 72.9062
L55.9062 72.9062
L55.9062 64.5938
L19.6719 64.5938
L19.6719 43.0156
L54.3906 43.0156
L54.3906 34.7188
L19.6719 34.7188
L19.6719 8.29688
L56.7812 8.29688
L56.7812 0
L9.8125 0
z
" id="BitstreamVeraSans-Roman-45"/>
      <path d="
M31 75.875
Q24.4688 64.6562 21.2812 53.6562
Q18.1094 42.6719 18.1094 31.3906
Q18.1094 20.125 21.3125 9.0625
Q24.5156 -2 31 -13.1875
L23.1875 -13.1875
Q15.875 -1.70312 12.2344 9.375
Q8.59375 20.4531 8.59375 31.3906
Q8.59375 42.2812 12.2031 53.3125
Q15.8281 64.3594 23.1875 75.875
z
" id="BitstreamVeraSans-Roman-28"/>
      <path d="
M-0.296875 72.9062
L61.375 72.9062
L61.375 64.5938
L35.5 64.5938
L35.5 0
L25.5938 0
L25.5938 64.5938
L-0.296875 64.5938
z
" id="BitstreamVeraSans-Roman-54"/>
      <path d="
M52 44.1875
Q55.375 50.25 60.0625 53.125
Q64.75 56 71.0938 56
Q79.6406 56 84.2812 50.0156
Q88.9219 44.0469 88.9219 33.0156
L88.9219 0
L79.8906 0
L79.8906 32.7188
Q79.8906 40.5781 77.0938 44.375
Q74.3125 48.1875 68.6094 48.1875
Q61.625 48.1875 57.5625 43.5469
Q53.5156 38.9219 53.5156 30.9062
L53.5156 0
L44.4844 0
L44.4844 32.7188
Q44.4844 40.625 41.7031 44.4062
Q38.9219 48.1875 33.1094 48.1875
Q26.2188 48.1875 22.1562 43.5312
Q18.1094 38.875 18.1094 30.9062
L18.1094 0
L9.07812 0
L9.07812 54.6875
L18.1094 54.6875
L18.1094 46.1875
Q21.1875 51.2188 25.4844 53.6094
Q29.7812 56 35.6875 56
Q41.6562 56 45.8281 52.9688
Q50 49.9531 52 44.1875" id="BitstreamVeraSans-Roman-6d"/>
      <path d="
M19.6719 64.7969
L19.6719 37.4062
L32.0781 37.4062
Q38.9688 37.4062 42.7188 40.9688
Q46.4844 44.5312 46.4844 51.125
Q46.4844 57.6719 42.7188 61.2344
Q38.9688 64.7969 32.0781 64.7969
z

M9.8125 72.9062
L32.0781 72.9062
Q44.3438 72.9062 50.6094 67.3594
Q56.8906 61.8125 56.8906 51.125
Q56.8906 40.3281 50.6094 34.8125
Q44.3438 29.2969 32.0781 29.2969
L19.6719 29.2969
L19.6719 0
L9.8125 0
z
" id="BitstreamVeraSans-Roman-50"/>
     </defs>
     <g transform="translate(14.7984375 167.82984375)rotate(-90.0)scale(0.1 -0.1)">
      <use xlink:href="#BitstreamVeraSans-Roman-50"/>
      <use x="60.302734375" xlink:href="#BitstreamVeraSans-Roman-45"/>
      <use x="123.486328125" xlink:href="#BitstreamVeraSans-Roman-54"/>
      <use x="184.5703125" xlink:href="#BitstreamVeraSans-Roman-20"/>
      <use x="216.357421875" xlink:href="#BitstreamVeraSans-Roman-28"/>
      <use x="255.37109375" xlink:href="#BitstreamVeraSans-Roman-6d"/>
      <use x="352.783203125" xlink:href="#BitstreamVeraSans-Roman-6d"/>
      <use x="450.1953125" xlink:href="#BitstreamVeraSans-Roman-2f"/>
      <use x="483.88671875" xlink:href="#BitstreamVeraSans-Roman-64"/>
      <use x="547.36328125" xlink:href="#BitstreamVeraSans-Roman-61"/>
      <use x="608.642578125" xlink:href="#BitstreamVeraSans-Roman-79"/>
      <use x="667.822265625" xlink:href="#BitstreamVeraSans-Roman-29"/>
     </g>
    </g>
   </g>
   <g id="text_20">
    <!-- daily grass PET at Treeline -->
    <defs>
     <path d="
M18.3125 70.2188
L18.3125 54.6875
L36.8125 54.6875
L36.8125 47.7031
L18.3125 47.7031
L18.3125 18.0156
Q18.3125 11.3281 20.1406 9.42188
Q21.9688 7.51562 27.5938 7.51562
L36.8125 7.51562
L36.8125 0
L27.5938 0
Q17.1875 0 13.2344 3.875
Q9.28125 7.76562 9.28125 18.0156
L9.28125 47.7031
L2.6875 47.7031
L2.6875 54.6875
L9.28125 54.6875
L9.28125 70.2188
z
" id="BitstreamVeraSans-Roman-74"/>
     <path d="
M56.2031 29.5938
L56.2031 25.2031
L14.8906 25.2031
Q15.4844 15.9219 20.4844 11.0625
Q25.4844 6.20312 34.4219 6.20312
Q39.5938 6.20312 44.4531 7.46875
Q49.3125 8.73438 54.1094 11.2812
L54.1094 2.78125
Q49.2656 0.734375 44.1875 -0.34375
Q39.1094 -1.42188 33.8906 -1.42188
Q20.7969 -1.42188 13.1562 6.1875
Q5.51562 13.8125 5.51562 26.8125
Q5.51562 40.2344 12.7656 48.1094
Q20.0156 56 32.3281 56
Q43.3594 56 49.7812 48.8906
Q56.2031 41.7969 56.2031 29.5938
M47.2188 32.2344
Q47.125 39.5938 43.0938 43.9844
Q39.0625 48.3906 32.4219 48.3906
Q24.9062 48.3906 20.3906 44.1406
Q15.875 39.8906 15.1875 32.1719
z
" id="BitstreamVeraSans-Roman-65"/>
     <path d="
M41.1094 46.2969
Q39.5938 47.1719 37.8125 47.5781
Q36.0312 48 33.8906 48
Q26.2656 48 22.1875 43.0469
Q18.1094 38.0938 18.1094 28.8125
L18.1094 0
L9.07812 0
L9.07812 54.6875
L18.1094 54.6875
L18.1094 46.1875
Q20.9531 51.1719 25.4844 53.5781
Q30.0312 56 36.5312 56
Q37.4531 56 38.5781 55.875
Q39.7031 55.7656 41.0625 55.5156
z
" id="BitstreamVeraSans-Roman-72"/>
     <path d="
M45.4062 27.9844
Q45.4062 37.75 41.375 43.1094
Q37.3594 48.4844 30.0781 48.4844
Q22.8594 48.4844 18.8281 43.1094
Q14.7969 37.75 14.7969 27.9844
Q14.7969 18.2656 18.8281 12.8906
Q22.8594 7.51562 30.0781 7.51562
Q37.3594 7.51562 41.375 12.8906
Q45.4062 18.2656 45.4062 27.9844
M54.3906 6.78125
Q54.3906 -7.17188 48.1875 -13.9844
Q42 -20.7969 29.2031 -20.7969
Q24.4688 -20.7969 20.2656 -20.0938
Q16.0625 -19.3906 12.1094 -17.9219
L12.1094 -9.1875
Q16.0625 -11.3281 19.9219 -12.3438
Q23.7812 -13.375 27.7812 -13.375
Q36.625 -13.375 41.0156 -8.76562
Q45.4062 -4.15625 45.4062 5.17188
L45.4062 9.625
Q42.625 4.78125 38.2812 2.39062
Q33.9375 0 27.875 0
Q17.8281 0 11.6719 7.65625
Q5.51562 15.3281 5.51562 27.9844
Q5.51562 40.6719 11.6719 48.3281
Q17.8281 56 27.875 56
Q33.9375 56 38.2812 53.6094
Q42.625 51.2188 45.4062 46.3906
L45.4062 54.6875
L54.3906 54.6875
z
" id="BitstreamVeraSans-Roman-67"/>
     <path d="
M44.2812 53.0781
L44.2812 44.5781
Q40.4844 46.5312 36.375 47.5
Q32.2812 48.4844 27.875 48.4844
Q21.1875 48.4844 17.8438 46.4375
Q14.5 44.3906 14.5 40.2812
Q14.5 37.1562 16.8906 35.375
Q19.2812 33.5938 26.5156 31.9844
L29.5938 31.2969
Q39.1562 29.25 43.1875 25.5156
Q47.2188 21.7812 47.2188 15.0938
Q47.2188 7.46875 41.1875 3.01562
Q35.1562 -1.42188 24.6094 -1.42188
Q20.2188 -1.42188 15.4531 -0.5625
Q10.6875 0.296875 5.42188 2
L5.42188 11.2812
Q10.4062 8.6875 15.2344 7.39062
Q20.0625 6.10938 24.8125 6.10938
Q31.1562 6.10938 34.5625 8.28125
Q37.9844 10.4531 37.9844 14.4062
Q37.9844 18.0625 35.5156 20.0156
Q33.0625 21.9688 24.7031 23.7812
L21.5781 24.5156
Q13.2344 26.2656 9.51562 29.9062
Q5.8125 33.5469 5.8125 39.8906
Q5.8125 47.6094 11.2812 51.7969
Q16.75 56 26.8125 56
Q31.7812 56 36.1719 55.2656
Q40.5781 54.5469 44.2812 53.0781" id="BitstreamVeraSans-Roman-73"/>
    </defs>
    <g transform="translate(120.2821875 16.318125)scale(0.12 -0.12)">
     <use xlink:href="#BitstreamVeraSans-Roman-64"/>
     <use x="63.4765625" xlink:href="#BitstreamVeraSans-Roman-61"/>
     <use x="124.755859375" xlink:href="#BitstreamVeraSans-Roman-69"/>
     <use x="152.5390625" xlink:href="#BitstreamVeraSans-Roman-6c"/>
     <use x="180.322265625" xlink:href="#BitstreamVeraSans-Roman-79"/>
     <use x="239.501953125" xlink:href="#BitstreamVeraSans-Roman-20"/>
     <use x="271.2890625" xlink:href="#BitstreamVeraSans-Roman-67"/>
     <use x="334.765625" xlink:href="#BitstreamVeraSans-Roman-72"/>
     <use x="375.87890625" xlink:href="#BitstreamVeraSans-Roman-61"/>
     <use x="437.158203125" xlink:href="#BitstreamVeraSans-Roman-73"/>
     <use x="489.2578125" xlink:href="#BitstreamVeraSans-Roman-73"/>
     <use x="541.357421875" xlink:href="#BitstreamVeraSans-Roman-20"/>
     <use x="573.14453125" xlink:href="#BitstreamVeraSans-Roman-50"/>
     <use x="633.447265625" xlink:href="#BitstreamVeraSans-Roman-45"/>
     <use x="696.630859375" xlink:href="#BitstreamVeraSans-Roman-54"/>
     <use x="757.71484375" xlink:href="#BitstreamVeraSans-Roman-20"/>
     <use x="789.501953125" xlink:href="#BitstreamVeraSans-Roman-61"/>
     <use x="850.78125" xlink:href="#BitstreamVeraSans-Roman-74"/>
     <use x="889.990234375" xlink:href="#BitstreamVeraSans-Roman-20"/>
     <use x="921.77734375" xlink:href="#BitstreamVeraSans-Roman-54"/>
     <use x="968.111328125" xlink:href="#BitstreamVeraSans-Roman-72"/>
     <use x="1006.974609375" xlink:href="#BitstreamVeraSans-Roman-65"/>
     <use x="1068.498046875" xlink:href="#BitstreamVeraSans-Roman-65"/>
     <use x="1130.021484375" xlink:href="#BitstreamVeraSans-Roman-6c"/>
     <use x="1157.8046875" xlink:href="#BitstreamVeraSans-Roman-69"/>
     <use x="1185.587890625" xlink:href="#BitstreamVeraSans-Roman-6e"/>
     <use x="1248.966796875" xlink:href="#BitstreamVeraSans-Roman-65"/>
    </g>
   </g>
   <g id="legend_1">
    <g id="patch_7">
     <path d="
M287.803 312.738
L359.991 312.738
L359.991 27.3181
L287.803 27.3181
z
" style="fill:#ffffff;stroke:#000000;stroke-linejoin:miter;"/>
    </g>
    <g id="line2d_51">
     <path d="
M296.203 37.0363
L313.003 37.0363" style="fill:none;stroke:#0000ff;stroke-linecap:square;"/>
    </g>
    <g id="line2d_52"/>
    <g id="text_21">
     <!-- 1999 -->
     <defs>
      <path d="
M10.9844 1.51562
L10.9844 10.5
Q14.7031 8.73438 18.5 7.8125
Q22.3125 6.89062 25.9844 6.89062
Q35.75 6.89062 40.8906 13.4531
Q46.0469 20.0156 46.7812 33.4062
Q43.9531 29.2031 39.5938 26.9531
Q35.25 24.7031 29.9844 24.7031
Q19.0469 24.7031 12.6719 31.3125
Q6.29688 37.9375 6.29688 49.4219
Q6.29688 60.6406 12.9375 67.4219
Q19.5781 74.2188 30.6094 74.2188
Q43.2656 74.2188 49.9219 64.5156
Q56.5938 54.8281 56.5938 36.375
Q56.5938 19.1406 48.4062 8.85938
Q40.2344 -1.42188 26.4219 -1.42188
Q22.7031 -1.42188 18.8906 -0.6875
Q15.0938 0.046875 10.9844 1.51562
M30.6094 32.4219
Q37.25 32.4219 41.125 36.9531
Q45.0156 41.5 45.0156 49.4219
Q45.0156 57.2812 41.125 61.8438
Q37.25 66.4062 30.6094 66.4062
Q23.9688 66.4062 20.0938 61.8438
Q16.2188 57.2812 16.2188 49.4219
Q16.2188 41.5 20.0938 36.9531
Q23.9688 32.4219 30.6094 32.4219" id="BitstreamVeraSans-Roman-39"/>
     </defs>
     <g transform="translate(326.203125 41.23625)scale(0.12 -0.12)">
      <use xlink:href="#BitstreamVeraSans-Roman-31"/>
      <use x="63.623046875" xlink:href="#BitstreamVeraSans-Roman-39"/>
      <use x="127.24609375" xlink:href="#BitstreamVeraSans-Roman-39"/>
      <use x="190.869140625" xlink:href="#BitstreamVeraSans-Roman-39"/>
     </g>
    </g>
    <g id="line2d_53">
     <path d="
M296.203 54.65
L313.003 54.65" style="fill:none;stroke:#008000;stroke-linecap:square;"/>
    </g>
    <g id="line2d_54"/>
    <g id="text_22">
     <!-- 2000 -->
     <g transform="translate(326.203125 58.85)scale(0.12 -0.12)">
      <use xlink:href="#BitstreamVeraSans-Roman-32"/>
      <use x="63.623046875" xlink:href="#BitstreamVeraSans-Roman-30"/>
      <use x="127.24609375" xlink:href="#BitstreamVeraSans-Roman-30"/>
      <use x="190.869140625" xlink:href="#BitstreamVeraSans-Roman-30"/>
     </g>
    </g>
    <g id="line2d_55">
     <path d="
M296.203 72.2638
L313.003 72.2638" style="fill:none;stroke:#ff0000;stroke-linecap:square;"/>
    </g>
    <g id="line2d_56"/>
    <g id="text_23">
     <!-- 2001 -->
     <g transform="translate(326.203125 76.46375)scale(0.12 -0.12)">
      <use xlink:href="#BitstreamVeraSans-Roman-32"/>
      <use x="63.623046875" xlink:href="#BitstreamVeraSans-Roman-30"/>
      <use x="127.24609375" xlink:href="#BitstreamVeraSans-Roman-30"/>
      <use x="190.869140625" xlink:href="#BitstreamVeraSans-Roman-31"/>
     </g>
    </g>
    <g id="line2d_57">
     <path d="
M296.203 89.8775
L313.003 89.8775" style="fill:none;stroke:#00bfbf;stroke-linecap:square;"/>
    </g>
    <g id="line2d_58"/>
    <g id="text_24">
     <!-- 2002 -->
     <g transform="translate(326.203125 94.0775)scale(0.12 -0.12)">
      <use xlink:href="#BitstreamVeraSans-Roman-32"/>
      <use x="63.623046875" xlink:href="#BitstreamVeraSans-Roman-30"/>
      <use x="127.24609375" xlink:href="#BitstreamVeraSans-Roman-30"/>
      <use x="190.869140625" xlink:href="#BitstreamVeraSans-Roman-32"/>
     </g>
    </g>
    <g id="line2d_59">
     <path d="
M296.203 107.491
L313.003 107.491" style="fill:none;stroke:#bf00bf;stroke-linecap:square;"/>
    </g>
    <g id="line2d_60"/>
    <g id="text_25">
     <!-- 2003 -->
     <g transform="translate(326.203125 111.69125)scale(0.12 -0.12)">
      <use xlink:href="#BitstreamVeraSans-Roman-32"/>
      <use x="63.623046875" xlink:href="#BitstreamVeraSans-Roman-30"/>
      <use x="127.24609375" xlink:href="#BitstreamVeraSans-Roman-30"/>
      <use x="190.869140625" xlink:href="#BitstreamVeraSans-Roman-33"/>
     </g>
    </g>
    <g id="line2d_61">
     <path d="
M296.203 125.105
L313.003 125.105" style="fill:none;stroke:#bfbf00;stroke-linecap:square;"/>
    </g>
    <g id="line2d_62"/>
    <g id="text_26">
     <!-- 2004 -->
     <g transform="translate(326.203125 129.305)scale(0.12 -0.12)">
      <use xlink:href="#BitstreamVeraSans-Roman-32"/>
      <use x="63.623046875" xlink:href="#BitstreamVeraSans-Roman-30"/>
      <use x="127.24609375" xlink:href="#BitstreamVeraSans-Roman-30"/>
      <use x="190.869140625" xlink:href="#BitstreamVeraSans-Roman-34"/>
     </g>
    </g>
    <g id="line2d_63">
     <path d="
M296.203 142.719
L313.003 142.719" style="fill:none;stroke:#000000;stroke-linecap:square;"/>
    </g>
    <g id="line2d_64"/>
    <g id="text_27">
     <!-- 2005 -->
     <g transform="translate(326.203125 146.91875)scale(0.12 -0.12)">
      <use xlink:href="#BitstreamVeraSans-Roman-32"/>
      <use x="63.623046875" xlink:href="#BitstreamVeraSans-Roman-30"/>
      <use x="127.24609375" xlink:href="#BitstreamVeraSans-Roman-30"/>
      <use x="190.869140625" xlink:href="#BitstreamVeraSans-Roman-35"/>
     </g>
    </g>
    <g id="line2d_65">
     <path d="
M296.203 160.333
L313.003 160.333" style="fill:none;stroke:#0000ff;stroke-linecap:square;"/>
    </g>
    <g id="line2d_66"/>
    <g id="text_28">
     <!-- 2006 -->
     <g transform="translate(326.203125 164.5325)scale(0.12 -0.12)">
      <use xlink:href="#BitstreamVeraSans-Roman-32"/>
      <use x="63.623046875" xlink:href="#BitstreamVeraSans-Roman-30"/>
      <use x="127.24609375" xlink:href="#BitstreamVeraSans-Roman-30"/>
      <use x="190.869140625" xlink:href="#BitstreamVeraSans-Roman-36"/>
     </g>
    </g>
    <g id="line2d_67">
     <path d="
M296.203 177.946
L313.003 177.946" style="fill:none;stroke:#008000;stroke-linecap:square;"/>
    </g>
    <g id="line2d_68"/>
    <g id="text_29">
     <!-- 2007 -->
     <g transform="translate(326.203125 182.14625)scale(0.12 -0.12)">
      <use xlink:href="#BitstreamVeraSans-Roman-32"/>
      <use x="63.623046875" xlink:href="#BitstreamVeraSans-Roman-30"/>
      <use x="127.24609375" xlink:href="#BitstreamVeraSans-Roman-30"/>
      <use x="190.869140625" xlink:href="#BitstreamVeraSans-Roman-37"/>
     </g>
    </g>
    <g id="line2d_69">
     <path d="
M296.203 195.56
L313.003 195.56" style="fill:none;stroke:#ff0000;stroke-linecap:square;"/>
    </g>
    <g id="line2d_70"/>
    <g id="text_30">
     <!-- 2008 -->
     <g transform="translate(326.203125 199.76)scale(0.12 -0.12)">
      <use xlink:href="#BitstreamVeraSans-Roman-32"/>
      <use x="63.623046875" xlink:href="#BitstreamVeraSans-Roman-30"/>
      <use x="127.24609375" xlink:href="#BitstreamVeraSans-Roman-30"/>
      <use x="190.869140625" xlink:href="#BitstreamVeraSans-Roman-38"/>
     </g>
    </g>
    <g id="line2d_71">
     <path d="
M296.203 213.174
L313.003 213.174" style="fill:none;stroke:#00bfbf;stroke-linecap:square;"/>
    </g>
    <g id="line2d_72"/>
    <g id="text_31">
     <!-- 2009 -->
     <g transform="translate(326.203125 217.37375)scale(0.12 -0.12)">
      <use xlink:href="#BitstreamVeraSans-Roman-32"/>
      <use x="63.623046875" xlink:href="#BitstreamVeraSans-Roman-30"/>
      <use x="127.24609375" xlink:href="#BitstreamVeraSans-Roman-30"/>
      <use x="190.869140625" xlink:href="#BitstreamVeraSans-Roman-39"/>
     </g>
    </g>
    <g id="line2d_73">
     <path d="
M296.203 230.788
L313.003 230.788" style="fill:none;stroke:#bf00bf;stroke-linecap:square;"/>
    </g>
    <g id="line2d_74"/>
    <g id="text_32">
     <!-- 2010 -->
     <g transform="translate(326.203125 234.9875)scale(0.12 -0.12)">
      <use xlink:href="#BitstreamVeraSans-Roman-32"/>
      <use x="63.623046875" xlink:href="#BitstreamVeraSans-Roman-30"/>
      <use x="127.24609375" xlink:href="#BitstreamVeraSans-Roman-31"/>
      <use x="190.869140625" xlink:href="#BitstreamVeraSans-Roman-30"/>
     </g>
    </g>
    <g id="line2d_75">
     <path d="
M296.203 248.401
L313.003 248.401" style="fill:none;stroke:#bfbf00;stroke-linecap:square;"/>
    </g>
    <g id="line2d_76"/>
    <g id="text_33">
     <!-- 2011 -->
     <g transform="translate(326.203125 252.60125)scale(0.12 -0.12)">
      <use xlink:href="#BitstreamVeraSans-Roman-32"/>
      <use x="63.623046875" xlink:href="#BitstreamVeraSans-Roman-30"/>
      <use x="127.24609375" xlink:href="#BitstreamVeraSans-Roman-31"/>
      <use x="190.869140625" xlink:href="#BitstreamVeraSans-Roman-31"/>
     </g>
    </g>
    <g id="line2d_77">
     <path d="
M296.203 266.015
L313.003 266.015" style="fill:none;stroke:#000000;stroke-linecap:square;"/>
    </g>
    <g id="line2d_78"/>
    <g id="text_34">
     <!-- 2012 -->
     <g transform="translate(326.203125 270.215)scale(0.12 -0.12)">
      <use xlink:href="#BitstreamVeraSans-Roman-32"/>
      <use x="63.623046875" xlink:href="#BitstreamVeraSans-Roman-30"/>
      <use x="127.24609375" xlink:href="#BitstreamVeraSans-Roman-31"/>
      <use x="190.869140625" xlink:href="#BitstreamVeraSans-Roman-32"/>
     </g>
    </g>
    <g id="line2d_79">
     <path d="
M296.203 283.629
L313.003 283.629" style="fill:none;stroke:#0000ff;stroke-linecap:square;"/>
    </g>
    <g id="line2d_80"/>
    <g id="text_35">
     <!-- 2013 -->
     <g transform="translate(326.203125 287.82875)scale(0.12 -0.12)">
      <use xlink:href="#BitstreamVeraSans-Roman-32"/>
      <use x="63.623046875" xlink:href="#BitstreamVeraSans-Roman-30"/>
      <use x="127.24609375" xlink:href="#BitstreamVeraSans-Roman-31"/>
      <use x="190.869140625" xlink:href="#BitstreamVeraSans-Roman-33"/>
     </g>
    </g>
    <g id="line2d_81">
     <path d="
M296.203 301.243
L313.003 301.243" style="fill:none;stroke:#008000;stroke-linecap:square;"/>
    </g>
    <g id="line2d_82"/>
    <g id="text_36">
     <!-- 2014 -->
     <g transform="translate(326.203125 305.4425)scale(0.12 -0.12)">
      <use xlink:href="#BitstreamVeraSans-Roman-32"/>
      <use x="63.623046875" xlink:href="#BitstreamVeraSans-Roman-30"/>
      <use x="127.24609375" xlink:href="#BitstreamVeraSans-Roman-31"/>
      <use x="190.869140625" xlink:href="#BitstreamVeraSans-Roman-34"/>
     </g>
    </g>
   </g>
  </g>
 </g>
 <defs>
  <clipPath id="p95a2ee5e18">
   <rect height="223.2" width="334.8" x="31.190625" y="21.318125"/>
  </clipPath>
 </defs>
</svg>
