<?xml version="1.0" encoding="utf-8" standalone="no"?>
<!DOCTYPE svg PUBLIC "-//W3C//DTD SVG 1.1//EN"
  "http://www.w3.org/Graphics/SVG/1.1/DTD/svg11.dtd">
<!-- Created with matplotlib (http://matplotlib.org/) -->
<svg height="284pt" version="1.1" viewBox="0 0 382 284" width="382pt" xmlns="http://www.w3.org/2000/svg" xmlns:xlink="http://www.w3.org/1999/xlink">
 <defs>
  <style type="text/css">
*{stroke-linecap:butt;stroke-linejoin:round;}
  </style>
 </defs>
 <g id="figure_1">
  <g id="patch_1">
   <path d="
M-1.77636e-15 284.711
L382.458 284.711
L382.458 0
L-1.77636e-15 0
z
" style="fill:#ffffff;"/>
  </g>
  <g id="axes_1">
   <g id="patch_2">
    <path d="
M40.4578 244.518
L375.258 244.518
L375.258 21.3181
L40.4578 21.3181
z
" style="fill:#ffffff;"/>
   </g>
   <g id="line2d_1">
    <path clip-path="url(#p32cac9c315)" d="
M0 0" style="fill:none;stroke:#0000ff;stroke-linecap:square;"/>
   </g>
   <g id="line2d_2">
    <path clip-path="url(#p32cac9c315)" d="
M0 0" style="fill:none;stroke:#008000;stroke-linecap:square;"/>
   </g>
   <g id="line2d_3">
    <path clip-path="url(#p32cac9c315)" d="
M0 0" style="fill:none;stroke:#ff0000;stroke-linecap:square;"/>
   </g>
   <g id="line2d_4">
    <path clip-path="url(#p32cac9c315)" d="
M0 0" style="fill:none;stroke:#00bfbf;stroke-linecap:square;"/>
   </g>
   <g id="line2d_5">
    <path clip-path="url(#p32cac9c315)" d="
M0 0" style="fill:none;stroke:#bf00bf;stroke-linecap:square;"/>
   </g>
   <g id="line2d_6">
    <path clip-path="url(#p32cac9c315)" d="
M0 0" style="fill:none;stroke:#bfbf00;stroke-linecap:square;"/>
   </g>
   <g id="line2d_7">
    <path clip-path="url(#p32cac9c315)" d="
M0 0" style="fill:none;stroke:#000000;stroke-linecap:square;"/>
   </g>
   <g id="line2d_8">
    <path clip-path="url(#p32cac9c315)" d="
M0 0" style="fill:none;stroke:#0000ff;stroke-linecap:square;"/>
   </g>
   <g id="line2d_9">
    <path clip-path="url(#p32cac9c315)" d="
M0 0" style="fill:none;stroke:#008000;stroke-linecap:square;"/>
   </g>
   <g id="line2d_10">
    <path clip-path="url(#p32cac9c315)" d="
M40.4578 139.407
L41.3751 106.126
L42.2923 121.406
L43.2096 197.753
L44.1269 215.883
L45.0441 219.591
L45.9614 226.422
L46.8786 223.811
L47.7959 200.655
L48.7132 220.8
M50.5477 218.883
L51.4649 218.48
L52.3822 200.373
L53.2995 191.698
L54.2167 168.158
L55.134 184.387
L56.0512 189.735
L56.9685 182.843
L57.8858 234.112
L58.803 234.445
L59.7203 193.913
L60.6375 168.561
L61.5548 178.454
L62.4721 205.691
L63.3893 197.411
L64.3066 197.652
L65.2238 218.621
L66.1411 226.26
M67.9756 241.531
L68.8929 225.277
L69.8101 220.236
M71.6447 209.88
L72.5619 203.571
L73.4792 209.562
L74.3964 239.427
L75.3137 190.246
L76.231 210.998
L77.1482 181.788
L78.0655 186.567
L78.9827 182.797
L79.9 200.389
L80.8173 162.435
L81.7345 162.21
L82.6518 172.831
L83.569 144.139
L84.4863 159.992
L85.4036 169.523
L87.2381 199.43
L88.1553 227.853
L89.0726 200.388
L89.9899 208.46
L90.9071 234.848
L91.8244 181.611
L92.7416 188.2
L94.5762 163.054
L95.4934 202.513
L96.4107 200.84
L97.3279 168.221
L98.2452 177.418
L99.1625 161.477
L100.08 130.697
L100.997 148.031
L101.914 186.14
L102.832 165.083
L103.749 152.699
L104.666 132.791
L105.583 104.486
L106.501 203.435
L107.418 216.089
L108.335 178.652
L109.252 185.367
L110.17 160.025
L111.087 234.993
L112.004 220.325
L112.921 175.459
L113.839 120.471
L114.756 106.674
L115.673 129.605
L116.59 192.54
L117.508 189.604
L118.425 224.561
L119.342 143.677
L120.259 200.657
L121.177 163.886
L122.094 163.506
L123.011 166.976
L123.928 104.811
L124.846 99.3487
L125.763 99.8321
L126.68 163.762
L127.598 138.559
L128.515 168.335
L129.432 191.657
L130.349 133.901
L132.184 175.105
L133.101 117.194
L134.018 116.368
L134.936 129.407
L135.853 163.69
L136.77 149.395
L137.687 126.506
L138.605 94.7957
L139.522 96.5589
L140.439 116.555
L141.356 127.421
L142.274 115.68
L143.191 87.993
L144.108 162.681
L145.025 160.159
L145.943 71.5279
L146.86 32.9726
L147.777 54.6574
L148.695 63.1517
L149.612 159.682
L150.529 62.7106
L151.446 67.2991
L152.364 41.3892
L153.281 52.384
L155.115 70.2222
L156.033 94.0046
L156.95 129.24
L157.867 69.0091
L158.784 45.8941
L159.702 54.0036
L160.619 77.364
L161.536 65.1498
L162.453 88.5576
L163.371 156.057
L164.288 106.162
L165.205 94.225
L166.122 93.5815
L167.04 109.436
L167.957 95.7085
L168.874 172.363
L169.792 141.711
L170.709 139.785
L171.626 167.23
L172.543 105.213
L173.461 145.164
L174.378 172.687
L175.295 169.411
L176.212 130.934
L177.13 136.441
L178.047 124.779
L178.964 123.867
L179.881 169.957
L180.799 81.4609
L181.716 184.046
L182.633 141.246
L183.55 89.8924
L184.468 77.5528
L185.385 120.81
L186.302 49.1277
L187.219 114.286
L188.137 132.713
L189.054 140.738
L189.971 79.8395
L190.888 67.6735
L191.806 68.1543
L192.723 77.7251
L193.64 84.7782
L194.558 83.2516
L195.475 75.8704
L196.392 75.7839
L197.309 98.3869
L198.227 138.019
L199.144 105.637
L200.061 89.5311
L200.978 96.0295
L201.896 80.6329
L202.813 89.4943
L203.73 94.6428
L204.647 104.356
L205.565 111.924
L206.482 129.529
L207.399 134.574
L208.316 102.045
L209.234 114.242
L210.151 120.626
L211.068 109.101
L211.985 95.5969
L212.903 99.1722
L213.82 99.6304
L214.737 101.792
L215.655 93.3611
L216.572 73.1708
L217.489 85.2157
L218.406 95.289
L219.324 99.2773
L220.241 102.292
L221.158 108.876
L222.075 104.038
L222.993 91.3695
L223.91 93.2851
L224.827 107.29
L226.662 155.921
L227.579 108.38
L228.496 104.125
L229.413 109.358
L230.331 107.413
L231.248 107.187
L232.165 107.332
L233.082 134.611
L234 97.3793
L234.917 100.472
L235.834 114.757
L236.752 105.483
L237.669 105.521
L238.586 108.257
L239.503 133.327
L240.421 144.492
L241.338 134.268
L242.255 147.847
L243.172 116.234
L244.09 97.0186
L245.007 103.268
L245.924 111.204
L246.841 113.416
L247.759 117.576
L248.676 117.269
L249.593 112.778
L250.51 119.513
L251.428 136.571
L252.345 138.533
L253.262 121.157
L254.179 131.86
L255.097 96.3319
L256.014 107.796
L256.931 121.87
L257.848 128.455
L259.683 94.7027
L260.6 112.144
L261.518 120.777
L262.435 123.285
L263.352 114.997
L264.269 130.093
L266.104 90.9825
L267.021 92.0939
L267.938 106.477
L268.856 118.008
L269.773 114.245
L270.69 109.172
L271.607 117.006
L272.525 98.8718
L273.442 105.52
L274.359 103.942
L275.276 114.77
L276.194 116.97
L277.111 115.65
L278.028 120.309
L278.945 123.082
L279.863 127.219
L280.78 154.542
L281.697 188.212
L282.615 205.091
L283.532 146.395
L284.449 115.473
L285.366 107.801
L286.284 120.803
L287.201 113.965
L288.118 123.813
L289.035 118.209
L289.953 122.391
L290.87 133.838
L291.787 132.078
L292.704 162.074
L293.622 163.755
L294.539 224.565
L295.456 190.649
L296.373 142.449
L297.291 144.521
L298.208 105.61
L299.125 112.118
L300.042 224.934
L300.96 197.213
L301.877 140.368
L302.794 114.713
L303.712 133.723
L304.629 130.866
L305.546 128.952
L306.463 145.443
L307.381 137.162
L308.298 146.856
L309.215 140.433
L310.132 146.993
L311.05 93.8531
L312.884 114.406
L313.801 134.09
L314.719 130.651
L315.636 116.816
L316.553 130.393
L317.47 131.684
L318.388 138.084
L320.222 205.37
L321.139 227.067
L322.057 231.795
L322.974 233.734
L323.891 194.455
L324.808 206.834
L325.726 193.133
L326.643 193.929
L327.56 228.32
L328.478 216.88
L329.395 237.222
L330.312 202.613
L331.229 184.845
L332.147 138.035
L333.064 137.254
L333.981 145.739
L334.898 133.181
L335.816 140.894
L336.733 158.167
L337.65 185.532
L338.567 154.31
L339.485 185.719
L340.402 200.733
L341.319 143.167
L342.236 148.061
L343.154 171.564
L344.071 160.198
L344.988 183.385
L345.905 221.81
L346.823 209.855
L347.74 172.437
L348.657 215.333
L349.575 232.7
L350.492 159.501
L351.409 142.498
L352.326 141.431
L353.244 181.212
L354.161 210.686
L355.078 165.168
L355.995 146.285
L356.913 183.355
L358.747 242.154
L359.664 240.186
L360.582 214.21
L361.499 209.851
L362.416 199.829
L363.333 182.975
L364.251 229.013
L365.168 196.493
L366.085 221.682
L367.002 238.247
L367.92 228.344
L368.837 215.804
M370.672 218.429
L371.589 239.291
L372.506 240.572
L373.423 204.429
L374.341 158.129
L374.341 158.129" style="fill:none;stroke:#ff0000;stroke-linecap:square;"/>
   </g>
   <g id="line2d_11">
    <path clip-path="url(#p32cac9c315)" d="
M40.4578 233.404
L41.3751 197.938
L42.2923 209.278
L43.2096 162.944
L44.1269 190.63
L45.0441 239.998
L45.9614 218.361
L46.8786 204.347
L47.7959 227.721
L48.7132 189.886
L50.5477 218.847
L51.4649 212.02
L52.3822 175.995
L53.2995 185.504
L54.2167 179.929
L55.134 206.306
L56.0512 190.344
L56.9685 204.873
L57.8858 200.594
L58.803 178.04
L59.7203 207.539
L60.6375 243.041
L61.5548 240.435
M64.3066 213.069
L65.2238 211.732
L66.1411 214.49
L67.0584 204.872
L67.9756 208.603
L68.8929 180.153
L69.8101 156.618
L70.7274 171.283
L71.6447 192.129
L72.5619 187.837
L73.4792 202.542
L74.3964 225.652
L75.3137 216.595
L76.231 235.542
L77.1482 220.592
L78.0655 213.562
L78.9827 237.937
L79.9 218.447
L80.8173 243.646
L81.7345 194.921
L82.6518 192.574
L83.569 230.233
L84.4863 192.033
L85.4036 182.976
L86.3208 185.207
L87.2381 163.888
L88.1553 174.718
L89.0726 206.566
L89.9899 165.997
L90.9071 199.856
L91.8244 206.574
L92.7416 158.519
L93.6589 127.859
L94.5762 159.522
L95.4934 178.599
L96.4107 214.873
L97.3279 239.935
M99.1625 208.919
L100.08 202.581
L100.997 209.989
L101.914 184.917
L102.832 184.622
L103.749 159.977
L104.666 164.099
L105.583 169.578
L106.501 182.404
L107.418 244.19
L108.335 215.281
L109.252 179.238
L110.17 132.782
L111.087 162.689
L112.004 135.763
L112.921 195.191
L113.839 208.102
L114.756 160.608
L115.673 157.629
L116.59 227.331
L117.508 176.682
L118.425 135.754
L119.342 200.791
L120.259 208.156
L121.177 148.928
L122.094 232.08
L123.011 184.464
L123.928 231.349
L124.846 230.314
L126.68 133.565
L127.598 108.949
L128.515 114.799
L129.432 199.972
L130.349 145.722
L131.267 204.863
L133.101 106.759
L134.018 158.056
L134.936 121.421
L135.853 150.355
L136.77 87.1858
L137.687 99.6298
L138.605 101.08
L139.522 88.3335
L140.439 100.423
L141.356 108.621
L142.274 112.716
L143.191 124.156
L144.108 53.4969
L145.025 72.8413
L145.943 98.0021
L146.86 108.741
L147.777 199.041
L148.695 91.7413
L150.529 140.647
L151.446 158.44
L152.364 227.064
L153.281 167.509
L154.198 163.258
L155.115 176.466
L156.95 91.1398
L157.867 64.4093
L158.784 86.5917
L159.702 94.77
L160.619 114.035
L161.536 79.7763
L162.453 131.575
L163.371 86.8335
L164.288 84.1186
L165.205 94.7103
L166.122 110.816
L167.04 99.0757
L167.957 71.2322
L168.874 73.8048
L169.792 95.4147
L170.709 124.597
L171.626 123.982
L172.543 94.5668
L173.461 96.2911
L174.378 95.49
L175.295 99.3221
L176.212 120.623
L177.13 117.725
L178.964 143.84
L179.881 212.982
L180.799 136.555
L181.716 154.147
L182.633 189.25
L183.55 192.361
L184.468 115.677
L185.385 116.97
L186.302 117.076
L187.219 150.014
L188.137 145.986
L189.054 143.577
L189.971 200.859
L190.888 198.267
L191.806 195.167
L192.723 138.561
L193.64 167.171
L194.558 99.4849
L195.475 126.358
L196.392 139.207
L197.309 174.442
L198.227 133.44
L199.144 82.9965
L200.061 106.109
L200.978 104.645
L201.896 108.997
L202.813 88.0909
L203.73 98.8786
L204.647 113.797
L205.565 111.222
L206.482 104.825
L207.399 128.078
L208.316 136.132
L209.234 107.357
L210.151 130.178
L211.068 102.554
L211.985 98.412
L212.903 98.286
L213.82 105.773
L214.737 99.0247
L215.655 140.924
L216.572 161.023
L217.489 144.453
L218.406 98.5266
L219.324 106.074
L220.241 124.355
L221.158 128.577
L222.075 134.709
L222.993 117.705
L223.91 115.123
L224.827 117.942
L225.744 129.351
L226.662 154.837
L227.579 117.5
L228.496 121.617
L229.413 123.457
L230.331 128.382
L231.248 139.125
L232.165 133.548
L233.082 125.519
L234 121.1
L235.834 138.26
L236.752 133.017
L237.669 128.765
L238.586 139.037
L239.503 217.596
L240.421 230.103
L242.255 123.185
L243.172 121.615
L245.007 130.655
L245.924 146.18
L246.841 115.395
L247.759 124.492
L248.676 110.686
L249.593 113.004
L250.51 131.756
L251.428 131.887
L252.345 137.087
L253.262 136.919
L254.179 134.319
L255.097 172.008
L256.014 133.677
L256.931 133.851
L257.848 133.176
L258.766 138.673
L259.683 166.036
L260.6 139.118
L261.518 141.323
L262.435 124.963
L263.352 134.428
L264.269 134.782
L265.187 136.225
L267.021 158.535
L267.938 134.209
L268.856 121.558
L269.773 111.403
L270.69 122.455
L271.607 130.413
L272.525 136.448
L273.442 138.444
L274.359 142.657
L275.276 143.425
L276.194 153.558
L277.111 148.709
L278.028 145.668
L278.945 153.283
L279.863 155.69
L280.78 140.522
L281.697 120.712
L282.615 129.391
L283.532 139.636
L284.449 147.146
L285.366 152.512
L286.284 144.141
L287.201 137.671
L288.118 154.683
L289.035 185.733
L289.953 156.661
L290.87 122.544
L291.787 120.786
L292.704 201.276
M295.456 162.453
L296.373 144.924
L297.291 141.102
L298.208 169.144
L299.125 150.958
L300.042 136.804
L300.96 143.659
L301.877 196.992
L302.794 215.737
L303.712 195.998
L304.629 170.716
L305.546 174.962
L306.463 182.201
L307.381 207.475
L308.298 194.282
L309.215 199.448
L310.132 165.206
L311.05 189.25
L311.967 177.576
L312.884 141.493
L313.801 196.219
L314.719 240.805
L315.636 194.684
L316.553 214.318
L317.47 228.533
L318.388 202.37
L319.305 189.818
L320.222 181.682
L321.139 161.262
L322.057 160.816
L322.974 159.791
L323.891 212.475
L324.808 198.007
L325.726 169.693
L326.643 153.73
L327.56 164.3
L328.478 217.104
M330.312 228.478
L331.229 221.791
L332.147 165.747
L333.064 162.574
L333.981 153.265
L334.898 204.622
L335.816 164.403
L336.733 187.154
L337.65 184.047
L338.567 224.469
L339.485 199.723
L340.402 190.453
L341.319 191.58
L342.236 190.352
L343.154 211.135
L344.071 213.241
L344.988 197.621
M346.823 183.841
L347.74 186.095
L348.657 169.418
L349.575 162.785
L350.492 182.063
L351.409 177.324
L352.326 232.378
L353.244 197.262
L354.161 180.37
L355.078 173.5
L355.995 152.582
L356.913 207.633
L357.83 242.668
L358.747 219.041
L359.664 224.784
M361.499 227.098
L362.416 236.474
L363.333 228.939
L364.251 219.813
L365.168 215.102
M367.002 229.484
L367.92 172.152
L368.837 205.488
L369.754 224.071
L370.672 214.005
L371.589 191.351
L372.506 216.156
L373.423 237.675
L374.341 230.141
L374.341 230.141" style="fill:none;stroke:#00bfbf;stroke-linecap:square;"/>
   </g>
   <g id="line2d_12">
    <path clip-path="url(#p32cac9c315)" d="
M40.4578 242.808
L42.2923 220.073
L43.2096 201.042
L44.1269 222.525
L45.0441 208.291
L45.9614 230.161
L46.8786 174.205
L47.7959 183.655
L48.7132 198.647
L49.6304 180.133
L50.5477 196.703
L51.4649 236.297
L52.3822 219.795
L53.2995 158.211
L54.2167 201.19
L55.134 191.914
L56.0512 218.524
L56.9685 222.783
L57.8858 206.748
L58.803 197.109
L59.7203 208.865
M61.5548 217.753
L63.3893 239.991
M65.2238 236.203
L66.1411 227.471
L67.0584 212.704
M68.8929 227.843
L69.8101 199.062
L71.6447 227.94
L72.5619 230.539
L73.4792 219.767
L74.3964 243.626
L75.3137 239.175
L76.231 220.617
L77.1482 189.299
L78.0655 224.686
L78.9827 216.516
L79.9 233.321
L80.8173 204.516
M82.6518 243.051
L83.569 240.393
L84.4863 234.575
L85.4036 208.961
L86.3208 201.689
L87.2381 209.689
L88.1553 136.551
L89.0726 150.919
L89.9899 227.62
L90.9071 221.229
L91.8244 179.482
L92.7416 203.952
L93.6589 208.438
L94.5762 178.535
L95.4934 167.683
L96.4107 213.628
L97.3279 204.01
L98.2452 202.367
L100.08 157.555
L100.997 217.143
L101.914 170.76
L102.832 142.023
L103.749 154.055
L104.666 174.279
L105.583 226.108
L106.501 182.292
L107.418 125.297
L108.335 137.392
L109.252 128.414
L110.17 140.033
L111.087 99.5115
L112.004 119.942
L112.921 171.883
L113.839 181.958
L114.756 121.623
L115.673 120.139
L116.59 206.235
L117.508 204.248
L118.425 144.086
L119.342 132.025
L121.177 240.006
L122.094 189.755
L123.011 231.039
L123.928 228.415
L124.846 186.339
L126.68 221.132
L127.598 161.913
L128.515 134.368
L129.432 165.543
L130.349 100.589
L131.267 130.031
L132.184 137.369
L133.101 210.398
L134.018 179.356
L134.936 112.218
L135.853 80.9721
L136.77 123.744
L137.687 113.054
L138.605 85.8619
L139.522 89.3537
L140.439 158.516
L141.356 202.47
L142.274 180.64
L143.191 76.9587
L144.108 73.6791
L145.025 59.9835
L145.943 95.9275
L146.86 211.814
L147.777 212.232
L148.695 178.834
L149.612 191.006
L150.529 166.708
L151.446 111.449
L152.364 176.003
L153.281 29.6907
L154.198 129.06
L155.115 117.667
L156.033 50.8836
L156.95 67.3393
L157.867 61.0194
L158.784 179.365
L159.702 100.474
L160.619 73.4251
L161.536 78.1029
L162.453 67.0694
L163.371 74.2953
L165.205 128.163
L166.122 220.928
L167.04 116.726
L167.957 83.1312
L168.874 139.434
M170.709 159.455
L171.626 141.018
L172.543 94.3748
L173.461 180.824
L174.378 151.211
L175.295 173.469
L177.13 94.5581
L178.047 186.019
L178.964 164.153
L179.881 216.526
L180.799 148.796
L181.716 229.056
L182.633 121.739
L183.55 199.963
L184.468 100.283
L185.385 112.746
L186.302 155.002
L187.219 165.298
L188.137 122.202
L189.054 71.907
L189.971 82.201
L190.888 94.8768
L191.806 102.714
L192.723 88.6201
L193.64 103.162
L194.558 74.3785
L195.475 106.082
L196.392 150.299
L197.309 154.795
L198.227 89.9077
L199.144 97.8962
L200.061 138.43
L200.978 156.612
L201.896 104.156
L202.813 94.6417
L203.73 120.533
L204.647 155.543
L205.565 109.678
L206.482 100.757
L207.399 109.893
L208.316 120.612
L209.234 90.5165
L210.151 91.8635
L211.068 89.6983
L211.985 92.6144
L212.903 100.831
L214.737 120.133
L215.655 109.889
L216.572 105.037
L217.489 73.4931
L218.406 82.3045
L219.324 94.88
L220.241 109.423
L221.158 103.665
L222.075 104.992
L222.993 92.1803
L223.91 95.9217
L224.827 105.369
L225.744 103.623
L226.662 95.7772
L227.579 105.793
L228.496 124.325
L229.413 182.928
L230.331 128.047
L231.248 135.182
L232.165 125.247
L233.082 138.351
L234 129.693
L234.917 111.431
L235.834 109.865
L236.752 115.212
L237.669 114.634
L238.586 127.133
L239.503 145.374
L240.421 113.419
L241.338 117.802
L243.172 157.422
L244.09 198.953
L245.007 141.669
L245.924 123.221
L246.841 120.511
L247.759 121.968
L248.676 119.88
L249.593 123.782
L250.51 126.359
L251.428 117.409
L252.345 113.253
L253.262 123.94
L254.179 113.481
L256.014 110.221
L256.931 122.25
L257.848 157.208
L258.766 106.313
L259.683 122.772
L260.6 206.141
L261.518 148.918
L262.435 161.492
L263.352 156.487
L264.269 124.929
L265.187 120.502
L266.104 136.377
L267.021 106.424
L267.938 101.732
L268.856 104.059
L269.773 190.769
L270.69 230.208
L271.607 126.566
L272.525 114.095
L273.442 119.321
L275.276 135.498
L276.194 126.376
L277.111 124.335
L278.028 142.92
L278.945 137.832
L279.863 151.073
L280.78 137.986
L281.697 127.162
L282.615 127.763
L283.532 123.781
L284.449 118.593
L285.366 130.67
L286.284 135.121
L287.201 130.626
L288.118 135.564
L289.035 139.443
L289.953 133.234
L290.87 140.322
L291.787 140.106
L292.704 182.743
L293.622 208.013
L294.539 182.585
L295.456 179.586
L296.373 144.614
L297.291 210.077
L298.208 183.752
L299.125 165.733
L300.042 173.737
L300.96 139.48
L301.877 130.909
L302.794 128.992
L303.712 148.1
L304.629 157.556
L305.546 151.35
L306.463 129.41
L307.381 118.036
L308.298 131.467
L309.215 133.413
L310.132 141.777
L311.05 214.523
L311.967 242.073
L312.884 205.953
L313.801 223.661
L314.719 173.969
L315.636 133.628
L316.553 147.82
L317.47 158.471
L318.388 217.127
L319.305 170.314
L320.222 164.246
L321.139 169.293
L322.057 154.743
L322.974 165.424
L323.891 165.302
L324.808 219.153
L325.726 222.026
L326.643 184.413
L327.56 237.7
L328.478 222.537
L329.395 187.029
L330.312 193.362
L331.229 239.067
L332.147 208.626
L333.064 199.991
L333.981 171.764
L334.898 198.106
M340.402 181.783
L341.319 166.231
L342.236 178.575
L343.154 204.78
L344.071 221.912
L344.988 188.471
L345.905 191.784
M347.74 237.791
L348.657 215.296
L349.575 221.106
L350.492 236.533
L351.409 240.615
L352.326 222.795
L353.244 196.564
L354.161 218.897
L355.078 231.317
L355.995 230.618
L356.913 218.131
L357.83 216.073
L358.747 235.614
L359.664 225.442
L360.582 188.702
L361.499 184.756
L362.416 218.595
L363.333 240.637
L364.251 226.316
L365.168 197.655
L366.085 235.794
L367.002 230.945
L367.92 188.543
L368.837 138.472
L369.754 223.193
L370.672 220.078
L371.589 226.553
M373.423 233.688
L374.341 225.167
L374.341 225.167" style="fill:none;stroke:#bf00bf;stroke-linecap:square;"/>
   </g>
   <g id="line2d_13">
    <path clip-path="url(#p32cac9c315)" d="
M40.4578 197.737
L41.3751 199.678
L42.2923 228.015
L43.2096 232.88
L44.1269 196.904
L45.0441 208.025
L45.9614 206.326
L46.8786 212.999
L47.7959 228.195
M49.6304 203.742
L50.5477 212.367
M52.3822 232.948
L53.2995 229.307
L54.2167 239.177
L55.134 228.874
L56.0512 235.729
M57.8858 189.607
L58.803 228.868
L59.7203 231.588
L60.6375 173.75
L61.5548 233.183
L62.4721 238.473
L63.3893 239.828
L64.3066 231.511
L65.2238 230.8
L66.1411 233.045
M67.9756 207.723
L68.8929 178.43
L69.8101 156.371
L70.7274 175.798
L71.6447 214.466
L72.5619 208.583
L73.4792 206.377
L74.3964 206.079
L75.3137 217.754
L76.231 194.349
L78.0655 169.351
L78.9827 169.775
L79.9 157.047
L81.7345 171.924
L82.6518 211.605
L84.4863 234.493
L85.4036 228.576
M87.2381 218.587
L88.1553 214.159
L89.0726 202.892
M91.8244 183.583
L92.7416 172.118
L93.6589 183.52
L94.5762 146.94
L95.4934 201.344
L96.4107 206.804
L97.3279 219.631
L98.2452 228.444
L99.1625 231.93
L100.08 241.039
M101.914 223.727
L102.832 214.786
L103.749 243.822
L104.666 204.73
L105.583 241.683
L106.501 181.794
L107.418 217.887
M110.17 182.279
L111.087 230.558
L112.004 191.363
L112.921 214.216
L113.839 204.894
L114.756 189.256
L115.673 226.443
M119.342 199.32
L120.259 221.92
L121.177 219.294
L122.094 151.494
L123.011 155.784
L123.928 165.344
L124.846 197.574
L125.763 162.266
L126.68 170.949
L127.598 188.785
L128.515 166.597
L129.432 189.421
L130.349 206.129
L131.267 158.866
L132.184 173.216
L133.101 115.682
L134.018 185.933
L134.936 108.444
L135.853 170.188
L136.77 182.99
L137.687 152.356
L138.605 152.668
L139.522 67.7969
L140.439 173.768
L141.356 196.55
L142.274 88.9276
L143.191 70.3066
L144.108 148.728
L145.025 203.066
L145.943 139.137
L146.86 110.353
L147.777 202.578
L148.695 111.93
L149.612 126.792
L150.529 98.7037
L151.446 149.23
L152.364 99.5785
L153.281 86.4905
L154.198 113.275
L155.115 183.318
L156.033 148.29
L156.95 177.009
L157.867 133.03
L158.784 94.9851
L159.702 95.8698
L160.619 110.968
L161.536 118.656
L163.371 195.037
L164.288 223.112
L165.205 139.321
L166.122 180.724
L167.04 84.1269
L167.957 103.329
L168.874 139.311
L169.792 108.27
L170.709 169.765
L171.626 166.286
L172.543 153.999
L173.461 110.998
L174.378 197.608
L175.295 197.585
L176.212 196.043
L177.13 129.371
L178.047 147.992
L178.964 124.181
L179.881 179.68
L180.799 84.2574
L181.716 107.589
L182.633 123.362
L183.55 172.554
L184.468 186.434
L185.385 99.5549
L186.302 128.496
L187.219 141.709
L188.137 142.754
L189.054 108.574
L189.971 156.746
L190.888 88.6501
L191.806 72.8672
L192.723 110.788
L193.64 81.7906
L194.558 188.014
L195.475 177.37
L196.392 90.7538
L198.227 114.6
L199.144 112.808
L200.061 94.4107
L200.978 88.5064
L201.896 93.8808
L202.813 105.883
L203.73 120.288
L204.647 156.915
L205.565 107.938
L206.482 98.8151
L207.399 100.639
L208.316 114.726
L209.234 119.646
L210.151 122.738
L211.068 117.418
L211.985 171.935
L212.903 102.071
L213.82 98.5423
L214.737 119.143
L215.655 126.637
L216.572 117.669
L217.489 131.909
L218.406 119.115
L219.324 114.347
L220.241 130.943
L221.158 120.854
L222.075 118.986
L222.993 123.048
L223.91 108.04
L224.827 105.679
L225.744 109.417
L226.662 106.782
L227.579 121.258
L228.496 120.087
L229.413 122.471
L230.331 116.495
L231.248 114.622
L232.165 121.512
L233.082 135.033
L234 143.297
L234.917 132.864
L235.834 136.49
L236.752 124.286
L237.669 165.983
L238.586 125.18
L239.503 127.663
L240.421 132.77
L241.338 134.175
L242.255 120.167
L243.172 122.942
L244.09 114.11
L245.007 121.471
L245.924 139.652
L246.841 135.73
L247.759 114.005
L248.676 118.748
L249.593 128.173
L250.51 128.119
L251.428 125.881
L252.345 138.782
L253.262 140.629
L254.179 138.3
L255.097 134.603
L256.014 135.724
L256.931 143.678
L257.848 142.16
L258.766 172.833
L259.683 147.514
L260.6 137.364
L261.518 135.219
L262.435 121.488
L263.352 118.351
L264.269 120.425
L265.187 124.204
L266.104 124.578
L267.021 132.429
L267.938 138.634
L268.856 142.677
L269.773 141.254
L270.69 150.329
L271.607 146.942
L272.525 156.419
L273.442 147.476
L274.359 146.747
L275.276 144.996
L276.194 204.002
L277.111 151.163
L278.028 124.332
L278.945 121.247
L279.863 135.001
L280.78 137.559
L281.697 132.086
L282.615 140.791
L283.532 141.721
L284.449 148.076
L285.366 155.406
L286.284 140.374
L287.201 141.002
L288.118 145.076
L289.035 138.13
L289.953 154.273
L290.87 152.467
L291.787 155.562
L292.704 154.563
L293.622 221.38
L294.539 237.574
M297.291 183.64
L298.208 154.523
L299.125 215.924
L300.042 196.205
L300.96 153.39
L301.877 147.559
L302.794 144.332
L303.712 170.352
L304.629 240.396
L305.546 167.799
L306.463 141.817
L307.381 160.815
L308.298 149.054
L309.215 163.034
L310.132 174.412
L311.05 167.503
L311.967 199.76
L312.884 152.002
L313.801 120.803
L314.719 133.603
L315.636 133.524
L316.553 141.665
L317.47 160.993
L318.388 193.212
L319.305 152.456
L320.222 123.263
L321.139 152.182
L322.057 212.451
L322.974 224.182
L323.891 234.128
L324.808 236.942
L326.643 161.815
L327.56 156.019
L328.478 172.409
L329.395 206.749
L330.312 218.141
L331.229 157.59
L332.147 135.391
L333.981 231.388
L334.898 233.276
L335.816 223.103
L336.733 174.865
L337.65 193.748
L338.567 216.827
L339.485 169.876
L340.402 199.075
L341.319 196.627
L342.236 138.893
L343.154 140.012
L344.071 185.028
L344.988 220.464
L345.905 202.791
L346.823 154.6
L347.74 155.496
L348.657 173.044
L349.575 183.872
L350.492 184.013
L351.409 157.072
L352.326 163.281
L353.244 162.761
L354.161 163.597
L355.078 171.114
L355.995 177.566
L356.913 173.959
L357.83 186.398
L358.747 173.459
L359.664 201.894
L360.582 200.032
L361.499 197.503
L362.416 186.002
L364.251 166.479
L365.168 197.318
L366.085 150.892
L367.002 143.252
L368.837 164.229
L369.754 174.915
L370.672 196.267
L371.589 227.901
L372.506 210.66
M374.341 196.396" style="fill:none;stroke:#bfbf00;stroke-linecap:square;"/>
   </g>
   <g id="line2d_14">
    <path clip-path="url(#p32cac9c315)" d="
M40.4578 142.565
L41.3751 159.03
L42.2923 151.647
L43.2096 140.831
L45.0441 189.606
L45.9614 199.948
L46.8786 183.565
L47.7959 193.141
L48.7132 228.865
L49.6304 178.233
L50.5477 186.975
L51.4649 143.028
L52.3822 130.875
L53.2995 174.465
L54.2167 187.757
L55.134 156.533
L56.0512 208.014
M58.803 242.719
L59.7203 222.885
L60.6375 244.168
L61.5548 225.453
L62.4721 218.763
L63.3893 241.033
L64.3066 177.287
L65.2238 159.066
L66.1411 134.604
L67.0584 197.08
L67.9756 164.851
L68.8929 219.523
L69.8101 211.11
L70.7274 171.62
L71.6447 164.633
L72.5619 162.732
L73.4792 164.339
L74.3964 140.843
L75.3137 206.191
L76.231 236.745
L77.1482 201.171
L78.0655 225.094
L78.9827 232.599
L79.9 198.694
L80.8173 209.29
L81.7345 223.229
L82.6518 178.331
L83.569 177.585
L84.4863 207.922
L85.4036 190.19
L86.3208 214.979
M88.1553 221.632
L89.0726 183.743
L89.9899 133.556
L90.9071 209.525
L91.8244 174.902
L93.6589 147.657
L94.5762 201.258
L95.4934 237.01
L96.4107 182.807
L97.3279 203.936
L98.2452 167.919
L99.1625 157.227
L100.08 194.464
L100.997 130.62
L101.914 124.478
L102.832 126.626
L103.749 139.439
L104.666 182.301
L106.501 206.924
M108.335 205.5
L109.252 231.353
L110.17 233.86
M112.004 202.722
L112.921 217.661
L113.839 171.206
L114.756 105.15
L115.673 153.013
L116.59 122.167
L117.508 164.415
L118.425 220.635
L119.342 138.426
L120.259 185.611
L121.177 200.945
L122.094 222.428
L123.011 123.834
L123.928 91.9855
L124.846 116.075
L125.763 110.892
L126.68 154.147
L127.598 113.979
L128.515 109.676
L129.432 81.3466
L130.349 78.0194
L131.267 111.948
L132.184 101.455
L133.101 176.267
L134.018 139.127
L134.936 172.807
L135.853 118.597
L136.77 77.0134
L137.687 189.328
L138.605 138.879
L139.522 139.413
L140.439 170.8
L141.356 117.742
L142.274 96.3877
L143.191 103.042
L144.108 141.623
L145.025 130.318
L145.943 158.845
L146.86 244.045
L147.777 84.1575
L148.695 129.392
L149.612 83.167
L150.529 182.342
L151.446 105.374
L152.364 88.1768
L153.281 186.602
L154.198 215.21
L155.115 119.409
L156.033 69.3879
L156.95 72.8546
L157.867 75.6102
L158.784 91.3053
L159.702 52.7728
L160.619 63.6871
L161.536 76.6046
L162.453 82.1873
L163.371 107.324
L164.288 152.861
L165.205 109.787
L166.122 136.046
L167.04 79.872
L167.957 71.0516
L168.874 95.4381
L169.792 158.523
L170.709 164.625
L171.626 148.814
L172.543 108.329
L173.461 201.105
L174.378 205.66
L175.295 157.075
L176.212 85.7741
L177.13 84.0376
L178.047 97.2764
L178.964 103.029
L179.881 98.9255
L180.799 141.638
L181.716 115.502
L182.633 141.545
L183.55 217.269
L184.468 91.2067
L185.385 113.723
L186.302 125.756
L187.219 193.607
L188.137 126.047
L189.054 82.859
L189.971 114.934
L191.806 69.9944
L192.723 80.2416
L193.64 99.8442
L194.558 107.228
L195.475 78.1004
L196.392 94.4657
L197.309 77.7241
L198.227 102.881
L199.144 110.448
L200.061 97.8318
L200.978 98.1927
L201.896 93.6111
L202.813 90.5984
L203.73 84.7613
L204.647 99.6937
L205.565 96.2531
L206.482 107.603
L207.399 134.669
L208.316 113.624
L209.234 100.789
L210.151 96.6662
L211.068 118.091
L211.985 123.002
L212.903 123.499
L213.82 148.563
L214.737 132.221
L215.655 123.834
L216.572 127.858
L217.489 131.038
L218.406 159.53
L219.324 167.882
L220.241 133.962
L221.158 152.163
L222.075 114.661
L222.993 115.767
L223.91 138.179
L224.827 112.527
L225.744 118.514
L226.662 118.511
L227.579 122.156
L228.496 119.016
L229.413 119.601
L230.331 125.119
L231.248 128.991
L232.165 127.975
L233.082 123.493
L234 127.395
L234.917 121.983
L235.834 121.055
L236.752 110.612
L237.669 112.049
L238.586 116.311
L239.503 129.256
L240.421 127.564
L242.255 144.509
L243.172 133.496
L244.09 149.371
L245.007 127.288
L245.924 141.307
L246.841 141.183
L247.759 138.339
L248.676 132.572
L249.593 131.024
L250.51 135.916
L251.428 132.68
L252.345 162.506
L253.262 139.639
L254.179 143.555
L255.097 132.84
L256.014 125.848
L256.931 106.442
L257.848 116.332
L258.766 141.555
L259.683 142.214
L260.6 126.742
L261.518 126.29
L262.435 120.714
L263.352 155.839
L264.269 134.797
L265.187 106.434
L267.021 120.177
L267.938 124.855
L268.856 150.095
L269.773 121.627
L271.607 132.321
L272.525 124.248
L273.442 117.785
L274.359 105.05
L275.276 115.259
L276.194 128.408
L277.111 123.737
L278.028 131.039
L278.945 127.78
L279.863 125.5
L280.78 142.23
L281.697 148.112
L282.615 150.092
L283.532 144.792
L284.449 205.489
L285.366 153.495
L286.284 153.706
L287.201 150.643
L288.118 136.035
L289.035 142.898
L289.953 144.988
L290.87 142.784
L291.787 135.447
L292.704 135.981
L293.622 113.049
L294.539 113.289
L295.456 107.221
L296.373 110.574
L297.291 115.209
L298.208 115.354
L299.125 129.164
L300.042 134.84
L300.96 136.708
L301.877 136.483
L302.794 187.697
L303.712 159.301
L304.629 169.553
L305.546 173.866
L306.463 144.77
L307.381 132.145
L308.298 161.847
L309.215 184.846
L310.132 149.052
L311.05 231.722
M312.884 218.521
L313.801 219.175
L314.719 178.548
L315.636 192.634
L316.553 225.92
L317.47 175.677
L318.388 158.921
L319.305 154.388
L320.222 182.825
L321.139 164.166
L322.057 176.747
L322.974 164.604
L323.891 183.458
L324.808 170.368
L325.726 185.449
L326.643 202.716
L327.56 242.09
L328.478 219.697
L329.395 224.266
L330.312 214.594
L331.229 217.754
L332.147 214.113
L333.064 204.441
L333.981 187.849
L334.898 220.512
L335.816 211.676
L336.733 212.327
L337.65 201.929
L338.567 226.474
L339.485 177.958
L340.402 145.817
L341.319 197.719
L342.236 217.999
L343.154 194.841
L344.071 175.021
L344.988 194.274
L345.905 207.005
L346.823 227.273
L347.74 224.896
L348.657 244.501
L349.575 178.772
L350.492 213.066
L351.409 227.744
L353.244 187.8
L354.161 215.918
L355.078 195.385
L355.995 232.124
L356.913 205.833
L357.83 237.811
L358.747 209.034
L359.664 223.86
L360.582 227.148
M362.416 224.983
L363.333 210.845
L364.251 203.15
L365.168 142.823
L366.085 135.744
L367.002 191.456
L367.92 231.118
L368.837 230.713
L369.754 205.306
L370.672 233.192
L371.589 237.586
L372.506 209.811
L373.423 208.268
L374.341 239.843
L374.341 239.843" style="fill:none;stroke:#000000;stroke-linecap:square;"/>
   </g>
   <g id="patch_3">
    <path d="
M40.4578 21.3181
L375.258 21.3181" style="fill:none;stroke:#000000;stroke-linecap:square;stroke-linejoin:miter;"/>
   </g>
   <g id="patch_4">
    <path d="
M375.258 244.518
L375.258 21.3181" style="fill:none;stroke:#000000;stroke-linecap:square;stroke-linejoin:miter;"/>
   </g>
   <g id="patch_5">
    <path d="
M40.4578 244.518
L375.258 244.518" style="fill:none;stroke:#000000;stroke-linecap:square;stroke-linejoin:miter;"/>
   </g>
   <g id="patch_6">
    <path d="
M40.4578 244.518
L40.4578 21.3181" style="fill:none;stroke:#000000;stroke-linecap:square;stroke-linejoin:miter;"/>
   </g>
   <g id="matplotlib.axis_1">
    <g id="xtick_1">
     <g id="line2d_15">
      <defs>
       <path d="
M0 0
L0 -4" id="m93b0483c22" style="stroke:#000000;stroke-width:0.5;"/>
      </defs>
      <g>
       <use style="stroke:#000000;stroke-width:0.5;" x="40.4578125" xlink:href="#m93b0483c22" y="244.518125"/>
      </g>
     </g>
     <g id="line2d_16">
      <defs>
       <path d="
M0 0
L0 4" id="m741efc42ff" style="stroke:#000000;stroke-width:0.5;"/>
      </defs>
      <g>
       <use style="stroke:#000000;stroke-width:0.5;" x="40.4578125" xlink:href="#m741efc42ff" y="21.318125"/>
      </g>
     </g>
     <g id="text_1">
      <!-- 0 -->
      <defs>
       <path d="
M31.7812 66.4062
Q24.1719 66.4062 20.3281 58.9062
Q16.5 51.4219 16.5 36.375
Q16.5 21.3906 20.3281 13.8906
Q24.1719 6.39062 31.7812 6.39062
Q39.4531 6.39062 43.2812 13.8906
Q47.125 21.3906 47.125 36.375
Q47.125 51.4219 43.2812 58.9062
Q39.4531 66.4062 31.7812 66.4062
M31.7812 74.2188
Q44.0469 74.2188 50.5156 64.5156
Q56.9844 54.8281 56.9844 36.375
Q56.9844 17.9688 50.5156 8.26562
Q44.0469 -1.42188 31.7812 -1.42188
Q19.5312 -1.42188 13.0625 8.26562
Q6.59375 17.9688 6.59375 36.375
Q6.59375 54.8281 13.0625 64.5156
Q19.5312 74.2188 31.7812 74.2188" id="BitstreamVeraSans-Roman-30"/>
      </defs>
      <g transform="translate(37.93828125 256.1165625)scale(0.1 -0.1)">
       <use xlink:href="#BitstreamVeraSans-Roman-30"/>
      </g>
     </g>
    </g>
    <g id="xtick_2">
     <g id="line2d_17">
      <g>
       <use style="stroke:#000000;stroke-width:0.5;" x="86.3208261986" xlink:href="#m93b0483c22" y="244.518125"/>
      </g>
     </g>
     <g id="line2d_18">
      <g>
       <use style="stroke:#000000;stroke-width:0.5;" x="86.3208261986" xlink:href="#m741efc42ff" y="21.318125"/>
      </g>
     </g>
     <g id="text_2">
      <!-- 50 -->
      <defs>
       <path d="
M10.7969 72.9062
L49.5156 72.9062
L49.5156 64.5938
L19.8281 64.5938
L19.8281 46.7344
Q21.9688 47.4688 24.1094 47.8281
Q26.2656 48.1875 28.4219 48.1875
Q40.625 48.1875 47.75 41.5
Q54.8906 34.8125 54.8906 23.3906
Q54.8906 11.625 47.5625 5.09375
Q40.2344 -1.42188 26.9062 -1.42188
Q22.3125 -1.42188 17.5469 -0.640625
Q12.7969 0.140625 7.71875 1.70312
L7.71875 11.625
Q12.1094 9.23438 16.7969 8.0625
Q21.4844 6.89062 26.7031 6.89062
Q35.1562 6.89062 40.0781 11.3281
Q45.0156 15.7656 45.0156 23.3906
Q45.0156 31 40.0781 35.4375
Q35.1562 39.8906 26.7031 39.8906
Q22.75 39.8906 18.8125 39.0156
Q14.8906 38.1406 10.7969 36.2812
z
" id="BitstreamVeraSans-Roman-35"/>
      </defs>
      <g transform="translate(80.6762949486 256.1165625)scale(0.1 -0.1)">
       <use xlink:href="#BitstreamVeraSans-Roman-35"/>
       <use x="63.623046875" xlink:href="#BitstreamVeraSans-Roman-30"/>
      </g>
     </g>
    </g>
    <g id="xtick_3">
     <g id="line2d_19">
      <g>
       <use style="stroke:#000000;stroke-width:0.5;" x="132.183839897" xlink:href="#m93b0483c22" y="244.518125"/>
      </g>
     </g>
     <g id="line2d_20">
      <g>
       <use style="stroke:#000000;stroke-width:0.5;" x="132.183839897" xlink:href="#m741efc42ff" y="21.318125"/>
      </g>
     </g>
     <g id="text_3">
      <!-- 100 -->
      <defs>
       <path d="
M12.4062 8.29688
L28.5156 8.29688
L28.5156 63.9219
L10.9844 60.4062
L10.9844 69.3906
L28.4219 72.9062
L38.2812 72.9062
L38.2812 8.29688
L54.3906 8.29688
L54.3906 0
L12.4062 0
z
" id="BitstreamVeraSans-Roman-31"/>
      </defs>
      <g transform="translate(123.521339897 256.1165625)scale(0.1 -0.1)">
       <use xlink:href="#BitstreamVeraSans-Roman-31"/>
       <use x="63.623046875" xlink:href="#BitstreamVeraSans-Roman-30"/>
       <use x="127.24609375" xlink:href="#BitstreamVeraSans-Roman-30"/>
      </g>
     </g>
    </g>
    <g id="xtick_4">
     <g id="line2d_21">
      <g>
       <use style="stroke:#000000;stroke-width:0.5;" x="178.046853596" xlink:href="#m93b0483c22" y="244.518125"/>
      </g>
     </g>
     <g id="line2d_22">
      <g>
       <use style="stroke:#000000;stroke-width:0.5;" x="178.046853596" xlink:href="#m741efc42ff" y="21.318125"/>
      </g>
     </g>
     <g id="text_4">
      <!-- 150 -->
      <g transform="translate(169.384353596 256.1165625)scale(0.1 -0.1)">
       <use xlink:href="#BitstreamVeraSans-Roman-31"/>
       <use x="63.623046875" xlink:href="#BitstreamVeraSans-Roman-35"/>
       <use x="127.24609375" xlink:href="#BitstreamVeraSans-Roman-30"/>
      </g>
     </g>
    </g>
    <g id="xtick_5">
     <g id="line2d_23">
      <g>
       <use style="stroke:#000000;stroke-width:0.5;" x="223.909867295" xlink:href="#m93b0483c22" y="244.518125"/>
      </g>
     </g>
     <g id="line2d_24">
      <g>
       <use style="stroke:#000000;stroke-width:0.5;" x="223.909867295" xlink:href="#m741efc42ff" y="21.318125"/>
      </g>
     </g>
     <g id="text_5">
      <!-- 200 -->
      <defs>
       <path d="
M19.1875 8.29688
L53.6094 8.29688
L53.6094 0
L7.32812 0
L7.32812 8.29688
Q12.9375 14.1094 22.625 23.8906
Q32.3281 33.6875 34.8125 36.5312
Q39.5469 41.8438 41.4219 45.5312
Q43.3125 49.2188 43.3125 52.7812
Q43.3125 58.5938 39.2344 62.25
Q35.1562 65.9219 28.6094 65.9219
Q23.9688 65.9219 18.8125 64.3125
Q13.6719 62.7031 7.8125 59.4219
L7.8125 69.3906
Q13.7656 71.7812 18.9375 73
Q24.125 74.2188 28.4219 74.2188
Q39.75 74.2188 46.4844 68.5469
Q53.2188 62.8906 53.2188 53.4219
Q53.2188 48.9219 51.5312 44.8906
Q49.8594 40.875 45.4062 35.4062
Q44.1875 33.9844 37.6406 27.2188
Q31.1094 20.4531 19.1875 8.29688" id="BitstreamVeraSans-Roman-32"/>
      </defs>
      <g transform="translate(215.064554795 256.1165625)scale(0.1 -0.1)">
       <use xlink:href="#BitstreamVeraSans-Roman-32"/>
       <use x="63.623046875" xlink:href="#BitstreamVeraSans-Roman-30"/>
       <use x="127.24609375" xlink:href="#BitstreamVeraSans-Roman-30"/>
      </g>
     </g>
    </g>
    <g id="xtick_6">
     <g id="line2d_25">
      <g>
       <use style="stroke:#000000;stroke-width:0.5;" x="269.772880993" xlink:href="#m93b0483c22" y="244.518125"/>
      </g>
     </g>
     <g id="line2d_26">
      <g>
       <use style="stroke:#000000;stroke-width:0.5;" x="269.772880993" xlink:href="#m741efc42ff" y="21.318125"/>
      </g>
     </g>
     <g id="text_6">
      <!-- 250 -->
      <g transform="translate(260.927568493 256.1165625)scale(0.1 -0.1)">
       <use xlink:href="#BitstreamVeraSans-Roman-32"/>
       <use x="63.623046875" xlink:href="#BitstreamVeraSans-Roman-35"/>
       <use x="127.24609375" xlink:href="#BitstreamVeraSans-Roman-30"/>
      </g>
     </g>
    </g>
    <g id="xtick_7">
     <g id="line2d_27">
      <g>
       <use style="stroke:#000000;stroke-width:0.5;" x="315.635894692" xlink:href="#m93b0483c22" y="244.518125"/>
      </g>
     </g>
     <g id="line2d_28">
      <g>
       <use style="stroke:#000000;stroke-width:0.5;" x="315.635894692" xlink:href="#m741efc42ff" y="21.318125"/>
      </g>
     </g>
     <g id="text_7">
      <!-- 300 -->
      <defs>
       <path d="
M40.5781 39.3125
Q47.6562 37.7969 51.625 33
Q55.6094 28.2188 55.6094 21.1875
Q55.6094 10.4062 48.1875 4.48438
Q40.7656 -1.42188 27.0938 -1.42188
Q22.5156 -1.42188 17.6562 -0.515625
Q12.7969 0.390625 7.625 2.20312
L7.625 11.7188
Q11.7188 9.32812 16.5938 8.10938
Q21.4844 6.89062 26.8125 6.89062
Q36.0781 6.89062 40.9375 10.5469
Q45.7969 14.2031 45.7969 21.1875
Q45.7969 27.6406 41.2812 31.2656
Q36.7656 34.9062 28.7188 34.9062
L20.2188 34.9062
L20.2188 43.0156
L29.1094 43.0156
Q36.375 43.0156 40.2344 45.9219
Q44.0938 48.8281 44.0938 54.2969
Q44.0938 59.9062 40.1094 62.9062
Q36.1406 65.9219 28.7188 65.9219
Q24.6562 65.9219 20.0156 65.0312
Q15.375 64.1562 9.8125 62.3125
L9.8125 71.0938
Q15.4375 72.6562 20.3438 73.4375
Q25.25 74.2188 29.5938 74.2188
Q40.8281 74.2188 47.3594 69.1094
Q53.9062 64.0156 53.9062 55.3281
Q53.9062 49.2656 50.4375 45.0938
Q46.9688 40.9219 40.5781 39.3125" id="BitstreamVeraSans-Roman-33"/>
      </defs>
      <g transform="translate(306.805425942 256.1165625)scale(0.1 -0.1)">
       <use xlink:href="#BitstreamVeraSans-Roman-33"/>
       <use x="63.623046875" xlink:href="#BitstreamVeraSans-Roman-30"/>
       <use x="127.24609375" xlink:href="#BitstreamVeraSans-Roman-30"/>
      </g>
     </g>
    </g>
    <g id="xtick_8">
     <g id="line2d_29">
      <g>
       <use style="stroke:#000000;stroke-width:0.5;" x="361.49890839" xlink:href="#m93b0483c22" y="244.518125"/>
      </g>
     </g>
     <g id="line2d_30">
      <g>
       <use style="stroke:#000000;stroke-width:0.5;" x="361.49890839" xlink:href="#m741efc42ff" y="21.318125"/>
      </g>
     </g>
     <g id="text_8">
      <!-- 350 -->
      <g transform="translate(352.66843964 256.1165625)scale(0.1 -0.1)">
       <use xlink:href="#BitstreamVeraSans-Roman-33"/>
       <use x="63.623046875" xlink:href="#BitstreamVeraSans-Roman-35"/>
       <use x="127.24609375" xlink:href="#BitstreamVeraSans-Roman-30"/>
      </g>
     </g>
    </g>
    <g id="text_9">
     <!-- Julian day -->
     <defs>
      <path id="BitstreamVeraSans-Roman-20"/>
      <path d="
M9.8125 72.9062
L19.6719 72.9062
L19.6719 5.07812
Q19.6719 -8.10938 14.6719 -14.0625
Q9.67188 -20.0156 -1.42188 -20.0156
L-5.17188 -20.0156
L-5.17188 -11.7188
L-2.09375 -11.7188
Q4.4375 -11.7188 7.125 -8.04688
Q9.8125 -4.39062 9.8125 5.07812
z
" id="BitstreamVeraSans-Roman-4a"/>
      <path d="
M54.8906 33.0156
L54.8906 0
L45.9062 0
L45.9062 32.7188
Q45.9062 40.4844 42.875 44.3281
Q39.8438 48.1875 33.7969 48.1875
Q26.5156 48.1875 22.3125 43.5469
Q18.1094 38.9219 18.1094 30.9062
L18.1094 0
L9.07812 0
L9.07812 54.6875
L18.1094 54.6875
L18.1094 46.1875
Q21.3438 51.125 25.7031 53.5625
Q30.0781 56 35.7969 56
Q45.2188 56 50.0469 50.1719
Q54.8906 44.3438 54.8906 33.0156" id="BitstreamVeraSans-Roman-6e"/>
      <path d="
M9.42188 75.9844
L18.4062 75.9844
L18.4062 0
L9.42188 0
z
" id="BitstreamVeraSans-Roman-6c"/>
      <path d="
M9.42188 54.6875
L18.4062 54.6875
L18.4062 0
L9.42188 0
z

M9.42188 75.9844
L18.4062 75.9844
L18.4062 64.5938
L9.42188 64.5938
z
" id="BitstreamVeraSans-Roman-69"/>
      <path d="
M32.1719 -5.07812
Q28.375 -14.8438 24.75 -17.8125
Q21.1406 -20.7969 15.0938 -20.7969
L7.90625 -20.7969
L7.90625 -13.2812
L13.1875 -13.2812
Q16.8906 -13.2812 18.9375 -11.5156
Q21 -9.76562 23.4844 -3.21875
L25.0938 0.875
L2.98438 54.6875
L12.5 54.6875
L29.5938 11.9219
L46.6875 54.6875
L56.2031 54.6875
z
" id="BitstreamVeraSans-Roman-79"/>
      <path d="
M45.4062 46.3906
L45.4062 75.9844
L54.3906 75.9844
L54.3906 0
L45.4062 0
L45.4062 8.20312
Q42.5781 3.32812 38.25 0.953125
Q33.9375 -1.42188 27.875 -1.42188
Q17.9688 -1.42188 11.7344 6.48438
Q5.51562 14.4062 5.51562 27.2969
Q5.51562 40.1875 11.7344 48.0938
Q17.9688 56 27.875 56
Q33.9375 56 38.25 53.625
Q42.5781 51.2656 45.4062 46.3906
M14.7969 27.2969
Q14.7969 17.3906 18.875 11.75
Q22.9531 6.10938 30.0781 6.10938
Q37.2031 6.10938 41.2969 11.75
Q45.4062 17.3906 45.4062 27.2969
Q45.4062 37.2031 41.2969 42.8438
Q37.2031 48.4844 30.0781 48.4844
Q22.9531 48.4844 18.875 42.8438
Q14.7969 37.2031 14.7969 27.2969" id="BitstreamVeraSans-Roman-64"/>
      <path d="
M8.5 21.5781
L8.5 54.6875
L17.4844 54.6875
L17.4844 21.9219
Q17.4844 14.1562 20.5 10.2656
Q23.5312 6.39062 29.5938 6.39062
Q36.8594 6.39062 41.0781 11.0312
Q45.3125 15.6719 45.3125 23.6875
L45.3125 54.6875
L54.2969 54.6875
L54.2969 0
L45.3125 0
L45.3125 8.40625
Q42.0469 3.42188 37.7188 1
Q33.4062 -1.42188 27.6875 -1.42188
Q18.2656 -1.42188 13.375 4.4375
Q8.5 10.2969 8.5 21.5781" id="BitstreamVeraSans-Roman-75"/>
      <path d="
M34.2812 27.4844
Q23.3906 27.4844 19.1875 25
Q14.9844 22.5156 14.9844 16.5
Q14.9844 11.7188 18.1406 8.90625
Q21.2969 6.10938 26.7031 6.10938
Q34.1875 6.10938 38.7031 11.4062
Q43.2188 16.7031 43.2188 25.4844
L43.2188 27.4844
z

M52.2031 31.2031
L52.2031 0
L43.2188 0
L43.2188 8.29688
Q40.1406 3.32812 35.5469 0.953125
Q30.9531 -1.42188 24.3125 -1.42188
Q15.9219 -1.42188 10.9531 3.29688
Q6 8.01562 6 15.9219
Q6 25.1406 12.1719 29.8281
Q18.3594 34.5156 30.6094 34.5156
L43.2188 34.5156
L43.2188 35.4062
Q43.2188 41.6094 39.1406 45
Q35.0625 48.3906 27.6875 48.3906
Q23 48.3906 18.5469 47.2656
Q14.1094 46.1406 10.0156 43.8906
L10.0156 52.2031
Q14.9375 54.1094 19.5781 55.0469
Q24.2188 56 28.6094 56
Q40.4844 56 46.3438 49.8438
Q52.2031 43.7031 52.2031 31.2031" id="BitstreamVeraSans-Roman-61"/>
     </defs>
     <g transform="translate(183.30703125 270.7946875)scale(0.1 -0.1)">
      <use xlink:href="#BitstreamVeraSans-Roman-4a"/>
      <use x="29.4921875" xlink:href="#BitstreamVeraSans-Roman-75"/>
      <use x="92.87109375" xlink:href="#BitstreamVeraSans-Roman-6c"/>
      <use x="120.654296875" xlink:href="#BitstreamVeraSans-Roman-69"/>
      <use x="148.4375" xlink:href="#BitstreamVeraSans-Roman-61"/>
      <use x="209.716796875" xlink:href="#BitstreamVeraSans-Roman-6e"/>
      <use x="273.095703125" xlink:href="#BitstreamVeraSans-Roman-20"/>
      <use x="304.8828125" xlink:href="#BitstreamVeraSans-Roman-64"/>
      <use x="368.359375" xlink:href="#BitstreamVeraSans-Roman-61"/>
      <use x="429.638671875" xlink:href="#BitstreamVeraSans-Roman-79"/>
     </g>
    </g>
   </g>
   <g id="matplotlib.axis_2">
    <g id="ytick_1">
     <g id="line2d_31">
      <defs>
       <path d="
M0 0
L4 0" id="m728421d6d4" style="stroke:#000000;stroke-width:0.5;"/>
      </defs>
      <g>
       <use style="stroke:#000000;stroke-width:0.5;" x="40.4578125" xlink:href="#m728421d6d4" y="244.518125"/>
      </g>
     </g>
     <g id="line2d_32">
      <defs>
       <path d="
M0 0
L-4 0" id="mcb0005524f" style="stroke:#000000;stroke-width:0.5;"/>
      </defs>
      <g>
       <use style="stroke:#000000;stroke-width:0.5;" x="375.2578125" xlink:href="#mcb0005524f" y="244.518125"/>
      </g>
     </g>
     <g id="text_10">
      <!-- 0.0 -->
      <defs>
       <path d="
M10.6875 12.4062
L21 12.4062
L21 0
L10.6875 0
z
" id="BitstreamVeraSans-Roman-2e"/>
      </defs>
      <g transform="translate(21.878125 247.2775)scale(0.1 -0.1)">
       <use xlink:href="#BitstreamVeraSans-Roman-30"/>
       <use x="63.623046875" xlink:href="#BitstreamVeraSans-Roman-2e"/>
       <use x="95.41015625" xlink:href="#BitstreamVeraSans-Roman-30"/>
      </g>
     </g>
    </g>
    <g id="ytick_2">
     <g id="line2d_33">
      <g>
       <use style="stroke:#000000;stroke-width:0.5;" x="40.4578125" xlink:href="#m728421d6d4" y="212.632410714"/>
      </g>
     </g>
     <g id="line2d_34">
      <g>
       <use style="stroke:#000000;stroke-width:0.5;" x="375.2578125" xlink:href="#mcb0005524f" y="212.632410714"/>
      </g>
     </g>
     <g id="text_11">
      <!-- 0.5 -->
      <g transform="translate(22.0875 215.391785714)scale(0.1 -0.1)">
       <use xlink:href="#BitstreamVeraSans-Roman-30"/>
       <use x="63.623046875" xlink:href="#BitstreamVeraSans-Roman-2e"/>
       <use x="95.41015625" xlink:href="#BitstreamVeraSans-Roman-35"/>
      </g>
     </g>
    </g>
    <g id="ytick_3">
     <g id="line2d_35">
      <g>
       <use style="stroke:#000000;stroke-width:0.5;" x="40.4578125" xlink:href="#m728421d6d4" y="180.746696429"/>
      </g>
     </g>
     <g id="line2d_36">
      <g>
       <use style="stroke:#000000;stroke-width:0.5;" x="375.2578125" xlink:href="#mcb0005524f" y="180.746696429"/>
      </g>
     </g>
     <g id="text_12">
      <!-- 1.0 -->
      <g transform="translate(22.3171875 183.506071429)scale(0.1 -0.1)">
       <use xlink:href="#BitstreamVeraSans-Roman-31"/>
       <use x="63.623046875" xlink:href="#BitstreamVeraSans-Roman-2e"/>
       <use x="95.41015625" xlink:href="#BitstreamVeraSans-Roman-30"/>
      </g>
     </g>
    </g>
    <g id="ytick_4">
     <g id="line2d_37">
      <g>
       <use style="stroke:#000000;stroke-width:0.5;" x="40.4578125" xlink:href="#m728421d6d4" y="148.860982143"/>
      </g>
     </g>
     <g id="line2d_38">
      <g>
       <use style="stroke:#000000;stroke-width:0.5;" x="375.2578125" xlink:href="#mcb0005524f" y="148.860982143"/>
      </g>
     </g>
     <g id="text_13">
      <!-- 1.5 -->
      <g transform="translate(22.5265625 151.620357143)scale(0.1 -0.1)">
       <use xlink:href="#BitstreamVeraSans-Roman-31"/>
       <use x="63.623046875" xlink:href="#BitstreamVeraSans-Roman-2e"/>
       <use x="95.41015625" xlink:href="#BitstreamVeraSans-Roman-35"/>
      </g>
     </g>
    </g>
    <g id="ytick_5">
     <g id="line2d_39">
      <g>
       <use style="stroke:#000000;stroke-width:0.5;" x="40.4578125" xlink:href="#m728421d6d4" y="116.975267857"/>
      </g>
     </g>
     <g id="line2d_40">
      <g>
       <use style="stroke:#000000;stroke-width:0.5;" x="375.2578125" xlink:href="#mcb0005524f" y="116.975267857"/>
      </g>
     </g>
     <g id="text_14">
      <!-- 2.0 -->
      <g transform="translate(21.9515625 119.734642857)scale(0.1 -0.1)">
       <use xlink:href="#BitstreamVeraSans-Roman-32"/>
       <use x="63.623046875" xlink:href="#BitstreamVeraSans-Roman-2e"/>
       <use x="95.41015625" xlink:href="#BitstreamVeraSans-Roman-30"/>
      </g>
     </g>
    </g>
    <g id="ytick_6">
     <g id="line2d_41">
      <g>
       <use style="stroke:#000000;stroke-width:0.5;" x="40.4578125" xlink:href="#m728421d6d4" y="85.0895535714"/>
      </g>
     </g>
     <g id="line2d_42">
      <g>
       <use style="stroke:#000000;stroke-width:0.5;" x="375.2578125" xlink:href="#mcb0005524f" y="85.0895535714"/>
      </g>
     </g>
     <g id="text_15">
      <!-- 2.5 -->
      <g transform="translate(22.1609375 87.8489285714)scale(0.1 -0.1)">
       <use xlink:href="#BitstreamVeraSans-Roman-32"/>
       <use x="63.623046875" xlink:href="#BitstreamVeraSans-Roman-2e"/>
       <use x="95.41015625" xlink:href="#BitstreamVeraSans-Roman-35"/>
      </g>
     </g>
    </g>
    <g id="ytick_7">
     <g id="line2d_43">
      <g>
       <use style="stroke:#000000;stroke-width:0.5;" x="40.4578125" xlink:href="#m728421d6d4" y="53.2038392857"/>
      </g>
     </g>
     <g id="line2d_44">
      <g>
       <use style="stroke:#000000;stroke-width:0.5;" x="375.2578125" xlink:href="#mcb0005524f" y="53.2038392857"/>
      </g>
     </g>
     <g id="text_16">
      <!-- 3.0 -->
      <g transform="translate(21.98125 55.9632142857)scale(0.1 -0.1)">
       <use xlink:href="#BitstreamVeraSans-Roman-33"/>
       <use x="63.623046875" xlink:href="#BitstreamVeraSans-Roman-2e"/>
       <use x="95.41015625" xlink:href="#BitstreamVeraSans-Roman-30"/>
      </g>
     </g>
    </g>
    <g id="ytick_8">
     <g id="line2d_45">
      <g>
       <use style="stroke:#000000;stroke-width:0.5;" x="40.4578125" xlink:href="#m728421d6d4" y="21.318125"/>
      </g>
     </g>
     <g id="line2d_46">
      <g>
       <use style="stroke:#000000;stroke-width:0.5;" x="375.2578125" xlink:href="#mcb0005524f" y="21.318125"/>
      </g>
     </g>
     <g id="text_17">
      <!-- 3.5 -->
      <g transform="translate(22.190625 24.0775)scale(0.1 -0.1)">
       <use xlink:href="#BitstreamVeraSans-Roman-33"/>
       <use x="63.623046875" xlink:href="#BitstreamVeraSans-Roman-2e"/>
       <use x="95.41015625" xlink:href="#BitstreamVeraSans-Roman-35"/>
      </g>
     </g>
    </g>
    <g id="text_18">
     <!-- PET (mm/day) -->
     <defs>
      <path d="
M52 44.1875
Q55.375 50.25 60.0625 53.125
Q64.75 56 71.0938 56
Q79.6406 56 84.2812 50.0156
Q88.9219 44.0469 88.9219 33.0156
L88.9219 0
L79.8906 0
L79.8906 32.7188
Q79.8906 40.5781 77.0938 44.375
Q74.3125 48.1875 68.6094 48.1875
Q61.625 48.1875 57.5625 43.5469
Q53.5156 38.9219 53.5156 30.9062
L53.5156 0
L44.4844 0
L44.4844 32.7188
Q44.4844 40.625 41.7031 44.4062
Q38.9219 48.1875 33.1094 48.1875
Q26.2188 48.1875 22.1562 43.5312
Q18.1094 38.875 18.1094 30.9062
L18.1094 0
L9.07812 0
L9.07812 54.6875
L18.1094 54.6875
L18.1094 46.1875
Q21.1875 51.2188 25.4844 53.6094
Q29.7812 56 35.6875 56
Q41.6562 56 45.8281 52.9688
Q50 49.9531 52 44.1875" id="BitstreamVeraSans-Roman-6d"/>
      <path d="
M8.01562 75.875
L15.8281 75.875
Q23.1406 64.3594 26.7812 53.3125
Q30.4219 42.2812 30.4219 31.3906
Q30.4219 20.4531 26.7812 9.375
Q23.1406 -1.70312 15.8281 -13.1875
L8.01562 -13.1875
Q14.5 -2 17.7031 9.0625
Q20.9062 20.125 20.9062 31.3906
Q20.9062 42.6719 17.7031 53.6562
Q14.5 64.6562 8.01562 75.875" id="BitstreamVeraSans-Roman-29"/>
      <path d="
M31 75.875
Q24.4688 64.6562 21.2812 53.6562
Q18.1094 42.6719 18.1094 31.3906
Q18.1094 20.125 21.3125 9.0625
Q24.5156 -2 31 -13.1875
L23.1875 -13.1875
Q15.875 -1.70312 12.2344 9.375
Q8.59375 20.4531 8.59375 31.3906
Q8.59375 42.2812 12.2031 53.3125
Q15.8281 64.3594 23.1875 75.875
z
" id="BitstreamVeraSans-Roman-28"/>
      <path d="
M19.6719 64.7969
L19.6719 37.4062
L32.0781 37.4062
Q38.9688 37.4062 42.7188 40.9688
Q46.4844 44.5312 46.4844 51.125
Q46.4844 57.6719 42.7188 61.2344
Q38.9688 64.7969 32.0781 64.7969
z

M9.8125 72.9062
L32.0781 72.9062
Q44.3438 72.9062 50.6094 67.3594
Q56.8906 61.8125 56.8906 51.125
Q56.8906 40.3281 50.6094 34.8125
Q44.3438 29.2969 32.0781 29.2969
L19.6719 29.2969
L19.6719 0
L9.8125 0
z
" id="BitstreamVeraSans-Roman-50"/>
      <path d="
M9.8125 72.9062
L55.9062 72.9062
L55.9062 64.5938
L19.6719 64.5938
L19.6719 43.0156
L54.3906 43.0156
L54.3906 34.7188
L19.6719 34.7188
L19.6719 8.29688
L56.7812 8.29688
L56.7812 0
L9.8125 0
z
" id="BitstreamVeraSans-Roman-45"/>
      <path d="
M-0.296875 72.9062
L61.375 72.9062
L61.375 64.5938
L35.5 64.5938
L35.5 0
L25.5938 0
L25.5938 64.5938
L-0.296875 64.5938
z
" id="BitstreamVeraSans-Roman-54"/>
      <path d="
M25.3906 72.9062
L33.6875 72.9062
L8.29688 -9.28125
L0 -9.28125
z
" id="BitstreamVeraSans-Roman-2f"/>
     </defs>
     <g transform="translate(14.7984375 167.82984375)rotate(-90.0)scale(0.1 -0.1)">
      <use xlink:href="#BitstreamVeraSans-Roman-50"/>
      <use x="60.302734375" xlink:href="#BitstreamVeraSans-Roman-45"/>
      <use x="123.486328125" xlink:href="#BitstreamVeraSans-Roman-54"/>
      <use x="184.5703125" xlink:href="#BitstreamVeraSans-Roman-20"/>
      <use x="216.357421875" xlink:href="#BitstreamVeraSans-Roman-28"/>
      <use x="255.37109375" xlink:href="#BitstreamVeraSans-Roman-6d"/>
      <use x="352.783203125" xlink:href="#BitstreamVeraSans-Roman-6d"/>
      <use x="450.1953125" xlink:href="#BitstreamVeraSans-Roman-2f"/>
      <use x="483.88671875" xlink:href="#BitstreamVeraSans-Roman-64"/>
      <use x="547.36328125" xlink:href="#BitstreamVeraSans-Roman-61"/>
      <use x="608.642578125" xlink:href="#BitstreamVeraSans-Roman-79"/>
      <use x="667.822265625" xlink:href="#BitstreamVeraSans-Roman-29"/>
     </g>
    </g>
   </g>
   <g id="text_19">
    <!-- daily bare PET at Treeline -->
    <defs>
     <path d="
M56.2031 29.5938
L56.2031 25.2031
L14.8906 25.2031
Q15.4844 15.9219 20.4844 11.0625
Q25.4844 6.20312 34.4219 6.20312
Q39.5938 6.20312 44.4531 7.46875
Q49.3125 8.73438 54.1094 11.2812
L54.1094 2.78125
Q49.2656 0.734375 44.1875 -0.34375
Q39.1094 -1.42188 33.8906 -1.42188
Q20.7969 -1.42188 13.1562 6.1875
Q5.51562 13.8125 5.51562 26.8125
Q5.51562 40.2344 12.7656 48.1094
Q20.0156 56 32.3281 56
Q43.3594 56 49.7812 48.8906
Q56.2031 41.7969 56.2031 29.5938
M47.2188 32.2344
Q47.125 39.5938 43.0938 43.9844
Q39.0625 48.3906 32.4219 48.3906
Q24.9062 48.3906 20.3906 44.1406
Q15.875 39.8906 15.1875 32.1719
z
" id="BitstreamVeraSans-Roman-65"/>
     <path d="
M18.3125 70.2188
L18.3125 54.6875
L36.8125 54.6875
L36.8125 47.7031
L18.3125 47.7031
L18.3125 18.0156
Q18.3125 11.3281 20.1406 9.42188
Q21.9688 7.51562 27.5938 7.51562
L36.8125 7.51562
L36.8125 0
L27.5938 0
Q17.1875 0 13.2344 3.875
Q9.28125 7.76562 9.28125 18.0156
L9.28125 47.7031
L2.6875 47.7031
L2.6875 54.6875
L9.28125 54.6875
L9.28125 70.2188
z
" id="BitstreamVeraSans-Roman-74"/>
     <path d="
M41.1094 46.2969
Q39.5938 47.1719 37.8125 47.5781
Q36.0312 48 33.8906 48
Q26.2656 48 22.1875 43.0469
Q18.1094 38.0938 18.1094 28.8125
L18.1094 0
L9.07812 0
L9.07812 54.6875
L18.1094 54.6875
L18.1094 46.1875
Q20.9531 51.1719 25.4844 53.5781
Q30.0312 56 36.5312 56
Q37.4531 56 38.5781 55.875
Q39.7031 55.7656 41.0625 55.5156
z
" id="BitstreamVeraSans-Roman-72"/>
     <path d="
M48.6875 27.2969
Q48.6875 37.2031 44.6094 42.8438
Q40.5312 48.4844 33.4062 48.4844
Q26.2656 48.4844 22.1875 42.8438
Q18.1094 37.2031 18.1094 27.2969
Q18.1094 17.3906 22.1875 11.75
Q26.2656 6.10938 33.4062 6.10938
Q40.5312 6.10938 44.6094 11.75
Q48.6875 17.3906 48.6875 27.2969
M18.1094 46.3906
Q20.9531 51.2656 25.2656 53.625
Q29.5938 56 35.5938 56
Q45.5625 56 51.7812 48.0938
Q58.0156 40.1875 58.0156 27.2969
Q58.0156 14.4062 51.7812 6.48438
Q45.5625 -1.42188 35.5938 -1.42188
Q29.5938 -1.42188 25.2656 0.953125
Q20.9531 3.32812 18.1094 8.20312
L18.1094 0
L9.07812 0
L9.07812 75.9844
L18.1094 75.9844
z
" id="BitstreamVeraSans-Roman-62"/>
    </defs>
    <g transform="translate(132.24375 16.318125)scale(0.12 -0.12)">
     <use xlink:href="#BitstreamVeraSans-Roman-64"/>
     <use x="63.4765625" xlink:href="#BitstreamVeraSans-Roman-61"/>
     <use x="124.755859375" xlink:href="#BitstreamVeraSans-Roman-69"/>
     <use x="152.5390625" xlink:href="#BitstreamVeraSans-Roman-6c"/>
     <use x="180.322265625" xlink:href="#BitstreamVeraSans-Roman-79"/>
     <use x="239.501953125" xlink:href="#BitstreamVeraSans-Roman-20"/>
     <use x="271.2890625" xlink:href="#BitstreamVeraSans-Roman-62"/>
     <use x="334.765625" xlink:href="#BitstreamVeraSans-Roman-61"/>
     <use x="396.044921875" xlink:href="#BitstreamVeraSans-Roman-72"/>
     <use x="434.908203125" xlink:href="#BitstreamVeraSans-Roman-65"/>
     <use x="496.431640625" xlink:href="#BitstreamVeraSans-Roman-20"/>
     <use x="528.21875" xlink:href="#BitstreamVeraSans-Roman-50"/>
     <use x="588.521484375" xlink:href="#BitstreamVeraSans-Roman-45"/>
     <use x="651.705078125" xlink:href="#BitstreamVeraSans-Roman-54"/>
     <use x="712.7890625" xlink:href="#BitstreamVeraSans-Roman-20"/>
     <use x="744.576171875" xlink:href="#BitstreamVeraSans-Roman-61"/>
     <use x="805.85546875" xlink:href="#BitstreamVeraSans-Roman-74"/>
     <use x="845.064453125" xlink:href="#BitstreamVeraSans-Roman-20"/>
     <use x="876.8515625" xlink:href="#BitstreamVeraSans-Roman-54"/>
     <use x="923.185546875" xlink:href="#BitstreamVeraSans-Roman-72"/>
     <use x="962.048828125" xlink:href="#BitstreamVeraSans-Roman-65"/>
     <use x="1023.57226562" xlink:href="#BitstreamVeraSans-Roman-65"/>
     <use x="1085.09570312" xlink:href="#BitstreamVeraSans-Roman-6c"/>
     <use x="1112.87890625" xlink:href="#BitstreamVeraSans-Roman-69"/>
     <use x="1140.66210938" xlink:href="#BitstreamVeraSans-Roman-6e"/>
     <use x="1204.04101562" xlink:href="#BitstreamVeraSans-Roman-65"/>
    </g>
   </g>
   <g id="legend_1">
    <g id="patch_7">
     <path d="
M297.07 277.511
L369.258 277.511
L369.258 27.3181
L297.07 27.3181
z
" style="fill:#ffffff;stroke:#000000;stroke-linejoin:miter;"/>
    </g>
    <g id="line2d_47">
     <path d="
M305.47 37.0362
L322.27 37.0362" style="fill:none;stroke:#0000ff;stroke-linecap:square;"/>
    </g>
    <g id="line2d_48"/>
    <g id="text_20">
     <!-- 1999 -->
     <defs>
      <path d="
M10.9844 1.51562
L10.9844 10.5
Q14.7031 8.73438 18.5 7.8125
Q22.3125 6.89062 25.9844 6.89062
Q35.75 6.89062 40.8906 13.4531
Q46.0469 20.0156 46.7812 33.4062
Q43.9531 29.2031 39.5938 26.9531
Q35.25 24.7031 29.9844 24.7031
Q19.0469 24.7031 12.6719 31.3125
Q6.29688 37.9375 6.29688 49.4219
Q6.29688 60.6406 12.9375 67.4219
Q19.5781 74.2188 30.6094 74.2188
Q43.2656 74.2188 49.9219 64.5156
Q56.5938 54.8281 56.5938 36.375
Q56.5938 19.1406 48.4062 8.85938
Q40.2344 -1.42188 26.4219 -1.42188
Q22.7031 -1.42188 18.8906 -0.6875
Q15.0938 0.046875 10.9844 1.51562
M30.6094 32.4219
Q37.25 32.4219 41.125 36.9531
Q45.0156 41.5 45.0156 49.4219
Q45.0156 57.2812 41.125 61.8438
Q37.25 66.4062 30.6094 66.4062
Q23.9688 66.4062 20.0938 61.8438
Q16.2188 57.2812 16.2188 49.4219
Q16.2188 41.5 20.0938 36.9531
Q23.9688 32.4219 30.6094 32.4219" id="BitstreamVeraSans-Roman-39"/>
     </defs>
     <g transform="translate(335.4703125 41.23625)scale(0.12 -0.12)">
      <use xlink:href="#BitstreamVeraSans-Roman-31"/>
      <use x="63.623046875" xlink:href="#BitstreamVeraSans-Roman-39"/>
      <use x="127.24609375" xlink:href="#BitstreamVeraSans-Roman-39"/>
      <use x="190.869140625" xlink:href="#BitstreamVeraSans-Roman-39"/>
     </g>
    </g>
    <g id="line2d_49">
     <path d="
M305.47 54.65
L322.27 54.65" style="fill:none;stroke:#008000;stroke-linecap:square;"/>
    </g>
    <g id="line2d_50"/>
    <g id="text_21">
     <!-- 2000 -->
     <g transform="translate(335.4703125 58.85)scale(0.12 -0.12)">
      <use xlink:href="#BitstreamVeraSans-Roman-32"/>
      <use x="63.623046875" xlink:href="#BitstreamVeraSans-Roman-30"/>
      <use x="127.24609375" xlink:href="#BitstreamVeraSans-Roman-30"/>
      <use x="190.869140625" xlink:href="#BitstreamVeraSans-Roman-30"/>
     </g>
    </g>
    <g id="line2d_51">
     <path d="
M305.47 72.2638
L322.27 72.2638" style="fill:none;stroke:#ff0000;stroke-linecap:square;"/>
    </g>
    <g id="line2d_52"/>
    <g id="text_22">
     <!-- 2001 -->
     <g transform="translate(335.4703125 76.46375)scale(0.12 -0.12)">
      <use xlink:href="#BitstreamVeraSans-Roman-32"/>
      <use x="63.623046875" xlink:href="#BitstreamVeraSans-Roman-30"/>
      <use x="127.24609375" xlink:href="#BitstreamVeraSans-Roman-30"/>
      <use x="190.869140625" xlink:href="#BitstreamVeraSans-Roman-31"/>
     </g>
    </g>
    <g id="line2d_53">
     <path d="
M305.47 89.8775
L322.27 89.8775" style="fill:none;stroke:#00bfbf;stroke-linecap:square;"/>
    </g>
    <g id="line2d_54"/>
    <g id="text_23">
     <!-- 2002 -->
     <g transform="translate(335.4703125 94.0775)scale(0.12 -0.12)">
      <use xlink:href="#BitstreamVeraSans-Roman-32"/>
      <use x="63.623046875" xlink:href="#BitstreamVeraSans-Roman-30"/>
      <use x="127.24609375" xlink:href="#BitstreamVeraSans-Roman-30"/>
      <use x="190.869140625" xlink:href="#BitstreamVeraSans-Roman-32"/>
     </g>
    </g>
    <g id="line2d_55">
     <path d="
M305.47 107.491
L322.27 107.491" style="fill:none;stroke:#bf00bf;stroke-linecap:square;"/>
    </g>
    <g id="line2d_56"/>
    <g id="text_24">
     <!-- 2003 -->
     <g transform="translate(335.4703125 111.69125)scale(0.12 -0.12)">
      <use xlink:href="#BitstreamVeraSans-Roman-32"/>
      <use x="63.623046875" xlink:href="#BitstreamVeraSans-Roman-30"/>
      <use x="127.24609375" xlink:href="#BitstreamVeraSans-Roman-30"/>
      <use x="190.869140625" xlink:href="#BitstreamVeraSans-Roman-33"/>
     </g>
    </g>
    <g id="line2d_57">
     <path d="
M305.47 125.105
L322.27 125.105" style="fill:none;stroke:#bfbf00;stroke-linecap:square;"/>
    </g>
    <g id="line2d_58"/>
    <g id="text_25">
     <!-- 2004 -->
     <defs>
      <path d="
M37.7969 64.3125
L12.8906 25.3906
L37.7969 25.3906
z

M35.2031 72.9062
L47.6094 72.9062
L47.6094 25.3906
L58.0156 25.3906
L58.0156 17.1875
L47.6094 17.1875
L47.6094 0
L37.7969 0
L37.7969 17.1875
L4.89062 17.1875
L4.89062 26.7031
z
" id="BitstreamVeraSans-Roman-34"/>
     </defs>
     <g transform="translate(335.4703125 129.305)scale(0.12 -0.12)">
      <use xlink:href="#BitstreamVeraSans-Roman-32"/>
      <use x="63.623046875" xlink:href="#BitstreamVeraSans-Roman-30"/>
      <use x="127.24609375" xlink:href="#BitstreamVeraSans-Roman-30"/>
      <use x="190.869140625" xlink:href="#BitstreamVeraSans-Roman-34"/>
     </g>
    </g>
    <g id="line2d_59">
     <path d="
M305.47 142.719
L322.27 142.719" style="fill:none;stroke:#000000;stroke-linecap:square;"/>
    </g>
    <g id="line2d_60"/>
    <g id="text_26">
     <!-- 2005 -->
     <g transform="translate(335.4703125 146.91875)scale(0.12 -0.12)">
      <use xlink:href="#BitstreamVeraSans-Roman-32"/>
      <use x="63.623046875" xlink:href="#BitstreamVeraSans-Roman-30"/>
      <use x="127.24609375" xlink:href="#BitstreamVeraSans-Roman-30"/>
      <use x="190.869140625" xlink:href="#BitstreamVeraSans-Roman-35"/>
     </g>
    </g>
    <g id="line2d_61">
     <path d="
M305.47 160.332
L322.27 160.332" style="fill:none;stroke:#0000ff;stroke-linecap:square;"/>
    </g>
    <g id="line2d_62"/>
    <g id="text_27">
     <!-- 2006 -->
     <defs>
      <path d="
M33.0156 40.375
Q26.375 40.375 22.4844 35.8281
Q18.6094 31.2969 18.6094 23.3906
Q18.6094 15.5312 22.4844 10.9531
Q26.375 6.39062 33.0156 6.39062
Q39.6562 6.39062 43.5312 10.9531
Q47.4062 15.5312 47.4062 23.3906
Q47.4062 31.2969 43.5312 35.8281
Q39.6562 40.375 33.0156 40.375
M52.5938 71.2969
L52.5938 62.3125
Q48.875 64.0625 45.0938 64.9844
Q41.3125 65.9219 37.5938 65.9219
Q27.8281 65.9219 22.6719 59.3281
Q17.5312 52.7344 16.7969 39.4062
Q19.6719 43.6562 24.0156 45.9219
Q28.375 48.1875 33.5938 48.1875
Q44.5781 48.1875 50.9531 41.5156
Q57.3281 34.8594 57.3281 23.3906
Q57.3281 12.1562 50.6875 5.35938
Q44.0469 -1.42188 33.0156 -1.42188
Q20.3594 -1.42188 13.6719 8.26562
Q6.98438 17.9688 6.98438 36.375
Q6.98438 53.6562 15.1875 63.9375
Q23.3906 74.2188 37.2031 74.2188
Q40.9219 74.2188 44.7031 73.4844
Q48.4844 72.75 52.5938 71.2969" id="BitstreamVeraSans-Roman-36"/>
     </defs>
     <g transform="translate(335.4703125 164.5325)scale(0.12 -0.12)">
      <use xlink:href="#BitstreamVeraSans-Roman-32"/>
      <use x="63.623046875" xlink:href="#BitstreamVeraSans-Roman-30"/>
      <use x="127.24609375" xlink:href="#BitstreamVeraSans-Roman-30"/>
      <use x="190.869140625" xlink:href="#BitstreamVeraSans-Roman-36"/>
     </g>
    </g>
    <g id="line2d_63">
     <path d="
M305.47 177.946
L322.27 177.946" style="fill:none;stroke:#008000;stroke-linecap:square;"/>
    </g>
    <g id="line2d_64"/>
    <g id="text_28">
     <!-- 2007 -->
     <defs>
      <path d="
M8.20312 72.9062
L55.0781 72.9062
L55.0781 68.7031
L28.6094 0
L18.3125 0
L43.2188 64.5938
L8.20312 64.5938
z
" id="BitstreamVeraSans-Roman-37"/>
     </defs>
     <g transform="translate(335.4703125 182.14625)scale(0.12 -0.12)">
      <use xlink:href="#BitstreamVeraSans-Roman-32"/>
      <use x="63.623046875" xlink:href="#BitstreamVeraSans-Roman-30"/>
      <use x="127.24609375" xlink:href="#BitstreamVeraSans-Roman-30"/>
      <use x="190.869140625" xlink:href="#BitstreamVeraSans-Roman-37"/>
     </g>
    </g>
    <g id="line2d_65">
     <path d="
M305.47 195.56
L322.27 195.56" style="fill:none;stroke:#ff0000;stroke-linecap:square;"/>
    </g>
    <g id="line2d_66"/>
    <g id="text_29">
     <!-- 2008 -->
     <defs>
      <path d="
M31.7812 34.625
Q24.75 34.625 20.7188 30.8594
Q16.7031 27.0938 16.7031 20.5156
Q16.7031 13.9219 20.7188 10.1562
Q24.75 6.39062 31.7812 6.39062
Q38.8125 6.39062 42.8594 10.1719
Q46.9219 13.9688 46.9219 20.5156
Q46.9219 27.0938 42.8906 30.8594
Q38.875 34.625 31.7812 34.625
M21.9219 38.8125
Q15.5781 40.375 12.0312 44.7188
Q8.5 49.0781 8.5 55.3281
Q8.5 64.0625 14.7188 69.1406
Q20.9531 74.2188 31.7812 74.2188
Q42.6719 74.2188 48.875 69.1406
Q55.0781 64.0625 55.0781 55.3281
Q55.0781 49.0781 51.5312 44.7188
Q48 40.375 41.7031 38.8125
Q48.8281 37.1562 52.7969 32.3125
Q56.7812 27.4844 56.7812 20.5156
Q56.7812 9.90625 50.3125 4.23438
Q43.8438 -1.42188 31.7812 -1.42188
Q19.7344 -1.42188 13.25 4.23438
Q6.78125 9.90625 6.78125 20.5156
Q6.78125 27.4844 10.7812 32.3125
Q14.7969 37.1562 21.9219 38.8125
M18.3125 54.3906
Q18.3125 48.7344 21.8438 45.5625
Q25.3906 42.3906 31.7812 42.3906
Q38.1406 42.3906 41.7188 45.5625
Q45.3125 48.7344 45.3125 54.3906
Q45.3125 60.0625 41.7188 63.2344
Q38.1406 66.4062 31.7812 66.4062
Q25.3906 66.4062 21.8438 63.2344
Q18.3125 60.0625 18.3125 54.3906" id="BitstreamVeraSans-Roman-38"/>
     </defs>
     <g transform="translate(335.4703125 199.76)scale(0.12 -0.12)">
      <use xlink:href="#BitstreamVeraSans-Roman-32"/>
      <use x="63.623046875" xlink:href="#BitstreamVeraSans-Roman-30"/>
      <use x="127.24609375" xlink:href="#BitstreamVeraSans-Roman-30"/>
      <use x="190.869140625" xlink:href="#BitstreamVeraSans-Roman-38"/>
     </g>
    </g>
    <g id="line2d_67">
     <path d="
M305.47 213.174
L322.27 213.174" style="fill:none;stroke:#00bfbf;stroke-linecap:square;"/>
    </g>
    <g id="line2d_68"/>
    <g id="text_30">
     <!-- 2009 -->
     <g transform="translate(335.4703125 217.37375)scale(0.12 -0.12)">
      <use xlink:href="#BitstreamVeraSans-Roman-32"/>
      <use x="63.623046875" xlink:href="#BitstreamVeraSans-Roman-30"/>
      <use x="127.24609375" xlink:href="#BitstreamVeraSans-Roman-30"/>
      <use x="190.869140625" xlink:href="#BitstreamVeraSans-Roman-39"/>
     </g>
    </g>
    <g id="line2d_69">
     <path d="
M305.47 230.788
L322.27 230.788" style="fill:none;stroke:#bf00bf;stroke-linecap:square;"/>
    </g>
    <g id="line2d_70"/>
    <g id="text_31">
     <!-- 2010 -->
     <g transform="translate(335.4703125 234.9875)scale(0.12 -0.12)">
      <use xlink:href="#BitstreamVeraSans-Roman-32"/>
      <use x="63.623046875" xlink:href="#BitstreamVeraSans-Roman-30"/>
      <use x="127.24609375" xlink:href="#BitstreamVeraSans-Roman-31"/>
      <use x="190.869140625" xlink:href="#BitstreamVeraSans-Roman-30"/>
     </g>
    </g>
    <g id="line2d_71">
     <path d="
M305.47 248.401
L322.27 248.401" style="fill:none;stroke:#bfbf00;stroke-linecap:square;"/>
    </g>
    <g id="line2d_72"/>
    <g id="text_32">
     <!-- 2011 -->
     <g transform="translate(335.4703125 252.60125)scale(0.12 -0.12)">
      <use xlink:href="#BitstreamVeraSans-Roman-32"/>
      <use x="63.623046875" xlink:href="#BitstreamVeraSans-Roman-30"/>
      <use x="127.24609375" xlink:href="#BitstreamVeraSans-Roman-31"/>
      <use x="190.869140625" xlink:href="#BitstreamVeraSans-Roman-31"/>
     </g>
    </g>
    <g id="line2d_73">
     <path d="
M305.47 266.015
L322.27 266.015" style="fill:none;stroke:#000000;stroke-linecap:square;"/>
    </g>
    <g id="line2d_74"/>
    <g id="text_33">
     <!-- 2012 -->
     <g transform="translate(335.4703125 270.215)scale(0.12 -0.12)">
      <use xlink:href="#BitstreamVeraSans-Roman-32"/>
      <use x="63.623046875" xlink:href="#BitstreamVeraSans-Roman-30"/>
      <use x="127.24609375" xlink:href="#BitstreamVeraSans-Roman-31"/>
      <use x="190.869140625" xlink:href="#BitstreamVeraSans-Roman-32"/>
     </g>
    </g>
   </g>
  </g>
 </g>
 <defs>
  <clipPath id="p32cac9c315">
   <rect height="223.2" width="334.8" x="40.4578125" y="21.318125"/>
  </clipPath>
 </defs>
</svg>
