<?xml version="1.0" encoding="utf-8" standalone="no"?>
<!DOCTYPE svg PUBLIC "-//W3C//DTD SVG 1.1//EN"
  "http://www.w3.org/Graphics/SVG/1.1/DTD/svg11.dtd">
<!-- Created with matplotlib (http://matplotlib.org/) -->
<svg height="319pt" version="1.1" viewBox="0 0 373 319" width="373pt" xmlns="http://www.w3.org/2000/svg" xmlns:xlink="http://www.w3.org/1999/xlink">
 <defs>
  <style type="text/css">
*{stroke-linecap:butt;stroke-linejoin:round;}
  </style>
 </defs>
 <g id="figure_1">
  <g id="patch_1">
   <path d="
M0 319.938
L373.191 319.938
L373.191 0
L0 0
z
" style="fill:#ffffff;"/>
  </g>
  <g id="axes_1">
   <g id="patch_2">
    <path d="
M31.1906 244.518
L365.991 244.518
L365.991 21.3181
L31.1906 21.3181
z
" style="fill:#ffffff;"/>
   </g>
   <g id="line2d_1">
    <path clip-path="url(#p95a2ee5e18)" d="
M0 0" style="fill:none;stroke:#0000ff;stroke-linecap:square;"/>
   </g>
   <g id="line2d_2">
    <path clip-path="url(#p95a2ee5e18)" d="
M0 0" style="fill:none;stroke:#008000;stroke-linecap:square;"/>
   </g>
   <g id="line2d_3">
    <path clip-path="url(#p95a2ee5e18)" d="
M0 0" style="fill:none;stroke:#ff0000;stroke-linecap:square;"/>
   </g>
   <g id="line2d_4">
    <path clip-path="url(#p95a2ee5e18)" d="
M0 0" style="fill:none;stroke:#00bfbf;stroke-linecap:square;"/>
   </g>
   <g id="line2d_5">
    <path clip-path="url(#p95a2ee5e18)" d="
M0 0" style="fill:none;stroke:#bf00bf;stroke-linecap:square;"/>
   </g>
   <g id="line2d_6">
    <path clip-path="url(#p95a2ee5e18)" d="
M0 0" style="fill:none;stroke:#bfbf00;stroke-linecap:square;"/>
   </g>
   <g id="line2d_7">
    <path clip-path="url(#p95a2ee5e18)" d="
M0 0" style="fill:none;stroke:#000000;stroke-linecap:square;"/>
   </g>
   <g id="line2d_8">
    <path clip-path="url(#p95a2ee5e18)" d="
M0 0" style="fill:none;stroke:#0000ff;stroke-linecap:square;"/>
   </g>
   <g id="line2d_9">
    <path clip-path="url(#p95a2ee5e18)" d="
M0 0" style="fill:none;stroke:#008000;stroke-linecap:square;"/>
   </g>
   <g id="line2d_10">
    <path clip-path="url(#p95a2ee5e18)" d="
M31.1906 198.539
L32.1079 178.213
L33.0251 178.168
L33.9424 220.861
L34.8597 230.803
L36.6942 236.798
L37.6114 235.076
L38.5287 225.907
L39.446 233.486
M41.2805 232.012
L42.1977 231.677
L43.115 222.526
L44.0323 217.901
L44.9495 214.494
L45.8668 220.331
L46.784 220.585
L47.7013 215.791
L48.6186 239.225
L49.5358 240.118
L50.4531 225.119
L51.3704 213.625
L52.2876 217.129
L53.2049 227.829
L54.1221 222.345
L55.0394 222.777
L55.9567 231.703
L56.8739 236.913
M58.7084 243.175
L59.6257 236.636
L60.543 234.863
M62.3775 230.744
L63.2947 228.149
L64.212 231.23
L65.1293 241.963
L66.0465 220.656
L66.9638 228.815
L67.881 211.672
L68.7983 217.945
L69.7156 213.046
L70.6328 223.87
L71.5501 209.175
L72.4673 209.103
L73.3846 212.986
L74.3019 201.725
L75.2191 207.745
L76.1364 210.898
L77.9709 224.747
L78.8882 237.165
L79.8054 225.457
L80.7227 228.376
L81.6399 240.869
L82.5572 214.59
L83.4745 218.325
L85.309 205.701
L86.2262 224.564
L87.1435 229.025
L88.0608 212.83
L88.978 219.938
L89.8953 210.489
L90.8125 195.783
L91.7298 198.428
L92.6471 219.632
L93.5643 206.853
L94.4816 200.405
L95.3988 191.463
L96.3161 180.006
L97.2334 226.442
L98.1506 232.62
L99.0679 219.383
L99.9851 220.8
L100.902 210.603
L101.82 240.606
L102.737 234.188
L104.571 198.185
L105.489 187.739
L106.406 190.401
L107.323 223.053
L108.24 223.345
L109.158 237.512
L110.075 211.673
L110.992 227.51
L111.91 216.277
L112.827 213.167
L113.744 216.545
L114.661 187.818
L115.579 185.149
L116.496 185.052
L117.413 212.799
L118.33 208.062
L120.165 225.59
L121.082 199.406
L121.999 211.792
L122.917 218.674
L123.834 193.629
L124.751 184.187
L125.668 183.608
L126.586 206.269
L127.503 212.859
L128.42 201.661
L129.337 179.373
L130.255 177.82
L131.172 196.653
L132.089 205.299
L133.007 200.739
L133.924 180.696
L134.841 214.652
L135.758 216.29
L136.676 181.649
L137.593 161.946
L138.51 161.832
L139.427 152.392
L140.345 207.781
L141.262 181.703
L142.179 179.84
L143.096 156.695
L144.014 150.52
L144.931 154.786
L145.848 151.807
L146.765 169.479
L147.683 194.195
L148.6 168.821
L149.517 164.926
L150.434 159.683
L151.352 170.89
L152.269 178.305
L153.186 177.477
L154.104 207.341
L155.021 176.315
L155.938 157.367
L156.855 146.473
L157.773 160.456
L158.69 162.529
L159.607 210.497
L160.524 209.661
L161.442 206.571
L162.359 215.283
L163.276 187.834
L164.193 203.445
L165.111 213.809
L166.028 213.031
L166.945 198.028
L167.862 200.922
L168.78 192.073
L169.697 188.095
L170.614 212.757
L171.531 178.789
L172.449 222.677
L173.366 208.745
L174.283 184.061
L175.2 183.185
L176.118 199.984
L177.035 166.702
L178.87 207.008
L179.787 211.642
L180.704 183.23
L181.621 164.114
L182.539 163.138
L183.456 166.321
L184.373 165.781
L185.29 168.027
L186.208 168.127
L187.125 167.153
L188.042 169.366
L188.959 190.506
L189.877 180.628
L190.794 173.251
L191.711 180.111
L192.628 169.978
L193.546 176.265
L194.463 176.532
L195.38 174.396
L196.297 169.695
L198.132 191.133
L199.049 170.734
L199.967 169.018
L200.884 180.803
L201.801 183.699
L202.718 173.006
L203.636 177.767
L204.553 174.131
L205.47 172.197
L206.387 171.447
L207.305 175.343
L208.222 173.173
L209.139 173.361
L210.056 173.337
L210.974 172.183
L211.891 176.856
L212.808 177.511
L213.725 175.786
L214.643 173.546
L215.56 172.159
L217.394 210.371
L218.312 186.064
L219.229 184.183
L220.146 177.043
L221.064 176.974
L222.898 179.656
L223.815 193.489
L225.65 178.62
L226.567 183.5
L227.484 182.284
L228.402 181.631
L229.319 179.262
L230.236 186.107
L231.153 188.103
L232.071 185.65
L232.988 198.836
L233.905 186.69
L234.822 183.987
L235.74 190.487
L236.657 183.887
L237.574 182.418
L238.491 184.141
L239.409 182.57
L240.326 178.192
L241.243 178.409
L242.16 183.949
L243.078 195.999
L243.995 187.559
L244.912 195.895
L245.83 180.147
L247.664 172.118
L248.581 185.405
L249.499 194.914
L250.416 180.632
L251.333 189.104
L252.25 185.28
L253.168 186.041
L254.085 197.469
L255.002 204.524
L255.919 191.475
L256.837 182.425
L257.754 180.796
L258.671 187.918
L259.588 187.924
L260.506 183.511
L261.423 185.208
L262.34 182.18
L263.257 183.804
L264.175 187.319
L265.092 179.524
L266.009 181.74
L266.927 182.245
L267.844 178.536
L268.761 175.929
L269.678 178.828
L270.596 181.153
L271.513 194.678
L272.43 222.984
L273.347 230.905
L274.265 210.306
L276.099 179.181
L277.016 183.362
L277.934 180.646
L278.851 183.173
L280.685 177.557
L281.603 180.04
L282.52 175.9
L283.437 201.537
L284.354 208.143
L285.272 236.228
L286.189 223.193
L287.106 201.26
L288.024 198.509
L288.941 190.828
L289.858 199.367
L290.775 238.861
L291.693 229.22
L292.61 207.172
L293.527 194.791
L294.444 198.636
L295.362 195.61
L296.279 189.495
L297.196 192.006
L298.113 187.159
L299.031 195.499
L299.948 193.044
L300.865 206.736
L301.782 182.537
L302.7 179.093
L303.617 182.55
L304.534 188.789
L305.451 185.873
L306.369 172.642
L307.286 176.426
L309.12 179.532
L310.955 224.472
L311.872 236.315
L312.79 238.651
L313.707 239.849
L314.624 225.344
L315.541 229.985
L316.459 220.651
L317.376 219.591
L318.293 237.601
L319.21 232.66
L320.128 241.076
L321.045 224.697
L321.962 217.833
L322.879 197.188
L323.797 193.284
L324.714 191.158
L325.631 179.058
L326.548 179.81
L327.466 195.007
L328.383 212.407
L329.3 203.408
L330.217 217.242
L331.135 225.778
L332.052 192.882
L332.969 195.487
L333.887 207.642
L334.804 201.69
L335.721 216.118
L336.638 233.491
L337.556 226.281
L338.473 203.082
L339.39 226.897
L340.307 238.186
L341.225 204.503
L342.142 195.898
L343.059 189.067
L343.976 213.629
L344.894 230.65
L345.811 208.239
L346.728 194.993
L347.645 215.076
L349.48 242.481
L350.397 242.367
L351.314 231.99
L352.232 230.076
L353.149 225.534
L354.066 218.358
L354.984 237.761
L355.901 225.04
L356.818 234.221
L357.735 240.436
L358.653 237.137
L359.57 232.048
M361.404 233.706
L362.322 241.801
L363.239 241.775
L364.156 223.675
L365.073 203.307
L365.073 203.307" style="fill:none;stroke:#ff0000;stroke-linecap:square;"/>
   </g>
   <g id="line2d_11">
    <path clip-path="url(#p95a2ee5e18)" d="
M31.1906 237.046
L32.1079 219.741
L33.0251 224.528
L33.9424 204.339
L34.8597 217.324
L35.7769 241.154
L36.6942 228.631
L37.6114 220.902
L38.5287 234.05
L39.446 213.398
L41.2805 230.523
L42.1977 224.167
L43.115 203.382
L44.0323 209.799
L44.9495 206.256
L45.8668 220.614
L46.784 214.96
L47.7013 220.018
L48.6186 220.2
L49.5358 205.394
L51.3704 243.564
L52.2876 242.386
M54.1221 242.122
L55.0394 227.341
L55.9567 228.774
L56.8739 227.837
L57.7912 219.506
L58.7084 223.876
L60.543 195.089
L61.4602 202.3
L62.3775 214.334
L63.2947 211.941
L65.1293 232.673
L66.0465 229.526
L66.9638 239.158
L67.881 232.117
L68.7983 229.507
L69.7156 240.333
L70.6328 231.377
L71.5501 242.086
L72.4673 220.476
L73.3846 219.043
L74.3019 237.877
L75.2191 220.13
L76.1364 213.494
L77.0536 214.276
L77.9709 202.571
L78.8882 208.043
L79.8054 225.307
L80.7227 205.155
L81.6399 223.805
L82.5572 226.738
L84.3917 187.989
L86.2262 209.995
L87.1435 229.796
L88.0608 241.209
M89.8953 231.734
L90.8125 225.506
L91.7298 228.621
L92.6471 219.018
L93.5643 221.764
L94.4816 208.999
L96.3161 210.098
L97.2334 213.434
L98.1506 242.463
L99.0679 230.512
L99.9851 215.549
L100.902 189.054
L101.82 199.603
L102.737 182.345
L103.654 217.786
L104.571 228.422
L105.489 207.815
L106.406 206.16
L107.323 237.135
L108.24 218.989
L109.158 197.601
L110.075 224.274
L110.992 229.921
L111.91 207.372
L112.827 237.528
L113.744 220.003
L114.661 238.255
L115.579 237.483
L116.496 214.635
L117.413 187.91
L118.33 169.713
L119.248 165.282
L120.165 217.044
L121.082 200.291
L121.999 227.588
L122.917 207.442
L123.834 182.53
L124.751 206.024
L125.668 197.233
L126.586 205.925
L127.503 178.5
L129.337 178.399
L130.255 162.604
L131.172 157.516
L132.089 155.148
L133.007 164.625
L133.924 187.4
L134.841 167.085
L135.758 171.251
L136.676 190.65
L137.593 186.454
L138.51 228.277
L139.427 191.096
L140.345 198.925
L141.262 200.009
L142.179 207.545
L143.096 235.671
L144.014 211.86
L144.931 206.836
L145.848 214.241
L146.765 199.773
L148.6 161.599
L149.517 163.439
L150.434 165.888
L151.352 185.939
L152.269 175.779
L153.186 189.636
L154.104 170.328
L155.021 155.386
L155.938 151.848
L156.855 156.309
L157.773 169.719
L158.69 177.138
L159.607 164.732
L160.524 162.379
L161.442 178.986
L162.359 190.444
L163.276 173.227
L164.193 173.241
L165.111 170.741
L166.028 166.258
L166.945 175.292
L168.78 183.348
L169.697 194.695
L170.614 230.807
L171.531 195.782
L172.449 199.089
L173.366 220.243
L174.283 223.934
L175.2 193.47
L176.118 190.761
L177.035 187.611
L177.952 203.51
L178.87 202.698
L179.787 200.643
L180.704 224.002
L181.621 224.968
L182.539 224.97
L183.456 196.327
L184.373 211.524
L185.29 181.907
L187.125 203.345
L188.042 220.004
L188.959 206.967
L189.877 179.634
L190.794 176.256
L191.711 175.562
L192.628 185.712
L193.546 177.796
L194.463 171.686
L195.38 175.381
L196.297 171.879
L197.215 169.729
L198.132 180.541
L199.049 189.062
L199.967 178.495
L200.884 187.069
L201.801 180.665
L202.718 184.383
L203.636 189.89
L204.553 188.474
L205.47 181.526
L207.305 207.636
L208.222 209.243
L209.139 185.469
L210.056 178.368
L211.891 179.041
L212.808 178.824
L213.725 179.659
L214.643 182.732
L215.56 179.892
L216.477 182.886
L217.394 197.527
L218.312 182.755
L219.229 178.129
L220.146 183.542
L221.064 192.334
L221.981 195.488
L222.898 192.41
L223.815 188.18
L224.733 182.244
L225.65 183.188
L226.567 186.095
L227.484 186.059
L228.402 186.57
L229.319 193.909
L230.236 234.389
L231.153 240.214
L232.071 222.531
L232.988 197.192
L233.905 189.548
L234.822 185.795
L235.74 189.784
L236.657 201.252
L237.574 198.209
L238.491 202.257
L239.409 192.119
L240.326 189.888
L241.243 194.025
L242.16 190.575
L243.078 188.059
L243.995 184.738
L244.912 185.562
L245.83 209.371
L246.747 195.386
L247.664 186.696
L249.499 179.915
L250.416 192.818
L251.333 193.377
L252.25 200.962
L253.168 187.758
L254.085 183.787
L255.002 183.126
L255.919 183.544
L256.837 191.446
L257.754 192.712
L258.671 189.097
L259.588 190.471
L260.506 182.565
L262.34 175.583
L263.257 177.909
L264.175 181.145
L266.009 193.541
L266.927 200.034
L267.844 191.999
L268.761 191.248
L269.678 195.748
L270.596 192.897
L271.513 199.385
L272.43 186.226
L273.347 180.827
L274.265 178.11
L275.182 179.221
L276.099 179.737
L277.016 178.374
L278.851 185.764
L279.768 214.571
L280.685 211.866
L281.603 196.525
L282.52 191.501
L283.437 228.572
M286.189 216.562
L287.106 205.513
L288.024 200.405
L288.941 212.236
L289.858 206.803
L290.775 202.369
L291.693 201.46
L292.61 222.584
L293.527 230.986
L294.444 223.3
L295.362 205.262
L296.279 203.331
L297.196 211.332
L298.113 228.682
L299.031 221.4
L299.948 221.98
L300.865 206.985
L301.782 219.392
L302.7 216.197
L303.617 197.242
L305.451 241.931
L306.369 222.852
L307.286 231.26
L308.203 236.617
L309.12 219.739
L310.038 219.241
L310.955 213.261
L311.872 199.733
L312.79 193.35
L313.707 189.599
L314.624 226.561
L315.541 222.951
L317.376 192.948
L318.293 201.36
L319.21 229.701
M321.045 237.425
L321.962 235.955
L322.879 209.062
L324.714 188.959
L325.631 224.328
L326.548 201.963
L327.466 212.274
L328.383 217.015
L329.3 233.998
L330.217 221.793
L331.135 216.14
L332.052 216.977
L332.969 211.408
L333.887 224.427
L334.804 226.81
L335.721 211.91
M337.556 214.401
L338.473 213.881
L339.39 208.143
L340.307 201.084
L341.225 212.731
L342.142 213.503
L343.059 236.949
L343.976 223.664
L344.894 217.045
L345.811 212.392
L346.728 198.374
L347.645 224.953
L348.563 243.117
L349.48 229.705
L350.397 234.332
M352.232 233.36
L353.149 239.557
L354.984 229.793
L355.901 226.377
L356.818 243.744
L357.735 235.193
L358.653 205.656
L359.57 221.935
L360.487 231.352
L361.404 228.191
L362.322 218.553
L364.156 241.496
L365.073 235.879
L365.073 235.879" style="fill:none;stroke:#00bfbf;stroke-linecap:square;"/>
   </g>
   <g id="line2d_12">
    <path clip-path="url(#p95a2ee5e18)" d="
M31.1906 242.206
L32.1079 236.405
L33.0251 229.755
L33.9424 220.089
L34.8597 231.533
L35.7769 225.831
L36.6942 235.924
L37.6114 209.046
L38.5287 214.302
L39.446 220.808
L40.3632 204.774
L41.2805 216.156
L42.1977 238.503
L43.115 229.181
L44.0323 193.177
L44.9495 218.927
L45.8668 214.583
L46.784 230.573
L47.7013 233.038
L48.6186 225.175
L49.5358 219.683
L50.4531 225.585
M52.2876 229.985
L53.2049 235.877
L54.1221 241.708
M55.9567 238.864
L57.7912 228.702
M59.6257 234.798
L60.543 220.17
L61.4602 229.594
L62.3775 235.485
L63.2947 237.64
L64.212 230.71
L65.1293 242.723
L66.0465 241.726
L66.9638 233.229
L67.881 217.449
L68.7983 233.685
L69.7156 229.208
L70.6328 238.791
L71.5501 223.374
M73.3846 243.692
L74.3019 242.742
L75.2191 239.171
L76.1364 228.384
L77.0536 225.09
L77.9709 228.148
L78.8882 194.955
L79.8054 195.604
L80.7227 235.274
L81.6399 233.959
L82.5572 210.67
L83.4745 224.314
L84.3917 228.041
L85.309 208.612
L86.2262 202.721
L87.1435 227.922
L88.0608 224.114
L88.978 223.482
L90.8125 199.572
L91.7298 232.045
L92.6471 218.022
L93.5643 201.69
L94.4816 203.442
L95.3988 210.582
L96.3161 236.23
L97.2334 217.609
L98.1506 185.484
L99.0679 183.703
L99.9851 184.656
L100.902 198.13
L101.82 180.923
L102.737 182.858
L103.654 209.659
L104.571 219.905
L105.489 189.991
L106.406 182.982
L107.323 225.594
L108.24 229.587
L109.158 200.573
L110.075 185.506
L110.992 217.751
L111.91 242.774
L112.827 221.255
L113.744 239.051
L114.661 237.82
L115.579 223.944
L116.496 224.819
L117.413 233.612
L118.33 208.833
L119.248 193.652
L120.165 211.01
L121.082 185.96
L121.999 189.397
L122.917 189.338
L123.834 224.415
L124.751 218.317
L125.668 181.797
L126.586 159.052
L127.503 171.02
L128.42 172.491
L129.337 154.099
L130.255 147.255
L131.172 194.983
L132.089 227.324
L133.007 216.062
L133.924 173.113
L134.841 167.928
L135.758 172.477
L136.676 169.483
L137.593 225.345
L138.51 233.595
L139.427 220.96
L140.345 223.645
L141.262 214.493
L142.179 192.099
L143.096 210.325
L144.014 166.275
L144.931 202.618
L145.848 200.683
L146.765 157.117
L147.683 159.535
L148.6 160.845
L149.517 218.446
L150.434 186.597
L151.352 172.327
L152.269 174.544
L153.186 161.161
L154.104 158.694
L155.021 165.818
L155.938 188.159
L156.855 234.879
L157.773 186.268
L158.69 182.578
L159.607 203.316
M161.442 217.026
L162.359 207.38
L163.276 180.214
L164.193 218.384
L165.111 210.936
L166.028 218.131
L166.945 205.688
L167.862 182.031
L168.78 219.358
L169.697 210.231
L170.614 233.056
L171.531 205.97
L172.449 237.436
L173.366 195.45
L174.283 225.468
L175.2 186.948
L176.118 183.693
L177.035 206.482
L177.952 214.361
L178.87 197.597
L179.787 167.016
L180.704 170.733
L181.621 171.548
L182.539 185.588
L183.456 189.763
L184.373 197.387
L185.29 172.61
L186.208 177.293
L187.125 208.901
L188.042 212.357
L188.959 178.885
L189.877 168.641
L190.794 188.147
L191.711 203.674
L192.628 183.545
L193.546 175.69
L194.463 180.874
L195.38 200.963
L196.297 186.158
L197.215 176.987
L198.132 194.278
L199.049 201.84
L199.967 182.156
L200.884 182.689
L201.801 180.37
L202.718 173.789
L203.636 171.124
L204.553 173.684
L205.47 179.003
L206.387 178.936
L207.305 178.591
L208.222 173.978
L209.139 179.188
L210.056 174.827
L210.974 173.471
L211.891 169.233
L212.808 172.78
L213.725 173.479
L214.643 171.746
L215.56 172.824
L216.477 176.752
L217.394 178.445
L218.312 176.879
L219.229 179.675
L220.146 216.136
L221.064 196.071
L221.981 195.706
L222.898 186.135
L223.815 189.063
L224.733 190.81
L225.65 182.521
L226.567 175.721
L227.484 177.843
L228.402 176.067
L229.319 179.946
L230.236 195.695
L231.153 185.087
L232.071 187.61
L232.988 196.693
L233.905 207.204
L234.822 227.072
L236.657 190.152
L237.574 189.994
L238.491 182.88
L239.409 180.282
L240.326 181.243
L241.243 188.904
L242.16 184.029
L243.078 176.397
L243.995 183.588
L244.912 192.133
L245.83 195.538
L246.747 182.996
L247.664 176.266
L248.581 191.386
L249.499 183.457
L250.416 193.62
L251.333 231.29
L252.25 206.577
L253.168 212.731
L254.085 205.668
L255.002 187.646
L255.919 174.984
L256.837 188.072
L257.754 192.931
L258.671 188.163
L259.588 176.427
L260.506 220.292
L261.423 239.458
L262.34 197.909
L263.257 181.18
L264.175 174.948
L266.009 182.345
L266.927 175.843
L267.844 176.066
L268.761 185.015
L269.678 185.748
L270.596 197.48
L271.513 199.349
L272.43 185.315
L273.347 187.115
L274.265 186.468
L275.182 180.156
L276.099 177.996
L277.016 176.841
L277.934 174.284
L279.768 180.572
L280.685 173.256
L281.603 174.856
L282.52 168.929
L283.437 206.172
L284.354 229.834
L285.272 217.857
L286.189 210.754
L287.106 196.26
L288.024 229.619
L288.941 215.148
L289.858 203.376
L290.775 215.295
L291.693 193.231
L292.61 183.47
L293.527 172.441
L294.444 183.384
L295.362 192.629
L296.279 192.735
L297.196 180.028
L298.113 175.603
L299.031 177.522
L299.948 173.754
L300.865 184.576
L301.782 228.946
L302.7 242.834
L303.617 229.264
L304.534 237.347
L305.451 216.217
L306.369 189.512
L307.286 187.721
L308.203 196.196
L309.12 230.951
L310.038 202.909
L310.955 195.732
L311.872 199.29
L312.79 185.57
L313.707 189.665
L314.624 192.209
L315.541 226.905
L316.459 234.603
L317.376 218.29
L318.293 242.085
L319.21 234.366
L320.128 217.725
L321.045 220.83
L321.962 241.988
L322.879 228.123
L323.797 221.895
L324.714 202.484
L325.631 216.943
M330.217 244.206
L331.135 218.604
L332.052 211.765
L332.969 212.861
L333.887 225.377
L334.804 234.888
L335.721 215.056
L336.638 220.337
M338.473 240.298
L339.39 228.771
L340.307 232.746
L341.225 240.115
L342.142 240.566
L343.059 231.218
L343.976 215.018
L344.894 228.954
L345.811 235.638
L346.728 236.932
L347.645 228.102
L348.563 226.896
L349.48 236.484
L350.397 234.55
L351.314 215.973
L352.232 214.669
L353.149 230.915
L354.066 241.56
L354.984 235.172
L355.901 217.625
L356.818 238.735
L357.735 236.392
L358.653 211.389
L359.57 176.418
L360.487 226.473
L361.404 230.707
L362.322 235.84
M364.156 239.871
L365.073 233.015
L365.073 233.015" style="fill:none;stroke:#bf00bf;stroke-linecap:square;"/>
   </g>
   <g id="line2d_13">
    <path clip-path="url(#p95a2ee5e18)" d="
M31.1906 220.418
L32.1079 225.167
L33.0251 235.065
L33.9424 237.789
L34.8597 219.556
L35.7769 223.078
L36.6942 222.22
L37.6114 227.691
L39.446 243.363
L40.3632 222.715
L41.2805 227.509
M43.115 237.721
L44.0323 236.381
L44.9495 242.448
L45.8668 236.068
L47.7013 242.799
L48.6186 216.614
L49.5358 236.173
L50.4531 237.294
L51.3704 206.557
L52.2876 237.7
L53.2049 240.649
L54.1221 240.47
L55.0394 238.319
L55.9567 237.028
L56.8739 237.282
L57.7912 244.023
L58.7084 227.036
L59.6257 214.659
L60.543 206.007
L61.4602 211.179
L62.3775 228.13
L63.2947 226.116
L64.212 225.123
L65.1293 225.724
L66.0465 230.82
L67.881 215.039
L68.7983 205.483
L69.7156 200.127
L70.6328 196.022
L71.5501 197.365
L72.4673 202.344
L73.3846 226.207
L74.3019 234.987
L75.2191 238.841
L76.1364 237.181
M77.9709 232.556
L78.8882 232.251
L79.8054 227.331
L80.7227 243.811
L81.6399 243.855
L82.5572 219.469
L83.4745 213.406
L84.3917 215.165
L85.309 196.31
L86.2262 223.995
L87.1435 228.331
L88.0608 232.041
L88.978 236.913
L89.8953 239.321
L90.8125 242.167
M92.6471 234.337
L93.5643 230.054
L94.4816 244.077
L95.3988 228.041
L96.3161 241.29
L97.2334 218.426
L98.1506 231.941
M99.9851 243.962
L100.902 213.435
L101.82 237.339
L102.737 220.493
L103.654 232.456
L104.571 229.128
L105.489 218.965
L106.406 236.298
M110.075 226.759
L110.992 234.827
L111.91 233.244
L112.827 198.125
L113.744 196.353
L114.661 206.754
L115.579 223.419
L116.496 204.859
L118.33 221.539
L119.248 215.069
L120.165 220.613
L121.082 229.197
L121.999 206.62
L122.917 212.858
L123.834 186.561
L124.751 219.105
L125.668 190.068
L126.586 213.005
L127.503 217.933
L128.42 206.293
L129.337 209.381
L130.255 178.007
L131.172 215.711
L132.089 226.36
L133.007 185.133
L133.924 173.768
L134.841 205.061
L135.758 227.69
L136.676 204.578
L137.593 187.01
L138.51 226.889
L139.427 199.106
L140.345 200.335
L141.262 181.467
L142.179 199.977
L143.096 189.172
L144.014 180.936
L144.931 175.183
L145.848 217.238
L146.765 205.897
L147.683 221.121
L148.6 203.939
L149.517 180.282
L150.434 175.298
L151.352 181.458
L152.269 182.532
L153.186 200.779
L154.104 225.182
L155.021 236.726
L155.938 204.52
L156.855 222.861
L157.773 174.478
L158.69 178.947
L159.607 195.755
L160.524 188.271
L161.442 214.304
L162.359 215.689
L163.276 206.927
L164.193 201.324
L165.111 229.055
L166.028 229.7
L166.945 230.079
L167.862 206.183
L168.78 202.19
L169.697 202.556
L170.614 225.659
L171.531 187.335
L172.449 181.643
L173.366 182.49
L174.283 214.303
L175.2 223.258
L176.118 193.552
L177.035 206.59
L177.952 203.347
L178.87 204.156
L179.787 192.738
L180.704 210.128
L181.621 177.28
L182.539 178.02
L183.456 194.61
L184.373 176.762
L185.29 222.802
L186.208 221.492
L187.125 184.064
L188.042 182.658
L188.959 182.081
L189.877 189.654
L190.794 189.395
L191.711 185.927
L193.546 181.172
L194.463 184.564
L195.38 208.01
L196.297 190.893
L198.132 174.93
L199.049 178.982
L199.967 179.81
L200.884 183.281
L201.801 180.599
L202.718 208.648
L203.636 188.417
L204.553 178.269
L205.47 183.862
L206.387 186.54
L207.305 183.333
L208.222 197.978
L209.139 195.404
L210.056 189.46
L210.974 194.285
L211.891 184.247
L212.808 182.751
L213.725 193
L214.643 193.499
L215.56 186.497
L216.477 193.783
L217.394 184.27
L218.312 181.261
L219.229 182.589
L220.146 195.578
L221.064 191.668
L222.898 181.603
L223.815 187.16
L224.733 196.551
L225.65 192.989
L226.567 191.047
L227.484 186.94
L228.402 206.903
L229.319 188.201
L230.236 185.274
L231.153 190.459
L232.071 188.175
L232.988 185.138
L233.905 187.824
L234.822 188.148
L235.74 185.955
L236.657 189.346
L237.574 189.472
L238.491 188.965
L239.409 186.025
L240.326 181.958
L241.243 184.622
L242.16 182.231
L243.078 187.165
L243.995 185.176
L244.912 185.202
L245.83 186.749
L246.747 182.565
L247.664 187.766
L248.581 183.434
L249.499 202.233
L250.416 189.152
L251.333 191.231
L252.25 187.609
L253.168 190.361
L254.085 192.462
L255.002 188.273
L255.919 188.273
L256.837 183.431
L257.754 180.986
L258.671 182.314
L259.588 183.861
L260.506 186.465
L261.423 192.011
L262.34 185.08
L263.257 191.873
L264.175 192.185
L265.092 194.188
L266.009 190.875
L266.927 223.571
L268.761 190.841
L269.678 183.977
L270.596 189.009
L271.513 188.635
L272.43 181.148
L273.347 182.659
L274.265 179.063
L275.182 181.039
L276.099 194.833
L277.016 194.639
L277.934 187.36
L278.851 197.082
L279.768 184.506
L280.685 186.102
L281.603 187.25
L282.52 196.611
L283.437 194.367
L284.354 231.889
L285.272 241.214
M288.024 217.983
L288.941 202.656
L289.858 231.86
L290.775 223.466
L291.693 203.991
L292.61 195.511
L293.527 190.514
L294.444 204.036
L295.362 241.87
L296.279 210.628
L297.196 193.697
L298.113 201.243
L299.031 195.394
L299.948 203.316
L300.865 208.245
L301.782 202.16
L302.7 222.366
L304.534 188.24
L305.451 190.542
L306.369 188.821
L307.286 190.253
L308.203 196.042
L309.12 220.208
L310.955 187.464
L311.872 193.15
L312.79 227.808
L313.707 236.275
L314.624 239.829
L315.541 240.639
L317.376 203.091
L318.293 194.81
L319.21 203.765
L320.128 227.916
L321.045 232.984
L321.962 201.545
L322.879 194.135
L323.797 214.425
L324.714 237.384
L325.631 237.764
L326.548 233.181
L327.466 209.056
L328.383 216.467
L329.3 228.062
L330.217 194.557
L331.135 215.921
L332.052 220.059
L332.969 188.662
L333.887 180.921
L334.804 209.832
L335.721 230.098
L336.638 223.203
L337.556 195.711
L338.473 199.86
L339.39 209.216
L340.307 216.178
L341.225 217.36
L342.142 201.905
L343.059 205.612
L344.894 201.897
L345.811 203.541
L346.728 207.609
L347.645 207.183
L348.563 216.429
L349.48 208.298
L350.397 221.376
L351.314 221.487
L352.232 220.66
L354.984 201.394
L355.901 220.447
L356.818 195.194
L357.735 187.953
L358.653 195.458
L359.57 198.378
L360.487 205.026
L362.322 234.155
L363.239 225.105
L364.156 243.759
L365.073 220.677
L365.073 220.677" style="fill:none;stroke:#bfbf00;stroke-linecap:square;"/>
   </g>
   <g id="line2d_14">
    <path clip-path="url(#p95a2ee5e18)" d="
M31.1906 191.141
L32.1079 190.284
L33.0251 189.728
L33.9424 179.727
L35.7769 216.782
L36.6942 224.98
L37.6114 213.605
L38.5287 217.531
L39.446 234.653
L40.3632 214.1
L41.2805 218.696
L42.1977 193.038
L43.115 178.967
L44.0323 207.077
L44.9495 221.07
L45.8668 204.772
L46.784 226.862
M49.5358 242.613
L50.4531 232.952
L51.3704 244.047
L52.2876 234.284
L53.2049 231.471
L54.1221 241.103
L55.0394 212.857
L55.9567 201.99
L56.8739 183.448
L57.7912 220.788
L58.7084 203.04
L59.6257 231.937
L60.543 229.058
L61.4602 209.148
L62.3775 205.221
L63.2947 203.686
L64.212 206.448
L65.1293 192.358
L66.0465 227.949
L66.9638 241.032
L67.881 222.272
L68.7983 235.619
L69.7156 239.686
L70.6328 221.33
L71.5501 229.754
L72.4673 234.914
L73.3846 215.794
L74.3019 211.225
L75.2191 226.319
L76.1364 219.587
L77.0536 232.047
M78.8882 232.519
L79.8054 218.266
L80.7227 192.491
L81.6399 226.114
L83.4745 207.616
L84.3917 202.438
L85.309 227.714
L86.2262 241.262
L87.1435 221.246
L88.0608 225.31
L88.978 206.742
L89.8953 198.489
L90.8125 222.603
L91.7298 200.061
L92.6471 188.47
L93.5643 182.896
L94.4816 187.304
L95.3988 216.397
L96.3161 223.002
L97.2334 227.711
M99.0679 227.111
L99.9851 239.394
L100.902 239.673
M102.737 227.6
L103.654 231.842
L104.571 208.946
L105.489 173.557
L106.406 203.55
L107.323 178.182
L108.24 201.761
L109.158 234.364
L110.075 193.71
L110.992 217.838
L112.827 234.042
L113.744 180.357
L114.661 185.473
L115.579 193.177
L116.496 179.683
L117.413 204.514
L118.33 197.479
L119.248 196.316
L121.082 157.735
L121.999 170.639
L122.917 159.537
L123.834 209.743
L124.751 200.24
L125.668 213.414
L126.586 190.446
L127.503 176.645
L128.42 221.304
L129.337 200.164
L130.255 202.368
L131.172 214.403
L132.089 185.38
L133.007 165.209
L133.924 157.849
L134.841 182.847
L135.758 181.005
L136.676 198.392
L137.593 243.41
L138.51 186.325
L139.427 199.358
L140.345 182.721
L141.262 218.397
L142.179 191.92
L143.096 183.786
L144.014 219.261
L144.931 233.201
L145.848 199.655
L146.765 173.822
L147.683 168.145
L148.6 161.511
L149.517 165.494
L150.434 170.987
L151.352 167.962
L152.269 166.917
L153.186 159.454
L154.104 165.734
L155.021 189.021
L155.938 171.768
L156.855 195.887
L157.773 177.643
L158.69 163.881
L159.607 164.922
L160.524 198.075
L161.442 213.633
L162.359 210.64
L163.276 197.767
L164.193 230.706
L165.111 231.704
L166.028 213.507
L166.945 177.506
L167.862 172.276
L168.78 177.812
L169.697 177.172
L170.614 171.256
L171.531 194.327
L172.449 179.295
L173.366 195.617
L174.283 235.88
L175.2 191.877
L176.118 190.531
L177.035 198.807
L177.952 228.395
L179.787 174.257
L180.704 179.167
L181.621 178.591
L182.539 161.813
L183.456 166.64
L184.373 172.509
L185.29 174.734
L186.208 180.765
L187.125 193.86
L188.042 177.358
L188.959 176.541
L189.877 181.576
L190.794 182.577
L192.628 174.556
L193.546 189.497
L194.463 178.876
L195.38 173.142
L197.215 169.163
L198.132 194.225
L199.049 179.456
L199.967 180.948
L200.884 179.379
L201.801 183.744
L202.718 185.179
L203.636 183.111
L204.553 195.382
L205.47 180.447
L206.387 179.928
L207.305 180.481
L208.222 179.83
L209.139 201.792
L210.056 210.141
L210.974 197.64
L211.891 201.063
L212.808 178.625
L213.725 177.611
L214.643 185.226
L215.56 179.309
L216.477 184.796
L217.394 178.563
L218.312 188.992
L220.146 181.288
L221.064 181.017
L221.981 183.956
L222.898 187.914
L223.815 182.076
L224.733 183.693
L225.65 179.504
L226.567 180.712
L227.484 179.758
L228.402 186.306
L229.319 181.46
L230.236 182.747
L231.153 183.273
L232.071 181.833
L232.988 189.66
L233.905 185.191
L234.822 195.473
L235.74 184.194
L236.657 187.381
L238.491 183.571
L239.409 182.037
L240.326 181.913
L241.243 183.933
L242.16 179.681
L243.078 199.701
L243.995 192.414
L244.912 189.444
L245.83 188.004
L246.747 184.089
L247.664 184.107
L248.581 180.775
L249.499 189.091
L250.416 194.385
L251.333 184.046
L252.25 191.22
L253.168 185.507
L254.085 198.406
L255.002 196.686
L255.919 180.183
L256.837 180.966
L257.754 186.897
L258.671 184.28
L259.588 198.393
L260.506 182.928
L261.423 179.735
L262.34 180.768
L263.257 186.497
L264.175 191.473
L265.092 182.507
L266.009 183.627
L266.927 181.216
L267.844 179.831
L268.761 186.614
L269.678 187.653
L270.596 180.189
L271.513 185.83
L272.43 190.333
L273.347 193.334
L274.265 187.341
L275.182 223.25
L276.099 204.182
L277.016 201.928
L277.934 195.93
L278.851 184.042
L279.768 185.231
L280.685 184.672
L281.603 186.633
L282.52 181.895
L283.437 182.964
L284.354 184.561
L285.272 184.808
L286.189 184.351
L287.106 186.533
L288.024 180.611
L288.941 176.304
L289.858 178.052
L290.775 180.609
L291.693 179.063
L292.61 179.485
L293.527 219.893
L294.444 200.374
L295.362 206.89
L296.279 214.374
L298.113 187.469
L299.031 198.007
L299.948 216.163
L300.865 201.946
L301.782 238.658
L302.7 243.989
L303.617 234.318
L304.534 234.939
L305.451 215.257
L306.369 220.355
L307.286 234.181
L308.203 207.278
L309.12 195.674
L310.038 186.232
L310.955 209.963
L311.872 200.115
L312.79 205.05
L313.707 196.256
L314.624 207.72
L315.541 197.257
L316.459 210.379
L317.376 225.419
L318.293 242.67
L319.21 233.778
L320.128 235.098
L321.045 231.728
L321.962 232.843
L322.879 231.336
L323.797 225.266
L324.714 214.988
L325.631 230.646
L326.548 227.182
L327.466 226.229
L328.383 218.395
L329.3 231.402
L331.135 190.042
L332.052 219.33
L332.969 231.424
L334.804 208.18
L335.721 217.297
L336.638 223.62
L337.556 233.906
L338.473 231.745
L339.39 241.311
L340.307 210.362
L341.225 226.205
L342.142 235.084
L343.059 223.43
L343.976 215.663
L344.894 230.59
L345.811 220.771
L346.728 238.228
L347.645 223.443
L348.563 240.94
L349.48 225.509
L350.397 234.468
L351.314 236.288
M353.149 233.64
L354.066 227.076
L354.984 225.456
L355.901 192.836
L356.818 182.881
L357.735 216.372
L358.653 237.052
L359.57 237.43
L360.487 225.014
L361.404 238.619
L362.322 240.621
L363.239 227.387
L364.156 227.645
L365.073 241.849
L365.073 241.849" style="fill:none;stroke:#000000;stroke-linecap:square;"/>
   </g>
   <g id="line2d_15">
    <path clip-path="url(#p95a2ee5e18)" d="
M31.1906 226.357
L32.1079 221.139
L33.0251 191.234
L33.9424 170.813
L34.8597 146.807
L35.7769 176.621
L36.6942 211.825
L37.6114 229.697
L38.5287 160.867
L39.446 217.305
L40.3632 201.905
L41.2805 153.151
L43.115 202.803
L44.0323 182.254
L44.9495 192.993
L45.8668 189.117
L46.784 131.568
L47.7013 120.034
L48.6186 156.252
L49.5358 139.466
L50.4531 79.6404
L51.3704 56.2055
L52.2876 170.47
L53.2049 222.616
L54.1221 225.781
L55.0394 218.562
L55.9567 228.937
L56.8739 244.241
L57.7912 240.802
L58.7084 225.006
L59.6257 212.207
L60.543 197.625
L61.4602 180.191
L62.3775 139.176
L63.2947 148.148
L64.212 167.66
L65.1293 151.281
L66.0465 197.409
L66.9638 161.326
L67.881 139.757
L68.7983 105.851
L69.7156 177.064
L70.6328 185.026
L72.4673 141.018
L74.3019 207.866
L75.2191 117.691
L76.1364 168.798
L77.0536 199.389
L77.9709 179.46
L78.8882 221.668
L80.7227 191.844
L81.6399 191.221
L82.5572 176.348
L83.4745 125.747
L84.3917 184.583
L85.309 202.062
L86.2262 160.663
L87.1435 163.42
L88.0608 89.9637
L88.978 103.425
L89.8953 176.79
L91.7298 115.821
L92.6471 121.206
L93.5643 77.1949
L94.4816 169.731
L95.3988 149.277
L96.3161 94.4824
L97.2334 76.8623
L98.1506 106.313
L99.0679 151.498
L99.9851 134.476
L100.902 131.604
L101.82 44.883
L102.737 152.197
L103.654 159.136
L104.571 188.775
L105.489 127.135
L106.406 92.6377
L107.323 83.6673
L108.24 187.258
L109.158 156.031
L110.075 103.814
L110.992 121.094
L111.91 99.2313
L112.827 70.593
L113.744 119.099
L115.579 70.1836
L116.496 135.633
L117.413 180.713
L118.33 196.257
L119.248 214.025
L120.165 155.705
L121.082 104.629
L121.999 138.142
L122.917 119.9
L123.834 79.0946
L124.751 154.378
L125.668 131.498
L126.586 169.067
L127.503 134.928
L128.42 82.6666
L129.337 68.3663
L130.255 198.532
L131.172 177.005
L132.089 121.054
L133.007 124.727
L133.924 84.6398
L134.841 67.6732
L135.758 53.255
L136.676 69.7347
L137.593 67.3306
L138.51 69.3256
L139.427 114.509
L140.345 103.393
L141.262 89.86
L142.179 34.9528
L143.096 55.0881
L144.014 110.2
L144.931 73.1304
L145.848 87.9887
L146.765 125.233
L147.683 124.601
L148.6 83.1492
L150.434 58.3557
L151.352 52.4849
L153.186 103.48
L154.104 77.2945
L155.938 190.63
L156.855 141.918
L157.773 165.173
L158.69 102.655
L159.607 87.4301
L160.524 142.132
L161.442 58.5979
L162.359 74.9181
L163.276 103.875
L164.193 165.96
L165.111 185.327
L166.028 213.56
L166.945 197.777
L167.862 150.518
L168.78 121.452
L169.697 71.8312
L170.614 79.989
L171.531 108.019
L172.449 97.0587
L173.366 82.0526
L174.283 78.3651
L175.2 81.2104
L176.118 102.294
L177.035 74.2449
L177.952 91.9794
L178.87 94.5422
L179.787 103.612
L180.704 144.013
L181.621 163.683
L182.539 85.3943
L183.456 82.8856
L184.373 84.7767
L185.29 117.191
L186.208 207.334
L187.125 183.54
L188.042 169.135
L188.959 160.075
L189.877 118.587
L190.794 204.839
L191.711 220.56
L192.628 180.879
L193.546 114.868
L194.463 91.5125
L195.38 111.159
L196.297 112.382
L197.215 135.621
M296.279 104.549
L297.196 101.667
L298.113 93.0874
L299.031 100.373
L299.948 115.708
L300.865 95.1134
L301.782 85.2411
L302.7 66.5777
L303.617 73.3133
L304.534 75.3223
L305.451 75.2104
L306.369 191.173
L307.286 213.402
L308.203 196.943
L309.12 204.963
L310.038 173.66
L310.955 183.426
L311.872 198.971
L312.79 168.039
L313.707 190.766
L314.624 198.22
L315.541 162.698
L317.376 120.071
L318.293 79.6086
L319.21 82.208
L320.128 58.1523
L321.045 134.701
L321.962 151.204
L322.879 187.426
L323.797 205.648
L325.631 115.258
L326.548 189.061
L327.466 186.636
L328.383 117.997
L329.3 104.547
L330.217 112.075
L331.135 106.76
L332.052 106.365
L332.969 91.6438
L333.887 89.1878
L334.804 116.792
L335.721 118.017
L336.638 178.895
L337.556 197.53
L338.473 173.757
L339.39 157.254
L340.307 203.181
L341.225 187.825
L342.142 168.062
L343.059 211.879
L344.894 110.472
L345.811 153.51
L346.728 179.026
L347.645 140.149
L348.563 173.178
L349.48 174.11
L350.397 76.9253
L351.314 76.8245
L352.232 32.7999
L353.149 132.26
L354.066 192.984
L354.984 157.042
L355.901 208.362
L356.818 214.604
L358.653 152.439
L359.57 97.4655
L360.487 75.5417
L361.404 48.6203
L362.322 110.525
L363.239 99.1196
L364.156 137.336
L365.073 163.723
L365.073 163.723" style="fill:none;stroke:#0000ff;stroke-linecap:square;"/>
   </g>
   <g id="line2d_16">
    <path clip-path="url(#p95a2ee5e18)" d="
M31.1906 233.152
L32.1079 223.398
L33.0251 220.386
L33.9424 225.927
L34.8597 216.035
L35.7769 209.409
L36.6942 220.379
M38.5287 228.101
L39.446 236.962
L40.3632 234.442
L41.2805 239.033
L42.1977 237.895
L43.115 228.565
L44.0323 212.961
L44.9495 213.036
L45.8668 212.821
L46.784 219.689
L47.7013 211.193
L48.6186 215.166
L49.5358 216.11
L50.4531 222.742
L51.3704 218.236
M58.7084 220.77
L59.6257 232.916
L60.543 220.152
M62.3775 237.921
L63.2947 239.289
M66.9638 234.359
L67.881 227.954
L69.7156 237.276
L70.6328 232.296
L71.5501 231.041
L72.4673 225.783
L73.3846 232.134
L74.3019 205.743
L75.2191 231.514
L76.1364 233.033
L77.0536 236.733
L77.9709 226.299
L78.8882 224.21
L79.8054 217.419
L80.7227 211.888
L81.6399 210.773
L82.5572 213.486
L83.4745 230.991
L84.3917 219.024
L85.309 234.539
L86.2262 229.919
L87.1435 233.389
L88.0608 201.829
L88.978 222.531
L89.8953 218.379
L90.8125 216.136
L91.7298 195.834
L92.6471 224.517
L93.5643 237.072
L94.4816 209.026
L95.3988 195.973
L96.3161 186.118
L97.2334 215.973
L98.1506 191.62
L99.0679 183.354
L99.9851 217.377
L100.902 216.694
L101.82 179.851
L102.737 180.94
L103.654 178.186
L104.571 175.012
L105.489 172.688
L106.406 176.868
L107.323 204.237
L108.24 208.699
M110.075 223.616
L110.992 227.978
L111.91 214.123
L112.827 197.94
L113.744 238.457
L114.661 227.201
L115.579 196.633
L116.496 203.817
L118.33 195.281
L119.248 175.874
L121.082 171.878
L121.999 171.845
L122.917 167.576
L123.834 172.789
L124.751 172.385
L125.668 165.613
L126.586 177.711
L127.503 167.025
L128.42 176.824
L129.337 175.668
L130.255 167.17
L131.172 169.646
L132.089 173.082
L133.007 227.19
L133.924 197.388
L134.841 201.411
L135.758 227.642
L136.676 199.78
L137.593 194.318
L138.51 195.62
L139.427 163.281
L140.345 159.766
L141.262 154.614
L142.179 159.159
L143.096 169.569
L144.931 196.953
L145.848 176.737
L146.765 172.139
L147.683 184.909
L148.6 188.715
L149.517 199.663
L150.434 172.094
L151.352 169.478
L152.269 159.692
L153.186 162.536
L154.104 166.35
L155.021 184.852
L155.938 168.506
L156.855 196.088
L157.773 178.712
L158.69 191.278
L159.607 198.467
L160.524 168.783
L161.442 170.809
L162.359 189.925
L163.276 184.876
L164.193 166.3
L165.111 160.273
L166.028 175.002
L166.945 170.239
L167.862 176.379
L168.78 168.738
L169.697 178.908
L170.614 167.718
L171.531 163.868
L172.449 166.098
L173.366 164.12
L174.283 165.515
L175.2 173.491
L176.118 165.131
L177.035 164.274
L177.952 164.114
L178.87 162.311
L179.787 169.135
L180.704 197.336
L181.621 196.585
L182.539 191.967
L183.456 200.061
L184.373 197.524
L185.29 214.464
L186.208 168.171
L187.125 171.531
L188.042 174.146
L188.959 171.818
L189.877 174.062
L190.794 183.181
L191.711 214.368
L192.628 202.689
L193.546 203.147
L194.463 183.014
L195.38 174.812
L196.297 174.619
L197.215 170.09
L198.132 186.582
L199.049 184.861
L199.967 177.248
L200.884 174.557
L201.801 172.871
L202.718 174.442
L203.636 185.06
L204.553 201.827
L205.47 179.16
L206.387 178.789
L207.305 177.073
L208.222 178.025
L209.139 180.663
L210.056 183.974
L210.974 186.522
L211.891 196.474
L212.808 184.066
L213.725 186.755
L214.643 185.614
L215.56 208.73
L216.477 193.144
L217.394 186.479
L218.312 189.197
L219.229 184.437
L220.146 182.465
L221.064 181.809
L221.981 191.525
L222.898 192.409
L223.815 197.825
L224.733 187.412
L225.65 190.796
L226.567 190.302
L227.484 189.212
L228.402 193.144
L229.319 202.602
L230.236 200.33
L231.153 194.867
L232.071 194.436
L232.988 195.822
L233.905 187.622
L234.822 194.095
L235.74 191.385
L236.657 214.075
L237.574 197.255
L238.491 187.774
L239.409 187.746
L240.326 185.795
L241.243 186.654
L242.16 200.761
L243.078 202.615
L243.995 196.246
L244.912 197.338
L245.83 203.85
L246.747 197.811
L247.664 211.877
L249.499 190.297
L250.416 192.974
L251.333 193.108
L252.25 211.511
L255.002 188.662
L255.919 197.199
L256.837 193.386
L257.754 188.529
L258.671 189.281
L260.506 189.605
L262.34 196.43
L263.257 193.08
L264.175 187.928
L265.092 197.607
L266.009 194.097
L266.927 194.955
L267.844 198.678
L268.761 201.677
L269.678 207.151
L271.513 197.32
L272.43 215.731
L273.347 205.353
L274.265 214.964
L275.182 194.351
L276.099 197.917
L277.016 203.519
L277.934 224.892
L278.851 228.867
L279.768 234.418
L280.685 212.216
L282.52 194.969
L283.437 194.073
L284.354 194.201
L285.272 194.495
L286.189 196.205
L287.106 196.98
L288.024 196.949
L288.941 199.17
L289.858 202.526
L290.775 212.132
L291.693 217.912
L292.61 194.925
L293.527 204.395
L294.444 223.993
L295.362 214.482
L296.279 197.785
L297.196 202.207
L298.113 210.074
L299.031 201.364
L299.948 225.104
L300.865 211.679
L301.782 229.957
L302.7 211.926
L303.617 218.408
L304.534 221.647
L305.451 218.96
L306.369 203.236
L307.286 215.671
L308.203 207.486
L309.12 219.134
L310.038 236.118
M311.872 229.155
L312.79 231.024
L313.707 219.186
L314.624 213.686
L315.541 218.402
L316.459 213.214
L317.376 223.509
L318.293 229.122
L319.21 224.651
L320.128 208.169
L321.045 229.71
M322.879 243.178
L323.797 233.321
L324.714 230.88
L326.548 222.993
L327.466 221.689
L328.383 226.05
L329.3 236.057
L330.217 230.875
L331.135 224.077
L332.052 235.183
L332.969 220.679
L333.887 221.649
L334.804 214.999
L335.721 232.217
L336.638 227.047
L337.556 235.351
L338.473 231.414
L339.39 225.998
L340.307 224.715
L341.225 222.548
L342.142 232.887
L343.059 222.983
L343.976 234.903
L344.894 224.76
L346.728 219.973
L347.645 237.693
L348.563 241.507
L349.48 223.929
L350.397 226.099
L351.314 235.326
L352.232 230.687
L353.149 236.841
L354.066 240.649
L354.984 241.909
L355.901 241.415
M357.735 231.747
L358.653 240.75
M361.404 239.439" style="fill:none;stroke:#008000;stroke-linecap:square;"/>
   </g>
   <g id="patch_3">
    <path d="
M365.991 244.518
L365.991 21.3181" style="fill:none;stroke:#000000;stroke-linecap:square;stroke-linejoin:miter;"/>
   </g>
   <g id="patch_4">
    <path d="
M31.1906 21.3181
L365.991 21.3181" style="fill:none;stroke:#000000;stroke-linecap:square;stroke-linejoin:miter;"/>
   </g>
   <g id="patch_5">
    <path d="
M31.1906 244.518
L31.1906 21.3181" style="fill:none;stroke:#000000;stroke-linecap:square;stroke-linejoin:miter;"/>
   </g>
   <g id="patch_6">
    <path d="
M31.1906 244.518
L365.991 244.518" style="fill:none;stroke:#000000;stroke-linecap:square;stroke-linejoin:miter;"/>
   </g>
   <g id="matplotlib.axis_1">
    <g id="xtick_1">
     <g id="line2d_17">
      <defs>
       <path d="
M0 0
L0 -4" id="mc7db9fdffb" style="stroke:#000000;stroke-width:0.5;"/>
      </defs>
      <g>
       <use style="stroke:#000000;stroke-width:0.5;" x="31.190625" xlink:href="#mc7db9fdffb" y="244.518125"/>
      </g>
     </g>
     <g id="line2d_18">
      <defs>
       <path d="
M0 0
L0 4" id="m5a7d422ac3" style="stroke:#000000;stroke-width:0.5;"/>
      </defs>
      <g>
       <use style="stroke:#000000;stroke-width:0.5;" x="31.190625" xlink:href="#m5a7d422ac3" y="21.318125"/>
      </g>
     </g>
     <g id="text_1">
      <!-- 0 -->
      <defs>
       <path d="
M31.7812 66.4062
Q24.1719 66.4062 20.3281 58.9062
Q16.5 51.4219 16.5 36.375
Q16.5 21.3906 20.3281 13.8906
Q24.1719 6.39062 31.7812 6.39062
Q39.4531 6.39062 43.2812 13.8906
Q47.125 21.3906 47.125 36.375
Q47.125 51.4219 43.2812 58.9062
Q39.4531 66.4062 31.7812 66.4062
M31.7812 74.2188
Q44.0469 74.2188 50.5156 64.5156
Q56.9844 54.8281 56.9844 36.375
Q56.9844 17.9688 50.5156 8.26562
Q44.0469 -1.42188 31.7812 -1.42188
Q19.5312 -1.42188 13.0625 8.26562
Q6.59375 17.9688 6.59375 36.375
Q6.59375 54.8281 13.0625 64.5156
Q19.5312 74.2188 31.7812 74.2188" id="BitstreamVeraSans-Roman-30"/>
      </defs>
      <g transform="translate(28.67109375 256.1165625)scale(0.1 -0.1)">
       <use xlink:href="#BitstreamVeraSans-Roman-30"/>
      </g>
     </g>
    </g>
    <g id="xtick_2">
     <g id="line2d_19">
      <g>
       <use style="stroke:#000000;stroke-width:0.5;" x="77.0536386986" xlink:href="#mc7db9fdffb" y="244.518125"/>
      </g>
     </g>
     <g id="line2d_20">
      <g>
       <use style="stroke:#000000;stroke-width:0.5;" x="77.0536386986" xlink:href="#m5a7d422ac3" y="21.318125"/>
      </g>
     </g>
     <g id="text_2">
      <!-- 50 -->
      <defs>
       <path d="
M10.7969 72.9062
L49.5156 72.9062
L49.5156 64.5938
L19.8281 64.5938
L19.8281 46.7344
Q21.9688 47.4688 24.1094 47.8281
Q26.2656 48.1875 28.4219 48.1875
Q40.625 48.1875 47.75 41.5
Q54.8906 34.8125 54.8906 23.3906
Q54.8906 11.625 47.5625 5.09375
Q40.2344 -1.42188 26.9062 -1.42188
Q22.3125 -1.42188 17.5469 -0.640625
Q12.7969 0.140625 7.71875 1.70312
L7.71875 11.625
Q12.1094 9.23438 16.7969 8.0625
Q21.4844 6.89062 26.7031 6.89062
Q35.1562 6.89062 40.0781 11.3281
Q45.0156 15.7656 45.0156 23.3906
Q45.0156 31 40.0781 35.4375
Q35.1562 39.8906 26.7031 39.8906
Q22.75 39.8906 18.8125 39.0156
Q14.8906 38.1406 10.7969 36.2812
z
" id="BitstreamVeraSans-Roman-35"/>
      </defs>
      <g transform="translate(71.4091074486 256.1165625)scale(0.1 -0.1)">
       <use xlink:href="#BitstreamVeraSans-Roman-35"/>
       <use x="63.623046875" xlink:href="#BitstreamVeraSans-Roman-30"/>
      </g>
     </g>
    </g>
    <g id="xtick_3">
     <g id="line2d_21">
      <g>
       <use style="stroke:#000000;stroke-width:0.5;" x="122.916652397" xlink:href="#mc7db9fdffb" y="244.518125"/>
      </g>
     </g>
     <g id="line2d_22">
      <g>
       <use style="stroke:#000000;stroke-width:0.5;" x="122.916652397" xlink:href="#m5a7d422ac3" y="21.318125"/>
      </g>
     </g>
     <g id="text_3">
      <!-- 100 -->
      <defs>
       <path d="
M12.4062 8.29688
L28.5156 8.29688
L28.5156 63.9219
L10.9844 60.4062
L10.9844 69.3906
L28.4219 72.9062
L38.2812 72.9062
L38.2812 8.29688
L54.3906 8.29688
L54.3906 0
L12.4062 0
z
" id="BitstreamVeraSans-Roman-31"/>
      </defs>
      <g transform="translate(114.254152397 256.1165625)scale(0.1 -0.1)">
       <use xlink:href="#BitstreamVeraSans-Roman-31"/>
       <use x="63.623046875" xlink:href="#BitstreamVeraSans-Roman-30"/>
       <use x="127.24609375" xlink:href="#BitstreamVeraSans-Roman-30"/>
      </g>
     </g>
    </g>
    <g id="xtick_4">
     <g id="line2d_23">
      <g>
       <use style="stroke:#000000;stroke-width:0.5;" x="168.779666096" xlink:href="#mc7db9fdffb" y="244.518125"/>
      </g>
     </g>
     <g id="line2d_24">
      <g>
       <use style="stroke:#000000;stroke-width:0.5;" x="168.779666096" xlink:href="#m5a7d422ac3" y="21.318125"/>
      </g>
     </g>
     <g id="text_4">
      <!-- 150 -->
      <g transform="translate(160.117166096 256.1165625)scale(0.1 -0.1)">
       <use xlink:href="#BitstreamVeraSans-Roman-31"/>
       <use x="63.623046875" xlink:href="#BitstreamVeraSans-Roman-35"/>
       <use x="127.24609375" xlink:href="#BitstreamVeraSans-Roman-30"/>
      </g>
     </g>
    </g>
    <g id="xtick_5">
     <g id="line2d_25">
      <g>
       <use style="stroke:#000000;stroke-width:0.5;" x="214.642679795" xlink:href="#mc7db9fdffb" y="244.518125"/>
      </g>
     </g>
     <g id="line2d_26">
      <g>
       <use style="stroke:#000000;stroke-width:0.5;" x="214.642679795" xlink:href="#m5a7d422ac3" y="21.318125"/>
      </g>
     </g>
     <g id="text_5">
      <!-- 200 -->
      <defs>
       <path d="
M19.1875 8.29688
L53.6094 8.29688
L53.6094 0
L7.32812 0
L7.32812 8.29688
Q12.9375 14.1094 22.625 23.8906
Q32.3281 33.6875 34.8125 36.5312
Q39.5469 41.8438 41.4219 45.5312
Q43.3125 49.2188 43.3125 52.7812
Q43.3125 58.5938 39.2344 62.25
Q35.1562 65.9219 28.6094 65.9219
Q23.9688 65.9219 18.8125 64.3125
Q13.6719 62.7031 7.8125 59.4219
L7.8125 69.3906
Q13.7656 71.7812 18.9375 73
Q24.125 74.2188 28.4219 74.2188
Q39.75 74.2188 46.4844 68.5469
Q53.2188 62.8906 53.2188 53.4219
Q53.2188 48.9219 51.5312 44.8906
Q49.8594 40.875 45.4062 35.4062
Q44.1875 33.9844 37.6406 27.2188
Q31.1094 20.4531 19.1875 8.29688" id="BitstreamVeraSans-Roman-32"/>
      </defs>
      <g transform="translate(205.797367295 256.1165625)scale(0.1 -0.1)">
       <use xlink:href="#BitstreamVeraSans-Roman-32"/>
       <use x="63.623046875" xlink:href="#BitstreamVeraSans-Roman-30"/>
       <use x="127.24609375" xlink:href="#BitstreamVeraSans-Roman-30"/>
      </g>
     </g>
    </g>
    <g id="xtick_6">
     <g id="line2d_27">
      <g>
       <use style="stroke:#000000;stroke-width:0.5;" x="260.505693493" xlink:href="#mc7db9fdffb" y="244.518125"/>
      </g>
     </g>
     <g id="line2d_28">
      <g>
       <use style="stroke:#000000;stroke-width:0.5;" x="260.505693493" xlink:href="#m5a7d422ac3" y="21.318125"/>
      </g>
     </g>
     <g id="text_6">
      <!-- 250 -->
      <g transform="translate(251.660380993 256.1165625)scale(0.1 -0.1)">
       <use xlink:href="#BitstreamVeraSans-Roman-32"/>
       <use x="63.623046875" xlink:href="#BitstreamVeraSans-Roman-35"/>
       <use x="127.24609375" xlink:href="#BitstreamVeraSans-Roman-30"/>
      </g>
     </g>
    </g>
    <g id="xtick_7">
     <g id="line2d_29">
      <g>
       <use style="stroke:#000000;stroke-width:0.5;" x="306.368707192" xlink:href="#mc7db9fdffb" y="244.518125"/>
      </g>
     </g>
     <g id="line2d_30">
      <g>
       <use style="stroke:#000000;stroke-width:0.5;" x="306.368707192" xlink:href="#m5a7d422ac3" y="21.318125"/>
      </g>
     </g>
     <g id="text_7">
      <!-- 300 -->
      <defs>
       <path d="
M40.5781 39.3125
Q47.6562 37.7969 51.625 33
Q55.6094 28.2188 55.6094 21.1875
Q55.6094 10.4062 48.1875 4.48438
Q40.7656 -1.42188 27.0938 -1.42188
Q22.5156 -1.42188 17.6562 -0.515625
Q12.7969 0.390625 7.625 2.20312
L7.625 11.7188
Q11.7188 9.32812 16.5938 8.10938
Q21.4844 6.89062 26.8125 6.89062
Q36.0781 6.89062 40.9375 10.5469
Q45.7969 14.2031 45.7969 21.1875
Q45.7969 27.6406 41.2812 31.2656
Q36.7656 34.9062 28.7188 34.9062
L20.2188 34.9062
L20.2188 43.0156
L29.1094 43.0156
Q36.375 43.0156 40.2344 45.9219
Q44.0938 48.8281 44.0938 54.2969
Q44.0938 59.9062 40.1094 62.9062
Q36.1406 65.9219 28.7188 65.9219
Q24.6562 65.9219 20.0156 65.0312
Q15.375 64.1562 9.8125 62.3125
L9.8125 71.0938
Q15.4375 72.6562 20.3438 73.4375
Q25.25 74.2188 29.5938 74.2188
Q40.8281 74.2188 47.3594 69.1094
Q53.9062 64.0156 53.9062 55.3281
Q53.9062 49.2656 50.4375 45.0938
Q46.9688 40.9219 40.5781 39.3125" id="BitstreamVeraSans-Roman-33"/>
      </defs>
      <g transform="translate(297.538238442 256.1165625)scale(0.1 -0.1)">
       <use xlink:href="#BitstreamVeraSans-Roman-33"/>
       <use x="63.623046875" xlink:href="#BitstreamVeraSans-Roman-30"/>
       <use x="127.24609375" xlink:href="#BitstreamVeraSans-Roman-30"/>
      </g>
     </g>
    </g>
    <g id="xtick_8">
     <g id="line2d_31">
      <g>
       <use style="stroke:#000000;stroke-width:0.5;" x="352.23172089" xlink:href="#mc7db9fdffb" y="244.518125"/>
      </g>
     </g>
     <g id="line2d_32">
      <g>
       <use style="stroke:#000000;stroke-width:0.5;" x="352.23172089" xlink:href="#m5a7d422ac3" y="21.318125"/>
      </g>
     </g>
     <g id="text_8">
      <!-- 350 -->
      <g transform="translate(343.40125214 256.1165625)scale(0.1 -0.1)">
       <use xlink:href="#BitstreamVeraSans-Roman-33"/>
       <use x="63.623046875" xlink:href="#BitstreamVeraSans-Roman-35"/>
       <use x="127.24609375" xlink:href="#BitstreamVeraSans-Roman-30"/>
      </g>
     </g>
    </g>
    <g id="text_9">
     <!-- Julian day -->
     <defs>
      <path d="
M45.4062 46.3906
L45.4062 75.9844
L54.3906 75.9844
L54.3906 0
L45.4062 0
L45.4062 8.20312
Q42.5781 3.32812 38.25 0.953125
Q33.9375 -1.42188 27.875 -1.42188
Q17.9688 -1.42188 11.7344 6.48438
Q5.51562 14.4062 5.51562 27.2969
Q5.51562 40.1875 11.7344 48.0938
Q17.9688 56 27.875 56
Q33.9375 56 38.25 53.625
Q42.5781 51.2656 45.4062 46.3906
M14.7969 27.2969
Q14.7969 17.3906 18.875 11.75
Q22.9531 6.10938 30.0781 6.10938
Q37.2031 6.10938 41.2969 11.75
Q45.4062 17.3906 45.4062 27.2969
Q45.4062 37.2031 41.2969 42.8438
Q37.2031 48.4844 30.0781 48.4844
Q22.9531 48.4844 18.875 42.8438
Q14.7969 37.2031 14.7969 27.2969" id="BitstreamVeraSans-Roman-64"/>
      <path d="
M32.1719 -5.07812
Q28.375 -14.8438 24.75 -17.8125
Q21.1406 -20.7969 15.0938 -20.7969
L7.90625 -20.7969
L7.90625 -13.2812
L13.1875 -13.2812
Q16.8906 -13.2812 18.9375 -11.5156
Q21 -9.76562 23.4844 -3.21875
L25.0938 0.875
L2.98438 54.6875
L12.5 54.6875
L29.5938 11.9219
L46.6875 54.6875
L56.2031 54.6875
z
" id="BitstreamVeraSans-Roman-79"/>
      <path d="
M9.42188 54.6875
L18.4062 54.6875
L18.4062 0
L9.42188 0
z

M9.42188 75.9844
L18.4062 75.9844
L18.4062 64.5938
L9.42188 64.5938
z
" id="BitstreamVeraSans-Roman-69"/>
      <path id="BitstreamVeraSans-Roman-20"/>
      <path d="
M54.8906 33.0156
L54.8906 0
L45.9062 0
L45.9062 32.7188
Q45.9062 40.4844 42.875 44.3281
Q39.8438 48.1875 33.7969 48.1875
Q26.5156 48.1875 22.3125 43.5469
Q18.1094 38.9219 18.1094 30.9062
L18.1094 0
L9.07812 0
L9.07812 54.6875
L18.1094 54.6875
L18.1094 46.1875
Q21.3438 51.125 25.7031 53.5625
Q30.0781 56 35.7969 56
Q45.2188 56 50.0469 50.1719
Q54.8906 44.3438 54.8906 33.0156" id="BitstreamVeraSans-Roman-6e"/>
      <path d="
M9.8125 72.9062
L19.6719 72.9062
L19.6719 5.07812
Q19.6719 -8.10938 14.6719 -14.0625
Q9.67188 -20.0156 -1.42188 -20.0156
L-5.17188 -20.0156
L-5.17188 -11.7188
L-2.09375 -11.7188
Q4.4375 -11.7188 7.125 -8.04688
Q9.8125 -4.39062 9.8125 5.07812
z
" id="BitstreamVeraSans-Roman-4a"/>
      <path d="
M34.2812 27.4844
Q23.3906 27.4844 19.1875 25
Q14.9844 22.5156 14.9844 16.5
Q14.9844 11.7188 18.1406 8.90625
Q21.2969 6.10938 26.7031 6.10938
Q34.1875 6.10938 38.7031 11.4062
Q43.2188 16.7031 43.2188 25.4844
L43.2188 27.4844
z

M52.2031 31.2031
L52.2031 0
L43.2188 0
L43.2188 8.29688
Q40.1406 3.32812 35.5469 0.953125
Q30.9531 -1.42188 24.3125 -1.42188
Q15.9219 -1.42188 10.9531 3.29688
Q6 8.01562 6 15.9219
Q6 25.1406 12.1719 29.8281
Q18.3594 34.5156 30.6094 34.5156
L43.2188 34.5156
L43.2188 35.4062
Q43.2188 41.6094 39.1406 45
Q35.0625 48.3906 27.6875 48.3906
Q23 48.3906 18.5469 47.2656
Q14.1094 46.1406 10.0156 43.8906
L10.0156 52.2031
Q14.9375 54.1094 19.5781 55.0469
Q24.2188 56 28.6094 56
Q40.4844 56 46.3438 49.8438
Q52.2031 43.7031 52.2031 31.2031" id="BitstreamVeraSans-Roman-61"/>
      <path d="
M9.42188 75.9844
L18.4062 75.9844
L18.4062 0
L9.42188 0
z
" id="BitstreamVeraSans-Roman-6c"/>
      <path d="
M8.5 21.5781
L8.5 54.6875
L17.4844 54.6875
L17.4844 21.9219
Q17.4844 14.1562 20.5 10.2656
Q23.5312 6.39062 29.5938 6.39062
Q36.8594 6.39062 41.0781 11.0312
Q45.3125 15.6719 45.3125 23.6875
L45.3125 54.6875
L54.2969 54.6875
L54.2969 0
L45.3125 0
L45.3125 8.40625
Q42.0469 3.42188 37.7188 1
Q33.4062 -1.42188 27.6875 -1.42188
Q18.2656 -1.42188 13.375 4.4375
Q8.5 10.2969 8.5 21.5781" id="BitstreamVeraSans-Roman-75"/>
     </defs>
     <g transform="translate(174.03984375 270.7946875)scale(0.1 -0.1)">
      <use xlink:href="#BitstreamVeraSans-Roman-4a"/>
      <use x="29.4921875" xlink:href="#BitstreamVeraSans-Roman-75"/>
      <use x="92.87109375" xlink:href="#BitstreamVeraSans-Roman-6c"/>
      <use x="120.654296875" xlink:href="#BitstreamVeraSans-Roman-69"/>
      <use x="148.4375" xlink:href="#BitstreamVeraSans-Roman-61"/>
      <use x="209.716796875" xlink:href="#BitstreamVeraSans-Roman-6e"/>
      <use x="273.095703125" xlink:href="#BitstreamVeraSans-Roman-20"/>
      <use x="304.8828125" xlink:href="#BitstreamVeraSans-Roman-64"/>
      <use x="368.359375" xlink:href="#BitstreamVeraSans-Roman-61"/>
      <use x="429.638671875" xlink:href="#BitstreamVeraSans-Roman-79"/>
     </g>
    </g>
   </g>
   <g id="matplotlib.axis_2">
    <g id="ytick_1">
     <g id="line2d_33">
      <defs>
       <path d="
M0 0
L4 0" id="md7965d1ba0" style="stroke:#000000;stroke-width:0.5;"/>
      </defs>
      <g>
       <use style="stroke:#000000;stroke-width:0.5;" x="31.190625" xlink:href="#md7965d1ba0" y="244.518125"/>
      </g>
     </g>
     <g id="line2d_34">
      <defs>
       <path d="
M0 0
L-4 0" id="md9a1c1a7cd" style="stroke:#000000;stroke-width:0.5;"/>
      </defs>
      <g>
       <use style="stroke:#000000;stroke-width:0.5;" x="365.990625" xlink:href="#md9a1c1a7cd" y="244.518125"/>
      </g>
     </g>
     <g id="text_10">
      <!-- 0 -->
      <g transform="translate(22.1515625 247.2775)scale(0.1 -0.1)">
       <use xlink:href="#BitstreamVeraSans-Roman-30"/>
      </g>
     </g>
    </g>
    <g id="ytick_2">
     <g id="line2d_35">
      <g>
       <use style="stroke:#000000;stroke-width:0.5;" x="31.190625" xlink:href="#md7965d1ba0" y="216.618125"/>
      </g>
     </g>
     <g id="line2d_36">
      <g>
       <use style="stroke:#000000;stroke-width:0.5;" x="365.990625" xlink:href="#md9a1c1a7cd" y="216.618125"/>
      </g>
     </g>
     <g id="text_11">
      <!-- 1 -->
      <g transform="translate(22.85 219.3775)scale(0.1 -0.1)">
       <use xlink:href="#BitstreamVeraSans-Roman-31"/>
      </g>
     </g>
    </g>
    <g id="ytick_3">
     <g id="line2d_37">
      <g>
       <use style="stroke:#000000;stroke-width:0.5;" x="31.190625" xlink:href="#md7965d1ba0" y="188.718125"/>
      </g>
     </g>
     <g id="line2d_38">
      <g>
       <use style="stroke:#000000;stroke-width:0.5;" x="365.990625" xlink:href="#md9a1c1a7cd" y="188.718125"/>
      </g>
     </g>
     <g id="text_12">
      <!-- 2 -->
      <g transform="translate(22.5625 191.4775)scale(0.1 -0.1)">
       <use xlink:href="#BitstreamVeraSans-Roman-32"/>
      </g>
     </g>
    </g>
    <g id="ytick_4">
     <g id="line2d_39">
      <g>
       <use style="stroke:#000000;stroke-width:0.5;" x="31.190625" xlink:href="#md7965d1ba0" y="160.818125"/>
      </g>
     </g>
     <g id="line2d_40">
      <g>
       <use style="stroke:#000000;stroke-width:0.5;" x="365.990625" xlink:href="#md9a1c1a7cd" y="160.818125"/>
      </g>
     </g>
     <g id="text_13">
      <!-- 3 -->
      <g transform="translate(22.3921875 163.5775)scale(0.1 -0.1)">
       <use xlink:href="#BitstreamVeraSans-Roman-33"/>
      </g>
     </g>
    </g>
    <g id="ytick_5">
     <g id="line2d_41">
      <g>
       <use style="stroke:#000000;stroke-width:0.5;" x="31.190625" xlink:href="#md7965d1ba0" y="132.918125"/>
      </g>
     </g>
     <g id="line2d_42">
      <g>
       <use style="stroke:#000000;stroke-width:0.5;" x="365.990625" xlink:href="#md9a1c1a7cd" y="132.918125"/>
      </g>
     </g>
     <g id="text_14">
      <!-- 4 -->
      <defs>
       <path d="
M37.7969 64.3125
L12.8906 25.3906
L37.7969 25.3906
z

M35.2031 72.9062
L47.6094 72.9062
L47.6094 25.3906
L58.0156 25.3906
L58.0156 17.1875
L47.6094 17.1875
L47.6094 0
L37.7969 0
L37.7969 17.1875
L4.89062 17.1875
L4.89062 26.7031
z
" id="BitstreamVeraSans-Roman-34"/>
      </defs>
      <g transform="translate(21.878125 135.6775)scale(0.1 -0.1)">
       <use xlink:href="#BitstreamVeraSans-Roman-34"/>
      </g>
     </g>
    </g>
    <g id="ytick_6">
     <g id="line2d_43">
      <g>
       <use style="stroke:#000000;stroke-width:0.5;" x="31.190625" xlink:href="#md7965d1ba0" y="105.018125"/>
      </g>
     </g>
     <g id="line2d_44">
      <g>
       <use style="stroke:#000000;stroke-width:0.5;" x="365.990625" xlink:href="#md9a1c1a7cd" y="105.018125"/>
      </g>
     </g>
     <g id="text_15">
      <!-- 5 -->
      <g transform="translate(22.4734375 107.7775)scale(0.1 -0.1)">
       <use xlink:href="#BitstreamVeraSans-Roman-35"/>
      </g>
     </g>
    </g>
    <g id="ytick_7">
     <g id="line2d_45">
      <g>
       <use style="stroke:#000000;stroke-width:0.5;" x="31.190625" xlink:href="#md7965d1ba0" y="77.118125"/>
      </g>
     </g>
     <g id="line2d_46">
      <g>
       <use style="stroke:#000000;stroke-width:0.5;" x="365.990625" xlink:href="#md9a1c1a7cd" y="77.118125"/>
      </g>
     </g>
     <g id="text_16">
      <!-- 6 -->
      <defs>
       <path d="
M33.0156 40.375
Q26.375 40.375 22.4844 35.8281
Q18.6094 31.2969 18.6094 23.3906
Q18.6094 15.5312 22.4844 10.9531
Q26.375 6.39062 33.0156 6.39062
Q39.6562 6.39062 43.5312 10.9531
Q47.4062 15.5312 47.4062 23.3906
Q47.4062 31.2969 43.5312 35.8281
Q39.6562 40.375 33.0156 40.375
M52.5938 71.2969
L52.5938 62.3125
Q48.875 64.0625 45.0938 64.9844
Q41.3125 65.9219 37.5938 65.9219
Q27.8281 65.9219 22.6719 59.3281
Q17.5312 52.7344 16.7969 39.4062
Q19.6719 43.6562 24.0156 45.9219
Q28.375 48.1875 33.5938 48.1875
Q44.5781 48.1875 50.9531 41.5156
Q57.3281 34.8594 57.3281 23.3906
Q57.3281 12.1562 50.6875 5.35938
Q44.0469 -1.42188 33.0156 -1.42188
Q20.3594 -1.42188 13.6719 8.26562
Q6.98438 17.9688 6.98438 36.375
Q6.98438 53.6562 15.1875 63.9375
Q23.3906 74.2188 37.2031 74.2188
Q40.9219 74.2188 44.7031 73.4844
Q48.4844 72.75 52.5938 71.2969" id="BitstreamVeraSans-Roman-36"/>
      </defs>
      <g transform="translate(22.15625 79.8775)scale(0.1 -0.1)">
       <use xlink:href="#BitstreamVeraSans-Roman-36"/>
      </g>
     </g>
    </g>
    <g id="ytick_8">
     <g id="line2d_47">
      <g>
       <use style="stroke:#000000;stroke-width:0.5;" x="31.190625" xlink:href="#md7965d1ba0" y="49.218125"/>
      </g>
     </g>
     <g id="line2d_48">
      <g>
       <use style="stroke:#000000;stroke-width:0.5;" x="365.990625" xlink:href="#md9a1c1a7cd" y="49.218125"/>
      </g>
     </g>
     <g id="text_17">
      <!-- 7 -->
      <defs>
       <path d="
M8.20312 72.9062
L55.0781 72.9062
L55.0781 68.7031
L28.6094 0
L18.3125 0
L43.2188 64.5938
L8.20312 64.5938
z
" id="BitstreamVeraSans-Roman-37"/>
      </defs>
      <g transform="translate(22.503125 51.9775)scale(0.1 -0.1)">
       <use xlink:href="#BitstreamVeraSans-Roman-37"/>
      </g>
     </g>
    </g>
    <g id="ytick_9">
     <g id="line2d_49">
      <g>
       <use style="stroke:#000000;stroke-width:0.5;" x="31.190625" xlink:href="#md7965d1ba0" y="21.318125"/>
      </g>
     </g>
     <g id="line2d_50">
      <g>
       <use style="stroke:#000000;stroke-width:0.5;" x="365.990625" xlink:href="#md9a1c1a7cd" y="21.318125"/>
      </g>
     </g>
     <g id="text_18">
      <!-- 8 -->
      <defs>
       <path d="
M31.7812 34.625
Q24.75 34.625 20.7188 30.8594
Q16.7031 27.0938 16.7031 20.5156
Q16.7031 13.9219 20.7188 10.1562
Q24.75 6.39062 31.7812 6.39062
Q38.8125 6.39062 42.8594 10.1719
Q46.9219 13.9688 46.9219 20.5156
Q46.9219 27.0938 42.8906 30.8594
Q38.875 34.625 31.7812 34.625
M21.9219 38.8125
Q15.5781 40.375 12.0312 44.7188
Q8.5 49.0781 8.5 55.3281
Q8.5 64.0625 14.7188 69.1406
Q20.9531 74.2188 31.7812 74.2188
Q42.6719 74.2188 48.875 69.1406
Q55.0781 64.0625 55.0781 55.3281
Q55.0781 49.0781 51.5312 44.7188
Q48 40.375 41.7031 38.8125
Q48.8281 37.1562 52.7969 32.3125
Q56.7812 27.4844 56.7812 20.5156
Q56.7812 9.90625 50.3125 4.23438
Q43.8438 -1.42188 31.7812 -1.42188
Q19.7344 -1.42188 13.25 4.23438
Q6.78125 9.90625 6.78125 20.5156
Q6.78125 27.4844 10.7812 32.3125
Q14.7969 37.1562 21.9219 38.8125
M18.3125 54.3906
Q18.3125 48.7344 21.8438 45.5625
Q25.3906 42.3906 31.7812 42.3906
Q38.1406 42.3906 41.7188 45.5625
Q45.3125 48.7344 45.3125 54.3906
Q45.3125 60.0625 41.7188 63.2344
Q38.1406 66.4062 31.7812 66.4062
Q25.3906 66.4062 21.8438 63.2344
Q18.3125 60.0625 18.3125 54.3906" id="BitstreamVeraSans-Roman-38"/>
      </defs>
      <g transform="translate(22.190625 24.0775)scale(0.1 -0.1)">
       <use xlink:href="#BitstreamVeraSans-Roman-38"/>
      </g>
     </g>
    </g>
    <g id="text_19">
     <!-- PET (mm/day) -->
     <defs>
      <path d="
M52 44.1875
Q55.375 50.25 60.0625 53.125
Q64.75 56 71.0938 56
Q79.6406 56 84.2812 50.0156
Q88.9219 44.0469 88.9219 33.0156
L88.9219 0
L79.8906 0
L79.8906 32.7188
Q79.8906 40.5781 77.0938 44.375
Q74.3125 48.1875 68.6094 48.1875
Q61.625 48.1875 57.5625 43.5469
Q53.5156 38.9219 53.5156 30.9062
L53.5156 0
L44.4844 0
L44.4844 32.7188
Q44.4844 40.625 41.7031 44.4062
Q38.9219 48.1875 33.1094 48.1875
Q26.2188 48.1875 22.1562 43.5312
Q18.1094 38.875 18.1094 30.9062
L18.1094 0
L9.07812 0
L9.07812 54.6875
L18.1094 54.6875
L18.1094 46.1875
Q21.1875 51.2188 25.4844 53.6094
Q29.7812 56 35.6875 56
Q41.6562 56 45.8281 52.9688
Q50 49.9531 52 44.1875" id="BitstreamVeraSans-Roman-6d"/>
      <path d="
M19.6719 64.7969
L19.6719 37.4062
L32.0781 37.4062
Q38.9688 37.4062 42.7188 40.9688
Q46.4844 44.5312 46.4844 51.125
Q46.4844 57.6719 42.7188 61.2344
Q38.9688 64.7969 32.0781 64.7969
z

M9.8125 72.9062
L32.0781 72.9062
Q44.3438 72.9062 50.6094 67.3594
Q56.8906 61.8125 56.8906 51.125
Q56.8906 40.3281 50.6094 34.8125
Q44.3438 29.2969 32.0781 29.2969
L19.6719 29.2969
L19.6719 0
L9.8125 0
z
" id="BitstreamVeraSans-Roman-50"/>
      <path d="
M25.3906 72.9062
L33.6875 72.9062
L8.29688 -9.28125
L0 -9.28125
z
" id="BitstreamVeraSans-Roman-2f"/>
      <path d="
M-0.296875 72.9062
L61.375 72.9062
L61.375 64.5938
L35.5 64.5938
L35.5 0
L25.5938 0
L25.5938 64.5938
L-0.296875 64.5938
z
" id="BitstreamVeraSans-Roman-54"/>
      <path d="
M8.01562 75.875
L15.8281 75.875
Q23.1406 64.3594 26.7812 53.3125
Q30.4219 42.2812 30.4219 31.3906
Q30.4219 20.4531 26.7812 9.375
Q23.1406 -1.70312 15.8281 -13.1875
L8.01562 -13.1875
Q14.5 -2 17.7031 9.0625
Q20.9062 20.125 20.9062 31.3906
Q20.9062 42.6719 17.7031 53.6562
Q14.5 64.6562 8.01562 75.875" id="BitstreamVeraSans-Roman-29"/>
      <path d="
M31 75.875
Q24.4688 64.6562 21.2812 53.6562
Q18.1094 42.6719 18.1094 31.3906
Q18.1094 20.125 21.3125 9.0625
Q24.5156 -2 31 -13.1875
L23.1875 -13.1875
Q15.875 -1.70312 12.2344 9.375
Q8.59375 20.4531 8.59375 31.3906
Q8.59375 42.2812 12.2031 53.3125
Q15.8281 64.3594 23.1875 75.875
z
" id="BitstreamVeraSans-Roman-28"/>
      <path d="
M9.8125 72.9062
L55.9062 72.9062
L55.9062 64.5938
L19.6719 64.5938
L19.6719 43.0156
L54.3906 43.0156
L54.3906 34.7188
L19.6719 34.7188
L19.6719 8.29688
L56.7812 8.29688
L56.7812 0
L9.8125 0
z
" id="BitstreamVeraSans-Roman-45"/>
     </defs>
     <g transform="translate(14.7984375 167.82984375)rotate(-90.0)scale(0.1 -0.1)">
      <use xlink:href="#BitstreamVeraSans-Roman-50"/>
      <use x="60.302734375" xlink:href="#BitstreamVeraSans-Roman-45"/>
      <use x="123.486328125" xlink:href="#BitstreamVeraSans-Roman-54"/>
      <use x="184.5703125" xlink:href="#BitstreamVeraSans-Roman-20"/>
      <use x="216.357421875" xlink:href="#BitstreamVeraSans-Roman-28"/>
      <use x="255.37109375" xlink:href="#BitstreamVeraSans-Roman-6d"/>
      <use x="352.783203125" xlink:href="#BitstreamVeraSans-Roman-6d"/>
      <use x="450.1953125" xlink:href="#BitstreamVeraSans-Roman-2f"/>
      <use x="483.88671875" xlink:href="#BitstreamVeraSans-Roman-64"/>
      <use x="547.36328125" xlink:href="#BitstreamVeraSans-Roman-61"/>
      <use x="608.642578125" xlink:href="#BitstreamVeraSans-Roman-79"/>
      <use x="667.822265625" xlink:href="#BitstreamVeraSans-Roman-29"/>
     </g>
    </g>
   </g>
   <g id="text_20">
    <!-- daily shrub PET at Treeline -->
    <defs>
     <path d="
M54.8906 33.0156
L54.8906 0
L45.9062 0
L45.9062 32.7188
Q45.9062 40.4844 42.875 44.3281
Q39.8438 48.1875 33.7969 48.1875
Q26.5156 48.1875 22.3125 43.5469
Q18.1094 38.9219 18.1094 30.9062
L18.1094 0
L9.07812 0
L9.07812 75.9844
L18.1094 75.9844
L18.1094 46.1875
Q21.3438 51.125 25.7031 53.5625
Q30.0781 56 35.7969 56
Q45.2188 56 50.0469 50.1719
Q54.8906 44.3438 54.8906 33.0156" id="BitstreamVeraSans-Roman-68"/>
     <path d="
M44.2812 53.0781
L44.2812 44.5781
Q40.4844 46.5312 36.375 47.5
Q32.2812 48.4844 27.875 48.4844
Q21.1875 48.4844 17.8438 46.4375
Q14.5 44.3906 14.5 40.2812
Q14.5 37.1562 16.8906 35.375
Q19.2812 33.5938 26.5156 31.9844
L29.5938 31.2969
Q39.1562 29.25 43.1875 25.5156
Q47.2188 21.7812 47.2188 15.0938
Q47.2188 7.46875 41.1875 3.01562
Q35.1562 -1.42188 24.6094 -1.42188
Q20.2188 -1.42188 15.4531 -0.5625
Q10.6875 0.296875 5.42188 2
L5.42188 11.2812
Q10.4062 8.6875 15.2344 7.39062
Q20.0625 6.10938 24.8125 6.10938
Q31.1562 6.10938 34.5625 8.28125
Q37.9844 10.4531 37.9844 14.4062
Q37.9844 18.0625 35.5156 20.0156
Q33.0625 21.9688 24.7031 23.7812
L21.5781 24.5156
Q13.2344 26.2656 9.51562 29.9062
Q5.8125 33.5469 5.8125 39.8906
Q5.8125 47.6094 11.2812 51.7969
Q16.75 56 26.8125 56
Q31.7812 56 36.1719 55.2656
Q40.5781 54.5469 44.2812 53.0781" id="BitstreamVeraSans-Roman-73"/>
     <path d="
M56.2031 29.5938
L56.2031 25.2031
L14.8906 25.2031
Q15.4844 15.9219 20.4844 11.0625
Q25.4844 6.20312 34.4219 6.20312
Q39.5938 6.20312 44.4531 7.46875
Q49.3125 8.73438 54.1094 11.2812
L54.1094 2.78125
Q49.2656 0.734375 44.1875 -0.34375
Q39.1094 -1.42188 33.8906 -1.42188
Q20.7969 -1.42188 13.1562 6.1875
Q5.51562 13.8125 5.51562 26.8125
Q5.51562 40.2344 12.7656 48.1094
Q20.0156 56 32.3281 56
Q43.3594 56 49.7812 48.8906
Q56.2031 41.7969 56.2031 29.5938
M47.2188 32.2344
Q47.125 39.5938 43.0938 43.9844
Q39.0625 48.3906 32.4219 48.3906
Q24.9062 48.3906 20.3906 44.1406
Q15.875 39.8906 15.1875 32.1719
z
" id="BitstreamVeraSans-Roman-65"/>
     <path d="
M48.6875 27.2969
Q48.6875 37.2031 44.6094 42.8438
Q40.5312 48.4844 33.4062 48.4844
Q26.2656 48.4844 22.1875 42.8438
Q18.1094 37.2031 18.1094 27.2969
Q18.1094 17.3906 22.1875 11.75
Q26.2656 6.10938 33.4062 6.10938
Q40.5312 6.10938 44.6094 11.75
Q48.6875 17.3906 48.6875 27.2969
M18.1094 46.3906
Q20.9531 51.2656 25.2656 53.625
Q29.5938 56 35.5938 56
Q45.5625 56 51.7812 48.0938
Q58.0156 40.1875 58.0156 27.2969
Q58.0156 14.4062 51.7812 6.48438
Q45.5625 -1.42188 35.5938 -1.42188
Q29.5938 -1.42188 25.2656 0.953125
Q20.9531 3.32812 18.1094 8.20312
L18.1094 0
L9.07812 0
L9.07812 75.9844
L18.1094 75.9844
z
" id="BitstreamVeraSans-Roman-62"/>
     <path d="
M18.3125 70.2188
L18.3125 54.6875
L36.8125 54.6875
L36.8125 47.7031
L18.3125 47.7031
L18.3125 18.0156
Q18.3125 11.3281 20.1406 9.42188
Q21.9688 7.51562 27.5938 7.51562
L36.8125 7.51562
L36.8125 0
L27.5938 0
Q17.1875 0 13.2344 3.875
Q9.28125 7.76562 9.28125 18.0156
L9.28125 47.7031
L2.6875 47.7031
L2.6875 54.6875
L9.28125 54.6875
L9.28125 70.2188
z
" id="BitstreamVeraSans-Roman-74"/>
     <path d="
M41.1094 46.2969
Q39.5938 47.1719 37.8125 47.5781
Q36.0312 48 33.8906 48
Q26.2656 48 22.1875 43.0469
Q18.1094 38.0938 18.1094 28.8125
L18.1094 0
L9.07812 0
L9.07812 54.6875
L18.1094 54.6875
L18.1094 46.1875
Q20.9531 51.1719 25.4844 53.5781
Q30.0312 56 36.5312 56
Q37.4531 56 38.5781 55.875
Q39.7031 55.7656 41.0625 55.5156
z
" id="BitstreamVeraSans-Roman-72"/>
    </defs>
    <g transform="translate(119.4796875 16.318125)scale(0.12 -0.12)">
     <use xlink:href="#BitstreamVeraSans-Roman-64"/>
     <use x="63.4765625" xlink:href="#BitstreamVeraSans-Roman-61"/>
     <use x="124.755859375" xlink:href="#BitstreamVeraSans-Roman-69"/>
     <use x="152.5390625" xlink:href="#BitstreamVeraSans-Roman-6c"/>
     <use x="180.322265625" xlink:href="#BitstreamVeraSans-Roman-79"/>
     <use x="239.501953125" xlink:href="#BitstreamVeraSans-Roman-20"/>
     <use x="271.2890625" xlink:href="#BitstreamVeraSans-Roman-73"/>
     <use x="323.388671875" xlink:href="#BitstreamVeraSans-Roman-68"/>
     <use x="386.767578125" xlink:href="#BitstreamVeraSans-Roman-72"/>
     <use x="427.880859375" xlink:href="#BitstreamVeraSans-Roman-75"/>
     <use x="491.259765625" xlink:href="#BitstreamVeraSans-Roman-62"/>
     <use x="554.736328125" xlink:href="#BitstreamVeraSans-Roman-20"/>
     <use x="586.5234375" xlink:href="#BitstreamVeraSans-Roman-50"/>
     <use x="646.826171875" xlink:href="#BitstreamVeraSans-Roman-45"/>
     <use x="710.009765625" xlink:href="#BitstreamVeraSans-Roman-54"/>
     <use x="771.09375" xlink:href="#BitstreamVeraSans-Roman-20"/>
     <use x="802.880859375" xlink:href="#BitstreamVeraSans-Roman-61"/>
     <use x="864.16015625" xlink:href="#BitstreamVeraSans-Roman-74"/>
     <use x="903.369140625" xlink:href="#BitstreamVeraSans-Roman-20"/>
     <use x="935.15625" xlink:href="#BitstreamVeraSans-Roman-54"/>
     <use x="981.490234375" xlink:href="#BitstreamVeraSans-Roman-72"/>
     <use x="1020.353515625" xlink:href="#BitstreamVeraSans-Roman-65"/>
     <use x="1081.876953125" xlink:href="#BitstreamVeraSans-Roman-65"/>
     <use x="1143.400390625" xlink:href="#BitstreamVeraSans-Roman-6c"/>
     <use x="1171.18359375" xlink:href="#BitstreamVeraSans-Roman-69"/>
     <use x="1198.966796875" xlink:href="#BitstreamVeraSans-Roman-6e"/>
     <use x="1262.345703125" xlink:href="#BitstreamVeraSans-Roman-65"/>
    </g>
   </g>
   <g id="legend_1">
    <g id="patch_7">
     <path d="
M287.803 312.738
L359.991 312.738
L359.991 27.3181
L287.803 27.3181
z
" style="fill:#ffffff;stroke:#000000;stroke-linejoin:miter;"/>
    </g>
    <g id="line2d_51">
     <path d="
M296.203 37.0363
L313.003 37.0363" style="fill:none;stroke:#0000ff;stroke-linecap:square;"/>
    </g>
    <g id="line2d_52"/>
    <g id="text_21">
     <!-- 1999 -->
     <defs>
      <path d="
M10.9844 1.51562
L10.9844 10.5
Q14.7031 8.73438 18.5 7.8125
Q22.3125 6.89062 25.9844 6.89062
Q35.75 6.89062 40.8906 13.4531
Q46.0469 20.0156 46.7812 33.4062
Q43.9531 29.2031 39.5938 26.9531
Q35.25 24.7031 29.9844 24.7031
Q19.0469 24.7031 12.6719 31.3125
Q6.29688 37.9375 6.29688 49.4219
Q6.29688 60.6406 12.9375 67.4219
Q19.5781 74.2188 30.6094 74.2188
Q43.2656 74.2188 49.9219 64.5156
Q56.5938 54.8281 56.5938 36.375
Q56.5938 19.1406 48.4062 8.85938
Q40.2344 -1.42188 26.4219 -1.42188
Q22.7031 -1.42188 18.8906 -0.6875
Q15.0938 0.046875 10.9844 1.51562
M30.6094 32.4219
Q37.25 32.4219 41.125 36.9531
Q45.0156 41.5 45.0156 49.4219
Q45.0156 57.2812 41.125 61.8438
Q37.25 66.4062 30.6094 66.4062
Q23.9688 66.4062 20.0938 61.8438
Q16.2188 57.2812 16.2188 49.4219
Q16.2188 41.5 20.0938 36.9531
Q23.9688 32.4219 30.6094 32.4219" id="BitstreamVeraSans-Roman-39"/>
     </defs>
     <g transform="translate(326.203125 41.23625)scale(0.12 -0.12)">
      <use xlink:href="#BitstreamVeraSans-Roman-31"/>
      <use x="63.623046875" xlink:href="#BitstreamVeraSans-Roman-39"/>
      <use x="127.24609375" xlink:href="#BitstreamVeraSans-Roman-39"/>
      <use x="190.869140625" xlink:href="#BitstreamVeraSans-Roman-39"/>
     </g>
    </g>
    <g id="line2d_53">
     <path d="
M296.203 54.65
L313.003 54.65" style="fill:none;stroke:#008000;stroke-linecap:square;"/>
    </g>
    <g id="line2d_54"/>
    <g id="text_22">
     <!-- 2000 -->
     <g transform="translate(326.203125 58.85)scale(0.12 -0.12)">
      <use xlink:href="#BitstreamVeraSans-Roman-32"/>
      <use x="63.623046875" xlink:href="#BitstreamVeraSans-Roman-30"/>
      <use x="127.24609375" xlink:href="#BitstreamVeraSans-Roman-30"/>
      <use x="190.869140625" xlink:href="#BitstreamVeraSans-Roman-30"/>
     </g>
    </g>
    <g id="line2d_55">
     <path d="
M296.203 72.2638
L313.003 72.2638" style="fill:none;stroke:#ff0000;stroke-linecap:square;"/>
    </g>
    <g id="line2d_56"/>
    <g id="text_23">
     <!-- 2001 -->
     <g transform="translate(326.203125 76.46375)scale(0.12 -0.12)">
      <use xlink:href="#BitstreamVeraSans-Roman-32"/>
      <use x="63.623046875" xlink:href="#BitstreamVeraSans-Roman-30"/>
      <use x="127.24609375" xlink:href="#BitstreamVeraSans-Roman-30"/>
      <use x="190.869140625" xlink:href="#BitstreamVeraSans-Roman-31"/>
     </g>
    </g>
    <g id="line2d_57">
     <path d="
M296.203 89.8775
L313.003 89.8775" style="fill:none;stroke:#00bfbf;stroke-linecap:square;"/>
    </g>
    <g id="line2d_58"/>
    <g id="text_24">
     <!-- 2002 -->
     <g transform="translate(326.203125 94.0775)scale(0.12 -0.12)">
      <use xlink:href="#BitstreamVeraSans-Roman-32"/>
      <use x="63.623046875" xlink:href="#BitstreamVeraSans-Roman-30"/>
      <use x="127.24609375" xlink:href="#BitstreamVeraSans-Roman-30"/>
      <use x="190.869140625" xlink:href="#BitstreamVeraSans-Roman-32"/>
     </g>
    </g>
    <g id="line2d_59">
     <path d="
M296.203 107.491
L313.003 107.491" style="fill:none;stroke:#bf00bf;stroke-linecap:square;"/>
    </g>
    <g id="line2d_60"/>
    <g id="text_25">
     <!-- 2003 -->
     <g transform="translate(326.203125 111.69125)scale(0.12 -0.12)">
      <use xlink:href="#BitstreamVeraSans-Roman-32"/>
      <use x="63.623046875" xlink:href="#BitstreamVeraSans-Roman-30"/>
      <use x="127.24609375" xlink:href="#BitstreamVeraSans-Roman-30"/>
      <use x="190.869140625" xlink:href="#BitstreamVeraSans-Roman-33"/>
     </g>
    </g>
    <g id="line2d_61">
     <path d="
M296.203 125.105
L313.003 125.105" style="fill:none;stroke:#bfbf00;stroke-linecap:square;"/>
    </g>
    <g id="line2d_62"/>
    <g id="text_26">
     <!-- 2004 -->
     <g transform="translate(326.203125 129.305)scale(0.12 -0.12)">
      <use xlink:href="#BitstreamVeraSans-Roman-32"/>
      <use x="63.623046875" xlink:href="#BitstreamVeraSans-Roman-30"/>
      <use x="127.24609375" xlink:href="#BitstreamVeraSans-Roman-30"/>
      <use x="190.869140625" xlink:href="#BitstreamVeraSans-Roman-34"/>
     </g>
    </g>
    <g id="line2d_63">
     <path d="
M296.203 142.719
L313.003 142.719" style="fill:none;stroke:#000000;stroke-linecap:square;"/>
    </g>
    <g id="line2d_64"/>
    <g id="text_27">
     <!-- 2005 -->
     <g transform="translate(326.203125 146.91875)scale(0.12 -0.12)">
      <use xlink:href="#BitstreamVeraSans-Roman-32"/>
      <use x="63.623046875" xlink:href="#BitstreamVeraSans-Roman-30"/>
      <use x="127.24609375" xlink:href="#BitstreamVeraSans-Roman-30"/>
      <use x="190.869140625" xlink:href="#BitstreamVeraSans-Roman-35"/>
     </g>
    </g>
    <g id="line2d_65">
     <path d="
M296.203 160.333
L313.003 160.333" style="fill:none;stroke:#0000ff;stroke-linecap:square;"/>
    </g>
    <g id="line2d_66"/>
    <g id="text_28">
     <!-- 2006 -->
     <g transform="translate(326.203125 164.5325)scale(0.12 -0.12)">
      <use xlink:href="#BitstreamVeraSans-Roman-32"/>
      <use x="63.623046875" xlink:href="#BitstreamVeraSans-Roman-30"/>
      <use x="127.24609375" xlink:href="#BitstreamVeraSans-Roman-30"/>
      <use x="190.869140625" xlink:href="#BitstreamVeraSans-Roman-36"/>
     </g>
    </g>
    <g id="line2d_67">
     <path d="
M296.203 177.946
L313.003 177.946" style="fill:none;stroke:#008000;stroke-linecap:square;"/>
    </g>
    <g id="line2d_68"/>
    <g id="text_29">
     <!-- 2007 -->
     <g transform="translate(326.203125 182.14625)scale(0.12 -0.12)">
      <use xlink:href="#BitstreamVeraSans-Roman-32"/>
      <use x="63.623046875" xlink:href="#BitstreamVeraSans-Roman-30"/>
      <use x="127.24609375" xlink:href="#BitstreamVeraSans-Roman-30"/>
      <use x="190.869140625" xlink:href="#BitstreamVeraSans-Roman-37"/>
     </g>
    </g>
    <g id="line2d_69">
     <path d="
M296.203 195.56
L313.003 195.56" style="fill:none;stroke:#ff0000;stroke-linecap:square;"/>
    </g>
    <g id="line2d_70"/>
    <g id="text_30">
     <!-- 2008 -->
     <g transform="translate(326.203125 199.76)scale(0.12 -0.12)">
      <use xlink:href="#BitstreamVeraSans-Roman-32"/>
      <use x="63.623046875" xlink:href="#BitstreamVeraSans-Roman-30"/>
      <use x="127.24609375" xlink:href="#BitstreamVeraSans-Roman-30"/>
      <use x="190.869140625" xlink:href="#BitstreamVeraSans-Roman-38"/>
     </g>
    </g>
    <g id="line2d_71">
     <path d="
M296.203 213.174
L313.003 213.174" style="fill:none;stroke:#00bfbf;stroke-linecap:square;"/>
    </g>
    <g id="line2d_72"/>
    <g id="text_31">
     <!-- 2009 -->
     <g transform="translate(326.203125 217.37375)scale(0.12 -0.12)">
      <use xlink:href="#BitstreamVeraSans-Roman-32"/>
      <use x="63.623046875" xlink:href="#BitstreamVeraSans-Roman-30"/>
      <use x="127.24609375" xlink:href="#BitstreamVeraSans-Roman-30"/>
      <use x="190.869140625" xlink:href="#BitstreamVeraSans-Roman-39"/>
     </g>
    </g>
    <g id="line2d_73">
     <path d="
M296.203 230.788
L313.003 230.788" style="fill:none;stroke:#bf00bf;stroke-linecap:square;"/>
    </g>
    <g id="line2d_74"/>
    <g id="text_32">
     <!-- 2010 -->
     <g transform="translate(326.203125 234.9875)scale(0.12 -0.12)">
      <use xlink:href="#BitstreamVeraSans-Roman-32"/>
      <use x="63.623046875" xlink:href="#BitstreamVeraSans-Roman-30"/>
      <use x="127.24609375" xlink:href="#BitstreamVeraSans-Roman-31"/>
      <use x="190.869140625" xlink:href="#BitstreamVeraSans-Roman-30"/>
     </g>
    </g>
    <g id="line2d_75">
     <path d="
M296.203 248.401
L313.003 248.401" style="fill:none;stroke:#bfbf00;stroke-linecap:square;"/>
    </g>
    <g id="line2d_76"/>
    <g id="text_33">
     <!-- 2011 -->
     <g transform="translate(326.203125 252.60125)scale(0.12 -0.12)">
      <use xlink:href="#BitstreamVeraSans-Roman-32"/>
      <use x="63.623046875" xlink:href="#BitstreamVeraSans-Roman-30"/>
      <use x="127.24609375" xlink:href="#BitstreamVeraSans-Roman-31"/>
      <use x="190.869140625" xlink:href="#BitstreamVeraSans-Roman-31"/>
     </g>
    </g>
    <g id="line2d_77">
     <path d="
M296.203 266.015
L313.003 266.015" style="fill:none;stroke:#000000;stroke-linecap:square;"/>
    </g>
    <g id="line2d_78"/>
    <g id="text_34">
     <!-- 2012 -->
     <g transform="translate(326.203125 270.215)scale(0.12 -0.12)">
      <use xlink:href="#BitstreamVeraSans-Roman-32"/>
      <use x="63.623046875" xlink:href="#BitstreamVeraSans-Roman-30"/>
      <use x="127.24609375" xlink:href="#BitstreamVeraSans-Roman-31"/>
      <use x="190.869140625" xlink:href="#BitstreamVeraSans-Roman-32"/>
     </g>
    </g>
    <g id="line2d_79">
     <path d="
M296.203 283.629
L313.003 283.629" style="fill:none;stroke:#0000ff;stroke-linecap:square;"/>
    </g>
    <g id="line2d_80"/>
    <g id="text_35">
     <!-- 2013 -->
     <g transform="translate(326.203125 287.82875)scale(0.12 -0.12)">
      <use xlink:href="#BitstreamVeraSans-Roman-32"/>
      <use x="63.623046875" xlink:href="#BitstreamVeraSans-Roman-30"/>
      <use x="127.24609375" xlink:href="#BitstreamVeraSans-Roman-31"/>
      <use x="190.869140625" xlink:href="#BitstreamVeraSans-Roman-33"/>
     </g>
    </g>
    <g id="line2d_81">
     <path d="
M296.203 301.243
L313.003 301.243" style="fill:none;stroke:#008000;stroke-linecap:square;"/>
    </g>
    <g id="line2d_82"/>
    <g id="text_36">
     <!-- 2014 -->
     <g transform="translate(326.203125 305.4425)scale(0.12 -0.12)">
      <use xlink:href="#BitstreamVeraSans-Roman-32"/>
      <use x="63.623046875" xlink:href="#BitstreamVeraSans-Roman-30"/>
      <use x="127.24609375" xlink:href="#BitstreamVeraSans-Roman-31"/>
      <use x="190.869140625" xlink:href="#BitstreamVeraSans-Roman-34"/>
     </g>
    </g>
   </g>
  </g>
 </g>
 <defs>
  <clipPath id="p95a2ee5e18">
   <rect height="223.2" width="334.8" x="31.190625" y="21.318125"/>
  </clipPath>
 </defs>
</svg>
