<?xml version="1.0" encoding="utf-8" standalone="no"?>
<!DOCTYPE svg PUBLIC "-//W3C//DTD SVG 1.1//EN"
  "http://www.w3.org/Graphics/SVG/1.1/DTD/svg11.dtd">
<!-- Created with matplotlib (http://matplotlib.org/) -->
<svg height="319pt" version="1.1" viewBox="0 0 378 319" width="378pt" xmlns="http://www.w3.org/2000/svg" xmlns:xlink="http://www.w3.org/1999/xlink">
 <defs>
  <style type="text/css">
*{stroke-linecap:butt;stroke-linejoin:round;}
  </style>
 </defs>
 <g id="figure_1">
  <g id="patch_1">
   <path d="
M0 319.938
L378.841 319.938
L378.841 0
L0 0
z
" style="fill:#ffffff;"/>
  </g>
  <g id="axes_1">
   <g id="patch_2">
    <path d="
M36.8406 244.518
L371.641 244.518
L371.641 21.3181
L36.8406 21.3181
z
" style="fill:#ffffff;"/>
   </g>
   <g id="line2d_1">
    <path clip-path="url(#pd0c402dd48)" d="
M0 0" style="fill:none;stroke:#0000ff;stroke-linecap:square;"/>
   </g>
   <g id="line2d_2">
    <path clip-path="url(#pd0c402dd48)" d="
M0 0" style="fill:none;stroke:#008000;stroke-linecap:square;"/>
   </g>
   <g id="line2d_3">
    <path clip-path="url(#pd0c402dd48)" d="
M0 0" style="fill:none;stroke:#ff0000;stroke-linecap:square;"/>
   </g>
   <g id="line2d_4">
    <path clip-path="url(#pd0c402dd48)" d="
M0 0" style="fill:none;stroke:#00bfbf;stroke-linecap:square;"/>
   </g>
   <g id="line2d_5">
    <path clip-path="url(#pd0c402dd48)" d="
M0 0" style="fill:none;stroke:#bf00bf;stroke-linecap:square;"/>
   </g>
   <g id="line2d_6">
    <path clip-path="url(#pd0c402dd48)" d="
M0 0" style="fill:none;stroke:#bfbf00;stroke-linecap:square;"/>
   </g>
   <g id="line2d_7">
    <path clip-path="url(#pd0c402dd48)" d="
M0 0" style="fill:none;stroke:#000000;stroke-linecap:square;"/>
   </g>
   <g id="line2d_8">
    <path clip-path="url(#pd0c402dd48)" d="
M0 0" style="fill:none;stroke:#0000ff;stroke-linecap:square;"/>
   </g>
   <g id="line2d_9">
    <path clip-path="url(#pd0c402dd48)" d="
M0 0" style="fill:none;stroke:#008000;stroke-linecap:square;"/>
   </g>
   <g id="line2d_10">
    <path clip-path="url(#pd0c402dd48)" d="
M36.8406 199.735
L37.7579 180.172
L38.6751 178.346
L39.5924 221.633
L40.5097 232.764
L41.4269 235.251
L42.3442 238.147
L43.2614 236.131
L44.1787 225.713
L45.096 232.662
M46.9305 232.788
L47.8477 232.799
L48.765 223.188
L50.5995 217.716
L51.5168 221.046
L52.434 222.047
L53.3513 212.661
L54.2686 239.648
L55.1858 240.324
L56.1031 226.103
L57.0204 214.422
L57.9376 214.85
L58.8549 226.446
L59.7721 221.385
L60.6894 222.361
L61.6067 231.87
L62.5239 237.671
M64.3584 243.577
L65.2757 236.215
L66.193 234.539
M68.0275 229.568
L68.9447 226.184
L69.862 230.126
L70.7793 242.05
L71.6965 218.708
L72.6138 227.214
L73.531 210.197
L74.4483 217.955
L75.3656 215.275
L76.2828 226.583
L77.2001 211.916
L78.1173 213.989
L79.0346 214.681
L79.9519 199.184
L80.8691 205.568
L81.7864 210.147
L83.6209 224.675
L84.5382 238.204
L85.4554 225.224
L86.3727 228.821
L87.2899 240.289
L88.2072 215.281
L89.1245 219.341
L90.0417 211.45
L90.959 207.514
L91.8762 223.427
L92.7935 229.067
L93.7108 214.421
L94.628 221.012
L95.5453 206.758
L96.4625 195.424
L97.3798 195.215
L98.2971 218.746
L99.2143 208.199
L100.132 204.154
L101.049 192.282
L101.966 184.473
L102.883 227.387
L103.801 233.228
L104.718 220.244
L105.635 221.331
L106.552 208.498
L107.47 240.059
L108.387 233.161
L110.221 196.887
L111.139 190.254
L112.056 189.322
L112.973 218.306
L113.89 220.764
L114.808 237.269
L115.725 209.216
L116.642 225.753
L117.56 212.417
L118.477 207
L119.394 213.635
L120.311 176.933
L121.229 176.471
L122.146 173.342
L123.063 208.014
L123.98 201.91
L125.815 224.591
L126.732 195.557
L127.649 209.335
L128.567 215.031
L129.484 188.735
L130.401 174.477
L131.318 176.181
L132.236 202.575
L133.153 214.7
L134.07 209.217
L135.905 164.701
L136.822 187.656
L137.739 206.622
L138.657 202.786
L139.574 174.902
L140.491 203.48
L141.408 207.932
L142.326 176.054
L143.243 153.792
L144.16 139.969
L145.077 140.196
L145.995 204.663
L146.912 189.048
L147.829 193.28
L148.746 159.916
L149.664 138.98
L150.581 143.236
L151.498 155.583
L153.333 201.224
L154.25 184.96
L155.167 177.965
L156.084 162.553
L157.002 172.97
L157.919 172.677
L158.836 180.608
L159.754 207.535
L160.671 167.288
L161.588 161.561
L162.505 153.002
L163.423 174.623
L164.34 181.446
L165.257 218.861
L166.174 218.839
L167.092 215.435
L168.009 219.521
L168.926 174.379
L169.843 197.275
L170.761 212.166
L171.678 213.489
L172.595 198.107
L173.512 201.178
L174.43 194.244
L175.347 188.927
L176.264 211.875
L177.181 177.549
L178.099 223.275
L179.016 206.675
L179.933 183.121
L180.85 175.808
L181.768 192.458
L182.685 159.134
L184.52 197.432
L185.437 207.113
L186.354 181.023
L187.271 141.837
L188.189 136.517
L190.023 165.804
L190.94 169.888
L191.858 174.987
L192.775 179.327
L193.692 179.001
L194.609 191.701
L195.527 182.865
L196.444 182.928
L197.361 187.409
L198.278 172.015
L199.196 179.36
L201.03 178.488
L201.947 173.116
L202.865 185.26
L203.782 200.125
L204.699 189.257
L205.617 185.139
L206.534 187.51
L207.451 192.614
L208.368 190.681
L209.286 186.382
L210.203 178.346
L211.12 178.559
L212.037 174.089
L212.955 179.903
L213.872 181.312
L214.789 180.25
L215.706 167.919
L217.541 185.521
L218.458 185.645
L219.375 184.421
L221.21 178.73
L222.127 192.685
L223.044 210.648
L223.962 194.434
L224.879 187.561
L225.796 171.336
L226.714 179.313
L227.631 181.871
L229.465 199.7
L230.383 188.78
L231.3 181.765
L232.217 186.775
L233.134 180.594
L234.052 186.691
L234.969 184.652
L235.886 188.147
L236.803 193.347
L237.721 194.106
L238.638 206.507
L239.555 196.951
L240.472 192.807
L241.39 192.184
L242.307 187.412
L243.224 179.223
L244.141 177.887
L245.059 186.889
L245.976 187.034
L246.893 187.511
L247.81 192.636
L248.728 203.495
L249.645 199.963
L250.562 208.673
L251.48 188.404
L252.397 182.738
L253.314 173.532
L254.231 183.576
L255.149 200.72
L256.066 195.927
L256.983 195.979
L257.9 173.242
L260.652 209.837
L261.569 197.826
L262.487 171.047
L263.404 165.926
L264.321 182.325
L265.238 188.125
L266.156 184.488
L267.073 183.534
L267.99 183.943
L269.825 189.048
L270.742 188.705
L271.659 182.609
L272.577 179.418
L273.494 183.12
L275.328 187.841
L276.246 191.349
L277.163 205.131
L278.08 226.427
L278.997 233.196
L279.915 216.186
L280.832 190.22
L281.749 169.204
L282.666 175.951
L283.584 176.709
L284.501 190.178
L285.418 188.243
L286.335 186.845
L287.253 192.933
L288.17 191.913
L289.087 211.462
L290.004 216.639
L290.922 238.281
L291.839 227.451
L292.756 205.044
L293.674 199.045
L294.591 186.691
L295.508 198.551
L296.425 238.735
L297.343 227.728
L298.26 201.235
L299.177 180.308
L300.094 184.557
L301.929 187.565
L302.846 194.905
L303.763 189.203
L304.681 198.424
L305.598 202.549
L306.515 213.416
L307.432 193.075
L308.35 187.969
L309.267 178.114
L310.184 188.506
L311.101 191.149
L312.019 183.61
L312.936 190.846
L313.853 194.211
L314.77 196.842
L316.605 229.527
L317.522 238.252
L318.44 240.324
L319.357 240.256
L320.274 227.025
L321.191 229.418
L322.109 218.745
L323.026 218.155
L323.943 237.07
L324.86 234.279
L325.778 241.738
L326.695 225.237
L327.612 217.78
L328.529 197.989
L329.447 200.729
L330.364 197.397
L331.281 184.823
L332.198 189.765
L334.033 220.973
L334.95 216.945
L335.867 224.399
L336.785 230.281
L337.702 198.037
L338.619 199.49
L339.537 209.741
L340.454 207.695
L342.288 234.958
L343.206 229.249
L344.123 208.405
L345.04 229.992
L345.957 239.987
L346.875 215.048
L347.792 205.998
L348.709 194.044
L349.626 215.641
L350.544 231.822
L352.378 201.525
L354.213 230.442
L355.13 242.975
L356.047 242.792
L356.964 233.731
L357.882 232.423
L358.799 225.645
L359.716 217.486
L360.634 237.679
L361.551 224.184
L362.468 234.06
L363.385 240.9
L365.22 233.433
M367.054 233.821
L367.972 242.027
L368.889 242.84
L369.806 222.764
L370.723 205.772
L370.723 205.772" style="fill:none;stroke:#ff0000;stroke-linecap:square;"/>
   </g>
   <g id="line2d_11">
    <path clip-path="url(#pd0c402dd48)" d="
M36.8406 238.021
L37.7579 222.944
L38.6751 225.773
L39.5924 209.43
L40.5097 221.396
L41.4269 242.054
L42.3442 228.329
L43.2614 218.442
L44.1787 234.204
L45.096 216.563
L46.0132 225.478
L46.9305 232.666
L47.8477 224.378
L48.765 205.495
L49.6823 212.476
L50.5995 210.233
L51.5168 224.242
L52.434 219.771
L53.3513 223.746
L54.2686 224.457
L55.1858 208.186
L57.0204 244.057
L57.9376 242.673
M59.7721 242.715
L60.6894 227.751
L61.6067 229.505
L62.5239 227.584
L63.4412 216.985
L64.3584 222.992
L66.193 196.921
L67.1102 208.059
L68.0275 214.238
L68.9447 212.949
L70.7793 235.185
L71.6965 231.788
L72.6138 239.836
L73.531 233.897
L74.4483 230.099
L75.3656 240.463
L76.2828 231.063
L77.2001 242.409
L78.1173 219.614
L79.0346 215.661
L79.9519 236.828
L80.8691 216.03
L81.7864 210.03
L82.7036 213.632
L83.6209 200.221
L84.5382 207.816
L85.4554 225.4
L86.3727 205.405
L87.2899 223.874
L88.2072 226.937
L90.0417 192.943
L90.959 198.444
L91.8762 205.76
L92.7935 227.553
L93.7108 241.59
M95.5453 233.168
L96.4625 226.005
L97.3798 227.333
L98.2971 215.955
L99.2143 216.83
L100.132 203.357
L101.049 204.803
L101.966 202.046
L102.883 205.189
L103.801 242.325
L105.635 213.734
L106.552 192.058
L107.47 200.321
L108.387 184.942
L109.304 218.292
L110.221 229.861
L111.139 212.868
L112.056 213.56
L112.973 237.395
L114.808 192.033
L115.725 222.169
L116.642 226.624
L117.56 200.499
L118.477 237.49
L119.394 220.447
L120.311 238.774
L121.229 236.767
L122.146 212.022
L123.063 182.718
L123.98 169.308
L124.898 160.318
L125.815 218.664
L126.732 202.484
L127.649 229.234
L128.567 213.313
L129.484 185.682
L130.401 205.861
L131.318 196.559
L132.236 205.615
L133.153 179.583
L134.07 175.714
L134.987 165.153
L135.905 153.284
L136.822 156.817
L137.739 163.759
L138.657 172.645
L139.574 197.921
L140.491 186.704
L142.326 200.045
L143.243 185.453
L144.16 225.138
L145.077 182.439
L145.995 189.639
L146.912 199.293
L147.829 203.224
L148.746 235.479
L149.664 208.364
L150.581 204.602
L151.498 212.99
L152.415 197.1
L153.333 177.97
L154.25 167.606
L155.167 169.603
L156.084 165.463
L157.002 186.121
L157.919 179.934
L158.836 197.994
L159.754 180.916
L160.671 153.881
L161.588 145.321
L162.505 158.522
L163.423 168.215
L164.34 182.605
L165.257 182.819
L166.174 188.348
L167.092 186.942
L168.009 182.621
L168.926 174.548
L169.843 181.771
L170.761 181.654
L171.678 169.067
L172.595 180.16
L173.512 185.012
L174.43 193.924
L175.347 206.263
L176.264 233.989
L177.181 204.566
L178.099 206.757
L179.016 222.161
L179.933 222.726
L180.85 197.183
L181.768 196.634
L182.685 185.071
L183.602 199.77
L184.52 198.88
L185.437 198.674
L186.354 224.777
L187.271 224.187
L188.189 223.078
L189.106 193.697
L190.023 208.381
L190.94 175.627
L191.858 187.31
L193.692 216.989
L194.609 202.612
L195.527 173.121
L196.444 165.036
L197.361 158.088
L198.278 166.781
L199.196 169.959
L200.113 178.26
L201.03 182.288
L201.947 176.016
L202.865 173.075
L203.782 190.587
L204.699 197.788
L205.617 185.422
L206.534 192.515
L207.451 185.74
L208.368 187.07
L209.286 190.809
L210.203 192.469
L211.12 178.483
L212.037 187.93
L212.955 198.809
L213.872 201.068
L214.789 182.146
L215.706 182.398
L216.624 180.531
L217.541 168.388
L218.458 176.907
L220.293 190.864
L221.21 189.02
L222.127 193.859
L223.044 201.132
L223.962 184.594
L224.879 188.672
L225.796 194.881
L226.714 199.004
L228.548 199.028
L229.465 193.633
L230.383 183.371
L232.217 188.568
L233.134 188.751
L234.052 190.401
L234.969 199.452
L235.886 235.209
L236.803 240.531
L237.721 223.964
L239.555 174.559
L240.472 160.143
L241.39 172.26
L242.307 197.748
L243.224 198.057
L244.141 206.091
L245.059 195.574
L245.976 186.928
L246.893 183.332
L247.81 175.093
L248.728 179.602
L249.645 181.427
L250.562 186.56
L251.48 212.005
L252.397 201.895
L254.231 194.68
L255.149 186.967
L256.066 197.139
L256.983 199.781
L257.9 206.508
L258.818 200.98
L259.735 199.633
L260.652 188.944
L261.569 183.612
L263.404 203.773
L264.321 202.856
L265.238 203.786
L266.156 196.658
L267.073 194.415
L267.99 183.543
L268.907 178.941
L269.825 182.436
L271.659 202.71
L272.577 207.809
L273.494 201.504
L276.246 198.269
L277.163 208.314
L278.08 198.534
L278.997 195.117
L279.915 195.965
L280.832 181.87
L281.749 184.818
L283.584 198.592
L284.501 203.61
L285.418 222.536
L286.335 219.045
L287.253 204.743
L288.17 204.474
L289.087 229.29
M291.839 211.182
L292.756 196.928
L293.674 189.849
L294.591 205.375
L295.508 202.442
L296.425 198.699
L297.343 197.992
L298.26 218.3
L299.177 226.784
L300.094 218.08
L301.012 203.285
L301.929 204.845
L302.846 212.259
L303.763 229.413
L304.681 224.643
L305.598 226.948
L306.515 212.719
L307.432 217.399
L308.35 214.5
L309.267 198.684
L311.101 242.461
L312.019 223.724
L312.936 231.507
L313.853 237.632
L314.77 216.982
L315.688 214.833
L316.605 208.108
L317.522 200.281
L318.44 202.299
L319.357 196.273
L320.274 227.658
L321.191 224.968
L323.026 206.921
L323.943 206.046
L324.86 230.115
M326.695 238.303
L327.612 236.93
L328.529 211.823
L330.364 188.104
L331.281 221.891
L332.198 200.429
L333.116 215.802
L334.033 222.924
L334.95 235.756
L335.867 224.822
L336.785 220.216
L337.702 218.232
L338.619 212.43
L339.537 225.382
L340.454 228.469
L341.371 217.173
M343.206 218.774
L344.123 217.786
L345.04 211.139
M346.875 215.835
L347.792 214.631
L348.709 237.188
L349.626 224.915
L350.544 216.865
L351.461 209.856
L352.378 194.13
L353.295 222.319
L354.213 243.22
L355.13 229.06
L356.047 235.119
M357.882 234.519
L358.799 240.437
L360.634 231.53
L361.551 229.758
L362.468 243.815
L363.385 236.416
L364.303 211.863
L365.22 225.081
L366.137 234.045
L367.054 227.831
L367.972 218.544
L368.889 231.234
L369.806 241.541
L370.723 236.59
L370.723 236.59" style="fill:none;stroke:#00bfbf;stroke-linecap:square;"/>
   </g>
   <g id="line2d_12">
    <path clip-path="url(#pd0c402dd48)" d="
M36.8406 242.806
L37.7579 236.738
L38.6751 229.778
L39.5924 221.441
L40.5097 232.967
L41.4269 226.669
L42.3442 236.99
L43.2614 212.353
L44.1787 216.115
L45.096 222.389
L46.0132 204.4
L46.9305 216.028
L47.8477 239.256
L48.765 231.171
L49.6823 203.455
L50.5995 222.852
L51.5168 218.857
L52.434 231.908
L53.3513 234.318
L54.2686 227.451
L55.1858 222.471
L56.1031 226.791
M57.9376 230.787
L58.8549 236.655
L59.7721 241.928
M61.6067 238.934
L62.5239 234.282
L63.4412 228.805
M65.2757 235.785
L66.193 222.507
L67.1102 229.259
L68.0275 234.623
L68.9447 236.932
L69.862 230.62
L70.7793 242.82
L71.6965 241.581
L72.6138 233.536
L73.531 219.385
L74.4483 234.023
L75.3656 228.355
L76.2828 237.993
L77.2001 223.34
M79.0346 243.798
L79.9519 242.647
L80.8691 239.428
L81.7864 227.383
L82.7036 224.603
L83.6209 227.605
L84.5382 194.536
L85.4554 194.858
L86.3727 233.632
L87.2899 231.544
L88.2072 207.303
L89.1245 224.191
L90.0417 226.164
L90.959 208.862
L91.8762 203.341
L92.7935 226.791
L93.7108 224.501
L94.628 224.834
L96.4625 201.874
L97.3798 230.851
L98.2971 215.888
L99.2143 203.258
L101.049 208.739
L101.966 233.598
L102.883 212.643
L103.801 180.953
L104.718 185.801
L105.635 179.316
L106.552 193.263
L107.47 181.041
L108.387 191.872
L109.304 210.448
L110.221 217.608
L111.139 188.002
L112.056 186.228
L112.973 226.321
L113.89 227.384
L114.808 197.58
L115.725 186.688
L117.56 240.996
L118.477 218.797
L119.394 239.009
L120.311 237.335
L121.229 219.94
L122.146 224.627
L123.063 231.204
L123.98 204.595
L124.898 186.903
L125.815 205.383
L126.732 179.816
L127.649 185.353
L128.567 187.055
L129.484 223.358
L130.401 213.59
L131.318 179.557
L132.236 166.294
L133.153 174.71
L134.07 169.723
L134.987 160.366
L135.905 161.887
L136.822 204.913
L137.739 228.866
L138.657 220.143
L139.574 188.928
L140.491 181.146
L141.408 168.815
L142.326 171.279
L143.243 224.97
L144.16 233.135
L145.077 219.462
L145.995 226.281
L146.912 216.793
L147.829 178.78
L148.746 204.29
L149.664 155.405
L150.581 192.798
L151.498 194.43
L152.415 160.379
L153.333 147.657
L154.25 148.55
L155.167 213.218
L156.084 181.408
L157.002 169.497
L157.919 168.117
L158.836 146.582
L159.754 149.539
L160.671 161.732
L161.588 186.549
L162.505 235.556
L163.423 196.403
L164.34 194.969
L165.257 208.381
M167.092 215.812
L168.009 200.81
L168.926 171.876
L169.843 206.203
L170.761 200.645
L171.678 212.232
L172.595 202.048
L173.512 177.393
L174.43 215.794
L175.347 203.724
L176.264 230.681
L177.181 203.83
L178.099 236.338
L179.016 189.485
L179.933 222.118
L180.85 177.348
L181.768 178.716
L182.685 202.974
L183.602 213.099
L184.52 195.101
L185.437 168.066
L186.354 165.894
L187.271 154.867
L188.189 173.622
L189.106 187.157
L190.023 195.527
L190.94 177.059
L191.858 174.529
L192.775 197.536
L193.692 201.853
L194.609 174.248
L195.527 174.022
L196.444 181.111
L197.361 194.191
L198.278 175.616
L199.196 176.969
L200.113 183.31
L201.03 198.645
L201.947 183.518
L202.865 179.809
L203.782 200.177
L204.699 204.795
L205.617 181.674
L206.534 186.255
L208.368 155.787
L209.286 163.235
L210.203 161.775
L212.037 177.944
L212.955 183.007
L213.872 183.42
L214.789 185.92
L215.706 176.815
L216.624 173.397
L217.541 158.662
L218.458 163.014
L219.375 178.09
L220.293 183.983
L221.21 184.172
L222.127 185.604
L223.044 177.268
L223.962 179.406
L224.879 183.431
L225.796 214.072
L226.714 189.076
L227.631 195.565
L228.548 193.879
L229.465 188.82
L230.383 189.547
L231.3 183.174
L232.217 182.349
L233.134 186.577
L234.052 180.123
L234.969 182.262
L235.886 198.832
L236.803 189.63
L237.721 192.076
L238.638 203.327
L239.555 208.891
L240.472 226.683
L241.39 207.809
L242.307 191.29
L243.224 188.652
L244.141 169.741
L245.059 167.812
L245.976 178.332
L246.893 184.203
L247.81 187.033
L248.728 184.927
L249.645 191.559
L250.562 193.147
L251.48 196.954
L252.397 188.535
L253.314 183.41
L254.231 187.894
L255.149 176.159
L256.066 196.829
L256.983 233.846
L257.9 216.103
L258.818 211.331
L259.735 202.558
L260.652 173.419
L261.569 166.851
L262.487 175.469
L263.404 186.794
L264.321 188.915
L265.238 187.616
L266.156 223.412
L267.073 239.073
L267.99 192.831
L268.907 186.465
L269.825 171.475
L270.742 164.334
L271.659 178.964
L272.577 183.184
L273.494 190.418
L274.411 196.601
L275.328 193.072
L276.246 205.053
L277.163 205.164
L278.08 198.544
L278.997 197.408
L279.915 190.325
L280.832 175.906
L281.749 182.202
L283.584 175.48
L284.501 181.231
L285.418 192.493
L286.335 191.732
L287.253 193.195
L288.17 194.034
L289.087 215.94
L290.004 232.824
L290.922 224.482
L291.839 220.889
L292.756 207.165
L293.674 229.246
L294.591 216.561
L295.508 206.533
L296.425 215.562
L297.343 193.984
L298.26 188.204
L299.177 187.319
L300.094 190.458
L301.012 196.697
L301.929 199.975
L302.846 195.741
L303.763 190.227
L304.681 191.655
L305.598 189.008
L306.515 195.784
L307.432 229.657
L308.35 242.909
L309.267 231.929
L310.184 237.746
L311.101 216.125
L312.019 187.293
L312.936 183.316
L313.853 191.94
L314.77 229.811
L315.688 207.185
L316.605 204.487
L317.522 204.705
L318.44 190.13
L319.357 199.542
L320.274 205.199
L321.191 230.811
L322.109 237.02
L323.026 225.374
L323.943 242.503
L324.86 236.587
L325.778 216.596
L326.695 220.252
L327.612 241.211
L328.529 226.705
L329.447 221.866
L330.364 203.105
L331.281 218.496
M333.116 244.275
L334.033 242.354
M335.867 243.726
L336.785 217.892
L337.702 209.865
L338.619 211.173
L339.537 226.279
L340.454 232.636
L341.371 213.245
L342.288 219.904
M344.123 239.755
L345.04 227.618
L345.957 231.497
L346.875 240.345
L347.792 240.807
L348.709 232.701
L349.626 216.122
L350.544 230.158
L351.461 236.384
L352.378 237.145
L353.295 230.15
L354.213 229.867
L355.13 237.617
L356.047 235.249
L356.964 221.881
L357.882 219.931
L358.799 233.892
L359.716 241.685
L360.634 235.399
L361.551 217.917
L362.468 239.388
L363.385 236.964
L364.303 212.736
L365.22 183.848
L366.137 229.009
L367.054 233.215
L367.972 236.867
M369.806 240.734
L370.723 234.699
L370.723 234.699" style="fill:none;stroke:#bf00bf;stroke-linecap:square;"/>
   </g>
   <g id="line2d_13">
    <path clip-path="url(#pd0c402dd48)" d="
M36.8406 222.154
L37.7579 226.074
L38.6751 233.803
L39.5924 237.48
L40.5097 219.271
L41.4269 221.562
L42.3442 222.604
L43.2614 228.216
L44.1787 236.883
L45.096 244.435
L46.0132 226.098
L46.9305 228.463
M48.765 237.474
L49.6823 235.752
L50.5995 242.303
L51.5168 236.668
L52.434 239.679
L53.3513 243.629
L54.2686 220.474
L55.1858 237.28
L56.1031 237.809
L57.0204 205.968
L57.9376 238.279
L58.8549 240.757
L59.7721 240.568
L60.6894 238.988
L61.6067 237.059
L62.5239 237.804
L63.4412 244.37
L64.3584 227.79
L65.2757 217.208
L66.193 209.409
L67.1102 212.554
L68.0275 227.307
L68.9447 224.013
L69.862 223.347
L70.7793 225.784
L71.6965 231.579
L72.6138 222.989
L73.531 216.364
L74.4483 206.844
L75.3656 201.606
L76.2828 194.077
L77.2001 196.381
L78.1173 204.168
L79.0346 227.683
L79.9519 235.339
L80.8691 239.151
L81.7864 237.621
M83.6209 231.401
L84.5382 231.266
L85.4554 226.096
L86.3727 243.695
M88.2072 216.829
L89.1245 209.864
L90.0417 212.188
L90.959 188.38
L91.8762 218.219
L92.7935 225.158
L94.628 236.792
L96.4625 241.369
M98.2971 232.591
L99.2143 227.163
L100.132 243.375
L101.049 223.844
L101.966 241.822
L102.883 218.431
L103.801 229.822
M105.635 243.719
L106.552 215.258
L107.47 236.83
L108.387 219.003
L109.304 229.961
L110.221 227.848
L111.139 217.906
L112.056 234.922
M115.725 226.024
L116.642 233.403
L117.56 230.729
L118.477 191.974
L119.394 192.002
L120.311 203.678
L121.229 224.7
L122.146 210.599
L123.98 224.236
L124.898 211.919
L125.815 221.131
L126.732 228.817
L127.649 204.388
L128.567 208.104
L129.484 182.845
L130.401 216.897
L131.318 188.911
L132.236 212.566
L133.153 217.059
L134.07 203.572
L134.987 205.71
L135.905 175.738
L136.822 217.145
L137.739 226.076
L138.657 179.434
L139.574 160.461
L140.491 198.767
L141.408 224.366
L142.326 199.437
L143.243 185.123
L144.16 225.105
L145.077 190.723
L145.995 192.379
L146.912 181.605
L147.829 196.721
L148.746 176.825
L149.664 170.687
L150.581 176.509
L151.498 219.357
L152.415 199.247
L153.333 218.365
L154.25 206.681
L155.167 179.429
L157.002 169.112
L157.919 170.119
L159.754 226.108
L160.671 236.971
L161.588 211.238
L162.505 225.159
L163.423 166.078
L164.34 165.47
L165.257 190.064
L166.174 177.556
L167.092 215.483
L168.009 216.545
L168.926 208.42
L169.843 199.209
L170.761 226.504
L171.678 226.33
L172.595 228.444
L173.512 191.405
L174.43 192.042
L175.347 185.679
L176.264 217.386
L177.181 175.566
L178.099 180.28
L179.016 171.74
L179.933 201.884
L180.85 219.112
L181.768 192.822
L182.685 207.806
L183.602 199.99
L184.52 197.259
L185.437 180.325
L186.354 200.553
L187.271 172.86
L188.189 171.011
L189.106 190.884
L190.023 171.941
L190.94 220.261
L191.858 216.029
L192.775 165.697
L193.692 171.825
L194.609 167.566
L195.527 171.409
L196.444 179.901
L197.361 183.722
L198.278 189.515
L199.196 180.782
L200.113 176.794
L201.03 204.531
L201.947 187.668
L202.865 186.938
L203.782 182.211
L204.699 175.448
L205.617 173.699
L206.534 179.26
L207.451 182.802
L208.368 211.887
L209.286 192.551
L210.203 185.373
L211.12 191.094
L212.037 188.676
L212.955 178.233
L213.872 196.243
L214.789 196.568
L215.706 191.651
L216.624 195.308
L217.541 181.405
L218.458 176.712
L219.375 191.143
L220.293 192.337
L221.21 188.884
L222.127 195.006
L223.044 180.003
L223.962 170.366
L225.796 188.255
L226.714 190.021
L227.631 193.846
L228.548 189.763
L229.465 183.532
L230.383 192.417
L231.3 192.383
L232.217 196.406
L233.134 193.519
L234.052 210.313
L234.969 192.874
L235.886 192.908
L236.803 196.395
L237.721 191.59
L238.638 188.09
L239.555 192.987
L240.472 191.018
L241.39 191.754
L242.307 193.891
L243.224 191.973
L244.141 187.8
L245.059 190.69
L245.976 192.463
L246.893 193.747
L247.81 183.56
L248.728 191.206
L249.645 195.121
L250.562 191.992
L251.48 192.124
L252.397 191.659
L253.314 199.16
L254.231 196.545
L255.149 210.503
L256.066 201.322
L256.983 201.063
L257.9 200.54
L258.818 199.468
L259.735 203.926
L260.652 195.715
L261.569 197.282
L262.487 185.487
L263.404 179.032
L264.321 187.511
L265.238 189.449
L266.156 192.769
L267.073 201.325
L267.99 199.078
L268.907 204.922
L269.825 202.899
L270.742 202.334
L271.659 202.15
L272.577 227.553
L273.494 212.246
L274.411 202.139
L275.328 197.331
L276.246 195.518
L277.163 189.835
L278.08 183.148
L278.997 189.288
L279.915 188.433
L280.832 189.483
L281.749 202.091
L282.666 204.281
L283.584 202.363
L284.501 209.667
L285.418 196.687
L286.335 193.635
L287.253 199.559
L288.17 202.028
L289.087 202.998
L290.004 235.407
L290.922 241.613
M293.674 219.174
L294.591 200.469
L295.508 227.388
L296.425 219.482
L297.343 203.483
L298.26 198.087
L299.177 191.333
L300.094 205.53
L301.012 240.67
L301.929 212.57
L302.846 202.746
L303.763 209.78
L304.681 199.565
L305.598 204.129
L306.515 211.564
L307.432 207.565
L308.35 224.792
L309.267 210.112
L310.184 197.597
L311.101 202.109
L312.019 192.384
L312.936 189.615
L313.853 198.24
L314.77 220.714
L316.605 197.058
L317.522 205.328
L318.44 229.832
L319.357 235.926
L320.274 239.808
L321.191 241.064
L322.109 222.676
L323.026 200.706
L323.943 194.411
L324.86 202.811
L325.778 227.21
L326.695 232.835
L327.612 208.45
L328.529 201.37
L329.447 217.314
L330.364 238.024
L331.281 238.424
L332.198 234.675
L333.116 212.997
L334.033 221.747
L334.95 229.204
L335.867 197.278
L336.785 217.899
L337.702 223.086
L338.619 197.907
L339.537 198.313
L340.454 217.628
L341.371 232.113
L342.288 225.655
L343.206 207.248
L344.123 209.424
L345.04 215.641
L345.957 219.441
L346.875 220.298
L347.792 203.794
L348.709 205.1
L349.626 203.557
L350.544 200.144
L351.461 205.808
L352.378 209.975
L353.295 209.808
L354.213 219.513
L355.13 213.829
L356.047 224.918
L356.964 224.06
L357.882 221.436
L360.634 207.551
L361.551 223.309
L362.468 203.145
L363.385 195.665
L364.303 202.093
L365.22 203.186
L366.137 208.555
L367.972 235.938
L368.889 228.818
L369.806 243.999
L370.723 224.563
L370.723 224.563" style="fill:none;stroke:#bfbf00;stroke-linecap:square;"/>
   </g>
   <g id="line2d_14">
    <path clip-path="url(#pd0c402dd48)" d="
M36.8406 200.217
L37.7579 200.027
L38.6751 197.196
L39.5924 181.827
L40.5097 206.051
L41.4269 223.816
L42.3442 228.871
L43.2614 221.178
L44.1787 222.687
L45.096 235.514
L46.0132 213.43
L46.9305 220.676
L47.8477 200.06
L48.765 185.774
L49.6823 208.008
L50.5995 221.035
L51.5168 207.997
L52.434 229.895
M55.1858 242.622
L56.1031 233.859
L57.0204 244.062
L57.9376 235.455
L58.8549 233.071
L59.7721 241.399
L60.6894 214.949
L61.6067 204.106
L62.5239 190.196
L63.4412 222.513
L64.3584 201.312
L65.2757 232.743
L66.193 230.227
L67.1102 212.445
L68.0275 209.591
L68.9447 205.044
L69.862 207.59
L70.7793 194.356
L71.6965 227.267
L72.6138 241.107
L73.531 221.844
L74.4483 235.122
L75.3656 239.178
L76.2828 222.124
L77.2001 231.298
L78.1173 235.387
L79.0346 215.476
L79.9519 213.158
L80.8691 225.602
L81.7864 219.514
L82.7036 231.26
M84.5382 233.792
L85.4554 215.817
L86.3727 189.733
L87.2899 227.407
L89.1245 205.729
L90.0417 202.943
L90.959 228.72
L91.8762 240.281
L92.7935 217.403
L93.7108 223.652
L94.628 201.61
L95.5453 191.524
L96.4625 218.364
L97.3798 200.296
L98.2971 194.825
L99.2143 190.451
L100.132 183.521
L101.049 209.957
L101.966 220.428
L102.883 227.169
M104.718 226.87
L105.635 239.453
L106.552 240.05
M108.387 228.725
L109.304 231.303
L110.221 208.017
L111.139 163.899
L112.056 195.168
L112.973 175.136
L114.808 235.172
L115.725 196.927
L116.642 222.14
L117.56 229.339
L118.477 233.571
L119.394 182.86
L120.311 185.385
L121.229 189.9
L122.146 184.822
L123.063 210.854
L123.98 190.909
L124.898 191.866
L125.815 179.725
L126.732 155.349
L127.649 161.56
L128.567 144.678
L129.484 207.931
L130.401 206.521
L131.318 218.736
L132.236 202.122
L133.153 182.93
L134.07 220.428
L134.987 196.693
L135.905 201.593
L136.822 211.998
L137.739 180.057
L138.657 163.572
L139.574 154.835
L140.491 180.861
L141.408 188.047
L142.326 208.561
L143.243 243.763
L144.16 204.551
L145.077 209.317
L145.995 189.448
L146.912 215.886
L147.829 179.816
L148.746 177.099
L149.664 219.431
L150.581 232.61
L151.498 196.63
L152.415 168.738
L153.333 164.512
L154.25 152.551
L155.167 151.95
L156.084 163.558
L157.002 171.952
L157.919 175.823
L158.836 172.512
L159.754 158.181
L160.671 188.751
L161.588 175.395
L162.505 203.273
L163.423 192.593
L164.34 186.469
L165.257 185.37
L166.174 199.781
L167.092 209.881
L168.009 209.916
L168.926 201.29
L169.843 231.651
L170.761 230.067
L171.678 206.235
L172.595 165.273
L173.512 156.038
L174.43 163.586
L175.347 167.001
L176.264 169.417
L177.181 197.723
L178.099 183.003
L179.016 196.662
L179.933 236.458
L180.85 195.116
L181.768 196.73
L182.685 202.684
L183.602 221.43
L184.52 191.032
L185.437 169.303
L186.354 173.015
L187.271 158.296
L188.189 148.682
L189.106 168.269
L190.023 180.674
L190.94 171.989
L191.858 179.146
L192.775 191.233
L193.692 179.927
L194.609 181.505
L195.527 169.521
L196.444 166.192
L197.361 172.226
L198.278 180.777
L199.196 191.584
L200.113 175.572
L201.03 173.759
L201.947 178.501
L202.865 162.405
L203.782 191.285
L204.699 186.856
L205.617 183.267
L206.534 186.318
L207.451 183.116
L208.368 189.163
L209.286 181.016
L210.203 194.255
L211.12 186.059
L212.037 186.978
L212.955 190.841
L213.872 190.388
L214.789 211.271
L215.706 214.342
L216.624 204.986
L217.541 210.605
L218.458 187.244
L219.375 183.105
L220.293 184.842
L221.21 178.709
L222.127 188.164
L223.044 184.314
L223.962 196.751
L225.796 187.107
L226.714 191.734
L227.631 186.616
L228.548 191.105
L229.465 188.776
L230.383 194.014
L232.217 188.424
L233.134 190.795
L234.052 194.589
L234.969 192.174
L235.886 191.2
L236.803 187.639
L237.721 182.53
L238.638 194.3
L239.555 194.286
L240.472 202.414
L241.39 197.876
L242.307 198.533
L245.059 192.256
L246.893 200.878
L247.81 196.105
L248.728 208.791
L249.645 199.679
L250.562 198.055
L251.48 199.082
L252.397 194.268
L253.314 191.279
L254.231 193.065
L255.149 195.216
L256.066 199.206
L256.983 181.234
L257.9 195.817
L258.818 195.186
L259.735 202.743
L260.652 202.555
L261.569 181.373
L262.487 184.899
L263.404 192.502
L264.321 185.708
L265.238 201.002
L266.156 190.157
L267.073 188.591
L267.99 191.689
L268.907 193.383
L269.825 198.718
L270.742 192.901
L271.659 194.39
L272.577 183.488
L273.494 175.678
L274.411 186.919
L275.328 192.405
L277.163 198.293
L278.08 199.037
L278.997 199.395
L279.915 196.969
L280.832 227.02
L281.749 210.186
L282.666 207
L283.584 206.259
L284.501 190.874
L285.418 192.262
L286.335 195.59
L287.253 197.249
L288.17 196.552
L289.087 197.774
L290.004 200.23
L290.922 200.774
L291.839 198.376
L292.756 199.886
L293.674 184.586
L294.591 178.792
L295.508 183.23
L296.425 182.67
L297.343 186.857
L298.26 188.016
L299.177 221.344
L300.094 206.807
L301.012 214.047
L301.929 219.6
L302.846 205.184
L303.763 199.832
L304.681 205.333
L305.598 216.672
L306.515 200.416
L307.432 238.293
L308.35 243.42
L309.267 235.513
L310.184 235.028
L311.101 215.257
L312.019 217.955
L312.936 232.996
L313.853 201.815
L314.77 192.048
L315.688 190.528
L316.605 215.236
L317.522 211.573
L318.44 216.454
L319.357 212.025
L320.274 215.445
L321.191 206.08
L322.109 216.655
L323.026 228.912
L323.943 243.124
L324.86 236.73
L325.778 237.444
L326.695 232.981
L327.612 231.876
L328.529 229.65
L329.447 222.643
L330.364 213.853
L331.281 232.04
L332.198 228.153
L333.116 228.883
L334.033 223.113
L334.95 233.301
L336.785 199.753
L337.702 224.776
L338.619 234.648
L339.537 222.171
L340.454 213.938
L341.371 220.727
L342.288 224.796
L343.206 235
L344.123 233.898
L345.04 241.813
L345.957 217.065
L346.875 230.178
L347.792 237.123
L348.709 228.473
L349.626 221.365
L350.544 233.985
L351.461 225.377
L352.378 239.151
L353.295 225.887
L354.213 241.24
L355.13 226.529
L356.047 235.687
L356.964 237.639
M358.799 235.304
L359.716 228.609
L360.634 225.565
L361.551 197.878
L362.468 189.247
L363.385 217.511
L364.303 237.723
L365.22 238.621
L366.137 227.881
L367.054 239.659
L367.972 241.34
L368.889 228.501
L369.806 228.025
L370.723 242.057
L370.723 242.057" style="fill:none;stroke:#000000;stroke-linecap:square;"/>
   </g>
   <g id="line2d_15">
    <path clip-path="url(#pd0c402dd48)" d="
M36.8406 226.197
L37.7579 221.687
L38.6751 187.03
L39.5924 157.792
L40.5097 123.93
L41.4269 155.448
L42.3442 204.404
L43.2614 231.373
L44.1787 147.322
L45.096 216.062
L46.0132 199.43
L46.9305 153.368
L47.8477 183.315
L48.765 208.932
L49.6823 184.056
L50.5995 176.776
L51.5168 171.429
L52.434 95.8872
L53.3513 79.367
L54.2686 142.787
L55.1858 121.454
L56.1031 48.4573
L57.0204 45.4576
L57.9376 171.699
L58.8549 221.504
L59.7721 225.42
L60.6894 219.062
L62.5239 244.271
L63.4412 241.031
L64.3584 225.388
L65.2757 205.444
L67.1102 172.539
L68.0275 139.236
L68.9447 154.774
L69.862 174.142
L70.7793 155.565
L71.6965 199.562
L72.6138 171.077
L73.531 150.994
L74.4483 104.449
L75.3656 173.744
L76.2828 179.006
L77.2001 153.339
L78.1173 132.264
L79.0346 161.726
L79.9519 201.081
L80.8691 113.345
L81.7864 161.158
L82.7036 198.321
L83.6209 179.924
L84.5382 214.89
L86.3727 181.643
L87.2899 179.811
L88.2072 162.332
L89.1245 103.489
L90.0417 168.453
L90.959 189.451
L91.8762 141.298
L92.7935 134.782
L93.7108 62.0827
L94.628 84.6663
L95.5453 172.178
L96.4625 148.307
L97.3798 102.761
L98.2971 93.671
L99.2143 62.0791
L100.132 167.654
L101.049 142.926
L101.966 85.4461
L102.883 59.8107
L103.801 99.7895
L104.718 145.036
L105.635 142.204
L106.552 152.771
L107.47 93.6604
L108.387 161.761
L109.304 158.935
L110.221 176.155
L111.139 108.063
L112.056 92.567
L112.973 80.4873
L113.89 162.943
L114.808 119.151
L115.725 55.3399
L116.642 93.0469
L117.56 87.4112
L118.477 69.5292
L119.394 134.011
L120.311 121.766
L121.229 98.992
L122.146 150.573
L123.063 191.63
L123.98 199.464
L124.898 216.527
L125.815 169.153
L126.732 133.871
L127.649 144.52
L128.567 121.992
L129.484 71.1592
L130.401 141.824
L131.318 126.272
L132.236 172.941
L134.07 88.2521
L134.987 63.7828
L135.905 186.497
L136.822 155.351
L137.739 99.9534
L138.657 104.5
L139.574 68.8432
L140.491 49.2652
L141.408 38.191
L142.326 66.0308
L143.243 33.3669
L144.16 45.3916
L145.077 111.887
L145.995 118.378
L146.912 120.2
L147.829 87.1134
L148.746 79.162
L149.664 113.036
L150.581 40.4174
L151.498 74.675
L152.415 138.518
L153.333 145.297
L154.25 104.98
L155.167 102.267
L156.084 103.679
L157.002 92.6405
L158.836 134.497
L159.754 127.314
L160.671 171.45
L161.588 209.414
L162.505 173.939
L163.423 179.829
L164.34 132.889
L165.257 100.85
L166.174 135.494
L167.092 62.1828
L168.009 62.1859
L168.926 108.391
L169.843 172.526
L170.761 166.562
L171.678 208.358
L172.595 197.989
L173.512 152.424
L174.43 128.51
L175.347 75.3952
L176.264 67.584
L177.181 94.4035
L179.016 68.4059
L179.933 90.7434
L180.85 88.8894
L181.768 100.615
L182.685 89.0569
L183.602 116.145
L184.52 134.645
L185.437 134.686
L187.271 173.706
L188.189 109.323
L190.023 86.5979
L190.94 84.455
L191.858 191.198
L192.775 175.156
L193.692 171.24
L194.609 162.198
L195.527 121.408
L196.444 189.109
L197.361 211.115
L198.278 156.365
L199.196 85.7576
L200.113 93.7799
L201.947 79.9049
L202.865 132.303
M301.929 107.989
L302.846 111.919
L303.763 88.8573
L304.681 102.27
L305.598 109.183
L306.515 96.9999
L307.432 92.9405
L308.35 94.6977
L309.267 102.493
L310.184 104.561
L311.101 110.334
L312.019 200.012
L312.936 219.019
L313.853 203.941
L314.77 211.019
L315.688 189.455
L316.605 185.2
L317.522 198.121
L318.44 164.964
L319.357 192.048
L320.274 204.357
L321.191 171.271
L322.109 129.836
L323.026 103.86
L323.943 66.0837
L324.86 95.9657
L325.778 94.8245
L326.695 143.288
L327.612 165.758
L328.529 200.512
L329.447 213.365
L330.364 185.544
L331.281 141.136
L332.198 193.139
L333.116 184.19
L334.033 113.78
L334.95 112.609
L335.867 130.917
L336.785 120.442
L337.702 104.883
L338.619 83.6935
L339.537 90.5748
L340.454 127.698
L341.371 137.296
L342.288 191.349
L343.206 209.563
L344.123 190.455
L345.04 173.801
L345.957 209.545
L347.792 184.63
L348.709 216.065
L350.544 83.2158
L351.461 129.486
L352.378 161.613
L353.295 116.887
L354.213 148.03
L355.13 162.757
L356.047 62.9985
L356.964 74.2228
L357.882 47.1755
L358.799 141.017
L359.716 199.459
L360.634 174.44
L361.551 215.198
L362.468 221.496
L363.385 193.398
L364.303 148.205
L365.22 87.2551
L366.137 89.3707
L367.054 79.7346
L367.972 143.519
L368.889 121.093
L369.806 157.334
L370.723 179.404
L370.723 179.404" style="fill:none;stroke:#0000ff;stroke-linecap:square;"/>
   </g>
   <g id="line2d_16">
    <path clip-path="url(#pd0c402dd48)" d="
M36.8406 235.252
L37.7579 225.387
L38.6751 222.478
L39.5924 228.746
L40.5097 219.683
L41.4269 213.798
L42.3442 222.839
M44.1787 227.141
L45.096 237.239
L46.0132 235.696
L46.9305 239.479
L47.8477 238.48
L48.765 230.325
L49.6823 216.62
L50.5995 217.765
L51.5168 214.82
L52.434 222.454
L53.3513 215.677
L54.2686 219.975
L55.1858 221.452
L56.1031 226.434
L57.0204 220.141
M72.6138 232.666
L73.531 225.879
L74.4483 230.955
L75.3656 236.747
L76.2828 232.377
L77.2001 231.825
L78.1173 226.881
L79.0346 232.016
L79.9519 207.418
L80.8691 231.667
L81.7864 233.33
L82.7036 237.626
L83.6209 227.372
L84.5382 225.936
L86.3727 211.172
L87.2899 208.108
L88.2072 212.837
L89.1245 229.948
L90.0417 219.251
L90.959 235.119
L91.8762 231.172
L92.7935 234.226
L93.7108 203.746
L94.628 223.229
L95.5453 217.51
L96.4625 215.446
L97.3798 195.625
L98.2971 224.219
L99.2143 236.894
L100.132 208.952
L101.049 193.556
L101.966 187.573
L102.883 216.286
L103.801 186.639
L104.718 177.957
L105.635 215.801
L106.552 217.539
L107.47 180.771
L108.387 181.954
L109.304 188.415
L110.221 172.146
L111.139 164.389
L112.056 175.735
L112.973 202.254
L113.89 204.202
M115.725 224.268
L116.642 230.096
L117.56 217.89
L118.477 197.523
L119.394 237.768
L120.311 226.902
L121.229 195.906
L122.146 198.674
L123.063 195.276
L123.98 187.056
L124.898 165.351
L125.815 172.741
L126.732 172.318
L127.649 170.518
L128.567 168.469
L129.484 180.076
L130.401 185.935
L131.318 174.635
L132.236 180.915
L133.153 174.87
L134.07 179.416
L134.987 172.919
L135.905 169.919
L136.822 170.11
L137.739 173.307
L138.657 229.293
L139.574 195.351
L140.491 206.079
L141.408 227.977
L142.326 205.959
L143.243 192.012
L144.16 187.722
L145.077 158.627
L145.995 151.762
L146.912 149.171
L147.829 150.821
L148.746 163.624
L150.581 202.65
L151.498 190.316
L152.415 190.515
L153.333 195.533
L154.25 191.869
L155.167 197.562
L156.084 165.196
L157.002 165.581
L157.919 160.388
L158.836 156.953
L159.754 152.058
L160.671 178.357
L161.588 160.818
L162.505 193.299
L163.423 181.07
L164.34 199.492
L165.257 205.78
L166.174 173.006
L167.092 165.7
L168.009 184.194
L168.926 184.643
L169.843 168.6
L170.761 171.565
L171.678 188.771
L172.595 173.826
L173.512 182.087
L174.43 177.797
L175.347 190.546
L176.264 166.349
L177.181 157.695
L178.099 171.27
L179.016 170.261
L179.933 166.058
L180.85 183.974
L181.768 175.073
L182.685 173.372
L183.602 175.754
L184.52 172.755
L185.437 179.329
L186.354 202.846
L187.271 202.195
L188.189 194.546
L189.106 201.124
L190.023 205.38
L190.94 211.526
L191.858 155.045
L192.775 165.606
L193.692 159.126
L194.609 150.262
L195.527 150.816
L196.444 178.508
L197.361 216.487
L198.278 202.317
L199.196 204.472
L200.113 186.284
L202.865 163.222
L203.782 181.613
L204.699 180.372
L205.617 175.167
L206.534 172.681
L207.451 179.782
L208.368 187.929
L209.286 194.787
L210.203 209.569
L211.12 187.782
L212.037 190.977
L212.955 186.829
L213.872 187.969
L214.789 185.885
L215.706 189.378
L216.624 195.214
L217.541 202.353
L218.458 195.452
L219.375 199.534
L220.293 192.654
L221.21 212.947
L222.127 200.302
L223.044 189.425
L223.962 190.138
L224.879 188.181
L225.796 179.611
L226.714 182.716
L227.631 193.713
L228.548 183.781
L229.465 194.789
L230.383 190.658
L231.3 199.859
L232.217 201.421
L233.134 197.668
L234.052 197.342
L234.969 205.82
L235.886 204.311
L236.803 199.534
L237.721 202.357
L238.638 199.147
L239.555 188.615
L240.472 194.747
L241.39 192.9
L242.307 216.272
L243.224 199.649
L244.141 196.214
L245.059 198.135
L245.976 187.858
L246.893 185.852
L247.81 198.278
L248.728 202.928
L249.645 198.977
L250.562 202.909
L251.48 209.743
L252.397 201.845
L253.314 210.674
L255.149 186.848
L256.066 185.299
L256.983 186.989
L257.9 205.434
L258.818 200.769
L259.735 198.059
L260.652 196.916
L261.569 203.014
L262.487 190.338
L263.404 182.737
L264.321 187.429
L265.238 193.044
L266.156 185.797
L267.073 191.061
L267.99 198.78
L268.907 200.847
L269.825 199.967
L270.742 205.258
L271.659 194.878
L272.577 191.891
L273.494 193.016
L275.328 211.031
L276.246 207.94
L277.163 206.612
L278.08 221.588
L278.997 213.937
L279.915 220.048
L280.832 199.379
L281.749 207.185
L282.666 210.266
L283.584 226.801
L284.501 230.938
L285.418 236.791
L286.335 216.954
L287.253 205.257
L288.17 195.432
L289.087 195.13
L290.004 191.296
L290.922 191.78
L291.839 194.73
L292.756 198.519
L293.674 200.563
L294.591 204.876
L295.508 210.297
L296.425 218.644
L297.343 224.68
L298.26 208.278
L299.177 213.796
L300.094 227.43
L301.012 218.618
L301.929 199.29
L303.763 218.161
L304.681 206.276
L305.598 225.777
L306.515 217.376
L307.432 232.298
L308.35 219.614
L309.267 225.571
L310.184 221.285
L311.101 220.026
L312.019 206.504
L312.936 219.502
L313.853 214.741
L314.77 220.2
L315.688 236.047
M317.522 231.653
L318.44 234.134
L320.274 216.622
L321.191 218.277
L322.109 215.535
L323.026 225.559
L323.943 231.986
L324.86 229.823
L325.778 214.943
L326.695 232.029
M328.529 243.478
L329.447 234.063
L333.116 219.226
L334.033 223.203
L334.95 234.912
L336.785 224.843
L337.702 235.882
L338.619 223.407
L339.537 223.657
L340.454 216.15
L341.371 232.826
L342.288 229.007
L343.206 236.896
L344.123 233.926
L345.04 229.453
L345.957 225.94
L346.875 221.11
L347.792 233.076
L348.709 225.399
L349.626 236.617
L350.544 228.915
L351.461 227.466
L352.378 224.633
L353.295 238.979
L354.213 241.99
L355.13 227.906
L356.047 230.406
L356.964 237.824
L357.882 233.531
L359.716 241.129
L360.634 241.977
L361.551 241.508
M363.385 233.368
L364.303 241.117
M367.054 239.925" style="fill:none;stroke:#008000;stroke-linecap:square;"/>
   </g>
   <g id="patch_3">
    <path d="
M36.8406 244.518
L36.8406 21.3181" style="fill:none;stroke:#000000;stroke-linecap:square;stroke-linejoin:miter;"/>
   </g>
   <g id="patch_4">
    <path d="
M36.8406 21.3181
L371.641 21.3181" style="fill:none;stroke:#000000;stroke-linecap:square;stroke-linejoin:miter;"/>
   </g>
   <g id="patch_5">
    <path d="
M371.641 244.518
L371.641 21.3181" style="fill:none;stroke:#000000;stroke-linecap:square;stroke-linejoin:miter;"/>
   </g>
   <g id="patch_6">
    <path d="
M36.8406 244.518
L371.641 244.518" style="fill:none;stroke:#000000;stroke-linecap:square;stroke-linejoin:miter;"/>
   </g>
   <g id="matplotlib.axis_1">
    <g id="xtick_1">
     <g id="line2d_17">
      <defs>
       <path d="
M0 0
L0 -4" id="mc7db9fdffb" style="stroke:#000000;stroke-width:0.5;"/>
      </defs>
      <g>
       <use style="stroke:#000000;stroke-width:0.5;" x="36.840625" xlink:href="#mc7db9fdffb" y="244.518125"/>
      </g>
     </g>
     <g id="line2d_18">
      <defs>
       <path d="
M0 0
L0 4" id="m5a7d422ac3" style="stroke:#000000;stroke-width:0.5;"/>
      </defs>
      <g>
       <use style="stroke:#000000;stroke-width:0.5;" x="36.840625" xlink:href="#m5a7d422ac3" y="21.318125"/>
      </g>
     </g>
     <g id="text_1">
      <!-- 0 -->
      <defs>
       <path d="
M31.7812 66.4062
Q24.1719 66.4062 20.3281 58.9062
Q16.5 51.4219 16.5 36.375
Q16.5 21.3906 20.3281 13.8906
Q24.1719 6.39062 31.7812 6.39062
Q39.4531 6.39062 43.2812 13.8906
Q47.125 21.3906 47.125 36.375
Q47.125 51.4219 43.2812 58.9062
Q39.4531 66.4062 31.7812 66.4062
M31.7812 74.2188
Q44.0469 74.2188 50.5156 64.5156
Q56.9844 54.8281 56.9844 36.375
Q56.9844 17.9688 50.5156 8.26562
Q44.0469 -1.42188 31.7812 -1.42188
Q19.5312 -1.42188 13.0625 8.26562
Q6.59375 17.9688 6.59375 36.375
Q6.59375 54.8281 13.0625 64.5156
Q19.5312 74.2188 31.7812 74.2188" id="BitstreamVeraSans-Roman-30"/>
      </defs>
      <g transform="translate(34.32109375 256.1165625)scale(0.1 -0.1)">
       <use xlink:href="#BitstreamVeraSans-Roman-30"/>
      </g>
     </g>
    </g>
    <g id="xtick_2">
     <g id="line2d_19">
      <g>
       <use style="stroke:#000000;stroke-width:0.5;" x="82.7036386986" xlink:href="#mc7db9fdffb" y="244.518125"/>
      </g>
     </g>
     <g id="line2d_20">
      <g>
       <use style="stroke:#000000;stroke-width:0.5;" x="82.7036386986" xlink:href="#m5a7d422ac3" y="21.318125"/>
      </g>
     </g>
     <g id="text_2">
      <!-- 50 -->
      <defs>
       <path d="
M10.7969 72.9062
L49.5156 72.9062
L49.5156 64.5938
L19.8281 64.5938
L19.8281 46.7344
Q21.9688 47.4688 24.1094 47.8281
Q26.2656 48.1875 28.4219 48.1875
Q40.625 48.1875 47.75 41.5
Q54.8906 34.8125 54.8906 23.3906
Q54.8906 11.625 47.5625 5.09375
Q40.2344 -1.42188 26.9062 -1.42188
Q22.3125 -1.42188 17.5469 -0.640625
Q12.7969 0.140625 7.71875 1.70312
L7.71875 11.625
Q12.1094 9.23438 16.7969 8.0625
Q21.4844 6.89062 26.7031 6.89062
Q35.1562 6.89062 40.0781 11.3281
Q45.0156 15.7656 45.0156 23.3906
Q45.0156 31 40.0781 35.4375
Q35.1562 39.8906 26.7031 39.8906
Q22.75 39.8906 18.8125 39.0156
Q14.8906 38.1406 10.7969 36.2812
z
" id="BitstreamVeraSans-Roman-35"/>
      </defs>
      <g transform="translate(77.0591074486 256.1165625)scale(0.1 -0.1)">
       <use xlink:href="#BitstreamVeraSans-Roman-35"/>
       <use x="63.623046875" xlink:href="#BitstreamVeraSans-Roman-30"/>
      </g>
     </g>
    </g>
    <g id="xtick_3">
     <g id="line2d_21">
      <g>
       <use style="stroke:#000000;stroke-width:0.5;" x="128.566652397" xlink:href="#mc7db9fdffb" y="244.518125"/>
      </g>
     </g>
     <g id="line2d_22">
      <g>
       <use style="stroke:#000000;stroke-width:0.5;" x="128.566652397" xlink:href="#m5a7d422ac3" y="21.318125"/>
      </g>
     </g>
     <g id="text_3">
      <!-- 100 -->
      <defs>
       <path d="
M12.4062 8.29688
L28.5156 8.29688
L28.5156 63.9219
L10.9844 60.4062
L10.9844 69.3906
L28.4219 72.9062
L38.2812 72.9062
L38.2812 8.29688
L54.3906 8.29688
L54.3906 0
L12.4062 0
z
" id="BitstreamVeraSans-Roman-31"/>
      </defs>
      <g transform="translate(119.904152397 256.1165625)scale(0.1 -0.1)">
       <use xlink:href="#BitstreamVeraSans-Roman-31"/>
       <use x="63.623046875" xlink:href="#BitstreamVeraSans-Roman-30"/>
       <use x="127.24609375" xlink:href="#BitstreamVeraSans-Roman-30"/>
      </g>
     </g>
    </g>
    <g id="xtick_4">
     <g id="line2d_23">
      <g>
       <use style="stroke:#000000;stroke-width:0.5;" x="174.429666096" xlink:href="#mc7db9fdffb" y="244.518125"/>
      </g>
     </g>
     <g id="line2d_24">
      <g>
       <use style="stroke:#000000;stroke-width:0.5;" x="174.429666096" xlink:href="#m5a7d422ac3" y="21.318125"/>
      </g>
     </g>
     <g id="text_4">
      <!-- 150 -->
      <g transform="translate(165.767166096 256.1165625)scale(0.1 -0.1)">
       <use xlink:href="#BitstreamVeraSans-Roman-31"/>
       <use x="63.623046875" xlink:href="#BitstreamVeraSans-Roman-35"/>
       <use x="127.24609375" xlink:href="#BitstreamVeraSans-Roman-30"/>
      </g>
     </g>
    </g>
    <g id="xtick_5">
     <g id="line2d_25">
      <g>
       <use style="stroke:#000000;stroke-width:0.5;" x="220.292679795" xlink:href="#mc7db9fdffb" y="244.518125"/>
      </g>
     </g>
     <g id="line2d_26">
      <g>
       <use style="stroke:#000000;stroke-width:0.5;" x="220.292679795" xlink:href="#m5a7d422ac3" y="21.318125"/>
      </g>
     </g>
     <g id="text_5">
      <!-- 200 -->
      <defs>
       <path d="
M19.1875 8.29688
L53.6094 8.29688
L53.6094 0
L7.32812 0
L7.32812 8.29688
Q12.9375 14.1094 22.625 23.8906
Q32.3281 33.6875 34.8125 36.5312
Q39.5469 41.8438 41.4219 45.5312
Q43.3125 49.2188 43.3125 52.7812
Q43.3125 58.5938 39.2344 62.25
Q35.1562 65.9219 28.6094 65.9219
Q23.9688 65.9219 18.8125 64.3125
Q13.6719 62.7031 7.8125 59.4219
L7.8125 69.3906
Q13.7656 71.7812 18.9375 73
Q24.125 74.2188 28.4219 74.2188
Q39.75 74.2188 46.4844 68.5469
Q53.2188 62.8906 53.2188 53.4219
Q53.2188 48.9219 51.5312 44.8906
Q49.8594 40.875 45.4062 35.4062
Q44.1875 33.9844 37.6406 27.2188
Q31.1094 20.4531 19.1875 8.29688" id="BitstreamVeraSans-Roman-32"/>
      </defs>
      <g transform="translate(211.447367295 256.1165625)scale(0.1 -0.1)">
       <use xlink:href="#BitstreamVeraSans-Roman-32"/>
       <use x="63.623046875" xlink:href="#BitstreamVeraSans-Roman-30"/>
       <use x="127.24609375" xlink:href="#BitstreamVeraSans-Roman-30"/>
      </g>
     </g>
    </g>
    <g id="xtick_6">
     <g id="line2d_27">
      <g>
       <use style="stroke:#000000;stroke-width:0.5;" x="266.155693493" xlink:href="#mc7db9fdffb" y="244.518125"/>
      </g>
     </g>
     <g id="line2d_28">
      <g>
       <use style="stroke:#000000;stroke-width:0.5;" x="266.155693493" xlink:href="#m5a7d422ac3" y="21.318125"/>
      </g>
     </g>
     <g id="text_6">
      <!-- 250 -->
      <g transform="translate(257.310380993 256.1165625)scale(0.1 -0.1)">
       <use xlink:href="#BitstreamVeraSans-Roman-32"/>
       <use x="63.623046875" xlink:href="#BitstreamVeraSans-Roman-35"/>
       <use x="127.24609375" xlink:href="#BitstreamVeraSans-Roman-30"/>
      </g>
     </g>
    </g>
    <g id="xtick_7">
     <g id="line2d_29">
      <g>
       <use style="stroke:#000000;stroke-width:0.5;" x="312.018707192" xlink:href="#mc7db9fdffb" y="244.518125"/>
      </g>
     </g>
     <g id="line2d_30">
      <g>
       <use style="stroke:#000000;stroke-width:0.5;" x="312.018707192" xlink:href="#m5a7d422ac3" y="21.318125"/>
      </g>
     </g>
     <g id="text_7">
      <!-- 300 -->
      <defs>
       <path d="
M40.5781 39.3125
Q47.6562 37.7969 51.625 33
Q55.6094 28.2188 55.6094 21.1875
Q55.6094 10.4062 48.1875 4.48438
Q40.7656 -1.42188 27.0938 -1.42188
Q22.5156 -1.42188 17.6562 -0.515625
Q12.7969 0.390625 7.625 2.20312
L7.625 11.7188
Q11.7188 9.32812 16.5938 8.10938
Q21.4844 6.89062 26.8125 6.89062
Q36.0781 6.89062 40.9375 10.5469
Q45.7969 14.2031 45.7969 21.1875
Q45.7969 27.6406 41.2812 31.2656
Q36.7656 34.9062 28.7188 34.9062
L20.2188 34.9062
L20.2188 43.0156
L29.1094 43.0156
Q36.375 43.0156 40.2344 45.9219
Q44.0938 48.8281 44.0938 54.2969
Q44.0938 59.9062 40.1094 62.9062
Q36.1406 65.9219 28.7188 65.9219
Q24.6562 65.9219 20.0156 65.0312
Q15.375 64.1562 9.8125 62.3125
L9.8125 71.0938
Q15.4375 72.6562 20.3438 73.4375
Q25.25 74.2188 29.5938 74.2188
Q40.8281 74.2188 47.3594 69.1094
Q53.9062 64.0156 53.9062 55.3281
Q53.9062 49.2656 50.4375 45.0938
Q46.9688 40.9219 40.5781 39.3125" id="BitstreamVeraSans-Roman-33"/>
      </defs>
      <g transform="translate(303.188238442 256.1165625)scale(0.1 -0.1)">
       <use xlink:href="#BitstreamVeraSans-Roman-33"/>
       <use x="63.623046875" xlink:href="#BitstreamVeraSans-Roman-30"/>
       <use x="127.24609375" xlink:href="#BitstreamVeraSans-Roman-30"/>
      </g>
     </g>
    </g>
    <g id="xtick_8">
     <g id="line2d_31">
      <g>
       <use style="stroke:#000000;stroke-width:0.5;" x="357.88172089" xlink:href="#mc7db9fdffb" y="244.518125"/>
      </g>
     </g>
     <g id="line2d_32">
      <g>
       <use style="stroke:#000000;stroke-width:0.5;" x="357.88172089" xlink:href="#m5a7d422ac3" y="21.318125"/>
      </g>
     </g>
     <g id="text_8">
      <!-- 350 -->
      <g transform="translate(349.05125214 256.1165625)scale(0.1 -0.1)">
       <use xlink:href="#BitstreamVeraSans-Roman-33"/>
       <use x="63.623046875" xlink:href="#BitstreamVeraSans-Roman-35"/>
       <use x="127.24609375" xlink:href="#BitstreamVeraSans-Roman-30"/>
      </g>
     </g>
    </g>
    <g id="text_9">
     <!-- Julian day -->
     <defs>
      <path id="BitstreamVeraSans-Roman-20"/>
      <path d="
M34.2812 27.4844
Q23.3906 27.4844 19.1875 25
Q14.9844 22.5156 14.9844 16.5
Q14.9844 11.7188 18.1406 8.90625
Q21.2969 6.10938 26.7031 6.10938
Q34.1875 6.10938 38.7031 11.4062
Q43.2188 16.7031 43.2188 25.4844
L43.2188 27.4844
z

M52.2031 31.2031
L52.2031 0
L43.2188 0
L43.2188 8.29688
Q40.1406 3.32812 35.5469 0.953125
Q30.9531 -1.42188 24.3125 -1.42188
Q15.9219 -1.42188 10.9531 3.29688
Q6 8.01562 6 15.9219
Q6 25.1406 12.1719 29.8281
Q18.3594 34.5156 30.6094 34.5156
L43.2188 34.5156
L43.2188 35.4062
Q43.2188 41.6094 39.1406 45
Q35.0625 48.3906 27.6875 48.3906
Q23 48.3906 18.5469 47.2656
Q14.1094 46.1406 10.0156 43.8906
L10.0156 52.2031
Q14.9375 54.1094 19.5781 55.0469
Q24.2188 56 28.6094 56
Q40.4844 56 46.3438 49.8438
Q52.2031 43.7031 52.2031 31.2031" id="BitstreamVeraSans-Roman-61"/>
      <path d="
M45.4062 46.3906
L45.4062 75.9844
L54.3906 75.9844
L54.3906 0
L45.4062 0
L45.4062 8.20312
Q42.5781 3.32812 38.25 0.953125
Q33.9375 -1.42188 27.875 -1.42188
Q17.9688 -1.42188 11.7344 6.48438
Q5.51562 14.4062 5.51562 27.2969
Q5.51562 40.1875 11.7344 48.0938
Q17.9688 56 27.875 56
Q33.9375 56 38.25 53.625
Q42.5781 51.2656 45.4062 46.3906
M14.7969 27.2969
Q14.7969 17.3906 18.875 11.75
Q22.9531 6.10938 30.0781 6.10938
Q37.2031 6.10938 41.2969 11.75
Q45.4062 17.3906 45.4062 27.2969
Q45.4062 37.2031 41.2969 42.8438
Q37.2031 48.4844 30.0781 48.4844
Q22.9531 48.4844 18.875 42.8438
Q14.7969 37.2031 14.7969 27.2969" id="BitstreamVeraSans-Roman-64"/>
      <path d="
M9.42188 54.6875
L18.4062 54.6875
L18.4062 0
L9.42188 0
z

M9.42188 75.9844
L18.4062 75.9844
L18.4062 64.5938
L9.42188 64.5938
z
" id="BitstreamVeraSans-Roman-69"/>
      <path d="
M9.42188 75.9844
L18.4062 75.9844
L18.4062 0
L9.42188 0
z
" id="BitstreamVeraSans-Roman-6c"/>
      <path d="
M32.1719 -5.07812
Q28.375 -14.8438 24.75 -17.8125
Q21.1406 -20.7969 15.0938 -20.7969
L7.90625 -20.7969
L7.90625 -13.2812
L13.1875 -13.2812
Q16.8906 -13.2812 18.9375 -11.5156
Q21 -9.76562 23.4844 -3.21875
L25.0938 0.875
L2.98438 54.6875
L12.5 54.6875
L29.5938 11.9219
L46.6875 54.6875
L56.2031 54.6875
z
" id="BitstreamVeraSans-Roman-79"/>
      <path d="
M9.8125 72.9062
L19.6719 72.9062
L19.6719 5.07812
Q19.6719 -8.10938 14.6719 -14.0625
Q9.67188 -20.0156 -1.42188 -20.0156
L-5.17188 -20.0156
L-5.17188 -11.7188
L-2.09375 -11.7188
Q4.4375 -11.7188 7.125 -8.04688
Q9.8125 -4.39062 9.8125 5.07812
z
" id="BitstreamVeraSans-Roman-4a"/>
      <path d="
M54.8906 33.0156
L54.8906 0
L45.9062 0
L45.9062 32.7188
Q45.9062 40.4844 42.875 44.3281
Q39.8438 48.1875 33.7969 48.1875
Q26.5156 48.1875 22.3125 43.5469
Q18.1094 38.9219 18.1094 30.9062
L18.1094 0
L9.07812 0
L9.07812 54.6875
L18.1094 54.6875
L18.1094 46.1875
Q21.3438 51.125 25.7031 53.5625
Q30.0781 56 35.7969 56
Q45.2188 56 50.0469 50.1719
Q54.8906 44.3438 54.8906 33.0156" id="BitstreamVeraSans-Roman-6e"/>
      <path d="
M8.5 21.5781
L8.5 54.6875
L17.4844 54.6875
L17.4844 21.9219
Q17.4844 14.1562 20.5 10.2656
Q23.5312 6.39062 29.5938 6.39062
Q36.8594 6.39062 41.0781 11.0312
Q45.3125 15.6719 45.3125 23.6875
L45.3125 54.6875
L54.2969 54.6875
L54.2969 0
L45.3125 0
L45.3125 8.40625
Q42.0469 3.42188 37.7188 1
Q33.4062 -1.42188 27.6875 -1.42188
Q18.2656 -1.42188 13.375 4.4375
Q8.5 10.2969 8.5 21.5781" id="BitstreamVeraSans-Roman-75"/>
     </defs>
     <g transform="translate(179.68984375 270.7946875)scale(0.1 -0.1)">
      <use xlink:href="#BitstreamVeraSans-Roman-4a"/>
      <use x="29.4921875" xlink:href="#BitstreamVeraSans-Roman-75"/>
      <use x="92.87109375" xlink:href="#BitstreamVeraSans-Roman-6c"/>
      <use x="120.654296875" xlink:href="#BitstreamVeraSans-Roman-69"/>
      <use x="148.4375" xlink:href="#BitstreamVeraSans-Roman-61"/>
      <use x="209.716796875" xlink:href="#BitstreamVeraSans-Roman-6e"/>
      <use x="273.095703125" xlink:href="#BitstreamVeraSans-Roman-20"/>
      <use x="304.8828125" xlink:href="#BitstreamVeraSans-Roman-64"/>
      <use x="368.359375" xlink:href="#BitstreamVeraSans-Roman-61"/>
      <use x="429.638671875" xlink:href="#BitstreamVeraSans-Roman-79"/>
     </g>
    </g>
   </g>
   <g id="matplotlib.axis_2">
    <g id="ytick_1">
     <g id="line2d_33">
      <defs>
       <path d="
M0 0
L4 0" id="md7965d1ba0" style="stroke:#000000;stroke-width:0.5;"/>
      </defs>
      <g>
       <use style="stroke:#000000;stroke-width:0.5;" x="36.840625" xlink:href="#md7965d1ba0" y="244.518125"/>
      </g>
     </g>
     <g id="line2d_34">
      <defs>
       <path d="
M0 0
L-4 0" id="md9a1c1a7cd" style="stroke:#000000;stroke-width:0.5;"/>
      </defs>
      <g>
       <use style="stroke:#000000;stroke-width:0.5;" x="371.640625" xlink:href="#md9a1c1a7cd" y="244.518125"/>
      </g>
     </g>
     <g id="text_10">
      <!-- 0 -->
      <g transform="translate(27.8015625 247.2775)scale(0.1 -0.1)">
       <use xlink:href="#BitstreamVeraSans-Roman-30"/>
      </g>
     </g>
    </g>
    <g id="ytick_2">
     <g id="line2d_35">
      <g>
       <use style="stroke:#000000;stroke-width:0.5;" x="36.840625" xlink:href="#md7965d1ba0" y="199.878125"/>
      </g>
     </g>
     <g id="line2d_36">
      <g>
       <use style="stroke:#000000;stroke-width:0.5;" x="371.640625" xlink:href="#md9a1c1a7cd" y="199.878125"/>
      </g>
     </g>
     <g id="text_11">
      <!-- 2 -->
      <g transform="translate(28.2125 202.6375)scale(0.1 -0.1)">
       <use xlink:href="#BitstreamVeraSans-Roman-32"/>
      </g>
     </g>
    </g>
    <g id="ytick_3">
     <g id="line2d_37">
      <g>
       <use style="stroke:#000000;stroke-width:0.5;" x="36.840625" xlink:href="#md7965d1ba0" y="155.238125"/>
      </g>
     </g>
     <g id="line2d_38">
      <g>
       <use style="stroke:#000000;stroke-width:0.5;" x="371.640625" xlink:href="#md9a1c1a7cd" y="155.238125"/>
      </g>
     </g>
     <g id="text_12">
      <!-- 4 -->
      <defs>
       <path d="
M37.7969 64.3125
L12.8906 25.3906
L37.7969 25.3906
z

M35.2031 72.9062
L47.6094 72.9062
L47.6094 25.3906
L58.0156 25.3906
L58.0156 17.1875
L47.6094 17.1875
L47.6094 0
L37.7969 0
L37.7969 17.1875
L4.89062 17.1875
L4.89062 26.7031
z
" id="BitstreamVeraSans-Roman-34"/>
      </defs>
      <g transform="translate(27.528125 157.9975)scale(0.1 -0.1)">
       <use xlink:href="#BitstreamVeraSans-Roman-34"/>
      </g>
     </g>
    </g>
    <g id="ytick_4">
     <g id="line2d_39">
      <g>
       <use style="stroke:#000000;stroke-width:0.5;" x="36.840625" xlink:href="#md7965d1ba0" y="110.598125"/>
      </g>
     </g>
     <g id="line2d_40">
      <g>
       <use style="stroke:#000000;stroke-width:0.5;" x="371.640625" xlink:href="#md9a1c1a7cd" y="110.598125"/>
      </g>
     </g>
     <g id="text_13">
      <!-- 6 -->
      <defs>
       <path d="
M33.0156 40.375
Q26.375 40.375 22.4844 35.8281
Q18.6094 31.2969 18.6094 23.3906
Q18.6094 15.5312 22.4844 10.9531
Q26.375 6.39062 33.0156 6.39062
Q39.6562 6.39062 43.5312 10.9531
Q47.4062 15.5312 47.4062 23.3906
Q47.4062 31.2969 43.5312 35.8281
Q39.6562 40.375 33.0156 40.375
M52.5938 71.2969
L52.5938 62.3125
Q48.875 64.0625 45.0938 64.9844
Q41.3125 65.9219 37.5938 65.9219
Q27.8281 65.9219 22.6719 59.3281
Q17.5312 52.7344 16.7969 39.4062
Q19.6719 43.6562 24.0156 45.9219
Q28.375 48.1875 33.5938 48.1875
Q44.5781 48.1875 50.9531 41.5156
Q57.3281 34.8594 57.3281 23.3906
Q57.3281 12.1562 50.6875 5.35938
Q44.0469 -1.42188 33.0156 -1.42188
Q20.3594 -1.42188 13.6719 8.26562
Q6.98438 17.9688 6.98438 36.375
Q6.98438 53.6562 15.1875 63.9375
Q23.3906 74.2188 37.2031 74.2188
Q40.9219 74.2188 44.7031 73.4844
Q48.4844 72.75 52.5938 71.2969" id="BitstreamVeraSans-Roman-36"/>
      </defs>
      <g transform="translate(27.80625 113.3575)scale(0.1 -0.1)">
       <use xlink:href="#BitstreamVeraSans-Roman-36"/>
      </g>
     </g>
    </g>
    <g id="ytick_5">
     <g id="line2d_41">
      <g>
       <use style="stroke:#000000;stroke-width:0.5;" x="36.840625" xlink:href="#md7965d1ba0" y="65.958125"/>
      </g>
     </g>
     <g id="line2d_42">
      <g>
       <use style="stroke:#000000;stroke-width:0.5;" x="371.640625" xlink:href="#md9a1c1a7cd" y="65.958125"/>
      </g>
     </g>
     <g id="text_14">
      <!-- 8 -->
      <defs>
       <path d="
M31.7812 34.625
Q24.75 34.625 20.7188 30.8594
Q16.7031 27.0938 16.7031 20.5156
Q16.7031 13.9219 20.7188 10.1562
Q24.75 6.39062 31.7812 6.39062
Q38.8125 6.39062 42.8594 10.1719
Q46.9219 13.9688 46.9219 20.5156
Q46.9219 27.0938 42.8906 30.8594
Q38.875 34.625 31.7812 34.625
M21.9219 38.8125
Q15.5781 40.375 12.0312 44.7188
Q8.5 49.0781 8.5 55.3281
Q8.5 64.0625 14.7188 69.1406
Q20.9531 74.2188 31.7812 74.2188
Q42.6719 74.2188 48.875 69.1406
Q55.0781 64.0625 55.0781 55.3281
Q55.0781 49.0781 51.5312 44.7188
Q48 40.375 41.7031 38.8125
Q48.8281 37.1562 52.7969 32.3125
Q56.7812 27.4844 56.7812 20.5156
Q56.7812 9.90625 50.3125 4.23438
Q43.8438 -1.42188 31.7812 -1.42188
Q19.7344 -1.42188 13.25 4.23438
Q6.78125 9.90625 6.78125 20.5156
Q6.78125 27.4844 10.7812 32.3125
Q14.7969 37.1562 21.9219 38.8125
M18.3125 54.3906
Q18.3125 48.7344 21.8438 45.5625
Q25.3906 42.3906 31.7812 42.3906
Q38.1406 42.3906 41.7188 45.5625
Q45.3125 48.7344 45.3125 54.3906
Q45.3125 60.0625 41.7188 63.2344
Q38.1406 66.4062 31.7812 66.4062
Q25.3906 66.4062 21.8438 63.2344
Q18.3125 60.0625 18.3125 54.3906" id="BitstreamVeraSans-Roman-38"/>
      </defs>
      <g transform="translate(27.840625 68.7175)scale(0.1 -0.1)">
       <use xlink:href="#BitstreamVeraSans-Roman-38"/>
      </g>
     </g>
    </g>
    <g id="ytick_6">
     <g id="line2d_43">
      <g>
       <use style="stroke:#000000;stroke-width:0.5;" x="36.840625" xlink:href="#md7965d1ba0" y="21.318125"/>
      </g>
     </g>
     <g id="line2d_44">
      <g>
       <use style="stroke:#000000;stroke-width:0.5;" x="371.640625" xlink:href="#md9a1c1a7cd" y="21.318125"/>
      </g>
     </g>
     <g id="text_15">
      <!-- 10 -->
      <g transform="translate(21.878125 24.0775)scale(0.1 -0.1)">
       <use xlink:href="#BitstreamVeraSans-Roman-31"/>
       <use x="63.623046875" xlink:href="#BitstreamVeraSans-Roman-30"/>
      </g>
     </g>
    </g>
    <g id="text_16">
     <!-- PET (mm/day) -->
     <defs>
      <path d="
M25.3906 72.9062
L33.6875 72.9062
L8.29688 -9.28125
L0 -9.28125
z
" id="BitstreamVeraSans-Roman-2f"/>
      <path d="
M31 75.875
Q24.4688 64.6562 21.2812 53.6562
Q18.1094 42.6719 18.1094 31.3906
Q18.1094 20.125 21.3125 9.0625
Q24.5156 -2 31 -13.1875
L23.1875 -13.1875
Q15.875 -1.70312 12.2344 9.375
Q8.59375 20.4531 8.59375 31.3906
Q8.59375 42.2812 12.2031 53.3125
Q15.8281 64.3594 23.1875 75.875
z
" id="BitstreamVeraSans-Roman-28"/>
      <path d="
M52 44.1875
Q55.375 50.25 60.0625 53.125
Q64.75 56 71.0938 56
Q79.6406 56 84.2812 50.0156
Q88.9219 44.0469 88.9219 33.0156
L88.9219 0
L79.8906 0
L79.8906 32.7188
Q79.8906 40.5781 77.0938 44.375
Q74.3125 48.1875 68.6094 48.1875
Q61.625 48.1875 57.5625 43.5469
Q53.5156 38.9219 53.5156 30.9062
L53.5156 0
L44.4844 0
L44.4844 32.7188
Q44.4844 40.625 41.7031 44.4062
Q38.9219 48.1875 33.1094 48.1875
Q26.2188 48.1875 22.1562 43.5312
Q18.1094 38.875 18.1094 30.9062
L18.1094 0
L9.07812 0
L9.07812 54.6875
L18.1094 54.6875
L18.1094 46.1875
Q21.1875 51.2188 25.4844 53.6094
Q29.7812 56 35.6875 56
Q41.6562 56 45.8281 52.9688
Q50 49.9531 52 44.1875" id="BitstreamVeraSans-Roman-6d"/>
      <path d="
M19.6719 64.7969
L19.6719 37.4062
L32.0781 37.4062
Q38.9688 37.4062 42.7188 40.9688
Q46.4844 44.5312 46.4844 51.125
Q46.4844 57.6719 42.7188 61.2344
Q38.9688 64.7969 32.0781 64.7969
z

M9.8125 72.9062
L32.0781 72.9062
Q44.3438 72.9062 50.6094 67.3594
Q56.8906 61.8125 56.8906 51.125
Q56.8906 40.3281 50.6094 34.8125
Q44.3438 29.2969 32.0781 29.2969
L19.6719 29.2969
L19.6719 0
L9.8125 0
z
" id="BitstreamVeraSans-Roman-50"/>
      <path d="
M8.01562 75.875
L15.8281 75.875
Q23.1406 64.3594 26.7812 53.3125
Q30.4219 42.2812 30.4219 31.3906
Q30.4219 20.4531 26.7812 9.375
Q23.1406 -1.70312 15.8281 -13.1875
L8.01562 -13.1875
Q14.5 -2 17.7031 9.0625
Q20.9062 20.125 20.9062 31.3906
Q20.9062 42.6719 17.7031 53.6562
Q14.5 64.6562 8.01562 75.875" id="BitstreamVeraSans-Roman-29"/>
      <path d="
M-0.296875 72.9062
L61.375 72.9062
L61.375 64.5938
L35.5 64.5938
L35.5 0
L25.5938 0
L25.5938 64.5938
L-0.296875 64.5938
z
" id="BitstreamVeraSans-Roman-54"/>
      <path d="
M9.8125 72.9062
L55.9062 72.9062
L55.9062 64.5938
L19.6719 64.5938
L19.6719 43.0156
L54.3906 43.0156
L54.3906 34.7188
L19.6719 34.7188
L19.6719 8.29688
L56.7812 8.29688
L56.7812 0
L9.8125 0
z
" id="BitstreamVeraSans-Roman-45"/>
     </defs>
     <g transform="translate(14.7984375 167.82984375)rotate(-90.0)scale(0.1 -0.1)">
      <use xlink:href="#BitstreamVeraSans-Roman-50"/>
      <use x="60.302734375" xlink:href="#BitstreamVeraSans-Roman-45"/>
      <use x="123.486328125" xlink:href="#BitstreamVeraSans-Roman-54"/>
      <use x="184.5703125" xlink:href="#BitstreamVeraSans-Roman-20"/>
      <use x="216.357421875" xlink:href="#BitstreamVeraSans-Roman-28"/>
      <use x="255.37109375" xlink:href="#BitstreamVeraSans-Roman-6d"/>
      <use x="352.783203125" xlink:href="#BitstreamVeraSans-Roman-6d"/>
      <use x="450.1953125" xlink:href="#BitstreamVeraSans-Roman-2f"/>
      <use x="483.88671875" xlink:href="#BitstreamVeraSans-Roman-64"/>
      <use x="547.36328125" xlink:href="#BitstreamVeraSans-Roman-61"/>
      <use x="608.642578125" xlink:href="#BitstreamVeraSans-Roman-79"/>
      <use x="667.822265625" xlink:href="#BitstreamVeraSans-Roman-29"/>
     </g>
    </g>
   </g>
   <g id="text_17">
    <!-- daily tree PET at Treeline -->
    <defs>
     <path d="
M56.2031 29.5938
L56.2031 25.2031
L14.8906 25.2031
Q15.4844 15.9219 20.4844 11.0625
Q25.4844 6.20312 34.4219 6.20312
Q39.5938 6.20312 44.4531 7.46875
Q49.3125 8.73438 54.1094 11.2812
L54.1094 2.78125
Q49.2656 0.734375 44.1875 -0.34375
Q39.1094 -1.42188 33.8906 -1.42188
Q20.7969 -1.42188 13.1562 6.1875
Q5.51562 13.8125 5.51562 26.8125
Q5.51562 40.2344 12.7656 48.1094
Q20.0156 56 32.3281 56
Q43.3594 56 49.7812 48.8906
Q56.2031 41.7969 56.2031 29.5938
M47.2188 32.2344
Q47.125 39.5938 43.0938 43.9844
Q39.0625 48.3906 32.4219 48.3906
Q24.9062 48.3906 20.3906 44.1406
Q15.875 39.8906 15.1875 32.1719
z
" id="BitstreamVeraSans-Roman-65"/>
     <path d="
M18.3125 70.2188
L18.3125 54.6875
L36.8125 54.6875
L36.8125 47.7031
L18.3125 47.7031
L18.3125 18.0156
Q18.3125 11.3281 20.1406 9.42188
Q21.9688 7.51562 27.5938 7.51562
L36.8125 7.51562
L36.8125 0
L27.5938 0
Q17.1875 0 13.2344 3.875
Q9.28125 7.76562 9.28125 18.0156
L9.28125 47.7031
L2.6875 47.7031
L2.6875 54.6875
L9.28125 54.6875
L9.28125 70.2188
z
" id="BitstreamVeraSans-Roman-74"/>
     <path d="
M41.1094 46.2969
Q39.5938 47.1719 37.8125 47.5781
Q36.0312 48 33.8906 48
Q26.2656 48 22.1875 43.0469
Q18.1094 38.0938 18.1094 28.8125
L18.1094 0
L9.07812 0
L9.07812 54.6875
L18.1094 54.6875
L18.1094 46.1875
Q20.9531 51.1719 25.4844 53.5781
Q30.0312 56 36.5312 56
Q37.4531 56 38.5781 55.875
Q39.7031 55.7656 41.0625 55.5156
z
" id="BitstreamVeraSans-Roman-72"/>
    </defs>
    <g transform="translate(130.0684375 16.318125)scale(0.12 -0.12)">
     <use xlink:href="#BitstreamVeraSans-Roman-64"/>
     <use x="63.4765625" xlink:href="#BitstreamVeraSans-Roman-61"/>
     <use x="124.755859375" xlink:href="#BitstreamVeraSans-Roman-69"/>
     <use x="152.5390625" xlink:href="#BitstreamVeraSans-Roman-6c"/>
     <use x="180.322265625" xlink:href="#BitstreamVeraSans-Roman-79"/>
     <use x="239.501953125" xlink:href="#BitstreamVeraSans-Roman-20"/>
     <use x="271.2890625" xlink:href="#BitstreamVeraSans-Roman-74"/>
     <use x="310.498046875" xlink:href="#BitstreamVeraSans-Roman-72"/>
     <use x="349.361328125" xlink:href="#BitstreamVeraSans-Roman-65"/>
     <use x="410.884765625" xlink:href="#BitstreamVeraSans-Roman-65"/>
     <use x="472.408203125" xlink:href="#BitstreamVeraSans-Roman-20"/>
     <use x="504.1953125" xlink:href="#BitstreamVeraSans-Roman-50"/>
     <use x="564.498046875" xlink:href="#BitstreamVeraSans-Roman-45"/>
     <use x="627.681640625" xlink:href="#BitstreamVeraSans-Roman-54"/>
     <use x="688.765625" xlink:href="#BitstreamVeraSans-Roman-20"/>
     <use x="720.552734375" xlink:href="#BitstreamVeraSans-Roman-61"/>
     <use x="781.83203125" xlink:href="#BitstreamVeraSans-Roman-74"/>
     <use x="821.041015625" xlink:href="#BitstreamVeraSans-Roman-20"/>
     <use x="852.828125" xlink:href="#BitstreamVeraSans-Roman-54"/>
     <use x="899.162109375" xlink:href="#BitstreamVeraSans-Roman-72"/>
     <use x="938.025390625" xlink:href="#BitstreamVeraSans-Roman-65"/>
     <use x="999.548828125" xlink:href="#BitstreamVeraSans-Roman-65"/>
     <use x="1061.072265625" xlink:href="#BitstreamVeraSans-Roman-6c"/>
     <use x="1088.85546875" xlink:href="#BitstreamVeraSans-Roman-69"/>
     <use x="1116.638671875" xlink:href="#BitstreamVeraSans-Roman-6e"/>
     <use x="1180.017578125" xlink:href="#BitstreamVeraSans-Roman-65"/>
    </g>
   </g>
   <g id="legend_1">
    <g id="patch_7">
     <path d="
M293.453 312.738
L365.641 312.738
L365.641 27.3181
L293.453 27.3181
z
" style="fill:#ffffff;stroke:#000000;stroke-linejoin:miter;"/>
    </g>
    <g id="line2d_45">
     <path d="
M301.853 37.0363
L318.653 37.0363" style="fill:none;stroke:#0000ff;stroke-linecap:square;"/>
    </g>
    <g id="line2d_46"/>
    <g id="text_18">
     <!-- 1999 -->
     <defs>
      <path d="
M10.9844 1.51562
L10.9844 10.5
Q14.7031 8.73438 18.5 7.8125
Q22.3125 6.89062 25.9844 6.89062
Q35.75 6.89062 40.8906 13.4531
Q46.0469 20.0156 46.7812 33.4062
Q43.9531 29.2031 39.5938 26.9531
Q35.25 24.7031 29.9844 24.7031
Q19.0469 24.7031 12.6719 31.3125
Q6.29688 37.9375 6.29688 49.4219
Q6.29688 60.6406 12.9375 67.4219
Q19.5781 74.2188 30.6094 74.2188
Q43.2656 74.2188 49.9219 64.5156
Q56.5938 54.8281 56.5938 36.375
Q56.5938 19.1406 48.4062 8.85938
Q40.2344 -1.42188 26.4219 -1.42188
Q22.7031 -1.42188 18.8906 -0.6875
Q15.0938 0.046875 10.9844 1.51562
M30.6094 32.4219
Q37.25 32.4219 41.125 36.9531
Q45.0156 41.5 45.0156 49.4219
Q45.0156 57.2812 41.125 61.8438
Q37.25 66.4062 30.6094 66.4062
Q23.9688 66.4062 20.0938 61.8438
Q16.2188 57.2812 16.2188 49.4219
Q16.2188 41.5 20.0938 36.9531
Q23.9688 32.4219 30.6094 32.4219" id="BitstreamVeraSans-Roman-39"/>
     </defs>
     <g transform="translate(331.853125 41.23625)scale(0.12 -0.12)">
      <use xlink:href="#BitstreamVeraSans-Roman-31"/>
      <use x="63.623046875" xlink:href="#BitstreamVeraSans-Roman-39"/>
      <use x="127.24609375" xlink:href="#BitstreamVeraSans-Roman-39"/>
      <use x="190.869140625" xlink:href="#BitstreamVeraSans-Roman-39"/>
     </g>
    </g>
    <g id="line2d_47">
     <path d="
M301.853 54.65
L318.653 54.65" style="fill:none;stroke:#008000;stroke-linecap:square;"/>
    </g>
    <g id="line2d_48"/>
    <g id="text_19">
     <!-- 2000 -->
     <g transform="translate(331.853125 58.85)scale(0.12 -0.12)">
      <use xlink:href="#BitstreamVeraSans-Roman-32"/>
      <use x="63.623046875" xlink:href="#BitstreamVeraSans-Roman-30"/>
      <use x="127.24609375" xlink:href="#BitstreamVeraSans-Roman-30"/>
      <use x="190.869140625" xlink:href="#BitstreamVeraSans-Roman-30"/>
     </g>
    </g>
    <g id="line2d_49">
     <path d="
M301.853 72.2638
L318.653 72.2638" style="fill:none;stroke:#ff0000;stroke-linecap:square;"/>
    </g>
    <g id="line2d_50"/>
    <g id="text_20">
     <!-- 2001 -->
     <g transform="translate(331.853125 76.46375)scale(0.12 -0.12)">
      <use xlink:href="#BitstreamVeraSans-Roman-32"/>
      <use x="63.623046875" xlink:href="#BitstreamVeraSans-Roman-30"/>
      <use x="127.24609375" xlink:href="#BitstreamVeraSans-Roman-30"/>
      <use x="190.869140625" xlink:href="#BitstreamVeraSans-Roman-31"/>
     </g>
    </g>
    <g id="line2d_51">
     <path d="
M301.853 89.8775
L318.653 89.8775" style="fill:none;stroke:#00bfbf;stroke-linecap:square;"/>
    </g>
    <g id="line2d_52"/>
    <g id="text_21">
     <!-- 2002 -->
     <g transform="translate(331.853125 94.0775)scale(0.12 -0.12)">
      <use xlink:href="#BitstreamVeraSans-Roman-32"/>
      <use x="63.623046875" xlink:href="#BitstreamVeraSans-Roman-30"/>
      <use x="127.24609375" xlink:href="#BitstreamVeraSans-Roman-30"/>
      <use x="190.869140625" xlink:href="#BitstreamVeraSans-Roman-32"/>
     </g>
    </g>
    <g id="line2d_53">
     <path d="
M301.853 107.491
L318.653 107.491" style="fill:none;stroke:#bf00bf;stroke-linecap:square;"/>
    </g>
    <g id="line2d_54"/>
    <g id="text_22">
     <!-- 2003 -->
     <g transform="translate(331.853125 111.69125)scale(0.12 -0.12)">
      <use xlink:href="#BitstreamVeraSans-Roman-32"/>
      <use x="63.623046875" xlink:href="#BitstreamVeraSans-Roman-30"/>
      <use x="127.24609375" xlink:href="#BitstreamVeraSans-Roman-30"/>
      <use x="190.869140625" xlink:href="#BitstreamVeraSans-Roman-33"/>
     </g>
    </g>
    <g id="line2d_55">
     <path d="
M301.853 125.105
L318.653 125.105" style="fill:none;stroke:#bfbf00;stroke-linecap:square;"/>
    </g>
    <g id="line2d_56"/>
    <g id="text_23">
     <!-- 2004 -->
     <g transform="translate(331.853125 129.305)scale(0.12 -0.12)">
      <use xlink:href="#BitstreamVeraSans-Roman-32"/>
      <use x="63.623046875" xlink:href="#BitstreamVeraSans-Roman-30"/>
      <use x="127.24609375" xlink:href="#BitstreamVeraSans-Roman-30"/>
      <use x="190.869140625" xlink:href="#BitstreamVeraSans-Roman-34"/>
     </g>
    </g>
    <g id="line2d_57">
     <path d="
M301.853 142.719
L318.653 142.719" style="fill:none;stroke:#000000;stroke-linecap:square;"/>
    </g>
    <g id="line2d_58"/>
    <g id="text_24">
     <!-- 2005 -->
     <g transform="translate(331.853125 146.91875)scale(0.12 -0.12)">
      <use xlink:href="#BitstreamVeraSans-Roman-32"/>
      <use x="63.623046875" xlink:href="#BitstreamVeraSans-Roman-30"/>
      <use x="127.24609375" xlink:href="#BitstreamVeraSans-Roman-30"/>
      <use x="190.869140625" xlink:href="#BitstreamVeraSans-Roman-35"/>
     </g>
    </g>
    <g id="line2d_59">
     <path d="
M301.853 160.333
L318.653 160.333" style="fill:none;stroke:#0000ff;stroke-linecap:square;"/>
    </g>
    <g id="line2d_60"/>
    <g id="text_25">
     <!-- 2006 -->
     <g transform="translate(331.853125 164.5325)scale(0.12 -0.12)">
      <use xlink:href="#BitstreamVeraSans-Roman-32"/>
      <use x="63.623046875" xlink:href="#BitstreamVeraSans-Roman-30"/>
      <use x="127.24609375" xlink:href="#BitstreamVeraSans-Roman-30"/>
      <use x="190.869140625" xlink:href="#BitstreamVeraSans-Roman-36"/>
     </g>
    </g>
    <g id="line2d_61">
     <path d="
M301.853 177.946
L318.653 177.946" style="fill:none;stroke:#008000;stroke-linecap:square;"/>
    </g>
    <g id="line2d_62"/>
    <g id="text_26">
     <!-- 2007 -->
     <defs>
      <path d="
M8.20312 72.9062
L55.0781 72.9062
L55.0781 68.7031
L28.6094 0
L18.3125 0
L43.2188 64.5938
L8.20312 64.5938
z
" id="BitstreamVeraSans-Roman-37"/>
     </defs>
     <g transform="translate(331.853125 182.14625)scale(0.12 -0.12)">
      <use xlink:href="#BitstreamVeraSans-Roman-32"/>
      <use x="63.623046875" xlink:href="#BitstreamVeraSans-Roman-30"/>
      <use x="127.24609375" xlink:href="#BitstreamVeraSans-Roman-30"/>
      <use x="190.869140625" xlink:href="#BitstreamVeraSans-Roman-37"/>
     </g>
    </g>
    <g id="line2d_63">
     <path d="
M301.853 195.56
L318.653 195.56" style="fill:none;stroke:#ff0000;stroke-linecap:square;"/>
    </g>
    <g id="line2d_64"/>
    <g id="text_27">
     <!-- 2008 -->
     <g transform="translate(331.853125 199.76)scale(0.12 -0.12)">
      <use xlink:href="#BitstreamVeraSans-Roman-32"/>
      <use x="63.623046875" xlink:href="#BitstreamVeraSans-Roman-30"/>
      <use x="127.24609375" xlink:href="#BitstreamVeraSans-Roman-30"/>
      <use x="190.869140625" xlink:href="#BitstreamVeraSans-Roman-38"/>
     </g>
    </g>
    <g id="line2d_65">
     <path d="
M301.853 213.174
L318.653 213.174" style="fill:none;stroke:#00bfbf;stroke-linecap:square;"/>
    </g>
    <g id="line2d_66"/>
    <g id="text_28">
     <!-- 2009 -->
     <g transform="translate(331.853125 217.37375)scale(0.12 -0.12)">
      <use xlink:href="#BitstreamVeraSans-Roman-32"/>
      <use x="63.623046875" xlink:href="#BitstreamVeraSans-Roman-30"/>
      <use x="127.24609375" xlink:href="#BitstreamVeraSans-Roman-30"/>
      <use x="190.869140625" xlink:href="#BitstreamVeraSans-Roman-39"/>
     </g>
    </g>
    <g id="line2d_67">
     <path d="
M301.853 230.788
L318.653 230.788" style="fill:none;stroke:#bf00bf;stroke-linecap:square;"/>
    </g>
    <g id="line2d_68"/>
    <g id="text_29">
     <!-- 2010 -->
     <g transform="translate(331.853125 234.9875)scale(0.12 -0.12)">
      <use xlink:href="#BitstreamVeraSans-Roman-32"/>
      <use x="63.623046875" xlink:href="#BitstreamVeraSans-Roman-30"/>
      <use x="127.24609375" xlink:href="#BitstreamVeraSans-Roman-31"/>
      <use x="190.869140625" xlink:href="#BitstreamVeraSans-Roman-30"/>
     </g>
    </g>
    <g id="line2d_69">
     <path d="
M301.853 248.401
L318.653 248.401" style="fill:none;stroke:#bfbf00;stroke-linecap:square;"/>
    </g>
    <g id="line2d_70"/>
    <g id="text_30">
     <!-- 2011 -->
     <g transform="translate(331.853125 252.60125)scale(0.12 -0.12)">
      <use xlink:href="#BitstreamVeraSans-Roman-32"/>
      <use x="63.623046875" xlink:href="#BitstreamVeraSans-Roman-30"/>
      <use x="127.24609375" xlink:href="#BitstreamVeraSans-Roman-31"/>
      <use x="190.869140625" xlink:href="#BitstreamVeraSans-Roman-31"/>
     </g>
    </g>
    <g id="line2d_71">
     <path d="
M301.853 266.015
L318.653 266.015" style="fill:none;stroke:#000000;stroke-linecap:square;"/>
    </g>
    <g id="line2d_72"/>
    <g id="text_31">
     <!-- 2012 -->
     <g transform="translate(331.853125 270.215)scale(0.12 -0.12)">
      <use xlink:href="#BitstreamVeraSans-Roman-32"/>
      <use x="63.623046875" xlink:href="#BitstreamVeraSans-Roman-30"/>
      <use x="127.24609375" xlink:href="#BitstreamVeraSans-Roman-31"/>
      <use x="190.869140625" xlink:href="#BitstreamVeraSans-Roman-32"/>
     </g>
    </g>
    <g id="line2d_73">
     <path d="
M301.853 283.629
L318.653 283.629" style="fill:none;stroke:#0000ff;stroke-linecap:square;"/>
    </g>
    <g id="line2d_74"/>
    <g id="text_32">
     <!-- 2013 -->
     <g transform="translate(331.853125 287.82875)scale(0.12 -0.12)">
      <use xlink:href="#BitstreamVeraSans-Roman-32"/>
      <use x="63.623046875" xlink:href="#BitstreamVeraSans-Roman-30"/>
      <use x="127.24609375" xlink:href="#BitstreamVeraSans-Roman-31"/>
      <use x="190.869140625" xlink:href="#BitstreamVeraSans-Roman-33"/>
     </g>
    </g>
    <g id="line2d_75">
     <path d="
M301.853 301.243
L318.653 301.243" style="fill:none;stroke:#008000;stroke-linecap:square;"/>
    </g>
    <g id="line2d_76"/>
    <g id="text_33">
     <!-- 2014 -->
     <g transform="translate(331.853125 305.4425)scale(0.12 -0.12)">
      <use xlink:href="#BitstreamVeraSans-Roman-32"/>
      <use x="63.623046875" xlink:href="#BitstreamVeraSans-Roman-30"/>
      <use x="127.24609375" xlink:href="#BitstreamVeraSans-Roman-31"/>
      <use x="190.869140625" xlink:href="#BitstreamVeraSans-Roman-34"/>
     </g>
    </g>
   </g>
  </g>
 </g>
 <defs>
  <clipPath id="pd0c402dd48">
   <rect height="223.2" width="334.8" x="36.840625" y="21.318125"/>
  </clipPath>
 </defs>
</svg>
