<?xml version="1.0" encoding="utf-8" standalone="no"?>
<!DOCTYPE svg PUBLIC "-//W3C//DTD SVG 1.1//EN"
  "http://www.w3.org/Graphics/SVG/1.1/DTD/svg11.dtd">
<!-- Created with matplotlib (http://matplotlib.org/) -->
<svg height="319pt" version="1.1" viewBox="0 0 373 319" width="373pt" xmlns="http://www.w3.org/2000/svg" xmlns:xlink="http://www.w3.org/1999/xlink">
 <defs>
  <style type="text/css">
*{stroke-linecap:butt;stroke-linejoin:round;}
  </style>
 </defs>
 <g id="figure_1">
  <g id="patch_1">
   <path d="
M0 319.938
L373.191 319.938
L373.191 0
L0 0
z
" style="fill:#ffffff;"/>
  </g>
  <g id="axes_1">
   <g id="patch_2">
    <path d="
M31.1906 244.518
L365.991 244.518
L365.991 21.3181
L31.1906 21.3181
z
" style="fill:#ffffff;"/>
   </g>
   <g id="line2d_1">
    <path clip-path="url(#p95a2ee5e18)" d="
M0 0" style="fill:none;stroke:#0000ff;stroke-linecap:square;"/>
   </g>
   <g id="line2d_2">
    <path clip-path="url(#p95a2ee5e18)" d="
M0 0" style="fill:none;stroke:#008000;stroke-linecap:square;"/>
   </g>
   <g id="line2d_3">
    <path clip-path="url(#p95a2ee5e18)" d="
M0 0" style="fill:none;stroke:#ff0000;stroke-linecap:square;"/>
   </g>
   <g id="line2d_4">
    <path clip-path="url(#p95a2ee5e18)" d="
M0 0" style="fill:none;stroke:#00bfbf;stroke-linecap:square;"/>
   </g>
   <g id="line2d_5">
    <path clip-path="url(#p95a2ee5e18)" d="
M0 0" style="fill:none;stroke:#bf00bf;stroke-linecap:square;"/>
   </g>
   <g id="line2d_6">
    <path clip-path="url(#p95a2ee5e18)" d="
M0 0" style="fill:none;stroke:#bfbf00;stroke-linecap:square;"/>
   </g>
   <g id="line2d_7">
    <path clip-path="url(#p95a2ee5e18)" d="
M0 0" style="fill:none;stroke:#000000;stroke-linecap:square;"/>
   </g>
   <g id="line2d_8">
    <path clip-path="url(#p95a2ee5e18)" d="
M0 0" style="fill:none;stroke:#0000ff;stroke-linecap:square;"/>
   </g>
   <g id="line2d_9">
    <path clip-path="url(#p95a2ee5e18)" d="
M0 0" style="fill:none;stroke:#008000;stroke-linecap:square;"/>
   </g>
   <g id="line2d_10">
    <path clip-path="url(#p95a2ee5e18)" d="
M31.1906 191.393
L32.1079 175.217
L33.0251 183.132
L33.9424 221.03
L34.8597 229.983
L35.7769 231.948
L36.6942 235.226
L37.6114 234.019
L38.5287 222.926
L39.446 232.5
M41.2805 231.56
L42.1977 231.394
L43.115 222.141
L44.0323 218.052
L44.9495 205.917
L45.8668 214.3
L46.784 217.069
L47.7013 213.493
L48.6186 238.993
L49.5358 239.17
L50.4531 219.043
L51.3704 206.064
L52.2876 211.126
L53.2049 224.951
L54.1221 220.875
L55.0394 221.003
L55.9567 231.553
L56.8739 235.273
M58.7084 242.978
L59.6257 235.065
L60.543 232.125
M62.3775 227.082
L63.2947 223.965
L64.212 227.165
L65.1293 241.603
L66.0465 217.368
L66.9638 227.746
L67.881 213.142
L68.7983 215.596
L69.7156 213.809
L70.6328 222.616
L71.5501 203.25
L72.4673 203.48
L73.3846 208.816
L74.3019 194.391
L75.2191 202.331
L76.1364 207.14
L77.9709 222.265
L78.8882 235.854
L79.8054 222.775
L80.7227 226.661
L81.6399 239.435
L82.5572 213.169
L83.4745 216.325
L85.309 204.086
L86.2262 223.529
L87.1435 222.618
L88.0608 206.378
L88.978 211.251
L89.8953 202.997
L90.8125 187.933
L91.7298 196.224
L92.6471 215.529
L93.5643 204.965
L94.4816 198.975
L95.3988 189.479
L96.3161 175.246
L97.2334 223.782
L98.1506 230.181
L99.0679 212.204
L99.9851 215.095
L100.902 202.949
L101.82 239.655
L102.737 232.343
L103.654 210.403
L104.571 183.339
L105.489 176.045
L106.406 187.236
L107.323 218.673
L108.24 217.587
L109.158 234.376
L110.075 194.786
L110.992 222.194
L111.91 204.632
L112.827 204.2
L113.744 206.015
L114.661 175.093
L115.579 172.654
L116.496 172.929
L117.413 204.305
L118.33 192.439
L119.248 207.022
L120.165 218.114
L121.082 189.717
L122.917 210.048
L123.834 181.742
L124.751 181.753
L125.668 187.982
L126.586 204.758
L127.503 197.665
L128.42 186.605
L129.337 171.117
L130.255 172.103
L131.172 181.968
L132.089 186.796
L133.007 181.561
L133.924 167.669
L134.841 204.393
L135.758 203.241
L136.676 160.106
L137.593 141.013
L138.51 151.795
L139.427 156.242
L140.345 202.997
L141.262 156.227
L142.179 158.095
L143.096 145.346
L144.014 150.8
L145.848 159.717
L146.765 171.284
L147.683 188.212
L148.6 159.097
L149.517 147.873
L150.434 151.46
L151.352 163
L152.269 157.121
L153.186 168.603
L154.104 201.572
L155.021 177.622
L155.938 171.626
L156.855 171.32
L157.773 178.937
L158.69 172.297
L159.607 209.295
L160.524 194.523
L161.442 193.621
L162.359 207.055
L163.276 177.078
L164.193 196.099
L165.111 209.453
L166.028 207.908
L166.945 189.654
L167.862 192.198
L168.78 186.519
L169.697 186.013
L170.614 208.193
L171.531 165.638
L172.449 214.698
L173.366 194.468
L174.283 169.538
L175.2 163.653
L176.118 184.292
L177.035 149.81
L177.952 181.358
L178.87 190.152
L179.787 194.387
L180.704 164.822
L181.621 158.763
L182.539 158.993
L183.456 163.651
L184.373 167.1
L185.29 166.397
L186.208 162.741
L187.125 162.613
L188.042 173.532
L188.959 192.852
L189.877 177.375
L190.794 169.403
L191.711 172.46
L192.628 164.955
L193.546 169.431
L194.463 171.945
L195.38 176.67
L196.297 180.341
L197.215 188.679
L198.132 191.21
L199.049 175.554
L199.967 181.427
L200.884 184.436
L201.801 178.951
L202.718 172.428
L203.636 174.071
L204.553 174.278
L205.47 175.318
L206.387 171.247
L207.305 161.205
L208.222 167.172
L209.139 172.115
L210.056 174.064
L210.974 175.545
L211.891 178.75
L212.808 176.384
L213.725 170.208
L214.643 171.054
L215.56 177.988
L217.394 201.706
L218.312 178.606
L219.229 176.459
L220.146 179
L221.064 178.029
L221.981 177.893
L222.898 177.983
L223.815 190.846
L224.733 173.134
L225.65 174.573
L226.567 181.455
L227.484 177.065
L228.402 177.065
L229.319 178.386
L230.236 190.373
L231.153 195.784
L232.071 191.053
L232.988 197.66
L233.905 182.344
L234.822 172.82
L235.74 175.889
L236.657 179.768
L237.574 180.815
L238.491 182.908
L239.409 182.759
L240.326 180.547
L241.243 183.827
L242.16 192.049
L243.078 192.827
L243.995 184.47
L244.912 189.654
L245.83 172.315
L246.747 177.967
L247.664 184.91
L248.581 188.16
L249.499 179.198
L250.416 171.488
L251.333 180.109
L252.25 184.371
L253.168 185.549
L254.085 181.381
L255.002 188.355
L255.919 178.224
L256.837 169.544
L257.754 170.149
L258.671 177.144
L259.588 182.888
L260.506 181.015
L261.423 178.508
L262.34 182.224
L263.257 173.34
L264.175 176.63
L265.092 175.881
L266.009 181.157
L266.927 182.245
L267.844 181.627
L268.761 183.886
L269.678 185.191
L270.596 187.276
L271.513 200.539
L272.43 217.146
L273.347 225.182
L274.265 196.742
L275.182 181.375
L276.099 177.7
L277.016 183.817
L277.934 180.655
L278.851 185.454
L279.768 182.725
L280.685 184.816
L281.603 190.457
L282.52 189.651
L283.437 203.948
L284.354 204.874
L285.272 234.575
L286.189 218.137
L287.106 194.88
L288.024 195.462
L288.941 176.179
L289.858 179.412
L290.775 234.409
L291.693 220.664
L292.61 192.855
L293.527 180.647
L294.444 190.197
L295.362 188.671
L296.279 187.741
L297.196 195.874
L298.113 191.856
L299.031 196.567
L299.948 193.185
L300.865 196.288
L301.782 169.919
L303.617 180.218
L304.534 190.06
L305.451 188.267
L306.369 181.593
L307.286 188.282
L308.203 188.869
L309.12 191.945
L310.955 224.916
L311.872 235.764
L312.79 237.993
L313.707 238.83
L314.624 219.714
L315.541 225.774
L316.459 219.405
L317.376 219.392
L318.293 236.491
L319.21 230.886
L320.128 240.614
L321.045 224.081
L321.962 215.093
L322.879 191.475
L323.797 191.292
L324.714 195.593
L325.631 189.476
L326.548 193.255
L327.466 201.775
L328.383 215.198
L329.3 199.613
L330.217 215.13
L331.135 222.803
L332.052 194.056
L332.969 196.627
L333.887 208.155
L334.804 202.681
L335.721 214.108
L336.638 233.243
L337.556 227.256
L338.473 208.735
L339.39 229.688
L340.307 238.394
L341.225 202.086
L342.142 193.673
L343.059 193.321
L343.976 213.106
L344.894 227.818
L345.811 204.857
L346.728 195.665
L347.645 213.862
L349.48 243.107
L350.397 242.1
L351.314 228.856
L352.232 226.852
L353.149 221.814
L354.066 213.528
L354.984 236.556
L355.901 220.322
L356.818 233.078
L357.735 241.015
L358.653 236.01
L359.57 229.942
M361.404 231.356
L362.322 241.77
L363.239 242.193
L364.156 224.522
L365.073 200.931
L365.073 200.931" style="fill:none;stroke:#ff0000;stroke-linecap:square;"/>
   </g>
   <g id="line2d_11">
    <path clip-path="url(#p95a2ee5e18)" d="
M31.1906 237.117
L32.1079 217.034
L33.0251 221.499
L33.9424 195.143
L34.8597 212.821
L35.7769 241.151
L36.6942 229.239
L37.6114 221.815
L38.5287 232.92
L39.446 211.649
L41.2805 230.368
L42.1977 224.268
L43.115 204.437
L44.0323 209.868
L44.9495 206.855
L45.8668 221.363
L46.784 212.454
L47.7013 221.006
L48.6186 218.61
L49.5358 205.85
L50.4531 222.945
L51.3704 243.325
L52.2876 242.101
M54.1221 242.471
L55.0394 223.547
L55.9567 225.804
L56.8739 225.96
L57.7912 220.805
L58.7084 221.64
L59.6257 205.594
L60.543 194.165
L61.4602 203.167
L62.3775 213.991
L63.2947 211.487
L65.1293 232.225
L66.0465 228.013
L66.9638 238.573
L67.881 229.449
L68.7983 226.933
L69.7156 239.442
L70.6328 228.151
L71.5501 241.484
L72.4673 214.706
L73.3846 214.665
L74.3019 235.848
L75.2191 215.492
L76.1364 209.25
L77.0536 210.69
L77.9709 198.598
L78.8882 205.311
L79.8054 223.886
L80.7227 202.152
L81.6399 219.463
L82.5572 222.412
L83.4745 195.451
L84.3917 179.133
L85.309 196.66
L86.2262 209.786
L87.1435 227.779
L88.0608 240.449
M89.8953 225.69
L90.8125 219.449
L91.7298 224.085
L92.6471 209.934
L93.5643 211.681
L94.4816 196.625
L96.3161 202.051
L97.2334 208.808
L98.1506 242.009
L99.0679 227.869
L99.9851 209.764
L100.902 185.186
L101.82 199.864
L102.737 186.817
L103.654 217.658
L104.571 225.285
L105.489 199.925
L106.406 198.45
L107.323 233.975
L109.158 185.779
L110.075 220.29
L110.992 225.374
L111.91 193.929
L112.827 234.975
L113.744 211.912
L114.661 236.493
L115.579 235
L117.413 184.754
L118.33 172.65
L119.248 175.329
L120.165 219.208
L121.082 195.119
L121.999 223.804
L123.834 175.021
L124.751 200.158
L125.668 182.46
L126.586 195.906
L127.503 164.881
L128.42 169.53
L129.337 170.153
L130.255 163.584
L131.172 170.147
L132.089 174.6
L133.007 176.767
L133.924 181.76
L134.841 145.615
L135.758 155.929
L136.676 170.141
L137.593 173.771
L138.51 221.434
L139.427 169.492
L140.345 180.769
L141.262 190.05
L142.179 201.376
L143.096 234.292
L144.014 203.879
L144.931 202.585
L145.848 208.959
L147.683 165.433
L148.6 153.005
L149.517 162.967
L150.434 167.536
L151.352 176.277
L152.269 159.816
L153.186 186.523
L154.104 164.359
L155.021 162.163
L155.938 167.988
L156.855 176.221
L157.773 170.142
L158.69 156.216
L159.607 156.769
L160.524 168.481
L161.442 182.7
L162.359 184.39
L163.276 168.528
L164.193 168.9
L165.111 168.649
L166.028 170.545
L166.945 181.229
L167.862 180.822
L169.697 193.745
L170.614 227.728
L171.531 191.656
L172.449 197.87
L173.366 215.876
L174.283 218.542
L175.2 181.163
L176.118 181.064
L177.035 179.748
L177.952 196.24
L178.87 195.392
L179.787 194.024
L180.704 221.166
L181.621 220.998
L182.539 219.539
L183.456 191.201
L184.373 205.534
L185.29 171.688
L186.208 185.061
L187.125 192.052
L188.042 208.782
L188.959 188.946
L189.877 162.722
L190.794 174.285
L191.711 173.852
L192.628 175.233
L193.546 164.698
L194.463 170.072
L195.38 178.373
L196.297 177.136
L197.215 173.869
L198.132 184.58
L199.049 189.368
L199.967 175.42
L200.884 186.489
L201.801 172.539
L202.718 170.313
L203.636 170.284
L204.553 173.187
L205.47 170.446
L206.387 190.578
L207.305 201.003
L208.222 193.876
L209.139 170.468
L210.056 173.788
L210.974 183.009
L211.891 185.282
L212.808 188.203
L213.725 180.055
L214.643 178.02
L215.56 179.781
L216.477 185.499
L217.394 197.296
L218.312 179.725
L219.229 181.779
L220.146 182.881
L221.064 185.988
L221.981 190.756
L222.898 187.902
L223.815 184.121
L224.733 181.316
L226.567 189.671
L228.402 185.314
L229.319 190.159
L230.236 229.414
L231.153 236.895
L232.988 183.522
L233.905 181.655
L235.74 185.913
L236.657 193.42
L237.574 179.064
L238.491 182.499
L239.409 175.434
L240.326 177.052
L241.243 186.032
L242.16 186.816
L243.078 189.374
L243.995 189.154
L244.912 187.627
L245.83 205.731
L246.747 187.905
L248.581 186.844
L249.499 189.533
L250.416 202.457
L251.333 190.433
L252.25 192.623
L253.168 183.39
L254.085 187.497
L255.002 187.567
L255.919 188.17
L257.754 198.558
L258.671 186.661
L260.506 174.584
L261.423 180.165
L262.34 184.744
L263.257 187.84
L264.175 189.069
L265.092 191.115
L266.009 191.735
L266.927 197.861
L267.844 194.906
L268.761 193.032
L269.678 196.905
L270.596 197.269
L271.513 190.28
L272.43 178.634
L275.182 193.006
L276.099 195.552
L277.016 190.958
L277.934 187.461
L278.851 195.379
L279.768 211.781
L280.685 197.03
L281.603 179.452
L282.52 178.647
L283.437 220.157
M286.189 202.285
L287.106 192.332
L288.024 189.563
L288.941 202.481
L289.858 191.757
L290.775 185.746
L291.693 189.405
L292.61 218.156
L293.527 228.121
L294.444 219.406
L295.362 205.164
L296.279 206.793
L297.196 211.949
L298.113 225.768
L299.031 217.728
L299.948 218.814
L300.865 203.153
L301.782 215.902
L302.7 208.97
L303.617 187.983
L304.534 217.889
L305.451 241.031
L306.369 216.472
L308.203 235.619
L309.12 220.429
L310.038 216.029
L310.955 209.839
L311.872 197.748
L312.79 198.071
L313.707 197.203
L314.624 225.557
L315.541 219.187
L316.459 203.35
L317.376 192.896
L318.293 200.348
L319.21 228.337
M321.045 235.213
L321.962 232.344
L322.879 199.516
L323.797 197.016
L324.714 193.626
L325.631 222.593
L326.548 198.664
L327.466 211.269
L328.383 211.605
L329.3 231.043
L330.217 218.654
L331.135 213.763
L332.052 214.86
L332.969 213.572
L333.887 224.963
L334.804 225.254
L335.721 213.21
M337.556 211.052
L338.473 209.652
L339.39 199.937
L340.307 196.649
L341.225 207.16
L342.142 204.808
L343.059 235.028
L343.976 215.524
L344.894 206.345
L345.811 202.266
L346.728 190.764
L347.645 223.037
L348.563 242.684
L349.48 229.321
L350.397 233.271
M352.232 234.147
L353.149 239.33
L354.984 229.742
L355.901 227.135
L356.818 244.033
L357.735 233.249
L358.653 200.581
L359.57 220.767
L360.487 230.717
L361.404 225.944
L362.322 214.35
L364.156 240.897
L365.073 235.234
L365.073 235.234" style="fill:none;stroke:#00bfbf;stroke-linecap:square;"/>
   </g>
   <g id="line2d_12">
    <path clip-path="url(#p95a2ee5e18)" d="
M31.1906 242.272
L33.0251 229.23
L33.9424 218.726
L34.8597 230.567
L35.7769 224.702
L36.6942 234.851
L37.6114 203.163
L38.5287 210.098
L39.446 219.079
L40.3632 207.382
L41.2805 216.874
L42.1977 238.509
L43.115 228.911
L44.0323 194.978
L44.9495 218.977
L45.8668 214.466
L46.784 229.692
L47.7013 231.192
L48.6186 222.852
L49.5358 217.345
L50.4531 223.262
M52.2876 228.503
L53.2049 235.249
L54.1221 240.959
M55.9567 238.145
L56.8739 233.437
L57.7912 225.873
M59.6257 233.286
L60.543 218.501
L61.4602 227.618
L62.3775 233.8
L63.2947 236.054
L64.212 229.158
L65.1293 242.285
L66.0465 240.842
L66.9638 230.643
L67.881 213.624
L68.7983 232.609
L69.7156 228.611
L70.6328 237.83
L71.5501 222.355
M73.3846 243.267
L74.3019 242.221
L75.2191 238.144
L76.1364 224.409
L77.0536 220.089
L77.9709 223.758
L78.8882 182.44
L79.8054 190.042
L80.7227 232.141
L81.6399 230.839
L82.5572 206.554
L83.4745 221.061
L84.3917 225.196
L85.309 207.051
L86.2262 201.721
L87.1435 226.343
L88.0608 221.128
L88.978 220.961
L90.8125 196.922
L91.7298 228.974
L92.6471 204.99
L93.5643 187.842
L94.4816 193.555
L95.3988 204.681
L96.3161 233.729
L97.2334 209.965
L98.1506 179.29
L99.0679 185.639
L99.9851 182.731
L100.902 188.32
L101.82 165.427
L102.737 175.911
L103.654 205.075
L104.571 211.838
L105.489 179.888
L106.406 177.076
L107.323 221.399
L108.24 222.956
L109.158 191.209
L110.075 181.722
L111.91 240.707
L112.827 213.384
L113.744 236.084
L114.661 233.856
L115.579 214.614
L116.496 219.65
L117.413 229.769
L118.33 200.316
L119.248 185.754
L120.165 202.546
L121.082 166.802
L121.999 181.053
L122.917 186.086
L123.834 223.842
L124.751 210.848
L125.668 174.756
L126.586 159.581
L127.503 180.724
L128.42 176.241
L129.337 162.1
L130.255 163.516
L131.172 200.132
L132.089 223.297
L133.007 211.343
L133.924 158.194
L134.841 155.608
L135.758 149.408
L136.676 166.394
L137.593 223.961
L138.51 227.842
L139.427 210.732
L140.345 216.545
L141.262 204.957
L142.179 177.134
L143.096 205.898
L144.014 135.172
L144.931 184.314
L145.848 180.655
L146.765 143.269
L147.683 153.427
L148.6 150.199
L149.517 208.966
L150.434 172.838
L151.352 157.005
L152.269 159.539
L153.186 153.214
L154.104 156.856
L155.021 170.095
L155.938 185.247
L156.855 231.71
L157.773 181.092
L158.69 163.636
L159.607 190.068
M161.442 201.671
L162.359 191.049
L163.276 167.253
L164.193 210.352
L165.111 197.919
L166.028 207.191
L167.862 168.395
L168.78 213.19
L169.697 203.695
L170.614 229.494
L171.531 196.958
L172.449 235.737
L173.366 184.492
L174.283 220.956
L175.2 173.351
L176.118 176.504
L177.035 197.952
L177.952 203.298
L178.87 182.652
L179.787 156.226
L180.704 161.888
L181.621 168.467
L182.539 173.007
L183.456 165.613
L184.373 173.491
L185.29 156.867
L186.208 173.168
L187.125 196.395
L188.042 199.463
L188.959 165.863
L189.877 168.721
L190.794 189.245
L191.711 198.755
L192.628 173.177
L193.546 168.149
L194.463 180.967
L195.38 198.264
L196.297 176.762
L197.215 171.484
L199.049 183.196
L199.967 165.956
L200.884 166.829
L201.801 165.898
L202.718 167.016
L203.636 170.762
L205.47 180.232
L206.387 175.871
L207.305 173.264
L208.222 156.074
L209.139 161.214
L210.056 167.362
L210.974 175.041
L211.891 172.128
L212.808 172.664
L213.725 165.828
L214.643 167.608
L215.56 172.737
L216.477 171.877
L217.394 167.731
L218.312 172.83
L219.229 182.093
L220.146 210.839
L221.064 186.149
L221.981 188.351
L222.898 182.999
L223.815 189.162
L224.733 185.542
L225.65 175.869
L226.567 174.553
L227.484 177.476
L228.402 177.148
L229.319 183.566
L230.236 192.256
L231.153 176.908
L232.071 179.325
L233.905 198.678
L234.822 218.657
L235.74 192.855
L236.657 181.796
L237.574 180.829
L238.491 180.866
L239.409 179.687
L240.326 181.659
L241.243 182.674
L242.16 178.248
L243.078 175.75
L243.995 181.159
L244.912 175.809
L245.83 175.748
L246.747 174.113
L247.664 180.21
L248.581 197.807
L249.499 172
L250.416 180.364
L251.333 223.764
L252.25 194.668
L253.168 201.485
L254.085 198.202
L255.002 181.895
L255.919 179.354
L256.837 187.392
L257.754 172.36
L258.671 169.023
L259.588 169.979
L260.506 214.356
L261.423 236.454
L262.34 184.745
L263.257 176.01
L264.175 178.091
L265.092 182.686
L266.009 186.42
L266.927 181.949
L267.844 180.839
L268.761 190.003
L269.678 187.343
L270.596 194.507
L271.513 189.665
L272.43 182.612
L273.347 182.163
L274.265 180.166
L275.182 177.482
L276.099 183.752
L277.016 185.673
L277.934 183.739
L279.768 188.515
L280.685 184.947
L281.603 188.746
L282.52 188.572
L283.437 210.505
L284.354 226.045
L285.272 212.849
L286.189 208.715
L287.106 191.94
L288.024 225.3
L288.941 211.32
L289.858 202.934
L290.775 207.73
L291.693 187.297
L292.61 182.734
L293.527 181.562
L294.444 191.447
L295.362 196.981
L296.279 193.216
L297.196 180.907
L298.113 174.94
L299.031 182.482
L299.948 183.77
L300.865 188.143
L301.782 226.134
L302.7 242.202
L303.617 223.091
L304.534 233.442
L305.451 206.06
L306.369 183.315
L307.286 190.643
L308.203 196.579
L309.12 229.284
L310.038 203.897
L310.955 200.706
L311.872 203.443
L312.79 194.732
L313.707 200.216
L314.624 200.427
L315.541 228.86
L316.459 231.72
L317.376 211.843
L318.293 241.006
L319.21 231.683
L320.128 212.894
L321.045 215.584
L321.962 241.379
L322.879 226.029
L323.797 219.591
L324.714 202.741
L325.631 217.153
M327.466 244.034
L328.383 239.56
M331.135 205.077
L332.052 199.024
L332.969 205.5
L333.887 221.582
L334.804 231.917
L335.721 210.355
L336.638 213.664
M338.473 239.888
L339.39 226.714
L340.307 230.603
L341.225 239.607
L342.142 240.385
L343.059 230.565
L343.976 216.338
L344.894 229.343
L345.811 235.099
L346.728 235.91
L347.645 229.623
L348.563 227.743
L349.48 237.945
L350.397 232.441
L351.314 210.943
L352.232 208.22
L353.149 229.344
L354.066 241.162
L354.984 233.108
L355.901 215.255
L356.818 237.908
L357.735 236.25
L359.57 183.342
L360.487 229.71
L361.404 229.762
L362.322 234.04
M364.156 238.397
L365.073 230.677
L365.073 230.677" style="fill:none;stroke:#bf00bf;stroke-linecap:square;"/>
   </g>
   <g id="line2d_13">
    <path clip-path="url(#p95a2ee5e18)" d="
M31.1906 216.732
L32.1079 219.455
L33.0251 233.887
L33.9424 237.031
L34.8597 217.679
L35.7769 223.156
L36.6942 222.266
L37.6114 226.078
L39.446 243.528
L40.3632 219.071
L41.2805 226.177
M43.115 237.564
L44.0323 236.244
L44.9495 242.286
L45.8668 235.865
L46.784 238.679
L47.7013 243.275
L48.6186 212.971
L49.5358 235.189
L50.4531 236.177
L51.3704 205.364
L52.2876 237.046
L53.2049 240.135
L54.1221 240.62
L55.0394 237.4
L55.9567 236.644
L56.8739 237.246
L57.7912 243.981
L58.7084 222.994
L59.6257 205.697
L60.543 194.856
L61.4602 206.101
L62.3775 227.962
L63.2947 224.642
L64.212 223.185
L65.1293 223.57
L66.0465 228.862
L66.9638 217.606
L67.881 209.851
L68.7983 203.051
L69.7156 202.69
L70.6328 196.944
L72.4673 204.544
L73.3846 225.559
L74.3019 231.93
L75.2191 237.233
L76.1364 234.507
M77.9709 229.558
L78.8882 227.833
L79.8054 221.058
L80.7227 243.52
L81.6399 244.261
L82.5572 209.8
L83.4745 203.752
L84.3917 209.655
L85.309 192.328
L86.2262 220.593
L87.1435 224.263
L88.0608 229.897
L88.978 234.524
L89.8953 237.373
L90.8125 240.642
M92.6471 232.525
L93.5643 227.608
L94.4816 243.061
L95.3988 223.563
L96.3161 240.452
L97.2334 212.348
L98.1506 229.579
M99.9851 243.382
L100.902 209.945
L101.82 235.597
L102.737 215.445
L103.654 228.883
L104.571 223.618
L105.489 214.05
L106.406 233.963
M110.075 220.885
L110.992 231.763
L111.91 231.448
L112.827 197.584
L113.744 199.126
L114.661 204.925
L115.579 218.303
L116.496 199.902
L117.413 207.34
L118.33 215.827
L119.248 205.284
L121.082 223.877
L121.999 199.547
L122.917 208.109
L123.834 179.897
L124.751 214.023
L125.668 176.52
L126.586 206.112
L127.503 214.01
L128.42 199.1
L129.337 198.638
L130.255 154.68
L131.172 207.181
L132.089 219.34
L133.007 166.07
L133.924 156.259
L134.841 196.041
L135.758 222.472
L136.676 191.802
L137.593 176.897
L138.51 222.117
L139.427 178.492
L140.345 184.992
L141.262 170.859
L142.179 195.876
L143.096 172.097
L144.014 165.832
L144.931 177.062
L145.848 213.037
L146.765 197.601
L147.683 211.15
L149.517 170.377
L150.434 170.44
L151.352 177.724
L152.269 181.712
L153.186 199.084
L154.104 219.684
L155.021 232.642
L155.938 191.587
L156.855 213.266
L157.773 164.483
L158.69 173.794
L159.607 192.28
L160.524 177.979
L161.442 206.53
L162.359 205.263
L163.276 199.372
L164.193 179.704
L165.111 221.101
L166.028 220.854
L166.945 220.931
L167.862 188.048
L168.78 194.539
L169.697 185.516
L170.614 212.285
L171.531 165.72
L172.449 174.952
L173.366 182.926
L174.283 208.178
L175.2 215.921
L176.118 174.08
L177.035 187.744
L177.952 192.506
L178.87 193.528
L179.787 178.246
L180.704 201.228
L181.621 166.914
L182.539 158.715
L183.456 176.887
L184.373 162.756
L185.29 214.975
L186.208 211.215
L187.125 168.552
L188.959 179.969
L189.877 179.112
L190.794 169.623
L191.711 166.309
L192.628 169.035
L193.546 174.524
L194.463 182.39
L195.38 200.483
L196.297 177.439
L197.215 171.76
L198.132 172.33
L199.049 179.643
L199.967 182.181
L200.884 183.777
L201.801 180.794
L202.718 206.126
L203.636 173.433
L204.553 170.66
L205.47 181.322
L206.387 185.387
L207.305 180.97
L208.222 188.333
L209.139 182.614
L210.056 179.311
L210.974 187.227
L211.891 182.321
L212.808 181.099
L213.725 183.354
L214.643 176.332
L215.56 174.596
L216.477 177.011
L217.394 174.783
L218.312 182.332
L219.229 181.756
L220.146 183.53
L221.064 179.915
L221.981 178.697
L222.898 182.266
L223.815 189.005
L224.733 194.319
L225.65 188.886
L226.567 190.034
L227.484 183.932
L228.402 203.066
L229.319 184.642
L230.236 185.412
L231.153 187.906
L232.071 188.391
L232.988 181.606
L233.905 182.772
L234.822 178.082
L235.74 181.955
L236.657 190.695
L237.574 188.831
L238.491 178.118
L239.409 180.484
L240.326 185.167
L241.243 185.207
L242.16 183.791
L243.078 190.339
L243.995 191.622
L244.912 190.275
L245.83 188.473
L246.747 189.201
L247.664 193.025
L248.581 192.362
L249.499 206.517
L250.416 194.909
L251.333 190.025
L252.25 188.569
L253.168 181.422
L254.085 180.122
L255.002 180.717
L255.919 182.654
L256.837 182.776
L258.671 190.153
L259.588 192.021
L260.506 191.502
L261.423 195.599
L262.34 194.02
L263.257 198.961
L264.175 194.79
L265.092 194.56
L266.009 193.601
L266.927 222.796
L267.844 198.035
L268.761 182.864
L269.678 181.56
L270.596 188.337
L271.513 189.486
L272.43 186.351
L273.347 190.827
L274.265 191.294
L276.099 197.638
L277.016 190.837
L277.934 190.909
L278.851 193.31
L279.768 189.33
L280.685 197.313
L281.603 196.625
L282.52 197.787
L283.437 197.713
L284.354 230.715
L285.272 240.088
M287.106 244.227
L288.024 213.33
L288.941 197.69
L289.858 228.546
L290.775 219.617
L291.693 197.266
L292.61 194.078
L293.527 192.58
L294.444 205.677
L295.362 241.023
L296.279 204.277
L297.196 190.373
L298.113 200.579
L299.031 194.681
L299.948 201.797
L300.865 207.98
L301.782 204.31
L302.7 220.164
L303.617 194.802
L304.534 177.814
L305.451 184.657
L306.369 184.814
L307.286 190.278
L308.203 200.517
L309.12 217.686
L310.038 195.268
L310.955 178.697
L311.872 193.301
L312.79 225.824
L313.707 233.307
L314.624 238.209
L315.541 239.395
L317.376 199.651
L318.293 196.576
L319.21 204.918
L320.128 224.915
L321.045 230.083
L321.962 196.367
L322.879 185.437
L324.714 236.774
L325.631 237.382
L326.548 231.831
L327.466 206.676
L328.383 216.999
L329.3 228.781
L330.217 202.563
L331.135 218.814
L332.052 218.335
L332.969 186.46
L333.887 187.549
L334.804 212.106
L335.721 230.837
L336.638 222.056
L337.556 194.266
L338.473 195.365
L339.39 204.571
L340.307 212.193
L341.225 211.081
L342.142 196.485
L343.059 199.942
L343.976 198.897
L344.894 199.861
L346.728 207.272
L347.645 205.493
L348.563 212.865
L349.48 205.704
L350.397 219.765
L351.314 220.318
L352.232 219.037
L353.149 213.14
L354.066 206.37
L354.984 200.996
L355.901 218.015
L356.818 191.717
L357.735 187.271
L358.653 193.64
L359.57 199.127
L360.487 205.336
L361.404 218.884
L362.322 234.835
L363.239 226.28
L364.156 244.26
L365.073 217.868
L365.073 217.868" style="fill:none;stroke:#bfbf00;stroke-linecap:square;"/>
   </g>
   <g id="line2d_14">
    <path clip-path="url(#p95a2ee5e18)" d="
M31.1906 190.911
L32.1079 198.579
L33.0251 195.51
L33.9424 189.756
L34.8597 203.133
L35.7769 214.542
L36.6942 221.308
L37.6114 212.048
L38.5287 217.433
L39.446 235.197
L40.3632 209.045
L41.2805 214.093
L42.1977 190.634
L43.115 183.406
L44.0323 206.133
L44.9495 213.921
L45.8668 196.706
L46.784 224.595
M49.5358 242.734
L50.4531 231.41
L51.3704 244.044
L52.2876 233.232
L53.2049 230.417
L54.1221 241.288
L55.0394 207.697
L55.9567 198.695
L56.8739 186.096
L57.7912 219.23
L58.7084 202.407
L59.6257 230.306
L60.543 226.724
L61.4602 205.638
L62.3775 201.901
L63.2947 200.864
L64.212 201.753
L65.1293 188.95
L66.0465 223.586
L66.9638 240.133
L67.881 221.774
L68.7983 234.14
L69.7156 237.904
L70.6328 219.58
L72.4673 232.513
L73.3846 209.488
L74.3019 209.238
L75.2191 224.811
L76.1364 214.794
L77.0536 227.9
M78.8882 231.274
L79.8054 212.029
L80.7227 186.32
L81.6399 225.952
L82.5572 207.608
L84.3917 193.421
L85.309 221.291
L86.2262 239.131
L87.1435 212.678
L88.0608 222.845
L88.978 204.835
L89.8953 198.468
L90.8125 218.66
L91.7298 184.591
L92.6471 181.877
L93.5643 182.907
L94.4816 189.261
L95.3988 211.419
L96.3161 218.158
L97.2334 223.978
M99.0679 224.527
L99.9851 237.624
L100.902 238.447
M102.737 221.476
L103.654 229.592
L104.571 207.097
L105.489 174.577
L106.406 197.758
L107.323 181.524
L108.24 203.996
L109.158 232.009
L110.075 190.078
L110.992 214.842
L111.91 221.676
L112.827 232.903
L113.744 183.723
L114.661 168.701
L115.579 180.662
L116.496 176.012
L117.413 198.615
L118.33 179.851
L119.248 177.107
L120.165 161.568
L121.082 160.074
L121.999 176.443
L122.917 171.975
L123.834 209.153
L124.751 191.445
L125.668 207.261
L126.586 180.919
L127.503 160.852
L128.42 215.785
L129.337 192.49
L130.255 192.8
L131.172 208.331
L132.089 182.634
L133.007 170.573
L133.924 173.861
L134.841 192.875
L135.758 187.27
L136.676 201.838
L137.593 243.808
L138.51 166.295
L139.427 186.691
L140.345 164.46
L141.262 212.876
L142.179 175.068
L143.096 166.671
L144.014 214.628
L144.931 229.806
L145.848 182.947
L146.765 157.735
L148.6 160.063
L149.517 168.483
L150.434 149.128
L151.352 154.07
L152.269 160.482
L153.186 163.457
L154.104 175.625
L155.021 197.629
L155.938 177.591
L156.855 189.436
L157.773 162.87
L158.69 157.411
L159.607 169.805
L160.524 200.663
L161.442 204.598
L162.359 196.147
L163.276 177.107
L164.193 222.794
L165.111 224.712
L166.028 201.084
L166.945 165.578
L167.862 164.743
L168.78 171.13
L169.697 174.198
L170.614 172.397
L171.531 193.166
L172.449 180.637
L173.366 194.535
L174.283 230.409
L175.2 169.322
L176.118 179.459
L177.035 185.34
L177.952 218.75
L178.87 186.084
L179.787 164.024
L180.704 180.039
L182.539 157.293
L183.456 162.767
L184.373 172.033
L185.29 175.936
L186.208 161.831
L187.125 169.815
L188.042 161.468
L188.959 173.35
L189.877 177.663
L190.794 171.913
L191.711 171.893
L192.628 169.332
L193.546 168.424
L194.463 164.329
L195.38 172.149
L196.297 170.638
L197.215 176.392
L198.132 189.854
L199.049 179.505
L199.967 173.133
L200.884 170.776
L201.801 181.531
L202.718 184.167
L203.636 184.024
L204.553 196.414
L205.47 188.396
L206.387 184.431
L207.305 186.411
L208.222 187.873
L209.139 201.39
L210.056 206.198
L210.974 190.055
L211.891 197.709
L212.808 179.971
L213.725 180.362
L214.643 190.823
L215.56 178.791
L216.477 181.649
L217.394 181.713
L218.312 183.148
L219.229 181.859
L220.146 182.154
L221.064 184.84
L221.981 186.729
L222.898 186.267
L223.815 184.068
L224.733 185.796
L225.65 183.256
L226.567 182.644
L227.484 177.316
L228.402 178.225
L229.319 180.193
L230.236 186.728
L231.153 185.969
L232.071 189.697
L232.988 193.961
L233.905 188.841
L234.822 196.426
L235.74 185.546
L236.657 192.158
L237.574 192.291
L238.491 190.678
L239.409 188.079
L240.326 187.457
L241.243 189.566
L242.16 188.022
L243.078 202.628
L243.995 191.79
L244.912 193.489
L245.83 188.139
L246.747 184.504
L247.664 174.559
L248.581 179.394
L249.499 192.427
L250.416 193.405
L251.333 185.037
L252.25 184.541
L253.168 181.904
L254.085 198.77
L255.002 189.27
L255.919 174.323
L257.754 181.425
L258.671 183.94
L259.588 195.484
L260.506 182.17
L261.423 184.842
L262.34 187.884
L263.257 183.372
L264.175 180.228
L265.092 173.197
L266.009 178.56
L266.927 185.229
L267.844 183.044
L268.761 186.674
L269.678 184.792
L270.596 183.833
L271.513 191.68
L272.43 194.581
L273.347 195.426
L274.265 193.021
L275.182 222.863
L276.099 198.644
L277.016 198.8
L277.934 196.894
L278.851 189.132
L279.768 192.36
L280.685 193.53
L281.603 192.524
L282.52 188.568
L283.437 188.667
L284.354 176.212
L285.272 176.495
L286.189 173.133
L287.106 174.781
L288.024 177.336
L288.941 177.389
L289.858 184.671
L290.775 187.823
L291.693 188.719
L292.61 188.707
L293.527 215.114
L294.444 200.975
L295.362 206.206
L296.279 208.244
L297.196 192.871
L298.113 186.175
L299.948 213.901
L300.865 194.531
L301.782 236.453
L302.7 243.211
L303.617 230.139
L304.534 231.383
L305.451 209.385
L306.369 217.554
L307.286 234.172
L308.203 209.091
L309.12 200.308
L310.038 197.017
L310.955 212.256
L311.872 202.954
L312.79 209.018
L313.707 203.22
L314.624 212.953
L315.541 205.772
L316.459 213.044
L317.376 222.849
L318.293 242.247
L319.21 230.257
L320.128 232.242
L321.045 227.477
L321.962 230.51
L322.879 228.788
L323.797 223.629
L324.714 214.673
L325.631 231.187
L326.548 227.411
L327.466 227.132
L328.383 221.333
L329.3 233.712
L330.217 208.601
L331.135 192.074
L332.052 219.396
L332.969 230.367
L333.887 218.014
L334.804 207.543
L335.721 217.543
L336.638 224.259
L337.556 234.448
L338.473 233.024
L339.39 242.846
L340.307 209.887
L341.225 227.468
L342.142 235.204
L343.059 223.975
L343.976 214.822
L344.894 229.277
L345.811 217.773
L346.728 237.648
L347.645 223.402
L348.563 240.384
L349.48 225.438
L350.397 233.505
L351.314 234.857
M353.149 233.465
L354.066 225.144
L354.984 221.629
L355.901 189.929
L356.818 186.298
L357.735 215.789
L358.653 236.659
L359.57 236.65
L360.487 222.32
L361.404 237.8
L362.322 240.25
L363.239 225.813
L364.156 224.965
L365.073 241.316
L365.073 241.316" style="fill:none;stroke:#000000;stroke-linecap:square;"/>
   </g>
   <g id="line2d_15">
    <path clip-path="url(#p95a2ee5e18)" d="
M31.1906 219.04
L32.1079 212.289
L33.9424 150.896
L34.8597 127.805
L35.7769 157.3
L36.6942 207.047
L37.6114 228.27
L38.5287 161.805
L39.446 215.652
L40.3632 184.439
L41.2805 114.382
L42.1977 146.644
L43.115 182.983
L44.0323 163.73
L44.9495 176.726
L45.8668 172.327
L46.784 112.354
L47.7013 94.6521
L48.6186 134.884
L49.5358 118.664
L50.4531 63.7335
L51.3704 55.462
L52.2876 166.044
L53.2049 221.496
L54.1221 224.964
L55.0394 210.335
L55.9567 223.334
L56.8739 244.146
L57.7912 239.927
L58.7084 221.42
L60.543 193.249
L61.4602 173.587
L62.3775 139.834
L64.212 160.564
L65.1293 139.891
L66.0465 188.72
L66.9638 145.747
L67.881 121.587
L68.7983 76.261
L69.7156 163.389
L70.6328 176.303
L71.5501 152.223
L72.4673 135.71
L73.3846 168.922
L74.3019 193.683
L75.2191 86.4845
L76.1364 142.281
L77.0536 180.927
L77.9709 153.31
L78.8882 210.878
L80.7227 169.895
L81.6399 168.637
L82.5572 149.895
L83.4745 95.5058
L84.3917 166.125
L85.309 197.135
L86.2262 159.644
L87.1435 141.593
L88.0608 34.2256
L88.978 68.7615
L89.8953 159.055
L90.8125 116.996
L91.7298 89.0592
L92.6471 85.33
L93.5643 49.1711
L94.4816 158.488
L95.3988 147.408
L96.3161 109.005
L97.2334 97.5147
L98.1506 102.989
L99.0679 136.662
L99.9851 91.5434
L100.902 95.574
L101.82 24.2989
L102.737 141.524
L103.654 119.949
L104.571 157.093
L105.489 73.0259
L106.406 40.6157
L107.323 46.0203
L108.24 165.821
L109.158 148.323
L110.075 103.149
L110.992 121.859
L111.91 102.742
L112.827 95.1808
L113.744 130.031
L114.661 109.386
L115.579 91.2853
L116.496 145.689
L117.413 170.261
L118.33 182.013
L119.248 202.874
L120.165 124.64
L121.082 77.7012
L121.999 131.65
L123.834 61.4109
L124.751 138.04
L125.668 88.5169
L126.586 140.156
L127.503 101.292
L128.42 33.0979
L129.337 30.4939
L130.255 180.807
L131.172 159.286
L132.089 105.77
L133.007 88.459
L133.924 45.7657
L134.841 41.1923
L135.758 41.8328
L136.676 73.1219
L137.593 85.1332
L138.51 65.4068
L139.427 96.0539
L140.345 51.5022
L141.262 52.5852
L142.179 30.1966
L143.096 62.4966
L144.014 105.929
L144.931 85.9927
L146.765 137.971
L147.683 139.381
L148.6 111.931
L149.517 102.595
L150.434 105.386
L151.352 106.289
L152.269 114.49
L153.186 108.065
L154.104 98.171
L155.021 129.821
L155.938 180.934
L156.855 124.12
L157.773 149.898
L158.69 100.054
L159.607 94.6424
L160.524 99.9381
L161.442 21.412
L162.359 49.4428
L163.276 82.7856
L164.193 149.967
L165.111 168.632
L166.028 200.665
L166.945 184.979
L167.862 124.382
L168.78 102.974
L169.697 85.8887
L170.614 80.5237
L171.531 88.1979
L172.449 91.8911
L173.366 93.1668
L174.283 102.851
L176.118 111.47
L177.035 104.156
L177.952 113.112
L179.787 99.1215
L180.704 116.96
L181.621 130.131
L182.539 65.1064
L183.456 99.1221
L184.373 96.3631
L185.29 104.843
L186.208 182.479
L187.125 144.514
L188.042 126.749
L188.959 118.889
L189.877 100.596
L190.794 190.915
L191.711 209.588
L193.546 122.145
L194.463 123.314
L195.38 129.857
L196.297 130.62
L197.215 148.14
M296.279 90.9747
L297.196 94.2796
L298.113 90.324
L299.948 109.002
L300.865 97.2785
L301.782 98.9518
L302.7 94.7778
L303.617 96.3954
L304.534 94.8734
L305.451 97.9338
L306.369 181.351
L307.286 205.094
L308.203 179.131
L309.12 194.587
L310.038 168.192
L310.955 179.889
L311.872 183.241
L312.79 145.201
L313.707 174.7
L314.624 194.849
L315.541 164.912
L316.459 130.883
L317.376 111.809
L318.293 105.052
L319.21 108.892
L320.128 99.3836
L321.045 144.02
L321.962 147.998
L322.879 174.591
L323.797 189.147
L324.714 145.542
L325.631 114.039
L326.548 184.75
L327.466 176.949
L328.383 94.1858
L329.3 80.2065
L330.217 97.0236
L331.135 99.148
L332.052 101.772
L332.969 99.4539
L333.887 101.041
L334.804 123.497
L335.721 125.93
L336.638 180.127
L337.556 201.652
L338.473 176.048
L339.39 126.673
L340.307 181.578
L342.142 134.245
L343.059 197.718
L343.976 109.275
L344.894 58.7397
L345.811 122.612
L346.728 161.278
L347.645 127.174
L348.563 167.4
L349.48 174.933
L350.397 98.7503
L351.314 100.548
L352.232 71.7414
L353.149 142.686
L354.066 183.234
L354.984 137.326
L355.901 204.714
L356.818 211.909
L357.735 183.221
L358.653 145.037
L359.57 98.848
L360.487 84.2384
L361.404 78.2449
L362.322 118.948
L363.239 104.337
L364.156 143.939
L365.073 167.046
L365.073 167.046" style="fill:none;stroke:#0000ff;stroke-linecap:square;"/>
   </g>
   <g id="line2d_16">
    <path clip-path="url(#p95a2ee5e18)" d="
M31.1906 232.838
L32.1079 222.553
L33.0251 219.153
L33.9424 222.673
L34.8597 212.184
L35.7769 206.831
L36.6942 218.422
M38.5287 226.298
L39.446 236.554
L40.3632 234.661
L41.2805 238.212
L42.1977 237.335
L43.115 228.589
L44.0323 214.722
L44.9495 215.751
L45.8668 214.692
L46.784 219.1
L47.7013 211.842
L48.6186 215.095
L49.5358 216.593
L50.4531 221.203
L51.3704 215.178
M58.7084 216.251
L59.6257 230.634
L60.543 217.034
M62.3775 236.872
L63.2947 238.092
M66.9638 232.946
L67.881 227.478
L68.7983 231.04
L69.7156 236.377
L70.6328 231.217
L71.5501 230.125
L72.4673 225.743
L73.3846 231.456
L74.3019 204.317
L75.2191 230.199
L77.0536 234.58
L77.9709 223.014
L78.8882 220.291
L79.8054 215.201
L80.7227 211.026
L81.6399 210.648
L82.5572 212.597
L83.4745 229.933
L84.3917 215.439
L85.309 232.533
L86.2262 227.571
L87.1435 231.731
L88.0608 198.013
L88.978 221.548
L90.8125 210.886
L91.7298 191.276
L92.6471 222.152
L93.5643 235.58
L94.4816 198.15
L95.3988 187.422
L96.3161 178.163
L97.2334 209.587
L98.1506 180.546
L99.0679 183.547
L99.9851 211.008
L100.902 207.724
L101.82 166.914
L102.737 165.661
L103.654 160.058
L104.571 159.171
L105.489 162.659
L106.406 173.588
L107.323 203.792
L108.24 200.757
M110.075 219.611
L110.992 225.475
L111.91 205.602
L112.827 189.366
L113.744 237.236
L114.661 222.8
L115.579 188.436
L116.496 195.572
L117.413 188.401
L118.33 185.082
L119.248 170.414
L120.165 179.493
L121.999 167.21
L122.917 166.788
L123.834 166.03
L124.751 156.843
L125.668 153.504
L126.586 166.251
L127.503 152.374
L128.42 173.564
L129.337 162.623
L130.255 167.513
L131.172 159.542
L132.089 173.366
L133.007 225.073
L133.924 182.595
L134.841 192.17
L135.758 222.473
L136.676 186.649
L137.593 176.336
L138.51 175.882
L139.427 147.25
L140.345 156.123
L141.262 162.766
L142.179 170.967
L143.096 176.603
L144.014 178.363
L144.931 190.338
L145.848 164.929
L146.765 160.298
L147.683 177.221
L148.6 174.084
L149.517 181.032
L150.434 150.101
L151.352 154.565
L152.269 150.719
L153.186 162.272
L154.104 171.734
L155.021 186.85
L155.938 160.979
L156.855 181.692
L157.773 158.544
L158.69 182.325
L159.607 192.702
L160.524 162.525
L161.442 171.291
L162.359 181.157
L163.276 181.017
L164.193 163.59
L165.111 163.804
L166.028 164.531
L166.945 151.674
L167.862 168.317
L168.78 164.218
L169.697 175.255
L171.531 162.688
L172.449 163.348
L173.366 161.866
L174.283 159.458
L175.2 170.952
L176.118 163.095
L177.035 169.246
L177.952 163.422
L178.87 160.871
L179.787 178.545
L180.704 188.034
L181.621 179.596
L183.456 184.833
L184.373 178.935
L185.29 202.83
L186.208 159.654
L187.125 168.764
L188.042 167.159
L188.959 167.006
L189.877 169.369
L190.794 178.561
L191.711 208.998
L192.628 190.196
L193.546 191.224
L194.463 167.716
L195.38 160.376
L196.297 163.579
L197.215 170.928
L198.132 192.596
L199.967 184.189
L200.884 178.041
L201.801 180.073
L202.718 179.797
L203.636 189.676
L204.553 201.94
L205.47 180.256
L206.387 183.6
L207.305 179.629
L208.222 184.712
L209.139 186.451
L210.056 181.807
L210.974 185.096
L211.891 197.955
L212.808 181.436
L213.725 185.616
L214.643 186.059
L215.56 203.603
L216.477 188.134
L217.394 181.495
L218.312 168.96
L219.229 170.393
L220.146 177.881
L221.064 183.816
L221.981 194.078
L222.898 191.753
L223.815 195.284
L224.733 185.403
L225.65 190.617
L227.484 194.123
L228.402 190.539
L229.319 196.937
L230.236 192.479
L231.153 186.497
L232.071 190.782
L232.988 191.834
L233.905 187.39
L234.822 197.409
L235.74 187.005
L236.657 209.27
L237.574 187.285
L238.491 182.001
L239.409 183.82
L240.326 184.402
L241.243 187.255
L242.16 199.203
L243.078 196.126
L243.995 188.49
L244.912 187.746
L245.83 190.926
L246.747 184.815
L247.664 200.587
L248.581 191.405
L249.499 185.809
L250.416 192.773
L251.333 191.535
L252.25 202.127
L253.168 187.782
L254.085 182.401
L255.002 184.732
L256.837 180.87
L257.754 183.227
L258.671 188.84
L259.588 191.964
L260.506 191.348
L261.423 186.592
L262.34 186.543
L263.257 179.975
L264.175 179.417
L265.092 195.329
L266.009 194.857
L266.927 197.715
L267.844 201.623
L268.761 206.487
L269.678 208.604
L270.596 198.047
L271.513 197.882
L272.43 215.634
L273.347 202.647
L274.265 215.79
L275.182 201.296
L276.099 198.408
L277.016 198.626
L277.934 220.784
L278.851 225.238
L279.768 231.148
L280.685 203.14
L281.603 193.099
L282.52 187.114
L283.437 190.09
L286.189 200.352
L287.106 202.064
L288.941 199.458
L289.858 201.981
L290.775 210.188
L291.693 213.153
L292.61 195.5
L294.444 224.144
L296.279 199.504
L297.196 203.576
L298.113 213.071
L299.031 206.597
L299.948 221.325
L300.865 209.263
L301.782 228.341
L302.7 212.694
L303.617 220.976
L304.534 216.72
L305.451 211.738
L306.369 198.9
L307.286 214.201
L308.203 209.843
L309.12 221.279
L310.038 236.227
M311.872 227.17
L312.79 229.302
L313.707 219.971
L314.624 216.706
L315.541 218.833
L316.459 214.402
L317.376 225.389
L318.293 226.198
L319.21 219.838
L320.128 194.524
L321.045 226.005
M322.879 244.077
L323.797 231.183
L324.714 228.507
L325.631 223.955
L326.548 220.832
L327.466 219.189
L328.383 224.01
L329.3 234.904
L330.217 228.361
L331.135 220.936
L332.052 234.72
L332.969 222.319
L333.887 224.214
L334.804 217.498
L335.721 230.968
L336.638 223.295
L337.556 233.474
L338.473 229.478
L339.39 224.221
L340.307 224.001
L341.225 223.072
L342.142 232.584
L343.059 223.746
L343.976 235.479
L344.894 227.051
L345.811 225.159
L346.728 223.754
L347.645 238.265
L348.563 240.949
L349.48 220.872
L350.397 223.71
L351.314 234.536
L352.232 230.224
L353.149 236.347
L354.066 240.234
L354.984 241.519
L355.901 241.262
M357.735 231.748
L358.653 240.692
M361.404 239.137" style="fill:none;stroke:#008000;stroke-linecap:square;"/>
   </g>
   <g id="patch_3">
    <path d="
M365.991 244.518
L365.991 21.3181" style="fill:none;stroke:#000000;stroke-linecap:square;stroke-linejoin:miter;"/>
   </g>
   <g id="patch_4">
    <path d="
M31.1906 244.518
L365.991 244.518" style="fill:none;stroke:#000000;stroke-linecap:square;stroke-linejoin:miter;"/>
   </g>
   <g id="patch_5">
    <path d="
M31.1906 244.518
L31.1906 21.3181" style="fill:none;stroke:#000000;stroke-linecap:square;stroke-linejoin:miter;"/>
   </g>
   <g id="patch_6">
    <path d="
M31.1906 21.3181
L365.991 21.3181" style="fill:none;stroke:#000000;stroke-linecap:square;stroke-linejoin:miter;"/>
   </g>
   <g id="matplotlib.axis_1">
    <g id="xtick_1">
     <g id="line2d_17">
      <defs>
       <path d="
M0 0
L0 -4" id="mc7db9fdffb" style="stroke:#000000;stroke-width:0.5;"/>
      </defs>
      <g>
       <use style="stroke:#000000;stroke-width:0.5;" x="31.190625" xlink:href="#mc7db9fdffb" y="244.518125"/>
      </g>
     </g>
     <g id="line2d_18">
      <defs>
       <path d="
M0 0
L0 4" id="m5a7d422ac3" style="stroke:#000000;stroke-width:0.5;"/>
      </defs>
      <g>
       <use style="stroke:#000000;stroke-width:0.5;" x="31.190625" xlink:href="#m5a7d422ac3" y="21.318125"/>
      </g>
     </g>
     <g id="text_1">
      <!-- 0 -->
      <defs>
       <path d="
M31.7812 66.4062
Q24.1719 66.4062 20.3281 58.9062
Q16.5 51.4219 16.5 36.375
Q16.5 21.3906 20.3281 13.8906
Q24.1719 6.39062 31.7812 6.39062
Q39.4531 6.39062 43.2812 13.8906
Q47.125 21.3906 47.125 36.375
Q47.125 51.4219 43.2812 58.9062
Q39.4531 66.4062 31.7812 66.4062
M31.7812 74.2188
Q44.0469 74.2188 50.5156 64.5156
Q56.9844 54.8281 56.9844 36.375
Q56.9844 17.9688 50.5156 8.26562
Q44.0469 -1.42188 31.7812 -1.42188
Q19.5312 -1.42188 13.0625 8.26562
Q6.59375 17.9688 6.59375 36.375
Q6.59375 54.8281 13.0625 64.5156
Q19.5312 74.2188 31.7812 74.2188" id="BitstreamVeraSans-Roman-30"/>
      </defs>
      <g transform="translate(28.67109375 256.1165625)scale(0.1 -0.1)">
       <use xlink:href="#BitstreamVeraSans-Roman-30"/>
      </g>
     </g>
    </g>
    <g id="xtick_2">
     <g id="line2d_19">
      <g>
       <use style="stroke:#000000;stroke-width:0.5;" x="77.0536386986" xlink:href="#mc7db9fdffb" y="244.518125"/>
      </g>
     </g>
     <g id="line2d_20">
      <g>
       <use style="stroke:#000000;stroke-width:0.5;" x="77.0536386986" xlink:href="#m5a7d422ac3" y="21.318125"/>
      </g>
     </g>
     <g id="text_2">
      <!-- 50 -->
      <defs>
       <path d="
M10.7969 72.9062
L49.5156 72.9062
L49.5156 64.5938
L19.8281 64.5938
L19.8281 46.7344
Q21.9688 47.4688 24.1094 47.8281
Q26.2656 48.1875 28.4219 48.1875
Q40.625 48.1875 47.75 41.5
Q54.8906 34.8125 54.8906 23.3906
Q54.8906 11.625 47.5625 5.09375
Q40.2344 -1.42188 26.9062 -1.42188
Q22.3125 -1.42188 17.5469 -0.640625
Q12.7969 0.140625 7.71875 1.70312
L7.71875 11.625
Q12.1094 9.23438 16.7969 8.0625
Q21.4844 6.89062 26.7031 6.89062
Q35.1562 6.89062 40.0781 11.3281
Q45.0156 15.7656 45.0156 23.3906
Q45.0156 31 40.0781 35.4375
Q35.1562 39.8906 26.7031 39.8906
Q22.75 39.8906 18.8125 39.0156
Q14.8906 38.1406 10.7969 36.2812
z
" id="BitstreamVeraSans-Roman-35"/>
      </defs>
      <g transform="translate(71.4091074486 256.1165625)scale(0.1 -0.1)">
       <use xlink:href="#BitstreamVeraSans-Roman-35"/>
       <use x="63.623046875" xlink:href="#BitstreamVeraSans-Roman-30"/>
      </g>
     </g>
    </g>
    <g id="xtick_3">
     <g id="line2d_21">
      <g>
       <use style="stroke:#000000;stroke-width:0.5;" x="122.916652397" xlink:href="#mc7db9fdffb" y="244.518125"/>
      </g>
     </g>
     <g id="line2d_22">
      <g>
       <use style="stroke:#000000;stroke-width:0.5;" x="122.916652397" xlink:href="#m5a7d422ac3" y="21.318125"/>
      </g>
     </g>
     <g id="text_3">
      <!-- 100 -->
      <defs>
       <path d="
M12.4062 8.29688
L28.5156 8.29688
L28.5156 63.9219
L10.9844 60.4062
L10.9844 69.3906
L28.4219 72.9062
L38.2812 72.9062
L38.2812 8.29688
L54.3906 8.29688
L54.3906 0
L12.4062 0
z
" id="BitstreamVeraSans-Roman-31"/>
      </defs>
      <g transform="translate(114.254152397 256.1165625)scale(0.1 -0.1)">
       <use xlink:href="#BitstreamVeraSans-Roman-31"/>
       <use x="63.623046875" xlink:href="#BitstreamVeraSans-Roman-30"/>
       <use x="127.24609375" xlink:href="#BitstreamVeraSans-Roman-30"/>
      </g>
     </g>
    </g>
    <g id="xtick_4">
     <g id="line2d_23">
      <g>
       <use style="stroke:#000000;stroke-width:0.5;" x="168.779666096" xlink:href="#mc7db9fdffb" y="244.518125"/>
      </g>
     </g>
     <g id="line2d_24">
      <g>
       <use style="stroke:#000000;stroke-width:0.5;" x="168.779666096" xlink:href="#m5a7d422ac3" y="21.318125"/>
      </g>
     </g>
     <g id="text_4">
      <!-- 150 -->
      <g transform="translate(160.117166096 256.1165625)scale(0.1 -0.1)">
       <use xlink:href="#BitstreamVeraSans-Roman-31"/>
       <use x="63.623046875" xlink:href="#BitstreamVeraSans-Roman-35"/>
       <use x="127.24609375" xlink:href="#BitstreamVeraSans-Roman-30"/>
      </g>
     </g>
    </g>
    <g id="xtick_5">
     <g id="line2d_25">
      <g>
       <use style="stroke:#000000;stroke-width:0.5;" x="214.642679795" xlink:href="#mc7db9fdffb" y="244.518125"/>
      </g>
     </g>
     <g id="line2d_26">
      <g>
       <use style="stroke:#000000;stroke-width:0.5;" x="214.642679795" xlink:href="#m5a7d422ac3" y="21.318125"/>
      </g>
     </g>
     <g id="text_5">
      <!-- 200 -->
      <defs>
       <path d="
M19.1875 8.29688
L53.6094 8.29688
L53.6094 0
L7.32812 0
L7.32812 8.29688
Q12.9375 14.1094 22.625 23.8906
Q32.3281 33.6875 34.8125 36.5312
Q39.5469 41.8438 41.4219 45.5312
Q43.3125 49.2188 43.3125 52.7812
Q43.3125 58.5938 39.2344 62.25
Q35.1562 65.9219 28.6094 65.9219
Q23.9688 65.9219 18.8125 64.3125
Q13.6719 62.7031 7.8125 59.4219
L7.8125 69.3906
Q13.7656 71.7812 18.9375 73
Q24.125 74.2188 28.4219 74.2188
Q39.75 74.2188 46.4844 68.5469
Q53.2188 62.8906 53.2188 53.4219
Q53.2188 48.9219 51.5312 44.8906
Q49.8594 40.875 45.4062 35.4062
Q44.1875 33.9844 37.6406 27.2188
Q31.1094 20.4531 19.1875 8.29688" id="BitstreamVeraSans-Roman-32"/>
      </defs>
      <g transform="translate(205.797367295 256.1165625)scale(0.1 -0.1)">
       <use xlink:href="#BitstreamVeraSans-Roman-32"/>
       <use x="63.623046875" xlink:href="#BitstreamVeraSans-Roman-30"/>
       <use x="127.24609375" xlink:href="#BitstreamVeraSans-Roman-30"/>
      </g>
     </g>
    </g>
    <g id="xtick_6">
     <g id="line2d_27">
      <g>
       <use style="stroke:#000000;stroke-width:0.5;" x="260.505693493" xlink:href="#mc7db9fdffb" y="244.518125"/>
      </g>
     </g>
     <g id="line2d_28">
      <g>
       <use style="stroke:#000000;stroke-width:0.5;" x="260.505693493" xlink:href="#m5a7d422ac3" y="21.318125"/>
      </g>
     </g>
     <g id="text_6">
      <!-- 250 -->
      <g transform="translate(251.660380993 256.1165625)scale(0.1 -0.1)">
       <use xlink:href="#BitstreamVeraSans-Roman-32"/>
       <use x="63.623046875" xlink:href="#BitstreamVeraSans-Roman-35"/>
       <use x="127.24609375" xlink:href="#BitstreamVeraSans-Roman-30"/>
      </g>
     </g>
    </g>
    <g id="xtick_7">
     <g id="line2d_29">
      <g>
       <use style="stroke:#000000;stroke-width:0.5;" x="306.368707192" xlink:href="#mc7db9fdffb" y="244.518125"/>
      </g>
     </g>
     <g id="line2d_30">
      <g>
       <use style="stroke:#000000;stroke-width:0.5;" x="306.368707192" xlink:href="#m5a7d422ac3" y="21.318125"/>
      </g>
     </g>
     <g id="text_7">
      <!-- 300 -->
      <defs>
       <path d="
M40.5781 39.3125
Q47.6562 37.7969 51.625 33
Q55.6094 28.2188 55.6094 21.1875
Q55.6094 10.4062 48.1875 4.48438
Q40.7656 -1.42188 27.0938 -1.42188
Q22.5156 -1.42188 17.6562 -0.515625
Q12.7969 0.390625 7.625 2.20312
L7.625 11.7188
Q11.7188 9.32812 16.5938 8.10938
Q21.4844 6.89062 26.8125 6.89062
Q36.0781 6.89062 40.9375 10.5469
Q45.7969 14.2031 45.7969 21.1875
Q45.7969 27.6406 41.2812 31.2656
Q36.7656 34.9062 28.7188 34.9062
L20.2188 34.9062
L20.2188 43.0156
L29.1094 43.0156
Q36.375 43.0156 40.2344 45.9219
Q44.0938 48.8281 44.0938 54.2969
Q44.0938 59.9062 40.1094 62.9062
Q36.1406 65.9219 28.7188 65.9219
Q24.6562 65.9219 20.0156 65.0312
Q15.375 64.1562 9.8125 62.3125
L9.8125 71.0938
Q15.4375 72.6562 20.3438 73.4375
Q25.25 74.2188 29.5938 74.2188
Q40.8281 74.2188 47.3594 69.1094
Q53.9062 64.0156 53.9062 55.3281
Q53.9062 49.2656 50.4375 45.0938
Q46.9688 40.9219 40.5781 39.3125" id="BitstreamVeraSans-Roman-33"/>
      </defs>
      <g transform="translate(297.538238442 256.1165625)scale(0.1 -0.1)">
       <use xlink:href="#BitstreamVeraSans-Roman-33"/>
       <use x="63.623046875" xlink:href="#BitstreamVeraSans-Roman-30"/>
       <use x="127.24609375" xlink:href="#BitstreamVeraSans-Roman-30"/>
      </g>
     </g>
    </g>
    <g id="xtick_8">
     <g id="line2d_31">
      <g>
       <use style="stroke:#000000;stroke-width:0.5;" x="352.23172089" xlink:href="#mc7db9fdffb" y="244.518125"/>
      </g>
     </g>
     <g id="line2d_32">
      <g>
       <use style="stroke:#000000;stroke-width:0.5;" x="352.23172089" xlink:href="#m5a7d422ac3" y="21.318125"/>
      </g>
     </g>
     <g id="text_8">
      <!-- 350 -->
      <g transform="translate(343.40125214 256.1165625)scale(0.1 -0.1)">
       <use xlink:href="#BitstreamVeraSans-Roman-33"/>
       <use x="63.623046875" xlink:href="#BitstreamVeraSans-Roman-35"/>
       <use x="127.24609375" xlink:href="#BitstreamVeraSans-Roman-30"/>
      </g>
     </g>
    </g>
    <g id="text_9">
     <!-- Julian day -->
     <defs>
      <path d="
M9.8125 72.9062
L19.6719 72.9062
L19.6719 5.07812
Q19.6719 -8.10938 14.6719 -14.0625
Q9.67188 -20.0156 -1.42188 -20.0156
L-5.17188 -20.0156
L-5.17188 -11.7188
L-2.09375 -11.7188
Q4.4375 -11.7188 7.125 -8.04688
Q9.8125 -4.39062 9.8125 5.07812
z
" id="BitstreamVeraSans-Roman-4a"/>
      <path d="
M45.4062 46.3906
L45.4062 75.9844
L54.3906 75.9844
L54.3906 0
L45.4062 0
L45.4062 8.20312
Q42.5781 3.32812 38.25 0.953125
Q33.9375 -1.42188 27.875 -1.42188
Q17.9688 -1.42188 11.7344 6.48438
Q5.51562 14.4062 5.51562 27.2969
Q5.51562 40.1875 11.7344 48.0938
Q17.9688 56 27.875 56
Q33.9375 56 38.25 53.625
Q42.5781 51.2656 45.4062 46.3906
M14.7969 27.2969
Q14.7969 17.3906 18.875 11.75
Q22.9531 6.10938 30.0781 6.10938
Q37.2031 6.10938 41.2969 11.75
Q45.4062 17.3906 45.4062 27.2969
Q45.4062 37.2031 41.2969 42.8438
Q37.2031 48.4844 30.0781 48.4844
Q22.9531 48.4844 18.875 42.8438
Q14.7969 37.2031 14.7969 27.2969" id="BitstreamVeraSans-Roman-64"/>
      <path d="
M54.8906 33.0156
L54.8906 0
L45.9062 0
L45.9062 32.7188
Q45.9062 40.4844 42.875 44.3281
Q39.8438 48.1875 33.7969 48.1875
Q26.5156 48.1875 22.3125 43.5469
Q18.1094 38.9219 18.1094 30.9062
L18.1094 0
L9.07812 0
L9.07812 54.6875
L18.1094 54.6875
L18.1094 46.1875
Q21.3438 51.125 25.7031 53.5625
Q30.0781 56 35.7969 56
Q45.2188 56 50.0469 50.1719
Q54.8906 44.3438 54.8906 33.0156" id="BitstreamVeraSans-Roman-6e"/>
      <path d="
M34.2812 27.4844
Q23.3906 27.4844 19.1875 25
Q14.9844 22.5156 14.9844 16.5
Q14.9844 11.7188 18.1406 8.90625
Q21.2969 6.10938 26.7031 6.10938
Q34.1875 6.10938 38.7031 11.4062
Q43.2188 16.7031 43.2188 25.4844
L43.2188 27.4844
z

M52.2031 31.2031
L52.2031 0
L43.2188 0
L43.2188 8.29688
Q40.1406 3.32812 35.5469 0.953125
Q30.9531 -1.42188 24.3125 -1.42188
Q15.9219 -1.42188 10.9531 3.29688
Q6 8.01562 6 15.9219
Q6 25.1406 12.1719 29.8281
Q18.3594 34.5156 30.6094 34.5156
L43.2188 34.5156
L43.2188 35.4062
Q43.2188 41.6094 39.1406 45
Q35.0625 48.3906 27.6875 48.3906
Q23 48.3906 18.5469 47.2656
Q14.1094 46.1406 10.0156 43.8906
L10.0156 52.2031
Q14.9375 54.1094 19.5781 55.0469
Q24.2188 56 28.6094 56
Q40.4844 56 46.3438 49.8438
Q52.2031 43.7031 52.2031 31.2031" id="BitstreamVeraSans-Roman-61"/>
      <path d="
M8.5 21.5781
L8.5 54.6875
L17.4844 54.6875
L17.4844 21.9219
Q17.4844 14.1562 20.5 10.2656
Q23.5312 6.39062 29.5938 6.39062
Q36.8594 6.39062 41.0781 11.0312
Q45.3125 15.6719 45.3125 23.6875
L45.3125 54.6875
L54.2969 54.6875
L54.2969 0
L45.3125 0
L45.3125 8.40625
Q42.0469 3.42188 37.7188 1
Q33.4062 -1.42188 27.6875 -1.42188
Q18.2656 -1.42188 13.375 4.4375
Q8.5 10.2969 8.5 21.5781" id="BitstreamVeraSans-Roman-75"/>
      <path d="
M9.42188 54.6875
L18.4062 54.6875
L18.4062 0
L9.42188 0
z

M9.42188 75.9844
L18.4062 75.9844
L18.4062 64.5938
L9.42188 64.5938
z
" id="BitstreamVeraSans-Roman-69"/>
      <path d="
M32.1719 -5.07812
Q28.375 -14.8438 24.75 -17.8125
Q21.1406 -20.7969 15.0938 -20.7969
L7.90625 -20.7969
L7.90625 -13.2812
L13.1875 -13.2812
Q16.8906 -13.2812 18.9375 -11.5156
Q21 -9.76562 23.4844 -3.21875
L25.0938 0.875
L2.98438 54.6875
L12.5 54.6875
L29.5938 11.9219
L46.6875 54.6875
L56.2031 54.6875
z
" id="BitstreamVeraSans-Roman-79"/>
      <path id="BitstreamVeraSans-Roman-20"/>
      <path d="
M9.42188 75.9844
L18.4062 75.9844
L18.4062 0
L9.42188 0
z
" id="BitstreamVeraSans-Roman-6c"/>
     </defs>
     <g transform="translate(174.03984375 270.7946875)scale(0.1 -0.1)">
      <use xlink:href="#BitstreamVeraSans-Roman-4a"/>
      <use x="29.4921875" xlink:href="#BitstreamVeraSans-Roman-75"/>
      <use x="92.87109375" xlink:href="#BitstreamVeraSans-Roman-6c"/>
      <use x="120.654296875" xlink:href="#BitstreamVeraSans-Roman-69"/>
      <use x="148.4375" xlink:href="#BitstreamVeraSans-Roman-61"/>
      <use x="209.716796875" xlink:href="#BitstreamVeraSans-Roman-6e"/>
      <use x="273.095703125" xlink:href="#BitstreamVeraSans-Roman-20"/>
      <use x="304.8828125" xlink:href="#BitstreamVeraSans-Roman-64"/>
      <use x="368.359375" xlink:href="#BitstreamVeraSans-Roman-61"/>
      <use x="429.638671875" xlink:href="#BitstreamVeraSans-Roman-79"/>
     </g>
    </g>
   </g>
   <g id="matplotlib.axis_2">
    <g id="ytick_1">
     <g id="line2d_33">
      <defs>
       <path d="
M0 0
L4 0" id="md7965d1ba0" style="stroke:#000000;stroke-width:0.5;"/>
      </defs>
      <g>
       <use style="stroke:#000000;stroke-width:0.5;" x="31.190625" xlink:href="#md7965d1ba0" y="244.518125"/>
      </g>
     </g>
     <g id="line2d_34">
      <defs>
       <path d="
M0 0
L-4 0" id="md9a1c1a7cd" style="stroke:#000000;stroke-width:0.5;"/>
      </defs>
      <g>
       <use style="stroke:#000000;stroke-width:0.5;" x="365.990625" xlink:href="#md9a1c1a7cd" y="244.518125"/>
      </g>
     </g>
     <g id="text_10">
      <!-- 0 -->
      <g transform="translate(22.1515625 247.2775)scale(0.1 -0.1)">
       <use xlink:href="#BitstreamVeraSans-Roman-30"/>
      </g>
     </g>
    </g>
    <g id="ytick_2">
     <g id="line2d_35">
      <g>
       <use style="stroke:#000000;stroke-width:0.5;" x="31.190625" xlink:href="#md7965d1ba0" y="216.618125"/>
      </g>
     </g>
     <g id="line2d_36">
      <g>
       <use style="stroke:#000000;stroke-width:0.5;" x="365.990625" xlink:href="#md9a1c1a7cd" y="216.618125"/>
      </g>
     </g>
     <g id="text_11">
      <!-- 1 -->
      <g transform="translate(22.85 219.3775)scale(0.1 -0.1)">
       <use xlink:href="#BitstreamVeraSans-Roman-31"/>
      </g>
     </g>
    </g>
    <g id="ytick_3">
     <g id="line2d_37">
      <g>
       <use style="stroke:#000000;stroke-width:0.5;" x="31.190625" xlink:href="#md7965d1ba0" y="188.718125"/>
      </g>
     </g>
     <g id="line2d_38">
      <g>
       <use style="stroke:#000000;stroke-width:0.5;" x="365.990625" xlink:href="#md9a1c1a7cd" y="188.718125"/>
      </g>
     </g>
     <g id="text_12">
      <!-- 2 -->
      <g transform="translate(22.5625 191.4775)scale(0.1 -0.1)">
       <use xlink:href="#BitstreamVeraSans-Roman-32"/>
      </g>
     </g>
    </g>
    <g id="ytick_4">
     <g id="line2d_39">
      <g>
       <use style="stroke:#000000;stroke-width:0.5;" x="31.190625" xlink:href="#md7965d1ba0" y="160.818125"/>
      </g>
     </g>
     <g id="line2d_40">
      <g>
       <use style="stroke:#000000;stroke-width:0.5;" x="365.990625" xlink:href="#md9a1c1a7cd" y="160.818125"/>
      </g>
     </g>
     <g id="text_13">
      <!-- 3 -->
      <g transform="translate(22.3921875 163.5775)scale(0.1 -0.1)">
       <use xlink:href="#BitstreamVeraSans-Roman-33"/>
      </g>
     </g>
    </g>
    <g id="ytick_5">
     <g id="line2d_41">
      <g>
       <use style="stroke:#000000;stroke-width:0.5;" x="31.190625" xlink:href="#md7965d1ba0" y="132.918125"/>
      </g>
     </g>
     <g id="line2d_42">
      <g>
       <use style="stroke:#000000;stroke-width:0.5;" x="365.990625" xlink:href="#md9a1c1a7cd" y="132.918125"/>
      </g>
     </g>
     <g id="text_14">
      <!-- 4 -->
      <defs>
       <path d="
M37.7969 64.3125
L12.8906 25.3906
L37.7969 25.3906
z

M35.2031 72.9062
L47.6094 72.9062
L47.6094 25.3906
L58.0156 25.3906
L58.0156 17.1875
L47.6094 17.1875
L47.6094 0
L37.7969 0
L37.7969 17.1875
L4.89062 17.1875
L4.89062 26.7031
z
" id="BitstreamVeraSans-Roman-34"/>
      </defs>
      <g transform="translate(21.878125 135.6775)scale(0.1 -0.1)">
       <use xlink:href="#BitstreamVeraSans-Roman-34"/>
      </g>
     </g>
    </g>
    <g id="ytick_6">
     <g id="line2d_43">
      <g>
       <use style="stroke:#000000;stroke-width:0.5;" x="31.190625" xlink:href="#md7965d1ba0" y="105.018125"/>
      </g>
     </g>
     <g id="line2d_44">
      <g>
       <use style="stroke:#000000;stroke-width:0.5;" x="365.990625" xlink:href="#md9a1c1a7cd" y="105.018125"/>
      </g>
     </g>
     <g id="text_15">
      <!-- 5 -->
      <g transform="translate(22.4734375 107.7775)scale(0.1 -0.1)">
       <use xlink:href="#BitstreamVeraSans-Roman-35"/>
      </g>
     </g>
    </g>
    <g id="ytick_7">
     <g id="line2d_45">
      <g>
       <use style="stroke:#000000;stroke-width:0.5;" x="31.190625" xlink:href="#md7965d1ba0" y="77.118125"/>
      </g>
     </g>
     <g id="line2d_46">
      <g>
       <use style="stroke:#000000;stroke-width:0.5;" x="365.990625" xlink:href="#md9a1c1a7cd" y="77.118125"/>
      </g>
     </g>
     <g id="text_16">
      <!-- 6 -->
      <defs>
       <path d="
M33.0156 40.375
Q26.375 40.375 22.4844 35.8281
Q18.6094 31.2969 18.6094 23.3906
Q18.6094 15.5312 22.4844 10.9531
Q26.375 6.39062 33.0156 6.39062
Q39.6562 6.39062 43.5312 10.9531
Q47.4062 15.5312 47.4062 23.3906
Q47.4062 31.2969 43.5312 35.8281
Q39.6562 40.375 33.0156 40.375
M52.5938 71.2969
L52.5938 62.3125
Q48.875 64.0625 45.0938 64.9844
Q41.3125 65.9219 37.5938 65.9219
Q27.8281 65.9219 22.6719 59.3281
Q17.5312 52.7344 16.7969 39.4062
Q19.6719 43.6562 24.0156 45.9219
Q28.375 48.1875 33.5938 48.1875
Q44.5781 48.1875 50.9531 41.5156
Q57.3281 34.8594 57.3281 23.3906
Q57.3281 12.1562 50.6875 5.35938
Q44.0469 -1.42188 33.0156 -1.42188
Q20.3594 -1.42188 13.6719 8.26562
Q6.98438 17.9688 6.98438 36.375
Q6.98438 53.6562 15.1875 63.9375
Q23.3906 74.2188 37.2031 74.2188
Q40.9219 74.2188 44.7031 73.4844
Q48.4844 72.75 52.5938 71.2969" id="BitstreamVeraSans-Roman-36"/>
      </defs>
      <g transform="translate(22.15625 79.8775)scale(0.1 -0.1)">
       <use xlink:href="#BitstreamVeraSans-Roman-36"/>
      </g>
     </g>
    </g>
    <g id="ytick_8">
     <g id="line2d_47">
      <g>
       <use style="stroke:#000000;stroke-width:0.5;" x="31.190625" xlink:href="#md7965d1ba0" y="49.218125"/>
      </g>
     </g>
     <g id="line2d_48">
      <g>
       <use style="stroke:#000000;stroke-width:0.5;" x="365.990625" xlink:href="#md9a1c1a7cd" y="49.218125"/>
      </g>
     </g>
     <g id="text_17">
      <!-- 7 -->
      <defs>
       <path d="
M8.20312 72.9062
L55.0781 72.9062
L55.0781 68.7031
L28.6094 0
L18.3125 0
L43.2188 64.5938
L8.20312 64.5938
z
" id="BitstreamVeraSans-Roman-37"/>
      </defs>
      <g transform="translate(22.503125 51.9775)scale(0.1 -0.1)">
       <use xlink:href="#BitstreamVeraSans-Roman-37"/>
      </g>
     </g>
    </g>
    <g id="ytick_9">
     <g id="line2d_49">
      <g>
       <use style="stroke:#000000;stroke-width:0.5;" x="31.190625" xlink:href="#md7965d1ba0" y="21.318125"/>
      </g>
     </g>
     <g id="line2d_50">
      <g>
       <use style="stroke:#000000;stroke-width:0.5;" x="365.990625" xlink:href="#md9a1c1a7cd" y="21.318125"/>
      </g>
     </g>
     <g id="text_18">
      <!-- 8 -->
      <defs>
       <path d="
M31.7812 34.625
Q24.75 34.625 20.7188 30.8594
Q16.7031 27.0938 16.7031 20.5156
Q16.7031 13.9219 20.7188 10.1562
Q24.75 6.39062 31.7812 6.39062
Q38.8125 6.39062 42.8594 10.1719
Q46.9219 13.9688 46.9219 20.5156
Q46.9219 27.0938 42.8906 30.8594
Q38.875 34.625 31.7812 34.625
M21.9219 38.8125
Q15.5781 40.375 12.0312 44.7188
Q8.5 49.0781 8.5 55.3281
Q8.5 64.0625 14.7188 69.1406
Q20.9531 74.2188 31.7812 74.2188
Q42.6719 74.2188 48.875 69.1406
Q55.0781 64.0625 55.0781 55.3281
Q55.0781 49.0781 51.5312 44.7188
Q48 40.375 41.7031 38.8125
Q48.8281 37.1562 52.7969 32.3125
Q56.7812 27.4844 56.7812 20.5156
Q56.7812 9.90625 50.3125 4.23438
Q43.8438 -1.42188 31.7812 -1.42188
Q19.7344 -1.42188 13.25 4.23438
Q6.78125 9.90625 6.78125 20.5156
Q6.78125 27.4844 10.7812 32.3125
Q14.7969 37.1562 21.9219 38.8125
M18.3125 54.3906
Q18.3125 48.7344 21.8438 45.5625
Q25.3906 42.3906 31.7812 42.3906
Q38.1406 42.3906 41.7188 45.5625
Q45.3125 48.7344 45.3125 54.3906
Q45.3125 60.0625 41.7188 63.2344
Q38.1406 66.4062 31.7812 66.4062
Q25.3906 66.4062 21.8438 63.2344
Q18.3125 60.0625 18.3125 54.3906" id="BitstreamVeraSans-Roman-38"/>
      </defs>
      <g transform="translate(22.190625 24.0775)scale(0.1 -0.1)">
       <use xlink:href="#BitstreamVeraSans-Roman-38"/>
      </g>
     </g>
    </g>
    <g id="text_19">
     <!-- PET (mm/day) -->
     <defs>
      <path d="
M25.3906 72.9062
L33.6875 72.9062
L8.29688 -9.28125
L0 -9.28125
z
" id="BitstreamVeraSans-Roman-2f"/>
      <path d="
M8.01562 75.875
L15.8281 75.875
Q23.1406 64.3594 26.7812 53.3125
Q30.4219 42.2812 30.4219 31.3906
Q30.4219 20.4531 26.7812 9.375
Q23.1406 -1.70312 15.8281 -13.1875
L8.01562 -13.1875
Q14.5 -2 17.7031 9.0625
Q20.9062 20.125 20.9062 31.3906
Q20.9062 42.6719 17.7031 53.6562
Q14.5 64.6562 8.01562 75.875" id="BitstreamVeraSans-Roman-29"/>
      <path d="
M9.8125 72.9062
L55.9062 72.9062
L55.9062 64.5938
L19.6719 64.5938
L19.6719 43.0156
L54.3906 43.0156
L54.3906 34.7188
L19.6719 34.7188
L19.6719 8.29688
L56.7812 8.29688
L56.7812 0
L9.8125 0
z
" id="BitstreamVeraSans-Roman-45"/>
      <path d="
M31 75.875
Q24.4688 64.6562 21.2812 53.6562
Q18.1094 42.6719 18.1094 31.3906
Q18.1094 20.125 21.3125 9.0625
Q24.5156 -2 31 -13.1875
L23.1875 -13.1875
Q15.875 -1.70312 12.2344 9.375
Q8.59375 20.4531 8.59375 31.3906
Q8.59375 42.2812 12.2031 53.3125
Q15.8281 64.3594 23.1875 75.875
z
" id="BitstreamVeraSans-Roman-28"/>
      <path d="
M-0.296875 72.9062
L61.375 72.9062
L61.375 64.5938
L35.5 64.5938
L35.5 0
L25.5938 0
L25.5938 64.5938
L-0.296875 64.5938
z
" id="BitstreamVeraSans-Roman-54"/>
      <path d="
M52 44.1875
Q55.375 50.25 60.0625 53.125
Q64.75 56 71.0938 56
Q79.6406 56 84.2812 50.0156
Q88.9219 44.0469 88.9219 33.0156
L88.9219 0
L79.8906 0
L79.8906 32.7188
Q79.8906 40.5781 77.0938 44.375
Q74.3125 48.1875 68.6094 48.1875
Q61.625 48.1875 57.5625 43.5469
Q53.5156 38.9219 53.5156 30.9062
L53.5156 0
L44.4844 0
L44.4844 32.7188
Q44.4844 40.625 41.7031 44.4062
Q38.9219 48.1875 33.1094 48.1875
Q26.2188 48.1875 22.1562 43.5312
Q18.1094 38.875 18.1094 30.9062
L18.1094 0
L9.07812 0
L9.07812 54.6875
L18.1094 54.6875
L18.1094 46.1875
Q21.1875 51.2188 25.4844 53.6094
Q29.7812 56 35.6875 56
Q41.6562 56 45.8281 52.9688
Q50 49.9531 52 44.1875" id="BitstreamVeraSans-Roman-6d"/>
      <path d="
M19.6719 64.7969
L19.6719 37.4062
L32.0781 37.4062
Q38.9688 37.4062 42.7188 40.9688
Q46.4844 44.5312 46.4844 51.125
Q46.4844 57.6719 42.7188 61.2344
Q38.9688 64.7969 32.0781 64.7969
z

M9.8125 72.9062
L32.0781 72.9062
Q44.3438 72.9062 50.6094 67.3594
Q56.8906 61.8125 56.8906 51.125
Q56.8906 40.3281 50.6094 34.8125
Q44.3438 29.2969 32.0781 29.2969
L19.6719 29.2969
L19.6719 0
L9.8125 0
z
" id="BitstreamVeraSans-Roman-50"/>
     </defs>
     <g transform="translate(14.7984375 167.82984375)rotate(-90.0)scale(0.1 -0.1)">
      <use xlink:href="#BitstreamVeraSans-Roman-50"/>
      <use x="60.302734375" xlink:href="#BitstreamVeraSans-Roman-45"/>
      <use x="123.486328125" xlink:href="#BitstreamVeraSans-Roman-54"/>
      <use x="184.5703125" xlink:href="#BitstreamVeraSans-Roman-20"/>
      <use x="216.357421875" xlink:href="#BitstreamVeraSans-Roman-28"/>
      <use x="255.37109375" xlink:href="#BitstreamVeraSans-Roman-6d"/>
      <use x="352.783203125" xlink:href="#BitstreamVeraSans-Roman-6d"/>
      <use x="450.1953125" xlink:href="#BitstreamVeraSans-Roman-2f"/>
      <use x="483.88671875" xlink:href="#BitstreamVeraSans-Roman-64"/>
      <use x="547.36328125" xlink:href="#BitstreamVeraSans-Roman-61"/>
      <use x="608.642578125" xlink:href="#BitstreamVeraSans-Roman-79"/>
      <use x="667.822265625" xlink:href="#BitstreamVeraSans-Roman-29"/>
     </g>
    </g>
   </g>
   <g id="text_20">
    <!-- daily tree PET at Treeline -->
    <defs>
     <path d="
M56.2031 29.5938
L56.2031 25.2031
L14.8906 25.2031
Q15.4844 15.9219 20.4844 11.0625
Q25.4844 6.20312 34.4219 6.20312
Q39.5938 6.20312 44.4531 7.46875
Q49.3125 8.73438 54.1094 11.2812
L54.1094 2.78125
Q49.2656 0.734375 44.1875 -0.34375
Q39.1094 -1.42188 33.8906 -1.42188
Q20.7969 -1.42188 13.1562 6.1875
Q5.51562 13.8125 5.51562 26.8125
Q5.51562 40.2344 12.7656 48.1094
Q20.0156 56 32.3281 56
Q43.3594 56 49.7812 48.8906
Q56.2031 41.7969 56.2031 29.5938
M47.2188 32.2344
Q47.125 39.5938 43.0938 43.9844
Q39.0625 48.3906 32.4219 48.3906
Q24.9062 48.3906 20.3906 44.1406
Q15.875 39.8906 15.1875 32.1719
z
" id="BitstreamVeraSans-Roman-65"/>
     <path d="
M41.1094 46.2969
Q39.5938 47.1719 37.8125 47.5781
Q36.0312 48 33.8906 48
Q26.2656 48 22.1875 43.0469
Q18.1094 38.0938 18.1094 28.8125
L18.1094 0
L9.07812 0
L9.07812 54.6875
L18.1094 54.6875
L18.1094 46.1875
Q20.9531 51.1719 25.4844 53.5781
Q30.0312 56 36.5312 56
Q37.4531 56 38.5781 55.875
Q39.7031 55.7656 41.0625 55.5156
z
" id="BitstreamVeraSans-Roman-72"/>
     <path d="
M18.3125 70.2188
L18.3125 54.6875
L36.8125 54.6875
L36.8125 47.7031
L18.3125 47.7031
L18.3125 18.0156
Q18.3125 11.3281 20.1406 9.42188
Q21.9688 7.51562 27.5938 7.51562
L36.8125 7.51562
L36.8125 0
L27.5938 0
Q17.1875 0 13.2344 3.875
Q9.28125 7.76562 9.28125 18.0156
L9.28125 47.7031
L2.6875 47.7031
L2.6875 54.6875
L9.28125 54.6875
L9.28125 70.2188
z
" id="BitstreamVeraSans-Roman-74"/>
    </defs>
    <g transform="translate(124.4184375 16.318125)scale(0.12 -0.12)">
     <use xlink:href="#BitstreamVeraSans-Roman-64"/>
     <use x="63.4765625" xlink:href="#BitstreamVeraSans-Roman-61"/>
     <use x="124.755859375" xlink:href="#BitstreamVeraSans-Roman-69"/>
     <use x="152.5390625" xlink:href="#BitstreamVeraSans-Roman-6c"/>
     <use x="180.322265625" xlink:href="#BitstreamVeraSans-Roman-79"/>
     <use x="239.501953125" xlink:href="#BitstreamVeraSans-Roman-20"/>
     <use x="271.2890625" xlink:href="#BitstreamVeraSans-Roman-74"/>
     <use x="310.498046875" xlink:href="#BitstreamVeraSans-Roman-72"/>
     <use x="349.361328125" xlink:href="#BitstreamVeraSans-Roman-65"/>
     <use x="410.884765625" xlink:href="#BitstreamVeraSans-Roman-65"/>
     <use x="472.408203125" xlink:href="#BitstreamVeraSans-Roman-20"/>
     <use x="504.1953125" xlink:href="#BitstreamVeraSans-Roman-50"/>
     <use x="564.498046875" xlink:href="#BitstreamVeraSans-Roman-45"/>
     <use x="627.681640625" xlink:href="#BitstreamVeraSans-Roman-54"/>
     <use x="688.765625" xlink:href="#BitstreamVeraSans-Roman-20"/>
     <use x="720.552734375" xlink:href="#BitstreamVeraSans-Roman-61"/>
     <use x="781.83203125" xlink:href="#BitstreamVeraSans-Roman-74"/>
     <use x="821.041015625" xlink:href="#BitstreamVeraSans-Roman-20"/>
     <use x="852.828125" xlink:href="#BitstreamVeraSans-Roman-54"/>
     <use x="899.162109375" xlink:href="#BitstreamVeraSans-Roman-72"/>
     <use x="938.025390625" xlink:href="#BitstreamVeraSans-Roman-65"/>
     <use x="999.548828125" xlink:href="#BitstreamVeraSans-Roman-65"/>
     <use x="1061.072265625" xlink:href="#BitstreamVeraSans-Roman-6c"/>
     <use x="1088.85546875" xlink:href="#BitstreamVeraSans-Roman-69"/>
     <use x="1116.638671875" xlink:href="#BitstreamVeraSans-Roman-6e"/>
     <use x="1180.017578125" xlink:href="#BitstreamVeraSans-Roman-65"/>
    </g>
   </g>
   <g id="legend_1">
    <g id="patch_7">
     <path d="
M287.803 312.738
L359.991 312.738
L359.991 27.3181
L287.803 27.3181
z
" style="fill:#ffffff;stroke:#000000;stroke-linejoin:miter;"/>
    </g>
    <g id="line2d_51">
     <path d="
M296.203 37.0363
L313.003 37.0363" style="fill:none;stroke:#0000ff;stroke-linecap:square;"/>
    </g>
    <g id="line2d_52"/>
    <g id="text_21">
     <!-- 1999 -->
     <defs>
      <path d="
M10.9844 1.51562
L10.9844 10.5
Q14.7031 8.73438 18.5 7.8125
Q22.3125 6.89062 25.9844 6.89062
Q35.75 6.89062 40.8906 13.4531
Q46.0469 20.0156 46.7812 33.4062
Q43.9531 29.2031 39.5938 26.9531
Q35.25 24.7031 29.9844 24.7031
Q19.0469 24.7031 12.6719 31.3125
Q6.29688 37.9375 6.29688 49.4219
Q6.29688 60.6406 12.9375 67.4219
Q19.5781 74.2188 30.6094 74.2188
Q43.2656 74.2188 49.9219 64.5156
Q56.5938 54.8281 56.5938 36.375
Q56.5938 19.1406 48.4062 8.85938
Q40.2344 -1.42188 26.4219 -1.42188
Q22.7031 -1.42188 18.8906 -0.6875
Q15.0938 0.046875 10.9844 1.51562
M30.6094 32.4219
Q37.25 32.4219 41.125 36.9531
Q45.0156 41.5 45.0156 49.4219
Q45.0156 57.2812 41.125 61.8438
Q37.25 66.4062 30.6094 66.4062
Q23.9688 66.4062 20.0938 61.8438
Q16.2188 57.2812 16.2188 49.4219
Q16.2188 41.5 20.0938 36.9531
Q23.9688 32.4219 30.6094 32.4219" id="BitstreamVeraSans-Roman-39"/>
     </defs>
     <g transform="translate(326.203125 41.23625)scale(0.12 -0.12)">
      <use xlink:href="#BitstreamVeraSans-Roman-31"/>
      <use x="63.623046875" xlink:href="#BitstreamVeraSans-Roman-39"/>
      <use x="127.24609375" xlink:href="#BitstreamVeraSans-Roman-39"/>
      <use x="190.869140625" xlink:href="#BitstreamVeraSans-Roman-39"/>
     </g>
    </g>
    <g id="line2d_53">
     <path d="
M296.203 54.65
L313.003 54.65" style="fill:none;stroke:#008000;stroke-linecap:square;"/>
    </g>
    <g id="line2d_54"/>
    <g id="text_22">
     <!-- 2000 -->
     <g transform="translate(326.203125 58.85)scale(0.12 -0.12)">
      <use xlink:href="#BitstreamVeraSans-Roman-32"/>
      <use x="63.623046875" xlink:href="#BitstreamVeraSans-Roman-30"/>
      <use x="127.24609375" xlink:href="#BitstreamVeraSans-Roman-30"/>
      <use x="190.869140625" xlink:href="#BitstreamVeraSans-Roman-30"/>
     </g>
    </g>
    <g id="line2d_55">
     <path d="
M296.203 72.2638
L313.003 72.2638" style="fill:none;stroke:#ff0000;stroke-linecap:square;"/>
    </g>
    <g id="line2d_56"/>
    <g id="text_23">
     <!-- 2001 -->
     <g transform="translate(326.203125 76.46375)scale(0.12 -0.12)">
      <use xlink:href="#BitstreamVeraSans-Roman-32"/>
      <use x="63.623046875" xlink:href="#BitstreamVeraSans-Roman-30"/>
      <use x="127.24609375" xlink:href="#BitstreamVeraSans-Roman-30"/>
      <use x="190.869140625" xlink:href="#BitstreamVeraSans-Roman-31"/>
     </g>
    </g>
    <g id="line2d_57">
     <path d="
M296.203 89.8775
L313.003 89.8775" style="fill:none;stroke:#00bfbf;stroke-linecap:square;"/>
    </g>
    <g id="line2d_58"/>
    <g id="text_24">
     <!-- 2002 -->
     <g transform="translate(326.203125 94.0775)scale(0.12 -0.12)">
      <use xlink:href="#BitstreamVeraSans-Roman-32"/>
      <use x="63.623046875" xlink:href="#BitstreamVeraSans-Roman-30"/>
      <use x="127.24609375" xlink:href="#BitstreamVeraSans-Roman-30"/>
      <use x="190.869140625" xlink:href="#BitstreamVeraSans-Roman-32"/>
     </g>
    </g>
    <g id="line2d_59">
     <path d="
M296.203 107.491
L313.003 107.491" style="fill:none;stroke:#bf00bf;stroke-linecap:square;"/>
    </g>
    <g id="line2d_60"/>
    <g id="text_25">
     <!-- 2003 -->
     <g transform="translate(326.203125 111.69125)scale(0.12 -0.12)">
      <use xlink:href="#BitstreamVeraSans-Roman-32"/>
      <use x="63.623046875" xlink:href="#BitstreamVeraSans-Roman-30"/>
      <use x="127.24609375" xlink:href="#BitstreamVeraSans-Roman-30"/>
      <use x="190.869140625" xlink:href="#BitstreamVeraSans-Roman-33"/>
     </g>
    </g>
    <g id="line2d_61">
     <path d="
M296.203 125.105
L313.003 125.105" style="fill:none;stroke:#bfbf00;stroke-linecap:square;"/>
    </g>
    <g id="line2d_62"/>
    <g id="text_26">
     <!-- 2004 -->
     <g transform="translate(326.203125 129.305)scale(0.12 -0.12)">
      <use xlink:href="#BitstreamVeraSans-Roman-32"/>
      <use x="63.623046875" xlink:href="#BitstreamVeraSans-Roman-30"/>
      <use x="127.24609375" xlink:href="#BitstreamVeraSans-Roman-30"/>
      <use x="190.869140625" xlink:href="#BitstreamVeraSans-Roman-34"/>
     </g>
    </g>
    <g id="line2d_63">
     <path d="
M296.203 142.719
L313.003 142.719" style="fill:none;stroke:#000000;stroke-linecap:square;"/>
    </g>
    <g id="line2d_64"/>
    <g id="text_27">
     <!-- 2005 -->
     <g transform="translate(326.203125 146.91875)scale(0.12 -0.12)">
      <use xlink:href="#BitstreamVeraSans-Roman-32"/>
      <use x="63.623046875" xlink:href="#BitstreamVeraSans-Roman-30"/>
      <use x="127.24609375" xlink:href="#BitstreamVeraSans-Roman-30"/>
      <use x="190.869140625" xlink:href="#BitstreamVeraSans-Roman-35"/>
     </g>
    </g>
    <g id="line2d_65">
     <path d="
M296.203 160.333
L313.003 160.333" style="fill:none;stroke:#0000ff;stroke-linecap:square;"/>
    </g>
    <g id="line2d_66"/>
    <g id="text_28">
     <!-- 2006 -->
     <g transform="translate(326.203125 164.5325)scale(0.12 -0.12)">
      <use xlink:href="#BitstreamVeraSans-Roman-32"/>
      <use x="63.623046875" xlink:href="#BitstreamVeraSans-Roman-30"/>
      <use x="127.24609375" xlink:href="#BitstreamVeraSans-Roman-30"/>
      <use x="190.869140625" xlink:href="#BitstreamVeraSans-Roman-36"/>
     </g>
    </g>
    <g id="line2d_67">
     <path d="
M296.203 177.946
L313.003 177.946" style="fill:none;stroke:#008000;stroke-linecap:square;"/>
    </g>
    <g id="line2d_68"/>
    <g id="text_29">
     <!-- 2007 -->
     <g transform="translate(326.203125 182.14625)scale(0.12 -0.12)">
      <use xlink:href="#BitstreamVeraSans-Roman-32"/>
      <use x="63.623046875" xlink:href="#BitstreamVeraSans-Roman-30"/>
      <use x="127.24609375" xlink:href="#BitstreamVeraSans-Roman-30"/>
      <use x="190.869140625" xlink:href="#BitstreamVeraSans-Roman-37"/>
     </g>
    </g>
    <g id="line2d_69">
     <path d="
M296.203 195.56
L313.003 195.56" style="fill:none;stroke:#ff0000;stroke-linecap:square;"/>
    </g>
    <g id="line2d_70"/>
    <g id="text_30">
     <!-- 2008 -->
     <g transform="translate(326.203125 199.76)scale(0.12 -0.12)">
      <use xlink:href="#BitstreamVeraSans-Roman-32"/>
      <use x="63.623046875" xlink:href="#BitstreamVeraSans-Roman-30"/>
      <use x="127.24609375" xlink:href="#BitstreamVeraSans-Roman-30"/>
      <use x="190.869140625" xlink:href="#BitstreamVeraSans-Roman-38"/>
     </g>
    </g>
    <g id="line2d_71">
     <path d="
M296.203 213.174
L313.003 213.174" style="fill:none;stroke:#00bfbf;stroke-linecap:square;"/>
    </g>
    <g id="line2d_72"/>
    <g id="text_31">
     <!-- 2009 -->
     <g transform="translate(326.203125 217.37375)scale(0.12 -0.12)">
      <use xlink:href="#BitstreamVeraSans-Roman-32"/>
      <use x="63.623046875" xlink:href="#BitstreamVeraSans-Roman-30"/>
      <use x="127.24609375" xlink:href="#BitstreamVeraSans-Roman-30"/>
      <use x="190.869140625" xlink:href="#BitstreamVeraSans-Roman-39"/>
     </g>
    </g>
    <g id="line2d_73">
     <path d="
M296.203 230.788
L313.003 230.788" style="fill:none;stroke:#bf00bf;stroke-linecap:square;"/>
    </g>
    <g id="line2d_74"/>
    <g id="text_32">
     <!-- 2010 -->
     <g transform="translate(326.203125 234.9875)scale(0.12 -0.12)">
      <use xlink:href="#BitstreamVeraSans-Roman-32"/>
      <use x="63.623046875" xlink:href="#BitstreamVeraSans-Roman-30"/>
      <use x="127.24609375" xlink:href="#BitstreamVeraSans-Roman-31"/>
      <use x="190.869140625" xlink:href="#BitstreamVeraSans-Roman-30"/>
     </g>
    </g>
    <g id="line2d_75">
     <path d="
M296.203 248.401
L313.003 248.401" style="fill:none;stroke:#bfbf00;stroke-linecap:square;"/>
    </g>
    <g id="line2d_76"/>
    <g id="text_33">
     <!-- 2011 -->
     <g transform="translate(326.203125 252.60125)scale(0.12 -0.12)">
      <use xlink:href="#BitstreamVeraSans-Roman-32"/>
      <use x="63.623046875" xlink:href="#BitstreamVeraSans-Roman-30"/>
      <use x="127.24609375" xlink:href="#BitstreamVeraSans-Roman-31"/>
      <use x="190.869140625" xlink:href="#BitstreamVeraSans-Roman-31"/>
     </g>
    </g>
    <g id="line2d_77">
     <path d="
M296.203 266.015
L313.003 266.015" style="fill:none;stroke:#000000;stroke-linecap:square;"/>
    </g>
    <g id="line2d_78"/>
    <g id="text_34">
     <!-- 2012 -->
     <g transform="translate(326.203125 270.215)scale(0.12 -0.12)">
      <use xlink:href="#BitstreamVeraSans-Roman-32"/>
      <use x="63.623046875" xlink:href="#BitstreamVeraSans-Roman-30"/>
      <use x="127.24609375" xlink:href="#BitstreamVeraSans-Roman-31"/>
      <use x="190.869140625" xlink:href="#BitstreamVeraSans-Roman-32"/>
     </g>
    </g>
    <g id="line2d_79">
     <path d="
M296.203 283.629
L313.003 283.629" style="fill:none;stroke:#0000ff;stroke-linecap:square;"/>
    </g>
    <g id="line2d_80"/>
    <g id="text_35">
     <!-- 2013 -->
     <g transform="translate(326.203125 287.82875)scale(0.12 -0.12)">
      <use xlink:href="#BitstreamVeraSans-Roman-32"/>
      <use x="63.623046875" xlink:href="#BitstreamVeraSans-Roman-30"/>
      <use x="127.24609375" xlink:href="#BitstreamVeraSans-Roman-31"/>
      <use x="190.869140625" xlink:href="#BitstreamVeraSans-Roman-33"/>
     </g>
    </g>
    <g id="line2d_81">
     <path d="
M296.203 301.243
L313.003 301.243" style="fill:none;stroke:#008000;stroke-linecap:square;"/>
    </g>
    <g id="line2d_82"/>
    <g id="text_36">
     <!-- 2014 -->
     <g transform="translate(326.203125 305.4425)scale(0.12 -0.12)">
      <use xlink:href="#BitstreamVeraSans-Roman-32"/>
      <use x="63.623046875" xlink:href="#BitstreamVeraSans-Roman-30"/>
      <use x="127.24609375" xlink:href="#BitstreamVeraSans-Roman-31"/>
      <use x="190.869140625" xlink:href="#BitstreamVeraSans-Roman-34"/>
     </g>
    </g>
   </g>
  </g>
 </g>
 <defs>
  <clipPath id="p95a2ee5e18">
   <rect height="223.2" width="334.8" x="31.190625" y="21.318125"/>
  </clipPath>
 </defs>
</svg>
