<?xml version="1.0" encoding="utf-8" standalone="no"?>
<!DOCTYPE svg PUBLIC "-//W3C//DTD SVG 1.1//EN"
  "http://www.w3.org/Graphics/SVG/1.1/DTD/svg11.dtd">
<!-- Created with matplotlib (http://matplotlib.org/) -->
<svg height="284pt" version="1.1" viewBox="0 0 382 284" width="382pt" xmlns="http://www.w3.org/2000/svg" xmlns:xlink="http://www.w3.org/1999/xlink">
 <defs>
  <style type="text/css">
*{stroke-linecap:butt;stroke-linejoin:round;}
  </style>
 </defs>
 <g id="figure_1">
  <g id="patch_1">
   <path d="
M-1.77636e-15 284.711
L382.458 284.711
L382.458 0
L-1.77636e-15 0
z
" style="fill:#ffffff;"/>
  </g>
  <g id="axes_1">
   <g id="patch_2">
    <path d="
M40.4578 244.518
L375.258 244.518
L375.258 21.3181
L40.4578 21.3181
z
" style="fill:#ffffff;"/>
   </g>
   <g id="line2d_1">
    <path clip-path="url(#p32cac9c315)" d="
M0 0" style="fill:none;stroke:#0000ff;stroke-linecap:square;"/>
   </g>
   <g id="line2d_2">
    <path clip-path="url(#p32cac9c315)" d="
M0 0" style="fill:none;stroke:#008000;stroke-linecap:square;"/>
   </g>
   <g id="line2d_3">
    <path clip-path="url(#p32cac9c315)" d="
M0 0" style="fill:none;stroke:#ff0000;stroke-linecap:square;"/>
   </g>
   <g id="line2d_4">
    <path clip-path="url(#p32cac9c315)" d="
M0 0" style="fill:none;stroke:#00bfbf;stroke-linecap:square;"/>
   </g>
   <g id="line2d_5">
    <path clip-path="url(#p32cac9c315)" d="
M0 0" style="fill:none;stroke:#bf00bf;stroke-linecap:square;"/>
   </g>
   <g id="line2d_6">
    <path clip-path="url(#p32cac9c315)" d="
M0 0" style="fill:none;stroke:#bfbf00;stroke-linecap:square;"/>
   </g>
   <g id="line2d_7">
    <path clip-path="url(#p32cac9c315)" d="
M0 0" style="fill:none;stroke:#000000;stroke-linecap:square;"/>
   </g>
   <g id="line2d_8">
    <path clip-path="url(#p32cac9c315)" d="
M0 0" style="fill:none;stroke:#0000ff;stroke-linecap:square;"/>
   </g>
   <g id="line2d_9">
    <path clip-path="url(#p32cac9c315)" d="
M0 0" style="fill:none;stroke:#008000;stroke-linecap:square;"/>
   </g>
   <g id="line2d_10">
    <path clip-path="url(#p32cac9c315)" d="
M40.4578 138.15
L41.3751 105.585
L42.2923 121.259
L43.2096 197.173
L44.1269 215.201
L45.0441 219.362
L45.9614 225.771
L46.8786 223.451
L47.7959 201.952
L48.7132 220.306
M50.5477 218.424
L51.4649 218.146
L52.3822 199.464
L53.2995 191.938
L54.2167 167.737
L55.134 184.293
L56.0512 189.7
L56.9685 182.249
L57.8858 233.133
L58.803 233.592
L59.7203 193.993
L60.6375 167.956
L61.5548 177.927
L62.4721 205.343
L63.3893 197.052
L64.3066 197.269
L65.2238 218.768
L66.1411 226.027
M67.9756 241.395
L68.8929 225.915
L69.8101 219.601
M71.6447 209.772
L72.5619 203.571
L73.4792 210.173
L74.3964 238.234
L75.3137 190.323
L76.231 210.859
L77.1482 181.378
L78.0655 186.584
L78.9827 182.98
L79.9 201.033
L80.8173 161.948
L81.7345 162.691
L82.6518 173.258
L83.569 144.285
L84.4863 160.244
L85.4036 169.899
L87.2381 200.387
L88.1553 226.759
L89.0726 201.473
L89.9899 208.946
L90.9071 233.983
L91.8244 181.714
L92.7416 187.847
L94.5762 163.47
L95.4934 202.468
L96.4107 200.765
L97.3279 168.194
L98.2452 178.522
L99.1625 161.572
L100.08 131.544
L100.997 147.309
L101.914 186.637
L102.832 165.251
L103.749 153.283
L104.666 134.806
L105.583 106.243
L106.501 202.702
L107.418 215.694
L108.335 180.793
L109.252 185.958
L110.17 162.253
L111.087 234.607
L112.004 219.943
L112.921 176.763
L113.839 123.326
L114.756 107.984
L115.673 129.411
L116.59 192.754
L117.508 191.246
L118.425 224.018
L119.342 146.356
L120.259 199.448
L121.177 165.688
L122.094 164.33
L123.011 168.207
L123.928 106.202
L124.846 101.425
L125.763 101.736
L126.68 163.776
L127.598 141.544
L128.515 170.171
L129.432 191.731
L130.349 135.325
L132.184 175.855
L133.101 119.59
L134.018 119.48
L134.936 131.181
L135.853 164.792
L136.77 151.826
L137.687 130.101
L138.605 98.6189
L139.522 100.48
L140.439 121.129
L141.356 130.456
L142.274 120.652
L143.191 91.8727
L144.108 165.025
L145.025 163.078
L145.943 77.9599
L146.86 39.4278
L147.777 60.0178
L148.695 68.6713
L149.612 161.935
L150.529 71.397
L151.446 74.3395
L152.364 47.9175
L154.198 68.0619
L155.115 75.7327
L156.033 98.9904
L156.95 132.72
L157.867 75.59
L158.784 53.7368
L159.702 59.4984
L160.619 82.7137
L161.536 72.0539
L162.453 94.1546
L163.371 159.628
L164.288 112.187
L165.205 99.2628
L166.122 98.2386
L167.04 113.355
L167.957 100.4
L168.874 174.087
L169.792 146.034
L170.709 144.193
L171.626 170.696
L172.543 111.389
L173.461 148.349
L174.378 174.809
L175.295 171.846
L176.212 136.519
L177.13 141.359
L178.047 129.948
L178.964 128.541
L179.881 172.323
L180.799 88.8559
L181.716 184.892
L182.633 146.02
L183.55 96.5233
L184.468 85.3537
L185.385 125.615
L186.302 57.5458
L187.219 119.423
L188.137 137.403
L189.054 146.302
L189.971 87.425
L190.888 74.1648
L191.806 74.4739
L192.723 83.5629
L193.64 90.2216
L194.558 88.9887
L195.475 81.893
L196.392 81.4618
L197.309 102.566
L198.227 141.251
L199.144 111.268
L200.061 94.9904
L200.978 101.039
L201.896 85.7774
L202.813 95.2403
L203.73 100.217
L204.647 109.213
L205.565 116.114
L206.482 132.495
L207.399 138.17
L208.316 106.909
L209.234 118.169
L210.151 124.432
L211.068 114.101
L211.985 100.988
L212.903 104.121
L213.82 104.388
L214.737 106.155
L215.655 98.0603
L216.572 78.4733
L217.489 90.0574
L218.406 99.7443
L219.324 103.581
L220.241 106.505
L221.158 113.093
L222.075 108.398
L222.993 96.1601
L223.91 97.4934
L224.827 111.194
L226.662 159.608
L227.579 113.325
L228.496 108.794
L229.413 113.373
L230.331 111.501
L231.248 111.297
L232.165 111.594
L233.082 136.439
L234 102.367
L234.917 104.501
L235.834 118.135
L236.752 109.895
L237.669 109.752
L238.586 112.127
L239.503 135.411
L240.421 146.129
L241.338 137.395
L242.255 150.899
L243.172 120.399
L244.09 101.386
L245.007 107.785
L245.924 115.028
L246.841 116.834
L247.759 121.102
L248.676 120.935
L249.593 116.349
L250.51 122.69
L251.428 138.979
L252.345 140.8
L253.262 124.371
L254.179 135.014
L255.097 100.456
L256.014 111.101
L256.931 124.638
L257.848 131.655
L259.683 98.589
L260.6 116.024
L261.518 124.131
L262.435 126.382
L263.352 119.067
L264.269 132.496
L265.187 111.757
L266.104 94.6913
L267.021 96.0067
L267.938 109.971
L268.856 121.485
L269.773 117.547
L270.69 112.563
L271.607 119.43
L272.525 102.205
L273.442 109
L274.359 107.073
L275.276 117.435
L276.194 119.571
L277.111 118.186
L278.028 122.525
L278.945 125.049
L279.863 129.423
L280.78 155.923
L281.697 190.289
L282.615 206.013
L283.532 149.935
L284.449 118.676
L285.366 110.604
L286.284 122.33
L287.201 116.39
L288.118 125.892
L289.035 120.345
L289.953 124.406
L290.87 135.745
L291.787 134.2
L292.704 162.626
L293.622 165.041
L294.539 224.448
L295.456 192.11
L296.373 146.199
L297.291 146.326
L298.208 108.449
L299.125 115.329
L300.042 223.912
L300.96 196.595
L301.877 141.578
L302.794 117.419
L303.712 136.364
L304.629 133.125
L305.546 131.094
L306.463 146.894
L307.381 138.795
L308.298 148.361
L309.215 141.283
L310.132 148.391
L311.05 95.2831
L312.884 115.337
L313.801 135.196
L314.719 131.259
L315.636 117.762
L316.553 131.174
L317.47 132.409
L318.388 138.315
L319.305 169.518
L320.222 204.631
L321.139 226.787
L322.057 231.148
L322.974 232.721
L323.891 195.234
L324.808 207.082
L325.726 194.703
L326.643 193.888
L327.56 228.461
L328.478 217.39
L329.395 236.323
L330.312 204.039
L331.229 185.779
L332.147 138.326
L333.064 137.775
L333.981 146.153
L334.898 133.633
L335.816 141.005
L336.733 158.48
L337.65 185.547
L338.567 154.818
L339.485 185.576
L340.402 201.302
L341.319 143.344
L342.236 148.551
L343.154 171.434
L344.071 160.79
L344.988 183.683
L345.905 221.939
L346.823 209.772
L347.74 172.48
L348.657 214.33
L349.575 231.939
L350.492 159.695
L351.409 142.887
L352.326 141.835
L353.244 181.73
L354.161 211.449
L355.078 165.217
L355.995 146.734
L356.913 182.921
L358.747 241.449
L359.664 239.431
L360.582 212.842
L361.499 209.139
L362.416 199.152
L363.333 182.662
L364.251 228.513
L365.168 196.413
L366.085 221.704
L367.002 237.099
L367.92 227.153
L368.837 215.312
M370.672 218.321
L371.589 238.889
L372.506 239.363
L373.423 204.397
L374.341 157.023
L374.341 157.023" style="fill:none;stroke:#ff0000;stroke-linecap:square;"/>
   </g>
   <g id="line2d_11">
    <path clip-path="url(#p32cac9c315)" d="
M40.4578 232.719
L41.3751 197.517
L42.2923 207.701
L43.2096 161.856
L44.1269 190.4
L45.0441 239.484
L45.9614 218.174
L46.8786 204.584
L47.7959 226.464
L48.7132 188.982
L50.5477 219.258
L51.4649 210.898
L52.3822 175.402
L53.2995 184.947
L54.2167 179.581
L55.134 205.65
L56.0512 189.829
L56.9685 204.477
L57.8858 200.264
L58.803 177.808
L59.7203 207.353
L60.6375 242.812
L61.5548 240.393
M64.3066 211.415
L65.2238 211.927
L66.1411 213.697
L67.0584 204.27
L67.9756 207.158
L68.8929 179.046
L69.8101 156.754
L70.7274 171.693
L71.6447 191.747
L72.5619 187.426
L73.4792 203.436
L74.3964 224.68
L75.3137 216.339
L76.231 235.044
L77.1482 219.856
L78.0655 213.824
L78.9827 237.111
L79.9 217.626
L80.8173 241.967
L81.7345 194.196
L82.6518 192.636
L83.569 229.953
L84.4863 192.865
L85.4036 183.079
L86.3208 185.392
L87.2381 164.136
L88.1553 175.259
L89.0726 207.331
L89.9899 167.822
L90.9071 200.281
L91.8244 206.486
L92.7416 159.142
L93.6589 129.12
L94.5762 160.071
L95.4934 180.607
L96.4107 215.059
L97.3279 238.975
M99.1625 210.163
L100.08 202.106
L100.997 209.758
L101.914 185.019
L102.832 186.005
L103.749 160.787
L104.666 165.013
L105.583 170.065
L106.501 182.333
L107.418 242.599
L108.335 215.354
L109.252 181.149
L110.17 136.008
L111.087 164.111
L112.004 138.684
L112.921 196.082
L113.839 209.288
L114.756 163.237
L115.673 160.372
L116.59 226.924
L117.508 178.998
L118.425 138.43
L119.342 201.374
L120.259 209.461
L121.177 152.106
L122.094 230.494
L123.011 185.935
L123.928 231.055
L124.846 229.451
L126.68 136.202
L127.598 112.76
L128.515 117.927
L129.432 200.073
L130.349 150.747
L131.267 206.268
L133.101 113.224
L134.018 161.611
L134.936 127.5
L135.853 154.189
L136.77 94.5019
L137.687 105.015
L138.605 106.295
L139.522 93.773
L140.439 105.447
L141.356 113.422
L142.274 117.524
L143.191 128.34
L144.108 61.0019
L145.025 79.6655
L145.943 104.772
L146.86 113.552
L147.777 201.149
L148.695 100.538
L150.529 144.128
L151.446 162.69
L152.364 226.896
L153.281 169.905
L154.198 166.325
L155.115 178.751
L156.95 97.2302
L157.867 72.2792
L158.784 92.3914
L159.702 100.464
L160.619 118.54
L161.536 86.5067
L162.453 136.062
L163.371 93.6623
L164.288 90.1611
L165.205 100.354
L166.122 115.712
L167.04 104.644
L167.957 78.6599
L168.874 80.2572
L169.792 101.248
L170.709 128.754
L171.626 129.822
L172.543 100.876
L173.461 102.106
L174.378 101.407
L175.295 104.9
L176.212 125.204
L177.13 123.303
L178.964 148.268
L179.881 213.759
L180.799 142.491
L181.716 157.276
L182.633 191.172
L183.55 195.002
L184.468 122.768
L185.385 123.395
L186.302 122.406
L187.219 153.854
L188.137 150.858
L189.054 148.432
L189.971 201.86
L190.888 200.235
L191.806 197.347
L192.723 143.319
L193.64 170.644
L194.558 106.164
L195.475 131.696
L196.392 144.46
L197.309 177.403
L198.227 138.928
L199.144 89.929
L200.061 111.634
L200.978 110.48
L201.896 114.18
L202.813 94.235
L203.73 104.241
L204.647 119.077
L205.565 116.685
L206.482 110.564
L207.399 132.037
L208.316 140.355
L209.234 113.207
L210.151 134.71
L211.068 108.34
L211.985 104.401
L212.903 104.436
L213.82 110.901
L214.737 104.721
L215.655 143.959
L216.572 163.503
L217.489 148.806
L218.406 104.541
L219.324 111.171
L220.241 128.558
L221.158 132.674
L222.075 138.369
L222.993 122.537
L223.91 119.583
L224.827 122.423
L225.744 133.256
L226.662 156.929
L227.579 122.184
L228.496 126.049
L229.413 128.02
L230.331 133.335
L231.248 143.07
L232.165 137.709
L233.082 130.232
L234 125.474
L235.834 141.574
L236.752 136.885
L237.669 132.884
L238.586 142.504
L239.503 217.692
L240.421 230.526
L242.255 128.62
L243.172 126.151
L245.007 134.511
L245.924 149.277
L246.841 120.92
L247.759 128.871
L248.676 115.446
L249.593 117.885
L250.51 135.36
L251.428 135.898
L252.345 140.73
L253.262 140.422
L254.179 137.841
L255.097 173.397
L256.014 137.886
L256.931 137.445
L257.848 136.608
L258.766 141.706
L259.683 167.25
L260.6 142.86
L261.518 145.95
L262.435 129.48
L263.352 137.861
L264.269 138.071
L265.187 139.359
L267.021 160.106
L267.938 137.388
L268.856 125.464
L269.773 115.273
L270.69 125.596
L271.607 133.502
L272.525 139.314
L273.442 141.368
L274.359 145.363
L275.276 146.456
L276.194 156.903
L277.111 151.762
L278.028 148.606
L278.945 155.936
L279.863 157.54
L280.78 143.944
L281.697 123.77
L282.615 132.245
L283.532 142.154
L284.449 149.355
L285.366 154.338
L286.284 146.112
L287.201 139.903
L288.118 155.557
L289.035 186.128
L289.953 158.731
L290.87 125.913
L291.787 124.141
L292.704 201.56
M295.456 165.819
L296.373 148.254
L297.291 144.025
L298.208 169.935
L299.125 151.728
L300.042 139.009
L300.96 145.483
L301.877 197.512
L302.794 215.726
L303.712 197.785
L304.629 172.491
L305.546 176.066
L306.463 184.145
L307.381 209.17
L308.298 195.632
L309.215 199.45
L310.132 167.933
L311.05 191.292
L311.967 179.519
L312.884 143.24
L313.801 196.879
L314.719 239.909
L315.636 195.234
L316.553 213.925
L317.47 228.72
L318.388 202.276
L319.305 191.783
L320.222 182.582
L321.139 161.779
L322.057 161.557
L322.974 160.231
L323.891 212.037
L324.808 198.959
L325.726 170.93
L326.643 153.907
L327.56 165.456
L328.478 216.768
M330.312 228.475
L331.229 222.483
L332.147 166.177
L333.064 162.261
L333.981 153.98
L334.898 205.34
L335.816 164.544
L336.733 186.843
L337.65 185.447
L338.567 223.216
L339.485 199.774
L340.402 190.758
L341.319 192.163
L342.236 190.376
L343.154 210.862
L344.071 212.392
L344.988 194.677
M346.823 184.905
L347.74 185.462
L348.657 168.863
L349.575 162.449
L350.492 181.451
L351.409 177.1
L352.326 230.898
L353.244 196.577
L354.161 180.211
L355.078 173.167
L355.995 152.449
L356.913 207.55
L357.83 242.156
L358.747 218.749
L359.664 224.893
M361.499 226.849
L362.416 236.094
L363.333 228.342
L364.251 219.404
L365.168 214.755
L366.085 244.241
L367.002 227.837
L367.92 170.887
L368.837 204.784
L369.754 222.834
L370.672 213.478
L371.589 191.821
L373.423 237.91
L374.341 229.507
L374.341 229.507" style="fill:none;stroke:#00bfbf;stroke-linecap:square;"/>
   </g>
   <g id="line2d_12">
    <path clip-path="url(#p32cac9c315)" d="
M40.4578 241.919
L42.2923 219.22
L43.2096 200.464
L44.1269 221.574
L45.0441 208.978
L45.9614 229.242
L46.8786 173.768
L47.7959 184.125
L48.7132 199.304
L49.6304 179.826
L50.5477 196.435
L51.4649 235.375
L52.3822 218.802
L53.2995 158.078
L54.2167 200.635
L55.134 191.926
L56.0512 218.571
L56.9685 222.194
L57.8858 206.776
L58.803 197.15
L59.7203 208.372
M61.5548 217.35
L62.4721 228.65
L63.3893 239.324
M65.2238 235.101
L66.1411 226.582
L67.0584 212.485
M68.8929 226.708
L69.8101 199.145
L70.7274 214.418
L71.6447 227.109
L72.5619 230.228
L73.4792 218.939
L74.3964 242.429
L75.3137 238.765
L76.231 220.555
L77.1482 189.939
L78.0655 224.324
L78.9827 216.606
L79.9 233.134
L80.8173 205.042
M82.6518 242.766
L83.569 240.444
L84.4863 234.122
L85.4036 209.229
L86.3208 201.919
L87.2381 209.3
L88.1553 136.729
L89.0726 150.394
L89.9899 225.767
L90.9071 221.018
L91.8244 178.984
L92.7416 203.813
L93.6589 209.386
L94.5762 178.67
L95.4934 168.423
L96.4107 213.253
L97.3279 203.873
L98.2452 202.763
L100.08 159.005
L100.997 217.245
L101.914 172.887
L102.832 143.722
L103.749 154.778
L104.666 174.506
L105.583 225.992
L106.501 183.148
L107.418 127.302
L108.335 138.772
L109.252 131.427
L110.17 142.596
L111.087 102.332
L112.004 121.73
L112.921 173.235
L113.839 184.223
L114.756 125.699
L115.673 122.689
L116.59 205.375
L117.508 205.375
L118.425 147.042
L119.342 132.904
L121.177 239.163
L122.094 190.02
L123.011 230.591
L123.928 227.465
L124.846 188.877
L125.763 202.771
L126.68 220.227
L127.598 164.209
L128.515 137.39
L129.432 167.849
L130.349 104.168
L131.267 131.448
L132.184 139.121
L133.101 209.568
L134.018 181.933
L134.936 116.219
L135.853 86.5903
L136.77 126.95
L137.687 117.529
L138.605 91.1569
L139.522 94.0492
L140.439 161.557
L141.356 204.431
L142.274 182.922
L143.191 83.5618
L144.108 79.6394
L145.025 67.3267
L145.943 100.333
L146.86 210.35
L147.777 213.555
L148.695 181.617
L149.612 192.926
L150.529 170.268
L151.446 117.637
L152.364 176.273
L153.281 39.5621
L154.198 133.323
L155.115 123.986
L156.033 57.4497
L156.95 74.3212
L157.867 68.2569
L158.784 180.545
L159.702 107.947
L160.619 80.4728
L161.536 84.9602
L162.453 73.6647
L163.371 80.4039
L165.205 132.84
L166.122 221.367
L167.04 123.293
L167.957 91.1207
L168.874 143.372
M170.709 163.598
L171.626 145.038
L172.543 100.167
L173.461 182.274
L174.378 155.919
L175.295 175.744
L177.13 101.054
L178.047 187.33
L178.964 167.587
L179.881 217.128
L180.799 153.699
L181.716 229.031
L182.633 128.695
L183.55 201.138
L184.468 107.935
L185.385 117.387
L186.302 157.943
L187.219 168.065
L188.137 127.715
L189.054 78.6561
L189.971 88.7427
L190.888 100.88
L191.806 109.044
L192.723 95.7078
L193.64 109.992
L194.558 80.5738
L195.475 110.899
L196.392 154.129
L197.309 159.061
L198.227 96.2595
L199.144 102.712
L200.061 141.534
L200.978 159.309
L201.896 109.816
L202.813 100.42
L203.73 124.862
L204.647 158.211
L205.565 115.694
L206.482 106.48
L208.316 127.152
L209.234 96.6552
L210.151 98.1333
L211.068 96.1228
L211.985 98.4225
L212.903 105.814
L214.737 124.041
L215.655 114.923
L216.572 110.202
L217.489 79.3628
L218.406 88.2937
L219.324 99.8275
L220.241 113.831
L221.158 108.334
L222.075 109.549
L222.993 97.1943
L223.91 100.6
L224.827 109.862
L225.744 108.308
L226.662 100.738
L227.579 110.215
L228.496 127.733
L229.413 183.429
L230.331 133.243
L231.248 138.955
L232.165 129.091
L233.082 141.225
L234 133.612
L234.917 115.806
L235.834 113.788
L236.752 119.07
L237.669 118.443
L238.586 130.465
L239.503 147.68
L240.421 117.753
L241.338 122.106
L243.172 159.692
L244.09 198.828
L245.007 146.415
L245.924 127.202
L246.841 124.955
L247.759 125.619
L248.676 123.456
L249.593 127.142
L250.51 129.521
L251.428 121.01
L252.345 116.654
L253.262 126.915
L254.179 117.226
L255.097 116.35
L256.014 113.873
L256.931 125.121
L257.848 158.544
L258.766 110.257
L259.683 126.107
L260.6 206.908
L261.518 152.047
L262.435 164.415
L263.352 158.951
L264.269 128.378
L265.187 123.614
L266.104 138.873
L267.021 110.869
L267.938 105.656
L268.856 107.354
L269.773 190.9
L270.69 230.26
L271.607 131.756
L272.525 117.733
L273.442 122.098
L275.276 137.769
L276.194 129.086
L277.111 127.103
L278.028 144.64
L278.945 139.74
L279.863 152.924
L281.697 130.302
L282.615 130.353
L283.532 126.522
L284.449 121.395
L285.366 132.861
L286.284 136.78
L287.201 132.722
L289.035 141.463
L289.953 135.159
L290.87 142.045
L291.787 141.773
L292.704 183.122
L293.622 209.628
L294.539 185.056
L295.456 180.139
L296.373 147.49
L297.291 210.324
L298.208 184.609
L299.125 167.808
L300.042 176.21
L300.96 141.218
L301.877 132.659
L302.794 130.447
L303.712 148.997
L304.629 158.642
L305.546 152.293
L306.463 130.47
L307.381 119.463
L308.298 132.763
L309.215 134.771
L310.132 143.035
L311.05 213.56
L311.967 241.41
L312.884 206.458
L313.801 224.304
L314.719 175.378
L315.636 134.99
L316.553 148.48
L317.47 159.113
L318.388 217.403
L319.305 171.391
L320.222 165.379
L321.139 170.329
L322.057 155.339
L322.974 165.561
L323.891 165.689
L324.808 218.24
L325.726 222.119
L326.643 185.744
L327.56 237.987
L328.478 222.408
L329.395 187.988
L330.312 193.7
L331.229 239.055
L332.147 210.059
L333.064 200.38
L333.981 171.634
L334.898 197.488
M340.402 180.178
L341.319 166.372
L342.236 178
L343.154 204.772
L344.071 222.262
L344.988 187.393
L345.905 191.576
M347.74 237.245
L348.657 214.629
L349.575 220.818
L350.492 236.302
L351.409 239.283
L352.326 221.718
L353.244 195.974
L354.161 218.529
L355.078 230.035
L355.995 230.19
L356.913 218.209
L357.83 215.657
L358.747 234.579
L359.664 224.727
L360.582 187.808
L361.499 183.594
L362.416 218.426
L363.333 239.858
L364.251 225.693
L365.168 196.06
L366.085 234.675
L367.002 230.609
L367.92 187.593
L368.837 137.967
L369.754 221.398
L370.672 219.616
L371.589 226.467
M373.423 233.824
L374.341 223.555
L374.341 223.555" style="fill:none;stroke:#bf00bf;stroke-linecap:square;"/>
   </g>
   <g id="line2d_13">
    <path clip-path="url(#p32cac9c315)" d="
M40.4578 196.842
L41.3751 199.983
L42.2923 227.048
L43.2096 232.169
L44.1269 196.818
L45.0441 207.294
L45.9614 205.65
L46.8786 212.43
L47.7959 227.705
M49.6304 201.848
L50.5477 212.108
M52.3822 232.523
L53.2995 229.471
L54.2167 239.804
L55.134 228.923
L56.0512 234.965
M57.8858 189.039
L58.803 228.385
L59.7203 230.682
L60.6375 174.076
L61.5548 232.223
L62.4721 237.633
L63.3893 238.772
L64.3066 231.659
L65.2238 230.636
L66.1411 232.345
M67.9756 207.077
L68.8929 177.394
L69.8101 156.51
L70.7274 175.947
L71.6447 214.632
L72.5619 208.739
L73.4792 206.376
L74.3964 206.543
L75.3137 217.246
L76.231 195.424
L78.0655 169.769
L78.9827 169.447
L79.9 157.878
L81.7345 172.141
L82.6518 211.153
L84.4863 233.134
L85.4036 227.692
M87.2381 218.304
L88.1553 214.491
L89.0726 202.914
M91.8244 183.446
L92.7416 172.216
L93.6589 182.968
L94.5762 148.809
L95.4934 201.44
L96.4107 207.48
L97.3279 219.044
L98.2452 227.603
L99.1625 231.845
L100.08 239.468
M101.914 223.384
L102.832 214.442
L103.749 242.948
L104.666 205.781
L105.583 239.589
L106.501 184.13
L107.418 217.786
M109.252 244.314
L110.17 182.382
L111.087 229.642
L112.004 191.86
L112.921 215.296
L113.839 205.957
L114.756 189.59
L115.673 226.051
M119.342 200.721
L120.259 221.82
L121.177 220.104
L122.094 155.412
L123.011 158.913
L123.928 169.116
L124.846 197.662
L125.763 163.262
L126.68 174.166
L127.598 190.847
L128.515 170.251
L129.432 190.403
L130.349 206.814
L131.267 161.171
L132.184 175.94
L133.101 121.622
L134.018 187.714
L134.936 115.121
L135.853 172.686
L136.77 186.085
L137.687 157.277
L138.605 157.178
L139.522 75.3004
L140.439 175.554
L141.356 197.918
L142.274 96.0282
L143.191 77.6586
L144.108 152.753
L145.025 203.98
L145.943 144.287
L146.86 116.231
L147.777 203.412
L148.695 118.738
L149.612 131.969
L150.529 104.977
L151.446 152.776
L152.364 106.588
L153.281 94.2438
L154.198 117.563
L155.115 185.372
L156.033 153.782
L156.95 180.58
L158.784 102.395
L159.702 102.732
L160.619 116.837
L161.536 124.247
L162.453 158.272
L163.371 197.304
L164.288 223.178
L165.205 144.028
L166.122 184.31
L167.04 91.5296
L167.957 109.54
L168.874 144.332
L169.792 115.868
L170.709 172.699
L171.626 169.854
L172.543 158.267
L173.461 119.076
L174.378 199.896
L175.295 199.688
L176.212 198.934
L177.13 135.718
L178.047 150.838
L178.964 130.76
L179.881 182.967
L180.799 92.8585
L181.716 112.602
L182.633 127.606
L183.55 175.448
L184.468 189.496
L185.385 108.027
L186.302 135.007
L187.219 145.807
L188.137 147.25
L189.054 116.201
L189.971 161.221
L190.888 95.855
L191.806 80.6514
L192.723 116.332
L193.64 88.6849
L194.558 189.424
L195.475 180.685
L196.392 98.3592
L198.227 120.352
L199.144 118.812
L200.061 101.192
L200.978 95.2027
L201.896 100.307
L202.813 111.093
L203.73 125.421
L204.647 160.538
L205.565 115.06
L206.482 105.23
L207.399 106.418
L208.316 120.093
L209.234 124.859
L210.151 127.881
L211.068 122.44
L211.985 172.996
L212.903 108.359
L213.82 103.908
L214.737 123.876
L215.655 131.303
L216.572 122.781
L217.489 136.827
L218.406 125.264
L219.324 119.734
L220.241 135.232
L221.158 125.585
L222.075 123.484
L222.993 127.803
L223.91 114.033
L224.827 111.078
L225.744 115.289
L226.662 111.751
L227.579 125.661
L228.496 124.598
L229.413 127.717
L230.331 121.386
L231.248 119.229
L232.165 125.809
L233.082 138.693
L234 147.805
L234.917 137.639
L235.834 140.447
L236.752 128.729
L237.669 167.175
L238.586 129.939
L239.503 131.784
L240.421 136.668
L241.338 137.777
L242.255 124.611
L243.172 127.076
L244.09 118.478
L245.007 125.588
L245.924 142.6
L246.841 138.918
L247.759 118.543
L248.676 122.972
L249.593 131.805
L250.51 131.864
L251.428 129.454
L252.345 141.843
L253.262 143.871
L254.179 141.459
L255.097 138.027
L256.014 139.18
L256.931 146.706
L257.848 145.275
L258.766 173.665
L259.683 150.344
L260.6 140.929
L261.518 138.475
L262.435 125.334
L263.352 122.758
L264.269 124.191
L265.187 127.806
L266.104 127.965
L267.021 135.298
L267.938 141.645
L268.856 145.327
L269.773 144.172
L270.69 152.465
L271.607 149.301
L272.525 158.619
L273.442 150.396
L274.359 149.82
L275.276 148.057
L276.194 204.374
L277.111 155.499
L278.028 128.326
L278.945 125.426
L279.863 138.415
L280.78 140.736
L281.697 135.057
L282.615 143.379
L283.532 144.169
L284.449 150.031
L285.366 156.989
L286.284 143.456
L287.201 143.641
L288.118 148.027
L289.035 140.779
L289.953 155.996
L290.87 154.523
L291.787 157.314
L292.704 156.681
L293.622 220.466
L294.539 237.084
M296.373 244.334
L297.291 185.828
L298.208 157.046
L299.125 215.79
L300.042 197.782
L300.96 156.123
L301.877 150.178
L302.794 147.077
L303.712 172.019
L304.629 239.331
L305.546 169.727
L306.463 144.038
L307.381 162.765
L308.298 151.489
L309.215 164.96
L310.132 176.269
L311.05 169.423
L311.967 200.145
L312.884 153.586
L313.801 122.703
L314.719 135.137
L315.636 135.067
L316.553 143.972
L317.47 162.832
L318.388 194.61
L319.305 154.333
L320.222 124.826
L321.139 152.217
L322.057 211.859
L322.974 224.371
L323.891 233.746
L324.808 236.234
L326.643 162.871
L327.56 157.079
L328.478 172.773
L329.395 208.032
L330.312 218.397
L331.229 157.901
L332.147 137.043
L333.981 231.021
L334.898 232.598
L335.816 222.603
L336.733 175.879
L337.65 194.457
L338.567 216.556
L339.485 169.295
L340.402 198.671
L341.319 197.131
L342.236 139.711
L343.154 140.844
L344.071 185.574
L344.988 220.214
L345.905 203.526
L346.823 154.658
L347.74 156.12
L348.657 173.274
L349.575 185.273
L350.492 184.584
L351.409 157.94
L352.326 164.102
L353.244 162.903
L354.161 164.081
L355.995 177.708
L356.913 174.336
L357.83 187.175
L358.747 174.282
L359.664 201.172
L360.582 200.61
L361.499 198.195
L363.333 176.404
L364.251 166.542
L365.168 197.356
L366.085 150.765
L367.002 142.846
L369.754 174.696
L370.672 197.378
L371.589 227.533
L372.506 211.165
M374.341 196.749" style="fill:none;stroke:#bfbf00;stroke-linecap:square;"/>
   </g>
   <g id="line2d_14">
    <path clip-path="url(#p32cac9c315)" d="
M40.4578 143.748
L41.3751 158.403
L42.2923 152.219
L43.2096 141.238
L45.0441 189.063
L45.9614 200.858
L46.8786 183.835
L47.7959 193.65
L48.7132 227.793
L49.6304 178.556
L50.5477 187.662
L51.4649 143.681
L52.3822 130.321
L53.2995 173.701
L54.2167 187.948
L55.134 156.24
L56.0512 207.682
M58.803 241.75
L59.7203 221.223
L60.6375 243.838
L61.5548 224.267
L62.4721 218.365
L63.3893 239.433
L64.3066 176.662
L65.2238 159.175
L66.1411 134.978
L67.0584 197.215
L67.9756 165.496
L68.8929 218.574
L69.8101 211.298
L70.7274 171.91
L71.6447 164.888
L72.5619 162.938
L73.4792 164.641
L74.3964 140.797
L75.3137 205.727
L76.231 236.479
L77.1482 201.644
L78.0655 225.116
L78.9827 232.341
L79.9 198.238
L81.7345 222.595
L82.6518 178.978
L83.569 178.23
L84.4863 207.842
L85.4036 189.683
L86.3208 214.148
M88.1553 220.431
L89.0726 183.991
L89.9899 135.027
L90.9071 209.832
L91.8244 175.673
L93.6589 148.795
L94.5762 201.321
L95.4934 235.506
L96.4107 184.433
L97.3279 204.001
L98.2452 169.272
L99.1625 157.699
L100.08 195.744
L100.997 132.3
L101.914 126.259
L102.832 127.949
L103.749 140.071
L104.666 182.422
L106.501 206.376
M108.335 206.462
L109.252 231.518
L110.17 233.439
M112.004 202.134
L112.921 217.09
L113.839 173.165
L114.756 110.12
L115.673 155.479
L116.59 124.579
L117.508 166.822
L118.425 220.956
L119.342 141.041
L120.259 187.744
L121.177 201.499
L122.094 222.608
L123.011 127.811
L123.928 98.9317
L124.846 121.871
L125.763 114.092
L126.68 156.995
L127.598 120.28
L128.515 115.507
L129.432 86.4199
L130.349 82.6814
L131.267 114.445
L132.184 105.137
L133.101 177.285
L134.018 142.909
L134.936 174.021
L135.853 122.781
L136.77 83.8524
L137.687 190.171
L138.605 144.006
L139.522 144.628
L140.439 174.531
L141.356 124.334
L142.274 101.729
L143.191 107.866
L144.108 144.779
L145.025 134.1
L145.943 162.116
L146.86 243.486
L147.777 93.1912
L148.695 133.752
L149.612 90.2684
L150.529 184.042
L151.446 111.084
L152.364 94.8661
L153.281 187.751
L154.198 216.331
L155.115 125.789
L156.033 77.3305
L157.867 81.6744
L158.784 97.4335
L159.702 60.9832
L160.619 70.6487
L161.536 82.6889
L162.453 87.9962
L163.371 111.528
L164.288 154.474
L165.205 114.898
L166.122 138.971
L167.04 87.0372
L167.957 76.9806
L168.874 100.416
L169.792 160.318
L170.709 167.684
L171.626 152.016
L172.543 114.577
L173.461 202.823
L174.378 206.765
L175.295 160.871
L176.212 92.157
L177.13 90.3554
L178.047 102.856
L178.964 108.523
L179.881 104.711
L180.799 145.295
L181.716 120.724
L182.633 147.071
L183.55 217.789
L184.468 99.0749
L185.385 119.035
L186.302 130.519
L187.219 195.306
L188.137 131.632
L189.054 89.0935
L189.971 119.806
L191.806 76.2151
L192.723 86.4931
L193.64 104.586
L194.558 111.877
L195.475 84.8875
L196.392 100.623
L197.309 84.1821
L198.227 107.076
L199.144 115.066
L200.061 103.925
L200.978 103.903
L201.896 99.0277
L202.813 97.407
L203.73 90.0011
L204.647 104.455
L205.565 101.514
L206.482 112.412
L207.399 138.705
L208.316 118.44
L209.234 106.313
L210.151 101.865
L211.068 122.486
L211.985 127.447
L212.903 127.282
L213.82 151.364
L214.737 135.648
L215.655 127.876
L216.572 131.73
L217.489 134.554
L218.406 161.394
L219.324 170.398
L220.241 138.78
L221.158 154.37
L222.075 119.334
L222.993 120.104
L223.91 140.697
L224.827 117.017
L225.744 122.697
L226.662 122.613
L227.579 125.875
L228.496 123.18
L229.413 123.665
L230.331 128.796
L231.248 132.492
L232.165 131.639
L233.082 127.294
L234 130.792
L234.917 125.785
L235.834 124.743
L236.752 114.606
L237.669 116.398
L238.586 120.147
L239.503 132.586
L240.421 131.077
L241.338 138.321
L242.255 146.779
L243.172 136.629
L244.09 151.62
L245.007 130.509
L245.924 143.425
L246.841 143.51
L247.759 140.521
L248.676 135.396
L249.593 134.169
L250.51 138.455
L251.428 135.348
L252.345 163.899
L253.262 142.616
L254.179 145.982
L255.097 135.738
L256.014 128.772
L256.931 110.001
L257.848 119.169
L258.766 143.983
L259.683 145.575
L260.6 129.66
L261.518 129.182
L262.435 123.864
L263.352 156.807
L264.269 137.994
L265.187 109.594
L267.021 123.107
L267.938 127.776
L268.856 150.881
L269.773 124.54
L271.607 135.191
L272.525 127.128
L273.442 121.252
L274.359 107.98
L275.276 117.925
L276.194 130.499
L277.111 126.231
L278.028 133.384
L278.945 130
L279.863 127.93
L280.78 143.359
L281.697 148.996
L282.615 150.809
L283.532 145.896
L284.449 204.103
L285.366 156.32
L286.284 156.492
L287.201 153.001
L288.118 138.201
L289.035 144.573
L289.953 146.729
L290.87 144.793
L291.787 137.303
L292.704 137.643
L293.622 114.959
L294.539 115.473
L295.456 109.248
L296.373 112.453
L297.291 117.038
L298.208 116.971
L299.125 130.607
L300.042 136.419
L300.96 138.08
L301.877 137.926
L302.794 188.627
L303.712 161.192
L304.629 171.241
L305.546 175.421
L306.463 146.695
L307.381 133.767
L308.298 161.819
L309.215 186.217
L310.132 150.194
L311.05 230.273
L311.967 243.657
L312.884 218.033
L313.801 219.726
L314.719 178.816
L315.636 193.54
L316.553 225.342
L317.47 176.961
L318.388 160.27
L319.305 154.482
L320.222 183.475
L321.139 165.586
L322.057 177.34
L322.974 165.946
L323.891 184.414
L324.808 170.918
L325.726 185.253
L326.643 203.496
L327.56 240.985
L328.478 218.707
L329.395 222.745
L330.312 213.502
L331.229 218.147
L332.147 214.763
L333.064 205.095
L333.981 188.293
L334.898 219.855
L335.816 212.242
L336.733 212.082
L337.65 201.237
L338.567 225.067
L339.485 177.689
L340.402 146.123
L341.319 197.533
L342.236 218.075
L343.154 195.032
L344.071 175.18
L344.988 194.008
L345.905 206.668
L346.823 226.195
L347.74 223.635
L348.657 242.494
L349.575 179.437
L350.492 212.75
L351.409 227.299
L352.326 206.352
L353.244 188.7
L354.161 216.131
L355.078 195.123
L355.995 231.874
L356.913 205.352
L357.83 237.194
L358.747 208.998
L359.664 223.975
L360.582 226.81
M362.416 224.328
L363.333 209.556
L364.251 202.592
L365.168 142.852
L366.085 135.756
L367.002 191.097
L367.92 230.368
L368.837 230.228
L369.754 204.145
L370.672 232.506
L371.589 236.987
L372.506 209.839
L373.423 208.315
L374.341 239.107
L374.341 239.107" style="fill:none;stroke:#000000;stroke-linecap:square;"/>
   </g>
   <g id="patch_3">
    <path d="
M40.4578 21.3181
L375.258 21.3181" style="fill:none;stroke:#000000;stroke-linecap:square;stroke-linejoin:miter;"/>
   </g>
   <g id="patch_4">
    <path d="
M375.258 244.518
L375.258 21.3181" style="fill:none;stroke:#000000;stroke-linecap:square;stroke-linejoin:miter;"/>
   </g>
   <g id="patch_5">
    <path d="
M40.4578 244.518
L375.258 244.518" style="fill:none;stroke:#000000;stroke-linecap:square;stroke-linejoin:miter;"/>
   </g>
   <g id="patch_6">
    <path d="
M40.4578 244.518
L40.4578 21.3181" style="fill:none;stroke:#000000;stroke-linecap:square;stroke-linejoin:miter;"/>
   </g>
   <g id="matplotlib.axis_1">
    <g id="xtick_1">
     <g id="line2d_15">
      <defs>
       <path d="
M0 0
L0 -4" id="m93b0483c22" style="stroke:#000000;stroke-width:0.5;"/>
      </defs>
      <g>
       <use style="stroke:#000000;stroke-width:0.5;" x="40.4578125" xlink:href="#m93b0483c22" y="244.518125"/>
      </g>
     </g>
     <g id="line2d_16">
      <defs>
       <path d="
M0 0
L0 4" id="m741efc42ff" style="stroke:#000000;stroke-width:0.5;"/>
      </defs>
      <g>
       <use style="stroke:#000000;stroke-width:0.5;" x="40.4578125" xlink:href="#m741efc42ff" y="21.318125"/>
      </g>
     </g>
     <g id="text_1">
      <!-- 0 -->
      <defs>
       <path d="
M31.7812 66.4062
Q24.1719 66.4062 20.3281 58.9062
Q16.5 51.4219 16.5 36.375
Q16.5 21.3906 20.3281 13.8906
Q24.1719 6.39062 31.7812 6.39062
Q39.4531 6.39062 43.2812 13.8906
Q47.125 21.3906 47.125 36.375
Q47.125 51.4219 43.2812 58.9062
Q39.4531 66.4062 31.7812 66.4062
M31.7812 74.2188
Q44.0469 74.2188 50.5156 64.5156
Q56.9844 54.8281 56.9844 36.375
Q56.9844 17.9688 50.5156 8.26562
Q44.0469 -1.42188 31.7812 -1.42188
Q19.5312 -1.42188 13.0625 8.26562
Q6.59375 17.9688 6.59375 36.375
Q6.59375 54.8281 13.0625 64.5156
Q19.5312 74.2188 31.7812 74.2188" id="BitstreamVeraSans-Roman-30"/>
      </defs>
      <g transform="translate(37.93828125 256.1165625)scale(0.1 -0.1)">
       <use xlink:href="#BitstreamVeraSans-Roman-30"/>
      </g>
     </g>
    </g>
    <g id="xtick_2">
     <g id="line2d_17">
      <g>
       <use style="stroke:#000000;stroke-width:0.5;" x="86.3208261986" xlink:href="#m93b0483c22" y="244.518125"/>
      </g>
     </g>
     <g id="line2d_18">
      <g>
       <use style="stroke:#000000;stroke-width:0.5;" x="86.3208261986" xlink:href="#m741efc42ff" y="21.318125"/>
      </g>
     </g>
     <g id="text_2">
      <!-- 50 -->
      <defs>
       <path d="
M10.7969 72.9062
L49.5156 72.9062
L49.5156 64.5938
L19.8281 64.5938
L19.8281 46.7344
Q21.9688 47.4688 24.1094 47.8281
Q26.2656 48.1875 28.4219 48.1875
Q40.625 48.1875 47.75 41.5
Q54.8906 34.8125 54.8906 23.3906
Q54.8906 11.625 47.5625 5.09375
Q40.2344 -1.42188 26.9062 -1.42188
Q22.3125 -1.42188 17.5469 -0.640625
Q12.7969 0.140625 7.71875 1.70312
L7.71875 11.625
Q12.1094 9.23438 16.7969 8.0625
Q21.4844 6.89062 26.7031 6.89062
Q35.1562 6.89062 40.0781 11.3281
Q45.0156 15.7656 45.0156 23.3906
Q45.0156 31 40.0781 35.4375
Q35.1562 39.8906 26.7031 39.8906
Q22.75 39.8906 18.8125 39.0156
Q14.8906 38.1406 10.7969 36.2812
z
" id="BitstreamVeraSans-Roman-35"/>
      </defs>
      <g transform="translate(80.6762949486 256.1165625)scale(0.1 -0.1)">
       <use xlink:href="#BitstreamVeraSans-Roman-35"/>
       <use x="63.623046875" xlink:href="#BitstreamVeraSans-Roman-30"/>
      </g>
     </g>
    </g>
    <g id="xtick_3">
     <g id="line2d_19">
      <g>
       <use style="stroke:#000000;stroke-width:0.5;" x="132.183839897" xlink:href="#m93b0483c22" y="244.518125"/>
      </g>
     </g>
     <g id="line2d_20">
      <g>
       <use style="stroke:#000000;stroke-width:0.5;" x="132.183839897" xlink:href="#m741efc42ff" y="21.318125"/>
      </g>
     </g>
     <g id="text_3">
      <!-- 100 -->
      <defs>
       <path d="
M12.4062 8.29688
L28.5156 8.29688
L28.5156 63.9219
L10.9844 60.4062
L10.9844 69.3906
L28.4219 72.9062
L38.2812 72.9062
L38.2812 8.29688
L54.3906 8.29688
L54.3906 0
L12.4062 0
z
" id="BitstreamVeraSans-Roman-31"/>
      </defs>
      <g transform="translate(123.521339897 256.1165625)scale(0.1 -0.1)">
       <use xlink:href="#BitstreamVeraSans-Roman-31"/>
       <use x="63.623046875" xlink:href="#BitstreamVeraSans-Roman-30"/>
       <use x="127.24609375" xlink:href="#BitstreamVeraSans-Roman-30"/>
      </g>
     </g>
    </g>
    <g id="xtick_4">
     <g id="line2d_21">
      <g>
       <use style="stroke:#000000;stroke-width:0.5;" x="178.046853596" xlink:href="#m93b0483c22" y="244.518125"/>
      </g>
     </g>
     <g id="line2d_22">
      <g>
       <use style="stroke:#000000;stroke-width:0.5;" x="178.046853596" xlink:href="#m741efc42ff" y="21.318125"/>
      </g>
     </g>
     <g id="text_4">
      <!-- 150 -->
      <g transform="translate(169.384353596 256.1165625)scale(0.1 -0.1)">
       <use xlink:href="#BitstreamVeraSans-Roman-31"/>
       <use x="63.623046875" xlink:href="#BitstreamVeraSans-Roman-35"/>
       <use x="127.24609375" xlink:href="#BitstreamVeraSans-Roman-30"/>
      </g>
     </g>
    </g>
    <g id="xtick_5">
     <g id="line2d_23">
      <g>
       <use style="stroke:#000000;stroke-width:0.5;" x="223.909867295" xlink:href="#m93b0483c22" y="244.518125"/>
      </g>
     </g>
     <g id="line2d_24">
      <g>
       <use style="stroke:#000000;stroke-width:0.5;" x="223.909867295" xlink:href="#m741efc42ff" y="21.318125"/>
      </g>
     </g>
     <g id="text_5">
      <!-- 200 -->
      <defs>
       <path d="
M19.1875 8.29688
L53.6094 8.29688
L53.6094 0
L7.32812 0
L7.32812 8.29688
Q12.9375 14.1094 22.625 23.8906
Q32.3281 33.6875 34.8125 36.5312
Q39.5469 41.8438 41.4219 45.5312
Q43.3125 49.2188 43.3125 52.7812
Q43.3125 58.5938 39.2344 62.25
Q35.1562 65.9219 28.6094 65.9219
Q23.9688 65.9219 18.8125 64.3125
Q13.6719 62.7031 7.8125 59.4219
L7.8125 69.3906
Q13.7656 71.7812 18.9375 73
Q24.125 74.2188 28.4219 74.2188
Q39.75 74.2188 46.4844 68.5469
Q53.2188 62.8906 53.2188 53.4219
Q53.2188 48.9219 51.5312 44.8906
Q49.8594 40.875 45.4062 35.4062
Q44.1875 33.9844 37.6406 27.2188
Q31.1094 20.4531 19.1875 8.29688" id="BitstreamVeraSans-Roman-32"/>
      </defs>
      <g transform="translate(215.064554795 256.1165625)scale(0.1 -0.1)">
       <use xlink:href="#BitstreamVeraSans-Roman-32"/>
       <use x="63.623046875" xlink:href="#BitstreamVeraSans-Roman-30"/>
       <use x="127.24609375" xlink:href="#BitstreamVeraSans-Roman-30"/>
      </g>
     </g>
    </g>
    <g id="xtick_6">
     <g id="line2d_25">
      <g>
       <use style="stroke:#000000;stroke-width:0.5;" x="269.772880993" xlink:href="#m93b0483c22" y="244.518125"/>
      </g>
     </g>
     <g id="line2d_26">
      <g>
       <use style="stroke:#000000;stroke-width:0.5;" x="269.772880993" xlink:href="#m741efc42ff" y="21.318125"/>
      </g>
     </g>
     <g id="text_6">
      <!-- 250 -->
      <g transform="translate(260.927568493 256.1165625)scale(0.1 -0.1)">
       <use xlink:href="#BitstreamVeraSans-Roman-32"/>
       <use x="63.623046875" xlink:href="#BitstreamVeraSans-Roman-35"/>
       <use x="127.24609375" xlink:href="#BitstreamVeraSans-Roman-30"/>
      </g>
     </g>
    </g>
    <g id="xtick_7">
     <g id="line2d_27">
      <g>
       <use style="stroke:#000000;stroke-width:0.5;" x="315.635894692" xlink:href="#m93b0483c22" y="244.518125"/>
      </g>
     </g>
     <g id="line2d_28">
      <g>
       <use style="stroke:#000000;stroke-width:0.5;" x="315.635894692" xlink:href="#m741efc42ff" y="21.318125"/>
      </g>
     </g>
     <g id="text_7">
      <!-- 300 -->
      <defs>
       <path d="
M40.5781 39.3125
Q47.6562 37.7969 51.625 33
Q55.6094 28.2188 55.6094 21.1875
Q55.6094 10.4062 48.1875 4.48438
Q40.7656 -1.42188 27.0938 -1.42188
Q22.5156 -1.42188 17.6562 -0.515625
Q12.7969 0.390625 7.625 2.20312
L7.625 11.7188
Q11.7188 9.32812 16.5938 8.10938
Q21.4844 6.89062 26.8125 6.89062
Q36.0781 6.89062 40.9375 10.5469
Q45.7969 14.2031 45.7969 21.1875
Q45.7969 27.6406 41.2812 31.2656
Q36.7656 34.9062 28.7188 34.9062
L20.2188 34.9062
L20.2188 43.0156
L29.1094 43.0156
Q36.375 43.0156 40.2344 45.9219
Q44.0938 48.8281 44.0938 54.2969
Q44.0938 59.9062 40.1094 62.9062
Q36.1406 65.9219 28.7188 65.9219
Q24.6562 65.9219 20.0156 65.0312
Q15.375 64.1562 9.8125 62.3125
L9.8125 71.0938
Q15.4375 72.6562 20.3438 73.4375
Q25.25 74.2188 29.5938 74.2188
Q40.8281 74.2188 47.3594 69.1094
Q53.9062 64.0156 53.9062 55.3281
Q53.9062 49.2656 50.4375 45.0938
Q46.9688 40.9219 40.5781 39.3125" id="BitstreamVeraSans-Roman-33"/>
      </defs>
      <g transform="translate(306.805425942 256.1165625)scale(0.1 -0.1)">
       <use xlink:href="#BitstreamVeraSans-Roman-33"/>
       <use x="63.623046875" xlink:href="#BitstreamVeraSans-Roman-30"/>
       <use x="127.24609375" xlink:href="#BitstreamVeraSans-Roman-30"/>
      </g>
     </g>
    </g>
    <g id="xtick_8">
     <g id="line2d_29">
      <g>
       <use style="stroke:#000000;stroke-width:0.5;" x="361.49890839" xlink:href="#m93b0483c22" y="244.518125"/>
      </g>
     </g>
     <g id="line2d_30">
      <g>
       <use style="stroke:#000000;stroke-width:0.5;" x="361.49890839" xlink:href="#m741efc42ff" y="21.318125"/>
      </g>
     </g>
     <g id="text_8">
      <!-- 350 -->
      <g transform="translate(352.66843964 256.1165625)scale(0.1 -0.1)">
       <use xlink:href="#BitstreamVeraSans-Roman-33"/>
       <use x="63.623046875" xlink:href="#BitstreamVeraSans-Roman-35"/>
       <use x="127.24609375" xlink:href="#BitstreamVeraSans-Roman-30"/>
      </g>
     </g>
    </g>
    <g id="text_9">
     <!-- Julian day -->
     <defs>
      <path id="BitstreamVeraSans-Roman-20"/>
      <path d="
M9.8125 72.9062
L19.6719 72.9062
L19.6719 5.07812
Q19.6719 -8.10938 14.6719 -14.0625
Q9.67188 -20.0156 -1.42188 -20.0156
L-5.17188 -20.0156
L-5.17188 -11.7188
L-2.09375 -11.7188
Q4.4375 -11.7188 7.125 -8.04688
Q9.8125 -4.39062 9.8125 5.07812
z
" id="BitstreamVeraSans-Roman-4a"/>
      <path d="
M54.8906 33.0156
L54.8906 0
L45.9062 0
L45.9062 32.7188
Q45.9062 40.4844 42.875 44.3281
Q39.8438 48.1875 33.7969 48.1875
Q26.5156 48.1875 22.3125 43.5469
Q18.1094 38.9219 18.1094 30.9062
L18.1094 0
L9.07812 0
L9.07812 54.6875
L18.1094 54.6875
L18.1094 46.1875
Q21.3438 51.125 25.7031 53.5625
Q30.0781 56 35.7969 56
Q45.2188 56 50.0469 50.1719
Q54.8906 44.3438 54.8906 33.0156" id="BitstreamVeraSans-Roman-6e"/>
      <path d="
M9.42188 75.9844
L18.4062 75.9844
L18.4062 0
L9.42188 0
z
" id="BitstreamVeraSans-Roman-6c"/>
      <path d="
M9.42188 54.6875
L18.4062 54.6875
L18.4062 0
L9.42188 0
z

M9.42188 75.9844
L18.4062 75.9844
L18.4062 64.5938
L9.42188 64.5938
z
" id="BitstreamVeraSans-Roman-69"/>
      <path d="
M32.1719 -5.07812
Q28.375 -14.8438 24.75 -17.8125
Q21.1406 -20.7969 15.0938 -20.7969
L7.90625 -20.7969
L7.90625 -13.2812
L13.1875 -13.2812
Q16.8906 -13.2812 18.9375 -11.5156
Q21 -9.76562 23.4844 -3.21875
L25.0938 0.875
L2.98438 54.6875
L12.5 54.6875
L29.5938 11.9219
L46.6875 54.6875
L56.2031 54.6875
z
" id="BitstreamVeraSans-Roman-79"/>
      <path d="
M45.4062 46.3906
L45.4062 75.9844
L54.3906 75.9844
L54.3906 0
L45.4062 0
L45.4062 8.20312
Q42.5781 3.32812 38.25 0.953125
Q33.9375 -1.42188 27.875 -1.42188
Q17.9688 -1.42188 11.7344 6.48438
Q5.51562 14.4062 5.51562 27.2969
Q5.51562 40.1875 11.7344 48.0938
Q17.9688 56 27.875 56
Q33.9375 56 38.25 53.625
Q42.5781 51.2656 45.4062 46.3906
M14.7969 27.2969
Q14.7969 17.3906 18.875 11.75
Q22.9531 6.10938 30.0781 6.10938
Q37.2031 6.10938 41.2969 11.75
Q45.4062 17.3906 45.4062 27.2969
Q45.4062 37.2031 41.2969 42.8438
Q37.2031 48.4844 30.0781 48.4844
Q22.9531 48.4844 18.875 42.8438
Q14.7969 37.2031 14.7969 27.2969" id="BitstreamVeraSans-Roman-64"/>
      <path d="
M8.5 21.5781
L8.5 54.6875
L17.4844 54.6875
L17.4844 21.9219
Q17.4844 14.1562 20.5 10.2656
Q23.5312 6.39062 29.5938 6.39062
Q36.8594 6.39062 41.0781 11.0312
Q45.3125 15.6719 45.3125 23.6875
L45.3125 54.6875
L54.2969 54.6875
L54.2969 0
L45.3125 0
L45.3125 8.40625
Q42.0469 3.42188 37.7188 1
Q33.4062 -1.42188 27.6875 -1.42188
Q18.2656 -1.42188 13.375 4.4375
Q8.5 10.2969 8.5 21.5781" id="BitstreamVeraSans-Roman-75"/>
      <path d="
M34.2812 27.4844
Q23.3906 27.4844 19.1875 25
Q14.9844 22.5156 14.9844 16.5
Q14.9844 11.7188 18.1406 8.90625
Q21.2969 6.10938 26.7031 6.10938
Q34.1875 6.10938 38.7031 11.4062
Q43.2188 16.7031 43.2188 25.4844
L43.2188 27.4844
z

M52.2031 31.2031
L52.2031 0
L43.2188 0
L43.2188 8.29688
Q40.1406 3.32812 35.5469 0.953125
Q30.9531 -1.42188 24.3125 -1.42188
Q15.9219 -1.42188 10.9531 3.29688
Q6 8.01562 6 15.9219
Q6 25.1406 12.1719 29.8281
Q18.3594 34.5156 30.6094 34.5156
L43.2188 34.5156
L43.2188 35.4062
Q43.2188 41.6094 39.1406 45
Q35.0625 48.3906 27.6875 48.3906
Q23 48.3906 18.5469 47.2656
Q14.1094 46.1406 10.0156 43.8906
L10.0156 52.2031
Q14.9375 54.1094 19.5781 55.0469
Q24.2188 56 28.6094 56
Q40.4844 56 46.3438 49.8438
Q52.2031 43.7031 52.2031 31.2031" id="BitstreamVeraSans-Roman-61"/>
     </defs>
     <g transform="translate(183.30703125 270.7946875)scale(0.1 -0.1)">
      <use xlink:href="#BitstreamVeraSans-Roman-4a"/>
      <use x="29.4921875" xlink:href="#BitstreamVeraSans-Roman-75"/>
      <use x="92.87109375" xlink:href="#BitstreamVeraSans-Roman-6c"/>
      <use x="120.654296875" xlink:href="#BitstreamVeraSans-Roman-69"/>
      <use x="148.4375" xlink:href="#BitstreamVeraSans-Roman-61"/>
      <use x="209.716796875" xlink:href="#BitstreamVeraSans-Roman-6e"/>
      <use x="273.095703125" xlink:href="#BitstreamVeraSans-Roman-20"/>
      <use x="304.8828125" xlink:href="#BitstreamVeraSans-Roman-64"/>
      <use x="368.359375" xlink:href="#BitstreamVeraSans-Roman-61"/>
      <use x="429.638671875" xlink:href="#BitstreamVeraSans-Roman-79"/>
     </g>
    </g>
   </g>
   <g id="matplotlib.axis_2">
    <g id="ytick_1">
     <g id="line2d_31">
      <defs>
       <path d="
M0 0
L4 0" id="m728421d6d4" style="stroke:#000000;stroke-width:0.5;"/>
      </defs>
      <g>
       <use style="stroke:#000000;stroke-width:0.5;" x="40.4578125" xlink:href="#m728421d6d4" y="244.518125"/>
      </g>
     </g>
     <g id="line2d_32">
      <defs>
       <path d="
M0 0
L-4 0" id="mcb0005524f" style="stroke:#000000;stroke-width:0.5;"/>
      </defs>
      <g>
       <use style="stroke:#000000;stroke-width:0.5;" x="375.2578125" xlink:href="#mcb0005524f" y="244.518125"/>
      </g>
     </g>
     <g id="text_10">
      <!-- 0.0 -->
      <defs>
       <path d="
M10.6875 12.4062
L21 12.4062
L21 0
L10.6875 0
z
" id="BitstreamVeraSans-Roman-2e"/>
      </defs>
      <g transform="translate(21.878125 247.2775)scale(0.1 -0.1)">
       <use xlink:href="#BitstreamVeraSans-Roman-30"/>
       <use x="63.623046875" xlink:href="#BitstreamVeraSans-Roman-2e"/>
       <use x="95.41015625" xlink:href="#BitstreamVeraSans-Roman-30"/>
      </g>
     </g>
    </g>
    <g id="ytick_2">
     <g id="line2d_33">
      <g>
       <use style="stroke:#000000;stroke-width:0.5;" x="40.4578125" xlink:href="#m728421d6d4" y="212.632410714"/>
      </g>
     </g>
     <g id="line2d_34">
      <g>
       <use style="stroke:#000000;stroke-width:0.5;" x="375.2578125" xlink:href="#mcb0005524f" y="212.632410714"/>
      </g>
     </g>
     <g id="text_11">
      <!-- 0.5 -->
      <g transform="translate(22.0875 215.391785714)scale(0.1 -0.1)">
       <use xlink:href="#BitstreamVeraSans-Roman-30"/>
       <use x="63.623046875" xlink:href="#BitstreamVeraSans-Roman-2e"/>
       <use x="95.41015625" xlink:href="#BitstreamVeraSans-Roman-35"/>
      </g>
     </g>
    </g>
    <g id="ytick_3">
     <g id="line2d_35">
      <g>
       <use style="stroke:#000000;stroke-width:0.5;" x="40.4578125" xlink:href="#m728421d6d4" y="180.746696429"/>
      </g>
     </g>
     <g id="line2d_36">
      <g>
       <use style="stroke:#000000;stroke-width:0.5;" x="375.2578125" xlink:href="#mcb0005524f" y="180.746696429"/>
      </g>
     </g>
     <g id="text_12">
      <!-- 1.0 -->
      <g transform="translate(22.3171875 183.506071429)scale(0.1 -0.1)">
       <use xlink:href="#BitstreamVeraSans-Roman-31"/>
       <use x="63.623046875" xlink:href="#BitstreamVeraSans-Roman-2e"/>
       <use x="95.41015625" xlink:href="#BitstreamVeraSans-Roman-30"/>
      </g>
     </g>
    </g>
    <g id="ytick_4">
     <g id="line2d_37">
      <g>
       <use style="stroke:#000000;stroke-width:0.5;" x="40.4578125" xlink:href="#m728421d6d4" y="148.860982143"/>
      </g>
     </g>
     <g id="line2d_38">
      <g>
       <use style="stroke:#000000;stroke-width:0.5;" x="375.2578125" xlink:href="#mcb0005524f" y="148.860982143"/>
      </g>
     </g>
     <g id="text_13">
      <!-- 1.5 -->
      <g transform="translate(22.5265625 151.620357143)scale(0.1 -0.1)">
       <use xlink:href="#BitstreamVeraSans-Roman-31"/>
       <use x="63.623046875" xlink:href="#BitstreamVeraSans-Roman-2e"/>
       <use x="95.41015625" xlink:href="#BitstreamVeraSans-Roman-35"/>
      </g>
     </g>
    </g>
    <g id="ytick_5">
     <g id="line2d_39">
      <g>
       <use style="stroke:#000000;stroke-width:0.5;" x="40.4578125" xlink:href="#m728421d6d4" y="116.975267857"/>
      </g>
     </g>
     <g id="line2d_40">
      <g>
       <use style="stroke:#000000;stroke-width:0.5;" x="375.2578125" xlink:href="#mcb0005524f" y="116.975267857"/>
      </g>
     </g>
     <g id="text_14">
      <!-- 2.0 -->
      <g transform="translate(21.9515625 119.734642857)scale(0.1 -0.1)">
       <use xlink:href="#BitstreamVeraSans-Roman-32"/>
       <use x="63.623046875" xlink:href="#BitstreamVeraSans-Roman-2e"/>
       <use x="95.41015625" xlink:href="#BitstreamVeraSans-Roman-30"/>
      </g>
     </g>
    </g>
    <g id="ytick_6">
     <g id="line2d_41">
      <g>
       <use style="stroke:#000000;stroke-width:0.5;" x="40.4578125" xlink:href="#m728421d6d4" y="85.0895535714"/>
      </g>
     </g>
     <g id="line2d_42">
      <g>
       <use style="stroke:#000000;stroke-width:0.5;" x="375.2578125" xlink:href="#mcb0005524f" y="85.0895535714"/>
      </g>
     </g>
     <g id="text_15">
      <!-- 2.5 -->
      <g transform="translate(22.1609375 87.8489285714)scale(0.1 -0.1)">
       <use xlink:href="#BitstreamVeraSans-Roman-32"/>
       <use x="63.623046875" xlink:href="#BitstreamVeraSans-Roman-2e"/>
       <use x="95.41015625" xlink:href="#BitstreamVeraSans-Roman-35"/>
      </g>
     </g>
    </g>
    <g id="ytick_7">
     <g id="line2d_43">
      <g>
       <use style="stroke:#000000;stroke-width:0.5;" x="40.4578125" xlink:href="#m728421d6d4" y="53.2038392857"/>
      </g>
     </g>
     <g id="line2d_44">
      <g>
       <use style="stroke:#000000;stroke-width:0.5;" x="375.2578125" xlink:href="#mcb0005524f" y="53.2038392857"/>
      </g>
     </g>
     <g id="text_16">
      <!-- 3.0 -->
      <g transform="translate(21.98125 55.9632142857)scale(0.1 -0.1)">
       <use xlink:href="#BitstreamVeraSans-Roman-33"/>
       <use x="63.623046875" xlink:href="#BitstreamVeraSans-Roman-2e"/>
       <use x="95.41015625" xlink:href="#BitstreamVeraSans-Roman-30"/>
      </g>
     </g>
    </g>
    <g id="ytick_8">
     <g id="line2d_45">
      <g>
       <use style="stroke:#000000;stroke-width:0.5;" x="40.4578125" xlink:href="#m728421d6d4" y="21.318125"/>
      </g>
     </g>
     <g id="line2d_46">
      <g>
       <use style="stroke:#000000;stroke-width:0.5;" x="375.2578125" xlink:href="#mcb0005524f" y="21.318125"/>
      </g>
     </g>
     <g id="text_17">
      <!-- 3.5 -->
      <g transform="translate(22.190625 24.0775)scale(0.1 -0.1)">
       <use xlink:href="#BitstreamVeraSans-Roman-33"/>
       <use x="63.623046875" xlink:href="#BitstreamVeraSans-Roman-2e"/>
       <use x="95.41015625" xlink:href="#BitstreamVeraSans-Roman-35"/>
      </g>
     </g>
    </g>
    <g id="text_18">
     <!-- PET (mm/day) -->
     <defs>
      <path d="
M52 44.1875
Q55.375 50.25 60.0625 53.125
Q64.75 56 71.0938 56
Q79.6406 56 84.2812 50.0156
Q88.9219 44.0469 88.9219 33.0156
L88.9219 0
L79.8906 0
L79.8906 32.7188
Q79.8906 40.5781 77.0938 44.375
Q74.3125 48.1875 68.6094 48.1875
Q61.625 48.1875 57.5625 43.5469
Q53.5156 38.9219 53.5156 30.9062
L53.5156 0
L44.4844 0
L44.4844 32.7188
Q44.4844 40.625 41.7031 44.4062
Q38.9219 48.1875 33.1094 48.1875
Q26.2188 48.1875 22.1562 43.5312
Q18.1094 38.875 18.1094 30.9062
L18.1094 0
L9.07812 0
L9.07812 54.6875
L18.1094 54.6875
L18.1094 46.1875
Q21.1875 51.2188 25.4844 53.6094
Q29.7812 56 35.6875 56
Q41.6562 56 45.8281 52.9688
Q50 49.9531 52 44.1875" id="BitstreamVeraSans-Roman-6d"/>
      <path d="
M8.01562 75.875
L15.8281 75.875
Q23.1406 64.3594 26.7812 53.3125
Q30.4219 42.2812 30.4219 31.3906
Q30.4219 20.4531 26.7812 9.375
Q23.1406 -1.70312 15.8281 -13.1875
L8.01562 -13.1875
Q14.5 -2 17.7031 9.0625
Q20.9062 20.125 20.9062 31.3906
Q20.9062 42.6719 17.7031 53.6562
Q14.5 64.6562 8.01562 75.875" id="BitstreamVeraSans-Roman-29"/>
      <path d="
M31 75.875
Q24.4688 64.6562 21.2812 53.6562
Q18.1094 42.6719 18.1094 31.3906
Q18.1094 20.125 21.3125 9.0625
Q24.5156 -2 31 -13.1875
L23.1875 -13.1875
Q15.875 -1.70312 12.2344 9.375
Q8.59375 20.4531 8.59375 31.3906
Q8.59375 42.2812 12.2031 53.3125
Q15.8281 64.3594 23.1875 75.875
z
" id="BitstreamVeraSans-Roman-28"/>
      <path d="
M19.6719 64.7969
L19.6719 37.4062
L32.0781 37.4062
Q38.9688 37.4062 42.7188 40.9688
Q46.4844 44.5312 46.4844 51.125
Q46.4844 57.6719 42.7188 61.2344
Q38.9688 64.7969 32.0781 64.7969
z

M9.8125 72.9062
L32.0781 72.9062
Q44.3438 72.9062 50.6094 67.3594
Q56.8906 61.8125 56.8906 51.125
Q56.8906 40.3281 50.6094 34.8125
Q44.3438 29.2969 32.0781 29.2969
L19.6719 29.2969
L19.6719 0
L9.8125 0
z
" id="BitstreamVeraSans-Roman-50"/>
      <path d="
M9.8125 72.9062
L55.9062 72.9062
L55.9062 64.5938
L19.6719 64.5938
L19.6719 43.0156
L54.3906 43.0156
L54.3906 34.7188
L19.6719 34.7188
L19.6719 8.29688
L56.7812 8.29688
L56.7812 0
L9.8125 0
z
" id="BitstreamVeraSans-Roman-45"/>
      <path d="
M-0.296875 72.9062
L61.375 72.9062
L61.375 64.5938
L35.5 64.5938
L35.5 0
L25.5938 0
L25.5938 64.5938
L-0.296875 64.5938
z
" id="BitstreamVeraSans-Roman-54"/>
      <path d="
M25.3906 72.9062
L33.6875 72.9062
L8.29688 -9.28125
L0 -9.28125
z
" id="BitstreamVeraSans-Roman-2f"/>
     </defs>
     <g transform="translate(14.7984375 167.82984375)rotate(-90.0)scale(0.1 -0.1)">
      <use xlink:href="#BitstreamVeraSans-Roman-50"/>
      <use x="60.302734375" xlink:href="#BitstreamVeraSans-Roman-45"/>
      <use x="123.486328125" xlink:href="#BitstreamVeraSans-Roman-54"/>
      <use x="184.5703125" xlink:href="#BitstreamVeraSans-Roman-20"/>
      <use x="216.357421875" xlink:href="#BitstreamVeraSans-Roman-28"/>
      <use x="255.37109375" xlink:href="#BitstreamVeraSans-Roman-6d"/>
      <use x="352.783203125" xlink:href="#BitstreamVeraSans-Roman-6d"/>
      <use x="450.1953125" xlink:href="#BitstreamVeraSans-Roman-2f"/>
      <use x="483.88671875" xlink:href="#BitstreamVeraSans-Roman-64"/>
      <use x="547.36328125" xlink:href="#BitstreamVeraSans-Roman-61"/>
      <use x="608.642578125" xlink:href="#BitstreamVeraSans-Roman-79"/>
      <use x="667.822265625" xlink:href="#BitstreamVeraSans-Roman-29"/>
     </g>
    </g>
   </g>
   <g id="text_19">
    <!-- daily grass PET at Treeline -->
    <defs>
     <path d="
M18.3125 70.2188
L18.3125 54.6875
L36.8125 54.6875
L36.8125 47.7031
L18.3125 47.7031
L18.3125 18.0156
Q18.3125 11.3281 20.1406 9.42188
Q21.9688 7.51562 27.5938 7.51562
L36.8125 7.51562
L36.8125 0
L27.5938 0
Q17.1875 0 13.2344 3.875
Q9.28125 7.76562 9.28125 18.0156
L9.28125 47.7031
L2.6875 47.7031
L2.6875 54.6875
L9.28125 54.6875
L9.28125 70.2188
z
" id="BitstreamVeraSans-Roman-74"/>
     <path d="
M56.2031 29.5938
L56.2031 25.2031
L14.8906 25.2031
Q15.4844 15.9219 20.4844 11.0625
Q25.4844 6.20312 34.4219 6.20312
Q39.5938 6.20312 44.4531 7.46875
Q49.3125 8.73438 54.1094 11.2812
L54.1094 2.78125
Q49.2656 0.734375 44.1875 -0.34375
Q39.1094 -1.42188 33.8906 -1.42188
Q20.7969 -1.42188 13.1562 6.1875
Q5.51562 13.8125 5.51562 26.8125
Q5.51562 40.2344 12.7656 48.1094
Q20.0156 56 32.3281 56
Q43.3594 56 49.7812 48.8906
Q56.2031 41.7969 56.2031 29.5938
M47.2188 32.2344
Q47.125 39.5938 43.0938 43.9844
Q39.0625 48.3906 32.4219 48.3906
Q24.9062 48.3906 20.3906 44.1406
Q15.875 39.8906 15.1875 32.1719
z
" id="BitstreamVeraSans-Roman-65"/>
     <path d="
M45.4062 27.9844
Q45.4062 37.75 41.375 43.1094
Q37.3594 48.4844 30.0781 48.4844
Q22.8594 48.4844 18.8281 43.1094
Q14.7969 37.75 14.7969 27.9844
Q14.7969 18.2656 18.8281 12.8906
Q22.8594 7.51562 30.0781 7.51562
Q37.3594 7.51562 41.375 12.8906
Q45.4062 18.2656 45.4062 27.9844
M54.3906 6.78125
Q54.3906 -7.17188 48.1875 -13.9844
Q42 -20.7969 29.2031 -20.7969
Q24.4688 -20.7969 20.2656 -20.0938
Q16.0625 -19.3906 12.1094 -17.9219
L12.1094 -9.1875
Q16.0625 -11.3281 19.9219 -12.3438
Q23.7812 -13.375 27.7812 -13.375
Q36.625 -13.375 41.0156 -8.76562
Q45.4062 -4.15625 45.4062 5.17188
L45.4062 9.625
Q42.625 4.78125 38.2812 2.39062
Q33.9375 0 27.875 0
Q17.8281 0 11.6719 7.65625
Q5.51562 15.3281 5.51562 27.9844
Q5.51562 40.6719 11.6719 48.3281
Q17.8281 56 27.875 56
Q33.9375 56 38.2812 53.6094
Q42.625 51.2188 45.4062 46.3906
L45.4062 54.6875
L54.3906 54.6875
z
" id="BitstreamVeraSans-Roman-67"/>
     <path d="
M41.1094 46.2969
Q39.5938 47.1719 37.8125 47.5781
Q36.0312 48 33.8906 48
Q26.2656 48 22.1875 43.0469
Q18.1094 38.0938 18.1094 28.8125
L18.1094 0
L9.07812 0
L9.07812 54.6875
L18.1094 54.6875
L18.1094 46.1875
Q20.9531 51.1719 25.4844 53.5781
Q30.0312 56 36.5312 56
Q37.4531 56 38.5781 55.875
Q39.7031 55.7656 41.0625 55.5156
z
" id="BitstreamVeraSans-Roman-72"/>
     <path d="
M44.2812 53.0781
L44.2812 44.5781
Q40.4844 46.5312 36.375 47.5
Q32.2812 48.4844 27.875 48.4844
Q21.1875 48.4844 17.8438 46.4375
Q14.5 44.3906 14.5 40.2812
Q14.5 37.1562 16.8906 35.375
Q19.2812 33.5938 26.5156 31.9844
L29.5938 31.2969
Q39.1562 29.25 43.1875 25.5156
Q47.2188 21.7812 47.2188 15.0938
Q47.2188 7.46875 41.1875 3.01562
Q35.1562 -1.42188 24.6094 -1.42188
Q20.2188 -1.42188 15.4531 -0.5625
Q10.6875 0.296875 5.42188 2
L5.42188 11.2812
Q10.4062 8.6875 15.2344 7.39062
Q20.0625 6.10938 24.8125 6.10938
Q31.1562 6.10938 34.5625 8.28125
Q37.9844 10.4531 37.9844 14.4062
Q37.9844 18.0625 35.5156 20.0156
Q33.0625 21.9688 24.7031 23.7812
L21.5781 24.5156
Q13.2344 26.2656 9.51562 29.9062
Q5.8125 33.5469 5.8125 39.8906
Q5.8125 47.6094 11.2812 51.7969
Q16.75 56 26.8125 56
Q31.7812 56 36.1719 55.2656
Q40.5781 54.5469 44.2812 53.0781" id="BitstreamVeraSans-Roman-73"/>
    </defs>
    <g transform="translate(129.549375 16.318125)scale(0.12 -0.12)">
     <use xlink:href="#BitstreamVeraSans-Roman-64"/>
     <use x="63.4765625" xlink:href="#BitstreamVeraSans-Roman-61"/>
     <use x="124.755859375" xlink:href="#BitstreamVeraSans-Roman-69"/>
     <use x="152.5390625" xlink:href="#BitstreamVeraSans-Roman-6c"/>
     <use x="180.322265625" xlink:href="#BitstreamVeraSans-Roman-79"/>
     <use x="239.501953125" xlink:href="#BitstreamVeraSans-Roman-20"/>
     <use x="271.2890625" xlink:href="#BitstreamVeraSans-Roman-67"/>
     <use x="334.765625" xlink:href="#BitstreamVeraSans-Roman-72"/>
     <use x="375.87890625" xlink:href="#BitstreamVeraSans-Roman-61"/>
     <use x="437.158203125" xlink:href="#BitstreamVeraSans-Roman-73"/>
     <use x="489.2578125" xlink:href="#BitstreamVeraSans-Roman-73"/>
     <use x="541.357421875" xlink:href="#BitstreamVeraSans-Roman-20"/>
     <use x="573.14453125" xlink:href="#BitstreamVeraSans-Roman-50"/>
     <use x="633.447265625" xlink:href="#BitstreamVeraSans-Roman-45"/>
     <use x="696.630859375" xlink:href="#BitstreamVeraSans-Roman-54"/>
     <use x="757.71484375" xlink:href="#BitstreamVeraSans-Roman-20"/>
     <use x="789.501953125" xlink:href="#BitstreamVeraSans-Roman-61"/>
     <use x="850.78125" xlink:href="#BitstreamVeraSans-Roman-74"/>
     <use x="889.990234375" xlink:href="#BitstreamVeraSans-Roman-20"/>
     <use x="921.77734375" xlink:href="#BitstreamVeraSans-Roman-54"/>
     <use x="968.111328125" xlink:href="#BitstreamVeraSans-Roman-72"/>
     <use x="1006.97460938" xlink:href="#BitstreamVeraSans-Roman-65"/>
     <use x="1068.49804688" xlink:href="#BitstreamVeraSans-Roman-65"/>
     <use x="1130.02148438" xlink:href="#BitstreamVeraSans-Roman-6c"/>
     <use x="1157.8046875" xlink:href="#BitstreamVeraSans-Roman-69"/>
     <use x="1185.58789062" xlink:href="#BitstreamVeraSans-Roman-6e"/>
     <use x="1248.96679688" xlink:href="#BitstreamVeraSans-Roman-65"/>
    </g>
   </g>
   <g id="legend_1">
    <g id="patch_7">
     <path d="
M297.07 277.511
L369.258 277.511
L369.258 27.3181
L297.07 27.3181
z
" style="fill:#ffffff;stroke:#000000;stroke-linejoin:miter;"/>
    </g>
    <g id="line2d_47">
     <path d="
M305.47 37.0362
L322.27 37.0362" style="fill:none;stroke:#0000ff;stroke-linecap:square;"/>
    </g>
    <g id="line2d_48"/>
    <g id="text_20">
     <!-- 1999 -->
     <defs>
      <path d="
M10.9844 1.51562
L10.9844 10.5
Q14.7031 8.73438 18.5 7.8125
Q22.3125 6.89062 25.9844 6.89062
Q35.75 6.89062 40.8906 13.4531
Q46.0469 20.0156 46.7812 33.4062
Q43.9531 29.2031 39.5938 26.9531
Q35.25 24.7031 29.9844 24.7031
Q19.0469 24.7031 12.6719 31.3125
Q6.29688 37.9375 6.29688 49.4219
Q6.29688 60.6406 12.9375 67.4219
Q19.5781 74.2188 30.6094 74.2188
Q43.2656 74.2188 49.9219 64.5156
Q56.5938 54.8281 56.5938 36.375
Q56.5938 19.1406 48.4062 8.85938
Q40.2344 -1.42188 26.4219 -1.42188
Q22.7031 -1.42188 18.8906 -0.6875
Q15.0938 0.046875 10.9844 1.51562
M30.6094 32.4219
Q37.25 32.4219 41.125 36.9531
Q45.0156 41.5 45.0156 49.4219
Q45.0156 57.2812 41.125 61.8438
Q37.25 66.4062 30.6094 66.4062
Q23.9688 66.4062 20.0938 61.8438
Q16.2188 57.2812 16.2188 49.4219
Q16.2188 41.5 20.0938 36.9531
Q23.9688 32.4219 30.6094 32.4219" id="BitstreamVeraSans-Roman-39"/>
     </defs>
     <g transform="translate(335.4703125 41.23625)scale(0.12 -0.12)">
      <use xlink:href="#BitstreamVeraSans-Roman-31"/>
      <use x="63.623046875" xlink:href="#BitstreamVeraSans-Roman-39"/>
      <use x="127.24609375" xlink:href="#BitstreamVeraSans-Roman-39"/>
      <use x="190.869140625" xlink:href="#BitstreamVeraSans-Roman-39"/>
     </g>
    </g>
    <g id="line2d_49">
     <path d="
M305.47 54.65
L322.27 54.65" style="fill:none;stroke:#008000;stroke-linecap:square;"/>
    </g>
    <g id="line2d_50"/>
    <g id="text_21">
     <!-- 2000 -->
     <g transform="translate(335.4703125 58.85)scale(0.12 -0.12)">
      <use xlink:href="#BitstreamVeraSans-Roman-32"/>
      <use x="63.623046875" xlink:href="#BitstreamVeraSans-Roman-30"/>
      <use x="127.24609375" xlink:href="#BitstreamVeraSans-Roman-30"/>
      <use x="190.869140625" xlink:href="#BitstreamVeraSans-Roman-30"/>
     </g>
    </g>
    <g id="line2d_51">
     <path d="
M305.47 72.2638
L322.27 72.2638" style="fill:none;stroke:#ff0000;stroke-linecap:square;"/>
    </g>
    <g id="line2d_52"/>
    <g id="text_22">
     <!-- 2001 -->
     <g transform="translate(335.4703125 76.46375)scale(0.12 -0.12)">
      <use xlink:href="#BitstreamVeraSans-Roman-32"/>
      <use x="63.623046875" xlink:href="#BitstreamVeraSans-Roman-30"/>
      <use x="127.24609375" xlink:href="#BitstreamVeraSans-Roman-30"/>
      <use x="190.869140625" xlink:href="#BitstreamVeraSans-Roman-31"/>
     </g>
    </g>
    <g id="line2d_53">
     <path d="
M305.47 89.8775
L322.27 89.8775" style="fill:none;stroke:#00bfbf;stroke-linecap:square;"/>
    </g>
    <g id="line2d_54"/>
    <g id="text_23">
     <!-- 2002 -->
     <g transform="translate(335.4703125 94.0775)scale(0.12 -0.12)">
      <use xlink:href="#BitstreamVeraSans-Roman-32"/>
      <use x="63.623046875" xlink:href="#BitstreamVeraSans-Roman-30"/>
      <use x="127.24609375" xlink:href="#BitstreamVeraSans-Roman-30"/>
      <use x="190.869140625" xlink:href="#BitstreamVeraSans-Roman-32"/>
     </g>
    </g>
    <g id="line2d_55">
     <path d="
M305.47 107.491
L322.27 107.491" style="fill:none;stroke:#bf00bf;stroke-linecap:square;"/>
    </g>
    <g id="line2d_56"/>
    <g id="text_24">
     <!-- 2003 -->
     <g transform="translate(335.4703125 111.69125)scale(0.12 -0.12)">
      <use xlink:href="#BitstreamVeraSans-Roman-32"/>
      <use x="63.623046875" xlink:href="#BitstreamVeraSans-Roman-30"/>
      <use x="127.24609375" xlink:href="#BitstreamVeraSans-Roman-30"/>
      <use x="190.869140625" xlink:href="#BitstreamVeraSans-Roman-33"/>
     </g>
    </g>
    <g id="line2d_57">
     <path d="
M305.47 125.105
L322.27 125.105" style="fill:none;stroke:#bfbf00;stroke-linecap:square;"/>
    </g>
    <g id="line2d_58"/>
    <g id="text_25">
     <!-- 2004 -->
     <defs>
      <path d="
M37.7969 64.3125
L12.8906 25.3906
L37.7969 25.3906
z

M35.2031 72.9062
L47.6094 72.9062
L47.6094 25.3906
L58.0156 25.3906
L58.0156 17.1875
L47.6094 17.1875
L47.6094 0
L37.7969 0
L37.7969 17.1875
L4.89062 17.1875
L4.89062 26.7031
z
" id="BitstreamVeraSans-Roman-34"/>
     </defs>
     <g transform="translate(335.4703125 129.305)scale(0.12 -0.12)">
      <use xlink:href="#BitstreamVeraSans-Roman-32"/>
      <use x="63.623046875" xlink:href="#BitstreamVeraSans-Roman-30"/>
      <use x="127.24609375" xlink:href="#BitstreamVeraSans-Roman-30"/>
      <use x="190.869140625" xlink:href="#BitstreamVeraSans-Roman-34"/>
     </g>
    </g>
    <g id="line2d_59">
     <path d="
M305.47 142.719
L322.27 142.719" style="fill:none;stroke:#000000;stroke-linecap:square;"/>
    </g>
    <g id="line2d_60"/>
    <g id="text_26">
     <!-- 2005 -->
     <g transform="translate(335.4703125 146.91875)scale(0.12 -0.12)">
      <use xlink:href="#BitstreamVeraSans-Roman-32"/>
      <use x="63.623046875" xlink:href="#BitstreamVeraSans-Roman-30"/>
      <use x="127.24609375" xlink:href="#BitstreamVeraSans-Roman-30"/>
      <use x="190.869140625" xlink:href="#BitstreamVeraSans-Roman-35"/>
     </g>
    </g>
    <g id="line2d_61">
     <path d="
M305.47 160.332
L322.27 160.332" style="fill:none;stroke:#0000ff;stroke-linecap:square;"/>
    </g>
    <g id="line2d_62"/>
    <g id="text_27">
     <!-- 2006 -->
     <defs>
      <path d="
M33.0156 40.375
Q26.375 40.375 22.4844 35.8281
Q18.6094 31.2969 18.6094 23.3906
Q18.6094 15.5312 22.4844 10.9531
Q26.375 6.39062 33.0156 6.39062
Q39.6562 6.39062 43.5312 10.9531
Q47.4062 15.5312 47.4062 23.3906
Q47.4062 31.2969 43.5312 35.8281
Q39.6562 40.375 33.0156 40.375
M52.5938 71.2969
L52.5938 62.3125
Q48.875 64.0625 45.0938 64.9844
Q41.3125 65.9219 37.5938 65.9219
Q27.8281 65.9219 22.6719 59.3281
Q17.5312 52.7344 16.7969 39.4062
Q19.6719 43.6562 24.0156 45.9219
Q28.375 48.1875 33.5938 48.1875
Q44.5781 48.1875 50.9531 41.5156
Q57.3281 34.8594 57.3281 23.3906
Q57.3281 12.1562 50.6875 5.35938
Q44.0469 -1.42188 33.0156 -1.42188
Q20.3594 -1.42188 13.6719 8.26562
Q6.98438 17.9688 6.98438 36.375
Q6.98438 53.6562 15.1875 63.9375
Q23.3906 74.2188 37.2031 74.2188
Q40.9219 74.2188 44.7031 73.4844
Q48.4844 72.75 52.5938 71.2969" id="BitstreamVeraSans-Roman-36"/>
     </defs>
     <g transform="translate(335.4703125 164.5325)scale(0.12 -0.12)">
      <use xlink:href="#BitstreamVeraSans-Roman-32"/>
      <use x="63.623046875" xlink:href="#BitstreamVeraSans-Roman-30"/>
      <use x="127.24609375" xlink:href="#BitstreamVeraSans-Roman-30"/>
      <use x="190.869140625" xlink:href="#BitstreamVeraSans-Roman-36"/>
     </g>
    </g>
    <g id="line2d_63">
     <path d="
M305.47 177.946
L322.27 177.946" style="fill:none;stroke:#008000;stroke-linecap:square;"/>
    </g>
    <g id="line2d_64"/>
    <g id="text_28">
     <!-- 2007 -->
     <defs>
      <path d="
M8.20312 72.9062
L55.0781 72.9062
L55.0781 68.7031
L28.6094 0
L18.3125 0
L43.2188 64.5938
L8.20312 64.5938
z
" id="BitstreamVeraSans-Roman-37"/>
     </defs>
     <g transform="translate(335.4703125 182.14625)scale(0.12 -0.12)">
      <use xlink:href="#BitstreamVeraSans-Roman-32"/>
      <use x="63.623046875" xlink:href="#BitstreamVeraSans-Roman-30"/>
      <use x="127.24609375" xlink:href="#BitstreamVeraSans-Roman-30"/>
      <use x="190.869140625" xlink:href="#BitstreamVeraSans-Roman-37"/>
     </g>
    </g>
    <g id="line2d_65">
     <path d="
M305.47 195.56
L322.27 195.56" style="fill:none;stroke:#ff0000;stroke-linecap:square;"/>
    </g>
    <g id="line2d_66"/>
    <g id="text_29">
     <!-- 2008 -->
     <defs>
      <path d="
M31.7812 34.625
Q24.75 34.625 20.7188 30.8594
Q16.7031 27.0938 16.7031 20.5156
Q16.7031 13.9219 20.7188 10.1562
Q24.75 6.39062 31.7812 6.39062
Q38.8125 6.39062 42.8594 10.1719
Q46.9219 13.9688 46.9219 20.5156
Q46.9219 27.0938 42.8906 30.8594
Q38.875 34.625 31.7812 34.625
M21.9219 38.8125
Q15.5781 40.375 12.0312 44.7188
Q8.5 49.0781 8.5 55.3281
Q8.5 64.0625 14.7188 69.1406
Q20.9531 74.2188 31.7812 74.2188
Q42.6719 74.2188 48.875 69.1406
Q55.0781 64.0625 55.0781 55.3281
Q55.0781 49.0781 51.5312 44.7188
Q48 40.375 41.7031 38.8125
Q48.8281 37.1562 52.7969 32.3125
Q56.7812 27.4844 56.7812 20.5156
Q56.7812 9.90625 50.3125 4.23438
Q43.8438 -1.42188 31.7812 -1.42188
Q19.7344 -1.42188 13.25 4.23438
Q6.78125 9.90625 6.78125 20.5156
Q6.78125 27.4844 10.7812 32.3125
Q14.7969 37.1562 21.9219 38.8125
M18.3125 54.3906
Q18.3125 48.7344 21.8438 45.5625
Q25.3906 42.3906 31.7812 42.3906
Q38.1406 42.3906 41.7188 45.5625
Q45.3125 48.7344 45.3125 54.3906
Q45.3125 60.0625 41.7188 63.2344
Q38.1406 66.4062 31.7812 66.4062
Q25.3906 66.4062 21.8438 63.2344
Q18.3125 60.0625 18.3125 54.3906" id="BitstreamVeraSans-Roman-38"/>
     </defs>
     <g transform="translate(335.4703125 199.76)scale(0.12 -0.12)">
      <use xlink:href="#BitstreamVeraSans-Roman-32"/>
      <use x="63.623046875" xlink:href="#BitstreamVeraSans-Roman-30"/>
      <use x="127.24609375" xlink:href="#BitstreamVeraSans-Roman-30"/>
      <use x="190.869140625" xlink:href="#BitstreamVeraSans-Roman-38"/>
     </g>
    </g>
    <g id="line2d_67">
     <path d="
M305.47 213.174
L322.27 213.174" style="fill:none;stroke:#00bfbf;stroke-linecap:square;"/>
    </g>
    <g id="line2d_68"/>
    <g id="text_30">
     <!-- 2009 -->
     <g transform="translate(335.4703125 217.37375)scale(0.12 -0.12)">
      <use xlink:href="#BitstreamVeraSans-Roman-32"/>
      <use x="63.623046875" xlink:href="#BitstreamVeraSans-Roman-30"/>
      <use x="127.24609375" xlink:href="#BitstreamVeraSans-Roman-30"/>
      <use x="190.869140625" xlink:href="#BitstreamVeraSans-Roman-39"/>
     </g>
    </g>
    <g id="line2d_69">
     <path d="
M305.47 230.788
L322.27 230.788" style="fill:none;stroke:#bf00bf;stroke-linecap:square;"/>
    </g>
    <g id="line2d_70"/>
    <g id="text_31">
     <!-- 2010 -->
     <g transform="translate(335.4703125 234.9875)scale(0.12 -0.12)">
      <use xlink:href="#BitstreamVeraSans-Roman-32"/>
      <use x="63.623046875" xlink:href="#BitstreamVeraSans-Roman-30"/>
      <use x="127.24609375" xlink:href="#BitstreamVeraSans-Roman-31"/>
      <use x="190.869140625" xlink:href="#BitstreamVeraSans-Roman-30"/>
     </g>
    </g>
    <g id="line2d_71">
     <path d="
M305.47 248.401
L322.27 248.401" style="fill:none;stroke:#bfbf00;stroke-linecap:square;"/>
    </g>
    <g id="line2d_72"/>
    <g id="text_32">
     <!-- 2011 -->
     <g transform="translate(335.4703125 252.60125)scale(0.12 -0.12)">
      <use xlink:href="#BitstreamVeraSans-Roman-32"/>
      <use x="63.623046875" xlink:href="#BitstreamVeraSans-Roman-30"/>
      <use x="127.24609375" xlink:href="#BitstreamVeraSans-Roman-31"/>
      <use x="190.869140625" xlink:href="#BitstreamVeraSans-Roman-31"/>
     </g>
    </g>
    <g id="line2d_73">
     <path d="
M305.47 266.015
L322.27 266.015" style="fill:none;stroke:#000000;stroke-linecap:square;"/>
    </g>
    <g id="line2d_74"/>
    <g id="text_33">
     <!-- 2012 -->
     <g transform="translate(335.4703125 270.215)scale(0.12 -0.12)">
      <use xlink:href="#BitstreamVeraSans-Roman-32"/>
      <use x="63.623046875" xlink:href="#BitstreamVeraSans-Roman-30"/>
      <use x="127.24609375" xlink:href="#BitstreamVeraSans-Roman-31"/>
      <use x="190.869140625" xlink:href="#BitstreamVeraSans-Roman-32"/>
     </g>
    </g>
   </g>
  </g>
 </g>
 <defs>
  <clipPath id="p32cac9c315">
   <rect height="223.2" width="334.8" x="40.4578125" y="21.318125"/>
  </clipPath>
 </defs>
</svg>
