<?xml version="1.0" encoding="utf-8" standalone="no"?>
<!DOCTYPE svg PUBLIC "-//W3C//DTD SVG 1.1//EN"
  "http://www.w3.org/Graphics/SVG/1.1/DTD/svg11.dtd">
<!-- Created with matplotlib (http://matplotlib.org/) -->
<svg height="319pt" version="1.1" viewBox="0 0 378 319" width="378pt" xmlns="http://www.w3.org/2000/svg" xmlns:xlink="http://www.w3.org/1999/xlink">
 <defs>
  <style type="text/css">
*{stroke-linecap:butt;stroke-linejoin:round;}
  </style>
 </defs>
 <g id="figure_1">
  <g id="patch_1">
   <path d="
M0 319.938
L378.841 319.938
L378.841 0
L0 0
z
" style="fill:#ffffff;"/>
  </g>
  <g id="axes_1">
   <g id="patch_2">
    <path d="
M36.8406 244.518
L371.641 244.518
L371.641 21.3181
L36.8406 21.3181
z
" style="fill:#ffffff;"/>
   </g>
   <g id="line2d_1">
    <path clip-path="url(#pd0c402dd48)" d="
M0 0" style="fill:none;stroke:#0000ff;stroke-linecap:square;"/>
   </g>
   <g id="line2d_2">
    <path clip-path="url(#pd0c402dd48)" d="
M0 0" style="fill:none;stroke:#008000;stroke-linecap:square;"/>
   </g>
   <g id="line2d_3">
    <path clip-path="url(#pd0c402dd48)" d="
M0 0" style="fill:none;stroke:#ff0000;stroke-linecap:square;"/>
   </g>
   <g id="line2d_4">
    <path clip-path="url(#pd0c402dd48)" d="
M0 0" style="fill:none;stroke:#00bfbf;stroke-linecap:square;"/>
   </g>
   <g id="line2d_5">
    <path clip-path="url(#pd0c402dd48)" d="
M0 0" style="fill:none;stroke:#bf00bf;stroke-linecap:square;"/>
   </g>
   <g id="line2d_6">
    <path clip-path="url(#pd0c402dd48)" d="
M0 0" style="fill:none;stroke:#bfbf00;stroke-linecap:square;"/>
   </g>
   <g id="line2d_7">
    <path clip-path="url(#pd0c402dd48)" d="
M0 0" style="fill:none;stroke:#000000;stroke-linecap:square;"/>
   </g>
   <g id="line2d_8">
    <path clip-path="url(#pd0c402dd48)" d="
M0 0" style="fill:none;stroke:#0000ff;stroke-linecap:square;"/>
   </g>
   <g id="line2d_9">
    <path clip-path="url(#pd0c402dd48)" d="
M0 0" style="fill:none;stroke:#008000;stroke-linecap:square;"/>
   </g>
   <g id="line2d_10">
    <path clip-path="url(#pd0c402dd48)" d="
M36.8406 199.284
L37.7579 179.944
L38.6751 178.275
L39.5924 221.369
L40.5097 232.52
L42.3442 237.949
L43.2614 236.006
L44.1787 226.195
L45.096 232.458
M46.9305 232.6
L47.8477 232.672
L48.765 222.855
L50.5995 217.587
L51.5168 221.014
L52.434 222.033
L53.3513 212.388
L54.2686 239.269
L55.1858 240.044
L56.1031 226.127
L57.0204 214.221
L57.9376 214.65
L58.8549 226.294
L59.7721 221.215
L60.6894 222.183
L61.6067 231.921
L62.5239 237.596
M64.3584 243.523
L65.2757 236.461
L66.193 234.295
M68.0275 229.529
L68.9447 226.184
L69.862 230.346
L70.7793 241.556
L71.6965 218.739
L72.6138 227.152
L73.531 210.015
L74.4483 217.962
L75.3656 215.348
L76.2828 226.789
L77.2001 211.751
L78.1173 214.149
L79.0346 214.853
L79.9519 199.244
L80.8691 205.665
L81.7864 210.288
L83.6209 225.039
L84.5382 237.795
L85.4554 225.633
L86.3727 229.014
L87.2899 239.945
L88.2072 215.323
L89.1245 219.204
L90.0417 211.693
L90.959 207.684
L91.8762 223.41
L92.7935 229.042
L93.7108 214.412
L94.628 221.386
L95.5453 206.794
L96.4625 195.75
L97.3798 194.898
L98.2971 218.948
L99.2143 208.266
L100.132 204.381
L101.049 193.113
L101.966 185.143
L102.883 227.144
L103.801 233.103
L104.718 220.931
L105.635 221.538
L106.552 209.342
L107.47 239.899
L108.387 233.001
L110.221 197.864
L111.139 190.715
L112.056 189.241
L112.973 218.395
L113.89 221.392
L114.808 237.093
L115.725 210.032
L116.642 225.341
L117.56 213.021
L118.477 207.32
L119.394 214.067
L120.311 177.511
L121.229 177.327
L122.146 174.191
L123.063 208.021
L123.98 202.958
L125.815 224.615
L126.732 196.109
L127.649 210.295
L128.567 215.308
L129.484 189.667
L130.401 176.004
L131.318 177.116
L132.236 203.087
L133.153 215.372
L134.07 210.146
L135.905 166.584
L136.822 189.399
L137.739 207.495
L138.657 204.189
L139.574 176.478
L140.491 204.491
L141.408 209.065
L142.326 178.307
L143.243 156.293
L144.16 142.586
L145.077 143.084
L145.995 205.58
L146.912 191.409
L147.829 195.035
L148.746 162.251
L149.664 141.901
L150.581 146.568
L151.498 158.083
L153.333 202.388
L154.25 186.923
L155.167 180.31
L156.084 164.645
L157.002 175.049
L157.919 175.096
L158.836 182.618
L159.754 208.841
L160.671 170.287
L161.588 164.069
L162.505 155.52
L163.423 176.405
L164.34 183.204
L165.257 219.38
L166.174 219.777
L167.092 216.485
L168.009 220.518
L168.926 177.132
L169.843 198.645
L170.761 213.009
L171.678 214.362
L172.595 200.104
L173.512 202.944
L174.43 196.196
L175.347 190.851
L176.264 212.804
L177.181 180.283
L178.099 223.541
L179.016 208.205
L179.933 185.461
L180.85 178.694
L181.768 194.24
L182.685 162.377
L183.602 179.672
L184.52 199.14
L185.437 208.889
L186.354 183.632
L187.271 145.294
L188.189 140.028
L190.023 168.143
L190.94 172.247
L191.858 177.195
L192.775 181.291
L193.692 180.647
L194.609 193.114
L195.527 185.093
L196.444 184.878
L197.361 189.077
L198.278 174.003
L199.196 181.495
L200.113 181.092
L201.03 180.512
L201.947 175.128
L202.865 186.597
L203.782 201.42
L204.699 190.941
L205.617 186.724
L206.534 189.042
L207.451 194.317
L208.368 192.419
L209.286 188.146
L210.203 180.26
L211.12 180.359
L212.037 176.056
L212.955 181.676
L213.872 183.004
L214.789 181.914
L215.706 169.918
L217.541 187.144
L218.458 187.257
L219.375 186.095
L221.21 180.397
L222.127 193.75
L223.044 211.929
L223.962 196.042
L224.879 189.209
L225.796 173.174
L226.714 181.039
L227.631 183.534
L229.465 200.362
L230.383 190.456
L231.3 183.332
L232.217 188.103
L233.134 182.404
L234.052 188.247
L234.969 186.156
L235.886 189.068
L236.803 194.078
L237.721 195.368
L238.638 207.583
L239.555 198.344
L240.472 194.177
L241.39 193.635
L242.307 188.835
L243.224 180.713
L244.141 179.537
L245.059 188.353
L245.976 188.413
L246.893 188.784
L247.81 193.648
L248.728 204.273
L249.645 200.981
L250.562 209.576
L251.48 189.786
L252.397 184.073
L253.314 174.941
L254.231 185.099
L255.149 201.881
L256.066 197.042
L256.983 197.212
L257.9 174.932
L260.652 210.471
L261.569 198.486
L262.487 172.627
L263.404 167.707
L264.321 183.757
L265.238 189.5
L266.156 185.824
L267.073 184.887
L267.99 184.939
L269.825 190.268
L270.742 189.828
L271.659 183.735
L272.577 180.566
L273.494 184.184
L275.328 188.65
L276.246 192.21
L277.163 205.653
L278.08 227.001
L278.997 233.434
L279.915 217.105
L280.832 191.433
L281.749 170.577
L282.666 176.698
L283.584 177.818
L284.501 190.986
L285.418 189.084
L286.335 187.684
L287.253 193.734
L288.17 192.797
L289.087 211.653
L290.004 217.024
L290.922 238.251
L291.839 227.863
L292.756 206.327
L293.674 199.813
L294.591 187.718
L295.508 199.536
L296.425 238.472
L297.343 227.534
L298.26 201.666
L299.177 181.501
L300.094 185.825
L301.929 188.479
L302.846 195.551
L303.763 189.955
L304.681 199.055
L305.598 202.853
L306.515 213.789
L307.432 193.502
L308.35 188.399
L309.267 178.538
L310.184 188.991
L311.101 191.398
L312.019 184.012
L312.936 191.175
L313.853 194.498
L314.77 196.93
L316.605 229.271
L317.522 238.167
L318.44 240.145
L319.357 239.974
L320.274 227.259
L321.191 229.503
L322.109 219.435
L323.026 218.135
L323.943 237.127
L324.86 234.449
L325.778 241.464
L326.695 225.805
L327.612 218.154
L328.529 198.098
L329.447 200.914
L330.364 197.563
L331.281 185.041
L332.198 189.816
L334.033 220.978
L334.95 217.078
L335.867 224.358
L336.785 230.454
L337.702 198.107
L338.619 199.686
L339.537 209.686
L340.454 207.917
L342.288 235.005
L343.206 229.217
L344.123 208.424
L345.04 229.627
L345.957 239.739
L346.875 215.105
L347.792 206.131
L348.709 194.211
L349.626 215.851
L350.544 232.088
L352.378 201.691
L355.13 242.765
L356.047 242.563
L356.964 233.301
L357.882 232.172
L358.799 225.405
L359.716 217.368
L360.634 237.496
L361.551 224.155
L362.468 234.068
L363.385 240.435
L365.22 233.26
M367.054 233.783
L367.972 241.873
L368.889 242.321
L370.723 205.338
L370.723 205.338" style="fill:none;stroke:#ff0000;stroke-linecap:square;"/>
   </g>
   <g id="line2d_11">
    <path clip-path="url(#pd0c402dd48)" d="
M36.8406 237.771
L37.7579 222.8
L38.6751 225.262
L39.5924 209.105
L40.5097 221.323
L41.4269 241.867
L42.3442 228.24
L43.2614 218.558
L44.1787 233.708
L45.096 216.228
L46.0132 225.32
L46.9305 232.815
L47.8477 223.897
L48.765 205.246
L49.6823 212.26
L50.5995 210.107
L51.5168 224.039
L52.434 219.605
L53.3513 223.616
L54.2686 224.345
L55.1858 208.092
L57.0204 243.972
L57.9376 242.657
M59.7721 242.039
L60.6894 227.239
L61.6067 229.572
L62.5239 227.274
L63.4412 216.7
L64.3584 222.352
L66.193 196.976
L67.1102 208.226
L68.0275 214.074
L68.9447 212.766
L69.862 225.057
L70.7793 234.857
L71.6965 231.705
L72.6138 239.682
L73.531 233.672
L74.4483 230.186
L75.3656 240.185
L76.2828 230.765
L77.2001 241.753
L78.1173 219.335
L79.0346 215.687
L79.9519 236.717
L80.8691 216.375
L81.7864 210.073
L82.7036 213.704
L83.6209 200.323
L84.5382 208.038
L85.4554 225.711
L86.3727 206.125
L87.2899 224.029
L88.2072 226.909
L90.0417 193.369
L90.959 198.664
L91.8762 206.737
L92.7935 227.638
L93.7108 241.246
M95.5453 233.494
L96.4625 225.86
L97.3798 227.256
L98.2971 215.99
L99.2143 217.316
L100.132 203.652
L101.049 205.159
L101.966 202.256
L102.883 205.155
L103.801 241.656
L105.635 214.461
L106.552 193.28
L107.47 200.932
L108.387 186.206
L109.304 218.671
L110.221 230.254
L111.139 213.644
L112.056 214.335
L112.973 237.277
L114.808 193.06
L115.725 222.403
L116.642 227.076
L117.56 201.692
L118.477 236.94
L119.394 220.902
L120.311 238.655
L121.229 236.457
L122.146 211.953
L123.063 183.871
L123.98 171.008
L124.898 161.974
L125.815 218.705
L126.732 204.293
L127.649 229.688
L128.567 214.681
L129.484 188.072
L130.401 207.209
L131.318 198.565
L132.236 206.9
L133.153 182.087
L134.07 177.773
L134.987 167.497
L135.905 155.967
L136.822 159.362
L137.739 166.111
L138.657 174.831
L139.574 199.223
L140.491 188.543
L142.326 201.717
L143.243 187.151
L144.16 225.899
L145.077 185.505
L145.995 192.126
L146.912 200.523
L147.829 204.944
L148.746 235.414
L149.664 209.286
L150.581 205.837
L151.498 213.852
L152.415 198.85
L153.333 180.146
L154.25 170.384
L155.167 171.88
L156.084 167.966
L157.002 187.744
L157.919 182.114
L158.836 199.505
L159.754 183.17
L160.671 156.699
L161.588 148.42
L162.505 161.15
L163.423 170.71
L164.34 184.835
L165.257 184.725
L166.174 190.146
L167.092 188.498
L168.009 185.149
L168.926 177.023
L169.843 183.82
L170.761 183.748
L171.678 171.459
L172.595 182.109
L173.512 187.227
L174.43 195.576
L175.347 207.644
L176.264 234.201
L177.181 206.43
L178.099 207.84
L179.016 222.813
L179.933 223.633
L180.85 199.416
L181.768 198.669
L182.685 187.095
L183.602 201.278
L184.52 200.793
L185.437 200.518
L186.354 225.131
L187.271 224.903
L188.189 223.869
L189.106 195.623
L190.023 209.732
L190.94 178.356
L191.858 189.491
L192.775 204.834
L193.692 217.947
L194.609 204.323
L195.527 175.662
L196.444 167.717
L197.361 161.106
L198.278 169.265
L199.196 172.384
L200.113 180.285
L201.03 184.375
L201.947 178.344
L202.865 175.519
L203.782 192.059
L204.699 199.252
L205.617 187.526
L206.534 194.222
L207.451 187.762
L208.368 189.076
L209.286 192.69
L210.203 194.054
L211.12 180.615
L212.037 189.25
L212.955 199.904
L213.872 202.619
L214.789 184.282
L215.706 184.313
L216.624 182.36
L217.541 170.623
L218.458 178.745
L220.293 192.389
L221.21 190.626
L222.127 195.285
L223.044 201.94
L223.962 186.426
L224.879 190.341
L225.796 196.425
L226.714 200.618
L227.631 200.443
L228.548 200.432
L229.465 195.296
L230.383 185.14
L232.217 189.982
L233.134 190.322
L234.052 191.985
L234.969 200.663
L235.886 235.233
L236.803 240.629
L237.721 224.799
L239.555 176.695
L240.472 162.549
L241.39 174.278
L242.307 198.954
L243.224 199.743
L244.141 207.229
L245.059 197
L245.976 188.664
L246.893 184.905
L247.81 177.155
L248.728 181.441
L249.645 183.137
L250.562 188.076
L251.48 212.488
L252.397 203.217
L254.231 195.939
L255.149 188.314
L256.066 197.698
L256.983 201.128
L257.9 207.917
L258.818 202.333
L259.735 200.779
L260.652 190.27
L261.569 185.05
L263.404 204.359
L264.321 203.803
L265.238 204.83
L266.156 197.781
L267.073 195.449
L267.99 184.887
L268.907 180.34
L269.825 183.823
L271.659 203.716
L272.577 208.925
L273.494 202.598
L276.246 199.032
L277.163 209.28
L278.08 199.435
L278.997 196.09
L279.915 196.883
L280.832 182.992
L281.749 185.742
L283.584 199.353
L284.501 203.917
L285.418 222.644
L286.335 219.501
L287.253 205.601
L288.17 205.325
L289.087 229.375
M291.839 212.312
L292.756 198.203
L293.674 191.083
L294.591 205.694
L296.425 199.421
L297.343 198.649
L298.26 218.507
L299.177 226.779
L300.094 218.878
L301.012 204.079
L301.929 205.348
L302.846 213.083
L303.763 230.001
L304.681 225.063
L305.598 226.949
L306.515 213.575
L307.432 218.182
L308.35 215.192
L309.267 199.277
L311.101 242.209
L312.019 223.892
L312.936 231.386
L313.853 237.695
L314.77 216.935
L315.688 215.713
L317.522 200.489
L318.44 202.584
L319.357 196.47
L320.274 227.499
L321.191 225.278
L323.026 206.974
L323.943 206.481
L324.86 229.988
M326.695 238.302
L327.612 237.117
L328.529 211.953
L330.364 188.461
L331.281 222.193
L332.198 200.486
L333.116 215.681
L334.033 223.304
L334.95 235.338
L335.867 224.838
L336.785 220.312
L337.702 218.457
L338.619 212.441
L339.537 225.268
L340.454 228.153
L341.371 216.091
M343.206 219.125
L344.123 217.581
L345.04 210.968
M346.875 215.641
L347.792 214.558
L348.709 236.719
L349.626 224.718
L351.461 209.74
L352.378 194.075
L353.295 222.28
L354.213 242.976
L355.13 228.932
L356.047 235.163
M357.882 234.417
L358.799 240.285
L359.716 235.47
L360.634 231.372
L361.551 229.628
L362.468 243.704
L363.385 235.914
L364.303 211.474
L365.22 224.869
L366.137 233.608
L367.054 227.638
L367.972 218.715
L368.889 231.194
L369.806 241.63
L370.723 236.343
L370.723 236.343" style="fill:none;stroke:#00bfbf;stroke-linecap:square;"/>
   </g>
   <g id="line2d_12">
    <path clip-path="url(#pd0c402dd48)" d="
M36.8406 242.436
L37.7579 236.396
L38.6751 229.438
L39.5924 221.21
L40.5097 232.608
L41.4269 226.931
L42.3442 236.681
L43.2614 212.211
L44.1787 216.272
L45.096 222.626
L46.0132 204.255
L46.9305 215.902
L47.8477 238.871
L48.765 230.79
L49.6823 203.407
L50.5995 222.653
L51.5168 218.861
L52.434 231.926
L53.3513 234.114
L54.2686 227.46
L55.1858 222.485
L56.1031 226.624
M57.9376 230.645
L58.8549 236.593
L59.7721 241.671
M61.6067 238.514
L62.5239 233.954
L63.4412 228.727
M65.2757 235.364
L66.193 222.538
L67.1102 229.439
L68.0275 234.294
L68.9447 236.81
L69.862 230.295
L70.7793 242.376
L71.6965 241.436
L72.6138 233.515
L73.531 219.604
L74.4483 233.885
L75.3656 228.393
L76.2828 237.917
L77.2001 223.557
M79.0346 243.696
L79.9519 242.665
L80.8691 239.272
L81.7864 227.477
L82.7036 224.68
L83.6209 227.478
L84.5382 194.599
L85.4554 194.649
L86.3727 232.88
L87.2899 231.454
L88.2072 207.093
L89.1245 224.138
L90.0417 226.542
L90.959 208.918
L91.8762 203.639
L92.7935 226.642
L93.7108 224.45
L94.628 224.973
L96.4625 202.421
L97.3798 230.888
L99.2143 203.787
L101.049 208.826
L101.966 233.554
L102.883 212.975
L103.801 181.788
L104.718 186.387
L105.635 180.774
L106.552 194.276
L107.47 182.006
L108.387 192.459
L109.304 210.929
L110.221 218.405
L111.139 189.507
L112.056 187.163
L112.973 226.037
L113.89 227.777
L114.808 198.685
L115.725 187.031
L117.56 240.684
L118.477 218.886
L119.394 238.88
L120.311 237.06
L121.229 220.817
L122.146 224.285
L123.063 230.856
L123.98 205.463
L124.898 188.188
L125.815 206.3
L126.732 181.086
L127.649 185.919
L128.567 187.788
L129.484 223.047
L130.401 214.616
L131.318 181.14
L132.236 168.488
L133.153 176.253
L134.07 171.808
L134.987 162.667
L135.905 163.865
L136.822 206.047
L137.739 229.488
L138.657 220.851
L139.574 190.728
L140.491 182.927
L141.408 171.316
L142.326 173.034
L143.243 224.396
L144.16 233.521
L145.077 220.354
L145.995 226.82
L146.912 217.868
L147.829 181.291
L148.746 204.408
L149.664 158.883
L150.581 194.303
L151.498 196.502
L152.415 162.684
L153.333 150.755
L154.25 151.702
L155.167 213.696
L156.084 184.158
L157.002 172.063
L157.919 170.724
L158.836 149.591
L159.754 152.379
L160.671 163.573
L161.588 188.519
L162.505 235.692
L163.423 198.499
L164.34 197.063
L165.257 209.451
M167.092 216.997
L168.009 202.213
L168.926 174.194
L169.843 206.858
L170.761 202.537
L171.678 213.081
L172.595 204.071
L173.512 179.844
L174.43 216.321
L175.347 205.157
L176.264 230.933
L177.181 205.609
L178.099 236.329
L179.016 192.147
L179.933 222.584
L180.85 180.404
L181.768 180.656
L182.685 204.093
L183.602 213.985
L184.52 196.933
L185.437 170.505
L186.354 168.52
L187.271 157.872
L188.189 176.3
L189.106 189.336
L190.023 197.487
L190.94 179.08
L191.858 176.531
L192.775 199.124
L193.692 203.574
L194.609 176.648
L195.527 175.917
L196.444 182.624
L197.361 195.456
L198.278 177.925
L199.196 179.132
L200.113 185.055
L201.03 199.735
L201.947 185.79
L202.865 181.925
L203.782 201.96
L204.699 206.567
L205.617 183.744
L206.534 188.247
L208.368 158.615
L209.286 165.569
L210.203 164.033
L212.037 180.015
L212.955 184.88
L213.872 185.126
L214.789 187.698
L215.706 178.638
L216.624 175.294
L217.541 161.006
L218.458 165.211
L219.375 179.884
L220.293 185.537
L221.21 185.764
L222.127 187.216
L223.044 179.098
L223.962 181.098
L224.879 184.825
L225.796 214.264
L226.714 191.132
L227.631 196.956
L228.548 195.211
L229.465 190.003
L230.383 191.093
L231.3 184.809
L232.217 183.826
L233.134 187.979
L234.052 181.636
L234.969 183.692
L235.886 199.684
L236.803 191.126
L237.721 193.53
L238.638 204.277
L239.555 209.621
L240.472 226.647
L242.307 192.741
L243.224 190.327
L244.141 171.538
L245.059 169.607
L245.976 179.818
L246.893 185.517
L247.81 188.37
L248.728 186.18
L249.645 192.613
L250.562 194.314
L251.48 198.272
L252.397 189.755
L253.314 184.546
L254.231 188.588
L255.149 177.708
L256.066 197.895
L256.983 234.02
L257.9 216.838
L258.818 212.291
L259.735 203.481
L260.652 175.071
L261.569 168.453
L262.487 176.749
L263.404 188.291
L264.321 190.154
L265.238 188.655
L266.156 223.449
L267.073 239.091
L267.99 194.734
L268.907 187.795
L269.825 172.749
L270.742 165.779
L271.659 180.04
L272.577 184.311
L273.494 191.431
L274.411 197.24
L275.328 193.811
L276.246 205.691
L277.163 206.363
L278.08 199.52
L278.997 198.214
L279.915 191.272
L280.832 177.109
L281.749 183.177
L283.584 176.476
L284.501 182.039
L285.418 193.278
L286.335 192.447
L287.253 193.862
L288.17 194.675
L289.087 216.074
L290.004 233.26
L290.922 225.129
L291.839 221.045
L292.756 207.998
L293.674 229.331
L294.591 216.871
L295.508 207.304
L296.425 216.398
L297.343 194.636
L298.26 188.871
L299.177 187.879
L300.094 190.849
L301.012 197.161
L301.929 200.326
L302.846 196.084
L303.763 190.708
L304.681 192.119
L305.598 189.532
L306.515 196.246
L307.432 229.34
L308.35 242.711
L309.267 232.058
L310.184 237.918
L311.101 216.574
L312.019 187.819
L312.936 183.627
L313.853 192.243
L314.77 229.923
L315.688 207.605
L316.605 204.932
L317.522 205.128
L318.44 190.407
L319.357 199.601
L320.274 205.348
L321.191 230.518
L322.109 237.043
L323.026 225.691
L323.943 242.572
L324.86 236.549
L325.778 216.955
L326.695 220.377
L327.612 241.206
L328.529 227.299
L329.447 222.015
L330.364 203.053
L331.281 218.26
M333.116 244.015
L334.033 241.97
M335.867 243.126
L336.785 217.436
L337.702 209.91
L338.619 210.962
L339.537 226.275
L340.454 232.787
L341.371 212.827
L342.288 219.829
M344.123 239.515
L345.04 227.345
L345.957 231.384
L346.875 240.256
L347.792 240.323
L348.709 232.262
L349.626 215.866
L350.544 230.017
L351.461 235.927
L352.378 237
L353.295 230.181
L354.213 229.702
L355.13 237.223
L356.047 235.008
L356.964 221.633
L357.882 219.604
L358.799 233.834
L359.716 241.38
L360.634 235.165
L361.551 217.281
L362.468 238.96
L363.385 236.836
L364.303 212.342
L365.22 183.633
L366.137 228.348
L367.054 233.057
L367.972 236.839
M369.806 240.773
L370.723 234.236
L370.723 234.236" style="fill:none;stroke:#bf00bf;stroke-linecap:square;"/>
   </g>
   <g id="line2d_13">
    <path clip-path="url(#pd0c402dd48)" d="
M36.8406 221.89
L37.7579 226.173
L38.6751 233.454
L39.5924 237.194
L40.5097 219.232
L41.4269 221.239
L42.3442 222.3
L43.2614 227.987
L44.1787 236.719
L45.096 243.962
L46.0132 225.476
L46.9305 228.361
M48.765 237.271
L49.6823 235.83
L50.5995 242.571
L51.5168 236.687
L52.434 239.413
L53.3513 242.939
L54.2686 220.297
L55.1858 237.112
L56.1031 237.479
L57.0204 206.103
L57.9376 237.88
L58.8549 240.44
L59.7721 240.168
L60.6894 239.039
L61.6067 237.001
L62.5239 237.555
L63.4412 244.042
L64.3584 227.564
L65.2757 216.898
L66.193 209.454
L67.1102 212.608
L68.0275 227.38
L68.9447 224.087
L69.862 223.347
L70.7793 225.968
L71.6965 231.412
L72.6138 223.338
L73.531 216.417
L74.4483 207.006
L75.3656 201.452
L76.2828 194.474
L77.2001 196.505
L78.1173 204.262
L79.0346 227.539
L79.9519 235.191
L80.8691 238.742
L81.7864 237.351
M83.6209 231.296
L84.5382 231.382
L85.4554 226.104
L86.3727 242.593
L87.2899 243.991
L88.2072 216.783
L89.1245 209.9
L90.0417 211.958
L90.959 189.252
L91.8762 218.266
L92.7935 225.457
L93.7108 230.518
L94.628 236.494
L95.5453 238.911
L96.4625 240.835
M98.2971 232.458
L99.2143 227.018
L100.132 243.049
L101.049 224.269
L101.966 241.05
L102.883 219.239
L103.801 229.78
M105.635 243.214
L106.552 215.296
L107.47 236.525
L108.387 219.197
L109.304 230.384
L110.221 228.209
L111.139 218.033
L112.056 234.777
M115.725 226.499
L116.642 233.365
L117.56 231.071
L118.477 193.851
L119.394 193.566
L120.311 205.2
L121.229 224.727
L122.146 210.919
L123.063 218.753
L123.98 224.91
L124.898 213.246
L126.732 229.052
L127.649 205.299
L128.567 209.28
L129.484 185.277
L130.401 217.605
L131.318 191.21
L132.236 213.444
L133.153 218.246
L134.07 205.434
L134.987 207.364
L135.905 178.182
L136.822 217.719
L137.739 226.512
L138.657 181.942
L139.574 163.436
L140.491 200.368
L141.408 224.71
L142.326 201.313
L143.243 187.35
L144.16 225.383
L145.077 193.028
L145.995 194.313
L146.912 183.86
L147.829 198.227
L148.746 179.668
L149.664 173.796
L150.581 178.351
L151.498 220.109
L152.415 201.51
L153.333 219.584
L154.25 208.495
L155.167 182.148
L157.002 171.966
L157.919 172.925
L159.754 226.775
L160.671 236.988
L161.588 212.5
L162.505 226.119
L163.423 169.215
L164.34 168.46
L165.257 192.3
L166.174 180.755
L167.092 216.459
L168.009 217.627
L169.843 201.599
L170.761 227.233
L171.678 227.026
L172.595 229.326
L173.512 193.932
L174.43 193.311
L175.347 188.442
L176.264 218.579
L177.181 178.765
L178.099 182.286
L179.016 173.809
L179.933 203.286
L180.85 220.287
L181.768 195.469
L182.685 209.557
L183.602 201.464
L184.52 199.048
L185.437 183.421
L186.354 202.485
L187.271 175.705
L188.189 173.881
L189.106 192.736
L190.023 174.583
L190.94 220.751
L191.858 217.206
L192.775 169.075
L193.692 174.628
L194.609 170.49
L195.527 174.327
L196.444 182.396
L197.361 185.902
L198.278 191.486
L199.196 182.766
L200.113 179.191
L201.03 205.914
L201.947 190.215
L202.865 189.084
L203.782 184.296
L204.699 177.912
L205.617 176.207
L206.534 181.604
L207.451 184.846
L208.368 212.266
L209.286 194.512
L210.203 187.192
L211.12 192.762
L212.037 190.526
L212.955 180.5
L213.872 198.032
L214.789 198.586
L215.706 193.491
L216.624 196.828
L217.541 183.435
L218.458 178.771
L219.375 192.904
L220.293 194.306
L221.21 190.72
L222.127 196.819
L223.044 181.94
L223.962 172.569
L225.796 190.297
L226.714 191.779
L227.631 195.345
L228.548 191.338
L229.465 185.224
L230.383 194.389
L231.3 194.278
L232.217 197.888
L233.134 195.12
L234.052 210.732
L234.969 194.597
L235.886 194.448
L236.803 197.799
L237.721 193.001
L238.638 189.779
L239.555 194.454
L240.472 192.507
L241.39 193.228
L242.307 195.049
L243.224 193.247
L244.141 189.424
L245.059 192.185
L245.976 193.811
L246.893 195.087
L247.81 185.074
L248.728 192.485
L249.645 196.421
L250.562 193.296
L251.48 193.487
L252.397 193.049
L253.314 200.274
L254.231 197.747
L255.149 210.818
L256.066 202.361
L256.983 202.282
L257.9 201.627
L258.818 200.634
L259.735 205.105
L260.652 196.919
L261.569 198.437
L262.487 186.865
L263.404 180.41
L264.321 188.847
L265.238 190.633
L266.156 193.956
L267.073 202.129
L267.99 199.982
L268.907 205.717
L269.825 203.922
L270.742 203.42
L271.659 203.219
L272.577 227.676
L273.494 213.537
L274.411 203.305
L275.328 198.661
L276.246 196.744
L277.163 191.175
L278.08 184.478
L278.997 190.434
L279.915 189.539
L280.832 190.393
L281.749 202.701
L282.666 205.251
L283.584 203.241
L284.501 210.529
L285.418 197.659
L286.335 194.431
L287.253 200.371
L288.17 202.701
L289.087 203.783
L290.004 235.169
L290.922 241.498
M293.674 219.921
L294.591 201.508
L295.508 227.328
L296.425 220.148
L297.343 204.527
L298.26 199.121
L299.177 192.535
L300.094 206.257
L301.012 240.269
L301.929 213.211
L302.846 203.475
L303.763 210.427
L304.681 200.522
L305.598 204.911
L306.515 212.268
L307.432 208.312
L308.35 224.918
L309.267 210.572
L310.184 198.158
L311.101 202.565
L312.019 192.956
L312.936 190.612
L313.853 199.065
L314.77 221.253
L316.605 197.544
L317.522 205.34
L318.44 229.651
L319.357 235.989
L320.274 239.684
L321.191 240.853
L322.109 222.761
L323.026 201.153
L323.943 194.878
L324.86 202.974
L325.778 227.674
L326.695 232.924
L327.612 208.554
L328.529 201.887
L329.447 217.43
L330.364 237.881
L331.281 238.197
L332.198 234.511
L333.116 213.355
L334.033 221.988
L334.95 229.091
L335.867 196.985
L336.785 217.722
L337.702 223.266
L338.619 198.183
L339.537 198.603
L340.454 217.824
L341.371 232.013
L342.288 225.917
L343.206 207.265
L344.123 209.618
L345.04 215.71
L345.957 219.925
L346.875 220.48
L347.792 204.104
L348.709 205.416
L349.626 203.611
L350.544 200.351
L351.461 205.877
L352.378 210.03
L353.295 209.948
L354.213 219.782
L355.13 214.117
L356.047 224.664
L356.964 224.271
L357.882 221.698
L358.799 217.091
L359.716 211.768
L360.634 207.574
L361.551 223.321
L362.468 203.102
L363.385 195.52
L364.303 202.166
L365.22 202.986
L366.137 208.467
L367.972 235.789
L368.889 229.015
L369.806 243.674
L370.723 224.678
L370.723 224.678" style="fill:none;stroke:#bfbf00;stroke-linecap:square;"/>
   </g>
   <g id="line2d_14">
    <path clip-path="url(#pd0c402dd48)" d="
M36.8406 200.625
L37.7579 199.77
L38.6751 197.42
L39.5924 182.033
L40.5097 206.22
L41.4269 223.658
L42.3442 229.14
L43.2614 221.258
L44.1787 222.856
L45.096 235.103
L46.0132 213.547
L46.9305 220.907
L47.8477 200.296
L48.765 185.541
L49.6823 207.713
L50.5995 221.1
L51.5168 207.903
L52.434 229.789
M55.1858 242.185
L56.1031 233.256
L57.0204 243.946
L57.9376 235.052
L58.8549 232.917
L59.7721 240.735
L60.6894 214.731
L61.6067 204.147
L62.5239 190.337
L63.4412 222.564
L64.3584 201.591
L65.2757 232.372
L66.193 230.289
L67.1102 212.548
L68.0275 209.684
L68.9447 205.123
L69.862 207.707
L70.7793 194.338
L71.6965 227.09
L72.6138 241.004
L73.531 222.043
L74.4483 235.131
L75.3656 239.084
L76.2828 221.956
L77.2001 231.476
L78.1173 235.173
L79.0346 215.706
L79.9519 213.406
L80.8691 225.571
L81.7864 219.33
L82.7036 230.952
M84.5382 233.303
L85.4554 215.912
L86.3727 190.334
L87.2899 227.51
L88.2072 217.352
L89.1245 205.763
L90.0417 203.338
L90.959 228.743
L91.8762 239.714
L92.7935 217.999
L93.7108 223.678
L94.628 202.239
L95.5453 191.763
L96.4625 218.836
L97.3798 200.834
L98.2971 195.438
L99.2143 190.947
L100.132 183.852
L101.049 210.013
L101.966 220.51
L102.883 226.987
M104.718 227.243
L105.635 239.516
L106.552 239.906
M108.387 228.556
L109.304 231.117
L110.221 208.863
L111.139 166.398
L112.056 196.305
L112.973 176.321
L114.808 235.269
L115.725 197.885
L116.642 222.821
L117.56 229.501
L118.477 233.645
L119.394 184.599
L120.311 187.771
L121.229 192.005
L122.146 186.021
L123.063 211.712
L123.98 193.108
L124.898 193.84
L125.815 181.415
L126.732 157.5
L127.649 162.917
L128.567 146.861
L129.484 208.385
L130.401 207.672
L131.318 219.08
L132.236 203.29
L133.153 185.085
L134.07 220.737
L134.987 198.69
L135.905 203.439
L136.822 213.422
L137.739 182.975
L138.657 166.127
L139.574 157.495
L140.491 182.564
L141.408 189.634
L142.326 209.7
L143.243 243.623
L144.16 206.501
L145.077 210.442
L145.995 191.553
L146.912 216.55
L147.829 182.157
L148.746 179.596
L149.664 219.849
L150.581 232.967
L151.498 198.727
L152.415 171.682
L153.333 167.248
L154.25 155.475
L155.167 155.242
L156.084 166.571
L157.002 174.337
L157.919 177.912
L158.836 174.651
L159.754 160.422
L160.671 189.581
L161.588 177.669
L162.505 204.217
L163.423 194.512
L164.34 188.165
L165.257 187.037
L166.174 200.558
L167.092 211.031
L168.009 210.883
L168.926 202.978
L169.843 232.083
L170.761 230.418
L171.678 207.664
L172.595 168.053
L173.512 159.034
L174.43 166.211
L175.347 169.624
L176.264 171.988
L177.181 199.157
L178.099 185.129
L179.016 198.79
L179.933 236.586
L180.85 197.245
L181.768 198.35
L182.685 204.123
L183.602 222.055
L184.52 193.239
L185.437 171.856
L186.354 175.287
L187.271 161.723
L188.189 151.55
L189.106 170.749
L190.023 182.485
L190.94 174.076
L191.858 181.473
L192.775 193.107
L193.692 182.074
L194.609 183.109
L195.527 171.77
L196.444 168.999
L197.361 174.631
L198.278 182.731
L199.196 193.507
L200.113 177.494
L201.03 175.75
L201.947 180.516
L202.865 164.925
L203.782 192.972
L204.699 188.682
L205.617 185.233
L206.534 188.082
L207.451 184.918
L208.368 190.874
L209.286 182.746
L210.203 195.499
L211.12 187.549
L212.037 188.66
L212.955 192.359
L213.872 191.828
L214.789 211.894
L215.706 215.16
L216.624 206.46
L217.541 211.279
L218.458 189.024
L219.375 184.915
L220.293 186.016
L221.21 180.623
L222.127 189.771
L223.044 185.967
L223.962 197.992
L225.796 188.67
L226.714 193.107
L227.631 188.111
L228.548 192.582
L229.465 190.291
L230.383 195.27
L232.217 189.796
L233.134 192.151
L234.052 195.986
L234.969 193.504
L235.886 192.511
L236.803 189.096
L237.721 183.845
L238.638 195.266
L239.555 195.507
L240.472 203.248
L241.39 198.948
L242.307 199.318
L245.059 193.369
L246.893 201.748
L247.81 197.075
L248.728 209.292
L249.645 200.759
L250.562 198.978
L251.48 200.074
L252.397 195.326
L253.314 192.431
L254.231 194.04
L255.149 196.181
L256.066 200.48
L256.983 182.555
L257.9 196.831
L258.818 196.267
L259.735 203.107
L260.652 203.606
L261.569 182.577
L262.487 186.03
L263.404 193.533
L264.321 186.88
L265.238 201.298
L266.156 191.222
L267.073 189.617
L267.99 192.821
L268.907 194.399
L269.825 199.789
L270.742 193.793
L271.659 195.266
L272.577 184.411
L273.494 176.877
L274.411 187.924
L275.328 193.233
L277.163 198.705
L278.08 199.377
L278.997 199.671
L279.915 197.398
L280.832 226.568
L281.749 211.072
L282.666 207.97
L283.584 207.058
L284.501 191.771
L285.418 192.981
L286.335 196.303
L287.253 198.022
L288.17 197.241
L289.087 198.381
L290.004 200.761
L290.922 201.379
L291.839 198.93
L292.756 200.407
L293.674 185.278
L294.591 179.462
L295.508 183.861
L296.425 183.382
L297.343 187.467
L298.26 188.637
L299.177 221.657
L300.094 207.506
L301.012 214.633
L301.929 220.065
L302.846 205.803
L303.763 200.365
L304.681 205.322
L305.598 217.168
L306.515 200.845
L307.432 237.843
L308.35 242.728
L309.267 235.368
L310.184 235.205
L311.101 215.352
L312.019 218.324
L312.936 232.722
L313.853 202.48
L314.77 192.738
L315.688 190.575
L316.605 215.474
L317.522 212.047
L318.44 216.654
L319.357 212.462
L320.274 215.834
L321.191 206.317
L322.109 216.581
L323.943 242.847
L324.86 236.505
L325.778 237.068
L326.695 232.639
L327.612 232.032
L328.529 229.925
L329.447 222.928
L330.364 214.049
L331.281 231.766
L332.198 228.36
L333.116 228.788
L334.033 222.836
L334.95 232.809
L336.785 199.865
L337.702 224.715
L338.619 234.673
L339.537 222.239
L340.454 213.996
L341.371 220.625
L342.288 224.654
L343.206 234.529
L344.123 233.412
L345.04 241.103
L345.957 217.283
L346.875 230.067
L347.792 236.963
L348.709 228.367
L349.626 221.672
L350.544 234.048
L351.461 225.302
L352.378 239.063
L353.295 225.695
L354.213 240.991
L355.13 226.515
L356.047 235.728
L356.964 237.532
M358.799 235.064
L359.716 228.184
L360.634 225.374
L361.551 197.889
L362.468 189.251
L363.385 217.351
L364.303 237.413
L365.22 238.455
L366.137 227.52
L367.054 239.44
L367.972 241.131
L368.889 228.511
L369.806 228.042
L370.723 241.809
L370.723 241.809" style="fill:none;stroke:#000000;stroke-linecap:square;"/>
   </g>
   <g id="line2d_15">
    <path clip-path="url(#pd0c402dd48)" d="
M36.8406 225.881
L37.7579 221.501
L38.6751 187.108
L39.5924 157.7
L40.5097 123.767
L41.4269 155.668
L42.3442 203.949
L43.2614 230.982
L44.1787 147.039
L45.096 216.107
L46.0132 199.077
L46.9305 153.085
L47.8477 183.131
L48.765 208.873
L49.6823 184.204
L50.5995 176.618
L51.5168 171.449
L52.434 95.5937
L53.3513 79.3115
L54.2686 142.632
L55.1858 121.365
L56.1031 48.2248
L57.0204 45.3859
L57.9376 171.461
L58.8549 221.501
L59.7721 225.403
L60.6894 218.737
L61.6067 230.704
L62.5239 244.231
L63.4412 240.755
L64.3584 225.299
L65.2757 205.397
L67.1102 172.584
L68.0275 139.821
L68.9447 154.673
L69.862 174.347
L70.7793 155.507
L71.6965 199.695
L72.6138 170.91
L73.531 150.997
L74.4483 104.652
L75.3656 173.771
L76.2828 179.266
L77.2001 153.511
L78.1173 132.481
L79.0346 162.108
L79.9519 200.66
L80.8691 113.149
L81.7864 161.16
L82.7036 198.218
L83.6209 179.945
L84.5382 214.834
L86.3727 181.808
L87.2899 179.275
L88.2072 162.444
L89.1245 103.579
L90.0417 168.258
L90.959 189.74
L91.8762 141.348
L92.7935 135.315
L93.7108 62.56
L94.628 84.7376
L95.5453 172.409
L96.4625 148.321
L97.3798 103.382
L98.2971 94.3353
L99.2143 62.7348
L100.132 168.297
L101.049 143.612
L101.966 86.3504
L102.883 60.5102
L104.718 146.076
L105.635 143.828
L106.552 153.592
L107.47 94.6029
L108.387 161.8
L109.304 160.119
L110.221 177.336
L111.139 109.056
L112.056 93.9096
L112.973 81.81
L113.89 163.289
L114.808 119.708
L115.725 57.3778
L116.642 94.9014
L117.56 89.2455
L118.477 71.291
L119.394 135.517
L120.311 123.321
L121.229 100.593
L122.146 150.908
L123.063 192.136
L123.98 199.525
L124.898 216.748
L125.815 170.741
L126.732 135.526
L127.649 145.059
L128.567 123.934
L129.484 73.1449
L130.401 142.464
L131.318 127.877
L132.236 173.696
L134.07 90.0167
L134.987 66.1635
L135.905 186.617
L136.822 156.947
L137.739 102.006
L138.657 106.833
L139.574 70.7239
L140.491 51.4329
L141.408 40.4382
L142.326 68.1632
L143.243 35.2957
L144.16 47.9738
L145.077 113.031
L145.995 119.767
L146.912 121.86
L147.829 88.6822
L148.746 80.9485
L149.664 114.96
L150.581 42.7974
L151.498 76.3948
L152.415 140.087
L153.333 146.477
L154.25 106.786
L155.167 104.192
L156.084 105.129
L157.002 94.1884
L158.836 136.188
L159.754 128.614
L160.671 172.075
L161.588 209.937
L162.505 175.479
L163.423 180.438
L164.34 134.71
L165.257 101.665
L166.174 137.677
L167.092 64.1021
L168.009 64.5423
L168.926 110.409
L169.843 173.246
L170.761 167.765
L171.678 209.009
L172.595 198.653
L173.512 154.664
L174.43 130.776
L175.347 77.8013
L176.264 70.2747
L177.181 96.8618
L179.016 70.7381
L179.933 92.6713
L180.85 90.8937
L181.768 102.751
L182.685 91.0803
L183.602 117.616
L184.52 135.835
L185.437 136.341
L187.271 174.968
L188.189 110.975
L190.023 88.5595
L190.94 86.5483
L191.858 191.496
L192.775 176.197
L193.692 172.371
L194.609 163.836
L195.527 122.559
L196.444 189.719
L197.361 211.46
L198.278 158.446
L199.196 88.2043
L200.113 95.752
L201.03 88.4732
L201.947 82.2059
L202.865 132.459
M301.929 109.529
L302.846 112.903
L303.763 89.711
L304.681 103.119
L305.598 110.151
L306.515 97.8965
L307.432 93.7928
L308.35 95.443
L309.267 103.184
L310.184 105.214
L311.101 110.804
L312.019 200.365
L312.936 219.469
L313.853 204.265
L314.77 210.948
L315.688 189.908
L316.605 184.915
L317.522 198.065
L318.44 165.519
L319.357 192.047
L320.274 205.165
L321.191 171.505
L322.109 130.796
L323.026 104.775
L323.943 66.7391
L324.86 96.1021
L325.778 94.998
L326.695 143.792
L327.612 165.735
L328.529 200.95
L329.447 213.227
L330.364 185.953
L331.281 140.975
L332.198 193.352
L333.116 184.844
L334.033 113.82
L334.95 112.87
L335.867 131.16
L336.785 120.777
L337.702 105.238
L338.619 84.067
L339.537 90.9517
L340.454 127.977
L341.371 137.679
L342.288 191.729
L343.206 209.636
L344.123 190.353
L345.04 173.801
L345.957 209.869
L347.792 184.898
L348.709 215.733
L350.544 83.4934
L351.461 129.702
L352.378 162.197
L353.295 117.147
L354.213 149.09
L355.13 163.2
L356.047 62.9992
L356.964 74.4084
L357.882 47.3846
L358.799 141.452
L359.716 199.797
L360.634 174.356
L361.551 215.218
L362.468 221.671
L363.385 193.61
L364.303 148.078
L365.22 87.3264
L366.137 89.605
L367.054 79.8202
L367.972 143.528
L368.889 121.03
L369.806 157.525
L370.723 179.525
L370.723 179.525" style="fill:none;stroke:#0000ff;stroke-linecap:square;"/>
   </g>
   <g id="line2d_16">
    <path clip-path="url(#pd0c402dd48)" d="
M36.8406 235.342
L37.7579 225.795
L38.6751 222.877
L39.5924 228.69
L40.5097 219.74
L41.4269 214.132
L42.3442 223.428
M44.1787 227.848
L45.096 237.407
L46.0132 235.656
L46.9305 239.515
L47.8477 238.456
L48.765 230.373
L49.6823 216.733
L50.5995 217.992
L51.5168 215.078
L52.434 222.73
L53.3513 215.962
L54.2686 220.33
L55.1858 221.753
L56.1031 226.593
L57.0204 220.874
M72.6138 233.036
L73.531 226.139
L75.3656 236.929
L76.2828 232.532
L77.2001 231.975
L78.1173 227.299
L79.0346 232.201
L79.9519 208.436
L80.8691 231.853
L81.7864 233.408
L82.7036 237.764
L83.6209 227.751
L84.5382 226.318
L86.3727 212.451
L87.2899 209.695
L88.2072 213.97
L89.1245 230.237
L90.0417 220.493
L90.959 235.402
L91.8762 231.809
L92.7935 234.673
L93.7108 205.854
L94.628 223.892
L95.5453 218.587
L96.4625 216.654
L97.3798 197.542
L98.2971 224.741
L99.2143 237.028
L100.132 210.721
L101.049 195.497
L101.966 189.802
L102.883 217.121
L103.801 189.173
L104.718 180.266
L105.635 216.822
L106.552 218.454
L107.47 183.492
L108.387 184.802
L109.304 190.713
L110.221 175.172
L111.139 167.62
L112.056 178.518
L112.973 203.627
L113.89 206.135
M115.725 225.171
L116.642 230.583
L117.56 219.217
L118.477 199.664
L119.394 237.624
L120.311 227.736
L121.229 197.832
L122.146 200.945
L123.063 197.915
L123.98 190.253
L124.898 169.18
L125.815 175.819
L126.732 175.845
L128.567 171.848
L129.484 183.08
L130.401 188.744
L131.318 177.56
L132.236 183.606
L133.153 177.862
L134.07 182.813
L134.987 176.722
L135.905 173.156
L136.822 173.615
L137.739 176.089
L138.657 229.582
L139.574 197.808
L140.491 208.2
L141.408 228.825
L142.326 207.959
L143.243 194.945
L144.16 190.723
L145.077 162.681
L145.995 156.129
L146.912 153.609
L147.829 155.07
L148.746 167.108
L150.581 204.504
L151.498 193.1
L152.415 193.213
L153.333 198.149
L154.25 194.831
L155.167 200.26
L156.084 169.57
L157.002 169.539
L157.919 164.289
L158.836 161.109
L159.754 156.319
L160.671 181.175
L161.588 164.872
L162.505 195.926
L163.423 184.441
L164.34 201.585
L165.257 207.694
L166.174 176.543
L167.092 169.536
L168.009 187.345
L168.926 187.337
L169.843 172.338
L170.761 175.071
L171.678 191.541
L172.595 177.326
L173.512 184.66
L174.43 180.86
L175.347 193.008
L176.264 169.792
L177.181 161.835
L178.099 174.776
L179.016 173.684
L179.933 169.645
L180.85 186.685
L181.768 178.321
L182.685 176.641
L183.602 179.105
L184.52 176.004
L185.437 182.164
L186.354 204.773
L187.271 204.457
L188.189 196.739
L189.106 203.321
L190.023 207.228
L190.94 213.359
L191.858 159.711
L192.775 169.405
L193.692 163.27
L194.609 154.601
L195.527 155.214
L196.444 181.501
L197.361 217.623
L198.278 204.594
L199.196 206.624
L200.113 189.305
L202.865 166.926
L203.782 184.026
L204.699 183.116
L205.617 178.14
L206.534 175.901
L207.451 182.582
L208.368 190.46
L209.286 196.833
L210.203 210.765
L211.12 190.427
L212.037 193.32
L212.955 189.434
L213.872 190.432
L214.789 188.442
L215.706 191.907
L216.624 197.409
L217.541 203.916
L218.458 197.447
L219.375 201.362
L220.293 195.118
L221.21 214.344
L222.127 202.387
L223.044 192.017
L223.962 192.777
L224.879 190.614
L225.796 182.333
L226.714 185.233
L227.631 195.716
L228.548 186.283
L229.465 196.83
L230.383 193.04
L231.3 201.777
L232.217 203.173
L233.134 199.572
L234.052 199.443
L234.969 207.679
L235.886 206.226
L236.803 201.632
L237.721 204.192
L238.638 201.177
L239.555 191.081
L240.472 196.616
L241.39 195.319
L242.307 217.604
L243.224 202.028
L244.141 198.434
L245.059 200.186
L245.976 190.28
L246.893 188.226
L247.81 199.952
L248.728 204.678
L249.645 201.033
L250.562 204.744
L251.48 211.411
L252.397 203.923
L253.314 212.154
L255.149 189.281
L256.066 187.544
L256.983 189.214
L257.9 207.258
L258.818 203.052
L259.735 200.067
L260.652 198.785
L261.569 204.873
L262.487 192.465
L263.404 185.074
L264.321 189.448
L265.238 194.767
L266.156 187.871
L267.073 193.104
L267.99 200.706
L268.907 202.594
L269.825 201.573
L270.742 206.395
L271.659 196.548
L272.577 193.586
L273.494 194.993
L274.411 202.78
L275.328 211.935
L276.246 209.534
L277.163 208.058
L278.08 222.332
L278.997 215.376
L279.915 220.777
L280.832 200.897
L281.749 208.552
L282.666 211.513
L283.584 227.427
L284.501 231.575
L285.418 237.149
L286.335 218.375
L287.253 206.998
L288.17 197.403
L289.087 196.935
L290.004 193.256
L290.922 193.635
L291.839 196.455
L292.756 199.996
L293.674 201.968
L294.591 206.137
L295.508 211.402
L296.425 219.624
L297.343 225.381
L298.26 209.434
L299.177 214.26
L300.094 227.694
L301.012 219.291
L301.929 200.556
L303.763 218.657
L304.681 207.494
L305.598 226.571
L306.515 218.311
L307.432 232.739
L308.35 220.558
L309.267 225.696
L310.184 222.318
L311.101 220.794
L312.019 207.744
L312.936 220.192
L313.853 215.431
L314.77 220.227
L315.688 235.889
M317.522 231.998
L318.44 234.478
L319.357 226.479
L320.274 217.396
L321.191 219.183
L322.109 216.55
L323.026 225.972
L323.943 232.379
L324.86 230.131
L325.778 215.539
L326.695 232.067
M328.529 243.021
L329.447 233.815
L333.116 220.121
L334.033 224.149
L334.95 235.301
L336.785 225.31
L337.702 236.109
L338.619 223.916
L339.537 223.856
L340.454 216.416
L341.371 232.805
L342.288 229.019
L343.206 236.989
L344.123 234.305
L345.04 230.107
L345.957 226.788
L346.875 221.965
L347.792 233.311
L348.709 225.818
L349.626 236.438
L350.544 228.903
L351.461 227.273
L352.378 224.375
L353.295 238.681
L354.213 242.055
L355.13 228.553
L356.047 230.651
L356.964 237.82
L357.882 233.744
L359.716 241.104
L360.634 242.005
L361.551 241.624
M363.385 233.315
L364.303 240.786
M368.889 244.384" style="fill:none;stroke:#008000;stroke-linecap:square;"/>
   </g>
   <g id="patch_3">
    <path d="
M36.8406 244.518
L36.8406 21.3181" style="fill:none;stroke:#000000;stroke-linecap:square;stroke-linejoin:miter;"/>
   </g>
   <g id="patch_4">
    <path d="
M36.8406 21.3181
L371.641 21.3181" style="fill:none;stroke:#000000;stroke-linecap:square;stroke-linejoin:miter;"/>
   </g>
   <g id="patch_5">
    <path d="
M371.641 244.518
L371.641 21.3181" style="fill:none;stroke:#000000;stroke-linecap:square;stroke-linejoin:miter;"/>
   </g>
   <g id="patch_6">
    <path d="
M36.8406 244.518
L371.641 244.518" style="fill:none;stroke:#000000;stroke-linecap:square;stroke-linejoin:miter;"/>
   </g>
   <g id="matplotlib.axis_1">
    <g id="xtick_1">
     <g id="line2d_17">
      <defs>
       <path d="
M0 0
L0 -4" id="mc7db9fdffb" style="stroke:#000000;stroke-width:0.5;"/>
      </defs>
      <g>
       <use style="stroke:#000000;stroke-width:0.5;" x="36.840625" xlink:href="#mc7db9fdffb" y="244.518125"/>
      </g>
     </g>
     <g id="line2d_18">
      <defs>
       <path d="
M0 0
L0 4" id="m5a7d422ac3" style="stroke:#000000;stroke-width:0.5;"/>
      </defs>
      <g>
       <use style="stroke:#000000;stroke-width:0.5;" x="36.840625" xlink:href="#m5a7d422ac3" y="21.318125"/>
      </g>
     </g>
     <g id="text_1">
      <!-- 0 -->
      <defs>
       <path d="
M31.7812 66.4062
Q24.1719 66.4062 20.3281 58.9062
Q16.5 51.4219 16.5 36.375
Q16.5 21.3906 20.3281 13.8906
Q24.1719 6.39062 31.7812 6.39062
Q39.4531 6.39062 43.2812 13.8906
Q47.125 21.3906 47.125 36.375
Q47.125 51.4219 43.2812 58.9062
Q39.4531 66.4062 31.7812 66.4062
M31.7812 74.2188
Q44.0469 74.2188 50.5156 64.5156
Q56.9844 54.8281 56.9844 36.375
Q56.9844 17.9688 50.5156 8.26562
Q44.0469 -1.42188 31.7812 -1.42188
Q19.5312 -1.42188 13.0625 8.26562
Q6.59375 17.9688 6.59375 36.375
Q6.59375 54.8281 13.0625 64.5156
Q19.5312 74.2188 31.7812 74.2188" id="BitstreamVeraSans-Roman-30"/>
      </defs>
      <g transform="translate(34.32109375 256.1165625)scale(0.1 -0.1)">
       <use xlink:href="#BitstreamVeraSans-Roman-30"/>
      </g>
     </g>
    </g>
    <g id="xtick_2">
     <g id="line2d_19">
      <g>
       <use style="stroke:#000000;stroke-width:0.5;" x="82.7036386986" xlink:href="#mc7db9fdffb" y="244.518125"/>
      </g>
     </g>
     <g id="line2d_20">
      <g>
       <use style="stroke:#000000;stroke-width:0.5;" x="82.7036386986" xlink:href="#m5a7d422ac3" y="21.318125"/>
      </g>
     </g>
     <g id="text_2">
      <!-- 50 -->
      <defs>
       <path d="
M10.7969 72.9062
L49.5156 72.9062
L49.5156 64.5938
L19.8281 64.5938
L19.8281 46.7344
Q21.9688 47.4688 24.1094 47.8281
Q26.2656 48.1875 28.4219 48.1875
Q40.625 48.1875 47.75 41.5
Q54.8906 34.8125 54.8906 23.3906
Q54.8906 11.625 47.5625 5.09375
Q40.2344 -1.42188 26.9062 -1.42188
Q22.3125 -1.42188 17.5469 -0.640625
Q12.7969 0.140625 7.71875 1.70312
L7.71875 11.625
Q12.1094 9.23438 16.7969 8.0625
Q21.4844 6.89062 26.7031 6.89062
Q35.1562 6.89062 40.0781 11.3281
Q45.0156 15.7656 45.0156 23.3906
Q45.0156 31 40.0781 35.4375
Q35.1562 39.8906 26.7031 39.8906
Q22.75 39.8906 18.8125 39.0156
Q14.8906 38.1406 10.7969 36.2812
z
" id="BitstreamVeraSans-Roman-35"/>
      </defs>
      <g transform="translate(77.0591074486 256.1165625)scale(0.1 -0.1)">
       <use xlink:href="#BitstreamVeraSans-Roman-35"/>
       <use x="63.623046875" xlink:href="#BitstreamVeraSans-Roman-30"/>
      </g>
     </g>
    </g>
    <g id="xtick_3">
     <g id="line2d_21">
      <g>
       <use style="stroke:#000000;stroke-width:0.5;" x="128.566652397" xlink:href="#mc7db9fdffb" y="244.518125"/>
      </g>
     </g>
     <g id="line2d_22">
      <g>
       <use style="stroke:#000000;stroke-width:0.5;" x="128.566652397" xlink:href="#m5a7d422ac3" y="21.318125"/>
      </g>
     </g>
     <g id="text_3">
      <!-- 100 -->
      <defs>
       <path d="
M12.4062 8.29688
L28.5156 8.29688
L28.5156 63.9219
L10.9844 60.4062
L10.9844 69.3906
L28.4219 72.9062
L38.2812 72.9062
L38.2812 8.29688
L54.3906 8.29688
L54.3906 0
L12.4062 0
z
" id="BitstreamVeraSans-Roman-31"/>
      </defs>
      <g transform="translate(119.904152397 256.1165625)scale(0.1 -0.1)">
       <use xlink:href="#BitstreamVeraSans-Roman-31"/>
       <use x="63.623046875" xlink:href="#BitstreamVeraSans-Roman-30"/>
       <use x="127.24609375" xlink:href="#BitstreamVeraSans-Roman-30"/>
      </g>
     </g>
    </g>
    <g id="xtick_4">
     <g id="line2d_23">
      <g>
       <use style="stroke:#000000;stroke-width:0.5;" x="174.429666096" xlink:href="#mc7db9fdffb" y="244.518125"/>
      </g>
     </g>
     <g id="line2d_24">
      <g>
       <use style="stroke:#000000;stroke-width:0.5;" x="174.429666096" xlink:href="#m5a7d422ac3" y="21.318125"/>
      </g>
     </g>
     <g id="text_4">
      <!-- 150 -->
      <g transform="translate(165.767166096 256.1165625)scale(0.1 -0.1)">
       <use xlink:href="#BitstreamVeraSans-Roman-31"/>
       <use x="63.623046875" xlink:href="#BitstreamVeraSans-Roman-35"/>
       <use x="127.24609375" xlink:href="#BitstreamVeraSans-Roman-30"/>
      </g>
     </g>
    </g>
    <g id="xtick_5">
     <g id="line2d_25">
      <g>
       <use style="stroke:#000000;stroke-width:0.5;" x="220.292679795" xlink:href="#mc7db9fdffb" y="244.518125"/>
      </g>
     </g>
     <g id="line2d_26">
      <g>
       <use style="stroke:#000000;stroke-width:0.5;" x="220.292679795" xlink:href="#m5a7d422ac3" y="21.318125"/>
      </g>
     </g>
     <g id="text_5">
      <!-- 200 -->
      <defs>
       <path d="
M19.1875 8.29688
L53.6094 8.29688
L53.6094 0
L7.32812 0
L7.32812 8.29688
Q12.9375 14.1094 22.625 23.8906
Q32.3281 33.6875 34.8125 36.5312
Q39.5469 41.8438 41.4219 45.5312
Q43.3125 49.2188 43.3125 52.7812
Q43.3125 58.5938 39.2344 62.25
Q35.1562 65.9219 28.6094 65.9219
Q23.9688 65.9219 18.8125 64.3125
Q13.6719 62.7031 7.8125 59.4219
L7.8125 69.3906
Q13.7656 71.7812 18.9375 73
Q24.125 74.2188 28.4219 74.2188
Q39.75 74.2188 46.4844 68.5469
Q53.2188 62.8906 53.2188 53.4219
Q53.2188 48.9219 51.5312 44.8906
Q49.8594 40.875 45.4062 35.4062
Q44.1875 33.9844 37.6406 27.2188
Q31.1094 20.4531 19.1875 8.29688" id="BitstreamVeraSans-Roman-32"/>
      </defs>
      <g transform="translate(211.447367295 256.1165625)scale(0.1 -0.1)">
       <use xlink:href="#BitstreamVeraSans-Roman-32"/>
       <use x="63.623046875" xlink:href="#BitstreamVeraSans-Roman-30"/>
       <use x="127.24609375" xlink:href="#BitstreamVeraSans-Roman-30"/>
      </g>
     </g>
    </g>
    <g id="xtick_6">
     <g id="line2d_27">
      <g>
       <use style="stroke:#000000;stroke-width:0.5;" x="266.155693493" xlink:href="#mc7db9fdffb" y="244.518125"/>
      </g>
     </g>
     <g id="line2d_28">
      <g>
       <use style="stroke:#000000;stroke-width:0.5;" x="266.155693493" xlink:href="#m5a7d422ac3" y="21.318125"/>
      </g>
     </g>
     <g id="text_6">
      <!-- 250 -->
      <g transform="translate(257.310380993 256.1165625)scale(0.1 -0.1)">
       <use xlink:href="#BitstreamVeraSans-Roman-32"/>
       <use x="63.623046875" xlink:href="#BitstreamVeraSans-Roman-35"/>
       <use x="127.24609375" xlink:href="#BitstreamVeraSans-Roman-30"/>
      </g>
     </g>
    </g>
    <g id="xtick_7">
     <g id="line2d_29">
      <g>
       <use style="stroke:#000000;stroke-width:0.5;" x="312.018707192" xlink:href="#mc7db9fdffb" y="244.518125"/>
      </g>
     </g>
     <g id="line2d_30">
      <g>
       <use style="stroke:#000000;stroke-width:0.5;" x="312.018707192" xlink:href="#m5a7d422ac3" y="21.318125"/>
      </g>
     </g>
     <g id="text_7">
      <!-- 300 -->
      <defs>
       <path d="
M40.5781 39.3125
Q47.6562 37.7969 51.625 33
Q55.6094 28.2188 55.6094 21.1875
Q55.6094 10.4062 48.1875 4.48438
Q40.7656 -1.42188 27.0938 -1.42188
Q22.5156 -1.42188 17.6562 -0.515625
Q12.7969 0.390625 7.625 2.20312
L7.625 11.7188
Q11.7188 9.32812 16.5938 8.10938
Q21.4844 6.89062 26.8125 6.89062
Q36.0781 6.89062 40.9375 10.5469
Q45.7969 14.2031 45.7969 21.1875
Q45.7969 27.6406 41.2812 31.2656
Q36.7656 34.9062 28.7188 34.9062
L20.2188 34.9062
L20.2188 43.0156
L29.1094 43.0156
Q36.375 43.0156 40.2344 45.9219
Q44.0938 48.8281 44.0938 54.2969
Q44.0938 59.9062 40.1094 62.9062
Q36.1406 65.9219 28.7188 65.9219
Q24.6562 65.9219 20.0156 65.0312
Q15.375 64.1562 9.8125 62.3125
L9.8125 71.0938
Q15.4375 72.6562 20.3438 73.4375
Q25.25 74.2188 29.5938 74.2188
Q40.8281 74.2188 47.3594 69.1094
Q53.9062 64.0156 53.9062 55.3281
Q53.9062 49.2656 50.4375 45.0938
Q46.9688 40.9219 40.5781 39.3125" id="BitstreamVeraSans-Roman-33"/>
      </defs>
      <g transform="translate(303.188238442 256.1165625)scale(0.1 -0.1)">
       <use xlink:href="#BitstreamVeraSans-Roman-33"/>
       <use x="63.623046875" xlink:href="#BitstreamVeraSans-Roman-30"/>
       <use x="127.24609375" xlink:href="#BitstreamVeraSans-Roman-30"/>
      </g>
     </g>
    </g>
    <g id="xtick_8">
     <g id="line2d_31">
      <g>
       <use style="stroke:#000000;stroke-width:0.5;" x="357.88172089" xlink:href="#mc7db9fdffb" y="244.518125"/>
      </g>
     </g>
     <g id="line2d_32">
      <g>
       <use style="stroke:#000000;stroke-width:0.5;" x="357.88172089" xlink:href="#m5a7d422ac3" y="21.318125"/>
      </g>
     </g>
     <g id="text_8">
      <!-- 350 -->
      <g transform="translate(349.05125214 256.1165625)scale(0.1 -0.1)">
       <use xlink:href="#BitstreamVeraSans-Roman-33"/>
       <use x="63.623046875" xlink:href="#BitstreamVeraSans-Roman-35"/>
       <use x="127.24609375" xlink:href="#BitstreamVeraSans-Roman-30"/>
      </g>
     </g>
    </g>
    <g id="text_9">
     <!-- Julian day -->
     <defs>
      <path id="BitstreamVeraSans-Roman-20"/>
      <path d="
M34.2812 27.4844
Q23.3906 27.4844 19.1875 25
Q14.9844 22.5156 14.9844 16.5
Q14.9844 11.7188 18.1406 8.90625
Q21.2969 6.10938 26.7031 6.10938
Q34.1875 6.10938 38.7031 11.4062
Q43.2188 16.7031 43.2188 25.4844
L43.2188 27.4844
z

M52.2031 31.2031
L52.2031 0
L43.2188 0
L43.2188 8.29688
Q40.1406 3.32812 35.5469 0.953125
Q30.9531 -1.42188 24.3125 -1.42188
Q15.9219 -1.42188 10.9531 3.29688
Q6 8.01562 6 15.9219
Q6 25.1406 12.1719 29.8281
Q18.3594 34.5156 30.6094 34.5156
L43.2188 34.5156
L43.2188 35.4062
Q43.2188 41.6094 39.1406 45
Q35.0625 48.3906 27.6875 48.3906
Q23 48.3906 18.5469 47.2656
Q14.1094 46.1406 10.0156 43.8906
L10.0156 52.2031
Q14.9375 54.1094 19.5781 55.0469
Q24.2188 56 28.6094 56
Q40.4844 56 46.3438 49.8438
Q52.2031 43.7031 52.2031 31.2031" id="BitstreamVeraSans-Roman-61"/>
      <path d="
M45.4062 46.3906
L45.4062 75.9844
L54.3906 75.9844
L54.3906 0
L45.4062 0
L45.4062 8.20312
Q42.5781 3.32812 38.25 0.953125
Q33.9375 -1.42188 27.875 -1.42188
Q17.9688 -1.42188 11.7344 6.48438
Q5.51562 14.4062 5.51562 27.2969
Q5.51562 40.1875 11.7344 48.0938
Q17.9688 56 27.875 56
Q33.9375 56 38.25 53.625
Q42.5781 51.2656 45.4062 46.3906
M14.7969 27.2969
Q14.7969 17.3906 18.875 11.75
Q22.9531 6.10938 30.0781 6.10938
Q37.2031 6.10938 41.2969 11.75
Q45.4062 17.3906 45.4062 27.2969
Q45.4062 37.2031 41.2969 42.8438
Q37.2031 48.4844 30.0781 48.4844
Q22.9531 48.4844 18.875 42.8438
Q14.7969 37.2031 14.7969 27.2969" id="BitstreamVeraSans-Roman-64"/>
      <path d="
M9.42188 54.6875
L18.4062 54.6875
L18.4062 0
L9.42188 0
z

M9.42188 75.9844
L18.4062 75.9844
L18.4062 64.5938
L9.42188 64.5938
z
" id="BitstreamVeraSans-Roman-69"/>
      <path d="
M9.42188 75.9844
L18.4062 75.9844
L18.4062 0
L9.42188 0
z
" id="BitstreamVeraSans-Roman-6c"/>
      <path d="
M32.1719 -5.07812
Q28.375 -14.8438 24.75 -17.8125
Q21.1406 -20.7969 15.0938 -20.7969
L7.90625 -20.7969
L7.90625 -13.2812
L13.1875 -13.2812
Q16.8906 -13.2812 18.9375 -11.5156
Q21 -9.76562 23.4844 -3.21875
L25.0938 0.875
L2.98438 54.6875
L12.5 54.6875
L29.5938 11.9219
L46.6875 54.6875
L56.2031 54.6875
z
" id="BitstreamVeraSans-Roman-79"/>
      <path d="
M9.8125 72.9062
L19.6719 72.9062
L19.6719 5.07812
Q19.6719 -8.10938 14.6719 -14.0625
Q9.67188 -20.0156 -1.42188 -20.0156
L-5.17188 -20.0156
L-5.17188 -11.7188
L-2.09375 -11.7188
Q4.4375 -11.7188 7.125 -8.04688
Q9.8125 -4.39062 9.8125 5.07812
z
" id="BitstreamVeraSans-Roman-4a"/>
      <path d="
M54.8906 33.0156
L54.8906 0
L45.9062 0
L45.9062 32.7188
Q45.9062 40.4844 42.875 44.3281
Q39.8438 48.1875 33.7969 48.1875
Q26.5156 48.1875 22.3125 43.5469
Q18.1094 38.9219 18.1094 30.9062
L18.1094 0
L9.07812 0
L9.07812 54.6875
L18.1094 54.6875
L18.1094 46.1875
Q21.3438 51.125 25.7031 53.5625
Q30.0781 56 35.7969 56
Q45.2188 56 50.0469 50.1719
Q54.8906 44.3438 54.8906 33.0156" id="BitstreamVeraSans-Roman-6e"/>
      <path d="
M8.5 21.5781
L8.5 54.6875
L17.4844 54.6875
L17.4844 21.9219
Q17.4844 14.1562 20.5 10.2656
Q23.5312 6.39062 29.5938 6.39062
Q36.8594 6.39062 41.0781 11.0312
Q45.3125 15.6719 45.3125 23.6875
L45.3125 54.6875
L54.2969 54.6875
L54.2969 0
L45.3125 0
L45.3125 8.40625
Q42.0469 3.42188 37.7188 1
Q33.4062 -1.42188 27.6875 -1.42188
Q18.2656 -1.42188 13.375 4.4375
Q8.5 10.2969 8.5 21.5781" id="BitstreamVeraSans-Roman-75"/>
     </defs>
     <g transform="translate(179.68984375 270.7946875)scale(0.1 -0.1)">
      <use xlink:href="#BitstreamVeraSans-Roman-4a"/>
      <use x="29.4921875" xlink:href="#BitstreamVeraSans-Roman-75"/>
      <use x="92.87109375" xlink:href="#BitstreamVeraSans-Roman-6c"/>
      <use x="120.654296875" xlink:href="#BitstreamVeraSans-Roman-69"/>
      <use x="148.4375" xlink:href="#BitstreamVeraSans-Roman-61"/>
      <use x="209.716796875" xlink:href="#BitstreamVeraSans-Roman-6e"/>
      <use x="273.095703125" xlink:href="#BitstreamVeraSans-Roman-20"/>
      <use x="304.8828125" xlink:href="#BitstreamVeraSans-Roman-64"/>
      <use x="368.359375" xlink:href="#BitstreamVeraSans-Roman-61"/>
      <use x="429.638671875" xlink:href="#BitstreamVeraSans-Roman-79"/>
     </g>
    </g>
   </g>
   <g id="matplotlib.axis_2">
    <g id="ytick_1">
     <g id="line2d_33">
      <defs>
       <path d="
M0 0
L4 0" id="md7965d1ba0" style="stroke:#000000;stroke-width:0.5;"/>
      </defs>
      <g>
       <use style="stroke:#000000;stroke-width:0.5;" x="36.840625" xlink:href="#md7965d1ba0" y="244.518125"/>
      </g>
     </g>
     <g id="line2d_34">
      <defs>
       <path d="
M0 0
L-4 0" id="md9a1c1a7cd" style="stroke:#000000;stroke-width:0.5;"/>
      </defs>
      <g>
       <use style="stroke:#000000;stroke-width:0.5;" x="371.640625" xlink:href="#md9a1c1a7cd" y="244.518125"/>
      </g>
     </g>
     <g id="text_10">
      <!-- 0 -->
      <g transform="translate(27.8015625 247.2775)scale(0.1 -0.1)">
       <use xlink:href="#BitstreamVeraSans-Roman-30"/>
      </g>
     </g>
    </g>
    <g id="ytick_2">
     <g id="line2d_35">
      <g>
       <use style="stroke:#000000;stroke-width:0.5;" x="36.840625" xlink:href="#md7965d1ba0" y="199.878125"/>
      </g>
     </g>
     <g id="line2d_36">
      <g>
       <use style="stroke:#000000;stroke-width:0.5;" x="371.640625" xlink:href="#md9a1c1a7cd" y="199.878125"/>
      </g>
     </g>
     <g id="text_11">
      <!-- 2 -->
      <g transform="translate(28.2125 202.6375)scale(0.1 -0.1)">
       <use xlink:href="#BitstreamVeraSans-Roman-32"/>
      </g>
     </g>
    </g>
    <g id="ytick_3">
     <g id="line2d_37">
      <g>
       <use style="stroke:#000000;stroke-width:0.5;" x="36.840625" xlink:href="#md7965d1ba0" y="155.238125"/>
      </g>
     </g>
     <g id="line2d_38">
      <g>
       <use style="stroke:#000000;stroke-width:0.5;" x="371.640625" xlink:href="#md9a1c1a7cd" y="155.238125"/>
      </g>
     </g>
     <g id="text_12">
      <!-- 4 -->
      <defs>
       <path d="
M37.7969 64.3125
L12.8906 25.3906
L37.7969 25.3906
z

M35.2031 72.9062
L47.6094 72.9062
L47.6094 25.3906
L58.0156 25.3906
L58.0156 17.1875
L47.6094 17.1875
L47.6094 0
L37.7969 0
L37.7969 17.1875
L4.89062 17.1875
L4.89062 26.7031
z
" id="BitstreamVeraSans-Roman-34"/>
      </defs>
      <g transform="translate(27.528125 157.9975)scale(0.1 -0.1)">
       <use xlink:href="#BitstreamVeraSans-Roman-34"/>
      </g>
     </g>
    </g>
    <g id="ytick_4">
     <g id="line2d_39">
      <g>
       <use style="stroke:#000000;stroke-width:0.5;" x="36.840625" xlink:href="#md7965d1ba0" y="110.598125"/>
      </g>
     </g>
     <g id="line2d_40">
      <g>
       <use style="stroke:#000000;stroke-width:0.5;" x="371.640625" xlink:href="#md9a1c1a7cd" y="110.598125"/>
      </g>
     </g>
     <g id="text_13">
      <!-- 6 -->
      <defs>
       <path d="
M33.0156 40.375
Q26.375 40.375 22.4844 35.8281
Q18.6094 31.2969 18.6094 23.3906
Q18.6094 15.5312 22.4844 10.9531
Q26.375 6.39062 33.0156 6.39062
Q39.6562 6.39062 43.5312 10.9531
Q47.4062 15.5312 47.4062 23.3906
Q47.4062 31.2969 43.5312 35.8281
Q39.6562 40.375 33.0156 40.375
M52.5938 71.2969
L52.5938 62.3125
Q48.875 64.0625 45.0938 64.9844
Q41.3125 65.9219 37.5938 65.9219
Q27.8281 65.9219 22.6719 59.3281
Q17.5312 52.7344 16.7969 39.4062
Q19.6719 43.6562 24.0156 45.9219
Q28.375 48.1875 33.5938 48.1875
Q44.5781 48.1875 50.9531 41.5156
Q57.3281 34.8594 57.3281 23.3906
Q57.3281 12.1562 50.6875 5.35938
Q44.0469 -1.42188 33.0156 -1.42188
Q20.3594 -1.42188 13.6719 8.26562
Q6.98438 17.9688 6.98438 36.375
Q6.98438 53.6562 15.1875 63.9375
Q23.3906 74.2188 37.2031 74.2188
Q40.9219 74.2188 44.7031 73.4844
Q48.4844 72.75 52.5938 71.2969" id="BitstreamVeraSans-Roman-36"/>
      </defs>
      <g transform="translate(27.80625 113.3575)scale(0.1 -0.1)">
       <use xlink:href="#BitstreamVeraSans-Roman-36"/>
      </g>
     </g>
    </g>
    <g id="ytick_5">
     <g id="line2d_41">
      <g>
       <use style="stroke:#000000;stroke-width:0.5;" x="36.840625" xlink:href="#md7965d1ba0" y="65.958125"/>
      </g>
     </g>
     <g id="line2d_42">
      <g>
       <use style="stroke:#000000;stroke-width:0.5;" x="371.640625" xlink:href="#md9a1c1a7cd" y="65.958125"/>
      </g>
     </g>
     <g id="text_14">
      <!-- 8 -->
      <defs>
       <path d="
M31.7812 34.625
Q24.75 34.625 20.7188 30.8594
Q16.7031 27.0938 16.7031 20.5156
Q16.7031 13.9219 20.7188 10.1562
Q24.75 6.39062 31.7812 6.39062
Q38.8125 6.39062 42.8594 10.1719
Q46.9219 13.9688 46.9219 20.5156
Q46.9219 27.0938 42.8906 30.8594
Q38.875 34.625 31.7812 34.625
M21.9219 38.8125
Q15.5781 40.375 12.0312 44.7188
Q8.5 49.0781 8.5 55.3281
Q8.5 64.0625 14.7188 69.1406
Q20.9531 74.2188 31.7812 74.2188
Q42.6719 74.2188 48.875 69.1406
Q55.0781 64.0625 55.0781 55.3281
Q55.0781 49.0781 51.5312 44.7188
Q48 40.375 41.7031 38.8125
Q48.8281 37.1562 52.7969 32.3125
Q56.7812 27.4844 56.7812 20.5156
Q56.7812 9.90625 50.3125 4.23438
Q43.8438 -1.42188 31.7812 -1.42188
Q19.7344 -1.42188 13.25 4.23438
Q6.78125 9.90625 6.78125 20.5156
Q6.78125 27.4844 10.7812 32.3125
Q14.7969 37.1562 21.9219 38.8125
M18.3125 54.3906
Q18.3125 48.7344 21.8438 45.5625
Q25.3906 42.3906 31.7812 42.3906
Q38.1406 42.3906 41.7188 45.5625
Q45.3125 48.7344 45.3125 54.3906
Q45.3125 60.0625 41.7188 63.2344
Q38.1406 66.4062 31.7812 66.4062
Q25.3906 66.4062 21.8438 63.2344
Q18.3125 60.0625 18.3125 54.3906" id="BitstreamVeraSans-Roman-38"/>
      </defs>
      <g transform="translate(27.840625 68.7175)scale(0.1 -0.1)">
       <use xlink:href="#BitstreamVeraSans-Roman-38"/>
      </g>
     </g>
    </g>
    <g id="ytick_6">
     <g id="line2d_43">
      <g>
       <use style="stroke:#000000;stroke-width:0.5;" x="36.840625" xlink:href="#md7965d1ba0" y="21.318125"/>
      </g>
     </g>
     <g id="line2d_44">
      <g>
       <use style="stroke:#000000;stroke-width:0.5;" x="371.640625" xlink:href="#md9a1c1a7cd" y="21.318125"/>
      </g>
     </g>
     <g id="text_15">
      <!-- 10 -->
      <g transform="translate(21.878125 24.0775)scale(0.1 -0.1)">
       <use xlink:href="#BitstreamVeraSans-Roman-31"/>
       <use x="63.623046875" xlink:href="#BitstreamVeraSans-Roman-30"/>
      </g>
     </g>
    </g>
    <g id="text_16">
     <!-- PET (mm/day) -->
     <defs>
      <path d="
M25.3906 72.9062
L33.6875 72.9062
L8.29688 -9.28125
L0 -9.28125
z
" id="BitstreamVeraSans-Roman-2f"/>
      <path d="
M31 75.875
Q24.4688 64.6562 21.2812 53.6562
Q18.1094 42.6719 18.1094 31.3906
Q18.1094 20.125 21.3125 9.0625
Q24.5156 -2 31 -13.1875
L23.1875 -13.1875
Q15.875 -1.70312 12.2344 9.375
Q8.59375 20.4531 8.59375 31.3906
Q8.59375 42.2812 12.2031 53.3125
Q15.8281 64.3594 23.1875 75.875
z
" id="BitstreamVeraSans-Roman-28"/>
      <path d="
M52 44.1875
Q55.375 50.25 60.0625 53.125
Q64.75 56 71.0938 56
Q79.6406 56 84.2812 50.0156
Q88.9219 44.0469 88.9219 33.0156
L88.9219 0
L79.8906 0
L79.8906 32.7188
Q79.8906 40.5781 77.0938 44.375
Q74.3125 48.1875 68.6094 48.1875
Q61.625 48.1875 57.5625 43.5469
Q53.5156 38.9219 53.5156 30.9062
L53.5156 0
L44.4844 0
L44.4844 32.7188
Q44.4844 40.625 41.7031 44.4062
Q38.9219 48.1875 33.1094 48.1875
Q26.2188 48.1875 22.1562 43.5312
Q18.1094 38.875 18.1094 30.9062
L18.1094 0
L9.07812 0
L9.07812 54.6875
L18.1094 54.6875
L18.1094 46.1875
Q21.1875 51.2188 25.4844 53.6094
Q29.7812 56 35.6875 56
Q41.6562 56 45.8281 52.9688
Q50 49.9531 52 44.1875" id="BitstreamVeraSans-Roman-6d"/>
      <path d="
M19.6719 64.7969
L19.6719 37.4062
L32.0781 37.4062
Q38.9688 37.4062 42.7188 40.9688
Q46.4844 44.5312 46.4844 51.125
Q46.4844 57.6719 42.7188 61.2344
Q38.9688 64.7969 32.0781 64.7969
z

M9.8125 72.9062
L32.0781 72.9062
Q44.3438 72.9062 50.6094 67.3594
Q56.8906 61.8125 56.8906 51.125
Q56.8906 40.3281 50.6094 34.8125
Q44.3438 29.2969 32.0781 29.2969
L19.6719 29.2969
L19.6719 0
L9.8125 0
z
" id="BitstreamVeraSans-Roman-50"/>
      <path d="
M8.01562 75.875
L15.8281 75.875
Q23.1406 64.3594 26.7812 53.3125
Q30.4219 42.2812 30.4219 31.3906
Q30.4219 20.4531 26.7812 9.375
Q23.1406 -1.70312 15.8281 -13.1875
L8.01562 -13.1875
Q14.5 -2 17.7031 9.0625
Q20.9062 20.125 20.9062 31.3906
Q20.9062 42.6719 17.7031 53.6562
Q14.5 64.6562 8.01562 75.875" id="BitstreamVeraSans-Roman-29"/>
      <path d="
M-0.296875 72.9062
L61.375 72.9062
L61.375 64.5938
L35.5 64.5938
L35.5 0
L25.5938 0
L25.5938 64.5938
L-0.296875 64.5938
z
" id="BitstreamVeraSans-Roman-54"/>
      <path d="
M9.8125 72.9062
L55.9062 72.9062
L55.9062 64.5938
L19.6719 64.5938
L19.6719 43.0156
L54.3906 43.0156
L54.3906 34.7188
L19.6719 34.7188
L19.6719 8.29688
L56.7812 8.29688
L56.7812 0
L9.8125 0
z
" id="BitstreamVeraSans-Roman-45"/>
     </defs>
     <g transform="translate(14.7984375 167.82984375)rotate(-90.0)scale(0.1 -0.1)">
      <use xlink:href="#BitstreamVeraSans-Roman-50"/>
      <use x="60.302734375" xlink:href="#BitstreamVeraSans-Roman-45"/>
      <use x="123.486328125" xlink:href="#BitstreamVeraSans-Roman-54"/>
      <use x="184.5703125" xlink:href="#BitstreamVeraSans-Roman-20"/>
      <use x="216.357421875" xlink:href="#BitstreamVeraSans-Roman-28"/>
      <use x="255.37109375" xlink:href="#BitstreamVeraSans-Roman-6d"/>
      <use x="352.783203125" xlink:href="#BitstreamVeraSans-Roman-6d"/>
      <use x="450.1953125" xlink:href="#BitstreamVeraSans-Roman-2f"/>
      <use x="483.88671875" xlink:href="#BitstreamVeraSans-Roman-64"/>
      <use x="547.36328125" xlink:href="#BitstreamVeraSans-Roman-61"/>
      <use x="608.642578125" xlink:href="#BitstreamVeraSans-Roman-79"/>
      <use x="667.822265625" xlink:href="#BitstreamVeraSans-Roman-29"/>
     </g>
    </g>
   </g>
   <g id="text_17">
    <!-- daily shrub PET at Treeline -->
    <defs>
     <path d="
M56.2031 29.5938
L56.2031 25.2031
L14.8906 25.2031
Q15.4844 15.9219 20.4844 11.0625
Q25.4844 6.20312 34.4219 6.20312
Q39.5938 6.20312 44.4531 7.46875
Q49.3125 8.73438 54.1094 11.2812
L54.1094 2.78125
Q49.2656 0.734375 44.1875 -0.34375
Q39.1094 -1.42188 33.8906 -1.42188
Q20.7969 -1.42188 13.1562 6.1875
Q5.51562 13.8125 5.51562 26.8125
Q5.51562 40.2344 12.7656 48.1094
Q20.0156 56 32.3281 56
Q43.3594 56 49.7812 48.8906
Q56.2031 41.7969 56.2031 29.5938
M47.2188 32.2344
Q47.125 39.5938 43.0938 43.9844
Q39.0625 48.3906 32.4219 48.3906
Q24.9062 48.3906 20.3906 44.1406
Q15.875 39.8906 15.1875 32.1719
z
" id="BitstreamVeraSans-Roman-65"/>
     <path d="
M18.3125 70.2188
L18.3125 54.6875
L36.8125 54.6875
L36.8125 47.7031
L18.3125 47.7031
L18.3125 18.0156
Q18.3125 11.3281 20.1406 9.42188
Q21.9688 7.51562 27.5938 7.51562
L36.8125 7.51562
L36.8125 0
L27.5938 0
Q17.1875 0 13.2344 3.875
Q9.28125 7.76562 9.28125 18.0156
L9.28125 47.7031
L2.6875 47.7031
L2.6875 54.6875
L9.28125 54.6875
L9.28125 70.2188
z
" id="BitstreamVeraSans-Roman-74"/>
     <path d="
M44.2812 53.0781
L44.2812 44.5781
Q40.4844 46.5312 36.375 47.5
Q32.2812 48.4844 27.875 48.4844
Q21.1875 48.4844 17.8438 46.4375
Q14.5 44.3906 14.5 40.2812
Q14.5 37.1562 16.8906 35.375
Q19.2812 33.5938 26.5156 31.9844
L29.5938 31.2969
Q39.1562 29.25 43.1875 25.5156
Q47.2188 21.7812 47.2188 15.0938
Q47.2188 7.46875 41.1875 3.01562
Q35.1562 -1.42188 24.6094 -1.42188
Q20.2188 -1.42188 15.4531 -0.5625
Q10.6875 0.296875 5.42188 2
L5.42188 11.2812
Q10.4062 8.6875 15.2344 7.39062
Q20.0625 6.10938 24.8125 6.10938
Q31.1562 6.10938 34.5625 8.28125
Q37.9844 10.4531 37.9844 14.4062
Q37.9844 18.0625 35.5156 20.0156
Q33.0625 21.9688 24.7031 23.7812
L21.5781 24.5156
Q13.2344 26.2656 9.51562 29.9062
Q5.8125 33.5469 5.8125 39.8906
Q5.8125 47.6094 11.2812 51.7969
Q16.75 56 26.8125 56
Q31.7812 56 36.1719 55.2656
Q40.5781 54.5469 44.2812 53.0781" id="BitstreamVeraSans-Roman-73"/>
     <path d="
M54.8906 33.0156
L54.8906 0
L45.9062 0
L45.9062 32.7188
Q45.9062 40.4844 42.875 44.3281
Q39.8438 48.1875 33.7969 48.1875
Q26.5156 48.1875 22.3125 43.5469
Q18.1094 38.9219 18.1094 30.9062
L18.1094 0
L9.07812 0
L9.07812 75.9844
L18.1094 75.9844
L18.1094 46.1875
Q21.3438 51.125 25.7031 53.5625
Q30.0781 56 35.7969 56
Q45.2188 56 50.0469 50.1719
Q54.8906 44.3438 54.8906 33.0156" id="BitstreamVeraSans-Roman-68"/>
     <path d="
M48.6875 27.2969
Q48.6875 37.2031 44.6094 42.8438
Q40.5312 48.4844 33.4062 48.4844
Q26.2656 48.4844 22.1875 42.8438
Q18.1094 37.2031 18.1094 27.2969
Q18.1094 17.3906 22.1875 11.75
Q26.2656 6.10938 33.4062 6.10938
Q40.5312 6.10938 44.6094 11.75
Q48.6875 17.3906 48.6875 27.2969
M18.1094 46.3906
Q20.9531 51.2656 25.2656 53.625
Q29.5938 56 35.5938 56
Q45.5625 56 51.7812 48.0938
Q58.0156 40.1875 58.0156 27.2969
Q58.0156 14.4062 51.7812 6.48438
Q45.5625 -1.42188 35.5938 -1.42188
Q29.5938 -1.42188 25.2656 0.953125
Q20.9531 3.32812 18.1094 8.20312
L18.1094 0
L9.07812 0
L9.07812 75.9844
L18.1094 75.9844
z
" id="BitstreamVeraSans-Roman-62"/>
     <path d="
M41.1094 46.2969
Q39.5938 47.1719 37.8125 47.5781
Q36.0312 48 33.8906 48
Q26.2656 48 22.1875 43.0469
Q18.1094 38.0938 18.1094 28.8125
L18.1094 0
L9.07812 0
L9.07812 54.6875
L18.1094 54.6875
L18.1094 46.1875
Q20.9531 51.1719 25.4844 53.5781
Q30.0312 56 36.5312 56
Q37.4531 56 38.5781 55.875
Q39.7031 55.7656 41.0625 55.5156
z
" id="BitstreamVeraSans-Roman-72"/>
    </defs>
    <g transform="translate(125.1296875 16.318125)scale(0.12 -0.12)">
     <use xlink:href="#BitstreamVeraSans-Roman-64"/>
     <use x="63.4765625" xlink:href="#BitstreamVeraSans-Roman-61"/>
     <use x="124.755859375" xlink:href="#BitstreamVeraSans-Roman-69"/>
     <use x="152.5390625" xlink:href="#BitstreamVeraSans-Roman-6c"/>
     <use x="180.322265625" xlink:href="#BitstreamVeraSans-Roman-79"/>
     <use x="239.501953125" xlink:href="#BitstreamVeraSans-Roman-20"/>
     <use x="271.2890625" xlink:href="#BitstreamVeraSans-Roman-73"/>
     <use x="323.388671875" xlink:href="#BitstreamVeraSans-Roman-68"/>
     <use x="386.767578125" xlink:href="#BitstreamVeraSans-Roman-72"/>
     <use x="427.880859375" xlink:href="#BitstreamVeraSans-Roman-75"/>
     <use x="491.259765625" xlink:href="#BitstreamVeraSans-Roman-62"/>
     <use x="554.736328125" xlink:href="#BitstreamVeraSans-Roman-20"/>
     <use x="586.5234375" xlink:href="#BitstreamVeraSans-Roman-50"/>
     <use x="646.826171875" xlink:href="#BitstreamVeraSans-Roman-45"/>
     <use x="710.009765625" xlink:href="#BitstreamVeraSans-Roman-54"/>
     <use x="771.09375" xlink:href="#BitstreamVeraSans-Roman-20"/>
     <use x="802.880859375" xlink:href="#BitstreamVeraSans-Roman-61"/>
     <use x="864.16015625" xlink:href="#BitstreamVeraSans-Roman-74"/>
     <use x="903.369140625" xlink:href="#BitstreamVeraSans-Roman-20"/>
     <use x="935.15625" xlink:href="#BitstreamVeraSans-Roman-54"/>
     <use x="981.490234375" xlink:href="#BitstreamVeraSans-Roman-72"/>
     <use x="1020.353515625" xlink:href="#BitstreamVeraSans-Roman-65"/>
     <use x="1081.876953125" xlink:href="#BitstreamVeraSans-Roman-65"/>
     <use x="1143.400390625" xlink:href="#BitstreamVeraSans-Roman-6c"/>
     <use x="1171.18359375" xlink:href="#BitstreamVeraSans-Roman-69"/>
     <use x="1198.966796875" xlink:href="#BitstreamVeraSans-Roman-6e"/>
     <use x="1262.345703125" xlink:href="#BitstreamVeraSans-Roman-65"/>
    </g>
   </g>
   <g id="legend_1">
    <g id="patch_7">
     <path d="
M293.453 312.738
L365.641 312.738
L365.641 27.3181
L293.453 27.3181
z
" style="fill:#ffffff;stroke:#000000;stroke-linejoin:miter;"/>
    </g>
    <g id="line2d_45">
     <path d="
M301.853 37.0363
L318.653 37.0363" style="fill:none;stroke:#0000ff;stroke-linecap:square;"/>
    </g>
    <g id="line2d_46"/>
    <g id="text_18">
     <!-- 1999 -->
     <defs>
      <path d="
M10.9844 1.51562
L10.9844 10.5
Q14.7031 8.73438 18.5 7.8125
Q22.3125 6.89062 25.9844 6.89062
Q35.75 6.89062 40.8906 13.4531
Q46.0469 20.0156 46.7812 33.4062
Q43.9531 29.2031 39.5938 26.9531
Q35.25 24.7031 29.9844 24.7031
Q19.0469 24.7031 12.6719 31.3125
Q6.29688 37.9375 6.29688 49.4219
Q6.29688 60.6406 12.9375 67.4219
Q19.5781 74.2188 30.6094 74.2188
Q43.2656 74.2188 49.9219 64.5156
Q56.5938 54.8281 56.5938 36.375
Q56.5938 19.1406 48.4062 8.85938
Q40.2344 -1.42188 26.4219 -1.42188
Q22.7031 -1.42188 18.8906 -0.6875
Q15.0938 0.046875 10.9844 1.51562
M30.6094 32.4219
Q37.25 32.4219 41.125 36.9531
Q45.0156 41.5 45.0156 49.4219
Q45.0156 57.2812 41.125 61.8438
Q37.25 66.4062 30.6094 66.4062
Q23.9688 66.4062 20.0938 61.8438
Q16.2188 57.2812 16.2188 49.4219
Q16.2188 41.5 20.0938 36.9531
Q23.9688 32.4219 30.6094 32.4219" id="BitstreamVeraSans-Roman-39"/>
     </defs>
     <g transform="translate(331.853125 41.23625)scale(0.12 -0.12)">
      <use xlink:href="#BitstreamVeraSans-Roman-31"/>
      <use x="63.623046875" xlink:href="#BitstreamVeraSans-Roman-39"/>
      <use x="127.24609375" xlink:href="#BitstreamVeraSans-Roman-39"/>
      <use x="190.869140625" xlink:href="#BitstreamVeraSans-Roman-39"/>
     </g>
    </g>
    <g id="line2d_47">
     <path d="
M301.853 54.65
L318.653 54.65" style="fill:none;stroke:#008000;stroke-linecap:square;"/>
    </g>
    <g id="line2d_48"/>
    <g id="text_19">
     <!-- 2000 -->
     <g transform="translate(331.853125 58.85)scale(0.12 -0.12)">
      <use xlink:href="#BitstreamVeraSans-Roman-32"/>
      <use x="63.623046875" xlink:href="#BitstreamVeraSans-Roman-30"/>
      <use x="127.24609375" xlink:href="#BitstreamVeraSans-Roman-30"/>
      <use x="190.869140625" xlink:href="#BitstreamVeraSans-Roman-30"/>
     </g>
    </g>
    <g id="line2d_49">
     <path d="
M301.853 72.2638
L318.653 72.2638" style="fill:none;stroke:#ff0000;stroke-linecap:square;"/>
    </g>
    <g id="line2d_50"/>
    <g id="text_20">
     <!-- 2001 -->
     <g transform="translate(331.853125 76.46375)scale(0.12 -0.12)">
      <use xlink:href="#BitstreamVeraSans-Roman-32"/>
      <use x="63.623046875" xlink:href="#BitstreamVeraSans-Roman-30"/>
      <use x="127.24609375" xlink:href="#BitstreamVeraSans-Roman-30"/>
      <use x="190.869140625" xlink:href="#BitstreamVeraSans-Roman-31"/>
     </g>
    </g>
    <g id="line2d_51">
     <path d="
M301.853 89.8775
L318.653 89.8775" style="fill:none;stroke:#00bfbf;stroke-linecap:square;"/>
    </g>
    <g id="line2d_52"/>
    <g id="text_21">
     <!-- 2002 -->
     <g transform="translate(331.853125 94.0775)scale(0.12 -0.12)">
      <use xlink:href="#BitstreamVeraSans-Roman-32"/>
      <use x="63.623046875" xlink:href="#BitstreamVeraSans-Roman-30"/>
      <use x="127.24609375" xlink:href="#BitstreamVeraSans-Roman-30"/>
      <use x="190.869140625" xlink:href="#BitstreamVeraSans-Roman-32"/>
     </g>
    </g>
    <g id="line2d_53">
     <path d="
M301.853 107.491
L318.653 107.491" style="fill:none;stroke:#bf00bf;stroke-linecap:square;"/>
    </g>
    <g id="line2d_54"/>
    <g id="text_22">
     <!-- 2003 -->
     <g transform="translate(331.853125 111.69125)scale(0.12 -0.12)">
      <use xlink:href="#BitstreamVeraSans-Roman-32"/>
      <use x="63.623046875" xlink:href="#BitstreamVeraSans-Roman-30"/>
      <use x="127.24609375" xlink:href="#BitstreamVeraSans-Roman-30"/>
      <use x="190.869140625" xlink:href="#BitstreamVeraSans-Roman-33"/>
     </g>
    </g>
    <g id="line2d_55">
     <path d="
M301.853 125.105
L318.653 125.105" style="fill:none;stroke:#bfbf00;stroke-linecap:square;"/>
    </g>
    <g id="line2d_56"/>
    <g id="text_23">
     <!-- 2004 -->
     <g transform="translate(331.853125 129.305)scale(0.12 -0.12)">
      <use xlink:href="#BitstreamVeraSans-Roman-32"/>
      <use x="63.623046875" xlink:href="#BitstreamVeraSans-Roman-30"/>
      <use x="127.24609375" xlink:href="#BitstreamVeraSans-Roman-30"/>
      <use x="190.869140625" xlink:href="#BitstreamVeraSans-Roman-34"/>
     </g>
    </g>
    <g id="line2d_57">
     <path d="
M301.853 142.719
L318.653 142.719" style="fill:none;stroke:#000000;stroke-linecap:square;"/>
    </g>
    <g id="line2d_58"/>
    <g id="text_24">
     <!-- 2005 -->
     <g transform="translate(331.853125 146.91875)scale(0.12 -0.12)">
      <use xlink:href="#BitstreamVeraSans-Roman-32"/>
      <use x="63.623046875" xlink:href="#BitstreamVeraSans-Roman-30"/>
      <use x="127.24609375" xlink:href="#BitstreamVeraSans-Roman-30"/>
      <use x="190.869140625" xlink:href="#BitstreamVeraSans-Roman-35"/>
     </g>
    </g>
    <g id="line2d_59">
     <path d="
M301.853 160.333
L318.653 160.333" style="fill:none;stroke:#0000ff;stroke-linecap:square;"/>
    </g>
    <g id="line2d_60"/>
    <g id="text_25">
     <!-- 2006 -->
     <g transform="translate(331.853125 164.5325)scale(0.12 -0.12)">
      <use xlink:href="#BitstreamVeraSans-Roman-32"/>
      <use x="63.623046875" xlink:href="#BitstreamVeraSans-Roman-30"/>
      <use x="127.24609375" xlink:href="#BitstreamVeraSans-Roman-30"/>
      <use x="190.869140625" xlink:href="#BitstreamVeraSans-Roman-36"/>
     </g>
    </g>
    <g id="line2d_61">
     <path d="
M301.853 177.946
L318.653 177.946" style="fill:none;stroke:#008000;stroke-linecap:square;"/>
    </g>
    <g id="line2d_62"/>
    <g id="text_26">
     <!-- 2007 -->
     <defs>
      <path d="
M8.20312 72.9062
L55.0781 72.9062
L55.0781 68.7031
L28.6094 0
L18.3125 0
L43.2188 64.5938
L8.20312 64.5938
z
" id="BitstreamVeraSans-Roman-37"/>
     </defs>
     <g transform="translate(331.853125 182.14625)scale(0.12 -0.12)">
      <use xlink:href="#BitstreamVeraSans-Roman-32"/>
      <use x="63.623046875" xlink:href="#BitstreamVeraSans-Roman-30"/>
      <use x="127.24609375" xlink:href="#BitstreamVeraSans-Roman-30"/>
      <use x="190.869140625" xlink:href="#BitstreamVeraSans-Roman-37"/>
     </g>
    </g>
    <g id="line2d_63">
     <path d="
M301.853 195.56
L318.653 195.56" style="fill:none;stroke:#ff0000;stroke-linecap:square;"/>
    </g>
    <g id="line2d_64"/>
    <g id="text_27">
     <!-- 2008 -->
     <g transform="translate(331.853125 199.76)scale(0.12 -0.12)">
      <use xlink:href="#BitstreamVeraSans-Roman-32"/>
      <use x="63.623046875" xlink:href="#BitstreamVeraSans-Roman-30"/>
      <use x="127.24609375" xlink:href="#BitstreamVeraSans-Roman-30"/>
      <use x="190.869140625" xlink:href="#BitstreamVeraSans-Roman-38"/>
     </g>
    </g>
    <g id="line2d_65">
     <path d="
M301.853 213.174
L318.653 213.174" style="fill:none;stroke:#00bfbf;stroke-linecap:square;"/>
    </g>
    <g id="line2d_66"/>
    <g id="text_28">
     <!-- 2009 -->
     <g transform="translate(331.853125 217.37375)scale(0.12 -0.12)">
      <use xlink:href="#BitstreamVeraSans-Roman-32"/>
      <use x="63.623046875" xlink:href="#BitstreamVeraSans-Roman-30"/>
      <use x="127.24609375" xlink:href="#BitstreamVeraSans-Roman-30"/>
      <use x="190.869140625" xlink:href="#BitstreamVeraSans-Roman-39"/>
     </g>
    </g>
    <g id="line2d_67">
     <path d="
M301.853 230.788
L318.653 230.788" style="fill:none;stroke:#bf00bf;stroke-linecap:square;"/>
    </g>
    <g id="line2d_68"/>
    <g id="text_29">
     <!-- 2010 -->
     <g transform="translate(331.853125 234.9875)scale(0.12 -0.12)">
      <use xlink:href="#BitstreamVeraSans-Roman-32"/>
      <use x="63.623046875" xlink:href="#BitstreamVeraSans-Roman-30"/>
      <use x="127.24609375" xlink:href="#BitstreamVeraSans-Roman-31"/>
      <use x="190.869140625" xlink:href="#BitstreamVeraSans-Roman-30"/>
     </g>
    </g>
    <g id="line2d_69">
     <path d="
M301.853 248.401
L318.653 248.401" style="fill:none;stroke:#bfbf00;stroke-linecap:square;"/>
    </g>
    <g id="line2d_70"/>
    <g id="text_30">
     <!-- 2011 -->
     <g transform="translate(331.853125 252.60125)scale(0.12 -0.12)">
      <use xlink:href="#BitstreamVeraSans-Roman-32"/>
      <use x="63.623046875" xlink:href="#BitstreamVeraSans-Roman-30"/>
      <use x="127.24609375" xlink:href="#BitstreamVeraSans-Roman-31"/>
      <use x="190.869140625" xlink:href="#BitstreamVeraSans-Roman-31"/>
     </g>
    </g>
    <g id="line2d_71">
     <path d="
M301.853 266.015
L318.653 266.015" style="fill:none;stroke:#000000;stroke-linecap:square;"/>
    </g>
    <g id="line2d_72"/>
    <g id="text_31">
     <!-- 2012 -->
     <g transform="translate(331.853125 270.215)scale(0.12 -0.12)">
      <use xlink:href="#BitstreamVeraSans-Roman-32"/>
      <use x="63.623046875" xlink:href="#BitstreamVeraSans-Roman-30"/>
      <use x="127.24609375" xlink:href="#BitstreamVeraSans-Roman-31"/>
      <use x="190.869140625" xlink:href="#BitstreamVeraSans-Roman-32"/>
     </g>
    </g>
    <g id="line2d_73">
     <path d="
M301.853 283.629
L318.653 283.629" style="fill:none;stroke:#0000ff;stroke-linecap:square;"/>
    </g>
    <g id="line2d_74"/>
    <g id="text_32">
     <!-- 2013 -->
     <g transform="translate(331.853125 287.82875)scale(0.12 -0.12)">
      <use xlink:href="#BitstreamVeraSans-Roman-32"/>
      <use x="63.623046875" xlink:href="#BitstreamVeraSans-Roman-30"/>
      <use x="127.24609375" xlink:href="#BitstreamVeraSans-Roman-31"/>
      <use x="190.869140625" xlink:href="#BitstreamVeraSans-Roman-33"/>
     </g>
    </g>
    <g id="line2d_75">
     <path d="
M301.853 301.243
L318.653 301.243" style="fill:none;stroke:#008000;stroke-linecap:square;"/>
    </g>
    <g id="line2d_76"/>
    <g id="text_33">
     <!-- 2014 -->
     <g transform="translate(331.853125 305.4425)scale(0.12 -0.12)">
      <use xlink:href="#BitstreamVeraSans-Roman-32"/>
      <use x="63.623046875" xlink:href="#BitstreamVeraSans-Roman-30"/>
      <use x="127.24609375" xlink:href="#BitstreamVeraSans-Roman-31"/>
      <use x="190.869140625" xlink:href="#BitstreamVeraSans-Roman-34"/>
     </g>
    </g>
   </g>
  </g>
 </g>
 <defs>
  <clipPath id="pd0c402dd48">
   <rect height="223.2" width="334.8" x="36.840625" y="21.318125"/>
  </clipPath>
 </defs>
</svg>
