<?xml version="1.0" encoding="utf-8" standalone="no"?>
<!DOCTYPE svg PUBLIC "-//W3C//DTD SVG 1.1//EN"
  "http://www.w3.org/Graphics/SVG/1.1/DTD/svg11.dtd">
<!-- Created with matplotlib (http://matplotlib.org/) -->
<svg height="319pt" version="1.1" viewBox="0 0 382 319" width="382pt" xmlns="http://www.w3.org/2000/svg" xmlns:xlink="http://www.w3.org/1999/xlink">
 <defs>
  <style type="text/css">
*{stroke-linecap:butt;stroke-linejoin:round;}
  </style>
 </defs>
 <g id="figure_1">
  <g id="patch_1">
   <path d="
M0 319.938
L382.628 319.938
L382.628 0
L0 0
z
" style="fill:#ffffff;"/>
  </g>
  <g id="axes_1">
   <g id="patch_2">
    <path d="
M40.6281 244.518
L375.428 244.518
L375.428 21.3181
L40.6281 21.3181
z
" style="fill:#ffffff;"/>
   </g>
   <g id="line2d_1">
    <path clip-path="url(#p705cba3da1)" d="
M0 0" style="fill:none;stroke:#0000ff;stroke-linecap:square;"/>
   </g>
   <g id="line2d_2">
    <path clip-path="url(#p705cba3da1)" d="
M0 0" style="fill:none;stroke:#008000;stroke-linecap:square;"/>
   </g>
   <g id="line2d_3">
    <path clip-path="url(#p705cba3da1)" d="
M0 0" style="fill:none;stroke:#ff0000;stroke-linecap:square;"/>
   </g>
   <g id="line2d_4">
    <path clip-path="url(#p705cba3da1)" d="
M0 0" style="fill:none;stroke:#00bfbf;stroke-linecap:square;"/>
   </g>
   <g id="line2d_5">
    <path clip-path="url(#p705cba3da1)" d="
M0 0" style="fill:none;stroke:#bf00bf;stroke-linecap:square;"/>
   </g>
   <g id="line2d_6">
    <path clip-path="url(#p705cba3da1)" d="
M0 0" style="fill:none;stroke:#bfbf00;stroke-linecap:square;"/>
   </g>
   <g id="line2d_7">
    <path clip-path="url(#p705cba3da1)" d="
M0 0" style="fill:none;stroke:#000000;stroke-linecap:square;"/>
   </g>
   <g id="line2d_8">
    <path clip-path="url(#p705cba3da1)" d="
M0 0" style="fill:none;stroke:#0000ff;stroke-linecap:square;"/>
   </g>
   <g id="line2d_9">
    <path clip-path="url(#p705cba3da1)" d="
M0 0" style="fill:none;stroke:#008000;stroke-linecap:square;"/>
   </g>
   <g id="line2d_10">
    <path clip-path="url(#p705cba3da1)" d="
M40.6281 135.552
L41.5454 104.75
L42.4626 121.428
L43.3799 196.29
L44.2972 213.977
L45.2144 218.884
L46.1317 224.528
L47.0489 222.741
L47.9662 204.135
L48.8835 219.417
M50.718 217.612
L51.6352 217.55
L52.5525 197.803
L53.4698 192.106
L54.387 166.404
L55.3043 183.878
L56.2215 189.543
L57.1388 181.186
L58.0561 231.352
L58.9733 231.979
L59.8906 193.742
L60.8079 166.3
L61.7251 176.595
L62.6424 204.633
L63.5596 196.457
L64.4769 196.663
L65.3942 218.906
L66.3114 225.524
M68.1459 241.146
L69.0632 226.992
L69.9805 218.359
L70.8977 244.316
L71.815 209.414
L72.7322 203.41
L73.6495 211.131
L74.5668 236.111
L75.484 190.383
L76.4013 210.676
L77.3185 180.882
L78.2358 186.711
L79.1531 183.494
L80.0703 202.104
L80.9876 160.93
L81.9048 163.48
L82.8221 174.035
L83.7394 144.58
L84.6566 160.687
L85.5739 170.572
L86.4911 184.842
L87.4084 202.077
L88.3257 224.832
L89.2429 203.374
L90.1602 209.852
L91.0774 232.487
L91.9947 182.042
L92.912 187.372
L93.8292 176.98
L94.7465 164.549
L95.6637 202.441
L96.581 200.556
L97.4983 168.18
L98.4155 180.367
L99.3328 161.682
L100.25 133.176
L101.167 146.372
L102.085 187.612
L103.002 165.775
L103.919 154.689
L104.836 138.778
L105.754 109.759
L106.671 201.465
L107.588 214.992
L108.505 184.511
L109.423 186.949
L110.34 166.186
L111.257 233.96
L112.174 219.343
L113.092 179.102
L114.009 128.319
L114.926 110.396
L115.843 129.536
L116.761 193.288
L117.678 194.196
L118.595 223.062
L119.513 150.84
L120.43 197.261
L121.347 168.636
L122.264 165.662
L123.182 170.171
L124.099 108.668
L125.016 105.265
L125.933 105.444
L126.851 164.124
L127.768 146.797
L128.685 173.485
L129.602 191.871
L130.52 137.986
L131.437 161.01
L132.354 177.195
L133.271 124.129
L134.189 125.682
L135.106 135.262
L136.023 167.368
L136.94 156.058
L137.858 136.447
L138.775 105.948
L139.692 108.125
L140.609 129.282
L141.527 135.627
L142.444 129.333
L143.361 99.1774
L144.279 169.317
L145.196 168.26
L146.113 89.5575
L147.03 51.413
L147.948 70.6011
L148.865 79.8251
L149.782 166.323
L150.699 86.6754
L151.617 86.8535
L152.534 60.2273
L153.451 69.8763
L154.368 81.019
L155.286 86.7576
L156.203 108.767
L157.12 139.393
L158.037 87.8412
L158.955 68.1171
L159.872 70.2225
L160.789 92.9903
L161.706 84.5986
L162.624 104.73
L163.541 166.309
L164.458 123.671
L165.376 109.549
L166.293 108.114
L167.21 121.766
L168.127 110.146
L169.045 177.775
L169.962 153.841
L170.879 152.219
L171.796 177.053
L172.714 122.919
L173.631 154.53
L174.548 178.951
L175.465 176.534
L176.383 146.806
L177.3 150.459
L178.217 139.634
L179.134 137.552
L180.052 176.955
L180.969 102.661
L181.886 186.7
L182.803 154.699
L183.721 108.826
L184.638 99.5834
L185.555 134.414
L186.473 73.2123
L187.39 129.239
L188.307 145.89
L189.224 156.243
L190.142 101.445
L191.059 86.9517
L191.976 87.0389
L192.893 95.3185
L193.811 101.365
L194.728 100.589
L195.645 93.8975
L196.562 92.9015
L197.48 111.514
L198.397 148.119
L199.314 122.32
L200.231 106.007
L201.149 111.159
L202.066 96.4344
L202.983 106.681
L203.9 111.339
L204.818 119.242
L205.735 125.146
L206.652 139.201
L207.569 145.618
L208.487 117.024
L209.404 126.755
L210.321 132.517
L211.239 124.117
L212.156 111.908
L213.073 114.245
L213.99 114.247
L214.908 115.477
L215.825 108.055
L216.742 89.2801
L217.659 100.217
L218.577 109.269
L219.494 112.841
L220.411 115.609
L221.328 122.029
L222.246 117.603
L223.163 106.178
L224.08 106.62
L224.997 119.828
L225.915 140.505
L226.832 166.81
L227.749 123.306
L228.666 118.417
L229.584 122.091
L230.501 120.307
L231.418 120.085
L232.336 120.593
L233.253 141.098
L234.17 112.459
L235.087 113.269
L236.005 125.639
L236.922 119.082
L237.839 118.69
L238.756 120.556
L239.674 140.696
L240.591 150.559
L241.508 144.292
L242.425 157.35
L243.343 129.108
L244.26 110.498
L246.094 123.223
L247.012 124.444
L247.929 128.86
L248.846 128.863
L249.763 124.235
L250.681 129.947
L251.598 144.742
L252.515 146.001
L253.433 131.321
L254.35 141.564
L255.267 108.971
L256.184 118.51
L257.102 131.238
L258.019 138.666
L259.853 106.804
L260.771 124.032
L261.688 131.42
L262.605 133.226
L263.522 126.996
L264.44 137.363
L265.357 116.822
L266.274 102.538
L267.191 104.187
L268.109 117.279
L269.026 128.726
L269.943 124.604
L270.86 119.781
L271.778 125.134
L272.695 109.325
L273.612 116.222
L274.529 113.968
L275.447 123.517
L276.364 125.555
L277.281 124.177
L278.199 128.008
L279.116 130.086
L280.033 134.763
L280.95 159.525
L281.868 194.243
L282.785 207.831
L283.702 156.586
L284.619 125.122
L285.537 116.903
L286.454 126.396
L287.371 122.001
L288.288 130.854
L289.206 125.518
L290.123 129.437
L291.04 140.489
L291.957 139.339
L292.875 164.563
L293.792 167.993
L294.709 224.379
L295.626 194.902
L296.544 153.309
L297.461 150.288
L298.378 113.954
L299.296 121.227
L300.213 222.093
L301.13 195.475
L302.047 143.802
L302.965 122.605
L303.882 141.559
L304.799 137.687
L305.716 135.573
L306.634 150.347
L307.551 142.701
L308.468 151.851
L309.385 143.678
L310.303 151.07
L311.22 98.3998
L313.054 117.92
L313.972 137.979
L314.889 133.322
L315.806 120.702
L316.723 133.724
L317.641 134.78
L318.558 139.869
L319.475 168.719
L320.393 203.725
L321.31 226.408
L322.227 230.072
L323.144 230.957
L324.062 196.59
L324.979 207.563
L325.896 197.671
L326.813 194.177
L327.731 228.768
L328.648 218.352
L329.565 234.772
L330.482 206.714
L331.4 187.678
L332.317 139.06
L333.234 139.188
L334.151 147.558
L335.069 135.407
L335.986 142.232
L336.903 159.706
L337.82 185.911
L338.738 155.802
L339.655 185.434
L340.572 202.313
L341.489 143.975
L342.407 149.79
L343.324 171.512
L344.241 162.12
L345.159 184.341
L346.076 222.245
L346.993 209.814
L347.91 173.044
L348.828 212.695
L349.745 230.629
L350.662 160.072
L351.579 143.667
L352.497 142.995
L353.414 182.811
L354.331 212.764
L355.248 165.301
L356.166 147.779
L357.083 182.271
L358.917 240.172
L359.835 238.05
L360.752 210.236
L361.669 207.648
L362.586 197.647
L363.504 181.863
L364.421 227.512
L365.338 195.954
L366.256 221.685
L367.173 235.031
L369.007 214.301
M370.842 217.961
L371.759 238.152
L372.676 237.261
L373.594 204.457
L374.511 154.956
L374.511 154.956" style="fill:none;stroke:#ff0000;stroke-linecap:square;"/>
   </g>
   <g id="line2d_11">
    <path clip-path="url(#p705cba3da1)" d="
M0 0" style="fill:none;stroke:#00bfbf;stroke-linecap:square;"/>
   </g>
   <g id="line2d_12">
    <path clip-path="url(#p705cba3da1)" d="
M40.6281 238.138
L42.4626 212.13
L43.3799 191.707
L44.2972 214.598
L45.2144 206.346
L46.1317 223.226
L47.0489 160.876
L47.9662 176.679
L48.8835 195.037
L49.8007 169.597
L50.718 188.66
L51.6352 230.544
L52.5525 211.197
L53.4698 145.155
L54.387 192.257
L55.3043 184.438
L56.2215 214.966
L57.1388 216.615
L58.0561 201.244
L58.9733 190.259
L59.8906 200.958
M61.7251 211.63
L62.6424 225.623
L63.5596 235.982
M65.3942 229.428
L66.3114 220.466
L67.2287 206.764
M69.0632 219.64
L69.9805 192.66
L70.8977 211.711
L71.815 221.317
L72.7322 226.927
L73.6495 212.042
L74.5668 237.506
L75.484 236.293
L76.4013 216.637
L77.3185 184.09
L78.2358 219.93
L79.1531 212.895
L80.0703 230.745
L80.9876 201.308
M82.8221 241.411
L83.7394 240.033
L84.6566 230.807
L85.5739 204.869
L86.4911 196.149
L87.4084 202.168
L88.3257 120.741
L89.2429 134.452
L90.1602 215.824
L91.0774 216.712
L91.9947 167.533
L92.912 197.311
L93.8292 207.887
L94.7465 169.87
L95.6637 160.493
L96.581 207.371
L97.4983 197.447
L98.4155 198.244
L99.3328 173.533
L100.25 152.398
L101.167 213.646
L102.085 169.992
L103.002 134.781
L103.919 144.129
L104.836 165.327
L105.754 222.692
L106.671 177.231
L107.588 118.313
L108.505 129.678
L109.423 127.317
L110.34 137.56
L111.257 92.3242
L112.174 111.094
L113.092 168.494
L114.009 183.97
L114.926 123.908
L115.843 115.04
L116.761 196.455
L117.678 203.791
L118.595 144.171
L119.513 120.787
L121.347 235.104
L122.264 182.814
L123.182 226.696
L124.099 221.173
L125.016 190.115
L125.933 192.773
L126.851 213.097
L127.768 160.994
L128.685 133.401
L129.602 165.467
L130.52 96.6964
L131.437 120.592
L132.354 131.359
L133.271 201.406
L134.189 182.646
L135.106 113.464
L136.023 86.5119
L136.94 123.693
L137.858 117.416
L138.775 90.8566
L139.692 92.4096
L140.609 162.161
L141.527 206.228
L142.444 182.998
L143.361 85.8577
L144.279 79.3106
L145.196 69.864
L146.113 97.5773
L147.03 200.308
L147.948 213.979
L148.865 182.862
L149.782 192.65
L150.699 172.955
L151.617 122.874
L152.534 167.849
L153.451 46.8057
L154.368 133.165
L155.286 130.223
L156.203 55.93
L157.12 77.1092
L158.037 71.1934
L158.955 175.916
L159.872 116.984
L160.789 84.4014
L161.706 89.0546
L162.624 75.8285
L163.541 82.0701
L164.458 104.021
L165.376 135.836
L166.293 219.831
L167.21 131.537
L168.127 99.6764
L169.045 143.964
M170.879 167.614
L171.796 146.102
L172.714 102.236
L173.631 179.252
L174.548 161.288
L175.465 174.683
L176.383 146.312
L177.3 105.999
L178.217 184.631
L179.134 170.126
L180.052 215.742
L180.969 159.756
L181.886 226.904
L182.803 139.151
L183.721 199.876
L184.638 118.331
L185.555 118.278
L186.473 157.594
L187.39 167.933
L188.307 132.444
L189.224 82.1709
L191.976 114.851
L192.893 101.71
L193.811 116.924
L194.728 82.2862
L195.645 111.962
L196.562 156.363
L197.48 163.426
L198.397 100.605
L199.314 103.058
L200.231 140.502
L201.149 158.673
L202.066 113.756
L202.983 103.939
L203.9 126.514
L204.818 157.621
L205.735 121.675
L206.652 110.492
L208.487 135.695
L209.404 100.338
L210.321 102.366
L211.239 100.823
L212.156 101.737
L213.073 107.481
L214.908 124.158
L215.825 117.805
L216.742 112.871
L217.659 80.0039
L219.494 100.608
L220.411 114.818
L221.328 109.543
L222.246 110.382
L223.163 97.6867
L224.08 100.534
L224.997 110.398
L225.915 109.087
L226.832 101.383
L227.749 110.436
L228.666 126.823
L229.584 178.213
L230.501 138.706
L231.418 140.115
L232.336 129.556
L233.253 139.843
L234.17 134.802
L235.087 116.419
L236.005 112.828
L236.922 118.538
L237.839 117.775
L238.756 129.607
L239.674 144.84
L240.591 118.411
L241.508 123.182
L243.343 157.616
L244.26 192.53
L245.177 151.206
L246.094 127.452
L247.012 126.494
L247.929 124.888
L248.846 122.368
L249.763 125.857
L250.681 127.477
L251.598 119.548
L252.515 114.129
L253.433 124.051
L254.35 114.993
L255.267 116.534
L256.184 111.395
L257.102 121.93
L258.019 153.9
L258.936 107.797
L259.853 123.244
L260.771 204.633
L261.688 151.427
L262.605 164.627
L263.522 157.083
L264.44 126.539
L265.357 120.732
L266.274 135.513
L267.191 109.593
L268.109 101.819
L269.026 102.383
L269.943 184.469
L270.86 228.499
L271.778 135.941
L272.695 115.168
L273.612 117.508
L274.529 126.395
L275.447 133.104
L276.364 125.082
L277.281 122.986
L278.199 139.106
L279.116 134.182
L280.033 148.395
L280.95 143.252
L281.868 127.329
L282.785 125.273
L283.702 121.595
L284.619 116.353
L285.537 127.597
L286.454 130.316
L287.371 127.368
L288.288 131.462
L289.206 136.759
L290.123 129.423
L291.04 136.593
L291.957 136.128
L292.875 177.291
L293.792 210.982
L294.709 186.397
L295.626 174.08
L296.544 145.434
L297.461 206.605
L298.378 179.932
L299.296 165.724
L300.213 176.172
L301.13 133.751
L302.047 124.643
L302.965 121.673
L303.882 140.266
L304.799 151.736
L305.716 143.903
L306.634 119.535
L307.551 108.376
L308.468 123.181
L309.385 125.886
L310.303 134.425
L311.22 205.712
L312.137 238.481
L313.054 202.736
L313.972 223.733
L314.889 170.593
L315.806 124.993
L317.641 149.998
L318.558 214.634
L319.475 165.553
L320.393 159.286
L321.31 164.555
L322.227 146.204
L323.144 156.204
L324.062 157.153
L324.979 211.271
L325.896 219.119
L326.813 181.999
L327.731 238.104
L328.648 218.576
L329.565 183.308
L330.482 187.369
L331.4 238.215
L332.317 210.577
L333.234 195.489
L334.151 160.69
L335.069 188.477
M336.903 241.765
L337.82 231.88
M340.572 162.193
L341.489 153.831
L342.407 165.257
L343.324 198.629
L344.241 220.061
L345.159 173.893
L346.076 182.366
M347.91 234.1
L348.828 207.491
L349.745 216.075
L350.662 234.205
L351.579 233.423
L352.497 214.328
L353.414 186.908
L354.331 213.387
L355.248 222.954
L356.166 226.394
L357.083 214.894
L358 210.087
L358.917 229.174
L359.835 218.839
L360.752 175.465
L361.669 169.445
L362.586 213.811
L363.504 236.149
L364.421 220.372
L365.338 182.603
L366.256 228.92
L367.173 227.269
L369.007 121.096
L369.925 211.089
L370.842 214.022
L371.759 223.38
M373.594 232.566
L374.511 213.384
L374.511 213.384" style="fill:none;stroke:#bf00bf;stroke-linecap:square;"/>
   </g>
   <g id="line2d_13">
    <path clip-path="url(#p705cba3da1)" d="
M40.6281 187.026
L41.5454 195.046
L42.4626 221.182
L43.3799 228.024
L44.2972 190.657
L45.2144 200.234
L46.1317 198.572
L47.0489 206.422
L48.8835 239.366
L49.8007 189.574
L50.718 207.283
L51.6352 243.77
L52.5525 229.707
L53.4698 228.319
L54.387 241.384
L55.3043 227.316
L56.2215 231.215
L57.1388 237.28
L58.0561 180.213
L58.9733 224.83
L59.8906 225.906
L60.8079 166.903
L61.7251 227.531
L62.6424 233.964
L63.5596 234.474
L64.4769 230.596
L65.3942 228.42
L66.3114 228.485
L67.2287 241.476
L68.1459 200.091
L69.0632 164.659
L69.9805 145.493
L70.8977 168.002
L71.815 211.758
L72.7322 205.097
L73.6495 201.85
L74.5668 203.612
L75.484 212.123
L77.3185 175.512
L78.2358 162.471
L79.1531 160.165
L80.0703 151.134
L80.9876 157.299
L81.9048 165.03
L82.8221 205.639
L83.7394 218.258
L84.6566 227.052
L85.5739 222.612
M87.4084 213.992
L88.3257 211.856
L89.2429 197.645
L90.1602 236.055
L91.0774 238.246
L91.9947 174.79
L92.912 163.195
L93.8292 173.615
L94.7465 144.113
L95.6637 196.873
L98.4155 222.741
L99.3328 230.047
L100.25 233.418
M102.085 219.803
L103.002 209.967
L103.919 239.74
L104.836 204.844
L105.754 231.934
L106.671 185.142
L107.588 214.426
M109.423 238.956
L110.34 175.592
L111.257 224.725
L112.174 187.429
L113.092 215.547
L114.009 204.982
L114.926 184.293
L115.843 222.575
L116.761 242.807
M119.513 200.239
L120.43 218.795
L121.347 220.098
L122.264 158.956
L123.182 160.362
L124.099 173.344
L125.016 192.276
L125.933 157.401
L126.851 177.002
L127.768 191.528
L128.685 173.839
L129.602 187.344
L130.52 204.694
L131.437 159.477
L132.354 177.483
L133.271 127.893
L134.189 187.312
L135.106 122.733
L136.023 173.014
L136.94 190.067
L137.858 164.13
L138.775 162.354
L139.692 80.8259
L140.609 173.642
L141.527 197.075
L142.444 102.742
L143.361 83.6241
L144.279 156.11
L145.196 202.369
L146.113 150.051
L147.03 121.758
L147.948 201.492
L148.865 126.976
L149.782 136.482
L150.699 110.524
L151.617 154.753
L152.534 114.578
L153.451 103.61
L154.368 118.683
L155.286 185.909
L156.203 162.329
L157.12 185.373
L158.955 111.939
L159.872 110.881
L160.789 123.34
L161.706 130.721
L162.624 160.666
L163.541 199.664
L164.458 220.906
L165.376 148.653
L166.293 189.631
L167.21 100.125
L168.127 116.215
L169.045 150.664
L169.962 127.533
L170.879 174.764
L171.796 173.582
L172.714 163.273
L173.631 132.067
L174.548 202.549
L175.465 201.662
L176.383 203.492
L177.3 145.048
L178.217 150.584
L179.134 140.465
L180.052 187.044
L180.969 105.165
L181.886 115.982
L182.803 130.293
L183.721 177.962
L184.638 193.815
L185.555 121.605
L186.473 144.789
L187.39 149.172
L188.307 152.059
L189.224 128.119
L190.142 167.411
L191.059 104.549
L191.976 89.3952
L192.893 121.014
L193.811 95.5797
L194.728 188.415
L195.645 184.936
L196.562 108.668
L197.48 117.481
L198.397 127.544
L199.314 126.377
L200.231 109.068
L201.149 102.259
L202.066 107.133
L202.983 115.521
L203.9 131.081
L204.818 164.107
L205.735 125.42
L206.652 112.554
L207.569 112.33
L208.487 126.078
L209.404 130.829
L210.321 133.873
L211.239 127.648
L212.156 169.971
L213.073 115.632
L213.99 108.124
L214.908 128.106
L215.825 136.089
L216.742 128.196
L217.659 142.53
L219.494 125.469
L220.411 138.98
L221.328 130.094
L222.246 127.156
L223.163 132.226
L224.08 120.809
L224.997 116.065
L225.915 121.906
L226.832 115.529
L227.749 129.415
L228.666 128.495
L229.584 133.617
L230.501 125.634
L231.418 122.591
L232.336 129.067
L234.17 153.616
L235.087 143.317
L236.005 143.885
L236.922 132.704
L237.839 164.127
L238.756 134.799
L239.674 134.986
L240.591 139.508
L241.508 139.853
L242.425 128.062
L243.343 129.742
L244.26 120.863
L245.177 128.07
L246.094 143.08
L247.012 139.859
L247.929 121.3
L248.846 125.36
L249.763 133.467
L250.681 133.787
L251.598 130.596
L252.515 142.608
L253.433 145.552
L255.267 139.64
L256.184 141.159
L257.102 147.906
L258.019 146.76
L258.936 170.27
L259.853 151.258
L260.771 143.048
L261.688 139.482
L262.605 126.448
L263.522 125.045
L264.44 124.871
L265.357 128.396
L266.274 128.179
L268.109 142.135
L269.026 145.107
L269.943 144.634
L270.86 151.181
L271.778 148.494
L272.695 158.041
L273.612 151.22
L274.529 151.084
L275.447 149.139
L276.364 201.86
L277.281 160.725
L278.199 129.661
L279.116 127.433
L280.033 139.367
L280.95 141.163
L281.868 134.455
L282.785 142.593
L283.702 143.227
L284.619 148.164
L285.537 154.097
L286.454 143.67
L287.371 142.868
L288.288 148.336
L289.206 139.731
L290.123 153.739
L291.04 153.064
L291.957 154.756
L292.875 155.377
L293.792 214.976
L294.709 234.619
M296.544 243.295
L297.461 186.783
L298.378 156.208
L299.296 212.288
L300.213 198.058
L301.13 155.807
L302.047 149.18
L302.965 146.445
L303.882 170.359
L304.799 235.271
L305.716 168.124
L306.634 140.933
L307.551 160.768
L308.468 149.998
L310.303 175.374
L311.22 168.164
L312.137 196.626
L313.054 148.455
L313.972 115.149
L314.889 128.053
L315.806 128.385
L316.723 140.928
L317.641 160.413
L318.558 193.823
L319.475 150.015
L320.393 116.202
L321.31 142.157
L322.227 205.868
L323.144 222.501
L324.062 231.086
L324.979 232.763
L326.813 157.03
L327.731 150.886
L328.648 166.092
L329.565 208.047
L330.482 216.192
L331.4 148.877
L332.317 129.876
L333.234 175.998
L334.151 228.251
L335.069 228.801
L335.986 218.077
L336.903 170.995
L338.738 212.468
L339.655 159.375
L340.572 192.251
L341.489 193.226
L342.407 130.142
L343.324 132.345
L344.241 180.854
L345.159 216.625
L346.076 201.16
L346.993 144.135
L347.91 147.543
L349.745 182.854
L350.662 178.865
L351.579 150.303
L352.497 157.117
L353.414 153.579
L354.331 156.234
L356.166 170.328
L357.083 167.27
L358 182.869
L358.917 168.645
L359.835 193.474
L360.752 197.348
L361.669 195.03
L362.586 184.168
L363.504 168.101
L364.421 157.607
L365.338 191.591
L366.256 138.646
L367.173 129.157
L368.09 143.197
L369.007 152.71
L369.925 165.687
L371.759 224.37
L372.676 209.115
L373.594 242.27
L374.511 191.971
L374.511 191.971" style="fill:none;stroke:#bfbf00;stroke-linecap:square;"/>
   </g>
   <g id="line2d_14">
    <path clip-path="url(#p705cba3da1)" d="
M40.6281 139.835
L41.5454 151.304
L42.4626 147.723
L43.3799 135.861
L44.2972 162.606
L45.2144 183.404
L46.1317 200.048
L47.0489 180.153
L47.9662 191.435
L48.8835 223.58
L49.8007 174.264
L50.718 185.144
L51.6352 138.148
L52.5525 121.111
L53.4698 166.111
L54.387 183.737
L55.3043 148.264
L56.2215 203.958
M58.9733 238.877
L59.8906 214.74
L60.8079 242.862
L61.7251 219.406
L62.6424 215.466
L63.5596 234.635
L64.4769 169.536
L65.3942 153.106
L66.3114 128.471
L67.2287 194.23
L68.1459 161.676
L69.0632 214.063
L69.9805 209.331
L70.8977 167.379
L71.815 159.831
L72.7322 157.651
L73.6495 159.634
L74.5668 133.285
L75.484 201.661
L76.4013 235.178
L77.3185 200.04
L78.2358 223.81
L79.1531 230.738
L80.0703 193.667
L80.9876 208.776
L81.9048 219.148
L82.8221 175.844
L83.7394 175.337
L84.6566 204.932
L85.5739 183.982
L86.4911 209.502
M88.3257 215.464
L89.2429 180.07
L90.1602 131.266
L91.0774 208.044
L91.9947 172.351
L92.912 155.905
L93.8292 144.761
L94.7465 198.198
L95.6637 230.517
L96.581 184.325
L97.4983 201.309
L98.4155 168.038
L99.3328 153.426
L100.25 195.544
L101.167 128.266
L102.085 123.041
L103.002 124.117
L103.919 135.351
L104.836 178.577
L105.754 192.284
L106.671 202.267
M108.505 206.591
L109.423 231.083
L110.34 231.476
M112.174 197.173
L113.092 213.444
L114.009 173.856
L114.926 115.23
L115.843 156.266
L116.761 123.671
L117.678 168.601
L118.595 220.187
L119.513 141.224
L120.43 189.723
L121.347 200.016
L122.264 221.673
L123.182 131.402
L124.099 107.745
L125.016 129.203
L125.933 114.335
L126.851 158.799
L127.768 128.677
L128.685 122.184
L129.602 89.4609
L130.52 85.5582
L131.437 113.682
L132.354 107.262
L133.271 175.956
L134.189 146.45
L135.106 172.596
L136.023 126.249
L136.94 91.7906
L137.858 188.852
L138.775 151.402
L139.692 152.219
L140.609 180.106
L141.527 134.788
L142.444 107.987
L143.361 113.449
L144.279 147.936
L145.196 138.062
L146.113 166.118
L147.03 241.905
L147.948 107.397
L148.865 138.178
L149.782 99.5543
L150.699 184.859
L151.617 117.808
L152.534 103.111
L153.451 187.189
L154.368 217.488
L155.286 135.021
L156.203 87.9106
L157.12 87.8309
L158.037 88.5106
L158.955 105.48
L159.872 71.2651
L160.789 78.4682
L161.706 89.401
L162.624 94.7474
L163.541 115.663
L164.458 154.167
L165.376 121.521
L166.293 140.581
L167.21 96.4998
L168.127 82.9298
L169.045 105.677
L169.962 160.623
L170.879 171.196
L171.796 154.614
L172.714 123.033
L173.631 204.737
L174.548 207.266
L175.465 165.748
L176.383 100.228
L177.3 98.4082
L178.217 109.616
L179.134 115.559
L180.052 112.566
L180.969 149.588
L181.886 127.85
L182.803 156.297
L183.721 217.412
L184.638 110.921
L185.555 125.713
L186.473 136.313
L187.39 196.611
L188.307 139.561
L189.224 96.7959
L190.142 125.914
L191.059 108.5
L191.976 83.2989
L192.893 94.3091
L193.811 109.625
L194.728 117.226
L195.645 93.5959
L196.562 108.239
L197.48 92.1617
L198.397 111.091
L199.314 120.61
L200.231 112.264
L201.149 111.401
L202.066 105.651
L202.983 106.831
L203.9 95.2837
L204.818 109.887
L205.735 107.929
L206.652 118.469
L207.569 143.763
L208.487 124.712
L209.404 113.486
L210.321 108.077
L211.239 127.872
L212.156 133.248
L213.073 131.554
L213.99 154.252
L214.908 139.538
L215.825 132.914
L216.742 136.513
L217.659 138.679
L218.577 162.22
L219.494 173.218
L220.411 145.826
L221.328 155.585
L222.246 125.341
L223.163 125.406
L224.08 142.467
L224.997 122.586
L225.915 127.655
L226.832 127.603
L227.749 129.672
L228.666 128.037
L229.584 128.413
L230.501 132.956
L231.418 136.361
L232.336 135.788
L233.253 131.679
L234.17 134.278
L235.087 130.059
L236.005 128.595
L236.922 118.591
L238.756 124.009
L239.674 136.001
L240.591 134.87
L241.508 140.687
L242.425 148.216
L243.343 139.805
L244.26 153.105
L245.177 133.407
L246.094 144.288
L247.012 144.995
L248.846 137.628
L249.763 137.069
L250.681 139.999
L251.598 137.183
L252.515 163.694
L253.433 145.381
L254.35 147.607
L255.267 137.913
L256.184 130.697
L257.102 112.166
L258.019 120.295
L258.936 145.488
L259.853 149.428
L260.771 131.746
L261.688 130.709
L262.605 125.978
L263.522 155.078
L264.44 140.813
L265.357 110.842
L267.191 124.556
L268.109 129.563
L269.026 148.121
L269.943 126.007
L270.86 130.563
L271.778 137.341
L272.695 128.349
L273.612 123.319
L274.529 108.111
L275.447 118.268
L276.364 130.378
L277.281 126.866
L278.199 133.812
L279.116 129.784
L280.033 128.31
L280.95 141.238
L281.868 146.521
L282.785 147.858
L283.702 143.869
L284.619 198.258
L285.537 158.782
L286.454 159.007
L287.371 154.282
L288.288 138.35
L289.206 143.761
L290.123 146.242
L291.04 144.8
L291.957 136.56
L292.875 136.348
L293.792 111.979
L294.709 113.131
L295.626 106.073
L296.544 109.053
L297.461 114.053
L298.378 113.705
L299.296 127.896
L300.213 134.488
L301.13 135.836
L302.047 135.964
L302.965 187.693
L303.882 161.457
L304.799 171.489
L305.716 175.287
L306.634 145.336
L307.551 131.289
L308.468 156.945
L309.385 186.209
L310.303 146.985
L311.22 225.289
L312.137 236.301
L313.054 214.717
L313.972 219.428
L314.889 174.825
L315.806 192.527
L316.723 222.593
L317.641 176.398
L318.558 158.97
L319.475 149.717
L320.393 181.381
L321.31 164.419
L322.227 174.783
L323.144 164.782
L324.062 183.423
L324.979 168.199
L325.896 181.153
L326.813 202.845
L327.731 237.608
L328.648 213.873
L329.565 216.704
L330.482 208.096
L331.4 217.342
L332.317 214.447
L333.234 204.138
L334.151 185.776
L335.069 216.452
L335.986 211.514
L336.903 209.224
L337.82 196.67
L338.738 219.902
L339.655 172.108
L340.572 140.284
L341.489 193.878
L342.407 216.378
L343.324 191.919
L344.241 170.909
L345.159 190.001
L346.076 203.283
L346.993 222.078
L347.91 218.838
L348.828 236.888
L349.745 176.676
L350.662 209.743
L351.579 224.94
L352.497 202.757
L353.414 187.055
L354.331 214.492
L355.248 190.464
L356.166 230.243
L357.083 201.258
L358 234.928
L358.917 206.282
L359.835 222.737
L360.752 224.472
M362.586 221.01
L363.504 203.003
L364.421 197.541
L365.338 135.402
L366.256 128.102
L367.173 186.293
L368.09 227.192
L369.007 227.74
L369.925 197.631
L370.842 229.608
L371.759 234.696
L372.676 207.169
L373.594 205.513
L374.511 236.532
L374.511 236.532" style="fill:none;stroke:#000000;stroke-linecap:square;"/>
   </g>
   <g id="line2d_15">
    <path clip-path="url(#p705cba3da1)" d="
M0 0" style="fill:none;stroke:#0000ff;stroke-linecap:square;"/>
   </g>
   <g id="line2d_16">
    <path clip-path="url(#p705cba3da1)" d="
M0 0" style="fill:none;stroke:#008000;stroke-linecap:square;"/>
   </g>
   <g id="patch_3">
    <path d="
M375.428 244.518
L375.428 21.3181" style="fill:none;stroke:#000000;stroke-linecap:square;stroke-linejoin:miter;"/>
   </g>
   <g id="patch_4">
    <path d="
M40.6281 244.518
L375.428 244.518" style="fill:none;stroke:#000000;stroke-linecap:square;stroke-linejoin:miter;"/>
   </g>
   <g id="patch_5">
    <path d="
M40.6281 21.3181
L375.428 21.3181" style="fill:none;stroke:#000000;stroke-linecap:square;stroke-linejoin:miter;"/>
   </g>
   <g id="patch_6">
    <path d="
M40.6281 244.518
L40.6281 21.3181" style="fill:none;stroke:#000000;stroke-linecap:square;stroke-linejoin:miter;"/>
   </g>
   <g id="matplotlib.axis_1">
    <g id="xtick_1">
     <g id="line2d_17">
      <defs>
       <path d="
M0 0
L0 -4" id="mc7db9fdffb" style="stroke:#000000;stroke-width:0.5;"/>
      </defs>
      <g>
       <use style="stroke:#000000;stroke-width:0.5;" x="40.628125" xlink:href="#mc7db9fdffb" y="244.518125"/>
      </g>
     </g>
     <g id="line2d_18">
      <defs>
       <path d="
M0 0
L0 4" id="m5a7d422ac3" style="stroke:#000000;stroke-width:0.5;"/>
      </defs>
      <g>
       <use style="stroke:#000000;stroke-width:0.5;" x="40.628125" xlink:href="#m5a7d422ac3" y="21.318125"/>
      </g>
     </g>
     <g id="text_1">
      <!-- 0 -->
      <defs>
       <path d="
M31.7812 66.4062
Q24.1719 66.4062 20.3281 58.9062
Q16.5 51.4219 16.5 36.375
Q16.5 21.3906 20.3281 13.8906
Q24.1719 6.39062 31.7812 6.39062
Q39.4531 6.39062 43.2812 13.8906
Q47.125 21.3906 47.125 36.375
Q47.125 51.4219 43.2812 58.9062
Q39.4531 66.4062 31.7812 66.4062
M31.7812 74.2188
Q44.0469 74.2188 50.5156 64.5156
Q56.9844 54.8281 56.9844 36.375
Q56.9844 17.9688 50.5156 8.26562
Q44.0469 -1.42188 31.7812 -1.42188
Q19.5312 -1.42188 13.0625 8.26562
Q6.59375 17.9688 6.59375 36.375
Q6.59375 54.8281 13.0625 64.5156
Q19.5312 74.2188 31.7812 74.2188" id="BitstreamVeraSans-Roman-30"/>
      </defs>
      <g transform="translate(38.10859375 256.1165625)scale(0.1 -0.1)">
       <use xlink:href="#BitstreamVeraSans-Roman-30"/>
      </g>
     </g>
    </g>
    <g id="xtick_2">
     <g id="line2d_19">
      <g>
       <use style="stroke:#000000;stroke-width:0.5;" x="86.4911386986" xlink:href="#mc7db9fdffb" y="244.518125"/>
      </g>
     </g>
     <g id="line2d_20">
      <g>
       <use style="stroke:#000000;stroke-width:0.5;" x="86.4911386986" xlink:href="#m5a7d422ac3" y="21.318125"/>
      </g>
     </g>
     <g id="text_2">
      <!-- 50 -->
      <defs>
       <path d="
M10.7969 72.9062
L49.5156 72.9062
L49.5156 64.5938
L19.8281 64.5938
L19.8281 46.7344
Q21.9688 47.4688 24.1094 47.8281
Q26.2656 48.1875 28.4219 48.1875
Q40.625 48.1875 47.75 41.5
Q54.8906 34.8125 54.8906 23.3906
Q54.8906 11.625 47.5625 5.09375
Q40.2344 -1.42188 26.9062 -1.42188
Q22.3125 -1.42188 17.5469 -0.640625
Q12.7969 0.140625 7.71875 1.70312
L7.71875 11.625
Q12.1094 9.23438 16.7969 8.0625
Q21.4844 6.89062 26.7031 6.89062
Q35.1562 6.89062 40.0781 11.3281
Q45.0156 15.7656 45.0156 23.3906
Q45.0156 31 40.0781 35.4375
Q35.1562 39.8906 26.7031 39.8906
Q22.75 39.8906 18.8125 39.0156
Q14.8906 38.1406 10.7969 36.2812
z
" id="BitstreamVeraSans-Roman-35"/>
      </defs>
      <g transform="translate(80.8466074486 256.1165625)scale(0.1 -0.1)">
       <use xlink:href="#BitstreamVeraSans-Roman-35"/>
       <use x="63.623046875" xlink:href="#BitstreamVeraSans-Roman-30"/>
      </g>
     </g>
    </g>
    <g id="xtick_3">
     <g id="line2d_21">
      <g>
       <use style="stroke:#000000;stroke-width:0.5;" x="132.354152397" xlink:href="#mc7db9fdffb" y="244.518125"/>
      </g>
     </g>
     <g id="line2d_22">
      <g>
       <use style="stroke:#000000;stroke-width:0.5;" x="132.354152397" xlink:href="#m5a7d422ac3" y="21.318125"/>
      </g>
     </g>
     <g id="text_3">
      <!-- 100 -->
      <defs>
       <path d="
M12.4062 8.29688
L28.5156 8.29688
L28.5156 63.9219
L10.9844 60.4062
L10.9844 69.3906
L28.4219 72.9062
L38.2812 72.9062
L38.2812 8.29688
L54.3906 8.29688
L54.3906 0
L12.4062 0
z
" id="BitstreamVeraSans-Roman-31"/>
      </defs>
      <g transform="translate(123.691652397 256.1165625)scale(0.1 -0.1)">
       <use xlink:href="#BitstreamVeraSans-Roman-31"/>
       <use x="63.623046875" xlink:href="#BitstreamVeraSans-Roman-30"/>
       <use x="127.24609375" xlink:href="#BitstreamVeraSans-Roman-30"/>
      </g>
     </g>
    </g>
    <g id="xtick_4">
     <g id="line2d_23">
      <g>
       <use style="stroke:#000000;stroke-width:0.5;" x="178.217166096" xlink:href="#mc7db9fdffb" y="244.518125"/>
      </g>
     </g>
     <g id="line2d_24">
      <g>
       <use style="stroke:#000000;stroke-width:0.5;" x="178.217166096" xlink:href="#m5a7d422ac3" y="21.318125"/>
      </g>
     </g>
     <g id="text_4">
      <!-- 150 -->
      <g transform="translate(169.554666096 256.1165625)scale(0.1 -0.1)">
       <use xlink:href="#BitstreamVeraSans-Roman-31"/>
       <use x="63.623046875" xlink:href="#BitstreamVeraSans-Roman-35"/>
       <use x="127.24609375" xlink:href="#BitstreamVeraSans-Roman-30"/>
      </g>
     </g>
    </g>
    <g id="xtick_5">
     <g id="line2d_25">
      <g>
       <use style="stroke:#000000;stroke-width:0.5;" x="224.080179795" xlink:href="#mc7db9fdffb" y="244.518125"/>
      </g>
     </g>
     <g id="line2d_26">
      <g>
       <use style="stroke:#000000;stroke-width:0.5;" x="224.080179795" xlink:href="#m5a7d422ac3" y="21.318125"/>
      </g>
     </g>
     <g id="text_5">
      <!-- 200 -->
      <defs>
       <path d="
M19.1875 8.29688
L53.6094 8.29688
L53.6094 0
L7.32812 0
L7.32812 8.29688
Q12.9375 14.1094 22.625 23.8906
Q32.3281 33.6875 34.8125 36.5312
Q39.5469 41.8438 41.4219 45.5312
Q43.3125 49.2188 43.3125 52.7812
Q43.3125 58.5938 39.2344 62.25
Q35.1562 65.9219 28.6094 65.9219
Q23.9688 65.9219 18.8125 64.3125
Q13.6719 62.7031 7.8125 59.4219
L7.8125 69.3906
Q13.7656 71.7812 18.9375 73
Q24.125 74.2188 28.4219 74.2188
Q39.75 74.2188 46.4844 68.5469
Q53.2188 62.8906 53.2188 53.4219
Q53.2188 48.9219 51.5312 44.8906
Q49.8594 40.875 45.4062 35.4062
Q44.1875 33.9844 37.6406 27.2188
Q31.1094 20.4531 19.1875 8.29688" id="BitstreamVeraSans-Roman-32"/>
      </defs>
      <g transform="translate(215.234867295 256.1165625)scale(0.1 -0.1)">
       <use xlink:href="#BitstreamVeraSans-Roman-32"/>
       <use x="63.623046875" xlink:href="#BitstreamVeraSans-Roman-30"/>
       <use x="127.24609375" xlink:href="#BitstreamVeraSans-Roman-30"/>
      </g>
     </g>
    </g>
    <g id="xtick_6">
     <g id="line2d_27">
      <g>
       <use style="stroke:#000000;stroke-width:0.5;" x="269.943193493" xlink:href="#mc7db9fdffb" y="244.518125"/>
      </g>
     </g>
     <g id="line2d_28">
      <g>
       <use style="stroke:#000000;stroke-width:0.5;" x="269.943193493" xlink:href="#m5a7d422ac3" y="21.318125"/>
      </g>
     </g>
     <g id="text_6">
      <!-- 250 -->
      <g transform="translate(261.097880993 256.1165625)scale(0.1 -0.1)">
       <use xlink:href="#BitstreamVeraSans-Roman-32"/>
       <use x="63.623046875" xlink:href="#BitstreamVeraSans-Roman-35"/>
       <use x="127.24609375" xlink:href="#BitstreamVeraSans-Roman-30"/>
      </g>
     </g>
    </g>
    <g id="xtick_7">
     <g id="line2d_29">
      <g>
       <use style="stroke:#000000;stroke-width:0.5;" x="315.806207192" xlink:href="#mc7db9fdffb" y="244.518125"/>
      </g>
     </g>
     <g id="line2d_30">
      <g>
       <use style="stroke:#000000;stroke-width:0.5;" x="315.806207192" xlink:href="#m5a7d422ac3" y="21.318125"/>
      </g>
     </g>
     <g id="text_7">
      <!-- 300 -->
      <defs>
       <path d="
M40.5781 39.3125
Q47.6562 37.7969 51.625 33
Q55.6094 28.2188 55.6094 21.1875
Q55.6094 10.4062 48.1875 4.48438
Q40.7656 -1.42188 27.0938 -1.42188
Q22.5156 -1.42188 17.6562 -0.515625
Q12.7969 0.390625 7.625 2.20312
L7.625 11.7188
Q11.7188 9.32812 16.5938 8.10938
Q21.4844 6.89062 26.8125 6.89062
Q36.0781 6.89062 40.9375 10.5469
Q45.7969 14.2031 45.7969 21.1875
Q45.7969 27.6406 41.2812 31.2656
Q36.7656 34.9062 28.7188 34.9062
L20.2188 34.9062
L20.2188 43.0156
L29.1094 43.0156
Q36.375 43.0156 40.2344 45.9219
Q44.0938 48.8281 44.0938 54.2969
Q44.0938 59.9062 40.1094 62.9062
Q36.1406 65.9219 28.7188 65.9219
Q24.6562 65.9219 20.0156 65.0312
Q15.375 64.1562 9.8125 62.3125
L9.8125 71.0938
Q15.4375 72.6562 20.3438 73.4375
Q25.25 74.2188 29.5938 74.2188
Q40.8281 74.2188 47.3594 69.1094
Q53.9062 64.0156 53.9062 55.3281
Q53.9062 49.2656 50.4375 45.0938
Q46.9688 40.9219 40.5781 39.3125" id="BitstreamVeraSans-Roman-33"/>
      </defs>
      <g transform="translate(306.975738442 256.1165625)scale(0.1 -0.1)">
       <use xlink:href="#BitstreamVeraSans-Roman-33"/>
       <use x="63.623046875" xlink:href="#BitstreamVeraSans-Roman-30"/>
       <use x="127.24609375" xlink:href="#BitstreamVeraSans-Roman-30"/>
      </g>
     </g>
    </g>
    <g id="xtick_8">
     <g id="line2d_31">
      <g>
       <use style="stroke:#000000;stroke-width:0.5;" x="361.66922089" xlink:href="#mc7db9fdffb" y="244.518125"/>
      </g>
     </g>
     <g id="line2d_32">
      <g>
       <use style="stroke:#000000;stroke-width:0.5;" x="361.66922089" xlink:href="#m5a7d422ac3" y="21.318125"/>
      </g>
     </g>
     <g id="text_8">
      <!-- 350 -->
      <g transform="translate(352.83875214 256.1165625)scale(0.1 -0.1)">
       <use xlink:href="#BitstreamVeraSans-Roman-33"/>
       <use x="63.623046875" xlink:href="#BitstreamVeraSans-Roman-35"/>
       <use x="127.24609375" xlink:href="#BitstreamVeraSans-Roman-30"/>
      </g>
     </g>
    </g>
    <g id="text_9">
     <!-- Julian day -->
     <defs>
      <path d="
M32.1719 -5.07812
Q28.375 -14.8438 24.75 -17.8125
Q21.1406 -20.7969 15.0938 -20.7969
L7.90625 -20.7969
L7.90625 -13.2812
L13.1875 -13.2812
Q16.8906 -13.2812 18.9375 -11.5156
Q21 -9.76562 23.4844 -3.21875
L25.0938 0.875
L2.98438 54.6875
L12.5 54.6875
L29.5938 11.9219
L46.6875 54.6875
L56.2031 54.6875
z
" id="BitstreamVeraSans-Roman-79"/>
      <path d="
M45.4062 46.3906
L45.4062 75.9844
L54.3906 75.9844
L54.3906 0
L45.4062 0
L45.4062 8.20312
Q42.5781 3.32812 38.25 0.953125
Q33.9375 -1.42188 27.875 -1.42188
Q17.9688 -1.42188 11.7344 6.48438
Q5.51562 14.4062 5.51562 27.2969
Q5.51562 40.1875 11.7344 48.0938
Q17.9688 56 27.875 56
Q33.9375 56 38.25 53.625
Q42.5781 51.2656 45.4062 46.3906
M14.7969 27.2969
Q14.7969 17.3906 18.875 11.75
Q22.9531 6.10938 30.0781 6.10938
Q37.2031 6.10938 41.2969 11.75
Q45.4062 17.3906 45.4062 27.2969
Q45.4062 37.2031 41.2969 42.8438
Q37.2031 48.4844 30.0781 48.4844
Q22.9531 48.4844 18.875 42.8438
Q14.7969 37.2031 14.7969 27.2969" id="BitstreamVeraSans-Roman-64"/>
      <path d="
M9.42188 75.9844
L18.4062 75.9844
L18.4062 0
L9.42188 0
z
" id="BitstreamVeraSans-Roman-6c"/>
      <path d="
M8.5 21.5781
L8.5 54.6875
L17.4844 54.6875
L17.4844 21.9219
Q17.4844 14.1562 20.5 10.2656
Q23.5312 6.39062 29.5938 6.39062
Q36.8594 6.39062 41.0781 11.0312
Q45.3125 15.6719 45.3125 23.6875
L45.3125 54.6875
L54.2969 54.6875
L54.2969 0
L45.3125 0
L45.3125 8.40625
Q42.0469 3.42188 37.7188 1
Q33.4062 -1.42188 27.6875 -1.42188
Q18.2656 -1.42188 13.375 4.4375
Q8.5 10.2969 8.5 21.5781" id="BitstreamVeraSans-Roman-75"/>
      <path id="BitstreamVeraSans-Roman-20"/>
      <path d="
M34.2812 27.4844
Q23.3906 27.4844 19.1875 25
Q14.9844 22.5156 14.9844 16.5
Q14.9844 11.7188 18.1406 8.90625
Q21.2969 6.10938 26.7031 6.10938
Q34.1875 6.10938 38.7031 11.4062
Q43.2188 16.7031 43.2188 25.4844
L43.2188 27.4844
z

M52.2031 31.2031
L52.2031 0
L43.2188 0
L43.2188 8.29688
Q40.1406 3.32812 35.5469 0.953125
Q30.9531 -1.42188 24.3125 -1.42188
Q15.9219 -1.42188 10.9531 3.29688
Q6 8.01562 6 15.9219
Q6 25.1406 12.1719 29.8281
Q18.3594 34.5156 30.6094 34.5156
L43.2188 34.5156
L43.2188 35.4062
Q43.2188 41.6094 39.1406 45
Q35.0625 48.3906 27.6875 48.3906
Q23 48.3906 18.5469 47.2656
Q14.1094 46.1406 10.0156 43.8906
L10.0156 52.2031
Q14.9375 54.1094 19.5781 55.0469
Q24.2188 56 28.6094 56
Q40.4844 56 46.3438 49.8438
Q52.2031 43.7031 52.2031 31.2031" id="BitstreamVeraSans-Roman-61"/>
      <path d="
M54.8906 33.0156
L54.8906 0
L45.9062 0
L45.9062 32.7188
Q45.9062 40.4844 42.875 44.3281
Q39.8438 48.1875 33.7969 48.1875
Q26.5156 48.1875 22.3125 43.5469
Q18.1094 38.9219 18.1094 30.9062
L18.1094 0
L9.07812 0
L9.07812 54.6875
L18.1094 54.6875
L18.1094 46.1875
Q21.3438 51.125 25.7031 53.5625
Q30.0781 56 35.7969 56
Q45.2188 56 50.0469 50.1719
Q54.8906 44.3438 54.8906 33.0156" id="BitstreamVeraSans-Roman-6e"/>
      <path d="
M9.8125 72.9062
L19.6719 72.9062
L19.6719 5.07812
Q19.6719 -8.10938 14.6719 -14.0625
Q9.67188 -20.0156 -1.42188 -20.0156
L-5.17188 -20.0156
L-5.17188 -11.7188
L-2.09375 -11.7188
Q4.4375 -11.7188 7.125 -8.04688
Q9.8125 -4.39062 9.8125 5.07812
z
" id="BitstreamVeraSans-Roman-4a"/>
      <path d="
M9.42188 54.6875
L18.4062 54.6875
L18.4062 0
L9.42188 0
z

M9.42188 75.9844
L18.4062 75.9844
L18.4062 64.5938
L9.42188 64.5938
z
" id="BitstreamVeraSans-Roman-69"/>
     </defs>
     <g transform="translate(183.47734375 270.7946875)scale(0.1 -0.1)">
      <use xlink:href="#BitstreamVeraSans-Roman-4a"/>
      <use x="29.4921875" xlink:href="#BitstreamVeraSans-Roman-75"/>
      <use x="92.87109375" xlink:href="#BitstreamVeraSans-Roman-6c"/>
      <use x="120.654296875" xlink:href="#BitstreamVeraSans-Roman-69"/>
      <use x="148.4375" xlink:href="#BitstreamVeraSans-Roman-61"/>
      <use x="209.716796875" xlink:href="#BitstreamVeraSans-Roman-6e"/>
      <use x="273.095703125" xlink:href="#BitstreamVeraSans-Roman-20"/>
      <use x="304.8828125" xlink:href="#BitstreamVeraSans-Roman-64"/>
      <use x="368.359375" xlink:href="#BitstreamVeraSans-Roman-61"/>
      <use x="429.638671875" xlink:href="#BitstreamVeraSans-Roman-79"/>
     </g>
    </g>
   </g>
   <g id="matplotlib.axis_2">
    <g id="ytick_1">
     <g id="line2d_33">
      <defs>
       <path d="
M0 0
L4 0" id="md7965d1ba0" style="stroke:#000000;stroke-width:0.5;"/>
      </defs>
      <g>
       <use style="stroke:#000000;stroke-width:0.5;" x="40.628125" xlink:href="#md7965d1ba0" y="244.518125"/>
      </g>
     </g>
     <g id="line2d_34">
      <defs>
       <path d="
M0 0
L-4 0" id="md9a1c1a7cd" style="stroke:#000000;stroke-width:0.5;"/>
      </defs>
      <g>
       <use style="stroke:#000000;stroke-width:0.5;" x="375.428125" xlink:href="#md9a1c1a7cd" y="244.518125"/>
      </g>
     </g>
     <g id="text_10">
      <!-- 0.0 -->
      <defs>
       <path d="
M10.6875 12.4062
L21 12.4062
L21 0
L10.6875 0
z
" id="BitstreamVeraSans-Roman-2e"/>
      </defs>
      <g transform="translate(22.0484375 247.2775)scale(0.1 -0.1)">
       <use xlink:href="#BitstreamVeraSans-Roman-30"/>
       <use x="63.623046875" xlink:href="#BitstreamVeraSans-Roman-2e"/>
       <use x="95.41015625" xlink:href="#BitstreamVeraSans-Roman-30"/>
      </g>
     </g>
    </g>
    <g id="ytick_2">
     <g id="line2d_35">
      <g>
       <use style="stroke:#000000;stroke-width:0.5;" x="40.628125" xlink:href="#md7965d1ba0" y="216.618125"/>
      </g>
     </g>
     <g id="line2d_36">
      <g>
       <use style="stroke:#000000;stroke-width:0.5;" x="375.428125" xlink:href="#md9a1c1a7cd" y="216.618125"/>
      </g>
     </g>
     <g id="text_11">
      <!-- 0.5 -->
      <g transform="translate(22.2578125 219.3775)scale(0.1 -0.1)">
       <use xlink:href="#BitstreamVeraSans-Roman-30"/>
       <use x="63.623046875" xlink:href="#BitstreamVeraSans-Roman-2e"/>
       <use x="95.41015625" xlink:href="#BitstreamVeraSans-Roman-35"/>
      </g>
     </g>
    </g>
    <g id="ytick_3">
     <g id="line2d_37">
      <g>
       <use style="stroke:#000000;stroke-width:0.5;" x="40.628125" xlink:href="#md7965d1ba0" y="188.718125"/>
      </g>
     </g>
     <g id="line2d_38">
      <g>
       <use style="stroke:#000000;stroke-width:0.5;" x="375.428125" xlink:href="#md9a1c1a7cd" y="188.718125"/>
      </g>
     </g>
     <g id="text_12">
      <!-- 1.0 -->
      <g transform="translate(22.4875 191.4775)scale(0.1 -0.1)">
       <use xlink:href="#BitstreamVeraSans-Roman-31"/>
       <use x="63.623046875" xlink:href="#BitstreamVeraSans-Roman-2e"/>
       <use x="95.41015625" xlink:href="#BitstreamVeraSans-Roman-30"/>
      </g>
     </g>
    </g>
    <g id="ytick_4">
     <g id="line2d_39">
      <g>
       <use style="stroke:#000000;stroke-width:0.5;" x="40.628125" xlink:href="#md7965d1ba0" y="160.818125"/>
      </g>
     </g>
     <g id="line2d_40">
      <g>
       <use style="stroke:#000000;stroke-width:0.5;" x="375.428125" xlink:href="#md9a1c1a7cd" y="160.818125"/>
      </g>
     </g>
     <g id="text_13">
      <!-- 1.5 -->
      <g transform="translate(22.696875 163.5775)scale(0.1 -0.1)">
       <use xlink:href="#BitstreamVeraSans-Roman-31"/>
       <use x="63.623046875" xlink:href="#BitstreamVeraSans-Roman-2e"/>
       <use x="95.41015625" xlink:href="#BitstreamVeraSans-Roman-35"/>
      </g>
     </g>
    </g>
    <g id="ytick_5">
     <g id="line2d_41">
      <g>
       <use style="stroke:#000000;stroke-width:0.5;" x="40.628125" xlink:href="#md7965d1ba0" y="132.918125"/>
      </g>
     </g>
     <g id="line2d_42">
      <g>
       <use style="stroke:#000000;stroke-width:0.5;" x="375.428125" xlink:href="#md9a1c1a7cd" y="132.918125"/>
      </g>
     </g>
     <g id="text_14">
      <!-- 2.0 -->
      <g transform="translate(22.121875 135.6775)scale(0.1 -0.1)">
       <use xlink:href="#BitstreamVeraSans-Roman-32"/>
       <use x="63.623046875" xlink:href="#BitstreamVeraSans-Roman-2e"/>
       <use x="95.41015625" xlink:href="#BitstreamVeraSans-Roman-30"/>
      </g>
     </g>
    </g>
    <g id="ytick_6">
     <g id="line2d_43">
      <g>
       <use style="stroke:#000000;stroke-width:0.5;" x="40.628125" xlink:href="#md7965d1ba0" y="105.018125"/>
      </g>
     </g>
     <g id="line2d_44">
      <g>
       <use style="stroke:#000000;stroke-width:0.5;" x="375.428125" xlink:href="#md9a1c1a7cd" y="105.018125"/>
      </g>
     </g>
     <g id="text_15">
      <!-- 2.5 -->
      <g transform="translate(22.33125 107.7775)scale(0.1 -0.1)">
       <use xlink:href="#BitstreamVeraSans-Roman-32"/>
       <use x="63.623046875" xlink:href="#BitstreamVeraSans-Roman-2e"/>
       <use x="95.41015625" xlink:href="#BitstreamVeraSans-Roman-35"/>
      </g>
     </g>
    </g>
    <g id="ytick_7">
     <g id="line2d_45">
      <g>
       <use style="stroke:#000000;stroke-width:0.5;" x="40.628125" xlink:href="#md7965d1ba0" y="77.118125"/>
      </g>
     </g>
     <g id="line2d_46">
      <g>
       <use style="stroke:#000000;stroke-width:0.5;" x="375.428125" xlink:href="#md9a1c1a7cd" y="77.118125"/>
      </g>
     </g>
     <g id="text_16">
      <!-- 3.0 -->
      <g transform="translate(22.1515625 79.8775)scale(0.1 -0.1)">
       <use xlink:href="#BitstreamVeraSans-Roman-33"/>
       <use x="63.623046875" xlink:href="#BitstreamVeraSans-Roman-2e"/>
       <use x="95.41015625" xlink:href="#BitstreamVeraSans-Roman-30"/>
      </g>
     </g>
    </g>
    <g id="ytick_8">
     <g id="line2d_47">
      <g>
       <use style="stroke:#000000;stroke-width:0.5;" x="40.628125" xlink:href="#md7965d1ba0" y="49.218125"/>
      </g>
     </g>
     <g id="line2d_48">
      <g>
       <use style="stroke:#000000;stroke-width:0.5;" x="375.428125" xlink:href="#md9a1c1a7cd" y="49.218125"/>
      </g>
     </g>
     <g id="text_17">
      <!-- 3.5 -->
      <g transform="translate(22.3609375 51.9775)scale(0.1 -0.1)">
       <use xlink:href="#BitstreamVeraSans-Roman-33"/>
       <use x="63.623046875" xlink:href="#BitstreamVeraSans-Roman-2e"/>
       <use x="95.41015625" xlink:href="#BitstreamVeraSans-Roman-35"/>
      </g>
     </g>
    </g>
    <g id="ytick_9">
     <g id="line2d_49">
      <g>
       <use style="stroke:#000000;stroke-width:0.5;" x="40.628125" xlink:href="#md7965d1ba0" y="21.318125"/>
      </g>
     </g>
     <g id="line2d_50">
      <g>
       <use style="stroke:#000000;stroke-width:0.5;" x="375.428125" xlink:href="#md9a1c1a7cd" y="21.318125"/>
      </g>
     </g>
     <g id="text_18">
      <!-- 4.0 -->
      <defs>
       <path d="
M37.7969 64.3125
L12.8906 25.3906
L37.7969 25.3906
z

M35.2031 72.9062
L47.6094 72.9062
L47.6094 25.3906
L58.0156 25.3906
L58.0156 17.1875
L47.6094 17.1875
L47.6094 0
L37.7969 0
L37.7969 17.1875
L4.89062 17.1875
L4.89062 26.7031
z
" id="BitstreamVeraSans-Roman-34"/>
      </defs>
      <g transform="translate(21.878125 24.0775)scale(0.1 -0.1)">
       <use xlink:href="#BitstreamVeraSans-Roman-34"/>
       <use x="63.623046875" xlink:href="#BitstreamVeraSans-Roman-2e"/>
       <use x="95.41015625" xlink:href="#BitstreamVeraSans-Roman-30"/>
      </g>
     </g>
    </g>
    <g id="text_19">
     <!-- PET (mm/day) -->
     <defs>
      <path d="
M31 75.875
Q24.4688 64.6562 21.2812 53.6562
Q18.1094 42.6719 18.1094 31.3906
Q18.1094 20.125 21.3125 9.0625
Q24.5156 -2 31 -13.1875
L23.1875 -13.1875
Q15.875 -1.70312 12.2344 9.375
Q8.59375 20.4531 8.59375 31.3906
Q8.59375 42.2812 12.2031 53.3125
Q15.8281 64.3594 23.1875 75.875
z
" id="BitstreamVeraSans-Roman-28"/>
      <path d="
M52 44.1875
Q55.375 50.25 60.0625 53.125
Q64.75 56 71.0938 56
Q79.6406 56 84.2812 50.0156
Q88.9219 44.0469 88.9219 33.0156
L88.9219 0
L79.8906 0
L79.8906 32.7188
Q79.8906 40.5781 77.0938 44.375
Q74.3125 48.1875 68.6094 48.1875
Q61.625 48.1875 57.5625 43.5469
Q53.5156 38.9219 53.5156 30.9062
L53.5156 0
L44.4844 0
L44.4844 32.7188
Q44.4844 40.625 41.7031 44.4062
Q38.9219 48.1875 33.1094 48.1875
Q26.2188 48.1875 22.1562 43.5312
Q18.1094 38.875 18.1094 30.9062
L18.1094 0
L9.07812 0
L9.07812 54.6875
L18.1094 54.6875
L18.1094 46.1875
Q21.1875 51.2188 25.4844 53.6094
Q29.7812 56 35.6875 56
Q41.6562 56 45.8281 52.9688
Q50 49.9531 52 44.1875" id="BitstreamVeraSans-Roman-6d"/>
      <path d="
M9.8125 72.9062
L55.9062 72.9062
L55.9062 64.5938
L19.6719 64.5938
L19.6719 43.0156
L54.3906 43.0156
L54.3906 34.7188
L19.6719 34.7188
L19.6719 8.29688
L56.7812 8.29688
L56.7812 0
L9.8125 0
z
" id="BitstreamVeraSans-Roman-45"/>
      <path d="
M-0.296875 72.9062
L61.375 72.9062
L61.375 64.5938
L35.5 64.5938
L35.5 0
L25.5938 0
L25.5938 64.5938
L-0.296875 64.5938
z
" id="BitstreamVeraSans-Roman-54"/>
      <path d="
M19.6719 64.7969
L19.6719 37.4062
L32.0781 37.4062
Q38.9688 37.4062 42.7188 40.9688
Q46.4844 44.5312 46.4844 51.125
Q46.4844 57.6719 42.7188 61.2344
Q38.9688 64.7969 32.0781 64.7969
z

M9.8125 72.9062
L32.0781 72.9062
Q44.3438 72.9062 50.6094 67.3594
Q56.8906 61.8125 56.8906 51.125
Q56.8906 40.3281 50.6094 34.8125
Q44.3438 29.2969 32.0781 29.2969
L19.6719 29.2969
L19.6719 0
L9.8125 0
z
" id="BitstreamVeraSans-Roman-50"/>
      <path d="
M25.3906 72.9062
L33.6875 72.9062
L8.29688 -9.28125
L0 -9.28125
z
" id="BitstreamVeraSans-Roman-2f"/>
      <path d="
M8.01562 75.875
L15.8281 75.875
Q23.1406 64.3594 26.7812 53.3125
Q30.4219 42.2812 30.4219 31.3906
Q30.4219 20.4531 26.7812 9.375
Q23.1406 -1.70312 15.8281 -13.1875
L8.01562 -13.1875
Q14.5 -2 17.7031 9.0625
Q20.9062 20.125 20.9062 31.3906
Q20.9062 42.6719 17.7031 53.6562
Q14.5 64.6562 8.01562 75.875" id="BitstreamVeraSans-Roman-29"/>
     </defs>
     <g transform="translate(14.7984375 167.82984375)rotate(-90.0)scale(0.1 -0.1)">
      <use xlink:href="#BitstreamVeraSans-Roman-50"/>
      <use x="60.302734375" xlink:href="#BitstreamVeraSans-Roman-45"/>
      <use x="123.486328125" xlink:href="#BitstreamVeraSans-Roman-54"/>
      <use x="184.5703125" xlink:href="#BitstreamVeraSans-Roman-20"/>
      <use x="216.357421875" xlink:href="#BitstreamVeraSans-Roman-28"/>
      <use x="255.37109375" xlink:href="#BitstreamVeraSans-Roman-6d"/>
      <use x="352.783203125" xlink:href="#BitstreamVeraSans-Roman-6d"/>
      <use x="450.1953125" xlink:href="#BitstreamVeraSans-Roman-2f"/>
      <use x="483.88671875" xlink:href="#BitstreamVeraSans-Roman-64"/>
      <use x="547.36328125" xlink:href="#BitstreamVeraSans-Roman-61"/>
      <use x="608.642578125" xlink:href="#BitstreamVeraSans-Roman-79"/>
      <use x="667.822265625" xlink:href="#BitstreamVeraSans-Roman-29"/>
     </g>
    </g>
   </g>
   <g id="text_20">
    <!-- daily grass PET at Treeline -->
    <defs>
     <path d="
M41.1094 46.2969
Q39.5938 47.1719 37.8125 47.5781
Q36.0312 48 33.8906 48
Q26.2656 48 22.1875 43.0469
Q18.1094 38.0938 18.1094 28.8125
L18.1094 0
L9.07812 0
L9.07812 54.6875
L18.1094 54.6875
L18.1094 46.1875
Q20.9531 51.1719 25.4844 53.5781
Q30.0312 56 36.5312 56
Q37.4531 56 38.5781 55.875
Q39.7031 55.7656 41.0625 55.5156
z
" id="BitstreamVeraSans-Roman-72"/>
     <path d="
M18.3125 70.2188
L18.3125 54.6875
L36.8125 54.6875
L36.8125 47.7031
L18.3125 47.7031
L18.3125 18.0156
Q18.3125 11.3281 20.1406 9.42188
Q21.9688 7.51562 27.5938 7.51562
L36.8125 7.51562
L36.8125 0
L27.5938 0
Q17.1875 0 13.2344 3.875
Q9.28125 7.76562 9.28125 18.0156
L9.28125 47.7031
L2.6875 47.7031
L2.6875 54.6875
L9.28125 54.6875
L9.28125 70.2188
z
" id="BitstreamVeraSans-Roman-74"/>
     <path d="
M56.2031 29.5938
L56.2031 25.2031
L14.8906 25.2031
Q15.4844 15.9219 20.4844 11.0625
Q25.4844 6.20312 34.4219 6.20312
Q39.5938 6.20312 44.4531 7.46875
Q49.3125 8.73438 54.1094 11.2812
L54.1094 2.78125
Q49.2656 0.734375 44.1875 -0.34375
Q39.1094 -1.42188 33.8906 -1.42188
Q20.7969 -1.42188 13.1562 6.1875
Q5.51562 13.8125 5.51562 26.8125
Q5.51562 40.2344 12.7656 48.1094
Q20.0156 56 32.3281 56
Q43.3594 56 49.7812 48.8906
Q56.2031 41.7969 56.2031 29.5938
M47.2188 32.2344
Q47.125 39.5938 43.0938 43.9844
Q39.0625 48.3906 32.4219 48.3906
Q24.9062 48.3906 20.3906 44.1406
Q15.875 39.8906 15.1875 32.1719
z
" id="BitstreamVeraSans-Roman-65"/>
     <path d="
M44.2812 53.0781
L44.2812 44.5781
Q40.4844 46.5312 36.375 47.5
Q32.2812 48.4844 27.875 48.4844
Q21.1875 48.4844 17.8438 46.4375
Q14.5 44.3906 14.5 40.2812
Q14.5 37.1562 16.8906 35.375
Q19.2812 33.5938 26.5156 31.9844
L29.5938 31.2969
Q39.1562 29.25 43.1875 25.5156
Q47.2188 21.7812 47.2188 15.0938
Q47.2188 7.46875 41.1875 3.01562
Q35.1562 -1.42188 24.6094 -1.42188
Q20.2188 -1.42188 15.4531 -0.5625
Q10.6875 0.296875 5.42188 2
L5.42188 11.2812
Q10.4062 8.6875 15.2344 7.39062
Q20.0625 6.10938 24.8125 6.10938
Q31.1562 6.10938 34.5625 8.28125
Q37.9844 10.4531 37.9844 14.4062
Q37.9844 18.0625 35.5156 20.0156
Q33.0625 21.9688 24.7031 23.7812
L21.5781 24.5156
Q13.2344 26.2656 9.51562 29.9062
Q5.8125 33.5469 5.8125 39.8906
Q5.8125 47.6094 11.2812 51.7969
Q16.75 56 26.8125 56
Q31.7812 56 36.1719 55.2656
Q40.5781 54.5469 44.2812 53.0781" id="BitstreamVeraSans-Roman-73"/>
     <path d="
M45.4062 27.9844
Q45.4062 37.75 41.375 43.1094
Q37.3594 48.4844 30.0781 48.4844
Q22.8594 48.4844 18.8281 43.1094
Q14.7969 37.75 14.7969 27.9844
Q14.7969 18.2656 18.8281 12.8906
Q22.8594 7.51562 30.0781 7.51562
Q37.3594 7.51562 41.375 12.8906
Q45.4062 18.2656 45.4062 27.9844
M54.3906 6.78125
Q54.3906 -7.17188 48.1875 -13.9844
Q42 -20.7969 29.2031 -20.7969
Q24.4688 -20.7969 20.2656 -20.0938
Q16.0625 -19.3906 12.1094 -17.9219
L12.1094 -9.1875
Q16.0625 -11.3281 19.9219 -12.3438
Q23.7812 -13.375 27.7812 -13.375
Q36.625 -13.375 41.0156 -8.76562
Q45.4062 -4.15625 45.4062 5.17188
L45.4062 9.625
Q42.625 4.78125 38.2812 2.39062
Q33.9375 0 27.875 0
Q17.8281 0 11.6719 7.65625
Q5.51562 15.3281 5.51562 27.9844
Q5.51562 40.6719 11.6719 48.3281
Q17.8281 56 27.875 56
Q33.9375 56 38.2812 53.6094
Q42.625 51.2188 45.4062 46.3906
L45.4062 54.6875
L54.3906 54.6875
z
" id="BitstreamVeraSans-Roman-67"/>
    </defs>
    <g transform="translate(129.7196875 16.318125)scale(0.12 -0.12)">
     <use xlink:href="#BitstreamVeraSans-Roman-64"/>
     <use x="63.4765625" xlink:href="#BitstreamVeraSans-Roman-61"/>
     <use x="124.755859375" xlink:href="#BitstreamVeraSans-Roman-69"/>
     <use x="152.5390625" xlink:href="#BitstreamVeraSans-Roman-6c"/>
     <use x="180.322265625" xlink:href="#BitstreamVeraSans-Roman-79"/>
     <use x="239.501953125" xlink:href="#BitstreamVeraSans-Roman-20"/>
     <use x="271.2890625" xlink:href="#BitstreamVeraSans-Roman-67"/>
     <use x="334.765625" xlink:href="#BitstreamVeraSans-Roman-72"/>
     <use x="375.87890625" xlink:href="#BitstreamVeraSans-Roman-61"/>
     <use x="437.158203125" xlink:href="#BitstreamVeraSans-Roman-73"/>
     <use x="489.2578125" xlink:href="#BitstreamVeraSans-Roman-73"/>
     <use x="541.357421875" xlink:href="#BitstreamVeraSans-Roman-20"/>
     <use x="573.14453125" xlink:href="#BitstreamVeraSans-Roman-50"/>
     <use x="633.447265625" xlink:href="#BitstreamVeraSans-Roman-45"/>
     <use x="696.630859375" xlink:href="#BitstreamVeraSans-Roman-54"/>
     <use x="757.71484375" xlink:href="#BitstreamVeraSans-Roman-20"/>
     <use x="789.501953125" xlink:href="#BitstreamVeraSans-Roman-61"/>
     <use x="850.78125" xlink:href="#BitstreamVeraSans-Roman-74"/>
     <use x="889.990234375" xlink:href="#BitstreamVeraSans-Roman-20"/>
     <use x="921.77734375" xlink:href="#BitstreamVeraSans-Roman-54"/>
     <use x="968.111328125" xlink:href="#BitstreamVeraSans-Roman-72"/>
     <use x="1006.974609375" xlink:href="#BitstreamVeraSans-Roman-65"/>
     <use x="1068.498046875" xlink:href="#BitstreamVeraSans-Roman-65"/>
     <use x="1130.021484375" xlink:href="#BitstreamVeraSans-Roman-6c"/>
     <use x="1157.8046875" xlink:href="#BitstreamVeraSans-Roman-69"/>
     <use x="1185.587890625" xlink:href="#BitstreamVeraSans-Roman-6e"/>
     <use x="1248.966796875" xlink:href="#BitstreamVeraSans-Roman-65"/>
    </g>
   </g>
   <g id="legend_1">
    <g id="patch_7">
     <path d="
M297.241 312.738
L369.428 312.738
L369.428 27.3181
L297.241 27.3181
z
" style="fill:#ffffff;stroke:#000000;stroke-linejoin:miter;"/>
    </g>
    <g id="line2d_51">
     <path d="
M305.641 37.0363
L322.441 37.0363" style="fill:none;stroke:#0000ff;stroke-linecap:square;"/>
    </g>
    <g id="line2d_52"/>
    <g id="text_21">
     <!-- 1999 -->
     <defs>
      <path d="
M10.9844 1.51562
L10.9844 10.5
Q14.7031 8.73438 18.5 7.8125
Q22.3125 6.89062 25.9844 6.89062
Q35.75 6.89062 40.8906 13.4531
Q46.0469 20.0156 46.7812 33.4062
Q43.9531 29.2031 39.5938 26.9531
Q35.25 24.7031 29.9844 24.7031
Q19.0469 24.7031 12.6719 31.3125
Q6.29688 37.9375 6.29688 49.4219
Q6.29688 60.6406 12.9375 67.4219
Q19.5781 74.2188 30.6094 74.2188
Q43.2656 74.2188 49.9219 64.5156
Q56.5938 54.8281 56.5938 36.375
Q56.5938 19.1406 48.4062 8.85938
Q40.2344 -1.42188 26.4219 -1.42188
Q22.7031 -1.42188 18.8906 -0.6875
Q15.0938 0.046875 10.9844 1.51562
M30.6094 32.4219
Q37.25 32.4219 41.125 36.9531
Q45.0156 41.5 45.0156 49.4219
Q45.0156 57.2812 41.125 61.8438
Q37.25 66.4062 30.6094 66.4062
Q23.9688 66.4062 20.0938 61.8438
Q16.2188 57.2812 16.2188 49.4219
Q16.2188 41.5 20.0938 36.9531
Q23.9688 32.4219 30.6094 32.4219" id="BitstreamVeraSans-Roman-39"/>
     </defs>
     <g transform="translate(335.640625 41.23625)scale(0.12 -0.12)">
      <use xlink:href="#BitstreamVeraSans-Roman-31"/>
      <use x="63.623046875" xlink:href="#BitstreamVeraSans-Roman-39"/>
      <use x="127.24609375" xlink:href="#BitstreamVeraSans-Roman-39"/>
      <use x="190.869140625" xlink:href="#BitstreamVeraSans-Roman-39"/>
     </g>
    </g>
    <g id="line2d_53">
     <path d="
M305.641 54.65
L322.441 54.65" style="fill:none;stroke:#008000;stroke-linecap:square;"/>
    </g>
    <g id="line2d_54"/>
    <g id="text_22">
     <!-- 2000 -->
     <g transform="translate(335.640625 58.85)scale(0.12 -0.12)">
      <use xlink:href="#BitstreamVeraSans-Roman-32"/>
      <use x="63.623046875" xlink:href="#BitstreamVeraSans-Roman-30"/>
      <use x="127.24609375" xlink:href="#BitstreamVeraSans-Roman-30"/>
      <use x="190.869140625" xlink:href="#BitstreamVeraSans-Roman-30"/>
     </g>
    </g>
    <g id="line2d_55">
     <path d="
M305.641 72.2638
L322.441 72.2638" style="fill:none;stroke:#ff0000;stroke-linecap:square;"/>
    </g>
    <g id="line2d_56"/>
    <g id="text_23">
     <!-- 2001 -->
     <g transform="translate(335.640625 76.46375)scale(0.12 -0.12)">
      <use xlink:href="#BitstreamVeraSans-Roman-32"/>
      <use x="63.623046875" xlink:href="#BitstreamVeraSans-Roman-30"/>
      <use x="127.24609375" xlink:href="#BitstreamVeraSans-Roman-30"/>
      <use x="190.869140625" xlink:href="#BitstreamVeraSans-Roman-31"/>
     </g>
    </g>
    <g id="line2d_57">
     <path d="
M305.641 89.8775
L322.441 89.8775" style="fill:none;stroke:#00bfbf;stroke-linecap:square;"/>
    </g>
    <g id="line2d_58"/>
    <g id="text_24">
     <!-- 2002 -->
     <g transform="translate(335.640625 94.0775)scale(0.12 -0.12)">
      <use xlink:href="#BitstreamVeraSans-Roman-32"/>
      <use x="63.623046875" xlink:href="#BitstreamVeraSans-Roman-30"/>
      <use x="127.24609375" xlink:href="#BitstreamVeraSans-Roman-30"/>
      <use x="190.869140625" xlink:href="#BitstreamVeraSans-Roman-32"/>
     </g>
    </g>
    <g id="line2d_59">
     <path d="
M305.641 107.491
L322.441 107.491" style="fill:none;stroke:#bf00bf;stroke-linecap:square;"/>
    </g>
    <g id="line2d_60"/>
    <g id="text_25">
     <!-- 2003 -->
     <g transform="translate(335.640625 111.69125)scale(0.12 -0.12)">
      <use xlink:href="#BitstreamVeraSans-Roman-32"/>
      <use x="63.623046875" xlink:href="#BitstreamVeraSans-Roman-30"/>
      <use x="127.24609375" xlink:href="#BitstreamVeraSans-Roman-30"/>
      <use x="190.869140625" xlink:href="#BitstreamVeraSans-Roman-33"/>
     </g>
    </g>
    <g id="line2d_61">
     <path d="
M305.641 125.105
L322.441 125.105" style="fill:none;stroke:#bfbf00;stroke-linecap:square;"/>
    </g>
    <g id="line2d_62"/>
    <g id="text_26">
     <!-- 2004 -->
     <g transform="translate(335.640625 129.305)scale(0.12 -0.12)">
      <use xlink:href="#BitstreamVeraSans-Roman-32"/>
      <use x="63.623046875" xlink:href="#BitstreamVeraSans-Roman-30"/>
      <use x="127.24609375" xlink:href="#BitstreamVeraSans-Roman-30"/>
      <use x="190.869140625" xlink:href="#BitstreamVeraSans-Roman-34"/>
     </g>
    </g>
    <g id="line2d_63">
     <path d="
M305.641 142.719
L322.441 142.719" style="fill:none;stroke:#000000;stroke-linecap:square;"/>
    </g>
    <g id="line2d_64"/>
    <g id="text_27">
     <!-- 2005 -->
     <g transform="translate(335.640625 146.91875)scale(0.12 -0.12)">
      <use xlink:href="#BitstreamVeraSans-Roman-32"/>
      <use x="63.623046875" xlink:href="#BitstreamVeraSans-Roman-30"/>
      <use x="127.24609375" xlink:href="#BitstreamVeraSans-Roman-30"/>
      <use x="190.869140625" xlink:href="#BitstreamVeraSans-Roman-35"/>
     </g>
    </g>
    <g id="line2d_65">
     <path d="
M305.641 160.333
L322.441 160.333" style="fill:none;stroke:#0000ff;stroke-linecap:square;"/>
    </g>
    <g id="line2d_66"/>
    <g id="text_28">
     <!-- 2006 -->
     <defs>
      <path d="
M33.0156 40.375
Q26.375 40.375 22.4844 35.8281
Q18.6094 31.2969 18.6094 23.3906
Q18.6094 15.5312 22.4844 10.9531
Q26.375 6.39062 33.0156 6.39062
Q39.6562 6.39062 43.5312 10.9531
Q47.4062 15.5312 47.4062 23.3906
Q47.4062 31.2969 43.5312 35.8281
Q39.6562 40.375 33.0156 40.375
M52.5938 71.2969
L52.5938 62.3125
Q48.875 64.0625 45.0938 64.9844
Q41.3125 65.9219 37.5938 65.9219
Q27.8281 65.9219 22.6719 59.3281
Q17.5312 52.7344 16.7969 39.4062
Q19.6719 43.6562 24.0156 45.9219
Q28.375 48.1875 33.5938 48.1875
Q44.5781 48.1875 50.9531 41.5156
Q57.3281 34.8594 57.3281 23.3906
Q57.3281 12.1562 50.6875 5.35938
Q44.0469 -1.42188 33.0156 -1.42188
Q20.3594 -1.42188 13.6719 8.26562
Q6.98438 17.9688 6.98438 36.375
Q6.98438 53.6562 15.1875 63.9375
Q23.3906 74.2188 37.2031 74.2188
Q40.9219 74.2188 44.7031 73.4844
Q48.4844 72.75 52.5938 71.2969" id="BitstreamVeraSans-Roman-36"/>
     </defs>
     <g transform="translate(335.640625 164.5325)scale(0.12 -0.12)">
      <use xlink:href="#BitstreamVeraSans-Roman-32"/>
      <use x="63.623046875" xlink:href="#BitstreamVeraSans-Roman-30"/>
      <use x="127.24609375" xlink:href="#BitstreamVeraSans-Roman-30"/>
      <use x="190.869140625" xlink:href="#BitstreamVeraSans-Roman-36"/>
     </g>
    </g>
    <g id="line2d_67">
     <path d="
M305.641 177.946
L322.441 177.946" style="fill:none;stroke:#008000;stroke-linecap:square;"/>
    </g>
    <g id="line2d_68"/>
    <g id="text_29">
     <!-- 2007 -->
     <defs>
      <path d="
M8.20312 72.9062
L55.0781 72.9062
L55.0781 68.7031
L28.6094 0
L18.3125 0
L43.2188 64.5938
L8.20312 64.5938
z
" id="BitstreamVeraSans-Roman-37"/>
     </defs>
     <g transform="translate(335.640625 182.14625)scale(0.12 -0.12)">
      <use xlink:href="#BitstreamVeraSans-Roman-32"/>
      <use x="63.623046875" xlink:href="#BitstreamVeraSans-Roman-30"/>
      <use x="127.24609375" xlink:href="#BitstreamVeraSans-Roman-30"/>
      <use x="190.869140625" xlink:href="#BitstreamVeraSans-Roman-37"/>
     </g>
    </g>
    <g id="line2d_69">
     <path d="
M305.641 195.56
L322.441 195.56" style="fill:none;stroke:#ff0000;stroke-linecap:square;"/>
    </g>
    <g id="line2d_70"/>
    <g id="text_30">
     <!-- 2008 -->
     <defs>
      <path d="
M31.7812 34.625
Q24.75 34.625 20.7188 30.8594
Q16.7031 27.0938 16.7031 20.5156
Q16.7031 13.9219 20.7188 10.1562
Q24.75 6.39062 31.7812 6.39062
Q38.8125 6.39062 42.8594 10.1719
Q46.9219 13.9688 46.9219 20.5156
Q46.9219 27.0938 42.8906 30.8594
Q38.875 34.625 31.7812 34.625
M21.9219 38.8125
Q15.5781 40.375 12.0312 44.7188
Q8.5 49.0781 8.5 55.3281
Q8.5 64.0625 14.7188 69.1406
Q20.9531 74.2188 31.7812 74.2188
Q42.6719 74.2188 48.875 69.1406
Q55.0781 64.0625 55.0781 55.3281
Q55.0781 49.0781 51.5312 44.7188
Q48 40.375 41.7031 38.8125
Q48.8281 37.1562 52.7969 32.3125
Q56.7812 27.4844 56.7812 20.5156
Q56.7812 9.90625 50.3125 4.23438
Q43.8438 -1.42188 31.7812 -1.42188
Q19.7344 -1.42188 13.25 4.23438
Q6.78125 9.90625 6.78125 20.5156
Q6.78125 27.4844 10.7812 32.3125
Q14.7969 37.1562 21.9219 38.8125
M18.3125 54.3906
Q18.3125 48.7344 21.8438 45.5625
Q25.3906 42.3906 31.7812 42.3906
Q38.1406 42.3906 41.7188 45.5625
Q45.3125 48.7344 45.3125 54.3906
Q45.3125 60.0625 41.7188 63.2344
Q38.1406 66.4062 31.7812 66.4062
Q25.3906 66.4062 21.8438 63.2344
Q18.3125 60.0625 18.3125 54.3906" id="BitstreamVeraSans-Roman-38"/>
     </defs>
     <g transform="translate(335.640625 199.76)scale(0.12 -0.12)">
      <use xlink:href="#BitstreamVeraSans-Roman-32"/>
      <use x="63.623046875" xlink:href="#BitstreamVeraSans-Roman-30"/>
      <use x="127.24609375" xlink:href="#BitstreamVeraSans-Roman-30"/>
      <use x="190.869140625" xlink:href="#BitstreamVeraSans-Roman-38"/>
     </g>
    </g>
    <g id="line2d_71">
     <path d="
M305.641 213.174
L322.441 213.174" style="fill:none;stroke:#00bfbf;stroke-linecap:square;"/>
    </g>
    <g id="line2d_72"/>
    <g id="text_31">
     <!-- 2009 -->
     <g transform="translate(335.640625 217.37375)scale(0.12 -0.12)">
      <use xlink:href="#BitstreamVeraSans-Roman-32"/>
      <use x="63.623046875" xlink:href="#BitstreamVeraSans-Roman-30"/>
      <use x="127.24609375" xlink:href="#BitstreamVeraSans-Roman-30"/>
      <use x="190.869140625" xlink:href="#BitstreamVeraSans-Roman-39"/>
     </g>
    </g>
    <g id="line2d_73">
     <path d="
M305.641 230.788
L322.441 230.788" style="fill:none;stroke:#bf00bf;stroke-linecap:square;"/>
    </g>
    <g id="line2d_74"/>
    <g id="text_32">
     <!-- 2010 -->
     <g transform="translate(335.640625 234.9875)scale(0.12 -0.12)">
      <use xlink:href="#BitstreamVeraSans-Roman-32"/>
      <use x="63.623046875" xlink:href="#BitstreamVeraSans-Roman-30"/>
      <use x="127.24609375" xlink:href="#BitstreamVeraSans-Roman-31"/>
      <use x="190.869140625" xlink:href="#BitstreamVeraSans-Roman-30"/>
     </g>
    </g>
    <g id="line2d_75">
     <path d="
M305.641 248.401
L322.441 248.401" style="fill:none;stroke:#bfbf00;stroke-linecap:square;"/>
    </g>
    <g id="line2d_76"/>
    <g id="text_33">
     <!-- 2011 -->
     <g transform="translate(335.640625 252.60125)scale(0.12 -0.12)">
      <use xlink:href="#BitstreamVeraSans-Roman-32"/>
      <use x="63.623046875" xlink:href="#BitstreamVeraSans-Roman-30"/>
      <use x="127.24609375" xlink:href="#BitstreamVeraSans-Roman-31"/>
      <use x="190.869140625" xlink:href="#BitstreamVeraSans-Roman-31"/>
     </g>
    </g>
    <g id="line2d_77">
     <path d="
M305.641 266.015
L322.441 266.015" style="fill:none;stroke:#000000;stroke-linecap:square;"/>
    </g>
    <g id="line2d_78"/>
    <g id="text_34">
     <!-- 2012 -->
     <g transform="translate(335.640625 270.215)scale(0.12 -0.12)">
      <use xlink:href="#BitstreamVeraSans-Roman-32"/>
      <use x="63.623046875" xlink:href="#BitstreamVeraSans-Roman-30"/>
      <use x="127.24609375" xlink:href="#BitstreamVeraSans-Roman-31"/>
      <use x="190.869140625" xlink:href="#BitstreamVeraSans-Roman-32"/>
     </g>
    </g>
    <g id="line2d_79">
     <path d="
M305.641 283.629
L322.441 283.629" style="fill:none;stroke:#0000ff;stroke-linecap:square;"/>
    </g>
    <g id="line2d_80"/>
    <g id="text_35">
     <!-- 2013 -->
     <g transform="translate(335.640625 287.82875)scale(0.12 -0.12)">
      <use xlink:href="#BitstreamVeraSans-Roman-32"/>
      <use x="63.623046875" xlink:href="#BitstreamVeraSans-Roman-30"/>
      <use x="127.24609375" xlink:href="#BitstreamVeraSans-Roman-31"/>
      <use x="190.869140625" xlink:href="#BitstreamVeraSans-Roman-33"/>
     </g>
    </g>
    <g id="line2d_81">
     <path d="
M305.641 301.243
L322.441 301.243" style="fill:none;stroke:#008000;stroke-linecap:square;"/>
    </g>
    <g id="line2d_82"/>
    <g id="text_36">
     <!-- 2014 -->
     <g transform="translate(335.640625 305.4425)scale(0.12 -0.12)">
      <use xlink:href="#BitstreamVeraSans-Roman-32"/>
      <use x="63.623046875" xlink:href="#BitstreamVeraSans-Roman-30"/>
      <use x="127.24609375" xlink:href="#BitstreamVeraSans-Roman-31"/>
      <use x="190.869140625" xlink:href="#BitstreamVeraSans-Roman-34"/>
     </g>
    </g>
   </g>
  </g>
 </g>
 <defs>
  <clipPath id="p705cba3da1">
   <rect height="223.2" width="334.8" x="40.628125" y="21.318125"/>
  </clipPath>
 </defs>
</svg>
