<?xml version="1.0" encoding="utf-8" standalone="no"?>
<!DOCTYPE svg PUBLIC "-//W3C//DTD SVG 1.1//EN"
  "http://www.w3.org/Graphics/SVG/1.1/DTD/svg11.dtd">
<!-- Created with matplotlib (http://matplotlib.org/) -->
<svg height="319pt" version="1.1" viewBox="0 0 382 319" width="382pt" xmlns="http://www.w3.org/2000/svg" xmlns:xlink="http://www.w3.org/1999/xlink">
 <defs>
  <style type="text/css">
*{stroke-linecap:butt;stroke-linejoin:round;}
  </style>
 </defs>
 <g id="figure_1">
  <g id="patch_1">
   <path d="
M0 319.938
L382.628 319.938
L382.628 0
L0 0
z
" style="fill:#ffffff;"/>
  </g>
  <g id="axes_1">
   <g id="patch_2">
    <path d="
M40.6281 244.518
L375.428 244.518
L375.428 21.3181
L40.6281 21.3181
z
" style="fill:#ffffff;"/>
   </g>
   <g id="line2d_1">
    <path clip-path="url(#p705cba3da1)" d="
M0 0" style="fill:none;stroke:#0000ff;stroke-linecap:square;"/>
   </g>
   <g id="line2d_2">
    <path clip-path="url(#p705cba3da1)" d="
M0 0" style="fill:none;stroke:#008000;stroke-linecap:square;"/>
   </g>
   <g id="line2d_3">
    <path clip-path="url(#p705cba3da1)" d="
M0 0" style="fill:none;stroke:#ff0000;stroke-linecap:square;"/>
   </g>
   <g id="line2d_4">
    <path clip-path="url(#p705cba3da1)" d="
M0 0" style="fill:none;stroke:#00bfbf;stroke-linecap:square;"/>
   </g>
   <g id="line2d_5">
    <path clip-path="url(#p705cba3da1)" d="
M0 0" style="fill:none;stroke:#bf00bf;stroke-linecap:square;"/>
   </g>
   <g id="line2d_6">
    <path clip-path="url(#p705cba3da1)" d="
M0 0" style="fill:none;stroke:#bfbf00;stroke-linecap:square;"/>
   </g>
   <g id="line2d_7">
    <path clip-path="url(#p705cba3da1)" d="
M0 0" style="fill:none;stroke:#000000;stroke-linecap:square;"/>
   </g>
   <g id="line2d_8">
    <path clip-path="url(#p705cba3da1)" d="
M0 0" style="fill:none;stroke:#0000ff;stroke-linecap:square;"/>
   </g>
   <g id="line2d_9">
    <path clip-path="url(#p705cba3da1)" d="
M0 0" style="fill:none;stroke:#008000;stroke-linecap:square;"/>
   </g>
   <g id="line2d_10">
    <path clip-path="url(#p705cba3da1)" d="
M40.6281 138.267
L41.5454 105.916
L42.4626 121.746
L43.3799 197.542
L44.2972 215.448
L45.2144 219.378
L46.1317 225.934
L47.0489 223.519
L47.9662 201.333
L48.8835 220.481
M50.718 218.602
L51.6352 218.27
L52.5525 199.765
L53.4698 191.587
L54.387 167.315
L55.3043 184.081
L56.2215 189.62
L57.1388 182.468
L58.0561 233.468
L58.9733 233.823
L59.8906 193.568
L60.8079 167.611
L61.7251 177.734
L62.6424 205.385
L63.5596 197.231
L64.4769 197.489
L65.3942 218.588
L66.3114 226.028
M68.1459 241.438
L69.0632 225.612
L69.9805 219.732
M71.815 209.647
L72.7322 203.412
L73.6495 209.812
L74.5668 238.687
L75.484 190.217
L76.4013 210.975
L77.3185 181.765
L78.2358 186.674
L79.1531 183.1
L80.0703 200.714
L80.9876 161.982
L81.9048 162.442
L82.8221 173.114
L83.7394 144.264
L84.6566 160.144
L85.5739 169.761
L87.4084 200.012
L88.3257 227.191
L89.2429 201.032
L90.1602 208.804
L91.0774 234.352
L91.9947 181.82
L92.912 188.132
L94.7465 163.654
L95.6637 202.54
L96.581 200.718
L97.4983 168.239
L98.4155 177.984
L99.3328 161.475
L100.25 131.348
L101.167 147.929
L102.085 186.541
L103.002 165.411
L103.919 153.432
L104.836 134.44
L105.754 105.973
L106.671 203.045
L107.588 215.843
L108.505 179.891
L109.423 185.672
L110.34 161.38
L111.257 234.791
L112.174 220.168
L113.092 176.289
L114.009 122.159
L114.926 107.572
L115.843 129.955
L116.761 192.829
L117.678 190.656
L118.595 224.234
L119.513 145.054
L120.43 199.87
L121.347 164.745
L122.264 163.882
L123.182 167.512
L124.099 105.667
L125.016 100.79
L125.933 101.34
L126.851 164.092
L127.768 140.359
L128.685 169.525
L129.602 191.711
L130.52 134.916
L132.354 175.577
L133.271 118.966
L134.189 118.987
L135.106 131.447
L136.023 164.997
L136.94 150.812
L137.858 128.693
L138.775 97.7167
L139.692 99.6873
L140.609 119.418
L141.527 129.074
L142.444 118.603
L143.361 90.8199
L144.279 164.267
L145.196 161.964
L146.113 75.6944
L147.03 37.5085
L147.948 59.0721
L148.865 67.9659
L149.782 161.475
L150.699 67.9352
L151.617 71.6713
L152.534 46.174
L153.451 57.0815
L155.286 74.9167
L156.203 98.0496
L157.12 131.905
L158.037 73.6756
L158.955 51.2274
L159.872 58.4018
L160.789 81.481
L161.706 69.7236
L162.624 92.687
L163.541 158.626
L164.458 110.725
L165.376 98.7347
L166.293 98.1227
L167.21 113.356
L168.127 100.076
L169.045 174.071
L169.962 144.528
L170.879 142.723
L171.796 169.593
L172.714 109.638
L173.631 147.681
L174.548 174.388
L175.465 171.297
L176.383 134.791
L177.3 139.879
L178.217 128.519
L179.134 127.508
L180.052 171.867
L180.969 86.7581
L181.886 184.878
L182.803 144.418
L183.721 94.5576
L184.638 82.7886
L185.555 124.066
L186.473 55.1019
L187.39 118.197
L188.307 135.786
L189.224 144.255
L190.142 85.1252
L191.059 73.008
L191.976 73.4669
L192.893 82.7848
L193.811 89.6817
L194.728 88.275
L195.645 80.964
L196.562 80.7082
L197.48 102.545
L198.397 141.185
L199.314 110.232
L200.231 94.2872
L201.149 100.402
L202.066 85.3912
L202.983 94.344
L203.9 99.3713
L204.818 108.821
L205.735 116.164
L206.652 132.84
L207.569 137.902
L208.487 106.59
L209.404 118.335
L210.321 124.353
L211.239 113.383
L212.156 100.338
L213.073 103.623
L213.99 104.038
L214.908 106.117
L215.825 97.9749
L216.742 77.8911
L217.659 89.8257
L218.577 99.7109
L219.494 103.609
L220.411 106.572
L221.328 112.982
L222.246 108.25
L223.163 95.8972
L224.08 97.5906
L224.997 111.458
L226.832 158.894
L227.749 112.694
L228.666 108.399
L229.584 113.481
L230.501 111.539
L231.418 111.268
L232.336 111.448
L233.253 137.175
L234.17 101.749
L235.087 104.627
L236.005 118.392
L236.922 109.612
L237.839 109.611
L238.756 112.254
L239.674 136.228
L240.591 147.051
L241.508 137.588
L242.425 150.802
L243.343 120.171
L244.26 101.122
L245.177 107.259
L246.094 115.017
L247.012 117.113
L247.929 121.298
L248.846 120.999
L249.763 116.576
L250.681 123.135
L251.598 139.579
L252.515 141.137
L253.433 124.422
L254.35 134.79
L255.267 100.112
L256.184 111.416
L257.102 125.303
L258.019 131.801
L258.936 113.878
L259.853 98.4569
L260.771 115.699
L261.688 124.224
L262.605 126.581
L263.522 118.244
L264.44 132.191
L265.357 111.93
L266.274 94.5693
L267.191 95.7797
L268.109 109.77
L269.026 121.258
L269.943 117.513
L270.86 112.498
L271.778 119.931
L272.695 102.162
L273.612 108.743
L274.529 107.244
L275.447 117.795
L276.364 119.971
L277.281 118.736
L278.199 123.253
L279.116 125.865
L280.033 130.033
L280.95 156.561
L281.868 189.774
L282.785 205.847
L283.702 148.966
L284.619 118.231
L285.537 110.883
L286.454 123.116
L287.371 116.792
L288.288 126.39
L289.206 120.931
L290.123 125.114
L291.04 136.395
L291.957 134.784
L292.875 163.377
L293.792 165.23
L294.709 224.631
L295.626 191.756
L296.544 145.241
L297.461 146.407
L298.378 107.839
L299.296 114.305
L300.213 224.299
L301.13 196.81
L302.047 141.192
L302.965 116.776
L303.882 135.876
L304.799 132.823
L305.716 130.964
L306.634 147.229
L307.551 139.193
L308.468 148.616
L309.385 141.851
L310.303 148.057
L311.22 95.3196
L313.054 115.917
L313.972 135.601
L314.889 132.016
L315.806 118.667
L316.723 132.045
L317.641 133.22
L318.558 139.371
L320.393 205.313
L321.31 227.01
L322.227 231.467
L323.144 233.142
L324.062 194.909
L324.979 207.029
L325.896 194.292
L326.813 194.266
L327.731 228.464
L328.648 217.253
L329.565 236.71
L330.482 203.643
L331.4 185.667
L332.317 138.432
L333.234 138.066
L334.151 146.667
L335.069 134.434
L335.986 141.993
L336.903 159.033
L337.82 185.877
L338.738 154.707
L339.655 185.743
L340.572 201.087
L341.489 143.594
L342.407 148.736
L343.324 171.792
L344.241 160.843
L345.159 183.697
L346.076 221.968
L346.993 209.993
L347.91 172.951
L348.828 214.857
L349.745 232.27
L350.662 159.654
L351.579 142.828
L352.497 142.124
L353.414 181.694
L354.331 211.118
L355.248 165.195
L356.166 146.811
L357.083 183.207
L358.917 241.695
L359.835 239.682
L360.752 213.193
L361.669 209.186
L362.586 199.111
L363.504 182.537
L364.421 228.593
L365.338 196.126
L366.256 221.638
L367.173 237.511
L368.09 227.502
L369.007 215.366
M370.842 218.194
L371.759 239.022
L372.676 239.868
L373.594 204.526
L374.511 157.344
L374.511 157.344" style="fill:none;stroke:#ff0000;stroke-linecap:square;"/>
   </g>
   <g id="line2d_11">
    <path clip-path="url(#p705cba3da1)" d="
M0 0" style="fill:none;stroke:#00bfbf;stroke-linecap:square;"/>
   </g>
   <g id="line2d_12">
    <path clip-path="url(#p705cba3da1)" d="
M40.6281 240.026
L42.4626 213.942
L43.3799 192.935
L44.2972 216.617
L45.2144 204.885
L46.1317 225.184
L47.0489 161.808
L47.9662 175.678
L48.8835 193.64
L49.8007 170.246
L50.718 189.229
L51.6352 232.501
L52.5525 213.305
L53.4698 145.439
L54.387 193.435
L55.3043 184.413
L56.2215 214.865
L57.1388 217.866
L58.0561 201.186
L58.9733 190.171
L59.8906 202.006
M61.7251 212.487
L62.6424 225.98
L63.5596 237.4
M65.3942 231.771
L66.3114 222.355
L67.2287 207.229
M69.0632 222.054
L69.9805 192.484
L70.8977 210.717
L71.815 223.082
L72.7322 227.589
L73.6495 213.798
L74.5668 240.051
L75.484 237.166
L76.4013 216.768
L77.3185 182.729
L78.2358 220.7
L79.1531 212.704
L80.0703 231.142
L80.9876 200.191
M82.8221 242.017
L83.7394 239.924
L84.6566 231.769
L85.5739 204.3
L86.4911 195.66
L87.4084 202.997
L88.3257 120.361
L89.2429 135.566
L90.1602 219.763
L91.0774 217.16
L91.9947 168.59
L92.912 197.605
L93.8292 205.874
L94.7465 169.583
L95.6637 158.924
L96.581 208.168
L97.4983 197.737
L98.4155 197.404
L100.25 149.327
L101.167 213.43
L102.085 165.463
L103.002 131.166
L103.919 142.592
L104.836 164.844
L105.754 222.939
L106.671 175.411
L107.588 114.062
L108.505 126.759
L109.423 120.943
L110.34 132.122
L111.257 86.3367
L112.174 107.305
L113.092 165.632
L114.009 179.159
L114.926 115.257
L115.843 109.633
L116.761 198.28
L117.678 201.393
L118.595 137.9
L119.513 118.926
L121.347 236.895
L122.264 182.25
L123.182 227.65
L124.099 223.194
L125.016 184.71
L125.933 194.783
L126.851 215.02
L127.768 156.114
L128.685 126.99
L129.602 160.574
L130.52 89.0849
L131.437 117.588
L132.354 127.654
L133.271 203.166
L134.189 177.177
L135.106 104.993
L136.023 74.643
L136.94 116.93
L137.858 107.965
L138.775 79.6827
L139.692 82.5139
L140.609 155.746
L141.527 202.076
L142.444 178.168
L143.361 71.8707
L144.279 66.6976
L145.196 54.2969
L146.113 88.2701
L147.03 203.405
L147.948 211.166
L148.865 176.945
L149.782 188.572
L150.699 165.396
L151.617 109.75
L152.534 167.278
L153.451 25.8249
L154.368 124.109
L155.286 116.792
L156.203 42.0203
L157.12 62.3362
L158.037 55.8806
L158.955 173.413
L159.872 101.159
L160.789 69.4919
L161.706 74.5607
L162.624 61.9093
L163.541 69.1931
L164.458 95.6711
L165.376 125.977
L166.293 218.901
L167.21 117.666
L168.127 82.7529
L169.045 135.619
M170.879 158.823
L171.796 137.58
L172.714 89.9882
L173.631 176.185
L174.548 151.319
L175.465 169.864
L177.3 92.2722
L178.217 181.862
L179.134 162.873
L180.052 214.469
L180.969 149.397
L181.886 226.956
L182.803 124.467
L183.721 197.394
L184.638 102.184
L185.555 108.491
L186.473 151.386
L187.39 162.078
L188.307 120.785
L189.224 67.9337
L190.142 79.2576
L191.059 92.4165
L191.976 101.496
L192.893 86.7082
L193.811 102.464
L194.728 69.2156
L195.645 101.819
L196.562 148.271
L197.48 154.407
L198.397 87.2082
L199.314 92.9241
L200.231 133.972
L201.149 152.992
L202.066 101.835
L202.983 91.7805
L203.9 117.415
L204.818 152.009
L205.735 109.006
L206.652 98.4495
L208.487 121.873
L209.404 87.3933
L210.321 89.1396
L211.239 87.2776
L212.156 89.5133
L213.073 97.0062
L214.908 115.947
L215.825 107.223
L216.742 102.011
L217.659 67.6294
L218.577 77.909
L219.494 90.2058
L220.411 105.564
L221.328 99.7381
L222.246 100.81
L223.163 87.1382
L224.08 90.6974
L224.997 100.955
L225.915 99.2352
L226.832 90.9433
L227.749 101.142
L228.666 119.668
L229.584 177.16
L230.501 127.779
L231.418 132.183
L232.336 121.479
L233.253 133.807
L234.17 126.566
L235.087 107.22
L236.005 104.587
L236.922 110.433
L237.839 109.777
L238.756 122.614
L239.674 139.994
L240.591 109.298
L241.508 114.132
L243.343 152.838
L244.26 192.796
L245.177 141.193
L246.094 119.075
L247.012 117.14
L247.929 117.213
L248.846 114.855
L249.763 118.801
L250.681 120.831
L251.598 111.979
L252.515 106.982
L253.433 117.799
L254.35 107.1
L255.267 106.979
L256.184 103.709
L257.102 115.902
L258.019 151.096
L258.936 99.4828
L259.853 116.209
L260.771 203.01
L261.688 144.819
L262.605 158.452
L263.522 151.885
L264.44 119.271
L265.357 114.19
L266.274 130.265
L267.191 100.201
L268.109 93.5276
L269.026 95.4401
L269.943 184.193
L270.86 228.389
L271.778 124.973
L272.695 107.501
L273.612 111.665
L274.529 120.853
L275.447 128.322
L276.364 119.38
L277.281 117.161
L278.199 135.488
L279.116 130.168
L280.033 144.496
L280.95 134.813
L281.868 120.707
L282.785 119.808
L283.702 115.814
L284.619 110.447
L285.537 122.987
L286.454 126.829
L287.371 122.961
L289.206 132.513
L290.123 125.376
L291.04 132.974
L291.957 132.625
L292.875 176.493
L293.792 207.571
L294.709 181.18
L295.626 172.913
L296.544 139.361
L297.461 206.082
L298.378 178.121
L299.296 161.349
L300.213 170.942
L301.13 130.076
L302.047 120.95
L302.965 118.607
L303.882 138.375
L304.799 149.445
L305.716 141.914
L306.634 117.295
L307.551 105.361
L308.468 120.447
L309.385 123.021
L310.303 131.768
L311.22 207.751
L312.137 239.885
L313.054 201.665
L313.972 222.367
L314.889 167.602
L315.806 122.111
L316.723 136.767
L317.641 148.641
L318.558 214.05
L319.475 163.277
L320.393 156.893
L321.31 162.367
L322.227 144.945
L323.144 155.915
L324.062 156.337
L324.979 213.202
L325.896 218.921
L326.813 179.169
L327.731 237.494
L328.648 218.849
L329.565 181.27
L330.482 186.649
L331.4 238.241
L332.317 207.539
L333.234 194.663
L334.151 160.964
L335.069 189.787
M336.903 243.549
L337.82 234.602
M340.572 165.636
L341.489 153.53
L342.407 166.482
L343.324 198.646
L344.241 219.317
L345.159 176.192
L346.076 182.809
M347.91 235.258
L348.828 208.91
L349.745 216.687
L350.662 234.696
L351.579 236.252
L352.497 216.611
L353.414 188.158
L354.331 214.167
L355.248 225.679
L356.166 227.303
L357.083 214.728
L358 210.968
L358.917 231.373
L359.835 220.363
L360.752 177.367
L361.669 171.921
L362.586 214.17
L363.504 237.805
L364.421 221.698
L365.338 185.993
L366.256 231.298
L367.173 227.982
L369.007 122.167
L369.925 214.903
L370.842 215.005
L371.759 223.563
M373.594 232.275
L374.511 216.837
L374.511 216.837" style="fill:none;stroke:#bf00bf;stroke-linecap:square;"/>
   </g>
   <g id="line2d_13">
    <path clip-path="url(#p705cba3da1)" d="
M40.6281 188.945
L41.5454 194.392
L42.4626 223.255
L43.3799 229.545
L44.2972 190.841
L45.2144 201.793
L46.1317 200.014
L47.0489 207.638
L48.8835 242.539
L49.8007 193.624
L50.718 207.836
M52.5525 230.611
L53.4698 227.97
L54.387 240.053
L55.3043 227.212
L56.2215 232.841
L57.1388 242.032
L58.0561 181.424
L58.9733 225.859
L59.8906 227.836
L60.8079 166.21
L61.7251 229.574
L62.6424 235.752
L63.5596 236.722
L64.4769 230.282
L65.3942 228.769
L66.3114 229.975
L67.2287 243.443
L68.1459 201.469
L69.0632 166.877
L69.9805 145.195
L70.8977 167.684
L71.815 211.405
L72.7322 204.765
L73.6495 201.852
L74.5668 202.622
L75.484 213.206
L76.4013 190.694
L77.3185 175.183
L78.2358 161.583
L79.1531 160.862
L80.0703 149.369
L81.9048 164.57
L82.8221 206.6
L83.7394 219.341
L84.6566 229.948
L85.5739 224.496
M87.4084 214.597
L88.3257 211.148
L89.2429 197.597
L90.1602 242.522
L91.0774 244.004
L91.9947 175.082
L92.912 162.987
L93.8292 174.792
L94.7465 140.139
L95.6637 196.669
L96.581 204.009
L97.4983 215.275
L98.4155 224.529
L99.3328 230.229
L100.25 236.767
M102.085 220.532
L103.002 210.698
L103.919 241.604
L104.836 202.607
L105.754 236.386
L106.671 180.177
L107.588 214.639
M109.423 242.246
L110.34 175.371
L111.257 226.675
L112.174 186.372
L113.092 213.248
L114.009 202.717
L114.926 183.582
L115.843 223.408
M119.513 197.253
L120.43 219.008
L121.347 218.378
L122.264 150.65
L123.182 153.734
L124.099 165.331
L125.016 192.089
L125.933 155.285
L126.851 170.161
L127.768 187.135
L128.685 166.05
L130.52 203.236
L131.437 154.576
L132.354 171.7
L133.271 115.277
L134.189 183.529
L135.106 108.522
L136.023 167.705
L136.94 183.501
L137.858 153.683
L138.775 152.758
L139.692 64.8429
L140.609 169.843
L141.527 194.161
L142.444 87.6228
L143.361 68.0005
L144.279 147.564
L145.196 200.425
L146.113 139.085
L147.03 109.276
L147.948 199.717
L148.865 112.467
L149.782 125.466
L150.699 97.2
L151.617 147.235
L152.534 99.6749
L153.451 87.1457
L154.368 109.605
L155.286 181.556
L156.203 150.685
L157.12 177.781
L158.955 96.2356
L159.872 96.3612
L160.789 110.929
L161.706 118.906
L162.624 153.65
L163.541 194.849
L164.458 220.766
L165.376 138.657
L166.293 182.014
L167.21 84.4488
L168.127 103.071
L169.045 140.041
L169.962 111.44
L170.879 168.541
L171.796 166.008
L172.714 154.226
L173.631 114.89
L174.548 197.684
L175.465 197.189
L176.383 197.344
L177.3 131.579
L178.217 144.559
L179.134 126.514
L180.052 180.052
L180.969 86.9218
L181.886 105.386
L182.803 121.334
L183.721 171.837
L184.638 187.324
L185.555 103.642
L186.473 130.969
L187.39 140.495
L188.307 142.539
L189.224 111.974
L190.142 157.938
L191.059 89.31
L191.976 72.9124
L192.893 109.256
L193.811 80.9938
L194.728 185.431
L195.645 177.912
L196.562 92.5869
L198.397 115.42
L199.314 113.707
L200.231 94.7274
L201.149 88.0998
L202.066 93.5522
L202.983 104.53
L203.9 120.262
L204.818 156.449
L205.735 110.36
L206.652 99.0011
L207.569 100.142
L208.487 114.767
L209.404 119.843
L210.321 123.035
L211.239 117.069
L212.156 167.734
L213.073 102.349
L213.99 96.8018
L214.908 118.127
L215.825 126.255
L216.742 117.423
L217.659 132.149
L218.577 120.709
L219.494 114.103
L220.411 129.935
L221.328 120.123
L222.246 117.68
L223.163 122.19
L224.08 108.146
L224.997 104.673
L225.915 109.504
L226.832 105.049
L227.749 120.147
L228.666 118.995
L229.584 122.542
L230.501 115.312
L231.418 112.876
L232.336 120.014
L233.253 133.493
L234.17 144.12
L235.087 133.254
L236.005 135.55
L236.922 123.346
L237.839 161.615
L238.756 124.766
L239.674 126.306
L240.591 131.293
L241.508 132.265
L242.425 118.694
L243.343 121.025
L244.26 111.646
L245.177 119.393
L246.094 136.871
L247.012 133.144
L247.929 111.718
L248.846 116.45
L249.763 125.815
L250.681 125.895
L251.598 123.063
L252.515 136.159
L253.433 138.726
L254.35 136.031
L255.267 132.428
L256.184 133.884
L257.102 141.532
L258.019 140.205
L258.936 168.517
L259.853 145.301
L260.771 135.533
L261.688 132.62
L262.605 118.326
L263.522 115.726
L264.44 116.915
L265.357 120.791
L266.274 121.035
L268.109 135.788
L269.026 139.524
L269.943 138.486
L270.86 146.68
L271.778 143.522
L272.695 153.404
L273.612 145.063
L274.529 144.603
L275.447 142.684
L276.364 201.074
L277.281 151.552
L278.199 121.209
L279.116 118.602
L280.033 132.155
L280.95 134.454
L281.868 128.183
L282.785 137.137
L283.702 138.069
L284.619 144.046
L285.537 150.757
L286.454 137.156
L287.371 137.301
L288.288 142.102
L289.206 134.142
L290.123 150.109
L291.04 148.731
L291.957 151.056
L292.875 150.908
L293.792 216.912
L294.709 235.658
M296.544 243.936
L297.461 182.142
L298.378 150.862
L299.296 212.574
L300.213 194.716
L301.13 150.014
L302.047 143.637
L302.965 140.643
L303.882 166.835
L304.799 237.529
L305.716 164.036
L306.634 136.228
L307.551 156.64
L308.468 144.843
L309.385 159.075
L310.303 171.443
L311.22 164.101
L312.137 195.809
L313.054 145.086
L313.972 111.109
L314.889 124.795
L315.806 125.111
L316.723 136.037
L317.641 156.516
L318.558 190.855
L319.475 146.018
L320.393 112.876
L321.31 142.084
L322.227 207.13
L323.144 222.096
L324.062 231.9
L324.979 234.272
L326.813 154.784
L327.731 148.634
L328.648 165.319
L329.565 205.311
L330.482 215.648
L331.4 148.216
L332.317 126.356
L334.151 229.031
L335.069 230.247
L335.986 219.145
L336.903 168.834
L337.82 189.481
L338.738 213.044
L339.655 160.608
L340.572 193.109
L341.489 192.152
L342.407 128.402
L343.324 130.581
L344.241 179.694
L345.159 217.155
L346.076 199.593
L346.993 144.013
L347.91 146.213
L348.828 164.623
L349.745 179.868
L350.662 177.644
L351.579 148.452
L352.497 155.367
L353.414 153.276
L354.331 155.203
L356.166 170.027
L357.083 166.468
L358 181.213
L358.917 166.89
L359.835 195.012
L360.752 196.117
L361.669 193.557
L362.586 181.762
L363.504 168.222
L364.421 157.473
L365.338 191.512
L366.256 138.916
L367.173 130.024
L368.09 142.762
L369.007 153.735
L369.925 166.153
L370.842 193.25
L371.759 225.153
L372.676 208.042
L373.594 244.001
L374.511 191.218
L374.511 191.218" style="fill:none;stroke:#bfbf00;stroke-linecap:square;"/>
   </g>
   <g id="line2d_14">
    <path clip-path="url(#p705cba3da1)" d="
M40.6281 137.305
L41.5454 152.64
L42.4626 146.502
L43.3799 134.994
L44.2972 161.748
L45.2144 184.565
L46.1317 198.098
L47.0489 179.577
L47.9662 190.347
L48.8835 225.875
L49.8007 173.571
L50.718 183.669
L51.6352 136.75
L52.5525 122.293
L53.4698 167.749
L54.387 183.325
L55.3043 148.894
L56.2215 204.671
M58.9733 240.95
L59.8906 218.303
L60.8079 243.569
L61.7251 221.947
L62.6424 216.317
L63.5596 238.059
L64.4769 170.877
L65.3942 152.872
L66.3114 127.673
L67.2287 193.941
L68.1459 160.296
L69.0632 216.094
L69.9805 208.929
L70.8977 166.757
L71.815 159.285
L72.7322 157.21
L73.6495 158.987
L74.5668 133.382
L75.484 202.653
L76.4013 235.747
L77.3185 199.029
L78.2358 223.762
L79.1531 231.29
L80.0703 194.641
L81.9048 220.507
L82.8221 174.458
L83.7394 173.958
L84.6566 205.103
L85.5739 185.07
L86.4911 211.283
M88.3257 218.03
L89.2429 179.54
L90.1602 128.121
L91.0774 207.386
L91.9947 170.697
L93.8292 142.323
L94.7465 198.063
L95.6637 233.743
L96.581 180.839
L97.4983 201.172
L98.4155 165.151
L99.3328 152.419
L100.25 192.802
L101.167 124.663
L102.085 119.235
L103.002 121.296
L103.919 134.004
L104.836 178.319
L105.754 191.798
L106.671 203.437
M108.505 204.536
L109.423 230.729
L110.34 232.376
M112.174 198.434
L113.092 214.667
L114.009 169.675
L114.926 104.635
L115.843 150.998
L116.761 118.53
L117.678 163.473
L118.595 219.5
L119.513 135.637
L120.43 185.165
L121.347 198.834
L122.264 221.287
L123.182 122.928
L124.099 92.8841
L125.016 116.807
L125.933 107.507
L126.851 152.712
L127.768 115.184
L128.685 109.696
L129.602 78.6179
L130.52 75.6294
L131.437 108.367
L132.354 99.4322
L133.271 173.788
L134.189 138.373
L135.106 170.004
L136.023 117.319
L136.94 77.1854
L137.858 187.053
L138.775 140.462
L139.692 141.083
L140.609 172.144
L141.527 120.75
L142.444 96.6283
L143.361 103.203
L144.279 141.233
L145.196 130.022
L146.113 159.158
L147.03 243.098
L147.948 88.072
L148.865 128.863
L149.782 84.4009
L150.699 181.234
L151.617 105.618
L152.534 88.8239
L153.451 184.738
L154.368 215.093
L155.286 121.376
L156.203 70.9528
L158.037 75.6071
L158.955 92.448
L159.872 53.7387
L160.789 63.621
L161.706 76.4452
L162.624 82.3961
L163.541 106.732
L164.458 150.741
L165.376 110.663
L166.293 134.353
L167.21 81.2222
L168.127 70.3042
L169.045 95.0919
L169.962 156.809
L170.879 164.678
L171.796 147.777
L172.714 109.696
L173.631 201.07
L174.548 204.906
L175.465 157.649
L176.383 86.6376
L177.3 84.968
L178.217 97.7427
L179.134 103.877
L180.052 100.277
L180.969 141.814
L181.886 116.755
L182.803 144.552
L183.721 216.3
L184.638 94.1253
L185.555 114.399
L186.473 126.162
L187.39 192.981
L188.307 127.65
L189.224 83.5302
L190.142 115.56
L191.976 70.0677
L192.893 81.0161
L193.811 99.548
L194.728 107.355
L195.645 79.144
L196.562 95.1114
L197.48 78.4187
L198.397 102.183
L199.314 110.807
L200.231 99.3075
L201.149 99.2671
L202.066 94.1451
L202.983 92.3291
L203.9 84.1393
L204.818 99.7805
L205.735 96.757
L206.652 108.266
L207.569 135.189
L208.487 114.491
L209.404 101.748
L210.321 97.034
L211.239 118.544
L212.156 123.815
L213.073 123.531
L213.99 148.311
L214.908 132.273
L215.825 124.344
L216.742 128.305
L217.659 131.229
L218.577 158.262
L219.494 167.877
L220.411 135.591
L221.328 150.899
L222.246 115.423
L223.163 116.206
L224.08 137.129
L224.997 113.063
L225.915 118.78
L226.832 118.908
L227.749 121.778
L228.666 119.2
L229.584 119.791
L230.501 125.161
L231.418 128.939
L232.336 128.016
L233.253 123.618
L234.17 127.074
L235.087 121.994
L236.005 120.77
L236.922 110.113
L237.839 111.931
L238.756 115.867
L239.674 128.939
L240.591 127.42
L241.508 134.876
L242.425 143.403
L243.343 133.164
L244.26 148.334
L245.177 126.573
L246.094 139.798
L247.012 140.063
L247.929 136.837
L248.846 131.641
L249.763 130.396
L250.681 134.613
L251.598 131.526
L252.515 160.738
L253.433 139.062
L254.35 142.46
L255.267 131.76
L256.184 124.489
L257.102 104.6
L258.019 114.27
L258.936 140.337
L259.853 142.292
L260.771 125.555
L261.688 124.564
L262.605 119.29
L263.522 153.023
L264.44 134.021
L265.357 104.128
L267.191 118.333
L268.109 123.361
L269.026 146.45
L269.943 119.821
L270.86 125.166
L271.778 131.25
L272.695 122.226
L273.612 115.937
L274.529 101.876
L275.447 112.602
L276.364 125.941
L277.281 121.571
L278.199 128.83
L279.116 125.066
L280.033 123.147
L280.95 138.842
L281.868 144.643
L282.785 146.334
L283.702 141.525
L284.619 201.207
L285.537 152.771
L286.454 153.082
L287.371 149.27
L288.288 133.746
L289.206 140.202
L290.123 142.543
L291.04 140.53
L291.957 132.618
L292.875 132.815
L293.792 107.906
L294.709 108.472
L295.626 101.748
L296.544 105.043
L297.461 110.154
L298.378 110.26
L299.296 124.824
L300.213 131.127
L301.13 132.919
L302.047 132.895
L302.965 185.711
L303.882 157.432
L304.799 167.894
L305.716 171.97
L306.634 141.224
L307.551 127.831
L309.385 183.285
L310.303 144.544
L311.22 228.387
L312.137 241.905
L313.054 215.761
L313.972 218.249
L314.889 174.253
L315.806 190.591
L316.723 223.826
L317.641 173.663
L318.558 156.098
L319.475 149.517
L320.393 179.994
L321.31 161.39
L322.227 173.518
L323.144 161.922
L324.062 181.388
L324.979 167.026
L325.896 181.571
L326.813 201.18
L327.731 239.976
L328.648 215.996
L329.565 219.966
L330.482 210.436
L331.4 216.502
L332.317 213.057
L333.234 202.74
L334.151 184.828
L335.069 217.855
L335.986 210.304
L336.903 209.747
L337.82 198.148
L338.738 222.907
L339.655 172.684
L340.572 139.629
L341.489 194.274
L342.407 216.216
L343.324 191.51
L344.241 170.568
L345.159 190.568
L346.076 204
L346.993 224.378
L347.91 221.53
L348.828 241.173
L349.745 175.255
L350.662 210.419
L351.579 225.89
L352.497 203.431
L353.414 185.126
L354.331 214.035
L355.248 191.027
L356.166 230.779
L357.083 202.287
L358 236.25
L358.917 206.358
L359.835 222.492
L360.752 225.197
M362.586 222.412
L363.504 205.77
L364.421 198.74
L365.338 135.339
L366.256 128.078
L367.173 187.06
L368.09 228.799
L369.007 228.781
L369.925 200.122
L370.842 231.081
L371.759 235.982
L372.676 207.109
L373.594 205.412
L374.511 238.114
L374.511 238.114" style="fill:none;stroke:#000000;stroke-linecap:square;"/>
   </g>
   <g id="line2d_15">
    <path clip-path="url(#p705cba3da1)" d="
M0 0" style="fill:none;stroke:#0000ff;stroke-linecap:square;"/>
   </g>
   <g id="line2d_16">
    <path clip-path="url(#p705cba3da1)" d="
M0 0" style="fill:none;stroke:#008000;stroke-linecap:square;"/>
   </g>
   <g id="patch_3">
    <path d="
M375.428 244.518
L375.428 21.3181" style="fill:none;stroke:#000000;stroke-linecap:square;stroke-linejoin:miter;"/>
   </g>
   <g id="patch_4">
    <path d="
M40.6281 244.518
L375.428 244.518" style="fill:none;stroke:#000000;stroke-linecap:square;stroke-linejoin:miter;"/>
   </g>
   <g id="patch_5">
    <path d="
M40.6281 21.3181
L375.428 21.3181" style="fill:none;stroke:#000000;stroke-linecap:square;stroke-linejoin:miter;"/>
   </g>
   <g id="patch_6">
    <path d="
M40.6281 244.518
L40.6281 21.3181" style="fill:none;stroke:#000000;stroke-linecap:square;stroke-linejoin:miter;"/>
   </g>
   <g id="matplotlib.axis_1">
    <g id="xtick_1">
     <g id="line2d_17">
      <defs>
       <path d="
M0 0
L0 -4" id="mc7db9fdffb" style="stroke:#000000;stroke-width:0.5;"/>
      </defs>
      <g>
       <use style="stroke:#000000;stroke-width:0.5;" x="40.628125" xlink:href="#mc7db9fdffb" y="244.518125"/>
      </g>
     </g>
     <g id="line2d_18">
      <defs>
       <path d="
M0 0
L0 4" id="m5a7d422ac3" style="stroke:#000000;stroke-width:0.5;"/>
      </defs>
      <g>
       <use style="stroke:#000000;stroke-width:0.5;" x="40.628125" xlink:href="#m5a7d422ac3" y="21.318125"/>
      </g>
     </g>
     <g id="text_1">
      <!-- 0 -->
      <defs>
       <path d="
M31.7812 66.4062
Q24.1719 66.4062 20.3281 58.9062
Q16.5 51.4219 16.5 36.375
Q16.5 21.3906 20.3281 13.8906
Q24.1719 6.39062 31.7812 6.39062
Q39.4531 6.39062 43.2812 13.8906
Q47.125 21.3906 47.125 36.375
Q47.125 51.4219 43.2812 58.9062
Q39.4531 66.4062 31.7812 66.4062
M31.7812 74.2188
Q44.0469 74.2188 50.5156 64.5156
Q56.9844 54.8281 56.9844 36.375
Q56.9844 17.9688 50.5156 8.26562
Q44.0469 -1.42188 31.7812 -1.42188
Q19.5312 -1.42188 13.0625 8.26562
Q6.59375 17.9688 6.59375 36.375
Q6.59375 54.8281 13.0625 64.5156
Q19.5312 74.2188 31.7812 74.2188" id="BitstreamVeraSans-Roman-30"/>
      </defs>
      <g transform="translate(38.10859375 256.1165625)scale(0.1 -0.1)">
       <use xlink:href="#BitstreamVeraSans-Roman-30"/>
      </g>
     </g>
    </g>
    <g id="xtick_2">
     <g id="line2d_19">
      <g>
       <use style="stroke:#000000;stroke-width:0.5;" x="86.4911386986" xlink:href="#mc7db9fdffb" y="244.518125"/>
      </g>
     </g>
     <g id="line2d_20">
      <g>
       <use style="stroke:#000000;stroke-width:0.5;" x="86.4911386986" xlink:href="#m5a7d422ac3" y="21.318125"/>
      </g>
     </g>
     <g id="text_2">
      <!-- 50 -->
      <defs>
       <path d="
M10.7969 72.9062
L49.5156 72.9062
L49.5156 64.5938
L19.8281 64.5938
L19.8281 46.7344
Q21.9688 47.4688 24.1094 47.8281
Q26.2656 48.1875 28.4219 48.1875
Q40.625 48.1875 47.75 41.5
Q54.8906 34.8125 54.8906 23.3906
Q54.8906 11.625 47.5625 5.09375
Q40.2344 -1.42188 26.9062 -1.42188
Q22.3125 -1.42188 17.5469 -0.640625
Q12.7969 0.140625 7.71875 1.70312
L7.71875 11.625
Q12.1094 9.23438 16.7969 8.0625
Q21.4844 6.89062 26.7031 6.89062
Q35.1562 6.89062 40.0781 11.3281
Q45.0156 15.7656 45.0156 23.3906
Q45.0156 31 40.0781 35.4375
Q35.1562 39.8906 26.7031 39.8906
Q22.75 39.8906 18.8125 39.0156
Q14.8906 38.1406 10.7969 36.2812
z
" id="BitstreamVeraSans-Roman-35"/>
      </defs>
      <g transform="translate(80.8466074486 256.1165625)scale(0.1 -0.1)">
       <use xlink:href="#BitstreamVeraSans-Roman-35"/>
       <use x="63.623046875" xlink:href="#BitstreamVeraSans-Roman-30"/>
      </g>
     </g>
    </g>
    <g id="xtick_3">
     <g id="line2d_21">
      <g>
       <use style="stroke:#000000;stroke-width:0.5;" x="132.354152397" xlink:href="#mc7db9fdffb" y="244.518125"/>
      </g>
     </g>
     <g id="line2d_22">
      <g>
       <use style="stroke:#000000;stroke-width:0.5;" x="132.354152397" xlink:href="#m5a7d422ac3" y="21.318125"/>
      </g>
     </g>
     <g id="text_3">
      <!-- 100 -->
      <defs>
       <path d="
M12.4062 8.29688
L28.5156 8.29688
L28.5156 63.9219
L10.9844 60.4062
L10.9844 69.3906
L28.4219 72.9062
L38.2812 72.9062
L38.2812 8.29688
L54.3906 8.29688
L54.3906 0
L12.4062 0
z
" id="BitstreamVeraSans-Roman-31"/>
      </defs>
      <g transform="translate(123.691652397 256.1165625)scale(0.1 -0.1)">
       <use xlink:href="#BitstreamVeraSans-Roman-31"/>
       <use x="63.623046875" xlink:href="#BitstreamVeraSans-Roman-30"/>
       <use x="127.24609375" xlink:href="#BitstreamVeraSans-Roman-30"/>
      </g>
     </g>
    </g>
    <g id="xtick_4">
     <g id="line2d_23">
      <g>
       <use style="stroke:#000000;stroke-width:0.5;" x="178.217166096" xlink:href="#mc7db9fdffb" y="244.518125"/>
      </g>
     </g>
     <g id="line2d_24">
      <g>
       <use style="stroke:#000000;stroke-width:0.5;" x="178.217166096" xlink:href="#m5a7d422ac3" y="21.318125"/>
      </g>
     </g>
     <g id="text_4">
      <!-- 150 -->
      <g transform="translate(169.554666096 256.1165625)scale(0.1 -0.1)">
       <use xlink:href="#BitstreamVeraSans-Roman-31"/>
       <use x="63.623046875" xlink:href="#BitstreamVeraSans-Roman-35"/>
       <use x="127.24609375" xlink:href="#BitstreamVeraSans-Roman-30"/>
      </g>
     </g>
    </g>
    <g id="xtick_5">
     <g id="line2d_25">
      <g>
       <use style="stroke:#000000;stroke-width:0.5;" x="224.080179795" xlink:href="#mc7db9fdffb" y="244.518125"/>
      </g>
     </g>
     <g id="line2d_26">
      <g>
       <use style="stroke:#000000;stroke-width:0.5;" x="224.080179795" xlink:href="#m5a7d422ac3" y="21.318125"/>
      </g>
     </g>
     <g id="text_5">
      <!-- 200 -->
      <defs>
       <path d="
M19.1875 8.29688
L53.6094 8.29688
L53.6094 0
L7.32812 0
L7.32812 8.29688
Q12.9375 14.1094 22.625 23.8906
Q32.3281 33.6875 34.8125 36.5312
Q39.5469 41.8438 41.4219 45.5312
Q43.3125 49.2188 43.3125 52.7812
Q43.3125 58.5938 39.2344 62.25
Q35.1562 65.9219 28.6094 65.9219
Q23.9688 65.9219 18.8125 64.3125
Q13.6719 62.7031 7.8125 59.4219
L7.8125 69.3906
Q13.7656 71.7812 18.9375 73
Q24.125 74.2188 28.4219 74.2188
Q39.75 74.2188 46.4844 68.5469
Q53.2188 62.8906 53.2188 53.4219
Q53.2188 48.9219 51.5312 44.8906
Q49.8594 40.875 45.4062 35.4062
Q44.1875 33.9844 37.6406 27.2188
Q31.1094 20.4531 19.1875 8.29688" id="BitstreamVeraSans-Roman-32"/>
      </defs>
      <g transform="translate(215.234867295 256.1165625)scale(0.1 -0.1)">
       <use xlink:href="#BitstreamVeraSans-Roman-32"/>
       <use x="63.623046875" xlink:href="#BitstreamVeraSans-Roman-30"/>
       <use x="127.24609375" xlink:href="#BitstreamVeraSans-Roman-30"/>
      </g>
     </g>
    </g>
    <g id="xtick_6">
     <g id="line2d_27">
      <g>
       <use style="stroke:#000000;stroke-width:0.5;" x="269.943193493" xlink:href="#mc7db9fdffb" y="244.518125"/>
      </g>
     </g>
     <g id="line2d_28">
      <g>
       <use style="stroke:#000000;stroke-width:0.5;" x="269.943193493" xlink:href="#m5a7d422ac3" y="21.318125"/>
      </g>
     </g>
     <g id="text_6">
      <!-- 250 -->
      <g transform="translate(261.097880993 256.1165625)scale(0.1 -0.1)">
       <use xlink:href="#BitstreamVeraSans-Roman-32"/>
       <use x="63.623046875" xlink:href="#BitstreamVeraSans-Roman-35"/>
       <use x="127.24609375" xlink:href="#BitstreamVeraSans-Roman-30"/>
      </g>
     </g>
    </g>
    <g id="xtick_7">
     <g id="line2d_29">
      <g>
       <use style="stroke:#000000;stroke-width:0.5;" x="315.806207192" xlink:href="#mc7db9fdffb" y="244.518125"/>
      </g>
     </g>
     <g id="line2d_30">
      <g>
       <use style="stroke:#000000;stroke-width:0.5;" x="315.806207192" xlink:href="#m5a7d422ac3" y="21.318125"/>
      </g>
     </g>
     <g id="text_7">
      <!-- 300 -->
      <defs>
       <path d="
M40.5781 39.3125
Q47.6562 37.7969 51.625 33
Q55.6094 28.2188 55.6094 21.1875
Q55.6094 10.4062 48.1875 4.48438
Q40.7656 -1.42188 27.0938 -1.42188
Q22.5156 -1.42188 17.6562 -0.515625
Q12.7969 0.390625 7.625 2.20312
L7.625 11.7188
Q11.7188 9.32812 16.5938 8.10938
Q21.4844 6.89062 26.8125 6.89062
Q36.0781 6.89062 40.9375 10.5469
Q45.7969 14.2031 45.7969 21.1875
Q45.7969 27.6406 41.2812 31.2656
Q36.7656 34.9062 28.7188 34.9062
L20.2188 34.9062
L20.2188 43.0156
L29.1094 43.0156
Q36.375 43.0156 40.2344 45.9219
Q44.0938 48.8281 44.0938 54.2969
Q44.0938 59.9062 40.1094 62.9062
Q36.1406 65.9219 28.7188 65.9219
Q24.6562 65.9219 20.0156 65.0312
Q15.375 64.1562 9.8125 62.3125
L9.8125 71.0938
Q15.4375 72.6562 20.3438 73.4375
Q25.25 74.2188 29.5938 74.2188
Q40.8281 74.2188 47.3594 69.1094
Q53.9062 64.0156 53.9062 55.3281
Q53.9062 49.2656 50.4375 45.0938
Q46.9688 40.9219 40.5781 39.3125" id="BitstreamVeraSans-Roman-33"/>
      </defs>
      <g transform="translate(306.975738442 256.1165625)scale(0.1 -0.1)">
       <use xlink:href="#BitstreamVeraSans-Roman-33"/>
       <use x="63.623046875" xlink:href="#BitstreamVeraSans-Roman-30"/>
       <use x="127.24609375" xlink:href="#BitstreamVeraSans-Roman-30"/>
      </g>
     </g>
    </g>
    <g id="xtick_8">
     <g id="line2d_31">
      <g>
       <use style="stroke:#000000;stroke-width:0.5;" x="361.66922089" xlink:href="#mc7db9fdffb" y="244.518125"/>
      </g>
     </g>
     <g id="line2d_32">
      <g>
       <use style="stroke:#000000;stroke-width:0.5;" x="361.66922089" xlink:href="#m5a7d422ac3" y="21.318125"/>
      </g>
     </g>
     <g id="text_8">
      <!-- 350 -->
      <g transform="translate(352.83875214 256.1165625)scale(0.1 -0.1)">
       <use xlink:href="#BitstreamVeraSans-Roman-33"/>
       <use x="63.623046875" xlink:href="#BitstreamVeraSans-Roman-35"/>
       <use x="127.24609375" xlink:href="#BitstreamVeraSans-Roman-30"/>
      </g>
     </g>
    </g>
    <g id="text_9">
     <!-- Julian day -->
     <defs>
      <path d="
M32.1719 -5.07812
Q28.375 -14.8438 24.75 -17.8125
Q21.1406 -20.7969 15.0938 -20.7969
L7.90625 -20.7969
L7.90625 -13.2812
L13.1875 -13.2812
Q16.8906 -13.2812 18.9375 -11.5156
Q21 -9.76562 23.4844 -3.21875
L25.0938 0.875
L2.98438 54.6875
L12.5 54.6875
L29.5938 11.9219
L46.6875 54.6875
L56.2031 54.6875
z
" id="BitstreamVeraSans-Roman-79"/>
      <path d="
M45.4062 46.3906
L45.4062 75.9844
L54.3906 75.9844
L54.3906 0
L45.4062 0
L45.4062 8.20312
Q42.5781 3.32812 38.25 0.953125
Q33.9375 -1.42188 27.875 -1.42188
Q17.9688 -1.42188 11.7344 6.48438
Q5.51562 14.4062 5.51562 27.2969
Q5.51562 40.1875 11.7344 48.0938
Q17.9688 56 27.875 56
Q33.9375 56 38.25 53.625
Q42.5781 51.2656 45.4062 46.3906
M14.7969 27.2969
Q14.7969 17.3906 18.875 11.75
Q22.9531 6.10938 30.0781 6.10938
Q37.2031 6.10938 41.2969 11.75
Q45.4062 17.3906 45.4062 27.2969
Q45.4062 37.2031 41.2969 42.8438
Q37.2031 48.4844 30.0781 48.4844
Q22.9531 48.4844 18.875 42.8438
Q14.7969 37.2031 14.7969 27.2969" id="BitstreamVeraSans-Roman-64"/>
      <path d="
M9.42188 75.9844
L18.4062 75.9844
L18.4062 0
L9.42188 0
z
" id="BitstreamVeraSans-Roman-6c"/>
      <path d="
M8.5 21.5781
L8.5 54.6875
L17.4844 54.6875
L17.4844 21.9219
Q17.4844 14.1562 20.5 10.2656
Q23.5312 6.39062 29.5938 6.39062
Q36.8594 6.39062 41.0781 11.0312
Q45.3125 15.6719 45.3125 23.6875
L45.3125 54.6875
L54.2969 54.6875
L54.2969 0
L45.3125 0
L45.3125 8.40625
Q42.0469 3.42188 37.7188 1
Q33.4062 -1.42188 27.6875 -1.42188
Q18.2656 -1.42188 13.375 4.4375
Q8.5 10.2969 8.5 21.5781" id="BitstreamVeraSans-Roman-75"/>
      <path id="BitstreamVeraSans-Roman-20"/>
      <path d="
M34.2812 27.4844
Q23.3906 27.4844 19.1875 25
Q14.9844 22.5156 14.9844 16.5
Q14.9844 11.7188 18.1406 8.90625
Q21.2969 6.10938 26.7031 6.10938
Q34.1875 6.10938 38.7031 11.4062
Q43.2188 16.7031 43.2188 25.4844
L43.2188 27.4844
z

M52.2031 31.2031
L52.2031 0
L43.2188 0
L43.2188 8.29688
Q40.1406 3.32812 35.5469 0.953125
Q30.9531 -1.42188 24.3125 -1.42188
Q15.9219 -1.42188 10.9531 3.29688
Q6 8.01562 6 15.9219
Q6 25.1406 12.1719 29.8281
Q18.3594 34.5156 30.6094 34.5156
L43.2188 34.5156
L43.2188 35.4062
Q43.2188 41.6094 39.1406 45
Q35.0625 48.3906 27.6875 48.3906
Q23 48.3906 18.5469 47.2656
Q14.1094 46.1406 10.0156 43.8906
L10.0156 52.2031
Q14.9375 54.1094 19.5781 55.0469
Q24.2188 56 28.6094 56
Q40.4844 56 46.3438 49.8438
Q52.2031 43.7031 52.2031 31.2031" id="BitstreamVeraSans-Roman-61"/>
      <path d="
M54.8906 33.0156
L54.8906 0
L45.9062 0
L45.9062 32.7188
Q45.9062 40.4844 42.875 44.3281
Q39.8438 48.1875 33.7969 48.1875
Q26.5156 48.1875 22.3125 43.5469
Q18.1094 38.9219 18.1094 30.9062
L18.1094 0
L9.07812 0
L9.07812 54.6875
L18.1094 54.6875
L18.1094 46.1875
Q21.3438 51.125 25.7031 53.5625
Q30.0781 56 35.7969 56
Q45.2188 56 50.0469 50.1719
Q54.8906 44.3438 54.8906 33.0156" id="BitstreamVeraSans-Roman-6e"/>
      <path d="
M9.8125 72.9062
L19.6719 72.9062
L19.6719 5.07812
Q19.6719 -8.10938 14.6719 -14.0625
Q9.67188 -20.0156 -1.42188 -20.0156
L-5.17188 -20.0156
L-5.17188 -11.7188
L-2.09375 -11.7188
Q4.4375 -11.7188 7.125 -8.04688
Q9.8125 -4.39062 9.8125 5.07812
z
" id="BitstreamVeraSans-Roman-4a"/>
      <path d="
M9.42188 54.6875
L18.4062 54.6875
L18.4062 0
L9.42188 0
z

M9.42188 75.9844
L18.4062 75.9844
L18.4062 64.5938
L9.42188 64.5938
z
" id="BitstreamVeraSans-Roman-69"/>
     </defs>
     <g transform="translate(183.47734375 270.7946875)scale(0.1 -0.1)">
      <use xlink:href="#BitstreamVeraSans-Roman-4a"/>
      <use x="29.4921875" xlink:href="#BitstreamVeraSans-Roman-75"/>
      <use x="92.87109375" xlink:href="#BitstreamVeraSans-Roman-6c"/>
      <use x="120.654296875" xlink:href="#BitstreamVeraSans-Roman-69"/>
      <use x="148.4375" xlink:href="#BitstreamVeraSans-Roman-61"/>
      <use x="209.716796875" xlink:href="#BitstreamVeraSans-Roman-6e"/>
      <use x="273.095703125" xlink:href="#BitstreamVeraSans-Roman-20"/>
      <use x="304.8828125" xlink:href="#BitstreamVeraSans-Roman-64"/>
      <use x="368.359375" xlink:href="#BitstreamVeraSans-Roman-61"/>
      <use x="429.638671875" xlink:href="#BitstreamVeraSans-Roman-79"/>
     </g>
    </g>
   </g>
   <g id="matplotlib.axis_2">
    <g id="ytick_1">
     <g id="line2d_33">
      <defs>
       <path d="
M0 0
L4 0" id="md7965d1ba0" style="stroke:#000000;stroke-width:0.5;"/>
      </defs>
      <g>
       <use style="stroke:#000000;stroke-width:0.5;" x="40.628125" xlink:href="#md7965d1ba0" y="244.518125"/>
      </g>
     </g>
     <g id="line2d_34">
      <defs>
       <path d="
M0 0
L-4 0" id="md9a1c1a7cd" style="stroke:#000000;stroke-width:0.5;"/>
      </defs>
      <g>
       <use style="stroke:#000000;stroke-width:0.5;" x="375.428125" xlink:href="#md9a1c1a7cd" y="244.518125"/>
      </g>
     </g>
     <g id="text_10">
      <!-- 0.0 -->
      <defs>
       <path d="
M10.6875 12.4062
L21 12.4062
L21 0
L10.6875 0
z
" id="BitstreamVeraSans-Roman-2e"/>
      </defs>
      <g transform="translate(22.0484375 247.2775)scale(0.1 -0.1)">
       <use xlink:href="#BitstreamVeraSans-Roman-30"/>
       <use x="63.623046875" xlink:href="#BitstreamVeraSans-Roman-2e"/>
       <use x="95.41015625" xlink:href="#BitstreamVeraSans-Roman-30"/>
      </g>
     </g>
    </g>
    <g id="ytick_2">
     <g id="line2d_35">
      <g>
       <use style="stroke:#000000;stroke-width:0.5;" x="40.628125" xlink:href="#md7965d1ba0" y="216.618125"/>
      </g>
     </g>
     <g id="line2d_36">
      <g>
       <use style="stroke:#000000;stroke-width:0.5;" x="375.428125" xlink:href="#md9a1c1a7cd" y="216.618125"/>
      </g>
     </g>
     <g id="text_11">
      <!-- 0.5 -->
      <g transform="translate(22.2578125 219.3775)scale(0.1 -0.1)">
       <use xlink:href="#BitstreamVeraSans-Roman-30"/>
       <use x="63.623046875" xlink:href="#BitstreamVeraSans-Roman-2e"/>
       <use x="95.41015625" xlink:href="#BitstreamVeraSans-Roman-35"/>
      </g>
     </g>
    </g>
    <g id="ytick_3">
     <g id="line2d_37">
      <g>
       <use style="stroke:#000000;stroke-width:0.5;" x="40.628125" xlink:href="#md7965d1ba0" y="188.718125"/>
      </g>
     </g>
     <g id="line2d_38">
      <g>
       <use style="stroke:#000000;stroke-width:0.5;" x="375.428125" xlink:href="#md9a1c1a7cd" y="188.718125"/>
      </g>
     </g>
     <g id="text_12">
      <!-- 1.0 -->
      <g transform="translate(22.4875 191.4775)scale(0.1 -0.1)">
       <use xlink:href="#BitstreamVeraSans-Roman-31"/>
       <use x="63.623046875" xlink:href="#BitstreamVeraSans-Roman-2e"/>
       <use x="95.41015625" xlink:href="#BitstreamVeraSans-Roman-30"/>
      </g>
     </g>
    </g>
    <g id="ytick_4">
     <g id="line2d_39">
      <g>
       <use style="stroke:#000000;stroke-width:0.5;" x="40.628125" xlink:href="#md7965d1ba0" y="160.818125"/>
      </g>
     </g>
     <g id="line2d_40">
      <g>
       <use style="stroke:#000000;stroke-width:0.5;" x="375.428125" xlink:href="#md9a1c1a7cd" y="160.818125"/>
      </g>
     </g>
     <g id="text_13">
      <!-- 1.5 -->
      <g transform="translate(22.696875 163.5775)scale(0.1 -0.1)">
       <use xlink:href="#BitstreamVeraSans-Roman-31"/>
       <use x="63.623046875" xlink:href="#BitstreamVeraSans-Roman-2e"/>
       <use x="95.41015625" xlink:href="#BitstreamVeraSans-Roman-35"/>
      </g>
     </g>
    </g>
    <g id="ytick_5">
     <g id="line2d_41">
      <g>
       <use style="stroke:#000000;stroke-width:0.5;" x="40.628125" xlink:href="#md7965d1ba0" y="132.918125"/>
      </g>
     </g>
     <g id="line2d_42">
      <g>
       <use style="stroke:#000000;stroke-width:0.5;" x="375.428125" xlink:href="#md9a1c1a7cd" y="132.918125"/>
      </g>
     </g>
     <g id="text_14">
      <!-- 2.0 -->
      <g transform="translate(22.121875 135.6775)scale(0.1 -0.1)">
       <use xlink:href="#BitstreamVeraSans-Roman-32"/>
       <use x="63.623046875" xlink:href="#BitstreamVeraSans-Roman-2e"/>
       <use x="95.41015625" xlink:href="#BitstreamVeraSans-Roman-30"/>
      </g>
     </g>
    </g>
    <g id="ytick_6">
     <g id="line2d_43">
      <g>
       <use style="stroke:#000000;stroke-width:0.5;" x="40.628125" xlink:href="#md7965d1ba0" y="105.018125"/>
      </g>
     </g>
     <g id="line2d_44">
      <g>
       <use style="stroke:#000000;stroke-width:0.5;" x="375.428125" xlink:href="#md9a1c1a7cd" y="105.018125"/>
      </g>
     </g>
     <g id="text_15">
      <!-- 2.5 -->
      <g transform="translate(22.33125 107.7775)scale(0.1 -0.1)">
       <use xlink:href="#BitstreamVeraSans-Roman-32"/>
       <use x="63.623046875" xlink:href="#BitstreamVeraSans-Roman-2e"/>
       <use x="95.41015625" xlink:href="#BitstreamVeraSans-Roman-35"/>
      </g>
     </g>
    </g>
    <g id="ytick_7">
     <g id="line2d_45">
      <g>
       <use style="stroke:#000000;stroke-width:0.5;" x="40.628125" xlink:href="#md7965d1ba0" y="77.118125"/>
      </g>
     </g>
     <g id="line2d_46">
      <g>
       <use style="stroke:#000000;stroke-width:0.5;" x="375.428125" xlink:href="#md9a1c1a7cd" y="77.118125"/>
      </g>
     </g>
     <g id="text_16">
      <!-- 3.0 -->
      <g transform="translate(22.1515625 79.8775)scale(0.1 -0.1)">
       <use xlink:href="#BitstreamVeraSans-Roman-33"/>
       <use x="63.623046875" xlink:href="#BitstreamVeraSans-Roman-2e"/>
       <use x="95.41015625" xlink:href="#BitstreamVeraSans-Roman-30"/>
      </g>
     </g>
    </g>
    <g id="ytick_8">
     <g id="line2d_47">
      <g>
       <use style="stroke:#000000;stroke-width:0.5;" x="40.628125" xlink:href="#md7965d1ba0" y="49.218125"/>
      </g>
     </g>
     <g id="line2d_48">
      <g>
       <use style="stroke:#000000;stroke-width:0.5;" x="375.428125" xlink:href="#md9a1c1a7cd" y="49.218125"/>
      </g>
     </g>
     <g id="text_17">
      <!-- 3.5 -->
      <g transform="translate(22.3609375 51.9775)scale(0.1 -0.1)">
       <use xlink:href="#BitstreamVeraSans-Roman-33"/>
       <use x="63.623046875" xlink:href="#BitstreamVeraSans-Roman-2e"/>
       <use x="95.41015625" xlink:href="#BitstreamVeraSans-Roman-35"/>
      </g>
     </g>
    </g>
    <g id="ytick_9">
     <g id="line2d_49">
      <g>
       <use style="stroke:#000000;stroke-width:0.5;" x="40.628125" xlink:href="#md7965d1ba0" y="21.318125"/>
      </g>
     </g>
     <g id="line2d_50">
      <g>
       <use style="stroke:#000000;stroke-width:0.5;" x="375.428125" xlink:href="#md9a1c1a7cd" y="21.318125"/>
      </g>
     </g>
     <g id="text_18">
      <!-- 4.0 -->
      <defs>
       <path d="
M37.7969 64.3125
L12.8906 25.3906
L37.7969 25.3906
z

M35.2031 72.9062
L47.6094 72.9062
L47.6094 25.3906
L58.0156 25.3906
L58.0156 17.1875
L47.6094 17.1875
L47.6094 0
L37.7969 0
L37.7969 17.1875
L4.89062 17.1875
L4.89062 26.7031
z
" id="BitstreamVeraSans-Roman-34"/>
      </defs>
      <g transform="translate(21.878125 24.0775)scale(0.1 -0.1)">
       <use xlink:href="#BitstreamVeraSans-Roman-34"/>
       <use x="63.623046875" xlink:href="#BitstreamVeraSans-Roman-2e"/>
       <use x="95.41015625" xlink:href="#BitstreamVeraSans-Roman-30"/>
      </g>
     </g>
    </g>
    <g id="text_19">
     <!-- PET (mm/day) -->
     <defs>
      <path d="
M31 75.875
Q24.4688 64.6562 21.2812 53.6562
Q18.1094 42.6719 18.1094 31.3906
Q18.1094 20.125 21.3125 9.0625
Q24.5156 -2 31 -13.1875
L23.1875 -13.1875
Q15.875 -1.70312 12.2344 9.375
Q8.59375 20.4531 8.59375 31.3906
Q8.59375 42.2812 12.2031 53.3125
Q15.8281 64.3594 23.1875 75.875
z
" id="BitstreamVeraSans-Roman-28"/>
      <path d="
M52 44.1875
Q55.375 50.25 60.0625 53.125
Q64.75 56 71.0938 56
Q79.6406 56 84.2812 50.0156
Q88.9219 44.0469 88.9219 33.0156
L88.9219 0
L79.8906 0
L79.8906 32.7188
Q79.8906 40.5781 77.0938 44.375
Q74.3125 48.1875 68.6094 48.1875
Q61.625 48.1875 57.5625 43.5469
Q53.5156 38.9219 53.5156 30.9062
L53.5156 0
L44.4844 0
L44.4844 32.7188
Q44.4844 40.625 41.7031 44.4062
Q38.9219 48.1875 33.1094 48.1875
Q26.2188 48.1875 22.1562 43.5312
Q18.1094 38.875 18.1094 30.9062
L18.1094 0
L9.07812 0
L9.07812 54.6875
L18.1094 54.6875
L18.1094 46.1875
Q21.1875 51.2188 25.4844 53.6094
Q29.7812 56 35.6875 56
Q41.6562 56 45.8281 52.9688
Q50 49.9531 52 44.1875" id="BitstreamVeraSans-Roman-6d"/>
      <path d="
M9.8125 72.9062
L55.9062 72.9062
L55.9062 64.5938
L19.6719 64.5938
L19.6719 43.0156
L54.3906 43.0156
L54.3906 34.7188
L19.6719 34.7188
L19.6719 8.29688
L56.7812 8.29688
L56.7812 0
L9.8125 0
z
" id="BitstreamVeraSans-Roman-45"/>
      <path d="
M-0.296875 72.9062
L61.375 72.9062
L61.375 64.5938
L35.5 64.5938
L35.5 0
L25.5938 0
L25.5938 64.5938
L-0.296875 64.5938
z
" id="BitstreamVeraSans-Roman-54"/>
      <path d="
M19.6719 64.7969
L19.6719 37.4062
L32.0781 37.4062
Q38.9688 37.4062 42.7188 40.9688
Q46.4844 44.5312 46.4844 51.125
Q46.4844 57.6719 42.7188 61.2344
Q38.9688 64.7969 32.0781 64.7969
z

M9.8125 72.9062
L32.0781 72.9062
Q44.3438 72.9062 50.6094 67.3594
Q56.8906 61.8125 56.8906 51.125
Q56.8906 40.3281 50.6094 34.8125
Q44.3438 29.2969 32.0781 29.2969
L19.6719 29.2969
L19.6719 0
L9.8125 0
z
" id="BitstreamVeraSans-Roman-50"/>
      <path d="
M25.3906 72.9062
L33.6875 72.9062
L8.29688 -9.28125
L0 -9.28125
z
" id="BitstreamVeraSans-Roman-2f"/>
      <path d="
M8.01562 75.875
L15.8281 75.875
Q23.1406 64.3594 26.7812 53.3125
Q30.4219 42.2812 30.4219 31.3906
Q30.4219 20.4531 26.7812 9.375
Q23.1406 -1.70312 15.8281 -13.1875
L8.01562 -13.1875
Q14.5 -2 17.7031 9.0625
Q20.9062 20.125 20.9062 31.3906
Q20.9062 42.6719 17.7031 53.6562
Q14.5 64.6562 8.01562 75.875" id="BitstreamVeraSans-Roman-29"/>
     </defs>
     <g transform="translate(14.7984375 167.82984375)rotate(-90.0)scale(0.1 -0.1)">
      <use xlink:href="#BitstreamVeraSans-Roman-50"/>
      <use x="60.302734375" xlink:href="#BitstreamVeraSans-Roman-45"/>
      <use x="123.486328125" xlink:href="#BitstreamVeraSans-Roman-54"/>
      <use x="184.5703125" xlink:href="#BitstreamVeraSans-Roman-20"/>
      <use x="216.357421875" xlink:href="#BitstreamVeraSans-Roman-28"/>
      <use x="255.37109375" xlink:href="#BitstreamVeraSans-Roman-6d"/>
      <use x="352.783203125" xlink:href="#BitstreamVeraSans-Roman-6d"/>
      <use x="450.1953125" xlink:href="#BitstreamVeraSans-Roman-2f"/>
      <use x="483.88671875" xlink:href="#BitstreamVeraSans-Roman-64"/>
      <use x="547.36328125" xlink:href="#BitstreamVeraSans-Roman-61"/>
      <use x="608.642578125" xlink:href="#BitstreamVeraSans-Roman-79"/>
      <use x="667.822265625" xlink:href="#BitstreamVeraSans-Roman-29"/>
     </g>
    </g>
   </g>
   <g id="text_20">
    <!-- daily tree PET at Treeline -->
    <defs>
     <path d="
M41.1094 46.2969
Q39.5938 47.1719 37.8125 47.5781
Q36.0312 48 33.8906 48
Q26.2656 48 22.1875 43.0469
Q18.1094 38.0938 18.1094 28.8125
L18.1094 0
L9.07812 0
L9.07812 54.6875
L18.1094 54.6875
L18.1094 46.1875
Q20.9531 51.1719 25.4844 53.5781
Q30.0312 56 36.5312 56
Q37.4531 56 38.5781 55.875
Q39.7031 55.7656 41.0625 55.5156
z
" id="BitstreamVeraSans-Roman-72"/>
     <path d="
M18.3125 70.2188
L18.3125 54.6875
L36.8125 54.6875
L36.8125 47.7031
L18.3125 47.7031
L18.3125 18.0156
Q18.3125 11.3281 20.1406 9.42188
Q21.9688 7.51562 27.5938 7.51562
L36.8125 7.51562
L36.8125 0
L27.5938 0
Q17.1875 0 13.2344 3.875
Q9.28125 7.76562 9.28125 18.0156
L9.28125 47.7031
L2.6875 47.7031
L2.6875 54.6875
L9.28125 54.6875
L9.28125 70.2188
z
" id="BitstreamVeraSans-Roman-74"/>
     <path d="
M56.2031 29.5938
L56.2031 25.2031
L14.8906 25.2031
Q15.4844 15.9219 20.4844 11.0625
Q25.4844 6.20312 34.4219 6.20312
Q39.5938 6.20312 44.4531 7.46875
Q49.3125 8.73438 54.1094 11.2812
L54.1094 2.78125
Q49.2656 0.734375 44.1875 -0.34375
Q39.1094 -1.42188 33.8906 -1.42188
Q20.7969 -1.42188 13.1562 6.1875
Q5.51562 13.8125 5.51562 26.8125
Q5.51562 40.2344 12.7656 48.1094
Q20.0156 56 32.3281 56
Q43.3594 56 49.7812 48.8906
Q56.2031 41.7969 56.2031 29.5938
M47.2188 32.2344
Q47.125 39.5938 43.0938 43.9844
Q39.0625 48.3906 32.4219 48.3906
Q24.9062 48.3906 20.3906 44.1406
Q15.875 39.8906 15.1875 32.1719
z
" id="BitstreamVeraSans-Roman-65"/>
    </defs>
    <g transform="translate(133.8559375 16.318125)scale(0.12 -0.12)">
     <use xlink:href="#BitstreamVeraSans-Roman-64"/>
     <use x="63.4765625" xlink:href="#BitstreamVeraSans-Roman-61"/>
     <use x="124.755859375" xlink:href="#BitstreamVeraSans-Roman-69"/>
     <use x="152.5390625" xlink:href="#BitstreamVeraSans-Roman-6c"/>
     <use x="180.322265625" xlink:href="#BitstreamVeraSans-Roman-79"/>
     <use x="239.501953125" xlink:href="#BitstreamVeraSans-Roman-20"/>
     <use x="271.2890625" xlink:href="#BitstreamVeraSans-Roman-74"/>
     <use x="310.498046875" xlink:href="#BitstreamVeraSans-Roman-72"/>
     <use x="349.361328125" xlink:href="#BitstreamVeraSans-Roman-65"/>
     <use x="410.884765625" xlink:href="#BitstreamVeraSans-Roman-65"/>
     <use x="472.408203125" xlink:href="#BitstreamVeraSans-Roman-20"/>
     <use x="504.1953125" xlink:href="#BitstreamVeraSans-Roman-50"/>
     <use x="564.498046875" xlink:href="#BitstreamVeraSans-Roman-45"/>
     <use x="627.681640625" xlink:href="#BitstreamVeraSans-Roman-54"/>
     <use x="688.765625" xlink:href="#BitstreamVeraSans-Roman-20"/>
     <use x="720.552734375" xlink:href="#BitstreamVeraSans-Roman-61"/>
     <use x="781.83203125" xlink:href="#BitstreamVeraSans-Roman-74"/>
     <use x="821.041015625" xlink:href="#BitstreamVeraSans-Roman-20"/>
     <use x="852.828125" xlink:href="#BitstreamVeraSans-Roman-54"/>
     <use x="899.162109375" xlink:href="#BitstreamVeraSans-Roman-72"/>
     <use x="938.025390625" xlink:href="#BitstreamVeraSans-Roman-65"/>
     <use x="999.548828125" xlink:href="#BitstreamVeraSans-Roman-65"/>
     <use x="1061.072265625" xlink:href="#BitstreamVeraSans-Roman-6c"/>
     <use x="1088.85546875" xlink:href="#BitstreamVeraSans-Roman-69"/>
     <use x="1116.638671875" xlink:href="#BitstreamVeraSans-Roman-6e"/>
     <use x="1180.017578125" xlink:href="#BitstreamVeraSans-Roman-65"/>
    </g>
   </g>
   <g id="legend_1">
    <g id="patch_7">
     <path d="
M297.241 312.738
L369.428 312.738
L369.428 27.3181
L297.241 27.3181
z
" style="fill:#ffffff;stroke:#000000;stroke-linejoin:miter;"/>
    </g>
    <g id="line2d_51">
     <path d="
M305.641 37.0363
L322.441 37.0363" style="fill:none;stroke:#0000ff;stroke-linecap:square;"/>
    </g>
    <g id="line2d_52"/>
    <g id="text_21">
     <!-- 1999 -->
     <defs>
      <path d="
M10.9844 1.51562
L10.9844 10.5
Q14.7031 8.73438 18.5 7.8125
Q22.3125 6.89062 25.9844 6.89062
Q35.75 6.89062 40.8906 13.4531
Q46.0469 20.0156 46.7812 33.4062
Q43.9531 29.2031 39.5938 26.9531
Q35.25 24.7031 29.9844 24.7031
Q19.0469 24.7031 12.6719 31.3125
Q6.29688 37.9375 6.29688 49.4219
Q6.29688 60.6406 12.9375 67.4219
Q19.5781 74.2188 30.6094 74.2188
Q43.2656 74.2188 49.9219 64.5156
Q56.5938 54.8281 56.5938 36.375
Q56.5938 19.1406 48.4062 8.85938
Q40.2344 -1.42188 26.4219 -1.42188
Q22.7031 -1.42188 18.8906 -0.6875
Q15.0938 0.046875 10.9844 1.51562
M30.6094 32.4219
Q37.25 32.4219 41.125 36.9531
Q45.0156 41.5 45.0156 49.4219
Q45.0156 57.2812 41.125 61.8438
Q37.25 66.4062 30.6094 66.4062
Q23.9688 66.4062 20.0938 61.8438
Q16.2188 57.2812 16.2188 49.4219
Q16.2188 41.5 20.0938 36.9531
Q23.9688 32.4219 30.6094 32.4219" id="BitstreamVeraSans-Roman-39"/>
     </defs>
     <g transform="translate(335.640625 41.23625)scale(0.12 -0.12)">
      <use xlink:href="#BitstreamVeraSans-Roman-31"/>
      <use x="63.623046875" xlink:href="#BitstreamVeraSans-Roman-39"/>
      <use x="127.24609375" xlink:href="#BitstreamVeraSans-Roman-39"/>
      <use x="190.869140625" xlink:href="#BitstreamVeraSans-Roman-39"/>
     </g>
    </g>
    <g id="line2d_53">
     <path d="
M305.641 54.65
L322.441 54.65" style="fill:none;stroke:#008000;stroke-linecap:square;"/>
    </g>
    <g id="line2d_54"/>
    <g id="text_22">
     <!-- 2000 -->
     <g transform="translate(335.640625 58.85)scale(0.12 -0.12)">
      <use xlink:href="#BitstreamVeraSans-Roman-32"/>
      <use x="63.623046875" xlink:href="#BitstreamVeraSans-Roman-30"/>
      <use x="127.24609375" xlink:href="#BitstreamVeraSans-Roman-30"/>
      <use x="190.869140625" xlink:href="#BitstreamVeraSans-Roman-30"/>
     </g>
    </g>
    <g id="line2d_55">
     <path d="
M305.641 72.2638
L322.441 72.2638" style="fill:none;stroke:#ff0000;stroke-linecap:square;"/>
    </g>
    <g id="line2d_56"/>
    <g id="text_23">
     <!-- 2001 -->
     <g transform="translate(335.640625 76.46375)scale(0.12 -0.12)">
      <use xlink:href="#BitstreamVeraSans-Roman-32"/>
      <use x="63.623046875" xlink:href="#BitstreamVeraSans-Roman-30"/>
      <use x="127.24609375" xlink:href="#BitstreamVeraSans-Roman-30"/>
      <use x="190.869140625" xlink:href="#BitstreamVeraSans-Roman-31"/>
     </g>
    </g>
    <g id="line2d_57">
     <path d="
M305.641 89.8775
L322.441 89.8775" style="fill:none;stroke:#00bfbf;stroke-linecap:square;"/>
    </g>
    <g id="line2d_58"/>
    <g id="text_24">
     <!-- 2002 -->
     <g transform="translate(335.640625 94.0775)scale(0.12 -0.12)">
      <use xlink:href="#BitstreamVeraSans-Roman-32"/>
      <use x="63.623046875" xlink:href="#BitstreamVeraSans-Roman-30"/>
      <use x="127.24609375" xlink:href="#BitstreamVeraSans-Roman-30"/>
      <use x="190.869140625" xlink:href="#BitstreamVeraSans-Roman-32"/>
     </g>
    </g>
    <g id="line2d_59">
     <path d="
M305.641 107.491
L322.441 107.491" style="fill:none;stroke:#bf00bf;stroke-linecap:square;"/>
    </g>
    <g id="line2d_60"/>
    <g id="text_25">
     <!-- 2003 -->
     <g transform="translate(335.640625 111.69125)scale(0.12 -0.12)">
      <use xlink:href="#BitstreamVeraSans-Roman-32"/>
      <use x="63.623046875" xlink:href="#BitstreamVeraSans-Roman-30"/>
      <use x="127.24609375" xlink:href="#BitstreamVeraSans-Roman-30"/>
      <use x="190.869140625" xlink:href="#BitstreamVeraSans-Roman-33"/>
     </g>
    </g>
    <g id="line2d_61">
     <path d="
M305.641 125.105
L322.441 125.105" style="fill:none;stroke:#bfbf00;stroke-linecap:square;"/>
    </g>
    <g id="line2d_62"/>
    <g id="text_26">
     <!-- 2004 -->
     <g transform="translate(335.640625 129.305)scale(0.12 -0.12)">
      <use xlink:href="#BitstreamVeraSans-Roman-32"/>
      <use x="63.623046875" xlink:href="#BitstreamVeraSans-Roman-30"/>
      <use x="127.24609375" xlink:href="#BitstreamVeraSans-Roman-30"/>
      <use x="190.869140625" xlink:href="#BitstreamVeraSans-Roman-34"/>
     </g>
    </g>
    <g id="line2d_63">
     <path d="
M305.641 142.719
L322.441 142.719" style="fill:none;stroke:#000000;stroke-linecap:square;"/>
    </g>
    <g id="line2d_64"/>
    <g id="text_27">
     <!-- 2005 -->
     <g transform="translate(335.640625 146.91875)scale(0.12 -0.12)">
      <use xlink:href="#BitstreamVeraSans-Roman-32"/>
      <use x="63.623046875" xlink:href="#BitstreamVeraSans-Roman-30"/>
      <use x="127.24609375" xlink:href="#BitstreamVeraSans-Roman-30"/>
      <use x="190.869140625" xlink:href="#BitstreamVeraSans-Roman-35"/>
     </g>
    </g>
    <g id="line2d_65">
     <path d="
M305.641 160.333
L322.441 160.333" style="fill:none;stroke:#0000ff;stroke-linecap:square;"/>
    </g>
    <g id="line2d_66"/>
    <g id="text_28">
     <!-- 2006 -->
     <defs>
      <path d="
M33.0156 40.375
Q26.375 40.375 22.4844 35.8281
Q18.6094 31.2969 18.6094 23.3906
Q18.6094 15.5312 22.4844 10.9531
Q26.375 6.39062 33.0156 6.39062
Q39.6562 6.39062 43.5312 10.9531
Q47.4062 15.5312 47.4062 23.3906
Q47.4062 31.2969 43.5312 35.8281
Q39.6562 40.375 33.0156 40.375
M52.5938 71.2969
L52.5938 62.3125
Q48.875 64.0625 45.0938 64.9844
Q41.3125 65.9219 37.5938 65.9219
Q27.8281 65.9219 22.6719 59.3281
Q17.5312 52.7344 16.7969 39.4062
Q19.6719 43.6562 24.0156 45.9219
Q28.375 48.1875 33.5938 48.1875
Q44.5781 48.1875 50.9531 41.5156
Q57.3281 34.8594 57.3281 23.3906
Q57.3281 12.1562 50.6875 5.35938
Q44.0469 -1.42188 33.0156 -1.42188
Q20.3594 -1.42188 13.6719 8.26562
Q6.98438 17.9688 6.98438 36.375
Q6.98438 53.6562 15.1875 63.9375
Q23.3906 74.2188 37.2031 74.2188
Q40.9219 74.2188 44.7031 73.4844
Q48.4844 72.75 52.5938 71.2969" id="BitstreamVeraSans-Roman-36"/>
     </defs>
     <g transform="translate(335.640625 164.5325)scale(0.12 -0.12)">
      <use xlink:href="#BitstreamVeraSans-Roman-32"/>
      <use x="63.623046875" xlink:href="#BitstreamVeraSans-Roman-30"/>
      <use x="127.24609375" xlink:href="#BitstreamVeraSans-Roman-30"/>
      <use x="190.869140625" xlink:href="#BitstreamVeraSans-Roman-36"/>
     </g>
    </g>
    <g id="line2d_67">
     <path d="
M305.641 177.946
L322.441 177.946" style="fill:none;stroke:#008000;stroke-linecap:square;"/>
    </g>
    <g id="line2d_68"/>
    <g id="text_29">
     <!-- 2007 -->
     <defs>
      <path d="
M8.20312 72.9062
L55.0781 72.9062
L55.0781 68.7031
L28.6094 0
L18.3125 0
L43.2188 64.5938
L8.20312 64.5938
z
" id="BitstreamVeraSans-Roman-37"/>
     </defs>
     <g transform="translate(335.640625 182.14625)scale(0.12 -0.12)">
      <use xlink:href="#BitstreamVeraSans-Roman-32"/>
      <use x="63.623046875" xlink:href="#BitstreamVeraSans-Roman-30"/>
      <use x="127.24609375" xlink:href="#BitstreamVeraSans-Roman-30"/>
      <use x="190.869140625" xlink:href="#BitstreamVeraSans-Roman-37"/>
     </g>
    </g>
    <g id="line2d_69">
     <path d="
M305.641 195.56
L322.441 195.56" style="fill:none;stroke:#ff0000;stroke-linecap:square;"/>
    </g>
    <g id="line2d_70"/>
    <g id="text_30">
     <!-- 2008 -->
     <defs>
      <path d="
M31.7812 34.625
Q24.75 34.625 20.7188 30.8594
Q16.7031 27.0938 16.7031 20.5156
Q16.7031 13.9219 20.7188 10.1562
Q24.75 6.39062 31.7812 6.39062
Q38.8125 6.39062 42.8594 10.1719
Q46.9219 13.9688 46.9219 20.5156
Q46.9219 27.0938 42.8906 30.8594
Q38.875 34.625 31.7812 34.625
M21.9219 38.8125
Q15.5781 40.375 12.0312 44.7188
Q8.5 49.0781 8.5 55.3281
Q8.5 64.0625 14.7188 69.1406
Q20.9531 74.2188 31.7812 74.2188
Q42.6719 74.2188 48.875 69.1406
Q55.0781 64.0625 55.0781 55.3281
Q55.0781 49.0781 51.5312 44.7188
Q48 40.375 41.7031 38.8125
Q48.8281 37.1562 52.7969 32.3125
Q56.7812 27.4844 56.7812 20.5156
Q56.7812 9.90625 50.3125 4.23438
Q43.8438 -1.42188 31.7812 -1.42188
Q19.7344 -1.42188 13.25 4.23438
Q6.78125 9.90625 6.78125 20.5156
Q6.78125 27.4844 10.7812 32.3125
Q14.7969 37.1562 21.9219 38.8125
M18.3125 54.3906
Q18.3125 48.7344 21.8438 45.5625
Q25.3906 42.3906 31.7812 42.3906
Q38.1406 42.3906 41.7188 45.5625
Q45.3125 48.7344 45.3125 54.3906
Q45.3125 60.0625 41.7188 63.2344
Q38.1406 66.4062 31.7812 66.4062
Q25.3906 66.4062 21.8438 63.2344
Q18.3125 60.0625 18.3125 54.3906" id="BitstreamVeraSans-Roman-38"/>
     </defs>
     <g transform="translate(335.640625 199.76)scale(0.12 -0.12)">
      <use xlink:href="#BitstreamVeraSans-Roman-32"/>
      <use x="63.623046875" xlink:href="#BitstreamVeraSans-Roman-30"/>
      <use x="127.24609375" xlink:href="#BitstreamVeraSans-Roman-30"/>
      <use x="190.869140625" xlink:href="#BitstreamVeraSans-Roman-38"/>
     </g>
    </g>
    <g id="line2d_71">
     <path d="
M305.641 213.174
L322.441 213.174" style="fill:none;stroke:#00bfbf;stroke-linecap:square;"/>
    </g>
    <g id="line2d_72"/>
    <g id="text_31">
     <!-- 2009 -->
     <g transform="translate(335.640625 217.37375)scale(0.12 -0.12)">
      <use xlink:href="#BitstreamVeraSans-Roman-32"/>
      <use x="63.623046875" xlink:href="#BitstreamVeraSans-Roman-30"/>
      <use x="127.24609375" xlink:href="#BitstreamVeraSans-Roman-30"/>
      <use x="190.869140625" xlink:href="#BitstreamVeraSans-Roman-39"/>
     </g>
    </g>
    <g id="line2d_73">
     <path d="
M305.641 230.788
L322.441 230.788" style="fill:none;stroke:#bf00bf;stroke-linecap:square;"/>
    </g>
    <g id="line2d_74"/>
    <g id="text_32">
     <!-- 2010 -->
     <g transform="translate(335.640625 234.9875)scale(0.12 -0.12)">
      <use xlink:href="#BitstreamVeraSans-Roman-32"/>
      <use x="63.623046875" xlink:href="#BitstreamVeraSans-Roman-30"/>
      <use x="127.24609375" xlink:href="#BitstreamVeraSans-Roman-31"/>
      <use x="190.869140625" xlink:href="#BitstreamVeraSans-Roman-30"/>
     </g>
    </g>
    <g id="line2d_75">
     <path d="
M305.641 248.401
L322.441 248.401" style="fill:none;stroke:#bfbf00;stroke-linecap:square;"/>
    </g>
    <g id="line2d_76"/>
    <g id="text_33">
     <!-- 2011 -->
     <g transform="translate(335.640625 252.60125)scale(0.12 -0.12)">
      <use xlink:href="#BitstreamVeraSans-Roman-32"/>
      <use x="63.623046875" xlink:href="#BitstreamVeraSans-Roman-30"/>
      <use x="127.24609375" xlink:href="#BitstreamVeraSans-Roman-31"/>
      <use x="190.869140625" xlink:href="#BitstreamVeraSans-Roman-31"/>
     </g>
    </g>
    <g id="line2d_77">
     <path d="
M305.641 266.015
L322.441 266.015" style="fill:none;stroke:#000000;stroke-linecap:square;"/>
    </g>
    <g id="line2d_78"/>
    <g id="text_34">
     <!-- 2012 -->
     <g transform="translate(335.640625 270.215)scale(0.12 -0.12)">
      <use xlink:href="#BitstreamVeraSans-Roman-32"/>
      <use x="63.623046875" xlink:href="#BitstreamVeraSans-Roman-30"/>
      <use x="127.24609375" xlink:href="#BitstreamVeraSans-Roman-31"/>
      <use x="190.869140625" xlink:href="#BitstreamVeraSans-Roman-32"/>
     </g>
    </g>
    <g id="line2d_79">
     <path d="
M305.641 283.629
L322.441 283.629" style="fill:none;stroke:#0000ff;stroke-linecap:square;"/>
    </g>
    <g id="line2d_80"/>
    <g id="text_35">
     <!-- 2013 -->
     <g transform="translate(335.640625 287.82875)scale(0.12 -0.12)">
      <use xlink:href="#BitstreamVeraSans-Roman-32"/>
      <use x="63.623046875" xlink:href="#BitstreamVeraSans-Roman-30"/>
      <use x="127.24609375" xlink:href="#BitstreamVeraSans-Roman-31"/>
      <use x="190.869140625" xlink:href="#BitstreamVeraSans-Roman-33"/>
     </g>
    </g>
    <g id="line2d_81">
     <path d="
M305.641 301.243
L322.441 301.243" style="fill:none;stroke:#008000;stroke-linecap:square;"/>
    </g>
    <g id="line2d_82"/>
    <g id="text_36">
     <!-- 2014 -->
     <g transform="translate(335.640625 305.4425)scale(0.12 -0.12)">
      <use xlink:href="#BitstreamVeraSans-Roman-32"/>
      <use x="63.623046875" xlink:href="#BitstreamVeraSans-Roman-30"/>
      <use x="127.24609375" xlink:href="#BitstreamVeraSans-Roman-31"/>
      <use x="190.869140625" xlink:href="#BitstreamVeraSans-Roman-34"/>
     </g>
    </g>
   </g>
  </g>
 </g>
 <defs>
  <clipPath id="p705cba3da1">
   <rect height="223.2" width="334.8" x="40.628125" y="21.318125"/>
  </clipPath>
 </defs>
</svg>
