<?xml version="1.0" encoding="utf-8" standalone="no"?>
<!DOCTYPE svg PUBLIC "-//W3C//DTD SVG 1.1//EN"
  "http://www.w3.org/Graphics/SVG/1.1/DTD/svg11.dtd">
<!-- Created with matplotlib (http://matplotlib.org/) -->
<svg height="319pt" version="1.1" viewBox="0 0 378 319" width="378pt" xmlns="http://www.w3.org/2000/svg" xmlns:xlink="http://www.w3.org/1999/xlink">
 <defs>
  <style type="text/css">
*{stroke-linecap:butt;stroke-linejoin:round;}
  </style>
 </defs>
 <g id="figure_1">
  <g id="patch_1">
   <path d="
M0 319.938
L378.841 319.938
L378.841 0
L0 0
z
" style="fill:#ffffff;"/>
  </g>
  <g id="axes_1">
   <g id="patch_2">
    <path d="
M36.8406 244.518
L371.641 244.518
L371.641 21.3181
L36.8406 21.3181
z
" style="fill:#ffffff;"/>
   </g>
   <g id="line2d_1">
    <path clip-path="url(#pd0c402dd48)" d="
M0 0" style="fill:none;stroke:#0000ff;stroke-linecap:square;"/>
   </g>
   <g id="line2d_2">
    <path clip-path="url(#pd0c402dd48)" d="
M0 0" style="fill:none;stroke:#008000;stroke-linecap:square;"/>
   </g>
   <g id="line2d_3">
    <path clip-path="url(#pd0c402dd48)" d="
M0 0" style="fill:none;stroke:#ff0000;stroke-linecap:square;"/>
   </g>
   <g id="line2d_4">
    <path clip-path="url(#pd0c402dd48)" d="
M0 0" style="fill:none;stroke:#00bfbf;stroke-linecap:square;"/>
   </g>
   <g id="line2d_5">
    <path clip-path="url(#pd0c402dd48)" d="
M0 0" style="fill:none;stroke:#bf00bf;stroke-linecap:square;"/>
   </g>
   <g id="line2d_6">
    <path clip-path="url(#pd0c402dd48)" d="
M0 0" style="fill:none;stroke:#bfbf00;stroke-linecap:square;"/>
   </g>
   <g id="line2d_7">
    <path clip-path="url(#pd0c402dd48)" d="
M0 0" style="fill:none;stroke:#000000;stroke-linecap:square;"/>
   </g>
   <g id="line2d_8">
    <path clip-path="url(#pd0c402dd48)" d="
M0 0" style="fill:none;stroke:#0000ff;stroke-linecap:square;"/>
   </g>
   <g id="line2d_9">
    <path clip-path="url(#pd0c402dd48)" d="
M0 0" style="fill:none;stroke:#008000;stroke-linecap:square;"/>
   </g>
   <g id="line2d_10">
    <path clip-path="url(#pd0c402dd48)" d="
M36.8406 198.614
L37.7579 177.845
L38.6751 173.858
L39.5924 214.379
L40.5097 226.819
L41.4269 234.607
L42.3442 236.799
L43.2614 233.057
L44.1787 224.38
L45.096 229.854
M46.9305 227.753
L47.8477 228.06
L48.765 221.281
L49.6823 216.517
L50.5995 213.464
L51.5168 218.036
L52.434 212.141
L53.3513 208.573
L54.2686 234.521
L55.1858 238.378
L57.0204 208.807
L57.9376 205.553
L58.8549 219.871
L59.7721 213.464
L60.6894 210.779
L61.6067 229.178
L62.5239 236.346
M64.3584 242.2
L65.2757 236.204
L66.193 231.337
L67.1102 243.924
L68.0275 228.594
L68.9447 225.432
L69.862 229.114
L70.7793 239.288
L71.6965 215.398
L72.6138 225.59
L73.531 207.575
L74.4483 214.64
L75.3656 213.959
L76.2828 223.321
L77.2001 212.083
L78.1173 212.543
L79.0346 208.483
L79.9519 194.09
L80.8691 202.433
L81.7864 208.452
L83.6209 222.349
L84.5382 232.399
L85.4554 223.24
L86.3727 225.765
L87.2899 237.537
L88.2072 212.136
L89.1245 217.108
L90.0417 211.899
L90.959 204.159
L91.8762 219.326
L92.7935 225.647
L93.7108 211.362
L94.628 216.043
L95.5453 205.673
L96.4625 192.357
L97.3798 194.941
L98.2971 213.206
L99.2143 206.453
L100.132 203.341
L101.966 183.868
L102.883 222.061
L103.801 231.14
L104.718 218.135
L105.635 218.622
L106.552 207.345
L107.47 238.076
L108.387 228.602
L110.221 195.807
L111.139 191.032
L112.056 188.689
L112.973 215.437
L113.89 217.886
L114.808 233.824
L115.725 206.337
L116.642 219.977
L118.477 199.242
L119.394 207.502
L120.311 173.609
L121.229 173.644
L122.146 170.273
L123.063 199.882
L123.98 200.517
L125.815 218.435
L126.732 192.211
L127.649 204.457
L128.567 213.607
L129.484 189.831
L130.401 176.294
L131.318 176.86
L132.236 196.735
L133.153 211.212
L134.07 208.819
L135.905 165.317
L137.739 201.518
L138.657 201.161
L139.574 173.685
L140.491 199.982
L141.408 202.143
L142.326 175.563
L143.243 157.211
L144.16 143.151
L145.077 145.57
L145.995 197.834
L146.912 189.239
L147.829 193.935
L148.746 161.172
L149.664 142.137
L150.581 147.193
L151.498 160.26
L153.333 201.972
L154.25 187.083
L155.167 181.83
L156.084 166.842
L157.002 174.175
L157.919 174.819
L158.836 180.102
L159.754 206.896
L160.671 168.82
L161.588 165.617
L162.505 157.678
L163.423 177.906
L164.34 185.088
L165.257 216.659
L166.174 219.941
L167.092 216.396
L168.009 216.681
L168.926 177.331
L169.843 196.042
L170.761 211.032
L171.678 213.024
L172.595 200.508
L173.512 203.93
L174.43 196.975
L175.347 191.344
L176.264 212.569
L177.181 180.149
L178.099 219.589
L179.016 208.701
L179.933 187.643
L180.85 181.221
L181.768 193.576
L182.685 164.997
L184.52 196.268
L185.437 208.667
L186.354 186.43
L187.271 147.43
L188.189 141.855
L189.106 158.197
L190.023 171.973
L192.775 184.955
L193.692 184.5
L194.609 194.057
L195.527 187.283
L196.444 187.917
L197.361 191.245
L198.278 177.876
L199.196 184.719
L201.03 184.717
L201.947 179.25
L202.865 189.211
L203.782 202.315
L204.699 194.02
L205.617 191.067
L206.534 191.617
L207.451 196.167
L208.368 196.747
L209.286 191.585
L210.203 183.959
L211.12 184.639
L212.037 180.625
L212.955 185.343
L213.872 187.231
L214.789 186.201
L215.706 174.239
L217.541 191.085
L218.458 191.394
L219.375 190.109
L221.21 185.03
L222.127 196.26
L223.044 211.776
L223.962 199.223
L224.879 192.312
L225.796 177.304
L226.714 185.012
L227.631 187.587
L228.548 195.709
L229.465 202.751
L230.383 193.656
L231.3 187.743
L232.217 191.651
L233.134 186.38
L234.052 191.874
L234.969 189.938
L235.886 192.244
L236.803 196.444
L237.721 197.704
L238.638 208.749
L239.555 200.536
L240.472 196.753
L241.39 196.199
L242.307 191.574
L243.224 185.092
L244.141 183.609
L245.059 191.846
L245.976 192.323
L246.893 192.356
L247.81 195.915
L248.728 205.845
L249.645 203.446
L250.562 210.586
L251.48 192.715
L252.397 187.336
L253.314 178.805
L254.231 184.822
L255.149 200.021
L256.066 198.957
L256.983 198.846
L257.9 176.035
L258.818 188.882
L260.652 209.653
L261.569 200.023
L262.487 175.542
L263.404 169.687
L264.321 185.159
L265.238 191.479
L266.156 187.594
L267.073 186.895
L267.99 187.067
L268.907 189.896
L269.825 191.282
L270.742 192.05
L271.659 186.676
L272.577 182.625
L274.411 189.183
L275.328 190.854
L276.246 194.252
L277.163 205.77
L278.08 226.385
L278.997 232.193
L279.915 217.014
L280.832 190.884
L281.749 173.1
L282.666 178.458
L283.584 179.515
L284.501 191.53
L285.418 190.977
L286.335 189.82
L287.253 195.298
L288.17 195.384
L289.087 210.898
L290.004 215.525
L290.922 236.965
L291.839 226.95
L292.756 205.917
L293.674 200.116
L294.591 189.278
L295.508 199.034
L296.425 235.176
L297.343 224.603
L298.26 200.116
L299.177 183.664
L300.094 188.296
L301.012 187.073
L301.929 187.018
L302.846 196.255
L303.763 191.488
L304.681 198.16
L305.598 202.901
L306.515 213.248
L307.432 194.331
L308.35 188.82
L309.267 176.042
L310.184 187.945
L311.101 189.531
L312.019 186.397
L312.936 192.761
L313.853 196.597
L314.77 198.445
L315.688 211.256
L316.605 225.989
L317.522 237.128
L318.44 239.569
L319.357 238.694
L320.274 225.614
L321.191 228.058
L322.109 217.265
L323.026 213.694
L323.943 236.425
L324.86 232.726
L325.778 239.955
L326.695 225.242
L327.612 215.69
L328.529 196.568
L329.447 197.372
L330.364 196.725
L331.281 183.437
L332.198 190.289
L334.033 216.978
L334.95 214.366
L335.867 221.022
L336.785 224.694
L337.702 195.509
L338.619 197.768
L339.537 207.672
L340.454 207.316
L341.371 219.107
L342.288 234.218
L343.206 226.43
L344.123 207.795
L345.04 226.37
L345.957 238.949
L346.875 212.819
L347.792 196.745
L348.709 193.41
L350.544 229.452
L351.461 213.573
L352.378 199.666
L353.295 213.827
L354.213 225.467
L355.13 241.805
L356.047 242.093
L356.964 230.328
L357.882 224.902
L358.799 223.77
L359.716 215.631
L360.634 235.139
L361.551 220.134
L362.468 234.016
L363.385 236.919
L364.303 234.137
L365.22 228.336
M367.054 232.797
L367.972 240.656
L368.889 237.308
L369.806 219.412
L370.723 199.057
L370.723 199.057" style="fill:none;stroke:#ff0000;stroke-linecap:square;"/>
   </g>
   <g id="line2d_11">
    <path clip-path="url(#pd0c402dd48)" d="
M36.8406 235.008
L37.7579 219.603
L38.6751 223.599
L39.5924 208.069
L40.5097 214.21
L41.4269 237.16
L43.2614 213.859
L44.1787 229.386
L45.096 213.211
L46.9305 231.593
L47.8477 218.535
L48.765 202.126
L49.6823 212.641
L50.5995 210.525
L51.5168 219.336
L52.434 216.629
L53.3513 218.401
L54.2686 218.72
L55.1858 196.753
L57.0204 242.506
L57.9376 241.5
M59.7721 239.854
L60.6894 225.324
L61.6067 228.269
L62.5239 222.942
L63.4412 211.724
L64.3584 215.268
L65.2757 207.849
L66.193 196.136
L67.1102 203.295
L68.0275 212.237
L68.9447 209.493
L69.862 221.13
L70.7793 230.85
L71.6965 229.295
L72.6138 238.036
L73.531 230.765
L74.4483 228.061
L75.3656 238.857
L76.2828 226.78
L77.2001 238.319
L78.1173 214.619
L79.0346 213.905
L79.9519 235.312
L80.8691 215.473
L81.7864 209.64
L82.7036 212.132
L83.6209 201.482
L84.5382 204.818
L85.4554 223.921
L86.3727 205.974
L87.2899 221.45
L88.2072 224.186
L89.1245 208.07
L90.0417 194.831
L90.959 199.841
L91.8762 197.027
L92.7935 222.609
L93.7108 237.895
M95.5453 231.827
L96.4625 223.306
L97.3798 224.791
L98.2971 217.206
L99.2143 215.491
L100.132 198.573
L101.049 200.811
L101.966 199.863
L102.883 202.115
L103.801 236.372
L104.718 225.686
L106.552 194.359
L107.47 200.219
L108.387 188.165
L109.304 215.869
L110.221 228.467
L111.139 211.924
L112.056 213.355
L112.973 234.426
L113.89 214.267
L114.808 191.623
L115.725 221.165
L116.642 225.707
L117.56 197.757
L118.477 230.632
L119.394 219.221
L120.311 232.836
L121.229 232.253
L122.146 209.444
L123.063 181.374
L124.898 162.646
L125.815 207.445
L126.732 203.493
L127.649 227.709
L128.567 214.34
L129.484 188.597
L130.401 205.773
L131.318 199.243
L132.236 206.906
L133.153 183.324
L134.07 179.308
L134.987 166.998
L135.905 156.541
L136.822 160.563
L138.657 175.935
L139.574 198.534
L140.491 189.851
L141.408 196.94
L142.326 200.971
L143.243 183.376
L144.16 224.161
L145.077 185.531
L145.995 190.596
L146.912 200.995
L147.829 204.227
L148.746 232.23
L149.664 205.395
L150.581 205.066
L151.498 211.781
L152.415 198.95
L153.333 181.614
L154.25 173.233
L155.167 173.877
L156.084 169.387
L157.002 185.72
L157.919 181.691
L158.836 198.323
L159.754 184.105
L160.671 155.949
L161.588 148.847
L162.505 164.011
L163.423 171.352
L164.34 185.098
L165.257 187.3
L166.174 192.853
L167.092 188.585
L168.009 184.977
L168.926 179.172
L169.843 186.258
L170.761 186.678
L171.678 174.156
L172.595 184.283
L173.512 189.101
L174.43 197
L175.347 208.377
L176.264 232.633
L177.181 206.334
L178.099 207.794
L179.016 221.394
L179.933 224.077
L180.85 200.01
L181.768 200.365
L182.685 188.13
L183.602 202.409
L184.52 202.079
L185.437 201.523
L186.354 224.724
L187.271 224.538
L188.189 223.324
L189.106 196.685
L190.023 210.579
L190.94 181.225
L191.858 190.339
L192.775 205.142
L193.692 217.062
L194.609 204.292
L195.527 179.603
L197.361 164.567
L198.278 170.806
L199.196 174.951
L200.113 184.254
L201.03 187.897
L201.947 181.607
L202.865 179.024
L203.782 194.343
L204.699 201.537
L205.617 191.082
L206.534 197.56
L207.451 191.536
L208.368 193.124
L209.286 195.419
L210.203 197.042
L211.12 185.07
L212.037 191.58
L212.955 198.889
L213.872 203.474
L214.789 187.268
L215.706 188.799
L216.624 186.549
L217.541 174.731
L218.458 182.861
L220.293 195.955
L221.21 194.716
L222.127 199.048
L223.044 204.314
L223.962 190.33
L224.879 194.519
L225.796 199.576
L226.714 203.295
L227.631 202.766
L228.548 203.418
L229.465 198.232
L230.383 189.2
L231.3 191.096
L232.217 193.443
L233.134 193.696
L234.052 195.528
L234.969 203.123
L235.886 233.581
L236.803 240.328
L237.721 225.261
L239.555 180.528
L240.472 168.033
L241.39 177.557
L242.307 199.93
L243.224 201.874
L244.141 209.162
L245.059 200.228
L245.976 192.495
L246.893 188.633
L247.81 180.733
L248.728 185.008
L249.645 187.051
L250.562 191.634
L251.48 212.421
L252.397 204.612
L253.314 202.292
L254.231 198.963
L255.149 191.767
L256.066 199.091
L256.983 203.084
L257.9 209.592
L258.818 204.944
L259.735 203.863
L260.652 193.262
L261.569 188.595
L263.404 205.746
L264.321 204.922
L265.238 206.253
L266.156 200.546
L267.073 198.46
L267.99 188.178
L268.907 182.711
L269.825 186.391
L270.742 196.419
L271.659 205.013
L272.577 210.695
L273.494 204.417
L274.411 203.527
L275.328 201.838
L276.246 200.578
L277.163 209.348
L278.08 201.845
L278.997 198.631
L279.915 199.514
L280.832 184.468
L281.749 187.601
L282.666 194.835
L283.584 200.637
L284.501 205.465
L285.418 221.155
L286.335 219.478
L287.253 206.814
L288.17 206.913
L289.087 219.545
M291.839 209.798
L292.756 198.093
L293.674 192.757
L294.591 206.302
L295.508 200.973
L297.343 198.663
L298.26 215.046
L299.177 225.601
L300.094 217.379
L301.012 202.418
L301.929 204.15
L302.846 211.981
L303.763 229.609
L304.681 224.221
L305.598 225.988
L306.515 213.864
L307.432 217.079
L308.35 212.695
L309.267 200.731
L310.184 218.094
L311.101 240.76
L312.019 222.572
L313.853 234.175
L314.77 216.132
L315.688 214.733
L316.605 208.501
L317.522 195.373
L318.44 203.431
L319.357 195.607
L320.274 223.154
L321.191 223.496
L322.109 214.744
L323.026 207.839
L323.943 204.329
L324.86 226.328
L325.778 242.907
L326.695 236.858
L327.612 236.167
L328.529 206.688
L330.364 188.033
L331.281 219.518
L332.198 196.22
L333.116 210.126
L334.95 230.03
L335.867 222.17
L336.785 217.914
L337.702 216.761
L338.619 212.536
L339.537 218.752
L340.454 222.598
L341.371 214.301
M343.206 216.205
L344.123 216.132
L345.04 212.541
M346.875 212.636
L347.792 210.564
L348.709 234.085
L349.626 220.623
L350.544 212.274
L351.461 205.507
L352.378 191.946
L354.213 240.572
L355.13 224.051
L356.047 231.126
M357.882 233.844
L358.799 237.376
L359.716 235.189
L360.634 230.006
L361.551 228.711
L362.468 242.94
L363.385 233.659
L364.303 211.288
L365.22 223.292
L366.137 226.81
L367.054 226.217
L367.972 216.636
L368.889 224.918
L369.806 240.884
L370.723 232.146
L370.723 232.146" style="fill:none;stroke:#00bfbf;stroke-linecap:square;"/>
   </g>
   <g id="line2d_12">
    <path clip-path="url(#pd0c402dd48)" d="
M36.8406 239.183
L37.7579 233.038
L38.6751 229.08
L39.5924 217.138
L40.5097 229.191
L41.4269 224.34
L42.3442 234.166
L43.2614 209.2
L44.1787 213.522
L45.096 218.77
L46.0132 202.134
L46.9305 208.842
L47.8477 235.382
L48.765 225.948
L49.6823 202.545
L50.5995 217.483
L51.5168 215.234
L52.434 229.486
L53.3513 230.485
L54.2686 224.923
L55.1858 218.197
L56.1031 222.855
M57.9376 228.41
L58.8549 235.139
L59.7721 239.345
M61.6067 234.72
L62.5239 229.671
L63.4412 226.583
M65.2757 230.191
L66.193 218.576
L67.1102 226.551
L68.0275 231.148
L68.9447 234.753
L69.862 227.012
L70.7793 239.733
L71.6965 239.817
L72.6138 232.352
L73.531 217.233
L74.4483 232.435
L75.3656 225.557
L76.2828 236.873
L77.2001 221.259
M79.0346 242.417
L79.9519 242.223
L80.8691 237.348
L81.7864 226.525
L82.7036 223.792
L83.6209 226.345
L84.5382 193.074
L85.4554 194.342
L86.3727 226.582
L87.2899 227.593
L88.2072 204.211
L89.1245 218.872
L90.0417 224.725
L90.959 207.974
L91.8762 205.127
L92.7935 222.686
L93.7108 219.331
L94.628 222.404
L95.5453 213.708
L96.4625 200.653
L97.3798 228.656
L98.2971 212.318
L99.2143 203.562
L100.132 203.895
L101.049 204.854
L101.966 230.978
L102.883 207.784
L103.801 179.458
L104.718 188.086
L105.635 176.997
L106.552 187.942
L107.47 181.31
L108.387 191.71
L109.304 205.633
L110.221 215.669
L111.139 187.642
L112.056 184.462
L112.973 216.809
L113.89 226.26
L114.808 194.99
L115.725 186.805
L116.642 208.457
L117.56 239.031
L118.477 211.619
L119.394 236.788
L120.311 232.827
L121.229 219.898
L122.146 217.279
L123.063 227.679
L123.98 203.801
L124.898 186.695
L125.815 199.477
L126.732 181.383
L127.649 182.741
L128.567 183.585
L129.484 209.939
L130.401 210.481
L131.318 177.971
L132.236 168.901
L133.153 171.638
L134.07 171.303
L134.987 163.471
L135.905 164.422
L136.822 202.137
L137.739 228.41
L138.657 220.407
L139.574 190.394
L140.491 182.65
L141.408 172.394
L142.326 174.142
L143.243 214.723
L144.16 232.084
L145.077 218.015
L145.995 224.5
L146.912 216.097
L147.829 179.995
L148.746 203.034
L149.664 159.487
L150.581 192.137
L151.498 193.457
L152.415 161.417
L153.333 148.884
L154.25 151.548
L155.167 204.965
L156.084 180.031
L157.002 172.8
L157.919 172.001
L158.836 152.159
L159.754 154.075
L160.671 164.542
L161.588 186.458
L162.505 233.11
L163.423 198.509
L164.34 197.683
L165.257 206.419
M167.092 214.639
L168.009 201.329
L168.926 173.746
L169.843 205.05
L170.761 200.471
L171.678 209.951
L172.595 203.203
L173.512 180.703
L174.43 213.697
L175.347 205.365
L176.264 228.173
L177.181 203.506
L178.099 235.763
L179.016 194.252
L179.933 222.871
L180.85 181.354
L181.768 183.409
L182.685 202.257
L183.602 214.329
L184.52 197.849
L185.437 173.101
L186.354 172.154
L187.271 162.076
L189.106 189.827
L190.023 197.773
L190.94 182.157
L191.858 179.717
L192.775 196.894
L193.692 201.605
L194.609 175.807
L196.444 183.069
L197.361 194.342
L198.278 179.824
L199.196 182.772
L200.113 187.63
L201.03 200.106
L201.947 187.686
L202.865 185.067
L203.782 202.939
L204.699 207.781
L205.617 186.448
L206.534 190.99
L207.451 176.235
L208.368 163.664
L209.286 170.531
L210.203 168.717
L211.12 175.642
L212.037 183.472
L212.955 188.322
L213.872 189.747
L214.789 191.449
L215.706 183.037
L216.624 180.306
L217.541 166.476
L218.458 170.434
L219.375 183.718
L220.293 189.838
L221.21 189.929
L222.127 191.036
L223.044 182.384
L223.962 184.902
L224.879 188.849
L225.796 211.969
L226.714 191.366
L227.631 198.451
L228.548 198.593
L229.465 193.514
L230.383 191.652
L231.3 187.786
L232.217 187.824
L233.134 191.98
L234.052 185.78
L234.969 187.621
L235.886 201.67
L236.803 194.77
L237.721 196.584
L238.638 205.851
L239.555 210.537
L240.472 223.909
L242.307 195.621
L243.224 193.288
L244.141 175.106
L245.059 172.371
L245.976 183.321
L247.81 191.356
L248.728 190.187
L249.645 195.07
L250.562 196.966
L251.48 199.416
L252.397 192.487
L253.314 188.313
L254.231 189.081
L255.149 178.112
L256.066 196.905
L256.983 231.774
L257.9 214.864
L258.818 210.193
L259.735 203.571
L260.652 176.689
L261.569 171.371
L262.487 178.307
L263.404 189.859
L264.321 190.826
L265.238 190.716
L266.156 219.908
L267.073 236.281
L267.99 193.236
L268.907 187.848
L269.825 175.229
L270.742 170.54
L271.659 180.393
L272.577 185.371
L273.494 192.997
L274.411 198.861
L275.328 195.586
L276.246 204.268
L277.163 205.866
L278.08 200.615
L278.997 199.675
L279.915 191.923
L280.832 179.094
L281.749 183.828
L282.666 182.633
L283.584 179.04
L284.501 184.585
L285.418 193.313
L286.335 195.376
L287.253 196.042
L288.17 197.198
L289.087 213.906
L290.004 232.988
L290.922 224.676
L291.839 221.299
L292.756 206.453
L293.674 228.476
L294.591 215.785
L295.508 208.277
L296.425 214.105
L297.343 196.28
L298.26 188.954
L299.177 188.249
L300.094 190.586
L301.012 198.049
L301.929 197.387
L302.846 197.316
L303.763 192.986
L304.681 193.856
L305.598 192.238
L306.515 197.947
L307.432 226.273
L308.35 241.253
L309.267 230.784
L310.184 237.116
L311.101 215.719
L312.019 187.658
L312.936 186.176
L313.853 193.619
L314.77 228.016
L315.688 205.658
L316.605 205.111
L317.522 206.154
L318.44 191.135
L319.357 198.764
L320.274 205.333
L321.191 226.31
L322.109 235.665
L323.026 224.472
L323.943 242.412
L324.86 232.79
L325.778 216.549
L326.695 218.046
L327.612 240.397
L328.529 226.17
L329.447 219.836
L330.364 202.718
L331.281 210.718
L332.198 244.27
L333.116 242.345
L334.033 237.871
M335.867 241.005
L336.785 214.305
L337.702 210.295
L338.619 209.621
L339.537 208.708
L340.454 229.226
L341.371 203.362
L342.288 213.367
M344.123 237.308
L345.04 220.148
L346.875 237.913
L347.792 237.063
L348.709 226.949
L349.626 212.895
L350.544 228.245
L352.378 234.836
L353.295 227.303
L354.213 226.168
L355.13 232.749
L356.047 231.806
L356.964 217.869
L357.882 217.276
L358.799 225.981
L359.716 238.481
L360.634 231.035
L361.551 215.864
L362.468 234.092
L363.385 233.644
L365.22 185.647
L366.137 222.27
L367.054 230.132
L367.972 234.784
M369.806 239.982
L370.723 230.893
L370.723 230.893" style="fill:none;stroke:#bf00bf;stroke-linecap:square;"/>
   </g>
   <g id="line2d_13">
    <path clip-path="url(#pd0c402dd48)" d="
M36.8406 221.366
L37.7579 221.482
L38.6751 230
L39.5924 234.274
L40.5097 211.413
L41.4269 216.814
L42.3442 213.93
L43.2614 220.108
L44.1787 233.662
L45.096 240.145
L46.0132 218.045
L46.9305 222.199
L47.8477 242.443
L48.765 235.355
L49.6823 233.617
L50.5995 242.446
L51.5168 234.972
L52.434 237.647
L53.3513 239.144
L54.2686 219.117
L55.1858 234.515
L56.1031 234.816
L57.0204 204.939
L57.9376 234.458
L58.8549 238.508
L59.7721 237.942
L60.6894 236.592
L61.6067 235.512
L62.5239 234.979
L63.4412 242.036
L64.3584 221.377
L66.193 204.363
L67.1102 210.93
L68.0275 225.765
L68.9447 219.57
L69.862 216.593
L70.7793 221.164
L71.6965 229.584
L73.531 215.625
L74.4483 205.894
L75.3656 197.754
L76.2828 191.225
L77.2001 192.829
L78.1173 202.771
L79.0346 223.067
L79.9519 232.966
L80.8691 237.11
L81.7864 234.072
M83.6209 226.436
L84.5382 229.789
L85.4554 223.875
L86.3727 238.977
L87.2899 239.304
L88.2072 216.649
L89.1245 208.774
L90.0417 211.37
L90.959 189.16
L91.8762 209.684
L93.7108 227.161
L95.5453 237.2
L96.4625 237.866
L97.3798 243.71
L98.2971 229.629
L99.2143 223.187
L100.132 240.655
L101.049 220.602
L101.966 234.357
L102.883 213.533
L103.801 226.131
M105.635 240.115
L106.552 213.363
L107.47 233.826
L108.387 215.907
L109.304 227.699
L110.221 224.867
L111.139 215.591
L112.056 231.415
L112.973 240.028
M114.808 243.38
L115.725 223.238
L116.642 229.176
L117.56 229.603
L118.477 193.281
L119.394 192.042
L120.311 202.747
L121.229 220.983
L122.146 209.455
L123.063 215.542
L123.98 216.825
L124.898 210.093
L125.815 218.613
L126.732 224.134
L127.649 204.007
L128.567 208.223
L129.484 185.544
L130.401 214.896
L131.318 190.486
L132.236 211.136
L133.153 216.314
L134.07 203.188
L134.987 203.763
L135.905 178.833
L136.822 213.451
L137.739 223.537
L138.657 182.9
L139.574 164.721
L140.491 198.098
L141.408 221.287
L142.326 199.826
L143.243 186.304
L144.16 220.677
L145.077 190.34
L145.995 193.887
L146.912 183.406
L147.829 191.057
L148.746 178.959
L149.664 174.242
L150.581 178.868
L151.498 215.153
L152.415 201.501
L153.333 217.694
L154.25 209.314
L155.167 183.487
L157.002 173.537
L157.919 174.053
L158.836 197.322
L159.754 223.767
L160.671 234.286
L161.588 212.374
L162.505 226.636
L163.423 169.153
L164.34 169.458
L165.257 191.428
L166.174 181.248
L167.092 214.889
L168.009 216.193
L168.926 207.271
L169.843 203.212
L170.761 226.803
L171.678 225.628
L172.595 227.917
L173.512 194.117
L174.43 192.578
L175.347 189.177
L176.264 217.769
L177.181 179.942
L178.099 183.445
L179.016 175.219
L179.933 202.374
L180.85 217.969
L181.768 196.742
L182.685 210.622
L183.602 203.102
L184.52 199.304
L185.437 183.265
L186.354 200.845
L187.271 178.342
L188.189 177.43
L189.106 194.491
L190.023 178.314
L190.94 216.809
L191.858 216.045
L192.775 172.822
L193.692 177.954
L194.609 174.166
L195.527 178.283
L196.444 184.577
L197.361 188.051
L198.278 194.833
L199.196 186.35
L200.113 182.015
L201.03 207.222
L201.947 191.929
L202.865 190.982
L203.782 187.603
L204.699 181.81
L205.617 179.766
L206.534 185.001
L207.451 188.276
L208.368 213.199
L209.286 197.074
L210.203 191.58
L211.12 196.55
L212.037 193.778
L212.955 184.422
L213.872 200.591
L214.789 201.492
L215.706 197.128
L216.624 199.991
L217.541 186.662
L218.458 182.456
L219.375 194.662
L220.293 197.281
L221.21 195.013
L222.127 198.506
L223.044 186.028
L223.962 177.25
L225.796 192.644
L226.714 194.776
L227.631 198.77
L228.548 195.248
L229.465 189.013
L230.383 196.22
L231.3 196.801
L232.217 200.855
L233.134 198.541
L234.052 210.248
L234.969 197.408
L235.886 197.968
L236.803 200.514
L237.721 196.274
L238.638 193.577
L239.555 197.777
L240.472 195.584
L242.307 198.007
L243.224 196.001
L244.141 192.869
L245.059 195.394
L245.976 197.331
L246.893 198.421
L247.81 188.957
L248.728 195.34
L249.645 199.582
L250.562 196.486
L251.48 196.504
L252.397 196.297
L253.314 203.137
L254.231 200.977
L255.149 211.566
L256.066 204.862
L256.983 204.427
L257.9 204.412
L258.818 203.331
L259.735 207.243
L260.652 200.008
L261.569 201.193
L262.487 189.633
L263.404 182.727
L264.321 191.859
L265.238 193.529
L266.156 196.57
L267.073 204.298
L267.99 202.392
L268.907 207.275
L269.825 206.045
L271.659 205.658
L272.577 224.897
L273.494 213.355
L274.411 204.852
L275.328 201.392
L276.246 198.913
L277.163 193.505
L278.08 187.016
L278.997 192.272
L279.915 192.414
L280.832 192.681
L281.749 203.335
L282.666 206.742
L283.584 205.449
L284.501 211.285
L285.418 199.144
L286.335 195.927
L287.253 202.341
L288.17 204.257
L289.087 204.858
L290.004 232.485
L290.922 239.592
M292.756 243.373
L293.674 218.707
L294.591 201.502
L295.508 226.154
L296.425 219.747
L297.343 202.526
L298.26 199.752
L299.177 194.613
L300.094 207.433
L301.012 236.081
L301.929 210.476
L302.846 203.193
L303.763 210.902
L304.681 200.258
L305.598 204.531
L306.515 212.628
L307.432 209.331
L308.35 223.474
L310.184 198.141
L311.101 202.199
L312.019 190.327
L312.936 189.291
L313.853 198.511
L314.77 219.66
L315.688 208.005
L316.605 198.903
L317.522 204.502
L318.44 222.618
L319.357 234.074
L320.274 237.888
L321.191 239.173
L322.109 219.947
L323.026 198.361
L323.943 194.143
L324.86 201.391
L325.778 224.993
L326.695 229.296
L327.612 204.739
L328.529 199.643
L329.447 209.629
L330.364 233.912
L331.281 236.577
L332.198 232.282
L333.116 211.513
L334.033 221.783
L334.95 223.383
L335.867 195.072
L336.785 213.454
L337.702 220.86
L338.619 196.222
L339.537 200.482
L340.454 213.283
L341.371 230.308
L342.288 220.885
L343.206 205.793
L344.123 208.193
L345.04 214.824
L345.957 216.786
L346.875 214.873
L347.792 202.549
L348.709 204.276
L349.626 199.958
L350.544 196.878
L351.461 203.932
L352.378 209.262
L353.295 208.424
L354.213 217.876
L355.13 210.496
L356.047 221.226
L356.964 222.559
L357.882 220.326
L358.799 215.749
L360.634 204.015
L361.551 218.116
L362.468 200.005
L363.385 196.287
L364.303 200.812
L365.22 198.613
L366.137 206.645
L367.972 231.21
L368.889 224.336
L369.806 240.964
L370.723 219.727
L370.723 219.727" style="fill:none;stroke:#bfbf00;stroke-linecap:square;"/>
   </g>
   <g id="line2d_14">
    <path clip-path="url(#pd0c402dd48)" d="
M36.8406 199.287
L37.7579 198.393
L38.6751 194.361
L39.5924 180.575
L40.5097 199.085
L41.4269 222.454
L42.3442 227.469
L43.2614 220.55
L44.1787 219.687
L45.096 231.014
L46.0132 210.248
L46.9305 218.574
L47.8477 196.592
L48.765 182.714
L49.6823 201.218
L50.5995 217.44
L51.5168 204.43
L53.3513 243.074
L54.2686 244.163
L55.1858 238.785
L56.1031 228.54
L57.0204 243.103
L57.9376 232.595
L58.8549 228.425
L59.7721 236.041
L60.6894 210.676
L62.5239 191.197
L63.4412 215.765
L64.3584 200.165
L65.2757 223.553
L66.193 227.842
L67.1102 211.699
L68.0275 207.382
L68.9447 202.117
L69.862 202.6
L70.7793 194.156
L71.6965 222.583
L72.6138 239.028
L73.531 219.278
L74.4483 233.245
L75.3656 237.135
L76.2828 221.63
L77.2001 229.453
L78.1173 232.655
L79.0346 216.314
L79.9519 211.969
L80.8691 222.524
L81.7864 217.862
L82.7036 223.906
L83.6209 243.827
L84.5382 226.544
L85.4554 214.324
L86.3727 192.191
L87.2899 219.744
L88.2072 214.491
L89.1245 206.434
L90.0417 201.58
L90.959 217.525
L91.8762 236.31
L92.7935 215.783
L93.7108 221.233
L94.628 201.017
L95.5453 193.629
L96.4625 213.898
L97.3798 199.488
L98.2971 194.433
L99.2143 192.739
L100.132 171.473
L101.049 198.264
L101.966 214.049
L102.883 222.857
L103.801 244.295
L104.718 224.275
L105.635 235.082
L106.552 233.647
M108.387 225.683
L109.304 227.166
L110.221 207.142
L111.139 168.087
L112.056 191.36
L112.973 171.755
L114.808 232.523
L115.725 198.381
L116.642 218.214
L117.56 223.548
L118.477 231.793
L119.394 181.408
L120.311 184.669
L121.229 191.323
L122.146 186.548
L123.063 203.49
L123.98 191.926
L124.898 189.421
L125.815 179.584
L126.732 154.369
L127.649 160.554
L128.567 146.821
L129.484 196.694
L130.401 205.292
L131.318 217.045
L132.236 203.196
L133.153 185.168
L134.07 215.539
L134.987 196.198
L135.905 202.464
L136.822 212.775
L137.739 183.382
L138.657 166.38
L139.574 158.914
L140.491 180.882
L141.408 189.368
L142.326 207.044
L143.243 241.573
L144.16 206.237
L145.077 210.921
L145.995 193.678
L146.912 210.202
L147.829 179.566
L148.746 178.561
L149.664 213.811
L150.581 230.78
L151.498 197.33
L152.415 173.398
L153.333 169.38
L154.25 155.173
L155.167 155.241
L157.002 176.271
L157.919 179.238
L158.836 176.475
L159.754 160.889
L160.671 187.168
L161.588 178.844
L162.505 202.482
L163.423 195.657
L164.34 190.752
L165.257 189.51
L167.092 208.103
L168.009 209.138
L168.926 203.597
L169.843 229.938
L170.761 229.373
L171.678 206.608
L172.595 168.979
L173.512 161.332
L174.43 168.135
L175.347 171.662
L176.264 174.397
L177.181 200.052
L178.099 186.817
L179.016 197.681
L179.933 233.912
L180.85 198.143
L181.768 198.517
L182.685 197.906
L183.602 218.76
L184.52 191.808
L185.437 175.29
L186.354 176.392
L187.271 162.044
L188.189 154.912
L189.106 173.91
L190.023 185.066
L190.94 176.947
L191.858 184.959
L192.775 195.298
L193.692 185.451
L194.609 186.684
L195.527 173.041
L196.444 171.361
L197.361 176.877
L198.278 186.075
L199.196 192.819
L200.113 180.435
L201.03 179.684
L201.947 183.775
L202.865 168.46
L203.782 192.581
L204.699 191.847
L205.617 187.655
L206.534 192.106
L207.451 187.933
L208.368 193.471
L209.286 186.206
L210.203 196.004
L211.12 191.575
L212.037 192.17
L212.955 195.918
L213.872 194.68
L214.789 212.084
L215.706 214.884
L216.624 207.103
L217.541 212.006
L218.458 192.533
L219.375 188.939
L220.293 188.669
L221.21 185.373
L222.127 193.115
L223.044 190.202
L223.962 200.787
L225.796 192.472
L226.714 196.518
L227.631 191.657
L228.548 196.065
L229.465 193.869
L230.383 198.586
L231.3 196.162
L232.217 193.361
L233.134 195.812
L234.052 199.014
L234.969 196.966
L235.886 195.797
L236.803 192.412
L237.721 187.395
L238.638 197.543
L239.555 198.517
L240.472 204.669
L241.39 201.67
L242.307 201.79
L243.224 200.078
L244.141 197.919
L245.059 196.123
L245.976 200.63
L246.893 204.326
L247.81 200.027
L248.728 210.387
L249.645 202.462
L250.562 201.377
L251.48 202.567
L252.397 198.223
L253.314 194.928
L254.231 197.074
L255.149 198.331
L256.066 201.355
L256.983 185.788
L257.9 197.936
L258.818 198.802
L259.735 203.546
L260.652 204.02
L261.569 186.293
L262.487 189.341
L263.404 196.309
L264.321 189.356
L265.238 202.144
L266.156 193.307
L267.073 192.338
L267.99 195.007
L268.907 197.043
L269.825 200.676
L270.742 195.901
L271.659 197.77
L272.577 186.812
L273.494 179.486
L274.411 190
L275.328 195.067
L276.246 198.049
L277.163 200.569
L278.08 201.244
L278.997 200.927
L279.915 198.579
L280.832 224.205
L281.749 212.285
L282.666 209.466
L283.584 207.803
L284.501 192.505
L285.418 194.047
L286.335 197.873
L287.253 198.846
L288.17 198.932
L289.087 199.441
L290.004 201.283
L290.922 202.784
L291.839 200.529
L292.756 201.357
L293.674 184.591
L294.591 179.322
L295.508 184.606
L296.425 183.9
L297.343 188.352
L298.26 189.729
L299.177 218.385
L300.094 207.328
L301.012 213.484
L301.929 217.459
L302.846 204.736
L303.763 200.678
L304.681 205.948
L305.598 213.729
L306.515 199.195
L307.432 234.4
L308.35 240.981
L309.267 230.782
L310.184 233.314
L311.101 213.85
L312.019 217.178
L312.936 231.442
L313.853 203.559
L314.77 192.894
L315.688 190.844
L316.605 212.635
L317.522 212.865
L318.44 216.279
L319.357 213.327
L320.274 213.836
L321.191 204.312
L322.109 215.107
L323.943 241.341
L324.86 234.979
L325.778 234.9
L326.695 227.608
L327.612 230.327
L328.529 227.745
L329.447 219.028
L330.364 213.117
L331.281 229.188
L333.116 224.461
L334.033 222.037
L334.95 231.343
L335.867 210.636
L336.785 197.42
L337.702 222.609
L338.619 229.6
L340.454 212.48
L341.371 218.075
L342.288 221.077
L343.206 229.858
L344.123 231.646
L345.04 237.586
L345.957 216.519
L346.875 226.831
L347.792 234.999
L348.709 226.028
L349.626 219.739
L350.544 231.09
L351.461 223.261
L352.378 236.834
L353.295 222.492
L354.213 238.366
L355.13 223.925
L356.047 234.013
L356.964 235.194
L357.882 244.122
L358.799 232.562
L359.716 226.623
L360.634 224.172
L361.551 194.405
L362.468 187.325
L363.385 208.647
L364.303 232.863
L365.22 234.557
L366.137 226.251
L367.054 237.232
L367.972 239.909
L368.889 225.462
L369.806 226.329
L370.723 241.218
L370.723 241.218" style="fill:none;stroke:#000000;stroke-linecap:square;"/>
   </g>
   <g id="line2d_15">
    <path clip-path="url(#pd0c402dd48)" d="
M36.8406 226.298
L37.7579 220.013
L38.6751 179.97
L39.5924 152.858
L40.5097 120.562
L41.4269 149.997
L42.3442 184.736
L43.2614 213.518
L44.1787 128.948
L45.096 203.328
L46.0132 189.471
L46.9305 141.649
L47.8477 177.952
L48.765 207.987
L49.6823 162.641
L50.5995 168.525
L51.5168 160.009
L52.434 67.7257
L53.3513 62.2482
L54.2686 133.909
L55.1858 101.583
L56.1031 27.8018
L57.0204 31.311
L57.9376 136.704
L58.8549 213.767
L59.7721 216.991
L60.6894 209.622
L61.6067 223.388
L62.5239 244.057
L63.4412 239.748
L65.2757 198.7
L66.193 181.525
L67.1102 170.972
L68.0275 140.675
L68.9447 150.794
L69.862 167.301
L70.7793 149.789
L71.6965 189.608
L73.531 137.885
L74.4483 102.542
L75.3656 175.686
L76.2828 178.305
L77.2001 149.965
L78.1173 128.929
L79.0346 147.945
L79.9519 195.855
L80.8691 116.636
L81.7864 146.934
L82.7036 187.211
L83.6209 164.47
L84.5382 210.301
L86.3727 175.558
L88.2072 148.972
L89.1245 106.216
L90.0417 149.215
L90.959 179.422
L91.8762 144.562
L93.7108 63.0509
L94.628 95.1373
L95.5453 163.837
L96.4625 144.707
L97.3798 95.153
L98.2971 87.0779
L99.2143 56.8325
L100.132 159.673
L101.049 134.202
L101.966 85.3488
L102.883 61.2981
L103.801 95.8361
L104.718 143.526
L105.635 131.628
L106.552 145.948
L107.47 97.6213
L108.387 148.772
L109.304 153.062
L110.221 170.546
L111.139 94.3167
L112.056 90.2286
L112.973 80.5493
L113.89 149.764
L114.808 115.466
L115.725 51.8032
L116.642 84.4372
L118.477 74.8646
L119.394 131.027
L120.311 121.811
L121.229 103.131
L122.146 144.521
L123.063 178.504
L123.98 190.813
L124.898 212.535
L125.815 164.199
L126.732 131.127
L127.649 134.832
L128.567 123.067
L129.484 72.5568
L130.401 120.38
L131.318 110.56
L132.236 166.849
L133.153 115.635
L134.07 81.1704
L134.987 53.8939
L135.905 167.857
L136.822 144.72
L137.739 93.9187
L138.657 87.4668
L139.574 64.3867
L140.491 60.1275
L141.408 39.5701
L142.326 69.8018
L143.243 34.5289
L144.16 44.7959
L145.077 104.954
L145.995 114.511
L146.912 118.491
L147.829 93.762
L148.746 82.215
L149.664 107.753
L150.581 41.8877
L151.498 63.4994
L152.415 132.875
L153.333 143.844
L154.25 105.436
L155.167 105.517
L156.084 104.445
L157.002 97.57
L157.919 108.939
L158.836 135.802
L159.754 129.881
L161.588 207.683
L162.505 169.16
L163.423 173.533
L164.34 132.191
L165.257 102.473
L166.174 131.222
L167.092 66.7068
L168.009 67.3971
L168.926 106.67
L169.843 159.774
L170.761 147.99
L171.678 201.363
L172.595 186.842
L173.512 147.518
L174.43 123.49
L175.347 75.3578
L176.264 70.8076
L177.181 95.4573
L178.099 84.2984
L179.016 68.7855
L179.933 98.5731
L180.85 96.7038
L181.768 100.272
L182.685 98.1793
L183.602 121.107
L184.52 140.285
L185.437 140.501
L186.354 149.692
L187.271 169.153
L188.189 116.794
L190.94 84.0891
L191.858 172.143
L192.775 164.058
L193.692 171.984
L194.609 162.249
L195.527 125.693
L196.444 176.886
L197.361 205.166
L198.278 150.965
L199.196 86.2088
L200.113 99.248
L201.03 93.2141
L201.947 90.4647
L202.865 129.427
M301.929 112.95
L302.846 116.725
L303.763 92.5194
L304.681 104.651
L305.598 112.9
L306.515 104.325
L307.432 98.5413
L308.35 96.9666
L309.267 110.518
L310.184 108.974
L311.101 113.298
L312.019 195.436
L312.936 219.16
L313.853 203.688
L314.77 206.704
L315.688 186.386
L316.605 178.568
L317.522 192.924
L318.44 163.39
L319.357 186.698
L320.274 201.688
L321.191 160.295
L322.109 126.465
L323.026 102.652
L323.943 67.9649
L324.86 89.7314
L325.778 94.6959
L326.695 140.244
L327.612 153.178
L328.529 198.638
L329.447 209.08
L330.364 185.66
L331.281 137.921
L332.198 184.434
L333.116 177.653
L334.033 116.824
L334.95 103.011
L335.867 127.574
L336.785 114.185
L337.702 96.6993
L338.619 82.1275
L339.537 93.6581
L340.454 127.514
L341.371 132.905
L342.288 186.608
L343.206 202.67
L344.123 182.558
L345.04 168.102
L345.957 208.919
L347.792 184.26
L348.709 206.649
L349.626 145.616
L350.544 76.8703
L352.378 156.207
L353.295 104.365
L354.213 135.63
L355.13 139.632
L356.047 62.3081
L356.964 66.7207
L357.882 44.2838
L358.799 125.089
L359.716 191.661
L360.634 164.21
L361.551 211.13
L362.468 217.149
L363.385 180.95
L364.303 136.713
L365.22 76.6467
L366.137 86.2374
L367.054 82.8082
L367.972 144.511
L368.889 118.315
L369.806 142.595
L370.723 163.245
L370.723 163.245" style="fill:none;stroke:#0000ff;stroke-linecap:square;"/>
   </g>
   <g id="line2d_16">
    <path clip-path="url(#pd0c402dd48)" d="
M36.8406 233.546
L37.7579 225.902
L38.6751 222.275
L39.5924 227.374
L40.5097 217.846
L41.4269 212.54
L42.3442 221.366
L43.2614 244.163
L44.1787 227.528
L45.096 236.158
L46.0132 234.359
L46.9305 238.558
L47.8477 237.049
L48.765 227.685
L49.6823 215.477
L50.5995 216.328
L51.5168 214.45
L52.434 222.278
L53.3513 214.666
L54.2686 219.964
L55.1858 220.966
L56.1031 225.896
L57.0204 220.379
M72.6138 231.492
L73.531 224.802
L74.4483 229.049
L75.3656 236.076
L76.2828 231.498
L77.2001 230.8
L78.1173 224.501
L79.0346 231.208
L79.9519 209.118
L80.8691 231.08
L81.7864 231.901
L82.7036 235.739
L83.6209 225.192
L84.5382 225.664
L86.3727 211.733
L87.2899 210.589
L88.2072 214.617
L89.1245 228.658
L90.0417 220.491
L90.959 234.499
L91.8762 231.922
L92.7935 234.489
L93.7108 207.455
L94.628 223.887
L95.5453 218.37
L96.4625 216.81
L97.3798 199.086
L98.2971 222.918
L99.2143 236.427
L100.132 210.435
L101.049 196.383
L101.966 190.751
L102.883 215.878
L103.801 188.823
L104.718 182.275
L105.635 214.517
L106.552 217.824
L107.47 185.554
L108.387 185.97
L109.304 193.749
L110.221 175.014
L111.139 169.266
L112.056 179.746
L112.973 201.759
L113.89 205.708
M115.725 224.242
L116.642 228.372
L117.56 218.642
L118.477 201.2
L119.394 236.828
L120.311 227.246
L121.229 198.95
L122.146 201.61
L123.063 199.509
L123.98 191.727
L124.898 172.23
L125.815 178.675
L126.732 178.558
L127.649 175.383
L128.567 175.451
L129.484 186.238
L130.401 191.262
L131.318 180.319
L132.236 185.689
L133.153 181.548
L134.07 183.361
L134.987 178.237
L135.905 176.038
L136.822 175.587
L137.739 178.732
L138.657 224.65
L139.574 199.435
L140.491 210.155
L141.408 228.669
L142.326 209.101
L143.243 197.894
L144.16 192.279
L145.077 167.844
L145.995 159.527
L146.912 156.989
L147.829 158.755
L148.746 169.9
L150.581 205.388
L151.498 196.06
L152.415 196.586
L153.333 199.753
L154.25 197.038
L155.167 203.476
L156.084 175.534
L157.002 174.567
L158.836 165.926
L159.754 160.135
L160.671 183.442
L161.588 169.665
L162.505 196.861
L163.423 188.174
L164.34 204.184
L165.257 209.175
L166.174 180.199
L167.092 172.942
L168.009 190.516
L168.926 190.174
L169.843 178.252
L170.761 179.675
L171.678 194.618
L172.595 181.591
L173.512 187.618
L174.43 183.976
L175.347 195.956
L176.264 173.865
L177.181 167.493
L178.099 179.374
L179.016 179.66
L179.933 175.957
L180.85 191.831
L181.768 183.796
L182.685 182.114
L183.602 184.207
L184.52 180.571
L185.437 186.522
L186.354 206.819
L187.271 207.142
L188.189 199.664
L190.94 215.435
L191.858 164.857
L192.775 175.512
L194.609 161.035
L195.527 161.887
L196.444 185.969
L197.361 218.757
L198.278 207.469
L199.196 209.05
L200.113 193.263
L201.03 187.041
L201.947 179.304
L202.865 173.33
L203.782 188.043
L204.699 187.324
L205.617 182.832
L206.534 181.748
L208.368 196.227
L209.286 201.177
L210.203 213.142
L211.12 195.522
L212.037 198.43
L212.955 194.627
L213.872 195.569
L214.789 193.126
L215.706 197.294
L217.541 207.371
L218.458 201.835
L219.375 205.121
L220.293 199.218
L221.21 216.473
L223.044 196.388
L223.962 197.122
L224.879 196.976
L225.796 187.963
L226.714 191.081
L227.631 200.052
L228.548 190.948
L229.465 200.663
L230.383 198.483
L231.3 205.666
L232.217 207.227
L233.134 203.616
L234.052 204.029
L234.969 211.439
L235.886 210.213
L236.803 205.239
L237.721 208.158
L238.638 204.508
L239.555 196.451
L240.472 200.519
L241.39 199.908
L242.307 219.531
L243.224 205.777
L244.141 203.259
L245.059 204.974
L245.976 194.592
L246.893 193.161
L247.81 202.934
L248.728 207.562
L249.645 203.245
L250.562 207.613
L251.48 214.249
L252.397 207.369
L253.314 213.921
L255.149 193.64
L256.066 191.518
L256.983 193.684
L257.9 208.445
L258.818 205.256
L259.735 203.474
L260.652 202.448
L261.569 207.82
L262.487 195.969
L263.404 189.236
L264.321 192.806
L265.238 198.351
L266.156 191.513
L267.073 195.985
L267.99 203.401
L268.907 205.282
L269.825 204.674
L270.742 208.717
L271.659 199.331
L272.577 196.514
L273.494 196.8
L274.411 203.899
L275.328 212.921
L276.246 212.138
L277.163 210.928
L278.08 221.962
L278.997 217.59
L279.915 221.446
L280.832 203.158
L281.749 210.344
L282.666 213.184
L283.584 227.103
L285.418 237.332
L286.335 218.893
L288.17 199.681
L289.087 199.593
L290.004 196.059
L290.922 196.473
L291.839 198.483
L293.674 203.559
L294.591 207.979
L295.508 213.051
L296.425 219.64
L297.343 225.302
L298.26 210.902
L299.177 215.261
L300.094 226.191
L301.012 219.138
L301.929 202.065
L303.763 219.222
L304.681 206.72
L305.598 225.929
L306.515 218.488
L307.432 232.109
L308.35 220.034
L309.267 224.499
L310.184 222.792
L311.101 219.97
L312.019 209.062
L312.936 219.895
L313.853 215.492
L314.77 218.851
L315.688 233.033
M317.522 232.201
L318.44 234.004
L319.357 227.144
L320.274 215.907
L321.191 219.627
L322.109 216.351
L323.026 225.636
L323.943 231.452
L324.86 229.37
L325.778 215.044
L326.695 228.705
M328.529 241.31
L329.447 229.323
L330.364 226.206
L331.281 224.41
L332.198 220.406
L333.116 215.854
L334.033 222.843
L334.95 234.08
L335.867 229.021
L336.785 221.536
L337.702 235.248
L338.619 222.502
L339.537 221.795
L340.454 214.518
L341.371 230.645
L342.288 226.404
L343.206 235.067
L344.123 233.727
L345.04 229.973
L346.875 221.527
L347.792 230.751
L348.709 225.881
L349.626 235.216
L350.544 228.85
L351.461 225.872
L352.378 224.617
L353.295 236.247
L354.213 241.83
L355.13 228.382
L356.047 229.783
L356.964 237.562
L357.882 232.133
L358.799 237.122
L359.716 239.903
L360.634 241.53
L361.551 241.495
L362.468 243.805
L363.385 233.079
L364.303 239.77
L365.22 243.644
M367.054 238.427
L367.972 243.248
L368.889 243.233
L369.806 244.506
L369.806 244.506" style="fill:none;stroke:#008000;stroke-linecap:square;"/>
   </g>
   <g id="patch_3">
    <path d="
M36.8406 21.3181
L371.641 21.3181" style="fill:none;stroke:#000000;stroke-linecap:square;stroke-linejoin:miter;"/>
   </g>
   <g id="patch_4">
    <path d="
M371.641 244.518
L371.641 21.3181" style="fill:none;stroke:#000000;stroke-linecap:square;stroke-linejoin:miter;"/>
   </g>
   <g id="patch_5">
    <path d="
M36.8406 244.518
L36.8406 21.3181" style="fill:none;stroke:#000000;stroke-linecap:square;stroke-linejoin:miter;"/>
   </g>
   <g id="patch_6">
    <path d="
M36.8406 244.518
L371.641 244.518" style="fill:none;stroke:#000000;stroke-linecap:square;stroke-linejoin:miter;"/>
   </g>
   <g id="matplotlib.axis_1">
    <g id="xtick_1">
     <g id="line2d_17">
      <defs>
       <path d="
M0 0
L0 -4" id="mc7db9fdffb" style="stroke:#000000;stroke-width:0.5;"/>
      </defs>
      <g>
       <use style="stroke:#000000;stroke-width:0.5;" x="36.840625" xlink:href="#mc7db9fdffb" y="244.518125"/>
      </g>
     </g>
     <g id="line2d_18">
      <defs>
       <path d="
M0 0
L0 4" id="m5a7d422ac3" style="stroke:#000000;stroke-width:0.5;"/>
      </defs>
      <g>
       <use style="stroke:#000000;stroke-width:0.5;" x="36.840625" xlink:href="#m5a7d422ac3" y="21.318125"/>
      </g>
     </g>
     <g id="text_1">
      <!-- 0 -->
      <defs>
       <path d="
M31.7812 66.4062
Q24.1719 66.4062 20.3281 58.9062
Q16.5 51.4219 16.5 36.375
Q16.5 21.3906 20.3281 13.8906
Q24.1719 6.39062 31.7812 6.39062
Q39.4531 6.39062 43.2812 13.8906
Q47.125 21.3906 47.125 36.375
Q47.125 51.4219 43.2812 58.9062
Q39.4531 66.4062 31.7812 66.4062
M31.7812 74.2188
Q44.0469 74.2188 50.5156 64.5156
Q56.9844 54.8281 56.9844 36.375
Q56.9844 17.9688 50.5156 8.26562
Q44.0469 -1.42188 31.7812 -1.42188
Q19.5312 -1.42188 13.0625 8.26562
Q6.59375 17.9688 6.59375 36.375
Q6.59375 54.8281 13.0625 64.5156
Q19.5312 74.2188 31.7812 74.2188" id="BitstreamVeraSans-Roman-30"/>
      </defs>
      <g transform="translate(34.32109375 256.1165625)scale(0.1 -0.1)">
       <use xlink:href="#BitstreamVeraSans-Roman-30"/>
      </g>
     </g>
    </g>
    <g id="xtick_2">
     <g id="line2d_19">
      <g>
       <use style="stroke:#000000;stroke-width:0.5;" x="82.7036386986" xlink:href="#mc7db9fdffb" y="244.518125"/>
      </g>
     </g>
     <g id="line2d_20">
      <g>
       <use style="stroke:#000000;stroke-width:0.5;" x="82.7036386986" xlink:href="#m5a7d422ac3" y="21.318125"/>
      </g>
     </g>
     <g id="text_2">
      <!-- 50 -->
      <defs>
       <path d="
M10.7969 72.9062
L49.5156 72.9062
L49.5156 64.5938
L19.8281 64.5938
L19.8281 46.7344
Q21.9688 47.4688 24.1094 47.8281
Q26.2656 48.1875 28.4219 48.1875
Q40.625 48.1875 47.75 41.5
Q54.8906 34.8125 54.8906 23.3906
Q54.8906 11.625 47.5625 5.09375
Q40.2344 -1.42188 26.9062 -1.42188
Q22.3125 -1.42188 17.5469 -0.640625
Q12.7969 0.140625 7.71875 1.70312
L7.71875 11.625
Q12.1094 9.23438 16.7969 8.0625
Q21.4844 6.89062 26.7031 6.89062
Q35.1562 6.89062 40.0781 11.3281
Q45.0156 15.7656 45.0156 23.3906
Q45.0156 31 40.0781 35.4375
Q35.1562 39.8906 26.7031 39.8906
Q22.75 39.8906 18.8125 39.0156
Q14.8906 38.1406 10.7969 36.2812
z
" id="BitstreamVeraSans-Roman-35"/>
      </defs>
      <g transform="translate(77.0591074486 256.1165625)scale(0.1 -0.1)">
       <use xlink:href="#BitstreamVeraSans-Roman-35"/>
       <use x="63.623046875" xlink:href="#BitstreamVeraSans-Roman-30"/>
      </g>
     </g>
    </g>
    <g id="xtick_3">
     <g id="line2d_21">
      <g>
       <use style="stroke:#000000;stroke-width:0.5;" x="128.566652397" xlink:href="#mc7db9fdffb" y="244.518125"/>
      </g>
     </g>
     <g id="line2d_22">
      <g>
       <use style="stroke:#000000;stroke-width:0.5;" x="128.566652397" xlink:href="#m5a7d422ac3" y="21.318125"/>
      </g>
     </g>
     <g id="text_3">
      <!-- 100 -->
      <defs>
       <path d="
M12.4062 8.29688
L28.5156 8.29688
L28.5156 63.9219
L10.9844 60.4062
L10.9844 69.3906
L28.4219 72.9062
L38.2812 72.9062
L38.2812 8.29688
L54.3906 8.29688
L54.3906 0
L12.4062 0
z
" id="BitstreamVeraSans-Roman-31"/>
      </defs>
      <g transform="translate(119.904152397 256.1165625)scale(0.1 -0.1)">
       <use xlink:href="#BitstreamVeraSans-Roman-31"/>
       <use x="63.623046875" xlink:href="#BitstreamVeraSans-Roman-30"/>
       <use x="127.24609375" xlink:href="#BitstreamVeraSans-Roman-30"/>
      </g>
     </g>
    </g>
    <g id="xtick_4">
     <g id="line2d_23">
      <g>
       <use style="stroke:#000000;stroke-width:0.5;" x="174.429666096" xlink:href="#mc7db9fdffb" y="244.518125"/>
      </g>
     </g>
     <g id="line2d_24">
      <g>
       <use style="stroke:#000000;stroke-width:0.5;" x="174.429666096" xlink:href="#m5a7d422ac3" y="21.318125"/>
      </g>
     </g>
     <g id="text_4">
      <!-- 150 -->
      <g transform="translate(165.767166096 256.1165625)scale(0.1 -0.1)">
       <use xlink:href="#BitstreamVeraSans-Roman-31"/>
       <use x="63.623046875" xlink:href="#BitstreamVeraSans-Roman-35"/>
       <use x="127.24609375" xlink:href="#BitstreamVeraSans-Roman-30"/>
      </g>
     </g>
    </g>
    <g id="xtick_5">
     <g id="line2d_25">
      <g>
       <use style="stroke:#000000;stroke-width:0.5;" x="220.292679795" xlink:href="#mc7db9fdffb" y="244.518125"/>
      </g>
     </g>
     <g id="line2d_26">
      <g>
       <use style="stroke:#000000;stroke-width:0.5;" x="220.292679795" xlink:href="#m5a7d422ac3" y="21.318125"/>
      </g>
     </g>
     <g id="text_5">
      <!-- 200 -->
      <defs>
       <path d="
M19.1875 8.29688
L53.6094 8.29688
L53.6094 0
L7.32812 0
L7.32812 8.29688
Q12.9375 14.1094 22.625 23.8906
Q32.3281 33.6875 34.8125 36.5312
Q39.5469 41.8438 41.4219 45.5312
Q43.3125 49.2188 43.3125 52.7812
Q43.3125 58.5938 39.2344 62.25
Q35.1562 65.9219 28.6094 65.9219
Q23.9688 65.9219 18.8125 64.3125
Q13.6719 62.7031 7.8125 59.4219
L7.8125 69.3906
Q13.7656 71.7812 18.9375 73
Q24.125 74.2188 28.4219 74.2188
Q39.75 74.2188 46.4844 68.5469
Q53.2188 62.8906 53.2188 53.4219
Q53.2188 48.9219 51.5312 44.8906
Q49.8594 40.875 45.4062 35.4062
Q44.1875 33.9844 37.6406 27.2188
Q31.1094 20.4531 19.1875 8.29688" id="BitstreamVeraSans-Roman-32"/>
      </defs>
      <g transform="translate(211.447367295 256.1165625)scale(0.1 -0.1)">
       <use xlink:href="#BitstreamVeraSans-Roman-32"/>
       <use x="63.623046875" xlink:href="#BitstreamVeraSans-Roman-30"/>
       <use x="127.24609375" xlink:href="#BitstreamVeraSans-Roman-30"/>
      </g>
     </g>
    </g>
    <g id="xtick_6">
     <g id="line2d_27">
      <g>
       <use style="stroke:#000000;stroke-width:0.5;" x="266.155693493" xlink:href="#mc7db9fdffb" y="244.518125"/>
      </g>
     </g>
     <g id="line2d_28">
      <g>
       <use style="stroke:#000000;stroke-width:0.5;" x="266.155693493" xlink:href="#m5a7d422ac3" y="21.318125"/>
      </g>
     </g>
     <g id="text_6">
      <!-- 250 -->
      <g transform="translate(257.310380993 256.1165625)scale(0.1 -0.1)">
       <use xlink:href="#BitstreamVeraSans-Roman-32"/>
       <use x="63.623046875" xlink:href="#BitstreamVeraSans-Roman-35"/>
       <use x="127.24609375" xlink:href="#BitstreamVeraSans-Roman-30"/>
      </g>
     </g>
    </g>
    <g id="xtick_7">
     <g id="line2d_29">
      <g>
       <use style="stroke:#000000;stroke-width:0.5;" x="312.018707192" xlink:href="#mc7db9fdffb" y="244.518125"/>
      </g>
     </g>
     <g id="line2d_30">
      <g>
       <use style="stroke:#000000;stroke-width:0.5;" x="312.018707192" xlink:href="#m5a7d422ac3" y="21.318125"/>
      </g>
     </g>
     <g id="text_7">
      <!-- 300 -->
      <defs>
       <path d="
M40.5781 39.3125
Q47.6562 37.7969 51.625 33
Q55.6094 28.2188 55.6094 21.1875
Q55.6094 10.4062 48.1875 4.48438
Q40.7656 -1.42188 27.0938 -1.42188
Q22.5156 -1.42188 17.6562 -0.515625
Q12.7969 0.390625 7.625 2.20312
L7.625 11.7188
Q11.7188 9.32812 16.5938 8.10938
Q21.4844 6.89062 26.8125 6.89062
Q36.0781 6.89062 40.9375 10.5469
Q45.7969 14.2031 45.7969 21.1875
Q45.7969 27.6406 41.2812 31.2656
Q36.7656 34.9062 28.7188 34.9062
L20.2188 34.9062
L20.2188 43.0156
L29.1094 43.0156
Q36.375 43.0156 40.2344 45.9219
Q44.0938 48.8281 44.0938 54.2969
Q44.0938 59.9062 40.1094 62.9062
Q36.1406 65.9219 28.7188 65.9219
Q24.6562 65.9219 20.0156 65.0312
Q15.375 64.1562 9.8125 62.3125
L9.8125 71.0938
Q15.4375 72.6562 20.3438 73.4375
Q25.25 74.2188 29.5938 74.2188
Q40.8281 74.2188 47.3594 69.1094
Q53.9062 64.0156 53.9062 55.3281
Q53.9062 49.2656 50.4375 45.0938
Q46.9688 40.9219 40.5781 39.3125" id="BitstreamVeraSans-Roman-33"/>
      </defs>
      <g transform="translate(303.188238442 256.1165625)scale(0.1 -0.1)">
       <use xlink:href="#BitstreamVeraSans-Roman-33"/>
       <use x="63.623046875" xlink:href="#BitstreamVeraSans-Roman-30"/>
       <use x="127.24609375" xlink:href="#BitstreamVeraSans-Roman-30"/>
      </g>
     </g>
    </g>
    <g id="xtick_8">
     <g id="line2d_31">
      <g>
       <use style="stroke:#000000;stroke-width:0.5;" x="357.88172089" xlink:href="#mc7db9fdffb" y="244.518125"/>
      </g>
     </g>
     <g id="line2d_32">
      <g>
       <use style="stroke:#000000;stroke-width:0.5;" x="357.88172089" xlink:href="#m5a7d422ac3" y="21.318125"/>
      </g>
     </g>
     <g id="text_8">
      <!-- 350 -->
      <g transform="translate(349.05125214 256.1165625)scale(0.1 -0.1)">
       <use xlink:href="#BitstreamVeraSans-Roman-33"/>
       <use x="63.623046875" xlink:href="#BitstreamVeraSans-Roman-35"/>
       <use x="127.24609375" xlink:href="#BitstreamVeraSans-Roman-30"/>
      </g>
     </g>
    </g>
    <g id="text_9">
     <!-- Julian day -->
     <defs>
      <path d="
M9.8125 72.9062
L19.6719 72.9062
L19.6719 5.07812
Q19.6719 -8.10938 14.6719 -14.0625
Q9.67188 -20.0156 -1.42188 -20.0156
L-5.17188 -20.0156
L-5.17188 -11.7188
L-2.09375 -11.7188
Q4.4375 -11.7188 7.125 -8.04688
Q9.8125 -4.39062 9.8125 5.07812
z
" id="BitstreamVeraSans-Roman-4a"/>
      <path d="
M9.42188 54.6875
L18.4062 54.6875
L18.4062 0
L9.42188 0
z

M9.42188 75.9844
L18.4062 75.9844
L18.4062 64.5938
L9.42188 64.5938
z
" id="BitstreamVeraSans-Roman-69"/>
      <path d="
M45.4062 46.3906
L45.4062 75.9844
L54.3906 75.9844
L54.3906 0
L45.4062 0
L45.4062 8.20312
Q42.5781 3.32812 38.25 0.953125
Q33.9375 -1.42188 27.875 -1.42188
Q17.9688 -1.42188 11.7344 6.48438
Q5.51562 14.4062 5.51562 27.2969
Q5.51562 40.1875 11.7344 48.0938
Q17.9688 56 27.875 56
Q33.9375 56 38.25 53.625
Q42.5781 51.2656 45.4062 46.3906
M14.7969 27.2969
Q14.7969 17.3906 18.875 11.75
Q22.9531 6.10938 30.0781 6.10938
Q37.2031 6.10938 41.2969 11.75
Q45.4062 17.3906 45.4062 27.2969
Q45.4062 37.2031 41.2969 42.8438
Q37.2031 48.4844 30.0781 48.4844
Q22.9531 48.4844 18.875 42.8438
Q14.7969 37.2031 14.7969 27.2969" id="BitstreamVeraSans-Roman-64"/>
      <path d="
M34.2812 27.4844
Q23.3906 27.4844 19.1875 25
Q14.9844 22.5156 14.9844 16.5
Q14.9844 11.7188 18.1406 8.90625
Q21.2969 6.10938 26.7031 6.10938
Q34.1875 6.10938 38.7031 11.4062
Q43.2188 16.7031 43.2188 25.4844
L43.2188 27.4844
z

M52.2031 31.2031
L52.2031 0
L43.2188 0
L43.2188 8.29688
Q40.1406 3.32812 35.5469 0.953125
Q30.9531 -1.42188 24.3125 -1.42188
Q15.9219 -1.42188 10.9531 3.29688
Q6 8.01562 6 15.9219
Q6 25.1406 12.1719 29.8281
Q18.3594 34.5156 30.6094 34.5156
L43.2188 34.5156
L43.2188 35.4062
Q43.2188 41.6094 39.1406 45
Q35.0625 48.3906 27.6875 48.3906
Q23 48.3906 18.5469 47.2656
Q14.1094 46.1406 10.0156 43.8906
L10.0156 52.2031
Q14.9375 54.1094 19.5781 55.0469
Q24.2188 56 28.6094 56
Q40.4844 56 46.3438 49.8438
Q52.2031 43.7031 52.2031 31.2031" id="BitstreamVeraSans-Roman-61"/>
      <path id="BitstreamVeraSans-Roman-20"/>
      <path d="
M8.5 21.5781
L8.5 54.6875
L17.4844 54.6875
L17.4844 21.9219
Q17.4844 14.1562 20.5 10.2656
Q23.5312 6.39062 29.5938 6.39062
Q36.8594 6.39062 41.0781 11.0312
Q45.3125 15.6719 45.3125 23.6875
L45.3125 54.6875
L54.2969 54.6875
L54.2969 0
L45.3125 0
L45.3125 8.40625
Q42.0469 3.42188 37.7188 1
Q33.4062 -1.42188 27.6875 -1.42188
Q18.2656 -1.42188 13.375 4.4375
Q8.5 10.2969 8.5 21.5781" id="BitstreamVeraSans-Roman-75"/>
      <path d="
M9.42188 75.9844
L18.4062 75.9844
L18.4062 0
L9.42188 0
z
" id="BitstreamVeraSans-Roman-6c"/>
      <path d="
M54.8906 33.0156
L54.8906 0
L45.9062 0
L45.9062 32.7188
Q45.9062 40.4844 42.875 44.3281
Q39.8438 48.1875 33.7969 48.1875
Q26.5156 48.1875 22.3125 43.5469
Q18.1094 38.9219 18.1094 30.9062
L18.1094 0
L9.07812 0
L9.07812 54.6875
L18.1094 54.6875
L18.1094 46.1875
Q21.3438 51.125 25.7031 53.5625
Q30.0781 56 35.7969 56
Q45.2188 56 50.0469 50.1719
Q54.8906 44.3438 54.8906 33.0156" id="BitstreamVeraSans-Roman-6e"/>
      <path d="
M32.1719 -5.07812
Q28.375 -14.8438 24.75 -17.8125
Q21.1406 -20.7969 15.0938 -20.7969
L7.90625 -20.7969
L7.90625 -13.2812
L13.1875 -13.2812
Q16.8906 -13.2812 18.9375 -11.5156
Q21 -9.76562 23.4844 -3.21875
L25.0938 0.875
L2.98438 54.6875
L12.5 54.6875
L29.5938 11.9219
L46.6875 54.6875
L56.2031 54.6875
z
" id="BitstreamVeraSans-Roman-79"/>
     </defs>
     <g transform="translate(179.68984375 270.7946875)scale(0.1 -0.1)">
      <use xlink:href="#BitstreamVeraSans-Roman-4a"/>
      <use x="29.4921875" xlink:href="#BitstreamVeraSans-Roman-75"/>
      <use x="92.87109375" xlink:href="#BitstreamVeraSans-Roman-6c"/>
      <use x="120.654296875" xlink:href="#BitstreamVeraSans-Roman-69"/>
      <use x="148.4375" xlink:href="#BitstreamVeraSans-Roman-61"/>
      <use x="209.716796875" xlink:href="#BitstreamVeraSans-Roman-6e"/>
      <use x="273.095703125" xlink:href="#BitstreamVeraSans-Roman-20"/>
      <use x="304.8828125" xlink:href="#BitstreamVeraSans-Roman-64"/>
      <use x="368.359375" xlink:href="#BitstreamVeraSans-Roman-61"/>
      <use x="429.638671875" xlink:href="#BitstreamVeraSans-Roman-79"/>
     </g>
    </g>
   </g>
   <g id="matplotlib.axis_2">
    <g id="ytick_1">
     <g id="line2d_33">
      <defs>
       <path d="
M0 0
L4 0" id="md7965d1ba0" style="stroke:#000000;stroke-width:0.5;"/>
      </defs>
      <g>
       <use style="stroke:#000000;stroke-width:0.5;" x="36.840625" xlink:href="#md7965d1ba0" y="244.518125"/>
      </g>
     </g>
     <g id="line2d_34">
      <defs>
       <path d="
M0 0
L-4 0" id="md9a1c1a7cd" style="stroke:#000000;stroke-width:0.5;"/>
      </defs>
      <g>
       <use style="stroke:#000000;stroke-width:0.5;" x="371.640625" xlink:href="#md9a1c1a7cd" y="244.518125"/>
      </g>
     </g>
     <g id="text_10">
      <!-- 0 -->
      <g transform="translate(27.8015625 247.2775)scale(0.1 -0.1)">
       <use xlink:href="#BitstreamVeraSans-Roman-30"/>
      </g>
     </g>
    </g>
    <g id="ytick_2">
     <g id="line2d_35">
      <g>
       <use style="stroke:#000000;stroke-width:0.5;" x="36.840625" xlink:href="#md7965d1ba0" y="199.878125"/>
      </g>
     </g>
     <g id="line2d_36">
      <g>
       <use style="stroke:#000000;stroke-width:0.5;" x="371.640625" xlink:href="#md9a1c1a7cd" y="199.878125"/>
      </g>
     </g>
     <g id="text_11">
      <!-- 2 -->
      <g transform="translate(28.2125 202.6375)scale(0.1 -0.1)">
       <use xlink:href="#BitstreamVeraSans-Roman-32"/>
      </g>
     </g>
    </g>
    <g id="ytick_3">
     <g id="line2d_37">
      <g>
       <use style="stroke:#000000;stroke-width:0.5;" x="36.840625" xlink:href="#md7965d1ba0" y="155.238125"/>
      </g>
     </g>
     <g id="line2d_38">
      <g>
       <use style="stroke:#000000;stroke-width:0.5;" x="371.640625" xlink:href="#md9a1c1a7cd" y="155.238125"/>
      </g>
     </g>
     <g id="text_12">
      <!-- 4 -->
      <defs>
       <path d="
M37.7969 64.3125
L12.8906 25.3906
L37.7969 25.3906
z

M35.2031 72.9062
L47.6094 72.9062
L47.6094 25.3906
L58.0156 25.3906
L58.0156 17.1875
L47.6094 17.1875
L47.6094 0
L37.7969 0
L37.7969 17.1875
L4.89062 17.1875
L4.89062 26.7031
z
" id="BitstreamVeraSans-Roman-34"/>
      </defs>
      <g transform="translate(27.528125 157.9975)scale(0.1 -0.1)">
       <use xlink:href="#BitstreamVeraSans-Roman-34"/>
      </g>
     </g>
    </g>
    <g id="ytick_4">
     <g id="line2d_39">
      <g>
       <use style="stroke:#000000;stroke-width:0.5;" x="36.840625" xlink:href="#md7965d1ba0" y="110.598125"/>
      </g>
     </g>
     <g id="line2d_40">
      <g>
       <use style="stroke:#000000;stroke-width:0.5;" x="371.640625" xlink:href="#md9a1c1a7cd" y="110.598125"/>
      </g>
     </g>
     <g id="text_13">
      <!-- 6 -->
      <defs>
       <path d="
M33.0156 40.375
Q26.375 40.375 22.4844 35.8281
Q18.6094 31.2969 18.6094 23.3906
Q18.6094 15.5312 22.4844 10.9531
Q26.375 6.39062 33.0156 6.39062
Q39.6562 6.39062 43.5312 10.9531
Q47.4062 15.5312 47.4062 23.3906
Q47.4062 31.2969 43.5312 35.8281
Q39.6562 40.375 33.0156 40.375
M52.5938 71.2969
L52.5938 62.3125
Q48.875 64.0625 45.0938 64.9844
Q41.3125 65.9219 37.5938 65.9219
Q27.8281 65.9219 22.6719 59.3281
Q17.5312 52.7344 16.7969 39.4062
Q19.6719 43.6562 24.0156 45.9219
Q28.375 48.1875 33.5938 48.1875
Q44.5781 48.1875 50.9531 41.5156
Q57.3281 34.8594 57.3281 23.3906
Q57.3281 12.1562 50.6875 5.35938
Q44.0469 -1.42188 33.0156 -1.42188
Q20.3594 -1.42188 13.6719 8.26562
Q6.98438 17.9688 6.98438 36.375
Q6.98438 53.6562 15.1875 63.9375
Q23.3906 74.2188 37.2031 74.2188
Q40.9219 74.2188 44.7031 73.4844
Q48.4844 72.75 52.5938 71.2969" id="BitstreamVeraSans-Roman-36"/>
      </defs>
      <g transform="translate(27.80625 113.3575)scale(0.1 -0.1)">
       <use xlink:href="#BitstreamVeraSans-Roman-36"/>
      </g>
     </g>
    </g>
    <g id="ytick_5">
     <g id="line2d_41">
      <g>
       <use style="stroke:#000000;stroke-width:0.5;" x="36.840625" xlink:href="#md7965d1ba0" y="65.958125"/>
      </g>
     </g>
     <g id="line2d_42">
      <g>
       <use style="stroke:#000000;stroke-width:0.5;" x="371.640625" xlink:href="#md9a1c1a7cd" y="65.958125"/>
      </g>
     </g>
     <g id="text_14">
      <!-- 8 -->
      <defs>
       <path d="
M31.7812 34.625
Q24.75 34.625 20.7188 30.8594
Q16.7031 27.0938 16.7031 20.5156
Q16.7031 13.9219 20.7188 10.1562
Q24.75 6.39062 31.7812 6.39062
Q38.8125 6.39062 42.8594 10.1719
Q46.9219 13.9688 46.9219 20.5156
Q46.9219 27.0938 42.8906 30.8594
Q38.875 34.625 31.7812 34.625
M21.9219 38.8125
Q15.5781 40.375 12.0312 44.7188
Q8.5 49.0781 8.5 55.3281
Q8.5 64.0625 14.7188 69.1406
Q20.9531 74.2188 31.7812 74.2188
Q42.6719 74.2188 48.875 69.1406
Q55.0781 64.0625 55.0781 55.3281
Q55.0781 49.0781 51.5312 44.7188
Q48 40.375 41.7031 38.8125
Q48.8281 37.1562 52.7969 32.3125
Q56.7812 27.4844 56.7812 20.5156
Q56.7812 9.90625 50.3125 4.23438
Q43.8438 -1.42188 31.7812 -1.42188
Q19.7344 -1.42188 13.25 4.23438
Q6.78125 9.90625 6.78125 20.5156
Q6.78125 27.4844 10.7812 32.3125
Q14.7969 37.1562 21.9219 38.8125
M18.3125 54.3906
Q18.3125 48.7344 21.8438 45.5625
Q25.3906 42.3906 31.7812 42.3906
Q38.1406 42.3906 41.7188 45.5625
Q45.3125 48.7344 45.3125 54.3906
Q45.3125 60.0625 41.7188 63.2344
Q38.1406 66.4062 31.7812 66.4062
Q25.3906 66.4062 21.8438 63.2344
Q18.3125 60.0625 18.3125 54.3906" id="BitstreamVeraSans-Roman-38"/>
      </defs>
      <g transform="translate(27.840625 68.7175)scale(0.1 -0.1)">
       <use xlink:href="#BitstreamVeraSans-Roman-38"/>
      </g>
     </g>
    </g>
    <g id="ytick_6">
     <g id="line2d_43">
      <g>
       <use style="stroke:#000000;stroke-width:0.5;" x="36.840625" xlink:href="#md7965d1ba0" y="21.318125"/>
      </g>
     </g>
     <g id="line2d_44">
      <g>
       <use style="stroke:#000000;stroke-width:0.5;" x="371.640625" xlink:href="#md9a1c1a7cd" y="21.318125"/>
      </g>
     </g>
     <g id="text_15">
      <!-- 10 -->
      <g transform="translate(21.878125 24.0775)scale(0.1 -0.1)">
       <use xlink:href="#BitstreamVeraSans-Roman-31"/>
       <use x="63.623046875" xlink:href="#BitstreamVeraSans-Roman-30"/>
      </g>
     </g>
    </g>
    <g id="text_16">
     <!-- PET (mm/day) -->
     <defs>
      <path d="
M19.6719 64.7969
L19.6719 37.4062
L32.0781 37.4062
Q38.9688 37.4062 42.7188 40.9688
Q46.4844 44.5312 46.4844 51.125
Q46.4844 57.6719 42.7188 61.2344
Q38.9688 64.7969 32.0781 64.7969
z

M9.8125 72.9062
L32.0781 72.9062
Q44.3438 72.9062 50.6094 67.3594
Q56.8906 61.8125 56.8906 51.125
Q56.8906 40.3281 50.6094 34.8125
Q44.3438 29.2969 32.0781 29.2969
L19.6719 29.2969
L19.6719 0
L9.8125 0
z
" id="BitstreamVeraSans-Roman-50"/>
      <path d="
M-0.296875 72.9062
L61.375 72.9062
L61.375 64.5938
L35.5 64.5938
L35.5 0
L25.5938 0
L25.5938 64.5938
L-0.296875 64.5938
z
" id="BitstreamVeraSans-Roman-54"/>
      <path d="
M31 75.875
Q24.4688 64.6562 21.2812 53.6562
Q18.1094 42.6719 18.1094 31.3906
Q18.1094 20.125 21.3125 9.0625
Q24.5156 -2 31 -13.1875
L23.1875 -13.1875
Q15.875 -1.70312 12.2344 9.375
Q8.59375 20.4531 8.59375 31.3906
Q8.59375 42.2812 12.2031 53.3125
Q15.8281 64.3594 23.1875 75.875
z
" id="BitstreamVeraSans-Roman-28"/>
      <path d="
M52 44.1875
Q55.375 50.25 60.0625 53.125
Q64.75 56 71.0938 56
Q79.6406 56 84.2812 50.0156
Q88.9219 44.0469 88.9219 33.0156
L88.9219 0
L79.8906 0
L79.8906 32.7188
Q79.8906 40.5781 77.0938 44.375
Q74.3125 48.1875 68.6094 48.1875
Q61.625 48.1875 57.5625 43.5469
Q53.5156 38.9219 53.5156 30.9062
L53.5156 0
L44.4844 0
L44.4844 32.7188
Q44.4844 40.625 41.7031 44.4062
Q38.9219 48.1875 33.1094 48.1875
Q26.2188 48.1875 22.1562 43.5312
Q18.1094 38.875 18.1094 30.9062
L18.1094 0
L9.07812 0
L9.07812 54.6875
L18.1094 54.6875
L18.1094 46.1875
Q21.1875 51.2188 25.4844 53.6094
Q29.7812 56 35.6875 56
Q41.6562 56 45.8281 52.9688
Q50 49.9531 52 44.1875" id="BitstreamVeraSans-Roman-6d"/>
      <path d="
M8.01562 75.875
L15.8281 75.875
Q23.1406 64.3594 26.7812 53.3125
Q30.4219 42.2812 30.4219 31.3906
Q30.4219 20.4531 26.7812 9.375
Q23.1406 -1.70312 15.8281 -13.1875
L8.01562 -13.1875
Q14.5 -2 17.7031 9.0625
Q20.9062 20.125 20.9062 31.3906
Q20.9062 42.6719 17.7031 53.6562
Q14.5 64.6562 8.01562 75.875" id="BitstreamVeraSans-Roman-29"/>
      <path d="
M25.3906 72.9062
L33.6875 72.9062
L8.29688 -9.28125
L0 -9.28125
z
" id="BitstreamVeraSans-Roman-2f"/>
      <path d="
M9.8125 72.9062
L55.9062 72.9062
L55.9062 64.5938
L19.6719 64.5938
L19.6719 43.0156
L54.3906 43.0156
L54.3906 34.7188
L19.6719 34.7188
L19.6719 8.29688
L56.7812 8.29688
L56.7812 0
L9.8125 0
z
" id="BitstreamVeraSans-Roman-45"/>
     </defs>
     <g transform="translate(14.7984375 167.82984375)rotate(-90.0)scale(0.1 -0.1)">
      <use xlink:href="#BitstreamVeraSans-Roman-50"/>
      <use x="60.302734375" xlink:href="#BitstreamVeraSans-Roman-45"/>
      <use x="123.486328125" xlink:href="#BitstreamVeraSans-Roman-54"/>
      <use x="184.5703125" xlink:href="#BitstreamVeraSans-Roman-20"/>
      <use x="216.357421875" xlink:href="#BitstreamVeraSans-Roman-28"/>
      <use x="255.37109375" xlink:href="#BitstreamVeraSans-Roman-6d"/>
      <use x="352.783203125" xlink:href="#BitstreamVeraSans-Roman-6d"/>
      <use x="450.1953125" xlink:href="#BitstreamVeraSans-Roman-2f"/>
      <use x="483.88671875" xlink:href="#BitstreamVeraSans-Roman-64"/>
      <use x="547.36328125" xlink:href="#BitstreamVeraSans-Roman-61"/>
      <use x="608.642578125" xlink:href="#BitstreamVeraSans-Roman-79"/>
      <use x="667.822265625" xlink:href="#BitstreamVeraSans-Roman-29"/>
     </g>
    </g>
   </g>
   <g id="text_17">
    <!-- daily shrub PET at Treeline -->
    <defs>
     <path d="
M18.3125 70.2188
L18.3125 54.6875
L36.8125 54.6875
L36.8125 47.7031
L18.3125 47.7031
L18.3125 18.0156
Q18.3125 11.3281 20.1406 9.42188
Q21.9688 7.51562 27.5938 7.51562
L36.8125 7.51562
L36.8125 0
L27.5938 0
Q17.1875 0 13.2344 3.875
Q9.28125 7.76562 9.28125 18.0156
L9.28125 47.7031
L2.6875 47.7031
L2.6875 54.6875
L9.28125 54.6875
L9.28125 70.2188
z
" id="BitstreamVeraSans-Roman-74"/>
     <path d="
M48.6875 27.2969
Q48.6875 37.2031 44.6094 42.8438
Q40.5312 48.4844 33.4062 48.4844
Q26.2656 48.4844 22.1875 42.8438
Q18.1094 37.2031 18.1094 27.2969
Q18.1094 17.3906 22.1875 11.75
Q26.2656 6.10938 33.4062 6.10938
Q40.5312 6.10938 44.6094 11.75
Q48.6875 17.3906 48.6875 27.2969
M18.1094 46.3906
Q20.9531 51.2656 25.2656 53.625
Q29.5938 56 35.5938 56
Q45.5625 56 51.7812 48.0938
Q58.0156 40.1875 58.0156 27.2969
Q58.0156 14.4062 51.7812 6.48438
Q45.5625 -1.42188 35.5938 -1.42188
Q29.5938 -1.42188 25.2656 0.953125
Q20.9531 3.32812 18.1094 8.20312
L18.1094 0
L9.07812 0
L9.07812 75.9844
L18.1094 75.9844
z
" id="BitstreamVeraSans-Roman-62"/>
     <path d="
M54.8906 33.0156
L54.8906 0
L45.9062 0
L45.9062 32.7188
Q45.9062 40.4844 42.875 44.3281
Q39.8438 48.1875 33.7969 48.1875
Q26.5156 48.1875 22.3125 43.5469
Q18.1094 38.9219 18.1094 30.9062
L18.1094 0
L9.07812 0
L9.07812 75.9844
L18.1094 75.9844
L18.1094 46.1875
Q21.3438 51.125 25.7031 53.5625
Q30.0781 56 35.7969 56
Q45.2188 56 50.0469 50.1719
Q54.8906 44.3438 54.8906 33.0156" id="BitstreamVeraSans-Roman-68"/>
     <path d="
M56.2031 29.5938
L56.2031 25.2031
L14.8906 25.2031
Q15.4844 15.9219 20.4844 11.0625
Q25.4844 6.20312 34.4219 6.20312
Q39.5938 6.20312 44.4531 7.46875
Q49.3125 8.73438 54.1094 11.2812
L54.1094 2.78125
Q49.2656 0.734375 44.1875 -0.34375
Q39.1094 -1.42188 33.8906 -1.42188
Q20.7969 -1.42188 13.1562 6.1875
Q5.51562 13.8125 5.51562 26.8125
Q5.51562 40.2344 12.7656 48.1094
Q20.0156 56 32.3281 56
Q43.3594 56 49.7812 48.8906
Q56.2031 41.7969 56.2031 29.5938
M47.2188 32.2344
Q47.125 39.5938 43.0938 43.9844
Q39.0625 48.3906 32.4219 48.3906
Q24.9062 48.3906 20.3906 44.1406
Q15.875 39.8906 15.1875 32.1719
z
" id="BitstreamVeraSans-Roman-65"/>
     <path d="
M44.2812 53.0781
L44.2812 44.5781
Q40.4844 46.5312 36.375 47.5
Q32.2812 48.4844 27.875 48.4844
Q21.1875 48.4844 17.8438 46.4375
Q14.5 44.3906 14.5 40.2812
Q14.5 37.1562 16.8906 35.375
Q19.2812 33.5938 26.5156 31.9844
L29.5938 31.2969
Q39.1562 29.25 43.1875 25.5156
Q47.2188 21.7812 47.2188 15.0938
Q47.2188 7.46875 41.1875 3.01562
Q35.1562 -1.42188 24.6094 -1.42188
Q20.2188 -1.42188 15.4531 -0.5625
Q10.6875 0.296875 5.42188 2
L5.42188 11.2812
Q10.4062 8.6875 15.2344 7.39062
Q20.0625 6.10938 24.8125 6.10938
Q31.1562 6.10938 34.5625 8.28125
Q37.9844 10.4531 37.9844 14.4062
Q37.9844 18.0625 35.5156 20.0156
Q33.0625 21.9688 24.7031 23.7812
L21.5781 24.5156
Q13.2344 26.2656 9.51562 29.9062
Q5.8125 33.5469 5.8125 39.8906
Q5.8125 47.6094 11.2812 51.7969
Q16.75 56 26.8125 56
Q31.7812 56 36.1719 55.2656
Q40.5781 54.5469 44.2812 53.0781" id="BitstreamVeraSans-Roman-73"/>
     <path d="
M41.1094 46.2969
Q39.5938 47.1719 37.8125 47.5781
Q36.0312 48 33.8906 48
Q26.2656 48 22.1875 43.0469
Q18.1094 38.0938 18.1094 28.8125
L18.1094 0
L9.07812 0
L9.07812 54.6875
L18.1094 54.6875
L18.1094 46.1875
Q20.9531 51.1719 25.4844 53.5781
Q30.0312 56 36.5312 56
Q37.4531 56 38.5781 55.875
Q39.7031 55.7656 41.0625 55.5156
z
" id="BitstreamVeraSans-Roman-72"/>
    </defs>
    <g transform="translate(125.1296875 16.318125)scale(0.12 -0.12)">
     <use xlink:href="#BitstreamVeraSans-Roman-64"/>
     <use x="63.4765625" xlink:href="#BitstreamVeraSans-Roman-61"/>
     <use x="124.755859375" xlink:href="#BitstreamVeraSans-Roman-69"/>
     <use x="152.5390625" xlink:href="#BitstreamVeraSans-Roman-6c"/>
     <use x="180.322265625" xlink:href="#BitstreamVeraSans-Roman-79"/>
     <use x="239.501953125" xlink:href="#BitstreamVeraSans-Roman-20"/>
     <use x="271.2890625" xlink:href="#BitstreamVeraSans-Roman-73"/>
     <use x="323.388671875" xlink:href="#BitstreamVeraSans-Roman-68"/>
     <use x="386.767578125" xlink:href="#BitstreamVeraSans-Roman-72"/>
     <use x="427.880859375" xlink:href="#BitstreamVeraSans-Roman-75"/>
     <use x="491.259765625" xlink:href="#BitstreamVeraSans-Roman-62"/>
     <use x="554.736328125" xlink:href="#BitstreamVeraSans-Roman-20"/>
     <use x="586.5234375" xlink:href="#BitstreamVeraSans-Roman-50"/>
     <use x="646.826171875" xlink:href="#BitstreamVeraSans-Roman-45"/>
     <use x="710.009765625" xlink:href="#BitstreamVeraSans-Roman-54"/>
     <use x="771.09375" xlink:href="#BitstreamVeraSans-Roman-20"/>
     <use x="802.880859375" xlink:href="#BitstreamVeraSans-Roman-61"/>
     <use x="864.16015625" xlink:href="#BitstreamVeraSans-Roman-74"/>
     <use x="903.369140625" xlink:href="#BitstreamVeraSans-Roman-20"/>
     <use x="935.15625" xlink:href="#BitstreamVeraSans-Roman-54"/>
     <use x="981.490234375" xlink:href="#BitstreamVeraSans-Roman-72"/>
     <use x="1020.353515625" xlink:href="#BitstreamVeraSans-Roman-65"/>
     <use x="1081.876953125" xlink:href="#BitstreamVeraSans-Roman-65"/>
     <use x="1143.400390625" xlink:href="#BitstreamVeraSans-Roman-6c"/>
     <use x="1171.18359375" xlink:href="#BitstreamVeraSans-Roman-69"/>
     <use x="1198.966796875" xlink:href="#BitstreamVeraSans-Roman-6e"/>
     <use x="1262.345703125" xlink:href="#BitstreamVeraSans-Roman-65"/>
    </g>
   </g>
   <g id="legend_1">
    <g id="patch_7">
     <path d="
M293.453 312.738
L365.641 312.738
L365.641 27.3181
L293.453 27.3181
z
" style="fill:#ffffff;stroke:#000000;stroke-linejoin:miter;"/>
    </g>
    <g id="line2d_45">
     <path d="
M301.853 37.0363
L318.653 37.0363" style="fill:none;stroke:#0000ff;stroke-linecap:square;"/>
    </g>
    <g id="line2d_46"/>
    <g id="text_18">
     <!-- 1999 -->
     <defs>
      <path d="
M10.9844 1.51562
L10.9844 10.5
Q14.7031 8.73438 18.5 7.8125
Q22.3125 6.89062 25.9844 6.89062
Q35.75 6.89062 40.8906 13.4531
Q46.0469 20.0156 46.7812 33.4062
Q43.9531 29.2031 39.5938 26.9531
Q35.25 24.7031 29.9844 24.7031
Q19.0469 24.7031 12.6719 31.3125
Q6.29688 37.9375 6.29688 49.4219
Q6.29688 60.6406 12.9375 67.4219
Q19.5781 74.2188 30.6094 74.2188
Q43.2656 74.2188 49.9219 64.5156
Q56.5938 54.8281 56.5938 36.375
Q56.5938 19.1406 48.4062 8.85938
Q40.2344 -1.42188 26.4219 -1.42188
Q22.7031 -1.42188 18.8906 -0.6875
Q15.0938 0.046875 10.9844 1.51562
M30.6094 32.4219
Q37.25 32.4219 41.125 36.9531
Q45.0156 41.5 45.0156 49.4219
Q45.0156 57.2812 41.125 61.8438
Q37.25 66.4062 30.6094 66.4062
Q23.9688 66.4062 20.0938 61.8438
Q16.2188 57.2812 16.2188 49.4219
Q16.2188 41.5 20.0938 36.9531
Q23.9688 32.4219 30.6094 32.4219" id="BitstreamVeraSans-Roman-39"/>
     </defs>
     <g transform="translate(331.853125 41.23625)scale(0.12 -0.12)">
      <use xlink:href="#BitstreamVeraSans-Roman-31"/>
      <use x="63.623046875" xlink:href="#BitstreamVeraSans-Roman-39"/>
      <use x="127.24609375" xlink:href="#BitstreamVeraSans-Roman-39"/>
      <use x="190.869140625" xlink:href="#BitstreamVeraSans-Roman-39"/>
     </g>
    </g>
    <g id="line2d_47">
     <path d="
M301.853 54.65
L318.653 54.65" style="fill:none;stroke:#008000;stroke-linecap:square;"/>
    </g>
    <g id="line2d_48"/>
    <g id="text_19">
     <!-- 2000 -->
     <g transform="translate(331.853125 58.85)scale(0.12 -0.12)">
      <use xlink:href="#BitstreamVeraSans-Roman-32"/>
      <use x="63.623046875" xlink:href="#BitstreamVeraSans-Roman-30"/>
      <use x="127.24609375" xlink:href="#BitstreamVeraSans-Roman-30"/>
      <use x="190.869140625" xlink:href="#BitstreamVeraSans-Roman-30"/>
     </g>
    </g>
    <g id="line2d_49">
     <path d="
M301.853 72.2638
L318.653 72.2638" style="fill:none;stroke:#ff0000;stroke-linecap:square;"/>
    </g>
    <g id="line2d_50"/>
    <g id="text_20">
     <!-- 2001 -->
     <g transform="translate(331.853125 76.46375)scale(0.12 -0.12)">
      <use xlink:href="#BitstreamVeraSans-Roman-32"/>
      <use x="63.623046875" xlink:href="#BitstreamVeraSans-Roman-30"/>
      <use x="127.24609375" xlink:href="#BitstreamVeraSans-Roman-30"/>
      <use x="190.869140625" xlink:href="#BitstreamVeraSans-Roman-31"/>
     </g>
    </g>
    <g id="line2d_51">
     <path d="
M301.853 89.8775
L318.653 89.8775" style="fill:none;stroke:#00bfbf;stroke-linecap:square;"/>
    </g>
    <g id="line2d_52"/>
    <g id="text_21">
     <!-- 2002 -->
     <g transform="translate(331.853125 94.0775)scale(0.12 -0.12)">
      <use xlink:href="#BitstreamVeraSans-Roman-32"/>
      <use x="63.623046875" xlink:href="#BitstreamVeraSans-Roman-30"/>
      <use x="127.24609375" xlink:href="#BitstreamVeraSans-Roman-30"/>
      <use x="190.869140625" xlink:href="#BitstreamVeraSans-Roman-32"/>
     </g>
    </g>
    <g id="line2d_53">
     <path d="
M301.853 107.491
L318.653 107.491" style="fill:none;stroke:#bf00bf;stroke-linecap:square;"/>
    </g>
    <g id="line2d_54"/>
    <g id="text_22">
     <!-- 2003 -->
     <g transform="translate(331.853125 111.69125)scale(0.12 -0.12)">
      <use xlink:href="#BitstreamVeraSans-Roman-32"/>
      <use x="63.623046875" xlink:href="#BitstreamVeraSans-Roman-30"/>
      <use x="127.24609375" xlink:href="#BitstreamVeraSans-Roman-30"/>
      <use x="190.869140625" xlink:href="#BitstreamVeraSans-Roman-33"/>
     </g>
    </g>
    <g id="line2d_55">
     <path d="
M301.853 125.105
L318.653 125.105" style="fill:none;stroke:#bfbf00;stroke-linecap:square;"/>
    </g>
    <g id="line2d_56"/>
    <g id="text_23">
     <!-- 2004 -->
     <g transform="translate(331.853125 129.305)scale(0.12 -0.12)">
      <use xlink:href="#BitstreamVeraSans-Roman-32"/>
      <use x="63.623046875" xlink:href="#BitstreamVeraSans-Roman-30"/>
      <use x="127.24609375" xlink:href="#BitstreamVeraSans-Roman-30"/>
      <use x="190.869140625" xlink:href="#BitstreamVeraSans-Roman-34"/>
     </g>
    </g>
    <g id="line2d_57">
     <path d="
M301.853 142.719
L318.653 142.719" style="fill:none;stroke:#000000;stroke-linecap:square;"/>
    </g>
    <g id="line2d_58"/>
    <g id="text_24">
     <!-- 2005 -->
     <g transform="translate(331.853125 146.91875)scale(0.12 -0.12)">
      <use xlink:href="#BitstreamVeraSans-Roman-32"/>
      <use x="63.623046875" xlink:href="#BitstreamVeraSans-Roman-30"/>
      <use x="127.24609375" xlink:href="#BitstreamVeraSans-Roman-30"/>
      <use x="190.869140625" xlink:href="#BitstreamVeraSans-Roman-35"/>
     </g>
    </g>
    <g id="line2d_59">
     <path d="
M301.853 160.333
L318.653 160.333" style="fill:none;stroke:#0000ff;stroke-linecap:square;"/>
    </g>
    <g id="line2d_60"/>
    <g id="text_25">
     <!-- 2006 -->
     <g transform="translate(331.853125 164.5325)scale(0.12 -0.12)">
      <use xlink:href="#BitstreamVeraSans-Roman-32"/>
      <use x="63.623046875" xlink:href="#BitstreamVeraSans-Roman-30"/>
      <use x="127.24609375" xlink:href="#BitstreamVeraSans-Roman-30"/>
      <use x="190.869140625" xlink:href="#BitstreamVeraSans-Roman-36"/>
     </g>
    </g>
    <g id="line2d_61">
     <path d="
M301.853 177.946
L318.653 177.946" style="fill:none;stroke:#008000;stroke-linecap:square;"/>
    </g>
    <g id="line2d_62"/>
    <g id="text_26">
     <!-- 2007 -->
     <defs>
      <path d="
M8.20312 72.9062
L55.0781 72.9062
L55.0781 68.7031
L28.6094 0
L18.3125 0
L43.2188 64.5938
L8.20312 64.5938
z
" id="BitstreamVeraSans-Roman-37"/>
     </defs>
     <g transform="translate(331.853125 182.14625)scale(0.12 -0.12)">
      <use xlink:href="#BitstreamVeraSans-Roman-32"/>
      <use x="63.623046875" xlink:href="#BitstreamVeraSans-Roman-30"/>
      <use x="127.24609375" xlink:href="#BitstreamVeraSans-Roman-30"/>
      <use x="190.869140625" xlink:href="#BitstreamVeraSans-Roman-37"/>
     </g>
    </g>
    <g id="line2d_63">
     <path d="
M301.853 195.56
L318.653 195.56" style="fill:none;stroke:#ff0000;stroke-linecap:square;"/>
    </g>
    <g id="line2d_64"/>
    <g id="text_27">
     <!-- 2008 -->
     <g transform="translate(331.853125 199.76)scale(0.12 -0.12)">
      <use xlink:href="#BitstreamVeraSans-Roman-32"/>
      <use x="63.623046875" xlink:href="#BitstreamVeraSans-Roman-30"/>
      <use x="127.24609375" xlink:href="#BitstreamVeraSans-Roman-30"/>
      <use x="190.869140625" xlink:href="#BitstreamVeraSans-Roman-38"/>
     </g>
    </g>
    <g id="line2d_65">
     <path d="
M301.853 213.174
L318.653 213.174" style="fill:none;stroke:#00bfbf;stroke-linecap:square;"/>
    </g>
    <g id="line2d_66"/>
    <g id="text_28">
     <!-- 2009 -->
     <g transform="translate(331.853125 217.37375)scale(0.12 -0.12)">
      <use xlink:href="#BitstreamVeraSans-Roman-32"/>
      <use x="63.623046875" xlink:href="#BitstreamVeraSans-Roman-30"/>
      <use x="127.24609375" xlink:href="#BitstreamVeraSans-Roman-30"/>
      <use x="190.869140625" xlink:href="#BitstreamVeraSans-Roman-39"/>
     </g>
    </g>
    <g id="line2d_67">
     <path d="
M301.853 230.788
L318.653 230.788" style="fill:none;stroke:#bf00bf;stroke-linecap:square;"/>
    </g>
    <g id="line2d_68"/>
    <g id="text_29">
     <!-- 2010 -->
     <g transform="translate(331.853125 234.9875)scale(0.12 -0.12)">
      <use xlink:href="#BitstreamVeraSans-Roman-32"/>
      <use x="63.623046875" xlink:href="#BitstreamVeraSans-Roman-30"/>
      <use x="127.24609375" xlink:href="#BitstreamVeraSans-Roman-31"/>
      <use x="190.869140625" xlink:href="#BitstreamVeraSans-Roman-30"/>
     </g>
    </g>
    <g id="line2d_69">
     <path d="
M301.853 248.401
L318.653 248.401" style="fill:none;stroke:#bfbf00;stroke-linecap:square;"/>
    </g>
    <g id="line2d_70"/>
    <g id="text_30">
     <!-- 2011 -->
     <g transform="translate(331.853125 252.60125)scale(0.12 -0.12)">
      <use xlink:href="#BitstreamVeraSans-Roman-32"/>
      <use x="63.623046875" xlink:href="#BitstreamVeraSans-Roman-30"/>
      <use x="127.24609375" xlink:href="#BitstreamVeraSans-Roman-31"/>
      <use x="190.869140625" xlink:href="#BitstreamVeraSans-Roman-31"/>
     </g>
    </g>
    <g id="line2d_71">
     <path d="
M301.853 266.015
L318.653 266.015" style="fill:none;stroke:#000000;stroke-linecap:square;"/>
    </g>
    <g id="line2d_72"/>
    <g id="text_31">
     <!-- 2012 -->
     <g transform="translate(331.853125 270.215)scale(0.12 -0.12)">
      <use xlink:href="#BitstreamVeraSans-Roman-32"/>
      <use x="63.623046875" xlink:href="#BitstreamVeraSans-Roman-30"/>
      <use x="127.24609375" xlink:href="#BitstreamVeraSans-Roman-31"/>
      <use x="190.869140625" xlink:href="#BitstreamVeraSans-Roman-32"/>
     </g>
    </g>
    <g id="line2d_73">
     <path d="
M301.853 283.629
L318.653 283.629" style="fill:none;stroke:#0000ff;stroke-linecap:square;"/>
    </g>
    <g id="line2d_74"/>
    <g id="text_32">
     <!-- 2013 -->
     <g transform="translate(331.853125 287.82875)scale(0.12 -0.12)">
      <use xlink:href="#BitstreamVeraSans-Roman-32"/>
      <use x="63.623046875" xlink:href="#BitstreamVeraSans-Roman-30"/>
      <use x="127.24609375" xlink:href="#BitstreamVeraSans-Roman-31"/>
      <use x="190.869140625" xlink:href="#BitstreamVeraSans-Roman-33"/>
     </g>
    </g>
    <g id="line2d_75">
     <path d="
M301.853 301.243
L318.653 301.243" style="fill:none;stroke:#008000;stroke-linecap:square;"/>
    </g>
    <g id="line2d_76"/>
    <g id="text_33">
     <!-- 2014 -->
     <g transform="translate(331.853125 305.4425)scale(0.12 -0.12)">
      <use xlink:href="#BitstreamVeraSans-Roman-32"/>
      <use x="63.623046875" xlink:href="#BitstreamVeraSans-Roman-30"/>
      <use x="127.24609375" xlink:href="#BitstreamVeraSans-Roman-31"/>
      <use x="190.869140625" xlink:href="#BitstreamVeraSans-Roman-34"/>
     </g>
    </g>
   </g>
  </g>
 </g>
 <defs>
  <clipPath id="pd0c402dd48">
   <rect height="223.2" width="334.8" x="36.840625" y="21.318125"/>
  </clipPath>
 </defs>
</svg>
