<?xml version="1.0" encoding="utf-8" standalone="no"?>
<!DOCTYPE svg PUBLIC "-//W3C//DTD SVG 1.1//EN"
  "http://www.w3.org/Graphics/SVG/1.1/DTD/svg11.dtd">
<!-- Created with matplotlib (http://matplotlib.org/) -->
<svg height="408pt" version="1.1" viewBox="0 0 504 408" width="504pt" xmlns="http://www.w3.org/2000/svg" xmlns:xlink="http://www.w3.org/1999/xlink">
 <defs>
  <style type="text/css">
*{stroke-linecap:butt;stroke-linejoin:round;}
  </style>
 </defs>
 <g id="figure_1">
  <g id="patch_1">
   <path d="
M0 408.169
L504.671 408.169
L504.671 0
L0 0
z
" style="fill:#ffffff;"/>
  </g>
  <g id="axes_1">
   <g id="patch_2">
    <path d="
M51.0713 368.742
L497.471 368.742
L497.471 23.1417
L51.0713 23.1417
z
" style="fill:#ffffff;"/>
   </g>
   <g id="line2d_1">
    <path clip-path="url(#p5fc3a60927)" d="
M0 0" style="fill:none;stroke:#0000ff;stroke-linecap:square;"/>
   </g>
   <g id="line2d_2">
    <path clip-path="url(#p5fc3a60927)" d="
M0 0" style="fill:none;stroke:#008000;stroke-linecap:square;"/>
   </g>
   <g id="line2d_3">
    <path clip-path="url(#p5fc3a60927)" d="
M0 0" style="fill:none;stroke:#ff0000;stroke-linecap:square;"/>
   </g>
   <g id="line2d_4">
    <path clip-path="url(#p5fc3a60927)" d="
M0 0" style="fill:none;stroke:#00bfbf;stroke-linecap:square;"/>
   </g>
   <g id="line2d_5">
    <path clip-path="url(#p5fc3a60927)" d="
M0 0" style="fill:none;stroke:#bf00bf;stroke-linecap:square;"/>
   </g>
   <g id="line2d_6">
    <path clip-path="url(#p5fc3a60927)" d="
M0 0" style="fill:none;stroke:#bfbf00;stroke-linecap:square;"/>
   </g>
   <g id="line2d_7">
    <path clip-path="url(#p5fc3a60927)" d="
M0 0" style="fill:none;stroke:#000000;stroke-linecap:square;"/>
   </g>
   <g id="line2d_8">
    <path clip-path="url(#p5fc3a60927)" d="
M0 0" style="fill:none;stroke:#0000ff;stroke-linecap:square;"/>
   </g>
   <g id="line2d_9">
    <path clip-path="url(#p5fc3a60927)" d="
M0 0" style="fill:none;stroke:#008000;stroke-linecap:square;"/>
   </g>
   <g id="line2d_10">
    <path clip-path="url(#p5fc3a60927)" d="
M51.3044 409.169
L51.5104 -1
M55.9609 -1
L55.9633 194.521
L57.1863 270.831
L58.3202 409.169
M60.5811 409.169
L60.8554 274.742
L62.0784 209.834
L63.3014 278.662
L64.5244 191.583
L65.7474 181.117
L66.9704 177.418
L68.1934 2.91573
L69.1303 409.169
M70.1634 409.169
L70.6395 330.105
L73.0855 188.415
L74.3085 242.19
L75.5315 235.207
L76.7545 248.275
L77.9776 225.747
L79.2006 281.825
L80.4236 275.418
L80.7322 -1
M84.0812 -1
L84.0926 86.2228
L85.3156 357.67
L86.5386 295.935
L87.1698 409.169
M88.8106 409.169
L88.9847 391.547
L89.0197 409.169
M93.6167 409.169
L93.8767 331.469
L95.0997 340.738
L96.3228 373.393
L97.5458 248.723
L98.7688 82.2473
L99.8926 -1
M101.987 -1
L102.438 73.8983
L102.491 -1
M104.603 -1
L104.837 409.169
M105.231 409.169
L106.107 204.736
L107.33 177.912
L108.553 123.384
L109.776 180.915
L110.999 169.224
L112.222 185.796
L113.445 165.758
L114.668 200.788
L115.891 116.051
L116.569 -1
M117.581 -1
L118.337 151.327
L119.56 153.683
L120.783 162.853
L122.006 120.638
L122.202 -1
M125.005 -1
L125.54 409.169
M125.997 409.169
L126.898 118.262
L128.121 407.192
L129.344 103.755
L130.567 117.689
L131.79 128.081
L133.013 68.3925
L134.236 122.192
L135.136 -1
M136.644 -1
L136.682 0.425653
L137.905 60.8928
L139.128 86.6651
L140.351 184.253
L141.574 190.71
L142.797 106.507
L144.02 149.506
L145.243 137.233
L146.045 -1
M146.943 -1
L147.689 112.695
L148.912 207.586
L150.135 117.614
L150.228 -1
M152.495 -1
L152.581 108.801
L155.027 194.828
L156.25 323.825
L156.638 -1
M158.339 -1
L158.696 287.747
L159.919 161.322
L161.142 262.387
L162.104 -1
M162.914 -1
L163.589 87.1437
L164.812 66.8182
L165.088 -1
M166.853 -1
L167.258 113.589
L168.481 135.5
L169.704 160.109
L170.927 100.873
L172.15 171.578
L173.373 108.903
L174.532 -1
M179.378 -1
L179.488 173.609
L180.711 21.9827
L181.221 -1
M182.567 -1
L183.157 28.8052
L183.354 -1
M184.875 -1
L185.603 227.528
L186.826 158.202
L187.095 -1
M189.14 -1
L189.272 67.0795
L190.495 113.865
L191.213 -1
M233.28 -1
L233.3 9.36035
L233.921 -1
M239.058 -1
L239.415 40.5647
L239.477 -1
M389.396 -1
L389.846 40.066
L391.069 69.652
L392.096 -1
M395.987 -1
L397.184 288.48
L398.016 409.169
M398.558 409.169
L399.63 6.26238
L400.853 113.613
L402.076 57.7776
L403.299 44.9462
L404.522 66.4813
L404.769 -1
M411.601 -1
L411.86 112.684
L413.083 59.9558
L414.306 37.5454
L414.455 -1
M417.91 -1
L417.975 13.2609
L419.198 9.06867
L419.451 -1
M425.303 -1
L425.313 61.8877
L426.536 74.3942
L427.759 97.1113
L428.982 177.764
L430.205 183.728
L431.429 99.2562
L431.715 -1
M433.571 -1
L433.875 107.119
L435.098 4.63286
L436.321 185.341
L437.158 -1
M439.799 -1
L439.99 92.0725
L441.213 119.894
L442.436 96.0573
L442.894 -1
M444.677 -1
L444.882 31.6308
L446.105 103.222
L446.236 -1
M448.41 -1
L448.551 111.951
L449.774 132.538
L450.997 179.771
L451.787 -1
M452.803 -1
L453.443 107.457
L454.666 120.29
L455.889 122.335
L457.112 63.5536
L457.43 -1
M460.157 -1
L460.781 105.135
L461.59 -1
M462.318 -1
L463.227 155.715
L464.45 161.814
L465.673 166.798
L466.896 110.047
L468.119 123.097
L469.342 305.154
L470.565 175.707
L471.788 154.181
L473.011 174.273
L474.234 178.416
L475.457 228.853
L476.68 301.469
L476.689 409.169
M479.115 409.169
L479.126 273.391
L480.349 350.441
L480.64 409.169
M482.737 409.169
L482.795 399.703
L484.018 394.606
L484.063 409.169
M486.074 409.169
L486.464 232.441
L487.687 253.991
L487.74 409.169
M490.114 409.169
L490.133 353.802
L490.506 409.169
M491.863 409.169
L492.579 230.615
L493.802 167.753
L494.105 -1
M495.798 -1
L496.248 297.66
L496.248 297.66" style="fill:none;stroke:#ff0000;stroke-linecap:square;"/>
   </g>
   <g id="line2d_11">
    <path clip-path="url(#p5fc3a60927)" d="
M51.0713 148.734
L51.4654 -1
M52.933 -1
L53.5173 287.056
L53.8958 409.169
M56.5841 409.169
L57.1863 74.473
L57.3365 -1
M60.0868 -1
L60.8554 300.764
L62.0784 163.473
L63.3189 -1
M65.3011 -1
L65.7474 73.6335
L66.9704 83.177
L68.1934 149.559
L69.4165 160.99
L70.6395 183.119
L71.8625 189.315
L73.0855 159.395
L74.3085 184.134
L75.5315 153.945
L76.7545 176.97
L77.9776 210.413
L79.2006 193.589
L80.4236 253.757
L81.6466 281.208
L82.8696 262.763
L84.0071 409.169
M84.156 409.169
L85.3156 207.717
L86.5386 139.374
L87.7617 191.568
L88.9847 195.668
L90.2077 143.696
L90.7087 -1
M95.0723 -1
L95.0997 139.987
L96.3228 168.841
L97.5458 192.46
L98.7688 243.696
L99.6425 409.169
M100.297 409.169
L101.215 210.201
L102.438 223.839
L102.463 409.169
M104.867 409.169
L104.884 284.616
L104.884 284.616
L104.884 284.616
L104.898 409.169
M107.09 409.169
L107.127 -1
M108.447 -1
L108.553 208.854
L109.776 168.782
L110.999 115.365
L112.222 158.632
L113.103 -1
M117.069 -1
L117.114 35.3497
L118.337 171.033
L119.56 159.883
L120.783 248.148
L120.863 -1
M125.647 -1
L125.675 114.208
L126.898 197.091
L128.121 248.258
L129.344 361.024
L130.567 209.41
L131.79 238.468
L133.013 307.616
L133.603 409.169
M134.666 409.169
L135.459 208.012
L136.682 186.491
L137.905 143.809
L138.675 -1
M139.816 -1
L140.351 65.1425
L141.574 12.5992
L142.797 83.3591
L144.02 71.0959
L144.707 -1
M148.247 -1
L148.912 118.873
L150.135 59.3566
L151.358 91.5513
L152.581 245.651
L153.804 181.96
L155.027 108.261
L156.25 126.141
L156.521 -1
M158.465 -1
L158.696 103.712
L159.919 188.675
L161.142 212.23
L162.365 141.433
L163.589 263.291
L164.209 -1
M169.702 -1
L169.704 3.12734
L170.927 22.7634
L172.15 135.865
L173.373 64.4048
L173.954 -1
M175.648 -1
L175.819 10.6763
L177.042 15.5924
L177.064 -1
M193.983 -1
L194.164 148.009
L195.387 99.4895
L196.61 73.1691
L196.67 -1
M203.595 -1
L203.948 41.0153
L204.199 -1
M241.733 -1
L241.861 45.6136
L242.406 -1
M251.576 -1
L251.645 47.0956
L252.811 -1
M258.886 -1
L258.984 23.6484
L260.207 28.933
L260.493 -1
M317.594 -1
L317.688 122.346
L318.793 -1
M385.394 -1
L387.4 103.372
L388.623 194.1
L389.846 192.086
L391.069 118.258
L392.292 63.7812
L392.714 -1
M395.114 -1
L395.961 154.016
L397.184 113.548
L398.407 10.2207
L398.411 -1
M401.741 -1
L402.076 62.0422
L403.299 -1
M405.743 -1
L405.745 14.0186
L405.953 -1
M409.203 -1
L409.414 105.552
L410.132 -1
M411.824 -1
L411.86 1.27734
L411.86 1.27734
L411.86 1.27734
L411.866 -1
M414.1 -1
L414.306 98.157
L414.597 -1
M416.183 -1
L416.752 276.842
L417.975 151.335
L419.198 231.841
L420.421 47.1345
L421.644 85.1669
L422.867 35.8293
L424.09 99.8962
L425.313 108.907
L425.433 -1
M428.777 -1
L428.982 109.518
L430.205 145.552
L431.429 61.4184
L431.446 -1
M434.329 -1
L435.098 119.015
L436.321 201.886
L437.544 205.261
L438.767 213.749
L439.99 195
L440.061 -1
M443.587 -1
L443.659 123.486
L443.821 -1
M447.323 -1
L447.328 188.62
L448.022 409.169
M449.09 409.169
L449.774 196.414
L450.997 178.546
L452.22 173.688
L452.72 -1
M456.794 -1
L457.112 145.643
M459.558 140.003
L460.781 236.441
L462.004 227.084
L463.227 189.071
L463.639 409.169
M466.714 409.169
L466.896 309.802
L468.119 316.381
L469.342 252.326
L471.788 231.051
L473.011 220.655
L474.234 217.789
L475.457 194.427
L476.17 409.169
M477.17 409.169
L477.903 180.057
L479.126 167.862
L480.349 186.944
L481.572 171.119
L482.795 4.62603
L484.018 1.78893
L485.299 409.169
M487.483 409.169
L487.687 227.815
L488.91 207.914
L490.133 244.545
L491.356 244.02
L492.579 227.964
L493.802 230.203
L495.025 298.17
L496.248 336.658
L496.248 336.658" style="fill:none;stroke:#00bfbf;stroke-linecap:square;"/>
   </g>
   <g id="line2d_12">
    <path clip-path="url(#p5fc3a60927)" d="
M51.0713 159.753
L52.2943 189.895
L53.5173 183.83
L54.7403 137.029
L55.9633 161.585
L57.1863 112.758
L58.4093 223.949
L59.6323 213.776
L60.8554 193.735
L62.0784 159.174
L62.1073 -1
M66.1565 -1
L66.9704 167.153
L67.1755 -1
M69.2544 -1
L69.4165 126.494
L69.6829 -1
M76.6637 -1
L76.7545 194.217
L77.9776 279.685
L79.2006 207.282
L80.4236 146.06
L81.6466 190.78
L82.8696 195.927
L84.0926 191.372
L85.3156 181.337
L87.7617 225.122
L88.9847 207.599
L90.2077 163.061
L91.4307 174.487
L92.6537 137.426
L93.8767 131.494
L95.0997 75.4204
L96.3228 186.702
L97.5458 206.423
L98.7688 209.868
L99.9918 189.485
L101.215 172.053
L102.438 121.872
L103.661 175.073
L104.884 142.545
L106.107 195.294
L107.33 192.804
L108.553 194.489
L109.776 192.348
L110.999 200.077
L112.222 212.932
L113.445 239.394
L114.668 204.264
L115.891 41.0457
L117.114 177.165
L118.337 166.586
L118.343 -1
M126.235 -1
L126.898 41.7548
L128.121 89.2259
L128.9 -1
M129.779 -1
L130.567 92.4598
L131.79 95.0564
L132.963 409.169
M133.084 409.169
L134.236 189.328
L135.459 108.027
L135.462 -1
M138.012 -1
L139.128 121.4
L140.351 15.7073
L140.354 -1
M148.269 -1
L148.912 43.983
L150.135 30.3427
L150.151 -1
M153.323 -1
L153.804 225.113
L154.787 -1
M158.12 -1
L158.696 200.275
L159.919 147.203
L161.142 244.522
L162.365 258.444
L163.589 229.135
L164.104 -1
M165.634 -1
L166.035 152.803
L167.258 81.2221
L168.481 79.7389
L168.571 -1
M170.785 -1
L170.927 131.057
L171.242 -1
M174.959 -1
L175.819 118.323
L175.978 -1
M193.779 -1
L194.164 189.089
L195.387 170.344
L196.013 -1
M197.46 -1
L197.833 70.5025
L198.016 -1
M202.204 -1
L202.725 52.6552
L203.966 -1
M208.531 -1
L208.84 70.5187
L208.93 -1
M218.613 -1
L218.624 28.7447
L218.787 -1
M222.416 -1
L223.516 199.556
L224.739 45.6778
L225.962 25.8715
L225.987 -1
M229.62 -1
L229.631 7.61026
L229.631 7.61026
L229.631 7.61026
L229.712 -1
M231.748 -1
L232.077 43.6587
L233.3 11.3704
L233.627 -1
M235.064 -1
L235.746 41.8357
L236.969 90.3831
L237.91 -1
M239.147 -1
L239.415 6.69316
L239.615 -1
M344.529 -1
L344.595 59.6965
L345.086 -1
M346.728 -1
L347.041 30.0541
L347.165 -1
M357.929 -1
L358.048 30.3386
L359.272 -1
M388.466 -1
L388.623 47.5862
L388.922 -1
M393.436 -1
L393.515 99.7262
L394.738 53.1585
L395.253 -1
M398.283 -1
L398.407 43.6733
L398.782 -1
M407.491 -1
L408.191 49.8065
L409.414 23.6964
L410.189 -1
M410.837 -1
L411.86 72.3891
L412.26 -1
M413.674 -1
L414.306 160.746
L415.529 208.896
L416.42 -1
M420.262 -1
L420.421 25.2184
L421.644 133.681
L422.23 -1
M423.766 -1
L424.09 51.9053
L424.72 -1
M426.522 -1
L426.536 -0.388744
L426.536 -0.388744
L426.536 -0.388744
L426.538 -1
M430.654 -1
L431.429 115.961
L432.652 98.6822
L433.875 261.487
L435.098 195.601
L436.321 160.271
L437.544 195.596
L438.767 69.9413
L439.99 13.61
L440.114 -1
M444.119 -1
L444.882 212.478
L446.105 212.946
L447.116 409.169
M447.59 409.169
L448.551 258.699
L449.109 409.169
M451.64 409.169
L452.22 247.155
L452.779 409.169
M454.103 409.169
L454.666 245.052
L454.896 409.169
M456.948 409.169
L457.112 299.418
L457.551 409.169
M458.906 409.169
L459.558 185.782
L460.781 143.727
L462.004 190.487
L463.227 206.628
L464.45 123.246
L465.673 108.506
L465.981 -1
M468.768 -1
L469.342 151.576
L470.565 92.1833
L471.788 147.082
L473.011 81.6358
L474.234 119.213
L475.457 52.0652
L476.68 222.346
L477.903 232.52
L478.182 409.169
M479.921 409.169
L480.349 86.2879
L481.572 188.027
L482.795 274.646
L483.984 409.169
M484.023 409.169
L484.58 -1
M486.144 -1
L486.464 171.776
L486.489 -1
M490.217 -1
L491.356 203.164
L492.579 389.98
L493.802 357.646
L493.851 409.169
L493.851 409.169" style="fill:none;stroke:#bf00bf;stroke-linecap:square;"/>
   </g>
   <g id="line2d_13">
    <path clip-path="url(#p5fc3a60927)" d="
M51.0713 230.571
L52.2943 230.22
L53.5173 227.007
L54.7403 228.306
L55.9633 196.161
L57.1863 183.74
L58.4093 181.582
L59.6323 254.086
L60.8554 273.773
L62.0784 246.485
L62.1434 409.169
M64.4328 409.169
L64.5244 174.341
L65.7474 155.19
L66.9704 119.442
L68.1934 144.433
L69.3849 -1
M71.073 -1
L72.7444 409.169
M73.4512 409.169
L74.3085 205.564
L75.5315 178.48
L76.7545 205.573
L77.9776 114.692
L79.2006 176.434
L80.4236 106.7
L81.6466 182.022
L82.8696 196.744
L84.0926 173.738
L85.3156 173.295
L86.5386 209.253
L86.7799 409.169
M88.9584 409.169
L88.9847 391.281
L90.2077 236.793
L91.4307 172.12
L92.6537 94.5008
L93.8767 51.6622
L95.0997 150.796
L96.3228 49.3365
L97.5458 136.771
L98.7688 209.11
L99.9918 189.99
L101.215 141.225
L101.43 -1
M107.049 -1
L107.33 89.7557
L108.553 390.737
L109.776 244.048
L110.999 197.756
L112.222 260.301
L113.445 210.986
L114.668 300.956
L115.891 272.702
L117.114 261.813
L118.284 409.169
M118.385 409.169
L119.56 243.885
L120.783 263.255
L122.006 190.541
L122.842 -1
M125.527 -1
L125.675 156.902
L126.898 120.097
L128.121 171.232
L129.344 185.348
L130.567 252.202
L131.79 221.894
L132.519 -1
M135.066 -1
L135.459 207.539
L136.682 111.845
L136.765 -1
M140.628 -1
L141.574 169.584
L142.797 224.498
L142.843 -1
M145.217 -1
L145.243 126.45
L145.243 126.45
L145.243 126.45
L145.243 -1
M148.847 -1
L148.912 167.58
L148.912 167.58
L148.912 167.58
L148.954 -1
M152.138 -1
L152.581 185.652
L153.804 237.179
L155.027 199.618
L156.25 182.732
L157.473 143.866
L158.007 -1
M163.35 -1
L163.589 123.276
L164.812 128.336
L165.483 -1
M166.535 -1
L167.258 152.493
L168.481 176.284
L169.704 29.9016
L170.927 161.532
L172.15 97.3193
L172.795 -1
M174.15 -1
L174.596 49.5817
L174.7 -1
M176.906 -1
L177.042 66.8344
L178.265 11.2932
L179.488 23.3478
L180.711 15.7973
L181.934 52.3117
L183.157 23.7844
L183.204 -1
M185.367 -1
L185.603 147.933
L186.826 115.434
L187.67 -1
M190.094 -1
L190.495 86.1346
L191.718 28.3526
L192.127 -1
M194.307 -1
L195.387 50.5091
L196.031 -1
M204.565 -1
L205.171 48.0258
L205.779 -1
M215.994 -1
L216.178 129.11
L217.401 74.804
L217.527 -1
M224.53 -1
L224.739 10.5382
L224.924 -1
M228.398 -1
L228.408 85.1373
L229.631 113.539
L230.854 121.342
L232.077 76.0693
L232.326 -1
M236.638 -1
L236.969 111.436
L237.885 -1
M256.222 -1
L256.538 32.9491
L256.613 -1
M389.66 -1
L389.846 35.2286
L391.069 172.225
L392.02 -1
M394.721 -1
L394.738 1.90539
L394.738 1.90539
L394.738 1.90539
L394.761 -1
M397.508 -1
L398.407 64.837
L399.63 44.0178
L400.853 14.3175
L401.094 -1
M404.169 -1
L404.522 41.4668
L405.439 -1
M407.836 -1
L408.191 40.2703
L409.414 42.2667
L410.637 61.5999
L411.86 42.2518
L412.213 -1
M415.081 -1
L415.529 108.268
L416.752 110
L417.975 51.3497
L418.385 -1
M419.951 -1
L420.421 63.895
L420.945 -1
M422.566 -1
L422.867 27.2647
L422.885 -1
M426.5 -1
L426.536 179.119
L427.759 220.963
L428.982 226.756
L430.205 216.044
L431.429 170.447
L432.388 -1
M434.949 -1
L435.098 33.5449
L436.321 98.3528
L437.544 156.079
L438.767 100.541
L439.717 -1
M440.189 -1
L441.213 148.374
L442.436 110.835
L443.659 199.661
L444.882 267.192
L447.328 135.138
L447.611 -1
M450.963 -1
L450.997 108.28
L452.22 104.47
L453.443 110.877
L453.634 -1
M455.677 -1
L455.889 125.902
L457.112 140.835
L457.93 -1
M460.487 -1
L460.781 88.8867
L462.004 372.8
L463.227 234.138
L464.45 239.378
L465.673 193.593
L466.896 194.41
L468.119 173.315
L469.342 172.012
L470.565 110.546
L471.788 164.969
L473.011 171.202
L474.234 196.272
L475.457 184.774
L476.68 196.636
L477.903 165.027
L479.126 179.131
L480.349 151.23
L481.572 107.01
L482.795 150.56
L484.018 266.495
L485.241 207.508
L486.464 178.933
L487.687 170.364
L488.91 108.032
L490.133 171.061
L491.356 169.297
L492.579 153.917
L493.802 28.0206
L495.025 68.5658
L496.248 313.438
L496.248 313.438" style="fill:none;stroke:#bfbf00;stroke-linecap:square;"/>
   </g>
   <g id="line2d_14">
    <path clip-path="url(#p5fc3a60927)" d="
M53.4957 -1
L53.5173 94.7687
L53.7549 -1
M56.0792 -1
L57.1863 199.553
L57.9653 409.169
M58.8187 409.169
L59.6323 171.745
L60.8554 168.852
L62.0784 115.147
L63.3014 229.933
L64.5244 208.551
L65.7474 171.25
L68.1934 29.5898
L69.4165 262.558
L70.6395 250.031
L71.8625 205.066
L73.0855 186.645
L74.3085 69.396
L74.6629 -1
M75.8065 -1
L76.4603 409.169
M77.4146 409.169
L77.9776 251.712
L79.2006 276.16
L80.4236 124.329
L81.6466 128.28
L82.8696 282.855
L84.0926 180.705
L85.1609 -1
M85.5533 -1
L86.5386 108.134
L87.7617 134.369
L88.8108 -1
M89.2834 -1
L90.2077 68.449
L91.4307 170.891
L92.6537 160.417
L93.8767 164.447
L95.0997 151.009
L95.2445 -1
M97.3768 -1
L97.5458 180.493
L98.7688 182.49
L99.9918 122.096
L101.215 168.4
L102.438 209.928
L103.661 108.441
L104.884 226.922
L106.107 363.452
L107.33 202.593
L108.553 127.413
L109.776 87.2378
L110.999 234.487
L112.222 236.368
L113.218 -1
M115.632 -1
L115.891 263.012
L116.433 -1
M119.069 -1
L119.56 332.277
L120.783 223.519
L122.006 186.751
L123.229 314.977
L124.452 366.957
L125.675 256.936
L126.898 61.2433
L128.121 67.8973
L129.123 -1
M131.345 -1
L131.79 292.865
L133.013 56.6912
L133.082 -1
M140.128 -1
L140.351 145.844
L140.642 -1
M143.449 -1
L144.02 79.6748
L145.243 221.641
L146.466 260.674
L147.464 -1
M151.193 -1
L151.358 92.1932
L151.39 -1
M155.01 -1
L155.027 133.931
L155.196 -1
M157.486 -1
L158.696 79.2822
L159.666 -1
M162.255 -1
L162.365 83.8439
L163.589 111.447
L163.641 -1
M166.879 -1
L167.258 105.857
L168.481 127.908
L168.569 -1
M175.756 -1
L175.819 32.8931
L175.819 32.8931
L175.819 32.8931
L175.854 -1
M180.489 -1
L180.711 58.1981
L181.817 -1
M182.081 -1
L183.157 44.5694
L184.38 88.5976
L185.103 -1
M202.795 -1
L203.948 22.8016
L204.038 -1
M228.203 -1
L228.408 15.7123
L228.583 -1
M241.848 -1
L241.861 4.98139
L243.084 4.2573
L243.086 -1
M373.896 -1
L373.947 17.3996
L374.013 -1
M392.069 -1
L392.292 21.8305
L393.515 62.2922
L394.738 28.7509
L394.882 -1
M397.047 -1
L397.184 27.1191
L397.732 -1
M406.896 -1
L406.968 12.4036
L408.191 65.8523
L408.427 -1
M410.303 -1
L410.637 104.545
L411.86 67.8964
L413.083 201.254
L414.306 191.885
L415.529 198.237
L416.752 144.385
L417.975 150.763
L419.198 96.7874
L420.359 -1
M425.068 -1
L425.313 25.2385
L426.536 87.1288
L427.759 70.5159
L428.982 60.7272
L429.58 -1
M430.945 -1
L431.429 41.2851
L432.652 116.74
L433.875 210.593
L435.098 249.286
L436.321 238.957
L437.544 316.706
L438.767 165.9
L439.99 179.684
L440.596 -1
M444.858 -1
L444.882 85.5951
L444.987 -1
M449.034 -1
L449.774 146.604
L450.54 -1
M451.515 -1
L452.22 118.809
L453.443 149.713
L454.666 163.552
L455.889 46.317
L455.92 -1
M463.013 -1
L463.227 85.8953
L463.392 -1
M465.518 -1
L465.673 79.7791
L466.896 121.925
L468.119 180.726
L469.342 295.483
L470.565 235.646
L471.788 194.908
L473.011 92.6826
L474.234 199.05
L475.457 189.712
L476.68 206.133
L477.903 220.14
L479.126 206.713
L480.349 131.187
L481.572 253.971
L482.578 409.169
M482.8 409.169
L482.863 -1
M487.181 -1
L487.687 296.282
L488.91 289.745
L488.984 409.169
M491.322 409.169
L491.356 355.453
L491.606 409.169
M493.232 409.169
L493.802 226.77
L495.025 266.138
L496.248 284.421
L496.248 284.421" style="fill:none;stroke:#000000;stroke-linecap:square;"/>
   </g>
   <g id="line2d_15">
    <path clip-path="url(#p5fc3a60927)" d="
M51.0713 305.338
L52.2943 254.469
L53.5173 205.772
L54.7403 233.66
L55.9633 232.562
L57.1863 261.405
L58.4093 275.407
L59.2536 -1
M62.079 -1
L62.0793 409.169
M69.1218 409.169
L69.4165 313.75
L70.6395 287.32
L71.8625 209.835
L73.0855 200.077
L74.3085 242.134
L75.5315 198.043
L76.7545 53.1997
L76.7681 -1
M79.1693 -1
L79.2006 125.57
L79.2006 125.57
L79.2006 125.57
L79.2749 -1
M81.6377 -1
L81.6466 13.3703
L82.8696 223.652
L84.0926 235.767
L85.3156 255.44
L86.4933 409.169
M86.5591 409.169
L87.7617 61.1107
L88.1438 -1
M89.743 -1
L90.2077 82.7363
L91.4307 109.15
L92.3202 -1
M97.0255 -1
L97.0335 409.169
M99.9911 409.169
L99.9916 -1
M100.563 -1
L101.215 224.019
L102.438 359.334
L102.841 -1
M107.585 -1
L107.658 409.169
M114.661 409.169
L114.668 361.246
L114.668 361.246
L114.668 361.246
L114.671 409.169
M120.214 409.169
L120.783 46.9984
L122.006 92.9431
L122.38 -1
M147.526 -1
L147.549 409.169
M150.587 409.169
L151.151 -1
M405.495 -1
L405.745 65.955
L406.968 17.6568
L407.009 -1
M409.563 -1
L410.637 70.8157
L411.86 37.6587
L413.083 27.7521
L414.306 0.310481
L415.529 20.9621
L415.607 -1
M418.124 -1
L419.198 133.186
L420.421 168.971
L421.644 130.295
L422.867 31.9231
L422.942 -1
M424.949 -1
L425.313 213.739
L426.536 199.533
L427.759 202.027
L428.982 122.923
L429.256 -1
M431.155 -1
L431.429 122.639
L432.652 87.2833
L433.404 -1
M437.63 -1
L438.767 132.544
L439.99 162.676
L441.213 259.925
L442.436 161.99
L443.485 -1
M443.835 -1
L444.882 159.288
L446.105 133.966
L447.328 198.252
L448.551 194.122
L449.774 174.838
L450.997 141.823
L452.22 151.803
L453.292 -1
M453.613 -1
L454.666 131.722
L455.889 150.817
L457.112 150.988
L458.335 162.272
L459.558 142.368
L459.941 -1
M461.267 -1
L461.901 409.169
M462.362 409.169
L463.227 248.557
L464.45 248.235
L464.506 409.169
M468.552 409.169
L469.342 254.264
L470.565 260.553
L471.788 220.913
L473.011 201.991
L474.234 191.814
L475.457 174.816
L476.68 148.444
L477.903 141.756
L479.126 74.5743
L480.349 113.672
L480.803 409.169
M482.471 409.169
L482.795 228.604
L484.018 256.823
L485.241 189.24
L486.464 155.466
L487.687 160.009
L488.91 171.686
L490.133 162.486
L491.356 128.928
L492.579 115.509
L493.802 185.576
L495.025 166.666
L496.248 128.594
L496.248 128.594" style="fill:none;stroke:#0000ff;stroke-linecap:square;"/>
   </g>
   <g id="line2d_16">
    <path clip-path="url(#p5fc3a60927)" d="
M51.0713 149.026
L52.2943 175.698
L53.4625 -1
M53.5303 -1
L54.1779 409.169
M55.5676 409.169
L55.9633 238.779
L57.1863 180.955
L58.4093 182.185
L59.6323 196.764
L60.8554 175.393
L62.0784 158.156
L63.3014 32.8688
L64.5244 240.922
L65.7474 75.4338
L66.9704 131.588
L68.1934 128.446
L69.4165 133.056
L70.6395 138.219
L71.8625 168.371
L73.0855 155.368
L74.3085 151.443
L75.5315 154.407
L76.7545 131.464
L77.9776 176.448
M91.4307 232.185
L92.6537 251.122
L93.8767 234.397
L95.0997 264.231
L96.3228 259.15
L97.5458 201.282
L98.7688 152.698
L99.9918 149.734
L101.215 177.661
L102.438 157.709
L103.661 122.429
L104.884 81.413
L105.459 -1
M106.667 -1
L107.33 109.135
L108.553 45.9759
L109.776 87.1647
L110.82 -1
M111.081 -1
L112.222 209.025
L113.445 151.66
L114.668 192.16
L115.891 116.863
L117.114 76.7506
L118.337 48.5041
L119.56 83.1615
L120.783 98.2768
L122.006 91.3908
L123.229 158.314
L124.452 158.561
L125.675 154.968
L126.898 74.9496
L127.508 -1
M129.726 -1
L130.567 87.3616
L130.784 -1
M132.95 -1
L133.013 21.2433
L134.236 80.3204
L135.459 88.5304
L136.682 112.836
L137.905 62.9448
L139.128 94.8032
L140.158 -1
M140.735 -1
L141.574 38.4148
L141.69 -1
M143.763 -1
L144.02 99.4407
L145.243 89.0893
L145.905 -1
M147.11 -1
L147.689 67.8796
L150.135 60.4982
L151.05 -1
M153.536 -1
L153.804 117.819
L155.027 208.305
L156.25 104.003
L157.473 117.801
L158.696 147.025
L159.583 -1
M160.241 -1
L161.142 156.521
L162.365 162.399
L163.589 68.1425
L164.812 67.9102
L166.035 91.9046
L166.445 -1
M177.032 -1
L177.042 4.47543
L177.042 4.47543
L177.042 4.47543
L177.11 -1
M187.685 -1
L188.049 111.999
L189.272 87.9876
L190.495 152.806
L191.718 31.8936
L192.941 108.503
L194.164 101.93
L195.387 9.97126
L195.79 -1
M206.378 -1
L206.394 8.7925
L207.617 47.9561
L208.84 71.2571
L209.31 -1
M253.855 -1
L254.092 3.1635
L255.315 37.0628
L256.538 105.522
L257.142 -1
M266.255 -1
L266.322 6.85259
L267.545 48.6957
L268.056 -1
M380.007 -1
L380.062 9.39094
L381.285 31.036
L381.433 -1
M383.508 -1
L383.731 51.0024
L384.04 -1
M402.991 -1
L403.299 8.33908
L403.321 -1
M409.255 -1
L409.414 70.8988
L409.593 -1
M411.723 -1
L411.86 52.2856
L412.235 -1
M415.485 -1
L415.529 36.8954
L416.752 137.388
L417.752 -1
M418.276 -1
L419.198 93.792
L419.231 -1
M422.712 -1
L422.867 112.365
L424.09 203.717
L426.536 117.207
L427.759 48.1814
L427.813 -1
M430.152 -1
L430.205 47.4269
L431.429 108.816
L431.997 -1
M433.193 -1
L433.875 158.076
L435.098 205.821
L436.321 229.962
L437.544 239.541
L438.767 215.535
L439.99 268.98
L441.213 240.396
L443.659 202.818
L444.882 173.076
L446.105 163.832
L447.328 141.257
L448.551 146.922
L449.774 188.065
L450.997 166.007
L452.22 15.7543
L453.443 69.8306
L454.666 74.1748
L455.889 86.5064
L456.441 -1
M457.479 -1
L458.335 246.611
L459.558 196.17
L460.781 156.798
L461.725 -1
M462.332 -1
L463.227 125.942
L463.768 -1
M474.2 -1
L474.234 201.859
L475.457 185.422
L476.68 334.806
L477.903 321.009
L479.126 117.786
L480.349 179.408
L481.572 177.017
L482.795 194.425
L484.018 81.2354
L485.241 205.524
L486.464 177.77
L487.687 147.008
L488.91 354.555
L490.133 304.704
L491.356 227.006
L492.579 266.212
L493.802 238.349
L495.025 237.102
L496.248 224.198
L496.248 224.198" style="fill:none;stroke:#008000;stroke-linecap:square;"/>
   </g>
   <g id="patch_3">
    <path d="
M51.0713 23.1417
L497.471 23.1417" style="fill:none;stroke:#000000;stroke-linecap:square;stroke-linejoin:miter;"/>
   </g>
   <g id="patch_4">
    <path d="
M497.471 368.742
L497.471 23.1417" style="fill:none;stroke:#000000;stroke-linecap:square;stroke-linejoin:miter;"/>
   </g>
   <g id="patch_5">
    <path d="
M51.0713 368.742
L497.471 368.742" style="fill:none;stroke:#000000;stroke-linecap:square;stroke-linejoin:miter;"/>
   </g>
   <g id="patch_6">
    <path d="
M51.0713 368.742
L51.0713 23.1417" style="fill:none;stroke:#000000;stroke-linecap:square;stroke-linejoin:miter;"/>
   </g>
   <g id="matplotlib.axis_1">
    <g id="xtick_1">
     <g id="line2d_17">
      <defs>
       <path d="
M0 0
L0 -4" id="m93b0483c22" style="stroke:#000000;stroke-width:0.5;"/>
      </defs>
      <g>
       <use style="stroke:#000000;stroke-width:0.5;" x="51.07125" xlink:href="#m93b0483c22" y="368.74175"/>
      </g>
     </g>
     <g id="line2d_18">
      <defs>
       <path d="
M0 0
L0 4" id="m741efc42ff" style="stroke:#000000;stroke-width:0.5;"/>
      </defs>
      <g>
       <use style="stroke:#000000;stroke-width:0.5;" x="51.07125" xlink:href="#m741efc42ff" y="23.14175"/>
      </g>
     </g>
     <g id="text_1">
      <!-- 0 -->
      <defs>
       <path d="
M31.7812 66.4062
Q24.1719 66.4062 20.3281 58.9062
Q16.5 51.4219 16.5 36.375
Q16.5 21.3906 20.3281 13.8906
Q24.1719 6.39062 31.7812 6.39062
Q39.4531 6.39062 43.2812 13.8906
Q47.125 21.3906 47.125 36.375
Q47.125 51.4219 43.2812 58.9062
Q39.4531 66.4062 31.7812 66.4062
M31.7812 74.2188
Q44.0469 74.2188 50.5156 64.5156
Q56.9844 54.8281 56.9844 36.375
Q56.9844 17.9688 50.5156 8.26562
Q44.0469 -1.42188 31.7812 -1.42188
Q19.5312 -1.42188 13.0625 8.26562
Q6.59375 17.9688 6.59375 36.375
Q6.59375 54.8281 13.0625 64.5156
Q19.5312 74.2188 31.7812 74.2188" id="BitstreamVeraSans-Roman-30"/>
      </defs>
      <g transform="translate(48.0478125 381.859875)scale(0.12 -0.12)">
       <use xlink:href="#BitstreamVeraSans-Roman-30"/>
      </g>
     </g>
    </g>
    <g id="xtick_2">
     <g id="line2d_19">
      <g>
       <use style="stroke:#000000;stroke-width:0.5;" x="112.221934932" xlink:href="#m93b0483c22" y="368.74175"/>
      </g>
     </g>
     <g id="line2d_20">
      <g>
       <use style="stroke:#000000;stroke-width:0.5;" x="112.221934932" xlink:href="#m741efc42ff" y="23.14175"/>
      </g>
     </g>
     <g id="text_2">
      <!-- 50 -->
      <defs>
       <path d="
M10.7969 72.9062
L49.5156 72.9062
L49.5156 64.5938
L19.8281 64.5938
L19.8281 46.7344
Q21.9688 47.4688 24.1094 47.8281
Q26.2656 48.1875 28.4219 48.1875
Q40.625 48.1875 47.75 41.5
Q54.8906 34.8125 54.8906 23.3906
Q54.8906 11.625 47.5625 5.09375
Q40.2344 -1.42188 26.9062 -1.42188
Q22.3125 -1.42188 17.5469 -0.640625
Q12.7969 0.140625 7.71875 1.70312
L7.71875 11.625
Q12.1094 9.23438 16.7969 8.0625
Q21.4844 6.89062 26.7031 6.89062
Q35.1562 6.89062 40.0781 11.3281
Q45.0156 15.7656 45.0156 23.3906
Q45.0156 31 40.0781 35.4375
Q35.1562 39.8906 26.7031 39.8906
Q22.75 39.8906 18.8125 39.0156
Q14.8906 38.1406 10.7969 36.2812
z
" id="BitstreamVeraSans-Roman-35"/>
      </defs>
      <g transform="translate(105.448497432 381.859875)scale(0.12 -0.12)">
       <use xlink:href="#BitstreamVeraSans-Roman-35"/>
       <use x="63.623046875" xlink:href="#BitstreamVeraSans-Roman-30"/>
      </g>
     </g>
    </g>
    <g id="xtick_3">
     <g id="line2d_21">
      <g>
       <use style="stroke:#000000;stroke-width:0.5;" x="173.372619863" xlink:href="#m93b0483c22" y="368.74175"/>
      </g>
     </g>
     <g id="line2d_22">
      <g>
       <use style="stroke:#000000;stroke-width:0.5;" x="173.372619863" xlink:href="#m741efc42ff" y="23.14175"/>
      </g>
     </g>
     <g id="text_3">
      <!-- 100 -->
      <defs>
       <path d="
M12.4062 8.29688
L28.5156 8.29688
L28.5156 63.9219
L10.9844 60.4062
L10.9844 69.3906
L28.4219 72.9062
L38.2812 72.9062
L38.2812 8.29688
L54.3906 8.29688
L54.3906 0
L12.4062 0
z
" id="BitstreamVeraSans-Roman-31"/>
      </defs>
      <g transform="translate(162.977619863 381.859875)scale(0.12 -0.12)">
       <use xlink:href="#BitstreamVeraSans-Roman-31"/>
       <use x="63.623046875" xlink:href="#BitstreamVeraSans-Roman-30"/>
       <use x="127.24609375" xlink:href="#BitstreamVeraSans-Roman-30"/>
      </g>
     </g>
    </g>
    <g id="xtick_4">
     <g id="line2d_23">
      <g>
       <use style="stroke:#000000;stroke-width:0.5;" x="234.523304795" xlink:href="#m93b0483c22" y="368.74175"/>
      </g>
     </g>
     <g id="line2d_24">
      <g>
       <use style="stroke:#000000;stroke-width:0.5;" x="234.523304795" xlink:href="#m741efc42ff" y="23.14175"/>
      </g>
     </g>
     <g id="text_4">
      <!-- 150 -->
      <g transform="translate(224.128304795 381.859875)scale(0.12 -0.12)">
       <use xlink:href="#BitstreamVeraSans-Roman-31"/>
       <use x="63.623046875" xlink:href="#BitstreamVeraSans-Roman-35"/>
       <use x="127.24609375" xlink:href="#BitstreamVeraSans-Roman-30"/>
      </g>
     </g>
    </g>
    <g id="xtick_5">
     <g id="line2d_25">
      <g>
       <use style="stroke:#000000;stroke-width:0.5;" x="295.673989726" xlink:href="#m93b0483c22" y="368.74175"/>
      </g>
     </g>
     <g id="line2d_26">
      <g>
       <use style="stroke:#000000;stroke-width:0.5;" x="295.673989726" xlink:href="#m741efc42ff" y="23.14175"/>
      </g>
     </g>
     <g id="text_5">
      <!-- 200 -->
      <defs>
       <path d="
M19.1875 8.29688
L53.6094 8.29688
L53.6094 0
L7.32812 0
L7.32812 8.29688
Q12.9375 14.1094 22.625 23.8906
Q32.3281 33.6875 34.8125 36.5312
Q39.5469 41.8438 41.4219 45.5312
Q43.3125 49.2188 43.3125 52.7812
Q43.3125 58.5938 39.2344 62.25
Q35.1562 65.9219 28.6094 65.9219
Q23.9688 65.9219 18.8125 64.3125
Q13.6719 62.7031 7.8125 59.4219
L7.8125 69.3906
Q13.7656 71.7812 18.9375 73
Q24.125 74.2188 28.4219 74.2188
Q39.75 74.2188 46.4844 68.5469
Q53.2188 62.8906 53.2188 53.4219
Q53.2188 48.9219 51.5312 44.8906
Q49.8594 40.875 45.4062 35.4062
Q44.1875 33.9844 37.6406 27.2188
Q31.1094 20.4531 19.1875 8.29688" id="BitstreamVeraSans-Roman-32"/>
      </defs>
      <g transform="translate(285.059614726 381.859875)scale(0.12 -0.12)">
       <use xlink:href="#BitstreamVeraSans-Roman-32"/>
       <use x="63.623046875" xlink:href="#BitstreamVeraSans-Roman-30"/>
       <use x="127.24609375" xlink:href="#BitstreamVeraSans-Roman-30"/>
      </g>
     </g>
    </g>
    <g id="xtick_6">
     <g id="line2d_27">
      <g>
       <use style="stroke:#000000;stroke-width:0.5;" x="356.824674658" xlink:href="#m93b0483c22" y="368.74175"/>
      </g>
     </g>
     <g id="line2d_28">
      <g>
       <use style="stroke:#000000;stroke-width:0.5;" x="356.824674658" xlink:href="#m741efc42ff" y="23.14175"/>
      </g>
     </g>
     <g id="text_6">
      <!-- 250 -->
      <g transform="translate(346.210299658 381.859875)scale(0.12 -0.12)">
       <use xlink:href="#BitstreamVeraSans-Roman-32"/>
       <use x="63.623046875" xlink:href="#BitstreamVeraSans-Roman-35"/>
       <use x="127.24609375" xlink:href="#BitstreamVeraSans-Roman-30"/>
      </g>
     </g>
    </g>
    <g id="xtick_7">
     <g id="line2d_29">
      <g>
       <use style="stroke:#000000;stroke-width:0.5;" x="417.975359589" xlink:href="#m93b0483c22" y="368.74175"/>
      </g>
     </g>
     <g id="line2d_30">
      <g>
       <use style="stroke:#000000;stroke-width:0.5;" x="417.975359589" xlink:href="#m741efc42ff" y="23.14175"/>
      </g>
     </g>
     <g id="text_7">
      <!-- 300 -->
      <defs>
       <path d="
M40.5781 39.3125
Q47.6562 37.7969 51.625 33
Q55.6094 28.2188 55.6094 21.1875
Q55.6094 10.4062 48.1875 4.48438
Q40.7656 -1.42188 27.0938 -1.42188
Q22.5156 -1.42188 17.6562 -0.515625
Q12.7969 0.390625 7.625 2.20312
L7.625 11.7188
Q11.7188 9.32812 16.5938 8.10938
Q21.4844 6.89062 26.8125 6.89062
Q36.0781 6.89062 40.9375 10.5469
Q45.7969 14.2031 45.7969 21.1875
Q45.7969 27.6406 41.2812 31.2656
Q36.7656 34.9062 28.7188 34.9062
L20.2188 34.9062
L20.2188 43.0156
L29.1094 43.0156
Q36.375 43.0156 40.2344 45.9219
Q44.0938 48.8281 44.0938 54.2969
Q44.0938 59.9062 40.1094 62.9062
Q36.1406 65.9219 28.7188 65.9219
Q24.6562 65.9219 20.0156 65.0312
Q15.375 64.1562 9.8125 62.3125
L9.8125 71.0938
Q15.4375 72.6562 20.3438 73.4375
Q25.25 74.2188 29.5938 74.2188
Q40.8281 74.2188 47.3594 69.1094
Q53.9062 64.0156 53.9062 55.3281
Q53.9062 49.2656 50.4375 45.0938
Q46.9688 40.9219 40.5781 39.3125" id="BitstreamVeraSans-Roman-33"/>
      </defs>
      <g transform="translate(407.378797089 381.859875)scale(0.12 -0.12)">
       <use xlink:href="#BitstreamVeraSans-Roman-33"/>
       <use x="63.623046875" xlink:href="#BitstreamVeraSans-Roman-30"/>
       <use x="127.24609375" xlink:href="#BitstreamVeraSans-Roman-30"/>
      </g>
     </g>
    </g>
    <g id="xtick_8">
     <g id="line2d_31">
      <g>
       <use style="stroke:#000000;stroke-width:0.5;" x="479.126044521" xlink:href="#m93b0483c22" y="368.74175"/>
      </g>
     </g>
     <g id="line2d_32">
      <g>
       <use style="stroke:#000000;stroke-width:0.5;" x="479.126044521" xlink:href="#m741efc42ff" y="23.14175"/>
      </g>
     </g>
     <g id="text_8">
      <!-- 350 -->
      <g transform="translate(468.529482021 381.859875)scale(0.12 -0.12)">
       <use xlink:href="#BitstreamVeraSans-Roman-33"/>
       <use x="63.623046875" xlink:href="#BitstreamVeraSans-Roman-35"/>
       <use x="127.24609375" xlink:href="#BitstreamVeraSans-Roman-30"/>
      </g>
     </g>
    </g>
    <g id="text_9">
     <!-- Julian day -->
     <defs>
      <path id="BitstreamVeraSans-Roman-20"/>
      <path d="
M9.8125 72.9062
L19.6719 72.9062
L19.6719 5.07812
Q19.6719 -8.10938 14.6719 -14.0625
Q9.67188 -20.0156 -1.42188 -20.0156
L-5.17188 -20.0156
L-5.17188 -11.7188
L-2.09375 -11.7188
Q4.4375 -11.7188 7.125 -8.04688
Q9.8125 -4.39062 9.8125 5.07812
z
" id="BitstreamVeraSans-Roman-4a"/>
      <path d="
M54.8906 33.0156
L54.8906 0
L45.9062 0
L45.9062 32.7188
Q45.9062 40.4844 42.875 44.3281
Q39.8438 48.1875 33.7969 48.1875
Q26.5156 48.1875 22.3125 43.5469
Q18.1094 38.9219 18.1094 30.9062
L18.1094 0
L9.07812 0
L9.07812 54.6875
L18.1094 54.6875
L18.1094 46.1875
Q21.3438 51.125 25.7031 53.5625
Q30.0781 56 35.7969 56
Q45.2188 56 50.0469 50.1719
Q54.8906 44.3438 54.8906 33.0156" id="BitstreamVeraSans-Roman-6e"/>
      <path d="
M9.42188 75.9844
L18.4062 75.9844
L18.4062 0
L9.42188 0
z
" id="BitstreamVeraSans-Roman-6c"/>
      <path d="
M9.42188 54.6875
L18.4062 54.6875
L18.4062 0
L9.42188 0
z

M9.42188 75.9844
L18.4062 75.9844
L18.4062 64.5938
L9.42188 64.5938
z
" id="BitstreamVeraSans-Roman-69"/>
      <path d="
M32.1719 -5.07812
Q28.375 -14.8438 24.75 -17.8125
Q21.1406 -20.7969 15.0938 -20.7969
L7.90625 -20.7969
L7.90625 -13.2812
L13.1875 -13.2812
Q16.8906 -13.2812 18.9375 -11.5156
Q21 -9.76562 23.4844 -3.21875
L25.0938 0.875
L2.98438 54.6875
L12.5 54.6875
L29.5938 11.9219
L46.6875 54.6875
L56.2031 54.6875
z
" id="BitstreamVeraSans-Roman-79"/>
      <path d="
M45.4062 46.3906
L45.4062 75.9844
L54.3906 75.9844
L54.3906 0
L45.4062 0
L45.4062 8.20312
Q42.5781 3.32812 38.25 0.953125
Q33.9375 -1.42188 27.875 -1.42188
Q17.9688 -1.42188 11.7344 6.48438
Q5.51562 14.4062 5.51562 27.2969
Q5.51562 40.1875 11.7344 48.0938
Q17.9688 56 27.875 56
Q33.9375 56 38.25 53.625
Q42.5781 51.2656 45.4062 46.3906
M14.7969 27.2969
Q14.7969 17.3906 18.875 11.75
Q22.9531 6.10938 30.0781 6.10938
Q37.2031 6.10938 41.2969 11.75
Q45.4062 17.3906 45.4062 27.2969
Q45.4062 37.2031 41.2969 42.8438
Q37.2031 48.4844 30.0781 48.4844
Q22.9531 48.4844 18.875 42.8438
Q14.7969 37.2031 14.7969 27.2969" id="BitstreamVeraSans-Roman-64"/>
      <path d="
M8.5 21.5781
L8.5 54.6875
L17.4844 54.6875
L17.4844 21.9219
Q17.4844 14.1562 20.5 10.2656
Q23.5312 6.39062 29.5938 6.39062
Q36.8594 6.39062 41.0781 11.0312
Q45.3125 15.6719 45.3125 23.6875
L45.3125 54.6875
L54.2969 54.6875
L54.2969 0
L45.3125 0
L45.3125 8.40625
Q42.0469 3.42188 37.7188 1
Q33.4062 -1.42188 27.6875 -1.42188
Q18.2656 -1.42188 13.375 4.4375
Q8.5 10.2969 8.5 21.5781" id="BitstreamVeraSans-Roman-75"/>
      <path d="
M34.2812 27.4844
Q23.3906 27.4844 19.1875 25
Q14.9844 22.5156 14.9844 16.5
Q14.9844 11.7188 18.1406 8.90625
Q21.2969 6.10938 26.7031 6.10938
Q34.1875 6.10938 38.7031 11.4062
Q43.2188 16.7031 43.2188 25.4844
L43.2188 27.4844
z

M52.2031 31.2031
L52.2031 0
L43.2188 0
L43.2188 8.29688
Q40.1406 3.32812 35.5469 0.953125
Q30.9531 -1.42188 24.3125 -1.42188
Q15.9219 -1.42188 10.9531 3.29688
Q6 8.01562 6 15.9219
Q6 25.1406 12.1719 29.8281
Q18.3594 34.5156 30.6094 34.5156
L43.2188 34.5156
L43.2188 35.4062
Q43.2188 41.6094 39.1406 45
Q35.0625 48.3906 27.6875 48.3906
Q23 48.3906 18.5469 47.2656
Q14.1094 46.1406 10.0156 43.8906
L10.0156 52.2031
Q14.9375 54.1094 19.5781 55.0469
Q24.2188 56 28.6094 56
Q40.4844 56 46.3438 49.8438
Q52.2031 43.7031 52.2031 31.2031" id="BitstreamVeraSans-Roman-61"/>
     </defs>
     <g transform="translate(244.8103125 398.473625)scale(0.12 -0.12)">
      <use xlink:href="#BitstreamVeraSans-Roman-4a"/>
      <use x="29.4921875" xlink:href="#BitstreamVeraSans-Roman-75"/>
      <use x="92.87109375" xlink:href="#BitstreamVeraSans-Roman-6c"/>
      <use x="120.654296875" xlink:href="#BitstreamVeraSans-Roman-69"/>
      <use x="148.4375" xlink:href="#BitstreamVeraSans-Roman-61"/>
      <use x="209.716796875" xlink:href="#BitstreamVeraSans-Roman-6e"/>
      <use x="273.095703125" xlink:href="#BitstreamVeraSans-Roman-20"/>
      <use x="304.8828125" xlink:href="#BitstreamVeraSans-Roman-64"/>
      <use x="368.359375" xlink:href="#BitstreamVeraSans-Roman-61"/>
      <use x="429.638671875" xlink:href="#BitstreamVeraSans-Roman-79"/>
     </g>
    </g>
   </g>
   <g id="matplotlib.axis_2">
    <g id="ytick_1">
     <g id="line2d_33">
      <defs>
       <path d="
M0 0
L4 0" id="m728421d6d4" style="stroke:#000000;stroke-width:0.5;"/>
      </defs>
      <g>
       <use style="stroke:#000000;stroke-width:0.5;" x="51.07125" xlink:href="#m728421d6d4" y="368.74175"/>
      </g>
     </g>
     <g id="line2d_34">
      <defs>
       <path d="
M0 0
L-4 0" id="mcb0005524f" style="stroke:#000000;stroke-width:0.5;"/>
      </defs>
      <g>
       <use style="stroke:#000000;stroke-width:0.5;" x="497.47125" xlink:href="#mcb0005524f" y="368.74175"/>
      </g>
     </g>
     <g id="text_10">
      <!-- −10 -->
      <defs>
       <path d="
M10.5938 35.5
L73.1875 35.5
L73.1875 27.2031
L10.5938 27.2031
z
" id="BitstreamVeraSans-Roman-2212"/>
      </defs>
      <g transform="translate(23.81375 372.053)scale(0.12 -0.12)">
       <use xlink:href="#BitstreamVeraSans-Roman-2212"/>
       <use x="83.7890625" xlink:href="#BitstreamVeraSans-Roman-31"/>
       <use x="147.412109375" xlink:href="#BitstreamVeraSans-Roman-30"/>
      </g>
     </g>
    </g>
    <g id="ytick_2">
     <g id="line2d_35">
      <g>
       <use style="stroke:#000000;stroke-width:0.5;" x="51.07125" xlink:href="#m728421d6d4" y="282.34175"/>
      </g>
     </g>
     <g id="line2d_36">
      <g>
       <use style="stroke:#000000;stroke-width:0.5;" x="497.47125" xlink:href="#mcb0005524f" y="282.34175"/>
      </g>
     </g>
     <g id="text_11">
      <!-- −5 -->
      <g transform="translate(31.7 285.653)scale(0.12 -0.12)">
       <use xlink:href="#BitstreamVeraSans-Roman-2212"/>
       <use x="83.7890625" xlink:href="#BitstreamVeraSans-Roman-35"/>
      </g>
     </g>
    </g>
    <g id="ytick_3">
     <g id="line2d_37">
      <g>
       <use style="stroke:#000000;stroke-width:0.5;" x="51.07125" xlink:href="#m728421d6d4" y="195.94175"/>
      </g>
     </g>
     <g id="line2d_38">
      <g>
       <use style="stroke:#000000;stroke-width:0.5;" x="497.47125" xlink:href="#mcb0005524f" y="195.94175"/>
      </g>
     </g>
     <g id="text_12">
      <!-- 0 -->
      <g transform="translate(41.024375 199.253)scale(0.12 -0.12)">
       <use xlink:href="#BitstreamVeraSans-Roman-30"/>
      </g>
     </g>
    </g>
    <g id="ytick_4">
     <g id="line2d_39">
      <g>
       <use style="stroke:#000000;stroke-width:0.5;" x="51.07125" xlink:href="#m728421d6d4" y="109.54175"/>
      </g>
     </g>
     <g id="line2d_40">
      <g>
       <use style="stroke:#000000;stroke-width:0.5;" x="497.47125" xlink:href="#mcb0005524f" y="109.54175"/>
      </g>
     </g>
     <g id="text_13">
      <!-- 5 -->
      <g transform="translate(41.410625 112.853)scale(0.12 -0.12)">
       <use xlink:href="#BitstreamVeraSans-Roman-35"/>
      </g>
     </g>
    </g>
    <g id="ytick_5">
     <g id="line2d_41">
      <g>
       <use style="stroke:#000000;stroke-width:0.5;" x="51.07125" xlink:href="#m728421d6d4" y="23.14175"/>
      </g>
     </g>
     <g id="line2d_42">
      <g>
       <use style="stroke:#000000;stroke-width:0.5;" x="497.47125" xlink:href="#mcb0005524f" y="23.14175"/>
      </g>
     </g>
     <g id="text_14">
      <!-- 10 -->
      <g transform="translate(33.91625 26.453)scale(0.12 -0.12)">
       <use xlink:href="#BitstreamVeraSans-Roman-31"/>
       <use x="63.623046875" xlink:href="#BitstreamVeraSans-Roman-30"/>
      </g>
     </g>
    </g>
    <g id="text_15">
     <!-- PET (mm/day) -->
     <defs>
      <path d="
M52 44.1875
Q55.375 50.25 60.0625 53.125
Q64.75 56 71.0938 56
Q79.6406 56 84.2812 50.0156
Q88.9219 44.0469 88.9219 33.0156
L88.9219 0
L79.8906 0
L79.8906 32.7188
Q79.8906 40.5781 77.0938 44.375
Q74.3125 48.1875 68.6094 48.1875
Q61.625 48.1875 57.5625 43.5469
Q53.5156 38.9219 53.5156 30.9062
L53.5156 0
L44.4844 0
L44.4844 32.7188
Q44.4844 40.625 41.7031 44.4062
Q38.9219 48.1875 33.1094 48.1875
Q26.2188 48.1875 22.1562 43.5312
Q18.1094 38.875 18.1094 30.9062
L18.1094 0
L9.07812 0
L9.07812 54.6875
L18.1094 54.6875
L18.1094 46.1875
Q21.1875 51.2188 25.4844 53.6094
Q29.7812 56 35.6875 56
Q41.6562 56 45.8281 52.9688
Q50 49.9531 52 44.1875" id="BitstreamVeraSans-Roman-6d"/>
      <path d="
M8.01562 75.875
L15.8281 75.875
Q23.1406 64.3594 26.7812 53.3125
Q30.4219 42.2812 30.4219 31.3906
Q30.4219 20.4531 26.7812 9.375
Q23.1406 -1.70312 15.8281 -13.1875
L8.01562 -13.1875
Q14.5 -2 17.7031 9.0625
Q20.9062 20.125 20.9062 31.3906
Q20.9062 42.6719 17.7031 53.6562
Q14.5 64.6562 8.01562 75.875" id="BitstreamVeraSans-Roman-29"/>
      <path d="
M31 75.875
Q24.4688 64.6562 21.2812 53.6562
Q18.1094 42.6719 18.1094 31.3906
Q18.1094 20.125 21.3125 9.0625
Q24.5156 -2 31 -13.1875
L23.1875 -13.1875
Q15.875 -1.70312 12.2344 9.375
Q8.59375 20.4531 8.59375 31.3906
Q8.59375 42.2812 12.2031 53.3125
Q15.8281 64.3594 23.1875 75.875
z
" id="BitstreamVeraSans-Roman-28"/>
      <path d="
M19.6719 64.7969
L19.6719 37.4062
L32.0781 37.4062
Q38.9688 37.4062 42.7188 40.9688
Q46.4844 44.5312 46.4844 51.125
Q46.4844 57.6719 42.7188 61.2344
Q38.9688 64.7969 32.0781 64.7969
z

M9.8125 72.9062
L32.0781 72.9062
Q44.3438 72.9062 50.6094 67.3594
Q56.8906 61.8125 56.8906 51.125
Q56.8906 40.3281 50.6094 34.8125
Q44.3438 29.2969 32.0781 29.2969
L19.6719 29.2969
L19.6719 0
L9.8125 0
z
" id="BitstreamVeraSans-Roman-50"/>
      <path d="
M9.8125 72.9062
L55.9062 72.9062
L55.9062 64.5938
L19.6719 64.5938
L19.6719 43.0156
L54.3906 43.0156
L54.3906 34.7188
L19.6719 34.7188
L19.6719 8.29688
L56.7812 8.29688
L56.7812 0
L9.8125 0
z
" id="BitstreamVeraSans-Roman-45"/>
      <path d="
M-0.296875 72.9062
L61.375 72.9062
L61.375 64.5938
L35.5 64.5938
L35.5 0
L25.5938 0
L25.5938 64.5938
L-0.296875 64.5938
z
" id="BitstreamVeraSans-Roman-54"/>
      <path d="
M25.3906 72.9062
L33.6875 72.9062
L8.29688 -9.28125
L0 -9.28125
z
" id="BitstreamVeraSans-Roman-2f"/>
     </defs>
     <g transform="translate(16.318125 237.8358125)rotate(-90.0)scale(0.12 -0.12)">
      <use xlink:href="#BitstreamVeraSans-Roman-50"/>
      <use x="60.302734375" xlink:href="#BitstreamVeraSans-Roman-45"/>
      <use x="123.486328125" xlink:href="#BitstreamVeraSans-Roman-54"/>
      <use x="184.5703125" xlink:href="#BitstreamVeraSans-Roman-20"/>
      <use x="216.357421875" xlink:href="#BitstreamVeraSans-Roman-28"/>
      <use x="255.37109375" xlink:href="#BitstreamVeraSans-Roman-6d"/>
      <use x="352.783203125" xlink:href="#BitstreamVeraSans-Roman-6d"/>
      <use x="450.1953125" xlink:href="#BitstreamVeraSans-Roman-2f"/>
      <use x="483.88671875" xlink:href="#BitstreamVeraSans-Roman-64"/>
      <use x="547.36328125" xlink:href="#BitstreamVeraSans-Roman-61"/>
      <use x="608.642578125" xlink:href="#BitstreamVeraSans-Roman-79"/>
      <use x="667.822265625" xlink:href="#BitstreamVeraSans-Roman-29"/>
     </g>
    </g>
   </g>
   <g id="text_16">
    <!-- daily grass PET at Treeline -->
    <defs>
     <path d="
M18.3125 70.2188
L18.3125 54.6875
L36.8125 54.6875
L36.8125 47.7031
L18.3125 47.7031
L18.3125 18.0156
Q18.3125 11.3281 20.1406 9.42188
Q21.9688 7.51562 27.5938 7.51562
L36.8125 7.51562
L36.8125 0
L27.5938 0
Q17.1875 0 13.2344 3.875
Q9.28125 7.76562 9.28125 18.0156
L9.28125 47.7031
L2.6875 47.7031
L2.6875 54.6875
L9.28125 54.6875
L9.28125 70.2188
z
" id="BitstreamVeraSans-Roman-74"/>
     <path d="
M56.2031 29.5938
L56.2031 25.2031
L14.8906 25.2031
Q15.4844 15.9219 20.4844 11.0625
Q25.4844 6.20312 34.4219 6.20312
Q39.5938 6.20312 44.4531 7.46875
Q49.3125 8.73438 54.1094 11.2812
L54.1094 2.78125
Q49.2656 0.734375 44.1875 -0.34375
Q39.1094 -1.42188 33.8906 -1.42188
Q20.7969 -1.42188 13.1562 6.1875
Q5.51562 13.8125 5.51562 26.8125
Q5.51562 40.2344 12.7656 48.1094
Q20.0156 56 32.3281 56
Q43.3594 56 49.7812 48.8906
Q56.2031 41.7969 56.2031 29.5938
M47.2188 32.2344
Q47.125 39.5938 43.0938 43.9844
Q39.0625 48.3906 32.4219 48.3906
Q24.9062 48.3906 20.3906 44.1406
Q15.875 39.8906 15.1875 32.1719
z
" id="BitstreamVeraSans-Roman-65"/>
     <path d="
M45.4062 27.9844
Q45.4062 37.75 41.375 43.1094
Q37.3594 48.4844 30.0781 48.4844
Q22.8594 48.4844 18.8281 43.1094
Q14.7969 37.75 14.7969 27.9844
Q14.7969 18.2656 18.8281 12.8906
Q22.8594 7.51562 30.0781 7.51562
Q37.3594 7.51562 41.375 12.8906
Q45.4062 18.2656 45.4062 27.9844
M54.3906 6.78125
Q54.3906 -7.17188 48.1875 -13.9844
Q42 -20.7969 29.2031 -20.7969
Q24.4688 -20.7969 20.2656 -20.0938
Q16.0625 -19.3906 12.1094 -17.9219
L12.1094 -9.1875
Q16.0625 -11.3281 19.9219 -12.3438
Q23.7812 -13.375 27.7812 -13.375
Q36.625 -13.375 41.0156 -8.76562
Q45.4062 -4.15625 45.4062 5.17188
L45.4062 9.625
Q42.625 4.78125 38.2812 2.39062
Q33.9375 0 27.875 0
Q17.8281 0 11.6719 7.65625
Q5.51562 15.3281 5.51562 27.9844
Q5.51562 40.6719 11.6719 48.3281
Q17.8281 56 27.875 56
Q33.9375 56 38.2812 53.6094
Q42.625 51.2188 45.4062 46.3906
L45.4062 54.6875
L54.3906 54.6875
z
" id="BitstreamVeraSans-Roman-67"/>
     <path d="
M41.1094 46.2969
Q39.5938 47.1719 37.8125 47.5781
Q36.0312 48 33.8906 48
Q26.2656 48 22.1875 43.0469
Q18.1094 38.0938 18.1094 28.8125
L18.1094 0
L9.07812 0
L9.07812 54.6875
L18.1094 54.6875
L18.1094 46.1875
Q20.9531 51.1719 25.4844 53.5781
Q30.0312 56 36.5312 56
Q37.4531 56 38.5781 55.875
Q39.7031 55.7656 41.0625 55.5156
z
" id="BitstreamVeraSans-Roman-72"/>
     <path d="
M44.2812 53.0781
L44.2812 44.5781
Q40.4844 46.5312 36.375 47.5
Q32.2812 48.4844 27.875 48.4844
Q21.1875 48.4844 17.8438 46.4375
Q14.5 44.3906 14.5 40.2812
Q14.5 37.1562 16.8906 35.375
Q19.2812 33.5938 26.5156 31.9844
L29.5938 31.2969
Q39.1562 29.25 43.1875 25.5156
Q47.2188 21.7812 47.2188 15.0938
Q47.2188 7.46875 41.1875 3.01562
Q35.1562 -1.42188 24.6094 -1.42188
Q20.2188 -1.42188 15.4531 -0.5625
Q10.6875 0.296875 5.42188 2
L5.42188 11.2812
Q10.4062 8.6875 15.2344 7.39062
Q20.0625 6.10938 24.8125 6.10938
Q31.1562 6.10938 34.5625 8.28125
Q37.9844 10.4531 37.9844 14.4062
Q37.9844 18.0625 35.5156 20.0156
Q33.0625 21.9688 24.7031 23.7812
L21.5781 24.5156
Q13.2344 26.2656 9.51562 29.9062
Q5.8125 33.5469 5.8125 39.8906
Q5.8125 47.6094 11.2812 51.7969
Q16.75 56 26.8125 56
Q31.7812 56 36.1719 55.2656
Q40.5781 54.5469 44.2812 53.0781" id="BitstreamVeraSans-Roman-73"/>
    </defs>
    <g transform="translate(180.301125 18.14175)scale(0.144 -0.144)">
     <use xlink:href="#BitstreamVeraSans-Roman-64"/>
     <use x="63.4765625" xlink:href="#BitstreamVeraSans-Roman-61"/>
     <use x="124.755859375" xlink:href="#BitstreamVeraSans-Roman-69"/>
     <use x="152.5390625" xlink:href="#BitstreamVeraSans-Roman-6c"/>
     <use x="180.322265625" xlink:href="#BitstreamVeraSans-Roman-79"/>
     <use x="239.501953125" xlink:href="#BitstreamVeraSans-Roman-20"/>
     <use x="271.2890625" xlink:href="#BitstreamVeraSans-Roman-67"/>
     <use x="334.765625" xlink:href="#BitstreamVeraSans-Roman-72"/>
     <use x="375.87890625" xlink:href="#BitstreamVeraSans-Roman-61"/>
     <use x="437.158203125" xlink:href="#BitstreamVeraSans-Roman-73"/>
     <use x="489.2578125" xlink:href="#BitstreamVeraSans-Roman-73"/>
     <use x="541.357421875" xlink:href="#BitstreamVeraSans-Roman-20"/>
     <use x="573.14453125" xlink:href="#BitstreamVeraSans-Roman-50"/>
     <use x="633.447265625" xlink:href="#BitstreamVeraSans-Roman-45"/>
     <use x="696.630859375" xlink:href="#BitstreamVeraSans-Roman-54"/>
     <use x="757.71484375" xlink:href="#BitstreamVeraSans-Roman-20"/>
     <use x="789.501953125" xlink:href="#BitstreamVeraSans-Roman-61"/>
     <use x="850.78125" xlink:href="#BitstreamVeraSans-Roman-74"/>
     <use x="889.990234375" xlink:href="#BitstreamVeraSans-Roman-20"/>
     <use x="921.77734375" xlink:href="#BitstreamVeraSans-Roman-54"/>
     <use x="968.111328125" xlink:href="#BitstreamVeraSans-Roman-72"/>
     <use x="1006.97460938" xlink:href="#BitstreamVeraSans-Roman-65"/>
     <use x="1068.49804688" xlink:href="#BitstreamVeraSans-Roman-65"/>
     <use x="1130.02148438" xlink:href="#BitstreamVeraSans-Roman-6c"/>
     <use x="1157.8046875" xlink:href="#BitstreamVeraSans-Roman-69"/>
     <use x="1185.58789062" xlink:href="#BitstreamVeraSans-Roman-6e"/>
     <use x="1248.96679688" xlink:href="#BitstreamVeraSans-Roman-65"/>
    </g>
   </g>
   <g id="legend_1">
    <g id="patch_7">
     <path d="
M403.646 372.846
L490.271 372.846
L490.271 30.3417
L403.646 30.3417
z
" style="fill:#ffffff;stroke:#000000;stroke-linejoin:miter;"/>
    </g>
    <g id="line2d_43">
     <path d="
M413.726 42.0035
L433.886 42.0035" style="fill:none;stroke:#0000ff;stroke-linecap:square;"/>
    </g>
    <g id="line2d_44"/>
    <g id="text_17">
     <!-- 1999 -->
     <defs>
      <path d="
M10.9844 1.51562
L10.9844 10.5
Q14.7031 8.73438 18.5 7.8125
Q22.3125 6.89062 25.9844 6.89062
Q35.75 6.89062 40.8906 13.4531
Q46.0469 20.0156 46.7812 33.4062
Q43.9531 29.2031 39.5938 26.9531
Q35.25 24.7031 29.9844 24.7031
Q19.0469 24.7031 12.6719 31.3125
Q6.29688 37.9375 6.29688 49.4219
Q6.29688 60.6406 12.9375 67.4219
Q19.5781 74.2188 30.6094 74.2188
Q43.2656 74.2188 49.9219 64.5156
Q56.5938 54.8281 56.5938 36.375
Q56.5938 19.1406 48.4062 8.85938
Q40.2344 -1.42188 26.4219 -1.42188
Q22.7031 -1.42188 18.8906 -0.6875
Q15.0938 0.046875 10.9844 1.51562
M30.6094 32.4219
Q37.25 32.4219 41.125 36.9531
Q45.0156 41.5 45.0156 49.4219
Q45.0156 57.2812 41.125 61.8438
Q37.25 66.4062 30.6094 66.4062
Q23.9688 66.4062 20.0938 61.8438
Q16.2188 57.2812 16.2188 49.4219
Q16.2188 41.5 20.0938 36.9531
Q23.9688 32.4219 30.6094 32.4219" id="BitstreamVeraSans-Roman-39"/>
     </defs>
     <g transform="translate(449.72625 47.0435)scale(0.144 -0.144)">
      <use xlink:href="#BitstreamVeraSans-Roman-31"/>
      <use x="63.623046875" xlink:href="#BitstreamVeraSans-Roman-39"/>
      <use x="127.24609375" xlink:href="#BitstreamVeraSans-Roman-39"/>
      <use x="190.869140625" xlink:href="#BitstreamVeraSans-Roman-39"/>
     </g>
    </g>
    <g id="line2d_45">
     <path d="
M413.726 63.14
L433.886 63.14" style="fill:none;stroke:#008000;stroke-linecap:square;"/>
    </g>
    <g id="line2d_46"/>
    <g id="text_18">
     <!-- 2000 -->
     <g transform="translate(449.72625 68.18)scale(0.144 -0.144)">
      <use xlink:href="#BitstreamVeraSans-Roman-32"/>
      <use x="63.623046875" xlink:href="#BitstreamVeraSans-Roman-30"/>
      <use x="127.24609375" xlink:href="#BitstreamVeraSans-Roman-30"/>
      <use x="190.869140625" xlink:href="#BitstreamVeraSans-Roman-30"/>
     </g>
    </g>
    <g id="line2d_47">
     <path d="
M413.726 84.2765
L433.886 84.2765" style="fill:none;stroke:#ff0000;stroke-linecap:square;"/>
    </g>
    <g id="line2d_48"/>
    <g id="text_19">
     <!-- 2001 -->
     <g transform="translate(449.72625 89.3165)scale(0.144 -0.144)">
      <use xlink:href="#BitstreamVeraSans-Roman-32"/>
      <use x="63.623046875" xlink:href="#BitstreamVeraSans-Roman-30"/>
      <use x="127.24609375" xlink:href="#BitstreamVeraSans-Roman-30"/>
      <use x="190.869140625" xlink:href="#BitstreamVeraSans-Roman-31"/>
     </g>
    </g>
    <g id="line2d_49">
     <path d="
M413.726 105.413
L433.886 105.413" style="fill:none;stroke:#00bfbf;stroke-linecap:square;"/>
    </g>
    <g id="line2d_50"/>
    <g id="text_20">
     <!-- 2002 -->
     <g transform="translate(449.72625 110.453)scale(0.144 -0.144)">
      <use xlink:href="#BitstreamVeraSans-Roman-32"/>
      <use x="63.623046875" xlink:href="#BitstreamVeraSans-Roman-30"/>
      <use x="127.24609375" xlink:href="#BitstreamVeraSans-Roman-30"/>
      <use x="190.869140625" xlink:href="#BitstreamVeraSans-Roman-32"/>
     </g>
    </g>
    <g id="line2d_51">
     <path d="
M413.726 126.549
L433.886 126.549" style="fill:none;stroke:#bf00bf;stroke-linecap:square;"/>
    </g>
    <g id="line2d_52"/>
    <g id="text_21">
     <!-- 2003 -->
     <g transform="translate(449.72625 131.5895)scale(0.144 -0.144)">
      <use xlink:href="#BitstreamVeraSans-Roman-32"/>
      <use x="63.623046875" xlink:href="#BitstreamVeraSans-Roman-30"/>
      <use x="127.24609375" xlink:href="#BitstreamVeraSans-Roman-30"/>
      <use x="190.869140625" xlink:href="#BitstreamVeraSans-Roman-33"/>
     </g>
    </g>
    <g id="line2d_53">
     <path d="
M413.726 147.686
L433.886 147.686" style="fill:none;stroke:#bfbf00;stroke-linecap:square;"/>
    </g>
    <g id="line2d_54"/>
    <g id="text_22">
     <!-- 2004 -->
     <defs>
      <path d="
M37.7969 64.3125
L12.8906 25.3906
L37.7969 25.3906
z

M35.2031 72.9062
L47.6094 72.9062
L47.6094 25.3906
L58.0156 25.3906
L58.0156 17.1875
L47.6094 17.1875
L47.6094 0
L37.7969 0
L37.7969 17.1875
L4.89062 17.1875
L4.89062 26.7031
z
" id="BitstreamVeraSans-Roman-34"/>
     </defs>
     <g transform="translate(449.72625 152.726)scale(0.144 -0.144)">
      <use xlink:href="#BitstreamVeraSans-Roman-32"/>
      <use x="63.623046875" xlink:href="#BitstreamVeraSans-Roman-30"/>
      <use x="127.24609375" xlink:href="#BitstreamVeraSans-Roman-30"/>
      <use x="190.869140625" xlink:href="#BitstreamVeraSans-Roman-34"/>
     </g>
    </g>
    <g id="line2d_55">
     <path d="
M413.726 168.822
L433.886 168.822" style="fill:none;stroke:#000000;stroke-linecap:square;"/>
    </g>
    <g id="line2d_56"/>
    <g id="text_23">
     <!-- 2005 -->
     <g transform="translate(449.72625 173.8625)scale(0.144 -0.144)">
      <use xlink:href="#BitstreamVeraSans-Roman-32"/>
      <use x="63.623046875" xlink:href="#BitstreamVeraSans-Roman-30"/>
      <use x="127.24609375" xlink:href="#BitstreamVeraSans-Roman-30"/>
      <use x="190.869140625" xlink:href="#BitstreamVeraSans-Roman-35"/>
     </g>
    </g>
    <g id="line2d_57">
     <path d="
M413.726 189.959
L433.886 189.959" style="fill:none;stroke:#0000ff;stroke-linecap:square;"/>
    </g>
    <g id="line2d_58"/>
    <g id="text_24">
     <!-- 2006 -->
     <defs>
      <path d="
M33.0156 40.375
Q26.375 40.375 22.4844 35.8281
Q18.6094 31.2969 18.6094 23.3906
Q18.6094 15.5312 22.4844 10.9531
Q26.375 6.39062 33.0156 6.39062
Q39.6562 6.39062 43.5312 10.9531
Q47.4062 15.5312 47.4062 23.3906
Q47.4062 31.2969 43.5312 35.8281
Q39.6562 40.375 33.0156 40.375
M52.5938 71.2969
L52.5938 62.3125
Q48.875 64.0625 45.0938 64.9844
Q41.3125 65.9219 37.5938 65.9219
Q27.8281 65.9219 22.6719 59.3281
Q17.5312 52.7344 16.7969 39.4062
Q19.6719 43.6562 24.0156 45.9219
Q28.375 48.1875 33.5938 48.1875
Q44.5781 48.1875 50.9531 41.5156
Q57.3281 34.8594 57.3281 23.3906
Q57.3281 12.1562 50.6875 5.35938
Q44.0469 -1.42188 33.0156 -1.42188
Q20.3594 -1.42188 13.6719 8.26562
Q6.98438 17.9688 6.98438 36.375
Q6.98438 53.6562 15.1875 63.9375
Q23.3906 74.2188 37.2031 74.2188
Q40.9219 74.2188 44.7031 73.4844
Q48.4844 72.75 52.5938 71.2969" id="BitstreamVeraSans-Roman-36"/>
     </defs>
     <g transform="translate(449.72625 194.999)scale(0.144 -0.144)">
      <use xlink:href="#BitstreamVeraSans-Roman-32"/>
      <use x="63.623046875" xlink:href="#BitstreamVeraSans-Roman-30"/>
      <use x="127.24609375" xlink:href="#BitstreamVeraSans-Roman-30"/>
      <use x="190.869140625" xlink:href="#BitstreamVeraSans-Roman-36"/>
     </g>
    </g>
    <g id="line2d_59">
     <path d="
M413.726 211.095
L433.886 211.095" style="fill:none;stroke:#008000;stroke-linecap:square;"/>
    </g>
    <g id="line2d_60"/>
    <g id="text_25">
     <!-- 2007 -->
     <defs>
      <path d="
M8.20312 72.9062
L55.0781 72.9062
L55.0781 68.7031
L28.6094 0
L18.3125 0
L43.2188 64.5938
L8.20312 64.5938
z
" id="BitstreamVeraSans-Roman-37"/>
     </defs>
     <g transform="translate(449.72625 216.1355)scale(0.144 -0.144)">
      <use xlink:href="#BitstreamVeraSans-Roman-32"/>
      <use x="63.623046875" xlink:href="#BitstreamVeraSans-Roman-30"/>
      <use x="127.24609375" xlink:href="#BitstreamVeraSans-Roman-30"/>
      <use x="190.869140625" xlink:href="#BitstreamVeraSans-Roman-37"/>
     </g>
    </g>
    <g id="line2d_61">
     <path d="
M413.726 232.232
L433.886 232.232" style="fill:none;stroke:#ff0000;stroke-linecap:square;"/>
    </g>
    <g id="line2d_62"/>
    <g id="text_26">
     <!-- 2008 -->
     <defs>
      <path d="
M31.7812 34.625
Q24.75 34.625 20.7188 30.8594
Q16.7031 27.0938 16.7031 20.5156
Q16.7031 13.9219 20.7188 10.1562
Q24.75 6.39062 31.7812 6.39062
Q38.8125 6.39062 42.8594 10.1719
Q46.9219 13.9688 46.9219 20.5156
Q46.9219 27.0938 42.8906 30.8594
Q38.875 34.625 31.7812 34.625
M21.9219 38.8125
Q15.5781 40.375 12.0312 44.7188
Q8.5 49.0781 8.5 55.3281
Q8.5 64.0625 14.7188 69.1406
Q20.9531 74.2188 31.7812 74.2188
Q42.6719 74.2188 48.875 69.1406
Q55.0781 64.0625 55.0781 55.3281
Q55.0781 49.0781 51.5312 44.7188
Q48 40.375 41.7031 38.8125
Q48.8281 37.1562 52.7969 32.3125
Q56.7812 27.4844 56.7812 20.5156
Q56.7812 9.90625 50.3125 4.23438
Q43.8438 -1.42188 31.7812 -1.42188
Q19.7344 -1.42188 13.25 4.23438
Q6.78125 9.90625 6.78125 20.5156
Q6.78125 27.4844 10.7812 32.3125
Q14.7969 37.1562 21.9219 38.8125
M18.3125 54.3906
Q18.3125 48.7344 21.8438 45.5625
Q25.3906 42.3906 31.7812 42.3906
Q38.1406 42.3906 41.7188 45.5625
Q45.3125 48.7344 45.3125 54.3906
Q45.3125 60.0625 41.7188 63.2344
Q38.1406 66.4062 31.7812 66.4062
Q25.3906 66.4062 21.8438 63.2344
Q18.3125 60.0625 18.3125 54.3906" id="BitstreamVeraSans-Roman-38"/>
     </defs>
     <g transform="translate(449.72625 237.272)scale(0.144 -0.144)">
      <use xlink:href="#BitstreamVeraSans-Roman-32"/>
      <use x="63.623046875" xlink:href="#BitstreamVeraSans-Roman-30"/>
      <use x="127.24609375" xlink:href="#BitstreamVeraSans-Roman-30"/>
      <use x="190.869140625" xlink:href="#BitstreamVeraSans-Roman-38"/>
     </g>
    </g>
    <g id="line2d_63">
     <path d="
M413.726 253.368
L433.886 253.368" style="fill:none;stroke:#00bfbf;stroke-linecap:square;"/>
    </g>
    <g id="line2d_64"/>
    <g id="text_27">
     <!-- 2009 -->
     <g transform="translate(449.72625 258.4085)scale(0.144 -0.144)">
      <use xlink:href="#BitstreamVeraSans-Roman-32"/>
      <use x="63.623046875" xlink:href="#BitstreamVeraSans-Roman-30"/>
      <use x="127.24609375" xlink:href="#BitstreamVeraSans-Roman-30"/>
      <use x="190.869140625" xlink:href="#BitstreamVeraSans-Roman-39"/>
     </g>
    </g>
    <g id="line2d_65">
     <path d="
M413.726 274.505
L433.886 274.505" style="fill:none;stroke:#bf00bf;stroke-linecap:square;"/>
    </g>
    <g id="line2d_66"/>
    <g id="text_28">
     <!-- 2010 -->
     <g transform="translate(449.72625 279.545)scale(0.144 -0.144)">
      <use xlink:href="#BitstreamVeraSans-Roman-32"/>
      <use x="63.623046875" xlink:href="#BitstreamVeraSans-Roman-30"/>
      <use x="127.24609375" xlink:href="#BitstreamVeraSans-Roman-31"/>
      <use x="190.869140625" xlink:href="#BitstreamVeraSans-Roman-30"/>
     </g>
    </g>
    <g id="line2d_67">
     <path d="
M413.726 295.641
L433.886 295.641" style="fill:none;stroke:#bfbf00;stroke-linecap:square;"/>
    </g>
    <g id="line2d_68"/>
    <g id="text_29">
     <!-- 2011 -->
     <g transform="translate(449.72625 300.6815)scale(0.144 -0.144)">
      <use xlink:href="#BitstreamVeraSans-Roman-32"/>
      <use x="63.623046875" xlink:href="#BitstreamVeraSans-Roman-30"/>
      <use x="127.24609375" xlink:href="#BitstreamVeraSans-Roman-31"/>
      <use x="190.869140625" xlink:href="#BitstreamVeraSans-Roman-31"/>
     </g>
    </g>
    <g id="line2d_69">
     <path d="
M413.726 316.778
L433.886 316.778" style="fill:none;stroke:#000000;stroke-linecap:square;"/>
    </g>
    <g id="line2d_70"/>
    <g id="text_30">
     <!-- 2012 -->
     <g transform="translate(449.72625 321.818)scale(0.144 -0.144)">
      <use xlink:href="#BitstreamVeraSans-Roman-32"/>
      <use x="63.623046875" xlink:href="#BitstreamVeraSans-Roman-30"/>
      <use x="127.24609375" xlink:href="#BitstreamVeraSans-Roman-31"/>
      <use x="190.869140625" xlink:href="#BitstreamVeraSans-Roman-32"/>
     </g>
    </g>
    <g id="line2d_71">
     <path d="
M413.726 337.914
L433.886 337.914" style="fill:none;stroke:#0000ff;stroke-linecap:square;"/>
    </g>
    <g id="line2d_72"/>
    <g id="text_31">
     <!-- 2013 -->
     <g transform="translate(449.72625 342.9545)scale(0.144 -0.144)">
      <use xlink:href="#BitstreamVeraSans-Roman-32"/>
      <use x="63.623046875" xlink:href="#BitstreamVeraSans-Roman-30"/>
      <use x="127.24609375" xlink:href="#BitstreamVeraSans-Roman-31"/>
      <use x="190.869140625" xlink:href="#BitstreamVeraSans-Roman-33"/>
     </g>
    </g>
    <g id="line2d_73">
     <path d="
M413.726 359.051
L433.886 359.051" style="fill:none;stroke:#008000;stroke-linecap:square;"/>
    </g>
    <g id="line2d_74"/>
    <g id="text_32">
     <!-- 2014 -->
     <g transform="translate(449.72625 364.091)scale(0.144 -0.144)">
      <use xlink:href="#BitstreamVeraSans-Roman-32"/>
      <use x="63.623046875" xlink:href="#BitstreamVeraSans-Roman-30"/>
      <use x="127.24609375" xlink:href="#BitstreamVeraSans-Roman-31"/>
      <use x="190.869140625" xlink:href="#BitstreamVeraSans-Roman-34"/>
     </g>
    </g>
   </g>
  </g>
 </g>
 <defs>
  <clipPath id="p5fc3a60927">
   <rect height="345.6" width="446.4" x="51.07125" y="23.14175"/>
  </clipPath>
 </defs>
</svg>
