<?xml version="1.0" encoding="utf-8" standalone="no"?>
<!DOCTYPE svg PUBLIC "-//W3C//DTD SVG 1.1//EN"
  "http://www.w3.org/Graphics/SVG/1.1/DTD/svg11.dtd">
<!-- Created with matplotlib (http://matplotlib.org/) -->
<svg height="408pt" version="1.1" viewBox="0 0 504 408" width="504pt" xmlns="http://www.w3.org/2000/svg" xmlns:xlink="http://www.w3.org/1999/xlink">
 <defs>
  <style type="text/css">
*{stroke-linecap:butt;stroke-linejoin:round;}
  </style>
 </defs>
 <g id="figure_1">
  <g id="patch_1">
   <path d="
M0 408.169
L504.671 408.169
L504.671 0
L0 0
z
" style="fill:#ffffff;"/>
  </g>
  <g id="axes_1">
   <g id="patch_2">
    <path d="
M51.0713 368.742
L497.471 368.742
L497.471 23.1417
L51.0713 23.1417
z
" style="fill:#ffffff;"/>
   </g>
   <g id="line2d_1">
    <path clip-path="url(#p5fc3a60927)" d="
M0 0" style="fill:none;stroke:#0000ff;stroke-linecap:square;"/>
   </g>
   <g id="line2d_2">
    <path clip-path="url(#p5fc3a60927)" d="
M0 0" style="fill:none;stroke:#008000;stroke-linecap:square;"/>
   </g>
   <g id="line2d_3">
    <path clip-path="url(#p5fc3a60927)" d="
M0 0" style="fill:none;stroke:#ff0000;stroke-linecap:square;"/>
   </g>
   <g id="line2d_4">
    <path clip-path="url(#p5fc3a60927)" d="
M0 0" style="fill:none;stroke:#00bfbf;stroke-linecap:square;"/>
   </g>
   <g id="line2d_5">
    <path clip-path="url(#p5fc3a60927)" d="
M0 0" style="fill:none;stroke:#bf00bf;stroke-linecap:square;"/>
   </g>
   <g id="line2d_6">
    <path clip-path="url(#p5fc3a60927)" d="
M0 0" style="fill:none;stroke:#bfbf00;stroke-linecap:square;"/>
   </g>
   <g id="line2d_7">
    <path clip-path="url(#p5fc3a60927)" d="
M0 0" style="fill:none;stroke:#000000;stroke-linecap:square;"/>
   </g>
   <g id="line2d_8">
    <path clip-path="url(#p5fc3a60927)" d="
M0 0" style="fill:none;stroke:#0000ff;stroke-linecap:square;"/>
   </g>
   <g id="line2d_9">
    <path clip-path="url(#p5fc3a60927)" d="
M0 0" style="fill:none;stroke:#008000;stroke-linecap:square;"/>
   </g>
   <g id="line2d_10">
    <path clip-path="url(#p5fc3a60927)" d="
M51.3046 409.169
L51.5106 -1
M55.9609 -1
L55.9633 194.794
L57.1863 270.926
L58.3182 409.169
M60.5803 409.169
L60.8554 274.216
L62.0784 210.034
L63.3014 279.094
L64.5244 191.784
L65.7474 181.26
L66.9704 177.791
L68.1934 2.83284
L69.1301 409.169
M70.164 409.169
L70.6395 330.142
L73.0855 188.675
L74.3085 242.602
L75.5315 235.606
L76.7545 248.239
L77.9776 226.03
L79.2006 282.046
L80.4236 275.557
L80.7324 -1
M84.0812 -1
L84.0926 86.1712
L85.3156 357.764
L86.5386 296.576
L87.1679 409.169
M88.8085 409.169
L88.9847 391.296
L89.0202 409.169
M93.6168 409.169
L93.8767 331.469
L95.0997 340.492
L96.3228 373.828
L97.5458 248.696
L98.7688 82.3007
L99.8947 -1
M101.987 -1
L102.438 73.82
L102.491 -1
M104.603 -1
L104.837 409.169
M105.232 409.169
L106.107 204.532
L107.33 177.742
L108.553 123.33
L109.776 180.797
L110.999 169.05
L112.222 185.732
L113.445 165.325
L114.668 201.244
L115.891 115.625
L116.568 -1
M117.581 -1
L118.337 151.664
L119.56 153.634
L120.783 163.02
L122.006 120.364
L122.202 -1
M125.005 -1
L125.54 409.169
M125.997 409.169
L126.898 118.273
L128.121 406.795
L129.344 103.721
L130.567 117.33
L131.79 128.411
L133.013 68.2027
L134.236 122.116
L135.134 -1
M136.666 -1
L136.682 -0.396166
L137.905 60.1463
L139.128 86.961
L140.351 184.426
L141.574 189.832
L142.797 106.306
L144.02 148.591
L145.243 137.4
L146.046 -1
M146.944 -1
L147.689 112.179
L148.912 206.525
L150.135 117.073
L150.228 -1
M152.495 -1
L152.581 108.707
L155.027 195.063
L156.25 322.806
L156.637 -1
M158.34 -1
L158.696 287.044
L159.919 160.998
L161.142 261.903
L162.102 -1
M162.919 -1
L163.589 86.295
L164.812 66.018
L165.085 -1
M166.856 -1
L167.258 112.413
L168.481 134.688
L169.704 160.08
L170.927 100.287
L172.15 170.469
L173.373 108.628
L174.522 -1
M179.379 -1
L179.488 172.69
L180.711 20.6203
L181.189 -1
M182.601 -1
L183.157 27.0101
L183.342 -1
M184.88 -1
L185.603 226.34
L186.826 156.008
L187.092 -1
M189.142 -1
L189.272 66.0726
L190.495 112.662
L191.201 -1
M233.284 -1
L233.3 7.09554
L233.782 -1
M239.068 -1
L239.415 40.1874
L239.476 -1
M389.398 -1
L389.846 40.1189
L391.069 68.9999
L392.074 -1
M395.992 -1
L397.184 288.854
L398.014 409.169
M398.559 409.169
L399.63 5.80074
L400.853 112.336
L402.076 56.5689
L403.299 43.933
L404.522 65.4408
L404.766 -1
M411.603 -1
L411.86 112.011
L413.083 59.3608
L414.306 37.1168
L414.453 -1
M417.912 -1
L417.975 12.8014
L419.198 8.68829
L419.442 -1
M425.303 -1
L425.313 62.0118
L426.536 74.655
L427.759 97.504
L428.982 177.42
L430.205 183.609
L431.429 98.5006
L431.713 -1
M433.571 -1
L433.875 107.058
L435.098 4.4356
L436.321 185.778
L437.156 -1
M439.8 -1
L439.99 91.9498
L441.213 119.648
L442.436 95.8542
L442.893 -1
M444.677 -1
L444.882 31.5768
L446.105 103.063
L446.235 -1
M448.41 -1
L448.551 111.746
L449.774 132.599
L450.997 179.517
L451.787 -1
M452.804 -1
L453.443 107.234
L454.666 120.348
L455.889 122.062
L457.112 63.4372
L457.43 -1
M460.157 -1
L460.781 105.114
L461.592 -1
M462.316 -1
L463.227 156.03
L464.45 161.732
L465.673 166.613
L466.896 109.855
L468.119 122.869
L469.342 304.868
L470.565 175.686
L471.788 153.967
L473.011 174.474
L474.234 178.571
L475.457 229.139
L476.68 301.79
L476.689 409.169
M479.115 409.169
L479.126 273.699
L480.349 350.719
L480.638 409.169
M482.738 409.169
L482.795 399.903
L484.018 394.638
L484.063 409.169
M486.075 409.169
L486.464 232.902
L487.687 254.522
L487.74 409.169
M490.114 409.169
L490.133 354.161
L490.504 409.169
M491.864 409.169
L492.579 230.79
L493.802 168.289
L494.106 -1
M495.798 -1
L496.248 298.067
L496.248 298.067" style="fill:none;stroke:#ff0000;stroke-linecap:square;"/>
   </g>
   <g id="line2d_11">
    <path clip-path="url(#p5fc3a60927)" d="
M51.0713 149.024
L51.466 -1
M52.9322 -1
L53.5173 287.698
L53.8941 409.169
M56.5843 409.169
L57.1863 74.6531
L57.3368 -1
M60.0865 -1
L60.8554 301.208
L62.0784 163.848
L63.3203 -1
M65.2997 -1
L65.7474 74.0876
L66.9704 83.431
L68.1934 149.82
L69.4165 161.158
L70.6395 183.425
L71.8625 189.56
L73.0855 159.577
L74.3085 184.287
L75.5315 154.051
L76.7545 177.053
L77.9776 210.513
L79.2006 193.607
L80.4236 254.192
L81.6466 282.212
L82.8696 263.47
L84.0072 409.169
M84.1557 409.169
L85.3156 208.036
L86.5386 139.643
L87.7617 192.127
L88.9847 196.121
L90.2077 143.634
L90.7084 -1
M95.0724 -1
L95.0997 139.594
L96.3228 169.256
L97.5458 192.573
L98.7688 243.883
L99.6412 409.169
M100.298 409.169
L101.215 210.091
L102.438 224.214
L102.463 409.169
M104.867 409.169
L104.884 285.28
L104.884 285.28
L104.884 285.28
L104.898 409.169
M107.09 409.169
L107.127 -1
M108.446 -1
L108.553 208.974
L109.776 168.398
L110.999 115.322
L112.222 158.547
L113.103 -1
M117.07 -1
L117.114 34.62
L118.337 170.841
L119.56 159.916
L120.783 247.912
L120.863 -1
M125.647 -1
L125.675 114.129
L126.898 197.518
L128.121 248.827
L129.344 360.544
L130.567 209.611
L131.79 238.559
L133.013 307.576
L133.605 409.169
M134.664 409.169
L135.459 207.67
L136.682 186.086
L137.905 143.597
L138.675 -1
M139.814 -1
L140.351 65.7556
L141.574 12.5709
L142.797 82.5975
L144.02 69.7008
L144.698 -1
M148.249 -1
L148.912 118.415
L150.135 58.3939
L151.358 90.4883
L152.581 245.799
L153.804 181.103
L155.027 107.145
L156.25 125.884
L156.52 -1
M158.467 -1
L158.696 102.574
L159.919 189.273
L161.142 211.673
L162.365 141.549
L163.589 263.604
L164.209 -1
M169.702 -1
L169.704 3.08384
L170.927 20.6989
L172.15 135.232
L173.373 62.4598
L173.934 -1
M175.672 -1
L175.819 9.2243
L177.042 13.4854
L177.062 -1
M193.985 -1
L194.164 147.052
L195.387 95.5291
L196.61 70.3206
L196.668 -1
M203.604 -1
L203.948 40.013
L204.192 -1
M241.736 -1
L241.861 44.4022
L242.383 -1
M251.577 -1
L251.645 46.1709
L252.787 -1
M258.896 -1
L258.984 21.194
L260.207 27.6294
L260.479 -1
M317.594 -1
L317.688 122.15
L318.782 -1
M385.42 -1
L387.4 103.249
L388.623 194.875
L389.846 192.521
L391.069 116.736
L392.292 62.3345
L392.705 -1
M395.116 -1
L395.961 153.689
L397.184 112.623
L398.407 9.4674
L398.411 -1
M401.744 -1
L402.076 61.2301
L403.299 -1
M405.743 -1
L405.745 13.118
L405.941 -1
M409.203 -1
L409.414 105.551
L410.127 -1
M411.838 -1
L411.86 0.402123
L411.86 0.402123
L411.86 0.402123
L411.864 -1
M414.102 -1
L414.306 97.4018
L414.595 -1
M416.182 -1
L416.752 277.168
L417.975 151.163
L419.198 232.001
L420.421 47.0588
L421.644 85.2104
L422.867 35.0165
L424.09 99.5003
L425.313 108.666
L425.433 -1
M428.777 -1
L428.982 109.717
L430.205 145.123
L431.429 60.9166
L431.445 -1
M434.331 -1
L435.098 119.163
L436.321 202.237
L437.544 205.262
L438.767 213.422
L439.99 194.813
L440.061 -1
M443.587 -1
L443.659 123.188
L443.82 -1
M447.323 -1
L447.328 188.071
L448.022 409.169
M449.091 409.169
L449.774 196.392
L450.997 178.404
L452.22 173.418
L452.72 -1
M456.793 -1
L457.112 146.72
M459.558 139.613
L460.781 236.696
L462.004 227.332
L463.227 189.216
L463.638 409.169
M466.715 409.169
L466.896 310.428
L468.119 316.67
L469.342 252.397
L473.011 220.689
L474.234 218.013
L475.457 194.547
L476.17 409.169
M477.171 409.169
L477.903 180.36
L479.126 167.978
L480.349 187.122
L481.572 171.372
L482.795 4.77506
L484.018 1.91541
L485.299 409.169
M487.484 409.169
L487.687 228.342
L488.91 208.22
L490.133 245.057
L491.356 244.242
L492.579 227.771
L493.802 230.251
L495.025 298.076
L496.248 336.88
L496.248 336.88" style="fill:none;stroke:#00bfbf;stroke-linecap:square;"/>
   </g>
   <g id="line2d_12">
    <path clip-path="url(#p5fc3a60927)" d="
M51.0713 160.133
L52.2943 190.272
L53.5173 184.197
L54.7403 137.255
L55.9633 161.992
L57.1863 112.487
L58.4093 224.367
L59.6323 213.977
L60.8554 193.519
L62.0784 158.892
L62.1072 -1
M66.1547 -1
L66.9704 167.591
L67.176 -1
M69.2541 -1
L69.4165 126.738
L69.6833 -1
M76.6636 -1
L76.7545 194.434
L77.9776 279.919
L79.2006 207.445
L80.4236 146.121
L81.6466 191.038
L82.8696 196.313
L84.0926 191.874
L85.3156 181.748
L87.7617 225.516
L88.9847 208.013
L90.2077 163.027
L91.4307 174.287
L92.6537 137.732
L93.8767 131.615
L95.0997 75.7439
L96.3228 187.187
L97.5458 206.62
L98.7688 209.898
L99.9918 189.194
L101.215 172.206
L102.438 121.834
L103.661 175.157
L104.884 142.31
L106.107 195.359
L107.33 192.932
L108.553 194.465
L109.776 192.562
L110.999 199.955
L112.222 212.827
L113.445 239.561
L114.668 204.191
L115.891 41.2469
L117.114 177.909
L118.337 166.675
L118.343 -1
M126.233 -1
L126.898 41.8078
L128.121 89.0618
L128.898 -1
M129.782 -1
L130.567 91.8108
L131.79 95.015
L132.965 409.169
M133.08 409.169
L134.236 188.648
L135.459 107.738
L135.462 -1
M138.012 -1
L139.128 121.051
L140.351 14.8662
L140.353 -1
M148.279 -1
L148.912 43.1405
L150.135 28.7129
L150.15 -1
M153.323 -1
L153.804 224.665
L154.783 -1
M158.119 -1
L158.696 200.64
L159.919 147.088
L161.142 244.706
L162.365 258.802
L163.589 228.092
L164.103 -1
M165.633 -1
L166.035 153.128
L167.258 80.3563
L168.481 78.4678
L168.57 -1
M170.786 -1
L170.927 129.623
L171.239 -1
M174.96 -1
L175.819 117.223
L175.976 -1
M193.78 -1
L194.164 188.554
L195.387 169.328
L196.01 -1
M197.466 -1
L197.833 69.1366
L198.012 -1
M202.228 -1
L202.725 50.9856
L203.952 -1
M208.536 -1
L208.84 70.023
L208.929 -1
M218.613 -1
L218.624 28.5564
L218.784 -1
M222.424 -1
L223.516 200.047
L224.739 43.9929
L225.962 24.2097
L225.986 -1
M229.623 -1
L229.631 5.60567
L229.631 5.60567
L229.631 5.60567
L229.694 -1
M231.764 -1
L232.077 40.9467
L233.562 -1
M235.08 -1
L235.746 40.2183
L236.969 90.0926
L237.893 -1
M239.162 -1
L239.415 6.70433
L239.603 -1
M344.529 -1
L344.595 59.3535
L345.08 -1
M346.742 -1
L347.041 28.6885
L347.16 -1
M357.929 -1
L358.048 30.317
L359.221 -1
M388.468 -1
L388.623 46.8305
L388.917 -1
M393.436 -1
L393.515 99.61
L394.738 52.7513
L395.247 -1
M398.285 -1
L398.407 42.8879
L398.776 -1
M407.5 -1
L408.191 49.1703
L409.414 23.036
L410.17 -1
M410.842 -1
L411.86 72.8175
L412.262 -1
M413.674 -1
L414.306 160.548
L415.529 208.638
L416.418 -1
M420.264 -1
L420.421 24.9388
L421.644 133.553
L422.229 -1
M423.769 -1
L424.09 51.3616
L424.714 -1
M426.528 -1
L426.536 -0.666359
L426.536 -0.666359
L426.536 -0.666359
L426.538 -1
M430.652 -1
L431.429 115.929
L432.652 98.1805
L433.875 261.378
L435.098 195.66
L436.321 159.854
L437.544 195.452
L438.767 69.9461
L439.99 13.048
L440.109 -1
M444.118 -1
L444.882 212.607
L446.105 213.345
L447.114 409.169
M447.593 409.169
L448.551 258.896
L449.107 409.169
M451.641 409.169
L452.22 247.093
L452.779 409.169
M454.103 409.169
L454.666 245.055
L454.896 409.169
M456.948 409.169
L457.112 299.856
L457.55 409.169
M458.906 409.169
L459.558 186.023
L460.781 143.951
L462.004 190.78
L463.227 206.758
L464.45 123.336
L465.673 109.034
L465.983 -1
M468.767 -1
L469.342 151.748
L470.565 92.6788
L471.788 147.252
L473.011 81.6001
L474.234 119.404
L475.457 52.4883
L476.68 222.659
L477.903 232.88
L478.181 409.169
M479.921 409.169
L480.349 86.345
L481.572 188.32
L482.795 274.886
L483.98 409.169
M484.024 409.169
L484.581 -1
M486.144 -1
L486.464 171.932
L486.489 -1
M490.213 -1
L491.356 203.37
L492.579 390.011
L493.802 357.583
L493.851 409.169
L493.851 409.169" style="fill:none;stroke:#bf00bf;stroke-linecap:square;"/>
   </g>
   <g id="line2d_13">
    <path clip-path="url(#p5fc3a60927)" d="
M51.0713 230.973
L52.2943 230.079
L53.5173 227.452
L54.7403 228.621
L55.9633 196.2
L57.1863 184.074
L58.4093 181.89
L59.6323 254.304
L60.8554 273.975
L62.0784 247.149
L62.1431 409.169
M64.4328 409.169
L64.5244 174.434
L65.7474 155.739
L66.9704 119.61
L68.1934 144.361
L69.3831 -1
M71.0726 -1
L72.7419 409.169
M73.4538 409.169
L74.3085 205.804
L75.5315 178.69
L76.7545 205.904
L77.9776 114.558
L79.2006 176.852
L80.4236 107.02
L81.6466 182.509
L82.8696 196.676
L84.0926 173.812
L85.3156 173.606
L86.5386 209.618
L86.7795 409.169
M88.9589 409.169
L88.9847 391.683
L90.2077 236.733
L91.4307 172.059
L92.6537 94.4351
L93.8767 51.6062
L95.0997 150.797
L96.3228 49.173
L97.5458 136.951
L98.7688 208.658
L99.9918 189.927
L101.215 141.045
L101.43 -1
M107.049 -1
L107.33 89.9393
L108.553 390.919
L109.776 244.523
L110.999 198.082
L112.222 260.909
L113.445 211.114
L114.668 300.824
L115.891 272.693
L117.114 263.11
L118.276 409.169
M118.392 409.169
L119.56 243.944
L120.783 263.216
L122.006 190.749
L122.84 -1
M125.527 -1
L125.675 156.617
L126.898 120.328
L128.121 171.595
L129.344 185.386
L130.567 252.777
L131.79 222.788
L132.521 -1
M135.065 -1
L135.459 207.919
L136.682 111.408
L136.765 -1
M140.628 -1
L141.574 170.075
L142.797 225.092
L142.844 -1
M145.217 -1
L145.243 126.809
L145.243 126.809
L145.243 126.809
L145.243 -1
M148.847 -1
L148.912 167.139
L148.912 167.139
L148.912 167.139
L148.954 -1
M152.136 -1
L152.581 186.619
L153.804 237.494
L155.027 200.22
L156.25 182.186
L157.473 143.906
L158.006 -1
M163.35 -1
L163.589 123.242
L164.812 127.883
L165.478 -1
M166.54 -1
L167.258 151.58
L168.481 174.891
L169.704 29.5407
L170.927 161.241
L172.15 96.3378
L172.788 -1
M174.167 -1
L174.596 47.0524
L174.695 -1
M176.911 -1
L177.042 64.1366
L178.265 10.3098
L179.488 22.0334
L180.711 13.7869
L181.934 50.5716
L183.157 20.9707
L183.198 -1
M185.367 -1
L185.603 147.401
L186.826 112.434
L187.649 -1
M190.098 -1
L190.495 85.7719
L191.718 26.4279
L192.098 -1
M194.32 -1
L195.387 47.9206
L196.003 -1
M204.585 -1
L205.171 45.5779
L205.755 -1
M215.994 -1
L216.178 129.082
L217.401 72.735
L217.524 -1
M224.558 -1
L224.739 9.30993
L224.904 -1
M228.398 -1
L228.408 81.6651
L229.631 112.546
L230.854 120.468
L232.077 74.9176
L232.321 -1
M236.643 -1
L236.969 110.086
L237.86 -1
M256.233 -1
L256.538 32.3092
L256.611 -1
M389.658 -1
L389.846 35.4339
L391.069 172.594
L392.021 -1
M394.727 -1
L394.738 0.81485
L394.738 0.81485
L394.738 0.81485
L394.752 -1
M397.519 -1
L398.407 63.6009
L399.63 42.7975
L400.853 13.0264
L401.076 -1
M404.173 -1
L404.522 40.6288
L405.419 -1
M407.845 -1
L408.191 39.1494
L409.414 41.3894
L410.637 60.7327
L411.86 41.3443
L412.207 -1
M415.084 -1
L415.529 107.454
L416.752 109.315
L417.975 50.6783
L418.379 -1
M419.958 -1
L420.421 63.0376
L420.94 -1
M422.573 -1
L422.867 26.5806
L422.885 -1
M426.5 -1
L426.536 179.384
L427.759 220.882
L428.982 226.916
L430.205 216.354
L431.429 170.344
L432.386 -1
M434.95 -1
L435.098 33.3956
L436.321 97.8399
L437.544 155.972
L438.767 100.421
L439.712 -1
M440.193 -1
L441.213 148.254
L442.436 110.986
L443.659 199.943
L444.882 267.393
L447.328 134.846
L447.611 -1
M450.963 -1
L450.997 108.462
L452.22 104.282
L453.443 110.547
L453.633 -1
M455.677 -1
L455.889 125.653
L457.112 140.944
L457.93 -1
M460.488 -1
L460.781 88.6685
L462.004 372.718
L463.227 233.603
L464.45 239.133
L465.673 193.207
L466.896 194.027
L468.119 173.254
L469.342 171.789
L470.565 110.474
L471.788 164.905
L473.011 171.032
L474.234 195.908
L475.457 184.4
L476.68 196.943
L477.903 164.786
L479.126 178.808
L480.349 150.759
L481.572 107.03
L482.795 150.533
L484.018 266.482
L485.241 207.563
L486.464 179.11
L487.687 170.271
L488.91 108.233
L490.133 171.157
L491.356 168.79
L492.579 154.087
L493.802 27.8241
L495.025 68.8922
L496.248 313.307
L496.248 313.307" style="fill:none;stroke:#bfbf00;stroke-linecap:square;"/>
   </g>
   <g id="line2d_14">
    <path clip-path="url(#p5fc3a60927)" d="
M53.4957 -1
L53.5173 94.5129
L53.7543 -1
M56.0799 -1
L57.1863 199.79
L57.9658 409.169
M58.8179 409.169
L59.6323 171.628
L60.8554 168.614
L62.0784 115.564
L63.3014 229.798
L64.5244 208.23
L65.7474 170.941
L68.1934 29.88
L69.4165 262.474
L70.6395 250.157
L71.8625 205.216
L73.0855 186.967
L74.3085 69.8294
L74.665 -1
M75.8059 -1
L76.4595 409.169
M77.4157 409.169
L77.9776 251.831
L79.2006 276.595
L80.4236 124.491
L81.6466 128.916
L82.8696 283.101
L84.0926 180.656
L85.1601 -1
M85.5545 -1
L86.5386 108.08
L87.7617 134.086
L88.8127 -1
M89.2802 -1
L90.2077 68.383
L91.4307 170.766
L92.6537 160.307
L93.8767 164.353
L95.0997 150.887
L95.2444 -1
M97.3767 -1
L97.5458 180.694
L98.7688 182.615
L99.9918 121.881
L101.215 168.39
L102.438 210.029
L103.661 108.626
L104.884 226.7
L106.107 363.677
L107.33 202.306
L108.553 127.133
L109.776 87.2682
L110.999 234.704
L112.222 236.715
L113.219 -1
M115.632 -1
L115.891 262.917
L116.433 -1
M119.069 -1
L119.56 331.975
L120.783 223.481
L122.006 186.297
L123.229 314.954
L124.452 367.545
L125.675 256.293
L126.898 61.2179
L128.121 67.2992
L129.119 -1
M131.346 -1
L131.79 292.306
L133.013 55.9541
L133.081 -1
M140.127 -1
L140.351 146.091
L140.642 -1
M143.448 -1
L144.02 79.8419
L145.243 222.748
L146.466 260.908
L147.465 -1
M151.195 -1
L151.358 91.1151
L151.39 -1
M155.011 -1
L155.027 133.791
L155.196 -1
M157.499 -1
L158.696 79.0579
L159.664 -1
M162.258 -1
L162.365 81.1204
L163.589 108.867
L163.64 -1
M166.886 -1
L167.258 103.382
L168.481 125.696
L168.567 -1
M175.759 -1
L175.819 31.2804
L175.819 31.2804
L175.819 31.2804
L175.852 -1
M180.492 -1
L180.711 57.8391
L181.781 -1
M182.133 -1
L183.157 42.2897
L184.38 86.8575
L185.084 -1
M202.826 -1
L203.948 20.3006
L204.029 -1
M228.215 -1
L228.408 15.0022
L228.576 -1
M241.849 -1
L241.861 4.77279
L243.084 0.834008
L243.085 -1
M373.897 -1
L373.947 17.0323
L374.012 -1
M392.077 -1
L392.292 21.0171
L393.515 61.4328
L394.738 27.9937
L394.879 -1
M397.051 -1
L397.184 26.3534
L397.718 -1
M406.9 -1
L406.968 11.6903
L408.191 65.8656
L408.427 -1
M410.304 -1
L410.637 104.028
L411.86 68.4724
L413.083 202.352
L414.306 192.081
L415.529 198.004
L416.752 144.274
L417.975 150.332
L419.198 97.0596
L420.353 -1
M425.073 -1
L425.313 24.6159
L426.536 86.8486
L427.759 69.8754
L428.982 60.2681
L429.577 -1
M430.945 -1
L431.429 41.3754
L432.652 116.393
L433.875 211.102
L435.098 249.701
L436.321 239.626
L437.544 317.112
L438.767 165.735
L439.99 179.378
L440.595 -1
M444.858 -1
L444.882 85.3579
L444.987 -1
M449.032 -1
L449.774 146.713
L450.54 -1
M451.515 -1
L452.22 118.891
L453.443 149.682
L454.666 163.474
L455.889 46.2528
L455.92 -1
M463.013 -1
L463.227 85.6219
L463.391 -1
M465.518 -1
L465.673 79.9626
L466.896 122.052
L468.119 180.351
L469.342 295.4
L470.565 235.758
L471.788 195.013
L473.011 92.8712
L474.234 199.335
L475.457 189.729
L476.68 206.078
L477.903 220.298
L479.126 207.129
L480.349 131.426
L481.572 254.522
L482.576 409.169
M482.8 409.169
L482.863 -1
M487.181 -1
L487.687 296.545
L488.91 289.936
L488.984 409.169
M491.322 409.169
L491.356 355.722
L491.605 409.169
M493.232 409.169
L493.802 226.758
L495.025 266.118
L496.248 284.74
L496.248 284.74" style="fill:none;stroke:#000000;stroke-linecap:square;"/>
   </g>
   <g id="line2d_15">
    <path clip-path="url(#p5fc3a60927)" d="
M51.0713 305.814
L52.2943 254.763
L53.5173 205.66
L54.7403 233.782
L55.9633 232.751
L57.1863 261.164
L58.4093 275.813
L59.2546 -1
M62.079 -1
L62.0793 409.169
M69.1221 409.169
L69.4165 313.925
L70.6395 287.298
L71.8625 210.119
L73.0855 200.134
L74.3085 242.311
L75.5315 198.14
L76.7545 53.4119
L76.7682 -1
M79.1692 -1
L79.2006 125.817
L79.2006 125.817
L79.2006 125.817
L79.275 -1
M81.6377 -1
L81.6466 13.3874
L82.8696 224.138
L84.0926 236.505
L85.3156 255.497
L86.491 409.169
M86.5601 409.169
L87.7617 61.2102
L88.1443 -1
M89.7424 -1
L90.2077 82.8942
L91.4307 109.102
L92.3165 -1
M97.0255 -1
L97.0335 409.169
M99.9911 409.169
L99.9916 -1
M100.564 -1
L101.215 223.809
L102.438 359.308
L102.841 -1
M107.585 -1
L107.658 409.169
M114.661 409.169
L114.668 361.307
L114.668 361.307
L114.668 361.307
L114.671 409.169
M120.214 409.169
L120.783 46.9063
L122.006 93.1318
L122.381 -1
M147.526 -1
L147.549 409.169
M150.585 409.169
L151.148 -1
M405.5 -1
L405.745 64.6228
L406.968 16.6098
L407.006 -1
M409.58 -1
L410.637 69.5885
L411.86 36.5837
L413.083 26.7628
L414.306 -0.595327
L415.529 20.075
L415.604 -1
M418.128 -1
L419.198 132.371
L420.421 168.336
L421.644 130.416
L422.867 31.2499
L422.941 -1
M424.948 -1
L425.313 213.819
L426.536 198.742
L427.759 202.028
L428.982 121.708
L429.254 -1
M431.157 -1
L431.429 121.509
L432.652 86.2454
L433.398 -1
M437.634 -1
L438.767 132.577
L439.99 161.944
L441.213 260.163
L442.436 161.193
L443.485 -1
M443.834 -1
L444.882 158.966
L446.105 133.167
L447.328 198.194
L448.551 193.726
L449.774 174.435
L450.997 141.342
L452.22 151.314
L453.289 -1
M453.616 -1
L454.666 131.26
L455.889 150.438
L457.112 150.451
L458.335 161.686
L459.558 142.257
L459.941 -1
M461.267 -1
L461.901 409.169
M462.361 409.169
L463.227 247.897
L464.45 247.854
L464.506 409.169
M468.554 409.169
L469.342 253.905
L470.565 260.297
L471.788 220.188
L473.011 201.702
L474.234 190.75
L475.457 174.345
L476.68 148.443
L477.903 141.562
L479.126 74.3509
L480.349 113.164
L480.803 409.169
M482.471 409.169
L482.795 228.754
L484.018 256.797
L485.241 188.985
L486.464 155.177
L487.687 160.147
L488.91 171.6
L490.133 162.172
L491.356 128.819
L492.579 115.498
L493.802 185.659
L495.025 166.402
L496.248 128.441
L496.248 128.441" style="fill:none;stroke:#0000ff;stroke-linecap:square;"/>
   </g>
   <g id="line2d_16">
    <path clip-path="url(#p5fc3a60927)" d="
M51.0713 148.925
L52.2943 175.218
L53.4601 -1
M53.5309 -1
L54.1781 409.169
M55.5676 409.169
L55.9633 238.714
L57.1863 180.555
L58.4093 181.458
L59.6323 197.221
L60.8554 174.739
L62.0784 157.999
L63.3014 32.9037
L64.5244 240.883
L65.7474 75.4543
L66.9704 131.541
L68.1934 128.328
L69.4165 132.8
L70.6395 137.961
L71.8625 168.054
L73.0855 155.046
L74.3085 151.025
L75.5315 154.024
L76.7545 131.286
L77.9776 175.525
M91.4307 232.895
L92.6537 251.429
L93.8767 234.715
L95.0997 265.038
L96.3228 259.029
L97.5458 201.37
L98.7688 152.389
L99.9918 149.507
L101.215 177.247
L102.438 157.542
L103.661 122.283
L104.884 81.2685
L105.457 -1
M106.669 -1
L107.33 108.936
L108.553 44.9685
L109.776 86.9722
L110.819 -1
M111.082 -1
L112.222 208.841
L113.445 151.27
L114.668 191.744
L115.891 116.061
L117.114 75.5982
L118.337 47.1336
L119.56 82.0785
L120.783 97.9997
L122.006 90.1066
L123.229 157.968
L124.452 157.746
L125.675 154.438
L126.898 72.7166
L127.497 -1
M129.736 -1
L130.567 86.0965
L130.781 -1
M132.952 -1
L133.013 20.7191
L134.236 80.1626
L135.459 86.5067
L136.682 110.675
L137.905 60.4186
L139.128 93.8468
L140.134 -1
M140.785 -1
L141.574 36.2718
L141.684 -1
M143.766 -1
L144.02 98.4184
L145.243 85.8364
L145.882 -1
M147.135 -1
L147.689 64.7747
L150.135 57.3703
L151.008 -1
M153.54 -1
L153.804 115.735
L155.027 208.754
L156.25 102.963
L157.473 117.196
L158.696 145.16
L159.57 -1
M160.25 -1
L161.142 156.666
L162.365 161.404
L163.589 66.0888
L164.812 65.616
L166.035 89.0681
L166.432 -1
M177.038 -1
L177.042 0.787104
L177.042 0.787104
L177.042 0.787104
L177.064 -1
M187.693 -1
L188.049 108.862
L189.272 84.98
L190.495 151.679
L191.718 29.2823
L192.941 104.982
L194.164 98.5017
L195.387 5.55511
L195.63 -1
M206.384 -1
L206.394 5.143
L207.617 44.1382
L208.84 68.0063
L209.286 -1
M254.019 -1
L254.092 0.271949
L255.315 34.059
L256.538 103.044
L257.123 -1
M266.281 -1
L266.322 3.78515
L267.545 45.557
L268.02 -1
M380.011 -1
L380.062 8.59387
L381.285 30.1551
L381.429 -1
M383.515 -1
L383.731 48.9957
L384.028 -1
M403.015 -1
L403.299 7.51454
L403.319 -1
M409.257 -1
L409.414 69.9786
L409.59 -1
M411.724 -1
L411.86 51.731
L412.23 -1
M415.486 -1
L415.529 35.7856
L416.752 136.39
L417.743 -1
M418.288 -1
L419.198 92.9469
L419.231 -1
M422.712 -1
L422.867 112.536
L424.09 204.559
L426.536 116.742
L427.759 47.0932
L427.812 -1
M430.153 -1
L430.205 46.5912
L431.429 107.719
L431.993 -1
M433.195 -1
L433.875 157.601
L435.098 205.32
L436.321 228.945
L437.544 239.484
L438.767 215.958
L439.99 269.575
L441.213 240.707
L443.659 202.559
L444.882 172.706
L446.105 162.957
L447.328 140.41
L448.551 146.577
L449.774 187.595
L450.997 165.489
L452.22 15.5389
L453.443 69.3171
L454.666 73.9835
L455.889 86.2534
L456.441 -1
M457.479 -1
L458.335 246.594
L459.558 196.042
L460.781 156.272
L461.721 -1
M462.337 -1
L463.227 125.013
L463.765 -1
M474.2 -1
L474.234 201.76
L475.457 184.422
L476.68 334.55
L477.903 321.013
L479.126 117.543
L480.349 179.294
L481.572 177.041
L482.795 194.391
L484.018 81.1285
L485.241 205.812
L487.687 147.339
L488.91 355.087
L490.133 306.005
L491.356 227.286
L492.579 266.517
L493.802 238.681
L495.025 237.412
L496.248 224.71
L496.248 224.71" style="fill:none;stroke:#008000;stroke-linecap:square;"/>
   </g>
   <g id="patch_3">
    <path d="
M51.0713 23.1417
L497.471 23.1417" style="fill:none;stroke:#000000;stroke-linecap:square;stroke-linejoin:miter;"/>
   </g>
   <g id="patch_4">
    <path d="
M497.471 368.742
L497.471 23.1417" style="fill:none;stroke:#000000;stroke-linecap:square;stroke-linejoin:miter;"/>
   </g>
   <g id="patch_5">
    <path d="
M51.0713 368.742
L497.471 368.742" style="fill:none;stroke:#000000;stroke-linecap:square;stroke-linejoin:miter;"/>
   </g>
   <g id="patch_6">
    <path d="
M51.0713 368.742
L51.0713 23.1417" style="fill:none;stroke:#000000;stroke-linecap:square;stroke-linejoin:miter;"/>
   </g>
   <g id="matplotlib.axis_1">
    <g id="xtick_1">
     <g id="line2d_17">
      <defs>
       <path d="
M0 0
L0 -4" id="m93b0483c22" style="stroke:#000000;stroke-width:0.5;"/>
      </defs>
      <g>
       <use style="stroke:#000000;stroke-width:0.5;" x="51.07125" xlink:href="#m93b0483c22" y="368.74175"/>
      </g>
     </g>
     <g id="line2d_18">
      <defs>
       <path d="
M0 0
L0 4" id="m741efc42ff" style="stroke:#000000;stroke-width:0.5;"/>
      </defs>
      <g>
       <use style="stroke:#000000;stroke-width:0.5;" x="51.07125" xlink:href="#m741efc42ff" y="23.14175"/>
      </g>
     </g>
     <g id="text_1">
      <!-- 0 -->
      <defs>
       <path d="
M31.7812 66.4062
Q24.1719 66.4062 20.3281 58.9062
Q16.5 51.4219 16.5 36.375
Q16.5 21.3906 20.3281 13.8906
Q24.1719 6.39062 31.7812 6.39062
Q39.4531 6.39062 43.2812 13.8906
Q47.125 21.3906 47.125 36.375
Q47.125 51.4219 43.2812 58.9062
Q39.4531 66.4062 31.7812 66.4062
M31.7812 74.2188
Q44.0469 74.2188 50.5156 64.5156
Q56.9844 54.8281 56.9844 36.375
Q56.9844 17.9688 50.5156 8.26562
Q44.0469 -1.42188 31.7812 -1.42188
Q19.5312 -1.42188 13.0625 8.26562
Q6.59375 17.9688 6.59375 36.375
Q6.59375 54.8281 13.0625 64.5156
Q19.5312 74.2188 31.7812 74.2188" id="BitstreamVeraSans-Roman-30"/>
      </defs>
      <g transform="translate(48.0478125 381.859875)scale(0.12 -0.12)">
       <use xlink:href="#BitstreamVeraSans-Roman-30"/>
      </g>
     </g>
    </g>
    <g id="xtick_2">
     <g id="line2d_19">
      <g>
       <use style="stroke:#000000;stroke-width:0.5;" x="112.221934932" xlink:href="#m93b0483c22" y="368.74175"/>
      </g>
     </g>
     <g id="line2d_20">
      <g>
       <use style="stroke:#000000;stroke-width:0.5;" x="112.221934932" xlink:href="#m741efc42ff" y="23.14175"/>
      </g>
     </g>
     <g id="text_2">
      <!-- 50 -->
      <defs>
       <path d="
M10.7969 72.9062
L49.5156 72.9062
L49.5156 64.5938
L19.8281 64.5938
L19.8281 46.7344
Q21.9688 47.4688 24.1094 47.8281
Q26.2656 48.1875 28.4219 48.1875
Q40.625 48.1875 47.75 41.5
Q54.8906 34.8125 54.8906 23.3906
Q54.8906 11.625 47.5625 5.09375
Q40.2344 -1.42188 26.9062 -1.42188
Q22.3125 -1.42188 17.5469 -0.640625
Q12.7969 0.140625 7.71875 1.70312
L7.71875 11.625
Q12.1094 9.23438 16.7969 8.0625
Q21.4844 6.89062 26.7031 6.89062
Q35.1562 6.89062 40.0781 11.3281
Q45.0156 15.7656 45.0156 23.3906
Q45.0156 31 40.0781 35.4375
Q35.1562 39.8906 26.7031 39.8906
Q22.75 39.8906 18.8125 39.0156
Q14.8906 38.1406 10.7969 36.2812
z
" id="BitstreamVeraSans-Roman-35"/>
      </defs>
      <g transform="translate(105.448497432 381.859875)scale(0.12 -0.12)">
       <use xlink:href="#BitstreamVeraSans-Roman-35"/>
       <use x="63.623046875" xlink:href="#BitstreamVeraSans-Roman-30"/>
      </g>
     </g>
    </g>
    <g id="xtick_3">
     <g id="line2d_21">
      <g>
       <use style="stroke:#000000;stroke-width:0.5;" x="173.372619863" xlink:href="#m93b0483c22" y="368.74175"/>
      </g>
     </g>
     <g id="line2d_22">
      <g>
       <use style="stroke:#000000;stroke-width:0.5;" x="173.372619863" xlink:href="#m741efc42ff" y="23.14175"/>
      </g>
     </g>
     <g id="text_3">
      <!-- 100 -->
      <defs>
       <path d="
M12.4062 8.29688
L28.5156 8.29688
L28.5156 63.9219
L10.9844 60.4062
L10.9844 69.3906
L28.4219 72.9062
L38.2812 72.9062
L38.2812 8.29688
L54.3906 8.29688
L54.3906 0
L12.4062 0
z
" id="BitstreamVeraSans-Roman-31"/>
      </defs>
      <g transform="translate(162.977619863 381.859875)scale(0.12 -0.12)">
       <use xlink:href="#BitstreamVeraSans-Roman-31"/>
       <use x="63.623046875" xlink:href="#BitstreamVeraSans-Roman-30"/>
       <use x="127.24609375" xlink:href="#BitstreamVeraSans-Roman-30"/>
      </g>
     </g>
    </g>
    <g id="xtick_4">
     <g id="line2d_23">
      <g>
       <use style="stroke:#000000;stroke-width:0.5;" x="234.523304795" xlink:href="#m93b0483c22" y="368.74175"/>
      </g>
     </g>
     <g id="line2d_24">
      <g>
       <use style="stroke:#000000;stroke-width:0.5;" x="234.523304795" xlink:href="#m741efc42ff" y="23.14175"/>
      </g>
     </g>
     <g id="text_4">
      <!-- 150 -->
      <g transform="translate(224.128304795 381.859875)scale(0.12 -0.12)">
       <use xlink:href="#BitstreamVeraSans-Roman-31"/>
       <use x="63.623046875" xlink:href="#BitstreamVeraSans-Roman-35"/>
       <use x="127.24609375" xlink:href="#BitstreamVeraSans-Roman-30"/>
      </g>
     </g>
    </g>
    <g id="xtick_5">
     <g id="line2d_25">
      <g>
       <use style="stroke:#000000;stroke-width:0.5;" x="295.673989726" xlink:href="#m93b0483c22" y="368.74175"/>
      </g>
     </g>
     <g id="line2d_26">
      <g>
       <use style="stroke:#000000;stroke-width:0.5;" x="295.673989726" xlink:href="#m741efc42ff" y="23.14175"/>
      </g>
     </g>
     <g id="text_5">
      <!-- 200 -->
      <defs>
       <path d="
M19.1875 8.29688
L53.6094 8.29688
L53.6094 0
L7.32812 0
L7.32812 8.29688
Q12.9375 14.1094 22.625 23.8906
Q32.3281 33.6875 34.8125 36.5312
Q39.5469 41.8438 41.4219 45.5312
Q43.3125 49.2188 43.3125 52.7812
Q43.3125 58.5938 39.2344 62.25
Q35.1562 65.9219 28.6094 65.9219
Q23.9688 65.9219 18.8125 64.3125
Q13.6719 62.7031 7.8125 59.4219
L7.8125 69.3906
Q13.7656 71.7812 18.9375 73
Q24.125 74.2188 28.4219 74.2188
Q39.75 74.2188 46.4844 68.5469
Q53.2188 62.8906 53.2188 53.4219
Q53.2188 48.9219 51.5312 44.8906
Q49.8594 40.875 45.4062 35.4062
Q44.1875 33.9844 37.6406 27.2188
Q31.1094 20.4531 19.1875 8.29688" id="BitstreamVeraSans-Roman-32"/>
      </defs>
      <g transform="translate(285.059614726 381.859875)scale(0.12 -0.12)">
       <use xlink:href="#BitstreamVeraSans-Roman-32"/>
       <use x="63.623046875" xlink:href="#BitstreamVeraSans-Roman-30"/>
       <use x="127.24609375" xlink:href="#BitstreamVeraSans-Roman-30"/>
      </g>
     </g>
    </g>
    <g id="xtick_6">
     <g id="line2d_27">
      <g>
       <use style="stroke:#000000;stroke-width:0.5;" x="356.824674658" xlink:href="#m93b0483c22" y="368.74175"/>
      </g>
     </g>
     <g id="line2d_28">
      <g>
       <use style="stroke:#000000;stroke-width:0.5;" x="356.824674658" xlink:href="#m741efc42ff" y="23.14175"/>
      </g>
     </g>
     <g id="text_6">
      <!-- 250 -->
      <g transform="translate(346.210299658 381.859875)scale(0.12 -0.12)">
       <use xlink:href="#BitstreamVeraSans-Roman-32"/>
       <use x="63.623046875" xlink:href="#BitstreamVeraSans-Roman-35"/>
       <use x="127.24609375" xlink:href="#BitstreamVeraSans-Roman-30"/>
      </g>
     </g>
    </g>
    <g id="xtick_7">
     <g id="line2d_29">
      <g>
       <use style="stroke:#000000;stroke-width:0.5;" x="417.975359589" xlink:href="#m93b0483c22" y="368.74175"/>
      </g>
     </g>
     <g id="line2d_30">
      <g>
       <use style="stroke:#000000;stroke-width:0.5;" x="417.975359589" xlink:href="#m741efc42ff" y="23.14175"/>
      </g>
     </g>
     <g id="text_7">
      <!-- 300 -->
      <defs>
       <path d="
M40.5781 39.3125
Q47.6562 37.7969 51.625 33
Q55.6094 28.2188 55.6094 21.1875
Q55.6094 10.4062 48.1875 4.48438
Q40.7656 -1.42188 27.0938 -1.42188
Q22.5156 -1.42188 17.6562 -0.515625
Q12.7969 0.390625 7.625 2.20312
L7.625 11.7188
Q11.7188 9.32812 16.5938 8.10938
Q21.4844 6.89062 26.8125 6.89062
Q36.0781 6.89062 40.9375 10.5469
Q45.7969 14.2031 45.7969 21.1875
Q45.7969 27.6406 41.2812 31.2656
Q36.7656 34.9062 28.7188 34.9062
L20.2188 34.9062
L20.2188 43.0156
L29.1094 43.0156
Q36.375 43.0156 40.2344 45.9219
Q44.0938 48.8281 44.0938 54.2969
Q44.0938 59.9062 40.1094 62.9062
Q36.1406 65.9219 28.7188 65.9219
Q24.6562 65.9219 20.0156 65.0312
Q15.375 64.1562 9.8125 62.3125
L9.8125 71.0938
Q15.4375 72.6562 20.3438 73.4375
Q25.25 74.2188 29.5938 74.2188
Q40.8281 74.2188 47.3594 69.1094
Q53.9062 64.0156 53.9062 55.3281
Q53.9062 49.2656 50.4375 45.0938
Q46.9688 40.9219 40.5781 39.3125" id="BitstreamVeraSans-Roman-33"/>
      </defs>
      <g transform="translate(407.378797089 381.859875)scale(0.12 -0.12)">
       <use xlink:href="#BitstreamVeraSans-Roman-33"/>
       <use x="63.623046875" xlink:href="#BitstreamVeraSans-Roman-30"/>
       <use x="127.24609375" xlink:href="#BitstreamVeraSans-Roman-30"/>
      </g>
     </g>
    </g>
    <g id="xtick_8">
     <g id="line2d_31">
      <g>
       <use style="stroke:#000000;stroke-width:0.5;" x="479.126044521" xlink:href="#m93b0483c22" y="368.74175"/>
      </g>
     </g>
     <g id="line2d_32">
      <g>
       <use style="stroke:#000000;stroke-width:0.5;" x="479.126044521" xlink:href="#m741efc42ff" y="23.14175"/>
      </g>
     </g>
     <g id="text_8">
      <!-- 350 -->
      <g transform="translate(468.529482021 381.859875)scale(0.12 -0.12)">
       <use xlink:href="#BitstreamVeraSans-Roman-33"/>
       <use x="63.623046875" xlink:href="#BitstreamVeraSans-Roman-35"/>
       <use x="127.24609375" xlink:href="#BitstreamVeraSans-Roman-30"/>
      </g>
     </g>
    </g>
    <g id="text_9">
     <!-- Julian day -->
     <defs>
      <path id="BitstreamVeraSans-Roman-20"/>
      <path d="
M9.8125 72.9062
L19.6719 72.9062
L19.6719 5.07812
Q19.6719 -8.10938 14.6719 -14.0625
Q9.67188 -20.0156 -1.42188 -20.0156
L-5.17188 -20.0156
L-5.17188 -11.7188
L-2.09375 -11.7188
Q4.4375 -11.7188 7.125 -8.04688
Q9.8125 -4.39062 9.8125 5.07812
z
" id="BitstreamVeraSans-Roman-4a"/>
      <path d="
M54.8906 33.0156
L54.8906 0
L45.9062 0
L45.9062 32.7188
Q45.9062 40.4844 42.875 44.3281
Q39.8438 48.1875 33.7969 48.1875
Q26.5156 48.1875 22.3125 43.5469
Q18.1094 38.9219 18.1094 30.9062
L18.1094 0
L9.07812 0
L9.07812 54.6875
L18.1094 54.6875
L18.1094 46.1875
Q21.3438 51.125 25.7031 53.5625
Q30.0781 56 35.7969 56
Q45.2188 56 50.0469 50.1719
Q54.8906 44.3438 54.8906 33.0156" id="BitstreamVeraSans-Roman-6e"/>
      <path d="
M9.42188 75.9844
L18.4062 75.9844
L18.4062 0
L9.42188 0
z
" id="BitstreamVeraSans-Roman-6c"/>
      <path d="
M9.42188 54.6875
L18.4062 54.6875
L18.4062 0
L9.42188 0
z

M9.42188 75.9844
L18.4062 75.9844
L18.4062 64.5938
L9.42188 64.5938
z
" id="BitstreamVeraSans-Roman-69"/>
      <path d="
M32.1719 -5.07812
Q28.375 -14.8438 24.75 -17.8125
Q21.1406 -20.7969 15.0938 -20.7969
L7.90625 -20.7969
L7.90625 -13.2812
L13.1875 -13.2812
Q16.8906 -13.2812 18.9375 -11.5156
Q21 -9.76562 23.4844 -3.21875
L25.0938 0.875
L2.98438 54.6875
L12.5 54.6875
L29.5938 11.9219
L46.6875 54.6875
L56.2031 54.6875
z
" id="BitstreamVeraSans-Roman-79"/>
      <path d="
M45.4062 46.3906
L45.4062 75.9844
L54.3906 75.9844
L54.3906 0
L45.4062 0
L45.4062 8.20312
Q42.5781 3.32812 38.25 0.953125
Q33.9375 -1.42188 27.875 -1.42188
Q17.9688 -1.42188 11.7344 6.48438
Q5.51562 14.4062 5.51562 27.2969
Q5.51562 40.1875 11.7344 48.0938
Q17.9688 56 27.875 56
Q33.9375 56 38.25 53.625
Q42.5781 51.2656 45.4062 46.3906
M14.7969 27.2969
Q14.7969 17.3906 18.875 11.75
Q22.9531 6.10938 30.0781 6.10938
Q37.2031 6.10938 41.2969 11.75
Q45.4062 17.3906 45.4062 27.2969
Q45.4062 37.2031 41.2969 42.8438
Q37.2031 48.4844 30.0781 48.4844
Q22.9531 48.4844 18.875 42.8438
Q14.7969 37.2031 14.7969 27.2969" id="BitstreamVeraSans-Roman-64"/>
      <path d="
M8.5 21.5781
L8.5 54.6875
L17.4844 54.6875
L17.4844 21.9219
Q17.4844 14.1562 20.5 10.2656
Q23.5312 6.39062 29.5938 6.39062
Q36.8594 6.39062 41.0781 11.0312
Q45.3125 15.6719 45.3125 23.6875
L45.3125 54.6875
L54.2969 54.6875
L54.2969 0
L45.3125 0
L45.3125 8.40625
Q42.0469 3.42188 37.7188 1
Q33.4062 -1.42188 27.6875 -1.42188
Q18.2656 -1.42188 13.375 4.4375
Q8.5 10.2969 8.5 21.5781" id="BitstreamVeraSans-Roman-75"/>
      <path d="
M34.2812 27.4844
Q23.3906 27.4844 19.1875 25
Q14.9844 22.5156 14.9844 16.5
Q14.9844 11.7188 18.1406 8.90625
Q21.2969 6.10938 26.7031 6.10938
Q34.1875 6.10938 38.7031 11.4062
Q43.2188 16.7031 43.2188 25.4844
L43.2188 27.4844
z

M52.2031 31.2031
L52.2031 0
L43.2188 0
L43.2188 8.29688
Q40.1406 3.32812 35.5469 0.953125
Q30.9531 -1.42188 24.3125 -1.42188
Q15.9219 -1.42188 10.9531 3.29688
Q6 8.01562 6 15.9219
Q6 25.1406 12.1719 29.8281
Q18.3594 34.5156 30.6094 34.5156
L43.2188 34.5156
L43.2188 35.4062
Q43.2188 41.6094 39.1406 45
Q35.0625 48.3906 27.6875 48.3906
Q23 48.3906 18.5469 47.2656
Q14.1094 46.1406 10.0156 43.8906
L10.0156 52.2031
Q14.9375 54.1094 19.5781 55.0469
Q24.2188 56 28.6094 56
Q40.4844 56 46.3438 49.8438
Q52.2031 43.7031 52.2031 31.2031" id="BitstreamVeraSans-Roman-61"/>
     </defs>
     <g transform="translate(244.8103125 398.473625)scale(0.12 -0.12)">
      <use xlink:href="#BitstreamVeraSans-Roman-4a"/>
      <use x="29.4921875" xlink:href="#BitstreamVeraSans-Roman-75"/>
      <use x="92.87109375" xlink:href="#BitstreamVeraSans-Roman-6c"/>
      <use x="120.654296875" xlink:href="#BitstreamVeraSans-Roman-69"/>
      <use x="148.4375" xlink:href="#BitstreamVeraSans-Roman-61"/>
      <use x="209.716796875" xlink:href="#BitstreamVeraSans-Roman-6e"/>
      <use x="273.095703125" xlink:href="#BitstreamVeraSans-Roman-20"/>
      <use x="304.8828125" xlink:href="#BitstreamVeraSans-Roman-64"/>
      <use x="368.359375" xlink:href="#BitstreamVeraSans-Roman-61"/>
      <use x="429.638671875" xlink:href="#BitstreamVeraSans-Roman-79"/>
     </g>
    </g>
   </g>
   <g id="matplotlib.axis_2">
    <g id="ytick_1">
     <g id="line2d_33">
      <defs>
       <path d="
M0 0
L4 0" id="m728421d6d4" style="stroke:#000000;stroke-width:0.5;"/>
      </defs>
      <g>
       <use style="stroke:#000000;stroke-width:0.5;" x="51.07125" xlink:href="#m728421d6d4" y="368.74175"/>
      </g>
     </g>
     <g id="line2d_34">
      <defs>
       <path d="
M0 0
L-4 0" id="mcb0005524f" style="stroke:#000000;stroke-width:0.5;"/>
      </defs>
      <g>
       <use style="stroke:#000000;stroke-width:0.5;" x="497.47125" xlink:href="#mcb0005524f" y="368.74175"/>
      </g>
     </g>
     <g id="text_10">
      <!-- −10 -->
      <defs>
       <path d="
M10.5938 35.5
L73.1875 35.5
L73.1875 27.2031
L10.5938 27.2031
z
" id="BitstreamVeraSans-Roman-2212"/>
      </defs>
      <g transform="translate(23.81375 372.053)scale(0.12 -0.12)">
       <use xlink:href="#BitstreamVeraSans-Roman-2212"/>
       <use x="83.7890625" xlink:href="#BitstreamVeraSans-Roman-31"/>
       <use x="147.412109375" xlink:href="#BitstreamVeraSans-Roman-30"/>
      </g>
     </g>
    </g>
    <g id="ytick_2">
     <g id="line2d_35">
      <g>
       <use style="stroke:#000000;stroke-width:0.5;" x="51.07125" xlink:href="#m728421d6d4" y="282.34175"/>
      </g>
     </g>
     <g id="line2d_36">
      <g>
       <use style="stroke:#000000;stroke-width:0.5;" x="497.47125" xlink:href="#mcb0005524f" y="282.34175"/>
      </g>
     </g>
     <g id="text_11">
      <!-- −5 -->
      <g transform="translate(31.7 285.653)scale(0.12 -0.12)">
       <use xlink:href="#BitstreamVeraSans-Roman-2212"/>
       <use x="83.7890625" xlink:href="#BitstreamVeraSans-Roman-35"/>
      </g>
     </g>
    </g>
    <g id="ytick_3">
     <g id="line2d_37">
      <g>
       <use style="stroke:#000000;stroke-width:0.5;" x="51.07125" xlink:href="#m728421d6d4" y="195.94175"/>
      </g>
     </g>
     <g id="line2d_38">
      <g>
       <use style="stroke:#000000;stroke-width:0.5;" x="497.47125" xlink:href="#mcb0005524f" y="195.94175"/>
      </g>
     </g>
     <g id="text_12">
      <!-- 0 -->
      <g transform="translate(41.024375 199.253)scale(0.12 -0.12)">
       <use xlink:href="#BitstreamVeraSans-Roman-30"/>
      </g>
     </g>
    </g>
    <g id="ytick_4">
     <g id="line2d_39">
      <g>
       <use style="stroke:#000000;stroke-width:0.5;" x="51.07125" xlink:href="#m728421d6d4" y="109.54175"/>
      </g>
     </g>
     <g id="line2d_40">
      <g>
       <use style="stroke:#000000;stroke-width:0.5;" x="497.47125" xlink:href="#mcb0005524f" y="109.54175"/>
      </g>
     </g>
     <g id="text_13">
      <!-- 5 -->
      <g transform="translate(41.410625 112.853)scale(0.12 -0.12)">
       <use xlink:href="#BitstreamVeraSans-Roman-35"/>
      </g>
     </g>
    </g>
    <g id="ytick_5">
     <g id="line2d_41">
      <g>
       <use style="stroke:#000000;stroke-width:0.5;" x="51.07125" xlink:href="#m728421d6d4" y="23.14175"/>
      </g>
     </g>
     <g id="line2d_42">
      <g>
       <use style="stroke:#000000;stroke-width:0.5;" x="497.47125" xlink:href="#mcb0005524f" y="23.14175"/>
      </g>
     </g>
     <g id="text_14">
      <!-- 10 -->
      <g transform="translate(33.91625 26.453)scale(0.12 -0.12)">
       <use xlink:href="#BitstreamVeraSans-Roman-31"/>
       <use x="63.623046875" xlink:href="#BitstreamVeraSans-Roman-30"/>
      </g>
     </g>
    </g>
    <g id="text_15">
     <!-- PET (mm/day) -->
     <defs>
      <path d="
M52 44.1875
Q55.375 50.25 60.0625 53.125
Q64.75 56 71.0938 56
Q79.6406 56 84.2812 50.0156
Q88.9219 44.0469 88.9219 33.0156
L88.9219 0
L79.8906 0
L79.8906 32.7188
Q79.8906 40.5781 77.0938 44.375
Q74.3125 48.1875 68.6094 48.1875
Q61.625 48.1875 57.5625 43.5469
Q53.5156 38.9219 53.5156 30.9062
L53.5156 0
L44.4844 0
L44.4844 32.7188
Q44.4844 40.625 41.7031 44.4062
Q38.9219 48.1875 33.1094 48.1875
Q26.2188 48.1875 22.1562 43.5312
Q18.1094 38.875 18.1094 30.9062
L18.1094 0
L9.07812 0
L9.07812 54.6875
L18.1094 54.6875
L18.1094 46.1875
Q21.1875 51.2188 25.4844 53.6094
Q29.7812 56 35.6875 56
Q41.6562 56 45.8281 52.9688
Q50 49.9531 52 44.1875" id="BitstreamVeraSans-Roman-6d"/>
      <path d="
M8.01562 75.875
L15.8281 75.875
Q23.1406 64.3594 26.7812 53.3125
Q30.4219 42.2812 30.4219 31.3906
Q30.4219 20.4531 26.7812 9.375
Q23.1406 -1.70312 15.8281 -13.1875
L8.01562 -13.1875
Q14.5 -2 17.7031 9.0625
Q20.9062 20.125 20.9062 31.3906
Q20.9062 42.6719 17.7031 53.6562
Q14.5 64.6562 8.01562 75.875" id="BitstreamVeraSans-Roman-29"/>
      <path d="
M31 75.875
Q24.4688 64.6562 21.2812 53.6562
Q18.1094 42.6719 18.1094 31.3906
Q18.1094 20.125 21.3125 9.0625
Q24.5156 -2 31 -13.1875
L23.1875 -13.1875
Q15.875 -1.70312 12.2344 9.375
Q8.59375 20.4531 8.59375 31.3906
Q8.59375 42.2812 12.2031 53.3125
Q15.8281 64.3594 23.1875 75.875
z
" id="BitstreamVeraSans-Roman-28"/>
      <path d="
M19.6719 64.7969
L19.6719 37.4062
L32.0781 37.4062
Q38.9688 37.4062 42.7188 40.9688
Q46.4844 44.5312 46.4844 51.125
Q46.4844 57.6719 42.7188 61.2344
Q38.9688 64.7969 32.0781 64.7969
z

M9.8125 72.9062
L32.0781 72.9062
Q44.3438 72.9062 50.6094 67.3594
Q56.8906 61.8125 56.8906 51.125
Q56.8906 40.3281 50.6094 34.8125
Q44.3438 29.2969 32.0781 29.2969
L19.6719 29.2969
L19.6719 0
L9.8125 0
z
" id="BitstreamVeraSans-Roman-50"/>
      <path d="
M9.8125 72.9062
L55.9062 72.9062
L55.9062 64.5938
L19.6719 64.5938
L19.6719 43.0156
L54.3906 43.0156
L54.3906 34.7188
L19.6719 34.7188
L19.6719 8.29688
L56.7812 8.29688
L56.7812 0
L9.8125 0
z
" id="BitstreamVeraSans-Roman-45"/>
      <path d="
M-0.296875 72.9062
L61.375 72.9062
L61.375 64.5938
L35.5 64.5938
L35.5 0
L25.5938 0
L25.5938 64.5938
L-0.296875 64.5938
z
" id="BitstreamVeraSans-Roman-54"/>
      <path d="
M25.3906 72.9062
L33.6875 72.9062
L8.29688 -9.28125
L0 -9.28125
z
" id="BitstreamVeraSans-Roman-2f"/>
     </defs>
     <g transform="translate(16.318125 237.8358125)rotate(-90.0)scale(0.12 -0.12)">
      <use xlink:href="#BitstreamVeraSans-Roman-50"/>
      <use x="60.302734375" xlink:href="#BitstreamVeraSans-Roman-45"/>
      <use x="123.486328125" xlink:href="#BitstreamVeraSans-Roman-54"/>
      <use x="184.5703125" xlink:href="#BitstreamVeraSans-Roman-20"/>
      <use x="216.357421875" xlink:href="#BitstreamVeraSans-Roman-28"/>
      <use x="255.37109375" xlink:href="#BitstreamVeraSans-Roman-6d"/>
      <use x="352.783203125" xlink:href="#BitstreamVeraSans-Roman-6d"/>
      <use x="450.1953125" xlink:href="#BitstreamVeraSans-Roman-2f"/>
      <use x="483.88671875" xlink:href="#BitstreamVeraSans-Roman-64"/>
      <use x="547.36328125" xlink:href="#BitstreamVeraSans-Roman-61"/>
      <use x="608.642578125" xlink:href="#BitstreamVeraSans-Roman-79"/>
      <use x="667.822265625" xlink:href="#BitstreamVeraSans-Roman-29"/>
     </g>
    </g>
   </g>
   <g id="text_16">
    <!-- daily shrub PET at Treeline -->
    <defs>
     <path d="
M54.8906 33.0156
L54.8906 0
L45.9062 0
L45.9062 32.7188
Q45.9062 40.4844 42.875 44.3281
Q39.8438 48.1875 33.7969 48.1875
Q26.5156 48.1875 22.3125 43.5469
Q18.1094 38.9219 18.1094 30.9062
L18.1094 0
L9.07812 0
L9.07812 75.9844
L18.1094 75.9844
L18.1094 46.1875
Q21.3438 51.125 25.7031 53.5625
Q30.0781 56 35.7969 56
Q45.2188 56 50.0469 50.1719
Q54.8906 44.3438 54.8906 33.0156" id="BitstreamVeraSans-Roman-68"/>
     <path d="
M56.2031 29.5938
L56.2031 25.2031
L14.8906 25.2031
Q15.4844 15.9219 20.4844 11.0625
Q25.4844 6.20312 34.4219 6.20312
Q39.5938 6.20312 44.4531 7.46875
Q49.3125 8.73438 54.1094 11.2812
L54.1094 2.78125
Q49.2656 0.734375 44.1875 -0.34375
Q39.1094 -1.42188 33.8906 -1.42188
Q20.7969 -1.42188 13.1562 6.1875
Q5.51562 13.8125 5.51562 26.8125
Q5.51562 40.2344 12.7656 48.1094
Q20.0156 56 32.3281 56
Q43.3594 56 49.7812 48.8906
Q56.2031 41.7969 56.2031 29.5938
M47.2188 32.2344
Q47.125 39.5938 43.0938 43.9844
Q39.0625 48.3906 32.4219 48.3906
Q24.9062 48.3906 20.3906 44.1406
Q15.875 39.8906 15.1875 32.1719
z
" id="BitstreamVeraSans-Roman-65"/>
     <path d="
M18.3125 70.2188
L18.3125 54.6875
L36.8125 54.6875
L36.8125 47.7031
L18.3125 47.7031
L18.3125 18.0156
Q18.3125 11.3281 20.1406 9.42188
Q21.9688 7.51562 27.5938 7.51562
L36.8125 7.51562
L36.8125 0
L27.5938 0
Q17.1875 0 13.2344 3.875
Q9.28125 7.76562 9.28125 18.0156
L9.28125 47.7031
L2.6875 47.7031
L2.6875 54.6875
L9.28125 54.6875
L9.28125 70.2188
z
" id="BitstreamVeraSans-Roman-74"/>
     <path d="
M41.1094 46.2969
Q39.5938 47.1719 37.8125 47.5781
Q36.0312 48 33.8906 48
Q26.2656 48 22.1875 43.0469
Q18.1094 38.0938 18.1094 28.8125
L18.1094 0
L9.07812 0
L9.07812 54.6875
L18.1094 54.6875
L18.1094 46.1875
Q20.9531 51.1719 25.4844 53.5781
Q30.0312 56 36.5312 56
Q37.4531 56 38.5781 55.875
Q39.7031 55.7656 41.0625 55.5156
z
" id="BitstreamVeraSans-Roman-72"/>
     <path d="
M44.2812 53.0781
L44.2812 44.5781
Q40.4844 46.5312 36.375 47.5
Q32.2812 48.4844 27.875 48.4844
Q21.1875 48.4844 17.8438 46.4375
Q14.5 44.3906 14.5 40.2812
Q14.5 37.1562 16.8906 35.375
Q19.2812 33.5938 26.5156 31.9844
L29.5938 31.2969
Q39.1562 29.25 43.1875 25.5156
Q47.2188 21.7812 47.2188 15.0938
Q47.2188 7.46875 41.1875 3.01562
Q35.1562 -1.42188 24.6094 -1.42188
Q20.2188 -1.42188 15.4531 -0.5625
Q10.6875 0.296875 5.42188 2
L5.42188 11.2812
Q10.4062 8.6875 15.2344 7.39062
Q20.0625 6.10938 24.8125 6.10938
Q31.1562 6.10938 34.5625 8.28125
Q37.9844 10.4531 37.9844 14.4062
Q37.9844 18.0625 35.5156 20.0156
Q33.0625 21.9688 24.7031 23.7812
L21.5781 24.5156
Q13.2344 26.2656 9.51562 29.9062
Q5.8125 33.5469 5.8125 39.8906
Q5.8125 47.6094 11.2812 51.7969
Q16.75 56 26.8125 56
Q31.7812 56 36.1719 55.2656
Q40.5781 54.5469 44.2812 53.0781" id="BitstreamVeraSans-Roman-73"/>
     <path d="
M48.6875 27.2969
Q48.6875 37.2031 44.6094 42.8438
Q40.5312 48.4844 33.4062 48.4844
Q26.2656 48.4844 22.1875 42.8438
Q18.1094 37.2031 18.1094 27.2969
Q18.1094 17.3906 22.1875 11.75
Q26.2656 6.10938 33.4062 6.10938
Q40.5312 6.10938 44.6094 11.75
Q48.6875 17.3906 48.6875 27.2969
M18.1094 46.3906
Q20.9531 51.2656 25.2656 53.625
Q29.5938 56 35.5938 56
Q45.5625 56 51.7812 48.0938
Q58.0156 40.1875 58.0156 27.2969
Q58.0156 14.4062 51.7812 6.48438
Q45.5625 -1.42188 35.5938 -1.42188
Q29.5938 -1.42188 25.2656 0.953125
Q20.9531 3.32812 18.1094 8.20312
L18.1094 0
L9.07812 0
L9.07812 75.9844
L18.1094 75.9844
z
" id="BitstreamVeraSans-Roman-62"/>
    </defs>
    <g transform="translate(179.338125 18.14175)scale(0.144 -0.144)">
     <use xlink:href="#BitstreamVeraSans-Roman-64"/>
     <use x="63.4765625" xlink:href="#BitstreamVeraSans-Roman-61"/>
     <use x="124.755859375" xlink:href="#BitstreamVeraSans-Roman-69"/>
     <use x="152.5390625" xlink:href="#BitstreamVeraSans-Roman-6c"/>
     <use x="180.322265625" xlink:href="#BitstreamVeraSans-Roman-79"/>
     <use x="239.501953125" xlink:href="#BitstreamVeraSans-Roman-20"/>
     <use x="271.2890625" xlink:href="#BitstreamVeraSans-Roman-73"/>
     <use x="323.388671875" xlink:href="#BitstreamVeraSans-Roman-68"/>
     <use x="386.767578125" xlink:href="#BitstreamVeraSans-Roman-72"/>
     <use x="427.880859375" xlink:href="#BitstreamVeraSans-Roman-75"/>
     <use x="491.259765625" xlink:href="#BitstreamVeraSans-Roman-62"/>
     <use x="554.736328125" xlink:href="#BitstreamVeraSans-Roman-20"/>
     <use x="586.5234375" xlink:href="#BitstreamVeraSans-Roman-50"/>
     <use x="646.826171875" xlink:href="#BitstreamVeraSans-Roman-45"/>
     <use x="710.009765625" xlink:href="#BitstreamVeraSans-Roman-54"/>
     <use x="771.09375" xlink:href="#BitstreamVeraSans-Roman-20"/>
     <use x="802.880859375" xlink:href="#BitstreamVeraSans-Roman-61"/>
     <use x="864.16015625" xlink:href="#BitstreamVeraSans-Roman-74"/>
     <use x="903.369140625" xlink:href="#BitstreamVeraSans-Roman-20"/>
     <use x="935.15625" xlink:href="#BitstreamVeraSans-Roman-54"/>
     <use x="981.490234375" xlink:href="#BitstreamVeraSans-Roman-72"/>
     <use x="1020.35351562" xlink:href="#BitstreamVeraSans-Roman-65"/>
     <use x="1081.87695312" xlink:href="#BitstreamVeraSans-Roman-65"/>
     <use x="1143.40039062" xlink:href="#BitstreamVeraSans-Roman-6c"/>
     <use x="1171.18359375" xlink:href="#BitstreamVeraSans-Roman-69"/>
     <use x="1198.96679688" xlink:href="#BitstreamVeraSans-Roman-6e"/>
     <use x="1262.34570312" xlink:href="#BitstreamVeraSans-Roman-65"/>
    </g>
   </g>
   <g id="legend_1">
    <g id="patch_7">
     <path d="
M403.646 372.846
L490.271 372.846
L490.271 30.3417
L403.646 30.3417
z
" style="fill:#ffffff;stroke:#000000;stroke-linejoin:miter;"/>
    </g>
    <g id="line2d_43">
     <path d="
M413.726 42.0035
L433.886 42.0035" style="fill:none;stroke:#0000ff;stroke-linecap:square;"/>
    </g>
    <g id="line2d_44"/>
    <g id="text_17">
     <!-- 1999 -->
     <defs>
      <path d="
M10.9844 1.51562
L10.9844 10.5
Q14.7031 8.73438 18.5 7.8125
Q22.3125 6.89062 25.9844 6.89062
Q35.75 6.89062 40.8906 13.4531
Q46.0469 20.0156 46.7812 33.4062
Q43.9531 29.2031 39.5938 26.9531
Q35.25 24.7031 29.9844 24.7031
Q19.0469 24.7031 12.6719 31.3125
Q6.29688 37.9375 6.29688 49.4219
Q6.29688 60.6406 12.9375 67.4219
Q19.5781 74.2188 30.6094 74.2188
Q43.2656 74.2188 49.9219 64.5156
Q56.5938 54.8281 56.5938 36.375
Q56.5938 19.1406 48.4062 8.85938
Q40.2344 -1.42188 26.4219 -1.42188
Q22.7031 -1.42188 18.8906 -0.6875
Q15.0938 0.046875 10.9844 1.51562
M30.6094 32.4219
Q37.25 32.4219 41.125 36.9531
Q45.0156 41.5 45.0156 49.4219
Q45.0156 57.2812 41.125 61.8438
Q37.25 66.4062 30.6094 66.4062
Q23.9688 66.4062 20.0938 61.8438
Q16.2188 57.2812 16.2188 49.4219
Q16.2188 41.5 20.0938 36.9531
Q23.9688 32.4219 30.6094 32.4219" id="BitstreamVeraSans-Roman-39"/>
     </defs>
     <g transform="translate(449.72625 47.0435)scale(0.144 -0.144)">
      <use xlink:href="#BitstreamVeraSans-Roman-31"/>
      <use x="63.623046875" xlink:href="#BitstreamVeraSans-Roman-39"/>
      <use x="127.24609375" xlink:href="#BitstreamVeraSans-Roman-39"/>
      <use x="190.869140625" xlink:href="#BitstreamVeraSans-Roman-39"/>
     </g>
    </g>
    <g id="line2d_45">
     <path d="
M413.726 63.14
L433.886 63.14" style="fill:none;stroke:#008000;stroke-linecap:square;"/>
    </g>
    <g id="line2d_46"/>
    <g id="text_18">
     <!-- 2000 -->
     <g transform="translate(449.72625 68.18)scale(0.144 -0.144)">
      <use xlink:href="#BitstreamVeraSans-Roman-32"/>
      <use x="63.623046875" xlink:href="#BitstreamVeraSans-Roman-30"/>
      <use x="127.24609375" xlink:href="#BitstreamVeraSans-Roman-30"/>
      <use x="190.869140625" xlink:href="#BitstreamVeraSans-Roman-30"/>
     </g>
    </g>
    <g id="line2d_47">
     <path d="
M413.726 84.2765
L433.886 84.2765" style="fill:none;stroke:#ff0000;stroke-linecap:square;"/>
    </g>
    <g id="line2d_48"/>
    <g id="text_19">
     <!-- 2001 -->
     <g transform="translate(449.72625 89.3165)scale(0.144 -0.144)">
      <use xlink:href="#BitstreamVeraSans-Roman-32"/>
      <use x="63.623046875" xlink:href="#BitstreamVeraSans-Roman-30"/>
      <use x="127.24609375" xlink:href="#BitstreamVeraSans-Roman-30"/>
      <use x="190.869140625" xlink:href="#BitstreamVeraSans-Roman-31"/>
     </g>
    </g>
    <g id="line2d_49">
     <path d="
M413.726 105.413
L433.886 105.413" style="fill:none;stroke:#00bfbf;stroke-linecap:square;"/>
    </g>
    <g id="line2d_50"/>
    <g id="text_20">
     <!-- 2002 -->
     <g transform="translate(449.72625 110.453)scale(0.144 -0.144)">
      <use xlink:href="#BitstreamVeraSans-Roman-32"/>
      <use x="63.623046875" xlink:href="#BitstreamVeraSans-Roman-30"/>
      <use x="127.24609375" xlink:href="#BitstreamVeraSans-Roman-30"/>
      <use x="190.869140625" xlink:href="#BitstreamVeraSans-Roman-32"/>
     </g>
    </g>
    <g id="line2d_51">
     <path d="
M413.726 126.549
L433.886 126.549" style="fill:none;stroke:#bf00bf;stroke-linecap:square;"/>
    </g>
    <g id="line2d_52"/>
    <g id="text_21">
     <!-- 2003 -->
     <g transform="translate(449.72625 131.5895)scale(0.144 -0.144)">
      <use xlink:href="#BitstreamVeraSans-Roman-32"/>
      <use x="63.623046875" xlink:href="#BitstreamVeraSans-Roman-30"/>
      <use x="127.24609375" xlink:href="#BitstreamVeraSans-Roman-30"/>
      <use x="190.869140625" xlink:href="#BitstreamVeraSans-Roman-33"/>
     </g>
    </g>
    <g id="line2d_53">
     <path d="
M413.726 147.686
L433.886 147.686" style="fill:none;stroke:#bfbf00;stroke-linecap:square;"/>
    </g>
    <g id="line2d_54"/>
    <g id="text_22">
     <!-- 2004 -->
     <defs>
      <path d="
M37.7969 64.3125
L12.8906 25.3906
L37.7969 25.3906
z

M35.2031 72.9062
L47.6094 72.9062
L47.6094 25.3906
L58.0156 25.3906
L58.0156 17.1875
L47.6094 17.1875
L47.6094 0
L37.7969 0
L37.7969 17.1875
L4.89062 17.1875
L4.89062 26.7031
z
" id="BitstreamVeraSans-Roman-34"/>
     </defs>
     <g transform="translate(449.72625 152.726)scale(0.144 -0.144)">
      <use xlink:href="#BitstreamVeraSans-Roman-32"/>
      <use x="63.623046875" xlink:href="#BitstreamVeraSans-Roman-30"/>
      <use x="127.24609375" xlink:href="#BitstreamVeraSans-Roman-30"/>
      <use x="190.869140625" xlink:href="#BitstreamVeraSans-Roman-34"/>
     </g>
    </g>
    <g id="line2d_55">
     <path d="
M413.726 168.822
L433.886 168.822" style="fill:none;stroke:#000000;stroke-linecap:square;"/>
    </g>
    <g id="line2d_56"/>
    <g id="text_23">
     <!-- 2005 -->
     <g transform="translate(449.72625 173.8625)scale(0.144 -0.144)">
      <use xlink:href="#BitstreamVeraSans-Roman-32"/>
      <use x="63.623046875" xlink:href="#BitstreamVeraSans-Roman-30"/>
      <use x="127.24609375" xlink:href="#BitstreamVeraSans-Roman-30"/>
      <use x="190.869140625" xlink:href="#BitstreamVeraSans-Roman-35"/>
     </g>
    </g>
    <g id="line2d_57">
     <path d="
M413.726 189.959
L433.886 189.959" style="fill:none;stroke:#0000ff;stroke-linecap:square;"/>
    </g>
    <g id="line2d_58"/>
    <g id="text_24">
     <!-- 2006 -->
     <defs>
      <path d="
M33.0156 40.375
Q26.375 40.375 22.4844 35.8281
Q18.6094 31.2969 18.6094 23.3906
Q18.6094 15.5312 22.4844 10.9531
Q26.375 6.39062 33.0156 6.39062
Q39.6562 6.39062 43.5312 10.9531
Q47.4062 15.5312 47.4062 23.3906
Q47.4062 31.2969 43.5312 35.8281
Q39.6562 40.375 33.0156 40.375
M52.5938 71.2969
L52.5938 62.3125
Q48.875 64.0625 45.0938 64.9844
Q41.3125 65.9219 37.5938 65.9219
Q27.8281 65.9219 22.6719 59.3281
Q17.5312 52.7344 16.7969 39.4062
Q19.6719 43.6562 24.0156 45.9219
Q28.375 48.1875 33.5938 48.1875
Q44.5781 48.1875 50.9531 41.5156
Q57.3281 34.8594 57.3281 23.3906
Q57.3281 12.1562 50.6875 5.35938
Q44.0469 -1.42188 33.0156 -1.42188
Q20.3594 -1.42188 13.6719 8.26562
Q6.98438 17.9688 6.98438 36.375
Q6.98438 53.6562 15.1875 63.9375
Q23.3906 74.2188 37.2031 74.2188
Q40.9219 74.2188 44.7031 73.4844
Q48.4844 72.75 52.5938 71.2969" id="BitstreamVeraSans-Roman-36"/>
     </defs>
     <g transform="translate(449.72625 194.999)scale(0.144 -0.144)">
      <use xlink:href="#BitstreamVeraSans-Roman-32"/>
      <use x="63.623046875" xlink:href="#BitstreamVeraSans-Roman-30"/>
      <use x="127.24609375" xlink:href="#BitstreamVeraSans-Roman-30"/>
      <use x="190.869140625" xlink:href="#BitstreamVeraSans-Roman-36"/>
     </g>
    </g>
    <g id="line2d_59">
     <path d="
M413.726 211.095
L433.886 211.095" style="fill:none;stroke:#008000;stroke-linecap:square;"/>
    </g>
    <g id="line2d_60"/>
    <g id="text_25">
     <!-- 2007 -->
     <defs>
      <path d="
M8.20312 72.9062
L55.0781 72.9062
L55.0781 68.7031
L28.6094 0
L18.3125 0
L43.2188 64.5938
L8.20312 64.5938
z
" id="BitstreamVeraSans-Roman-37"/>
     </defs>
     <g transform="translate(449.72625 216.1355)scale(0.144 -0.144)">
      <use xlink:href="#BitstreamVeraSans-Roman-32"/>
      <use x="63.623046875" xlink:href="#BitstreamVeraSans-Roman-30"/>
      <use x="127.24609375" xlink:href="#BitstreamVeraSans-Roman-30"/>
      <use x="190.869140625" xlink:href="#BitstreamVeraSans-Roman-37"/>
     </g>
    </g>
    <g id="line2d_61">
     <path d="
M413.726 232.232
L433.886 232.232" style="fill:none;stroke:#ff0000;stroke-linecap:square;"/>
    </g>
    <g id="line2d_62"/>
    <g id="text_26">
     <!-- 2008 -->
     <defs>
      <path d="
M31.7812 34.625
Q24.75 34.625 20.7188 30.8594
Q16.7031 27.0938 16.7031 20.5156
Q16.7031 13.9219 20.7188 10.1562
Q24.75 6.39062 31.7812 6.39062
Q38.8125 6.39062 42.8594 10.1719
Q46.9219 13.9688 46.9219 20.5156
Q46.9219 27.0938 42.8906 30.8594
Q38.875 34.625 31.7812 34.625
M21.9219 38.8125
Q15.5781 40.375 12.0312 44.7188
Q8.5 49.0781 8.5 55.3281
Q8.5 64.0625 14.7188 69.1406
Q20.9531 74.2188 31.7812 74.2188
Q42.6719 74.2188 48.875 69.1406
Q55.0781 64.0625 55.0781 55.3281
Q55.0781 49.0781 51.5312 44.7188
Q48 40.375 41.7031 38.8125
Q48.8281 37.1562 52.7969 32.3125
Q56.7812 27.4844 56.7812 20.5156
Q56.7812 9.90625 50.3125 4.23438
Q43.8438 -1.42188 31.7812 -1.42188
Q19.7344 -1.42188 13.25 4.23438
Q6.78125 9.90625 6.78125 20.5156
Q6.78125 27.4844 10.7812 32.3125
Q14.7969 37.1562 21.9219 38.8125
M18.3125 54.3906
Q18.3125 48.7344 21.8438 45.5625
Q25.3906 42.3906 31.7812 42.3906
Q38.1406 42.3906 41.7188 45.5625
Q45.3125 48.7344 45.3125 54.3906
Q45.3125 60.0625 41.7188 63.2344
Q38.1406 66.4062 31.7812 66.4062
Q25.3906 66.4062 21.8438 63.2344
Q18.3125 60.0625 18.3125 54.3906" id="BitstreamVeraSans-Roman-38"/>
     </defs>
     <g transform="translate(449.72625 237.272)scale(0.144 -0.144)">
      <use xlink:href="#BitstreamVeraSans-Roman-32"/>
      <use x="63.623046875" xlink:href="#BitstreamVeraSans-Roman-30"/>
      <use x="127.24609375" xlink:href="#BitstreamVeraSans-Roman-30"/>
      <use x="190.869140625" xlink:href="#BitstreamVeraSans-Roman-38"/>
     </g>
    </g>
    <g id="line2d_63">
     <path d="
M413.726 253.368
L433.886 253.368" style="fill:none;stroke:#00bfbf;stroke-linecap:square;"/>
    </g>
    <g id="line2d_64"/>
    <g id="text_27">
     <!-- 2009 -->
     <g transform="translate(449.72625 258.4085)scale(0.144 -0.144)">
      <use xlink:href="#BitstreamVeraSans-Roman-32"/>
      <use x="63.623046875" xlink:href="#BitstreamVeraSans-Roman-30"/>
      <use x="127.24609375" xlink:href="#BitstreamVeraSans-Roman-30"/>
      <use x="190.869140625" xlink:href="#BitstreamVeraSans-Roman-39"/>
     </g>
    </g>
    <g id="line2d_65">
     <path d="
M413.726 274.505
L433.886 274.505" style="fill:none;stroke:#bf00bf;stroke-linecap:square;"/>
    </g>
    <g id="line2d_66"/>
    <g id="text_28">
     <!-- 2010 -->
     <g transform="translate(449.72625 279.545)scale(0.144 -0.144)">
      <use xlink:href="#BitstreamVeraSans-Roman-32"/>
      <use x="63.623046875" xlink:href="#BitstreamVeraSans-Roman-30"/>
      <use x="127.24609375" xlink:href="#BitstreamVeraSans-Roman-31"/>
      <use x="190.869140625" xlink:href="#BitstreamVeraSans-Roman-30"/>
     </g>
    </g>
    <g id="line2d_67">
     <path d="
M413.726 295.641
L433.886 295.641" style="fill:none;stroke:#bfbf00;stroke-linecap:square;"/>
    </g>
    <g id="line2d_68"/>
    <g id="text_29">
     <!-- 2011 -->
     <g transform="translate(449.72625 300.6815)scale(0.144 -0.144)">
      <use xlink:href="#BitstreamVeraSans-Roman-32"/>
      <use x="63.623046875" xlink:href="#BitstreamVeraSans-Roman-30"/>
      <use x="127.24609375" xlink:href="#BitstreamVeraSans-Roman-31"/>
      <use x="190.869140625" xlink:href="#BitstreamVeraSans-Roman-31"/>
     </g>
    </g>
    <g id="line2d_69">
     <path d="
M413.726 316.778
L433.886 316.778" style="fill:none;stroke:#000000;stroke-linecap:square;"/>
    </g>
    <g id="line2d_70"/>
    <g id="text_30">
     <!-- 2012 -->
     <g transform="translate(449.72625 321.818)scale(0.144 -0.144)">
      <use xlink:href="#BitstreamVeraSans-Roman-32"/>
      <use x="63.623046875" xlink:href="#BitstreamVeraSans-Roman-30"/>
      <use x="127.24609375" xlink:href="#BitstreamVeraSans-Roman-31"/>
      <use x="190.869140625" xlink:href="#BitstreamVeraSans-Roman-32"/>
     </g>
    </g>
    <g id="line2d_71">
     <path d="
M413.726 337.914
L433.886 337.914" style="fill:none;stroke:#0000ff;stroke-linecap:square;"/>
    </g>
    <g id="line2d_72"/>
    <g id="text_31">
     <!-- 2013 -->
     <g transform="translate(449.72625 342.9545)scale(0.144 -0.144)">
      <use xlink:href="#BitstreamVeraSans-Roman-32"/>
      <use x="63.623046875" xlink:href="#BitstreamVeraSans-Roman-30"/>
      <use x="127.24609375" xlink:href="#BitstreamVeraSans-Roman-31"/>
      <use x="190.869140625" xlink:href="#BitstreamVeraSans-Roman-33"/>
     </g>
    </g>
    <g id="line2d_73">
     <path d="
M413.726 359.051
L433.886 359.051" style="fill:none;stroke:#008000;stroke-linecap:square;"/>
    </g>
    <g id="line2d_74"/>
    <g id="text_32">
     <!-- 2014 -->
     <g transform="translate(449.72625 364.091)scale(0.144 -0.144)">
      <use xlink:href="#BitstreamVeraSans-Roman-32"/>
      <use x="63.623046875" xlink:href="#BitstreamVeraSans-Roman-30"/>
      <use x="127.24609375" xlink:href="#BitstreamVeraSans-Roman-31"/>
      <use x="190.869140625" xlink:href="#BitstreamVeraSans-Roman-34"/>
     </g>
    </g>
   </g>
  </g>
 </g>
 <defs>
  <clipPath id="p5fc3a60927">
   <rect height="345.6" width="446.4" x="51.07125" y="23.14175"/>
  </clipPath>
 </defs>
</svg>
