<?xml version="1.0" encoding="utf-8" standalone="no"?>
<!DOCTYPE svg PUBLIC "-//W3C//DTD SVG 1.1//EN"
  "http://www.w3.org/Graphics/SVG/1.1/DTD/svg11.dtd">
<!-- Created with matplotlib (http://matplotlib.org/) -->
<svg height="408pt" version="1.1" viewBox="0 0 504 408" width="504pt" xmlns="http://www.w3.org/2000/svg" xmlns:xlink="http://www.w3.org/1999/xlink">
 <defs>
  <style type="text/css">
*{stroke-linecap:butt;stroke-linejoin:round;}
  </style>
 </defs>
 <g id="figure_1">
  <g id="patch_1">
   <path d="
M0 408.169
L504.671 408.169
L504.671 0
L0 0
z
" style="fill:#ffffff;"/>
  </g>
  <g id="axes_1">
   <g id="patch_2">
    <path d="
M51.0713 368.742
L497.471 368.742
L497.471 23.1417
L51.0713 23.1417
z
" style="fill:#ffffff;"/>
   </g>
   <g id="line2d_1">
    <path clip-path="url(#p5fc3a60927)" d="
M0 0" style="fill:none;stroke:#0000ff;stroke-linecap:square;"/>
   </g>
   <g id="line2d_2">
    <path clip-path="url(#p5fc3a60927)" d="
M0 0" style="fill:none;stroke:#008000;stroke-linecap:square;"/>
   </g>
   <g id="line2d_3">
    <path clip-path="url(#p5fc3a60927)" d="
M0 0" style="fill:none;stroke:#ff0000;stroke-linecap:square;"/>
   </g>
   <g id="line2d_4">
    <path clip-path="url(#p5fc3a60927)" d="
M0 0" style="fill:none;stroke:#00bfbf;stroke-linecap:square;"/>
   </g>
   <g id="line2d_5">
    <path clip-path="url(#p5fc3a60927)" d="
M0 0" style="fill:none;stroke:#bf00bf;stroke-linecap:square;"/>
   </g>
   <g id="line2d_6">
    <path clip-path="url(#p5fc3a60927)" d="
M0 0" style="fill:none;stroke:#bfbf00;stroke-linecap:square;"/>
   </g>
   <g id="line2d_7">
    <path clip-path="url(#p5fc3a60927)" d="
M0 0" style="fill:none;stroke:#000000;stroke-linecap:square;"/>
   </g>
   <g id="line2d_8">
    <path clip-path="url(#p5fc3a60927)" d="
M0 0" style="fill:none;stroke:#0000ff;stroke-linecap:square;"/>
   </g>
   <g id="line2d_9">
    <path clip-path="url(#p5fc3a60927)" d="
M0 0" style="fill:none;stroke:#008000;stroke-linecap:square;"/>
   </g>
   <g id="line2d_10">
    <path clip-path="url(#p5fc3a60927)" d="
M51.3047 409.169
L51.5107 -1
M55.9609 -1
L55.9633 194.976
L57.1863 270.99
L58.3168 409.169
M60.5798 409.169
L60.8554 273.866
L62.0784 210.167
L63.3014 279.383
L64.5244 191.918
L65.7474 181.356
L66.9704 178.04
L68.1934 2.77758
L69.1299 409.169
M70.1643 409.169
L70.6395 330.167
L73.0855 188.849
L74.3085 242.877
L75.5315 235.872
L76.7545 248.215
L77.9776 226.218
L79.2006 282.193
L80.4236 275.649
L80.7325 -1
M84.0812 -1
L84.0926 86.1369
L85.3156 357.827
L86.5386 297.003
L87.1667 409.169
M88.8072 409.169
L88.9847 391.129
L89.0205 409.169
M93.6168 409.169
L93.8767 331.469
L95.0997 340.327
L96.3228 374.118
L97.5458 248.678
L98.7688 82.3363
L99.8961 -1
M101.987 -1
L102.438 73.7679
L102.491 -1
M104.603 -1
L104.837 409.169
M105.232 409.169
L106.107 204.396
L107.33 177.629
L108.553 123.294
L109.776 180.718
L110.999 168.933
L112.222 185.689
L113.445 165.037
L114.668 201.548
L115.891 115.341
L116.566 -1
M117.581 -1
L118.337 151.888
L119.56 153.601
L120.783 163.132
L122.006 120.181
L122.201 -1
M125.005 -1
L125.54 409.169
M125.997 409.169
L126.898 118.28
L128.121 406.531
L129.344 103.698
L130.567 117.09
L131.79 128.63
L133.013 68.0761
L134.236 122.066
L135.133 -1
M136.681 -1
L136.682 -0.944046
L137.905 59.6486
L139.128 87.1582
L140.351 184.541
L141.574 189.247
L142.797 106.172
L144.02 147.982
L145.243 137.511
L146.047 -1
M146.944 -1
L147.689 111.835
L148.912 205.818
L150.135 116.713
L150.227 -1
M152.495 -1
L152.581 108.645
L155.027 195.22
L156.25 322.127
L156.637 -1
M158.34 -1
L158.696 286.575
L159.919 160.782
L161.142 261.581
L162.101 -1
M162.922 -1
L163.589 85.7293
L164.812 65.4845
L165.084 -1
M166.858 -1
L167.258 111.629
L168.481 134.147
L169.704 160.06
L170.927 99.8965
L172.15 169.73
L173.373 108.444
L174.515 -1
M179.379 -1
L179.488 172.077
L180.711 19.712
L181.167 -1
M182.624 -1
L183.157 25.8134
L183.334 -1
M184.883 -1
L185.603 225.548
L186.826 154.546
L187.089 -1
M189.143 -1
L189.272 65.4014
L190.495 111.861
L191.193 -1
M233.287 -1
L233.3 5.58566
L233.69 -1
M239.075 -1
L239.415 39.9358
L239.476 -1
M389.399 -1
L389.846 40.1542
L391.069 68.5652
L392.059 -1
M395.995 -1
L397.184 289.103
L398.013 409.169
M398.559 409.169
L399.63 5.49298
L400.853 111.485
L402.076 55.7631
L403.299 43.2576
L404.522 64.7471
L404.763 -1
M411.604 -1
L411.86 111.563
L413.083 58.9642
L414.306 36.8311
L414.452 -1
M417.914 -1
L417.975 12.495
L419.198 8.4347
L419.435 -1
M425.303 -1
L425.313 62.0946
L426.536 74.8289
L427.759 97.7657
L428.982 177.191
L430.205 183.529
L431.429 97.9969
L431.712 -1
M433.571 -1
L433.875 107.017
L435.098 4.30409
L436.321 186.069
L437.156 -1
M439.8 -1
L439.99 91.868
L441.213 119.484
L442.436 95.7188
L442.892 -1
M444.678 -1
L444.882 31.5408
L446.105 102.957
L446.235 -1
M448.41 -1
L448.551 111.609
L449.774 132.64
L450.997 179.348
L451.786 -1
M452.804 -1
L453.443 107.085
L454.666 120.388
L455.889 121.879
L457.112 63.3597
L457.43 -1
M460.157 -1
L460.781 105.1
L461.594 -1
M462.315 -1
L463.227 156.241
L464.45 161.677
L465.673 166.49
L466.896 109.728
L468.119 122.717
L469.342 304.677
L470.565 175.672
L471.788 153.825
L473.011 174.609
L474.234 178.674
L475.457 229.33
L476.68 302.004
L476.689 409.169
M479.115 409.169
L479.126 273.905
L480.349 350.905
L480.638 409.169
M482.739 409.169
L482.795 400.036
L484.018 394.659
L484.063 409.169
M486.076 409.169
L486.464 233.21
L487.687 254.876
L487.74 409.169
M490.114 409.169
L490.133 354.401
L490.503 409.169
M491.864 409.169
L492.579 230.907
L493.802 168.647
L494.106 -1
M495.797 -1
L496.248 298.339
L496.248 298.339" style="fill:none;stroke:#ff0000;stroke-linecap:square;"/>
   </g>
   <g id="line2d_11">
    <path clip-path="url(#p5fc3a60927)" d="
M51.0713 149.218
L51.4664 -1
M52.9316 -1
L53.5173 288.126
L53.8929 409.169
M56.5845 409.169
L57.1863 74.7731
L57.337 -1
M60.0863 -1
L60.8554 301.505
L62.0784 164.098
L63.3212 -1
M65.2987 -1
L65.7474 74.3903
L66.9704 83.6003
L68.1934 149.994
L69.4165 161.27
L70.6395 183.629
L71.8625 189.723
L73.0855 159.698
L74.3085 184.388
L75.5315 154.122
L76.7545 177.109
L77.9776 210.579
L79.2006 193.62
L80.4236 254.483
L81.6466 282.881
L82.8696 263.941
L84.0073 409.169
M84.1555 409.169
L85.3156 208.249
L86.5386 139.823
L87.7617 192.499
L88.9847 196.423
L90.2077 143.592
L90.7082 -1
M95.0724 -1
L95.0997 139.332
L96.3228 169.533
L97.5458 192.649
L98.7688 244.008
L99.6404 409.169
M100.298 409.169
L101.215 210.018
L102.438 224.463
L102.463 409.169
M104.867 409.169
L104.884 285.723
L104.884 285.723
L104.884 285.723
L104.898 409.169
M107.09 409.169
L107.127 -1
M108.446 -1
L108.553 209.054
L109.776 168.142
L110.999 115.294
L112.222 158.491
L113.103 -1
M117.07 -1
L117.114 34.1335
L118.337 170.713
L119.56 159.938
L120.783 247.754
L120.863 -1
M125.647 -1
L125.675 114.076
L126.898 197.803
L128.121 249.206
L129.344 360.224
L130.567 209.744
L131.79 238.619
L133.013 307.549
L133.606 409.169
M134.663 409.169
L135.459 207.442
L136.682 185.816
L137.905 143.456
L138.675 -1
M139.812 -1
L140.351 66.1643
L141.574 12.552
L142.797 82.0897
L144.02 68.7707
L144.692 -1
M148.25 -1
L148.912 118.11
L150.135 57.7521
L151.358 89.7797
L152.581 245.897
L153.804 180.532
L155.027 106.402
L156.25 125.712
L156.52 -1
M158.468 -1
L158.696 101.815
L159.919 189.672
L161.142 211.302
L162.365 141.627
L163.589 263.813
L164.21 -1
M169.702 -1
L169.704 3.05485
L170.927 19.3226
L172.15 134.81
L173.373 61.1631
L173.921 -1
M175.687 -1
L175.819 8.25631
L177.042 12.0807
L177.06 -1
M193.985 -1
L194.164 146.415
L195.387 92.8888
L196.61 68.4216
L196.666 -1
M203.61 -1
L203.948 39.3448
L204.187 -1
M241.738 -1
L241.861 43.5946
L242.368 -1
M251.578 -1
L251.645 45.5543
L252.772 -1
M258.902 -1
L258.984 19.5577
L260.207 26.7603
L260.469 -1
M317.594 -1
L317.688 122.019
L318.774 -1
M385.438 -1
L387.4 103.167
L388.623 195.391
L389.846 192.811
L391.069 115.722
L392.292 61.37
L392.699 -1
M395.117 -1
L395.961 153.471
L397.184 112.007
L398.407 8.96517
L398.411 -1
M401.746 -1
L402.076 60.6886
L403.299 -1
M405.743 -1
L405.745 12.5175
L405.933 -1
M409.203 -1
L409.414 105.551
L410.125 -1
M411.847 -1
L411.86 -0.181353
L411.86 -0.181353
L411.86 -0.181353
L411.862 -1
M414.103 -1
L414.306 96.8983
L414.594 -1
M416.182 -1
L416.752 277.385
L417.975 151.049
L419.198 232.108
L420.421 47.0083
L421.644 85.2394
L422.867 34.4747
L424.09 99.2363
L425.313 108.506
L425.432 -1
M428.776 -1
L428.982 109.849
L430.205 144.837
L431.429 60.5821
L431.445 -1
M434.332 -1
L435.098 119.262
L436.321 202.471
L437.544 205.263
L438.767 213.204
L439.99 194.688
L440.06 -1
M443.587 -1
L443.659 122.989
L443.82 -1
M447.323 -1
L447.328 187.705
L448.022 409.169
M449.091 409.169
L449.774 196.377
L450.997 178.309
L452.22 173.238
L452.72 -1
M456.791 -1
L457.112 147.439
M459.558 139.353
L460.781 236.867
L462.004 227.497
L463.227 189.313
L463.638 409.169
M466.716 409.169
L466.896 310.846
L468.119 316.862
L469.342 252.444
L473.011 220.711
L474.234 218.163
L475.457 194.626
L476.17 409.169
M477.171 409.169
L477.903 180.563
L479.126 168.055
L480.349 187.241
L481.572 171.541
L482.795 4.87442
L484.018 1.99974
L485.299 409.169
M487.484 409.169
L487.687 228.692
L488.91 208.424
L490.133 245.398
L491.356 244.39
L492.579 227.643
L493.802 230.283
L495.025 298.014
L496.248 337.028
L496.248 337.028" style="fill:none;stroke:#00bfbf;stroke-linecap:square;"/>
   </g>
   <g id="line2d_12">
    <path clip-path="url(#p5fc3a60927)" d="
M51.0713 160.385
L52.2943 190.524
L53.5173 184.441
L54.7403 137.406
L55.9633 162.263
L57.1863 112.306
L58.4093 224.645
L59.6323 214.111
L60.8554 193.376
L62.0784 158.705
L62.1072 -1
M66.1536 -1
L66.9704 167.883
L67.1763 -1
M69.2539 -1
L69.4165 126.9
L69.6835 -1
M76.6635 -1
L76.7545 194.578
L77.9776 280.074
L79.2006 207.554
L80.4236 146.161
L81.6466 191.21
L82.8696 196.57
L84.0926 192.209
L85.3156 182.022
L87.7617 225.78
L88.9847 208.288
L90.2077 163.004
L91.4307 174.153
L92.6537 137.936
L93.8767 131.695
L95.0997 75.9595
L96.3228 187.51
L97.5458 206.751
L98.7688 209.917
L99.9918 189
L101.215 172.308
L102.438 121.808
L103.661 175.214
L104.884 142.154
L106.107 195.402
L107.33 193.017
L108.553 194.449
L109.776 192.704
L110.999 199.874
L112.222 212.757
L113.445 239.672
L114.668 204.143
L115.891 41.3811
L117.114 178.404
L118.337 166.735
L118.343 -1
M126.232 -1
L126.898 41.8431
L128.121 88.9525
L128.897 -1
M129.784 -1
L130.567 91.3781
L131.79 94.9874
L132.967 409.169
M133.078 409.169
L134.236 188.195
L135.459 107.544
L135.462 -1
M138.012 -1
L139.128 120.818
L140.351 14.3055
L140.353 -1
M148.285 -1
L148.912 42.5789
L150.135 27.6263
L150.15 -1
M153.324 -1
L153.804 224.366
L154.78 -1
M158.119 -1
L158.696 200.882
L159.919 147.011
L161.142 244.829
L162.365 259.04
L163.589 227.396
L164.102 -1
M165.633 -1
L166.035 153.344
L167.258 79.7791
L168.481 77.6205
L168.569 -1
M170.787 -1
L170.927 128.667
L171.237 -1
M174.96 -1
L175.819 116.489
L175.975 -1
M193.78 -1
L194.164 188.197
L195.387 168.651
L196.008 -1
M197.47 -1
L197.833 68.226
L198.01 -1
M202.243 -1
L202.725 49.8725
L203.924 -1
M208.539 -1
L208.84 69.6926
L208.928 -1
M218.613 -1
L218.624 28.4308
L218.782 -1
M222.429 -1
L223.516 200.375
L224.739 42.8696
L225.962 23.1018
L225.985 -1
M229.624 -1
L229.631 4.26927
L229.631 4.26927
L229.631 4.26927
L229.682 -1
M231.776 -1
L232.077 39.1387
L233.514 -1
M235.092 -1
L235.746 39.14
L236.969 89.899
L237.881 -1
M239.172 -1
L239.415 6.71178
L239.595 -1
M344.529 -1
L344.595 59.1248
L345.076 -1
M346.751 -1
L347.041 27.7781
L347.156 -1
M357.929 -1
L358.048 30.3026
L359.167 -1
M388.469 -1
L388.623 46.3267
L388.914 -1
M393.436 -1
L393.515 99.5326
L394.738 52.4799
L395.243 -1
M398.287 -1
L398.407 42.3644
L398.771 -1
M407.505 -1
L408.191 48.7461
L409.414 22.5958
L410.157 -1
M410.846 -1
L411.86 73.1032
L412.263 -1
M413.674 -1
L414.306 160.416
L415.529 208.467
L416.417 -1
M420.265 -1
L420.421 24.7524
L421.644 133.467
L422.228 -1
M423.771 -1
L424.09 50.9991
L424.71 -1
M426.533 -1
L426.536 -0.851436
L426.536 -0.851436
L426.536 -0.851436
L426.537 -1
M430.651 -1
L431.429 115.908
L432.652 97.846
L433.875 261.305
L435.098 195.699
L436.321 159.575
L437.544 195.355
L438.767 69.9493
L439.99 12.6733
L440.106 -1
M444.118 -1
L444.882 212.693
L446.105 213.611
L447.112 409.169
M447.594 409.169
L448.551 259.028
L449.106 409.169
M451.642 409.169
L452.22 247.052
L452.778 409.169
M454.103 409.169
L454.666 245.057
L454.896 409.169
M456.949 409.169
L457.112 300.147
L457.549 409.169
M458.907 409.169
L459.558 186.183
L460.781 144.1
L462.004 190.975
L463.227 206.845
L464.45 123.397
L465.673 109.386
L465.984 -1
M468.767 -1
L469.342 151.863
L470.565 93.0091
L471.788 147.366
L473.011 81.5763
L474.234 119.531
L475.457 52.7704
L476.68 222.868
L477.903 233.12
L478.181 409.169
M479.921 409.169
L480.349 86.3831
L481.572 188.515
L482.795 275.046
L483.977 409.169
M484.024 409.169
L484.581 -1
M486.143 -1
L486.464 172.036
L486.489 -1
M490.211 -1
L491.356 203.507
L492.579 390.031
L493.802 357.542
L493.851 409.169
L493.851 409.169" style="fill:none;stroke:#bf00bf;stroke-linecap:square;"/>
   </g>
   <g id="line2d_13">
    <path clip-path="url(#p5fc3a60927)" d="
M51.0713 231.241
L52.2943 229.985
L53.5173 227.748
L54.7403 228.832
L55.9633 196.226
L57.1863 184.297
L58.4093 182.095
L59.6323 254.45
L60.8554 274.11
L62.0784 247.591
L62.1429 409.169
M64.4328 409.169
L64.5244 174.496
L65.7474 156.104
L66.9704 119.723
L68.1934 144.312
L69.3818 -1
M71.0723 -1
L72.7402 409.169
M73.4555 409.169
L74.3085 205.965
L75.5315 178.829
L76.7545 206.125
L77.9776 114.469
L79.2006 177.13
L80.4236 107.233
L81.6466 182.834
L82.8696 196.631
L84.0926 173.861
L85.3156 173.814
L86.5386 209.862
L86.7793 409.169
M88.9593 409.169
L88.9847 391.952
L90.2077 236.693
L91.4307 172.019
L92.6537 94.3913
L93.8767 51.5688
L95.0997 150.797
L96.3228 49.0639
L97.5458 137.07
L98.7688 208.357
L99.9918 189.886
L101.215 140.924
L101.429 -1
M107.048 -1
L107.33 90.0616
L108.553 391.04
L109.776 244.839
L110.999 198.299
L112.222 261.314
L113.445 211.2
L114.668 300.737
L115.891 272.687
L117.114 263.975
L118.27 409.169
M118.396 409.169
L119.56 243.984
L120.783 263.19
L122.006 190.888
L122.839 -1
M125.527 -1
L125.675 156.428
L126.898 120.481
L128.121 171.837
L129.344 185.412
L130.567 253.161
L131.79 223.385
L132.521 -1
M135.065 -1
L135.459 208.173
L136.682 111.116
L136.765 -1
M140.627 -1
L141.574 170.402
L142.797 225.487
L142.844 -1
M145.217 -1
L145.243 127.048
L145.243 127.048
L145.243 127.048
L145.243 -1
M148.847 -1
L148.912 166.846
L148.912 166.846
L148.912 166.846
L148.954 -1
M152.135 -1
L152.581 187.263
L153.804 237.704
L155.027 200.622
L156.25 181.822
L157.473 143.933
L158.006 -1
M163.35 -1
L163.589 123.22
L164.812 127.58
L165.475 -1
M166.544 -1
L167.258 150.971
L168.481 173.963
L169.704 29.3001
L170.927 161.048
L172.15 95.6834
L172.784 -1
M174.179 -1
L174.596 45.3662
L174.692 -1
M176.914 -1
L177.042 62.338
L178.265 9.65429
L179.488 21.1571
L180.711 12.4466
L181.934 49.4116
L183.157 19.0949
L183.195 -1
M185.368 -1
L185.603 147.046
L186.826 110.434
L187.635 -1
M190.1 -1
L190.495 85.5301
L191.718 25.1447
L192.079 -1
M194.33 -1
L195.387 46.1949
L195.984 -1
M204.599 -1
L205.171 43.946
L205.739 -1
M215.995 -1
L216.178 129.064
L217.401 71.3557
L217.522 -1
M224.575 -1
L224.739 8.49108
L224.89 -1
M228.398 -1
L228.408 79.3503
L229.631 111.884
L230.854 119.885
L232.077 74.1497
L232.319 -1
M236.646 -1
L236.969 109.187
L237.844 -1
M256.24 -1
L256.538 31.8825
L256.61 -1
M389.658 -1
L389.846 35.5707
L391.069 172.84
L392.021 -1
M394.732 -1
L394.738 0.0878231
L394.738 0.0878231
L394.738 0.0878231
L394.747 -1
M397.526 -1
L398.407 62.7768
L399.63 41.9839
L400.853 12.1657
L401.063 -1
M404.176 -1
L404.522 40.0701
L405.406 -1
M407.851 -1
L408.191 38.4021
L409.414 40.8045
L410.637 60.1546
L411.86 40.7394
L412.203 -1
M415.086 -1
L415.529 106.912
L416.752 108.858
L417.975 50.2306
L418.375 -1
M419.962 -1
L420.421 62.4661
L420.936 -1
M422.578 -1
L422.867 26.1246
L422.885 -1
M426.5 -1
L426.536 179.561
L427.759 220.827
L428.982 227.023
L430.205 216.561
L431.429 170.276
L432.385 -1
M434.951 -1
L435.098 33.296
L437.544 155.902
L438.767 100.341
L439.71 -1
M440.195 -1
L441.213 148.173
L442.436 111.086
L443.659 200.13
L444.882 267.526
L447.328 134.652
L447.611 -1
M450.963 -1
L450.997 108.583
L452.22 104.156
L453.443 110.327
L453.633 -1
M455.678 -1
L455.889 125.488
L457.112 141.016
L457.929 -1
M460.488 -1
L460.781 88.523
L462.004 372.663
L463.227 233.246
L464.45 238.97
L465.673 192.949
L466.896 193.772
L468.119 173.214
L469.342 171.641
L470.565 110.426
L471.788 164.863
L473.011 170.919
L474.234 195.665
L475.457 184.151
L476.68 197.148
L477.903 164.625
L479.126 178.593
L480.349 150.446
L481.572 107.044
L482.795 150.516
L484.018 266.474
L485.241 207.6
L486.464 179.228
L487.687 170.209
L488.91 108.367
L490.133 171.222
L491.356 168.452
L492.579 154.201
L493.802 27.6932
L495.025 69.1099
L496.248 313.219
L496.248 313.219" style="fill:none;stroke:#bfbf00;stroke-linecap:square;"/>
   </g>
   <g id="line2d_14">
    <path clip-path="url(#p5fc3a60927)" d="
M53.4958 -1
L53.5173 94.3423
L53.7539 -1
M56.0804 -1
L57.1863 199.948
L57.9661 409.169
M58.8173 409.169
L59.6323 171.55
L60.8554 168.454
L62.0784 115.843
L63.3014 229.708
L64.5244 208.016
L65.7474 170.736
L68.1934 30.0735
L69.4165 262.418
L70.6395 250.241
L71.8625 205.316
L73.0855 187.182
L74.3085 70.1183
L74.6663 -1
M75.8055 -1
L76.459 409.169
M77.4165 409.169
L77.9776 251.911
L79.2006 276.885
L80.4236 124.598
L81.6466 129.341
L82.8696 283.265
L84.0926 180.623
L85.1596 -1
M85.5552 -1
L86.5386 108.044
L87.7617 133.897
L88.8139 -1
M89.2781 -1
L90.2077 68.339
L91.4307 170.684
L92.6537 160.233
L93.8767 164.29
L95.0997 150.805
L95.2443 -1
M97.3766 -1
L97.5458 180.827
L98.7688 182.699
L99.9918 121.738
L101.215 168.383
L102.438 210.097
L103.661 108.75
L104.884 226.551
L106.107 363.827
L107.33 202.116
L108.553 126.946
L109.776 87.2885
L110.999 234.849
L112.222 236.947
L113.22 -1
M115.632 -1
L115.891 262.853
L116.432 -1
M119.069 -1
L119.56 331.773
L120.783 223.456
L122.006 185.994
L123.229 314.939
L124.452 367.937
L125.675 255.864
L126.898 61.201
L128.121 66.9004
L129.116 -1
M131.346 -1
L131.79 291.933
L133.013 55.4627
L133.08 -1
M140.127 -1
L140.351 146.255
L140.643 -1
M143.448 -1
L144.02 79.9534
L145.243 223.486
L146.466 261.065
L147.465 -1
M151.196 -1
L151.358 90.3964
L151.39 -1
M155.011 -1
L155.027 133.698
L155.195 -1
M157.507 -1
L158.696 78.9083
L159.664 -1
M162.26 -1
L162.365 79.3047
L163.589 107.147
L163.639 -1
M166.891 -1
L167.258 101.731
L168.481 124.221
L168.566 -1
M175.761 -1
L175.819 30.2053
L175.819 30.2053
L175.819 30.2053
L175.851 -1
M180.493 -1
L180.711 57.5998
L181.757 -1
M182.168 -1
L183.157 40.77
L184.38 85.6974
L185.071 -1
M202.849 -1
L203.948 18.6332
L204.022 -1
M228.223 -1
L228.408 14.5289
L228.571 -1
M241.849 -1
L241.861 4.63372
L242.994 -1
M373.898 -1
L373.947 16.7874
L374.011 -1
M392.082 -1
L392.292 20.4748
L393.515 60.8598
L394.738 27.4888
L394.876 -1
M397.053 -1
L397.184 25.8429
L397.709 -1
M406.903 -1
L406.968 11.2148
L408.191 65.8744
L408.426 -1
M410.305 -1
L410.637 103.684
L411.86 68.8565
L413.083 203.084
L414.306 192.211
L415.529 197.85
L416.752 144.2
L417.975 150.046
L419.198 97.2411
L420.349 -1
M425.076 -1
L425.313 24.2009
L426.536 86.6617
L427.759 69.4483
L428.982 59.9621
L429.574 -1
M430.946 -1
L431.429 41.4355
L432.652 116.162
L433.875 211.442
L435.098 249.977
L436.321 240.072
L437.544 317.382
L438.767 165.625
L439.99 179.174
L440.594 -1
M444.858 -1
L444.882 85.1998
L444.987 -1
M449.031 -1
L449.774 146.786
L450.539 -1
M451.515 -1
L452.22 118.945
L453.443 149.661
L454.666 163.421
L455.889 46.2101
L455.92 -1
M463.013 -1
L463.227 85.4396
L463.391 -1
M465.518 -1
L465.673 80.0849
L466.896 122.137
L468.119 180.101
L469.342 295.345
L470.565 235.833
L471.788 195.084
L473.011 92.9969
L474.234 199.525
L475.457 189.74
L476.68 206.041
L477.903 220.403
L479.126 207.406
L480.349 131.585
L481.572 254.888
L482.575 409.169
M482.8 409.169
L482.863 -1
M487.181 -1
L487.687 296.721
L488.91 290.063
L488.983 409.169
M491.322 409.169
L491.356 355.901
L491.604 409.169
M493.233 409.169
L493.802 226.749
L495.025 266.105
L496.248 284.953
L496.248 284.953" style="fill:none;stroke:#000000;stroke-linecap:square;"/>
   </g>
   <g id="line2d_15">
    <path clip-path="url(#p5fc3a60927)" d="
M51.0713 306.132
L52.2943 254.959
L53.5173 205.586
L54.7403 233.863
L55.9633 232.877
L57.1863 261.003
L58.4093 276.085
L59.2553 -1
M62.079 -1
L62.0793 409.169
M69.1223 409.169
L69.4165 314.042
L70.6395 287.284
L71.8625 210.308
L73.0855 200.172
L74.3085 242.429
L75.5315 198.204
L76.7545 53.5533
L76.7682 -1
M79.1692 -1
L79.2006 125.982
L79.2006 125.982
L79.2006 125.982
L79.2751 -1
M81.6377 -1
L81.6466 13.3987
L82.8696 224.461
L84.0926 236.997
L85.3156 255.535
L86.4895 409.169
M86.5608 409.169
L87.7617 61.2765
L88.1447 -1
M89.742 -1
L90.2077 82.9994
L91.4307 109.071
L92.3141 -1
M97.0255 -1
L97.0335 409.169
M99.9911 409.169
L99.9916 -1
M100.564 -1
L101.215 223.67
L102.438 359.291
L102.841 -1
M107.585 -1
L107.658 409.169
M114.661 409.169
L114.668 361.347
L114.668 361.347
L114.668 361.347
L114.671 409.169
M120.214 409.169
L120.783 46.8449
L122.006 93.2575
L122.381 -1
M147.526 -1
L147.549 409.169
M150.584 409.169
L151.147 -1
M405.504 -1
L405.745 63.7347
L406.968 15.9118
L407.005 -1
M409.592 -1
L410.637 68.7704
L411.86 35.8671
L413.083 26.1032
L414.297 -1
M414.318 -1
L415.529 19.4837
L415.602 -1
M418.131 -1
L419.198 131.827
L420.421 167.913
L421.644 130.496
L422.867 30.8011
L422.94 -1
M424.948 -1
L425.313 213.872
L426.536 198.214
L427.759 202.028
L428.982 120.898
L429.253 -1
M431.159 -1
L431.429 120.756
L432.652 85.5535
L433.393 -1
M437.637 -1
L438.767 132.599
L439.99 161.456
L441.213 260.322
L442.436 160.662
L443.485 -1
M443.834 -1
L444.882 158.751
L446.105 132.635
L447.328 198.156
L448.551 193.462
L449.774 174.165
L450.997 141.022
L452.22 150.988
L453.287 -1
M453.618 -1
L454.666 130.951
L455.889 150.186
L457.112 150.093
L458.335 161.296
L459.558 142.183
L459.941 -1
M461.267 -1
L461.901 409.169
M462.36 409.169
L463.227 247.458
L464.45 247.6
L464.506 409.169
M468.555 409.169
L469.342 253.665
L470.565 260.126
L471.788 219.705
L473.011 201.51
L474.234 190.04
L475.457 174.03
L476.68 148.442
L477.903 141.433
L479.126 74.2019
L480.349 112.826
L480.804 409.169
M482.471 409.169
L482.795 228.853
L484.018 256.781
L485.241 188.815
L486.464 154.984
L487.687 160.239
L488.91 171.543
L490.133 161.963
L491.356 128.746
L492.579 115.491
L493.802 185.714
L495.025 166.226
L496.248 128.34
L496.248 128.34" style="fill:none;stroke:#0000ff;stroke-linecap:square;"/>
   </g>
   <g id="line2d_16">
    <path clip-path="url(#p5fc3a60927)" d="
M51.0713 148.857
L52.2943 174.898
L53.4585 -1
M53.5313 -1
L54.1782 409.169
M55.5675 409.169
L55.9633 238.67
L57.1863 180.288
L58.4093 180.974
L59.6323 197.526
L60.8554 174.302
L62.0784 157.894
L63.3014 32.927
L64.5244 240.857
L65.7474 75.4679
L66.9704 131.51
L68.1934 128.25
L69.4165 132.629
L70.6395 137.789
L71.8625 167.842
L73.0855 154.831
L74.3085 150.746
L75.5315 153.768
L76.7545 131.167
L77.9776 174.91
M91.4307 233.368
L92.6537 251.634
L93.8767 234.928
L95.0997 265.575
L96.3228 258.948
L97.5458 201.428
L98.7688 152.183
L99.9918 149.355
L101.215 176.971
L102.438 157.43
L103.661 122.185
L104.884 81.1721
L105.456 -1
M106.67 -1
L107.33 108.803
L108.553 44.2969
L109.776 86.8438
L110.818 -1
M111.082 -1
L112.222 208.719
L113.445 151.01
L114.668 191.467
L115.891 115.527
L117.114 74.83
L118.337 46.22
L119.56 81.3566
L120.783 97.815
L122.006 89.2505
L123.229 157.737
L124.452 157.203
L125.675 154.084
L126.898 71.2279
L127.489 -1
M129.743 -1
L130.567 85.2531
L130.778 -1
M132.953 -1
L133.013 20.3696
L134.236 80.0575
L135.459 85.1577
L136.682 109.234
L137.905 58.7346
L139.128 93.2091
L140.119 -1
M140.818 -1
L141.574 34.8431
L141.68 -1
M143.768 -1
L144.02 97.7369
L145.243 83.6677
L145.867 -1
M147.152 -1
L147.689 62.7048
L150.135 55.2851
L150.98 -1
M153.543 -1
L153.804 114.346
L155.027 209.052
L156.25 102.27
L157.473 116.792
L158.696 143.916
L159.562 -1
M160.256 -1
L161.142 156.763
L162.365 160.742
L163.589 64.7196
L164.812 64.0865
L166.035 87.1771
L166.424 -1
M187.698 -1
L188.049 106.771
L189.272 82.9749
L190.495 150.928
L191.718 27.5414
L192.941 102.634
L194.164 96.2164
L195.522 -1
M206.388 -1
L206.394 2.71
L207.617 41.5929
L208.84 65.8391
L209.27 -1
M254.115 -1
L255.315 32.0564
L256.538 101.392
L257.11 -1
M266.298 -1
L266.322 1.74018
L267.545 43.4645
L267.997 -1
M380.014 -1
L380.062 8.06248
L381.285 29.5679
L381.426 -1
M383.52 -1
L383.731 47.658
L384.02 -1
M403.031 -1
L403.299 6.96485
L403.318 -1
M409.259 -1
L409.414 69.3652
L409.589 -1
M411.726 -1
L411.86 51.3613
L412.227 -1
M415.487 -1
L415.529 35.0458
L416.752 135.724
L417.737 -1
M418.295 -1
L419.198 92.3835
L419.231 -1
M422.711 -1
L422.867 112.65
L424.09 205.12
L426.536 116.432
L427.759 46.3677
L427.811 -1
M430.154 -1
L430.205 46.0341
L431.429 106.988
L431.99 -1
M433.196 -1
L433.875 157.284
L435.098 204.987
L436.321 228.268
L437.544 239.446
L438.767 216.241
L439.99 269.971
L441.213 240.915
L443.659 202.387
L444.882 172.459
L446.105 162.374
L447.328 139.846
L448.551 146.347
L449.774 187.282
L450.997 165.144
L452.22 15.3953
L453.443 68.9748
L454.666 73.856
L455.889 86.0848
L456.44 -1
M457.479 -1
L458.335 246.582
L459.558 195.956
L460.781 155.921
L461.719 -1
M462.341 -1
L463.227 124.394
L463.763 -1
M474.2 -1
L474.234 201.694
L475.457 183.756
L476.68 334.378
L477.903 321.015
L479.126 117.382
L480.349 179.219
L481.572 177.057
L482.795 194.368
L484.018 81.0573
L485.241 206.004
L487.687 147.559
L488.91 355.442
L490.133 306.873
L491.356 227.473
L492.579 266.72
L493.802 238.902
L495.025 237.619
L496.248 225.051
L496.248 225.051" style="fill:none;stroke:#008000;stroke-linecap:square;"/>
   </g>
   <g id="patch_3">
    <path d="
M51.0713 23.1417
L497.471 23.1417" style="fill:none;stroke:#000000;stroke-linecap:square;stroke-linejoin:miter;"/>
   </g>
   <g id="patch_4">
    <path d="
M497.471 368.742
L497.471 23.1417" style="fill:none;stroke:#000000;stroke-linecap:square;stroke-linejoin:miter;"/>
   </g>
   <g id="patch_5">
    <path d="
M51.0713 368.742
L497.471 368.742" style="fill:none;stroke:#000000;stroke-linecap:square;stroke-linejoin:miter;"/>
   </g>
   <g id="patch_6">
    <path d="
M51.0713 368.742
L51.0713 23.1417" style="fill:none;stroke:#000000;stroke-linecap:square;stroke-linejoin:miter;"/>
   </g>
   <g id="matplotlib.axis_1">
    <g id="xtick_1">
     <g id="line2d_17">
      <defs>
       <path d="
M0 0
L0 -4" id="m93b0483c22" style="stroke:#000000;stroke-width:0.5;"/>
      </defs>
      <g>
       <use style="stroke:#000000;stroke-width:0.5;" x="51.07125" xlink:href="#m93b0483c22" y="368.74175"/>
      </g>
     </g>
     <g id="line2d_18">
      <defs>
       <path d="
M0 0
L0 4" id="m741efc42ff" style="stroke:#000000;stroke-width:0.5;"/>
      </defs>
      <g>
       <use style="stroke:#000000;stroke-width:0.5;" x="51.07125" xlink:href="#m741efc42ff" y="23.14175"/>
      </g>
     </g>
     <g id="text_1">
      <!-- 0 -->
      <defs>
       <path d="
M31.7812 66.4062
Q24.1719 66.4062 20.3281 58.9062
Q16.5 51.4219 16.5 36.375
Q16.5 21.3906 20.3281 13.8906
Q24.1719 6.39062 31.7812 6.39062
Q39.4531 6.39062 43.2812 13.8906
Q47.125 21.3906 47.125 36.375
Q47.125 51.4219 43.2812 58.9062
Q39.4531 66.4062 31.7812 66.4062
M31.7812 74.2188
Q44.0469 74.2188 50.5156 64.5156
Q56.9844 54.8281 56.9844 36.375
Q56.9844 17.9688 50.5156 8.26562
Q44.0469 -1.42188 31.7812 -1.42188
Q19.5312 -1.42188 13.0625 8.26562
Q6.59375 17.9688 6.59375 36.375
Q6.59375 54.8281 13.0625 64.5156
Q19.5312 74.2188 31.7812 74.2188" id="BitstreamVeraSans-Roman-30"/>
      </defs>
      <g transform="translate(48.0478125 381.859875)scale(0.12 -0.12)">
       <use xlink:href="#BitstreamVeraSans-Roman-30"/>
      </g>
     </g>
    </g>
    <g id="xtick_2">
     <g id="line2d_19">
      <g>
       <use style="stroke:#000000;stroke-width:0.5;" x="112.221934932" xlink:href="#m93b0483c22" y="368.74175"/>
      </g>
     </g>
     <g id="line2d_20">
      <g>
       <use style="stroke:#000000;stroke-width:0.5;" x="112.221934932" xlink:href="#m741efc42ff" y="23.14175"/>
      </g>
     </g>
     <g id="text_2">
      <!-- 50 -->
      <defs>
       <path d="
M10.7969 72.9062
L49.5156 72.9062
L49.5156 64.5938
L19.8281 64.5938
L19.8281 46.7344
Q21.9688 47.4688 24.1094 47.8281
Q26.2656 48.1875 28.4219 48.1875
Q40.625 48.1875 47.75 41.5
Q54.8906 34.8125 54.8906 23.3906
Q54.8906 11.625 47.5625 5.09375
Q40.2344 -1.42188 26.9062 -1.42188
Q22.3125 -1.42188 17.5469 -0.640625
Q12.7969 0.140625 7.71875 1.70312
L7.71875 11.625
Q12.1094 9.23438 16.7969 8.0625
Q21.4844 6.89062 26.7031 6.89062
Q35.1562 6.89062 40.0781 11.3281
Q45.0156 15.7656 45.0156 23.3906
Q45.0156 31 40.0781 35.4375
Q35.1562 39.8906 26.7031 39.8906
Q22.75 39.8906 18.8125 39.0156
Q14.8906 38.1406 10.7969 36.2812
z
" id="BitstreamVeraSans-Roman-35"/>
      </defs>
      <g transform="translate(105.448497432 381.859875)scale(0.12 -0.12)">
       <use xlink:href="#BitstreamVeraSans-Roman-35"/>
       <use x="63.623046875" xlink:href="#BitstreamVeraSans-Roman-30"/>
      </g>
     </g>
    </g>
    <g id="xtick_3">
     <g id="line2d_21">
      <g>
       <use style="stroke:#000000;stroke-width:0.5;" x="173.372619863" xlink:href="#m93b0483c22" y="368.74175"/>
      </g>
     </g>
     <g id="line2d_22">
      <g>
       <use style="stroke:#000000;stroke-width:0.5;" x="173.372619863" xlink:href="#m741efc42ff" y="23.14175"/>
      </g>
     </g>
     <g id="text_3">
      <!-- 100 -->
      <defs>
       <path d="
M12.4062 8.29688
L28.5156 8.29688
L28.5156 63.9219
L10.9844 60.4062
L10.9844 69.3906
L28.4219 72.9062
L38.2812 72.9062
L38.2812 8.29688
L54.3906 8.29688
L54.3906 0
L12.4062 0
z
" id="BitstreamVeraSans-Roman-31"/>
      </defs>
      <g transform="translate(162.977619863 381.859875)scale(0.12 -0.12)">
       <use xlink:href="#BitstreamVeraSans-Roman-31"/>
       <use x="63.623046875" xlink:href="#BitstreamVeraSans-Roman-30"/>
       <use x="127.24609375" xlink:href="#BitstreamVeraSans-Roman-30"/>
      </g>
     </g>
    </g>
    <g id="xtick_4">
     <g id="line2d_23">
      <g>
       <use style="stroke:#000000;stroke-width:0.5;" x="234.523304795" xlink:href="#m93b0483c22" y="368.74175"/>
      </g>
     </g>
     <g id="line2d_24">
      <g>
       <use style="stroke:#000000;stroke-width:0.5;" x="234.523304795" xlink:href="#m741efc42ff" y="23.14175"/>
      </g>
     </g>
     <g id="text_4">
      <!-- 150 -->
      <g transform="translate(224.128304795 381.859875)scale(0.12 -0.12)">
       <use xlink:href="#BitstreamVeraSans-Roman-31"/>
       <use x="63.623046875" xlink:href="#BitstreamVeraSans-Roman-35"/>
       <use x="127.24609375" xlink:href="#BitstreamVeraSans-Roman-30"/>
      </g>
     </g>
    </g>
    <g id="xtick_5">
     <g id="line2d_25">
      <g>
       <use style="stroke:#000000;stroke-width:0.5;" x="295.673989726" xlink:href="#m93b0483c22" y="368.74175"/>
      </g>
     </g>
     <g id="line2d_26">
      <g>
       <use style="stroke:#000000;stroke-width:0.5;" x="295.673989726" xlink:href="#m741efc42ff" y="23.14175"/>
      </g>
     </g>
     <g id="text_5">
      <!-- 200 -->
      <defs>
       <path d="
M19.1875 8.29688
L53.6094 8.29688
L53.6094 0
L7.32812 0
L7.32812 8.29688
Q12.9375 14.1094 22.625 23.8906
Q32.3281 33.6875 34.8125 36.5312
Q39.5469 41.8438 41.4219 45.5312
Q43.3125 49.2188 43.3125 52.7812
Q43.3125 58.5938 39.2344 62.25
Q35.1562 65.9219 28.6094 65.9219
Q23.9688 65.9219 18.8125 64.3125
Q13.6719 62.7031 7.8125 59.4219
L7.8125 69.3906
Q13.7656 71.7812 18.9375 73
Q24.125 74.2188 28.4219 74.2188
Q39.75 74.2188 46.4844 68.5469
Q53.2188 62.8906 53.2188 53.4219
Q53.2188 48.9219 51.5312 44.8906
Q49.8594 40.875 45.4062 35.4062
Q44.1875 33.9844 37.6406 27.2188
Q31.1094 20.4531 19.1875 8.29688" id="BitstreamVeraSans-Roman-32"/>
      </defs>
      <g transform="translate(285.059614726 381.859875)scale(0.12 -0.12)">
       <use xlink:href="#BitstreamVeraSans-Roman-32"/>
       <use x="63.623046875" xlink:href="#BitstreamVeraSans-Roman-30"/>
       <use x="127.24609375" xlink:href="#BitstreamVeraSans-Roman-30"/>
      </g>
     </g>
    </g>
    <g id="xtick_6">
     <g id="line2d_27">
      <g>
       <use style="stroke:#000000;stroke-width:0.5;" x="356.824674658" xlink:href="#m93b0483c22" y="368.74175"/>
      </g>
     </g>
     <g id="line2d_28">
      <g>
       <use style="stroke:#000000;stroke-width:0.5;" x="356.824674658" xlink:href="#m741efc42ff" y="23.14175"/>
      </g>
     </g>
     <g id="text_6">
      <!-- 250 -->
      <g transform="translate(346.210299658 381.859875)scale(0.12 -0.12)">
       <use xlink:href="#BitstreamVeraSans-Roman-32"/>
       <use x="63.623046875" xlink:href="#BitstreamVeraSans-Roman-35"/>
       <use x="127.24609375" xlink:href="#BitstreamVeraSans-Roman-30"/>
      </g>
     </g>
    </g>
    <g id="xtick_7">
     <g id="line2d_29">
      <g>
       <use style="stroke:#000000;stroke-width:0.5;" x="417.975359589" xlink:href="#m93b0483c22" y="368.74175"/>
      </g>
     </g>
     <g id="line2d_30">
      <g>
       <use style="stroke:#000000;stroke-width:0.5;" x="417.975359589" xlink:href="#m741efc42ff" y="23.14175"/>
      </g>
     </g>
     <g id="text_7">
      <!-- 300 -->
      <defs>
       <path d="
M40.5781 39.3125
Q47.6562 37.7969 51.625 33
Q55.6094 28.2188 55.6094 21.1875
Q55.6094 10.4062 48.1875 4.48438
Q40.7656 -1.42188 27.0938 -1.42188
Q22.5156 -1.42188 17.6562 -0.515625
Q12.7969 0.390625 7.625 2.20312
L7.625 11.7188
Q11.7188 9.32812 16.5938 8.10938
Q21.4844 6.89062 26.8125 6.89062
Q36.0781 6.89062 40.9375 10.5469
Q45.7969 14.2031 45.7969 21.1875
Q45.7969 27.6406 41.2812 31.2656
Q36.7656 34.9062 28.7188 34.9062
L20.2188 34.9062
L20.2188 43.0156
L29.1094 43.0156
Q36.375 43.0156 40.2344 45.9219
Q44.0938 48.8281 44.0938 54.2969
Q44.0938 59.9062 40.1094 62.9062
Q36.1406 65.9219 28.7188 65.9219
Q24.6562 65.9219 20.0156 65.0312
Q15.375 64.1562 9.8125 62.3125
L9.8125 71.0938
Q15.4375 72.6562 20.3438 73.4375
Q25.25 74.2188 29.5938 74.2188
Q40.8281 74.2188 47.3594 69.1094
Q53.9062 64.0156 53.9062 55.3281
Q53.9062 49.2656 50.4375 45.0938
Q46.9688 40.9219 40.5781 39.3125" id="BitstreamVeraSans-Roman-33"/>
      </defs>
      <g transform="translate(407.378797089 381.859875)scale(0.12 -0.12)">
       <use xlink:href="#BitstreamVeraSans-Roman-33"/>
       <use x="63.623046875" xlink:href="#BitstreamVeraSans-Roman-30"/>
       <use x="127.24609375" xlink:href="#BitstreamVeraSans-Roman-30"/>
      </g>
     </g>
    </g>
    <g id="xtick_8">
     <g id="line2d_31">
      <g>
       <use style="stroke:#000000;stroke-width:0.5;" x="479.126044521" xlink:href="#m93b0483c22" y="368.74175"/>
      </g>
     </g>
     <g id="line2d_32">
      <g>
       <use style="stroke:#000000;stroke-width:0.5;" x="479.126044521" xlink:href="#m741efc42ff" y="23.14175"/>
      </g>
     </g>
     <g id="text_8">
      <!-- 350 -->
      <g transform="translate(468.529482021 381.859875)scale(0.12 -0.12)">
       <use xlink:href="#BitstreamVeraSans-Roman-33"/>
       <use x="63.623046875" xlink:href="#BitstreamVeraSans-Roman-35"/>
       <use x="127.24609375" xlink:href="#BitstreamVeraSans-Roman-30"/>
      </g>
     </g>
    </g>
    <g id="text_9">
     <!-- Julian day -->
     <defs>
      <path id="BitstreamVeraSans-Roman-20"/>
      <path d="
M9.8125 72.9062
L19.6719 72.9062
L19.6719 5.07812
Q19.6719 -8.10938 14.6719 -14.0625
Q9.67188 -20.0156 -1.42188 -20.0156
L-5.17188 -20.0156
L-5.17188 -11.7188
L-2.09375 -11.7188
Q4.4375 -11.7188 7.125 -8.04688
Q9.8125 -4.39062 9.8125 5.07812
z
" id="BitstreamVeraSans-Roman-4a"/>
      <path d="
M54.8906 33.0156
L54.8906 0
L45.9062 0
L45.9062 32.7188
Q45.9062 40.4844 42.875 44.3281
Q39.8438 48.1875 33.7969 48.1875
Q26.5156 48.1875 22.3125 43.5469
Q18.1094 38.9219 18.1094 30.9062
L18.1094 0
L9.07812 0
L9.07812 54.6875
L18.1094 54.6875
L18.1094 46.1875
Q21.3438 51.125 25.7031 53.5625
Q30.0781 56 35.7969 56
Q45.2188 56 50.0469 50.1719
Q54.8906 44.3438 54.8906 33.0156" id="BitstreamVeraSans-Roman-6e"/>
      <path d="
M9.42188 75.9844
L18.4062 75.9844
L18.4062 0
L9.42188 0
z
" id="BitstreamVeraSans-Roman-6c"/>
      <path d="
M9.42188 54.6875
L18.4062 54.6875
L18.4062 0
L9.42188 0
z

M9.42188 75.9844
L18.4062 75.9844
L18.4062 64.5938
L9.42188 64.5938
z
" id="BitstreamVeraSans-Roman-69"/>
      <path d="
M32.1719 -5.07812
Q28.375 -14.8438 24.75 -17.8125
Q21.1406 -20.7969 15.0938 -20.7969
L7.90625 -20.7969
L7.90625 -13.2812
L13.1875 -13.2812
Q16.8906 -13.2812 18.9375 -11.5156
Q21 -9.76562 23.4844 -3.21875
L25.0938 0.875
L2.98438 54.6875
L12.5 54.6875
L29.5938 11.9219
L46.6875 54.6875
L56.2031 54.6875
z
" id="BitstreamVeraSans-Roman-79"/>
      <path d="
M45.4062 46.3906
L45.4062 75.9844
L54.3906 75.9844
L54.3906 0
L45.4062 0
L45.4062 8.20312
Q42.5781 3.32812 38.25 0.953125
Q33.9375 -1.42188 27.875 -1.42188
Q17.9688 -1.42188 11.7344 6.48438
Q5.51562 14.4062 5.51562 27.2969
Q5.51562 40.1875 11.7344 48.0938
Q17.9688 56 27.875 56
Q33.9375 56 38.25 53.625
Q42.5781 51.2656 45.4062 46.3906
M14.7969 27.2969
Q14.7969 17.3906 18.875 11.75
Q22.9531 6.10938 30.0781 6.10938
Q37.2031 6.10938 41.2969 11.75
Q45.4062 17.3906 45.4062 27.2969
Q45.4062 37.2031 41.2969 42.8438
Q37.2031 48.4844 30.0781 48.4844
Q22.9531 48.4844 18.875 42.8438
Q14.7969 37.2031 14.7969 27.2969" id="BitstreamVeraSans-Roman-64"/>
      <path d="
M8.5 21.5781
L8.5 54.6875
L17.4844 54.6875
L17.4844 21.9219
Q17.4844 14.1562 20.5 10.2656
Q23.5312 6.39062 29.5938 6.39062
Q36.8594 6.39062 41.0781 11.0312
Q45.3125 15.6719 45.3125 23.6875
L45.3125 54.6875
L54.2969 54.6875
L54.2969 0
L45.3125 0
L45.3125 8.40625
Q42.0469 3.42188 37.7188 1
Q33.4062 -1.42188 27.6875 -1.42188
Q18.2656 -1.42188 13.375 4.4375
Q8.5 10.2969 8.5 21.5781" id="BitstreamVeraSans-Roman-75"/>
      <path d="
M34.2812 27.4844
Q23.3906 27.4844 19.1875 25
Q14.9844 22.5156 14.9844 16.5
Q14.9844 11.7188 18.1406 8.90625
Q21.2969 6.10938 26.7031 6.10938
Q34.1875 6.10938 38.7031 11.4062
Q43.2188 16.7031 43.2188 25.4844
L43.2188 27.4844
z

M52.2031 31.2031
L52.2031 0
L43.2188 0
L43.2188 8.29688
Q40.1406 3.32812 35.5469 0.953125
Q30.9531 -1.42188 24.3125 -1.42188
Q15.9219 -1.42188 10.9531 3.29688
Q6 8.01562 6 15.9219
Q6 25.1406 12.1719 29.8281
Q18.3594 34.5156 30.6094 34.5156
L43.2188 34.5156
L43.2188 35.4062
Q43.2188 41.6094 39.1406 45
Q35.0625 48.3906 27.6875 48.3906
Q23 48.3906 18.5469 47.2656
Q14.1094 46.1406 10.0156 43.8906
L10.0156 52.2031
Q14.9375 54.1094 19.5781 55.0469
Q24.2188 56 28.6094 56
Q40.4844 56 46.3438 49.8438
Q52.2031 43.7031 52.2031 31.2031" id="BitstreamVeraSans-Roman-61"/>
     </defs>
     <g transform="translate(244.8103125 398.473625)scale(0.12 -0.12)">
      <use xlink:href="#BitstreamVeraSans-Roman-4a"/>
      <use x="29.4921875" xlink:href="#BitstreamVeraSans-Roman-75"/>
      <use x="92.87109375" xlink:href="#BitstreamVeraSans-Roman-6c"/>
      <use x="120.654296875" xlink:href="#BitstreamVeraSans-Roman-69"/>
      <use x="148.4375" xlink:href="#BitstreamVeraSans-Roman-61"/>
      <use x="209.716796875" xlink:href="#BitstreamVeraSans-Roman-6e"/>
      <use x="273.095703125" xlink:href="#BitstreamVeraSans-Roman-20"/>
      <use x="304.8828125" xlink:href="#BitstreamVeraSans-Roman-64"/>
      <use x="368.359375" xlink:href="#BitstreamVeraSans-Roman-61"/>
      <use x="429.638671875" xlink:href="#BitstreamVeraSans-Roman-79"/>
     </g>
    </g>
   </g>
   <g id="matplotlib.axis_2">
    <g id="ytick_1">
     <g id="line2d_33">
      <defs>
       <path d="
M0 0
L4 0" id="m728421d6d4" style="stroke:#000000;stroke-width:0.5;"/>
      </defs>
      <g>
       <use style="stroke:#000000;stroke-width:0.5;" x="51.07125" xlink:href="#m728421d6d4" y="368.74175"/>
      </g>
     </g>
     <g id="line2d_34">
      <defs>
       <path d="
M0 0
L-4 0" id="mcb0005524f" style="stroke:#000000;stroke-width:0.5;"/>
      </defs>
      <g>
       <use style="stroke:#000000;stroke-width:0.5;" x="497.47125" xlink:href="#mcb0005524f" y="368.74175"/>
      </g>
     </g>
     <g id="text_10">
      <!-- −10 -->
      <defs>
       <path d="
M10.5938 35.5
L73.1875 35.5
L73.1875 27.2031
L10.5938 27.2031
z
" id="BitstreamVeraSans-Roman-2212"/>
      </defs>
      <g transform="translate(23.81375 372.053)scale(0.12 -0.12)">
       <use xlink:href="#BitstreamVeraSans-Roman-2212"/>
       <use x="83.7890625" xlink:href="#BitstreamVeraSans-Roman-31"/>
       <use x="147.412109375" xlink:href="#BitstreamVeraSans-Roman-30"/>
      </g>
     </g>
    </g>
    <g id="ytick_2">
     <g id="line2d_35">
      <g>
       <use style="stroke:#000000;stroke-width:0.5;" x="51.07125" xlink:href="#m728421d6d4" y="282.34175"/>
      </g>
     </g>
     <g id="line2d_36">
      <g>
       <use style="stroke:#000000;stroke-width:0.5;" x="497.47125" xlink:href="#mcb0005524f" y="282.34175"/>
      </g>
     </g>
     <g id="text_11">
      <!-- −5 -->
      <g transform="translate(31.7 285.653)scale(0.12 -0.12)">
       <use xlink:href="#BitstreamVeraSans-Roman-2212"/>
       <use x="83.7890625" xlink:href="#BitstreamVeraSans-Roman-35"/>
      </g>
     </g>
    </g>
    <g id="ytick_3">
     <g id="line2d_37">
      <g>
       <use style="stroke:#000000;stroke-width:0.5;" x="51.07125" xlink:href="#m728421d6d4" y="195.94175"/>
      </g>
     </g>
     <g id="line2d_38">
      <g>
       <use style="stroke:#000000;stroke-width:0.5;" x="497.47125" xlink:href="#mcb0005524f" y="195.94175"/>
      </g>
     </g>
     <g id="text_12">
      <!-- 0 -->
      <g transform="translate(41.024375 199.253)scale(0.12 -0.12)">
       <use xlink:href="#BitstreamVeraSans-Roman-30"/>
      </g>
     </g>
    </g>
    <g id="ytick_4">
     <g id="line2d_39">
      <g>
       <use style="stroke:#000000;stroke-width:0.5;" x="51.07125" xlink:href="#m728421d6d4" y="109.54175"/>
      </g>
     </g>
     <g id="line2d_40">
      <g>
       <use style="stroke:#000000;stroke-width:0.5;" x="497.47125" xlink:href="#mcb0005524f" y="109.54175"/>
      </g>
     </g>
     <g id="text_13">
      <!-- 5 -->
      <g transform="translate(41.410625 112.853)scale(0.12 -0.12)">
       <use xlink:href="#BitstreamVeraSans-Roman-35"/>
      </g>
     </g>
    </g>
    <g id="ytick_5">
     <g id="line2d_41">
      <g>
       <use style="stroke:#000000;stroke-width:0.5;" x="51.07125" xlink:href="#m728421d6d4" y="23.14175"/>
      </g>
     </g>
     <g id="line2d_42">
      <g>
       <use style="stroke:#000000;stroke-width:0.5;" x="497.47125" xlink:href="#mcb0005524f" y="23.14175"/>
      </g>
     </g>
     <g id="text_14">
      <!-- 10 -->
      <g transform="translate(33.91625 26.453)scale(0.12 -0.12)">
       <use xlink:href="#BitstreamVeraSans-Roman-31"/>
       <use x="63.623046875" xlink:href="#BitstreamVeraSans-Roman-30"/>
      </g>
     </g>
    </g>
    <g id="text_15">
     <!-- PET (mm/day) -->
     <defs>
      <path d="
M52 44.1875
Q55.375 50.25 60.0625 53.125
Q64.75 56 71.0938 56
Q79.6406 56 84.2812 50.0156
Q88.9219 44.0469 88.9219 33.0156
L88.9219 0
L79.8906 0
L79.8906 32.7188
Q79.8906 40.5781 77.0938 44.375
Q74.3125 48.1875 68.6094 48.1875
Q61.625 48.1875 57.5625 43.5469
Q53.5156 38.9219 53.5156 30.9062
L53.5156 0
L44.4844 0
L44.4844 32.7188
Q44.4844 40.625 41.7031 44.4062
Q38.9219 48.1875 33.1094 48.1875
Q26.2188 48.1875 22.1562 43.5312
Q18.1094 38.875 18.1094 30.9062
L18.1094 0
L9.07812 0
L9.07812 54.6875
L18.1094 54.6875
L18.1094 46.1875
Q21.1875 51.2188 25.4844 53.6094
Q29.7812 56 35.6875 56
Q41.6562 56 45.8281 52.9688
Q50 49.9531 52 44.1875" id="BitstreamVeraSans-Roman-6d"/>
      <path d="
M8.01562 75.875
L15.8281 75.875
Q23.1406 64.3594 26.7812 53.3125
Q30.4219 42.2812 30.4219 31.3906
Q30.4219 20.4531 26.7812 9.375
Q23.1406 -1.70312 15.8281 -13.1875
L8.01562 -13.1875
Q14.5 -2 17.7031 9.0625
Q20.9062 20.125 20.9062 31.3906
Q20.9062 42.6719 17.7031 53.6562
Q14.5 64.6562 8.01562 75.875" id="BitstreamVeraSans-Roman-29"/>
      <path d="
M31 75.875
Q24.4688 64.6562 21.2812 53.6562
Q18.1094 42.6719 18.1094 31.3906
Q18.1094 20.125 21.3125 9.0625
Q24.5156 -2 31 -13.1875
L23.1875 -13.1875
Q15.875 -1.70312 12.2344 9.375
Q8.59375 20.4531 8.59375 31.3906
Q8.59375 42.2812 12.2031 53.3125
Q15.8281 64.3594 23.1875 75.875
z
" id="BitstreamVeraSans-Roman-28"/>
      <path d="
M19.6719 64.7969
L19.6719 37.4062
L32.0781 37.4062
Q38.9688 37.4062 42.7188 40.9688
Q46.4844 44.5312 46.4844 51.125
Q46.4844 57.6719 42.7188 61.2344
Q38.9688 64.7969 32.0781 64.7969
z

M9.8125 72.9062
L32.0781 72.9062
Q44.3438 72.9062 50.6094 67.3594
Q56.8906 61.8125 56.8906 51.125
Q56.8906 40.3281 50.6094 34.8125
Q44.3438 29.2969 32.0781 29.2969
L19.6719 29.2969
L19.6719 0
L9.8125 0
z
" id="BitstreamVeraSans-Roman-50"/>
      <path d="
M9.8125 72.9062
L55.9062 72.9062
L55.9062 64.5938
L19.6719 64.5938
L19.6719 43.0156
L54.3906 43.0156
L54.3906 34.7188
L19.6719 34.7188
L19.6719 8.29688
L56.7812 8.29688
L56.7812 0
L9.8125 0
z
" id="BitstreamVeraSans-Roman-45"/>
      <path d="
M-0.296875 72.9062
L61.375 72.9062
L61.375 64.5938
L35.5 64.5938
L35.5 0
L25.5938 0
L25.5938 64.5938
L-0.296875 64.5938
z
" id="BitstreamVeraSans-Roman-54"/>
      <path d="
M25.3906 72.9062
L33.6875 72.9062
L8.29688 -9.28125
L0 -9.28125
z
" id="BitstreamVeraSans-Roman-2f"/>
     </defs>
     <g transform="translate(16.318125 237.8358125)rotate(-90.0)scale(0.12 -0.12)">
      <use xlink:href="#BitstreamVeraSans-Roman-50"/>
      <use x="60.302734375" xlink:href="#BitstreamVeraSans-Roman-45"/>
      <use x="123.486328125" xlink:href="#BitstreamVeraSans-Roman-54"/>
      <use x="184.5703125" xlink:href="#BitstreamVeraSans-Roman-20"/>
      <use x="216.357421875" xlink:href="#BitstreamVeraSans-Roman-28"/>
      <use x="255.37109375" xlink:href="#BitstreamVeraSans-Roman-6d"/>
      <use x="352.783203125" xlink:href="#BitstreamVeraSans-Roman-6d"/>
      <use x="450.1953125" xlink:href="#BitstreamVeraSans-Roman-2f"/>
      <use x="483.88671875" xlink:href="#BitstreamVeraSans-Roman-64"/>
      <use x="547.36328125" xlink:href="#BitstreamVeraSans-Roman-61"/>
      <use x="608.642578125" xlink:href="#BitstreamVeraSans-Roman-79"/>
      <use x="667.822265625" xlink:href="#BitstreamVeraSans-Roman-29"/>
     </g>
    </g>
   </g>
   <g id="text_16">
    <!-- daily tree PET at Treeline -->
    <defs>
     <path d="
M56.2031 29.5938
L56.2031 25.2031
L14.8906 25.2031
Q15.4844 15.9219 20.4844 11.0625
Q25.4844 6.20312 34.4219 6.20312
Q39.5938 6.20312 44.4531 7.46875
Q49.3125 8.73438 54.1094 11.2812
L54.1094 2.78125
Q49.2656 0.734375 44.1875 -0.34375
Q39.1094 -1.42188 33.8906 -1.42188
Q20.7969 -1.42188 13.1562 6.1875
Q5.51562 13.8125 5.51562 26.8125
Q5.51562 40.2344 12.7656 48.1094
Q20.0156 56 32.3281 56
Q43.3594 56 49.7812 48.8906
Q56.2031 41.7969 56.2031 29.5938
M47.2188 32.2344
Q47.125 39.5938 43.0938 43.9844
Q39.0625 48.3906 32.4219 48.3906
Q24.9062 48.3906 20.3906 44.1406
Q15.875 39.8906 15.1875 32.1719
z
" id="BitstreamVeraSans-Roman-65"/>
     <path d="
M18.3125 70.2188
L18.3125 54.6875
L36.8125 54.6875
L36.8125 47.7031
L18.3125 47.7031
L18.3125 18.0156
Q18.3125 11.3281 20.1406 9.42188
Q21.9688 7.51562 27.5938 7.51562
L36.8125 7.51562
L36.8125 0
L27.5938 0
Q17.1875 0 13.2344 3.875
Q9.28125 7.76562 9.28125 18.0156
L9.28125 47.7031
L2.6875 47.7031
L2.6875 54.6875
L9.28125 54.6875
L9.28125 70.2188
z
" id="BitstreamVeraSans-Roman-74"/>
     <path d="
M41.1094 46.2969
Q39.5938 47.1719 37.8125 47.5781
Q36.0312 48 33.8906 48
Q26.2656 48 22.1875 43.0469
Q18.1094 38.0938 18.1094 28.8125
L18.1094 0
L9.07812 0
L9.07812 54.6875
L18.1094 54.6875
L18.1094 46.1875
Q20.9531 51.1719 25.4844 53.5781
Q30.0312 56 36.5312 56
Q37.4531 56 38.5781 55.875
Q39.7031 55.7656 41.0625 55.5156
z
" id="BitstreamVeraSans-Roman-72"/>
    </defs>
    <g transform="translate(185.264625 18.14175)scale(0.144 -0.144)">
     <use xlink:href="#BitstreamVeraSans-Roman-64"/>
     <use x="63.4765625" xlink:href="#BitstreamVeraSans-Roman-61"/>
     <use x="124.755859375" xlink:href="#BitstreamVeraSans-Roman-69"/>
     <use x="152.5390625" xlink:href="#BitstreamVeraSans-Roman-6c"/>
     <use x="180.322265625" xlink:href="#BitstreamVeraSans-Roman-79"/>
     <use x="239.501953125" xlink:href="#BitstreamVeraSans-Roman-20"/>
     <use x="271.2890625" xlink:href="#BitstreamVeraSans-Roman-74"/>
     <use x="310.498046875" xlink:href="#BitstreamVeraSans-Roman-72"/>
     <use x="349.361328125" xlink:href="#BitstreamVeraSans-Roman-65"/>
     <use x="410.884765625" xlink:href="#BitstreamVeraSans-Roman-65"/>
     <use x="472.408203125" xlink:href="#BitstreamVeraSans-Roman-20"/>
     <use x="504.1953125" xlink:href="#BitstreamVeraSans-Roman-50"/>
     <use x="564.498046875" xlink:href="#BitstreamVeraSans-Roman-45"/>
     <use x="627.681640625" xlink:href="#BitstreamVeraSans-Roman-54"/>
     <use x="688.765625" xlink:href="#BitstreamVeraSans-Roman-20"/>
     <use x="720.552734375" xlink:href="#BitstreamVeraSans-Roman-61"/>
     <use x="781.83203125" xlink:href="#BitstreamVeraSans-Roman-74"/>
     <use x="821.041015625" xlink:href="#BitstreamVeraSans-Roman-20"/>
     <use x="852.828125" xlink:href="#BitstreamVeraSans-Roman-54"/>
     <use x="899.162109375" xlink:href="#BitstreamVeraSans-Roman-72"/>
     <use x="938.025390625" xlink:href="#BitstreamVeraSans-Roman-65"/>
     <use x="999.548828125" xlink:href="#BitstreamVeraSans-Roman-65"/>
     <use x="1061.07226562" xlink:href="#BitstreamVeraSans-Roman-6c"/>
     <use x="1088.85546875" xlink:href="#BitstreamVeraSans-Roman-69"/>
     <use x="1116.63867188" xlink:href="#BitstreamVeraSans-Roman-6e"/>
     <use x="1180.01757812" xlink:href="#BitstreamVeraSans-Roman-65"/>
    </g>
   </g>
   <g id="legend_1">
    <g id="patch_7">
     <path d="
M403.646 372.846
L490.271 372.846
L490.271 30.3417
L403.646 30.3417
z
" style="fill:#ffffff;stroke:#000000;stroke-linejoin:miter;"/>
    </g>
    <g id="line2d_43">
     <path d="
M413.726 42.0035
L433.886 42.0035" style="fill:none;stroke:#0000ff;stroke-linecap:square;"/>
    </g>
    <g id="line2d_44"/>
    <g id="text_17">
     <!-- 1999 -->
     <defs>
      <path d="
M10.9844 1.51562
L10.9844 10.5
Q14.7031 8.73438 18.5 7.8125
Q22.3125 6.89062 25.9844 6.89062
Q35.75 6.89062 40.8906 13.4531
Q46.0469 20.0156 46.7812 33.4062
Q43.9531 29.2031 39.5938 26.9531
Q35.25 24.7031 29.9844 24.7031
Q19.0469 24.7031 12.6719 31.3125
Q6.29688 37.9375 6.29688 49.4219
Q6.29688 60.6406 12.9375 67.4219
Q19.5781 74.2188 30.6094 74.2188
Q43.2656 74.2188 49.9219 64.5156
Q56.5938 54.8281 56.5938 36.375
Q56.5938 19.1406 48.4062 8.85938
Q40.2344 -1.42188 26.4219 -1.42188
Q22.7031 -1.42188 18.8906 -0.6875
Q15.0938 0.046875 10.9844 1.51562
M30.6094 32.4219
Q37.25 32.4219 41.125 36.9531
Q45.0156 41.5 45.0156 49.4219
Q45.0156 57.2812 41.125 61.8438
Q37.25 66.4062 30.6094 66.4062
Q23.9688 66.4062 20.0938 61.8438
Q16.2188 57.2812 16.2188 49.4219
Q16.2188 41.5 20.0938 36.9531
Q23.9688 32.4219 30.6094 32.4219" id="BitstreamVeraSans-Roman-39"/>
     </defs>
     <g transform="translate(449.72625 47.0435)scale(0.144 -0.144)">
      <use xlink:href="#BitstreamVeraSans-Roman-31"/>
      <use x="63.623046875" xlink:href="#BitstreamVeraSans-Roman-39"/>
      <use x="127.24609375" xlink:href="#BitstreamVeraSans-Roman-39"/>
      <use x="190.869140625" xlink:href="#BitstreamVeraSans-Roman-39"/>
     </g>
    </g>
    <g id="line2d_45">
     <path d="
M413.726 63.14
L433.886 63.14" style="fill:none;stroke:#008000;stroke-linecap:square;"/>
    </g>
    <g id="line2d_46"/>
    <g id="text_18">
     <!-- 2000 -->
     <g transform="translate(449.72625 68.18)scale(0.144 -0.144)">
      <use xlink:href="#BitstreamVeraSans-Roman-32"/>
      <use x="63.623046875" xlink:href="#BitstreamVeraSans-Roman-30"/>
      <use x="127.24609375" xlink:href="#BitstreamVeraSans-Roman-30"/>
      <use x="190.869140625" xlink:href="#BitstreamVeraSans-Roman-30"/>
     </g>
    </g>
    <g id="line2d_47">
     <path d="
M413.726 84.2765
L433.886 84.2765" style="fill:none;stroke:#ff0000;stroke-linecap:square;"/>
    </g>
    <g id="line2d_48"/>
    <g id="text_19">
     <!-- 2001 -->
     <g transform="translate(449.72625 89.3165)scale(0.144 -0.144)">
      <use xlink:href="#BitstreamVeraSans-Roman-32"/>
      <use x="63.623046875" xlink:href="#BitstreamVeraSans-Roman-30"/>
      <use x="127.24609375" xlink:href="#BitstreamVeraSans-Roman-30"/>
      <use x="190.869140625" xlink:href="#BitstreamVeraSans-Roman-31"/>
     </g>
    </g>
    <g id="line2d_49">
     <path d="
M413.726 105.413
L433.886 105.413" style="fill:none;stroke:#00bfbf;stroke-linecap:square;"/>
    </g>
    <g id="line2d_50"/>
    <g id="text_20">
     <!-- 2002 -->
     <g transform="translate(449.72625 110.453)scale(0.144 -0.144)">
      <use xlink:href="#BitstreamVeraSans-Roman-32"/>
      <use x="63.623046875" xlink:href="#BitstreamVeraSans-Roman-30"/>
      <use x="127.24609375" xlink:href="#BitstreamVeraSans-Roman-30"/>
      <use x="190.869140625" xlink:href="#BitstreamVeraSans-Roman-32"/>
     </g>
    </g>
    <g id="line2d_51">
     <path d="
M413.726 126.549
L433.886 126.549" style="fill:none;stroke:#bf00bf;stroke-linecap:square;"/>
    </g>
    <g id="line2d_52"/>
    <g id="text_21">
     <!-- 2003 -->
     <g transform="translate(449.72625 131.5895)scale(0.144 -0.144)">
      <use xlink:href="#BitstreamVeraSans-Roman-32"/>
      <use x="63.623046875" xlink:href="#BitstreamVeraSans-Roman-30"/>
      <use x="127.24609375" xlink:href="#BitstreamVeraSans-Roman-30"/>
      <use x="190.869140625" xlink:href="#BitstreamVeraSans-Roman-33"/>
     </g>
    </g>
    <g id="line2d_53">
     <path d="
M413.726 147.686
L433.886 147.686" style="fill:none;stroke:#bfbf00;stroke-linecap:square;"/>
    </g>
    <g id="line2d_54"/>
    <g id="text_22">
     <!-- 2004 -->
     <defs>
      <path d="
M37.7969 64.3125
L12.8906 25.3906
L37.7969 25.3906
z

M35.2031 72.9062
L47.6094 72.9062
L47.6094 25.3906
L58.0156 25.3906
L58.0156 17.1875
L47.6094 17.1875
L47.6094 0
L37.7969 0
L37.7969 17.1875
L4.89062 17.1875
L4.89062 26.7031
z
" id="BitstreamVeraSans-Roman-34"/>
     </defs>
     <g transform="translate(449.72625 152.726)scale(0.144 -0.144)">
      <use xlink:href="#BitstreamVeraSans-Roman-32"/>
      <use x="63.623046875" xlink:href="#BitstreamVeraSans-Roman-30"/>
      <use x="127.24609375" xlink:href="#BitstreamVeraSans-Roman-30"/>
      <use x="190.869140625" xlink:href="#BitstreamVeraSans-Roman-34"/>
     </g>
    </g>
    <g id="line2d_55">
     <path d="
M413.726 168.822
L433.886 168.822" style="fill:none;stroke:#000000;stroke-linecap:square;"/>
    </g>
    <g id="line2d_56"/>
    <g id="text_23">
     <!-- 2005 -->
     <g transform="translate(449.72625 173.8625)scale(0.144 -0.144)">
      <use xlink:href="#BitstreamVeraSans-Roman-32"/>
      <use x="63.623046875" xlink:href="#BitstreamVeraSans-Roman-30"/>
      <use x="127.24609375" xlink:href="#BitstreamVeraSans-Roman-30"/>
      <use x="190.869140625" xlink:href="#BitstreamVeraSans-Roman-35"/>
     </g>
    </g>
    <g id="line2d_57">
     <path d="
M413.726 189.959
L433.886 189.959" style="fill:none;stroke:#0000ff;stroke-linecap:square;"/>
    </g>
    <g id="line2d_58"/>
    <g id="text_24">
     <!-- 2006 -->
     <defs>
      <path d="
M33.0156 40.375
Q26.375 40.375 22.4844 35.8281
Q18.6094 31.2969 18.6094 23.3906
Q18.6094 15.5312 22.4844 10.9531
Q26.375 6.39062 33.0156 6.39062
Q39.6562 6.39062 43.5312 10.9531
Q47.4062 15.5312 47.4062 23.3906
Q47.4062 31.2969 43.5312 35.8281
Q39.6562 40.375 33.0156 40.375
M52.5938 71.2969
L52.5938 62.3125
Q48.875 64.0625 45.0938 64.9844
Q41.3125 65.9219 37.5938 65.9219
Q27.8281 65.9219 22.6719 59.3281
Q17.5312 52.7344 16.7969 39.4062
Q19.6719 43.6562 24.0156 45.9219
Q28.375 48.1875 33.5938 48.1875
Q44.5781 48.1875 50.9531 41.5156
Q57.3281 34.8594 57.3281 23.3906
Q57.3281 12.1562 50.6875 5.35938
Q44.0469 -1.42188 33.0156 -1.42188
Q20.3594 -1.42188 13.6719 8.26562
Q6.98438 17.9688 6.98438 36.375
Q6.98438 53.6562 15.1875 63.9375
Q23.3906 74.2188 37.2031 74.2188
Q40.9219 74.2188 44.7031 73.4844
Q48.4844 72.75 52.5938 71.2969" id="BitstreamVeraSans-Roman-36"/>
     </defs>
     <g transform="translate(449.72625 194.999)scale(0.144 -0.144)">
      <use xlink:href="#BitstreamVeraSans-Roman-32"/>
      <use x="63.623046875" xlink:href="#BitstreamVeraSans-Roman-30"/>
      <use x="127.24609375" xlink:href="#BitstreamVeraSans-Roman-30"/>
      <use x="190.869140625" xlink:href="#BitstreamVeraSans-Roman-36"/>
     </g>
    </g>
    <g id="line2d_59">
     <path d="
M413.726 211.095
L433.886 211.095" style="fill:none;stroke:#008000;stroke-linecap:square;"/>
    </g>
    <g id="line2d_60"/>
    <g id="text_25">
     <!-- 2007 -->
     <defs>
      <path d="
M8.20312 72.9062
L55.0781 72.9062
L55.0781 68.7031
L28.6094 0
L18.3125 0
L43.2188 64.5938
L8.20312 64.5938
z
" id="BitstreamVeraSans-Roman-37"/>
     </defs>
     <g transform="translate(449.72625 216.1355)scale(0.144 -0.144)">
      <use xlink:href="#BitstreamVeraSans-Roman-32"/>
      <use x="63.623046875" xlink:href="#BitstreamVeraSans-Roman-30"/>
      <use x="127.24609375" xlink:href="#BitstreamVeraSans-Roman-30"/>
      <use x="190.869140625" xlink:href="#BitstreamVeraSans-Roman-37"/>
     </g>
    </g>
    <g id="line2d_61">
     <path d="
M413.726 232.232
L433.886 232.232" style="fill:none;stroke:#ff0000;stroke-linecap:square;"/>
    </g>
    <g id="line2d_62"/>
    <g id="text_26">
     <!-- 2008 -->
     <defs>
      <path d="
M31.7812 34.625
Q24.75 34.625 20.7188 30.8594
Q16.7031 27.0938 16.7031 20.5156
Q16.7031 13.9219 20.7188 10.1562
Q24.75 6.39062 31.7812 6.39062
Q38.8125 6.39062 42.8594 10.1719
Q46.9219 13.9688 46.9219 20.5156
Q46.9219 27.0938 42.8906 30.8594
Q38.875 34.625 31.7812 34.625
M21.9219 38.8125
Q15.5781 40.375 12.0312 44.7188
Q8.5 49.0781 8.5 55.3281
Q8.5 64.0625 14.7188 69.1406
Q20.9531 74.2188 31.7812 74.2188
Q42.6719 74.2188 48.875 69.1406
Q55.0781 64.0625 55.0781 55.3281
Q55.0781 49.0781 51.5312 44.7188
Q48 40.375 41.7031 38.8125
Q48.8281 37.1562 52.7969 32.3125
Q56.7812 27.4844 56.7812 20.5156
Q56.7812 9.90625 50.3125 4.23438
Q43.8438 -1.42188 31.7812 -1.42188
Q19.7344 -1.42188 13.25 4.23438
Q6.78125 9.90625 6.78125 20.5156
Q6.78125 27.4844 10.7812 32.3125
Q14.7969 37.1562 21.9219 38.8125
M18.3125 54.3906
Q18.3125 48.7344 21.8438 45.5625
Q25.3906 42.3906 31.7812 42.3906
Q38.1406 42.3906 41.7188 45.5625
Q45.3125 48.7344 45.3125 54.3906
Q45.3125 60.0625 41.7188 63.2344
Q38.1406 66.4062 31.7812 66.4062
Q25.3906 66.4062 21.8438 63.2344
Q18.3125 60.0625 18.3125 54.3906" id="BitstreamVeraSans-Roman-38"/>
     </defs>
     <g transform="translate(449.72625 237.272)scale(0.144 -0.144)">
      <use xlink:href="#BitstreamVeraSans-Roman-32"/>
      <use x="63.623046875" xlink:href="#BitstreamVeraSans-Roman-30"/>
      <use x="127.24609375" xlink:href="#BitstreamVeraSans-Roman-30"/>
      <use x="190.869140625" xlink:href="#BitstreamVeraSans-Roman-38"/>
     </g>
    </g>
    <g id="line2d_63">
     <path d="
M413.726 253.368
L433.886 253.368" style="fill:none;stroke:#00bfbf;stroke-linecap:square;"/>
    </g>
    <g id="line2d_64"/>
    <g id="text_27">
     <!-- 2009 -->
     <g transform="translate(449.72625 258.4085)scale(0.144 -0.144)">
      <use xlink:href="#BitstreamVeraSans-Roman-32"/>
      <use x="63.623046875" xlink:href="#BitstreamVeraSans-Roman-30"/>
      <use x="127.24609375" xlink:href="#BitstreamVeraSans-Roman-30"/>
      <use x="190.869140625" xlink:href="#BitstreamVeraSans-Roman-39"/>
     </g>
    </g>
    <g id="line2d_65">
     <path d="
M413.726 274.505
L433.886 274.505" style="fill:none;stroke:#bf00bf;stroke-linecap:square;"/>
    </g>
    <g id="line2d_66"/>
    <g id="text_28">
     <!-- 2010 -->
     <g transform="translate(449.72625 279.545)scale(0.144 -0.144)">
      <use xlink:href="#BitstreamVeraSans-Roman-32"/>
      <use x="63.623046875" xlink:href="#BitstreamVeraSans-Roman-30"/>
      <use x="127.24609375" xlink:href="#BitstreamVeraSans-Roman-31"/>
      <use x="190.869140625" xlink:href="#BitstreamVeraSans-Roman-30"/>
     </g>
    </g>
    <g id="line2d_67">
     <path d="
M413.726 295.641
L433.886 295.641" style="fill:none;stroke:#bfbf00;stroke-linecap:square;"/>
    </g>
    <g id="line2d_68"/>
    <g id="text_29">
     <!-- 2011 -->
     <g transform="translate(449.72625 300.6815)scale(0.144 -0.144)">
      <use xlink:href="#BitstreamVeraSans-Roman-32"/>
      <use x="63.623046875" xlink:href="#BitstreamVeraSans-Roman-30"/>
      <use x="127.24609375" xlink:href="#BitstreamVeraSans-Roman-31"/>
      <use x="190.869140625" xlink:href="#BitstreamVeraSans-Roman-31"/>
     </g>
    </g>
    <g id="line2d_69">
     <path d="
M413.726 316.778
L433.886 316.778" style="fill:none;stroke:#000000;stroke-linecap:square;"/>
    </g>
    <g id="line2d_70"/>
    <g id="text_30">
     <!-- 2012 -->
     <g transform="translate(449.72625 321.818)scale(0.144 -0.144)">
      <use xlink:href="#BitstreamVeraSans-Roman-32"/>
      <use x="63.623046875" xlink:href="#BitstreamVeraSans-Roman-30"/>
      <use x="127.24609375" xlink:href="#BitstreamVeraSans-Roman-31"/>
      <use x="190.869140625" xlink:href="#BitstreamVeraSans-Roman-32"/>
     </g>
    </g>
    <g id="line2d_71">
     <path d="
M413.726 337.914
L433.886 337.914" style="fill:none;stroke:#0000ff;stroke-linecap:square;"/>
    </g>
    <g id="line2d_72"/>
    <g id="text_31">
     <!-- 2013 -->
     <g transform="translate(449.72625 342.9545)scale(0.144 -0.144)">
      <use xlink:href="#BitstreamVeraSans-Roman-32"/>
      <use x="63.623046875" xlink:href="#BitstreamVeraSans-Roman-30"/>
      <use x="127.24609375" xlink:href="#BitstreamVeraSans-Roman-31"/>
      <use x="190.869140625" xlink:href="#BitstreamVeraSans-Roman-33"/>
     </g>
    </g>
    <g id="line2d_73">
     <path d="
M413.726 359.051
L433.886 359.051" style="fill:none;stroke:#008000;stroke-linecap:square;"/>
    </g>
    <g id="line2d_74"/>
    <g id="text_32">
     <!-- 2014 -->
     <g transform="translate(449.72625 364.091)scale(0.144 -0.144)">
      <use xlink:href="#BitstreamVeraSans-Roman-32"/>
      <use x="63.623046875" xlink:href="#BitstreamVeraSans-Roman-30"/>
      <use x="127.24609375" xlink:href="#BitstreamVeraSans-Roman-31"/>
      <use x="190.869140625" xlink:href="#BitstreamVeraSans-Roman-34"/>
     </g>
    </g>
   </g>
  </g>
 </g>
 <defs>
  <clipPath id="p5fc3a60927">
   <rect height="345.6" width="446.4" x="51.07125" y="23.14175"/>
  </clipPath>
 </defs>
</svg>
