<?xml version="1.0" encoding="utf-8" standalone="no"?>
<!DOCTYPE svg PUBLIC "-//W3C//DTD SVG 1.1//EN"
  "http://www.w3.org/Graphics/SVG/1.1/DTD/svg11.dtd">
<!-- Created with matplotlib (http://matplotlib.org/) -->
<svg height="408pt" version="1.1" viewBox="0 0 504 408" width="504pt" xmlns="http://www.w3.org/2000/svg" xmlns:xlink="http://www.w3.org/1999/xlink">
 <defs>
  <style type="text/css">
*{stroke-linecap:butt;stroke-linejoin:round;}
  </style>
 </defs>
 <g id="figure_1">
  <g id="patch_1">
   <path d="
M0 408.169
L504.671 408.169
L504.671 0
L0 0
z
" style="fill:#ffffff;"/>
  </g>
  <g id="axes_1">
   <g id="patch_2">
    <path d="
M51.0713 368.742
L497.471 368.742
L497.471 23.1417
L51.0713 23.1417
z
" style="fill:#ffffff;"/>
   </g>
   <g id="line2d_1">
    <path clip-path="url(#p5fc3a60927)" d="
M0 0" style="fill:none;stroke:#0000ff;stroke-linecap:square;"/>
   </g>
   <g id="line2d_2">
    <path clip-path="url(#p5fc3a60927)" d="
M0 0" style="fill:none;stroke:#008000;stroke-linecap:square;"/>
   </g>
   <g id="line2d_3">
    <path clip-path="url(#p5fc3a60927)" d="
M0 0" style="fill:none;stroke:#ff0000;stroke-linecap:square;"/>
   </g>
   <g id="line2d_4">
    <path clip-path="url(#p5fc3a60927)" d="
M0 0" style="fill:none;stroke:#00bfbf;stroke-linecap:square;"/>
   </g>
   <g id="line2d_5">
    <path clip-path="url(#p5fc3a60927)" d="
M0 0" style="fill:none;stroke:#bf00bf;stroke-linecap:square;"/>
   </g>
   <g id="line2d_6">
    <path clip-path="url(#p5fc3a60927)" d="
M0 0" style="fill:none;stroke:#bfbf00;stroke-linecap:square;"/>
   </g>
   <g id="line2d_7">
    <path clip-path="url(#p5fc3a60927)" d="
M0 0" style="fill:none;stroke:#000000;stroke-linecap:square;"/>
   </g>
   <g id="line2d_8">
    <path clip-path="url(#p5fc3a60927)" d="
M0 0" style="fill:none;stroke:#0000ff;stroke-linecap:square;"/>
   </g>
   <g id="line2d_9">
    <path clip-path="url(#p5fc3a60927)" d="
M0 0" style="fill:none;stroke:#008000;stroke-linecap:square;"/>
   </g>
   <g id="line2d_10">
    <path clip-path="url(#p5fc3a60927)" d="
M51.3045 409.169
L51.5105 -1
M55.9609 -1
L55.9633 194.703
L57.1863 270.895
L58.3188 409.169
M60.5806 409.169
L60.8554 274.392
L62.0784 209.967
L63.3014 278.95
L64.5244 191.717
L65.7474 181.213
L66.9704 177.667
L68.1934 2.86047
L69.1302 409.169
M70.1638 409.169
L70.6395 330.13
L73.0855 188.589
L74.3085 242.465
L75.5315 235.473
L76.7545 248.251
L77.9776 225.936
L79.2006 281.972
L80.4236 275.51
L80.7323 -1
M84.0812 -1
L84.0926 86.1884
L85.3156 357.733
L86.5386 296.363
L87.1685 409.169
M88.8092 409.169
L88.9847 391.38
L89.02 409.169
M93.6167 409.169
L93.8767 331.469
L95.0997 340.574
L96.3228 373.683
L97.5458 248.705
L98.7688 82.2829
L99.894 -1
M101.987 -1
L102.438 73.8461
L102.491 -1
M104.603 -1
L104.837 409.169
M105.232 409.169
L106.107 204.6
L107.33 177.798
L108.553 123.348
L109.776 180.836
L110.999 169.108
L112.222 185.753
L113.445 165.469
L114.668 201.092
L115.891 115.767
L116.568 -1
M117.581 -1
L118.337 151.551
L119.56 153.65
L120.783 162.964
L122.006 120.455
L122.202 -1
M125.005 -1
L125.54 409.169
M125.997 409.169
L126.898 118.269
L128.121 406.927
L129.344 103.732
L130.567 117.449
L131.79 128.301
L133.013 68.266
L134.236 122.141
L135.135 -1
M136.659 -1
L136.682 -0.122226
L137.905 60.3951
L139.128 86.8623
L140.351 184.369
L141.574 190.125
L142.797 106.373
L144.02 148.896
L145.243 137.344
L146.046 -1
M146.943 -1
L147.689 112.351
L148.912 206.879
L150.135 117.254
L150.228 -1
M152.495 -1
L152.581 108.739
L155.027 194.985
L156.25 323.146
L156.638 -1
M158.34 -1
L158.696 287.278
L159.919 161.106
L161.142 262.064
L162.103 -1
M162.917 -1
L163.589 86.5779
L164.812 66.2847
L165.086 -1
M166.855 -1
L167.258 112.805
L168.481 134.959
L169.704 160.09
L170.927 100.482
L172.15 170.839
L173.373 108.719
L174.525 -1
M179.379 -1
L179.488 172.996
L180.711 21.0744
L181.2 -1
M182.59 -1
L183.157 27.6085
L183.346 -1
M184.878 -1
L185.603 226.736
L186.826 156.739
L187.093 -1
M189.141 -1
L189.272 66.4083
L190.495 113.063
L191.205 -1
M233.283 -1
L233.3 7.85048
L233.828 -1
M239.065 -1
L239.415 40.3132
L239.476 -1
M389.397 -1
L389.846 40.1013
L391.069 69.2173
L392.081 -1
M395.99 -1
L397.184 288.729
L398.015 409.169
M398.558 409.169
L399.63 5.95462
L400.853 112.761
L402.076 56.9718
L403.299 44.2708
L404.522 65.7876
L404.767 -1
M411.602 -1
L411.86 112.235
L413.083 59.5591
L414.306 37.2597
L414.454 -1
M417.912 -1
L417.975 12.9545
L419.198 8.81508
L419.445 -1
M425.303 -1
L425.313 61.9705
L426.536 74.5681
L427.759 97.3731
L428.982 177.535
L430.205 183.648
L431.429 98.7525
L431.714 -1
M433.571 -1
L433.875 107.078
L435.098 4.50135
L436.321 185.632
L437.157 -1
M439.799 -1
L439.99 91.9907
L441.213 119.73
L442.436 95.9219
L442.893 -1
M444.677 -1
L444.882 31.5948
L446.105 103.116
L446.235 -1
M448.41 -1
L448.551 111.814
L449.774 132.579
L450.997 179.602
L451.787 -1
M452.804 -1
L453.443 107.308
L454.666 120.329
L455.889 122.153
L457.112 63.476
L457.43 -1
M460.157 -1
L460.781 105.121
L461.592 -1
M462.317 -1
L463.227 155.925
L464.45 161.759
L465.673 166.674
L466.896 109.919
L468.119 122.945
L469.342 304.963
L470.565 175.693
L471.788 154.039
L473.011 174.407
L474.234 178.519
L475.457 229.044
L476.68 301.683
L476.689 409.169
M479.115 409.169
L479.126 273.596
L480.349 350.626
L480.639 409.169
M482.737 409.169
L482.795 399.836
L484.018 394.627
L484.063 409.169
M486.075 409.169
L486.464 232.748
L487.687 254.345
L487.74 409.169
M490.114 409.169
L490.133 354.042
L490.504 409.169
M491.863 409.169
L492.579 230.732
L493.802 168.11
L494.105 -1
M495.798 -1
L496.248 297.931
L496.248 297.931" style="fill:none;stroke:#ff0000;stroke-linecap:square;"/>
   </g>
   <g id="line2d_11">
    <path clip-path="url(#p5fc3a60927)" d="
M51.0713 148.927
L51.4658 -1
M52.9324 -1
L53.5173 287.484
L53.8946 409.169
M56.5842 409.169
L57.1863 74.593
L57.3367 -1
M60.0866 -1
L60.8554 301.06
L62.0784 163.723
L63.3198 -1
M65.3001 -1
L65.7474 73.9362
L66.9704 83.3463
L68.1934 149.733
L69.4165 161.102
L70.6395 183.323
L71.8625 189.479
L73.0855 159.516
L74.3085 184.236
L75.5315 154.016
L76.7545 177.025
L77.9776 210.48
L79.2006 193.601
L80.4236 254.047
L81.6466 281.877
L82.8696 263.234
L84.0072 409.169
M84.1558 409.169
L85.3156 207.93
L86.5386 139.554
L87.7617 191.941
L88.9847 195.97
L90.2077 143.654
L90.7085 -1
M95.0723 -1
L95.0997 139.725
L96.3228 169.118
L97.5458 192.536
L98.7688 243.821
L99.6417 409.169
M100.297 409.169
L101.215 210.128
L102.438 224.089
L102.463 409.169
M104.867 409.169
L104.884 285.059
L104.884 285.059
L104.884 285.059
L104.898 409.169
M107.09 409.169
L107.127 -1
M108.446 -1
L108.553 208.934
L109.776 168.526
L110.999 115.336
L112.222 158.576
L113.103 -1
M117.069 -1
L117.114 34.8632
L118.337 170.905
L119.56 159.905
L120.783 247.991
L120.863 -1
M125.647 -1
L125.675 114.155
L126.898 197.376
L128.121 248.637
L129.344 360.704
L130.567 209.544
L131.79 238.528
L133.013 307.589
L133.604 409.169
M134.665 409.169
L135.459 207.784
L136.682 186.221
L137.905 143.668
L138.675 -1
M139.815 -1
L140.351 65.5512
L141.574 12.5803
L142.797 82.8514
L144.02 70.1658
L144.701 -1
M148.248 -1
L148.912 118.567
L150.135 58.7148
L151.358 90.8427
L152.581 245.75
L153.804 181.389
L155.027 107.517
L156.25 125.97
L156.521 -1
M158.466 -1
L158.696 102.953
L159.919 189.073
L161.142 211.858
L162.365 141.51
L163.589 263.5
L164.209 -1
M169.702 -1
L169.704 3.09834
L170.927 21.3871
L172.15 135.443
L173.373 63.1081
L173.941 -1
M175.664 -1
L175.819 9.70829
L177.042 14.1877
L177.063 -1
M193.984 -1
L194.164 147.371
L195.387 96.8492
L196.61 71.2701
L196.668 -1
M203.601 -1
L203.948 40.3471
L204.194 -1
M241.735 -1
L241.861 44.806
L242.39 -1
M251.577 -1
L251.645 46.4791
L252.795 -1
M258.893 -1
L258.984 22.0121
L260.207 28.0639
L260.484 -1
M317.594 -1
L317.688 122.215
L318.785 -1
M385.412 -1
L387.4 103.29
L388.623 194.617
L389.846 192.376
L391.069 117.243
L392.292 62.8167
L392.708 -1
M395.115 -1
L395.961 153.798
L397.184 112.931
L398.407 9.71852
L398.411 -1
M401.743 -1
L402.076 61.5008
L403.299 -1
M405.743 -1
L405.745 13.4182
L405.945 -1
M409.203 -1
L409.414 105.552
L410.129 -1
M411.834 -1
L411.86 0.693861
L411.86 0.693861
L411.86 0.693861
L411.865 -1
M414.101 -1
L414.306 97.6535
L414.595 -1
M416.182 -1
L416.752 277.059
L417.975 151.22
L419.198 231.948
L420.421 47.084
L421.644 85.1959
L422.867 35.2875
L424.09 99.6322
L425.313 108.747
L425.433 -1
M428.777 -1
L428.982 109.651
L430.205 145.266
L431.429 61.0839
L431.445 -1
M434.33 -1
L435.098 119.114
L436.321 202.12
L437.544 205.262
L438.767 213.531
L439.99 194.875
L440.061 -1
M443.587 -1
L443.659 123.287
L443.82 -1
M447.323 -1
L447.328 188.254
L448.022 409.169
M449.091 409.169
L449.774 196.399
L450.997 178.451
L452.22 173.508
L452.72 -1
M456.793 -1
L457.112 146.361
M459.558 139.743
L460.781 236.611
L462.004 227.249
L463.227 189.167
L463.639 409.169
M466.715 409.169
L466.896 310.219
L468.119 316.573
L469.342 252.373
L473.011 220.678
L474.234 217.939
L475.457 194.507
L476.17 409.169
M477.171 409.169
L477.903 180.259
L479.126 167.939
L480.349 187.063
L481.572 171.288
L482.795 4.72538
L484.018 1.87325
L485.299 409.169
M487.484 409.169
L487.687 228.166
L488.91 208.118
L490.133 244.886
L491.356 244.168
L492.579 227.836
L493.802 230.235
L495.025 298.107
L496.248 336.806
L496.248 336.806" style="fill:none;stroke:#00bfbf;stroke-linecap:square;"/>
   </g>
   <g id="line2d_12">
    <path clip-path="url(#p5fc3a60927)" d="
M51.0713 160.006
L52.2943 190.147
L53.5173 184.074
L54.7403 137.18
L55.9633 161.856
L57.1863 112.577
L58.4093 224.227
L59.6323 213.91
L60.8554 193.591
L62.0784 158.986
L62.1073 -1
M66.1553 -1
L66.9704 167.445
L67.1758 -1
M69.2542 -1
L69.4165 126.657
L69.6831 -1
M76.6636 -1
L76.7545 194.361
L77.9776 279.841
L79.2006 207.391
L80.4236 146.1
L81.6466 190.952
L82.8696 196.184
L84.0926 191.707
L85.3156 181.611
L87.7617 225.385
L88.9847 207.875
L90.2077 163.038
L91.4307 174.353
L92.6537 137.63
L93.8767 131.574
L95.0997 75.636
L96.3228 187.025
L97.5458 206.554
L98.7688 209.888
L99.9918 189.291
L101.215 172.155
L102.438 121.846
L103.661 175.129
L104.884 142.389
L106.107 195.338
L107.33 192.889
L108.553 194.473
L109.776 192.491
L110.999 199.996
L112.222 212.862
L113.445 239.505
L114.668 204.215
L115.891 41.1798
L117.114 177.661
L118.337 166.646
L118.343 -1
M126.234 -1
L126.898 41.7901
L128.121 89.1165
L128.898 -1
M129.781 -1
L130.567 92.0272
L131.79 95.0288
L132.964 409.169
M133.082 409.169
L134.236 188.875
L135.459 107.834
L135.462 -1
M138.012 -1
L139.128 121.167
L140.351 15.1466
L140.354 -1
M148.275 -1
L148.912 43.4214
L150.135 29.2561
L150.151 -1
M153.323 -1
L153.804 224.814
L154.784 -1
M158.119 -1
L158.696 200.518
L159.919 147.126
L161.142 244.645
L162.365 258.682
L163.589 228.439
L164.103 -1
M165.633 -1
L166.035 153.02
L167.258 80.6449
L168.481 78.8915
L168.57 -1
M170.786 -1
L170.927 130.101
L171.24 -1
M174.96 -1
L175.819 117.59
L175.977 -1
M193.78 -1
L194.164 188.732
L195.387 169.666
L196.011 -1
M197.464 -1
L197.833 69.5919
L198.014 -1
M202.22 -1
L202.725 51.5421
L203.956 -1
M208.535 -1
L208.84 70.1882
L208.929 -1
M218.613 -1
L218.624 28.6192
L218.785 -1
M222.421 -1
L223.516 199.883
L224.739 44.5545
L225.962 24.7636
L225.986 -1
M229.622 -1
L229.631 6.27386
L229.631 6.27386
L229.631 6.27386
L229.7 -1
M231.759 -1
L232.077 41.8507
L233.584 -1
M235.075 -1
L235.746 40.7574
L236.969 90.1894
L237.899 -1
M239.157 -1
L239.415 6.70061
L239.606 -1
M344.529 -1
L344.595 59.4678
L345.082 -1
M346.737 -1
L347.041 29.1437
L347.162 -1
M357.929 -1
L358.048 30.3242
L359.25 -1
M388.467 -1
L388.623 47.0824
L388.919 -1
M393.436 -1
L393.515 99.6488
L394.738 52.8871
L395.249 -1
M398.284 -1
L398.407 43.1497
L398.778 -1
M407.497 -1
L408.191 49.3823
L409.414 23.2561
L410.176 -1
M410.841 -1
L411.86 72.6747
L412.261 -1
M413.674 -1
L414.306 160.614
L415.529 208.724
L416.419 -1
M420.263 -1
L420.421 25.032
L421.644 133.595
L422.229 -1
M423.768 -1
L424.09 51.5428
L424.716 -1
M426.526 -1
L426.536 -0.573821
L426.536 -0.573821
L426.536 -0.573821
L426.538 -1
M430.653 -1
L431.429 115.94
L432.652 98.3477
L433.875 261.414
L435.098 195.64
L436.321 159.993
L437.544 195.5
L438.767 69.9445
L439.99 13.2353
L440.111 -1
M444.118 -1
L444.882 212.564
L446.105 213.212
L447.114 409.169
M447.592 409.169
L448.551 258.831
L449.108 409.169
M451.641 409.169
L452.22 247.114
L452.779 409.169
M454.103 409.169
L454.666 245.054
L454.896 409.169
M456.948 409.169
L457.112 299.71
L457.55 409.169
M458.906 409.169
L459.558 185.943
L460.781 143.877
L462.004 190.682
L463.227 206.715
L464.45 123.306
L465.673 108.858
L465.982 -1
M468.767 -1
L469.342 151.691
L470.565 92.5136
L471.788 147.196
L473.011 81.612
L474.234 119.34
L475.457 52.3473
L476.68 222.555
L477.903 232.76
L478.181 409.169
M479.921 409.169
L480.349 86.326
L481.572 188.222
L482.795 274.806
L483.981 409.169
M484.024 409.169
L484.58 -1
M486.144 -1
L486.464 171.88
L486.489 -1
M490.215 -1
L491.356 203.301
L492.579 390.001
L493.802 357.604
L493.851 409.169
L493.851 409.169" style="fill:none;stroke:#bf00bf;stroke-linecap:square;"/>
   </g>
   <g id="line2d_13">
    <path clip-path="url(#p5fc3a60927)" d="
M51.0713 230.839
L52.2943 230.126
L53.5173 227.303
L54.7403 228.516
L55.9633 196.187
L57.1863 183.963
L58.4093 181.787
L59.6323 254.232
L60.8554 273.908
L62.0784 246.927
L62.1432 409.169
M64.4328 409.169
L64.5244 174.403
L65.7474 155.556
L66.9704 119.554
L68.1934 144.385
L69.3837 -1
M71.0727 -1
L72.7427 409.169
M73.4529 409.169
L74.3085 205.724
L75.5315 178.62
L76.7545 205.794
L77.9776 114.603
L79.2006 176.713
L80.4236 106.913
L81.6466 182.346
L82.8696 196.699
L84.0926 173.787
L85.3156 173.502
L86.5386 209.497
L86.7797 409.169
M88.9587 409.169
L88.9847 391.549
L90.2077 236.753
L91.4307 172.079
L92.6537 94.457
L93.8767 51.6248
L95.0997 150.796
L96.3228 49.2275
L97.5458 136.891
L98.7688 208.809
L99.9918 189.948
L101.215 141.105
L101.43 -1
M107.049 -1
L107.33 89.8781
L108.553 390.858
L109.776 244.365
L110.999 197.973
L112.222 260.706
L113.445 211.072
L114.668 300.868
L115.891 272.696
L117.114 262.678
L118.278 409.169
M118.389 409.169
L119.56 243.924
L120.783 263.229
L122.006 190.68
L122.84 -1
M125.527 -1
L125.675 156.712
L126.898 120.251
L128.121 171.474
L129.344 185.373
L130.567 252.586
L131.79 222.49
L132.52 -1
M135.065 -1
L135.459 207.792
L136.682 111.554
L136.765 -1
M140.628 -1
L141.574 169.911
L142.797 224.894
L142.844 -1
M145.217 -1
L145.243 126.689
L145.243 126.689
L145.243 126.689
L145.243 -1
M148.847 -1
L148.912 167.286
L148.912 167.286
L148.912 167.286
L148.954 -1
M152.137 -1
L152.581 186.297
L153.804 237.389
L155.027 200.02
L156.25 182.368
L157.473 143.892
L158.007 -1
M163.35 -1
L163.589 123.253
L164.812 128.034
L165.48 -1
M166.539 -1
L167.258 151.884
L168.481 175.356
L169.704 29.661
L170.927 161.338
L172.15 96.6649
L172.79 -1
M174.161 -1
L174.596 47.8955
L174.696 -1
M176.909 -1
L177.042 65.0359
L178.265 10.6376
L179.488 22.4715
L180.711 14.4571
L181.934 51.1517
L183.157 21.9086
L183.2 -1
M185.367 -1
L185.603 147.578
L186.826 113.434
L187.656 -1
M190.097 -1
L190.495 85.8928
L191.718 27.0695
L192.108 -1
M194.316 -1
L195.387 48.7834
L196.013 -1
M204.578 -1
L205.171 46.3939
L205.763 -1
M215.994 -1
L216.178 129.092
L217.401 73.4247
L217.525 -1
M224.548 -1
L224.739 9.71936
L224.91 -1
M228.398 -1
L228.408 82.8225
L229.631 112.877
L230.854 120.759
L232.077 75.3015
L232.323 -1
M236.641 -1
L236.969 110.536
L237.868 -1
M256.229 -1
L256.538 32.5225
L256.612 -1
M389.659 -1
L389.846 35.3654
L391.069 172.471
L392.02 -1
M394.725 -1
L394.738 1.17836
L394.738 1.17836
L394.738 1.17836
L394.755 -1
M397.515 -1
L398.407 64.013
L399.63 43.2042
L400.853 13.4568
L401.082 -1
M404.172 -1
L404.522 40.9081
L405.426 -1
M407.842 -1
L408.191 39.523
L409.414 41.6818
L410.637 61.0218
L411.86 41.6468
L412.209 -1
M415.083 -1
L415.529 107.726
L416.752 109.543
L417.975 50.9021
L418.381 -1
M419.955 -1
L420.421 63.3234
L420.942 -1
M422.571 -1
L422.867 26.8086
L422.885 -1
M426.5 -1
L426.536 179.296
L427.759 220.909
L428.982 226.863
L430.205 216.251
L431.429 170.378
L432.387 -1
M434.95 -1
L435.098 33.4453
L436.321 98.0109
L437.544 156.008
L438.767 100.461
L439.714 -1
M440.192 -1
L441.213 148.294
L442.436 110.936
L443.659 199.849
L444.882 267.326
L447.328 134.944
L447.611 -1
M450.963 -1
L450.997 108.401
L452.22 104.345
L453.443 110.657
L453.633 -1
M455.677 -1
L455.889 125.736
L457.112 140.908
L457.93 -1
M460.488 -1
L460.781 88.7412
L462.004 372.745
L463.227 233.781
L464.45 239.215
L465.673 193.336
L466.896 194.155
L468.119 173.274
L469.342 171.863
L470.565 110.498
L471.788 164.926
L473.011 171.089
L474.234 196.029
L475.457 184.525
L476.68 196.841
L477.903 164.866
L479.126 178.915
L480.349 150.916
L481.572 107.024
L482.795 150.542
L484.018 266.487
L485.241 207.545
L486.464 179.051
L487.687 170.302
L488.91 108.166
L490.133 171.125
L491.356 168.959
L492.579 154.031
L493.802 27.8896
L495.025 68.7834
L496.248 313.35
L496.248 313.35" style="fill:none;stroke:#bfbf00;stroke-linecap:square;"/>
   </g>
   <g id="line2d_14">
    <path clip-path="url(#p5fc3a60927)" d="
M53.4957 -1
L53.5173 94.5981
L53.7545 -1
M56.0797 -1
L57.1863 199.711
L57.9656 409.169
M58.8182 409.169
L59.6323 171.667
L60.8554 168.693
L62.0784 115.425
L63.3014 229.843
L64.5244 208.337
L65.7474 171.044
L68.1934 29.7833
L69.4165 262.502
L70.6395 250.115
L71.8625 205.166
L73.0855 186.86
L74.3085 69.6849
L74.6643 -1
M75.8061 -1
L76.4598 409.169
M77.4153 409.169
L77.9776 251.792
L79.2006 276.45
L80.4236 124.437
L81.6466 128.704
L82.8696 283.019
L84.0926 180.672
L85.1603 -1
M85.5541 -1
L86.5386 108.098
L87.7617 134.18
L88.812 -1
M89.2813 -1
L90.2077 68.405
L91.4307 170.808
L92.6537 160.343
L93.8767 164.385
L95.0997 150.927
L95.2444 -1
M97.3767 -1
L97.5458 180.627
L98.7688 182.574
L99.9918 121.953
L101.215 168.393
L102.438 209.996
L103.661 108.565
L104.884 226.774
L106.107 363.602
L107.33 202.402
L108.553 127.226
L109.776 87.2581
L110.999 234.632
L112.222 236.6
L113.219 -1
M115.632 -1
L115.891 262.948
L116.433 -1
M119.069 -1
L119.56 332.075
L120.783 223.494
L122.006 186.448
L123.229 314.962
L124.452 367.349
L125.675 256.507
L126.898 61.2264
L128.121 67.4985
L129.12 -1
M131.345 -1
L131.79 292.493
L133.013 56.1998
L133.081 -1
M140.127 -1
L140.351 146.008
L140.642 -1
M143.448 -1
L144.02 79.7862
L145.243 222.379
L146.466 260.83
L147.464 -1
M151.194 -1
L151.358 91.4745
L151.39 -1
M155.011 -1
L155.027 133.838
L155.196 -1
M157.494 -1
L158.696 79.1327
L159.665 -1
M162.257 -1
L162.365 82.0282
L163.589 109.727
L163.64 -1
M166.884 -1
L167.258 104.207
L168.481 126.433
L168.568 -1
M175.758 -1
L175.819 31.818
L175.819 31.818
L175.819 31.818
L175.853 -1
M180.491 -1
L180.711 57.9588
L181.793 -1
M182.116 -1
L183.157 43.0496
L184.38 87.4375
L185.09 -1
M202.815 -1
L203.948 21.1342
L204.032 -1
M228.211 -1
L228.408 15.2389
L228.578 -1
M241.848 -1
L241.861 4.84232
L243.084 1.9751
L243.085 -1
M373.897 -1
L373.947 17.1547
L374.012 -1
M392.074 -1
L392.292 21.2882
L393.515 61.7193
L394.738 28.2461
L394.88 -1
M397.049 -1
L397.184 26.6086
L397.723 -1
M406.899 -1
L406.968 11.9281
L408.191 65.8611
L408.427 -1
M410.304 -1
L410.637 104.201
L411.86 68.2804
L413.083 201.986
L414.306 192.015
L415.529 198.082
L416.752 144.311
L417.975 150.476
L419.198 96.9689
L420.355 -1
M425.071 -1
L425.313 24.8235
L426.536 86.942
L427.759 70.0889
L428.982 60.4212
L429.578 -1
M430.945 -1
L431.429 41.3453
L432.652 116.509
L433.875 210.933
L435.098 249.563
L436.321 239.403
L437.544 316.977
L438.767 165.79
L439.99 179.48
L440.595 -1
M444.858 -1
L444.882 85.437
L444.987 -1
M449.033 -1
L449.774 146.677
L450.54 -1
M451.515 -1
L452.22 118.864
L453.443 149.692
L454.666 163.5
L455.889 46.2742
L455.92 -1
M463.013 -1
L463.227 85.713
L463.391 -1
M465.518 -1
L465.673 79.9014
L466.896 122.01
L468.119 180.476
L469.342 295.428
L470.565 235.721
L471.788 194.978
L473.011 92.8083
L474.234 199.24
L475.457 189.723
L476.68 206.096
L477.903 220.246
L479.126 206.99
L480.349 131.346
L481.572 254.338
L482.576 409.169
M482.8 409.169
L482.863 -1
M487.181 -1
L487.687 296.458
L488.91 289.872
L488.984 409.169
M491.322 409.169
L491.356 355.632
L491.606 409.169
M493.232 409.169
L493.802 226.762
L495.025 266.125
L496.248 284.634
L496.248 284.634" style="fill:none;stroke:#000000;stroke-linecap:square;"/>
   </g>
   <g id="line2d_15">
    <path clip-path="url(#p5fc3a60927)" d="
M51.0713 305.656
L52.2943 254.665
L53.5173 205.697
L54.7403 233.741
L55.9633 232.688
L57.1863 261.244
L58.4093 275.678
L59.2543 -1
M62.079 -1
L62.0793 409.169
M69.122 409.169
L69.4165 313.867
L70.6395 287.306
L71.8625 210.024
L73.0855 200.115
L74.3085 242.252
L75.5315 198.107
L76.7545 53.3412
L76.7682 -1
M79.1693 -1
L79.2006 125.735
L79.2006 125.735
L79.2006 125.735
L79.2749 -1
M81.6377 -1
L81.6466 13.3817
L82.8696 223.976
L84.0926 236.259
L85.3156 255.478
L86.4918 409.169
M86.5598 409.169
L87.7617 61.177
L88.1442 -1
M89.7426 -1
L90.2077 82.8416
L91.4307 109.118
L92.3178 -1
M97.0255 -1
L97.0335 409.169
M99.9911 409.169
L99.9916 -1
M100.564 -1
L101.215 223.879
L102.438 359.317
L102.841 -1
M107.585 -1
L107.658 409.169
M114.661 409.169
L114.668 361.287
L114.668 361.287
L114.668 361.287
L114.671 409.169
M120.214 409.169
L120.783 46.937
L122.006 93.0689
L122.381 -1
M147.526 -1
L147.549 409.169
M150.586 409.169
L151.149 -1
M405.499 -1
L405.745 65.0669
L406.968 16.9588
L407.007 -1
M409.575 -1
L410.637 69.9976
L411.86 36.942
L413.083 27.0925
L414.306 -0.293391
L415.529 20.3707
L415.605 -1
M418.127 -1
L419.198 132.643
L420.421 168.548
L421.644 130.375
L422.867 31.4743
L422.941 -1
M424.948 -1
L425.313 213.792
L426.536 199.005
L427.759 202.028
L428.982 122.113
L429.255 -1
M431.157 -1
L431.429 121.886
L432.652 86.5914
L433.4 -1
M437.633 -1
L438.767 132.566
L439.99 162.188
L441.213 260.084
L442.436 161.459
L443.485 -1
M443.835 -1
L444.882 159.073
L446.105 133.434
L447.328 198.213
L448.551 193.858
L449.774 174.569
L450.997 141.502
L452.22 151.477
L453.29 -1
M453.615 -1
L454.666 131.414
L455.889 150.565
L457.112 150.63
L458.335 161.882
L459.558 142.294
L459.941 -1
M461.267 -1
L461.901 409.169
M462.361 409.169
L463.227 248.117
L464.45 247.981
L464.506 409.169
M468.553 409.169
L469.342 254.024
L470.565 260.382
L471.788 220.429
L473.011 201.799
L474.234 191.105
L475.457 174.502
L476.68 148.443
L477.903 141.626
L479.126 74.4254
L480.349 113.333
L480.803 409.169
M482.471 409.169
L482.795 228.704
L484.018 256.806
L485.241 189.07
L486.464 155.273
L487.687 160.101
L488.91 171.629
L490.133 162.277
L491.356 128.855
L492.579 115.502
L493.802 185.631
L495.025 166.49
L496.248 128.492
L496.248 128.492" style="fill:none;stroke:#0000ff;stroke-linecap:square;"/>
   </g>
   <g id="line2d_16">
    <path clip-path="url(#p5fc3a60927)" d="
M51.0713 148.959
L52.2943 175.378
L53.4609 -1
M53.5307 -1
L54.178 409.169
M55.5676 409.169
L55.9633 238.735
L57.1863 180.688
L58.4093 181.7
L59.6323 197.069
L60.8554 174.957
L62.0784 158.051
L63.3014 32.8921
L64.5244 240.896
L65.7474 75.4474
L66.9704 131.557
L68.1934 128.368
L69.4165 132.885
L70.6395 138.047
L71.8625 168.16
L73.0855 155.153
L74.3085 151.164
L75.5315 154.152
L76.7545 131.345
L77.9776 175.833
M91.4307 232.658
L92.6537 251.327
L93.8767 234.609
L95.0997 264.769
L96.3228 259.069
L97.5458 201.341
L98.7688 152.492
L99.9918 149.582
L101.215 177.385
L102.438 157.598
L103.661 122.331
L104.884 81.3167
L105.457 -1
M106.668 -1
L107.33 109.003
L108.553 45.3043
L109.776 87.0364
L110.819 -1
M111.081 -1
L112.222 208.903
L113.445 151.4
L114.668 191.883
L115.891 116.329
L117.114 75.9824
L118.337 47.5905
L119.56 82.4395
L120.783 98.0921
L122.006 90.5347
L123.229 158.083
L124.452 158.018
L125.675 154.614
L126.898 73.4609
L127.501 -1
M129.733 -1
L130.567 86.5182
L130.782 -1
M132.951 -1
L133.013 20.8938
L134.236 80.2152
L135.459 87.1813
L136.682 111.395
L137.905 61.2607
L139.128 94.1656
L140.142 -1
M140.768 -1
L141.574 36.9861
L141.686 -1
M143.765 -1
L144.02 98.7592
L145.243 86.9207
L145.89 -1
M147.127 -1
L147.689 65.8097
L150.135 58.413
L151.022 -1
M153.539 -1
L153.804 116.429
L155.027 208.604
L156.25 103.31
L157.473 117.398
L158.696 145.781
L159.574 -1
M160.247 -1
L161.142 156.618
L162.365 161.736
L163.589 66.7734
L164.812 66.3807
L166.035 90.0136
L166.436 -1
M177.036 -1
L177.042 2.01655
L177.042 2.01655
L177.042 2.01655
L177.08 -1
M187.69 -1
L188.049 109.908
L189.272 85.9825
L190.495 152.055
L191.718 30.1527
L192.941 106.155
L194.164 99.6444
L195.387 7.02716
L195.684 -1
M206.382 -1
L206.394 6.3595
L207.617 45.4108
L208.84 69.0899
L209.294 -1
M253.964 -1
L254.092 1.2358
L255.315 35.0603
L256.538 103.87
L257.129 -1
M266.272 -1
L266.322 4.80763
L267.545 46.6032
L268.032 -1
M380.01 -1
L380.062 8.85956
L381.285 30.4487
L381.43 -1
M383.513 -1
L383.731 49.6646
L384.032 -1
M403.007 -1
L403.299 7.78938
L403.32 -1
M409.257 -1
L409.414 70.2854
L409.591 -1
M411.724 -1
L411.86 51.9159
L412.232 -1
M415.486 -1
L415.529 36.1555
L416.752 136.722
L417.746 -1
M418.284 -1
L419.198 93.2286
L419.231 -1
M422.712 -1
L422.867 112.479
L424.09 204.278
L426.536 116.897
L427.759 47.4559
L427.813 -1
M430.153 -1
L430.205 46.8698
L431.429 108.085
L431.994 -1
M433.194 -1
L433.875 157.759
L435.098 205.487
L436.321 229.284
L437.544 239.503
L438.767 215.817
L439.99 269.377
L441.213 240.603
L443.659 202.646
L444.882 172.829
L446.105 163.249
L447.328 140.692
L448.551 146.692
L449.774 187.752
L450.997 165.662
L452.22 15.6107
L453.443 69.4883
L454.666 74.0473
L455.889 86.3377
L456.441 -1
M457.479 -1
L458.335 246.599
L459.558 196.084
L460.781 156.447
L461.723 -1
M462.336 -1
L463.227 125.323
L463.766 -1
M474.2 -1
L474.234 201.793
L475.457 184.755
L476.68 334.635
L477.903 321.011
L479.126 117.624
L480.349 179.332
L481.572 177.033
L482.795 194.402
L484.018 81.1641
L485.241 205.716
L486.464 177.814
L487.687 147.229
L488.91 354.91
L490.133 305.571
L491.356 227.193
L492.579 266.415
L493.802 238.571
L495.025 237.309
L496.248 224.539
L496.248 224.539" style="fill:none;stroke:#008000;stroke-linecap:square;"/>
   </g>
   <g id="patch_3">
    <path d="
M51.0713 23.1417
L497.471 23.1417" style="fill:none;stroke:#000000;stroke-linecap:square;stroke-linejoin:miter;"/>
   </g>
   <g id="patch_4">
    <path d="
M497.471 368.742
L497.471 23.1417" style="fill:none;stroke:#000000;stroke-linecap:square;stroke-linejoin:miter;"/>
   </g>
   <g id="patch_5">
    <path d="
M51.0713 368.742
L497.471 368.742" style="fill:none;stroke:#000000;stroke-linecap:square;stroke-linejoin:miter;"/>
   </g>
   <g id="patch_6">
    <path d="
M51.0713 368.742
L51.0713 23.1417" style="fill:none;stroke:#000000;stroke-linecap:square;stroke-linejoin:miter;"/>
   </g>
   <g id="matplotlib.axis_1">
    <g id="xtick_1">
     <g id="line2d_17">
      <defs>
       <path d="
M0 0
L0 -4" id="m93b0483c22" style="stroke:#000000;stroke-width:0.5;"/>
      </defs>
      <g>
       <use style="stroke:#000000;stroke-width:0.5;" x="51.07125" xlink:href="#m93b0483c22" y="368.74175"/>
      </g>
     </g>
     <g id="line2d_18">
      <defs>
       <path d="
M0 0
L0 4" id="m741efc42ff" style="stroke:#000000;stroke-width:0.5;"/>
      </defs>
      <g>
       <use style="stroke:#000000;stroke-width:0.5;" x="51.07125" xlink:href="#m741efc42ff" y="23.14175"/>
      </g>
     </g>
     <g id="text_1">
      <!-- 0 -->
      <defs>
       <path d="
M31.7812 66.4062
Q24.1719 66.4062 20.3281 58.9062
Q16.5 51.4219 16.5 36.375
Q16.5 21.3906 20.3281 13.8906
Q24.1719 6.39062 31.7812 6.39062
Q39.4531 6.39062 43.2812 13.8906
Q47.125 21.3906 47.125 36.375
Q47.125 51.4219 43.2812 58.9062
Q39.4531 66.4062 31.7812 66.4062
M31.7812 74.2188
Q44.0469 74.2188 50.5156 64.5156
Q56.9844 54.8281 56.9844 36.375
Q56.9844 17.9688 50.5156 8.26562
Q44.0469 -1.42188 31.7812 -1.42188
Q19.5312 -1.42188 13.0625 8.26562
Q6.59375 17.9688 6.59375 36.375
Q6.59375 54.8281 13.0625 64.5156
Q19.5312 74.2188 31.7812 74.2188" id="BitstreamVeraSans-Roman-30"/>
      </defs>
      <g transform="translate(48.0478125 381.859875)scale(0.12 -0.12)">
       <use xlink:href="#BitstreamVeraSans-Roman-30"/>
      </g>
     </g>
    </g>
    <g id="xtick_2">
     <g id="line2d_19">
      <g>
       <use style="stroke:#000000;stroke-width:0.5;" x="112.221934932" xlink:href="#m93b0483c22" y="368.74175"/>
      </g>
     </g>
     <g id="line2d_20">
      <g>
       <use style="stroke:#000000;stroke-width:0.5;" x="112.221934932" xlink:href="#m741efc42ff" y="23.14175"/>
      </g>
     </g>
     <g id="text_2">
      <!-- 50 -->
      <defs>
       <path d="
M10.7969 72.9062
L49.5156 72.9062
L49.5156 64.5938
L19.8281 64.5938
L19.8281 46.7344
Q21.9688 47.4688 24.1094 47.8281
Q26.2656 48.1875 28.4219 48.1875
Q40.625 48.1875 47.75 41.5
Q54.8906 34.8125 54.8906 23.3906
Q54.8906 11.625 47.5625 5.09375
Q40.2344 -1.42188 26.9062 -1.42188
Q22.3125 -1.42188 17.5469 -0.640625
Q12.7969 0.140625 7.71875 1.70312
L7.71875 11.625
Q12.1094 9.23438 16.7969 8.0625
Q21.4844 6.89062 26.7031 6.89062
Q35.1562 6.89062 40.0781 11.3281
Q45.0156 15.7656 45.0156 23.3906
Q45.0156 31 40.0781 35.4375
Q35.1562 39.8906 26.7031 39.8906
Q22.75 39.8906 18.8125 39.0156
Q14.8906 38.1406 10.7969 36.2812
z
" id="BitstreamVeraSans-Roman-35"/>
      </defs>
      <g transform="translate(105.448497432 381.859875)scale(0.12 -0.12)">
       <use xlink:href="#BitstreamVeraSans-Roman-35"/>
       <use x="63.623046875" xlink:href="#BitstreamVeraSans-Roman-30"/>
      </g>
     </g>
    </g>
    <g id="xtick_3">
     <g id="line2d_21">
      <g>
       <use style="stroke:#000000;stroke-width:0.5;" x="173.372619863" xlink:href="#m93b0483c22" y="368.74175"/>
      </g>
     </g>
     <g id="line2d_22">
      <g>
       <use style="stroke:#000000;stroke-width:0.5;" x="173.372619863" xlink:href="#m741efc42ff" y="23.14175"/>
      </g>
     </g>
     <g id="text_3">
      <!-- 100 -->
      <defs>
       <path d="
M12.4062 8.29688
L28.5156 8.29688
L28.5156 63.9219
L10.9844 60.4062
L10.9844 69.3906
L28.4219 72.9062
L38.2812 72.9062
L38.2812 8.29688
L54.3906 8.29688
L54.3906 0
L12.4062 0
z
" id="BitstreamVeraSans-Roman-31"/>
      </defs>
      <g transform="translate(162.977619863 381.859875)scale(0.12 -0.12)">
       <use xlink:href="#BitstreamVeraSans-Roman-31"/>
       <use x="63.623046875" xlink:href="#BitstreamVeraSans-Roman-30"/>
       <use x="127.24609375" xlink:href="#BitstreamVeraSans-Roman-30"/>
      </g>
     </g>
    </g>
    <g id="xtick_4">
     <g id="line2d_23">
      <g>
       <use style="stroke:#000000;stroke-width:0.5;" x="234.523304795" xlink:href="#m93b0483c22" y="368.74175"/>
      </g>
     </g>
     <g id="line2d_24">
      <g>
       <use style="stroke:#000000;stroke-width:0.5;" x="234.523304795" xlink:href="#m741efc42ff" y="23.14175"/>
      </g>
     </g>
     <g id="text_4">
      <!-- 150 -->
      <g transform="translate(224.128304795 381.859875)scale(0.12 -0.12)">
       <use xlink:href="#BitstreamVeraSans-Roman-31"/>
       <use x="63.623046875" xlink:href="#BitstreamVeraSans-Roman-35"/>
       <use x="127.24609375" xlink:href="#BitstreamVeraSans-Roman-30"/>
      </g>
     </g>
    </g>
    <g id="xtick_5">
     <g id="line2d_25">
      <g>
       <use style="stroke:#000000;stroke-width:0.5;" x="295.673989726" xlink:href="#m93b0483c22" y="368.74175"/>
      </g>
     </g>
     <g id="line2d_26">
      <g>
       <use style="stroke:#000000;stroke-width:0.5;" x="295.673989726" xlink:href="#m741efc42ff" y="23.14175"/>
      </g>
     </g>
     <g id="text_5">
      <!-- 200 -->
      <defs>
       <path d="
M19.1875 8.29688
L53.6094 8.29688
L53.6094 0
L7.32812 0
L7.32812 8.29688
Q12.9375 14.1094 22.625 23.8906
Q32.3281 33.6875 34.8125 36.5312
Q39.5469 41.8438 41.4219 45.5312
Q43.3125 49.2188 43.3125 52.7812
Q43.3125 58.5938 39.2344 62.25
Q35.1562 65.9219 28.6094 65.9219
Q23.9688 65.9219 18.8125 64.3125
Q13.6719 62.7031 7.8125 59.4219
L7.8125 69.3906
Q13.7656 71.7812 18.9375 73
Q24.125 74.2188 28.4219 74.2188
Q39.75 74.2188 46.4844 68.5469
Q53.2188 62.8906 53.2188 53.4219
Q53.2188 48.9219 51.5312 44.8906
Q49.8594 40.875 45.4062 35.4062
Q44.1875 33.9844 37.6406 27.2188
Q31.1094 20.4531 19.1875 8.29688" id="BitstreamVeraSans-Roman-32"/>
      </defs>
      <g transform="translate(285.059614726 381.859875)scale(0.12 -0.12)">
       <use xlink:href="#BitstreamVeraSans-Roman-32"/>
       <use x="63.623046875" xlink:href="#BitstreamVeraSans-Roman-30"/>
       <use x="127.24609375" xlink:href="#BitstreamVeraSans-Roman-30"/>
      </g>
     </g>
    </g>
    <g id="xtick_6">
     <g id="line2d_27">
      <g>
       <use style="stroke:#000000;stroke-width:0.5;" x="356.824674658" xlink:href="#m93b0483c22" y="368.74175"/>
      </g>
     </g>
     <g id="line2d_28">
      <g>
       <use style="stroke:#000000;stroke-width:0.5;" x="356.824674658" xlink:href="#m741efc42ff" y="23.14175"/>
      </g>
     </g>
     <g id="text_6">
      <!-- 250 -->
      <g transform="translate(346.210299658 381.859875)scale(0.12 -0.12)">
       <use xlink:href="#BitstreamVeraSans-Roman-32"/>
       <use x="63.623046875" xlink:href="#BitstreamVeraSans-Roman-35"/>
       <use x="127.24609375" xlink:href="#BitstreamVeraSans-Roman-30"/>
      </g>
     </g>
    </g>
    <g id="xtick_7">
     <g id="line2d_29">
      <g>
       <use style="stroke:#000000;stroke-width:0.5;" x="417.975359589" xlink:href="#m93b0483c22" y="368.74175"/>
      </g>
     </g>
     <g id="line2d_30">
      <g>
       <use style="stroke:#000000;stroke-width:0.5;" x="417.975359589" xlink:href="#m741efc42ff" y="23.14175"/>
      </g>
     </g>
     <g id="text_7">
      <!-- 300 -->
      <defs>
       <path d="
M40.5781 39.3125
Q47.6562 37.7969 51.625 33
Q55.6094 28.2188 55.6094 21.1875
Q55.6094 10.4062 48.1875 4.48438
Q40.7656 -1.42188 27.0938 -1.42188
Q22.5156 -1.42188 17.6562 -0.515625
Q12.7969 0.390625 7.625 2.20312
L7.625 11.7188
Q11.7188 9.32812 16.5938 8.10938
Q21.4844 6.89062 26.8125 6.89062
Q36.0781 6.89062 40.9375 10.5469
Q45.7969 14.2031 45.7969 21.1875
Q45.7969 27.6406 41.2812 31.2656
Q36.7656 34.9062 28.7188 34.9062
L20.2188 34.9062
L20.2188 43.0156
L29.1094 43.0156
Q36.375 43.0156 40.2344 45.9219
Q44.0938 48.8281 44.0938 54.2969
Q44.0938 59.9062 40.1094 62.9062
Q36.1406 65.9219 28.7188 65.9219
Q24.6562 65.9219 20.0156 65.0312
Q15.375 64.1562 9.8125 62.3125
L9.8125 71.0938
Q15.4375 72.6562 20.3438 73.4375
Q25.25 74.2188 29.5938 74.2188
Q40.8281 74.2188 47.3594 69.1094
Q53.9062 64.0156 53.9062 55.3281
Q53.9062 49.2656 50.4375 45.0938
Q46.9688 40.9219 40.5781 39.3125" id="BitstreamVeraSans-Roman-33"/>
      </defs>
      <g transform="translate(407.378797089 381.859875)scale(0.12 -0.12)">
       <use xlink:href="#BitstreamVeraSans-Roman-33"/>
       <use x="63.623046875" xlink:href="#BitstreamVeraSans-Roman-30"/>
       <use x="127.24609375" xlink:href="#BitstreamVeraSans-Roman-30"/>
      </g>
     </g>
    </g>
    <g id="xtick_8">
     <g id="line2d_31">
      <g>
       <use style="stroke:#000000;stroke-width:0.5;" x="479.126044521" xlink:href="#m93b0483c22" y="368.74175"/>
      </g>
     </g>
     <g id="line2d_32">
      <g>
       <use style="stroke:#000000;stroke-width:0.5;" x="479.126044521" xlink:href="#m741efc42ff" y="23.14175"/>
      </g>
     </g>
     <g id="text_8">
      <!-- 350 -->
      <g transform="translate(468.529482021 381.859875)scale(0.12 -0.12)">
       <use xlink:href="#BitstreamVeraSans-Roman-33"/>
       <use x="63.623046875" xlink:href="#BitstreamVeraSans-Roman-35"/>
       <use x="127.24609375" xlink:href="#BitstreamVeraSans-Roman-30"/>
      </g>
     </g>
    </g>
    <g id="text_9">
     <!-- Julian day -->
     <defs>
      <path id="BitstreamVeraSans-Roman-20"/>
      <path d="
M9.8125 72.9062
L19.6719 72.9062
L19.6719 5.07812
Q19.6719 -8.10938 14.6719 -14.0625
Q9.67188 -20.0156 -1.42188 -20.0156
L-5.17188 -20.0156
L-5.17188 -11.7188
L-2.09375 -11.7188
Q4.4375 -11.7188 7.125 -8.04688
Q9.8125 -4.39062 9.8125 5.07812
z
" id="BitstreamVeraSans-Roman-4a"/>
      <path d="
M54.8906 33.0156
L54.8906 0
L45.9062 0
L45.9062 32.7188
Q45.9062 40.4844 42.875 44.3281
Q39.8438 48.1875 33.7969 48.1875
Q26.5156 48.1875 22.3125 43.5469
Q18.1094 38.9219 18.1094 30.9062
L18.1094 0
L9.07812 0
L9.07812 54.6875
L18.1094 54.6875
L18.1094 46.1875
Q21.3438 51.125 25.7031 53.5625
Q30.0781 56 35.7969 56
Q45.2188 56 50.0469 50.1719
Q54.8906 44.3438 54.8906 33.0156" id="BitstreamVeraSans-Roman-6e"/>
      <path d="
M9.42188 75.9844
L18.4062 75.9844
L18.4062 0
L9.42188 0
z
" id="BitstreamVeraSans-Roman-6c"/>
      <path d="
M9.42188 54.6875
L18.4062 54.6875
L18.4062 0
L9.42188 0
z

M9.42188 75.9844
L18.4062 75.9844
L18.4062 64.5938
L9.42188 64.5938
z
" id="BitstreamVeraSans-Roman-69"/>
      <path d="
M32.1719 -5.07812
Q28.375 -14.8438 24.75 -17.8125
Q21.1406 -20.7969 15.0938 -20.7969
L7.90625 -20.7969
L7.90625 -13.2812
L13.1875 -13.2812
Q16.8906 -13.2812 18.9375 -11.5156
Q21 -9.76562 23.4844 -3.21875
L25.0938 0.875
L2.98438 54.6875
L12.5 54.6875
L29.5938 11.9219
L46.6875 54.6875
L56.2031 54.6875
z
" id="BitstreamVeraSans-Roman-79"/>
      <path d="
M45.4062 46.3906
L45.4062 75.9844
L54.3906 75.9844
L54.3906 0
L45.4062 0
L45.4062 8.20312
Q42.5781 3.32812 38.25 0.953125
Q33.9375 -1.42188 27.875 -1.42188
Q17.9688 -1.42188 11.7344 6.48438
Q5.51562 14.4062 5.51562 27.2969
Q5.51562 40.1875 11.7344 48.0938
Q17.9688 56 27.875 56
Q33.9375 56 38.25 53.625
Q42.5781 51.2656 45.4062 46.3906
M14.7969 27.2969
Q14.7969 17.3906 18.875 11.75
Q22.9531 6.10938 30.0781 6.10938
Q37.2031 6.10938 41.2969 11.75
Q45.4062 17.3906 45.4062 27.2969
Q45.4062 37.2031 41.2969 42.8438
Q37.2031 48.4844 30.0781 48.4844
Q22.9531 48.4844 18.875 42.8438
Q14.7969 37.2031 14.7969 27.2969" id="BitstreamVeraSans-Roman-64"/>
      <path d="
M8.5 21.5781
L8.5 54.6875
L17.4844 54.6875
L17.4844 21.9219
Q17.4844 14.1562 20.5 10.2656
Q23.5312 6.39062 29.5938 6.39062
Q36.8594 6.39062 41.0781 11.0312
Q45.3125 15.6719 45.3125 23.6875
L45.3125 54.6875
L54.2969 54.6875
L54.2969 0
L45.3125 0
L45.3125 8.40625
Q42.0469 3.42188 37.7188 1
Q33.4062 -1.42188 27.6875 -1.42188
Q18.2656 -1.42188 13.375 4.4375
Q8.5 10.2969 8.5 21.5781" id="BitstreamVeraSans-Roman-75"/>
      <path d="
M34.2812 27.4844
Q23.3906 27.4844 19.1875 25
Q14.9844 22.5156 14.9844 16.5
Q14.9844 11.7188 18.1406 8.90625
Q21.2969 6.10938 26.7031 6.10938
Q34.1875 6.10938 38.7031 11.4062
Q43.2188 16.7031 43.2188 25.4844
L43.2188 27.4844
z

M52.2031 31.2031
L52.2031 0
L43.2188 0
L43.2188 8.29688
Q40.1406 3.32812 35.5469 0.953125
Q30.9531 -1.42188 24.3125 -1.42188
Q15.9219 -1.42188 10.9531 3.29688
Q6 8.01562 6 15.9219
Q6 25.1406 12.1719 29.8281
Q18.3594 34.5156 30.6094 34.5156
L43.2188 34.5156
L43.2188 35.4062
Q43.2188 41.6094 39.1406 45
Q35.0625 48.3906 27.6875 48.3906
Q23 48.3906 18.5469 47.2656
Q14.1094 46.1406 10.0156 43.8906
L10.0156 52.2031
Q14.9375 54.1094 19.5781 55.0469
Q24.2188 56 28.6094 56
Q40.4844 56 46.3438 49.8438
Q52.2031 43.7031 52.2031 31.2031" id="BitstreamVeraSans-Roman-61"/>
     </defs>
     <g transform="translate(244.8103125 398.473625)scale(0.12 -0.12)">
      <use xlink:href="#BitstreamVeraSans-Roman-4a"/>
      <use x="29.4921875" xlink:href="#BitstreamVeraSans-Roman-75"/>
      <use x="92.87109375" xlink:href="#BitstreamVeraSans-Roman-6c"/>
      <use x="120.654296875" xlink:href="#BitstreamVeraSans-Roman-69"/>
      <use x="148.4375" xlink:href="#BitstreamVeraSans-Roman-61"/>
      <use x="209.716796875" xlink:href="#BitstreamVeraSans-Roman-6e"/>
      <use x="273.095703125" xlink:href="#BitstreamVeraSans-Roman-20"/>
      <use x="304.8828125" xlink:href="#BitstreamVeraSans-Roman-64"/>
      <use x="368.359375" xlink:href="#BitstreamVeraSans-Roman-61"/>
      <use x="429.638671875" xlink:href="#BitstreamVeraSans-Roman-79"/>
     </g>
    </g>
   </g>
   <g id="matplotlib.axis_2">
    <g id="ytick_1">
     <g id="line2d_33">
      <defs>
       <path d="
M0 0
L4 0" id="m728421d6d4" style="stroke:#000000;stroke-width:0.5;"/>
      </defs>
      <g>
       <use style="stroke:#000000;stroke-width:0.5;" x="51.07125" xlink:href="#m728421d6d4" y="368.74175"/>
      </g>
     </g>
     <g id="line2d_34">
      <defs>
       <path d="
M0 0
L-4 0" id="mcb0005524f" style="stroke:#000000;stroke-width:0.5;"/>
      </defs>
      <g>
       <use style="stroke:#000000;stroke-width:0.5;" x="497.47125" xlink:href="#mcb0005524f" y="368.74175"/>
      </g>
     </g>
     <g id="text_10">
      <!-- −10 -->
      <defs>
       <path d="
M10.5938 35.5
L73.1875 35.5
L73.1875 27.2031
L10.5938 27.2031
z
" id="BitstreamVeraSans-Roman-2212"/>
      </defs>
      <g transform="translate(23.81375 372.053)scale(0.12 -0.12)">
       <use xlink:href="#BitstreamVeraSans-Roman-2212"/>
       <use x="83.7890625" xlink:href="#BitstreamVeraSans-Roman-31"/>
       <use x="147.412109375" xlink:href="#BitstreamVeraSans-Roman-30"/>
      </g>
     </g>
    </g>
    <g id="ytick_2">
     <g id="line2d_35">
      <g>
       <use style="stroke:#000000;stroke-width:0.5;" x="51.07125" xlink:href="#m728421d6d4" y="282.34175"/>
      </g>
     </g>
     <g id="line2d_36">
      <g>
       <use style="stroke:#000000;stroke-width:0.5;" x="497.47125" xlink:href="#mcb0005524f" y="282.34175"/>
      </g>
     </g>
     <g id="text_11">
      <!-- −5 -->
      <g transform="translate(31.7 285.653)scale(0.12 -0.12)">
       <use xlink:href="#BitstreamVeraSans-Roman-2212"/>
       <use x="83.7890625" xlink:href="#BitstreamVeraSans-Roman-35"/>
      </g>
     </g>
    </g>
    <g id="ytick_3">
     <g id="line2d_37">
      <g>
       <use style="stroke:#000000;stroke-width:0.5;" x="51.07125" xlink:href="#m728421d6d4" y="195.94175"/>
      </g>
     </g>
     <g id="line2d_38">
      <g>
       <use style="stroke:#000000;stroke-width:0.5;" x="497.47125" xlink:href="#mcb0005524f" y="195.94175"/>
      </g>
     </g>
     <g id="text_12">
      <!-- 0 -->
      <g transform="translate(41.024375 199.253)scale(0.12 -0.12)">
       <use xlink:href="#BitstreamVeraSans-Roman-30"/>
      </g>
     </g>
    </g>
    <g id="ytick_4">
     <g id="line2d_39">
      <g>
       <use style="stroke:#000000;stroke-width:0.5;" x="51.07125" xlink:href="#m728421d6d4" y="109.54175"/>
      </g>
     </g>
     <g id="line2d_40">
      <g>
       <use style="stroke:#000000;stroke-width:0.5;" x="497.47125" xlink:href="#mcb0005524f" y="109.54175"/>
      </g>
     </g>
     <g id="text_13">
      <!-- 5 -->
      <g transform="translate(41.410625 112.853)scale(0.12 -0.12)">
       <use xlink:href="#BitstreamVeraSans-Roman-35"/>
      </g>
     </g>
    </g>
    <g id="ytick_5">
     <g id="line2d_41">
      <g>
       <use style="stroke:#000000;stroke-width:0.5;" x="51.07125" xlink:href="#m728421d6d4" y="23.14175"/>
      </g>
     </g>
     <g id="line2d_42">
      <g>
       <use style="stroke:#000000;stroke-width:0.5;" x="497.47125" xlink:href="#mcb0005524f" y="23.14175"/>
      </g>
     </g>
     <g id="text_14">
      <!-- 10 -->
      <g transform="translate(33.91625 26.453)scale(0.12 -0.12)">
       <use xlink:href="#BitstreamVeraSans-Roman-31"/>
       <use x="63.623046875" xlink:href="#BitstreamVeraSans-Roman-30"/>
      </g>
     </g>
    </g>
    <g id="text_15">
     <!-- PET (mm/day) -->
     <defs>
      <path d="
M52 44.1875
Q55.375 50.25 60.0625 53.125
Q64.75 56 71.0938 56
Q79.6406 56 84.2812 50.0156
Q88.9219 44.0469 88.9219 33.0156
L88.9219 0
L79.8906 0
L79.8906 32.7188
Q79.8906 40.5781 77.0938 44.375
Q74.3125 48.1875 68.6094 48.1875
Q61.625 48.1875 57.5625 43.5469
Q53.5156 38.9219 53.5156 30.9062
L53.5156 0
L44.4844 0
L44.4844 32.7188
Q44.4844 40.625 41.7031 44.4062
Q38.9219 48.1875 33.1094 48.1875
Q26.2188 48.1875 22.1562 43.5312
Q18.1094 38.875 18.1094 30.9062
L18.1094 0
L9.07812 0
L9.07812 54.6875
L18.1094 54.6875
L18.1094 46.1875
Q21.1875 51.2188 25.4844 53.6094
Q29.7812 56 35.6875 56
Q41.6562 56 45.8281 52.9688
Q50 49.9531 52 44.1875" id="BitstreamVeraSans-Roman-6d"/>
      <path d="
M8.01562 75.875
L15.8281 75.875
Q23.1406 64.3594 26.7812 53.3125
Q30.4219 42.2812 30.4219 31.3906
Q30.4219 20.4531 26.7812 9.375
Q23.1406 -1.70312 15.8281 -13.1875
L8.01562 -13.1875
Q14.5 -2 17.7031 9.0625
Q20.9062 20.125 20.9062 31.3906
Q20.9062 42.6719 17.7031 53.6562
Q14.5 64.6562 8.01562 75.875" id="BitstreamVeraSans-Roman-29"/>
      <path d="
M31 75.875
Q24.4688 64.6562 21.2812 53.6562
Q18.1094 42.6719 18.1094 31.3906
Q18.1094 20.125 21.3125 9.0625
Q24.5156 -2 31 -13.1875
L23.1875 -13.1875
Q15.875 -1.70312 12.2344 9.375
Q8.59375 20.4531 8.59375 31.3906
Q8.59375 42.2812 12.2031 53.3125
Q15.8281 64.3594 23.1875 75.875
z
" id="BitstreamVeraSans-Roman-28"/>
      <path d="
M19.6719 64.7969
L19.6719 37.4062
L32.0781 37.4062
Q38.9688 37.4062 42.7188 40.9688
Q46.4844 44.5312 46.4844 51.125
Q46.4844 57.6719 42.7188 61.2344
Q38.9688 64.7969 32.0781 64.7969
z

M9.8125 72.9062
L32.0781 72.9062
Q44.3438 72.9062 50.6094 67.3594
Q56.8906 61.8125 56.8906 51.125
Q56.8906 40.3281 50.6094 34.8125
Q44.3438 29.2969 32.0781 29.2969
L19.6719 29.2969
L19.6719 0
L9.8125 0
z
" id="BitstreamVeraSans-Roman-50"/>
      <path d="
M9.8125 72.9062
L55.9062 72.9062
L55.9062 64.5938
L19.6719 64.5938
L19.6719 43.0156
L54.3906 43.0156
L54.3906 34.7188
L19.6719 34.7188
L19.6719 8.29688
L56.7812 8.29688
L56.7812 0
L9.8125 0
z
" id="BitstreamVeraSans-Roman-45"/>
      <path d="
M-0.296875 72.9062
L61.375 72.9062
L61.375 64.5938
L35.5 64.5938
L35.5 0
L25.5938 0
L25.5938 64.5938
L-0.296875 64.5938
z
" id="BitstreamVeraSans-Roman-54"/>
      <path d="
M25.3906 72.9062
L33.6875 72.9062
L8.29688 -9.28125
L0 -9.28125
z
" id="BitstreamVeraSans-Roman-2f"/>
     </defs>
     <g transform="translate(16.318125 237.8358125)rotate(-90.0)scale(0.12 -0.12)">
      <use xlink:href="#BitstreamVeraSans-Roman-50"/>
      <use x="60.302734375" xlink:href="#BitstreamVeraSans-Roman-45"/>
      <use x="123.486328125" xlink:href="#BitstreamVeraSans-Roman-54"/>
      <use x="184.5703125" xlink:href="#BitstreamVeraSans-Roman-20"/>
      <use x="216.357421875" xlink:href="#BitstreamVeraSans-Roman-28"/>
      <use x="255.37109375" xlink:href="#BitstreamVeraSans-Roman-6d"/>
      <use x="352.783203125" xlink:href="#BitstreamVeraSans-Roman-6d"/>
      <use x="450.1953125" xlink:href="#BitstreamVeraSans-Roman-2f"/>
      <use x="483.88671875" xlink:href="#BitstreamVeraSans-Roman-64"/>
      <use x="547.36328125" xlink:href="#BitstreamVeraSans-Roman-61"/>
      <use x="608.642578125" xlink:href="#BitstreamVeraSans-Roman-79"/>
      <use x="667.822265625" xlink:href="#BitstreamVeraSans-Roman-29"/>
     </g>
    </g>
   </g>
   <g id="text_16">
    <!-- daily bare PET at Treeline -->
    <defs>
     <path d="
M56.2031 29.5938
L56.2031 25.2031
L14.8906 25.2031
Q15.4844 15.9219 20.4844 11.0625
Q25.4844 6.20312 34.4219 6.20312
Q39.5938 6.20312 44.4531 7.46875
Q49.3125 8.73438 54.1094 11.2812
L54.1094 2.78125
Q49.2656 0.734375 44.1875 -0.34375
Q39.1094 -1.42188 33.8906 -1.42188
Q20.7969 -1.42188 13.1562 6.1875
Q5.51562 13.8125 5.51562 26.8125
Q5.51562 40.2344 12.7656 48.1094
Q20.0156 56 32.3281 56
Q43.3594 56 49.7812 48.8906
Q56.2031 41.7969 56.2031 29.5938
M47.2188 32.2344
Q47.125 39.5938 43.0938 43.9844
Q39.0625 48.3906 32.4219 48.3906
Q24.9062 48.3906 20.3906 44.1406
Q15.875 39.8906 15.1875 32.1719
z
" id="BitstreamVeraSans-Roman-65"/>
     <path d="
M18.3125 70.2188
L18.3125 54.6875
L36.8125 54.6875
L36.8125 47.7031
L18.3125 47.7031
L18.3125 18.0156
Q18.3125 11.3281 20.1406 9.42188
Q21.9688 7.51562 27.5938 7.51562
L36.8125 7.51562
L36.8125 0
L27.5938 0
Q17.1875 0 13.2344 3.875
Q9.28125 7.76562 9.28125 18.0156
L9.28125 47.7031
L2.6875 47.7031
L2.6875 54.6875
L9.28125 54.6875
L9.28125 70.2188
z
" id="BitstreamVeraSans-Roman-74"/>
     <path d="
M41.1094 46.2969
Q39.5938 47.1719 37.8125 47.5781
Q36.0312 48 33.8906 48
Q26.2656 48 22.1875 43.0469
Q18.1094 38.0938 18.1094 28.8125
L18.1094 0
L9.07812 0
L9.07812 54.6875
L18.1094 54.6875
L18.1094 46.1875
Q20.9531 51.1719 25.4844 53.5781
Q30.0312 56 36.5312 56
Q37.4531 56 38.5781 55.875
Q39.7031 55.7656 41.0625 55.5156
z
" id="BitstreamVeraSans-Roman-72"/>
     <path d="
M48.6875 27.2969
Q48.6875 37.2031 44.6094 42.8438
Q40.5312 48.4844 33.4062 48.4844
Q26.2656 48.4844 22.1875 42.8438
Q18.1094 37.2031 18.1094 27.2969
Q18.1094 17.3906 22.1875 11.75
Q26.2656 6.10938 33.4062 6.10938
Q40.5312 6.10938 44.6094 11.75
Q48.6875 17.3906 48.6875 27.2969
M18.1094 46.3906
Q20.9531 51.2656 25.2656 53.625
Q29.5938 56 35.5938 56
Q45.5625 56 51.7812 48.0938
Q58.0156 40.1875 58.0156 27.2969
Q58.0156 14.4062 51.7812 6.48438
Q45.5625 -1.42188 35.5938 -1.42188
Q29.5938 -1.42188 25.2656 0.953125
Q20.9531 3.32812 18.1094 8.20312
L18.1094 0
L9.07812 0
L9.07812 75.9844
L18.1094 75.9844
z
" id="BitstreamVeraSans-Roman-62"/>
    </defs>
    <g transform="translate(183.534375 18.14175)scale(0.144 -0.144)">
     <use xlink:href="#BitstreamVeraSans-Roman-64"/>
     <use x="63.4765625" xlink:href="#BitstreamVeraSans-Roman-61"/>
     <use x="124.755859375" xlink:href="#BitstreamVeraSans-Roman-69"/>
     <use x="152.5390625" xlink:href="#BitstreamVeraSans-Roman-6c"/>
     <use x="180.322265625" xlink:href="#BitstreamVeraSans-Roman-79"/>
     <use x="239.501953125" xlink:href="#BitstreamVeraSans-Roman-20"/>
     <use x="271.2890625" xlink:href="#BitstreamVeraSans-Roman-62"/>
     <use x="334.765625" xlink:href="#BitstreamVeraSans-Roman-61"/>
     <use x="396.044921875" xlink:href="#BitstreamVeraSans-Roman-72"/>
     <use x="434.908203125" xlink:href="#BitstreamVeraSans-Roman-65"/>
     <use x="496.431640625" xlink:href="#BitstreamVeraSans-Roman-20"/>
     <use x="528.21875" xlink:href="#BitstreamVeraSans-Roman-50"/>
     <use x="588.521484375" xlink:href="#BitstreamVeraSans-Roman-45"/>
     <use x="651.705078125" xlink:href="#BitstreamVeraSans-Roman-54"/>
     <use x="712.7890625" xlink:href="#BitstreamVeraSans-Roman-20"/>
     <use x="744.576171875" xlink:href="#BitstreamVeraSans-Roman-61"/>
     <use x="805.85546875" xlink:href="#BitstreamVeraSans-Roman-74"/>
     <use x="845.064453125" xlink:href="#BitstreamVeraSans-Roman-20"/>
     <use x="876.8515625" xlink:href="#BitstreamVeraSans-Roman-54"/>
     <use x="923.185546875" xlink:href="#BitstreamVeraSans-Roman-72"/>
     <use x="962.048828125" xlink:href="#BitstreamVeraSans-Roman-65"/>
     <use x="1023.57226562" xlink:href="#BitstreamVeraSans-Roman-65"/>
     <use x="1085.09570312" xlink:href="#BitstreamVeraSans-Roman-6c"/>
     <use x="1112.87890625" xlink:href="#BitstreamVeraSans-Roman-69"/>
     <use x="1140.66210938" xlink:href="#BitstreamVeraSans-Roman-6e"/>
     <use x="1204.04101562" xlink:href="#BitstreamVeraSans-Roman-65"/>
    </g>
   </g>
   <g id="legend_1">
    <g id="patch_7">
     <path d="
M403.646 372.846
L490.271 372.846
L490.271 30.3417
L403.646 30.3417
z
" style="fill:#ffffff;stroke:#000000;stroke-linejoin:miter;"/>
    </g>
    <g id="line2d_43">
     <path d="
M413.726 42.0035
L433.886 42.0035" style="fill:none;stroke:#0000ff;stroke-linecap:square;"/>
    </g>
    <g id="line2d_44"/>
    <g id="text_17">
     <!-- 1999 -->
     <defs>
      <path d="
M10.9844 1.51562
L10.9844 10.5
Q14.7031 8.73438 18.5 7.8125
Q22.3125 6.89062 25.9844 6.89062
Q35.75 6.89062 40.8906 13.4531
Q46.0469 20.0156 46.7812 33.4062
Q43.9531 29.2031 39.5938 26.9531
Q35.25 24.7031 29.9844 24.7031
Q19.0469 24.7031 12.6719 31.3125
Q6.29688 37.9375 6.29688 49.4219
Q6.29688 60.6406 12.9375 67.4219
Q19.5781 74.2188 30.6094 74.2188
Q43.2656 74.2188 49.9219 64.5156
Q56.5938 54.8281 56.5938 36.375
Q56.5938 19.1406 48.4062 8.85938
Q40.2344 -1.42188 26.4219 -1.42188
Q22.7031 -1.42188 18.8906 -0.6875
Q15.0938 0.046875 10.9844 1.51562
M30.6094 32.4219
Q37.25 32.4219 41.125 36.9531
Q45.0156 41.5 45.0156 49.4219
Q45.0156 57.2812 41.125 61.8438
Q37.25 66.4062 30.6094 66.4062
Q23.9688 66.4062 20.0938 61.8438
Q16.2188 57.2812 16.2188 49.4219
Q16.2188 41.5 20.0938 36.9531
Q23.9688 32.4219 30.6094 32.4219" id="BitstreamVeraSans-Roman-39"/>
     </defs>
     <g transform="translate(449.72625 47.0435)scale(0.144 -0.144)">
      <use xlink:href="#BitstreamVeraSans-Roman-31"/>
      <use x="63.623046875" xlink:href="#BitstreamVeraSans-Roman-39"/>
      <use x="127.24609375" xlink:href="#BitstreamVeraSans-Roman-39"/>
      <use x="190.869140625" xlink:href="#BitstreamVeraSans-Roman-39"/>
     </g>
    </g>
    <g id="line2d_45">
     <path d="
M413.726 63.14
L433.886 63.14" style="fill:none;stroke:#008000;stroke-linecap:square;"/>
    </g>
    <g id="line2d_46"/>
    <g id="text_18">
     <!-- 2000 -->
     <g transform="translate(449.72625 68.18)scale(0.144 -0.144)">
      <use xlink:href="#BitstreamVeraSans-Roman-32"/>
      <use x="63.623046875" xlink:href="#BitstreamVeraSans-Roman-30"/>
      <use x="127.24609375" xlink:href="#BitstreamVeraSans-Roman-30"/>
      <use x="190.869140625" xlink:href="#BitstreamVeraSans-Roman-30"/>
     </g>
    </g>
    <g id="line2d_47">
     <path d="
M413.726 84.2765
L433.886 84.2765" style="fill:none;stroke:#ff0000;stroke-linecap:square;"/>
    </g>
    <g id="line2d_48"/>
    <g id="text_19">
     <!-- 2001 -->
     <g transform="translate(449.72625 89.3165)scale(0.144 -0.144)">
      <use xlink:href="#BitstreamVeraSans-Roman-32"/>
      <use x="63.623046875" xlink:href="#BitstreamVeraSans-Roman-30"/>
      <use x="127.24609375" xlink:href="#BitstreamVeraSans-Roman-30"/>
      <use x="190.869140625" xlink:href="#BitstreamVeraSans-Roman-31"/>
     </g>
    </g>
    <g id="line2d_49">
     <path d="
M413.726 105.413
L433.886 105.413" style="fill:none;stroke:#00bfbf;stroke-linecap:square;"/>
    </g>
    <g id="line2d_50"/>
    <g id="text_20">
     <!-- 2002 -->
     <g transform="translate(449.72625 110.453)scale(0.144 -0.144)">
      <use xlink:href="#BitstreamVeraSans-Roman-32"/>
      <use x="63.623046875" xlink:href="#BitstreamVeraSans-Roman-30"/>
      <use x="127.24609375" xlink:href="#BitstreamVeraSans-Roman-30"/>
      <use x="190.869140625" xlink:href="#BitstreamVeraSans-Roman-32"/>
     </g>
    </g>
    <g id="line2d_51">
     <path d="
M413.726 126.549
L433.886 126.549" style="fill:none;stroke:#bf00bf;stroke-linecap:square;"/>
    </g>
    <g id="line2d_52"/>
    <g id="text_21">
     <!-- 2003 -->
     <g transform="translate(449.72625 131.5895)scale(0.144 -0.144)">
      <use xlink:href="#BitstreamVeraSans-Roman-32"/>
      <use x="63.623046875" xlink:href="#BitstreamVeraSans-Roman-30"/>
      <use x="127.24609375" xlink:href="#BitstreamVeraSans-Roman-30"/>
      <use x="190.869140625" xlink:href="#BitstreamVeraSans-Roman-33"/>
     </g>
    </g>
    <g id="line2d_53">
     <path d="
M413.726 147.686
L433.886 147.686" style="fill:none;stroke:#bfbf00;stroke-linecap:square;"/>
    </g>
    <g id="line2d_54"/>
    <g id="text_22">
     <!-- 2004 -->
     <defs>
      <path d="
M37.7969 64.3125
L12.8906 25.3906
L37.7969 25.3906
z

M35.2031 72.9062
L47.6094 72.9062
L47.6094 25.3906
L58.0156 25.3906
L58.0156 17.1875
L47.6094 17.1875
L47.6094 0
L37.7969 0
L37.7969 17.1875
L4.89062 17.1875
L4.89062 26.7031
z
" id="BitstreamVeraSans-Roman-34"/>
     </defs>
     <g transform="translate(449.72625 152.726)scale(0.144 -0.144)">
      <use xlink:href="#BitstreamVeraSans-Roman-32"/>
      <use x="63.623046875" xlink:href="#BitstreamVeraSans-Roman-30"/>
      <use x="127.24609375" xlink:href="#BitstreamVeraSans-Roman-30"/>
      <use x="190.869140625" xlink:href="#BitstreamVeraSans-Roman-34"/>
     </g>
    </g>
    <g id="line2d_55">
     <path d="
M413.726 168.822
L433.886 168.822" style="fill:none;stroke:#000000;stroke-linecap:square;"/>
    </g>
    <g id="line2d_56"/>
    <g id="text_23">
     <!-- 2005 -->
     <g transform="translate(449.72625 173.8625)scale(0.144 -0.144)">
      <use xlink:href="#BitstreamVeraSans-Roman-32"/>
      <use x="63.623046875" xlink:href="#BitstreamVeraSans-Roman-30"/>
      <use x="127.24609375" xlink:href="#BitstreamVeraSans-Roman-30"/>
      <use x="190.869140625" xlink:href="#BitstreamVeraSans-Roman-35"/>
     </g>
    </g>
    <g id="line2d_57">
     <path d="
M413.726 189.959
L433.886 189.959" style="fill:none;stroke:#0000ff;stroke-linecap:square;"/>
    </g>
    <g id="line2d_58"/>
    <g id="text_24">
     <!-- 2006 -->
     <defs>
      <path d="
M33.0156 40.375
Q26.375 40.375 22.4844 35.8281
Q18.6094 31.2969 18.6094 23.3906
Q18.6094 15.5312 22.4844 10.9531
Q26.375 6.39062 33.0156 6.39062
Q39.6562 6.39062 43.5312 10.9531
Q47.4062 15.5312 47.4062 23.3906
Q47.4062 31.2969 43.5312 35.8281
Q39.6562 40.375 33.0156 40.375
M52.5938 71.2969
L52.5938 62.3125
Q48.875 64.0625 45.0938 64.9844
Q41.3125 65.9219 37.5938 65.9219
Q27.8281 65.9219 22.6719 59.3281
Q17.5312 52.7344 16.7969 39.4062
Q19.6719 43.6562 24.0156 45.9219
Q28.375 48.1875 33.5938 48.1875
Q44.5781 48.1875 50.9531 41.5156
Q57.3281 34.8594 57.3281 23.3906
Q57.3281 12.1562 50.6875 5.35938
Q44.0469 -1.42188 33.0156 -1.42188
Q20.3594 -1.42188 13.6719 8.26562
Q6.98438 17.9688 6.98438 36.375
Q6.98438 53.6562 15.1875 63.9375
Q23.3906 74.2188 37.2031 74.2188
Q40.9219 74.2188 44.7031 73.4844
Q48.4844 72.75 52.5938 71.2969" id="BitstreamVeraSans-Roman-36"/>
     </defs>
     <g transform="translate(449.72625 194.999)scale(0.144 -0.144)">
      <use xlink:href="#BitstreamVeraSans-Roman-32"/>
      <use x="63.623046875" xlink:href="#BitstreamVeraSans-Roman-30"/>
      <use x="127.24609375" xlink:href="#BitstreamVeraSans-Roman-30"/>
      <use x="190.869140625" xlink:href="#BitstreamVeraSans-Roman-36"/>
     </g>
    </g>
    <g id="line2d_59">
     <path d="
M413.726 211.095
L433.886 211.095" style="fill:none;stroke:#008000;stroke-linecap:square;"/>
    </g>
    <g id="line2d_60"/>
    <g id="text_25">
     <!-- 2007 -->
     <defs>
      <path d="
M8.20312 72.9062
L55.0781 72.9062
L55.0781 68.7031
L28.6094 0
L18.3125 0
L43.2188 64.5938
L8.20312 64.5938
z
" id="BitstreamVeraSans-Roman-37"/>
     </defs>
     <g transform="translate(449.72625 216.1355)scale(0.144 -0.144)">
      <use xlink:href="#BitstreamVeraSans-Roman-32"/>
      <use x="63.623046875" xlink:href="#BitstreamVeraSans-Roman-30"/>
      <use x="127.24609375" xlink:href="#BitstreamVeraSans-Roman-30"/>
      <use x="190.869140625" xlink:href="#BitstreamVeraSans-Roman-37"/>
     </g>
    </g>
    <g id="line2d_61">
     <path d="
M413.726 232.232
L433.886 232.232" style="fill:none;stroke:#ff0000;stroke-linecap:square;"/>
    </g>
    <g id="line2d_62"/>
    <g id="text_26">
     <!-- 2008 -->
     <defs>
      <path d="
M31.7812 34.625
Q24.75 34.625 20.7188 30.8594
Q16.7031 27.0938 16.7031 20.5156
Q16.7031 13.9219 20.7188 10.1562
Q24.75 6.39062 31.7812 6.39062
Q38.8125 6.39062 42.8594 10.1719
Q46.9219 13.9688 46.9219 20.5156
Q46.9219 27.0938 42.8906 30.8594
Q38.875 34.625 31.7812 34.625
M21.9219 38.8125
Q15.5781 40.375 12.0312 44.7188
Q8.5 49.0781 8.5 55.3281
Q8.5 64.0625 14.7188 69.1406
Q20.9531 74.2188 31.7812 74.2188
Q42.6719 74.2188 48.875 69.1406
Q55.0781 64.0625 55.0781 55.3281
Q55.0781 49.0781 51.5312 44.7188
Q48 40.375 41.7031 38.8125
Q48.8281 37.1562 52.7969 32.3125
Q56.7812 27.4844 56.7812 20.5156
Q56.7812 9.90625 50.3125 4.23438
Q43.8438 -1.42188 31.7812 -1.42188
Q19.7344 -1.42188 13.25 4.23438
Q6.78125 9.90625 6.78125 20.5156
Q6.78125 27.4844 10.7812 32.3125
Q14.7969 37.1562 21.9219 38.8125
M18.3125 54.3906
Q18.3125 48.7344 21.8438 45.5625
Q25.3906 42.3906 31.7812 42.3906
Q38.1406 42.3906 41.7188 45.5625
Q45.3125 48.7344 45.3125 54.3906
Q45.3125 60.0625 41.7188 63.2344
Q38.1406 66.4062 31.7812 66.4062
Q25.3906 66.4062 21.8438 63.2344
Q18.3125 60.0625 18.3125 54.3906" id="BitstreamVeraSans-Roman-38"/>
     </defs>
     <g transform="translate(449.72625 237.272)scale(0.144 -0.144)">
      <use xlink:href="#BitstreamVeraSans-Roman-32"/>
      <use x="63.623046875" xlink:href="#BitstreamVeraSans-Roman-30"/>
      <use x="127.24609375" xlink:href="#BitstreamVeraSans-Roman-30"/>
      <use x="190.869140625" xlink:href="#BitstreamVeraSans-Roman-38"/>
     </g>
    </g>
    <g id="line2d_63">
     <path d="
M413.726 253.368
L433.886 253.368" style="fill:none;stroke:#00bfbf;stroke-linecap:square;"/>
    </g>
    <g id="line2d_64"/>
    <g id="text_27">
     <!-- 2009 -->
     <g transform="translate(449.72625 258.4085)scale(0.144 -0.144)">
      <use xlink:href="#BitstreamVeraSans-Roman-32"/>
      <use x="63.623046875" xlink:href="#BitstreamVeraSans-Roman-30"/>
      <use x="127.24609375" xlink:href="#BitstreamVeraSans-Roman-30"/>
      <use x="190.869140625" xlink:href="#BitstreamVeraSans-Roman-39"/>
     </g>
    </g>
    <g id="line2d_65">
     <path d="
M413.726 274.505
L433.886 274.505" style="fill:none;stroke:#bf00bf;stroke-linecap:square;"/>
    </g>
    <g id="line2d_66"/>
    <g id="text_28">
     <!-- 2010 -->
     <g transform="translate(449.72625 279.545)scale(0.144 -0.144)">
      <use xlink:href="#BitstreamVeraSans-Roman-32"/>
      <use x="63.623046875" xlink:href="#BitstreamVeraSans-Roman-30"/>
      <use x="127.24609375" xlink:href="#BitstreamVeraSans-Roman-31"/>
      <use x="190.869140625" xlink:href="#BitstreamVeraSans-Roman-30"/>
     </g>
    </g>
    <g id="line2d_67">
     <path d="
M413.726 295.641
L433.886 295.641" style="fill:none;stroke:#bfbf00;stroke-linecap:square;"/>
    </g>
    <g id="line2d_68"/>
    <g id="text_29">
     <!-- 2011 -->
     <g transform="translate(449.72625 300.6815)scale(0.144 -0.144)">
      <use xlink:href="#BitstreamVeraSans-Roman-32"/>
      <use x="63.623046875" xlink:href="#BitstreamVeraSans-Roman-30"/>
      <use x="127.24609375" xlink:href="#BitstreamVeraSans-Roman-31"/>
      <use x="190.869140625" xlink:href="#BitstreamVeraSans-Roman-31"/>
     </g>
    </g>
    <g id="line2d_69">
     <path d="
M413.726 316.778
L433.886 316.778" style="fill:none;stroke:#000000;stroke-linecap:square;"/>
    </g>
    <g id="line2d_70"/>
    <g id="text_30">
     <!-- 2012 -->
     <g transform="translate(449.72625 321.818)scale(0.144 -0.144)">
      <use xlink:href="#BitstreamVeraSans-Roman-32"/>
      <use x="63.623046875" xlink:href="#BitstreamVeraSans-Roman-30"/>
      <use x="127.24609375" xlink:href="#BitstreamVeraSans-Roman-31"/>
      <use x="190.869140625" xlink:href="#BitstreamVeraSans-Roman-32"/>
     </g>
    </g>
    <g id="line2d_71">
     <path d="
M413.726 337.914
L433.886 337.914" style="fill:none;stroke:#0000ff;stroke-linecap:square;"/>
    </g>
    <g id="line2d_72"/>
    <g id="text_31">
     <!-- 2013 -->
     <g transform="translate(449.72625 342.9545)scale(0.144 -0.144)">
      <use xlink:href="#BitstreamVeraSans-Roman-32"/>
      <use x="63.623046875" xlink:href="#BitstreamVeraSans-Roman-30"/>
      <use x="127.24609375" xlink:href="#BitstreamVeraSans-Roman-31"/>
      <use x="190.869140625" xlink:href="#BitstreamVeraSans-Roman-33"/>
     </g>
    </g>
    <g id="line2d_73">
     <path d="
M413.726 359.051
L433.886 359.051" style="fill:none;stroke:#008000;stroke-linecap:square;"/>
    </g>
    <g id="line2d_74"/>
    <g id="text_32">
     <!-- 2014 -->
     <g transform="translate(449.72625 364.091)scale(0.144 -0.144)">
      <use xlink:href="#BitstreamVeraSans-Roman-32"/>
      <use x="63.623046875" xlink:href="#BitstreamVeraSans-Roman-30"/>
      <use x="127.24609375" xlink:href="#BitstreamVeraSans-Roman-31"/>
      <use x="190.869140625" xlink:href="#BitstreamVeraSans-Roman-34"/>
     </g>
    </g>
   </g>
  </g>
 </g>
 <defs>
  <clipPath id="p5fc3a60927">
   <rect height="345.6" width="446.4" x="51.07125" y="23.14175"/>
  </clipPath>
 </defs>
</svg>
