<?xml version="1.0" encoding="utf-8" standalone="no"?>
<!DOCTYPE svg PUBLIC "-//W3C//DTD SVG 1.1//EN"
  "http://www.w3.org/Graphics/SVG/1.1/DTD/svg11.dtd">
<!-- Created with matplotlib (http://matplotlib.org/) -->
<svg height="408pt" version="1.1" viewBox="0 0 519 408" width="519pt" xmlns="http://www.w3.org/2000/svg" xmlns:xlink="http://www.w3.org/1999/xlink">
 <defs>
  <style type="text/css">
*{stroke-linecap:butt;stroke-linejoin:round;}
  </style>
 </defs>
 <g id="figure_1">
  <g id="patch_1">
   <path d="
M0 408.169
L519.941 408.169
L519.941 0
L0 0
z
" style="fill:#ffffff;"/>
  </g>
  <g id="axes_1">
   <g id="patch_2">
    <path d="
M66.3413 368.742
L512.741 368.742
L512.741 23.1417
L66.3413 23.1417
z
" style="fill:#ffffff;"/>
   </g>
   <g id="line2d_1">
    <path clip-path="url(#p747ad1be57)" d="
M68.7873 196.745
L70.0103 196.857
L71.2333 198.39
L72.4563 195.664
L73.6793 196.9
L74.9023 197.825
L76.1254 195.75
L77.3484 194.313
L78.4485 -1
M78.7403 -1
L79.7944 135.112
L81.0174 190.923
L82.2404 195.852
L83.4634 169.55
L84.6865 194.526
L85.9095 166.152
L87.1325 160.888
L89.5785 249.195
L90.8015 199.281
L92.0245 196.278
L93.2476 198.055
L94.4706 196.32
L95.6936 197.744
L96.9166 198.569
L98.1396 196.035
L99.3626 196.548
L101.809 196.275
L103.032 198.147
L104.255 197.432
L105.478 196.298
L106.701 196.52
L107.924 196.08
L109.147 196.814
L110.37 194.856
L111.593 196.279
L112.816 196.373
L115.262 196.254
L116.485 196.276
L117.708 195.341
L118.931 196.105
L120.154 195.155
L121.377 196.06
L125.046 196.147
L126.269 196.585
L127.492 196.612
L128.715 197.211
L129.938 197.423
L131.161 192.228
L132.384 197.988
L133.607 196.285
L134.83 90.4413
L136.053 194.388
L137.276 193.223
L138.499 190.209
L139.722 159.768
L140.945 193.488
L142.168 195.268
L143.391 193.864
L144.614 193.653
L145.837 194.827
L147.06 195.173
L148.283 201.122
L150.729 195.127
L151.715 -1
M152.185 -1
L153.175 200.034
L154.398 195.532
L155.621 190.46
L156.844 58.6109
L158.067 190.365
L159.29 190.581
L160.513 192.972
L161.736 181.303
L162.959 190.94
L164.182 196.317
L165.405 194.589
L166.628 158.856
L167.851 170.434
L169.074 204.168
L170.297 193.57
L171.52 154.545
L172.743 146.81
L173.966 198.063
L175.189 195.847
L176.412 198.439
L177.635 204.498
L178.859 200.382
L180.082 194.245
L181.305 201.789
L182.528 187.902
L183.751 194.363
L184.974 137.998
L186.197 195.769
L187.42 177.629
L188.643 162.56
L189.866 189.92
L191.089 193.062
L192.312 190.448
L193.535 147.65
L194.758 25.4822
L195.981 193.032
L197.204 192.406
L198.427 187.355
L199.65 163.664
L200.873 189.937
L202.096 192.426
L203.319 183.45
L204.542 189.401
L205.765 191.807
L206.988 181.904
L208.211 123.43
L209.434 196.72
L210.657 205.763
L211.88 194.121
L213.103 194.238
L214.326 187.089
L215.549 176.048
L216.772 190.035
L217.995 196.263
L219.218 194.595
L220.441 193.291
L221.664 180.675
L222.887 192.643
L224.11 195.114
L225.333 182.092
L226.556 186.372
L227.779 193.054
L229.002 190.502
L230.225 190.935
L231.448 167.272
L232.671 167.288
L233.894 189.758
L236.34 179.04
L237.563 192.543
L238.786 196.115
L240.009 194.942
L241.232 192.797
L242.455 185.647
L243.678 181.825
L244.901 193.169
L246.124 193.003
L248.57 193.592
L249.793 191.058
L251.016 193.564
L252.239 193.845
L253.462 188.09
L254.685 188.256
L255.908 192.821
L257.131 187.489
L258.354 189.771
L259.577 189.827
L260.8 181.337
L262.023 190.611
L263.246 187.712
L264.469 159.72
L265.692 185.032
L266.915 189.274
L268.139 186.766
L269.362 171.096
L270.585 191.869
L271.808 187.744
L273.031 190.31
L274.254 186.219
L275.477 192.147
L276.7 191.403
L277.923 179.623
L279.146 187.526
L280.369 189.672
L281.592 190.462
L282.815 182.812
L284.038 180.697
L285.261 173.033
L286.484 184.932
L287.707 189.326
L288.93 172.569
L290.153 184.716
L291.376 178.571
L292.599 187.826
L293.822 187.254
L295.045 187.967
L296.268 187.951
L297.491 188.943
L298.714 186.19
L299.937 181.996
L301.16 132.268
L302.383 159.571
L303.606 189.833
L304.829 187.983
L306.052 183.921
L307.275 180.901
L308.498 175.977
L309.721 186.498
L310.944 189.538
L312.167 185.581
L313.39 183.615
L314.613 176.038
L315.836 184.732
L317.059 190.62
L318.282 157.852
L319.505 189.425
L320.728 135.639
L321.951 190.549
L323.174 186.383
L324.397 183.621
L325.62 168.206
L326.843 184.29
L328.066 183.113
L329.289 189.987
L330.512 161.464
L331.735 182.717
L332.958 185.44
L334.181 188.622
L335.404 183.255
L336.627 174.702
L337.85 190.479
L339.073 182.728
L340.296 190.677
L341.519 188.76
L342.742 182.152
L343.965 185.556
L345.188 184.324
L346.411 172.935
L347.634 186.294
L348.857 189.517
L350.08 142.791
L351.303 168.548
L352.526 189.744
L353.749 185.061
L354.972 169.608
L356.195 157.517
L357.419 182.69
L358.642 183.841
L359.865 193.873
L361.088 192.165
L362.311 193.694
L363.534 184.387
L364.757 187.392
L365.98 179.429
L367.203 184.619
L368.426 162.184
L369.649 193.325
L370.872 167.582
L372.095 190.316
L373.318 190.758
L374.541 192.014
L375.764 187.942
L376.987 185.161
L378.21 192.179
L379.433 185.541
L380.656 187.589
L381.879 188.864
L383.102 189.912
L384.325 182.026
L385.548 183.224
L386.771 185.855
L387.994 187.986
L389.217 184.887
L390.44 187.333
L391.663 192.373
L392.886 184.379
L394.109 182.654
L395.332 191.097
L396.555 189.385
L397.778 189.355
L399.001 192.161
L400.224 190.809
L402.67 186.989
L403.893 193.936
L405.116 192.461
L406.339 167.135
L407.562 161.315
L408.785 193.801
L410.008 192.736
L411.231 192.34
L412.454 186.289
L413.677 193.444
L414.9 182.811
L416.123 181.988
L417.346 190.929
L418.569 187.532
L419.792 193.214
L421.015 188.984
L422.238 191.622
L423.461 190.201
L424.684 189.564
L427.13 193.934
L428.353 165.206
L429.576 210.426
L430.799 209.111
L432.022 194.397
L433.245 82.1661
L434.468 191.177
L435.691 190.347
L436.914 194.412
L438.137 189.673
L439.36 193.424
L440.583 171.041
L441.806 185.388
L443.029 171.853
L444.252 183.325
L445.475 186.514
L446.699 197.938
L447.922 195.763
L449.145 196.952
L451.591 195.845
L452.814 196.776
L454.037 194.574
L455.26 193.602
M458.929 187.388
L460.152 196.281
L461.375 196.356
L462.598 204.459
L463.821 202.824
L465.044 376.147
L466.267 206.891
L467.49 197.927
L468.713 273.338
L469.936 197.774
L471.159 201.729
L472.382 197.174
L473.605 209.28
L474.828 196.231
L476.051 196.494
L477.274 196.196
L478.497 197.392
L479.72 185.283
L480.943 182.329
L482.166 192.412
L483.389 187.647
L484.612 195.471
L485.835 194.338
L487.058 194.912
L488.281 189.493
L489.504 194.522
L490.727 178.166
L491.95 198.214
L493.173 198.82
L494.396 217.159
L495.619 201.907
L496.842 198.951
L498.065 199.447
L499.288 230.106
L500.511 190.134
L501.734 195.497
L502.957 115.605
L503.109 -1
M505.173 -1
L505.403 189.501
L506.626 198.691
L507.849 212.322
L509.072 213.617
L510.295 196.43
L511.518 196.549
L511.518 196.549" style="fill:none;stroke:#0000ff;stroke-linecap:square;"/>
   </g>
   <g id="line2d_2">
    <path clip-path="url(#p747ad1be57)" d="
M66.3413 197.536
L67.5643 196.833
L68.7873 196.602
L70.0103 198.217
L71.2333 196.473
L72.4563 195.608
L73.6793 195.183
L74.9023 198.472
L76.1254 200.794
L77.3484 197.575
L78.5714 273.768
L79.7944 196.12
L81.0174 195.744
L82.2404 186.339
L83.4634 194.767
L84.6865 146.47
L85.9095 38.0722
L87.1325 197.914
L88.3555 197.046
L89.5785 197.496
L90.8015 195.984
L92.0245 196.205
L93.2476 194.736
L94.4706 195.815
L95.6936 195.48
L96.9166 195.789
L99.3626 194.361
L100.586 195.34
L101.809 196.046
L103.032 204.748
L104.255 198.549
L105.478 197.913
L106.701 196.658
L107.924 192.444
L109.147 192.881
L110.37 195.817
L111.593 193.764
L112.816 197.156
L114.039 197.003
L115.262 196.285
L116.485 194.387
L117.708 161.185
L118.931 173.383
L120.154 175.454
L121.377 172.893
L122.6 190.92
L123.823 203.756
L125.046 199.7
L126.269 198.99
L127.492 196.817
L128.715 196.402
L129.938 211.037
L131.161 199.818
L132.384 199.114
L133.607 198.196
L134.83 198.008
L136.053 199.523
L137.276 198.149
L138.499 190.518
L139.722 164.823
L140.945 194.533
L142.168 195.678
L144.614 196.031
L145.837 199.11
L147.06 196.971
L148.283 189.083
L149.506 155.093
L150.729 195.9
L151.952 194.517
L153.175 174.002
L154.398 187.52
L155.621 183.905
L156.844 196.033
L158.067 198.465
L159.29 145.938
L160.513 195.35
L160.951 -1
M162.571 -1
L162.959 162.883
L164.182 196.145
L165.405 162.905
L166.628 183.862
L167.851 196.243
L169.074 199.319
L170.297 196.391
L171.52 197.069
L172.743 195.932
L175.189 66.0479
L176.412 187.79
L177.635 144.706
L178.859 196.396
L180.082 194.604
L181.305 177.259
L182.528 195.529
L183.751 196.052
L184.974 195.64
L186.197 195.52
L187.42 194.008
L188.643 190.874
L189.866 194.406
L191.089 164.883
L192.312 192.571
L193.535 193.195
L194.758 178.821
L195.981 186.948
L197.204 191.856
L198.427 195.566
L199.65 192.81
L200.873 196.521
L202.096 195.144
L203.319 193.525
L204.542 189.73
L205.765 191.183
L206.988 193.14
L208.211 192.437
L209.434 189.983
L210.657 195.384
L211.88 192.632
L213.103 193.658
L214.326 174.563
L215.549 190.797
L216.772 192.812
L217.995 174.523
L219.218 192.566
L220.441 190.012
L221.664 192.62
L222.887 175.236
L224.11 176.94
L225.333 190.66
L226.556 191.534
L227.779 166.942
L229.002 44.2013
L230.225 180.57
L231.448 195.756
L232.671 194.471
L233.894 191.908
L235.117 63.5004
L236.34 187.528
L237.563 190.069
L238.786 188.89
L240.009 192.163
L241.232 191.175
L242.455 118.507
L243.678 195.42
L244.901 194.885
L246.124 195.377
L247.347 195.377
L248.57 191.397
L249.793 153.767
L251.016 180.559
L252.239 195.423
L253.462 193
L254.685 155.309
L255.908 159.269
L257.131 189.656
L258.354 189.972
L259.577 187.432
L260.8 191.615
L262.023 193.445
L263.246 191.204
L264.469 192.08
L265.692 191.129
L266.915 186.291
L268.139 177.67
L269.362 187.772
L270.585 192.649
L271.808 191.585
L273.031 186.133
L274.254 189.451
L275.477 189.351
L276.7 186.759
L277.923 176.309
L279.146 183.493
L280.369 188.482
L281.592 189.788
L282.815 177.485
L284.038 170.28
L285.261 182.359
L286.484 186.814
L287.707 189.818
L288.93 189.619
L290.153 182.934
L291.376 187.297
L292.599 183.358
L293.822 188.28
L295.045 185.793
L296.268 182.914
L297.491 190.435
L298.714 189.658
L299.937 180.651
L301.16 189.887
L302.383 179.118
L304.829 190.581
L306.052 183.556
L307.275 178.535
L308.498 187.604
L309.721 164.602
L310.944 189.352
L313.39 187.353
L314.613 189.51
L315.836 186.354
L317.059 175.882
L318.282 181.297
L319.505 187.986
L320.728 188.746
L321.951 190.123
L323.174 175.74
L324.397 111.458
L325.62 188.853
L326.843 160.957
L328.066 177.795
L329.289 172.196
L330.512 188.783
L331.735 188.661
L332.958 188.921
L334.181 188.951
L336.627 185.025
L337.85 186.709
L339.073 189.263
L340.296 180.126
L341.519 187.102
L342.742 178.386
L343.965 188.722
L345.188 189.143
L346.411 185.653
L347.634 183.988
L348.857 189.52
L350.08 189.849
L351.303 184.926
L352.526 184.014
L353.749 187.076
L354.972 178.396
L356.195 188.658
L357.419 189.935
L358.642 187.275
L359.865 186.936
L361.088 191.194
L362.311 182.084
L363.534 185.821
L364.757 185.916
L365.98 191.432
L367.203 188.316
L368.426 187.858
L369.649 186.756
L370.872 180.929
L372.095 186.356
L373.318 185.113
L374.541 178.549
L375.764 168.965
L376.987 185.079
L378.21 190.784
L379.433 190.801
L380.656 166.091
L381.879 192.441
L383.102 189.179
L384.325 192.539
L385.548 189.19
L386.771 189.134
L387.994 190.7
L389.217 191.295
L390.44 184.706
L391.663 153.992
L392.886 178.208
L394.109 191.381
L395.332 185.126
L396.555 190.264
L397.778 185.959
L399.001 178.312
L400.224 184.839
L401.447 177.493
L402.67 181.316
L403.893 182.875
L405.116 193.063
L406.339 195.973
L407.562 193.607
L410.008 192.547
L411.231 190.362
L412.454 183.894
L413.677 192.553
L414.9 194.155
L416.123 193.106
L417.346 189.807
L418.569 188.878
L419.792 192.661
L421.015 188.876
L422.238 190.633
L423.461 192.838
L424.684 193.155
L425.907 192.069
L427.13 194.151
L428.353 187.1
L429.576 194.837
L430.799 194.805
L432.022 194.213
L433.245 192.644
L434.468 186.656
L435.691 193.072
L436.914 188.28
L438.137 194.845
L440.583 112.536
L441.806 195.838
L443.029 196.828
L444.252 196.627
L445.475 196.668
L446.699 195.984
L449.145 182.71
L450.368 188.767
L451.591 193.616
L452.814 194.57
L454.037 193.915
L455.26 199.711
L456.483 196.632
L457.706 191.239
L458.929 199.492
L460.152 198.047
L461.375 197.364
L462.598 194.913
L463.821 172.809
L465.044 64.2053
L466.267 193.213
L467.49 194.729
L468.713 193.824
L469.936 158.256
L471.159 194.36
L472.382 195.237
L473.605 194.445
L474.828 189.053
L476.051 195.336
L477.274 198.284
L478.497 197.158
L479.72 196.896
L480.943 196.01
L482.166 195.812
L483.389 195.155
L484.612 195.152
L485.835 185.294
L487.058 194.333
L488.281 195.748
L489.504 195.966
L490.727 195.636
L491.95 196.442
L493.173 195.867
L494.396 195.063
L496.842 195.174
L498.065 194.962
L499.288 200.29
L500.511 196.357
L501.734 195.848
L502.957 195.487
L504.18 191.709
L505.403 195.679
L506.626 195.692
L507.849 194.344
L509.072 173.795
L510.295 182.8
L511.518 196.498
L511.518 196.498" style="fill:none;stroke:#008000;stroke-linecap:square;"/>
   </g>
   <g id="line2d_3">
    <path clip-path="url(#p747ad1be57)" d="
M66.3413 185.31
L67.5643 57.7094
L68.7873 193.779
L70.0103 178.987
L71.2333 189.981
L72.4563 196.567
L73.6793 197.786
L74.9023 195.064
L77.3484 195.135
L78.5714 196.408
L81.0174 195.396
L82.2404 193.227
L83.4634 193.859
L84.6865 200.784
L85.9095 198.547
L87.1325 197.587
L88.3555 196.027
L89.5785 196.38
L90.8015 176.445
L92.0245 225.764
L93.2476 197.623
L94.4706 198.766
L95.6936 194.443
L96.9166 194.178
L98.1396 198.385
L99.3626 196.019
L100.586 190.059
L101.809 191.816
M104.255 196.338
L105.478 196.655
L106.701 192.071
L107.924 191.653
L109.147 195.705
L110.37 194.749
L111.593 172.6
L112.816 196.155
L114.039 195.824
L115.262 194.754
L116.485 195.784
L117.708 196.041
M121.377 201.275
L122.6 196.157
L123.823 195.485
L125.046 195.664
L126.269 197.503
L127.492 197.803
L128.715 170.173
L129.237 -1
M130.586 -1
L131.161 203.145
L132.384 192.222
L133.607 18.372
L134.83 203.868
L136.053 196.192
L137.276 197.986
L138.499 219.952
L139.722 206.868
L140.945 201.818
L142.168 192.626
L143.391 193.154
L144.614 190.887
L145.837 191.168
L147.06 201.348
L148.283 194.075
L149.506 159.313
L150.729 184.607
L151.952 185.296
L153.175 159.834
L155.621 195.337
L156.844 168.507
L158.067 183.195
L159.29 194.799
L160.513 196.202
L161.736 197.973
L162.959 191.799
L164.182 155.46
L165.405 142.838
L166.628 194.045
L167.851 81.9764
L168.38 -1
M169.51 -1
L170.297 195.614
L171.52 174.843
L172.743 191.492
L173.966 193.5
L175.189 186.223
L176.412 135.317
L177.635 189.573
L178.859 194.878
L180.082 112.136
L181.305 183.049
L182.528 196.213
L183.751 196.93
L184.974 179.367
L186.197 177.621
L187.42 181.066
L188.643 85.7429
L189.866 170.075
L191.089 189.155
L192.312 186.416
L193.535 189.932
L194.758 191.428
L195.981 194.511
L198.427 189.922
L199.65 193.247
L200.873 190.648
L202.096 191.977
L203.319 179.411
L204.542 176.346
L205.765 188.852
L206.988 189.24
L208.211 171.153
L209.434 194.354
L210.657 194.72
L211.88 192.87
L213.103 181.585
L214.326 192.421
L215.549 192.201
L216.772 187.927
L217.995 192.927
L219.218 193.694
L220.441 191.023
L221.664 191.767
L222.887 192.071
L224.11 179.199
L225.333 184.389
L226.556 191.866
L227.779 186.423
L229.002 193.019
L230.225 181.234
L231.448 187.671
L232.671 182.347
L233.894 181.44
L235.117 187.853
L236.34 190.164
L237.563 189.281
L238.786 146.15
L240.009 174.533
L241.232 188.773
L242.455 192.608
L243.678 194.026
L244.901 194.335
L246.124 189.963
L247.347 192.875
L248.57 183.491
L249.793 185.998
L251.016 185.744
L252.239 188.948
L253.462 187.724
L254.685 191.95
L255.908 164.878
L257.131 190.81
L258.354 192.919
L259.577 161.849
L260.8 190.885
L262.023 191.473
L263.246 184.873
L264.469 190.345
L265.692 190.373
L266.915 178.228
L268.139 190.52
L269.362 187.831
L270.585 189.326
L271.808 161.773
L273.031 166.14
L274.254 192.764
L275.477 188.57
L276.7 107.157
L277.923 164.295
L279.146 182.795
L280.369 182.037
L281.592 190.039
L282.815 169.06
L284.038 190.387
L285.261 180.872
L286.484 186.694
L287.707 188.375
L288.93 181.692
L290.153 187.993
L291.376 165.474
L292.599 187.613
L293.822 188.559
L295.045 185.054
L296.268 179.33
L297.491 80.4602
L298.714 118.053
L299.937 187.792
L301.16 184.29
L302.383 181.951
L303.606 171.733
L304.829 165.708
L306.052 188.932
L307.275 115.884
L308.498 141.02
L309.721 177.623
L310.944 153.411
L312.167 182.947
L313.39 181.893
L314.613 183.347
L315.836 186.368
L317.059 189.749
L318.282 190.463
L319.505 179.852
L320.728 186.392
L321.951 186.269
L323.174 188.789
L324.397 185.376
L325.62 186.631
L326.843 183.868
L328.066 178.883
L329.289 185.006
L330.512 182.889
L331.735 189.576
L332.958 188.875
L334.181 180.668
L335.404 184.553
L336.627 189.867
L337.85 190.304
L339.073 186.377
L340.296 191.319
L341.519 190.385
L342.742 186.836
L343.965 184.695
L345.188 188.492
L346.411 178.725
L347.634 176.211
L348.857 185.746
L350.08 186.699
L351.303 165.197
L352.526 187.546
L353.749 189.004
L354.972 183.009
L356.195 189.834
L357.419 178.101
L358.642 183.738
L359.865 190.737
L361.088 183.605
L362.311 190.499
L363.534 176.234
L364.757 182.477
L365.98 187.507
L367.203 188.578
L368.426 186.04
L369.649 189.889
L370.872 189.986
L372.095 190.478
L373.318 185.524
L374.541 161.66
L375.764 185.291
L376.987 185.491
L378.21 188.069
L379.433 189.766
L380.656 180.841
L381.879 189.306
L383.102 186.419
L384.325 190.276
L385.548 189.52
L386.771 186.999
L387.994 188.867
L389.217 192.051
L391.663 176.234
L392.886 189.877
L394.109 190.019
L395.332 190.43
L396.555 192.568
L399.001 188.631
L400.224 183.011
L401.447 186.506
L402.67 179.228
L403.893 184.893
L405.116 187.683
L406.339 192.922
L407.562 193.824
L408.785 193.099
L410.008 191.888
L411.231 192.38
L412.454 193.574
L413.677 192.94
L416.123 185.512
L417.346 190.256
L418.569 186.884
L419.792 159.163
L421.015 193.533
L422.238 191.366
L423.461 192.447
L424.684 172.428
L425.907 194.725
L427.13 192.537
L428.353 196.373
L429.576 196.9
L430.799 196.578
L432.022 194.926
L433.245 195.236
M435.691 183.288
L436.914 189.531
L438.137 163.696
L439.36 189.179
L440.583 193.697
L441.806 192.064
L443.029 193.355
L444.252 192.255
L445.475 188.898
L446.699 193.41
L447.922 188.957
L449.145 196.732
L450.368 196.685
L451.591 196.347
L452.814 200.726
M455.26 195.88
L456.483 186.211
L457.706 192.634
M460.152 191.597
L461.375 165.692
L462.598 76.0459
L463.821 157.358
L465.044 195.521
L466.267 178.59
L467.49 194.964
L468.713 195.82
L469.936 195.374
L471.159 191.082
L472.382 168.785
L473.605 175.079
L474.828 175.666
L476.051 188.157
L477.274 93.0001
L478.497 194.399
L479.72 176.552
L480.943 191.657
L482.166 195.691
L483.389 196.232
L484.612 199.478
L485.835 196.736
L487.058 196.152
L488.281 195.905
L489.504 196.067
L490.727 195.944
L491.95 196.692
L493.173 200.299
L494.396 197.297
L495.619 238.628
M499.288 200.417
L500.511 184.342
L501.734 185.962
L502.957 201.398
L504.18 202.238
L504.969 409.169
M505.831 409.169
L506.626 197.589
L507.849 197.23
L509.072 197.343
L510.295 198.482
L511.518 196.966
L511.518 196.966" style="fill:none;stroke:#ff0000;stroke-linecap:square;"/>
   </g>
   <g id="line2d_4">
    <path clip-path="url(#p747ad1be57)" d="
M66.3413 197.356
L67.5643 197.336
L68.7873 195.402
L70.0103 196.057
L71.2333 196.944
L72.4563 196.194
L73.6793 196.684
L74.9023 196.355
L76.1254 208.646
M83.4634 197.02
L84.6865 197.728
L85.9095 195.845
L87.1325 195.234
L88.3555 194.9
L89.5785 194.021
L90.8015 194.895
L92.0245 189.827
L93.2476 173.712
L94.4706 195.868
L95.6936 194.722
L96.9166 195.375
M103.032 195.99
L105.478 195.63
L106.701 195.693
L107.924 194.788
L109.147 193.294
L110.37 196.239
L111.593 196.66
L112.816 196.598
L114.039 208.192
L115.262 199.813
L116.485 196.6
L117.708 197.204
L118.931 195.764
L120.154 196.222
L121.377 194.701
L122.6 191.528
L123.823 197.554
L125.046 200.37
L126.269 198.375
L127.492 201.456
L128.715 200.669
L129.938 196.645
L131.161 207.414
L132.384 196.877
L133.607 199.31
L136.053 195.735
L137.276 195.655
L138.499 194.451
L139.722 189.011
L140.945 171.344
L142.168 194.145
L143.391 137.155
L144.614 153.947
L145.837 195.544
L147.06 194.346
L148.283 192.573
L149.506 191.098
L150.729 189.274
L151.952 193.859
L153.175 193.067
L154.398 189.945
L155.621 185.208
L156.844 191.457
L158.067 204.342
L159.29 194.319
L160.513 190.824
L161.736 177.259
L162.959 206.042
L164.182 205.469
L165.405 196.91
L166.628 195.735
L167.851 190.227
L169.074 195.561
L170.297 190.702
L171.52 192.435
L172.743 193.631
L173.966 188.286
L175.189 192.718
L176.412 188.692
L177.635 187.998
L178.859 192.373
L180.082 185.152
L181.305 188.109
L182.528 193.966
L183.751 192.697
L184.974 190.454
L186.197 179.358
L187.42 188.67
L188.643 192.813
L189.866 192.921
L191.089 173.975
L192.312 195.814
L193.535 195.408
L194.758 194.015
L195.981 192.002
L197.204 193.143
L198.427 193.317
L199.65 185.23
L200.873 189.305
L202.096 190.894
L203.319 194.468
L204.542 191.778
L206.988 191.583
L208.211 183.11
L209.434 170.811
L210.657 136.003
L211.88 187.967
L213.103 190.898
L214.326 191.277
L215.549 187.868
L216.772 181.865
L217.995 172.344
L219.218 184.941
L220.441 187.543
L221.664 184.288
L222.887 190.246
L224.11 190.844
L225.333 190.753
L226.556 185.269
L227.779 157.088
L229.002 185.115
L230.225 191.054
L231.448 191.337
L232.671 193.916
L233.894 186.173
L235.117 188.788
L236.34 189.98
L237.454 -1
M237.674 -1
L238.786 186.151
L240.009 183.768
L241.232 189.936
L242.455 187.237
L243.678 192.439
L244.901 194.108
L246.124 192
L247.347 191.731
L249.793 188.639
L251.016 191.347
L252.239 176.968
L253.462 187.006
L254.685 187.821
L255.908 188.172
L257.131 190.546
L258.354 167.083
L259.577 184.751
L260.8 184.798
L262.023 176.287
L263.246 185.43
L264.469 185.484
L265.692 185.152
L266.915 186.068
L268.139 189.297
L269.362 191.938
L270.585 189.129
L271.808 168.891
L273.031 184.495
L274.254 194.15
L275.477 191.132
L276.7 190.775
L277.923 189.043
L279.146 192.533
L280.369 192.937
L281.592 190.937
L282.815 190.032
L284.038 186.963
L285.261 180.586
L286.484 188.573
L287.707 172.223
L288.93 187.017
L290.153 175.493
L291.376 184.046
L292.599 184.07
L293.822 189.075
L295.045 186.048
L296.268 189.301
L297.491 188.662
L298.714 182.454
L299.937 184.4
L301.16 170.862
L302.383 185.158
L303.606 187.891
L304.829 185.445
L306.052 145.261
L307.275 180.02
L308.498 189.247
L309.721 185.401
L310.944 183.201
L312.167 187.487
L313.39 177.48
L314.613 186.106
L315.836 188.928
L317.059 183.165
L318.282 189.161
L319.505 185.585
L320.728 185.76
L321.951 183.905
L323.174 188.698
L324.397 185.795
L325.62 178.417
L326.843 187.797
L328.066 188.182
L329.289 187.307
L330.512 186.264
L331.735 185.881
L332.958 184.13
L334.181 163.204
L335.404 181.983
L336.627 181.376
L337.85 185.97
L339.073 186.554
L340.296 186.244
L341.519 182.596
L342.742 188.307
L343.965 188.407
L346.411 185.707
L347.634 187.408
L348.857 186.584
L350.08 190.916
L351.303 181.927
L352.526 190.17
L353.749 176.016
L354.972 154.301
L356.195 190.651
L357.419 178.779
L358.642 173.118
L359.865 176.894
L361.088 178.162
L362.311 188.542
L363.534 187.127
L364.757 179.32
L365.98 167.356
L367.203 158.983
L368.426 129.01
L369.649 180.242
L370.872 189.901
L372.095 187.633
L373.318 180.821
L374.541 189.247
L375.764 181.158
L376.987 179.045
L378.21 191.321
L379.433 186.967
L380.656 100.815
L381.879 184.72
L383.102 178.39
L384.325 183.967
L385.548 187.539
L386.538 -1
M387.009 -1
L387.994 182.776
L389.217 179.674
L390.44 175.766
L391.663 190.14
L392.886 195.184
L394.109 195.57
L395.332 192.715
L396.555 184.436
L397.778 186.582
L399.001 156.818
L400.224 192.974
L401.447 194.794
L402.67 193.097
L403.893 193.165
L405.116 193.5
L406.339 173.327
L407.562 184.54
L408.785 193.299
L410.008 192.809
L411.231 191.778
L412.454 193.79
L413.677 193.296
L414.9 190.667
L416.123 192.048
L417.346 192.941
L418.569 192.794
L419.792 189.809
L421.015 193.361
L422.238 188.506
L423.461 188.841
L424.684 193.522
L425.907 193.778
L427.13 193.475
L428.353 192.572
L429.576 193.525
L430.799 193.154
L432.022 188.062
L433.245 192.676
L434.468 195.336
L435.691 195.698
L436.914 194.293
L438.137 194.139
L439.36 158.238
L440.583 201.842
L441.806 197.458
L443.029 196.238
L444.252 194.726
L445.475 165.671
L446.699 195.207
L447.922 192.884
L449.145 187.11
L450.368 188.875
L451.591 175.877
L452.814 192.347
L455.26 196.644
L456.483 204.38
L457.706 195.433
L458.929 191.878
L460.152 194.664
L461.375 195.303
L462.598 196.173
L463.821 195.953
L465.044 195.096
L466.267 193.971
L467.49 193.58
L468.713 183.77
L469.936 183.925
L471.159 194.647
L472.382 194.666
L473.605 195.23
L474.828 188.067
L476.051 114.179
L477.274 199.839
L478.497 196.725
L479.72 196.729
L480.943 223.513
L482.166 200.574
L483.389 201.384
L484.612 200.303
L487.058 197.014
L488.281 194.63
L489.504 196.131
L490.727 195.787
L491.95 194.834
L493.173 194.813
L494.396 190.062
L495.619 194.679
L496.842 198.83
L498.065 198.896
L500.511 196.147
L501.734 195.636
L502.957 197.034
L504.18 194.934
L505.403 195.343
L506.626 190.966
L507.849 195.782
L509.072 196.322
L510.295 195.254
L511.518 194.42
L511.518 194.42" style="fill:none;stroke:#00bfbf;stroke-linecap:square;"/>
   </g>
   <g id="line2d_5">
    <path clip-path="url(#p747ad1be57)" d="
M66.3413 194.62
L67.5643 188.217
L67.7063 -1
M69.6402 -1
L69.8831 409.169
M70.6472 409.169
L71.2333 211.431
L72.4563 179.841
L73.6793 196.572
L74.9023 196.369
L76.1254 196.525
L76.474 -1
M78.648 -1
L78.653 409.169
M82.2329 409.169
L82.2404 159.432
L83.4634 94.4976
L84.6865 182.533
L85.9095 145.876
L87.1325 187.598
L88.3555 63.9279
L89.5785 71.0459
L90.8015 175.07
L92.0245 178.23
L93.2476 194.362
L94.4706 193.564
L95.6936 169.547
L96.9166 82.7729
L98.1396 131.912
L99.3626 194.204
L100.425 -1
M100.651 -1
L101.556 409.169
M102.288 409.169
L103.032 231.759
L104.255 203.711
L105.478 215.348
L106.701 280.893
L107.924 212.213
L109.147 197.049
L110.316 409.169
M112.647 409.169
L112.816 269.736
L114.039 20.4139
L115.262 188.449
L116.485 195.913
L116.798 -1
M124.797 -1
L125.046 122.453
L125.05 -1
M127.477 -1
L127.49 409.169
M127.752 409.169
L128.715 195.366
L128.881 409.169
M130.82 409.169
L131.086 -1
M131.731 -1
L132.384 132.222
L133.607 149.958
L134.83 155.518
L135.852 -1
M136.302 -1
L137.276 119.908
L138.499 188.165
L139.722 193.346
L140.945 141.879
L142.12 -1
M145.827 -1
L145.837 150.642
L145.966 -1
M150.695 -1
L150.729 194.368
L151.952 188.99
L153.175 179.924
L154.398 13.2589
L155.621 160.191
L156.844 160.376
L156.846 -1
M159.288 -1
L159.29 194.577
L160.513 183.917
L160.694 -1
M162.785 -1
L162.959 176.991
L164.182 177.23
L165.405 168.97
L166.628 162.133
L166.678 -1
M169.024 -1
L169.074 164.487
L170.239 409.169
M170.321 409.169
L171.109 -1
M172.241 -1
L172.743 148.444
L173.966 191.418
L174.738 -1
M175.63 -1
L176.412 199.317
L177.635 193.176
L178.859 182.547
L180.082 99.6777
L181.305 65.6656
L181.314 -1
M183.726 -1
L183.751 171.034
L184.974 174.111
L185.826 -1
M187.782 -1
L188.643 157.086
L188.902 -1
M191.994 -1
L192.312 159.482
L192.627 -1
M194.434 -1
L194.758 165.299
L194.851 -1
M199.096 -1
L199.65 68.7701
L199.978 -1
M202.987 -1
L203.319 167.936
L204.542 143.73
L205.765 184.079
L206.988 108.155
L208.211 107.62
L209.434 137.042
L210.657 75.1312
L211.88 153.117
L213.103 167.377
L214.326 101.928
L215.177 -1
M221.609 -1
L221.664 138.195
L221.664 138.195
L221.664 138.195
L221.681 -1
M224.098 -1
L224.11 97.9501
L224.659 -1
M228.458 -1
L229.002 169.561
L230.225 167.314
L231.448 119.573
L232.671 90.0438
L232.756 -1
M234.998 -1
L235.117 131.485
L236.34 127.831
L237.491 -1
M239.457 -1
L240.009 69.738
L240.048 -1
M242.373 -1
L242.455 153.519
L243.678 15.1115
L244.901 139.713
L245.164 -1
M247.189 -1
L247.347 75.5089
L248.57 101.209
L249.175 -1
M250.41 -1
L251.016 101.79
L252.239 131.898
L252.674 -1
M257.928 -1
L258.354 116.891
L259.281 -1
M259.978 -1
L260.8 76.4366
L260.943 -1
M262.982 -1
L263.246 161.022
L263.32 -1
M266.868 -1
L266.915 128.527
L268.139 166.127
L268.866 -1
M270.031 -1
L270.585 93.084
L271.808 175.298
L273.031 130.763
L274.478 -1
M276.618 -1
L276.7 6.27542
L277.923 76.54
L279.146 18.3487
L280.369 84.3938
L281.592 16.0424
L281.781 -1
M285.845 -1
L286.484 134.981
L287.066 -1
M290.061 -1
L290.153 150.506
L291.376 140.819
L292.599 106.179
L293.822 138.086
L295.045 22.96
L296.268 49.2856
L297.491 31.0892
L298.714 122.196
L299.937 57.5616
L301.16 87.5088
L302.383 29.822
L302.408 -1
M306.051 -1
L306.052 0.131843
L307.275 102.539
L307.816 -1
M311.24 -1
L312.167 138.74
L313.39 125.41
L313.468 -1
M316.942 -1
L317.059 42.0958
L318.282 128.453
L319.505 130.081
L319.643 -1
M321.862 -1
L321.951 80.5254
L323.114 -1
M324.825 -1
L325.62 171.035
L326.843 19.3915
L327.78 -1
M330.47 -1
L330.512 34.522
L331.295 -1
M331.872 -1
L332.958 158.332
L334.181 164.336
L335.404 70.754
L336.627 94.3457
L337.85 23.4723
L337.863 -1
M341.43 -1
L341.519 124.984
L342.742 107.451
L343.965 41.5031
L345.188 142.136
L346.411 124.036
L347.546 -1
M347.716 -1
L348.857 134.748
L350.08 113.766
L351.303 54.7757
L352.526 43.025
L353.749 172.267
L354.972 79.4512
L356.195 145.421
L357.419 149.364
L358.642 125.139
L359.865 141.076
L360.448 -1
M362.049 -1
L362.311 41.4294
L363.534 111.886
L364.757 139.646
L364.829 -1
M367.117 -1
L367.203 168.26
L368.426 141.071
L369.398 -1
M369.935 -1
L370.872 118.615
L372.095 165.298
L372.191 -1
M375.389 -1
L375.764 115.03
L376.323 -1
M377.54 -1
L378.21 165.575
L379.433 170.491
L380.656 155.944
M389.094 -1
L389.217 142.733
L389.672 -1
M394.107 -1
L394.109 22.0313
L395.332 157.144
L396.555 171.641
L397.778 85.1655
L397.922 -1
M400.088 -1
L400.224 80.2576
L401.447 151.348
L402.67 183.485
L403.893 148.331
L405.116 140.01
L406.339 107.308
L407.562 145.085
L408.785 141.745
L410.008 133.64
L411.231 83.4538
L412.454 2.12805
L413.677 93.9206
L413.82 -1
M418.133 -1
L418.569 141.167
L418.67 -1
M420.907 -1
L421.015 152.573
L421.164 -1
M424.659 -1
L424.684 40.4183
L424.684 40.4183
L424.684 40.4183
L424.714 -1
M431.953 -1
L432.022 192.524
L433.245 16.62
L434.468 185.255
L434.477 -1
M438.033 -1
L438.137 163.241
L439.36 196.071
L440.583 195.491
L441.806 160.463
L443.029 148.03
L443.055 -1
M445.459 -1
L445.475 93.9826
L446.699 170.062
L447.052 -1
M448.699 -1
L449.145 240.553
L450.368 199.89
L451.591 245.72
L451.686 409.169
M453.988 409.169
L454.037 329.75
L455.26 200.991
L456.483 221.467
L457.706 195.787
L458.929 191.563
L460.152 165.77
L461.375 192.803
L462.598 147.487
L462.633 -1
M464.971 -1
L465.044 314.498
L466.267 190.154
L466.268 -1
M468.713 -1
L468.713 13.9834
L469.936 156.541
L471.159 102.952
L471.163 -1
M473.595 -1
L473.605 258.555
L474.828 231.883
L476.051 184.575
L476.247 -1
M478.31 -1
L478.497 173.906
L479.106 -1
M489.504 -1
L489.504 196.092
L493.173 196.086
L494.396 194.817
L495.619 203.396
L496.842 245.573
L498.065 198.814
L498.562 -1
M500.018 -1
L500.511 196.048
L501.734 196.116
L502.957 211.177
L504.18 331.631
L505.403 213.014
L506.626 215.076
L507.849 377.361
L509.072 201.925
L510.295 198.276
L511.518 196.695
L511.518 196.695" style="fill:none;stroke:#bf00bf;stroke-linecap:square;"/>
   </g>
   <g id="patch_3">
    <path d="
M66.3413 23.1417
L512.741 23.1417" style="fill:none;stroke:#000000;stroke-linecap:square;stroke-linejoin:miter;"/>
   </g>
   <g id="patch_4">
    <path d="
M512.741 368.742
L512.741 23.1417" style="fill:none;stroke:#000000;stroke-linecap:square;stroke-linejoin:miter;"/>
   </g>
   <g id="patch_5">
    <path d="
M66.3413 368.742
L512.741 368.742" style="fill:none;stroke:#000000;stroke-linecap:square;stroke-linejoin:miter;"/>
   </g>
   <g id="patch_6">
    <path d="
M66.3413 368.742
L66.3413 23.1417" style="fill:none;stroke:#000000;stroke-linecap:square;stroke-linejoin:miter;"/>
   </g>
   <g id="matplotlib.axis_1">
    <g id="xtick_1">
     <g id="line2d_6">
      <defs>
       <path d="
M0 0
L0 -4" id="m93b0483c22" style="stroke:#000000;stroke-width:0.5;"/>
      </defs>
      <g>
       <use style="stroke:#000000;stroke-width:0.5;" x="66.34125" xlink:href="#m93b0483c22" y="368.74175"/>
      </g>
     </g>
     <g id="line2d_7">
      <defs>
       <path d="
M0 0
L0 4" id="m741efc42ff" style="stroke:#000000;stroke-width:0.5;"/>
      </defs>
      <g>
       <use style="stroke:#000000;stroke-width:0.5;" x="66.34125" xlink:href="#m741efc42ff" y="23.14175"/>
      </g>
     </g>
     <g id="text_1">
      <!-- 0 -->
      <defs>
       <path d="
M31.7812 66.4062
Q24.1719 66.4062 20.3281 58.9062
Q16.5 51.4219 16.5 36.375
Q16.5 21.3906 20.3281 13.8906
Q24.1719 6.39062 31.7812 6.39062
Q39.4531 6.39062 43.2812 13.8906
Q47.125 21.3906 47.125 36.375
Q47.125 51.4219 43.2812 58.9062
Q39.4531 66.4062 31.7812 66.4062
M31.7812 74.2188
Q44.0469 74.2188 50.5156 64.5156
Q56.9844 54.8281 56.9844 36.375
Q56.9844 17.9688 50.5156 8.26562
Q44.0469 -1.42188 31.7812 -1.42188
Q19.5312 -1.42188 13.0625 8.26562
Q6.59375 17.9688 6.59375 36.375
Q6.59375 54.8281 13.0625 64.5156
Q19.5312 74.2188 31.7812 74.2188" id="BitstreamVeraSans-Roman-30"/>
      </defs>
      <g transform="translate(63.3178125 381.859875)scale(0.12 -0.12)">
       <use xlink:href="#BitstreamVeraSans-Roman-30"/>
      </g>
     </g>
    </g>
    <g id="xtick_2">
     <g id="line2d_8">
      <g>
       <use style="stroke:#000000;stroke-width:0.5;" x="127.491934932" xlink:href="#m93b0483c22" y="368.74175"/>
      </g>
     </g>
     <g id="line2d_9">
      <g>
       <use style="stroke:#000000;stroke-width:0.5;" x="127.491934932" xlink:href="#m741efc42ff" y="23.14175"/>
      </g>
     </g>
     <g id="text_2">
      <!-- 50 -->
      <defs>
       <path d="
M10.7969 72.9062
L49.5156 72.9062
L49.5156 64.5938
L19.8281 64.5938
L19.8281 46.7344
Q21.9688 47.4688 24.1094 47.8281
Q26.2656 48.1875 28.4219 48.1875
Q40.625 48.1875 47.75 41.5
Q54.8906 34.8125 54.8906 23.3906
Q54.8906 11.625 47.5625 5.09375
Q40.2344 -1.42188 26.9062 -1.42188
Q22.3125 -1.42188 17.5469 -0.640625
Q12.7969 0.140625 7.71875 1.70312
L7.71875 11.625
Q12.1094 9.23438 16.7969 8.0625
Q21.4844 6.89062 26.7031 6.89062
Q35.1562 6.89062 40.0781 11.3281
Q45.0156 15.7656 45.0156 23.3906
Q45.0156 31 40.0781 35.4375
Q35.1562 39.8906 26.7031 39.8906
Q22.75 39.8906 18.8125 39.0156
Q14.8906 38.1406 10.7969 36.2812
z
" id="BitstreamVeraSans-Roman-35"/>
      </defs>
      <g transform="translate(120.718497432 381.859875)scale(0.12 -0.12)">
       <use xlink:href="#BitstreamVeraSans-Roman-35"/>
       <use x="63.623046875" xlink:href="#BitstreamVeraSans-Roman-30"/>
      </g>
     </g>
    </g>
    <g id="xtick_3">
     <g id="line2d_10">
      <g>
       <use style="stroke:#000000;stroke-width:0.5;" x="188.642619863" xlink:href="#m93b0483c22" y="368.74175"/>
      </g>
     </g>
     <g id="line2d_11">
      <g>
       <use style="stroke:#000000;stroke-width:0.5;" x="188.642619863" xlink:href="#m741efc42ff" y="23.14175"/>
      </g>
     </g>
     <g id="text_3">
      <!-- 100 -->
      <defs>
       <path d="
M12.4062 8.29688
L28.5156 8.29688
L28.5156 63.9219
L10.9844 60.4062
L10.9844 69.3906
L28.4219 72.9062
L38.2812 72.9062
L38.2812 8.29688
L54.3906 8.29688
L54.3906 0
L12.4062 0
z
" id="BitstreamVeraSans-Roman-31"/>
      </defs>
      <g transform="translate(178.247619863 381.859875)scale(0.12 -0.12)">
       <use xlink:href="#BitstreamVeraSans-Roman-31"/>
       <use x="63.623046875" xlink:href="#BitstreamVeraSans-Roman-30"/>
       <use x="127.24609375" xlink:href="#BitstreamVeraSans-Roman-30"/>
      </g>
     </g>
    </g>
    <g id="xtick_4">
     <g id="line2d_12">
      <g>
       <use style="stroke:#000000;stroke-width:0.5;" x="249.793304795" xlink:href="#m93b0483c22" y="368.74175"/>
      </g>
     </g>
     <g id="line2d_13">
      <g>
       <use style="stroke:#000000;stroke-width:0.5;" x="249.793304795" xlink:href="#m741efc42ff" y="23.14175"/>
      </g>
     </g>
     <g id="text_4">
      <!-- 150 -->
      <g transform="translate(239.398304795 381.859875)scale(0.12 -0.12)">
       <use xlink:href="#BitstreamVeraSans-Roman-31"/>
       <use x="63.623046875" xlink:href="#BitstreamVeraSans-Roman-35"/>
       <use x="127.24609375" xlink:href="#BitstreamVeraSans-Roman-30"/>
      </g>
     </g>
    </g>
    <g id="xtick_5">
     <g id="line2d_14">
      <g>
       <use style="stroke:#000000;stroke-width:0.5;" x="310.943989726" xlink:href="#m93b0483c22" y="368.74175"/>
      </g>
     </g>
     <g id="line2d_15">
      <g>
       <use style="stroke:#000000;stroke-width:0.5;" x="310.943989726" xlink:href="#m741efc42ff" y="23.14175"/>
      </g>
     </g>
     <g id="text_5">
      <!-- 200 -->
      <defs>
       <path d="
M19.1875 8.29688
L53.6094 8.29688
L53.6094 0
L7.32812 0
L7.32812 8.29688
Q12.9375 14.1094 22.625 23.8906
Q32.3281 33.6875 34.8125 36.5312
Q39.5469 41.8438 41.4219 45.5312
Q43.3125 49.2188 43.3125 52.7812
Q43.3125 58.5938 39.2344 62.25
Q35.1562 65.9219 28.6094 65.9219
Q23.9688 65.9219 18.8125 64.3125
Q13.6719 62.7031 7.8125 59.4219
L7.8125 69.3906
Q13.7656 71.7812 18.9375 73
Q24.125 74.2188 28.4219 74.2188
Q39.75 74.2188 46.4844 68.5469
Q53.2188 62.8906 53.2188 53.4219
Q53.2188 48.9219 51.5312 44.8906
Q49.8594 40.875 45.4062 35.4062
Q44.1875 33.9844 37.6406 27.2188
Q31.1094 20.4531 19.1875 8.29688" id="BitstreamVeraSans-Roman-32"/>
      </defs>
      <g transform="translate(300.329614726 381.859875)scale(0.12 -0.12)">
       <use xlink:href="#BitstreamVeraSans-Roman-32"/>
       <use x="63.623046875" xlink:href="#BitstreamVeraSans-Roman-30"/>
       <use x="127.24609375" xlink:href="#BitstreamVeraSans-Roman-30"/>
      </g>
     </g>
    </g>
    <g id="xtick_6">
     <g id="line2d_16">
      <g>
       <use style="stroke:#000000;stroke-width:0.5;" x="372.094674658" xlink:href="#m93b0483c22" y="368.74175"/>
      </g>
     </g>
     <g id="line2d_17">
      <g>
       <use style="stroke:#000000;stroke-width:0.5;" x="372.094674658" xlink:href="#m741efc42ff" y="23.14175"/>
      </g>
     </g>
     <g id="text_6">
      <!-- 250 -->
      <g transform="translate(361.480299658 381.859875)scale(0.12 -0.12)">
       <use xlink:href="#BitstreamVeraSans-Roman-32"/>
       <use x="63.623046875" xlink:href="#BitstreamVeraSans-Roman-35"/>
       <use x="127.24609375" xlink:href="#BitstreamVeraSans-Roman-30"/>
      </g>
     </g>
    </g>
    <g id="xtick_7">
     <g id="line2d_18">
      <g>
       <use style="stroke:#000000;stroke-width:0.5;" x="433.245359589" xlink:href="#m93b0483c22" y="368.74175"/>
      </g>
     </g>
     <g id="line2d_19">
      <g>
       <use style="stroke:#000000;stroke-width:0.5;" x="433.245359589" xlink:href="#m741efc42ff" y="23.14175"/>
      </g>
     </g>
     <g id="text_7">
      <!-- 300 -->
      <defs>
       <path d="
M40.5781 39.3125
Q47.6562 37.7969 51.625 33
Q55.6094 28.2188 55.6094 21.1875
Q55.6094 10.4062 48.1875 4.48438
Q40.7656 -1.42188 27.0938 -1.42188
Q22.5156 -1.42188 17.6562 -0.515625
Q12.7969 0.390625 7.625 2.20312
L7.625 11.7188
Q11.7188 9.32812 16.5938 8.10938
Q21.4844 6.89062 26.8125 6.89062
Q36.0781 6.89062 40.9375 10.5469
Q45.7969 14.2031 45.7969 21.1875
Q45.7969 27.6406 41.2812 31.2656
Q36.7656 34.9062 28.7188 34.9062
L20.2188 34.9062
L20.2188 43.0156
L29.1094 43.0156
Q36.375 43.0156 40.2344 45.9219
Q44.0938 48.8281 44.0938 54.2969
Q44.0938 59.9062 40.1094 62.9062
Q36.1406 65.9219 28.7188 65.9219
Q24.6562 65.9219 20.0156 65.0312
Q15.375 64.1562 9.8125 62.3125
L9.8125 71.0938
Q15.4375 72.6562 20.3438 73.4375
Q25.25 74.2188 29.5938 74.2188
Q40.8281 74.2188 47.3594 69.1094
Q53.9062 64.0156 53.9062 55.3281
Q53.9062 49.2656 50.4375 45.0938
Q46.9688 40.9219 40.5781 39.3125" id="BitstreamVeraSans-Roman-33"/>
      </defs>
      <g transform="translate(422.648797089 381.859875)scale(0.12 -0.12)">
       <use xlink:href="#BitstreamVeraSans-Roman-33"/>
       <use x="63.623046875" xlink:href="#BitstreamVeraSans-Roman-30"/>
       <use x="127.24609375" xlink:href="#BitstreamVeraSans-Roman-30"/>
      </g>
     </g>
    </g>
    <g id="xtick_8">
     <g id="line2d_20">
      <g>
       <use style="stroke:#000000;stroke-width:0.5;" x="494.396044521" xlink:href="#m93b0483c22" y="368.74175"/>
      </g>
     </g>
     <g id="line2d_21">
      <g>
       <use style="stroke:#000000;stroke-width:0.5;" x="494.396044521" xlink:href="#m741efc42ff" y="23.14175"/>
      </g>
     </g>
     <g id="text_8">
      <!-- 350 -->
      <g transform="translate(483.799482021 381.859875)scale(0.12 -0.12)">
       <use xlink:href="#BitstreamVeraSans-Roman-33"/>
       <use x="63.623046875" xlink:href="#BitstreamVeraSans-Roman-35"/>
       <use x="127.24609375" xlink:href="#BitstreamVeraSans-Roman-30"/>
      </g>
     </g>
    </g>
    <g id="text_9">
     <!-- Julian day -->
     <defs>
      <path id="BitstreamVeraSans-Roman-20"/>
      <path d="
M9.8125 72.9062
L19.6719 72.9062
L19.6719 5.07812
Q19.6719 -8.10938 14.6719 -14.0625
Q9.67188 -20.0156 -1.42188 -20.0156
L-5.17188 -20.0156
L-5.17188 -11.7188
L-2.09375 -11.7188
Q4.4375 -11.7188 7.125 -8.04688
Q9.8125 -4.39062 9.8125 5.07812
z
" id="BitstreamVeraSans-Roman-4a"/>
      <path d="
M54.8906 33.0156
L54.8906 0
L45.9062 0
L45.9062 32.7188
Q45.9062 40.4844 42.875 44.3281
Q39.8438 48.1875 33.7969 48.1875
Q26.5156 48.1875 22.3125 43.5469
Q18.1094 38.9219 18.1094 30.9062
L18.1094 0
L9.07812 0
L9.07812 54.6875
L18.1094 54.6875
L18.1094 46.1875
Q21.3438 51.125 25.7031 53.5625
Q30.0781 56 35.7969 56
Q45.2188 56 50.0469 50.1719
Q54.8906 44.3438 54.8906 33.0156" id="BitstreamVeraSans-Roman-6e"/>
      <path d="
M9.42188 75.9844
L18.4062 75.9844
L18.4062 0
L9.42188 0
z
" id="BitstreamVeraSans-Roman-6c"/>
      <path d="
M9.42188 54.6875
L18.4062 54.6875
L18.4062 0
L9.42188 0
z

M9.42188 75.9844
L18.4062 75.9844
L18.4062 64.5938
L9.42188 64.5938
z
" id="BitstreamVeraSans-Roman-69"/>
      <path d="
M32.1719 -5.07812
Q28.375 -14.8438 24.75 -17.8125
Q21.1406 -20.7969 15.0938 -20.7969
L7.90625 -20.7969
L7.90625 -13.2812
L13.1875 -13.2812
Q16.8906 -13.2812 18.9375 -11.5156
Q21 -9.76562 23.4844 -3.21875
L25.0938 0.875
L2.98438 54.6875
L12.5 54.6875
L29.5938 11.9219
L46.6875 54.6875
L56.2031 54.6875
z
" id="BitstreamVeraSans-Roman-79"/>
      <path d="
M45.4062 46.3906
L45.4062 75.9844
L54.3906 75.9844
L54.3906 0
L45.4062 0
L45.4062 8.20312
Q42.5781 3.32812 38.25 0.953125
Q33.9375 -1.42188 27.875 -1.42188
Q17.9688 -1.42188 11.7344 6.48438
Q5.51562 14.4062 5.51562 27.2969
Q5.51562 40.1875 11.7344 48.0938
Q17.9688 56 27.875 56
Q33.9375 56 38.25 53.625
Q42.5781 51.2656 45.4062 46.3906
M14.7969 27.2969
Q14.7969 17.3906 18.875 11.75
Q22.9531 6.10938 30.0781 6.10938
Q37.2031 6.10938 41.2969 11.75
Q45.4062 17.3906 45.4062 27.2969
Q45.4062 37.2031 41.2969 42.8438
Q37.2031 48.4844 30.0781 48.4844
Q22.9531 48.4844 18.875 42.8438
Q14.7969 37.2031 14.7969 27.2969" id="BitstreamVeraSans-Roman-64"/>
      <path d="
M8.5 21.5781
L8.5 54.6875
L17.4844 54.6875
L17.4844 21.9219
Q17.4844 14.1562 20.5 10.2656
Q23.5312 6.39062 29.5938 6.39062
Q36.8594 6.39062 41.0781 11.0312
Q45.3125 15.6719 45.3125 23.6875
L45.3125 54.6875
L54.2969 54.6875
L54.2969 0
L45.3125 0
L45.3125 8.40625
Q42.0469 3.42188 37.7188 1
Q33.4062 -1.42188 27.6875 -1.42188
Q18.2656 -1.42188 13.375 4.4375
Q8.5 10.2969 8.5 21.5781" id="BitstreamVeraSans-Roman-75"/>
      <path d="
M34.2812 27.4844
Q23.3906 27.4844 19.1875 25
Q14.9844 22.5156 14.9844 16.5
Q14.9844 11.7188 18.1406 8.90625
Q21.2969 6.10938 26.7031 6.10938
Q34.1875 6.10938 38.7031 11.4062
Q43.2188 16.7031 43.2188 25.4844
L43.2188 27.4844
z

M52.2031 31.2031
L52.2031 0
L43.2188 0
L43.2188 8.29688
Q40.1406 3.32812 35.5469 0.953125
Q30.9531 -1.42188 24.3125 -1.42188
Q15.9219 -1.42188 10.9531 3.29688
Q6 8.01562 6 15.9219
Q6 25.1406 12.1719 29.8281
Q18.3594 34.5156 30.6094 34.5156
L43.2188 34.5156
L43.2188 35.4062
Q43.2188 41.6094 39.1406 45
Q35.0625 48.3906 27.6875 48.3906
Q23 48.3906 18.5469 47.2656
Q14.1094 46.1406 10.0156 43.8906
L10.0156 52.2031
Q14.9375 54.1094 19.5781 55.0469
Q24.2188 56 28.6094 56
Q40.4844 56 46.3438 49.8438
Q52.2031 43.7031 52.2031 31.2031" id="BitstreamVeraSans-Roman-61"/>
     </defs>
     <g transform="translate(260.0803125 398.473625)scale(0.12 -0.12)">
      <use xlink:href="#BitstreamVeraSans-Roman-4a"/>
      <use x="29.4921875" xlink:href="#BitstreamVeraSans-Roman-75"/>
      <use x="92.87109375" xlink:href="#BitstreamVeraSans-Roman-6c"/>
      <use x="120.654296875" xlink:href="#BitstreamVeraSans-Roman-69"/>
      <use x="148.4375" xlink:href="#BitstreamVeraSans-Roman-61"/>
      <use x="209.716796875" xlink:href="#BitstreamVeraSans-Roman-6e"/>
      <use x="273.095703125" xlink:href="#BitstreamVeraSans-Roman-20"/>
      <use x="304.8828125" xlink:href="#BitstreamVeraSans-Roman-64"/>
      <use x="368.359375" xlink:href="#BitstreamVeraSans-Roman-61"/>
      <use x="429.638671875" xlink:href="#BitstreamVeraSans-Roman-79"/>
     </g>
    </g>
   </g>
   <g id="matplotlib.axis_2">
    <g id="ytick_1">
     <g id="line2d_22">
      <defs>
       <path d="
M0 0
L4 0" id="m728421d6d4" style="stroke:#000000;stroke-width:0.5;"/>
      </defs>
      <g>
       <use style="stroke:#000000;stroke-width:0.5;" x="66.34125" xlink:href="#m728421d6d4" y="368.74175"/>
      </g>
     </g>
     <g id="line2d_23">
      <defs>
       <path d="
M0 0
L-4 0" id="mcb0005524f" style="stroke:#000000;stroke-width:0.5;"/>
      </defs>
      <g>
       <use style="stroke:#000000;stroke-width:0.5;" x="512.74125" xlink:href="#mcb0005524f" y="368.74175"/>
      </g>
     </g>
     <g id="text_10">
      <!-- −1000 -->
      <defs>
       <path d="
M10.5938 35.5
L73.1875 35.5
L73.1875 27.2031
L10.5938 27.2031
z
" id="BitstreamVeraSans-Roman-2212"/>
      </defs>
      <g transform="translate(23.81375 372.053)scale(0.12 -0.12)">
       <use xlink:href="#BitstreamVeraSans-Roman-2212"/>
       <use x="83.7890625" xlink:href="#BitstreamVeraSans-Roman-31"/>
       <use x="147.412109375" xlink:href="#BitstreamVeraSans-Roman-30"/>
       <use x="211.03515625" xlink:href="#BitstreamVeraSans-Roman-30"/>
       <use x="274.658203125" xlink:href="#BitstreamVeraSans-Roman-30"/>
      </g>
     </g>
    </g>
    <g id="ytick_2">
     <g id="line2d_24">
      <g>
       <use style="stroke:#000000;stroke-width:0.5;" x="66.34125" xlink:href="#m728421d6d4" y="282.34175"/>
      </g>
     </g>
     <g id="line2d_25">
      <g>
       <use style="stroke:#000000;stroke-width:0.5;" x="512.74125" xlink:href="#mcb0005524f" y="282.34175"/>
      </g>
     </g>
     <g id="text_11">
      <!-- −500 -->
      <g transform="translate(31.44875 285.653)scale(0.12 -0.12)">
       <use xlink:href="#BitstreamVeraSans-Roman-2212"/>
       <use x="83.7890625" xlink:href="#BitstreamVeraSans-Roman-35"/>
       <use x="147.412109375" xlink:href="#BitstreamVeraSans-Roman-30"/>
       <use x="211.03515625" xlink:href="#BitstreamVeraSans-Roman-30"/>
      </g>
     </g>
    </g>
    <g id="ytick_3">
     <g id="line2d_26">
      <g>
       <use style="stroke:#000000;stroke-width:0.5;" x="66.34125" xlink:href="#m728421d6d4" y="195.94175"/>
      </g>
     </g>
     <g id="line2d_27">
      <g>
       <use style="stroke:#000000;stroke-width:0.5;" x="512.74125" xlink:href="#mcb0005524f" y="195.94175"/>
      </g>
     </g>
     <g id="text_12">
      <!-- 0 -->
      <g transform="translate(56.294375 199.253)scale(0.12 -0.12)">
       <use xlink:href="#BitstreamVeraSans-Roman-30"/>
      </g>
     </g>
    </g>
    <g id="ytick_4">
     <g id="line2d_28">
      <g>
       <use style="stroke:#000000;stroke-width:0.5;" x="66.34125" xlink:href="#m728421d6d4" y="109.54175"/>
      </g>
     </g>
     <g id="line2d_29">
      <g>
       <use style="stroke:#000000;stroke-width:0.5;" x="512.74125" xlink:href="#mcb0005524f" y="109.54175"/>
      </g>
     </g>
     <g id="text_13">
      <!-- 500 -->
      <g transform="translate(41.159375 112.853)scale(0.12 -0.12)">
       <use xlink:href="#BitstreamVeraSans-Roman-35"/>
       <use x="63.623046875" xlink:href="#BitstreamVeraSans-Roman-30"/>
       <use x="127.24609375" xlink:href="#BitstreamVeraSans-Roman-30"/>
      </g>
     </g>
    </g>
    <g id="ytick_5">
     <g id="line2d_30">
      <g>
       <use style="stroke:#000000;stroke-width:0.5;" x="66.34125" xlink:href="#m728421d6d4" y="23.14175"/>
      </g>
     </g>
     <g id="line2d_31">
      <g>
       <use style="stroke:#000000;stroke-width:0.5;" x="512.74125" xlink:href="#mcb0005524f" y="23.14175"/>
      </g>
     </g>
     <g id="text_14">
      <!-- 1000 -->
      <g transform="translate(33.91625 26.453)scale(0.12 -0.12)">
       <use xlink:href="#BitstreamVeraSans-Roman-31"/>
       <use x="63.623046875" xlink:href="#BitstreamVeraSans-Roman-30"/>
       <use x="127.24609375" xlink:href="#BitstreamVeraSans-Roman-30"/>
       <use x="190.869140625" xlink:href="#BitstreamVeraSans-Roman-30"/>
      </g>
     </g>
    </g>
    <g id="text_15">
     <!-- PET (mm/day) -->
     <defs>
      <path d="
M52 44.1875
Q55.375 50.25 60.0625 53.125
Q64.75 56 71.0938 56
Q79.6406 56 84.2812 50.0156
Q88.9219 44.0469 88.9219 33.0156
L88.9219 0
L79.8906 0
L79.8906 32.7188
Q79.8906 40.5781 77.0938 44.375
Q74.3125 48.1875 68.6094 48.1875
Q61.625 48.1875 57.5625 43.5469
Q53.5156 38.9219 53.5156 30.9062
L53.5156 0
L44.4844 0
L44.4844 32.7188
Q44.4844 40.625 41.7031 44.4062
Q38.9219 48.1875 33.1094 48.1875
Q26.2188 48.1875 22.1562 43.5312
Q18.1094 38.875 18.1094 30.9062
L18.1094 0
L9.07812 0
L9.07812 54.6875
L18.1094 54.6875
L18.1094 46.1875
Q21.1875 51.2188 25.4844 53.6094
Q29.7812 56 35.6875 56
Q41.6562 56 45.8281 52.9688
Q50 49.9531 52 44.1875" id="BitstreamVeraSans-Roman-6d"/>
      <path d="
M8.01562 75.875
L15.8281 75.875
Q23.1406 64.3594 26.7812 53.3125
Q30.4219 42.2812 30.4219 31.3906
Q30.4219 20.4531 26.7812 9.375
Q23.1406 -1.70312 15.8281 -13.1875
L8.01562 -13.1875
Q14.5 -2 17.7031 9.0625
Q20.9062 20.125 20.9062 31.3906
Q20.9062 42.6719 17.7031 53.6562
Q14.5 64.6562 8.01562 75.875" id="BitstreamVeraSans-Roman-29"/>
      <path d="
M31 75.875
Q24.4688 64.6562 21.2812 53.6562
Q18.1094 42.6719 18.1094 31.3906
Q18.1094 20.125 21.3125 9.0625
Q24.5156 -2 31 -13.1875
L23.1875 -13.1875
Q15.875 -1.70312 12.2344 9.375
Q8.59375 20.4531 8.59375 31.3906
Q8.59375 42.2812 12.2031 53.3125
Q15.8281 64.3594 23.1875 75.875
z
" id="BitstreamVeraSans-Roman-28"/>
      <path d="
M19.6719 64.7969
L19.6719 37.4062
L32.0781 37.4062
Q38.9688 37.4062 42.7188 40.9688
Q46.4844 44.5312 46.4844 51.125
Q46.4844 57.6719 42.7188 61.2344
Q38.9688 64.7969 32.0781 64.7969
z

M9.8125 72.9062
L32.0781 72.9062
Q44.3438 72.9062 50.6094 67.3594
Q56.8906 61.8125 56.8906 51.125
Q56.8906 40.3281 50.6094 34.8125
Q44.3438 29.2969 32.0781 29.2969
L19.6719 29.2969
L19.6719 0
L9.8125 0
z
" id="BitstreamVeraSans-Roman-50"/>
      <path d="
M9.8125 72.9062
L55.9062 72.9062
L55.9062 64.5938
L19.6719 64.5938
L19.6719 43.0156
L54.3906 43.0156
L54.3906 34.7188
L19.6719 34.7188
L19.6719 8.29688
L56.7812 8.29688
L56.7812 0
L9.8125 0
z
" id="BitstreamVeraSans-Roman-45"/>
      <path d="
M-0.296875 72.9062
L61.375 72.9062
L61.375 64.5938
L35.5 64.5938
L35.5 0
L25.5938 0
L25.5938 64.5938
L-0.296875 64.5938
z
" id="BitstreamVeraSans-Roman-54"/>
      <path d="
M25.3906 72.9062
L33.6875 72.9062
L8.29688 -9.28125
L0 -9.28125
z
" id="BitstreamVeraSans-Roman-2f"/>
     </defs>
     <g transform="translate(16.318125 237.8358125)rotate(-90.0)scale(0.12 -0.12)">
      <use xlink:href="#BitstreamVeraSans-Roman-50"/>
      <use x="60.302734375" xlink:href="#BitstreamVeraSans-Roman-45"/>
      <use x="123.486328125" xlink:href="#BitstreamVeraSans-Roman-54"/>
      <use x="184.5703125" xlink:href="#BitstreamVeraSans-Roman-20"/>
      <use x="216.357421875" xlink:href="#BitstreamVeraSans-Roman-28"/>
      <use x="255.37109375" xlink:href="#BitstreamVeraSans-Roman-6d"/>
      <use x="352.783203125" xlink:href="#BitstreamVeraSans-Roman-6d"/>
      <use x="450.1953125" xlink:href="#BitstreamVeraSans-Roman-2f"/>
      <use x="483.88671875" xlink:href="#BitstreamVeraSans-Roman-64"/>
      <use x="547.36328125" xlink:href="#BitstreamVeraSans-Roman-61"/>
      <use x="608.642578125" xlink:href="#BitstreamVeraSans-Roman-79"/>
      <use x="667.822265625" xlink:href="#BitstreamVeraSans-Roman-29"/>
     </g>
    </g>
   </g>
   <g id="text_16">
    <!-- daily grass PET at LDP -->
    <defs>
     <path d="
M9.8125 72.9062
L19.6719 72.9062
L19.6719 8.29688
L55.1719 8.29688
L55.1719 0
L9.8125 0
z
" id="BitstreamVeraSans-Roman-4c"/>
     <path d="
M44.2812 53.0781
L44.2812 44.5781
Q40.4844 46.5312 36.375 47.5
Q32.2812 48.4844 27.875 48.4844
Q21.1875 48.4844 17.8438 46.4375
Q14.5 44.3906 14.5 40.2812
Q14.5 37.1562 16.8906 35.375
Q19.2812 33.5938 26.5156 31.9844
L29.5938 31.2969
Q39.1562 29.25 43.1875 25.5156
Q47.2188 21.7812 47.2188 15.0938
Q47.2188 7.46875 41.1875 3.01562
Q35.1562 -1.42188 24.6094 -1.42188
Q20.2188 -1.42188 15.4531 -0.5625
Q10.6875 0.296875 5.42188 2
L5.42188 11.2812
Q10.4062 8.6875 15.2344 7.39062
Q20.0625 6.10938 24.8125 6.10938
Q31.1562 6.10938 34.5625 8.28125
Q37.9844 10.4531 37.9844 14.4062
Q37.9844 18.0625 35.5156 20.0156
Q33.0625 21.9688 24.7031 23.7812
L21.5781 24.5156
Q13.2344 26.2656 9.51562 29.9062
Q5.8125 33.5469 5.8125 39.8906
Q5.8125 47.6094 11.2812 51.7969
Q16.75 56 26.8125 56
Q31.7812 56 36.1719 55.2656
Q40.5781 54.5469 44.2812 53.0781" id="BitstreamVeraSans-Roman-73"/>
     <path d="
M19.6719 64.7969
L19.6719 8.10938
L31.5938 8.10938
Q46.6875 8.10938 53.6875 14.9375
Q60.6875 21.7812 60.6875 36.5312
Q60.6875 51.1719 53.6875 57.9844
Q46.6875 64.7969 31.5938 64.7969
z

M9.8125 72.9062
L30.0781 72.9062
Q51.2656 72.9062 61.1719 64.0938
Q71.0938 55.2812 71.0938 36.5312
Q71.0938 17.6719 61.125 8.82812
Q51.1719 0 30.0781 0
L9.8125 0
z
" id="BitstreamVeraSans-Roman-44"/>
     <path d="
M18.3125 70.2188
L18.3125 54.6875
L36.8125 54.6875
L36.8125 47.7031
L18.3125 47.7031
L18.3125 18.0156
Q18.3125 11.3281 20.1406 9.42188
Q21.9688 7.51562 27.5938 7.51562
L36.8125 7.51562
L36.8125 0
L27.5938 0
Q17.1875 0 13.2344 3.875
Q9.28125 7.76562 9.28125 18.0156
L9.28125 47.7031
L2.6875 47.7031
L2.6875 54.6875
L9.28125 54.6875
L9.28125 70.2188
z
" id="BitstreamVeraSans-Roman-74"/>
     <path d="
M41.1094 46.2969
Q39.5938 47.1719 37.8125 47.5781
Q36.0312 48 33.8906 48
Q26.2656 48 22.1875 43.0469
Q18.1094 38.0938 18.1094 28.8125
L18.1094 0
L9.07812 0
L9.07812 54.6875
L18.1094 54.6875
L18.1094 46.1875
Q20.9531 51.1719 25.4844 53.5781
Q30.0312 56 36.5312 56
Q37.4531 56 38.5781 55.875
Q39.7031 55.7656 41.0625 55.5156
z
" id="BitstreamVeraSans-Roman-72"/>
     <path d="
M45.4062 27.9844
Q45.4062 37.75 41.375 43.1094
Q37.3594 48.4844 30.0781 48.4844
Q22.8594 48.4844 18.8281 43.1094
Q14.7969 37.75 14.7969 27.9844
Q14.7969 18.2656 18.8281 12.8906
Q22.8594 7.51562 30.0781 7.51562
Q37.3594 7.51562 41.375 12.8906
Q45.4062 18.2656 45.4062 27.9844
M54.3906 6.78125
Q54.3906 -7.17188 48.1875 -13.9844
Q42 -20.7969 29.2031 -20.7969
Q24.4688 -20.7969 20.2656 -20.0938
Q16.0625 -19.3906 12.1094 -17.9219
L12.1094 -9.1875
Q16.0625 -11.3281 19.9219 -12.3438
Q23.7812 -13.375 27.7812 -13.375
Q36.625 -13.375 41.0156 -8.76562
Q45.4062 -4.15625 45.4062 5.17188
L45.4062 9.625
Q42.625 4.78125 38.2812 2.39062
Q33.9375 0 27.875 0
Q17.8281 0 11.6719 7.65625
Q5.51562 15.3281 5.51562 27.9844
Q5.51562 40.6719 11.6719 48.3281
Q17.8281 56 27.875 56
Q33.9375 56 38.2812 53.6094
Q42.625 51.2188 45.4062 46.3906
L45.4062 54.6875
L54.3906 54.6875
z
" id="BitstreamVeraSans-Roman-67"/>
    </defs>
    <g transform="translate(209.523375 18.14175)scale(0.144 -0.144)">
     <use xlink:href="#BitstreamVeraSans-Roman-64"/>
     <use x="63.4765625" xlink:href="#BitstreamVeraSans-Roman-61"/>
     <use x="124.755859375" xlink:href="#BitstreamVeraSans-Roman-69"/>
     <use x="152.5390625" xlink:href="#BitstreamVeraSans-Roman-6c"/>
     <use x="180.322265625" xlink:href="#BitstreamVeraSans-Roman-79"/>
     <use x="239.501953125" xlink:href="#BitstreamVeraSans-Roman-20"/>
     <use x="271.2890625" xlink:href="#BitstreamVeraSans-Roman-67"/>
     <use x="334.765625" xlink:href="#BitstreamVeraSans-Roman-72"/>
     <use x="375.87890625" xlink:href="#BitstreamVeraSans-Roman-61"/>
     <use x="437.158203125" xlink:href="#BitstreamVeraSans-Roman-73"/>
     <use x="489.2578125" xlink:href="#BitstreamVeraSans-Roman-73"/>
     <use x="541.357421875" xlink:href="#BitstreamVeraSans-Roman-20"/>
     <use x="573.14453125" xlink:href="#BitstreamVeraSans-Roman-50"/>
     <use x="633.447265625" xlink:href="#BitstreamVeraSans-Roman-45"/>
     <use x="696.630859375" xlink:href="#BitstreamVeraSans-Roman-54"/>
     <use x="757.71484375" xlink:href="#BitstreamVeraSans-Roman-20"/>
     <use x="789.501953125" xlink:href="#BitstreamVeraSans-Roman-61"/>
     <use x="850.78125" xlink:href="#BitstreamVeraSans-Roman-74"/>
     <use x="889.990234375" xlink:href="#BitstreamVeraSans-Roman-20"/>
     <use x="921.77734375" xlink:href="#BitstreamVeraSans-Roman-4c"/>
     <use x="977.490234375" xlink:href="#BitstreamVeraSans-Roman-44"/>
     <use x="1054.4921875" xlink:href="#BitstreamVeraSans-Roman-50"/>
    </g>
   </g>
   <g id="legend_1">
    <g id="patch_7">
     <path d="
M418.916 140.344
L505.541 140.344
L505.541 30.3417
L418.916 30.3417
z
" style="fill:#ffffff;stroke:#000000;stroke-linejoin:miter;"/>
    </g>
    <g id="line2d_32">
     <path d="
M428.996 42.0035
L449.156 42.0035" style="fill:none;stroke:#0000ff;stroke-linecap:square;"/>
    </g>
    <g id="line2d_33"/>
    <g id="text_17">
     <!-- 2010 -->
     <g transform="translate(464.99625 47.0435)scale(0.144 -0.144)">
      <use xlink:href="#BitstreamVeraSans-Roman-32"/>
      <use x="63.623046875" xlink:href="#BitstreamVeraSans-Roman-30"/>
      <use x="127.24609375" xlink:href="#BitstreamVeraSans-Roman-31"/>
      <use x="190.869140625" xlink:href="#BitstreamVeraSans-Roman-30"/>
     </g>
    </g>
    <g id="line2d_34">
     <path d="
M428.996 63.14
L449.156 63.14" style="fill:none;stroke:#008000;stroke-linecap:square;"/>
    </g>
    <g id="line2d_35"/>
    <g id="text_18">
     <!-- 2011 -->
     <g transform="translate(464.99625 68.18)scale(0.144 -0.144)">
      <use xlink:href="#BitstreamVeraSans-Roman-32"/>
      <use x="63.623046875" xlink:href="#BitstreamVeraSans-Roman-30"/>
      <use x="127.24609375" xlink:href="#BitstreamVeraSans-Roman-31"/>
      <use x="190.869140625" xlink:href="#BitstreamVeraSans-Roman-31"/>
     </g>
    </g>
    <g id="line2d_36">
     <path d="
M428.996 84.2765
L449.156 84.2765" style="fill:none;stroke:#ff0000;stroke-linecap:square;"/>
    </g>
    <g id="line2d_37"/>
    <g id="text_19">
     <!-- 2012 -->
     <g transform="translate(464.99625 89.3165)scale(0.144 -0.144)">
      <use xlink:href="#BitstreamVeraSans-Roman-32"/>
      <use x="63.623046875" xlink:href="#BitstreamVeraSans-Roman-30"/>
      <use x="127.24609375" xlink:href="#BitstreamVeraSans-Roman-31"/>
      <use x="190.869140625" xlink:href="#BitstreamVeraSans-Roman-32"/>
     </g>
    </g>
    <g id="line2d_38">
     <path d="
M428.996 105.413
L449.156 105.413" style="fill:none;stroke:#00bfbf;stroke-linecap:square;"/>
    </g>
    <g id="line2d_39"/>
    <g id="text_20">
     <!-- 2013 -->
     <g transform="translate(464.99625 110.453)scale(0.144 -0.144)">
      <use xlink:href="#BitstreamVeraSans-Roman-32"/>
      <use x="63.623046875" xlink:href="#BitstreamVeraSans-Roman-30"/>
      <use x="127.24609375" xlink:href="#BitstreamVeraSans-Roman-31"/>
      <use x="190.869140625" xlink:href="#BitstreamVeraSans-Roman-33"/>
     </g>
    </g>
    <g id="line2d_40">
     <path d="
M428.996 126.549
L449.156 126.549" style="fill:none;stroke:#bf00bf;stroke-linecap:square;"/>
    </g>
    <g id="line2d_41"/>
    <g id="text_21">
     <!-- 2014 -->
     <defs>
      <path d="
M37.7969 64.3125
L12.8906 25.3906
L37.7969 25.3906
z

M35.2031 72.9062
L47.6094 72.9062
L47.6094 25.3906
L58.0156 25.3906
L58.0156 17.1875
L47.6094 17.1875
L47.6094 0
L37.7969 0
L37.7969 17.1875
L4.89062 17.1875
L4.89062 26.7031
z
" id="BitstreamVeraSans-Roman-34"/>
     </defs>
     <g transform="translate(464.99625 131.5895)scale(0.144 -0.144)">
      <use xlink:href="#BitstreamVeraSans-Roman-32"/>
      <use x="63.623046875" xlink:href="#BitstreamVeraSans-Roman-30"/>
      <use x="127.24609375" xlink:href="#BitstreamVeraSans-Roman-31"/>
      <use x="190.869140625" xlink:href="#BitstreamVeraSans-Roman-34"/>
     </g>
    </g>
   </g>
  </g>
 </g>
 <defs>
  <clipPath id="p747ad1be57">
   <rect height="345.6" width="446.4" x="66.34125" y="23.14175"/>
  </clipPath>
 </defs>
</svg>
