<?xml version="1.0" encoding="utf-8" standalone="no"?>
<!DOCTYPE svg PUBLIC "-//W3C//DTD SVG 1.1//EN"
  "http://www.w3.org/Graphics/SVG/1.1/DTD/svg11.dtd">
<!-- Created with matplotlib (http://matplotlib.org/) -->
<svg height="408pt" version="1.1" viewBox="0 0 519 408" width="519pt" xmlns="http://www.w3.org/2000/svg" xmlns:xlink="http://www.w3.org/1999/xlink">
 <defs>
  <style type="text/css">
*{stroke-linecap:butt;stroke-linejoin:round;}
  </style>
 </defs>
 <g id="figure_1">
  <g id="patch_1">
   <path d="
M0 408.169
L519.941 408.169
L519.941 0
L0 0
z
" style="fill:#ffffff;"/>
  </g>
  <g id="axes_1">
   <g id="patch_2">
    <path d="
M66.3413 368.742
L512.741 368.742
L512.741 23.1417
L66.3413 23.1417
z
" style="fill:#ffffff;"/>
   </g>
   <g id="line2d_1">
    <path clip-path="url(#p747ad1be57)" d="
M68.7873 196.759
L70.0103 196.86
L71.2333 198.39
L72.4563 195.667
L73.6793 196.911
L74.9023 197.833
L76.1254 195.751
L77.3484 194.32
L78.4486 -1
M78.7403 -1
L79.7944 135.113
L81.0174 190.928
L82.2404 195.866
L83.4634 169.557
L84.6865 194.528
L85.9095 166.155
L87.1325 160.893
L89.5785 249.201
L90.8015 199.292
L92.0245 196.283
L93.2476 198.055
L94.4706 196.332
L95.6936 197.746
L96.9166 198.57
L98.1396 196.036
L99.3626 196.558
L101.809 196.279
L103.032 198.147
L104.255 197.445
L105.478 196.305
L106.701 196.524
L107.924 196.088
L109.147 196.816
L110.37 194.868
L111.593 196.288
L112.816 196.38
L115.262 196.256
L116.485 196.28
L117.708 195.343
L118.931 196.108
L120.154 195.16
L121.377 196.062
L125.046 196.152
L126.269 196.59
L127.492 196.621
L128.715 197.224
L129.938 197.436
L131.161 192.239
L132.384 197.992
L133.607 196.291
L134.83 90.4445
L136.053 194.39
L137.276 193.226
L138.499 190.217
L139.722 159.771
L140.945 193.495
L142.168 195.272
L143.391 193.87
L144.614 193.66
L145.837 194.833
L147.06 195.176
L148.283 201.131
L150.729 195.134
L151.715 -1
M152.185 -1
L153.175 200.035
L154.398 195.543
L155.621 190.468
L156.844 58.6145
L158.067 190.366
L159.29 190.583
L160.513 192.976
L161.736 181.307
L162.959 190.94
L164.182 196.321
L165.405 194.59
L166.628 158.859
L167.851 170.436
L169.074 204.17
L170.297 193.578
L171.52 154.547
L172.743 146.811
L173.966 198.067
L175.189 195.851
L176.412 198.443
L177.635 204.503
L178.859 200.383
L180.082 194.249
L181.305 201.79
L182.528 187.903
L183.751 194.37
L184.974 138
L186.197 195.775
L187.42 177.632
L188.643 162.56
L189.866 189.926
L191.089 193.065
L192.312 190.449
L193.535 147.647
L194.758 25.48
L195.981 193.025
L197.204 192.397
L198.427 187.345
L199.65 163.654
L200.873 189.929
L202.096 192.416
L203.319 183.427
L204.542 189.376
L205.765 191.777
L206.988 181.884
L208.211 123.435
L209.434 196.709
L210.657 205.754
L211.88 194.115
L213.103 194.227
L214.326 187.065
L215.549 176.049
L216.772 190.009
L217.995 196.241
L219.218 194.571
L220.441 193.26
L221.664 180.648
L222.887 192.612
L224.11 195.112
L225.333 182.065
L226.556 186.338
L227.779 193.029
L229.002 190.472
L230.225 190.908
L231.448 167.26
L232.671 167.272
L233.894 189.756
L236.34 179.018
L237.563 192.526
L238.786 196.117
L240.009 194.927
L241.232 192.779
L242.455 185.623
L243.678 181.816
L244.901 193.154
L246.124 192.992
L248.57 193.555
L249.793 191.052
L251.016 193.551
L252.239 193.841
L253.462 188.061
L254.685 188.254
L255.908 192.792
L257.131 187.483
L258.354 189.741
L259.577 189.805
L260.8 181.324
L262.023 190.604
L263.246 187.678
L264.469 159.694
L265.692 185.004
L266.915 189.246
L268.139 186.74
L269.362 171.075
L270.585 191.85
L271.808 187.716
L273.031 190.284
L274.254 186.203
L275.477 192.122
L276.7 191.375
L277.923 179.602
L279.146 187.512
L280.369 189.66
L281.592 190.433
L282.815 182.788
L284.038 180.678
L285.261 173.022
L286.484 184.906
L287.707 189.301
L288.93 172.542
L290.153 184.692
L291.376 178.546
L292.599 187.798
L293.822 187.229
L295.045 187.942
L296.268 187.929
L297.491 188.921
L298.714 186.172
L299.937 181.974
L301.16 132.251
L302.383 159.549
L303.606 189.806
L304.829 187.96
L306.052 183.902
L307.275 180.881
L308.498 175.959
L309.721 186.476
L310.944 189.516
L312.167 185.555
L313.39 183.563
L314.613 175.991
L315.836 184.686
L317.059 190.559
L318.282 157.832
L319.505 189.363
L320.728 135.597
L321.951 190.488
L323.174 186.345
L324.397 183.574
L325.62 168.162
L326.843 184.242
L328.066 183.08
L329.289 189.968
L330.512 161.451
L331.735 182.706
L332.958 185.421
L334.181 188.603
L335.404 183.24
L336.627 174.692
L337.85 190.477
L339.073 182.7
L340.296 190.654
L341.519 188.739
L342.742 182.134
L343.965 185.54
L345.188 184.309
L346.411 172.922
L347.634 186.277
L348.857 189.5
L350.08 142.778
L351.303 168.53
L352.526 189.723
L353.749 185.045
L354.972 169.597
L356.195 157.51
L357.419 182.673
L358.642 183.827
L359.865 193.865
L361.088 192.151
L362.311 193.678
L363.534 184.377
L364.757 187.376
L365.98 179.415
L367.203 184.606
L368.426 162.167
L369.649 193.306
L370.872 167.569
L372.095 190.315
L373.318 190.755
L374.541 191.999
L375.764 187.927
L376.987 185.149
L378.21 192.166
L379.433 185.53
L380.656 187.578
L381.879 188.85
L383.102 189.901
L384.325 182.016
L385.548 183.219
L386.771 185.844
L387.994 187.973
L389.217 184.877
L390.44 187.322
L391.663 192.359
L392.886 184.37
L394.109 182.647
L395.332 191.087
L396.555 189.378
L397.778 189.348
L399.001 192.152
L400.224 190.802
L402.67 186.987
L403.893 193.934
L405.116 192.453
L406.339 167.134
L407.562 161.31
L408.785 193.802
L410.008 192.733
L411.231 192.333
L412.454 186.277
L413.677 193.437
L414.9 182.805
L416.123 181.984
L417.346 190.925
L418.569 187.531
L419.792 193.207
L421.015 188.978
L422.238 191.615
L423.461 190.196
L424.684 189.56
L427.13 193.937
L428.353 165.207
L429.576 210.424
L430.799 209.106
L432.022 194.392
L433.245 82.1605
L434.468 191.172
L435.691 190.344
L436.914 194.41
L438.137 189.669
L439.36 193.418
L440.583 171.037
L441.806 185.386
L443.029 171.854
L444.252 183.323
L445.475 186.518
L446.699 197.934
L447.922 195.757
L449.145 196.949
L451.591 195.84
L452.814 196.777
L454.037 194.572
L455.26 193.597
M458.929 187.388
L460.152 196.282
L461.375 196.36
L462.598 204.459
L463.821 202.824
L465.044 376.155
L466.267 206.908
L467.49 197.935
L468.713 273.341
L469.936 197.775
L471.159 201.735
L472.382 197.193
L473.605 209.28
L474.828 196.232
L476.051 196.496
L477.274 196.215
L478.497 197.392
L479.72 185.29
L480.943 182.332
L482.166 192.422
L483.389 187.649
L484.612 195.475
L485.835 194.34
L487.058 194.914
L488.281 189.497
L489.504 194.525
L490.727 178.168
L491.95 198.224
L493.173 198.835
L494.396 217.171
L495.619 201.908
L496.842 198.953
L498.065 199.451
L499.288 230.117
L500.511 190.142
L501.734 195.506
L502.957 115.613
L503.109 -1
M505.173 -1
L505.403 189.505
L506.626 198.696
L507.849 212.322
L509.072 213.617
L510.295 196.439
L511.518 196.575
L511.518 196.575" style="fill:none;stroke:#0000ff;stroke-linecap:square;"/>
   </g>
   <g id="line2d_2">
    <path clip-path="url(#p747ad1be57)" d="
M66.3413 197.555
L67.5643 196.838
L68.7873 196.621
L70.0103 198.225
L71.2333 196.477
L72.4563 195.615
L73.6793 195.194
L74.9023 198.482
L76.1254 200.801
L77.3484 197.579
L78.5714 273.778
L79.7944 196.12
L81.0174 195.748
L82.2404 186.339
L83.4634 194.767
L84.6865 146.469
L85.9095 38.074
L87.1325 197.918
L88.3555 197.063
L89.5785 197.502
L90.8015 195.985
L92.0245 196.222
L93.2476 194.745
L94.4706 195.821
L95.6936 195.491
L96.9166 195.801
L99.3626 194.372
L100.586 195.351
L101.809 196.054
L103.032 204.759
L104.255 198.569
L105.478 197.926
L106.701 196.662
L107.924 192.444
L109.147 192.886
L110.37 195.818
L111.593 193.766
L112.816 197.167
L114.039 197.015
L115.262 196.299
L116.485 194.396
L117.708 161.191
L118.931 173.385
L120.154 175.456
L121.377 172.896
L122.6 190.923
L123.823 203.763
L125.046 199.707
L126.269 198.992
L127.492 196.817
L128.715 196.412
L129.938 211.038
L131.161 199.822
L132.384 199.115
L133.607 198.2
L134.83 198.02
L136.053 199.534
L137.276 198.153
L138.499 190.524
L139.722 164.826
L140.945 194.535
L142.168 195.686
L144.614 196.039
L145.837 199.114
L147.06 196.979
L148.283 189.086
L149.506 155.095
L150.729 195.905
L151.952 194.524
L153.175 174.006
L154.398 187.522
L155.621 183.907
L156.844 196.036
L158.067 198.471
L159.29 145.942
L160.513 195.356
L160.951 -1
M162.571 -1
L162.959 162.884
L164.182 196.15
L165.405 162.909
L166.628 183.863
L167.851 196.247
L169.074 199.32
L170.297 196.392
L171.52 197.073
L172.743 195.935
L175.189 66.044
L176.412 187.786
L177.635 144.706
L178.859 196.399
L180.082 194.604
L181.305 177.26
L182.528 195.532
L183.751 196.053
L184.974 195.641
L186.197 195.523
L187.42 194.009
L188.643 190.875
L189.866 194.401
L191.089 164.883
L192.312 192.57
L193.535 193.193
L194.758 178.815
L195.981 186.939
L197.204 191.854
L198.427 195.562
L199.65 192.81
L200.873 196.528
L202.096 195.146
L203.319 193.526
L204.542 189.728
L205.765 191.185
L206.988 193.138
L208.211 192.432
L209.434 189.984
L210.657 195.386
L211.88 192.629
L213.103 193.654
L214.326 174.558
L215.549 190.787
L216.772 192.799
L217.995 174.514
L219.218 192.561
L220.441 189.995
L221.664 192.617
L222.887 175.217
L224.11 176.909
L225.333 190.628
L226.556 191.508
L227.779 166.919
L229.002 44.1923
L230.225 180.566
L231.448 195.756
L232.671 194.458
L233.894 191.891
L235.117 63.476
L236.34 187.511
L237.563 190.053
L238.786 188.861
L240.009 192.151
L241.232 191.156
L242.455 118.488
L243.678 195.403
L244.901 194.88
L246.124 195.358
L247.347 195.367
L248.57 191.381
L249.793 153.758
L251.016 180.534
L252.239 195.409
L253.462 192.972
L254.685 155.29
L255.908 159.255
L257.131 189.647
L258.354 189.962
L259.577 187.396
L260.8 191.578
L262.023 193.424
L263.246 191.183
L264.469 192.06
L265.692 191.114
L266.915 186.264
L268.139 177.64
L269.362 187.752
L270.585 192.616
L271.808 191.579
L273.031 186.112
L274.254 189.423
L275.477 189.323
L276.7 186.733
L277.923 176.284
L279.146 183.464
L280.369 188.45
L281.592 189.759
L282.815 177.464
L284.038 170.26
L285.261 182.34
L286.484 186.788
L287.707 189.788
L288.93 189.594
L290.153 182.912
L291.376 187.275
L292.599 183.337
L293.822 188.257
L295.045 185.789
L296.268 182.89
L297.491 190.409
L298.714 189.633
L299.937 180.632
L301.16 189.865
L302.383 179.099
L304.829 190.557
L306.052 183.537
L307.275 178.516
L308.498 187.584
L309.721 164.582
L310.944 189.326
L313.39 187.328
L314.613 189.487
L315.836 186.336
L317.059 175.864
L318.282 181.276
L319.505 187.964
L320.728 188.724
L321.951 190.102
L323.174 175.728
L324.397 111.445
L325.62 188.831
L326.843 160.942
L328.066 177.779
L329.289 172.192
L330.512 188.761
L331.735 188.64
L332.958 188.903
L334.181 188.932
L336.627 185.007
L337.85 186.69
L339.073 189.244
L340.296 180.112
L341.519 187.083
L342.742 178.368
L343.965 188.704
L345.188 189.126
L346.411 185.636
L347.634 183.972
L348.857 189.506
L350.08 189.835
L351.303 184.912
L352.526 184
L353.749 187.063
L354.972 178.383
L356.195 188.643
L357.419 189.931
L358.642 187.262
L359.865 186.921
L361.088 191.178
L362.311 182.069
L363.534 185.803
L364.757 185.9
L365.98 191.416
L367.203 188.303
L368.426 187.846
L369.649 186.745
L370.872 180.919
L372.095 186.345
L373.318 185.105
L374.541 178.539
L375.764 168.96
L376.987 185.067
L378.21 190.772
L379.433 190.787
L380.656 166.087
L381.879 192.452
L383.102 189.162
L384.325 192.52
L385.548 189.176
L386.771 189.122
L387.994 190.688
L389.217 191.284
L390.44 184.698
L391.663 153.986
L392.886 178.204
L394.109 191.368
L395.332 185.116
L396.555 190.253
L397.778 185.95
L399.001 178.307
L400.224 184.832
L401.447 177.486
L402.67 181.307
L403.893 182.879
L405.116 193.064
L406.339 195.973
L407.562 193.606
L410.008 192.534
L411.231 190.363
L412.454 183.882
L413.677 192.541
L414.9 194.14
L416.123 193.093
L417.346 189.801
L418.569 188.881
L419.792 192.651
L421.015 188.868
L422.238 190.627
L423.461 192.827
L424.684 193.146
L425.907 192.062
L427.13 194.143
L428.353 187.101
L429.576 194.832
L430.799 194.797
L432.022 194.208
L433.245 192.64
L434.468 186.651
L435.691 193.065
L436.914 188.27
L438.137 194.838
L440.583 112.536
L441.806 195.84
L443.029 196.83
L444.252 196.628
L445.475 196.669
L446.699 195.983
L449.145 182.707
L450.368 188.766
L451.591 193.611
L452.814 194.57
L454.037 193.913
L455.26 199.707
L456.483 196.63
L457.706 191.238
L458.929 199.495
L460.152 198.051
L461.375 197.365
L462.598 194.912
L463.821 172.81
L465.044 64.2087
L466.267 193.215
L467.49 194.726
L468.713 193.825
L469.936 158.255
L471.159 194.357
L472.382 195.239
L473.605 194.447
L474.828 189.056
L476.051 195.336
L477.274 198.285
L478.497 197.154
L479.72 196.897
L480.943 196.01
L482.166 195.813
L483.389 195.158
L484.612 195.154
L485.835 185.297
L487.058 194.336
L488.281 195.75
L489.504 195.966
L490.727 195.635
L491.95 196.445
L493.173 195.868
L494.396 195.064
L496.842 195.177
L498.065 194.963
L499.288 200.291
L500.511 196.363
L501.734 195.853
L502.957 195.489
L504.18 191.713
L505.403 195.68
L506.626 195.688
L507.849 194.346
L509.072 173.792
L510.295 182.801
L511.518 196.501
L511.518 196.501" style="fill:none;stroke:#008000;stroke-linecap:square;"/>
   </g>
   <g id="line2d_3">
    <path clip-path="url(#p747ad1be57)" d="
M66.3413 185.309
L67.5643 57.7132
L68.7873 193.78
L70.0103 178.988
L71.2333 189.982
L72.4563 196.572
L73.6793 197.781
L74.9023 195.065
L77.3484 195.14
L78.5714 196.409
L81.0174 195.396
L82.2404 193.231
L83.4634 193.864
L84.6865 200.785
L85.9095 198.548
L87.1325 197.587
L88.3555 196.029
L89.5785 196.382
L90.8015 176.448
L92.0245 225.77
L93.2476 197.625
L94.4706 198.771
L95.6936 194.446
L96.9166 194.183
L98.1396 198.402
L99.3626 196.029
L100.586 190.064
L101.809 191.823
M104.255 196.34
L105.478 196.67
L106.701 192.083
L107.924 191.664
L109.147 195.719
L110.37 194.762
L111.593 172.608
L112.816 196.161
L114.039 195.826
L115.262 194.76
L116.485 195.786
L117.708 196.044
M121.377 201.285
L122.6 196.164
L123.823 195.488
L125.046 195.669
L126.269 197.509
L127.492 197.807
L128.715 170.173
L129.237 -1
M130.586 -1
L131.161 203.147
L132.384 192.228
L133.607 18.3725
L134.83 203.87
L136.053 196.199
L137.276 197.994
L138.499 219.954
L139.722 206.869
L140.945 201.82
L142.168 192.628
L143.391 193.161
L144.614 190.89
L145.837 191.173
L147.06 201.354
L148.283 194.081
L149.506 159.315
L150.729 184.609
L151.952 185.296
L153.175 159.835
L155.621 195.339
L156.844 168.506
L158.067 183.195
L159.29 194.8
L160.513 196.204
L161.736 197.98
L162.959 191.801
L164.182 155.46
L165.405 142.835
L166.628 194.047
L167.851 81.976
L168.38 -1
M169.51 -1
L170.297 195.619
L171.52 174.843
L172.743 191.496
L173.966 193.502
L175.189 186.223
L176.412 135.311
L177.635 189.572
L178.859 194.875
L180.082 112.133
L181.305 183.044
L182.528 196.203
L183.751 196.929
L184.974 179.355
L186.197 177.605
L187.42 181.058
L188.643 85.7306
L189.866 170.071
L191.089 189.129
L192.312 186.408
L193.535 189.911
L194.758 191.397
L195.981 194.506
L198.427 189.901
L199.65 193.232
L200.873 190.618
L202.096 191.95
L203.319 179.393
L204.542 176.333
L205.765 188.835
L206.988 189.224
L208.211 171.153
L209.434 194.339
L210.657 194.692
L211.88 192.837
L213.103 181.58
L214.326 192.394
L215.549 192.176
L216.772 187.923
L217.995 192.913
L219.218 193.668
L220.441 190.996
L221.664 191.737
L222.887 192.043
L224.11 179.175
L225.333 184.357
L226.556 191.834
L227.779 186.397
L229.002 192.99
L230.225 181.217
L231.448 187.665
L232.671 182.325
L233.894 181.427
L235.117 187.822
L236.34 190.137
L237.563 189.255
L238.786 146.144
L240.009 174.517
L241.232 188.76
L242.455 192.578
L243.678 194.017
L244.901 194.331
L246.124 189.945
L247.347 192.842
L248.57 183.464
L249.793 185.974
L251.016 185.72
L252.239 188.921
L253.462 187.698
L254.685 191.926
L255.908 164.858
L257.131 190.804
L258.354 192.879
L259.577 161.827
L260.8 190.866
L262.023 191.468
L263.246 184.843
L264.469 190.311
L265.692 190.343
L266.915 178.202
L268.139 190.492
L269.362 187.837
L270.585 189.304
L271.808 161.754
L273.031 166.116
L274.254 192.746
L275.477 188.541
L276.7 107.142
L277.923 164.298
L279.146 182.77
L280.369 182.013
L281.592 190.012
L282.815 169.035
L284.038 190.361
L285.261 180.852
L286.484 186.672
L287.707 188.352
L288.93 181.675
L290.153 187.97
L291.376 165.453
L292.599 187.589
L293.822 188.54
L295.045 185.033
L296.268 179.313
L297.491 80.4492
L298.714 118.041
L299.937 187.773
L301.16 184.275
L302.383 181.935
L303.606 171.726
L304.829 165.695
L306.052 188.914
L307.275 115.877
L308.498 141.005
L309.721 177.606
L310.944 153.402
L312.167 182.926
L313.39 181.874
L314.613 183.329
L315.836 186.35
L317.059 189.726
L318.282 190.443
L319.505 179.837
L320.728 186.375
L321.951 186.251
L323.174 188.772
L324.397 185.358
L325.62 186.613
L326.843 183.85
L328.066 178.866
L329.289 184.985
L330.512 182.872
L331.735 189.557
L332.958 188.858
L334.181 180.655
L335.404 184.543
L336.627 189.851
L337.85 190.295
L339.073 186.362
L340.296 191.307
L341.519 190.373
L342.742 186.826
L343.965 184.682
L345.188 188.477
L346.411 178.714
L347.634 176.199
L348.857 185.739
L350.08 186.684
L351.303 165.19
L352.526 187.533
L353.749 188.99
L354.972 182.992
L356.195 189.82
L357.419 178.093
L358.642 183.724
L359.865 190.723
L361.088 183.593
L362.311 190.484
L363.534 176.228
L364.757 182.464
L365.98 187.493
L367.203 188.564
L368.426 186.026
L369.649 189.875
L370.872 189.984
L372.095 190.463
L373.318 185.513
L374.541 161.651
L375.764 185.278
L376.987 185.476
L378.21 188.055
L379.433 189.755
L380.656 180.832
L381.879 189.295
L383.102 186.408
L384.325 190.265
L385.548 189.51
L386.771 186.994
L387.994 188.863
L389.217 192.048
L391.663 176.24
L392.886 189.867
L394.109 190.007
L395.332 190.419
L396.555 192.558
L399.001 188.623
L400.224 183.002
L401.447 186.498
L402.67 179.221
L403.893 184.884
L405.116 187.674
L406.339 192.913
L407.562 193.814
L408.785 193.089
L410.008 191.88
L411.231 192.373
L412.454 193.565
L413.677 192.932
L416.123 185.512
L417.346 190.249
L418.569 186.877
L419.792 159.158
L421.015 193.524
L422.238 191.359
L423.461 192.449
L424.684 172.422
L425.907 194.718
L427.13 192.541
L428.353 196.373
L429.576 196.903
L430.799 196.56
L432.022 194.918
L433.245 195.233
M435.691 183.276
L436.914 189.525
L438.137 163.695
L439.36 189.176
L440.583 193.691
L441.806 192.063
L443.029 193.35
L444.252 192.252
L445.475 188.896
L446.699 193.411
L447.922 188.955
L449.145 196.735
L450.368 196.688
L451.591 196.353
L452.814 200.724
M455.26 195.884
L456.483 186.205
L457.706 192.632
M460.152 191.595
L461.375 165.692
L462.598 76.0478
L463.821 157.361
L465.044 195.523
L466.267 178.589
L467.49 194.965
L468.713 195.815
L469.936 195.374
L471.159 191.084
L472.382 168.787
L473.605 175.081
L474.828 175.67
L476.051 188.16
L477.274 93.0048
L478.497 194.398
L479.72 176.552
L480.943 191.658
L482.166 195.693
L483.389 196.227
L484.612 199.476
L485.835 196.726
L487.058 196.146
L488.281 195.906
L489.504 196.067
L490.727 195.942
L491.95 196.695
L493.173 200.303
L494.396 197.293
L495.619 238.63
M499.288 200.418
L500.511 184.343
L501.734 185.964
L502.957 201.4
L504.18 202.239
L504.969 409.169
M505.831 409.169
L506.626 197.585
L507.849 197.226
L509.072 197.346
L510.295 198.486
L511.518 196.974
L511.518 196.974" style="fill:none;stroke:#ff0000;stroke-linecap:square;"/>
   </g>
   <g id="line2d_4">
    <path clip-path="url(#p747ad1be57)" d="
M66.3413 197.366
L67.5643 197.347
L68.7873 195.412
L70.0103 196.067
L71.2333 196.95
L72.4563 196.198
L73.6793 196.687
L74.9023 196.356
L76.1254 208.653
M83.4634 197.027
L84.6865 197.741
L85.9095 195.856
L87.1325 195.245
L88.3555 194.911
L89.5785 194.03
L90.8015 194.905
L92.0245 189.836
L93.2476 173.715
L94.4706 195.867
L95.6936 194.723
L96.9166 195.374
M103.032 195.994
L105.478 195.64
L106.701 195.701
L107.924 194.79
L109.147 193.298
L110.37 196.244
L111.593 196.663
L112.816 196.604
L114.039 208.2
L115.262 199.82
L116.485 196.608
L117.708 197.208
L118.931 195.766
L120.154 196.227
L121.377 194.707
L122.6 191.53
L123.823 197.56
L125.046 200.375
L126.269 198.378
L127.492 201.46
L128.715 200.671
L129.938 196.644
L131.161 207.414
L132.384 196.886
L133.607 199.315
L136.053 195.744
L137.276 195.659
L138.499 194.45
L139.722 189.014
L140.945 171.348
L142.168 194.155
L143.391 137.158
L144.614 153.949
L145.837 195.551
L147.06 194.346
L148.283 192.574
L149.506 191.097
L150.729 189.269
L151.952 193.858
L153.175 193.062
L154.398 189.942
L155.621 185.202
L156.844 191.448
L158.067 204.336
L159.29 194.311
L160.513 190.814
L161.736 177.256
L162.959 206.032
L164.182 205.466
L165.405 196.905
L166.628 195.723
L167.851 190.215
L169.074 195.557
L170.297 190.691
L171.52 192.419
L172.743 193.609
L173.966 188.266
L175.189 192.698
L176.412 188.674
L177.635 187.978
L178.859 192.351
L180.082 185.147
L181.305 188.099
L182.528 193.963
L183.751 192.688
L184.974 190.433
L186.197 179.333
L187.42 188.661
L188.643 192.785
L189.866 192.894
L191.089 173.967
L192.312 195.796
L193.535 195.384
L194.758 193.979
L195.981 191.972
L197.204 193.111
L198.427 193.315
L199.65 185.212
L200.873 189.283
L202.096 190.866
L203.319 194.442
L204.542 191.751
L206.988 191.557
L208.211 183.092
L209.434 170.787
L210.657 135.993
L211.88 187.949
L213.103 190.866
L214.326 191.25
L215.549 187.844
L216.772 181.854
L217.995 172.323
L219.218 184.929
L220.441 187.525
L221.664 184.272
L222.887 190.222
L224.11 190.821
L225.333 190.734
L226.556 185.252
L227.779 157.072
L229.002 185.09
L230.225 191.033
L231.448 191.325
L232.671 193.906
L233.894 186.148
L235.117 188.772
L236.34 189.949
L237.454 -1
M237.674 -1
L238.786 186.125
L240.009 183.743
L241.232 189.909
L242.455 187.208
L243.678 192.428
L244.901 194.083
L246.124 191.991
L247.347 191.725
L249.793 188.605
L251.016 191.317
L252.239 176.942
L253.462 186.976
L254.685 187.792
L255.908 188.146
L257.131 190.523
L258.354 167.063
L259.577 184.726
L260.8 184.775
L262.023 176.271
L263.246 185.412
L264.469 185.459
L265.692 185.137
L266.915 186.046
L268.139 189.272
L269.362 191.918
L270.585 189.106
L271.808 168.871
L273.031 184.49
L274.254 194.117
L275.477 191.108
L276.7 190.747
L277.923 189.022
L279.146 192.522
L280.369 192.931
L281.592 190.912
L282.815 190.006
L284.038 186.941
L285.261 180.569
L286.484 188.55
L287.707 172.207
L288.93 186.998
L290.153 175.481
L291.376 184.027
L292.599 184.046
L293.822 189.055
L295.045 186.028
L296.268 189.28
L297.491 188.641
L298.714 182.437
L299.937 184.391
L301.16 170.843
L302.383 185.136
L303.606 187.87
L304.829 185.426
L306.052 145.253
L307.275 180.001
L308.498 189.226
L309.721 185.384
L310.944 183.184
L312.167 187.469
L313.39 177.464
L314.613 186.089
L315.836 188.912
L317.059 183.149
L318.282 189.146
L319.505 185.571
L320.728 185.742
L321.951 183.892
L323.174 188.679
L324.397 185.782
L325.62 178.402
L326.843 187.775
L328.066 188.162
L329.289 187.291
L330.512 186.248
L331.735 185.864
L332.958 184.114
L334.181 163.191
L335.404 181.969
L336.627 181.364
L337.85 185.957
L339.073 186.545
L340.296 186.231
L341.519 182.585
L342.742 188.295
L343.965 188.395
L346.411 185.692
L347.634 187.395
L348.857 186.569
L350.08 190.9
L351.303 181.919
L352.526 190.155
L353.749 176.007
L354.972 154.292
L356.195 190.637
L357.419 178.765
L358.642 173.109
L359.865 176.883
L361.088 178.152
L362.311 188.531
L363.534 187.118
L364.757 179.315
L365.98 167.35
L367.203 158.978
L368.426 129.004
L369.649 180.226
L370.872 189.887
L372.095 187.619
L373.318 180.807
L374.541 189.235
L375.764 181.149
L376.987 179.04
L378.21 191.305
L379.433 186.958
L380.656 100.806
L381.879 184.71
L383.102 178.385
L384.325 183.964
L385.548 187.527
L386.538 -1
M387.009 -1
L387.994 182.772
L389.217 179.669
L390.44 175.752
L391.663 190.141
L392.886 195.184
L394.109 195.565
L395.332 192.707
L396.555 184.43
L397.778 186.584
L399.001 156.807
L400.224 192.969
L401.447 194.786
L402.67 193.097
L403.893 193.153
L405.116 193.487
L406.339 173.32
L407.562 184.535
L408.785 193.296
L410.008 192.799
L411.231 191.773
L412.454 193.781
L413.677 193.283
L414.9 190.659
L416.123 192.04
L417.346 192.932
L418.569 192.788
L419.792 189.803
L421.015 193.356
L422.238 188.502
L423.461 188.836
L424.684 193.517
L425.907 193.774
L427.13 193.471
L428.353 192.57
L429.576 193.522
L430.799 193.152
L432.022 188.063
L433.245 192.678
L434.468 195.331
L435.691 195.693
L436.914 194.295
L438.137 194.138
L439.36 158.243
L440.583 201.846
L441.806 197.454
L443.029 196.24
L444.252 194.724
L445.475 165.673
L446.699 195.204
L447.922 192.881
L449.145 187.109
L450.368 188.877
L451.591 175.877
L452.814 192.346
L455.26 196.645
L456.483 204.38
L457.706 195.437
L458.929 191.882
L460.152 194.665
L461.375 195.305
L462.598 196.181
L463.821 195.961
L465.044 195.103
L466.267 193.976
L467.49 193.583
L468.713 183.774
L469.936 183.927
L471.159 194.649
L472.382 194.669
L473.605 195.23
L474.828 188.07
L476.051 114.181
L477.274 199.841
L478.497 196.728
L479.72 196.732
L480.943 223.512
L482.166 200.575
L483.389 201.395
L484.612 200.307
L487.058 197.016
L488.281 194.635
L489.504 196.126
L490.727 195.786
L491.95 194.836
L493.173 194.818
L494.396 190.066
L495.619 194.681
L496.842 198.833
L498.065 198.899
L500.511 196.146
L501.734 195.639
L502.957 197.044
L504.18 194.942
L505.403 195.349
L506.626 190.971
L507.849 195.789
L509.072 196.327
L510.295 195.254
L511.518 194.42
L511.518 194.42" style="fill:none;stroke:#00bfbf;stroke-linecap:square;"/>
   </g>
   <g id="line2d_5">
    <path clip-path="url(#p747ad1be57)" d="
M66.3413 194.625
L67.5643 188.219
L67.7063 -1
M69.6402 -1
L69.8831 409.169
M70.6472 409.169
L71.2333 211.436
L72.4563 179.844
L73.6793 196.568
L74.9023 196.371
L76.1254 196.529
L76.474 -1
M78.648 -1
L78.653 409.169
M82.2329 409.169
L82.2404 159.439
L83.4634 94.5034
L84.6865 182.538
L85.9095 145.881
L87.1325 187.603
L88.3555 63.9323
L89.5785 71.049
L90.8015 175.073
L92.0245 178.233
L93.2476 194.365
L94.4706 193.568
L95.6936 169.549
L96.9166 82.7737
L98.1396 131.913
L99.3626 194.202
L100.425 -1
M100.651 -1
L101.556 409.169
M102.288 409.169
L103.032 231.759
L104.255 203.709
L105.478 215.347
L106.701 280.888
L107.924 212.216
L109.147 197.055
L110.316 409.169
M112.647 409.169
L112.816 269.737
L114.039 20.4159
L115.262 188.456
L116.485 195.915
L116.798 -1
M124.797 -1
L125.046 122.455
L125.05 -1
M127.477 -1
L127.49 409.169
M127.752 409.169
L128.715 195.368
L128.881 409.169
M130.82 409.169
L131.086 -1
M131.731 -1
L132.384 132.225
L133.607 149.959
L134.83 155.519
L135.852 -1
M136.302 -1
L137.276 119.907
L138.499 188.166
L139.722 193.348
L140.945 141.882
L142.12 -1
M145.827 -1
L145.837 150.636
L145.966 -1
M150.695 -1
L150.729 194.363
L151.952 188.984
L153.175 179.914
L154.398 13.2577
L155.621 160.181
L156.844 160.368
L156.846 -1
M159.288 -1
L159.29 194.573
L160.513 183.904
L160.693 -1
M162.785 -1
L162.959 176.978
L164.182 177.215
L165.405 168.955
L166.628 162.12
L166.678 -1
M169.024 -1
L169.074 164.475
L170.239 409.169
M170.321 409.169
L171.109 -1
M172.241 -1
L172.743 148.445
L173.966 191.412
L174.738 -1
M175.63 -1
L176.412 199.318
L177.635 193.171
L178.859 182.538
L180.082 99.6702
L181.305 65.6515
L181.314 -1
M183.726 -1
L183.751 171.016
L184.974 174.096
L185.826 -1
M187.783 -1
L188.643 157.069
L188.902 -1
M191.994 -1
L192.312 159.463
L192.627 -1
M194.434 -1
L194.758 165.279
L194.851 -1
M199.096 -1
L199.65 68.7512
L199.978 -1
M202.988 -1
L203.319 167.919
L204.542 143.72
L205.765 184.079
L206.988 108.142
L208.211 107.606
L209.434 137.026
L210.657 75.1094
L211.88 153.097
L213.103 167.357
L214.326 101.913
L215.177 -1
M221.609 -1
L221.664 138.177
L221.664 138.177
L221.664 138.177
L221.681 -1
M224.098 -1
L224.11 97.9383
L224.658 -1
M228.458 -1
L229.002 169.538
L230.225 167.296
L231.448 119.563
L232.671 90.0242
L232.756 -1
M234.998 -1
L235.117 131.464
L236.34 127.819
L237.491 -1
M239.457 -1
L240.009 69.7213
L240.048 -1
M242.373 -1
L242.455 153.505
L243.678 15.0921
L244.901 139.693
L245.164 -1
M247.189 -1
L247.347 75.4858
L248.57 101.196
L249.175 -1
M250.41 -1
L251.016 101.769
L252.239 131.881
L252.674 -1
M257.928 -1
L258.354 116.875
L259.281 -1
M259.979 -1
L260.8 76.4192
L260.943 -1
M262.982 -1
L263.246 161.001
L263.32 -1
M266.868 -1
L266.915 128.51
L268.139 166.11
L268.866 -1
M270.031 -1
L270.585 93.0681
L271.808 175.29
L273.031 130.741
L274.477 -1
M276.618 -1
L276.7 6.25802
L277.923 76.5232
L279.146 18.3348
L280.369 84.3886
L281.592 16.0296
L281.781 -1
M285.846 -1
L286.484 134.96
L287.066 -1
M290.061 -1
L290.153 150.491
L291.376 140.806
L292.599 106.164
L293.822 138.071
L295.045 22.9459
L296.268 49.2743
L297.491 31.0833
L298.714 122.181
L299.937 57.5484
L301.16 87.4932
L302.383 29.8097
L302.408 -1
M306.051 -1
L306.052 0.119663
L307.275 102.53
L307.816 -1
M311.24 -1
L312.167 138.732
L313.39 125.397
L313.468 -1
M316.942 -1
L317.059 42.08
L318.282 128.438
L319.505 130.068
L319.643 -1
M321.862 -1
L321.951 80.5152
L323.113 -1
M324.825 -1
L325.62 171.021
L326.843 19.3818
L327.78 -1
M330.47 -1
L330.512 34.5108
L331.294 -1
M331.872 -1
L332.958 158.315
L334.181 164.322
L335.404 70.7422
L336.627 94.3332
L337.85 23.4662
L337.863 -1
M341.43 -1
L341.519 124.97
L342.742 107.435
L343.965 41.4906
L345.188 142.121
L346.411 124.025
L347.546 -1
M347.716 -1
L348.857 134.736
L350.08 113.752
L351.303 54.7629
L352.526 43.0125
L353.749 172.253
L354.972 79.447
L356.195 145.404
L357.419 149.351
L358.642 125.13
L359.865 141.066
L360.448 -1
M362.049 -1
L362.311 41.4194
L363.534 111.872
L364.757 139.636
L364.829 -1
M367.117 -1
L367.203 168.246
L368.426 141.06
L369.398 -1
M369.935 -1
L370.872 118.608
L372.095 165.29
L372.191 -1
M375.389 -1
L375.764 115.018
L376.323 -1
M377.54 -1
L378.21 165.566
L379.433 170.482
L380.656 155.931
M389.094 -1
L389.217 142.742
L389.672 -1
M394.107 -1
L394.109 22.0256
L395.332 157.144
L396.555 171.64
L397.778 85.1637
L397.922 -1
M400.088 -1
L400.224 80.2513
L401.447 151.341
L402.67 183.475
L403.893 148.324
L405.116 140.003
L406.339 107.302
L407.562 145.079
L408.785 141.74
L410.008 133.635
L411.231 83.4492
L412.454 2.12319
L413.677 93.9119
L413.82 -1
M418.133 -1
L418.569 141.164
L418.67 -1
M420.907 -1
L421.015 152.57
L421.164 -1
M424.659 -1
L424.684 40.4187
L424.684 40.4187
L424.684 40.4187
L424.714 -1
M431.953 -1
L432.022 192.523
L433.245 16.615
L434.468 185.252
L434.477 -1
M438.033 -1
L438.137 163.244
L439.36 196.079
L440.583 195.491
L441.806 160.462
L443.029 148.024
L443.055 -1
M445.459 -1
L445.475 93.9814
L446.699 170.06
L447.052 -1
M448.699 -1
L449.145 240.552
L450.368 199.894
L451.591 245.718
L451.686 409.169
M453.988 409.169
L454.037 329.749
L455.26 201
L456.483 221.472
L457.706 195.791
L458.929 191.567
L460.152 165.772
L461.375 192.805
L462.598 147.484
L462.633 -1
M464.971 -1
L465.044 314.496
L466.267 190.154
L466.268 -1
M468.713 -1
L468.713 13.9832
L469.936 156.543
L471.159 102.953
L471.163 -1
M473.595 -1
L473.605 258.56
L474.828 231.882
L476.051 184.576
L476.247 -1
M478.31 -1
L478.497 173.904
L479.106 -1
M489.504 -1
L489.504 196.096
L493.173 196.086
L494.396 194.818
L495.619 203.397
L496.842 245.574
L498.065 198.816
L498.562 -1
M500.018 -1
L500.511 196.051
L501.734 196.133
L502.957 211.18
L504.18 331.638
L505.403 213.028
L506.626 215.08
L507.849 377.362
L509.072 201.928
L510.295 198.281
L511.518 196.708
L511.518 196.708" style="fill:none;stroke:#bf00bf;stroke-linecap:square;"/>
   </g>
   <g id="patch_3">
    <path d="
M66.3413 23.1417
L512.741 23.1417" style="fill:none;stroke:#000000;stroke-linecap:square;stroke-linejoin:miter;"/>
   </g>
   <g id="patch_4">
    <path d="
M512.741 368.742
L512.741 23.1417" style="fill:none;stroke:#000000;stroke-linecap:square;stroke-linejoin:miter;"/>
   </g>
   <g id="patch_5">
    <path d="
M66.3413 368.742
L512.741 368.742" style="fill:none;stroke:#000000;stroke-linecap:square;stroke-linejoin:miter;"/>
   </g>
   <g id="patch_6">
    <path d="
M66.3413 368.742
L66.3413 23.1417" style="fill:none;stroke:#000000;stroke-linecap:square;stroke-linejoin:miter;"/>
   </g>
   <g id="matplotlib.axis_1">
    <g id="xtick_1">
     <g id="line2d_6">
      <defs>
       <path d="
M0 0
L0 -4" id="m93b0483c22" style="stroke:#000000;stroke-width:0.5;"/>
      </defs>
      <g>
       <use style="stroke:#000000;stroke-width:0.5;" x="66.34125" xlink:href="#m93b0483c22" y="368.74175"/>
      </g>
     </g>
     <g id="line2d_7">
      <defs>
       <path d="
M0 0
L0 4" id="m741efc42ff" style="stroke:#000000;stroke-width:0.5;"/>
      </defs>
      <g>
       <use style="stroke:#000000;stroke-width:0.5;" x="66.34125" xlink:href="#m741efc42ff" y="23.14175"/>
      </g>
     </g>
     <g id="text_1">
      <!-- 0 -->
      <defs>
       <path d="
M31.7812 66.4062
Q24.1719 66.4062 20.3281 58.9062
Q16.5 51.4219 16.5 36.375
Q16.5 21.3906 20.3281 13.8906
Q24.1719 6.39062 31.7812 6.39062
Q39.4531 6.39062 43.2812 13.8906
Q47.125 21.3906 47.125 36.375
Q47.125 51.4219 43.2812 58.9062
Q39.4531 66.4062 31.7812 66.4062
M31.7812 74.2188
Q44.0469 74.2188 50.5156 64.5156
Q56.9844 54.8281 56.9844 36.375
Q56.9844 17.9688 50.5156 8.26562
Q44.0469 -1.42188 31.7812 -1.42188
Q19.5312 -1.42188 13.0625 8.26562
Q6.59375 17.9688 6.59375 36.375
Q6.59375 54.8281 13.0625 64.5156
Q19.5312 74.2188 31.7812 74.2188" id="BitstreamVeraSans-Roman-30"/>
      </defs>
      <g transform="translate(63.3178125 381.859875)scale(0.12 -0.12)">
       <use xlink:href="#BitstreamVeraSans-Roman-30"/>
      </g>
     </g>
    </g>
    <g id="xtick_2">
     <g id="line2d_8">
      <g>
       <use style="stroke:#000000;stroke-width:0.5;" x="127.491934932" xlink:href="#m93b0483c22" y="368.74175"/>
      </g>
     </g>
     <g id="line2d_9">
      <g>
       <use style="stroke:#000000;stroke-width:0.5;" x="127.491934932" xlink:href="#m741efc42ff" y="23.14175"/>
      </g>
     </g>
     <g id="text_2">
      <!-- 50 -->
      <defs>
       <path d="
M10.7969 72.9062
L49.5156 72.9062
L49.5156 64.5938
L19.8281 64.5938
L19.8281 46.7344
Q21.9688 47.4688 24.1094 47.8281
Q26.2656 48.1875 28.4219 48.1875
Q40.625 48.1875 47.75 41.5
Q54.8906 34.8125 54.8906 23.3906
Q54.8906 11.625 47.5625 5.09375
Q40.2344 -1.42188 26.9062 -1.42188
Q22.3125 -1.42188 17.5469 -0.640625
Q12.7969 0.140625 7.71875 1.70312
L7.71875 11.625
Q12.1094 9.23438 16.7969 8.0625
Q21.4844 6.89062 26.7031 6.89062
Q35.1562 6.89062 40.0781 11.3281
Q45.0156 15.7656 45.0156 23.3906
Q45.0156 31 40.0781 35.4375
Q35.1562 39.8906 26.7031 39.8906
Q22.75 39.8906 18.8125 39.0156
Q14.8906 38.1406 10.7969 36.2812
z
" id="BitstreamVeraSans-Roman-35"/>
      </defs>
      <g transform="translate(120.718497432 381.859875)scale(0.12 -0.12)">
       <use xlink:href="#BitstreamVeraSans-Roman-35"/>
       <use x="63.623046875" xlink:href="#BitstreamVeraSans-Roman-30"/>
      </g>
     </g>
    </g>
    <g id="xtick_3">
     <g id="line2d_10">
      <g>
       <use style="stroke:#000000;stroke-width:0.5;" x="188.642619863" xlink:href="#m93b0483c22" y="368.74175"/>
      </g>
     </g>
     <g id="line2d_11">
      <g>
       <use style="stroke:#000000;stroke-width:0.5;" x="188.642619863" xlink:href="#m741efc42ff" y="23.14175"/>
      </g>
     </g>
     <g id="text_3">
      <!-- 100 -->
      <defs>
       <path d="
M12.4062 8.29688
L28.5156 8.29688
L28.5156 63.9219
L10.9844 60.4062
L10.9844 69.3906
L28.4219 72.9062
L38.2812 72.9062
L38.2812 8.29688
L54.3906 8.29688
L54.3906 0
L12.4062 0
z
" id="BitstreamVeraSans-Roman-31"/>
      </defs>
      <g transform="translate(178.247619863 381.859875)scale(0.12 -0.12)">
       <use xlink:href="#BitstreamVeraSans-Roman-31"/>
       <use x="63.623046875" xlink:href="#BitstreamVeraSans-Roman-30"/>
       <use x="127.24609375" xlink:href="#BitstreamVeraSans-Roman-30"/>
      </g>
     </g>
    </g>
    <g id="xtick_4">
     <g id="line2d_12">
      <g>
       <use style="stroke:#000000;stroke-width:0.5;" x="249.793304795" xlink:href="#m93b0483c22" y="368.74175"/>
      </g>
     </g>
     <g id="line2d_13">
      <g>
       <use style="stroke:#000000;stroke-width:0.5;" x="249.793304795" xlink:href="#m741efc42ff" y="23.14175"/>
      </g>
     </g>
     <g id="text_4">
      <!-- 150 -->
      <g transform="translate(239.398304795 381.859875)scale(0.12 -0.12)">
       <use xlink:href="#BitstreamVeraSans-Roman-31"/>
       <use x="63.623046875" xlink:href="#BitstreamVeraSans-Roman-35"/>
       <use x="127.24609375" xlink:href="#BitstreamVeraSans-Roman-30"/>
      </g>
     </g>
    </g>
    <g id="xtick_5">
     <g id="line2d_14">
      <g>
       <use style="stroke:#000000;stroke-width:0.5;" x="310.943989726" xlink:href="#m93b0483c22" y="368.74175"/>
      </g>
     </g>
     <g id="line2d_15">
      <g>
       <use style="stroke:#000000;stroke-width:0.5;" x="310.943989726" xlink:href="#m741efc42ff" y="23.14175"/>
      </g>
     </g>
     <g id="text_5">
      <!-- 200 -->
      <defs>
       <path d="
M19.1875 8.29688
L53.6094 8.29688
L53.6094 0
L7.32812 0
L7.32812 8.29688
Q12.9375 14.1094 22.625 23.8906
Q32.3281 33.6875 34.8125 36.5312
Q39.5469 41.8438 41.4219 45.5312
Q43.3125 49.2188 43.3125 52.7812
Q43.3125 58.5938 39.2344 62.25
Q35.1562 65.9219 28.6094 65.9219
Q23.9688 65.9219 18.8125 64.3125
Q13.6719 62.7031 7.8125 59.4219
L7.8125 69.3906
Q13.7656 71.7812 18.9375 73
Q24.125 74.2188 28.4219 74.2188
Q39.75 74.2188 46.4844 68.5469
Q53.2188 62.8906 53.2188 53.4219
Q53.2188 48.9219 51.5312 44.8906
Q49.8594 40.875 45.4062 35.4062
Q44.1875 33.9844 37.6406 27.2188
Q31.1094 20.4531 19.1875 8.29688" id="BitstreamVeraSans-Roman-32"/>
      </defs>
      <g transform="translate(300.329614726 381.859875)scale(0.12 -0.12)">
       <use xlink:href="#BitstreamVeraSans-Roman-32"/>
       <use x="63.623046875" xlink:href="#BitstreamVeraSans-Roman-30"/>
       <use x="127.24609375" xlink:href="#BitstreamVeraSans-Roman-30"/>
      </g>
     </g>
    </g>
    <g id="xtick_6">
     <g id="line2d_16">
      <g>
       <use style="stroke:#000000;stroke-width:0.5;" x="372.094674658" xlink:href="#m93b0483c22" y="368.74175"/>
      </g>
     </g>
     <g id="line2d_17">
      <g>
       <use style="stroke:#000000;stroke-width:0.5;" x="372.094674658" xlink:href="#m741efc42ff" y="23.14175"/>
      </g>
     </g>
     <g id="text_6">
      <!-- 250 -->
      <g transform="translate(361.480299658 381.859875)scale(0.12 -0.12)">
       <use xlink:href="#BitstreamVeraSans-Roman-32"/>
       <use x="63.623046875" xlink:href="#BitstreamVeraSans-Roman-35"/>
       <use x="127.24609375" xlink:href="#BitstreamVeraSans-Roman-30"/>
      </g>
     </g>
    </g>
    <g id="xtick_7">
     <g id="line2d_18">
      <g>
       <use style="stroke:#000000;stroke-width:0.5;" x="433.245359589" xlink:href="#m93b0483c22" y="368.74175"/>
      </g>
     </g>
     <g id="line2d_19">
      <g>
       <use style="stroke:#000000;stroke-width:0.5;" x="433.245359589" xlink:href="#m741efc42ff" y="23.14175"/>
      </g>
     </g>
     <g id="text_7">
      <!-- 300 -->
      <defs>
       <path d="
M40.5781 39.3125
Q47.6562 37.7969 51.625 33
Q55.6094 28.2188 55.6094 21.1875
Q55.6094 10.4062 48.1875 4.48438
Q40.7656 -1.42188 27.0938 -1.42188
Q22.5156 -1.42188 17.6562 -0.515625
Q12.7969 0.390625 7.625 2.20312
L7.625 11.7188
Q11.7188 9.32812 16.5938 8.10938
Q21.4844 6.89062 26.8125 6.89062
Q36.0781 6.89062 40.9375 10.5469
Q45.7969 14.2031 45.7969 21.1875
Q45.7969 27.6406 41.2812 31.2656
Q36.7656 34.9062 28.7188 34.9062
L20.2188 34.9062
L20.2188 43.0156
L29.1094 43.0156
Q36.375 43.0156 40.2344 45.9219
Q44.0938 48.8281 44.0938 54.2969
Q44.0938 59.9062 40.1094 62.9062
Q36.1406 65.9219 28.7188 65.9219
Q24.6562 65.9219 20.0156 65.0312
Q15.375 64.1562 9.8125 62.3125
L9.8125 71.0938
Q15.4375 72.6562 20.3438 73.4375
Q25.25 74.2188 29.5938 74.2188
Q40.8281 74.2188 47.3594 69.1094
Q53.9062 64.0156 53.9062 55.3281
Q53.9062 49.2656 50.4375 45.0938
Q46.9688 40.9219 40.5781 39.3125" id="BitstreamVeraSans-Roman-33"/>
      </defs>
      <g transform="translate(422.648797089 381.859875)scale(0.12 -0.12)">
       <use xlink:href="#BitstreamVeraSans-Roman-33"/>
       <use x="63.623046875" xlink:href="#BitstreamVeraSans-Roman-30"/>
       <use x="127.24609375" xlink:href="#BitstreamVeraSans-Roman-30"/>
      </g>
     </g>
    </g>
    <g id="xtick_8">
     <g id="line2d_20">
      <g>
       <use style="stroke:#000000;stroke-width:0.5;" x="494.396044521" xlink:href="#m93b0483c22" y="368.74175"/>
      </g>
     </g>
     <g id="line2d_21">
      <g>
       <use style="stroke:#000000;stroke-width:0.5;" x="494.396044521" xlink:href="#m741efc42ff" y="23.14175"/>
      </g>
     </g>
     <g id="text_8">
      <!-- 350 -->
      <g transform="translate(483.799482021 381.859875)scale(0.12 -0.12)">
       <use xlink:href="#BitstreamVeraSans-Roman-33"/>
       <use x="63.623046875" xlink:href="#BitstreamVeraSans-Roman-35"/>
       <use x="127.24609375" xlink:href="#BitstreamVeraSans-Roman-30"/>
      </g>
     </g>
    </g>
    <g id="text_9">
     <!-- Julian day -->
     <defs>
      <path id="BitstreamVeraSans-Roman-20"/>
      <path d="
M9.8125 72.9062
L19.6719 72.9062
L19.6719 5.07812
Q19.6719 -8.10938 14.6719 -14.0625
Q9.67188 -20.0156 -1.42188 -20.0156
L-5.17188 -20.0156
L-5.17188 -11.7188
L-2.09375 -11.7188
Q4.4375 -11.7188 7.125 -8.04688
Q9.8125 -4.39062 9.8125 5.07812
z
" id="BitstreamVeraSans-Roman-4a"/>
      <path d="
M54.8906 33.0156
L54.8906 0
L45.9062 0
L45.9062 32.7188
Q45.9062 40.4844 42.875 44.3281
Q39.8438 48.1875 33.7969 48.1875
Q26.5156 48.1875 22.3125 43.5469
Q18.1094 38.9219 18.1094 30.9062
L18.1094 0
L9.07812 0
L9.07812 54.6875
L18.1094 54.6875
L18.1094 46.1875
Q21.3438 51.125 25.7031 53.5625
Q30.0781 56 35.7969 56
Q45.2188 56 50.0469 50.1719
Q54.8906 44.3438 54.8906 33.0156" id="BitstreamVeraSans-Roman-6e"/>
      <path d="
M9.42188 75.9844
L18.4062 75.9844
L18.4062 0
L9.42188 0
z
" id="BitstreamVeraSans-Roman-6c"/>
      <path d="
M9.42188 54.6875
L18.4062 54.6875
L18.4062 0
L9.42188 0
z

M9.42188 75.9844
L18.4062 75.9844
L18.4062 64.5938
L9.42188 64.5938
z
" id="BitstreamVeraSans-Roman-69"/>
      <path d="
M32.1719 -5.07812
Q28.375 -14.8438 24.75 -17.8125
Q21.1406 -20.7969 15.0938 -20.7969
L7.90625 -20.7969
L7.90625 -13.2812
L13.1875 -13.2812
Q16.8906 -13.2812 18.9375 -11.5156
Q21 -9.76562 23.4844 -3.21875
L25.0938 0.875
L2.98438 54.6875
L12.5 54.6875
L29.5938 11.9219
L46.6875 54.6875
L56.2031 54.6875
z
" id="BitstreamVeraSans-Roman-79"/>
      <path d="
M45.4062 46.3906
L45.4062 75.9844
L54.3906 75.9844
L54.3906 0
L45.4062 0
L45.4062 8.20312
Q42.5781 3.32812 38.25 0.953125
Q33.9375 -1.42188 27.875 -1.42188
Q17.9688 -1.42188 11.7344 6.48438
Q5.51562 14.4062 5.51562 27.2969
Q5.51562 40.1875 11.7344 48.0938
Q17.9688 56 27.875 56
Q33.9375 56 38.25 53.625
Q42.5781 51.2656 45.4062 46.3906
M14.7969 27.2969
Q14.7969 17.3906 18.875 11.75
Q22.9531 6.10938 30.0781 6.10938
Q37.2031 6.10938 41.2969 11.75
Q45.4062 17.3906 45.4062 27.2969
Q45.4062 37.2031 41.2969 42.8438
Q37.2031 48.4844 30.0781 48.4844
Q22.9531 48.4844 18.875 42.8438
Q14.7969 37.2031 14.7969 27.2969" id="BitstreamVeraSans-Roman-64"/>
      <path d="
M8.5 21.5781
L8.5 54.6875
L17.4844 54.6875
L17.4844 21.9219
Q17.4844 14.1562 20.5 10.2656
Q23.5312 6.39062 29.5938 6.39062
Q36.8594 6.39062 41.0781 11.0312
Q45.3125 15.6719 45.3125 23.6875
L45.3125 54.6875
L54.2969 54.6875
L54.2969 0
L45.3125 0
L45.3125 8.40625
Q42.0469 3.42188 37.7188 1
Q33.4062 -1.42188 27.6875 -1.42188
Q18.2656 -1.42188 13.375 4.4375
Q8.5 10.2969 8.5 21.5781" id="BitstreamVeraSans-Roman-75"/>
      <path d="
M34.2812 27.4844
Q23.3906 27.4844 19.1875 25
Q14.9844 22.5156 14.9844 16.5
Q14.9844 11.7188 18.1406 8.90625
Q21.2969 6.10938 26.7031 6.10938
Q34.1875 6.10938 38.7031 11.4062
Q43.2188 16.7031 43.2188 25.4844
L43.2188 27.4844
z

M52.2031 31.2031
L52.2031 0
L43.2188 0
L43.2188 8.29688
Q40.1406 3.32812 35.5469 0.953125
Q30.9531 -1.42188 24.3125 -1.42188
Q15.9219 -1.42188 10.9531 3.29688
Q6 8.01562 6 15.9219
Q6 25.1406 12.1719 29.8281
Q18.3594 34.5156 30.6094 34.5156
L43.2188 34.5156
L43.2188 35.4062
Q43.2188 41.6094 39.1406 45
Q35.0625 48.3906 27.6875 48.3906
Q23 48.3906 18.5469 47.2656
Q14.1094 46.1406 10.0156 43.8906
L10.0156 52.2031
Q14.9375 54.1094 19.5781 55.0469
Q24.2188 56 28.6094 56
Q40.4844 56 46.3438 49.8438
Q52.2031 43.7031 52.2031 31.2031" id="BitstreamVeraSans-Roman-61"/>
     </defs>
     <g transform="translate(260.0803125 398.473625)scale(0.12 -0.12)">
      <use xlink:href="#BitstreamVeraSans-Roman-4a"/>
      <use x="29.4921875" xlink:href="#BitstreamVeraSans-Roman-75"/>
      <use x="92.87109375" xlink:href="#BitstreamVeraSans-Roman-6c"/>
      <use x="120.654296875" xlink:href="#BitstreamVeraSans-Roman-69"/>
      <use x="148.4375" xlink:href="#BitstreamVeraSans-Roman-61"/>
      <use x="209.716796875" xlink:href="#BitstreamVeraSans-Roman-6e"/>
      <use x="273.095703125" xlink:href="#BitstreamVeraSans-Roman-20"/>
      <use x="304.8828125" xlink:href="#BitstreamVeraSans-Roman-64"/>
      <use x="368.359375" xlink:href="#BitstreamVeraSans-Roman-61"/>
      <use x="429.638671875" xlink:href="#BitstreamVeraSans-Roman-79"/>
     </g>
    </g>
   </g>
   <g id="matplotlib.axis_2">
    <g id="ytick_1">
     <g id="line2d_22">
      <defs>
       <path d="
M0 0
L4 0" id="m728421d6d4" style="stroke:#000000;stroke-width:0.5;"/>
      </defs>
      <g>
       <use style="stroke:#000000;stroke-width:0.5;" x="66.34125" xlink:href="#m728421d6d4" y="368.74175"/>
      </g>
     </g>
     <g id="line2d_23">
      <defs>
       <path d="
M0 0
L-4 0" id="mcb0005524f" style="stroke:#000000;stroke-width:0.5;"/>
      </defs>
      <g>
       <use style="stroke:#000000;stroke-width:0.5;" x="512.74125" xlink:href="#mcb0005524f" y="368.74175"/>
      </g>
     </g>
     <g id="text_10">
      <!-- −1000 -->
      <defs>
       <path d="
M10.5938 35.5
L73.1875 35.5
L73.1875 27.2031
L10.5938 27.2031
z
" id="BitstreamVeraSans-Roman-2212"/>
      </defs>
      <g transform="translate(23.81375 372.053)scale(0.12 -0.12)">
       <use xlink:href="#BitstreamVeraSans-Roman-2212"/>
       <use x="83.7890625" xlink:href="#BitstreamVeraSans-Roman-31"/>
       <use x="147.412109375" xlink:href="#BitstreamVeraSans-Roman-30"/>
       <use x="211.03515625" xlink:href="#BitstreamVeraSans-Roman-30"/>
       <use x="274.658203125" xlink:href="#BitstreamVeraSans-Roman-30"/>
      </g>
     </g>
    </g>
    <g id="ytick_2">
     <g id="line2d_24">
      <g>
       <use style="stroke:#000000;stroke-width:0.5;" x="66.34125" xlink:href="#m728421d6d4" y="282.34175"/>
      </g>
     </g>
     <g id="line2d_25">
      <g>
       <use style="stroke:#000000;stroke-width:0.5;" x="512.74125" xlink:href="#mcb0005524f" y="282.34175"/>
      </g>
     </g>
     <g id="text_11">
      <!-- −500 -->
      <g transform="translate(31.44875 285.653)scale(0.12 -0.12)">
       <use xlink:href="#BitstreamVeraSans-Roman-2212"/>
       <use x="83.7890625" xlink:href="#BitstreamVeraSans-Roman-35"/>
       <use x="147.412109375" xlink:href="#BitstreamVeraSans-Roman-30"/>
       <use x="211.03515625" xlink:href="#BitstreamVeraSans-Roman-30"/>
      </g>
     </g>
    </g>
    <g id="ytick_3">
     <g id="line2d_26">
      <g>
       <use style="stroke:#000000;stroke-width:0.5;" x="66.34125" xlink:href="#m728421d6d4" y="195.94175"/>
      </g>
     </g>
     <g id="line2d_27">
      <g>
       <use style="stroke:#000000;stroke-width:0.5;" x="512.74125" xlink:href="#mcb0005524f" y="195.94175"/>
      </g>
     </g>
     <g id="text_12">
      <!-- 0 -->
      <g transform="translate(56.294375 199.253)scale(0.12 -0.12)">
       <use xlink:href="#BitstreamVeraSans-Roman-30"/>
      </g>
     </g>
    </g>
    <g id="ytick_4">
     <g id="line2d_28">
      <g>
       <use style="stroke:#000000;stroke-width:0.5;" x="66.34125" xlink:href="#m728421d6d4" y="109.54175"/>
      </g>
     </g>
     <g id="line2d_29">
      <g>
       <use style="stroke:#000000;stroke-width:0.5;" x="512.74125" xlink:href="#mcb0005524f" y="109.54175"/>
      </g>
     </g>
     <g id="text_13">
      <!-- 500 -->
      <g transform="translate(41.159375 112.853)scale(0.12 -0.12)">
       <use xlink:href="#BitstreamVeraSans-Roman-35"/>
       <use x="63.623046875" xlink:href="#BitstreamVeraSans-Roman-30"/>
       <use x="127.24609375" xlink:href="#BitstreamVeraSans-Roman-30"/>
      </g>
     </g>
    </g>
    <g id="ytick_5">
     <g id="line2d_30">
      <g>
       <use style="stroke:#000000;stroke-width:0.5;" x="66.34125" xlink:href="#m728421d6d4" y="23.14175"/>
      </g>
     </g>
     <g id="line2d_31">
      <g>
       <use style="stroke:#000000;stroke-width:0.5;" x="512.74125" xlink:href="#mcb0005524f" y="23.14175"/>
      </g>
     </g>
     <g id="text_14">
      <!-- 1000 -->
      <g transform="translate(33.91625 26.453)scale(0.12 -0.12)">
       <use xlink:href="#BitstreamVeraSans-Roman-31"/>
       <use x="63.623046875" xlink:href="#BitstreamVeraSans-Roman-30"/>
       <use x="127.24609375" xlink:href="#BitstreamVeraSans-Roman-30"/>
       <use x="190.869140625" xlink:href="#BitstreamVeraSans-Roman-30"/>
      </g>
     </g>
    </g>
    <g id="text_15">
     <!-- PET (mm/day) -->
     <defs>
      <path d="
M52 44.1875
Q55.375 50.25 60.0625 53.125
Q64.75 56 71.0938 56
Q79.6406 56 84.2812 50.0156
Q88.9219 44.0469 88.9219 33.0156
L88.9219 0
L79.8906 0
L79.8906 32.7188
Q79.8906 40.5781 77.0938 44.375
Q74.3125 48.1875 68.6094 48.1875
Q61.625 48.1875 57.5625 43.5469
Q53.5156 38.9219 53.5156 30.9062
L53.5156 0
L44.4844 0
L44.4844 32.7188
Q44.4844 40.625 41.7031 44.4062
Q38.9219 48.1875 33.1094 48.1875
Q26.2188 48.1875 22.1562 43.5312
Q18.1094 38.875 18.1094 30.9062
L18.1094 0
L9.07812 0
L9.07812 54.6875
L18.1094 54.6875
L18.1094 46.1875
Q21.1875 51.2188 25.4844 53.6094
Q29.7812 56 35.6875 56
Q41.6562 56 45.8281 52.9688
Q50 49.9531 52 44.1875" id="BitstreamVeraSans-Roman-6d"/>
      <path d="
M8.01562 75.875
L15.8281 75.875
Q23.1406 64.3594 26.7812 53.3125
Q30.4219 42.2812 30.4219 31.3906
Q30.4219 20.4531 26.7812 9.375
Q23.1406 -1.70312 15.8281 -13.1875
L8.01562 -13.1875
Q14.5 -2 17.7031 9.0625
Q20.9062 20.125 20.9062 31.3906
Q20.9062 42.6719 17.7031 53.6562
Q14.5 64.6562 8.01562 75.875" id="BitstreamVeraSans-Roman-29"/>
      <path d="
M31 75.875
Q24.4688 64.6562 21.2812 53.6562
Q18.1094 42.6719 18.1094 31.3906
Q18.1094 20.125 21.3125 9.0625
Q24.5156 -2 31 -13.1875
L23.1875 -13.1875
Q15.875 -1.70312 12.2344 9.375
Q8.59375 20.4531 8.59375 31.3906
Q8.59375 42.2812 12.2031 53.3125
Q15.8281 64.3594 23.1875 75.875
z
" id="BitstreamVeraSans-Roman-28"/>
      <path d="
M19.6719 64.7969
L19.6719 37.4062
L32.0781 37.4062
Q38.9688 37.4062 42.7188 40.9688
Q46.4844 44.5312 46.4844 51.125
Q46.4844 57.6719 42.7188 61.2344
Q38.9688 64.7969 32.0781 64.7969
z

M9.8125 72.9062
L32.0781 72.9062
Q44.3438 72.9062 50.6094 67.3594
Q56.8906 61.8125 56.8906 51.125
Q56.8906 40.3281 50.6094 34.8125
Q44.3438 29.2969 32.0781 29.2969
L19.6719 29.2969
L19.6719 0
L9.8125 0
z
" id="BitstreamVeraSans-Roman-50"/>
      <path d="
M9.8125 72.9062
L55.9062 72.9062
L55.9062 64.5938
L19.6719 64.5938
L19.6719 43.0156
L54.3906 43.0156
L54.3906 34.7188
L19.6719 34.7188
L19.6719 8.29688
L56.7812 8.29688
L56.7812 0
L9.8125 0
z
" id="BitstreamVeraSans-Roman-45"/>
      <path d="
M-0.296875 72.9062
L61.375 72.9062
L61.375 64.5938
L35.5 64.5938
L35.5 0
L25.5938 0
L25.5938 64.5938
L-0.296875 64.5938
z
" id="BitstreamVeraSans-Roman-54"/>
      <path d="
M25.3906 72.9062
L33.6875 72.9062
L8.29688 -9.28125
L0 -9.28125
z
" id="BitstreamVeraSans-Roman-2f"/>
     </defs>
     <g transform="translate(16.318125 237.8358125)rotate(-90.0)scale(0.12 -0.12)">
      <use xlink:href="#BitstreamVeraSans-Roman-50"/>
      <use x="60.302734375" xlink:href="#BitstreamVeraSans-Roman-45"/>
      <use x="123.486328125" xlink:href="#BitstreamVeraSans-Roman-54"/>
      <use x="184.5703125" xlink:href="#BitstreamVeraSans-Roman-20"/>
      <use x="216.357421875" xlink:href="#BitstreamVeraSans-Roman-28"/>
      <use x="255.37109375" xlink:href="#BitstreamVeraSans-Roman-6d"/>
      <use x="352.783203125" xlink:href="#BitstreamVeraSans-Roman-6d"/>
      <use x="450.1953125" xlink:href="#BitstreamVeraSans-Roman-2f"/>
      <use x="483.88671875" xlink:href="#BitstreamVeraSans-Roman-64"/>
      <use x="547.36328125" xlink:href="#BitstreamVeraSans-Roman-61"/>
      <use x="608.642578125" xlink:href="#BitstreamVeraSans-Roman-79"/>
      <use x="667.822265625" xlink:href="#BitstreamVeraSans-Roman-29"/>
     </g>
    </g>
   </g>
   <g id="text_16">
    <!-- daily shrub PET at LDP -->
    <defs>
     <path d="
M9.8125 72.9062
L19.6719 72.9062
L19.6719 8.29688
L55.1719 8.29688
L55.1719 0
L9.8125 0
z
" id="BitstreamVeraSans-Roman-4c"/>
     <path d="
M19.6719 64.7969
L19.6719 8.10938
L31.5938 8.10938
Q46.6875 8.10938 53.6875 14.9375
Q60.6875 21.7812 60.6875 36.5312
Q60.6875 51.1719 53.6875 57.9844
Q46.6875 64.7969 31.5938 64.7969
z

M9.8125 72.9062
L30.0781 72.9062
Q51.2656 72.9062 61.1719 64.0938
Q71.0938 55.2812 71.0938 36.5312
Q71.0938 17.6719 61.125 8.82812
Q51.1719 0 30.0781 0
L9.8125 0
z
" id="BitstreamVeraSans-Roman-44"/>
     <path d="
M54.8906 33.0156
L54.8906 0
L45.9062 0
L45.9062 32.7188
Q45.9062 40.4844 42.875 44.3281
Q39.8438 48.1875 33.7969 48.1875
Q26.5156 48.1875 22.3125 43.5469
Q18.1094 38.9219 18.1094 30.9062
L18.1094 0
L9.07812 0
L9.07812 75.9844
L18.1094 75.9844
L18.1094 46.1875
Q21.3438 51.125 25.7031 53.5625
Q30.0781 56 35.7969 56
Q45.2188 56 50.0469 50.1719
Q54.8906 44.3438 54.8906 33.0156" id="BitstreamVeraSans-Roman-68"/>
     <path d="
M18.3125 70.2188
L18.3125 54.6875
L36.8125 54.6875
L36.8125 47.7031
L18.3125 47.7031
L18.3125 18.0156
Q18.3125 11.3281 20.1406 9.42188
Q21.9688 7.51562 27.5938 7.51562
L36.8125 7.51562
L36.8125 0
L27.5938 0
Q17.1875 0 13.2344 3.875
Q9.28125 7.76562 9.28125 18.0156
L9.28125 47.7031
L2.6875 47.7031
L2.6875 54.6875
L9.28125 54.6875
L9.28125 70.2188
z
" id="BitstreamVeraSans-Roman-74"/>
     <path d="
M41.1094 46.2969
Q39.5938 47.1719 37.8125 47.5781
Q36.0312 48 33.8906 48
Q26.2656 48 22.1875 43.0469
Q18.1094 38.0938 18.1094 28.8125
L18.1094 0
L9.07812 0
L9.07812 54.6875
L18.1094 54.6875
L18.1094 46.1875
Q20.9531 51.1719 25.4844 53.5781
Q30.0312 56 36.5312 56
Q37.4531 56 38.5781 55.875
Q39.7031 55.7656 41.0625 55.5156
z
" id="BitstreamVeraSans-Roman-72"/>
     <path d="
M44.2812 53.0781
L44.2812 44.5781
Q40.4844 46.5312 36.375 47.5
Q32.2812 48.4844 27.875 48.4844
Q21.1875 48.4844 17.8438 46.4375
Q14.5 44.3906 14.5 40.2812
Q14.5 37.1562 16.8906 35.375
Q19.2812 33.5938 26.5156 31.9844
L29.5938 31.2969
Q39.1562 29.25 43.1875 25.5156
Q47.2188 21.7812 47.2188 15.0938
Q47.2188 7.46875 41.1875 3.01562
Q35.1562 -1.42188 24.6094 -1.42188
Q20.2188 -1.42188 15.4531 -0.5625
Q10.6875 0.296875 5.42188 2
L5.42188 11.2812
Q10.4062 8.6875 15.2344 7.39062
Q20.0625 6.10938 24.8125 6.10938
Q31.1562 6.10938 34.5625 8.28125
Q37.9844 10.4531 37.9844 14.4062
Q37.9844 18.0625 35.5156 20.0156
Q33.0625 21.9688 24.7031 23.7812
L21.5781 24.5156
Q13.2344 26.2656 9.51562 29.9062
Q5.8125 33.5469 5.8125 39.8906
Q5.8125 47.6094 11.2812 51.7969
Q16.75 56 26.8125 56
Q31.7812 56 36.1719 55.2656
Q40.5781 54.5469 44.2812 53.0781" id="BitstreamVeraSans-Roman-73"/>
     <path d="
M48.6875 27.2969
Q48.6875 37.2031 44.6094 42.8438
Q40.5312 48.4844 33.4062 48.4844
Q26.2656 48.4844 22.1875 42.8438
Q18.1094 37.2031 18.1094 27.2969
Q18.1094 17.3906 22.1875 11.75
Q26.2656 6.10938 33.4062 6.10938
Q40.5312 6.10938 44.6094 11.75
Q48.6875 17.3906 48.6875 27.2969
M18.1094 46.3906
Q20.9531 51.2656 25.2656 53.625
Q29.5938 56 35.5938 56
Q45.5625 56 51.7812 48.0938
Q58.0156 40.1875 58.0156 27.2969
Q58.0156 14.4062 51.7812 6.48438
Q45.5625 -1.42188 35.5938 -1.42188
Q29.5938 -1.42188 25.2656 0.953125
Q20.9531 3.32812 18.1094 8.20312
L18.1094 0
L9.07812 0
L9.07812 75.9844
L18.1094 75.9844
z
" id="BitstreamVeraSans-Roman-62"/>
    </defs>
    <g transform="translate(208.560375 18.14175)scale(0.144 -0.144)">
     <use xlink:href="#BitstreamVeraSans-Roman-64"/>
     <use x="63.4765625" xlink:href="#BitstreamVeraSans-Roman-61"/>
     <use x="124.755859375" xlink:href="#BitstreamVeraSans-Roman-69"/>
     <use x="152.5390625" xlink:href="#BitstreamVeraSans-Roman-6c"/>
     <use x="180.322265625" xlink:href="#BitstreamVeraSans-Roman-79"/>
     <use x="239.501953125" xlink:href="#BitstreamVeraSans-Roman-20"/>
     <use x="271.2890625" xlink:href="#BitstreamVeraSans-Roman-73"/>
     <use x="323.388671875" xlink:href="#BitstreamVeraSans-Roman-68"/>
     <use x="386.767578125" xlink:href="#BitstreamVeraSans-Roman-72"/>
     <use x="427.880859375" xlink:href="#BitstreamVeraSans-Roman-75"/>
     <use x="491.259765625" xlink:href="#BitstreamVeraSans-Roman-62"/>
     <use x="554.736328125" xlink:href="#BitstreamVeraSans-Roman-20"/>
     <use x="586.5234375" xlink:href="#BitstreamVeraSans-Roman-50"/>
     <use x="646.826171875" xlink:href="#BitstreamVeraSans-Roman-45"/>
     <use x="710.009765625" xlink:href="#BitstreamVeraSans-Roman-54"/>
     <use x="771.09375" xlink:href="#BitstreamVeraSans-Roman-20"/>
     <use x="802.880859375" xlink:href="#BitstreamVeraSans-Roman-61"/>
     <use x="864.16015625" xlink:href="#BitstreamVeraSans-Roman-74"/>
     <use x="903.369140625" xlink:href="#BitstreamVeraSans-Roman-20"/>
     <use x="935.15625" xlink:href="#BitstreamVeraSans-Roman-4c"/>
     <use x="990.869140625" xlink:href="#BitstreamVeraSans-Roman-44"/>
     <use x="1067.87109375" xlink:href="#BitstreamVeraSans-Roman-50"/>
    </g>
   </g>
   <g id="legend_1">
    <g id="patch_7">
     <path d="
M418.916 140.344
L505.541 140.344
L505.541 30.3417
L418.916 30.3417
z
" style="fill:#ffffff;stroke:#000000;stroke-linejoin:miter;"/>
    </g>
    <g id="line2d_32">
     <path d="
M428.996 42.0035
L449.156 42.0035" style="fill:none;stroke:#0000ff;stroke-linecap:square;"/>
    </g>
    <g id="line2d_33"/>
    <g id="text_17">
     <!-- 2010 -->
     <g transform="translate(464.99625 47.0435)scale(0.144 -0.144)">
      <use xlink:href="#BitstreamVeraSans-Roman-32"/>
      <use x="63.623046875" xlink:href="#BitstreamVeraSans-Roman-30"/>
      <use x="127.24609375" xlink:href="#BitstreamVeraSans-Roman-31"/>
      <use x="190.869140625" xlink:href="#BitstreamVeraSans-Roman-30"/>
     </g>
    </g>
    <g id="line2d_34">
     <path d="
M428.996 63.14
L449.156 63.14" style="fill:none;stroke:#008000;stroke-linecap:square;"/>
    </g>
    <g id="line2d_35"/>
    <g id="text_18">
     <!-- 2011 -->
     <g transform="translate(464.99625 68.18)scale(0.144 -0.144)">
      <use xlink:href="#BitstreamVeraSans-Roman-32"/>
      <use x="63.623046875" xlink:href="#BitstreamVeraSans-Roman-30"/>
      <use x="127.24609375" xlink:href="#BitstreamVeraSans-Roman-31"/>
      <use x="190.869140625" xlink:href="#BitstreamVeraSans-Roman-31"/>
     </g>
    </g>
    <g id="line2d_36">
     <path d="
M428.996 84.2765
L449.156 84.2765" style="fill:none;stroke:#ff0000;stroke-linecap:square;"/>
    </g>
    <g id="line2d_37"/>
    <g id="text_19">
     <!-- 2012 -->
     <g transform="translate(464.99625 89.3165)scale(0.144 -0.144)">
      <use xlink:href="#BitstreamVeraSans-Roman-32"/>
      <use x="63.623046875" xlink:href="#BitstreamVeraSans-Roman-30"/>
      <use x="127.24609375" xlink:href="#BitstreamVeraSans-Roman-31"/>
      <use x="190.869140625" xlink:href="#BitstreamVeraSans-Roman-32"/>
     </g>
    </g>
    <g id="line2d_38">
     <path d="
M428.996 105.413
L449.156 105.413" style="fill:none;stroke:#00bfbf;stroke-linecap:square;"/>
    </g>
    <g id="line2d_39"/>
    <g id="text_20">
     <!-- 2013 -->
     <g transform="translate(464.99625 110.453)scale(0.144 -0.144)">
      <use xlink:href="#BitstreamVeraSans-Roman-32"/>
      <use x="63.623046875" xlink:href="#BitstreamVeraSans-Roman-30"/>
      <use x="127.24609375" xlink:href="#BitstreamVeraSans-Roman-31"/>
      <use x="190.869140625" xlink:href="#BitstreamVeraSans-Roman-33"/>
     </g>
    </g>
    <g id="line2d_40">
     <path d="
M428.996 126.549
L449.156 126.549" style="fill:none;stroke:#bf00bf;stroke-linecap:square;"/>
    </g>
    <g id="line2d_41"/>
    <g id="text_21">
     <!-- 2014 -->
     <defs>
      <path d="
M37.7969 64.3125
L12.8906 25.3906
L37.7969 25.3906
z

M35.2031 72.9062
L47.6094 72.9062
L47.6094 25.3906
L58.0156 25.3906
L58.0156 17.1875
L47.6094 17.1875
L47.6094 0
L37.7969 0
L37.7969 17.1875
L4.89062 17.1875
L4.89062 26.7031
z
" id="BitstreamVeraSans-Roman-34"/>
     </defs>
     <g transform="translate(464.99625 131.5895)scale(0.144 -0.144)">
      <use xlink:href="#BitstreamVeraSans-Roman-32"/>
      <use x="63.623046875" xlink:href="#BitstreamVeraSans-Roman-30"/>
      <use x="127.24609375" xlink:href="#BitstreamVeraSans-Roman-31"/>
      <use x="190.869140625" xlink:href="#BitstreamVeraSans-Roman-34"/>
     </g>
    </g>
   </g>
  </g>
 </g>
 <defs>
  <clipPath id="p747ad1be57">
   <rect height="345.6" width="446.4" x="66.34125" y="23.14175"/>
  </clipPath>
 </defs>
</svg>
