<?xml version="1.0" encoding="utf-8" standalone="no"?>
<!DOCTYPE svg PUBLIC "-//W3C//DTD SVG 1.1//EN"
  "http://www.w3.org/Graphics/SVG/1.1/DTD/svg11.dtd">
<!-- Created with matplotlib (http://matplotlib.org/) -->
<svg height="408pt" version="1.1" viewBox="0 0 519 408" width="519pt" xmlns="http://www.w3.org/2000/svg" xmlns:xlink="http://www.w3.org/1999/xlink">
 <defs>
  <style type="text/css">
*{stroke-linecap:butt;stroke-linejoin:round;}
  </style>
 </defs>
 <g id="figure_1">
  <g id="patch_1">
   <path d="
M0 408.169
L519.941 408.169
L519.941 0
L0 0
z
" style="fill:#ffffff;"/>
  </g>
  <g id="axes_1">
   <g id="patch_2">
    <path d="
M66.3413 368.742
L512.741 368.742
L512.741 23.1417
L66.3413 23.1417
z
" style="fill:#ffffff;"/>
   </g>
   <g id="line2d_1">
    <path clip-path="url(#p747ad1be57)" d="
M68.7873 196.768
L70.0103 196.862
L71.2333 198.389
L72.4563 195.67
L73.6793 196.918
L74.9023 197.839
L76.1254 195.751
L77.3484 194.324
L78.4486 -1
M78.7402 -1
L79.7944 135.115
L81.0174 190.93
L82.2404 195.875
L83.4634 169.561
L84.6865 194.53
L85.9095 166.157
L87.1325 160.897
L89.5785 249.205
L90.8015 199.299
L92.0245 196.286
L93.2476 198.055
L94.4706 196.339
L95.6936 197.747
L96.9166 198.57
L98.1396 196.037
L99.3626 196.564
L101.809 196.282
L103.032 198.147
L104.255 197.454
L105.478 196.309
L106.701 196.527
L107.924 196.093
L109.147 196.817
L110.37 194.875
L111.593 196.293
L112.816 196.384
L115.262 196.258
L116.485 196.282
L117.708 195.345
L118.931 196.109
L120.154 195.164
L121.377 196.064
L125.046 196.155
L126.269 196.593
L127.492 196.628
L128.715 197.232
L129.938 197.444
L131.161 192.246
L132.384 197.995
L133.607 196.295
L134.83 90.4467
L136.053 194.391
L137.276 193.227
L138.499 190.222
L139.722 159.773
L140.945 193.499
L142.168 195.275
L143.391 193.875
L144.614 193.666
L145.837 194.837
L147.06 195.178
L148.283 201.137
L150.729 195.139
L151.715 -1
M152.185 -1
L153.175 200.036
L154.398 195.55
L155.621 190.473
L156.844 58.6169
L158.067 190.366
L159.29 190.584
L160.513 192.979
L161.736 181.309
L162.959 190.94
L164.182 196.323
L165.405 194.591
L166.628 158.862
L167.851 170.437
L169.074 204.172
L170.297 193.583
L171.52 154.548
L172.743 146.811
L173.966 198.07
L175.189 195.854
L176.412 198.445
L177.635 204.507
L178.859 200.384
L180.082 194.251
L181.305 201.79
L182.528 187.903
L183.751 194.374
L184.974 138.002
L186.197 195.778
L187.42 177.634
L188.643 162.56
L189.866 189.93
L191.089 193.067
L192.312 190.45
L193.535 147.646
L194.758 25.4786
L195.981 193.021
L197.204 192.391
L198.427 187.338
L199.65 163.647
L200.873 189.923
L202.096 192.41
L203.319 183.411
L204.542 189.36
L205.765 191.757
L206.988 181.87
L208.211 123.438
L209.434 196.701
L210.657 205.747
L211.88 194.112
L213.103 194.22
L214.326 187.05
L215.549 176.049
L216.772 189.991
L217.995 196.227
L219.218 194.555
L220.441 193.24
L221.664 180.63
L222.887 192.591
L224.11 195.111
L225.333 182.047
L226.556 186.315
L227.779 193.013
L229.002 190.452
L230.225 190.89
L231.448 167.252
L232.671 167.262
L233.894 189.754
L236.34 179.004
L237.563 192.514
L238.786 196.118
L240.009 194.918
L241.232 192.767
L242.455 185.608
L243.678 181.811
L244.901 193.144
L246.124 192.984
L248.57 193.531
L249.793 191.048
L251.016 193.543
L252.239 193.839
L253.462 188.042
L254.685 188.252
L255.908 192.773
L257.131 187.48
L258.354 189.72
L259.577 189.79
L260.8 181.315
L262.023 190.599
L263.246 187.655
L264.469 159.677
L265.692 184.986
L266.915 189.228
L268.139 186.723
L269.362 171.06
L270.585 191.837
L271.808 187.698
L273.031 190.266
L274.254 186.192
L275.477 192.106
L276.7 191.356
L277.923 179.587
L279.146 187.503
L280.369 189.653
L281.592 190.413
L282.815 182.772
L284.038 180.666
L285.261 173.014
L286.484 184.889
L287.707 189.284
L288.93 172.523
L290.153 184.676
L291.376 178.529
L292.599 187.779
L293.822 187.212
L295.045 187.925
L296.268 187.914
L297.491 188.906
L298.714 186.16
L299.937 181.959
L301.16 132.239
L302.383 159.535
L303.606 189.787
L304.829 187.946
L306.052 183.89
L307.275 180.868
L308.498 175.946
L309.721 186.462
L310.944 189.502
L312.167 185.538
L313.39 183.528
L314.613 175.959
L315.836 184.655
L317.059 190.519
L318.282 157.819
L319.505 189.322
L320.728 135.569
L321.951 190.448
L323.174 186.319
L324.397 183.543
L325.62 168.133
L326.843 184.209
L328.066 183.058
L329.289 189.956
L330.512 161.442
L331.735 182.698
L332.958 185.408
L334.181 188.59
L335.404 183.23
L336.627 174.685
L337.85 190.475
L339.073 182.682
L340.296 190.638
L341.519 188.725
L342.742 182.123
L343.965 185.529
L345.188 184.298
L346.411 172.914
L347.634 186.266
L348.857 189.488
L350.08 142.77
L351.303 168.518
L352.526 189.708
L353.749 185.034
L354.972 169.589
L356.195 157.505
L357.419 182.661
L358.642 183.818
L359.865 193.859
L361.088 192.141
L362.311 193.667
L363.534 184.37
L364.757 187.365
L365.98 179.406
L367.203 184.598
L368.426 162.156
L369.649 193.293
L370.872 167.561
L372.095 190.314
L373.318 190.753
L374.541 191.99
L375.764 187.917
L376.987 185.141
L378.21 192.157
L379.433 185.522
L380.656 187.57
L381.879 188.84
L383.102 189.894
L384.325 182.009
L385.548 183.216
L386.771 185.836
L387.994 187.964
L389.217 184.87
L390.44 187.314
L391.663 192.349
L392.886 184.364
L394.109 182.642
L395.332 191.081
L396.555 189.373
L397.778 189.342
L399.001 192.147
L400.224 190.797
L402.67 186.985
L403.893 193.933
L405.116 192.447
L406.339 167.133
L407.562 161.306
L408.785 193.803
L410.008 192.731
L411.231 192.329
L412.454 186.269
L413.677 193.432
L414.9 182.801
L416.123 181.981
L417.346 190.922
L418.569 187.53
L419.792 193.203
L421.015 188.975
L422.238 191.611
L423.461 190.192
L424.684 189.557
L427.13 193.938
L428.353 165.208
L429.576 210.423
L430.799 209.103
L432.022 194.389
L433.245 82.1568
L434.468 191.169
L435.691 190.342
L436.914 194.408
L438.137 189.666
L439.36 193.414
L440.583 171.035
L441.806 185.384
L443.029 171.854
L444.252 183.323
L445.475 186.52
L446.699 197.932
L447.922 195.753
L449.145 196.948
L451.591 195.837
L452.814 196.777
L454.037 194.571
L455.26 193.594
M458.929 187.388
L460.152 196.283
L461.375 196.364
L462.598 204.46
L463.821 202.824
L465.044 376.16
L466.267 206.919
L467.49 197.94
L468.713 273.343
L469.936 197.775
L471.159 201.739
L472.382 197.206
L473.605 209.28
L474.828 196.232
L476.051 196.498
L477.274 196.227
L478.497 197.392
L479.72 185.294
L480.943 182.333
L482.166 192.429
L483.389 187.651
L484.612 195.478
L485.835 194.342
L487.058 194.916
L488.281 189.499
L489.504 194.526
L490.727 178.17
L491.95 198.23
L493.173 198.845
L494.396 217.178
L495.619 201.91
L496.842 198.955
L498.065 199.454
L499.288 230.124
L500.511 190.147
L501.734 195.512
L502.957 115.619
L503.109 -1
M505.173 -1
L505.403 189.508
L506.626 198.7
L507.849 212.321
L509.072 213.617
L510.295 196.445
L511.518 196.591
L511.518 196.591" style="fill:none;stroke:#0000ff;stroke-linecap:square;"/>
   </g>
   <g id="line2d_2">
    <path clip-path="url(#p747ad1be57)" d="
M66.3413 197.568
L67.5643 196.84
L68.7873 196.633
L70.0103 198.231
L71.2333 196.479
L72.4563 195.619
L73.6793 195.202
L74.9023 198.489
L76.1254 200.807
L77.3484 197.582
L78.5714 273.784
L79.7944 196.12
L81.0174 195.751
L82.2404 186.339
L83.4634 194.767
L84.6865 146.469
L85.9095 38.0752
L87.1325 197.921
L88.3555 197.074
L89.5785 197.507
L90.8015 195.986
L92.0245 196.232
L93.2476 194.751
L94.4706 195.826
L95.6936 195.498
L96.9166 195.808
L99.3626 194.379
L100.586 195.357
L101.809 196.06
L103.032 204.767
L104.255 198.582
L105.478 197.935
L106.701 196.665
L107.924 192.443
L109.147 192.889
L110.37 195.819
L111.593 193.767
L112.816 197.175
L114.039 197.023
L115.262 196.308
L116.485 194.403
L117.708 161.194
L118.931 173.386
L120.154 175.458
L121.377 172.898
L122.6 190.924
L123.823 203.767
L125.046 199.711
L126.269 198.993
L127.492 196.817
L128.715 196.419
L129.938 211.039
L131.161 199.825
L132.384 199.116
L133.607 198.203
L134.83 198.028
L136.053 199.54
L137.276 198.155
L138.499 190.528
L139.722 164.828
L140.945 194.536
L142.168 195.691
L144.614 196.045
L145.837 199.117
L147.06 196.984
L148.283 189.088
L149.506 155.096
L150.729 195.908
L151.952 194.528
L153.175 174.008
L154.398 187.523
L155.621 183.908
L156.844 196.038
L158.067 198.475
L159.29 145.945
L160.513 195.359
L160.951 -1
M162.571 -1
L162.959 162.884
L164.182 196.153
L165.405 162.912
L166.628 183.863
L167.851 196.249
L169.074 199.32
L170.297 196.393
L171.52 197.077
L172.743 195.937
L175.189 66.0414
L176.412 187.783
L177.635 144.707
L178.859 196.401
L180.082 194.604
L181.305 177.261
L182.528 195.534
L183.751 196.053
L184.974 195.642
L186.197 195.525
L187.42 194.01
L188.643 190.875
L189.866 194.397
L191.089 164.884
L192.312 192.569
L193.535 193.192
L194.758 178.811
L195.981 186.933
L197.204 191.853
L198.427 195.559
L199.65 192.81
L200.873 196.533
L202.096 195.147
L203.319 193.527
L204.542 189.727
L205.765 191.186
L206.988 193.137
L208.211 192.428
L209.434 189.984
L210.657 195.388
L211.88 192.626
L213.103 193.651
L214.326 174.554
L215.549 190.781
L216.772 192.79
L217.995 174.509
L219.218 192.558
L220.441 189.983
L221.664 192.615
L222.887 175.204
L224.11 176.889
L225.333 190.607
L226.556 191.49
L227.779 166.903
L229.002 44.1862
L230.225 180.563
L231.448 195.756
L232.671 194.45
L233.894 191.88
L235.117 63.4598
L236.34 187.499
L237.563 190.043
L238.786 188.842
L240.009 192.143
L241.232 191.144
L242.455 118.476
L243.678 195.392
L244.901 194.876
L246.124 195.346
L247.347 195.361
L248.57 191.371
L249.793 153.752
L251.016 180.518
L252.239 195.4
L253.462 192.953
L254.685 155.278
L255.908 159.245
L257.131 189.642
L258.354 189.955
L259.577 187.372
L260.8 191.553
L262.023 193.411
L263.246 191.169
L264.469 192.047
L265.692 191.104
L266.915 186.245
L268.139 177.62
L269.362 187.739
L270.585 192.593
L271.808 191.574
L273.031 186.097
L274.254 189.405
L275.477 189.305
L276.7 186.716
L277.923 176.268
L279.146 183.445
L280.369 188.429
L281.592 189.74
L282.815 177.45
L284.038 170.247
L285.261 182.328
L286.484 186.77
L287.707 189.769
L288.93 189.577
L290.153 182.896
L291.376 187.26
L292.599 183.323
L293.822 188.241
L295.045 185.786
L296.268 182.874
L297.491 190.392
L298.714 189.617
L299.937 180.619
L301.16 189.851
L302.383 179.087
L304.829 190.54
L306.052 183.525
L307.275 178.504
L308.498 187.57
L309.721 164.569
L310.944 189.309
L313.39 187.311
L314.613 189.472
L315.836 186.324
L317.059 175.852
L318.282 181.261
L319.505 187.95
L320.728 188.709
L321.951 190.088
L323.174 175.72
L324.397 111.437
L325.62 188.816
L326.843 160.932
L328.066 177.768
L329.289 172.189
L330.512 188.746
L331.735 188.627
L332.958 188.891
L334.181 188.919
L336.627 184.996
L337.85 186.677
L339.073 189.231
L340.296 180.103
L341.519 187.07
L342.742 178.356
L343.965 188.692
L345.188 189.115
L346.411 185.624
L347.634 183.961
L348.857 189.496
L350.08 189.826
L351.303 184.903
L352.526 183.99
L353.749 187.054
L354.972 178.375
L356.195 188.634
L357.419 189.928
L358.642 187.254
L359.865 186.912
L361.088 191.167
L362.311 182.06
L363.534 185.792
L364.757 185.89
L365.98 191.406
L367.203 188.294
L368.426 187.838
L369.649 186.738
L370.872 180.912
L372.095 186.337
L373.318 185.099
L374.541 178.533
L375.764 168.956
L376.987 185.059
L378.21 190.763
L379.433 190.778
L380.656 166.084
L381.879 192.458
L383.102 189.151
L384.325 192.508
L385.548 189.167
L386.771 189.113
L387.994 190.679
L389.217 191.277
L390.44 184.693
L391.663 153.982
L392.886 178.202
L394.109 191.36
L395.332 185.11
L396.555 190.246
L397.778 185.944
L399.001 178.304
L400.224 184.827
L401.447 177.481
L402.67 181.301
L403.893 182.882
L405.116 193.064
L406.339 195.973
L407.562 193.605
L410.008 192.526
L411.231 190.363
L412.454 183.873
L413.677 192.534
L414.9 194.131
L416.123 193.084
L417.346 189.796
L418.569 188.883
L419.792 192.645
L421.015 188.863
L422.238 190.624
L423.461 192.819
L424.684 193.14
L425.907 192.057
L427.13 194.137
L428.353 187.101
L429.576 194.828
L430.799 194.792
L432.022 194.205
L433.245 192.636
L434.468 186.648
L435.691 193.06
L436.914 188.263
L438.137 194.834
L440.583 112.536
L441.806 195.842
L443.029 196.831
L444.252 196.629
L445.475 196.67
L446.699 195.983
L449.145 182.706
L450.368 188.766
L451.591 193.608
L452.814 194.57
L454.037 193.912
L455.26 199.704
L456.483 196.629
L457.706 191.237
L458.929 199.497
L460.152 198.055
L461.375 197.366
L462.598 194.912
L463.821 172.81
L465.044 64.2109
L466.267 193.216
L467.49 194.723
L468.713 193.826
L469.936 158.254
L471.159 194.355
L472.382 195.241
L473.605 194.449
L474.828 189.058
L476.051 195.336
L477.274 198.286
L478.497 197.152
L479.72 196.898
L480.943 196.01
L482.166 195.813
L483.389 195.161
L484.612 195.155
L485.835 185.298
L487.058 194.338
L488.281 195.751
L489.504 195.967
L490.727 195.634
L491.95 196.447
L493.173 195.869
L494.396 195.064
L496.842 195.18
L498.065 194.964
L499.288 200.291
L500.511 196.367
L501.734 195.856
L502.957 195.49
L504.18 191.715
L505.403 195.681
L506.626 195.685
L507.849 194.348
L509.072 173.79
L510.295 182.802
L511.518 196.503
L511.518 196.503" style="fill:none;stroke:#008000;stroke-linecap:square;"/>
   </g>
   <g id="line2d_3">
    <path clip-path="url(#p747ad1be57)" d="
M66.3413 185.309
L67.5643 57.7157
L68.7873 193.781
L70.0103 178.989
L71.2333 189.983
L72.4563 196.575
L73.6793 197.777
L74.9023 195.065
L77.3484 195.143
L78.5714 196.41
L81.0174 195.395
L82.2404 193.234
L83.4634 193.867
L84.6865 200.785
L85.9095 198.548
L87.1325 197.587
L88.3555 196.031
L89.5785 196.383
L90.8015 176.45
L92.0245 225.774
L93.2476 197.626
L94.4706 198.774
L95.6936 194.447
L96.9166 194.186
L98.1396 198.414
L99.3626 196.036
L100.586 190.067
L101.809 191.827
M104.255 196.342
L105.478 196.679
L106.701 192.091
L107.924 191.672
L109.147 195.728
L110.37 194.77
L111.593 172.613
L112.816 196.164
L114.039 195.827
L115.262 194.764
L116.485 195.788
L117.708 196.046
M121.377 201.292
L122.6 196.168
L123.823 195.49
L125.046 195.673
L126.269 197.513
L127.492 197.81
L128.715 170.173
L129.237 -1
M130.586 -1
L131.161 203.148
L132.384 192.233
L133.607 18.3728
L134.83 203.872
L136.053 196.203
L137.276 197.999
L138.499 219.955
L139.722 206.87
L140.945 201.821
L142.168 192.629
L143.391 193.166
L144.614 190.892
L145.837 191.176
L147.06 201.358
L148.283 194.086
L149.506 159.317
L150.729 184.61
L151.952 185.296
L153.175 159.836
L155.621 195.34
L156.844 168.506
L158.067 183.194
L159.29 194.8
L160.513 196.205
L161.736 197.984
L162.959 191.802
L164.182 155.46
L165.405 142.833
L166.628 194.049
L167.851 81.9757
L168.38 -1
M169.51 -1
L170.297 195.623
L171.52 174.843
L172.743 191.498
L173.966 193.503
L175.189 186.224
L176.412 135.307
L177.635 189.571
L178.859 194.873
L180.082 112.13
L181.305 183.041
L182.528 196.196
L183.751 196.929
L184.974 179.347
L186.197 177.595
L187.42 181.052
L188.643 85.7225
L189.866 170.068
L191.089 189.112
L192.312 186.403
L193.535 189.896
L194.758 191.377
L195.981 194.502
L198.427 189.887
L199.65 193.222
L200.873 190.597
L202.096 191.933
L203.319 179.381
L204.542 176.324
L205.765 188.824
L206.988 189.214
L208.211 171.153
L209.434 194.329
L210.657 194.674
L211.88 192.816
L213.103 181.576
L214.326 192.376
L215.549 192.159
L216.772 187.919
L217.995 192.903
L219.218 193.65
L220.441 190.979
L221.664 191.716
L222.887 192.024
L224.11 179.158
L225.333 184.335
L226.556 191.814
L227.779 186.38
L229.002 192.97
L230.225 181.205
L231.448 187.661
L232.671 182.31
L233.894 181.419
L235.117 187.802
L236.34 190.118
L237.563 189.237
L238.786 146.14
L240.009 174.507
L241.232 188.751
L242.455 192.558
L243.678 194.011
L244.901 194.329
L246.124 189.933
L247.347 192.82
L248.57 183.446
L249.793 185.959
L251.016 185.704
L252.239 188.903
L253.462 187.681
L254.685 191.91
L255.908 164.844
L257.131 190.799
L258.354 192.852
L259.577 161.813
L260.8 190.853
L262.023 191.464
L263.246 184.822
L264.469 190.289
L265.692 190.324
L266.915 178.184
L268.139 190.473
L269.362 187.842
L270.585 189.288
L271.808 161.741
L273.031 166.101
L274.254 192.734
L275.477 188.521
L276.7 107.132
L277.923 164.3
L279.146 182.753
L280.369 181.996
L281.592 189.993
L282.815 169.018
L284.038 190.343
L285.261 180.839
L286.484 186.657
L287.707 188.337
L288.93 181.665
L290.153 187.955
L291.376 165.438
L292.599 187.573
L293.822 188.526
L295.045 185.019
L296.268 179.302
L297.491 80.4419
L298.714 118.032
L299.937 187.76
L301.16 184.264
L302.383 181.924
L303.606 171.722
L304.829 165.687
L306.052 188.902
L307.275 115.872
L308.498 140.995
L309.721 177.594
L310.944 153.395
L312.167 182.913
L313.39 181.861
L314.613 183.317
L315.836 186.338
L317.059 189.711
L318.282 190.43
L319.505 179.826
L320.728 186.364
L321.951 186.24
L323.174 188.76
L324.397 185.347
L325.62 186.602
L326.843 183.838
L328.066 178.855
L329.289 184.972
L330.512 182.861
L331.735 189.545
L332.958 188.846
L334.181 180.646
L335.404 184.535
L336.627 189.84
L337.85 190.288
L339.073 186.352
L340.296 191.299
L341.519 190.365
L342.742 186.819
L343.965 184.673
L345.188 188.468
L346.411 178.707
L347.634 176.192
L348.857 185.734
L350.08 186.674
L351.303 165.185
L352.526 187.524
L353.749 188.981
L354.972 182.981
L356.195 189.81
L357.419 178.087
L358.642 183.715
L359.865 190.714
L361.088 183.585
L362.311 190.474
L363.534 176.224
L364.757 182.455
L365.98 187.484
L367.203 188.555
L368.426 186.016
L369.649 189.867
L370.872 189.982
L372.095 190.454
L373.318 185.506
L374.541 161.645
L375.764 185.269
L376.987 185.466
L378.21 188.047
L379.433 189.748
L380.656 180.827
L381.879 189.288
L383.102 186.402
L384.325 190.257
L385.548 189.503
L386.771 186.991
L387.994 188.861
L389.217 192.046
L391.663 176.244
L392.886 189.86
L394.109 189.998
L395.332 190.412
L396.555 192.551
L399.001 188.618
L400.224 182.996
L401.447 186.494
L402.67 179.217
L403.893 184.879
L405.116 187.668
L406.339 192.907
L407.562 193.807
L408.785 193.083
L410.008 191.875
L411.231 192.368
L412.454 193.56
L413.677 192.927
L416.123 185.512
L417.346 190.244
L418.569 186.873
L419.792 159.154
L421.015 193.517
L422.238 191.354
L423.461 192.45
L424.684 172.418
L425.907 194.714
L427.13 192.544
L428.353 196.374
L429.576 196.905
L430.799 196.549
L432.022 194.912
L433.245 195.231
M435.691 183.268
L436.914 189.521
L438.137 163.695
L439.36 189.175
L440.583 193.688
L441.806 192.063
L443.029 193.346
L444.252 192.25
L445.475 188.895
L446.699 193.413
L447.922 188.954
L449.145 196.737
L450.368 196.69
L451.591 196.356
L452.814 200.722
M455.26 195.887
L456.483 186.201
L457.706 192.631
M460.152 191.594
L461.375 165.693
L462.598 76.0491
L463.821 157.363
L465.044 195.525
L466.267 178.589
L467.49 194.965
L468.713 195.812
L469.936 195.373
L471.159 191.086
L472.382 168.789
L473.605 175.082
L474.828 175.672
L476.051 188.162
L477.274 93.0078
L478.497 194.397
L479.72 176.553
L480.943 191.658
L482.166 195.695
L483.389 196.223
L484.612 199.475
L485.835 196.72
L487.058 196.142
L488.281 195.906
L489.504 196.067
L490.727 195.941
L491.95 196.697
L493.173 200.306
L494.396 197.29
L495.619 238.631
M499.288 200.418
L500.511 184.344
L501.734 185.965
L502.957 201.402
L504.18 202.24
L504.969 409.169
M505.831 409.169
L506.626 197.583
L507.849 197.223
L509.072 197.348
L510.295 198.489
L511.518 196.98
L511.518 196.98" style="fill:none;stroke:#ff0000;stroke-linecap:square;"/>
   </g>
   <g id="line2d_4">
    <path clip-path="url(#p747ad1be57)" d="
M66.3413 197.373
L67.5643 197.354
L68.7873 195.419
L70.0103 196.074
L71.2333 196.955
L72.4563 196.201
L73.6793 196.69
L74.9023 196.356
L76.1254 208.657
M83.4634 197.033
L84.6865 197.749
L85.9095 195.864
L87.1325 195.252
L88.3555 194.919
L89.5785 194.036
L90.8015 194.912
L92.0245 189.843
L93.2476 173.717
L94.4706 195.867
L95.6936 194.723
L96.9166 195.374
M103.032 195.997
L105.478 195.648
L106.701 195.707
L107.924 194.79
L109.147 193.301
L110.37 196.248
L111.593 196.665
L112.816 196.608
L114.039 208.205
L115.262 199.825
L116.485 196.613
L117.708 197.211
L118.931 195.767
L120.154 196.231
L121.377 194.711
L122.6 191.531
L123.823 197.563
L125.046 200.378
L126.269 198.381
L127.492 201.463
L128.715 200.672
L129.938 196.643
L131.161 207.414
L132.384 196.893
L133.607 199.319
L136.053 195.75
L137.276 195.661
L138.499 194.45
L139.722 189.016
L140.945 171.351
L142.168 194.162
L143.391 137.16
L144.614 153.951
L145.837 195.555
L147.06 194.347
L148.283 192.574
L149.506 191.095
L150.729 189.265
L151.952 193.858
L153.175 193.059
L154.398 189.94
L155.621 185.197
L156.844 191.442
L158.067 204.332
L159.29 194.306
L160.513 190.807
L161.736 177.254
L162.959 206.026
L164.182 205.464
L165.405 196.902
L166.628 195.714
L167.851 190.208
L169.074 195.554
L170.297 190.684
L171.52 192.408
L172.743 193.595
L173.966 188.252
L175.189 192.685
L176.412 188.662
L177.635 187.964
L178.859 192.337
L180.082 185.144
L181.305 188.092
L182.528 193.961
L183.751 192.682
L184.974 190.419
L186.197 179.316
L187.42 188.655
L188.643 192.766
L189.866 192.876
L191.089 173.962
L192.312 195.785
L193.535 195.367
L194.758 193.955
L195.981 191.951
L197.204 193.089
L198.427 193.313
L199.65 185.201
L200.873 189.269
L202.096 190.847
L203.319 194.425
L204.542 191.733
L206.988 191.539
L208.211 183.08
L209.434 170.77
L210.657 135.987
L211.88 187.937
L213.103 190.845
L214.326 191.231
L215.549 187.828
L216.772 181.847
L217.995 172.31
L219.218 184.92
L220.441 187.513
L221.664 184.261
L222.887 190.206
L224.11 190.805
L225.333 190.722
L226.556 185.24
L227.779 157.062
L229.002 185.073
L230.225 191.018
L231.448 191.317
L232.671 193.9
L233.894 186.131
L235.117 188.762
L236.34 189.929
L237.454 -1
M237.674 -1
L238.786 186.108
L240.009 183.727
L241.232 189.891
L242.455 187.188
L243.678 192.421
L244.901 194.067
L246.124 191.986
L247.347 191.721
L249.793 188.583
L251.016 191.296
L252.239 176.925
L253.462 186.955
L254.685 187.772
L255.908 188.129
L257.131 190.508
L258.354 167.05
L259.577 184.709
L260.8 184.759
L262.023 176.26
L263.246 185.4
L264.469 185.442
L265.692 185.127
L266.915 186.032
L268.139 189.255
L269.362 191.904
L270.585 189.091
L271.808 168.857
L273.031 184.486
L274.254 194.095
L275.477 191.092
L276.7 190.728
L277.923 189.009
L279.146 192.514
L280.369 192.927
L281.592 190.895
L282.815 189.988
L284.038 186.927
L285.261 180.558
L286.484 188.535
L287.707 172.196
L288.93 186.985
L290.153 175.472
L291.376 184.014
L292.599 184.03
L293.822 189.041
L295.045 186.015
L296.268 189.265
L297.491 188.628
L298.714 182.426
L299.937 184.385
L301.16 170.831
L302.383 185.121
L303.606 187.856
L304.829 185.414
L306.052 145.248
L307.275 179.988
L308.498 189.213
L309.721 185.372
L310.944 183.173
L312.167 187.457
L313.39 177.453
L314.613 186.077
L315.836 188.902
L317.059 183.138
L318.282 189.136
L319.505 185.561
L320.728 185.731
L321.951 183.883
L323.174 188.666
L324.397 185.774
L325.62 178.391
L326.843 187.761
L328.066 188.149
L329.289 187.281
L330.512 186.237
L331.735 185.852
L332.958 184.103
L334.181 163.183
L335.404 181.96
L336.627 181.356
L337.85 185.948
L339.073 186.538
L340.296 186.222
L341.519 182.578
L342.742 188.287
L343.965 188.386
L346.411 185.682
L347.634 187.386
L348.857 186.56
L350.08 190.888
L351.303 181.914
L352.526 190.145
L353.749 176
L354.972 154.286
L356.195 190.628
L357.419 178.756
L358.642 173.103
L359.865 176.875
L361.088 178.145
L362.311 188.523
L363.534 187.113
L364.757 179.312
L365.98 167.346
L367.203 158.974
L368.426 129
L369.649 180.216
L370.872 189.878
L372.095 187.61
L373.318 180.797
L374.541 189.226
L375.764 181.143
L376.987 179.038
L378.21 191.294
L379.433 186.952
L380.656 100.799
L381.879 184.703
L383.102 178.382
L384.325 183.961
L385.548 187.519
L386.538 -1
M387.009 -1
L387.994 182.769
L389.217 179.666
L390.44 175.742
L391.663 190.142
L392.886 195.184
L394.109 195.561
L395.332 192.701
L396.555 184.425
L397.778 186.585
L399.001 156.8
L400.224 192.965
L401.447 194.781
L402.67 193.096
L403.893 193.145
L405.116 193.479
L406.339 173.316
L407.562 184.531
L408.785 193.294
L410.008 192.792
L411.231 191.769
L412.454 193.775
L413.677 193.275
L414.9 190.654
L416.123 192.034
L417.346 192.926
L418.569 192.784
L419.792 189.798
L421.015 193.352
L422.238 188.5
L423.461 188.833
L424.684 193.514
L425.907 193.771
L427.13 193.469
L428.353 192.568
L429.576 193.52
L430.799 193.15
L432.022 188.063
L433.245 192.679
L434.468 195.327
L435.691 195.69
L436.914 194.297
L438.137 194.138
L439.36 158.246
L440.583 201.848
L441.806 197.451
L443.029 196.242
L444.252 194.723
L445.475 165.674
L446.699 195.201
L447.922 192.879
L449.145 187.109
L450.368 188.879
L451.591 175.878
L452.814 192.345
L455.26 196.645
L456.483 204.38
L457.706 195.439
L458.929 191.884
L460.152 194.667
L461.375 195.306
L462.598 196.187
L463.821 195.966
L465.044 195.109
L466.267 193.98
L467.49 193.585
L468.713 183.776
L469.936 183.929
L471.159 194.651
L472.382 194.671
L473.605 195.229
L474.828 188.071
L476.051 114.183
L477.274 199.843
L478.497 196.729
L479.72 196.734
L480.943 223.512
L482.166 200.576
L483.389 201.402
L484.612 200.309
L487.058 197.018
L488.281 194.639
L489.504 196.123
L490.727 195.786
L491.95 194.837
L493.173 194.822
L494.396 190.068
L495.619 194.681
L496.842 198.834
L498.065 198.901
L500.511 196.145
L501.734 195.641
L502.957 197.05
L504.18 194.948
L505.403 195.353
L506.626 190.975
L507.849 195.794
L509.072 196.33
L510.295 195.254
L511.518 194.421
L511.518 194.421" style="fill:none;stroke:#00bfbf;stroke-linecap:square;"/>
   </g>
   <g id="line2d_5">
    <path clip-path="url(#p747ad1be57)" d="
M66.3413 194.628
L67.5643 188.22
L67.7063 -1
M69.6402 -1
L69.8831 409.169
M70.6472 409.169
L71.2333 211.439
L72.4563 179.845
L73.6793 196.566
L74.9023 196.373
L76.1254 196.531
L76.474 -1
M78.648 -1
L78.653 409.169
M82.2329 409.169
L82.2404 159.444
L83.4634 94.5072
L84.6865 182.542
L85.9095 145.884
L87.1325 187.607
L88.3555 63.9353
L89.5785 71.0511
L90.8015 175.076
L92.0245 178.235
L93.2476 194.368
L94.4706 193.571
L95.6936 169.551
L96.9166 82.7743
L98.1396 131.913
L99.3626 194.2
L100.425 -1
M100.651 -1
L101.556 409.169
M102.288 409.169
L103.032 231.758
L104.255 203.707
L105.478 215.346
L106.701 280.886
L107.924 212.218
L109.147 197.06
L110.316 409.169
M112.647 409.169
L112.816 269.737
L114.039 20.4173
L115.262 188.46
L116.485 195.915
L116.798 -1
M124.797 -1
L125.046 122.455
L125.05 -1
M127.477 -1
L127.49 409.169
M127.752 409.169
L128.715 195.369
L128.881 409.169
M130.82 409.169
L131.086 -1
M131.731 -1
L132.384 132.226
L133.607 149.959
L134.83 155.52
L135.852 -1
M136.302 -1
L137.276 119.906
L138.499 188.167
L139.722 193.349
L140.945 141.884
L142.12 -1
M145.827 -1
L145.837 150.632
L145.966 -1
M150.695 -1
L150.729 194.359
L151.952 188.98
L153.175 179.908
L154.398 13.2569
L155.621 160.174
L156.844 160.362
L156.846 -1
M159.288 -1
L159.29 194.57
L160.513 183.895
L160.693 -1
M162.785 -1
L162.959 176.969
L164.182 177.205
L165.405 168.945
L166.628 162.112
L166.678 -1
M169.024 -1
L169.074 164.466
L170.239 409.169
M170.321 409.169
L171.109 -1
M172.241 -1
L172.743 148.445
L173.966 191.408
L174.738 -1
M175.63 -1
L176.412 199.319
L177.635 193.168
L178.859 182.533
L180.082 99.6652
L181.305 65.6421
L181.314 -1
M183.726 -1
L183.751 171.004
L184.974 174.087
L185.826 -1
M187.783 -1
L188.643 157.057
L188.902 -1
M191.994 -1
L192.312 159.451
L192.627 -1
M194.434 -1
L194.758 165.265
L194.851 -1
M199.096 -1
L199.65 68.7387
L199.978 -1
M202.988 -1
L203.319 167.908
L204.542 143.714
L205.765 184.078
L206.988 108.134
L208.211 107.597
L209.434 137.015
L210.657 75.0949
L211.88 153.083
L213.103 167.344
L214.326 101.903
L215.177 -1
M221.609 -1
L221.664 138.165
L221.664 138.165
L221.664 138.165
L221.681 -1
M224.098 -1
L224.11 97.9304
L224.658 -1
M228.458 -1
L229.002 169.523
L230.225 167.284
L231.448 119.557
L232.671 90.011
L232.756 -1
M234.998 -1
L235.117 131.451
L236.34 127.811
L237.491 -1
M239.457 -1
L240.009 69.7101
L240.048 -1
M242.373 -1
L242.455 153.497
L243.678 15.0791
L244.901 139.679
L245.164 -1
M247.189 -1
L247.347 75.4703
L248.57 101.187
L249.175 -1
M250.41 -1
L251.016 101.755
L252.239 131.87
L252.674 -1
M257.928 -1
L258.354 116.864
L259.28 -1
M259.979 -1
L260.8 76.4077
L260.943 -1
M262.982 -1
L263.246 160.987
L263.32 -1
M266.868 -1
L266.915 128.498
L268.139 166.1
L268.866 -1
M270.031 -1
L270.585 93.0575
L271.808 175.285
L273.031 130.726
L274.477 -1
M276.618 -1
L276.7 6.24642
L277.923 76.5119
L279.146 18.3256
L280.369 84.3851
L281.592 16.021
L281.781 -1
M285.846 -1
L286.484 134.946
L287.066 -1
M290.061 -1
L290.153 150.482
L291.376 140.797
L292.599 106.154
L293.822 138.061
L295.045 22.9365
L296.268 49.2668
L297.491 31.0794
L298.714 122.171
L299.937 57.5395
L301.16 87.4829
L302.383 29.8014
L302.408 -1
M306.051 -1
L306.052 0.111543
L307.275 102.525
L307.816 -1
M311.241 -1
L312.167 138.727
L313.39 125.389
L313.468 -1
M316.942 -1
L317.059 42.0694
L318.282 128.428
L319.505 130.059
L319.643 -1
M321.862 -1
L321.951 80.5085
L323.113 -1
M324.825 -1
L325.62 171.012
L326.843 19.3753
L327.78 -1
M330.47 -1
L330.512 34.5033
L331.294 -1
M331.872 -1
L332.958 158.304
L334.181 164.313
L335.404 70.7343
L336.627 94.3249
L337.85 23.4622
L337.863 -1
M341.43 -1
L341.519 124.961
L342.742 107.425
L343.965 41.4822
L345.188 142.112
L346.411 124.017
L347.546 -1
M347.716 -1
L348.857 134.729
L350.08 113.742
L351.303 54.7545
L352.526 43.0041
L353.749 172.243
L354.972 79.4441
L356.195 145.393
L357.419 149.342
L358.642 125.124
L359.865 141.06
L360.448 -1
M362.049 -1
L362.311 41.4127
L363.534 111.862
L364.757 139.628
L364.829 -1
M367.117 -1
L367.203 168.237
L368.426 141.053
L369.398 -1
M369.935 -1
L370.872 118.603
L372.095 165.285
L372.191 -1
M375.389 -1
L375.764 115.01
L376.323 -1
M377.54 -1
L378.21 165.56
L379.433 170.476
L380.656 155.923
M389.094 -1
L389.217 142.749
L389.672 -1
M394.107 -1
L394.109 22.0218
L395.332 157.145
L396.555 171.639
L397.778 85.1626
L397.922 -1
M400.088 -1
L400.224 80.247
L401.447 151.336
L402.67 183.469
L403.893 148.319
L405.116 139.998
L406.339 107.298
L407.562 145.076
L408.785 141.737
L410.008 133.631
L411.231 83.4462
L412.454 2.11995
L413.677 93.9061
L413.82 -1
M418.133 -1
L418.569 141.163
L418.67 -1
M420.907 -1
L421.015 152.567
L421.164 -1
M424.659 -1
L424.684 40.4189
L424.684 40.4189
L424.684 40.4189
L424.714 -1
M431.953 -1
L432.022 192.522
L433.245 16.6116
L434.468 185.25
L434.477 -1
M438.033 -1
L438.137 163.246
L439.36 196.084
L440.583 195.491
L441.806 160.461
L443.029 148.02
L443.055 -1
M445.459 -1
L445.475 93.9806
L446.699 170.059
L447.052 -1
M448.699 -1
L449.145 240.551
L450.368 199.896
L451.591 245.717
L451.686 409.169
M453.988 409.169
L454.037 329.748
L455.26 201.006
L456.483 221.475
L457.706 195.793
L458.929 191.569
L460.152 165.773
L461.375 192.806
L462.598 147.483
L462.633 -1
M464.971 -1
L465.044 314.495
L466.267 190.154
L466.268 -1
M468.713 -1
L468.713 13.983
L469.936 156.544
L471.159 102.953
L471.163 -1
M473.595 -1
L473.605 258.563
L474.828 231.882
L476.051 184.577
L476.247 -1
M478.31 -1
L478.497 173.903
L479.106 -1
M489.504 -1
L489.504 196.098
L493.173 196.087
L494.396 194.819
L495.619 203.397
L496.842 245.574
L498.065 198.817
L498.562 -1
M500.018 -1
L500.511 196.054
L501.734 196.144
L502.957 211.181
L504.18 331.643
L505.403 213.037
L506.626 215.082
L507.849 377.363
L509.072 201.93
L510.295 198.284
L511.518 196.716
L511.518 196.716" style="fill:none;stroke:#bf00bf;stroke-linecap:square;"/>
   </g>
   <g id="patch_3">
    <path d="
M66.3413 23.1417
L512.741 23.1417" style="fill:none;stroke:#000000;stroke-linecap:square;stroke-linejoin:miter;"/>
   </g>
   <g id="patch_4">
    <path d="
M512.741 368.742
L512.741 23.1417" style="fill:none;stroke:#000000;stroke-linecap:square;stroke-linejoin:miter;"/>
   </g>
   <g id="patch_5">
    <path d="
M66.3413 368.742
L512.741 368.742" style="fill:none;stroke:#000000;stroke-linecap:square;stroke-linejoin:miter;"/>
   </g>
   <g id="patch_6">
    <path d="
M66.3413 368.742
L66.3413 23.1417" style="fill:none;stroke:#000000;stroke-linecap:square;stroke-linejoin:miter;"/>
   </g>
   <g id="matplotlib.axis_1">
    <g id="xtick_1">
     <g id="line2d_6">
      <defs>
       <path d="
M0 0
L0 -4" id="m93b0483c22" style="stroke:#000000;stroke-width:0.5;"/>
      </defs>
      <g>
       <use style="stroke:#000000;stroke-width:0.5;" x="66.34125" xlink:href="#m93b0483c22" y="368.74175"/>
      </g>
     </g>
     <g id="line2d_7">
      <defs>
       <path d="
M0 0
L0 4" id="m741efc42ff" style="stroke:#000000;stroke-width:0.5;"/>
      </defs>
      <g>
       <use style="stroke:#000000;stroke-width:0.5;" x="66.34125" xlink:href="#m741efc42ff" y="23.14175"/>
      </g>
     </g>
     <g id="text_1">
      <!-- 0 -->
      <defs>
       <path d="
M31.7812 66.4062
Q24.1719 66.4062 20.3281 58.9062
Q16.5 51.4219 16.5 36.375
Q16.5 21.3906 20.3281 13.8906
Q24.1719 6.39062 31.7812 6.39062
Q39.4531 6.39062 43.2812 13.8906
Q47.125 21.3906 47.125 36.375
Q47.125 51.4219 43.2812 58.9062
Q39.4531 66.4062 31.7812 66.4062
M31.7812 74.2188
Q44.0469 74.2188 50.5156 64.5156
Q56.9844 54.8281 56.9844 36.375
Q56.9844 17.9688 50.5156 8.26562
Q44.0469 -1.42188 31.7812 -1.42188
Q19.5312 -1.42188 13.0625 8.26562
Q6.59375 17.9688 6.59375 36.375
Q6.59375 54.8281 13.0625 64.5156
Q19.5312 74.2188 31.7812 74.2188" id="BitstreamVeraSans-Roman-30"/>
      </defs>
      <g transform="translate(63.3178125 381.859875)scale(0.12 -0.12)">
       <use xlink:href="#BitstreamVeraSans-Roman-30"/>
      </g>
     </g>
    </g>
    <g id="xtick_2">
     <g id="line2d_8">
      <g>
       <use style="stroke:#000000;stroke-width:0.5;" x="127.491934932" xlink:href="#m93b0483c22" y="368.74175"/>
      </g>
     </g>
     <g id="line2d_9">
      <g>
       <use style="stroke:#000000;stroke-width:0.5;" x="127.491934932" xlink:href="#m741efc42ff" y="23.14175"/>
      </g>
     </g>
     <g id="text_2">
      <!-- 50 -->
      <defs>
       <path d="
M10.7969 72.9062
L49.5156 72.9062
L49.5156 64.5938
L19.8281 64.5938
L19.8281 46.7344
Q21.9688 47.4688 24.1094 47.8281
Q26.2656 48.1875 28.4219 48.1875
Q40.625 48.1875 47.75 41.5
Q54.8906 34.8125 54.8906 23.3906
Q54.8906 11.625 47.5625 5.09375
Q40.2344 -1.42188 26.9062 -1.42188
Q22.3125 -1.42188 17.5469 -0.640625
Q12.7969 0.140625 7.71875 1.70312
L7.71875 11.625
Q12.1094 9.23438 16.7969 8.0625
Q21.4844 6.89062 26.7031 6.89062
Q35.1562 6.89062 40.0781 11.3281
Q45.0156 15.7656 45.0156 23.3906
Q45.0156 31 40.0781 35.4375
Q35.1562 39.8906 26.7031 39.8906
Q22.75 39.8906 18.8125 39.0156
Q14.8906 38.1406 10.7969 36.2812
z
" id="BitstreamVeraSans-Roman-35"/>
      </defs>
      <g transform="translate(120.718497432 381.859875)scale(0.12 -0.12)">
       <use xlink:href="#BitstreamVeraSans-Roman-35"/>
       <use x="63.623046875" xlink:href="#BitstreamVeraSans-Roman-30"/>
      </g>
     </g>
    </g>
    <g id="xtick_3">
     <g id="line2d_10">
      <g>
       <use style="stroke:#000000;stroke-width:0.5;" x="188.642619863" xlink:href="#m93b0483c22" y="368.74175"/>
      </g>
     </g>
     <g id="line2d_11">
      <g>
       <use style="stroke:#000000;stroke-width:0.5;" x="188.642619863" xlink:href="#m741efc42ff" y="23.14175"/>
      </g>
     </g>
     <g id="text_3">
      <!-- 100 -->
      <defs>
       <path d="
M12.4062 8.29688
L28.5156 8.29688
L28.5156 63.9219
L10.9844 60.4062
L10.9844 69.3906
L28.4219 72.9062
L38.2812 72.9062
L38.2812 8.29688
L54.3906 8.29688
L54.3906 0
L12.4062 0
z
" id="BitstreamVeraSans-Roman-31"/>
      </defs>
      <g transform="translate(178.247619863 381.859875)scale(0.12 -0.12)">
       <use xlink:href="#BitstreamVeraSans-Roman-31"/>
       <use x="63.623046875" xlink:href="#BitstreamVeraSans-Roman-30"/>
       <use x="127.24609375" xlink:href="#BitstreamVeraSans-Roman-30"/>
      </g>
     </g>
    </g>
    <g id="xtick_4">
     <g id="line2d_12">
      <g>
       <use style="stroke:#000000;stroke-width:0.5;" x="249.793304795" xlink:href="#m93b0483c22" y="368.74175"/>
      </g>
     </g>
     <g id="line2d_13">
      <g>
       <use style="stroke:#000000;stroke-width:0.5;" x="249.793304795" xlink:href="#m741efc42ff" y="23.14175"/>
      </g>
     </g>
     <g id="text_4">
      <!-- 150 -->
      <g transform="translate(239.398304795 381.859875)scale(0.12 -0.12)">
       <use xlink:href="#BitstreamVeraSans-Roman-31"/>
       <use x="63.623046875" xlink:href="#BitstreamVeraSans-Roman-35"/>
       <use x="127.24609375" xlink:href="#BitstreamVeraSans-Roman-30"/>
      </g>
     </g>
    </g>
    <g id="xtick_5">
     <g id="line2d_14">
      <g>
       <use style="stroke:#000000;stroke-width:0.5;" x="310.943989726" xlink:href="#m93b0483c22" y="368.74175"/>
      </g>
     </g>
     <g id="line2d_15">
      <g>
       <use style="stroke:#000000;stroke-width:0.5;" x="310.943989726" xlink:href="#m741efc42ff" y="23.14175"/>
      </g>
     </g>
     <g id="text_5">
      <!-- 200 -->
      <defs>
       <path d="
M19.1875 8.29688
L53.6094 8.29688
L53.6094 0
L7.32812 0
L7.32812 8.29688
Q12.9375 14.1094 22.625 23.8906
Q32.3281 33.6875 34.8125 36.5312
Q39.5469 41.8438 41.4219 45.5312
Q43.3125 49.2188 43.3125 52.7812
Q43.3125 58.5938 39.2344 62.25
Q35.1562 65.9219 28.6094 65.9219
Q23.9688 65.9219 18.8125 64.3125
Q13.6719 62.7031 7.8125 59.4219
L7.8125 69.3906
Q13.7656 71.7812 18.9375 73
Q24.125 74.2188 28.4219 74.2188
Q39.75 74.2188 46.4844 68.5469
Q53.2188 62.8906 53.2188 53.4219
Q53.2188 48.9219 51.5312 44.8906
Q49.8594 40.875 45.4062 35.4062
Q44.1875 33.9844 37.6406 27.2188
Q31.1094 20.4531 19.1875 8.29688" id="BitstreamVeraSans-Roman-32"/>
      </defs>
      <g transform="translate(300.329614726 381.859875)scale(0.12 -0.12)">
       <use xlink:href="#BitstreamVeraSans-Roman-32"/>
       <use x="63.623046875" xlink:href="#BitstreamVeraSans-Roman-30"/>
       <use x="127.24609375" xlink:href="#BitstreamVeraSans-Roman-30"/>
      </g>
     </g>
    </g>
    <g id="xtick_6">
     <g id="line2d_16">
      <g>
       <use style="stroke:#000000;stroke-width:0.5;" x="372.094674658" xlink:href="#m93b0483c22" y="368.74175"/>
      </g>
     </g>
     <g id="line2d_17">
      <g>
       <use style="stroke:#000000;stroke-width:0.5;" x="372.094674658" xlink:href="#m741efc42ff" y="23.14175"/>
      </g>
     </g>
     <g id="text_6">
      <!-- 250 -->
      <g transform="translate(361.480299658 381.859875)scale(0.12 -0.12)">
       <use xlink:href="#BitstreamVeraSans-Roman-32"/>
       <use x="63.623046875" xlink:href="#BitstreamVeraSans-Roman-35"/>
       <use x="127.24609375" xlink:href="#BitstreamVeraSans-Roman-30"/>
      </g>
     </g>
    </g>
    <g id="xtick_7">
     <g id="line2d_18">
      <g>
       <use style="stroke:#000000;stroke-width:0.5;" x="433.245359589" xlink:href="#m93b0483c22" y="368.74175"/>
      </g>
     </g>
     <g id="line2d_19">
      <g>
       <use style="stroke:#000000;stroke-width:0.5;" x="433.245359589" xlink:href="#m741efc42ff" y="23.14175"/>
      </g>
     </g>
     <g id="text_7">
      <!-- 300 -->
      <defs>
       <path d="
M40.5781 39.3125
Q47.6562 37.7969 51.625 33
Q55.6094 28.2188 55.6094 21.1875
Q55.6094 10.4062 48.1875 4.48438
Q40.7656 -1.42188 27.0938 -1.42188
Q22.5156 -1.42188 17.6562 -0.515625
Q12.7969 0.390625 7.625 2.20312
L7.625 11.7188
Q11.7188 9.32812 16.5938 8.10938
Q21.4844 6.89062 26.8125 6.89062
Q36.0781 6.89062 40.9375 10.5469
Q45.7969 14.2031 45.7969 21.1875
Q45.7969 27.6406 41.2812 31.2656
Q36.7656 34.9062 28.7188 34.9062
L20.2188 34.9062
L20.2188 43.0156
L29.1094 43.0156
Q36.375 43.0156 40.2344 45.9219
Q44.0938 48.8281 44.0938 54.2969
Q44.0938 59.9062 40.1094 62.9062
Q36.1406 65.9219 28.7188 65.9219
Q24.6562 65.9219 20.0156 65.0312
Q15.375 64.1562 9.8125 62.3125
L9.8125 71.0938
Q15.4375 72.6562 20.3438 73.4375
Q25.25 74.2188 29.5938 74.2188
Q40.8281 74.2188 47.3594 69.1094
Q53.9062 64.0156 53.9062 55.3281
Q53.9062 49.2656 50.4375 45.0938
Q46.9688 40.9219 40.5781 39.3125" id="BitstreamVeraSans-Roman-33"/>
      </defs>
      <g transform="translate(422.648797089 381.859875)scale(0.12 -0.12)">
       <use xlink:href="#BitstreamVeraSans-Roman-33"/>
       <use x="63.623046875" xlink:href="#BitstreamVeraSans-Roman-30"/>
       <use x="127.24609375" xlink:href="#BitstreamVeraSans-Roman-30"/>
      </g>
     </g>
    </g>
    <g id="xtick_8">
     <g id="line2d_20">
      <g>
       <use style="stroke:#000000;stroke-width:0.5;" x="494.396044521" xlink:href="#m93b0483c22" y="368.74175"/>
      </g>
     </g>
     <g id="line2d_21">
      <g>
       <use style="stroke:#000000;stroke-width:0.5;" x="494.396044521" xlink:href="#m741efc42ff" y="23.14175"/>
      </g>
     </g>
     <g id="text_8">
      <!-- 350 -->
      <g transform="translate(483.799482021 381.859875)scale(0.12 -0.12)">
       <use xlink:href="#BitstreamVeraSans-Roman-33"/>
       <use x="63.623046875" xlink:href="#BitstreamVeraSans-Roman-35"/>
       <use x="127.24609375" xlink:href="#BitstreamVeraSans-Roman-30"/>
      </g>
     </g>
    </g>
    <g id="text_9">
     <!-- Julian day -->
     <defs>
      <path id="BitstreamVeraSans-Roman-20"/>
      <path d="
M9.8125 72.9062
L19.6719 72.9062
L19.6719 5.07812
Q19.6719 -8.10938 14.6719 -14.0625
Q9.67188 -20.0156 -1.42188 -20.0156
L-5.17188 -20.0156
L-5.17188 -11.7188
L-2.09375 -11.7188
Q4.4375 -11.7188 7.125 -8.04688
Q9.8125 -4.39062 9.8125 5.07812
z
" id="BitstreamVeraSans-Roman-4a"/>
      <path d="
M54.8906 33.0156
L54.8906 0
L45.9062 0
L45.9062 32.7188
Q45.9062 40.4844 42.875 44.3281
Q39.8438 48.1875 33.7969 48.1875
Q26.5156 48.1875 22.3125 43.5469
Q18.1094 38.9219 18.1094 30.9062
L18.1094 0
L9.07812 0
L9.07812 54.6875
L18.1094 54.6875
L18.1094 46.1875
Q21.3438 51.125 25.7031 53.5625
Q30.0781 56 35.7969 56
Q45.2188 56 50.0469 50.1719
Q54.8906 44.3438 54.8906 33.0156" id="BitstreamVeraSans-Roman-6e"/>
      <path d="
M9.42188 75.9844
L18.4062 75.9844
L18.4062 0
L9.42188 0
z
" id="BitstreamVeraSans-Roman-6c"/>
      <path d="
M9.42188 54.6875
L18.4062 54.6875
L18.4062 0
L9.42188 0
z

M9.42188 75.9844
L18.4062 75.9844
L18.4062 64.5938
L9.42188 64.5938
z
" id="BitstreamVeraSans-Roman-69"/>
      <path d="
M32.1719 -5.07812
Q28.375 -14.8438 24.75 -17.8125
Q21.1406 -20.7969 15.0938 -20.7969
L7.90625 -20.7969
L7.90625 -13.2812
L13.1875 -13.2812
Q16.8906 -13.2812 18.9375 -11.5156
Q21 -9.76562 23.4844 -3.21875
L25.0938 0.875
L2.98438 54.6875
L12.5 54.6875
L29.5938 11.9219
L46.6875 54.6875
L56.2031 54.6875
z
" id="BitstreamVeraSans-Roman-79"/>
      <path d="
M45.4062 46.3906
L45.4062 75.9844
L54.3906 75.9844
L54.3906 0
L45.4062 0
L45.4062 8.20312
Q42.5781 3.32812 38.25 0.953125
Q33.9375 -1.42188 27.875 -1.42188
Q17.9688 -1.42188 11.7344 6.48438
Q5.51562 14.4062 5.51562 27.2969
Q5.51562 40.1875 11.7344 48.0938
Q17.9688 56 27.875 56
Q33.9375 56 38.25 53.625
Q42.5781 51.2656 45.4062 46.3906
M14.7969 27.2969
Q14.7969 17.3906 18.875 11.75
Q22.9531 6.10938 30.0781 6.10938
Q37.2031 6.10938 41.2969 11.75
Q45.4062 17.3906 45.4062 27.2969
Q45.4062 37.2031 41.2969 42.8438
Q37.2031 48.4844 30.0781 48.4844
Q22.9531 48.4844 18.875 42.8438
Q14.7969 37.2031 14.7969 27.2969" id="BitstreamVeraSans-Roman-64"/>
      <path d="
M8.5 21.5781
L8.5 54.6875
L17.4844 54.6875
L17.4844 21.9219
Q17.4844 14.1562 20.5 10.2656
Q23.5312 6.39062 29.5938 6.39062
Q36.8594 6.39062 41.0781 11.0312
Q45.3125 15.6719 45.3125 23.6875
L45.3125 54.6875
L54.2969 54.6875
L54.2969 0
L45.3125 0
L45.3125 8.40625
Q42.0469 3.42188 37.7188 1
Q33.4062 -1.42188 27.6875 -1.42188
Q18.2656 -1.42188 13.375 4.4375
Q8.5 10.2969 8.5 21.5781" id="BitstreamVeraSans-Roman-75"/>
      <path d="
M34.2812 27.4844
Q23.3906 27.4844 19.1875 25
Q14.9844 22.5156 14.9844 16.5
Q14.9844 11.7188 18.1406 8.90625
Q21.2969 6.10938 26.7031 6.10938
Q34.1875 6.10938 38.7031 11.4062
Q43.2188 16.7031 43.2188 25.4844
L43.2188 27.4844
z

M52.2031 31.2031
L52.2031 0
L43.2188 0
L43.2188 8.29688
Q40.1406 3.32812 35.5469 0.953125
Q30.9531 -1.42188 24.3125 -1.42188
Q15.9219 -1.42188 10.9531 3.29688
Q6 8.01562 6 15.9219
Q6 25.1406 12.1719 29.8281
Q18.3594 34.5156 30.6094 34.5156
L43.2188 34.5156
L43.2188 35.4062
Q43.2188 41.6094 39.1406 45
Q35.0625 48.3906 27.6875 48.3906
Q23 48.3906 18.5469 47.2656
Q14.1094 46.1406 10.0156 43.8906
L10.0156 52.2031
Q14.9375 54.1094 19.5781 55.0469
Q24.2188 56 28.6094 56
Q40.4844 56 46.3438 49.8438
Q52.2031 43.7031 52.2031 31.2031" id="BitstreamVeraSans-Roman-61"/>
     </defs>
     <g transform="translate(260.0803125 398.473625)scale(0.12 -0.12)">
      <use xlink:href="#BitstreamVeraSans-Roman-4a"/>
      <use x="29.4921875" xlink:href="#BitstreamVeraSans-Roman-75"/>
      <use x="92.87109375" xlink:href="#BitstreamVeraSans-Roman-6c"/>
      <use x="120.654296875" xlink:href="#BitstreamVeraSans-Roman-69"/>
      <use x="148.4375" xlink:href="#BitstreamVeraSans-Roman-61"/>
      <use x="209.716796875" xlink:href="#BitstreamVeraSans-Roman-6e"/>
      <use x="273.095703125" xlink:href="#BitstreamVeraSans-Roman-20"/>
      <use x="304.8828125" xlink:href="#BitstreamVeraSans-Roman-64"/>
      <use x="368.359375" xlink:href="#BitstreamVeraSans-Roman-61"/>
      <use x="429.638671875" xlink:href="#BitstreamVeraSans-Roman-79"/>
     </g>
    </g>
   </g>
   <g id="matplotlib.axis_2">
    <g id="ytick_1">
     <g id="line2d_22">
      <defs>
       <path d="
M0 0
L4 0" id="m728421d6d4" style="stroke:#000000;stroke-width:0.5;"/>
      </defs>
      <g>
       <use style="stroke:#000000;stroke-width:0.5;" x="66.34125" xlink:href="#m728421d6d4" y="368.74175"/>
      </g>
     </g>
     <g id="line2d_23">
      <defs>
       <path d="
M0 0
L-4 0" id="mcb0005524f" style="stroke:#000000;stroke-width:0.5;"/>
      </defs>
      <g>
       <use style="stroke:#000000;stroke-width:0.5;" x="512.74125" xlink:href="#mcb0005524f" y="368.74175"/>
      </g>
     </g>
     <g id="text_10">
      <!-- −1000 -->
      <defs>
       <path d="
M10.5938 35.5
L73.1875 35.5
L73.1875 27.2031
L10.5938 27.2031
z
" id="BitstreamVeraSans-Roman-2212"/>
      </defs>
      <g transform="translate(23.81375 372.053)scale(0.12 -0.12)">
       <use xlink:href="#BitstreamVeraSans-Roman-2212"/>
       <use x="83.7890625" xlink:href="#BitstreamVeraSans-Roman-31"/>
       <use x="147.412109375" xlink:href="#BitstreamVeraSans-Roman-30"/>
       <use x="211.03515625" xlink:href="#BitstreamVeraSans-Roman-30"/>
       <use x="274.658203125" xlink:href="#BitstreamVeraSans-Roman-30"/>
      </g>
     </g>
    </g>
    <g id="ytick_2">
     <g id="line2d_24">
      <g>
       <use style="stroke:#000000;stroke-width:0.5;" x="66.34125" xlink:href="#m728421d6d4" y="282.34175"/>
      </g>
     </g>
     <g id="line2d_25">
      <g>
       <use style="stroke:#000000;stroke-width:0.5;" x="512.74125" xlink:href="#mcb0005524f" y="282.34175"/>
      </g>
     </g>
     <g id="text_11">
      <!-- −500 -->
      <g transform="translate(31.44875 285.653)scale(0.12 -0.12)">
       <use xlink:href="#BitstreamVeraSans-Roman-2212"/>
       <use x="83.7890625" xlink:href="#BitstreamVeraSans-Roman-35"/>
       <use x="147.412109375" xlink:href="#BitstreamVeraSans-Roman-30"/>
       <use x="211.03515625" xlink:href="#BitstreamVeraSans-Roman-30"/>
      </g>
     </g>
    </g>
    <g id="ytick_3">
     <g id="line2d_26">
      <g>
       <use style="stroke:#000000;stroke-width:0.5;" x="66.34125" xlink:href="#m728421d6d4" y="195.94175"/>
      </g>
     </g>
     <g id="line2d_27">
      <g>
       <use style="stroke:#000000;stroke-width:0.5;" x="512.74125" xlink:href="#mcb0005524f" y="195.94175"/>
      </g>
     </g>
     <g id="text_12">
      <!-- 0 -->
      <g transform="translate(56.294375 199.253)scale(0.12 -0.12)">
       <use xlink:href="#BitstreamVeraSans-Roman-30"/>
      </g>
     </g>
    </g>
    <g id="ytick_4">
     <g id="line2d_28">
      <g>
       <use style="stroke:#000000;stroke-width:0.5;" x="66.34125" xlink:href="#m728421d6d4" y="109.54175"/>
      </g>
     </g>
     <g id="line2d_29">
      <g>
       <use style="stroke:#000000;stroke-width:0.5;" x="512.74125" xlink:href="#mcb0005524f" y="109.54175"/>
      </g>
     </g>
     <g id="text_13">
      <!-- 500 -->
      <g transform="translate(41.159375 112.853)scale(0.12 -0.12)">
       <use xlink:href="#BitstreamVeraSans-Roman-35"/>
       <use x="63.623046875" xlink:href="#BitstreamVeraSans-Roman-30"/>
       <use x="127.24609375" xlink:href="#BitstreamVeraSans-Roman-30"/>
      </g>
     </g>
    </g>
    <g id="ytick_5">
     <g id="line2d_30">
      <g>
       <use style="stroke:#000000;stroke-width:0.5;" x="66.34125" xlink:href="#m728421d6d4" y="23.14175"/>
      </g>
     </g>
     <g id="line2d_31">
      <g>
       <use style="stroke:#000000;stroke-width:0.5;" x="512.74125" xlink:href="#mcb0005524f" y="23.14175"/>
      </g>
     </g>
     <g id="text_14">
      <!-- 1000 -->
      <g transform="translate(33.91625 26.453)scale(0.12 -0.12)">
       <use xlink:href="#BitstreamVeraSans-Roman-31"/>
       <use x="63.623046875" xlink:href="#BitstreamVeraSans-Roman-30"/>
       <use x="127.24609375" xlink:href="#BitstreamVeraSans-Roman-30"/>
       <use x="190.869140625" xlink:href="#BitstreamVeraSans-Roman-30"/>
      </g>
     </g>
    </g>
    <g id="text_15">
     <!-- PET (mm/day) -->
     <defs>
      <path d="
M52 44.1875
Q55.375 50.25 60.0625 53.125
Q64.75 56 71.0938 56
Q79.6406 56 84.2812 50.0156
Q88.9219 44.0469 88.9219 33.0156
L88.9219 0
L79.8906 0
L79.8906 32.7188
Q79.8906 40.5781 77.0938 44.375
Q74.3125 48.1875 68.6094 48.1875
Q61.625 48.1875 57.5625 43.5469
Q53.5156 38.9219 53.5156 30.9062
L53.5156 0
L44.4844 0
L44.4844 32.7188
Q44.4844 40.625 41.7031 44.4062
Q38.9219 48.1875 33.1094 48.1875
Q26.2188 48.1875 22.1562 43.5312
Q18.1094 38.875 18.1094 30.9062
L18.1094 0
L9.07812 0
L9.07812 54.6875
L18.1094 54.6875
L18.1094 46.1875
Q21.1875 51.2188 25.4844 53.6094
Q29.7812 56 35.6875 56
Q41.6562 56 45.8281 52.9688
Q50 49.9531 52 44.1875" id="BitstreamVeraSans-Roman-6d"/>
      <path d="
M8.01562 75.875
L15.8281 75.875
Q23.1406 64.3594 26.7812 53.3125
Q30.4219 42.2812 30.4219 31.3906
Q30.4219 20.4531 26.7812 9.375
Q23.1406 -1.70312 15.8281 -13.1875
L8.01562 -13.1875
Q14.5 -2 17.7031 9.0625
Q20.9062 20.125 20.9062 31.3906
Q20.9062 42.6719 17.7031 53.6562
Q14.5 64.6562 8.01562 75.875" id="BitstreamVeraSans-Roman-29"/>
      <path d="
M31 75.875
Q24.4688 64.6562 21.2812 53.6562
Q18.1094 42.6719 18.1094 31.3906
Q18.1094 20.125 21.3125 9.0625
Q24.5156 -2 31 -13.1875
L23.1875 -13.1875
Q15.875 -1.70312 12.2344 9.375
Q8.59375 20.4531 8.59375 31.3906
Q8.59375 42.2812 12.2031 53.3125
Q15.8281 64.3594 23.1875 75.875
z
" id="BitstreamVeraSans-Roman-28"/>
      <path d="
M19.6719 64.7969
L19.6719 37.4062
L32.0781 37.4062
Q38.9688 37.4062 42.7188 40.9688
Q46.4844 44.5312 46.4844 51.125
Q46.4844 57.6719 42.7188 61.2344
Q38.9688 64.7969 32.0781 64.7969
z

M9.8125 72.9062
L32.0781 72.9062
Q44.3438 72.9062 50.6094 67.3594
Q56.8906 61.8125 56.8906 51.125
Q56.8906 40.3281 50.6094 34.8125
Q44.3438 29.2969 32.0781 29.2969
L19.6719 29.2969
L19.6719 0
L9.8125 0
z
" id="BitstreamVeraSans-Roman-50"/>
      <path d="
M9.8125 72.9062
L55.9062 72.9062
L55.9062 64.5938
L19.6719 64.5938
L19.6719 43.0156
L54.3906 43.0156
L54.3906 34.7188
L19.6719 34.7188
L19.6719 8.29688
L56.7812 8.29688
L56.7812 0
L9.8125 0
z
" id="BitstreamVeraSans-Roman-45"/>
      <path d="
M-0.296875 72.9062
L61.375 72.9062
L61.375 64.5938
L35.5 64.5938
L35.5 0
L25.5938 0
L25.5938 64.5938
L-0.296875 64.5938
z
" id="BitstreamVeraSans-Roman-54"/>
      <path d="
M25.3906 72.9062
L33.6875 72.9062
L8.29688 -9.28125
L0 -9.28125
z
" id="BitstreamVeraSans-Roman-2f"/>
     </defs>
     <g transform="translate(16.318125 237.8358125)rotate(-90.0)scale(0.12 -0.12)">
      <use xlink:href="#BitstreamVeraSans-Roman-50"/>
      <use x="60.302734375" xlink:href="#BitstreamVeraSans-Roman-45"/>
      <use x="123.486328125" xlink:href="#BitstreamVeraSans-Roman-54"/>
      <use x="184.5703125" xlink:href="#BitstreamVeraSans-Roman-20"/>
      <use x="216.357421875" xlink:href="#BitstreamVeraSans-Roman-28"/>
      <use x="255.37109375" xlink:href="#BitstreamVeraSans-Roman-6d"/>
      <use x="352.783203125" xlink:href="#BitstreamVeraSans-Roman-6d"/>
      <use x="450.1953125" xlink:href="#BitstreamVeraSans-Roman-2f"/>
      <use x="483.88671875" xlink:href="#BitstreamVeraSans-Roman-64"/>
      <use x="547.36328125" xlink:href="#BitstreamVeraSans-Roman-61"/>
      <use x="608.642578125" xlink:href="#BitstreamVeraSans-Roman-79"/>
      <use x="667.822265625" xlink:href="#BitstreamVeraSans-Roman-29"/>
     </g>
    </g>
   </g>
   <g id="text_16">
    <!-- daily tree PET at LDP -->
    <defs>
     <path d="
M56.2031 29.5938
L56.2031 25.2031
L14.8906 25.2031
Q15.4844 15.9219 20.4844 11.0625
Q25.4844 6.20312 34.4219 6.20312
Q39.5938 6.20312 44.4531 7.46875
Q49.3125 8.73438 54.1094 11.2812
L54.1094 2.78125
Q49.2656 0.734375 44.1875 -0.34375
Q39.1094 -1.42188 33.8906 -1.42188
Q20.7969 -1.42188 13.1562 6.1875
Q5.51562 13.8125 5.51562 26.8125
Q5.51562 40.2344 12.7656 48.1094
Q20.0156 56 32.3281 56
Q43.3594 56 49.7812 48.8906
Q56.2031 41.7969 56.2031 29.5938
M47.2188 32.2344
Q47.125 39.5938 43.0938 43.9844
Q39.0625 48.3906 32.4219 48.3906
Q24.9062 48.3906 20.3906 44.1406
Q15.875 39.8906 15.1875 32.1719
z
" id="BitstreamVeraSans-Roman-65"/>
     <path d="
M9.8125 72.9062
L19.6719 72.9062
L19.6719 8.29688
L55.1719 8.29688
L55.1719 0
L9.8125 0
z
" id="BitstreamVeraSans-Roman-4c"/>
     <path d="
M18.3125 70.2188
L18.3125 54.6875
L36.8125 54.6875
L36.8125 47.7031
L18.3125 47.7031
L18.3125 18.0156
Q18.3125 11.3281 20.1406 9.42188
Q21.9688 7.51562 27.5938 7.51562
L36.8125 7.51562
L36.8125 0
L27.5938 0
Q17.1875 0 13.2344 3.875
Q9.28125 7.76562 9.28125 18.0156
L9.28125 47.7031
L2.6875 47.7031
L2.6875 54.6875
L9.28125 54.6875
L9.28125 70.2188
z
" id="BitstreamVeraSans-Roman-74"/>
     <path d="
M19.6719 64.7969
L19.6719 8.10938
L31.5938 8.10938
Q46.6875 8.10938 53.6875 14.9375
Q60.6875 21.7812 60.6875 36.5312
Q60.6875 51.1719 53.6875 57.9844
Q46.6875 64.7969 31.5938 64.7969
z

M9.8125 72.9062
L30.0781 72.9062
Q51.2656 72.9062 61.1719 64.0938
Q71.0938 55.2812 71.0938 36.5312
Q71.0938 17.6719 61.125 8.82812
Q51.1719 0 30.0781 0
L9.8125 0
z
" id="BitstreamVeraSans-Roman-44"/>
     <path d="
M41.1094 46.2969
Q39.5938 47.1719 37.8125 47.5781
Q36.0312 48 33.8906 48
Q26.2656 48 22.1875 43.0469
Q18.1094 38.0938 18.1094 28.8125
L18.1094 0
L9.07812 0
L9.07812 54.6875
L18.1094 54.6875
L18.1094 46.1875
Q20.9531 51.1719 25.4844 53.5781
Q30.0312 56 36.5312 56
Q37.4531 56 38.5781 55.875
Q39.7031 55.7656 41.0625 55.5156
z
" id="BitstreamVeraSans-Roman-72"/>
    </defs>
    <g transform="translate(214.486875 18.14175)scale(0.144 -0.144)">
     <use xlink:href="#BitstreamVeraSans-Roman-64"/>
     <use x="63.4765625" xlink:href="#BitstreamVeraSans-Roman-61"/>
     <use x="124.755859375" xlink:href="#BitstreamVeraSans-Roman-69"/>
     <use x="152.5390625" xlink:href="#BitstreamVeraSans-Roman-6c"/>
     <use x="180.322265625" xlink:href="#BitstreamVeraSans-Roman-79"/>
     <use x="239.501953125" xlink:href="#BitstreamVeraSans-Roman-20"/>
     <use x="271.2890625" xlink:href="#BitstreamVeraSans-Roman-74"/>
     <use x="310.498046875" xlink:href="#BitstreamVeraSans-Roman-72"/>
     <use x="349.361328125" xlink:href="#BitstreamVeraSans-Roman-65"/>
     <use x="410.884765625" xlink:href="#BitstreamVeraSans-Roman-65"/>
     <use x="472.408203125" xlink:href="#BitstreamVeraSans-Roman-20"/>
     <use x="504.1953125" xlink:href="#BitstreamVeraSans-Roman-50"/>
     <use x="564.498046875" xlink:href="#BitstreamVeraSans-Roman-45"/>
     <use x="627.681640625" xlink:href="#BitstreamVeraSans-Roman-54"/>
     <use x="688.765625" xlink:href="#BitstreamVeraSans-Roman-20"/>
     <use x="720.552734375" xlink:href="#BitstreamVeraSans-Roman-61"/>
     <use x="781.83203125" xlink:href="#BitstreamVeraSans-Roman-74"/>
     <use x="821.041015625" xlink:href="#BitstreamVeraSans-Roman-20"/>
     <use x="852.828125" xlink:href="#BitstreamVeraSans-Roman-4c"/>
     <use x="908.541015625" xlink:href="#BitstreamVeraSans-Roman-44"/>
     <use x="985.54296875" xlink:href="#BitstreamVeraSans-Roman-50"/>
    </g>
   </g>
   <g id="legend_1">
    <g id="patch_7">
     <path d="
M418.916 140.344
L505.541 140.344
L505.541 30.3417
L418.916 30.3417
z
" style="fill:#ffffff;stroke:#000000;stroke-linejoin:miter;"/>
    </g>
    <g id="line2d_32">
     <path d="
M428.996 42.0035
L449.156 42.0035" style="fill:none;stroke:#0000ff;stroke-linecap:square;"/>
    </g>
    <g id="line2d_33"/>
    <g id="text_17">
     <!-- 2010 -->
     <g transform="translate(464.99625 47.0435)scale(0.144 -0.144)">
      <use xlink:href="#BitstreamVeraSans-Roman-32"/>
      <use x="63.623046875" xlink:href="#BitstreamVeraSans-Roman-30"/>
      <use x="127.24609375" xlink:href="#BitstreamVeraSans-Roman-31"/>
      <use x="190.869140625" xlink:href="#BitstreamVeraSans-Roman-30"/>
     </g>
    </g>
    <g id="line2d_34">
     <path d="
M428.996 63.14
L449.156 63.14" style="fill:none;stroke:#008000;stroke-linecap:square;"/>
    </g>
    <g id="line2d_35"/>
    <g id="text_18">
     <!-- 2011 -->
     <g transform="translate(464.99625 68.18)scale(0.144 -0.144)">
      <use xlink:href="#BitstreamVeraSans-Roman-32"/>
      <use x="63.623046875" xlink:href="#BitstreamVeraSans-Roman-30"/>
      <use x="127.24609375" xlink:href="#BitstreamVeraSans-Roman-31"/>
      <use x="190.869140625" xlink:href="#BitstreamVeraSans-Roman-31"/>
     </g>
    </g>
    <g id="line2d_36">
     <path d="
M428.996 84.2765
L449.156 84.2765" style="fill:none;stroke:#ff0000;stroke-linecap:square;"/>
    </g>
    <g id="line2d_37"/>
    <g id="text_19">
     <!-- 2012 -->
     <g transform="translate(464.99625 89.3165)scale(0.144 -0.144)">
      <use xlink:href="#BitstreamVeraSans-Roman-32"/>
      <use x="63.623046875" xlink:href="#BitstreamVeraSans-Roman-30"/>
      <use x="127.24609375" xlink:href="#BitstreamVeraSans-Roman-31"/>
      <use x="190.869140625" xlink:href="#BitstreamVeraSans-Roman-32"/>
     </g>
    </g>
    <g id="line2d_38">
     <path d="
M428.996 105.413
L449.156 105.413" style="fill:none;stroke:#00bfbf;stroke-linecap:square;"/>
    </g>
    <g id="line2d_39"/>
    <g id="text_20">
     <!-- 2013 -->
     <g transform="translate(464.99625 110.453)scale(0.144 -0.144)">
      <use xlink:href="#BitstreamVeraSans-Roman-32"/>
      <use x="63.623046875" xlink:href="#BitstreamVeraSans-Roman-30"/>
      <use x="127.24609375" xlink:href="#BitstreamVeraSans-Roman-31"/>
      <use x="190.869140625" xlink:href="#BitstreamVeraSans-Roman-33"/>
     </g>
    </g>
    <g id="line2d_40">
     <path d="
M428.996 126.549
L449.156 126.549" style="fill:none;stroke:#bf00bf;stroke-linecap:square;"/>
    </g>
    <g id="line2d_41"/>
    <g id="text_21">
     <!-- 2014 -->
     <defs>
      <path d="
M37.7969 64.3125
L12.8906 25.3906
L37.7969 25.3906
z

M35.2031 72.9062
L47.6094 72.9062
L47.6094 25.3906
L58.0156 25.3906
L58.0156 17.1875
L47.6094 17.1875
L47.6094 0
L37.7969 0
L37.7969 17.1875
L4.89062 17.1875
L4.89062 26.7031
z
" id="BitstreamVeraSans-Roman-34"/>
     </defs>
     <g transform="translate(464.99625 131.5895)scale(0.144 -0.144)">
      <use xlink:href="#BitstreamVeraSans-Roman-32"/>
      <use x="63.623046875" xlink:href="#BitstreamVeraSans-Roman-30"/>
      <use x="127.24609375" xlink:href="#BitstreamVeraSans-Roman-31"/>
      <use x="190.869140625" xlink:href="#BitstreamVeraSans-Roman-34"/>
     </g>
    </g>
   </g>
  </g>
 </g>
 <defs>
  <clipPath id="p747ad1be57">
   <rect height="345.6" width="446.4" x="66.34125" y="23.14175"/>
  </clipPath>
 </defs>
</svg>
