<?xml version="1.0" encoding="utf-8" standalone="no"?>
<!DOCTYPE svg PUBLIC "-//W3C//DTD SVG 1.1//EN"
  "http://www.w3.org/Graphics/SVG/1.1/DTD/svg11.dtd">
<!-- Created with matplotlib (http://matplotlib.org/) -->
<svg height="280pt" version="1.1" viewBox="0 0 379 280" width="379pt" xmlns="http://www.w3.org/2000/svg" xmlns:xlink="http://www.w3.org/1999/xlink">
 <defs>
  <style type="text/css">
*{stroke-linecap:butt;stroke-linejoin:round;}
  </style>
 </defs>
 <g id="figure_1">
  <g id="patch_1">
   <path d="
M0 280.074
L379.45 280.074
L379.45 0
L0 0
z
" style="fill:#ffffff;"/>
  </g>
  <g id="axes_1">
   <g id="patch_2">
    <path d="
M37.45 244.518
L372.25 244.518
L372.25 21.3181
L37.45 21.3181
z
" style="fill:#ffffff;"/>
   </g>
   <g id="line2d_1">
    <path clip-path="url(#p241ef2d1d3)" d="
M0 0" style="fill:none;stroke:#0000ff;stroke-linecap:square;"/>
   </g>
   <g id="line2d_2">
    <path clip-path="url(#p241ef2d1d3)" d="
M0 0" style="fill:none;stroke:#008000;stroke-linecap:square;"/>
   </g>
   <g id="line2d_3">
    <path clip-path="url(#p241ef2d1d3)" d="
M0 0" style="fill:none;stroke:#ff0000;stroke-linecap:square;"/>
   </g>
   <g id="line2d_4">
    <path clip-path="url(#p241ef2d1d3)" d="
M39.2845 244.075
L40.2018 238.764
L41.119 243.816
L42.0363 243.068
L42.9536 243.395
L43.8708 238.051
L44.7881 239.29
L45.7053 242.717
L46.6226 240.407
L47.5399 241.043
L48.4571 243.621
L49.3744 243.474
L50.2916 238.44
L51.2089 240.431
L52.1262 240.757
L53.0434 243.882
L53.9607 243.791
L55.7952 242.697
L56.7125 240.967
L57.6297 243.581
L58.547 244.135
L59.4642 243.602
L60.3815 243.548
L61.2988 243.928
M63.1333 242.838
L64.0505 241.541
L64.9678 243.629
L65.8851 243.927
L66.8023 242.685
L67.7196 242.579
L68.6368 243.253
L69.5541 243.37
L70.4714 243.637
L71.3886 243.047
L72.3059 242.961
L73.2232 241.433
L74.1404 241.165
L75.0577 243.53
L75.9749 242.664
L76.8922 243.663
L77.8095 242.756
L78.7267 244.396
L79.644 244.131
L80.5612 244.055
L81.4785 244.322
L82.3958 242.82
L83.313 242.526
L84.2303 242.515
L85.1475 237.866
L86.0648 237.589
L86.9821 242.024
L87.8993 243.372
L88.8166 240.492
L89.7338 241.341
L90.6511 242.387
L91.5684 240.541
L92.4856 239.901
L93.4029 242.008
L94.3201 241.323
L95.2374 242.212
L96.1547 241.399
L97.0719 240.096
L97.9892 242.238
L98.9064 242.057
L99.8237 239.341
L100.741 239.101
L101.658 239.605
L102.575 243.043
L103.493 241.464
L104.41 238.555
L105.327 238.371
L107.162 239.428
L108.079 236.435
L108.996 237.14
L109.914 239.839
L110.831 242.043
L111.748 238.984
L112.665 237.949
L114.5 242.222
L115.417 240.942
L116.334 237.162
L117.252 239.743
L118.169 242.715
L119.086 241.164
L120.003 242.833
L120.921 242.612
L121.838 240.998
L122.755 240.903
L123.672 241.007
L124.59 240.506
L125.507 240.985
L126.424 240.18
L127.342 237.444
L128.259 237.424
L129.176 237.261
L130.093 240.904
L131.011 242.367
L131.928 238.928
L132.845 236.992
L133.762 237.973
L134.68 237.973
L135.597 236.453
L136.514 235.588
L137.431 238.962
L138.349 241.77
L139.266 240.94
L140.183 234.646
L141.1 233.828
L142.018 233.38
L142.935 234.162
L143.852 241.09
L144.769 240.43
L145.687 240.319
L146.604 241.781
L147.521 240.638
L148.438 236.814
L149.356 239.722
L150.273 234.217
L151.19 235.233
L152.108 236.997
L153.025 231.944
L153.942 234.313
L154.859 233.704
L155.777 239.837
L157.611 233.27
L158.528 235.258
L159.446 233.662
L160.363 234.196
L161.28 235.541
L162.197 238.255
L163.115 241.649
L164.032 237.212
L164.949 236.548
L165.866 236.889
L166.784 243.553
L167.701 239.873
L169.535 235.287
L170.453 239.595
L171.37 239.626
L172.287 239.503
L173.205 239.033
L174.122 235.078
L175.039 240.592
L175.956 240.342
L176.874 242.323
L177.791 237.68
L178.708 242.683
L179.625 238.467
L180.543 241.665
L181.46 237.055
L182.377 236.289
L183.294 238.978
L184.212 240.851
L185.129 236.046
L186.046 234.167
L186.963 234.646
L187.881 235.392
L188.798 236.35
L189.715 235.997
L190.632 237.742
L191.55 233.869
L192.467 235.443
L193.384 238.754
L194.302 238.65
L195.219 235.455
L196.136 235.164
L197.053 237.893
L197.971 238.784
L198.888 235.962
L199.805 235.921
L200.722 236.906
L201.64 239.019
L202.557 237.019
L203.474 236.412
L204.391 236.739
L205.309 237.908
L206.226 235.213
L207.143 235.601
L208.06 235.63
L208.978 235.377
L209.895 235.745
L210.812 236.44
L211.729 236.577
L212.647 236.453
L213.564 236.154
L214.481 233.694
L215.398 234.805
L216.316 235.235
L217.233 236.288
L218.15 235.804
L219.068 235.776
L219.985 235.164
L220.902 235.57
L221.819 234.93
L222.737 231.505
L223.654 231.121
L224.571 232.424
L225.488 232.527
L226.406 236.597
L227.323 232.211
L228.24 233.361
L229.157 232.741
L230.075 234.787
L230.992 233.107
L231.909 231.84
L232.826 232.065
L233.744 234.101
L234.661 236.53
L236.495 237.789
L237.413 236.663
L238.33 237.022
L239.247 237.56
L240.165 238.781
L241.082 240.66
L241.999 237.698
L242.916 236.532
L243.834 236.91
L244.751 236.41
L245.668 236.664
L246.585 236.631
L247.503 236.894
L248.42 236.106
L249.337 235.963
L250.254 236.066
L251.172 235.502
L252.089 236.08
L253.006 235.701
L253.923 236.446
L254.841 237.866
L255.758 235.523
L256.675 236.163
L257.592 241.019
L258.51 238.434
L259.427 239.122
L260.344 239.082
L261.262 236.809
L262.179 236.232
L263.096 237
L264.013 236.341
L264.931 234.932
L265.848 234.876
L266.765 239.904
L267.682 243.197
L268.6 239.008
L269.517 236.005
L270.434 235.977
L271.351 236.562
L272.269 236.9
L273.186 236.813
L274.103 236.306
L275.02 237.184
L275.938 236.695
L276.855 238.663
L277.772 238.906
L278.689 236.844
L279.607 236.227
L280.524 236.465
L281.441 236.12
L282.358 237.008
L284.193 236.705
L285.11 237.164
L286.028 237.384
L286.945 236.755
L287.862 237.484
L288.779 237.585
L289.697 239.332
L290.614 242.504
L292.448 240.188
L293.366 239.242
L294.283 242.344
L295.2 240.009
L296.117 240.125
L297.035 239.664
L297.952 236.559
L298.869 236.328
L299.786 236.368
L300.704 237.29
L301.621 238.921
L302.538 237.574
L303.455 235.535
L304.373 235.116
L305.29 236.301
L306.207 236.959
L307.125 236.974
L308.042 241.235
L308.959 243.488
L309.876 241.804
L310.794 242.444
L311.711 240.53
L312.628 236.49
L313.545 236.66
L314.463 238.149
L315.38 241.393
L316.297 239.524
L317.214 238.507
L318.132 238.544
L319.049 237.478
L319.966 238.566
L320.883 238.669
L321.801 241.678
L322.718 242.125
L323.635 239.567
L324.552 242.998
L325.47 242.932
L326.387 241.058
L327.304 240.986
L328.222 243.093
L329.139 243.161
M331.891 239.125
L332.808 242.321
L333.725 243.393
L334.642 242.073
L335.56 242.936
L336.477 242.572
L337.394 242.636
L338.311 240.573
L339.229 240.157
L340.146 240.584
L341.063 243.451
L341.98 242.361
L342.898 239.234
L343.815 243.614
L344.732 243.989
L345.649 242.29
L346.567 243.465
L347.484 243.283
L348.401 242.026
L349.318 243.522
L350.236 240.717
L351.153 242.483
L352.07 241.848
L352.988 242.975
L353.905 242.599
L354.822 241.704
L355.739 242.312
L356.657 242.528
L357.574 241.414
L358.491 239.726
L359.408 241.811
L360.326 243.331
L361.243 242.346
L362.16 241.939
L363.077 243.222
L363.995 242.689
L364.912 240.496
L365.829 236.252
L366.746 240.647
L367.664 242.57
L368.581 242.736
L369.498 243.121
L370.415 242.715
L371.333 244.233
L371.333 244.233" style="fill:none;stroke:#00bfbf;stroke-linecap:square;"/>
   </g>
   <g id="line2d_5">
    <path clip-path="url(#p241ef2d1d3)" d="
M37.45 242.084
L38.3673 240.837
L39.2845 243.82
L40.2018 243.442
L41.119 240.624
L42.0363 239.321
L42.9536 239.757
L43.8708 242.194
L44.7881 242.834
L45.7053 242.857
L46.6226 241.282
L47.5399 241.368
L48.4571 243.749
L49.3744 243.017
L50.2916 243.252
L51.2089 243.985
L53.0434 243.121
L53.9607 243.644
L54.8779 240.515
L56.7125 244.232
L57.6297 240.879
L58.547 242.85
L59.4642 243.924
L60.3815 242.167
L61.2988 241.31
L63.1333 241.853
L64.0505 243.082
L64.9678 242.213
L65.8851 239.671
L66.8023 238.058
L67.7196 239.426
L68.6368 242.575
L69.5541 242.77
L70.4714 241.373
L71.3886 242.194
L72.3059 242.113
L73.2232 242.605
L74.1404 241.602
L75.9749 238.923
L76.8922 238.522
L77.8095 238.793
L78.7267 239.266
L79.644 240.63
L80.5612 242.326
L81.4785 242.659
L82.3958 241.892
L83.313 243.076
L84.2303 243.794
L85.1475 242.799
L86.0648 241.413
L86.9821 240.538
L87.8993 241.548
L88.8166 240.085
L89.7338 240.883
L90.6511 239.278
L91.5684 239.272
L92.4856 241.688
L93.4029 241.811
L94.3201 242.504
L95.2374 241.799
L96.1547 242.475
L97.0719 242.267
L97.9892 243.836
L99.8237 241.08
L100.741 242.557
L102.575 242.509
L103.493 241.874
L104.41 242.086
L105.327 244.185
L106.245 243.305
L107.162 241.143
L108.079 242.393
L108.996 241.54
L109.914 242.894
L110.831 243.168
L111.748 241.486
L112.665 242.012
L113.583 242.078
L114.5 243.701
L116.334 242.483
L118.169 242.817
L119.086 240.802
L120.003 240.227
L120.921 241.697
L121.838 240.486
L122.755 239.072
L123.672 241.788
L124.59 241.612
L125.507 241.683
L126.424 241.167
L127.342 242.034
L128.259 240.499
L129.176 241.938
L130.093 240.026
L131.011 241.82
L131.928 240.662
L132.845 240.916
L133.762 241.544
L134.68 240.567
L135.597 241.468
L136.514 237.476
L138.349 242.794
L139.266 239.654
L140.183 238.511
L142.018 242.084
L142.935 241.23
L143.852 239.522
L144.769 241.373
L145.687 240.629
L146.604 240.049
L147.521 238.582
L148.438 239.691
L150.273 238.317
L151.19 237.318
L152.108 240.852
L153.025 239.671
L153.942 241.862
L154.859 238.884
L155.777 235.473
L156.694 235.661
L157.611 236.839
L158.528 236.325
L159.446 239.354
L160.363 241.687
L161.28 241.807
L162.197 239.345
L163.115 239.782
L164.032 234.64
L164.949 237.227
L165.866 239.268
L166.784 237.213
L167.701 239.738
L169.535 237.791
L170.453 240.431
L171.37 242.099
L172.287 239.772
L173.205 242.433
L174.122 239.971
L175.039 238.595
L175.956 237.641
L176.874 240.758
L177.791 236.95
L178.708 235.225
L179.625 237.19
L180.543 240.41
L181.46 240.915
L182.377 236.122
L183.294 236.749
L184.212 238.075
L186.046 238.979
L186.963 239.95
L187.881 235.748
L188.798 233.871
L189.715 236.87
L190.632 234.685
L191.55 240.245
L192.467 239.364
L193.384 237.073
L194.302 236.603
L196.136 236.587
L197.971 234.008
L198.888 234.411
L199.805 236.29
L200.722 236.941
L201.64 238.702
L202.557 237.493
L203.474 235.484
L204.391 236.235
L205.309 236.57
L206.226 237.345
L207.143 236.976
L208.06 236.816
L208.978 239.305
L209.895 236.62
L210.812 235.377
L211.729 236.741
L212.647 237.44
L213.564 237.553
L214.481 237.995
L215.398 238.799
L216.316 236.721
L217.233 237.628
L218.15 237.024
L219.068 236.84
L219.985 236.885
L221.819 236.327
L222.737 236.771
L223.654 236.002
L224.571 237.395
L225.488 236.811
L226.406 237.253
L228.24 236.38
L229.157 236.881
L230.075 238.231
L230.992 239.039
L231.909 237.959
L233.744 237.561
L234.661 239.081
L235.578 237.361
L236.495 237.15
L237.413 237.906
L238.33 237.293
L239.247 237.059
L240.165 237.008
L241.082 236.524
L241.999 236.753
L242.916 237.375
L244.751 236.382
L246.585 237.158
L247.503 236.979
L248.42 236.623
L249.337 237.668
L250.254 238.275
L251.172 237.749
L252.089 237.485
L253.006 237.945
L253.923 238.172
L254.841 238.047
L255.758 239.202
L256.675 238.33
L257.592 237.951
L258.51 237.413
L259.427 236.724
L260.344 236.49
L261.262 236.551
L262.179 236.79
L263.096 236.751
L264.013 237.164
L264.931 237.932
L266.765 237.874
L267.682 238.269
L268.6 237.975
L269.517 239.265
L270.434 238.378
L271.351 238.691
L272.269 238.086
L273.186 241.025
L274.103 242.742
L275.02 236.872
L275.938 236.897
L276.855 237.798
L277.772 237.501
L278.689 236.989
L279.607 237.771
L280.524 237.908
L281.441 237.928
L282.358 238.84
L283.276 237.946
L284.193 237.799
L285.11 237.847
L286.028 237.472
L286.945 238.67
L288.779 238.185
L289.697 238.585
L290.614 242.137
L291.531 243.28
L292.448 243.737
L293.366 243.786
L294.283 240.139
L295.2 238.428
L296.117 241.889
L297.952 238.554
L298.869 237.64
L299.786 238.054
L300.704 239.641
L301.621 242.603
L302.538 238.636
L303.455 237.432
L304.373 239.046
L305.29 238.158
L306.207 238.893
L307.125 239.908
L308.042 239.072
L308.959 241.352
L309.876 236.898
L310.794 234.864
L311.711 236.053
L312.628 236.845
L313.545 237.922
L314.463 239.263
L315.38 240.276
L317.214 235.88
L318.132 236.837
L319.049 240.561
L319.966 243.052
L320.883 243.03
L321.801 241.704
L322.718 240.649
L323.635 238.636
L324.552 237.215
L326.387 241.2
L327.304 241.539
L328.222 240.018
L330.056 238.751
L330.973 242.093
L331.891 242.965
L332.808 242.145
L333.725 240.117
L335.56 241.79
L336.477 239.057
L337.394 240.699
L338.311 240.36
L339.229 235.685
L340.146 236.561
L341.063 240.026
L341.98 242.372
L342.898 241.474
L343.815 237.725
L344.732 237.802
L346.567 239.72
L348.401 237.798
L349.318 238.426
L350.236 238.177
L351.153 237.104
L352.07 238.373
L352.988 238.741
L353.905 238.667
L354.822 239.281
L355.739 239.551
L356.657 240.7
L357.574 240.901
L358.491 240.271
L359.408 239.844
L360.326 238.584
L361.243 238.201
L362.16 239.575
L363.077 235.242
L363.995 235.751
L364.912 236.413
L365.829 237.599
L366.746 238.334
L367.664 239.934
L368.581 243.235
L369.498 241.567
L370.415 243.225
L371.333 240.887
L371.333 240.887" style="fill:none;stroke:#bf00bf;stroke-linecap:square;"/>
   </g>
   <g id="line2d_6">
    <path clip-path="url(#p241ef2d1d3)" d="
M37.45 236.805
L38.3673 238.181
L39.2845 237.909
L40.2018 237.058
L41.119 239.211
L42.0363 239.903
L42.9536 240.316
L43.8708 240.405
L44.7881 240.187
L45.7053 241.828
L46.6226 239.312
L47.5399 237.333
L48.4571 234.769
L49.3744 235.652
L50.2916 238.921
L51.2089 239.627
L52.1262 237.124
L53.0434 240.247
L53.9607 243.99
L54.8779 243.977
L55.7952 243.776
L56.7125 242.363
L57.6297 243.397
L58.547 241.9
L60.3815 242.52
L61.2988 241.243
L63.1333 236.849
L64.0505 241.984
L64.9678 240.24
L65.8851 241.277
L66.8023 243.215
L67.7196 241.464
L68.6368 240.111
L70.4714 240.085
L71.3886 238.173
L72.3059 241.201
L73.2232 242.697
L74.1404 242.216
L75.0577 242.564
L75.9749 243.434
L76.8922 242.176
L77.8095 242.236
L78.7267 242.917
L79.644 240.092
L80.5612 240.823
L81.4785 242.003
L82.3958 240.408
L83.313 240.693
L84.2303 243.334
L85.1475 241.978
L86.0648 240.352
L86.9821 238.249
L87.8993 241.002
L89.7338 239.123
L90.6511 239.674
L91.5684 240.734
L92.4856 241.511
L93.4029 241.27
L94.3201 242.483
L95.2374 241.009
L96.1547 238.841
L97.0719 241.736
L97.9892 238.535
L99.8237 237.772
L100.741 237.078
L101.658 239.931
L102.575 240.537
L103.493 240.623
L104.41 243.784
L105.327 242.335
L106.245 241.876
L107.162 241.283
L108.079 242.702
L108.996 240.898
L109.914 241.699
L110.831 241.237
L111.748 238.408
L112.665 239.8
L113.583 237.53
L115.417 242.848
L116.334 239.636
L117.252 241.893
L118.169 241.766
L119.086 242.923
L120.003 238.592
L120.921 239.428
L121.838 239.973
L122.755 237.207
L123.672 239.685
L124.59 239.138
L125.507 239.921
L126.424 235.497
L127.342 233.841
L128.259 235.389
L129.176 235.108
L130.093 239.636
L131.011 236.309
L131.928 239.387
L132.845 235.396
L133.762 233.89
L134.68 240.015
L135.597 237.149
L136.514 238.543
L137.431 240.453
L138.349 237.538
L139.266 235.65
L140.183 236.146
L141.1 238.445
L142.018 238.119
L142.935 239.22
L143.852 242.97
L144.769 238.992
L146.604 234.907
L147.521 240.767
L148.438 236.459
L149.356 235.946
L150.273 240.24
L151.19 240.619
L152.108 237.54
L153.942 234.092
L154.859 234.77
L155.777 235.869
L156.694 233.433
L157.611 233.521
L158.528 234.08
L159.446 234.777
L160.363 236.07
L161.28 238.319
L162.197 235.518
L163.115 237.392
L164.032 235.164
L164.949 233.594
L165.866 235.018
L166.784 239.293
L167.701 238.695
L168.618 239.315
L169.535 236.284
L170.453 240.972
L171.37 241.805
L172.287 239.073
L173.205 234.987
L174.122 235.183
L175.039 235.081
L175.956 236.157
L176.874 235.989
L177.791 237.409
L178.708 237.302
L179.625 238.578
L180.543 240.609
L181.46 235.4
L182.377 236.635
L183.294 237.517
L184.212 239.973
L185.129 236.601
L186.046 233.858
L186.963 236.847
L187.881 236.049
L188.798 233.782
L189.715 238.961
L190.632 235.813
L191.55 235.979
L192.467 235.264
L193.384 237.415
L194.302 234.633
L195.219 235.809
L196.136 239.975
L197.053 236.191
L197.971 235.696
L198.888 235.45
L199.805 236.494
L200.722 234.717
L201.64 236.013
L202.557 236.004
L203.474 236.515
L204.391 238.16
L205.309 236.709
L206.226 236.056
L207.143 235.75
L208.06 237.038
L208.978 237.36
L209.895 237.227
L210.812 239.175
L211.729 237.59
L212.647 237.476
L213.564 238.001
L214.481 237.493
L215.398 239.243
L216.316 240.097
L217.233 238.881
L218.15 238.59
L219.068 237.093
L219.985 236.891
L220.902 237.675
L221.819 236.678
L222.737 236.739
L223.654 237.117
L224.571 236.922
L225.488 236.572
L226.406 237.39
L227.323 237.197
L228.24 237.428
L230.992 237.071
L231.909 237.169
L232.826 236.603
L233.744 236.261
L235.578 236.749
L236.495 237.256
L237.413 237.376
L239.247 237.989
L240.165 237.861
L241.082 238.709
L241.999 237.324
L242.916 237.771
L244.751 237.602
L245.668 237.351
L246.585 237.637
L248.42 237.408
L249.337 238.949
L250.254 237.725
L251.172 238.176
L252.089 237.425
L253.006 236.959
L253.923 235.203
L254.841 236.244
L255.758 238.292
L256.675 238.479
L257.592 237.473
L258.51 237.015
L259.427 236.729
L260.344 238.4
L261.262 237.525
L262.179 235.651
L263.096 236.185
L264.013 236.34
L264.931 236.948
L265.848 238.312
L266.765 236.546
L267.682 236.737
L268.6 237.888
L269.517 236.758
L270.434 236.321
L271.351 234.921
L272.269 236.448
L273.186 236.884
L274.103 236.858
L275.02 237.038
L275.938 236.627
L276.855 236.921
L277.772 237.447
L278.689 237.815
L279.607 237.855
L280.524 237.484
L281.441 241.337
L282.358 239.101
L283.276 239.039
L284.193 238.414
L285.11 237.393
L286.028 238.068
L288.779 237.402
L289.697 237.048
L290.614 234.956
L291.531 235.102
L293.366 234.692
L294.283 235.239
L295.2 235.33
L296.117 236.476
L297.035 236.991
L298.869 237.001
L299.786 240.904
L300.704 239.27
L301.621 239.798
L302.538 239.746
L303.455 237.362
L304.373 236.88
L305.29 238.562
L306.207 240.575
L307.125 237.688
L308.042 242.182
L308.959 241.066
L309.876 241.977
L310.794 239.851
L311.711 238.554
L312.628 240.973
M314.463 238.709
L315.38 238.857
L316.297 237.94
L317.214 240.24
L318.132 239.234
L319.049 239.727
L319.966 239.327
L320.883 240.706
L321.801 239.309
L323.635 241.243
L324.552 242.582
L325.47 241.907
L326.387 241.83
L327.304 240.454
M329.139 242.125
L330.056 239.572
L331.891 242.294
L332.808 240.776
L333.725 242.054
L334.642 241.759
L335.56 241.965
L336.477 239.85
L337.394 237.373
L338.311 240.692
L339.229 241.793
L340.146 240.528
L341.063 239.769
L341.98 240.862
L343.815 242.41
L344.732 242.325
L345.649 242.905
L346.567 239.859
L347.484 241.637
L348.401 243.097
L349.318 242.136
L350.236 240.893
L351.153 242.051
L352.07 238.516
L352.988 242.756
L353.905 240.941
L354.822 243.557
L355.739 241.723
L356.657 243.634
L357.574 243.136
L358.491 242.339
L359.408 241.815
L360.326 242.463
L361.243 241.284
L362.16 237.479
L363.077 236.432
L363.995 239.968
L364.912 242.479
L365.829 243.055
L366.746 240.419
L367.664 242.064
L368.581 242.515
L369.498 242.821
L370.415 241.424
L371.333 243.43
L371.333 243.43" style="fill:none;stroke:#bfbf00;stroke-linecap:square;"/>
   </g>
   <g id="line2d_7">
    <path clip-path="url(#p241ef2d1d3)" d="
M37.45 242.427
L38.3673 242.542
L40.2018 238.872
L41.119 241.266
L42.0363 240.573
L42.9536 242.522
L43.8708 243.922
M48.4571 244.261
L49.3744 242.41
L50.2916 244.047
L51.2089 242.625
L52.1262 239.906
L53.0434 238.364
L53.9607 238.823
L54.8779 238.207
L55.7952 238.21
L56.7125 238.488
L57.6297 237.784
L58.547 241.562
L59.4642 243.883
L60.3815 243.735
L61.2988 244.388
L62.216 243.917
L64.0505 244.053
L64.9678 244.469
L65.8851 244.012
L66.8023 243.405
L67.7196 242.418
L68.6368 241.002
L69.5541 241.197
L70.4714 242.406
L71.3886 241.661
L72.3059 242.88
L73.2232 242.297
L74.1404 241.013
L75.0577 240.022
L75.9749 242.572
L76.8922 242.812
L77.8095 242.488
L78.7267 241.767
L79.644 241.981
L80.5612 242.687
L81.4785 239.606
L82.3958 241.288
L83.313 241.962
L84.2303 240.953
L85.1475 243.273
L86.9821 242.776
L87.8993 242.224
L88.8166 242.127
L89.7338 240.444
L90.6511 241.945
L91.5684 242.421
L92.4856 242.105
L93.4029 241.278
L94.3201 238.759
L95.2374 239.051
L96.1547 241.377
L97.0719 240.881
L97.9892 239.449
L98.9064 238.74
L99.8237 237.233
L100.741 241.544
L101.658 241.236
L102.575 239.055
L103.493 238.638
L104.41 239.083
L105.327 239.824
L107.162 239.173
L108.079 235.163
L108.996 240.33
L109.914 239.394
L110.831 240.938
L112.665 236.526
L113.583 236.42
L114.5 241.195
L115.417 239.748
L116.334 237.753
L117.252 237.848
L118.169 236.823
L119.086 237.203
L120.003 238.765
L120.921 237.398
L121.838 236.777
L122.755 240.274
L123.672 240.162
L124.59 241.872
L125.507 241.365
L126.424 238.028
L127.342 235.688
L128.259 239.605
L129.176 236.535
L130.093 234.826
L131.011 239.67
L131.928 237.508
L132.845 237.547
L134.68 233.452
L135.597 233.697
L136.514 241.801
L137.431 239.169
L138.349 237.38
L139.266 235.971
L141.1 233.638
L142.018 234.33
L142.935 235.456
L143.852 236.264
L144.769 235.003
L145.687 237.895
L146.604 236.368
L147.521 233.942
L148.438 233.58
L149.356 235.107
L150.273 238.392
L151.19 236.026
L152.108 238.652
L153.025 238.585
L153.942 238.31
L154.859 237.252
L155.777 236.976
L156.694 237.259
L157.611 237.346
L158.528 237.279
L159.446 236.429
L160.363 236.818
L162.197 241.34
L163.115 237.692
L164.032 239.311
L164.949 235.886
L165.866 237.477
L166.784 236.147
L167.701 233.484
L168.618 234.767
L169.535 235.172
L170.453 239.897
L171.37 239.116
L172.287 241.927
L173.205 241.305
L174.122 237.462
L175.039 235.694
L175.956 235.636
L176.874 235.36
L177.791 235.27
L178.708 236.077
L179.625 236.248
L180.543 237.146
L181.46 236.918
L183.294 236.76
L184.212 237.412
L185.129 237.629
L186.046 236.045
L186.963 238.76
L187.881 237.658
L188.798 235.338
L189.715 237.242
L190.632 236.906
L191.55 236.913
L192.467 241.414
L193.384 237.624
L194.302 237.946
L195.219 237.216
L196.136 237.307
L197.053 241.235
L197.971 242.742
L198.888 239.191
L199.805 237.328
L200.722 237.637
L201.64 238.31
L202.557 237.903
L203.474 238.536
L204.391 238.339
L205.309 239.629
L206.226 237.692
L207.143 236.846
L208.06 237.457
L208.978 237.58
L210.812 237.064
L212.647 238.76
L213.564 237.313
L214.481 236.263
L215.398 236.738
L216.316 237.458
L217.233 239.783
L218.15 238.018
L219.068 237.114
L219.985 237.546
L220.902 237.535
L222.737 236.919
L223.654 237.287
L224.571 237.909
L225.488 237.788
L226.406 238.343
L227.323 237.936
L228.24 237.378
L229.157 237.279
L230.075 237.068
L230.992 238.044
L231.909 237.925
L232.826 236.971
L233.744 236.645
L234.661 237.334
L235.578 237.467
L236.495 237.435
L237.413 237.922
L238.33 237.957
L239.247 238.352
L240.165 238.201
L241.082 238.32
L241.999 238.713
L242.916 238.5
L243.834 238.067
L244.751 238.332
L246.585 238.194
L249.337 238.03
L250.254 237.914
L251.172 240.196
L252.089 238.891
L253.006 239.063
L253.923 238.71
L254.841 238.193
L255.758 238.402
L256.675 239.588
L258.51 238.176
L259.427 238.213
L260.344 238.63
L261.262 240.401
L262.179 241.76
L263.096 241.018
L264.013 241.293
L264.931 239.51
L265.848 238.148
L266.765 238.17
L267.682 238.578
L268.6 238.74
L269.517 239.342
L270.434 241.603
L271.351 240.107
L272.269 240.844
L273.186 239.606
L274.103 239.17
L275.02 240.656
L275.938 241.291
L276.855 237.733
L277.772 237.745
L278.689 239.972
L279.607 241.373
L280.524 239.213
L281.441 242.178
L282.358 243.492
L283.276 242.415
L284.193 240.069
L285.11 239.667
L286.028 242.226
L286.945 239.823
L287.862 241.017
L288.779 239.97
L289.697 241.951
L290.614 237.906
L291.531 236.68
L292.448 237.156
L293.366 238.452
L294.283 241.327
L295.2 239.315
L296.117 239.917
L297.952 238.628
L298.869 239.538
L300.704 238.522
L301.621 238.17
L302.538 238.738
L303.455 237.831
L304.373 238.07
L305.29 239.01
L306.207 239.066
L307.125 238.381
L308.042 238.757
L308.959 238.864
L309.876 238.764
L311.711 239.261
L312.628 242.598
L313.545 242.884
L314.463 242.253
L315.38 242.674
L316.297 242.479
L317.214 243.12
L318.132 242.843
L319.049 240.796
L319.966 241.73
L320.883 243.01
L321.801 242.471
L322.718 240.095
L323.635 239.411
L324.552 239.745
L325.47 239.305
L326.387 239.334
L327.304 240.934
L328.222 241.819
L330.056 242.669
L330.973 242.254
L331.891 240.405
L332.808 242.643
L333.725 242.935
L334.642 239.216
L335.56 238.595
L336.477 238.365
L337.394 238.69
L338.311 238.312
L339.229 239.348
L340.146 239.213
L341.98 240.148
L342.898 242.415
L343.815 243.057
L344.732 242.284
L345.649 240.383
L346.567 242.406
L347.484 241.584
L348.401 241.059
L349.318 242.234
L350.236 241.984
L351.153 239.231
L352.07 240.231
L352.988 242.081
L353.905 240.871
L354.822 241.219
L355.739 241.84
L356.657 239.285
L357.574 239.637
L358.491 238.259
L359.408 241.151
L360.326 242.178
L361.243 240.621
L362.16 242.989
L363.077 243.586
L364.912 242.164
L366.746 237.902
L367.664 238.196
L368.581 241.132
L369.498 240.019
L370.415 240.949
L371.333 241.656
L371.333 241.656" style="fill:none;stroke:#000000;stroke-linecap:square;"/>
   </g>
   <g id="line2d_8">
    <path clip-path="url(#p241ef2d1d3)" d="
M37.45 166.143
L38.3673 172.98
L39.2845 150.014
L41.119 48.8196
L42.0363 43.8239
L42.9536 143.973
L43.8708 229.191
L44.7881 216.531
L45.7053 217.472
L46.6226 201.178
L47.5399 208.568
L48.4571 217.643
L49.3744 171.225
L50.2916 100.103
L51.2089 90.8952
L52.1262 91.4333
L53.0434 112.632
L53.9607 102.157
L54.8779 114.793
L55.7952 105.645
L57.6297 140.407
L58.547 88.3124
L59.4642 51.657
L60.3815 69.299
L62.216 117.495
L63.1333 201.508
L64.0505 183.734
L64.9678 168.758
L65.8851 170.597
L66.8023 143.163
L67.7196 176.438
L68.6368 151.272
L69.5541 153.899
L70.4714 187.984
L71.3886 185.644
L72.3059 230.617
L74.1404 188.249
L75.0577 203.845
L75.9749 223.618
L76.8922 164.525
L77.8095 173.616
L78.7267 178.482
L79.644 180.143
L80.5612 127.074
L81.4785 177.173
L82.3958 172.191
L83.313 196.73
L84.2303 173.512
L85.1475 167.153
L86.0648 165.717
L86.9821 170.498
L87.8993 187.265
L88.8166 182.941
L89.7338 190.267
L90.6511 202.997
L91.5684 209.747
L92.4856 226.355
L93.4029 218.324
L94.3201 198.857
L95.2374 187.722
L96.1547 191.36
L97.0719 190.595
L97.9892 143.778
L98.9064 179.383
L99.8237 203.294
L100.741 177.649
L101.658 99.4297
L102.575 95.0692
L103.493 152.274
L104.41 116.236
L105.327 111.779
L106.245 154.941
L107.162 143.314
L108.079 97.8734
L108.996 118.551
L109.914 67.1848
L110.831 64.8778
L111.748 76.5132
L112.665 112.016
L113.583 155.728
L114.5 177.781
L115.417 225.877
L116.334 201.716
L117.252 190.321
L118.169 197.291
L119.086 171.853
L120.003 185.367
L120.921 201.341
L121.838 145.221
L122.755 178.439
L123.672 182.528
L124.59 195.17
L125.507 152.022
L126.424 145.719
L127.342 159.347
L128.259 126.16
L129.176 124.484
L130.093 135.338
L131.011 123.083
L131.928 85.2374
L132.845 108.271
L133.762 89.4906
L134.68 184.489
L135.597 161.506
L136.514 131.458
L137.431 137.165
L138.349 118.656
L139.266 172.997
L140.183 177.501
L141.1 198.281
L142.018 216.325
L142.935 179.397
L144.769 163.271
L145.687 116.009
L146.604 130.373
L147.521 141.54
L148.438 149.959
L149.356 141.488
L150.273 168.232
L151.19 163.991
L152.108 156.987
L153.025 145.042
L153.942 182.168
L154.859 187.122
L155.777 203.413
L156.694 162.459
L158.528 121.538
L159.446 145.963
L160.363 151.555
L161.28 156.206
L162.197 146.623
L163.115 179.799
L164.032 171.077
L164.949 168.054
L165.866 189.99
L166.784 152.734
L167.701 169.342
L168.618 189.762
L169.535 159.565
L170.453 157.396
L171.37 160.956
L172.287 158.787
L173.205 139.957
L174.122 123.536
L175.039 140.303
L175.956 151.539
L176.874 151.91
L177.791 152.545
L178.708 150.364
L179.625 142.31
L180.543 138.713
L181.46 150.938
L182.377 151.943
L183.294 156.388
L184.212 156.925
L185.129 137.616
L186.046 160.039
L187.881 191.003
L188.798 160.284
L189.715 179.429
L190.632 159.393
L191.55 209.087
L192.467 165.617
L193.384 162.456
L194.302 163.568
L195.219 149.575
L196.136 159.161
L197.053 165.814
L197.971 201.59
L198.888 209.645
L199.805 202.897
L200.722 182.579
L201.64 155.239
L202.557 156.366
L203.474 157.786
L204.391 164.936
L205.309 175.239
L206.226 171.315
L208.06 167.095
L208.978 171.203
L209.895 172.729
L210.812 171.356
L211.729 177.777
L212.647 176.725
L213.564 168.166
L214.481 177.273
L215.398 178.052
L216.316 176.856
L217.233 174.929
L218.15 177.605
L219.068 155.751
L219.985 164.551
L220.902 186.975
L221.819 194.64
L222.737 185.441
L223.654 179.773
L225.488 146.642
L226.406 151.329
L227.323 165.609
L228.24 175.585
L229.157 173.353
L230.075 178.325
L230.992 174.954
L231.909 177.258
L232.826 173.201
L233.744 178.959
L234.661 177.916
L235.578 196.993
L236.495 203.257
L237.413 179.319
L238.33 177.765
L239.247 178.836
L240.165 175.956
L241.082 173.507
L242.916 206.021
L243.834 200.148
L244.751 175.577
L245.668 169.245
L246.585 168.783
L247.503 168.141
L248.42 168.818
L249.337 177.94
L250.254 170.552
L251.172 169.739
L252.089 179.917
L253.006 180.093
L253.923 189.105
L254.841 172.563
L255.758 165.134
L256.675 162.109
L257.592 166.835
L258.51 194.687
L259.427 189.89
L260.344 155.892
L261.262 153.173
L262.179 167.63
L263.096 137.201
L264.013 142.211
L264.931 143.698
L265.848 149.872
L266.765 151.308
L267.682 144.527
L268.6 155.673
L269.517 130.266
L270.434 120.069
L271.351 136.375
L272.269 148.144
L273.186 158.431
M278.689 192.358
L279.607 200.086
L280.524 187.794
L281.441 170.11
L282.358 161.456
L283.276 161.225
L284.193 190.406
L285.11 211.611
L286.028 221.061
L286.945 199.155
L287.862 172.154
L288.779 140.716
L289.697 138.623
L290.614 149.195
L291.531 153.395
L292.448 160.673
L293.366 156.621
L294.283 156.359
L295.2 146.475
L296.117 151.823
L297.035 175.164
L297.952 179.859
L298.869 135.704
L299.786 137.521
L300.704 169.909
L301.621 152.31
L302.538 132.574
L303.455 149.609
L304.373 151.871
L305.29 150.194
L306.207 197.422
L307.125 165.742
L308.042 208.104
L308.959 188.634
L309.876 147.668
L310.794 195.74
L311.711 156.89
L312.628 137.817
L313.545 161.634
L314.463 152.137
L315.38 137.813
L316.297 176.686
L317.214 226.297
L318.132 212.79
L319.049 205.291
L319.966 215.564
L320.883 179.478
L321.801 182.38
L322.718 149.394
L323.635 190.64
L324.552 182.25
L325.47 137.046
L326.387 68.3473
L327.304 118.003
L328.222 214.919
L329.139 189.614
L330.056 73.1628
L330.973 62.6912
L331.891 59.1762
L332.808 102.058
L333.725 158.492
L334.642 202.655
L335.56 223.953
L337.394 169.951
L338.311 208.156
L339.229 181.183
L340.146 160.351
L341.063 132.737
L341.98 174.64
L342.898 97.4636
L343.815 185.665
L344.732 195.081
L345.649 206.102
L346.567 213.011
L347.484 206.463
L348.401 198.75
L349.318 180.06
L350.236 174.526
L351.153 166.029
L352.07 143.95
L352.988 133.788
L353.905 182.677
L354.822 221.723
L356.657 167.582
L357.574 195.791
L358.491 196.804
L360.326 216.805
L361.243 230.996
L362.16 234.127
L363.077 226.174
L363.995 211.387
L364.912 194.255
L365.829 210.511
L366.746 205.779
L367.664 196.835
L368.581 213.037
L369.498 204.415
L370.415 187.728
L371.333 189.485
L371.333 189.485" style="fill:none;stroke:#0000ff;stroke-linecap:square;"/>
   </g>
   <g id="patch_3">
    <path d="
M37.45 21.3181
L372.25 21.3181" style="fill:none;stroke:#000000;stroke-linecap:square;stroke-linejoin:miter;"/>
   </g>
   <g id="patch_4">
    <path d="
M372.25 244.518
L372.25 21.3181" style="fill:none;stroke:#000000;stroke-linecap:square;stroke-linejoin:miter;"/>
   </g>
   <g id="patch_5">
    <path d="
M37.45 244.518
L372.25 244.518" style="fill:none;stroke:#000000;stroke-linecap:square;stroke-linejoin:miter;"/>
   </g>
   <g id="patch_6">
    <path d="
M37.45 244.518
L37.45 21.3181" style="fill:none;stroke:#000000;stroke-linecap:square;stroke-linejoin:miter;"/>
   </g>
   <g id="matplotlib.axis_1">
    <g id="xtick_1">
     <g id="line2d_9">
      <defs>
       <path d="
M0 0
L0 -4" id="mc7db9fdffb" style="stroke:#000000;stroke-width:0.5;"/>
      </defs>
      <g>
       <use style="stroke:#000000;stroke-width:0.5;" x="37.45" xlink:href="#mc7db9fdffb" y="244.518125"/>
      </g>
     </g>
     <g id="line2d_10">
      <defs>
       <path d="
M0 0
L0 4" id="m5a7d422ac3" style="stroke:#000000;stroke-width:0.5;"/>
      </defs>
      <g>
       <use style="stroke:#000000;stroke-width:0.5;" x="37.45" xlink:href="#m5a7d422ac3" y="21.318125"/>
      </g>
     </g>
     <g id="text_1">
      <!-- 0 -->
      <defs>
       <path d="
M31.7812 66.4062
Q24.1719 66.4062 20.3281 58.9062
Q16.5 51.4219 16.5 36.375
Q16.5 21.3906 20.3281 13.8906
Q24.1719 6.39062 31.7812 6.39062
Q39.4531 6.39062 43.2812 13.8906
Q47.125 21.3906 47.125 36.375
Q47.125 51.4219 43.2812 58.9062
Q39.4531 66.4062 31.7812 66.4062
M31.7812 74.2188
Q44.0469 74.2188 50.5156 64.5156
Q56.9844 54.8281 56.9844 36.375
Q56.9844 17.9688 50.5156 8.26562
Q44.0469 -1.42188 31.7812 -1.42188
Q19.5312 -1.42188 13.0625 8.26562
Q6.59375 17.9688 6.59375 36.375
Q6.59375 54.8281 13.0625 64.5156
Q19.5312 74.2188 31.7812 74.2188" id="BitstreamVeraSans-Roman-30"/>
      </defs>
      <g transform="translate(34.93046875 256.1165625)scale(0.1 -0.1)">
       <use xlink:href="#BitstreamVeraSans-Roman-30"/>
      </g>
     </g>
    </g>
    <g id="xtick_2">
     <g id="line2d_11">
      <g>
       <use style="stroke:#000000;stroke-width:0.5;" x="83.3130136986" xlink:href="#mc7db9fdffb" y="244.518125"/>
      </g>
     </g>
     <g id="line2d_12">
      <g>
       <use style="stroke:#000000;stroke-width:0.5;" x="83.3130136986" xlink:href="#m5a7d422ac3" y="21.318125"/>
      </g>
     </g>
     <g id="text_2">
      <!-- 50 -->
      <defs>
       <path d="
M10.7969 72.9062
L49.5156 72.9062
L49.5156 64.5938
L19.8281 64.5938
L19.8281 46.7344
Q21.9688 47.4688 24.1094 47.8281
Q26.2656 48.1875 28.4219 48.1875
Q40.625 48.1875 47.75 41.5
Q54.8906 34.8125 54.8906 23.3906
Q54.8906 11.625 47.5625 5.09375
Q40.2344 -1.42188 26.9062 -1.42188
Q22.3125 -1.42188 17.5469 -0.640625
Q12.7969 0.140625 7.71875 1.70312
L7.71875 11.625
Q12.1094 9.23438 16.7969 8.0625
Q21.4844 6.89062 26.7031 6.89062
Q35.1562 6.89062 40.0781 11.3281
Q45.0156 15.7656 45.0156 23.3906
Q45.0156 31 40.0781 35.4375
Q35.1562 39.8906 26.7031 39.8906
Q22.75 39.8906 18.8125 39.0156
Q14.8906 38.1406 10.7969 36.2812
z
" id="BitstreamVeraSans-Roman-35"/>
      </defs>
      <g transform="translate(77.6684824486 256.1165625)scale(0.1 -0.1)">
       <use xlink:href="#BitstreamVeraSans-Roman-35"/>
       <use x="63.623046875" xlink:href="#BitstreamVeraSans-Roman-30"/>
      </g>
     </g>
    </g>
    <g id="xtick_3">
     <g id="line2d_13">
      <g>
       <use style="stroke:#000000;stroke-width:0.5;" x="129.176027397" xlink:href="#mc7db9fdffb" y="244.518125"/>
      </g>
     </g>
     <g id="line2d_14">
      <g>
       <use style="stroke:#000000;stroke-width:0.5;" x="129.176027397" xlink:href="#m5a7d422ac3" y="21.318125"/>
      </g>
     </g>
     <g id="text_3">
      <!-- 100 -->
      <defs>
       <path d="
M12.4062 8.29688
L28.5156 8.29688
L28.5156 63.9219
L10.9844 60.4062
L10.9844 69.3906
L28.4219 72.9062
L38.2812 72.9062
L38.2812 8.29688
L54.3906 8.29688
L54.3906 0
L12.4062 0
z
" id="BitstreamVeraSans-Roman-31"/>
      </defs>
      <g transform="translate(120.513527397 256.1165625)scale(0.1 -0.1)">
       <use xlink:href="#BitstreamVeraSans-Roman-31"/>
       <use x="63.623046875" xlink:href="#BitstreamVeraSans-Roman-30"/>
       <use x="127.24609375" xlink:href="#BitstreamVeraSans-Roman-30"/>
      </g>
     </g>
    </g>
    <g id="xtick_4">
     <g id="line2d_15">
      <g>
       <use style="stroke:#000000;stroke-width:0.5;" x="175.039041096" xlink:href="#mc7db9fdffb" y="244.518125"/>
      </g>
     </g>
     <g id="line2d_16">
      <g>
       <use style="stroke:#000000;stroke-width:0.5;" x="175.039041096" xlink:href="#m5a7d422ac3" y="21.318125"/>
      </g>
     </g>
     <g id="text_4">
      <!-- 150 -->
      <g transform="translate(166.376541096 256.1165625)scale(0.1 -0.1)">
       <use xlink:href="#BitstreamVeraSans-Roman-31"/>
       <use x="63.623046875" xlink:href="#BitstreamVeraSans-Roman-35"/>
       <use x="127.24609375" xlink:href="#BitstreamVeraSans-Roman-30"/>
      </g>
     </g>
    </g>
    <g id="xtick_5">
     <g id="line2d_17">
      <g>
       <use style="stroke:#000000;stroke-width:0.5;" x="220.902054795" xlink:href="#mc7db9fdffb" y="244.518125"/>
      </g>
     </g>
     <g id="line2d_18">
      <g>
       <use style="stroke:#000000;stroke-width:0.5;" x="220.902054795" xlink:href="#m5a7d422ac3" y="21.318125"/>
      </g>
     </g>
     <g id="text_5">
      <!-- 200 -->
      <defs>
       <path d="
M19.1875 8.29688
L53.6094 8.29688
L53.6094 0
L7.32812 0
L7.32812 8.29688
Q12.9375 14.1094 22.625 23.8906
Q32.3281 33.6875 34.8125 36.5312
Q39.5469 41.8438 41.4219 45.5312
Q43.3125 49.2188 43.3125 52.7812
Q43.3125 58.5938 39.2344 62.25
Q35.1562 65.9219 28.6094 65.9219
Q23.9688 65.9219 18.8125 64.3125
Q13.6719 62.7031 7.8125 59.4219
L7.8125 69.3906
Q13.7656 71.7812 18.9375 73
Q24.125 74.2188 28.4219 74.2188
Q39.75 74.2188 46.4844 68.5469
Q53.2188 62.8906 53.2188 53.4219
Q53.2188 48.9219 51.5312 44.8906
Q49.8594 40.875 45.4062 35.4062
Q44.1875 33.9844 37.6406 27.2188
Q31.1094 20.4531 19.1875 8.29688" id="BitstreamVeraSans-Roman-32"/>
      </defs>
      <g transform="translate(212.056742295 256.1165625)scale(0.1 -0.1)">
       <use xlink:href="#BitstreamVeraSans-Roman-32"/>
       <use x="63.623046875" xlink:href="#BitstreamVeraSans-Roman-30"/>
       <use x="127.24609375" xlink:href="#BitstreamVeraSans-Roman-30"/>
      </g>
     </g>
    </g>
    <g id="xtick_6">
     <g id="line2d_19">
      <g>
       <use style="stroke:#000000;stroke-width:0.5;" x="266.765068493" xlink:href="#mc7db9fdffb" y="244.518125"/>
      </g>
     </g>
     <g id="line2d_20">
      <g>
       <use style="stroke:#000000;stroke-width:0.5;" x="266.765068493" xlink:href="#m5a7d422ac3" y="21.318125"/>
      </g>
     </g>
     <g id="text_6">
      <!-- 250 -->
      <g transform="translate(257.919755993 256.1165625)scale(0.1 -0.1)">
       <use xlink:href="#BitstreamVeraSans-Roman-32"/>
       <use x="63.623046875" xlink:href="#BitstreamVeraSans-Roman-35"/>
       <use x="127.24609375" xlink:href="#BitstreamVeraSans-Roman-30"/>
      </g>
     </g>
    </g>
    <g id="xtick_7">
     <g id="line2d_21">
      <g>
       <use style="stroke:#000000;stroke-width:0.5;" x="312.628082192" xlink:href="#mc7db9fdffb" y="244.518125"/>
      </g>
     </g>
     <g id="line2d_22">
      <g>
       <use style="stroke:#000000;stroke-width:0.5;" x="312.628082192" xlink:href="#m5a7d422ac3" y="21.318125"/>
      </g>
     </g>
     <g id="text_7">
      <!-- 300 -->
      <defs>
       <path d="
M40.5781 39.3125
Q47.6562 37.7969 51.625 33
Q55.6094 28.2188 55.6094 21.1875
Q55.6094 10.4062 48.1875 4.48438
Q40.7656 -1.42188 27.0938 -1.42188
Q22.5156 -1.42188 17.6562 -0.515625
Q12.7969 0.390625 7.625 2.20312
L7.625 11.7188
Q11.7188 9.32812 16.5938 8.10938
Q21.4844 6.89062 26.8125 6.89062
Q36.0781 6.89062 40.9375 10.5469
Q45.7969 14.2031 45.7969 21.1875
Q45.7969 27.6406 41.2812 31.2656
Q36.7656 34.9062 28.7188 34.9062
L20.2188 34.9062
L20.2188 43.0156
L29.1094 43.0156
Q36.375 43.0156 40.2344 45.9219
Q44.0938 48.8281 44.0938 54.2969
Q44.0938 59.9062 40.1094 62.9062
Q36.1406 65.9219 28.7188 65.9219
Q24.6562 65.9219 20.0156 65.0312
Q15.375 64.1562 9.8125 62.3125
L9.8125 71.0938
Q15.4375 72.6562 20.3438 73.4375
Q25.25 74.2188 29.5938 74.2188
Q40.8281 74.2188 47.3594 69.1094
Q53.9062 64.0156 53.9062 55.3281
Q53.9062 49.2656 50.4375 45.0938
Q46.9688 40.9219 40.5781 39.3125" id="BitstreamVeraSans-Roman-33"/>
      </defs>
      <g transform="translate(303.797613442 256.1165625)scale(0.1 -0.1)">
       <use xlink:href="#BitstreamVeraSans-Roman-33"/>
       <use x="63.623046875" xlink:href="#BitstreamVeraSans-Roman-30"/>
       <use x="127.24609375" xlink:href="#BitstreamVeraSans-Roman-30"/>
      </g>
     </g>
    </g>
    <g id="xtick_8">
     <g id="line2d_23">
      <g>
       <use style="stroke:#000000;stroke-width:0.5;" x="358.49109589" xlink:href="#mc7db9fdffb" y="244.518125"/>
      </g>
     </g>
     <g id="line2d_24">
      <g>
       <use style="stroke:#000000;stroke-width:0.5;" x="358.49109589" xlink:href="#m5a7d422ac3" y="21.318125"/>
      </g>
     </g>
     <g id="text_8">
      <!-- 350 -->
      <g transform="translate(349.66062714 256.1165625)scale(0.1 -0.1)">
       <use xlink:href="#BitstreamVeraSans-Roman-33"/>
       <use x="63.623046875" xlink:href="#BitstreamVeraSans-Roman-35"/>
       <use x="127.24609375" xlink:href="#BitstreamVeraSans-Roman-30"/>
      </g>
     </g>
    </g>
    <g id="text_9">
     <!-- Julian day -->
     <defs>
      <path d="
M32.1719 -5.07812
Q28.375 -14.8438 24.75 -17.8125
Q21.1406 -20.7969 15.0938 -20.7969
L7.90625 -20.7969
L7.90625 -13.2812
L13.1875 -13.2812
Q16.8906 -13.2812 18.9375 -11.5156
Q21 -9.76562 23.4844 -3.21875
L25.0938 0.875
L2.98438 54.6875
L12.5 54.6875
L29.5938 11.9219
L46.6875 54.6875
L56.2031 54.6875
z
" id="BitstreamVeraSans-Roman-79"/>
      <path d="
M8.5 21.5781
L8.5 54.6875
L17.4844 54.6875
L17.4844 21.9219
Q17.4844 14.1562 20.5 10.2656
Q23.5312 6.39062 29.5938 6.39062
Q36.8594 6.39062 41.0781 11.0312
Q45.3125 15.6719 45.3125 23.6875
L45.3125 54.6875
L54.2969 54.6875
L54.2969 0
L45.3125 0
L45.3125 8.40625
Q42.0469 3.42188 37.7188 1
Q33.4062 -1.42188 27.6875 -1.42188
Q18.2656 -1.42188 13.375 4.4375
Q8.5 10.2969 8.5 21.5781" id="BitstreamVeraSans-Roman-75"/>
      <path d="
M9.42188 75.9844
L18.4062 75.9844
L18.4062 0
L9.42188 0
z
" id="BitstreamVeraSans-Roman-6c"/>
      <path id="BitstreamVeraSans-Roman-20"/>
      <path d="
M54.8906 33.0156
L54.8906 0
L45.9062 0
L45.9062 32.7188
Q45.9062 40.4844 42.875 44.3281
Q39.8438 48.1875 33.7969 48.1875
Q26.5156 48.1875 22.3125 43.5469
Q18.1094 38.9219 18.1094 30.9062
L18.1094 0
L9.07812 0
L9.07812 54.6875
L18.1094 54.6875
L18.1094 46.1875
Q21.3438 51.125 25.7031 53.5625
Q30.0781 56 35.7969 56
Q45.2188 56 50.0469 50.1719
Q54.8906 44.3438 54.8906 33.0156" id="BitstreamVeraSans-Roman-6e"/>
      <path d="
M9.42188 54.6875
L18.4062 54.6875
L18.4062 0
L9.42188 0
z

M9.42188 75.9844
L18.4062 75.9844
L18.4062 64.5938
L9.42188 64.5938
z
" id="BitstreamVeraSans-Roman-69"/>
      <path d="
M34.2812 27.4844
Q23.3906 27.4844 19.1875 25
Q14.9844 22.5156 14.9844 16.5
Q14.9844 11.7188 18.1406 8.90625
Q21.2969 6.10938 26.7031 6.10938
Q34.1875 6.10938 38.7031 11.4062
Q43.2188 16.7031 43.2188 25.4844
L43.2188 27.4844
z

M52.2031 31.2031
L52.2031 0
L43.2188 0
L43.2188 8.29688
Q40.1406 3.32812 35.5469 0.953125
Q30.9531 -1.42188 24.3125 -1.42188
Q15.9219 -1.42188 10.9531 3.29688
Q6 8.01562 6 15.9219
Q6 25.1406 12.1719 29.8281
Q18.3594 34.5156 30.6094 34.5156
L43.2188 34.5156
L43.2188 35.4062
Q43.2188 41.6094 39.1406 45
Q35.0625 48.3906 27.6875 48.3906
Q23 48.3906 18.5469 47.2656
Q14.1094 46.1406 10.0156 43.8906
L10.0156 52.2031
Q14.9375 54.1094 19.5781 55.0469
Q24.2188 56 28.6094 56
Q40.4844 56 46.3438 49.8438
Q52.2031 43.7031 52.2031 31.2031" id="BitstreamVeraSans-Roman-61"/>
      <path d="
M45.4062 46.3906
L45.4062 75.9844
L54.3906 75.9844
L54.3906 0
L45.4062 0
L45.4062 8.20312
Q42.5781 3.32812 38.25 0.953125
Q33.9375 -1.42188 27.875 -1.42188
Q17.9688 -1.42188 11.7344 6.48438
Q5.51562 14.4062 5.51562 27.2969
Q5.51562 40.1875 11.7344 48.0938
Q17.9688 56 27.875 56
Q33.9375 56 38.25 53.625
Q42.5781 51.2656 45.4062 46.3906
M14.7969 27.2969
Q14.7969 17.3906 18.875 11.75
Q22.9531 6.10938 30.0781 6.10938
Q37.2031 6.10938 41.2969 11.75
Q45.4062 17.3906 45.4062 27.2969
Q45.4062 37.2031 41.2969 42.8438
Q37.2031 48.4844 30.0781 48.4844
Q22.9531 48.4844 18.875 42.8438
Q14.7969 37.2031 14.7969 27.2969" id="BitstreamVeraSans-Roman-64"/>
      <path d="
M9.8125 72.9062
L19.6719 72.9062
L19.6719 5.07812
Q19.6719 -8.10938 14.6719 -14.0625
Q9.67188 -20.0156 -1.42188 -20.0156
L-5.17188 -20.0156
L-5.17188 -11.7188
L-2.09375 -11.7188
Q4.4375 -11.7188 7.125 -8.04688
Q9.8125 -4.39062 9.8125 5.07812
z
" id="BitstreamVeraSans-Roman-4a"/>
     </defs>
     <g transform="translate(180.29921875 270.7946875)scale(0.1 -0.1)">
      <use xlink:href="#BitstreamVeraSans-Roman-4a"/>
      <use x="29.4921875" xlink:href="#BitstreamVeraSans-Roman-75"/>
      <use x="92.87109375" xlink:href="#BitstreamVeraSans-Roman-6c"/>
      <use x="120.654296875" xlink:href="#BitstreamVeraSans-Roman-69"/>
      <use x="148.4375" xlink:href="#BitstreamVeraSans-Roman-61"/>
      <use x="209.716796875" xlink:href="#BitstreamVeraSans-Roman-6e"/>
      <use x="273.095703125" xlink:href="#BitstreamVeraSans-Roman-20"/>
      <use x="304.8828125" xlink:href="#BitstreamVeraSans-Roman-64"/>
      <use x="368.359375" xlink:href="#BitstreamVeraSans-Roman-61"/>
      <use x="429.638671875" xlink:href="#BitstreamVeraSans-Roman-79"/>
     </g>
    </g>
   </g>
   <g id="matplotlib.axis_2">
    <g id="ytick_1">
     <g id="line2d_25">
      <defs>
       <path d="
M0 0
L4 0" id="md7965d1ba0" style="stroke:#000000;stroke-width:0.5;"/>
      </defs>
      <g>
       <use style="stroke:#000000;stroke-width:0.5;" x="37.45" xlink:href="#md7965d1ba0" y="244.518125"/>
      </g>
     </g>
     <g id="line2d_26">
      <defs>
       <path d="
M0 0
L-4 0" id="md9a1c1a7cd" style="stroke:#000000;stroke-width:0.5;"/>
      </defs>
      <g>
       <use style="stroke:#000000;stroke-width:0.5;" x="372.25" xlink:href="#md9a1c1a7cd" y="244.518125"/>
      </g>
     </g>
     <g id="text_10">
      <!-- 0 -->
      <g transform="translate(28.4109375 247.2775)scale(0.1 -0.1)">
       <use xlink:href="#BitstreamVeraSans-Roman-30"/>
      </g>
     </g>
    </g>
    <g id="ytick_2">
     <g id="line2d_27">
      <g>
       <use style="stroke:#000000;stroke-width:0.5;" x="37.45" xlink:href="#md7965d1ba0" y="219.718125"/>
      </g>
     </g>
     <g id="line2d_28">
      <g>
       <use style="stroke:#000000;stroke-width:0.5;" x="372.25" xlink:href="#md9a1c1a7cd" y="219.718125"/>
      </g>
     </g>
     <g id="text_11">
      <!-- 10 -->
      <g transform="translate(22.4875 222.4775)scale(0.1 -0.1)">
       <use xlink:href="#BitstreamVeraSans-Roman-31"/>
       <use x="63.623046875" xlink:href="#BitstreamVeraSans-Roman-30"/>
      </g>
     </g>
    </g>
    <g id="ytick_3">
     <g id="line2d_29">
      <g>
       <use style="stroke:#000000;stroke-width:0.5;" x="37.45" xlink:href="#md7965d1ba0" y="194.918125"/>
      </g>
     </g>
     <g id="line2d_30">
      <g>
       <use style="stroke:#000000;stroke-width:0.5;" x="372.25" xlink:href="#md9a1c1a7cd" y="194.918125"/>
      </g>
     </g>
     <g id="text_12">
      <!-- 20 -->
      <g transform="translate(22.121875 197.6775)scale(0.1 -0.1)">
       <use xlink:href="#BitstreamVeraSans-Roman-32"/>
       <use x="63.623046875" xlink:href="#BitstreamVeraSans-Roman-30"/>
      </g>
     </g>
    </g>
    <g id="ytick_4">
     <g id="line2d_31">
      <g>
       <use style="stroke:#000000;stroke-width:0.5;" x="37.45" xlink:href="#md7965d1ba0" y="170.118125"/>
      </g>
     </g>
     <g id="line2d_32">
      <g>
       <use style="stroke:#000000;stroke-width:0.5;" x="372.25" xlink:href="#md9a1c1a7cd" y="170.118125"/>
      </g>
     </g>
     <g id="text_13">
      <!-- 30 -->
      <g transform="translate(22.1515625 172.8775)scale(0.1 -0.1)">
       <use xlink:href="#BitstreamVeraSans-Roman-33"/>
       <use x="63.623046875" xlink:href="#BitstreamVeraSans-Roman-30"/>
      </g>
     </g>
    </g>
    <g id="ytick_5">
     <g id="line2d_33">
      <g>
       <use style="stroke:#000000;stroke-width:0.5;" x="37.45" xlink:href="#md7965d1ba0" y="145.318125"/>
      </g>
     </g>
     <g id="line2d_34">
      <g>
       <use style="stroke:#000000;stroke-width:0.5;" x="372.25" xlink:href="#md9a1c1a7cd" y="145.318125"/>
      </g>
     </g>
     <g id="text_14">
      <!-- 40 -->
      <defs>
       <path d="
M37.7969 64.3125
L12.8906 25.3906
L37.7969 25.3906
z

M35.2031 72.9062
L47.6094 72.9062
L47.6094 25.3906
L58.0156 25.3906
L58.0156 17.1875
L47.6094 17.1875
L47.6094 0
L37.7969 0
L37.7969 17.1875
L4.89062 17.1875
L4.89062 26.7031
z
" id="BitstreamVeraSans-Roman-34"/>
      </defs>
      <g transform="translate(21.878125 148.0775)scale(0.1 -0.1)">
       <use xlink:href="#BitstreamVeraSans-Roman-34"/>
       <use x="63.623046875" xlink:href="#BitstreamVeraSans-Roman-30"/>
      </g>
     </g>
    </g>
    <g id="ytick_6">
     <g id="line2d_35">
      <g>
       <use style="stroke:#000000;stroke-width:0.5;" x="37.45" xlink:href="#md7965d1ba0" y="120.518125"/>
      </g>
     </g>
     <g id="line2d_36">
      <g>
       <use style="stroke:#000000;stroke-width:0.5;" x="372.25" xlink:href="#md9a1c1a7cd" y="120.518125"/>
      </g>
     </g>
     <g id="text_15">
      <!-- 50 -->
      <g transform="translate(22.1609375 123.2775)scale(0.1 -0.1)">
       <use xlink:href="#BitstreamVeraSans-Roman-35"/>
       <use x="63.623046875" xlink:href="#BitstreamVeraSans-Roman-30"/>
      </g>
     </g>
    </g>
    <g id="ytick_7">
     <g id="line2d_37">
      <g>
       <use style="stroke:#000000;stroke-width:0.5;" x="37.45" xlink:href="#md7965d1ba0" y="95.718125"/>
      </g>
     </g>
     <g id="line2d_38">
      <g>
       <use style="stroke:#000000;stroke-width:0.5;" x="372.25" xlink:href="#md9a1c1a7cd" y="95.718125"/>
      </g>
     </g>
     <g id="text_16">
      <!-- 60 -->
      <defs>
       <path d="
M33.0156 40.375
Q26.375 40.375 22.4844 35.8281
Q18.6094 31.2969 18.6094 23.3906
Q18.6094 15.5312 22.4844 10.9531
Q26.375 6.39062 33.0156 6.39062
Q39.6562 6.39062 43.5312 10.9531
Q47.4062 15.5312 47.4062 23.3906
Q47.4062 31.2969 43.5312 35.8281
Q39.6562 40.375 33.0156 40.375
M52.5938 71.2969
L52.5938 62.3125
Q48.875 64.0625 45.0938 64.9844
Q41.3125 65.9219 37.5938 65.9219
Q27.8281 65.9219 22.6719 59.3281
Q17.5312 52.7344 16.7969 39.4062
Q19.6719 43.6562 24.0156 45.9219
Q28.375 48.1875 33.5938 48.1875
Q44.5781 48.1875 50.9531 41.5156
Q57.3281 34.8594 57.3281 23.3906
Q57.3281 12.1562 50.6875 5.35938
Q44.0469 -1.42188 33.0156 -1.42188
Q20.3594 -1.42188 13.6719 8.26562
Q6.98438 17.9688 6.98438 36.375
Q6.98438 53.6562 15.1875 63.9375
Q23.3906 74.2188 37.2031 74.2188
Q40.9219 74.2188 44.7031 73.4844
Q48.4844 72.75 52.5938 71.2969" id="BitstreamVeraSans-Roman-36"/>
      </defs>
      <g transform="translate(22.0875 98.4775)scale(0.1 -0.1)">
       <use xlink:href="#BitstreamVeraSans-Roman-36"/>
       <use x="63.623046875" xlink:href="#BitstreamVeraSans-Roman-30"/>
      </g>
     </g>
    </g>
    <g id="ytick_8">
     <g id="line2d_39">
      <g>
       <use style="stroke:#000000;stroke-width:0.5;" x="37.45" xlink:href="#md7965d1ba0" y="70.918125"/>
      </g>
     </g>
     <g id="line2d_40">
      <g>
       <use style="stroke:#000000;stroke-width:0.5;" x="372.25" xlink:href="#md9a1c1a7cd" y="70.918125"/>
      </g>
     </g>
     <g id="text_17">
      <!-- 70 -->
      <defs>
       <path d="
M8.20312 72.9062
L55.0781 72.9062
L55.0781 68.7031
L28.6094 0
L18.3125 0
L43.2188 64.5938
L8.20312 64.5938
z
" id="BitstreamVeraSans-Roman-37"/>
      </defs>
      <g transform="translate(22.209375 73.6775)scale(0.1 -0.1)">
       <use xlink:href="#BitstreamVeraSans-Roman-37"/>
       <use x="63.623046875" xlink:href="#BitstreamVeraSans-Roman-30"/>
      </g>
     </g>
    </g>
    <g id="ytick_9">
     <g id="line2d_41">
      <g>
       <use style="stroke:#000000;stroke-width:0.5;" x="37.45" xlink:href="#md7965d1ba0" y="46.118125"/>
      </g>
     </g>
     <g id="line2d_42">
      <g>
       <use style="stroke:#000000;stroke-width:0.5;" x="372.25" xlink:href="#md9a1c1a7cd" y="46.118125"/>
      </g>
     </g>
     <g id="text_18">
      <!-- 80 -->
      <defs>
       <path d="
M31.7812 34.625
Q24.75 34.625 20.7188 30.8594
Q16.7031 27.0938 16.7031 20.5156
Q16.7031 13.9219 20.7188 10.1562
Q24.75 6.39062 31.7812 6.39062
Q38.8125 6.39062 42.8594 10.1719
Q46.9219 13.9688 46.9219 20.5156
Q46.9219 27.0938 42.8906 30.8594
Q38.875 34.625 31.7812 34.625
M21.9219 38.8125
Q15.5781 40.375 12.0312 44.7188
Q8.5 49.0781 8.5 55.3281
Q8.5 64.0625 14.7188 69.1406
Q20.9531 74.2188 31.7812 74.2188
Q42.6719 74.2188 48.875 69.1406
Q55.0781 64.0625 55.0781 55.3281
Q55.0781 49.0781 51.5312 44.7188
Q48 40.375 41.7031 38.8125
Q48.8281 37.1562 52.7969 32.3125
Q56.7812 27.4844 56.7812 20.5156
Q56.7812 9.90625 50.3125 4.23438
Q43.8438 -1.42188 31.7812 -1.42188
Q19.7344 -1.42188 13.25 4.23438
Q6.78125 9.90625 6.78125 20.5156
Q6.78125 27.4844 10.7812 32.3125
Q14.7969 37.1562 21.9219 38.8125
M18.3125 54.3906
Q18.3125 48.7344 21.8438 45.5625
Q25.3906 42.3906 31.7812 42.3906
Q38.1406 42.3906 41.7188 45.5625
Q45.3125 48.7344 45.3125 54.3906
Q45.3125 60.0625 41.7188 63.2344
Q38.1406 66.4062 31.7812 66.4062
Q25.3906 66.4062 21.8438 63.2344
Q18.3125 60.0625 18.3125 54.3906" id="BitstreamVeraSans-Roman-38"/>
      </defs>
      <g transform="translate(22.0671875 48.8775)scale(0.1 -0.1)">
       <use xlink:href="#BitstreamVeraSans-Roman-38"/>
       <use x="63.623046875" xlink:href="#BitstreamVeraSans-Roman-30"/>
      </g>
     </g>
    </g>
    <g id="ytick_10">
     <g id="line2d_43">
      <g>
       <use style="stroke:#000000;stroke-width:0.5;" x="37.45" xlink:href="#md7965d1ba0" y="21.318125"/>
      </g>
     </g>
     <g id="line2d_44">
      <g>
       <use style="stroke:#000000;stroke-width:0.5;" x="372.25" xlink:href="#md9a1c1a7cd" y="21.318125"/>
      </g>
     </g>
     <g id="text_19">
      <!-- 90 -->
      <defs>
       <path d="
M10.9844 1.51562
L10.9844 10.5
Q14.7031 8.73438 18.5 7.8125
Q22.3125 6.89062 25.9844 6.89062
Q35.75 6.89062 40.8906 13.4531
Q46.0469 20.0156 46.7812 33.4062
Q43.9531 29.2031 39.5938 26.9531
Q35.25 24.7031 29.9844 24.7031
Q19.0469 24.7031 12.6719 31.3125
Q6.29688 37.9375 6.29688 49.4219
Q6.29688 60.6406 12.9375 67.4219
Q19.5781 74.2188 30.6094 74.2188
Q43.2656 74.2188 49.9219 64.5156
Q56.5938 54.8281 56.5938 36.375
Q56.5938 19.1406 48.4062 8.85938
Q40.2344 -1.42188 26.4219 -1.42188
Q22.7031 -1.42188 18.8906 -0.6875
Q15.0938 0.046875 10.9844 1.51562
M30.6094 32.4219
Q37.25 32.4219 41.125 36.9531
Q45.0156 41.5 45.0156 49.4219
Q45.0156 57.2812 41.125 61.8438
Q37.25 66.4062 30.6094 66.4062
Q23.9688 66.4062 20.0938 61.8438
Q16.2188 57.2812 16.2188 49.4219
Q16.2188 41.5 20.0938 36.9531
Q23.9688 32.4219 30.6094 32.4219" id="BitstreamVeraSans-Roman-39"/>
      </defs>
      <g transform="translate(22.01875 24.0775)scale(0.1 -0.1)">
       <use xlink:href="#BitstreamVeraSans-Roman-39"/>
       <use x="63.623046875" xlink:href="#BitstreamVeraSans-Roman-30"/>
      </g>
     </g>
    </g>
    <g id="text_20">
     <!-- PET (mm/day) -->
     <defs>
      <path d="
M8.01562 75.875
L15.8281 75.875
Q23.1406 64.3594 26.7812 53.3125
Q30.4219 42.2812 30.4219 31.3906
Q30.4219 20.4531 26.7812 9.375
Q23.1406 -1.70312 15.8281 -13.1875
L8.01562 -13.1875
Q14.5 -2 17.7031 9.0625
Q20.9062 20.125 20.9062 31.3906
Q20.9062 42.6719 17.7031 53.6562
Q14.5 64.6562 8.01562 75.875" id="BitstreamVeraSans-Roman-29"/>
      <path d="
M52 44.1875
Q55.375 50.25 60.0625 53.125
Q64.75 56 71.0938 56
Q79.6406 56 84.2812 50.0156
Q88.9219 44.0469 88.9219 33.0156
L88.9219 0
L79.8906 0
L79.8906 32.7188
Q79.8906 40.5781 77.0938 44.375
Q74.3125 48.1875 68.6094 48.1875
Q61.625 48.1875 57.5625 43.5469
Q53.5156 38.9219 53.5156 30.9062
L53.5156 0
L44.4844 0
L44.4844 32.7188
Q44.4844 40.625 41.7031 44.4062
Q38.9219 48.1875 33.1094 48.1875
Q26.2188 48.1875 22.1562 43.5312
Q18.1094 38.875 18.1094 30.9062
L18.1094 0
L9.07812 0
L9.07812 54.6875
L18.1094 54.6875
L18.1094 46.1875
Q21.1875 51.2188 25.4844 53.6094
Q29.7812 56 35.6875 56
Q41.6562 56 45.8281 52.9688
Q50 49.9531 52 44.1875" id="BitstreamVeraSans-Roman-6d"/>
      <path d="
M-0.296875 72.9062
L61.375 72.9062
L61.375 64.5938
L35.5 64.5938
L35.5 0
L25.5938 0
L25.5938 64.5938
L-0.296875 64.5938
z
" id="BitstreamVeraSans-Roman-54"/>
      <path d="
M19.6719 64.7969
L19.6719 37.4062
L32.0781 37.4062
Q38.9688 37.4062 42.7188 40.9688
Q46.4844 44.5312 46.4844 51.125
Q46.4844 57.6719 42.7188 61.2344
Q38.9688 64.7969 32.0781 64.7969
z

M9.8125 72.9062
L32.0781 72.9062
Q44.3438 72.9062 50.6094 67.3594
Q56.8906 61.8125 56.8906 51.125
Q56.8906 40.3281 50.6094 34.8125
Q44.3438 29.2969 32.0781 29.2969
L19.6719 29.2969
L19.6719 0
L9.8125 0
z
" id="BitstreamVeraSans-Roman-50"/>
      <path d="
M9.8125 72.9062
L55.9062 72.9062
L55.9062 64.5938
L19.6719 64.5938
L19.6719 43.0156
L54.3906 43.0156
L54.3906 34.7188
L19.6719 34.7188
L19.6719 8.29688
L56.7812 8.29688
L56.7812 0
L9.8125 0
z
" id="BitstreamVeraSans-Roman-45"/>
      <path d="
M31 75.875
Q24.4688 64.6562 21.2812 53.6562
Q18.1094 42.6719 18.1094 31.3906
Q18.1094 20.125 21.3125 9.0625
Q24.5156 -2 31 -13.1875
L23.1875 -13.1875
Q15.875 -1.70312 12.2344 9.375
Q8.59375 20.4531 8.59375 31.3906
Q8.59375 42.2812 12.2031 53.3125
Q15.8281 64.3594 23.1875 75.875
z
" id="BitstreamVeraSans-Roman-28"/>
      <path d="
M25.3906 72.9062
L33.6875 72.9062
L8.29688 -9.28125
L0 -9.28125
z
" id="BitstreamVeraSans-Roman-2f"/>
     </defs>
     <g transform="translate(14.7984375 167.82984375)rotate(-90.0)scale(0.1 -0.1)">
      <use xlink:href="#BitstreamVeraSans-Roman-50"/>
      <use x="60.302734375" xlink:href="#BitstreamVeraSans-Roman-45"/>
      <use x="123.486328125" xlink:href="#BitstreamVeraSans-Roman-54"/>
      <use x="184.5703125" xlink:href="#BitstreamVeraSans-Roman-20"/>
      <use x="216.357421875" xlink:href="#BitstreamVeraSans-Roman-28"/>
      <use x="255.37109375" xlink:href="#BitstreamVeraSans-Roman-6d"/>
      <use x="352.783203125" xlink:href="#BitstreamVeraSans-Roman-6d"/>
      <use x="450.1953125" xlink:href="#BitstreamVeraSans-Roman-2f"/>
      <use x="483.88671875" xlink:href="#BitstreamVeraSans-Roman-64"/>
      <use x="547.36328125" xlink:href="#BitstreamVeraSans-Roman-61"/>
      <use x="608.642578125" xlink:href="#BitstreamVeraSans-Roman-79"/>
      <use x="667.822265625" xlink:href="#BitstreamVeraSans-Roman-29"/>
     </g>
    </g>
   </g>
   <g id="text_21">
    <!-- daily tree PET at LDP -->
    <defs>
     <path d="
M56.2031 29.5938
L56.2031 25.2031
L14.8906 25.2031
Q15.4844 15.9219 20.4844 11.0625
Q25.4844 6.20312 34.4219 6.20312
Q39.5938 6.20312 44.4531 7.46875
Q49.3125 8.73438 54.1094 11.2812
L54.1094 2.78125
Q49.2656 0.734375 44.1875 -0.34375
Q39.1094 -1.42188 33.8906 -1.42188
Q20.7969 -1.42188 13.1562 6.1875
Q5.51562 13.8125 5.51562 26.8125
Q5.51562 40.2344 12.7656 48.1094
Q20.0156 56 32.3281 56
Q43.3594 56 49.7812 48.8906
Q56.2031 41.7969 56.2031 29.5938
M47.2188 32.2344
Q47.125 39.5938 43.0938 43.9844
Q39.0625 48.3906 32.4219 48.3906
Q24.9062 48.3906 20.3906 44.1406
Q15.875 39.8906 15.1875 32.1719
z
" id="BitstreamVeraSans-Roman-65"/>
     <path d="
M19.6719 64.7969
L19.6719 8.10938
L31.5938 8.10938
Q46.6875 8.10938 53.6875 14.9375
Q60.6875 21.7812 60.6875 36.5312
Q60.6875 51.1719 53.6875 57.9844
Q46.6875 64.7969 31.5938 64.7969
z

M9.8125 72.9062
L30.0781 72.9062
Q51.2656 72.9062 61.1719 64.0938
Q71.0938 55.2812 71.0938 36.5312
Q71.0938 17.6719 61.125 8.82812
Q51.1719 0 30.0781 0
L9.8125 0
z
" id="BitstreamVeraSans-Roman-44"/>
     <path d="
M9.8125 72.9062
L19.6719 72.9062
L19.6719 8.29688
L55.1719 8.29688
L55.1719 0
L9.8125 0
z
" id="BitstreamVeraSans-Roman-4c"/>
     <path d="
M41.1094 46.2969
Q39.5938 47.1719 37.8125 47.5781
Q36.0312 48 33.8906 48
Q26.2656 48 22.1875 43.0469
Q18.1094 38.0938 18.1094 28.8125
L18.1094 0
L9.07812 0
L9.07812 54.6875
L18.1094 54.6875
L18.1094 46.1875
Q20.9531 51.1719 25.4844 53.5781
Q30.0312 56 36.5312 56
Q37.4531 56 38.5781 55.875
Q39.7031 55.7656 41.0625 55.5156
z
" id="BitstreamVeraSans-Roman-72"/>
     <path d="
M18.3125 70.2188
L18.3125 54.6875
L36.8125 54.6875
L36.8125 47.7031
L18.3125 47.7031
L18.3125 18.0156
Q18.3125 11.3281 20.1406 9.42188
Q21.9688 7.51562 27.5938 7.51562
L36.8125 7.51562
L36.8125 0
L27.5938 0
Q17.1875 0 13.2344 3.875
Q9.28125 7.76562 9.28125 18.0156
L9.28125 47.7031
L2.6875 47.7031
L2.6875 54.6875
L9.28125 54.6875
L9.28125 70.2188
z
" id="BitstreamVeraSans-Roman-74"/>
    </defs>
    <g transform="translate(142.3046875 16.318125)scale(0.12 -0.12)">
     <use xlink:href="#BitstreamVeraSans-Roman-64"/>
     <use x="63.4765625" xlink:href="#BitstreamVeraSans-Roman-61"/>
     <use x="124.755859375" xlink:href="#BitstreamVeraSans-Roman-69"/>
     <use x="152.5390625" xlink:href="#BitstreamVeraSans-Roman-6c"/>
     <use x="180.322265625" xlink:href="#BitstreamVeraSans-Roman-79"/>
     <use x="239.501953125" xlink:href="#BitstreamVeraSans-Roman-20"/>
     <use x="271.2890625" xlink:href="#BitstreamVeraSans-Roman-74"/>
     <use x="310.498046875" xlink:href="#BitstreamVeraSans-Roman-72"/>
     <use x="349.361328125" xlink:href="#BitstreamVeraSans-Roman-65"/>
     <use x="410.884765625" xlink:href="#BitstreamVeraSans-Roman-65"/>
     <use x="472.408203125" xlink:href="#BitstreamVeraSans-Roman-20"/>
     <use x="504.1953125" xlink:href="#BitstreamVeraSans-Roman-50"/>
     <use x="564.498046875" xlink:href="#BitstreamVeraSans-Roman-45"/>
     <use x="627.681640625" xlink:href="#BitstreamVeraSans-Roman-54"/>
     <use x="688.765625" xlink:href="#BitstreamVeraSans-Roman-20"/>
     <use x="720.552734375" xlink:href="#BitstreamVeraSans-Roman-61"/>
     <use x="781.83203125" xlink:href="#BitstreamVeraSans-Roman-74"/>
     <use x="821.041015625" xlink:href="#BitstreamVeraSans-Roman-20"/>
     <use x="852.828125" xlink:href="#BitstreamVeraSans-Roman-4c"/>
     <use x="908.541015625" xlink:href="#BitstreamVeraSans-Roman-44"/>
     <use x="985.54296875" xlink:href="#BitstreamVeraSans-Roman-50"/>
    </g>
   </g>
   <g id="legend_1">
    <g id="patch_7">
     <path d="
M294.062 171.828
L366.25 171.828
L366.25 27.3181
L294.062 27.3181
z
" style="fill:#ffffff;stroke:#000000;stroke-linejoin:miter;"/>
    </g>
    <g id="line2d_45">
     <path d="
M302.463 37.0363
L319.262 37.0363" style="fill:none;stroke:#0000ff;stroke-linecap:square;"/>
    </g>
    <g id="line2d_46"/>
    <g id="text_22">
     <!-- 2007 -->
     <g transform="translate(332.4625 41.23625)scale(0.12 -0.12)">
      <use xlink:href="#BitstreamVeraSans-Roman-32"/>
      <use x="63.623046875" xlink:href="#BitstreamVeraSans-Roman-30"/>
      <use x="127.24609375" xlink:href="#BitstreamVeraSans-Roman-30"/>
      <use x="190.869140625" xlink:href="#BitstreamVeraSans-Roman-37"/>
     </g>
    </g>
    <g id="line2d_47">
     <path d="
M302.463 54.65
L319.262 54.65" style="fill:none;stroke:#008000;stroke-linecap:square;"/>
    </g>
    <g id="line2d_48"/>
    <g id="text_23">
     <!-- 2008 -->
     <g transform="translate(332.4625 58.85)scale(0.12 -0.12)">
      <use xlink:href="#BitstreamVeraSans-Roman-32"/>
      <use x="63.623046875" xlink:href="#BitstreamVeraSans-Roman-30"/>
      <use x="127.24609375" xlink:href="#BitstreamVeraSans-Roman-30"/>
      <use x="190.869140625" xlink:href="#BitstreamVeraSans-Roman-38"/>
     </g>
    </g>
    <g id="line2d_49">
     <path d="
M302.463 72.2638
L319.262 72.2638" style="fill:none;stroke:#ff0000;stroke-linecap:square;"/>
    </g>
    <g id="line2d_50"/>
    <g id="text_24">
     <!-- 2009 -->
     <g transform="translate(332.4625 76.46375)scale(0.12 -0.12)">
      <use xlink:href="#BitstreamVeraSans-Roman-32"/>
      <use x="63.623046875" xlink:href="#BitstreamVeraSans-Roman-30"/>
      <use x="127.24609375" xlink:href="#BitstreamVeraSans-Roman-30"/>
      <use x="190.869140625" xlink:href="#BitstreamVeraSans-Roman-39"/>
     </g>
    </g>
    <g id="line2d_51">
     <path d="
M302.463 89.8775
L319.262 89.8775" style="fill:none;stroke:#00bfbf;stroke-linecap:square;"/>
    </g>
    <g id="line2d_52"/>
    <g id="text_25">
     <!-- 2010 -->
     <g transform="translate(332.4625 94.0775)scale(0.12 -0.12)">
      <use xlink:href="#BitstreamVeraSans-Roman-32"/>
      <use x="63.623046875" xlink:href="#BitstreamVeraSans-Roman-30"/>
      <use x="127.24609375" xlink:href="#BitstreamVeraSans-Roman-31"/>
      <use x="190.869140625" xlink:href="#BitstreamVeraSans-Roman-30"/>
     </g>
    </g>
    <g id="line2d_53">
     <path d="
M302.463 107.491
L319.262 107.491" style="fill:none;stroke:#bf00bf;stroke-linecap:square;"/>
    </g>
    <g id="line2d_54"/>
    <g id="text_26">
     <!-- 2011 -->
     <g transform="translate(332.4625 111.69125)scale(0.12 -0.12)">
      <use xlink:href="#BitstreamVeraSans-Roman-32"/>
      <use x="63.623046875" xlink:href="#BitstreamVeraSans-Roman-30"/>
      <use x="127.24609375" xlink:href="#BitstreamVeraSans-Roman-31"/>
      <use x="190.869140625" xlink:href="#BitstreamVeraSans-Roman-31"/>
     </g>
    </g>
    <g id="line2d_55">
     <path d="
M302.463 125.105
L319.262 125.105" style="fill:none;stroke:#bfbf00;stroke-linecap:square;"/>
    </g>
    <g id="line2d_56"/>
    <g id="text_27">
     <!-- 2012 -->
     <g transform="translate(332.4625 129.305)scale(0.12 -0.12)">
      <use xlink:href="#BitstreamVeraSans-Roman-32"/>
      <use x="63.623046875" xlink:href="#BitstreamVeraSans-Roman-30"/>
      <use x="127.24609375" xlink:href="#BitstreamVeraSans-Roman-31"/>
      <use x="190.869140625" xlink:href="#BitstreamVeraSans-Roman-32"/>
     </g>
    </g>
    <g id="line2d_57">
     <path d="
M302.463 142.719
L319.262 142.719" style="fill:none;stroke:#000000;stroke-linecap:square;"/>
    </g>
    <g id="line2d_58"/>
    <g id="text_28">
     <!-- 2013 -->
     <g transform="translate(332.4625 146.91875)scale(0.12 -0.12)">
      <use xlink:href="#BitstreamVeraSans-Roman-32"/>
      <use x="63.623046875" xlink:href="#BitstreamVeraSans-Roman-30"/>
      <use x="127.24609375" xlink:href="#BitstreamVeraSans-Roman-31"/>
      <use x="190.869140625" xlink:href="#BitstreamVeraSans-Roman-33"/>
     </g>
    </g>
    <g id="line2d_59">
     <path d="
M302.463 160.333
L319.262 160.333" style="fill:none;stroke:#0000ff;stroke-linecap:square;"/>
    </g>
    <g id="line2d_60"/>
    <g id="text_29">
     <!-- 2014 -->
     <g transform="translate(332.4625 164.5325)scale(0.12 -0.12)">
      <use xlink:href="#BitstreamVeraSans-Roman-32"/>
      <use x="63.623046875" xlink:href="#BitstreamVeraSans-Roman-30"/>
      <use x="127.24609375" xlink:href="#BitstreamVeraSans-Roman-31"/>
      <use x="190.869140625" xlink:href="#BitstreamVeraSans-Roman-34"/>
     </g>
    </g>
   </g>
  </g>
 </g>
 <defs>
  <clipPath id="p241ef2d1d3">
   <rect height="223.2" width="334.8" x="37.45" y="21.318125"/>
  </clipPath>
 </defs>
</svg>
