<?xml version="1.0" encoding="utf-8" standalone="no"?>
<!DOCTYPE svg PUBLIC "-//W3C//DTD SVG 1.1//EN"
  "http://www.w3.org/Graphics/SVG/1.1/DTD/svg11.dtd">
<!-- Created with matplotlib (http://matplotlib.org/) -->
<svg height="277pt" version="1.1" viewBox="0 0 371 277" width="371pt" xmlns="http://www.w3.org/2000/svg" xmlns:xlink="http://www.w3.org/1999/xlink">
 <defs>
  <style type="text/css">
*{stroke-linecap:butt;stroke-linejoin:round;}
  </style>
 </defs>
 <g id="figure_1">
  <g id="patch_1">
   <path d="
M0 277.227
L371.692 277.227
L371.692 0
L0 0
z
" style="fill:#ffffff;"/>
  </g>
  <g id="axes_1">
   <g id="patch_2">
    <path d="
M29.6916 243.606
L364.492 243.606
L364.492 20.4063
L29.6916 20.4063
z
" style="fill:#ffffff;"/>
   </g>
   <g id="line2d_1">
    <path clip-path="url(#p69096553e2)" d="
M0 0" style="fill:none;stroke:#0000ff;stroke-linecap:square;"/>
   </g>
   <g id="line2d_2">
    <path clip-path="url(#p69096553e2)" d="
M0 0" style="fill:none;stroke:#008000;stroke-linecap:square;"/>
   </g>
   <g id="line2d_3">
    <path clip-path="url(#p69096553e2)" d="
M0 0" style="fill:none;stroke:#ff0000;stroke-linecap:square;"/>
   </g>
   <g id="line2d_4">
    <path clip-path="url(#p69096553e2)" d="
M31.5261 233.964
L32.4433 156.663
L33.3606 233.12
L34.2779 221.116
L35.1951 224.715
L36.1124 144.612
L37.0296 165.149
L37.9469 215.098
L38.8642 180.679
L39.7814 190.991
L40.6987 229.116
L41.6159 225.265
L42.5332 150.674
L43.4505 181.811
L44.3677 186.403
L45.285 232.385
L46.2022 230.411
L47.1195 223.391
L48.0368 213.414
L48.954 189.388
L49.8713 229.538
L50.7885 235.544
L51.7058 229.393
L52.6231 228.975
L53.5403 234.587
M55.3749 216.808
L56.2921 198.123
L57.2094 230.275
L58.1266 231.695
L59.0439 214.568
L59.9612 213.618
L60.8784 222.867
L61.7957 225.927
L62.7129 227.889
L63.6302 219.718
L64.5475 219.045
L65.4647 196.945
L66.382 192.895
L67.2992 228.148
L68.2165 215.274
L69.1338 230.264
L70.051 216.141
L70.9683 241.418
L71.8855 237.662
L72.8028 236.458
L73.7201 239.722
L74.6373 217.247
L75.5546 211.891
L76.4718 211.067
L77.3891 140.957
L78.3064 137.058
L79.2236 205.248
L80.1409 225.065
L81.0581 182.191
L81.9754 195.618
L82.8927 211.073
L83.8099 182.162
L84.7272 173.57
L85.6444 204.545
L86.5617 194.7
L87.479 207.6
L88.3962 195.17
L89.3135 176.163
L90.2307 208.805
L91.148 204.637
L92.0653 164.183
L92.9825 160.819
L93.8998 169.306
L94.817 221.104
L95.7343 195.575
L96.6516 152.524
L97.5688 150.349
L98.4861 159.306
L99.4033 166.785
L100.321 121.464
L101.238 132.023
L102.155 173.336
L103.072 205.673
L103.99 160.268
L104.907 144.132
L106.741 208.655
L107.659 188.293
L108.576 132.694
L109.493 171.789
L110.41 215.632
L111.328 192.42
L112.245 217.528
L113.162 213.69
L114.08 190.603
L114.997 188.362
L115.914 190.808
L116.831 183.226
L117.749 189.214
L118.666 177.943
L119.583 136.433
L120.5 136.416
L121.418 134.867
L122.335 188.083
L123.252 210.555
L124.169 159.445
L125.087 131.332
L126.004 146.058
L126.921 146.668
L127.838 124.361
L128.756 111.713
L129.673 162.798
L130.59 204.162
L131.507 191.939
L132.425 101.218
L133.342 88.8157
L134.259 83.0678
L135.176 92.8225
L136.094 190.819
L137.011 184.981
L137.928 183.116
L138.846 203.802
L139.763 187.999
L140.68 133.644
L141.597 171.583
L142.515 95.8358
L143.432 109.42
L144.349 135.965
L145.266 61.2166
L146.184 96.8474
L147.101 87.6494
L148.018 173.769
L148.935 130.88
L149.853 82.5282
L150.77 109.436
L151.687 86.7101
L152.604 93.976
L153.522 111.867
L154.439 153.512
L155.356 201.073
L156.273 140.339
L157.191 129.459
L158.108 132.988
L159.025 228.802
L159.943 176.639
L160.86 145.51
L161.777 110.438
L162.694 171.683
L163.612 173.316
L164.529 170.835
L165.446 165.525
L166.363 108.754
L167.281 186.058
L168.198 183.241
L169.115 211.357
L170.032 147.257
L170.95 216.552
L171.867 158.312
L172.784 201.989
L173.701 137.997
L174.619 124.541
L175.536 163.537
L176.453 190.193
L177.37 123.986
L178.288 94.7618
L179.205 101.509
L180.122 112.081
L181.04 126.633
L181.957 121.211
L182.874 145.857
L183.791 89.6462
L184.709 112.571
L185.626 160.712
L186.543 160.484
L187.46 112.985
L188.378 108.029
L189.295 146.92
L190.212 159.908
L191.129 120.98
L192.047 119.706
L192.964 133.367
L193.881 163.704
L194.798 136.573
L195.716 126.892
L196.633 133.413
L197.55 149.831
L198.467 109.764
L199.385 115.852
L200.302 115.626
L201.219 111.541
L202.136 116.254
L203.054 126.56
L203.971 128.018
L204.888 127.302
L205.806 122.692
L206.723 86.708
L207.64 103.247
L208.557 108.732
L209.475 123.938
L210.392 117.143
L211.309 116.655
L212.226 107.807
L213.144 113.483
L214.061 105.014
L214.978 59.4583
L215.895 53.3202
L216.813 71.7233
L217.73 74.028
L218.647 129.738
L219.564 70.5646
L220.482 87.0058
L221.399 77.5605
L222.316 105.156
L223.233 82.2325
L224.151 63.6752
L225.068 66.7571
L225.985 94.2942
L226.903 127.258
L228.737 144.956
L229.654 129.776
L230.572 134.832
L231.489 142.455
L232.406 159.986
L233.323 186.204
L234.241 147.435
L235.158 128.25
L236.075 133.636
L236.992 125.648
L237.91 129.073
L238.827 128.452
L239.744 132.207
L240.661 120.87
L241.579 118.57
L242.496 120.074
L243.413 112.652
L244.33 121.468
L245.248 114.708
L246.165 125.086
L247.082 145.648
L248 112.46
L248.917 121.481
L249.834 192.826
L250.751 155.115
L251.669 165.599
L252.586 164.419
L253.503 131.347
L254.42 122.2
L255.338 133.545
L256.255 125.16
L257.172 103.403
L258.089 101.84
L259.007 174.665
L259.924 224.445
L260.841 163.917
L261.758 118.975
L262.676 118.012
L263.593 126.541
L264.51 131.711
L265.427 130.286
L266.345 123.182
L267.262 135.625
L268.179 128.459
L269.096 156.796
L270.014 161.969
L270.931 131.217
L271.848 121.519
L272.766 125.237
L273.683 120.29
L274.6 132.843
L275.517 129.813
L276.435 128.07
L277.352 134.618
L278.269 138.087
L279.186 128.619
L280.104 139.387
L281.021 140.821
L281.938 166.266
L282.855 213.718
L283.773 197.442
L284.69 178.88
L285.607 165.764
L286.524 210.792
L287.442 176.501
L288.359 178.986
L289.276 173.596
L290.193 125.522
L291.111 122.148
L292.028 122.386
L292.945 135.928
L293.863 160.008
L294.78 140.627
L295.697 109.999
L296.614 103.885
L297.532 121.397
L298.449 131.114
L299.366 131.758
L300.283 193.86
L301.201 227.846
L302.118 203.429
L303.035 213.75
L303.952 184.936
L304.87 124.776
L305.787 126.781
L306.704 148.709
L307.621 197.287
L308.539 169.661
L309.456 154.543
L310.373 154.835
L311.29 138.558
L312.208 154.244
L313.125 156.145
L314.042 200.205
L314.96 208.557
L315.877 170.689
L316.794 221.316
L317.711 218.598
L318.629 192.755
L319.546 190.557
L320.463 222.638
L321.38 224.383
M324.132 162.669
L325.049 210.43
L325.967 225.836
L326.884 206.821
L327.801 219.795
L328.718 212.256
L329.636 211.679
L330.553 182.9
L331.47 177.423
L332.387 184.529
L333.305 226.272
L334.222 207.486
L335.139 164.335
L336.056 229.856
L336.974 235.203
L337.891 206.711
L338.808 227.791
L339.726 223.444
L340.643 205.582
L341.56 226.067
L342.477 186.054
L343.395 212.303
L344.312 203.034
L345.229 220.006
L346.146 213.919
L347.064 200.955
L347.981 209.959
L348.898 211.715
L349.815 193.702
L350.733 168.737
L351.65 202.56
L352.567 225.256
L353.484 210.087
L354.402 201.743
L355.319 222.079
L356.236 214.421
L357.153 180.808
L358.071 118.249
L358.988 184.406
L359.905 213.131
L360.823 216.967
L361.74 222.542
L362.657 215.061
L363.574 234.853
L363.574 234.853" style="fill:none;stroke:#00bfbf;stroke-linecap:square;"/>
   </g>
   <g id="line2d_5">
    <path clip-path="url(#p69096553e2)" d="
M29.6916 203.218
L30.6088 187.553
L31.5261 229.577
L32.4433 225.686
L33.3606 184.539
L34.2779 164.314
L35.1951 169.966
L36.1124 206.486
L37.0296 216.66
L37.9469 217.894
L38.8642 192.418
L39.7814 196.314
L40.6987 231.155
L41.6159 221.143
L42.5332 224.54
L43.4505 235.695
L45.285 221.586
L46.2022 227.115
L47.1195 182.154
L48.0368 211.806
L48.954 236.347
L49.8713 186.921
L50.7885 217.38
L51.7058 232.344
L52.6231 206.207
L53.5403 192.98
L54.4576 196.796
L55.3749 201.66
L56.2921 220.297
L57.2094 206.298
L58.1266 166.778
L59.0439 143.738
L59.9612 166.199
L60.8784 214.486
L61.7957 216.071
L62.7129 196.102
L63.6302 208.257
L64.5475 205.014
L65.4647 212.543
L66.382 197.01
L68.2165 158.234
L69.1338 153.214
L70.051 157.072
L70.9683 163.993
L71.8855 184.673
L72.8028 208.989
L73.7201 214.08
L74.6373 203.617
L75.5546 221.909
L76.4718 230.838
L77.3891 217.569
L78.3064 196.172
L79.2236 183.657
L80.1409 198.305
L81.0581 174.594
L81.9754 186.761
L82.8927 164.093
L83.8099 163.483
L84.7272 200.466
L85.6444 202.585
L86.5617 211.672
L87.479 202.515
L88.3962 211.334
L89.3135 208.857
L90.2307 231.595
L92.0653 191.544
L92.9825 213.194
L93.8998 213.067
L94.817 212.44
L95.7343 203.412
L96.6516 206.775
L97.5688 237.963
L98.4861 223.967
L99.4033 191.752
L100.321 210.526
L101.238 198.283
L102.155 219.082
L103.072 222.568
L103.99 196.958
L104.907 205.856
L105.824 206.161
L106.741 231.113
L107.659 222.825
L108.576 211.982
L109.493 214.882
L110.41 218.196
L111.328 189.03
L112.245 180.182
L113.162 201.079
L114.997 161.973
L115.914 202.288
L116.831 199.424
L117.749 200.854
L118.666 193.042
L119.583 205.642
L120.5 183.173
L121.418 204.861
L122.335 177.321
L123.252 203
L124.169 186.14
L125.087 189.996
L126.004 200.544
L126.921 186.492
L127.838 198.177
L128.756 138.91
L130.59 215.897
L131.507 170.287
L132.425 153.282
L134.259 206.672
L135.176 194.77
L136.094 169.715
L137.011 196.193
L137.928 184.613
L138.846 177.406
L139.763 155.38
L140.68 172.591
L142.515 153.334
L143.432 137.642
L144.349 189.74
L145.266 174.736
L146.184 204.444
L147.101 164.128
L148.018 115.412
L148.935 117.226
L149.853 133.501
L150.77 126.326
L151.687 168.781
L152.604 202.221
L153.522 202.871
L154.439 168.403
L155.356 176.362
L156.273 102.451
L157.191 137.96
L158.108 168.136
L159.025 140.316
L159.943 174.504
L161.777 147.902
L162.694 185.56
L163.612 208.379
L164.529 175.95
L165.446 214.202
L166.363 178.848
L167.281 157.129
L168.198 146.295
L169.115 190.036
L170.032 135.67
L170.95 109.003
L171.867 137.247
L172.784 183.675
L173.701 191.733
L174.619 125.95
L175.536 134.883
L176.453 150.886
L178.288 164.418
L179.205 178.197
L180.122 118.111
L181.04 91.2208
L181.957 133.446
L182.874 102.392
L183.791 180.86
L184.709 171.318
L185.626 137.707
L186.543 130.439
L188.378 130.36
L190.212 92.6303
L191.129 97.9453
L192.047 124.903
L192.964 134.721
L193.881 160.616
L194.798 144.053
L195.716 114.06
L196.633 124.267
L197.55 129.331
L198.467 140.512
L199.385 135.093
L200.302 132.64
L201.219 166.306
L202.136 130.688
L203.054 111.463
L203.971 131.663
L204.888 141.618
L205.806 143.286
L206.723 150.012
L207.64 161.63
L208.557 131.365
L209.475 144.221
L210.392 135.293
L211.309 132.47
L212.226 133.899
L213.144 130.162
L214.061 125.41
L214.978 132.764
L215.895 120.292
L216.813 140.39
L217.73 132.041
L218.647 139.548
L219.564 131.939
L220.482 125.929
L221.399 132.967
L222.316 151.95
L223.233 164.883
L224.151 149.535
L225.985 142.935
L226.903 163.041
L227.82 140.605
L228.737 137.061
L229.654 147.957
L230.572 138.966
L231.489 135.569
L232.406 134.623
L233.323 127.746
L234.241 130.776
L235.158 139.458
L236.992 125.826
L237.91 130.408
L238.827 136.459
L239.744 134.063
L240.661 128.581
L241.579 143.625
L242.496 152.509
L243.413 144.907
L244.33 141.189
L245.248 147.57
L246.165 151.151
L247.082 149.297
L248 164.718
L248.917 153.364
L249.834 148.085
L250.751 139.951
L251.669 129.962
L252.586 127.1
L253.503 127.485
L254.42 130.679
L255.338 129.731
L256.255 135.651
L257.172 147.039
L258.089 146.137
L259.007 146.304
L259.924 151.591
L260.841 147.658
L261.758 166.054
L262.676 154.06
L263.593 158.601
L264.51 149.669
L265.427 192.205
L266.345 214.877
L267.262 132.57
L268.179 132.714
L269.096 145.666
L270.014 140.975
L270.931 133.085
L271.848 144.358
L272.766 146.144
L273.683 146.236
L274.6 159.296
L275.517 147.493
L276.435 144.866
L277.352 145.657
L278.269 139.687
L279.186 156.948
L281.021 150.366
L281.938 156.604
L282.855 206.896
L283.773 224.894
L284.69 231.959
L285.607 232.977
L286.524 180.73
L287.442 154.84
L288.359 204.056
L289.276 183.194
L290.193 156.561
L291.111 143.039
L292.028 149.004
L292.945 171.8
L293.863 214.302
L294.78 157.34
L295.697 139.018
L296.614 162.676
L297.532 150.41
L298.449 160.936
L299.366 175.891
L300.283 163.461
L301.201 196.008
L302.118 130.451
L303.035 100.261
L303.952 117.678
L304.87 129.494
L305.787 145.852
L306.704 166.17
L307.621 182.382
L309.456 114.76
L310.373 128.352
L311.29 183.723
L312.208 221.312
L313.125 220.984
L314.042 201.194
L314.96 185.723
L315.877 155.826
L316.794 134.592
L318.629 194.862
L319.546 198.959
L320.463 176.68
L322.298 157.519
L323.215 207.56
L324.132 219.614
L325.049 206.972
L325.967 177.21
L327.801 202.407
L328.718 160.668
L329.636 185.906
L330.553 182.152
L331.47 110.879
L332.387 124.525
L333.305 176.735
L334.222 210.96
L335.139 197.452
L336.056 140.936
L336.974 142.97
L338.808 172.357
L340.643 142.768
L341.56 152.032
L342.477 147.833
L343.395 131.964
L344.312 150.8
L345.229 156.304
L346.146 155.435
L347.064 164.97
L347.981 169.263
L348.898 185.672
L349.815 189.206
L350.733 179.782
L351.65 173.714
L352.567 153.793
L353.484 148.595
L354.402 169.43
L355.319 103.306
L356.236 111.082
L357.153 121.635
L358.071 138.945
L358.988 150.497
L359.905 175.71
L360.823 223.763
L361.74 200.034
L362.657 223.902
L363.574 188.521
L363.574 188.521" style="fill:none;stroke:#bf00bf;stroke-linecap:square;"/>
   </g>
   <g id="line2d_6">
    <path clip-path="url(#p69096553e2)" d="
M29.6916 128.059
L30.6088 147.429
L31.5261 144.289
L32.4433 131.307
L33.3606 163.808
L34.2779 173.407
L35.1951 181.635
L36.1124 181.83
L37.0296 178.484
L37.9469 202.236
L38.8642 165.306
L39.7814 135.661
L40.6987 97.4035
L41.6159 109.734
L42.5332 158.554
L43.4505 170.169
L44.3677 132.487
L45.285 179.478
L46.2022 235.332
L47.1195 235.201
L48.0368 231.617
L48.954 209.72
L49.8713 226.433
L50.7885 203.118
L51.7058 209.242
L52.6231 212.449
L53.5403 190.57
L55.3749 127.538
L56.2921 203.995
L57.2094 176.975
L58.1266 194.316
L59.0439 221.052
L59.9612 194.504
L60.8784 174.833
L61.7957 174.142
L62.7129 174.26
L63.6302 146.118
L64.5475 192.838
L65.4647 215.973
L66.382 207.816
L67.2992 213.802
L68.2165 226.887
L69.1338 206.69
L70.051 207.938
L70.9683 217.166
L71.8855 175.854
L72.8028 187.55
L73.7201 204.629
L74.6373 180.764
L75.5546 185.249
L76.4718 225.732
L77.3891 204.703
L78.3064 180.707
L79.2236 148.051
L80.1409 190.706
L81.0581 177.309
L81.9754 161.306
L82.8927 169.104
L83.8099 186.454
L84.7272 198.145
L85.6444 194.502
L86.5617 212.56
L87.479 189.422
L88.3962 157.757
L89.3135 200.697
L90.2307 152.412
L91.148 146.655
L92.0653 141.693
L92.9825 131.589
L93.8998 174.763
L94.817 183.672
L95.7343 185.012
L96.6516 232.135
L97.5688 211.162
L98.4861 204.123
L99.4033 194.843
L100.321 216.047
L101.238 187.811
L102.155 200.988
L103.072 194.415
L103.99 152.783
L104.907 172.402
L105.824 138.894
L106.741 181.52
L107.659 217.545
L108.576 170.264
L109.493 203.449
L110.41 201.895
L111.328 219.506
L112.245 156.421
L113.162 167.524
L114.08 176.09
L114.997 134.954
L115.914 172.186
L116.831 165.053
L117.749 174.76
L118.666 111.199
L119.583 87.2283
L120.5 108.664
L121.418 105.88
L122.335 171.459
L123.252 126.378
L124.169 168.561
L125.087 111.451
L126.004 91.1502
L126.921 177.179
L127.838 138.791
L128.756 158.753
L129.673 185.736
L130.59 145.016
L131.507 115.516
L132.425 122.024
L133.342 155.496
L134.259 150.968
L135.176 167.297
L136.094 220.325
L137.011 164.383
L138.846 105.926
L139.763 188.622
L140.68 128.505
L141.597 120.542
L142.515 180.545
L143.432 188.108
L144.349 144.721
L145.266 117.106
L146.184 93.3847
L147.101 102.644
L148.018 119.406
L148.935 85.0379
L149.853 85.083
L150.77 92.6102
L151.687 102.564
L152.604 120.641
L153.522 151.849
L154.439 113.502
L155.356 139.647
L156.273 110.056
L157.191 85.4102
L158.108 106.332
L159.025 166.809
L159.943 160.151
L160.86 168.544
L161.777 126.285
L162.694 192.256
L163.612 203.619
L164.529 165.972
L165.446 106.82
L166.363 109.605
L167.281 107.209
L168.198 123.406
L169.115 120.938
L170.032 142.331
L170.95 139.685
L171.867 159.283
L172.784 186.467
L173.701 114.92
L174.619 130.735
L175.536 142.611
L176.453 176.764
L178.288 90.3906
L179.205 134.154
L180.122 122.722
L181.04 88.1442
L181.957 158.831
L182.874 117.506
L183.791 120.225
L184.709 110.705
L185.626 140.659
L186.543 101.441
L187.46 116.956
L188.378 174.741
L189.295 124.212
L190.212 116.687
L191.129 112.848
L192.047 129.332
L192.964 101.69
L193.881 120.352
L194.798 120.385
L195.716 127.976
L196.633 151.809
L197.55 130.928
L198.467 121.82
L199.385 116.93
L200.302 135.287
L201.219 140.507
L202.136 137.847
L203.054 166.503
L203.971 142.956
L204.888 141.7
L205.806 148.986
L206.723 141.588
L207.64 165.995
L208.557 180.326
L209.475 162.597
L210.392 156.709
L211.309 136.107
L212.226 133.08
L213.144 143.326
L214.061 130.305
L214.978 131.018
L215.895 136.191
L216.813 133.312
L217.73 128.748
L218.647 140.343
L219.564 137.081
L220.482 140.64
L222.316 136.721
L223.233 135.378
L224.151 136.799
L225.068 128.572
L225.985 123.545
L226.903 128.048
L227.82 130.505
L228.737 138.093
L229.654 139.774
L231.489 147.869
L232.406 146.624
L233.323 158.212
L234.241 138.607
L235.158 144.411
L236.075 143.288
L236.992 141.905
L237.91 138.814
L238.827 143.258
L239.744 141.778
L240.661 139.472
L241.579 161.551
L242.496 144.662
L243.413 150.25
L244.33 139.961
L245.248 132.969
L246.165 107.533
L247.082 122.186
L248 152.085
L248.917 155.903
L249.834 140.412
L250.751 133.742
L251.669 129.49
L252.586 153.163
L253.503 141.562
L254.42 113.489
L255.338 121.3
L256.255 123.859
L257.172 132.571
L258.089 150.976
L259.007 126.722
L259.924 129.151
L260.841 146.248
L261.758 130.039
L262.676 123.937
L263.593 102.348
L264.51 124.66
L265.427 130.874
L266.345 130.835
L267.262 133.536
L268.179 127.416
L269.096 131.628
L270.014 138.581
L270.931 143.829
L271.848 144.202
L272.766 139.311
L273.683 194.402
L274.6 164.399
L275.517 163.948
L276.435 154.112
L277.352 138.531
L278.269 147.897
L279.186 145.668
L280.104 142.387
L281.021 138.358
L281.938 133.094
L282.855 102.228
L283.773 104.44
L285.607 98.181
L286.524 106.22
L287.442 107.297
L288.359 124.415
L289.276 132.215
L290.193 132.457
L291.111 132.166
L292.028 189.52
L292.945 166.3
L293.863 174.291
L294.78 173.344
L295.697 138.321
L296.614 130.539
L297.532 153.966
L298.449 185.916
L299.366 142.32
L300.283 207.526
L301.201 191.623
L302.118 204.83
L303.035 177.241
L303.952 156.119
L304.87 190.977
M306.704 159.358
L307.621 159.921
L308.539 145.062
L309.456 179.966
L310.373 165.473
L311.29 171.968
L312.208 166.762
L313.125 187
L314.042 165.889
L314.96 178.63
L315.877 194.86
L316.794 214.015
L317.711 203.955
L318.629 202.364
L319.546 183.162
M321.38 207.072
L322.298 170.947
L324.132 210.024
L325.049 187.977
L325.967 206.517
L326.884 201.655
L327.801 204.451
L328.718 173.097
L329.636 136.598
L330.553 186.084
L331.47 203.576
L332.387 183.84
L333.305 171.954
L334.222 188.25
L335.139 200.445
L336.056 211.151
L336.974 209.914
L337.891 218.088
L338.808 174.008
L339.726 200.369
L340.643 222.043
L341.56 207.389
L342.477 190.283
L343.395 206.955
L344.312 155.515
L345.229 218.223
L346.146 189.824
L347.064 229.198
L347.981 201.966
L348.898 229.72
L349.815 221.993
L351.65 202.608
L352.567 210.935
L353.484 194.047
L354.402 137.696
L355.319 122.008
L356.236 174.793
L357.153 212.55
L358.071 221.4
L358.988 182.327
L359.905 207.602
L360.823 214.37
L361.74 217.558
L362.657 196.366
L363.574 225.675
L363.574 225.675" style="fill:none;stroke:#bfbf00;stroke-linecap:square;"/>
   </g>
   <g id="line2d_7">
    <path clip-path="url(#p69096553e2)" d="
M29.6916 210.028
L30.6088 211.76
L32.4433 157.095
L33.3606 193.379
L34.2779 183.603
L35.1951 212.905
L36.1124 234.492
M38.8642 242.928
L39.7814 242.982
L40.6987 236.29
L41.6159 211.682
L42.5332 234.938
L43.4505 212.445
L44.3677 172.321
L45.285 149.112
L46.2022 155.739
L47.1195 146.992
L48.0368 147.125
L48.954 151.008
L49.8713 141.806
L50.7885 199.347
L51.7058 233.931
L52.6231 232.038
L53.5403 240.011
L54.4576 233.626
L55.3749 234.631
L56.2921 236.273
L57.2094 242.08
L58.1266 234.768
L59.0439 224.699
L59.9612 210.294
L60.8784 190.585
L61.7957 192.739
L62.7129 210.719
L63.6302 199.969
L64.5475 217.782
L65.4647 208.309
L66.382 189.111
L67.2992 174.483
L68.2165 213.503
L69.1338 217.599
L70.051 211.938
L70.9683 201.123
L71.8855 205.106
L72.8028 214.911
L73.7201 168.685
L74.6373 194.382
L75.5546 204.225
L76.4718 189.694
L77.3891 225.136
L78.3064 221.14
L79.2236 215.519
L80.1409 207.855
L81.0581 205.071
L81.9754 180.709
L82.8927 204.263
L83.8099 212.272
L84.7272 206.735
L85.6444 193.927
L86.5617 154.8
L87.479 160.578
L88.3962 195.865
L89.3135 187.737
L90.2307 167.409
L91.148 156.809
L92.0653 134.746
L92.9825 200.249
L93.8998 194.439
L94.817 162.624
L95.7343 156.108
L96.6516 163.53
L97.5688 175.243
L98.4861 169.257
L99.4033 165.333
L100.321 105.709
L101.238 181.518
L102.155 169.263
L103.072 190.683
L104.907 126.267
L105.824 124.908
L106.741 194.547
L107.659 174.419
L108.576 145.557
L109.493 147.75
L110.41 132.63
L111.328 137.688
L112.245 161.341
L113.162 141.323
L114.08 131.805
L114.997 181.022
L115.914 180.714
L116.831 204.551
L117.749 198.384
L118.666 151.34
L119.583 117.387
L120.5 172.032
L121.418 129.963
L122.335 103.773
L123.252 172.927
L124.169 142.192
L125.087 144.112
L126.921 84.7532
L127.838 88.2346
L128.756 203.418
L129.673 167.561
L130.59 141.515
L132.425 103.332
L133.342 86.0927
L134.259 96.4567
L135.176 112.982
L136.094 123.972
L137.011 107.064
L137.928 146.942
L138.846 125.815
L139.763 92.1072
L140.68 85.0816
L141.597 107.689
L142.515 154.312
L143.432 121.219
L144.349 158.404
L145.266 158.611
L146.184 154.087
L147.101 139.286
L148.018 134.942
L148.935 138.307
L149.853 139.618
L150.77 139.006
L151.687 127.868
L152.604 132.298
L154.439 197.938
L155.356 147.039
L156.273 168.95
L157.191 120.392
L158.108 140.801
L159.025 124.24
L159.943 83.8801
L160.86 103.082
L161.777 109.887
L162.694 176.446
L163.612 167.155
L164.529 206.607
L165.446 196.722
L166.363 143.217
L167.281 118.637
L168.198 116.278
L169.115 112.44
L170.032 111.606
L170.95 123.229
L171.867 124.781
L172.784 137.319
L173.701 134.535
L174.619 134.175
L175.536 132.212
L176.453 140.725
L177.37 144.062
L178.288 122.174
L179.205 160.742
L180.122 145.668
L181.04 110.954
L181.957 138.084
L182.874 133.861
L183.791 134.449
L184.709 198.336
L185.626 146.233
L186.543 150.141
L187.46 139.977
L188.378 139.58
L189.295 196.564
L190.212 218.097
L191.129 168.57
L192.047 140.755
L192.964 144.617
L193.881 154.08
L194.798 148.703
L195.716 157.523
L196.633 154.736
L197.55 173.155
L198.467 145.295
L199.385 133.715
L200.302 141.72
L201.219 143.645
L202.136 140.009
L203.054 135.805
L204.888 159.181
L205.806 139.915
L206.723 124.634
L207.64 131.042
L208.557 141.491
L209.475 174.592
L210.392 150.375
L211.309 136.484
L212.226 142.599
L213.144 142.477
L214.978 133.235
L215.895 138.621
L216.813 147.438
L217.73 146.138
L218.647 153.759
L219.564 147.909
L220.482 140.153
L222.316 135.543
L223.233 149.093
L224.151 148.181
L225.068 134.932
L225.985 129.534
L226.903 138.956
L227.82 141.215
L228.737 140.902
L229.654 147.968
L230.572 148.152
L231.489 154.161
L232.406 151.555
L233.323 153.309
L234.241 158.417
L235.158 156.004
L236.075 149.208
L236.992 153.086
L237.91 151.793
L238.827 151.443
L239.744 151.368
L240.661 151.879
L241.579 149.152
L242.496 147.605
L243.413 180.347
L244.33 162.084
L245.248 163.928
L246.165 158.734
L247.082 151.378
L248 154.91
L248.917 171.876
L250.751 150.913
L251.669 151.216
L252.586 156.963
L253.503 182.913
L254.42 203.841
L255.338 192.484
L256.255 196.917
L257.172 172.08
L258.089 150.804
L259.007 151.276
L259.924 157.627
L260.841 159.427
L261.758 167.88
L262.676 200.88
L263.593 180.493
L264.51 190.341
L265.427 172.437
L266.345 165.628
L267.262 186.71
L268.179 196.051
L269.096 144.377
L270.014 143.744
L270.931 176.409
L271.848 197.615
L272.766 167.565
L273.683 208.27
L274.6 228.216
L275.517 213.027
L276.435 178.784
L277.352 172.303
L278.269 208.9
L279.186 176.098
L280.104 192.249
L281.021 176.91
L281.938 205.245
L282.855 146.904
L283.773 128.417
L284.69 134.729
L285.607 153.874
L286.524 196.448
L287.442 167.666
L288.359 175.827
L290.193 157.782
L291.111 170.672
L292.945 155.61
L293.863 149.636
L294.78 158.394
L295.697 144.378
L296.614 147.708
L297.532 161.999
L298.449 162.815
L299.366 152.293
L300.283 157.898
L301.201 159.289
L302.118 157.896
L303.035 162.165
L303.952 164.618
L304.87 214.349
L305.787 220.109
L306.704 210.631
L307.621 215.48
L308.539 213.091
L309.456 221.34
L310.373 217.602
L311.29 188.635
L312.208 201.329
L313.125 221.318
L314.042 212.398
L314.96 178.055
L315.877 167.636
L316.794 172.13
L317.711 164.874
L318.629 165.743
L319.546 190.06
L320.463 202.253
L322.298 215.914
L323.215 208.811
L324.132 181.064
L325.049 215.086
L325.967 219.488
L326.884 162.322
L327.801 153.389
L328.718 149.905
L329.636 155.137
L330.553 149.891
L331.47 165.149
L332.387 163.428
L333.305 170.005
L334.222 177.405
L335.139 212.101
L336.056 221.042
L336.974 209.493
L337.891 181.083
L338.808 211.535
L339.726 199.07
L340.643 191.918
L341.56 209.045
L342.477 203.348
L343.395 163.436
L344.312 178.935
L345.229 206.567
L346.146 187.568
L347.064 195.108
L347.981 203.575
L348.898 164.727
L349.815 169.249
L350.733 149.021
L351.65 192.846
L352.567 207.955
L353.484 184.499
L354.402 220.663
L355.319 229.881
L356.236 219.139
L357.153 206.168
L358.988 143.342
L359.905 147.524
L360.823 191.362
L361.74 175.082
L362.657 189.973
L363.574 200.675
L363.574 200.675" style="fill:none;stroke:#000000;stroke-linecap:square;"/>
   </g>
   <g id="patch_3">
    <path d="
M29.6916 243.606
L29.6916 20.4063" style="fill:none;stroke:#000000;stroke-linecap:square;stroke-linejoin:miter;"/>
   </g>
   <g id="patch_4">
    <path d="
M29.6916 20.4063
L364.492 20.4063" style="fill:none;stroke:#000000;stroke-linecap:square;stroke-linejoin:miter;"/>
   </g>
   <g id="patch_5">
    <path d="
M364.492 243.606
L364.492 20.4063" style="fill:none;stroke:#000000;stroke-linecap:square;stroke-linejoin:miter;"/>
   </g>
   <g id="patch_6">
    <path d="
M29.6916 243.606
L364.492 243.606" style="fill:none;stroke:#000000;stroke-linecap:square;stroke-linejoin:miter;"/>
   </g>
   <g id="matplotlib.axis_1">
    <g id="xtick_1">
     <g id="line2d_8">
      <defs>
       <path d="
M0 0
L0 -4" id="mc7db9fdffb" style="stroke:#000000;stroke-width:0.5;"/>
      </defs>
      <g>
       <use style="stroke:#000000;stroke-width:0.5;" x="29.6915625" xlink:href="#mc7db9fdffb" y="243.6063125"/>
      </g>
     </g>
     <g id="line2d_9">
      <defs>
       <path d="
M0 0
L0 4" id="m5a7d422ac3" style="stroke:#000000;stroke-width:0.5;"/>
      </defs>
      <g>
       <use style="stroke:#000000;stroke-width:0.5;" x="29.6915625" xlink:href="#m5a7d422ac3" y="20.4063125"/>
      </g>
     </g>
     <g id="text_1">
      <!-- 0 -->
      <defs>
       <path d="
M31.7812 66.4062
Q24.1719 66.4062 20.3281 58.9062
Q16.5 51.4219 16.5 36.375
Q16.5 21.3906 20.3281 13.8906
Q24.1719 6.39062 31.7812 6.39062
Q39.4531 6.39062 43.2812 13.8906
Q47.125 21.3906 47.125 36.375
Q47.125 51.4219 43.2812 58.9062
Q39.4531 66.4062 31.7812 66.4062
M31.7812 74.2188
Q44.0469 74.2188 50.5156 64.5156
Q56.9844 54.8281 56.9844 36.375
Q56.9844 17.9688 50.5156 8.26562
Q44.0469 -1.42188 31.7812 -1.42188
Q19.5312 -1.42188 13.0625 8.26562
Q6.59375 17.9688 6.59375 36.375
Q6.59375 54.8281 13.0625 64.5156
Q19.5312 74.2188 31.7812 74.2188" id="BitstreamVeraSans-Roman-30"/>
      </defs>
      <g transform="translate(27.423984375 254.44490625)scale(0.09 -0.09)">
       <use xlink:href="#BitstreamVeraSans-Roman-30"/>
      </g>
     </g>
    </g>
    <g id="xtick_2">
     <g id="line2d_10">
      <g>
       <use style="stroke:#000000;stroke-width:0.5;" x="75.5545761986" xlink:href="#mc7db9fdffb" y="243.6063125"/>
      </g>
     </g>
     <g id="line2d_11">
      <g>
       <use style="stroke:#000000;stroke-width:0.5;" x="75.5545761986" xlink:href="#m5a7d422ac3" y="20.4063125"/>
      </g>
     </g>
     <g id="text_2">
      <!-- 50 -->
      <defs>
       <path d="
M10.7969 72.9062
L49.5156 72.9062
L49.5156 64.5938
L19.8281 64.5938
L19.8281 46.7344
Q21.9688 47.4688 24.1094 47.8281
Q26.2656 48.1875 28.4219 48.1875
Q40.625 48.1875 47.75 41.5
Q54.8906 34.8125 54.8906 23.3906
Q54.8906 11.625 47.5625 5.09375
Q40.2344 -1.42188 26.9062 -1.42188
Q22.3125 -1.42188 17.5469 -0.640625
Q12.7969 0.140625 7.71875 1.70312
L7.71875 11.625
Q12.1094 9.23438 16.7969 8.0625
Q21.4844 6.89062 26.7031 6.89062
Q35.1562 6.89062 40.0781 11.3281
Q45.0156 15.7656 45.0156 23.3906
Q45.0156 31 40.0781 35.4375
Q35.1562 39.8906 26.7031 39.8906
Q22.75 39.8906 18.8125 39.0156
Q14.8906 38.1406 10.7969 36.2812
z
" id="BitstreamVeraSans-Roman-35"/>
      </defs>
      <g transform="translate(70.4744980736 254.44490625)scale(0.09 -0.09)">
       <use xlink:href="#BitstreamVeraSans-Roman-35"/>
       <use x="63.623046875" xlink:href="#BitstreamVeraSans-Roman-30"/>
      </g>
     </g>
    </g>
    <g id="xtick_3">
     <g id="line2d_12">
      <g>
       <use style="stroke:#000000;stroke-width:0.5;" x="121.417589897" xlink:href="#mc7db9fdffb" y="243.6063125"/>
      </g>
     </g>
     <g id="line2d_13">
      <g>
       <use style="stroke:#000000;stroke-width:0.5;" x="121.417589897" xlink:href="#m5a7d422ac3" y="20.4063125"/>
      </g>
     </g>
     <g id="text_3">
      <!-- 100 -->
      <defs>
       <path d="
M12.4062 8.29688
L28.5156 8.29688
L28.5156 63.9219
L10.9844 60.4062
L10.9844 69.3906
L28.4219 72.9062
L38.2812 72.9062
L38.2812 8.29688
L54.3906 8.29688
L54.3906 0
L12.4062 0
z
" id="BitstreamVeraSans-Roman-31"/>
      </defs>
      <g transform="translate(113.621339897 254.44490625)scale(0.09 -0.09)">
       <use xlink:href="#BitstreamVeraSans-Roman-31"/>
       <use x="63.623046875" xlink:href="#BitstreamVeraSans-Roman-30"/>
       <use x="127.24609375" xlink:href="#BitstreamVeraSans-Roman-30"/>
      </g>
     </g>
    </g>
    <g id="xtick_4">
     <g id="line2d_14">
      <g>
       <use style="stroke:#000000;stroke-width:0.5;" x="167.280603596" xlink:href="#mc7db9fdffb" y="243.6063125"/>
      </g>
     </g>
     <g id="line2d_15">
      <g>
       <use style="stroke:#000000;stroke-width:0.5;" x="167.280603596" xlink:href="#m5a7d422ac3" y="20.4063125"/>
      </g>
     </g>
     <g id="text_4">
      <!-- 150 -->
      <g transform="translate(159.484353596 254.44490625)scale(0.09 -0.09)">
       <use xlink:href="#BitstreamVeraSans-Roman-31"/>
       <use x="63.623046875" xlink:href="#BitstreamVeraSans-Roman-35"/>
       <use x="127.24609375" xlink:href="#BitstreamVeraSans-Roman-30"/>
      </g>
     </g>
    </g>
    <g id="xtick_5">
     <g id="line2d_16">
      <g>
       <use style="stroke:#000000;stroke-width:0.5;" x="213.143617295" xlink:href="#mc7db9fdffb" y="243.6063125"/>
      </g>
     </g>
     <g id="line2d_17">
      <g>
       <use style="stroke:#000000;stroke-width:0.5;" x="213.143617295" xlink:href="#m5a7d422ac3" y="20.4063125"/>
      </g>
     </g>
     <g id="text_5">
      <!-- 200 -->
      <defs>
       <path d="
M19.1875 8.29688
L53.6094 8.29688
L53.6094 0
L7.32812 0
L7.32812 8.29688
Q12.9375 14.1094 22.625 23.8906
Q32.3281 33.6875 34.8125 36.5312
Q39.5469 41.8438 41.4219 45.5312
Q43.3125 49.2188 43.3125 52.7812
Q43.3125 58.5938 39.2344 62.25
Q35.1562 65.9219 28.6094 65.9219
Q23.9688 65.9219 18.8125 64.3125
Q13.6719 62.7031 7.8125 59.4219
L7.8125 69.3906
Q13.7656 71.7812 18.9375 73
Q24.125 74.2188 28.4219 74.2188
Q39.75 74.2188 46.4844 68.5469
Q53.2188 62.8906 53.2188 53.4219
Q53.2188 48.9219 51.5312 44.8906
Q49.8594 40.875 45.4062 35.4062
Q44.1875 33.9844 37.6406 27.2188
Q31.1094 20.4531 19.1875 8.29688" id="BitstreamVeraSans-Roman-32"/>
      </defs>
      <g transform="translate(205.182836045 254.44490625)scale(0.09 -0.09)">
       <use xlink:href="#BitstreamVeraSans-Roman-32"/>
       <use x="63.623046875" xlink:href="#BitstreamVeraSans-Roman-30"/>
       <use x="127.24609375" xlink:href="#BitstreamVeraSans-Roman-30"/>
      </g>
     </g>
    </g>
    <g id="xtick_6">
     <g id="line2d_18">
      <g>
       <use style="stroke:#000000;stroke-width:0.5;" x="259.006630993" xlink:href="#mc7db9fdffb" y="243.6063125"/>
      </g>
     </g>
     <g id="line2d_19">
      <g>
       <use style="stroke:#000000;stroke-width:0.5;" x="259.006630993" xlink:href="#m5a7d422ac3" y="20.4063125"/>
      </g>
     </g>
     <g id="text_6">
      <!-- 250 -->
      <g transform="translate(251.045849743 254.44490625)scale(0.09 -0.09)">
       <use xlink:href="#BitstreamVeraSans-Roman-32"/>
       <use x="63.623046875" xlink:href="#BitstreamVeraSans-Roman-35"/>
       <use x="127.24609375" xlink:href="#BitstreamVeraSans-Roman-30"/>
      </g>
     </g>
    </g>
    <g id="xtick_7">
     <g id="line2d_20">
      <g>
       <use style="stroke:#000000;stroke-width:0.5;" x="304.869644692" xlink:href="#mc7db9fdffb" y="243.6063125"/>
      </g>
     </g>
     <g id="line2d_21">
      <g>
       <use style="stroke:#000000;stroke-width:0.5;" x="304.869644692" xlink:href="#m5a7d422ac3" y="20.4063125"/>
      </g>
     </g>
     <g id="text_7">
      <!-- 300 -->
      <defs>
       <path d="
M40.5781 39.3125
Q47.6562 37.7969 51.625 33
Q55.6094 28.2188 55.6094 21.1875
Q55.6094 10.4062 48.1875 4.48438
Q40.7656 -1.42188 27.0938 -1.42188
Q22.5156 -1.42188 17.6562 -0.515625
Q12.7969 0.390625 7.625 2.20312
L7.625 11.7188
Q11.7188 9.32812 16.5938 8.10938
Q21.4844 6.89062 26.8125 6.89062
Q36.0781 6.89062 40.9375 10.5469
Q45.7969 14.2031 45.7969 21.1875
Q45.7969 27.6406 41.2812 31.2656
Q36.7656 34.9062 28.7188 34.9062
L20.2188 34.9062
L20.2188 43.0156
L29.1094 43.0156
Q36.375 43.0156 40.2344 45.9219
Q44.0938 48.8281 44.0938 54.2969
Q44.0938 59.9062 40.1094 62.9062
Q36.1406 65.9219 28.7188 65.9219
Q24.6562 65.9219 20.0156 65.0312
Q15.375 64.1562 9.8125 62.3125
L9.8125 71.0938
Q15.4375 72.6562 20.3438 73.4375
Q25.25 74.2188 29.5938 74.2188
Q40.8281 74.2188 47.3594 69.1094
Q53.9062 64.0156 53.9062 55.3281
Q53.9062 49.2656 50.4375 45.0938
Q46.9688 40.9219 40.5781 39.3125" id="BitstreamVeraSans-Roman-33"/>
      </defs>
      <g transform="translate(296.922222817 254.44490625)scale(0.09 -0.09)">
       <use xlink:href="#BitstreamVeraSans-Roman-33"/>
       <use x="63.623046875" xlink:href="#BitstreamVeraSans-Roman-30"/>
       <use x="127.24609375" xlink:href="#BitstreamVeraSans-Roman-30"/>
      </g>
     </g>
    </g>
    <g id="xtick_8">
     <g id="line2d_22">
      <g>
       <use style="stroke:#000000;stroke-width:0.5;" x="350.73265839" xlink:href="#mc7db9fdffb" y="243.6063125"/>
      </g>
     </g>
     <g id="line2d_23">
      <g>
       <use style="stroke:#000000;stroke-width:0.5;" x="350.73265839" xlink:href="#m5a7d422ac3" y="20.4063125"/>
      </g>
     </g>
     <g id="text_8">
      <!-- 350 -->
      <g transform="translate(342.785236515 254.44490625)scale(0.09 -0.09)">
       <use xlink:href="#BitstreamVeraSans-Roman-33"/>
       <use x="63.623046875" xlink:href="#BitstreamVeraSans-Roman-35"/>
       <use x="127.24609375" xlink:href="#BitstreamVeraSans-Roman-30"/>
      </g>
     </g>
    </g>
    <g id="text_9">
     <!-- Julian day -->
     <defs>
      <path d="
M9.42188 54.6875
L18.4062 54.6875
L18.4062 0
L9.42188 0
z

M9.42188 75.9844
L18.4062 75.9844
L18.4062 64.5938
L9.42188 64.5938
z
" id="BitstreamVeraSans-Roman-69"/>
      <path d="
M34.2812 27.4844
Q23.3906 27.4844 19.1875 25
Q14.9844 22.5156 14.9844 16.5
Q14.9844 11.7188 18.1406 8.90625
Q21.2969 6.10938 26.7031 6.10938
Q34.1875 6.10938 38.7031 11.4062
Q43.2188 16.7031 43.2188 25.4844
L43.2188 27.4844
z

M52.2031 31.2031
L52.2031 0
L43.2188 0
L43.2188 8.29688
Q40.1406 3.32812 35.5469 0.953125
Q30.9531 -1.42188 24.3125 -1.42188
Q15.9219 -1.42188 10.9531 3.29688
Q6 8.01562 6 15.9219
Q6 25.1406 12.1719 29.8281
Q18.3594 34.5156 30.6094 34.5156
L43.2188 34.5156
L43.2188 35.4062
Q43.2188 41.6094 39.1406 45
Q35.0625 48.3906 27.6875 48.3906
Q23 48.3906 18.5469 47.2656
Q14.1094 46.1406 10.0156 43.8906
L10.0156 52.2031
Q14.9375 54.1094 19.5781 55.0469
Q24.2188 56 28.6094 56
Q40.4844 56 46.3438 49.8438
Q52.2031 43.7031 52.2031 31.2031" id="BitstreamVeraSans-Roman-61"/>
      <path d="
M32.1719 -5.07812
Q28.375 -14.8438 24.75 -17.8125
Q21.1406 -20.7969 15.0938 -20.7969
L7.90625 -20.7969
L7.90625 -13.2812
L13.1875 -13.2812
Q16.8906 -13.2812 18.9375 -11.5156
Q21 -9.76562 23.4844 -3.21875
L25.0938 0.875
L2.98438 54.6875
L12.5 54.6875
L29.5938 11.9219
L46.6875 54.6875
L56.2031 54.6875
z
" id="BitstreamVeraSans-Roman-79"/>
      <path d="
M9.42188 75.9844
L18.4062 75.9844
L18.4062 0
L9.42188 0
z
" id="BitstreamVeraSans-Roman-6c"/>
      <path d="
M8.5 21.5781
L8.5 54.6875
L17.4844 54.6875
L17.4844 21.9219
Q17.4844 14.1562 20.5 10.2656
Q23.5312 6.39062 29.5938 6.39062
Q36.8594 6.39062 41.0781 11.0312
Q45.3125 15.6719 45.3125 23.6875
L45.3125 54.6875
L54.2969 54.6875
L54.2969 0
L45.3125 0
L45.3125 8.40625
Q42.0469 3.42188 37.7188 1
Q33.4062 -1.42188 27.6875 -1.42188
Q18.2656 -1.42188 13.375 4.4375
Q8.5 10.2969 8.5 21.5781" id="BitstreamVeraSans-Roman-75"/>
      <path d="
M54.8906 33.0156
L54.8906 0
L45.9062 0
L45.9062 32.7188
Q45.9062 40.4844 42.875 44.3281
Q39.8438 48.1875 33.7969 48.1875
Q26.5156 48.1875 22.3125 43.5469
Q18.1094 38.9219 18.1094 30.9062
L18.1094 0
L9.07812 0
L9.07812 54.6875
L18.1094 54.6875
L18.1094 46.1875
Q21.3438 51.125 25.7031 53.5625
Q30.0781 56 35.7969 56
Q45.2188 56 50.0469 50.1719
Q54.8906 44.3438 54.8906 33.0156" id="BitstreamVeraSans-Roman-6e"/>
      <path d="
M9.8125 72.9062
L19.6719 72.9062
L19.6719 5.07812
Q19.6719 -8.10938 14.6719 -14.0625
Q9.67188 -20.0156 -1.42188 -20.0156
L-5.17188 -20.0156
L-5.17188 -11.7188
L-2.09375 -11.7188
Q4.4375 -11.7188 7.125 -8.04688
Q9.8125 -4.39062 9.8125 5.07812
z
" id="BitstreamVeraSans-Roman-4a"/>
      <path d="
M45.4062 46.3906
L45.4062 75.9844
L54.3906 75.9844
L54.3906 0
L45.4062 0
L45.4062 8.20312
Q42.5781 3.32812 38.25 0.953125
Q33.9375 -1.42188 27.875 -1.42188
Q17.9688 -1.42188 11.7344 6.48438
Q5.51562 14.4062 5.51562 27.2969
Q5.51562 40.1875 11.7344 48.0938
Q17.9688 56 27.875 56
Q33.9375 56 38.25 53.625
Q42.5781 51.2656 45.4062 46.3906
M14.7969 27.2969
Q14.7969 17.3906 18.875 11.75
Q22.9531 6.10938 30.0781 6.10938
Q37.2031 6.10938 41.2969 11.75
Q45.4062 17.3906 45.4062 27.2969
Q45.4062 37.2031 41.2969 42.8438
Q37.2031 48.4844 30.0781 48.4844
Q22.9531 48.4844 18.875 42.8438
Q14.7969 37.2031 14.7969 27.2969" id="BitstreamVeraSans-Roman-64"/>
      <path id="BitstreamVeraSans-Roman-20"/>
     </defs>
     <g transform="translate(174.995859375 268.15521875)scale(0.09 -0.09)">
      <use xlink:href="#BitstreamVeraSans-Roman-4a"/>
      <use x="29.4921875" xlink:href="#BitstreamVeraSans-Roman-75"/>
      <use x="92.87109375" xlink:href="#BitstreamVeraSans-Roman-6c"/>
      <use x="120.654296875" xlink:href="#BitstreamVeraSans-Roman-69"/>
      <use x="148.4375" xlink:href="#BitstreamVeraSans-Roman-61"/>
      <use x="209.716796875" xlink:href="#BitstreamVeraSans-Roman-6e"/>
      <use x="273.095703125" xlink:href="#BitstreamVeraSans-Roman-20"/>
      <use x="304.8828125" xlink:href="#BitstreamVeraSans-Roman-64"/>
      <use x="368.359375" xlink:href="#BitstreamVeraSans-Roman-61"/>
      <use x="429.638671875" xlink:href="#BitstreamVeraSans-Roman-79"/>
     </g>
    </g>
   </g>
   <g id="matplotlib.axis_2">
    <g id="ytick_1">
     <g id="line2d_24">
      <defs>
       <path d="
M0 0
L4 0" id="md7965d1ba0" style="stroke:#000000;stroke-width:0.5;"/>
      </defs>
      <g>
       <use style="stroke:#000000;stroke-width:0.5;" x="29.6915625" xlink:href="#md7965d1ba0" y="243.6063125"/>
      </g>
     </g>
     <g id="line2d_25">
      <defs>
       <path d="
M0 0
L-4 0" id="md9a1c1a7cd" style="stroke:#000000;stroke-width:0.5;"/>
      </defs>
      <g>
       <use style="stroke:#000000;stroke-width:0.5;" x="364.4915625" xlink:href="#md9a1c1a7cd" y="243.6063125"/>
      </g>
     </g>
     <g id="text_10">
      <!-- 0 -->
      <g transform="translate(21.15640625 246.08975)scale(0.09 -0.09)">
       <use xlink:href="#BitstreamVeraSans-Roman-30"/>
      </g>
     </g>
    </g>
    <g id="ytick_2">
     <g id="line2d_26">
      <g>
       <use style="stroke:#000000;stroke-width:0.5;" x="29.6915625" xlink:href="#md7965d1ba0" y="206.4063125"/>
      </g>
     </g>
     <g id="line2d_27">
      <g>
       <use style="stroke:#000000;stroke-width:0.5;" x="364.4915625" xlink:href="#md9a1c1a7cd" y="206.4063125"/>
      </g>
     </g>
     <g id="text_11">
      <!-- 1 -->
      <g transform="translate(21.785 208.88975)scale(0.09 -0.09)">
       <use xlink:href="#BitstreamVeraSans-Roman-31"/>
      </g>
     </g>
    </g>
    <g id="ytick_3">
     <g id="line2d_28">
      <g>
       <use style="stroke:#000000;stroke-width:0.5;" x="29.6915625" xlink:href="#md7965d1ba0" y="169.2063125"/>
      </g>
     </g>
     <g id="line2d_29">
      <g>
       <use style="stroke:#000000;stroke-width:0.5;" x="364.4915625" xlink:href="#md9a1c1a7cd" y="169.2063125"/>
      </g>
     </g>
     <g id="text_12">
      <!-- 2 -->
      <g transform="translate(21.52625 171.68975)scale(0.09 -0.09)">
       <use xlink:href="#BitstreamVeraSans-Roman-32"/>
      </g>
     </g>
    </g>
    <g id="ytick_4">
     <g id="line2d_30">
      <g>
       <use style="stroke:#000000;stroke-width:0.5;" x="29.6915625" xlink:href="#md7965d1ba0" y="132.0063125"/>
      </g>
     </g>
     <g id="line2d_31">
      <g>
       <use style="stroke:#000000;stroke-width:0.5;" x="364.4915625" xlink:href="#md9a1c1a7cd" y="132.0063125"/>
      </g>
     </g>
     <g id="text_13">
      <!-- 3 -->
      <g transform="translate(21.37296875 134.48975)scale(0.09 -0.09)">
       <use xlink:href="#BitstreamVeraSans-Roman-33"/>
      </g>
     </g>
    </g>
    <g id="ytick_5">
     <g id="line2d_32">
      <g>
       <use style="stroke:#000000;stroke-width:0.5;" x="29.6915625" xlink:href="#md7965d1ba0" y="94.8063125"/>
      </g>
     </g>
     <g id="line2d_33">
      <g>
       <use style="stroke:#000000;stroke-width:0.5;" x="364.4915625" xlink:href="#md9a1c1a7cd" y="94.8063125"/>
      </g>
     </g>
     <g id="text_14">
      <!-- 4 -->
      <defs>
       <path d="
M37.7969 64.3125
L12.8906 25.3906
L37.7969 25.3906
z

M35.2031 72.9062
L47.6094 72.9062
L47.6094 25.3906
L58.0156 25.3906
L58.0156 17.1875
L47.6094 17.1875
L47.6094 0
L37.7969 0
L37.7969 17.1875
L4.89062 17.1875
L4.89062 26.7031
z
" id="BitstreamVeraSans-Roman-34"/>
      </defs>
      <g transform="translate(20.9103125 97.28975)scale(0.09 -0.09)">
       <use xlink:href="#BitstreamVeraSans-Roman-34"/>
      </g>
     </g>
    </g>
    <g id="ytick_6">
     <g id="line2d_34">
      <g>
       <use style="stroke:#000000;stroke-width:0.5;" x="29.6915625" xlink:href="#md7965d1ba0" y="57.6063125"/>
      </g>
     </g>
     <g id="line2d_35">
      <g>
       <use style="stroke:#000000;stroke-width:0.5;" x="364.4915625" xlink:href="#md9a1c1a7cd" y="57.6063125"/>
      </g>
     </g>
     <g id="text_15">
      <!-- 5 -->
      <g transform="translate(21.44609375 60.08975)scale(0.09 -0.09)">
       <use xlink:href="#BitstreamVeraSans-Roman-35"/>
      </g>
     </g>
    </g>
    <g id="ytick_7">
     <g id="line2d_36">
      <g>
       <use style="stroke:#000000;stroke-width:0.5;" x="29.6915625" xlink:href="#md7965d1ba0" y="20.4063125"/>
      </g>
     </g>
     <g id="line2d_37">
      <g>
       <use style="stroke:#000000;stroke-width:0.5;" x="364.4915625" xlink:href="#md9a1c1a7cd" y="20.4063125"/>
      </g>
     </g>
     <g id="text_16">
      <!-- 6 -->
      <defs>
       <path d="
M33.0156 40.375
Q26.375 40.375 22.4844 35.8281
Q18.6094 31.2969 18.6094 23.3906
Q18.6094 15.5312 22.4844 10.9531
Q26.375 6.39062 33.0156 6.39062
Q39.6562 6.39062 43.5312 10.9531
Q47.4062 15.5312 47.4062 23.3906
Q47.4062 31.2969 43.5312 35.8281
Q39.6562 40.375 33.0156 40.375
M52.5938 71.2969
L52.5938 62.3125
Q48.875 64.0625 45.0938 64.9844
Q41.3125 65.9219 37.5938 65.9219
Q27.8281 65.9219 22.6719 59.3281
Q17.5312 52.7344 16.7969 39.4062
Q19.6719 43.6562 24.0156 45.9219
Q28.375 48.1875 33.5938 48.1875
Q44.5781 48.1875 50.9531 41.5156
Q57.3281 34.8594 57.3281 23.3906
Q57.3281 12.1562 50.6875 5.35938
Q44.0469 -1.42188 33.0156 -1.42188
Q20.3594 -1.42188 13.6719 8.26562
Q6.98438 17.9688 6.98438 36.375
Q6.98438 53.6562 15.1875 63.9375
Q23.3906 74.2188 37.2031 74.2188
Q40.9219 74.2188 44.7031 73.4844
Q48.4844 72.75 52.5938 71.2969" id="BitstreamVeraSans-Roman-36"/>
      </defs>
      <g transform="translate(21.160625 22.88975)scale(0.09 -0.09)">
       <use xlink:href="#BitstreamVeraSans-Roman-36"/>
      </g>
     </g>
    </g>
    <g id="text_17">
     <!-- PET (mm/day) -->
     <defs>
      <path d="
M25.3906 72.9062
L33.6875 72.9062
L8.29688 -9.28125
L0 -9.28125
z
" id="BitstreamVeraSans-Roman-2f"/>
      <path d="
M8.01562 75.875
L15.8281 75.875
Q23.1406 64.3594 26.7812 53.3125
Q30.4219 42.2812 30.4219 31.3906
Q30.4219 20.4531 26.7812 9.375
Q23.1406 -1.70312 15.8281 -13.1875
L8.01562 -13.1875
Q14.5 -2 17.7031 9.0625
Q20.9062 20.125 20.9062 31.3906
Q20.9062 42.6719 17.7031 53.6562
Q14.5 64.6562 8.01562 75.875" id="BitstreamVeraSans-Roman-29"/>
      <path d="
M9.8125 72.9062
L55.9062 72.9062
L55.9062 64.5938
L19.6719 64.5938
L19.6719 43.0156
L54.3906 43.0156
L54.3906 34.7188
L19.6719 34.7188
L19.6719 8.29688
L56.7812 8.29688
L56.7812 0
L9.8125 0
z
" id="BitstreamVeraSans-Roman-45"/>
      <path d="
M-0.296875 72.9062
L61.375 72.9062
L61.375 64.5938
L35.5 64.5938
L35.5 0
L25.5938 0
L25.5938 64.5938
L-0.296875 64.5938
z
" id="BitstreamVeraSans-Roman-54"/>
      <path d="
M19.6719 64.7969
L19.6719 37.4062
L32.0781 37.4062
Q38.9688 37.4062 42.7188 40.9688
Q46.4844 44.5312 46.4844 51.125
Q46.4844 57.6719 42.7188 61.2344
Q38.9688 64.7969 32.0781 64.7969
z

M9.8125 72.9062
L32.0781 72.9062
Q44.3438 72.9062 50.6094 67.3594
Q56.8906 61.8125 56.8906 51.125
Q56.8906 40.3281 50.6094 34.8125
Q44.3438 29.2969 32.0781 29.2969
L19.6719 29.2969
L19.6719 0
L9.8125 0
z
" id="BitstreamVeraSans-Roman-50"/>
      <path d="
M52 44.1875
Q55.375 50.25 60.0625 53.125
Q64.75 56 71.0938 56
Q79.6406 56 84.2812 50.0156
Q88.9219 44.0469 88.9219 33.0156
L88.9219 0
L79.8906 0
L79.8906 32.7188
Q79.8906 40.5781 77.0938 44.375
Q74.3125 48.1875 68.6094 48.1875
Q61.625 48.1875 57.5625 43.5469
Q53.5156 38.9219 53.5156 30.9062
L53.5156 0
L44.4844 0
L44.4844 32.7188
Q44.4844 40.625 41.7031 44.4062
Q38.9219 48.1875 33.1094 48.1875
Q26.2188 48.1875 22.1562 43.5312
Q18.1094 38.875 18.1094 30.9062
L18.1094 0
L9.07812 0
L9.07812 54.6875
L18.1094 54.6875
L18.1094 46.1875
Q21.1875 51.2188 25.4844 53.6094
Q29.7812 56 35.6875 56
Q41.6562 56 45.8281 52.9688
Q50 49.9531 52 44.1875" id="BitstreamVeraSans-Roman-6d"/>
      <path d="
M31 75.875
Q24.4688 64.6562 21.2812 53.6562
Q18.1094 42.6719 18.1094 31.3906
Q18.1094 20.125 21.3125 9.0625
Q24.5156 -2 31 -13.1875
L23.1875 -13.1875
Q15.875 -1.70312 12.2344 9.375
Q8.59375 20.4531 8.59375 31.3906
Q8.59375 42.2812 12.2031 53.3125
Q15.8281 64.3594 23.1875 75.875
z
" id="BitstreamVeraSans-Roman-28"/>
     </defs>
     <g transform="translate(14.03859375 163.426859375)rotate(-90.0)scale(0.09 -0.09)">
      <use xlink:href="#BitstreamVeraSans-Roman-50"/>
      <use x="60.302734375" xlink:href="#BitstreamVeraSans-Roman-45"/>
      <use x="123.486328125" xlink:href="#BitstreamVeraSans-Roman-54"/>
      <use x="184.5703125" xlink:href="#BitstreamVeraSans-Roman-20"/>
      <use x="216.357421875" xlink:href="#BitstreamVeraSans-Roman-28"/>
      <use x="255.37109375" xlink:href="#BitstreamVeraSans-Roman-6d"/>
      <use x="352.783203125" xlink:href="#BitstreamVeraSans-Roman-6d"/>
      <use x="450.1953125" xlink:href="#BitstreamVeraSans-Roman-2f"/>
      <use x="483.88671875" xlink:href="#BitstreamVeraSans-Roman-64"/>
      <use x="547.36328125" xlink:href="#BitstreamVeraSans-Roman-61"/>
      <use x="608.642578125" xlink:href="#BitstreamVeraSans-Roman-79"/>
      <use x="667.822265625" xlink:href="#BitstreamVeraSans-Roman-29"/>
     </g>
    </g>
   </g>
   <g id="text_18">
    <!-- daily bare PET at LDP -->
    <defs>
     <path d="
M48.6875 27.2969
Q48.6875 37.2031 44.6094 42.8438
Q40.5312 48.4844 33.4062 48.4844
Q26.2656 48.4844 22.1875 42.8438
Q18.1094 37.2031 18.1094 27.2969
Q18.1094 17.3906 22.1875 11.75
Q26.2656 6.10938 33.4062 6.10938
Q40.5312 6.10938 44.6094 11.75
Q48.6875 17.3906 48.6875 27.2969
M18.1094 46.3906
Q20.9531 51.2656 25.2656 53.625
Q29.5938 56 35.5938 56
Q45.5625 56 51.7812 48.0938
Q58.0156 40.1875 58.0156 27.2969
Q58.0156 14.4062 51.7812 6.48438
Q45.5625 -1.42188 35.5938 -1.42188
Q29.5938 -1.42188 25.2656 0.953125
Q20.9531 3.32812 18.1094 8.20312
L18.1094 0
L9.07812 0
L9.07812 75.9844
L18.1094 75.9844
z
" id="BitstreamVeraSans-Roman-62"/>
     <path d="
M19.6719 64.7969
L19.6719 8.10938
L31.5938 8.10938
Q46.6875 8.10938 53.6875 14.9375
Q60.6875 21.7812 60.6875 36.5312
Q60.6875 51.1719 53.6875 57.9844
Q46.6875 64.7969 31.5938 64.7969
z

M9.8125 72.9062
L30.0781 72.9062
Q51.2656 72.9062 61.1719 64.0938
Q71.0938 55.2812 71.0938 36.5312
Q71.0938 17.6719 61.125 8.82812
Q51.1719 0 30.0781 0
L9.8125 0
z
" id="BitstreamVeraSans-Roman-44"/>
     <path d="
M41.1094 46.2969
Q39.5938 47.1719 37.8125 47.5781
Q36.0312 48 33.8906 48
Q26.2656 48 22.1875 43.0469
Q18.1094 38.0938 18.1094 28.8125
L18.1094 0
L9.07812 0
L9.07812 54.6875
L18.1094 54.6875
L18.1094 46.1875
Q20.9531 51.1719 25.4844 53.5781
Q30.0312 56 36.5312 56
Q37.4531 56 38.5781 55.875
Q39.7031 55.7656 41.0625 55.5156
z
" id="BitstreamVeraSans-Roman-72"/>
     <path d="
M56.2031 29.5938
L56.2031 25.2031
L14.8906 25.2031
Q15.4844 15.9219 20.4844 11.0625
Q25.4844 6.20312 34.4219 6.20312
Q39.5938 6.20312 44.4531 7.46875
Q49.3125 8.73438 54.1094 11.2812
L54.1094 2.78125
Q49.2656 0.734375 44.1875 -0.34375
Q39.1094 -1.42188 33.8906 -1.42188
Q20.7969 -1.42188 13.1562 6.1875
Q5.51562 13.8125 5.51562 26.8125
Q5.51562 40.2344 12.7656 48.1094
Q20.0156 56 32.3281 56
Q43.3594 56 49.7812 48.8906
Q56.2031 41.7969 56.2031 29.5938
M47.2188 32.2344
Q47.125 39.5938 43.0938 43.9844
Q39.0625 48.3906 32.4219 48.3906
Q24.9062 48.3906 20.3906 44.1406
Q15.875 39.8906 15.1875 32.1719
z
" id="BitstreamVeraSans-Roman-65"/>
     <path d="
M9.8125 72.9062
L19.6719 72.9062
L19.6719 8.29688
L55.1719 8.29688
L55.1719 0
L9.8125 0
z
" id="BitstreamVeraSans-Roman-4c"/>
     <path d="
M18.3125 70.2188
L18.3125 54.6875
L36.8125 54.6875
L36.8125 47.7031
L18.3125 47.7031
L18.3125 18.0156
Q18.3125 11.3281 20.1406 9.42188
Q21.9688 7.51562 27.5938 7.51562
L36.8125 7.51562
L36.8125 0
L27.5938 0
Q17.1875 0 13.2344 3.875
Q9.28125 7.76562 9.28125 18.0156
L9.28125 47.7031
L2.6875 47.7031
L2.6875 54.6875
L9.28125 54.6875
L9.28125 70.2188
z
" id="BitstreamVeraSans-Roman-74"/>
    </defs>
    <g transform="translate(139.50309375 15.4063125)scale(0.10799999999999998 -0.10799999999999998)">
     <use xlink:href="#BitstreamVeraSans-Roman-64"/>
     <use x="63.4765625" xlink:href="#BitstreamVeraSans-Roman-61"/>
     <use x="124.755859375" xlink:href="#BitstreamVeraSans-Roman-69"/>
     <use x="152.5390625" xlink:href="#BitstreamVeraSans-Roman-6c"/>
     <use x="180.322265625" xlink:href="#BitstreamVeraSans-Roman-79"/>
     <use x="239.501953125" xlink:href="#BitstreamVeraSans-Roman-20"/>
     <use x="271.2890625" xlink:href="#BitstreamVeraSans-Roman-62"/>
     <use x="334.765625" xlink:href="#BitstreamVeraSans-Roman-61"/>
     <use x="396.044921875" xlink:href="#BitstreamVeraSans-Roman-72"/>
     <use x="434.908203125" xlink:href="#BitstreamVeraSans-Roman-65"/>
     <use x="496.431640625" xlink:href="#BitstreamVeraSans-Roman-20"/>
     <use x="528.21875" xlink:href="#BitstreamVeraSans-Roman-50"/>
     <use x="588.521484375" xlink:href="#BitstreamVeraSans-Roman-45"/>
     <use x="651.705078125" xlink:href="#BitstreamVeraSans-Roman-54"/>
     <use x="712.7890625" xlink:href="#BitstreamVeraSans-Roman-20"/>
     <use x="744.576171875" xlink:href="#BitstreamVeraSans-Roman-61"/>
     <use x="805.85546875" xlink:href="#BitstreamVeraSans-Roman-74"/>
     <use x="845.064453125" xlink:href="#BitstreamVeraSans-Roman-20"/>
     <use x="876.8515625" xlink:href="#BitstreamVeraSans-Roman-4c"/>
     <use x="932.564453125" xlink:href="#BitstreamVeraSans-Roman-44"/>
     <use x="1009.56640625" xlink:href="#BitstreamVeraSans-Roman-50"/>
    </g>
   </g>
   <g id="legend_1">
    <g id="patch_7">
     <path d="
M294.234 140.013
L359.092 140.013
L359.092 25.8063
L294.234 25.8063
z
" style="fill:#ffffff;stroke:#000000;stroke-linejoin:miter;"/>
    </g>
    <g id="line2d_38">
     <path d="
M301.794 34.5526
L316.914 34.5526" style="fill:none;stroke:#0000ff;stroke-linecap:square;"/>
    </g>
    <g id="line2d_39"/>
    <g id="text_19">
     <!-- 2007 -->
     <defs>
      <path d="
M8.20312 72.9062
L55.0781 72.9062
L55.0781 68.7031
L28.6094 0
L18.3125 0
L43.2188 64.5938
L8.20312 64.5938
z
" id="BitstreamVeraSans-Roman-37"/>
     </defs>
     <g transform="translate(328.7941875 38.332625)scale(0.10799999999999998 -0.10799999999999998)">
      <use xlink:href="#BitstreamVeraSans-Roman-32"/>
      <use x="63.623046875" xlink:href="#BitstreamVeraSans-Roman-30"/>
      <use x="127.24609375" xlink:href="#BitstreamVeraSans-Roman-30"/>
      <use x="190.869140625" xlink:href="#BitstreamVeraSans-Roman-37"/>
     </g>
    </g>
    <g id="line2d_40">
     <path d="
M301.794 50.405
L316.914 50.405" style="fill:none;stroke:#008000;stroke-linecap:square;"/>
    </g>
    <g id="line2d_41"/>
    <g id="text_20">
     <!-- 2008 -->
     <defs>
      <path d="
M31.7812 34.625
Q24.75 34.625 20.7188 30.8594
Q16.7031 27.0938 16.7031 20.5156
Q16.7031 13.9219 20.7188 10.1562
Q24.75 6.39062 31.7812 6.39062
Q38.8125 6.39062 42.8594 10.1719
Q46.9219 13.9688 46.9219 20.5156
Q46.9219 27.0938 42.8906 30.8594
Q38.875 34.625 31.7812 34.625
M21.9219 38.8125
Q15.5781 40.375 12.0312 44.7188
Q8.5 49.0781 8.5 55.3281
Q8.5 64.0625 14.7188 69.1406
Q20.9531 74.2188 31.7812 74.2188
Q42.6719 74.2188 48.875 69.1406
Q55.0781 64.0625 55.0781 55.3281
Q55.0781 49.0781 51.5312 44.7188
Q48 40.375 41.7031 38.8125
Q48.8281 37.1562 52.7969 32.3125
Q56.7812 27.4844 56.7812 20.5156
Q56.7812 9.90625 50.3125 4.23438
Q43.8438 -1.42188 31.7812 -1.42188
Q19.7344 -1.42188 13.25 4.23438
Q6.78125 9.90625 6.78125 20.5156
Q6.78125 27.4844 10.7812 32.3125
Q14.7969 37.1562 21.9219 38.8125
M18.3125 54.3906
Q18.3125 48.7344 21.8438 45.5625
Q25.3906 42.3906 31.7812 42.3906
Q38.1406 42.3906 41.7188 45.5625
Q45.3125 48.7344 45.3125 54.3906
Q45.3125 60.0625 41.7188 63.2344
Q38.1406 66.4062 31.7812 66.4062
Q25.3906 66.4062 21.8438 63.2344
Q18.3125 60.0625 18.3125 54.3906" id="BitstreamVeraSans-Roman-38"/>
     </defs>
     <g transform="translate(328.7941875 54.185)scale(0.10799999999999998 -0.10799999999999998)">
      <use xlink:href="#BitstreamVeraSans-Roman-32"/>
      <use x="63.623046875" xlink:href="#BitstreamVeraSans-Roman-30"/>
      <use x="127.24609375" xlink:href="#BitstreamVeraSans-Roman-30"/>
      <use x="190.869140625" xlink:href="#BitstreamVeraSans-Roman-38"/>
     </g>
    </g>
    <g id="line2d_42">
     <path d="
M301.794 66.2574
L316.914 66.2574" style="fill:none;stroke:#ff0000;stroke-linecap:square;"/>
    </g>
    <g id="line2d_43"/>
    <g id="text_21">
     <!-- 2009 -->
     <defs>
      <path d="
M10.9844 1.51562
L10.9844 10.5
Q14.7031 8.73438 18.5 7.8125
Q22.3125 6.89062 25.9844 6.89062
Q35.75 6.89062 40.8906 13.4531
Q46.0469 20.0156 46.7812 33.4062
Q43.9531 29.2031 39.5938 26.9531
Q35.25 24.7031 29.9844 24.7031
Q19.0469 24.7031 12.6719 31.3125
Q6.29688 37.9375 6.29688 49.4219
Q6.29688 60.6406 12.9375 67.4219
Q19.5781 74.2188 30.6094 74.2188
Q43.2656 74.2188 49.9219 64.5156
Q56.5938 54.8281 56.5938 36.375
Q56.5938 19.1406 48.4062 8.85938
Q40.2344 -1.42188 26.4219 -1.42188
Q22.7031 -1.42188 18.8906 -0.6875
Q15.0938 0.046875 10.9844 1.51562
M30.6094 32.4219
Q37.25 32.4219 41.125 36.9531
Q45.0156 41.5 45.0156 49.4219
Q45.0156 57.2812 41.125 61.8438
Q37.25 66.4062 30.6094 66.4062
Q23.9688 66.4062 20.0938 61.8438
Q16.2188 57.2812 16.2188 49.4219
Q16.2188 41.5 20.0938 36.9531
Q23.9688 32.4219 30.6094 32.4219" id="BitstreamVeraSans-Roman-39"/>
     </defs>
     <g transform="translate(328.7941875 70.037375)scale(0.10799999999999998 -0.10799999999999998)">
      <use xlink:href="#BitstreamVeraSans-Roman-32"/>
      <use x="63.623046875" xlink:href="#BitstreamVeraSans-Roman-30"/>
      <use x="127.24609375" xlink:href="#BitstreamVeraSans-Roman-30"/>
      <use x="190.869140625" xlink:href="#BitstreamVeraSans-Roman-39"/>
     </g>
    </g>
    <g id="line2d_44">
     <path d="
M301.794 82.1097
L316.914 82.1097" style="fill:none;stroke:#00bfbf;stroke-linecap:square;"/>
    </g>
    <g id="line2d_45"/>
    <g id="text_22">
     <!-- 2010 -->
     <g transform="translate(328.7941875 85.88975)scale(0.10799999999999998 -0.10799999999999998)">
      <use xlink:href="#BitstreamVeraSans-Roman-32"/>
      <use x="63.623046875" xlink:href="#BitstreamVeraSans-Roman-30"/>
      <use x="127.24609375" xlink:href="#BitstreamVeraSans-Roman-31"/>
      <use x="190.869140625" xlink:href="#BitstreamVeraSans-Roman-30"/>
     </g>
    </g>
    <g id="line2d_46">
     <path d="
M301.794 97.9621
L316.914 97.9621" style="fill:none;stroke:#bf00bf;stroke-linecap:square;"/>
    </g>
    <g id="line2d_47"/>
    <g id="text_23">
     <!-- 2011 -->
     <g transform="translate(328.7941875 101.742125)scale(0.10799999999999998 -0.10799999999999998)">
      <use xlink:href="#BitstreamVeraSans-Roman-32"/>
      <use x="63.623046875" xlink:href="#BitstreamVeraSans-Roman-30"/>
      <use x="127.24609375" xlink:href="#BitstreamVeraSans-Roman-31"/>
      <use x="190.869140625" xlink:href="#BitstreamVeraSans-Roman-31"/>
     </g>
    </g>
    <g id="line2d_48">
     <path d="
M301.794 113.814
L316.914 113.814" style="fill:none;stroke:#bfbf00;stroke-linecap:square;"/>
    </g>
    <g id="line2d_49"/>
    <g id="text_24">
     <!-- 2012 -->
     <g transform="translate(328.7941875 117.5945)scale(0.10799999999999998 -0.10799999999999998)">
      <use xlink:href="#BitstreamVeraSans-Roman-32"/>
      <use x="63.623046875" xlink:href="#BitstreamVeraSans-Roman-30"/>
      <use x="127.24609375" xlink:href="#BitstreamVeraSans-Roman-31"/>
      <use x="190.869140625" xlink:href="#BitstreamVeraSans-Roman-32"/>
     </g>
    </g>
    <g id="line2d_50">
     <path d="
M301.794 129.667
L316.914 129.667" style="fill:none;stroke:#000000;stroke-linecap:square;"/>
    </g>
    <g id="line2d_51"/>
    <g id="text_25">
     <!-- 2013 -->
     <g transform="translate(328.7941875 133.446875)scale(0.10799999999999998 -0.10799999999999998)">
      <use xlink:href="#BitstreamVeraSans-Roman-32"/>
      <use x="63.623046875" xlink:href="#BitstreamVeraSans-Roman-30"/>
      <use x="127.24609375" xlink:href="#BitstreamVeraSans-Roman-31"/>
      <use x="190.869140625" xlink:href="#BitstreamVeraSans-Roman-33"/>
     </g>
    </g>
   </g>
  </g>
 </g>
 <defs>
  <clipPath id="p69096553e2">
   <rect height="223.2" width="334.8" x="29.6915625" y="20.4063125"/>
  </clipPath>
 </defs>
</svg>
