<?xml version="1.0" encoding="utf-8" standalone="no"?>
<!DOCTYPE svg PUBLIC "-//W3C//DTD SVG 1.1//EN"
  "http://www.w3.org/Graphics/SVG/1.1/DTD/svg11.dtd">
<!-- Created with matplotlib (http://matplotlib.org/) -->
<svg height="280pt" version="1.1" viewBox="0 0 373 280" width="373pt" xmlns="http://www.w3.org/2000/svg" xmlns:xlink="http://www.w3.org/1999/xlink">
 <defs>
  <style type="text/css">
*{stroke-linecap:butt;stroke-linejoin:round;}
  </style>
 </defs>
 <g id="figure_1">
  <g id="patch_1">
   <path d="
M0 280.074
L373.191 280.074
L373.191 0
L0 0
z
" style="fill:#ffffff;"/>
  </g>
  <g id="axes_1">
   <g id="patch_2">
    <path d="
M31.1906 244.518
L365.991 244.518
L365.991 21.3181
L31.1906 21.3181
z
" style="fill:#ffffff;"/>
   </g>
   <g id="line2d_1">
    <path clip-path="url(#pc1a11fcac8)" d="
M0 0" style="fill:none;stroke:#0000ff;stroke-linecap:square;"/>
   </g>
   <g id="line2d_2">
    <path clip-path="url(#pc1a11fcac8)" d="
M0 0" style="fill:none;stroke:#008000;stroke-linecap:square;"/>
   </g>
   <g id="line2d_3">
    <path clip-path="url(#pc1a11fcac8)" d="
M0 0" style="fill:none;stroke:#ff0000;stroke-linecap:square;"/>
   </g>
   <g id="line2d_4">
    <path clip-path="url(#pc1a11fcac8)" d="
M33.0251 224.526
L33.9424 131.17
L34.8597 231.147
L35.7769 213.722
L36.6942 214.722
L37.6114 111.511
L38.5287 143.485
L39.446 204.141
L40.3632 160.817
L41.2805 175.951
L42.1977 223.314
L43.115 214.121
L44.0323 120.858
L44.9495 164.077
L45.8668 169.132
L46.784 225.844
L47.7013 221.697
L48.6186 213.82
L49.5358 198.321
L50.4531 172.076
L51.3704 226.287
L52.2876 228.141
L53.2049 225.007
L54.1221 225.449
L55.0394 232.469
L55.9567 242.296
L56.8739 205.931
L57.7912 183.719
L58.7084 227.304
L59.6257 221.374
L60.543 203.169
L61.4602 203.584
L62.3775 213.325
L63.2947 220.599
L64.212 217.996
L65.1293 209.108
L66.0465 209.712
L66.9638 183.227
L67.881 177.921
L68.7983 222.982
L69.7156 206.791
L70.6328 226.052
L71.5501 206.699
L72.4673 240.783
L73.3846 236.512
L74.3019 234.786
L75.2191 237.103
L76.1364 208.169
L77.0536 198.655
L77.9709 195.749
L78.8882 104.4
L79.8054 100.848
L80.7227 192.661
L81.6399 217.201
L82.5572 163
L84.3917 201.319
L85.309 161.432
L86.2262 152.925
L87.1435 190.943
L88.0608 179.29
L88.978 194.736
L89.8953 178.342
L90.8125 155.384
L91.7298 198.299
L92.6471 188.728
L93.5643 137.254
L94.4816 133.981
L95.3988 147.695
L96.3161 214.473
L97.2334 177.029
L98.1506 123.979
L99.0679 123.196
L99.9851 136.697
L100.902 144.681
L101.82 85.1984
L102.737 99.4138
L103.654 154.58
L104.571 193.659
L105.489 136.637
L106.406 114.766
L108.24 198.101
L109.158 169.281
L110.075 101.369
L111.91 206.06
L112.827 176.25
L113.744 208.722
L114.661 202.467
L115.579 175.387
L116.496 170.628
L117.413 176.112
L118.33 166.163
L119.248 171.139
L120.165 158.644
L121.082 103.34
L121.999 105.053
L122.917 106.262
L123.834 170.07
L124.751 200.099
L125.668 136.236
L126.586 103.287
L127.503 122.434
L128.42 124.434
L129.337 97.5999
L130.255 82.8699
L131.172 148.315
L132.089 198.538
L133.007 183.542
L133.924 76.5028
L134.841 60.6047
L135.758 54.9679
L136.676 63.9777
L137.593 173.929
L138.51 175.803
L139.427 172.88
L140.345 196.468
L141.262 179.57
L142.179 117.481
L143.096 152.284
L144.014 71.1286
L144.931 84.6333
L145.848 118.955
L146.765 26.5463
L147.683 72.7864
L148.6 60.9413
L149.517 156.047
L150.434 116.025
L151.352 57.9746
L152.269 85.3491
L153.186 59.9527
L154.104 67.7636
L155.021 85.22
L156.855 191.494
L157.773 128.64
L158.69 111.896
L159.607 112.417
L160.524 224.609
L161.442 165.388
L163.276 87.8149
L164.193 157.566
L165.111 162.366
L166.028 157.569
L166.945 154.999
L167.862 89.3968
L168.78 174.634
L169.697 173.341
L170.614 205.195
L171.531 137.136
L172.449 211.286
L173.366 149.485
L174.283 194.601
L175.2 125.886
L176.118 104.316
L177.035 150.353
L177.952 180.301
L178.87 110.444
L179.787 71.4938
L180.704 79.2221
L181.621 91.4508
L182.539 109.663
L183.456 101.668
L184.373 129.211
L185.29 63.3798
L186.208 91.3304
L187.125 147.919
L188.042 150.672
L188.959 91.8936
L189.877 85.0896
L190.794 129.356
L191.711 144.496
L192.628 103.358
L193.546 100.472
L194.463 115.512
L195.38 150.176
L196.297 122.478
L197.215 109.127
L198.132 120.454
L199.049 138.333
L199.967 88.8182
L200.884 97.0983
L201.801 95.4178
L202.718 90.1241
L203.636 94.5996
L204.553 107.467
L205.47 107.833
L206.387 109.409
L207.305 103.183
L208.222 59.056
L209.139 79.7866
L210.056 85.3565
L210.974 103.606
L211.891 96.0665
L212.808 95.1468
L213.725 84.2498
L214.643 90.7
L215.56 82.9698
L216.477 39.1542
L217.394 30.408
L218.312 51.3079
L219.229 56.4028
L220.146 113.1
L221.064 54.4641
L221.981 73.0941
L222.898 61.2357
L223.815 88.7931
L225.65 42.6209
L226.567 46.2186
L227.484 73.6255
L228.402 106.943
L230.236 126.12
L231.153 110.839
L232.071 116.521
L232.988 124.83
L233.905 144.895
L234.822 172.907
L235.74 137.368
L236.657 109.71
L237.574 115.801
L238.491 105.002
L239.409 108.614
L240.326 107.714
L241.243 111.544
L242.16 98.5054
L243.078 95.4129
L243.995 97.1379
L244.912 89.237
L245.83 100.345
L246.747 90.1709
L247.664 102.171
L248.581 126.348
L249.499 87.702
L250.416 97.5564
L251.333 183.93
L252.25 138.738
L253.168 152.449
L254.085 149.834
L255.002 110.78
L255.919 98.9097
L256.837 112.632
L257.754 104.045
L258.671 75.0194
L259.588 72.2788
L260.506 157.733
L261.423 221.691
L262.34 150.317
L263.257 94.3246
L264.175 92.4881
L265.092 102.834
L266.009 109.186
L266.927 107.238
L267.844 99.3461
L268.761 113.604
L269.678 104.779
L270.596 137.367
L271.513 146.951
L272.43 108.828
L273.347 95.3227
L274.265 100.41
L275.182 95.0832
L276.099 109.806
L277.016 105.189
L277.934 103.601
L278.851 111.075
L279.768 115.583
L280.685 103.816
L281.603 117.185
L282.52 118.776
L283.437 148.411
L284.354 207.332
L285.272 189.839
L286.189 163.197
L287.106 148.828
L288.024 202.179
L288.941 160.636
L289.858 165.815
L290.775 162.172
L291.693 97.3883
L292.61 94.0178
L293.527 94.0218
L294.444 110.091
L295.362 139.562
L296.279 116.82
L297.196 77.6913
L298.113 70.4259
L299.031 92.313
L299.948 104.409
L300.865 105.665
L301.782 179.785
L302.7 223.591
L303.617 194.109
L304.534 209.219
L305.451 171.915
L306.369 96.596
L307.286 98.3782
L308.203 125.214
L309.12 186.655
L310.038 152.679
L310.955 134.244
L311.872 134.156
L312.79 112.955
L313.707 131.354
L314.624 134.507
L315.541 187.224
L316.459 201.486
L317.376 153.861
L318.293 217.067
L319.21 209.159
L320.128 181.738
L321.045 175.946
L321.962 218.629
L322.879 222.692
M325.631 140.267
L326.548 201.09
L327.466 219.207
L328.383 196.597
L329.3 213.466
L330.217 197.524
L331.135 192.479
L332.052 161.242
L332.969 156.832
L333.887 168.061
L334.804 218.548
L335.721 187.685
L336.638 141.731
L337.556 226.337
L338.473 232.55
L339.39 188.13
L340.307 224.115
L341.225 214.561
L342.142 194.057
L343.059 215.494
L343.976 169.522
L344.894 202.414
L345.811 190.928
L346.728 212.968
L347.645 204.433
L348.563 188.928
L349.48 199.865
L350.397 197.967
L351.314 171.238
L352.232 139.751
L353.149 190.436
L354.066 219.471
L354.984 198.81
L355.901 182.409
L356.818 211.543
L357.735 202.6
L358.653 157.729
L359.57 80.7142
L360.487 165.465
L361.404 201.945
L362.322 210.381
L363.239 216.965
L364.156 203.247
L365.073 220.978
L365.073 220.978" style="fill:none;stroke:#00bfbf;stroke-linecap:square;"/>
   </g>
   <g id="line2d_5">
    <path clip-path="url(#pc1a11fcac8)" d="
M31.1906 179.702
L32.1079 168.167
L33.0251 216.087
L33.9424 215.907
L34.8597 165.273
L35.7769 137.469
L36.6942 142.702
L37.6114 189.404
L38.5287 204.119
L39.446 208.209
L40.3632 169.362
L41.2805 182.457
L42.1977 225.815
L43.115 215.405
L44.0323 219.5
L44.9495 234.496
L46.784 212.821
L47.7013 213.399
L48.6186 159.907
L49.5358 202.35
L50.4531 226.842
L51.3704 164.754
L52.2876 207.086
L53.2049 223.451
L54.1221 189.975
L55.0394 171.886
L55.9567 177.799
L56.8739 184.598
L57.7912 209.23
L58.7084 187.712
L59.6257 130.748
L60.543 104.302
L61.4602 140.246
L62.3775 206.647
L63.2947 204.967
L64.212 181.511
L65.1293 196.919
L66.0465 186.885
L66.9638 197
L69.7156 130.071
L70.6328 126.033
L71.5501 130.606
L72.4673 139.183
L74.3019 194.119
L75.2191 201.278
L76.1364 190.587
L77.0536 215.74
L77.9709 222.348
L78.8882 209.514
L79.8054 179.466
L80.7227 164.645
L81.6399 182.49
L82.5572 145.979
L83.4745 162.946
L84.3917 137.824
L85.309 136.191
L86.2262 186.505
L87.1435 189.813
L88.0608 198.061
L88.978 190.001
L89.8953 197.9
L90.8125 196.237
L91.7298 223.858
L93.5643 175.632
L94.4816 201.95
L95.3988 200.62
L96.3161 201.147
L97.2334 190.738
L98.1506 195.653
L99.0679 235.365
L99.9851 214.769
L100.902 173.584
L101.82 197.943
L102.737 183.61
L103.654 212.044
L104.571 214.769
L105.489 180.419
L106.406 194.84
L107.323 193.15
L108.24 227.51
L109.158 216.674
L110.075 200.042
L110.992 205.148
L111.91 211.809
L112.827 177.052
L113.744 165.194
L114.661 188.593
L116.496 138.445
L117.413 189.687
L118.33 185.084
L119.248 187.885
L120.165 177.577
L121.082 192.997
L121.999 165.436
L122.917 194.053
L123.834 161.33
L124.751 191.3
L125.668 170.408
L126.586 175.907
L127.503 192.843
L128.42 176.107
L129.337 186.069
L130.255 109.98
L131.172 161.133
L132.089 203.227
L133.007 147.621
L133.924 126.438
L135.758 195.175
L136.676 181.962
L137.593 151.412
L138.51 182.068
L139.427 165.392
L140.345 160.406
L141.262 132.02
L142.179 156.312
L143.096 146.288
L144.014 134.658
L144.931 113.31
L145.848 177.84
L146.765 165.558
L147.683 195.376
L148.6 154.664
L149.517 98.6695
L150.434 98.8084
L151.352 116.337
L152.269 108.787
L153.186 155.394
L154.104 193.683
L155.021 191.18
L155.938 153.25
L156.855 167.318
L157.773 81.0531
L159.607 155.996
L160.524 127.791
L161.442 162
L163.276 134.584
L164.193 177.67
L165.111 201.522
L166.028 165.933
L166.945 211.258
L167.862 169.728
L168.78 139.323
L169.697 134.123
L170.614 182.363
L171.531 119.643
L172.449 84.2519
L173.366 117.78
L174.283 171.885
L175.2 183.256
L176.118 114.23
L178.87 145.127
L179.787 152.718
L180.704 168.442
L181.621 98.9339
L182.539 67.2436
L183.456 114.04
L184.373 79.2631
L185.29 167.216
L186.208 164.399
L187.125 123.467
L188.042 114.159
L188.959 113.602
L189.877 114.461
L190.794 92.9382
L191.711 67.9263
L192.628 73.0687
L193.546 105.165
L194.463 117.908
L195.38 149.038
L196.297 131.723
L197.215 93.9128
L198.132 104.968
L199.049 111.614
L199.967 124.827
L200.884 118.203
L201.801 115.009
L202.718 148.412
L203.636 114.127
L204.553 88.5451
L205.47 113.897
L206.387 125.389
L207.305 127.394
L208.222 135.718
L209.139 149.325
L210.056 113.228
L210.974 127.877
L211.891 117.196
L212.808 113.545
L213.725 116.571
L214.643 112.838
L215.56 105.514
L216.477 116.332
L217.394 98.5649
L218.312 122.776
L219.229 112.964
L220.146 124.009
L221.064 113.203
L221.981 105.682
L222.898 113.828
L223.815 134.936
L224.733 153.16
L225.65 135.723
L226.567 130.17
L227.484 125.9
L228.402 144.54
L229.319 124.371
L230.236 119.153
L231.153 131.805
L232.071 120.964
L232.988 116.732
L233.905 115.053
L234.822 106.89
L235.74 110.081
L236.657 119.764
L237.574 113.36
L238.491 104.729
L239.409 109.374
L240.326 116.574
L241.243 114.078
L242.16 106.713
L243.078 124.557
L243.995 135.535
L244.912 126.517
L245.83 122.166
L246.747 129.307
L247.664 134.13
L248.581 132.03
L249.499 146.718
L250.416 136.596
L251.333 130.48
L252.25 120.143
L253.168 107.44
L254.085 104.997
L255.002 104.483
L255.919 107.797
L256.837 106.113
L257.754 113.266
L258.671 127.448
L259.588 126.405
L260.506 126.803
L261.423 131.928
L262.34 128.156
L263.257 149.024
L264.175 136.88
L265.092 142.345
L266.009 131.354
L266.927 181.394
L267.844 202.121
L268.761 111.056
L269.678 111.26
L270.596 126.519
L271.513 119.928
L272.43 109.609
L273.347 123.248
L274.265 125.076
L275.182 124.763
L276.099 139.139
L277.016 127.732
L277.934 123.801
L278.851 124.659
L279.768 116.691
L280.685 137.157
L281.603 133.951
L282.52 129.768
L283.437 138.547
L284.354 194.567
L285.272 219.841
L286.189 229.514
L287.106 231.637
L288.024 170.56
L288.941 136.68
L289.858 193.053
L290.775 174.178
L291.693 138.365
L292.61 121.912
L293.527 129.316
L294.444 155.923
L295.362 205.18
L296.279 138.164
L297.196 114.23
L298.113 143.316
L299.031 130.34
L299.948 142.525
L300.865 161.017
L301.782 145.576
L302.7 182.534
L303.617 100.069
L304.534 61.7526
L305.451 83.7126
L306.369 99.4769
L307.286 121.235
L308.203 148.314
L309.12 171.517
L310.955 78.3229
L311.872 94.7056
L312.79 164.663
L313.707 214.31
L314.624 213.964
L315.541 188.29
L316.459 169.153
L317.376 131.315
L318.293 104.37
L319.21 140.907
L320.128 183.448
L321.045 186.303
L321.962 158.705
L322.879 147.023
L323.797 132.972
L324.714 198.47
L325.631 211.111
L326.548 193.313
L327.466 156.401
L328.383 174.729
L329.3 190.096
L330.217 134.492
L331.135 168.511
L332.052 166.63
L332.969 70.568
L333.887 90.9758
L334.804 159.05
L335.721 200.844
L336.638 182.774
L337.556 108.131
L338.473 112.868
L339.39 129.908
L340.307 152.981
L341.225 129.074
L342.142 112.202
L343.059 124.299
L343.976 117.543
L344.894 97.8803
L345.811 121.84
L346.728 128.906
L347.645 128.226
L348.563 141.494
L349.48 147.636
L350.397 166.803
L351.314 173.055
L352.232 160.968
L353.149 153.934
L354.066 124.955
L354.984 119.824
L355.901 146.854
L356.818 57.0819
L357.735 68.2453
L358.653 84.3769
L359.57 105.868
L360.487 121.918
L361.404 158.182
L362.322 217.112
L363.239 189.73
L364.156 218.038
L365.073 170.233
L365.073 170.233" style="fill:none;stroke:#bf00bf;stroke-linecap:square;"/>
   </g>
   <g id="line2d_6">
    <path clip-path="url(#pc1a11fcac8)" d="
M31.1906 102.174
L32.1079 124.337
L33.0251 122.115
L33.9424 106.086
L34.8597 146.012
L35.7769 155.495
L36.6942 169.735
L37.6114 167.951
L38.5287 163.955
L39.446 191.232
L40.3632 146.684
L41.2805 110.234
L42.1977 64.0379
L43.115 78.0205
L44.0323 136.561
L44.9495 152.518
L45.8668 105.53
L46.784 164.869
L47.7013 233.575
L48.6186 233.548
L49.5358 227.977
L50.4531 199.164
L51.3704 222.487
L52.2876 191.782
L53.2049 201.046
L54.1221 203.584
L55.9567 133.318
L56.8739 99.4151
L57.7912 192.333
L58.7084 157.267
L59.6257 182.156
L60.543 210.368
L61.4602 177.04
L62.3775 154.101
L63.2947 153.368
L64.212 152.944
L65.1293 119.369
L66.0465 179.708
L66.9638 209.798
L67.881 198.017
L68.7983 206.726
L69.7156 222.895
L70.6328 195.219
L71.5501 197.326
L72.4673 206.703
L73.3846 157.755
L74.3019 174.012
L75.2191 193.685
L76.1364 163.896
L77.0536 170.103
L77.9709 222.231
L79.8054 165.561
L80.7227 123.335
L81.6399 178.495
L82.5572 160.832
L83.4745 139.44
L84.3917 148.262
L85.309 172.726
L86.2262 187.18
L87.1435 182.619
L88.0608 205.096
L88.978 174.857
L89.8953 137.77
L90.8125 188.686
L91.7298 128.113
L92.6471 122.602
L93.5643 118.083
L94.4816 106.507
L95.3988 159.651
L96.3161 170.134
L97.2334 171.948
L98.1506 229.452
L99.0679 205.22
L99.9851 196.164
L100.902 183.723
L101.82 209.716
L102.737 171.983
L103.654 191.003
L104.571 184.166
L105.489 134.955
L106.406 156.066
L107.323 116.508
L108.24 169.182
L109.158 210.303
L110.075 153.979
L110.992 193.481
L111.91 192.17
L112.827 214.552
L113.744 141.14
L114.661 150.978
L115.579 162.423
L116.496 113.067
L117.413 158.59
L118.33 151.575
L119.248 159.336
L120.165 87.1043
L121.082 60.74
L121.999 83.8152
L122.917 83.4968
L123.834 158.382
L124.751 111.99
L125.668 155.927
L126.586 91.4878
L127.503 70.7436
L128.42 165.01
L129.337 127.103
L130.255 149.656
L131.172 179.591
L132.089 135.935
L133.007 98.1673
L133.924 104.743
L134.841 143.353
L135.758 138.287
L136.676 157.623
L137.593 215.794
L138.51 154.008
L140.345 88.3571
L141.262 179.632
L142.179 114.453
L143.096 104.012
L144.014 169.257
L144.931 182.16
L145.848 134.083
L146.765 100.415
L147.683 72.8025
L148.6 82.9156
L149.517 103.955
L150.434 64.9206
L151.352 62.781
L152.269 70.9748
L153.186 82.752
L154.104 102.557
L155.021 135.717
L155.938 95.9683
L156.855 123.25
L158.69 62.2834
L159.607 87.5697
L160.524 154.257
L161.442 149.943
L162.359 158.112
L163.276 112.574
L164.193 185.035
L165.111 196.756
L166.028 157.174
L166.945 89.471
L167.862 92.8096
L168.78 88.191
L169.697 108.255
L170.614 105.662
L171.531 131.619
L172.449 126.565
L174.283 177.162
L175.2 102.367
L176.118 116.988
L177.035 128.727
L177.952 164.823
L178.87 121.513
L179.787 70.6461
L180.704 122.211
L181.621 108.917
L182.539 65.9213
L183.456 138.524
L184.373 99.9208
L185.29 103.802
L186.208 93.5781
L187.125 125.363
L188.042 82.9423
L188.959 98.6381
L189.877 159.745
L190.794 109.771
L191.711 100.609
L192.628 95.8769
L193.546 116.677
L194.463 81.5553
L195.38 103.437
L196.297 103.604
L197.215 112.981
L198.132 139.882
L199.049 116.527
L199.967 106.336
L200.884 100.055
L201.801 120.721
L202.718 127.806
L203.636 123.553
L204.553 157.072
L205.47 129.231
L206.387 128.483
L207.305 136.233
L208.222 127.857
L209.139 153.506
L210.056 173.531
L210.974 152.906
L211.891 143.031
L212.808 121.727
L213.725 118.187
L214.643 127.935
L215.56 115.623
L216.477 116.036
L217.394 121.665
L219.229 113.685
L220.146 126.59
L221.064 122.12
L221.981 126.559
L222.898 124.43
L223.815 121.722
L224.733 120.362
L225.65 121.967
L226.567 112.409
L227.484 106.32
L228.402 112.452
L229.319 114.161
L230.236 123.57
L231.153 125.336
L232.988 133.193
L233.905 132.977
L234.822 144.706
L235.74 123.092
L236.657 128.697
L237.574 127.682
L238.491 125.69
L239.409 123.101
L240.326 128.641
L242.16 123.519
L243.078 148.116
L243.995 130.377
L244.912 135.06
L245.83 124.234
L246.747 115.817
L247.664 86.0698
L248.581 102.64
L249.499 137.468
L250.416 143.825
L251.333 124.514
L252.25 116.202
L253.168 111.433
L254.085 137.567
L255.002 126.089
L255.919 92.0884
L256.837 101.473
L257.754 104.833
L258.671 114.838
L259.588 133.044
L260.506 107.939
L261.423 110.331
L262.34 130.703
L263.257 111.806
L264.175 104.827
L265.092 77.6893
L266.009 104.249
L266.927 111.545
L267.844 112
L268.761 115.094
L269.678 107.539
L270.596 112.526
L271.513 119.262
L272.43 125.124
L273.347 125.065
L274.265 120.544
L275.182 181.787
L276.099 151.894
L277.016 152.435
L277.934 139.704
L278.851 120.48
L279.768 130.403
L280.685 128.763
L281.603 125.238
L282.52 119.696
L283.437 113.154
L284.354 75.2274
L285.272 77.8756
L286.189 73.4175
L287.106 69.9458
L288.024 79.8355
L288.941 80.9948
L289.858 101.956
L290.775 111.757
L291.693 112.1
L292.61 111.579
L293.527 178.541
L294.444 153.011
L295.362 162.799
L296.279 160.965
L297.196 118.961
L298.113 109.076
L299.031 134.542
L299.948 176.572
L300.865 122.161
L301.782 197.911
L302.7 179.768
L303.617 195.146
L304.534 169.869
L305.451 140.485
L306.369 180.753
M308.203 147.185
L309.12 144.769
L310.038 124.708
L310.955 167.49
L311.872 150.917
L312.79 157.245
L313.707 152.532
L314.624 176.53
L315.541 150.623
L316.459 164.378
L318.293 206.664
L319.21 194.171
L320.128 191.257
L321.045 170.64
M322.879 198.167
L323.797 158.132
L325.631 202.779
L326.548 176.824
L327.466 198.562
L328.383 191.966
L329.3 194.551
L330.217 156.319
L331.135 113.171
L332.052 173.496
L332.969 196.744
L333.887 170.743
L334.804 155.5
L335.721 175.488
L336.638 190.755
L337.556 202.976
L338.473 201.522
L339.39 210.459
L340.307 159.164
L341.225 191.226
L342.142 217.481
L343.976 180.585
L344.894 199.656
L345.811 139.035
L346.728 215.229
L347.645 177.895
L348.563 226.714
L349.48 193.624
L350.397 226.042
L352.232 206.595
L353.149 192.692
L354.066 199.879
L354.984 180.461
L355.901 112.602
L356.818 93.6936
L357.735 158.345
L358.653 205.019
L359.57 216.382
L360.487 168.691
L361.404 201.44
L362.322 209.854
L363.239 210.857
L364.156 183.933
L365.073 218.71
L365.073 218.71" style="fill:none;stroke:#bfbf00;stroke-linecap:square;"/>
   </g>
   <g id="line2d_7">
    <path clip-path="url(#pc1a11fcac8)" d="
M31.1906 203.653
L32.1079 205.622
L33.9424 143.931
L34.8597 185.753
L35.7769 175.218
L36.6942 208.723
L37.6114 233.966
M40.3632 239.908
L41.2805 239.52
L42.1977 232.236
L43.115 207.539
L44.0323 232.859
L44.9495 206.014
L45.8668 161.134
L46.784 134.8
L47.7013 142.109
L48.6186 132.748
L49.5358 133.208
L50.4531 137.232
L51.3704 128.228
L52.2876 194.289
L53.2049 233.364
L54.1221 231.547
L55.0394 238.634
L55.9567 232.07
L56.8739 233.608
L57.7912 235.794
L58.7084 241.947
L59.6257 233.153
L60.543 220.704
L61.4602 204.722
L62.3775 184.005
L63.2947 185.683
L64.212 205.783
L65.1293 194.024
L66.0465 213.747
L66.9638 202.109
L67.881 180.317
L68.7983 163.87
L69.7156 209.255
L70.6328 214.479
L71.5501 207.175
L72.4673 194.98
L73.3846 200.379
L74.3019 210.476
L75.2191 157.817
L76.1364 187.603
L77.0536 198.452
L77.9709 182.487
L78.8882 223.677
L79.8054 218.923
L81.6399 202.292
L82.5572 197.628
L83.4745 170.995
L84.3917 199.005
L85.309 209.102
L86.2262 202.035
L87.1435 186.847
L88.0608 140.683
L88.978 149.068
L89.8953 189.617
L90.8125 179.565
L91.7298 157.717
L92.6471 145.712
L93.5643 121.389
L94.4816 196.594
L95.3988 188.868
L96.3161 154
L97.2334 146.418
L98.1506 155.346
L99.0679 169.064
L99.9851 161.457
L100.902 157.367
L101.82 90.4995
L102.737 174.796
L103.654 162.407
L104.571 184.871
L106.406 113.485
L107.323 112.483
L108.24 189.629
L109.158 168.529
L110.075 137.072
L110.992 140.33
L111.91 123.529
L112.827 128.758
L113.744 155.557
L114.661 133.464
L115.579 122.577
L116.496 174.91
L117.413 175.756
L118.33 200.872
L119.248 195.318
L120.165 144.955
L121.082 107.685
L121.999 165.552
L122.917 121.847
L123.834 91.7393
L124.751 166.336
L125.668 132.954
L126.586 136.596
L127.503 106.675
L128.42 71.3014
L129.337 75.2936
L130.255 199.476
L131.172 162.556
L132.089 133.927
L134.841 71.8839
L135.758 83.8994
L136.676 102.419
L137.593 113.809
L138.51 96.4282
L139.427 137.81
L140.345 115.192
L141.262 79.8808
L142.179 70.9266
L143.096 96.3338
L144.014 146.204
L144.931 111.388
L145.848 151.217
L146.765 152.622
L147.683 147.141
L148.6 131.636
L149.517 126.648
L150.434 129.689
L151.352 131.243
L152.269 130.82
L153.186 119.555
L154.104 123.207
L155.938 194.852
L156.855 141.148
L157.773 163.508
L158.69 111.677
L159.607 131.355
L160.524 115.399
L161.442 69.491
L162.359 91.4363
L163.276 99.9833
L164.193 170.786
L165.111 162.635
L166.028 204.511
L166.945 192.777
L167.862 136.423
L168.78 110.653
L170.614 102.816
L171.531 102.195
L172.449 115.002
L173.366 115.933
L174.283 129.304
L175.2 126.756
L176.118 126.703
L177.035 124.214
L177.952 132.548
L178.87 136.21
L179.787 113.303
L180.704 154.372
L181.621 138.744
L182.539 100.091
L183.456 129.512
L184.373 125.57
L185.29 126.499
L186.208 194.543
L187.125 140.43
L188.042 143.972
L188.959 133.359
L189.877 131.483
L190.794 193.614
L191.711 216.845
L192.628 164.816
L193.546 133.889
L194.463 137.671
L195.38 147.709
L196.297 142.355
L197.215 151.665
L198.132 148.666
L199.049 168.295
L199.967 138.132
L200.884 126.118
L201.801 134.012
L202.718 136.347
L203.636 132.287
L204.553 127.492
L206.387 151.569
L207.305 132.308
L208.222 115.489
L209.139 122.207
L210.056 133.745
L210.974 169.112
L211.891 144.041
L212.808 128.245
L213.725 134.832
L214.643 134.694
L216.477 124.284
L217.394 130.209
L218.312 139.595
L219.229 138.651
L220.146 146.556
L221.064 140.1
L221.981 131.901
L222.898 128.546
L223.815 126.83
L224.733 141.07
L225.65 140.681
L226.567 126.587
L227.484 120.22
L228.402 130.124
L229.319 132.978
L230.236 132.716
L231.153 140.474
L232.071 140.296
L232.988 147.11
L233.905 143.846
L234.822 145.759
L235.74 150.779
L236.657 148.822
L237.574 141.012
L238.491 145.361
L239.409 144.013
L240.326 143.798
L242.16 144.195
L243.078 141.407
L243.995 139.792
L244.912 175.048
L245.83 155.714
L246.747 157.133
L247.664 151.386
L248.581 143.489
L249.499 147.936
L250.416 166.162
L251.333 155.458
L252.25 142.824
L253.168 143.061
L254.085 149.051
L255.002 177.392
L255.919 201.348
L256.837 188.447
L257.754 193.662
L259.588 142.808
L260.506 143.505
L261.423 150.814
L262.34 152.36
L263.257 161.408
L264.175 197.46
L265.092 176.484
L266.009 186.415
L266.927 166.984
L267.844 159.056
L268.761 181.432
L269.678 191.534
L270.596 135.017
L271.513 133.843
L272.43 169.708
L273.347 193.663
L274.265 162.154
L275.182 204.295
L276.099 227.032
L277.016 210.804
L277.934 172.971
L278.851 165.392
L279.768 204.966
L280.685 171.077
L281.603 187.516
L282.52 170.445
L283.437 201.064
L284.354 137.369
L285.272 116.6
L286.189 123.266
L287.106 144.483
L288.024 191.722
L288.941 160.675
L289.858 168.999
L291.693 149.901
L292.61 163.7
L294.444 146.781
L295.362 139.366
L296.279 149.54
L297.196 133.293
L298.113 136.974
L299.031 153.326
L299.948 154.254
L300.865 142.214
L301.782 148.575
L302.7 149.956
L303.617 148.465
L304.534 153.041
L305.451 155.148
L306.369 210.867
L307.286 218.876
L308.203 208.074
L309.12 212.094
L310.038 210.003
L310.955 217.917
L311.872 213.93
L312.79 182.747
L313.707 195.869
L314.624 219.553
L315.541 208.648
L316.459 170.846
L317.376 159.033
L318.293 163.872
L319.21 155.094
L320.128 156.533
L321.045 184.108
L321.962 196.68
L323.797 213.009
L324.714 204.06
L325.631 172.724
L326.548 211.719
L327.466 216.692
L328.383 150.095
L329.3 140.431
L330.217 136.77
L331.135 143.071
L332.052 137.804
L332.969 154.788
L333.887 153.123
L335.721 168.785
L336.638 208.783
L337.556 218.232
L338.473 205.114
L339.39 172.426
L340.307 207.262
L341.225 192.748
L342.142 185.398
L343.059 204.543
L343.976 195.621
L344.894 151.577
L345.811 170.13
L346.728 201.695
L347.645 179.316
L348.563 190.313
L349.48 199.141
L350.397 154.604
L351.314 158.949
L352.232 136.634
L353.149 186.603
L354.066 203.243
L354.984 176.248
L355.901 218.375
L356.818 229.164
L357.735 216.111
L358.653 199.608
L360.487 129.787
L361.404 134.325
L362.322 183.547
L363.239 165.373
L364.156 183.446
L365.073 195.71
L365.073 195.71" style="fill:none;stroke:#000000;stroke-linecap:square;"/>
   </g>
   <g id="patch_3">
    <path d="
M365.991 244.518
L365.991 21.3181" style="fill:none;stroke:#000000;stroke-linecap:square;stroke-linejoin:miter;"/>
   </g>
   <g id="patch_4">
    <path d="
M31.1906 244.518
L365.991 244.518" style="fill:none;stroke:#000000;stroke-linecap:square;stroke-linejoin:miter;"/>
   </g>
   <g id="patch_5">
    <path d="
M31.1906 244.518
L31.1906 21.3181" style="fill:none;stroke:#000000;stroke-linecap:square;stroke-linejoin:miter;"/>
   </g>
   <g id="patch_6">
    <path d="
M31.1906 21.3181
L365.991 21.3181" style="fill:none;stroke:#000000;stroke-linecap:square;stroke-linejoin:miter;"/>
   </g>
   <g id="matplotlib.axis_1">
    <g id="xtick_1">
     <g id="line2d_8">
      <defs>
       <path d="
M0 0
L0 -4" id="mc7db9fdffb" style="stroke:#000000;stroke-width:0.5;"/>
      </defs>
      <g>
       <use style="stroke:#000000;stroke-width:0.5;" x="31.190625" xlink:href="#mc7db9fdffb" y="244.518125"/>
      </g>
     </g>
     <g id="line2d_9">
      <defs>
       <path d="
M0 0
L0 4" id="m5a7d422ac3" style="stroke:#000000;stroke-width:0.5;"/>
      </defs>
      <g>
       <use style="stroke:#000000;stroke-width:0.5;" x="31.190625" xlink:href="#m5a7d422ac3" y="21.318125"/>
      </g>
     </g>
     <g id="text_1">
      <!-- 0 -->
      <defs>
       <path d="
M31.7812 66.4062
Q24.1719 66.4062 20.3281 58.9062
Q16.5 51.4219 16.5 36.375
Q16.5 21.3906 20.3281 13.8906
Q24.1719 6.39062 31.7812 6.39062
Q39.4531 6.39062 43.2812 13.8906
Q47.125 21.3906 47.125 36.375
Q47.125 51.4219 43.2812 58.9062
Q39.4531 66.4062 31.7812 66.4062
M31.7812 74.2188
Q44.0469 74.2188 50.5156 64.5156
Q56.9844 54.8281 56.9844 36.375
Q56.9844 17.9688 50.5156 8.26562
Q44.0469 -1.42188 31.7812 -1.42188
Q19.5312 -1.42188 13.0625 8.26562
Q6.59375 17.9688 6.59375 36.375
Q6.59375 54.8281 13.0625 64.5156
Q19.5312 74.2188 31.7812 74.2188" id="BitstreamVeraSans-Roman-30"/>
      </defs>
      <g transform="translate(28.67109375 256.1165625)scale(0.1 -0.1)">
       <use xlink:href="#BitstreamVeraSans-Roman-30"/>
      </g>
     </g>
    </g>
    <g id="xtick_2">
     <g id="line2d_10">
      <g>
       <use style="stroke:#000000;stroke-width:0.5;" x="77.0536386986" xlink:href="#mc7db9fdffb" y="244.518125"/>
      </g>
     </g>
     <g id="line2d_11">
      <g>
       <use style="stroke:#000000;stroke-width:0.5;" x="77.0536386986" xlink:href="#m5a7d422ac3" y="21.318125"/>
      </g>
     </g>
     <g id="text_2">
      <!-- 50 -->
      <defs>
       <path d="
M10.7969 72.9062
L49.5156 72.9062
L49.5156 64.5938
L19.8281 64.5938
L19.8281 46.7344
Q21.9688 47.4688 24.1094 47.8281
Q26.2656 48.1875 28.4219 48.1875
Q40.625 48.1875 47.75 41.5
Q54.8906 34.8125 54.8906 23.3906
Q54.8906 11.625 47.5625 5.09375
Q40.2344 -1.42188 26.9062 -1.42188
Q22.3125 -1.42188 17.5469 -0.640625
Q12.7969 0.140625 7.71875 1.70312
L7.71875 11.625
Q12.1094 9.23438 16.7969 8.0625
Q21.4844 6.89062 26.7031 6.89062
Q35.1562 6.89062 40.0781 11.3281
Q45.0156 15.7656 45.0156 23.3906
Q45.0156 31 40.0781 35.4375
Q35.1562 39.8906 26.7031 39.8906
Q22.75 39.8906 18.8125 39.0156
Q14.8906 38.1406 10.7969 36.2812
z
" id="BitstreamVeraSans-Roman-35"/>
      </defs>
      <g transform="translate(71.4091074486 256.1165625)scale(0.1 -0.1)">
       <use xlink:href="#BitstreamVeraSans-Roman-35"/>
       <use x="63.623046875" xlink:href="#BitstreamVeraSans-Roman-30"/>
      </g>
     </g>
    </g>
    <g id="xtick_3">
     <g id="line2d_12">
      <g>
       <use style="stroke:#000000;stroke-width:0.5;" x="122.916652397" xlink:href="#mc7db9fdffb" y="244.518125"/>
      </g>
     </g>
     <g id="line2d_13">
      <g>
       <use style="stroke:#000000;stroke-width:0.5;" x="122.916652397" xlink:href="#m5a7d422ac3" y="21.318125"/>
      </g>
     </g>
     <g id="text_3">
      <!-- 100 -->
      <defs>
       <path d="
M12.4062 8.29688
L28.5156 8.29688
L28.5156 63.9219
L10.9844 60.4062
L10.9844 69.3906
L28.4219 72.9062
L38.2812 72.9062
L38.2812 8.29688
L54.3906 8.29688
L54.3906 0
L12.4062 0
z
" id="BitstreamVeraSans-Roman-31"/>
      </defs>
      <g transform="translate(114.254152397 256.1165625)scale(0.1 -0.1)">
       <use xlink:href="#BitstreamVeraSans-Roman-31"/>
       <use x="63.623046875" xlink:href="#BitstreamVeraSans-Roman-30"/>
       <use x="127.24609375" xlink:href="#BitstreamVeraSans-Roman-30"/>
      </g>
     </g>
    </g>
    <g id="xtick_4">
     <g id="line2d_14">
      <g>
       <use style="stroke:#000000;stroke-width:0.5;" x="168.779666096" xlink:href="#mc7db9fdffb" y="244.518125"/>
      </g>
     </g>
     <g id="line2d_15">
      <g>
       <use style="stroke:#000000;stroke-width:0.5;" x="168.779666096" xlink:href="#m5a7d422ac3" y="21.318125"/>
      </g>
     </g>
     <g id="text_4">
      <!-- 150 -->
      <g transform="translate(160.117166096 256.1165625)scale(0.1 -0.1)">
       <use xlink:href="#BitstreamVeraSans-Roman-31"/>
       <use x="63.623046875" xlink:href="#BitstreamVeraSans-Roman-35"/>
       <use x="127.24609375" xlink:href="#BitstreamVeraSans-Roman-30"/>
      </g>
     </g>
    </g>
    <g id="xtick_5">
     <g id="line2d_16">
      <g>
       <use style="stroke:#000000;stroke-width:0.5;" x="214.642679795" xlink:href="#mc7db9fdffb" y="244.518125"/>
      </g>
     </g>
     <g id="line2d_17">
      <g>
       <use style="stroke:#000000;stroke-width:0.5;" x="214.642679795" xlink:href="#m5a7d422ac3" y="21.318125"/>
      </g>
     </g>
     <g id="text_5">
      <!-- 200 -->
      <defs>
       <path d="
M19.1875 8.29688
L53.6094 8.29688
L53.6094 0
L7.32812 0
L7.32812 8.29688
Q12.9375 14.1094 22.625 23.8906
Q32.3281 33.6875 34.8125 36.5312
Q39.5469 41.8438 41.4219 45.5312
Q43.3125 49.2188 43.3125 52.7812
Q43.3125 58.5938 39.2344 62.25
Q35.1562 65.9219 28.6094 65.9219
Q23.9688 65.9219 18.8125 64.3125
Q13.6719 62.7031 7.8125 59.4219
L7.8125 69.3906
Q13.7656 71.7812 18.9375 73
Q24.125 74.2188 28.4219 74.2188
Q39.75 74.2188 46.4844 68.5469
Q53.2188 62.8906 53.2188 53.4219
Q53.2188 48.9219 51.5312 44.8906
Q49.8594 40.875 45.4062 35.4062
Q44.1875 33.9844 37.6406 27.2188
Q31.1094 20.4531 19.1875 8.29688" id="BitstreamVeraSans-Roman-32"/>
      </defs>
      <g transform="translate(205.797367295 256.1165625)scale(0.1 -0.1)">
       <use xlink:href="#BitstreamVeraSans-Roman-32"/>
       <use x="63.623046875" xlink:href="#BitstreamVeraSans-Roman-30"/>
       <use x="127.24609375" xlink:href="#BitstreamVeraSans-Roman-30"/>
      </g>
     </g>
    </g>
    <g id="xtick_6">
     <g id="line2d_18">
      <g>
       <use style="stroke:#000000;stroke-width:0.5;" x="260.505693493" xlink:href="#mc7db9fdffb" y="244.518125"/>
      </g>
     </g>
     <g id="line2d_19">
      <g>
       <use style="stroke:#000000;stroke-width:0.5;" x="260.505693493" xlink:href="#m5a7d422ac3" y="21.318125"/>
      </g>
     </g>
     <g id="text_6">
      <!-- 250 -->
      <g transform="translate(251.660380993 256.1165625)scale(0.1 -0.1)">
       <use xlink:href="#BitstreamVeraSans-Roman-32"/>
       <use x="63.623046875" xlink:href="#BitstreamVeraSans-Roman-35"/>
       <use x="127.24609375" xlink:href="#BitstreamVeraSans-Roman-30"/>
      </g>
     </g>
    </g>
    <g id="xtick_7">
     <g id="line2d_20">
      <g>
       <use style="stroke:#000000;stroke-width:0.5;" x="306.368707192" xlink:href="#mc7db9fdffb" y="244.518125"/>
      </g>
     </g>
     <g id="line2d_21">
      <g>
       <use style="stroke:#000000;stroke-width:0.5;" x="306.368707192" xlink:href="#m5a7d422ac3" y="21.318125"/>
      </g>
     </g>
     <g id="text_7">
      <!-- 300 -->
      <defs>
       <path d="
M40.5781 39.3125
Q47.6562 37.7969 51.625 33
Q55.6094 28.2188 55.6094 21.1875
Q55.6094 10.4062 48.1875 4.48438
Q40.7656 -1.42188 27.0938 -1.42188
Q22.5156 -1.42188 17.6562 -0.515625
Q12.7969 0.390625 7.625 2.20312
L7.625 11.7188
Q11.7188 9.32812 16.5938 8.10938
Q21.4844 6.89062 26.8125 6.89062
Q36.0781 6.89062 40.9375 10.5469
Q45.7969 14.2031 45.7969 21.1875
Q45.7969 27.6406 41.2812 31.2656
Q36.7656 34.9062 28.7188 34.9062
L20.2188 34.9062
L20.2188 43.0156
L29.1094 43.0156
Q36.375 43.0156 40.2344 45.9219
Q44.0938 48.8281 44.0938 54.2969
Q44.0938 59.9062 40.1094 62.9062
Q36.1406 65.9219 28.7188 65.9219
Q24.6562 65.9219 20.0156 65.0312
Q15.375 64.1562 9.8125 62.3125
L9.8125 71.0938
Q15.4375 72.6562 20.3438 73.4375
Q25.25 74.2188 29.5938 74.2188
Q40.8281 74.2188 47.3594 69.1094
Q53.9062 64.0156 53.9062 55.3281
Q53.9062 49.2656 50.4375 45.0938
Q46.9688 40.9219 40.5781 39.3125" id="BitstreamVeraSans-Roman-33"/>
      </defs>
      <g transform="translate(297.538238442 256.1165625)scale(0.1 -0.1)">
       <use xlink:href="#BitstreamVeraSans-Roman-33"/>
       <use x="63.623046875" xlink:href="#BitstreamVeraSans-Roman-30"/>
       <use x="127.24609375" xlink:href="#BitstreamVeraSans-Roman-30"/>
      </g>
     </g>
    </g>
    <g id="xtick_8">
     <g id="line2d_22">
      <g>
       <use style="stroke:#000000;stroke-width:0.5;" x="352.23172089" xlink:href="#mc7db9fdffb" y="244.518125"/>
      </g>
     </g>
     <g id="line2d_23">
      <g>
       <use style="stroke:#000000;stroke-width:0.5;" x="352.23172089" xlink:href="#m5a7d422ac3" y="21.318125"/>
      </g>
     </g>
     <g id="text_8">
      <!-- 350 -->
      <g transform="translate(343.40125214 256.1165625)scale(0.1 -0.1)">
       <use xlink:href="#BitstreamVeraSans-Roman-33"/>
       <use x="63.623046875" xlink:href="#BitstreamVeraSans-Roman-35"/>
       <use x="127.24609375" xlink:href="#BitstreamVeraSans-Roman-30"/>
      </g>
     </g>
    </g>
    <g id="text_9">
     <!-- Julian day -->
     <defs>
      <path d="
M9.8125 72.9062
L19.6719 72.9062
L19.6719 5.07812
Q19.6719 -8.10938 14.6719 -14.0625
Q9.67188 -20.0156 -1.42188 -20.0156
L-5.17188 -20.0156
L-5.17188 -11.7188
L-2.09375 -11.7188
Q4.4375 -11.7188 7.125 -8.04688
Q9.8125 -4.39062 9.8125 5.07812
z
" id="BitstreamVeraSans-Roman-4a"/>
      <path d="
M45.4062 46.3906
L45.4062 75.9844
L54.3906 75.9844
L54.3906 0
L45.4062 0
L45.4062 8.20312
Q42.5781 3.32812 38.25 0.953125
Q33.9375 -1.42188 27.875 -1.42188
Q17.9688 -1.42188 11.7344 6.48438
Q5.51562 14.4062 5.51562 27.2969
Q5.51562 40.1875 11.7344 48.0938
Q17.9688 56 27.875 56
Q33.9375 56 38.25 53.625
Q42.5781 51.2656 45.4062 46.3906
M14.7969 27.2969
Q14.7969 17.3906 18.875 11.75
Q22.9531 6.10938 30.0781 6.10938
Q37.2031 6.10938 41.2969 11.75
Q45.4062 17.3906 45.4062 27.2969
Q45.4062 37.2031 41.2969 42.8438
Q37.2031 48.4844 30.0781 48.4844
Q22.9531 48.4844 18.875 42.8438
Q14.7969 37.2031 14.7969 27.2969" id="BitstreamVeraSans-Roman-64"/>
      <path d="
M54.8906 33.0156
L54.8906 0
L45.9062 0
L45.9062 32.7188
Q45.9062 40.4844 42.875 44.3281
Q39.8438 48.1875 33.7969 48.1875
Q26.5156 48.1875 22.3125 43.5469
Q18.1094 38.9219 18.1094 30.9062
L18.1094 0
L9.07812 0
L9.07812 54.6875
L18.1094 54.6875
L18.1094 46.1875
Q21.3438 51.125 25.7031 53.5625
Q30.0781 56 35.7969 56
Q45.2188 56 50.0469 50.1719
Q54.8906 44.3438 54.8906 33.0156" id="BitstreamVeraSans-Roman-6e"/>
      <path d="
M34.2812 27.4844
Q23.3906 27.4844 19.1875 25
Q14.9844 22.5156 14.9844 16.5
Q14.9844 11.7188 18.1406 8.90625
Q21.2969 6.10938 26.7031 6.10938
Q34.1875 6.10938 38.7031 11.4062
Q43.2188 16.7031 43.2188 25.4844
L43.2188 27.4844
z

M52.2031 31.2031
L52.2031 0
L43.2188 0
L43.2188 8.29688
Q40.1406 3.32812 35.5469 0.953125
Q30.9531 -1.42188 24.3125 -1.42188
Q15.9219 -1.42188 10.9531 3.29688
Q6 8.01562 6 15.9219
Q6 25.1406 12.1719 29.8281
Q18.3594 34.5156 30.6094 34.5156
L43.2188 34.5156
L43.2188 35.4062
Q43.2188 41.6094 39.1406 45
Q35.0625 48.3906 27.6875 48.3906
Q23 48.3906 18.5469 47.2656
Q14.1094 46.1406 10.0156 43.8906
L10.0156 52.2031
Q14.9375 54.1094 19.5781 55.0469
Q24.2188 56 28.6094 56
Q40.4844 56 46.3438 49.8438
Q52.2031 43.7031 52.2031 31.2031" id="BitstreamVeraSans-Roman-61"/>
      <path d="
M8.5 21.5781
L8.5 54.6875
L17.4844 54.6875
L17.4844 21.9219
Q17.4844 14.1562 20.5 10.2656
Q23.5312 6.39062 29.5938 6.39062
Q36.8594 6.39062 41.0781 11.0312
Q45.3125 15.6719 45.3125 23.6875
L45.3125 54.6875
L54.2969 54.6875
L54.2969 0
L45.3125 0
L45.3125 8.40625
Q42.0469 3.42188 37.7188 1
Q33.4062 -1.42188 27.6875 -1.42188
Q18.2656 -1.42188 13.375 4.4375
Q8.5 10.2969 8.5 21.5781" id="BitstreamVeraSans-Roman-75"/>
      <path d="
M9.42188 54.6875
L18.4062 54.6875
L18.4062 0
L9.42188 0
z

M9.42188 75.9844
L18.4062 75.9844
L18.4062 64.5938
L9.42188 64.5938
z
" id="BitstreamVeraSans-Roman-69"/>
      <path d="
M32.1719 -5.07812
Q28.375 -14.8438 24.75 -17.8125
Q21.1406 -20.7969 15.0938 -20.7969
L7.90625 -20.7969
L7.90625 -13.2812
L13.1875 -13.2812
Q16.8906 -13.2812 18.9375 -11.5156
Q21 -9.76562 23.4844 -3.21875
L25.0938 0.875
L2.98438 54.6875
L12.5 54.6875
L29.5938 11.9219
L46.6875 54.6875
L56.2031 54.6875
z
" id="BitstreamVeraSans-Roman-79"/>
      <path id="BitstreamVeraSans-Roman-20"/>
      <path d="
M9.42188 75.9844
L18.4062 75.9844
L18.4062 0
L9.42188 0
z
" id="BitstreamVeraSans-Roman-6c"/>
     </defs>
     <g transform="translate(174.03984375 270.7946875)scale(0.1 -0.1)">
      <use xlink:href="#BitstreamVeraSans-Roman-4a"/>
      <use x="29.4921875" xlink:href="#BitstreamVeraSans-Roman-75"/>
      <use x="92.87109375" xlink:href="#BitstreamVeraSans-Roman-6c"/>
      <use x="120.654296875" xlink:href="#BitstreamVeraSans-Roman-69"/>
      <use x="148.4375" xlink:href="#BitstreamVeraSans-Roman-61"/>
      <use x="209.716796875" xlink:href="#BitstreamVeraSans-Roman-6e"/>
      <use x="273.095703125" xlink:href="#BitstreamVeraSans-Roman-20"/>
      <use x="304.8828125" xlink:href="#BitstreamVeraSans-Roman-64"/>
      <use x="368.359375" xlink:href="#BitstreamVeraSans-Roman-61"/>
      <use x="429.638671875" xlink:href="#BitstreamVeraSans-Roman-79"/>
     </g>
    </g>
   </g>
   <g id="matplotlib.axis_2">
    <g id="ytick_1">
     <g id="line2d_24">
      <defs>
       <path d="
M0 0
L4 0" id="md7965d1ba0" style="stroke:#000000;stroke-width:0.5;"/>
      </defs>
      <g>
       <use style="stroke:#000000;stroke-width:0.5;" x="31.190625" xlink:href="#md7965d1ba0" y="244.518125"/>
      </g>
     </g>
     <g id="line2d_25">
      <defs>
       <path d="
M0 0
L-4 0" id="md9a1c1a7cd" style="stroke:#000000;stroke-width:0.5;"/>
      </defs>
      <g>
       <use style="stroke:#000000;stroke-width:0.5;" x="365.990625" xlink:href="#md9a1c1a7cd" y="244.518125"/>
      </g>
     </g>
     <g id="text_10">
      <!-- 0 -->
      <g transform="translate(22.1515625 247.2775)scale(0.1 -0.1)">
       <use xlink:href="#BitstreamVeraSans-Roman-30"/>
      </g>
     </g>
    </g>
    <g id="ytick_2">
     <g id="line2d_26">
      <g>
       <use style="stroke:#000000;stroke-width:0.5;" x="31.190625" xlink:href="#md7965d1ba0" y="207.318125"/>
      </g>
     </g>
     <g id="line2d_27">
      <g>
       <use style="stroke:#000000;stroke-width:0.5;" x="365.990625" xlink:href="#md9a1c1a7cd" y="207.318125"/>
      </g>
     </g>
     <g id="text_11">
      <!-- 1 -->
      <g transform="translate(22.85 210.0775)scale(0.1 -0.1)">
       <use xlink:href="#BitstreamVeraSans-Roman-31"/>
      </g>
     </g>
    </g>
    <g id="ytick_3">
     <g id="line2d_28">
      <g>
       <use style="stroke:#000000;stroke-width:0.5;" x="31.190625" xlink:href="#md7965d1ba0" y="170.118125"/>
      </g>
     </g>
     <g id="line2d_29">
      <g>
       <use style="stroke:#000000;stroke-width:0.5;" x="365.990625" xlink:href="#md9a1c1a7cd" y="170.118125"/>
      </g>
     </g>
     <g id="text_12">
      <!-- 2 -->
      <g transform="translate(22.5625 172.8775)scale(0.1 -0.1)">
       <use xlink:href="#BitstreamVeraSans-Roman-32"/>
      </g>
     </g>
    </g>
    <g id="ytick_4">
     <g id="line2d_30">
      <g>
       <use style="stroke:#000000;stroke-width:0.5;" x="31.190625" xlink:href="#md7965d1ba0" y="132.918125"/>
      </g>
     </g>
     <g id="line2d_31">
      <g>
       <use style="stroke:#000000;stroke-width:0.5;" x="365.990625" xlink:href="#md9a1c1a7cd" y="132.918125"/>
      </g>
     </g>
     <g id="text_13">
      <!-- 3 -->
      <g transform="translate(22.3921875 135.6775)scale(0.1 -0.1)">
       <use xlink:href="#BitstreamVeraSans-Roman-33"/>
      </g>
     </g>
    </g>
    <g id="ytick_5">
     <g id="line2d_32">
      <g>
       <use style="stroke:#000000;stroke-width:0.5;" x="31.190625" xlink:href="#md7965d1ba0" y="95.718125"/>
      </g>
     </g>
     <g id="line2d_33">
      <g>
       <use style="stroke:#000000;stroke-width:0.5;" x="365.990625" xlink:href="#md9a1c1a7cd" y="95.718125"/>
      </g>
     </g>
     <g id="text_14">
      <!-- 4 -->
      <defs>
       <path d="
M37.7969 64.3125
L12.8906 25.3906
L37.7969 25.3906
z

M35.2031 72.9062
L47.6094 72.9062
L47.6094 25.3906
L58.0156 25.3906
L58.0156 17.1875
L47.6094 17.1875
L47.6094 0
L37.7969 0
L37.7969 17.1875
L4.89062 17.1875
L4.89062 26.7031
z
" id="BitstreamVeraSans-Roman-34"/>
      </defs>
      <g transform="translate(21.878125 98.4775)scale(0.1 -0.1)">
       <use xlink:href="#BitstreamVeraSans-Roman-34"/>
      </g>
     </g>
    </g>
    <g id="ytick_6">
     <g id="line2d_34">
      <g>
       <use style="stroke:#000000;stroke-width:0.5;" x="31.190625" xlink:href="#md7965d1ba0" y="58.518125"/>
      </g>
     </g>
     <g id="line2d_35">
      <g>
       <use style="stroke:#000000;stroke-width:0.5;" x="365.990625" xlink:href="#md9a1c1a7cd" y="58.518125"/>
      </g>
     </g>
     <g id="text_15">
      <!-- 5 -->
      <g transform="translate(22.4734375 61.2775)scale(0.1 -0.1)">
       <use xlink:href="#BitstreamVeraSans-Roman-35"/>
      </g>
     </g>
    </g>
    <g id="ytick_7">
     <g id="line2d_36">
      <g>
       <use style="stroke:#000000;stroke-width:0.5;" x="31.190625" xlink:href="#md7965d1ba0" y="21.318125"/>
      </g>
     </g>
     <g id="line2d_37">
      <g>
       <use style="stroke:#000000;stroke-width:0.5;" x="365.990625" xlink:href="#md9a1c1a7cd" y="21.318125"/>
      </g>
     </g>
     <g id="text_16">
      <!-- 6 -->
      <defs>
       <path d="
M33.0156 40.375
Q26.375 40.375 22.4844 35.8281
Q18.6094 31.2969 18.6094 23.3906
Q18.6094 15.5312 22.4844 10.9531
Q26.375 6.39062 33.0156 6.39062
Q39.6562 6.39062 43.5312 10.9531
Q47.4062 15.5312 47.4062 23.3906
Q47.4062 31.2969 43.5312 35.8281
Q39.6562 40.375 33.0156 40.375
M52.5938 71.2969
L52.5938 62.3125
Q48.875 64.0625 45.0938 64.9844
Q41.3125 65.9219 37.5938 65.9219
Q27.8281 65.9219 22.6719 59.3281
Q17.5312 52.7344 16.7969 39.4062
Q19.6719 43.6562 24.0156 45.9219
Q28.375 48.1875 33.5938 48.1875
Q44.5781 48.1875 50.9531 41.5156
Q57.3281 34.8594 57.3281 23.3906
Q57.3281 12.1562 50.6875 5.35938
Q44.0469 -1.42188 33.0156 -1.42188
Q20.3594 -1.42188 13.6719 8.26562
Q6.98438 17.9688 6.98438 36.375
Q6.98438 53.6562 15.1875 63.9375
Q23.3906 74.2188 37.2031 74.2188
Q40.9219 74.2188 44.7031 73.4844
Q48.4844 72.75 52.5938 71.2969" id="BitstreamVeraSans-Roman-36"/>
      </defs>
      <g transform="translate(22.15625 24.0775)scale(0.1 -0.1)">
       <use xlink:href="#BitstreamVeraSans-Roman-36"/>
      </g>
     </g>
    </g>
    <g id="text_17">
     <!-- PET (mm/day) -->
     <defs>
      <path d="
M25.3906 72.9062
L33.6875 72.9062
L8.29688 -9.28125
L0 -9.28125
z
" id="BitstreamVeraSans-Roman-2f"/>
      <path d="
M8.01562 75.875
L15.8281 75.875
Q23.1406 64.3594 26.7812 53.3125
Q30.4219 42.2812 30.4219 31.3906
Q30.4219 20.4531 26.7812 9.375
Q23.1406 -1.70312 15.8281 -13.1875
L8.01562 -13.1875
Q14.5 -2 17.7031 9.0625
Q20.9062 20.125 20.9062 31.3906
Q20.9062 42.6719 17.7031 53.6562
Q14.5 64.6562 8.01562 75.875" id="BitstreamVeraSans-Roman-29"/>
      <path d="
M9.8125 72.9062
L55.9062 72.9062
L55.9062 64.5938
L19.6719 64.5938
L19.6719 43.0156
L54.3906 43.0156
L54.3906 34.7188
L19.6719 34.7188
L19.6719 8.29688
L56.7812 8.29688
L56.7812 0
L9.8125 0
z
" id="BitstreamVeraSans-Roman-45"/>
      <path d="
M31 75.875
Q24.4688 64.6562 21.2812 53.6562
Q18.1094 42.6719 18.1094 31.3906
Q18.1094 20.125 21.3125 9.0625
Q24.5156 -2 31 -13.1875
L23.1875 -13.1875
Q15.875 -1.70312 12.2344 9.375
Q8.59375 20.4531 8.59375 31.3906
Q8.59375 42.2812 12.2031 53.3125
Q15.8281 64.3594 23.1875 75.875
z
" id="BitstreamVeraSans-Roman-28"/>
      <path d="
M-0.296875 72.9062
L61.375 72.9062
L61.375 64.5938
L35.5 64.5938
L35.5 0
L25.5938 0
L25.5938 64.5938
L-0.296875 64.5938
z
" id="BitstreamVeraSans-Roman-54"/>
      <path d="
M52 44.1875
Q55.375 50.25 60.0625 53.125
Q64.75 56 71.0938 56
Q79.6406 56 84.2812 50.0156
Q88.9219 44.0469 88.9219 33.0156
L88.9219 0
L79.8906 0
L79.8906 32.7188
Q79.8906 40.5781 77.0938 44.375
Q74.3125 48.1875 68.6094 48.1875
Q61.625 48.1875 57.5625 43.5469
Q53.5156 38.9219 53.5156 30.9062
L53.5156 0
L44.4844 0
L44.4844 32.7188
Q44.4844 40.625 41.7031 44.4062
Q38.9219 48.1875 33.1094 48.1875
Q26.2188 48.1875 22.1562 43.5312
Q18.1094 38.875 18.1094 30.9062
L18.1094 0
L9.07812 0
L9.07812 54.6875
L18.1094 54.6875
L18.1094 46.1875
Q21.1875 51.2188 25.4844 53.6094
Q29.7812 56 35.6875 56
Q41.6562 56 45.8281 52.9688
Q50 49.9531 52 44.1875" id="BitstreamVeraSans-Roman-6d"/>
      <path d="
M19.6719 64.7969
L19.6719 37.4062
L32.0781 37.4062
Q38.9688 37.4062 42.7188 40.9688
Q46.4844 44.5312 46.4844 51.125
Q46.4844 57.6719 42.7188 61.2344
Q38.9688 64.7969 32.0781 64.7969
z

M9.8125 72.9062
L32.0781 72.9062
Q44.3438 72.9062 50.6094 67.3594
Q56.8906 61.8125 56.8906 51.125
Q56.8906 40.3281 50.6094 34.8125
Q44.3438 29.2969 32.0781 29.2969
L19.6719 29.2969
L19.6719 0
L9.8125 0
z
" id="BitstreamVeraSans-Roman-50"/>
     </defs>
     <g transform="translate(14.7984375 167.82984375)rotate(-90.0)scale(0.1 -0.1)">
      <use xlink:href="#BitstreamVeraSans-Roman-50"/>
      <use x="60.302734375" xlink:href="#BitstreamVeraSans-Roman-45"/>
      <use x="123.486328125" xlink:href="#BitstreamVeraSans-Roman-54"/>
      <use x="184.5703125" xlink:href="#BitstreamVeraSans-Roman-20"/>
      <use x="216.357421875" xlink:href="#BitstreamVeraSans-Roman-28"/>
      <use x="255.37109375" xlink:href="#BitstreamVeraSans-Roman-6d"/>
      <use x="352.783203125" xlink:href="#BitstreamVeraSans-Roman-6d"/>
      <use x="450.1953125" xlink:href="#BitstreamVeraSans-Roman-2f"/>
      <use x="483.88671875" xlink:href="#BitstreamVeraSans-Roman-64"/>
      <use x="547.36328125" xlink:href="#BitstreamVeraSans-Roman-61"/>
      <use x="608.642578125" xlink:href="#BitstreamVeraSans-Roman-79"/>
      <use x="667.822265625" xlink:href="#BitstreamVeraSans-Roman-29"/>
     </g>
    </g>
   </g>
   <g id="text_18">
    <!-- daily shrub PET at LDP -->
    <defs>
     <path d="
M54.8906 33.0156
L54.8906 0
L45.9062 0
L45.9062 32.7188
Q45.9062 40.4844 42.875 44.3281
Q39.8438 48.1875 33.7969 48.1875
Q26.5156 48.1875 22.3125 43.5469
Q18.1094 38.9219 18.1094 30.9062
L18.1094 0
L9.07812 0
L9.07812 75.9844
L18.1094 75.9844
L18.1094 46.1875
Q21.3438 51.125 25.7031 53.5625
Q30.0781 56 35.7969 56
Q45.2188 56 50.0469 50.1719
Q54.8906 44.3438 54.8906 33.0156" id="BitstreamVeraSans-Roman-68"/>
     <path d="
M9.8125 72.9062
L19.6719 72.9062
L19.6719 8.29688
L55.1719 8.29688
L55.1719 0
L9.8125 0
z
" id="BitstreamVeraSans-Roman-4c"/>
     <path d="
M18.3125 70.2188
L18.3125 54.6875
L36.8125 54.6875
L36.8125 47.7031
L18.3125 47.7031
L18.3125 18.0156
Q18.3125 11.3281 20.1406 9.42188
Q21.9688 7.51562 27.5938 7.51562
L36.8125 7.51562
L36.8125 0
L27.5938 0
Q17.1875 0 13.2344 3.875
Q9.28125 7.76562 9.28125 18.0156
L9.28125 47.7031
L2.6875 47.7031
L2.6875 54.6875
L9.28125 54.6875
L9.28125 70.2188
z
" id="BitstreamVeraSans-Roman-74"/>
     <path d="
M44.2812 53.0781
L44.2812 44.5781
Q40.4844 46.5312 36.375 47.5
Q32.2812 48.4844 27.875 48.4844
Q21.1875 48.4844 17.8438 46.4375
Q14.5 44.3906 14.5 40.2812
Q14.5 37.1562 16.8906 35.375
Q19.2812 33.5938 26.5156 31.9844
L29.5938 31.2969
Q39.1562 29.25 43.1875 25.5156
Q47.2188 21.7812 47.2188 15.0938
Q47.2188 7.46875 41.1875 3.01562
Q35.1562 -1.42188 24.6094 -1.42188
Q20.2188 -1.42188 15.4531 -0.5625
Q10.6875 0.296875 5.42188 2
L5.42188 11.2812
Q10.4062 8.6875 15.2344 7.39062
Q20.0625 6.10938 24.8125 6.10938
Q31.1562 6.10938 34.5625 8.28125
Q37.9844 10.4531 37.9844 14.4062
Q37.9844 18.0625 35.5156 20.0156
Q33.0625 21.9688 24.7031 23.7812
L21.5781 24.5156
Q13.2344 26.2656 9.51562 29.9062
Q5.8125 33.5469 5.8125 39.8906
Q5.8125 47.6094 11.2812 51.7969
Q16.75 56 26.8125 56
Q31.7812 56 36.1719 55.2656
Q40.5781 54.5469 44.2812 53.0781" id="BitstreamVeraSans-Roman-73"/>
     <path d="
M19.6719 64.7969
L19.6719 8.10938
L31.5938 8.10938
Q46.6875 8.10938 53.6875 14.9375
Q60.6875 21.7812 60.6875 36.5312
Q60.6875 51.1719 53.6875 57.9844
Q46.6875 64.7969 31.5938 64.7969
z

M9.8125 72.9062
L30.0781 72.9062
Q51.2656 72.9062 61.1719 64.0938
Q71.0938 55.2812 71.0938 36.5312
Q71.0938 17.6719 61.125 8.82812
Q51.1719 0 30.0781 0
L9.8125 0
z
" id="BitstreamVeraSans-Roman-44"/>
     <path d="
M48.6875 27.2969
Q48.6875 37.2031 44.6094 42.8438
Q40.5312 48.4844 33.4062 48.4844
Q26.2656 48.4844 22.1875 42.8438
Q18.1094 37.2031 18.1094 27.2969
Q18.1094 17.3906 22.1875 11.75
Q26.2656 6.10938 33.4062 6.10938
Q40.5312 6.10938 44.6094 11.75
Q48.6875 17.3906 48.6875 27.2969
M18.1094 46.3906
Q20.9531 51.2656 25.2656 53.625
Q29.5938 56 35.5938 56
Q45.5625 56 51.7812 48.0938
Q58.0156 40.1875 58.0156 27.2969
Q58.0156 14.4062 51.7812 6.48438
Q45.5625 -1.42188 35.5938 -1.42188
Q29.5938 -1.42188 25.2656 0.953125
Q20.9531 3.32812 18.1094 8.20312
L18.1094 0
L9.07812 0
L9.07812 75.9844
L18.1094 75.9844
z
" id="BitstreamVeraSans-Roman-62"/>
     <path d="
M41.1094 46.2969
Q39.5938 47.1719 37.8125 47.5781
Q36.0312 48 33.8906 48
Q26.2656 48 22.1875 43.0469
Q18.1094 38.0938 18.1094 28.8125
L18.1094 0
L9.07812 0
L9.07812 54.6875
L18.1094 54.6875
L18.1094 46.1875
Q20.9531 51.1719 25.4844 53.5781
Q30.0312 56 36.5312 56
Q37.4531 56 38.5781 55.875
Q39.7031 55.7656 41.0625 55.5156
z
" id="BitstreamVeraSans-Roman-72"/>
    </defs>
    <g transform="translate(131.1065625 16.318125)scale(0.12 -0.12)">
     <use xlink:href="#BitstreamVeraSans-Roman-64"/>
     <use x="63.4765625" xlink:href="#BitstreamVeraSans-Roman-61"/>
     <use x="124.755859375" xlink:href="#BitstreamVeraSans-Roman-69"/>
     <use x="152.5390625" xlink:href="#BitstreamVeraSans-Roman-6c"/>
     <use x="180.322265625" xlink:href="#BitstreamVeraSans-Roman-79"/>
     <use x="239.501953125" xlink:href="#BitstreamVeraSans-Roman-20"/>
     <use x="271.2890625" xlink:href="#BitstreamVeraSans-Roman-73"/>
     <use x="323.388671875" xlink:href="#BitstreamVeraSans-Roman-68"/>
     <use x="386.767578125" xlink:href="#BitstreamVeraSans-Roman-72"/>
     <use x="427.880859375" xlink:href="#BitstreamVeraSans-Roman-75"/>
     <use x="491.259765625" xlink:href="#BitstreamVeraSans-Roman-62"/>
     <use x="554.736328125" xlink:href="#BitstreamVeraSans-Roman-20"/>
     <use x="586.5234375" xlink:href="#BitstreamVeraSans-Roman-50"/>
     <use x="646.826171875" xlink:href="#BitstreamVeraSans-Roman-45"/>
     <use x="710.009765625" xlink:href="#BitstreamVeraSans-Roman-54"/>
     <use x="771.09375" xlink:href="#BitstreamVeraSans-Roman-20"/>
     <use x="802.880859375" xlink:href="#BitstreamVeraSans-Roman-61"/>
     <use x="864.16015625" xlink:href="#BitstreamVeraSans-Roman-74"/>
     <use x="903.369140625" xlink:href="#BitstreamVeraSans-Roman-20"/>
     <use x="935.15625" xlink:href="#BitstreamVeraSans-Roman-4c"/>
     <use x="990.869140625" xlink:href="#BitstreamVeraSans-Roman-44"/>
     <use x="1067.87109375" xlink:href="#BitstreamVeraSans-Roman-50"/>
    </g>
   </g>
   <g id="legend_1">
    <g id="patch_7">
     <path d="
M287.927 154.214
L359.991 154.214
L359.991 27.3181
L287.927 27.3181
z
" style="fill:#ffffff;stroke:#000000;stroke-linejoin:miter;"/>
    </g>
    <g id="line2d_38">
     <path d="
M296.327 37.0363
L313.127 37.0363" style="fill:none;stroke:#0000ff;stroke-linecap:square;"/>
    </g>
    <g id="line2d_39"/>
    <g id="text_19">
     <!-- 2007 -->
     <defs>
      <path d="
M8.20312 72.9062
L55.0781 72.9062
L55.0781 68.7031
L28.6094 0
L18.3125 0
L43.2188 64.5938
L8.20312 64.5938
z
" id="BitstreamVeraSans-Roman-37"/>
     </defs>
     <g transform="translate(326.326875 41.23625)scale(0.12 -0.12)">
      <use xlink:href="#BitstreamVeraSans-Roman-32"/>
      <use x="63.623046875" xlink:href="#BitstreamVeraSans-Roman-30"/>
      <use x="127.24609375" xlink:href="#BitstreamVeraSans-Roman-30"/>
      <use x="190.869140625" xlink:href="#BitstreamVeraSans-Roman-37"/>
     </g>
    </g>
    <g id="line2d_40">
     <path d="
M296.327 54.65
L313.127 54.65" style="fill:none;stroke:#008000;stroke-linecap:square;"/>
    </g>
    <g id="line2d_41"/>
    <g id="text_20">
     <!-- 2008 -->
     <defs>
      <path d="
M31.7812 34.625
Q24.75 34.625 20.7188 30.8594
Q16.7031 27.0938 16.7031 20.5156
Q16.7031 13.9219 20.7188 10.1562
Q24.75 6.39062 31.7812 6.39062
Q38.8125 6.39062 42.8594 10.1719
Q46.9219 13.9688 46.9219 20.5156
Q46.9219 27.0938 42.8906 30.8594
Q38.875 34.625 31.7812 34.625
M21.9219 38.8125
Q15.5781 40.375 12.0312 44.7188
Q8.5 49.0781 8.5 55.3281
Q8.5 64.0625 14.7188 69.1406
Q20.9531 74.2188 31.7812 74.2188
Q42.6719 74.2188 48.875 69.1406
Q55.0781 64.0625 55.0781 55.3281
Q55.0781 49.0781 51.5312 44.7188
Q48 40.375 41.7031 38.8125
Q48.8281 37.1562 52.7969 32.3125
Q56.7812 27.4844 56.7812 20.5156
Q56.7812 9.90625 50.3125 4.23438
Q43.8438 -1.42188 31.7812 -1.42188
Q19.7344 -1.42188 13.25 4.23438
Q6.78125 9.90625 6.78125 20.5156
Q6.78125 27.4844 10.7812 32.3125
Q14.7969 37.1562 21.9219 38.8125
M18.3125 54.3906
Q18.3125 48.7344 21.8438 45.5625
Q25.3906 42.3906 31.7812 42.3906
Q38.1406 42.3906 41.7188 45.5625
Q45.3125 48.7344 45.3125 54.3906
Q45.3125 60.0625 41.7188 63.2344
Q38.1406 66.4062 31.7812 66.4062
Q25.3906 66.4062 21.8438 63.2344
Q18.3125 60.0625 18.3125 54.3906" id="BitstreamVeraSans-Roman-38"/>
     </defs>
     <g transform="translate(326.326875 58.85)scale(0.12 -0.12)">
      <use xlink:href="#BitstreamVeraSans-Roman-32"/>
      <use x="63.623046875" xlink:href="#BitstreamVeraSans-Roman-30"/>
      <use x="127.24609375" xlink:href="#BitstreamVeraSans-Roman-30"/>
      <use x="190.869140625" xlink:href="#BitstreamVeraSans-Roman-38"/>
     </g>
    </g>
    <g id="line2d_42">
     <path d="
M296.327 72.2638
L313.127 72.2638" style="fill:none;stroke:#ff0000;stroke-linecap:square;"/>
    </g>
    <g id="line2d_43"/>
    <g id="text_21">
     <!-- 2009 -->
     <defs>
      <path d="
M10.9844 1.51562
L10.9844 10.5
Q14.7031 8.73438 18.5 7.8125
Q22.3125 6.89062 25.9844 6.89062
Q35.75 6.89062 40.8906 13.4531
Q46.0469 20.0156 46.7812 33.4062
Q43.9531 29.2031 39.5938 26.9531
Q35.25 24.7031 29.9844 24.7031
Q19.0469 24.7031 12.6719 31.3125
Q6.29688 37.9375 6.29688 49.4219
Q6.29688 60.6406 12.9375 67.4219
Q19.5781 74.2188 30.6094 74.2188
Q43.2656 74.2188 49.9219 64.5156
Q56.5938 54.8281 56.5938 36.375
Q56.5938 19.1406 48.4062 8.85938
Q40.2344 -1.42188 26.4219 -1.42188
Q22.7031 -1.42188 18.8906 -0.6875
Q15.0938 0.046875 10.9844 1.51562
M30.6094 32.4219
Q37.25 32.4219 41.125 36.9531
Q45.0156 41.5 45.0156 49.4219
Q45.0156 57.2812 41.125 61.8438
Q37.25 66.4062 30.6094 66.4062
Q23.9688 66.4062 20.0938 61.8438
Q16.2188 57.2812 16.2188 49.4219
Q16.2188 41.5 20.0938 36.9531
Q23.9688 32.4219 30.6094 32.4219" id="BitstreamVeraSans-Roman-39"/>
     </defs>
     <g transform="translate(326.326875 76.46375)scale(0.12 -0.12)">
      <use xlink:href="#BitstreamVeraSans-Roman-32"/>
      <use x="63.623046875" xlink:href="#BitstreamVeraSans-Roman-30"/>
      <use x="127.24609375" xlink:href="#BitstreamVeraSans-Roman-30"/>
      <use x="190.869140625" xlink:href="#BitstreamVeraSans-Roman-39"/>
     </g>
    </g>
    <g id="line2d_44">
     <path d="
M296.327 89.8775
L313.127 89.8775" style="fill:none;stroke:#00bfbf;stroke-linecap:square;"/>
    </g>
    <g id="line2d_45"/>
    <g id="text_22">
     <!-- 2010 -->
     <g transform="translate(326.326875 94.0775)scale(0.12 -0.12)">
      <use xlink:href="#BitstreamVeraSans-Roman-32"/>
      <use x="63.623046875" xlink:href="#BitstreamVeraSans-Roman-30"/>
      <use x="127.24609375" xlink:href="#BitstreamVeraSans-Roman-31"/>
      <use x="190.869140625" xlink:href="#BitstreamVeraSans-Roman-30"/>
     </g>
    </g>
    <g id="line2d_46">
     <path d="
M296.327 107.491
L313.127 107.491" style="fill:none;stroke:#bf00bf;stroke-linecap:square;"/>
    </g>
    <g id="line2d_47"/>
    <g id="text_23">
     <!-- 2011 -->
     <g transform="translate(326.326875 111.69125)scale(0.12 -0.12)">
      <use xlink:href="#BitstreamVeraSans-Roman-32"/>
      <use x="63.623046875" xlink:href="#BitstreamVeraSans-Roman-30"/>
      <use x="127.24609375" xlink:href="#BitstreamVeraSans-Roman-31"/>
      <use x="190.869140625" xlink:href="#BitstreamVeraSans-Roman-31"/>
     </g>
    </g>
    <g id="line2d_48">
     <path d="
M296.327 125.105
L313.127 125.105" style="fill:none;stroke:#bfbf00;stroke-linecap:square;"/>
    </g>
    <g id="line2d_49"/>
    <g id="text_24">
     <!-- 2012 -->
     <g transform="translate(326.326875 129.305)scale(0.12 -0.12)">
      <use xlink:href="#BitstreamVeraSans-Roman-32"/>
      <use x="63.623046875" xlink:href="#BitstreamVeraSans-Roman-30"/>
      <use x="127.24609375" xlink:href="#BitstreamVeraSans-Roman-31"/>
      <use x="190.869140625" xlink:href="#BitstreamVeraSans-Roman-32"/>
     </g>
    </g>
    <g id="line2d_50">
     <path d="
M296.327 142.719
L313.127 142.719" style="fill:none;stroke:#000000;stroke-linecap:square;"/>
    </g>
    <g id="line2d_51"/>
    <g id="text_25">
     <!-- 2013 -->
     <g transform="translate(326.326875 146.91875)scale(0.12 -0.12)">
      <use xlink:href="#BitstreamVeraSans-Roman-32"/>
      <use x="63.623046875" xlink:href="#BitstreamVeraSans-Roman-30"/>
      <use x="127.24609375" xlink:href="#BitstreamVeraSans-Roman-31"/>
      <use x="190.869140625" xlink:href="#BitstreamVeraSans-Roman-33"/>
     </g>
    </g>
   </g>
  </g>
 </g>
 <defs>
  <clipPath id="pc1a11fcac8">
   <rect height="223.2" width="334.8" x="31.190625" y="21.318125"/>
  </clipPath>
 </defs>
</svg>
