<?xml version="1.0" encoding="utf-8" standalone="no"?>
<!DOCTYPE svg PUBLIC "-//W3C//DTD SVG 1.1//EN"
  "http://www.w3.org/Graphics/SVG/1.1/DTD/svg11.dtd">
<!-- Created with matplotlib (http://matplotlib.org/) -->
<svg height="280pt" version="1.1" viewBox="0 0 380 280" width="380pt" xmlns="http://www.w3.org/2000/svg" xmlns:xlink="http://www.w3.org/1999/xlink">
 <defs>
  <style type="text/css">
*{stroke-linecap:butt;stroke-linejoin:round;}
  </style>
 </defs>
 <g id="figure_1">
  <g id="patch_1">
   <path d="
M1.77636e-15 280.074
L380.637 280.074
L380.637 0
L1.77636e-15 0
z
" style="fill:#ffffff;"/>
  </g>
  <g id="axes_1">
   <g id="patch_2">
    <path d="
M38.6375 244.518
L373.438 244.518
L373.438 21.3181
L38.6375 21.3181
z
" style="fill:#ffffff;"/>
   </g>
   <g id="line2d_1">
    <path clip-path="url(#pa986dbe5e9)" d="
M40.472 192.991
L41.3893 114.947
L42.3065 201.21
L43.2238 185.623
L44.1411 185.375
L45.0583 96.9633
L45.9756 126.005
L46.8928 176.78
L47.8101 139.835
L48.7274 153.457
L49.6446 193.597
L50.5619 184.337
L51.4791 105.162
L52.3964 143.279
L53.3137 147.357
L54.2309 195.22
L55.1482 191.149
L56.0654 184.792
L56.9827 170.628
L57.9 149.737
L58.8172 196.993
L59.7345 196.647
L60.6517 195.518
L61.569 196.216
L62.4863 202.168
L63.4035 209.166
L64.3208 178.219
L65.238 159.822
L66.1553 197.882
L67.0726 190.241
L67.9898 175.902
L68.9071 176.788
L70.7416 191.744
L71.6589 187.803
L72.5761 180.758
L73.4934 181.793
L74.4107 159.771
L75.3279 155.197
L76.2452 193.639
L77.1624 179.859
L78.0797 196.374
L78.997 179.353
L79.9142 209.127
L80.8315 205.654
L81.7487 204.116
L82.666 205.488
L83.5833 180.737
L84.5005 171.783
L85.4178 168.733
L86.335 90.1288
L87.2523 87.2966
L88.1696 167.385
L89.0868 188.084
L90.0041 141.905
L91.8386 175.129
L92.7559 139.925
L93.6731 133.469
L94.5904 165.532
L95.5076 155.909
L96.4249 168.774
L97.3422 154.532
L98.2594 135.302
L99.1767 172.519
L100.094 163.094
L101.011 119.215
L101.928 116.606
L102.846 129.139
L103.763 186.564
L104.68 152.922
L105.598 107.952
L106.515 107.768
L107.432 120.077
L108.349 126.66
L109.267 75.3228
L110.184 87.4919
L111.101 135.477
L112.018 168.368
L112.936 119.894
L113.853 100.633
L115.687 172.419
L116.605 146.744
L117.522 89.4629
L119.356 178.885
L120.274 153.385
L121.191 181.273
L122.108 175.473
L123.025 153.202
L123.943 148.446
L124.86 153.887
L125.777 145.309
L126.694 148.564
L127.612 138.53
L128.529 90.7299
L130.364 94.2304
L131.281 147.725
L132.198 173.904
L133.115 119.555
L134.033 92.087
L134.95 108.511
L135.867 110.732
L136.784 88.1409
L137.702 75.7902
L138.619 132.281
L139.536 174.704
L140.453 162.044
L141.371 73.3762
L142.288 59.6318
L143.205 55.6202
L144.122 61.6875
L145.04 150.993
L145.957 155.994
L146.874 153.325
L147.791 172.498
L148.709 159.135
L149.626 108.428
L150.543 133.504
L151.461 69.6679
L152.378 79.8517
L153.295 109.34
L154.212 31.0046
L155.13 70.7025
L156.047 60.5039
L156.964 137.122
L157.881 107.742
L158.799 59.1145
L159.716 80.1529
L160.633 59.3905
L161.55 65.4523
L162.468 78.5237
L163.385 126.102
L164.302 167.606
L165.219 118.586
L166.137 103.477
L167.054 102.591
L167.971 195.288
L168.888 147.078
L170.723 82.7301
L171.64 139.703
L172.558 144.795
L173.475 140.157
L174.392 139.406
L175.309 85.3053
L176.227 153.848
L177.144 153.517
L178.061 179.495
L178.978 125.782
L179.896 184.54
L180.813 135.735
L181.73 170.826
L182.647 116.224
L183.565 96.0959
L184.482 134.439
L185.399 158.923
L186.316 103.939
L187.234 69.6747
L188.151 75.9262
L189.068 85.8925
L189.985 101.665
L190.903 94.7218
L191.82 117.052
L192.737 62.1827
L193.654 85.5625
L194.572 132.806
L195.489 136.282
L196.406 86.2471
L197.324 79.9095
L198.241 116.159
L199.158 128.824
L200.075 96.3928
L200.993 93.3658
L201.91 105.327
L202.827 133.913
L203.744 112.558
L204.662 100.641
L205.579 111.707
L206.496 126.105
L207.413 83.951
L208.331 91.2785
L209.248 89.2724
L210.165 84.4927
L211.082 87.6593
L212 98.5911
L212.917 98.4029
L213.834 100.703
L214.751 95.2649
L215.669 58.2106
L216.586 75.8738
L217.503 79.8429
L218.421 94.995
L219.338 88.9085
L220.255 88.0714
L221.172 79.0075
L222.09 84.1924
L223.007 78.5075
L223.924 45.7863
L224.841 37.9701
L225.759 54.9363
L226.676 59.9174
L227.593 104.101
L228.51 59.3292
L229.428 74.6293
L230.345 64.3364
L231.262 85.3844
L233.097 48.0844
L234.014 50.9095
L234.931 71.9227
L235.848 97.5934
L237.683 113.041
L238.6 101.377
L239.518 105.971
L240.435 112.718
L241.352 129.269
L242.269 151.646
L244.104 100.776
L245.021 105.758
L245.938 96.0871
L246.856 98.8667
L247.773 97.9917
L248.69 101.116
L249.607 90.3391
L250.525 87.5556
L251.442 89.0078
L252.359 83.0987
L253.276 92.7481
L254.194 83.1218
L255.111 92.7475
L256.028 112.858
L256.945 81.3621
L257.863 89.3378
L258.78 162.12
L259.697 124.277
L260.614 136.162
L261.532 133.435
L262.449 100.805
L263.366 90.2183
L264.284 101.841
L265.201 95.7381
L266.118 70.3455
L267.035 67.3797
L267.953 138.475
L268.87 193.619
L269.787 134.357
L270.704 86.4428
L271.622 84.4235
L272.539 93.082
L273.456 98.6115
L274.373 96.8373
L275.291 90.496
L276.208 102.109
L277.125 94.6825
L278.042 121.635
L278.96 131.131
L279.877 98.5968
L280.794 86.6508
L281.711 91.1285
L282.629 86.7594
L283.546 98.7373
L284.463 94.4551
L285.381 93.2238
L286.298 99.348
L287.215 103.358
L288.132 93.2362
L289.05 104.559
L289.967 105.855
L290.884 130.636
L291.801 181.024
L292.719 167.096
L293.636 143.112
L294.553 131.694
L295.47 176.168
L296.388 141.182
L297.305 146.23
L298.222 144.383
L299.139 87.6074
L300.057 84.7896
L300.974 84.4938
L301.891 98.0254
L302.808 122.966
L303.726 104.156
L304.643 70.5853
L305.56 64.508
L306.478 83.039
L307.395 93.2865
L308.312 94.7095
L309.229 156.732
L310.147 194.438
L311.064 169.867
L311.981 183.427
L312.898 151.359
L313.816 87.1695
L314.733 88.2446
L315.65 110.903
L316.567 163.506
L317.485 134.717
L318.402 119.03
L319.319 118.741
L320.236 100.325
L321.154 115.571
L322.071 118.57
L322.988 162.855
L323.905 176.454
L324.823 136.059
L325.74 189.531
L326.657 181.305
L327.574 159.696
L328.492 153.797
L329.409 190.786
L330.326 194.866
M333.078 123.244
L333.995 175.229
L334.913 190.183
L335.83 171.468
L336.747 185.955
L337.664 170.535
L338.582 164.907
L339.499 139.968
L340.416 136.832
L341.333 147.045
L342.251 189.26
L343.168 160.753
L344.085 124.522
L345.002 196.892
L345.92 201.986
L346.837 161.394
L347.754 195.128
L348.671 185.592
L349.589 168.839
L350.506 185.584
L351.423 147.9
L352.341 175.891
L353.258 166.259
L354.175 185.211
L355.092 177.517
L356.01 164.617
L356.927 173.889
L357.844 171.023
L359.679 120.32
L360.596 165.902
L361.513 190.707
L363.348 156.733
L364.265 182.619
L365.182 175.244
L366.099 136.181
L367.017 71.082
L367.934 143.926
L368.851 175.089
L369.768 183.454
L370.686 188.929
L371.603 175.996
L372.52 188.679
L372.52 188.679" style="fill:none;stroke:#0000ff;stroke-linecap:square;"/>
   </g>
   <g id="line2d_2">
    <path clip-path="url(#pa986dbe5e9)" d="
M38.6375 153.814
L39.5548 146.484
L40.472 185.286
L41.3893 186.622
L42.3065 144.165
L43.2238 119.759
L44.1411 123.505
L45.0583 163.502
L45.9756 176.591
L46.8928 180.842
L47.8101 145.995
L48.7274 159.407
L49.6446 195.841
L50.5619 187.723
L51.4791 191.122
L52.3964 204.118
L54.2309 184.578
L55.1482 183.129
L56.0654 138.935
L56.9827 176.292
L57.9 194.998
L58.8172 142.508
L59.7345 179.547
L60.6517 192.616
L61.569 164.1
L62.4863 148.291
L63.4035 153.629
L64.3208 159.632
L65.238 180.912
L66.1553 161.65
L67.0726 111.651
L67.9898 89.9534
L68.9071 122.402
L69.8243 180.194
L70.7416 177.629
L71.6589 158.35
L72.5761 171.423
L73.4934 161.132
L74.4107 169.922
L77.1624 113.335
L78.0797 110.698
L78.997 114.45
L79.9142 121.647
L81.7487 167.976
L82.666 174.197
L83.5833 165.912
L84.5005 187.909
L85.4178 192.026
L86.335 182.414
L87.2523 156.149
L88.1696 143.956
L89.0868 158.837
L90.0041 126.064
L90.9213 140.775
L91.8386 120.419
L92.7559 118.578
L93.6731 162.334
L94.5904 165.393
L95.5076 171.369
L96.4249 165.646
L97.3422 171.32
L98.2594 170.43
L99.1767 193.44
L101.011 153.179
L101.928 175.309
L102.846 173.762
L103.763 174.593
L104.68 166.095
L105.598 170.455
L106.515 204.249
L107.432 185.924
L108.349 150.811
L109.267 171.707
L110.184 159.881
L111.101 184.66
L112.018 186.471
L112.936 156.72
L113.853 169.921
L114.77 167.895
L115.687 197.855
L116.605 188.584
L117.522 173.597
L118.439 178.329
L119.356 184.688
L120.274 155.775
L121.191 145.429
L122.108 164.516
L123.025 141.734
L123.943 121.761
L124.86 165.326
L125.777 161.194
L126.694 163.898
L127.612 155.009
L128.529 167.889
L129.446 144.73
L130.364 169.336
L131.281 142.238
L132.198 166.901
L133.115 149.419
L134.033 154.177
L134.95 169.634
L135.867 155.79
L136.784 162.801
L137.702 98.0954
L138.619 141.178
L139.536 175.696
L140.453 129.275
L141.371 111.245
L142.288 142.881
L143.205 169.983
L144.122 159.416
L145.04 133.706
L145.957 158.909
L146.874 144.258
L147.791 141.234
L148.709 116.88
L149.626 138.182
L150.543 130.35
L151.461 120.75
L152.378 101.862
L153.295 156.42
L154.212 148.145
L155.13 171.082
L156.047 139.813
L156.964 93.8468
L157.881 93.127
L158.799 106.99
L159.716 100.955
L160.633 138.432
L161.55 169.967
L162.468 166.861
L163.385 136.402
L164.302 149.626
L165.219 78.3562
L167.054 139.49
L167.971 117.809
L168.888 144.067
L170.723 122.735
L171.64 158.053
L172.558 176.668
L173.475 148.225
L174.392 185.682
L175.309 151.401
L176.227 124.442
L177.144 122.876
L178.061 161.724
L178.978 110.254
L179.896 79.236
L180.813 106.955
L181.73 151.785
L182.647 161.929
L183.565 107.862
L184.482 116.228
L185.399 122.331
L186.316 131.003
L187.234 137.193
L188.151 150.016
L189.068 92.8745
L189.985 66.7736
L190.903 104.598
L191.82 76.2087
L192.737 147.501
L193.654 148.145
L194.572 113.677
L195.489 105.505
L196.406 104.715
L197.324 105.904
L198.241 88.1876
L199.158 66.8158
L200.075 70.6181
L200.993 97.101
L201.91 108.058
L202.827 134.322
L203.744 120.79
L204.662 88.4995
L205.579 97.0901
L206.496 102.817
L207.413 113.769
L208.331 108.193
L209.248 105.4
L210.165 130.995
L211.082 105.482
L212 83.0669
L212.917 104.583
L213.834 113.988
L214.751 115.687
L215.669 122.906
L216.586 134.2
L217.503 104.004
L218.421 115.944
L219.338 106.899
L220.255 103.709
L221.172 106.939
L222.09 104.196
L223.007 97.356
L223.924 107.21
L224.841 91.2004
L225.759 111.281
L226.676 103.213
L227.593 113.419
L228.51 103.775
L229.428 97.2776
L230.345 103.85
L232.179 137.189
L233.097 122.956
L234.014 117.676
L234.931 114.012
L235.848 127.758
L236.766 113.264
L237.683 108.47
L238.6 118.951
L239.518 109.827
L240.435 106.285
L241.352 104.703
L242.269 98.0309
L243.187 100.417
L244.104 108.183
L245.021 103.386
L245.938 96.3445
L246.856 99.8007
L247.773 105.656
L248.69 103.764
L249.607 97.3343
L250.525 112.105
L251.442 121.324
L252.359 113.834
L253.276 110.304
L254.194 115.997
L255.111 120.277
L256.028 118.49
L256.945 129.514
L257.863 122.262
L258.78 117.358
L259.697 108.446
L260.614 97.8454
L261.532 96.291
L262.449 95.4095
L263.366 97.926
L264.284 96.1804
L265.201 102.077
L266.118 114.127
L267.035 113.258
L267.953 113.69
L268.87 117.549
L269.787 114.712
L270.704 131.808
L271.622 122.484
L272.539 127.048
L273.456 117.748
L274.373 159.354
L275.291 174.558
L276.208 101.271
L277.125 101.261
L278.042 113.861
L278.96 108.014
L279.877 99.0019
L280.794 110.311
L281.711 111.654
L282.629 111.208
L283.546 123.02
L284.463 114.581
L285.381 110.854
L286.298 111.657
L287.215 104.534
L288.132 121.49
L289.05 119.182
L289.967 115.737
L290.884 123.449
L291.801 168.994
L292.719 191.365
L293.636 199.834
L294.553 201.885
L295.47 151.58
L296.388 122.352
L297.305 168.426
L298.222 154.783
L299.139 123.656
L300.057 109.711
L300.974 115.847
L301.891 137.819
L302.808 178.437
L303.726 123.112
L304.643 102.369
L305.56 126.851
L306.478 116.601
L307.395 126.634
L308.312 142.253
L309.229 129.113
L310.147 159.409
L311.064 89.7741
L311.981 57.1964
L312.898 75.6792
L313.816 89.1264
L314.733 107.956
L316.567 152.062
L318.402 70.7835
L319.319 84.1875
L320.236 143.75
L321.154 186.485
L322.071 186.19
L322.988 164.267
L323.905 148.166
L324.823 115.978
L325.74 92.945
L326.657 123.859
L327.574 161.142
L328.492 162.769
L329.409 139.564
L330.326 129.924
L331.244 117.37
L332.161 173.434
L333.078 183.415
L333.995 167.868
L334.913 136.785
L335.83 152.939
L336.747 165.749
L337.664 117.474
L338.582 147.142
L339.499 146.639
L340.416 63.3372
L341.333 81.2488
L342.251 139.803
L343.168 174.817
L344.085 159.295
L345.002 95.0891
L345.92 99.8823
L346.837 114.201
L347.754 134.775
L348.671 113.39
L349.589 99.1929
L350.506 109.428
L351.423 103.242
L352.341 86.5822
L353.258 106.959
L354.175 112.997
L355.092 112.619
L356.01 124.262
L356.927 129.731
L357.844 145.468
L358.761 151.264
L359.679 140.916
L360.596 135.168
L361.513 109.475
L362.43 105.536
L363.348 128.891
L364.265 51.0027
L365.182 60.6903
L366.099 75.037
L367.017 93.0615
L367.934 107.253
L368.851 139.353
L369.768 188.642
L370.686 166.255
L371.603 189.673
L372.52 148.439
L372.52 148.439" style="fill:none;stroke:#008000;stroke-linecap:square;"/>
   </g>
   <g id="line2d_3">
    <path clip-path="url(#pa986dbe5e9)" d="
M38.6375 90.7513
L39.5548 108.68
L40.472 107.565
L41.3893 93.6416
L42.3065 128.036
L43.2238 135.509
L44.1411 149.427
L45.0583 146.934
L45.9756 143.447
L46.8928 166.105
L47.8101 128.594
L48.7274 97.3856
L49.6446 57.9643
L50.5619 69.1803
L51.4791 119.174
L52.3964 133.714
L53.3137 93.3202
L54.2309 144.307
L55.1482 202.955
L56.0654 202.986
L56.9827 197.74
L57.9 172.445
L58.8172 193.446
L59.7345 166.411
L60.6517 174.911
L61.569 176.547
L64.3208 87.3865
L65.238 166.554
L66.1553 135.781
L67.9898 180.837
L68.9071 152.032
L69.8243 132.891
L71.6589 131.741
L72.5761 103.421
L73.4934 156.237
L74.4107 182.608
L75.3279 171.724
L76.2452 179.819
L77.1624 193.709
L78.0797 168.872
L78.997 170.974
L79.9142 178.179
L80.8315 137.121
L81.7487 151.671
L82.666 168.01
L83.5833 142.522
L84.5005 148.026
L85.4178 193.435
L87.2523 144.611
L88.1696 107.48
L89.0868 155.91
L90.0041 140.475
L90.9213 121.412
L91.8386 128.583
L92.7559 150.767
L93.6731 163.19
L94.5904 159.253
L95.5076 178.403
L96.4249 151.622
L97.3422 120.554
L98.2594 163.79
L99.1767 111.638
L100.094 107.054
L101.011 103.661
L101.928 93.9853
L102.846 139.862
L103.763 148.697
L104.68 150.283
L105.598 199.338
L106.515 179.196
L107.432 171.316
L108.349 160.322
L109.267 182.54
L110.184 149.196
L111.101 166.483
L112.018 160.926
L112.936 119.411
L113.853 136.456
L114.77 103.006
L115.687 148.326
L116.605 182.455
L117.522 134.934
L118.439 168.236
L119.356 167.399
L120.274 186.798
L121.191 125.45
L122.108 132.686
L123.025 142.821
L123.943 100.812
L124.86 139.884
L125.777 134.77
L126.694 139.71
L127.612 80.1466
L128.529 58.2669
L129.446 76.5521
L130.364 77.4773
L131.281 139.716
L132.198 103.989
L133.115 138.308
L134.033 85.3821
L134.95 69.5208
L135.867 145.417
L136.784 116.786
L137.702 135.331
L138.619 159.588
L140.453 91.3045
L141.371 96.1681
L142.288 128.415
L143.205 124.378
L144.122 140.798
L145.04 187.961
L145.957 138.131
L147.791 84.2186
L148.709 158.084
L149.626 106.005
L150.543 96.83
L151.461 149.054
L152.378 161.691
L153.295 122.834
L154.212 93.9534
L155.13 70.6079
L156.047 78.5146
L156.964 96.7769
L157.881 65.1591
L158.799 62.2515
L159.716 68.5505
L160.633 78.2129
L161.55 94.0898
L162.468 120.395
L163.385 89.3941
L164.302 111.146
L165.219 89.3903
L166.137 61.1706
L167.054 82.4797
L167.971 136.587
L168.888 134.827
L169.806 141.075
L170.723 104.734
L171.64 163.193
L172.558 172.293
L173.475 141.157
L174.392 84.9053
L175.309 87.6353
L176.227 82.9534
L177.144 100.189
L178.061 98.0108
L178.978 120.34
L179.896 115.141
L181.73 156.155
L182.647 97.5745
L183.565 107.826
L184.482 116.757
L185.399 145.442
L186.316 113.133
L187.234 69.195
L188.151 112.487
L189.068 101.542
L189.985 64.2088
L190.903 120.595
L191.82 92.4285
L192.737 95.9521
L193.654 88.1985
L194.572 113.519
L195.489 79.2543
L196.406 90.9234
L197.324 139.372
L198.241 101.741
L199.158 93.7981
L200.075 89.6207
L200.993 108.15
L201.91 77.2072
L202.827 95.3095
L203.744 95.6018
L204.662 103.567
L205.579 125.925
L206.496 106.651
L207.413 98.494
L208.331 92.8553
L209.248 109.766
L210.165 116.16
L211.082 111.957
L212 140.216
L212.917 116.547
L213.834 116.274
L214.751 122.432
L215.669 115.435
L217.503 154.318
L218.421 137.067
L219.338 127.338
L220.255 110.62
L221.172 107.579
L222.09 114.675
L223.007 105.738
L223.924 105.919
L224.841 110.332
L226.676 104.107
L227.593 114.602
L228.51 110.461
L229.428 114.342
L230.345 112.696
L231.262 110.121
L232.179 109.113
L233.097 110.442
L234.014 102.481
L234.931 97.3495
L235.848 103.013
L236.766 103.767
L237.683 111.815
L238.6 113.227
L240.435 119.044
L241.352 119.425
L242.269 128.529
L243.187 110.981
L244.104 115.036
L245.021 114.275
L246.856 110.821
L247.773 115.703
L248.69 113.014
L249.607 111.012
L250.525 131.242
L251.442 117.258
L252.359 120.288
L253.276 111.826
L254.194 104.616
L255.111 79.8698
L256.028 93.2708
L256.945 122.436
L257.863 128.734
L258.78 111.847
L259.697 104.883
L260.614 100.831
L261.532 122.071
L262.449 113.504
L263.366 84.3881
L264.284 92.267
L265.201 95.3443
L266.118 103.584
L267.035 117.471
L267.953 97.816
L268.87 99.5055
L269.787 116.821
L270.704 101.25
L271.622 95.6533
L272.539 71.8978
L273.456 94.1623
L274.373 100.144
L275.291 100.825
L276.208 103.478
L277.125 97.037
L278.042 101.153
L279.877 110.94
L280.794 110.699
L281.711 107.38
L282.629 157.623
L283.546 134.952
L284.463 135.821
L285.381 124.513
L286.298 107.816
L287.215 115.688
L288.132 114.756
L289.05 112
L290.884 101.323
L291.801 69.242
L292.719 71.5367
L293.636 67.5
L294.553 64.6409
L295.47 72.9828
L296.388 73.738
L297.305 91.6462
L298.222 100.107
L299.139 100.321
L300.057 99.7877
L300.974 156.187
L301.891 135.383
L302.808 143.835
L303.726 142.116
L304.643 106.741
L305.56 97.8006
L306.478 118.116
L307.395 155.61
L308.312 108.737
L309.229 171.812
L310.147 156.969
L311.064 169.758
L311.981 151.714
L312.898 125.119
L313.816 158.436
M315.65 131.623
L316.567 128.165
L317.485 110.039
L318.402 147.048
L319.319 133.343
L320.236 138.024
L321.154 134.646
L322.071 154.841
L322.988 132.496
L323.905 143.659
L325.74 179.726
L326.657 169.07
L327.574 166.204
L328.492 149.747
M330.326 172.365
L331.244 139.878
L333.078 176.667
L333.995 155.03
L334.913 173.128
L335.83 167.109
L336.747 169.077
L337.664 136.627
L338.582 100.188
L339.499 151.645
L340.416 172.395
L341.333 149.47
L342.251 135.978
L343.168 153.033
L344.085 166.243
L345.002 176.325
L345.92 175.111
L346.837 182.325
L347.754 139.716
L348.671 166.935
L349.589 189.245
L351.423 158.722
L352.341 174.482
L353.258 123.853
L354.175 188.408
L355.092 155.42
L356.01 197.383
L356.927 169.254
L357.844 196.277
L358.761 187.274
L359.679 180.804
L360.596 167.824
L361.513 172.818
L362.43 156.84
L363.348 99.2924
L364.265 83.0942
L365.182 138.303
L366.099 178.376
L367.017 188.3
L367.934 147.818
L368.851 176.393
L369.768 183.599
L370.686 183.276
L371.603 160.007
L372.52 189.155
L372.52 189.155" style="fill:none;stroke:#ff0000;stroke-linecap:square;"/>
   </g>
   <g id="line2d_4">
    <path clip-path="url(#pa986dbe5e9)" d="
M38.6375 175.725
L39.5548 177.427
L41.3893 124.867
L42.3065 161.038
L43.2238 152.533
L44.1411 181.313
L45.0583 203.444
L45.9756 214.765
M47.8101 205.749
L48.7274 205.099
L49.6446 199.17
L50.5619 180.678
L51.4791 201.279
L52.3964 177.29
L53.3137 139.384
L54.2309 116.739
L55.1482 122.79
L56.0654 115.177
L56.9827 115.658
L57.9 118.864
L58.8172 112.29
L59.7345 169.653
L60.6517 202.94
L61.569 201.661
L62.4863 206.19
L63.4035 201.145
L64.3208 202.75
L65.238 204.854
L66.1553 209.757
L67.0726 201.835
L67.9898 190.354
L68.9071 176.993
L69.8243 160.531
L70.7416 161.319
L71.6589 178.405
L72.5761 168.695
L73.4934 185.19
L74.4107 174.603
L75.3279 155.972
L76.2452 142.077
L77.1624 181.632
L78.0797 186.528
L78.997 179.597
L79.9142 169.144
L80.8315 174.426
L81.7487 182.413
L82.666 137.264
L83.5833 163.193
L84.5005 172.267
L85.4178 159.094
L86.335 194.946
L87.2523 190.738
L88.1696 181.685
L89.0868 175.302
L90.0041 170.18
L90.9213 148.095
L91.8386 172.992
L92.7559 182.381
L93.6731 175.643
L94.5904 162.286
L95.5076 121.58
L96.4249 129.957
L97.3422 165.049
L98.2594 155.848
L99.1767 138.095
L100.094 127.838
L101.011 107.448
L101.928 172.615
L102.846 164.985
L103.763 135.862
L104.68 129.139
L105.598 137.432
L106.515 149.688
L107.432 142.793
L108.349 139.549
L109.267 82.6772
L110.184 153.489
L111.101 144.386
L112.018 162.169
L112.936 129.904
L113.853 102.468
L114.77 101.811
L115.687 166.256
L116.605 149.499
L117.522 123.431
L118.439 126.878
L119.356 112.685
L120.274 116.62
L121.191 139.788
L122.108 121.266
L123.025 111.75
L123.943 153.883
L124.86 155.765
L125.777 175.759
L126.694 172.222
L127.612 131.595
L128.529 100.623
L129.446 146.738
L130.364 112.646
L131.281 86.3698
L132.198 147.349
L133.115 120.173
L134.033 124.424
L134.95 101.094
L135.867 70.2109
L136.784 73.4648
L137.702 174.501
L138.619 145.919
L139.536 122.054
L140.453 105.621
L141.371 85.1726
L142.288 69.4629
L143.205 79.7544
L144.122 95.3195
L145.04 104.122
L145.957 90.9156
L146.874 123.438
L147.791 105.553
L148.709 77.5549
L149.626 68.5286
L150.543 90.049
L151.461 130.563
L152.378 102.735
L153.295 135.014
L154.212 137.24
L155.13 132.214
L156.047 119.82
L156.964 115.374
L157.881 117.233
L158.799 118.567
L159.716 118.533
L160.633 110.245
L161.55 112.186
L163.385 171.749
L164.302 128.95
L165.219 146.117
L166.137 104.065
L167.054 118.004
L167.971 107.209
L168.888 67.4975
L169.806 86.27
L170.723 94.2068
L171.64 151.254
L172.558 146.318
L173.475 179.921
L174.392 169.396
L175.309 124.592
L176.227 104.137
L177.144 99.616
L178.061 96.411
L178.978 96.3108
L179.896 106.882
L180.813 106.818
L181.73 117.495
L182.647 115.848
L183.565 116.236
L184.482 113.708
L185.399 119.789
L186.316 123.001
L187.234 104.939
L188.151 138.325
L189.068 126.161
L189.985 93.0969
L190.903 117.105
L191.82 114.414
L192.737 115.619
L193.654 170.886
L194.572 128.512
L195.489 130.767
L196.406 122.338
L197.324 119.238
L198.241 170.857
L199.158 189.87
L200.075 148.425
L200.993 122.018
L201.91 124.605
L202.827 132.685
L203.744 128.705
L204.662 136.112
L205.579 133.686
L206.496 149.734
L207.413 124.888
L208.331 115.527
L209.248 121.305
L210.165 123.384
L211.082 119.957
L212 115.699
L213.834 134.599
L215.669 106.124
L216.586 111.274
L217.503 120.872
L218.421 149.689
L219.338 130.107
L220.255 116.293
L221.172 121.63
L222.09 121.54
L223.007 116.743
L223.924 112.615
L224.841 117.588
L225.759 125.196
L226.676 124.829
L227.593 131.005
L228.51 125.694
L229.428 119.18
L230.345 115.622
L231.262 114.865
L232.179 126.156
L233.097 126.55
L234.014 115.37
L234.931 109.486
L235.848 117.201
L236.766 119.868
L237.683 119.787
L238.6 126.235
L239.518 125.794
L240.435 131.713
L241.352 128.627
L242.269 130.232
L243.187 133.88
L244.104 132.852
L245.021 125.905
L245.938 129.557
L246.856 128.561
L247.773 128.571
L248.69 128.99
L249.607 128.822
L250.525 126.67
L251.442 125.44
L252.359 154.416
L253.276 138.94
L254.194 139.538
L255.111 134.705
L256.028 128.271
L256.945 132.409
L257.863 147.34
L258.78 138.49
L259.697 127.517
L260.614 127.513
L261.532 132.224
L263.366 176.98
L264.284 165.739
L265.201 170.462
L267.035 127.765
L267.953 128.493
L268.87 134.95
L269.787 135.744
L270.704 143.015
L271.622 173.146
L272.539 156.897
L273.456 164.389
L274.373 148.298
L275.291 141.271
L276.208 159.429
L277.125 167.943
L278.042 120.921
L278.96 119.235
L279.877 149.347
L280.794 170.039
L281.711 145.024
L282.629 177.959
L283.546 197.64
L284.463 184.55
L285.381 152.923
L286.298 146.048
L287.215 178.459
L288.132 152.145
L289.05 164.747
L289.967 150.437
L290.884 175.505
L291.801 122.882
L292.719 105.003
L293.636 110.013
L294.553 127.946
L295.47 167.983
L296.388 142.548
L297.305 148.953
L299.139 133.664
L300.057 144.856
L301.891 130.501
L302.808 123.554
L303.726 132.482
L304.643 118.211
L305.56 121.15
L306.478 135.329
L307.395 136.097
L308.312 125.572
L309.229 130.997
L310.147 132
L311.064 130.804
L311.981 134.575
L312.898 135.913
L313.816 183.401
L314.733 191.506
L315.65 182.248
L316.567 184.447
L317.485 183.108
L318.402 188.738
L319.319 185.675
L320.236 160.41
L321.154 170.552
L322.071 191.511
L322.988 181.468
L323.905 150.156
L324.823 139.894
L325.74 143.612
L326.657 135.536
L327.574 137.13
L328.492 161.035
L329.409 170.892
L331.244 185.663
L332.161 177.253
L333.078 150.383
L333.995 184.187
L334.913 188.465
L335.83 130.218
L336.747 122.25
L337.664 119.092
L338.582 124.792
L339.499 120.641
L340.416 134.95
L341.333 133.779
L343.168 147.174
L344.085 182.035
L345.002 189.551
L345.92 178.355
L346.837 150.412
L347.754 180.365
L348.671 167.806
L349.589 162.133
L350.506 178.119
L351.423 168.807
L352.341 132.232
L353.258 148.568
L354.175 175.516
L355.092 155.622
L356.01 167.004
L356.927 173.853
L357.844 135.234
L358.761 138.326
L359.679 119.569
L360.596 162.78
L361.513 176.794
L362.43 153.563
L363.348 190.221
L364.265 199.685
L365.182 187.79
L366.099 172.342
L367.934 113.426
L368.851 117.129
L369.768 159.145
L370.686 143.91
L371.603 160.202
L372.52 170.791
L372.52 170.791" style="fill:none;stroke:#00bfbf;stroke-linecap:square;"/>
   </g>
   <g id="patch_3">
    <path d="
M38.6375 21.3181
L373.438 21.3181" style="fill:none;stroke:#000000;stroke-linecap:square;stroke-linejoin:miter;"/>
   </g>
   <g id="patch_4">
    <path d="
M373.438 244.518
L373.438 21.3181" style="fill:none;stroke:#000000;stroke-linecap:square;stroke-linejoin:miter;"/>
   </g>
   <g id="patch_5">
    <path d="
M38.6375 244.518
L373.438 244.518" style="fill:none;stroke:#000000;stroke-linecap:square;stroke-linejoin:miter;"/>
   </g>
   <g id="patch_6">
    <path d="
M38.6375 244.518
L38.6375 21.3181" style="fill:none;stroke:#000000;stroke-linecap:square;stroke-linejoin:miter;"/>
   </g>
   <g id="matplotlib.axis_1">
    <g id="xtick_1">
     <g id="line2d_5">
      <defs>
       <path d="
M0 0
L0 -4" id="m93b0483c22" style="stroke:#000000;stroke-width:0.5;"/>
      </defs>
      <g>
       <use style="stroke:#000000;stroke-width:0.5;" x="38.6375" xlink:href="#m93b0483c22" y="244.518125"/>
      </g>
     </g>
     <g id="line2d_6">
      <defs>
       <path d="
M0 0
L0 4" id="m741efc42ff" style="stroke:#000000;stroke-width:0.5;"/>
      </defs>
      <g>
       <use style="stroke:#000000;stroke-width:0.5;" x="38.6375" xlink:href="#m741efc42ff" y="21.318125"/>
      </g>
     </g>
     <g id="text_1">
      <!-- 0 -->
      <defs>
       <path d="
M31.7812 66.4062
Q24.1719 66.4062 20.3281 58.9062
Q16.5 51.4219 16.5 36.375
Q16.5 21.3906 20.3281 13.8906
Q24.1719 6.39062 31.7812 6.39062
Q39.4531 6.39062 43.2812 13.8906
Q47.125 21.3906 47.125 36.375
Q47.125 51.4219 43.2812 58.9062
Q39.4531 66.4062 31.7812 66.4062
M31.7812 74.2188
Q44.0469 74.2188 50.5156 64.5156
Q56.9844 54.8281 56.9844 36.375
Q56.9844 17.9688 50.5156 8.26562
Q44.0469 -1.42188 31.7812 -1.42188
Q19.5312 -1.42188 13.0625 8.26562
Q6.59375 17.9688 6.59375 36.375
Q6.59375 54.8281 13.0625 64.5156
Q19.5312 74.2188 31.7812 74.2188" id="BitstreamVeraSans-Roman-30"/>
      </defs>
      <g transform="translate(36.11796875 256.1165625)scale(0.1 -0.1)">
       <use xlink:href="#BitstreamVeraSans-Roman-30"/>
      </g>
     </g>
    </g>
    <g id="xtick_2">
     <g id="line2d_7">
      <g>
       <use style="stroke:#000000;stroke-width:0.5;" x="84.5005136986" xlink:href="#m93b0483c22" y="244.518125"/>
      </g>
     </g>
     <g id="line2d_8">
      <g>
       <use style="stroke:#000000;stroke-width:0.5;" x="84.5005136986" xlink:href="#m741efc42ff" y="21.318125"/>
      </g>
     </g>
     <g id="text_2">
      <!-- 50 -->
      <defs>
       <path d="
M10.7969 72.9062
L49.5156 72.9062
L49.5156 64.5938
L19.8281 64.5938
L19.8281 46.7344
Q21.9688 47.4688 24.1094 47.8281
Q26.2656 48.1875 28.4219 48.1875
Q40.625 48.1875 47.75 41.5
Q54.8906 34.8125 54.8906 23.3906
Q54.8906 11.625 47.5625 5.09375
Q40.2344 -1.42188 26.9062 -1.42188
Q22.3125 -1.42188 17.5469 -0.640625
Q12.7969 0.140625 7.71875 1.70312
L7.71875 11.625
Q12.1094 9.23438 16.7969 8.0625
Q21.4844 6.89062 26.7031 6.89062
Q35.1562 6.89062 40.0781 11.3281
Q45.0156 15.7656 45.0156 23.3906
Q45.0156 31 40.0781 35.4375
Q35.1562 39.8906 26.7031 39.8906
Q22.75 39.8906 18.8125 39.0156
Q14.8906 38.1406 10.7969 36.2812
z
" id="BitstreamVeraSans-Roman-35"/>
      </defs>
      <g transform="translate(78.8559824486 256.1165625)scale(0.1 -0.1)">
       <use xlink:href="#BitstreamVeraSans-Roman-35"/>
       <use x="63.623046875" xlink:href="#BitstreamVeraSans-Roman-30"/>
      </g>
     </g>
    </g>
    <g id="xtick_3">
     <g id="line2d_9">
      <g>
       <use style="stroke:#000000;stroke-width:0.5;" x="130.363527397" xlink:href="#m93b0483c22" y="244.518125"/>
      </g>
     </g>
     <g id="line2d_10">
      <g>
       <use style="stroke:#000000;stroke-width:0.5;" x="130.363527397" xlink:href="#m741efc42ff" y="21.318125"/>
      </g>
     </g>
     <g id="text_3">
      <!-- 100 -->
      <defs>
       <path d="
M12.4062 8.29688
L28.5156 8.29688
L28.5156 63.9219
L10.9844 60.4062
L10.9844 69.3906
L28.4219 72.9062
L38.2812 72.9062
L38.2812 8.29688
L54.3906 8.29688
L54.3906 0
L12.4062 0
z
" id="BitstreamVeraSans-Roman-31"/>
      </defs>
      <g transform="translate(121.701027397 256.1165625)scale(0.1 -0.1)">
       <use xlink:href="#BitstreamVeraSans-Roman-31"/>
       <use x="63.623046875" xlink:href="#BitstreamVeraSans-Roman-30"/>
       <use x="127.24609375" xlink:href="#BitstreamVeraSans-Roman-30"/>
      </g>
     </g>
    </g>
    <g id="xtick_4">
     <g id="line2d_11">
      <g>
       <use style="stroke:#000000;stroke-width:0.5;" x="176.226541096" xlink:href="#m93b0483c22" y="244.518125"/>
      </g>
     </g>
     <g id="line2d_12">
      <g>
       <use style="stroke:#000000;stroke-width:0.5;" x="176.226541096" xlink:href="#m741efc42ff" y="21.318125"/>
      </g>
     </g>
     <g id="text_4">
      <!-- 150 -->
      <g transform="translate(167.564041096 256.1165625)scale(0.1 -0.1)">
       <use xlink:href="#BitstreamVeraSans-Roman-31"/>
       <use x="63.623046875" xlink:href="#BitstreamVeraSans-Roman-35"/>
       <use x="127.24609375" xlink:href="#BitstreamVeraSans-Roman-30"/>
      </g>
     </g>
    </g>
    <g id="xtick_5">
     <g id="line2d_13">
      <g>
       <use style="stroke:#000000;stroke-width:0.5;" x="222.089554795" xlink:href="#m93b0483c22" y="244.518125"/>
      </g>
     </g>
     <g id="line2d_14">
      <g>
       <use style="stroke:#000000;stroke-width:0.5;" x="222.089554795" xlink:href="#m741efc42ff" y="21.318125"/>
      </g>
     </g>
     <g id="text_5">
      <!-- 200 -->
      <defs>
       <path d="
M19.1875 8.29688
L53.6094 8.29688
L53.6094 0
L7.32812 0
L7.32812 8.29688
Q12.9375 14.1094 22.625 23.8906
Q32.3281 33.6875 34.8125 36.5312
Q39.5469 41.8438 41.4219 45.5312
Q43.3125 49.2188 43.3125 52.7812
Q43.3125 58.5938 39.2344 62.25
Q35.1562 65.9219 28.6094 65.9219
Q23.9688 65.9219 18.8125 64.3125
Q13.6719 62.7031 7.8125 59.4219
L7.8125 69.3906
Q13.7656 71.7812 18.9375 73
Q24.125 74.2188 28.4219 74.2188
Q39.75 74.2188 46.4844 68.5469
Q53.2188 62.8906 53.2188 53.4219
Q53.2188 48.9219 51.5312 44.8906
Q49.8594 40.875 45.4062 35.4062
Q44.1875 33.9844 37.6406 27.2188
Q31.1094 20.4531 19.1875 8.29688" id="BitstreamVeraSans-Roman-32"/>
      </defs>
      <g transform="translate(213.244242295 256.1165625)scale(0.1 -0.1)">
       <use xlink:href="#BitstreamVeraSans-Roman-32"/>
       <use x="63.623046875" xlink:href="#BitstreamVeraSans-Roman-30"/>
       <use x="127.24609375" xlink:href="#BitstreamVeraSans-Roman-30"/>
      </g>
     </g>
    </g>
    <g id="xtick_6">
     <g id="line2d_15">
      <g>
       <use style="stroke:#000000;stroke-width:0.5;" x="267.952568493" xlink:href="#m93b0483c22" y="244.518125"/>
      </g>
     </g>
     <g id="line2d_16">
      <g>
       <use style="stroke:#000000;stroke-width:0.5;" x="267.952568493" xlink:href="#m741efc42ff" y="21.318125"/>
      </g>
     </g>
     <g id="text_6">
      <!-- 250 -->
      <g transform="translate(259.107255993 256.1165625)scale(0.1 -0.1)">
       <use xlink:href="#BitstreamVeraSans-Roman-32"/>
       <use x="63.623046875" xlink:href="#BitstreamVeraSans-Roman-35"/>
       <use x="127.24609375" xlink:href="#BitstreamVeraSans-Roman-30"/>
      </g>
     </g>
    </g>
    <g id="xtick_7">
     <g id="line2d_17">
      <g>
       <use style="stroke:#000000;stroke-width:0.5;" x="313.815582192" xlink:href="#m93b0483c22" y="244.518125"/>
      </g>
     </g>
     <g id="line2d_18">
      <g>
       <use style="stroke:#000000;stroke-width:0.5;" x="313.815582192" xlink:href="#m741efc42ff" y="21.318125"/>
      </g>
     </g>
     <g id="text_7">
      <!-- 300 -->
      <defs>
       <path d="
M40.5781 39.3125
Q47.6562 37.7969 51.625 33
Q55.6094 28.2188 55.6094 21.1875
Q55.6094 10.4062 48.1875 4.48438
Q40.7656 -1.42188 27.0938 -1.42188
Q22.5156 -1.42188 17.6562 -0.515625
Q12.7969 0.390625 7.625 2.20312
L7.625 11.7188
Q11.7188 9.32812 16.5938 8.10938
Q21.4844 6.89062 26.8125 6.89062
Q36.0781 6.89062 40.9375 10.5469
Q45.7969 14.2031 45.7969 21.1875
Q45.7969 27.6406 41.2812 31.2656
Q36.7656 34.9062 28.7188 34.9062
L20.2188 34.9062
L20.2188 43.0156
L29.1094 43.0156
Q36.375 43.0156 40.2344 45.9219
Q44.0938 48.8281 44.0938 54.2969
Q44.0938 59.9062 40.1094 62.9062
Q36.1406 65.9219 28.7188 65.9219
Q24.6562 65.9219 20.0156 65.0312
Q15.375 64.1562 9.8125 62.3125
L9.8125 71.0938
Q15.4375 72.6562 20.3438 73.4375
Q25.25 74.2188 29.5938 74.2188
Q40.8281 74.2188 47.3594 69.1094
Q53.9062 64.0156 53.9062 55.3281
Q53.9062 49.2656 50.4375 45.0938
Q46.9688 40.9219 40.5781 39.3125" id="BitstreamVeraSans-Roman-33"/>
      </defs>
      <g transform="translate(304.985113442 256.1165625)scale(0.1 -0.1)">
       <use xlink:href="#BitstreamVeraSans-Roman-33"/>
       <use x="63.623046875" xlink:href="#BitstreamVeraSans-Roman-30"/>
       <use x="127.24609375" xlink:href="#BitstreamVeraSans-Roman-30"/>
      </g>
     </g>
    </g>
    <g id="xtick_8">
     <g id="line2d_19">
      <g>
       <use style="stroke:#000000;stroke-width:0.5;" x="359.67859589" xlink:href="#m93b0483c22" y="244.518125"/>
      </g>
     </g>
     <g id="line2d_20">
      <g>
       <use style="stroke:#000000;stroke-width:0.5;" x="359.67859589" xlink:href="#m741efc42ff" y="21.318125"/>
      </g>
     </g>
     <g id="text_8">
      <!-- 350 -->
      <g transform="translate(350.84812714 256.1165625)scale(0.1 -0.1)">
       <use xlink:href="#BitstreamVeraSans-Roman-33"/>
       <use x="63.623046875" xlink:href="#BitstreamVeraSans-Roman-35"/>
       <use x="127.24609375" xlink:href="#BitstreamVeraSans-Roman-30"/>
      </g>
     </g>
    </g>
    <g id="text_9">
     <!-- Julian day -->
     <defs>
      <path id="BitstreamVeraSans-Roman-20"/>
      <path d="
M9.8125 72.9062
L19.6719 72.9062
L19.6719 5.07812
Q19.6719 -8.10938 14.6719 -14.0625
Q9.67188 -20.0156 -1.42188 -20.0156
L-5.17188 -20.0156
L-5.17188 -11.7188
L-2.09375 -11.7188
Q4.4375 -11.7188 7.125 -8.04688
Q9.8125 -4.39062 9.8125 5.07812
z
" id="BitstreamVeraSans-Roman-4a"/>
      <path d="
M54.8906 33.0156
L54.8906 0
L45.9062 0
L45.9062 32.7188
Q45.9062 40.4844 42.875 44.3281
Q39.8438 48.1875 33.7969 48.1875
Q26.5156 48.1875 22.3125 43.5469
Q18.1094 38.9219 18.1094 30.9062
L18.1094 0
L9.07812 0
L9.07812 54.6875
L18.1094 54.6875
L18.1094 46.1875
Q21.3438 51.125 25.7031 53.5625
Q30.0781 56 35.7969 56
Q45.2188 56 50.0469 50.1719
Q54.8906 44.3438 54.8906 33.0156" id="BitstreamVeraSans-Roman-6e"/>
      <path d="
M9.42188 75.9844
L18.4062 75.9844
L18.4062 0
L9.42188 0
z
" id="BitstreamVeraSans-Roman-6c"/>
      <path d="
M9.42188 54.6875
L18.4062 54.6875
L18.4062 0
L9.42188 0
z

M9.42188 75.9844
L18.4062 75.9844
L18.4062 64.5938
L9.42188 64.5938
z
" id="BitstreamVeraSans-Roman-69"/>
      <path d="
M32.1719 -5.07812
Q28.375 -14.8438 24.75 -17.8125
Q21.1406 -20.7969 15.0938 -20.7969
L7.90625 -20.7969
L7.90625 -13.2812
L13.1875 -13.2812
Q16.8906 -13.2812 18.9375 -11.5156
Q21 -9.76562 23.4844 -3.21875
L25.0938 0.875
L2.98438 54.6875
L12.5 54.6875
L29.5938 11.9219
L46.6875 54.6875
L56.2031 54.6875
z
" id="BitstreamVeraSans-Roman-79"/>
      <path d="
M45.4062 46.3906
L45.4062 75.9844
L54.3906 75.9844
L54.3906 0
L45.4062 0
L45.4062 8.20312
Q42.5781 3.32812 38.25 0.953125
Q33.9375 -1.42188 27.875 -1.42188
Q17.9688 -1.42188 11.7344 6.48438
Q5.51562 14.4062 5.51562 27.2969
Q5.51562 40.1875 11.7344 48.0938
Q17.9688 56 27.875 56
Q33.9375 56 38.25 53.625
Q42.5781 51.2656 45.4062 46.3906
M14.7969 27.2969
Q14.7969 17.3906 18.875 11.75
Q22.9531 6.10938 30.0781 6.10938
Q37.2031 6.10938 41.2969 11.75
Q45.4062 17.3906 45.4062 27.2969
Q45.4062 37.2031 41.2969 42.8438
Q37.2031 48.4844 30.0781 48.4844
Q22.9531 48.4844 18.875 42.8438
Q14.7969 37.2031 14.7969 27.2969" id="BitstreamVeraSans-Roman-64"/>
      <path d="
M8.5 21.5781
L8.5 54.6875
L17.4844 54.6875
L17.4844 21.9219
Q17.4844 14.1562 20.5 10.2656
Q23.5312 6.39062 29.5938 6.39062
Q36.8594 6.39062 41.0781 11.0312
Q45.3125 15.6719 45.3125 23.6875
L45.3125 54.6875
L54.2969 54.6875
L54.2969 0
L45.3125 0
L45.3125 8.40625
Q42.0469 3.42188 37.7188 1
Q33.4062 -1.42188 27.6875 -1.42188
Q18.2656 -1.42188 13.375 4.4375
Q8.5 10.2969 8.5 21.5781" id="BitstreamVeraSans-Roman-75"/>
      <path d="
M34.2812 27.4844
Q23.3906 27.4844 19.1875 25
Q14.9844 22.5156 14.9844 16.5
Q14.9844 11.7188 18.1406 8.90625
Q21.2969 6.10938 26.7031 6.10938
Q34.1875 6.10938 38.7031 11.4062
Q43.2188 16.7031 43.2188 25.4844
L43.2188 27.4844
z

M52.2031 31.2031
L52.2031 0
L43.2188 0
L43.2188 8.29688
Q40.1406 3.32812 35.5469 0.953125
Q30.9531 -1.42188 24.3125 -1.42188
Q15.9219 -1.42188 10.9531 3.29688
Q6 8.01562 6 15.9219
Q6 25.1406 12.1719 29.8281
Q18.3594 34.5156 30.6094 34.5156
L43.2188 34.5156
L43.2188 35.4062
Q43.2188 41.6094 39.1406 45
Q35.0625 48.3906 27.6875 48.3906
Q23 48.3906 18.5469 47.2656
Q14.1094 46.1406 10.0156 43.8906
L10.0156 52.2031
Q14.9375 54.1094 19.5781 55.0469
Q24.2188 56 28.6094 56
Q40.4844 56 46.3438 49.8438
Q52.2031 43.7031 52.2031 31.2031" id="BitstreamVeraSans-Roman-61"/>
     </defs>
     <g transform="translate(181.48671875 270.7946875)scale(0.1 -0.1)">
      <use xlink:href="#BitstreamVeraSans-Roman-4a"/>
      <use x="29.4921875" xlink:href="#BitstreamVeraSans-Roman-75"/>
      <use x="92.87109375" xlink:href="#BitstreamVeraSans-Roman-6c"/>
      <use x="120.654296875" xlink:href="#BitstreamVeraSans-Roman-69"/>
      <use x="148.4375" xlink:href="#BitstreamVeraSans-Roman-61"/>
      <use x="209.716796875" xlink:href="#BitstreamVeraSans-Roman-6e"/>
      <use x="273.095703125" xlink:href="#BitstreamVeraSans-Roman-20"/>
      <use x="304.8828125" xlink:href="#BitstreamVeraSans-Roman-64"/>
      <use x="368.359375" xlink:href="#BitstreamVeraSans-Roman-61"/>
      <use x="429.638671875" xlink:href="#BitstreamVeraSans-Roman-79"/>
     </g>
    </g>
   </g>
   <g id="matplotlib.axis_2">
    <g id="ytick_1">
     <g id="line2d_21">
      <defs>
       <path d="
M0 0
L4 0" id="m728421d6d4" style="stroke:#000000;stroke-width:0.5;"/>
      </defs>
      <g>
       <use style="stroke:#000000;stroke-width:0.5;" x="38.6375" xlink:href="#m728421d6d4" y="244.518125"/>
      </g>
     </g>
     <g id="line2d_22">
      <defs>
       <path d="
M0 0
L-4 0" id="mcb0005524f" style="stroke:#000000;stroke-width:0.5;"/>
      </defs>
      <g>
       <use style="stroke:#000000;stroke-width:0.5;" x="373.4375" xlink:href="#mcb0005524f" y="244.518125"/>
      </g>
     </g>
     <g id="text_10">
      <!-- −1 -->
      <defs>
       <path d="
M10.5938 35.5
L73.1875 35.5
L73.1875 27.2031
L10.5938 27.2031
z
" id="BitstreamVeraSans-Roman-2212"/>
      </defs>
      <g transform="translate(21.878125 247.2775)scale(0.1 -0.1)">
       <use xlink:href="#BitstreamVeraSans-Roman-2212"/>
       <use x="83.7890625" xlink:href="#BitstreamVeraSans-Roman-31"/>
      </g>
     </g>
    </g>
    <g id="ytick_2">
     <g id="line2d_23">
      <g>
       <use style="stroke:#000000;stroke-width:0.5;" x="38.6375" xlink:href="#m728421d6d4" y="212.632410714"/>
      </g>
     </g>
     <g id="line2d_24">
      <g>
       <use style="stroke:#000000;stroke-width:0.5;" x="373.4375" xlink:href="#mcb0005524f" y="212.632410714"/>
      </g>
     </g>
     <g id="text_11">
      <!-- 0 -->
      <g transform="translate(29.5984375 215.391785714)scale(0.1 -0.1)">
       <use xlink:href="#BitstreamVeraSans-Roman-30"/>
      </g>
     </g>
    </g>
    <g id="ytick_3">
     <g id="line2d_25">
      <g>
       <use style="stroke:#000000;stroke-width:0.5;" x="38.6375" xlink:href="#m728421d6d4" y="180.746696429"/>
      </g>
     </g>
     <g id="line2d_26">
      <g>
       <use style="stroke:#000000;stroke-width:0.5;" x="373.4375" xlink:href="#mcb0005524f" y="180.746696429"/>
      </g>
     </g>
     <g id="text_12">
      <!-- 1 -->
      <g transform="translate(30.296875 183.506071429)scale(0.1 -0.1)">
       <use xlink:href="#BitstreamVeraSans-Roman-31"/>
      </g>
     </g>
    </g>
    <g id="ytick_4">
     <g id="line2d_27">
      <g>
       <use style="stroke:#000000;stroke-width:0.5;" x="38.6375" xlink:href="#m728421d6d4" y="148.860982143"/>
      </g>
     </g>
     <g id="line2d_28">
      <g>
       <use style="stroke:#000000;stroke-width:0.5;" x="373.4375" xlink:href="#mcb0005524f" y="148.860982143"/>
      </g>
     </g>
     <g id="text_13">
      <!-- 2 -->
      <g transform="translate(30.009375 151.620357143)scale(0.1 -0.1)">
       <use xlink:href="#BitstreamVeraSans-Roman-32"/>
      </g>
     </g>
    </g>
    <g id="ytick_5">
     <g id="line2d_29">
      <g>
       <use style="stroke:#000000;stroke-width:0.5;" x="38.6375" xlink:href="#m728421d6d4" y="116.975267857"/>
      </g>
     </g>
     <g id="line2d_30">
      <g>
       <use style="stroke:#000000;stroke-width:0.5;" x="373.4375" xlink:href="#mcb0005524f" y="116.975267857"/>
      </g>
     </g>
     <g id="text_14">
      <!-- 3 -->
      <g transform="translate(29.8390625 119.734642857)scale(0.1 -0.1)">
       <use xlink:href="#BitstreamVeraSans-Roman-33"/>
      </g>
     </g>
    </g>
    <g id="ytick_6">
     <g id="line2d_31">
      <g>
       <use style="stroke:#000000;stroke-width:0.5;" x="38.6375" xlink:href="#m728421d6d4" y="85.0895535714"/>
      </g>
     </g>
     <g id="line2d_32">
      <g>
       <use style="stroke:#000000;stroke-width:0.5;" x="373.4375" xlink:href="#mcb0005524f" y="85.0895535714"/>
      </g>
     </g>
     <g id="text_15">
      <!-- 4 -->
      <defs>
       <path d="
M37.7969 64.3125
L12.8906 25.3906
L37.7969 25.3906
z

M35.2031 72.9062
L47.6094 72.9062
L47.6094 25.3906
L58.0156 25.3906
L58.0156 17.1875
L47.6094 17.1875
L47.6094 0
L37.7969 0
L37.7969 17.1875
L4.89062 17.1875
L4.89062 26.7031
z
" id="BitstreamVeraSans-Roman-34"/>
      </defs>
      <g transform="translate(29.325 87.8489285714)scale(0.1 -0.1)">
       <use xlink:href="#BitstreamVeraSans-Roman-34"/>
      </g>
     </g>
    </g>
    <g id="ytick_7">
     <g id="line2d_33">
      <g>
       <use style="stroke:#000000;stroke-width:0.5;" x="38.6375" xlink:href="#m728421d6d4" y="53.2038392857"/>
      </g>
     </g>
     <g id="line2d_34">
      <g>
       <use style="stroke:#000000;stroke-width:0.5;" x="373.4375" xlink:href="#mcb0005524f" y="53.2038392857"/>
      </g>
     </g>
     <g id="text_16">
      <!-- 5 -->
      <g transform="translate(29.9203125 55.9632142857)scale(0.1 -0.1)">
       <use xlink:href="#BitstreamVeraSans-Roman-35"/>
      </g>
     </g>
    </g>
    <g id="ytick_8">
     <g id="line2d_35">
      <g>
       <use style="stroke:#000000;stroke-width:0.5;" x="38.6375" xlink:href="#m728421d6d4" y="21.318125"/>
      </g>
     </g>
     <g id="line2d_36">
      <g>
       <use style="stroke:#000000;stroke-width:0.5;" x="373.4375" xlink:href="#mcb0005524f" y="21.318125"/>
      </g>
     </g>
     <g id="text_17">
      <!-- 6 -->
      <defs>
       <path d="
M33.0156 40.375
Q26.375 40.375 22.4844 35.8281
Q18.6094 31.2969 18.6094 23.3906
Q18.6094 15.5312 22.4844 10.9531
Q26.375 6.39062 33.0156 6.39062
Q39.6562 6.39062 43.5312 10.9531
Q47.4062 15.5312 47.4062 23.3906
Q47.4062 31.2969 43.5312 35.8281
Q39.6562 40.375 33.0156 40.375
M52.5938 71.2969
L52.5938 62.3125
Q48.875 64.0625 45.0938 64.9844
Q41.3125 65.9219 37.5938 65.9219
Q27.8281 65.9219 22.6719 59.3281
Q17.5312 52.7344 16.7969 39.4062
Q19.6719 43.6562 24.0156 45.9219
Q28.375 48.1875 33.5938 48.1875
Q44.5781 48.1875 50.9531 41.5156
Q57.3281 34.8594 57.3281 23.3906
Q57.3281 12.1562 50.6875 5.35938
Q44.0469 -1.42188 33.0156 -1.42188
Q20.3594 -1.42188 13.6719 8.26562
Q6.98438 17.9688 6.98438 36.375
Q6.98438 53.6562 15.1875 63.9375
Q23.3906 74.2188 37.2031 74.2188
Q40.9219 74.2188 44.7031 73.4844
Q48.4844 72.75 52.5938 71.2969" id="BitstreamVeraSans-Roman-36"/>
      </defs>
      <g transform="translate(29.603125 24.0775)scale(0.1 -0.1)">
       <use xlink:href="#BitstreamVeraSans-Roman-36"/>
      </g>
     </g>
    </g>
    <g id="text_18">
     <!-- PET (mm/day) -->
     <defs>
      <path d="
M52 44.1875
Q55.375 50.25 60.0625 53.125
Q64.75 56 71.0938 56
Q79.6406 56 84.2812 50.0156
Q88.9219 44.0469 88.9219 33.0156
L88.9219 0
L79.8906 0
L79.8906 32.7188
Q79.8906 40.5781 77.0938 44.375
Q74.3125 48.1875 68.6094 48.1875
Q61.625 48.1875 57.5625 43.5469
Q53.5156 38.9219 53.5156 30.9062
L53.5156 0
L44.4844 0
L44.4844 32.7188
Q44.4844 40.625 41.7031 44.4062
Q38.9219 48.1875 33.1094 48.1875
Q26.2188 48.1875 22.1562 43.5312
Q18.1094 38.875 18.1094 30.9062
L18.1094 0
L9.07812 0
L9.07812 54.6875
L18.1094 54.6875
L18.1094 46.1875
Q21.1875 51.2188 25.4844 53.6094
Q29.7812 56 35.6875 56
Q41.6562 56 45.8281 52.9688
Q50 49.9531 52 44.1875" id="BitstreamVeraSans-Roman-6d"/>
      <path d="
M8.01562 75.875
L15.8281 75.875
Q23.1406 64.3594 26.7812 53.3125
Q30.4219 42.2812 30.4219 31.3906
Q30.4219 20.4531 26.7812 9.375
Q23.1406 -1.70312 15.8281 -13.1875
L8.01562 -13.1875
Q14.5 -2 17.7031 9.0625
Q20.9062 20.125 20.9062 31.3906
Q20.9062 42.6719 17.7031 53.6562
Q14.5 64.6562 8.01562 75.875" id="BitstreamVeraSans-Roman-29"/>
      <path d="
M31 75.875
Q24.4688 64.6562 21.2812 53.6562
Q18.1094 42.6719 18.1094 31.3906
Q18.1094 20.125 21.3125 9.0625
Q24.5156 -2 31 -13.1875
L23.1875 -13.1875
Q15.875 -1.70312 12.2344 9.375
Q8.59375 20.4531 8.59375 31.3906
Q8.59375 42.2812 12.2031 53.3125
Q15.8281 64.3594 23.1875 75.875
z
" id="BitstreamVeraSans-Roman-28"/>
      <path d="
M19.6719 64.7969
L19.6719 37.4062
L32.0781 37.4062
Q38.9688 37.4062 42.7188 40.9688
Q46.4844 44.5312 46.4844 51.125
Q46.4844 57.6719 42.7188 61.2344
Q38.9688 64.7969 32.0781 64.7969
z

M9.8125 72.9062
L32.0781 72.9062
Q44.3438 72.9062 50.6094 67.3594
Q56.8906 61.8125 56.8906 51.125
Q56.8906 40.3281 50.6094 34.8125
Q44.3438 29.2969 32.0781 29.2969
L19.6719 29.2969
L19.6719 0
L9.8125 0
z
" id="BitstreamVeraSans-Roman-50"/>
      <path d="
M9.8125 72.9062
L55.9062 72.9062
L55.9062 64.5938
L19.6719 64.5938
L19.6719 43.0156
L54.3906 43.0156
L54.3906 34.7188
L19.6719 34.7188
L19.6719 8.29688
L56.7812 8.29688
L56.7812 0
L9.8125 0
z
" id="BitstreamVeraSans-Roman-45"/>
      <path d="
M-0.296875 72.9062
L61.375 72.9062
L61.375 64.5938
L35.5 64.5938
L35.5 0
L25.5938 0
L25.5938 64.5938
L-0.296875 64.5938
z
" id="BitstreamVeraSans-Roman-54"/>
      <path d="
M25.3906 72.9062
L33.6875 72.9062
L8.29688 -9.28125
L0 -9.28125
z
" id="BitstreamVeraSans-Roman-2f"/>
     </defs>
     <g transform="translate(14.7984375 167.82984375)rotate(-90.0)scale(0.1 -0.1)">
      <use xlink:href="#BitstreamVeraSans-Roman-50"/>
      <use x="60.302734375" xlink:href="#BitstreamVeraSans-Roman-45"/>
      <use x="123.486328125" xlink:href="#BitstreamVeraSans-Roman-54"/>
      <use x="184.5703125" xlink:href="#BitstreamVeraSans-Roman-20"/>
      <use x="216.357421875" xlink:href="#BitstreamVeraSans-Roman-28"/>
      <use x="255.37109375" xlink:href="#BitstreamVeraSans-Roman-6d"/>
      <use x="352.783203125" xlink:href="#BitstreamVeraSans-Roman-6d"/>
      <use x="450.1953125" xlink:href="#BitstreamVeraSans-Roman-2f"/>
      <use x="483.88671875" xlink:href="#BitstreamVeraSans-Roman-64"/>
      <use x="547.36328125" xlink:href="#BitstreamVeraSans-Roman-61"/>
      <use x="608.642578125" xlink:href="#BitstreamVeraSans-Roman-79"/>
      <use x="667.822265625" xlink:href="#BitstreamVeraSans-Roman-29"/>
     </g>
    </g>
   </g>
   <g id="text_19">
    <!-- daily grass PET at LDP -->
    <defs>
     <path d="
M9.8125 72.9062
L19.6719 72.9062
L19.6719 8.29688
L55.1719 8.29688
L55.1719 0
L9.8125 0
z
" id="BitstreamVeraSans-Roman-4c"/>
     <path d="
M44.2812 53.0781
L44.2812 44.5781
Q40.4844 46.5312 36.375 47.5
Q32.2812 48.4844 27.875 48.4844
Q21.1875 48.4844 17.8438 46.4375
Q14.5 44.3906 14.5 40.2812
Q14.5 37.1562 16.8906 35.375
Q19.2812 33.5938 26.5156 31.9844
L29.5938 31.2969
Q39.1562 29.25 43.1875 25.5156
Q47.2188 21.7812 47.2188 15.0938
Q47.2188 7.46875 41.1875 3.01562
Q35.1562 -1.42188 24.6094 -1.42188
Q20.2188 -1.42188 15.4531 -0.5625
Q10.6875 0.296875 5.42188 2
L5.42188 11.2812
Q10.4062 8.6875 15.2344 7.39062
Q20.0625 6.10938 24.8125 6.10938
Q31.1562 6.10938 34.5625 8.28125
Q37.9844 10.4531 37.9844 14.4062
Q37.9844 18.0625 35.5156 20.0156
Q33.0625 21.9688 24.7031 23.7812
L21.5781 24.5156
Q13.2344 26.2656 9.51562 29.9062
Q5.8125 33.5469 5.8125 39.8906
Q5.8125 47.6094 11.2812 51.7969
Q16.75 56 26.8125 56
Q31.7812 56 36.1719 55.2656
Q40.5781 54.5469 44.2812 53.0781" id="BitstreamVeraSans-Roman-73"/>
     <path d="
M19.6719 64.7969
L19.6719 8.10938
L31.5938 8.10938
Q46.6875 8.10938 53.6875 14.9375
Q60.6875 21.7812 60.6875 36.5312
Q60.6875 51.1719 53.6875 57.9844
Q46.6875 64.7969 31.5938 64.7969
z

M9.8125 72.9062
L30.0781 72.9062
Q51.2656 72.9062 61.1719 64.0938
Q71.0938 55.2812 71.0938 36.5312
Q71.0938 17.6719 61.125 8.82812
Q51.1719 0 30.0781 0
L9.8125 0
z
" id="BitstreamVeraSans-Roman-44"/>
     <path d="
M18.3125 70.2188
L18.3125 54.6875
L36.8125 54.6875
L36.8125 47.7031
L18.3125 47.7031
L18.3125 18.0156
Q18.3125 11.3281 20.1406 9.42188
Q21.9688 7.51562 27.5938 7.51562
L36.8125 7.51562
L36.8125 0
L27.5938 0
Q17.1875 0 13.2344 3.875
Q9.28125 7.76562 9.28125 18.0156
L9.28125 47.7031
L2.6875 47.7031
L2.6875 54.6875
L9.28125 54.6875
L9.28125 70.2188
z
" id="BitstreamVeraSans-Roman-74"/>
     <path d="
M41.1094 46.2969
Q39.5938 47.1719 37.8125 47.5781
Q36.0312 48 33.8906 48
Q26.2656 48 22.1875 43.0469
Q18.1094 38.0938 18.1094 28.8125
L18.1094 0
L9.07812 0
L9.07812 54.6875
L18.1094 54.6875
L18.1094 46.1875
Q20.9531 51.1719 25.4844 53.5781
Q30.0312 56 36.5312 56
Q37.4531 56 38.5781 55.875
Q39.7031 55.7656 41.0625 55.5156
z
" id="BitstreamVeraSans-Roman-72"/>
     <path d="
M45.4062 27.9844
Q45.4062 37.75 41.375 43.1094
Q37.3594 48.4844 30.0781 48.4844
Q22.8594 48.4844 18.8281 43.1094
Q14.7969 37.75 14.7969 27.9844
Q14.7969 18.2656 18.8281 12.8906
Q22.8594 7.51562 30.0781 7.51562
Q37.3594 7.51562 41.375 12.8906
Q45.4062 18.2656 45.4062 27.9844
M54.3906 6.78125
Q54.3906 -7.17188 48.1875 -13.9844
Q42 -20.7969 29.2031 -20.7969
Q24.4688 -20.7969 20.2656 -20.0938
Q16.0625 -19.3906 12.1094 -17.9219
L12.1094 -9.1875
Q16.0625 -11.3281 19.9219 -12.3438
Q23.7812 -13.375 27.7812 -13.375
Q36.625 -13.375 41.0156 -8.76562
Q45.4062 -4.15625 45.4062 5.17188
L45.4062 9.625
Q42.625 4.78125 38.2812 2.39062
Q33.9375 0 27.875 0
Q17.8281 0 11.6719 7.65625
Q5.51562 15.3281 5.51562 27.9844
Q5.51562 40.6719 11.6719 48.3281
Q17.8281 56 27.875 56
Q33.9375 56 38.2812 53.6094
Q42.625 51.2188 45.4062 46.3906
L45.4062 54.6875
L54.3906 54.6875
z
" id="BitstreamVeraSans-Roman-67"/>
    </defs>
    <g transform="translate(139.3559375 16.318125)scale(0.12 -0.12)">
     <use xlink:href="#BitstreamVeraSans-Roman-64"/>
     <use x="63.4765625" xlink:href="#BitstreamVeraSans-Roman-61"/>
     <use x="124.755859375" xlink:href="#BitstreamVeraSans-Roman-69"/>
     <use x="152.5390625" xlink:href="#BitstreamVeraSans-Roman-6c"/>
     <use x="180.322265625" xlink:href="#BitstreamVeraSans-Roman-79"/>
     <use x="239.501953125" xlink:href="#BitstreamVeraSans-Roman-20"/>
     <use x="271.2890625" xlink:href="#BitstreamVeraSans-Roman-67"/>
     <use x="334.765625" xlink:href="#BitstreamVeraSans-Roman-72"/>
     <use x="375.87890625" xlink:href="#BitstreamVeraSans-Roman-61"/>
     <use x="437.158203125" xlink:href="#BitstreamVeraSans-Roman-73"/>
     <use x="489.2578125" xlink:href="#BitstreamVeraSans-Roman-73"/>
     <use x="541.357421875" xlink:href="#BitstreamVeraSans-Roman-20"/>
     <use x="573.14453125" xlink:href="#BitstreamVeraSans-Roman-50"/>
     <use x="633.447265625" xlink:href="#BitstreamVeraSans-Roman-45"/>
     <use x="696.630859375" xlink:href="#BitstreamVeraSans-Roman-54"/>
     <use x="757.71484375" xlink:href="#BitstreamVeraSans-Roman-20"/>
     <use x="789.501953125" xlink:href="#BitstreamVeraSans-Roman-61"/>
     <use x="850.78125" xlink:href="#BitstreamVeraSans-Roman-74"/>
     <use x="889.990234375" xlink:href="#BitstreamVeraSans-Roman-20"/>
     <use x="921.77734375" xlink:href="#BitstreamVeraSans-Roman-4c"/>
     <use x="977.490234375" xlink:href="#BitstreamVeraSans-Roman-44"/>
     <use x="1054.4921875" xlink:href="#BitstreamVeraSans-Roman-50"/>
    </g>
   </g>
   <g id="legend_1">
    <g id="patch_7">
     <path d="
M295.374 101.373
L367.438 101.373
L367.438 27.3181
L295.374 27.3181
z
" style="fill:#ffffff;stroke:#000000;stroke-linejoin:miter;"/>
    </g>
    <g id="line2d_37">
     <path d="
M303.774 37.0363
L320.574 37.0363" style="fill:none;stroke:#0000ff;stroke-linecap:square;"/>
    </g>
    <g id="line2d_38"/>
    <g id="text_20">
     <!-- 2010 -->
     <g transform="translate(333.77375 41.23625)scale(0.12 -0.12)">
      <use xlink:href="#BitstreamVeraSans-Roman-32"/>
      <use x="63.623046875" xlink:href="#BitstreamVeraSans-Roman-30"/>
      <use x="127.24609375" xlink:href="#BitstreamVeraSans-Roman-31"/>
      <use x="190.869140625" xlink:href="#BitstreamVeraSans-Roman-30"/>
     </g>
    </g>
    <g id="line2d_39">
     <path d="
M303.774 54.65
L320.574 54.65" style="fill:none;stroke:#008000;stroke-linecap:square;"/>
    </g>
    <g id="line2d_40"/>
    <g id="text_21">
     <!-- 2011 -->
     <g transform="translate(333.77375 58.85)scale(0.12 -0.12)">
      <use xlink:href="#BitstreamVeraSans-Roman-32"/>
      <use x="63.623046875" xlink:href="#BitstreamVeraSans-Roman-30"/>
      <use x="127.24609375" xlink:href="#BitstreamVeraSans-Roman-31"/>
      <use x="190.869140625" xlink:href="#BitstreamVeraSans-Roman-31"/>
     </g>
    </g>
    <g id="line2d_41">
     <path d="
M303.774 72.2638
L320.574 72.2638" style="fill:none;stroke:#ff0000;stroke-linecap:square;"/>
    </g>
    <g id="line2d_42"/>
    <g id="text_22">
     <!-- 2012 -->
     <g transform="translate(333.77375 76.46375)scale(0.12 -0.12)">
      <use xlink:href="#BitstreamVeraSans-Roman-32"/>
      <use x="63.623046875" xlink:href="#BitstreamVeraSans-Roman-30"/>
      <use x="127.24609375" xlink:href="#BitstreamVeraSans-Roman-31"/>
      <use x="190.869140625" xlink:href="#BitstreamVeraSans-Roman-32"/>
     </g>
    </g>
    <g id="line2d_43">
     <path d="
M303.774 89.8775
L320.574 89.8775" style="fill:none;stroke:#00bfbf;stroke-linecap:square;"/>
    </g>
    <g id="line2d_44"/>
    <g id="text_23">
     <!-- 2013 -->
     <g transform="translate(333.77375 94.0775)scale(0.12 -0.12)">
      <use xlink:href="#BitstreamVeraSans-Roman-32"/>
      <use x="63.623046875" xlink:href="#BitstreamVeraSans-Roman-30"/>
      <use x="127.24609375" xlink:href="#BitstreamVeraSans-Roman-31"/>
      <use x="190.869140625" xlink:href="#BitstreamVeraSans-Roman-33"/>
     </g>
    </g>
   </g>
  </g>
 </g>
 <defs>
  <clipPath id="pa986dbe5e9">
   <rect height="223.2" width="334.8" x="38.6375" y="21.318125"/>
  </clipPath>
 </defs>
</svg>
