<?xml version="1.0" encoding="utf-8" standalone="no"?>
<!DOCTYPE svg PUBLIC "-//W3C//DTD SVG 1.1//EN"
  "http://www.w3.org/Graphics/SVG/1.1/DTD/svg11.dtd">
<!-- Created with matplotlib (http://matplotlib.org/) -->
<svg height="280pt" version="1.1" viewBox="0 0 373 280" width="373pt" xmlns="http://www.w3.org/2000/svg" xmlns:xlink="http://www.w3.org/1999/xlink">
 <defs>
  <style type="text/css">
*{stroke-linecap:butt;stroke-linejoin:round;}
  </style>
 </defs>
 <g id="figure_1">
  <g id="patch_1">
   <path d="
M0 280.074
L373.191 280.074
L373.191 0
L0 0
z
" style="fill:#ffffff;"/>
  </g>
  <g id="axes_1">
   <g id="patch_2">
    <path d="
M31.1906 244.518
L365.991 244.518
L365.991 21.3181
L31.1906 21.3181
z
" style="fill:#ffffff;"/>
   </g>
   <g id="line2d_1">
    <path clip-path="url(#pc1a11fcac8)" d="
M0 0" style="fill:none;stroke:#0000ff;stroke-linecap:square;"/>
   </g>
   <g id="line2d_2">
    <path clip-path="url(#pc1a11fcac8)" d="
M0 0" style="fill:none;stroke:#008000;stroke-linecap:square;"/>
   </g>
   <g id="line2d_3">
    <path clip-path="url(#pc1a11fcac8)" d="
M0 0" style="fill:none;stroke:#ff0000;stroke-linecap:square;"/>
   </g>
   <g id="line2d_4">
    <path clip-path="url(#pc1a11fcac8)" d="
M33.0251 230.553
L33.9424 139.678
L34.8597 231.971
L35.7769 216.944
L36.6942 220.21
L37.6114 124.138
L38.5287 150.343
L39.446 209.118
L40.3632 167.997
L41.2805 180.993
L42.1977 226.307
L43.115 220.368
L44.0323 131.587
L44.9495 169.977
L45.8668 175.245
L46.784 229.708
L47.7013 226.847
L48.6186 218.801
L49.5358 205.988
L50.4531 178.691
L51.3704 227.624
L52.2876 232.985
L53.2049 227.09
L54.1221 226.892
L55.0394 233.564
M56.8739 211.081
L57.7912 189.273
L58.7084 228.526
L59.6257 227.787
L60.543 208.442
L61.4602 207.807
L62.3775 218.222
L63.2947 222.934
L64.212 223.655
L65.1293 214.397
L66.0465 214.085
L66.9638 188.213
L67.881 183.329
L68.7983 225.458
L69.7156 210.102
L70.6328 228.095
L71.5501 210.734
L72.4673 241.602
L73.3846 237.274
L74.3019 235.774
L75.2191 239.104
L76.1364 212.182
L77.0536 204.994
L77.9709 203.473
L78.8882 119.048
L79.8054 114.567
L80.7227 197.725
L81.6399 221.186
L82.5572 170.004
L84.3917 205.023
L85.309 169.358
L86.2262 159.847
L87.1435 196.516
L88.0608 185.052
L88.978 200.174
L89.8953 185.076
L90.8125 162.696
L91.7298 202.281
L92.6471 196.118
L93.5643 147.802
L94.4816 143.95
L95.3988 154.877
L96.3161 217.215
L97.2334 185.101
L98.1506 133.915
L99.0679 131.772
L99.9851 143.226
L100.902 151.952
L101.82 97.2311
L102.737 109.885
L103.654 160.131
L104.571 198.357
L105.489 144.255
L106.406 124.398
L108.24 202.168
L109.158 176.804
L110.075 110.973
L111.91 210.201
L112.827 182.395
L113.744 212.579
L114.661 207.554
L115.579 180.747
L116.496 177.411
L117.413 181.054
L118.33 171.907
L119.248 178.127
L120.165 165.247
L121.082 115.059
L121.999 115.268
L122.917 114.13
L123.834 176.842
L124.751 204.231
L125.668 143.272
L126.586 110.278
L127.503 127.962
L128.42 129.18
L129.337 102.805
L130.255 87.8931
L131.172 149.574
L132.089 198.606
L133.007 184.124
L133.924 78.2062
L134.841 63.2145
L135.758 57.0945
L136.676 67.2277
L137.593 180.087
L138.51 176.326
L139.427 173.932
L140.345 197.757
L141.262 179.865
L142.179 117.044
L143.096 158.023
L144.014 72.5923
L144.931 87.5668
L145.848 119.486
L146.765 30.6331
L147.683 73.4562
L148.6 62.3752
L149.517 161.022
L150.434 114.272
L151.352 57.3374
L152.269 87.3034
L153.186 61.003
L154.104 69.1175
L155.021 88.7699
L156.855 193.884
L157.773 125.662
L158.69 111.869
L159.607 114.828
L160.524 226.487
L161.442 166.329
L162.359 129.906
L163.276 88.9484
L164.193 159.745
L165.111 162.641
L166.028 159.158
L166.945 154.175
L167.862 88.099
L168.78 176.532
L169.697 173.897
L170.614 206.364
L171.531 133.88
L172.449 212.429
L173.366 146.541
L174.283 195.519
L175.2 122.855
L176.118 105.134
L177.035 150.855
L177.952 181.7
L178.87 106.945
L179.787 71.0437
L180.704 78.7848
L181.621 90.979
L182.539 108.59
L183.456 101.986
L184.373 130.335
L185.29 64.3879
L186.208 91.3476
L187.125 147.899
L188.042 148.692
L188.959 92.0336
L189.877 85.6089
L190.794 130.648
L191.711 145.932
L192.628 101.939
L193.546 99.8812
L194.463 115.383
L195.38 150.701
L196.297 120.438
L197.215 108.367
L198.132 117.486
L199.049 136.293
L199.967 88.4953
L200.884 96.0216
L201.801 95.2085
L202.718 90.0797
L203.636 95.0936
L204.553 107.37
L205.47 108.635
L206.387 108.688
L207.305 103.058
L208.222 60.6079
L209.139 80.3538
L210.056 86.1686
L210.974 103.947
L211.891 96.1556
L212.808 95.5223
L213.725 85.1665
L214.643 91.6487
L215.56 82.3941
L216.477 32.3842
L217.394 24.7083
L218.312 45.8855
L219.229 49.2517
L220.146 111.837
L221.064 46.1212
L221.981 65.2042
L222.898 53.7519
L223.815 84.3878
L224.733 58.7043
L225.65 36.7966
L226.567 40.2524
L227.484 70.9047
L228.402 107.679
L230.236 127.961
L231.153 111.124
L232.071 116.926
L232.988 125.712
L233.905 146.125
L234.822 176.014
L235.74 134.013
L236.657 109.644
L237.574 115.877
L238.491 105.897
L239.409 109.702
L240.326 108.859
L241.243 113.21
L242.16 99.9899
L243.078 97.1031
L243.995 98.882
L244.912 90.7991
L245.83 101.497
L246.747 92.5225
L247.664 104.344
L248.581 128.428
L249.499 90.1639
L250.416 100.535
L251.333 184.943
L252.25 140.547
L253.168 153.256
L254.085 151.377
L255.002 112.504
L255.919 101.136
L256.837 114.614
L257.754 105.749
L258.671 79.1507
L259.588 76.6879
L260.506 162.009
L261.423 222.055
L262.34 151.258
L263.257 97.4094
L264.175 95.8288
L265.092 105.862
L266.009 112.147
L266.927 110.337
L267.844 102.218
L268.761 116.567
L269.678 108.098
L270.596 141.16
L271.513 148.595
L272.43 111.832
L273.347 99.8388
L274.265 104.413
L275.182 98.6673
L276.099 113.116
L277.016 109.169
L277.934 107.202
L278.851 114.788
L279.768 119.091
L280.685 107.695
L281.603 120.486
L282.52 122.141
L283.437 152.076
L284.354 208.908
L285.272 190.399
L286.189 167.022
L287.106 152.146
L288.024 204.974
L288.941 164.423
L289.858 167.99
L290.775 162.742
L291.693 103.858
L292.61 99.8801
L293.527 99.8795
L294.444 115.896
L295.362 144.485
L296.279 121.884
L297.196 85.0987
L298.113 77.9059
L299.031 98.7005
L299.948 110.246
L300.865 111.351
L301.782 184.425
L302.7 225.359
L303.617 196.728
L304.534 209.694
L305.451 175.029
L306.369 103.193
L307.286 105.167
L308.203 131.151
L309.12 189.387
L310.038 156.555
L310.955 138.523
L311.872 138.669
L312.79 118.903
L313.707 137.223
L314.624 139.789
L315.541 191.797
L316.459 203.133
L317.376 158.099
L318.293 218.178
L319.21 213.534
L320.128 184.333
L321.045 180.802
L321.962 219.686
L322.879 222.351
M325.631 147.365
L326.548 204.535
L327.466 222.475
L328.383 200.292
L329.3 215.886
L330.217 205.174
L331.135 203.246
L332.052 170.45
L332.969 164.487
L333.887 173.575
L334.804 222.658
L335.721 198.16
L336.638 149.386
L337.556 227.869
L338.473 234.063
L339.39 197.469
L340.307 225.524
L341.225 219.02
L342.142 198.373
L343.059 221.396
L343.976 175.025
L344.894 206.33
L345.811 195.413
L346.728 215.836
L347.645 208.168
L348.563 192.985
L349.48 203.693
L350.397 204.621
L351.314 181.954
L352.232 152.28
L353.149 194.906
L354.066 222.062
L354.984 203.546
L355.901 191.739
L356.818 217.014
L357.735 208.101
L358.653 167.189
L359.57 92.9916
L360.487 172.574
L361.404 206.944
L362.322 212.629
L363.239 219.159
L364.156 209.065
L365.073 230.429
L365.073 230.429" style="fill:none;stroke:#00bfbf;stroke-linecap:square;"/>
   </g>
   <g id="line2d_5">
    <path clip-path="url(#pc1a11fcac8)" d="
M31.1906 192.949
L32.1079 176.582
L33.0251 224.842
L33.9424 221.595
L34.8597 173.119
L35.7769 148.297
L36.6942 154.37
L37.6114 198.169
L38.5287 210.835
L39.446 213.027
L40.3632 180.977
L41.2805 187.739
L42.1977 228.849
L43.115 217.604
L44.0323 221.575
L44.9495 235.097
L46.784 217.247
L47.7013 222.026
L48.6186 169.653
L49.5358 206.169
L50.4531 233.431
L51.3704 174.816
L52.2876 212.087
L53.2049 229.127
L54.1221 197.934
L55.0394 181.767
L55.9567 186.605
L56.8739 192.611
L57.7912 215.136
L58.7084 197.562
L59.6257 149.027
L60.543 122.298
L61.4602 150.812
L62.3775 209.595
L63.2947 210.42
L64.212 187.249
L65.1293 201.706
L66.0465 196.201
L66.9638 205.352
L67.881 186.324
L69.7156 140.919
L70.6328 135.687
L71.5501 140.156
L72.4673 148.311
L73.3846 173.309
L74.3019 201.586
L75.2191 207.774
L76.1364 196.059
L77.0536 218.428
L77.9709 227.665
L78.8882 213.068
L79.8054 186.906
L80.7227 172.376
L81.6399 189.558
L82.5572 159.696
L83.4745 174.455
L84.3917 148.374
L85.309 147.218
L86.2262 192.201
L87.1435 194.959
L88.0608 204.816
L88.978 194.961
L89.8953 204.495
L90.8125 202.036
L91.7298 228.687
L93.5643 181.653
L94.4816 207.223
L95.3988 206.68
L96.3161 206.29
L97.2334 195.863
L98.1506 200.04
L99.0679 237.231
L99.9851 219.794
L100.902 181.315
L101.82 203.862
L102.737 189.609
L103.654 214.958
L104.571 218.639
L105.489 187.61
L106.406 199.092
L107.323 198.906
L108.24 229.336
L109.158 219.407
L110.075 205.696
L110.992 209.515
L111.91 214.114
L112.827 179.959
L113.744 169.168
L114.661 193.313
L116.496 146.604
L117.413 194.641
L118.33 191.027
L119.248 193.032
L120.165 183.606
L121.082 198.404
L121.999 171.885
L122.917 197.985
L123.834 165.849
L124.751 195.679
L125.668 175.855
L126.586 180.525
L127.503 194.087
L128.42 177.703
L129.337 190.26
L130.255 119.629
L131.172 167.771
L132.089 209.789
L133.007 156.244
L133.924 135.96
L135.758 199.857
L136.676 186.301
L137.593 156.691
L138.51 187.436
L139.427 173.198
L140.345 165.745
L141.262 139.294
L142.179 160.41
L143.096 150.174
L144.014 138.382
L144.931 118.989
L145.848 180.781
L146.765 164.94
L147.683 198.072
L148.6 153.169
L149.517 96.671
L150.434 98.048
L151.352 116.462
L152.269 108.277
L153.186 156.84
L154.104 195.726
L155.021 195.585
L155.938 156.192
L156.855 166.86
L157.773 80.7473
L159.607 156.585
L160.524 125.597
L161.442 163.675
L163.276 133.837
L164.193 177.468
L165.111 203.098
L166.028 166.158
L166.945 210.725
L167.862 169.566
L168.78 142.648
L169.697 132.42
L170.614 182.501
L171.531 119.468
L172.449 86.823
L173.366 119.738
L174.283 173.957
L175.2 184.007
L176.118 109.963
L177.035 120.305
L177.952 136.395
L179.787 152.615
L180.704 168.52
L181.621 98.7649
L182.539 67.5129
L183.456 115.98
L184.373 80.0888
L185.29 170.308
L186.208 161.795
L187.125 122.064
L188.042 113.164
L188.959 112.846
L189.877 113.204
L190.794 92.2361
L191.711 68.689
L192.628 74.486
L193.546 105.851
L194.463 117.669
L195.38 148.33
L196.297 129.714
L197.215 93.8404
L198.132 105.243
L199.049 111.349
L199.967 124.408
L200.884 118.003
L201.801 115.006
L202.718 152.471
L203.636 113.462
L204.553 89.9272
L205.47 113.963
L206.387 125.481
L207.305 127.462
L208.222 135.609
L209.139 149.194
L210.056 113.597
L210.974 128.431
L211.891 117.826
L212.808 114.382
L213.725 116.703
L214.643 112.655
L215.56 106.417
L216.477 115.798
L217.394 100.084
L218.312 123.558
L219.229 113.869
L220.146 123.583
L221.064 114.084
L221.981 106.825
L222.898 114.879
L223.815 136.647
L224.733 152.817
L225.65 135.087
L227.484 126.662
L228.402 148.633
L229.319 124.407
L230.236 119.846
L231.153 132.57
L232.071 121.943
L232.988 117.947
L233.905 116.674
L234.822 108.732
L235.74 112.034
L236.657 121.938
L238.491 106.586
L239.409 111.581
L240.326 118.541
L241.243 115.903
L242.16 109.211
L243.078 126.759
L243.995 137.238
L244.912 128.346
L245.83 124.076
L246.747 131.321
L247.664 135.759
L248.581 133.549
L249.499 150.539
L250.416 138.291
L251.333 132.28
L252.25 122.469
L253.168 110.756
L254.085 107.838
L255.002 107.878
L255.919 111.399
L256.837 109.974
L257.754 116.851
L258.671 130.415
L259.588 129.357
L260.506 129.645
L261.423 135.473
L262.34 131.137
L263.257 152.448
L264.175 139.102
L265.092 144.435
L266.009 133.834
L266.927 183.634
L267.844 208.376
L268.761 114.195
L269.678 114.193
L270.596 129.276
L271.513 123.455
L272.43 113.828
L273.347 126.989
L274.265 128.916
L275.182 128.855
L276.099 144.033
L277.016 131.158
L277.934 127.664
L278.851 128.677
L279.768 121.232
L280.685 141.379
L282.52 134.039
L283.437 141.706
L284.354 199.675
L285.272 221.952
L286.189 230.601
L287.106 232.045
L288.024 171.313
L288.941 140.068
L289.858 196.968
L290.775 174.37
L291.693 141.998
L292.61 125.925
L293.527 132.883
L294.444 159.435
L295.362 208.895
L296.279 142.574
L297.196 120.371
L298.113 148.329
L299.031 134.449
L299.948 146.684
L300.865 164.408
L301.782 149.584
L302.7 187.31
L303.617 109.646
L304.534 73.6734
L305.451 94.2481
L306.369 108.366
L307.286 128.169
L308.203 152.709
L309.12 172.971
L310.955 90.4808
L311.872 106.181
L312.79 172.242
L313.707 217.522
L314.624 217.129
L315.541 193.461
L316.459 175.185
L317.376 139.543
L318.293 114.122
L320.128 186.842
L321.045 190.975
L321.962 164.672
L323.797 141.546
L324.714 201.523
L325.631 215.17
L326.548 199.723
L327.466 164.538
L329.3 194.852
L330.217 144.175
L331.135 174.951
L332.052 171.507
L332.969 85.0585
L333.887 101.835
L334.804 164.684
L335.721 204.978
L336.638 188.738
L337.556 120.701
L338.473 123.844
L339.39 140.454
L340.307 159.595
L341.225 140.093
L342.142 123.489
L343.059 134.477
L343.976 129.058
L344.894 110.202
L345.811 132.651
L346.728 139.24
L347.645 138.393
L348.563 150.093
L349.48 155.44
L350.397 174.47
L351.314 179.128
L352.232 167.832
L353.149 160.819
L354.066 136.096
L354.984 130.299
L355.901 155.479
L356.818 75.2313
L357.735 84.6742
L358.653 97.8348
L359.57 118.226
L360.487 132.505
L361.404 163.735
L362.322 220.228
L363.239 192.791
L364.156 220.622
L365.073 177.919
L365.073 177.919" style="fill:none;stroke:#bf00bf;stroke-linecap:square;"/>
   </g>
   <g id="line2d_6">
    <path clip-path="url(#pc1a11fcac8)" d="
M31.1906 105.983
L32.1079 128.208
L33.0251 125.195
L33.9424 109.44
L34.8597 148.605
L36.6942 171.003
L37.6114 170.321
L38.5287 166.246
L39.446 194.062
L40.3632 150.387
L41.2805 114.845
L42.1977 69.1027
L43.115 83.1653
L44.0323 141.577
L44.9495 156.336
L45.8668 111.005
L46.784 167.512
L47.7013 234.305
L48.6186 234.2
L49.5358 229.45
L50.4531 202.607
L51.3704 223.623
L52.2876 194.964
L53.2049 202.843
L54.1221 206.178
L55.0394 177.747
L56.8739 104.405
L57.7912 195.701
L58.7084 162.594
L59.6257 184.828
L60.543 215.052
L61.4602 182.966
L62.3775 159.856
L63.2947 159.061
L64.212 159.019
L65.1293 125.684
L66.0465 182.793
L66.9638 211.106
L67.881 200.567
L68.7983 208.353
L69.7156 224.085
L70.6328 198.788
L71.5501 200.567
L72.4673 210.85
L73.3846 162.128
L74.3019 176.747
L75.2191 196.745
L76.1364 168.151
L77.0536 173.708
L77.9709 222.98
L79.8054 168.712
L80.7227 128.631
L81.6399 180.914
L82.5572 164.556
L83.4745 144.661
L84.3917 153.648
L85.309 175.621
L86.2262 189.684
L87.1435 185.286
L88.0608 206.845
L88.978 178.256
L89.8953 140.946
L90.8125 192.09
L91.7298 133.927
L92.6471 127.148
L93.5643 121.651
L94.4816 109.762
L95.3988 161.88
L96.3161 172.428
L97.2334 174.064
L98.1506 230.389
L99.0679 205.822
L99.9851 197.262
L100.902 185.811
L101.82 211.198
L102.737 176.363
L103.654 193.11
L104.571 185.512
L105.489 136.189
L106.406 158.729
L107.323 118.955
L108.24 170.269
L109.158 212.435
L110.075 156.417
L110.992 195.71
L111.91 194.118
L112.827 215.456
L113.744 141.259
L114.661 153.438
L115.579 164.027
L116.496 114.948
L117.413 159.676
L118.33 151.97
L119.248 161.989
L120.165 87.9551
L121.082 59.8837
L121.999 84.1796
L122.917 81.9873
L123.834 158.815
L124.751 108.566
L125.668 155.999
L126.586 89.6715
L127.503 67.1376
L128.42 165.697
L129.337 123.316
L130.255 146.517
L131.172 177.562
L132.089 131.096
L133.007 94.751
L133.924 101.823
L134.841 141.178
L135.758 136.035
L136.676 155.48
L137.593 216.532
L138.51 152.382
L140.345 84.4933
L141.262 179.556
L142.179 111.028
L143.096 101.257
L144.014 169.733
L144.931 180.312
L145.848 130.484
L146.765 97.3329
L147.683 69.1837
L148.6 79.5726
L149.517 99.9074
L150.434 60.4061
L151.352 59.4401
L152.269 67.7879
L153.186 79.3244
L154.104 99.967
L155.021 135.388
L155.938 92.3118
L156.855 122.116
L158.69 59.2141
L159.607 83.9777
L160.524 153.627
L161.442 147.484
L162.359 156.832
L163.276 108.689
L164.193 184.372
L165.111 197.105
L166.028 154.592
L166.945 85.318
L167.862 88.5376
L168.78 84.9703
L169.697 104.445
L170.614 101.53
L171.531 127.277
L172.449 123.272
L173.366 147.15
L174.283 177.148
L175.2 96.5669
L176.118 113.379
L177.035 126.547
L177.952 165.375
L179.787 66.0131
L180.704 117.667
L181.621 104.372
L182.539 62.4229
L183.456 141.653
L184.373 96.7776
L185.29 100.23
L186.208 89.7622
L187.125 123.865
L188.042 78.8127
L188.959 95.7305
L189.877 161.307
L190.794 105.654
L191.711 96.5408
L192.628 91.8199
L193.546 112.261
L194.463 78.2932
L195.38 100.068
L196.297 100.249
L197.215 109.291
L198.132 137.218
L199.049 112.876
L199.967 102.496
L200.884 96.3856
L201.801 117.647
L202.718 124.218
L203.636 120.494
L204.553 154.428
L205.47 126.359
L206.387 125.205
L207.305 133.484
L208.222 124.783
L209.139 152.6
L210.056 171.008
L210.974 150.143
L211.891 141.866
L212.808 118.622
L213.725 114.985
L214.643 126.073
L215.56 111.997
L216.477 112.688
L217.394 118.501
L218.312 115.08
L219.229 110.157
L220.146 123.529
L221.064 119.319
L221.981 123.663
L223.815 118.888
L224.733 117.428
L225.65 119.088
L226.567 109.436
L227.484 103.487
L228.402 109.279
L229.319 111.548
L230.236 120.64
L231.153 122.559
L232.988 131.392
L233.905 130.441
L234.822 143.436
L235.74 120.848
L236.657 127.095
L237.574 125.852
L238.491 124.105
L239.409 120.936
L240.326 126.397
L241.243 124.244
L242.16 121.565
L243.078 147.241
L243.995 128.144
L244.912 133.907
L245.83 122.343
L246.747 113.957
L247.664 84.1514
L248.581 100.969
L249.499 136.19
L250.416 141.585
L251.333 122.676
L252.25 114.821
L253.168 109.756
L254.085 137.052
L255.002 124.348
L255.919 90.6859
L256.837 99.9016
L257.754 103.161
L258.671 113.294
L259.588 133.733
L260.506 106.414
L261.423 108.985
L262.34 129.361
L263.257 110.507
L264.175 103.55
L265.092 77.1719
L266.009 103.469
L266.927 110.667
L267.844 110.899
L268.761 114.139
L269.678 106.829
L270.596 111.731
L271.513 119.319
L272.43 125.404
L273.347 125.67
L274.265 120.332
L275.182 184.286
L276.099 151.107
L277.016 150.956
L277.934 138.774
L278.851 119.867
L279.768 130.5
L280.685 128.278
L281.603 124.595
L282.52 119.418
L283.437 113.136
L284.354 76.5025
L285.272 79.1807
L287.106 71.5752
L288.024 81.0944
L288.941 82.1599
L289.858 102.646
L290.775 112.065
L291.693 112.278
L292.61 111.846
L293.527 179.716
L294.444 152.884
L295.362 162.532
L296.279 161.254
L297.196 119.824
L298.113 110.042
L299.031 136.71
L299.948 176.451
L300.865 123.911
L301.782 200.391
L302.7 181.982
L303.617 197.457
L305.451 141.112
L306.369 181.801
M308.203 145.732
L309.12 145.083
L310.038 126.362
L310.955 168.569
L311.872 151.656
L312.79 158.74
L313.707 153.126
L314.624 177.053
L315.541 151.587
L316.459 166.278
L318.293 208.57
L319.21 196.549
L320.128 194.29
L321.045 172.403
M322.879 200.164
L323.797 158.558
L325.631 204.039
L326.548 178.165
L327.466 199.903
L328.383 193.72
L329.3 196.84
L330.217 159.52
L331.135 116.24
L332.052 175.384
L332.969 197.16
L333.887 172.869
L334.804 158.199
L335.721 177.679
L336.638 192.432
L337.556 204.904
L338.473 203.45
L339.39 212.833
L340.307 161.233
L341.225 192.616
L342.142 218.44
L343.976 181.376
L344.894 200.824
L345.811 140.362
L346.728 214.895
L347.645 179.878
L348.563 227.238
L349.48 194.784
L350.397 227.362
L351.314 217.872
L353.149 194.954
L354.066 203.839
L354.984 184.205
L355.901 117.17
L356.818 98.3525
L357.735 161.497
L358.653 206.87
L359.57 217.666
L360.487 171.155
L361.404 201.964
L362.322 210.079
L363.239 212.782
L364.156 187.169
L365.073 221.714
L365.073 221.714" style="fill:none;stroke:#bfbf00;stroke-linecap:square;"/>
   </g>
   <g id="line2d_7">
    <path clip-path="url(#pc1a11fcac8)" d="
M31.1906 202.452
L32.1079 204.544
L33.9424 139.243
L34.8597 183.09
L35.7769 171.853
L36.6942 207.075
L37.6114 233.444
M40.3632 240.941
L41.2805 240.708
L42.1977 232.975
L43.115 205.965
L44.0323 232.834
L44.9495 204.917
L45.8668 157.298
L46.784 129.377
L47.7013 137.127
L48.6186 127.019
L49.5358 127.259
L50.4531 131.688
L51.3704 121.729
L52.2876 191.477
L53.2049 232.784
L54.1221 230.775
L55.0394 238.883
L55.9567 231.769
L56.8739 233.247
L57.7912 235.435
L58.7084 242.052
L59.6257 232.914
L60.543 220.065
L61.4602 203.099
L62.3775 180.672
L63.2947 182.642
L64.212 204.085
L65.1293 191.533
L66.0465 212.522
L66.9638 200.576
L67.881 177.584
L68.7983 160.221
L69.7156 207.663
L70.6328 212.972
L71.5501 205.546
L72.4673 192.568
L73.3846 197.966
L74.3019 209.102
L75.2191 153.618
L76.1364 184.83
L77.0536 196.429
L77.9709 179.476
L78.8882 222.522
L79.8054 217.6
L81.6399 200.543
L82.5572 196.141
L83.4745 167.608
L84.3917 196.712
L85.309 207.017
L86.2262 199.728
L87.1435 184.04
L88.0608 136.013
L88.978 144.071
L89.8953 186.731
L90.8125 176.425
L91.7298 152.952
L92.6471 140.263
L93.5643 114.222
L94.4816 193.492
L95.3988 185.567
L96.3161 148.112
L97.2334 140.081
L98.1506 149.593
L99.0679 164.118
L99.9851 156.579
L100.902 152.117
L101.82 80.9909
L102.737 170.597
L103.654 157.321
L104.571 181.635
L106.406 105.741
L107.323 104.303
L108.24 186.282
L109.158 163.386
L110.075 129.601
L110.992 132.852
L111.91 114.905
L112.827 120.459
L113.744 149.027
L114.661 125.399
L115.579 113.804
L116.496 170.283
L117.413 171.008
L118.33 198.161
L119.248 191.916
L120.165 137.866
L121.082 98.044
L121.999 160.324
L122.917 113.027
L123.834 81.1573
L124.751 161.338
L125.668 125.812
L126.586 129.183
L127.503 96.7145
L128.42 59.6113
L129.337 63.634
L130.255 196.742
L131.172 156.612
L132.089 125.995
L134.841 60.047
L135.758 72.4801
L136.676 92.0206
L137.593 104.3
L138.51 85.6092
L139.427 130.669
L140.345 106.732
L141.262 68.4306
L142.179 58.7295
L143.096 85.6165
L144.014 139.449
L144.931 101.646
L145.848 144.507
L146.765 145.724
L147.683 139.984
L148.6 123.073
L149.517 117.699
L150.434 121.031
L151.352 122.605
L152.269 122.183
L153.186 110.11
L154.104 114.299
L155.938 191.314
L156.855 133.296
L157.773 157.696
L158.69 101.68
L159.607 123.396
L160.524 106.242
L161.442 57.4732
L162.359 80.4828
L163.276 89.2292
L164.193 165.649
L165.111 156.44
L166.028 201.615
L166.945 189.31
L167.862 128.417
L168.78 100.47
L170.614 92.0844
L171.531 91.4902
L172.449 105.056
L173.366 106.103
L174.283 120.408
L175.2 117.575
L176.118 117.553
L177.035 114.825
L177.952 124.031
L178.87 128.105
L179.787 103.329
L180.704 147.885
L181.621 130.962
L182.539 89.3743
L183.456 120.786
L184.373 116.371
L185.29 117.462
L186.208 191.225
L187.125 132.496
L188.042 136.449
L188.959 124.885
L189.877 122.999
L190.794 189.827
L191.711 214.814
L192.628 158.372
L193.546 125.093
L194.463 129.108
L195.38 139.967
L196.297 134.093
L197.215 144.134
L198.132 140.926
L199.049 162.29
L199.967 129.814
L200.884 116.806
L201.801 125.474
L202.718 127.858
L203.636 123.545
L204.553 118.362
L206.387 144.761
L207.305 123.592
L208.222 105.629
L209.139 112.746
L210.056 125.008
L210.974 163.306
L211.891 136.057
L212.808 119.128
L213.725 126.173
L214.643 126.053
L216.477 114.96
L217.394 121.323
L218.312 131.488
L219.229 130.349
L220.146 138.924
L221.064 132.114
L221.981 123.295
L222.898 119.902
L223.815 117.793
L224.733 133.185
L225.65 132.781
L226.567 117.733
L227.484 110.853
L228.402 121.426
L229.319 124.347
L230.236 124.107
L231.153 132.396
L232.071 132.341
L232.988 139.627
L233.905 136.226
L234.822 138.298
L235.74 143.806
L236.657 141.527
L237.574 133.133
L238.491 137.715
L239.409 136.314
L240.326 136.078
L241.243 136.227
L242.16 136.517
L243.078 133.47
L243.995 131.76
L244.912 169.869
L245.83 148.992
L246.747 150.619
L247.664 144.474
L248.581 135.965
L249.499 140.515
L250.416 160.217
L251.333 148.627
L252.25 135.233
L253.168 135.401
L254.085 141.895
L255.002 172.532
L255.919 198.081
L256.837 184.279
L257.754 189.838
L259.588 135.35
L260.506 136.04
L261.423 143.842
L262.34 145.5
L263.257 155.185
L264.175 194.053
L265.092 171.23
L266.009 182.08
L266.927 161.131
L267.844 152.739
L268.761 177.068
L269.678 188.14
L270.596 127.477
L271.513 126.074
L272.43 164.674
L273.347 190.273
L274.265 156.1
L275.182 201.93
L276.099 226.045
L277.016 208.594
L277.934 168.26
L278.851 160.127
L279.768 202.612
L280.685 165.839
L281.603 183.811
L282.52 165.709
L283.437 198.597
L284.354 130.453
L285.272 108.2
L286.189 115.108
L287.106 137.842
L288.024 188.501
L288.941 155.077
L289.858 164.178
L291.693 143.548
L292.61 158.413
L294.444 140.477
L295.362 132.749
L296.279 143.456
L297.196 126.31
L298.113 130.101
L299.031 147.405
L299.948 148.359
L300.865 135.538
L301.782 142.239
L302.7 143.736
L303.617 142.141
L304.534 147.122
L305.451 149.621
L306.369 209.042
L307.286 217.128
L308.203 205.755
L309.12 210.395
L310.038 207.956
L310.955 216.764
L311.872 212.615
L312.79 179.236
L313.707 193.426
L314.624 218.033
L315.541 206.672
L316.459 166.491
L317.376 153.859
L318.293 158.846
L319.21 149.616
L320.128 151
L321.045 180.436
L321.962 194.198
L323.797 211.323
L324.714 202.1
L325.631 168.794
L326.548 209.979
L327.466 215.278
L328.383 145.578
L329.3 135.157
L330.217 130.956
L331.135 137.518
L332.052 131.566
L332.969 149.64
L333.887 147.818
L335.721 164.562
L336.638 206.743
L337.556 216.92
L338.473 203.106
L339.39 169.087
L340.307 205.718
L341.225 190.649
L342.142 182.657
L343.059 202.81
L343.976 194.407
L344.894 147.62
L345.811 166.627
L346.728 199.684
L347.645 176.212
L348.563 187.107
L349.48 196.59
L350.397 149.552
L351.314 154.38
L352.232 130.456
L353.149 183.407
L354.066 201.302
L354.984 173.069
L355.901 216.983
L356.818 228.249
L357.735 214.691
L358.653 197.895
L360.487 123.382
L361.404 128.225
L362.322 180.666
L363.239 161.454
L364.156 180.08
L365.073 192.995
L365.073 192.995" style="fill:none;stroke:#000000;stroke-linecap:square;"/>
   </g>
   <g id="patch_3">
    <path d="
M31.1906 21.3181
L365.991 21.3181" style="fill:none;stroke:#000000;stroke-linecap:square;stroke-linejoin:miter;"/>
   </g>
   <g id="patch_4">
    <path d="
M365.991 244.518
L365.991 21.3181" style="fill:none;stroke:#000000;stroke-linecap:square;stroke-linejoin:miter;"/>
   </g>
   <g id="patch_5">
    <path d="
M31.1906 244.518
L365.991 244.518" style="fill:none;stroke:#000000;stroke-linecap:square;stroke-linejoin:miter;"/>
   </g>
   <g id="patch_6">
    <path d="
M31.1906 244.518
L31.1906 21.3181" style="fill:none;stroke:#000000;stroke-linecap:square;stroke-linejoin:miter;"/>
   </g>
   <g id="matplotlib.axis_1">
    <g id="xtick_1">
     <g id="line2d_8">
      <defs>
       <path d="
M0 0
L0 -4" id="m93b0483c22" style="stroke:#000000;stroke-width:0.5;"/>
      </defs>
      <g>
       <use style="stroke:#000000;stroke-width:0.5;" x="31.190625" xlink:href="#m93b0483c22" y="244.518125"/>
      </g>
     </g>
     <g id="line2d_9">
      <defs>
       <path d="
M0 0
L0 4" id="m741efc42ff" style="stroke:#000000;stroke-width:0.5;"/>
      </defs>
      <g>
       <use style="stroke:#000000;stroke-width:0.5;" x="31.190625" xlink:href="#m741efc42ff" y="21.318125"/>
      </g>
     </g>
     <g id="text_1">
      <!-- 0 -->
      <defs>
       <path d="
M31.7812 66.4062
Q24.1719 66.4062 20.3281 58.9062
Q16.5 51.4219 16.5 36.375
Q16.5 21.3906 20.3281 13.8906
Q24.1719 6.39062 31.7812 6.39062
Q39.4531 6.39062 43.2812 13.8906
Q47.125 21.3906 47.125 36.375
Q47.125 51.4219 43.2812 58.9062
Q39.4531 66.4062 31.7812 66.4062
M31.7812 74.2188
Q44.0469 74.2188 50.5156 64.5156
Q56.9844 54.8281 56.9844 36.375
Q56.9844 17.9688 50.5156 8.26562
Q44.0469 -1.42188 31.7812 -1.42188
Q19.5312 -1.42188 13.0625 8.26562
Q6.59375 17.9688 6.59375 36.375
Q6.59375 54.8281 13.0625 64.5156
Q19.5312 74.2188 31.7812 74.2188" id="BitstreamVeraSans-Roman-30"/>
      </defs>
      <g transform="translate(28.67109375 256.1165625)scale(0.1 -0.1)">
       <use xlink:href="#BitstreamVeraSans-Roman-30"/>
      </g>
     </g>
    </g>
    <g id="xtick_2">
     <g id="line2d_10">
      <g>
       <use style="stroke:#000000;stroke-width:0.5;" x="77.0536386986" xlink:href="#m93b0483c22" y="244.518125"/>
      </g>
     </g>
     <g id="line2d_11">
      <g>
       <use style="stroke:#000000;stroke-width:0.5;" x="77.0536386986" xlink:href="#m741efc42ff" y="21.318125"/>
      </g>
     </g>
     <g id="text_2">
      <!-- 50 -->
      <defs>
       <path d="
M10.7969 72.9062
L49.5156 72.9062
L49.5156 64.5938
L19.8281 64.5938
L19.8281 46.7344
Q21.9688 47.4688 24.1094 47.8281
Q26.2656 48.1875 28.4219 48.1875
Q40.625 48.1875 47.75 41.5
Q54.8906 34.8125 54.8906 23.3906
Q54.8906 11.625 47.5625 5.09375
Q40.2344 -1.42188 26.9062 -1.42188
Q22.3125 -1.42188 17.5469 -0.640625
Q12.7969 0.140625 7.71875 1.70312
L7.71875 11.625
Q12.1094 9.23438 16.7969 8.0625
Q21.4844 6.89062 26.7031 6.89062
Q35.1562 6.89062 40.0781 11.3281
Q45.0156 15.7656 45.0156 23.3906
Q45.0156 31 40.0781 35.4375
Q35.1562 39.8906 26.7031 39.8906
Q22.75 39.8906 18.8125 39.0156
Q14.8906 38.1406 10.7969 36.2812
z
" id="BitstreamVeraSans-Roman-35"/>
      </defs>
      <g transform="translate(71.4091074486 256.1165625)scale(0.1 -0.1)">
       <use xlink:href="#BitstreamVeraSans-Roman-35"/>
       <use x="63.623046875" xlink:href="#BitstreamVeraSans-Roman-30"/>
      </g>
     </g>
    </g>
    <g id="xtick_3">
     <g id="line2d_12">
      <g>
       <use style="stroke:#000000;stroke-width:0.5;" x="122.916652397" xlink:href="#m93b0483c22" y="244.518125"/>
      </g>
     </g>
     <g id="line2d_13">
      <g>
       <use style="stroke:#000000;stroke-width:0.5;" x="122.916652397" xlink:href="#m741efc42ff" y="21.318125"/>
      </g>
     </g>
     <g id="text_3">
      <!-- 100 -->
      <defs>
       <path d="
M12.4062 8.29688
L28.5156 8.29688
L28.5156 63.9219
L10.9844 60.4062
L10.9844 69.3906
L28.4219 72.9062
L38.2812 72.9062
L38.2812 8.29688
L54.3906 8.29688
L54.3906 0
L12.4062 0
z
" id="BitstreamVeraSans-Roman-31"/>
      </defs>
      <g transform="translate(114.254152397 256.1165625)scale(0.1 -0.1)">
       <use xlink:href="#BitstreamVeraSans-Roman-31"/>
       <use x="63.623046875" xlink:href="#BitstreamVeraSans-Roman-30"/>
       <use x="127.24609375" xlink:href="#BitstreamVeraSans-Roman-30"/>
      </g>
     </g>
    </g>
    <g id="xtick_4">
     <g id="line2d_14">
      <g>
       <use style="stroke:#000000;stroke-width:0.5;" x="168.779666096" xlink:href="#m93b0483c22" y="244.518125"/>
      </g>
     </g>
     <g id="line2d_15">
      <g>
       <use style="stroke:#000000;stroke-width:0.5;" x="168.779666096" xlink:href="#m741efc42ff" y="21.318125"/>
      </g>
     </g>
     <g id="text_4">
      <!-- 150 -->
      <g transform="translate(160.117166096 256.1165625)scale(0.1 -0.1)">
       <use xlink:href="#BitstreamVeraSans-Roman-31"/>
       <use x="63.623046875" xlink:href="#BitstreamVeraSans-Roman-35"/>
       <use x="127.24609375" xlink:href="#BitstreamVeraSans-Roman-30"/>
      </g>
     </g>
    </g>
    <g id="xtick_5">
     <g id="line2d_16">
      <g>
       <use style="stroke:#000000;stroke-width:0.5;" x="214.642679795" xlink:href="#m93b0483c22" y="244.518125"/>
      </g>
     </g>
     <g id="line2d_17">
      <g>
       <use style="stroke:#000000;stroke-width:0.5;" x="214.642679795" xlink:href="#m741efc42ff" y="21.318125"/>
      </g>
     </g>
     <g id="text_5">
      <!-- 200 -->
      <defs>
       <path d="
M19.1875 8.29688
L53.6094 8.29688
L53.6094 0
L7.32812 0
L7.32812 8.29688
Q12.9375 14.1094 22.625 23.8906
Q32.3281 33.6875 34.8125 36.5312
Q39.5469 41.8438 41.4219 45.5312
Q43.3125 49.2188 43.3125 52.7812
Q43.3125 58.5938 39.2344 62.25
Q35.1562 65.9219 28.6094 65.9219
Q23.9688 65.9219 18.8125 64.3125
Q13.6719 62.7031 7.8125 59.4219
L7.8125 69.3906
Q13.7656 71.7812 18.9375 73
Q24.125 74.2188 28.4219 74.2188
Q39.75 74.2188 46.4844 68.5469
Q53.2188 62.8906 53.2188 53.4219
Q53.2188 48.9219 51.5312 44.8906
Q49.8594 40.875 45.4062 35.4062
Q44.1875 33.9844 37.6406 27.2188
Q31.1094 20.4531 19.1875 8.29688" id="BitstreamVeraSans-Roman-32"/>
      </defs>
      <g transform="translate(205.797367295 256.1165625)scale(0.1 -0.1)">
       <use xlink:href="#BitstreamVeraSans-Roman-32"/>
       <use x="63.623046875" xlink:href="#BitstreamVeraSans-Roman-30"/>
       <use x="127.24609375" xlink:href="#BitstreamVeraSans-Roman-30"/>
      </g>
     </g>
    </g>
    <g id="xtick_6">
     <g id="line2d_18">
      <g>
       <use style="stroke:#000000;stroke-width:0.5;" x="260.505693493" xlink:href="#m93b0483c22" y="244.518125"/>
      </g>
     </g>
     <g id="line2d_19">
      <g>
       <use style="stroke:#000000;stroke-width:0.5;" x="260.505693493" xlink:href="#m741efc42ff" y="21.318125"/>
      </g>
     </g>
     <g id="text_6">
      <!-- 250 -->
      <g transform="translate(251.660380993 256.1165625)scale(0.1 -0.1)">
       <use xlink:href="#BitstreamVeraSans-Roman-32"/>
       <use x="63.623046875" xlink:href="#BitstreamVeraSans-Roman-35"/>
       <use x="127.24609375" xlink:href="#BitstreamVeraSans-Roman-30"/>
      </g>
     </g>
    </g>
    <g id="xtick_7">
     <g id="line2d_20">
      <g>
       <use style="stroke:#000000;stroke-width:0.5;" x="306.368707192" xlink:href="#m93b0483c22" y="244.518125"/>
      </g>
     </g>
     <g id="line2d_21">
      <g>
       <use style="stroke:#000000;stroke-width:0.5;" x="306.368707192" xlink:href="#m741efc42ff" y="21.318125"/>
      </g>
     </g>
     <g id="text_7">
      <!-- 300 -->
      <defs>
       <path d="
M40.5781 39.3125
Q47.6562 37.7969 51.625 33
Q55.6094 28.2188 55.6094 21.1875
Q55.6094 10.4062 48.1875 4.48438
Q40.7656 -1.42188 27.0938 -1.42188
Q22.5156 -1.42188 17.6562 -0.515625
Q12.7969 0.390625 7.625 2.20312
L7.625 11.7188
Q11.7188 9.32812 16.5938 8.10938
Q21.4844 6.89062 26.8125 6.89062
Q36.0781 6.89062 40.9375 10.5469
Q45.7969 14.2031 45.7969 21.1875
Q45.7969 27.6406 41.2812 31.2656
Q36.7656 34.9062 28.7188 34.9062
L20.2188 34.9062
L20.2188 43.0156
L29.1094 43.0156
Q36.375 43.0156 40.2344 45.9219
Q44.0938 48.8281 44.0938 54.2969
Q44.0938 59.9062 40.1094 62.9062
Q36.1406 65.9219 28.7188 65.9219
Q24.6562 65.9219 20.0156 65.0312
Q15.375 64.1562 9.8125 62.3125
L9.8125 71.0938
Q15.4375 72.6562 20.3438 73.4375
Q25.25 74.2188 29.5938 74.2188
Q40.8281 74.2188 47.3594 69.1094
Q53.9062 64.0156 53.9062 55.3281
Q53.9062 49.2656 50.4375 45.0938
Q46.9688 40.9219 40.5781 39.3125" id="BitstreamVeraSans-Roman-33"/>
      </defs>
      <g transform="translate(297.538238442 256.1165625)scale(0.1 -0.1)">
       <use xlink:href="#BitstreamVeraSans-Roman-33"/>
       <use x="63.623046875" xlink:href="#BitstreamVeraSans-Roman-30"/>
       <use x="127.24609375" xlink:href="#BitstreamVeraSans-Roman-30"/>
      </g>
     </g>
    </g>
    <g id="xtick_8">
     <g id="line2d_22">
      <g>
       <use style="stroke:#000000;stroke-width:0.5;" x="352.23172089" xlink:href="#m93b0483c22" y="244.518125"/>
      </g>
     </g>
     <g id="line2d_23">
      <g>
       <use style="stroke:#000000;stroke-width:0.5;" x="352.23172089" xlink:href="#m741efc42ff" y="21.318125"/>
      </g>
     </g>
     <g id="text_8">
      <!-- 350 -->
      <g transform="translate(343.40125214 256.1165625)scale(0.1 -0.1)">
       <use xlink:href="#BitstreamVeraSans-Roman-33"/>
       <use x="63.623046875" xlink:href="#BitstreamVeraSans-Roman-35"/>
       <use x="127.24609375" xlink:href="#BitstreamVeraSans-Roman-30"/>
      </g>
     </g>
    </g>
    <g id="text_9">
     <!-- Julian day -->
     <defs>
      <path id="BitstreamVeraSans-Roman-20"/>
      <path d="
M9.8125 72.9062
L19.6719 72.9062
L19.6719 5.07812
Q19.6719 -8.10938 14.6719 -14.0625
Q9.67188 -20.0156 -1.42188 -20.0156
L-5.17188 -20.0156
L-5.17188 -11.7188
L-2.09375 -11.7188
Q4.4375 -11.7188 7.125 -8.04688
Q9.8125 -4.39062 9.8125 5.07812
z
" id="BitstreamVeraSans-Roman-4a"/>
      <path d="
M54.8906 33.0156
L54.8906 0
L45.9062 0
L45.9062 32.7188
Q45.9062 40.4844 42.875 44.3281
Q39.8438 48.1875 33.7969 48.1875
Q26.5156 48.1875 22.3125 43.5469
Q18.1094 38.9219 18.1094 30.9062
L18.1094 0
L9.07812 0
L9.07812 54.6875
L18.1094 54.6875
L18.1094 46.1875
Q21.3438 51.125 25.7031 53.5625
Q30.0781 56 35.7969 56
Q45.2188 56 50.0469 50.1719
Q54.8906 44.3438 54.8906 33.0156" id="BitstreamVeraSans-Roman-6e"/>
      <path d="
M9.42188 75.9844
L18.4062 75.9844
L18.4062 0
L9.42188 0
z
" id="BitstreamVeraSans-Roman-6c"/>
      <path d="
M9.42188 54.6875
L18.4062 54.6875
L18.4062 0
L9.42188 0
z

M9.42188 75.9844
L18.4062 75.9844
L18.4062 64.5938
L9.42188 64.5938
z
" id="BitstreamVeraSans-Roman-69"/>
      <path d="
M32.1719 -5.07812
Q28.375 -14.8438 24.75 -17.8125
Q21.1406 -20.7969 15.0938 -20.7969
L7.90625 -20.7969
L7.90625 -13.2812
L13.1875 -13.2812
Q16.8906 -13.2812 18.9375 -11.5156
Q21 -9.76562 23.4844 -3.21875
L25.0938 0.875
L2.98438 54.6875
L12.5 54.6875
L29.5938 11.9219
L46.6875 54.6875
L56.2031 54.6875
z
" id="BitstreamVeraSans-Roman-79"/>
      <path d="
M45.4062 46.3906
L45.4062 75.9844
L54.3906 75.9844
L54.3906 0
L45.4062 0
L45.4062 8.20312
Q42.5781 3.32812 38.25 0.953125
Q33.9375 -1.42188 27.875 -1.42188
Q17.9688 -1.42188 11.7344 6.48438
Q5.51562 14.4062 5.51562 27.2969
Q5.51562 40.1875 11.7344 48.0938
Q17.9688 56 27.875 56
Q33.9375 56 38.25 53.625
Q42.5781 51.2656 45.4062 46.3906
M14.7969 27.2969
Q14.7969 17.3906 18.875 11.75
Q22.9531 6.10938 30.0781 6.10938
Q37.2031 6.10938 41.2969 11.75
Q45.4062 17.3906 45.4062 27.2969
Q45.4062 37.2031 41.2969 42.8438
Q37.2031 48.4844 30.0781 48.4844
Q22.9531 48.4844 18.875 42.8438
Q14.7969 37.2031 14.7969 27.2969" id="BitstreamVeraSans-Roman-64"/>
      <path d="
M8.5 21.5781
L8.5 54.6875
L17.4844 54.6875
L17.4844 21.9219
Q17.4844 14.1562 20.5 10.2656
Q23.5312 6.39062 29.5938 6.39062
Q36.8594 6.39062 41.0781 11.0312
Q45.3125 15.6719 45.3125 23.6875
L45.3125 54.6875
L54.2969 54.6875
L54.2969 0
L45.3125 0
L45.3125 8.40625
Q42.0469 3.42188 37.7188 1
Q33.4062 -1.42188 27.6875 -1.42188
Q18.2656 -1.42188 13.375 4.4375
Q8.5 10.2969 8.5 21.5781" id="BitstreamVeraSans-Roman-75"/>
      <path d="
M34.2812 27.4844
Q23.3906 27.4844 19.1875 25
Q14.9844 22.5156 14.9844 16.5
Q14.9844 11.7188 18.1406 8.90625
Q21.2969 6.10938 26.7031 6.10938
Q34.1875 6.10938 38.7031 11.4062
Q43.2188 16.7031 43.2188 25.4844
L43.2188 27.4844
z

M52.2031 31.2031
L52.2031 0
L43.2188 0
L43.2188 8.29688
Q40.1406 3.32812 35.5469 0.953125
Q30.9531 -1.42188 24.3125 -1.42188
Q15.9219 -1.42188 10.9531 3.29688
Q6 8.01562 6 15.9219
Q6 25.1406 12.1719 29.8281
Q18.3594 34.5156 30.6094 34.5156
L43.2188 34.5156
L43.2188 35.4062
Q43.2188 41.6094 39.1406 45
Q35.0625 48.3906 27.6875 48.3906
Q23 48.3906 18.5469 47.2656
Q14.1094 46.1406 10.0156 43.8906
L10.0156 52.2031
Q14.9375 54.1094 19.5781 55.0469
Q24.2188 56 28.6094 56
Q40.4844 56 46.3438 49.8438
Q52.2031 43.7031 52.2031 31.2031" id="BitstreamVeraSans-Roman-61"/>
     </defs>
     <g transform="translate(174.03984375 270.7946875)scale(0.1 -0.1)">
      <use xlink:href="#BitstreamVeraSans-Roman-4a"/>
      <use x="29.4921875" xlink:href="#BitstreamVeraSans-Roman-75"/>
      <use x="92.87109375" xlink:href="#BitstreamVeraSans-Roman-6c"/>
      <use x="120.654296875" xlink:href="#BitstreamVeraSans-Roman-69"/>
      <use x="148.4375" xlink:href="#BitstreamVeraSans-Roman-61"/>
      <use x="209.716796875" xlink:href="#BitstreamVeraSans-Roman-6e"/>
      <use x="273.095703125" xlink:href="#BitstreamVeraSans-Roman-20"/>
      <use x="304.8828125" xlink:href="#BitstreamVeraSans-Roman-64"/>
      <use x="368.359375" xlink:href="#BitstreamVeraSans-Roman-61"/>
      <use x="429.638671875" xlink:href="#BitstreamVeraSans-Roman-79"/>
     </g>
    </g>
   </g>
   <g id="matplotlib.axis_2">
    <g id="ytick_1">
     <g id="line2d_24">
      <defs>
       <path d="
M0 0
L4 0" id="m728421d6d4" style="stroke:#000000;stroke-width:0.5;"/>
      </defs>
      <g>
       <use style="stroke:#000000;stroke-width:0.5;" x="31.190625" xlink:href="#m728421d6d4" y="244.518125"/>
      </g>
     </g>
     <g id="line2d_25">
      <defs>
       <path d="
M0 0
L-4 0" id="mcb0005524f" style="stroke:#000000;stroke-width:0.5;"/>
      </defs>
      <g>
       <use style="stroke:#000000;stroke-width:0.5;" x="365.990625" xlink:href="#mcb0005524f" y="244.518125"/>
      </g>
     </g>
     <g id="text_10">
      <!-- 0 -->
      <g transform="translate(22.1515625 247.2775)scale(0.1 -0.1)">
       <use xlink:href="#BitstreamVeraSans-Roman-30"/>
      </g>
     </g>
    </g>
    <g id="ytick_2">
     <g id="line2d_26">
      <g>
       <use style="stroke:#000000;stroke-width:0.5;" x="31.190625" xlink:href="#m728421d6d4" y="199.878125"/>
      </g>
     </g>
     <g id="line2d_27">
      <g>
       <use style="stroke:#000000;stroke-width:0.5;" x="365.990625" xlink:href="#mcb0005524f" y="199.878125"/>
      </g>
     </g>
     <g id="text_11">
      <!-- 1 -->
      <g transform="translate(22.85 202.6375)scale(0.1 -0.1)">
       <use xlink:href="#BitstreamVeraSans-Roman-31"/>
      </g>
     </g>
    </g>
    <g id="ytick_3">
     <g id="line2d_28">
      <g>
       <use style="stroke:#000000;stroke-width:0.5;" x="31.190625" xlink:href="#m728421d6d4" y="155.238125"/>
      </g>
     </g>
     <g id="line2d_29">
      <g>
       <use style="stroke:#000000;stroke-width:0.5;" x="365.990625" xlink:href="#mcb0005524f" y="155.238125"/>
      </g>
     </g>
     <g id="text_12">
      <!-- 2 -->
      <g transform="translate(22.5625 157.9975)scale(0.1 -0.1)">
       <use xlink:href="#BitstreamVeraSans-Roman-32"/>
      </g>
     </g>
    </g>
    <g id="ytick_4">
     <g id="line2d_30">
      <g>
       <use style="stroke:#000000;stroke-width:0.5;" x="31.190625" xlink:href="#m728421d6d4" y="110.598125"/>
      </g>
     </g>
     <g id="line2d_31">
      <g>
       <use style="stroke:#000000;stroke-width:0.5;" x="365.990625" xlink:href="#mcb0005524f" y="110.598125"/>
      </g>
     </g>
     <g id="text_13">
      <!-- 3 -->
      <g transform="translate(22.3921875 113.3575)scale(0.1 -0.1)">
       <use xlink:href="#BitstreamVeraSans-Roman-33"/>
      </g>
     </g>
    </g>
    <g id="ytick_5">
     <g id="line2d_32">
      <g>
       <use style="stroke:#000000;stroke-width:0.5;" x="31.190625" xlink:href="#m728421d6d4" y="65.958125"/>
      </g>
     </g>
     <g id="line2d_33">
      <g>
       <use style="stroke:#000000;stroke-width:0.5;" x="365.990625" xlink:href="#mcb0005524f" y="65.958125"/>
      </g>
     </g>
     <g id="text_14">
      <!-- 4 -->
      <defs>
       <path d="
M37.7969 64.3125
L12.8906 25.3906
L37.7969 25.3906
z

M35.2031 72.9062
L47.6094 72.9062
L47.6094 25.3906
L58.0156 25.3906
L58.0156 17.1875
L47.6094 17.1875
L47.6094 0
L37.7969 0
L37.7969 17.1875
L4.89062 17.1875
L4.89062 26.7031
z
" id="BitstreamVeraSans-Roman-34"/>
      </defs>
      <g transform="translate(21.878125 68.7175)scale(0.1 -0.1)">
       <use xlink:href="#BitstreamVeraSans-Roman-34"/>
      </g>
     </g>
    </g>
    <g id="ytick_6">
     <g id="line2d_34">
      <g>
       <use style="stroke:#000000;stroke-width:0.5;" x="31.190625" xlink:href="#m728421d6d4" y="21.318125"/>
      </g>
     </g>
     <g id="line2d_35">
      <g>
       <use style="stroke:#000000;stroke-width:0.5;" x="365.990625" xlink:href="#mcb0005524f" y="21.318125"/>
      </g>
     </g>
     <g id="text_15">
      <!-- 5 -->
      <g transform="translate(22.4734375 24.0775)scale(0.1 -0.1)">
       <use xlink:href="#BitstreamVeraSans-Roman-35"/>
      </g>
     </g>
    </g>
    <g id="text_16">
     <!-- PET (mm/day) -->
     <defs>
      <path d="
M52 44.1875
Q55.375 50.25 60.0625 53.125
Q64.75 56 71.0938 56
Q79.6406 56 84.2812 50.0156
Q88.9219 44.0469 88.9219 33.0156
L88.9219 0
L79.8906 0
L79.8906 32.7188
Q79.8906 40.5781 77.0938 44.375
Q74.3125 48.1875 68.6094 48.1875
Q61.625 48.1875 57.5625 43.5469
Q53.5156 38.9219 53.5156 30.9062
L53.5156 0
L44.4844 0
L44.4844 32.7188
Q44.4844 40.625 41.7031 44.4062
Q38.9219 48.1875 33.1094 48.1875
Q26.2188 48.1875 22.1562 43.5312
Q18.1094 38.875 18.1094 30.9062
L18.1094 0
L9.07812 0
L9.07812 54.6875
L18.1094 54.6875
L18.1094 46.1875
Q21.1875 51.2188 25.4844 53.6094
Q29.7812 56 35.6875 56
Q41.6562 56 45.8281 52.9688
Q50 49.9531 52 44.1875" id="BitstreamVeraSans-Roman-6d"/>
      <path d="
M8.01562 75.875
L15.8281 75.875
Q23.1406 64.3594 26.7812 53.3125
Q30.4219 42.2812 30.4219 31.3906
Q30.4219 20.4531 26.7812 9.375
Q23.1406 -1.70312 15.8281 -13.1875
L8.01562 -13.1875
Q14.5 -2 17.7031 9.0625
Q20.9062 20.125 20.9062 31.3906
Q20.9062 42.6719 17.7031 53.6562
Q14.5 64.6562 8.01562 75.875" id="BitstreamVeraSans-Roman-29"/>
      <path d="
M31 75.875
Q24.4688 64.6562 21.2812 53.6562
Q18.1094 42.6719 18.1094 31.3906
Q18.1094 20.125 21.3125 9.0625
Q24.5156 -2 31 -13.1875
L23.1875 -13.1875
Q15.875 -1.70312 12.2344 9.375
Q8.59375 20.4531 8.59375 31.3906
Q8.59375 42.2812 12.2031 53.3125
Q15.8281 64.3594 23.1875 75.875
z
" id="BitstreamVeraSans-Roman-28"/>
      <path d="
M19.6719 64.7969
L19.6719 37.4062
L32.0781 37.4062
Q38.9688 37.4062 42.7188 40.9688
Q46.4844 44.5312 46.4844 51.125
Q46.4844 57.6719 42.7188 61.2344
Q38.9688 64.7969 32.0781 64.7969
z

M9.8125 72.9062
L32.0781 72.9062
Q44.3438 72.9062 50.6094 67.3594
Q56.8906 61.8125 56.8906 51.125
Q56.8906 40.3281 50.6094 34.8125
Q44.3438 29.2969 32.0781 29.2969
L19.6719 29.2969
L19.6719 0
L9.8125 0
z
" id="BitstreamVeraSans-Roman-50"/>
      <path d="
M9.8125 72.9062
L55.9062 72.9062
L55.9062 64.5938
L19.6719 64.5938
L19.6719 43.0156
L54.3906 43.0156
L54.3906 34.7188
L19.6719 34.7188
L19.6719 8.29688
L56.7812 8.29688
L56.7812 0
L9.8125 0
z
" id="BitstreamVeraSans-Roman-45"/>
      <path d="
M-0.296875 72.9062
L61.375 72.9062
L61.375 64.5938
L35.5 64.5938
L35.5 0
L25.5938 0
L25.5938 64.5938
L-0.296875 64.5938
z
" id="BitstreamVeraSans-Roman-54"/>
      <path d="
M25.3906 72.9062
L33.6875 72.9062
L8.29688 -9.28125
L0 -9.28125
z
" id="BitstreamVeraSans-Roman-2f"/>
     </defs>
     <g transform="translate(14.7984375 167.82984375)rotate(-90.0)scale(0.1 -0.1)">
      <use xlink:href="#BitstreamVeraSans-Roman-50"/>
      <use x="60.302734375" xlink:href="#BitstreamVeraSans-Roman-45"/>
      <use x="123.486328125" xlink:href="#BitstreamVeraSans-Roman-54"/>
      <use x="184.5703125" xlink:href="#BitstreamVeraSans-Roman-20"/>
      <use x="216.357421875" xlink:href="#BitstreamVeraSans-Roman-28"/>
      <use x="255.37109375" xlink:href="#BitstreamVeraSans-Roman-6d"/>
      <use x="352.783203125" xlink:href="#BitstreamVeraSans-Roman-6d"/>
      <use x="450.1953125" xlink:href="#BitstreamVeraSans-Roman-2f"/>
      <use x="483.88671875" xlink:href="#BitstreamVeraSans-Roman-64"/>
      <use x="547.36328125" xlink:href="#BitstreamVeraSans-Roman-61"/>
      <use x="608.642578125" xlink:href="#BitstreamVeraSans-Roman-79"/>
      <use x="667.822265625" xlink:href="#BitstreamVeraSans-Roman-29"/>
     </g>
    </g>
   </g>
   <g id="text_17">
    <!-- daily grass PET at LDP -->
    <defs>
     <path d="
M9.8125 72.9062
L19.6719 72.9062
L19.6719 8.29688
L55.1719 8.29688
L55.1719 0
L9.8125 0
z
" id="BitstreamVeraSans-Roman-4c"/>
     <path d="
M44.2812 53.0781
L44.2812 44.5781
Q40.4844 46.5312 36.375 47.5
Q32.2812 48.4844 27.875 48.4844
Q21.1875 48.4844 17.8438 46.4375
Q14.5 44.3906 14.5 40.2812
Q14.5 37.1562 16.8906 35.375
Q19.2812 33.5938 26.5156 31.9844
L29.5938 31.2969
Q39.1562 29.25 43.1875 25.5156
Q47.2188 21.7812 47.2188 15.0938
Q47.2188 7.46875 41.1875 3.01562
Q35.1562 -1.42188 24.6094 -1.42188
Q20.2188 -1.42188 15.4531 -0.5625
Q10.6875 0.296875 5.42188 2
L5.42188 11.2812
Q10.4062 8.6875 15.2344 7.39062
Q20.0625 6.10938 24.8125 6.10938
Q31.1562 6.10938 34.5625 8.28125
Q37.9844 10.4531 37.9844 14.4062
Q37.9844 18.0625 35.5156 20.0156
Q33.0625 21.9688 24.7031 23.7812
L21.5781 24.5156
Q13.2344 26.2656 9.51562 29.9062
Q5.8125 33.5469 5.8125 39.8906
Q5.8125 47.6094 11.2812 51.7969
Q16.75 56 26.8125 56
Q31.7812 56 36.1719 55.2656
Q40.5781 54.5469 44.2812 53.0781" id="BitstreamVeraSans-Roman-73"/>
     <path d="
M19.6719 64.7969
L19.6719 8.10938
L31.5938 8.10938
Q46.6875 8.10938 53.6875 14.9375
Q60.6875 21.7812 60.6875 36.5312
Q60.6875 51.1719 53.6875 57.9844
Q46.6875 64.7969 31.5938 64.7969
z

M9.8125 72.9062
L30.0781 72.9062
Q51.2656 72.9062 61.1719 64.0938
Q71.0938 55.2812 71.0938 36.5312
Q71.0938 17.6719 61.125 8.82812
Q51.1719 0 30.0781 0
L9.8125 0
z
" id="BitstreamVeraSans-Roman-44"/>
     <path d="
M18.3125 70.2188
L18.3125 54.6875
L36.8125 54.6875
L36.8125 47.7031
L18.3125 47.7031
L18.3125 18.0156
Q18.3125 11.3281 20.1406 9.42188
Q21.9688 7.51562 27.5938 7.51562
L36.8125 7.51562
L36.8125 0
L27.5938 0
Q17.1875 0 13.2344 3.875
Q9.28125 7.76562 9.28125 18.0156
L9.28125 47.7031
L2.6875 47.7031
L2.6875 54.6875
L9.28125 54.6875
L9.28125 70.2188
z
" id="BitstreamVeraSans-Roman-74"/>
     <path d="
M41.1094 46.2969
Q39.5938 47.1719 37.8125 47.5781
Q36.0312 48 33.8906 48
Q26.2656 48 22.1875 43.0469
Q18.1094 38.0938 18.1094 28.8125
L18.1094 0
L9.07812 0
L9.07812 54.6875
L18.1094 54.6875
L18.1094 46.1875
Q20.9531 51.1719 25.4844 53.5781
Q30.0312 56 36.5312 56
Q37.4531 56 38.5781 55.875
Q39.7031 55.7656 41.0625 55.5156
z
" id="BitstreamVeraSans-Roman-72"/>
     <path d="
M45.4062 27.9844
Q45.4062 37.75 41.375 43.1094
Q37.3594 48.4844 30.0781 48.4844
Q22.8594 48.4844 18.8281 43.1094
Q14.7969 37.75 14.7969 27.9844
Q14.7969 18.2656 18.8281 12.8906
Q22.8594 7.51562 30.0781 7.51562
Q37.3594 7.51562 41.375 12.8906
Q45.4062 18.2656 45.4062 27.9844
M54.3906 6.78125
Q54.3906 -7.17188 48.1875 -13.9844
Q42 -20.7969 29.2031 -20.7969
Q24.4688 -20.7969 20.2656 -20.0938
Q16.0625 -19.3906 12.1094 -17.9219
L12.1094 -9.1875
Q16.0625 -11.3281 19.9219 -12.3438
Q23.7812 -13.375 27.7812 -13.375
Q36.625 -13.375 41.0156 -8.76562
Q45.4062 -4.15625 45.4062 5.17188
L45.4062 9.625
Q42.625 4.78125 38.2812 2.39062
Q33.9375 0 27.875 0
Q17.8281 0 11.6719 7.65625
Q5.51562 15.3281 5.51562 27.9844
Q5.51562 40.6719 11.6719 48.3281
Q17.8281 56 27.875 56
Q33.9375 56 38.2812 53.6094
Q42.625 51.2188 45.4062 46.3906
L45.4062 54.6875
L54.3906 54.6875
z
" id="BitstreamVeraSans-Roman-67"/>
    </defs>
    <g transform="translate(131.9090625 16.318125)scale(0.12 -0.12)">
     <use xlink:href="#BitstreamVeraSans-Roman-64"/>
     <use x="63.4765625" xlink:href="#BitstreamVeraSans-Roman-61"/>
     <use x="124.755859375" xlink:href="#BitstreamVeraSans-Roman-69"/>
     <use x="152.5390625" xlink:href="#BitstreamVeraSans-Roman-6c"/>
     <use x="180.322265625" xlink:href="#BitstreamVeraSans-Roman-79"/>
     <use x="239.501953125" xlink:href="#BitstreamVeraSans-Roman-20"/>
     <use x="271.2890625" xlink:href="#BitstreamVeraSans-Roman-67"/>
     <use x="334.765625" xlink:href="#BitstreamVeraSans-Roman-72"/>
     <use x="375.87890625" xlink:href="#BitstreamVeraSans-Roman-61"/>
     <use x="437.158203125" xlink:href="#BitstreamVeraSans-Roman-73"/>
     <use x="489.2578125" xlink:href="#BitstreamVeraSans-Roman-73"/>
     <use x="541.357421875" xlink:href="#BitstreamVeraSans-Roman-20"/>
     <use x="573.14453125" xlink:href="#BitstreamVeraSans-Roman-50"/>
     <use x="633.447265625" xlink:href="#BitstreamVeraSans-Roman-45"/>
     <use x="696.630859375" xlink:href="#BitstreamVeraSans-Roman-54"/>
     <use x="757.71484375" xlink:href="#BitstreamVeraSans-Roman-20"/>
     <use x="789.501953125" xlink:href="#BitstreamVeraSans-Roman-61"/>
     <use x="850.78125" xlink:href="#BitstreamVeraSans-Roman-74"/>
     <use x="889.990234375" xlink:href="#BitstreamVeraSans-Roman-20"/>
     <use x="921.77734375" xlink:href="#BitstreamVeraSans-Roman-4c"/>
     <use x="977.490234375" xlink:href="#BitstreamVeraSans-Roman-44"/>
     <use x="1054.4921875" xlink:href="#BitstreamVeraSans-Roman-50"/>
    </g>
   </g>
   <g id="legend_1">
    <g id="patch_7">
     <path d="
M287.927 154.214
L359.991 154.214
L359.991 27.3181
L287.927 27.3181
z
" style="fill:#ffffff;stroke:#000000;stroke-linejoin:miter;"/>
    </g>
    <g id="line2d_36">
     <path d="
M296.327 37.0363
L313.127 37.0363" style="fill:none;stroke:#0000ff;stroke-linecap:square;"/>
    </g>
    <g id="line2d_37"/>
    <g id="text_18">
     <!-- 2007 -->
     <defs>
      <path d="
M8.20312 72.9062
L55.0781 72.9062
L55.0781 68.7031
L28.6094 0
L18.3125 0
L43.2188 64.5938
L8.20312 64.5938
z
" id="BitstreamVeraSans-Roman-37"/>
     </defs>
     <g transform="translate(326.326875 41.23625)scale(0.12 -0.12)">
      <use xlink:href="#BitstreamVeraSans-Roman-32"/>
      <use x="63.623046875" xlink:href="#BitstreamVeraSans-Roman-30"/>
      <use x="127.24609375" xlink:href="#BitstreamVeraSans-Roman-30"/>
      <use x="190.869140625" xlink:href="#BitstreamVeraSans-Roman-37"/>
     </g>
    </g>
    <g id="line2d_38">
     <path d="
M296.327 54.65
L313.127 54.65" style="fill:none;stroke:#008000;stroke-linecap:square;"/>
    </g>
    <g id="line2d_39"/>
    <g id="text_19">
     <!-- 2008 -->
     <defs>
      <path d="
M31.7812 34.625
Q24.75 34.625 20.7188 30.8594
Q16.7031 27.0938 16.7031 20.5156
Q16.7031 13.9219 20.7188 10.1562
Q24.75 6.39062 31.7812 6.39062
Q38.8125 6.39062 42.8594 10.1719
Q46.9219 13.9688 46.9219 20.5156
Q46.9219 27.0938 42.8906 30.8594
Q38.875 34.625 31.7812 34.625
M21.9219 38.8125
Q15.5781 40.375 12.0312 44.7188
Q8.5 49.0781 8.5 55.3281
Q8.5 64.0625 14.7188 69.1406
Q20.9531 74.2188 31.7812 74.2188
Q42.6719 74.2188 48.875 69.1406
Q55.0781 64.0625 55.0781 55.3281
Q55.0781 49.0781 51.5312 44.7188
Q48 40.375 41.7031 38.8125
Q48.8281 37.1562 52.7969 32.3125
Q56.7812 27.4844 56.7812 20.5156
Q56.7812 9.90625 50.3125 4.23438
Q43.8438 -1.42188 31.7812 -1.42188
Q19.7344 -1.42188 13.25 4.23438
Q6.78125 9.90625 6.78125 20.5156
Q6.78125 27.4844 10.7812 32.3125
Q14.7969 37.1562 21.9219 38.8125
M18.3125 54.3906
Q18.3125 48.7344 21.8438 45.5625
Q25.3906 42.3906 31.7812 42.3906
Q38.1406 42.3906 41.7188 45.5625
Q45.3125 48.7344 45.3125 54.3906
Q45.3125 60.0625 41.7188 63.2344
Q38.1406 66.4062 31.7812 66.4062
Q25.3906 66.4062 21.8438 63.2344
Q18.3125 60.0625 18.3125 54.3906" id="BitstreamVeraSans-Roman-38"/>
     </defs>
     <g transform="translate(326.326875 58.85)scale(0.12 -0.12)">
      <use xlink:href="#BitstreamVeraSans-Roman-32"/>
      <use x="63.623046875" xlink:href="#BitstreamVeraSans-Roman-30"/>
      <use x="127.24609375" xlink:href="#BitstreamVeraSans-Roman-30"/>
      <use x="190.869140625" xlink:href="#BitstreamVeraSans-Roman-38"/>
     </g>
    </g>
    <g id="line2d_40">
     <path d="
M296.327 72.2638
L313.127 72.2638" style="fill:none;stroke:#ff0000;stroke-linecap:square;"/>
    </g>
    <g id="line2d_41"/>
    <g id="text_20">
     <!-- 2009 -->
     <defs>
      <path d="
M10.9844 1.51562
L10.9844 10.5
Q14.7031 8.73438 18.5 7.8125
Q22.3125 6.89062 25.9844 6.89062
Q35.75 6.89062 40.8906 13.4531
Q46.0469 20.0156 46.7812 33.4062
Q43.9531 29.2031 39.5938 26.9531
Q35.25 24.7031 29.9844 24.7031
Q19.0469 24.7031 12.6719 31.3125
Q6.29688 37.9375 6.29688 49.4219
Q6.29688 60.6406 12.9375 67.4219
Q19.5781 74.2188 30.6094 74.2188
Q43.2656 74.2188 49.9219 64.5156
Q56.5938 54.8281 56.5938 36.375
Q56.5938 19.1406 48.4062 8.85938
Q40.2344 -1.42188 26.4219 -1.42188
Q22.7031 -1.42188 18.8906 -0.6875
Q15.0938 0.046875 10.9844 1.51562
M30.6094 32.4219
Q37.25 32.4219 41.125 36.9531
Q45.0156 41.5 45.0156 49.4219
Q45.0156 57.2812 41.125 61.8438
Q37.25 66.4062 30.6094 66.4062
Q23.9688 66.4062 20.0938 61.8438
Q16.2188 57.2812 16.2188 49.4219
Q16.2188 41.5 20.0938 36.9531
Q23.9688 32.4219 30.6094 32.4219" id="BitstreamVeraSans-Roman-39"/>
     </defs>
     <g transform="translate(326.326875 76.46375)scale(0.12 -0.12)">
      <use xlink:href="#BitstreamVeraSans-Roman-32"/>
      <use x="63.623046875" xlink:href="#BitstreamVeraSans-Roman-30"/>
      <use x="127.24609375" xlink:href="#BitstreamVeraSans-Roman-30"/>
      <use x="190.869140625" xlink:href="#BitstreamVeraSans-Roman-39"/>
     </g>
    </g>
    <g id="line2d_42">
     <path d="
M296.327 89.8775
L313.127 89.8775" style="fill:none;stroke:#00bfbf;stroke-linecap:square;"/>
    </g>
    <g id="line2d_43"/>
    <g id="text_21">
     <!-- 2010 -->
     <g transform="translate(326.326875 94.0775)scale(0.12 -0.12)">
      <use xlink:href="#BitstreamVeraSans-Roman-32"/>
      <use x="63.623046875" xlink:href="#BitstreamVeraSans-Roman-30"/>
      <use x="127.24609375" xlink:href="#BitstreamVeraSans-Roman-31"/>
      <use x="190.869140625" xlink:href="#BitstreamVeraSans-Roman-30"/>
     </g>
    </g>
    <g id="line2d_44">
     <path d="
M296.327 107.491
L313.127 107.491" style="fill:none;stroke:#bf00bf;stroke-linecap:square;"/>
    </g>
    <g id="line2d_45"/>
    <g id="text_22">
     <!-- 2011 -->
     <g transform="translate(326.326875 111.69125)scale(0.12 -0.12)">
      <use xlink:href="#BitstreamVeraSans-Roman-32"/>
      <use x="63.623046875" xlink:href="#BitstreamVeraSans-Roman-30"/>
      <use x="127.24609375" xlink:href="#BitstreamVeraSans-Roman-31"/>
      <use x="190.869140625" xlink:href="#BitstreamVeraSans-Roman-31"/>
     </g>
    </g>
    <g id="line2d_46">
     <path d="
M296.327 125.105
L313.127 125.105" style="fill:none;stroke:#bfbf00;stroke-linecap:square;"/>
    </g>
    <g id="line2d_47"/>
    <g id="text_23">
     <!-- 2012 -->
     <g transform="translate(326.326875 129.305)scale(0.12 -0.12)">
      <use xlink:href="#BitstreamVeraSans-Roman-32"/>
      <use x="63.623046875" xlink:href="#BitstreamVeraSans-Roman-30"/>
      <use x="127.24609375" xlink:href="#BitstreamVeraSans-Roman-31"/>
      <use x="190.869140625" xlink:href="#BitstreamVeraSans-Roman-32"/>
     </g>
    </g>
    <g id="line2d_48">
     <path d="
M296.327 142.719
L313.127 142.719" style="fill:none;stroke:#000000;stroke-linecap:square;"/>
    </g>
    <g id="line2d_49"/>
    <g id="text_24">
     <!-- 2013 -->
     <g transform="translate(326.326875 146.91875)scale(0.12 -0.12)">
      <use xlink:href="#BitstreamVeraSans-Roman-32"/>
      <use x="63.623046875" xlink:href="#BitstreamVeraSans-Roman-30"/>
      <use x="127.24609375" xlink:href="#BitstreamVeraSans-Roman-31"/>
      <use x="190.869140625" xlink:href="#BitstreamVeraSans-Roman-33"/>
     </g>
    </g>
   </g>
  </g>
 </g>
 <defs>
  <clipPath id="pc1a11fcac8">
   <rect height="223.2" width="334.8" x="31.190625" y="21.318125"/>
  </clipPath>
 </defs>
</svg>
