<?xml version="1.0" encoding="utf-8" standalone="no"?>
<!DOCTYPE svg PUBLIC "-//W3C//DTD SVG 1.1//EN"
  "http://www.w3.org/Graphics/SVG/1.1/DTD/svg11.dtd">
<!-- Created with matplotlib (http://matplotlib.org/) -->
<svg height="280pt" version="1.1" viewBox="0 0 380 280" width="380pt" xmlns="http://www.w3.org/2000/svg" xmlns:xlink="http://www.w3.org/1999/xlink">
 <defs>
  <style type="text/css">
*{stroke-linecap:butt;stroke-linejoin:round;}
  </style>
 </defs>
 <g id="figure_1">
  <g id="patch_1">
   <path d="
M1.77636e-15 280.074
L380.637 280.074
L380.637 0
L1.77636e-15 0
z
" style="fill:#ffffff;"/>
  </g>
  <g id="axes_1">
   <g id="patch_2">
    <path d="
M38.6375 244.518
L373.438 244.518
L373.438 21.3181
L38.6375 21.3181
z
" style="fill:#ffffff;"/>
   </g>
   <g id="line2d_1">
    <path clip-path="url(#pa986dbe5e9)" d="
M40.472 194.661
L41.3893 115.3
L42.3065 201.184
L43.2238 186.032
L44.1411 186.52
L45.0583 98.0722
L45.9756 126.024
L46.8928 177.609
L47.8101 140.538
L48.7274 153.726
L49.6446 194.17
L50.5619 185.831
L51.4791 106.146
L52.3964 143.548
L53.3137 147.796
L54.2309 196.158
L55.1482 192.43
L56.0654 185.81
L56.9827 172.233
L57.9 150.272
L58.8172 197.001
L59.7345 197.946
L60.6517 195.778
L61.569 196.264
L62.4863 202.259
L63.4035 210.207
L64.3208 179.112
L65.238 160.287
L66.1553 197.879
L67.0726 191.944
L67.9898 176.761
L68.9071 177.293
L69.8243 185.404
L70.7416 192.001
L71.6589 189.2
L72.5761 181.773
L73.4934 182.463
L74.4107 159.989
L75.3279 155.432
L76.2452 193.995
L77.1624 180.149
L78.0797 196.661
L78.997 179.928
L79.9142 209.33
L80.8315 205.731
L81.7487 204.233
L82.666 206.014
L83.5833 181.23
L84.5005 172.808
L85.4178 170.131
L86.335 91.7303
L87.2523 88.7568
L88.1696 167.917
L89.0868 188.84
L90.0041 142.475
L91.8386 175.446
L92.7559 140.919
L93.6731 133.906
L94.5904 166.318
L95.5076 156.452
L96.4249 169.566
L97.3422 155.451
L98.2594 135.922
L99.1767 172.85
L100.094 164.239
L101.011 120.199
L101.928 117.46
L102.846 129.473
L103.763 186.774
L104.68 154.164
L105.598 108.859
L106.515 108.351
L107.432 120.168
L108.349 126.925
L109.267 75.8227
L110.184 88.0021
L111.101 135.521
L112.018 168.816
L112.936 120.073
L113.853 101.155
L115.687 172.704
L116.605 147.677
L117.522 89.7766
L119.356 179.407
L120.274 153.873
L121.191 181.724
L122.108 176.217
L123.025 153.319
L123.943 149.014
L124.86 153.961
L125.777 145.417
L126.694 149.346
L127.612 138.861
L128.529 91.3248
L129.446 92.8746
L130.364 94.1614
L131.281 148.455
L132.198 174.341
L133.115 119.731
L134.033 91.7474
L134.95 108.163
L135.867 110.046
L136.784 87.182
L137.702 74.6479
L138.619 130.876
L139.536 173.715
L140.453 160.926
L141.371 70.2049
L142.288 56.5388
L143.205 51.9806
L144.122 59.1515
L145.04 151.749
L145.957 154.487
L146.874 151.927
L147.791 171.797
L148.709 157.687
L149.626 105.305
L150.543 133.551
L151.461 65.8979
L152.378 77.0094
L153.295 106.451
L154.212 27.5345
L155.13 67.19
L156.047 57.0219
L156.964 136.907
L157.881 104.244
L158.799 54.8635
L159.716 77.5189
L160.633 56.0858
L161.55 62.5698
L162.468 76.902
L164.302 167.324
L165.219 115.067
L166.137 100.463
L167.054 100.465
L167.971 195.474
L168.888 145.564
L170.723 79.7869
L171.64 138.636
L172.558 143.076
L173.475 138.789
L174.392 137.069
L175.309 81.5493
L176.227 153.104
L177.144 152.255
L178.061 179.116
L178.978 122.321
L179.896 184.278
L180.813 132.696
L181.73 170.173
L182.647 112.706
L183.565 93.6714
L184.482 132.759
L185.399 158.034
L186.316 99.7872
L187.234 66.1088
L188.151 72.6088
L189.068 82.9187
L189.985 98.5834
L190.903 91.7001
L191.82 114.883
L192.737 58.9749
L193.654 82.74
L194.572 130.824
L195.489 133.556
L196.406 83.29
L197.324 77.2894
L198.241 114.668
L199.158 127.541
L200.075 93.2228
L200.993 90.5646
L201.91 103.146
L202.827 132.482
L203.744 109.537
L204.662 97.9357
L205.579 108.097
L206.496 123.112
L207.413 80.7672
L208.331 87.9412
L209.248 86.3122
L210.165 81.694
L211.082 85.3069
L212 96.3036
L212.917 96.4499
L213.834 98.1177
L214.751 92.747
L215.669 55.1801
L216.586 72.9139
L217.503 77.4197
L218.421 92.8988
L219.338 86.5616
L220.255 85.757
L221.172 76.5089
L222.09 81.923
L223.007 75.6108
L223.924 39.6662
L224.841 32.063
L225.759 49.6612
L226.676 54.2329
L227.593 101.359
L228.51 52.929
L229.428 68.6748
L230.345 58.4676
L231.262 81.2307
L233.097 42.4133
L234.014 45.4107
L234.931 68.0762
L235.848 95.6716
L237.683 111.779
L238.6 99.1593
L239.518 103.938
L240.435 110.934
L241.352 127.917
L242.269 151.383
L243.187 122.49
L244.104 98.3138
L245.021 103.455
L245.938 94.0604
L246.856 97.0511
L247.773 96.2448
L248.69 99.4751
L249.607 88.4321
L250.525 85.7371
L251.442 87.2069
L252.359 80.7224
L253.276 90.2866
L254.194 81.2638
L255.111 91.3297
L256.028 111.849
L256.945 79.2664
L257.863 87.5561
L258.78 161.173
L259.697 122.735
L260.614 134.531
L261.532 132.128
L262.449 98.9352
L263.366 88.6229
L264.284 100.339
L265.201 93.3975
L266.118 68.3471
L267.035 65.7924
L267.953 138.322
L268.87 193.251
L269.787 132.712
L270.704 84.7443
L271.622 83.0218
L272.539 91.8202
L273.456 97.2928
L274.373 95.5882
L275.291 88.9648
L276.208 100.983
L277.125 93.465
L278.042 121.071
L278.96 129.713
L279.877 97.0833
L280.794 85.384
L281.711 89.7835
L282.629 85.2834
L283.546 97.6889
L284.463 93.6231
L285.381 92.3056
L286.298 98.6176
L287.215 102.531
L288.132 92.4322
L289.05 103.846
L289.967 105.187
L290.884 130.382
L291.801 180.847
L292.719 166.209
L293.636 142.99
L294.553 130.973
L295.47 176.284
L296.388 140.883
L297.305 145.525
L298.222 142.828
L299.139 86.8832
L300.057 84.018
L300.974 83.9216
L301.891 97.6143
L302.808 122.769
L303.726 103.503
L304.643 69.9537
L305.56 63.7763
L306.478 82.4602
L307.395 92.788
L308.312 93.98
L309.229 157.009
L310.147 194.609
L311.064 169.572
L311.981 182.726
L312.898 150.721
L313.816 86.2845
L314.733 87.6613
L315.65 110.549
L316.567 163.192
L317.485 134.181
L318.402 118.418
L319.319 118.271
L320.236 100.018
L321.154 115.613
L322.071 118.414
L322.988 163.301
L323.905 175.983
L324.823 135.304
L325.74 189.245
L326.657 181.985
L327.574 159.113
L328.492 153.836
L329.409 190.556
L330.326 194.238
M333.078 123.264
L333.995 175.348
L334.913 190.686
L335.83 171.527
L336.747 185.996
L337.664 171.746
L338.582 166.987
L339.499 140.825
L340.416 137.259
L341.333 147.08
L342.251 190.001
L343.168 162.864
L344.085 124.527
L345.002 196.996
L345.92 202.245
L346.837 163.331
L347.754 195.139
L348.671 186.501
L349.589 169.2
L350.506 187.031
L351.423 148.2
L352.341 176.326
L353.258 166.552
L354.175 185.463
L355.092 178.022
L356.01 164.861
L356.927 174.202
L357.844 172.162
L358.761 148.884
L359.679 121.995
L360.596 166.152
L361.513 191.012
L362.43 173.193
L363.348 158.508
L364.265 183.785
L365.182 176.217
L366.099 137.555
L367.017 71.8467
L367.934 144.557
L368.851 175.791
L369.768 183.399
L370.686 188.987
L371.603 176.837
L372.52 191.196
L372.52 191.196" style="fill:none;stroke:#0000ff;stroke-linecap:square;"/>
   </g>
   <g id="line2d_2">
    <path clip-path="url(#pa986dbe5e9)" d="
M38.6375 155.988
L39.5548 146.954
L40.472 187.27
L41.3893 187.613
L42.3065 144.527
L43.2238 120.503
L44.1411 124.743
L45.0583 164.762
L45.9756 177.534
L46.8928 181.287
L47.8101 147.474
L48.7274 159.427
L49.6446 196.348
L50.5619 187.693
L51.4791 191.166
L52.3964 204.067
L54.2309 185.168
L55.1482 185.015
L56.0654 139.717
L56.9827 176.423
L57.9 196.654
L58.8172 143.678
L59.7345 180.214
L60.6517 193.922
L61.569 165.287
L62.4863 149.681
L63.4035 154.84
L64.3208 160.725
L65.238 181.894
L66.1553 163.178
L67.0726 113.96
L67.9898 91.6158
L68.9071 122.972
L69.8243 180.179
L70.7416 178.364
L71.6589 158.534
L72.5761 171.696
L73.4934 162.532
L74.4107 171.243
L77.1624 114.135
L78.0797 110.949
L78.997 114.813
L79.9142 122.112
L81.7487 168.948
L82.666 175.112
L83.5833 166.241
L84.5005 187.947
L85.4178 193.095
L86.335 182.557
L87.2523 156.632
L88.1696 144.098
L89.0868 159.256
L90.0041 127.468
L90.9213 142.068
L91.8386 120.927
L92.7559 119.38
L93.6731 162.716
L94.5904 165.626
L95.5076 172.331
L96.4249 165.818
L97.3422 172.223
L98.2594 170.976
L99.1767 194.429
L101.011 153.451
L101.928 175.867
L102.846 174.591
L103.763 175.169
L104.68 166.388
L105.598 170.651
L106.515 204.607
L107.432 186.73
L108.349 151.492
L109.267 172.377
L110.184 160.244
L111.101 184.752
L112.018 186.912
L112.936 157.367
L113.853 170.008
L114.77 168.367
L115.687 197.988
L116.605 188.705
L117.522 174.206
L118.439 178.701
L119.356 184.627
L120.274 155.128
L121.191 144.903
L122.108 164.637
L123.943 121.729
L124.86 165.531
L125.777 161.524
L126.694 164.026
L127.612 155.173
L128.529 168.277
L129.446 144.809
L130.364 169.363
L131.281 141.631
L132.198 166.978
L133.115 149.212
L134.033 153.941
L134.95 168.771
L135.867 154.593
L136.784 162.623
L137.702 97.5748
L138.619 141.166
L139.536 176.726
L140.453 129.477
L141.371 111.362
L143.205 170.22
L144.122 159.147
L145.04 133.12
L145.957 159.039
L146.874 144.626
L147.791 140.769
L148.709 116.431
L149.626 137.412
L150.543 129.073
L151.461 119.227
L152.378 100.733
L153.295 155.793
L154.212 146.016
L155.13 170.701
L156.047 137.014
L156.964 89.6951
L157.881 89.5346
L158.799 104.172
L159.716 97.8461
L160.633 136.971
L161.55 169.362
L162.468 166.896
L163.385 135.069
L164.302 147.516
L165.219 74.4651
L167.054 137.667
L167.971 114.323
L168.888 142.624
L170.723 119.847
L171.64 156.24
L172.558 176.075
L173.475 146.258
L174.392 184.643
L175.309 149.485
L176.227 123.124
L177.144 119.631
L178.061 160.146
L178.978 107.149
L179.896 76.5862
L180.813 104.985
L181.73 150.846
L182.647 160.724
L183.565 103.259
L186.316 128.628
L187.234 135.029
L188.151 148.288
L189.068 89.5221
L189.985 62.7131
L190.903 102.062
L191.82 72.7264
L192.737 146.749
L193.654 145.354
L194.572 110.475
L195.489 102.432
L196.406 101.851
L197.324 102.738
L198.241 84.5337
L199.158 63.1173
L200.075 67.3232
L200.993 94.4916
L201.91 105.426
L202.827 131.969
L203.744 117.564
L204.662 85.1946
L205.579 94.3751
L206.496 100.082
L207.413 111.283
L208.331 105.639
L209.248 102.883
L210.165 130.502
L211.082 102.406
L212 80.3165
L212.917 101.975
L213.834 111.677
L214.751 113.389
L215.669 120.552
L216.586 132.093
L217.503 101.4
L218.421 113.751
L219.338 104.633
L220.255 101.483
L221.172 104.289
L222.09 101.241
L223.007 94.7759
L223.924 104.242
L224.841 88.7532
L225.759 109.282
L226.676 100.985
L227.593 110.699
L228.51 101.309
L229.428 94.846
L230.345 101.692
L232.179 135.28
L233.097 120.572
L234.014 115.639
L234.931 111.977
L235.848 127.21
L236.766 110.854
L237.683 106.275
L238.6 116.998
L239.518 107.762
L240.435 104.163
L241.352 102.676
L242.269 95.7872
L243.187 98.4059
L244.104 106.528
L245.021 101.269
L245.938 93.9901
L246.856 97.7967
L247.773 103.862
L248.69 101.806
L249.607 95.4537
L250.525 110.574
L251.442 119.92
L252.359 112.271
L253.276 108.607
L254.194 114.586
L255.111 118.768
L256.028 116.973
L256.945 129.04
L257.863 120.839
L258.78 115.709
L259.697 106.832
L260.614 96.0395
L261.532 94.1257
L262.449 93.5379
L263.366 96.2706
L264.284 94.7262
L265.201 100.779
L266.118 112.9
L267.035 112.014
L267.953 112.386
L268.87 116.601
L269.787 113.5
L270.704 131.123
L271.622 121.075
L272.539 125.719
L273.456 116.339
L274.373 158.802
L275.291 175.714
L276.208 99.2477
L277.125 99.3611
L278.042 112.28
L278.96 106.565
L279.877 97.6646
L280.794 109.228
L281.711 110.72
L282.629 110.393
L283.546 122.545
L284.463 113.214
L285.381 109.725
L286.298 110.483
L287.215 103.555
L288.132 120.902
L289.05 118.301
L289.967 114.763
L290.884 122.35
L291.801 169.543
L292.719 191.442
L293.636 199.793
L294.553 201.689
L295.47 150.02
L296.388 120.917
L297.305 168.489
L298.222 153.155
L299.139 122.315
L300.057 108.265
L300.974 114.541
L301.891 137.069
L302.808 178.755
L303.726 122.018
L304.643 101.428
L305.56 126.209
L306.478 115.377
L307.395 125.684
L308.312 141.458
L309.229 128.254
L310.147 159.472
L311.064 89.1372
L311.981 56.3829
L312.898 75.0924
L313.816 88.583
L314.733 107.293
L315.65 130.558
L316.567 150.727
L318.402 70.3807
L319.319 84.2103
L320.236 144.04
L321.154 186.655
L322.071 186.359
L322.988 164.38
L323.905 148.078
L324.823 115.727
L325.74 92.6522
L326.657 123.835
L327.574 160.572
L328.492 162.745
L329.409 139.24
L330.326 129.352
L331.244 117.138
L332.161 173.253
L333.078 183.804
L333.995 168.451
L334.913 136.997
L335.83 152.855
L336.747 165.906
L337.664 118.041
L338.582 147.37
L339.499 146.127
L340.416 63.4673
L341.333 81.0994
L342.251 139.517
L343.168 175.07
L344.085 159.571
L345.002 95.5161
L345.92 99.8205
L346.837 114.331
L347.754 134.373
L348.671 113.584
L349.589 99.2097
L350.506 109.534
L351.423 103.612
L352.341 86.8226
L353.258 107.306
L354.175 113.357
L355.092 112.842
L356.01 124.305
L356.927 129.637
L357.844 145.835
L358.761 151.34
L359.679 140.984
L360.596 135.049
L361.513 109.925
L362.43 105.68
L363.348 128.911
L364.265 51.6494
L365.182 61.2577
L366.099 75.258
L367.017 93.5471
L367.934 107.448
L368.851 138.871
L369.768 188.975
L370.686 165.866
L371.603 189.848
L372.52 148.786
L372.52 148.786" style="fill:none;stroke:#008000;stroke-linecap:square;"/>
   </g>
   <g id="line2d_3">
    <path clip-path="url(#pa986dbe5e9)" d="
M38.6375 90.6661
L39.5548 109.307
L40.472 107.665
L41.3893 93.8647
L42.3065 128.144
L43.2238 136.054
L44.1411 148.83
L45.0583 146.98
L45.9756 143.535
L46.8928 166.674
L47.8101 128.715
L48.7274 97.4832
L49.6446 57.9448
L50.5619 69.6736
L51.4791 119.79
L52.3964 133.755
L53.3137 93.4397
L54.2309 144.344
L55.1482 203.154
L56.0654 203.148
L56.9827 198.216
L57.9 173.32
L58.8172 193.648
L59.7345 167.091
L60.6517 175.217
L61.569 177.213
L64.3208 87.9678
L65.238 167.453
L66.1553 137.158
L67.9898 182.52
L68.9071 153.873
L69.8243 134.385
L70.7416 133.769
L71.6589 133.341
L72.5761 104.715
L73.4934 156.8
L74.4107 182.784
L75.3279 172.424
L76.2452 180.099
L77.1624 193.968
L78.0797 169.874
L78.997 171.78
L79.9142 179.539
L80.8315 137.883
L81.7487 152.023
L82.666 168.711
L83.5833 143.192
L84.5005 148.574
L85.4178 193.498
L87.2523 144.84
L88.1696 108.334
L89.0868 155.998
L90.0041 140.759
L90.9213 122.181
L91.8386 129.612
L92.7559 150.987
L93.6731 163.387
L94.5904 159.468
L95.5076 178.696
L96.4249 152.489
L97.3422 120.94
L98.2594 164.448
L99.1767 112.45
L100.094 107.773
L101.011 104.06
L101.928 94.2197
L102.846 139.88
L103.763 148.815
L104.68 150.381
L105.598 199.592
L106.515 179.031
L107.432 171.229
L108.349 160.456
L109.267 182.715
L110.184 150.039
L111.101 166.669
L112.018 160.91
L112.936 118.951
L113.853 136.696
L114.77 102.941
L115.687 148.148
L116.605 183.022
L117.522 134.996
L118.439 168.67
L119.356 167.641
L120.274 186.898
L121.191 124.498
L122.108 132.532
L123.025 142.45
L123.943 100.244
L124.86 139.281
L125.777 133.568
L126.694 139.65
L127.612 78.5197
L128.529 56.1612
L129.446 75.4421
L130.364 75.5685
L131.281 139.106
L132.198 100.687
L133.115 137.234
L134.033 82.7698
L134.95 65.6288
L135.867 144.794
L136.784 113.589
L137.702 132.658
L138.619 157.85
L140.453 88.5607
L141.371 93.9393
L142.288 126.751
L143.205 122.511
L144.122 139.033
L145.04 187.994
L145.957 136.078
L147.791 80.5929
L148.709 157.372
L149.626 102.767
L150.543 93.7423
L151.461 148.434
L152.378 160.019
L153.295 119.594
L154.212 90.7279
L155.13 67.1677
L156.047 75.5822
L156.964 93.692
L157.881 60.8475
L158.799 58.6556
L159.716 65.4375
L160.633 75.3881
L161.55 91.9976
L162.468 119.714
L163.385 86.6674
L164.302 109.507
L165.219 85.6116
L166.137 58.011
L167.054 79.5633
L167.971 135.706
L168.888 132.655
L169.806 139.405
L170.723 101.27
L171.64 162.162
L172.558 171.893
L173.475 138.897
L174.392 81.4584
L175.309 84.2761
L176.227 80.0763
L177.144 97.2866
L178.061 95.079
L178.978 117.354
L179.896 112.733
L181.73 155.318
L182.647 93.0507
L183.565 104.823
L184.482 114.507
L185.399 144.696
L186.316 109.178
L187.234 65.4645
L188.151 109.361
L189.068 98.1163
L189.985 61.1026
L190.903 121.385
L191.82 89.9374
L192.737 93.3298
L193.654 84.903
L194.572 111.506
L195.489 75.844
L196.406 88.7027
L197.324 139.771
L198.241 98.6702
L199.158 90.7873
L200.075 86.6907
L200.993 104.753
L201.91 74.369
L202.827 92.9072
L203.744 93.0996
L204.662 101.113
L205.579 123.938
L206.496 104.168
L207.413 95.6252
L208.331 90.1563
L209.248 107.603
L210.165 113.783
L211.082 109.951
L212 138.524
L212.917 114.726
L213.834 114.207
L214.751 120.689
L215.669 113.57
L216.586 135.044
L217.503 152.63
L218.421 135.094
L219.338 126.208
L220.255 108.462
L221.172 105.426
L222.09 113.361
L223.007 103.346
L223.924 103.643
L224.841 108.331
L226.676 101.696
L227.593 112.568
L228.51 108.634
L229.428 112.464
L230.345 110.699
L231.262 108.292
L232.179 107.18
L233.097 108.54
L234.014 100.424
L234.931 95.2342
L235.848 100.626
L236.766 101.854
L237.683 109.913
L238.6 111.394
L240.435 117.822
L241.352 117.825
L242.269 127.563
L243.187 109.362
L244.104 113.917
L245.021 113.083
L245.938 111.346
L246.856 109.314
L247.773 114.107
L248.69 111.679
L249.607 109.616
L250.525 130.416
L251.442 115.617
L252.359 119.304
L253.276 110.296
L254.194 103.083
L255.111 77.8363
L256.028 91.7721
L256.945 121.396
L257.863 127.127
L258.78 110.464
L259.697 103.393
L260.614 99.3167
L261.532 121.33
L262.449 111.916
L263.366 82.7816
L264.284 90.7708
L265.201 93.7164
L266.118 102.18
L267.035 117.212
L267.953 96.3152
L268.87 98.2449
L269.787 115.658
L270.704 99.6695
L271.622 93.8158
L272.539 70.3901
L273.456 92.9888
L274.373 99.1517
L275.291 99.6385
L276.208 102.291
L277.125 95.8271
L278.042 100.049
L279.877 110.51
L280.794 110.396
L281.711 106.706
L282.629 158.45
L283.546 133.81
L284.463 134.41
L285.381 123.365
L286.298 106.815
L287.215 115.109
L288.132 113.861
L289.05 110.928
L289.967 106.059
L290.884 100.464
L291.801 68.0981
L292.719 70.3762
L293.636 66.4832
L294.553 63.5463
L295.47 71.9782
L296.388 72.8924
L297.305 90.8396
L298.222 99.2603
L299.139 99.5274
L300.057 99.0523
L300.974 156.116
L301.891 134.593
L302.808 143.003
L303.726 141.382
L304.643 105.588
L305.56 96.9598
L306.478 118.283
L307.395 154.799
L308.312 108.082
L309.229 172.393
L310.147 157.078
L311.064 170.129
L311.981 149.67
L312.898 124.014
L313.816 158.13
M315.65 130.01
L316.567 127.477
L317.485 109.972
L318.402 146.755
L319.319 132.716
L320.236 137.893
L321.154 134.074
L322.071 154.518
L322.988 132.266
L323.905 143.847
L325.74 180.033
L326.657 169.342
L327.574 166.721
L328.492 149.455
M330.326 172.724
L331.244 139.018
L333.078 176.793
L333.995 154.749
L334.913 173.204
L335.83 167.428
L336.747 169.561
L337.664 136.898
L338.582 100.095
L339.499 151.719
L340.416 171.92
L341.333 149.421
L342.251 136.214
L343.168 153.32
L344.085 166.448
L345.002 176.791
L345.92 175.556
L346.837 183.068
L347.754 139.553
L348.671 166.947
L349.589 189.387
L351.423 158.129
L352.341 174.28
L353.258 122.763
L354.175 187.821
L355.092 155.491
L356.01 197.375
L356.927 169.091
L357.844 196.623
L358.761 187.772
L359.679 180.353
L360.596 168.081
L361.513 173.852
L362.43 157.431
L363.348 99.4719
L364.265 83.2675
L365.182 138.614
L366.099 178.643
L367.017 188.444
L367.934 147.698
L368.851 175.937
L369.768 183.147
L370.686 183.612
L371.603 160.471
L372.52 190.059
L372.52 190.059" style="fill:none;stroke:#ff0000;stroke-linecap:square;"/>
   </g>
   <g id="line2d_4">
    <path clip-path="url(#pa986dbe5e9)" d="
M38.6375 176.978
L39.5548 178.671
L41.3893 125.899
L42.3065 161.854
L43.2238 152.999
L44.1411 181.738
L45.0583 203.54
L45.9756 215.899
M47.8101 207.704
L48.7274 207.265
L49.6446 201.126
L50.5619 180.85
L51.4791 202.186
L52.3964 178.849
L53.3137 140.568
L54.2309 117.972
L55.1482 124.165
L56.0654 116.279
L56.9827 116.702
L57.9 120.07
L58.8172 112.733
L59.7345 169.603
L60.6517 203.028
L61.569 201.563
L62.4863 207.123
L63.4035 201.69
L64.3208 203.104
L65.238 205.054
L66.1553 210.204
L67.0726 202.539
L67.9898 191.598
L68.9071 178.012
L69.8243 160.686
L70.7416 161.908
L71.6589 179.089
L72.5761 169.133
L73.4934 185.901
L74.4107 175.723
L75.3279 157.059
L76.2452 143.029
L77.1624 182.148
L78.0797 186.766
L78.997 180.282
L79.9142 169.829
L80.8315 174.675
L81.7487 183.107
L82.666 137.966
L83.5833 163.63
L84.5005 172.854
L85.4178 159.34
L86.335 194.828
L87.2523 190.709
L88.1696 182.793
L89.0868 176.06
L90.0041 171.687
L90.9213 149.107
L91.8386 173.411
L92.7559 182.311
L93.6731 176.027
L94.5904 162.895
L95.5076 122.947
L96.4249 130.531
L97.3422 165.399
L98.2594 156.588
L99.1767 138.186
L100.094 127.907
L101.011 107.212
L101.928 171.908
L102.846 164.95
L103.763 135.318
L104.68 128.744
L105.598 136.61
L106.515 148.534
L107.432 141.889
L108.349 138.47
L109.267 81.3033
L110.184 153.077
L111.101 142.963
L112.018 161.727
L112.936 129.376
L113.853 101.035
L114.77 100.244
L115.687 165.808
L116.605 148.165
L117.522 121.501
L118.439 124.511
L119.356 110.18
L120.274 114.48
L121.191 137.516
L122.108 118.717
L123.025 109.324
L123.943 153.273
L124.86 154.384
L125.777 175.401
L126.694 171.048
L127.612 128.727
L128.529 97.1057
L129.446 145.544
L130.364 109.206
L131.281 83.2427
L132.198 146.196
L133.115 118.062
L134.033 121.56
L134.95 96.6852
L135.867 66.1776
L136.784 69.5435
L137.702 174.183
L138.619 143.559
L139.536 119.245
L140.453 101.911
L141.371 82.2237
L142.288 66.2611
L143.205 76.5576
L144.122 92.3285
L145.04 101.771
L145.957 87.4373
L146.874 121.925
L147.791 103.038
L148.709 73.5281
L149.626 65.4027
L150.543 87.0945
L151.461 129.096
L152.378 99.9259
L153.295 133.445
L154.212 134.99
L155.13 130.182
L156.047 117.191
L156.964 112.859
L157.881 115.216
L158.799 116.548
L159.716 116.295
L160.633 107.096
L161.55 109.83
L163.385 170.624
L164.302 125.669
L165.219 144.169
L166.137 100.534
L167.054 116.425
L167.971 103.709
L168.888 64.2386
L169.806 83.0363
L170.723 90.5659
L171.64 150.04
L172.558 143.737
L173.475 178.867
L174.392 168.654
L175.309 121.517
L176.227 99.973
L178.061 92.9192
L178.978 92.531
L179.896 103.373
L180.813 103.884
L181.73 115.083
L182.647 113.078
L183.565 113.178
L184.482 110.913
L185.399 117.702
L186.316 120.865
L187.234 101.754
L188.151 136.351
L189.068 123.366
L189.985 90.2577
L190.903 115.072
L191.82 111.922
L192.737 112.855
L193.654 170.16
L194.572 125.113
L195.489 127.889
L196.406 119.015
L197.324 116.909
L198.241 169.619
L199.158 189.232
L200.075 145.686
L200.993 119.211
L201.91 122.235
L202.827 130.664
L203.744 126.277
L204.662 134.067
L205.579 131.544
L206.496 148.11
L207.413 122.592
L208.331 112.607
L209.248 119.044
L210.165 121.071
L211.082 117.609
L212 113.45
L213.834 133.508
L215.669 103.399
L216.586 108.954
L217.503 118.747
L218.421 148.562
L219.338 127.709
L220.255 114.078
L221.172 119.62
L222.09 119.511
L223.007 114.746
L223.924 110.588
L224.841 115.632
L225.759 123.531
L226.676 122.869
L227.593 129.445
L228.51 123.986
L229.428 117.129
L230.345 114.026
L231.262 112.793
L232.179 124.694
L233.097 124.603
L234.014 112.823
L234.931 107.223
L235.848 115.454
L236.766 117.974
L237.683 117.797
L238.6 124.379
L239.518 124.131
L240.435 129.997
L241.352 127.104
L242.269 128.732
L243.187 132.816
L244.104 131.355
L245.021 124.577
L245.938 128.28
L246.856 127.177
L247.773 127.057
L248.69 127.309
L249.607 127.368
L250.525 125.058
L251.442 123.725
L252.359 153.53
L253.276 137.323
L254.194 138.334
L255.111 133.438
L256.028 126.781
L256.945 130.701
L257.863 146.093
L258.78 137.027
L259.697 126.15
L260.614 126.284
L261.532 131.277
L262.449 155.393
L263.366 176.08
L264.284 164.961
L265.201 169.515
L267.035 126.223
L267.953 126.864
L268.87 133.193
L269.787 134.341
L270.704 141.935
L271.622 172.58
L272.539 155.177
L273.456 163.349
L274.373 146.882
L275.291 140.01
L276.208 158.849
L277.125 167.459
L278.042 119.49
L278.96 118.257
L279.877 148.789
L280.794 169.375
L281.711 143.031
L282.629 178.09
L283.546 197.643
L284.463 184.007
L285.381 151.845
L286.298 145.223
L287.215 178.64
L288.132 150.504
L289.05 164.098
L289.967 149.573
L290.884 175.426
L291.801 121.488
L292.719 103.66
L293.636 109.139
L294.553 127.241
L295.47 167.58
L296.388 141.361
L297.305 148.253
L299.139 132.242
L300.057 143.859
L301.891 129.406
L302.808 122.853
L303.726 131.642
L304.643 117.601
L305.56 120.684
L306.478 134.755
L307.395 135.541
L308.312 125.153
L309.229 130.596
L310.147 131.72
L311.064 130.469
L311.981 134.34
L312.898 135.991
L313.816 183.66
L314.733 190.938
L315.65 181.679
L316.567 184.709
L317.485 183.068
L318.402 189.467
L319.319 186.168
L320.236 159.927
L321.154 170.806
L322.071 191.326
L322.988 181.747
L323.905 149.709
L324.823 139.537
L325.74 143.542
L326.657 135.834
L327.574 137.188
L328.492 160.913
L329.409 171.383
L331.244 185.637
L332.161 177.72
L333.078 150.857
L333.995 184.408
L334.913 188.676
L335.83 131.205
L336.747 123.026
L337.664 119.882
L338.582 125.382
L339.499 120.989
L340.416 135.464
L341.333 134.122
L343.168 147.537
L344.085 182.013
L345.002 189.918
L345.92 178.69
L346.837 150.697
L347.754 180.588
L348.671 168.107
L349.589 162.016
L350.506 178.285
L351.423 170.083
L352.341 132.723
L353.258 148.77
L354.175 175.79
L355.092 156.371
L356.01 166.448
L356.927 173.776
L357.844 135.454
L358.761 138.967
L359.679 119.964
L360.596 162.921
L361.513 177.1
L362.43 153.931
L363.348 190.223
L364.265 199.543
L365.182 188.119
L366.099 173.54
L367.934 114.003
L368.851 117.83
L369.768 159.963
L370.686 144.499
L371.603 160.257
L372.52 170.795
L372.52 170.795" style="fill:none;stroke:#00bfbf;stroke-linecap:square;"/>
   </g>
   <g id="patch_3">
    <path d="
M38.6375 21.3181
L373.438 21.3181" style="fill:none;stroke:#000000;stroke-linecap:square;stroke-linejoin:miter;"/>
   </g>
   <g id="patch_4">
    <path d="
M373.438 244.518
L373.438 21.3181" style="fill:none;stroke:#000000;stroke-linecap:square;stroke-linejoin:miter;"/>
   </g>
   <g id="patch_5">
    <path d="
M38.6375 244.518
L373.438 244.518" style="fill:none;stroke:#000000;stroke-linecap:square;stroke-linejoin:miter;"/>
   </g>
   <g id="patch_6">
    <path d="
M38.6375 244.518
L38.6375 21.3181" style="fill:none;stroke:#000000;stroke-linecap:square;stroke-linejoin:miter;"/>
   </g>
   <g id="matplotlib.axis_1">
    <g id="xtick_1">
     <g id="line2d_5">
      <defs>
       <path d="
M0 0
L0 -4" id="m93b0483c22" style="stroke:#000000;stroke-width:0.5;"/>
      </defs>
      <g>
       <use style="stroke:#000000;stroke-width:0.5;" x="38.6375" xlink:href="#m93b0483c22" y="244.518125"/>
      </g>
     </g>
     <g id="line2d_6">
      <defs>
       <path d="
M0 0
L0 4" id="m741efc42ff" style="stroke:#000000;stroke-width:0.5;"/>
      </defs>
      <g>
       <use style="stroke:#000000;stroke-width:0.5;" x="38.6375" xlink:href="#m741efc42ff" y="21.318125"/>
      </g>
     </g>
     <g id="text_1">
      <!-- 0 -->
      <defs>
       <path d="
M31.7812 66.4062
Q24.1719 66.4062 20.3281 58.9062
Q16.5 51.4219 16.5 36.375
Q16.5 21.3906 20.3281 13.8906
Q24.1719 6.39062 31.7812 6.39062
Q39.4531 6.39062 43.2812 13.8906
Q47.125 21.3906 47.125 36.375
Q47.125 51.4219 43.2812 58.9062
Q39.4531 66.4062 31.7812 66.4062
M31.7812 74.2188
Q44.0469 74.2188 50.5156 64.5156
Q56.9844 54.8281 56.9844 36.375
Q56.9844 17.9688 50.5156 8.26562
Q44.0469 -1.42188 31.7812 -1.42188
Q19.5312 -1.42188 13.0625 8.26562
Q6.59375 17.9688 6.59375 36.375
Q6.59375 54.8281 13.0625 64.5156
Q19.5312 74.2188 31.7812 74.2188" id="BitstreamVeraSans-Roman-30"/>
      </defs>
      <g transform="translate(36.11796875 256.1165625)scale(0.1 -0.1)">
       <use xlink:href="#BitstreamVeraSans-Roman-30"/>
      </g>
     </g>
    </g>
    <g id="xtick_2">
     <g id="line2d_7">
      <g>
       <use style="stroke:#000000;stroke-width:0.5;" x="84.5005136986" xlink:href="#m93b0483c22" y="244.518125"/>
      </g>
     </g>
     <g id="line2d_8">
      <g>
       <use style="stroke:#000000;stroke-width:0.5;" x="84.5005136986" xlink:href="#m741efc42ff" y="21.318125"/>
      </g>
     </g>
     <g id="text_2">
      <!-- 50 -->
      <defs>
       <path d="
M10.7969 72.9062
L49.5156 72.9062
L49.5156 64.5938
L19.8281 64.5938
L19.8281 46.7344
Q21.9688 47.4688 24.1094 47.8281
Q26.2656 48.1875 28.4219 48.1875
Q40.625 48.1875 47.75 41.5
Q54.8906 34.8125 54.8906 23.3906
Q54.8906 11.625 47.5625 5.09375
Q40.2344 -1.42188 26.9062 -1.42188
Q22.3125 -1.42188 17.5469 -0.640625
Q12.7969 0.140625 7.71875 1.70312
L7.71875 11.625
Q12.1094 9.23438 16.7969 8.0625
Q21.4844 6.89062 26.7031 6.89062
Q35.1562 6.89062 40.0781 11.3281
Q45.0156 15.7656 45.0156 23.3906
Q45.0156 31 40.0781 35.4375
Q35.1562 39.8906 26.7031 39.8906
Q22.75 39.8906 18.8125 39.0156
Q14.8906 38.1406 10.7969 36.2812
z
" id="BitstreamVeraSans-Roman-35"/>
      </defs>
      <g transform="translate(78.8559824486 256.1165625)scale(0.1 -0.1)">
       <use xlink:href="#BitstreamVeraSans-Roman-35"/>
       <use x="63.623046875" xlink:href="#BitstreamVeraSans-Roman-30"/>
      </g>
     </g>
    </g>
    <g id="xtick_3">
     <g id="line2d_9">
      <g>
       <use style="stroke:#000000;stroke-width:0.5;" x="130.363527397" xlink:href="#m93b0483c22" y="244.518125"/>
      </g>
     </g>
     <g id="line2d_10">
      <g>
       <use style="stroke:#000000;stroke-width:0.5;" x="130.363527397" xlink:href="#m741efc42ff" y="21.318125"/>
      </g>
     </g>
     <g id="text_3">
      <!-- 100 -->
      <defs>
       <path d="
M12.4062 8.29688
L28.5156 8.29688
L28.5156 63.9219
L10.9844 60.4062
L10.9844 69.3906
L28.4219 72.9062
L38.2812 72.9062
L38.2812 8.29688
L54.3906 8.29688
L54.3906 0
L12.4062 0
z
" id="BitstreamVeraSans-Roman-31"/>
      </defs>
      <g transform="translate(121.701027397 256.1165625)scale(0.1 -0.1)">
       <use xlink:href="#BitstreamVeraSans-Roman-31"/>
       <use x="63.623046875" xlink:href="#BitstreamVeraSans-Roman-30"/>
       <use x="127.24609375" xlink:href="#BitstreamVeraSans-Roman-30"/>
      </g>
     </g>
    </g>
    <g id="xtick_4">
     <g id="line2d_11">
      <g>
       <use style="stroke:#000000;stroke-width:0.5;" x="176.226541096" xlink:href="#m93b0483c22" y="244.518125"/>
      </g>
     </g>
     <g id="line2d_12">
      <g>
       <use style="stroke:#000000;stroke-width:0.5;" x="176.226541096" xlink:href="#m741efc42ff" y="21.318125"/>
      </g>
     </g>
     <g id="text_4">
      <!-- 150 -->
      <g transform="translate(167.564041096 256.1165625)scale(0.1 -0.1)">
       <use xlink:href="#BitstreamVeraSans-Roman-31"/>
       <use x="63.623046875" xlink:href="#BitstreamVeraSans-Roman-35"/>
       <use x="127.24609375" xlink:href="#BitstreamVeraSans-Roman-30"/>
      </g>
     </g>
    </g>
    <g id="xtick_5">
     <g id="line2d_13">
      <g>
       <use style="stroke:#000000;stroke-width:0.5;" x="222.089554795" xlink:href="#m93b0483c22" y="244.518125"/>
      </g>
     </g>
     <g id="line2d_14">
      <g>
       <use style="stroke:#000000;stroke-width:0.5;" x="222.089554795" xlink:href="#m741efc42ff" y="21.318125"/>
      </g>
     </g>
     <g id="text_5">
      <!-- 200 -->
      <defs>
       <path d="
M19.1875 8.29688
L53.6094 8.29688
L53.6094 0
L7.32812 0
L7.32812 8.29688
Q12.9375 14.1094 22.625 23.8906
Q32.3281 33.6875 34.8125 36.5312
Q39.5469 41.8438 41.4219 45.5312
Q43.3125 49.2188 43.3125 52.7812
Q43.3125 58.5938 39.2344 62.25
Q35.1562 65.9219 28.6094 65.9219
Q23.9688 65.9219 18.8125 64.3125
Q13.6719 62.7031 7.8125 59.4219
L7.8125 69.3906
Q13.7656 71.7812 18.9375 73
Q24.125 74.2188 28.4219 74.2188
Q39.75 74.2188 46.4844 68.5469
Q53.2188 62.8906 53.2188 53.4219
Q53.2188 48.9219 51.5312 44.8906
Q49.8594 40.875 45.4062 35.4062
Q44.1875 33.9844 37.6406 27.2188
Q31.1094 20.4531 19.1875 8.29688" id="BitstreamVeraSans-Roman-32"/>
      </defs>
      <g transform="translate(213.244242295 256.1165625)scale(0.1 -0.1)">
       <use xlink:href="#BitstreamVeraSans-Roman-32"/>
       <use x="63.623046875" xlink:href="#BitstreamVeraSans-Roman-30"/>
       <use x="127.24609375" xlink:href="#BitstreamVeraSans-Roman-30"/>
      </g>
     </g>
    </g>
    <g id="xtick_6">
     <g id="line2d_15">
      <g>
       <use style="stroke:#000000;stroke-width:0.5;" x="267.952568493" xlink:href="#m93b0483c22" y="244.518125"/>
      </g>
     </g>
     <g id="line2d_16">
      <g>
       <use style="stroke:#000000;stroke-width:0.5;" x="267.952568493" xlink:href="#m741efc42ff" y="21.318125"/>
      </g>
     </g>
     <g id="text_6">
      <!-- 250 -->
      <g transform="translate(259.107255993 256.1165625)scale(0.1 -0.1)">
       <use xlink:href="#BitstreamVeraSans-Roman-32"/>
       <use x="63.623046875" xlink:href="#BitstreamVeraSans-Roman-35"/>
       <use x="127.24609375" xlink:href="#BitstreamVeraSans-Roman-30"/>
      </g>
     </g>
    </g>
    <g id="xtick_7">
     <g id="line2d_17">
      <g>
       <use style="stroke:#000000;stroke-width:0.5;" x="313.815582192" xlink:href="#m93b0483c22" y="244.518125"/>
      </g>
     </g>
     <g id="line2d_18">
      <g>
       <use style="stroke:#000000;stroke-width:0.5;" x="313.815582192" xlink:href="#m741efc42ff" y="21.318125"/>
      </g>
     </g>
     <g id="text_7">
      <!-- 300 -->
      <defs>
       <path d="
M40.5781 39.3125
Q47.6562 37.7969 51.625 33
Q55.6094 28.2188 55.6094 21.1875
Q55.6094 10.4062 48.1875 4.48438
Q40.7656 -1.42188 27.0938 -1.42188
Q22.5156 -1.42188 17.6562 -0.515625
Q12.7969 0.390625 7.625 2.20312
L7.625 11.7188
Q11.7188 9.32812 16.5938 8.10938
Q21.4844 6.89062 26.8125 6.89062
Q36.0781 6.89062 40.9375 10.5469
Q45.7969 14.2031 45.7969 21.1875
Q45.7969 27.6406 41.2812 31.2656
Q36.7656 34.9062 28.7188 34.9062
L20.2188 34.9062
L20.2188 43.0156
L29.1094 43.0156
Q36.375 43.0156 40.2344 45.9219
Q44.0938 48.8281 44.0938 54.2969
Q44.0938 59.9062 40.1094 62.9062
Q36.1406 65.9219 28.7188 65.9219
Q24.6562 65.9219 20.0156 65.0312
Q15.375 64.1562 9.8125 62.3125
L9.8125 71.0938
Q15.4375 72.6562 20.3438 73.4375
Q25.25 74.2188 29.5938 74.2188
Q40.8281 74.2188 47.3594 69.1094
Q53.9062 64.0156 53.9062 55.3281
Q53.9062 49.2656 50.4375 45.0938
Q46.9688 40.9219 40.5781 39.3125" id="BitstreamVeraSans-Roman-33"/>
      </defs>
      <g transform="translate(304.985113442 256.1165625)scale(0.1 -0.1)">
       <use xlink:href="#BitstreamVeraSans-Roman-33"/>
       <use x="63.623046875" xlink:href="#BitstreamVeraSans-Roman-30"/>
       <use x="127.24609375" xlink:href="#BitstreamVeraSans-Roman-30"/>
      </g>
     </g>
    </g>
    <g id="xtick_8">
     <g id="line2d_19">
      <g>
       <use style="stroke:#000000;stroke-width:0.5;" x="359.67859589" xlink:href="#m93b0483c22" y="244.518125"/>
      </g>
     </g>
     <g id="line2d_20">
      <g>
       <use style="stroke:#000000;stroke-width:0.5;" x="359.67859589" xlink:href="#m741efc42ff" y="21.318125"/>
      </g>
     </g>
     <g id="text_8">
      <!-- 350 -->
      <g transform="translate(350.84812714 256.1165625)scale(0.1 -0.1)">
       <use xlink:href="#BitstreamVeraSans-Roman-33"/>
       <use x="63.623046875" xlink:href="#BitstreamVeraSans-Roman-35"/>
       <use x="127.24609375" xlink:href="#BitstreamVeraSans-Roman-30"/>
      </g>
     </g>
    </g>
    <g id="text_9">
     <!-- Julian day -->
     <defs>
      <path id="BitstreamVeraSans-Roman-20"/>
      <path d="
M9.8125 72.9062
L19.6719 72.9062
L19.6719 5.07812
Q19.6719 -8.10938 14.6719 -14.0625
Q9.67188 -20.0156 -1.42188 -20.0156
L-5.17188 -20.0156
L-5.17188 -11.7188
L-2.09375 -11.7188
Q4.4375 -11.7188 7.125 -8.04688
Q9.8125 -4.39062 9.8125 5.07812
z
" id="BitstreamVeraSans-Roman-4a"/>
      <path d="
M54.8906 33.0156
L54.8906 0
L45.9062 0
L45.9062 32.7188
Q45.9062 40.4844 42.875 44.3281
Q39.8438 48.1875 33.7969 48.1875
Q26.5156 48.1875 22.3125 43.5469
Q18.1094 38.9219 18.1094 30.9062
L18.1094 0
L9.07812 0
L9.07812 54.6875
L18.1094 54.6875
L18.1094 46.1875
Q21.3438 51.125 25.7031 53.5625
Q30.0781 56 35.7969 56
Q45.2188 56 50.0469 50.1719
Q54.8906 44.3438 54.8906 33.0156" id="BitstreamVeraSans-Roman-6e"/>
      <path d="
M9.42188 75.9844
L18.4062 75.9844
L18.4062 0
L9.42188 0
z
" id="BitstreamVeraSans-Roman-6c"/>
      <path d="
M9.42188 54.6875
L18.4062 54.6875
L18.4062 0
L9.42188 0
z

M9.42188 75.9844
L18.4062 75.9844
L18.4062 64.5938
L9.42188 64.5938
z
" id="BitstreamVeraSans-Roman-69"/>
      <path d="
M32.1719 -5.07812
Q28.375 -14.8438 24.75 -17.8125
Q21.1406 -20.7969 15.0938 -20.7969
L7.90625 -20.7969
L7.90625 -13.2812
L13.1875 -13.2812
Q16.8906 -13.2812 18.9375 -11.5156
Q21 -9.76562 23.4844 -3.21875
L25.0938 0.875
L2.98438 54.6875
L12.5 54.6875
L29.5938 11.9219
L46.6875 54.6875
L56.2031 54.6875
z
" id="BitstreamVeraSans-Roman-79"/>
      <path d="
M45.4062 46.3906
L45.4062 75.9844
L54.3906 75.9844
L54.3906 0
L45.4062 0
L45.4062 8.20312
Q42.5781 3.32812 38.25 0.953125
Q33.9375 -1.42188 27.875 -1.42188
Q17.9688 -1.42188 11.7344 6.48438
Q5.51562 14.4062 5.51562 27.2969
Q5.51562 40.1875 11.7344 48.0938
Q17.9688 56 27.875 56
Q33.9375 56 38.25 53.625
Q42.5781 51.2656 45.4062 46.3906
M14.7969 27.2969
Q14.7969 17.3906 18.875 11.75
Q22.9531 6.10938 30.0781 6.10938
Q37.2031 6.10938 41.2969 11.75
Q45.4062 17.3906 45.4062 27.2969
Q45.4062 37.2031 41.2969 42.8438
Q37.2031 48.4844 30.0781 48.4844
Q22.9531 48.4844 18.875 42.8438
Q14.7969 37.2031 14.7969 27.2969" id="BitstreamVeraSans-Roman-64"/>
      <path d="
M8.5 21.5781
L8.5 54.6875
L17.4844 54.6875
L17.4844 21.9219
Q17.4844 14.1562 20.5 10.2656
Q23.5312 6.39062 29.5938 6.39062
Q36.8594 6.39062 41.0781 11.0312
Q45.3125 15.6719 45.3125 23.6875
L45.3125 54.6875
L54.2969 54.6875
L54.2969 0
L45.3125 0
L45.3125 8.40625
Q42.0469 3.42188 37.7188 1
Q33.4062 -1.42188 27.6875 -1.42188
Q18.2656 -1.42188 13.375 4.4375
Q8.5 10.2969 8.5 21.5781" id="BitstreamVeraSans-Roman-75"/>
      <path d="
M34.2812 27.4844
Q23.3906 27.4844 19.1875 25
Q14.9844 22.5156 14.9844 16.5
Q14.9844 11.7188 18.1406 8.90625
Q21.2969 6.10938 26.7031 6.10938
Q34.1875 6.10938 38.7031 11.4062
Q43.2188 16.7031 43.2188 25.4844
L43.2188 27.4844
z

M52.2031 31.2031
L52.2031 0
L43.2188 0
L43.2188 8.29688
Q40.1406 3.32812 35.5469 0.953125
Q30.9531 -1.42188 24.3125 -1.42188
Q15.9219 -1.42188 10.9531 3.29688
Q6 8.01562 6 15.9219
Q6 25.1406 12.1719 29.8281
Q18.3594 34.5156 30.6094 34.5156
L43.2188 34.5156
L43.2188 35.4062
Q43.2188 41.6094 39.1406 45
Q35.0625 48.3906 27.6875 48.3906
Q23 48.3906 18.5469 47.2656
Q14.1094 46.1406 10.0156 43.8906
L10.0156 52.2031
Q14.9375 54.1094 19.5781 55.0469
Q24.2188 56 28.6094 56
Q40.4844 56 46.3438 49.8438
Q52.2031 43.7031 52.2031 31.2031" id="BitstreamVeraSans-Roman-61"/>
     </defs>
     <g transform="translate(181.48671875 270.7946875)scale(0.1 -0.1)">
      <use xlink:href="#BitstreamVeraSans-Roman-4a"/>
      <use x="29.4921875" xlink:href="#BitstreamVeraSans-Roman-75"/>
      <use x="92.87109375" xlink:href="#BitstreamVeraSans-Roman-6c"/>
      <use x="120.654296875" xlink:href="#BitstreamVeraSans-Roman-69"/>
      <use x="148.4375" xlink:href="#BitstreamVeraSans-Roman-61"/>
      <use x="209.716796875" xlink:href="#BitstreamVeraSans-Roman-6e"/>
      <use x="273.095703125" xlink:href="#BitstreamVeraSans-Roman-20"/>
      <use x="304.8828125" xlink:href="#BitstreamVeraSans-Roman-64"/>
      <use x="368.359375" xlink:href="#BitstreamVeraSans-Roman-61"/>
      <use x="429.638671875" xlink:href="#BitstreamVeraSans-Roman-79"/>
     </g>
    </g>
   </g>
   <g id="matplotlib.axis_2">
    <g id="ytick_1">
     <g id="line2d_21">
      <defs>
       <path d="
M0 0
L4 0" id="m728421d6d4" style="stroke:#000000;stroke-width:0.5;"/>
      </defs>
      <g>
       <use style="stroke:#000000;stroke-width:0.5;" x="38.6375" xlink:href="#m728421d6d4" y="244.518125"/>
      </g>
     </g>
     <g id="line2d_22">
      <defs>
       <path d="
M0 0
L-4 0" id="mcb0005524f" style="stroke:#000000;stroke-width:0.5;"/>
      </defs>
      <g>
       <use style="stroke:#000000;stroke-width:0.5;" x="373.4375" xlink:href="#mcb0005524f" y="244.518125"/>
      </g>
     </g>
     <g id="text_10">
      <!-- −1 -->
      <defs>
       <path d="
M10.5938 35.5
L73.1875 35.5
L73.1875 27.2031
L10.5938 27.2031
z
" id="BitstreamVeraSans-Roman-2212"/>
      </defs>
      <g transform="translate(21.878125 247.2775)scale(0.1 -0.1)">
       <use xlink:href="#BitstreamVeraSans-Roman-2212"/>
       <use x="83.7890625" xlink:href="#BitstreamVeraSans-Roman-31"/>
      </g>
     </g>
    </g>
    <g id="ytick_2">
     <g id="line2d_23">
      <g>
       <use style="stroke:#000000;stroke-width:0.5;" x="38.6375" xlink:href="#m728421d6d4" y="212.632410714"/>
      </g>
     </g>
     <g id="line2d_24">
      <g>
       <use style="stroke:#000000;stroke-width:0.5;" x="373.4375" xlink:href="#mcb0005524f" y="212.632410714"/>
      </g>
     </g>
     <g id="text_11">
      <!-- 0 -->
      <g transform="translate(29.5984375 215.391785714)scale(0.1 -0.1)">
       <use xlink:href="#BitstreamVeraSans-Roman-30"/>
      </g>
     </g>
    </g>
    <g id="ytick_3">
     <g id="line2d_25">
      <g>
       <use style="stroke:#000000;stroke-width:0.5;" x="38.6375" xlink:href="#m728421d6d4" y="180.746696429"/>
      </g>
     </g>
     <g id="line2d_26">
      <g>
       <use style="stroke:#000000;stroke-width:0.5;" x="373.4375" xlink:href="#mcb0005524f" y="180.746696429"/>
      </g>
     </g>
     <g id="text_12">
      <!-- 1 -->
      <g transform="translate(30.296875 183.506071429)scale(0.1 -0.1)">
       <use xlink:href="#BitstreamVeraSans-Roman-31"/>
      </g>
     </g>
    </g>
    <g id="ytick_4">
     <g id="line2d_27">
      <g>
       <use style="stroke:#000000;stroke-width:0.5;" x="38.6375" xlink:href="#m728421d6d4" y="148.860982143"/>
      </g>
     </g>
     <g id="line2d_28">
      <g>
       <use style="stroke:#000000;stroke-width:0.5;" x="373.4375" xlink:href="#mcb0005524f" y="148.860982143"/>
      </g>
     </g>
     <g id="text_13">
      <!-- 2 -->
      <g transform="translate(30.009375 151.620357143)scale(0.1 -0.1)">
       <use xlink:href="#BitstreamVeraSans-Roman-32"/>
      </g>
     </g>
    </g>
    <g id="ytick_5">
     <g id="line2d_29">
      <g>
       <use style="stroke:#000000;stroke-width:0.5;" x="38.6375" xlink:href="#m728421d6d4" y="116.975267857"/>
      </g>
     </g>
     <g id="line2d_30">
      <g>
       <use style="stroke:#000000;stroke-width:0.5;" x="373.4375" xlink:href="#mcb0005524f" y="116.975267857"/>
      </g>
     </g>
     <g id="text_14">
      <!-- 3 -->
      <g transform="translate(29.8390625 119.734642857)scale(0.1 -0.1)">
       <use xlink:href="#BitstreamVeraSans-Roman-33"/>
      </g>
     </g>
    </g>
    <g id="ytick_6">
     <g id="line2d_31">
      <g>
       <use style="stroke:#000000;stroke-width:0.5;" x="38.6375" xlink:href="#m728421d6d4" y="85.0895535714"/>
      </g>
     </g>
     <g id="line2d_32">
      <g>
       <use style="stroke:#000000;stroke-width:0.5;" x="373.4375" xlink:href="#mcb0005524f" y="85.0895535714"/>
      </g>
     </g>
     <g id="text_15">
      <!-- 4 -->
      <defs>
       <path d="
M37.7969 64.3125
L12.8906 25.3906
L37.7969 25.3906
z

M35.2031 72.9062
L47.6094 72.9062
L47.6094 25.3906
L58.0156 25.3906
L58.0156 17.1875
L47.6094 17.1875
L47.6094 0
L37.7969 0
L37.7969 17.1875
L4.89062 17.1875
L4.89062 26.7031
z
" id="BitstreamVeraSans-Roman-34"/>
      </defs>
      <g transform="translate(29.325 87.8489285714)scale(0.1 -0.1)">
       <use xlink:href="#BitstreamVeraSans-Roman-34"/>
      </g>
     </g>
    </g>
    <g id="ytick_7">
     <g id="line2d_33">
      <g>
       <use style="stroke:#000000;stroke-width:0.5;" x="38.6375" xlink:href="#m728421d6d4" y="53.2038392857"/>
      </g>
     </g>
     <g id="line2d_34">
      <g>
       <use style="stroke:#000000;stroke-width:0.5;" x="373.4375" xlink:href="#mcb0005524f" y="53.2038392857"/>
      </g>
     </g>
     <g id="text_16">
      <!-- 5 -->
      <g transform="translate(29.9203125 55.9632142857)scale(0.1 -0.1)">
       <use xlink:href="#BitstreamVeraSans-Roman-35"/>
      </g>
     </g>
    </g>
    <g id="ytick_8">
     <g id="line2d_35">
      <g>
       <use style="stroke:#000000;stroke-width:0.5;" x="38.6375" xlink:href="#m728421d6d4" y="21.318125"/>
      </g>
     </g>
     <g id="line2d_36">
      <g>
       <use style="stroke:#000000;stroke-width:0.5;" x="373.4375" xlink:href="#mcb0005524f" y="21.318125"/>
      </g>
     </g>
     <g id="text_17">
      <!-- 6 -->
      <defs>
       <path d="
M33.0156 40.375
Q26.375 40.375 22.4844 35.8281
Q18.6094 31.2969 18.6094 23.3906
Q18.6094 15.5312 22.4844 10.9531
Q26.375 6.39062 33.0156 6.39062
Q39.6562 6.39062 43.5312 10.9531
Q47.4062 15.5312 47.4062 23.3906
Q47.4062 31.2969 43.5312 35.8281
Q39.6562 40.375 33.0156 40.375
M52.5938 71.2969
L52.5938 62.3125
Q48.875 64.0625 45.0938 64.9844
Q41.3125 65.9219 37.5938 65.9219
Q27.8281 65.9219 22.6719 59.3281
Q17.5312 52.7344 16.7969 39.4062
Q19.6719 43.6562 24.0156 45.9219
Q28.375 48.1875 33.5938 48.1875
Q44.5781 48.1875 50.9531 41.5156
Q57.3281 34.8594 57.3281 23.3906
Q57.3281 12.1562 50.6875 5.35938
Q44.0469 -1.42188 33.0156 -1.42188
Q20.3594 -1.42188 13.6719 8.26562
Q6.98438 17.9688 6.98438 36.375
Q6.98438 53.6562 15.1875 63.9375
Q23.3906 74.2188 37.2031 74.2188
Q40.9219 74.2188 44.7031 73.4844
Q48.4844 72.75 52.5938 71.2969" id="BitstreamVeraSans-Roman-36"/>
      </defs>
      <g transform="translate(29.603125 24.0775)scale(0.1 -0.1)">
       <use xlink:href="#BitstreamVeraSans-Roman-36"/>
      </g>
     </g>
    </g>
    <g id="text_18">
     <!-- PET (mm/day) -->
     <defs>
      <path d="
M52 44.1875
Q55.375 50.25 60.0625 53.125
Q64.75 56 71.0938 56
Q79.6406 56 84.2812 50.0156
Q88.9219 44.0469 88.9219 33.0156
L88.9219 0
L79.8906 0
L79.8906 32.7188
Q79.8906 40.5781 77.0938 44.375
Q74.3125 48.1875 68.6094 48.1875
Q61.625 48.1875 57.5625 43.5469
Q53.5156 38.9219 53.5156 30.9062
L53.5156 0
L44.4844 0
L44.4844 32.7188
Q44.4844 40.625 41.7031 44.4062
Q38.9219 48.1875 33.1094 48.1875
Q26.2188 48.1875 22.1562 43.5312
Q18.1094 38.875 18.1094 30.9062
L18.1094 0
L9.07812 0
L9.07812 54.6875
L18.1094 54.6875
L18.1094 46.1875
Q21.1875 51.2188 25.4844 53.6094
Q29.7812 56 35.6875 56
Q41.6562 56 45.8281 52.9688
Q50 49.9531 52 44.1875" id="BitstreamVeraSans-Roman-6d"/>
      <path d="
M8.01562 75.875
L15.8281 75.875
Q23.1406 64.3594 26.7812 53.3125
Q30.4219 42.2812 30.4219 31.3906
Q30.4219 20.4531 26.7812 9.375
Q23.1406 -1.70312 15.8281 -13.1875
L8.01562 -13.1875
Q14.5 -2 17.7031 9.0625
Q20.9062 20.125 20.9062 31.3906
Q20.9062 42.6719 17.7031 53.6562
Q14.5 64.6562 8.01562 75.875" id="BitstreamVeraSans-Roman-29"/>
      <path d="
M31 75.875
Q24.4688 64.6562 21.2812 53.6562
Q18.1094 42.6719 18.1094 31.3906
Q18.1094 20.125 21.3125 9.0625
Q24.5156 -2 31 -13.1875
L23.1875 -13.1875
Q15.875 -1.70312 12.2344 9.375
Q8.59375 20.4531 8.59375 31.3906
Q8.59375 42.2812 12.2031 53.3125
Q15.8281 64.3594 23.1875 75.875
z
" id="BitstreamVeraSans-Roman-28"/>
      <path d="
M19.6719 64.7969
L19.6719 37.4062
L32.0781 37.4062
Q38.9688 37.4062 42.7188 40.9688
Q46.4844 44.5312 46.4844 51.125
Q46.4844 57.6719 42.7188 61.2344
Q38.9688 64.7969 32.0781 64.7969
z

M9.8125 72.9062
L32.0781 72.9062
Q44.3438 72.9062 50.6094 67.3594
Q56.8906 61.8125 56.8906 51.125
Q56.8906 40.3281 50.6094 34.8125
Q44.3438 29.2969 32.0781 29.2969
L19.6719 29.2969
L19.6719 0
L9.8125 0
z
" id="BitstreamVeraSans-Roman-50"/>
      <path d="
M9.8125 72.9062
L55.9062 72.9062
L55.9062 64.5938
L19.6719 64.5938
L19.6719 43.0156
L54.3906 43.0156
L54.3906 34.7188
L19.6719 34.7188
L19.6719 8.29688
L56.7812 8.29688
L56.7812 0
L9.8125 0
z
" id="BitstreamVeraSans-Roman-45"/>
      <path d="
M-0.296875 72.9062
L61.375 72.9062
L61.375 64.5938
L35.5 64.5938
L35.5 0
L25.5938 0
L25.5938 64.5938
L-0.296875 64.5938
z
" id="BitstreamVeraSans-Roman-54"/>
      <path d="
M25.3906 72.9062
L33.6875 72.9062
L8.29688 -9.28125
L0 -9.28125
z
" id="BitstreamVeraSans-Roman-2f"/>
     </defs>
     <g transform="translate(14.7984375 167.82984375)rotate(-90.0)scale(0.1 -0.1)">
      <use xlink:href="#BitstreamVeraSans-Roman-50"/>
      <use x="60.302734375" xlink:href="#BitstreamVeraSans-Roman-45"/>
      <use x="123.486328125" xlink:href="#BitstreamVeraSans-Roman-54"/>
      <use x="184.5703125" xlink:href="#BitstreamVeraSans-Roman-20"/>
      <use x="216.357421875" xlink:href="#BitstreamVeraSans-Roman-28"/>
      <use x="255.37109375" xlink:href="#BitstreamVeraSans-Roman-6d"/>
      <use x="352.783203125" xlink:href="#BitstreamVeraSans-Roman-6d"/>
      <use x="450.1953125" xlink:href="#BitstreamVeraSans-Roman-2f"/>
      <use x="483.88671875" xlink:href="#BitstreamVeraSans-Roman-64"/>
      <use x="547.36328125" xlink:href="#BitstreamVeraSans-Roman-61"/>
      <use x="608.642578125" xlink:href="#BitstreamVeraSans-Roman-79"/>
      <use x="667.822265625" xlink:href="#BitstreamVeraSans-Roman-29"/>
     </g>
    </g>
   </g>
   <g id="text_19">
    <!-- daily bare PET at LDP -->
    <defs>
     <path d="
M9.8125 72.9062
L19.6719 72.9062
L19.6719 8.29688
L55.1719 8.29688
L55.1719 0
L9.8125 0
z
" id="BitstreamVeraSans-Roman-4c"/>
     <path d="
M19.6719 64.7969
L19.6719 8.10938
L31.5938 8.10938
Q46.6875 8.10938 53.6875 14.9375
Q60.6875 21.7812 60.6875 36.5312
Q60.6875 51.1719 53.6875 57.9844
Q46.6875 64.7969 31.5938 64.7969
z

M9.8125 72.9062
L30.0781 72.9062
Q51.2656 72.9062 61.1719 64.0938
Q71.0938 55.2812 71.0938 36.5312
Q71.0938 17.6719 61.125 8.82812
Q51.1719 0 30.0781 0
L9.8125 0
z
" id="BitstreamVeraSans-Roman-44"/>
     <path d="
M56.2031 29.5938
L56.2031 25.2031
L14.8906 25.2031
Q15.4844 15.9219 20.4844 11.0625
Q25.4844 6.20312 34.4219 6.20312
Q39.5938 6.20312 44.4531 7.46875
Q49.3125 8.73438 54.1094 11.2812
L54.1094 2.78125
Q49.2656 0.734375 44.1875 -0.34375
Q39.1094 -1.42188 33.8906 -1.42188
Q20.7969 -1.42188 13.1562 6.1875
Q5.51562 13.8125 5.51562 26.8125
Q5.51562 40.2344 12.7656 48.1094
Q20.0156 56 32.3281 56
Q43.3594 56 49.7812 48.8906
Q56.2031 41.7969 56.2031 29.5938
M47.2188 32.2344
Q47.125 39.5938 43.0938 43.9844
Q39.0625 48.3906 32.4219 48.3906
Q24.9062 48.3906 20.3906 44.1406
Q15.875 39.8906 15.1875 32.1719
z
" id="BitstreamVeraSans-Roman-65"/>
     <path d="
M18.3125 70.2188
L18.3125 54.6875
L36.8125 54.6875
L36.8125 47.7031
L18.3125 47.7031
L18.3125 18.0156
Q18.3125 11.3281 20.1406 9.42188
Q21.9688 7.51562 27.5938 7.51562
L36.8125 7.51562
L36.8125 0
L27.5938 0
Q17.1875 0 13.2344 3.875
Q9.28125 7.76562 9.28125 18.0156
L9.28125 47.7031
L2.6875 47.7031
L2.6875 54.6875
L9.28125 54.6875
L9.28125 70.2188
z
" id="BitstreamVeraSans-Roman-74"/>
     <path d="
M41.1094 46.2969
Q39.5938 47.1719 37.8125 47.5781
Q36.0312 48 33.8906 48
Q26.2656 48 22.1875 43.0469
Q18.1094 38.0938 18.1094 28.8125
L18.1094 0
L9.07812 0
L9.07812 54.6875
L18.1094 54.6875
L18.1094 46.1875
Q20.9531 51.1719 25.4844 53.5781
Q30.0312 56 36.5312 56
Q37.4531 56 38.5781 55.875
Q39.7031 55.7656 41.0625 55.5156
z
" id="BitstreamVeraSans-Roman-72"/>
     <path d="
M48.6875 27.2969
Q48.6875 37.2031 44.6094 42.8438
Q40.5312 48.4844 33.4062 48.4844
Q26.2656 48.4844 22.1875 42.8438
Q18.1094 37.2031 18.1094 27.2969
Q18.1094 17.3906 22.1875 11.75
Q26.2656 6.10938 33.4062 6.10938
Q40.5312 6.10938 44.6094 11.75
Q48.6875 17.3906 48.6875 27.2969
M18.1094 46.3906
Q20.9531 51.2656 25.2656 53.625
Q29.5938 56 35.5938 56
Q45.5625 56 51.7812 48.0938
Q58.0156 40.1875 58.0156 27.2969
Q58.0156 14.4062 51.7812 6.48438
Q45.5625 -1.42188 35.5938 -1.42188
Q29.5938 -1.42188 25.2656 0.953125
Q20.9531 3.32812 18.1094 8.20312
L18.1094 0
L9.07812 0
L9.07812 75.9844
L18.1094 75.9844
z
" id="BitstreamVeraSans-Roman-62"/>
    </defs>
    <g transform="translate(142.0503125 16.318125)scale(0.12 -0.12)">
     <use xlink:href="#BitstreamVeraSans-Roman-64"/>
     <use x="63.4765625" xlink:href="#BitstreamVeraSans-Roman-61"/>
     <use x="124.755859375" xlink:href="#BitstreamVeraSans-Roman-69"/>
     <use x="152.5390625" xlink:href="#BitstreamVeraSans-Roman-6c"/>
     <use x="180.322265625" xlink:href="#BitstreamVeraSans-Roman-79"/>
     <use x="239.501953125" xlink:href="#BitstreamVeraSans-Roman-20"/>
     <use x="271.2890625" xlink:href="#BitstreamVeraSans-Roman-62"/>
     <use x="334.765625" xlink:href="#BitstreamVeraSans-Roman-61"/>
     <use x="396.044921875" xlink:href="#BitstreamVeraSans-Roman-72"/>
     <use x="434.908203125" xlink:href="#BitstreamVeraSans-Roman-65"/>
     <use x="496.431640625" xlink:href="#BitstreamVeraSans-Roman-20"/>
     <use x="528.21875" xlink:href="#BitstreamVeraSans-Roman-50"/>
     <use x="588.521484375" xlink:href="#BitstreamVeraSans-Roman-45"/>
     <use x="651.705078125" xlink:href="#BitstreamVeraSans-Roman-54"/>
     <use x="712.7890625" xlink:href="#BitstreamVeraSans-Roman-20"/>
     <use x="744.576171875" xlink:href="#BitstreamVeraSans-Roman-61"/>
     <use x="805.85546875" xlink:href="#BitstreamVeraSans-Roman-74"/>
     <use x="845.064453125" xlink:href="#BitstreamVeraSans-Roman-20"/>
     <use x="876.8515625" xlink:href="#BitstreamVeraSans-Roman-4c"/>
     <use x="932.564453125" xlink:href="#BitstreamVeraSans-Roman-44"/>
     <use x="1009.56640625" xlink:href="#BitstreamVeraSans-Roman-50"/>
    </g>
   </g>
   <g id="legend_1">
    <g id="patch_7">
     <path d="
M295.374 101.373
L367.438 101.373
L367.438 27.3181
L295.374 27.3181
z
" style="fill:#ffffff;stroke:#000000;stroke-linejoin:miter;"/>
    </g>
    <g id="line2d_37">
     <path d="
M303.774 37.0363
L320.574 37.0363" style="fill:none;stroke:#0000ff;stroke-linecap:square;"/>
    </g>
    <g id="line2d_38"/>
    <g id="text_20">
     <!-- 2010 -->
     <g transform="translate(333.77375 41.23625)scale(0.12 -0.12)">
      <use xlink:href="#BitstreamVeraSans-Roman-32"/>
      <use x="63.623046875" xlink:href="#BitstreamVeraSans-Roman-30"/>
      <use x="127.24609375" xlink:href="#BitstreamVeraSans-Roman-31"/>
      <use x="190.869140625" xlink:href="#BitstreamVeraSans-Roman-30"/>
     </g>
    </g>
    <g id="line2d_39">
     <path d="
M303.774 54.65
L320.574 54.65" style="fill:none;stroke:#008000;stroke-linecap:square;"/>
    </g>
    <g id="line2d_40"/>
    <g id="text_21">
     <!-- 2011 -->
     <g transform="translate(333.77375 58.85)scale(0.12 -0.12)">
      <use xlink:href="#BitstreamVeraSans-Roman-32"/>
      <use x="63.623046875" xlink:href="#BitstreamVeraSans-Roman-30"/>
      <use x="127.24609375" xlink:href="#BitstreamVeraSans-Roman-31"/>
      <use x="190.869140625" xlink:href="#BitstreamVeraSans-Roman-31"/>
     </g>
    </g>
    <g id="line2d_41">
     <path d="
M303.774 72.2638
L320.574 72.2638" style="fill:none;stroke:#ff0000;stroke-linecap:square;"/>
    </g>
    <g id="line2d_42"/>
    <g id="text_22">
     <!-- 2012 -->
     <g transform="translate(333.77375 76.46375)scale(0.12 -0.12)">
      <use xlink:href="#BitstreamVeraSans-Roman-32"/>
      <use x="63.623046875" xlink:href="#BitstreamVeraSans-Roman-30"/>
      <use x="127.24609375" xlink:href="#BitstreamVeraSans-Roman-31"/>
      <use x="190.869140625" xlink:href="#BitstreamVeraSans-Roman-32"/>
     </g>
    </g>
    <g id="line2d_43">
     <path d="
M303.774 89.8775
L320.574 89.8775" style="fill:none;stroke:#00bfbf;stroke-linecap:square;"/>
    </g>
    <g id="line2d_44"/>
    <g id="text_23">
     <!-- 2013 -->
     <g transform="translate(333.77375 94.0775)scale(0.12 -0.12)">
      <use xlink:href="#BitstreamVeraSans-Roman-32"/>
      <use x="63.623046875" xlink:href="#BitstreamVeraSans-Roman-30"/>
      <use x="127.24609375" xlink:href="#BitstreamVeraSans-Roman-31"/>
      <use x="190.869140625" xlink:href="#BitstreamVeraSans-Roman-33"/>
     </g>
    </g>
   </g>
  </g>
 </g>
 <defs>
  <clipPath id="pa986dbe5e9">
   <rect height="223.2" width="334.8" x="38.6375" y="21.318125"/>
  </clipPath>
 </defs>
</svg>
