<?xml version="1.0" encoding="utf-8" standalone="no"?>
<!DOCTYPE svg PUBLIC "-//W3C//DTD SVG 1.1//EN"
  "http://www.w3.org/Graphics/SVG/1.1/DTD/svg11.dtd">
<!-- Created with matplotlib (http://matplotlib.org/) -->
<svg height="280pt" version="1.1" viewBox="0 0 373 280" width="373pt" xmlns="http://www.w3.org/2000/svg" xmlns:xlink="http://www.w3.org/1999/xlink">
 <defs>
  <style type="text/css">
*{stroke-linecap:butt;stroke-linejoin:round;}
  </style>
 </defs>
 <g id="figure_1">
  <g id="patch_1">
   <path d="
M0 280.074
L373.191 280.074
L373.191 0
L0 0
z
" style="fill:#ffffff;"/>
  </g>
  <g id="axes_1">
   <g id="patch_2">
    <path d="
M31.1906 244.518
L365.991 244.518
L365.991 21.3181
L31.1906 21.3181
z
" style="fill:#ffffff;"/>
   </g>
   <g id="line2d_1">
    <path clip-path="url(#pc1a11fcac8)" d="
M0 0" style="fill:none;stroke:#0000ff;stroke-linecap:square;"/>
   </g>
   <g id="line2d_2">
    <path clip-path="url(#pc1a11fcac8)" d="
M0 0" style="fill:none;stroke:#008000;stroke-linecap:square;"/>
   </g>
   <g id="line2d_3">
    <path clip-path="url(#pc1a11fcac8)" d="
M0 0" style="fill:none;stroke:#ff0000;stroke-linecap:square;"/>
   </g>
   <g id="line2d_4">
    <path clip-path="url(#pc1a11fcac8)" d="
M33.0251 226.475
L33.9424 131.583
L34.8597 231.117
L35.7769 214.199
L36.6942 216.058
L37.6114 112.805
L38.5287 143.507
L39.446 205.109
L40.3632 161.637
L41.2805 176.265
L42.1977 223.983
L43.115 215.863
L44.0323 122.006
L44.9495 164.391
L45.8668 169.644
L46.784 226.938
L47.7013 223.192
L48.6186 215.008
L49.5358 200.194
L50.4531 172.7
L51.3704 226.297
L52.2876 229.656
L53.2049 225.31
L54.1221 225.505
L55.0394 232.576
L55.9567 243.51
L56.8739 206.973
L57.7912 184.261
L58.7084 227.3
L59.6257 223.36
L60.543 204.171
L61.4602 204.175
L62.3775 214.471
L63.2947 220.899
L64.212 219.626
L65.1293 210.293
L66.0465 210.494
L66.9638 183.481
L67.881 178.194
L68.7983 223.398
L69.7156 207.13
L70.6328 226.387
L71.5501 207.371
L72.4673 241.02
L73.3846 236.603
L74.3019 234.921
L75.2191 237.717
L76.1364 208.745
L77.0536 199.851
L77.9709 197.38
L78.8882 106.268
L79.8054 102.552
L80.7227 193.282
L81.6399 218.083
L82.5572 163.664
L84.3917 201.689
L85.309 162.591
L86.2262 153.435
L87.1435 191.859
L88.0608 179.923
L88.978 195.66
L89.8953 179.413
L90.8125 156.107
L91.7298 198.685
L92.6471 190.064
L93.5643 138.403
L94.4816 134.977
L95.3988 148.085
L96.3161 214.717
L97.2334 178.478
L98.1506 125.038
L99.0679 123.876
L99.9851 136.804
L100.902 144.991
L101.82 85.7815
L102.737 100.009
L103.654 154.631
L104.571 194.181
L105.489 136.846
L106.406 115.376
L108.24 198.433
L109.158 170.369
L110.075 101.735
L111.91 206.669
L112.827 176.82
L113.744 209.248
L114.661 203.335
L115.579 175.523
L116.496 171.291
L117.413 176.198
L118.33 166.29
L119.248 172.051
L120.165 159.031
L121.082 104.034
L121.999 105.559
L122.917 106.181
L123.834 170.922
L124.751 200.608
L125.668 136.441
L126.586 102.891
L127.503 122.027
L128.42 123.633
L129.337 96.4811
L130.255 81.5372
L131.172 146.676
L132.089 197.385
L133.007 182.238
L133.924 72.803
L134.841 56.9962
L135.758 50.7217
L136.676 61.0189
L137.593 174.81
L138.51 174.045
L139.427 171.248
L140.345 195.65
L141.262 177.881
L142.179 113.838
L143.096 152.338
L144.014 66.7302
L144.931 81.3173
L145.848 115.585
L146.765 22.4979
L147.683 68.6886
L148.6 56.8788
L149.517 155.796
L150.434 111.944
L151.352 53.0151
L152.269 82.276
L153.186 56.0972
L154.104 64.4006
L155.021 83.3281
L156.855 191.166
L157.773 124.534
L158.69 108.38
L159.607 109.937
L160.524 224.826
L161.442 163.621
L163.276 84.3812
L164.193 156.321
L165.111 160.36
L166.028 155.973
L166.945 152.273
L167.862 85.0148
L168.78 173.765
L169.697 171.868
L170.614 204.753
L171.531 133.098
L172.449 210.98
L173.366 145.939
L174.283 193.838
L175.2 121.782
L176.118 101.487
L177.035 148.393
L177.952 179.263
L178.87 105.6
L179.787 67.3335
L180.704 75.3518
L181.621 87.9813
L182.539 106.068
L183.456 98.1425
L184.373 126.681
L185.29 59.6374
L186.208 88.0374
L187.125 145.607
L188.042 147.491
L188.959 88.4437
L189.877 82.0329
L190.794 127.617
L191.711 142.999
L192.628 99.6595
L193.546 97.2036
L194.463 112.968
L195.38 148.507
L196.297 118.954
L197.215 105.971
L198.132 116.241
L199.049 134.842
L199.967 85.1037
L200.884 93.2048
L201.801 91.9643
L202.718 86.859
L203.636 91.8552
L204.553 104.798
L206.387 106.393
L207.305 100.245
L208.222 55.5204
L209.139 76.3334
L210.056 82.5295
L210.974 101.16
L211.891 93.3285
L212.808 92.4467
L213.725 81.3347
L214.643 88.0524
L215.56 79.5902
L216.477 32.0142
L217.394 23.5163
L218.312 45.1537
L219.229 49.7709
L220.146 109.902
L221.064 46.9971
L221.981 66.1471
L222.898 54.3887
L223.815 83.947
L225.65 36.0046
L226.567 39.8033
L227.484 69.138
L228.402 104.701
L230.236 124.648
L231.153 108.252
L232.071 114.149
L232.988 122.749
L233.905 143.318
L234.822 172.601
L235.74 133.4
L236.657 106.838
L237.574 113.115
L238.491 102.637
L239.409 106.496
L240.326 105.676
L241.243 109.63
L242.16 96.2805
L243.078 93.2914
L243.995 95.0369
L244.912 86.4646
L245.83 97.4736
L246.747 88.0033
L247.664 100.517
L248.581 125.17
L249.499 85.257
L250.416 95.4777
L251.333 182.825
L252.25 136.939
L253.168 150.546
L254.085 148.309
L255.002 108.598
L255.919 97.0483
L256.837 110.88
L257.754 101.315
L258.671 72.6879
L259.588 70.4269
L260.506 157.554
L261.423 221.261
L262.34 148.398
L263.257 92.343
L264.175 90.8528
L265.092 101.362
L266.009 107.648
L266.927 105.78
L267.844 97.5598
L268.761 112.29
L269.678 103.359
L270.596 136.709
L271.513 145.297
L272.43 107.062
L273.347 93.8448
L274.265 98.8406
L275.182 93.3612
L276.099 108.582
L277.016 104.218
L277.934 102.53
L278.851 110.223
L279.768 114.618
L280.685 102.878
L281.603 116.353
L282.52 117.997
L283.437 148.114
L284.354 207.125
L285.272 188.804
L286.189 163.055
L287.106 147.986
L288.024 202.314
L288.941 160.286
L289.858 164.993
L290.775 160.358
L291.693 96.5434
L292.61 93.1175
L293.527 93.3543
L294.444 109.611
L295.362 139.332
L296.279 116.058
L297.196 76.9545
L298.113 69.5723
L299.031 91.6378
L299.948 103.827
L300.865 104.814
L301.782 180.108
L302.7 223.791
L303.617 193.765
L304.534 208.401
L305.451 171.17
L306.369 95.5635
L307.286 97.6977
L308.203 124.801
L309.12 186.288
L310.038 152.054
L310.955 133.53
L311.872 133.608
L312.79 112.596
L313.707 131.403
L314.624 134.325
L315.541 187.744
L316.459 200.937
L317.376 152.981
L318.293 216.734
L319.21 209.953
L320.128 181.058
L321.045 175.992
L321.962 218.361
L322.879 221.96
M325.631 140.29
L326.548 201.229
L327.466 219.794
L328.383 196.666
L329.3 213.514
L330.217 198.937
L331.135 194.906
L332.052 162.241
L332.969 157.331
L333.887 168.103
L334.804 219.413
L335.721 190.147
L336.638 141.737
L337.556 226.458
L338.473 232.852
L339.39 190.389
L340.307 224.128
L341.225 215.62
L342.142 194.477
L343.059 217.182
L343.976 169.872
L344.894 202.921
L345.811 191.269
L346.728 213.262
L347.645 205.022
L348.563 189.213
L349.48 200.23
L350.397 199.295
L351.314 173.423
L352.232 141.705
L353.149 190.726
L354.066 219.826
L354.984 199.421
L355.901 184.481
L356.818 212.904
L357.735 203.735
L358.653 159.332
L359.57 81.6062
L360.487 166.201
L361.404 202.763
L363.239 217.032
L364.156 204.228
L365.073 223.915
L365.073 223.915" style="fill:none;stroke:#00bfbf;stroke-linecap:square;"/>
   </g>
   <g id="line2d_5">
    <path clip-path="url(#pc1a11fcac8)" d="
M31.1906 182.238
L32.1079 168.714
L33.0251 218.402
L33.9424 217.063
L34.8597 165.695
L35.7769 138.337
L36.6942 144.146
L37.6114 190.874
L38.5287 205.219
L39.446 208.728
L40.3632 171.088
L41.2805 182.48
L42.1977 226.406
L43.115 215.371
L44.0323 219.551
L44.9495 234.436
L46.784 213.51
L47.7013 215.6
L48.6186 160.82
L49.5358 202.503
L50.4531 228.774
L51.3704 166.119
L52.2876 207.865
L53.2049 224.974
L54.1221 191.359
L55.0394 173.508
L55.9567 179.212
L56.8739 185.873
L57.7912 210.376
L58.7084 189.494
L59.6257 133.443
L60.543 106.241
L61.4602 140.911
L62.3775 206.63
L63.2947 205.825
L64.212 181.725
L65.1293 197.238
L66.0465 188.518
L66.9638 198.541
L68.7983 154.228
L69.7156 131.004
L70.6328 126.325
L71.5501 131.028
L72.4673 139.726
L74.3019 195.252
L75.2191 202.346
L76.1364 190.971
L77.0536 215.783
L77.9709 223.596
L78.8882 209.681
L79.8054 180.03
L80.7227 164.811
L81.6399 182.979
L82.5572 147.618
L83.4745 164.454
L84.3917 138.416
L85.309 137.125
L86.2262 186.95
L87.1435 190.084
L88.0608 199.183
L88.978 190.202
L89.8953 198.953
L90.8125 196.874
L91.7298 225.011
L93.5643 175.949
L94.4816 202.601
L95.3988 201.587
L96.3161 201.819
L97.2334 191.08
L98.1506 195.881
L99.0679 235.784
L99.9851 215.71
L100.902 174.378
L101.82 198.724
L102.737 184.033
L103.654 212.15
L104.571 215.284
L105.489 181.174
L106.406 194.942
L107.323 193.701
L108.24 227.665
L109.158 216.815
L110.075 200.752
L110.992 205.582
L111.91 211.737
L112.827 176.297
L113.744 164.58
L114.661 188.733
L116.496 138.407
L117.413 189.927
L118.33 185.468
L119.248 188.035
L120.165 177.768
L121.082 193.45
L121.999 165.528
L122.917 194.085
L123.834 160.622
L124.751 191.391
L125.668 170.167
L126.586 175.632
L127.503 191.835
L128.42 174.711
L129.337 185.861
L130.255 109.373
L131.172 161.119
L132.089 204.428
L133.007 147.857
L133.924 126.574
L135.758 195.451
L136.676 181.648
L137.593 150.728
L138.51 182.219
L139.427 165.822
L140.345 159.864
L141.262 131.496
L142.179 155.413
L143.096 144.798
L144.014 132.882
L144.931 111.994
L145.848 177.11
L146.765 163.075
L147.683 194.931
L148.6 151.399
L149.517 93.8258
L150.434 94.6172
L151.352 113.05
L152.269 105.161
L153.186 153.689
L154.104 192.976
L155.021 191.22
L155.938 151.695
L156.855 164.856
L157.773 76.5134
L159.607 153.869
L160.524 123.724
L161.442 160.317
L163.276 131.214
L164.193 175.555
L165.111 200.83
L166.028 163.637
L166.945 210.047
L167.862 167.493
L168.78 137.785
L169.697 130.338
L170.614 180.522
L171.531 116.02
L172.449 81.1604
L173.366 115.482
L174.283 170.789
L175.2 181.85
L176.118 108.86
L177.035 119.377
L177.952 132.816
L178.87 142.357
L179.787 150.193
L180.704 166.426
L181.621 95.0227
L182.539 62.5063
L183.456 111.081
L184.373 75.2004
L185.29 166.338
L186.208 161.143
L187.125 119.731
L188.042 110.574
L188.959 110.26
L189.877 110.767
L190.794 88.6753
L191.711 63.6114
L192.628 69.2248
L193.546 102.121
L194.463 114.837
L195.38 146.292
L196.297 127.959
L197.215 90.057
L198.132 101.8
L199.049 108.423
L199.967 121.927
L200.884 115.223
L201.801 112.072
L202.718 147.838
L203.636 110.538
L204.553 85.3362
L205.47 110.854
L206.387 122.692
L207.305 124.713
L208.222 132.972
L209.139 146.866
L210.056 110.191
L210.974 125.319
L211.891 114.553
L212.808 110.947
L213.725 113.48
L214.643 109.391
L215.56 102.504
L216.477 112.869
L217.394 95.7098
L218.312 120.444
L219.229 110.364
L220.146 120.836
L221.064 110.326
L221.981 102.845
L222.898 111.31
L223.815 133.233
L224.733 150.932
L225.65 132.941
L226.567 127.793
L227.484 123.525
L228.402 143.901
L229.319 121.559
L230.236 116.592
L231.153 129.526
L232.071 118.554
L232.988 114.256
L233.905 112.688
L234.822 104.272
L235.74 107.734
L236.657 117.834
L237.574 110.89
L238.491 101.982
L239.409 107.036
L240.326 114.481
L241.243 111.794
L242.16 104.519
L243.078 122.772
L243.995 133.898
L244.912 124.694
L245.83 120.187
L246.747 127.661
L247.664 132.371
L248.581 130.26
L249.499 146.165
L250.416 134.935
L251.333 128.557
L252.25 118.261
L253.168 105.333
L254.085 102.471
L255.002 102.299
L255.919 105.866
L256.837 104.416
L257.754 111.752
L258.671 126.018
L259.588 124.955
L260.506 125.282
L261.423 130.822
L262.34 126.742
L263.257 148.224
L264.175 135.236
L265.092 140.795
L266.009 129.709
L266.927 180.751
L267.844 203.469
L268.761 108.695
L269.678 109.044
L270.596 124.675
L271.513 118.238
L272.43 108.049
L273.347 121.985
L274.265 123.987
L275.182 123.812
L276.099 138.585
L277.016 126.137
L277.934 122.483
L278.851 123.289
L279.768 115.549
L280.685 136.471
L281.603 132.924
L282.52 128.631
L283.437 137.265
L284.354 195.206
L285.272 219.931
L286.189 229.466
L287.106 231.408
L288.024 168.74
L288.941 135.005
L289.858 193.126
L290.775 172.278
L291.693 136.799
L292.61 120.224
L293.527 127.792
L294.444 155.048
L295.362 205.551
L296.279 136.888
L297.196 113.132
L298.113 142.567
L299.031 128.913
L299.948 141.417
L300.865 160.088
L301.782 144.574
L302.7 182.607
L303.617 99.3257
L304.534 60.8035
L305.451 83.0281
L306.369 98.8429
L307.286 120.461
L308.203 147.412
L309.12 169.96
L310.955 77.853
L311.872 94.7321
L312.79 165.002
L313.707 214.508
L314.624 214.161
L315.541 188.422
L316.459 169.05
L317.376 131.022
L318.293 104.029
L319.21 140.879
L320.128 182.783
L321.045 186.275
L321.962 158.327
L322.879 146.355
L323.797 132.701
L324.714 198.26
L325.631 211.564
L326.548 193.993
L327.466 156.648
L328.383 174.631
L329.3 190.28
L330.217 135.154
L331.135 168.776
L332.052 166.033
L332.969 70.7198
L333.887 90.8015
L334.804 158.716
L335.721 201.14
L336.638 183.095
L337.556 108.63
L338.473 112.796
L339.39 130.06
L340.307 152.512
L341.225 129.3
L342.142 112.221
L343.059 124.422
L343.976 117.975
L344.894 98.1608
L345.811 122.246
L346.728 129.325
L347.645 128.486
L348.563 141.544
L349.48 147.527
L350.397 167.232
L351.314 173.144
L352.232 161.047
L353.149 153.795
L354.066 125.48
L354.984 119.992
L355.901 146.877
L356.818 57.8364
L357.735 68.9073
L358.653 84.6348
L359.57 106.435
L360.487 122.146
L361.404 157.619
L362.322 217.5
L363.239 189.276
L364.156 218.242
L365.073 170.639
L365.073 170.639" style="fill:none;stroke:#bf00bf;stroke-linecap:square;"/>
   </g>
   <g id="line2d_6">
    <path clip-path="url(#pc1a11fcac8)" d="
M31.1906 102.075
L32.1079 125.067
L33.0251 122.232
L33.9424 106.346
L34.8597 146.139
L35.7769 156.13
L36.6942 169.039
L37.6114 168.005
L38.5287 164.058
L39.446 191.895
L40.3632 146.825
L41.2805 110.348
L42.1977 64.0151
L43.115 78.5959
L44.0323 137.279
L44.9495 152.565
L45.8668 105.669
L46.784 164.912
L47.7013 233.807
L48.6186 233.738
L49.5358 228.533
L50.4531 200.185
L51.3704 222.722
L52.2876 192.575
L53.2049 201.403
L54.1221 204.36
L55.0394 172.915
L56.8739 100.093
L57.7912 193.381
L58.7084 158.872
L59.6257 182.598
L60.543 212.331
L61.4602 179.189
L62.3775 155.844
L63.2947 155.083
L64.212 154.81
L65.1293 120.878
L66.0465 180.364
L66.9638 210.003
L67.881 198.834
L68.7983 207.052
L69.7156 223.197
L70.6328 196.388
L71.5501 198.266
L72.4673 208.29
L73.3846 158.644
L74.3019 174.423
L75.2191 194.503
L76.1364 164.678
L77.0536 170.742
L77.9709 222.304
L79.8054 165.829
L80.7227 124.331
L81.6399 178.597
L82.5572 161.163
L83.4745 140.337
L84.3917 149.462
L85.309 172.983
L86.2262 187.41
L87.1435 182.87
L88.0608 205.437
L88.978 175.869
L89.8953 138.221
L90.8125 189.453
L91.7298 129.06
L92.6471 123.441
L93.5643 118.549
L94.4816 106.78
L95.3988 159.673
L96.3161 170.272
L97.2334 172.063
L98.1506 229.749
L99.0679 205.027
L99.9851 196.062
L100.902 183.879
L101.82 209.92
L102.737 172.966
L103.654 191.221
L104.571 184.146
L105.489 134.418
L106.406 156.347
L107.323 116.432
L108.24 168.974
L109.158 210.964
L110.075 154.053
L110.992 193.987
L111.91 192.452
L112.827 214.668
L113.744 140.03
L115.579 161.991
L116.496 112.405
L117.413 157.886
L118.33 150.172
L119.248 159.265
L120.165 85.2063
L121.082 58.2834
L121.999 82.5201
L122.917 81.2698
L123.834 157.671
L124.751 108.138
L125.668 154.675
L126.586 88.4401
L127.503 66.203
L128.42 164.283
L129.337 123.373
L130.255 146.539
L131.172 177.564
L132.089 131.961
L133.007 94.9661
L133.924 102.143
L134.841 141.412
L135.758 136.108
L136.676 155.563
L137.593 215.833
L138.51 151.613
L140.345 84.1271
L141.262 178.802
L142.179 110.676
L143.096 100.409
L144.014 168.533
L144.931 180.209
L145.848 130.303
L146.765 96.6517
L147.683 68.7889
L148.6 79.4944
L149.517 100.356
L150.434 59.8903
L151.352 58.5858
L152.269 67.343
L153.186 79.4565
L154.104 100.116
L155.021 134.922
L155.938 92.7872
L156.855 121.338
L158.69 58.5972
L159.607 84.1673
L160.524 153.229
L161.442 147.409
L162.359 156.164
L163.276 108.533
L164.193 183.833
L165.111 196.29
L166.028 154.537
L166.945 85.4497
L167.862 88.8906
L168.78 84.8344
L169.697 104.869
L170.614 102.242
L171.531 128.135
L172.449 123.756
L173.366 148.006
L174.283 176.185
L175.2 97.0893
L176.118 113.484
L177.035 126.103
L177.952 163.952
L179.787 66.2937
L180.704 118.563
L181.621 104.92
L182.539 62.2974
L183.456 139.446
L184.373 97.0145
L185.29 100.743
L186.208 89.7333
L187.125 123.014
L188.042 78.9636
L188.959 96.0473
L189.877 160.21
L190.794 106.189
L191.711 97.0967
L192.628 92.4586
L193.546 112.713
L194.463 78.244
L195.38 100.635
L196.297 100.684
L197.215 110.119
L198.132 137.563
L199.049 113.629
L199.967 102.989
L200.884 96.9061
L201.801 118.197
L202.718 125.033
L203.636 121.213
L204.553 155.099
L205.47 127.106
L206.387 126.072
L207.305 134.199
L208.222 125.68
L209.139 152.52
L210.056 171.562
L210.974 150.604
L211.891 141.712
L212.808 119.21
L213.725 115.675
L214.643 126.402
L215.56 112.833
L216.477 113.38
L217.394 119.33
L218.312 115.444
L219.229 110.872
L220.146 124.216
L221.064 119.988
L221.981 124.368
L223.815 119.589
L224.733 118.106
L225.65 119.747
L226.567 110.01
L227.484 103.852
L228.402 109.667
L229.319 111.929
L230.236 121.351
L231.153 123.197
L232.988 131.767
L233.905 131.111
L234.822 143.579
L235.74 121.204
L236.657 127.391
L237.574 126.292
L238.491 124.371
L239.409 121.343
L240.326 126.779
L242.16 121.89
L243.078 147.152
L243.995 128.463
L244.912 133.912
L245.83 122.449
L246.747 114.029
L247.664 83.6973
L248.581 100.892
L249.499 136.254
L250.416 141.95
L251.333 122.9
L252.25 114.464
L253.168 109.666
L254.085 136.702
L255.002 124.236
L255.919 90.2141
L256.837 99.7278
L257.754 102.934
L258.671 113.201
L259.588 132.743
L260.506 106.188
L261.423 108.86
L262.34 129.346
L263.257 109.963
L264.175 102.683
L265.092 75.9304
L266.009 102.88
L266.927 110.387
L267.844 110.616
L268.761 113.71
L269.678 106.128
L270.596 111.238
L271.513 118.587
L272.43 124.622
L273.347 124.71
L274.265 119.758
L275.182 182.752
L276.099 150.562
L277.016 150.788
L277.934 138.365
L278.851 119.311
L279.768 129.727
L280.685 127.719
L281.603 123.987
L282.52 118.723
L283.437 112.153
L284.354 73.8928
L285.272 76.5216
L286.189 72.2312
L287.106 68.6687
L288.024 78.6635
L288.941 80.0083
L289.858 101.015
L290.775 110.769
L291.693 111.174
L292.61 110.721
L293.527 178.458
L294.444 152.089
L295.362 161.829
L296.279 160.109
L297.196 117.616
L298.113 108.095
L299.031 134.737
L299.948 175.626
L300.865 121.397
L301.782 198.59
L302.7 179.896
L303.617 195.579
L305.451 139.196
L306.369 180.396
M308.203 145.303
L309.12 143.965
L310.038 124.629
L310.955 167.149
L311.872 150.186
L312.79 157.092
L313.707 151.865
L314.624 176.154
L315.541 150.354
L316.459 164.597
L318.293 207.023
L319.21 194.489
L320.128 191.861
L321.045 170.299
M322.879 198.586
L323.797 157.129
L325.631 202.927
L326.548 176.496
L327.466 198.65
L328.383 192.338
L329.3 195.115
L330.217 156.635
L331.135 113.064
L332.052 173.583
L332.969 196.19
L333.887 170.686
L334.804 155.774
L335.721 175.823
L336.638 190.993
L337.556 203.52
L338.473 202.042
L339.39 211.326
L340.307 158.974
L341.225 191.24
L342.142 217.647
L343.976 179.893
L344.894 199.421
L345.811 137.764
L346.728 214.545
L347.645 177.978
L348.563 226.705
L349.48 193.433
L350.397 226.446
L352.232 206.069
L353.149 192.992
L354.066 201.086
L354.984 181.151
L355.901 112.812
L356.818 93.8958
L357.735 158.708
L358.653 205.33
L359.57 216.55
L360.487 168.55
L361.404 200.907
L362.322 209.327
L363.239 211.249
L364.156 184.475
L365.073 219.765
L365.073 219.765" style="fill:none;stroke:#bfbf00;stroke-linecap:square;"/>
   </g>
   <g id="line2d_7">
    <path clip-path="url(#pc1a11fcac8)" d="
M31.1906 205.115
L32.1079 207.074
L33.9424 145.135
L34.8597 186.705
L35.7769 175.763
L36.6942 209.219
L37.6114 234.079
M40.3632 242.188
L41.2805 242.048
L42.1977 234.518
L43.115 207.74
L44.0323 233.916
L44.9495 207.832
L45.8668 162.516
L46.784 136.239
L47.7013 143.713
L48.6186 134.033
L49.5358 134.426
L50.4531 138.64
L51.3704 128.745
L52.2876 194.232
L53.2049 233.466
L54.1221 231.434
L55.0394 239.722
L55.9567 232.707
L56.8739 234.02
L57.7912 236.028
L58.7084 242.469
L59.6257 233.975
L60.543 222.155
L61.4602 205.911
L62.3775 184.186
L63.2947 186.37
L64.212 206.581
L65.1293 194.534
L66.0465 214.576
L66.9638 203.415
L67.881 181.586
L68.7983 164.981
L69.7156 209.857
L70.6328 214.755
L71.5501 207.975
L72.4673 195.779
L73.3846 200.668
L74.3019 211.285
L75.2191 158.636
L76.1364 188.112
L77.0536 199.137
L77.9709 182.774
L78.8882 223.539
L79.8054 218.888
L80.7227 211.644
L81.6399 203.176
L82.5572 199.387
L83.4745 172.176
L84.3917 199.494
L85.309 209.019
L86.2262 202.483
L87.1435 187.557
L88.0608 142.278
L88.978 149.737
L89.8953 190.026
L90.8125 180.43
L91.7298 157.823
L92.6471 145.793
L93.5643 121.113
L94.4816 195.769
L95.3988 188.827
L96.3161 153.366
L97.2334 145.958
L98.1506 154.388
L99.0679 167.718
L99.9851 160.403
L100.902 156.109
L101.82 88.8966
L102.737 174.315
L103.654 160.747
L104.571 184.357
L106.406 111.812
L107.323 110.654
L108.24 189.106
L109.158 166.973
L110.075 134.82
L110.992 137.569
L111.91 120.606
L112.827 126.261
L113.744 152.906
L114.661 130.491
L115.579 119.747
L116.496 174.199
L117.413 174.145
L118.33 200.453
L119.248 193.948
L120.165 141.608
L121.082 103.582
L121.999 164.158
L122.917 117.834
L123.834 88.0911
L124.751 164.991
L125.668 130.492
L126.586 133.254
L128.42 66.5959
L129.337 70.7187
L130.255 199.105
L131.172 159.803
L132.089 130.65
L133.924 87.2139
L134.841 68.1485
L135.758 80.1698
L136.676 98.9294
L137.593 111.066
L138.51 92.3702
L139.427 136.045
L140.345 112.258
L141.262 75.1828
L142.179 67.2797
L143.096 92.8869
L144.014 144.493
L144.931 108.111
L145.848 149.387
L146.765 149.997
L147.683 144.771
L148.6 128.569
L149.517 123.714
L150.434 127.335
L151.352 128.888
L152.269 128.209
L153.186 115.88
L154.104 120.458
L155.938 193.539
L156.855 137.32
L157.773 161.236
L158.69 107.557
L159.607 129.513
L160.524 111.316
L161.442 65.689
L162.359 87.6635
L163.276 95.7355
L164.193 169.371
L165.111 159.625
L166.028 203.282
L166.945 191.912
L167.862 132.835
L168.78 105.796
L169.697 102.987
L170.614 98.742
L171.531 97.7851
L172.449 110.909
L173.366 112.509
L174.283 126.49
L175.2 123.525
L176.118 123.134
L177.035 120.953
L177.952 130.113
L178.87 133.718
L179.787 109.587
L180.704 152.069
L181.621 135.483
L182.539 96.7791
L183.456 127.14
L184.373 122.662
L185.29 123.274
L186.208 193.695
L187.125 136.466
L188.042 140.613
L188.959 129.481
L189.877 128.766
L190.794 192.17
L191.711 216.101
L192.628 161.62
L193.546 130.615
L194.463 134.906
L195.38 145.351
L196.297 139.523
L197.215 149.279
L198.132 146.167
L199.049 166.4
L199.967 135.453
L200.884 122.71
L201.801 131.374
L202.718 133.649
L203.636 129.548
L204.553 124.868
L206.387 150.296
L207.305 129.437
L208.222 112.31
L209.139 119.499
L210.056 131.266
L210.974 167.798
L211.891 141.243
L212.808 125.661
L213.725 132.487
L214.643 132.327
L216.477 121.92
L217.394 127.926
L218.312 137.653
L219.229 136.364
L220.146 144.736
L221.064 138.107
L221.981 129.509
L222.898 126.684
L223.815 124.412
L224.733 139.364
L225.65 138.408
L226.567 123.614
L227.484 117.579
L228.402 128.085
L229.319 130.769
L230.236 130.395
L231.153 138.308
L232.071 138.356
L232.988 145.109
L233.905 142.069
L234.822 144.008
L235.74 149.537
L236.657 147.076
L237.574 139.462
L238.491 143.87
L239.409 142.398
L240.326 142.032
L241.243 142.032
L242.16 142.498
L243.078 139.526
L243.995 137.791
L244.912 174.015
L245.83 153.828
L246.747 155.728
L247.664 149.909
L248.581 141.751
L249.499 145.943
L250.416 164.707
L251.333 153.751
L252.25 141.229
L253.168 141.627
L254.085 147.947
L255.002 176.7
L255.919 200.298
L256.837 187.54
L257.754 192.558
L259.588 141.009
L260.506 141.605
L261.423 148.764
L262.34 150.724
L263.257 160.149
L264.175 196.799
L265.092 174.477
L266.009 185.201
L266.927 165.332
L267.844 157.584
L268.761 180.755
L269.678 190.969
L270.596 133.347
L271.513 132.702
L272.43 169.057
L273.347 192.887
L274.265 159.829
L275.182 204.447
L276.099 227.036
L277.016 210.17
L277.934 171.713
L278.851 164.429
L279.768 205.178
L280.685 169.162
L281.603 186.758
L282.52 169.437
L283.437 200.972
L284.354 135.743
L285.272 115.032
L286.189 122.245
L287.106 143.661
L288.024 191.251
L288.941 159.289
L289.858 168.182
L291.693 148.242
L292.61 162.537
L294.444 145.503
L295.362 138.548
L296.279 148.561
L297.196 132.581
L298.113 136.431
L299.031 152.657
L299.948 153.606
L300.865 141.725
L301.782 148.107
L302.7 149.629
L303.617 148.075
L304.534 152.767
L305.451 155.239
L306.369 211.169
L307.286 218.213
L308.203 207.41
L309.12 212.4
L310.038 209.957
L310.955 218.767
L311.872 214.505
L312.79 182.183
L313.707 196.165
L314.624 219.338
L315.541 208.974
L316.459 170.324
L317.376 158.618
L318.293 163.79
L319.21 155.441
L320.128 156.6
L321.045 183.965
L321.962 197.253
L323.797 212.979
L324.714 204.606
L325.631 173.277
L326.548 211.978
L327.466 216.938
L328.383 151.247
L329.3 141.336
L330.217 137.692
L331.135 143.76
L332.052 138.209
L332.969 155.387
L333.887 153.523
L335.721 169.208
L336.638 208.757
L337.556 218.66
L338.473 205.505
L339.39 172.757
L340.307 207.522
L341.225 193.1
L342.142 185.262
L343.059 204.737
L343.976 197.11
L344.894 152.149
L345.811 170.366
L346.728 202.014
L347.645 180.189
L349.48 199.052
L350.397 154.86
L351.314 159.697
L352.232 137.094
L353.149 186.767
L354.066 203.6
L354.984 176.678
L355.901 218.377
L356.818 228.998
L357.735 216.494
L358.653 201.005
L360.487 130.461
L361.404 135.142
L362.322 184.502
L363.239 166.061
L364.156 183.51
L365.073 195.714
L365.073 195.714" style="fill:none;stroke:#000000;stroke-linecap:square;"/>
   </g>
   <g id="patch_3">
    <path d="
M31.1906 244.518
L31.1906 21.3181" style="fill:none;stroke:#000000;stroke-linecap:square;stroke-linejoin:miter;"/>
   </g>
   <g id="patch_4">
    <path d="
M365.991 244.518
L365.991 21.3181" style="fill:none;stroke:#000000;stroke-linecap:square;stroke-linejoin:miter;"/>
   </g>
   <g id="patch_5">
    <path d="
M31.1906 21.3181
L365.991 21.3181" style="fill:none;stroke:#000000;stroke-linecap:square;stroke-linejoin:miter;"/>
   </g>
   <g id="patch_6">
    <path d="
M31.1906 244.518
L365.991 244.518" style="fill:none;stroke:#000000;stroke-linecap:square;stroke-linejoin:miter;"/>
   </g>
   <g id="matplotlib.axis_1">
    <g id="xtick_1">
     <g id="line2d_8">
      <defs>
       <path d="
M0 0
L0 -4" id="mc7db9fdffb" style="stroke:#000000;stroke-width:0.5;"/>
      </defs>
      <g>
       <use style="stroke:#000000;stroke-width:0.5;" x="31.190625" xlink:href="#mc7db9fdffb" y="244.518125"/>
      </g>
     </g>
     <g id="line2d_9">
      <defs>
       <path d="
M0 0
L0 4" id="m5a7d422ac3" style="stroke:#000000;stroke-width:0.5;"/>
      </defs>
      <g>
       <use style="stroke:#000000;stroke-width:0.5;" x="31.190625" xlink:href="#m5a7d422ac3" y="21.318125"/>
      </g>
     </g>
     <g id="text_1">
      <!-- 0 -->
      <defs>
       <path d="
M31.7812 66.4062
Q24.1719 66.4062 20.3281 58.9062
Q16.5 51.4219 16.5 36.375
Q16.5 21.3906 20.3281 13.8906
Q24.1719 6.39062 31.7812 6.39062
Q39.4531 6.39062 43.2812 13.8906
Q47.125 21.3906 47.125 36.375
Q47.125 51.4219 43.2812 58.9062
Q39.4531 66.4062 31.7812 66.4062
M31.7812 74.2188
Q44.0469 74.2188 50.5156 64.5156
Q56.9844 54.8281 56.9844 36.375
Q56.9844 17.9688 50.5156 8.26562
Q44.0469 -1.42188 31.7812 -1.42188
Q19.5312 -1.42188 13.0625 8.26562
Q6.59375 17.9688 6.59375 36.375
Q6.59375 54.8281 13.0625 64.5156
Q19.5312 74.2188 31.7812 74.2188" id="BitstreamVeraSans-Roman-30"/>
      </defs>
      <g transform="translate(28.67109375 256.1165625)scale(0.1 -0.1)">
       <use xlink:href="#BitstreamVeraSans-Roman-30"/>
      </g>
     </g>
    </g>
    <g id="xtick_2">
     <g id="line2d_10">
      <g>
       <use style="stroke:#000000;stroke-width:0.5;" x="77.0536386986" xlink:href="#mc7db9fdffb" y="244.518125"/>
      </g>
     </g>
     <g id="line2d_11">
      <g>
       <use style="stroke:#000000;stroke-width:0.5;" x="77.0536386986" xlink:href="#m5a7d422ac3" y="21.318125"/>
      </g>
     </g>
     <g id="text_2">
      <!-- 50 -->
      <defs>
       <path d="
M10.7969 72.9062
L49.5156 72.9062
L49.5156 64.5938
L19.8281 64.5938
L19.8281 46.7344
Q21.9688 47.4688 24.1094 47.8281
Q26.2656 48.1875 28.4219 48.1875
Q40.625 48.1875 47.75 41.5
Q54.8906 34.8125 54.8906 23.3906
Q54.8906 11.625 47.5625 5.09375
Q40.2344 -1.42188 26.9062 -1.42188
Q22.3125 -1.42188 17.5469 -0.640625
Q12.7969 0.140625 7.71875 1.70312
L7.71875 11.625
Q12.1094 9.23438 16.7969 8.0625
Q21.4844 6.89062 26.7031 6.89062
Q35.1562 6.89062 40.0781 11.3281
Q45.0156 15.7656 45.0156 23.3906
Q45.0156 31 40.0781 35.4375
Q35.1562 39.8906 26.7031 39.8906
Q22.75 39.8906 18.8125 39.0156
Q14.8906 38.1406 10.7969 36.2812
z
" id="BitstreamVeraSans-Roman-35"/>
      </defs>
      <g transform="translate(71.4091074486 256.1165625)scale(0.1 -0.1)">
       <use xlink:href="#BitstreamVeraSans-Roman-35"/>
       <use x="63.623046875" xlink:href="#BitstreamVeraSans-Roman-30"/>
      </g>
     </g>
    </g>
    <g id="xtick_3">
     <g id="line2d_12">
      <g>
       <use style="stroke:#000000;stroke-width:0.5;" x="122.916652397" xlink:href="#mc7db9fdffb" y="244.518125"/>
      </g>
     </g>
     <g id="line2d_13">
      <g>
       <use style="stroke:#000000;stroke-width:0.5;" x="122.916652397" xlink:href="#m5a7d422ac3" y="21.318125"/>
      </g>
     </g>
     <g id="text_3">
      <!-- 100 -->
      <defs>
       <path d="
M12.4062 8.29688
L28.5156 8.29688
L28.5156 63.9219
L10.9844 60.4062
L10.9844 69.3906
L28.4219 72.9062
L38.2812 72.9062
L38.2812 8.29688
L54.3906 8.29688
L54.3906 0
L12.4062 0
z
" id="BitstreamVeraSans-Roman-31"/>
      </defs>
      <g transform="translate(114.254152397 256.1165625)scale(0.1 -0.1)">
       <use xlink:href="#BitstreamVeraSans-Roman-31"/>
       <use x="63.623046875" xlink:href="#BitstreamVeraSans-Roman-30"/>
       <use x="127.24609375" xlink:href="#BitstreamVeraSans-Roman-30"/>
      </g>
     </g>
    </g>
    <g id="xtick_4">
     <g id="line2d_14">
      <g>
       <use style="stroke:#000000;stroke-width:0.5;" x="168.779666096" xlink:href="#mc7db9fdffb" y="244.518125"/>
      </g>
     </g>
     <g id="line2d_15">
      <g>
       <use style="stroke:#000000;stroke-width:0.5;" x="168.779666096" xlink:href="#m5a7d422ac3" y="21.318125"/>
      </g>
     </g>
     <g id="text_4">
      <!-- 150 -->
      <g transform="translate(160.117166096 256.1165625)scale(0.1 -0.1)">
       <use xlink:href="#BitstreamVeraSans-Roman-31"/>
       <use x="63.623046875" xlink:href="#BitstreamVeraSans-Roman-35"/>
       <use x="127.24609375" xlink:href="#BitstreamVeraSans-Roman-30"/>
      </g>
     </g>
    </g>
    <g id="xtick_5">
     <g id="line2d_16">
      <g>
       <use style="stroke:#000000;stroke-width:0.5;" x="214.642679795" xlink:href="#mc7db9fdffb" y="244.518125"/>
      </g>
     </g>
     <g id="line2d_17">
      <g>
       <use style="stroke:#000000;stroke-width:0.5;" x="214.642679795" xlink:href="#m5a7d422ac3" y="21.318125"/>
      </g>
     </g>
     <g id="text_5">
      <!-- 200 -->
      <defs>
       <path d="
M19.1875 8.29688
L53.6094 8.29688
L53.6094 0
L7.32812 0
L7.32812 8.29688
Q12.9375 14.1094 22.625 23.8906
Q32.3281 33.6875 34.8125 36.5312
Q39.5469 41.8438 41.4219 45.5312
Q43.3125 49.2188 43.3125 52.7812
Q43.3125 58.5938 39.2344 62.25
Q35.1562 65.9219 28.6094 65.9219
Q23.9688 65.9219 18.8125 64.3125
Q13.6719 62.7031 7.8125 59.4219
L7.8125 69.3906
Q13.7656 71.7812 18.9375 73
Q24.125 74.2188 28.4219 74.2188
Q39.75 74.2188 46.4844 68.5469
Q53.2188 62.8906 53.2188 53.4219
Q53.2188 48.9219 51.5312 44.8906
Q49.8594 40.875 45.4062 35.4062
Q44.1875 33.9844 37.6406 27.2188
Q31.1094 20.4531 19.1875 8.29688" id="BitstreamVeraSans-Roman-32"/>
      </defs>
      <g transform="translate(205.797367295 256.1165625)scale(0.1 -0.1)">
       <use xlink:href="#BitstreamVeraSans-Roman-32"/>
       <use x="63.623046875" xlink:href="#BitstreamVeraSans-Roman-30"/>
       <use x="127.24609375" xlink:href="#BitstreamVeraSans-Roman-30"/>
      </g>
     </g>
    </g>
    <g id="xtick_6">
     <g id="line2d_18">
      <g>
       <use style="stroke:#000000;stroke-width:0.5;" x="260.505693493" xlink:href="#mc7db9fdffb" y="244.518125"/>
      </g>
     </g>
     <g id="line2d_19">
      <g>
       <use style="stroke:#000000;stroke-width:0.5;" x="260.505693493" xlink:href="#m5a7d422ac3" y="21.318125"/>
      </g>
     </g>
     <g id="text_6">
      <!-- 250 -->
      <g transform="translate(251.660380993 256.1165625)scale(0.1 -0.1)">
       <use xlink:href="#BitstreamVeraSans-Roman-32"/>
       <use x="63.623046875" xlink:href="#BitstreamVeraSans-Roman-35"/>
       <use x="127.24609375" xlink:href="#BitstreamVeraSans-Roman-30"/>
      </g>
     </g>
    </g>
    <g id="xtick_7">
     <g id="line2d_20">
      <g>
       <use style="stroke:#000000;stroke-width:0.5;" x="306.368707192" xlink:href="#mc7db9fdffb" y="244.518125"/>
      </g>
     </g>
     <g id="line2d_21">
      <g>
       <use style="stroke:#000000;stroke-width:0.5;" x="306.368707192" xlink:href="#m5a7d422ac3" y="21.318125"/>
      </g>
     </g>
     <g id="text_7">
      <!-- 300 -->
      <defs>
       <path d="
M40.5781 39.3125
Q47.6562 37.7969 51.625 33
Q55.6094 28.2188 55.6094 21.1875
Q55.6094 10.4062 48.1875 4.48438
Q40.7656 -1.42188 27.0938 -1.42188
Q22.5156 -1.42188 17.6562 -0.515625
Q12.7969 0.390625 7.625 2.20312
L7.625 11.7188
Q11.7188 9.32812 16.5938 8.10938
Q21.4844 6.89062 26.8125 6.89062
Q36.0781 6.89062 40.9375 10.5469
Q45.7969 14.2031 45.7969 21.1875
Q45.7969 27.6406 41.2812 31.2656
Q36.7656 34.9062 28.7188 34.9062
L20.2188 34.9062
L20.2188 43.0156
L29.1094 43.0156
Q36.375 43.0156 40.2344 45.9219
Q44.0938 48.8281 44.0938 54.2969
Q44.0938 59.9062 40.1094 62.9062
Q36.1406 65.9219 28.7188 65.9219
Q24.6562 65.9219 20.0156 65.0312
Q15.375 64.1562 9.8125 62.3125
L9.8125 71.0938
Q15.4375 72.6562 20.3438 73.4375
Q25.25 74.2188 29.5938 74.2188
Q40.8281 74.2188 47.3594 69.1094
Q53.9062 64.0156 53.9062 55.3281
Q53.9062 49.2656 50.4375 45.0938
Q46.9688 40.9219 40.5781 39.3125" id="BitstreamVeraSans-Roman-33"/>
      </defs>
      <g transform="translate(297.538238442 256.1165625)scale(0.1 -0.1)">
       <use xlink:href="#BitstreamVeraSans-Roman-33"/>
       <use x="63.623046875" xlink:href="#BitstreamVeraSans-Roman-30"/>
       <use x="127.24609375" xlink:href="#BitstreamVeraSans-Roman-30"/>
      </g>
     </g>
    </g>
    <g id="xtick_8">
     <g id="line2d_22">
      <g>
       <use style="stroke:#000000;stroke-width:0.5;" x="352.23172089" xlink:href="#mc7db9fdffb" y="244.518125"/>
      </g>
     </g>
     <g id="line2d_23">
      <g>
       <use style="stroke:#000000;stroke-width:0.5;" x="352.23172089" xlink:href="#m5a7d422ac3" y="21.318125"/>
      </g>
     </g>
     <g id="text_8">
      <!-- 350 -->
      <g transform="translate(343.40125214 256.1165625)scale(0.1 -0.1)">
       <use xlink:href="#BitstreamVeraSans-Roman-33"/>
       <use x="63.623046875" xlink:href="#BitstreamVeraSans-Roman-35"/>
       <use x="127.24609375" xlink:href="#BitstreamVeraSans-Roman-30"/>
      </g>
     </g>
    </g>
    <g id="text_9">
     <!-- Julian day -->
     <defs>
      <path d="
M9.42188 75.9844
L18.4062 75.9844
L18.4062 0
L9.42188 0
z
" id="BitstreamVeraSans-Roman-6c"/>
      <path d="
M54.8906 33.0156
L54.8906 0
L45.9062 0
L45.9062 32.7188
Q45.9062 40.4844 42.875 44.3281
Q39.8438 48.1875 33.7969 48.1875
Q26.5156 48.1875 22.3125 43.5469
Q18.1094 38.9219 18.1094 30.9062
L18.1094 0
L9.07812 0
L9.07812 54.6875
L18.1094 54.6875
L18.1094 46.1875
Q21.3438 51.125 25.7031 53.5625
Q30.0781 56 35.7969 56
Q45.2188 56 50.0469 50.1719
Q54.8906 44.3438 54.8906 33.0156" id="BitstreamVeraSans-Roman-6e"/>
      <path d="
M32.1719 -5.07812
Q28.375 -14.8438 24.75 -17.8125
Q21.1406 -20.7969 15.0938 -20.7969
L7.90625 -20.7969
L7.90625 -13.2812
L13.1875 -13.2812
Q16.8906 -13.2812 18.9375 -11.5156
Q21 -9.76562 23.4844 -3.21875
L25.0938 0.875
L2.98438 54.6875
L12.5 54.6875
L29.5938 11.9219
L46.6875 54.6875
L56.2031 54.6875
z
" id="BitstreamVeraSans-Roman-79"/>
      <path d="
M34.2812 27.4844
Q23.3906 27.4844 19.1875 25
Q14.9844 22.5156 14.9844 16.5
Q14.9844 11.7188 18.1406 8.90625
Q21.2969 6.10938 26.7031 6.10938
Q34.1875 6.10938 38.7031 11.4062
Q43.2188 16.7031 43.2188 25.4844
L43.2188 27.4844
z

M52.2031 31.2031
L52.2031 0
L43.2188 0
L43.2188 8.29688
Q40.1406 3.32812 35.5469 0.953125
Q30.9531 -1.42188 24.3125 -1.42188
Q15.9219 -1.42188 10.9531 3.29688
Q6 8.01562 6 15.9219
Q6 25.1406 12.1719 29.8281
Q18.3594 34.5156 30.6094 34.5156
L43.2188 34.5156
L43.2188 35.4062
Q43.2188 41.6094 39.1406 45
Q35.0625 48.3906 27.6875 48.3906
Q23 48.3906 18.5469 47.2656
Q14.1094 46.1406 10.0156 43.8906
L10.0156 52.2031
Q14.9375 54.1094 19.5781 55.0469
Q24.2188 56 28.6094 56
Q40.4844 56 46.3438 49.8438
Q52.2031 43.7031 52.2031 31.2031" id="BitstreamVeraSans-Roman-61"/>
      <path id="BitstreamVeraSans-Roman-20"/>
      <path d="
M8.5 21.5781
L8.5 54.6875
L17.4844 54.6875
L17.4844 21.9219
Q17.4844 14.1562 20.5 10.2656
Q23.5312 6.39062 29.5938 6.39062
Q36.8594 6.39062 41.0781 11.0312
Q45.3125 15.6719 45.3125 23.6875
L45.3125 54.6875
L54.2969 54.6875
L54.2969 0
L45.3125 0
L45.3125 8.40625
Q42.0469 3.42188 37.7188 1
Q33.4062 -1.42188 27.6875 -1.42188
Q18.2656 -1.42188 13.375 4.4375
Q8.5 10.2969 8.5 21.5781" id="BitstreamVeraSans-Roman-75"/>
      <path d="
M45.4062 46.3906
L45.4062 75.9844
L54.3906 75.9844
L54.3906 0
L45.4062 0
L45.4062 8.20312
Q42.5781 3.32812 38.25 0.953125
Q33.9375 -1.42188 27.875 -1.42188
Q17.9688 -1.42188 11.7344 6.48438
Q5.51562 14.4062 5.51562 27.2969
Q5.51562 40.1875 11.7344 48.0938
Q17.9688 56 27.875 56
Q33.9375 56 38.25 53.625
Q42.5781 51.2656 45.4062 46.3906
M14.7969 27.2969
Q14.7969 17.3906 18.875 11.75
Q22.9531 6.10938 30.0781 6.10938
Q37.2031 6.10938 41.2969 11.75
Q45.4062 17.3906 45.4062 27.2969
Q45.4062 37.2031 41.2969 42.8438
Q37.2031 48.4844 30.0781 48.4844
Q22.9531 48.4844 18.875 42.8438
Q14.7969 37.2031 14.7969 27.2969" id="BitstreamVeraSans-Roman-64"/>
      <path d="
M9.8125 72.9062
L19.6719 72.9062
L19.6719 5.07812
Q19.6719 -8.10938 14.6719 -14.0625
Q9.67188 -20.0156 -1.42188 -20.0156
L-5.17188 -20.0156
L-5.17188 -11.7188
L-2.09375 -11.7188
Q4.4375 -11.7188 7.125 -8.04688
Q9.8125 -4.39062 9.8125 5.07812
z
" id="BitstreamVeraSans-Roman-4a"/>
      <path d="
M9.42188 54.6875
L18.4062 54.6875
L18.4062 0
L9.42188 0
z

M9.42188 75.9844
L18.4062 75.9844
L18.4062 64.5938
L9.42188 64.5938
z
" id="BitstreamVeraSans-Roman-69"/>
     </defs>
     <g transform="translate(174.03984375 270.7946875)scale(0.1 -0.1)">
      <use xlink:href="#BitstreamVeraSans-Roman-4a"/>
      <use x="29.4921875" xlink:href="#BitstreamVeraSans-Roman-75"/>
      <use x="92.87109375" xlink:href="#BitstreamVeraSans-Roman-6c"/>
      <use x="120.654296875" xlink:href="#BitstreamVeraSans-Roman-69"/>
      <use x="148.4375" xlink:href="#BitstreamVeraSans-Roman-61"/>
      <use x="209.716796875" xlink:href="#BitstreamVeraSans-Roman-6e"/>
      <use x="273.095703125" xlink:href="#BitstreamVeraSans-Roman-20"/>
      <use x="304.8828125" xlink:href="#BitstreamVeraSans-Roman-64"/>
      <use x="368.359375" xlink:href="#BitstreamVeraSans-Roman-61"/>
      <use x="429.638671875" xlink:href="#BitstreamVeraSans-Roman-79"/>
     </g>
    </g>
   </g>
   <g id="matplotlib.axis_2">
    <g id="ytick_1">
     <g id="line2d_24">
      <defs>
       <path d="
M0 0
L4 0" id="md7965d1ba0" style="stroke:#000000;stroke-width:0.5;"/>
      </defs>
      <g>
       <use style="stroke:#000000;stroke-width:0.5;" x="31.190625" xlink:href="#md7965d1ba0" y="244.518125"/>
      </g>
     </g>
     <g id="line2d_25">
      <defs>
       <path d="
M0 0
L-4 0" id="md9a1c1a7cd" style="stroke:#000000;stroke-width:0.5;"/>
      </defs>
      <g>
       <use style="stroke:#000000;stroke-width:0.5;" x="365.990625" xlink:href="#md9a1c1a7cd" y="244.518125"/>
      </g>
     </g>
     <g id="text_10">
      <!-- 0 -->
      <g transform="translate(22.1515625 247.2775)scale(0.1 -0.1)">
       <use xlink:href="#BitstreamVeraSans-Roman-30"/>
      </g>
     </g>
    </g>
    <g id="ytick_2">
     <g id="line2d_26">
      <g>
       <use style="stroke:#000000;stroke-width:0.5;" x="31.190625" xlink:href="#md7965d1ba0" y="207.318125"/>
      </g>
     </g>
     <g id="line2d_27">
      <g>
       <use style="stroke:#000000;stroke-width:0.5;" x="365.990625" xlink:href="#md9a1c1a7cd" y="207.318125"/>
      </g>
     </g>
     <g id="text_11">
      <!-- 1 -->
      <g transform="translate(22.85 210.0775)scale(0.1 -0.1)">
       <use xlink:href="#BitstreamVeraSans-Roman-31"/>
      </g>
     </g>
    </g>
    <g id="ytick_3">
     <g id="line2d_28">
      <g>
       <use style="stroke:#000000;stroke-width:0.5;" x="31.190625" xlink:href="#md7965d1ba0" y="170.118125"/>
      </g>
     </g>
     <g id="line2d_29">
      <g>
       <use style="stroke:#000000;stroke-width:0.5;" x="365.990625" xlink:href="#md9a1c1a7cd" y="170.118125"/>
      </g>
     </g>
     <g id="text_12">
      <!-- 2 -->
      <g transform="translate(22.5625 172.8775)scale(0.1 -0.1)">
       <use xlink:href="#BitstreamVeraSans-Roman-32"/>
      </g>
     </g>
    </g>
    <g id="ytick_4">
     <g id="line2d_30">
      <g>
       <use style="stroke:#000000;stroke-width:0.5;" x="31.190625" xlink:href="#md7965d1ba0" y="132.918125"/>
      </g>
     </g>
     <g id="line2d_31">
      <g>
       <use style="stroke:#000000;stroke-width:0.5;" x="365.990625" xlink:href="#md9a1c1a7cd" y="132.918125"/>
      </g>
     </g>
     <g id="text_13">
      <!-- 3 -->
      <g transform="translate(22.3921875 135.6775)scale(0.1 -0.1)">
       <use xlink:href="#BitstreamVeraSans-Roman-33"/>
      </g>
     </g>
    </g>
    <g id="ytick_5">
     <g id="line2d_32">
      <g>
       <use style="stroke:#000000;stroke-width:0.5;" x="31.190625" xlink:href="#md7965d1ba0" y="95.718125"/>
      </g>
     </g>
     <g id="line2d_33">
      <g>
       <use style="stroke:#000000;stroke-width:0.5;" x="365.990625" xlink:href="#md9a1c1a7cd" y="95.718125"/>
      </g>
     </g>
     <g id="text_14">
      <!-- 4 -->
      <defs>
       <path d="
M37.7969 64.3125
L12.8906 25.3906
L37.7969 25.3906
z

M35.2031 72.9062
L47.6094 72.9062
L47.6094 25.3906
L58.0156 25.3906
L58.0156 17.1875
L47.6094 17.1875
L47.6094 0
L37.7969 0
L37.7969 17.1875
L4.89062 17.1875
L4.89062 26.7031
z
" id="BitstreamVeraSans-Roman-34"/>
      </defs>
      <g transform="translate(21.878125 98.4775)scale(0.1 -0.1)">
       <use xlink:href="#BitstreamVeraSans-Roman-34"/>
      </g>
     </g>
    </g>
    <g id="ytick_6">
     <g id="line2d_34">
      <g>
       <use style="stroke:#000000;stroke-width:0.5;" x="31.190625" xlink:href="#md7965d1ba0" y="58.518125"/>
      </g>
     </g>
     <g id="line2d_35">
      <g>
       <use style="stroke:#000000;stroke-width:0.5;" x="365.990625" xlink:href="#md9a1c1a7cd" y="58.518125"/>
      </g>
     </g>
     <g id="text_15">
      <!-- 5 -->
      <g transform="translate(22.4734375 61.2775)scale(0.1 -0.1)">
       <use xlink:href="#BitstreamVeraSans-Roman-35"/>
      </g>
     </g>
    </g>
    <g id="ytick_7">
     <g id="line2d_36">
      <g>
       <use style="stroke:#000000;stroke-width:0.5;" x="31.190625" xlink:href="#md7965d1ba0" y="21.318125"/>
      </g>
     </g>
     <g id="line2d_37">
      <g>
       <use style="stroke:#000000;stroke-width:0.5;" x="365.990625" xlink:href="#md9a1c1a7cd" y="21.318125"/>
      </g>
     </g>
     <g id="text_16">
      <!-- 6 -->
      <defs>
       <path d="
M33.0156 40.375
Q26.375 40.375 22.4844 35.8281
Q18.6094 31.2969 18.6094 23.3906
Q18.6094 15.5312 22.4844 10.9531
Q26.375 6.39062 33.0156 6.39062
Q39.6562 6.39062 43.5312 10.9531
Q47.4062 15.5312 47.4062 23.3906
Q47.4062 31.2969 43.5312 35.8281
Q39.6562 40.375 33.0156 40.375
M52.5938 71.2969
L52.5938 62.3125
Q48.875 64.0625 45.0938 64.9844
Q41.3125 65.9219 37.5938 65.9219
Q27.8281 65.9219 22.6719 59.3281
Q17.5312 52.7344 16.7969 39.4062
Q19.6719 43.6562 24.0156 45.9219
Q28.375 48.1875 33.5938 48.1875
Q44.5781 48.1875 50.9531 41.5156
Q57.3281 34.8594 57.3281 23.3906
Q57.3281 12.1562 50.6875 5.35938
Q44.0469 -1.42188 33.0156 -1.42188
Q20.3594 -1.42188 13.6719 8.26562
Q6.98438 17.9688 6.98438 36.375
Q6.98438 53.6562 15.1875 63.9375
Q23.3906 74.2188 37.2031 74.2188
Q40.9219 74.2188 44.7031 73.4844
Q48.4844 72.75 52.5938 71.2969" id="BitstreamVeraSans-Roman-36"/>
      </defs>
      <g transform="translate(22.15625 24.0775)scale(0.1 -0.1)">
       <use xlink:href="#BitstreamVeraSans-Roman-36"/>
      </g>
     </g>
    </g>
    <g id="text_17">
     <!-- PET (mm/day) -->
     <defs>
      <path d="
M19.6719 64.7969
L19.6719 37.4062
L32.0781 37.4062
Q38.9688 37.4062 42.7188 40.9688
Q46.4844 44.5312 46.4844 51.125
Q46.4844 57.6719 42.7188 61.2344
Q38.9688 64.7969 32.0781 64.7969
z

M9.8125 72.9062
L32.0781 72.9062
Q44.3438 72.9062 50.6094 67.3594
Q56.8906 61.8125 56.8906 51.125
Q56.8906 40.3281 50.6094 34.8125
Q44.3438 29.2969 32.0781 29.2969
L19.6719 29.2969
L19.6719 0
L9.8125 0
z
" id="BitstreamVeraSans-Roman-50"/>
      <path d="
M9.8125 72.9062
L55.9062 72.9062
L55.9062 64.5938
L19.6719 64.5938
L19.6719 43.0156
L54.3906 43.0156
L54.3906 34.7188
L19.6719 34.7188
L19.6719 8.29688
L56.7812 8.29688
L56.7812 0
L9.8125 0
z
" id="BitstreamVeraSans-Roman-45"/>
      <path d="
M-0.296875 72.9062
L61.375 72.9062
L61.375 64.5938
L35.5 64.5938
L35.5 0
L25.5938 0
L25.5938 64.5938
L-0.296875 64.5938
z
" id="BitstreamVeraSans-Roman-54"/>
      <path d="
M25.3906 72.9062
L33.6875 72.9062
L8.29688 -9.28125
L0 -9.28125
z
" id="BitstreamVeraSans-Roman-2f"/>
      <path d="
M8.01562 75.875
L15.8281 75.875
Q23.1406 64.3594 26.7812 53.3125
Q30.4219 42.2812 30.4219 31.3906
Q30.4219 20.4531 26.7812 9.375
Q23.1406 -1.70312 15.8281 -13.1875
L8.01562 -13.1875
Q14.5 -2 17.7031 9.0625
Q20.9062 20.125 20.9062 31.3906
Q20.9062 42.6719 17.7031 53.6562
Q14.5 64.6562 8.01562 75.875" id="BitstreamVeraSans-Roman-29"/>
      <path d="
M31 75.875
Q24.4688 64.6562 21.2812 53.6562
Q18.1094 42.6719 18.1094 31.3906
Q18.1094 20.125 21.3125 9.0625
Q24.5156 -2 31 -13.1875
L23.1875 -13.1875
Q15.875 -1.70312 12.2344 9.375
Q8.59375 20.4531 8.59375 31.3906
Q8.59375 42.2812 12.2031 53.3125
Q15.8281 64.3594 23.1875 75.875
z
" id="BitstreamVeraSans-Roman-28"/>
      <path d="
M52 44.1875
Q55.375 50.25 60.0625 53.125
Q64.75 56 71.0938 56
Q79.6406 56 84.2812 50.0156
Q88.9219 44.0469 88.9219 33.0156
L88.9219 0
L79.8906 0
L79.8906 32.7188
Q79.8906 40.5781 77.0938 44.375
Q74.3125 48.1875 68.6094 48.1875
Q61.625 48.1875 57.5625 43.5469
Q53.5156 38.9219 53.5156 30.9062
L53.5156 0
L44.4844 0
L44.4844 32.7188
Q44.4844 40.625 41.7031 44.4062
Q38.9219 48.1875 33.1094 48.1875
Q26.2188 48.1875 22.1562 43.5312
Q18.1094 38.875 18.1094 30.9062
L18.1094 0
L9.07812 0
L9.07812 54.6875
L18.1094 54.6875
L18.1094 46.1875
Q21.1875 51.2188 25.4844 53.6094
Q29.7812 56 35.6875 56
Q41.6562 56 45.8281 52.9688
Q50 49.9531 52 44.1875" id="BitstreamVeraSans-Roman-6d"/>
     </defs>
     <g transform="translate(14.7984375 167.82984375)rotate(-90.0)scale(0.1 -0.1)">
      <use xlink:href="#BitstreamVeraSans-Roman-50"/>
      <use x="60.302734375" xlink:href="#BitstreamVeraSans-Roman-45"/>
      <use x="123.486328125" xlink:href="#BitstreamVeraSans-Roman-54"/>
      <use x="184.5703125" xlink:href="#BitstreamVeraSans-Roman-20"/>
      <use x="216.357421875" xlink:href="#BitstreamVeraSans-Roman-28"/>
      <use x="255.37109375" xlink:href="#BitstreamVeraSans-Roman-6d"/>
      <use x="352.783203125" xlink:href="#BitstreamVeraSans-Roman-6d"/>
      <use x="450.1953125" xlink:href="#BitstreamVeraSans-Roman-2f"/>
      <use x="483.88671875" xlink:href="#BitstreamVeraSans-Roman-64"/>
      <use x="547.36328125" xlink:href="#BitstreamVeraSans-Roman-61"/>
      <use x="608.642578125" xlink:href="#BitstreamVeraSans-Roman-79"/>
      <use x="667.822265625" xlink:href="#BitstreamVeraSans-Roman-29"/>
     </g>
    </g>
   </g>
   <g id="text_18">
    <!-- daily tree PET at LDP -->
    <defs>
     <path d="
M19.6719 64.7969
L19.6719 8.10938
L31.5938 8.10938
Q46.6875 8.10938 53.6875 14.9375
Q60.6875 21.7812 60.6875 36.5312
Q60.6875 51.1719 53.6875 57.9844
Q46.6875 64.7969 31.5938 64.7969
z

M9.8125 72.9062
L30.0781 72.9062
Q51.2656 72.9062 61.1719 64.0938
Q71.0938 55.2812 71.0938 36.5312
Q71.0938 17.6719 61.125 8.82812
Q51.1719 0 30.0781 0
L9.8125 0
z
" id="BitstreamVeraSans-Roman-44"/>
     <path d="
M56.2031 29.5938
L56.2031 25.2031
L14.8906 25.2031
Q15.4844 15.9219 20.4844 11.0625
Q25.4844 6.20312 34.4219 6.20312
Q39.5938 6.20312 44.4531 7.46875
Q49.3125 8.73438 54.1094 11.2812
L54.1094 2.78125
Q49.2656 0.734375 44.1875 -0.34375
Q39.1094 -1.42188 33.8906 -1.42188
Q20.7969 -1.42188 13.1562 6.1875
Q5.51562 13.8125 5.51562 26.8125
Q5.51562 40.2344 12.7656 48.1094
Q20.0156 56 32.3281 56
Q43.3594 56 49.7812 48.8906
Q56.2031 41.7969 56.2031 29.5938
M47.2188 32.2344
Q47.125 39.5938 43.0938 43.9844
Q39.0625 48.3906 32.4219 48.3906
Q24.9062 48.3906 20.3906 44.1406
Q15.875 39.8906 15.1875 32.1719
z
" id="BitstreamVeraSans-Roman-65"/>
     <path d="
M9.8125 72.9062
L19.6719 72.9062
L19.6719 8.29688
L55.1719 8.29688
L55.1719 0
L9.8125 0
z
" id="BitstreamVeraSans-Roman-4c"/>
     <path d="
M41.1094 46.2969
Q39.5938 47.1719 37.8125 47.5781
Q36.0312 48 33.8906 48
Q26.2656 48 22.1875 43.0469
Q18.1094 38.0938 18.1094 28.8125
L18.1094 0
L9.07812 0
L9.07812 54.6875
L18.1094 54.6875
L18.1094 46.1875
Q20.9531 51.1719 25.4844 53.5781
Q30.0312 56 36.5312 56
Q37.4531 56 38.5781 55.875
Q39.7031 55.7656 41.0625 55.5156
z
" id="BitstreamVeraSans-Roman-72"/>
     <path d="
M18.3125 70.2188
L18.3125 54.6875
L36.8125 54.6875
L36.8125 47.7031
L18.3125 47.7031
L18.3125 18.0156
Q18.3125 11.3281 20.1406 9.42188
Q21.9688 7.51562 27.5938 7.51562
L36.8125 7.51562
L36.8125 0
L27.5938 0
Q17.1875 0 13.2344 3.875
Q9.28125 7.76562 9.28125 18.0156
L9.28125 47.7031
L2.6875 47.7031
L2.6875 54.6875
L9.28125 54.6875
L9.28125 70.2188
z
" id="BitstreamVeraSans-Roman-74"/>
    </defs>
    <g transform="translate(136.0453125 16.318125)scale(0.12 -0.12)">
     <use xlink:href="#BitstreamVeraSans-Roman-64"/>
     <use x="63.4765625" xlink:href="#BitstreamVeraSans-Roman-61"/>
     <use x="124.755859375" xlink:href="#BitstreamVeraSans-Roman-69"/>
     <use x="152.5390625" xlink:href="#BitstreamVeraSans-Roman-6c"/>
     <use x="180.322265625" xlink:href="#BitstreamVeraSans-Roman-79"/>
     <use x="239.501953125" xlink:href="#BitstreamVeraSans-Roman-20"/>
     <use x="271.2890625" xlink:href="#BitstreamVeraSans-Roman-74"/>
     <use x="310.498046875" xlink:href="#BitstreamVeraSans-Roman-72"/>
     <use x="349.361328125" xlink:href="#BitstreamVeraSans-Roman-65"/>
     <use x="410.884765625" xlink:href="#BitstreamVeraSans-Roman-65"/>
     <use x="472.408203125" xlink:href="#BitstreamVeraSans-Roman-20"/>
     <use x="504.1953125" xlink:href="#BitstreamVeraSans-Roman-50"/>
     <use x="564.498046875" xlink:href="#BitstreamVeraSans-Roman-45"/>
     <use x="627.681640625" xlink:href="#BitstreamVeraSans-Roman-54"/>
     <use x="688.765625" xlink:href="#BitstreamVeraSans-Roman-20"/>
     <use x="720.552734375" xlink:href="#BitstreamVeraSans-Roman-61"/>
     <use x="781.83203125" xlink:href="#BitstreamVeraSans-Roman-74"/>
     <use x="821.041015625" xlink:href="#BitstreamVeraSans-Roman-20"/>
     <use x="852.828125" xlink:href="#BitstreamVeraSans-Roman-4c"/>
     <use x="908.541015625" xlink:href="#BitstreamVeraSans-Roman-44"/>
     <use x="985.54296875" xlink:href="#BitstreamVeraSans-Roman-50"/>
    </g>
   </g>
   <g id="legend_1">
    <g id="patch_7">
     <path d="
M287.927 154.214
L359.991 154.214
L359.991 27.3181
L287.927 27.3181
z
" style="fill:#ffffff;stroke:#000000;stroke-linejoin:miter;"/>
    </g>
    <g id="line2d_38">
     <path d="
M296.327 37.0363
L313.127 37.0363" style="fill:none;stroke:#0000ff;stroke-linecap:square;"/>
    </g>
    <g id="line2d_39"/>
    <g id="text_19">
     <!-- 2007 -->
     <defs>
      <path d="
M8.20312 72.9062
L55.0781 72.9062
L55.0781 68.7031
L28.6094 0
L18.3125 0
L43.2188 64.5938
L8.20312 64.5938
z
" id="BitstreamVeraSans-Roman-37"/>
     </defs>
     <g transform="translate(326.326875 41.23625)scale(0.12 -0.12)">
      <use xlink:href="#BitstreamVeraSans-Roman-32"/>
      <use x="63.623046875" xlink:href="#BitstreamVeraSans-Roman-30"/>
      <use x="127.24609375" xlink:href="#BitstreamVeraSans-Roman-30"/>
      <use x="190.869140625" xlink:href="#BitstreamVeraSans-Roman-37"/>
     </g>
    </g>
    <g id="line2d_40">
     <path d="
M296.327 54.65
L313.127 54.65" style="fill:none;stroke:#008000;stroke-linecap:square;"/>
    </g>
    <g id="line2d_41"/>
    <g id="text_20">
     <!-- 2008 -->
     <defs>
      <path d="
M31.7812 34.625
Q24.75 34.625 20.7188 30.8594
Q16.7031 27.0938 16.7031 20.5156
Q16.7031 13.9219 20.7188 10.1562
Q24.75 6.39062 31.7812 6.39062
Q38.8125 6.39062 42.8594 10.1719
Q46.9219 13.9688 46.9219 20.5156
Q46.9219 27.0938 42.8906 30.8594
Q38.875 34.625 31.7812 34.625
M21.9219 38.8125
Q15.5781 40.375 12.0312 44.7188
Q8.5 49.0781 8.5 55.3281
Q8.5 64.0625 14.7188 69.1406
Q20.9531 74.2188 31.7812 74.2188
Q42.6719 74.2188 48.875 69.1406
Q55.0781 64.0625 55.0781 55.3281
Q55.0781 49.0781 51.5312 44.7188
Q48 40.375 41.7031 38.8125
Q48.8281 37.1562 52.7969 32.3125
Q56.7812 27.4844 56.7812 20.5156
Q56.7812 9.90625 50.3125 4.23438
Q43.8438 -1.42188 31.7812 -1.42188
Q19.7344 -1.42188 13.25 4.23438
Q6.78125 9.90625 6.78125 20.5156
Q6.78125 27.4844 10.7812 32.3125
Q14.7969 37.1562 21.9219 38.8125
M18.3125 54.3906
Q18.3125 48.7344 21.8438 45.5625
Q25.3906 42.3906 31.7812 42.3906
Q38.1406 42.3906 41.7188 45.5625
Q45.3125 48.7344 45.3125 54.3906
Q45.3125 60.0625 41.7188 63.2344
Q38.1406 66.4062 31.7812 66.4062
Q25.3906 66.4062 21.8438 63.2344
Q18.3125 60.0625 18.3125 54.3906" id="BitstreamVeraSans-Roman-38"/>
     </defs>
     <g transform="translate(326.326875 58.85)scale(0.12 -0.12)">
      <use xlink:href="#BitstreamVeraSans-Roman-32"/>
      <use x="63.623046875" xlink:href="#BitstreamVeraSans-Roman-30"/>
      <use x="127.24609375" xlink:href="#BitstreamVeraSans-Roman-30"/>
      <use x="190.869140625" xlink:href="#BitstreamVeraSans-Roman-38"/>
     </g>
    </g>
    <g id="line2d_42">
     <path d="
M296.327 72.2638
L313.127 72.2638" style="fill:none;stroke:#ff0000;stroke-linecap:square;"/>
    </g>
    <g id="line2d_43"/>
    <g id="text_21">
     <!-- 2009 -->
     <defs>
      <path d="
M10.9844 1.51562
L10.9844 10.5
Q14.7031 8.73438 18.5 7.8125
Q22.3125 6.89062 25.9844 6.89062
Q35.75 6.89062 40.8906 13.4531
Q46.0469 20.0156 46.7812 33.4062
Q43.9531 29.2031 39.5938 26.9531
Q35.25 24.7031 29.9844 24.7031
Q19.0469 24.7031 12.6719 31.3125
Q6.29688 37.9375 6.29688 49.4219
Q6.29688 60.6406 12.9375 67.4219
Q19.5781 74.2188 30.6094 74.2188
Q43.2656 74.2188 49.9219 64.5156
Q56.5938 54.8281 56.5938 36.375
Q56.5938 19.1406 48.4062 8.85938
Q40.2344 -1.42188 26.4219 -1.42188
Q22.7031 -1.42188 18.8906 -0.6875
Q15.0938 0.046875 10.9844 1.51562
M30.6094 32.4219
Q37.25 32.4219 41.125 36.9531
Q45.0156 41.5 45.0156 49.4219
Q45.0156 57.2812 41.125 61.8438
Q37.25 66.4062 30.6094 66.4062
Q23.9688 66.4062 20.0938 61.8438
Q16.2188 57.2812 16.2188 49.4219
Q16.2188 41.5 20.0938 36.9531
Q23.9688 32.4219 30.6094 32.4219" id="BitstreamVeraSans-Roman-39"/>
     </defs>
     <g transform="translate(326.326875 76.46375)scale(0.12 -0.12)">
      <use xlink:href="#BitstreamVeraSans-Roman-32"/>
      <use x="63.623046875" xlink:href="#BitstreamVeraSans-Roman-30"/>
      <use x="127.24609375" xlink:href="#BitstreamVeraSans-Roman-30"/>
      <use x="190.869140625" xlink:href="#BitstreamVeraSans-Roman-39"/>
     </g>
    </g>
    <g id="line2d_44">
     <path d="
M296.327 89.8775
L313.127 89.8775" style="fill:none;stroke:#00bfbf;stroke-linecap:square;"/>
    </g>
    <g id="line2d_45"/>
    <g id="text_22">
     <!-- 2010 -->
     <g transform="translate(326.326875 94.0775)scale(0.12 -0.12)">
      <use xlink:href="#BitstreamVeraSans-Roman-32"/>
      <use x="63.623046875" xlink:href="#BitstreamVeraSans-Roman-30"/>
      <use x="127.24609375" xlink:href="#BitstreamVeraSans-Roman-31"/>
      <use x="190.869140625" xlink:href="#BitstreamVeraSans-Roman-30"/>
     </g>
    </g>
    <g id="line2d_46">
     <path d="
M296.327 107.491
L313.127 107.491" style="fill:none;stroke:#bf00bf;stroke-linecap:square;"/>
    </g>
    <g id="line2d_47"/>
    <g id="text_23">
     <!-- 2011 -->
     <g transform="translate(326.326875 111.69125)scale(0.12 -0.12)">
      <use xlink:href="#BitstreamVeraSans-Roman-32"/>
      <use x="63.623046875" xlink:href="#BitstreamVeraSans-Roman-30"/>
      <use x="127.24609375" xlink:href="#BitstreamVeraSans-Roman-31"/>
      <use x="190.869140625" xlink:href="#BitstreamVeraSans-Roman-31"/>
     </g>
    </g>
    <g id="line2d_48">
     <path d="
M296.327 125.105
L313.127 125.105" style="fill:none;stroke:#bfbf00;stroke-linecap:square;"/>
    </g>
    <g id="line2d_49"/>
    <g id="text_24">
     <!-- 2012 -->
     <g transform="translate(326.326875 129.305)scale(0.12 -0.12)">
      <use xlink:href="#BitstreamVeraSans-Roman-32"/>
      <use x="63.623046875" xlink:href="#BitstreamVeraSans-Roman-30"/>
      <use x="127.24609375" xlink:href="#BitstreamVeraSans-Roman-31"/>
      <use x="190.869140625" xlink:href="#BitstreamVeraSans-Roman-32"/>
     </g>
    </g>
    <g id="line2d_50">
     <path d="
M296.327 142.719
L313.127 142.719" style="fill:none;stroke:#000000;stroke-linecap:square;"/>
    </g>
    <g id="line2d_51"/>
    <g id="text_25">
     <!-- 2013 -->
     <g transform="translate(326.326875 146.91875)scale(0.12 -0.12)">
      <use xlink:href="#BitstreamVeraSans-Roman-32"/>
      <use x="63.623046875" xlink:href="#BitstreamVeraSans-Roman-30"/>
      <use x="127.24609375" xlink:href="#BitstreamVeraSans-Roman-31"/>
      <use x="190.869140625" xlink:href="#BitstreamVeraSans-Roman-33"/>
     </g>
    </g>
   </g>
  </g>
 </g>
 <defs>
  <clipPath id="pc1a11fcac8">
   <rect height="223.2" width="334.8" x="31.190625" y="21.318125"/>
  </clipPath>
 </defs>
</svg>
