<?xml version="1.0" encoding="utf-8" standalone="no"?>
<!DOCTYPE svg PUBLIC "-//W3C//DTD SVG 1.1//EN"
  "http://www.w3.org/Graphics/SVG/1.1/DTD/svg11.dtd">
<!-- Created with matplotlib (http://matplotlib.org/) -->
<svg height="280pt" version="1.1" viewBox="0 0 380 280" width="380pt" xmlns="http://www.w3.org/2000/svg" xmlns:xlink="http://www.w3.org/1999/xlink">
 <defs>
  <style type="text/css">
*{stroke-linecap:butt;stroke-linejoin:round;}
  </style>
 </defs>
 <g id="figure_1">
  <g id="patch_1">
   <path d="
M1.77636e-15 280.074
L380.637 280.074
L380.637 0
L1.77636e-15 0
z
" style="fill:#ffffff;"/>
  </g>
  <g id="axes_1">
   <g id="patch_2">
    <path d="
M38.6375 244.518
L373.438 244.518
L373.438 21.3181
L38.6375 21.3181
z
" style="fill:#ffffff;"/>
   </g>
   <g id="line2d_1">
    <path clip-path="url(#pa986dbe5e9)" d="
M40.472 195.496
L41.3893 115.477
L42.3065 201.172
L43.2238 186.236
L44.1411 187.093
L45.0583 98.6267
L45.9756 126.033
L46.8928 178.024
L47.8101 140.889
L48.7274 153.861
L49.6446 194.457
L50.5619 186.578
L51.4791 106.638
L52.3964 143.683
L53.3137 148.015
L54.2309 196.626
L55.1482 193.071
L56.0654 186.319
L56.9827 173.035
L57.9 150.539
L58.8172 197.005
L59.7345 198.595
L60.6517 195.908
L61.569 196.288
L62.4863 202.305
L63.4035 210.728
L64.3208 179.558
L65.238 160.519
L66.1553 197.877
L67.0726 192.795
L67.9898 177.191
L68.9071 177.546
L69.8243 185.895
L70.7416 192.13
L71.6589 189.899
L72.5761 182.281
L73.4934 182.798
L74.4107 160.097
L75.3279 155.549
L76.2452 194.173
L77.1624 180.295
L78.0797 196.804
L78.997 180.216
L79.9142 209.431
L80.8315 205.77
L81.7487 204.291
L82.666 206.277
L83.5833 181.476
L84.5005 173.321
L85.4178 170.83
L86.335 92.531
L87.2523 89.4868
L88.1696 168.183
L89.0868 189.218
L90.0041 142.759
L91.8386 175.604
L92.7559 141.416
L93.6731 134.124
L94.5904 166.711
L95.5076 156.723
L96.4249 169.962
L97.3422 155.91
L98.2594 136.232
L99.1767 173.016
L100.094 164.812
L101.011 120.692
L101.928 117.886
L102.846 129.641
L103.763 186.879
L104.68 154.785
L105.598 109.313
L106.515 108.642
L107.432 120.214
L108.349 127.058
L109.267 76.0726
L110.184 88.2572
L111.101 135.543
L112.018 169.039
L112.936 120.163
L113.853 101.416
L115.687 172.846
L116.605 148.143
L117.522 89.9334
L119.356 179.668
L120.274 154.117
L121.191 181.95
L122.108 176.589
L123.025 153.377
L123.943 149.298
L124.86 153.998
L125.777 145.471
L126.694 149.736
L127.612 139.026
L128.529 91.6222
L129.446 93.0913
L130.364 94.1269
L131.281 148.82
L132.198 174.559
L133.115 119.819
L134.033 91.5775
L134.95 107.989
L135.867 109.703
L136.784 86.7025
L137.702 74.0768
L138.619 130.173
L139.536 173.221
L140.453 160.367
L141.371 68.6193
L142.288 54.9923
L143.205 50.1608
L144.122 57.8834
L145.04 152.127
L145.957 153.734
L146.874 151.228
L147.791 171.447
L148.709 156.963
L149.626 103.744
L150.543 133.574
L151.461 64.0128
L152.378 75.5883
L153.295 105.007
L154.212 25.7994
L155.13 65.4338
L156.047 55.2808
L156.964 136.8
L157.881 102.495
L158.799 52.738
L159.716 76.2018
L160.633 54.4335
L161.55 61.1285
L162.468 76.0912
L164.302 167.184
L165.219 113.308
L166.137 98.956
L167.054 99.4028
L167.971 195.567
L168.888 144.806
L170.723 78.3153
L171.64 138.102
L172.558 142.216
L173.475 138.105
L174.392 135.901
L175.309 79.6713
L176.227 152.732
L177.144 151.623
L178.061 178.927
L178.978 120.59
L179.896 184.147
L180.813 131.176
L181.73 169.846
L182.647 110.948
L183.565 92.4591
L184.482 131.919
L185.399 157.589
L186.316 97.7114
L187.234 64.3258
L188.151 70.9501
L189.068 81.4318
L189.985 97.0427
L190.903 90.1893
L191.82 113.798
L192.737 57.371
L193.654 81.3287
L194.572 129.833
L195.489 132.192
L196.406 81.8114
L197.324 75.9794
L198.241 113.922
L199.158 126.899
L200.075 91.6378
L200.993 89.164
L201.91 102.056
L202.827 131.767
L203.744 108.027
L204.662 96.583
L205.579 106.291
L206.496 121.616
L207.413 79.1753
L208.331 86.2725
L209.248 84.8321
L210.165 80.2947
L211.082 84.1308
L212 95.1599
L212.917 95.4735
L213.834 96.8248
L214.751 91.488
L215.669 53.6649
L216.586 71.434
L217.503 76.2082
L218.421 91.8506
L219.338 85.3882
L220.255 84.5999
L221.172 75.2596
L222.09 80.7883
L223.007 74.1624
L223.924 36.6062
L224.841 29.1094
L225.759 47.0237
L226.676 51.3907
L227.593 99.9884
L228.51 49.7289
L229.428 65.6975
L230.345 55.5332
L231.262 79.1538
L233.097 39.5777
L234.014 42.6614
L234.931 66.153
L235.848 94.7108
L237.683 111.148
L238.6 98.0507
L239.518 102.921
L240.435 110.043
L241.352 127.241
L242.269 151.252
L243.187 120.789
L244.104 97.0827
L245.021 102.304
L245.938 93.0471
L246.856 96.1433
L247.773 95.3714
L248.69 98.6547
L249.607 87.4786
L250.525 84.8279
L251.442 86.3065
L252.359 79.5343
L253.276 89.0558
L254.194 80.3348
L255.111 90.6208
L256.028 111.344
L256.945 78.2186
L257.863 86.6652
L258.78 160.699
L259.697 121.964
L260.614 133.716
L261.532 131.474
L262.449 98.0001
L263.366 87.8252
L264.284 99.5875
L265.201 92.2272
L266.118 67.3478
L267.035 64.9987
L267.953 138.245
L268.87 193.066
L269.787 131.889
L270.704 83.8951
L271.622 82.321
L272.539 91.1893
L273.456 96.6335
L274.373 94.9636
L275.291 88.1992
L276.208 100.42
L277.125 92.8563
L278.042 120.789
L278.96 129.004
L279.877 96.3265
L280.794 84.7506
L281.711 89.111
L282.629 84.5454
L283.546 97.1646
L284.463 93.2071
L285.381 91.8465
L286.298 98.2524
L287.215 102.117
L288.132 92.0302
L289.05 103.49
L289.967 104.854
L290.884 130.255
L291.801 180.758
L292.719 165.765
L293.636 142.929
L294.553 130.612
L295.47 176.341
L296.388 140.733
L297.305 145.173
L298.222 142.05
L299.139 86.5211
L300.057 83.6321
L300.974 83.6356
L301.891 97.4088
L302.808 122.67
L303.726 103.177
L304.643 69.638
L305.56 63.4105
L306.478 82.1709
L307.395 92.5388
L308.312 93.6153
L309.229 157.147
L310.147 194.695
L311.064 169.425
L311.981 182.376
L312.898 150.401
L313.816 85.842
L314.733 87.3696
L315.65 110.372
L316.567 163.035
L317.485 133.913
L318.402 118.112
L319.319 118.036
L320.236 99.864
L321.154 115.634
L322.071 118.337
L322.988 163.524
L323.905 175.748
L324.823 134.927
L325.74 189.103
L326.657 182.325
L327.574 158.821
L328.492 153.856
L329.409 190.441
L330.326 193.924
M333.078 123.274
L333.995 175.408
L334.913 190.937
L335.83 171.557
L336.747 186.016
L337.664 172.352
L338.582 168.027
L339.499 141.253
L340.416 137.473
L341.333 147.098
L342.251 190.372
L343.168 163.919
L344.085 124.529
L345.002 197.048
L345.92 202.374
L346.837 164.299
L347.754 195.144
L348.671 186.955
L349.589 169.38
L350.506 187.754
L351.423 148.35
L352.341 176.543
L353.258 166.698
L354.175 185.589
L355.092 178.274
L356.01 164.983
L356.927 174.358
L357.844 172.731
L358.761 149.821
L359.679 122.832
L360.596 166.276
L361.513 191.164
L362.43 173.454
L363.348 159.396
L364.265 184.368
L365.182 176.703
L366.099 138.242
L367.017 72.229
L367.934 144.873
L368.851 176.141
L369.768 183.372
L370.686 189.015
L371.603 177.257
L372.52 192.455
L372.52 192.455" style="fill:none;stroke:#0000ff;stroke-linecap:square;"/>
   </g>
   <g id="line2d_2">
    <path clip-path="url(#pa986dbe5e9)" d="
M38.6375 157.075
L39.5548 147.188
L40.472 188.263
L41.3893 188.108
L42.3065 144.708
L43.2238 120.876
L44.1411 125.361
L45.0583 165.392
L45.9756 178.005
L46.8928 181.51
L47.8101 148.213
L48.7274 159.437
L49.6446 196.601
L50.5619 187.679
L51.4791 191.188
L52.3964 204.042
L54.2309 185.464
L55.1482 185.959
L56.0654 140.109
L56.9827 176.489
L57.9 197.482
L58.8172 144.263
L59.7345 180.548
L60.6517 194.575
L61.569 165.881
L62.4863 150.376
L63.4035 155.445
L64.3208 161.272
L65.238 182.385
L66.1553 163.941
L67.0726 115.115
L67.9898 92.4471
L68.9071 123.257
L69.8243 180.171
L70.7416 178.732
L71.6589 158.626
L72.5761 171.833
L73.4934 163.232
L74.4107 171.903
L77.1624 114.535
L78.0797 111.074
L78.997 114.994
L79.9142 122.345
L81.7487 169.433
L82.666 175.569
L83.5833 166.406
L84.5005 187.965
L85.4178 193.63
L86.335 182.629
L87.2523 156.874
L88.1696 144.169
L89.0868 159.466
L90.0041 128.171
L90.9213 142.714
L91.8386 121.18
L92.7559 119.78
L93.6731 162.907
L94.5904 165.742
L95.5076 172.812
L96.4249 165.904
L97.3422 172.674
L98.2594 171.249
L99.1767 194.924
L101.011 153.587
L101.928 176.146
L102.846 175.006
L103.763 175.457
L104.68 166.535
L105.598 170.748
L106.515 204.787
L107.432 187.133
L108.349 151.832
L109.267 172.711
L110.184 160.425
L111.101 184.797
L112.018 187.133
L112.936 157.69
L113.853 170.051
L114.77 168.603
L115.687 198.054
L116.605 188.766
L117.522 174.51
L118.439 178.887
L119.356 184.596
L120.274 154.804
L121.191 144.64
L122.108 164.697
L123.943 121.713
L124.86 165.634
L125.777 161.689
L126.694 164.09
L127.612 155.254
L128.529 168.471
L129.446 144.848
L130.364 169.377
L131.281 141.328
L132.198 167.017
L133.115 149.109
L134.033 153.823
L134.95 168.339
L135.867 153.994
L136.784 162.533
L137.702 97.3144
L138.619 141.16
L139.536 177.24
L140.453 129.578
L141.371 111.421
L143.205 170.338
L144.122 159.013
L145.04 132.827
L145.957 159.104
L146.874 144.81
L147.791 140.536
L148.709 116.206
L149.626 137.027
L150.543 128.435
L151.461 118.466
L152.378 100.169
L153.295 155.48
L154.212 144.952
L155.13 170.51
L156.047 135.615
L156.964 87.6193
L157.881 87.7384
L158.799 102.763
L159.716 96.2918
L160.633 136.24
L161.55 169.059
L162.468 166.914
L163.385 134.403
L164.302 146.461
L165.219 72.5195
L167.054 136.756
L167.971 112.58
L168.888 141.903
L170.723 118.403
L171.64 155.334
L172.558 175.778
L173.475 145.274
L174.392 184.124
L175.309 148.527
L176.227 122.465
L177.144 118.008
L178.061 159.357
L178.978 105.597
L179.896 75.2613
L180.813 104
L181.73 150.376
L182.647 160.122
L183.565 100.957
L186.316 127.44
L187.234 133.947
L188.151 147.424
L189.068 87.8459
L189.985 60.6828
L190.903 100.794
L191.82 70.9852
L192.737 146.373
L193.654 143.959
L194.572 108.874
L195.489 100.896
L196.406 100.419
L197.324 101.155
L198.241 82.7068
L199.158 61.268
L200.075 65.6758
L200.993 93.1869
L201.91 104.109
L202.827 130.792
L203.744 115.951
L204.662 83.5421
L205.579 93.0176
L206.496 98.7146
L207.413 110.04
L208.331 104.362
L209.248 101.625
L210.165 130.256
L211.082 100.868
L212 78.9412
L212.917 100.671
L213.834 110.521
L214.751 112.24
L215.669 119.375
L216.586 131.039
L217.503 100.098
L218.421 112.655
L219.338 103.5
L220.255 100.369
L221.172 102.964
L222.09 99.7639
L223.007 93.4858
L223.924 102.758
L224.841 87.5296
L225.759 108.282
L226.676 99.8714
L227.593 109.339
L228.51 100.076
L229.428 93.6302
L230.345 100.612
L231.262 118.705
L232.179 134.325
L233.097 119.38
L234.014 114.62
L234.931 110.96
L235.848 126.936
L236.766 109.649
L237.683 105.177
L238.6 116.021
L239.518 106.729
L240.435 103.102
L241.352 101.663
L242.269 94.6653
L243.187 97.4003
L244.104 105.701
L245.021 100.211
L245.938 92.8129
L246.856 96.7947
L247.773 102.966
L248.69 100.827
L249.607 94.5134
L250.525 109.809
L251.442 119.219
L252.359 111.489
L253.276 107.759
L254.194 113.88
L255.111 118.014
L256.028 116.214
L256.945 128.803
L257.863 120.127
L258.78 114.885
L259.697 106.026
L260.614 95.1365
L261.532 93.043
L262.449 92.6021
L263.366 95.4429
L264.284 93.9991
L265.201 100.13
L266.118 112.287
L267.035 111.393
L267.953 111.734
L268.87 116.127
L269.787 112.894
L270.704 130.78
L271.622 120.371
L272.539 125.055
L273.456 115.634
L274.373 158.526
L275.291 176.292
L276.208 98.2359
L277.125 98.4112
L278.042 111.49
L278.96 105.841
L279.877 96.9959
L280.794 108.687
L281.711 110.254
L282.629 109.986
L283.546 122.308
L284.463 112.53
L285.381 109.16
L286.298 109.896
L287.215 103.066
L288.132 120.608
L289.05 117.861
L289.967 114.276
L290.884 121.8
L291.801 169.817
L292.719 191.481
L293.636 199.772
L294.553 201.591
L295.47 149.24
L296.388 120.199
L297.305 168.52
L298.222 152.341
L299.139 121.644
L300.057 107.541
L300.974 113.888
L301.891 136.694
L302.808 178.914
L303.726 121.472
L304.643 100.957
L305.56 125.887
L306.478 114.766
L307.395 125.21
L308.312 141.06
L309.229 127.825
L310.147 159.503
L311.064 88.8187
L311.981 55.9762
L312.898 74.7991
L313.816 88.3113
L314.733 106.961
L315.65 130.171
L316.567 150.06
L318.402 70.1794
L319.319 84.2216
L320.236 144.185
L321.154 186.74
L322.071 186.443
L322.988 164.437
L323.905 148.033
L324.823 115.601
L325.74 92.5059
L326.657 123.823
L327.574 160.287
L328.492 162.733
L329.409 139.078
L330.326 129.066
L331.244 117.022
L332.161 173.163
L333.078 183.998
L333.995 168.742
L334.913 137.103
L335.83 152.813
L336.747 165.985
L337.664 118.324
L338.582 147.483
L339.499 145.871
L340.416 63.5323
L341.333 81.0247
L342.251 139.374
L343.168 175.197
L344.085 159.709
L345.002 95.7295
L345.92 99.7896
L346.837 114.396
L347.754 134.172
L348.671 113.68
L349.589 99.2182
L350.506 109.587
L351.423 103.797
L352.341 86.9428
L353.258 107.48
L354.175 113.536
L355.092 112.953
L356.01 124.326
L356.927 129.59
L357.844 146.019
L358.761 151.378
L359.679 141.018
L360.596 134.989
L361.513 110.15
L362.43 105.752
L363.348 128.921
L364.265 51.9728
L365.182 61.5414
L366.099 75.3685
L367.017 93.7899
L367.934 107.546
L368.851 138.63
L369.768 189.141
L370.686 165.671
L371.603 189.935
L372.52 148.96
L372.52 148.96" style="fill:none;stroke:#008000;stroke-linecap:square;"/>
   </g>
   <g id="line2d_3">
    <path clip-path="url(#pa986dbe5e9)" d="
M38.6375 90.6235
L39.5548 109.62
L40.472 107.715
L41.3893 93.9762
L42.3065 128.199
L43.2238 136.326
L44.1411 148.532
L45.0583 147.004
L45.9756 143.578
L46.8928 166.958
L47.8101 128.775
L48.7274 97.5321
L49.6446 57.935
L50.5619 69.9202
L51.4791 120.097
L52.3964 133.775
L53.3137 93.4994
L54.2309 144.362
L55.1482 203.253
L56.0654 203.229
L56.9827 198.454
L57.9 173.757
L58.8172 193.749
L59.7345 167.43
L60.6517 175.37
L61.569 177.546
L63.4035 117.318
L64.3208 88.2584
L65.238 167.902
L66.1553 137.846
L67.0726 159.179
L67.9898 183.361
L68.9071 154.794
L69.8243 135.132
L70.7416 134.504
L71.6589 134.14
L72.5761 105.362
L73.4934 157.081
L74.4107 182.872
L75.3279 172.774
L76.2452 180.239
L77.1624 194.098
L78.0797 170.376
L78.997 172.182
L79.9142 180.219
L80.8315 138.264
L81.7487 152.199
L82.666 169.061
L83.5833 143.528
L84.5005 148.848
L85.4178 193.529
L87.2523 144.955
L88.1696 108.761
L89.0868 156.041
L90.0041 140.901
L90.9213 122.566
L91.8386 130.127
L92.7559 151.096
L93.6731 163.485
L94.5904 159.576
L95.5076 178.842
L96.4249 152.923
L97.3422 121.134
L98.2594 164.777
L99.1767 112.856
L100.094 108.133
L101.011 104.26
L101.928 94.3368
L102.846 139.89
L103.763 148.874
L104.68 150.43
L105.598 199.719
L106.515 178.948
L107.432 171.186
L108.349 160.522
L109.267 182.802
L110.184 150.46
L111.101 166.762
L112.018 160.902
L112.936 118.721
L113.853 136.817
L114.77 102.909
L115.687 148.059
L116.605 183.305
L117.522 135.028
L118.439 168.887
L119.356 167.762
L120.274 186.947
L121.191 124.023
L122.108 132.456
L123.025 142.265
L123.943 99.9602
L124.86 138.979
L125.777 132.967
L126.694 139.619
L127.612 77.7063
L128.529 55.1083
L129.446 74.887
L130.364 74.6141
L131.281 138.802
L132.198 99.0368
L133.115 136.697
L134.033 81.4636
L134.95 63.6828
L135.867 144.483
L136.784 111.99
L137.702 131.322
L138.619 156.981
L139.536 119.562
L140.453 87.1888
L141.371 92.8249
L142.288 125.919
L143.205 121.577
L144.122 138.151
L145.04 188.011
L145.957 135.052
L147.791 78.7801
L148.709 157.016
L149.626 101.148
L150.543 92.1984
L151.461 148.123
L152.378 159.183
L153.295 117.974
L154.212 89.1152
L155.13 65.4476
L156.047 74.1159
L156.964 92.1496
L157.881 58.6916
L158.799 56.8577
L159.716 63.881
L160.633 73.9758
L161.55 90.9515
L162.468 119.374
L163.385 85.304
L164.302 108.688
L166.137 56.4312
L167.054 78.1052
L167.971 135.266
L168.888 131.568
L169.806 138.57
L170.723 99.5376
L171.64 161.647
L172.558 171.694
L173.475 137.766
L174.392 79.7349
L175.309 82.5965
L176.227 78.6377
L177.144 95.8354
L178.061 93.6131
L178.978 115.861
L179.896 111.53
L181.73 154.899
L182.647 90.7887
L183.565 103.321
L184.482 113.383
L185.399 144.322
L186.316 107.2
L187.234 63.5992
L188.151 107.798
L189.068 96.4032
L189.985 59.5494
L190.903 121.78
L191.82 88.6918
L192.737 92.0187
L193.654 83.2552
L194.572 110.499
L195.489 74.1388
L196.406 87.5924
L197.324 139.97
L198.241 97.1349
L199.158 89.282
L200.075 85.2257
L200.993 103.054
L201.91 72.95
L202.827 91.7061
L203.744 91.8485
L204.662 99.8867
L205.579 122.944
L206.496 102.926
L207.413 94.1907
L208.331 88.8068
L209.248 106.521
L210.165 112.594
L211.082 108.948
L212 137.679
L212.917 113.815
L213.834 113.174
L214.751 119.817
L215.669 112.637
L216.586 134.622
L217.503 151.786
L218.421 134.107
L219.338 125.643
L220.255 107.383
L221.172 104.349
L222.09 112.704
L223.007 102.151
L223.924 102.505
L224.841 107.33
L226.676 100.49
L227.593 111.551
L228.51 107.72
L229.428 111.525
L230.345 109.7
L231.262 107.378
L232.179 106.213
L233.097 107.588
L234.014 99.3959
L234.931 94.1766
L235.848 99.4325
L236.766 100.898
L237.683 108.962
L238.6 110.477
L240.435 117.211
L241.352 117.026
L242.269 127.079
L243.187 108.553
L244.104 113.357
L245.021 112.487
L245.938 110.78
L246.856 108.561
L247.773 113.309
L249.607 108.918
L250.525 130.002
L251.442 114.797
L252.359 118.812
L253.276 109.531
L254.194 102.317
L255.111 76.8195
L256.028 91.0227
L256.945 120.875
L257.863 126.324
L258.78 109.772
L259.697 102.647
L260.614 98.5594
L261.532 120.96
L262.449 111.122
L263.366 81.9784
L264.284 90.0227
L265.201 92.9024
L266.118 101.478
L267.035 117.083
L267.953 95.5648
L268.87 97.6146
L269.787 115.076
L270.704 98.8794
L271.622 92.8971
L272.539 69.6363
L273.456 92.4021
L274.373 98.6553
L275.291 99.0453
L276.208 101.698
L277.125 95.2221
L278.042 99.4967
L278.96 105.27
L279.877 110.294
L280.794 110.244
L281.711 106.369
L282.629 158.863
L283.546 133.24
L284.463 133.704
L285.381 122.791
L286.298 106.314
L287.215 114.819
L288.132 113.414
L289.05 110.392
L289.967 105.642
L290.884 100.035
L291.801 67.5261
L292.719 69.7959
L293.636 65.9747
L294.553 62.999
L295.47 71.4759
L296.388 72.4696
L297.305 90.4362
L298.222 98.8369
L299.139 99.1308
L300.057 98.6846
L300.974 156.081
L301.891 134.198
L302.808 142.588
L303.726 141.015
L304.643 105.012
L305.56 96.5395
L306.478 118.367
L307.395 154.393
L308.312 107.755
L309.229 172.684
L310.147 157.133
L311.064 170.314
L311.981 148.648
L312.898 123.461
L313.816 157.977
M315.65 129.204
L316.567 127.133
L317.485 109.938
L318.402 146.608
L319.319 132.403
L320.236 137.827
L321.154 133.788
L322.071 154.357
L322.988 132.151
L323.905 143.941
L325.74 180.186
L326.657 169.478
L327.574 166.98
L328.492 149.308
M330.326 172.903
L331.244 138.587
L333.078 176.856
L333.995 154.609
L334.913 173.241
L335.83 167.587
L336.747 169.803
L337.664 137.033
L338.582 100.049
L339.499 151.757
L340.416 171.683
L341.333 149.397
L342.251 136.331
L343.168 153.464
L344.085 166.55
L345.002 177.025
L345.92 175.779
L346.837 183.439
L347.754 139.472
L348.671 166.953
L349.589 189.458
L351.423 157.832
L352.341 174.179
L353.258 122.218
L354.175 187.528
L355.092 155.527
L356.01 197.372
L356.927 169.009
L357.844 196.796
L359.679 180.127
L360.596 168.21
L361.513 174.37
L362.43 157.727
L363.348 99.5616
L364.265 83.3542
L365.182 138.77
L366.099 178.776
L367.017 188.516
L367.934 147.638
L368.851 175.708
L369.768 182.92
L370.686 183.78
L371.603 160.703
L372.52 190.511
L372.52 190.511" style="fill:none;stroke:#ff0000;stroke-linecap:square;"/>
   </g>
   <g id="line2d_4">
    <path clip-path="url(#pa986dbe5e9)" d="
M38.6375 177.605
L39.5548 179.293
L41.3893 126.415
L42.3065 162.262
L43.2238 153.233
L44.1411 181.951
L45.0583 203.588
L45.9756 216.467
M47.8101 208.681
L48.7274 208.349
L49.6446 202.105
L50.5619 180.936
L51.4791 202.639
L52.3964 179.629
L53.3137 141.16
L54.2309 118.589
L55.1482 124.853
L56.0654 116.829
L56.9827 117.224
L57.9 120.673
L58.8172 112.955
L59.7345 169.579
L60.6517 203.071
L61.569 201.515
L62.4863 207.589
L63.4035 201.963
L64.3208 203.281
L65.238 205.154
L66.1553 210.428
L67.0726 202.891
L67.9898 192.22
L68.9071 178.522
L69.8243 160.764
L70.7416 162.202
L71.6589 179.431
L72.5761 169.352
L73.4934 186.257
L74.4107 176.282
L75.3279 157.603
L76.2452 143.506
L77.1624 182.406
L78.0797 186.884
L78.997 180.624
L79.9142 170.171
L80.8315 174.799
L81.7487 183.453
L82.666 138.317
L83.5833 163.848
L84.5005 173.147
L85.4178 159.463
L86.335 194.769
L87.2523 190.694
L89.0868 176.438
L90.0041 172.441
L90.9213 149.613
L91.8386 173.621
L92.7559 182.275
L93.6731 176.219
L94.5904 163.2
L95.5076 123.631
L96.4249 130.818
L97.3422 165.575
L98.2594 156.959
L99.1767 138.231
L100.094 127.942
L101.011 107.093
L101.928 171.554
L102.846 164.932
L103.763 135.046
L104.68 128.547
L105.598 136.199
L106.515 147.957
L107.432 141.437
L108.349 137.931
L109.267 80.6164
L110.184 152.871
L111.101 142.251
L112.018 161.507
L113.853 100.318
L114.77 99.4595
L115.687 165.585
L116.605 147.499
L117.522 120.536
L118.439 123.328
L119.356 108.927
L120.274 113.41
L121.191 136.38
L122.108 117.443
L123.025 108.111
L123.943 152.969
L124.86 153.694
L125.777 175.221
L126.694 170.46
L127.612 127.292
L128.529 95.347
L129.446 144.947
L130.364 107.486
L131.281 81.6792
L132.198 145.62
L133.115 117.006
L134.033 120.128
L134.95 94.481
L135.867 64.1609
L136.784 67.5828
L137.702 174.025
L138.619 142.379
L139.536 117.84
L142.288 64.6602
L143.205 74.9592
L144.122 90.8331
L145.04 100.596
L145.957 85.6982
L146.874 121.168
L147.791 101.781
L148.709 71.5147
L149.626 63.8397
L150.543 85.6172
L151.461 128.363
L152.378 98.5212
L153.295 132.66
L154.212 133.865
L155.13 129.167
L156.047 115.876
L156.964 111.601
L157.881 114.207
L158.799 115.539
L159.716 115.176
L160.633 105.521
L161.55 108.651
L163.385 170.061
L164.302 124.029
L165.219 143.195
L166.137 98.7684
L167.054 115.636
L167.971 101.959
L168.888 62.6092
L169.806 81.4194
L170.723 88.7454
L171.64 149.434
L172.558 142.447
L173.475 178.341
L174.392 168.283
L175.309 119.979
L176.227 97.8912
L178.061 91.1733
L178.978 90.641
L179.896 101.619
L180.813 102.416
L181.73 113.877
L182.647 111.693
L183.565 111.648
L184.482 109.515
L185.399 116.658
L186.316 119.797
L187.234 100.162
L188.151 135.364
L189.068 121.969
L189.985 88.8381
L190.903 114.055
L191.82 110.676
L192.737 111.473
L193.654 169.796
L194.572 123.414
L195.489 126.45
L196.406 117.353
L197.324 115.745
L198.241 169
L199.158 188.913
L200.075 144.316
L200.993 117.808
L201.91 121.049
L202.827 129.654
L203.744 125.064
L204.662 133.044
L205.579 130.473
L206.496 147.298
L207.413 121.444
L208.331 111.146
L209.248 117.913
L210.165 119.915
L211.082 116.435
L212 112.325
L213.834 132.962
L214.751 116.452
L215.669 102.036
L216.586 107.794
L217.503 117.684
L218.421 147.999
L219.338 126.51
L220.255 112.97
L221.172 118.616
L222.09 118.497
L223.924 109.575
L224.841 114.653
L225.759 122.699
L226.676 121.889
L227.593 128.665
L228.51 123.132
L229.428 116.104
L230.345 113.228
L231.262 111.757
L232.179 123.962
L233.097 123.629
L234.014 111.549
L234.931 106.091
L235.848 114.58
L236.766 117.027
L237.683 116.802
L238.6 123.451
L239.518 123.299
L240.435 129.14
L241.352 126.342
L242.269 127.981
L243.187 132.284
L244.104 130.607
L245.021 123.913
L245.938 127.641
L246.856 126.485
L247.773 126.3
L249.607 126.641
L250.525 124.252
L251.442 122.867
L252.359 153.087
L253.276 136.515
L254.194 137.731
L255.111 132.805
L256.028 126.036
L256.945 129.847
L257.863 145.47
L258.78 136.295
L259.697 125.466
L260.614 125.669
L261.532 130.804
L262.449 155.096
L263.366 175.63
L264.284 164.572
L265.201 169.042
L267.035 125.452
L267.953 126.05
L268.87 132.314
L269.787 133.64
L270.704 141.395
L271.622 172.296
L272.539 154.317
L273.456 162.829
L274.373 146.174
L275.291 139.379
L276.208 158.559
L277.125 167.217
L278.042 118.774
L278.96 117.768
L279.877 148.51
L280.794 169.042
L281.711 142.035
L282.629 178.155
L283.546 197.645
L284.463 183.735
L285.381 151.306
L286.298 144.81
L287.215 178.731
L288.132 149.683
L289.05 163.773
L289.967 149.141
L290.884 175.386
L291.801 120.79
L292.719 102.988
L293.636 108.702
L294.553 126.888
L295.47 167.378
L296.388 140.767
L297.305 147.902
L299.139 131.532
L300.057 143.36
L301.891 128.858
L302.808 122.502
L303.726 131.223
L304.643 117.297
L305.56 120.452
L306.478 134.468
L307.395 135.263
L308.312 124.943
L309.229 130.396
L310.147 131.579
L311.064 130.301
L311.981 134.223
L312.898 136.03
L313.816 183.789
L314.733 190.654
L315.65 181.394
L316.567 184.84
L317.485 183.048
L318.402 189.831
L319.319 186.414
L320.236 159.686
L321.154 170.933
L322.071 191.234
L322.988 181.887
L323.905 149.485
L324.823 139.359
L325.74 143.507
L326.657 135.983
L327.574 137.216
L328.492 160.852
L329.409 171.628
L331.244 185.624
L332.161 177.954
L333.078 151.094
L333.995 184.519
L334.913 188.781
L335.83 131.699
L336.747 123.414
L337.664 120.277
L338.582 125.678
L339.499 121.163
L340.416 135.721
L341.333 134.294
L343.168 147.718
L344.085 182.002
L345.002 190.102
L345.92 178.858
L346.837 150.839
L347.754 180.699
L348.671 168.258
L349.589 161.958
L350.506 178.368
L351.423 170.721
L352.341 132.968
L353.258 148.871
L354.175 175.926
L355.092 156.745
L356.01 166.171
L356.927 173.738
L357.844 135.563
L358.761 139.288
L359.679 120.161
L360.596 162.991
L361.513 177.253
L362.43 154.116
L363.348 190.224
L364.265 199.472
L365.182 188.283
L366.099 174.138
L367.934 114.292
L368.851 118.181
L369.768 160.372
L370.686 144.794
L371.603 160.285
L372.52 170.797
L372.52 170.797" style="fill:none;stroke:#00bfbf;stroke-linecap:square;"/>
   </g>
   <g id="patch_3">
    <path d="
M38.6375 21.3181
L373.438 21.3181" style="fill:none;stroke:#000000;stroke-linecap:square;stroke-linejoin:miter;"/>
   </g>
   <g id="patch_4">
    <path d="
M373.438 244.518
L373.438 21.3181" style="fill:none;stroke:#000000;stroke-linecap:square;stroke-linejoin:miter;"/>
   </g>
   <g id="patch_5">
    <path d="
M38.6375 244.518
L373.438 244.518" style="fill:none;stroke:#000000;stroke-linecap:square;stroke-linejoin:miter;"/>
   </g>
   <g id="patch_6">
    <path d="
M38.6375 244.518
L38.6375 21.3181" style="fill:none;stroke:#000000;stroke-linecap:square;stroke-linejoin:miter;"/>
   </g>
   <g id="matplotlib.axis_1">
    <g id="xtick_1">
     <g id="line2d_5">
      <defs>
       <path d="
M0 0
L0 -4" id="m93b0483c22" style="stroke:#000000;stroke-width:0.5;"/>
      </defs>
      <g>
       <use style="stroke:#000000;stroke-width:0.5;" x="38.6375" xlink:href="#m93b0483c22" y="244.518125"/>
      </g>
     </g>
     <g id="line2d_6">
      <defs>
       <path d="
M0 0
L0 4" id="m741efc42ff" style="stroke:#000000;stroke-width:0.5;"/>
      </defs>
      <g>
       <use style="stroke:#000000;stroke-width:0.5;" x="38.6375" xlink:href="#m741efc42ff" y="21.318125"/>
      </g>
     </g>
     <g id="text_1">
      <!-- 0 -->
      <defs>
       <path d="
M31.7812 66.4062
Q24.1719 66.4062 20.3281 58.9062
Q16.5 51.4219 16.5 36.375
Q16.5 21.3906 20.3281 13.8906
Q24.1719 6.39062 31.7812 6.39062
Q39.4531 6.39062 43.2812 13.8906
Q47.125 21.3906 47.125 36.375
Q47.125 51.4219 43.2812 58.9062
Q39.4531 66.4062 31.7812 66.4062
M31.7812 74.2188
Q44.0469 74.2188 50.5156 64.5156
Q56.9844 54.8281 56.9844 36.375
Q56.9844 17.9688 50.5156 8.26562
Q44.0469 -1.42188 31.7812 -1.42188
Q19.5312 -1.42188 13.0625 8.26562
Q6.59375 17.9688 6.59375 36.375
Q6.59375 54.8281 13.0625 64.5156
Q19.5312 74.2188 31.7812 74.2188" id="BitstreamVeraSans-Roman-30"/>
      </defs>
      <g transform="translate(36.11796875 256.1165625)scale(0.1 -0.1)">
       <use xlink:href="#BitstreamVeraSans-Roman-30"/>
      </g>
     </g>
    </g>
    <g id="xtick_2">
     <g id="line2d_7">
      <g>
       <use style="stroke:#000000;stroke-width:0.5;" x="84.5005136986" xlink:href="#m93b0483c22" y="244.518125"/>
      </g>
     </g>
     <g id="line2d_8">
      <g>
       <use style="stroke:#000000;stroke-width:0.5;" x="84.5005136986" xlink:href="#m741efc42ff" y="21.318125"/>
      </g>
     </g>
     <g id="text_2">
      <!-- 50 -->
      <defs>
       <path d="
M10.7969 72.9062
L49.5156 72.9062
L49.5156 64.5938
L19.8281 64.5938
L19.8281 46.7344
Q21.9688 47.4688 24.1094 47.8281
Q26.2656 48.1875 28.4219 48.1875
Q40.625 48.1875 47.75 41.5
Q54.8906 34.8125 54.8906 23.3906
Q54.8906 11.625 47.5625 5.09375
Q40.2344 -1.42188 26.9062 -1.42188
Q22.3125 -1.42188 17.5469 -0.640625
Q12.7969 0.140625 7.71875 1.70312
L7.71875 11.625
Q12.1094 9.23438 16.7969 8.0625
Q21.4844 6.89062 26.7031 6.89062
Q35.1562 6.89062 40.0781 11.3281
Q45.0156 15.7656 45.0156 23.3906
Q45.0156 31 40.0781 35.4375
Q35.1562 39.8906 26.7031 39.8906
Q22.75 39.8906 18.8125 39.0156
Q14.8906 38.1406 10.7969 36.2812
z
" id="BitstreamVeraSans-Roman-35"/>
      </defs>
      <g transform="translate(78.8559824486 256.1165625)scale(0.1 -0.1)">
       <use xlink:href="#BitstreamVeraSans-Roman-35"/>
       <use x="63.623046875" xlink:href="#BitstreamVeraSans-Roman-30"/>
      </g>
     </g>
    </g>
    <g id="xtick_3">
     <g id="line2d_9">
      <g>
       <use style="stroke:#000000;stroke-width:0.5;" x="130.363527397" xlink:href="#m93b0483c22" y="244.518125"/>
      </g>
     </g>
     <g id="line2d_10">
      <g>
       <use style="stroke:#000000;stroke-width:0.5;" x="130.363527397" xlink:href="#m741efc42ff" y="21.318125"/>
      </g>
     </g>
     <g id="text_3">
      <!-- 100 -->
      <defs>
       <path d="
M12.4062 8.29688
L28.5156 8.29688
L28.5156 63.9219
L10.9844 60.4062
L10.9844 69.3906
L28.4219 72.9062
L38.2812 72.9062
L38.2812 8.29688
L54.3906 8.29688
L54.3906 0
L12.4062 0
z
" id="BitstreamVeraSans-Roman-31"/>
      </defs>
      <g transform="translate(121.701027397 256.1165625)scale(0.1 -0.1)">
       <use xlink:href="#BitstreamVeraSans-Roman-31"/>
       <use x="63.623046875" xlink:href="#BitstreamVeraSans-Roman-30"/>
       <use x="127.24609375" xlink:href="#BitstreamVeraSans-Roman-30"/>
      </g>
     </g>
    </g>
    <g id="xtick_4">
     <g id="line2d_11">
      <g>
       <use style="stroke:#000000;stroke-width:0.5;" x="176.226541096" xlink:href="#m93b0483c22" y="244.518125"/>
      </g>
     </g>
     <g id="line2d_12">
      <g>
       <use style="stroke:#000000;stroke-width:0.5;" x="176.226541096" xlink:href="#m741efc42ff" y="21.318125"/>
      </g>
     </g>
     <g id="text_4">
      <!-- 150 -->
      <g transform="translate(167.564041096 256.1165625)scale(0.1 -0.1)">
       <use xlink:href="#BitstreamVeraSans-Roman-31"/>
       <use x="63.623046875" xlink:href="#BitstreamVeraSans-Roman-35"/>
       <use x="127.24609375" xlink:href="#BitstreamVeraSans-Roman-30"/>
      </g>
     </g>
    </g>
    <g id="xtick_5">
     <g id="line2d_13">
      <g>
       <use style="stroke:#000000;stroke-width:0.5;" x="222.089554795" xlink:href="#m93b0483c22" y="244.518125"/>
      </g>
     </g>
     <g id="line2d_14">
      <g>
       <use style="stroke:#000000;stroke-width:0.5;" x="222.089554795" xlink:href="#m741efc42ff" y="21.318125"/>
      </g>
     </g>
     <g id="text_5">
      <!-- 200 -->
      <defs>
       <path d="
M19.1875 8.29688
L53.6094 8.29688
L53.6094 0
L7.32812 0
L7.32812 8.29688
Q12.9375 14.1094 22.625 23.8906
Q32.3281 33.6875 34.8125 36.5312
Q39.5469 41.8438 41.4219 45.5312
Q43.3125 49.2188 43.3125 52.7812
Q43.3125 58.5938 39.2344 62.25
Q35.1562 65.9219 28.6094 65.9219
Q23.9688 65.9219 18.8125 64.3125
Q13.6719 62.7031 7.8125 59.4219
L7.8125 69.3906
Q13.7656 71.7812 18.9375 73
Q24.125 74.2188 28.4219 74.2188
Q39.75 74.2188 46.4844 68.5469
Q53.2188 62.8906 53.2188 53.4219
Q53.2188 48.9219 51.5312 44.8906
Q49.8594 40.875 45.4062 35.4062
Q44.1875 33.9844 37.6406 27.2188
Q31.1094 20.4531 19.1875 8.29688" id="BitstreamVeraSans-Roman-32"/>
      </defs>
      <g transform="translate(213.244242295 256.1165625)scale(0.1 -0.1)">
       <use xlink:href="#BitstreamVeraSans-Roman-32"/>
       <use x="63.623046875" xlink:href="#BitstreamVeraSans-Roman-30"/>
       <use x="127.24609375" xlink:href="#BitstreamVeraSans-Roman-30"/>
      </g>
     </g>
    </g>
    <g id="xtick_6">
     <g id="line2d_15">
      <g>
       <use style="stroke:#000000;stroke-width:0.5;" x="267.952568493" xlink:href="#m93b0483c22" y="244.518125"/>
      </g>
     </g>
     <g id="line2d_16">
      <g>
       <use style="stroke:#000000;stroke-width:0.5;" x="267.952568493" xlink:href="#m741efc42ff" y="21.318125"/>
      </g>
     </g>
     <g id="text_6">
      <!-- 250 -->
      <g transform="translate(259.107255993 256.1165625)scale(0.1 -0.1)">
       <use xlink:href="#BitstreamVeraSans-Roman-32"/>
       <use x="63.623046875" xlink:href="#BitstreamVeraSans-Roman-35"/>
       <use x="127.24609375" xlink:href="#BitstreamVeraSans-Roman-30"/>
      </g>
     </g>
    </g>
    <g id="xtick_7">
     <g id="line2d_17">
      <g>
       <use style="stroke:#000000;stroke-width:0.5;" x="313.815582192" xlink:href="#m93b0483c22" y="244.518125"/>
      </g>
     </g>
     <g id="line2d_18">
      <g>
       <use style="stroke:#000000;stroke-width:0.5;" x="313.815582192" xlink:href="#m741efc42ff" y="21.318125"/>
      </g>
     </g>
     <g id="text_7">
      <!-- 300 -->
      <defs>
       <path d="
M40.5781 39.3125
Q47.6562 37.7969 51.625 33
Q55.6094 28.2188 55.6094 21.1875
Q55.6094 10.4062 48.1875 4.48438
Q40.7656 -1.42188 27.0938 -1.42188
Q22.5156 -1.42188 17.6562 -0.515625
Q12.7969 0.390625 7.625 2.20312
L7.625 11.7188
Q11.7188 9.32812 16.5938 8.10938
Q21.4844 6.89062 26.8125 6.89062
Q36.0781 6.89062 40.9375 10.5469
Q45.7969 14.2031 45.7969 21.1875
Q45.7969 27.6406 41.2812 31.2656
Q36.7656 34.9062 28.7188 34.9062
L20.2188 34.9062
L20.2188 43.0156
L29.1094 43.0156
Q36.375 43.0156 40.2344 45.9219
Q44.0938 48.8281 44.0938 54.2969
Q44.0938 59.9062 40.1094 62.9062
Q36.1406 65.9219 28.7188 65.9219
Q24.6562 65.9219 20.0156 65.0312
Q15.375 64.1562 9.8125 62.3125
L9.8125 71.0938
Q15.4375 72.6562 20.3438 73.4375
Q25.25 74.2188 29.5938 74.2188
Q40.8281 74.2188 47.3594 69.1094
Q53.9062 64.0156 53.9062 55.3281
Q53.9062 49.2656 50.4375 45.0938
Q46.9688 40.9219 40.5781 39.3125" id="BitstreamVeraSans-Roman-33"/>
      </defs>
      <g transform="translate(304.985113442 256.1165625)scale(0.1 -0.1)">
       <use xlink:href="#BitstreamVeraSans-Roman-33"/>
       <use x="63.623046875" xlink:href="#BitstreamVeraSans-Roman-30"/>
       <use x="127.24609375" xlink:href="#BitstreamVeraSans-Roman-30"/>
      </g>
     </g>
    </g>
    <g id="xtick_8">
     <g id="line2d_19">
      <g>
       <use style="stroke:#000000;stroke-width:0.5;" x="359.67859589" xlink:href="#m93b0483c22" y="244.518125"/>
      </g>
     </g>
     <g id="line2d_20">
      <g>
       <use style="stroke:#000000;stroke-width:0.5;" x="359.67859589" xlink:href="#m741efc42ff" y="21.318125"/>
      </g>
     </g>
     <g id="text_8">
      <!-- 350 -->
      <g transform="translate(350.84812714 256.1165625)scale(0.1 -0.1)">
       <use xlink:href="#BitstreamVeraSans-Roman-33"/>
       <use x="63.623046875" xlink:href="#BitstreamVeraSans-Roman-35"/>
       <use x="127.24609375" xlink:href="#BitstreamVeraSans-Roman-30"/>
      </g>
     </g>
    </g>
    <g id="text_9">
     <!-- Julian day -->
     <defs>
      <path id="BitstreamVeraSans-Roman-20"/>
      <path d="
M9.8125 72.9062
L19.6719 72.9062
L19.6719 5.07812
Q19.6719 -8.10938 14.6719 -14.0625
Q9.67188 -20.0156 -1.42188 -20.0156
L-5.17188 -20.0156
L-5.17188 -11.7188
L-2.09375 -11.7188
Q4.4375 -11.7188 7.125 -8.04688
Q9.8125 -4.39062 9.8125 5.07812
z
" id="BitstreamVeraSans-Roman-4a"/>
      <path d="
M54.8906 33.0156
L54.8906 0
L45.9062 0
L45.9062 32.7188
Q45.9062 40.4844 42.875 44.3281
Q39.8438 48.1875 33.7969 48.1875
Q26.5156 48.1875 22.3125 43.5469
Q18.1094 38.9219 18.1094 30.9062
L18.1094 0
L9.07812 0
L9.07812 54.6875
L18.1094 54.6875
L18.1094 46.1875
Q21.3438 51.125 25.7031 53.5625
Q30.0781 56 35.7969 56
Q45.2188 56 50.0469 50.1719
Q54.8906 44.3438 54.8906 33.0156" id="BitstreamVeraSans-Roman-6e"/>
      <path d="
M9.42188 75.9844
L18.4062 75.9844
L18.4062 0
L9.42188 0
z
" id="BitstreamVeraSans-Roman-6c"/>
      <path d="
M9.42188 54.6875
L18.4062 54.6875
L18.4062 0
L9.42188 0
z

M9.42188 75.9844
L18.4062 75.9844
L18.4062 64.5938
L9.42188 64.5938
z
" id="BitstreamVeraSans-Roman-69"/>
      <path d="
M32.1719 -5.07812
Q28.375 -14.8438 24.75 -17.8125
Q21.1406 -20.7969 15.0938 -20.7969
L7.90625 -20.7969
L7.90625 -13.2812
L13.1875 -13.2812
Q16.8906 -13.2812 18.9375 -11.5156
Q21 -9.76562 23.4844 -3.21875
L25.0938 0.875
L2.98438 54.6875
L12.5 54.6875
L29.5938 11.9219
L46.6875 54.6875
L56.2031 54.6875
z
" id="BitstreamVeraSans-Roman-79"/>
      <path d="
M45.4062 46.3906
L45.4062 75.9844
L54.3906 75.9844
L54.3906 0
L45.4062 0
L45.4062 8.20312
Q42.5781 3.32812 38.25 0.953125
Q33.9375 -1.42188 27.875 -1.42188
Q17.9688 -1.42188 11.7344 6.48438
Q5.51562 14.4062 5.51562 27.2969
Q5.51562 40.1875 11.7344 48.0938
Q17.9688 56 27.875 56
Q33.9375 56 38.25 53.625
Q42.5781 51.2656 45.4062 46.3906
M14.7969 27.2969
Q14.7969 17.3906 18.875 11.75
Q22.9531 6.10938 30.0781 6.10938
Q37.2031 6.10938 41.2969 11.75
Q45.4062 17.3906 45.4062 27.2969
Q45.4062 37.2031 41.2969 42.8438
Q37.2031 48.4844 30.0781 48.4844
Q22.9531 48.4844 18.875 42.8438
Q14.7969 37.2031 14.7969 27.2969" id="BitstreamVeraSans-Roman-64"/>
      <path d="
M8.5 21.5781
L8.5 54.6875
L17.4844 54.6875
L17.4844 21.9219
Q17.4844 14.1562 20.5 10.2656
Q23.5312 6.39062 29.5938 6.39062
Q36.8594 6.39062 41.0781 11.0312
Q45.3125 15.6719 45.3125 23.6875
L45.3125 54.6875
L54.2969 54.6875
L54.2969 0
L45.3125 0
L45.3125 8.40625
Q42.0469 3.42188 37.7188 1
Q33.4062 -1.42188 27.6875 -1.42188
Q18.2656 -1.42188 13.375 4.4375
Q8.5 10.2969 8.5 21.5781" id="BitstreamVeraSans-Roman-75"/>
      <path d="
M34.2812 27.4844
Q23.3906 27.4844 19.1875 25
Q14.9844 22.5156 14.9844 16.5
Q14.9844 11.7188 18.1406 8.90625
Q21.2969 6.10938 26.7031 6.10938
Q34.1875 6.10938 38.7031 11.4062
Q43.2188 16.7031 43.2188 25.4844
L43.2188 27.4844
z

M52.2031 31.2031
L52.2031 0
L43.2188 0
L43.2188 8.29688
Q40.1406 3.32812 35.5469 0.953125
Q30.9531 -1.42188 24.3125 -1.42188
Q15.9219 -1.42188 10.9531 3.29688
Q6 8.01562 6 15.9219
Q6 25.1406 12.1719 29.8281
Q18.3594 34.5156 30.6094 34.5156
L43.2188 34.5156
L43.2188 35.4062
Q43.2188 41.6094 39.1406 45
Q35.0625 48.3906 27.6875 48.3906
Q23 48.3906 18.5469 47.2656
Q14.1094 46.1406 10.0156 43.8906
L10.0156 52.2031
Q14.9375 54.1094 19.5781 55.0469
Q24.2188 56 28.6094 56
Q40.4844 56 46.3438 49.8438
Q52.2031 43.7031 52.2031 31.2031" id="BitstreamVeraSans-Roman-61"/>
     </defs>
     <g transform="translate(181.48671875 270.7946875)scale(0.1 -0.1)">
      <use xlink:href="#BitstreamVeraSans-Roman-4a"/>
      <use x="29.4921875" xlink:href="#BitstreamVeraSans-Roman-75"/>
      <use x="92.87109375" xlink:href="#BitstreamVeraSans-Roman-6c"/>
      <use x="120.654296875" xlink:href="#BitstreamVeraSans-Roman-69"/>
      <use x="148.4375" xlink:href="#BitstreamVeraSans-Roman-61"/>
      <use x="209.716796875" xlink:href="#BitstreamVeraSans-Roman-6e"/>
      <use x="273.095703125" xlink:href="#BitstreamVeraSans-Roman-20"/>
      <use x="304.8828125" xlink:href="#BitstreamVeraSans-Roman-64"/>
      <use x="368.359375" xlink:href="#BitstreamVeraSans-Roman-61"/>
      <use x="429.638671875" xlink:href="#BitstreamVeraSans-Roman-79"/>
     </g>
    </g>
   </g>
   <g id="matplotlib.axis_2">
    <g id="ytick_1">
     <g id="line2d_21">
      <defs>
       <path d="
M0 0
L4 0" id="m728421d6d4" style="stroke:#000000;stroke-width:0.5;"/>
      </defs>
      <g>
       <use style="stroke:#000000;stroke-width:0.5;" x="38.6375" xlink:href="#m728421d6d4" y="244.518125"/>
      </g>
     </g>
     <g id="line2d_22">
      <defs>
       <path d="
M0 0
L-4 0" id="mcb0005524f" style="stroke:#000000;stroke-width:0.5;"/>
      </defs>
      <g>
       <use style="stroke:#000000;stroke-width:0.5;" x="373.4375" xlink:href="#mcb0005524f" y="244.518125"/>
      </g>
     </g>
     <g id="text_10">
      <!-- −1 -->
      <defs>
       <path d="
M10.5938 35.5
L73.1875 35.5
L73.1875 27.2031
L10.5938 27.2031
z
" id="BitstreamVeraSans-Roman-2212"/>
      </defs>
      <g transform="translate(21.878125 247.2775)scale(0.1 -0.1)">
       <use xlink:href="#BitstreamVeraSans-Roman-2212"/>
       <use x="83.7890625" xlink:href="#BitstreamVeraSans-Roman-31"/>
      </g>
     </g>
    </g>
    <g id="ytick_2">
     <g id="line2d_23">
      <g>
       <use style="stroke:#000000;stroke-width:0.5;" x="38.6375" xlink:href="#m728421d6d4" y="212.632410714"/>
      </g>
     </g>
     <g id="line2d_24">
      <g>
       <use style="stroke:#000000;stroke-width:0.5;" x="373.4375" xlink:href="#mcb0005524f" y="212.632410714"/>
      </g>
     </g>
     <g id="text_11">
      <!-- 0 -->
      <g transform="translate(29.5984375 215.391785714)scale(0.1 -0.1)">
       <use xlink:href="#BitstreamVeraSans-Roman-30"/>
      </g>
     </g>
    </g>
    <g id="ytick_3">
     <g id="line2d_25">
      <g>
       <use style="stroke:#000000;stroke-width:0.5;" x="38.6375" xlink:href="#m728421d6d4" y="180.746696429"/>
      </g>
     </g>
     <g id="line2d_26">
      <g>
       <use style="stroke:#000000;stroke-width:0.5;" x="373.4375" xlink:href="#mcb0005524f" y="180.746696429"/>
      </g>
     </g>
     <g id="text_12">
      <!-- 1 -->
      <g transform="translate(30.296875 183.506071429)scale(0.1 -0.1)">
       <use xlink:href="#BitstreamVeraSans-Roman-31"/>
      </g>
     </g>
    </g>
    <g id="ytick_4">
     <g id="line2d_27">
      <g>
       <use style="stroke:#000000;stroke-width:0.5;" x="38.6375" xlink:href="#m728421d6d4" y="148.860982143"/>
      </g>
     </g>
     <g id="line2d_28">
      <g>
       <use style="stroke:#000000;stroke-width:0.5;" x="373.4375" xlink:href="#mcb0005524f" y="148.860982143"/>
      </g>
     </g>
     <g id="text_13">
      <!-- 2 -->
      <g transform="translate(30.009375 151.620357143)scale(0.1 -0.1)">
       <use xlink:href="#BitstreamVeraSans-Roman-32"/>
      </g>
     </g>
    </g>
    <g id="ytick_5">
     <g id="line2d_29">
      <g>
       <use style="stroke:#000000;stroke-width:0.5;" x="38.6375" xlink:href="#m728421d6d4" y="116.975267857"/>
      </g>
     </g>
     <g id="line2d_30">
      <g>
       <use style="stroke:#000000;stroke-width:0.5;" x="373.4375" xlink:href="#mcb0005524f" y="116.975267857"/>
      </g>
     </g>
     <g id="text_14">
      <!-- 3 -->
      <g transform="translate(29.8390625 119.734642857)scale(0.1 -0.1)">
       <use xlink:href="#BitstreamVeraSans-Roman-33"/>
      </g>
     </g>
    </g>
    <g id="ytick_6">
     <g id="line2d_31">
      <g>
       <use style="stroke:#000000;stroke-width:0.5;" x="38.6375" xlink:href="#m728421d6d4" y="85.0895535714"/>
      </g>
     </g>
     <g id="line2d_32">
      <g>
       <use style="stroke:#000000;stroke-width:0.5;" x="373.4375" xlink:href="#mcb0005524f" y="85.0895535714"/>
      </g>
     </g>
     <g id="text_15">
      <!-- 4 -->
      <defs>
       <path d="
M37.7969 64.3125
L12.8906 25.3906
L37.7969 25.3906
z

M35.2031 72.9062
L47.6094 72.9062
L47.6094 25.3906
L58.0156 25.3906
L58.0156 17.1875
L47.6094 17.1875
L47.6094 0
L37.7969 0
L37.7969 17.1875
L4.89062 17.1875
L4.89062 26.7031
z
" id="BitstreamVeraSans-Roman-34"/>
      </defs>
      <g transform="translate(29.325 87.8489285714)scale(0.1 -0.1)">
       <use xlink:href="#BitstreamVeraSans-Roman-34"/>
      </g>
     </g>
    </g>
    <g id="ytick_7">
     <g id="line2d_33">
      <g>
       <use style="stroke:#000000;stroke-width:0.5;" x="38.6375" xlink:href="#m728421d6d4" y="53.2038392857"/>
      </g>
     </g>
     <g id="line2d_34">
      <g>
       <use style="stroke:#000000;stroke-width:0.5;" x="373.4375" xlink:href="#mcb0005524f" y="53.2038392857"/>
      </g>
     </g>
     <g id="text_16">
      <!-- 5 -->
      <g transform="translate(29.9203125 55.9632142857)scale(0.1 -0.1)">
       <use xlink:href="#BitstreamVeraSans-Roman-35"/>
      </g>
     </g>
    </g>
    <g id="ytick_8">
     <g id="line2d_35">
      <g>
       <use style="stroke:#000000;stroke-width:0.5;" x="38.6375" xlink:href="#m728421d6d4" y="21.318125"/>
      </g>
     </g>
     <g id="line2d_36">
      <g>
       <use style="stroke:#000000;stroke-width:0.5;" x="373.4375" xlink:href="#mcb0005524f" y="21.318125"/>
      </g>
     </g>
     <g id="text_17">
      <!-- 6 -->
      <defs>
       <path d="
M33.0156 40.375
Q26.375 40.375 22.4844 35.8281
Q18.6094 31.2969 18.6094 23.3906
Q18.6094 15.5312 22.4844 10.9531
Q26.375 6.39062 33.0156 6.39062
Q39.6562 6.39062 43.5312 10.9531
Q47.4062 15.5312 47.4062 23.3906
Q47.4062 31.2969 43.5312 35.8281
Q39.6562 40.375 33.0156 40.375
M52.5938 71.2969
L52.5938 62.3125
Q48.875 64.0625 45.0938 64.9844
Q41.3125 65.9219 37.5938 65.9219
Q27.8281 65.9219 22.6719 59.3281
Q17.5312 52.7344 16.7969 39.4062
Q19.6719 43.6562 24.0156 45.9219
Q28.375 48.1875 33.5938 48.1875
Q44.5781 48.1875 50.9531 41.5156
Q57.3281 34.8594 57.3281 23.3906
Q57.3281 12.1562 50.6875 5.35938
Q44.0469 -1.42188 33.0156 -1.42188
Q20.3594 -1.42188 13.6719 8.26562
Q6.98438 17.9688 6.98438 36.375
Q6.98438 53.6562 15.1875 63.9375
Q23.3906 74.2188 37.2031 74.2188
Q40.9219 74.2188 44.7031 73.4844
Q48.4844 72.75 52.5938 71.2969" id="BitstreamVeraSans-Roman-36"/>
      </defs>
      <g transform="translate(29.603125 24.0775)scale(0.1 -0.1)">
       <use xlink:href="#BitstreamVeraSans-Roman-36"/>
      </g>
     </g>
    </g>
    <g id="text_18">
     <!-- PET (mm/day) -->
     <defs>
      <path d="
M52 44.1875
Q55.375 50.25 60.0625 53.125
Q64.75 56 71.0938 56
Q79.6406 56 84.2812 50.0156
Q88.9219 44.0469 88.9219 33.0156
L88.9219 0
L79.8906 0
L79.8906 32.7188
Q79.8906 40.5781 77.0938 44.375
Q74.3125 48.1875 68.6094 48.1875
Q61.625 48.1875 57.5625 43.5469
Q53.5156 38.9219 53.5156 30.9062
L53.5156 0
L44.4844 0
L44.4844 32.7188
Q44.4844 40.625 41.7031 44.4062
Q38.9219 48.1875 33.1094 48.1875
Q26.2188 48.1875 22.1562 43.5312
Q18.1094 38.875 18.1094 30.9062
L18.1094 0
L9.07812 0
L9.07812 54.6875
L18.1094 54.6875
L18.1094 46.1875
Q21.1875 51.2188 25.4844 53.6094
Q29.7812 56 35.6875 56
Q41.6562 56 45.8281 52.9688
Q50 49.9531 52 44.1875" id="BitstreamVeraSans-Roman-6d"/>
      <path d="
M8.01562 75.875
L15.8281 75.875
Q23.1406 64.3594 26.7812 53.3125
Q30.4219 42.2812 30.4219 31.3906
Q30.4219 20.4531 26.7812 9.375
Q23.1406 -1.70312 15.8281 -13.1875
L8.01562 -13.1875
Q14.5 -2 17.7031 9.0625
Q20.9062 20.125 20.9062 31.3906
Q20.9062 42.6719 17.7031 53.6562
Q14.5 64.6562 8.01562 75.875" id="BitstreamVeraSans-Roman-29"/>
      <path d="
M31 75.875
Q24.4688 64.6562 21.2812 53.6562
Q18.1094 42.6719 18.1094 31.3906
Q18.1094 20.125 21.3125 9.0625
Q24.5156 -2 31 -13.1875
L23.1875 -13.1875
Q15.875 -1.70312 12.2344 9.375
Q8.59375 20.4531 8.59375 31.3906
Q8.59375 42.2812 12.2031 53.3125
Q15.8281 64.3594 23.1875 75.875
z
" id="BitstreamVeraSans-Roman-28"/>
      <path d="
M19.6719 64.7969
L19.6719 37.4062
L32.0781 37.4062
Q38.9688 37.4062 42.7188 40.9688
Q46.4844 44.5312 46.4844 51.125
Q46.4844 57.6719 42.7188 61.2344
Q38.9688 64.7969 32.0781 64.7969
z

M9.8125 72.9062
L32.0781 72.9062
Q44.3438 72.9062 50.6094 67.3594
Q56.8906 61.8125 56.8906 51.125
Q56.8906 40.3281 50.6094 34.8125
Q44.3438 29.2969 32.0781 29.2969
L19.6719 29.2969
L19.6719 0
L9.8125 0
z
" id="BitstreamVeraSans-Roman-50"/>
      <path d="
M9.8125 72.9062
L55.9062 72.9062
L55.9062 64.5938
L19.6719 64.5938
L19.6719 43.0156
L54.3906 43.0156
L54.3906 34.7188
L19.6719 34.7188
L19.6719 8.29688
L56.7812 8.29688
L56.7812 0
L9.8125 0
z
" id="BitstreamVeraSans-Roman-45"/>
      <path d="
M-0.296875 72.9062
L61.375 72.9062
L61.375 64.5938
L35.5 64.5938
L35.5 0
L25.5938 0
L25.5938 64.5938
L-0.296875 64.5938
z
" id="BitstreamVeraSans-Roman-54"/>
      <path d="
M25.3906 72.9062
L33.6875 72.9062
L8.29688 -9.28125
L0 -9.28125
z
" id="BitstreamVeraSans-Roman-2f"/>
     </defs>
     <g transform="translate(14.7984375 167.82984375)rotate(-90.0)scale(0.1 -0.1)">
      <use xlink:href="#BitstreamVeraSans-Roman-50"/>
      <use x="60.302734375" xlink:href="#BitstreamVeraSans-Roman-45"/>
      <use x="123.486328125" xlink:href="#BitstreamVeraSans-Roman-54"/>
      <use x="184.5703125" xlink:href="#BitstreamVeraSans-Roman-20"/>
      <use x="216.357421875" xlink:href="#BitstreamVeraSans-Roman-28"/>
      <use x="255.37109375" xlink:href="#BitstreamVeraSans-Roman-6d"/>
      <use x="352.783203125" xlink:href="#BitstreamVeraSans-Roman-6d"/>
      <use x="450.1953125" xlink:href="#BitstreamVeraSans-Roman-2f"/>
      <use x="483.88671875" xlink:href="#BitstreamVeraSans-Roman-64"/>
      <use x="547.36328125" xlink:href="#BitstreamVeraSans-Roman-61"/>
      <use x="608.642578125" xlink:href="#BitstreamVeraSans-Roman-79"/>
      <use x="667.822265625" xlink:href="#BitstreamVeraSans-Roman-29"/>
     </g>
    </g>
   </g>
   <g id="text_19">
    <!-- daily shrub PET at LDP -->
    <defs>
     <path d="
M9.8125 72.9062
L19.6719 72.9062
L19.6719 8.29688
L55.1719 8.29688
L55.1719 0
L9.8125 0
z
" id="BitstreamVeraSans-Roman-4c"/>
     <path d="
M19.6719 64.7969
L19.6719 8.10938
L31.5938 8.10938
Q46.6875 8.10938 53.6875 14.9375
Q60.6875 21.7812 60.6875 36.5312
Q60.6875 51.1719 53.6875 57.9844
Q46.6875 64.7969 31.5938 64.7969
z

M9.8125 72.9062
L30.0781 72.9062
Q51.2656 72.9062 61.1719 64.0938
Q71.0938 55.2812 71.0938 36.5312
Q71.0938 17.6719 61.125 8.82812
Q51.1719 0 30.0781 0
L9.8125 0
z
" id="BitstreamVeraSans-Roman-44"/>
     <path d="
M54.8906 33.0156
L54.8906 0
L45.9062 0
L45.9062 32.7188
Q45.9062 40.4844 42.875 44.3281
Q39.8438 48.1875 33.7969 48.1875
Q26.5156 48.1875 22.3125 43.5469
Q18.1094 38.9219 18.1094 30.9062
L18.1094 0
L9.07812 0
L9.07812 75.9844
L18.1094 75.9844
L18.1094 46.1875
Q21.3438 51.125 25.7031 53.5625
Q30.0781 56 35.7969 56
Q45.2188 56 50.0469 50.1719
Q54.8906 44.3438 54.8906 33.0156" id="BitstreamVeraSans-Roman-68"/>
     <path d="
M18.3125 70.2188
L18.3125 54.6875
L36.8125 54.6875
L36.8125 47.7031
L18.3125 47.7031
L18.3125 18.0156
Q18.3125 11.3281 20.1406 9.42188
Q21.9688 7.51562 27.5938 7.51562
L36.8125 7.51562
L36.8125 0
L27.5938 0
Q17.1875 0 13.2344 3.875
Q9.28125 7.76562 9.28125 18.0156
L9.28125 47.7031
L2.6875 47.7031
L2.6875 54.6875
L9.28125 54.6875
L9.28125 70.2188
z
" id="BitstreamVeraSans-Roman-74"/>
     <path d="
M41.1094 46.2969
Q39.5938 47.1719 37.8125 47.5781
Q36.0312 48 33.8906 48
Q26.2656 48 22.1875 43.0469
Q18.1094 38.0938 18.1094 28.8125
L18.1094 0
L9.07812 0
L9.07812 54.6875
L18.1094 54.6875
L18.1094 46.1875
Q20.9531 51.1719 25.4844 53.5781
Q30.0312 56 36.5312 56
Q37.4531 56 38.5781 55.875
Q39.7031 55.7656 41.0625 55.5156
z
" id="BitstreamVeraSans-Roman-72"/>
     <path d="
M44.2812 53.0781
L44.2812 44.5781
Q40.4844 46.5312 36.375 47.5
Q32.2812 48.4844 27.875 48.4844
Q21.1875 48.4844 17.8438 46.4375
Q14.5 44.3906 14.5 40.2812
Q14.5 37.1562 16.8906 35.375
Q19.2812 33.5938 26.5156 31.9844
L29.5938 31.2969
Q39.1562 29.25 43.1875 25.5156
Q47.2188 21.7812 47.2188 15.0938
Q47.2188 7.46875 41.1875 3.01562
Q35.1562 -1.42188 24.6094 -1.42188
Q20.2188 -1.42188 15.4531 -0.5625
Q10.6875 0.296875 5.42188 2
L5.42188 11.2812
Q10.4062 8.6875 15.2344 7.39062
Q20.0625 6.10938 24.8125 6.10938
Q31.1562 6.10938 34.5625 8.28125
Q37.9844 10.4531 37.9844 14.4062
Q37.9844 18.0625 35.5156 20.0156
Q33.0625 21.9688 24.7031 23.7812
L21.5781 24.5156
Q13.2344 26.2656 9.51562 29.9062
Q5.8125 33.5469 5.8125 39.8906
Q5.8125 47.6094 11.2812 51.7969
Q16.75 56 26.8125 56
Q31.7812 56 36.1719 55.2656
Q40.5781 54.5469 44.2812 53.0781" id="BitstreamVeraSans-Roman-73"/>
     <path d="
M48.6875 27.2969
Q48.6875 37.2031 44.6094 42.8438
Q40.5312 48.4844 33.4062 48.4844
Q26.2656 48.4844 22.1875 42.8438
Q18.1094 37.2031 18.1094 27.2969
Q18.1094 17.3906 22.1875 11.75
Q26.2656 6.10938 33.4062 6.10938
Q40.5312 6.10938 44.6094 11.75
Q48.6875 17.3906 48.6875 27.2969
M18.1094 46.3906
Q20.9531 51.2656 25.2656 53.625
Q29.5938 56 35.5938 56
Q45.5625 56 51.7812 48.0938
Q58.0156 40.1875 58.0156 27.2969
Q58.0156 14.4062 51.7812 6.48438
Q45.5625 -1.42188 35.5938 -1.42188
Q29.5938 -1.42188 25.2656 0.953125
Q20.9531 3.32812 18.1094 8.20312
L18.1094 0
L9.07812 0
L9.07812 75.9844
L18.1094 75.9844
z
" id="BitstreamVeraSans-Roman-62"/>
    </defs>
    <g transform="translate(138.5534375 16.318125)scale(0.12 -0.12)">
     <use xlink:href="#BitstreamVeraSans-Roman-64"/>
     <use x="63.4765625" xlink:href="#BitstreamVeraSans-Roman-61"/>
     <use x="124.755859375" xlink:href="#BitstreamVeraSans-Roman-69"/>
     <use x="152.5390625" xlink:href="#BitstreamVeraSans-Roman-6c"/>
     <use x="180.322265625" xlink:href="#BitstreamVeraSans-Roman-79"/>
     <use x="239.501953125" xlink:href="#BitstreamVeraSans-Roman-20"/>
     <use x="271.2890625" xlink:href="#BitstreamVeraSans-Roman-73"/>
     <use x="323.388671875" xlink:href="#BitstreamVeraSans-Roman-68"/>
     <use x="386.767578125" xlink:href="#BitstreamVeraSans-Roman-72"/>
     <use x="427.880859375" xlink:href="#BitstreamVeraSans-Roman-75"/>
     <use x="491.259765625" xlink:href="#BitstreamVeraSans-Roman-62"/>
     <use x="554.736328125" xlink:href="#BitstreamVeraSans-Roman-20"/>
     <use x="586.5234375" xlink:href="#BitstreamVeraSans-Roman-50"/>
     <use x="646.826171875" xlink:href="#BitstreamVeraSans-Roman-45"/>
     <use x="710.009765625" xlink:href="#BitstreamVeraSans-Roman-54"/>
     <use x="771.09375" xlink:href="#BitstreamVeraSans-Roman-20"/>
     <use x="802.880859375" xlink:href="#BitstreamVeraSans-Roman-61"/>
     <use x="864.16015625" xlink:href="#BitstreamVeraSans-Roman-74"/>
     <use x="903.369140625" xlink:href="#BitstreamVeraSans-Roman-20"/>
     <use x="935.15625" xlink:href="#BitstreamVeraSans-Roman-4c"/>
     <use x="990.869140625" xlink:href="#BitstreamVeraSans-Roman-44"/>
     <use x="1067.87109375" xlink:href="#BitstreamVeraSans-Roman-50"/>
    </g>
   </g>
   <g id="legend_1">
    <g id="patch_7">
     <path d="
M295.374 101.373
L367.438 101.373
L367.438 27.3181
L295.374 27.3181
z
" style="fill:#ffffff;stroke:#000000;stroke-linejoin:miter;"/>
    </g>
    <g id="line2d_37">
     <path d="
M303.774 37.0363
L320.574 37.0363" style="fill:none;stroke:#0000ff;stroke-linecap:square;"/>
    </g>
    <g id="line2d_38"/>
    <g id="text_20">
     <!-- 2010 -->
     <g transform="translate(333.77375 41.23625)scale(0.12 -0.12)">
      <use xlink:href="#BitstreamVeraSans-Roman-32"/>
      <use x="63.623046875" xlink:href="#BitstreamVeraSans-Roman-30"/>
      <use x="127.24609375" xlink:href="#BitstreamVeraSans-Roman-31"/>
      <use x="190.869140625" xlink:href="#BitstreamVeraSans-Roman-30"/>
     </g>
    </g>
    <g id="line2d_39">
     <path d="
M303.774 54.65
L320.574 54.65" style="fill:none;stroke:#008000;stroke-linecap:square;"/>
    </g>
    <g id="line2d_40"/>
    <g id="text_21">
     <!-- 2011 -->
     <g transform="translate(333.77375 58.85)scale(0.12 -0.12)">
      <use xlink:href="#BitstreamVeraSans-Roman-32"/>
      <use x="63.623046875" xlink:href="#BitstreamVeraSans-Roman-30"/>
      <use x="127.24609375" xlink:href="#BitstreamVeraSans-Roman-31"/>
      <use x="190.869140625" xlink:href="#BitstreamVeraSans-Roman-31"/>
     </g>
    </g>
    <g id="line2d_41">
     <path d="
M303.774 72.2638
L320.574 72.2638" style="fill:none;stroke:#ff0000;stroke-linecap:square;"/>
    </g>
    <g id="line2d_42"/>
    <g id="text_22">
     <!-- 2012 -->
     <g transform="translate(333.77375 76.46375)scale(0.12 -0.12)">
      <use xlink:href="#BitstreamVeraSans-Roman-32"/>
      <use x="63.623046875" xlink:href="#BitstreamVeraSans-Roman-30"/>
      <use x="127.24609375" xlink:href="#BitstreamVeraSans-Roman-31"/>
      <use x="190.869140625" xlink:href="#BitstreamVeraSans-Roman-32"/>
     </g>
    </g>
    <g id="line2d_43">
     <path d="
M303.774 89.8775
L320.574 89.8775" style="fill:none;stroke:#00bfbf;stroke-linecap:square;"/>
    </g>
    <g id="line2d_44"/>
    <g id="text_23">
     <!-- 2013 -->
     <g transform="translate(333.77375 94.0775)scale(0.12 -0.12)">
      <use xlink:href="#BitstreamVeraSans-Roman-32"/>
      <use x="63.623046875" xlink:href="#BitstreamVeraSans-Roman-30"/>
      <use x="127.24609375" xlink:href="#BitstreamVeraSans-Roman-31"/>
      <use x="190.869140625" xlink:href="#BitstreamVeraSans-Roman-33"/>
     </g>
    </g>
   </g>
  </g>
 </g>
 <defs>
  <clipPath id="pa986dbe5e9">
   <rect height="223.2" width="334.8" x="38.6375" y="21.318125"/>
  </clipPath>
 </defs>
</svg>
