<?xml version="1.0" encoding="utf-8" standalone="no"?>
<!DOCTYPE svg PUBLIC "-//W3C//DTD SVG 1.1//EN"
  "http://www.w3.org/Graphics/SVG/1.1/DTD/svg11.dtd">
<!-- Created with matplotlib (http://matplotlib.org/) -->
<svg height="280pt" version="1.1" viewBox="0 0 379 280" width="379pt" xmlns="http://www.w3.org/2000/svg" xmlns:xlink="http://www.w3.org/1999/xlink">
 <defs>
  <style type="text/css">
*{stroke-linecap:butt;stroke-linejoin:round;}
  </style>
 </defs>
 <g id="figure_1">
  <g id="patch_1">
   <path d="
M0 280.074
L379.45 280.074
L379.45 0
L0 0
z
" style="fill:#ffffff;"/>
  </g>
  <g id="axes_1">
   <g id="patch_2">
    <path d="
M37.45 244.518
L372.25 244.518
L372.25 21.3181
L37.45 21.3181
z
" style="fill:#ffffff;"/>
   </g>
   <g id="line2d_1">
    <path clip-path="url(#p241ef2d1d3)" d="
M0 0" style="fill:none;stroke:#0000ff;stroke-linecap:square;"/>
   </g>
   <g id="line2d_2">
    <path clip-path="url(#p241ef2d1d3)" d="
M0 0" style="fill:none;stroke:#008000;stroke-linecap:square;"/>
   </g>
   <g id="line2d_3">
    <path clip-path="url(#p241ef2d1d3)" d="
M0 0" style="fill:none;stroke:#ff0000;stroke-linecap:square;"/>
   </g>
   <g id="line2d_4">
    <path clip-path="url(#p241ef2d1d3)" d="
M39.2845 243.942
L40.2018 238.736
L41.119 243.818
L42.0363 243.035
L42.9536 243.304
L43.8708 237.963
L44.7881 239.288
L45.7053 242.651
L46.6226 240.351
L47.5399 241.021
L48.4571 243.575
L49.3744 243.355
L50.2916 238.362
L51.2089 240.409
L52.1262 240.722
L53.0434 243.807
L53.9607 243.689
L54.8779 243.211
L55.7952 242.569
L56.7125 240.925
L57.6297 243.581
L58.547 244.032
L59.4642 243.581
L60.3815 243.545
L61.2988 243.92
M63.1333 242.767
L64.0505 241.504
L64.9678 243.629
L65.8851 243.792
L66.8023 242.616
L67.7196 242.539
L68.6368 243.175
L70.4714 243.526
L71.3886 242.966
L72.3059 242.907
L73.2232 241.416
L74.1404 241.147
L75.0577 243.502
L75.9749 242.641
L76.8922 243.64
L77.8095 242.71
L78.7267 244.38
L79.644 244.125
L80.5612 244.046
L81.4785 244.28
L82.3958 242.78
L83.313 242.444
L84.2303 242.404
L85.1475 237.739
L86.0648 237.473
L86.9821 241.982
L87.8993 243.312
L88.8166 240.446
L89.7338 241.326
L90.6511 242.362
L91.5684 240.461
L92.4856 239.866
L93.4029 241.945
L94.3201 241.279
L95.2374 242.149
L96.1547 241.326
L97.0719 240.047
L97.9892 242.211
L98.9064 241.966
L99.8237 239.262
L100.741 239.033
L101.658 239.578
L102.575 243.026
L103.493 241.365
L104.41 238.482
L105.327 238.324
L107.162 239.407
L108.079 236.395
L108.996 237.1
L109.914 239.835
L110.831 242.007
L111.748 238.969
L112.665 237.907
L114.5 242.199
L115.417 240.868
L116.334 237.136
L117.252 239.735
L118.169 242.674
L119.086 241.125
L120.003 242.798
L120.921 242.553
L121.838 240.989
L122.755 240.858
L123.672 241.001
L124.59 240.497
L125.507 240.923
L126.424 240.154
L127.342 237.397
L128.259 237.389
L129.176 237.266
L130.093 240.846
L131.011 242.332
L131.928 238.914
L132.845 237.02
L133.762 238.001
L134.68 238.028
L135.597 236.53
L136.514 235.679
L137.431 239.075
L138.349 241.849
L139.266 241.029
L140.183 234.899
L141.1 234.075
L142.018 233.67
L142.935 234.364
L143.852 241.029
L144.769 240.55
L145.687 240.43
L146.604 241.837
L147.521 240.753
L148.438 237.063
L149.356 239.718
L150.273 234.517
L151.19 235.459
L152.108 237.227
L153.025 232.22
L153.942 234.594
L154.859 233.982
L155.777 239.854
L157.611 233.61
L158.528 235.468
L159.446 233.926
L160.363 234.427
L161.28 235.671
L162.197 238.426
L163.115 241.671
L164.032 237.493
L164.949 236.788
L165.866 237.059
L166.784 243.539
L167.701 239.993
L169.535 235.523
L170.453 239.681
L171.37 239.764
L172.287 239.612
L173.205 239.22
L174.122 235.378
L175.039 240.652
L175.956 240.443
L176.874 242.353
L177.791 237.956
L178.708 242.704
L179.625 238.71
L180.543 241.717
L181.46 237.337
L182.377 236.483
L183.294 239.113
L184.212 240.922
L185.129 236.378
L186.046 234.452
L186.963 234.912
L187.881 235.631
L188.798 236.597
L189.715 236.238
L190.632 237.915
L191.55 234.126
L192.467 235.669
L193.384 238.913
L194.302 238.868
L195.219 235.692
L196.136 235.375
L197.053 238.013
L197.971 238.887
L198.888 236.216
L199.805 236.146
L200.722 237.081
L201.64 239.134
L202.557 237.262
L203.474 236.629
L204.391 237.027
L205.309 238.147
L206.226 235.468
L207.143 235.868
L208.06 235.868
L208.978 235.602
L209.895 235.934
L210.812 236.623
L211.729 236.734
L212.647 236.661
L213.564 236.356
L214.481 233.937
L215.398 235.042
L216.316 235.429
L217.233 236.456
L218.15 235.993
L219.068 235.962
L219.985 235.365
L220.902 235.752
L221.819 235.162
L222.737 231.996
L223.654 231.595
L224.571 232.847
L225.488 232.984
L226.406 236.817
L227.323 232.725
L228.24 233.839
L229.157 233.213
L230.075 235.121
L230.992 233.542
L231.909 232.295
L232.826 232.507
L233.744 234.41
L234.661 236.684
L236.495 237.891
L237.413 236.84
L238.33 237.185
L239.247 237.703
L240.165 238.889
L241.082 240.681
L241.999 237.971
L242.916 236.729
L243.834 237.094
L244.751 236.573
L245.668 236.81
L246.585 236.771
L247.503 237.026
L248.42 236.259
L249.337 236.109
L250.254 236.21
L251.172 235.693
L252.089 236.277
L253.006 235.85
L253.923 236.56
L254.841 237.947
L255.758 235.691
L256.675 236.305
L257.592 241.095
L258.51 238.557
L259.427 239.252
L260.344 239.187
L261.262 236.959
L262.179 236.36
L263.096 237.12
L264.013 236.528
L264.931 235.091
L265.848 235.003
L266.765 239.916
L267.682 243.226
L268.6 239.14
L269.517 236.141
L270.434 236.089
L271.351 236.663
L272.269 237.006
L273.186 236.913
L274.103 236.428
L275.02 237.274
L275.938 236.793
L276.855 238.708
L277.772 239.019
L278.689 236.965
L279.607 236.328
L280.524 236.573
L281.441 236.238
L282.358 237.092
L284.193 236.779
L285.11 237.223
L286.028 237.45
L286.945 236.82
L287.862 237.542
L288.779 237.639
L289.697 239.352
L290.614 242.519
L293.366 239.3
L294.283 242.335
L295.2 240.032
L296.117 240.182
L297.035 239.789
L297.952 236.617
L298.869 236.39
L299.786 236.414
L300.704 237.323
L301.621 238.937
L302.538 237.627
L303.455 235.586
L304.373 235.174
L305.29 236.348
L306.207 236.999
L307.125 237.032
L308.042 241.213
L308.959 243.474
L309.876 241.828
L310.794 242.5
L311.711 240.581
L312.628 236.561
L313.545 236.706
L314.463 238.177
L315.38 241.418
L316.297 239.567
L317.214 238.556
L318.132 238.581
L319.049 237.503
L319.966 238.562
L320.883 238.681
L321.801 241.643
L322.718 242.163
L323.635 239.627
L324.552 243.021
L325.47 242.878
L326.387 241.105
L327.304 240.983
L328.222 243.111
L329.139 243.212
M331.891 239.123
L332.808 242.311
L333.725 243.353
L334.642 242.068
L335.56 242.932
L336.477 242.476
L337.394 242.472
L338.311 240.505
L339.229 240.123
L340.146 240.581
L341.063 243.392
L341.98 242.194
L342.898 239.234
L343.815 243.606
L344.732 243.968
L345.649 242.135
L346.567 243.464
L347.484 243.21
L348.401 241.998
L349.318 243.407
L350.236 240.693
L351.153 242.449
L352.07 241.825
L352.988 242.955
L353.905 242.559
L354.822 241.684
L355.739 242.287
L356.657 242.437
L357.574 241.266
L358.491 239.593
L359.408 241.792
L360.326 243.307
L361.243 242.304
L362.16 241.798
L363.077 243.129
L363.995 242.611
L364.912 240.386
L365.829 236.191
L366.746 240.597
L367.664 242.514
L368.581 242.74
L369.498 243.116
L370.415 242.648
L371.333 244.034
L371.333 244.034" style="fill:none;stroke:#00bfbf;stroke-linecap:square;"/>
   </g>
   <g id="line2d_5">
    <path clip-path="url(#p241ef2d1d3)" d="
M37.45 241.912
L38.3673 240.8
L39.2845 243.662
L40.2018 243.363
L41.119 240.595
L42.0363 239.262
L42.9536 239.658
L43.8708 242.094
L44.7881 242.759
L45.7053 242.822
L46.6226 241.164
L47.5399 241.366
L48.4571 243.708
L49.3744 243.019
L50.2916 243.249
L51.2089 243.989
L53.0434 243.074
L53.9607 243.494
L54.8779 240.452
L56.7125 244.1
L57.6297 240.786
L58.547 242.796
L59.4642 243.819
L60.3815 242.072
L61.2988 241.199
L63.1333 241.765
L64.0505 243.003
L64.9678 242.092
L65.8851 239.488
L66.8023 237.926
L67.7196 239.38
L68.6368 242.576
L69.5541 242.712
L70.4714 241.358
L71.3886 242.172
L72.3059 242.001
L73.2232 242.5
L74.1404 241.475
L75.9749 238.859
L76.8922 238.502
L77.8095 238.764
L78.7267 239.229
L79.644 240.603
L80.5612 242.249
L81.4785 242.586
L82.3958 241.865
L83.313 243.073
L84.2303 243.709
L85.1475 242.788
L86.0648 241.375
L86.9821 240.527
L87.8993 241.515
L88.8166 239.973
L89.7338 240.78
L90.6511 239.237
L91.5684 239.209
L92.4856 241.657
L93.4029 241.793
L94.3201 242.428
L95.2374 241.786
L96.1547 242.403
L97.0719 242.223
L97.9892 243.757
L99.8237 241.058
L100.741 242.513
L102.575 242.463
L103.493 241.85
L104.41 242.071
L105.327 244.156
L106.245 243.241
L107.162 241.088
L108.079 242.339
L108.996 241.511
L109.914 242.887
L110.831 243.133
L111.748 241.434
L112.665 242.005
L113.583 242.041
L114.5 243.691
L115.417 243.138
L116.334 242.434
L118.169 242.822
L119.086 240.854
L120.003 240.269
L120.921 241.688
L122.755 239.075
L123.672 241.772
L124.59 241.586
L125.507 241.673
L126.424 241.154
L127.342 242.003
L128.259 240.492
L129.176 241.936
L130.093 240.075
L131.011 241.814
L131.928 240.679
L132.845 240.935
L133.762 241.613
L134.68 240.663
L135.597 241.482
L136.514 237.518
L138.349 242.712
L139.266 239.638
L140.183 238.501
L142.018 242.065
L142.935 241.252
L143.852 239.569
L144.769 241.362
L145.687 240.6
L146.604 240.086
L147.521 238.618
L148.438 239.753
L150.273 238.439
L151.19 237.409
L152.108 240.902
L153.025 239.842
L153.942 241.892
L154.859 239.108
L155.777 235.806
L156.694 235.949
L157.611 237.065
L158.528 236.575
L159.446 239.471
L160.363 241.735
L161.28 241.804
L162.197 239.451
L163.115 239.951
L164.032 234.952
L164.949 237.392
L165.866 239.414
L166.784 237.492
L167.701 239.854
L169.535 238.022
L170.453 240.576
L171.37 242.146
L172.287 239.929
L173.205 242.516
L174.122 240.124
L175.039 238.7
L175.956 237.901
L176.874 240.884
L177.791 237.198
L178.708 235.438
L179.625 237.348
L180.543 240.485
L181.46 241.012
L182.377 236.49
L183.294 237.096
L184.212 238.249
L186.046 239.152
L186.963 240.088
L187.881 236.017
L188.798 234.196
L189.715 237.073
L190.632 234.964
L191.55 240.305
L192.467 239.587
L193.384 237.33
L194.302 236.85
L196.136 236.841
L197.971 234.305
L198.888 234.675
L199.805 236.5
L200.722 237.153
L201.64 238.891
L202.557 237.752
L203.474 235.749
L204.391 236.453
L205.309 236.79
L206.226 237.545
L207.143 237.181
L208.06 237.019
L208.978 239.345
L209.895 236.867
L210.812 235.598
L211.729 236.95
L212.647 237.626
L213.564 237.738
L214.481 238.184
L215.398 238.968
L216.316 236.931
L217.233 237.804
L218.15 237.206
L219.068 237.019
L219.985 237.098
L221.819 236.535
L222.737 237.009
L223.654 236.199
L224.571 237.557
L225.488 236.991
L226.406 237.472
L228.24 236.575
L229.157 237.055
L230.075 238.349
L230.992 239.193
L231.909 238.151
L233.744 237.725
L234.661 239.125
L235.578 237.554
L236.495 237.327
L237.413 238.063
L238.33 237.459
L239.247 237.23
L240.165 237.171
L241.082 236.704
L241.999 236.915
L242.916 237.508
L244.751 236.572
L246.585 237.303
L247.503 237.136
L248.42 236.774
L249.337 237.791
L250.254 238.388
L251.172 237.875
L252.089 237.622
L253.006 238.059
L253.923 238.294
L254.841 238.17
L255.758 239.24
L256.675 238.445
L257.592 238.084
L258.51 237.543
L259.427 236.869
L260.344 236.664
L261.262 236.702
L262.179 236.923
L263.096 236.868
L264.013 237.269
L264.931 238.031
L266.765 237.979
L267.682 238.346
L268.6 238.073
L269.517 239.32
L270.434 238.492
L271.351 238.798
L272.269 238.199
L273.186 241.069
L274.103 242.649
L275.02 237.035
L275.938 237.049
L276.855 237.925
L277.772 237.618
L278.689 237.096
L279.607 237.858
L280.524 237.983
L281.441 237.994
L282.358 238.878
L283.276 238.056
L284.193 237.89
L285.11 237.941
L286.028 237.551
L286.945 238.717
L288.779 238.263
L289.697 238.674
L290.614 242.093
L291.531 243.274
L292.448 243.74
L293.366 243.802
L294.283 240.264
L295.2 238.543
L296.117 241.884
L297.035 240.425
L297.952 238.661
L298.869 237.756
L299.786 238.159
L300.704 239.701
L301.621 242.577
L302.538 238.723
L303.455 237.508
L304.373 239.097
L305.29 238.256
L306.207 238.969
L307.125 239.972
L308.042 239.141
L308.959 241.347
L309.876 236.949
L310.794 234.929
L311.711 236.099
L312.628 236.889
L313.545 237.975
L314.463 239.325
L315.38 240.383
L317.214 235.912
L318.132 236.835
L319.049 240.537
L319.966 243.039
L320.883 243.017
L321.801 241.695
L322.718 240.656
L323.635 238.656
L324.552 237.239
L326.387 241.246
L327.304 241.541
L328.222 240.043
L330.056 238.77
L330.973 242.108
L331.891 242.934
L332.808 242.099
L333.725 240.1
L335.56 241.778
L336.477 239.012
L337.394 240.681
L338.311 240.401
L339.229 235.675
L340.146 236.573
L341.063 240.049
L341.98 242.352
L342.898 241.452
L343.815 237.69
L344.732 237.807
L346.567 239.752
L348.401 237.796
L349.318 238.417
L350.236 238.148
L351.153 237.085
L352.07 238.345
L352.988 238.712
L353.905 238.649
L354.822 239.277
L355.739 239.558
L356.657 240.671
L357.574 240.894
L358.491 240.266
L359.408 239.854
L360.326 238.548
L361.243 238.19
L362.16 239.574
L363.077 235.191
L363.995 235.706
L364.912 236.396
L365.829 237.56
L366.746 238.319
L367.664 239.972
L368.581 243.209
L369.498 241.598
L370.415 243.212
L371.333 240.86
L371.333 240.86" style="fill:none;stroke:#bf00bf;stroke-linecap:square;"/>
   </g>
   <g id="line2d_6">
    <path clip-path="url(#p241ef2d1d3)" d="
M37.45 236.812
L38.3673 238.131
L39.2845 237.901
L40.2018 237.04
L41.119 239.203
L42.0363 239.86
L42.9536 240.363
L43.8708 240.402
L44.7881 240.18
L45.7053 241.783
L46.6226 239.303
L47.5399 237.326
L48.4571 234.77
L49.3744 235.613
L50.2916 238.872
L51.2089 239.624
L52.1262 237.115
L53.0434 240.244
L53.9607 243.974
L54.8779 243.964
L55.7952 243.738
L56.7125 242.294
L57.6297 243.381
L58.547 241.846
L59.4642 242.239
L60.3815 242.467
L61.2988 241.069
L63.1333 236.803
L64.0505 241.913
L64.9678 240.131
L65.8851 241.247
L66.8023 243.081
L67.7196 241.318
L68.6368 239.993
L70.4714 239.958
L71.3886 238.07
L72.3059 241.156
L73.2232 242.683
L74.1404 242.16
L75.0577 242.542
L75.9749 243.414
L76.8922 242.097
L77.8095 242.172
L78.7267 242.809
L79.644 240.032
L80.5612 240.795
L81.4785 241.947
L82.3958 240.355
L83.313 240.649
L84.2303 243.329
L85.1475 241.942
L86.0648 240.334
L86.9821 238.182
L87.8993 240.995
L88.8166 240.11
L89.7338 239.062
L90.6511 239.592
L91.5684 240.717
L92.4856 241.495
L93.4029 241.253
L94.3201 242.46
L95.2374 240.94
L96.1547 238.81
L97.0719 241.684
L97.9892 238.471
L99.8237 237.74
L100.741 237.06
L101.658 239.929
L102.575 240.527
L103.493 240.616
L104.41 243.763
L105.327 242.349
L106.245 241.882
L107.162 241.273
L108.079 242.688
L108.996 240.832
L109.914 241.684
L110.831 241.238
L111.748 238.445
L112.665 239.781
L113.583 237.535
L114.5 240.372
L115.417 242.803
L116.334 239.631
L117.252 241.858
L118.169 241.747
L119.086 242.915
L120.003 238.668
L120.921 239.44
L121.838 240.002
L122.755 237.252
L123.672 239.733
L124.59 239.234
L125.507 239.926
L126.424 235.626
L127.342 234.009
L128.259 235.478
L129.176 235.26
L130.093 239.684
L131.011 236.572
L131.928 239.472
L132.845 235.604
L133.762 234.2
L134.68 240.065
L135.597 237.403
L136.514 238.755
L137.431 240.591
L138.349 237.81
L139.266 235.869
L140.183 236.324
L141.1 238.578
L142.018 238.268
L142.935 239.36
L143.852 242.967
L144.769 239.155
L146.604 235.195
L147.521 240.824
L148.438 236.716
L149.356 236.191
L150.273 240.289
L151.19 240.752
L152.108 237.797
L153.025 235.957
L153.942 234.366
L154.859 235.004
L155.777 236.115
L156.694 233.776
L157.611 233.807
L158.528 234.328
L159.446 235.003
L160.363 236.237
L161.28 238.374
L162.197 235.736
L163.115 237.522
L164.032 235.464
L164.949 233.846
L165.866 235.25
L166.784 239.363
L167.701 238.868
L168.618 239.448
L169.535 236.559
L170.453 241.054
L171.37 241.836
L172.287 239.253
L173.205 235.262
L174.122 235.451
L175.039 235.31
L175.956 236.389
L176.874 236.223
L177.791 237.647
L178.708 237.494
L179.625 238.79
L180.543 240.676
L181.46 235.759
L182.377 236.874
L183.294 237.696
L184.212 240.032
L186.046 234.155
L186.963 237.097
L187.881 236.323
L188.798 234.03
L189.715 238.898
L190.632 236.012
L191.55 236.188
L192.467 235.527
L193.384 237.575
L194.302 234.904
L195.219 235.986
L196.136 239.943
L197.053 236.436
L197.971 235.937
L198.888 235.684
L199.805 236.765
L200.722 234.944
L201.64 236.205
L202.557 236.203
L203.474 236.711
L204.391 238.319
L205.309 236.907
L206.226 236.285
L207.143 235.965
L208.06 237.21
L208.978 237.55
L209.895 237.387
L210.812 239.31
L211.729 237.735
L212.647 237.642
L213.564 238.14
L214.481 237.642
L215.398 239.31
L216.316 240.232
L217.233 239.039
L218.15 238.68
L219.068 237.265
L219.985 237.064
L220.902 237.78
L221.819 236.869
L222.737 236.921
L223.654 237.277
L224.571 237.084
L225.488 236.765
L226.406 237.553
L227.323 237.343
L228.24 237.579
L230.992 237.226
L231.909 237.322
L232.826 236.767
L233.744 236.43
L239.247 238.087
L240.165 237.989
L241.082 238.787
L241.999 237.453
L242.916 237.86
L244.751 237.693
L245.668 237.472
L246.585 237.764
L248.42 237.52
L249.337 239.015
L250.254 237.856
L251.172 238.255
L252.089 237.547
L253.006 237.081
L253.923 235.365
L254.841 236.364
L255.758 238.375
L256.675 238.607
L257.592 237.583
L258.51 237.134
L259.427 236.85
L260.344 238.459
L261.262 237.652
L262.179 235.78
L263.096 236.305
L264.013 236.47
L264.931 237.06
L265.848 238.332
L266.765 236.666
L267.682 236.837
L268.6 237.981
L269.517 236.884
L270.434 236.467
L271.351 235.041
L272.269 236.542
L273.186 236.963
L274.103 236.953
L275.02 237.133
L275.938 236.724
L276.855 237.009
L277.772 237.493
L278.689 237.849
L279.607 237.879
L280.524 237.538
L281.441 241.271
L282.358 239.192
L283.276 239.151
L284.193 238.506
L285.11 237.473
L286.028 238.114
L287.862 237.727
L289.697 237.116
L290.614 235.047
L291.531 235.194
L293.366 234.78
L294.283 235.319
L295.2 235.397
L296.117 236.54
L297.035 237.058
L298.869 237.059
L299.786 240.91
L300.704 239.333
L301.621 239.864
L302.538 239.805
L303.455 237.453
L304.373 236.947
L305.29 238.549
L306.207 240.64
L307.125 237.74
L308.042 242.136
L308.959 241.057
L309.876 241.948
L310.794 240.013
L311.711 238.642
L312.628 240.997
M314.463 238.837
L315.38 238.912
L316.297 237.946
L317.214 240.264
L318.132 239.284
L319.049 239.737
L319.966 239.372
L320.883 240.732
L321.801 239.328
L322.718 240.194
L323.635 241.26
L324.552 242.558
L325.47 241.885
L326.387 241.789
L327.304 240.477
M329.139 242.097
L330.056 239.64
L331.891 242.284
L332.808 240.798
L333.725 242.048
L334.642 241.734
L335.56 241.927
L336.477 239.828
L337.394 237.381
L338.311 240.686
L339.229 241.831
L340.146 240.532
L341.063 239.751
L341.98 240.839
L343.815 242.373
L344.732 242.29
L345.649 242.846
L346.567 239.872
L347.484 241.636
L348.401 243.086
L349.318 242.114
L350.236 240.94
L351.153 242.067
L352.07 238.602
L352.988 242.803
L353.905 240.935
L354.822 243.557
L355.739 241.736
L356.657 243.606
L357.574 243.097
L358.491 242.375
L359.408 241.795
L360.326 242.381
L361.243 241.238
L362.16 237.465
L363.077 236.418
L363.995 239.943
L364.912 242.458
L365.829 243.043
L366.746 240.428
L367.664 242.1
L368.581 242.551
L369.498 242.795
L370.415 241.387
L371.333 243.358
L371.333 243.358" style="fill:none;stroke:#bfbf00;stroke-linecap:square;"/>
   </g>
   <g id="line2d_7">
    <path clip-path="url(#p241ef2d1d3)" d="
M37.45 242.329
L38.3673 242.444
L40.2018 238.791
L41.119 241.202
L42.0363 240.536
L42.9536 242.488
L43.8708 243.914
M48.4571 244.107
L49.3744 242.397
L50.2916 243.976
L51.2089 242.502
L52.1262 239.812
L53.0434 238.267
L53.9607 238.714
L54.8779 238.121
L55.7952 238.127
L56.7125 238.392
L57.6297 237.749
L58.547 241.566
L59.4642 243.877
L60.3815 243.743
L61.2988 244.315
L62.216 243.874
L64.0505 244.037
L64.9678 244.434
L65.8851 243.957
L66.8023 243.307
L67.7196 242.337
L68.6368 240.989
L69.5541 241.15
L70.4714 242.353
L71.3886 241.626
L72.3059 242.825
L73.2232 242.209
L74.1404 240.928
L75.0577 239.947
L75.9749 242.532
L76.8922 242.794
L77.8095 242.434
L78.7267 241.713
L79.644 241.961
L80.5612 242.632
L81.4785 239.551
L82.3958 241.254
L83.313 241.916
L84.2303 240.934
L85.1475 243.282
L86.9821 242.689
L87.8993 242.164
L88.8166 242.008
L89.7338 240.365
L90.6511 241.912
L91.5684 242.426
L92.4856 242.075
L93.4029 241.23
L94.3201 238.651
L95.2374 239.005
L96.1547 241.349
L97.0719 240.823
L97.9892 239.442
L98.9064 238.734
L99.8237 237.251
L100.741 241.6
L101.658 241.239
L102.575 239.098
L103.493 238.669
L104.41 239.147
L105.327 239.915
L107.162 239.257
L108.079 235.271
L108.996 240.363
L109.914 239.506
L110.831 240.973
L112.665 236.639
L113.583 236.543
L114.5 241.23
L115.417 239.853
L116.334 237.905
L117.252 238.034
L118.169 237.021
L119.086 237.372
L120.003 238.944
L120.921 237.599
L121.838 236.969
L122.755 240.322
L123.672 240.271
L124.59 241.9
L125.507 241.457
L126.424 238.254
L127.342 235.965
L128.259 239.699
L129.176 236.806
L130.093 235.073
L131.011 239.761
L131.928 237.674
L132.845 237.772
L134.68 233.769
L135.597 234.006
L136.514 241.826
L137.431 239.355
L138.349 237.601
L140.183 235.05
L141.1 233.891
L142.018 234.582
L142.935 235.692
L143.852 236.45
L144.769 235.278
L145.687 238.014
L146.604 236.566
L147.521 234.26
L148.438 233.826
L149.356 235.34
L150.273 238.507
L151.19 236.248
L152.108 238.776
L153.025 238.763
L153.942 238.47
L154.859 237.46
L155.777 237.174
L156.694 237.418
L157.611 237.506
L158.528 237.456
L159.446 236.678
L160.363 237.005
L162.197 241.429
L163.115 237.951
L164.032 239.464
L164.949 236.164
L165.866 237.602
L166.784 236.422
L167.701 233.741
L168.618 235.022
L169.535 235.46
L170.453 239.993
L171.37 239.32
L172.287 242.01
L173.205 241.363
L174.122 237.704
L175.039 236.023
L175.956 235.899
L176.874 235.636
L177.791 235.569
L178.708 236.354
L179.625 236.48
L180.543 237.337
L181.46 237.137
L183.294 236.981
L184.212 237.577
L185.129 237.797
L186.046 236.297
L186.963 238.916
L187.881 237.879
L188.798 235.562
L189.715 237.403
L190.632 237.103
L191.55 237.132
L192.467 241.471
L193.384 237.893
L194.302 238.174
L195.219 237.478
L196.136 237.491
L197.053 241.333
L197.971 242.792
L198.888 239.407
L199.805 237.55
L200.722 237.825
L201.64 238.47
L202.557 238.095
L203.474 238.698
L204.391 238.509
L205.309 239.757
L206.226 237.873
L207.143 237.077
L208.06 237.636
L208.978 237.763
L210.812 237.242
L212.647 238.847
L213.564 237.508
L214.481 236.479
L215.398 236.922
L216.316 237.626
L217.233 239.873
L218.15 238.208
L219.068 237.289
L219.985 237.705
L220.902 237.696
L222.737 237.08
L223.654 237.442
L224.571 238.041
L225.488 237.943
L226.406 238.467
L227.323 238.071
L228.24 237.54
L230.075 237.232
L230.992 238.159
L231.909 238.079
L232.826 237.172
L233.744 236.824
L234.661 237.472
L235.578 237.617
L236.495 237.592
L237.413 238.069
L238.33 238.089
L239.247 238.487
L240.165 238.321
L241.082 238.439
L241.999 238.797
L242.916 238.619
L243.834 238.172
L244.751 238.433
L246.585 238.314
L248.42 238.345
L250.254 238.05
L251.172 240.266
L252.089 239.019
L253.006 239.159
L253.923 238.81
L254.841 238.311
L255.758 238.538
L256.675 239.687
L258.51 238.284
L259.427 238.31
L260.344 238.704
L261.262 240.448
L262.179 241.831
L263.096 241.079
L264.013 241.368
L264.931 239.67
L265.848 238.27
L266.765 238.298
L267.682 238.717
L268.6 238.851
L269.517 239.427
L270.434 241.647
L271.351 240.243
L272.269 240.926
L273.186 239.718
L274.103 239.27
L275.02 240.702
L275.938 241.329
L276.855 237.846
L277.772 237.822
L278.689 240.016
L279.607 241.426
L280.524 239.37
L281.441 242.168
L282.358 243.492
L283.276 242.458
L284.193 240.154
L285.11 239.732
L286.028 242.212
L286.945 239.953
L287.862 241.069
L288.779 240.038
L289.697 241.958
L290.614 238.016
L291.531 236.786
L292.448 237.225
L293.366 238.508
L294.283 241.358
L295.2 239.409
L296.117 239.972
L297.952 238.74
L298.869 239.617
L300.704 238.609
L301.621 238.226
L302.538 238.804
L303.455 237.879
L304.373 238.107
L305.29 239.055
L306.207 239.11
L307.125 238.414
L308.042 238.788
L308.959 238.886
L309.876 238.791
L311.711 239.255
L312.628 242.578
L313.545 242.929
L314.463 242.297
L315.38 242.653
L316.297 242.482
L317.214 243.062
L318.132 242.804
L319.049 240.834
L319.966 241.71
L320.883 243.025
L321.801 242.449
L322.718 240.13
L323.635 239.439
L324.552 239.75
L325.47 239.281
L326.387 239.329
L327.304 240.944
L328.222 241.781
L330.056 242.671
L330.973 242.217
L331.891 240.367
L332.808 242.625
L333.725 242.919
L334.642 239.138
L335.56 238.534
L336.477 238.303
L337.394 238.643
L338.311 238.284
L339.229 239.308
L340.146 239.186
L341.98 240.119
L342.898 242.417
L343.815 243.028
L344.732 242.257
L345.649 240.361
L346.567 242.389
L347.484 241.561
L348.401 241.068
L349.318 242.221
L350.236 241.884
L351.153 239.193
L352.07 240.215
L352.988 242.06
L353.905 240.812
L354.822 241.263
L355.739 241.846
L356.657 239.268
L357.574 239.586
L358.491 238.228
L359.408 241.14
L360.326 242.153
L361.243 240.592
L362.16 242.989
L363.077 243.597
L364.912 242.069
L366.746 237.857
L367.664 238.14
L368.581 241.067
L369.498 239.973
L370.415 240.945
L371.333 241.656
L371.333 241.656" style="fill:none;stroke:#000000;stroke-linecap:square;"/>
   </g>
   <g id="line2d_8">
    <path clip-path="url(#p241ef2d1d3)" d="
M37.45 166.106
L38.3673 172.962
L39.2845 150.016
L41.119 48.7758
L42.0363 43.805
L42.9536 144.007
L43.8708 229.175
L44.7881 216.502
L45.7053 217.438
L46.6226 201.155
L47.5399 208.576
L48.4571 217.608
L49.3744 171.156
L50.2916 100.045
L51.2089 90.851
L52.1262 91.3864
L53.0434 112.586
L53.9607 102.112
L54.8779 114.761
L55.7952 105.617
L57.6297 140.377
L58.547 88.2839
L59.4642 51.6366
L60.3815 69.2904
L62.216 117.509
L63.1333 201.502
L64.0505 183.757
L64.9678 168.763
L65.8851 170.616
L66.8023 143.173
L67.7196 176.479
L68.6368 151.248
L69.5541 153.854
L70.4714 187.944
L71.3886 185.656
L72.3059 230.613
L74.1404 188.187
L75.0577 203.834
L75.9749 223.613
L76.8922 164.518
L77.8095 173.615
L78.7267 178.477
L79.644 180.115
L80.5612 127.033
L81.4785 177.162
L82.3958 172.157
L83.313 196.715
L84.2303 173.487
L85.1475 167.158
L86.0648 165.703
L86.9821 170.477
L87.8993 187.26
L88.8166 182.929
L89.7338 190.255
L90.6511 203.011
L91.5684 209.738
L92.4856 226.339
L93.4029 218.297
L94.3201 198.869
L95.2374 187.726
L96.1547 191.376
L97.0719 190.654
L97.9892 143.819
L98.9064 179.392
L99.8237 203.307
L100.741 177.692
L101.658 99.4789
L102.575 95.1487
L103.493 152.287
L104.41 116.327
L105.327 111.852
L106.245 154.983
L107.162 143.353
L108.079 97.9884
L108.996 118.711
L109.914 67.3089
L110.831 65.0096
L111.748 76.6496
L112.665 112.126
L113.583 155.766
L114.5 177.896
L115.417 225.907
L116.334 201.726
L117.252 190.316
L118.169 197.353
L119.086 171.94
L120.003 185.352
L120.921 201.384
L121.838 145.291
L122.755 178.515
L123.672 182.672
L124.59 195.279
L125.507 152.172
L126.424 145.833
L127.342 159.499
L128.259 126.318
L129.176 124.637
L130.093 135.498
L131.011 123.276
L131.928 85.3996
L132.845 108.412
L133.762 89.6666
L134.68 184.643
L135.597 161.678
L136.514 131.606
L137.431 137.348
L138.349 118.751
L139.266 172.999
L140.183 177.655
L141.1 198.373
L142.018 216.332
L142.935 179.526
L144.769 163.434
L145.687 116.22
L146.604 130.543
L147.521 141.695
L148.438 150.094
L149.356 141.611
L150.273 168.368
L151.19 164.125
L152.108 157.217
L153.025 145.221
L153.942 182.33
L154.859 187.316
L155.777 203.547
L156.694 162.673
L158.528 121.72
L159.446 146.144
L160.363 151.696
L161.28 156.293
L162.197 146.804
L163.115 179.904
L164.032 171.263
L164.949 168.165
L165.866 190.097
L166.784 152.917
L167.701 169.495
L168.618 189.937
L169.535 159.675
L170.453 157.583
L171.37 161.128
L172.287 158.968
L174.122 123.659
L175.039 140.474
L175.956 151.732
L176.874 152.051
L177.791 152.725
L178.708 150.549
L179.625 142.483
L180.543 138.9
L181.46 151.086
L182.377 152.119
L183.294 156.546
L184.212 157.109
L185.129 137.786
L186.046 160.168
L187.881 191.158
L188.798 160.418
L189.715 179.571
L190.632 159.548
L191.55 209.156
L192.467 165.809
L193.384 162.613
L194.302 163.747
L195.219 149.742
L196.136 159.313
L197.053 165.945
L197.971 201.639
L198.888 209.77
L199.805 203.005
L200.722 182.73
L201.64 155.428
L202.557 156.546
L203.474 157.921
L204.391 165.006
L205.309 175.356
L206.226 171.419
L208.06 167.214
L208.978 171.334
L209.895 172.832
L210.812 171.411
L211.729 177.905
L212.647 176.844
L213.564 168.302
L214.481 177.386
L215.398 178.163
L216.316 176.992
L217.233 175.044
L218.15 177.68
L219.068 155.875
L219.985 164.662
L220.902 187.073
L221.819 194.707
L222.737 185.546
L223.654 179.909
L225.488 146.791
L226.406 151.452
L227.323 165.715
L228.24 175.675
L229.157 173.443
L230.075 178.426
L230.992 175.069
L231.909 177.361
L232.826 173.292
L233.744 179.056
L234.661 178.028
L235.578 197.097
L236.495 203.364
L237.413 179.452
L238.33 177.869
L239.247 178.942
L240.165 176.065
L241.082 173.563
L242.916 206.072
L243.834 200.267
L244.751 175.716
L245.668 169.361
L246.585 168.9
L247.503 168.236
L248.42 168.885
L249.337 178.037
L250.254 170.675
L251.172 169.858
L252.089 180.037
L253.006 180.205
L253.923 189.145
L254.841 172.702
L255.758 165.244
L256.675 162.186
L257.592 166.913
L258.51 194.759
L259.427 189.987
L260.344 156.018
L261.262 153.263
L262.179 167.76
L263.096 137.31
L264.013 142.304
L264.931 143.769
L265.848 149.936
L266.765 151.369
L267.682 144.624
L268.6 155.781
L269.517 130.375
L270.434 120.157
L271.351 136.443
L272.269 148.212
L273.186 158.527
M278.689 192.312
L279.607 200.003
L280.524 187.729
L281.441 170.159
L282.358 161.518
L283.276 161.281
L284.193 190.402
L285.11 211.621
L286.028 221.079
L286.945 199.232
L287.862 172.217
L288.779 140.779
L289.697 138.698
L290.614 149.259
L291.531 153.455
L292.448 160.728
L293.366 156.665
L294.283 156.399
L295.2 146.522
L296.117 151.866
L297.035 175.212
L297.952 179.943
L298.869 135.754
L299.786 137.537
L300.704 169.886
L301.621 152.333
L302.538 132.604
L303.455 149.642
L304.373 151.894
L305.29 150.221
L306.207 197.419
L307.125 165.764
L308.042 208.082
L308.959 188.679
L309.876 147.661
L310.794 195.772
L311.711 156.899
L312.628 137.868
L313.545 161.653
L314.463 152.152
L315.38 137.806
L316.297 176.66
L317.214 226.252
L318.132 212.789
L319.049 205.301
L319.966 215.617
L320.883 179.499
L321.801 182.391
L322.718 149.409
L323.635 190.631
L324.552 182.263
L325.47 137.017
L326.387 68.3656
L327.304 118.005
L328.222 214.928
L329.139 189.544
L330.056 73.1197
L330.973 62.6675
L331.891 59.1458
L332.808 102.042
L333.725 158.479
L334.642 202.676
L335.56 223.971
L337.394 169.95
L338.311 208.161
L339.229 181.185
L340.146 160.338
L341.063 132.736
L341.98 174.63
L342.898 97.4164
L343.815 185.668
L344.732 195.073
L345.649 206.118
L346.567 213.024
L347.484 206.441
L348.401 198.723
L349.318 180.047
L350.236 174.518
L351.153 166.018
L352.07 143.932
L352.988 133.772
L353.905 182.655
L354.822 221.703
L356.657 167.55
L357.574 195.788
L358.491 196.793
L360.326 216.799
L361.243 230.982
L362.16 234.109
L363.077 226.155
L363.995 211.286
L364.912 194.228
L365.829 210.441
L366.746 205.658
L367.664 196.801
L368.581 213.027
L369.498 204.392
L370.415 187.69
L371.333 189.397
L371.333 189.397" style="fill:none;stroke:#0000ff;stroke-linecap:square;"/>
   </g>
   <g id="patch_3">
    <path d="
M37.45 21.3181
L372.25 21.3181" style="fill:none;stroke:#000000;stroke-linecap:square;stroke-linejoin:miter;"/>
   </g>
   <g id="patch_4">
    <path d="
M372.25 244.518
L372.25 21.3181" style="fill:none;stroke:#000000;stroke-linecap:square;stroke-linejoin:miter;"/>
   </g>
   <g id="patch_5">
    <path d="
M37.45 244.518
L372.25 244.518" style="fill:none;stroke:#000000;stroke-linecap:square;stroke-linejoin:miter;"/>
   </g>
   <g id="patch_6">
    <path d="
M37.45 244.518
L37.45 21.3181" style="fill:none;stroke:#000000;stroke-linecap:square;stroke-linejoin:miter;"/>
   </g>
   <g id="matplotlib.axis_1">
    <g id="xtick_1">
     <g id="line2d_9">
      <defs>
       <path d="
M0 0
L0 -4" id="mc7db9fdffb" style="stroke:#000000;stroke-width:0.5;"/>
      </defs>
      <g>
       <use style="stroke:#000000;stroke-width:0.5;" x="37.45" xlink:href="#mc7db9fdffb" y="244.518125"/>
      </g>
     </g>
     <g id="line2d_10">
      <defs>
       <path d="
M0 0
L0 4" id="m5a7d422ac3" style="stroke:#000000;stroke-width:0.5;"/>
      </defs>
      <g>
       <use style="stroke:#000000;stroke-width:0.5;" x="37.45" xlink:href="#m5a7d422ac3" y="21.318125"/>
      </g>
     </g>
     <g id="text_1">
      <!-- 0 -->
      <defs>
       <path d="
M31.7812 66.4062
Q24.1719 66.4062 20.3281 58.9062
Q16.5 51.4219 16.5 36.375
Q16.5 21.3906 20.3281 13.8906
Q24.1719 6.39062 31.7812 6.39062
Q39.4531 6.39062 43.2812 13.8906
Q47.125 21.3906 47.125 36.375
Q47.125 51.4219 43.2812 58.9062
Q39.4531 66.4062 31.7812 66.4062
M31.7812 74.2188
Q44.0469 74.2188 50.5156 64.5156
Q56.9844 54.8281 56.9844 36.375
Q56.9844 17.9688 50.5156 8.26562
Q44.0469 -1.42188 31.7812 -1.42188
Q19.5312 -1.42188 13.0625 8.26562
Q6.59375 17.9688 6.59375 36.375
Q6.59375 54.8281 13.0625 64.5156
Q19.5312 74.2188 31.7812 74.2188" id="BitstreamVeraSans-Roman-30"/>
      </defs>
      <g transform="translate(34.93046875 256.1165625)scale(0.1 -0.1)">
       <use xlink:href="#BitstreamVeraSans-Roman-30"/>
      </g>
     </g>
    </g>
    <g id="xtick_2">
     <g id="line2d_11">
      <g>
       <use style="stroke:#000000;stroke-width:0.5;" x="83.3130136986" xlink:href="#mc7db9fdffb" y="244.518125"/>
      </g>
     </g>
     <g id="line2d_12">
      <g>
       <use style="stroke:#000000;stroke-width:0.5;" x="83.3130136986" xlink:href="#m5a7d422ac3" y="21.318125"/>
      </g>
     </g>
     <g id="text_2">
      <!-- 50 -->
      <defs>
       <path d="
M10.7969 72.9062
L49.5156 72.9062
L49.5156 64.5938
L19.8281 64.5938
L19.8281 46.7344
Q21.9688 47.4688 24.1094 47.8281
Q26.2656 48.1875 28.4219 48.1875
Q40.625 48.1875 47.75 41.5
Q54.8906 34.8125 54.8906 23.3906
Q54.8906 11.625 47.5625 5.09375
Q40.2344 -1.42188 26.9062 -1.42188
Q22.3125 -1.42188 17.5469 -0.640625
Q12.7969 0.140625 7.71875 1.70312
L7.71875 11.625
Q12.1094 9.23438 16.7969 8.0625
Q21.4844 6.89062 26.7031 6.89062
Q35.1562 6.89062 40.0781 11.3281
Q45.0156 15.7656 45.0156 23.3906
Q45.0156 31 40.0781 35.4375
Q35.1562 39.8906 26.7031 39.8906
Q22.75 39.8906 18.8125 39.0156
Q14.8906 38.1406 10.7969 36.2812
z
" id="BitstreamVeraSans-Roman-35"/>
      </defs>
      <g transform="translate(77.6684824486 256.1165625)scale(0.1 -0.1)">
       <use xlink:href="#BitstreamVeraSans-Roman-35"/>
       <use x="63.623046875" xlink:href="#BitstreamVeraSans-Roman-30"/>
      </g>
     </g>
    </g>
    <g id="xtick_3">
     <g id="line2d_13">
      <g>
       <use style="stroke:#000000;stroke-width:0.5;" x="129.176027397" xlink:href="#mc7db9fdffb" y="244.518125"/>
      </g>
     </g>
     <g id="line2d_14">
      <g>
       <use style="stroke:#000000;stroke-width:0.5;" x="129.176027397" xlink:href="#m5a7d422ac3" y="21.318125"/>
      </g>
     </g>
     <g id="text_3">
      <!-- 100 -->
      <defs>
       <path d="
M12.4062 8.29688
L28.5156 8.29688
L28.5156 63.9219
L10.9844 60.4062
L10.9844 69.3906
L28.4219 72.9062
L38.2812 72.9062
L38.2812 8.29688
L54.3906 8.29688
L54.3906 0
L12.4062 0
z
" id="BitstreamVeraSans-Roman-31"/>
      </defs>
      <g transform="translate(120.513527397 256.1165625)scale(0.1 -0.1)">
       <use xlink:href="#BitstreamVeraSans-Roman-31"/>
       <use x="63.623046875" xlink:href="#BitstreamVeraSans-Roman-30"/>
       <use x="127.24609375" xlink:href="#BitstreamVeraSans-Roman-30"/>
      </g>
     </g>
    </g>
    <g id="xtick_4">
     <g id="line2d_15">
      <g>
       <use style="stroke:#000000;stroke-width:0.5;" x="175.039041096" xlink:href="#mc7db9fdffb" y="244.518125"/>
      </g>
     </g>
     <g id="line2d_16">
      <g>
       <use style="stroke:#000000;stroke-width:0.5;" x="175.039041096" xlink:href="#m5a7d422ac3" y="21.318125"/>
      </g>
     </g>
     <g id="text_4">
      <!-- 150 -->
      <g transform="translate(166.376541096 256.1165625)scale(0.1 -0.1)">
       <use xlink:href="#BitstreamVeraSans-Roman-31"/>
       <use x="63.623046875" xlink:href="#BitstreamVeraSans-Roman-35"/>
       <use x="127.24609375" xlink:href="#BitstreamVeraSans-Roman-30"/>
      </g>
     </g>
    </g>
    <g id="xtick_5">
     <g id="line2d_17">
      <g>
       <use style="stroke:#000000;stroke-width:0.5;" x="220.902054795" xlink:href="#mc7db9fdffb" y="244.518125"/>
      </g>
     </g>
     <g id="line2d_18">
      <g>
       <use style="stroke:#000000;stroke-width:0.5;" x="220.902054795" xlink:href="#m5a7d422ac3" y="21.318125"/>
      </g>
     </g>
     <g id="text_5">
      <!-- 200 -->
      <defs>
       <path d="
M19.1875 8.29688
L53.6094 8.29688
L53.6094 0
L7.32812 0
L7.32812 8.29688
Q12.9375 14.1094 22.625 23.8906
Q32.3281 33.6875 34.8125 36.5312
Q39.5469 41.8438 41.4219 45.5312
Q43.3125 49.2188 43.3125 52.7812
Q43.3125 58.5938 39.2344 62.25
Q35.1562 65.9219 28.6094 65.9219
Q23.9688 65.9219 18.8125 64.3125
Q13.6719 62.7031 7.8125 59.4219
L7.8125 69.3906
Q13.7656 71.7812 18.9375 73
Q24.125 74.2188 28.4219 74.2188
Q39.75 74.2188 46.4844 68.5469
Q53.2188 62.8906 53.2188 53.4219
Q53.2188 48.9219 51.5312 44.8906
Q49.8594 40.875 45.4062 35.4062
Q44.1875 33.9844 37.6406 27.2188
Q31.1094 20.4531 19.1875 8.29688" id="BitstreamVeraSans-Roman-32"/>
      </defs>
      <g transform="translate(212.056742295 256.1165625)scale(0.1 -0.1)">
       <use xlink:href="#BitstreamVeraSans-Roman-32"/>
       <use x="63.623046875" xlink:href="#BitstreamVeraSans-Roman-30"/>
       <use x="127.24609375" xlink:href="#BitstreamVeraSans-Roman-30"/>
      </g>
     </g>
    </g>
    <g id="xtick_6">
     <g id="line2d_19">
      <g>
       <use style="stroke:#000000;stroke-width:0.5;" x="266.765068493" xlink:href="#mc7db9fdffb" y="244.518125"/>
      </g>
     </g>
     <g id="line2d_20">
      <g>
       <use style="stroke:#000000;stroke-width:0.5;" x="266.765068493" xlink:href="#m5a7d422ac3" y="21.318125"/>
      </g>
     </g>
     <g id="text_6">
      <!-- 250 -->
      <g transform="translate(257.919755993 256.1165625)scale(0.1 -0.1)">
       <use xlink:href="#BitstreamVeraSans-Roman-32"/>
       <use x="63.623046875" xlink:href="#BitstreamVeraSans-Roman-35"/>
       <use x="127.24609375" xlink:href="#BitstreamVeraSans-Roman-30"/>
      </g>
     </g>
    </g>
    <g id="xtick_7">
     <g id="line2d_21">
      <g>
       <use style="stroke:#000000;stroke-width:0.5;" x="312.628082192" xlink:href="#mc7db9fdffb" y="244.518125"/>
      </g>
     </g>
     <g id="line2d_22">
      <g>
       <use style="stroke:#000000;stroke-width:0.5;" x="312.628082192" xlink:href="#m5a7d422ac3" y="21.318125"/>
      </g>
     </g>
     <g id="text_7">
      <!-- 300 -->
      <defs>
       <path d="
M40.5781 39.3125
Q47.6562 37.7969 51.625 33
Q55.6094 28.2188 55.6094 21.1875
Q55.6094 10.4062 48.1875 4.48438
Q40.7656 -1.42188 27.0938 -1.42188
Q22.5156 -1.42188 17.6562 -0.515625
Q12.7969 0.390625 7.625 2.20312
L7.625 11.7188
Q11.7188 9.32812 16.5938 8.10938
Q21.4844 6.89062 26.8125 6.89062
Q36.0781 6.89062 40.9375 10.5469
Q45.7969 14.2031 45.7969 21.1875
Q45.7969 27.6406 41.2812 31.2656
Q36.7656 34.9062 28.7188 34.9062
L20.2188 34.9062
L20.2188 43.0156
L29.1094 43.0156
Q36.375 43.0156 40.2344 45.9219
Q44.0938 48.8281 44.0938 54.2969
Q44.0938 59.9062 40.1094 62.9062
Q36.1406 65.9219 28.7188 65.9219
Q24.6562 65.9219 20.0156 65.0312
Q15.375 64.1562 9.8125 62.3125
L9.8125 71.0938
Q15.4375 72.6562 20.3438 73.4375
Q25.25 74.2188 29.5938 74.2188
Q40.8281 74.2188 47.3594 69.1094
Q53.9062 64.0156 53.9062 55.3281
Q53.9062 49.2656 50.4375 45.0938
Q46.9688 40.9219 40.5781 39.3125" id="BitstreamVeraSans-Roman-33"/>
      </defs>
      <g transform="translate(303.797613442 256.1165625)scale(0.1 -0.1)">
       <use xlink:href="#BitstreamVeraSans-Roman-33"/>
       <use x="63.623046875" xlink:href="#BitstreamVeraSans-Roman-30"/>
       <use x="127.24609375" xlink:href="#BitstreamVeraSans-Roman-30"/>
      </g>
     </g>
    </g>
    <g id="xtick_8">
     <g id="line2d_23">
      <g>
       <use style="stroke:#000000;stroke-width:0.5;" x="358.49109589" xlink:href="#mc7db9fdffb" y="244.518125"/>
      </g>
     </g>
     <g id="line2d_24">
      <g>
       <use style="stroke:#000000;stroke-width:0.5;" x="358.49109589" xlink:href="#m5a7d422ac3" y="21.318125"/>
      </g>
     </g>
     <g id="text_8">
      <!-- 350 -->
      <g transform="translate(349.66062714 256.1165625)scale(0.1 -0.1)">
       <use xlink:href="#BitstreamVeraSans-Roman-33"/>
       <use x="63.623046875" xlink:href="#BitstreamVeraSans-Roman-35"/>
       <use x="127.24609375" xlink:href="#BitstreamVeraSans-Roman-30"/>
      </g>
     </g>
    </g>
    <g id="text_9">
     <!-- Julian day -->
     <defs>
      <path d="
M32.1719 -5.07812
Q28.375 -14.8438 24.75 -17.8125
Q21.1406 -20.7969 15.0938 -20.7969
L7.90625 -20.7969
L7.90625 -13.2812
L13.1875 -13.2812
Q16.8906 -13.2812 18.9375 -11.5156
Q21 -9.76562 23.4844 -3.21875
L25.0938 0.875
L2.98438 54.6875
L12.5 54.6875
L29.5938 11.9219
L46.6875 54.6875
L56.2031 54.6875
z
" id="BitstreamVeraSans-Roman-79"/>
      <path d="
M8.5 21.5781
L8.5 54.6875
L17.4844 54.6875
L17.4844 21.9219
Q17.4844 14.1562 20.5 10.2656
Q23.5312 6.39062 29.5938 6.39062
Q36.8594 6.39062 41.0781 11.0312
Q45.3125 15.6719 45.3125 23.6875
L45.3125 54.6875
L54.2969 54.6875
L54.2969 0
L45.3125 0
L45.3125 8.40625
Q42.0469 3.42188 37.7188 1
Q33.4062 -1.42188 27.6875 -1.42188
Q18.2656 -1.42188 13.375 4.4375
Q8.5 10.2969 8.5 21.5781" id="BitstreamVeraSans-Roman-75"/>
      <path d="
M9.42188 75.9844
L18.4062 75.9844
L18.4062 0
L9.42188 0
z
" id="BitstreamVeraSans-Roman-6c"/>
      <path id="BitstreamVeraSans-Roman-20"/>
      <path d="
M54.8906 33.0156
L54.8906 0
L45.9062 0
L45.9062 32.7188
Q45.9062 40.4844 42.875 44.3281
Q39.8438 48.1875 33.7969 48.1875
Q26.5156 48.1875 22.3125 43.5469
Q18.1094 38.9219 18.1094 30.9062
L18.1094 0
L9.07812 0
L9.07812 54.6875
L18.1094 54.6875
L18.1094 46.1875
Q21.3438 51.125 25.7031 53.5625
Q30.0781 56 35.7969 56
Q45.2188 56 50.0469 50.1719
Q54.8906 44.3438 54.8906 33.0156" id="BitstreamVeraSans-Roman-6e"/>
      <path d="
M9.42188 54.6875
L18.4062 54.6875
L18.4062 0
L9.42188 0
z

M9.42188 75.9844
L18.4062 75.9844
L18.4062 64.5938
L9.42188 64.5938
z
" id="BitstreamVeraSans-Roman-69"/>
      <path d="
M34.2812 27.4844
Q23.3906 27.4844 19.1875 25
Q14.9844 22.5156 14.9844 16.5
Q14.9844 11.7188 18.1406 8.90625
Q21.2969 6.10938 26.7031 6.10938
Q34.1875 6.10938 38.7031 11.4062
Q43.2188 16.7031 43.2188 25.4844
L43.2188 27.4844
z

M52.2031 31.2031
L52.2031 0
L43.2188 0
L43.2188 8.29688
Q40.1406 3.32812 35.5469 0.953125
Q30.9531 -1.42188 24.3125 -1.42188
Q15.9219 -1.42188 10.9531 3.29688
Q6 8.01562 6 15.9219
Q6 25.1406 12.1719 29.8281
Q18.3594 34.5156 30.6094 34.5156
L43.2188 34.5156
L43.2188 35.4062
Q43.2188 41.6094 39.1406 45
Q35.0625 48.3906 27.6875 48.3906
Q23 48.3906 18.5469 47.2656
Q14.1094 46.1406 10.0156 43.8906
L10.0156 52.2031
Q14.9375 54.1094 19.5781 55.0469
Q24.2188 56 28.6094 56
Q40.4844 56 46.3438 49.8438
Q52.2031 43.7031 52.2031 31.2031" id="BitstreamVeraSans-Roman-61"/>
      <path d="
M45.4062 46.3906
L45.4062 75.9844
L54.3906 75.9844
L54.3906 0
L45.4062 0
L45.4062 8.20312
Q42.5781 3.32812 38.25 0.953125
Q33.9375 -1.42188 27.875 -1.42188
Q17.9688 -1.42188 11.7344 6.48438
Q5.51562 14.4062 5.51562 27.2969
Q5.51562 40.1875 11.7344 48.0938
Q17.9688 56 27.875 56
Q33.9375 56 38.25 53.625
Q42.5781 51.2656 45.4062 46.3906
M14.7969 27.2969
Q14.7969 17.3906 18.875 11.75
Q22.9531 6.10938 30.0781 6.10938
Q37.2031 6.10938 41.2969 11.75
Q45.4062 17.3906 45.4062 27.2969
Q45.4062 37.2031 41.2969 42.8438
Q37.2031 48.4844 30.0781 48.4844
Q22.9531 48.4844 18.875 42.8438
Q14.7969 37.2031 14.7969 27.2969" id="BitstreamVeraSans-Roman-64"/>
      <path d="
M9.8125 72.9062
L19.6719 72.9062
L19.6719 5.07812
Q19.6719 -8.10938 14.6719 -14.0625
Q9.67188 -20.0156 -1.42188 -20.0156
L-5.17188 -20.0156
L-5.17188 -11.7188
L-2.09375 -11.7188
Q4.4375 -11.7188 7.125 -8.04688
Q9.8125 -4.39062 9.8125 5.07812
z
" id="BitstreamVeraSans-Roman-4a"/>
     </defs>
     <g transform="translate(180.29921875 270.7946875)scale(0.1 -0.1)">
      <use xlink:href="#BitstreamVeraSans-Roman-4a"/>
      <use x="29.4921875" xlink:href="#BitstreamVeraSans-Roman-75"/>
      <use x="92.87109375" xlink:href="#BitstreamVeraSans-Roman-6c"/>
      <use x="120.654296875" xlink:href="#BitstreamVeraSans-Roman-69"/>
      <use x="148.4375" xlink:href="#BitstreamVeraSans-Roman-61"/>
      <use x="209.716796875" xlink:href="#BitstreamVeraSans-Roman-6e"/>
      <use x="273.095703125" xlink:href="#BitstreamVeraSans-Roman-20"/>
      <use x="304.8828125" xlink:href="#BitstreamVeraSans-Roman-64"/>
      <use x="368.359375" xlink:href="#BitstreamVeraSans-Roman-61"/>
      <use x="429.638671875" xlink:href="#BitstreamVeraSans-Roman-79"/>
     </g>
    </g>
   </g>
   <g id="matplotlib.axis_2">
    <g id="ytick_1">
     <g id="line2d_25">
      <defs>
       <path d="
M0 0
L4 0" id="md7965d1ba0" style="stroke:#000000;stroke-width:0.5;"/>
      </defs>
      <g>
       <use style="stroke:#000000;stroke-width:0.5;" x="37.45" xlink:href="#md7965d1ba0" y="244.518125"/>
      </g>
     </g>
     <g id="line2d_26">
      <defs>
       <path d="
M0 0
L-4 0" id="md9a1c1a7cd" style="stroke:#000000;stroke-width:0.5;"/>
      </defs>
      <g>
       <use style="stroke:#000000;stroke-width:0.5;" x="372.25" xlink:href="#md9a1c1a7cd" y="244.518125"/>
      </g>
     </g>
     <g id="text_10">
      <!-- 0 -->
      <g transform="translate(28.4109375 247.2775)scale(0.1 -0.1)">
       <use xlink:href="#BitstreamVeraSans-Roman-30"/>
      </g>
     </g>
    </g>
    <g id="ytick_2">
     <g id="line2d_27">
      <g>
       <use style="stroke:#000000;stroke-width:0.5;" x="37.45" xlink:href="#md7965d1ba0" y="219.718125"/>
      </g>
     </g>
     <g id="line2d_28">
      <g>
       <use style="stroke:#000000;stroke-width:0.5;" x="372.25" xlink:href="#md9a1c1a7cd" y="219.718125"/>
      </g>
     </g>
     <g id="text_11">
      <!-- 10 -->
      <g transform="translate(22.4875 222.4775)scale(0.1 -0.1)">
       <use xlink:href="#BitstreamVeraSans-Roman-31"/>
       <use x="63.623046875" xlink:href="#BitstreamVeraSans-Roman-30"/>
      </g>
     </g>
    </g>
    <g id="ytick_3">
     <g id="line2d_29">
      <g>
       <use style="stroke:#000000;stroke-width:0.5;" x="37.45" xlink:href="#md7965d1ba0" y="194.918125"/>
      </g>
     </g>
     <g id="line2d_30">
      <g>
       <use style="stroke:#000000;stroke-width:0.5;" x="372.25" xlink:href="#md9a1c1a7cd" y="194.918125"/>
      </g>
     </g>
     <g id="text_12">
      <!-- 20 -->
      <g transform="translate(22.121875 197.6775)scale(0.1 -0.1)">
       <use xlink:href="#BitstreamVeraSans-Roman-32"/>
       <use x="63.623046875" xlink:href="#BitstreamVeraSans-Roman-30"/>
      </g>
     </g>
    </g>
    <g id="ytick_4">
     <g id="line2d_31">
      <g>
       <use style="stroke:#000000;stroke-width:0.5;" x="37.45" xlink:href="#md7965d1ba0" y="170.118125"/>
      </g>
     </g>
     <g id="line2d_32">
      <g>
       <use style="stroke:#000000;stroke-width:0.5;" x="372.25" xlink:href="#md9a1c1a7cd" y="170.118125"/>
      </g>
     </g>
     <g id="text_13">
      <!-- 30 -->
      <g transform="translate(22.1515625 172.8775)scale(0.1 -0.1)">
       <use xlink:href="#BitstreamVeraSans-Roman-33"/>
       <use x="63.623046875" xlink:href="#BitstreamVeraSans-Roman-30"/>
      </g>
     </g>
    </g>
    <g id="ytick_5">
     <g id="line2d_33">
      <g>
       <use style="stroke:#000000;stroke-width:0.5;" x="37.45" xlink:href="#md7965d1ba0" y="145.318125"/>
      </g>
     </g>
     <g id="line2d_34">
      <g>
       <use style="stroke:#000000;stroke-width:0.5;" x="372.25" xlink:href="#md9a1c1a7cd" y="145.318125"/>
      </g>
     </g>
     <g id="text_14">
      <!-- 40 -->
      <defs>
       <path d="
M37.7969 64.3125
L12.8906 25.3906
L37.7969 25.3906
z

M35.2031 72.9062
L47.6094 72.9062
L47.6094 25.3906
L58.0156 25.3906
L58.0156 17.1875
L47.6094 17.1875
L47.6094 0
L37.7969 0
L37.7969 17.1875
L4.89062 17.1875
L4.89062 26.7031
z
" id="BitstreamVeraSans-Roman-34"/>
      </defs>
      <g transform="translate(21.878125 148.0775)scale(0.1 -0.1)">
       <use xlink:href="#BitstreamVeraSans-Roman-34"/>
       <use x="63.623046875" xlink:href="#BitstreamVeraSans-Roman-30"/>
      </g>
     </g>
    </g>
    <g id="ytick_6">
     <g id="line2d_35">
      <g>
       <use style="stroke:#000000;stroke-width:0.5;" x="37.45" xlink:href="#md7965d1ba0" y="120.518125"/>
      </g>
     </g>
     <g id="line2d_36">
      <g>
       <use style="stroke:#000000;stroke-width:0.5;" x="372.25" xlink:href="#md9a1c1a7cd" y="120.518125"/>
      </g>
     </g>
     <g id="text_15">
      <!-- 50 -->
      <g transform="translate(22.1609375 123.2775)scale(0.1 -0.1)">
       <use xlink:href="#BitstreamVeraSans-Roman-35"/>
       <use x="63.623046875" xlink:href="#BitstreamVeraSans-Roman-30"/>
      </g>
     </g>
    </g>
    <g id="ytick_7">
     <g id="line2d_37">
      <g>
       <use style="stroke:#000000;stroke-width:0.5;" x="37.45" xlink:href="#md7965d1ba0" y="95.718125"/>
      </g>
     </g>
     <g id="line2d_38">
      <g>
       <use style="stroke:#000000;stroke-width:0.5;" x="372.25" xlink:href="#md9a1c1a7cd" y="95.718125"/>
      </g>
     </g>
     <g id="text_16">
      <!-- 60 -->
      <defs>
       <path d="
M33.0156 40.375
Q26.375 40.375 22.4844 35.8281
Q18.6094 31.2969 18.6094 23.3906
Q18.6094 15.5312 22.4844 10.9531
Q26.375 6.39062 33.0156 6.39062
Q39.6562 6.39062 43.5312 10.9531
Q47.4062 15.5312 47.4062 23.3906
Q47.4062 31.2969 43.5312 35.8281
Q39.6562 40.375 33.0156 40.375
M52.5938 71.2969
L52.5938 62.3125
Q48.875 64.0625 45.0938 64.9844
Q41.3125 65.9219 37.5938 65.9219
Q27.8281 65.9219 22.6719 59.3281
Q17.5312 52.7344 16.7969 39.4062
Q19.6719 43.6562 24.0156 45.9219
Q28.375 48.1875 33.5938 48.1875
Q44.5781 48.1875 50.9531 41.5156
Q57.3281 34.8594 57.3281 23.3906
Q57.3281 12.1562 50.6875 5.35938
Q44.0469 -1.42188 33.0156 -1.42188
Q20.3594 -1.42188 13.6719 8.26562
Q6.98438 17.9688 6.98438 36.375
Q6.98438 53.6562 15.1875 63.9375
Q23.3906 74.2188 37.2031 74.2188
Q40.9219 74.2188 44.7031 73.4844
Q48.4844 72.75 52.5938 71.2969" id="BitstreamVeraSans-Roman-36"/>
      </defs>
      <g transform="translate(22.0875 98.4775)scale(0.1 -0.1)">
       <use xlink:href="#BitstreamVeraSans-Roman-36"/>
       <use x="63.623046875" xlink:href="#BitstreamVeraSans-Roman-30"/>
      </g>
     </g>
    </g>
    <g id="ytick_8">
     <g id="line2d_39">
      <g>
       <use style="stroke:#000000;stroke-width:0.5;" x="37.45" xlink:href="#md7965d1ba0" y="70.918125"/>
      </g>
     </g>
     <g id="line2d_40">
      <g>
       <use style="stroke:#000000;stroke-width:0.5;" x="372.25" xlink:href="#md9a1c1a7cd" y="70.918125"/>
      </g>
     </g>
     <g id="text_17">
      <!-- 70 -->
      <defs>
       <path d="
M8.20312 72.9062
L55.0781 72.9062
L55.0781 68.7031
L28.6094 0
L18.3125 0
L43.2188 64.5938
L8.20312 64.5938
z
" id="BitstreamVeraSans-Roman-37"/>
      </defs>
      <g transform="translate(22.209375 73.6775)scale(0.1 -0.1)">
       <use xlink:href="#BitstreamVeraSans-Roman-37"/>
       <use x="63.623046875" xlink:href="#BitstreamVeraSans-Roman-30"/>
      </g>
     </g>
    </g>
    <g id="ytick_9">
     <g id="line2d_41">
      <g>
       <use style="stroke:#000000;stroke-width:0.5;" x="37.45" xlink:href="#md7965d1ba0" y="46.118125"/>
      </g>
     </g>
     <g id="line2d_42">
      <g>
       <use style="stroke:#000000;stroke-width:0.5;" x="372.25" xlink:href="#md9a1c1a7cd" y="46.118125"/>
      </g>
     </g>
     <g id="text_18">
      <!-- 80 -->
      <defs>
       <path d="
M31.7812 34.625
Q24.75 34.625 20.7188 30.8594
Q16.7031 27.0938 16.7031 20.5156
Q16.7031 13.9219 20.7188 10.1562
Q24.75 6.39062 31.7812 6.39062
Q38.8125 6.39062 42.8594 10.1719
Q46.9219 13.9688 46.9219 20.5156
Q46.9219 27.0938 42.8906 30.8594
Q38.875 34.625 31.7812 34.625
M21.9219 38.8125
Q15.5781 40.375 12.0312 44.7188
Q8.5 49.0781 8.5 55.3281
Q8.5 64.0625 14.7188 69.1406
Q20.9531 74.2188 31.7812 74.2188
Q42.6719 74.2188 48.875 69.1406
Q55.0781 64.0625 55.0781 55.3281
Q55.0781 49.0781 51.5312 44.7188
Q48 40.375 41.7031 38.8125
Q48.8281 37.1562 52.7969 32.3125
Q56.7812 27.4844 56.7812 20.5156
Q56.7812 9.90625 50.3125 4.23438
Q43.8438 -1.42188 31.7812 -1.42188
Q19.7344 -1.42188 13.25 4.23438
Q6.78125 9.90625 6.78125 20.5156
Q6.78125 27.4844 10.7812 32.3125
Q14.7969 37.1562 21.9219 38.8125
M18.3125 54.3906
Q18.3125 48.7344 21.8438 45.5625
Q25.3906 42.3906 31.7812 42.3906
Q38.1406 42.3906 41.7188 45.5625
Q45.3125 48.7344 45.3125 54.3906
Q45.3125 60.0625 41.7188 63.2344
Q38.1406 66.4062 31.7812 66.4062
Q25.3906 66.4062 21.8438 63.2344
Q18.3125 60.0625 18.3125 54.3906" id="BitstreamVeraSans-Roman-38"/>
      </defs>
      <g transform="translate(22.0671875 48.8775)scale(0.1 -0.1)">
       <use xlink:href="#BitstreamVeraSans-Roman-38"/>
       <use x="63.623046875" xlink:href="#BitstreamVeraSans-Roman-30"/>
      </g>
     </g>
    </g>
    <g id="ytick_10">
     <g id="line2d_43">
      <g>
       <use style="stroke:#000000;stroke-width:0.5;" x="37.45" xlink:href="#md7965d1ba0" y="21.318125"/>
      </g>
     </g>
     <g id="line2d_44">
      <g>
       <use style="stroke:#000000;stroke-width:0.5;" x="372.25" xlink:href="#md9a1c1a7cd" y="21.318125"/>
      </g>
     </g>
     <g id="text_19">
      <!-- 90 -->
      <defs>
       <path d="
M10.9844 1.51562
L10.9844 10.5
Q14.7031 8.73438 18.5 7.8125
Q22.3125 6.89062 25.9844 6.89062
Q35.75 6.89062 40.8906 13.4531
Q46.0469 20.0156 46.7812 33.4062
Q43.9531 29.2031 39.5938 26.9531
Q35.25 24.7031 29.9844 24.7031
Q19.0469 24.7031 12.6719 31.3125
Q6.29688 37.9375 6.29688 49.4219
Q6.29688 60.6406 12.9375 67.4219
Q19.5781 74.2188 30.6094 74.2188
Q43.2656 74.2188 49.9219 64.5156
Q56.5938 54.8281 56.5938 36.375
Q56.5938 19.1406 48.4062 8.85938
Q40.2344 -1.42188 26.4219 -1.42188
Q22.7031 -1.42188 18.8906 -0.6875
Q15.0938 0.046875 10.9844 1.51562
M30.6094 32.4219
Q37.25 32.4219 41.125 36.9531
Q45.0156 41.5 45.0156 49.4219
Q45.0156 57.2812 41.125 61.8438
Q37.25 66.4062 30.6094 66.4062
Q23.9688 66.4062 20.0938 61.8438
Q16.2188 57.2812 16.2188 49.4219
Q16.2188 41.5 20.0938 36.9531
Q23.9688 32.4219 30.6094 32.4219" id="BitstreamVeraSans-Roman-39"/>
      </defs>
      <g transform="translate(22.01875 24.0775)scale(0.1 -0.1)">
       <use xlink:href="#BitstreamVeraSans-Roman-39"/>
       <use x="63.623046875" xlink:href="#BitstreamVeraSans-Roman-30"/>
      </g>
     </g>
    </g>
    <g id="text_20">
     <!-- PET (mm/day) -->
     <defs>
      <path d="
M8.01562 75.875
L15.8281 75.875
Q23.1406 64.3594 26.7812 53.3125
Q30.4219 42.2812 30.4219 31.3906
Q30.4219 20.4531 26.7812 9.375
Q23.1406 -1.70312 15.8281 -13.1875
L8.01562 -13.1875
Q14.5 -2 17.7031 9.0625
Q20.9062 20.125 20.9062 31.3906
Q20.9062 42.6719 17.7031 53.6562
Q14.5 64.6562 8.01562 75.875" id="BitstreamVeraSans-Roman-29"/>
      <path d="
M52 44.1875
Q55.375 50.25 60.0625 53.125
Q64.75 56 71.0938 56
Q79.6406 56 84.2812 50.0156
Q88.9219 44.0469 88.9219 33.0156
L88.9219 0
L79.8906 0
L79.8906 32.7188
Q79.8906 40.5781 77.0938 44.375
Q74.3125 48.1875 68.6094 48.1875
Q61.625 48.1875 57.5625 43.5469
Q53.5156 38.9219 53.5156 30.9062
L53.5156 0
L44.4844 0
L44.4844 32.7188
Q44.4844 40.625 41.7031 44.4062
Q38.9219 48.1875 33.1094 48.1875
Q26.2188 48.1875 22.1562 43.5312
Q18.1094 38.875 18.1094 30.9062
L18.1094 0
L9.07812 0
L9.07812 54.6875
L18.1094 54.6875
L18.1094 46.1875
Q21.1875 51.2188 25.4844 53.6094
Q29.7812 56 35.6875 56
Q41.6562 56 45.8281 52.9688
Q50 49.9531 52 44.1875" id="BitstreamVeraSans-Roman-6d"/>
      <path d="
M-0.296875 72.9062
L61.375 72.9062
L61.375 64.5938
L35.5 64.5938
L35.5 0
L25.5938 0
L25.5938 64.5938
L-0.296875 64.5938
z
" id="BitstreamVeraSans-Roman-54"/>
      <path d="
M19.6719 64.7969
L19.6719 37.4062
L32.0781 37.4062
Q38.9688 37.4062 42.7188 40.9688
Q46.4844 44.5312 46.4844 51.125
Q46.4844 57.6719 42.7188 61.2344
Q38.9688 64.7969 32.0781 64.7969
z

M9.8125 72.9062
L32.0781 72.9062
Q44.3438 72.9062 50.6094 67.3594
Q56.8906 61.8125 56.8906 51.125
Q56.8906 40.3281 50.6094 34.8125
Q44.3438 29.2969 32.0781 29.2969
L19.6719 29.2969
L19.6719 0
L9.8125 0
z
" id="BitstreamVeraSans-Roman-50"/>
      <path d="
M9.8125 72.9062
L55.9062 72.9062
L55.9062 64.5938
L19.6719 64.5938
L19.6719 43.0156
L54.3906 43.0156
L54.3906 34.7188
L19.6719 34.7188
L19.6719 8.29688
L56.7812 8.29688
L56.7812 0
L9.8125 0
z
" id="BitstreamVeraSans-Roman-45"/>
      <path d="
M31 75.875
Q24.4688 64.6562 21.2812 53.6562
Q18.1094 42.6719 18.1094 31.3906
Q18.1094 20.125 21.3125 9.0625
Q24.5156 -2 31 -13.1875
L23.1875 -13.1875
Q15.875 -1.70312 12.2344 9.375
Q8.59375 20.4531 8.59375 31.3906
Q8.59375 42.2812 12.2031 53.3125
Q15.8281 64.3594 23.1875 75.875
z
" id="BitstreamVeraSans-Roman-28"/>
      <path d="
M25.3906 72.9062
L33.6875 72.9062
L8.29688 -9.28125
L0 -9.28125
z
" id="BitstreamVeraSans-Roman-2f"/>
     </defs>
     <g transform="translate(14.7984375 167.82984375)rotate(-90.0)scale(0.1 -0.1)">
      <use xlink:href="#BitstreamVeraSans-Roman-50"/>
      <use x="60.302734375" xlink:href="#BitstreamVeraSans-Roman-45"/>
      <use x="123.486328125" xlink:href="#BitstreamVeraSans-Roman-54"/>
      <use x="184.5703125" xlink:href="#BitstreamVeraSans-Roman-20"/>
      <use x="216.357421875" xlink:href="#BitstreamVeraSans-Roman-28"/>
      <use x="255.37109375" xlink:href="#BitstreamVeraSans-Roman-6d"/>
      <use x="352.783203125" xlink:href="#BitstreamVeraSans-Roman-6d"/>
      <use x="450.1953125" xlink:href="#BitstreamVeraSans-Roman-2f"/>
      <use x="483.88671875" xlink:href="#BitstreamVeraSans-Roman-64"/>
      <use x="547.36328125" xlink:href="#BitstreamVeraSans-Roman-61"/>
      <use x="608.642578125" xlink:href="#BitstreamVeraSans-Roman-79"/>
      <use x="667.822265625" xlink:href="#BitstreamVeraSans-Roman-29"/>
     </g>
    </g>
   </g>
   <g id="text_21">
    <!-- daily shrub PET at LDP -->
    <defs>
     <path d="
M48.6875 27.2969
Q48.6875 37.2031 44.6094 42.8438
Q40.5312 48.4844 33.4062 48.4844
Q26.2656 48.4844 22.1875 42.8438
Q18.1094 37.2031 18.1094 27.2969
Q18.1094 17.3906 22.1875 11.75
Q26.2656 6.10938 33.4062 6.10938
Q40.5312 6.10938 44.6094 11.75
Q48.6875 17.3906 48.6875 27.2969
M18.1094 46.3906
Q20.9531 51.2656 25.2656 53.625
Q29.5938 56 35.5938 56
Q45.5625 56 51.7812 48.0938
Q58.0156 40.1875 58.0156 27.2969
Q58.0156 14.4062 51.7812 6.48438
Q45.5625 -1.42188 35.5938 -1.42188
Q29.5938 -1.42188 25.2656 0.953125
Q20.9531 3.32812 18.1094 8.20312
L18.1094 0
L9.07812 0
L9.07812 75.9844
L18.1094 75.9844
z
" id="BitstreamVeraSans-Roman-62"/>
     <path d="
M54.8906 33.0156
L54.8906 0
L45.9062 0
L45.9062 32.7188
Q45.9062 40.4844 42.875 44.3281
Q39.8438 48.1875 33.7969 48.1875
Q26.5156 48.1875 22.3125 43.5469
Q18.1094 38.9219 18.1094 30.9062
L18.1094 0
L9.07812 0
L9.07812 75.9844
L18.1094 75.9844
L18.1094 46.1875
Q21.3438 51.125 25.7031 53.5625
Q30.0781 56 35.7969 56
Q45.2188 56 50.0469 50.1719
Q54.8906 44.3438 54.8906 33.0156" id="BitstreamVeraSans-Roman-68"/>
     <path d="
M41.1094 46.2969
Q39.5938 47.1719 37.8125 47.5781
Q36.0312 48 33.8906 48
Q26.2656 48 22.1875 43.0469
Q18.1094 38.0938 18.1094 28.8125
L18.1094 0
L9.07812 0
L9.07812 54.6875
L18.1094 54.6875
L18.1094 46.1875
Q20.9531 51.1719 25.4844 53.5781
Q30.0312 56 36.5312 56
Q37.4531 56 38.5781 55.875
Q39.7031 55.7656 41.0625 55.5156
z
" id="BitstreamVeraSans-Roman-72"/>
     <path d="
M18.3125 70.2188
L18.3125 54.6875
L36.8125 54.6875
L36.8125 47.7031
L18.3125 47.7031
L18.3125 18.0156
Q18.3125 11.3281 20.1406 9.42188
Q21.9688 7.51562 27.5938 7.51562
L36.8125 7.51562
L36.8125 0
L27.5938 0
Q17.1875 0 13.2344 3.875
Q9.28125 7.76562 9.28125 18.0156
L9.28125 47.7031
L2.6875 47.7031
L2.6875 54.6875
L9.28125 54.6875
L9.28125 70.2188
z
" id="BitstreamVeraSans-Roman-74"/>
     <path d="
M19.6719 64.7969
L19.6719 8.10938
L31.5938 8.10938
Q46.6875 8.10938 53.6875 14.9375
Q60.6875 21.7812 60.6875 36.5312
Q60.6875 51.1719 53.6875 57.9844
Q46.6875 64.7969 31.5938 64.7969
z

M9.8125 72.9062
L30.0781 72.9062
Q51.2656 72.9062 61.1719 64.0938
Q71.0938 55.2812 71.0938 36.5312
Q71.0938 17.6719 61.125 8.82812
Q51.1719 0 30.0781 0
L9.8125 0
z
" id="BitstreamVeraSans-Roman-44"/>
     <path d="
M9.8125 72.9062
L19.6719 72.9062
L19.6719 8.29688
L55.1719 8.29688
L55.1719 0
L9.8125 0
z
" id="BitstreamVeraSans-Roman-4c"/>
     <path d="
M44.2812 53.0781
L44.2812 44.5781
Q40.4844 46.5312 36.375 47.5
Q32.2812 48.4844 27.875 48.4844
Q21.1875 48.4844 17.8438 46.4375
Q14.5 44.3906 14.5 40.2812
Q14.5 37.1562 16.8906 35.375
Q19.2812 33.5938 26.5156 31.9844
L29.5938 31.2969
Q39.1562 29.25 43.1875 25.5156
Q47.2188 21.7812 47.2188 15.0938
Q47.2188 7.46875 41.1875 3.01562
Q35.1562 -1.42188 24.6094 -1.42188
Q20.2188 -1.42188 15.4531 -0.5625
Q10.6875 0.296875 5.42188 2
L5.42188 11.2812
Q10.4062 8.6875 15.2344 7.39062
Q20.0625 6.10938 24.8125 6.10938
Q31.1562 6.10938 34.5625 8.28125
Q37.9844 10.4531 37.9844 14.4062
Q37.9844 18.0625 35.5156 20.0156
Q33.0625 21.9688 24.7031 23.7812
L21.5781 24.5156
Q13.2344 26.2656 9.51562 29.9062
Q5.8125 33.5469 5.8125 39.8906
Q5.8125 47.6094 11.2812 51.7969
Q16.75 56 26.8125 56
Q31.7812 56 36.1719 55.2656
Q40.5781 54.5469 44.2812 53.0781" id="BitstreamVeraSans-Roman-73"/>
    </defs>
    <g transform="translate(137.3659375 16.318125)scale(0.12 -0.12)">
     <use xlink:href="#BitstreamVeraSans-Roman-64"/>
     <use x="63.4765625" xlink:href="#BitstreamVeraSans-Roman-61"/>
     <use x="124.755859375" xlink:href="#BitstreamVeraSans-Roman-69"/>
     <use x="152.5390625" xlink:href="#BitstreamVeraSans-Roman-6c"/>
     <use x="180.322265625" xlink:href="#BitstreamVeraSans-Roman-79"/>
     <use x="239.501953125" xlink:href="#BitstreamVeraSans-Roman-20"/>
     <use x="271.2890625" xlink:href="#BitstreamVeraSans-Roman-73"/>
     <use x="323.388671875" xlink:href="#BitstreamVeraSans-Roman-68"/>
     <use x="386.767578125" xlink:href="#BitstreamVeraSans-Roman-72"/>
     <use x="427.880859375" xlink:href="#BitstreamVeraSans-Roman-75"/>
     <use x="491.259765625" xlink:href="#BitstreamVeraSans-Roman-62"/>
     <use x="554.736328125" xlink:href="#BitstreamVeraSans-Roman-20"/>
     <use x="586.5234375" xlink:href="#BitstreamVeraSans-Roman-50"/>
     <use x="646.826171875" xlink:href="#BitstreamVeraSans-Roman-45"/>
     <use x="710.009765625" xlink:href="#BitstreamVeraSans-Roman-54"/>
     <use x="771.09375" xlink:href="#BitstreamVeraSans-Roman-20"/>
     <use x="802.880859375" xlink:href="#BitstreamVeraSans-Roman-61"/>
     <use x="864.16015625" xlink:href="#BitstreamVeraSans-Roman-74"/>
     <use x="903.369140625" xlink:href="#BitstreamVeraSans-Roman-20"/>
     <use x="935.15625" xlink:href="#BitstreamVeraSans-Roman-4c"/>
     <use x="990.869140625" xlink:href="#BitstreamVeraSans-Roman-44"/>
     <use x="1067.87109375" xlink:href="#BitstreamVeraSans-Roman-50"/>
    </g>
   </g>
   <g id="legend_1">
    <g id="patch_7">
     <path d="
M294.062 171.828
L366.25 171.828
L366.25 27.3181
L294.062 27.3181
z
" style="fill:#ffffff;stroke:#000000;stroke-linejoin:miter;"/>
    </g>
    <g id="line2d_45">
     <path d="
M302.463 37.0363
L319.262 37.0363" style="fill:none;stroke:#0000ff;stroke-linecap:square;"/>
    </g>
    <g id="line2d_46"/>
    <g id="text_22">
     <!-- 2007 -->
     <g transform="translate(332.4625 41.23625)scale(0.12 -0.12)">
      <use xlink:href="#BitstreamVeraSans-Roman-32"/>
      <use x="63.623046875" xlink:href="#BitstreamVeraSans-Roman-30"/>
      <use x="127.24609375" xlink:href="#BitstreamVeraSans-Roman-30"/>
      <use x="190.869140625" xlink:href="#BitstreamVeraSans-Roman-37"/>
     </g>
    </g>
    <g id="line2d_47">
     <path d="
M302.463 54.65
L319.262 54.65" style="fill:none;stroke:#008000;stroke-linecap:square;"/>
    </g>
    <g id="line2d_48"/>
    <g id="text_23">
     <!-- 2008 -->
     <g transform="translate(332.4625 58.85)scale(0.12 -0.12)">
      <use xlink:href="#BitstreamVeraSans-Roman-32"/>
      <use x="63.623046875" xlink:href="#BitstreamVeraSans-Roman-30"/>
      <use x="127.24609375" xlink:href="#BitstreamVeraSans-Roman-30"/>
      <use x="190.869140625" xlink:href="#BitstreamVeraSans-Roman-38"/>
     </g>
    </g>
    <g id="line2d_49">
     <path d="
M302.463 72.2638
L319.262 72.2638" style="fill:none;stroke:#ff0000;stroke-linecap:square;"/>
    </g>
    <g id="line2d_50"/>
    <g id="text_24">
     <!-- 2009 -->
     <g transform="translate(332.4625 76.46375)scale(0.12 -0.12)">
      <use xlink:href="#BitstreamVeraSans-Roman-32"/>
      <use x="63.623046875" xlink:href="#BitstreamVeraSans-Roman-30"/>
      <use x="127.24609375" xlink:href="#BitstreamVeraSans-Roman-30"/>
      <use x="190.869140625" xlink:href="#BitstreamVeraSans-Roman-39"/>
     </g>
    </g>
    <g id="line2d_51">
     <path d="
M302.463 89.8775
L319.262 89.8775" style="fill:none;stroke:#00bfbf;stroke-linecap:square;"/>
    </g>
    <g id="line2d_52"/>
    <g id="text_25">
     <!-- 2010 -->
     <g transform="translate(332.4625 94.0775)scale(0.12 -0.12)">
      <use xlink:href="#BitstreamVeraSans-Roman-32"/>
      <use x="63.623046875" xlink:href="#BitstreamVeraSans-Roman-30"/>
      <use x="127.24609375" xlink:href="#BitstreamVeraSans-Roman-31"/>
      <use x="190.869140625" xlink:href="#BitstreamVeraSans-Roman-30"/>
     </g>
    </g>
    <g id="line2d_53">
     <path d="
M302.463 107.491
L319.262 107.491" style="fill:none;stroke:#bf00bf;stroke-linecap:square;"/>
    </g>
    <g id="line2d_54"/>
    <g id="text_26">
     <!-- 2011 -->
     <g transform="translate(332.4625 111.69125)scale(0.12 -0.12)">
      <use xlink:href="#BitstreamVeraSans-Roman-32"/>
      <use x="63.623046875" xlink:href="#BitstreamVeraSans-Roman-30"/>
      <use x="127.24609375" xlink:href="#BitstreamVeraSans-Roman-31"/>
      <use x="190.869140625" xlink:href="#BitstreamVeraSans-Roman-31"/>
     </g>
    </g>
    <g id="line2d_55">
     <path d="
M302.463 125.105
L319.262 125.105" style="fill:none;stroke:#bfbf00;stroke-linecap:square;"/>
    </g>
    <g id="line2d_56"/>
    <g id="text_27">
     <!-- 2012 -->
     <g transform="translate(332.4625 129.305)scale(0.12 -0.12)">
      <use xlink:href="#BitstreamVeraSans-Roman-32"/>
      <use x="63.623046875" xlink:href="#BitstreamVeraSans-Roman-30"/>
      <use x="127.24609375" xlink:href="#BitstreamVeraSans-Roman-31"/>
      <use x="190.869140625" xlink:href="#BitstreamVeraSans-Roman-32"/>
     </g>
    </g>
    <g id="line2d_57">
     <path d="
M302.463 142.719
L319.262 142.719" style="fill:none;stroke:#000000;stroke-linecap:square;"/>
    </g>
    <g id="line2d_58"/>
    <g id="text_28">
     <!-- 2013 -->
     <g transform="translate(332.4625 146.91875)scale(0.12 -0.12)">
      <use xlink:href="#BitstreamVeraSans-Roman-32"/>
      <use x="63.623046875" xlink:href="#BitstreamVeraSans-Roman-30"/>
      <use x="127.24609375" xlink:href="#BitstreamVeraSans-Roman-31"/>
      <use x="190.869140625" xlink:href="#BitstreamVeraSans-Roman-33"/>
     </g>
    </g>
    <g id="line2d_59">
     <path d="
M302.463 160.333
L319.262 160.333" style="fill:none;stroke:#0000ff;stroke-linecap:square;"/>
    </g>
    <g id="line2d_60"/>
    <g id="text_29">
     <!-- 2014 -->
     <g transform="translate(332.4625 164.5325)scale(0.12 -0.12)">
      <use xlink:href="#BitstreamVeraSans-Roman-32"/>
      <use x="63.623046875" xlink:href="#BitstreamVeraSans-Roman-30"/>
      <use x="127.24609375" xlink:href="#BitstreamVeraSans-Roman-31"/>
      <use x="190.869140625" xlink:href="#BitstreamVeraSans-Roman-34"/>
     </g>
    </g>
   </g>
  </g>
 </g>
 <defs>
  <clipPath id="p241ef2d1d3">
   <rect height="223.2" width="334.8" x="37.45" y="21.318125"/>
  </clipPath>
 </defs>
</svg>
