<?xml version="1.0" encoding="utf-8" standalone="no"?>
<!DOCTYPE svg PUBLIC "-//W3C//DTD SVG 1.1//EN"
  "http://www.w3.org/Graphics/SVG/1.1/DTD/svg11.dtd">
<!-- Created with matplotlib (http://matplotlib.org/) -->
<svg height="280pt" version="1.1" viewBox="0 0 373 280" width="373pt" xmlns="http://www.w3.org/2000/svg" xmlns:xlink="http://www.w3.org/1999/xlink">
 <defs>
  <style type="text/css">
*{stroke-linecap:butt;stroke-linejoin:round;}
  </style>
 </defs>
 <g id="figure_1">
  <g id="patch_1">
   <path d="
M0 280.074
L373.191 280.074
L373.191 0
L0 0
z
" style="fill:#ffffff;"/>
  </g>
  <g id="axes_1">
   <g id="patch_2">
    <path d="
M31.1906 244.518
L365.991 244.518
L365.991 21.3181
L31.1906 21.3181
z
" style="fill:#ffffff;"/>
   </g>
   <g id="line2d_1">
    <path clip-path="url(#pc1a11fcac8)" d="
M0 0" style="fill:none;stroke:#0000ff;stroke-linecap:square;"/>
   </g>
   <g id="line2d_2">
    <path clip-path="url(#pc1a11fcac8)" d="
M0 0" style="fill:none;stroke:#008000;stroke-linecap:square;"/>
   </g>
   <g id="line2d_3">
    <path clip-path="url(#pc1a11fcac8)" d="
M0 0" style="fill:none;stroke:#ff0000;stroke-linecap:square;"/>
   </g>
   <g id="line2d_4">
    <path clip-path="url(#pc1a11fcac8)" d="
M33.0251 221.603
L33.9424 130.551
L34.8597 231.192
L35.7769 213.008
L36.6942 212.718
L37.6114 109.571
L38.5287 143.453
L39.446 202.69
L40.3632 159.588
L41.2805 175.48
L42.1977 222.31
L43.115 211.507
L44.0323 119.136
L44.9495 163.606
L45.8668 168.363
L46.784 224.204
L47.7013 219.454
L48.6186 212.037
L49.5358 195.513
L50.4531 171.14
L51.3704 226.272
L52.2876 225.869
L53.2049 224.552
L54.1221 225.366
L55.0394 232.309
L55.9567 240.474
L56.8739 204.369
L57.7912 182.906
L58.7084 227.31
L59.6257 218.395
L60.543 201.666
L61.4602 202.699
L63.2947 220.148
L64.212 215.551
L65.1293 207.331
L66.0465 208.539
L66.9638 182.846
L67.881 177.51
L68.7983 222.359
L69.7156 206.282
L70.6328 225.55
L71.5501 205.692
L72.4673 240.428
L73.3846 236.376
L74.3019 234.583
L75.2191 236.182
L76.1364 207.306
L77.0536 196.861
L77.9709 193.302
L78.8882 101.597
L79.8054 98.2931
L80.7227 191.729
L81.6399 215.879
L82.5572 162.003
L84.3917 200.764
L85.309 159.693
L86.2262 152.161
L87.1435 189.568
L88.0608 178.341
L88.978 193.35
L89.8953 176.735
L90.8125 154.299
L91.7298 197.719
L92.6471 186.724
L93.5643 135.531
L94.4816 132.487
L95.3988 147.109
L96.3161 214.105
L97.2334 174.856
L98.1506 122.391
L99.0679 122.177
L99.9851 136.536
L100.902 144.217
L101.82 84.3236
L102.737 98.5208
L103.654 154.503
L104.571 192.877
L105.489 136.323
L106.406 113.852
L108.24 197.602
L109.158 167.649
L110.075 100.82
L111.91 205.146
L112.827 175.396
L113.744 207.932
L114.661 201.165
L115.579 175.183
L116.496 169.634
L117.413 175.982
L118.33 165.974
L119.248 169.772
L120.165 158.065
L121.082 102.299
L122.917 106.382
L123.834 168.793
L124.751 199.335
L125.668 135.928
L126.586 103.882
L127.503 123.043
L128.42 125.635
L129.337 99.2781
L130.255 84.8689
L131.172 150.775
L132.089 200.268
L133.007 185.498
L133.924 82.0525
L134.841 66.0174
L135.758 61.3372
L136.676 68.4158
L137.593 172.606
L138.51 178.44
L139.427 175.326
L140.345 197.695
L141.262 182.104
L142.179 122.946
L143.096 152.201
L144.014 77.7262
L144.931 89.6073
L145.848 124.01
L146.765 32.619
L147.683 78.9332
L148.6 67.0349
L149.517 156.423
L150.434 122.145
L151.352 65.4139
L152.269 89.9587
L153.186 65.7359
L154.104 72.808
L155.021 88.0579
L155.938 143.566
L156.855 191.988
L157.773 134.798
L158.69 117.17
L159.607 116.136
L160.524 224.283
L161.442 168.037
L163.276 92.9654
L164.193 159.434
L165.111 165.374
L166.028 159.964
L166.945 159.087
L167.862 95.9699
L168.78 175.937
L169.697 175.55
L170.614 205.857
L171.531 143.193
L172.449 211.744
L173.366 154.804
L174.283 195.744
L175.2 132.042
L176.118 108.559
L177.035 153.293
L177.952 181.857
L178.87 117.709
L179.787 77.7341
L180.704 85.0276
L181.621 96.6549
L182.539 115.056
L183.456 106.956
L184.373 133.007
L185.29 68.9935
L186.208 96.2699
L187.125 151.387
L188.042 155.442
L188.959 97.0686
L189.877 89.6747
L190.794 131.965
L191.711 146.742
L192.628 108.905
L193.546 105.374
L194.463 119.329
L195.38 152.679
L196.297 127.765
L197.215 113.862
L198.132 126.772
L199.049 143.569
L199.967 94.3898
L200.884 102.939
L201.801 100.598
L202.718 95.0218
L203.636 98.7161
L204.553 111.47
L205.47 111.25
L206.387 113.934
L207.305 107.589
L208.222 64.3594
L209.139 84.9665
L210.056 89.597
L210.974 107.275
L211.891 100.174
L212.808 99.1969
L213.725 88.6224
L214.643 94.6715
L215.56 88.0391
L216.477 49.8643
L217.394 40.7455
L218.312 60.5394
L219.229 66.3506
L220.146 117.898
L221.064 65.6644
L221.981 83.5145
L222.898 71.5061
L223.815 96.0621
L225.65 52.5455
L226.567 55.8414
L227.484 80.3568
L228.402 110.306
L230.236 128.328
L231.153 114.72
L232.071 120.08
L232.988 127.952
L233.905 147.261
L234.822 173.367
L236.657 114.019
L237.574 119.831
L238.491 108.549
L239.409 111.791
L240.326 110.771
L241.243 114.416
L242.16 101.843
L243.078 98.5952
L243.995 100.289
L244.912 93.3955
L245.83 104.653
L246.747 93.4224
L247.664 104.652
L248.581 128.115
L249.499 91.3694
L250.416 100.674
L251.333 185.587
L252.25 141.436
L253.168 155.302
L254.085 152.121
L255.002 114.053
L255.919 101.702
L256.837 115.261
L257.754 108.141
L258.671 78.5167
L259.588 75.0566
L260.506 158.001
L261.423 222.336
L262.34 153.196
L263.257 97.2969
L264.175 94.9411
L265.092 105.043
L266.009 111.494
L266.927 109.424
L267.844 102.026
L268.761 115.574
L269.678 106.91
L270.596 138.355
L271.513 149.433
L272.43 111.477
L273.347 97.5395
L274.265 102.764
L275.182 97.6663
L276.099 111.641
L277.016 106.645
L277.934 105.208
L278.851 112.353
L279.768 117.032
L280.685 105.223
L281.603 118.433
L282.52 119.945
L283.437 148.856
L284.354 207.642
L285.272 191.392
L286.189 163.411
L287.106 150.091
L288.024 201.976
L288.941 161.16
L289.858 167.049
L290.775 164.894
L291.693 98.6556
L292.61 95.3682
L293.527 95.0231
L294.444 110.81
L295.362 139.908
L296.279 117.962
L297.196 78.7965
L298.113 71.7063
L299.031 93.3258
L299.948 105.281
L300.865 106.941
L301.782 179.301
L302.7 223.291
L303.617 194.625
L304.534 210.445
L305.451 173.033
L306.369 98.1447
L307.286 99.399
L308.203 125.834
L309.12 187.204
L310.038 153.617
L310.955 135.315
L311.872 134.978
L312.79 113.493
L313.707 131.28
L314.624 134.778
L315.541 186.445
L316.459 202.31
L317.376 155.182
L318.293 217.566
L319.21 207.969
L320.128 182.759
L321.045 175.877
L321.962 219.03
L322.879 223.79
M325.631 140.232
L326.548 200.881
L327.466 218.327
L328.383 196.493
L329.3 213.394
L330.217 195.404
L331.135 188.838
L332.052 159.743
L332.969 156.084
L333.887 167.999
L334.804 217.25
L335.721 183.993
L336.638 141.723
L337.556 226.155
L338.473 232.097
L339.39 184.74
L340.307 224.096
L341.225 212.971
L342.142 193.426
L343.059 212.962
L343.976 168.997
L344.894 201.653
L345.811 190.416
L346.728 212.526
L347.645 203.55
L348.563 188.5
L349.48 199.318
L350.397 195.974
L352.232 136.82
L353.149 190
L354.066 218.939
L355.901 179.302
L356.818 209.503
L357.735 200.899
L358.653 155.324
L359.57 79.376
L360.487 164.361
L361.404 200.718
L362.322 210.476
L363.239 216.864
L364.156 201.775
L365.073 216.572
L365.073 216.572" style="fill:none;stroke:#00bfbf;stroke-linecap:square;"/>
   </g>
   <g id="line2d_5">
    <path clip-path="url(#pc1a11fcac8)" d="
M31.1906 175.897
L32.1079 167.345
L33.0251 212.614
L33.9424 214.172
L34.8597 164.64
L35.7769 136.165
L36.6942 140.536
L37.6114 187.199
L38.5287 202.47
L39.446 207.43
L40.3632 166.774
L41.2805 182.422
L42.1977 224.928
L43.115 215.457
L44.0323 219.423
L44.9495 234.585
L46.784 211.788
L47.7013 210.097
L48.6186 158.537
L49.5358 202.121
L50.4531 223.944
L51.3704 162.706
L52.2876 205.919
L53.2049 221.166
L54.1221 187.897
L55.0394 169.453
L55.9567 175.681
L56.8739 182.684
L57.7912 207.51
L58.7084 185.039
L59.6257 126.706
L60.543 101.393
L61.4602 139.25
L62.3775 206.673
L63.2947 203.68
L64.212 181.189
L65.1293 196.44
L66.0465 184.435
L66.9638 194.69
L69.7156 128.671
L70.6328 125.595
L71.5501 129.973
L72.4673 138.368
L74.3019 192.419
L75.2191 199.676
L76.1364 190.01
L77.0536 215.675
L77.9709 220.477
L78.8882 209.263
L79.8054 178.621
L80.7227 164.395
L81.6399 181.757
L82.5572 143.522
L83.4745 160.685
L84.3917 136.936
L85.309 134.788
L86.2262 185.837
L87.1435 189.406
L88.0608 196.378
L88.978 189.7
L89.8953 196.32
L90.8125 195.282
L91.7298 222.127
L93.5643 175.156
L94.4816 200.974
L95.3988 199.169
L96.3161 200.139
L97.2334 190.224
L98.1506 195.312
L99.0679 234.737
L99.9851 213.358
L100.902 172.393
L101.82 196.772
L102.737 182.975
L103.654 211.884
L104.571 213.996
L105.489 179.287
L106.406 194.688
L107.323 192.324
L108.24 227.278
L109.158 216.462
L110.075 198.977
L110.992 204.498
L111.91 211.917
L112.827 178.184
L113.744 166.114
L114.661 188.383
L115.579 161.803
L116.496 138.501
L117.413 189.327
L118.33 184.507
L119.248 187.662
L120.165 177.291
L121.082 192.317
L121.999 165.298
L122.917 194.006
L123.834 162.391
L124.751 191.165
L125.668 170.769
L126.586 176.32
L127.503 194.354
L128.42 178.201
L129.337 186.382
L130.255 110.892
L131.172 161.155
L132.089 201.426
L133.007 147.268
L133.924 126.232
L134.841 163.141
L135.758 194.76
L136.676 182.432
L137.593 152.437
L138.51 181.841
L139.427 164.748
L140.345 161.22
L141.262 132.807
L142.179 157.659
L143.096 148.522
L144.014 137.322
L144.931 115.286
L145.848 178.936
L146.765 169.282
L147.683 196.042
L148.6 159.562
L149.517 105.935
L150.434 105.095
L151.352 121.268
L152.269 114.228
L153.186 157.951
L154.104 194.742
L155.021 191.118
L155.938 155.583
L156.855 171.011
L157.773 87.8626
L159.607 159.185
L160.524 133.891
L161.442 164.525
L163.276 139.638
L164.193 180.842
L165.111 202.56
L166.028 169.377
L166.945 213.075
L167.862 173.081
L168.78 141.63
L169.697 139.802
L170.614 185.125
L171.531 125.077
L172.449 88.889
L173.366 121.228
L174.283 173.53
L175.2 185.364
L176.118 122.287
L177.035 132.046
L177.952 139.166
L178.87 149.284
L179.787 156.505
L180.704 171.466
L181.621 104.801
L182.539 74.3495
L183.456 118.479
L184.373 85.3571
L185.29 168.532
L186.208 169.283
L187.125 129.07
L188.042 119.537
L188.959 118.615
L189.877 120.001
L190.794 99.3326
L191.711 74.3988
L192.628 78.8347
L193.546 109.731
L194.463 122.515
L195.38 153.156
L196.297 137.368
L197.215 99.6964
L198.132 109.719
L199.049 116.4
L199.967 129.177
L200.884 122.672
L201.801 119.414
L202.718 149.274
L203.636 119.509
L204.553 93.3584
L205.47 118.461
L206.387 129.433
L207.305 131.415
L208.222 139.837
L209.139 153.014
L210.056 117.785
L210.974 131.715
L211.891 121.162
L212.808 117.441
L213.725 121.209
L214.643 118.009
L215.56 110.029
L216.477 121.526
L217.394 102.847
L218.312 126.274
L219.229 116.862
L220.146 128.77
L221.064 117.517
L221.981 109.937
L222.898 117.605
L224.733 156.501
L225.65 139.896
L226.567 133.736
L227.484 129.461
L228.402 145.498
L229.319 128.589
L230.236 122.996
L231.153 135.224
L232.071 124.579
L232.988 120.446
L233.905 118.601
L234.822 110.816
L235.74 113.6
L236.657 122.66
L237.574 117.064
L238.491 108.849
L239.409 112.881
L240.326 119.712
L241.243 117.505
L242.16 110.004
L243.078 127.236
L243.995 137.991
L244.912 129.253
L245.83 125.135
L246.747 131.776
L247.664 136.77
L248.581 134.686
L249.499 147.547
L250.416 139.086
L251.333 133.364
L252.25 122.967
L253.168 110.6
L254.085 108.786
L255.002 107.758
L255.919 110.694
L256.837 108.657
L257.754 115.536
L258.671 129.595
L259.588 128.581
L260.506 129.086
L261.423 133.587
L262.34 130.277
L263.257 150.223
L264.175 139.345
L265.092 144.669
L266.009 133.82
L266.927 182.36
L267.844 200.099
L268.761 114.597
L269.678 114.584
L270.596 129.285
L271.513 122.463
L272.43 111.949
L273.347 125.143
L274.265 126.709
L275.182 126.19
L276.099 139.97
L277.016 130.124
L277.934 125.777
L278.851 126.714
L279.768 118.403
L280.685 138.185
L281.603 135.492
L282.52 131.474
L283.437 140.47
L284.354 193.607
L285.272 219.706
L286.189 229.586
L287.106 231.979
L288.024 173.29
L288.941 139.191
L289.858 192.944
L290.775 177.028
L291.693 140.713
L292.61 124.444
L293.527 131.602
L294.444 157.236
L295.362 204.624
L296.279 140.078
L297.196 115.877
L298.113 144.439
L299.031 132.482
L299.948 144.186
L300.865 162.409
L301.782 147.078
L302.7 182.425
L303.617 101.183
L304.534 63.1761
L305.451 84.7393
L306.369 100.428
L307.286 122.396
L309.12 173.853
L310.955 79.0277
L311.872 94.6657
L312.79 164.155
L313.707 214.013
L314.624 213.668
L315.541 188.092
L316.459 169.307
L317.376 131.755
L318.293 104.883
L319.21 140.949
L320.128 184.446
L321.045 186.344
L321.962 159.272
L322.879 148.026
L323.797 133.379
L324.714 198.787
L325.631 210.432
L326.548 192.293
L327.466 156.03
L328.383 174.875
L329.3 189.82
L330.217 133.5
L331.135 168.113
L332.052 167.526
L332.969 70.3404
L333.887 91.2373
L334.804 159.551
L335.721 200.4
L336.638 182.292
L337.556 107.384
L338.473 112.976
L339.39 129.681
L340.307 153.684
L341.225 128.736
L342.142 112.172
L343.059 124.113
L343.976 116.896
L344.894 97.4595
L345.811 121.232
L346.728 128.277
L347.645 127.836
L348.563 141.42
L349.48 147.799
L350.397 166.159
L351.314 172.922
L352.232 160.849
L353.149 154.143
L354.066 124.168
L354.984 119.573
L355.901 146.82
L356.818 55.9502
L357.735 67.2523
L358.653 83.9901
L359.57 105.019
L360.487 121.575
L361.404 159.026
L362.322 216.529
L363.239 190.411
L364.156 217.732
L365.073 169.625
L365.073 169.625" style="fill:none;stroke:#bf00bf;stroke-linecap:square;"/>
   </g>
   <g id="line2d_6">
    <path clip-path="url(#pc1a11fcac8)" d="
M31.1906 102.323
L32.1079 123.241
L33.0251 121.94
L33.9424 105.696
L34.8597 145.822
L35.7769 154.541
L36.6942 170.778
L37.6114 167.87
L38.5287 163.801
L39.446 190.237
L40.3632 146.473
L41.2805 110.063
L42.1977 64.072
L43.115 77.1574
L44.0323 135.483
L44.9495 152.447
L45.8668 105.321
L46.784 164.805
L47.7013 233.228
L48.6186 233.264
L49.5358 227.143
L50.4531 197.632
L51.3704 222.134
L52.2876 190.593
L53.2049 200.509
L54.1221 202.419
L56.8739 98.3979
L57.7912 190.76
L58.7084 154.859
L60.543 207.423
L61.4602 173.817
L62.3775 151.486
L64.212 150.145
L65.1293 117.105
L66.0465 178.724
L66.9638 209.49
L67.881 196.791
L68.7983 206.236
L69.7156 222.441
L70.6328 193.464
L71.5501 195.917
L72.4673 204.323
L73.3846 156.422
L74.3019 173.396
L75.2191 192.458
L76.1364 162.722
L77.0536 169.144
L77.9709 222.121
L79.8054 165.159
L80.7227 121.84
L81.6399 178.342
L82.5572 160.334
L83.4745 138.095
L84.3917 146.461
L85.309 172.342
L86.2262 186.835
L87.1435 182.242
L88.0608 204.584
L88.978 173.339
L89.8953 137.093
L90.8125 187.536
L91.7298 126.691
L92.6471 121.344
L93.5643 117.384
L94.4816 106.097
L95.3988 159.619
L96.3161 169.927
L97.2334 171.777
L98.1506 229.008
L99.0679 205.509
L99.9851 196.316
L100.902 183.489
L101.82 209.411
L102.737 170.51
L103.654 190.677
L104.571 184.194
L105.489 135.76
L106.406 155.645
L107.323 116.621
L108.24 169.493
L109.158 209.311
L110.075 153.869
L110.992 192.722
L111.91 191.745
L112.827 214.378
L113.744 142.806
L114.661 151.247
L115.579 163.071
L116.496 114.061
L117.413 159.645
L118.33 153.679
L119.248 159.442
L120.165 89.9513
L121.082 64.425
L121.999 85.7578
L122.917 86.8371
L123.834 159.449
L124.751 117.767
L125.668 157.806
L126.586 96.0594
L127.503 77.5546
L128.42 166.1
L129.337 132.697
L130.255 154.333
L131.172 182.633
L133.007 102.969
L133.924 108.643
L134.841 146.265
L135.758 141.555
L136.676 160.711
L137.593 215.735
L138.51 157.6
L140.345 94.702
L141.262 180.878
L142.179 120.12
L143.096 109.415
L144.014 170.343
L144.931 185.087
L145.848 139.753
L146.765 106.059
L147.683 78.8229
L148.6 88.0474
L149.517 109.353
L150.434 72.466
L151.352 69.0737
L152.269 76.4226
L153.186 87.6953
L154.104 106.218
L155.021 136.908
L155.938 100.74
L156.855 126.117
L157.773 100.736
L158.69 67.8127
L159.607 92.6733
L160.524 155.799
L161.442 153.745
L162.359 161.035
L163.276 118.636
L164.193 186.839
L165.111 197.456
L166.028 161.13
L166.945 95.5031
L167.862 98.6882
L168.78 93.226
L169.697 113.334
L170.614 110.793
L171.531 136.844
L172.449 130.778
L174.283 178.628
L175.2 110.284
L176.118 122.245
L177.035 132.663
L177.952 166.129
L178.87 128.436
L179.787 77.1745
L180.704 127.682
L181.621 114.913
L182.539 71.3572
L183.456 137.141
L184.373 104.28
L185.29 108.391
L186.208 99.3453
L187.125 128.886
L188.042 88.9104
L188.959 102.524
L189.877 159.048
L190.794 115.144
L191.711 105.878
L192.628 101.004
L193.546 122.623
L194.463 86.5221
L195.38 107.641
L196.297 107.982
L197.215 117.275
L198.132 143.36
L199.049 120.873
L199.967 111.357
L200.884 104.778
L201.801 124.507
L202.718 131.967
L203.636 127.064
L204.553 160.032
L205.47 132.419
L206.387 132.1
L207.305 139.285
L208.222 131.121
L210.056 176.484
L210.974 156.358
L211.891 145.008
L212.808 125.503
L213.725 121.956
L214.643 130.234
L215.56 119.808
L216.477 120.02
L217.394 125.168
L219.229 117.905
L220.146 130.15
L221.064 125.318
L221.981 129.847
L222.898 127.926
L223.815 124.921
L224.733 123.746
L225.65 125.296
L226.567 116.008
L227.484 110.021
L228.402 116.628
L229.319 117.509
L230.236 126.898
L231.153 128.546
L232.988 135.332
L233.905 135.776
L234.822 146.397
L235.74 125.925
L236.657 130.655
L237.574 129.768
L239.409 125.738
L240.326 131.434
L241.243 128.296
L242.16 125.961
L243.078 149.563
L243.995 133.248
L244.912 136.783
L245.83 126.91
L246.747 118.499
L247.664 89.6285
L248.581 105.263
L249.499 139.289
L250.416 146.637
L251.333 126.936
L252.25 118.81
L253.168 114.084
L254.085 138.863
L255.002 128.869
L255.919 94.8998
L256.837 104.092
L257.754 107.682
L258.671 117.294
L259.588 133.496
L260.506 110.566
L261.423 112.537
L262.34 132.738
L263.257 114.572
L264.175 108.042
L265.092 80.3278
L266.009 106.303
L266.927 113.282
L267.844 114.076
L268.761 117.171
L269.678 109.657
L270.596 114.458
L272.43 125.877
L273.347 125.596
L274.265 121.724
L275.182 180.34
L276.099 153.891
L277.016 154.905
L277.934 141.712
L278.851 122.232
L279.768 131.417
L280.685 130.329
L281.603 127.114
L283.437 114.657
L284.354 77.2294
L285.272 79.9065
L286.189 75.197
L287.106 71.8614
L288.024 81.5936
L288.941 82.4746
L289.858 103.368
L290.775 113.239
L291.693 113.488
L292.61 112.866
L293.527 178.666
L294.444 154.393
L295.362 164.255
L296.279 162.249
L297.196 120.978
L298.113 110.548
L299.031 134.248
L299.948 177.992
L300.865 123.307
L301.782 196.894
L302.7 179.577
L303.617 194.498
L304.534 173.446
L305.451 142.419
L306.369 181.289
M308.203 150.007
L309.12 145.973
L310.038 124.826
L310.955 168.003
L311.872 152.014
L312.79 157.475
L313.707 153.534
L314.624 177.094
L315.541 151.025
L316.459 164.05
L318.293 206.127
L319.21 193.695
L320.128 190.351
L321.045 171.152
M322.879 197.539
L323.797 159.638
L325.631 202.558
L326.548 177.316
L327.466 198.43
L328.383 191.407
L329.3 193.704
L330.217 155.845
L331.135 113.333
L332.052 173.366
L332.969 197.575
L333.887 170.828
L334.804 155.088
L335.721 174.986
L336.638 190.398
L337.556 202.159
L338.473 200.744
L339.39 209.159
L340.307 159.449
L341.225 191.205
L342.142 217.233
L343.976 181.622
L344.894 200.009
L345.811 140.942
L346.728 216.256
L347.645 177.77
L348.563 226.727
L349.48 193.91
L350.397 225.437
L351.314 214.933
L352.232 207.385
L353.149 192.242
L354.066 198.067
L354.984 179.427
L355.901 112.288
L356.818 93.3902
L357.735 157.801
L358.653 204.553
L359.57 216.131
L360.487 168.902
L361.404 202.239
L362.322 210.646
L363.239 210.269
L364.156 183.121
L365.073 217.128
L365.073 217.128" style="fill:none;stroke:#bfbf00;stroke-linecap:square;"/>
   </g>
   <g id="line2d_7">
    <path clip-path="url(#pc1a11fcac8)" d="
M31.1906 201.46
L32.1079 203.445
L33.9424 142.125
L34.8597 184.325
L35.7769 174.402
L36.6942 207.979
L37.6114 233.798
M40.3632 236.488
L41.2805 235.729
L42.1977 228.811
L43.115 207.238
L44.0323 231.273
L44.9495 203.286
L45.8668 159.062
L46.784 132.642
L47.7013 139.703
L48.6186 130.82
L49.5358 131.381
L50.4531 135.121
L51.3704 127.452
L52.2876 194.375
L53.2049 233.21
L54.1221 231.718
L55.0394 237.003
L55.9567 231.116
L56.8739 232.989
L57.7912 235.443
L58.7084 241.163
L59.6257 231.921
L60.543 218.526
L61.4602 202.939
L62.3775 183.733
L63.2947 184.652
L64.212 204.586
L65.1293 193.258
L66.0465 212.502
L66.9638 200.151
L67.881 178.414
L68.7983 162.203
L69.7156 208.351
L70.6328 214.063
L71.5501 205.977
L72.4673 193.782
L73.3846 199.945
L74.3019 209.263
L75.2191 156.588
L76.1364 186.839
L77.0536 197.425
L77.9709 182.057
L78.8882 223.884
L79.8054 218.975
L80.7227 208.413
L81.6399 200.966
L82.5572 194.99
L83.4745 169.225
L84.3917 198.271
L85.309 209.225
L86.2262 201.364
L87.1435 185.781
L88.0608 138.29
L88.978 148.064
L89.8953 189.004
L90.8125 178.269
L91.7298 157.558
L92.6471 145.591
L93.5643 121.803
L94.4816 197.831
L95.3988 188.929
L96.3161 154.952
L97.2334 147.109
L98.1506 156.784
L99.0679 171.083
L99.9851 163.038
L100.902 159.254
L101.82 92.9037
L102.737 175.518
L103.654 164.898
L104.571 185.644
L105.489 148.002
L106.406 115.993
L107.323 115.227
L108.24 190.413
L109.158 170.862
L110.075 140.45
L110.992 144.471
L111.91 127.913
L112.827 132.504
L113.744 159.533
L114.661 137.923
L115.579 126.822
L116.496 175.977
L117.413 178.173
L118.33 201.5
L119.248 197.372
L120.165 149.975
L121.082 113.841
L121.999 167.642
L122.917 127.868
L123.834 97.2118
L124.751 168.354
L125.668 136.648
L126.586 141.609
L127.503 114.39
L128.42 78.3597
L129.337 82.1559
L130.255 200.031
L131.172 166.686
L132.089 138.843
L133.007 119.672
L133.924 95.815
L134.841 77.487
L135.758 89.4937
L136.676 107.653
L137.593 117.923
L138.51 102.515
L139.427 140.458
L140.345 119.592
L141.262 86.9277
L142.179 76.397
L143.096 101.504
L144.014 148.77
L144.931 116.305
L145.848 153.963
L146.765 156.561
L147.683 150.696
L148.6 136.237
L149.517 131.05
L150.434 133.219
L151.352 134.775
L152.269 134.736
L153.186 125.066
L154.104 127.33
L155.938 196.821
L156.855 146.889
L157.773 166.916
L158.69 117.857
L159.607 134.118
L160.524 121.524
L161.442 75.1941
L162.359 97.0954
L163.276 106.355
L164.193 172.91
L165.111 167.151
L166.028 206.354
L166.945 194.075
L167.862 141.804
L168.78 117.94
L169.697 112.666
L170.614 108.927
L171.531 108.81
L172.449 121.143
L173.366 121.068
L174.283 133.525
L175.2 131.603
L176.118 132.056
L177.035 129.107
L177.952 136.2
L178.87 139.948
L179.787 118.876
L180.704 157.826
L181.621 143.635
L182.539 105.06
L183.456 133.069
L184.373 129.93
L185.29 131.336
L186.208 195.814
L187.125 146.377
L188.042 149.009
L188.959 139.175
L189.877 135.558
L190.794 195.78
L191.711 217.962
L192.628 169.61
L193.546 138.801
L194.463 141.819
L195.38 151.247
L196.297 146.602
L197.215 155.244
L198.132 152.414
L199.049 171.137
L199.967 142.149
L200.884 131.229
L201.801 137.969
L202.718 140.395
L203.636 136.396
L204.553 131.429
L206.387 153.479
L208.222 120.258
L209.139 126.267
L210.056 137.464
L210.974 171.084
L211.891 148.239
L212.808 132.122
L213.725 138.349
L214.643 138.244
L215.56 132.648
L216.477 127.831
L217.394 133.633
L218.312 142.509
L219.229 142.081
L220.146 149.286
L221.064 143.09
L221.981 135.49
L222.898 131.339
L223.815 130.456
L224.733 143.629
L225.65 144.089
L226.567 131.046
L227.484 124.181
L228.402 133.181
L229.319 136.293
L230.236 136.198
L231.153 143.721
L232.071 143.206
L232.988 150.112
L233.905 146.512
L234.822 148.384
L235.74 152.641
L236.657 151.441
L237.574 143.337
L238.491 147.597
L239.409 146.435
L240.326 146.446
L241.243 146.936
L242.16 146.739
L243.078 144.229
L243.995 142.794
L244.912 176.599
L245.83 158.544
L246.747 159.242
L247.664 153.602
L248.581 146.096
L249.499 150.924
L250.416 168.344
L251.333 158.019
L252.25 145.217
L253.168 145.212
L254.085 150.708
L255.919 202.924
L256.837 189.809
L257.754 195.319
L259.588 145.506
L260.506 146.355
L261.423 153.888
L262.34 154.815
L263.257 163.298
L264.175 198.451
L265.092 179.494
L266.009 188.235
L266.927 169.462
L267.844 161.263
L268.761 182.448
L269.678 192.381
L270.596 137.522
L271.513 135.555
L272.43 170.685
L273.347 194.826
L274.265 165.641
L275.182 204.066
L276.099 227.027
L277.016 211.755
L277.934 174.857
L278.851 166.837
L279.768 204.649
L280.685 173.95
L281.603 188.652
L282.52 171.957
L283.437 201.203
L284.354 139.809
L285.272 118.951
L286.189 124.796
L287.106 145.717
L288.024 192.428
L288.941 162.753
L289.858 170.226
L291.693 152.388
L292.61 165.446
L294.444 148.698
L295.362 140.593
L296.279 151.009
L297.196 134.36
L298.113 137.789
L299.031 154.331
L299.948 155.227
L300.865 142.948
L301.782 149.277
L302.7 150.447
L303.617 149.051
L304.534 153.451
L305.451 155.012
L306.369 210.415
L307.286 219.871
L308.203 209.069
L309.12 211.635
L310.038 210.073
L310.955 216.641
L311.872 213.068
L312.79 183.592
L313.707 195.425
L314.624 219.876
L315.541 208.16
L316.459 171.629
L317.376 159.656
L318.293 163.995
L319.21 154.573
L320.128 156.432
L321.045 184.322
L321.962 195.82
L322.879 204.996
L323.797 213.053
L324.714 203.242
L325.631 171.894
L326.548 211.332
L327.466 216.323
L328.383 148.368
L329.3 139.072
L330.217 135.388
L331.135 142.037
L332.052 137.195
L332.969 153.889
L333.887 152.523
L335.721 168.15
L336.638 208.821
L337.556 217.59
L338.473 204.527
L339.39 171.928
L340.307 206.873
L341.225 192.221
L342.142 185.602
L343.059 204.253
L343.976 193.388
L344.894 150.718
L345.811 169.776
L346.728 201.216
L347.645 178.006
L348.563 191.284
L349.48 199.275
L350.397 154.22
L351.314 157.827
L352.232 135.945
L353.149 186.357
L354.066 202.706
L354.984 175.604
L355.901 218.372
L356.818 229.413
L357.735 215.536
L358.653 197.513
L360.487 128.777
L361.404 133.098
L362.322 182.116
L363.239 164.342
L364.156 183.349
L365.073 195.703
L365.073 195.703" style="fill:none;stroke:#000000;stroke-linecap:square;"/>
   </g>
   <g id="patch_3">
    <path d="
M31.1906 244.518
L31.1906 21.3181" style="fill:none;stroke:#000000;stroke-linecap:square;stroke-linejoin:miter;"/>
   </g>
   <g id="patch_4">
    <path d="
M365.991 244.518
L365.991 21.3181" style="fill:none;stroke:#000000;stroke-linecap:square;stroke-linejoin:miter;"/>
   </g>
   <g id="patch_5">
    <path d="
M31.1906 21.3181
L365.991 21.3181" style="fill:none;stroke:#000000;stroke-linecap:square;stroke-linejoin:miter;"/>
   </g>
   <g id="patch_6">
    <path d="
M31.1906 244.518
L365.991 244.518" style="fill:none;stroke:#000000;stroke-linecap:square;stroke-linejoin:miter;"/>
   </g>
   <g id="matplotlib.axis_1">
    <g id="xtick_1">
     <g id="line2d_8">
      <defs>
       <path d="
M0 0
L0 -4" id="mc7db9fdffb" style="stroke:#000000;stroke-width:0.5;"/>
      </defs>
      <g>
       <use style="stroke:#000000;stroke-width:0.5;" x="31.190625" xlink:href="#mc7db9fdffb" y="244.518125"/>
      </g>
     </g>
     <g id="line2d_9">
      <defs>
       <path d="
M0 0
L0 4" id="m5a7d422ac3" style="stroke:#000000;stroke-width:0.5;"/>
      </defs>
      <g>
       <use style="stroke:#000000;stroke-width:0.5;" x="31.190625" xlink:href="#m5a7d422ac3" y="21.318125"/>
      </g>
     </g>
     <g id="text_1">
      <!-- 0 -->
      <defs>
       <path d="
M31.7812 66.4062
Q24.1719 66.4062 20.3281 58.9062
Q16.5 51.4219 16.5 36.375
Q16.5 21.3906 20.3281 13.8906
Q24.1719 6.39062 31.7812 6.39062
Q39.4531 6.39062 43.2812 13.8906
Q47.125 21.3906 47.125 36.375
Q47.125 51.4219 43.2812 58.9062
Q39.4531 66.4062 31.7812 66.4062
M31.7812 74.2188
Q44.0469 74.2188 50.5156 64.5156
Q56.9844 54.8281 56.9844 36.375
Q56.9844 17.9688 50.5156 8.26562
Q44.0469 -1.42188 31.7812 -1.42188
Q19.5312 -1.42188 13.0625 8.26562
Q6.59375 17.9688 6.59375 36.375
Q6.59375 54.8281 13.0625 64.5156
Q19.5312 74.2188 31.7812 74.2188" id="BitstreamVeraSans-Roman-30"/>
      </defs>
      <g transform="translate(28.67109375 256.1165625)scale(0.1 -0.1)">
       <use xlink:href="#BitstreamVeraSans-Roman-30"/>
      </g>
     </g>
    </g>
    <g id="xtick_2">
     <g id="line2d_10">
      <g>
       <use style="stroke:#000000;stroke-width:0.5;" x="77.0536386986" xlink:href="#mc7db9fdffb" y="244.518125"/>
      </g>
     </g>
     <g id="line2d_11">
      <g>
       <use style="stroke:#000000;stroke-width:0.5;" x="77.0536386986" xlink:href="#m5a7d422ac3" y="21.318125"/>
      </g>
     </g>
     <g id="text_2">
      <!-- 50 -->
      <defs>
       <path d="
M10.7969 72.9062
L49.5156 72.9062
L49.5156 64.5938
L19.8281 64.5938
L19.8281 46.7344
Q21.9688 47.4688 24.1094 47.8281
Q26.2656 48.1875 28.4219 48.1875
Q40.625 48.1875 47.75 41.5
Q54.8906 34.8125 54.8906 23.3906
Q54.8906 11.625 47.5625 5.09375
Q40.2344 -1.42188 26.9062 -1.42188
Q22.3125 -1.42188 17.5469 -0.640625
Q12.7969 0.140625 7.71875 1.70312
L7.71875 11.625
Q12.1094 9.23438 16.7969 8.0625
Q21.4844 6.89062 26.7031 6.89062
Q35.1562 6.89062 40.0781 11.3281
Q45.0156 15.7656 45.0156 23.3906
Q45.0156 31 40.0781 35.4375
Q35.1562 39.8906 26.7031 39.8906
Q22.75 39.8906 18.8125 39.0156
Q14.8906 38.1406 10.7969 36.2812
z
" id="BitstreamVeraSans-Roman-35"/>
      </defs>
      <g transform="translate(71.4091074486 256.1165625)scale(0.1 -0.1)">
       <use xlink:href="#BitstreamVeraSans-Roman-35"/>
       <use x="63.623046875" xlink:href="#BitstreamVeraSans-Roman-30"/>
      </g>
     </g>
    </g>
    <g id="xtick_3">
     <g id="line2d_12">
      <g>
       <use style="stroke:#000000;stroke-width:0.5;" x="122.916652397" xlink:href="#mc7db9fdffb" y="244.518125"/>
      </g>
     </g>
     <g id="line2d_13">
      <g>
       <use style="stroke:#000000;stroke-width:0.5;" x="122.916652397" xlink:href="#m5a7d422ac3" y="21.318125"/>
      </g>
     </g>
     <g id="text_3">
      <!-- 100 -->
      <defs>
       <path d="
M12.4062 8.29688
L28.5156 8.29688
L28.5156 63.9219
L10.9844 60.4062
L10.9844 69.3906
L28.4219 72.9062
L38.2812 72.9062
L38.2812 8.29688
L54.3906 8.29688
L54.3906 0
L12.4062 0
z
" id="BitstreamVeraSans-Roman-31"/>
      </defs>
      <g transform="translate(114.254152397 256.1165625)scale(0.1 -0.1)">
       <use xlink:href="#BitstreamVeraSans-Roman-31"/>
       <use x="63.623046875" xlink:href="#BitstreamVeraSans-Roman-30"/>
       <use x="127.24609375" xlink:href="#BitstreamVeraSans-Roman-30"/>
      </g>
     </g>
    </g>
    <g id="xtick_4">
     <g id="line2d_14">
      <g>
       <use style="stroke:#000000;stroke-width:0.5;" x="168.779666096" xlink:href="#mc7db9fdffb" y="244.518125"/>
      </g>
     </g>
     <g id="line2d_15">
      <g>
       <use style="stroke:#000000;stroke-width:0.5;" x="168.779666096" xlink:href="#m5a7d422ac3" y="21.318125"/>
      </g>
     </g>
     <g id="text_4">
      <!-- 150 -->
      <g transform="translate(160.117166096 256.1165625)scale(0.1 -0.1)">
       <use xlink:href="#BitstreamVeraSans-Roman-31"/>
       <use x="63.623046875" xlink:href="#BitstreamVeraSans-Roman-35"/>
       <use x="127.24609375" xlink:href="#BitstreamVeraSans-Roman-30"/>
      </g>
     </g>
    </g>
    <g id="xtick_5">
     <g id="line2d_16">
      <g>
       <use style="stroke:#000000;stroke-width:0.5;" x="214.642679795" xlink:href="#mc7db9fdffb" y="244.518125"/>
      </g>
     </g>
     <g id="line2d_17">
      <g>
       <use style="stroke:#000000;stroke-width:0.5;" x="214.642679795" xlink:href="#m5a7d422ac3" y="21.318125"/>
      </g>
     </g>
     <g id="text_5">
      <!-- 200 -->
      <defs>
       <path d="
M19.1875 8.29688
L53.6094 8.29688
L53.6094 0
L7.32812 0
L7.32812 8.29688
Q12.9375 14.1094 22.625 23.8906
Q32.3281 33.6875 34.8125 36.5312
Q39.5469 41.8438 41.4219 45.5312
Q43.3125 49.2188 43.3125 52.7812
Q43.3125 58.5938 39.2344 62.25
Q35.1562 65.9219 28.6094 65.9219
Q23.9688 65.9219 18.8125 64.3125
Q13.6719 62.7031 7.8125 59.4219
L7.8125 69.3906
Q13.7656 71.7812 18.9375 73
Q24.125 74.2188 28.4219 74.2188
Q39.75 74.2188 46.4844 68.5469
Q53.2188 62.8906 53.2188 53.4219
Q53.2188 48.9219 51.5312 44.8906
Q49.8594 40.875 45.4062 35.4062
Q44.1875 33.9844 37.6406 27.2188
Q31.1094 20.4531 19.1875 8.29688" id="BitstreamVeraSans-Roman-32"/>
      </defs>
      <g transform="translate(205.797367295 256.1165625)scale(0.1 -0.1)">
       <use xlink:href="#BitstreamVeraSans-Roman-32"/>
       <use x="63.623046875" xlink:href="#BitstreamVeraSans-Roman-30"/>
       <use x="127.24609375" xlink:href="#BitstreamVeraSans-Roman-30"/>
      </g>
     </g>
    </g>
    <g id="xtick_6">
     <g id="line2d_18">
      <g>
       <use style="stroke:#000000;stroke-width:0.5;" x="260.505693493" xlink:href="#mc7db9fdffb" y="244.518125"/>
      </g>
     </g>
     <g id="line2d_19">
      <g>
       <use style="stroke:#000000;stroke-width:0.5;" x="260.505693493" xlink:href="#m5a7d422ac3" y="21.318125"/>
      </g>
     </g>
     <g id="text_6">
      <!-- 250 -->
      <g transform="translate(251.660380993 256.1165625)scale(0.1 -0.1)">
       <use xlink:href="#BitstreamVeraSans-Roman-32"/>
       <use x="63.623046875" xlink:href="#BitstreamVeraSans-Roman-35"/>
       <use x="127.24609375" xlink:href="#BitstreamVeraSans-Roman-30"/>
      </g>
     </g>
    </g>
    <g id="xtick_7">
     <g id="line2d_20">
      <g>
       <use style="stroke:#000000;stroke-width:0.5;" x="306.368707192" xlink:href="#mc7db9fdffb" y="244.518125"/>
      </g>
     </g>
     <g id="line2d_21">
      <g>
       <use style="stroke:#000000;stroke-width:0.5;" x="306.368707192" xlink:href="#m5a7d422ac3" y="21.318125"/>
      </g>
     </g>
     <g id="text_7">
      <!-- 300 -->
      <defs>
       <path d="
M40.5781 39.3125
Q47.6562 37.7969 51.625 33
Q55.6094 28.2188 55.6094 21.1875
Q55.6094 10.4062 48.1875 4.48438
Q40.7656 -1.42188 27.0938 -1.42188
Q22.5156 -1.42188 17.6562 -0.515625
Q12.7969 0.390625 7.625 2.20312
L7.625 11.7188
Q11.7188 9.32812 16.5938 8.10938
Q21.4844 6.89062 26.8125 6.89062
Q36.0781 6.89062 40.9375 10.5469
Q45.7969 14.2031 45.7969 21.1875
Q45.7969 27.6406 41.2812 31.2656
Q36.7656 34.9062 28.7188 34.9062
L20.2188 34.9062
L20.2188 43.0156
L29.1094 43.0156
Q36.375 43.0156 40.2344 45.9219
Q44.0938 48.8281 44.0938 54.2969
Q44.0938 59.9062 40.1094 62.9062
Q36.1406 65.9219 28.7188 65.9219
Q24.6562 65.9219 20.0156 65.0312
Q15.375 64.1562 9.8125 62.3125
L9.8125 71.0938
Q15.4375 72.6562 20.3438 73.4375
Q25.25 74.2188 29.5938 74.2188
Q40.8281 74.2188 47.3594 69.1094
Q53.9062 64.0156 53.9062 55.3281
Q53.9062 49.2656 50.4375 45.0938
Q46.9688 40.9219 40.5781 39.3125" id="BitstreamVeraSans-Roman-33"/>
      </defs>
      <g transform="translate(297.538238442 256.1165625)scale(0.1 -0.1)">
       <use xlink:href="#BitstreamVeraSans-Roman-33"/>
       <use x="63.623046875" xlink:href="#BitstreamVeraSans-Roman-30"/>
       <use x="127.24609375" xlink:href="#BitstreamVeraSans-Roman-30"/>
      </g>
     </g>
    </g>
    <g id="xtick_8">
     <g id="line2d_22">
      <g>
       <use style="stroke:#000000;stroke-width:0.5;" x="352.23172089" xlink:href="#mc7db9fdffb" y="244.518125"/>
      </g>
     </g>
     <g id="line2d_23">
      <g>
       <use style="stroke:#000000;stroke-width:0.5;" x="352.23172089" xlink:href="#m5a7d422ac3" y="21.318125"/>
      </g>
     </g>
     <g id="text_8">
      <!-- 350 -->
      <g transform="translate(343.40125214 256.1165625)scale(0.1 -0.1)">
       <use xlink:href="#BitstreamVeraSans-Roman-33"/>
       <use x="63.623046875" xlink:href="#BitstreamVeraSans-Roman-35"/>
       <use x="127.24609375" xlink:href="#BitstreamVeraSans-Roman-30"/>
      </g>
     </g>
    </g>
    <g id="text_9">
     <!-- Julian day -->
     <defs>
      <path d="
M9.42188 75.9844
L18.4062 75.9844
L18.4062 0
L9.42188 0
z
" id="BitstreamVeraSans-Roman-6c"/>
      <path d="
M54.8906 33.0156
L54.8906 0
L45.9062 0
L45.9062 32.7188
Q45.9062 40.4844 42.875 44.3281
Q39.8438 48.1875 33.7969 48.1875
Q26.5156 48.1875 22.3125 43.5469
Q18.1094 38.9219 18.1094 30.9062
L18.1094 0
L9.07812 0
L9.07812 54.6875
L18.1094 54.6875
L18.1094 46.1875
Q21.3438 51.125 25.7031 53.5625
Q30.0781 56 35.7969 56
Q45.2188 56 50.0469 50.1719
Q54.8906 44.3438 54.8906 33.0156" id="BitstreamVeraSans-Roman-6e"/>
      <path d="
M32.1719 -5.07812
Q28.375 -14.8438 24.75 -17.8125
Q21.1406 -20.7969 15.0938 -20.7969
L7.90625 -20.7969
L7.90625 -13.2812
L13.1875 -13.2812
Q16.8906 -13.2812 18.9375 -11.5156
Q21 -9.76562 23.4844 -3.21875
L25.0938 0.875
L2.98438 54.6875
L12.5 54.6875
L29.5938 11.9219
L46.6875 54.6875
L56.2031 54.6875
z
" id="BitstreamVeraSans-Roman-79"/>
      <path d="
M34.2812 27.4844
Q23.3906 27.4844 19.1875 25
Q14.9844 22.5156 14.9844 16.5
Q14.9844 11.7188 18.1406 8.90625
Q21.2969 6.10938 26.7031 6.10938
Q34.1875 6.10938 38.7031 11.4062
Q43.2188 16.7031 43.2188 25.4844
L43.2188 27.4844
z

M52.2031 31.2031
L52.2031 0
L43.2188 0
L43.2188 8.29688
Q40.1406 3.32812 35.5469 0.953125
Q30.9531 -1.42188 24.3125 -1.42188
Q15.9219 -1.42188 10.9531 3.29688
Q6 8.01562 6 15.9219
Q6 25.1406 12.1719 29.8281
Q18.3594 34.5156 30.6094 34.5156
L43.2188 34.5156
L43.2188 35.4062
Q43.2188 41.6094 39.1406 45
Q35.0625 48.3906 27.6875 48.3906
Q23 48.3906 18.5469 47.2656
Q14.1094 46.1406 10.0156 43.8906
L10.0156 52.2031
Q14.9375 54.1094 19.5781 55.0469
Q24.2188 56 28.6094 56
Q40.4844 56 46.3438 49.8438
Q52.2031 43.7031 52.2031 31.2031" id="BitstreamVeraSans-Roman-61"/>
      <path id="BitstreamVeraSans-Roman-20"/>
      <path d="
M8.5 21.5781
L8.5 54.6875
L17.4844 54.6875
L17.4844 21.9219
Q17.4844 14.1562 20.5 10.2656
Q23.5312 6.39062 29.5938 6.39062
Q36.8594 6.39062 41.0781 11.0312
Q45.3125 15.6719 45.3125 23.6875
L45.3125 54.6875
L54.2969 54.6875
L54.2969 0
L45.3125 0
L45.3125 8.40625
Q42.0469 3.42188 37.7188 1
Q33.4062 -1.42188 27.6875 -1.42188
Q18.2656 -1.42188 13.375 4.4375
Q8.5 10.2969 8.5 21.5781" id="BitstreamVeraSans-Roman-75"/>
      <path d="
M45.4062 46.3906
L45.4062 75.9844
L54.3906 75.9844
L54.3906 0
L45.4062 0
L45.4062 8.20312
Q42.5781 3.32812 38.25 0.953125
Q33.9375 -1.42188 27.875 -1.42188
Q17.9688 -1.42188 11.7344 6.48438
Q5.51562 14.4062 5.51562 27.2969
Q5.51562 40.1875 11.7344 48.0938
Q17.9688 56 27.875 56
Q33.9375 56 38.25 53.625
Q42.5781 51.2656 45.4062 46.3906
M14.7969 27.2969
Q14.7969 17.3906 18.875 11.75
Q22.9531 6.10938 30.0781 6.10938
Q37.2031 6.10938 41.2969 11.75
Q45.4062 17.3906 45.4062 27.2969
Q45.4062 37.2031 41.2969 42.8438
Q37.2031 48.4844 30.0781 48.4844
Q22.9531 48.4844 18.875 42.8438
Q14.7969 37.2031 14.7969 27.2969" id="BitstreamVeraSans-Roman-64"/>
      <path d="
M9.8125 72.9062
L19.6719 72.9062
L19.6719 5.07812
Q19.6719 -8.10938 14.6719 -14.0625
Q9.67188 -20.0156 -1.42188 -20.0156
L-5.17188 -20.0156
L-5.17188 -11.7188
L-2.09375 -11.7188
Q4.4375 -11.7188 7.125 -8.04688
Q9.8125 -4.39062 9.8125 5.07812
z
" id="BitstreamVeraSans-Roman-4a"/>
      <path d="
M9.42188 54.6875
L18.4062 54.6875
L18.4062 0
L9.42188 0
z

M9.42188 75.9844
L18.4062 75.9844
L18.4062 64.5938
L9.42188 64.5938
z
" id="BitstreamVeraSans-Roman-69"/>
     </defs>
     <g transform="translate(174.03984375 270.7946875)scale(0.1 -0.1)">
      <use xlink:href="#BitstreamVeraSans-Roman-4a"/>
      <use x="29.4921875" xlink:href="#BitstreamVeraSans-Roman-75"/>
      <use x="92.87109375" xlink:href="#BitstreamVeraSans-Roman-6c"/>
      <use x="120.654296875" xlink:href="#BitstreamVeraSans-Roman-69"/>
      <use x="148.4375" xlink:href="#BitstreamVeraSans-Roman-61"/>
      <use x="209.716796875" xlink:href="#BitstreamVeraSans-Roman-6e"/>
      <use x="273.095703125" xlink:href="#BitstreamVeraSans-Roman-20"/>
      <use x="304.8828125" xlink:href="#BitstreamVeraSans-Roman-64"/>
      <use x="368.359375" xlink:href="#BitstreamVeraSans-Roman-61"/>
      <use x="429.638671875" xlink:href="#BitstreamVeraSans-Roman-79"/>
     </g>
    </g>
   </g>
   <g id="matplotlib.axis_2">
    <g id="ytick_1">
     <g id="line2d_24">
      <defs>
       <path d="
M0 0
L4 0" id="md7965d1ba0" style="stroke:#000000;stroke-width:0.5;"/>
      </defs>
      <g>
       <use style="stroke:#000000;stroke-width:0.5;" x="31.190625" xlink:href="#md7965d1ba0" y="244.518125"/>
      </g>
     </g>
     <g id="line2d_25">
      <defs>
       <path d="
M0 0
L-4 0" id="md9a1c1a7cd" style="stroke:#000000;stroke-width:0.5;"/>
      </defs>
      <g>
       <use style="stroke:#000000;stroke-width:0.5;" x="365.990625" xlink:href="#md9a1c1a7cd" y="244.518125"/>
      </g>
     </g>
     <g id="text_10">
      <!-- 0 -->
      <g transform="translate(22.1515625 247.2775)scale(0.1 -0.1)">
       <use xlink:href="#BitstreamVeraSans-Roman-30"/>
      </g>
     </g>
    </g>
    <g id="ytick_2">
     <g id="line2d_26">
      <g>
       <use style="stroke:#000000;stroke-width:0.5;" x="31.190625" xlink:href="#md7965d1ba0" y="207.318125"/>
      </g>
     </g>
     <g id="line2d_27">
      <g>
       <use style="stroke:#000000;stroke-width:0.5;" x="365.990625" xlink:href="#md9a1c1a7cd" y="207.318125"/>
      </g>
     </g>
     <g id="text_11">
      <!-- 1 -->
      <g transform="translate(22.85 210.0775)scale(0.1 -0.1)">
       <use xlink:href="#BitstreamVeraSans-Roman-31"/>
      </g>
     </g>
    </g>
    <g id="ytick_3">
     <g id="line2d_28">
      <g>
       <use style="stroke:#000000;stroke-width:0.5;" x="31.190625" xlink:href="#md7965d1ba0" y="170.118125"/>
      </g>
     </g>
     <g id="line2d_29">
      <g>
       <use style="stroke:#000000;stroke-width:0.5;" x="365.990625" xlink:href="#md9a1c1a7cd" y="170.118125"/>
      </g>
     </g>
     <g id="text_12">
      <!-- 2 -->
      <g transform="translate(22.5625 172.8775)scale(0.1 -0.1)">
       <use xlink:href="#BitstreamVeraSans-Roman-32"/>
      </g>
     </g>
    </g>
    <g id="ytick_4">
     <g id="line2d_30">
      <g>
       <use style="stroke:#000000;stroke-width:0.5;" x="31.190625" xlink:href="#md7965d1ba0" y="132.918125"/>
      </g>
     </g>
     <g id="line2d_31">
      <g>
       <use style="stroke:#000000;stroke-width:0.5;" x="365.990625" xlink:href="#md9a1c1a7cd" y="132.918125"/>
      </g>
     </g>
     <g id="text_13">
      <!-- 3 -->
      <g transform="translate(22.3921875 135.6775)scale(0.1 -0.1)">
       <use xlink:href="#BitstreamVeraSans-Roman-33"/>
      </g>
     </g>
    </g>
    <g id="ytick_5">
     <g id="line2d_32">
      <g>
       <use style="stroke:#000000;stroke-width:0.5;" x="31.190625" xlink:href="#md7965d1ba0" y="95.718125"/>
      </g>
     </g>
     <g id="line2d_33">
      <g>
       <use style="stroke:#000000;stroke-width:0.5;" x="365.990625" xlink:href="#md9a1c1a7cd" y="95.718125"/>
      </g>
     </g>
     <g id="text_14">
      <!-- 4 -->
      <defs>
       <path d="
M37.7969 64.3125
L12.8906 25.3906
L37.7969 25.3906
z

M35.2031 72.9062
L47.6094 72.9062
L47.6094 25.3906
L58.0156 25.3906
L58.0156 17.1875
L47.6094 17.1875
L47.6094 0
L37.7969 0
L37.7969 17.1875
L4.89062 17.1875
L4.89062 26.7031
z
" id="BitstreamVeraSans-Roman-34"/>
      </defs>
      <g transform="translate(21.878125 98.4775)scale(0.1 -0.1)">
       <use xlink:href="#BitstreamVeraSans-Roman-34"/>
      </g>
     </g>
    </g>
    <g id="ytick_6">
     <g id="line2d_34">
      <g>
       <use style="stroke:#000000;stroke-width:0.5;" x="31.190625" xlink:href="#md7965d1ba0" y="58.518125"/>
      </g>
     </g>
     <g id="line2d_35">
      <g>
       <use style="stroke:#000000;stroke-width:0.5;" x="365.990625" xlink:href="#md9a1c1a7cd" y="58.518125"/>
      </g>
     </g>
     <g id="text_15">
      <!-- 5 -->
      <g transform="translate(22.4734375 61.2775)scale(0.1 -0.1)">
       <use xlink:href="#BitstreamVeraSans-Roman-35"/>
      </g>
     </g>
    </g>
    <g id="ytick_7">
     <g id="line2d_36">
      <g>
       <use style="stroke:#000000;stroke-width:0.5;" x="31.190625" xlink:href="#md7965d1ba0" y="21.318125"/>
      </g>
     </g>
     <g id="line2d_37">
      <g>
       <use style="stroke:#000000;stroke-width:0.5;" x="365.990625" xlink:href="#md9a1c1a7cd" y="21.318125"/>
      </g>
     </g>
     <g id="text_16">
      <!-- 6 -->
      <defs>
       <path d="
M33.0156 40.375
Q26.375 40.375 22.4844 35.8281
Q18.6094 31.2969 18.6094 23.3906
Q18.6094 15.5312 22.4844 10.9531
Q26.375 6.39062 33.0156 6.39062
Q39.6562 6.39062 43.5312 10.9531
Q47.4062 15.5312 47.4062 23.3906
Q47.4062 31.2969 43.5312 35.8281
Q39.6562 40.375 33.0156 40.375
M52.5938 71.2969
L52.5938 62.3125
Q48.875 64.0625 45.0938 64.9844
Q41.3125 65.9219 37.5938 65.9219
Q27.8281 65.9219 22.6719 59.3281
Q17.5312 52.7344 16.7969 39.4062
Q19.6719 43.6562 24.0156 45.9219
Q28.375 48.1875 33.5938 48.1875
Q44.5781 48.1875 50.9531 41.5156
Q57.3281 34.8594 57.3281 23.3906
Q57.3281 12.1562 50.6875 5.35938
Q44.0469 -1.42188 33.0156 -1.42188
Q20.3594 -1.42188 13.6719 8.26562
Q6.98438 17.9688 6.98438 36.375
Q6.98438 53.6562 15.1875 63.9375
Q23.3906 74.2188 37.2031 74.2188
Q40.9219 74.2188 44.7031 73.4844
Q48.4844 72.75 52.5938 71.2969" id="BitstreamVeraSans-Roman-36"/>
      </defs>
      <g transform="translate(22.15625 24.0775)scale(0.1 -0.1)">
       <use xlink:href="#BitstreamVeraSans-Roman-36"/>
      </g>
     </g>
    </g>
    <g id="text_17">
     <!-- PET (mm/day) -->
     <defs>
      <path d="
M19.6719 64.7969
L19.6719 37.4062
L32.0781 37.4062
Q38.9688 37.4062 42.7188 40.9688
Q46.4844 44.5312 46.4844 51.125
Q46.4844 57.6719 42.7188 61.2344
Q38.9688 64.7969 32.0781 64.7969
z

M9.8125 72.9062
L32.0781 72.9062
Q44.3438 72.9062 50.6094 67.3594
Q56.8906 61.8125 56.8906 51.125
Q56.8906 40.3281 50.6094 34.8125
Q44.3438 29.2969 32.0781 29.2969
L19.6719 29.2969
L19.6719 0
L9.8125 0
z
" id="BitstreamVeraSans-Roman-50"/>
      <path d="
M9.8125 72.9062
L55.9062 72.9062
L55.9062 64.5938
L19.6719 64.5938
L19.6719 43.0156
L54.3906 43.0156
L54.3906 34.7188
L19.6719 34.7188
L19.6719 8.29688
L56.7812 8.29688
L56.7812 0
L9.8125 0
z
" id="BitstreamVeraSans-Roman-45"/>
      <path d="
M-0.296875 72.9062
L61.375 72.9062
L61.375 64.5938
L35.5 64.5938
L35.5 0
L25.5938 0
L25.5938 64.5938
L-0.296875 64.5938
z
" id="BitstreamVeraSans-Roman-54"/>
      <path d="
M25.3906 72.9062
L33.6875 72.9062
L8.29688 -9.28125
L0 -9.28125
z
" id="BitstreamVeraSans-Roman-2f"/>
      <path d="
M8.01562 75.875
L15.8281 75.875
Q23.1406 64.3594 26.7812 53.3125
Q30.4219 42.2812 30.4219 31.3906
Q30.4219 20.4531 26.7812 9.375
Q23.1406 -1.70312 15.8281 -13.1875
L8.01562 -13.1875
Q14.5 -2 17.7031 9.0625
Q20.9062 20.125 20.9062 31.3906
Q20.9062 42.6719 17.7031 53.6562
Q14.5 64.6562 8.01562 75.875" id="BitstreamVeraSans-Roman-29"/>
      <path d="
M31 75.875
Q24.4688 64.6562 21.2812 53.6562
Q18.1094 42.6719 18.1094 31.3906
Q18.1094 20.125 21.3125 9.0625
Q24.5156 -2 31 -13.1875
L23.1875 -13.1875
Q15.875 -1.70312 12.2344 9.375
Q8.59375 20.4531 8.59375 31.3906
Q8.59375 42.2812 12.2031 53.3125
Q15.8281 64.3594 23.1875 75.875
z
" id="BitstreamVeraSans-Roman-28"/>
      <path d="
M52 44.1875
Q55.375 50.25 60.0625 53.125
Q64.75 56 71.0938 56
Q79.6406 56 84.2812 50.0156
Q88.9219 44.0469 88.9219 33.0156
L88.9219 0
L79.8906 0
L79.8906 32.7188
Q79.8906 40.5781 77.0938 44.375
Q74.3125 48.1875 68.6094 48.1875
Q61.625 48.1875 57.5625 43.5469
Q53.5156 38.9219 53.5156 30.9062
L53.5156 0
L44.4844 0
L44.4844 32.7188
Q44.4844 40.625 41.7031 44.4062
Q38.9219 48.1875 33.1094 48.1875
Q26.2188 48.1875 22.1562 43.5312
Q18.1094 38.875 18.1094 30.9062
L18.1094 0
L9.07812 0
L9.07812 54.6875
L18.1094 54.6875
L18.1094 46.1875
Q21.1875 51.2188 25.4844 53.6094
Q29.7812 56 35.6875 56
Q41.6562 56 45.8281 52.9688
Q50 49.9531 52 44.1875" id="BitstreamVeraSans-Roman-6d"/>
     </defs>
     <g transform="translate(14.7984375 167.82984375)rotate(-90.0)scale(0.1 -0.1)">
      <use xlink:href="#BitstreamVeraSans-Roman-50"/>
      <use x="60.302734375" xlink:href="#BitstreamVeraSans-Roman-45"/>
      <use x="123.486328125" xlink:href="#BitstreamVeraSans-Roman-54"/>
      <use x="184.5703125" xlink:href="#BitstreamVeraSans-Roman-20"/>
      <use x="216.357421875" xlink:href="#BitstreamVeraSans-Roman-28"/>
      <use x="255.37109375" xlink:href="#BitstreamVeraSans-Roman-6d"/>
      <use x="352.783203125" xlink:href="#BitstreamVeraSans-Roman-6d"/>
      <use x="450.1953125" xlink:href="#BitstreamVeraSans-Roman-2f"/>
      <use x="483.88671875" xlink:href="#BitstreamVeraSans-Roman-64"/>
      <use x="547.36328125" xlink:href="#BitstreamVeraSans-Roman-61"/>
      <use x="608.642578125" xlink:href="#BitstreamVeraSans-Roman-79"/>
      <use x="667.822265625" xlink:href="#BitstreamVeraSans-Roman-29"/>
     </g>
    </g>
   </g>
   <g id="text_18">
    <!-- daily grass PET at LDP -->
    <defs>
     <path d="
M44.2812 53.0781
L44.2812 44.5781
Q40.4844 46.5312 36.375 47.5
Q32.2812 48.4844 27.875 48.4844
Q21.1875 48.4844 17.8438 46.4375
Q14.5 44.3906 14.5 40.2812
Q14.5 37.1562 16.8906 35.375
Q19.2812 33.5938 26.5156 31.9844
L29.5938 31.2969
Q39.1562 29.25 43.1875 25.5156
Q47.2188 21.7812 47.2188 15.0938
Q47.2188 7.46875 41.1875 3.01562
Q35.1562 -1.42188 24.6094 -1.42188
Q20.2188 -1.42188 15.4531 -0.5625
Q10.6875 0.296875 5.42188 2
L5.42188 11.2812
Q10.4062 8.6875 15.2344 7.39062
Q20.0625 6.10938 24.8125 6.10938
Q31.1562 6.10938 34.5625 8.28125
Q37.9844 10.4531 37.9844 14.4062
Q37.9844 18.0625 35.5156 20.0156
Q33.0625 21.9688 24.7031 23.7812
L21.5781 24.5156
Q13.2344 26.2656 9.51562 29.9062
Q5.8125 33.5469 5.8125 39.8906
Q5.8125 47.6094 11.2812 51.7969
Q16.75 56 26.8125 56
Q31.7812 56 36.1719 55.2656
Q40.5781 54.5469 44.2812 53.0781" id="BitstreamVeraSans-Roman-73"/>
     <path d="
M9.8125 72.9062
L19.6719 72.9062
L19.6719 8.29688
L55.1719 8.29688
L55.1719 0
L9.8125 0
z
" id="BitstreamVeraSans-Roman-4c"/>
     <path d="
M41.1094 46.2969
Q39.5938 47.1719 37.8125 47.5781
Q36.0312 48 33.8906 48
Q26.2656 48 22.1875 43.0469
Q18.1094 38.0938 18.1094 28.8125
L18.1094 0
L9.07812 0
L9.07812 54.6875
L18.1094 54.6875
L18.1094 46.1875
Q20.9531 51.1719 25.4844 53.5781
Q30.0312 56 36.5312 56
Q37.4531 56 38.5781 55.875
Q39.7031 55.7656 41.0625 55.5156
z
" id="BitstreamVeraSans-Roman-72"/>
     <path d="
M18.3125 70.2188
L18.3125 54.6875
L36.8125 54.6875
L36.8125 47.7031
L18.3125 47.7031
L18.3125 18.0156
Q18.3125 11.3281 20.1406 9.42188
Q21.9688 7.51562 27.5938 7.51562
L36.8125 7.51562
L36.8125 0
L27.5938 0
Q17.1875 0 13.2344 3.875
Q9.28125 7.76562 9.28125 18.0156
L9.28125 47.7031
L2.6875 47.7031
L2.6875 54.6875
L9.28125 54.6875
L9.28125 70.2188
z
" id="BitstreamVeraSans-Roman-74"/>
     <path d="
M45.4062 27.9844
Q45.4062 37.75 41.375 43.1094
Q37.3594 48.4844 30.0781 48.4844
Q22.8594 48.4844 18.8281 43.1094
Q14.7969 37.75 14.7969 27.9844
Q14.7969 18.2656 18.8281 12.8906
Q22.8594 7.51562 30.0781 7.51562
Q37.3594 7.51562 41.375 12.8906
Q45.4062 18.2656 45.4062 27.9844
M54.3906 6.78125
Q54.3906 -7.17188 48.1875 -13.9844
Q42 -20.7969 29.2031 -20.7969
Q24.4688 -20.7969 20.2656 -20.0938
Q16.0625 -19.3906 12.1094 -17.9219
L12.1094 -9.1875
Q16.0625 -11.3281 19.9219 -12.3438
Q23.7812 -13.375 27.7812 -13.375
Q36.625 -13.375 41.0156 -8.76562
Q45.4062 -4.15625 45.4062 5.17188
L45.4062 9.625
Q42.625 4.78125 38.2812 2.39062
Q33.9375 0 27.875 0
Q17.8281 0 11.6719 7.65625
Q5.51562 15.3281 5.51562 27.9844
Q5.51562 40.6719 11.6719 48.3281
Q17.8281 56 27.875 56
Q33.9375 56 38.2812 53.6094
Q42.625 51.2188 45.4062 46.3906
L45.4062 54.6875
L54.3906 54.6875
z
" id="BitstreamVeraSans-Roman-67"/>
     <path d="
M19.6719 64.7969
L19.6719 8.10938
L31.5938 8.10938
Q46.6875 8.10938 53.6875 14.9375
Q60.6875 21.7812 60.6875 36.5312
Q60.6875 51.1719 53.6875 57.9844
Q46.6875 64.7969 31.5938 64.7969
z

M9.8125 72.9062
L30.0781 72.9062
Q51.2656 72.9062 61.1719 64.0938
Q71.0938 55.2812 71.0938 36.5312
Q71.0938 17.6719 61.125 8.82812
Q51.1719 0 30.0781 0
L9.8125 0
z
" id="BitstreamVeraSans-Roman-44"/>
    </defs>
    <g transform="translate(131.9090625 16.318125)scale(0.12 -0.12)">
     <use xlink:href="#BitstreamVeraSans-Roman-64"/>
     <use x="63.4765625" xlink:href="#BitstreamVeraSans-Roman-61"/>
     <use x="124.755859375" xlink:href="#BitstreamVeraSans-Roman-69"/>
     <use x="152.5390625" xlink:href="#BitstreamVeraSans-Roman-6c"/>
     <use x="180.322265625" xlink:href="#BitstreamVeraSans-Roman-79"/>
     <use x="239.501953125" xlink:href="#BitstreamVeraSans-Roman-20"/>
     <use x="271.2890625" xlink:href="#BitstreamVeraSans-Roman-67"/>
     <use x="334.765625" xlink:href="#BitstreamVeraSans-Roman-72"/>
     <use x="375.87890625" xlink:href="#BitstreamVeraSans-Roman-61"/>
     <use x="437.158203125" xlink:href="#BitstreamVeraSans-Roman-73"/>
     <use x="489.2578125" xlink:href="#BitstreamVeraSans-Roman-73"/>
     <use x="541.357421875" xlink:href="#BitstreamVeraSans-Roman-20"/>
     <use x="573.14453125" xlink:href="#BitstreamVeraSans-Roman-50"/>
     <use x="633.447265625" xlink:href="#BitstreamVeraSans-Roman-45"/>
     <use x="696.630859375" xlink:href="#BitstreamVeraSans-Roman-54"/>
     <use x="757.71484375" xlink:href="#BitstreamVeraSans-Roman-20"/>
     <use x="789.501953125" xlink:href="#BitstreamVeraSans-Roman-61"/>
     <use x="850.78125" xlink:href="#BitstreamVeraSans-Roman-74"/>
     <use x="889.990234375" xlink:href="#BitstreamVeraSans-Roman-20"/>
     <use x="921.77734375" xlink:href="#BitstreamVeraSans-Roman-4c"/>
     <use x="977.490234375" xlink:href="#BitstreamVeraSans-Roman-44"/>
     <use x="1054.4921875" xlink:href="#BitstreamVeraSans-Roman-50"/>
    </g>
   </g>
   <g id="legend_1">
    <g id="patch_7">
     <path d="
M287.927 154.214
L359.991 154.214
L359.991 27.3181
L287.927 27.3181
z
" style="fill:#ffffff;stroke:#000000;stroke-linejoin:miter;"/>
    </g>
    <g id="line2d_38">
     <path d="
M296.327 37.0363
L313.127 37.0363" style="fill:none;stroke:#0000ff;stroke-linecap:square;"/>
    </g>
    <g id="line2d_39"/>
    <g id="text_19">
     <!-- 2007 -->
     <defs>
      <path d="
M8.20312 72.9062
L55.0781 72.9062
L55.0781 68.7031
L28.6094 0
L18.3125 0
L43.2188 64.5938
L8.20312 64.5938
z
" id="BitstreamVeraSans-Roman-37"/>
     </defs>
     <g transform="translate(326.326875 41.23625)scale(0.12 -0.12)">
      <use xlink:href="#BitstreamVeraSans-Roman-32"/>
      <use x="63.623046875" xlink:href="#BitstreamVeraSans-Roman-30"/>
      <use x="127.24609375" xlink:href="#BitstreamVeraSans-Roman-30"/>
      <use x="190.869140625" xlink:href="#BitstreamVeraSans-Roman-37"/>
     </g>
    </g>
    <g id="line2d_40">
     <path d="
M296.327 54.65
L313.127 54.65" style="fill:none;stroke:#008000;stroke-linecap:square;"/>
    </g>
    <g id="line2d_41"/>
    <g id="text_20">
     <!-- 2008 -->
     <defs>
      <path d="
M31.7812 34.625
Q24.75 34.625 20.7188 30.8594
Q16.7031 27.0938 16.7031 20.5156
Q16.7031 13.9219 20.7188 10.1562
Q24.75 6.39062 31.7812 6.39062
Q38.8125 6.39062 42.8594 10.1719
Q46.9219 13.9688 46.9219 20.5156
Q46.9219 27.0938 42.8906 30.8594
Q38.875 34.625 31.7812 34.625
M21.9219 38.8125
Q15.5781 40.375 12.0312 44.7188
Q8.5 49.0781 8.5 55.3281
Q8.5 64.0625 14.7188 69.1406
Q20.9531 74.2188 31.7812 74.2188
Q42.6719 74.2188 48.875 69.1406
Q55.0781 64.0625 55.0781 55.3281
Q55.0781 49.0781 51.5312 44.7188
Q48 40.375 41.7031 38.8125
Q48.8281 37.1562 52.7969 32.3125
Q56.7812 27.4844 56.7812 20.5156
Q56.7812 9.90625 50.3125 4.23438
Q43.8438 -1.42188 31.7812 -1.42188
Q19.7344 -1.42188 13.25 4.23438
Q6.78125 9.90625 6.78125 20.5156
Q6.78125 27.4844 10.7812 32.3125
Q14.7969 37.1562 21.9219 38.8125
M18.3125 54.3906
Q18.3125 48.7344 21.8438 45.5625
Q25.3906 42.3906 31.7812 42.3906
Q38.1406 42.3906 41.7188 45.5625
Q45.3125 48.7344 45.3125 54.3906
Q45.3125 60.0625 41.7188 63.2344
Q38.1406 66.4062 31.7812 66.4062
Q25.3906 66.4062 21.8438 63.2344
Q18.3125 60.0625 18.3125 54.3906" id="BitstreamVeraSans-Roman-38"/>
     </defs>
     <g transform="translate(326.326875 58.85)scale(0.12 -0.12)">
      <use xlink:href="#BitstreamVeraSans-Roman-32"/>
      <use x="63.623046875" xlink:href="#BitstreamVeraSans-Roman-30"/>
      <use x="127.24609375" xlink:href="#BitstreamVeraSans-Roman-30"/>
      <use x="190.869140625" xlink:href="#BitstreamVeraSans-Roman-38"/>
     </g>
    </g>
    <g id="line2d_42">
     <path d="
M296.327 72.2638
L313.127 72.2638" style="fill:none;stroke:#ff0000;stroke-linecap:square;"/>
    </g>
    <g id="line2d_43"/>
    <g id="text_21">
     <!-- 2009 -->
     <defs>
      <path d="
M10.9844 1.51562
L10.9844 10.5
Q14.7031 8.73438 18.5 7.8125
Q22.3125 6.89062 25.9844 6.89062
Q35.75 6.89062 40.8906 13.4531
Q46.0469 20.0156 46.7812 33.4062
Q43.9531 29.2031 39.5938 26.9531
Q35.25 24.7031 29.9844 24.7031
Q19.0469 24.7031 12.6719 31.3125
Q6.29688 37.9375 6.29688 49.4219
Q6.29688 60.6406 12.9375 67.4219
Q19.5781 74.2188 30.6094 74.2188
Q43.2656 74.2188 49.9219 64.5156
Q56.5938 54.8281 56.5938 36.375
Q56.5938 19.1406 48.4062 8.85938
Q40.2344 -1.42188 26.4219 -1.42188
Q22.7031 -1.42188 18.8906 -0.6875
Q15.0938 0.046875 10.9844 1.51562
M30.6094 32.4219
Q37.25 32.4219 41.125 36.9531
Q45.0156 41.5 45.0156 49.4219
Q45.0156 57.2812 41.125 61.8438
Q37.25 66.4062 30.6094 66.4062
Q23.9688 66.4062 20.0938 61.8438
Q16.2188 57.2812 16.2188 49.4219
Q16.2188 41.5 20.0938 36.9531
Q23.9688 32.4219 30.6094 32.4219" id="BitstreamVeraSans-Roman-39"/>
     </defs>
     <g transform="translate(326.326875 76.46375)scale(0.12 -0.12)">
      <use xlink:href="#BitstreamVeraSans-Roman-32"/>
      <use x="63.623046875" xlink:href="#BitstreamVeraSans-Roman-30"/>
      <use x="127.24609375" xlink:href="#BitstreamVeraSans-Roman-30"/>
      <use x="190.869140625" xlink:href="#BitstreamVeraSans-Roman-39"/>
     </g>
    </g>
    <g id="line2d_44">
     <path d="
M296.327 89.8775
L313.127 89.8775" style="fill:none;stroke:#00bfbf;stroke-linecap:square;"/>
    </g>
    <g id="line2d_45"/>
    <g id="text_22">
     <!-- 2010 -->
     <g transform="translate(326.326875 94.0775)scale(0.12 -0.12)">
      <use xlink:href="#BitstreamVeraSans-Roman-32"/>
      <use x="63.623046875" xlink:href="#BitstreamVeraSans-Roman-30"/>
      <use x="127.24609375" xlink:href="#BitstreamVeraSans-Roman-31"/>
      <use x="190.869140625" xlink:href="#BitstreamVeraSans-Roman-30"/>
     </g>
    </g>
    <g id="line2d_46">
     <path d="
M296.327 107.491
L313.127 107.491" style="fill:none;stroke:#bf00bf;stroke-linecap:square;"/>
    </g>
    <g id="line2d_47"/>
    <g id="text_23">
     <!-- 2011 -->
     <g transform="translate(326.326875 111.69125)scale(0.12 -0.12)">
      <use xlink:href="#BitstreamVeraSans-Roman-32"/>
      <use x="63.623046875" xlink:href="#BitstreamVeraSans-Roman-30"/>
      <use x="127.24609375" xlink:href="#BitstreamVeraSans-Roman-31"/>
      <use x="190.869140625" xlink:href="#BitstreamVeraSans-Roman-31"/>
     </g>
    </g>
    <g id="line2d_48">
     <path d="
M296.327 125.105
L313.127 125.105" style="fill:none;stroke:#bfbf00;stroke-linecap:square;"/>
    </g>
    <g id="line2d_49"/>
    <g id="text_24">
     <!-- 2012 -->
     <g transform="translate(326.326875 129.305)scale(0.12 -0.12)">
      <use xlink:href="#BitstreamVeraSans-Roman-32"/>
      <use x="63.623046875" xlink:href="#BitstreamVeraSans-Roman-30"/>
      <use x="127.24609375" xlink:href="#BitstreamVeraSans-Roman-31"/>
      <use x="190.869140625" xlink:href="#BitstreamVeraSans-Roman-32"/>
     </g>
    </g>
    <g id="line2d_50">
     <path d="
M296.327 142.719
L313.127 142.719" style="fill:none;stroke:#000000;stroke-linecap:square;"/>
    </g>
    <g id="line2d_51"/>
    <g id="text_25">
     <!-- 2013 -->
     <g transform="translate(326.326875 146.91875)scale(0.12 -0.12)">
      <use xlink:href="#BitstreamVeraSans-Roman-32"/>
      <use x="63.623046875" xlink:href="#BitstreamVeraSans-Roman-30"/>
      <use x="127.24609375" xlink:href="#BitstreamVeraSans-Roman-31"/>
      <use x="190.869140625" xlink:href="#BitstreamVeraSans-Roman-33"/>
     </g>
    </g>
   </g>
  </g>
 </g>
 <defs>
  <clipPath id="pc1a11fcac8">
   <rect height="223.2" width="334.8" x="31.190625" y="21.318125"/>
  </clipPath>
 </defs>
</svg>
