<?xml version="1.0" encoding="utf-8" standalone="no"?>
<!DOCTYPE svg PUBLIC "-//W3C//DTD SVG 1.1//EN"
  "http://www.w3.org/Graphics/SVG/1.1/DTD/svg11.dtd">
<!-- Created with matplotlib (http://matplotlib.org/) -->
<svg height="280pt" version="1.1" viewBox="0 0 379 280" width="379pt" xmlns="http://www.w3.org/2000/svg" xmlns:xlink="http://www.w3.org/1999/xlink">
 <defs>
  <style type="text/css">
*{stroke-linecap:butt;stroke-linejoin:round;}
  </style>
 </defs>
 <g id="figure_1">
  <g id="patch_1">
   <path d="
M0 280.074
L379.45 280.074
L379.45 0
L0 0
z
" style="fill:#ffffff;"/>
  </g>
  <g id="axes_1">
   <g id="patch_2">
    <path d="
M37.45 244.518
L372.25 244.518
L372.25 21.3181
L37.45 21.3181
z
" style="fill:#ffffff;"/>
   </g>
   <g id="line2d_1">
    <path clip-path="url(#p241ef2d1d3)" d="
M0 0" style="fill:none;stroke:#0000ff;stroke-linecap:square;"/>
   </g>
   <g id="line2d_2">
    <path clip-path="url(#p241ef2d1d3)" d="
M0 0" style="fill:none;stroke:#008000;stroke-linecap:square;"/>
   </g>
   <g id="line2d_3">
    <path clip-path="url(#p241ef2d1d3)" d="
M0 0" style="fill:none;stroke:#ff0000;stroke-linecap:square;"/>
   </g>
   <g id="line2d_4">
    <path clip-path="url(#p241ef2d1d3)" d="
M39.2845 243.742
L40.2018 238.694
L41.119 243.821
L42.0363 242.986
L42.9536 243.168
L43.8708 237.83
L44.7881 239.286
L45.7053 242.551
L46.6226 240.267
L47.5399 240.989
L48.4571 243.506
L49.3744 243.176
L50.2916 238.244
L51.2089 240.377
L52.1262 240.67
L53.0434 243.695
L53.9607 243.536
L54.8779 243.089
L55.7952 242.378
L56.7125 240.861
L57.6297 243.58
L58.547 243.877
L59.4642 243.55
L60.3815 243.539
L61.2988 243.91
M63.1333 242.661
L64.0505 241.449
L64.9678 243.63
L65.8851 243.589
L66.8023 242.514
L67.7196 242.479
L68.6368 243.057
L69.5541 243.319
L70.4714 243.359
L71.3886 242.845
L72.3059 242.827
L73.2232 241.39
L74.1404 241.119
L75.0577 243.459
L75.9749 242.606
L76.8922 243.606
L77.8095 242.641
L78.7267 244.356
L79.644 244.116
L80.5612 244.032
L81.4785 244.217
L82.3958 242.722
L83.313 242.322
L84.2303 242.238
L85.1475 237.548
L86.0648 237.299
L86.9821 241.919
L87.8993 243.222
L88.8166 240.378
L90.6511 242.324
L91.5684 240.343
L92.4856 239.814
L93.4029 241.851
L94.3201 241.214
L95.2374 242.055
L96.1547 241.216
L97.0719 239.972
L97.9892 242.172
L98.9064 241.829
L99.8237 239.145
L100.741 238.931
L101.658 239.538
L102.575 243.001
L103.493 241.217
L104.41 238.374
L105.327 238.254
L106.245 238.891
L107.162 239.376
L108.079 236.336
L108.996 237.039
L109.914 239.83
L110.831 241.954
L111.748 238.948
L112.665 237.845
L114.5 242.165
L115.417 240.756
L116.334 237.099
L118.169 242.612
L119.086 241.067
L120.003 242.744
L120.921 242.465
L121.838 240.975
L122.755 240.79
L123.672 240.992
L124.59 240.484
L125.507 240.83
L126.424 240.114
L127.342 237.326
L129.176 237.274
L130.093 240.758
L131.011 242.28
L131.928 238.893
L132.845 237.06
L133.762 238.043
L134.68 238.11
L135.597 236.645
L136.514 235.817
L137.431 239.243
L138.349 241.967
L139.266 241.163
L140.183 235.279
L141.1 234.446
L142.018 234.106
L142.935 234.669
L143.852 240.939
L145.687 240.597
L146.604 241.92
L147.521 240.926
L148.438 237.436
L149.356 239.713
L150.273 234.967
L151.19 235.799
L152.108 237.572
L153.025 232.636
L153.942 235.015
L154.859 234.399
L155.777 239.879
L156.694 237.282
L157.611 234.119
L158.528 235.784
L159.446 234.323
L160.363 234.774
L161.28 235.865
L163.115 241.705
L164.032 237.915
L164.949 237.149
L165.866 237.313
L166.784 243.516
L167.701 240.174
L169.535 235.875
L170.453 239.809
L171.37 239.969
L173.205 239.499
L174.122 235.828
L175.039 240.741
L175.956 240.595
L176.874 242.398
L177.791 238.372
L178.708 242.735
L179.625 239.075
L180.543 241.796
L181.46 237.759
L182.377 236.775
L183.294 239.315
L184.212 241.028
L185.129 236.875
L186.046 234.881
L186.963 235.311
L187.881 235.988
L188.798 236.967
L189.715 236.6
L190.632 238.175
L191.55 234.511
L192.467 236.009
L193.384 239.15
L194.302 239.194
L195.219 236.047
L196.136 235.69
L197.053 238.192
L197.971 239.041
L198.888 236.597
L199.805 236.483
L200.722 237.344
L201.64 239.306
L202.557 237.625
L203.474 236.954
L204.391 237.461
L205.309 238.506
L206.226 235.85
L207.143 236.268
L208.06 236.223
L208.978 235.938
L209.895 236.217
L210.812 236.899
L212.647 236.972
L213.564 236.659
L214.481 234.301
L215.398 235.398
L216.316 235.721
L217.233 236.709
L218.15 236.276
L219.068 236.241
L219.985 235.665
L220.902 236.025
L221.819 235.511
L222.737 232.733
L223.654 232.306
L224.571 233.483
L225.488 233.67
L226.406 237.147
L227.323 233.496
L228.24 234.556
L229.157 233.92
L230.075 235.622
L230.992 234.195
L231.909 232.978
L232.826 233.17
L233.744 234.873
L234.661 236.916
L236.495 238.043
L237.413 237.107
L238.33 237.43
L239.247 237.918
L240.165 239.052
L241.082 240.712
L241.999 238.379
L242.916 237.025
L243.834 237.371
L244.751 236.817
L245.668 237.028
L246.585 236.981
L247.503 237.223
L248.42 236.489
L249.337 236.328
L250.254 236.427
L251.172 235.978
L252.089 236.573
L253.006 236.074
L253.923 236.731
L254.841 238.069
L255.758 235.943
L256.675 236.519
L257.592 241.208
L258.51 238.742
L259.427 239.448
L260.344 239.344
L261.262 237.184
L262.179 236.552
L263.096 237.301
L264.013 236.809
L264.931 235.331
L265.848 235.194
L266.765 239.934
L267.682 243.27
L268.6 239.337
L269.517 236.345
L270.434 236.258
L271.351 236.815
L272.269 237.164
L273.186 237.064
L274.103 236.613
L275.02 237.41
L275.938 236.939
L276.855 238.776
L277.772 239.189
L278.689 237.147
L279.607 236.48
L280.524 236.735
L281.441 236.415
L282.358 237.218
L284.193 236.889
L285.11 237.311
L286.028 237.55
L286.945 236.917
L287.862 237.627
L288.779 237.719
L289.697 239.382
L290.614 242.54
L291.531 241.512
L292.448 240.213
L293.366 239.386
L294.283 242.321
L295.2 240.068
L296.117 240.267
L297.035 239.975
L297.952 236.704
L298.869 236.483
L299.786 236.483
L300.704 237.372
L301.621 238.961
L302.538 237.705
L303.455 235.661
L304.373 235.262
L305.29 236.417
L306.207 237.059
L307.125 237.12
L308.042 241.18
L308.959 243.454
L309.876 241.863
L310.794 242.583
L311.711 240.658
L312.628 236.667
L313.545 236.776
L314.463 238.22
L315.38 241.455
L316.297 239.631
L317.214 238.63
L318.132 238.638
L319.049 237.54
L319.966 238.557
L320.883 238.7
L321.801 241.589
L322.718 242.219
L323.635 239.717
L324.552 243.055
L325.47 242.797
L326.387 241.174
L327.304 240.978
L328.222 243.139
L329.139 243.287
M331.891 239.121
L332.808 242.297
L333.725 243.293
L334.642 242.061
L335.56 242.927
L336.477 242.332
L337.394 242.225
L338.311 240.403
L339.229 240.072
L340.146 240.577
L341.063 243.304
L341.98 241.943
L342.898 239.233
L343.815 243.593
L344.732 243.937
L345.649 241.904
L346.567 243.463
L347.484 243.102
L348.401 241.954
L349.318 243.234
L350.236 240.657
L351.153 242.397
L352.07 241.79
L352.988 242.925
L353.905 242.499
L354.822 241.655
L355.739 242.25
L356.657 242.302
L357.574 241.042
L358.491 239.394
L359.408 241.762
L360.326 243.271
L361.243 242.242
L362.16 241.586
L363.077 242.99
L363.995 242.495
L364.912 240.222
L365.829 236.1
L366.746 240.521
L367.664 242.431
L369.498 243.109
L370.415 242.548
L371.333 243.735
L371.333 243.735" style="fill:none;stroke:#00bfbf;stroke-linecap:square;"/>
   </g>
   <g id="line2d_5">
    <path clip-path="url(#p241ef2d1d3)" d="
M37.45 241.653
L38.3673 240.744
L39.2845 243.425
L40.2018 243.245
L41.119 240.551
L42.0363 239.173
L42.9536 239.51
L43.8708 241.943
L44.7881 242.647
L45.7053 242.769
L46.6226 240.988
L47.5399 241.364
L48.4571 243.648
L49.3744 243.023
L50.2916 243.244
L51.2089 243.995
L53.0434 243.003
L53.9607 243.269
L54.8779 240.359
L55.7952 242.388
L56.7125 243.902
L57.6297 240.646
L58.547 242.716
L59.4642 243.663
L60.3815 241.93
L61.2988 241.032
L63.1333 241.634
L64.0505 242.886
L64.9678 241.909
L65.8851 239.213
L66.8023 237.728
L67.7196 239.312
L68.6368 242.578
L69.5541 242.624
L70.4714 241.336
L71.3886 242.14
L72.3059 241.834
L73.2232 242.342
L74.1404 241.285
L75.9749 238.763
L76.8922 238.472
L77.8095 238.72
L78.7267 239.173
L80.5612 242.133
L81.4785 242.477
L82.3958 241.826
L83.313 243.069
L84.2303 243.582
L85.1475 242.771
L86.0648 241.317
L86.9821 240.51
L87.8993 241.465
L88.8166 239.806
L89.7338 240.626
L90.6511 239.177
L91.5684 239.113
L92.4856 241.612
L93.4029 241.765
L94.3201 242.312
L95.2374 241.765
L96.1547 242.295
L97.0719 242.158
L97.9892 243.639
L99.8237 241.026
L100.741 242.446
L102.575 242.394
L103.493 241.815
L104.41 242.047
L105.327 244.113
L106.245 243.145
L107.162 241.007
L108.079 242.259
L108.996 241.468
L109.914 242.876
L110.831 243.08
L111.748 241.357
L112.665 241.994
L113.583 241.984
L114.5 243.675
L115.417 243.123
L116.334 242.361
L118.169 242.829
L119.086 240.931
L120.003 240.332
L120.921 241.673
L122.755 239.078
L123.672 241.747
L124.59 241.546
L125.507 241.658
L126.424 241.134
L127.342 241.956
L128.259 240.483
L129.176 241.933
L130.093 240.148
L131.011 241.805
L131.928 240.704
L132.845 240.963
L133.762 241.716
L134.68 240.806
L135.597 241.504
L136.514 237.58
L138.349 242.589
L139.266 239.614
L140.183 238.487
L142.018 242.037
L142.935 241.284
L143.852 239.639
L144.769 241.347
L145.687 240.556
L146.604 240.142
L147.521 238.672
L148.438 239.845
L150.273 238.622
L151.19 237.544
L152.108 240.977
L153.025 240.097
L153.942 241.938
L154.859 239.443
L155.777 236.304
L156.694 236.381
L157.611 237.404
L158.528 236.949
L159.446 239.647
L160.363 241.807
L161.28 241.8
L162.197 239.611
L163.115 240.204
L164.032 235.42
L165.866 239.633
L166.784 237.911
L167.701 240.027
L169.535 238.369
L170.453 240.793
L171.37 242.217
L172.287 240.165
L173.205 242.641
L174.122 240.354
L175.039 238.859
L175.956 238.29
L176.874 241.073
L177.791 237.571
L178.708 235.757
L179.625 237.586
L180.543 240.598
L181.46 241.156
L182.377 237.043
L183.294 237.617
L184.212 238.511
L186.046 239.412
L186.963 240.296
L187.881 236.421
L188.798 234.685
L189.715 237.377
L190.632 235.383
L191.55 240.395
L192.467 239.922
L193.384 237.715
L194.302 237.221
L196.136 237.223
L197.971 234.75
L198.888 235.072
L199.805 236.814
L200.722 237.471
L201.64 239.174
L202.557 238.14
L203.474 236.147
L204.391 236.781
L205.309 237.12
L206.226 237.845
L207.143 237.49
L208.06 237.323
L208.978 239.404
L209.895 237.237
L210.812 235.93
L211.729 237.265
L212.647 237.905
L213.564 238.015
L214.481 238.468
L215.398 239.222
L216.316 237.245
L217.233 238.069
L218.15 237.48
L219.068 237.288
L219.985 237.417
L220.902 237.192
L221.819 236.846
L222.737 237.367
L223.654 236.494
L224.571 237.798
L225.488 237.26
L226.406 237.8
L228.24 236.869
L229.157 237.316
L230.075 238.525
L230.992 239.424
L231.909 238.439
L233.744 237.971
L234.661 239.191
L235.578 237.845
L236.495 237.592
L237.413 238.299
L238.33 237.708
L239.247 237.486
L240.165 237.416
L241.082 236.974
L241.999 237.158
L242.916 237.708
L244.751 236.855
L246.585 237.519
L247.503 237.373
L248.42 237.001
L249.337 237.976
L250.254 238.558
L251.172 238.064
L252.089 237.827
L253.006 238.229
L253.923 238.476
L254.841 238.353
L255.758 239.297
L256.675 238.617
L257.592 238.283
L259.427 237.087
L260.344 236.925
L261.262 236.927
L262.179 237.123
L263.096 237.043
L264.013 237.426
L264.931 238.179
L266.765 238.136
L267.682 238.46
L268.6 238.219
L269.517 239.403
L270.434 238.662
L271.351 238.958
L272.269 238.369
L273.186 241.136
L274.103 242.51
L275.02 237.278
L275.938 237.278
L276.855 238.116
L277.772 237.792
L278.689 237.258
L279.607 237.989
L281.441 238.092
L282.358 238.936
L283.276 238.22
L284.193 238.026
L285.11 238.082
L286.028 237.669
L286.945 238.788
L288.779 238.38
L289.697 238.806
L290.614 242.027
L291.531 243.264
L292.448 243.745
L293.366 243.825
L294.283 240.451
L295.2 238.715
L296.117 241.876
L297.035 240.621
L297.952 238.823
L298.869 237.93
L299.786 238.316
L300.704 239.791
L301.621 242.539
L302.538 238.855
L303.455 237.621
L304.373 239.174
L305.29 238.403
L306.207 239.083
L307.125 240.068
L308.042 239.244
L308.959 241.34
L309.876 237.025
L310.794 235.027
L311.711 236.17
L312.628 236.954
L313.545 238.054
L314.463 239.418
L315.38 240.543
L317.214 235.96
L318.132 236.833
L319.049 240.503
L319.966 243.018
L320.883 242.997
L321.801 241.682
L322.718 240.666
L323.635 238.686
L324.552 237.274
L326.387 241.314
L327.304 241.544
L328.222 240.082
L330.056 238.797
L330.973 242.129
L331.891 242.888
L332.808 242.03
L333.725 240.075
L335.56 241.759
L336.477 238.944
L337.394 240.653
L338.311 240.462
L339.229 235.659
L340.146 236.591
L341.063 240.083
L341.98 242.321
L342.898 241.419
L343.815 237.639
L344.732 237.814
L346.567 239.8
L348.401 237.794
L349.318 238.405
L350.236 238.104
L351.153 237.056
L352.07 238.303
L352.988 238.669
L353.905 238.622
L354.822 239.272
L355.739 239.569
L356.657 240.627
L357.574 240.885
L358.491 240.258
L359.408 239.868
L360.326 238.495
L361.243 238.173
L362.16 239.571
L363.077 235.113
L363.995 235.638
L364.912 236.369
L365.829 237.502
L366.746 238.295
L367.664 240.03
L368.581 243.169
L369.498 241.644
L370.415 243.191
L371.333 240.818
L371.333 240.818" style="fill:none;stroke:#bf00bf;stroke-linecap:square;"/>
   </g>
   <g id="line2d_6">
    <path clip-path="url(#p241ef2d1d3)" d="
M37.45 236.822
L38.3673 238.056
L39.2845 237.889
L40.2018 237.014
L41.119 239.19
L42.9536 240.434
L43.8708 240.396
L44.7881 240.17
L45.7053 241.715
L46.6226 239.289
L47.5399 237.314
L48.4571 234.773
L49.3744 235.554
L50.2916 238.799
L51.2089 239.619
L52.1262 237.101
L53.0434 240.24
L53.9607 243.951
L54.8779 243.945
L55.7952 243.681
L56.7125 242.19
L57.6297 243.357
L58.547 241.765
L59.4642 242.203
L60.3815 242.388
L61.2988 240.809
L63.1333 236.734
L64.0505 241.806
L64.9678 239.967
L65.8851 241.202
L66.8023 242.881
L67.7196 241.099
L68.6368 239.815
L70.4714 239.768
L71.3886 237.916
L72.3059 241.089
L73.2232 242.662
L74.1404 242.076
L75.0577 242.509
L75.9749 243.383
L76.8922 241.978
L77.8095 242.076
L78.7267 242.648
L79.644 239.941
L80.5612 240.753
L81.4785 241.864
L82.3958 240.276
L83.313 240.584
L84.2303 243.322
L86.0648 240.307
L86.9821 238.08
L87.8993 240.985
L88.8166 240.076
L89.7338 238.97
L90.6511 239.47
L91.5684 240.691
L92.4856 241.472
L93.4029 241.227
L94.3201 242.425
L95.2374 240.837
L96.1547 238.764
L97.0719 241.605
L97.9892 238.374
L99.8237 237.692
L100.741 237.032
L101.658 239.927
L102.575 240.513
L103.493 240.604
L104.41 243.733
L105.327 242.368
L106.245 241.893
L107.162 241.257
L108.079 242.667
L108.996 240.732
L109.914 241.662
L110.831 241.24
L111.748 238.5
L112.665 239.752
L113.583 237.542
L114.5 240.393
L115.417 242.736
L116.334 239.624
L117.252 241.807
L118.169 241.718
L119.086 242.904
L120.003 238.782
L121.838 240.046
L122.755 237.32
L123.672 239.805
L124.59 239.377
L125.507 239.933
L126.424 235.82
L127.342 234.261
L128.259 235.61
L129.176 235.489
L130.093 239.757
L131.011 236.965
L131.928 239.6
L132.845 235.916
L133.762 234.664
L134.68 240.139
L135.597 237.785
L136.514 239.074
L137.431 240.798
L138.349 238.217
L139.266 236.198
L140.183 236.591
L141.1 238.777
L142.018 238.491
L142.935 239.572
L143.852 242.963
L144.769 239.399
L146.604 235.628
L147.521 240.909
L148.438 237.102
L149.356 236.559
L150.273 240.363
L151.19 240.951
L152.108 238.183
L153.025 236.341
L153.942 234.777
L154.859 235.354
L155.777 236.484
L156.694 234.29
L157.611 234.236
L158.528 234.7
L159.446 235.341
L160.363 236.488
L161.28 238.455
L162.197 236.062
L163.115 237.718
L164.949 234.223
L165.866 235.599
L166.784 239.469
L167.701 239.127
L168.618 239.647
L169.535 236.972
L170.453 241.177
L171.37 241.884
L172.287 239.522
L173.205 235.674
L174.122 235.853
L175.039 235.654
L175.956 236.736
L176.874 236.574
L177.791 238.005
L178.708 237.782
L179.625 239.109
L180.543 240.775
L181.46 236.299
L182.377 237.233
L183.294 237.964
L184.212 240.121
L186.046 234.601
L186.963 237.471
L187.881 236.732
L188.798 234.402
L189.715 238.803
L190.632 236.31
L191.55 236.502
L192.467 235.921
L193.384 237.815
L194.302 235.312
L195.219 236.252
L196.136 239.895
L197.053 236.803
L197.971 236.297
L198.888 236.035
L199.805 237.17
L200.722 235.283
L201.64 236.493
L202.557 236.503
L203.474 237.006
L204.391 238.557
L205.309 237.205
L206.226 236.628
L207.143 236.289
L208.06 237.47
L208.978 237.835
L209.895 237.628
L210.812 239.513
L211.729 237.954
L212.647 237.89
L213.564 238.35
L214.481 237.866
L215.398 239.412
L216.316 240.434
L217.233 239.275
L218.15 238.815
L219.068 237.524
L219.985 237.322
L220.902 237.938
L221.819 237.156
L222.737 237.194
L223.654 237.517
L225.488 237.054
L226.406 237.797
L227.323 237.563
L228.24 237.804
L230.992 237.458
L231.909 237.55
L232.826 237.014
L233.744 236.683
L234.661 237.005
L235.578 237.131
L236.495 237.636
L237.413 237.743
L239.247 238.233
L240.165 238.181
L241.082 238.902
L241.999 237.648
L242.916 237.995
L244.751 237.828
L245.668 237.652
L246.585 237.956
L248.42 237.687
L249.337 239.114
L250.254 238.053
L251.172 238.373
L252.089 237.731
L253.006 237.265
L253.923 235.609
L254.841 236.543
L255.758 238.5
L256.675 238.8
L257.592 237.749
L258.51 237.313
L259.427 237.031
L260.344 238.548
L261.262 237.842
L262.179 235.972
L263.096 236.484
L264.013 236.665
L264.931 237.228
L265.848 238.363
L266.765 236.846
L267.682 236.988
L268.6 238.12
L269.517 237.073
L270.434 236.687
L271.351 235.221
L272.269 236.682
L273.186 237.082
L274.103 237.095
L275.02 237.275
L275.938 236.869
L276.855 237.141
L278.689 237.901
L279.607 237.915
L280.524 237.619
L281.441 241.172
L282.358 239.329
L283.276 239.32
L284.193 238.643
L285.11 237.593
L286.028 238.184
L287.862 237.856
L289.697 237.219
L290.614 235.184
L291.531 235.333
L293.366 234.91
L294.283 235.439
L295.2 235.498
L296.117 236.636
L297.035 237.16
L298.869 237.147
L299.786 240.918
L300.704 239.427
L301.621 239.963
L302.538 239.892
L303.455 237.591
L304.373 237.047
L305.29 238.529
L306.207 240.737
L307.125 237.818
L308.042 242.067
L308.959 241.044
L309.876 241.904
L311.711 238.773
L312.628 241.034
M314.463 239.03
L315.38 238.994
L316.297 237.954
L317.214 240.299
L318.132 239.359
L319.049 239.753
L319.966 239.441
L320.883 240.77
L321.801 239.355
L322.718 240.171
L324.552 242.521
L325.47 241.853
L326.387 241.728
L327.304 240.512
M329.139 242.054
L330.056 239.743
L331.891 242.269
L332.808 240.832
L333.725 242.04
L334.642 241.696
L335.56 241.869
L336.477 239.796
L337.394 237.392
L338.311 240.677
L339.229 241.887
L340.146 240.538
L341.063 239.723
L341.98 240.805
L343.815 242.317
L344.732 242.237
L345.649 242.758
L346.567 239.891
L347.484 241.635
L348.401 243.069
L350.236 241.01
L351.153 242.091
L352.07 238.732
L352.988 242.872
L353.905 240.927
L354.822 243.558
L355.739 241.755
L356.657 243.565
L358.491 242.428
L359.408 241.765
L360.326 242.258
L361.243 241.167
L362.16 237.443
L363.077 236.398
L363.995 239.906
L364.912 242.427
L365.829 243.026
L366.746 240.442
L367.664 242.154
L368.581 242.605
L369.498 242.755
L370.415 241.332
L371.333 243.251
L371.333 243.251" style="fill:none;stroke:#bfbf00;stroke-linecap:square;"/>
   </g>
   <g id="line2d_7">
    <path clip-path="url(#p241ef2d1d3)" d="
M37.45 242.181
L38.3673 242.297
L40.2018 238.669
L41.119 241.105
L42.0363 240.481
L42.9536 242.438
L43.8708 243.903
M46.6226 244.319
L47.5399 244.306
L48.4571 243.877
L49.3744 242.376
L50.2916 243.869
L51.2089 242.318
L52.1262 239.673
L53.0434 238.121
L53.9607 238.552
L54.8779 237.99
L55.7952 238.004
L56.7125 238.25
L57.6297 237.697
L58.547 241.571
L59.4642 243.866
L60.3815 243.755
L61.2988 244.205
L62.216 243.81
L64.0505 244.013
L64.9678 244.381
L65.8851 243.873
L66.8023 243.16
L67.7196 242.217
L68.6368 240.971
L69.5541 241.081
L70.4714 242.272
L71.3886 241.574
L72.3059 242.741
L73.2232 242.077
L74.1404 240.8
L75.0577 239.835
L75.9749 242.471
L76.8922 242.766
L77.8095 242.353
L78.7267 241.632
L79.644 241.932
L80.5612 242.551
L81.4785 239.468
L82.3958 241.202
L83.313 241.847
L84.2303 240.905
L85.1475 243.296
L86.0648 243.023
L87.8993 242.075
L88.8166 241.831
L89.7338 240.245
L90.6511 241.862
L91.5684 242.435
L92.4856 242.03
L93.4029 241.158
L94.3201 238.49
L95.2374 238.938
L96.1547 241.308
L97.0719 240.735
L97.9892 239.431
L98.9064 238.726
L99.8237 237.279
L100.741 241.683
L101.658 241.243
L102.575 239.162
L103.493 238.716
L104.41 239.245
L105.327 240.051
L106.245 239.633
L107.162 239.385
L108.079 235.433
L108.996 240.411
L109.914 239.674
L110.831 241.025
L112.665 236.808
L113.583 236.728
L114.5 241.283
L115.417 240.011
L116.334 238.134
L117.252 238.314
L118.169 237.317
L119.086 237.626
L120.003 239.213
L120.921 237.9
L121.838 237.256
L122.755 240.394
L123.672 240.434
L124.59 241.943
L125.507 241.596
L126.424 238.593
L127.342 236.381
L128.259 239.841
L129.176 237.213
L130.093 235.443
L131.011 239.897
L131.928 237.923
L132.845 238.111
L133.762 236.307
L134.68 234.246
L135.597 234.469
L136.514 241.864
L137.431 239.634
L138.349 237.934
L141.1 234.27
L142.018 234.96
L142.935 236.046
L143.852 236.728
L144.769 235.69
L145.687 238.193
L146.604 236.863
L147.521 234.735
L148.438 234.197
L149.356 235.69
L150.273 238.681
L151.19 236.581
L152.108 238.962
L153.025 239.03
L153.942 238.711
L154.859 237.771
L155.777 237.473
L157.611 237.745
L158.528 237.722
L159.446 237.051
L160.363 237.284
L162.197 241.562
L163.115 238.339
L164.032 239.695
L164.949 236.583
L165.866 237.789
L166.784 236.836
L167.701 234.127
L168.618 235.405
L169.535 235.891
L170.453 240.137
L171.37 239.625
L172.287 242.135
L173.205 241.451
L174.122 238.068
L175.039 236.515
L176.874 236.05
L177.791 236.017
L178.708 236.77
L179.625 236.828
L180.543 237.623
L181.46 237.466
L182.377 237.465
L183.294 237.313
L184.212 237.824
L185.129 238.051
L186.046 236.674
L186.963 239.15
L187.881 238.209
L188.798 235.899
L189.715 237.644
L190.632 237.399
L191.55 237.459
L192.467 241.557
L193.384 238.295
L194.302 238.514
L195.219 237.872
L196.136 237.767
L197.053 241.48
L197.971 242.868
L198.888 239.732
L199.805 237.883
L200.722 238.106
L201.64 238.71
L202.557 238.383
L203.474 238.941
L204.391 238.763
L205.309 239.95
L206.226 238.146
L207.143 237.423
L208.06 237.905
L208.978 238.037
L210.812 237.509
L212.647 238.976
L214.481 236.802
L215.398 237.197
L216.316 237.879
L217.233 240.006
L218.15 238.493
L219.068 237.552
L219.985 237.943
L220.902 237.937
L222.737 237.32
L223.654 237.674
L224.571 238.239
L225.488 238.175
L226.406 238.652
L229.157 237.595
L230.075 237.478
L230.992 238.333
L231.909 238.311
L232.826 237.474
L233.744 237.092
L234.661 237.68
L235.578 237.842
L236.495 237.829
L237.413 238.289
L238.33 238.286
L239.247 238.691
L240.165 238.502
L241.082 238.617
L241.999 238.923
L242.916 238.796
L243.834 238.33
L244.751 238.585
L246.585 238.494
L248.42 238.518
L250.254 238.254
L251.172 240.371
L252.089 239.211
L253.006 239.302
L253.923 238.96
L254.841 238.487
L255.758 238.74
L256.675 239.835
L258.51 238.447
L259.427 238.456
L260.344 238.817
L261.262 240.519
L262.179 241.938
L263.096 241.172
L264.013 241.48
L265.848 238.453
L266.765 238.492
L267.682 238.925
L268.6 239.017
L269.517 239.555
L270.434 241.715
L271.351 240.447
L272.269 241.049
L273.186 239.886
L274.103 239.419
L275.02 240.771
L275.938 241.386
L276.855 238.016
L277.772 237.938
L278.689 240.082
L279.607 241.505
L280.524 239.606
L281.441 242.152
L282.358 243.492
L283.276 242.522
L284.193 240.282
L285.11 239.83
L286.028 242.19
L286.945 240.147
L287.862 241.145
L288.779 240.14
L289.697 241.967
L290.614 238.181
L291.531 236.945
L292.448 237.329
L293.366 238.592
L294.283 241.406
L295.2 239.549
L296.117 240.055
L297.952 238.909
L298.869 239.735
L301.621 238.309
L302.538 238.904
L303.455 237.951
L304.373 238.162
L305.29 239.123
L306.207 239.176
L307.125 238.464
L308.042 238.836
L308.959 238.919
L309.876 238.831
L310.794 239.107
L311.711 239.246
L312.628 242.547
L313.545 242.996
L314.463 242.365
L315.38 242.622
L316.297 242.487
L317.214 242.976
L318.132 242.746
L319.049 240.891
L319.966 241.68
L320.883 243.047
L321.801 242.416
L322.718 240.183
L323.635 239.481
L324.552 239.759
L325.47 239.246
L326.387 239.323
L327.304 240.958
L328.222 241.723
L330.056 242.674
L330.973 242.162
L331.891 240.311
L332.808 242.599
L333.725 242.894
L334.642 239.021
L335.56 238.443
L336.477 238.209
L337.394 238.574
L338.311 238.243
L339.229 239.247
L340.146 239.146
L341.98 240.076
L342.898 242.42
L343.815 242.985
L344.732 242.217
L345.649 240.328
L346.567 242.363
L347.484 241.525
L348.401 241.081
L349.318 242.201
L350.236 241.734
L351.153 239.135
L352.07 240.191
L352.988 242.027
L353.905 240.723
L355.739 241.855
L356.657 239.242
L357.574 239.51
L358.491 238.181
L359.408 241.123
L360.326 242.117
L361.243 240.549
L362.16 242.988
L363.077 243.614
L363.995 242.861
L364.912 241.928
L366.746 237.788
L367.664 238.057
L368.581 240.971
L369.498 239.903
L370.415 240.938
L371.333 241.656
L371.333 241.656" style="fill:none;stroke:#000000;stroke-linecap:square;"/>
   </g>
   <g id="line2d_8">
    <path clip-path="url(#p241ef2d1d3)" d="
M37.45 166.05
L38.3673 172.936
L39.2845 150.018
L41.119 48.7102
L42.0363 43.7765
L42.9536 144.057
L43.8708 229.15
L44.7881 216.459
L45.7053 217.386
L46.6226 201.12
L47.5399 208.586
L48.4571 217.555
L49.3744 171.052
L50.2916 99.9581
L51.2089 90.7846
L52.1262 91.3159
L53.0434 112.517
L53.9607 102.046
L54.8779 114.713
L55.7952 105.574
L57.6297 140.332
L58.547 88.2411
L59.4642 51.6059
L60.3815 69.2774
L62.216 117.532
L63.1333 201.492
L64.0505 183.793
L64.9678 168.77
L65.8851 170.644
L66.8023 143.187
L67.7196 176.54
L68.6368 151.213
L69.5541 153.787
L70.4714 187.883
L71.3886 185.674
L72.3059 230.608
L74.1404 188.093
L75.0577 203.816
L75.9749 223.605
L76.8922 164.506
L77.8095 173.614
L78.7267 178.469
L79.644 180.072
L80.5612 126.971
L81.4785 177.145
L82.3958 172.107
L83.313 196.692
L84.2303 173.451
L85.1475 167.167
L86.0648 165.682
L86.9821 170.445
L87.8993 187.253
L88.8166 182.911
L89.7338 190.237
L90.6511 203.032
L91.5684 209.725
L92.4856 226.314
L93.4029 218.256
L94.3201 198.886
L95.2374 187.733
L96.1547 191.401
L97.0719 190.742
L97.9892 143.881
L98.9064 179.406
L99.8237 203.326
L100.741 177.757
L101.658 99.5527
L102.575 95.268
L103.493 152.306
L104.41 116.464
L105.327 111.96
L106.245 155.047
L107.162 143.412
L108.079 98.1609
L108.996 118.951
L109.914 67.4951
L110.831 65.2071
L111.748 76.8543
L112.665 112.291
L113.583 155.824
L114.5 178.068
L115.417 225.951
L116.334 201.742
L117.252 190.308
L118.169 197.445
L119.086 172.07
L120.003 185.328
L120.921 201.448
L121.838 145.396
L122.755 178.628
L123.672 182.889
L124.59 195.442
L125.507 152.398
L126.424 146.003
L127.342 159.728
L128.259 126.554
L129.176 124.866
L130.093 135.738
L131.011 123.566
L131.928 85.643
L132.845 108.623
L133.762 89.9307
L134.68 184.874
L135.597 161.937
L136.514 131.827
L137.431 137.623
L138.349 118.894
L139.266 173.001
L140.183 177.886
L141.1 198.512
L142.018 216.343
L142.935 179.72
L144.769 163.679
L145.687 116.537
L146.604 130.798
L147.521 141.929
L148.438 150.297
L149.356 141.795
L150.273 168.572
L151.19 164.326
L152.108 157.561
L153.025 145.49
L153.942 182.573
L154.859 187.608
L155.777 203.748
L156.694 162.993
L158.528 121.994
L159.446 146.416
L160.363 151.907
L161.28 156.423
L162.197 147.075
L163.115 180.061
L164.032 171.542
L164.949 168.331
L165.866 190.256
L166.784 153.192
L167.701 169.725
L168.618 190.198
L169.535 159.84
L170.453 157.864
L171.37 161.385
L172.287 159.24
L174.122 123.844
L175.039 140.732
L175.956 152.023
L176.874 152.263
L177.791 152.994
L178.708 150.827
L179.625 142.743
L180.543 139.18
L181.46 151.307
L182.377 152.382
L183.294 156.783
L184.212 157.386
L185.129 138.04
L186.046 160.363
L187.881 191.391
L188.798 160.62
L189.715 179.784
L190.632 159.782
L191.55 209.258
L192.467 166.097
L193.384 162.849
L194.302 164.016
L195.219 149.992
L196.136 159.54
L197.053 166.143
L197.971 201.711
L198.888 209.957
L199.805 203.166
L200.722 182.958
L201.64 155.712
L202.557 156.816
L203.474 158.122
L204.391 165.11
L205.309 175.53
L206.226 171.576
L208.06 167.393
L208.978 171.53
L209.895 172.985
L210.812 171.492
L211.729 178.098
L212.647 177.023
L213.564 168.506
L214.481 177.556
L215.398 178.328
L216.316 177.196
L217.233 175.216
L218.15 177.791
L219.068 156.061
L219.985 164.829
L220.902 187.221
L221.819 194.807
L222.737 185.703
L223.654 180.114
L225.488 147.013
L226.406 151.637
L227.323 165.873
L228.24 175.81
L229.157 173.578
L230.075 178.577
L230.992 175.242
L231.909 177.516
L232.826 173.427
L233.744 179.2
L234.661 178.197
L235.578 197.254
L236.495 203.525
L237.413 179.652
L238.33 178.025
L239.247 179.102
L241.082 173.647
L242.916 206.148
L243.834 200.445
L244.751 175.924
L245.668 169.536
L246.585 169.075
L247.503 168.378
L248.42 168.985
L249.337 178.184
L250.254 170.859
L251.172 170.038
L252.089 180.217
L253.006 180.374
L253.923 189.205
L254.841 172.91
L255.758 165.408
L256.675 162.302
L257.592 167.03
L258.51 194.867
L259.427 190.132
L260.344 156.207
L261.262 153.398
L262.179 167.954
L263.096 137.474
L264.013 142.443
L264.931 143.875
L265.848 150.033
L266.765 151.462
L267.682 144.769
L268.6 155.943
L269.517 130.538
L270.434 120.29
L271.351 136.544
L273.186 158.672
M278.689 192.242
L279.607 199.878
L280.524 187.633
L281.441 170.231
L282.358 161.611
L283.276 161.365
L284.193 190.395
L285.11 211.636
L286.028 221.105
L286.945 199.347
L287.862 172.31
L288.779 140.873
L289.697 138.811
L290.614 149.356
L291.531 153.546
L292.448 160.81
L293.366 156.732
L294.283 156.46
L295.2 146.593
L296.117 151.93
L297.035 175.284
L297.952 180.071
L298.869 135.828
L299.786 137.562
L300.704 169.852
L301.621 152.366
L302.538 132.649
L303.455 149.691
L304.373 151.928
L305.29 150.26
L306.207 197.413
L307.125 165.797
L308.042 208.047
L308.959 188.746
L309.876 147.651
L310.794 195.819
L311.711 156.913
L312.628 137.944
L313.545 161.683
L314.463 152.175
L315.38 137.796
L316.297 176.622
L317.214 226.185
L318.132 212.788
L319.049 205.318
L319.966 215.698
L320.883 179.532
L321.801 182.409
L322.718 149.433
L323.635 190.617
L324.552 182.282
L325.47 136.974
L326.387 68.393
L327.304 118.008
L328.222 214.943
L329.139 189.44
L330.056 73.0551
L330.973 62.6321
L331.891 59.1003
L332.808 102.018
L333.725 158.46
L334.642 202.707
L335.56 223.999
L337.394 169.948
L338.311 208.168
L339.229 181.19
L340.146 160.318
L341.063 132.734
L341.98 174.616
L342.898 97.3457
L343.815 185.672
L344.732 195.062
L345.649 206.141
L346.567 213.044
L347.484 206.408
L348.401 198.684
L349.318 180.027
L350.236 174.505
L351.153 166.001
L352.07 143.907
L352.988 133.749
L353.905 182.623
L354.822 221.673
L356.657 167.503
L357.574 195.783
L358.491 196.777
L360.326 216.789
L361.243 230.961
L362.16 234.082
L363.077 226.127
L363.995 211.136
L364.912 194.188
L365.829 210.336
L366.746 205.476
L367.664 196.75
L368.581 213.011
L369.498 204.359
L370.415 187.634
L371.333 189.266
L371.333 189.266" style="fill:none;stroke:#0000ff;stroke-linecap:square;"/>
   </g>
   <g id="patch_3">
    <path d="
M37.45 21.3181
L372.25 21.3181" style="fill:none;stroke:#000000;stroke-linecap:square;stroke-linejoin:miter;"/>
   </g>
   <g id="patch_4">
    <path d="
M372.25 244.518
L372.25 21.3181" style="fill:none;stroke:#000000;stroke-linecap:square;stroke-linejoin:miter;"/>
   </g>
   <g id="patch_5">
    <path d="
M37.45 244.518
L372.25 244.518" style="fill:none;stroke:#000000;stroke-linecap:square;stroke-linejoin:miter;"/>
   </g>
   <g id="patch_6">
    <path d="
M37.45 244.518
L37.45 21.3181" style="fill:none;stroke:#000000;stroke-linecap:square;stroke-linejoin:miter;"/>
   </g>
   <g id="matplotlib.axis_1">
    <g id="xtick_1">
     <g id="line2d_9">
      <defs>
       <path d="
M0 0
L0 -4" id="mc7db9fdffb" style="stroke:#000000;stroke-width:0.5;"/>
      </defs>
      <g>
       <use style="stroke:#000000;stroke-width:0.5;" x="37.45" xlink:href="#mc7db9fdffb" y="244.518125"/>
      </g>
     </g>
     <g id="line2d_10">
      <defs>
       <path d="
M0 0
L0 4" id="m5a7d422ac3" style="stroke:#000000;stroke-width:0.5;"/>
      </defs>
      <g>
       <use style="stroke:#000000;stroke-width:0.5;" x="37.45" xlink:href="#m5a7d422ac3" y="21.318125"/>
      </g>
     </g>
     <g id="text_1">
      <!-- 0 -->
      <defs>
       <path d="
M31.7812 66.4062
Q24.1719 66.4062 20.3281 58.9062
Q16.5 51.4219 16.5 36.375
Q16.5 21.3906 20.3281 13.8906
Q24.1719 6.39062 31.7812 6.39062
Q39.4531 6.39062 43.2812 13.8906
Q47.125 21.3906 47.125 36.375
Q47.125 51.4219 43.2812 58.9062
Q39.4531 66.4062 31.7812 66.4062
M31.7812 74.2188
Q44.0469 74.2188 50.5156 64.5156
Q56.9844 54.8281 56.9844 36.375
Q56.9844 17.9688 50.5156 8.26562
Q44.0469 -1.42188 31.7812 -1.42188
Q19.5312 -1.42188 13.0625 8.26562
Q6.59375 17.9688 6.59375 36.375
Q6.59375 54.8281 13.0625 64.5156
Q19.5312 74.2188 31.7812 74.2188" id="BitstreamVeraSans-Roman-30"/>
      </defs>
      <g transform="translate(34.93046875 256.1165625)scale(0.1 -0.1)">
       <use xlink:href="#BitstreamVeraSans-Roman-30"/>
      </g>
     </g>
    </g>
    <g id="xtick_2">
     <g id="line2d_11">
      <g>
       <use style="stroke:#000000;stroke-width:0.5;" x="83.3130136986" xlink:href="#mc7db9fdffb" y="244.518125"/>
      </g>
     </g>
     <g id="line2d_12">
      <g>
       <use style="stroke:#000000;stroke-width:0.5;" x="83.3130136986" xlink:href="#m5a7d422ac3" y="21.318125"/>
      </g>
     </g>
     <g id="text_2">
      <!-- 50 -->
      <defs>
       <path d="
M10.7969 72.9062
L49.5156 72.9062
L49.5156 64.5938
L19.8281 64.5938
L19.8281 46.7344
Q21.9688 47.4688 24.1094 47.8281
Q26.2656 48.1875 28.4219 48.1875
Q40.625 48.1875 47.75 41.5
Q54.8906 34.8125 54.8906 23.3906
Q54.8906 11.625 47.5625 5.09375
Q40.2344 -1.42188 26.9062 -1.42188
Q22.3125 -1.42188 17.5469 -0.640625
Q12.7969 0.140625 7.71875 1.70312
L7.71875 11.625
Q12.1094 9.23438 16.7969 8.0625
Q21.4844 6.89062 26.7031 6.89062
Q35.1562 6.89062 40.0781 11.3281
Q45.0156 15.7656 45.0156 23.3906
Q45.0156 31 40.0781 35.4375
Q35.1562 39.8906 26.7031 39.8906
Q22.75 39.8906 18.8125 39.0156
Q14.8906 38.1406 10.7969 36.2812
z
" id="BitstreamVeraSans-Roman-35"/>
      </defs>
      <g transform="translate(77.6684824486 256.1165625)scale(0.1 -0.1)">
       <use xlink:href="#BitstreamVeraSans-Roman-35"/>
       <use x="63.623046875" xlink:href="#BitstreamVeraSans-Roman-30"/>
      </g>
     </g>
    </g>
    <g id="xtick_3">
     <g id="line2d_13">
      <g>
       <use style="stroke:#000000;stroke-width:0.5;" x="129.176027397" xlink:href="#mc7db9fdffb" y="244.518125"/>
      </g>
     </g>
     <g id="line2d_14">
      <g>
       <use style="stroke:#000000;stroke-width:0.5;" x="129.176027397" xlink:href="#m5a7d422ac3" y="21.318125"/>
      </g>
     </g>
     <g id="text_3">
      <!-- 100 -->
      <defs>
       <path d="
M12.4062 8.29688
L28.5156 8.29688
L28.5156 63.9219
L10.9844 60.4062
L10.9844 69.3906
L28.4219 72.9062
L38.2812 72.9062
L38.2812 8.29688
L54.3906 8.29688
L54.3906 0
L12.4062 0
z
" id="BitstreamVeraSans-Roman-31"/>
      </defs>
      <g transform="translate(120.513527397 256.1165625)scale(0.1 -0.1)">
       <use xlink:href="#BitstreamVeraSans-Roman-31"/>
       <use x="63.623046875" xlink:href="#BitstreamVeraSans-Roman-30"/>
       <use x="127.24609375" xlink:href="#BitstreamVeraSans-Roman-30"/>
      </g>
     </g>
    </g>
    <g id="xtick_4">
     <g id="line2d_15">
      <g>
       <use style="stroke:#000000;stroke-width:0.5;" x="175.039041096" xlink:href="#mc7db9fdffb" y="244.518125"/>
      </g>
     </g>
     <g id="line2d_16">
      <g>
       <use style="stroke:#000000;stroke-width:0.5;" x="175.039041096" xlink:href="#m5a7d422ac3" y="21.318125"/>
      </g>
     </g>
     <g id="text_4">
      <!-- 150 -->
      <g transform="translate(166.376541096 256.1165625)scale(0.1 -0.1)">
       <use xlink:href="#BitstreamVeraSans-Roman-31"/>
       <use x="63.623046875" xlink:href="#BitstreamVeraSans-Roman-35"/>
       <use x="127.24609375" xlink:href="#BitstreamVeraSans-Roman-30"/>
      </g>
     </g>
    </g>
    <g id="xtick_5">
     <g id="line2d_17">
      <g>
       <use style="stroke:#000000;stroke-width:0.5;" x="220.902054795" xlink:href="#mc7db9fdffb" y="244.518125"/>
      </g>
     </g>
     <g id="line2d_18">
      <g>
       <use style="stroke:#000000;stroke-width:0.5;" x="220.902054795" xlink:href="#m5a7d422ac3" y="21.318125"/>
      </g>
     </g>
     <g id="text_5">
      <!-- 200 -->
      <defs>
       <path d="
M19.1875 8.29688
L53.6094 8.29688
L53.6094 0
L7.32812 0
L7.32812 8.29688
Q12.9375 14.1094 22.625 23.8906
Q32.3281 33.6875 34.8125 36.5312
Q39.5469 41.8438 41.4219 45.5312
Q43.3125 49.2188 43.3125 52.7812
Q43.3125 58.5938 39.2344 62.25
Q35.1562 65.9219 28.6094 65.9219
Q23.9688 65.9219 18.8125 64.3125
Q13.6719 62.7031 7.8125 59.4219
L7.8125 69.3906
Q13.7656 71.7812 18.9375 73
Q24.125 74.2188 28.4219 74.2188
Q39.75 74.2188 46.4844 68.5469
Q53.2188 62.8906 53.2188 53.4219
Q53.2188 48.9219 51.5312 44.8906
Q49.8594 40.875 45.4062 35.4062
Q44.1875 33.9844 37.6406 27.2188
Q31.1094 20.4531 19.1875 8.29688" id="BitstreamVeraSans-Roman-32"/>
      </defs>
      <g transform="translate(212.056742295 256.1165625)scale(0.1 -0.1)">
       <use xlink:href="#BitstreamVeraSans-Roman-32"/>
       <use x="63.623046875" xlink:href="#BitstreamVeraSans-Roman-30"/>
       <use x="127.24609375" xlink:href="#BitstreamVeraSans-Roman-30"/>
      </g>
     </g>
    </g>
    <g id="xtick_6">
     <g id="line2d_19">
      <g>
       <use style="stroke:#000000;stroke-width:0.5;" x="266.765068493" xlink:href="#mc7db9fdffb" y="244.518125"/>
      </g>
     </g>
     <g id="line2d_20">
      <g>
       <use style="stroke:#000000;stroke-width:0.5;" x="266.765068493" xlink:href="#m5a7d422ac3" y="21.318125"/>
      </g>
     </g>
     <g id="text_6">
      <!-- 250 -->
      <g transform="translate(257.919755993 256.1165625)scale(0.1 -0.1)">
       <use xlink:href="#BitstreamVeraSans-Roman-32"/>
       <use x="63.623046875" xlink:href="#BitstreamVeraSans-Roman-35"/>
       <use x="127.24609375" xlink:href="#BitstreamVeraSans-Roman-30"/>
      </g>
     </g>
    </g>
    <g id="xtick_7">
     <g id="line2d_21">
      <g>
       <use style="stroke:#000000;stroke-width:0.5;" x="312.628082192" xlink:href="#mc7db9fdffb" y="244.518125"/>
      </g>
     </g>
     <g id="line2d_22">
      <g>
       <use style="stroke:#000000;stroke-width:0.5;" x="312.628082192" xlink:href="#m5a7d422ac3" y="21.318125"/>
      </g>
     </g>
     <g id="text_7">
      <!-- 300 -->
      <defs>
       <path d="
M40.5781 39.3125
Q47.6562 37.7969 51.625 33
Q55.6094 28.2188 55.6094 21.1875
Q55.6094 10.4062 48.1875 4.48438
Q40.7656 -1.42188 27.0938 -1.42188
Q22.5156 -1.42188 17.6562 -0.515625
Q12.7969 0.390625 7.625 2.20312
L7.625 11.7188
Q11.7188 9.32812 16.5938 8.10938
Q21.4844 6.89062 26.8125 6.89062
Q36.0781 6.89062 40.9375 10.5469
Q45.7969 14.2031 45.7969 21.1875
Q45.7969 27.6406 41.2812 31.2656
Q36.7656 34.9062 28.7188 34.9062
L20.2188 34.9062
L20.2188 43.0156
L29.1094 43.0156
Q36.375 43.0156 40.2344 45.9219
Q44.0938 48.8281 44.0938 54.2969
Q44.0938 59.9062 40.1094 62.9062
Q36.1406 65.9219 28.7188 65.9219
Q24.6562 65.9219 20.0156 65.0312
Q15.375 64.1562 9.8125 62.3125
L9.8125 71.0938
Q15.4375 72.6562 20.3438 73.4375
Q25.25 74.2188 29.5938 74.2188
Q40.8281 74.2188 47.3594 69.1094
Q53.9062 64.0156 53.9062 55.3281
Q53.9062 49.2656 50.4375 45.0938
Q46.9688 40.9219 40.5781 39.3125" id="BitstreamVeraSans-Roman-33"/>
      </defs>
      <g transform="translate(303.797613442 256.1165625)scale(0.1 -0.1)">
       <use xlink:href="#BitstreamVeraSans-Roman-33"/>
       <use x="63.623046875" xlink:href="#BitstreamVeraSans-Roman-30"/>
       <use x="127.24609375" xlink:href="#BitstreamVeraSans-Roman-30"/>
      </g>
     </g>
    </g>
    <g id="xtick_8">
     <g id="line2d_23">
      <g>
       <use style="stroke:#000000;stroke-width:0.5;" x="358.49109589" xlink:href="#mc7db9fdffb" y="244.518125"/>
      </g>
     </g>
     <g id="line2d_24">
      <g>
       <use style="stroke:#000000;stroke-width:0.5;" x="358.49109589" xlink:href="#m5a7d422ac3" y="21.318125"/>
      </g>
     </g>
     <g id="text_8">
      <!-- 350 -->
      <g transform="translate(349.66062714 256.1165625)scale(0.1 -0.1)">
       <use xlink:href="#BitstreamVeraSans-Roman-33"/>
       <use x="63.623046875" xlink:href="#BitstreamVeraSans-Roman-35"/>
       <use x="127.24609375" xlink:href="#BitstreamVeraSans-Roman-30"/>
      </g>
     </g>
    </g>
    <g id="text_9">
     <!-- Julian day -->
     <defs>
      <path d="
M32.1719 -5.07812
Q28.375 -14.8438 24.75 -17.8125
Q21.1406 -20.7969 15.0938 -20.7969
L7.90625 -20.7969
L7.90625 -13.2812
L13.1875 -13.2812
Q16.8906 -13.2812 18.9375 -11.5156
Q21 -9.76562 23.4844 -3.21875
L25.0938 0.875
L2.98438 54.6875
L12.5 54.6875
L29.5938 11.9219
L46.6875 54.6875
L56.2031 54.6875
z
" id="BitstreamVeraSans-Roman-79"/>
      <path d="
M8.5 21.5781
L8.5 54.6875
L17.4844 54.6875
L17.4844 21.9219
Q17.4844 14.1562 20.5 10.2656
Q23.5312 6.39062 29.5938 6.39062
Q36.8594 6.39062 41.0781 11.0312
Q45.3125 15.6719 45.3125 23.6875
L45.3125 54.6875
L54.2969 54.6875
L54.2969 0
L45.3125 0
L45.3125 8.40625
Q42.0469 3.42188 37.7188 1
Q33.4062 -1.42188 27.6875 -1.42188
Q18.2656 -1.42188 13.375 4.4375
Q8.5 10.2969 8.5 21.5781" id="BitstreamVeraSans-Roman-75"/>
      <path d="
M9.42188 75.9844
L18.4062 75.9844
L18.4062 0
L9.42188 0
z
" id="BitstreamVeraSans-Roman-6c"/>
      <path id="BitstreamVeraSans-Roman-20"/>
      <path d="
M54.8906 33.0156
L54.8906 0
L45.9062 0
L45.9062 32.7188
Q45.9062 40.4844 42.875 44.3281
Q39.8438 48.1875 33.7969 48.1875
Q26.5156 48.1875 22.3125 43.5469
Q18.1094 38.9219 18.1094 30.9062
L18.1094 0
L9.07812 0
L9.07812 54.6875
L18.1094 54.6875
L18.1094 46.1875
Q21.3438 51.125 25.7031 53.5625
Q30.0781 56 35.7969 56
Q45.2188 56 50.0469 50.1719
Q54.8906 44.3438 54.8906 33.0156" id="BitstreamVeraSans-Roman-6e"/>
      <path d="
M9.42188 54.6875
L18.4062 54.6875
L18.4062 0
L9.42188 0
z

M9.42188 75.9844
L18.4062 75.9844
L18.4062 64.5938
L9.42188 64.5938
z
" id="BitstreamVeraSans-Roman-69"/>
      <path d="
M34.2812 27.4844
Q23.3906 27.4844 19.1875 25
Q14.9844 22.5156 14.9844 16.5
Q14.9844 11.7188 18.1406 8.90625
Q21.2969 6.10938 26.7031 6.10938
Q34.1875 6.10938 38.7031 11.4062
Q43.2188 16.7031 43.2188 25.4844
L43.2188 27.4844
z

M52.2031 31.2031
L52.2031 0
L43.2188 0
L43.2188 8.29688
Q40.1406 3.32812 35.5469 0.953125
Q30.9531 -1.42188 24.3125 -1.42188
Q15.9219 -1.42188 10.9531 3.29688
Q6 8.01562 6 15.9219
Q6 25.1406 12.1719 29.8281
Q18.3594 34.5156 30.6094 34.5156
L43.2188 34.5156
L43.2188 35.4062
Q43.2188 41.6094 39.1406 45
Q35.0625 48.3906 27.6875 48.3906
Q23 48.3906 18.5469 47.2656
Q14.1094 46.1406 10.0156 43.8906
L10.0156 52.2031
Q14.9375 54.1094 19.5781 55.0469
Q24.2188 56 28.6094 56
Q40.4844 56 46.3438 49.8438
Q52.2031 43.7031 52.2031 31.2031" id="BitstreamVeraSans-Roman-61"/>
      <path d="
M45.4062 46.3906
L45.4062 75.9844
L54.3906 75.9844
L54.3906 0
L45.4062 0
L45.4062 8.20312
Q42.5781 3.32812 38.25 0.953125
Q33.9375 -1.42188 27.875 -1.42188
Q17.9688 -1.42188 11.7344 6.48438
Q5.51562 14.4062 5.51562 27.2969
Q5.51562 40.1875 11.7344 48.0938
Q17.9688 56 27.875 56
Q33.9375 56 38.25 53.625
Q42.5781 51.2656 45.4062 46.3906
M14.7969 27.2969
Q14.7969 17.3906 18.875 11.75
Q22.9531 6.10938 30.0781 6.10938
Q37.2031 6.10938 41.2969 11.75
Q45.4062 17.3906 45.4062 27.2969
Q45.4062 37.2031 41.2969 42.8438
Q37.2031 48.4844 30.0781 48.4844
Q22.9531 48.4844 18.875 42.8438
Q14.7969 37.2031 14.7969 27.2969" id="BitstreamVeraSans-Roman-64"/>
      <path d="
M9.8125 72.9062
L19.6719 72.9062
L19.6719 5.07812
Q19.6719 -8.10938 14.6719 -14.0625
Q9.67188 -20.0156 -1.42188 -20.0156
L-5.17188 -20.0156
L-5.17188 -11.7188
L-2.09375 -11.7188
Q4.4375 -11.7188 7.125 -8.04688
Q9.8125 -4.39062 9.8125 5.07812
z
" id="BitstreamVeraSans-Roman-4a"/>
     </defs>
     <g transform="translate(180.29921875 270.7946875)scale(0.1 -0.1)">
      <use xlink:href="#BitstreamVeraSans-Roman-4a"/>
      <use x="29.4921875" xlink:href="#BitstreamVeraSans-Roman-75"/>
      <use x="92.87109375" xlink:href="#BitstreamVeraSans-Roman-6c"/>
      <use x="120.654296875" xlink:href="#BitstreamVeraSans-Roman-69"/>
      <use x="148.4375" xlink:href="#BitstreamVeraSans-Roman-61"/>
      <use x="209.716796875" xlink:href="#BitstreamVeraSans-Roman-6e"/>
      <use x="273.095703125" xlink:href="#BitstreamVeraSans-Roman-20"/>
      <use x="304.8828125" xlink:href="#BitstreamVeraSans-Roman-64"/>
      <use x="368.359375" xlink:href="#BitstreamVeraSans-Roman-61"/>
      <use x="429.638671875" xlink:href="#BitstreamVeraSans-Roman-79"/>
     </g>
    </g>
   </g>
   <g id="matplotlib.axis_2">
    <g id="ytick_1">
     <g id="line2d_25">
      <defs>
       <path d="
M0 0
L4 0" id="md7965d1ba0" style="stroke:#000000;stroke-width:0.5;"/>
      </defs>
      <g>
       <use style="stroke:#000000;stroke-width:0.5;" x="37.45" xlink:href="#md7965d1ba0" y="244.518125"/>
      </g>
     </g>
     <g id="line2d_26">
      <defs>
       <path d="
M0 0
L-4 0" id="md9a1c1a7cd" style="stroke:#000000;stroke-width:0.5;"/>
      </defs>
      <g>
       <use style="stroke:#000000;stroke-width:0.5;" x="372.25" xlink:href="#md9a1c1a7cd" y="244.518125"/>
      </g>
     </g>
     <g id="text_10">
      <!-- 0 -->
      <g transform="translate(28.4109375 247.2775)scale(0.1 -0.1)">
       <use xlink:href="#BitstreamVeraSans-Roman-30"/>
      </g>
     </g>
    </g>
    <g id="ytick_2">
     <g id="line2d_27">
      <g>
       <use style="stroke:#000000;stroke-width:0.5;" x="37.45" xlink:href="#md7965d1ba0" y="219.718125"/>
      </g>
     </g>
     <g id="line2d_28">
      <g>
       <use style="stroke:#000000;stroke-width:0.5;" x="372.25" xlink:href="#md9a1c1a7cd" y="219.718125"/>
      </g>
     </g>
     <g id="text_11">
      <!-- 10 -->
      <g transform="translate(22.4875 222.4775)scale(0.1 -0.1)">
       <use xlink:href="#BitstreamVeraSans-Roman-31"/>
       <use x="63.623046875" xlink:href="#BitstreamVeraSans-Roman-30"/>
      </g>
     </g>
    </g>
    <g id="ytick_3">
     <g id="line2d_29">
      <g>
       <use style="stroke:#000000;stroke-width:0.5;" x="37.45" xlink:href="#md7965d1ba0" y="194.918125"/>
      </g>
     </g>
     <g id="line2d_30">
      <g>
       <use style="stroke:#000000;stroke-width:0.5;" x="372.25" xlink:href="#md9a1c1a7cd" y="194.918125"/>
      </g>
     </g>
     <g id="text_12">
      <!-- 20 -->
      <g transform="translate(22.121875 197.6775)scale(0.1 -0.1)">
       <use xlink:href="#BitstreamVeraSans-Roman-32"/>
       <use x="63.623046875" xlink:href="#BitstreamVeraSans-Roman-30"/>
      </g>
     </g>
    </g>
    <g id="ytick_4">
     <g id="line2d_31">
      <g>
       <use style="stroke:#000000;stroke-width:0.5;" x="37.45" xlink:href="#md7965d1ba0" y="170.118125"/>
      </g>
     </g>
     <g id="line2d_32">
      <g>
       <use style="stroke:#000000;stroke-width:0.5;" x="372.25" xlink:href="#md9a1c1a7cd" y="170.118125"/>
      </g>
     </g>
     <g id="text_13">
      <!-- 30 -->
      <g transform="translate(22.1515625 172.8775)scale(0.1 -0.1)">
       <use xlink:href="#BitstreamVeraSans-Roman-33"/>
       <use x="63.623046875" xlink:href="#BitstreamVeraSans-Roman-30"/>
      </g>
     </g>
    </g>
    <g id="ytick_5">
     <g id="line2d_33">
      <g>
       <use style="stroke:#000000;stroke-width:0.5;" x="37.45" xlink:href="#md7965d1ba0" y="145.318125"/>
      </g>
     </g>
     <g id="line2d_34">
      <g>
       <use style="stroke:#000000;stroke-width:0.5;" x="372.25" xlink:href="#md9a1c1a7cd" y="145.318125"/>
      </g>
     </g>
     <g id="text_14">
      <!-- 40 -->
      <defs>
       <path d="
M37.7969 64.3125
L12.8906 25.3906
L37.7969 25.3906
z

M35.2031 72.9062
L47.6094 72.9062
L47.6094 25.3906
L58.0156 25.3906
L58.0156 17.1875
L47.6094 17.1875
L47.6094 0
L37.7969 0
L37.7969 17.1875
L4.89062 17.1875
L4.89062 26.7031
z
" id="BitstreamVeraSans-Roman-34"/>
      </defs>
      <g transform="translate(21.878125 148.0775)scale(0.1 -0.1)">
       <use xlink:href="#BitstreamVeraSans-Roman-34"/>
       <use x="63.623046875" xlink:href="#BitstreamVeraSans-Roman-30"/>
      </g>
     </g>
    </g>
    <g id="ytick_6">
     <g id="line2d_35">
      <g>
       <use style="stroke:#000000;stroke-width:0.5;" x="37.45" xlink:href="#md7965d1ba0" y="120.518125"/>
      </g>
     </g>
     <g id="line2d_36">
      <g>
       <use style="stroke:#000000;stroke-width:0.5;" x="372.25" xlink:href="#md9a1c1a7cd" y="120.518125"/>
      </g>
     </g>
     <g id="text_15">
      <!-- 50 -->
      <g transform="translate(22.1609375 123.2775)scale(0.1 -0.1)">
       <use xlink:href="#BitstreamVeraSans-Roman-35"/>
       <use x="63.623046875" xlink:href="#BitstreamVeraSans-Roman-30"/>
      </g>
     </g>
    </g>
    <g id="ytick_7">
     <g id="line2d_37">
      <g>
       <use style="stroke:#000000;stroke-width:0.5;" x="37.45" xlink:href="#md7965d1ba0" y="95.718125"/>
      </g>
     </g>
     <g id="line2d_38">
      <g>
       <use style="stroke:#000000;stroke-width:0.5;" x="372.25" xlink:href="#md9a1c1a7cd" y="95.718125"/>
      </g>
     </g>
     <g id="text_16">
      <!-- 60 -->
      <defs>
       <path d="
M33.0156 40.375
Q26.375 40.375 22.4844 35.8281
Q18.6094 31.2969 18.6094 23.3906
Q18.6094 15.5312 22.4844 10.9531
Q26.375 6.39062 33.0156 6.39062
Q39.6562 6.39062 43.5312 10.9531
Q47.4062 15.5312 47.4062 23.3906
Q47.4062 31.2969 43.5312 35.8281
Q39.6562 40.375 33.0156 40.375
M52.5938 71.2969
L52.5938 62.3125
Q48.875 64.0625 45.0938 64.9844
Q41.3125 65.9219 37.5938 65.9219
Q27.8281 65.9219 22.6719 59.3281
Q17.5312 52.7344 16.7969 39.4062
Q19.6719 43.6562 24.0156 45.9219
Q28.375 48.1875 33.5938 48.1875
Q44.5781 48.1875 50.9531 41.5156
Q57.3281 34.8594 57.3281 23.3906
Q57.3281 12.1562 50.6875 5.35938
Q44.0469 -1.42188 33.0156 -1.42188
Q20.3594 -1.42188 13.6719 8.26562
Q6.98438 17.9688 6.98438 36.375
Q6.98438 53.6562 15.1875 63.9375
Q23.3906 74.2188 37.2031 74.2188
Q40.9219 74.2188 44.7031 73.4844
Q48.4844 72.75 52.5938 71.2969" id="BitstreamVeraSans-Roman-36"/>
      </defs>
      <g transform="translate(22.0875 98.4775)scale(0.1 -0.1)">
       <use xlink:href="#BitstreamVeraSans-Roman-36"/>
       <use x="63.623046875" xlink:href="#BitstreamVeraSans-Roman-30"/>
      </g>
     </g>
    </g>
    <g id="ytick_8">
     <g id="line2d_39">
      <g>
       <use style="stroke:#000000;stroke-width:0.5;" x="37.45" xlink:href="#md7965d1ba0" y="70.918125"/>
      </g>
     </g>
     <g id="line2d_40">
      <g>
       <use style="stroke:#000000;stroke-width:0.5;" x="372.25" xlink:href="#md9a1c1a7cd" y="70.918125"/>
      </g>
     </g>
     <g id="text_17">
      <!-- 70 -->
      <defs>
       <path d="
M8.20312 72.9062
L55.0781 72.9062
L55.0781 68.7031
L28.6094 0
L18.3125 0
L43.2188 64.5938
L8.20312 64.5938
z
" id="BitstreamVeraSans-Roman-37"/>
      </defs>
      <g transform="translate(22.209375 73.6775)scale(0.1 -0.1)">
       <use xlink:href="#BitstreamVeraSans-Roman-37"/>
       <use x="63.623046875" xlink:href="#BitstreamVeraSans-Roman-30"/>
      </g>
     </g>
    </g>
    <g id="ytick_9">
     <g id="line2d_41">
      <g>
       <use style="stroke:#000000;stroke-width:0.5;" x="37.45" xlink:href="#md7965d1ba0" y="46.118125"/>
      </g>
     </g>
     <g id="line2d_42">
      <g>
       <use style="stroke:#000000;stroke-width:0.5;" x="372.25" xlink:href="#md9a1c1a7cd" y="46.118125"/>
      </g>
     </g>
     <g id="text_18">
      <!-- 80 -->
      <defs>
       <path d="
M31.7812 34.625
Q24.75 34.625 20.7188 30.8594
Q16.7031 27.0938 16.7031 20.5156
Q16.7031 13.9219 20.7188 10.1562
Q24.75 6.39062 31.7812 6.39062
Q38.8125 6.39062 42.8594 10.1719
Q46.9219 13.9688 46.9219 20.5156
Q46.9219 27.0938 42.8906 30.8594
Q38.875 34.625 31.7812 34.625
M21.9219 38.8125
Q15.5781 40.375 12.0312 44.7188
Q8.5 49.0781 8.5 55.3281
Q8.5 64.0625 14.7188 69.1406
Q20.9531 74.2188 31.7812 74.2188
Q42.6719 74.2188 48.875 69.1406
Q55.0781 64.0625 55.0781 55.3281
Q55.0781 49.0781 51.5312 44.7188
Q48 40.375 41.7031 38.8125
Q48.8281 37.1562 52.7969 32.3125
Q56.7812 27.4844 56.7812 20.5156
Q56.7812 9.90625 50.3125 4.23438
Q43.8438 -1.42188 31.7812 -1.42188
Q19.7344 -1.42188 13.25 4.23438
Q6.78125 9.90625 6.78125 20.5156
Q6.78125 27.4844 10.7812 32.3125
Q14.7969 37.1562 21.9219 38.8125
M18.3125 54.3906
Q18.3125 48.7344 21.8438 45.5625
Q25.3906 42.3906 31.7812 42.3906
Q38.1406 42.3906 41.7188 45.5625
Q45.3125 48.7344 45.3125 54.3906
Q45.3125 60.0625 41.7188 63.2344
Q38.1406 66.4062 31.7812 66.4062
Q25.3906 66.4062 21.8438 63.2344
Q18.3125 60.0625 18.3125 54.3906" id="BitstreamVeraSans-Roman-38"/>
      </defs>
      <g transform="translate(22.0671875 48.8775)scale(0.1 -0.1)">
       <use xlink:href="#BitstreamVeraSans-Roman-38"/>
       <use x="63.623046875" xlink:href="#BitstreamVeraSans-Roman-30"/>
      </g>
     </g>
    </g>
    <g id="ytick_10">
     <g id="line2d_43">
      <g>
       <use style="stroke:#000000;stroke-width:0.5;" x="37.45" xlink:href="#md7965d1ba0" y="21.318125"/>
      </g>
     </g>
     <g id="line2d_44">
      <g>
       <use style="stroke:#000000;stroke-width:0.5;" x="372.25" xlink:href="#md9a1c1a7cd" y="21.318125"/>
      </g>
     </g>
     <g id="text_19">
      <!-- 90 -->
      <defs>
       <path d="
M10.9844 1.51562
L10.9844 10.5
Q14.7031 8.73438 18.5 7.8125
Q22.3125 6.89062 25.9844 6.89062
Q35.75 6.89062 40.8906 13.4531
Q46.0469 20.0156 46.7812 33.4062
Q43.9531 29.2031 39.5938 26.9531
Q35.25 24.7031 29.9844 24.7031
Q19.0469 24.7031 12.6719 31.3125
Q6.29688 37.9375 6.29688 49.4219
Q6.29688 60.6406 12.9375 67.4219
Q19.5781 74.2188 30.6094 74.2188
Q43.2656 74.2188 49.9219 64.5156
Q56.5938 54.8281 56.5938 36.375
Q56.5938 19.1406 48.4062 8.85938
Q40.2344 -1.42188 26.4219 -1.42188
Q22.7031 -1.42188 18.8906 -0.6875
Q15.0938 0.046875 10.9844 1.51562
M30.6094 32.4219
Q37.25 32.4219 41.125 36.9531
Q45.0156 41.5 45.0156 49.4219
Q45.0156 57.2812 41.125 61.8438
Q37.25 66.4062 30.6094 66.4062
Q23.9688 66.4062 20.0938 61.8438
Q16.2188 57.2812 16.2188 49.4219
Q16.2188 41.5 20.0938 36.9531
Q23.9688 32.4219 30.6094 32.4219" id="BitstreamVeraSans-Roman-39"/>
      </defs>
      <g transform="translate(22.01875 24.0775)scale(0.1 -0.1)">
       <use xlink:href="#BitstreamVeraSans-Roman-39"/>
       <use x="63.623046875" xlink:href="#BitstreamVeraSans-Roman-30"/>
      </g>
     </g>
    </g>
    <g id="text_20">
     <!-- PET (mm/day) -->
     <defs>
      <path d="
M8.01562 75.875
L15.8281 75.875
Q23.1406 64.3594 26.7812 53.3125
Q30.4219 42.2812 30.4219 31.3906
Q30.4219 20.4531 26.7812 9.375
Q23.1406 -1.70312 15.8281 -13.1875
L8.01562 -13.1875
Q14.5 -2 17.7031 9.0625
Q20.9062 20.125 20.9062 31.3906
Q20.9062 42.6719 17.7031 53.6562
Q14.5 64.6562 8.01562 75.875" id="BitstreamVeraSans-Roman-29"/>
      <path d="
M52 44.1875
Q55.375 50.25 60.0625 53.125
Q64.75 56 71.0938 56
Q79.6406 56 84.2812 50.0156
Q88.9219 44.0469 88.9219 33.0156
L88.9219 0
L79.8906 0
L79.8906 32.7188
Q79.8906 40.5781 77.0938 44.375
Q74.3125 48.1875 68.6094 48.1875
Q61.625 48.1875 57.5625 43.5469
Q53.5156 38.9219 53.5156 30.9062
L53.5156 0
L44.4844 0
L44.4844 32.7188
Q44.4844 40.625 41.7031 44.4062
Q38.9219 48.1875 33.1094 48.1875
Q26.2188 48.1875 22.1562 43.5312
Q18.1094 38.875 18.1094 30.9062
L18.1094 0
L9.07812 0
L9.07812 54.6875
L18.1094 54.6875
L18.1094 46.1875
Q21.1875 51.2188 25.4844 53.6094
Q29.7812 56 35.6875 56
Q41.6562 56 45.8281 52.9688
Q50 49.9531 52 44.1875" id="BitstreamVeraSans-Roman-6d"/>
      <path d="
M-0.296875 72.9062
L61.375 72.9062
L61.375 64.5938
L35.5 64.5938
L35.5 0
L25.5938 0
L25.5938 64.5938
L-0.296875 64.5938
z
" id="BitstreamVeraSans-Roman-54"/>
      <path d="
M19.6719 64.7969
L19.6719 37.4062
L32.0781 37.4062
Q38.9688 37.4062 42.7188 40.9688
Q46.4844 44.5312 46.4844 51.125
Q46.4844 57.6719 42.7188 61.2344
Q38.9688 64.7969 32.0781 64.7969
z

M9.8125 72.9062
L32.0781 72.9062
Q44.3438 72.9062 50.6094 67.3594
Q56.8906 61.8125 56.8906 51.125
Q56.8906 40.3281 50.6094 34.8125
Q44.3438 29.2969 32.0781 29.2969
L19.6719 29.2969
L19.6719 0
L9.8125 0
z
" id="BitstreamVeraSans-Roman-50"/>
      <path d="
M9.8125 72.9062
L55.9062 72.9062
L55.9062 64.5938
L19.6719 64.5938
L19.6719 43.0156
L54.3906 43.0156
L54.3906 34.7188
L19.6719 34.7188
L19.6719 8.29688
L56.7812 8.29688
L56.7812 0
L9.8125 0
z
" id="BitstreamVeraSans-Roman-45"/>
      <path d="
M31 75.875
Q24.4688 64.6562 21.2812 53.6562
Q18.1094 42.6719 18.1094 31.3906
Q18.1094 20.125 21.3125 9.0625
Q24.5156 -2 31 -13.1875
L23.1875 -13.1875
Q15.875 -1.70312 12.2344 9.375
Q8.59375 20.4531 8.59375 31.3906
Q8.59375 42.2812 12.2031 53.3125
Q15.8281 64.3594 23.1875 75.875
z
" id="BitstreamVeraSans-Roman-28"/>
      <path d="
M25.3906 72.9062
L33.6875 72.9062
L8.29688 -9.28125
L0 -9.28125
z
" id="BitstreamVeraSans-Roman-2f"/>
     </defs>
     <g transform="translate(14.7984375 167.82984375)rotate(-90.0)scale(0.1 -0.1)">
      <use xlink:href="#BitstreamVeraSans-Roman-50"/>
      <use x="60.302734375" xlink:href="#BitstreamVeraSans-Roman-45"/>
      <use x="123.486328125" xlink:href="#BitstreamVeraSans-Roman-54"/>
      <use x="184.5703125" xlink:href="#BitstreamVeraSans-Roman-20"/>
      <use x="216.357421875" xlink:href="#BitstreamVeraSans-Roman-28"/>
      <use x="255.37109375" xlink:href="#BitstreamVeraSans-Roman-6d"/>
      <use x="352.783203125" xlink:href="#BitstreamVeraSans-Roman-6d"/>
      <use x="450.1953125" xlink:href="#BitstreamVeraSans-Roman-2f"/>
      <use x="483.88671875" xlink:href="#BitstreamVeraSans-Roman-64"/>
      <use x="547.36328125" xlink:href="#BitstreamVeraSans-Roman-61"/>
      <use x="608.642578125" xlink:href="#BitstreamVeraSans-Roman-79"/>
      <use x="667.822265625" xlink:href="#BitstreamVeraSans-Roman-29"/>
     </g>
    </g>
   </g>
   <g id="text_21">
    <!-- daily grass PET at LDP -->
    <defs>
     <path d="
M19.6719 64.7969
L19.6719 8.10938
L31.5938 8.10938
Q46.6875 8.10938 53.6875 14.9375
Q60.6875 21.7812 60.6875 36.5312
Q60.6875 51.1719 53.6875 57.9844
Q46.6875 64.7969 31.5938 64.7969
z

M9.8125 72.9062
L30.0781 72.9062
Q51.2656 72.9062 61.1719 64.0938
Q71.0938 55.2812 71.0938 36.5312
Q71.0938 17.6719 61.125 8.82812
Q51.1719 0 30.0781 0
L9.8125 0
z
" id="BitstreamVeraSans-Roman-44"/>
     <path d="
M41.1094 46.2969
Q39.5938 47.1719 37.8125 47.5781
Q36.0312 48 33.8906 48
Q26.2656 48 22.1875 43.0469
Q18.1094 38.0938 18.1094 28.8125
L18.1094 0
L9.07812 0
L9.07812 54.6875
L18.1094 54.6875
L18.1094 46.1875
Q20.9531 51.1719 25.4844 53.5781
Q30.0312 56 36.5312 56
Q37.4531 56 38.5781 55.875
Q39.7031 55.7656 41.0625 55.5156
z
" id="BitstreamVeraSans-Roman-72"/>
     <path d="
M18.3125 70.2188
L18.3125 54.6875
L36.8125 54.6875
L36.8125 47.7031
L18.3125 47.7031
L18.3125 18.0156
Q18.3125 11.3281 20.1406 9.42188
Q21.9688 7.51562 27.5938 7.51562
L36.8125 7.51562
L36.8125 0
L27.5938 0
Q17.1875 0 13.2344 3.875
Q9.28125 7.76562 9.28125 18.0156
L9.28125 47.7031
L2.6875 47.7031
L2.6875 54.6875
L9.28125 54.6875
L9.28125 70.2188
z
" id="BitstreamVeraSans-Roman-74"/>
     <path d="
M45.4062 27.9844
Q45.4062 37.75 41.375 43.1094
Q37.3594 48.4844 30.0781 48.4844
Q22.8594 48.4844 18.8281 43.1094
Q14.7969 37.75 14.7969 27.9844
Q14.7969 18.2656 18.8281 12.8906
Q22.8594 7.51562 30.0781 7.51562
Q37.3594 7.51562 41.375 12.8906
Q45.4062 18.2656 45.4062 27.9844
M54.3906 6.78125
Q54.3906 -7.17188 48.1875 -13.9844
Q42 -20.7969 29.2031 -20.7969
Q24.4688 -20.7969 20.2656 -20.0938
Q16.0625 -19.3906 12.1094 -17.9219
L12.1094 -9.1875
Q16.0625 -11.3281 19.9219 -12.3438
Q23.7812 -13.375 27.7812 -13.375
Q36.625 -13.375 41.0156 -8.76562
Q45.4062 -4.15625 45.4062 5.17188
L45.4062 9.625
Q42.625 4.78125 38.2812 2.39062
Q33.9375 0 27.875 0
Q17.8281 0 11.6719 7.65625
Q5.51562 15.3281 5.51562 27.9844
Q5.51562 40.6719 11.6719 48.3281
Q17.8281 56 27.875 56
Q33.9375 56 38.2812 53.6094
Q42.625 51.2188 45.4062 46.3906
L45.4062 54.6875
L54.3906 54.6875
z
" id="BitstreamVeraSans-Roman-67"/>
     <path d="
M9.8125 72.9062
L19.6719 72.9062
L19.6719 8.29688
L55.1719 8.29688
L55.1719 0
L9.8125 0
z
" id="BitstreamVeraSans-Roman-4c"/>
     <path d="
M44.2812 53.0781
L44.2812 44.5781
Q40.4844 46.5312 36.375 47.5
Q32.2812 48.4844 27.875 48.4844
Q21.1875 48.4844 17.8438 46.4375
Q14.5 44.3906 14.5 40.2812
Q14.5 37.1562 16.8906 35.375
Q19.2812 33.5938 26.5156 31.9844
L29.5938 31.2969
Q39.1562 29.25 43.1875 25.5156
Q47.2188 21.7812 47.2188 15.0938
Q47.2188 7.46875 41.1875 3.01562
Q35.1562 -1.42188 24.6094 -1.42188
Q20.2188 -1.42188 15.4531 -0.5625
Q10.6875 0.296875 5.42188 2
L5.42188 11.2812
Q10.4062 8.6875 15.2344 7.39062
Q20.0625 6.10938 24.8125 6.10938
Q31.1562 6.10938 34.5625 8.28125
Q37.9844 10.4531 37.9844 14.4062
Q37.9844 18.0625 35.5156 20.0156
Q33.0625 21.9688 24.7031 23.7812
L21.5781 24.5156
Q13.2344 26.2656 9.51562 29.9062
Q5.8125 33.5469 5.8125 39.8906
Q5.8125 47.6094 11.2812 51.7969
Q16.75 56 26.8125 56
Q31.7812 56 36.1719 55.2656
Q40.5781 54.5469 44.2812 53.0781" id="BitstreamVeraSans-Roman-73"/>
    </defs>
    <g transform="translate(138.1684375 16.318125)scale(0.12 -0.12)">
     <use xlink:href="#BitstreamVeraSans-Roman-64"/>
     <use x="63.4765625" xlink:href="#BitstreamVeraSans-Roman-61"/>
     <use x="124.755859375" xlink:href="#BitstreamVeraSans-Roman-69"/>
     <use x="152.5390625" xlink:href="#BitstreamVeraSans-Roman-6c"/>
     <use x="180.322265625" xlink:href="#BitstreamVeraSans-Roman-79"/>
     <use x="239.501953125" xlink:href="#BitstreamVeraSans-Roman-20"/>
     <use x="271.2890625" xlink:href="#BitstreamVeraSans-Roman-67"/>
     <use x="334.765625" xlink:href="#BitstreamVeraSans-Roman-72"/>
     <use x="375.87890625" xlink:href="#BitstreamVeraSans-Roman-61"/>
     <use x="437.158203125" xlink:href="#BitstreamVeraSans-Roman-73"/>
     <use x="489.2578125" xlink:href="#BitstreamVeraSans-Roman-73"/>
     <use x="541.357421875" xlink:href="#BitstreamVeraSans-Roman-20"/>
     <use x="573.14453125" xlink:href="#BitstreamVeraSans-Roman-50"/>
     <use x="633.447265625" xlink:href="#BitstreamVeraSans-Roman-45"/>
     <use x="696.630859375" xlink:href="#BitstreamVeraSans-Roman-54"/>
     <use x="757.71484375" xlink:href="#BitstreamVeraSans-Roman-20"/>
     <use x="789.501953125" xlink:href="#BitstreamVeraSans-Roman-61"/>
     <use x="850.78125" xlink:href="#BitstreamVeraSans-Roman-74"/>
     <use x="889.990234375" xlink:href="#BitstreamVeraSans-Roman-20"/>
     <use x="921.77734375" xlink:href="#BitstreamVeraSans-Roman-4c"/>
     <use x="977.490234375" xlink:href="#BitstreamVeraSans-Roman-44"/>
     <use x="1054.4921875" xlink:href="#BitstreamVeraSans-Roman-50"/>
    </g>
   </g>
   <g id="legend_1">
    <g id="patch_7">
     <path d="
M294.062 171.828
L366.25 171.828
L366.25 27.3181
L294.062 27.3181
z
" style="fill:#ffffff;stroke:#000000;stroke-linejoin:miter;"/>
    </g>
    <g id="line2d_45">
     <path d="
M302.463 37.0363
L319.262 37.0363" style="fill:none;stroke:#0000ff;stroke-linecap:square;"/>
    </g>
    <g id="line2d_46"/>
    <g id="text_22">
     <!-- 2007 -->
     <g transform="translate(332.4625 41.23625)scale(0.12 -0.12)">
      <use xlink:href="#BitstreamVeraSans-Roman-32"/>
      <use x="63.623046875" xlink:href="#BitstreamVeraSans-Roman-30"/>
      <use x="127.24609375" xlink:href="#BitstreamVeraSans-Roman-30"/>
      <use x="190.869140625" xlink:href="#BitstreamVeraSans-Roman-37"/>
     </g>
    </g>
    <g id="line2d_47">
     <path d="
M302.463 54.65
L319.262 54.65" style="fill:none;stroke:#008000;stroke-linecap:square;"/>
    </g>
    <g id="line2d_48"/>
    <g id="text_23">
     <!-- 2008 -->
     <g transform="translate(332.4625 58.85)scale(0.12 -0.12)">
      <use xlink:href="#BitstreamVeraSans-Roman-32"/>
      <use x="63.623046875" xlink:href="#BitstreamVeraSans-Roman-30"/>
      <use x="127.24609375" xlink:href="#BitstreamVeraSans-Roman-30"/>
      <use x="190.869140625" xlink:href="#BitstreamVeraSans-Roman-38"/>
     </g>
    </g>
    <g id="line2d_49">
     <path d="
M302.463 72.2638
L319.262 72.2638" style="fill:none;stroke:#ff0000;stroke-linecap:square;"/>
    </g>
    <g id="line2d_50"/>
    <g id="text_24">
     <!-- 2009 -->
     <g transform="translate(332.4625 76.46375)scale(0.12 -0.12)">
      <use xlink:href="#BitstreamVeraSans-Roman-32"/>
      <use x="63.623046875" xlink:href="#BitstreamVeraSans-Roman-30"/>
      <use x="127.24609375" xlink:href="#BitstreamVeraSans-Roman-30"/>
      <use x="190.869140625" xlink:href="#BitstreamVeraSans-Roman-39"/>
     </g>
    </g>
    <g id="line2d_51">
     <path d="
M302.463 89.8775
L319.262 89.8775" style="fill:none;stroke:#00bfbf;stroke-linecap:square;"/>
    </g>
    <g id="line2d_52"/>
    <g id="text_25">
     <!-- 2010 -->
     <g transform="translate(332.4625 94.0775)scale(0.12 -0.12)">
      <use xlink:href="#BitstreamVeraSans-Roman-32"/>
      <use x="63.623046875" xlink:href="#BitstreamVeraSans-Roman-30"/>
      <use x="127.24609375" xlink:href="#BitstreamVeraSans-Roman-31"/>
      <use x="190.869140625" xlink:href="#BitstreamVeraSans-Roman-30"/>
     </g>
    </g>
    <g id="line2d_53">
     <path d="
M302.463 107.491
L319.262 107.491" style="fill:none;stroke:#bf00bf;stroke-linecap:square;"/>
    </g>
    <g id="line2d_54"/>
    <g id="text_26">
     <!-- 2011 -->
     <g transform="translate(332.4625 111.69125)scale(0.12 -0.12)">
      <use xlink:href="#BitstreamVeraSans-Roman-32"/>
      <use x="63.623046875" xlink:href="#BitstreamVeraSans-Roman-30"/>
      <use x="127.24609375" xlink:href="#BitstreamVeraSans-Roman-31"/>
      <use x="190.869140625" xlink:href="#BitstreamVeraSans-Roman-31"/>
     </g>
    </g>
    <g id="line2d_55">
     <path d="
M302.463 125.105
L319.262 125.105" style="fill:none;stroke:#bfbf00;stroke-linecap:square;"/>
    </g>
    <g id="line2d_56"/>
    <g id="text_27">
     <!-- 2012 -->
     <g transform="translate(332.4625 129.305)scale(0.12 -0.12)">
      <use xlink:href="#BitstreamVeraSans-Roman-32"/>
      <use x="63.623046875" xlink:href="#BitstreamVeraSans-Roman-30"/>
      <use x="127.24609375" xlink:href="#BitstreamVeraSans-Roman-31"/>
      <use x="190.869140625" xlink:href="#BitstreamVeraSans-Roman-32"/>
     </g>
    </g>
    <g id="line2d_57">
     <path d="
M302.463 142.719
L319.262 142.719" style="fill:none;stroke:#000000;stroke-linecap:square;"/>
    </g>
    <g id="line2d_58"/>
    <g id="text_28">
     <!-- 2013 -->
     <g transform="translate(332.4625 146.91875)scale(0.12 -0.12)">
      <use xlink:href="#BitstreamVeraSans-Roman-32"/>
      <use x="63.623046875" xlink:href="#BitstreamVeraSans-Roman-30"/>
      <use x="127.24609375" xlink:href="#BitstreamVeraSans-Roman-31"/>
      <use x="190.869140625" xlink:href="#BitstreamVeraSans-Roman-33"/>
     </g>
    </g>
    <g id="line2d_59">
     <path d="
M302.463 160.333
L319.262 160.333" style="fill:none;stroke:#0000ff;stroke-linecap:square;"/>
    </g>
    <g id="line2d_60"/>
    <g id="text_29">
     <!-- 2014 -->
     <g transform="translate(332.4625 164.5325)scale(0.12 -0.12)">
      <use xlink:href="#BitstreamVeraSans-Roman-32"/>
      <use x="63.623046875" xlink:href="#BitstreamVeraSans-Roman-30"/>
      <use x="127.24609375" xlink:href="#BitstreamVeraSans-Roman-31"/>
      <use x="190.869140625" xlink:href="#BitstreamVeraSans-Roman-34"/>
     </g>
    </g>
   </g>
  </g>
 </g>
 <defs>
  <clipPath id="p241ef2d1d3">
   <rect height="223.2" width="334.8" x="37.45" y="21.318125"/>
  </clipPath>
 </defs>
</svg>
