<?xml version="1.0" encoding="utf-8" standalone="no"?>
<!DOCTYPE svg PUBLIC "-//W3C//DTD SVG 1.1//EN"
  "http://www.w3.org/Graphics/SVG/1.1/DTD/svg11.dtd">
<!-- Created with matplotlib (http://matplotlib.org/) -->
<svg height="280pt" version="1.1" viewBox="0 0 380 280" width="380pt" xmlns="http://www.w3.org/2000/svg" xmlns:xlink="http://www.w3.org/1999/xlink">
 <defs>
  <style type="text/css">
*{stroke-linecap:butt;stroke-linejoin:round;}
  </style>
 </defs>
 <g id="figure_1">
  <g id="patch_1">
   <path d="
M1.77636e-15 280.074
L380.637 280.074
L380.637 0
L1.77636e-15 0
z
" style="fill:#ffffff;"/>
  </g>
  <g id="axes_1">
   <g id="patch_2">
    <path d="
M38.6375 244.518
L373.438 244.518
L373.438 21.3181
L38.6375 21.3181
z
" style="fill:#ffffff;"/>
   </g>
   <g id="line2d_1">
    <path clip-path="url(#pa986dbe5e9)" d="
M40.472 197.167
L41.3893 115.831
L42.3065 201.146
L43.2238 186.645
L44.1411 188.238
L45.0583 99.7356
L45.9756 126.051
L46.8928 178.853
L47.8101 141.591
L48.7274 154.13
L49.6446 195.031
L50.5619 188.071
L51.4791 107.622
L52.3964 143.952
L53.3137 148.454
L54.2309 197.564
L55.1482 194.353
L56.0654 187.338
L56.9827 174.64
L57.9 151.074
L58.8172 197.014
L59.7345 199.893
L60.6517 196.169
L61.569 196.336
L62.4863 202.396
L63.4035 211.768
L64.3208 180.451
L65.238 160.983
L66.1553 197.874
L67.0726 194.497
L67.9898 178.05
L68.9071 178.052
L69.8243 186.878
L70.7416 192.388
L71.6589 191.296
L72.5761 183.297
L73.4934 183.469
L74.4107 160.315
L75.3279 155.783
L76.2452 194.529
L77.1624 180.586
L78.0797 197.091
L78.997 180.792
L79.9142 209.634
L80.8315 205.848
L81.7487 204.407
L82.666 206.803
L83.5833 181.969
L84.5005 174.346
L85.4178 172.229
L86.335 94.1325
L87.2523 90.9469
L88.1696 168.716
L89.0868 189.974
L90.0041 143.329
L91.8386 175.922
L92.7559 142.409
L93.6731 134.561
L94.5904 167.496
L95.5076 157.265
L96.4249 170.754
L97.3422 156.828
L98.2594 136.852
L99.1767 173.347
L100.094 165.957
L101.011 121.676
L101.928 118.74
L102.846 129.976
L103.763 187.089
L104.68 156.026
L105.598 110.221
L106.515 109.225
L107.432 120.306
L108.349 127.323
L109.267 76.5725
L110.184 88.7675
L111.101 135.586
L112.018 169.486
L112.936 120.342
L113.853 101.939
L115.687 173.131
L116.605 149.076
L117.522 90.247
L119.356 180.19
L120.274 154.606
L121.191 182.401
L122.108 177.333
L123.025 153.493
L123.943 149.866
L124.86 154.072
L125.777 145.58
L126.694 150.517
L127.612 139.357
L128.529 92.2171
L129.446 93.5246
L130.364 94.0579
L131.281 149.55
L132.198 174.995
L133.115 119.995
L134.033 91.2379
L134.95 107.64
L135.867 109.017
L136.784 85.7435
L137.702 72.9345
L138.619 128.768
L139.536 172.233
L140.453 159.249
L141.371 65.4481
L142.288 51.8993
L143.205 46.5212
L144.122 55.3474
L145.04 152.883
L145.957 152.227
L146.874 149.83
L147.791 170.746
L148.709 155.515
L149.626 100.621
L150.543 133.621
L151.461 60.2428
L152.378 72.746
L153.295 102.119
L154.212 22.3294
L155.13 61.9214
L156.047 51.7987
L156.964 136.585
L157.881 98.9978
L158.799 48.4869
L159.716 73.5677
L160.633 51.1287
L161.55 58.246
L162.468 74.4695
L164.302 166.902
L165.219 109.789
L166.137 95.9422
L167.054 97.2775
L167.971 195.753
L168.888 143.292
L170.723 75.3722
L171.64 137.035
L172.558 140.497
L173.475 136.737
L174.392 133.565
L175.309 75.9153
L176.227 151.987
L177.144 150.361
L178.061 178.548
L178.978 117.129
L179.896 183.886
L180.813 128.136
L181.73 169.192
L182.647 107.43
L183.565 90.0345
L184.482 130.239
L185.399 156.7
L186.316 93.5597
L187.234 60.7599
L188.151 67.6327
L189.068 78.458
L189.985 93.9613
L190.903 87.1676
L191.82 111.629
L192.737 54.1632
L193.654 78.5061
L194.572 127.851
L195.489 129.466
L196.406 78.8543
L197.324 73.3593
L198.241 112.431
L199.158 125.616
L200.075 88.4679
L200.993 86.3628
L201.91 99.8751
L202.827 130.337
L203.744 105.006
L204.662 93.8776
L205.579 102.681
L206.496 118.624
L207.413 75.9915
L208.331 82.9352
L209.248 81.872
L210.165 77.496
L211.082 81.7784
L212 92.8725
L213.834 94.239
L214.751 88.9701
L215.669 50.6344
L216.586 68.4741
L217.503 73.785
L218.421 89.7543
L219.338 83.0413
L220.255 82.2855
L221.172 72.7609
L222.09 78.5189
L223.007 71.2657
L223.924 30.4862
L224.841 23.2023
L225.759 41.7486
L226.676 45.7062
L227.593 97.2468
L228.51 43.3287
L229.428 59.743
L230.345 49.6644
L231.262 75
L233.097 33.9065
L234.014 37.1626
L234.931 62.3066
L235.848 92.789
L237.683 109.886
L238.6 95.8333
L239.518 100.887
L240.435 108.259
L241.352 125.889
L242.269 150.989
L243.187 117.388
L244.104 94.6206
L245.021 100.001
L245.938 91.0204
L246.856 94.3277
L247.773 93.6246
L248.69 97.0138
L249.607 85.5716
L250.525 83.0095
L251.442 84.5056
L252.359 77.158
L253.276 86.5943
L254.194 78.4769
L255.111 89.203
L256.028 110.334
L256.945 76.1229
L257.863 84.8835
L258.78 159.752
L259.697 120.422
L260.614 132.085
L261.532 130.167
L262.449 96.1299
L263.366 86.2297
L264.284 98.0851
L265.201 89.8866
L266.118 65.3494
L267.035 63.4113
L267.953 138.092
L268.87 192.698
L269.787 130.244
L270.704 82.1966
L271.622 80.9193
L272.539 89.9274
L273.456 95.3148
L274.373 93.7144
L275.291 86.6681
L276.208 99.2937
L277.125 91.6388
L278.042 120.225
L278.96 127.585
L279.877 94.813
L280.794 83.4838
L281.711 87.7659
L282.629 83.0693
L283.546 96.1161
L284.463 92.375
L285.381 90.9284
L286.298 97.5219
L287.215 101.289
L288.132 91.2263
L289.05 102.777
L289.967 104.186
L290.884 130.001
L291.801 180.581
L292.719 164.878
L293.636 142.807
L294.553 129.89
L295.47 176.457
L296.388 140.434
L297.305 144.468
L298.222 140.495
L299.139 85.797
L300.057 82.8605
L300.974 83.0634
L301.891 96.9978
L302.808 122.473
L303.726 102.524
L304.643 69.0064
L305.56 62.6789
L306.478 81.5921
L307.395 92.0404
L308.312 92.8858
L309.229 157.424
L310.147 194.867
L311.064 169.13
L311.981 181.675
L312.898 149.763
L313.816 84.957
L314.733 86.7863
L315.65 110.017
L316.567 162.721
L317.485 133.377
L318.402 117.5
L319.319 117.567
L320.236 99.5567
L321.154 115.677
L322.071 118.181
L322.988 163.969
L323.905 175.278
L324.823 134.172
L325.74 188.817
L326.657 183.005
L327.574 158.238
L328.492 153.895
L329.409 190.212
L330.326 193.297
M333.078 123.294
L333.995 175.528
L334.913 191.44
L335.83 171.616
L336.747 186.057
L337.664 173.563
L338.582 170.108
L339.499 142.109
L340.416 137.9
L341.333 147.134
L342.251 191.114
L343.168 166.029
L344.085 124.534
L345.002 197.152
L345.92 202.633
L346.837 166.236
L347.754 195.155
L348.671 187.863
L349.589 169.74
L350.506 189.201
L351.423 148.65
L352.341 176.977
L353.258 166.99
L354.175 185.842
L355.092 178.779
L356.01 165.228
L356.927 174.671
L357.844 173.869
L358.761 151.694
L359.679 124.507
L360.596 166.525
L361.513 191.468
L362.43 173.978
L363.348 161.172
L364.265 185.534
L365.182 177.675
L366.099 139.616
L367.017 72.9936
L367.934 145.504
L368.851 176.843
L370.686 189.073
L371.603 178.098
L372.52 194.973
L372.52 194.973" style="fill:none;stroke:#0000ff;stroke-linecap:square;"/>
   </g>
   <g id="line2d_2">
    <path clip-path="url(#pa986dbe5e9)" d="
M38.6375 159.25
L39.5548 147.658
L40.472 190.247
L41.3893 189.099
L42.3065 145.07
L43.2238 121.62
L44.1411 126.599
L45.0583 166.652
L45.9756 178.947
L46.8928 181.955
L47.8101 149.692
L48.7274 159.456
L49.6446 197.108
L50.5619 187.649
L51.4791 191.232
L52.3964 203.991
L54.2309 186.054
L55.1482 187.846
L56.0654 140.891
L56.9827 176.62
L57.9 199.137
L58.8172 145.433
L59.7345 181.215
L60.6517 195.881
L61.569 167.068
L62.4863 151.766
L63.4035 156.656
L64.3208 162.365
L65.238 183.368
L66.1553 165.469
L67.0726 117.425
L67.9898 94.1095
L68.9071 123.826
L69.8243 180.157
L70.7416 179.467
L71.6589 158.81
L72.5761 172.107
L73.4934 164.632
L74.4107 173.223
L76.2452 135.241
L77.1624 115.335
L78.0797 111.324
L78.997 115.356
L79.9142 122.811
L81.7487 170.404
L82.666 176.485
L83.5833 166.735
L84.5005 188.003
L85.4178 194.699
L86.335 182.772
L87.2523 157.357
L88.1696 144.312
L89.0868 159.885
L90.0041 129.575
L90.9213 144.006
L91.8386 121.688
L92.7559 120.582
L93.6731 163.288
L94.5904 165.975
L95.5076 173.774
L96.4249 166.075
L97.3422 173.576
L98.2594 171.795
L99.1767 195.912
L101.011 153.859
L101.928 176.704
L102.846 175.835
L103.763 176.033
L104.68 166.828
L105.598 170.944
L106.515 205.146
L107.432 187.939
L108.349 152.512
L109.267 173.38
L110.184 160.788
L111.101 184.889
L112.018 187.575
L112.936 158.338
L113.853 170.139
L114.77 169.075
L115.687 198.187
L116.605 188.887
L117.522 175.119
L118.439 179.258
L119.356 184.534
L120.274 154.157
L121.191 144.114
L122.108 164.817
L123.943 121.68
L124.86 165.84
L125.777 162.018
L126.694 164.218
L127.612 155.418
L128.529 168.86
L129.446 144.927
L130.364 169.404
L131.281 140.721
L132.198 167.094
L133.115 148.903
L134.033 153.587
L134.95 167.476
L135.867 152.798
L136.784 162.355
L137.702 96.7938
L138.619 141.147
L139.536 178.269
L140.453 129.78
L141.371 111.538
L143.205 170.575
L144.122 158.744
L145.04 132.241
L145.957 159.233
L146.874 145.178
L147.791 140.071
L148.709 115.756
L149.626 136.257
L150.543 127.158
L151.461 116.944
L152.378 99.0399
L153.295 154.854
L154.212 142.824
L155.13 170.129
L156.047 132.816
L156.964 83.4676
L157.881 84.1459
L158.799 99.9456
L159.716 93.1831
L160.633 134.779
L161.55 168.454
L162.468 166.949
L163.385 133.07
L164.302 144.351
L165.219 68.6284
L167.054 134.933
L167.971 109.095
L168.888 140.46
L170.723 115.514
L171.64 153.521
L172.558 175.185
L173.475 143.306
L174.392 183.086
L175.309 146.611
L176.227 121.147
L177.144 114.763
L178.061 157.779
L178.978 102.491
L179.896 72.6115
L180.813 102.03
L181.73 149.436
L182.647 158.917
L183.565 96.3538
L184.482 105.368
L185.399 116.888
L186.316 125.065
L187.234 131.783
L188.151 145.697
L189.068 84.4935
L189.985 56.6223
L190.903 98.2578
L191.82 67.5029
L192.737 145.621
L193.654 141.168
L194.572 105.672
L195.489 97.823
L196.406 97.5543
L197.324 97.9885
L198.241 79.0529
L199.158 57.5695
L200.075 62.381
L200.993 90.5776
L201.91 101.477
L202.827 128.439
L203.744 112.725
L204.662 80.2372
L205.579 90.3027
L206.496 95.9795
L207.413 107.554
L208.331 101.808
L209.248 99.1075
L210.165 129.763
L211.082 97.7924
L212 76.1907
L212.917 98.063
L213.834 108.21
L214.751 109.942
L215.669 117.021
L216.586 128.931
L217.503 97.4948
L218.421 110.462
L219.338 101.233
L220.255 98.1428
L221.172 100.314
L222.09 96.8094
L223.007 90.9057
L223.924 99.7904
L224.841 85.0824
L225.759 106.283
L226.676 97.6436
L227.593 106.619
L228.51 97.6107
L229.428 91.1986
L230.345 98.454
L231.262 117.245
L232.179 132.416
L233.097 116.995
L234.014 112.582
L234.931 108.924
L235.848 126.389
L236.766 107.239
L237.683 102.981
L238.6 114.068
L239.518 104.663
L240.435 100.98
L241.352 99.6355
L242.269 92.4216
L243.187 95.3892
L244.104 104.046
L245.021 98.0944
L245.938 90.4585
L246.856 94.7907
L247.773 101.172
L248.69 98.8689
L249.607 92.6328
L250.525 108.278
L251.442 117.815
L252.359 109.926
L253.276 106.063
L254.194 112.469
L255.111 116.506
L256.028 114.696
L256.945 128.329
L257.863 118.704
L258.78 113.237
L259.697 104.412
L260.614 93.3306
L261.532 90.8777
L262.449 90.7305
L263.366 93.7876
L264.284 92.5449
L265.201 98.8331
L266.118 111.061
L267.035 110.149
L267.953 110.43
L268.87 115.179
L269.787 111.682
L270.704 130.095
L271.622 118.962
L272.539 123.727
L273.456 114.225
L274.373 157.975
L275.291 177.447
L276.208 96.2124
L277.125 96.5116
L278.042 109.909
L278.96 104.392
L279.877 95.6586
L280.794 107.604
L281.711 109.32
L282.629 109.17
L283.546 121.833
L284.463 111.163
L285.381 108.031
L286.298 108.722
L287.215 102.088
L288.132 120.021
L289.05 116.98
L289.967 113.301
L290.884 120.701
L291.801 170.365
L292.719 191.558
L293.636 199.731
L294.553 201.395
L295.47 147.68
L296.388 118.764
L297.305 168.582
L298.222 150.712
L299.139 120.302
L300.057 106.094
L300.974 112.582
L301.891 135.943
L302.808 179.232
L303.726 120.378
L304.643 100.016
L305.56 125.245
L306.478 113.542
L307.395 124.26
L308.312 140.264
L309.229 126.966
L310.147 159.566
L311.064 88.1818
L311.981 55.1628
L312.898 74.2124
L313.816 87.7679
L314.733 106.297
L315.65 129.399
L316.567 148.725
L318.402 69.7766
L319.319 84.2444
L320.236 144.476
L321.154 186.91
L322.071 186.612
L322.988 164.55
L323.905 147.945
L324.823 115.35
L325.74 92.2131
L326.657 123.798
L327.574 159.717
L328.492 162.71
L329.409 138.754
L330.326 128.493
L331.244 116.789
L332.161 172.982
L333.078 184.386
L333.995 169.325
L334.913 137.315
L335.83 152.729
L336.747 166.142
L337.664 118.892
L338.582 147.711
L339.499 145.36
L340.416 63.6624
L341.333 80.8753
L342.251 139.088
L343.168 175.451
L344.085 159.984
L345.002 96.1565
L345.92 99.7278
L346.837 114.525
L347.754 133.77
L348.671 113.874
L349.589 99.235
L350.506 109.693
L351.423 104.167
L352.341 87.1832
L353.258 107.828
L354.175 113.895
L355.092 113.176
L356.01 124.369
L356.927 129.497
L357.844 146.387
L358.761 151.454
L359.679 141.086
L360.596 134.87
L361.513 110.6
L362.43 105.896
L363.348 128.94
L364.265 52.6195
L365.182 62.1089
L366.099 75.5896
L367.017 94.2754
L367.934 107.742
L368.851 138.148
L369.768 189.474
L370.686 165.282
L371.603 190.11
L372.52 149.307
L372.52 149.307" style="fill:none;stroke:#008000;stroke-linecap:square;"/>
   </g>
   <g id="line2d_3">
    <path clip-path="url(#pa986dbe5e9)" d="
M38.6375 90.5383
L39.5548 110.246
L40.472 107.815
L41.3893 94.1993
L42.3065 128.307
L43.2238 136.871
L44.1411 147.936
L45.0583 147.05
L45.9756 143.666
L46.8928 167.527
L47.8101 128.895
L48.7274 97.6297
L49.6446 57.9155
L50.5619 70.4134
L51.4791 120.713
L52.3964 133.816
L53.3137 93.6189
L54.2309 144.398
L55.1482 203.452
L56.0654 203.392
L56.9827 198.931
L57.9 174.633
L58.8172 193.95
L59.7345 168.109
L60.6517 175.677
L61.569 178.212
L62.4863 151.258
L64.3208 88.8397
L65.238 168.801
L66.1553 139.222
L67.0726 159.558
L67.9898 185.044
L68.9071 156.636
L69.8243 136.626
L70.7416 135.974
L71.6589 135.74
L72.5761 106.655
L73.4934 157.644
L74.4107 183.048
L75.3279 173.474
L76.2452 180.519
L77.1624 194.357
L78.0797 171.378
L78.997 172.988
L79.9142 181.579
L80.8315 139.026
L81.7487 152.551
L82.666 169.762
L83.5833 144.198
L84.5005 149.396
L85.4178 193.592
L87.2523 145.185
L88.1696 109.615
L89.0868 156.128
L90.0041 141.186
L90.9213 123.335
L91.8386 131.156
L92.7559 151.316
L93.6731 163.682
L94.5904 159.791
L95.5076 179.135
L96.4249 153.79
L97.3422 121.521
L98.2594 165.434
L99.1767 113.669
L100.094 108.852
L101.011 104.659
L101.928 94.5711
L102.846 139.908
L103.763 148.993
L104.68 150.528
L105.598 199.973
L106.515 178.783
L107.432 171.099
L108.349 160.656
L109.267 182.977
L110.184 151.302
L111.101 166.949
L112.018 160.885
L112.936 118.261
L113.853 137.057
L114.77 102.845
L115.687 147.88
L116.605 183.872
L117.522 135.091
L118.439 169.32
L119.356 168.005
L120.274 187.047
L121.191 123.071
L123.025 141.895
L123.943 99.3925
L124.86 138.376
L125.777 131.765
L126.694 139.559
L127.612 76.0794
L128.529 53.0026
L129.446 73.777
L130.364 72.7053
L131.281 138.192
L132.198 95.7355
L133.115 135.624
L134.033 78.8512
L134.95 59.7909
L135.867 143.86
L136.784 108.794
L137.702 128.65
L138.619 155.243
L139.536 116.155
L140.453 84.445
L141.371 90.5962
L142.288 124.255
L143.205 119.71
L144.122 136.386
L145.04 188.045
L145.957 132.999
L147.791 75.1544
L148.709 156.304
L149.626 97.9106
L150.543 89.1107
L151.461 147.503
L152.378 157.51
L153.295 114.734
L154.212 85.8897
L155.13 62.0074
L156.047 71.1835
L156.964 89.0647
L157.881 54.38
L158.799 53.2618
L159.716 60.7681
L160.633 71.151
L161.55 88.8593
L162.468 118.693
L163.385 82.5773
L164.302 107.05
L166.137 53.2717
L167.054 75.1888
L167.971 134.385
L168.888 129.396
L169.806 136.9
L170.723 96.0737
L171.64 160.617
L172.558 171.294
L173.475 135.506
L174.392 76.288
L175.309 79.2374
L176.227 75.7606
L177.144 92.9329
L178.061 90.6813
L178.978 112.875
L179.896 109.122
L180.813 129.907
L181.73 154.061
L182.647 86.2649
L183.565 100.318
L184.482 111.133
L185.399 143.576
L187.234 59.8687
L188.151 104.671
L189.068 92.9771
L189.985 56.4432
L190.903 122.57
L191.82 86.2007
L192.737 89.3964
L193.654 79.9597
L194.572 108.486
L195.489 70.7285
L196.406 85.3717
L197.324 140.368
L198.241 94.0644
L199.158 86.2712
L200.075 82.2957
L200.993 99.6564
L201.91 70.1118
L202.827 89.3039
L203.744 89.3463
L204.662 97.4334
L205.579 120.957
L206.496 100.442
L207.413 91.3219
L208.331 86.1078
L209.248 104.357
L210.165 110.216
L211.082 106.942
L212 135.988
L212.917 111.994
L213.834 111.107
L214.751 118.073
L215.669 110.771
L216.586 133.777
L217.503 150.098
L218.421 132.135
L219.338 124.513
L220.255 105.225
L221.172 102.196
L222.09 111.39
L223.007 99.7591
L223.924 100.228
L224.841 105.328
L225.759 101.997
L226.676 98.0787
L227.593 109.516
L228.51 105.893
L229.428 109.646
L231.262 105.55
L232.179 104.279
L233.097 105.686
L234.014 97.3394
L234.931 92.0612
L235.848 97.0458
L236.766 98.9849
L237.683 107.061
L238.6 108.643
L240.435 115.989
L241.352 115.427
L242.269 126.113
L243.187 106.935
L244.104 112.238
L245.021 111.296
L245.938 109.649
L246.856 107.054
L247.773 111.713
L249.607 107.523
L250.525 129.176
L251.442 113.157
L252.359 117.827
L253.276 108.002
L254.194 100.784
L255.111 74.786
L256.028 89.524
L256.945 119.835
L257.863 124.717
L258.78 108.388
L259.697 101.157
L260.614 97.0448
L261.532 120.219
L262.449 109.534
L263.366 80.3718
L264.284 88.5264
L265.201 91.2744
L266.118 100.075
L267.035 116.825
L267.953 94.064
L268.87 96.354
L269.787 113.914
L270.704 97.2993
L271.622 91.0597
L272.539 68.1286
L273.456 91.2286
L274.373 97.6626
L275.291 97.8588
L276.208 100.511
L277.125 94.0122
L278.042 98.3927
L278.96 104.691
L279.877 109.864
L280.794 109.94
L281.711 105.696
L282.629 159.69
L283.546 132.099
L284.463 132.292
L285.381 121.644
L286.298 105.312
L287.215 114.24
L288.132 112.519
L289.05 109.32
L289.967 104.808
L290.884 99.1764
L291.801 66.3821
L292.719 68.6354
L293.636 64.9579
L294.553 61.9044
L295.47 70.4713
L296.388 71.624
L297.305 89.6296
L298.222 97.9899
L299.139 98.3376
L300.057 97.9492
L300.974 156.01
L301.891 133.407
L302.808 141.756
L303.726 140.282
L304.643 103.859
L305.56 95.6987
L306.478 118.534
L307.395 153.582
L308.312 107.1
L309.229 173.265
L310.147 157.242
L311.064 170.685
L312.898 122.356
L313.816 157.671
M315.65 127.591
L316.567 126.444
L317.485 109.87
L318.402 146.316
L319.319 131.776
L320.236 137.696
L321.154 133.215
L322.071 154.035
L322.988 131.921
L323.905 144.129
L325.74 180.493
L326.657 169.75
L327.574 167.498
L328.492 149.016
M330.326 173.262
L331.244 137.727
L333.078 176.983
L333.995 154.328
L334.913 173.317
L335.83 167.906
L336.747 170.287
L337.664 137.304
L338.582 99.9573
L339.499 151.831
L340.416 171.208
L341.333 149.348
L342.251 136.566
L343.168 153.751
L344.085 166.754
L345.002 177.491
L345.92 176.224
L346.837 184.182
L347.754 139.309
L348.671 166.965
L349.589 189.6
L351.423 157.24
L352.341 173.977
L353.258 121.129
L354.175 186.941
L355.092 155.598
L356.01 197.364
L356.927 168.845
L357.844 197.142
L359.679 179.676
L360.596 168.467
L361.513 175.405
L362.43 158.318
L363.348 99.741
L364.265 83.5276
L365.182 139.081
L366.099 179.043
L367.017 188.659
L367.934 147.517
L368.851 175.252
L369.768 182.468
L370.686 184.116
L371.603 161.167
L372.52 191.415
L372.52 191.415" style="fill:none;stroke:#ff0000;stroke-linecap:square;"/>
   </g>
   <g id="line2d_4">
    <path clip-path="url(#pa986dbe5e9)" d="
M38.6375 178.858
L39.5548 180.537
L41.3893 127.447
L42.3065 163.078
L43.2238 153.699
L44.1411 182.376
L45.0583 203.684
L45.9756 217.601
M47.8101 210.636
L48.7274 210.515
L49.6446 204.061
L50.5619 181.109
L51.4791 203.545
L52.3964 181.187
L53.3137 142.345
L54.2309 119.822
L55.1482 126.228
L56.0654 117.931
L56.9827 118.268
L57.9 121.879
L58.8172 113.398
L59.7345 169.53
L60.6517 203.159
L61.569 201.417
L62.4863 208.522
L63.4035 202.508
L64.3208 203.634
L65.238 205.355
L66.1553 210.876
L67.0726 203.595
L67.9898 193.464
L68.9071 179.541
L69.8243 160.919
L70.7416 162.791
L71.6589 180.115
L72.5761 169.789
L73.4934 186.968
L74.4107 177.401
L75.3279 158.691
L76.2452 144.458
L77.1624 182.923
L78.0797 187.122
L78.997 181.309
L79.9142 170.856
L80.8315 175.047
L81.7487 184.147
L82.666 139.019
L83.5833 164.284
L84.5005 173.734
L85.4178 159.709
L86.335 194.65
L87.2523 190.664
L88.1696 184.455
L89.0868 177.196
L90.0041 173.948
L90.9213 150.625
L91.8386 174.04
L92.7559 182.205
L93.6731 176.602
L94.5904 163.809
L95.5076 124.998
L96.4249 131.391
L97.3422 165.925
L98.2594 157.699
L99.1767 138.322
L100.094 128.011
L101.011 106.857
L101.928 170.847
L102.846 164.897
L103.763 134.502
L104.68 128.152
L105.598 135.378
L106.515 146.804
L107.432 140.534
L108.349 136.853
L109.267 79.2426
L110.184 152.458
L111.101 140.828
L112.018 161.065
L113.853 98.8846
L114.77 97.8916
L115.687 165.137
L116.605 146.165
L117.522 118.605
L118.439 120.961
L119.356 106.422
L120.274 111.269
L121.191 134.108
L122.108 114.895
L123.025 105.685
L123.943 152.359
L124.86 152.313
L125.777 174.863
L126.694 169.286
L127.612 124.424
L128.529 91.8296
L129.446 143.752
L130.364 104.046
L131.281 78.5521
L132.198 144.467
L133.115 114.896
L134.033 117.263
L135.867 60.1277
L136.784 63.6615
L137.702 173.707
L138.619 140.02
L139.536 115.031
L141.371 77.8002
L142.288 61.4585
L143.205 71.7624
L144.122 87.8421
L145.04 98.2447
L145.957 82.2199
L146.874 119.655
L147.791 99.2667
L148.709 67.4878
L149.626 60.7138
L150.543 82.6627
L151.461 126.897
L152.378 95.7118
L153.295 131.091
L154.212 131.614
L155.13 127.135
L156.047 113.248
L156.964 109.086
L157.881 112.19
L158.799 113.521
L159.716 112.939
L160.633 102.371
L161.55 106.295
L163.385 168.936
L164.302 120.748
L165.219 141.248
L166.137 95.2371
L167.054 114.057
L167.971 98.4592
L168.888 59.3503
L169.806 78.1856
L170.723 85.1045
L171.64 148.22
L172.558 139.867
L173.475 177.287
L174.392 167.541
L175.309 116.904
L176.227 93.7275
L177.144 91.3202
L178.061 87.6814
L178.978 86.8612
L179.896 98.11
L180.813 99.4817
L181.73 111.465
L182.647 108.924
L183.565 108.589
L184.482 106.719
L185.399 114.571
L186.316 117.661
L187.234 96.9769
L188.151 133.391
L189.068 119.174
L189.985 85.999
L190.903 112.022
L191.82 108.185
L192.737 108.709
L193.654 169.07
L194.572 120.016
L195.489 123.571
L196.406 114.029
L197.324 113.417
L198.241 167.762
L199.158 188.274
L200.075 141.577
L200.993 115.001
L201.91 118.679
L202.827 127.632
L203.744 122.637
L204.662 130.999
L205.579 128.331
L206.496 145.674
L207.413 119.148
L208.331 108.226
L209.248 115.652
L210.165 117.602
L211.082 114.087
L212 110.075
L213.834 131.87
L214.751 113.991
L215.669 99.3113
L216.586 105.474
L217.503 115.559
L218.421 146.872
L219.338 124.111
L220.255 110.755
L221.172 116.606
L222.09 116.469
L223.924 107.548
L224.841 112.696
L225.759 121.034
L226.676 119.929
L227.593 127.105
L228.51 121.423
L229.428 114.053
L230.345 111.632
L231.262 109.685
L232.179 122.5
L233.097 121.681
L234.014 109.001
L234.931 103.828
L235.848 112.833
L236.766 115.133
L237.683 114.813
L238.6 121.595
L239.518 121.636
L240.435 127.425
L241.352 124.819
L242.269 126.481
L243.187 131.22
L244.104 129.11
L245.021 122.584
L245.938 126.363
L246.856 125.101
L247.773 124.787
L248.69 124.787
L249.607 125.187
L250.525 122.64
L251.442 121.152
L252.359 152.201
L253.276 134.898
L254.194 136.526
L255.111 131.539
L256.028 124.546
L256.945 128.14
L257.863 144.223
L258.78 134.832
L259.697 124.099
L260.614 124.44
L261.532 129.857
L262.449 154.502
L263.366 174.729
L264.284 163.794
L265.201 168.095
L267.035 123.91
L267.953 124.421
L268.87 130.557
L269.787 132.237
L270.704 140.316
L271.622 171.73
L272.539 152.597
L273.456 161.789
L274.373 144.758
L275.291 138.118
L276.208 157.979
L277.125 166.733
L278.042 117.343
L278.96 116.79
L279.877 147.952
L280.794 168.377
L281.711 140.042
L282.629 178.286
L283.546 197.648
L284.463 183.191
L285.381 150.228
L286.298 143.984
L287.215 178.912
L288.132 148.042
L289.05 163.124
L289.967 148.277
L290.884 175.307
L291.801 119.396
L292.719 101.644
L293.636 107.827
L294.553 126.183
L295.47 166.975
L296.388 139.579
L297.305 147.201
L299.139 130.11
L300.057 142.363
L301.891 127.762
L302.808 121.801
L303.726 130.383
L304.643 116.687
L305.56 119.986
L306.478 133.894
L307.395 134.708
L308.312 124.524
L309.229 129.994
L310.147 131.299
L311.064 129.967
L311.981 133.989
L312.898 136.108
L313.816 184.047
L314.733 190.085
L315.65 180.825
L316.567 185.102
L317.485 183.009
L318.402 190.56
L319.319 186.907
L320.236 159.203
L321.154 171.187
L322.071 191.05
L322.988 182.166
L323.905 149.038
L324.823 139.003
L325.74 143.437
L326.657 136.281
L327.574 137.274
L328.492 160.73
L329.409 172.119
L331.244 185.599
L332.161 178.422
L333.078 151.569
L333.995 184.741
L334.913 188.992
L335.83 132.686
L336.747 124.191
L337.664 121.067
L338.582 126.268
L339.499 121.511
L340.416 136.234
L341.333 134.636
L343.168 148.081
L344.085 181.98
L345.002 190.469
L345.92 179.193
L346.837 151.123
L347.754 180.921
L348.671 168.56
L349.589 161.841
L350.506 178.534
L351.423 171.997
L352.341 133.459
L353.258 149.073
L354.175 176.2
L355.092 157.493
L356.927 173.661
L357.844 135.782
L358.761 139.929
L359.679 120.555
L360.596 163.131
L361.513 177.56
L362.43 154.484
L363.348 190.226
L364.265 199.33
L365.182 188.612
L366.099 175.336
L367.934 114.869
L368.851 118.882
L369.768 161.19
L370.686 145.383
L371.603 160.34
L372.52 170.8
L372.52 170.8" style="fill:none;stroke:#00bfbf;stroke-linecap:square;"/>
   </g>
   <g id="patch_3">
    <path d="
M38.6375 21.3181
L373.438 21.3181" style="fill:none;stroke:#000000;stroke-linecap:square;stroke-linejoin:miter;"/>
   </g>
   <g id="patch_4">
    <path d="
M373.438 244.518
L373.438 21.3181" style="fill:none;stroke:#000000;stroke-linecap:square;stroke-linejoin:miter;"/>
   </g>
   <g id="patch_5">
    <path d="
M38.6375 244.518
L373.438 244.518" style="fill:none;stroke:#000000;stroke-linecap:square;stroke-linejoin:miter;"/>
   </g>
   <g id="patch_6">
    <path d="
M38.6375 244.518
L38.6375 21.3181" style="fill:none;stroke:#000000;stroke-linecap:square;stroke-linejoin:miter;"/>
   </g>
   <g id="matplotlib.axis_1">
    <g id="xtick_1">
     <g id="line2d_5">
      <defs>
       <path d="
M0 0
L0 -4" id="m93b0483c22" style="stroke:#000000;stroke-width:0.5;"/>
      </defs>
      <g>
       <use style="stroke:#000000;stroke-width:0.5;" x="38.6375" xlink:href="#m93b0483c22" y="244.518125"/>
      </g>
     </g>
     <g id="line2d_6">
      <defs>
       <path d="
M0 0
L0 4" id="m741efc42ff" style="stroke:#000000;stroke-width:0.5;"/>
      </defs>
      <g>
       <use style="stroke:#000000;stroke-width:0.5;" x="38.6375" xlink:href="#m741efc42ff" y="21.318125"/>
      </g>
     </g>
     <g id="text_1">
      <!-- 0 -->
      <defs>
       <path d="
M31.7812 66.4062
Q24.1719 66.4062 20.3281 58.9062
Q16.5 51.4219 16.5 36.375
Q16.5 21.3906 20.3281 13.8906
Q24.1719 6.39062 31.7812 6.39062
Q39.4531 6.39062 43.2812 13.8906
Q47.125 21.3906 47.125 36.375
Q47.125 51.4219 43.2812 58.9062
Q39.4531 66.4062 31.7812 66.4062
M31.7812 74.2188
Q44.0469 74.2188 50.5156 64.5156
Q56.9844 54.8281 56.9844 36.375
Q56.9844 17.9688 50.5156 8.26562
Q44.0469 -1.42188 31.7812 -1.42188
Q19.5312 -1.42188 13.0625 8.26562
Q6.59375 17.9688 6.59375 36.375
Q6.59375 54.8281 13.0625 64.5156
Q19.5312 74.2188 31.7812 74.2188" id="BitstreamVeraSans-Roman-30"/>
      </defs>
      <g transform="translate(36.11796875 256.1165625)scale(0.1 -0.1)">
       <use xlink:href="#BitstreamVeraSans-Roman-30"/>
      </g>
     </g>
    </g>
    <g id="xtick_2">
     <g id="line2d_7">
      <g>
       <use style="stroke:#000000;stroke-width:0.5;" x="84.5005136986" xlink:href="#m93b0483c22" y="244.518125"/>
      </g>
     </g>
     <g id="line2d_8">
      <g>
       <use style="stroke:#000000;stroke-width:0.5;" x="84.5005136986" xlink:href="#m741efc42ff" y="21.318125"/>
      </g>
     </g>
     <g id="text_2">
      <!-- 50 -->
      <defs>
       <path d="
M10.7969 72.9062
L49.5156 72.9062
L49.5156 64.5938
L19.8281 64.5938
L19.8281 46.7344
Q21.9688 47.4688 24.1094 47.8281
Q26.2656 48.1875 28.4219 48.1875
Q40.625 48.1875 47.75 41.5
Q54.8906 34.8125 54.8906 23.3906
Q54.8906 11.625 47.5625 5.09375
Q40.2344 -1.42188 26.9062 -1.42188
Q22.3125 -1.42188 17.5469 -0.640625
Q12.7969 0.140625 7.71875 1.70312
L7.71875 11.625
Q12.1094 9.23438 16.7969 8.0625
Q21.4844 6.89062 26.7031 6.89062
Q35.1562 6.89062 40.0781 11.3281
Q45.0156 15.7656 45.0156 23.3906
Q45.0156 31 40.0781 35.4375
Q35.1562 39.8906 26.7031 39.8906
Q22.75 39.8906 18.8125 39.0156
Q14.8906 38.1406 10.7969 36.2812
z
" id="BitstreamVeraSans-Roman-35"/>
      </defs>
      <g transform="translate(78.8559824486 256.1165625)scale(0.1 -0.1)">
       <use xlink:href="#BitstreamVeraSans-Roman-35"/>
       <use x="63.623046875" xlink:href="#BitstreamVeraSans-Roman-30"/>
      </g>
     </g>
    </g>
    <g id="xtick_3">
     <g id="line2d_9">
      <g>
       <use style="stroke:#000000;stroke-width:0.5;" x="130.363527397" xlink:href="#m93b0483c22" y="244.518125"/>
      </g>
     </g>
     <g id="line2d_10">
      <g>
       <use style="stroke:#000000;stroke-width:0.5;" x="130.363527397" xlink:href="#m741efc42ff" y="21.318125"/>
      </g>
     </g>
     <g id="text_3">
      <!-- 100 -->
      <defs>
       <path d="
M12.4062 8.29688
L28.5156 8.29688
L28.5156 63.9219
L10.9844 60.4062
L10.9844 69.3906
L28.4219 72.9062
L38.2812 72.9062
L38.2812 8.29688
L54.3906 8.29688
L54.3906 0
L12.4062 0
z
" id="BitstreamVeraSans-Roman-31"/>
      </defs>
      <g transform="translate(121.701027397 256.1165625)scale(0.1 -0.1)">
       <use xlink:href="#BitstreamVeraSans-Roman-31"/>
       <use x="63.623046875" xlink:href="#BitstreamVeraSans-Roman-30"/>
       <use x="127.24609375" xlink:href="#BitstreamVeraSans-Roman-30"/>
      </g>
     </g>
    </g>
    <g id="xtick_4">
     <g id="line2d_11">
      <g>
       <use style="stroke:#000000;stroke-width:0.5;" x="176.226541096" xlink:href="#m93b0483c22" y="244.518125"/>
      </g>
     </g>
     <g id="line2d_12">
      <g>
       <use style="stroke:#000000;stroke-width:0.5;" x="176.226541096" xlink:href="#m741efc42ff" y="21.318125"/>
      </g>
     </g>
     <g id="text_4">
      <!-- 150 -->
      <g transform="translate(167.564041096 256.1165625)scale(0.1 -0.1)">
       <use xlink:href="#BitstreamVeraSans-Roman-31"/>
       <use x="63.623046875" xlink:href="#BitstreamVeraSans-Roman-35"/>
       <use x="127.24609375" xlink:href="#BitstreamVeraSans-Roman-30"/>
      </g>
     </g>
    </g>
    <g id="xtick_5">
     <g id="line2d_13">
      <g>
       <use style="stroke:#000000;stroke-width:0.5;" x="222.089554795" xlink:href="#m93b0483c22" y="244.518125"/>
      </g>
     </g>
     <g id="line2d_14">
      <g>
       <use style="stroke:#000000;stroke-width:0.5;" x="222.089554795" xlink:href="#m741efc42ff" y="21.318125"/>
      </g>
     </g>
     <g id="text_5">
      <!-- 200 -->
      <defs>
       <path d="
M19.1875 8.29688
L53.6094 8.29688
L53.6094 0
L7.32812 0
L7.32812 8.29688
Q12.9375 14.1094 22.625 23.8906
Q32.3281 33.6875 34.8125 36.5312
Q39.5469 41.8438 41.4219 45.5312
Q43.3125 49.2188 43.3125 52.7812
Q43.3125 58.5938 39.2344 62.25
Q35.1562 65.9219 28.6094 65.9219
Q23.9688 65.9219 18.8125 64.3125
Q13.6719 62.7031 7.8125 59.4219
L7.8125 69.3906
Q13.7656 71.7812 18.9375 73
Q24.125 74.2188 28.4219 74.2188
Q39.75 74.2188 46.4844 68.5469
Q53.2188 62.8906 53.2188 53.4219
Q53.2188 48.9219 51.5312 44.8906
Q49.8594 40.875 45.4062 35.4062
Q44.1875 33.9844 37.6406 27.2188
Q31.1094 20.4531 19.1875 8.29688" id="BitstreamVeraSans-Roman-32"/>
      </defs>
      <g transform="translate(213.244242295 256.1165625)scale(0.1 -0.1)">
       <use xlink:href="#BitstreamVeraSans-Roman-32"/>
       <use x="63.623046875" xlink:href="#BitstreamVeraSans-Roman-30"/>
       <use x="127.24609375" xlink:href="#BitstreamVeraSans-Roman-30"/>
      </g>
     </g>
    </g>
    <g id="xtick_6">
     <g id="line2d_15">
      <g>
       <use style="stroke:#000000;stroke-width:0.5;" x="267.952568493" xlink:href="#m93b0483c22" y="244.518125"/>
      </g>
     </g>
     <g id="line2d_16">
      <g>
       <use style="stroke:#000000;stroke-width:0.5;" x="267.952568493" xlink:href="#m741efc42ff" y="21.318125"/>
      </g>
     </g>
     <g id="text_6">
      <!-- 250 -->
      <g transform="translate(259.107255993 256.1165625)scale(0.1 -0.1)">
       <use xlink:href="#BitstreamVeraSans-Roman-32"/>
       <use x="63.623046875" xlink:href="#BitstreamVeraSans-Roman-35"/>
       <use x="127.24609375" xlink:href="#BitstreamVeraSans-Roman-30"/>
      </g>
     </g>
    </g>
    <g id="xtick_7">
     <g id="line2d_17">
      <g>
       <use style="stroke:#000000;stroke-width:0.5;" x="313.815582192" xlink:href="#m93b0483c22" y="244.518125"/>
      </g>
     </g>
     <g id="line2d_18">
      <g>
       <use style="stroke:#000000;stroke-width:0.5;" x="313.815582192" xlink:href="#m741efc42ff" y="21.318125"/>
      </g>
     </g>
     <g id="text_7">
      <!-- 300 -->
      <defs>
       <path d="
M40.5781 39.3125
Q47.6562 37.7969 51.625 33
Q55.6094 28.2188 55.6094 21.1875
Q55.6094 10.4062 48.1875 4.48438
Q40.7656 -1.42188 27.0938 -1.42188
Q22.5156 -1.42188 17.6562 -0.515625
Q12.7969 0.390625 7.625 2.20312
L7.625 11.7188
Q11.7188 9.32812 16.5938 8.10938
Q21.4844 6.89062 26.8125 6.89062
Q36.0781 6.89062 40.9375 10.5469
Q45.7969 14.2031 45.7969 21.1875
Q45.7969 27.6406 41.2812 31.2656
Q36.7656 34.9062 28.7188 34.9062
L20.2188 34.9062
L20.2188 43.0156
L29.1094 43.0156
Q36.375 43.0156 40.2344 45.9219
Q44.0938 48.8281 44.0938 54.2969
Q44.0938 59.9062 40.1094 62.9062
Q36.1406 65.9219 28.7188 65.9219
Q24.6562 65.9219 20.0156 65.0312
Q15.375 64.1562 9.8125 62.3125
L9.8125 71.0938
Q15.4375 72.6562 20.3438 73.4375
Q25.25 74.2188 29.5938 74.2188
Q40.8281 74.2188 47.3594 69.1094
Q53.9062 64.0156 53.9062 55.3281
Q53.9062 49.2656 50.4375 45.0938
Q46.9688 40.9219 40.5781 39.3125" id="BitstreamVeraSans-Roman-33"/>
      </defs>
      <g transform="translate(304.985113442 256.1165625)scale(0.1 -0.1)">
       <use xlink:href="#BitstreamVeraSans-Roman-33"/>
       <use x="63.623046875" xlink:href="#BitstreamVeraSans-Roman-30"/>
       <use x="127.24609375" xlink:href="#BitstreamVeraSans-Roman-30"/>
      </g>
     </g>
    </g>
    <g id="xtick_8">
     <g id="line2d_19">
      <g>
       <use style="stroke:#000000;stroke-width:0.5;" x="359.67859589" xlink:href="#m93b0483c22" y="244.518125"/>
      </g>
     </g>
     <g id="line2d_20">
      <g>
       <use style="stroke:#000000;stroke-width:0.5;" x="359.67859589" xlink:href="#m741efc42ff" y="21.318125"/>
      </g>
     </g>
     <g id="text_8">
      <!-- 350 -->
      <g transform="translate(350.84812714 256.1165625)scale(0.1 -0.1)">
       <use xlink:href="#BitstreamVeraSans-Roman-33"/>
       <use x="63.623046875" xlink:href="#BitstreamVeraSans-Roman-35"/>
       <use x="127.24609375" xlink:href="#BitstreamVeraSans-Roman-30"/>
      </g>
     </g>
    </g>
    <g id="text_9">
     <!-- Julian day -->
     <defs>
      <path id="BitstreamVeraSans-Roman-20"/>
      <path d="
M9.8125 72.9062
L19.6719 72.9062
L19.6719 5.07812
Q19.6719 -8.10938 14.6719 -14.0625
Q9.67188 -20.0156 -1.42188 -20.0156
L-5.17188 -20.0156
L-5.17188 -11.7188
L-2.09375 -11.7188
Q4.4375 -11.7188 7.125 -8.04688
Q9.8125 -4.39062 9.8125 5.07812
z
" id="BitstreamVeraSans-Roman-4a"/>
      <path d="
M54.8906 33.0156
L54.8906 0
L45.9062 0
L45.9062 32.7188
Q45.9062 40.4844 42.875 44.3281
Q39.8438 48.1875 33.7969 48.1875
Q26.5156 48.1875 22.3125 43.5469
Q18.1094 38.9219 18.1094 30.9062
L18.1094 0
L9.07812 0
L9.07812 54.6875
L18.1094 54.6875
L18.1094 46.1875
Q21.3438 51.125 25.7031 53.5625
Q30.0781 56 35.7969 56
Q45.2188 56 50.0469 50.1719
Q54.8906 44.3438 54.8906 33.0156" id="BitstreamVeraSans-Roman-6e"/>
      <path d="
M9.42188 75.9844
L18.4062 75.9844
L18.4062 0
L9.42188 0
z
" id="BitstreamVeraSans-Roman-6c"/>
      <path d="
M9.42188 54.6875
L18.4062 54.6875
L18.4062 0
L9.42188 0
z

M9.42188 75.9844
L18.4062 75.9844
L18.4062 64.5938
L9.42188 64.5938
z
" id="BitstreamVeraSans-Roman-69"/>
      <path d="
M32.1719 -5.07812
Q28.375 -14.8438 24.75 -17.8125
Q21.1406 -20.7969 15.0938 -20.7969
L7.90625 -20.7969
L7.90625 -13.2812
L13.1875 -13.2812
Q16.8906 -13.2812 18.9375 -11.5156
Q21 -9.76562 23.4844 -3.21875
L25.0938 0.875
L2.98438 54.6875
L12.5 54.6875
L29.5938 11.9219
L46.6875 54.6875
L56.2031 54.6875
z
" id="BitstreamVeraSans-Roman-79"/>
      <path d="
M45.4062 46.3906
L45.4062 75.9844
L54.3906 75.9844
L54.3906 0
L45.4062 0
L45.4062 8.20312
Q42.5781 3.32812 38.25 0.953125
Q33.9375 -1.42188 27.875 -1.42188
Q17.9688 -1.42188 11.7344 6.48438
Q5.51562 14.4062 5.51562 27.2969
Q5.51562 40.1875 11.7344 48.0938
Q17.9688 56 27.875 56
Q33.9375 56 38.25 53.625
Q42.5781 51.2656 45.4062 46.3906
M14.7969 27.2969
Q14.7969 17.3906 18.875 11.75
Q22.9531 6.10938 30.0781 6.10938
Q37.2031 6.10938 41.2969 11.75
Q45.4062 17.3906 45.4062 27.2969
Q45.4062 37.2031 41.2969 42.8438
Q37.2031 48.4844 30.0781 48.4844
Q22.9531 48.4844 18.875 42.8438
Q14.7969 37.2031 14.7969 27.2969" id="BitstreamVeraSans-Roman-64"/>
      <path d="
M8.5 21.5781
L8.5 54.6875
L17.4844 54.6875
L17.4844 21.9219
Q17.4844 14.1562 20.5 10.2656
Q23.5312 6.39062 29.5938 6.39062
Q36.8594 6.39062 41.0781 11.0312
Q45.3125 15.6719 45.3125 23.6875
L45.3125 54.6875
L54.2969 54.6875
L54.2969 0
L45.3125 0
L45.3125 8.40625
Q42.0469 3.42188 37.7188 1
Q33.4062 -1.42188 27.6875 -1.42188
Q18.2656 -1.42188 13.375 4.4375
Q8.5 10.2969 8.5 21.5781" id="BitstreamVeraSans-Roman-75"/>
      <path d="
M34.2812 27.4844
Q23.3906 27.4844 19.1875 25
Q14.9844 22.5156 14.9844 16.5
Q14.9844 11.7188 18.1406 8.90625
Q21.2969 6.10938 26.7031 6.10938
Q34.1875 6.10938 38.7031 11.4062
Q43.2188 16.7031 43.2188 25.4844
L43.2188 27.4844
z

M52.2031 31.2031
L52.2031 0
L43.2188 0
L43.2188 8.29688
Q40.1406 3.32812 35.5469 0.953125
Q30.9531 -1.42188 24.3125 -1.42188
Q15.9219 -1.42188 10.9531 3.29688
Q6 8.01562 6 15.9219
Q6 25.1406 12.1719 29.8281
Q18.3594 34.5156 30.6094 34.5156
L43.2188 34.5156
L43.2188 35.4062
Q43.2188 41.6094 39.1406 45
Q35.0625 48.3906 27.6875 48.3906
Q23 48.3906 18.5469 47.2656
Q14.1094 46.1406 10.0156 43.8906
L10.0156 52.2031
Q14.9375 54.1094 19.5781 55.0469
Q24.2188 56 28.6094 56
Q40.4844 56 46.3438 49.8438
Q52.2031 43.7031 52.2031 31.2031" id="BitstreamVeraSans-Roman-61"/>
     </defs>
     <g transform="translate(181.48671875 270.7946875)scale(0.1 -0.1)">
      <use xlink:href="#BitstreamVeraSans-Roman-4a"/>
      <use x="29.4921875" xlink:href="#BitstreamVeraSans-Roman-75"/>
      <use x="92.87109375" xlink:href="#BitstreamVeraSans-Roman-6c"/>
      <use x="120.654296875" xlink:href="#BitstreamVeraSans-Roman-69"/>
      <use x="148.4375" xlink:href="#BitstreamVeraSans-Roman-61"/>
      <use x="209.716796875" xlink:href="#BitstreamVeraSans-Roman-6e"/>
      <use x="273.095703125" xlink:href="#BitstreamVeraSans-Roman-20"/>
      <use x="304.8828125" xlink:href="#BitstreamVeraSans-Roman-64"/>
      <use x="368.359375" xlink:href="#BitstreamVeraSans-Roman-61"/>
      <use x="429.638671875" xlink:href="#BitstreamVeraSans-Roman-79"/>
     </g>
    </g>
   </g>
   <g id="matplotlib.axis_2">
    <g id="ytick_1">
     <g id="line2d_21">
      <defs>
       <path d="
M0 0
L4 0" id="m728421d6d4" style="stroke:#000000;stroke-width:0.5;"/>
      </defs>
      <g>
       <use style="stroke:#000000;stroke-width:0.5;" x="38.6375" xlink:href="#m728421d6d4" y="244.518125"/>
      </g>
     </g>
     <g id="line2d_22">
      <defs>
       <path d="
M0 0
L-4 0" id="mcb0005524f" style="stroke:#000000;stroke-width:0.5;"/>
      </defs>
      <g>
       <use style="stroke:#000000;stroke-width:0.5;" x="373.4375" xlink:href="#mcb0005524f" y="244.518125"/>
      </g>
     </g>
     <g id="text_10">
      <!-- −1 -->
      <defs>
       <path d="
M10.5938 35.5
L73.1875 35.5
L73.1875 27.2031
L10.5938 27.2031
z
" id="BitstreamVeraSans-Roman-2212"/>
      </defs>
      <g transform="translate(21.878125 247.2775)scale(0.1 -0.1)">
       <use xlink:href="#BitstreamVeraSans-Roman-2212"/>
       <use x="83.7890625" xlink:href="#BitstreamVeraSans-Roman-31"/>
      </g>
     </g>
    </g>
    <g id="ytick_2">
     <g id="line2d_23">
      <g>
       <use style="stroke:#000000;stroke-width:0.5;" x="38.6375" xlink:href="#m728421d6d4" y="212.632410714"/>
      </g>
     </g>
     <g id="line2d_24">
      <g>
       <use style="stroke:#000000;stroke-width:0.5;" x="373.4375" xlink:href="#mcb0005524f" y="212.632410714"/>
      </g>
     </g>
     <g id="text_11">
      <!-- 0 -->
      <g transform="translate(29.5984375 215.391785714)scale(0.1 -0.1)">
       <use xlink:href="#BitstreamVeraSans-Roman-30"/>
      </g>
     </g>
    </g>
    <g id="ytick_3">
     <g id="line2d_25">
      <g>
       <use style="stroke:#000000;stroke-width:0.5;" x="38.6375" xlink:href="#m728421d6d4" y="180.746696429"/>
      </g>
     </g>
     <g id="line2d_26">
      <g>
       <use style="stroke:#000000;stroke-width:0.5;" x="373.4375" xlink:href="#mcb0005524f" y="180.746696429"/>
      </g>
     </g>
     <g id="text_12">
      <!-- 1 -->
      <g transform="translate(30.296875 183.506071429)scale(0.1 -0.1)">
       <use xlink:href="#BitstreamVeraSans-Roman-31"/>
      </g>
     </g>
    </g>
    <g id="ytick_4">
     <g id="line2d_27">
      <g>
       <use style="stroke:#000000;stroke-width:0.5;" x="38.6375" xlink:href="#m728421d6d4" y="148.860982143"/>
      </g>
     </g>
     <g id="line2d_28">
      <g>
       <use style="stroke:#000000;stroke-width:0.5;" x="373.4375" xlink:href="#mcb0005524f" y="148.860982143"/>
      </g>
     </g>
     <g id="text_13">
      <!-- 2 -->
      <g transform="translate(30.009375 151.620357143)scale(0.1 -0.1)">
       <use xlink:href="#BitstreamVeraSans-Roman-32"/>
      </g>
     </g>
    </g>
    <g id="ytick_5">
     <g id="line2d_29">
      <g>
       <use style="stroke:#000000;stroke-width:0.5;" x="38.6375" xlink:href="#m728421d6d4" y="116.975267857"/>
      </g>
     </g>
     <g id="line2d_30">
      <g>
       <use style="stroke:#000000;stroke-width:0.5;" x="373.4375" xlink:href="#mcb0005524f" y="116.975267857"/>
      </g>
     </g>
     <g id="text_14">
      <!-- 3 -->
      <g transform="translate(29.8390625 119.734642857)scale(0.1 -0.1)">
       <use xlink:href="#BitstreamVeraSans-Roman-33"/>
      </g>
     </g>
    </g>
    <g id="ytick_6">
     <g id="line2d_31">
      <g>
       <use style="stroke:#000000;stroke-width:0.5;" x="38.6375" xlink:href="#m728421d6d4" y="85.0895535714"/>
      </g>
     </g>
     <g id="line2d_32">
      <g>
       <use style="stroke:#000000;stroke-width:0.5;" x="373.4375" xlink:href="#mcb0005524f" y="85.0895535714"/>
      </g>
     </g>
     <g id="text_15">
      <!-- 4 -->
      <defs>
       <path d="
M37.7969 64.3125
L12.8906 25.3906
L37.7969 25.3906
z

M35.2031 72.9062
L47.6094 72.9062
L47.6094 25.3906
L58.0156 25.3906
L58.0156 17.1875
L47.6094 17.1875
L47.6094 0
L37.7969 0
L37.7969 17.1875
L4.89062 17.1875
L4.89062 26.7031
z
" id="BitstreamVeraSans-Roman-34"/>
      </defs>
      <g transform="translate(29.325 87.8489285714)scale(0.1 -0.1)">
       <use xlink:href="#BitstreamVeraSans-Roman-34"/>
      </g>
     </g>
    </g>
    <g id="ytick_7">
     <g id="line2d_33">
      <g>
       <use style="stroke:#000000;stroke-width:0.5;" x="38.6375" xlink:href="#m728421d6d4" y="53.2038392857"/>
      </g>
     </g>
     <g id="line2d_34">
      <g>
       <use style="stroke:#000000;stroke-width:0.5;" x="373.4375" xlink:href="#mcb0005524f" y="53.2038392857"/>
      </g>
     </g>
     <g id="text_16">
      <!-- 5 -->
      <g transform="translate(29.9203125 55.9632142857)scale(0.1 -0.1)">
       <use xlink:href="#BitstreamVeraSans-Roman-35"/>
      </g>
     </g>
    </g>
    <g id="ytick_8">
     <g id="line2d_35">
      <g>
       <use style="stroke:#000000;stroke-width:0.5;" x="38.6375" xlink:href="#m728421d6d4" y="21.318125"/>
      </g>
     </g>
     <g id="line2d_36">
      <g>
       <use style="stroke:#000000;stroke-width:0.5;" x="373.4375" xlink:href="#mcb0005524f" y="21.318125"/>
      </g>
     </g>
     <g id="text_17">
      <!-- 6 -->
      <defs>
       <path d="
M33.0156 40.375
Q26.375 40.375 22.4844 35.8281
Q18.6094 31.2969 18.6094 23.3906
Q18.6094 15.5312 22.4844 10.9531
Q26.375 6.39062 33.0156 6.39062
Q39.6562 6.39062 43.5312 10.9531
Q47.4062 15.5312 47.4062 23.3906
Q47.4062 31.2969 43.5312 35.8281
Q39.6562 40.375 33.0156 40.375
M52.5938 71.2969
L52.5938 62.3125
Q48.875 64.0625 45.0938 64.9844
Q41.3125 65.9219 37.5938 65.9219
Q27.8281 65.9219 22.6719 59.3281
Q17.5312 52.7344 16.7969 39.4062
Q19.6719 43.6562 24.0156 45.9219
Q28.375 48.1875 33.5938 48.1875
Q44.5781 48.1875 50.9531 41.5156
Q57.3281 34.8594 57.3281 23.3906
Q57.3281 12.1562 50.6875 5.35938
Q44.0469 -1.42188 33.0156 -1.42188
Q20.3594 -1.42188 13.6719 8.26562
Q6.98438 17.9688 6.98438 36.375
Q6.98438 53.6562 15.1875 63.9375
Q23.3906 74.2188 37.2031 74.2188
Q40.9219 74.2188 44.7031 73.4844
Q48.4844 72.75 52.5938 71.2969" id="BitstreamVeraSans-Roman-36"/>
      </defs>
      <g transform="translate(29.603125 24.0775)scale(0.1 -0.1)">
       <use xlink:href="#BitstreamVeraSans-Roman-36"/>
      </g>
     </g>
    </g>
    <g id="text_18">
     <!-- PET (mm/day) -->
     <defs>
      <path d="
M52 44.1875
Q55.375 50.25 60.0625 53.125
Q64.75 56 71.0938 56
Q79.6406 56 84.2812 50.0156
Q88.9219 44.0469 88.9219 33.0156
L88.9219 0
L79.8906 0
L79.8906 32.7188
Q79.8906 40.5781 77.0938 44.375
Q74.3125 48.1875 68.6094 48.1875
Q61.625 48.1875 57.5625 43.5469
Q53.5156 38.9219 53.5156 30.9062
L53.5156 0
L44.4844 0
L44.4844 32.7188
Q44.4844 40.625 41.7031 44.4062
Q38.9219 48.1875 33.1094 48.1875
Q26.2188 48.1875 22.1562 43.5312
Q18.1094 38.875 18.1094 30.9062
L18.1094 0
L9.07812 0
L9.07812 54.6875
L18.1094 54.6875
L18.1094 46.1875
Q21.1875 51.2188 25.4844 53.6094
Q29.7812 56 35.6875 56
Q41.6562 56 45.8281 52.9688
Q50 49.9531 52 44.1875" id="BitstreamVeraSans-Roman-6d"/>
      <path d="
M8.01562 75.875
L15.8281 75.875
Q23.1406 64.3594 26.7812 53.3125
Q30.4219 42.2812 30.4219 31.3906
Q30.4219 20.4531 26.7812 9.375
Q23.1406 -1.70312 15.8281 -13.1875
L8.01562 -13.1875
Q14.5 -2 17.7031 9.0625
Q20.9062 20.125 20.9062 31.3906
Q20.9062 42.6719 17.7031 53.6562
Q14.5 64.6562 8.01562 75.875" id="BitstreamVeraSans-Roman-29"/>
      <path d="
M31 75.875
Q24.4688 64.6562 21.2812 53.6562
Q18.1094 42.6719 18.1094 31.3906
Q18.1094 20.125 21.3125 9.0625
Q24.5156 -2 31 -13.1875
L23.1875 -13.1875
Q15.875 -1.70312 12.2344 9.375
Q8.59375 20.4531 8.59375 31.3906
Q8.59375 42.2812 12.2031 53.3125
Q15.8281 64.3594 23.1875 75.875
z
" id="BitstreamVeraSans-Roman-28"/>
      <path d="
M19.6719 64.7969
L19.6719 37.4062
L32.0781 37.4062
Q38.9688 37.4062 42.7188 40.9688
Q46.4844 44.5312 46.4844 51.125
Q46.4844 57.6719 42.7188 61.2344
Q38.9688 64.7969 32.0781 64.7969
z

M9.8125 72.9062
L32.0781 72.9062
Q44.3438 72.9062 50.6094 67.3594
Q56.8906 61.8125 56.8906 51.125
Q56.8906 40.3281 50.6094 34.8125
Q44.3438 29.2969 32.0781 29.2969
L19.6719 29.2969
L19.6719 0
L9.8125 0
z
" id="BitstreamVeraSans-Roman-50"/>
      <path d="
M9.8125 72.9062
L55.9062 72.9062
L55.9062 64.5938
L19.6719 64.5938
L19.6719 43.0156
L54.3906 43.0156
L54.3906 34.7188
L19.6719 34.7188
L19.6719 8.29688
L56.7812 8.29688
L56.7812 0
L9.8125 0
z
" id="BitstreamVeraSans-Roman-45"/>
      <path d="
M-0.296875 72.9062
L61.375 72.9062
L61.375 64.5938
L35.5 64.5938
L35.5 0
L25.5938 0
L25.5938 64.5938
L-0.296875 64.5938
z
" id="BitstreamVeraSans-Roman-54"/>
      <path d="
M25.3906 72.9062
L33.6875 72.9062
L8.29688 -9.28125
L0 -9.28125
z
" id="BitstreamVeraSans-Roman-2f"/>
     </defs>
     <g transform="translate(14.7984375 167.82984375)rotate(-90.0)scale(0.1 -0.1)">
      <use xlink:href="#BitstreamVeraSans-Roman-50"/>
      <use x="60.302734375" xlink:href="#BitstreamVeraSans-Roman-45"/>
      <use x="123.486328125" xlink:href="#BitstreamVeraSans-Roman-54"/>
      <use x="184.5703125" xlink:href="#BitstreamVeraSans-Roman-20"/>
      <use x="216.357421875" xlink:href="#BitstreamVeraSans-Roman-28"/>
      <use x="255.37109375" xlink:href="#BitstreamVeraSans-Roman-6d"/>
      <use x="352.783203125" xlink:href="#BitstreamVeraSans-Roman-6d"/>
      <use x="450.1953125" xlink:href="#BitstreamVeraSans-Roman-2f"/>
      <use x="483.88671875" xlink:href="#BitstreamVeraSans-Roman-64"/>
      <use x="547.36328125" xlink:href="#BitstreamVeraSans-Roman-61"/>
      <use x="608.642578125" xlink:href="#BitstreamVeraSans-Roman-79"/>
      <use x="667.822265625" xlink:href="#BitstreamVeraSans-Roman-29"/>
     </g>
    </g>
   </g>
   <g id="text_19">
    <!-- daily tree PET at LDP -->
    <defs>
     <path d="
M56.2031 29.5938
L56.2031 25.2031
L14.8906 25.2031
Q15.4844 15.9219 20.4844 11.0625
Q25.4844 6.20312 34.4219 6.20312
Q39.5938 6.20312 44.4531 7.46875
Q49.3125 8.73438 54.1094 11.2812
L54.1094 2.78125
Q49.2656 0.734375 44.1875 -0.34375
Q39.1094 -1.42188 33.8906 -1.42188
Q20.7969 -1.42188 13.1562 6.1875
Q5.51562 13.8125 5.51562 26.8125
Q5.51562 40.2344 12.7656 48.1094
Q20.0156 56 32.3281 56
Q43.3594 56 49.7812 48.8906
Q56.2031 41.7969 56.2031 29.5938
M47.2188 32.2344
Q47.125 39.5938 43.0938 43.9844
Q39.0625 48.3906 32.4219 48.3906
Q24.9062 48.3906 20.3906 44.1406
Q15.875 39.8906 15.1875 32.1719
z
" id="BitstreamVeraSans-Roman-65"/>
     <path d="
M9.8125 72.9062
L19.6719 72.9062
L19.6719 8.29688
L55.1719 8.29688
L55.1719 0
L9.8125 0
z
" id="BitstreamVeraSans-Roman-4c"/>
     <path d="
M18.3125 70.2188
L18.3125 54.6875
L36.8125 54.6875
L36.8125 47.7031
L18.3125 47.7031
L18.3125 18.0156
Q18.3125 11.3281 20.1406 9.42188
Q21.9688 7.51562 27.5938 7.51562
L36.8125 7.51562
L36.8125 0
L27.5938 0
Q17.1875 0 13.2344 3.875
Q9.28125 7.76562 9.28125 18.0156
L9.28125 47.7031
L2.6875 47.7031
L2.6875 54.6875
L9.28125 54.6875
L9.28125 70.2188
z
" id="BitstreamVeraSans-Roman-74"/>
     <path d="
M19.6719 64.7969
L19.6719 8.10938
L31.5938 8.10938
Q46.6875 8.10938 53.6875 14.9375
Q60.6875 21.7812 60.6875 36.5312
Q60.6875 51.1719 53.6875 57.9844
Q46.6875 64.7969 31.5938 64.7969
z

M9.8125 72.9062
L30.0781 72.9062
Q51.2656 72.9062 61.1719 64.0938
Q71.0938 55.2812 71.0938 36.5312
Q71.0938 17.6719 61.125 8.82812
Q51.1719 0 30.0781 0
L9.8125 0
z
" id="BitstreamVeraSans-Roman-44"/>
     <path d="
M41.1094 46.2969
Q39.5938 47.1719 37.8125 47.5781
Q36.0312 48 33.8906 48
Q26.2656 48 22.1875 43.0469
Q18.1094 38.0938 18.1094 28.8125
L18.1094 0
L9.07812 0
L9.07812 54.6875
L18.1094 54.6875
L18.1094 46.1875
Q20.9531 51.1719 25.4844 53.5781
Q30.0312 56 36.5312 56
Q37.4531 56 38.5781 55.875
Q39.7031 55.7656 41.0625 55.5156
z
" id="BitstreamVeraSans-Roman-72"/>
    </defs>
    <g transform="translate(143.4921875 16.318125)scale(0.12 -0.12)">
     <use xlink:href="#BitstreamVeraSans-Roman-64"/>
     <use x="63.4765625" xlink:href="#BitstreamVeraSans-Roman-61"/>
     <use x="124.755859375" xlink:href="#BitstreamVeraSans-Roman-69"/>
     <use x="152.5390625" xlink:href="#BitstreamVeraSans-Roman-6c"/>
     <use x="180.322265625" xlink:href="#BitstreamVeraSans-Roman-79"/>
     <use x="239.501953125" xlink:href="#BitstreamVeraSans-Roman-20"/>
     <use x="271.2890625" xlink:href="#BitstreamVeraSans-Roman-74"/>
     <use x="310.498046875" xlink:href="#BitstreamVeraSans-Roman-72"/>
     <use x="349.361328125" xlink:href="#BitstreamVeraSans-Roman-65"/>
     <use x="410.884765625" xlink:href="#BitstreamVeraSans-Roman-65"/>
     <use x="472.408203125" xlink:href="#BitstreamVeraSans-Roman-20"/>
     <use x="504.1953125" xlink:href="#BitstreamVeraSans-Roman-50"/>
     <use x="564.498046875" xlink:href="#BitstreamVeraSans-Roman-45"/>
     <use x="627.681640625" xlink:href="#BitstreamVeraSans-Roman-54"/>
     <use x="688.765625" xlink:href="#BitstreamVeraSans-Roman-20"/>
     <use x="720.552734375" xlink:href="#BitstreamVeraSans-Roman-61"/>
     <use x="781.83203125" xlink:href="#BitstreamVeraSans-Roman-74"/>
     <use x="821.041015625" xlink:href="#BitstreamVeraSans-Roman-20"/>
     <use x="852.828125" xlink:href="#BitstreamVeraSans-Roman-4c"/>
     <use x="908.541015625" xlink:href="#BitstreamVeraSans-Roman-44"/>
     <use x="985.54296875" xlink:href="#BitstreamVeraSans-Roman-50"/>
    </g>
   </g>
   <g id="legend_1">
    <g id="patch_7">
     <path d="
M295.374 101.373
L367.438 101.373
L367.438 27.3181
L295.374 27.3181
z
" style="fill:#ffffff;stroke:#000000;stroke-linejoin:miter;"/>
    </g>
    <g id="line2d_37">
     <path d="
M303.774 37.0363
L320.574 37.0363" style="fill:none;stroke:#0000ff;stroke-linecap:square;"/>
    </g>
    <g id="line2d_38"/>
    <g id="text_20">
     <!-- 2010 -->
     <g transform="translate(333.77375 41.23625)scale(0.12 -0.12)">
      <use xlink:href="#BitstreamVeraSans-Roman-32"/>
      <use x="63.623046875" xlink:href="#BitstreamVeraSans-Roman-30"/>
      <use x="127.24609375" xlink:href="#BitstreamVeraSans-Roman-31"/>
      <use x="190.869140625" xlink:href="#BitstreamVeraSans-Roman-30"/>
     </g>
    </g>
    <g id="line2d_39">
     <path d="
M303.774 54.65
L320.574 54.65" style="fill:none;stroke:#008000;stroke-linecap:square;"/>
    </g>
    <g id="line2d_40"/>
    <g id="text_21">
     <!-- 2011 -->
     <g transform="translate(333.77375 58.85)scale(0.12 -0.12)">
      <use xlink:href="#BitstreamVeraSans-Roman-32"/>
      <use x="63.623046875" xlink:href="#BitstreamVeraSans-Roman-30"/>
      <use x="127.24609375" xlink:href="#BitstreamVeraSans-Roman-31"/>
      <use x="190.869140625" xlink:href="#BitstreamVeraSans-Roman-31"/>
     </g>
    </g>
    <g id="line2d_41">
     <path d="
M303.774 72.2638
L320.574 72.2638" style="fill:none;stroke:#ff0000;stroke-linecap:square;"/>
    </g>
    <g id="line2d_42"/>
    <g id="text_22">
     <!-- 2012 -->
     <g transform="translate(333.77375 76.46375)scale(0.12 -0.12)">
      <use xlink:href="#BitstreamVeraSans-Roman-32"/>
      <use x="63.623046875" xlink:href="#BitstreamVeraSans-Roman-30"/>
      <use x="127.24609375" xlink:href="#BitstreamVeraSans-Roman-31"/>
      <use x="190.869140625" xlink:href="#BitstreamVeraSans-Roman-32"/>
     </g>
    </g>
    <g id="line2d_43">
     <path d="
M303.774 89.8775
L320.574 89.8775" style="fill:none;stroke:#00bfbf;stroke-linecap:square;"/>
    </g>
    <g id="line2d_44"/>
    <g id="text_23">
     <!-- 2013 -->
     <g transform="translate(333.77375 94.0775)scale(0.12 -0.12)">
      <use xlink:href="#BitstreamVeraSans-Roman-32"/>
      <use x="63.623046875" xlink:href="#BitstreamVeraSans-Roman-30"/>
      <use x="127.24609375" xlink:href="#BitstreamVeraSans-Roman-31"/>
      <use x="190.869140625" xlink:href="#BitstreamVeraSans-Roman-33"/>
     </g>
    </g>
   </g>
  </g>
 </g>
 <defs>
  <clipPath id="pa986dbe5e9">
   <rect height="223.2" width="334.8" x="38.6375" y="21.318125"/>
  </clipPath>
 </defs>
</svg>
