<?xml version="1.0" encoding="utf-8" standalone="no"?>
<!DOCTYPE svg PUBLIC "-//W3C//DTD SVG 1.1//EN"
  "http://www.w3.org/Graphics/SVG/1.1/DTD/svg11.dtd">
<!-- Created with matplotlib (http://matplotlib.org/) -->
<svg height="280pt" version="1.1" viewBox="0 0 397 280" width="397pt" xmlns="http://www.w3.org/2000/svg" xmlns:xlink="http://www.w3.org/1999/xlink">
 <defs>
  <style type="text/css">
*{stroke-linecap:butt;stroke-linejoin:round;}
  </style>
 </defs>
 <g id="figure_1">
  <g id="patch_1">
   <path d="
M0 280.074
L397.04 280.074
L397.04 0
L0 0
z
" style="fill:#ffffff;"/>
  </g>
  <g id="axes_1">
   <g id="patch_2">
    <path d="
M43.8125 244.518
L311.653 244.518
L311.653 21.3181
L43.8125 21.3181
z
" style="fill:#ffffff;"/>
   </g>
   <g id="line2d_1">
    <path clip-path="url(#pf0709b6b74)" d="
M243.115 244.518
L245.645 244.443
L245.794 242.702
L246.448 242.543
L247.163 242.144
L247.49 241.05
L247.907 241.008
L250.139 240.899
L250.287 240.235
L250.466 238.707
L250.525 238.606
L250.823 238.073
L251.121 237.992
L251.359 237.886
L251.478 237.697
L251.627 237.097
L251.954 233.076
L252.252 233.076
L252.668 231.492
L252.757 231.492
L252.936 230.713
L253.174 230.596
L255.049 230.512
L255.257 230.429
L259.424 230.345
L259.543 230.164
L259.692 229.034
L259.93 228.529
L260.138 228.445
L267.727 228.356
L267.846 228.205
L267.995 227.63
L268.203 227.466
L268.262 227.382
L268.441 226.838
L268.62 226.581
L269.185 226.492
L269.572 225.744
L269.661 225.142
L269.81 222.617
L270.018 222.533
L271.596 222.427
L272.131 220.014
L272.28 219.079
L272.816 217.441
L273.024 216.719
L273.292 215.209
L274.066 215.209
L274.393 213.248
L274.661 213.145
L274.78 212.737
L275.256 212.397
L279.482 212.335
L279.601 211.786
L279.78 210.126
L280.524 209.886
L280.881 209.788
L281.059 209.381
L281.297 208.31
L281.476 208.097
L283.142 207.991
L284.214 207.609
L285.493 207.358
L286.624 207.255
L287.101 206.663
L287.785 206.56
L287.964 205.656
L288.35 205.586
L288.678 205.059
L289.124 204.97
L289.452 204.417
L293.32 204.32
L293.737 204.041
L294.362 203.859
L294.451 203.859
L294.63 203.505
L294.808 203.257
L294.898 202.632
L295.136 199.156
L297.903 199.156
L298.052 198.731
L298.558 198.625
L298.766 197.459
L298.975 197.091
L299.153 194.404
L299.629 194.253
L300.552 194.253
L300.701 193.921
L300.998 193.874
L301.802 193.648
L302.01 192.819
L302.725 192.593
L302.992 192.518
L303.141 192.005
L303.349 191.885
L304.48 191.885
L304.48 191.885" style="fill:none;stroke:#0000ff;stroke-linecap:square;"/>
   </g>
   <g id="line2d_2">
    <path clip-path="url(#pf0709b6b74)" d="
M43.8125 244.518
L46.5207 244.412
L46.6695 244.035
L47.2647 243.982
L47.4135 243.849
L47.5027 243.634
L47.5325 243.581
L47.7706 240.637
L48.3063 240.581
L48.5741 238.495
L49.08 238.388
L49.3479 237.532
L49.4967 237.021
L49.5562 236.514
L49.7347 235.174
L49.9431 234.05
L50.4787 233.969
L50.8656 233.461
L51.0442 230.328
L51.2525 229.472
L51.4311 229.366
L52.1751 229.26
L52.5024 228.858
L53.8416 228.805
L54.0499 228.481
L57.3831 228.403
L57.5914 226.556
L57.7402 226.475
L60.7459 226.366
L60.9245 225.002
L61.1328 224.815
L62.6506 224.734
L63.0077 224.279
L63.097 224.252
L63.1267 224.065
L63.3351 220.692
L63.5136 220.639
L63.7219 220.156
L63.9303 220.156
L64.1386 218.792
L64.5552 216.222
L64.6147 216.222
L64.9421 214.989
L65.1802 214.777
L65.3885 214.668
L65.7754 213.597
L65.9539 211.323
L66.1027 211.27
L66.3706 211.27
L66.5491 210.893
L66.6979 210.84
L66.8765 210.223
L67.5312 209.554
L67.68 208.376
L68.0074 204.978
L68.1562 204.844
L69.5251 204.789
L69.7037 203.184
L70.0311 203.103
L70.9239 199.543
L71.6976 199.49
L72.0547 198.768
L74.9117 198.712
L75.2688 198.179
L76.3699 198.179
L76.5485 197.507
L80.4173 197.401
L80.8339 197.392
L81.2506 197.303
L81.3696 197.183
L81.5184 196.993
L82.1136 196.896
L82.2327 196.564
L82.4112 196.134
L82.4707 195.983
L82.6195 195.855
L83.2445 195.637
L83.6314 194.173
L86.2503 194.075
L86.8752 193.796
L87.024 191.835
L87.2323 191.36
L87.5597 191.316
L91.9642 191.21
L92.113 191.059
L92.3511 190.613
L93.0951 190.585
L95.3271 190.479
L95.4461 190.205
L95.8925 186.065
L96.2199 186.012
L96.3984 185.833
L96.4579 185.727
L97.0234 184.12
L97.4698 184.023
L97.7079 183.88
L98.2733 183.54
L98.928 183.448
L98.9578 183.412
L99.2256 181.746
L99.2851 181.746
L99.3447 181.595
L99.4637 180.387
L99.9101 180.351
L100.267 178.802
L100.595 178.699
L100.803 178.652
L101.071 178.652
L101.249 178.2
L103.957 178.124
L104.106 178.049
L104.523 177.974
L104.582 177.974
L104.91 176.769
L104.94 176.769
L105.297 174.79
L105.445 174.732
L106.428 174.732
L106.755 173.647
L108.154 173.563
L108.332 173.488
L112.409 173.381
L112.826 173.373
L113.124 173.267
L113.451 173.111
L113.481 173.111
L113.629 172.921
L114.701 172.86
L115.088 171.867
L124.611 171.791
L124.76 171.208
L124.909 170.282
L125.266 170.206
L125.474 169.604
L144.223 169.565
L144.312 169.272
L144.461 164.95
L144.58 164.799
L144.997 164.71
L145.235 164.64
L146.038 164.543
L146.187 163.706
L146.395 163.494
L147.675 163.488
L147.973 161.217
L148.3 161.066
L148.538 159.92
L148.717 157.657
L149.014 157.582
L149.163 157.506
L149.282 157.492
L149.55 155.372
L149.58 155.372
L149.728 154.429
L150.056 154.384
L153.954 154.278
L154.192 153.751
L154.341 151.904
L154.371 151.572
L154.49 149.678
L154.669 149.58
L154.698 149.558
L154.907 148.684
L154.996 148.584
L155.145 148.495
L158.508 148.442
L158.954 147.591
L159.162 147.476
L159.341 147.401
L159.49 146.737
L159.817 145.537
L160.144 145.493
L173.804 145.417
L174.221 144.898
L181.304 144.792
L181.72 144.784
L188.565 144.678
L188.833 144.603
L188.952 143.894
L189.012 143.894
L189.131 141.112
L189.25 138.886
L189.785 138.752
L197.582 138.646
L198.088 138.615
L208.385 138.518
L208.742 138.465
L213.683 138.359
L214.337 138.345
L231.479 138.253
L231.568 138.043
L231.806 137.061
L231.866 136.98
L232.015 132.801
L232.104 132.801
L232.491 127.575
L232.64 127.514
L241.597 127.433
L241.717 127.19
L242.014 124.732
L242.044 124.732
L242.312 121.716
L244.157 121.641
L244.454 121.362
L246.27 121.292
L246.389 121.022
L246.538 118.382
L246.686 118.081
L246.984 118.036
L247.549 117.989
L261.269 117.891
L261.566 117.869
L261.805 117.833
L261.983 117.629
L262.102 117.492
L262.459 115.606
L262.608 113.028
L263.233 112.25
L263.382 112.174
L263.59 111.709
L263.798 111.488
L263.947 111.173
L264.037 111.031
L264.245 107.959
L264.572 107.914
L267.132 107.825
L267.28 107.719
L267.757 107.537
L267.935 106.966
L268.322 106.807
L268.858 106.767
L269.245 106.767
L269.631 101.988
L269.75 101.051
L270.286 100.95
L270.405 99.3516
L270.554 95.1332
L277.161 95.0411
L277.369 94.8067
L277.964 94.6031
L278.262 94.1148
L281.952 94.0395
L282.041 93.8804
L282.22 92.2595
L283.886 92.1618
L284.005 92.0251
L284.184 89.528
L284.422 89.4164
L287.964 89.3551
L288.321 88.2781
L288.469 87.8764
L288.827 87.8178
L291.475 87.7201
L291.565 87.4244
L291.624 86.9864
L291.743 85.8034
L292.041 85.2147
L292.279 84.1601
L292.309 84.1601
L292.636 82.952
L293.023 82.952
L293.142 80.9934
L293.469 80.826
L293.648 80.7284
L295.939 80.6893
L296.177 79.724
L296.624 79.6347
L297.397 79.5594
L297.665 79.1827
L298.052 79.1074
L298.201 79.0321
L302.01 78.9567
L302.129 76.3397
L302.248 71.5883
L302.695 71.566
L303.111 62.9533
L303.23 62.7803
L303.528 62.4706
L303.677 62.3423
L303.915 62.2056
L305.195 62.1079
L305.195 62.1079" style="fill:none;stroke:#0024ed;stroke-linecap:square;"/>
   </g>
   <g id="line2d_3">
    <path clip-path="url(#pf0709b6b74)" d="
M43.8125 244.518
L43.9613 244.443
L44.0506 243.832
L44.1994 242.769
L44.7946 242.459
L45.2112 242.375
L46.6992 242.308
L46.7885 242.06
L47.1159 240.966
L47.3539 240.701
L47.4432 240.62
L47.592 240.107
L47.8599 237.217
L48.0087 235.967
L48.1872 235.83
L49.1098 235.724
L49.1693 235.665
L49.3776 234.82
L57.1152 234.736
L57.145 234.706
L57.264 234.337
L59.496 234.262
L59.8531 233.922
L60.1507 233.665
L60.3293 233.598
L60.8055 233.5
L60.9543 233.319
L61.1626 232.655
L61.4899 231.84
L61.8173 231.804
L62.9482 231.729
L63.4839 231.185
L69.5251 231.079
L69.7037 230.786
L69.9715 230.755
L72.0547 230.649
L72.1738 230.498
L72.3821 230.228
L72.6202 230.211
L73.0963 230.13
L73.3047 229.753
L73.4535 229.67
L73.7213 229.48
L74.4951 229.391
L74.6736 229.246
L74.8224 228.922
L75.0307 228.838
L75.1498 228.598
L75.2986 227.996
L75.5962 227.399
L75.9235 227.03
L76.0723 226.81
L76.3104 226.721
L77.8877 226.615
L78.3043 226.606
L80.6851 226.509
L81.1911 226.38
L81.697 226.274
L82.0243 225.973
L82.6195 225.658
L83.0957 225.635
L83.8397 225.566
L84.0778 225.114
L84.2266 224.391
L87.1133 224.293
L87.2026 224.179
L87.5299 223.484
L87.649 223.403
L88.0359 221.916
L88.1847 221.908
L88.4227 220.078
L88.5715 219.503
L88.7203 217.927
L88.9287 217
L89.0775 215.809
L89.2263 214.768
L89.4941 211.925
L89.7917 208.756
L89.8215 208.756
L89.9703 208.53
L90 208.53
L90.1488 207.512
L92.3808 207.475
L92.6487 207.051
L96.1008 206.948
L96.5472 205.146
L96.6067 205.137
L96.7258 204.61
L97.0234 204.535
L97.1722 203.703
L97.321 203.703
L97.4698 203.357
L97.7674 203.327
L100.178 203.251
L100.327 203.162
L100.714 202.95
L100.773 202.724
L100.981 199.407
L101.101 199.407
L101.309 197.295
L101.339 197.295
L101.577 196.525
L102.053 196.502
L103.124 196.463
L103.273 196.388
L103.303 196.388
L103.422 195.333
L103.749 192.468
L103.838 192.468
L103.987 192.25
L105.773 192.172
L105.951 191.818
L106.011 190.25
L106.189 189.05
L106.368 188.244
L106.517 187.597
L106.695 187.557
L107.707 187.468
L107.797 187.273
L108.124 184.882
L108.302 184.834
L108.779 184.754
L108.838 184.617
L109.046 182.287
L109.463 179.639
L109.642 179.294
L109.731 179.187
L109.85 178.869
L109.999 178.049
L110.207 178.01
L113.034 177.904
L113.272 177.845
L113.391 177.77
L113.51 177.505
L113.749 173.923
L114.195 173.538
L114.879 173.351
L115.058 172.625
L116.338 172.497
L116.725 172.394
L116.784 172.182
L116.933 171.864
L119.433 171.504
L127.289 171.403
L127.438 171.225
L127.765 170.695
L127.825 170.667
L127.885 169.671
L128.033 168.786
L128.212 168.661
L128.539 168.555
L129.134 168.29
L129.373 168.125
L129.67 168.055
L129.819 167.921
L130.265 167.905
L130.325 167.846
L130.474 166.443
L130.682 163.72
L131.158 163.555
L131.396 162.302
L131.575 159.942
L132.2 159.867
L132.378 158.508
L132.527 158.433
L132.676 158.433
L132.795 158.282
L133.36 158.282
L133.509 158.056
L133.985 157.113
L138.925 157.054
L139.045 156.926
L139.253 156.82
L139.669 156.812
L150.71 156.706
L151.722 156.625
L152.645 156.549
L152.675 156.396
L152.972 151.647
L153.151 151.494
L153.359 147.951
L153.776 147.875
L153.895 147.499
L154.222 147.499
L154.549 146.254
L155.026 146.179
L155.115 145.953
L155.234 145.462
L155.264 145.462
L155.413 143.501
L155.591 142.069
L155.77 141.389
L156.127 136.261
L156.246 136.157
L156.573 135.959
L157.734 135.853
L159.996 135.357
L160.234 135.055
L160.293 134.994
L160.561 134.679
L161.097 134.679
L161.305 132.943
L161.394 132.943
L161.424 132.793
L161.632 126.61
L161.751 126.384
L161.781 126.384
L161.93 122.913
L165.055 122.846
L165.204 122.657
L165.858 122.643
L166.483 122.643
L166.573 121.354
L166.721 120.185
L166.9 120.109
L169.816 120.003
L170.709 119.867
L175.024 119.783
L175.233 119.451
L175.381 119.384
L176.185 119.278
L177.286 119.18
L181.333 119.083
L181.631 118.644
L198.713 118.538
L198.981 118.365
L199.457 110.841
L199.547 110.726
L199.695 106.488
L199.785 105.409
L200.053 100.914
L200.38 100.794
L201.451 100.705
L205.647 100.599
L206.124 100.576
L215.796 100.554
L216.182 98.4951
L218.355 98.3891
L218.772 98.3807
L226.896 98.2747
L227.134 98.1017
L231.598 98.0041
L231.925 97.9594
L238.294 97.8534
L238.502 97.7697
L240.794 97.6944
L240.883 97.513
L241.121 96.5644
L241.389 95.2448
L241.627 92.2204
L241.806 92.1283
L242.133 90.8031
L243.413 90.6971
L243.829 90.6887
L244.127 90.6524
L244.187 90.4264
L244.306 90.1223
L247.609 90.0414
L247.788 89.8684
L247.847 89.6703
L247.996 87.8987
L248.204 87.748
L248.561 87.7118
L248.859 86.2024
L248.948 86.2024
L249.097 85.7504
L250.139 85.6751
L250.317 84.9943
L250.406 84.919
L250.645 84.6176
L251.597 84.6176
L252.073 81.8276
L252.252 81.677
L253.531 81.6017
L253.68 81.5654
L254.751 81.4901
L254.811 81.4147
L255.079 79.9583
L255.287 79.4003
L255.466 79.3306
L257.043 79.2274
L257.132 78.887
L257.4 77.651
L257.727 77.439
L257.936 76.4374
L259.067 76.3313
L259.513 76.1193
L259.781 75.5306
L259.989 74.755
L260.227 74.7327
L263.114 74.6267
L263.56 74.4983
L264.661 74.4062
L264.781 74.2026
L264.87 73.8343
L265.108 72.869
L267.608 72.7629
L268.024 72.7546
L268.709 72.6653
L269.215 71.8701
L270.197 71.8283
L270.435 71.3149
L276 71.2173
L276.238 71.0917
L276.387 70.9132
L276.863 70.8936
L277.696 70.835
L277.905 70.411
L279.958 70.3412
L280.137 69.6744
L280.285 68.9657
L280.524 68.6309
L281.714 68.6282
L285.493 68.5333
L285.791 68.4468
L290.523 68.3436
L290.582 68.2515
L290.88 67.6935
L291.237 67.6098
L291.535 66.6249
L292.457 66.5357
L292.517 66.4938
L292.695 65.4057
L293.082 62.0856
L293.38 62.0856
L293.499 57.7332
L294.094 57.7332
L294.213 55.956
L295.433 55.8639
L295.671 55.6407
L296.029 55.4231
L296.148 55.3282
L296.237 55.2334
L296.386 55.1162
L297.04 54.9432
L297.249 53.6347
L298.35 53.6347
L298.647 52.3346
L303.141 52.2648
L303.29 51.1488
L303.498 49.8654
L304.48 49.8654
L304.48 49.8654" style="fill:none;stroke:#0049db;stroke-linecap:square;"/>
   </g>
   <g id="line2d_4">
    <path clip-path="url(#pf0709b6b74)" d="
M43.8125 244.518
L44.1399 240.581
L44.3184 239.267
L44.3779 239.164
L44.5863 237.711
L45.5683 237.711
L45.7171 237.376
L45.9255 237.113
L47.0861 237.01
L47.4432 236.221
L47.8896 236.165
L49.2288 236.059
L49.6157 236.023
L51.0144 235.917
L51.6394 235.797
L52.1751 235.73
L52.3536 235.59
L52.5024 235.534
L52.9488 233.93
L53.5143 233.679
L54.0202 233.64
L54.169 233.386
L54.9427 233.33
L55.1213 233.135
L55.3594 233.051
L55.5082 232.942
L55.8653 232.594
L56.1034 232.549
L56.1629 232.493
L56.3415 232.242
L56.6093 232.019
L56.8176 230.911
L57.5914 230.387
L57.9783 230.3
L58.0973 230.122
L58.2461 229.536
L58.3949 229.536
L58.5139 229.341
L59.2282 229.313
L59.3472 228.531
L59.5258 226.83
L59.6746 226.327
L59.7639 226.327
L60.0317 224.634
L60.24 224.497
L61.5495 224.394
L61.6983 224.263
L61.8471 223.431
L61.9066 223.398
L62.353 221.138
L62.9184 221.082
L63.0375 220.851
L63.216 220.8
L63.3351 220.719
L64.4362 220.692
L64.585 220.524
L65.2397 220.44
L65.3885 220.134
L65.4778 219.799
L65.7754 217.846
L66.0135 217.589
L66.2813 217.567
L66.4301 217.31
L66.6979 217.296
L68.4538 217.196
L68.7216 216.933
L68.9895 216.032
L69.1383 214.805
L69.2871 214.668
L71.4595 214.372
L73.5725 214.28
L73.8403 213.717
L74.0784 212.015
L74.4951 211.959
L74.6439 211.635
L74.7927 211.596
L75.0605 211.596
L75.1795 211.457
L76.0128 211.373
L76.1914 211.178
L76.3402 211.094
L77.0247 210.592
L79.6733 210.5
L79.8221 210.424
L80.6256 210.324
L80.6554 210.313
L80.8042 210.034
L80.953 210.034
L81.072 209.755
L82.3219 209.696
L82.4707 209.308
L82.56 208.388
L82.8576 205.687
L82.9469 205.606
L83.185 205.374
L83.304 205.347
L83.6016 204.758
L83.7504 204.66
L84.2861 204.309
L84.7623 204.205
L85.0599 203.854
L86.4883 203.751
L86.8157 203.639
L87.5597 203.561
L87.7383 203.248
L88.0359 203.198
L88.0656 203.198
L88.2442 202.78
L88.393 202.696
L88.6013 202.236
L88.7501 202.138
L88.9287 202.026
L89.9107 201.837
L90.2083 201.733
L91.3987 201.672
L91.4583 201.413
L91.6963 199.962
L92.5891 199.853
L93.9283 199.836
L94.4343 199.778
L94.5533 199.543
L94.8211 194.527
L94.9997 194.27
L100.833 194.17
L101.041 194.061
L101.309 194.047
L101.428 193.935
L101.696 193.921
L102.916 193.813
L103.065 193.617
L103.243 193.517
L103.333 193.45
L103.481 192.875
L103.63 191.653
L104.047 191.006
L104.196 190.197
L104.255 190.197
L104.404 190.046
L106.16 189.99
L106.547 189.887
L106.725 189.137
L106.963 186.877
L107.023 186.319
L107.142 184.422
L107.201 184.394
L107.32 184.17
L108.421 184.143
L108.808 183.306
L109.106 183.211
L109.314 182.678
L109.463 182.524
L109.612 180.493
L109.82 180.334
L110.475 180.264
L110.743 179.977
L111.04 179.888
L111.219 179.846
L111.368 178.828
L111.606 178.635
L112.141 178.451
L113.332 178.387
L113.719 177.753
L116.159 177.661
L116.367 176.219
L116.486 175.577
L116.933 175.494
L117.141 174.963
L117.26 174.578
L117.558 174.523
L118.093 174.428
L118.332 174.352
L122.171 174.319
L122.29 173.828
L122.319 173.429
L122.498 168.279
L122.677 167.804
L123.48 167.698
L123.599 167.654
L123.748 167.439
L124.165 167.324
L126.932 167.235
L127.17 166.649
L127.319 165.756
L127.498 165.617
L127.617 163.162
L127.855 160.204
L127.944 160.121
L128.629 159.395
L128.777 159.119
L129.968 158.684
L130.117 158.335
L130.236 157.805
L130.384 157.805
L130.503 157.693
L131.575 157.593
L131.991 157.484
L132.765 157.409
L132.973 157.191
L133.241 155.629
L133.42 155.406
L134.104 155.263
L136.188 155.263
L136.574 153.946
L136.783 153.835
L136.932 153.333
L136.991 153.305
L137.14 153.157
L137.497 153.081
L141.515 152.984
L141.901 152.468
L142.169 149.672
L142.556 149.641
L142.854 149.538
L143.122 148.199
L143.3 146.662
L144.074 146.625
L144.758 146.625
L144.848 146.07
L145.205 137.123
L145.264 137.095
L145.651 135.725
L145.8 135.672
L147.02 135.566
L147.705 135.253
L147.824 134.966
L148.062 134.863
L148.419 134.249
L148.627 132.567
L149.133 132.321
L149.252 131.822
L149.431 129.841
L149.788 129.645
L151.306 129.478
L151.454 129.182
L151.782 129.115
L152.645 129.018
L152.675 129.004
L153.27 123.033
L153.895 122.949
L153.984 122.308
L154.401 117.76
L154.847 117.676
L155.055 117.621
L155.293 117.593
L155.561 115.835
L155.621 115.779
L155.74 115.668
L156.067 115.573
L156.335 115.054
L156.662 114.635
L157.645 114.635
L157.793 114.245
L157.823 114.189
L157.942 113.854
L158.389 113.754
L158.567 113.547
L158.775 112.905
L159.371 112.805
L159.698 112.239
L165.59 112.138
L166.037 111.77
L168.566 111.667
L168.983 111.446
L170.203 111.441
L171.572 111.396
L171.721 111.273
L172.078 111.218
L172.346 111.125
L172.584 111.064
L174.429 110.964
L174.727 110.414
L177.733 110.241
L180.798 110.138
L182.048 109.901
L191.333 109.797
L191.511 109.672
L191.988 109.591
L192.196 109.292
L192.642 109.292
L192.94 108.511
L201.57 108.425
L201.66 108.165
L201.808 107.373
L202.701 107.242
L202.85 106.851
L202.969 106.377
L203.296 106.282
L203.624 106.17
L206.6 106
L207.463 105.903
L207.641 105.866
L210.082 105.76
L210.439 105.629
L216.272 105.52
L216.599 105.448
L216.956 105.364
L217.194 105.141
L217.909 105.085
L218.057 105.029
L220.379 105.001
L220.498 104.918
L222.67 104.812
L222.789 104.722
L223.444 104.722
L223.593 103.606
L223.712 103.467
L227.164 103.378
L227.313 103.313
L230.795 103.224
L231.39 102.895
L241.925 102.853
L242.074 102.301
L242.312 102.156
L242.401 102.128
L242.58 101.877
L242.758 101.782
L243.205 101.57
L243.502 101.466
L243.859 101.444
L245.972 101.43
L246.121 99.8706
L246.359 99.7422
L254.989 99.6362
L255.168 99.4772
L255.406 97.7474
L255.733 91.442
L256.12 89.0314
L256.269 88.931
L256.477 88.6743
L256.686 88.2865
L257.132 85.3877
L257.311 85.1422
L257.579 85.0947
L260.376 84.9943
L260.584 84.188
L260.733 83.5184
L261.537 83.2617
L261.834 83.2115
L262.608 83.1278
L262.906 82.7679
L265.376 82.6646
L265.584 82.6535
L266.001 76.8056
L266.149 76.4876
L266.298 76.3007
L267.31 76.097
L267.518 75.6506
L267.578 75.5669
L267.786 75.1205
L268.054 74.2835
L270.584 74.2277
L270.792 73.028
L271.506 72.6123
L271.566 72.6123
L271.685 71.9957
L274.036 71.912
L274.185 71.7725
L274.274 71.5772
L274.423 71.4377
L274.631 71.354
L274.75 71.1029
L275.077 70.238
L275.197 70.1599
L275.464 69.7358
L275.643 69.2838
L275.732 69.2057
L275.97 67.6823
L276.268 66.3264
L276.387 66.1423
L276.685 64.6468
L276.982 64.6468
L277.161 63.6675
L278.976 63.5699
L279.184 63.2351
L279.839 63.143
L280.137 62.8445
L280.256 62.8445
L280.464 62.1163
L280.583 61.9377
L280.702 61.3128
L281.208 61.3128
L281.446 60.2526
L281.893 60.1577
L282.398 59.5355
L282.637 58.347
L282.785 55.7579
L283.202 55.6574
L283.291 54.946
L283.44 54.4466
L283.916 54.3378
L284.125 54.3182
L284.333 53.3613
L284.869 53.1688
L285.017 53.0321
L285.404 53.0097
L285.553 52.7252
L285.761 52.6554
L285.91 52.4768
L286.208 52.1923
L286.595 50.6438
L287.22 50.549
L288.023 50.2114
L288.708 50.1277
L289.303 49.5278
L289.928 49.4581
L290.255 48.6769
L290.493 48.5792
L291.565 48.5262
L291.713 48.3979
L291.803 48.37
L291.832 48.2584
L292.219 42.9183
L294.154 42.8095
L294.362 42.79
L294.57 42.7174
L295.017 42.2041
L295.076 42.1483
L295.225 41.2834
L295.463 40.0502
L295.701 39.6373
L295.969 36.9031
L299.957 36.7998
L300.641 36.1079
L300.998 35.1593
L301.772 34.978
L301.832 34.9305
L302.07 32.6706
L302.367 30.1541
L302.516 29.8527
L302.933 27.6068
L304.48 27.6068
L304.48 27.6068" style="fill:none;stroke:#006dc8;stroke-linecap:square;"/>
   </g>
   <g id="line2d_5">
    <path clip-path="url(#pf0709b6b74)" d="
M43.8125 244.518
L44.1994 244.49
L44.2291 244.351
L44.3482 243.514
L51.0739 243.43
L51.2227 243.388
L51.5501 243.291
L51.7584 243.257
L52.6215 243.154
L52.7107 243.062
L53.0679 241.851
L53.3655 240.754
L53.7821 240.646
L53.9011 240.495
L54.0499 240.495
L54.1987 240.355
L54.5559 240.355
L54.7047 239.407
L54.913 234.72
L55.2403 231.199
L55.4189 230.763
L56.1034 230.685
L56.4605 230.582
L56.52 230.37
L56.8176 229.391
L56.9962 229.349
L58.5437 229.307
L58.6032 228.693
L58.7818 227.187
L60.8055 227.081
L61.0138 226.991
L61.1328 226.838
L64.1386 226.74
L64.3767 226.643
L65.1504 226.548
L65.3885 226.45
L68.9597 226.35
L69.168 226.294
L70.9239 226.238
L77.0247 226.21
L77.352 225.289
L77.4115 225.289
L77.5603 224.006
L77.9175 223.922
L78.2151 223.588
L78.5127 223.56
L78.6912 223.057
L79.2567 222.667
L79.3459 222.583
L79.5245 222.444
L79.6435 222.388
L79.7923 221.914
L79.9411 221.635
L80.4173 221.314
L81.072 221.3
L81.2208 221.104
L81.697 220.086
L82.6493 220.044
L82.8874 219.668
L85.0301 219.567
L85.2979 219.444
L87.1431 219.336
L87.2323 218.769
L87.3811 218.337
L87.4704 218.231
L87.5895 217.812
L88.0061 217.734
L88.6311 217.664
L88.8691 217.422
L89.0179 217.422
L89.2858 215.82
L89.4048 215.759
L89.5834 215.145
L89.9107 214.78
L90.0893 214.422
L90.3571 214.33
L90.5059 213.778
L90.8035 211.228
L91.0119 211.127
L91.2202 211.113
L91.6368 209.956
L91.9344 209.85
L92.1427 209.677
L92.5296 209.59
L92.7975 209.28
L92.8867 208.622
L93.0653 206.887
L94.7319 206.803
L95.1485 205.955
L95.2973 205.776
L95.5651 204.311
L95.9818 204.231
L96.2794 204.18
L96.4579 203.232
L96.4877 203.204
L96.577 201.335
L96.7853 198.182
L96.9341 198.098
L96.9936 197.959
L97.5293 193.124
L97.7376 193.048
L98.065 192.677
L98.3328 192.473
L98.9578 192.379
L99.1066 191.988
L99.2554 191.988
L99.3744 191.876
L99.4339 191.849
L99.672 191.477
L100.237 191.41
L100.595 190.579
L100.773 189.282
L100.922 187.624
L102.499 187.524
L102.678 186.436
L102.886 186.101
L103.065 185.387
L103.392 184.603
L103.511 184.483
L103.719 184.285
L103.838 184.148
L104.434 182.335
L104.642 180.131
L105.029 180.066
L105.535 178.794
L106.606 178.596
L106.666 178.289
L106.993 175.973
L107.231 175.873
L107.499 175.591
L108.957 175.588
L109.285 174.383
L110.981 174.285
L111.04 174.23
L111.1 173.002
L111.338 170.675
L111.606 170.53
L112.201 170.519
L112.35 169.57
L112.677 169.57
L112.826 169.319
L112.856 169.291
L112.975 169.082
L114.076 169.012
L114.373 168.457
L114.82 168.44
L116.665 168.337
L117.469 167.863
L118.867 167.813
L118.927 167.394
L119.046 166.878
L119.403 166.808
L119.611 162.261
L120.206 162.16
L120.355 161.982
L120.623 160.168
L120.831 159.973
L121.129 159.945
L122.23 159.892
L122.468 159.415
L122.885 155.193
L123.272 155.132
L125.385 155.04
L125.474 154.923
L125.95 152.044
L126.188 151.996
L127.498 151.982
L127.736 151.91
L127.914 150.933
L128.271 150.791
L128.48 150.707
L128.629 150.545
L130.712 150.459
L130.89 150.146
L131.069 149.951
L132.259 149.948
L133.717 149.851
L133.747 149.817
L133.985 147.501
L134.64 147.501
L135.086 143.369
L135.265 143.316
L139.283 143.208
L139.699 142.655
L139.878 142.535
L140.086 141.475
L140.324 138.992
L140.354 138.992
L140.473 137.904
L140.681 136.09
L140.86 136.062
L141.425 135.979
L141.782 135.783
L142.05 135.783
L142.437 134.592
L146.931 134.492
L147.109 134.241
L147.288 131.183
L147.407 130.6
L147.467 130.488
L147.586 129.344
L147.615 129.344
L147.734 127.614
L148.33 127.531
L148.389 126.917
L148.568 125.578
L148.597 125.578
L148.746 124.852
L149.133 124.743
L149.52 124.211
L149.728 124.127
L149.877 123.848
L149.937 123.848
L150.264 121.309
L150.443 121.281
L150.651 121.203
L150.859 121.086
L150.978 120.994
L151.216 120.846
L152.317 120.779
L152.526 120.115
L152.645 120.026
L152.704 119.216
L152.883 118.017
L153.419 117.933
L154.52 117.849
L154.669 117.794
L155.948 117.71
L156.097 114.557
L156.246 113.86
L156.395 113.804
L157.139 113.698
L157.228 113.636
L157.406 112.007
L157.674 111.435
L157.972 111.321
L160.263 111.262
L160.561 110.729
L160.71 110.679
L160.829 110.364
L164.221 109.948
L164.251 109.898
L164.489 108.308
L164.579 108.112
L164.787 107.822
L165.977 107.819
L167.168 107.805
L167.465 106.396
L171.632 106.299
L171.9 106.187
L172.733 106.103
L173.001 105.922
L224.247 105.816
L224.843 105.763
L224.902 105.76
L225.2 104.178
L225.765 104.081
L226.033 104.017
L227.253 104.011
L227.848 103.919
L227.967 103.442
L228.205 101.941
L228.503 101.835
L229.753 101.737
L230.021 101.723
L234.217 101.639
L234.366 101.584
L234.396 101.584
L234.544 101.416
L234.812 101.402
L241.389 101.305
L241.449 100.858
L241.597 100.468
L241.687 100.244
L241.717 100.161
L242.133 93.9948
L242.341 93.8274
L242.55 93.2973
L242.788 91.4001
L243.056 89.0844
L243.77 88.5543
L245.615 88.4985
L245.645 88.4427
L245.794 86.406
L245.942 82.9464
L246.24 82.3326
L246.389 82.076
L246.865 82.0508
L249.662 82.0397
L249.811 81.4956
L249.99 77.3943
L250.258 76.7415
L251.597 76.7247
L260.317 76.6243
L260.436 76.5015
L260.584 76.3202
L262.281 76.1109
L263.65 76.03
L263.739 75.8291
L263.947 75.4413
L264.84 75.3576
L264.929 75.1902
L265.108 74.9057
L265.465 74.7717
L265.584 74.5764
L266.893 74.4704
L267.846 74.2277
L268.858 74.2137
L269.066 72.7908
L269.483 72.7071
L269.542 72.5118
L269.691 71.6748
L269.81 71.5772
L269.989 71.527
L272.756 71.4237
L272.786 71.3958
L272.965 70.5142
L273.143 70.2519
L273.709 70.1682
L273.857 69.6995
L274.066 69.68
L276.03 69.5823
L276.238 69.1025
L277.131 68.9155
L277.339 68.8653
L278.053 68.8569
L278.232 68.2794
L278.44 68.165
L282.131 68.0562
L282.726 67.8414
L301.623 67.7326
L301.683 67.66
L302.427 62.7692
L302.605 62.5934
L302.844 62.5125
L303.439 61.1565
L303.617 58.4223
L303.915 57.4961
L304.153 57.39
L304.48 57.3621
L304.48 57.3621" style="fill:none;stroke:#0092b6;stroke-linecap:square;"/>
   </g>
   <g id="line2d_6">
    <path clip-path="url(#pf0709b6b74)" d="
M43.8125 244.518
L51.1335 244.409
L52.1751 244.203
L52.3834 244.183
L56.1331 244.13
L56.2224 242.401
L56.5498 237.434
L57.4426 237.379
L57.5914 237.239
L57.6807 237.239
L57.7997 221.224
L57.9187 221.224
L58.0973 219.941
L58.2461 218.8
L58.3949 218.616
L58.4544 218.616
L58.6032 218.155
L59.2877 218.049
L59.4365 217.946
L59.8531 216.188
L60.0615 215.812
L60.6567 215.731
L60.7757 215.463
L60.984 214.821
L61.2816 214.598
L61.4007 214.18
L61.8471 214.18
L62.1149 211.641
L62.4125 211.543
L62.8887 211.432
L65.6563 211.323
L66.3408 211.25
L66.5194 209.66
L67.2039 209.339
L68.3943 209.23
L69.2275 209.186
L72.2035 209.08
L73.1856 208.787
L73.513 208.22
L74.257 207.788
L75.2688 207.707
L75.6557 207.601
L75.8938 207.539
L76.2509 205.698
L76.3402 205.698
L76.489 205.494
L77.7984 205.48
L78.2151 205.397
L78.6019 203.926
L79.9411 203.82
L80.0007 203.661
L80.1792 203.075
L80.2685 202.992
L80.2983 202.964
L80.5066 200.592
L80.6851 197.412
L80.8339 196.017
L81.1018 195.141
L81.3696 194.957
L81.5482 194.053
L81.9648 194.014
L83.0659 193.913
L83.185 193.729
L83.3338 192.683
L83.6314 192.655
L85.9229 192.574
L86.5776 191.804
L86.905 191.72
L86.9943 191.134
L87.1728 189.762
L87.4109 189.709
L90.1191 189.611
L90.2381 189.418
L90.3571 188.512
L90.5059 188.138
L92.5891 188.051
L94.7914 187.943
L95.3866 187.775
L95.6247 187.675
L95.6544 187.647
L95.8032 187.256
L95.9818 186.949
L96.1603 186.029
L96.2199 185.917
L96.3984 185.116
L96.577 184.885
L96.7555 183.378
L96.8746 182.987
L97.1722 181.364
L97.4103 180.343
L97.7674 178.802
L97.9162 178.802
L98.2733 175.733
L98.4221 173.454
L98.6007 173.376
L98.9875 173.334
L99.1959 172.553
L99.2554 172.385
L99.4339 171.498
L99.6423 171.345
L100.476 171.325
L100.922 168.77
L101.13 168.689
L101.309 168.63
L101.577 168.354
L103.184 168.265
L103.481 168.159
L104.344 168.055
L104.434 167.913
L104.821 164.88
L104.999 163.218
L105.505 163.123
L105.773 163.022
L106.041 162.899
L106.309 160.054
L106.457 159.998
L106.874 159.909
L106.963 159.775
L107.291 158.77
L107.41 158.714
L107.499 158.435
L107.707 156.845
L107.856 156.58
L108.035 155.952
L108.243 155.445
L108.898 155.339
L109.046 155.311
L109.255 154.652
L110.445 154.543
L110.624 154.457
L113.272 154.139
L113.451 153.999
L114.79 153.983
L116.338 153.877
L116.576 153.653
L116.933 153.609
L117.052 153.525
L117.707 153.511
L118.034 152.8
L118.57 152.702
L118.957 152.632
L119.879 152.576
L120.236 151.633
L120.534 151.472
L120.802 151.321
L120.861 151.181
L121.04 149.471
L121.189 149.401
L121.873 149.256
L122.141 148.294
L122.617 148.188
L122.885 148.062
L125.057 147.965
L125.504 147.797
L125.98 147.691
L126.426 147.409
L126.486 147.275
L126.664 146.355
L126.724 146.355
L126.754 146.02
L126.902 141.863
L126.932 141.807
L127.111 135.334
L127.141 135.306
L127.289 134.246
L127.438 132.868
L127.825 132.02
L128.063 131.833
L129.73 131.73
L129.849 131.515
L129.908 130.887
L130.057 130.086
L130.236 130.053
L131.932 129.961
L132.021 129.738
L132.408 128.013
L132.616 127.93
L132.765 127.617
L132.944 125.971
L136.634 125.862
L138.062 125.837
L145.264 125.759
L145.383 125.589
L145.592 124.749
L145.77 124.704
L147.734 124.464
L147.794 124.325
L147.943 123.097
L148.181 123.019
L148.27 122.902
L148.568 121.116
L148.806 120.949
L148.925 120.558
L149.252 120.458
L149.52 120.391
L153.121 120.307
L153.151 120.252
L153.3 119.721
L155.055 119.632
L155.442 119.219
L155.561 119.136
L156.037 115.704
L156.841 115.623
L157.049 115.553
L157.674 115.397
L157.912 115.034
L158.091 114.923
L158.269 114.867
L158.418 113.472
L158.537 112.607
L158.805 112.267
L170.322 112.216
L170.501 111.965
L179.012 111.865
L179.161 111.689
L179.221 111.103
L179.518 108.037
L182.643 107.934
L183.03 107.9
L184.369 107.808
L184.548 107.78
L185.351 107.669
L234.157 107.56
L234.574 107.264
L248.145 107.208
L248.204 106.929
L248.353 105.981
L248.502 105.925
L249.871 105.841
L249.99 105.757
L250.198 105.757
L250.496 100.959
L250.615 98.6709
L250.823 98.6151
L253.382 98.5314
L253.769 98.3082
L254.722 98.2245
L254.989 97.4991
L255.228 97.0248
L255.347 96.9969
L255.614 95.6856
L256.21 95.6577
L256.358 95.4903
L258.62 95.4066
L259.364 93.7884
L259.811 92.8398
L259.9 92.6445
L260.108 92.3655
L261.775 92.3376
L261.924 91.7517
L262.072 91.7238
L262.221 90.9426
L262.4 90.9147
L268.679 90.831
L268.858 90.8031
L269.81 90.7194
L270.018 90.4404
L270.346 90.273
L270.673 90.1893
L270.911 90.1056
L271.238 90.0219
L271.417 89.994
L272.548 89.9661
L272.786 89.0454
L273.143 88.9617
L273.351 88.9059
L273.441 88.878
L273.738 88.32
L273.828 88.2921
L274.066 86.1996
L274.899 86.1159
L275.821 85.3905
L276.119 85.3347
L276.417 84.8046
L276.714 84.6651
L278.619 84.6093
L278.857 83.3259
L279.036 81.903
L279.184 81.8193
L282.488 81.7635
L282.875 81.066
L282.994 79.4199
L283.023 79.4199
L283.142 79.1409
L283.321 78.8619
L283.44 78.7503
L283.589 78.7503
L283.767 78.4155
L284.392 77.4669
L284.601 77.4111
L285.255 77.3553
L285.642 76.8531
L285.732 76.8531
L286.059 74.2305
L286.208 71.3568
L286.267 71.3289
L286.416 70.743
L286.595 70.7151
L288.023 70.6593
L288.112 70.3245
L288.261 69.4317
L288.469 69.3759
L288.678 69.2922
L288.856 69.1527
L289.481 69.069
L289.541 68.5668
L289.749 67.4508
L290.88 67.4508
L291.267 65.3862
L292.1 64.047
L293.737 63.9633
L293.826 63.7401
L294.213 61.6476
L294.273 61.5639
L294.57 61.0059
L296.475 60.978
L296.832 60.2247
L298.885 60.1968
L299.005 60.0015
L299.064 59.9736
L299.391 58.5507
L299.927 57.7416
L302.605 57.7137
L302.903 56.9325
L304.391 56.8767
L304.57 56.7372
L305.195 56.7372
L305.195 56.7372" style="fill:none;stroke:#00b6a4;stroke-linecap:square;"/>
   </g>
   <g id="line2d_7">
    <path clip-path="url(#pf0709b6b74)" d="
M43.8125 244.518
L48.3658 244.434
L48.5443 244.128
L48.6931 242.175
L49.1098 242.091
L49.2586 241.923
L49.5264 241.896
L49.6752 241.365
L49.9133 241.282
L50.2407 241.282
L50.9549 236.65
L51.193 236.427
L51.3715 236.343
L51.5501 236.316
L60.2698 236.288
L60.6864 235.116
L60.8352 235.032
L61.4899 234.558
L61.5197 234.558
L61.6983 233.609
L61.7578 233.609
L61.9959 233.107
L62.0554 233.107
L62.3827 231.573
L63.4541 231.489
L63.5434 231.126
L63.8112 228.42
L63.9898 226.746
L64.2874 226.606
L64.4362 226.578
L65.0611 224.625
L65.2695 224.57
L70.8941 224.486
L71.1024 224.43
L71.3405 224.346
L72.025 223.844
L77.2032 223.761
L77.352 223.593
L77.5008 222.924
L80.1197 222.84
L80.2983 222.812
L81.5184 222.728
L81.816 218.208
L81.9648 216.953
L82.3517 216.869
L82.56 216.674
L83.5719 216.59
L83.8992 215.753
L85.6551 215.67
L85.7443 215.363
L85.9527 214.358
L86.0122 214.191
L86.1312 214.051
L86.905 213.968
L87.1133 213.8
L87.5299 213.772
L87.8275 213.186
L89.7917 213.103
L90.1786 212.266
L97.6483 212.182
L97.8269 212.154
L99.7018 212.07
L99.8506 211.903
L99.9101 211.819
L100.059 211.15
L100.237 210.452
L100.476 210.369
L100.892 210.285
L101.13 209.978
L101.368 209.336
L101.458 209.253
L101.696 209.169
L111.011 209.085
L111.1 208.946
L111.278 207.551
L111.814 207.495
L112.171 206.742
L112.35 206.742
L112.885 202.305
L113.064 202.082
L113.302 201.999
L113.838 201.636
L115.058 201.552
L115.207 201.413
L116.844 201.357
L116.992 200.883
L121.099 200.799
L121.278 200.408
L121.367 198.427
L121.605 194.27
L121.784 193.294
L121.933 193.043
L131.694 192.959
L131.872 192.931
L132.884 192.847
L133.033 192.68
L133.539 192.596
L133.777 192.513
L134.313 192.429
L134.61 192.289
L134.997 192.234
L135.146 191.703
L135.325 191.48
L141.366 191.397
L141.515 191.257
L141.991 191.173
L142.318 191.006
L142.973 190.922
L143.151 190.894
L144.848 190.811
L145.086 190.727
L147.973 190.643
L148.062 190.085
L148.211 189.611
L148.419 189.555
L148.568 189.499
L149.193 185.035
L149.341 184.98
L149.728 184.896
L149.788 184.701
L149.937 183.612
L149.996 183.585
L150.264 182.999
L152.794 182.915
L153.002 182.859
L157.079 182.775
L157.258 182.748
L160.263 182.692
L160.412 182.636
L164.519 182.552
L164.757 182.413
L164.876 181.492
L164.906 181.492
L165.025 180.488
L165.233 180.209
L168.447 180.125
L168.894 178.535
L169.072 178.228
L169.281 177.865
L169.429 176.414
L169.459 176.414
L169.638 175.633
L170.203 175.242
L171.959 175.159
L172.167 174.991
L174.608 174.908
L174.816 174.852
L180.857 174.768
L181.066 174.712
L184.28 174.657
L184.637 174.182
L200.677 174.099
L201.035 173.903
L203.981 173.82
L204.159 173.792
L210.707 173.708
L210.736 173.624
L210.855 172.983
L211.064 172.927
L211.272 172.843
L211.51 172.118
L212.343 172.034
L212.522 171.922
L212.849 171.839
L213.206 171.643
L214.456 171.588
L214.635 171.476
L215.2 171.42
L215.438 171.002
L218.92 170.918
L219.069 170.806
L219.218 169.439
L219.397 169.244
L219.575 169.16
L220.17 168.742
L220.319 168.658
L220.885 168.267
L225.587 168.184
L225.706 167.933
L225.973 167.458
L226.479 167.375
L226.777 167.04
L227.164 166.984
L227.551 166.454
L227.64 166.37
L227.908 166.259
L233.116 166.175
L233.235 166.091
L234.098 166.008
L234.187 165.45
L234.336 164.222
L234.782 164.138
L234.842 164.082
L235.199 161.292
L235.348 159.981
L235.497 159.088
L235.735 158.586
L235.884 158.502
L236.419 158.14
L236.657 158.056
L236.836 158.028
L237.133 157.972
L237.431 157.638
L237.639 157.554
L237.907 157.219
L238.294 156.047
L238.473 153.034
L238.741 152.922
L240.437 152.895
L240.586 152.504
L258.144 152.448
L258.293 151.862
L258.442 151.723
L258.709 147.231
L258.918 146.617
L260.674 146.589
L260.852 145.947
L261.031 145.92
L261.745 145.836
L262.013 145.724
L262.072 145.668
L262.221 144.664
L262.4 144.329
L262.727 144.246
L262.935 144.19
L263.412 144.106
L263.739 143.939
L264.453 143.883
L264.602 143.241
L264.751 143.046
L265.257 143.018
L265.792 141.818
L266.06 141.707
L269.81 141.623
L270.256 141.344
L271.655 141.288
L271.715 140.814
L271.893 138.805
L271.982 138.749
L272.161 137.773
L273.887 137.689
L274.601 131.272
L282.637 131.188
L283.083 130.24
L283.142 130.184
L283.291 130.072
L283.47 130.017
L283.589 129.57
L283.738 129.431
L286.565 129.375
L286.714 129.124
L286.892 129.096
L287.011 129.012
L287.368 128.817
L296.415 128.733
L296.624 128.482
L296.832 127.924
L296.892 127.896
L297.04 127.785
L297.636 127.729
L297.844 127.45
L298.231 127.366
L298.409 127.282
L298.558 126.585
L298.707 126.501
L299.005 125.971
L304.48 125.971
L304.48 125.971" style="fill:none;stroke:#00db92;stroke-linecap:square;"/>
   </g>
   <g id="line2d_8">
    <path clip-path="url(#pf0709b6b74)" d="
M43.8125 244.518
L48.6931 244.462
L48.8419 244.072
L49.08 242.76
L49.2883 242.677
L49.6157 241.979
L49.7645 240.975
L50.2704 240.891
L50.9251 240.417
L51.312 240.333
L51.5203 240.166
L51.6394 240.082
L52.0858 239.58
L52.4131 237.348
L52.6215 237.041
L52.8 236.957
L52.9488 236.818
L63.9005 236.734
L63.96 236.26
L64.4362 231.433
L64.7933 231.349
L64.9719 231.21
L67.5015 231.154
L67.7693 228.922
L69.2871 228.838
L69.5251 228.755
L69.7037 228.671
L70.0906 228.336
L70.2394 228.057
L70.5072 227.973
L70.6858 227.918
L70.8346 226.439
L71.3107 225.072
L71.9059 225.072
L72.144 220.915
L72.3226 220.887
L72.5309 220.887
L72.6499 219.743
L72.769 217.623
L73.2749 217.567
L73.4237 217.511
L73.6915 217.399
L73.8106 217.399
L74.0784 215.474
L74.2867 209.532
L74.4355 208.974
L74.5843 208.946
L74.7629 208.137
L74.9117 207.523
L75.0903 207.383
L75.5069 207.327
L75.6855 204.175
L75.8343 202.166
L76.0128 201.971
L76.2211 201.664
L76.489 199.878
L76.6973 199.822
L76.7568 199.794
L76.9949 198.595
L77.2627 198.483
L78.0365 198.399
L78.1853 198.26
L78.84 198.204
L79.0781 197.479
L80.0304 197.395
L80.2387 196.614
L80.328 196.586
L80.4768 196.474
L84.9111 196.446
L85.1491 195.303
L85.7146 195.275
L85.9824 194.772
L86.1907 194.689
L86.3098 194.521
L86.5181 193.768
L86.6669 193.712
L86.8752 191.843
L86.9347 191.787
L87.3514 190.336
L87.4109 190.308
L87.5299 189.834
L87.6787 189.75
L87.8573 188.774
L87.8871 188.69
L88.0359 187.351
L88.0656 187.351
L88.1847 187.044
L89.4346 186.96
L89.6727 186.43
L89.9107 184.701
L90.0595 184.422
L90.2381 184.226
L91.8749 184.17
L92.113 182.608
L92.2618 182.106
L92.4999 180.153
L92.7379 178.032
L92.8867 175.661
L93.0058 174.768
L93.2141 173.178
L95.8032 173.094
L96.0711 172.983
L97.4995 172.927
L97.5591 172.09
L97.7079 170.22
L97.8864 169.802
L103.957 169.718
L104.136 169.69
L104.463 169.69
L104.672 166.593
L104.731 166.593
L104.91 164.752
L105.148 164.529
L105.594 164.445
L105.832 164.055
L106.16 163.72
L106.725 158.809
L106.785 158.781
L106.904 156.856
L107.023 156.522
L107.172 156.466
L107.291 156.326
L108.273 156.27
L108.481 155.852
L109.136 149.602
L109.165 149.602
L109.314 149.212
L109.582 149.1
L111.338 149.016
L111.576 148.765
L111.725 148.682
L112.231 147.203
L120.058 147.119
L120.147 147.036
L120.325 145.334
L121.486 145.25
L121.903 144.999
L123.272 144.915
L123.361 143.994
L123.569 141.288
L123.867 140.73
L124.7 140.73
L124.789 140.005
L124.909 139.614
L125.087 139.53
L125.266 139.503
L125.414 139.447
L125.98 136.043
L126.099 135.736
L126.218 134.983
L126.902 134.899
L126.962 134.843
L127.141 134.313
L127.26 134.229
L127.527 134.118
L133.479 134.034
L133.777 133.895
L135.086 133.895
L135.205 133.002
L135.473 128.259
L135.89 127.701
L136.128 127.645
L136.366 127.031
L136.604 126.613
L141.842 126.585
L142.11 125.999
L142.288 125.859
L143.568 125.776
L143.747 125.664
L143.925 125.636
L144.133 125.58
L144.282 125.301
L144.431 123.432
L160.978 123.376
L161.156 123.042
L161.394 123.014
L161.543 122.763
L162.466 122.679
L163.12 122.205
L163.835 122.149
L164.102 121.674
L164.251 121.591
L164.46 121.535
L164.668 121.451
L164.876 121.116
L170.56 121.033
L170.917 120.837
L172.197 120.754
L172.405 120.698
L187.285 120.698
L187.434 120.252
L195.142 120.168
L195.321 120.056
L199.338 120.056
L199.457 119.805
L203.951 119.749
L204.159 119.554
L204.368 119.47
L204.725 114.504
L208.415 114.42
L208.534 114.225
L212.373 114.169
L212.522 114.03
L216.391 113.946
L216.54 113.723
L216.659 113.556
L232.342 113.458
L232.491 113.402
L246.3 113.318
L246.478 113.039
L246.686 112.732
L249.037 112.649
L249.305 112.537
L253.025 112.509
L253.174 111.84
L253.323 110.277
L253.621 108.324
L254.067 108.241
L254.394 108.073
L254.484 108.045
L254.781 107.264
L254.93 107.18
L255.109 106.315
L255.228 105.702
L255.317 105.674
L255.585 104.753
L256.091 104.669
L256.299 104.614
L256.686 104.53
L257.073 104.028
L257.341 103.944
L257.519 103.693
L259.632 103.609
L260.138 103.274
L261.239 103.219
L261.358 102.577
L261.834 93.5652
L262.013 93.4536
L262.31 93.3141
L263.233 93.2304
L263.501 93.1188
L263.858 93.0351
L264.037 93.0072
L264.423 92.9514
L264.691 92.6724
L265.108 92.4213
L267.132 92.3376
L267.489 91.9749
L267.637 91.5843
L267.846 91.5285
L269.542 91.4727
L270.108 90.2172
L270.227 88.8501
L270.465 86.7855
L270.733 84.2187
L270.971 84.135
L275.762 84.0513
L275.881 83.6886
L276.119 81.8751
L276.268 80.3406
L276.476 79.9779
L276.655 79.7826
L278.113 79.7547
L278.381 77.8296
L278.559 75.3744
L278.768 75.207
L281.089 75.1233
L281.535 74.8443
L282.666 74.7885
L282.934 73.3656
L283.202 71.859
L283.232 71.859
L284.035 69.2085
L284.244 69.1527
L284.273 69.1527
L284.601 67.6182
L285.107 67.2834
L285.166 67.2276
L285.374 67.0323
L285.583 66.9486
L285.761 66.6696
L285.97 66.2511
L286.118 66.1953
L286.565 65.5815
L286.773 65.5257
L286.952 65.442
L287.16 65.3862
L288.886 65.3025
L289.243 65.1072
L290.642 65.0235
L290.761 64.8561
L291.237 62.0382
L291.565 61.8708
L291.922 61.8429
L292.041 60.1131
L292.249 60.0573
L295.374 59.9736
L295.493 59.7504
L295.761 59.304
L296.029 59.2203
L296.148 58.9971
L296.296 58.2717
L296.445 57.8532
L296.594 57.5742
L296.743 57.4905
L297.159 50.3202
L297.517 48.7159
L297.695 48.5764
L297.903 48.0882
L298.38 48.0882
L298.499 47.9626
L299.153 47.8789
L299.629 44.8099
L300.522 44.8099
L300.76 44.2101
L301.385 44.1682
L301.534 43.6381
L301.772 42.7732
L301.951 42.6756
L302.1 42.5221
L302.695 42.4384
L303.32 41.7409
L303.379 41.7409
L303.528 41.4759
L303.736 41.2387
L304.48 41.2387
L304.48 41.2387" style="fill:none;stroke:#0000ff;stroke-linecap:square;"/>
   </g>
   <g id="patch_3">
    <path d="
M311.653 244.518
L311.653 21.3181" style="fill:none;stroke:#000000;stroke-linecap:square;stroke-linejoin:miter;"/>
   </g>
   <g id="patch_4">
    <path d="
M43.8125 244.518
L311.653 244.518" style="fill:none;stroke:#000000;stroke-linecap:square;stroke-linejoin:miter;"/>
   </g>
   <g id="patch_5">
    <path d="
M43.8125 244.518
L43.8125 21.3181" style="fill:none;stroke:#000000;stroke-linecap:square;stroke-linejoin:miter;"/>
   </g>
   <g id="patch_6">
    <path d="
M43.8125 21.3181
L311.653 21.3181" style="fill:none;stroke:#000000;stroke-linecap:square;stroke-linejoin:miter;"/>
   </g>
   <g id="matplotlib.axis_1">
    <g id="xtick_1">
     <g id="line2d_9">
      <defs>
       <path d="
M0 0
L0 -4" id="mc7db9fdffb" style="stroke:#000000;stroke-width:0.5;"/>
      </defs>
      <g>
       <use style="stroke:#000000;stroke-width:0.5;" x="43.8125" xlink:href="#mc7db9fdffb" y="244.518125"/>
      </g>
     </g>
     <g id="line2d_10">
      <defs>
       <path d="
M0 0
L0 4" id="m5a7d422ac3" style="stroke:#000000;stroke-width:0.5;"/>
      </defs>
      <g>
       <use style="stroke:#000000;stroke-width:0.5;" x="43.8125" xlink:href="#m5a7d422ac3" y="21.318125"/>
      </g>
     </g>
     <g id="text_1">
      <!-- 0 -->
      <defs>
       <path d="
M31.7812 66.4062
Q24.1719 66.4062 20.3281 58.9062
Q16.5 51.4219 16.5 36.375
Q16.5 21.3906 20.3281 13.8906
Q24.1719 6.39062 31.7812 6.39062
Q39.4531 6.39062 43.2812 13.8906
Q47.125 21.3906 47.125 36.375
Q47.125 51.4219 43.2812 58.9062
Q39.4531 66.4062 31.7812 66.4062
M31.7812 74.2188
Q44.0469 74.2188 50.5156 64.5156
Q56.9844 54.8281 56.9844 36.375
Q56.9844 17.9688 50.5156 8.26562
Q44.0469 -1.42188 31.7812 -1.42188
Q19.5312 -1.42188 13.0625 8.26562
Q6.59375 17.9688 6.59375 36.375
Q6.59375 54.8281 13.0625 64.5156
Q19.5312 74.2188 31.7812 74.2188" id="BitstreamVeraSans-Roman-30"/>
      </defs>
      <g transform="translate(41.29296875 256.1165625)scale(0.1 -0.1)">
       <use xlink:href="#BitstreamVeraSans-Roman-30"/>
      </g>
     </g>
    </g>
    <g id="xtick_2">
     <g id="line2d_11">
      <g>
       <use style="stroke:#000000;stroke-width:0.5;" x="73.5725" xlink:href="#mc7db9fdffb" y="244.518125"/>
      </g>
     </g>
     <g id="line2d_12">
      <g>
       <use style="stroke:#000000;stroke-width:0.5;" x="73.5725" xlink:href="#m5a7d422ac3" y="21.318125"/>
      </g>
     </g>
     <g id="text_2">
      <!-- 1000 -->
      <defs>
       <path d="
M12.4062 8.29688
L28.5156 8.29688
L28.5156 63.9219
L10.9844 60.4062
L10.9844 69.3906
L28.4219 72.9062
L38.2812 72.9062
L38.2812 8.29688
L54.3906 8.29688
L54.3906 0
L12.4062 0
z
" id="BitstreamVeraSans-Roman-31"/>
      </defs>
      <g transform="translate(61.72875 256.1165625)scale(0.1 -0.1)">
       <use xlink:href="#BitstreamVeraSans-Roman-31"/>
       <use x="63.623046875" xlink:href="#BitstreamVeraSans-Roman-30"/>
       <use x="127.24609375" xlink:href="#BitstreamVeraSans-Roman-30"/>
       <use x="190.869140625" xlink:href="#BitstreamVeraSans-Roman-30"/>
      </g>
     </g>
    </g>
    <g id="xtick_3">
     <g id="line2d_13">
      <g>
       <use style="stroke:#000000;stroke-width:0.5;" x="103.3325" xlink:href="#mc7db9fdffb" y="244.518125"/>
      </g>
     </g>
     <g id="line2d_14">
      <g>
       <use style="stroke:#000000;stroke-width:0.5;" x="103.3325" xlink:href="#m5a7d422ac3" y="21.318125"/>
      </g>
     </g>
     <g id="text_3">
      <!-- 2000 -->
      <defs>
       <path d="
M19.1875 8.29688
L53.6094 8.29688
L53.6094 0
L7.32812 0
L7.32812 8.29688
Q12.9375 14.1094 22.625 23.8906
Q32.3281 33.6875 34.8125 36.5312
Q39.5469 41.8438 41.4219 45.5312
Q43.3125 49.2188 43.3125 52.7812
Q43.3125 58.5938 39.2344 62.25
Q35.1562 65.9219 28.6094 65.9219
Q23.9688 65.9219 18.8125 64.3125
Q13.6719 62.7031 7.8125 59.4219
L7.8125 69.3906
Q13.7656 71.7812 18.9375 73
Q24.125 74.2188 28.4219 74.2188
Q39.75 74.2188 46.4844 68.5469
Q53.2188 62.8906 53.2188 53.4219
Q53.2188 48.9219 51.5312 44.8906
Q49.8594 40.875 45.4062 35.4062
Q44.1875 33.9844 37.6406 27.2188
Q31.1094 20.4531 19.1875 8.29688" id="BitstreamVeraSans-Roman-32"/>
      </defs>
      <g transform="translate(91.3059375 256.1165625)scale(0.1 -0.1)">
       <use xlink:href="#BitstreamVeraSans-Roman-32"/>
       <use x="63.623046875" xlink:href="#BitstreamVeraSans-Roman-30"/>
       <use x="127.24609375" xlink:href="#BitstreamVeraSans-Roman-30"/>
       <use x="190.869140625" xlink:href="#BitstreamVeraSans-Roman-30"/>
      </g>
     </g>
    </g>
    <g id="xtick_4">
     <g id="line2d_15">
      <g>
       <use style="stroke:#000000;stroke-width:0.5;" x="133.0925" xlink:href="#mc7db9fdffb" y="244.518125"/>
      </g>
     </g>
     <g id="line2d_16">
      <g>
       <use style="stroke:#000000;stroke-width:0.5;" x="133.0925" xlink:href="#m5a7d422ac3" y="21.318125"/>
      </g>
     </g>
     <g id="text_4">
      <!-- 3000 -->
      <defs>
       <path d="
M40.5781 39.3125
Q47.6562 37.7969 51.625 33
Q55.6094 28.2188 55.6094 21.1875
Q55.6094 10.4062 48.1875 4.48438
Q40.7656 -1.42188 27.0938 -1.42188
Q22.5156 -1.42188 17.6562 -0.515625
Q12.7969 0.390625 7.625 2.20312
L7.625 11.7188
Q11.7188 9.32812 16.5938 8.10938
Q21.4844 6.89062 26.8125 6.89062
Q36.0781 6.89062 40.9375 10.5469
Q45.7969 14.2031 45.7969 21.1875
Q45.7969 27.6406 41.2812 31.2656
Q36.7656 34.9062 28.7188 34.9062
L20.2188 34.9062
L20.2188 43.0156
L29.1094 43.0156
Q36.375 43.0156 40.2344 45.9219
Q44.0938 48.8281 44.0938 54.2969
Q44.0938 59.9062 40.1094 62.9062
Q36.1406 65.9219 28.7188 65.9219
Q24.6562 65.9219 20.0156 65.0312
Q15.375 64.1562 9.8125 62.3125
L9.8125 71.0938
Q15.4375 72.6562 20.3438 73.4375
Q25.25 74.2188 29.5938 74.2188
Q40.8281 74.2188 47.3594 69.1094
Q53.9062 64.0156 53.9062 55.3281
Q53.9062 49.2656 50.4375 45.0938
Q46.9688 40.9219 40.5781 39.3125" id="BitstreamVeraSans-Roman-33"/>
      </defs>
      <g transform="translate(121.08078125 256.1165625)scale(0.1 -0.1)">
       <use xlink:href="#BitstreamVeraSans-Roman-33"/>
       <use x="63.623046875" xlink:href="#BitstreamVeraSans-Roman-30"/>
       <use x="127.24609375" xlink:href="#BitstreamVeraSans-Roman-30"/>
       <use x="190.869140625" xlink:href="#BitstreamVeraSans-Roman-30"/>
      </g>
     </g>
    </g>
    <g id="xtick_5">
     <g id="line2d_17">
      <g>
       <use style="stroke:#000000;stroke-width:0.5;" x="162.8525" xlink:href="#mc7db9fdffb" y="244.518125"/>
      </g>
     </g>
     <g id="line2d_18">
      <g>
       <use style="stroke:#000000;stroke-width:0.5;" x="162.8525" xlink:href="#m5a7d422ac3" y="21.318125"/>
      </g>
     </g>
     <g id="text_5">
      <!-- 4000 -->
      <defs>
       <path d="
M37.7969 64.3125
L12.8906 25.3906
L37.7969 25.3906
z

M35.2031 72.9062
L47.6094 72.9062
L47.6094 25.3906
L58.0156 25.3906
L58.0156 17.1875
L47.6094 17.1875
L47.6094 0
L37.7969 0
L37.7969 17.1875
L4.89062 17.1875
L4.89062 26.7031
z
" id="BitstreamVeraSans-Roman-34"/>
      </defs>
      <g transform="translate(150.7040625 256.1165625)scale(0.1 -0.1)">
       <use xlink:href="#BitstreamVeraSans-Roman-34"/>
       <use x="63.623046875" xlink:href="#BitstreamVeraSans-Roman-30"/>
       <use x="127.24609375" xlink:href="#BitstreamVeraSans-Roman-30"/>
       <use x="190.869140625" xlink:href="#BitstreamVeraSans-Roman-30"/>
      </g>
     </g>
    </g>
    <g id="xtick_6">
     <g id="line2d_19">
      <g>
       <use style="stroke:#000000;stroke-width:0.5;" x="192.6125" xlink:href="#mc7db9fdffb" y="244.518125"/>
      </g>
     </g>
     <g id="line2d_20">
      <g>
       <use style="stroke:#000000;stroke-width:0.5;" x="192.6125" xlink:href="#m5a7d422ac3" y="21.318125"/>
      </g>
     </g>
     <g id="text_6">
      <!-- 5000 -->
      <defs>
       <path d="
M10.7969 72.9062
L49.5156 72.9062
L49.5156 64.5938
L19.8281 64.5938
L19.8281 46.7344
Q21.9688 47.4688 24.1094 47.8281
Q26.2656 48.1875 28.4219 48.1875
Q40.625 48.1875 47.75 41.5
Q54.8906 34.8125 54.8906 23.3906
Q54.8906 11.625 47.5625 5.09375
Q40.2344 -1.42188 26.9062 -1.42188
Q22.3125 -1.42188 17.5469 -0.640625
Q12.7969 0.140625 7.71875 1.70312
L7.71875 11.625
Q12.1094 9.23438 16.7969 8.0625
Q21.4844 6.89062 26.7031 6.89062
Q35.1562 6.89062 40.0781 11.3281
Q45.0156 15.7656 45.0156 23.3906
Q45.0156 31 40.0781 35.4375
Q35.1562 39.8906 26.7031 39.8906
Q22.75 39.8906 18.8125 39.0156
Q14.8906 38.1406 10.7969 36.2812
z
" id="BitstreamVeraSans-Roman-35"/>
      </defs>
      <g transform="translate(180.60546875 256.1165625)scale(0.1 -0.1)">
       <use xlink:href="#BitstreamVeraSans-Roman-35"/>
       <use x="63.623046875" xlink:href="#BitstreamVeraSans-Roman-30"/>
       <use x="127.24609375" xlink:href="#BitstreamVeraSans-Roman-30"/>
       <use x="190.869140625" xlink:href="#BitstreamVeraSans-Roman-30"/>
      </g>
     </g>
    </g>
    <g id="xtick_7">
     <g id="line2d_21">
      <g>
       <use style="stroke:#000000;stroke-width:0.5;" x="222.3725" xlink:href="#mc7db9fdffb" y="244.518125"/>
      </g>
     </g>
     <g id="line2d_22">
      <g>
       <use style="stroke:#000000;stroke-width:0.5;" x="222.3725" xlink:href="#m5a7d422ac3" y="21.318125"/>
      </g>
     </g>
     <g id="text_7">
      <!-- 6000 -->
      <defs>
       <path d="
M33.0156 40.375
Q26.375 40.375 22.4844 35.8281
Q18.6094 31.2969 18.6094 23.3906
Q18.6094 15.5312 22.4844 10.9531
Q26.375 6.39062 33.0156 6.39062
Q39.6562 6.39062 43.5312 10.9531
Q47.4062 15.5312 47.4062 23.3906
Q47.4062 31.2969 43.5312 35.8281
Q39.6562 40.375 33.0156 40.375
M52.5938 71.2969
L52.5938 62.3125
Q48.875 64.0625 45.0938 64.9844
Q41.3125 65.9219 37.5938 65.9219
Q27.8281 65.9219 22.6719 59.3281
Q17.5312 52.7344 16.7969 39.4062
Q19.6719 43.6562 24.0156 45.9219
Q28.375 48.1875 33.5938 48.1875
Q44.5781 48.1875 50.9531 41.5156
Q57.3281 34.8594 57.3281 23.3906
Q57.3281 12.1562 50.6875 5.35938
Q44.0469 -1.42188 33.0156 -1.42188
Q20.3594 -1.42188 13.6719 8.26562
Q6.98438 17.9688 6.98438 36.375
Q6.98438 53.6562 15.1875 63.9375
Q23.3906 74.2188 37.2031 74.2188
Q40.9219 74.2188 44.7031 73.4844
Q48.4844 72.75 52.5938 71.2969" id="BitstreamVeraSans-Roman-36"/>
      </defs>
      <g transform="translate(210.32875 256.1165625)scale(0.1 -0.1)">
       <use xlink:href="#BitstreamVeraSans-Roman-36"/>
       <use x="63.623046875" xlink:href="#BitstreamVeraSans-Roman-30"/>
       <use x="127.24609375" xlink:href="#BitstreamVeraSans-Roman-30"/>
       <use x="190.869140625" xlink:href="#BitstreamVeraSans-Roman-30"/>
      </g>
     </g>
    </g>
    <g id="xtick_8">
     <g id="line2d_23">
      <g>
       <use style="stroke:#000000;stroke-width:0.5;" x="252.1325" xlink:href="#mc7db9fdffb" y="244.518125"/>
      </g>
     </g>
     <g id="line2d_24">
      <g>
       <use style="stroke:#000000;stroke-width:0.5;" x="252.1325" xlink:href="#m5a7d422ac3" y="21.318125"/>
      </g>
     </g>
     <g id="text_8">
      <!-- 7000 -->
      <defs>
       <path d="
M8.20312 72.9062
L55.0781 72.9062
L55.0781 68.7031
L28.6094 0
L18.3125 0
L43.2188 64.5938
L8.20312 64.5938
z
" id="BitstreamVeraSans-Roman-37"/>
      </defs>
      <g transform="translate(240.1496875 256.1165625)scale(0.1 -0.1)">
       <use xlink:href="#BitstreamVeraSans-Roman-37"/>
       <use x="63.623046875" xlink:href="#BitstreamVeraSans-Roman-30"/>
       <use x="127.24609375" xlink:href="#BitstreamVeraSans-Roman-30"/>
       <use x="190.869140625" xlink:href="#BitstreamVeraSans-Roman-30"/>
      </g>
     </g>
    </g>
    <g id="xtick_9">
     <g id="line2d_25">
      <g>
       <use style="stroke:#000000;stroke-width:0.5;" x="281.8925" xlink:href="#mc7db9fdffb" y="244.518125"/>
      </g>
     </g>
     <g id="line2d_26">
      <g>
       <use style="stroke:#000000;stroke-width:0.5;" x="281.8925" xlink:href="#m5a7d422ac3" y="21.318125"/>
      </g>
     </g>
     <g id="text_9">
      <!-- 8000 -->
      <defs>
       <path d="
M31.7812 34.625
Q24.75 34.625 20.7188 30.8594
Q16.7031 27.0938 16.7031 20.5156
Q16.7031 13.9219 20.7188 10.1562
Q24.75 6.39062 31.7812 6.39062
Q38.8125 6.39062 42.8594 10.1719
Q46.9219 13.9688 46.9219 20.5156
Q46.9219 27.0938 42.8906 30.8594
Q38.875 34.625 31.7812 34.625
M21.9219 38.8125
Q15.5781 40.375 12.0312 44.7188
Q8.5 49.0781 8.5 55.3281
Q8.5 64.0625 14.7188 69.1406
Q20.9531 74.2188 31.7812 74.2188
Q42.6719 74.2188 48.875 69.1406
Q55.0781 64.0625 55.0781 55.3281
Q55.0781 49.0781 51.5312 44.7188
Q48 40.375 41.7031 38.8125
Q48.8281 37.1562 52.7969 32.3125
Q56.7812 27.4844 56.7812 20.5156
Q56.7812 9.90625 50.3125 4.23438
Q43.8438 -1.42188 31.7812 -1.42188
Q19.7344 -1.42188 13.25 4.23438
Q6.78125 9.90625 6.78125 20.5156
Q6.78125 27.4844 10.7812 32.3125
Q14.7969 37.1562 21.9219 38.8125
M18.3125 54.3906
Q18.3125 48.7344 21.8438 45.5625
Q25.3906 42.3906 31.7812 42.3906
Q38.1406 42.3906 41.7188 45.5625
Q45.3125 48.7344 45.3125 54.3906
Q45.3125 60.0625 41.7188 63.2344
Q38.1406 66.4062 31.7812 66.4062
Q25.3906 66.4062 21.8438 63.2344
Q18.3125 60.0625 18.3125 54.3906" id="BitstreamVeraSans-Roman-38"/>
      </defs>
      <g transform="translate(269.83859375 256.1165625)scale(0.1 -0.1)">
       <use xlink:href="#BitstreamVeraSans-Roman-38"/>
       <use x="63.623046875" xlink:href="#BitstreamVeraSans-Roman-30"/>
       <use x="127.24609375" xlink:href="#BitstreamVeraSans-Roman-30"/>
       <use x="190.869140625" xlink:href="#BitstreamVeraSans-Roman-30"/>
      </g>
     </g>
    </g>
    <g id="xtick_10">
     <g id="line2d_27">
      <g>
       <use style="stroke:#000000;stroke-width:0.5;" x="311.6525" xlink:href="#mc7db9fdffb" y="244.518125"/>
      </g>
     </g>
     <g id="line2d_28">
      <g>
       <use style="stroke:#000000;stroke-width:0.5;" x="311.6525" xlink:href="#m5a7d422ac3" y="21.318125"/>
      </g>
     </g>
     <g id="text_10">
      <!-- 9000 -->
      <defs>
       <path d="
M10.9844 1.51562
L10.9844 10.5
Q14.7031 8.73438 18.5 7.8125
Q22.3125 6.89062 25.9844 6.89062
Q35.75 6.89062 40.8906 13.4531
Q46.0469 20.0156 46.7812 33.4062
Q43.9531 29.2031 39.5938 26.9531
Q35.25 24.7031 29.9844 24.7031
Q19.0469 24.7031 12.6719 31.3125
Q6.29688 37.9375 6.29688 49.4219
Q6.29688 60.6406 12.9375 67.4219
Q19.5781 74.2188 30.6094 74.2188
Q43.2656 74.2188 49.9219 64.5156
Q56.5938 54.8281 56.5938 36.375
Q56.5938 19.1406 48.4062 8.85938
Q40.2344 -1.42188 26.4219 -1.42188
Q22.7031 -1.42188 18.8906 -0.6875
Q15.0938 0.046875 10.9844 1.51562
M30.6094 32.4219
Q37.25 32.4219 41.125 36.9531
Q45.0156 41.5 45.0156 49.4219
Q45.0156 57.2812 41.125 61.8438
Q37.25 66.4062 30.6094 66.4062
Q23.9688 66.4062 20.0938 61.8438
Q16.2188 57.2812 16.2188 49.4219
Q16.2188 41.5 20.0938 36.9531
Q23.9688 32.4219 30.6094 32.4219" id="BitstreamVeraSans-Roman-39"/>
      </defs>
      <g transform="translate(299.574375 256.1165625)scale(0.1 -0.1)">
       <use xlink:href="#BitstreamVeraSans-Roman-39"/>
       <use x="63.623046875" xlink:href="#BitstreamVeraSans-Roman-30"/>
       <use x="127.24609375" xlink:href="#BitstreamVeraSans-Roman-30"/>
       <use x="190.869140625" xlink:href="#BitstreamVeraSans-Roman-30"/>
      </g>
     </g>
    </g>
    <g id="text_11">
     <!-- hour in year -->
     <defs>
      <path d="
M30.6094 48.3906
Q23.3906 48.3906 19.1875 42.75
Q14.9844 37.1094 14.9844 27.2969
Q14.9844 17.4844 19.1562 11.8438
Q23.3438 6.20312 30.6094 6.20312
Q37.7969 6.20312 41.9844 11.8594
Q46.1875 17.5312 46.1875 27.2969
Q46.1875 37.0156 41.9844 42.7031
Q37.7969 48.3906 30.6094 48.3906
M30.6094 56
Q42.3281 56 49.0156 48.375
Q55.7188 40.7656 55.7188 27.2969
Q55.7188 13.875 49.0156 6.21875
Q42.3281 -1.42188 30.6094 -1.42188
Q18.8438 -1.42188 12.1719 6.21875
Q5.51562 13.875 5.51562 27.2969
Q5.51562 40.7656 12.1719 48.375
Q18.8438 56 30.6094 56" id="BitstreamVeraSans-Roman-6f"/>
      <path d="
M8.5 21.5781
L8.5 54.6875
L17.4844 54.6875
L17.4844 21.9219
Q17.4844 14.1562 20.5 10.2656
Q23.5312 6.39062 29.5938 6.39062
Q36.8594 6.39062 41.0781 11.0312
Q45.3125 15.6719 45.3125 23.6875
L45.3125 54.6875
L54.2969 54.6875
L54.2969 0
L45.3125 0
L45.3125 8.40625
Q42.0469 3.42188 37.7188 1
Q33.4062 -1.42188 27.6875 -1.42188
Q18.2656 -1.42188 13.375 4.4375
Q8.5 10.2969 8.5 21.5781" id="BitstreamVeraSans-Roman-75"/>
      <path d="
M56.2031 29.5938
L56.2031 25.2031
L14.8906 25.2031
Q15.4844 15.9219 20.4844 11.0625
Q25.4844 6.20312 34.4219 6.20312
Q39.5938 6.20312 44.4531 7.46875
Q49.3125 8.73438 54.1094 11.2812
L54.1094 2.78125
Q49.2656 0.734375 44.1875 -0.34375
Q39.1094 -1.42188 33.8906 -1.42188
Q20.7969 -1.42188 13.1562 6.1875
Q5.51562 13.8125 5.51562 26.8125
Q5.51562 40.2344 12.7656 48.1094
Q20.0156 56 32.3281 56
Q43.3594 56 49.7812 48.8906
Q56.2031 41.7969 56.2031 29.5938
M47.2188 32.2344
Q47.125 39.5938 43.0938 43.9844
Q39.0625 48.3906 32.4219 48.3906
Q24.9062 48.3906 20.3906 44.1406
Q15.875 39.8906 15.1875 32.1719
z
" id="BitstreamVeraSans-Roman-65"/>
      <path d="
M9.42188 54.6875
L18.4062 54.6875
L18.4062 0
L9.42188 0
z

M9.42188 75.9844
L18.4062 75.9844
L18.4062 64.5938
L9.42188 64.5938
z
" id="BitstreamVeraSans-Roman-69"/>
      <path d="
M32.1719 -5.07812
Q28.375 -14.8438 24.75 -17.8125
Q21.1406 -20.7969 15.0938 -20.7969
L7.90625 -20.7969
L7.90625 -13.2812
L13.1875 -13.2812
Q16.8906 -13.2812 18.9375 -11.5156
Q21 -9.76562 23.4844 -3.21875
L25.0938 0.875
L2.98438 54.6875
L12.5 54.6875
L29.5938 11.9219
L46.6875 54.6875
L56.2031 54.6875
z
" id="BitstreamVeraSans-Roman-79"/>
      <path d="
M54.8906 33.0156
L54.8906 0
L45.9062 0
L45.9062 32.7188
Q45.9062 40.4844 42.875 44.3281
Q39.8438 48.1875 33.7969 48.1875
Q26.5156 48.1875 22.3125 43.5469
Q18.1094 38.9219 18.1094 30.9062
L18.1094 0
L9.07812 0
L9.07812 75.9844
L18.1094 75.9844
L18.1094 46.1875
Q21.3438 51.125 25.7031 53.5625
Q30.0781 56 35.7969 56
Q45.2188 56 50.0469 50.1719
Q54.8906 44.3438 54.8906 33.0156" id="BitstreamVeraSans-Roman-68"/>
      <path d="
M41.1094 46.2969
Q39.5938 47.1719 37.8125 47.5781
Q36.0312 48 33.8906 48
Q26.2656 48 22.1875 43.0469
Q18.1094 38.0938 18.1094 28.8125
L18.1094 0
L9.07812 0
L9.07812 54.6875
L18.1094 54.6875
L18.1094 46.1875
Q20.9531 51.1719 25.4844 53.5781
Q30.0312 56 36.5312 56
Q37.4531 56 38.5781 55.875
Q39.7031 55.7656 41.0625 55.5156
z
" id="BitstreamVeraSans-Roman-72"/>
      <path d="
M54.8906 33.0156
L54.8906 0
L45.9062 0
L45.9062 32.7188
Q45.9062 40.4844 42.875 44.3281
Q39.8438 48.1875 33.7969 48.1875
Q26.5156 48.1875 22.3125 43.5469
Q18.1094 38.9219 18.1094 30.9062
L18.1094 0
L9.07812 0
L9.07812 54.6875
L18.1094 54.6875
L18.1094 46.1875
Q21.3438 51.125 25.7031 53.5625
Q30.0781 56 35.7969 56
Q45.2188 56 50.0469 50.1719
Q54.8906 44.3438 54.8906 33.0156" id="BitstreamVeraSans-Roman-6e"/>
      <path d="
M34.2812 27.4844
Q23.3906 27.4844 19.1875 25
Q14.9844 22.5156 14.9844 16.5
Q14.9844 11.7188 18.1406 8.90625
Q21.2969 6.10938 26.7031 6.10938
Q34.1875 6.10938 38.7031 11.4062
Q43.2188 16.7031 43.2188 25.4844
L43.2188 27.4844
z

M52.2031 31.2031
L52.2031 0
L43.2188 0
L43.2188 8.29688
Q40.1406 3.32812 35.5469 0.953125
Q30.9531 -1.42188 24.3125 -1.42188
Q15.9219 -1.42188 10.9531 3.29688
Q6 8.01562 6 15.9219
Q6 25.1406 12.1719 29.8281
Q18.3594 34.5156 30.6094 34.5156
L43.2188 34.5156
L43.2188 35.4062
Q43.2188 41.6094 39.1406 45
Q35.0625 48.3906 27.6875 48.3906
Q23 48.3906 18.5469 47.2656
Q14.1094 46.1406 10.0156 43.8906
L10.0156 52.2031
Q14.9375 54.1094 19.5781 55.0469
Q24.2188 56 28.6094 56
Q40.4844 56 46.3438 49.8438
Q52.2031 43.7031 52.2031 31.2031" id="BitstreamVeraSans-Roman-61"/>
      <path id="BitstreamVeraSans-Roman-20"/>
     </defs>
     <g transform="translate(147.38875 270.7946875)scale(0.1 -0.1)">
      <use xlink:href="#BitstreamVeraSans-Roman-68"/>
      <use x="63.37890625" xlink:href="#BitstreamVeraSans-Roman-6f"/>
      <use x="124.560546875" xlink:href="#BitstreamVeraSans-Roman-75"/>
      <use x="187.939453125" xlink:href="#BitstreamVeraSans-Roman-72"/>
      <use x="229.052734375" xlink:href="#BitstreamVeraSans-Roman-20"/>
      <use x="260.83984375" xlink:href="#BitstreamVeraSans-Roman-69"/>
      <use x="288.623046875" xlink:href="#BitstreamVeraSans-Roman-6e"/>
      <use x="352.001953125" xlink:href="#BitstreamVeraSans-Roman-20"/>
      <use x="383.7890625" xlink:href="#BitstreamVeraSans-Roman-79"/>
      <use x="442.96875" xlink:href="#BitstreamVeraSans-Roman-65"/>
      <use x="504.4921875" xlink:href="#BitstreamVeraSans-Roman-61"/>
      <use x="565.771484375" xlink:href="#BitstreamVeraSans-Roman-72"/>
     </g>
    </g>
   </g>
   <g id="matplotlib.axis_2">
    <g id="ytick_1">
     <g id="line2d_29">
      <defs>
       <path d="
M0 0
L4 0" id="md7965d1ba0" style="stroke:#000000;stroke-width:0.5;"/>
      </defs>
      <g>
       <use style="stroke:#000000;stroke-width:0.5;" x="43.8125" xlink:href="#md7965d1ba0" y="244.518125"/>
      </g>
     </g>
     <g id="line2d_30">
      <defs>
       <path d="
M0 0
L-4 0" id="md9a1c1a7cd" style="stroke:#000000;stroke-width:0.5;"/>
      </defs>
      <g>
       <use style="stroke:#000000;stroke-width:0.5;" x="311.6525" xlink:href="#md9a1c1a7cd" y="244.518125"/>
      </g>
     </g>
     <g id="text_12">
      <!-- 0 -->
      <g transform="translate(34.7734375 247.2775)scale(0.1 -0.1)">
       <use xlink:href="#BitstreamVeraSans-Roman-30"/>
      </g>
     </g>
    </g>
    <g id="ytick_2">
     <g id="line2d_31">
      <g>
       <use style="stroke:#000000;stroke-width:0.5;" x="43.8125" xlink:href="#md7965d1ba0" y="216.618125"/>
      </g>
     </g>
     <g id="line2d_32">
      <g>
       <use style="stroke:#000000;stroke-width:0.5;" x="311.6525" xlink:href="#md9a1c1a7cd" y="216.618125"/>
      </g>
     </g>
     <g id="text_13">
      <!-- 100 -->
      <g transform="translate(22.4875 219.3775)scale(0.1 -0.1)">
       <use xlink:href="#BitstreamVeraSans-Roman-31"/>
       <use x="63.623046875" xlink:href="#BitstreamVeraSans-Roman-30"/>
       <use x="127.24609375" xlink:href="#BitstreamVeraSans-Roman-30"/>
      </g>
     </g>
    </g>
    <g id="ytick_3">
     <g id="line2d_33">
      <g>
       <use style="stroke:#000000;stroke-width:0.5;" x="43.8125" xlink:href="#md7965d1ba0" y="188.718125"/>
      </g>
     </g>
     <g id="line2d_34">
      <g>
       <use style="stroke:#000000;stroke-width:0.5;" x="311.6525" xlink:href="#md9a1c1a7cd" y="188.718125"/>
      </g>
     </g>
     <g id="text_14">
      <!-- 200 -->
      <g transform="translate(22.121875 191.4775)scale(0.1 -0.1)">
       <use xlink:href="#BitstreamVeraSans-Roman-32"/>
       <use x="63.623046875" xlink:href="#BitstreamVeraSans-Roman-30"/>
       <use x="127.24609375" xlink:href="#BitstreamVeraSans-Roman-30"/>
      </g>
     </g>
    </g>
    <g id="ytick_4">
     <g id="line2d_35">
      <g>
       <use style="stroke:#000000;stroke-width:0.5;" x="43.8125" xlink:href="#md7965d1ba0" y="160.818125"/>
      </g>
     </g>
     <g id="line2d_36">
      <g>
       <use style="stroke:#000000;stroke-width:0.5;" x="311.6525" xlink:href="#md9a1c1a7cd" y="160.818125"/>
      </g>
     </g>
     <g id="text_15">
      <!-- 300 -->
      <g transform="translate(22.1515625 163.5775)scale(0.1 -0.1)">
       <use xlink:href="#BitstreamVeraSans-Roman-33"/>
       <use x="63.623046875" xlink:href="#BitstreamVeraSans-Roman-30"/>
       <use x="127.24609375" xlink:href="#BitstreamVeraSans-Roman-30"/>
      </g>
     </g>
    </g>
    <g id="ytick_5">
     <g id="line2d_37">
      <g>
       <use style="stroke:#000000;stroke-width:0.5;" x="43.8125" xlink:href="#md7965d1ba0" y="132.918125"/>
      </g>
     </g>
     <g id="line2d_38">
      <g>
       <use style="stroke:#000000;stroke-width:0.5;" x="311.6525" xlink:href="#md9a1c1a7cd" y="132.918125"/>
      </g>
     </g>
     <g id="text_16">
      <!-- 400 -->
      <g transform="translate(21.878125 135.6775)scale(0.1 -0.1)">
       <use xlink:href="#BitstreamVeraSans-Roman-34"/>
       <use x="63.623046875" xlink:href="#BitstreamVeraSans-Roman-30"/>
       <use x="127.24609375" xlink:href="#BitstreamVeraSans-Roman-30"/>
      </g>
     </g>
    </g>
    <g id="ytick_6">
     <g id="line2d_39">
      <g>
       <use style="stroke:#000000;stroke-width:0.5;" x="43.8125" xlink:href="#md7965d1ba0" y="105.018125"/>
      </g>
     </g>
     <g id="line2d_40">
      <g>
       <use style="stroke:#000000;stroke-width:0.5;" x="311.6525" xlink:href="#md9a1c1a7cd" y="105.018125"/>
      </g>
     </g>
     <g id="text_17">
      <!-- 500 -->
      <g transform="translate(22.1609375 107.7775)scale(0.1 -0.1)">
       <use xlink:href="#BitstreamVeraSans-Roman-35"/>
       <use x="63.623046875" xlink:href="#BitstreamVeraSans-Roman-30"/>
       <use x="127.24609375" xlink:href="#BitstreamVeraSans-Roman-30"/>
      </g>
     </g>
    </g>
    <g id="ytick_7">
     <g id="line2d_41">
      <g>
       <use style="stroke:#000000;stroke-width:0.5;" x="43.8125" xlink:href="#md7965d1ba0" y="77.118125"/>
      </g>
     </g>
     <g id="line2d_42">
      <g>
       <use style="stroke:#000000;stroke-width:0.5;" x="311.6525" xlink:href="#md9a1c1a7cd" y="77.118125"/>
      </g>
     </g>
     <g id="text_18">
      <!-- 600 -->
      <g transform="translate(22.0875 79.8775)scale(0.1 -0.1)">
       <use xlink:href="#BitstreamVeraSans-Roman-36"/>
       <use x="63.623046875" xlink:href="#BitstreamVeraSans-Roman-30"/>
       <use x="127.24609375" xlink:href="#BitstreamVeraSans-Roman-30"/>
      </g>
     </g>
    </g>
    <g id="ytick_8">
     <g id="line2d_43">
      <g>
       <use style="stroke:#000000;stroke-width:0.5;" x="43.8125" xlink:href="#md7965d1ba0" y="49.218125"/>
      </g>
     </g>
     <g id="line2d_44">
      <g>
       <use style="stroke:#000000;stroke-width:0.5;" x="311.6525" xlink:href="#md9a1c1a7cd" y="49.218125"/>
      </g>
     </g>
     <g id="text_19">
      <!-- 700 -->
      <g transform="translate(22.209375 51.9775)scale(0.1 -0.1)">
       <use xlink:href="#BitstreamVeraSans-Roman-37"/>
       <use x="63.623046875" xlink:href="#BitstreamVeraSans-Roman-30"/>
       <use x="127.24609375" xlink:href="#BitstreamVeraSans-Roman-30"/>
      </g>
     </g>
    </g>
    <g id="ytick_9">
     <g id="line2d_45">
      <g>
       <use style="stroke:#000000;stroke-width:0.5;" x="43.8125" xlink:href="#md7965d1ba0" y="21.318125"/>
      </g>
     </g>
     <g id="line2d_46">
      <g>
       <use style="stroke:#000000;stroke-width:0.5;" x="311.6525" xlink:href="#md9a1c1a7cd" y="21.318125"/>
      </g>
     </g>
     <g id="text_20">
      <!-- 800 -->
      <g transform="translate(22.0671875 24.0775)scale(0.1 -0.1)">
       <use xlink:href="#BitstreamVeraSans-Roman-38"/>
       <use x="63.623046875" xlink:href="#BitstreamVeraSans-Roman-30"/>
       <use x="127.24609375" xlink:href="#BitstreamVeraSans-Roman-30"/>
      </g>
     </g>
    </g>
    <g id="text_21">
     <!-- precip in mm -->
     <defs>
      <path d="
M18.1094 8.20312
L18.1094 -20.7969
L9.07812 -20.7969
L9.07812 54.6875
L18.1094 54.6875
L18.1094 46.3906
Q20.9531 51.2656 25.2656 53.625
Q29.5938 56 35.5938 56
Q45.5625 56 51.7812 48.0938
Q58.0156 40.1875 58.0156 27.2969
Q58.0156 14.4062 51.7812 6.48438
Q45.5625 -1.42188 35.5938 -1.42188
Q29.5938 -1.42188 25.2656 0.953125
Q20.9531 3.32812 18.1094 8.20312
M48.6875 27.2969
Q48.6875 37.2031 44.6094 42.8438
Q40.5312 48.4844 33.4062 48.4844
Q26.2656 48.4844 22.1875 42.8438
Q18.1094 37.2031 18.1094 27.2969
Q18.1094 17.3906 22.1875 11.75
Q26.2656 6.10938 33.4062 6.10938
Q40.5312 6.10938 44.6094 11.75
Q48.6875 17.3906 48.6875 27.2969" id="BitstreamVeraSans-Roman-70"/>
      <path d="
M48.7812 52.5938
L48.7812 44.1875
Q44.9688 46.2969 41.1406 47.3438
Q37.3125 48.3906 33.4062 48.3906
Q24.6562 48.3906 19.8125 42.8438
Q14.9844 37.3125 14.9844 27.2969
Q14.9844 17.2812 19.8125 11.7344
Q24.6562 6.20312 33.4062 6.20312
Q37.3125 6.20312 41.1406 7.25
Q44.9688 8.29688 48.7812 10.4062
L48.7812 2.09375
Q45.0156 0.34375 40.9844 -0.53125
Q36.9688 -1.42188 32.4219 -1.42188
Q20.0625 -1.42188 12.7812 6.34375
Q5.51562 14.1094 5.51562 27.2969
Q5.51562 40.6719 12.8594 48.3281
Q20.2188 56 33.0156 56
Q37.1562 56 41.1094 55.1406
Q45.0625 54.2969 48.7812 52.5938" id="BitstreamVeraSans-Roman-63"/>
      <path d="
M52 44.1875
Q55.375 50.25 60.0625 53.125
Q64.75 56 71.0938 56
Q79.6406 56 84.2812 50.0156
Q88.9219 44.0469 88.9219 33.0156
L88.9219 0
L79.8906 0
L79.8906 32.7188
Q79.8906 40.5781 77.0938 44.375
Q74.3125 48.1875 68.6094 48.1875
Q61.625 48.1875 57.5625 43.5469
Q53.5156 38.9219 53.5156 30.9062
L53.5156 0
L44.4844 0
L44.4844 32.7188
Q44.4844 40.625 41.7031 44.4062
Q38.9219 48.1875 33.1094 48.1875
Q26.2188 48.1875 22.1562 43.5312
Q18.1094 38.875 18.1094 30.9062
L18.1094 0
L9.07812 0
L9.07812 54.6875
L18.1094 54.6875
L18.1094 46.1875
Q21.1875 51.2188 25.4844 53.6094
Q29.7812 56 35.6875 56
Q41.6562 56 45.8281 52.9688
Q50 49.9531 52 44.1875" id="BitstreamVeraSans-Roman-6d"/>
     </defs>
     <g transform="translate(14.7984375 165.47671875)rotate(-90.0)scale(0.1 -0.1)">
      <use xlink:href="#BitstreamVeraSans-Roman-70"/>
      <use x="63.4765625" xlink:href="#BitstreamVeraSans-Roman-72"/>
      <use x="102.33984375" xlink:href="#BitstreamVeraSans-Roman-65"/>
      <use x="163.86328125" xlink:href="#BitstreamVeraSans-Roman-63"/>
      <use x="218.84375" xlink:href="#BitstreamVeraSans-Roman-69"/>
      <use x="246.626953125" xlink:href="#BitstreamVeraSans-Roman-70"/>
      <use x="310.103515625" xlink:href="#BitstreamVeraSans-Roman-20"/>
      <use x="341.890625" xlink:href="#BitstreamVeraSans-Roman-69"/>
      <use x="369.673828125" xlink:href="#BitstreamVeraSans-Roman-6e"/>
      <use x="433.052734375" xlink:href="#BitstreamVeraSans-Roman-20"/>
      <use x="464.83984375" xlink:href="#BitstreamVeraSans-Roman-6d"/>
      <use x="562.251953125" xlink:href="#BitstreamVeraSans-Roman-6d"/>
     </g>
    </g>
   </g>
   <g id="text_22">
    <!-- hourly LDP precipitation -->
    <defs>
     <path d="
M19.6719 64.7969
L19.6719 37.4062
L32.0781 37.4062
Q38.9688 37.4062 42.7188 40.9688
Q46.4844 44.5312 46.4844 51.125
Q46.4844 57.6719 42.7188 61.2344
Q38.9688 64.7969 32.0781 64.7969
z

M9.8125 72.9062
L32.0781 72.9062
Q44.3438 72.9062 50.6094 67.3594
Q56.8906 61.8125 56.8906 51.125
Q56.8906 40.3281 50.6094 34.8125
Q44.3438 29.2969 32.0781 29.2969
L19.6719 29.2969
L19.6719 0
L9.8125 0
z
" id="BitstreamVeraSans-Roman-50"/>
     <path d="
M9.8125 72.9062
L19.6719 72.9062
L19.6719 8.29688
L55.1719 8.29688
L55.1719 0
L9.8125 0
z
" id="BitstreamVeraSans-Roman-4c"/>
     <path d="
M9.42188 75.9844
L18.4062 75.9844
L18.4062 0
L9.42188 0
z
" id="BitstreamVeraSans-Roman-6c"/>
     <path d="
M18.3125 70.2188
L18.3125 54.6875
L36.8125 54.6875
L36.8125 47.7031
L18.3125 47.7031
L18.3125 18.0156
Q18.3125 11.3281 20.1406 9.42188
Q21.9688 7.51562 27.5938 7.51562
L36.8125 7.51562
L36.8125 0
L27.5938 0
Q17.1875 0 13.2344 3.875
Q9.28125 7.76562 9.28125 18.0156
L9.28125 47.7031
L2.6875 47.7031
L2.6875 54.6875
L9.28125 54.6875
L9.28125 70.2188
z
" id="BitstreamVeraSans-Roman-74"/>
     <path d="
M19.6719 64.7969
L19.6719 8.10938
L31.5938 8.10938
Q46.6875 8.10938 53.6875 14.9375
Q60.6875 21.7812 60.6875 36.5312
Q60.6875 51.1719 53.6875 57.9844
Q46.6875 64.7969 31.5938 64.7969
z

M9.8125 72.9062
L30.0781 72.9062
Q51.2656 72.9062 61.1719 64.0938
Q71.0938 55.2812 71.0938 36.5312
Q71.0938 17.6719 61.125 8.82812
Q51.1719 0 30.0781 0
L9.8125 0
z
" id="BitstreamVeraSans-Roman-44"/>
    </defs>
    <g transform="translate(106.0896875 16.318125)scale(0.12 -0.12)">
     <use xlink:href="#BitstreamVeraSans-Roman-68"/>
     <use x="63.37890625" xlink:href="#BitstreamVeraSans-Roman-6f"/>
     <use x="124.560546875" xlink:href="#BitstreamVeraSans-Roman-75"/>
     <use x="187.939453125" xlink:href="#BitstreamVeraSans-Roman-72"/>
     <use x="229.052734375" xlink:href="#BitstreamVeraSans-Roman-6c"/>
     <use x="256.8359375" xlink:href="#BitstreamVeraSans-Roman-79"/>
     <use x="316.015625" xlink:href="#BitstreamVeraSans-Roman-20"/>
     <use x="347.802734375" xlink:href="#BitstreamVeraSans-Roman-4c"/>
     <use x="403.515625" xlink:href="#BitstreamVeraSans-Roman-44"/>
     <use x="480.517578125" xlink:href="#BitstreamVeraSans-Roman-50"/>
     <use x="540.8203125" xlink:href="#BitstreamVeraSans-Roman-20"/>
     <use x="572.607421875" xlink:href="#BitstreamVeraSans-Roman-70"/>
     <use x="636.083984375" xlink:href="#BitstreamVeraSans-Roman-72"/>
     <use x="674.947265625" xlink:href="#BitstreamVeraSans-Roman-65"/>
     <use x="736.470703125" xlink:href="#BitstreamVeraSans-Roman-63"/>
     <use x="791.451171875" xlink:href="#BitstreamVeraSans-Roman-69"/>
     <use x="819.234375" xlink:href="#BitstreamVeraSans-Roman-70"/>
     <use x="882.7109375" xlink:href="#BitstreamVeraSans-Roman-69"/>
     <use x="910.494140625" xlink:href="#BitstreamVeraSans-Roman-74"/>
     <use x="949.703125" xlink:href="#BitstreamVeraSans-Roman-61"/>
     <use x="1010.982421875" xlink:href="#BitstreamVeraSans-Roman-74"/>
     <use x="1050.19140625" xlink:href="#BitstreamVeraSans-Roman-69"/>
     <use x="1077.974609375" xlink:href="#BitstreamVeraSans-Roman-6f"/>
     <use x="1139.15625" xlink:href="#BitstreamVeraSans-Roman-6e"/>
    </g>
   </g>
   <g id="legend_1">
    <g id="patch_7">
     <path d="
M317.653 205.173
L389.84 205.173
L389.84 60.6631
L317.653 60.6631
z
" style="fill:#ffffff;stroke:#000000;stroke-linejoin:miter;"/>
    </g>
    <g id="line2d_47">
     <path d="
M326.053 70.3813
L342.853 70.3813" style="fill:none;stroke:#0000ff;stroke-linecap:square;"/>
    </g>
    <g id="line2d_48"/>
    <g id="text_23">
     <!-- 2007 -->
     <g transform="translate(356.0525 74.58125)scale(0.12 -0.12)">
      <use xlink:href="#BitstreamVeraSans-Roman-32"/>
      <use x="63.623046875" xlink:href="#BitstreamVeraSans-Roman-30"/>
      <use x="127.24609375" xlink:href="#BitstreamVeraSans-Roman-30"/>
      <use x="190.869140625" xlink:href="#BitstreamVeraSans-Roman-37"/>
     </g>
    </g>
    <g id="line2d_49">
     <path d="
M326.053 87.995
L342.853 87.995" style="fill:none;stroke:#0024ed;stroke-linecap:square;"/>
    </g>
    <g id="line2d_50"/>
    <g id="text_24">
     <!-- 2008 -->
     <g transform="translate(356.0525 92.195)scale(0.12 -0.12)">
      <use xlink:href="#BitstreamVeraSans-Roman-32"/>
      <use x="63.623046875" xlink:href="#BitstreamVeraSans-Roman-30"/>
      <use x="127.24609375" xlink:href="#BitstreamVeraSans-Roman-30"/>
      <use x="190.869140625" xlink:href="#BitstreamVeraSans-Roman-38"/>
     </g>
    </g>
    <g id="line2d_51">
     <path d="
M326.053 105.609
L342.853 105.609" style="fill:none;stroke:#0049db;stroke-linecap:square;"/>
    </g>
    <g id="line2d_52"/>
    <g id="text_25">
     <!-- 2009 -->
     <g transform="translate(356.0525 109.80875)scale(0.12 -0.12)">
      <use xlink:href="#BitstreamVeraSans-Roman-32"/>
      <use x="63.623046875" xlink:href="#BitstreamVeraSans-Roman-30"/>
      <use x="127.24609375" xlink:href="#BitstreamVeraSans-Roman-30"/>
      <use x="190.869140625" xlink:href="#BitstreamVeraSans-Roman-39"/>
     </g>
    </g>
    <g id="line2d_53">
     <path d="
M326.053 123.223
L342.853 123.223" style="fill:none;stroke:#006dc8;stroke-linecap:square;"/>
    </g>
    <g id="line2d_54"/>
    <g id="text_26">
     <!-- 2010 -->
     <g transform="translate(356.0525 127.4225)scale(0.12 -0.12)">
      <use xlink:href="#BitstreamVeraSans-Roman-32"/>
      <use x="63.623046875" xlink:href="#BitstreamVeraSans-Roman-30"/>
      <use x="127.24609375" xlink:href="#BitstreamVeraSans-Roman-31"/>
      <use x="190.869140625" xlink:href="#BitstreamVeraSans-Roman-30"/>
     </g>
    </g>
    <g id="line2d_55">
     <path d="
M326.053 140.836
L342.853 140.836" style="fill:none;stroke:#0092b6;stroke-linecap:square;"/>
    </g>
    <g id="line2d_56"/>
    <g id="text_27">
     <!-- 2011 -->
     <g transform="translate(356.0525 145.03625)scale(0.12 -0.12)">
      <use xlink:href="#BitstreamVeraSans-Roman-32"/>
      <use x="63.623046875" xlink:href="#BitstreamVeraSans-Roman-30"/>
      <use x="127.24609375" xlink:href="#BitstreamVeraSans-Roman-31"/>
      <use x="190.869140625" xlink:href="#BitstreamVeraSans-Roman-31"/>
     </g>
    </g>
    <g id="line2d_57">
     <path d="
M326.053 158.45
L342.853 158.45" style="fill:none;stroke:#00b6a4;stroke-linecap:square;"/>
    </g>
    <g id="line2d_58"/>
    <g id="text_28">
     <!-- 2012 -->
     <g transform="translate(356.0525 162.65)scale(0.12 -0.12)">
      <use xlink:href="#BitstreamVeraSans-Roman-32"/>
      <use x="63.623046875" xlink:href="#BitstreamVeraSans-Roman-30"/>
      <use x="127.24609375" xlink:href="#BitstreamVeraSans-Roman-31"/>
      <use x="190.869140625" xlink:href="#BitstreamVeraSans-Roman-32"/>
     </g>
    </g>
    <g id="line2d_59">
     <path d="
M326.053 176.064
L342.853 176.064" style="fill:none;stroke:#00db92;stroke-linecap:square;"/>
    </g>
    <g id="line2d_60"/>
    <g id="text_29">
     <!-- 2013 -->
     <g transform="translate(356.0525 180.26375)scale(0.12 -0.12)">
      <use xlink:href="#BitstreamVeraSans-Roman-32"/>
      <use x="63.623046875" xlink:href="#BitstreamVeraSans-Roman-30"/>
      <use x="127.24609375" xlink:href="#BitstreamVeraSans-Roman-31"/>
      <use x="190.869140625" xlink:href="#BitstreamVeraSans-Roman-33"/>
     </g>
    </g>
    <g id="line2d_61">
     <path d="
M326.053 193.678
L342.853 193.678" style="fill:none;stroke:#0000ff;stroke-linecap:square;"/>
    </g>
    <g id="line2d_62"/>
    <g id="text_30">
     <!-- 2014 -->
     <g transform="translate(356.0525 197.8775)scale(0.12 -0.12)">
      <use xlink:href="#BitstreamVeraSans-Roman-32"/>
      <use x="63.623046875" xlink:href="#BitstreamVeraSans-Roman-30"/>
      <use x="127.24609375" xlink:href="#BitstreamVeraSans-Roman-31"/>
      <use x="190.869140625" xlink:href="#BitstreamVeraSans-Roman-34"/>
     </g>
    </g>
   </g>
  </g>
 </g>
 <defs>
  <clipPath id="pf0709b6b74">
   <rect height="223.2" width="267.84" x="43.8125" y="21.318125"/>
  </clipPath>
 </defs>
</svg>
